<svg width="633" height="147" viewBox="0 0 633 147" fill="none" xmlns="http://www.w3.org/2000/svg">
<line x1="252" y1="119.5" x2="386" y2="119.5" stroke="#65BF73" stroke-width="2"/>
<path d="M376 110L386.5 119.5L376 128.5" stroke="#65BF73" stroke-width="2" stroke-linecap="round" stroke-linejoin="round"/>
<circle cx="247.5" cy="120" r="5.5" stroke="#65BF73" stroke-width="2"/>
<path d="M298.438 102.07C298.438 101.57 298.26 101.185 297.906 100.914C297.557 100.643 296.924 100.37 296.008 100.094C295.091 99.8177 294.362 99.5104 293.82 99.1719C292.784 98.5208 292.266 97.6719 292.266 96.625C292.266 95.7083 292.638 94.9531 293.383 94.3594C294.133 93.7656 295.104 93.4688 296.297 93.4688C297.089 93.4688 297.794 93.6146 298.414 93.9062C299.034 94.1979 299.521 94.6146 299.875 95.1562C300.229 95.6927 300.406 96.2891 300.406 96.9453H298.438C298.438 96.3516 298.25 95.888 297.875 95.5547C297.505 95.2161 296.974 95.0469 296.281 95.0469C295.635 95.0469 295.133 95.1849 294.773 95.4609C294.419 95.737 294.242 96.1224 294.242 96.6172C294.242 97.0339 294.435 97.3828 294.82 97.6641C295.206 97.9401 295.841 98.2109 296.727 98.4766C297.612 98.737 298.323 99.0365 298.859 99.375C299.396 99.7083 299.789 100.094 300.039 100.531C300.289 100.964 300.414 101.471 300.414 102.055C300.414 103.003 300.049 103.758 299.32 104.32C298.596 104.878 297.612 105.156 296.367 105.156C295.544 105.156 294.786 105.005 294.094 104.703C293.406 104.396 292.87 103.974 292.484 103.438C292.104 102.901 291.914 102.276 291.914 101.562H293.891C293.891 102.208 294.104 102.708 294.531 103.062C294.958 103.417 295.57 103.594 296.367 103.594C297.055 103.594 297.57 103.456 297.914 103.18C298.263 102.898 298.438 102.529 298.438 102.07ZM304.125 103.422H309.289V105H302.148V93.625H304.125V103.422ZM312.891 105H310.922V93.625H312.891V105ZM324 101.297C323.885 102.51 323.438 103.458 322.656 104.141C321.875 104.818 320.836 105.156 319.539 105.156C318.633 105.156 317.833 104.943 317.141 104.516C316.453 104.083 315.922 103.471 315.547 102.68C315.172 101.888 314.977 100.969 314.961 99.9219V98.8594C314.961 97.7865 315.151 96.8411 315.531 96.0234C315.911 95.2057 316.456 94.5755 317.164 94.1328C317.878 93.6901 318.701 93.4688 319.633 93.4688C320.888 93.4688 321.898 93.8099 322.664 94.4922C323.43 95.1745 323.875 96.138 324 97.3828H322.031C321.938 96.5651 321.698 95.9766 321.312 95.6172C320.932 95.2526 320.372 95.0703 319.633 95.0703C318.773 95.0703 318.112 95.3854 317.648 96.0156C317.19 96.6406 316.956 97.5599 316.945 98.7734V99.7812C316.945 101.01 317.164 101.948 317.602 102.594C318.044 103.24 318.69 103.562 319.539 103.562C320.315 103.562 320.898 103.388 321.289 103.039C321.68 102.69 321.927 102.109 322.031 101.297H324ZM332.422 99.9219H327.75V103.422H333.211V105H325.773V93.625H333.156V95.2188H327.75V98.3594H332.422V99.9219Z" fill="#65BF73"/>
<g filter="url(#filter0_d)">
<path d="M400 87C400 82.5817 403.582 79 408 79H621C625.418 79 629 82.5817 629 87V120H400V87Z" fill="white"/>
<path d="M400.5 87C400.5 82.8579 403.858 79.5 408 79.5H621C625.142 79.5 628.5 82.8579 628.5 87V119.5H400.5V87Z" stroke="#5452F6"/>
</g>
<g filter="url(#filter1_d)">
<path d="M400 119H629V135C629 139.418 625.418 143 621 143H408C403.582 143 400 139.418 400 135V119Z" fill="#EEEEFF"/>
<path d="M400.5 119.5H628.5V135C628.5 139.142 625.142 142.5 621 142.5H408C403.858 142.5 400.5 139.142 400.5 135V119.5Z" stroke="#5452F6"/>
</g>
<path d="M483.922 103.07C483.922 102.57 483.745 102.185 483.391 101.914C483.042 101.643 482.409 101.37 481.492 101.094C480.576 100.818 479.846 100.51 479.305 100.172C478.268 99.5208 477.75 98.6719 477.75 97.625C477.75 96.7083 478.122 95.9531 478.867 95.3594C479.617 94.7656 480.589 94.4688 481.781 94.4688C482.573 94.4688 483.279 94.6146 483.898 94.9062C484.518 95.1979 485.005 95.6146 485.359 96.1562C485.714 96.6927 485.891 97.2891 485.891 97.9453H483.922C483.922 97.3516 483.734 96.888 483.359 96.5547C482.99 96.2161 482.458 96.0469 481.766 96.0469C481.12 96.0469 480.617 96.1849 480.258 96.4609C479.904 96.737 479.727 97.1224 479.727 97.6172C479.727 98.0339 479.919 98.3828 480.305 98.6641C480.69 98.9401 481.326 99.2109 482.211 99.4766C483.096 99.737 483.807 100.036 484.344 100.375C484.88 100.708 485.273 101.094 485.523 101.531C485.773 101.964 485.898 102.471 485.898 103.055C485.898 104.003 485.534 104.758 484.805 105.32C484.081 105.878 483.096 106.156 481.852 106.156C481.029 106.156 480.271 106.005 479.578 105.703C478.891 105.396 478.354 104.974 477.969 104.438C477.589 103.901 477.398 103.276 477.398 102.562H479.375C479.375 103.208 479.589 103.708 480.016 104.062C480.443 104.417 481.055 104.594 481.852 104.594C482.539 104.594 483.055 104.456 483.398 104.18C483.747 103.898 483.922 103.529 483.922 103.07ZM489.828 95.4922V97.5469H491.32V98.9531H489.828V103.672C489.828 103.995 489.891 104.229 490.016 104.375C490.146 104.516 490.375 104.586 490.703 104.586C490.922 104.586 491.143 104.56 491.367 104.508V105.977C490.935 106.096 490.518 106.156 490.117 106.156C488.659 106.156 487.93 105.352 487.93 103.742V98.9531H486.539V97.5469H487.93V95.4922H489.828ZM497.203 99.2812C496.953 99.2396 496.695 99.2188 496.43 99.2188C495.56 99.2188 494.974 99.5521 494.672 100.219V106H492.773V97.5469H494.586L494.633 98.4922C495.091 97.7578 495.727 97.3906 496.539 97.3906C496.81 97.3906 497.034 97.4271 497.211 97.5L497.203 99.2812ZM500.422 106H498.523V97.5469H500.422V106ZM498.406 95.3516C498.406 95.0599 498.497 94.8177 498.68 94.625C498.867 94.4323 499.133 94.3359 499.477 94.3359C499.82 94.3359 500.086 94.4323 500.273 94.625C500.461 94.8177 500.555 95.0599 500.555 95.3516C500.555 95.638 500.461 95.8776 500.273 96.0703C500.086 96.2578 499.82 96.3516 499.477 96.3516C499.133 96.3516 498.867 96.2578 498.68 96.0703C498.497 95.8776 498.406 95.638 498.406 95.3516ZM504.258 97.5469L504.312 98.5234C504.938 97.7682 505.758 97.3906 506.773 97.3906C508.534 97.3906 509.43 98.3984 509.461 100.414V106H507.562V100.523C507.562 99.987 507.445 99.5911 507.211 99.3359C506.982 99.0755 506.604 98.9453 506.078 98.9453C505.312 98.9453 504.742 99.2917 504.367 99.9844V106H502.469V97.5469H504.258ZM511.07 101.711C511.07 100.398 511.378 99.3516 511.992 98.5703C512.612 97.7839 513.432 97.3906 514.453 97.3906C515.417 97.3906 516.174 97.7266 516.727 98.3984L516.812 97.5469H518.523V105.742C518.523 106.852 518.177 107.727 517.484 108.367C516.797 109.008 515.867 109.328 514.695 109.328C514.076 109.328 513.469 109.198 512.875 108.938C512.286 108.682 511.839 108.346 511.531 107.93L512.43 106.789C513.013 107.482 513.732 107.828 514.586 107.828C515.216 107.828 515.714 107.656 516.078 107.312C516.443 106.974 516.625 106.474 516.625 105.812V105.242C516.078 105.852 515.349 106.156 514.438 106.156C513.448 106.156 512.638 105.763 512.008 104.977C511.383 104.19 511.07 103.102 511.07 101.711ZM512.961 101.875C512.961 102.724 513.133 103.393 513.477 103.883C513.826 104.367 514.307 104.609 514.922 104.609C515.688 104.609 516.255 104.281 516.625 103.625V99.9062C516.266 99.2656 515.703 98.9453 514.938 98.9453C514.312 98.9453 513.826 99.1927 513.477 99.6875C513.133 100.182 512.961 100.911 512.961 101.875ZM525.766 93.7969L526.734 94.3984C526.26 95.0911 526.016 95.8125 526 96.5625V97.75H524.336V96.6719C524.341 96.1719 524.477 95.651 524.742 95.1094C525.013 94.5625 525.354 94.125 525.766 93.7969ZM528.391 93.7969L529.359 94.3984C528.885 95.0911 528.641 95.8125 528.625 96.5625V97.75H526.961V96.6719C526.966 96.1719 527.102 95.651 527.367 95.1094C527.638 94.5625 527.979 94.125 528.391 93.7969ZM533.875 106.156C532.672 106.156 531.695 105.779 530.945 105.023C530.201 104.263 529.828 103.253 529.828 101.992V101.758C529.828 100.914 529.99 100.161 530.312 99.5C530.641 98.8333 531.099 98.3151 531.688 97.9453C532.276 97.5755 532.932 97.3906 533.656 97.3906C534.807 97.3906 535.695 97.7578 536.32 98.4922C536.951 99.2266 537.266 100.266 537.266 101.609V102.375H531.742C531.799 103.073 532.031 103.625 532.438 104.031C532.849 104.438 533.365 104.641 533.984 104.641C534.854 104.641 535.562 104.289 536.109 103.586L537.133 104.562C536.794 105.068 536.341 105.461 535.773 105.742C535.211 106.018 534.578 106.156 533.875 106.156ZM533.648 98.9141C533.128 98.9141 532.706 99.0964 532.383 99.4609C532.065 99.8255 531.862 100.333 531.773 100.984H535.391V100.844C535.349 100.208 535.18 99.7292 534.883 99.4062C534.586 99.0781 534.174 98.9141 533.648 98.9141ZM540.766 106H538.867V94H540.766V106ZM544.859 106H542.961V94H544.859V106ZM547.43 98L546.461 97.3984C546.93 96.7161 547.172 95.9948 547.188 95.2344V94H548.852V95.0781C548.852 95.6146 548.714 96.1562 548.438 96.7031C548.167 97.2448 547.831 97.6771 547.43 98ZM550.039 98L549.07 97.3984C549.539 96.7161 549.781 95.9948 549.797 95.2344V94H551.461V95.0781C551.461 95.6146 551.323 96.1562 551.047 96.7031C550.776 97.2448 550.44 97.6771 550.039 98Z" fill="#FF5A43"/>
<g filter="url(#filter2_d)">
<path d="M0 8C0 3.58172 3.58172 0 8 0H221C225.418 0 229 3.58172 229 8V120H0V8Z" fill="white"/>
<line x1="0.5" y1="79.5" x2="228.5" y2="79.5" stroke="#5452F6"/>
<line x1="0.5" y1="39.5" x2="228.5" y2="39.5" stroke="#5452F6"/>
<path d="M73.7891 102.07C73.7891 101.57 73.612 101.185 73.2578 100.914C72.9089 100.643 72.276 100.37 71.3594 100.094C70.4427 99.8177 69.7135 99.5104 69.1719 99.1719C68.1354 98.5208 67.6172 97.6719 67.6172 96.625C67.6172 95.7083 67.9896 94.9531 68.7344 94.3594C69.4844 93.7656 70.4557 93.4688 71.6484 93.4688C72.4401 93.4688 73.1458 93.6146 73.7656 93.9062C74.3854 94.1979 74.8724 94.6146 75.2266 95.1562C75.5807 95.6927 75.7578 96.2891 75.7578 96.9453H73.7891C73.7891 96.3516 73.6016 95.888 73.2266 95.5547C72.8568 95.2161 72.3255 95.0469 71.6328 95.0469C70.987 95.0469 70.4844 95.1849 70.125 95.4609C69.7708 95.737 69.5938 96.1224 69.5938 96.6172C69.5938 97.0339 69.7865 97.3828 70.1719 97.6641C70.5573 97.9401 71.1927 98.2109 72.0781 98.4766C72.9635 98.737 73.6745 99.0365 74.2109 99.375C74.7474 99.7083 75.1406 100.094 75.3906 100.531C75.6406 100.964 75.7656 101.471 75.7656 102.055C75.7656 103.003 75.401 103.758 74.6719 104.32C73.9479 104.878 72.9635 105.156 71.7188 105.156C70.8958 105.156 70.138 105.005 69.4453 104.703C68.7578 104.396 68.2214 103.974 67.8359 103.438C67.4557 102.901 67.2656 102.276 67.2656 101.562H69.2422C69.2422 102.208 69.4557 102.708 69.8828 103.062C70.3099 103.417 70.9219 103.594 71.7188 103.594C72.4062 103.594 72.9219 103.456 73.2656 103.18C73.6146 102.898 73.7891 102.529 73.7891 102.07ZM79.6953 94.4922V96.5469H81.1875V97.9531H79.6953V102.672C79.6953 102.995 79.7578 103.229 79.8828 103.375C80.013 103.516 80.2422 103.586 80.5703 103.586C80.7891 103.586 81.0104 103.56 81.2344 103.508V104.977C80.8021 105.096 80.3854 105.156 79.9844 105.156C78.526 105.156 77.7969 104.352 77.7969 102.742V97.9531H76.4062V96.5469H77.7969V94.4922H79.6953ZM87.0703 98.2812C86.8203 98.2396 86.5625 98.2188 86.2969 98.2188C85.4271 98.2188 84.8411 98.5521 84.5391 99.2188V105H82.6406V96.5469H84.4531L84.5 97.4922C84.9583 96.7578 85.5938 96.3906 86.4062 96.3906C86.6771 96.3906 86.901 96.4271 87.0781 96.5L87.0703 98.2812ZM90.2891 105H88.3906V96.5469H90.2891V105ZM88.2734 94.3516C88.2734 94.0599 88.3646 93.8177 88.5469 93.625C88.7344 93.4323 89 93.3359 89.3438 93.3359C89.6875 93.3359 89.9531 93.4323 90.1406 93.625C90.3281 93.8177 90.4219 94.0599 90.4219 94.3516C90.4219 94.638 90.3281 94.8776 90.1406 95.0703C89.9531 95.2578 89.6875 95.3516 89.3438 95.3516C89 95.3516 88.7344 95.2578 88.5469 95.0703C88.3646 94.8776 88.2734 94.638 88.2734 94.3516ZM94.125 96.5469L94.1797 97.5234C94.8047 96.7682 95.625 96.3906 96.6406 96.3906C98.401 96.3906 99.2969 97.3984 99.3281 99.4141V105H97.4297V99.5234C97.4297 98.987 97.3125 98.5911 97.0781 98.3359C96.849 98.0755 96.4714 97.9453 95.9453 97.9453C95.1797 97.9453 94.6094 98.2917 94.2344 98.9844V105H92.3359V96.5469H94.125ZM100.938 100.711C100.938 99.3984 101.245 98.3516 101.859 97.5703C102.479 96.7839 103.299 96.3906 104.32 96.3906C105.284 96.3906 106.042 96.7266 106.594 97.3984L106.68 96.5469H108.391V104.742C108.391 105.852 108.044 106.727 107.352 107.367C106.664 108.008 105.734 108.328 104.562 108.328C103.943 108.328 103.336 108.198 102.742 107.938C102.154 107.682 101.706 107.346 101.398 106.93L102.297 105.789C102.88 106.482 103.599 106.828 104.453 106.828C105.083 106.828 105.581 106.656 105.945 106.312C106.31 105.974 106.492 105.474 106.492 104.812V104.242C105.945 104.852 105.216 105.156 104.305 105.156C103.315 105.156 102.505 104.763 101.875 103.977C101.25 103.19 100.938 102.102 100.938 100.711ZM102.828 100.875C102.828 101.724 103 102.393 103.344 102.883C103.693 103.367 104.174 103.609 104.789 103.609C105.555 103.609 106.122 103.281 106.492 102.625V98.9062C106.133 98.2656 105.57 97.9453 104.805 97.9453C104.18 97.9453 103.693 98.1927 103.344 98.6875C103 99.1823 102.828 99.9115 102.828 100.875ZM115.633 92.7969L116.602 93.3984C116.128 94.0911 115.883 94.8125 115.867 95.5625V96.75H114.203V95.6719C114.208 95.1719 114.344 94.651 114.609 94.1094C114.88 93.5625 115.221 93.125 115.633 92.7969ZM118.258 92.7969L119.227 93.3984C118.753 94.0911 118.508 94.8125 118.492 95.5625V96.75H116.828V95.6719C116.833 95.1719 116.969 94.651 117.234 94.1094C117.505 93.5625 117.846 93.125 118.258 92.7969ZM129.703 105H127.734V99.9453H122.648V105H120.672V93.625H122.648V98.3594H127.734V93.625H129.703V105ZM135.586 105.156C134.383 105.156 133.406 104.779 132.656 104.023C131.911 103.263 131.539 102.253 131.539 100.992V100.758C131.539 99.9141 131.701 99.1615 132.023 98.5C132.352 97.8333 132.81 97.3151 133.398 96.9453C133.987 96.5755 134.643 96.3906 135.367 96.3906C136.518 96.3906 137.406 96.7578 138.031 97.4922C138.661 98.2266 138.977 99.2656 138.977 100.609V101.375H133.453C133.51 102.073 133.742 102.625 134.148 103.031C134.56 103.438 135.076 103.641 135.695 103.641C136.565 103.641 137.273 103.289 137.82 102.586L138.844 103.562C138.505 104.068 138.052 104.461 137.484 104.742C136.922 105.018 136.289 105.156 135.586 105.156ZM135.359 97.9141C134.839 97.9141 134.417 98.0964 134.094 98.4609C133.776 98.8255 133.573 99.3333 133.484 99.9844H137.102V99.8438C137.06 99.2083 136.891 98.7292 136.594 98.4062C136.297 98.0781 135.885 97.9141 135.359 97.9141ZM142.477 105H140.578V93H142.477V105ZM146.57 105H144.672V93H146.57V105ZM148.289 100.695C148.289 99.8672 148.453 99.1224 148.781 98.4609C149.109 97.7943 149.57 97.2839 150.164 96.9297C150.758 96.5703 151.44 96.3906 152.211 96.3906C153.352 96.3906 154.276 96.7578 154.984 97.4922C155.698 98.2266 156.083 99.2005 156.141 100.414L156.148 100.859C156.148 101.693 155.987 102.438 155.664 103.094C155.346 103.75 154.888 104.258 154.289 104.617C153.695 104.977 153.008 105.156 152.227 105.156C151.034 105.156 150.078 104.76 149.359 103.969C148.646 103.172 148.289 102.112 148.289 100.789V100.695ZM150.188 100.859C150.188 101.729 150.367 102.411 150.727 102.906C151.086 103.396 151.586 103.641 152.227 103.641C152.867 103.641 153.365 103.391 153.719 102.891C154.078 102.391 154.258 101.659 154.258 100.695C154.258 99.8411 154.073 99.1641 153.703 98.6641C153.339 98.1641 152.841 97.9141 152.211 97.9141C151.591 97.9141 151.099 98.1615 150.734 98.6562C150.37 99.1458 150.188 99.8802 150.188 100.859ZM157.562 97L156.594 96.3984C157.062 95.7161 157.305 94.9948 157.32 94.2344V93H158.984V94.0781C158.984 94.6146 158.846 95.1562 158.57 95.7031C158.299 96.2448 157.964 96.6771 157.562 97ZM160.172 97L159.203 96.3984C159.672 95.7161 159.914 94.9948 159.93 94.2344V93H161.594V94.0781C161.594 94.6146 161.456 95.1562 161.18 95.7031C160.909 96.2448 160.573 96.6771 160.172 97Z" fill="#5452F6"/>
<path d="M99.25 56.5469L99.3047 57.5234C99.9297 56.7682 100.75 56.3906 101.766 56.3906C103.526 56.3906 104.422 57.3984 104.453 59.4141V65H102.555V59.5234C102.555 58.987 102.438 58.5911 102.203 58.3359C101.974 58.0755 101.596 57.9453 101.07 57.9453C100.305 57.9453 99.7344 58.2917 99.3594 58.9844V65H97.4609V56.5469H99.25ZM111.445 65C111.362 64.8385 111.289 64.5755 111.227 64.2109C110.622 64.8411 109.883 65.1562 109.008 65.1562C108.159 65.1562 107.466 64.9141 106.93 64.4297C106.393 63.9453 106.125 63.3464 106.125 62.6328C106.125 61.7318 106.458 61.0417 107.125 60.5625C107.797 60.0781 108.755 59.8359 110 59.8359H111.164V59.2812C111.164 58.8438 111.042 58.4948 110.797 58.2344C110.552 57.9688 110.18 57.8359 109.68 57.8359C109.247 57.8359 108.893 57.9453 108.617 58.1641C108.341 58.3776 108.203 58.651 108.203 58.9844H106.305C106.305 58.5208 106.458 58.0885 106.766 57.6875C107.073 57.2812 107.49 56.9635 108.016 56.7344C108.547 56.5052 109.138 56.3906 109.789 56.3906C110.779 56.3906 111.568 56.6406 112.156 57.1406C112.745 57.6354 113.047 58.3333 113.062 59.2344V63.0469C113.062 63.8073 113.169 64.4141 113.383 64.8672V65H111.445ZM109.359 63.6328C109.734 63.6328 110.086 63.5417 110.414 63.3594C110.747 63.1771 110.997 62.9323 111.164 62.625V61.0312H110.141C109.438 61.0312 108.909 61.1536 108.555 61.3984C108.201 61.6432 108.023 61.9896 108.023 62.4375C108.023 62.8021 108.143 63.0938 108.383 63.3125C108.628 63.526 108.953 63.6328 109.359 63.6328ZM117.43 54.4922V56.5469H118.922V57.9531H117.43V62.6719C117.43 62.9948 117.492 63.2292 117.617 63.375C117.747 63.5156 117.977 63.5859 118.305 63.5859C118.523 63.5859 118.745 63.5599 118.969 63.5078V64.9766C118.536 65.0964 118.12 65.1562 117.719 65.1562C116.26 65.1562 115.531 64.3516 115.531 62.7422V57.9531H114.141V56.5469H115.531V54.4922H117.43ZM126.438 58.4453H127.594C128.177 58.4401 128.638 58.2891 128.977 57.9922C129.32 57.6953 129.492 57.2656 129.492 56.7031C129.492 56.1615 129.349 55.7422 129.062 55.4453C128.781 55.1432 128.349 54.9922 127.766 54.9922C127.255 54.9922 126.836 55.1406 126.508 55.4375C126.18 55.7292 126.016 56.112 126.016 56.5859H124.117C124.117 56.0026 124.271 55.4714 124.578 54.9922C124.891 54.513 125.323 54.1406 125.875 53.875C126.432 53.6042 127.055 53.4688 127.742 53.4688C128.878 53.4688 129.768 53.7552 130.414 54.3281C131.065 54.8958 131.391 55.6875 131.391 56.7031C131.391 57.2135 131.227 57.6953 130.898 58.1484C130.576 58.5964 130.156 58.9349 129.641 59.1641C130.266 59.3776 130.74 59.7135 131.062 60.1719C131.391 60.6302 131.555 61.1771 131.555 61.8125C131.555 62.8333 131.203 63.6458 130.5 64.25C129.802 64.8542 128.883 65.1562 127.742 65.1562C126.648 65.1562 125.753 64.8646 125.055 64.2812C124.357 63.6979 124.008 62.9219 124.008 61.9531H125.906C125.906 62.4531 126.073 62.8594 126.406 63.1719C126.745 63.4844 127.198 63.6406 127.766 63.6406C128.354 63.6406 128.818 63.4844 129.156 63.1719C129.495 62.8594 129.664 62.4062 129.664 61.8125C129.664 61.2135 129.487 60.7526 129.133 60.4297C128.779 60.1068 128.253 59.9453 127.555 59.9453H126.438V58.4453Z" fill="#FF5A43"/>
<path d="M99.25 16.5469L99.3047 17.5234C99.9297 16.7682 100.75 16.3906 101.766 16.3906C103.526 16.3906 104.422 17.3984 104.453 19.4141V25H102.555V19.5234C102.555 18.987 102.438 18.5911 102.203 18.3359C101.974 18.0755 101.596 17.9453 101.07 17.9453C100.305 17.9453 99.7344 18.2917 99.3594 18.9844V25H97.4609V16.5469H99.25ZM111.445 25C111.362 24.8385 111.289 24.5755 111.227 24.2109C110.622 24.8411 109.883 25.1562 109.008 25.1562C108.159 25.1562 107.466 24.9141 106.93 24.4297C106.393 23.9453 106.125 23.3464 106.125 22.6328C106.125 21.7318 106.458 21.0417 107.125 20.5625C107.797 20.0781 108.755 19.8359 110 19.8359H111.164V19.2812C111.164 18.8438 111.042 18.4948 110.797 18.2344C110.552 17.9688 110.18 17.8359 109.68 17.8359C109.247 17.8359 108.893 17.9453 108.617 18.1641C108.341 18.3776 108.203 18.651 108.203 18.9844H106.305C106.305 18.5208 106.458 18.0885 106.766 17.6875C107.073 17.2812 107.49 16.9635 108.016 16.7344C108.547 16.5052 109.138 16.3906 109.789 16.3906C110.779 16.3906 111.568 16.6406 112.156 17.1406C112.745 17.6354 113.047 18.3333 113.062 19.2344V23.0469C113.062 23.8073 113.169 24.4141 113.383 24.8672V25H111.445ZM109.359 23.6328C109.734 23.6328 110.086 23.5417 110.414 23.3594C110.747 23.1771 110.997 22.9323 111.164 22.625V21.0312H110.141C109.438 21.0312 108.909 21.1536 108.555 21.3984C108.201 21.6432 108.023 21.9896 108.023 22.4375C108.023 22.8021 108.143 23.0938 108.383 23.3125C108.628 23.526 108.953 23.6328 109.359 23.6328ZM117.43 14.4922V16.5469H118.922V17.9531H117.43V22.6719C117.43 22.9948 117.492 23.2292 117.617 23.375C117.747 23.5156 117.977 23.5859 118.305 23.5859C118.523 23.5859 118.745 23.5599 118.969 23.5078V24.9766C118.536 25.0964 118.12 25.1562 117.719 25.1562C116.26 25.1562 115.531 24.3516 115.531 22.7422V17.9531H114.141V16.5469H115.531V14.4922H117.43ZM129.383 25H127.492V15.8672L124.703 16.8203V15.2188L129.141 13.5859H129.383V25Z" fill="#FF5A43"/>
<path d="M0.5 8C0.5 3.85786 3.85786 0.5 8 0.5H221C225.142 0.5 228.5 3.85787 228.5 8V119.5H0.5V8Z" stroke="#5452F6"/>
</g>
<g filter="url(#filter3_d)">
<path d="M0 119H229V135C229 139.418 225.418 143 221 143H8.00001C3.58173 143 0 139.418 0 135V119Z" fill="#EEEEFF"/>
<path d="M0.5 119.5H228.5V135C228.5 139.142 225.142 142.5 221 142.5H8.00001C3.85787 142.5 0.5 139.142 0.5 135V119.5Z" stroke="#5452F6"/>
</g>
<defs>
<filter id="filter0_d" x="400" y="79" width="233" height="45" filterUnits="userSpaceOnUse" color-interpolation-filters="sRGB">
<feFlood flood-opacity="0" result="BackgroundImageFix"/>
<feColorMatrix in="SourceAlpha" type="matrix" values="0 0 0 0 0 0 0 0 0 0 0 0 0 0 0 0 0 0 127 0"/>
<feOffset dx="4" dy="4"/>
<feColorMatrix type="matrix" values="0 0 0 0 0.674908 0 0 0 0 0.662083 0 0 0 0 0.945833 0 0 0 1 0"/>
<feBlend mode="normal" in2="BackgroundImageFix" result="effect1_dropShadow"/>
<feBlend mode="normal" in="SourceGraphic" in2="effect1_dropShadow" result="shape"/>
</filter>
<filter id="filter1_d" x="400" y="119" width="233" height="28" filterUnits="userSpaceOnUse" color-interpolation-filters="sRGB">
<feFlood flood-opacity="0" result="BackgroundImageFix"/>
<feColorMatrix in="SourceAlpha" type="matrix" values="0 0 0 0 0 0 0 0 0 0 0 0 0 0 0 0 0 0 127 0"/>
<feOffset dx="4" dy="4"/>
<feColorMatrix type="matrix" values="0 0 0 0 0.674908 0 0 0 0 0.662083 0 0 0 0 0.945833 0 0 0 1 0"/>
<feBlend mode="normal" in2="BackgroundImageFix" result="effect1_dropShadow"/>
<feBlend mode="normal" in="SourceGraphic" in2="effect1_dropShadow" result="shape"/>
</filter>
<filter id="filter2_d" x="0" y="0" width="233" height="124" filterUnits="userSpaceOnUse" color-interpolation-filters="sRGB">
<feFlood flood-opacity="0" result="BackgroundImageFix"/>
<feColorMatrix in="SourceAlpha" type="matrix" values="0 0 0 0 0 0 0 0 0 0 0 0 0 0 0 0 0 0 127 0"/>
<feOffset dx="4" dy="4"/>
<feColorMatrix type="matrix" values="0 0 0 0 0.674908 0 0 0 0 0.662083 0 0 0 0 0.945833 0 0 0 1 0"/>
<feBlend mode="normal" in2="BackgroundImageFix" result="effect1_dropShadow"/>
<feBlend mode="normal" in="SourceGraphic" in2="effect1_dropShadow" result="shape"/>
</filter>
<filter id="filter3_d" x="0" y="119" width="233" height="28" filterUnits="userSpaceOnUse" color-interpolation-filters="sRGB">
<feFlood flood-opacity="0" result="BackgroundImageFix"/>
<feColorMatrix in="SourceAlpha" type="matrix" values="0 0 0 0 0 0 0 0 0 0 0 0 0 0 0 0 0 0 127 0"/>
<feOffset dx="4" dy="4"/>
<feColorMatrix type="matrix" values="0 0 0 0 0.674908 0 0 0 0 0.662083 0 0 0 0 0.945833 0 0 0 1 0"/>
<feBlend mode="normal" in2="BackgroundImageFix" result="effect1_dropShadow"/>
<feBlend mode="normal" in="SourceGraphic" in2="effect1_dropShadow" result="shape"/>
</filter>
</defs>
</svg>
