<svg width="634" height="147" viewBox="0 0 634 147" fill="none" xmlns="http://www.w3.org/2000/svg">
<line x1="255" y1="120.5" x2="389" y2="120.5" stroke="#65BF73" stroke-width="2"/>
<path d="M379 111L389.5 120.5L379 129.5" stroke="#65BF73" stroke-width="2" stroke-linecap="round" stroke-linejoin="round"/>
<circle cx="250.5" cy="121" r="5.5" stroke="#65BF73" stroke-width="2"/>
<path d="M285.078 67H283.109V55.625H285.078V67ZM294.062 62.1797H289.484V67H287.508V55.625H294.734V57.2188H289.484V60.6016H294.062V62.1797ZM302.336 68.4922H295.172V67H302.336V68.4922ZM312.547 67H310.57L305.5 58.9297V67H303.523V55.625H305.5L310.586 63.7266V55.625H312.547V67ZM323.961 61.6094C323.961 62.724 323.768 63.7031 323.383 64.5469C322.997 65.3854 322.445 66.0312 321.727 66.4844C321.013 66.9323 320.19 67.1562 319.258 67.1562C318.336 67.1562 317.513 66.9323 316.789 66.4844C316.07 66.0312 315.513 65.388 315.117 64.5547C314.727 63.7214 314.529 62.7604 314.523 61.6719V61.0312C314.523 59.9219 314.719 58.9427 315.109 58.0938C315.505 57.2448 316.06 56.5964 316.773 56.1484C317.492 55.6953 318.315 55.4688 319.242 55.4688C320.169 55.4688 320.99 55.6927 321.703 56.1406C322.422 56.5833 322.977 57.224 323.367 58.0625C323.758 58.8958 323.956 59.8672 323.961 60.9766V61.6094ZM321.984 61.0156C321.984 59.7552 321.745 58.7891 321.266 58.1172C320.792 57.4453 320.117 57.1094 319.242 57.1094C318.388 57.1094 317.719 57.4453 317.234 58.1172C316.755 58.7839 316.51 59.7292 316.5 60.9531V61.6094C316.5 62.8594 316.742 63.8255 317.227 64.5078C317.716 65.1901 318.393 65.5312 319.258 65.5312C320.133 65.5312 320.805 65.1979 321.273 64.5312C321.747 63.8646 321.984 62.8906 321.984 61.6094V61.0156ZM334.953 67H332.977L327.906 58.9297V67H325.93V55.625H327.906L332.992 63.7266V55.625H334.953V67ZM343.938 61.9219H339.266V65.4219H344.727V67H337.289V55.625H344.672V57.2188H339.266V60.3594H343.938V61.9219ZM306.688 88.8125C304.849 88.2969 303.911 87.1224 303.875 85.2891V83.625C303.875 82.4531 303.372 81.8672 302.367 81.8672V80.4766C303.372 80.4766 303.875 79.888 303.875 78.7109V77.0547C303.891 76.1172 304.133 75.3594 304.602 74.7812C305.076 74.2031 305.771 73.7839 306.688 73.5234L307.062 74.6172C306.161 74.9089 305.695 75.7057 305.664 77.0078V78.6953C305.664 79.8672 305.214 80.6901 304.312 81.1641C305.214 81.6432 305.664 82.474 305.664 83.6562V85.3203C305.695 86.6224 306.161 87.4193 307.062 87.7109L306.688 88.8125ZM318.391 83.0703C318.391 82.5703 318.214 82.1849 317.859 81.9141C317.51 81.6432 316.878 81.3698 315.961 81.0938C315.044 80.8177 314.315 80.5104 313.773 80.1719C312.737 79.5208 312.219 78.6719 312.219 77.625C312.219 76.7083 312.591 75.9531 313.336 75.3594C314.086 74.7656 315.057 74.4688 316.25 74.4688C317.042 74.4688 317.747 74.6146 318.367 74.9062C318.987 75.1979 319.474 75.6146 319.828 76.1562C320.182 76.6927 320.359 77.2891 320.359 77.9453H318.391C318.391 77.3516 318.203 76.888 317.828 76.5547C317.458 76.2161 316.927 76.0469 316.234 76.0469C315.589 76.0469 315.086 76.1849 314.727 76.4609C314.372 76.737 314.195 77.1224 314.195 77.6172C314.195 78.0339 314.388 78.3828 314.773 78.6641C315.159 78.9401 315.794 79.2109 316.68 79.4766C317.565 79.737 318.276 80.0365 318.812 80.375C319.349 80.7083 319.742 81.0938 319.992 81.5312C320.242 81.9635 320.367 82.4714 320.367 83.0547C320.367 84.0026 320.003 84.7578 319.273 85.3203C318.549 85.8776 317.565 86.1562 316.32 86.1562C315.497 86.1562 314.74 86.0052 314.047 85.7031C313.359 85.3958 312.823 84.974 312.438 84.4375C312.057 83.901 311.867 83.276 311.867 82.5625H313.844C313.844 83.2083 314.057 83.7083 314.484 84.0625C314.911 84.4167 315.523 84.5938 316.32 84.5938C317.008 84.5938 317.523 84.4557 317.867 84.1797C318.216 83.8984 318.391 83.5286 318.391 83.0703ZM331.023 83.1875L332.773 74.625H334.734L332.109 86H330.219L328.055 77.6953L325.844 86H323.945L321.32 74.625H323.281L325.047 83.1719L327.219 74.625H328.875L331.023 83.1875ZM342.203 83.3516H337.797L336.875 86H334.82L339.117 74.625H340.891L345.195 86H343.133L342.203 83.3516ZM338.352 81.7578H341.648L340 77.0391L338.352 81.7578ZM348.469 81.7734V86H346.492V74.625H350.844C352.115 74.625 353.122 74.9557 353.867 75.6172C354.617 76.2786 354.992 77.1536 354.992 78.2422C354.992 79.3568 354.625 80.224 353.891 80.8438C353.161 81.4635 352.138 81.7734 350.82 81.7734H348.469ZM348.469 80.1875H350.844C351.547 80.1875 352.083 80.0234 352.453 79.6953C352.823 79.362 353.008 78.8828 353.008 78.2578C353.008 77.6432 352.82 77.1536 352.445 76.7891C352.07 76.4193 351.555 76.2292 350.898 76.2188H348.469V80.1875ZM359.766 87.7109C360.682 87.4141 361.151 86.6016 361.172 85.2734V83.6484C361.172 82.4453 361.646 81.6198 362.594 81.1719C361.646 80.724 361.172 79.8906 361.172 78.6719V77.0547C361.151 75.7266 360.682 74.9141 359.766 74.6172L360.141 73.5234C361.089 73.7891 361.794 74.2214 362.258 74.8203C362.721 75.4141 362.953 76.1927 362.953 77.1562V78.7188C362.953 79.8906 363.458 80.4766 364.469 80.4766V81.8672C363.458 81.8672 362.953 82.4531 362.953 83.625V85.1641C362.953 86.138 362.719 86.9219 362.25 87.5156C361.786 88.1146 361.083 88.5469 360.141 88.8125L359.766 87.7109ZM279.938 107.812C278.099 107.297 277.161 106.122 277.125 104.289V102.625C277.125 101.453 276.622 100.867 275.617 100.867V99.4766C276.622 99.4766 277.125 98.888 277.125 97.7109V96.0547C277.141 95.1172 277.383 94.3594 277.852 93.7812C278.326 93.2031 279.021 92.7839 279.938 92.5234L280.312 93.6172C279.411 93.9089 278.945 94.7057 278.914 96.0078V97.6953C278.914 98.8672 278.464 99.6901 277.562 100.164C278.464 100.643 278.914 101.474 278.914 102.656V104.32C278.945 105.622 279.411 106.419 280.312 106.711L279.938 107.812ZM285.695 105V93.625H289.055C290.06 93.625 290.951 93.849 291.727 94.2969C292.508 94.7448 293.112 95.3802 293.539 96.2031C293.966 97.026 294.18 97.9688 294.18 99.0312V99.6016C294.18 100.68 293.964 101.628 293.531 102.445C293.104 103.263 292.492 103.893 291.695 104.336C290.904 104.779 289.995 105 288.969 105H285.695ZM287.672 95.2188V103.422H288.961C289.997 103.422 290.792 103.099 291.344 102.453C291.901 101.802 292.185 100.87 292.195 99.6562V99.0234C292.195 97.7891 291.927 96.8464 291.391 96.1953C290.854 95.5443 290.076 95.2188 289.055 95.2188H287.672ZM300.328 100.617H298.125V105H296.148V93.625H300.148C301.461 93.625 302.474 93.9193 303.188 94.5078C303.901 95.0964 304.258 95.9479 304.258 97.0625C304.258 97.8229 304.073 98.4609 303.703 98.9766C303.339 99.487 302.828 99.8802 302.172 100.156L304.727 104.898V105H302.609L300.328 100.617ZM298.125 99.0312H300.156C300.823 99.0312 301.344 98.8646 301.719 98.5312C302.094 98.1927 302.281 97.7318 302.281 97.1484C302.281 96.5391 302.107 96.0677 301.758 95.7344C301.414 95.401 300.898 95.2292 300.211 95.2188H298.125V99.0312ZM315.211 99.6094C315.211 100.724 315.018 101.703 314.633 102.547C314.247 103.385 313.695 104.031 312.977 104.484C312.263 104.932 311.44 105.156 310.508 105.156C309.586 105.156 308.763 104.932 308.039 104.484C307.32 104.031 306.763 103.388 306.367 102.555C305.977 101.721 305.779 100.76 305.773 99.6719V99.0312C305.773 97.9219 305.969 96.9427 306.359 96.0938C306.755 95.2448 307.31 94.5964 308.023 94.1484C308.742 93.6953 309.565 93.4688 310.492 93.4688C311.419 93.4688 312.24 93.6927 312.953 94.1406C313.672 94.5833 314.227 95.224 314.617 96.0625C315.008 96.8958 315.206 97.8672 315.211 98.9766V99.6094ZM313.234 99.0156C313.234 97.7552 312.995 96.7891 312.516 96.1172C312.042 95.4453 311.367 95.1094 310.492 95.1094C309.638 95.1094 308.969 95.4453 308.484 96.1172C308.005 96.7839 307.76 97.7292 307.75 98.9531V99.6094C307.75 100.859 307.992 101.826 308.477 102.508C308.966 103.19 309.643 103.531 310.508 103.531C311.383 103.531 312.055 103.198 312.523 102.531C312.997 101.865 313.234 100.891 313.234 99.6094V99.0156ZM319.156 100.773V105H317.18V93.625H321.531C322.802 93.625 323.81 93.9557 324.555 94.6172C325.305 95.2786 325.68 96.1536 325.68 97.2422C325.68 98.3568 325.312 99.224 324.578 99.8438C323.849 100.464 322.826 100.773 321.508 100.773H319.156ZM319.156 99.1875H321.531C322.234 99.1875 322.771 99.0234 323.141 98.6953C323.51 98.362 323.695 97.8828 323.695 97.2578C323.695 96.6432 323.508 96.1536 323.133 95.7891C322.758 95.4193 322.242 95.2292 321.586 95.2188H319.156V99.1875ZM328.211 96.3672C328.565 96.3672 328.839 96.4688 329.031 96.6719C329.224 96.8698 329.32 97.1198 329.32 97.4219C329.32 97.7188 329.224 97.9661 329.031 98.1641C328.839 98.3568 328.565 98.4531 328.211 98.4531C327.872 98.4531 327.604 98.3568 327.406 98.1641C327.208 97.9714 327.109 97.724 327.109 97.4219C327.109 97.1198 327.206 96.8698 327.398 96.6719C327.591 96.4688 327.862 96.3672 328.211 96.3672ZM327.641 107.562L326.617 106.953C326.919 106.479 327.125 106.065 327.234 105.711C327.349 105.362 327.409 105.005 327.414 104.641V103.164H329.125L329.117 104.531C329.112 105.083 328.971 105.635 328.695 106.188C328.424 106.745 328.073 107.203 327.641 107.562ZM341.156 102.07C341.156 101.57 340.979 101.185 340.625 100.914C340.276 100.643 339.643 100.37 338.727 100.094C337.81 99.8177 337.081 99.5104 336.539 99.1719C335.503 98.5208 334.984 97.6719 334.984 96.625C334.984 95.7083 335.357 94.9531 336.102 94.3594C336.852 93.7656 337.823 93.4688 339.016 93.4688C339.807 93.4688 340.513 93.6146 341.133 93.9062C341.753 94.1979 342.24 94.6146 342.594 95.1562C342.948 95.6927 343.125 96.2891 343.125 96.9453H341.156C341.156 96.3516 340.969 95.888 340.594 95.5547C340.224 95.2161 339.693 95.0469 339 95.0469C338.354 95.0469 337.852 95.1849 337.492 95.4609C337.138 95.737 336.961 96.1224 336.961 96.6172C336.961 97.0339 337.154 97.3828 337.539 97.6641C337.924 97.9401 338.56 98.2109 339.445 98.4766C340.331 98.737 341.042 99.0365 341.578 99.375C342.115 99.7083 342.508 100.094 342.758 100.531C343.008 100.964 343.133 101.471 343.133 102.055C343.133 103.003 342.768 103.758 342.039 104.32C341.315 104.878 340.331 105.156 339.086 105.156C338.263 105.156 337.505 105.005 336.812 104.703C336.125 104.396 335.589 103.974 335.203 103.438C334.823 102.901 334.633 102.276 334.633 101.562H336.609C336.609 102.208 336.823 102.708 337.25 103.062C337.677 103.417 338.289 103.594 339.086 103.594C339.773 103.594 340.289 103.456 340.633 103.18C340.982 102.898 341.156 102.529 341.156 102.07ZM353.789 102.188L355.539 93.625H357.5L354.875 105H352.984L350.82 96.6953L348.609 105H346.711L344.086 93.625H346.047L347.812 102.172L349.984 93.625H351.641L353.789 102.188ZM364.969 102.352H360.562L359.641 105H357.586L361.883 93.625H363.656L367.961 105H365.898L364.969 102.352ZM361.117 100.758H364.414L362.766 96.0391L361.117 100.758ZM371.234 100.773V105H369.258V93.625H373.609C374.88 93.625 375.888 93.9557 376.633 94.6172C377.383 95.2786 377.758 96.1536 377.758 97.2422C377.758 98.3568 377.391 99.224 376.656 99.8438C375.927 100.464 374.904 100.773 373.586 100.773H371.234ZM371.234 99.1875H373.609C374.312 99.1875 374.849 99.0234 375.219 98.6953C375.589 98.362 375.773 97.8828 375.773 97.2578C375.773 96.6432 375.586 96.1536 375.211 95.7891C374.836 95.4193 374.32 95.2292 373.664 95.2188H371.234V99.1875ZM382.531 106.711C383.448 106.414 383.917 105.602 383.938 104.273V102.648C383.938 101.445 384.411 100.62 385.359 100.172C384.411 99.724 383.938 98.8906 383.938 97.6719V96.0547C383.917 94.7266 383.448 93.9141 382.531 93.6172L382.906 92.5234C383.854 92.7891 384.56 93.2214 385.023 93.8203C385.487 94.4141 385.719 95.1927 385.719 96.1562V97.7188C385.719 98.8906 386.224 99.4766 387.234 99.4766V100.867C386.224 100.867 385.719 101.453 385.719 102.625V104.164C385.719 105.138 385.484 105.922 385.016 106.516C384.552 107.115 383.849 107.547 382.906 107.812L382.531 106.711Z" fill="#65BF73"/>
<g filter="url(#filter0_d)">
<path d="M0 8C0 3.58172 3.58172 0 8 0H221C225.418 0 229 3.58172 229 8V120H0V8Z" fill="white"/>
<line x1="0.5" y1="79.5" x2="228.5" y2="79.5" stroke="#5452F6"/>
<line x1="0.5" y1="39.5" x2="228.5" y2="39.5" stroke="#5452F6"/>
<path d="M73.7891 102.07C73.7891 101.57 73.612 101.185 73.2578 100.914C72.9089 100.643 72.276 100.37 71.3594 100.094C70.4427 99.8177 69.7135 99.5104 69.1719 99.1719C68.1354 98.5208 67.6172 97.6719 67.6172 96.625C67.6172 95.7083 67.9896 94.9531 68.7344 94.3594C69.4844 93.7656 70.4557 93.4688 71.6484 93.4688C72.4401 93.4688 73.1458 93.6146 73.7656 93.9062C74.3854 94.1979 74.8724 94.6146 75.2266 95.1562C75.5807 95.6927 75.7578 96.2891 75.7578 96.9453H73.7891C73.7891 96.3516 73.6016 95.888 73.2266 95.5547C72.8568 95.2161 72.3255 95.0469 71.6328 95.0469C70.987 95.0469 70.4844 95.1849 70.125 95.4609C69.7708 95.737 69.5938 96.1224 69.5938 96.6172C69.5938 97.0339 69.7865 97.3828 70.1719 97.6641C70.5573 97.9401 71.1927 98.2109 72.0781 98.4766C72.9635 98.737 73.6745 99.0365 74.2109 99.375C74.7474 99.7083 75.1406 100.094 75.3906 100.531C75.6406 100.964 75.7656 101.471 75.7656 102.055C75.7656 103.003 75.401 103.758 74.6719 104.32C73.9479 104.878 72.9635 105.156 71.7188 105.156C70.8958 105.156 70.138 105.005 69.4453 104.703C68.7578 104.396 68.2214 103.974 67.8359 103.438C67.4557 102.901 67.2656 102.276 67.2656 101.562H69.2422C69.2422 102.208 69.4557 102.708 69.8828 103.062C70.3099 103.417 70.9219 103.594 71.7188 103.594C72.4062 103.594 72.9219 103.456 73.2656 103.18C73.6146 102.898 73.7891 102.529 73.7891 102.07ZM79.6953 94.4922V96.5469H81.1875V97.9531H79.6953V102.672C79.6953 102.995 79.7578 103.229 79.8828 103.375C80.013 103.516 80.2422 103.586 80.5703 103.586C80.7891 103.586 81.0104 103.56 81.2344 103.508V104.977C80.8021 105.096 80.3854 105.156 79.9844 105.156C78.526 105.156 77.7969 104.352 77.7969 102.742V97.9531H76.4062V96.5469H77.7969V94.4922H79.6953ZM87.0703 98.2812C86.8203 98.2396 86.5625 98.2188 86.2969 98.2188C85.4271 98.2188 84.8411 98.5521 84.5391 99.2188V105H82.6406V96.5469H84.4531L84.5 97.4922C84.9583 96.7578 85.5938 96.3906 86.4062 96.3906C86.6771 96.3906 86.901 96.4271 87.0781 96.5L87.0703 98.2812ZM90.2891 105H88.3906V96.5469H90.2891V105ZM88.2734 94.3516C88.2734 94.0599 88.3646 93.8177 88.5469 93.625C88.7344 93.4323 89 93.3359 89.3438 93.3359C89.6875 93.3359 89.9531 93.4323 90.1406 93.625C90.3281 93.8177 90.4219 94.0599 90.4219 94.3516C90.4219 94.638 90.3281 94.8776 90.1406 95.0703C89.9531 95.2578 89.6875 95.3516 89.3438 95.3516C89 95.3516 88.7344 95.2578 88.5469 95.0703C88.3646 94.8776 88.2734 94.638 88.2734 94.3516ZM94.125 96.5469L94.1797 97.5234C94.8047 96.7682 95.625 96.3906 96.6406 96.3906C98.401 96.3906 99.2969 97.3984 99.3281 99.4141V105H97.4297V99.5234C97.4297 98.987 97.3125 98.5911 97.0781 98.3359C96.849 98.0755 96.4714 97.9453 95.9453 97.9453C95.1797 97.9453 94.6094 98.2917 94.2344 98.9844V105H92.3359V96.5469H94.125ZM100.938 100.711C100.938 99.3984 101.245 98.3516 101.859 97.5703C102.479 96.7839 103.299 96.3906 104.32 96.3906C105.284 96.3906 106.042 96.7266 106.594 97.3984L106.68 96.5469H108.391V104.742C108.391 105.852 108.044 106.727 107.352 107.367C106.664 108.008 105.734 108.328 104.562 108.328C103.943 108.328 103.336 108.198 102.742 107.938C102.154 107.682 101.706 107.346 101.398 106.93L102.297 105.789C102.88 106.482 103.599 106.828 104.453 106.828C105.083 106.828 105.581 106.656 105.945 106.312C106.31 105.974 106.492 105.474 106.492 104.812V104.242C105.945 104.852 105.216 105.156 104.305 105.156C103.315 105.156 102.505 104.763 101.875 103.977C101.25 103.19 100.938 102.102 100.938 100.711ZM102.828 100.875C102.828 101.724 103 102.393 103.344 102.883C103.693 103.367 104.174 103.609 104.789 103.609C105.555 103.609 106.122 103.281 106.492 102.625V98.9062C106.133 98.2656 105.57 97.9453 104.805 97.9453C104.18 97.9453 103.693 98.1927 103.344 98.6875C103 99.1823 102.828 99.9115 102.828 100.875ZM115.633 92.7969L116.602 93.3984C116.128 94.0911 115.883 94.8125 115.867 95.5625V96.75H114.203V95.6719C114.208 95.1719 114.344 94.651 114.609 94.1094C114.88 93.5625 115.221 93.125 115.633 92.7969ZM118.258 92.7969L119.227 93.3984C118.753 94.0911 118.508 94.8125 118.492 95.5625V96.75H116.828V95.6719C116.833 95.1719 116.969 94.651 117.234 94.1094C117.505 93.5625 117.846 93.125 118.258 92.7969ZM129.703 105H127.734V99.9453H122.648V105H120.672V93.625H122.648V98.3594H127.734V93.625H129.703V105ZM135.586 105.156C134.383 105.156 133.406 104.779 132.656 104.023C131.911 103.263 131.539 102.253 131.539 100.992V100.758C131.539 99.9141 131.701 99.1615 132.023 98.5C132.352 97.8333 132.81 97.3151 133.398 96.9453C133.987 96.5755 134.643 96.3906 135.367 96.3906C136.518 96.3906 137.406 96.7578 138.031 97.4922C138.661 98.2266 138.977 99.2656 138.977 100.609V101.375H133.453C133.51 102.073 133.742 102.625 134.148 103.031C134.56 103.438 135.076 103.641 135.695 103.641C136.565 103.641 137.273 103.289 137.82 102.586L138.844 103.562C138.505 104.068 138.052 104.461 137.484 104.742C136.922 105.018 136.289 105.156 135.586 105.156ZM135.359 97.9141C134.839 97.9141 134.417 98.0964 134.094 98.4609C133.776 98.8255 133.573 99.3333 133.484 99.9844H137.102V99.8438C137.06 99.2083 136.891 98.7292 136.594 98.4062C136.297 98.0781 135.885 97.9141 135.359 97.9141ZM142.477 105H140.578V93H142.477V105ZM146.57 105H144.672V93H146.57V105ZM148.289 100.695C148.289 99.8672 148.453 99.1224 148.781 98.4609C149.109 97.7943 149.57 97.2839 150.164 96.9297C150.758 96.5703 151.44 96.3906 152.211 96.3906C153.352 96.3906 154.276 96.7578 154.984 97.4922C155.698 98.2266 156.083 99.2005 156.141 100.414L156.148 100.859C156.148 101.693 155.987 102.438 155.664 103.094C155.346 103.75 154.888 104.258 154.289 104.617C153.695 104.977 153.008 105.156 152.227 105.156C151.034 105.156 150.078 104.76 149.359 103.969C148.646 103.172 148.289 102.112 148.289 100.789V100.695ZM150.188 100.859C150.188 101.729 150.367 102.411 150.727 102.906C151.086 103.396 151.586 103.641 152.227 103.641C152.867 103.641 153.365 103.391 153.719 102.891C154.078 102.391 154.258 101.659 154.258 100.695C154.258 99.8411 154.073 99.1641 153.703 98.6641C153.339 98.1641 152.841 97.9141 152.211 97.9141C151.591 97.9141 151.099 98.1615 150.734 98.6562C150.37 99.1458 150.188 99.8802 150.188 100.859ZM157.562 97L156.594 96.3984C157.062 95.7161 157.305 94.9948 157.32 94.2344V93H158.984V94.0781C158.984 94.6146 158.846 95.1562 158.57 95.7031C158.299 96.2448 157.964 96.6771 157.562 97ZM160.172 97L159.203 96.3984C159.672 95.7161 159.914 94.9948 159.93 94.2344V93H161.594V94.0781C161.594 94.6146 161.456 95.1562 161.18 95.7031C160.909 96.2448 160.573 96.6771 160.172 97Z" fill="#5452F6"/>
<path d="M99.25 56.5469L99.3047 57.5234C99.9297 56.7682 100.75 56.3906 101.766 56.3906C103.526 56.3906 104.422 57.3984 104.453 59.4141V65H102.555V59.5234C102.555 58.987 102.438 58.5911 102.203 58.3359C101.974 58.0755 101.596 57.9453 101.07 57.9453C100.305 57.9453 99.7344 58.2917 99.3594 58.9844V65H97.4609V56.5469H99.25ZM111.445 65C111.362 64.8385 111.289 64.5755 111.227 64.2109C110.622 64.8411 109.883 65.1562 109.008 65.1562C108.159 65.1562 107.466 64.9141 106.93 64.4297C106.393 63.9453 106.125 63.3464 106.125 62.6328C106.125 61.7318 106.458 61.0417 107.125 60.5625C107.797 60.0781 108.755 59.8359 110 59.8359H111.164V59.2812C111.164 58.8438 111.042 58.4948 110.797 58.2344C110.552 57.9688 110.18 57.8359 109.68 57.8359C109.247 57.8359 108.893 57.9453 108.617 58.1641C108.341 58.3776 108.203 58.651 108.203 58.9844H106.305C106.305 58.5208 106.458 58.0885 106.766 57.6875C107.073 57.2812 107.49 56.9635 108.016 56.7344C108.547 56.5052 109.138 56.3906 109.789 56.3906C110.779 56.3906 111.568 56.6406 112.156 57.1406C112.745 57.6354 113.047 58.3333 113.062 59.2344V63.0469C113.062 63.8073 113.169 64.4141 113.383 64.8672V65H111.445ZM109.359 63.6328C109.734 63.6328 110.086 63.5417 110.414 63.3594C110.747 63.1771 110.997 62.9323 111.164 62.625V61.0312H110.141C109.438 61.0312 108.909 61.1536 108.555 61.3984C108.201 61.6432 108.023 61.9896 108.023 62.4375C108.023 62.8021 108.143 63.0938 108.383 63.3125C108.628 63.526 108.953 63.6328 109.359 63.6328ZM117.43 54.4922V56.5469H118.922V57.9531H117.43V62.6719C117.43 62.9948 117.492 63.2292 117.617 63.375C117.747 63.5156 117.977 63.5859 118.305 63.5859C118.523 63.5859 118.745 63.5599 118.969 63.5078V64.9766C118.536 65.0964 118.12 65.1562 117.719 65.1562C116.26 65.1562 115.531 64.3516 115.531 62.7422V57.9531H114.141V56.5469H115.531V54.4922H117.43ZM124.75 59.3594L125.367 53.625H131.477V55.2656H126.945L126.633 57.9844C127.159 57.6823 127.753 57.5312 128.414 57.5312C129.497 57.5312 130.339 57.8776 130.938 58.5703C131.542 59.263 131.844 60.1953 131.844 61.3672C131.844 62.5234 131.51 63.4453 130.844 64.1328C130.177 64.8151 129.263 65.1562 128.102 65.1562C127.06 65.1562 126.195 64.862 125.508 64.2734C124.826 63.6797 124.456 62.8984 124.398 61.9297H126.234C126.307 62.4818 126.505 62.9062 126.828 63.2031C127.151 63.4948 127.573 63.6406 128.094 63.6406C128.677 63.6406 129.13 63.4323 129.453 63.0156C129.781 62.599 129.945 62.0312 129.945 61.3125C129.945 60.6198 129.766 60.0729 129.406 59.6719C129.047 59.2656 128.552 59.0625 127.922 59.0625C127.578 59.0625 127.286 59.1094 127.047 59.2031C126.807 59.2917 126.547 59.4688 126.266 59.7344L124.75 59.3594Z" fill="#5452F6"/>
<path d="M77.4766 22.0703C77.4766 21.5703 77.2995 21.1849 76.9453 20.9141C76.5964 20.6432 75.9635 20.3698 75.0469 20.0938C74.1302 19.8177 73.401 19.5104 72.8594 19.1719C71.8229 18.5208 71.3047 17.6719 71.3047 16.625C71.3047 15.7083 71.6771 14.9531 72.4219 14.3594C73.1719 13.7656 74.1432 13.4688 75.3359 13.4688C76.1276 13.4688 76.8333 13.6146 77.4531 13.9062C78.0729 14.1979 78.5599 14.6146 78.9141 15.1562C79.2682 15.6927 79.4453 16.2891 79.4453 16.9453H77.4766C77.4766 16.3516 77.2891 15.888 76.9141 15.5547C76.5443 15.2161 76.013 15.0469 75.3203 15.0469C74.6745 15.0469 74.1719 15.1849 73.8125 15.4609C73.4583 15.737 73.2812 16.1224 73.2812 16.6172C73.2812 17.0339 73.474 17.3828 73.8594 17.6641C74.2448 17.9401 74.8802 18.2109 75.7656 18.4766C76.651 18.737 77.362 19.0365 77.8984 19.375C78.4349 19.7083 78.8281 20.0938 79.0781 20.5312C79.3281 20.9635 79.4531 21.4714 79.4531 22.0547C79.4531 23.0026 79.0885 23.7578 78.3594 24.3203C77.6354 24.8776 76.651 25.1562 75.4062 25.1562C74.5833 25.1562 73.8255 25.0052 73.1328 24.7031C72.4453 24.3958 71.9089 23.974 71.5234 23.4375C71.1432 22.901 70.9531 22.276 70.9531 21.5625H72.9297C72.9297 22.2083 73.1432 22.7083 73.5703 23.0625C73.9974 23.4167 74.6094 23.5938 75.4062 23.5938C76.0938 23.5938 76.6094 23.4557 76.9531 23.1797C77.3021 22.8984 77.4766 22.5286 77.4766 22.0703ZM90.2656 19.6094C90.2656 20.724 90.0729 21.7031 89.6875 22.5469C89.3021 23.3854 88.75 24.0312 88.0312 24.4844C87.3177 24.9323 86.4948 25.1562 85.5625 25.1562C84.6406 25.1562 83.8177 24.9323 83.0938 24.4844C82.375 24.0312 81.8177 23.388 81.4219 22.5547C81.0312 21.7214 80.8333 20.7604 80.8281 19.6719V19.0312C80.8281 17.9219 81.0234 16.9427 81.4141 16.0938C81.8099 15.2448 82.3646 14.5964 83.0781 14.1484C83.7969 13.6953 84.6198 13.4688 85.5469 13.4688C86.474 13.4688 87.2943 13.6927 88.0078 14.1406C88.7266 14.5833 89.2812 15.224 89.6719 16.0625C90.0625 16.8958 90.2604 17.8672 90.2656 18.9766V19.6094ZM88.2891 19.0156C88.2891 17.7552 88.0495 16.7891 87.5703 16.1172C87.0964 15.4453 86.4219 15.1094 85.5469 15.1094C84.6927 15.1094 84.0234 15.4453 83.5391 16.1172C83.0599 16.7839 82.8151 17.7292 82.8047 18.9531V19.6094C82.8047 20.8594 83.0469 21.8255 83.5312 22.5078C84.0208 23.1901 84.6979 23.5312 85.5625 23.5312C86.4375 23.5312 87.1094 23.1979 87.5781 22.5312C88.0521 21.8646 88.2891 20.8906 88.2891 19.6094V19.0156ZM94.7969 13.625L98.0781 22.3438L101.352 13.625H103.906V25H101.938V21.25L102.133 16.2344L98.7734 25H97.3594L94.0078 16.2422L94.2031 21.25V25H92.2344V13.625H94.7969ZM112.898 19.9219H108.227V23.4219H113.688V25H106.25V13.625H113.633V15.2188H108.227V18.3594H112.898V19.9219ZM121.117 25H119.219V16.5469H121.117V25ZM119.102 14.3516C119.102 14.0599 119.193 13.8177 119.375 13.625C119.562 13.4323 119.828 13.3359 120.172 13.3359C120.516 13.3359 120.781 13.4323 120.969 13.625C121.156 13.8177 121.25 14.0599 121.25 14.3516C121.25 14.638 121.156 14.8776 120.969 15.0703C120.781 15.2578 120.516 15.3516 120.172 15.3516C119.828 15.3516 119.562 15.2578 119.375 15.0703C119.193 14.8776 119.102 14.638 119.102 14.3516ZM124.953 16.5469L125.008 17.5234C125.633 16.7682 126.453 16.3906 127.469 16.3906C129.229 16.3906 130.125 17.3984 130.156 19.4141V25H128.258V19.5234C128.258 18.987 128.141 18.5911 127.906 18.3359C127.677 18.0755 127.299 17.9453 126.773 17.9453C126.008 17.9453 125.438 18.2917 125.062 18.9844V25H123.164V16.5469H124.953ZM134.477 14.4922V16.5469H135.969V17.9531H134.477V22.6719C134.477 22.9948 134.539 23.2292 134.664 23.375C134.794 23.5156 135.023 23.5859 135.352 23.5859C135.57 23.5859 135.792 23.5599 136.016 23.5078V24.9766C135.583 25.0964 135.167 25.1562 134.766 25.1562C133.307 25.1562 132.578 24.3516 132.578 22.7422V17.9531H131.188V16.5469H132.578V14.4922H134.477ZM147.711 20.9453H149.125V22.4688H147.711V25H145.812V22.4688H140.898L140.844 21.3125L145.75 13.625H147.711V20.9453ZM142.836 20.9453H145.812V16.1953L145.672 16.4453L142.836 20.9453ZM158.031 25H150.383V23.6953L154.172 19.5625C154.719 18.9531 155.107 18.4453 155.336 18.0391C155.57 17.6276 155.688 17.2161 155.688 16.8047C155.688 16.263 155.534 15.8255 155.227 15.4922C154.924 15.1589 154.516 14.9922 154 14.9922C153.385 14.9922 152.909 15.1797 152.57 15.5547C152.232 15.9297 152.062 16.4427 152.062 17.0938H150.164C150.164 16.401 150.32 15.7786 150.633 15.2266C150.951 14.6693 151.401 14.237 151.984 13.9297C152.573 13.6224 153.25 13.4688 154.016 13.4688C155.12 13.4688 155.99 13.7474 156.625 14.3047C157.266 14.8568 157.586 15.6224 157.586 16.6016C157.586 17.1693 157.424 17.7656 157.102 18.3906C156.784 19.0104 156.26 19.7161 155.531 20.5078L152.75 23.4844H158.031V25Z" fill="#FF5A43"/>
<path d="M0.5 8C0.5 3.85786 3.85786 0.5 8 0.5H221C225.142 0.5 228.5 3.85787 228.5 8V119.5H0.5V8Z" stroke="#5452F6"/>
</g>
<g filter="url(#filter1_d)">
<path d="M0 119H229V135C229 139.418 225.418 143 221 143H8.00001C3.58173 143 0 139.418 0 135V119Z" fill="#EEEEFF"/>
<path d="M0.5 119.5H228.5V135C228.5 139.142 225.142 142.5 221 142.5H8.00001C3.85787 142.5 0.5 139.142 0.5 135V119.5Z" stroke="#5452F6"/>
</g>
<g filter="url(#filter2_d)">
<path d="M401 48C401 43.5817 404.582 40 409 40H622C626.418 40 630 43.5817 630 48V120H401V48Z" fill="white"/>
<path d="M409 40.5H622C626.142 40.5 629.5 43.8579 629.5 48V119.5H401.5V48C401.5 43.8579 404.858 40.5 409 40.5Z" stroke="#5452F6"/>
</g>
<g filter="url(#filter3_d)">
<path d="M401 119H630V135C630 139.418 626.418 143 622 143H409C404.582 143 401 139.418 401 135V119Z" fill="#EEEEFF"/>
<path d="M401.5 119.5H629.5V135C629.5 139.142 626.142 142.5 622 142.5H409C404.858 142.5 401.5 139.142 401.5 135V119.5Z" stroke="#5452F6"/>
</g>
<line x1="401.5" y1="79.5" x2="629.5" y2="79.5" stroke="#5452F6"/>
<path d="M500.25 96.5469L500.305 97.5234C500.93 96.7682 501.75 96.3906 502.766 96.3906C504.526 96.3906 505.422 97.3984 505.453 99.4141V105H503.555V99.5234C503.555 98.987 503.438 98.5911 503.203 98.3359C502.974 98.0755 502.596 97.9453 502.07 97.9453C501.305 97.9453 500.734 98.2917 500.359 98.9844V105H498.461V96.5469H500.25ZM512.445 105C512.362 104.839 512.289 104.576 512.227 104.211C511.622 104.841 510.883 105.156 510.008 105.156C509.159 105.156 508.466 104.914 507.93 104.43C507.393 103.945 507.125 103.346 507.125 102.633C507.125 101.732 507.458 101.042 508.125 100.562C508.797 100.078 509.755 99.8359 511 99.8359H512.164V99.2812C512.164 98.8438 512.042 98.4948 511.797 98.2344C511.552 97.9688 511.18 97.8359 510.68 97.8359C510.247 97.8359 509.893 97.9453 509.617 98.1641C509.341 98.3776 509.203 98.651 509.203 98.9844H507.305C507.305 98.5208 507.458 98.0885 507.766 97.6875C508.073 97.2812 508.49 96.9635 509.016 96.7344C509.547 96.5052 510.138 96.3906 510.789 96.3906C511.779 96.3906 512.568 96.6406 513.156 97.1406C513.745 97.6354 514.047 98.3333 514.062 99.2344V103.047C514.062 103.807 514.169 104.414 514.383 104.867V105H512.445ZM510.359 103.633C510.734 103.633 511.086 103.542 511.414 103.359C511.747 103.177 511.997 102.932 512.164 102.625V101.031H511.141C510.438 101.031 509.909 101.154 509.555 101.398C509.201 101.643 509.023 101.99 509.023 102.438C509.023 102.802 509.143 103.094 509.383 103.312C509.628 103.526 509.953 103.633 510.359 103.633ZM518.43 94.4922V96.5469H519.922V97.9531H518.43V102.672C518.43 102.995 518.492 103.229 518.617 103.375C518.747 103.516 518.977 103.586 519.305 103.586C519.523 103.586 519.745 103.56 519.969 103.508V104.977C519.536 105.096 519.12 105.156 518.719 105.156C517.26 105.156 516.531 104.352 516.531 102.742V97.9531H515.141V96.5469H516.531V94.4922H518.43ZM525.75 99.3594L526.367 93.625H532.477V95.2656H527.945L527.633 97.9844C528.159 97.6823 528.753 97.5312 529.414 97.5312C530.497 97.5312 531.339 97.8776 531.938 98.5703C532.542 99.263 532.844 100.195 532.844 101.367C532.844 102.523 532.51 103.445 531.844 104.133C531.177 104.815 530.263 105.156 529.102 105.156C528.06 105.156 527.195 104.862 526.508 104.273C525.826 103.68 525.456 102.898 525.398 101.93H527.234C527.307 102.482 527.505 102.906 527.828 103.203C528.151 103.495 528.573 103.641 529.094 103.641C529.677 103.641 530.13 103.432 530.453 103.016C530.781 102.599 530.945 102.031 530.945 101.312C530.945 100.62 530.766 100.073 530.406 99.6719C530.047 99.2656 529.552 99.0625 528.922 99.0625C528.578 99.0625 528.286 99.1094 528.047 99.2031C527.807 99.2917 527.547 99.4688 527.266 99.7344L525.75 99.3594Z" fill="#5452F6"/>
<path d="M474.789 62.0703C474.789 61.5703 474.612 61.1849 474.258 60.9141C473.909 60.6432 473.276 60.3698 472.359 60.0938C471.443 59.8177 470.714 59.5104 470.172 59.1719C469.135 58.5208 468.617 57.6719 468.617 56.625C468.617 55.7083 468.99 54.9531 469.734 54.3594C470.484 53.7656 471.456 53.4688 472.648 53.4688C473.44 53.4688 474.146 53.6146 474.766 53.9062C475.385 54.1979 475.872 54.6146 476.227 55.1562C476.581 55.6927 476.758 56.2891 476.758 56.9453H474.789C474.789 56.3516 474.602 55.888 474.227 55.5547C473.857 55.2161 473.326 55.0469 472.633 55.0469C471.987 55.0469 471.484 55.1849 471.125 55.4609C470.771 55.737 470.594 56.1224 470.594 56.6172C470.594 57.0339 470.786 57.3828 471.172 57.6641C471.557 57.9401 472.193 58.2109 473.078 58.4766C473.964 58.737 474.674 59.0365 475.211 59.375C475.747 59.7083 476.141 60.0938 476.391 60.5312C476.641 60.9635 476.766 61.4714 476.766 62.0547C476.766 63.0026 476.401 63.7578 475.672 64.3203C474.948 64.8776 473.964 65.1562 472.719 65.1562C471.896 65.1562 471.138 65.0052 470.445 64.7031C469.758 64.3958 469.221 63.974 468.836 63.4375C468.456 62.901 468.266 62.276 468.266 61.5625H470.242C470.242 62.2083 470.456 62.7083 470.883 63.0625C471.31 63.4167 471.922 63.5938 472.719 63.5938C473.406 63.5938 473.922 63.4557 474.266 63.1797C474.615 62.8984 474.789 62.5286 474.789 62.0703ZM480.695 54.4922V56.5469H482.188V57.9531H480.695V62.6719C480.695 62.9948 480.758 63.2292 480.883 63.375C481.013 63.5156 481.242 63.5859 481.57 63.5859C481.789 63.5859 482.01 63.5599 482.234 63.5078V64.9766C481.802 65.0964 481.385 65.1562 480.984 65.1562C479.526 65.1562 478.797 64.3516 478.797 62.7422V57.9531H477.406V56.5469H478.797V54.4922H480.695ZM488.07 58.2812C487.82 58.2396 487.562 58.2188 487.297 58.2188C486.427 58.2188 485.841 58.5521 485.539 59.2188V65H483.641V56.5469H485.453L485.5 57.4922C485.958 56.7578 486.594 56.3906 487.406 56.3906C487.677 56.3906 487.901 56.4271 488.078 56.5L488.07 58.2812ZM491.289 65H489.391V56.5469H491.289V65ZM489.273 54.3516C489.273 54.0599 489.365 53.8177 489.547 53.625C489.734 53.4323 490 53.3359 490.344 53.3359C490.688 53.3359 490.953 53.4323 491.141 53.625C491.328 53.8177 491.422 54.0599 491.422 54.3516C491.422 54.638 491.328 54.8776 491.141 55.0703C490.953 55.2578 490.688 55.3516 490.344 55.3516C490 55.3516 489.734 55.2578 489.547 55.0703C489.365 54.8776 489.273 54.638 489.273 54.3516ZM495.125 56.5469L495.18 57.5234C495.805 56.7682 496.625 56.3906 497.641 56.3906C499.401 56.3906 500.297 57.3984 500.328 59.4141V65H498.43V59.5234C498.43 58.987 498.312 58.5911 498.078 58.3359C497.849 58.0755 497.471 57.9453 496.945 57.9453C496.18 57.9453 495.609 58.2917 495.234 58.9844V65H493.336V56.5469H495.125ZM501.938 60.7109C501.938 59.3984 502.245 58.3516 502.859 57.5703C503.479 56.7839 504.299 56.3906 505.32 56.3906C506.284 56.3906 507.042 56.7266 507.594 57.3984L507.68 56.5469H509.391V64.7422C509.391 65.8516 509.044 66.7266 508.352 67.3672C507.664 68.0078 506.734 68.3281 505.562 68.3281C504.943 68.3281 504.336 68.1979 503.742 67.9375C503.154 67.6823 502.706 67.3464 502.398 66.9297L503.297 65.7891C503.88 66.4818 504.599 66.8281 505.453 66.8281C506.083 66.8281 506.581 66.6562 506.945 66.3125C507.31 65.974 507.492 65.474 507.492 64.8125V64.2422C506.945 64.8516 506.216 65.1562 505.305 65.1562C504.315 65.1562 503.505 64.763 502.875 63.9766C502.25 63.1901 501.938 62.1016 501.938 60.7109ZM503.828 60.875C503.828 61.724 504 62.3932 504.344 62.8828C504.693 63.3672 505.174 63.6094 505.789 63.6094C506.555 63.6094 507.122 63.2812 507.492 62.625V58.9062C507.133 58.2656 506.57 57.9453 505.805 57.9453C505.18 57.9453 504.693 58.1927 504.344 58.6875C504 59.1823 503.828 59.9115 503.828 60.875ZM516.633 52.7969L517.602 53.3984C517.128 54.0911 516.883 54.8125 516.867 55.5625V56.75H515.203V55.6719C515.208 55.1719 515.344 54.651 515.609 54.1094C515.88 53.5625 516.221 53.125 516.633 52.7969ZM519.258 52.7969L520.227 53.3984C519.753 54.0911 519.508 54.8125 519.492 55.5625V56.75H517.828V55.6719C517.833 55.1719 517.969 54.651 518.234 54.1094C518.505 53.5625 518.846 53.125 519.258 52.7969ZM530.703 65H528.734V59.9453H523.648V65H521.672V53.625H523.648V58.3594H528.734V53.625H530.703V65ZM536.586 65.1562C535.383 65.1562 534.406 64.7786 533.656 64.0234C532.911 63.263 532.539 62.2526 532.539 60.9922V60.7578C532.539 59.9141 532.701 59.1615 533.023 58.5C533.352 57.8333 533.81 57.3151 534.398 56.9453C534.987 56.5755 535.643 56.3906 536.367 56.3906C537.518 56.3906 538.406 56.7578 539.031 57.4922C539.661 58.2266 539.977 59.2656 539.977 60.6094V61.375H534.453C534.51 62.0729 534.742 62.625 535.148 63.0312C535.56 63.4375 536.076 63.6406 536.695 63.6406C537.565 63.6406 538.273 63.2891 538.82 62.5859L539.844 63.5625C539.505 64.0677 539.052 64.4609 538.484 64.7422C537.922 65.0182 537.289 65.1562 536.586 65.1562ZM536.359 57.9141C535.839 57.9141 535.417 58.0964 535.094 58.4609C534.776 58.8255 534.573 59.3333 534.484 59.9844H538.102V59.8438C538.06 59.2083 537.891 58.7292 537.594 58.4062C537.297 58.0781 536.885 57.9141 536.359 57.9141ZM543.477 65H541.578V53H543.477V65ZM547.57 65H545.672V53H547.57V65ZM549.289 60.6953C549.289 59.8672 549.453 59.1224 549.781 58.4609C550.109 57.7943 550.57 57.2839 551.164 56.9297C551.758 56.5703 552.44 56.3906 553.211 56.3906C554.352 56.3906 555.276 56.7578 555.984 57.4922C556.698 58.2266 557.083 59.2005 557.141 60.4141L557.148 60.8594C557.148 61.6927 556.987 62.4375 556.664 63.0938C556.346 63.75 555.888 64.2578 555.289 64.6172C554.695 64.9766 554.008 65.1562 553.227 65.1562C552.034 65.1562 551.078 64.7604 550.359 63.9688C549.646 63.1719 549.289 62.112 549.289 60.7891V60.6953ZM551.188 60.8594C551.188 61.7292 551.367 62.4115 551.727 62.9062C552.086 63.3958 552.586 63.6406 553.227 63.6406C553.867 63.6406 554.365 63.3906 554.719 62.8906C555.078 62.3906 555.258 61.6589 555.258 60.6953C555.258 59.8411 555.073 59.1641 554.703 58.6641C554.339 58.1641 553.841 57.9141 553.211 57.9141C552.591 57.9141 552.099 58.1615 551.734 58.6562C551.37 59.1458 551.188 59.8802 551.188 60.8594ZM558.562 57L557.594 56.3984C558.062 55.7161 558.305 54.9948 558.32 54.2344V53H559.984V54.0781C559.984 54.6146 559.846 55.1562 559.57 55.7031C559.299 56.2448 558.964 56.6771 558.562 57ZM561.172 57L560.203 56.3984C560.672 55.7161 560.914 54.9948 560.93 54.2344V53H562.594V54.0781C562.594 54.6146 562.456 55.1562 562.18 55.7031C561.909 56.2448 561.573 56.6771 561.172 57Z" fill="#5452F6"/>
<defs>
<filter id="filter0_d" x="0" y="0" width="233" height="124" filterUnits="userSpaceOnUse" color-interpolation-filters="sRGB">
<feFlood flood-opacity="0" result="BackgroundImageFix"/>
<feColorMatrix in="SourceAlpha" type="matrix" values="0 0 0 0 0 0 0 0 0 0 0 0 0 0 0 0 0 0 127 0"/>
<feOffset dx="4" dy="4"/>
<feColorMatrix type="matrix" values="0 0 0 0 0.674908 0 0 0 0 0.662083 0 0 0 0 0.945833 0 0 0 1 0"/>
<feBlend mode="normal" in2="BackgroundImageFix" result="effect1_dropShadow"/>
<feBlend mode="normal" in="SourceGraphic" in2="effect1_dropShadow" result="shape"/>
</filter>
<filter id="filter1_d" x="0" y="119" width="233" height="28" filterUnits="userSpaceOnUse" color-interpolation-filters="sRGB">
<feFlood flood-opacity="0" result="BackgroundImageFix"/>
<feColorMatrix in="SourceAlpha" type="matrix" values="0 0 0 0 0 0 0 0 0 0 0 0 0 0 0 0 0 0 127 0"/>
<feOffset dx="4" dy="4"/>
<feColorMatrix type="matrix" values="0 0 0 0 0.674908 0 0 0 0 0.662083 0 0 0 0 0.945833 0 0 0 1 0"/>
<feBlend mode="normal" in2="BackgroundImageFix" result="effect1_dropShadow"/>
<feBlend mode="normal" in="SourceGraphic" in2="effect1_dropShadow" result="shape"/>
</filter>
<filter id="filter2_d" x="401" y="40" width="233" height="84" filterUnits="userSpaceOnUse" color-interpolation-filters="sRGB">
<feFlood flood-opacity="0" result="BackgroundImageFix"/>
<feColorMatrix in="SourceAlpha" type="matrix" values="0 0 0 0 0 0 0 0 0 0 0 0 0 0 0 0 0 0 127 0"/>
<feOffset dx="4" dy="4"/>
<feColorMatrix type="matrix" values="0 0 0 0 0.674908 0 0 0 0 0.662083 0 0 0 0 0.945833 0 0 0 1 0"/>
<feBlend mode="normal" in2="BackgroundImageFix" result="effect1_dropShadow"/>
<feBlend mode="normal" in="SourceGraphic" in2="effect1_dropShadow" result="shape"/>
</filter>
<filter id="filter3_d" x="401" y="119" width="233" height="28" filterUnits="userSpaceOnUse" color-interpolation-filters="sRGB">
<feFlood flood-opacity="0" result="BackgroundImageFix"/>
<feColorMatrix in="SourceAlpha" type="matrix" values="0 0 0 0 0 0 0 0 0 0 0 0 0 0 0 0 0 0 127 0"/>
<feOffset dx="4" dy="4"/>
<feColorMatrix type="matrix" values="0 0 0 0 0.674908 0 0 0 0 0.662083 0 0 0 0 0.945833 0 0 0 1 0"/>
<feBlend mode="normal" in2="BackgroundImageFix" result="effect1_dropShadow"/>
<feBlend mode="normal" in="SourceGraphic" in2="effect1_dropShadow" result="shape"/>
</filter>
</defs>
</svg>
