<svg width="633" height="107" viewBox="0 0 633 107" fill="none" xmlns="http://www.w3.org/2000/svg">
<g filter="url(#filter0_d)">
<path d="M0 48C0 43.5817 3.58172 40 8 40H221C225.418 40 229 43.5817 229 48V80H0V48Z" fill="white"/>
<path d="M0.5 48C0.5 43.8579 3.85786 40.5 8 40.5H221C225.142 40.5 228.5 43.8579 228.5 48V79.5H0.5V48Z" stroke="#5452F6"/>
</g>
<g filter="url(#filter1_d)">
<path d="M0 79H229V95C229 99.4183 225.418 103 221 103H8.00001C3.58173 103 0 99.4183 0 95V79Z" fill="#EEEEFF"/>
<path d="M0.5 79.5H228.5V95C228.5 99.1421 225.142 102.5 221 102.5H8.00001C3.85787 102.5 0.5 99.1421 0.5 95V79.5Z" stroke="#5452F6"/>
</g>
<path d="M101.789 65H99.8906V56.5469H101.789V65ZM99.7734 54.3516C99.7734 54.0599 99.8646 53.8177 100.047 53.625C100.234 53.4323 100.5 53.3359 100.844 53.3359C101.188 53.3359 101.453 53.4323 101.641 53.625C101.828 53.8177 101.922 54.0599 101.922 54.3516C101.922 54.638 101.828 54.8776 101.641 55.0703C101.453 55.2578 101.188 55.3516 100.844 55.3516C100.5 55.3516 100.234 55.2578 100.047 55.0703C99.8646 54.8776 99.7734 54.638 99.7734 54.3516ZM105.625 56.5469L105.68 57.5234C106.305 56.7682 107.125 56.3906 108.141 56.3906C109.901 56.3906 110.797 57.3984 110.828 59.4141V65H108.93V59.5234C108.93 58.987 108.812 58.5911 108.578 58.3359C108.349 58.0755 107.971 57.9453 107.445 57.9453C106.68 57.9453 106.109 58.2917 105.734 58.9844V65H103.836V56.5469H105.625ZM115.148 54.4922V56.5469H116.641V57.9531H115.148V62.6719C115.148 62.9948 115.211 63.2292 115.336 63.375C115.466 63.5156 115.695 63.5859 116.023 63.5859C116.242 63.5859 116.464 63.5599 116.688 63.5078V64.9766C116.255 65.0964 115.839 65.1562 115.438 65.1562C113.979 65.1562 113.25 64.3516 113.25 62.7422V57.9531H111.859V56.5469H113.25V54.4922H115.148ZM129.609 65H121.961V63.6953L125.75 59.5625C126.297 58.9531 126.685 58.4453 126.914 58.0391C127.148 57.6276 127.266 57.2161 127.266 56.8047C127.266 56.263 127.112 55.8255 126.805 55.4922C126.503 55.1589 126.094 54.9922 125.578 54.9922C124.964 54.9922 124.487 55.1797 124.148 55.5547C123.81 55.9297 123.641 56.4427 123.641 57.0938H121.742C121.742 56.401 121.898 55.7786 122.211 55.2266C122.529 54.6693 122.979 54.237 123.562 53.9297C124.151 53.6224 124.828 53.4688 125.594 53.4688C126.698 53.4688 127.568 53.7474 128.203 54.3047C128.844 54.8568 129.164 55.6224 129.164 56.6016C129.164 57.1693 129.003 57.7656 128.68 58.3906C128.362 59.0104 127.839 59.7161 127.109 60.5078L124.328 63.4844H129.609V65Z" fill="#5452F6"/>
<g filter="url(#filter2_d)">
<path d="M400 8C400 3.58172 403.582 0 408 0H621C625.418 0 629 3.58172 629 8V80H400V8Z" fill="white"/>
<path d="M400.5 8C400.5 3.85787 403.858 0.5 408 0.5H621C625.142 0.5 628.5 3.85786 628.5 8V79.5H400.5V8Z" stroke="#5452F6"/>
</g>
<g filter="url(#filter3_d)">
<path d="M400 79H629V95C629 99.4183 625.418 103 621 103H408C403.582 103 400 99.4183 400 95V79Z" fill="#EEEEFF"/>
<path d="M400.5 79.5H628.5V95C628.5 99.1421 625.142 102.5 621 102.5H408C403.858 102.5 400.5 99.1421 400.5 95V79.5Z" stroke="#5452F6"/>
</g>
<line x1="400.5" y1="39.5" x2="628.5" y2="39.5" stroke="#5452F6"/>
<path d="M501.789 65H499.891V56.5469H501.789V65ZM499.773 54.3516C499.773 54.0599 499.865 53.8177 500.047 53.625C500.234 53.4323 500.5 53.3359 500.844 53.3359C501.188 53.3359 501.453 53.4323 501.641 53.625C501.828 53.8177 501.922 54.0599 501.922 54.3516C501.922 54.638 501.828 54.8776 501.641 55.0703C501.453 55.2578 501.188 55.3516 500.844 55.3516C500.5 55.3516 500.234 55.2578 500.047 55.0703C499.865 54.8776 499.773 54.638 499.773 54.3516ZM505.625 56.5469L505.68 57.5234C506.305 56.7682 507.125 56.3906 508.141 56.3906C509.901 56.3906 510.797 57.3984 510.828 59.4141V65H508.93V59.5234C508.93 58.987 508.812 58.5911 508.578 58.3359C508.349 58.0755 507.971 57.9453 507.445 57.9453C506.68 57.9453 506.109 58.2917 505.734 58.9844V65H503.836V56.5469H505.625ZM515.148 54.4922V56.5469H516.641V57.9531H515.148V62.6719C515.148 62.9948 515.211 63.2292 515.336 63.375C515.466 63.5156 515.695 63.5859 516.023 63.5859C516.242 63.5859 516.464 63.5599 516.688 63.5078V64.9766C516.255 65.0964 515.839 65.1562 515.438 65.1562C513.979 65.1562 513.25 64.3516 513.25 62.7422V57.9531H511.859V56.5469H513.25V54.4922H515.148ZM529.609 65H521.961V63.6953L525.75 59.5625C526.297 58.9531 526.685 58.4453 526.914 58.0391C527.148 57.6276 527.266 57.2161 527.266 56.8047C527.266 56.263 527.112 55.8255 526.805 55.4922C526.503 55.1589 526.094 54.9922 525.578 54.9922C524.964 54.9922 524.487 55.1797 524.148 55.5547C523.81 55.9297 523.641 56.4427 523.641 57.0938H521.742C521.742 56.401 521.898 55.7786 522.211 55.2266C522.529 54.6693 522.979 54.237 523.562 53.9297C524.151 53.6224 524.828 53.4688 525.594 53.4688C526.698 53.4688 527.568 53.7474 528.203 54.3047C528.844 54.8568 529.164 55.6224 529.164 56.6016C529.164 57.1693 529.003 57.7656 528.68 58.3906C528.362 59.0104 527.839 59.7161 527.109 60.5078L524.328 63.4844H529.609V65Z" fill="#5452F6"/>
<path d="M463.141 25H461.242V13H463.141V25ZM467.234 25H465.336V16.5469H467.234V25ZM465.219 14.3516C465.219 14.0599 465.31 13.8177 465.492 13.625C465.68 13.4323 465.945 13.3359 466.289 13.3359C466.633 13.3359 466.898 13.4323 467.086 13.625C467.273 13.8177 467.367 14.0599 467.367 14.3516C467.367 14.638 467.273 14.8776 467.086 15.0703C466.898 15.2578 466.633 15.3516 466.289 15.3516C465.945 15.3516 465.68 15.2578 465.492 15.0703C465.31 14.8776 465.219 14.638 465.219 14.3516ZM474.047 22.7031C474.047 22.3646 473.906 22.1068 473.625 21.9297C473.349 21.7526 472.888 21.5964 472.242 21.4609C471.596 21.3255 471.057 21.1536 470.625 20.9453C469.677 20.487 469.203 19.8229 469.203 18.9531C469.203 18.224 469.51 17.6146 470.125 17.125C470.74 16.6354 471.521 16.3906 472.469 16.3906C473.479 16.3906 474.294 16.6406 474.914 17.1406C475.539 17.6406 475.852 18.2891 475.852 19.0859H473.953C473.953 18.7214 473.818 18.4193 473.547 18.1797C473.276 17.9349 472.917 17.8125 472.469 17.8125C472.052 17.8125 471.711 17.9089 471.445 18.1016C471.185 18.2943 471.055 18.5521 471.055 18.875C471.055 19.1667 471.177 19.3932 471.422 19.5547C471.667 19.7161 472.161 19.8802 472.906 20.0469C473.651 20.2083 474.234 20.4036 474.656 20.6328C475.083 20.8568 475.398 21.1276 475.602 21.4453C475.81 21.763 475.914 22.1484 475.914 22.6016C475.914 23.362 475.599 23.9792 474.969 24.4531C474.339 24.9219 473.513 25.1562 472.492 25.1562C471.799 25.1562 471.182 25.0312 470.641 24.7812C470.099 24.5312 469.677 24.1875 469.375 23.75C469.073 23.3125 468.922 22.8411 468.922 22.3359H470.766C470.792 22.7839 470.961 23.1302 471.273 23.375C471.586 23.6146 472 23.7344 472.516 23.7344C473.016 23.7344 473.396 23.6406 473.656 23.4531C473.917 23.2604 474.047 23.0104 474.047 22.7031ZM479.953 14.4922V16.5469H481.445V17.9531H479.953V22.6719C479.953 22.9948 480.016 23.2292 480.141 23.375C480.271 23.5156 480.5 23.5859 480.828 23.5859C481.047 23.5859 481.268 23.5599 481.492 23.5078V24.9766C481.06 25.0964 480.643 25.1562 480.242 25.1562C478.784 25.1562 478.055 24.3516 478.055 22.7422V17.9531H476.664V16.5469H478.055V14.4922H479.953ZM486.531 20.6953C486.531 19.8672 486.695 19.1224 487.023 18.4609C487.352 17.7943 487.812 17.2839 488.406 16.9297C489 16.5703 489.682 16.3906 490.453 16.3906C491.594 16.3906 492.518 16.7578 493.227 17.4922C493.94 18.2266 494.326 19.2005 494.383 20.4141L494.391 20.8594C494.391 21.6927 494.229 22.4375 493.906 23.0938C493.589 23.75 493.13 24.2578 492.531 24.6172C491.938 24.9766 491.25 25.1562 490.469 25.1562C489.276 25.1562 488.32 24.7604 487.602 23.9688C486.888 23.1719 486.531 22.112 486.531 20.7891V20.6953ZM488.43 20.8594C488.43 21.7292 488.609 22.4115 488.969 22.9062C489.328 23.3958 489.828 23.6406 490.469 23.6406C491.109 23.6406 491.607 23.3906 491.961 22.8906C492.32 22.3906 492.5 21.6589 492.5 20.6953C492.5 19.8411 492.315 19.1641 491.945 18.6641C491.581 18.1641 491.083 17.9141 490.453 17.9141C489.833 17.9141 489.341 18.1615 488.977 18.6562C488.612 19.1458 488.43 19.8802 488.43 20.8594ZM503.398 20.8594C503.398 22.1667 503.102 23.2109 502.508 23.9922C501.914 24.7682 501.117 25.1562 500.117 25.1562C499.19 25.1562 498.448 24.8516 497.891 24.2422V28.25H495.992V16.5469H497.742L497.82 17.4062C498.378 16.7292 499.135 16.3906 500.094 16.3906C501.125 16.3906 501.932 16.776 502.516 17.5469C503.104 18.3125 503.398 19.3776 503.398 20.7422V20.8594ZM501.508 20.6953C501.508 19.8516 501.339 19.1823 501 18.6875C500.667 18.1927 500.188 17.9453 499.562 17.9453C498.786 17.9453 498.229 18.2656 497.891 18.9062V22.6562C498.234 23.3125 498.797 23.6406 499.578 23.6406C500.182 23.6406 500.654 23.3984 500.992 22.9141C501.336 22.4245 501.508 21.6849 501.508 20.6953ZM508.734 25.1562C507.531 25.1562 506.555 24.7786 505.805 24.0234C505.06 23.263 504.688 22.2526 504.688 20.9922V20.7578C504.688 19.9141 504.849 19.1615 505.172 18.5C505.5 17.8333 505.958 17.3151 506.547 16.9453C507.135 16.5755 507.792 16.3906 508.516 16.3906C509.667 16.3906 510.555 16.7578 511.18 17.4922C511.81 18.2266 512.125 19.2656 512.125 20.6094V21.375H506.602C506.659 22.0729 506.891 22.625 507.297 23.0312C507.708 23.4375 508.224 23.6406 508.844 23.6406C509.714 23.6406 510.422 23.2891 510.969 22.5859L511.992 23.5625C511.654 24.0677 511.201 24.4609 510.633 24.7422C510.07 25.0182 509.438 25.1562 508.734 25.1562ZM508.508 17.9141C507.987 17.9141 507.565 18.0964 507.242 18.4609C506.924 18.8255 506.721 19.3333 506.633 19.9844H510.25V19.8438C510.208 19.2083 510.039 18.7292 509.742 18.4062C509.445 18.0781 509.034 17.9141 508.508 17.9141ZM518.031 18.2812C517.781 18.2396 517.523 18.2188 517.258 18.2188C516.388 18.2188 515.802 18.5521 515.5 19.2188V25H513.602V16.5469H515.414L515.461 17.4922C515.919 16.7578 516.555 16.3906 517.367 16.3906C517.638 16.3906 517.862 16.4271 518.039 16.5L518.031 18.2812ZM524.047 25C523.964 24.8385 523.891 24.5755 523.828 24.2109C523.224 24.8411 522.484 25.1562 521.609 25.1562C520.76 25.1562 520.068 24.9141 519.531 24.4297C518.995 23.9453 518.727 23.3464 518.727 22.6328C518.727 21.7318 519.06 21.0417 519.727 20.5625C520.398 20.0781 521.357 19.8359 522.602 19.8359H523.766V19.2812C523.766 18.8438 523.643 18.4948 523.398 18.2344C523.154 17.9688 522.781 17.8359 522.281 17.8359C521.849 17.8359 521.495 17.9453 521.219 18.1641C520.943 18.3776 520.805 18.651 520.805 18.9844H518.906C518.906 18.5208 519.06 18.0885 519.367 17.6875C519.674 17.2812 520.091 16.9635 520.617 16.7344C521.148 16.5052 521.74 16.3906 522.391 16.3906C523.38 16.3906 524.169 16.6406 524.758 17.1406C525.346 17.6354 525.648 18.3333 525.664 19.2344V23.0469C525.664 23.8073 525.771 24.4141 525.984 24.8672V25H524.047ZM521.961 23.6328C522.336 23.6328 522.688 23.5417 523.016 23.3594C523.349 23.1771 523.599 22.9323 523.766 22.625V21.0312H522.742C522.039 21.0312 521.51 21.1536 521.156 21.3984C520.802 21.6432 520.625 21.9896 520.625 22.4375C520.625 22.8021 520.745 23.0938 520.984 23.3125C521.229 23.526 521.555 23.6328 521.961 23.6328ZM530.031 14.4922V16.5469H531.523V17.9531H530.031V22.6719C530.031 22.9948 530.094 23.2292 530.219 23.375C530.349 23.5156 530.578 23.5859 530.906 23.5859C531.125 23.5859 531.346 23.5599 531.57 23.5078V24.9766C531.138 25.0964 530.721 25.1562 530.32 25.1562C528.862 25.1562 528.133 24.3516 528.133 22.7422V17.9531H526.742V16.5469H528.133V14.4922H530.031ZM535 25H533.102V16.5469H535V25ZM532.984 14.3516C532.984 14.0599 533.076 13.8177 533.258 13.625C533.445 13.4323 533.711 13.3359 534.055 13.3359C534.398 13.3359 534.664 13.4323 534.852 13.625C535.039 13.8177 535.133 14.0599 535.133 14.3516C535.133 14.638 535.039 14.8776 534.852 15.0703C534.664 15.2578 534.398 15.3516 534.055 15.3516C533.711 15.3516 533.445 15.2578 533.258 15.0703C533.076 14.8776 532.984 14.638 532.984 14.3516ZM536.719 20.6953C536.719 19.8672 536.883 19.1224 537.211 18.4609C537.539 17.7943 538 17.2839 538.594 16.9297C539.188 16.5703 539.87 16.3906 540.641 16.3906C541.781 16.3906 542.706 16.7578 543.414 17.4922C544.128 18.2266 544.513 19.2005 544.57 20.4141L544.578 20.8594C544.578 21.6927 544.417 22.4375 544.094 23.0938C543.776 23.75 543.318 24.2578 542.719 24.6172C542.125 24.9766 541.438 25.1562 540.656 25.1562C539.464 25.1562 538.508 24.7604 537.789 23.9688C537.076 23.1719 536.719 22.112 536.719 20.7891V20.6953ZM538.617 20.8594C538.617 21.7292 538.797 22.4115 539.156 22.9062C539.516 23.3958 540.016 23.6406 540.656 23.6406C541.297 23.6406 541.794 23.3906 542.148 22.8906C542.508 22.3906 542.688 21.6589 542.688 20.6953C542.688 19.8411 542.503 19.1641 542.133 18.6641C541.768 18.1641 541.271 17.9141 540.641 17.9141C540.021 17.9141 539.529 18.1615 539.164 18.6562C538.799 19.1458 538.617 19.8802 538.617 20.8594ZM547.945 16.5469L548 17.5234C548.625 16.7682 549.445 16.3906 550.461 16.3906C552.221 16.3906 553.117 17.3984 553.148 19.4141V25H551.25V19.5234C551.25 18.987 551.133 18.5911 550.898 18.3359C550.669 18.0755 550.292 17.9453 549.766 17.9453C549 17.9453 548.43 18.2917 548.055 18.9844V25H546.156V16.5469H547.945ZM562.859 27.8125C561.021 27.2969 560.083 26.1224 560.047 24.2891V22.625C560.047 21.4531 559.544 20.8672 558.539 20.8672V19.4766C559.544 19.4766 560.047 18.888 560.047 17.7109V16.0547C560.062 15.1172 560.305 14.3594 560.773 13.7812C561.247 13.2031 561.943 12.7839 562.859 12.5234L563.234 13.6172C562.333 13.9089 561.867 14.7057 561.836 16.0078V17.6953C561.836 18.8672 561.385 19.6901 560.484 20.1641C561.385 20.6432 561.836 21.474 561.836 22.6562V24.3203C561.867 25.6224 562.333 26.4193 563.234 26.7109L562.859 27.8125ZM563.688 26.7109C564.604 26.4141 565.073 25.6016 565.094 24.2734V22.6484C565.094 21.4453 565.568 20.6198 566.516 20.1719C565.568 19.724 565.094 18.8906 565.094 17.6719V16.0547C565.073 14.7266 564.604 13.9141 563.688 13.6172L564.062 12.5234C565.01 12.7891 565.716 13.2214 566.18 13.8203C566.643 14.4141 566.875 15.1927 566.875 16.1562V17.7188C566.875 18.8906 567.38 19.4766 568.391 19.4766V20.8672C567.38 20.8672 566.875 21.4531 566.875 22.625V24.1641C566.875 25.138 566.641 25.9219 566.172 26.5156C565.708 27.1146 565.005 27.5469 564.062 27.8125L563.688 26.7109Z" fill="#FF6A3E"/>
<line x1="255" y1="79.5" x2="389" y2="79.5" stroke="#65BF73" stroke-width="2"/>
<path d="M379 70L389.5 79.5L379 88.5" stroke="#65BF73" stroke-width="2" stroke-linecap="round" stroke-linejoin="round"/>
<circle cx="250.5" cy="80" r="5.5" stroke="#65BF73" stroke-width="2"/>
<path d="M277.32 65H275.344L270.273 56.9297V65H268.297V53.625H270.273L275.359 61.7266V53.625H277.32V65ZM281.742 65H279.773V53.625H281.742V65ZM286.148 63.4219H291.312V65H284.172V53.625H286.148V63.4219ZM296.273 60.6953C296.273 59.8672 296.438 59.1224 296.766 58.4609C297.094 57.7943 297.555 57.2839 298.148 56.9297C298.742 56.5703 299.424 56.3906 300.195 56.3906C301.336 56.3906 302.26 56.7578 302.969 57.4922C303.682 58.2266 304.068 59.2005 304.125 60.4141L304.133 60.8594C304.133 61.6927 303.971 62.4375 303.648 63.0938C303.331 63.75 302.872 64.2578 302.273 64.6172C301.68 64.9766 300.992 65.1562 300.211 65.1562C299.018 65.1562 298.062 64.7604 297.344 63.9688C296.63 63.1719 296.273 62.112 296.273 60.7891V60.6953ZM298.172 60.8594C298.172 61.7292 298.352 62.4115 298.711 62.9062C299.07 63.3958 299.57 63.6406 300.211 63.6406C300.852 63.6406 301.349 63.3906 301.703 62.8906C302.062 62.3906 302.242 61.6589 302.242 60.6953C302.242 59.8411 302.057 59.1641 301.688 58.6641C301.323 58.1641 300.826 57.9141 300.195 57.9141C299.576 57.9141 299.083 58.1615 298.719 58.6562C298.354 59.1458 298.172 59.8802 298.172 60.8594ZM313.141 60.8594C313.141 62.1667 312.844 63.2109 312.25 63.9922C311.656 64.7682 310.859 65.1562 309.859 65.1562C308.932 65.1562 308.19 64.8516 307.633 64.2422V68.25H305.734V56.5469H307.484L307.562 57.4062C308.12 56.7292 308.878 56.3906 309.836 56.3906C310.867 56.3906 311.674 56.776 312.258 57.5469C312.846 58.3125 313.141 59.3776 313.141 60.7422V60.8594ZM311.25 60.6953C311.25 59.8516 311.081 59.1823 310.742 58.6875C310.409 58.1927 309.93 57.9453 309.305 57.9453C308.529 57.9453 307.971 58.2656 307.633 58.9062V62.6562C307.977 63.3125 308.539 63.6406 309.32 63.6406C309.924 63.6406 310.396 63.3984 310.734 62.9141C311.078 62.4245 311.25 61.6849 311.25 60.6953ZM318.477 65.1562C317.273 65.1562 316.297 64.7786 315.547 64.0234C314.802 63.263 314.43 62.2526 314.43 60.9922V60.7578C314.43 59.9141 314.591 59.1615 314.914 58.5C315.242 57.8333 315.701 57.3151 316.289 56.9453C316.878 56.5755 317.534 56.3906 318.258 56.3906C319.409 56.3906 320.297 56.7578 320.922 57.4922C321.552 58.2266 321.867 59.2656 321.867 60.6094V61.375H316.344C316.401 62.0729 316.633 62.625 317.039 63.0312C317.451 63.4375 317.966 63.6406 318.586 63.6406C319.456 63.6406 320.164 63.2891 320.711 62.5859L321.734 63.5625C321.396 64.0677 320.943 64.4609 320.375 64.7422C319.812 65.0182 319.18 65.1562 318.477 65.1562ZM318.25 57.9141C317.729 57.9141 317.307 58.0964 316.984 58.4609C316.667 58.8255 316.464 59.3333 316.375 59.9844H319.992V59.8438C319.951 59.2083 319.781 58.7292 319.484 58.4062C319.188 58.0781 318.776 57.9141 318.25 57.9141ZM327.773 58.2812C327.523 58.2396 327.266 58.2188 327 58.2188C326.13 58.2188 325.544 58.5521 325.242 59.2188V65H323.344V56.5469H325.156L325.203 57.4922C325.661 56.7578 326.297 56.3906 327.109 56.3906C327.38 56.3906 327.604 56.4271 327.781 56.5L327.773 58.2812ZM333.789 65C333.706 64.8385 333.633 64.5755 333.57 64.2109C332.966 64.8411 332.227 65.1562 331.352 65.1562C330.503 65.1562 329.81 64.9141 329.273 64.4297C328.737 63.9453 328.469 63.3464 328.469 62.6328C328.469 61.7318 328.802 61.0417 329.469 60.5625C330.141 60.0781 331.099 59.8359 332.344 59.8359H333.508V59.2812C333.508 58.8438 333.385 58.4948 333.141 58.2344C332.896 57.9688 332.523 57.8359 332.023 57.8359C331.591 57.8359 331.237 57.9453 330.961 58.1641C330.685 58.3776 330.547 58.651 330.547 58.9844H328.648C328.648 58.5208 328.802 58.0885 329.109 57.6875C329.417 57.2812 329.833 56.9635 330.359 56.7344C330.891 56.5052 331.482 56.3906 332.133 56.3906C333.122 56.3906 333.911 56.6406 334.5 57.1406C335.089 57.6354 335.391 58.3333 335.406 59.2344V63.0469C335.406 63.8073 335.513 64.4141 335.727 64.8672V65H333.789ZM331.703 63.6328C332.078 63.6328 332.43 63.5417 332.758 63.3594C333.091 63.1771 333.341 62.9323 333.508 62.625V61.0312H332.484C331.781 61.0312 331.253 61.1536 330.898 61.3984C330.544 61.6432 330.367 61.9896 330.367 62.4375C330.367 62.8021 330.487 63.0938 330.727 63.3125C330.971 63.526 331.297 63.6328 331.703 63.6328ZM339.773 54.4922V56.5469H341.266V57.9531H339.773V62.6719C339.773 62.9948 339.836 63.2292 339.961 63.375C340.091 63.5156 340.32 63.5859 340.648 63.5859C340.867 63.5859 341.089 63.5599 341.312 63.5078V64.9766C340.88 65.0964 340.464 65.1562 340.062 65.1562C338.604 65.1562 337.875 64.3516 337.875 62.7422V57.9531H336.484V56.5469H337.875V54.4922H339.773ZM344.742 65H342.844V56.5469H344.742V65ZM342.727 54.3516C342.727 54.0599 342.818 53.8177 343 53.625C343.188 53.4323 343.453 53.3359 343.797 53.3359C344.141 53.3359 344.406 53.4323 344.594 53.625C344.781 53.8177 344.875 54.0599 344.875 54.3516C344.875 54.638 344.781 54.8776 344.594 55.0703C344.406 55.2578 344.141 55.3516 343.797 55.3516C343.453 55.3516 343.188 55.2578 343 55.0703C342.818 54.8776 342.727 54.638 342.727 54.3516ZM346.461 60.6953C346.461 59.8672 346.625 59.1224 346.953 58.4609C347.281 57.7943 347.742 57.2839 348.336 56.9297C348.93 56.5703 349.612 56.3906 350.383 56.3906C351.523 56.3906 352.448 56.7578 353.156 57.4922C353.87 58.2266 354.255 59.2005 354.312 60.4141L354.32 60.8594C354.32 61.6927 354.159 62.4375 353.836 63.0938C353.518 63.75 353.06 64.2578 352.461 64.6172C351.867 64.9766 351.18 65.1562 350.398 65.1562C349.206 65.1562 348.25 64.7604 347.531 63.9688C346.818 63.1719 346.461 62.112 346.461 60.7891V60.6953ZM348.359 60.8594C348.359 61.7292 348.539 62.4115 348.898 62.9062C349.258 63.3958 349.758 63.6406 350.398 63.6406C351.039 63.6406 351.536 63.3906 351.891 62.8906C352.25 62.3906 352.43 61.6589 352.43 60.6953C352.43 59.8411 352.245 59.1641 351.875 58.6641C351.51 58.1641 351.013 57.9141 350.383 57.9141C349.763 57.9141 349.271 58.1615 348.906 58.6562C348.542 59.1458 348.359 59.8802 348.359 60.8594ZM357.688 56.5469L357.742 57.5234C358.367 56.7682 359.188 56.3906 360.203 56.3906C361.964 56.3906 362.859 57.3984 362.891 59.4141V65H360.992V59.5234C360.992 58.987 360.875 58.5911 360.641 58.3359C360.411 58.0755 360.034 57.9453 359.508 57.9453C358.742 57.9453 358.172 58.2917 357.797 58.9844V65H355.898V56.5469H357.688Z" fill="#65BF73"/>
<defs>
<filter id="filter0_d" x="0" y="40" width="233" height="44" filterUnits="userSpaceOnUse" color-interpolation-filters="sRGB">
<feFlood flood-opacity="0" result="BackgroundImageFix"/>
<feColorMatrix in="SourceAlpha" type="matrix" values="0 0 0 0 0 0 0 0 0 0 0 0 0 0 0 0 0 0 127 0"/>
<feOffset dx="4" dy="4"/>
<feColorMatrix type="matrix" values="0 0 0 0 0.674908 0 0 0 0 0.662083 0 0 0 0 0.945833 0 0 0 1 0"/>
<feBlend mode="normal" in2="BackgroundImageFix" result="effect1_dropShadow"/>
<feBlend mode="normal" in="SourceGraphic" in2="effect1_dropShadow" result="shape"/>
</filter>
<filter id="filter1_d" x="0" y="79" width="233" height="28" filterUnits="userSpaceOnUse" color-interpolation-filters="sRGB">
<feFlood flood-opacity="0" result="BackgroundImageFix"/>
<feColorMatrix in="SourceAlpha" type="matrix" values="0 0 0 0 0 0 0 0 0 0 0 0 0 0 0 0 0 0 127 0"/>
<feOffset dx="4" dy="4"/>
<feColorMatrix type="matrix" values="0 0 0 0 0.674908 0 0 0 0 0.662083 0 0 0 0 0.945833 0 0 0 1 0"/>
<feBlend mode="normal" in2="BackgroundImageFix" result="effect1_dropShadow"/>
<feBlend mode="normal" in="SourceGraphic" in2="effect1_dropShadow" result="shape"/>
</filter>
<filter id="filter2_d" x="400" y="0" width="233" height="84" filterUnits="userSpaceOnUse" color-interpolation-filters="sRGB">
<feFlood flood-opacity="0" result="BackgroundImageFix"/>
<feColorMatrix in="SourceAlpha" type="matrix" values="0 0 0 0 0 0 0 0 0 0 0 0 0 0 0 0 0 0 127 0"/>
<feOffset dx="4" dy="4"/>
<feColorMatrix type="matrix" values="0 0 0 0 0.674908 0 0 0 0 0.662083 0 0 0 0 0.945833 0 0 0 1 0"/>
<feBlend mode="normal" in2="BackgroundImageFix" result="effect1_dropShadow"/>
<feBlend mode="normal" in="SourceGraphic" in2="effect1_dropShadow" result="shape"/>
</filter>
<filter id="filter3_d" x="400" y="79" width="233" height="28" filterUnits="userSpaceOnUse" color-interpolation-filters="sRGB">
<feFlood flood-opacity="0" result="BackgroundImageFix"/>
<feColorMatrix in="SourceAlpha" type="matrix" values="0 0 0 0 0 0 0 0 0 0 0 0 0 0 0 0 0 0 127 0"/>
<feOffset dx="4" dy="4"/>
<feColorMatrix type="matrix" values="0 0 0 0 0.674908 0 0 0 0 0.662083 0 0 0 0 0.945833 0 0 0 1 0"/>
<feBlend mode="normal" in2="BackgroundImageFix" result="effect1_dropShadow"/>
<feBlend mode="normal" in="SourceGraphic" in2="effect1_dropShadow" result="shape"/>
</filter>
</defs>
</svg>
