<svg width="645" height="147" viewBox="0 0 645 147" fill="none" xmlns="http://www.w3.org/2000/svg">
<g filter="url(#filter0_d)">
<path d="M0 8C0 3.58172 3.58172 0 8 0H221C225.418 0 229 3.58172 229 8V120H0V8Z" fill="white"/>
<line x1="0.5" y1="79.5" x2="228.5" y2="79.5" stroke="#5452F6"/>
<line x1="0.5" y1="39.5" x2="228.5" y2="39.5" stroke="#5452F6"/>
<path d="M73.7891 102.07C73.7891 101.57 73.612 101.185 73.2578 100.914C72.9089 100.643 72.276 100.37 71.3594 100.094C70.4427 99.8177 69.7135 99.5104 69.1719 99.1719C68.1354 98.5208 67.6172 97.6719 67.6172 96.625C67.6172 95.7083 67.9896 94.9531 68.7344 94.3594C69.4844 93.7656 70.4557 93.4688 71.6484 93.4688C72.4401 93.4688 73.1458 93.6146 73.7656 93.9062C74.3854 94.1979 74.8724 94.6146 75.2266 95.1562C75.5807 95.6927 75.7578 96.2891 75.7578 96.9453H73.7891C73.7891 96.3516 73.6016 95.888 73.2266 95.5547C72.8568 95.2161 72.3255 95.0469 71.6328 95.0469C70.987 95.0469 70.4844 95.1849 70.125 95.4609C69.7708 95.737 69.5938 96.1224 69.5938 96.6172C69.5938 97.0339 69.7865 97.3828 70.1719 97.6641C70.5573 97.9401 71.1927 98.2109 72.0781 98.4766C72.9635 98.737 73.6745 99.0365 74.2109 99.375C74.7474 99.7083 75.1406 100.094 75.3906 100.531C75.6406 100.964 75.7656 101.471 75.7656 102.055C75.7656 103.003 75.401 103.758 74.6719 104.32C73.9479 104.878 72.9635 105.156 71.7188 105.156C70.8958 105.156 70.138 105.005 69.4453 104.703C68.7578 104.396 68.2214 103.974 67.8359 103.438C67.4557 102.901 67.2656 102.276 67.2656 101.562H69.2422C69.2422 102.208 69.4557 102.708 69.8828 103.062C70.3099 103.417 70.9219 103.594 71.7188 103.594C72.4062 103.594 72.9219 103.456 73.2656 103.18C73.6146 102.898 73.7891 102.529 73.7891 102.07ZM79.6953 94.4922V96.5469H81.1875V97.9531H79.6953V102.672C79.6953 102.995 79.7578 103.229 79.8828 103.375C80.013 103.516 80.2422 103.586 80.5703 103.586C80.7891 103.586 81.0104 103.56 81.2344 103.508V104.977C80.8021 105.096 80.3854 105.156 79.9844 105.156C78.526 105.156 77.7969 104.352 77.7969 102.742V97.9531H76.4062V96.5469H77.7969V94.4922H79.6953ZM87.0703 98.2812C86.8203 98.2396 86.5625 98.2188 86.2969 98.2188C85.4271 98.2188 84.8411 98.5521 84.5391 99.2188V105H82.6406V96.5469H84.4531L84.5 97.4922C84.9583 96.7578 85.5938 96.3906 86.4062 96.3906C86.6771 96.3906 86.901 96.4271 87.0781 96.5L87.0703 98.2812ZM90.2891 105H88.3906V96.5469H90.2891V105ZM88.2734 94.3516C88.2734 94.0599 88.3646 93.8177 88.5469 93.625C88.7344 93.4323 89 93.3359 89.3438 93.3359C89.6875 93.3359 89.9531 93.4323 90.1406 93.625C90.3281 93.8177 90.4219 94.0599 90.4219 94.3516C90.4219 94.638 90.3281 94.8776 90.1406 95.0703C89.9531 95.2578 89.6875 95.3516 89.3438 95.3516C89 95.3516 88.7344 95.2578 88.5469 95.0703C88.3646 94.8776 88.2734 94.638 88.2734 94.3516ZM94.125 96.5469L94.1797 97.5234C94.8047 96.7682 95.625 96.3906 96.6406 96.3906C98.401 96.3906 99.2969 97.3984 99.3281 99.4141V105H97.4297V99.5234C97.4297 98.987 97.3125 98.5911 97.0781 98.3359C96.849 98.0755 96.4714 97.9453 95.9453 97.9453C95.1797 97.9453 94.6094 98.2917 94.2344 98.9844V105H92.3359V96.5469H94.125ZM100.938 100.711C100.938 99.3984 101.245 98.3516 101.859 97.5703C102.479 96.7839 103.299 96.3906 104.32 96.3906C105.284 96.3906 106.042 96.7266 106.594 97.3984L106.68 96.5469H108.391V104.742C108.391 105.852 108.044 106.727 107.352 107.367C106.664 108.008 105.734 108.328 104.562 108.328C103.943 108.328 103.336 108.198 102.742 107.938C102.154 107.682 101.706 107.346 101.398 106.93L102.297 105.789C102.88 106.482 103.599 106.828 104.453 106.828C105.083 106.828 105.581 106.656 105.945 106.312C106.31 105.974 106.492 105.474 106.492 104.812V104.242C105.945 104.852 105.216 105.156 104.305 105.156C103.315 105.156 102.505 104.763 101.875 103.977C101.25 103.19 100.938 102.102 100.938 100.711ZM102.828 100.875C102.828 101.724 103 102.393 103.344 102.883C103.693 103.367 104.174 103.609 104.789 103.609C105.555 103.609 106.122 103.281 106.492 102.625V98.9062C106.133 98.2656 105.57 97.9453 104.805 97.9453C104.18 97.9453 103.693 98.1927 103.344 98.6875C103 99.1823 102.828 99.9115 102.828 100.875ZM115.633 92.7969L116.602 93.3984C116.128 94.0911 115.883 94.8125 115.867 95.5625V96.75H114.203V95.6719C114.208 95.1719 114.344 94.651 114.609 94.1094C114.88 93.5625 115.221 93.125 115.633 92.7969ZM118.258 92.7969L119.227 93.3984C118.753 94.0911 118.508 94.8125 118.492 95.5625V96.75H116.828V95.6719C116.833 95.1719 116.969 94.651 117.234 94.1094C117.505 93.5625 117.846 93.125 118.258 92.7969ZM129.703 105H127.734V99.9453H122.648V105H120.672V93.625H122.648V98.3594H127.734V93.625H129.703V105ZM135.586 105.156C134.383 105.156 133.406 104.779 132.656 104.023C131.911 103.263 131.539 102.253 131.539 100.992V100.758C131.539 99.9141 131.701 99.1615 132.023 98.5C132.352 97.8333 132.81 97.3151 133.398 96.9453C133.987 96.5755 134.643 96.3906 135.367 96.3906C136.518 96.3906 137.406 96.7578 138.031 97.4922C138.661 98.2266 138.977 99.2656 138.977 100.609V101.375H133.453C133.51 102.073 133.742 102.625 134.148 103.031C134.56 103.438 135.076 103.641 135.695 103.641C136.565 103.641 137.273 103.289 137.82 102.586L138.844 103.562C138.505 104.068 138.052 104.461 137.484 104.742C136.922 105.018 136.289 105.156 135.586 105.156ZM135.359 97.9141C134.839 97.9141 134.417 98.0964 134.094 98.4609C133.776 98.8255 133.573 99.3333 133.484 99.9844H137.102V99.8438C137.06 99.2083 136.891 98.7292 136.594 98.4062C136.297 98.0781 135.885 97.9141 135.359 97.9141ZM142.477 105H140.578V93H142.477V105ZM146.57 105H144.672V93H146.57V105ZM148.289 100.695C148.289 99.8672 148.453 99.1224 148.781 98.4609C149.109 97.7943 149.57 97.2839 150.164 96.9297C150.758 96.5703 151.44 96.3906 152.211 96.3906C153.352 96.3906 154.276 96.7578 154.984 97.4922C155.698 98.2266 156.083 99.2005 156.141 100.414L156.148 100.859C156.148 101.693 155.987 102.438 155.664 103.094C155.346 103.75 154.888 104.258 154.289 104.617C153.695 104.977 153.008 105.156 152.227 105.156C151.034 105.156 150.078 104.76 149.359 103.969C148.646 103.172 148.289 102.112 148.289 100.789V100.695ZM150.188 100.859C150.188 101.729 150.367 102.411 150.727 102.906C151.086 103.396 151.586 103.641 152.227 103.641C152.867 103.641 153.365 103.391 153.719 102.891C154.078 102.391 154.258 101.659 154.258 100.695C154.258 99.8411 154.073 99.1641 153.703 98.6641C153.339 98.1641 152.841 97.9141 152.211 97.9141C151.591 97.9141 151.099 98.1615 150.734 98.6562C150.37 99.1458 150.188 99.8802 150.188 100.859ZM157.562 97L156.594 96.3984C157.062 95.7161 157.305 94.9948 157.32 94.2344V93H158.984V94.0781C158.984 94.6146 158.846 95.1562 158.57 95.7031C158.299 96.2448 157.964 96.6771 157.562 97ZM160.172 97L159.203 96.3984C159.672 95.7161 159.914 94.9948 159.93 94.2344V93H161.594V94.0781C161.594 94.6146 161.456 95.1562 161.18 95.7031C160.909 96.2448 160.573 96.6771 160.172 97Z" fill="#5452F6"/>
<path d="M71.2344 62.0703C71.2344 61.5703 71.0573 61.1849 70.7031 60.9141C70.3542 60.6432 69.7214 60.3698 68.8047 60.0938C67.888 59.8177 67.1589 59.5104 66.6172 59.1719C65.5807 58.5208 65.0625 57.6719 65.0625 56.625C65.0625 55.7083 65.4349 54.9531 66.1797 54.3594C66.9297 53.7656 67.901 53.4688 69.0938 53.4688C69.8854 53.4688 70.5911 53.6146 71.2109 53.9062C71.8307 54.1979 72.3177 54.6146 72.6719 55.1562C73.026 55.6927 73.2031 56.2891 73.2031 56.9453H71.2344C71.2344 56.3516 71.0469 55.888 70.6719 55.5547C70.3021 55.2161 69.7708 55.0469 69.0781 55.0469C68.4323 55.0469 67.9297 55.1849 67.5703 55.4609C67.2161 55.737 67.0391 56.1224 67.0391 56.6172C67.0391 57.0339 67.2318 57.3828 67.6172 57.6641C68.0026 57.9401 68.638 58.2109 69.5234 58.4766C70.4089 58.737 71.1198 59.0365 71.6562 59.375C72.1927 59.7083 72.5859 60.0938 72.8359 60.5312C73.0859 60.9635 73.2109 61.4714 73.2109 62.0547C73.2109 63.0026 72.8464 63.7578 72.1172 64.3203C71.3932 64.8776 70.4089 65.1562 69.1641 65.1562C68.3411 65.1562 67.5833 65.0052 66.8906 64.7031C66.2031 64.3958 65.6667 63.974 65.2812 63.4375C64.901 62.901 64.7109 62.276 64.7109 61.5625H66.6875C66.6875 62.2083 66.901 62.7083 67.3281 63.0625C67.7552 63.4167 68.3672 63.5938 69.1641 63.5938C69.8516 63.5938 70.3672 63.4557 70.7109 63.1797C71.0599 62.8984 71.2344 62.5286 71.2344 62.0703ZM77.1406 54.4922V56.5469H78.6328V57.9531H77.1406V62.6719C77.1406 62.9948 77.2031 63.2292 77.3281 63.375C77.4583 63.5156 77.6875 63.5859 78.0156 63.5859C78.2344 63.5859 78.4557 63.5599 78.6797 63.5078V64.9766C78.2474 65.0964 77.8307 65.1562 77.4297 65.1562C75.9714 65.1562 75.2422 64.3516 75.2422 62.7422V57.9531H73.8516V56.5469H75.2422V54.4922H77.1406ZM84.5156 58.2812C84.2656 58.2396 84.0078 58.2188 83.7422 58.2188C82.8724 58.2188 82.2865 58.5521 81.9844 59.2188V65H80.0859V56.5469H81.8984L81.9453 57.4922C82.4036 56.7578 83.0391 56.3906 83.8516 56.3906C84.1224 56.3906 84.3464 56.4271 84.5234 56.5L84.5156 58.2812ZM87.7344 65H85.8359V56.5469H87.7344V65ZM85.7188 54.3516C85.7188 54.0599 85.8099 53.8177 85.9922 53.625C86.1797 53.4323 86.4453 53.3359 86.7891 53.3359C87.1328 53.3359 87.3984 53.4323 87.5859 53.625C87.7734 53.8177 87.8672 54.0599 87.8672 54.3516C87.8672 54.638 87.7734 54.8776 87.5859 55.0703C87.3984 55.2578 87.1328 55.3516 86.7891 55.3516C86.4453 55.3516 86.1797 55.2578 85.9922 55.0703C85.8099 54.8776 85.7188 54.638 85.7188 54.3516ZM91.5703 56.5469L91.625 57.5234C92.25 56.7682 93.0703 56.3906 94.0859 56.3906C95.8464 56.3906 96.7422 57.3984 96.7734 59.4141V65H94.875V59.5234C94.875 58.987 94.7578 58.5911 94.5234 58.3359C94.2943 58.0755 93.9167 57.9453 93.3906 57.9453C92.625 57.9453 92.0547 58.2917 91.6797 58.9844V65H89.7812V56.5469H91.5703ZM98.3828 60.7109C98.3828 59.3984 98.6901 58.3516 99.3047 57.5703C99.9245 56.7839 100.745 56.3906 101.766 56.3906C102.729 56.3906 103.487 56.7266 104.039 57.3984L104.125 56.5469H105.836V64.7422C105.836 65.8516 105.49 66.7266 104.797 67.3672C104.109 68.0078 103.18 68.3281 102.008 68.3281C101.388 68.3281 100.781 68.1979 100.188 67.9375C99.599 67.6823 99.151 67.3464 98.8438 66.9297L99.7422 65.7891C100.326 66.4818 101.044 66.8281 101.898 66.8281C102.529 66.8281 103.026 66.6562 103.391 66.3125C103.755 65.974 103.938 65.474 103.938 64.8125V64.2422C103.391 64.8516 102.661 65.1562 101.75 65.1562C100.76 65.1562 99.9505 64.763 99.3203 63.9766C98.6953 63.1901 98.3828 62.1016 98.3828 60.7109ZM100.273 60.875C100.273 61.724 100.445 62.3932 100.789 62.8828C101.138 63.3672 101.62 63.6094 102.234 63.6094C103 63.6094 103.568 63.2812 103.938 62.625V58.9062C103.578 58.2656 103.016 57.9453 102.25 57.9453C101.625 57.9453 101.138 58.1927 100.789 58.6875C100.445 59.1823 100.273 59.9115 100.273 60.875ZM113.078 52.7969L114.047 53.3984C113.573 54.0911 113.328 54.8125 113.312 55.5625V56.75H111.648V55.6719C111.654 55.1719 111.789 54.651 112.055 54.1094C112.326 53.5625 112.667 53.125 113.078 52.7969ZM115.703 52.7969L116.672 53.3984C116.198 54.0911 115.953 54.8125 115.938 55.5625V56.75H114.273V55.6719C114.279 55.1719 114.414 54.651 114.68 54.1094C114.951 53.5625 115.292 53.125 115.703 52.7969ZM127.039 62.1875L128.789 53.625H130.75L128.125 65H126.234L124.07 56.6953L121.859 65H119.961L117.336 53.625H119.297L121.062 62.1719L123.234 53.625H124.891L127.039 62.1875ZM131.406 60.6953C131.406 59.8672 131.57 59.1224 131.898 58.4609C132.227 57.7943 132.688 57.2839 133.281 56.9297C133.875 56.5703 134.557 56.3906 135.328 56.3906C136.469 56.3906 137.393 56.7578 138.102 57.4922C138.815 58.2266 139.201 59.2005 139.258 60.4141L139.266 60.8594C139.266 61.6927 139.104 62.4375 138.781 63.0938C138.464 63.75 138.005 64.2578 137.406 64.6172C136.812 64.9766 136.125 65.1562 135.344 65.1562C134.151 65.1562 133.195 64.7604 132.477 63.9688C131.763 63.1719 131.406 62.112 131.406 60.7891V60.6953ZM133.305 60.8594C133.305 61.7292 133.484 62.4115 133.844 62.9062C134.203 63.3958 134.703 63.6406 135.344 63.6406C135.984 63.6406 136.482 63.3906 136.836 62.8906C137.195 62.3906 137.375 61.6589 137.375 60.6953C137.375 59.8411 137.19 59.1641 136.82 58.6641C136.456 58.1641 135.958 57.9141 135.328 57.9141C134.708 57.9141 134.216 58.1615 133.852 58.6562C133.487 59.1458 133.305 59.8802 133.305 60.8594ZM145.297 58.2812C145.047 58.2396 144.789 58.2188 144.523 58.2188C143.654 58.2188 143.068 58.5521 142.766 59.2188V65H140.867V56.5469H142.68L142.727 57.4922C143.185 56.7578 143.82 56.3906 144.633 56.3906C144.904 56.3906 145.128 56.4271 145.305 56.5L145.297 58.2812ZM148.516 65H146.617V53H148.516V65ZM150.234 60.7109C150.234 59.4089 150.536 58.3646 151.141 57.5781C151.745 56.7865 152.555 56.3906 153.57 56.3906C154.466 56.3906 155.19 56.7031 155.742 57.3281V53H157.641V65H155.922L155.828 64.125C155.26 64.8125 154.503 65.1562 153.555 65.1562C152.565 65.1562 151.763 64.7578 151.148 63.9609C150.539 63.1641 150.234 62.0807 150.234 60.7109ZM152.133 60.875C152.133 61.7344 152.297 62.4062 152.625 62.8906C152.958 63.3698 153.43 63.6094 154.039 63.6094C154.815 63.6094 155.383 63.263 155.742 62.5703V58.9609C155.393 58.2839 154.831 57.9453 154.055 57.9453C153.44 57.9453 152.966 58.1901 152.633 58.6797C152.299 59.1641 152.133 59.8958 152.133 60.875ZM160.117 57L159.148 56.3984C159.617 55.7161 159.859 54.9948 159.875 54.2344V53H161.539V54.0781C161.539 54.6146 161.401 55.1562 161.125 55.7031C160.854 56.2448 160.518 56.6771 160.117 57ZM162.727 57L161.758 56.3984C162.227 55.7161 162.469 54.9948 162.484 54.2344V53H164.148V54.0781C164.148 54.6146 164.01 55.1562 163.734 55.7031C163.464 56.2448 163.128 56.6771 162.727 57Z" fill="#5452F6"/>
<path d="M103.141 20.1797H98.5625V25H96.5859V13.625H103.812V15.2188H98.5625V18.6016H103.141V20.1797ZM109.984 25C109.901 24.8385 109.828 24.5755 109.766 24.2109C109.161 24.8411 108.422 25.1562 107.547 25.1562C106.698 25.1562 106.005 24.9141 105.469 24.4297C104.932 23.9453 104.664 23.3464 104.664 22.6328C104.664 21.7318 104.997 21.0417 105.664 20.5625C106.336 20.0781 107.294 19.8359 108.539 19.8359H109.703V19.2812C109.703 18.8438 109.581 18.4948 109.336 18.2344C109.091 17.9688 108.719 17.8359 108.219 17.8359C107.786 17.8359 107.432 17.9453 107.156 18.1641C106.88 18.3776 106.742 18.651 106.742 18.9844H104.844C104.844 18.5208 104.997 18.0885 105.305 17.6875C105.612 17.2812 106.029 16.9635 106.555 16.7344C107.086 16.5052 107.677 16.3906 108.328 16.3906C109.318 16.3906 110.107 16.6406 110.695 17.1406C111.284 17.6354 111.586 18.3333 111.602 19.2344V23.0469C111.602 23.8073 111.708 24.4141 111.922 24.8672V25H109.984ZM107.898 23.6328C108.273 23.6328 108.625 23.5417 108.953 23.3594C109.286 23.1771 109.536 22.9323 109.703 22.625V21.0312H108.68C107.977 21.0312 107.448 21.1536 107.094 21.3984C106.74 21.6432 106.562 21.9896 106.562 22.4375C106.562 22.8021 106.682 23.0938 106.922 23.3125C107.167 23.526 107.492 23.6328 107.898 23.6328ZM115.609 25H113.711V13H115.609V25ZM122.422 22.7031C122.422 22.3646 122.281 22.1068 122 21.9297C121.724 21.7526 121.263 21.5964 120.617 21.4609C119.971 21.3255 119.432 21.1536 119 20.9453C118.052 20.487 117.578 19.8229 117.578 18.9531C117.578 18.224 117.885 17.6146 118.5 17.125C119.115 16.6354 119.896 16.3906 120.844 16.3906C121.854 16.3906 122.669 16.6406 123.289 17.1406C123.914 17.6406 124.227 18.2891 124.227 19.0859H122.328C122.328 18.7214 122.193 18.4193 121.922 18.1797C121.651 17.9349 121.292 17.8125 120.844 17.8125C120.427 17.8125 120.086 17.9089 119.82 18.1016C119.56 18.2943 119.43 18.5521 119.43 18.875C119.43 19.1667 119.552 19.3932 119.797 19.5547C120.042 19.7161 120.536 19.8802 121.281 20.0469C122.026 20.2083 122.609 20.4036 123.031 20.6328C123.458 20.8568 123.773 21.1276 123.977 21.4453C124.185 21.763 124.289 22.1484 124.289 22.6016C124.289 23.362 123.974 23.9792 123.344 24.4531C122.714 24.9219 121.888 25.1562 120.867 25.1562C120.174 25.1562 119.557 25.0312 119.016 24.7812C118.474 24.5312 118.052 24.1875 117.75 23.75C117.448 23.3125 117.297 22.8411 117.297 22.3359H119.141C119.167 22.7839 119.336 23.1302 119.648 23.375C119.961 23.6146 120.375 23.7344 120.891 23.7344C121.391 23.7344 121.771 23.6406 122.031 23.4531C122.292 23.2604 122.422 23.0104 122.422 22.7031ZM129.672 25.1562C128.469 25.1562 127.492 24.7786 126.742 24.0234C125.997 23.263 125.625 22.2526 125.625 20.9922V20.7578C125.625 19.9141 125.786 19.1615 126.109 18.5C126.438 17.8333 126.896 17.3151 127.484 16.9453C128.073 16.5755 128.729 16.3906 129.453 16.3906C130.604 16.3906 131.492 16.7578 132.117 17.4922C132.747 18.2266 133.062 19.2656 133.062 20.6094V21.375H127.539C127.596 22.0729 127.828 22.625 128.234 23.0312C128.646 23.4375 129.161 23.6406 129.781 23.6406C130.651 23.6406 131.359 23.2891 131.906 22.5859L132.93 23.5625C132.591 24.0677 132.138 24.4609 131.57 24.7422C131.008 25.0182 130.375 25.1562 129.672 25.1562ZM129.445 17.9141C128.924 17.9141 128.503 18.0964 128.18 18.4609C127.862 18.8255 127.659 19.3333 127.57 19.9844H131.188V19.8438C131.146 19.2083 130.977 18.7292 130.68 18.4062C130.383 18.0781 129.971 17.9141 129.445 17.9141Z" fill="#FF5A43"/>
<path d="M8 0.5H221C225.142 0.5 228.5 3.85787 228.5 8V119.5H0.5V8C0.5 3.85786 3.85786 0.5 8 0.5Z" stroke="#5452F6"/>
</g>
<g filter="url(#filter1_d)">
<path d="M0 119H229V135C229 139.418 225.418 143 221 143H8.00001C3.58173 143 0 139.418 0 135V119Z" fill="#EEEEFF"/>
<path d="M0.5 119.5H228.5V135C228.5 139.142 225.142 142.5 221 142.5H8.00001C3.85787 142.5 0.5 139.142 0.5 135V119.5Z" stroke="#5452F6"/>
</g>
<g filter="url(#filter2_d)">
<path d="M412 48C412 43.5817 415.582 40 420 40H633C637.418 40 641 43.5817 641 48V120H412V48Z" fill="white"/>
<path d="M420 40.5H633C637.142 40.5 640.5 43.8579 640.5 48V119.5H412.5V48C412.5 43.8579 415.858 40.5 420 40.5Z" stroke="#5452F6"/>
</g>
<g filter="url(#filter3_d)">
<path d="M412 119H641V135C641 139.418 637.418 143 633 143H420C415.582 143 412 139.418 412 135V119Z" fill="#EEEEFF"/>
<path d="M412.5 119.5H640.5V135C640.5 139.142 637.142 142.5 633 142.5H420C415.858 142.5 412.5 139.142 412.5 135V119.5Z" stroke="#5452F6"/>
</g>
<line x1="412.5" y1="79.5" x2="640.5" y2="79.5" stroke="#5452F6"/>
<path d="M483.234 102.07C483.234 101.57 483.057 101.185 482.703 100.914C482.354 100.643 481.721 100.37 480.805 100.094C479.888 99.8177 479.159 99.5104 478.617 99.1719C477.581 98.5208 477.062 97.6719 477.062 96.625C477.062 95.7083 477.435 94.9531 478.18 94.3594C478.93 93.7656 479.901 93.4688 481.094 93.4688C481.885 93.4688 482.591 93.6146 483.211 93.9062C483.831 94.1979 484.318 94.6146 484.672 95.1562C485.026 95.6927 485.203 96.2891 485.203 96.9453H483.234C483.234 96.3516 483.047 95.888 482.672 95.5547C482.302 95.2161 481.771 95.0469 481.078 95.0469C480.432 95.0469 479.93 95.1849 479.57 95.4609C479.216 95.737 479.039 96.1224 479.039 96.6172C479.039 97.0339 479.232 97.3828 479.617 97.6641C480.003 97.9401 480.638 98.2109 481.523 98.4766C482.409 98.737 483.12 99.0365 483.656 99.375C484.193 99.7083 484.586 100.094 484.836 100.531C485.086 100.964 485.211 101.471 485.211 102.055C485.211 103.003 484.846 103.758 484.117 104.32C483.393 104.878 482.409 105.156 481.164 105.156C480.341 105.156 479.583 105.005 478.891 104.703C478.203 104.396 477.667 103.974 477.281 103.438C476.901 102.901 476.711 102.276 476.711 101.562H478.688C478.688 102.208 478.901 102.708 479.328 103.062C479.755 103.417 480.367 103.594 481.164 103.594C481.852 103.594 482.367 103.456 482.711 103.18C483.06 102.898 483.234 102.529 483.234 102.07ZM489.141 94.4922V96.5469H490.633V97.9531H489.141V102.672C489.141 102.995 489.203 103.229 489.328 103.375C489.458 103.516 489.688 103.586 490.016 103.586C490.234 103.586 490.456 103.56 490.68 103.508V104.977C490.247 105.096 489.831 105.156 489.43 105.156C487.971 105.156 487.242 104.352 487.242 102.742V97.9531H485.852V96.5469H487.242V94.4922H489.141ZM496.516 98.2812C496.266 98.2396 496.008 98.2188 495.742 98.2188C494.872 98.2188 494.286 98.5521 493.984 99.2188V105H492.086V96.5469H493.898L493.945 97.4922C494.404 96.7578 495.039 96.3906 495.852 96.3906C496.122 96.3906 496.346 96.4271 496.523 96.5L496.516 98.2812ZM499.734 105H497.836V96.5469H499.734V105ZM497.719 94.3516C497.719 94.0599 497.81 93.8177 497.992 93.625C498.18 93.4323 498.445 93.3359 498.789 93.3359C499.133 93.3359 499.398 93.4323 499.586 93.625C499.773 93.8177 499.867 94.0599 499.867 94.3516C499.867 94.638 499.773 94.8776 499.586 95.0703C499.398 95.2578 499.133 95.3516 498.789 95.3516C498.445 95.3516 498.18 95.2578 497.992 95.0703C497.81 94.8776 497.719 94.638 497.719 94.3516ZM503.57 96.5469L503.625 97.5234C504.25 96.7682 505.07 96.3906 506.086 96.3906C507.846 96.3906 508.742 97.3984 508.773 99.4141V105H506.875V99.5234C506.875 98.987 506.758 98.5911 506.523 98.3359C506.294 98.0755 505.917 97.9453 505.391 97.9453C504.625 97.9453 504.055 98.2917 503.68 98.9844V105H501.781V96.5469H503.57ZM510.383 100.711C510.383 99.3984 510.69 98.3516 511.305 97.5703C511.924 96.7839 512.745 96.3906 513.766 96.3906C514.729 96.3906 515.487 96.7266 516.039 97.3984L516.125 96.5469H517.836V104.742C517.836 105.852 517.49 106.727 516.797 107.367C516.109 108.008 515.18 108.328 514.008 108.328C513.388 108.328 512.781 108.198 512.188 107.938C511.599 107.682 511.151 107.346 510.844 106.93L511.742 105.789C512.326 106.482 513.044 106.828 513.898 106.828C514.529 106.828 515.026 106.656 515.391 106.312C515.755 105.974 515.938 105.474 515.938 104.812V104.242C515.391 104.852 514.661 105.156 513.75 105.156C512.76 105.156 511.951 104.763 511.32 103.977C510.695 103.19 510.383 102.102 510.383 100.711ZM512.273 100.875C512.273 101.724 512.445 102.393 512.789 102.883C513.138 103.367 513.62 103.609 514.234 103.609C515 103.609 515.568 103.281 515.938 102.625V98.9062C515.578 98.2656 515.016 97.9453 514.25 97.9453C513.625 97.9453 513.138 98.1927 512.789 98.6875C512.445 99.1823 512.273 99.9115 512.273 100.875ZM525.078 92.7969L526.047 93.3984C525.573 94.0911 525.328 94.8125 525.312 95.5625V96.75H523.648V95.6719C523.654 95.1719 523.789 94.651 524.055 94.1094C524.326 93.5625 524.667 93.125 525.078 92.7969ZM527.703 92.7969L528.672 93.3984C528.198 94.0911 527.953 94.8125 527.938 95.5625V96.75H526.273V95.6719C526.279 95.1719 526.414 94.651 526.68 94.1094C526.951 93.5625 527.292 93.125 527.703 92.7969ZM539.039 102.188L540.789 93.625H542.75L540.125 105H538.234L536.07 96.6953L533.859 105H531.961L529.336 93.625H531.297L533.062 102.172L535.234 93.625H536.891L539.039 102.188ZM543.406 100.695C543.406 99.8672 543.57 99.1224 543.898 98.4609C544.227 97.7943 544.688 97.2839 545.281 96.9297C545.875 96.5703 546.557 96.3906 547.328 96.3906C548.469 96.3906 549.393 96.7578 550.102 97.4922C550.815 98.2266 551.201 99.2005 551.258 100.414L551.266 100.859C551.266 101.693 551.104 102.438 550.781 103.094C550.464 103.75 550.005 104.258 549.406 104.617C548.812 104.977 548.125 105.156 547.344 105.156C546.151 105.156 545.195 104.76 544.477 103.969C543.763 103.172 543.406 102.112 543.406 100.789V100.695ZM545.305 100.859C545.305 101.729 545.484 102.411 545.844 102.906C546.203 103.396 546.703 103.641 547.344 103.641C547.984 103.641 548.482 103.391 548.836 102.891C549.195 102.391 549.375 101.659 549.375 100.695C549.375 99.8411 549.19 99.1641 548.82 98.6641C548.456 98.1641 547.958 97.9141 547.328 97.9141C546.708 97.9141 546.216 98.1615 545.852 98.6562C545.487 99.1458 545.305 99.8802 545.305 100.859ZM557.297 98.2812C557.047 98.2396 556.789 98.2188 556.523 98.2188C555.654 98.2188 555.068 98.5521 554.766 99.2188V105H552.867V96.5469H554.68L554.727 97.4922C555.185 96.7578 555.82 96.3906 556.633 96.3906C556.904 96.3906 557.128 96.4271 557.305 96.5L557.297 98.2812ZM560.516 105H558.617V93H560.516V105ZM562.234 100.711C562.234 99.4089 562.536 98.3646 563.141 97.5781C563.745 96.7865 564.555 96.3906 565.57 96.3906C566.466 96.3906 567.19 96.7031 567.742 97.3281V93H569.641V105H567.922L567.828 104.125C567.26 104.812 566.503 105.156 565.555 105.156C564.565 105.156 563.763 104.758 563.148 103.961C562.539 103.164 562.234 102.081 562.234 100.711ZM564.133 100.875C564.133 101.734 564.297 102.406 564.625 102.891C564.958 103.37 565.43 103.609 566.039 103.609C566.815 103.609 567.383 103.263 567.742 102.57V98.9609C567.393 98.2839 566.831 97.9453 566.055 97.9453C565.44 97.9453 564.966 98.1901 564.633 98.6797C564.299 99.1641 564.133 99.8958 564.133 100.875ZM572.117 97L571.148 96.3984C571.617 95.7161 571.859 94.9948 571.875 94.2344V93H573.539V94.0781C573.539 94.6146 573.401 95.1562 573.125 95.7031C572.854 96.2448 572.518 96.6771 572.117 97ZM574.727 97L573.758 96.3984C574.227 95.7161 574.469 94.9948 574.484 94.2344V93H576.148V94.0781C576.148 94.6146 576.01 95.1562 575.734 95.7031C575.464 96.2448 575.128 96.6771 574.727 97Z" fill="#5452F6"/>
<path d="M485.789 62.0703C485.789 61.5703 485.612 61.1849 485.258 60.9141C484.909 60.6432 484.276 60.3698 483.359 60.0938C482.443 59.8177 481.714 59.5104 481.172 59.1719C480.135 58.5208 479.617 57.6719 479.617 56.625C479.617 55.7083 479.99 54.9531 480.734 54.3594C481.484 53.7656 482.456 53.4688 483.648 53.4688C484.44 53.4688 485.146 53.6146 485.766 53.9062C486.385 54.1979 486.872 54.6146 487.227 55.1562C487.581 55.6927 487.758 56.2891 487.758 56.9453H485.789C485.789 56.3516 485.602 55.888 485.227 55.5547C484.857 55.2161 484.326 55.0469 483.633 55.0469C482.987 55.0469 482.484 55.1849 482.125 55.4609C481.771 55.737 481.594 56.1224 481.594 56.6172C481.594 57.0339 481.786 57.3828 482.172 57.6641C482.557 57.9401 483.193 58.2109 484.078 58.4766C484.964 58.737 485.674 59.0365 486.211 59.375C486.747 59.7083 487.141 60.0938 487.391 60.5312C487.641 60.9635 487.766 61.4714 487.766 62.0547C487.766 63.0026 487.401 63.7578 486.672 64.3203C485.948 64.8776 484.964 65.1562 483.719 65.1562C482.896 65.1562 482.138 65.0052 481.445 64.7031C480.758 64.3958 480.221 63.974 479.836 63.4375C479.456 62.901 479.266 62.276 479.266 61.5625H481.242C481.242 62.2083 481.456 62.7083 481.883 63.0625C482.31 63.4167 482.922 63.5938 483.719 63.5938C484.406 63.5938 484.922 63.4557 485.266 63.1797C485.615 62.8984 485.789 62.5286 485.789 62.0703ZM491.695 54.4922V56.5469H493.188V57.9531H491.695V62.6719C491.695 62.9948 491.758 63.2292 491.883 63.375C492.013 63.5156 492.242 63.5859 492.57 63.5859C492.789 63.5859 493.01 63.5599 493.234 63.5078V64.9766C492.802 65.0964 492.385 65.1562 491.984 65.1562C490.526 65.1562 489.797 64.3516 489.797 62.7422V57.9531H488.406V56.5469H489.797V54.4922H491.695ZM499.07 58.2812C498.82 58.2396 498.562 58.2188 498.297 58.2188C497.427 58.2188 496.841 58.5521 496.539 59.2188V65H494.641V56.5469H496.453L496.5 57.4922C496.958 56.7578 497.594 56.3906 498.406 56.3906C498.677 56.3906 498.901 56.4271 499.078 56.5L499.07 58.2812ZM502.289 65H500.391V56.5469H502.289V65ZM500.273 54.3516C500.273 54.0599 500.365 53.8177 500.547 53.625C500.734 53.4323 501 53.3359 501.344 53.3359C501.688 53.3359 501.953 53.4323 502.141 53.625C502.328 53.8177 502.422 54.0599 502.422 54.3516C502.422 54.638 502.328 54.8776 502.141 55.0703C501.953 55.2578 501.688 55.3516 501.344 55.3516C501 55.3516 500.734 55.2578 500.547 55.0703C500.365 54.8776 500.273 54.638 500.273 54.3516ZM506.125 56.5469L506.18 57.5234C506.805 56.7682 507.625 56.3906 508.641 56.3906C510.401 56.3906 511.297 57.3984 511.328 59.4141V65H509.43V59.5234C509.43 58.987 509.312 58.5911 509.078 58.3359C508.849 58.0755 508.471 57.9453 507.945 57.9453C507.18 57.9453 506.609 58.2917 506.234 58.9844V65H504.336V56.5469H506.125ZM512.938 60.7109C512.938 59.3984 513.245 58.3516 513.859 57.5703C514.479 56.7839 515.299 56.3906 516.32 56.3906C517.284 56.3906 518.042 56.7266 518.594 57.3984L518.68 56.5469H520.391V64.7422C520.391 65.8516 520.044 66.7266 519.352 67.3672C518.664 68.0078 517.734 68.3281 516.562 68.3281C515.943 68.3281 515.336 68.1979 514.742 67.9375C514.154 67.6823 513.706 67.3464 513.398 66.9297L514.297 65.7891C514.88 66.4818 515.599 66.8281 516.453 66.8281C517.083 66.8281 517.581 66.6562 517.945 66.3125C518.31 65.974 518.492 65.474 518.492 64.8125V64.2422C517.945 64.8516 517.216 65.1562 516.305 65.1562C515.315 65.1562 514.505 64.763 513.875 63.9766C513.25 63.1901 512.938 62.1016 512.938 60.7109ZM514.828 60.875C514.828 61.724 515 62.3932 515.344 62.8828C515.693 63.3672 516.174 63.6094 516.789 63.6094C517.555 63.6094 518.122 63.2812 518.492 62.625V58.9062C518.133 58.2656 517.57 57.9453 516.805 57.9453C516.18 57.9453 515.693 58.1927 515.344 58.6875C515 59.1823 514.828 59.9115 514.828 60.875ZM527.633 52.7969L528.602 53.3984C528.128 54.0911 527.883 54.8125 527.867 55.5625V56.75H526.203V55.6719C526.208 55.1719 526.344 54.651 526.609 54.1094C526.88 53.5625 527.221 53.125 527.633 52.7969ZM530.258 52.7969L531.227 53.3984C530.753 54.0911 530.508 54.8125 530.492 55.5625V56.75H528.828V55.6719C528.833 55.1719 528.969 54.651 529.234 54.1094C529.505 53.5625 529.846 53.125 530.258 52.7969ZM541.703 65H539.734V59.9453H534.648V65H532.672V53.625H534.648V58.3594H539.734V53.625H541.703V65ZM547.586 65.1562C546.383 65.1562 545.406 64.7786 544.656 64.0234C543.911 63.263 543.539 62.2526 543.539 60.9922V60.7578C543.539 59.9141 543.701 59.1615 544.023 58.5C544.352 57.8333 544.81 57.3151 545.398 56.9453C545.987 56.5755 546.643 56.3906 547.367 56.3906C548.518 56.3906 549.406 56.7578 550.031 57.4922C550.661 58.2266 550.977 59.2656 550.977 60.6094V61.375H545.453C545.51 62.0729 545.742 62.625 546.148 63.0312C546.56 63.4375 547.076 63.6406 547.695 63.6406C548.565 63.6406 549.273 63.2891 549.82 62.5859L550.844 63.5625C550.505 64.0677 550.052 64.4609 549.484 64.7422C548.922 65.0182 548.289 65.1562 547.586 65.1562ZM547.359 57.9141C546.839 57.9141 546.417 58.0964 546.094 58.4609C545.776 58.8255 545.573 59.3333 545.484 59.9844H549.102V59.8438C549.06 59.2083 548.891 58.7292 548.594 58.4062C548.297 58.0781 547.885 57.9141 547.359 57.9141ZM554.477 65H552.578V53H554.477V65ZM558.57 65H556.672V53H558.57V65ZM560.289 60.6953C560.289 59.8672 560.453 59.1224 560.781 58.4609C561.109 57.7943 561.57 57.2839 562.164 56.9297C562.758 56.5703 563.44 56.3906 564.211 56.3906C565.352 56.3906 566.276 56.7578 566.984 57.4922C567.698 58.2266 568.083 59.2005 568.141 60.4141L568.148 60.8594C568.148 61.6927 567.987 62.4375 567.664 63.0938C567.346 63.75 566.888 64.2578 566.289 64.6172C565.695 64.9766 565.008 65.1562 564.227 65.1562C563.034 65.1562 562.078 64.7604 561.359 63.9688C560.646 63.1719 560.289 62.112 560.289 60.7891V60.6953ZM562.188 60.8594C562.188 61.7292 562.367 62.4115 562.727 62.9062C563.086 63.3958 563.586 63.6406 564.227 63.6406C564.867 63.6406 565.365 63.3906 565.719 62.8906C566.078 62.3906 566.258 61.6589 566.258 60.6953C566.258 59.8411 566.073 59.1641 565.703 58.6641C565.339 58.1641 564.841 57.9141 564.211 57.9141C563.591 57.9141 563.099 58.1615 562.734 58.6562C562.37 59.1458 562.188 59.8802 562.188 60.8594ZM569.562 57L568.594 56.3984C569.062 55.7161 569.305 54.9948 569.32 54.2344V53H570.984V54.0781C570.984 54.6146 570.846 55.1562 570.57 55.7031C570.299 56.2448 569.964 56.6771 569.562 57ZM572.172 57L571.203 56.3984C571.672 55.7161 571.914 54.9948 571.93 54.2344V53H573.594V54.0781C573.594 54.6146 573.456 55.1562 573.18 55.7031C572.909 56.2448 572.573 56.6771 572.172 57Z" fill="#FF5A43"/>
<circle cx="253.5" cy="122" r="5.5" stroke="#65BF73" stroke-width="2"/>
<line x1="258" y1="121.5" x2="392" y2="121.5" stroke="#65BF73" stroke-width="2"/>
<path d="M382 112L392.5 121.5L382 130.5" stroke="#65BF73" stroke-width="2" stroke-linecap="round" stroke-linejoin="round"/>
<path d="M254.68 107H252.711V95.625H254.68V107ZM263.664 102.18H259.086V107H257.109V95.625H264.336V97.2188H259.086V100.602H263.664V102.18ZM273.492 109.812C271.654 109.297 270.716 108.122 270.68 106.289V104.625C270.68 103.453 270.177 102.867 269.172 102.867V101.477C270.177 101.477 270.68 100.888 270.68 99.7109V98.0547C270.695 97.1172 270.938 96.3594 271.406 95.7812C271.88 95.2031 272.576 94.7839 273.492 94.5234L273.867 95.6172C272.966 95.9089 272.5 96.7057 272.469 98.0078V99.6953C272.469 100.867 272.018 101.69 271.117 102.164C272.018 102.643 272.469 103.474 272.469 104.656V106.32C272.5 107.622 272.966 108.419 273.867 108.711L273.492 109.812ZM285.805 102.18H281.227V107H279.25V95.625H286.477V97.2188H281.227V100.602H285.805V102.18ZM292.914 104.352H288.508L287.586 107H285.531L289.828 95.625H291.602L295.906 107H293.844L292.914 104.352ZM289.062 102.758H292.359L290.711 98.0391L289.062 102.758ZM299.289 107H297.32V95.625H299.289V107ZM303.695 105.422H308.859V107H301.719V95.625H303.695V105.422ZM313.414 108.711C314.331 108.414 314.799 107.602 314.82 106.273V104.648C314.82 103.445 315.294 102.62 316.242 102.172C315.294 101.724 314.82 100.891 314.82 99.6719V98.0547C314.799 96.7266 314.331 95.9141 313.414 95.6172L313.789 94.5234C314.737 94.7891 315.443 95.2214 315.906 95.8203C316.37 96.4141 316.602 97.1927 316.602 98.1562V99.7188C316.602 100.891 317.107 101.477 318.117 101.477V102.867C317.107 102.867 316.602 103.453 316.602 104.625V106.164C316.602 107.138 316.367 107.922 315.898 108.516C315.435 109.115 314.732 109.547 313.789 109.812L313.414 108.711ZM327.32 109.812C325.482 109.297 324.544 108.122 324.508 106.289V104.625C324.508 103.453 324.005 102.867 323 102.867V101.477C324.005 101.477 324.508 100.888 324.508 99.7109V98.0547C324.523 97.1172 324.766 96.3594 325.234 95.7812C325.708 95.2031 326.404 94.7839 327.32 94.5234L327.695 95.6172C326.794 95.9089 326.328 96.7057 326.297 98.0078V99.6953C326.297 100.867 325.846 101.69 324.945 102.164C325.846 102.643 326.297 103.474 326.297 104.656V106.32C326.328 107.622 326.794 108.419 327.695 108.711L327.32 109.812ZM339.023 104.07C339.023 103.57 338.846 103.185 338.492 102.914C338.143 102.643 337.51 102.37 336.594 102.094C335.677 101.818 334.948 101.51 334.406 101.172C333.37 100.521 332.852 99.6719 332.852 98.625C332.852 97.7083 333.224 96.9531 333.969 96.3594C334.719 95.7656 335.69 95.4688 336.883 95.4688C337.674 95.4688 338.38 95.6146 339 95.9062C339.62 96.1979 340.107 96.6146 340.461 97.1562C340.815 97.6927 340.992 98.2891 340.992 98.9453H339.023C339.023 98.3516 338.836 97.888 338.461 97.5547C338.091 97.2161 337.56 97.0469 336.867 97.0469C336.221 97.0469 335.719 97.1849 335.359 97.4609C335.005 97.737 334.828 98.1224 334.828 98.6172C334.828 99.0339 335.021 99.3828 335.406 99.6641C335.792 99.9401 336.427 100.211 337.312 100.477C338.198 100.737 338.909 101.036 339.445 101.375C339.982 101.708 340.375 102.094 340.625 102.531C340.875 102.964 341 103.471 341 104.055C341 105.003 340.635 105.758 339.906 106.32C339.182 106.878 338.198 107.156 336.953 107.156C336.13 107.156 335.372 107.005 334.68 106.703C333.992 106.396 333.456 105.974 333.07 105.438C332.69 104.901 332.5 104.276 332.5 103.562H334.477C334.477 104.208 334.69 104.708 335.117 105.062C335.544 105.417 336.156 105.594 336.953 105.594C337.641 105.594 338.156 105.456 338.5 105.18C338.849 104.898 339.023 104.529 339.023 104.07ZM351.656 104.188L353.406 95.625H355.367L352.742 107H350.852L348.688 98.6953L346.477 107H344.578L341.953 95.625H343.914L345.68 104.172L347.852 95.625H349.508L351.656 104.188ZM362.836 104.352H358.43L357.508 107H355.453L359.75 95.625H361.523L365.828 107H363.766L362.836 104.352ZM358.984 102.758H362.281L360.633 98.0391L358.984 102.758ZM369.102 102.773V107H367.125V95.625H371.477C372.747 95.625 373.755 95.9557 374.5 96.6172C375.25 97.2786 375.625 98.1536 375.625 99.2422C375.625 100.357 375.258 101.224 374.523 101.844C373.794 102.464 372.771 102.773 371.453 102.773H369.102ZM369.102 101.188H371.477C372.18 101.188 372.716 101.023 373.086 100.695C373.456 100.362 373.641 99.8828 373.641 99.2578C373.641 98.6432 373.453 98.1536 373.078 97.7891C372.703 97.4193 372.188 97.2292 371.531 97.2188H369.102V101.188ZM380.398 108.711C381.315 108.414 381.784 107.602 381.805 106.273V104.648C381.805 103.445 382.279 102.62 383.227 102.172C382.279 101.724 381.805 100.891 381.805 99.6719V98.0547C381.784 96.7266 381.315 95.9141 380.398 95.6172L380.773 94.5234C381.721 94.7891 382.427 95.2214 382.891 95.8203C383.354 96.4141 383.586 97.1927 383.586 98.1562V99.7188C383.586 100.891 384.091 101.477 385.102 101.477V102.867C384.091 102.867 383.586 103.453 383.586 104.625V106.164C383.586 107.138 383.352 107.922 382.883 108.516C382.419 109.115 381.716 109.547 380.773 109.812L380.398 108.711Z" fill="#65BF73"/>
<defs>
<filter id="filter0_d" x="0" y="0" width="233" height="124" filterUnits="userSpaceOnUse" color-interpolation-filters="sRGB">
<feFlood flood-opacity="0" result="BackgroundImageFix"/>
<feColorMatrix in="SourceAlpha" type="matrix" values="0 0 0 0 0 0 0 0 0 0 0 0 0 0 0 0 0 0 127 0"/>
<feOffset dx="4" dy="4"/>
<feColorMatrix type="matrix" values="0 0 0 0 0.674908 0 0 0 0 0.662083 0 0 0 0 0.945833 0 0 0 1 0"/>
<feBlend mode="normal" in2="BackgroundImageFix" result="effect1_dropShadow"/>
<feBlend mode="normal" in="SourceGraphic" in2="effect1_dropShadow" result="shape"/>
</filter>
<filter id="filter1_d" x="0" y="119" width="233" height="28" filterUnits="userSpaceOnUse" color-interpolation-filters="sRGB">
<feFlood flood-opacity="0" result="BackgroundImageFix"/>
<feColorMatrix in="SourceAlpha" type="matrix" values="0 0 0 0 0 0 0 0 0 0 0 0 0 0 0 0 0 0 127 0"/>
<feOffset dx="4" dy="4"/>
<feColorMatrix type="matrix" values="0 0 0 0 0.674908 0 0 0 0 0.662083 0 0 0 0 0.945833 0 0 0 1 0"/>
<feBlend mode="normal" in2="BackgroundImageFix" result="effect1_dropShadow"/>
<feBlend mode="normal" in="SourceGraphic" in2="effect1_dropShadow" result="shape"/>
</filter>
<filter id="filter2_d" x="412" y="40" width="233" height="84" filterUnits="userSpaceOnUse" color-interpolation-filters="sRGB">
<feFlood flood-opacity="0" result="BackgroundImageFix"/>
<feColorMatrix in="SourceAlpha" type="matrix" values="0 0 0 0 0 0 0 0 0 0 0 0 0 0 0 0 0 0 127 0"/>
<feOffset dx="4" dy="4"/>
<feColorMatrix type="matrix" values="0 0 0 0 0.674908 0 0 0 0 0.662083 0 0 0 0 0.945833 0 0 0 1 0"/>
<feBlend mode="normal" in2="BackgroundImageFix" result="effect1_dropShadow"/>
<feBlend mode="normal" in="SourceGraphic" in2="effect1_dropShadow" result="shape"/>
</filter>
<filter id="filter3_d" x="412" y="119" width="233" height="28" filterUnits="userSpaceOnUse" color-interpolation-filters="sRGB">
<feFlood flood-opacity="0" result="BackgroundImageFix"/>
<feColorMatrix in="SourceAlpha" type="matrix" values="0 0 0 0 0 0 0 0 0 0 0 0 0 0 0 0 0 0 127 0"/>
<feOffset dx="4" dy="4"/>
<feColorMatrix type="matrix" values="0 0 0 0 0.674908 0 0 0 0 0.662083 0 0 0 0 0.945833 0 0 0 1 0"/>
<feBlend mode="normal" in2="BackgroundImageFix" result="effect1_dropShadow"/>
<feBlend mode="normal" in="SourceGraphic" in2="effect1_dropShadow" result="shape"/>
</filter>
</defs>
</svg>
