<svg width="633" height="147" viewBox="0 0 633 147" fill="none" xmlns="http://www.w3.org/2000/svg">
<line x1="253" y1="120.5" x2="387" y2="120.5" stroke="#65BF73" stroke-width="2"/>
<path d="M377 111L387.5 120.5L377 129.5" stroke="#65BF73" stroke-width="2" stroke-linecap="round" stroke-linejoin="round"/>
<circle cx="248.5" cy="121" r="5.5" stroke="#65BF73" stroke-width="2"/>
<path d="M304.789 103.352H300.383L299.461 106H297.406L301.703 94.625H303.477L307.781 106H305.719L304.789 103.352ZM300.938 101.758H304.234L302.586 97.0391L300.938 101.758ZM318.102 106H316.125L311.055 97.9297V106H309.078V94.625H311.055L316.141 102.727V94.625H318.102V106ZM320.438 106V94.625H323.797C324.802 94.625 325.693 94.849 326.469 95.2969C327.25 95.7448 327.854 96.3802 328.281 97.2031C328.708 98.026 328.922 98.9688 328.922 100.031V100.602C328.922 101.68 328.706 102.628 328.273 103.445C327.846 104.263 327.234 104.893 326.438 105.336C325.646 105.779 324.737 106 323.711 106H320.438ZM322.414 96.2188V104.422H323.703C324.74 104.422 325.534 104.099 326.086 103.453C326.643 102.802 326.927 101.87 326.938 100.656V100.023C326.938 98.7891 326.669 97.8464 326.133 97.1953C325.596 96.5443 324.818 96.2188 323.797 96.2188H322.414Z" fill="#65BF73"/>
<g filter="url(#filter0_d)">
<path d="M0 8C0 3.58172 3.58172 0 8 0H221C225.418 0 229 3.58172 229 8V120H0V8Z" fill="white"/>
<line x1="0.5" y1="79.5" x2="228.5" y2="79.5" stroke="#5452F6"/>
<line x1="0.5" y1="39.5" x2="228.5" y2="39.5" stroke="#5452F6"/>
<path d="M73.7891 102.07C73.7891 101.57 73.612 101.185 73.2578 100.914C72.9089 100.643 72.276 100.37 71.3594 100.094C70.4427 99.8177 69.7135 99.5104 69.1719 99.1719C68.1354 98.5208 67.6172 97.6719 67.6172 96.625C67.6172 95.7083 67.9896 94.9531 68.7344 94.3594C69.4844 93.7656 70.4557 93.4688 71.6484 93.4688C72.4401 93.4688 73.1458 93.6146 73.7656 93.9062C74.3854 94.1979 74.8724 94.6146 75.2266 95.1562C75.5807 95.6927 75.7578 96.2891 75.7578 96.9453H73.7891C73.7891 96.3516 73.6016 95.888 73.2266 95.5547C72.8568 95.2161 72.3255 95.0469 71.6328 95.0469C70.987 95.0469 70.4844 95.1849 70.125 95.4609C69.7708 95.737 69.5938 96.1224 69.5938 96.6172C69.5938 97.0339 69.7865 97.3828 70.1719 97.6641C70.5573 97.9401 71.1927 98.2109 72.0781 98.4766C72.9635 98.737 73.6745 99.0365 74.2109 99.375C74.7474 99.7083 75.1406 100.094 75.3906 100.531C75.6406 100.964 75.7656 101.471 75.7656 102.055C75.7656 103.003 75.401 103.758 74.6719 104.32C73.9479 104.878 72.9635 105.156 71.7188 105.156C70.8958 105.156 70.138 105.005 69.4453 104.703C68.7578 104.396 68.2214 103.974 67.8359 103.438C67.4557 102.901 67.2656 102.276 67.2656 101.562H69.2422C69.2422 102.208 69.4557 102.708 69.8828 103.062C70.3099 103.417 70.9219 103.594 71.7188 103.594C72.4062 103.594 72.9219 103.456 73.2656 103.18C73.6146 102.898 73.7891 102.529 73.7891 102.07ZM79.6953 94.4922V96.5469H81.1875V97.9531H79.6953V102.672C79.6953 102.995 79.7578 103.229 79.8828 103.375C80.013 103.516 80.2422 103.586 80.5703 103.586C80.7891 103.586 81.0104 103.56 81.2344 103.508V104.977C80.8021 105.096 80.3854 105.156 79.9844 105.156C78.526 105.156 77.7969 104.352 77.7969 102.742V97.9531H76.4062V96.5469H77.7969V94.4922H79.6953ZM87.0703 98.2812C86.8203 98.2396 86.5625 98.2188 86.2969 98.2188C85.4271 98.2188 84.8411 98.5521 84.5391 99.2188V105H82.6406V96.5469H84.4531L84.5 97.4922C84.9583 96.7578 85.5938 96.3906 86.4062 96.3906C86.6771 96.3906 86.901 96.4271 87.0781 96.5L87.0703 98.2812ZM90.2891 105H88.3906V96.5469H90.2891V105ZM88.2734 94.3516C88.2734 94.0599 88.3646 93.8177 88.5469 93.625C88.7344 93.4323 89 93.3359 89.3438 93.3359C89.6875 93.3359 89.9531 93.4323 90.1406 93.625C90.3281 93.8177 90.4219 94.0599 90.4219 94.3516C90.4219 94.638 90.3281 94.8776 90.1406 95.0703C89.9531 95.2578 89.6875 95.3516 89.3438 95.3516C89 95.3516 88.7344 95.2578 88.5469 95.0703C88.3646 94.8776 88.2734 94.638 88.2734 94.3516ZM94.125 96.5469L94.1797 97.5234C94.8047 96.7682 95.625 96.3906 96.6406 96.3906C98.401 96.3906 99.2969 97.3984 99.3281 99.4141V105H97.4297V99.5234C97.4297 98.987 97.3125 98.5911 97.0781 98.3359C96.849 98.0755 96.4714 97.9453 95.9453 97.9453C95.1797 97.9453 94.6094 98.2917 94.2344 98.9844V105H92.3359V96.5469H94.125ZM100.938 100.711C100.938 99.3984 101.245 98.3516 101.859 97.5703C102.479 96.7839 103.299 96.3906 104.32 96.3906C105.284 96.3906 106.042 96.7266 106.594 97.3984L106.68 96.5469H108.391V104.742C108.391 105.852 108.044 106.727 107.352 107.367C106.664 108.008 105.734 108.328 104.562 108.328C103.943 108.328 103.336 108.198 102.742 107.938C102.154 107.682 101.706 107.346 101.398 106.93L102.297 105.789C102.88 106.482 103.599 106.828 104.453 106.828C105.083 106.828 105.581 106.656 105.945 106.312C106.31 105.974 106.492 105.474 106.492 104.812V104.242C105.945 104.852 105.216 105.156 104.305 105.156C103.315 105.156 102.505 104.763 101.875 103.977C101.25 103.19 100.938 102.102 100.938 100.711ZM102.828 100.875C102.828 101.724 103 102.393 103.344 102.883C103.693 103.367 104.174 103.609 104.789 103.609C105.555 103.609 106.122 103.281 106.492 102.625V98.9062C106.133 98.2656 105.57 97.9453 104.805 97.9453C104.18 97.9453 103.693 98.1927 103.344 98.6875C103 99.1823 102.828 99.9115 102.828 100.875ZM115.633 92.7969L116.602 93.3984C116.128 94.0911 115.883 94.8125 115.867 95.5625V96.75H114.203V95.6719C114.208 95.1719 114.344 94.651 114.609 94.1094C114.88 93.5625 115.221 93.125 115.633 92.7969ZM118.258 92.7969L119.227 93.3984C118.753 94.0911 118.508 94.8125 118.492 95.5625V96.75H116.828V95.6719C116.833 95.1719 116.969 94.651 117.234 94.1094C117.505 93.5625 117.846 93.125 118.258 92.7969ZM129.703 105H127.734V99.9453H122.648V105H120.672V93.625H122.648V98.3594H127.734V93.625H129.703V105ZM135.586 105.156C134.383 105.156 133.406 104.779 132.656 104.023C131.911 103.263 131.539 102.253 131.539 100.992V100.758C131.539 99.9141 131.701 99.1615 132.023 98.5C132.352 97.8333 132.81 97.3151 133.398 96.9453C133.987 96.5755 134.643 96.3906 135.367 96.3906C136.518 96.3906 137.406 96.7578 138.031 97.4922C138.661 98.2266 138.977 99.2656 138.977 100.609V101.375H133.453C133.51 102.073 133.742 102.625 134.148 103.031C134.56 103.438 135.076 103.641 135.695 103.641C136.565 103.641 137.273 103.289 137.82 102.586L138.844 103.562C138.505 104.068 138.052 104.461 137.484 104.742C136.922 105.018 136.289 105.156 135.586 105.156ZM135.359 97.9141C134.839 97.9141 134.417 98.0964 134.094 98.4609C133.776 98.8255 133.573 99.3333 133.484 99.9844H137.102V99.8438C137.06 99.2083 136.891 98.7292 136.594 98.4062C136.297 98.0781 135.885 97.9141 135.359 97.9141ZM142.477 105H140.578V93H142.477V105ZM146.57 105H144.672V93H146.57V105ZM148.289 100.695C148.289 99.8672 148.453 99.1224 148.781 98.4609C149.109 97.7943 149.57 97.2839 150.164 96.9297C150.758 96.5703 151.44 96.3906 152.211 96.3906C153.352 96.3906 154.276 96.7578 154.984 97.4922C155.698 98.2266 156.083 99.2005 156.141 100.414L156.148 100.859C156.148 101.693 155.987 102.438 155.664 103.094C155.346 103.75 154.888 104.258 154.289 104.617C153.695 104.977 153.008 105.156 152.227 105.156C151.034 105.156 150.078 104.76 149.359 103.969C148.646 103.172 148.289 102.112 148.289 100.789V100.695ZM150.188 100.859C150.188 101.729 150.367 102.411 150.727 102.906C151.086 103.396 151.586 103.641 152.227 103.641C152.867 103.641 153.365 103.391 153.719 102.891C154.078 102.391 154.258 101.659 154.258 100.695C154.258 99.8411 154.073 99.1641 153.703 98.6641C153.339 98.1641 152.841 97.9141 152.211 97.9141C151.591 97.9141 151.099 98.1615 150.734 98.6562C150.37 99.1458 150.188 99.8802 150.188 100.859ZM157.562 97L156.594 96.3984C157.062 95.7161 157.305 94.9948 157.32 94.2344V93H158.984V94.0781C158.984 94.6146 158.846 95.1562 158.57 95.7031C158.299 96.2448 157.964 96.6771 157.562 97ZM160.172 97L159.203 96.3984C159.672 95.7161 159.914 94.9948 159.93 94.2344V93H161.594V94.0781C161.594 94.6146 161.456 95.1562 161.18 95.7031C160.909 96.2448 160.573 96.6771 160.172 97Z" fill="#5452F6"/>
<path d="M107.719 55.2188H104.172V65H102.211V55.2188H98.6953V53.625H107.719V55.2188ZM112.945 58.2812C112.695 58.2396 112.438 58.2188 112.172 58.2188C111.302 58.2188 110.716 58.5521 110.414 59.2188V65H108.516V56.5469H110.328L110.375 57.4922C110.833 56.7578 111.469 56.3906 112.281 56.3906C112.552 56.3906 112.776 56.4271 112.953 56.5L112.945 58.2812ZM119.266 64.1719C118.708 64.8281 117.917 65.1562 116.891 65.1562C115.974 65.1562 115.279 64.888 114.805 64.3516C114.336 63.8151 114.102 63.0391 114.102 62.0234V56.5469H116V62C116 63.0729 116.445 63.6094 117.336 63.6094C118.258 63.6094 118.88 63.2786 119.203 62.6172V56.5469H121.102V65H119.312L119.266 64.1719ZM126.758 65.1562C125.555 65.1562 124.578 64.7786 123.828 64.0234C123.083 63.263 122.711 62.2526 122.711 60.9922V60.7578C122.711 59.9141 122.872 59.1615 123.195 58.5C123.523 57.8333 123.982 57.3151 124.57 56.9453C125.159 56.5755 125.815 56.3906 126.539 56.3906C127.69 56.3906 128.578 56.7578 129.203 57.4922C129.833 58.2266 130.148 59.2656 130.148 60.6094V61.375H124.625C124.682 62.0729 124.914 62.625 125.32 63.0312C125.732 63.4375 126.247 63.6406 126.867 63.6406C127.737 63.6406 128.445 63.2891 128.992 62.5859L130.016 63.5625C129.677 64.0677 129.224 64.4609 128.656 64.7422C128.094 65.0182 127.461 65.1562 126.758 65.1562ZM126.531 57.9141C126.01 57.9141 125.589 58.0964 125.266 58.4609C124.948 58.8255 124.745 59.3333 124.656 59.9844H128.273V59.8438C128.232 59.2083 128.062 58.7292 127.766 58.4062C127.469 58.0781 127.057 57.9141 126.531 57.9141Z" fill="#FF5A43"/>
<path d="M103.141 20.1797H98.5625V25H96.5859V13.625H103.812V15.2188H98.5625V18.6016H103.141V20.1797ZM109.984 25C109.901 24.8385 109.828 24.5755 109.766 24.2109C109.161 24.8411 108.422 25.1562 107.547 25.1562C106.698 25.1562 106.005 24.9141 105.469 24.4297C104.932 23.9453 104.664 23.3464 104.664 22.6328C104.664 21.7318 104.997 21.0417 105.664 20.5625C106.336 20.0781 107.294 19.8359 108.539 19.8359H109.703V19.2812C109.703 18.8438 109.581 18.4948 109.336 18.2344C109.091 17.9688 108.719 17.8359 108.219 17.8359C107.786 17.8359 107.432 17.9453 107.156 18.1641C106.88 18.3776 106.742 18.651 106.742 18.9844H104.844C104.844 18.5208 104.997 18.0885 105.305 17.6875C105.612 17.2812 106.029 16.9635 106.555 16.7344C107.086 16.5052 107.677 16.3906 108.328 16.3906C109.318 16.3906 110.107 16.6406 110.695 17.1406C111.284 17.6354 111.586 18.3333 111.602 19.2344V23.0469C111.602 23.8073 111.708 24.4141 111.922 24.8672V25H109.984ZM107.898 23.6328C108.273 23.6328 108.625 23.5417 108.953 23.3594C109.286 23.1771 109.536 22.9323 109.703 22.625V21.0312H108.68C107.977 21.0312 107.448 21.1536 107.094 21.3984C106.74 21.6432 106.562 21.9896 106.562 22.4375C106.562 22.8021 106.682 23.0938 106.922 23.3125C107.167 23.526 107.492 23.6328 107.898 23.6328ZM115.609 25H113.711V13H115.609V25ZM122.422 22.7031C122.422 22.3646 122.281 22.1068 122 21.9297C121.724 21.7526 121.263 21.5964 120.617 21.4609C119.971 21.3255 119.432 21.1536 119 20.9453C118.052 20.487 117.578 19.8229 117.578 18.9531C117.578 18.224 117.885 17.6146 118.5 17.125C119.115 16.6354 119.896 16.3906 120.844 16.3906C121.854 16.3906 122.669 16.6406 123.289 17.1406C123.914 17.6406 124.227 18.2891 124.227 19.0859H122.328C122.328 18.7214 122.193 18.4193 121.922 18.1797C121.651 17.9349 121.292 17.8125 120.844 17.8125C120.427 17.8125 120.086 17.9089 119.82 18.1016C119.56 18.2943 119.43 18.5521 119.43 18.875C119.43 19.1667 119.552 19.3932 119.797 19.5547C120.042 19.7161 120.536 19.8802 121.281 20.0469C122.026 20.2083 122.609 20.4036 123.031 20.6328C123.458 20.8568 123.773 21.1276 123.977 21.4453C124.185 21.763 124.289 22.1484 124.289 22.6016C124.289 23.362 123.974 23.9792 123.344 24.4531C122.714 24.9219 121.888 25.1562 120.867 25.1562C120.174 25.1562 119.557 25.0312 119.016 24.7812C118.474 24.5312 118.052 24.1875 117.75 23.75C117.448 23.3125 117.297 22.8411 117.297 22.3359H119.141C119.167 22.7839 119.336 23.1302 119.648 23.375C119.961 23.6146 120.375 23.7344 120.891 23.7344C121.391 23.7344 121.771 23.6406 122.031 23.4531C122.292 23.2604 122.422 23.0104 122.422 22.7031ZM129.672 25.1562C128.469 25.1562 127.492 24.7786 126.742 24.0234C125.997 23.263 125.625 22.2526 125.625 20.9922V20.7578C125.625 19.9141 125.786 19.1615 126.109 18.5C126.438 17.8333 126.896 17.3151 127.484 16.9453C128.073 16.5755 128.729 16.3906 129.453 16.3906C130.604 16.3906 131.492 16.7578 132.117 17.4922C132.747 18.2266 133.062 19.2656 133.062 20.6094V21.375H127.539C127.596 22.0729 127.828 22.625 128.234 23.0312C128.646 23.4375 129.161 23.6406 129.781 23.6406C130.651 23.6406 131.359 23.2891 131.906 22.5859L132.93 23.5625C132.591 24.0677 132.138 24.4609 131.57 24.7422C131.008 25.0182 130.375 25.1562 129.672 25.1562ZM129.445 17.9141C128.924 17.9141 128.503 18.0964 128.18 18.4609C127.862 18.8255 127.659 19.3333 127.57 19.9844H131.188V19.8438C131.146 19.2083 130.977 18.7292 130.68 18.4062C130.383 18.0781 129.971 17.9141 129.445 17.9141Z" fill="#FF5A43"/>
<path d="M0.5 8C0.5 3.85786 3.85786 0.5 8 0.5H221C225.142 0.5 228.5 3.85787 228.5 8V119.5H0.5V8Z" stroke="#5452F6"/>
</g>
<g filter="url(#filter1_d)">
<path d="M0 119H229V135C229 139.418 225.418 143 221 143H8.00001C3.58173 143 0 139.418 0 135V119Z" fill="#EEEEFF"/>
<path d="M0.5 119.5H228.5V135C228.5 139.142 225.142 142.5 221 142.5H8.00001C3.85787 142.5 0.5 139.142 0.5 135V119.5Z" stroke="#5452F6"/>
</g>
<g filter="url(#filter2_d)">
<path d="M400 48C400 43.5817 403.582 40 408 40H621C625.418 40 629 43.5817 629 48V120H400V48Z" fill="white"/>
<path d="M400.5 48C400.5 43.8579 403.858 40.5 408 40.5H621C625.142 40.5 628.5 43.8579 628.5 48V119.5H400.5V48Z" stroke="#5452F6"/>
</g>
<g filter="url(#filter3_d)">
<path d="M400 119H629V135C629 139.418 625.418 143 621 143H408C403.582 143 400 139.418 400 135V119Z" fill="#EEEEFF"/>
<path d="M400.5 119.5H628.5V135C628.5 139.142 625.142 142.5 621 142.5H408C403.858 142.5 400.5 139.142 400.5 135V119.5Z" stroke="#5452F6"/>
</g>
<line x1="400.5" y1="79.5" x2="628.5" y2="79.5" stroke="#5452F6"/>
<path d="M473.789 102.07C473.789 101.57 473.612 101.185 473.258 100.914C472.909 100.643 472.276 100.37 471.359 100.094C470.443 99.8177 469.714 99.5104 469.172 99.1719C468.135 98.5208 467.617 97.6719 467.617 96.625C467.617 95.7083 467.99 94.9531 468.734 94.3594C469.484 93.7656 470.456 93.4688 471.648 93.4688C472.44 93.4688 473.146 93.6146 473.766 93.9062C474.385 94.1979 474.872 94.6146 475.227 95.1562C475.581 95.6927 475.758 96.2891 475.758 96.9453H473.789C473.789 96.3516 473.602 95.888 473.227 95.5547C472.857 95.2161 472.326 95.0469 471.633 95.0469C470.987 95.0469 470.484 95.1849 470.125 95.4609C469.771 95.737 469.594 96.1224 469.594 96.6172C469.594 97.0339 469.786 97.3828 470.172 97.6641C470.557 97.9401 471.193 98.2109 472.078 98.4766C472.964 98.737 473.674 99.0365 474.211 99.375C474.747 99.7083 475.141 100.094 475.391 100.531C475.641 100.964 475.766 101.471 475.766 102.055C475.766 103.003 475.401 103.758 474.672 104.32C473.948 104.878 472.964 105.156 471.719 105.156C470.896 105.156 470.138 105.005 469.445 104.703C468.758 104.396 468.221 103.974 467.836 103.438C467.456 102.901 467.266 102.276 467.266 101.562H469.242C469.242 102.208 469.456 102.708 469.883 103.062C470.31 103.417 470.922 103.594 471.719 103.594C472.406 103.594 472.922 103.456 473.266 103.18C473.615 102.898 473.789 102.529 473.789 102.07ZM479.695 94.4922V96.5469H481.188V97.9531H479.695V102.672C479.695 102.995 479.758 103.229 479.883 103.375C480.013 103.516 480.242 103.586 480.57 103.586C480.789 103.586 481.01 103.56 481.234 103.508V104.977C480.802 105.096 480.385 105.156 479.984 105.156C478.526 105.156 477.797 104.352 477.797 102.742V97.9531H476.406V96.5469H477.797V94.4922H479.695ZM487.07 98.2812C486.82 98.2396 486.562 98.2188 486.297 98.2188C485.427 98.2188 484.841 98.5521 484.539 99.2188V105H482.641V96.5469H484.453L484.5 97.4922C484.958 96.7578 485.594 96.3906 486.406 96.3906C486.677 96.3906 486.901 96.4271 487.078 96.5L487.07 98.2812ZM490.289 105H488.391V96.5469H490.289V105ZM488.273 94.3516C488.273 94.0599 488.365 93.8177 488.547 93.625C488.734 93.4323 489 93.3359 489.344 93.3359C489.688 93.3359 489.953 93.4323 490.141 93.625C490.328 93.8177 490.422 94.0599 490.422 94.3516C490.422 94.638 490.328 94.8776 490.141 95.0703C489.953 95.2578 489.688 95.3516 489.344 95.3516C489 95.3516 488.734 95.2578 488.547 95.0703C488.365 94.8776 488.273 94.638 488.273 94.3516ZM494.125 96.5469L494.18 97.5234C494.805 96.7682 495.625 96.3906 496.641 96.3906C498.401 96.3906 499.297 97.3984 499.328 99.4141V105H497.43V99.5234C497.43 98.987 497.312 98.5911 497.078 98.3359C496.849 98.0755 496.471 97.9453 495.945 97.9453C495.18 97.9453 494.609 98.2917 494.234 98.9844V105H492.336V96.5469H494.125ZM500.938 100.711C500.938 99.3984 501.245 98.3516 501.859 97.5703C502.479 96.7839 503.299 96.3906 504.32 96.3906C505.284 96.3906 506.042 96.7266 506.594 97.3984L506.68 96.5469H508.391V104.742C508.391 105.852 508.044 106.727 507.352 107.367C506.664 108.008 505.734 108.328 504.562 108.328C503.943 108.328 503.336 108.198 502.742 107.938C502.154 107.682 501.706 107.346 501.398 106.93L502.297 105.789C502.88 106.482 503.599 106.828 504.453 106.828C505.083 106.828 505.581 106.656 505.945 106.312C506.31 105.974 506.492 105.474 506.492 104.812V104.242C505.945 104.852 505.216 105.156 504.305 105.156C503.315 105.156 502.505 104.763 501.875 103.977C501.25 103.19 500.938 102.102 500.938 100.711ZM502.828 100.875C502.828 101.724 503 102.393 503.344 102.883C503.693 103.367 504.174 103.609 504.789 103.609C505.555 103.609 506.122 103.281 506.492 102.625V98.9062C506.133 98.2656 505.57 97.9453 504.805 97.9453C504.18 97.9453 503.693 98.1927 503.344 98.6875C503 99.1823 502.828 99.9115 502.828 100.875ZM515.633 92.7969L516.602 93.3984C516.128 94.0911 515.883 94.8125 515.867 95.5625V96.75H514.203V95.6719C514.208 95.1719 514.344 94.651 514.609 94.1094C514.88 93.5625 515.221 93.125 515.633 92.7969ZM518.258 92.7969L519.227 93.3984C518.753 94.0911 518.508 94.8125 518.492 95.5625V96.75H516.828V95.6719C516.833 95.1719 516.969 94.651 517.234 94.1094C517.505 93.5625 517.846 93.125 518.258 92.7969ZM529.703 105H527.734V99.9453H522.648V105H520.672V93.625H522.648V98.3594H527.734V93.625H529.703V105ZM535.586 105.156C534.383 105.156 533.406 104.779 532.656 104.023C531.911 103.263 531.539 102.253 531.539 100.992V100.758C531.539 99.9141 531.701 99.1615 532.023 98.5C532.352 97.8333 532.81 97.3151 533.398 96.9453C533.987 96.5755 534.643 96.3906 535.367 96.3906C536.518 96.3906 537.406 96.7578 538.031 97.4922C538.661 98.2266 538.977 99.2656 538.977 100.609V101.375H533.453C533.51 102.073 533.742 102.625 534.148 103.031C534.56 103.438 535.076 103.641 535.695 103.641C536.565 103.641 537.273 103.289 537.82 102.586L538.844 103.562C538.505 104.068 538.052 104.461 537.484 104.742C536.922 105.018 536.289 105.156 535.586 105.156ZM535.359 97.9141C534.839 97.9141 534.417 98.0964 534.094 98.4609C533.776 98.8255 533.573 99.3333 533.484 99.9844H537.102V99.8438C537.06 99.2083 536.891 98.7292 536.594 98.4062C536.297 98.0781 535.885 97.9141 535.359 97.9141ZM542.477 105H540.578V93H542.477V105ZM546.57 105H544.672V93H546.57V105ZM548.289 100.695C548.289 99.8672 548.453 99.1224 548.781 98.4609C549.109 97.7943 549.57 97.2839 550.164 96.9297C550.758 96.5703 551.44 96.3906 552.211 96.3906C553.352 96.3906 554.276 96.7578 554.984 97.4922C555.698 98.2266 556.083 99.2005 556.141 100.414L556.148 100.859C556.148 101.693 555.987 102.438 555.664 103.094C555.346 103.75 554.888 104.258 554.289 104.617C553.695 104.977 553.008 105.156 552.227 105.156C551.034 105.156 550.078 104.76 549.359 103.969C548.646 103.172 548.289 102.112 548.289 100.789V100.695ZM550.188 100.859C550.188 101.729 550.367 102.411 550.727 102.906C551.086 103.396 551.586 103.641 552.227 103.641C552.867 103.641 553.365 103.391 553.719 102.891C554.078 102.391 554.258 101.659 554.258 100.695C554.258 99.8411 554.073 99.1641 553.703 98.6641C553.339 98.1641 552.841 97.9141 552.211 97.9141C551.591 97.9141 551.099 98.1615 550.734 98.6562C550.37 99.1458 550.188 99.8802 550.188 100.859ZM557.562 97L556.594 96.3984C557.062 95.7161 557.305 94.9948 557.32 94.2344V93H558.984V94.0781C558.984 94.6146 558.846 95.1562 558.57 95.7031C558.299 96.2448 557.964 96.6771 557.562 97ZM560.172 97L559.203 96.3984C559.672 95.7161 559.914 94.9948 559.93 94.2344V93H561.594V94.0781C561.594 94.6146 561.456 95.1562 561.18 95.7031C560.909 96.2448 560.573 96.6771 560.172 97Z" fill="#5452F6"/>
<path d="M503.141 60.1797H498.562V65H496.586V53.625H503.812V55.2188H498.562V58.6016H503.141V60.1797ZM509.984 65C509.901 64.8385 509.828 64.5755 509.766 64.2109C509.161 64.8411 508.422 65.1562 507.547 65.1562C506.698 65.1562 506.005 64.9141 505.469 64.4297C504.932 63.9453 504.664 63.3464 504.664 62.6328C504.664 61.7318 504.997 61.0417 505.664 60.5625C506.336 60.0781 507.294 59.8359 508.539 59.8359H509.703V59.2812C509.703 58.8438 509.581 58.4948 509.336 58.2344C509.091 57.9688 508.719 57.8359 508.219 57.8359C507.786 57.8359 507.432 57.9453 507.156 58.1641C506.88 58.3776 506.742 58.651 506.742 58.9844H504.844C504.844 58.5208 504.997 58.0885 505.305 57.6875C505.612 57.2812 506.029 56.9635 506.555 56.7344C507.086 56.5052 507.677 56.3906 508.328 56.3906C509.318 56.3906 510.107 56.6406 510.695 57.1406C511.284 57.6354 511.586 58.3333 511.602 59.2344V63.0469C511.602 63.8073 511.708 64.4141 511.922 64.8672V65H509.984ZM507.898 63.6328C508.273 63.6328 508.625 63.5417 508.953 63.3594C509.286 63.1771 509.536 62.9323 509.703 62.625V61.0312H508.68C507.977 61.0312 507.448 61.1536 507.094 61.3984C506.74 61.6432 506.562 61.9896 506.562 62.4375C506.562 62.8021 506.682 63.0938 506.922 63.3125C507.167 63.526 507.492 63.6328 507.898 63.6328ZM515.609 65H513.711V53H515.609V65ZM522.422 62.7031C522.422 62.3646 522.281 62.1068 522 61.9297C521.724 61.7526 521.263 61.5964 520.617 61.4609C519.971 61.3255 519.432 61.1536 519 60.9453C518.052 60.487 517.578 59.8229 517.578 58.9531C517.578 58.224 517.885 57.6146 518.5 57.125C519.115 56.6354 519.896 56.3906 520.844 56.3906C521.854 56.3906 522.669 56.6406 523.289 57.1406C523.914 57.6406 524.227 58.2891 524.227 59.0859H522.328C522.328 58.7214 522.193 58.4193 521.922 58.1797C521.651 57.9349 521.292 57.8125 520.844 57.8125C520.427 57.8125 520.086 57.9089 519.82 58.1016C519.56 58.2943 519.43 58.5521 519.43 58.875C519.43 59.1667 519.552 59.3932 519.797 59.5547C520.042 59.7161 520.536 59.8802 521.281 60.0469C522.026 60.2083 522.609 60.4036 523.031 60.6328C523.458 60.8568 523.773 61.1276 523.977 61.4453C524.185 61.763 524.289 62.1484 524.289 62.6016C524.289 63.362 523.974 63.9792 523.344 64.4531C522.714 64.9219 521.888 65.1562 520.867 65.1562C520.174 65.1562 519.557 65.0312 519.016 64.7812C518.474 64.5312 518.052 64.1875 517.75 63.75C517.448 63.3125 517.297 62.8411 517.297 62.3359H519.141C519.167 62.7839 519.336 63.1302 519.648 63.375C519.961 63.6146 520.375 63.7344 520.891 63.7344C521.391 63.7344 521.771 63.6406 522.031 63.4531C522.292 63.2604 522.422 63.0104 522.422 62.7031ZM529.672 65.1562C528.469 65.1562 527.492 64.7786 526.742 64.0234C525.997 63.263 525.625 62.2526 525.625 60.9922V60.7578C525.625 59.9141 525.786 59.1615 526.109 58.5C526.438 57.8333 526.896 57.3151 527.484 56.9453C528.073 56.5755 528.729 56.3906 529.453 56.3906C530.604 56.3906 531.492 56.7578 532.117 57.4922C532.747 58.2266 533.062 59.2656 533.062 60.6094V61.375H527.539C527.596 62.0729 527.828 62.625 528.234 63.0312C528.646 63.4375 529.161 63.6406 529.781 63.6406C530.651 63.6406 531.359 63.2891 531.906 62.5859L532.93 63.5625C532.591 64.0677 532.138 64.4609 531.57 64.7422C531.008 65.0182 530.375 65.1562 529.672 65.1562ZM529.445 57.9141C528.924 57.9141 528.503 58.0964 528.18 58.4609C527.862 58.8255 527.659 59.3333 527.57 59.9844H531.188V59.8438C531.146 59.2083 530.977 58.7292 530.68 58.4062C530.383 58.0781 529.971 57.9141 529.445 57.9141Z" fill="#FF5A43"/>
<defs>
<filter id="filter0_d" x="0" y="0" width="233" height="124" filterUnits="userSpaceOnUse" color-interpolation-filters="sRGB">
<feFlood flood-opacity="0" result="BackgroundImageFix"/>
<feColorMatrix in="SourceAlpha" type="matrix" values="0 0 0 0 0 0 0 0 0 0 0 0 0 0 0 0 0 0 127 0"/>
<feOffset dx="4" dy="4"/>
<feColorMatrix type="matrix" values="0 0 0 0 0.674908 0 0 0 0 0.662083 0 0 0 0 0.945833 0 0 0 1 0"/>
<feBlend mode="normal" in2="BackgroundImageFix" result="effect1_dropShadow"/>
<feBlend mode="normal" in="SourceGraphic" in2="effect1_dropShadow" result="shape"/>
</filter>
<filter id="filter1_d" x="0" y="119" width="233" height="28" filterUnits="userSpaceOnUse" color-interpolation-filters="sRGB">
<feFlood flood-opacity="0" result="BackgroundImageFix"/>
<feColorMatrix in="SourceAlpha" type="matrix" values="0 0 0 0 0 0 0 0 0 0 0 0 0 0 0 0 0 0 127 0"/>
<feOffset dx="4" dy="4"/>
<feColorMatrix type="matrix" values="0 0 0 0 0.674908 0 0 0 0 0.662083 0 0 0 0 0.945833 0 0 0 1 0"/>
<feBlend mode="normal" in2="BackgroundImageFix" result="effect1_dropShadow"/>
<feBlend mode="normal" in="SourceGraphic" in2="effect1_dropShadow" result="shape"/>
</filter>
<filter id="filter2_d" x="400" y="40" width="233" height="84" filterUnits="userSpaceOnUse" color-interpolation-filters="sRGB">
<feFlood flood-opacity="0" result="BackgroundImageFix"/>
<feColorMatrix in="SourceAlpha" type="matrix" values="0 0 0 0 0 0 0 0 0 0 0 0 0 0 0 0 0 0 127 0"/>
<feOffset dx="4" dy="4"/>
<feColorMatrix type="matrix" values="0 0 0 0 0.674908 0 0 0 0 0.662083 0 0 0 0 0.945833 0 0 0 1 0"/>
<feBlend mode="normal" in2="BackgroundImageFix" result="effect1_dropShadow"/>
<feBlend mode="normal" in="SourceGraphic" in2="effect1_dropShadow" result="shape"/>
</filter>
<filter id="filter3_d" x="400" y="119" width="233" height="28" filterUnits="userSpaceOnUse" color-interpolation-filters="sRGB">
<feFlood flood-opacity="0" result="BackgroundImageFix"/>
<feColorMatrix in="SourceAlpha" type="matrix" values="0 0 0 0 0 0 0 0 0 0 0 0 0 0 0 0 0 0 127 0"/>
<feOffset dx="4" dy="4"/>
<feColorMatrix type="matrix" values="0 0 0 0 0.674908 0 0 0 0 0.662083 0 0 0 0 0.945833 0 0 0 1 0"/>
<feBlend mode="normal" in2="BackgroundImageFix" result="effect1_dropShadow"/>
<feBlend mode="normal" in="SourceGraphic" in2="effect1_dropShadow" result="shape"/>
</filter>
</defs>
</svg>
