<svg width="633" height="147" viewBox="0 0 633 147" fill="none" xmlns="http://www.w3.org/2000/svg">
<line x1="255" y1="120.5" x2="389" y2="120.5" stroke="#65BF73" stroke-width="2"/>
<path d="M379 111L389.5 120.5L379 129.5" stroke="#65BF73" stroke-width="2" stroke-linecap="round" stroke-linejoin="round"/>
<circle cx="250.5" cy="121" r="5.5" stroke="#65BF73" stroke-width="2"/>
<path d="M294.758 94.625V102.227C294.758 103.435 294.37 104.393 293.594 105.102C292.823 105.805 291.794 106.156 290.508 106.156C289.206 106.156 288.172 105.81 287.406 105.117C286.641 104.419 286.258 103.453 286.258 102.219V94.625H288.227V102.234C288.227 102.995 288.419 103.576 288.805 103.977C289.19 104.378 289.758 104.578 290.508 104.578C292.029 104.578 292.789 103.776 292.789 102.172V94.625H294.758ZM298.852 101.773V106H296.875V94.625H301.227C302.497 94.625 303.505 94.9557 304.25 95.6172C305 96.2786 305.375 97.1536 305.375 98.2422C305.375 99.3568 305.008 100.224 304.273 100.844C303.544 101.464 302.521 101.773 301.203 101.773H298.852ZM298.852 100.188H301.227C301.93 100.188 302.466 100.023 302.836 99.6953C303.206 99.362 303.391 98.8828 303.391 98.2578C303.391 97.6432 303.203 97.1536 302.828 96.7891C302.453 96.4193 301.938 96.2292 301.281 96.2188H298.852V100.188ZM307.109 106V94.625H310.469C311.474 94.625 312.365 94.849 313.141 95.2969C313.922 95.7448 314.526 96.3802 314.953 97.2031C315.38 98.026 315.594 98.9688 315.594 100.031V100.602C315.594 101.68 315.378 102.628 314.945 103.445C314.518 104.263 313.906 104.893 313.109 105.336C312.318 105.779 311.409 106 310.383 106H307.109ZM309.086 96.2188V104.422H310.375C311.411 104.422 312.206 104.099 312.758 103.453C313.315 102.802 313.599 101.87 313.609 100.656V100.023C313.609 98.7891 313.341 97.8464 312.805 97.1953C312.268 96.5443 311.49 96.2188 310.469 96.2188H309.086ZM323.758 103.352H319.352L318.43 106H316.375L320.672 94.625H322.445L326.75 106H324.688L323.758 103.352ZM319.906 101.758H323.203L321.555 97.0391L319.906 101.758ZM335.328 96.2188H331.781V106H329.82V96.2188H326.305V94.625H335.328V96.2188ZM343.477 100.922H338.805V104.422H344.266V106H336.828V94.625H344.211V96.2188H338.805V99.3594H343.477V100.922Z" fill="#65BF73"/>
<g filter="url(#filter0_d)">
<path d="M400 87C400 82.5817 403.582 79 408 79H621C625.418 79 629 82.5817 629 87V120H400V87Z" fill="white"/>
<path d="M400.5 87C400.5 82.8579 403.858 79.5 408 79.5H621C625.142 79.5 628.5 82.8579 628.5 87V119.5H400.5V87Z" stroke="#5452F6"/>
</g>
<g filter="url(#filter1_d)">
<path d="M400 119H629V135C629 139.418 625.418 143 621 143H408C403.582 143 400 139.418 400 135V119Z" fill="#EEEEFF"/>
<path d="M400.5 119.5H628.5V135C628.5 139.142 625.142 142.5 621 142.5H408C403.858 142.5 400.5 139.142 400.5 135V119.5Z" stroke="#5452F6"/>
</g>
<path d="M458.305 97.5469L458.359 98.4297C458.953 97.737 459.766 97.3906 460.797 97.3906C461.927 97.3906 462.701 97.8229 463.117 98.6875C463.732 97.8229 464.596 97.3906 465.711 97.3906C466.643 97.3906 467.336 97.6484 467.789 98.1641C468.247 98.6797 468.482 99.4401 468.492 100.445V106H466.594V100.5C466.594 99.9635 466.477 99.5703 466.242 99.3203C466.008 99.0703 465.62 98.9453 465.078 98.9453C464.646 98.9453 464.292 99.0625 464.016 99.2969C463.745 99.526 463.555 99.8281 463.445 100.203L463.453 106H461.555V100.438C461.529 99.4427 461.021 98.9453 460.031 98.9453C459.271 98.9453 458.732 99.2552 458.414 99.875V106H456.516V97.5469H458.305ZM475.492 106C475.409 105.839 475.336 105.576 475.273 105.211C474.669 105.841 473.93 106.156 473.055 106.156C472.206 106.156 471.513 105.914 470.977 105.43C470.44 104.945 470.172 104.346 470.172 103.633C470.172 102.732 470.505 102.042 471.172 101.562C471.844 101.078 472.802 100.836 474.047 100.836H475.211V100.281C475.211 99.8438 475.089 99.4948 474.844 99.2344C474.599 98.9688 474.227 98.8359 473.727 98.8359C473.294 98.8359 472.94 98.9453 472.664 99.1641C472.388 99.3776 472.25 99.651 472.25 99.9844H470.352C470.352 99.5208 470.505 99.0885 470.812 98.6875C471.12 98.2812 471.536 97.9635 472.062 97.7344C472.594 97.5052 473.185 97.3906 473.836 97.3906C474.826 97.3906 475.615 97.6406 476.203 98.1406C476.792 98.6354 477.094 99.3333 477.109 100.234V104.047C477.109 104.807 477.216 105.414 477.43 105.867V106H475.492ZM473.406 104.633C473.781 104.633 474.133 104.542 474.461 104.359C474.794 104.177 475.044 103.932 475.211 103.625V102.031H474.188C473.484 102.031 472.956 102.154 472.602 102.398C472.247 102.643 472.07 102.99 472.07 103.438C472.07 103.802 472.19 104.094 472.43 104.312C472.674 104.526 473 104.633 473.406 104.633ZM486.5 101.859C486.5 103.167 486.203 104.211 485.609 104.992C485.016 105.768 484.219 106.156 483.219 106.156C482.292 106.156 481.549 105.852 480.992 105.242V109.25H479.094V97.5469H480.844L480.922 98.4062C481.479 97.7292 482.237 97.3906 483.195 97.3906C484.227 97.3906 485.034 97.776 485.617 98.5469C486.206 99.3125 486.5 100.378 486.5 101.742V101.859ZM484.609 101.695C484.609 100.852 484.44 100.182 484.102 99.6875C483.768 99.1927 483.289 98.9453 482.664 98.9453C481.888 98.9453 481.331 99.2656 480.992 99.9062V103.656C481.336 104.312 481.898 104.641 482.68 104.641C483.284 104.641 483.755 104.398 484.094 103.914C484.438 103.424 484.609 102.685 484.609 101.695ZM496.836 103.703C496.836 103.365 496.695 103.107 496.414 102.93C496.138 102.753 495.677 102.596 495.031 102.461C494.385 102.326 493.846 102.154 493.414 101.945C492.466 101.487 491.992 100.823 491.992 99.9531C491.992 99.224 492.299 98.6146 492.914 98.125C493.529 97.6354 494.31 97.3906 495.258 97.3906C496.268 97.3906 497.083 97.6406 497.703 98.1406C498.328 98.6406 498.641 99.2891 498.641 100.086H496.742C496.742 99.7214 496.607 99.4193 496.336 99.1797C496.065 98.9349 495.706 98.8125 495.258 98.8125C494.841 98.8125 494.5 98.9089 494.234 99.1016C493.974 99.2943 493.844 99.5521 493.844 99.875C493.844 100.167 493.966 100.393 494.211 100.555C494.456 100.716 494.951 100.88 495.695 101.047C496.44 101.208 497.023 101.404 497.445 101.633C497.872 101.857 498.188 102.128 498.391 102.445C498.599 102.763 498.703 103.148 498.703 103.602C498.703 104.362 498.388 104.979 497.758 105.453C497.128 105.922 496.302 106.156 495.281 106.156C494.589 106.156 493.971 106.031 493.43 105.781C492.888 105.531 492.466 105.188 492.164 104.75C491.862 104.312 491.711 103.841 491.711 103.336H493.555C493.581 103.784 493.75 104.13 494.062 104.375C494.375 104.615 494.789 104.734 495.305 104.734C495.805 104.734 496.185 104.641 496.445 104.453C496.706 104.26 496.836 104.01 496.836 103.703ZM502.742 95.4922V97.5469H504.234V98.9531H502.742V103.672C502.742 103.995 502.805 104.229 502.93 104.375C503.06 104.516 503.289 104.586 503.617 104.586C503.836 104.586 504.057 104.56 504.281 104.508V105.977C503.849 106.096 503.432 106.156 503.031 106.156C501.573 106.156 500.844 105.352 500.844 103.742V98.9531H499.453V97.5469H500.844V95.4922H502.742ZM510.117 99.2812C509.867 99.2396 509.609 99.2188 509.344 99.2188C508.474 99.2188 507.888 99.5521 507.586 100.219V106H505.688V97.5469H507.5L507.547 98.4922C508.005 97.7578 508.641 97.3906 509.453 97.3906C509.724 97.3906 509.948 97.4271 510.125 97.5L510.117 99.2812ZM513.336 106H511.438V97.5469H513.336V106ZM511.32 95.3516C511.32 95.0599 511.411 94.8177 511.594 94.625C511.781 94.4323 512.047 94.3359 512.391 94.3359C512.734 94.3359 513 94.4323 513.188 94.625C513.375 94.8177 513.469 95.0599 513.469 95.3516C513.469 95.638 513.375 95.8776 513.188 96.0703C513 96.2578 512.734 96.3516 512.391 96.3516C512.047 96.3516 511.781 96.2578 511.594 96.0703C511.411 95.8776 511.32 95.638 511.32 95.3516ZM517.172 97.5469L517.227 98.5234C517.852 97.7682 518.672 97.3906 519.688 97.3906C521.448 97.3906 522.344 98.3984 522.375 100.414V106H520.477V100.523C520.477 99.987 520.359 99.5911 520.125 99.3359C519.896 99.0755 519.518 98.9453 518.992 98.9453C518.227 98.9453 517.656 99.2917 517.281 99.9844V106H515.383V97.5469H517.172ZM523.984 101.711C523.984 100.398 524.292 99.3516 524.906 98.5703C525.526 97.7839 526.346 97.3906 527.367 97.3906C528.331 97.3906 529.089 97.7266 529.641 98.3984L529.727 97.5469H531.438V105.742C531.438 106.852 531.091 107.727 530.398 108.367C529.711 109.008 528.781 109.328 527.609 109.328C526.99 109.328 526.383 109.198 525.789 108.938C525.201 108.682 524.753 108.346 524.445 107.93L525.344 106.789C525.927 107.482 526.646 107.828 527.5 107.828C528.13 107.828 528.628 107.656 528.992 107.312C529.357 106.974 529.539 106.474 529.539 105.812V105.242C528.992 105.852 528.263 106.156 527.352 106.156C526.362 106.156 525.552 105.763 524.922 104.977C524.297 104.19 523.984 103.102 523.984 101.711ZM525.875 101.875C525.875 102.724 526.047 103.393 526.391 103.883C526.74 104.367 527.221 104.609 527.836 104.609C528.602 104.609 529.169 104.281 529.539 103.625V99.9062C529.18 99.2656 528.617 98.9453 527.852 98.9453C527.227 98.9453 526.74 99.1927 526.391 99.6875C526.047 100.182 525.875 100.911 525.875 101.875ZM539.398 106H537.5V97.5469H539.398V106ZM537.383 95.3516C537.383 95.0599 537.474 94.8177 537.656 94.625C537.844 94.4323 538.109 94.3359 538.453 94.3359C538.797 94.3359 539.062 94.4323 539.25 94.625C539.438 94.8177 539.531 95.0599 539.531 95.3516C539.531 95.638 539.438 95.8776 539.25 96.0703C539.062 96.2578 538.797 96.3516 538.453 96.3516C538.109 96.3516 537.844 96.2578 537.656 96.0703C537.474 95.8776 537.383 95.638 537.383 95.3516ZM543.234 97.5469L543.289 98.5234C543.914 97.7682 544.734 97.3906 545.75 97.3906C547.51 97.3906 548.406 98.3984 548.438 100.414V106H546.539V100.523C546.539 99.987 546.422 99.5911 546.188 99.3359C545.958 99.0755 545.581 98.9453 545.055 98.9453C544.289 98.9453 543.719 99.2917 543.344 99.9844V106H541.445V97.5469H543.234ZM552.758 95.4922V97.5469H554.25V98.9531H552.758V103.672C552.758 103.995 552.82 104.229 552.945 104.375C553.076 104.516 553.305 104.586 553.633 104.586C553.852 104.586 554.073 104.56 554.297 104.508V105.977C553.865 106.096 553.448 106.156 553.047 106.156C551.589 106.156 550.859 105.352 550.859 103.742V98.9531H549.469V97.5469H550.859V95.4922H552.758ZM563.477 108.812C561.638 108.297 560.701 107.122 560.664 105.289V103.625C560.664 102.453 560.161 101.867 559.156 101.867V100.477C560.161 100.477 560.664 99.888 560.664 98.7109V97.0547C560.68 96.1172 560.922 95.3594 561.391 94.7812C561.865 94.2031 562.56 93.7839 563.477 93.5234L563.852 94.6172C562.951 94.9089 562.484 95.7057 562.453 97.0078V98.6953C562.453 99.8672 562.003 100.69 561.102 101.164C562.003 101.643 562.453 102.474 562.453 103.656V105.32C562.484 106.622 562.951 107.419 563.852 107.711L563.477 108.812ZM568.289 107.711C569.206 107.414 569.674 106.602 569.695 105.273V103.648C569.695 102.445 570.169 101.62 571.117 101.172C570.169 100.724 569.695 99.8906 569.695 98.6719V97.0547C569.674 95.7266 569.206 94.9141 568.289 94.6172L568.664 93.5234C569.612 93.7891 570.318 94.2214 570.781 94.8203C571.245 95.4141 571.477 96.1927 571.477 97.1562V98.7188C571.477 99.8906 571.982 100.477 572.992 100.477V101.867C571.982 101.867 571.477 102.453 571.477 103.625V105.164C571.477 106.138 571.242 106.922 570.773 107.516C570.31 108.115 569.607 108.547 568.664 108.812L568.289 107.711Z" fill="#5452F6"/>
<g filter="url(#filter2_d)">
<path d="M400 87C400 82.5817 403.582 79 408 79H621C625.418 79 629 82.5817 629 87V120H400V87Z" fill="white"/>
<path d="M400.5 87C400.5 82.8579 403.858 79.5 408 79.5H621C625.142 79.5 628.5 82.8579 628.5 87V119.5H400.5V87Z" stroke="#5452F6"/>
</g>
<g filter="url(#filter3_d)">
<path d="M400 119H629V135C629 139.418 625.418 143 621 143H408C403.582 143 400 139.418 400 135V119Z" fill="#EEEEFF"/>
<path d="M400.5 119.5H628.5V135C628.5 139.142 625.142 142.5 621 142.5H408C403.858 142.5 400.5 139.142 400.5 135V119.5Z" stroke="#5452F6"/>
</g>
<path d="M458.305 97.5469L458.359 98.4297C458.953 97.737 459.766 97.3906 460.797 97.3906C461.927 97.3906 462.701 97.8229 463.117 98.6875C463.732 97.8229 464.596 97.3906 465.711 97.3906C466.643 97.3906 467.336 97.6484 467.789 98.1641C468.247 98.6797 468.482 99.4401 468.492 100.445V106H466.594V100.5C466.594 99.9635 466.477 99.5703 466.242 99.3203C466.008 99.0703 465.62 98.9453 465.078 98.9453C464.646 98.9453 464.292 99.0625 464.016 99.2969C463.745 99.526 463.555 99.8281 463.445 100.203L463.453 106H461.555V100.438C461.529 99.4427 461.021 98.9453 460.031 98.9453C459.271 98.9453 458.732 99.2552 458.414 99.875V106H456.516V97.5469H458.305ZM475.492 106C475.409 105.839 475.336 105.576 475.273 105.211C474.669 105.841 473.93 106.156 473.055 106.156C472.206 106.156 471.513 105.914 470.977 105.43C470.44 104.945 470.172 104.346 470.172 103.633C470.172 102.732 470.505 102.042 471.172 101.562C471.844 101.078 472.802 100.836 474.047 100.836H475.211V100.281C475.211 99.8438 475.089 99.4948 474.844 99.2344C474.599 98.9688 474.227 98.8359 473.727 98.8359C473.294 98.8359 472.94 98.9453 472.664 99.1641C472.388 99.3776 472.25 99.651 472.25 99.9844H470.352C470.352 99.5208 470.505 99.0885 470.812 98.6875C471.12 98.2812 471.536 97.9635 472.062 97.7344C472.594 97.5052 473.185 97.3906 473.836 97.3906C474.826 97.3906 475.615 97.6406 476.203 98.1406C476.792 98.6354 477.094 99.3333 477.109 100.234V104.047C477.109 104.807 477.216 105.414 477.43 105.867V106H475.492ZM473.406 104.633C473.781 104.633 474.133 104.542 474.461 104.359C474.794 104.177 475.044 103.932 475.211 103.625V102.031H474.188C473.484 102.031 472.956 102.154 472.602 102.398C472.247 102.643 472.07 102.99 472.07 103.438C472.07 103.802 472.19 104.094 472.43 104.312C472.674 104.526 473 104.633 473.406 104.633ZM486.5 101.859C486.5 103.167 486.203 104.211 485.609 104.992C485.016 105.768 484.219 106.156 483.219 106.156C482.292 106.156 481.549 105.852 480.992 105.242V109.25H479.094V97.5469H480.844L480.922 98.4062C481.479 97.7292 482.237 97.3906 483.195 97.3906C484.227 97.3906 485.034 97.776 485.617 98.5469C486.206 99.3125 486.5 100.378 486.5 101.742V101.859ZM484.609 101.695C484.609 100.852 484.44 100.182 484.102 99.6875C483.768 99.1927 483.289 98.9453 482.664 98.9453C481.888 98.9453 481.331 99.2656 480.992 99.9062V103.656C481.336 104.312 481.898 104.641 482.68 104.641C483.284 104.641 483.755 104.398 484.094 103.914C484.438 103.424 484.609 102.685 484.609 101.695ZM496.836 103.703C496.836 103.365 496.695 103.107 496.414 102.93C496.138 102.753 495.677 102.596 495.031 102.461C494.385 102.326 493.846 102.154 493.414 101.945C492.466 101.487 491.992 100.823 491.992 99.9531C491.992 99.224 492.299 98.6146 492.914 98.125C493.529 97.6354 494.31 97.3906 495.258 97.3906C496.268 97.3906 497.083 97.6406 497.703 98.1406C498.328 98.6406 498.641 99.2891 498.641 100.086H496.742C496.742 99.7214 496.607 99.4193 496.336 99.1797C496.065 98.9349 495.706 98.8125 495.258 98.8125C494.841 98.8125 494.5 98.9089 494.234 99.1016C493.974 99.2943 493.844 99.5521 493.844 99.875C493.844 100.167 493.966 100.393 494.211 100.555C494.456 100.716 494.951 100.88 495.695 101.047C496.44 101.208 497.023 101.404 497.445 101.633C497.872 101.857 498.188 102.128 498.391 102.445C498.599 102.763 498.703 103.148 498.703 103.602C498.703 104.362 498.388 104.979 497.758 105.453C497.128 105.922 496.302 106.156 495.281 106.156C494.589 106.156 493.971 106.031 493.43 105.781C492.888 105.531 492.466 105.188 492.164 104.75C491.862 104.312 491.711 103.841 491.711 103.336H493.555C493.581 103.784 493.75 104.13 494.062 104.375C494.375 104.615 494.789 104.734 495.305 104.734C495.805 104.734 496.185 104.641 496.445 104.453C496.706 104.26 496.836 104.01 496.836 103.703ZM502.742 95.4922V97.5469H504.234V98.9531H502.742V103.672C502.742 103.995 502.805 104.229 502.93 104.375C503.06 104.516 503.289 104.586 503.617 104.586C503.836 104.586 504.057 104.56 504.281 104.508V105.977C503.849 106.096 503.432 106.156 503.031 106.156C501.573 106.156 500.844 105.352 500.844 103.742V98.9531H499.453V97.5469H500.844V95.4922H502.742ZM510.117 99.2812C509.867 99.2396 509.609 99.2188 509.344 99.2188C508.474 99.2188 507.888 99.5521 507.586 100.219V106H505.688V97.5469H507.5L507.547 98.4922C508.005 97.7578 508.641 97.3906 509.453 97.3906C509.724 97.3906 509.948 97.4271 510.125 97.5L510.117 99.2812ZM513.336 106H511.438V97.5469H513.336V106ZM511.32 95.3516C511.32 95.0599 511.411 94.8177 511.594 94.625C511.781 94.4323 512.047 94.3359 512.391 94.3359C512.734 94.3359 513 94.4323 513.188 94.625C513.375 94.8177 513.469 95.0599 513.469 95.3516C513.469 95.638 513.375 95.8776 513.188 96.0703C513 96.2578 512.734 96.3516 512.391 96.3516C512.047 96.3516 511.781 96.2578 511.594 96.0703C511.411 95.8776 511.32 95.638 511.32 95.3516ZM517.172 97.5469L517.227 98.5234C517.852 97.7682 518.672 97.3906 519.688 97.3906C521.448 97.3906 522.344 98.3984 522.375 100.414V106H520.477V100.523C520.477 99.987 520.359 99.5911 520.125 99.3359C519.896 99.0755 519.518 98.9453 518.992 98.9453C518.227 98.9453 517.656 99.2917 517.281 99.9844V106H515.383V97.5469H517.172ZM523.984 101.711C523.984 100.398 524.292 99.3516 524.906 98.5703C525.526 97.7839 526.346 97.3906 527.367 97.3906C528.331 97.3906 529.089 97.7266 529.641 98.3984L529.727 97.5469H531.438V105.742C531.438 106.852 531.091 107.727 530.398 108.367C529.711 109.008 528.781 109.328 527.609 109.328C526.99 109.328 526.383 109.198 525.789 108.938C525.201 108.682 524.753 108.346 524.445 107.93L525.344 106.789C525.927 107.482 526.646 107.828 527.5 107.828C528.13 107.828 528.628 107.656 528.992 107.312C529.357 106.974 529.539 106.474 529.539 105.812V105.242C528.992 105.852 528.263 106.156 527.352 106.156C526.362 106.156 525.552 105.763 524.922 104.977C524.297 104.19 523.984 103.102 523.984 101.711ZM525.875 101.875C525.875 102.724 526.047 103.393 526.391 103.883C526.74 104.367 527.221 104.609 527.836 104.609C528.602 104.609 529.169 104.281 529.539 103.625V99.9062C529.18 99.2656 528.617 98.9453 527.852 98.9453C527.227 98.9453 526.74 99.1927 526.391 99.6875C526.047 100.182 525.875 100.911 525.875 101.875ZM539.398 106H537.5V97.5469H539.398V106ZM537.383 95.3516C537.383 95.0599 537.474 94.8177 537.656 94.625C537.844 94.4323 538.109 94.3359 538.453 94.3359C538.797 94.3359 539.062 94.4323 539.25 94.625C539.438 94.8177 539.531 95.0599 539.531 95.3516C539.531 95.638 539.438 95.8776 539.25 96.0703C539.062 96.2578 538.797 96.3516 538.453 96.3516C538.109 96.3516 537.844 96.2578 537.656 96.0703C537.474 95.8776 537.383 95.638 537.383 95.3516ZM543.234 97.5469L543.289 98.5234C543.914 97.7682 544.734 97.3906 545.75 97.3906C547.51 97.3906 548.406 98.3984 548.438 100.414V106H546.539V100.523C546.539 99.987 546.422 99.5911 546.188 99.3359C545.958 99.0755 545.581 98.9453 545.055 98.9453C544.289 98.9453 543.719 99.2917 543.344 99.9844V106H541.445V97.5469H543.234ZM552.758 95.4922V97.5469H554.25V98.9531H552.758V103.672C552.758 103.995 552.82 104.229 552.945 104.375C553.076 104.516 553.305 104.586 553.633 104.586C553.852 104.586 554.073 104.56 554.297 104.508V105.977C553.865 106.096 553.448 106.156 553.047 106.156C551.589 106.156 550.859 105.352 550.859 103.742V98.9531H549.469V97.5469H550.859V95.4922H552.758ZM563.477 108.812C561.638 108.297 560.701 107.122 560.664 105.289V103.625C560.664 102.453 560.161 101.867 559.156 101.867V100.477C560.161 100.477 560.664 99.888 560.664 98.7109V97.0547C560.68 96.1172 560.922 95.3594 561.391 94.7812C561.865 94.2031 562.56 93.7839 563.477 93.5234L563.852 94.6172C562.951 94.9089 562.484 95.7057 562.453 97.0078V98.6953C562.453 99.8672 562.003 100.69 561.102 101.164C562.003 101.643 562.453 102.474 562.453 103.656V105.32C562.484 106.622 562.951 107.419 563.852 107.711L563.477 108.812ZM568.289 107.711C569.206 107.414 569.674 106.602 569.695 105.273V103.648C569.695 102.445 570.169 101.62 571.117 101.172C570.169 100.724 569.695 99.8906 569.695 98.6719V97.0547C569.674 95.7266 569.206 94.9141 568.289 94.6172L568.664 93.5234C569.612 93.7891 570.318 94.2214 570.781 94.8203C571.245 95.4141 571.477 96.1927 571.477 97.1562V98.7188C571.477 99.8906 571.982 100.477 572.992 100.477V101.867C571.982 101.867 571.477 102.453 571.477 103.625V105.164C571.477 106.138 571.242 106.922 570.773 107.516C570.31 108.115 569.607 108.547 568.664 108.812L568.289 107.711Z" fill="#5452F6"/>
<g filter="url(#filter4_d)">
<path d="M0 8C0 3.58172 3.58172 0 8 0H221C225.418 0 229 3.58172 229 8V120H0V8Z" fill="white"/>
<line x1="0.5" y1="79.5" x2="228.5" y2="79.5" stroke="#5452F6"/>
<line x1="0.5" y1="39.5" x2="228.5" y2="39.5" stroke="#5452F6"/>
<path d="M18.5 96.5469L18.5547 97.4297C19.1484 96.737 19.9609 96.3906 20.9922 96.3906C22.1224 96.3906 22.8958 96.8229 23.3125 97.6875C23.9271 96.8229 24.7917 96.3906 25.9062 96.3906C26.8385 96.3906 27.5312 96.6484 27.9844 97.1641C28.4427 97.6797 28.6771 98.4401 28.6875 99.4453V105H26.7891V99.5C26.7891 98.9635 26.6719 98.5703 26.4375 98.3203C26.2031 98.0703 25.8151 97.9453 25.2734 97.9453C24.8411 97.9453 24.487 98.0625 24.2109 98.2969C23.9401 98.526 23.75 98.8281 23.6406 99.2031L23.6484 105H21.75V99.4375C21.724 98.4427 21.2161 97.9453 20.2266 97.9453C19.4661 97.9453 18.9271 98.2552 18.6094 98.875V105H16.7109V96.5469H18.5ZM35.6875 105C35.6042 104.839 35.5312 104.576 35.4688 104.211C34.8646 104.841 34.125 105.156 33.25 105.156C32.401 105.156 31.7083 104.914 31.1719 104.43C30.6354 103.945 30.3672 103.346 30.3672 102.633C30.3672 101.732 30.7005 101.042 31.3672 100.562C32.0391 100.078 32.9974 99.8359 34.2422 99.8359H35.4062V99.2812C35.4062 98.8438 35.2839 98.4948 35.0391 98.2344C34.7943 97.9688 34.4219 97.8359 33.9219 97.8359C33.4896 97.8359 33.1354 97.9453 32.8594 98.1641C32.5833 98.3776 32.4453 98.651 32.4453 98.9844H30.5469C30.5469 98.5208 30.7005 98.0885 31.0078 97.6875C31.3151 97.2812 31.7318 96.9635 32.2578 96.7344C32.7891 96.5052 33.3802 96.3906 34.0312 96.3906C35.0208 96.3906 35.8099 96.6406 36.3984 97.1406C36.987 97.6354 37.2891 98.3333 37.3047 99.2344V103.047C37.3047 103.807 37.4115 104.414 37.625 104.867V105H35.6875ZM33.6016 103.633C33.9766 103.633 34.3281 103.542 34.6562 103.359C34.9896 103.177 35.2396 102.932 35.4062 102.625V101.031H34.3828C33.6797 101.031 33.151 101.154 32.7969 101.398C32.4427 101.643 32.2656 101.99 32.2656 102.438C32.2656 102.802 32.3854 103.094 32.625 103.312C32.8698 103.526 33.1953 103.633 33.6016 103.633ZM46.6953 100.859C46.6953 102.167 46.3984 103.211 45.8047 103.992C45.2109 104.768 44.4141 105.156 43.4141 105.156C42.487 105.156 41.7448 104.852 41.1875 104.242V108.25H39.2891V96.5469H41.0391L41.1172 97.4062C41.6745 96.7292 42.4323 96.3906 43.3906 96.3906C44.4219 96.3906 45.2292 96.776 45.8125 97.5469C46.401 98.3125 46.6953 99.3776 46.6953 100.742V100.859ZM44.8047 100.695C44.8047 99.8516 44.6354 99.1823 44.2969 98.6875C43.9635 98.1927 43.4844 97.9453 42.8594 97.9453C42.0833 97.9453 41.526 98.2656 41.1875 98.9062V102.656C41.5312 103.312 42.0938 103.641 42.875 103.641C43.4792 103.641 43.9505 103.398 44.2891 102.914C44.6328 102.424 44.8047 101.685 44.8047 100.695ZM57.0312 102.703C57.0312 102.365 56.8906 102.107 56.6094 101.93C56.3333 101.753 55.8724 101.596 55.2266 101.461C54.5807 101.326 54.0417 101.154 53.6094 100.945C52.6615 100.487 52.1875 99.8229 52.1875 98.9531C52.1875 98.224 52.4948 97.6146 53.1094 97.125C53.724 96.6354 54.5052 96.3906 55.4531 96.3906C56.4635 96.3906 57.2786 96.6406 57.8984 97.1406C58.5234 97.6406 58.8359 98.2891 58.8359 99.0859H56.9375C56.9375 98.7214 56.8021 98.4193 56.5312 98.1797C56.2604 97.9349 55.901 97.8125 55.4531 97.8125C55.0365 97.8125 54.6953 97.9089 54.4297 98.1016C54.1693 98.2943 54.0391 98.5521 54.0391 98.875C54.0391 99.1667 54.1615 99.3932 54.4062 99.5547C54.651 99.7161 55.1458 99.8802 55.8906 100.047C56.6354 100.208 57.2188 100.404 57.6406 100.633C58.0677 100.857 58.3828 101.128 58.5859 101.445C58.7943 101.763 58.8984 102.148 58.8984 102.602C58.8984 103.362 58.5833 103.979 57.9531 104.453C57.3229 104.922 56.4974 105.156 55.4766 105.156C54.7839 105.156 54.1667 105.031 53.625 104.781C53.0833 104.531 52.6615 104.188 52.3594 103.75C52.0573 103.312 51.9062 102.841 51.9062 102.336H53.75C53.776 102.784 53.9453 103.13 54.2578 103.375C54.5703 103.615 54.9844 103.734 55.5 103.734C56 103.734 56.3802 103.641 56.6406 103.453C56.901 103.26 57.0312 103.01 57.0312 102.703ZM62.9375 94.4922V96.5469H64.4297V97.9531H62.9375V102.672C62.9375 102.995 63 103.229 63.125 103.375C63.2552 103.516 63.4844 103.586 63.8125 103.586C64.0312 103.586 64.2526 103.56 64.4766 103.508V104.977C64.0443 105.096 63.6276 105.156 63.2266 105.156C61.7682 105.156 61.0391 104.352 61.0391 102.742V97.9531H59.6484V96.5469H61.0391V94.4922H62.9375ZM70.3125 98.2812C70.0625 98.2396 69.8047 98.2188 69.5391 98.2188C68.6693 98.2188 68.0833 98.5521 67.7812 99.2188V105H65.8828V96.5469H67.6953L67.7422 97.4922C68.2005 96.7578 68.8359 96.3906 69.6484 96.3906C69.9193 96.3906 70.1432 96.4271 70.3203 96.5L70.3125 98.2812ZM73.5312 105H71.6328V96.5469H73.5312V105ZM71.5156 94.3516C71.5156 94.0599 71.6068 93.8177 71.7891 93.625C71.9766 93.4323 72.2422 93.3359 72.5859 93.3359C72.9297 93.3359 73.1953 93.4323 73.3828 93.625C73.5703 93.8177 73.6641 94.0599 73.6641 94.3516C73.6641 94.638 73.5703 94.8776 73.3828 95.0703C73.1953 95.2578 72.9297 95.3516 72.5859 95.3516C72.2422 95.3516 71.9766 95.2578 71.7891 95.0703C71.6068 94.8776 71.5156 94.638 71.5156 94.3516ZM77.3672 96.5469L77.4219 97.5234C78.0469 96.7682 78.8672 96.3906 79.8828 96.3906C81.6432 96.3906 82.5391 97.3984 82.5703 99.4141V105H80.6719V99.5234C80.6719 98.987 80.5547 98.5911 80.3203 98.3359C80.0911 98.0755 79.7135 97.9453 79.1875 97.9453C78.4219 97.9453 77.8516 98.2917 77.4766 98.9844V105H75.5781V96.5469H77.3672ZM84.1797 100.711C84.1797 99.3984 84.487 98.3516 85.1016 97.5703C85.7214 96.7839 86.5417 96.3906 87.5625 96.3906C88.526 96.3906 89.2839 96.7266 89.8359 97.3984L89.9219 96.5469H91.6328V104.742C91.6328 105.852 91.2865 106.727 90.5938 107.367C89.9062 108.008 88.9766 108.328 87.8047 108.328C87.1849 108.328 86.5781 108.198 85.9844 107.938C85.3958 107.682 84.9479 107.346 84.6406 106.93L85.5391 105.789C86.1224 106.482 86.8411 106.828 87.6953 106.828C88.3255 106.828 88.8229 106.656 89.1875 106.312C89.5521 105.974 89.7344 105.474 89.7344 104.812V104.242C89.1875 104.852 88.4583 105.156 87.5469 105.156C86.5573 105.156 85.7474 104.763 85.1172 103.977C84.4922 103.19 84.1797 102.102 84.1797 100.711ZM86.0703 100.875C86.0703 101.724 86.2422 102.393 86.5859 102.883C86.9349 103.367 87.4167 103.609 88.0312 103.609C88.7969 103.609 89.3646 103.281 89.7344 102.625V98.9062C89.375 98.2656 88.8125 97.9453 88.0469 97.9453C87.4219 97.9453 86.9349 98.1927 86.5859 98.6875C86.2422 99.1823 86.0703 99.9115 86.0703 100.875ZM99.5938 105H97.6953V96.5469H99.5938V105ZM97.5781 94.3516C97.5781 94.0599 97.6693 93.8177 97.8516 93.625C98.0391 93.4323 98.3047 93.3359 98.6484 93.3359C98.9922 93.3359 99.2578 93.4323 99.4453 93.625C99.6328 93.8177 99.7266 94.0599 99.7266 94.3516C99.7266 94.638 99.6328 94.8776 99.4453 95.0703C99.2578 95.2578 98.9922 95.3516 98.6484 95.3516C98.3047 95.3516 98.0391 95.2578 97.8516 95.0703C97.6693 94.8776 97.5781 94.638 97.5781 94.3516ZM103.43 96.5469L103.484 97.5234C104.109 96.7682 104.93 96.3906 105.945 96.3906C107.706 96.3906 108.602 97.3984 108.633 99.4141V105H106.734V99.5234C106.734 98.987 106.617 98.5911 106.383 98.3359C106.154 98.0755 105.776 97.9453 105.25 97.9453C104.484 97.9453 103.914 98.2917 103.539 98.9844V105H101.641V96.5469H103.43ZM112.953 94.4922V96.5469H114.445V97.9531H112.953V102.672C112.953 102.995 113.016 103.229 113.141 103.375C113.271 103.516 113.5 103.586 113.828 103.586C114.047 103.586 114.268 103.56 114.492 103.508V104.977C114.06 105.096 113.643 105.156 113.242 105.156C111.784 105.156 111.055 104.352 111.055 102.742V97.9531H109.664V96.5469H111.055V94.4922H112.953ZM123.672 107.812C121.833 107.297 120.896 106.122 120.859 104.289V102.625C120.859 101.453 120.357 100.867 119.352 100.867V99.4766C120.357 99.4766 120.859 98.888 120.859 97.7109V96.0547C120.875 95.1172 121.117 94.3594 121.586 93.7812C122.06 93.2031 122.755 92.7839 123.672 92.5234L124.047 93.6172C123.146 93.9089 122.68 94.7057 122.648 96.0078V97.6953C122.648 98.8672 122.198 99.6901 121.297 100.164C122.198 100.643 122.648 101.474 122.648 102.656V104.32C122.68 105.622 123.146 106.419 124.047 106.711L123.672 107.812ZM136.078 99.9219H131.406V103.422H136.867V105H129.43V93.625H136.812V95.2188H131.406V98.3594H136.078V99.9219ZM140.312 105H138.414V93H140.312V105ZM144.766 94.4922V96.5469H146.258V97.9531H144.766V102.672C144.766 102.995 144.828 103.229 144.953 103.375C145.083 103.516 145.312 103.586 145.641 103.586C145.859 103.586 146.081 103.56 146.305 103.508V104.977C145.872 105.096 145.456 105.156 145.055 105.156C143.596 105.156 142.867 104.352 142.867 102.742V97.9531H141.477V96.5469H142.867V94.4922H144.766ZM153 92.7969L153.969 93.3984C153.495 94.0911 153.25 94.8125 153.234 95.5625V96.75H151.57V95.6719C151.576 95.1719 151.711 94.651 151.977 94.1094C152.247 93.5625 152.589 93.125 153 92.7969ZM155.625 92.7969L156.594 93.3984C156.12 94.0911 155.875 94.8125 155.859 95.5625V96.75H154.195V95.6719C154.201 95.1719 154.336 94.651 154.602 94.1094C154.872 93.5625 155.214 93.125 155.625 92.7969ZM160.234 94.4922V96.5469H161.727V97.9531H160.234V102.672C160.234 102.995 160.297 103.229 160.422 103.375C160.552 103.516 160.781 103.586 161.109 103.586C161.328 103.586 161.549 103.56 161.773 103.508V104.977C161.341 105.096 160.924 105.156 160.523 105.156C159.065 105.156 158.336 104.352 158.336 102.742V97.9531H156.945V96.5469H158.336V94.4922H160.234ZM162.594 100.695C162.594 99.8672 162.758 99.1224 163.086 98.4609C163.414 97.7943 163.875 97.2839 164.469 96.9297C165.062 96.5703 165.745 96.3906 166.516 96.3906C167.656 96.3906 168.581 96.7578 169.289 97.4922C170.003 98.2266 170.388 99.2005 170.445 100.414L170.453 100.859C170.453 101.693 170.292 102.438 169.969 103.094C169.651 103.75 169.193 104.258 168.594 104.617C168 104.977 167.312 105.156 166.531 105.156C165.339 105.156 164.383 104.76 163.664 103.969C162.951 103.172 162.594 102.112 162.594 100.789V100.695ZM164.492 100.859C164.492 101.729 164.672 102.411 165.031 102.906C165.391 103.396 165.891 103.641 166.531 103.641C167.172 103.641 167.669 103.391 168.023 102.891C168.383 102.391 168.562 101.659 168.562 100.695C168.562 99.8411 168.378 99.1641 168.008 98.6641C167.643 98.1641 167.146 97.9141 166.516 97.9141C165.896 97.9141 165.404 98.1615 165.039 98.6562C164.674 99.1458 164.492 99.8802 164.492 100.859ZM174.438 94.4922V96.5469H175.93V97.9531H174.438V102.672C174.438 102.995 174.5 103.229 174.625 103.375C174.755 103.516 174.984 103.586 175.312 103.586C175.531 103.586 175.753 103.56 175.977 103.508V104.977C175.544 105.096 175.128 105.156 174.727 105.156C173.268 105.156 172.539 104.352 172.539 102.742V97.9531H171.148V96.5469H172.539V94.4922H174.438ZM176.797 100.695C176.797 99.8672 176.961 99.1224 177.289 98.4609C177.617 97.7943 178.078 97.2839 178.672 96.9297C179.266 96.5703 179.948 96.3906 180.719 96.3906C181.859 96.3906 182.784 96.7578 183.492 97.4922C184.206 98.2266 184.591 99.2005 184.648 100.414L184.656 100.859C184.656 101.693 184.495 102.438 184.172 103.094C183.854 103.75 183.396 104.258 182.797 104.617C182.203 104.977 181.516 105.156 180.734 105.156C179.542 105.156 178.586 104.76 177.867 103.969C177.154 103.172 176.797 102.112 176.797 100.789V100.695ZM178.695 100.859C178.695 101.729 178.875 102.411 179.234 102.906C179.594 103.396 180.094 103.641 180.734 103.641C181.375 103.641 181.872 103.391 182.227 102.891C182.586 102.391 182.766 101.659 182.766 100.695C182.766 99.8411 182.581 99.1641 182.211 98.6641C181.846 98.1641 181.349 97.9141 180.719 97.9141C180.099 97.9141 179.607 98.1615 179.242 98.6562C178.878 99.1458 178.695 99.8802 178.695 100.859ZM186.07 97L185.102 96.3984C185.57 95.7161 185.812 94.9948 185.828 94.2344V93H187.492V94.0781C187.492 94.6146 187.354 95.1562 187.078 95.7031C186.807 96.2448 186.471 96.6771 186.07 97ZM188.68 97L187.711 96.3984C188.18 95.7161 188.422 94.9948 188.438 94.2344V93H190.102V94.0781C190.102 94.6146 189.964 95.1562 189.688 95.7031C189.417 96.2448 189.081 96.6771 188.68 97ZM200.797 105H198.906V95.8672L196.117 96.8203V95.2188L200.555 93.5859H200.797V105ZM208.094 106.711C209.01 106.414 209.479 105.602 209.5 104.273V102.648C209.5 101.445 209.974 100.62 210.922 100.172C209.974 99.724 209.5 98.8906 209.5 97.6719V96.0547C209.479 94.7266 209.01 93.9141 208.094 93.6172L208.469 92.5234C209.417 92.7891 210.122 93.2214 210.586 93.8203C211.049 94.4141 211.281 95.1927 211.281 96.1562V97.7188C211.281 98.8906 211.786 99.4766 212.797 99.4766V100.867C211.786 100.867 211.281 101.453 211.281 102.625V104.164C211.281 105.138 211.047 105.922 210.578 106.516C210.115 107.115 209.411 107.547 208.469 107.812L208.094 106.711Z" fill="#5452F6"/>
<path d="M92.1172 65H90.1406L85.0703 56.9297V65H83.0938V53.625H85.0703L90.1562 61.7266V53.625H92.1172V65ZM103.531 59.6094C103.531 60.724 103.339 61.7031 102.953 62.5469C102.568 63.3854 102.016 64.0312 101.297 64.4844C100.583 64.9323 99.7604 65.1562 98.8281 65.1562C97.9062 65.1562 97.0833 64.9323 96.3594 64.4844C95.6406 64.0312 95.0833 63.388 94.6875 62.5547C94.2969 61.7214 94.099 60.7604 94.0938 59.6719V59.0312C94.0938 57.9219 94.2891 56.9427 94.6797 56.0938C95.0755 55.2448 95.6302 54.5964 96.3438 54.1484C97.0625 53.6953 97.8854 53.4688 98.8125 53.4688C99.7396 53.4688 100.56 53.6927 101.273 54.1406C101.992 54.5833 102.547 55.224 102.938 56.0625C103.328 56.8958 103.526 57.8672 103.531 58.9766V59.6094ZM101.555 59.0156C101.555 57.7552 101.315 56.7891 100.836 56.1172C100.362 55.4453 99.6875 55.1094 98.8125 55.1094C97.9583 55.1094 97.2891 55.4453 96.8047 56.1172C96.3255 56.7839 96.0807 57.7292 96.0703 58.9531V59.6094C96.0703 60.8594 96.3125 61.8255 96.7969 62.5078C97.2865 63.1901 97.9635 63.5312 98.8281 63.5312C99.7031 63.5312 100.375 63.1979 100.844 62.5312C101.318 61.8646 101.555 60.8906 101.555 59.6094V59.0156ZM114.523 65H112.547L107.477 56.9297V65H105.5V53.625H107.477L112.562 61.7266V53.625H114.523V65ZM123.508 59.9219H118.836V63.4219H124.297V65H116.859V53.625H124.242V55.2188H118.836V58.3594H123.508V59.9219ZM131.727 65H129.828V56.5469H131.727V65ZM129.711 54.3516C129.711 54.0599 129.802 53.8177 129.984 53.625C130.172 53.4323 130.438 53.3359 130.781 53.3359C131.125 53.3359 131.391 53.4323 131.578 53.625C131.766 53.8177 131.859 54.0599 131.859 54.3516C131.859 54.638 131.766 54.8776 131.578 55.0703C131.391 55.2578 131.125 55.3516 130.781 55.3516C130.438 55.3516 130.172 55.2578 129.984 55.0703C129.802 54.8776 129.711 54.638 129.711 54.3516ZM135.562 56.5469L135.617 57.5234C136.242 56.7682 137.062 56.3906 138.078 56.3906C139.839 56.3906 140.734 57.3984 140.766 59.4141V65H138.867V59.5234C138.867 58.987 138.75 58.5911 138.516 58.3359C138.286 58.0755 137.909 57.9453 137.383 57.9453C136.617 57.9453 136.047 58.2917 135.672 58.9844V65H133.773V56.5469H135.562ZM145.086 54.4922V56.5469H146.578V57.9531H145.086V62.6719C145.086 62.9948 145.148 63.2292 145.273 63.375C145.404 63.5156 145.633 63.5859 145.961 63.5859C146.18 63.5859 146.401 63.5599 146.625 63.5078V64.9766C146.193 65.0964 145.776 65.1562 145.375 65.1562C143.917 65.1562 143.188 64.3516 143.188 62.7422V57.9531H141.797V56.5469H143.188V54.4922H145.086Z" fill="#FF5A43"/>
<path d="M80.2891 22.7031C80.2891 22.3646 80.1484 22.1068 79.8672 21.9297C79.5911 21.7526 79.1302 21.5964 78.4844 21.4609C77.8385 21.3255 77.2995 21.1536 76.8672 20.9453C75.9193 20.487 75.4453 19.8229 75.4453 18.9531C75.4453 18.224 75.7526 17.6146 76.3672 17.125C76.9818 16.6354 77.763 16.3906 78.7109 16.3906C79.7214 16.3906 80.5365 16.6406 81.1562 17.1406C81.7812 17.6406 82.0938 18.2891 82.0938 19.0859H80.1953C80.1953 18.7214 80.0599 18.4193 79.7891 18.1797C79.5182 17.9349 79.1589 17.8125 78.7109 17.8125C78.2943 17.8125 77.9531 17.9089 77.6875 18.1016C77.4271 18.2943 77.2969 18.5521 77.2969 18.875C77.2969 19.1667 77.4193 19.3932 77.6641 19.5547C77.9089 19.7161 78.4036 19.8802 79.1484 20.0469C79.8932 20.2083 80.4766 20.4036 80.8984 20.6328C81.3255 20.8568 81.6406 21.1276 81.8438 21.4453C82.0521 21.763 82.1562 22.1484 82.1562 22.6016C82.1562 23.362 81.8411 23.9792 81.2109 24.4531C80.5807 24.9219 79.7552 25.1562 78.7344 25.1562C78.0417 25.1562 77.4245 25.0312 76.8828 24.7812C76.3411 24.5312 75.9193 24.1875 75.6172 23.75C75.3151 23.3125 75.1641 22.8411 75.1641 22.3359H77.0078C77.0339 22.7839 77.2031 23.1302 77.5156 23.375C77.8281 23.6146 78.2422 23.7344 78.7578 23.7344C79.2578 23.7344 79.638 23.6406 79.8984 23.4531C80.1589 23.2604 80.2891 23.0104 80.2891 22.7031ZM86.1953 14.4922V16.5469H87.6875V17.9531H86.1953V22.6719C86.1953 22.9948 86.2578 23.2292 86.3828 23.375C86.513 23.5156 86.7422 23.5859 87.0703 23.5859C87.2891 23.5859 87.5104 23.5599 87.7344 23.5078V24.9766C87.3021 25.0964 86.8854 25.1562 86.4844 25.1562C85.026 25.1562 84.2969 24.3516 84.2969 22.7422V17.9531H82.9062V16.5469H84.2969V14.4922H86.1953ZM93.5703 18.2812C93.3203 18.2396 93.0625 18.2188 92.7969 18.2188C91.9271 18.2188 91.3411 18.5521 91.0391 19.2188V25H89.1406V16.5469H90.9531L91 17.4922C91.4583 16.7578 92.0938 16.3906 92.9062 16.3906C93.1771 16.3906 93.401 16.4271 93.5781 16.5L93.5703 18.2812ZM96.7891 25H94.8906V16.5469H96.7891V25ZM94.7734 14.3516C94.7734 14.0599 94.8646 13.8177 95.0469 13.625C95.2344 13.4323 95.5 13.3359 95.8438 13.3359C96.1875 13.3359 96.4531 13.4323 96.6406 13.625C96.8281 13.8177 96.9219 14.0599 96.9219 14.3516C96.9219 14.638 96.8281 14.8776 96.6406 15.0703C96.4531 15.2578 96.1875 15.3516 95.8438 15.3516C95.5 15.3516 95.2344 15.2578 95.0469 15.0703C94.8646 14.8776 94.7734 14.638 94.7734 14.3516ZM100.625 16.5469L100.68 17.5234C101.305 16.7682 102.125 16.3906 103.141 16.3906C104.901 16.3906 105.797 17.3984 105.828 19.4141V25H103.93V19.5234C103.93 18.987 103.812 18.5911 103.578 18.3359C103.349 18.0755 102.971 17.9453 102.445 17.9453C101.68 17.9453 101.109 18.2917 100.734 18.9844V25H98.8359V16.5469H100.625ZM107.438 20.7109C107.438 19.3984 107.745 18.3516 108.359 17.5703C108.979 16.7839 109.799 16.3906 110.82 16.3906C111.784 16.3906 112.542 16.7266 113.094 17.3984L113.18 16.5469H114.891V24.7422C114.891 25.8516 114.544 26.7266 113.852 27.3672C113.164 28.0078 112.234 28.3281 111.062 28.3281C110.443 28.3281 109.836 28.1979 109.242 27.9375C108.654 27.6823 108.206 27.3464 107.898 26.9297L108.797 25.7891C109.38 26.4818 110.099 26.8281 110.953 26.8281C111.583 26.8281 112.081 26.6562 112.445 26.3125C112.81 25.974 112.992 25.474 112.992 24.8125V24.2422C112.445 24.8516 111.716 25.1562 110.805 25.1562C109.815 25.1562 109.005 24.763 108.375 23.9766C107.75 23.1901 107.438 22.1016 107.438 20.7109ZM109.328 20.875C109.328 21.724 109.5 22.3932 109.844 22.8828C110.193 23.3672 110.674 23.6094 111.289 23.6094C112.055 23.6094 112.622 23.2812 112.992 22.625V18.9062C112.633 18.2656 112.07 17.9453 111.305 17.9453C110.68 17.9453 110.193 18.1927 109.844 18.6875C109.5 19.1823 109.328 19.9115 109.328 20.875ZM122.133 12.7969L123.102 13.3984C122.628 14.0911 122.383 14.8125 122.367 15.5625V16.75H120.703V15.6719C120.708 15.1719 120.844 14.651 121.109 14.1094C121.38 13.5625 121.721 13.125 122.133 12.7969ZM124.758 12.7969L125.727 13.3984C125.253 14.0911 125.008 14.8125 124.992 15.5625V16.75H123.328V15.6719C123.333 15.1719 123.469 14.651 123.734 14.1094C124.005 13.5625 124.346 13.125 124.758 12.7969ZM129.367 14.4922V16.5469H130.859V17.9531H129.367V22.6719C129.367 22.9948 129.43 23.2292 129.555 23.375C129.685 23.5156 129.914 23.5859 130.242 23.5859C130.461 23.5859 130.682 23.5599 130.906 23.5078V24.9766C130.474 25.0964 130.057 25.1562 129.656 25.1562C128.198 25.1562 127.469 24.3516 127.469 22.7422V17.9531H126.078V16.5469H127.469V14.4922H129.367ZM131.727 20.6953C131.727 19.8672 131.891 19.1224 132.219 18.4609C132.547 17.7943 133.008 17.2839 133.602 16.9297C134.195 16.5703 134.878 16.3906 135.648 16.3906C136.789 16.3906 137.714 16.7578 138.422 17.4922C139.135 18.2266 139.521 19.2005 139.578 20.4141L139.586 20.8594C139.586 21.6927 139.424 22.4375 139.102 23.0938C138.784 23.75 138.326 24.2578 137.727 24.6172C137.133 24.9766 136.445 25.1562 135.664 25.1562C134.471 25.1562 133.516 24.7604 132.797 23.9688C132.083 23.1719 131.727 22.112 131.727 20.7891V20.6953ZM133.625 20.8594C133.625 21.7292 133.805 22.4115 134.164 22.9062C134.523 23.3958 135.023 23.6406 135.664 23.6406C136.305 23.6406 136.802 23.3906 137.156 22.8906C137.516 22.3906 137.695 21.6589 137.695 20.6953C137.695 19.8411 137.51 19.1641 137.141 18.6641C136.776 18.1641 136.279 17.9141 135.648 17.9141C135.029 17.9141 134.536 18.1615 134.172 18.6562C133.807 19.1458 133.625 19.8802 133.625 20.8594ZM143.57 14.4922V16.5469H145.062V17.9531H143.57V22.6719C143.57 22.9948 143.633 23.2292 143.758 23.375C143.888 23.5156 144.117 23.5859 144.445 23.5859C144.664 23.5859 144.885 23.5599 145.109 23.5078V24.9766C144.677 25.0964 144.26 25.1562 143.859 25.1562C142.401 25.1562 141.672 24.3516 141.672 22.7422V17.9531H140.281V16.5469H141.672V14.4922H143.57ZM145.93 20.6953C145.93 19.8672 146.094 19.1224 146.422 18.4609C146.75 17.7943 147.211 17.2839 147.805 16.9297C148.398 16.5703 149.081 16.3906 149.852 16.3906C150.992 16.3906 151.917 16.7578 152.625 17.4922C153.339 18.2266 153.724 19.2005 153.781 20.4141L153.789 20.8594C153.789 21.6927 153.628 22.4375 153.305 23.0938C152.987 23.75 152.529 24.2578 151.93 24.6172C151.336 24.9766 150.648 25.1562 149.867 25.1562C148.674 25.1562 147.719 24.7604 147 23.9688C146.286 23.1719 145.93 22.112 145.93 20.7891V20.6953ZM147.828 20.8594C147.828 21.7292 148.008 22.4115 148.367 22.9062C148.727 23.3958 149.227 23.6406 149.867 23.6406C150.508 23.6406 151.005 23.3906 151.359 22.8906C151.719 22.3906 151.898 21.6589 151.898 20.6953C151.898 19.8411 151.714 19.1641 151.344 18.6641C150.979 18.1641 150.482 17.9141 149.852 17.9141C149.232 17.9141 148.74 18.1615 148.375 18.6562C148.01 19.1458 147.828 19.8802 147.828 20.8594Z" fill="#FF5A43"/>
<path d="M0.5 8C0.5 3.85786 3.85786 0.5 8 0.5H221C225.142 0.5 228.5 3.85787 228.5 8V119.5H0.5V8Z" stroke="#5452F6"/>
</g>
<g filter="url(#filter5_d)">
<path d="M0 119H229V135C229 139.418 225.418 143 221 143H8.00001C3.58173 143 0 139.418 0 135V119Z" fill="#EEEEFF"/>
<path d="M0.5 119.5H228.5V135C228.5 139.142 225.142 142.5 221 142.5H8.00001C3.85787 142.5 0.5 139.142 0.5 135V119.5Z" stroke="#5452F6"/>
</g>
<g filter="url(#filter6_d)">
<path d="M0 8C0 3.58172 3.58172 0 8 0H221C225.418 0 229 3.58172 229 8V120H0V8Z" fill="white"/>
<line x1="0.5" y1="79.5" x2="228.5" y2="79.5" stroke="#5452F6"/>
<line x1="0.5" y1="39.5" x2="228.5" y2="39.5" stroke="#5452F6"/>
<path d="M18.5 96.5469L18.5547 97.4297C19.1484 96.737 19.9609 96.3906 20.9922 96.3906C22.1224 96.3906 22.8958 96.8229 23.3125 97.6875C23.9271 96.8229 24.7917 96.3906 25.9062 96.3906C26.8385 96.3906 27.5312 96.6484 27.9844 97.1641C28.4427 97.6797 28.6771 98.4401 28.6875 99.4453V105H26.7891V99.5C26.7891 98.9635 26.6719 98.5703 26.4375 98.3203C26.2031 98.0703 25.8151 97.9453 25.2734 97.9453C24.8411 97.9453 24.487 98.0625 24.2109 98.2969C23.9401 98.526 23.75 98.8281 23.6406 99.2031L23.6484 105H21.75V99.4375C21.724 98.4427 21.2161 97.9453 20.2266 97.9453C19.4661 97.9453 18.9271 98.2552 18.6094 98.875V105H16.7109V96.5469H18.5ZM35.6875 105C35.6042 104.839 35.5312 104.576 35.4688 104.211C34.8646 104.841 34.125 105.156 33.25 105.156C32.401 105.156 31.7083 104.914 31.1719 104.43C30.6354 103.945 30.3672 103.346 30.3672 102.633C30.3672 101.732 30.7005 101.042 31.3672 100.562C32.0391 100.078 32.9974 99.8359 34.2422 99.8359H35.4062V99.2812C35.4062 98.8438 35.2839 98.4948 35.0391 98.2344C34.7943 97.9688 34.4219 97.8359 33.9219 97.8359C33.4896 97.8359 33.1354 97.9453 32.8594 98.1641C32.5833 98.3776 32.4453 98.651 32.4453 98.9844H30.5469C30.5469 98.5208 30.7005 98.0885 31.0078 97.6875C31.3151 97.2812 31.7318 96.9635 32.2578 96.7344C32.7891 96.5052 33.3802 96.3906 34.0312 96.3906C35.0208 96.3906 35.8099 96.6406 36.3984 97.1406C36.987 97.6354 37.2891 98.3333 37.3047 99.2344V103.047C37.3047 103.807 37.4115 104.414 37.625 104.867V105H35.6875ZM33.6016 103.633C33.9766 103.633 34.3281 103.542 34.6562 103.359C34.9896 103.177 35.2396 102.932 35.4062 102.625V101.031H34.3828C33.6797 101.031 33.151 101.154 32.7969 101.398C32.4427 101.643 32.2656 101.99 32.2656 102.438C32.2656 102.802 32.3854 103.094 32.625 103.312C32.8698 103.526 33.1953 103.633 33.6016 103.633ZM46.6953 100.859C46.6953 102.167 46.3984 103.211 45.8047 103.992C45.2109 104.768 44.4141 105.156 43.4141 105.156C42.487 105.156 41.7448 104.852 41.1875 104.242V108.25H39.2891V96.5469H41.0391L41.1172 97.4062C41.6745 96.7292 42.4323 96.3906 43.3906 96.3906C44.4219 96.3906 45.2292 96.776 45.8125 97.5469C46.401 98.3125 46.6953 99.3776 46.6953 100.742V100.859ZM44.8047 100.695C44.8047 99.8516 44.6354 99.1823 44.2969 98.6875C43.9635 98.1927 43.4844 97.9453 42.8594 97.9453C42.0833 97.9453 41.526 98.2656 41.1875 98.9062V102.656C41.5312 103.312 42.0938 103.641 42.875 103.641C43.4792 103.641 43.9505 103.398 44.2891 102.914C44.6328 102.424 44.8047 101.685 44.8047 100.695ZM57.0312 102.703C57.0312 102.365 56.8906 102.107 56.6094 101.93C56.3333 101.753 55.8724 101.596 55.2266 101.461C54.5807 101.326 54.0417 101.154 53.6094 100.945C52.6615 100.487 52.1875 99.8229 52.1875 98.9531C52.1875 98.224 52.4948 97.6146 53.1094 97.125C53.724 96.6354 54.5052 96.3906 55.4531 96.3906C56.4635 96.3906 57.2786 96.6406 57.8984 97.1406C58.5234 97.6406 58.8359 98.2891 58.8359 99.0859H56.9375C56.9375 98.7214 56.8021 98.4193 56.5312 98.1797C56.2604 97.9349 55.901 97.8125 55.4531 97.8125C55.0365 97.8125 54.6953 97.9089 54.4297 98.1016C54.1693 98.2943 54.0391 98.5521 54.0391 98.875C54.0391 99.1667 54.1615 99.3932 54.4062 99.5547C54.651 99.7161 55.1458 99.8802 55.8906 100.047C56.6354 100.208 57.2188 100.404 57.6406 100.633C58.0677 100.857 58.3828 101.128 58.5859 101.445C58.7943 101.763 58.8984 102.148 58.8984 102.602C58.8984 103.362 58.5833 103.979 57.9531 104.453C57.3229 104.922 56.4974 105.156 55.4766 105.156C54.7839 105.156 54.1667 105.031 53.625 104.781C53.0833 104.531 52.6615 104.188 52.3594 103.75C52.0573 103.312 51.9062 102.841 51.9062 102.336H53.75C53.776 102.784 53.9453 103.13 54.2578 103.375C54.5703 103.615 54.9844 103.734 55.5 103.734C56 103.734 56.3802 103.641 56.6406 103.453C56.901 103.26 57.0312 103.01 57.0312 102.703ZM62.9375 94.4922V96.5469H64.4297V97.9531H62.9375V102.672C62.9375 102.995 63 103.229 63.125 103.375C63.2552 103.516 63.4844 103.586 63.8125 103.586C64.0312 103.586 64.2526 103.56 64.4766 103.508V104.977C64.0443 105.096 63.6276 105.156 63.2266 105.156C61.7682 105.156 61.0391 104.352 61.0391 102.742V97.9531H59.6484V96.5469H61.0391V94.4922H62.9375ZM70.3125 98.2812C70.0625 98.2396 69.8047 98.2188 69.5391 98.2188C68.6693 98.2188 68.0833 98.5521 67.7812 99.2188V105H65.8828V96.5469H67.6953L67.7422 97.4922C68.2005 96.7578 68.8359 96.3906 69.6484 96.3906C69.9193 96.3906 70.1432 96.4271 70.3203 96.5L70.3125 98.2812ZM73.5312 105H71.6328V96.5469H73.5312V105ZM71.5156 94.3516C71.5156 94.0599 71.6068 93.8177 71.7891 93.625C71.9766 93.4323 72.2422 93.3359 72.5859 93.3359C72.9297 93.3359 73.1953 93.4323 73.3828 93.625C73.5703 93.8177 73.6641 94.0599 73.6641 94.3516C73.6641 94.638 73.5703 94.8776 73.3828 95.0703C73.1953 95.2578 72.9297 95.3516 72.5859 95.3516C72.2422 95.3516 71.9766 95.2578 71.7891 95.0703C71.6068 94.8776 71.5156 94.638 71.5156 94.3516ZM77.3672 96.5469L77.4219 97.5234C78.0469 96.7682 78.8672 96.3906 79.8828 96.3906C81.6432 96.3906 82.5391 97.3984 82.5703 99.4141V105H80.6719V99.5234C80.6719 98.987 80.5547 98.5911 80.3203 98.3359C80.0911 98.0755 79.7135 97.9453 79.1875 97.9453C78.4219 97.9453 77.8516 98.2917 77.4766 98.9844V105H75.5781V96.5469H77.3672ZM84.1797 100.711C84.1797 99.3984 84.487 98.3516 85.1016 97.5703C85.7214 96.7839 86.5417 96.3906 87.5625 96.3906C88.526 96.3906 89.2839 96.7266 89.8359 97.3984L89.9219 96.5469H91.6328V104.742C91.6328 105.852 91.2865 106.727 90.5938 107.367C89.9062 108.008 88.9766 108.328 87.8047 108.328C87.1849 108.328 86.5781 108.198 85.9844 107.938C85.3958 107.682 84.9479 107.346 84.6406 106.93L85.5391 105.789C86.1224 106.482 86.8411 106.828 87.6953 106.828C88.3255 106.828 88.8229 106.656 89.1875 106.312C89.5521 105.974 89.7344 105.474 89.7344 104.812V104.242C89.1875 104.852 88.4583 105.156 87.5469 105.156C86.5573 105.156 85.7474 104.763 85.1172 103.977C84.4922 103.19 84.1797 102.102 84.1797 100.711ZM86.0703 100.875C86.0703 101.724 86.2422 102.393 86.5859 102.883C86.9349 103.367 87.4167 103.609 88.0312 103.609C88.7969 103.609 89.3646 103.281 89.7344 102.625V98.9062C89.375 98.2656 88.8125 97.9453 88.0469 97.9453C87.4219 97.9453 86.9349 98.1927 86.5859 98.6875C86.2422 99.1823 86.0703 99.9115 86.0703 100.875ZM99.5938 105H97.6953V96.5469H99.5938V105ZM97.5781 94.3516C97.5781 94.0599 97.6693 93.8177 97.8516 93.625C98.0391 93.4323 98.3047 93.3359 98.6484 93.3359C98.9922 93.3359 99.2578 93.4323 99.4453 93.625C99.6328 93.8177 99.7266 94.0599 99.7266 94.3516C99.7266 94.638 99.6328 94.8776 99.4453 95.0703C99.2578 95.2578 98.9922 95.3516 98.6484 95.3516C98.3047 95.3516 98.0391 95.2578 97.8516 95.0703C97.6693 94.8776 97.5781 94.638 97.5781 94.3516ZM103.43 96.5469L103.484 97.5234C104.109 96.7682 104.93 96.3906 105.945 96.3906C107.706 96.3906 108.602 97.3984 108.633 99.4141V105H106.734V99.5234C106.734 98.987 106.617 98.5911 106.383 98.3359C106.154 98.0755 105.776 97.9453 105.25 97.9453C104.484 97.9453 103.914 98.2917 103.539 98.9844V105H101.641V96.5469H103.43ZM112.953 94.4922V96.5469H114.445V97.9531H112.953V102.672C112.953 102.995 113.016 103.229 113.141 103.375C113.271 103.516 113.5 103.586 113.828 103.586C114.047 103.586 114.268 103.56 114.492 103.508V104.977C114.06 105.096 113.643 105.156 113.242 105.156C111.784 105.156 111.055 104.352 111.055 102.742V97.9531H109.664V96.5469H111.055V94.4922H112.953ZM123.672 107.812C121.833 107.297 120.896 106.122 120.859 104.289V102.625C120.859 101.453 120.357 100.867 119.352 100.867V99.4766C120.357 99.4766 120.859 98.888 120.859 97.7109V96.0547C120.875 95.1172 121.117 94.3594 121.586 93.7812C122.06 93.2031 122.755 92.7839 123.672 92.5234L124.047 93.6172C123.146 93.9089 122.68 94.7057 122.648 96.0078V97.6953C122.648 98.8672 122.198 99.6901 121.297 100.164C122.198 100.643 122.648 101.474 122.648 102.656V104.32C122.68 105.622 123.146 106.419 124.047 106.711L123.672 107.812ZM136.078 99.9219H131.406V103.422H136.867V105H129.43V93.625H136.812V95.2188H131.406V98.3594H136.078V99.9219ZM140.312 105H138.414V93H140.312V105ZM144.766 94.4922V96.5469H146.258V97.9531H144.766V102.672C144.766 102.995 144.828 103.229 144.953 103.375C145.083 103.516 145.312 103.586 145.641 103.586C145.859 103.586 146.081 103.56 146.305 103.508V104.977C145.872 105.096 145.456 105.156 145.055 105.156C143.596 105.156 142.867 104.352 142.867 102.742V97.9531H141.477V96.5469H142.867V94.4922H144.766ZM153 92.7969L153.969 93.3984C153.495 94.0911 153.25 94.8125 153.234 95.5625V96.75H151.57V95.6719C151.576 95.1719 151.711 94.651 151.977 94.1094C152.247 93.5625 152.589 93.125 153 92.7969ZM155.625 92.7969L156.594 93.3984C156.12 94.0911 155.875 94.8125 155.859 95.5625V96.75H154.195V95.6719C154.201 95.1719 154.336 94.651 154.602 94.1094C154.872 93.5625 155.214 93.125 155.625 92.7969ZM160.234 94.4922V96.5469H161.727V97.9531H160.234V102.672C160.234 102.995 160.297 103.229 160.422 103.375C160.552 103.516 160.781 103.586 161.109 103.586C161.328 103.586 161.549 103.56 161.773 103.508V104.977C161.341 105.096 160.924 105.156 160.523 105.156C159.065 105.156 158.336 104.352 158.336 102.742V97.9531H156.945V96.5469H158.336V94.4922H160.234ZM162.594 100.695C162.594 99.8672 162.758 99.1224 163.086 98.4609C163.414 97.7943 163.875 97.2839 164.469 96.9297C165.062 96.5703 165.745 96.3906 166.516 96.3906C167.656 96.3906 168.581 96.7578 169.289 97.4922C170.003 98.2266 170.388 99.2005 170.445 100.414L170.453 100.859C170.453 101.693 170.292 102.438 169.969 103.094C169.651 103.75 169.193 104.258 168.594 104.617C168 104.977 167.312 105.156 166.531 105.156C165.339 105.156 164.383 104.76 163.664 103.969C162.951 103.172 162.594 102.112 162.594 100.789V100.695ZM164.492 100.859C164.492 101.729 164.672 102.411 165.031 102.906C165.391 103.396 165.891 103.641 166.531 103.641C167.172 103.641 167.669 103.391 168.023 102.891C168.383 102.391 168.562 101.659 168.562 100.695C168.562 99.8411 168.378 99.1641 168.008 98.6641C167.643 98.1641 167.146 97.9141 166.516 97.9141C165.896 97.9141 165.404 98.1615 165.039 98.6562C164.674 99.1458 164.492 99.8802 164.492 100.859ZM174.438 94.4922V96.5469H175.93V97.9531H174.438V102.672C174.438 102.995 174.5 103.229 174.625 103.375C174.755 103.516 174.984 103.586 175.312 103.586C175.531 103.586 175.753 103.56 175.977 103.508V104.977C175.544 105.096 175.128 105.156 174.727 105.156C173.268 105.156 172.539 104.352 172.539 102.742V97.9531H171.148V96.5469H172.539V94.4922H174.438ZM176.797 100.695C176.797 99.8672 176.961 99.1224 177.289 98.4609C177.617 97.7943 178.078 97.2839 178.672 96.9297C179.266 96.5703 179.948 96.3906 180.719 96.3906C181.859 96.3906 182.784 96.7578 183.492 97.4922C184.206 98.2266 184.591 99.2005 184.648 100.414L184.656 100.859C184.656 101.693 184.495 102.438 184.172 103.094C183.854 103.75 183.396 104.258 182.797 104.617C182.203 104.977 181.516 105.156 180.734 105.156C179.542 105.156 178.586 104.76 177.867 103.969C177.154 103.172 176.797 102.112 176.797 100.789V100.695ZM178.695 100.859C178.695 101.729 178.875 102.411 179.234 102.906C179.594 103.396 180.094 103.641 180.734 103.641C181.375 103.641 181.872 103.391 182.227 102.891C182.586 102.391 182.766 101.659 182.766 100.695C182.766 99.8411 182.581 99.1641 182.211 98.6641C181.846 98.1641 181.349 97.9141 180.719 97.9141C180.099 97.9141 179.607 98.1615 179.242 98.6562C178.878 99.1458 178.695 99.8802 178.695 100.859ZM186.07 97L185.102 96.3984C185.57 95.7161 185.812 94.9948 185.828 94.2344V93H187.492V94.0781C187.492 94.6146 187.354 95.1562 187.078 95.7031C186.807 96.2448 186.471 96.6771 186.07 97ZM188.68 97L187.711 96.3984C188.18 95.7161 188.422 94.9948 188.438 94.2344V93H190.102V94.0781C190.102 94.6146 189.964 95.1562 189.688 95.7031C189.417 96.2448 189.081 96.6771 188.68 97ZM200.797 105H198.906V95.8672L196.117 96.8203V95.2188L200.555 93.5859H200.797V105ZM208.094 106.711C209.01 106.414 209.479 105.602 209.5 104.273V102.648C209.5 101.445 209.974 100.62 210.922 100.172C209.974 99.724 209.5 98.8906 209.5 97.6719V96.0547C209.479 94.7266 209.01 93.9141 208.094 93.6172L208.469 92.5234C209.417 92.7891 210.122 93.2214 210.586 93.8203C211.049 94.4141 211.281 95.1927 211.281 96.1562V97.7188C211.281 98.8906 211.786 99.4766 212.797 99.4766V100.867C211.786 100.867 211.281 101.453 211.281 102.625V104.164C211.281 105.138 211.047 105.922 210.578 106.516C210.115 107.115 209.411 107.547 208.469 107.812L208.094 106.711Z" fill="#5452F6"/>
<path d="M92.1172 65H90.1406L85.0703 56.9297V65H83.0938V53.625H85.0703L90.1562 61.7266V53.625H92.1172V65ZM103.531 59.6094C103.531 60.724 103.339 61.7031 102.953 62.5469C102.568 63.3854 102.016 64.0312 101.297 64.4844C100.583 64.9323 99.7604 65.1562 98.8281 65.1562C97.9062 65.1562 97.0833 64.9323 96.3594 64.4844C95.6406 64.0312 95.0833 63.388 94.6875 62.5547C94.2969 61.7214 94.099 60.7604 94.0938 59.6719V59.0312C94.0938 57.9219 94.2891 56.9427 94.6797 56.0938C95.0755 55.2448 95.6302 54.5964 96.3438 54.1484C97.0625 53.6953 97.8854 53.4688 98.8125 53.4688C99.7396 53.4688 100.56 53.6927 101.273 54.1406C101.992 54.5833 102.547 55.224 102.938 56.0625C103.328 56.8958 103.526 57.8672 103.531 58.9766V59.6094ZM101.555 59.0156C101.555 57.7552 101.315 56.7891 100.836 56.1172C100.362 55.4453 99.6875 55.1094 98.8125 55.1094C97.9583 55.1094 97.2891 55.4453 96.8047 56.1172C96.3255 56.7839 96.0807 57.7292 96.0703 58.9531V59.6094C96.0703 60.8594 96.3125 61.8255 96.7969 62.5078C97.2865 63.1901 97.9635 63.5312 98.8281 63.5312C99.7031 63.5312 100.375 63.1979 100.844 62.5312C101.318 61.8646 101.555 60.8906 101.555 59.6094V59.0156ZM114.523 65H112.547L107.477 56.9297V65H105.5V53.625H107.477L112.562 61.7266V53.625H114.523V65ZM123.508 59.9219H118.836V63.4219H124.297V65H116.859V53.625H124.242V55.2188H118.836V58.3594H123.508V59.9219ZM131.727 65H129.828V56.5469H131.727V65ZM129.711 54.3516C129.711 54.0599 129.802 53.8177 129.984 53.625C130.172 53.4323 130.438 53.3359 130.781 53.3359C131.125 53.3359 131.391 53.4323 131.578 53.625C131.766 53.8177 131.859 54.0599 131.859 54.3516C131.859 54.638 131.766 54.8776 131.578 55.0703C131.391 55.2578 131.125 55.3516 130.781 55.3516C130.438 55.3516 130.172 55.2578 129.984 55.0703C129.802 54.8776 129.711 54.638 129.711 54.3516ZM135.562 56.5469L135.617 57.5234C136.242 56.7682 137.062 56.3906 138.078 56.3906C139.839 56.3906 140.734 57.3984 140.766 59.4141V65H138.867V59.5234C138.867 58.987 138.75 58.5911 138.516 58.3359C138.286 58.0755 137.909 57.9453 137.383 57.9453C136.617 57.9453 136.047 58.2917 135.672 58.9844V65H133.773V56.5469H135.562ZM145.086 54.4922V56.5469H146.578V57.9531H145.086V62.6719C145.086 62.9948 145.148 63.2292 145.273 63.375C145.404 63.5156 145.633 63.5859 145.961 63.5859C146.18 63.5859 146.401 63.5599 146.625 63.5078V64.9766C146.193 65.0964 145.776 65.1562 145.375 65.1562C143.917 65.1562 143.188 64.3516 143.188 62.7422V57.9531H141.797V56.5469H143.188V54.4922H145.086Z" fill="#FF5A43"/>
<path d="M77.5234 22.7031C77.5234 22.3646 77.3828 22.1068 77.1016 21.9297C76.8255 21.7526 76.3646 21.5964 75.7188 21.4609C75.0729 21.3255 74.5339 21.1536 74.1016 20.9453C73.1536 20.487 72.6797 19.8229 72.6797 18.9531C72.6797 18.224 72.987 17.6146 73.6016 17.125C74.2161 16.6354 74.9974 16.3906 75.9453 16.3906C76.9557 16.3906 77.7708 16.6406 78.3906 17.1406C79.0156 17.6406 79.3281 18.2891 79.3281 19.0859H77.4297C77.4297 18.7214 77.2943 18.4193 77.0234 18.1797C76.7526 17.9349 76.3932 17.8125 75.9453 17.8125C75.5286 17.8125 75.1875 17.9089 74.9219 18.1016C74.6615 18.2943 74.5312 18.5521 74.5312 18.875C74.5312 19.1667 74.6536 19.3932 74.8984 19.5547C75.1432 19.7161 75.638 19.8802 76.3828 20.0469C77.1276 20.2083 77.7109 20.4036 78.1328 20.6328C78.5599 20.8568 78.875 21.1276 79.0781 21.4453C79.2865 21.763 79.3906 22.1484 79.3906 22.6016C79.3906 23.362 79.0755 23.9792 78.4453 24.4531C77.8151 24.9219 76.9896 25.1562 75.9688 25.1562C75.276 25.1562 74.6589 25.0312 74.1172 24.7812C73.5755 24.5312 73.1536 24.1875 72.8516 23.75C72.5495 23.3125 72.3984 22.8411 72.3984 22.3359H74.2422C74.2682 22.7839 74.4375 23.1302 74.75 23.375C75.0625 23.6146 75.4766 23.7344 75.9922 23.7344C76.4922 23.7344 76.8724 23.6406 77.1328 23.4531C77.3932 23.2604 77.5234 23.0104 77.5234 22.7031ZM83.4297 14.4922V16.5469H84.9219V17.9531H83.4297V22.6719C83.4297 22.9948 83.4922 23.2292 83.6172 23.375C83.7474 23.5156 83.9766 23.5859 84.3047 23.5859C84.5234 23.5859 84.7448 23.5599 84.9688 23.5078V24.9766C84.5365 25.0964 84.1198 25.1562 83.7188 25.1562C82.2604 25.1562 81.5312 24.3516 81.5312 22.7422V17.9531H80.1406V16.5469H81.5312V14.4922H83.4297ZM90.8047 18.2812C90.5547 18.2396 90.2969 18.2188 90.0312 18.2188C89.1615 18.2188 88.5755 18.5521 88.2734 19.2188V25H86.375V16.5469H88.1875L88.2344 17.4922C88.6927 16.7578 89.3281 16.3906 90.1406 16.3906C90.4115 16.3906 90.6354 16.4271 90.8125 16.5L90.8047 18.2812ZM94.0234 25H92.125V16.5469H94.0234V25ZM92.0078 14.3516C92.0078 14.0599 92.099 13.8177 92.2812 13.625C92.4688 13.4323 92.7344 13.3359 93.0781 13.3359C93.4219 13.3359 93.6875 13.4323 93.875 13.625C94.0625 13.8177 94.1562 14.0599 94.1562 14.3516C94.1562 14.638 94.0625 14.8776 93.875 15.0703C93.6875 15.2578 93.4219 15.3516 93.0781 15.3516C92.7344 15.3516 92.4688 15.2578 92.2812 15.0703C92.099 14.8776 92.0078 14.638 92.0078 14.3516ZM97.8594 16.5469L97.9141 17.5234C98.5391 16.7682 99.3594 16.3906 100.375 16.3906C102.135 16.3906 103.031 17.3984 103.062 19.4141V25H101.164V19.5234C101.164 18.987 101.047 18.5911 100.812 18.3359C100.583 18.0755 100.206 17.9453 99.6797 17.9453C98.9141 17.9453 98.3438 18.2917 97.9688 18.9844V25H96.0703V16.5469H97.8594ZM104.672 20.7109C104.672 19.3984 104.979 18.3516 105.594 17.5703C106.214 16.7839 107.034 16.3906 108.055 16.3906C109.018 16.3906 109.776 16.7266 110.328 17.3984L110.414 16.5469H112.125V24.7422C112.125 25.8516 111.779 26.7266 111.086 27.3672C110.398 28.0078 109.469 28.3281 108.297 28.3281C107.677 28.3281 107.07 28.1979 106.477 27.9375C105.888 27.6823 105.44 27.3464 105.133 26.9297L106.031 25.7891C106.615 26.4818 107.333 26.8281 108.188 26.8281C108.818 26.8281 109.315 26.6562 109.68 26.3125C110.044 25.974 110.227 25.474 110.227 24.8125V24.2422C109.68 24.8516 108.951 25.1562 108.039 25.1562C107.049 25.1562 106.24 24.763 105.609 23.9766C104.984 23.1901 104.672 22.1016 104.672 20.7109ZM106.562 20.875C106.562 21.724 106.734 22.3932 107.078 22.8828C107.427 23.3672 107.909 23.6094 108.523 23.6094C109.289 23.6094 109.857 23.2812 110.227 22.625V18.9062C109.867 18.2656 109.305 17.9453 108.539 17.9453C107.914 17.9453 107.427 18.1927 107.078 18.6875C106.734 19.1823 106.562 19.9115 106.562 20.875ZM119.367 12.7969L120.336 13.3984C119.862 14.0911 119.617 14.8125 119.602 15.5625V16.75H117.938V15.6719C117.943 15.1719 118.078 14.651 118.344 14.1094C118.615 13.5625 118.956 13.125 119.367 12.7969ZM121.992 12.7969L122.961 13.3984C122.487 14.0911 122.242 14.8125 122.227 15.5625V16.75H120.562V15.6719C120.568 15.1719 120.703 14.651 120.969 14.1094C121.24 13.5625 121.581 13.125 121.992 12.7969ZM126.602 14.4922V16.5469H128.094V17.9531H126.602V22.6719C126.602 22.9948 126.664 23.2292 126.789 23.375C126.919 23.5156 127.148 23.5859 127.477 23.5859C127.695 23.5859 127.917 23.5599 128.141 23.5078V24.9766C127.708 25.0964 127.292 25.1562 126.891 25.1562C125.432 25.1562 124.703 24.3516 124.703 22.7422V17.9531H123.312V16.5469H124.703V14.4922H126.602ZM128.961 20.6953C128.961 19.8672 129.125 19.1224 129.453 18.4609C129.781 17.7943 130.242 17.2839 130.836 16.9297C131.43 16.5703 132.112 16.3906 132.883 16.3906C134.023 16.3906 134.948 16.7578 135.656 17.4922C136.37 18.2266 136.755 19.2005 136.812 20.4141L136.82 20.8594C136.82 21.6927 136.659 22.4375 136.336 23.0938C136.018 23.75 135.56 24.2578 134.961 24.6172C134.367 24.9766 133.68 25.1562 132.898 25.1562C131.706 25.1562 130.75 24.7604 130.031 23.9688C129.318 23.1719 128.961 22.112 128.961 20.7891V20.6953ZM130.859 20.8594C130.859 21.7292 131.039 22.4115 131.398 22.9062C131.758 23.3958 132.258 23.6406 132.898 23.6406C133.539 23.6406 134.036 23.3906 134.391 22.8906C134.75 22.3906 134.93 21.6589 134.93 20.6953C134.93 19.8411 134.745 19.1641 134.375 18.6641C134.01 18.1641 133.513 17.9141 132.883 17.9141C132.263 17.9141 131.771 18.1615 131.406 18.6562C131.042 19.1458 130.859 19.8802 130.859 20.8594ZM140.805 14.4922V16.5469H142.297V17.9531H140.805V22.6719C140.805 22.9948 140.867 23.2292 140.992 23.375C141.122 23.5156 141.352 23.5859 141.68 23.5859C141.898 23.5859 142.12 23.5599 142.344 23.5078V24.9766C141.911 25.0964 141.495 25.1562 141.094 25.1562C139.635 25.1562 138.906 24.3516 138.906 22.7422V17.9531H137.516V16.5469H138.906V14.4922H140.805ZM143.164 20.6953C143.164 19.8672 143.328 19.1224 143.656 18.4609C143.984 17.7943 144.445 17.2839 145.039 16.9297C145.633 16.5703 146.315 16.3906 147.086 16.3906C148.227 16.3906 149.151 16.7578 149.859 17.4922C150.573 18.2266 150.958 19.2005 151.016 20.4141L151.023 20.8594C151.023 21.6927 150.862 22.4375 150.539 23.0938C150.221 23.75 149.763 24.2578 149.164 24.6172C148.57 24.9766 147.883 25.1562 147.102 25.1562C145.909 25.1562 144.953 24.7604 144.234 23.9688C143.521 23.1719 143.164 22.112 143.164 20.7891V20.6953ZM145.062 20.8594C145.062 21.7292 145.242 22.4115 145.602 22.9062C145.961 23.3958 146.461 23.6406 147.102 23.6406C147.742 23.6406 148.24 23.3906 148.594 22.8906C148.953 22.3906 149.133 21.6589 149.133 20.6953C149.133 19.8411 148.948 19.1641 148.578 18.6641C148.214 18.1641 147.716 17.9141 147.086 17.9141C146.466 17.9141 145.974 18.1615 145.609 18.6562C145.245 19.1458 145.062 19.8802 145.062 20.8594ZM152.438 17L151.469 16.3984C151.938 15.7161 152.18 14.9948 152.195 14.2344V13H153.859V14.0781C153.859 14.6146 153.721 15.1562 153.445 15.7031C153.174 16.2448 152.839 16.6771 152.438 17ZM155.047 17L154.078 16.3984C154.547 15.7161 154.789 14.9948 154.805 14.2344V13H156.469V14.0781C156.469 14.6146 156.331 15.1562 156.055 15.7031C155.784 16.2448 155.448 16.6771 155.047 17Z" fill="#FF5A43"/>
<path d="M0.5 8C0.5 3.85786 3.85786 0.5 8 0.5H221C225.142 0.5 228.5 3.85787 228.5 8V119.5H0.5V8Z" stroke="#5452F6"/>
</g>
<g filter="url(#filter7_d)">
<path d="M0 119H229V135C229 139.418 225.418 143 221 143H8.00001C3.58173 143 0 139.418 0 135V119Z" fill="#EEEEFF"/>
<path d="M0.5 119.5H228.5V135C228.5 139.142 225.142 142.5 221 142.5H8.00001C3.85787 142.5 0.5 139.142 0.5 135V119.5Z" stroke="#5452F6"/>
</g>
<defs>
<filter id="filter0_d" x="400" y="79" width="233" height="45" filterUnits="userSpaceOnUse" color-interpolation-filters="sRGB">
<feFlood flood-opacity="0" result="BackgroundImageFix"/>
<feColorMatrix in="SourceAlpha" type="matrix" values="0 0 0 0 0 0 0 0 0 0 0 0 0 0 0 0 0 0 127 0"/>
<feOffset dx="4" dy="4"/>
<feColorMatrix type="matrix" values="0 0 0 0 0.674908 0 0 0 0 0.662083 0 0 0 0 0.945833 0 0 0 1 0"/>
<feBlend mode="normal" in2="BackgroundImageFix" result="effect1_dropShadow"/>
<feBlend mode="normal" in="SourceGraphic" in2="effect1_dropShadow" result="shape"/>
</filter>
<filter id="filter1_d" x="400" y="119" width="233" height="28" filterUnits="userSpaceOnUse" color-interpolation-filters="sRGB">
<feFlood flood-opacity="0" result="BackgroundImageFix"/>
<feColorMatrix in="SourceAlpha" type="matrix" values="0 0 0 0 0 0 0 0 0 0 0 0 0 0 0 0 0 0 127 0"/>
<feOffset dx="4" dy="4"/>
<feColorMatrix type="matrix" values="0 0 0 0 0.674908 0 0 0 0 0.662083 0 0 0 0 0.945833 0 0 0 1 0"/>
<feBlend mode="normal" in2="BackgroundImageFix" result="effect1_dropShadow"/>
<feBlend mode="normal" in="SourceGraphic" in2="effect1_dropShadow" result="shape"/>
</filter>
<filter id="filter2_d" x="400" y="79" width="233" height="45" filterUnits="userSpaceOnUse" color-interpolation-filters="sRGB">
<feFlood flood-opacity="0" result="BackgroundImageFix"/>
<feColorMatrix in="SourceAlpha" type="matrix" values="0 0 0 0 0 0 0 0 0 0 0 0 0 0 0 0 0 0 127 0"/>
<feOffset dx="4" dy="4"/>
<feColorMatrix type="matrix" values="0 0 0 0 0.674908 0 0 0 0 0.662083 0 0 0 0 0.945833 0 0 0 1 0"/>
<feBlend mode="normal" in2="BackgroundImageFix" result="effect1_dropShadow"/>
<feBlend mode="normal" in="SourceGraphic" in2="effect1_dropShadow" result="shape"/>
</filter>
<filter id="filter3_d" x="400" y="119" width="233" height="28" filterUnits="userSpaceOnUse" color-interpolation-filters="sRGB">
<feFlood flood-opacity="0" result="BackgroundImageFix"/>
<feColorMatrix in="SourceAlpha" type="matrix" values="0 0 0 0 0 0 0 0 0 0 0 0 0 0 0 0 0 0 127 0"/>
<feOffset dx="4" dy="4"/>
<feColorMatrix type="matrix" values="0 0 0 0 0.674908 0 0 0 0 0.662083 0 0 0 0 0.945833 0 0 0 1 0"/>
<feBlend mode="normal" in2="BackgroundImageFix" result="effect1_dropShadow"/>
<feBlend mode="normal" in="SourceGraphic" in2="effect1_dropShadow" result="shape"/>
</filter>
<filter id="filter4_d" x="0" y="0" width="233" height="124" filterUnits="userSpaceOnUse" color-interpolation-filters="sRGB">
<feFlood flood-opacity="0" result="BackgroundImageFix"/>
<feColorMatrix in="SourceAlpha" type="matrix" values="0 0 0 0 0 0 0 0 0 0 0 0 0 0 0 0 0 0 127 0"/>
<feOffset dx="4" dy="4"/>
<feColorMatrix type="matrix" values="0 0 0 0 0.674908 0 0 0 0 0.662083 0 0 0 0 0.945833 0 0 0 1 0"/>
<feBlend mode="normal" in2="BackgroundImageFix" result="effect1_dropShadow"/>
<feBlend mode="normal" in="SourceGraphic" in2="effect1_dropShadow" result="shape"/>
</filter>
<filter id="filter5_d" x="0" y="119" width="233" height="28" filterUnits="userSpaceOnUse" color-interpolation-filters="sRGB">
<feFlood flood-opacity="0" result="BackgroundImageFix"/>
<feColorMatrix in="SourceAlpha" type="matrix" values="0 0 0 0 0 0 0 0 0 0 0 0 0 0 0 0 0 0 127 0"/>
<feOffset dx="4" dy="4"/>
<feColorMatrix type="matrix" values="0 0 0 0 0.674908 0 0 0 0 0.662083 0 0 0 0 0.945833 0 0 0 1 0"/>
<feBlend mode="normal" in2="BackgroundImageFix" result="effect1_dropShadow"/>
<feBlend mode="normal" in="SourceGraphic" in2="effect1_dropShadow" result="shape"/>
</filter>
<filter id="filter6_d" x="0" y="0" width="233" height="124" filterUnits="userSpaceOnUse" color-interpolation-filters="sRGB">
<feFlood flood-opacity="0" result="BackgroundImageFix"/>
<feColorMatrix in="SourceAlpha" type="matrix" values="0 0 0 0 0 0 0 0 0 0 0 0 0 0 0 0 0 0 127 0"/>
<feOffset dx="4" dy="4"/>
<feColorMatrix type="matrix" values="0 0 0 0 0.674908 0 0 0 0 0.662083 0 0 0 0 0.945833 0 0 0 1 0"/>
<feBlend mode="normal" in2="BackgroundImageFix" result="effect1_dropShadow"/>
<feBlend mode="normal" in="SourceGraphic" in2="effect1_dropShadow" result="shape"/>
</filter>
<filter id="filter7_d" x="0" y="119" width="233" height="28" filterUnits="userSpaceOnUse" color-interpolation-filters="sRGB">
<feFlood flood-opacity="0" result="BackgroundImageFix"/>
<feColorMatrix in="SourceAlpha" type="matrix" values="0 0 0 0 0 0 0 0 0 0 0 0 0 0 0 0 0 0 127 0"/>
<feOffset dx="4" dy="4"/>
<feColorMatrix type="matrix" values="0 0 0 0 0.674908 0 0 0 0 0.662083 0 0 0 0 0.945833 0 0 0 1 0"/>
<feBlend mode="normal" in2="BackgroundImageFix" result="effect1_dropShadow"/>
<feBlend mode="normal" in="SourceGraphic" in2="effect1_dropShadow" result="shape"/>
</filter>
</defs>
</svg>
