<svg width="634" height="67" viewBox="0 0 634 67" fill="none" xmlns="http://www.w3.org/2000/svg">
<line x1="255" y1="39.5" x2="389" y2="39.5" stroke="#65BF73" stroke-width="2"/>
<path d="M379 30L389.5 39.5L379 48.5" stroke="#65BF73" stroke-width="2" stroke-linecap="round" stroke-linejoin="round"/>
<circle cx="250.5" cy="40" r="5.5" stroke="#65BF73" stroke-width="2"/>
<path d="M284.508 20.6172H282.305V25H280.328V13.625H284.328C285.641 13.625 286.654 13.9193 287.367 14.5078C288.081 15.0964 288.438 15.9479 288.438 17.0625C288.438 17.8229 288.253 18.4609 287.883 18.9766C287.518 19.487 287.008 19.8802 286.352 20.1562L288.906 24.8984V25H286.789L284.508 20.6172ZM282.305 19.0312H284.336C285.003 19.0312 285.523 18.8646 285.898 18.5312C286.273 18.1927 286.461 17.7318 286.461 17.1484C286.461 16.5391 286.286 16.0677 285.938 15.7344C285.594 15.401 285.078 15.2292 284.391 15.2188H282.305V19.0312ZM292.398 25H290.43V13.625H292.398V25ZM303.547 23.5234C303.135 24.0599 302.565 24.4661 301.836 24.7422C301.107 25.0182 300.279 25.1562 299.352 25.1562C298.398 25.1562 297.555 24.9401 296.82 24.5078C296.086 24.0755 295.518 23.4583 295.117 22.6562C294.721 21.849 294.516 20.9089 294.5 19.8359V18.9453C294.5 17.2266 294.911 15.8854 295.734 14.9219C296.557 13.9531 297.706 13.4688 299.18 13.4688C300.445 13.4688 301.451 13.7812 302.195 14.4062C302.94 15.0312 303.388 15.9323 303.539 17.1094H301.602C301.383 15.7396 300.589 15.0547 299.219 15.0547C298.333 15.0547 297.659 15.375 297.195 16.0156C296.737 16.651 296.5 17.5859 296.484 18.8203V19.6953C296.484 20.9245 296.742 21.8802 297.258 22.5625C297.779 23.2396 298.5 23.5781 299.422 23.5781C300.432 23.5781 301.151 23.349 301.578 22.8906V20.6641H299.234V19.1641H303.547V23.5234ZM314.75 25H312.781V19.9453H307.695V25H305.719V13.625H307.695V18.3594H312.781V13.625H314.75V25ZM325.078 15.2188H321.531V25H319.57V15.2188H316.055V13.625H325.078V15.2188ZM331.672 16.5469L331.727 17.5234C332.352 16.7682 333.172 16.3906 334.188 16.3906C335.948 16.3906 336.844 17.3984 336.875 19.4141V25H334.977V19.5234C334.977 18.987 334.859 18.5911 334.625 18.3359C334.396 18.0755 334.018 17.9453 333.492 17.9453C332.727 17.9453 332.156 18.2917 331.781 18.9844V25H329.883V16.5469H331.672ZM343.867 25C343.784 24.8385 343.711 24.5755 343.648 24.2109C343.044 24.8411 342.305 25.1562 341.43 25.1562C340.581 25.1562 339.888 24.9141 339.352 24.4297C338.815 23.9453 338.547 23.3464 338.547 22.6328C338.547 21.7318 338.88 21.0417 339.547 20.5625C340.219 20.0781 341.177 19.8359 342.422 19.8359H343.586V19.2812C343.586 18.8438 343.464 18.4948 343.219 18.2344C342.974 17.9688 342.602 17.8359 342.102 17.8359C341.669 17.8359 341.315 17.9453 341.039 18.1641C340.763 18.3776 340.625 18.651 340.625 18.9844H338.727C338.727 18.5208 338.88 18.0885 339.188 17.6875C339.495 17.2812 339.911 16.9635 340.438 16.7344C340.969 16.5052 341.56 16.3906 342.211 16.3906C343.201 16.3906 343.99 16.6406 344.578 17.1406C345.167 17.6354 345.469 18.3333 345.484 19.2344V23.0469C345.484 23.8073 345.591 24.4141 345.805 24.8672V25H343.867ZM341.781 23.6328C342.156 23.6328 342.508 23.5417 342.836 23.3594C343.169 23.1771 343.419 22.9323 343.586 22.625V21.0312H342.562C341.859 21.0312 341.331 21.1536 340.977 21.3984C340.622 21.6432 340.445 21.9896 340.445 22.4375C340.445 22.8021 340.565 23.0938 340.805 23.3125C341.049 23.526 341.375 23.6328 341.781 23.6328ZM349.852 14.4922V16.5469H351.344V17.9531H349.852V22.6719C349.852 22.9948 349.914 23.2292 350.039 23.375C350.169 23.5156 350.398 23.5859 350.727 23.5859C350.945 23.5859 351.167 23.5599 351.391 23.5078V24.9766C350.958 25.0964 350.542 25.1562 350.141 25.1562C348.682 25.1562 347.953 24.3516 347.953 22.7422V17.9531H346.562V16.5469H347.953V14.4922H349.852Z" fill="#65BF73"/>
<g filter="url(#filter0_d)">
<path d="M401 8C401 3.58172 404.582 0 409 0H622C626.418 0 630 3.58172 630 8V40H401V8Z" fill="white"/>
<path d="M409 0.5H622C626.142 0.5 629.5 3.85787 629.5 8V39.5H401.5V8C401.5 3.85786 404.858 0.5 409 0.5Z" stroke="#5452F6"/>
</g>
<g filter="url(#filter1_d)">
<path d="M401 39H630V55C630 59.4183 626.418 63 622 63H409C404.582 63 401 59.4183 401 55V39Z" fill="#EEEEFF"/>
<path d="M401.5 39.5H629.5V55C629.5 59.1421 626.142 62.5 622 62.5H409C404.858 62.5 401.5 59.1421 401.5 55V39.5Z" stroke="#5452F6"/>
</g>
<path d="M470.242 19.6094C470.242 20.724 470.049 21.7031 469.664 22.5469C469.279 23.3854 468.727 24.0312 468.008 24.4844C467.294 24.9323 466.471 25.1562 465.539 25.1562C464.617 25.1562 463.794 24.9323 463.07 24.4844C462.352 24.0312 461.794 23.388 461.398 22.5547C461.008 21.7214 460.81 20.7604 460.805 19.6719V19.0312C460.805 17.9219 461 16.9427 461.391 16.0938C461.786 15.2448 462.341 14.5964 463.055 14.1484C463.773 13.6953 464.596 13.4688 465.523 13.4688C466.451 13.4688 467.271 13.6927 467.984 14.1406C468.703 14.5833 469.258 15.224 469.648 16.0625C470.039 16.8958 470.237 17.8672 470.242 18.9766V19.6094ZM468.266 19.0156C468.266 17.7552 468.026 16.7891 467.547 16.1172C467.073 15.4453 466.398 15.1094 465.523 15.1094C464.669 15.1094 464 15.4453 463.516 16.1172C463.036 16.7839 462.792 17.7292 462.781 18.9531V19.6094C462.781 20.8594 463.023 21.8255 463.508 22.5078C463.997 23.1901 464.674 23.5312 465.539 23.5312C466.414 23.5312 467.086 23.1979 467.555 22.5312C468.029 21.8646 468.266 20.8906 468.266 19.6094V19.0156ZM476.391 20.6172H474.188V25H472.211V13.625H476.211C477.523 13.625 478.536 13.9193 479.25 14.5078C479.964 15.0964 480.32 15.9479 480.32 17.0625C480.32 17.8229 480.135 18.4609 479.766 18.9766C479.401 19.487 478.891 19.8802 478.234 20.1562L480.789 24.8984V25H478.672L476.391 20.6172ZM474.188 19.0312H476.219C476.885 19.0312 477.406 18.8646 477.781 18.5312C478.156 18.1927 478.344 17.7318 478.344 17.1484C478.344 16.5391 478.169 16.0677 477.82 15.7344C477.477 15.401 476.961 15.2292 476.273 15.2188H474.188V19.0312ZM486.023 20.375C486.023 19.1719 486.185 18.0312 486.508 16.9531C486.831 15.8698 487.305 14.9036 487.93 14.0547C488.555 13.2005 489.216 12.6016 489.914 12.2578L490.289 13.3672C489.555 13.9245 488.958 14.776 488.5 15.9219C488.047 17.0625 487.799 18.3698 487.758 19.8438L487.75 20.5156C487.75 22.0938 487.971 23.5026 488.414 24.7422C488.862 25.9766 489.487 26.9167 490.289 27.5625L489.914 28.6172C489.216 28.2734 488.552 27.6719 487.922 26.8125C487.297 25.9583 486.823 24.9948 486.5 23.9219C486.182 22.8438 486.023 21.6615 486.023 20.375ZM493.594 25H491.695V16.5469H493.594V25ZM491.578 14.3516C491.578 14.0599 491.669 13.8177 491.852 13.625C492.039 13.4323 492.305 13.3359 492.648 13.3359C492.992 13.3359 493.258 13.4323 493.445 13.625C493.633 13.8177 493.727 14.0599 493.727 14.3516C493.727 14.638 493.633 14.8776 493.445 15.0703C493.258 15.2578 492.992 15.3516 492.648 15.3516C492.305 15.3516 492.039 15.2578 491.852 15.0703C491.669 14.8776 491.578 14.638 491.578 14.3516ZM497.43 16.5469L497.484 17.5234C498.109 16.7682 498.93 16.3906 499.945 16.3906C501.706 16.3906 502.602 17.3984 502.633 19.4141V25H500.734V19.5234C500.734 18.987 500.617 18.5911 500.383 18.3359C500.154 18.0755 499.776 17.9453 499.25 17.9453C498.484 17.9453 497.914 18.2917 497.539 18.9844V25H495.641V16.5469H497.43ZM506.953 14.4922V16.5469H508.445V17.9531H506.953V22.6719C506.953 22.9948 507.016 23.2292 507.141 23.375C507.271 23.5156 507.5 23.5859 507.828 23.5859C508.047 23.5859 508.268 23.5599 508.492 23.5078V24.9766C508.06 25.0964 507.643 25.1562 507.242 25.1562C505.784 25.1562 505.055 24.3516 505.055 22.7422V17.9531H503.664V16.5469H505.055V14.4922H506.953ZM517.57 20.9297H513.469V19.3984H517.57V20.9297ZM524.922 13.5703V15.1406H524.688C523.625 15.1562 522.776 15.4479 522.141 16.0156C521.505 16.5833 521.128 17.388 521.008 18.4297C521.617 17.7891 522.396 17.4688 523.344 17.4688C524.349 17.4688 525.141 17.8229 525.719 18.5312C526.302 19.2396 526.594 20.1536 526.594 21.2734C526.594 22.4297 526.253 23.3672 525.57 24.0859C524.893 24.7995 524.003 25.1562 522.898 25.1562C521.763 25.1562 520.841 24.737 520.133 23.8984C519.43 23.0599 519.078 21.9609 519.078 20.6016V19.9531C519.078 17.9583 519.562 16.3958 520.531 15.2656C521.505 14.1354 522.904 13.5703 524.727 13.5703H524.922ZM522.883 19C522.466 19 522.083 19.1172 521.734 19.3516C521.391 19.5859 521.138 19.8984 520.977 20.2891V20.8672C520.977 21.7109 521.154 22.3828 521.508 22.8828C521.862 23.3776 522.32 23.625 522.883 23.625C523.445 23.625 523.891 23.4141 524.219 22.9922C524.547 22.5703 524.711 22.0156 524.711 21.3281C524.711 20.6406 524.544 20.0807 524.211 19.6484C523.878 19.2161 523.435 19 522.883 19ZM531.891 20.5C531.891 21.6562 531.732 22.7734 531.414 23.8516C531.096 24.9245 530.615 25.901 529.969 26.7812C529.323 27.6667 528.648 28.2786 527.945 28.6172L527.57 27.5625C528.352 26.9583 528.969 26.0365 529.422 24.7969C529.88 23.5521 530.109 22.1328 530.109 20.5391V20.3594C530.109 18.9115 529.911 17.5938 529.516 16.4062C529.12 15.2135 528.552 14.2578 527.812 13.5391L527.57 13.3203L527.945 12.2578C528.612 12.5807 529.258 13.1536 529.883 13.9766C530.508 14.7995 530.987 15.7214 531.32 16.7422C531.654 17.7578 531.841 18.8073 531.883 19.8906L531.891 20.5ZM537.883 20.375C537.883 19.1719 538.044 18.0312 538.367 16.9531C538.69 15.8698 539.164 14.9036 539.789 14.0547C540.414 13.2005 541.076 12.6016 541.773 12.2578L542.148 13.3672C541.414 13.9245 540.818 14.776 540.359 15.9219C539.906 17.0625 539.659 18.3698 539.617 19.8438L539.609 20.5156C539.609 22.0938 539.831 23.5026 540.273 24.7422C540.721 25.9766 541.346 26.9167 542.148 27.5625L541.773 28.6172C541.076 28.2734 540.411 27.6719 539.781 26.8125C539.156 25.9583 538.682 24.9948 538.359 23.9219C538.042 22.8438 537.883 21.6615 537.883 20.375ZM545.195 16.5469L545.25 17.5234C545.875 16.7682 546.695 16.3906 547.711 16.3906C549.471 16.3906 550.367 17.3984 550.398 19.4141V25H548.5V19.5234C548.5 18.987 548.383 18.5911 548.148 18.3359C547.919 18.0755 547.542 17.9453 547.016 17.9453C546.25 17.9453 545.68 18.2917 545.305 18.9844V25H543.406V16.5469H545.195ZM557.391 25C557.307 24.8385 557.234 24.5755 557.172 24.2109C556.568 24.8411 555.828 25.1562 554.953 25.1562C554.104 25.1562 553.411 24.9141 552.875 24.4297C552.339 23.9453 552.07 23.3464 552.07 22.6328C552.07 21.7318 552.404 21.0417 553.07 20.5625C553.742 20.0781 554.701 19.8359 555.945 19.8359H557.109V19.2812C557.109 18.8438 556.987 18.4948 556.742 18.2344C556.497 17.9688 556.125 17.8359 555.625 17.8359C555.193 17.8359 554.839 17.9453 554.562 18.1641C554.286 18.3776 554.148 18.651 554.148 18.9844H552.25C552.25 18.5208 552.404 18.0885 552.711 17.6875C553.018 17.2812 553.435 16.9635 553.961 16.7344C554.492 16.5052 555.083 16.3906 555.734 16.3906C556.724 16.3906 557.513 16.6406 558.102 17.1406C558.69 17.6354 558.992 18.3333 559.008 19.2344V23.0469C559.008 23.8073 559.115 24.4141 559.328 24.8672V25H557.391ZM555.305 23.6328C555.68 23.6328 556.031 23.5417 556.359 23.3594C556.693 23.1771 556.943 22.9323 557.109 22.625V21.0312H556.086C555.383 21.0312 554.854 21.1536 554.5 21.3984C554.146 21.6432 553.969 21.9896 553.969 22.4375C553.969 22.8021 554.089 23.0938 554.328 23.3125C554.573 23.526 554.898 23.6328 555.305 23.6328ZM563.375 14.4922V16.5469H564.867V17.9531H563.375V22.6719C563.375 22.9948 563.438 23.2292 563.562 23.375C563.693 23.5156 563.922 23.5859 564.25 23.5859C564.469 23.5859 564.69 23.5599 564.914 23.5078V24.9766C564.482 25.0964 564.065 25.1562 563.664 25.1562C562.206 25.1562 561.477 24.3516 561.477 22.7422V17.9531H560.086V16.5469H561.477V14.4922H563.375ZM569.984 20.5C569.984 21.6562 569.826 22.7734 569.508 23.8516C569.19 24.9245 568.708 25.901 568.062 26.7812C567.417 27.6667 566.742 28.2786 566.039 28.6172L565.664 27.5625C566.445 26.9583 567.062 26.0365 567.516 24.7969C567.974 23.5521 568.203 22.1328 568.203 20.5391V20.3594C568.203 18.9115 568.005 17.5938 567.609 16.4062C567.214 15.2135 566.646 14.2578 565.906 13.5391L565.664 13.3203L566.039 12.2578C566.706 12.5807 567.352 13.1536 567.977 13.9766C568.602 14.7995 569.081 15.7214 569.414 16.7422C569.747 17.7578 569.935 18.8073 569.977 19.8906L569.984 20.5Z" fill="#5452F6"/>
<g filter="url(#filter2_d)">
<path d="M0 8C0 3.58172 3.58172 0 8 0H221C225.418 0 229 3.58172 229 8V40H0V8Z" fill="white"/>
<path d="M8 0.5H221C225.142 0.5 228.5 3.85787 228.5 8V39.5H0.5V8C0.5 3.85786 3.85786 0.5 8 0.5Z" stroke="#5452F6"/>
</g>
<g filter="url(#filter3_d)">
<path d="M0 39H229V55C229 59.4183 225.418 63 221 63H8.00001C3.58173 63 0 59.4183 0 55V39Z" fill="#EEEEFF"/>
<path d="M0.5 39.5H228.5V55C228.5 59.1421 225.142 62.5 221 62.5H8.00001C3.85787 62.5 0.5 59.1421 0.5 55V39.5Z" stroke="#5452F6"/>
</g>
<path d="M99.1641 25H97.2656V16.5469H99.1641V25ZM97.1484 14.3516C97.1484 14.0599 97.2396 13.8177 97.4219 13.625C97.6094 13.4323 97.875 13.3359 98.2188 13.3359C98.5625 13.3359 98.8281 13.4323 99.0156 13.625C99.2031 13.8177 99.2969 14.0599 99.2969 14.3516C99.2969 14.638 99.2031 14.8776 99.0156 15.0703C98.8281 15.2578 98.5625 15.3516 98.2188 15.3516C97.875 15.3516 97.6094 15.2578 97.4219 15.0703C97.2396 14.8776 97.1484 14.638 97.1484 14.3516ZM103 16.5469L103.055 17.5234C103.68 16.7682 104.5 16.3906 105.516 16.3906C107.276 16.3906 108.172 17.3984 108.203 19.4141V25H106.305V19.5234C106.305 18.987 106.188 18.5911 105.953 18.3359C105.724 18.0755 105.346 17.9453 104.82 17.9453C104.055 17.9453 103.484 18.2917 103.109 18.9844V25H101.211V16.5469H103ZM112.523 14.4922V16.5469H114.016V17.9531H112.523V22.6719C112.523 22.9948 112.586 23.2292 112.711 23.375C112.841 23.5156 113.07 23.5859 113.398 23.5859C113.617 23.5859 113.839 23.5599 114.062 23.5078V24.9766C113.63 25.0964 113.214 25.1562 112.812 25.1562C111.354 25.1562 110.625 24.3516 110.625 22.7422V17.9531H109.234V16.5469H110.625V14.4922H112.523ZM123.141 20.9297H119.039V19.3984H123.141V20.9297ZM130.492 13.5703V15.1406H130.258C129.195 15.1562 128.346 15.4479 127.711 16.0156C127.076 16.5833 126.698 17.388 126.578 18.4297C127.188 17.7891 127.966 17.4688 128.914 17.4688C129.919 17.4688 130.711 17.8229 131.289 18.5312C131.872 19.2396 132.164 20.1536 132.164 21.2734C132.164 22.4297 131.823 23.3672 131.141 24.0859C130.464 24.7995 129.573 25.1562 128.469 25.1562C127.333 25.1562 126.411 24.737 125.703 23.8984C125 23.0599 124.648 21.9609 124.648 20.6016V19.9531C124.648 17.9583 125.133 16.3958 126.102 15.2656C127.076 14.1354 128.474 13.5703 130.297 13.5703H130.492ZM128.453 19C128.036 19 127.654 19.1172 127.305 19.3516C126.961 19.5859 126.708 19.8984 126.547 20.2891V20.8672C126.547 21.7109 126.724 22.3828 127.078 22.8828C127.432 23.3776 127.891 23.625 128.453 23.625C129.016 23.625 129.461 23.4141 129.789 22.9922C130.117 22.5703 130.281 22.0156 130.281 21.3281C130.281 20.6406 130.115 20.0807 129.781 19.6484C129.448 19.2161 129.005 19 128.453 19Z" fill="#5452F6"/>
<defs>
<filter id="filter0_d" x="401" y="0" width="233" height="44" filterUnits="userSpaceOnUse" color-interpolation-filters="sRGB">
<feFlood flood-opacity="0" result="BackgroundImageFix"/>
<feColorMatrix in="SourceAlpha" type="matrix" values="0 0 0 0 0 0 0 0 0 0 0 0 0 0 0 0 0 0 127 0"/>
<feOffset dx="4" dy="4"/>
<feColorMatrix type="matrix" values="0 0 0 0 0.674908 0 0 0 0 0.662083 0 0 0 0 0.945833 0 0 0 1 0"/>
<feBlend mode="normal" in2="BackgroundImageFix" result="effect1_dropShadow"/>
<feBlend mode="normal" in="SourceGraphic" in2="effect1_dropShadow" result="shape"/>
</filter>
<filter id="filter1_d" x="401" y="39" width="233" height="28" filterUnits="userSpaceOnUse" color-interpolation-filters="sRGB">
<feFlood flood-opacity="0" result="BackgroundImageFix"/>
<feColorMatrix in="SourceAlpha" type="matrix" values="0 0 0 0 0 0 0 0 0 0 0 0 0 0 0 0 0 0 127 0"/>
<feOffset dx="4" dy="4"/>
<feColorMatrix type="matrix" values="0 0 0 0 0.674908 0 0 0 0 0.662083 0 0 0 0 0.945833 0 0 0 1 0"/>
<feBlend mode="normal" in2="BackgroundImageFix" result="effect1_dropShadow"/>
<feBlend mode="normal" in="SourceGraphic" in2="effect1_dropShadow" result="shape"/>
</filter>
<filter id="filter2_d" x="0" y="0" width="233" height="44" filterUnits="userSpaceOnUse" color-interpolation-filters="sRGB">
<feFlood flood-opacity="0" result="BackgroundImageFix"/>
<feColorMatrix in="SourceAlpha" type="matrix" values="0 0 0 0 0 0 0 0 0 0 0 0 0 0 0 0 0 0 127 0"/>
<feOffset dx="4" dy="4"/>
<feColorMatrix type="matrix" values="0 0 0 0 0.674908 0 0 0 0 0.662083 0 0 0 0 0.945833 0 0 0 1 0"/>
<feBlend mode="normal" in2="BackgroundImageFix" result="effect1_dropShadow"/>
<feBlend mode="normal" in="SourceGraphic" in2="effect1_dropShadow" result="shape"/>
</filter>
<filter id="filter3_d" x="0" y="39" width="233" height="28" filterUnits="userSpaceOnUse" color-interpolation-filters="sRGB">
<feFlood flood-opacity="0" result="BackgroundImageFix"/>
<feColorMatrix in="SourceAlpha" type="matrix" values="0 0 0 0 0 0 0 0 0 0 0 0 0 0 0 0 0 0 127 0"/>
<feOffset dx="4" dy="4"/>
<feColorMatrix type="matrix" values="0 0 0 0 0.674908 0 0 0 0 0.662083 0 0 0 0 0.945833 0 0 0 1 0"/>
<feBlend mode="normal" in2="BackgroundImageFix" result="effect1_dropShadow"/>
<feBlend mode="normal" in="SourceGraphic" in2="effect1_dropShadow" result="shape"/>
</filter>
</defs>
</svg>
