<svg width="543" height="608" viewBox="0 0 543 608" fill="none" xmlns="http://www.w3.org/2000/svg">
<g filter="url(#filter0_d)">
<rect x="407" y="269" width="132" height="63" rx="8" fill="white"/>
<path d="M455.719 306H454.273V297.547H455.719V306ZM454.156 295.305C454.156 295.07 454.227 294.872 454.367 294.711C454.513 294.549 454.727 294.469 455.008 294.469C455.289 294.469 455.503 294.549 455.648 294.711C455.794 294.872 455.867 295.07 455.867 295.305C455.867 295.539 455.794 295.734 455.648 295.891C455.503 296.047 455.289 296.125 455.008 296.125C454.727 296.125 454.513 296.047 454.367 295.891C454.227 295.734 454.156 295.539 454.156 295.305ZM459.406 297.547L459.453 298.609C460.099 297.797 460.943 297.391 461.984 297.391C463.771 297.391 464.672 298.398 464.688 300.414V306H463.242V300.406C463.237 299.797 463.096 299.346 462.82 299.055C462.549 298.763 462.125 298.617 461.547 298.617C461.078 298.617 460.667 298.742 460.312 298.992C459.958 299.242 459.682 299.57 459.484 299.977V306H458.039V297.547H459.406ZM468.828 295.5V297.547H470.406V298.664H468.828V303.906C468.828 304.245 468.898 304.5 469.039 304.672C469.18 304.839 469.419 304.922 469.758 304.922C469.924 304.922 470.154 304.891 470.445 304.828V306C470.065 306.104 469.695 306.156 469.336 306.156C468.69 306.156 468.203 305.961 467.875 305.57C467.547 305.18 467.383 304.625 467.383 303.906V298.664H465.844V297.547H467.383V295.5H468.828ZM478.023 299.609H479.109C479.792 299.599 480.328 299.419 480.719 299.07C481.109 298.721 481.305 298.25 481.305 297.656C481.305 296.323 480.641 295.656 479.312 295.656C478.688 295.656 478.188 295.836 477.812 296.195C477.443 296.549 477.258 297.021 477.258 297.609H475.812C475.812 296.708 476.141 295.961 476.797 295.367C477.458 294.768 478.297 294.469 479.312 294.469C480.385 294.469 481.227 294.753 481.836 295.32C482.445 295.888 482.75 296.677 482.75 297.688C482.75 298.182 482.589 298.661 482.266 299.125C481.948 299.589 481.513 299.935 480.961 300.164C481.586 300.362 482.068 300.69 482.406 301.148C482.75 301.607 482.922 302.167 482.922 302.828C482.922 303.849 482.589 304.659 481.922 305.258C481.255 305.857 480.388 306.156 479.32 306.156C478.253 306.156 477.383 305.867 476.711 305.289C476.044 304.711 475.711 303.948 475.711 303H477.164C477.164 303.599 477.359 304.078 477.75 304.438C478.141 304.797 478.664 304.977 479.32 304.977C480.018 304.977 480.552 304.794 480.922 304.43C481.292 304.065 481.477 303.542 481.477 302.859C481.477 302.198 481.273 301.69 480.867 301.336C480.461 300.982 479.875 300.799 479.109 300.789H478.023V299.609ZM492.25 295.438L487.539 306H486.023L490.719 295.812H484.562V294.625H492.25V295.438Z" fill="#5452F6"/>
<rect x="407.5" y="269.5" width="131" height="62" rx="7.5" stroke="#5452F6"/>
</g>
<g filter="url(#filter1_d)">
<rect y="541" width="128" height="63" rx="8" fill="white"/>
<path d="M48.6016 569.547L48.6484 570.609C49.2943 569.797 50.138 569.391 51.1797 569.391C52.9661 569.391 53.8672 570.398 53.8828 572.414V578H52.4375V572.406C52.4323 571.797 52.2917 571.346 52.0156 571.055C51.7448 570.763 51.3203 570.617 50.7422 570.617C50.2734 570.617 49.862 570.742 49.5078 570.992C49.1536 571.242 48.8776 571.57 48.6797 571.977V578H47.2344V569.547H48.6016ZM61.2812 578C61.1979 577.833 61.1302 577.536 61.0781 577.109C60.4062 577.807 59.6042 578.156 58.6719 578.156C57.8385 578.156 57.1536 577.922 56.6172 577.453C56.0859 576.979 55.8203 576.38 55.8203 575.656C55.8203 574.776 56.1536 574.094 56.8203 573.609C57.4922 573.12 58.4349 572.875 59.6484 572.875H61.0547V572.211C61.0547 571.706 60.9036 571.305 60.6016 571.008C60.2995 570.706 59.8542 570.555 59.2656 570.555C58.75 570.555 58.3177 570.685 57.9688 570.945C57.6198 571.206 57.4453 571.521 57.4453 571.891H55.9922C55.9922 571.469 56.1406 571.062 56.4375 570.672C56.7396 570.276 57.1458 569.964 57.6562 569.734C58.1719 569.505 58.737 569.391 59.3516 569.391C60.3255 569.391 61.0885 569.635 61.6406 570.125C62.1927 570.609 62.4792 571.279 62.5 572.133V576.023C62.5 576.799 62.599 577.417 62.7969 577.875V578H61.2812ZM58.8828 576.898C59.3359 576.898 59.7656 576.781 60.1719 576.547C60.5781 576.312 60.8724 576.008 61.0547 575.633V573.898H59.9219C58.151 573.898 57.2656 574.417 57.2656 575.453C57.2656 575.906 57.4167 576.26 57.7188 576.516C58.0208 576.771 58.4089 576.898 58.8828 576.898ZM66.7266 567.5V569.547H68.3047V570.664H66.7266V575.906C66.7266 576.245 66.7969 576.5 66.9375 576.672C67.0781 576.839 67.3177 576.922 67.6562 576.922C67.8229 576.922 68.0521 576.891 68.3438 576.828V578C67.9635 578.104 67.5938 578.156 67.2344 578.156C66.5885 578.156 66.1016 577.961 65.7734 577.57C65.4453 577.18 65.2812 576.625 65.2812 575.906V570.664H63.7422V569.547H65.2812V567.5H66.7266ZM74.4844 572.297L75.0625 566.625H80.8906V567.961H76.2891L75.9453 571.062C76.5026 570.734 77.1354 570.57 77.8438 570.57C78.8802 570.57 79.7031 570.914 80.3125 571.602C80.9219 572.284 81.2266 573.208 81.2266 574.375C81.2266 575.547 80.9089 576.471 80.2734 577.148C79.6432 577.82 78.7604 578.156 77.625 578.156C76.6198 578.156 75.7995 577.878 75.1641 577.32C74.5286 576.763 74.1667 575.992 74.0781 575.008H75.4453C75.5339 575.659 75.7656 576.151 76.1406 576.484C76.5156 576.812 77.0104 576.977 77.625 576.977C78.2969 576.977 78.8229 576.747 79.2031 576.289C79.5885 575.831 79.7812 575.198 79.7812 574.391C79.7812 573.63 79.5729 573.021 79.1562 572.562C78.7448 572.099 78.1953 571.867 77.5078 571.867C76.8776 571.867 76.3828 572.005 76.0234 572.281L75.6406 572.594L74.4844 572.297Z" fill="#5452F6"/>
<rect x="0.5" y="541.5" width="127" height="62" rx="7.5" stroke="#5452F6"/>
</g>
<g filter="url(#filter2_d)">
<rect x="280" y="541" width="184" height="63" rx="8" fill="white"/>
<path d="M332.172 575.758C332.172 575.367 332.023 575.065 331.727 574.852C331.435 574.633 330.922 574.445 330.188 574.289C329.458 574.133 328.878 573.945 328.445 573.727C328.018 573.508 327.701 573.247 327.492 572.945C327.289 572.643 327.188 572.284 327.188 571.867C327.188 571.174 327.479 570.589 328.062 570.109C328.651 569.63 329.401 569.391 330.312 569.391C331.271 569.391 332.047 569.638 332.641 570.133C333.24 570.628 333.539 571.26 333.539 572.031H332.086C332.086 571.635 331.917 571.294 331.578 571.008C331.245 570.721 330.823 570.578 330.312 570.578C329.786 570.578 329.375 570.693 329.078 570.922C328.781 571.151 328.633 571.451 328.633 571.82C328.633 572.169 328.771 572.432 329.047 572.609C329.323 572.786 329.82 572.956 330.539 573.117C331.263 573.279 331.849 573.471 332.297 573.695C332.745 573.919 333.076 574.19 333.289 574.508C333.508 574.82 333.617 575.203 333.617 575.656C333.617 576.411 333.315 577.018 332.711 577.477C332.107 577.93 331.323 578.156 330.359 578.156C329.682 578.156 329.083 578.036 328.562 577.797C328.042 577.557 327.633 577.224 327.336 576.797C327.044 576.365 326.898 575.898 326.898 575.398H328.344C328.37 575.883 328.562 576.268 328.922 576.555C329.286 576.836 329.766 576.977 330.359 576.977C330.906 576.977 331.344 576.867 331.672 576.648C332.005 576.424 332.172 576.128 332.172 575.758ZM337.461 567.5V569.547H339.039V570.664H337.461V575.906C337.461 576.245 337.531 576.5 337.672 576.672C337.812 576.839 338.052 576.922 338.391 576.922C338.557 576.922 338.786 576.891 339.078 576.828V578C338.698 578.104 338.328 578.156 337.969 578.156C337.323 578.156 336.836 577.961 336.508 577.57C336.18 577.18 336.016 576.625 336.016 575.906V570.664H334.477V569.547H336.016V567.5H337.461ZM344.82 570.844C344.602 570.807 344.365 570.789 344.109 570.789C343.161 570.789 342.518 571.193 342.18 572V578H340.734V569.547H342.141L342.164 570.523C342.638 569.768 343.31 569.391 344.18 569.391C344.461 569.391 344.674 569.427 344.82 569.5V570.844ZM347.727 578H346.281V569.547H347.727V578ZM346.164 567.305C346.164 567.07 346.234 566.872 346.375 566.711C346.521 566.549 346.734 566.469 347.016 566.469C347.297 566.469 347.51 566.549 347.656 566.711C347.802 566.872 347.875 567.07 347.875 567.305C347.875 567.539 347.802 567.734 347.656 567.891C347.51 568.047 347.297 568.125 347.016 568.125C346.734 568.125 346.521 568.047 346.375 567.891C346.234 567.734 346.164 567.539 346.164 567.305ZM351.414 569.547L351.461 570.609C352.107 569.797 352.951 569.391 353.992 569.391C355.779 569.391 356.68 570.398 356.695 572.414V578H355.25V572.406C355.245 571.797 355.104 571.346 354.828 571.055C354.557 570.763 354.133 570.617 353.555 570.617C353.086 570.617 352.674 570.742 352.32 570.992C351.966 571.242 351.69 571.57 351.492 571.977V578H350.047V569.547H351.414ZM358.531 573.703C358.531 572.385 358.836 571.339 359.445 570.562C360.055 569.781 360.862 569.391 361.867 569.391C362.898 569.391 363.703 569.755 364.281 570.484L364.352 569.547H365.672V577.797C365.672 578.891 365.346 579.753 364.695 580.383C364.049 581.013 363.18 581.328 362.086 581.328C361.477 581.328 360.88 581.198 360.297 580.938C359.714 580.677 359.268 580.32 358.961 579.867L359.711 579C360.331 579.766 361.089 580.148 361.984 580.148C362.688 580.148 363.234 579.951 363.625 579.555C364.021 579.159 364.219 578.602 364.219 577.883V577.156C363.641 577.823 362.852 578.156 361.852 578.156C360.862 578.156 360.06 577.758 359.445 576.961C358.836 576.164 358.531 575.078 358.531 573.703ZM359.984 573.867C359.984 574.82 360.18 575.57 360.57 576.117C360.961 576.659 361.508 576.93 362.211 576.93C363.122 576.93 363.792 576.516 364.219 575.688V571.828C363.776 571.021 363.112 570.617 362.227 570.617C361.523 570.617 360.974 570.891 360.578 571.438C360.182 571.984 359.984 572.794 359.984 573.867ZM372.906 565.852L373.734 566.414C373.25 567.076 373 567.789 372.984 568.555V569.617H371.547V568.711C371.547 568.18 371.672 567.654 371.922 567.133C372.177 566.612 372.505 566.185 372.906 565.852ZM375.367 565.852L376.195 566.414C375.711 567.076 375.461 567.789 375.445 568.555V569.617H374.008V568.711C374.008 568.18 374.133 567.654 374.383 567.133C374.638 566.612 374.966 566.185 375.367 565.852ZM386.453 578H384.945V572.742H379.211V578H377.711V566.625H379.211V571.516H384.945V566.625H386.453V578ZM392.398 578.156C391.253 578.156 390.32 577.781 389.602 577.031C388.883 576.276 388.523 575.268 388.523 574.008V573.742C388.523 572.904 388.682 572.156 389 571.5C389.323 570.839 389.771 570.323 390.344 569.953C390.922 569.578 391.547 569.391 392.219 569.391C393.318 569.391 394.172 569.753 394.781 570.477C395.391 571.201 395.695 572.237 395.695 573.586V574.188H389.969C389.99 575.021 390.232 575.695 390.695 576.211C391.164 576.721 391.758 576.977 392.477 576.977C392.987 576.977 393.419 576.872 393.773 576.664C394.128 576.456 394.438 576.18 394.703 575.836L395.586 576.523C394.878 577.612 393.815 578.156 392.398 578.156ZM392.219 570.578C391.635 570.578 391.146 570.792 390.75 571.219C390.354 571.641 390.109 572.234 390.016 573H394.25V572.891C394.208 572.156 394.01 571.589 393.656 571.188C393.302 570.781 392.823 570.578 392.219 570.578ZM398.945 578H397.5V566H398.945V578ZM402.836 578H401.391V566H402.836V578ZM404.773 573.695C404.773 572.867 404.935 572.122 405.258 571.461C405.586 570.799 406.039 570.289 406.617 569.93C407.201 569.57 407.865 569.391 408.609 569.391C409.76 569.391 410.69 569.789 411.398 570.586C412.112 571.383 412.469 572.443 412.469 573.766V573.867C412.469 574.69 412.31 575.43 411.992 576.086C411.68 576.737 411.229 577.245 410.641 577.609C410.057 577.974 409.385 578.156 408.625 578.156C407.479 578.156 406.549 577.758 405.836 576.961C405.128 576.164 404.773 575.109 404.773 573.797V573.695ZM406.227 573.867C406.227 574.805 406.443 575.557 406.875 576.125C407.312 576.693 407.896 576.977 408.625 576.977C409.359 576.977 409.943 576.69 410.375 576.117C410.807 575.539 411.023 574.732 411.023 573.695C411.023 572.768 410.802 572.018 410.359 571.445C409.922 570.867 409.339 570.578 408.609 570.578C407.896 570.578 407.32 570.862 406.883 571.43C406.445 571.997 406.227 572.81 406.227 573.867ZM413.414 569.828L412.594 569.266C413.078 568.589 413.328 567.875 413.344 567.125V566H414.773V567.016C414.768 567.536 414.638 568.057 414.383 568.578C414.133 569.094 413.81 569.51 413.414 569.828ZM415.812 569.828L414.992 569.266C415.477 568.589 415.727 567.875 415.742 567.125V566H417.172V567.016C417.167 567.536 417.036 568.057 416.781 568.578C416.531 569.094 416.208 569.51 415.812 569.828Z" fill="#5452F6"/>
<rect x="280.5" y="541.5" width="183" height="62" rx="7.5" stroke="#5452F6"/>
</g>
<path d="M218.5 251V197.475C218.5 186.429 227.454 177.475 238.5 177.475L479.5 177.475C490.546 177.475 499.5 186.429 499.5 197.475L499.5 251" stroke="#65BF73" stroke-width="2"/>
<circle cx="358" cy="116.5" r="5.5" stroke="#65BF73" stroke-width="2"/>
<line x1="358.5" y1="177" x2="358.5" y2="122" stroke="#65BF73" stroke-width="2"/>
<path d="M509.026 241L499.769 251L491 241" stroke="#65BF73" stroke-width="2" stroke-linecap="round" stroke-linejoin="round"/>
<path d="M228.026 241L218.769 251L210 241" stroke="#65BF73" stroke-width="2" stroke-linecap="round" stroke-linejoin="round"/>
<path d="M79.5 523L79.5 469.475C79.5 458.429 88.4543 449.475 99.5 449.475L340.5 449.475C351.546 449.475 360.5 458.429 360.5 469.475L360.5 523" stroke="#65BF73" stroke-width="2"/>
<circle cx="219" cy="388.5" r="5.5" stroke="#65BF73" stroke-width="2"/>
<line x1="219.5" y1="449" x2="219.5" y2="394" stroke="#65BF73" stroke-width="2"/>
<path d="M370.026 513L360.769 523L352 513" stroke="#65BF73" stroke-width="2" stroke-linecap="round" stroke-linejoin="round"/>
<path d="M89.0256 513L79.7692 523L71 513" stroke="#65BF73" stroke-width="2" stroke-linecap="round" stroke-linejoin="round"/>
<g filter="url(#filter3_d)">
<path d="M348.343 5.65686C351.467 2.53266 356.533 2.53266 359.657 5.65685L397.343 43.3431C400.467 46.4673 400.467 51.5327 397.343 54.6569L359.657 92.3431C356.533 95.4673 351.467 95.4673 348.343 92.3431L310.657 54.6569C307.533 51.5327 307.533 46.4673 310.657 43.3431L348.343 5.65686Z" fill="#E7F4FF"/>
<path d="M359.303 6.01041L396.99 43.6967C399.919 46.6256 399.919 51.3744 396.99 54.3033L359.303 91.9896C356.374 94.9185 351.626 94.9185 348.697 91.9896L311.01 54.3033C308.081 51.3744 308.081 46.6256 311.01 43.6967L348.697 6.01041C351.626 3.08148 356.374 3.08148 359.303 6.01041Z" stroke="#2097F6"/>
</g>
<path d="M339.484 50.5469V55H337.984V43.625H342.18C343.424 43.625 344.398 43.9427 345.102 44.5781C345.81 45.2135 346.164 46.0547 346.164 47.1016C346.164 48.2057 345.818 49.0573 345.125 49.6562C344.438 50.25 343.451 50.5469 342.164 50.5469H339.484ZM339.484 49.3203H342.18C342.982 49.3203 343.596 49.1328 344.023 48.7578C344.451 48.3776 344.664 47.8307 344.664 47.1172C344.664 46.4401 344.451 45.8984 344.023 45.4922C343.596 45.0859 343.01 44.875 342.266 44.8594H339.484V49.3203ZM353.281 52.0312H348.516L347.445 55H345.898L350.242 43.625H351.555L355.906 55H354.367L353.281 52.0312ZM348.969 50.7969H352.836L350.898 45.4766L348.969 50.7969ZM359.047 55H357.547V43.625H359.047V55ZM365.969 50.3984H363.297V55H361.789V43.625H365.555C366.836 43.625 367.82 43.9167 368.508 44.5C369.201 45.0833 369.547 45.9323 369.547 47.0469C369.547 47.7552 369.354 48.3724 368.969 48.8984C368.589 49.4245 368.057 49.8177 367.375 50.0781L370.047 54.9062V55H368.438L365.969 50.3984ZM363.297 49.1719H365.602C366.346 49.1719 366.938 48.9792 367.375 48.5938C367.818 48.2083 368.039 47.6927 368.039 47.0469C368.039 46.3438 367.828 45.8047 367.406 45.4297C366.99 45.0547 366.385 44.8646 365.594 44.8594H363.297V49.1719Z" fill="#2097F6"/>
<g filter="url(#filter4_d)">
<path d="M213.343 273.657C216.467 270.533 221.533 270.533 224.657 273.657L262.343 311.343C265.467 314.467 265.467 319.533 262.343 322.657L224.657 360.343C221.533 363.467 216.467 363.467 213.343 360.343L175.657 322.657C172.533 319.533 172.533 314.467 175.657 311.343L213.343 273.657Z" fill="#E7F4FF"/>
<path d="M224.303 274.01L261.99 311.697C264.919 314.626 264.919 319.374 261.99 322.303L224.303 359.99C221.374 362.919 216.626 362.919 213.697 359.99L176.01 322.303C173.081 319.374 173.081 314.626 176.01 311.697L213.697 274.01C216.626 271.081 221.374 271.081 224.303 274.01Z" stroke="#2097F6"/>
</g>
<path d="M204.484 318.547V323H202.984V311.625H207.18C208.424 311.625 209.398 311.943 210.102 312.578C210.81 313.214 211.164 314.055 211.164 315.102C211.164 316.206 210.818 317.057 210.125 317.656C209.438 318.25 208.451 318.547 207.164 318.547H204.484ZM204.484 317.32H207.18C207.982 317.32 208.596 317.133 209.023 316.758C209.451 316.378 209.664 315.831 209.664 315.117C209.664 314.44 209.451 313.898 209.023 313.492C208.596 313.086 208.01 312.875 207.266 312.859H204.484V317.32ZM218.281 320.031H213.516L212.445 323H210.898L215.242 311.625H216.555L220.906 323H219.367L218.281 320.031ZM213.969 318.797H217.836L215.898 313.477L213.969 318.797ZM224.047 323H222.547V311.625H224.047V323ZM230.969 318.398H228.297V323H226.789V311.625H230.555C231.836 311.625 232.82 311.917 233.508 312.5C234.201 313.083 234.547 313.932 234.547 315.047C234.547 315.755 234.354 316.372 233.969 316.898C233.589 317.424 233.057 317.818 232.375 318.078L235.047 322.906V323H233.438L230.969 318.398ZM228.297 317.172H230.602C231.346 317.172 231.938 316.979 232.375 316.594C232.818 316.208 233.039 315.693 233.039 315.047C233.039 314.344 232.828 313.805 232.406 313.43C231.99 313.055 231.385 312.865 230.594 312.859H228.297V317.172Z" fill="#2097F6"/>
<defs>
<filter id="filter0_d" x="407" y="269" width="136" height="67" filterUnits="userSpaceOnUse" color-interpolation-filters="sRGB">
<feFlood flood-opacity="0" result="BackgroundImageFix"/>
<feColorMatrix in="SourceAlpha" type="matrix" values="0 0 0 0 0 0 0 0 0 0 0 0 0 0 0 0 0 0 127 0"/>
<feOffset dx="4" dy="4"/>
<feColorMatrix type="matrix" values="0 0 0 0 0.674908 0 0 0 0 0.662083 0 0 0 0 0.945833 0 0 0 1 0"/>
<feBlend mode="normal" in2="BackgroundImageFix" result="effect1_dropShadow"/>
<feBlend mode="normal" in="SourceGraphic" in2="effect1_dropShadow" result="shape"/>
</filter>
<filter id="filter1_d" x="0" y="541" width="132" height="67" filterUnits="userSpaceOnUse" color-interpolation-filters="sRGB">
<feFlood flood-opacity="0" result="BackgroundImageFix"/>
<feColorMatrix in="SourceAlpha" type="matrix" values="0 0 0 0 0 0 0 0 0 0 0 0 0 0 0 0 0 0 127 0"/>
<feOffset dx="4" dy="4"/>
<feColorMatrix type="matrix" values="0 0 0 0 0.674908 0 0 0 0 0.662083 0 0 0 0 0.945833 0 0 0 1 0"/>
<feBlend mode="normal" in2="BackgroundImageFix" result="effect1_dropShadow"/>
<feBlend mode="normal" in="SourceGraphic" in2="effect1_dropShadow" result="shape"/>
</filter>
<filter id="filter2_d" x="280" y="541" width="188" height="67" filterUnits="userSpaceOnUse" color-interpolation-filters="sRGB">
<feFlood flood-opacity="0" result="BackgroundImageFix"/>
<feColorMatrix in="SourceAlpha" type="matrix" values="0 0 0 0 0 0 0 0 0 0 0 0 0 0 0 0 0 0 127 0"/>
<feOffset dx="4" dy="4"/>
<feColorMatrix type="matrix" values="0 0 0 0 0.674908 0 0 0 0 0.662083 0 0 0 0 0.945833 0 0 0 1 0"/>
<feBlend mode="normal" in2="BackgroundImageFix" result="effect1_dropShadow"/>
<feBlend mode="normal" in="SourceGraphic" in2="effect1_dropShadow" result="shape"/>
</filter>
<filter id="filter3_d" x="308.314" y="3.31372" width="95.3726" height="95.3726" filterUnits="userSpaceOnUse" color-interpolation-filters="sRGB">
<feFlood flood-opacity="0" result="BackgroundImageFix"/>
<feColorMatrix in="SourceAlpha" type="matrix" values="0 0 0 0 0 0 0 0 0 0 0 0 0 0 0 0 0 0 127 0"/>
<feOffset dx="4" dy="4"/>
<feColorMatrix type="matrix" values="0 0 0 0 0.513733 0 0 0 0 0.767915 0 0 0 0 0.970833 0 0 0 1 0"/>
<feBlend mode="normal" in2="BackgroundImageFix" result="effect1_dropShadow"/>
<feBlend mode="normal" in="SourceGraphic" in2="effect1_dropShadow" result="shape"/>
</filter>
<filter id="filter4_d" x="173.314" y="271.314" width="95.3726" height="95.3726" filterUnits="userSpaceOnUse" color-interpolation-filters="sRGB">
<feFlood flood-opacity="0" result="BackgroundImageFix"/>
<feColorMatrix in="SourceAlpha" type="matrix" values="0 0 0 0 0 0 0 0 0 0 0 0 0 0 0 0 0 0 127 0"/>
<feOffset dx="4" dy="4"/>
<feColorMatrix type="matrix" values="0 0 0 0 0.513733 0 0 0 0 0.767915 0 0 0 0 0.970833 0 0 0 1 0"/>
<feBlend mode="normal" in2="BackgroundImageFix" result="effect1_dropShadow"/>
<feBlend mode="normal" in="SourceGraphic" in2="effect1_dropShadow" result="shape"/>
</filter>
</defs>
</svg>
