<svg width="1034" height="107" viewBox="0 0 1034 107" fill="none" xmlns="http://www.w3.org/2000/svg">
<line x1="255" y1="79.5" x2="389" y2="79.5" stroke="#65BF73" stroke-width="2"/>
<path d="M379 70L389.5 79.5L379 88.5" stroke="#65BF73" stroke-width="2" stroke-linecap="round" stroke-linejoin="round"/>
<circle cx="250.5" cy="80" r="5.5" stroke="#65BF73" stroke-width="2"/>
<path d="M301.133 60.7734V65H299.156V53.625H303.508C304.779 53.625 305.786 53.9557 306.531 54.6172C307.281 55.2786 307.656 56.1536 307.656 57.2422C307.656 58.3568 307.289 59.224 306.555 59.8438C305.826 60.4635 304.802 60.7734 303.484 60.7734H301.133ZM301.133 59.1875H303.508C304.211 59.1875 304.747 59.0234 305.117 58.6953C305.487 58.362 305.672 57.8828 305.672 57.2578C305.672 56.6432 305.484 56.1536 305.109 55.7891C304.734 55.4193 304.219 55.2292 303.562 55.2188H301.133V59.1875ZM314.367 62.3516H309.961L309.039 65H306.984L311.281 53.625H313.055L317.359 65H315.297L314.367 62.3516ZM310.516 60.7578H313.812L312.164 56.0391L310.516 60.7578ZM320.742 65H318.773V53.625H320.742V65ZM327.352 60.6172H325.148V65H323.172V53.625H327.172C328.484 53.625 329.497 53.9193 330.211 54.5078C330.924 55.0964 331.281 55.9479 331.281 57.0625C331.281 57.8229 331.096 58.4609 330.727 58.9766C330.362 59.487 329.852 59.8802 329.195 60.1562L331.75 64.8984V65H329.633L327.352 60.6172ZM325.148 59.0312H327.18C327.846 59.0312 328.367 58.8646 328.742 58.5312C329.117 58.1927 329.305 57.7318 329.305 57.1484C329.305 56.5391 329.13 56.0677 328.781 55.7344C328.438 55.401 327.922 55.2292 327.234 55.2188H325.148V59.0312Z" fill="#65BF73"/>
<g filter="url(#filter0_d)">
<path d="M401 48C401 43.5817 404.582 40 409 40H622C626.418 40 630 43.5817 630 48V80H401V48Z" fill="white"/>
<path d="M409 40.5H622C626.142 40.5 629.5 43.8579 629.5 48V79.5H401.5V48C401.5 43.8579 404.858 40.5 409 40.5Z" stroke="#5452F6"/>
</g>
<g filter="url(#filter1_d)">
<path d="M401 79H630V95C630 99.4183 626.418 103 622 103H409C404.582 103 401 99.4183 401 95V79Z" fill="#EEEEFF"/>
<path d="M401.5 79.5H629.5V95C629.5 99.1421 626.142 102.5 622 102.5H409C404.858 102.5 401.5 99.1421 401.5 95V79.5Z" stroke="#5452F6"/>
</g>
<path d="M460.633 60.7734V65H458.656V53.625H463.008C464.279 53.625 465.286 53.9557 466.031 54.6172C466.781 55.2786 467.156 56.1536 467.156 57.2422C467.156 58.3568 466.789 59.224 466.055 59.8438C465.326 60.4635 464.302 60.7734 462.984 60.7734H460.633ZM460.633 59.1875H463.008C463.711 59.1875 464.247 59.0234 464.617 58.6953C464.987 58.362 465.172 57.8828 465.172 57.2578C465.172 56.6432 464.984 56.1536 464.609 55.7891C464.234 55.4193 463.719 55.2292 463.062 55.2188H460.633V59.1875ZM473.867 62.3516H469.461L468.539 65H466.484L470.781 53.625H472.555L476.859 65H474.797L473.867 62.3516ZM470.016 60.7578H473.312L471.664 56.0391L470.016 60.7578ZM480.242 65H478.273V53.625H480.242V65ZM486.852 60.6172H484.648V65H482.672V53.625H486.672C487.984 53.625 488.997 53.9193 489.711 54.5078C490.424 55.0964 490.781 55.9479 490.781 57.0625C490.781 57.8229 490.596 58.4609 490.227 58.9766C489.862 59.487 489.352 59.8802 488.695 60.1562L491.25 64.8984V65H489.133L486.852 60.6172ZM484.648 59.0312H486.68C487.346 59.0312 487.867 58.8646 488.242 58.5312C488.617 58.1927 488.805 57.7318 488.805 57.1484C488.805 56.5391 488.63 56.0677 488.281 55.7344C487.938 55.401 487.422 55.2292 486.734 55.2188H484.648V59.0312ZM496.484 60.375C496.484 59.1719 496.646 58.0312 496.969 56.9531C497.292 55.8698 497.766 54.9036 498.391 54.0547C499.016 53.2005 499.677 52.6016 500.375 52.2578L500.75 53.3672C500.016 53.9245 499.419 54.776 498.961 55.9219C498.508 57.0625 498.26 58.3698 498.219 59.8438L498.211 60.5156C498.211 62.0938 498.432 63.5026 498.875 64.7422C499.323 65.9766 499.948 66.9167 500.75 67.5625L500.375 68.6172C499.677 68.2734 499.013 67.6719 498.383 66.8125C497.758 65.9583 497.284 64.9948 496.961 63.9219C496.643 62.8438 496.484 61.6615 496.484 60.375ZM504.055 65H502.156V56.5469H504.055V65ZM502.039 54.3516C502.039 54.0599 502.13 53.8177 502.312 53.625C502.5 53.4323 502.766 53.3359 503.109 53.3359C503.453 53.3359 503.719 53.4323 503.906 53.625C504.094 53.8177 504.188 54.0599 504.188 54.3516C504.188 54.638 504.094 54.8776 503.906 55.0703C503.719 55.2578 503.453 55.3516 503.109 55.3516C502.766 55.3516 502.5 55.2578 502.312 55.0703C502.13 54.8776 502.039 54.638 502.039 54.3516ZM507.891 56.5469L507.945 57.5234C508.57 56.7682 509.391 56.3906 510.406 56.3906C512.167 56.3906 513.062 57.3984 513.094 59.4141V65H511.195V59.5234C511.195 58.987 511.078 58.5911 510.844 58.3359C510.615 58.0755 510.237 57.9453 509.711 57.9453C508.945 57.9453 508.375 58.2917 508 58.9844V65H506.102V56.5469H507.891ZM517.414 54.4922V56.5469H518.906V57.9531H517.414V62.6719C517.414 62.9948 517.477 63.2292 517.602 63.375C517.732 63.5156 517.961 63.5859 518.289 63.5859C518.508 63.5859 518.729 63.5599 518.953 63.5078V64.9766C518.521 65.0964 518.104 65.1562 517.703 65.1562C516.245 65.1562 515.516 64.3516 515.516 62.7422V57.9531H514.125V56.5469H515.516V54.4922H517.414ZM530.133 53.5703V55.1406H529.898C528.836 55.1562 527.987 55.4479 527.352 56.0156C526.716 56.5833 526.339 57.388 526.219 58.4297C526.828 57.7891 527.607 57.4688 528.555 57.4688C529.56 57.4688 530.352 57.8229 530.93 58.5312C531.513 59.2396 531.805 60.1536 531.805 61.2734C531.805 62.4297 531.464 63.3672 530.781 64.0859C530.104 64.7995 529.214 65.1562 528.109 65.1562C526.974 65.1562 526.052 64.737 525.344 63.8984C524.641 63.0599 524.289 61.9609 524.289 60.6016V59.9531C524.289 57.9583 524.773 56.3958 525.742 55.2656C526.716 54.1354 528.115 53.5703 529.938 53.5703H530.133ZM528.094 59C527.677 59 527.294 59.1172 526.945 59.3516C526.602 59.5859 526.349 59.8984 526.188 60.2891V60.8672C526.188 61.7109 526.365 62.3828 526.719 62.8828C527.073 63.3776 527.531 63.625 528.094 63.625C528.656 63.625 529.102 63.4141 529.43 62.9922C529.758 62.5703 529.922 62.0156 529.922 61.3281C529.922 60.6406 529.755 60.0807 529.422 59.6484C529.089 59.2161 528.646 59 528.094 59ZM539.445 65H537.547V56.5469H539.445V65ZM537.43 54.3516C537.43 54.0599 537.521 53.8177 537.703 53.625C537.891 53.4323 538.156 53.3359 538.5 53.3359C538.844 53.3359 539.109 53.4323 539.297 53.625C539.484 53.8177 539.578 54.0599 539.578 54.3516C539.578 54.638 539.484 54.8776 539.297 55.0703C539.109 55.2578 538.844 55.3516 538.5 55.3516C538.156 55.3516 537.891 55.2578 537.703 55.0703C537.521 54.8776 537.43 54.638 537.43 54.3516ZM543.281 56.5469L543.336 57.5234C543.961 56.7682 544.781 56.3906 545.797 56.3906C547.557 56.3906 548.453 57.3984 548.484 59.4141V65H546.586V59.5234C546.586 58.987 546.469 58.5911 546.234 58.3359C546.005 58.0755 545.628 57.9453 545.102 57.9453C544.336 57.9453 543.766 58.2917 543.391 58.9844V65H541.492V56.5469H543.281ZM552.805 54.4922V56.5469H554.297V57.9531H552.805V62.6719C552.805 62.9948 552.867 63.2292 552.992 63.375C553.122 63.5156 553.352 63.5859 553.68 63.5859C553.898 63.5859 554.12 63.5599 554.344 63.5078V64.9766C553.911 65.0964 553.495 65.1562 553.094 65.1562C551.635 65.1562 550.906 64.3516 550.906 62.7422V57.9531H549.516V56.5469H550.906V54.4922H552.805ZM561.812 58.4453H562.969C563.552 58.4401 564.013 58.2891 564.352 57.9922C564.695 57.6953 564.867 57.2656 564.867 56.7031C564.867 56.1615 564.724 55.7422 564.438 55.4453C564.156 55.1432 563.724 54.9922 563.141 54.9922C562.63 54.9922 562.211 55.1406 561.883 55.4375C561.555 55.7292 561.391 56.112 561.391 56.5859H559.492C559.492 56.0026 559.646 55.4714 559.953 54.9922C560.266 54.513 560.698 54.1406 561.25 53.875C561.807 53.6042 562.43 53.4688 563.117 53.4688C564.253 53.4688 565.143 53.7552 565.789 54.3281C566.44 54.8958 566.766 55.6875 566.766 56.7031C566.766 57.2135 566.602 57.6953 566.273 58.1484C565.951 58.5964 565.531 58.9349 565.016 59.1641C565.641 59.3776 566.115 59.7135 566.438 60.1719C566.766 60.6302 566.93 61.1771 566.93 61.8125C566.93 62.8333 566.578 63.6458 565.875 64.25C565.177 64.8542 564.258 65.1562 563.117 65.1562C562.023 65.1562 561.128 64.8646 560.43 64.2812C559.732 63.6979 559.383 62.9219 559.383 61.9531H561.281C561.281 62.4531 561.448 62.8594 561.781 63.1719C562.12 63.4844 562.573 63.6406 563.141 63.6406C563.729 63.6406 564.193 63.4844 564.531 63.1719C564.87 62.8594 565.039 62.4062 565.039 61.8125C565.039 61.2135 564.862 60.7526 564.508 60.4297C564.154 60.1068 563.628 59.9453 562.93 59.9453H561.812V58.4453ZM572.492 60.5C572.492 61.6562 572.333 62.7734 572.016 63.8516C571.698 64.9245 571.216 65.901 570.57 66.7812C569.924 67.6667 569.25 68.2786 568.547 68.6172L568.172 67.5625C568.953 66.9583 569.57 66.0365 570.023 64.7969C570.482 63.5521 570.711 62.1328 570.711 60.5391V60.3594C570.711 58.9115 570.513 57.5938 570.117 56.4062C569.721 55.2135 569.154 54.2578 568.414 53.5391L568.172 53.3203L568.547 52.2578C569.214 52.5807 569.859 53.1536 570.484 53.9766C571.109 54.7995 571.589 55.7214 571.922 56.7422C572.255 57.7578 572.443 58.8073 572.484 59.8906L572.492 60.5Z" fill="#5452F6"/>
<g filter="url(#filter2_d)">
<path d="M801 8C801 3.58172 804.582 0 809 0H1022C1026.42 0 1030 3.58172 1030 8V80H801V8Z" fill="white"/>
<path d="M809 0.5H1022C1026.14 0.5 1029.5 3.85787 1029.5 8V79.5H801.5V8C801.5 3.85787 804.858 0.5 809 0.5Z" stroke="#5452F6"/>
</g>
<g filter="url(#filter3_d)">
<path d="M801 79H1030V95C1030 99.4183 1026.42 103 1022 103H809C804.582 103 801 99.4183 801 95V79Z" fill="#EEEEFF"/>
<path d="M801.5 79.5H1029.5V95C1029.5 99.1421 1026.14 102.5 1022 102.5H809C804.858 102.5 801.5 99.1421 801.5 95V79.5Z" stroke="#5452F6"/>
</g>
<line x1="801.5" y1="39.5" x2="1029.5" y2="39.5" stroke="#5452F6"/>
<path d="M902.789 65H900.891V56.5469H902.789V65ZM900.773 54.3516C900.773 54.0599 900.865 53.8177 901.047 53.625C901.234 53.4323 901.5 53.3359 901.844 53.3359C902.188 53.3359 902.453 53.4323 902.641 53.625C902.828 53.8177 902.922 54.0599 902.922 54.3516C902.922 54.638 902.828 54.8776 902.641 55.0703C902.453 55.2578 902.188 55.3516 901.844 55.3516C901.5 55.3516 901.234 55.2578 901.047 55.0703C900.865 54.8776 900.773 54.638 900.773 54.3516ZM906.625 56.5469L906.68 57.5234C907.305 56.7682 908.125 56.3906 909.141 56.3906C910.901 56.3906 911.797 57.3984 911.828 59.4141V65H909.93V59.5234C909.93 58.987 909.812 58.5911 909.578 58.3359C909.349 58.0755 908.971 57.9453 908.445 57.9453C907.68 57.9453 907.109 58.2917 906.734 58.9844V65H904.836V56.5469H906.625ZM916.148 54.4922V56.5469H917.641V57.9531H916.148V62.6719C916.148 62.9948 916.211 63.2292 916.336 63.375C916.466 63.5156 916.695 63.5859 917.023 63.5859C917.242 63.5859 917.464 63.5599 917.688 63.5078V64.9766C917.255 65.0964 916.839 65.1562 916.438 65.1562C914.979 65.1562 914.25 64.3516 914.25 62.7422V57.9531H912.859V56.5469H914.25V54.4922H916.148ZM925.156 58.4453H926.312C926.896 58.4401 927.357 58.2891 927.695 57.9922C928.039 57.6953 928.211 57.2656 928.211 56.7031C928.211 56.1615 928.068 55.7422 927.781 55.4453C927.5 55.1432 927.068 54.9922 926.484 54.9922C925.974 54.9922 925.555 55.1406 925.227 55.4375C924.898 55.7292 924.734 56.112 924.734 56.5859H922.836C922.836 56.0026 922.99 55.4714 923.297 54.9922C923.609 54.513 924.042 54.1406 924.594 53.875C925.151 53.6042 925.773 53.4688 926.461 53.4688C927.596 53.4688 928.487 53.7552 929.133 54.3281C929.784 54.8958 930.109 55.6875 930.109 56.7031C930.109 57.2135 929.945 57.6953 929.617 58.1484C929.294 58.5964 928.875 58.9349 928.359 59.1641C928.984 59.3776 929.458 59.7135 929.781 60.1719C930.109 60.6302 930.273 61.1771 930.273 61.8125C930.273 62.8333 929.922 63.6458 929.219 64.25C928.521 64.8542 927.602 65.1562 926.461 65.1562C925.367 65.1562 924.471 64.8646 923.773 64.2812C923.076 63.6979 922.727 62.9219 922.727 61.9531H924.625C924.625 62.4531 924.792 62.8594 925.125 63.1719C925.464 63.4844 925.917 63.6406 926.484 63.6406C927.073 63.6406 927.536 63.4844 927.875 63.1719C928.214 62.8594 928.383 62.4062 928.383 61.8125C928.383 61.2135 928.206 60.7526 927.852 60.4297C927.497 60.1068 926.971 59.9453 926.273 59.9453H925.156V58.4453Z" fill="#5452F6"/>
<path d="M902.789 25H900.891V16.5469H902.789V25ZM900.773 14.3516C900.773 14.0599 900.865 13.8177 901.047 13.625C901.234 13.4323 901.5 13.3359 901.844 13.3359C902.188 13.3359 902.453 13.4323 902.641 13.625C902.828 13.8177 902.922 14.0599 902.922 14.3516C902.922 14.638 902.828 14.8776 902.641 15.0703C902.453 15.2578 902.188 15.3516 901.844 15.3516C901.5 15.3516 901.234 15.2578 901.047 15.0703C900.865 14.8776 900.773 14.638 900.773 14.3516ZM906.625 16.5469L906.68 17.5234C907.305 16.7682 908.125 16.3906 909.141 16.3906C910.901 16.3906 911.797 17.3984 911.828 19.4141V25H909.93V19.5234C909.93 18.987 909.812 18.5911 909.578 18.3359C909.349 18.0755 908.971 17.9453 908.445 17.9453C907.68 17.9453 907.109 18.2917 906.734 18.9844V25H904.836V16.5469H906.625ZM916.148 14.4922V16.5469H917.641V17.9531H916.148V22.6719C916.148 22.9948 916.211 23.2292 916.336 23.375C916.466 23.5156 916.695 23.5859 917.023 23.5859C917.242 23.5859 917.464 23.5599 917.688 23.5078V24.9766C917.255 25.0964 916.839 25.1562 916.438 25.1562C914.979 25.1562 914.25 24.3516 914.25 22.7422V17.9531H912.859V16.5469H914.25V14.4922H916.148ZM928.867 13.5703V15.1406H928.633C927.57 15.1562 926.721 15.4479 926.086 16.0156C925.451 16.5833 925.073 17.388 924.953 18.4297C925.562 17.7891 926.341 17.4688 927.289 17.4688C928.294 17.4688 929.086 17.8229 929.664 18.5312C930.247 19.2396 930.539 20.1536 930.539 21.2734C930.539 22.4297 930.198 23.3672 929.516 24.0859C928.839 24.7995 927.948 25.1562 926.844 25.1562C925.708 25.1562 924.786 24.737 924.078 23.8984C923.375 23.0599 923.023 21.9609 923.023 20.6016V19.9531C923.023 17.9583 923.508 16.3958 924.477 15.2656C925.451 14.1354 926.849 13.5703 928.672 13.5703H928.867ZM926.828 19C926.411 19 926.029 19.1172 925.68 19.3516C925.336 19.5859 925.083 19.8984 924.922 20.2891V20.8672C924.922 21.7109 925.099 22.3828 925.453 22.8828C925.807 23.3776 926.266 23.625 926.828 23.625C927.391 23.625 927.836 23.4141 928.164 22.9922C928.492 22.5703 928.656 22.0156 928.656 21.3281C928.656 20.6406 928.49 20.0807 928.156 19.6484C927.823 19.2161 927.38 19 926.828 19Z" fill="#5452F6"/>
<g filter="url(#filter4_d)">
<path d="M0 8C0 3.58172 3.58172 0 8 0H221C225.418 0 229 3.58172 229 8V80H0V8Z" fill="white"/>
<path d="M8 0.5H221C225.142 0.5 228.5 3.85787 228.5 8V79.5H0.5V8C0.5 3.85787 3.85786 0.5 8 0.5Z" stroke="#5452F6"/>
</g>
<g filter="url(#filter5_d)">
<path d="M0 79H229V95C229 99.4183 225.418 103 221 103H8.00001C3.58173 103 0 99.4183 0 95V79Z" fill="#EEEEFF"/>
<path d="M0.5 79.5H228.5V95C228.5 99.1421 225.142 102.5 221 102.5H8.00001C3.85787 102.5 0.5 99.1421 0.5 95V79.5Z" stroke="#5452F6"/>
</g>
<line x1="0.5" y1="39.5" x2="228.5" y2="39.5" stroke="#5452F6"/>
<path d="M101.789 65H99.8906V56.5469H101.789V65ZM99.7734 54.3516C99.7734 54.0599 99.8646 53.8177 100.047 53.625C100.234 53.4323 100.5 53.3359 100.844 53.3359C101.188 53.3359 101.453 53.4323 101.641 53.625C101.828 53.8177 101.922 54.0599 101.922 54.3516C101.922 54.638 101.828 54.8776 101.641 55.0703C101.453 55.2578 101.188 55.3516 100.844 55.3516C100.5 55.3516 100.234 55.2578 100.047 55.0703C99.8646 54.8776 99.7734 54.638 99.7734 54.3516ZM105.625 56.5469L105.68 57.5234C106.305 56.7682 107.125 56.3906 108.141 56.3906C109.901 56.3906 110.797 57.3984 110.828 59.4141V65H108.93V59.5234C108.93 58.987 108.812 58.5911 108.578 58.3359C108.349 58.0755 107.971 57.9453 107.445 57.9453C106.68 57.9453 106.109 58.2917 105.734 58.9844V65H103.836V56.5469H105.625ZM115.148 54.4922V56.5469H116.641V57.9531H115.148V62.6719C115.148 62.9948 115.211 63.2292 115.336 63.375C115.466 63.5156 115.695 63.5859 116.023 63.5859C116.242 63.5859 116.464 63.5599 116.688 63.5078V64.9766C116.255 65.0964 115.839 65.1562 115.438 65.1562C113.979 65.1562 113.25 64.3516 113.25 62.7422V57.9531H111.859V56.5469H113.25V54.4922H115.148ZM124.156 58.4453H125.312C125.896 58.4401 126.357 58.2891 126.695 57.9922C127.039 57.6953 127.211 57.2656 127.211 56.7031C127.211 56.1615 127.068 55.7422 126.781 55.4453C126.5 55.1432 126.068 54.9922 125.484 54.9922C124.974 54.9922 124.555 55.1406 124.227 55.4375C123.898 55.7292 123.734 56.112 123.734 56.5859H121.836C121.836 56.0026 121.99 55.4714 122.297 54.9922C122.609 54.513 123.042 54.1406 123.594 53.875C124.151 53.6042 124.773 53.4688 125.461 53.4688C126.596 53.4688 127.487 53.7552 128.133 54.3281C128.784 54.8958 129.109 55.6875 129.109 56.7031C129.109 57.2135 128.945 57.6953 128.617 58.1484C128.294 58.5964 127.875 58.9349 127.359 59.1641C127.984 59.3776 128.458 59.7135 128.781 60.1719C129.109 60.6302 129.273 61.1771 129.273 61.8125C129.273 62.8333 128.922 63.6458 128.219 64.25C127.521 64.8542 126.602 65.1562 125.461 65.1562C124.367 65.1562 123.471 64.8646 122.773 64.2812C122.076 63.6979 121.727 62.9219 121.727 61.9531H123.625C123.625 62.4531 123.792 62.8594 124.125 63.1719C124.464 63.4844 124.917 63.6406 125.484 63.6406C126.073 63.6406 126.536 63.4844 126.875 63.1719C127.214 62.8594 127.383 62.4062 127.383 61.8125C127.383 61.2135 127.206 60.7526 126.852 60.4297C126.497 60.1068 125.971 59.9453 125.273 59.9453H124.156V58.4453Z" fill="#5452F6"/>
<path d="M101.789 25H99.8906V16.5469H101.789V25ZM99.7734 14.3516C99.7734 14.0599 99.8646 13.8177 100.047 13.625C100.234 13.4323 100.5 13.3359 100.844 13.3359C101.188 13.3359 101.453 13.4323 101.641 13.625C101.828 13.8177 101.922 14.0599 101.922 14.3516C101.922 14.638 101.828 14.8776 101.641 15.0703C101.453 15.2578 101.188 15.3516 100.844 15.3516C100.5 15.3516 100.234 15.2578 100.047 15.0703C99.8646 14.8776 99.7734 14.638 99.7734 14.3516ZM105.625 16.5469L105.68 17.5234C106.305 16.7682 107.125 16.3906 108.141 16.3906C109.901 16.3906 110.797 17.3984 110.828 19.4141V25H108.93V19.5234C108.93 18.987 108.812 18.5911 108.578 18.3359C108.349 18.0755 107.971 17.9453 107.445 17.9453C106.68 17.9453 106.109 18.2917 105.734 18.9844V25H103.836V16.5469H105.625ZM115.148 14.4922V16.5469H116.641V17.9531H115.148V22.6719C115.148 22.9948 115.211 23.2292 115.336 23.375C115.466 23.5156 115.695 23.5859 116.023 23.5859C116.242 23.5859 116.464 23.5599 116.688 23.5078V24.9766C116.255 25.0964 115.839 25.1562 115.438 25.1562C113.979 25.1562 113.25 24.3516 113.25 22.7422V17.9531H111.859V16.5469H113.25V14.4922H115.148ZM127.867 13.5703V15.1406H127.633C126.57 15.1562 125.721 15.4479 125.086 16.0156C124.451 16.5833 124.073 17.388 123.953 18.4297C124.562 17.7891 125.341 17.4688 126.289 17.4688C127.294 17.4688 128.086 17.8229 128.664 18.5312C129.247 19.2396 129.539 20.1536 129.539 21.2734C129.539 22.4297 129.198 23.3672 128.516 24.0859C127.839 24.7995 126.948 25.1562 125.844 25.1562C124.708 25.1562 123.786 24.737 123.078 23.8984C122.375 23.0599 122.023 21.9609 122.023 20.6016V19.9531C122.023 17.9583 122.508 16.3958 123.477 15.2656C124.451 14.1354 125.849 13.5703 127.672 13.5703H127.867ZM125.828 19C125.411 19 125.029 19.1172 124.68 19.3516C124.336 19.5859 124.083 19.8984 123.922 20.2891V20.8672C123.922 21.7109 124.099 22.3828 124.453 22.8828C124.807 23.3776 125.266 23.625 125.828 23.625C126.391 23.625 126.836 23.4141 127.164 22.9922C127.492 22.5703 127.656 22.0156 127.656 21.3281C127.656 20.6406 127.49 20.0807 127.156 19.6484C126.823 19.2161 126.38 19 125.828 19Z" fill="#5452F6"/>
<line x1="658" y1="79.5" x2="792" y2="79.5" stroke="#65BF73" stroke-width="2"/>
<path d="M782 70L792.5 79.5L782 88.5" stroke="#65BF73" stroke-width="2" stroke-linecap="round" stroke-linejoin="round"/>
<circle cx="653.5" cy="80" r="5.5" stroke="#65BF73" stroke-width="2"/>
<path d="M699.578 53.625V61.2266C699.578 62.4349 699.19 63.3932 698.414 64.1016C697.643 64.8047 696.615 65.1562 695.328 65.1562C694.026 65.1562 692.992 64.8099 692.227 64.1172C691.461 63.4193 691.078 62.4531 691.078 61.2188V53.625H693.047V61.2344C693.047 61.9948 693.24 62.5755 693.625 62.9766C694.01 63.3776 694.578 63.5781 695.328 63.5781C696.849 63.5781 697.609 62.776 697.609 61.1719V53.625H699.578ZM710.719 65H708.742L703.672 56.9297V65H701.695V53.625H703.672L708.758 61.7266V53.625H710.719V65ZM715.031 60.7734V65H713.055V53.625H717.406C718.677 53.625 719.685 53.9557 720.43 54.6172C721.18 55.2786 721.555 56.1536 721.555 57.2422C721.555 58.3568 721.188 59.224 720.453 59.8438C719.724 60.4635 718.701 60.7734 717.383 60.7734H715.031ZM715.031 59.1875H717.406C718.109 59.1875 718.646 59.0234 719.016 58.6953C719.385 58.362 719.57 57.8828 719.57 57.2578C719.57 56.6432 719.383 56.1536 719.008 55.7891C718.633 55.4193 718.117 55.2292 717.461 55.2188H715.031V59.1875ZM728.266 62.3516H723.859L722.938 65H720.883L725.18 53.625H726.953L731.258 65H729.195L728.266 62.3516ZM724.414 60.7578H727.711L726.062 56.0391L724.414 60.7578ZM734.641 65H732.672V53.625H734.641V65ZM741.25 60.6172H739.047V65H737.07V53.625H741.07C742.383 53.625 743.396 53.9193 744.109 54.5078C744.823 55.0964 745.18 55.9479 745.18 57.0625C745.18 57.8229 744.995 58.4609 744.625 58.9766C744.26 59.487 743.75 59.8802 743.094 60.1562L745.648 64.8984V65H743.531L741.25 60.6172ZM739.047 59.0312H741.078C741.745 59.0312 742.266 58.8646 742.641 58.5312C743.016 58.1927 743.203 57.7318 743.203 57.1484C743.203 56.5391 743.029 56.0677 742.68 55.7344C742.336 55.401 741.82 55.2292 741.133 55.2188H739.047V59.0312Z" fill="#65BF73"/>
<defs>
<filter id="filter0_d" x="401" y="40" width="233" height="44" filterUnits="userSpaceOnUse" color-interpolation-filters="sRGB">
<feFlood flood-opacity="0" result="BackgroundImageFix"/>
<feColorMatrix in="SourceAlpha" type="matrix" values="0 0 0 0 0 0 0 0 0 0 0 0 0 0 0 0 0 0 127 0"/>
<feOffset dx="4" dy="4"/>
<feColorMatrix type="matrix" values="0 0 0 0 0.674908 0 0 0 0 0.662083 0 0 0 0 0.945833 0 0 0 1 0"/>
<feBlend mode="normal" in2="BackgroundImageFix" result="effect1_dropShadow"/>
<feBlend mode="normal" in="SourceGraphic" in2="effect1_dropShadow" result="shape"/>
</filter>
<filter id="filter1_d" x="401" y="79" width="233" height="28" filterUnits="userSpaceOnUse" color-interpolation-filters="sRGB">
<feFlood flood-opacity="0" result="BackgroundImageFix"/>
<feColorMatrix in="SourceAlpha" type="matrix" values="0 0 0 0 0 0 0 0 0 0 0 0 0 0 0 0 0 0 127 0"/>
<feOffset dx="4" dy="4"/>
<feColorMatrix type="matrix" values="0 0 0 0 0.674908 0 0 0 0 0.662083 0 0 0 0 0.945833 0 0 0 1 0"/>
<feBlend mode="normal" in2="BackgroundImageFix" result="effect1_dropShadow"/>
<feBlend mode="normal" in="SourceGraphic" in2="effect1_dropShadow" result="shape"/>
</filter>
<filter id="filter2_d" x="801" y="0" width="233" height="84" filterUnits="userSpaceOnUse" color-interpolation-filters="sRGB">
<feFlood flood-opacity="0" result="BackgroundImageFix"/>
<feColorMatrix in="SourceAlpha" type="matrix" values="0 0 0 0 0 0 0 0 0 0 0 0 0 0 0 0 0 0 127 0"/>
<feOffset dx="4" dy="4"/>
<feColorMatrix type="matrix" values="0 0 0 0 0.674908 0 0 0 0 0.662083 0 0 0 0 0.945833 0 0 0 1 0"/>
<feBlend mode="normal" in2="BackgroundImageFix" result="effect1_dropShadow"/>
<feBlend mode="normal" in="SourceGraphic" in2="effect1_dropShadow" result="shape"/>
</filter>
<filter id="filter3_d" x="801" y="79" width="233" height="28" filterUnits="userSpaceOnUse" color-interpolation-filters="sRGB">
<feFlood flood-opacity="0" result="BackgroundImageFix"/>
<feColorMatrix in="SourceAlpha" type="matrix" values="0 0 0 0 0 0 0 0 0 0 0 0 0 0 0 0 0 0 127 0"/>
<feOffset dx="4" dy="4"/>
<feColorMatrix type="matrix" values="0 0 0 0 0.674908 0 0 0 0 0.662083 0 0 0 0 0.945833 0 0 0 1 0"/>
<feBlend mode="normal" in2="BackgroundImageFix" result="effect1_dropShadow"/>
<feBlend mode="normal" in="SourceGraphic" in2="effect1_dropShadow" result="shape"/>
</filter>
<filter id="filter4_d" x="0" y="0" width="233" height="84" filterUnits="userSpaceOnUse" color-interpolation-filters="sRGB">
<feFlood flood-opacity="0" result="BackgroundImageFix"/>
<feColorMatrix in="SourceAlpha" type="matrix" values="0 0 0 0 0 0 0 0 0 0 0 0 0 0 0 0 0 0 127 0"/>
<feOffset dx="4" dy="4"/>
<feColorMatrix type="matrix" values="0 0 0 0 0.674908 0 0 0 0 0.662083 0 0 0 0 0.945833 0 0 0 1 0"/>
<feBlend mode="normal" in2="BackgroundImageFix" result="effect1_dropShadow"/>
<feBlend mode="normal" in="SourceGraphic" in2="effect1_dropShadow" result="shape"/>
</filter>
<filter id="filter5_d" x="0" y="79" width="233" height="28" filterUnits="userSpaceOnUse" color-interpolation-filters="sRGB">
<feFlood flood-opacity="0" result="BackgroundImageFix"/>
<feColorMatrix in="SourceAlpha" type="matrix" values="0 0 0 0 0 0 0 0 0 0 0 0 0 0 0 0 0 0 127 0"/>
<feOffset dx="4" dy="4"/>
<feColorMatrix type="matrix" values="0 0 0 0 0.674908 0 0 0 0 0.662083 0 0 0 0 0.945833 0 0 0 1 0"/>
<feBlend mode="normal" in2="BackgroundImageFix" result="effect1_dropShadow"/>
<feBlend mode="normal" in="SourceGraphic" in2="effect1_dropShadow" result="shape"/>
</filter>
</defs>
</svg>
