<svg width="633" height="336" viewBox="0 0 633 336" fill="none" xmlns="http://www.w3.org/2000/svg">
<line x1="253" y1="119.5" x2="387" y2="119.5" stroke="#65BF73" stroke-width="2"/>
<path d="M377 110L387.5 119.5L377 128.5" stroke="#65BF73" stroke-width="2" stroke-linecap="round" stroke-linejoin="round"/>
<circle cx="248.5" cy="120" r="5.5" stroke="#65BF73" stroke-width="2"/>
<path d="M300.164 93.625L303.445 102.344L306.719 93.625H309.273V105H307.305V101.25L307.5 96.2344L304.141 105H302.727L299.375 96.2422L299.57 101.25V105H297.602V93.625H300.164ZM319.938 93.625V101.227C319.938 102.435 319.549 103.393 318.773 104.102C318.003 104.805 316.974 105.156 315.688 105.156C314.385 105.156 313.352 104.81 312.586 104.117C311.82 103.419 311.438 102.453 311.438 101.219V93.625H313.406V101.234C313.406 101.995 313.599 102.576 313.984 102.977C314.37 103.378 314.938 103.578 315.688 103.578C317.208 103.578 317.969 102.776 317.969 101.172V93.625H319.938ZM324.031 103.422H329.195V105H322.055V93.625H324.031V103.422Z" fill="#65BF73"/>
<line x1="253" y1="308.5" x2="387" y2="308.5" stroke="#65BF73" stroke-width="2"/>
<path d="M377 299L387.5 308.5L377 317.5" stroke="#65BF73" stroke-width="2" stroke-linecap="round" stroke-linejoin="round"/>
<circle cx="248.5" cy="309" r="5.5" stroke="#65BF73" stroke-width="2"/>
<path d="M300.164 282.625L303.445 291.344L306.719 282.625H309.273V294H307.305V290.25L307.5 285.234L304.141 294H302.727L299.375 285.242L299.57 290.25V294H297.602V282.625H300.164ZM319.938 282.625V290.227C319.938 291.435 319.549 292.393 318.773 293.102C318.003 293.805 316.974 294.156 315.688 294.156C314.385 294.156 313.352 293.81 312.586 293.117C311.82 292.419 311.438 291.453 311.438 290.219V282.625H313.406V290.234C313.406 290.995 313.599 291.576 313.984 291.977C314.37 292.378 314.938 292.578 315.688 292.578C317.208 292.578 317.969 291.776 317.969 290.172V282.625H319.938ZM324.031 292.422H329.195V294H322.055V282.625H324.031V292.422Z" fill="#65BF73"/>
<g filter="url(#filter0_d)">
<path d="M0 8C0 3.58172 3.58172 0 8 0H221C225.418 0 229 3.58172 229 8V120H0V8Z" fill="white"/>
<line x1="0.5" y1="79.5" x2="228.5" y2="79.5" stroke="#5452F6"/>
<line x1="0.5" y1="39.5" x2="228.5" y2="39.5" stroke="#5452F6"/>
<path d="M73.7891 102.07C73.7891 101.57 73.612 101.185 73.2578 100.914C72.9089 100.643 72.276 100.37 71.3594 100.094C70.4427 99.8177 69.7135 99.5104 69.1719 99.1719C68.1354 98.5208 67.6172 97.6719 67.6172 96.625C67.6172 95.7083 67.9896 94.9531 68.7344 94.3594C69.4844 93.7656 70.4557 93.4688 71.6484 93.4688C72.4401 93.4688 73.1458 93.6146 73.7656 93.9062C74.3854 94.1979 74.8724 94.6146 75.2266 95.1562C75.5807 95.6927 75.7578 96.2891 75.7578 96.9453H73.7891C73.7891 96.3516 73.6016 95.888 73.2266 95.5547C72.8568 95.2161 72.3255 95.0469 71.6328 95.0469C70.987 95.0469 70.4844 95.1849 70.125 95.4609C69.7708 95.737 69.5938 96.1224 69.5938 96.6172C69.5938 97.0339 69.7865 97.3828 70.1719 97.6641C70.5573 97.9401 71.1927 98.2109 72.0781 98.4766C72.9635 98.737 73.6745 99.0365 74.2109 99.375C74.7474 99.7083 75.1406 100.094 75.3906 100.531C75.6406 100.964 75.7656 101.471 75.7656 102.055C75.7656 103.003 75.401 103.758 74.6719 104.32C73.9479 104.878 72.9635 105.156 71.7188 105.156C70.8958 105.156 70.138 105.005 69.4453 104.703C68.7578 104.396 68.2214 103.974 67.8359 103.438C67.4557 102.901 67.2656 102.276 67.2656 101.562H69.2422C69.2422 102.208 69.4557 102.708 69.8828 103.062C70.3099 103.417 70.9219 103.594 71.7188 103.594C72.4062 103.594 72.9219 103.456 73.2656 103.18C73.6146 102.898 73.7891 102.529 73.7891 102.07ZM79.6953 94.4922V96.5469H81.1875V97.9531H79.6953V102.672C79.6953 102.995 79.7578 103.229 79.8828 103.375C80.013 103.516 80.2422 103.586 80.5703 103.586C80.7891 103.586 81.0104 103.56 81.2344 103.508V104.977C80.8021 105.096 80.3854 105.156 79.9844 105.156C78.526 105.156 77.7969 104.352 77.7969 102.742V97.9531H76.4062V96.5469H77.7969V94.4922H79.6953ZM87.0703 98.2812C86.8203 98.2396 86.5625 98.2188 86.2969 98.2188C85.4271 98.2188 84.8411 98.5521 84.5391 99.2188V105H82.6406V96.5469H84.4531L84.5 97.4922C84.9583 96.7578 85.5938 96.3906 86.4062 96.3906C86.6771 96.3906 86.901 96.4271 87.0781 96.5L87.0703 98.2812ZM90.2891 105H88.3906V96.5469H90.2891V105ZM88.2734 94.3516C88.2734 94.0599 88.3646 93.8177 88.5469 93.625C88.7344 93.4323 89 93.3359 89.3438 93.3359C89.6875 93.3359 89.9531 93.4323 90.1406 93.625C90.3281 93.8177 90.4219 94.0599 90.4219 94.3516C90.4219 94.638 90.3281 94.8776 90.1406 95.0703C89.9531 95.2578 89.6875 95.3516 89.3438 95.3516C89 95.3516 88.7344 95.2578 88.5469 95.0703C88.3646 94.8776 88.2734 94.638 88.2734 94.3516ZM94.125 96.5469L94.1797 97.5234C94.8047 96.7682 95.625 96.3906 96.6406 96.3906C98.401 96.3906 99.2969 97.3984 99.3281 99.4141V105H97.4297V99.5234C97.4297 98.987 97.3125 98.5911 97.0781 98.3359C96.849 98.0755 96.4714 97.9453 95.9453 97.9453C95.1797 97.9453 94.6094 98.2917 94.2344 98.9844V105H92.3359V96.5469H94.125ZM100.938 100.711C100.938 99.3984 101.245 98.3516 101.859 97.5703C102.479 96.7839 103.299 96.3906 104.32 96.3906C105.284 96.3906 106.042 96.7266 106.594 97.3984L106.68 96.5469H108.391V104.742C108.391 105.852 108.044 106.727 107.352 107.367C106.664 108.008 105.734 108.328 104.562 108.328C103.943 108.328 103.336 108.198 102.742 107.938C102.154 107.682 101.706 107.346 101.398 106.93L102.297 105.789C102.88 106.482 103.599 106.828 104.453 106.828C105.083 106.828 105.581 106.656 105.945 106.312C106.31 105.974 106.492 105.474 106.492 104.812V104.242C105.945 104.852 105.216 105.156 104.305 105.156C103.315 105.156 102.505 104.763 101.875 103.977C101.25 103.19 100.938 102.102 100.938 100.711ZM102.828 100.875C102.828 101.724 103 102.393 103.344 102.883C103.693 103.367 104.174 103.609 104.789 103.609C105.555 103.609 106.122 103.281 106.492 102.625V98.9062C106.133 98.2656 105.57 97.9453 104.805 97.9453C104.18 97.9453 103.693 98.1927 103.344 98.6875C103 99.1823 102.828 99.9115 102.828 100.875ZM115.633 92.7969L116.602 93.3984C116.128 94.0911 115.883 94.8125 115.867 95.5625V96.75H114.203V95.6719C114.208 95.1719 114.344 94.651 114.609 94.1094C114.88 93.5625 115.221 93.125 115.633 92.7969ZM118.258 92.7969L119.227 93.3984C118.753 94.0911 118.508 94.8125 118.492 95.5625V96.75H116.828V95.6719C116.833 95.1719 116.969 94.651 117.234 94.1094C117.505 93.5625 117.846 93.125 118.258 92.7969ZM129.703 105H127.734V99.9453H122.648V105H120.672V93.625H122.648V98.3594H127.734V93.625H129.703V105ZM135.586 105.156C134.383 105.156 133.406 104.779 132.656 104.023C131.911 103.263 131.539 102.253 131.539 100.992V100.758C131.539 99.9141 131.701 99.1615 132.023 98.5C132.352 97.8333 132.81 97.3151 133.398 96.9453C133.987 96.5755 134.643 96.3906 135.367 96.3906C136.518 96.3906 137.406 96.7578 138.031 97.4922C138.661 98.2266 138.977 99.2656 138.977 100.609V101.375H133.453C133.51 102.073 133.742 102.625 134.148 103.031C134.56 103.438 135.076 103.641 135.695 103.641C136.565 103.641 137.273 103.289 137.82 102.586L138.844 103.562C138.505 104.068 138.052 104.461 137.484 104.742C136.922 105.018 136.289 105.156 135.586 105.156ZM135.359 97.9141C134.839 97.9141 134.417 98.0964 134.094 98.4609C133.776 98.8255 133.573 99.3333 133.484 99.9844H137.102V99.8438C137.06 99.2083 136.891 98.7292 136.594 98.4062C136.297 98.0781 135.885 97.9141 135.359 97.9141ZM142.477 105H140.578V93H142.477V105ZM146.57 105H144.672V93H146.57V105ZM148.289 100.695C148.289 99.8672 148.453 99.1224 148.781 98.4609C149.109 97.7943 149.57 97.2839 150.164 96.9297C150.758 96.5703 151.44 96.3906 152.211 96.3906C153.352 96.3906 154.276 96.7578 154.984 97.4922C155.698 98.2266 156.083 99.2005 156.141 100.414L156.148 100.859C156.148 101.693 155.987 102.438 155.664 103.094C155.346 103.75 154.888 104.258 154.289 104.617C153.695 104.977 153.008 105.156 152.227 105.156C151.034 105.156 150.078 104.76 149.359 103.969C148.646 103.172 148.289 102.112 148.289 100.789V100.695ZM150.188 100.859C150.188 101.729 150.367 102.411 150.727 102.906C151.086 103.396 151.586 103.641 152.227 103.641C152.867 103.641 153.365 103.391 153.719 102.891C154.078 102.391 154.258 101.659 154.258 100.695C154.258 99.8411 154.073 99.1641 153.703 98.6641C153.339 98.1641 152.841 97.9141 152.211 97.9141C151.591 97.9141 151.099 98.1615 150.734 98.6562C150.37 99.1458 150.188 99.8802 150.188 100.859ZM157.562 97L156.594 96.3984C157.062 95.7161 157.305 94.9948 157.32 94.2344V93H158.984V94.0781C158.984 94.6146 158.846 95.1562 158.57 95.7031C158.299 96.2448 157.964 96.6771 157.562 97ZM160.172 97L159.203 96.3984C159.672 95.7161 159.914 94.9948 159.93 94.2344V93H161.594V94.0781C161.594 94.6146 161.456 95.1562 161.18 95.7031C160.909 96.2448 160.573 96.6771 160.172 97Z" fill="#5452F6"/>
<path d="M99.25 56.5469L99.3047 57.5234C99.9297 56.7682 100.75 56.3906 101.766 56.3906C103.526 56.3906 104.422 57.3984 104.453 59.4141V65H102.555V59.5234C102.555 58.987 102.438 58.5911 102.203 58.3359C101.974 58.0755 101.596 57.9453 101.07 57.9453C100.305 57.9453 99.7344 58.2917 99.3594 58.9844V65H97.4609V56.5469H99.25ZM111.445 65C111.362 64.8385 111.289 64.5755 111.227 64.2109C110.622 64.8411 109.883 65.1562 109.008 65.1562C108.159 65.1562 107.466 64.9141 106.93 64.4297C106.393 63.9453 106.125 63.3464 106.125 62.6328C106.125 61.7318 106.458 61.0417 107.125 60.5625C107.797 60.0781 108.755 59.8359 110 59.8359H111.164V59.2812C111.164 58.8438 111.042 58.4948 110.797 58.2344C110.552 57.9688 110.18 57.8359 109.68 57.8359C109.247 57.8359 108.893 57.9453 108.617 58.1641C108.341 58.3776 108.203 58.651 108.203 58.9844H106.305C106.305 58.5208 106.458 58.0885 106.766 57.6875C107.073 57.2812 107.49 56.9635 108.016 56.7344C108.547 56.5052 109.138 56.3906 109.789 56.3906C110.779 56.3906 111.568 56.6406 112.156 57.1406C112.745 57.6354 113.047 58.3333 113.062 59.2344V63.0469C113.062 63.8073 113.169 64.4141 113.383 64.8672V65H111.445ZM109.359 63.6328C109.734 63.6328 110.086 63.5417 110.414 63.3594C110.747 63.1771 110.997 62.9323 111.164 62.625V61.0312H110.141C109.438 61.0312 108.909 61.1536 108.555 61.3984C108.201 61.6432 108.023 61.9896 108.023 62.4375C108.023 62.8021 108.143 63.0938 108.383 63.3125C108.628 63.526 108.953 63.6328 109.359 63.6328ZM117.43 54.4922V56.5469H118.922V57.9531H117.43V62.6719C117.43 62.9948 117.492 63.2292 117.617 63.375C117.747 63.5156 117.977 63.5859 118.305 63.5859C118.523 63.5859 118.745 63.5599 118.969 63.5078V64.9766C118.536 65.0964 118.12 65.1562 117.719 65.1562C116.26 65.1562 115.531 64.3516 115.531 62.7422V57.9531H114.141V56.5469H115.531V54.4922H117.43ZM131.812 54.6797L127.266 65H125.273L129.812 55.1484H123.93V53.625H131.812V54.6797Z" fill="#FF5A43"/>
<path d="M101.789 25H99.8906V16.5469H101.789V25ZM99.7734 14.3516C99.7734 14.0599 99.8646 13.8177 100.047 13.625C100.234 13.4323 100.5 13.3359 100.844 13.3359C101.188 13.3359 101.453 13.4323 101.641 13.625C101.828 13.8177 101.922 14.0599 101.922 14.3516C101.922 14.638 101.828 14.8776 101.641 15.0703C101.453 15.2578 101.188 15.3516 100.844 15.3516C100.5 15.3516 100.234 15.2578 100.047 15.0703C99.8646 14.8776 99.7734 14.638 99.7734 14.3516ZM105.625 16.5469L105.68 17.5234C106.305 16.7682 107.125 16.3906 108.141 16.3906C109.901 16.3906 110.797 17.3984 110.828 19.4141V25H108.93V19.5234C108.93 18.987 108.812 18.5911 108.578 18.3359C108.349 18.0755 107.971 17.9453 107.445 17.9453C106.68 17.9453 106.109 18.2917 105.734 18.9844V25H103.836V16.5469H105.625ZM115.148 14.4922V16.5469H116.641V17.9531H115.148V22.6719C115.148 22.9948 115.211 23.2292 115.336 23.375C115.466 23.5156 115.695 23.5859 116.023 23.5859C116.242 23.5859 116.464 23.5599 116.688 23.5078V24.9766C116.255 25.0964 115.839 25.1562 115.438 25.1562C113.979 25.1562 113.25 24.3516 113.25 22.7422V17.9531H111.859V16.5469H113.25V14.4922H115.148ZM127.867 13.5703V15.1406H127.633C126.57 15.1562 125.721 15.4479 125.086 16.0156C124.451 16.5833 124.073 17.388 123.953 18.4297C124.562 17.7891 125.341 17.4688 126.289 17.4688C127.294 17.4688 128.086 17.8229 128.664 18.5312C129.247 19.2396 129.539 20.1536 129.539 21.2734C129.539 22.4297 129.198 23.3672 128.516 24.0859C127.839 24.7995 126.948 25.1562 125.844 25.1562C124.708 25.1562 123.786 24.737 123.078 23.8984C122.375 23.0599 122.023 21.9609 122.023 20.6016V19.9531C122.023 17.9583 122.508 16.3958 123.477 15.2656C124.451 14.1354 125.849 13.5703 127.672 13.5703H127.867ZM125.828 19C125.411 19 125.029 19.1172 124.68 19.3516C124.336 19.5859 124.083 19.8984 123.922 20.2891V20.8672C123.922 21.7109 124.099 22.3828 124.453 22.8828C124.807 23.3776 125.266 23.625 125.828 23.625C126.391 23.625 126.836 23.4141 127.164 22.9922C127.492 22.5703 127.656 22.0156 127.656 21.3281C127.656 20.6406 127.49 20.0807 127.156 19.6484C126.823 19.2161 126.38 19 125.828 19Z" fill="#FF5A43"/>
<path d="M0.5 8C0.5 3.85786 3.85786 0.5 8 0.5H221C225.142 0.5 228.5 3.85787 228.5 8V119.5H0.5V8Z" stroke="#5452F6"/>
</g>
<g filter="url(#filter1_d)">
<path d="M0 119H229V135C229 139.418 225.418 143 221 143H8.00001C3.58173 143 0 139.418 0 135V119Z" fill="#EEEEFF"/>
<path d="M0.5 119.5H228.5V135C228.5 139.142 225.142 142.5 221 142.5H8.00001C3.85787 142.5 0.5 139.142 0.5 135V119.5Z" stroke="#5452F6"/>
</g>
<g filter="url(#filter2_d)">
<path d="M400 48C400 43.5817 403.582 40 408 40H621C625.418 40 629 43.5817 629 48V120H400V48Z" fill="white"/>
<path d="M400.5 48C400.5 43.8579 403.858 40.5 408 40.5H621C625.142 40.5 628.5 43.8579 628.5 48V119.5H400.5V48Z" stroke="#5452F6"/>
</g>
<g filter="url(#filter3_d)">
<path d="M400 119H629V135C629 139.418 625.418 143 621 143H408C403.582 143 400 139.418 400 135V119Z" fill="#EEEEFF"/>
<path d="M400.5 119.5H628.5V135C628.5 139.142 625.142 142.5 621 142.5H408C403.858 142.5 400.5 139.142 400.5 135V119.5Z" stroke="#5452F6"/>
</g>
<line x1="400.5" y1="79.5" x2="628.5" y2="79.5" stroke="#5452F6"/>
<path d="M473.789 102.07C473.789 101.57 473.612 101.185 473.258 100.914C472.909 100.643 472.276 100.37 471.359 100.094C470.443 99.8177 469.714 99.5104 469.172 99.1719C468.135 98.5208 467.617 97.6719 467.617 96.625C467.617 95.7083 467.99 94.9531 468.734 94.3594C469.484 93.7656 470.456 93.4688 471.648 93.4688C472.44 93.4688 473.146 93.6146 473.766 93.9062C474.385 94.1979 474.872 94.6146 475.227 95.1562C475.581 95.6927 475.758 96.2891 475.758 96.9453H473.789C473.789 96.3516 473.602 95.888 473.227 95.5547C472.857 95.2161 472.326 95.0469 471.633 95.0469C470.987 95.0469 470.484 95.1849 470.125 95.4609C469.771 95.737 469.594 96.1224 469.594 96.6172C469.594 97.0339 469.786 97.3828 470.172 97.6641C470.557 97.9401 471.193 98.2109 472.078 98.4766C472.964 98.737 473.674 99.0365 474.211 99.375C474.747 99.7083 475.141 100.094 475.391 100.531C475.641 100.964 475.766 101.471 475.766 102.055C475.766 103.003 475.401 103.758 474.672 104.32C473.948 104.878 472.964 105.156 471.719 105.156C470.896 105.156 470.138 105.005 469.445 104.703C468.758 104.396 468.221 103.974 467.836 103.438C467.456 102.901 467.266 102.276 467.266 101.562H469.242C469.242 102.208 469.456 102.708 469.883 103.062C470.31 103.417 470.922 103.594 471.719 103.594C472.406 103.594 472.922 103.456 473.266 103.18C473.615 102.898 473.789 102.529 473.789 102.07ZM479.695 94.4922V96.5469H481.188V97.9531H479.695V102.672C479.695 102.995 479.758 103.229 479.883 103.375C480.013 103.516 480.242 103.586 480.57 103.586C480.789 103.586 481.01 103.56 481.234 103.508V104.977C480.802 105.096 480.385 105.156 479.984 105.156C478.526 105.156 477.797 104.352 477.797 102.742V97.9531H476.406V96.5469H477.797V94.4922H479.695ZM487.07 98.2812C486.82 98.2396 486.562 98.2188 486.297 98.2188C485.427 98.2188 484.841 98.5521 484.539 99.2188V105H482.641V96.5469H484.453L484.5 97.4922C484.958 96.7578 485.594 96.3906 486.406 96.3906C486.677 96.3906 486.901 96.4271 487.078 96.5L487.07 98.2812ZM490.289 105H488.391V96.5469H490.289V105ZM488.273 94.3516C488.273 94.0599 488.365 93.8177 488.547 93.625C488.734 93.4323 489 93.3359 489.344 93.3359C489.688 93.3359 489.953 93.4323 490.141 93.625C490.328 93.8177 490.422 94.0599 490.422 94.3516C490.422 94.638 490.328 94.8776 490.141 95.0703C489.953 95.2578 489.688 95.3516 489.344 95.3516C489 95.3516 488.734 95.2578 488.547 95.0703C488.365 94.8776 488.273 94.638 488.273 94.3516ZM494.125 96.5469L494.18 97.5234C494.805 96.7682 495.625 96.3906 496.641 96.3906C498.401 96.3906 499.297 97.3984 499.328 99.4141V105H497.43V99.5234C497.43 98.987 497.312 98.5911 497.078 98.3359C496.849 98.0755 496.471 97.9453 495.945 97.9453C495.18 97.9453 494.609 98.2917 494.234 98.9844V105H492.336V96.5469H494.125ZM500.938 100.711C500.938 99.3984 501.245 98.3516 501.859 97.5703C502.479 96.7839 503.299 96.3906 504.32 96.3906C505.284 96.3906 506.042 96.7266 506.594 97.3984L506.68 96.5469H508.391V104.742C508.391 105.852 508.044 106.727 507.352 107.367C506.664 108.008 505.734 108.328 504.562 108.328C503.943 108.328 503.336 108.198 502.742 107.938C502.154 107.682 501.706 107.346 501.398 106.93L502.297 105.789C502.88 106.482 503.599 106.828 504.453 106.828C505.083 106.828 505.581 106.656 505.945 106.312C506.31 105.974 506.492 105.474 506.492 104.812V104.242C505.945 104.852 505.216 105.156 504.305 105.156C503.315 105.156 502.505 104.763 501.875 103.977C501.25 103.19 500.938 102.102 500.938 100.711ZM502.828 100.875C502.828 101.724 503 102.393 503.344 102.883C503.693 103.367 504.174 103.609 504.789 103.609C505.555 103.609 506.122 103.281 506.492 102.625V98.9062C506.133 98.2656 505.57 97.9453 504.805 97.9453C504.18 97.9453 503.693 98.1927 503.344 98.6875C503 99.1823 502.828 99.9115 502.828 100.875ZM515.633 92.7969L516.602 93.3984C516.128 94.0911 515.883 94.8125 515.867 95.5625V96.75H514.203V95.6719C514.208 95.1719 514.344 94.651 514.609 94.1094C514.88 93.5625 515.221 93.125 515.633 92.7969ZM518.258 92.7969L519.227 93.3984C518.753 94.0911 518.508 94.8125 518.492 95.5625V96.75H516.828V95.6719C516.833 95.1719 516.969 94.651 517.234 94.1094C517.505 93.5625 517.846 93.125 518.258 92.7969ZM529.703 105H527.734V99.9453H522.648V105H520.672V93.625H522.648V98.3594H527.734V93.625H529.703V105ZM535.586 105.156C534.383 105.156 533.406 104.779 532.656 104.023C531.911 103.263 531.539 102.253 531.539 100.992V100.758C531.539 99.9141 531.701 99.1615 532.023 98.5C532.352 97.8333 532.81 97.3151 533.398 96.9453C533.987 96.5755 534.643 96.3906 535.367 96.3906C536.518 96.3906 537.406 96.7578 538.031 97.4922C538.661 98.2266 538.977 99.2656 538.977 100.609V101.375H533.453C533.51 102.073 533.742 102.625 534.148 103.031C534.56 103.438 535.076 103.641 535.695 103.641C536.565 103.641 537.273 103.289 537.82 102.586L538.844 103.562C538.505 104.068 538.052 104.461 537.484 104.742C536.922 105.018 536.289 105.156 535.586 105.156ZM535.359 97.9141C534.839 97.9141 534.417 98.0964 534.094 98.4609C533.776 98.8255 533.573 99.3333 533.484 99.9844H537.102V99.8438C537.06 99.2083 536.891 98.7292 536.594 98.4062C536.297 98.0781 535.885 97.9141 535.359 97.9141ZM542.477 105H540.578V93H542.477V105ZM546.57 105H544.672V93H546.57V105ZM548.289 100.695C548.289 99.8672 548.453 99.1224 548.781 98.4609C549.109 97.7943 549.57 97.2839 550.164 96.9297C550.758 96.5703 551.44 96.3906 552.211 96.3906C553.352 96.3906 554.276 96.7578 554.984 97.4922C555.698 98.2266 556.083 99.2005 556.141 100.414L556.148 100.859C556.148 101.693 555.987 102.438 555.664 103.094C555.346 103.75 554.888 104.258 554.289 104.617C553.695 104.977 553.008 105.156 552.227 105.156C551.034 105.156 550.078 104.76 549.359 103.969C548.646 103.172 548.289 102.112 548.289 100.789V100.695ZM550.188 100.859C550.188 101.729 550.367 102.411 550.727 102.906C551.086 103.396 551.586 103.641 552.227 103.641C552.867 103.641 553.365 103.391 553.719 102.891C554.078 102.391 554.258 101.659 554.258 100.695C554.258 99.8411 554.073 99.1641 553.703 98.6641C553.339 98.1641 552.841 97.9141 552.211 97.9141C551.591 97.9141 551.099 98.1615 550.734 98.6562C550.37 99.1458 550.188 99.8802 550.188 100.859ZM557.562 97L556.594 96.3984C557.062 95.7161 557.305 94.9948 557.32 94.2344V93H558.984V94.0781C558.984 94.6146 558.846 95.1562 558.57 95.7031C558.299 96.2448 557.964 96.6771 557.562 97ZM560.172 97L559.203 96.3984C559.672 95.7161 559.914 94.9948 559.93 94.2344V93H561.594V94.0781C561.594 94.6146 561.456 95.1562 561.18 95.7031C560.909 96.2448 560.573 96.6771 560.172 97Z" fill="#5452F6"/>
<path d="M497.242 65H495.344V56.5469H497.242V65ZM495.227 54.3516C495.227 54.0599 495.318 53.8177 495.5 53.625C495.688 53.4323 495.953 53.3359 496.297 53.3359C496.641 53.3359 496.906 53.4323 497.094 53.625C497.281 53.8177 497.375 54.0599 497.375 54.3516C497.375 54.638 497.281 54.8776 497.094 55.0703C496.906 55.2578 496.641 55.3516 496.297 55.3516C495.953 55.3516 495.688 55.2578 495.5 55.0703C495.318 54.8776 495.227 54.638 495.227 54.3516ZM501.078 56.5469L501.133 57.5234C501.758 56.7682 502.578 56.3906 503.594 56.3906C505.354 56.3906 506.25 57.3984 506.281 59.4141V65H504.383V59.5234C504.383 58.987 504.266 58.5911 504.031 58.3359C503.802 58.0755 503.424 57.9453 502.898 57.9453C502.133 57.9453 501.562 58.2917 501.188 58.9844V65H499.289V56.5469H501.078ZM510.602 54.4922V56.5469H512.094V57.9531H510.602V62.6719C510.602 62.9948 510.664 63.2292 510.789 63.375C510.919 63.5156 511.148 63.5859 511.477 63.5859C511.695 63.5859 511.917 63.5599 512.141 63.5078V64.9766C511.708 65.0964 511.292 65.1562 510.891 65.1562C509.432 65.1562 508.703 64.3516 508.703 62.7422V57.9531H507.312V56.5469H508.703V54.4922H510.602ZM523.836 60.9453H525.25V62.4688H523.836V65H521.938V62.4688H517.023L516.969 61.3125L521.875 53.625H523.836V60.9453ZM518.961 60.9453H521.938V56.1953L521.797 56.4453L518.961 60.9453ZM534.156 65H526.508V63.6953L530.297 59.5625C530.844 58.9531 531.232 58.4453 531.461 58.0391C531.695 57.6276 531.812 57.2161 531.812 56.8047C531.812 56.263 531.659 55.8255 531.352 55.4922C531.049 55.1589 530.641 54.9922 530.125 54.9922C529.51 54.9922 529.034 55.1797 528.695 55.5547C528.357 55.9297 528.188 56.4427 528.188 57.0938H526.289C526.289 56.401 526.445 55.7786 526.758 55.2266C527.076 54.6693 527.526 54.237 528.109 53.9297C528.698 53.6224 529.375 53.4688 530.141 53.4688C531.245 53.4688 532.115 53.7474 532.75 54.3047C533.391 54.8568 533.711 55.6224 533.711 56.6016C533.711 57.1693 533.549 57.7656 533.227 58.3906C532.909 59.0104 532.385 59.7161 531.656 60.5078L528.875 63.4844H534.156V65Z" fill="#FF5A43"/>
<g filter="url(#filter4_d)">
<path d="M0 197C0 192.582 3.58172 189 8 189H221C225.418 189 229 192.582 229 197V309H0V197Z" fill="white"/>
<line x1="0.5" y1="268.5" x2="228.5" y2="268.5" stroke="#5452F6"/>
<line x1="0.5" y1="228.5" x2="228.5" y2="228.5" stroke="#5452F6"/>
<path d="M73.7891 291.07C73.7891 290.57 73.612 290.185 73.2578 289.914C72.9089 289.643 72.276 289.37 71.3594 289.094C70.4427 288.818 69.7135 288.51 69.1719 288.172C68.1354 287.521 67.6172 286.672 67.6172 285.625C67.6172 284.708 67.9896 283.953 68.7344 283.359C69.4844 282.766 70.4557 282.469 71.6484 282.469C72.4401 282.469 73.1458 282.615 73.7656 282.906C74.3854 283.198 74.8724 283.615 75.2266 284.156C75.5807 284.693 75.7578 285.289 75.7578 285.945H73.7891C73.7891 285.352 73.6016 284.888 73.2266 284.555C72.8568 284.216 72.3255 284.047 71.6328 284.047C70.987 284.047 70.4844 284.185 70.125 284.461C69.7708 284.737 69.5938 285.122 69.5938 285.617C69.5938 286.034 69.7865 286.383 70.1719 286.664C70.5573 286.94 71.1927 287.211 72.0781 287.477C72.9635 287.737 73.6745 288.036 74.2109 288.375C74.7474 288.708 75.1406 289.094 75.3906 289.531C75.6406 289.964 75.7656 290.471 75.7656 291.055C75.7656 292.003 75.401 292.758 74.6719 293.32C73.9479 293.878 72.9635 294.156 71.7188 294.156C70.8958 294.156 70.138 294.005 69.4453 293.703C68.7578 293.396 68.2214 292.974 67.8359 292.438C67.4557 291.901 67.2656 291.276 67.2656 290.562H69.2422C69.2422 291.208 69.4557 291.708 69.8828 292.062C70.3099 292.417 70.9219 292.594 71.7188 292.594C72.4062 292.594 72.9219 292.456 73.2656 292.18C73.6146 291.898 73.7891 291.529 73.7891 291.07ZM79.6953 283.492V285.547H81.1875V286.953H79.6953V291.672C79.6953 291.995 79.7578 292.229 79.8828 292.375C80.013 292.516 80.2422 292.586 80.5703 292.586C80.7891 292.586 81.0104 292.56 81.2344 292.508V293.977C80.8021 294.096 80.3854 294.156 79.9844 294.156C78.526 294.156 77.7969 293.352 77.7969 291.742V286.953H76.4062V285.547H77.7969V283.492H79.6953ZM87.0703 287.281C86.8203 287.24 86.5625 287.219 86.2969 287.219C85.4271 287.219 84.8411 287.552 84.5391 288.219V294H82.6406V285.547H84.4531L84.5 286.492C84.9583 285.758 85.5938 285.391 86.4062 285.391C86.6771 285.391 86.901 285.427 87.0781 285.5L87.0703 287.281ZM90.2891 294H88.3906V285.547H90.2891V294ZM88.2734 283.352C88.2734 283.06 88.3646 282.818 88.5469 282.625C88.7344 282.432 89 282.336 89.3438 282.336C89.6875 282.336 89.9531 282.432 90.1406 282.625C90.3281 282.818 90.4219 283.06 90.4219 283.352C90.4219 283.638 90.3281 283.878 90.1406 284.07C89.9531 284.258 89.6875 284.352 89.3438 284.352C89 284.352 88.7344 284.258 88.5469 284.07C88.3646 283.878 88.2734 283.638 88.2734 283.352ZM94.125 285.547L94.1797 286.523C94.8047 285.768 95.625 285.391 96.6406 285.391C98.401 285.391 99.2969 286.398 99.3281 288.414V294H97.4297V288.523C97.4297 287.987 97.3125 287.591 97.0781 287.336C96.849 287.076 96.4714 286.945 95.9453 286.945C95.1797 286.945 94.6094 287.292 94.2344 287.984V294H92.3359V285.547H94.125ZM100.938 289.711C100.938 288.398 101.245 287.352 101.859 286.57C102.479 285.784 103.299 285.391 104.32 285.391C105.284 285.391 106.042 285.727 106.594 286.398L106.68 285.547H108.391V293.742C108.391 294.852 108.044 295.727 107.352 296.367C106.664 297.008 105.734 297.328 104.562 297.328C103.943 297.328 103.336 297.198 102.742 296.938C102.154 296.682 101.706 296.346 101.398 295.93L102.297 294.789C102.88 295.482 103.599 295.828 104.453 295.828C105.083 295.828 105.581 295.656 105.945 295.312C106.31 294.974 106.492 294.474 106.492 293.812V293.242C105.945 293.852 105.216 294.156 104.305 294.156C103.315 294.156 102.505 293.763 101.875 292.977C101.25 292.19 100.938 291.102 100.938 289.711ZM102.828 289.875C102.828 290.724 103 291.393 103.344 291.883C103.693 292.367 104.174 292.609 104.789 292.609C105.555 292.609 106.122 292.281 106.492 291.625V287.906C106.133 287.266 105.57 286.945 104.805 286.945C104.18 286.945 103.693 287.193 103.344 287.688C103 288.182 102.828 288.911 102.828 289.875ZM115.633 281.797L116.602 282.398C116.128 283.091 115.883 283.812 115.867 284.562V285.75H114.203V284.672C114.208 284.172 114.344 283.651 114.609 283.109C114.88 282.562 115.221 282.125 115.633 281.797ZM118.258 281.797L119.227 282.398C118.753 283.091 118.508 283.812 118.492 284.562V285.75H116.828V284.672C116.833 284.172 116.969 283.651 117.234 283.109C117.505 282.562 117.846 282.125 118.258 281.797ZM129.703 294H127.734V288.945H122.648V294H120.672V282.625H122.648V287.359H127.734V282.625H129.703V294ZM135.586 294.156C134.383 294.156 133.406 293.779 132.656 293.023C131.911 292.263 131.539 291.253 131.539 289.992V289.758C131.539 288.914 131.701 288.161 132.023 287.5C132.352 286.833 132.81 286.315 133.398 285.945C133.987 285.576 134.643 285.391 135.367 285.391C136.518 285.391 137.406 285.758 138.031 286.492C138.661 287.227 138.977 288.266 138.977 289.609V290.375H133.453C133.51 291.073 133.742 291.625 134.148 292.031C134.56 292.438 135.076 292.641 135.695 292.641C136.565 292.641 137.273 292.289 137.82 291.586L138.844 292.562C138.505 293.068 138.052 293.461 137.484 293.742C136.922 294.018 136.289 294.156 135.586 294.156ZM135.359 286.914C134.839 286.914 134.417 287.096 134.094 287.461C133.776 287.826 133.573 288.333 133.484 288.984H137.102V288.844C137.06 288.208 136.891 287.729 136.594 287.406C136.297 287.078 135.885 286.914 135.359 286.914ZM142.477 294H140.578V282H142.477V294ZM146.57 294H144.672V282H146.57V294ZM148.289 289.695C148.289 288.867 148.453 288.122 148.781 287.461C149.109 286.794 149.57 286.284 150.164 285.93C150.758 285.57 151.44 285.391 152.211 285.391C153.352 285.391 154.276 285.758 154.984 286.492C155.698 287.227 156.083 288.201 156.141 289.414L156.148 289.859C156.148 290.693 155.987 291.438 155.664 292.094C155.346 292.75 154.888 293.258 154.289 293.617C153.695 293.977 153.008 294.156 152.227 294.156C151.034 294.156 150.078 293.76 149.359 292.969C148.646 292.172 148.289 291.112 148.289 289.789V289.695ZM150.188 289.859C150.188 290.729 150.367 291.411 150.727 291.906C151.086 292.396 151.586 292.641 152.227 292.641C152.867 292.641 153.365 292.391 153.719 291.891C154.078 291.391 154.258 290.659 154.258 289.695C154.258 288.841 154.073 288.164 153.703 287.664C153.339 287.164 152.841 286.914 152.211 286.914C151.591 286.914 151.099 287.161 150.734 287.656C150.37 288.146 150.188 288.88 150.188 289.859ZM157.562 286L156.594 285.398C157.062 284.716 157.305 283.995 157.32 283.234V282H158.984V283.078C158.984 283.615 158.846 284.156 158.57 284.703C158.299 285.245 157.964 285.677 157.562 286ZM160.172 286L159.203 285.398C159.672 284.716 159.914 283.995 159.93 283.234V282H161.594V283.078C161.594 283.615 161.456 284.156 161.18 284.703C160.909 285.245 160.573 285.677 160.172 286Z" fill="#5452F6"/>
<path d="M99.25 245.547L99.3047 246.523C99.9297 245.768 100.75 245.391 101.766 245.391C103.526 245.391 104.422 246.398 104.453 248.414V254H102.555V248.523C102.555 247.987 102.438 247.591 102.203 247.336C101.974 247.076 101.596 246.945 101.07 246.945C100.305 246.945 99.7344 247.292 99.3594 247.984V254H97.4609V245.547H99.25ZM111.445 254C111.362 253.839 111.289 253.576 111.227 253.211C110.622 253.841 109.883 254.156 109.008 254.156C108.159 254.156 107.466 253.914 106.93 253.43C106.393 252.945 106.125 252.346 106.125 251.633C106.125 250.732 106.458 250.042 107.125 249.562C107.797 249.078 108.755 248.836 110 248.836H111.164V248.281C111.164 247.844 111.042 247.495 110.797 247.234C110.552 246.969 110.18 246.836 109.68 246.836C109.247 246.836 108.893 246.945 108.617 247.164C108.341 247.378 108.203 247.651 108.203 247.984H106.305C106.305 247.521 106.458 247.089 106.766 246.688C107.073 246.281 107.49 245.964 108.016 245.734C108.547 245.505 109.138 245.391 109.789 245.391C110.779 245.391 111.568 245.641 112.156 246.141C112.745 246.635 113.047 247.333 113.062 248.234V252.047C113.062 252.807 113.169 253.414 113.383 253.867V254H111.445ZM109.359 252.633C109.734 252.633 110.086 252.542 110.414 252.359C110.747 252.177 110.997 251.932 111.164 251.625V250.031H110.141C109.438 250.031 108.909 250.154 108.555 250.398C108.201 250.643 108.023 250.99 108.023 251.438C108.023 251.802 108.143 252.094 108.383 252.312C108.628 252.526 108.953 252.633 109.359 252.633ZM117.43 243.492V245.547H118.922V246.953H117.43V251.672C117.43 251.995 117.492 252.229 117.617 252.375C117.747 252.516 117.977 252.586 118.305 252.586C118.523 252.586 118.745 252.56 118.969 252.508V253.977C118.536 254.096 118.12 254.156 117.719 254.156C116.26 254.156 115.531 253.352 115.531 251.742V246.953H114.141V245.547H115.531V243.492H117.43ZM131.891 254H124.242V252.695L128.031 248.562C128.578 247.953 128.966 247.445 129.195 247.039C129.43 246.628 129.547 246.216 129.547 245.805C129.547 245.263 129.393 244.826 129.086 244.492C128.784 244.159 128.375 243.992 127.859 243.992C127.245 243.992 126.768 244.18 126.43 244.555C126.091 244.93 125.922 245.443 125.922 246.094H124.023C124.023 245.401 124.18 244.779 124.492 244.227C124.81 243.669 125.26 243.237 125.844 242.93C126.432 242.622 127.109 242.469 127.875 242.469C128.979 242.469 129.849 242.747 130.484 243.305C131.125 243.857 131.445 244.622 131.445 245.602C131.445 246.169 131.284 246.766 130.961 247.391C130.643 248.01 130.12 248.716 129.391 249.508L126.609 252.484H131.891V254Z" fill="#FF5A43"/>
<path d="M99.25 205.547L99.3047 206.523C99.9297 205.768 100.75 205.391 101.766 205.391C103.526 205.391 104.422 206.398 104.453 208.414V214H102.555V208.523C102.555 207.987 102.438 207.591 102.203 207.336C101.974 207.076 101.596 206.945 101.07 206.945C100.305 206.945 99.7344 207.292 99.3594 207.984V214H97.4609V205.547H99.25ZM111.445 214C111.362 213.839 111.289 213.576 111.227 213.211C110.622 213.841 109.883 214.156 109.008 214.156C108.159 214.156 107.466 213.914 106.93 213.43C106.393 212.945 106.125 212.346 106.125 211.633C106.125 210.732 106.458 210.042 107.125 209.562C107.797 209.078 108.755 208.836 110 208.836H111.164V208.281C111.164 207.844 111.042 207.495 110.797 207.234C110.552 206.969 110.18 206.836 109.68 206.836C109.247 206.836 108.893 206.945 108.617 207.164C108.341 207.378 108.203 207.651 108.203 207.984H106.305C106.305 207.521 106.458 207.089 106.766 206.688C107.073 206.281 107.49 205.964 108.016 205.734C108.547 205.505 109.138 205.391 109.789 205.391C110.779 205.391 111.568 205.641 112.156 206.141C112.745 206.635 113.047 207.333 113.062 208.234V212.047C113.062 212.807 113.169 213.414 113.383 213.867V214H111.445ZM109.359 212.633C109.734 212.633 110.086 212.542 110.414 212.359C110.747 212.177 110.997 211.932 111.164 211.625V210.031H110.141C109.438 210.031 108.909 210.154 108.555 210.398C108.201 210.643 108.023 210.99 108.023 211.438C108.023 211.802 108.143 212.094 108.383 212.312C108.628 212.526 108.953 212.633 109.359 212.633ZM117.43 203.492V205.547H118.922V206.953H117.43V211.672C117.43 211.995 117.492 212.229 117.617 212.375C117.747 212.516 117.977 212.586 118.305 212.586C118.523 212.586 118.745 212.56 118.969 212.508V213.977C118.536 214.096 118.12 214.156 117.719 214.156C116.26 214.156 115.531 213.352 115.531 211.742V206.953H114.141V205.547H115.531V203.492H117.43ZM130.148 202.57V204.141H129.914C128.852 204.156 128.003 204.448 127.367 205.016C126.732 205.583 126.354 206.388 126.234 207.43C126.844 206.789 127.622 206.469 128.57 206.469C129.576 206.469 130.367 206.823 130.945 207.531C131.529 208.24 131.82 209.154 131.82 210.273C131.82 211.43 131.479 212.367 130.797 213.086C130.12 213.799 129.229 214.156 128.125 214.156C126.99 214.156 126.068 213.737 125.359 212.898C124.656 212.06 124.305 210.961 124.305 209.602V208.953C124.305 206.958 124.789 205.396 125.758 204.266C126.732 203.135 128.13 202.57 129.953 202.57H130.148ZM128.109 208C127.693 208 127.31 208.117 126.961 208.352C126.617 208.586 126.365 208.898 126.203 209.289V209.867C126.203 210.711 126.38 211.383 126.734 211.883C127.089 212.378 127.547 212.625 128.109 212.625C128.672 212.625 129.117 212.414 129.445 211.992C129.773 211.57 129.938 211.016 129.938 210.328C129.938 209.641 129.771 209.081 129.438 208.648C129.104 208.216 128.661 208 128.109 208Z" fill="#FF5A43"/>
<path d="M0.5 197C0.5 192.858 3.85786 189.5 8 189.5H221C225.142 189.5 228.5 192.858 228.5 197V308.5H0.5V197Z" stroke="#5452F6"/>
</g>
<g filter="url(#filter5_d)">
<path d="M0 308H229V324C229 328.418 225.418 332 221 332H8.00001C3.58173 332 0 328.418 0 324V308Z" fill="#EEEEFF"/>
<path d="M0.5 308.5H228.5V324C228.5 328.142 225.142 331.5 221 331.5H8.00001C3.85787 331.5 0.5 328.142 0.5 324V308.5Z" stroke="#5452F6"/>
</g>
<g filter="url(#filter6_d)">
<path d="M400 237C400 232.582 403.582 229 408 229H621C625.418 229 629 232.582 629 237V309H400V237Z" fill="white"/>
<path d="M400.5 237C400.5 232.858 403.858 229.5 408 229.5H621C625.142 229.5 628.5 232.858 628.5 237V308.5H400.5V237Z" stroke="#5452F6"/>
</g>
<g filter="url(#filter7_d)">
<path d="M400 308H629V324C629 328.418 625.418 332 621 332H408C403.582 332 400 328.418 400 324V308Z" fill="#EEEEFF"/>
<path d="M400.5 308.5H628.5V324C628.5 328.142 625.142 331.5 621 331.5H408C403.858 331.5 400.5 328.142 400.5 324V308.5Z" stroke="#5452F6"/>
</g>
<line x1="400.5" y1="268.5" x2="628.5" y2="268.5" stroke="#5452F6"/>
<path d="M473.789 291.07C473.789 290.57 473.612 290.185 473.258 289.914C472.909 289.643 472.276 289.37 471.359 289.094C470.443 288.818 469.714 288.51 469.172 288.172C468.135 287.521 467.617 286.672 467.617 285.625C467.617 284.708 467.99 283.953 468.734 283.359C469.484 282.766 470.456 282.469 471.648 282.469C472.44 282.469 473.146 282.615 473.766 282.906C474.385 283.198 474.872 283.615 475.227 284.156C475.581 284.693 475.758 285.289 475.758 285.945H473.789C473.789 285.352 473.602 284.888 473.227 284.555C472.857 284.216 472.326 284.047 471.633 284.047C470.987 284.047 470.484 284.185 470.125 284.461C469.771 284.737 469.594 285.122 469.594 285.617C469.594 286.034 469.786 286.383 470.172 286.664C470.557 286.94 471.193 287.211 472.078 287.477C472.964 287.737 473.674 288.036 474.211 288.375C474.747 288.708 475.141 289.094 475.391 289.531C475.641 289.964 475.766 290.471 475.766 291.055C475.766 292.003 475.401 292.758 474.672 293.32C473.948 293.878 472.964 294.156 471.719 294.156C470.896 294.156 470.138 294.005 469.445 293.703C468.758 293.396 468.221 292.974 467.836 292.438C467.456 291.901 467.266 291.276 467.266 290.562H469.242C469.242 291.208 469.456 291.708 469.883 292.062C470.31 292.417 470.922 292.594 471.719 292.594C472.406 292.594 472.922 292.456 473.266 292.18C473.615 291.898 473.789 291.529 473.789 291.07ZM479.695 283.492V285.547H481.188V286.953H479.695V291.672C479.695 291.995 479.758 292.229 479.883 292.375C480.013 292.516 480.242 292.586 480.57 292.586C480.789 292.586 481.01 292.56 481.234 292.508V293.977C480.802 294.096 480.385 294.156 479.984 294.156C478.526 294.156 477.797 293.352 477.797 291.742V286.953H476.406V285.547H477.797V283.492H479.695ZM487.07 287.281C486.82 287.24 486.562 287.219 486.297 287.219C485.427 287.219 484.841 287.552 484.539 288.219V294H482.641V285.547H484.453L484.5 286.492C484.958 285.758 485.594 285.391 486.406 285.391C486.677 285.391 486.901 285.427 487.078 285.5L487.07 287.281ZM490.289 294H488.391V285.547H490.289V294ZM488.273 283.352C488.273 283.06 488.365 282.818 488.547 282.625C488.734 282.432 489 282.336 489.344 282.336C489.688 282.336 489.953 282.432 490.141 282.625C490.328 282.818 490.422 283.06 490.422 283.352C490.422 283.638 490.328 283.878 490.141 284.07C489.953 284.258 489.688 284.352 489.344 284.352C489 284.352 488.734 284.258 488.547 284.07C488.365 283.878 488.273 283.638 488.273 283.352ZM494.125 285.547L494.18 286.523C494.805 285.768 495.625 285.391 496.641 285.391C498.401 285.391 499.297 286.398 499.328 288.414V294H497.43V288.523C497.43 287.987 497.312 287.591 497.078 287.336C496.849 287.076 496.471 286.945 495.945 286.945C495.18 286.945 494.609 287.292 494.234 287.984V294H492.336V285.547H494.125ZM500.938 289.711C500.938 288.398 501.245 287.352 501.859 286.57C502.479 285.784 503.299 285.391 504.32 285.391C505.284 285.391 506.042 285.727 506.594 286.398L506.68 285.547H508.391V293.742C508.391 294.852 508.044 295.727 507.352 296.367C506.664 297.008 505.734 297.328 504.562 297.328C503.943 297.328 503.336 297.198 502.742 296.938C502.154 296.682 501.706 296.346 501.398 295.93L502.297 294.789C502.88 295.482 503.599 295.828 504.453 295.828C505.083 295.828 505.581 295.656 505.945 295.312C506.31 294.974 506.492 294.474 506.492 293.812V293.242C505.945 293.852 505.216 294.156 504.305 294.156C503.315 294.156 502.505 293.763 501.875 292.977C501.25 292.19 500.938 291.102 500.938 289.711ZM502.828 289.875C502.828 290.724 503 291.393 503.344 291.883C503.693 292.367 504.174 292.609 504.789 292.609C505.555 292.609 506.122 292.281 506.492 291.625V287.906C506.133 287.266 505.57 286.945 504.805 286.945C504.18 286.945 503.693 287.193 503.344 287.688C503 288.182 502.828 288.911 502.828 289.875ZM515.633 281.797L516.602 282.398C516.128 283.091 515.883 283.812 515.867 284.562V285.75H514.203V284.672C514.208 284.172 514.344 283.651 514.609 283.109C514.88 282.562 515.221 282.125 515.633 281.797ZM518.258 281.797L519.227 282.398C518.753 283.091 518.508 283.812 518.492 284.562V285.75H516.828V284.672C516.833 284.172 516.969 283.651 517.234 283.109C517.505 282.562 517.846 282.125 518.258 281.797ZM529.703 294H527.734V288.945H522.648V294H520.672V282.625H522.648V287.359H527.734V282.625H529.703V294ZM535.586 294.156C534.383 294.156 533.406 293.779 532.656 293.023C531.911 292.263 531.539 291.253 531.539 289.992V289.758C531.539 288.914 531.701 288.161 532.023 287.5C532.352 286.833 532.81 286.315 533.398 285.945C533.987 285.576 534.643 285.391 535.367 285.391C536.518 285.391 537.406 285.758 538.031 286.492C538.661 287.227 538.977 288.266 538.977 289.609V290.375H533.453C533.51 291.073 533.742 291.625 534.148 292.031C534.56 292.438 535.076 292.641 535.695 292.641C536.565 292.641 537.273 292.289 537.82 291.586L538.844 292.562C538.505 293.068 538.052 293.461 537.484 293.742C536.922 294.018 536.289 294.156 535.586 294.156ZM535.359 286.914C534.839 286.914 534.417 287.096 534.094 287.461C533.776 287.826 533.573 288.333 533.484 288.984H537.102V288.844C537.06 288.208 536.891 287.729 536.594 287.406C536.297 287.078 535.885 286.914 535.359 286.914ZM542.477 294H540.578V282H542.477V294ZM546.57 294H544.672V282H546.57V294ZM548.289 289.695C548.289 288.867 548.453 288.122 548.781 287.461C549.109 286.794 549.57 286.284 550.164 285.93C550.758 285.57 551.44 285.391 552.211 285.391C553.352 285.391 554.276 285.758 554.984 286.492C555.698 287.227 556.083 288.201 556.141 289.414L556.148 289.859C556.148 290.693 555.987 291.438 555.664 292.094C555.346 292.75 554.888 293.258 554.289 293.617C553.695 293.977 553.008 294.156 552.227 294.156C551.034 294.156 550.078 293.76 549.359 292.969C548.646 292.172 548.289 291.112 548.289 289.789V289.695ZM550.188 289.859C550.188 290.729 550.367 291.411 550.727 291.906C551.086 292.396 551.586 292.641 552.227 292.641C552.867 292.641 553.365 292.391 553.719 291.891C554.078 291.391 554.258 290.659 554.258 289.695C554.258 288.841 554.073 288.164 553.703 287.664C553.339 287.164 552.841 286.914 552.211 286.914C551.591 286.914 551.099 287.161 550.734 287.656C550.37 288.146 550.188 288.88 550.188 289.859ZM557.562 286L556.594 285.398C557.062 284.716 557.305 283.995 557.32 283.234V282H558.984V283.078C558.984 283.615 558.846 284.156 558.57 284.703C558.299 285.245 557.964 285.677 557.562 286ZM560.172 286L559.203 285.398C559.672 284.716 559.914 283.995 559.93 283.234V282H561.594V283.078C561.594 283.615 561.456 284.156 561.18 284.703C560.909 285.245 560.573 285.677 560.172 286Z" fill="#5452F6"/>
<path d="M494.703 245.547L494.758 246.523C495.383 245.768 496.203 245.391 497.219 245.391C498.979 245.391 499.875 246.398 499.906 248.414V254H498.008V248.523C498.008 247.987 497.891 247.591 497.656 247.336C497.427 247.076 497.049 246.945 496.523 246.945C495.758 246.945 495.188 247.292 494.812 247.984V254H492.914V245.547H494.703ZM506.898 254C506.815 253.839 506.742 253.576 506.68 253.211C506.076 253.841 505.336 254.156 504.461 254.156C503.612 254.156 502.919 253.914 502.383 253.43C501.846 252.945 501.578 252.346 501.578 251.633C501.578 250.732 501.911 250.042 502.578 249.562C503.25 249.078 504.208 248.836 505.453 248.836H506.617V248.281C506.617 247.844 506.495 247.495 506.25 247.234C506.005 246.969 505.633 246.836 505.133 246.836C504.701 246.836 504.346 246.945 504.07 247.164C503.794 247.378 503.656 247.651 503.656 247.984H501.758C501.758 247.521 501.911 247.089 502.219 246.688C502.526 246.281 502.943 245.964 503.469 245.734C504 245.505 504.591 245.391 505.242 245.391C506.232 245.391 507.021 245.641 507.609 246.141C508.198 246.635 508.5 247.333 508.516 248.234V252.047C508.516 252.807 508.622 253.414 508.836 253.867V254H506.898ZM504.812 252.633C505.188 252.633 505.539 252.542 505.867 252.359C506.201 252.177 506.451 251.932 506.617 251.625V250.031H505.594C504.891 250.031 504.362 250.154 504.008 250.398C503.654 250.643 503.477 250.99 503.477 251.438C503.477 251.802 503.596 252.094 503.836 252.312C504.081 252.526 504.406 252.633 504.812 252.633ZM512.883 243.492V245.547H514.375V246.953H512.883V251.672C512.883 251.995 512.945 252.229 513.07 252.375C513.201 252.516 513.43 252.586 513.758 252.586C513.977 252.586 514.198 252.56 514.422 252.508V253.977C513.99 254.096 513.573 254.156 513.172 254.156C511.714 254.156 510.984 253.352 510.984 251.742V246.953H509.594V245.547H510.984V243.492H512.883ZM524.836 254H522.945V244.867L520.156 245.82V244.219L524.594 242.586H524.836V254ZM536.438 254H528.789V252.695L532.578 248.562C533.125 247.953 533.513 247.445 533.742 247.039C533.977 246.628 534.094 246.216 534.094 245.805C534.094 245.263 533.94 244.826 533.633 244.492C533.331 244.159 532.922 243.992 532.406 243.992C531.792 243.992 531.315 244.18 530.977 244.555C530.638 244.93 530.469 245.443 530.469 246.094H528.57C528.57 245.401 528.727 244.779 529.039 244.227C529.357 243.669 529.807 243.237 530.391 242.93C530.979 242.622 531.656 242.469 532.422 242.469C533.526 242.469 534.396 242.747 535.031 243.305C535.672 243.857 535.992 244.622 535.992 245.602C535.992 246.169 535.831 246.766 535.508 247.391C535.19 248.01 534.667 248.716 533.938 249.508L531.156 252.484H536.438V254Z" fill="#FF5A43"/>
<defs>
<filter id="filter0_d" x="0" y="0" width="233" height="124" filterUnits="userSpaceOnUse" color-interpolation-filters="sRGB">
<feFlood flood-opacity="0" result="BackgroundImageFix"/>
<feColorMatrix in="SourceAlpha" type="matrix" values="0 0 0 0 0 0 0 0 0 0 0 0 0 0 0 0 0 0 127 0"/>
<feOffset dx="4" dy="4"/>
<feColorMatrix type="matrix" values="0 0 0 0 0.674908 0 0 0 0 0.662083 0 0 0 0 0.945833 0 0 0 1 0"/>
<feBlend mode="normal" in2="BackgroundImageFix" result="effect1_dropShadow"/>
<feBlend mode="normal" in="SourceGraphic" in2="effect1_dropShadow" result="shape"/>
</filter>
<filter id="filter1_d" x="0" y="119" width="233" height="28" filterUnits="userSpaceOnUse" color-interpolation-filters="sRGB">
<feFlood flood-opacity="0" result="BackgroundImageFix"/>
<feColorMatrix in="SourceAlpha" type="matrix" values="0 0 0 0 0 0 0 0 0 0 0 0 0 0 0 0 0 0 127 0"/>
<feOffset dx="4" dy="4"/>
<feColorMatrix type="matrix" values="0 0 0 0 0.674908 0 0 0 0 0.662083 0 0 0 0 0.945833 0 0 0 1 0"/>
<feBlend mode="normal" in2="BackgroundImageFix" result="effect1_dropShadow"/>
<feBlend mode="normal" in="SourceGraphic" in2="effect1_dropShadow" result="shape"/>
</filter>
<filter id="filter2_d" x="400" y="40" width="233" height="84" filterUnits="userSpaceOnUse" color-interpolation-filters="sRGB">
<feFlood flood-opacity="0" result="BackgroundImageFix"/>
<feColorMatrix in="SourceAlpha" type="matrix" values="0 0 0 0 0 0 0 0 0 0 0 0 0 0 0 0 0 0 127 0"/>
<feOffset dx="4" dy="4"/>
<feColorMatrix type="matrix" values="0 0 0 0 0.674908 0 0 0 0 0.662083 0 0 0 0 0.945833 0 0 0 1 0"/>
<feBlend mode="normal" in2="BackgroundImageFix" result="effect1_dropShadow"/>
<feBlend mode="normal" in="SourceGraphic" in2="effect1_dropShadow" result="shape"/>
</filter>
<filter id="filter3_d" x="400" y="119" width="233" height="28" filterUnits="userSpaceOnUse" color-interpolation-filters="sRGB">
<feFlood flood-opacity="0" result="BackgroundImageFix"/>
<feColorMatrix in="SourceAlpha" type="matrix" values="0 0 0 0 0 0 0 0 0 0 0 0 0 0 0 0 0 0 127 0"/>
<feOffset dx="4" dy="4"/>
<feColorMatrix type="matrix" values="0 0 0 0 0.674908 0 0 0 0 0.662083 0 0 0 0 0.945833 0 0 0 1 0"/>
<feBlend mode="normal" in2="BackgroundImageFix" result="effect1_dropShadow"/>
<feBlend mode="normal" in="SourceGraphic" in2="effect1_dropShadow" result="shape"/>
</filter>
<filter id="filter4_d" x="0" y="189" width="233" height="124" filterUnits="userSpaceOnUse" color-interpolation-filters="sRGB">
<feFlood flood-opacity="0" result="BackgroundImageFix"/>
<feColorMatrix in="SourceAlpha" type="matrix" values="0 0 0 0 0 0 0 0 0 0 0 0 0 0 0 0 0 0 127 0"/>
<feOffset dx="4" dy="4"/>
<feColorMatrix type="matrix" values="0 0 0 0 0.674908 0 0 0 0 0.662083 0 0 0 0 0.945833 0 0 0 1 0"/>
<feBlend mode="normal" in2="BackgroundImageFix" result="effect1_dropShadow"/>
<feBlend mode="normal" in="SourceGraphic" in2="effect1_dropShadow" result="shape"/>
</filter>
<filter id="filter5_d" x="0" y="308" width="233" height="28" filterUnits="userSpaceOnUse" color-interpolation-filters="sRGB">
<feFlood flood-opacity="0" result="BackgroundImageFix"/>
<feColorMatrix in="SourceAlpha" type="matrix" values="0 0 0 0 0 0 0 0 0 0 0 0 0 0 0 0 0 0 127 0"/>
<feOffset dx="4" dy="4"/>
<feColorMatrix type="matrix" values="0 0 0 0 0.674908 0 0 0 0 0.662083 0 0 0 0 0.945833 0 0 0 1 0"/>
<feBlend mode="normal" in2="BackgroundImageFix" result="effect1_dropShadow"/>
<feBlend mode="normal" in="SourceGraphic" in2="effect1_dropShadow" result="shape"/>
</filter>
<filter id="filter6_d" x="400" y="229" width="233" height="84" filterUnits="userSpaceOnUse" color-interpolation-filters="sRGB">
<feFlood flood-opacity="0" result="BackgroundImageFix"/>
<feColorMatrix in="SourceAlpha" type="matrix" values="0 0 0 0 0 0 0 0 0 0 0 0 0 0 0 0 0 0 127 0"/>
<feOffset dx="4" dy="4"/>
<feColorMatrix type="matrix" values="0 0 0 0 0.674908 0 0 0 0 0.662083 0 0 0 0 0.945833 0 0 0 1 0"/>
<feBlend mode="normal" in2="BackgroundImageFix" result="effect1_dropShadow"/>
<feBlend mode="normal" in="SourceGraphic" in2="effect1_dropShadow" result="shape"/>
</filter>
<filter id="filter7_d" x="400" y="308" width="233" height="28" filterUnits="userSpaceOnUse" color-interpolation-filters="sRGB">
<feFlood flood-opacity="0" result="BackgroundImageFix"/>
<feColorMatrix in="SourceAlpha" type="matrix" values="0 0 0 0 0 0 0 0 0 0 0 0 0 0 0 0 0 0 127 0"/>
<feOffset dx="4" dy="4"/>
<feColorMatrix type="matrix" values="0 0 0 0 0.674908 0 0 0 0 0.662083 0 0 0 0 0.945833 0 0 0 1 0"/>
<feBlend mode="normal" in2="BackgroundImageFix" result="effect1_dropShadow"/>
<feBlend mode="normal" in="SourceGraphic" in2="effect1_dropShadow" result="shape"/>
</filter>
</defs>
</svg>
