<svg width="308" height="168" viewBox="0 0 308 168" fill="none" xmlns="http://www.w3.org/2000/svg">
<path d="M48.2168 16V5.18555H50.0215V14.4688H54.916V16H48.2168ZM55.5925 10.5996C55.5925 8.9043 56.0163 7.53711 56.864 6.49805C57.7116 5.45898 58.8373 4.93945 60.2409 4.93945C61.6446 4.93945 62.7657 5.45898 63.6042 6.49805C64.4519 7.52799 64.8757 8.89518 64.8757 10.5996C64.8757 12.304 64.4519 13.6712 63.6042 14.7012C62.7566 15.7311 61.6355 16.2461 60.2409 16.2461C58.8373 16.2461 57.7116 15.7311 56.864 14.7012C56.0163 13.6712 55.5925 12.304 55.5925 10.5996ZM57.4519 10.5996C57.4519 11.8665 57.698 12.8691 58.1902 13.6074C58.6915 14.3366 59.3751 14.7012 60.2409 14.7012C61.0977 14.7012 61.7722 14.3366 62.2644 13.6074C62.7657 12.8783 63.0163 11.8757 63.0163 10.5996C63.0163 9.3418 62.7702 8.34375 62.278 7.60547C61.795 6.85807 61.1159 6.48438 60.2409 6.48438C59.3751 6.48438 58.6915 6.85807 58.1902 7.60547C57.698 8.34375 57.4519 9.3418 57.4519 10.5996ZM66.3041 10.5996C66.3041 8.9043 66.728 7.53711 67.5756 6.49805C68.4233 5.45898 69.5489 4.93945 70.9526 4.93945C72.3562 4.93945 73.4773 5.45898 74.3159 6.49805C75.1635 7.52799 75.5873 8.89518 75.5873 10.5996C75.5873 12.304 75.1635 13.6712 74.3159 14.7012C73.4682 15.7311 72.3471 16.2461 70.9526 16.2461C69.5489 16.2461 68.4233 15.7311 67.5756 14.7012C66.728 13.6712 66.3041 12.304 66.3041 10.5996ZM68.1635 10.5996C68.1635 11.8665 68.4096 12.8691 68.9018 13.6074C69.4031 14.3366 70.0867 14.7012 70.9526 14.7012C71.8093 14.7012 72.4838 14.3366 72.976 13.6074C73.4773 12.8783 73.728 11.8757 73.728 10.5996C73.728 9.3418 73.4819 8.34375 72.9897 7.60547C72.5066 6.85807 71.8276 6.48438 70.9526 6.48438C70.0867 6.48438 69.4031 6.85807 68.9018 7.60547C68.4096 8.34375 68.1635 9.3418 68.1635 10.5996ZM77.6584 16V5.18555H81.883C83.0132 5.18555 83.8927 5.49089 84.5216 6.10156C85.1597 6.70312 85.4787 7.50065 85.4787 8.49414C85.4787 9.51497 85.1505 10.3216 84.4943 10.9141C83.8472 11.5065 82.9858 11.8027 81.9103 11.8027H79.463V16H77.6584ZM79.463 10.2715H81.6642C82.284 10.2715 82.7671 10.1211 83.1134 9.82031C83.4598 9.51953 83.633 9.07747 83.633 8.49414C83.633 7.91992 83.4643 7.48242 83.1271 7.18164C82.7899 6.88086 82.2977 6.73047 81.6505 6.73047H79.463V10.2715ZM90.7828 11.4883V10.1484H91.2477C91.4938 10.1484 91.6806 10.0072 91.8082 9.72461C91.9449 9.44206 92.0133 9.05924 92.0133 8.57617V5.92383C92.0133 5.25846 92.2001 4.74805 92.5738 4.39258C92.9475 4.02799 93.4443 3.8457 94.0641 3.8457H95.2945V5.26758H94.3785C94.1871 5.26758 94.0322 5.34505 93.9137 5.5C93.8043 5.64583 93.7496 5.85091 93.7496 6.11523V8.79492C93.7496 9.67904 93.4033 10.3535 92.7105 10.8184C93.4033 11.2467 93.7496 11.8984 93.7496 12.7734V15.4531C93.7496 16.0365 93.9684 16.3281 94.4059 16.3281H95.2945V17.7637H94.0641C93.4716 17.7637 92.9794 17.5905 92.5875 17.2441C92.2047 16.8978 92.0133 16.3828 92.0133 15.6992V12.9922C92.0133 12.5729 91.9449 12.2174 91.8082 11.9258C91.6806 11.6341 91.4938 11.4883 91.2477 11.4883H90.7828ZM59.3107 34V23.1855H62.5236C64.1551 23.1855 65.4129 23.6504 66.297 24.5801C67.1811 25.5098 67.6232 26.8451 67.6232 28.5859C67.6232 29.1784 67.5685 29.7344 67.4591 30.2539C67.3498 30.7643 67.1675 31.252 66.9123 31.7168C66.6662 32.1816 66.3517 32.5827 65.9689 32.9199C65.5861 33.248 65.0985 33.5124 64.506 33.7129C63.9227 33.9043 63.2573 34 62.5099 34H59.3107ZM61.1154 32.4824H62.3048C64.6017 32.4824 65.7502 31.1836 65.7502 28.5859C65.7502 27.2005 65.4494 26.2116 64.8478 25.6191C64.2463 25.0176 63.4077 24.7168 62.3322 24.7168H61.1154V32.4824ZM69.6669 34V23.1855H71.4716V34H69.6669ZM74.1578 34V23.1855H78.3824C79.5126 23.1855 80.3922 23.4909 81.0211 24.1016C81.6591 24.7031 81.9781 25.5007 81.9781 26.4941C81.9781 27.515 81.65 28.3216 80.9937 28.9141C80.3466 29.5065 79.4853 29.8027 78.4098 29.8027H75.9625V34H74.1578ZM75.9625 28.2715H78.1637C78.7835 28.2715 79.2665 28.1211 79.6129 27.8203C79.9592 27.5195 80.1324 27.0775 80.1324 26.4941C80.1324 25.9199 79.9638 25.4824 79.6266 25.1816C79.2893 24.8809 78.7971 24.7305 78.15 24.7305H75.9625V28.2715ZM87.2823 29.4883V28.1484H87.7471C87.9932 28.1484 88.1801 28.0072 88.3077 27.7246C88.4444 27.4421 88.5127 27.0592 88.5127 26.5762V23.9238C88.5127 23.2585 88.6996 22.748 89.0733 22.3926C89.447 22.028 89.9437 21.8457 90.5635 21.8457H91.794V23.2676H90.878C90.6866 23.2676 90.5316 23.3451 90.4131 23.5C90.3037 23.6458 90.2491 23.8509 90.2491 24.1152V26.7949C90.2491 27.679 89.9027 28.3535 89.21 28.8184C89.9027 29.2467 90.2491 29.8984 90.2491 30.7734V33.4531C90.2491 34.0365 90.4678 34.3281 90.9053 34.3281H91.794V35.7637H90.5635C89.9711 35.7637 89.4789 35.5905 89.087 35.2441C88.7041 34.8978 88.5127 34.3828 88.5127 33.6992V30.9922C88.5127 30.5729 88.4444 30.2174 88.3077 29.9258C88.1801 29.6341 87.9932 29.4883 87.7471 29.4883H87.2823ZM98.1372 34V23.1855H101.35C102.982 23.1855 104.239 23.6504 105.124 24.5801C106.008 25.5098 106.45 26.8451 106.45 28.5859C106.45 29.1784 106.395 29.7344 106.286 30.2539C106.176 30.7643 105.994 31.252 105.739 31.7168C105.493 32.1816 105.178 32.5827 104.795 32.9199C104.413 33.248 103.925 33.5124 103.333 33.7129C102.749 33.9043 102.084 34 101.336 34H98.1372ZM99.9419 32.4824H101.131C103.428 32.4824 104.577 31.1836 104.577 28.5859C104.577 27.2005 104.276 26.2116 103.674 25.6191C103.073 25.0176 102.234 24.7168 101.159 24.7168H99.9419V32.4824ZM108.439 29.9531V23.1855H110.257V29.9531C110.257 30.8828 110.448 31.5755 110.831 32.0312C111.214 32.4779 111.747 32.7012 112.431 32.7012C113.133 32.7012 113.675 32.4688 114.058 32.0039C114.441 31.5299 114.632 30.8464 114.632 29.9531V23.1855H116.437V29.9531C116.437 31.3294 116.099 32.3913 115.425 33.1387C114.751 33.877 113.752 34.2461 112.431 34.2461C111.155 34.2461 110.17 33.8861 109.478 33.166C108.785 32.446 108.439 31.375 108.439 29.9531ZM119.082 34V23.1855H123.307C124.437 23.1855 125.316 23.4909 125.945 24.1016C126.583 24.7031 126.902 25.5007 126.902 26.4941C126.902 27.515 126.574 28.3216 125.918 28.9141C125.271 29.5065 124.409 29.8027 123.334 29.8027H120.887V34H119.082ZM120.887 28.2715H123.088C123.708 28.2715 124.191 28.1211 124.537 27.8203C124.883 27.5195 125.057 27.0775 125.057 26.4941C125.057 25.9199 124.888 25.4824 124.551 25.1816C124.213 24.8809 123.721 24.7305 123.074 24.7305H120.887V28.2715ZM128.823 34.3281H129.725C130.154 34.3281 130.368 34.0365 130.368 33.4531V30.7734C130.368 29.9258 130.714 29.2695 131.407 28.8047C130.714 28.349 130.368 27.679 130.368 26.7949V24.1152C130.368 23.8509 130.309 23.6458 130.19 23.5C130.081 23.3451 129.93 23.2676 129.739 23.2676H128.823V21.8457H130.053C130.673 21.8457 131.17 22.028 131.544 22.3926C131.917 22.748 132.104 23.2585 132.104 23.9238V26.5762C132.104 27.6243 132.359 28.1484 132.87 28.1484H133.335V29.4883H132.87C132.615 29.4883 132.423 29.6341 132.296 29.9258C132.168 30.2174 132.104 30.5729 132.104 30.9922V33.6992C132.104 34.3828 131.908 34.8978 131.516 35.2441C131.133 35.5905 130.646 35.7637 130.053 35.7637H128.823V34.3281ZM135.064 35.3672L136.376 30.9375H138.372L136.472 35.3672H135.064ZM135.966 27.2734V25.1406H138.277V27.2734H135.966ZM59.3107 52V41.1855H62.5236C64.1551 41.1855 65.4129 41.6504 66.297 42.5801C67.1811 43.5098 67.6232 44.8451 67.6232 46.5859C67.6232 47.1784 67.5685 47.7344 67.4591 48.2539C67.3498 48.7643 67.1675 49.252 66.9123 49.7168C66.6662 50.1816 66.3517 50.5827 65.9689 50.9199C65.5861 51.248 65.0985 51.5124 64.506 51.7129C63.9227 51.9043 63.2573 52 62.5099 52H59.3107ZM61.1154 50.4824H62.3048C64.6017 50.4824 65.7502 49.1836 65.7502 46.5859C65.7502 45.2005 65.4494 44.2116 64.8478 43.6191C64.2463 43.0176 63.4077 42.7168 62.3322 42.7168H61.1154V50.4824ZM69.6122 47.9531V41.1855H71.4305V47.9531C71.4305 48.8828 71.622 49.5755 72.0048 50.0312C72.3876 50.4779 72.9208 50.7012 73.6044 50.7012C74.3062 50.7012 74.8485 50.4688 75.2313 50.0039C75.6141 49.5299 75.8055 48.8464 75.8055 47.9531V41.1855H77.6102V47.9531C77.6102 49.3294 77.273 50.3913 76.5985 51.1387C75.924 51.877 74.926 52.2461 73.6044 52.2461C72.3283 52.2461 71.344 51.8861 70.6513 51.166C69.9585 50.446 69.6122 49.375 69.6122 47.9531ZM80.2555 52V41.1855H84.4801C85.6103 41.1855 86.4898 41.4909 87.1188 42.1016C87.7568 42.7031 88.0758 43.5007 88.0758 44.4941C88.0758 45.515 87.7477 46.3216 87.0914 46.9141C86.4443 47.5065 85.5829 47.8027 84.5074 47.8027H82.0602V52H80.2555ZM82.0602 46.2715H84.2613C84.8811 46.2715 85.3642 46.1211 85.7105 45.8203C86.0569 45.5195 86.2301 45.0775 86.2301 44.4941C86.2301 43.9199 86.0615 43.4824 85.7242 43.1816C85.387 42.8809 84.8948 42.7305 84.2477 42.7305H82.0602V46.2715ZM89.4495 53.3672L90.762 48.9375H92.7581L90.8577 53.3672H89.4495ZM90.3519 45.2734V43.1406H92.6624V45.2734H90.3519ZM59.3107 70V59.1855H62.5236C64.1551 59.1855 65.4129 59.6504 66.297 60.5801C67.1811 61.5098 67.6232 62.8451 67.6232 64.5859C67.6232 65.1784 67.5685 65.7344 67.4591 66.2539C67.3498 66.7643 67.1675 67.252 66.9123 67.7168C66.6662 68.1816 66.3517 68.5827 65.9689 68.9199C65.5861 69.248 65.0985 69.5124 64.506 69.7129C63.9227 69.9043 63.2573 70 62.5099 70H59.3107ZM61.1154 68.4824H62.3048C64.6017 68.4824 65.7502 67.1836 65.7502 64.5859C65.7502 63.2005 65.4494 62.2116 64.8478 61.6191C64.2463 61.0176 63.4077 60.7168 62.3322 60.7168H61.1154V68.4824ZM69.6669 70V59.1855H71.4716V70H69.6669ZM74.1578 70V59.1855H78.3824C79.5126 59.1855 80.3922 59.4909 81.0211 60.1016C81.6591 60.7031 81.9781 61.5007 81.9781 62.4941C81.9781 63.515 81.65 64.3216 80.9937 64.9141C80.3466 65.5065 79.4853 65.8027 78.4098 65.8027H75.9625V70H74.1578ZM75.9625 64.2715H78.1637C78.7835 64.2715 79.2665 64.1211 79.6129 63.8203C79.9592 63.5195 80.1324 63.0775 80.1324 62.4941C80.1324 61.9199 79.9638 61.4824 79.6266 61.1816C79.2893 60.8809 78.7971 60.7305 78.15 60.7305H75.9625V64.2715ZM87.2823 65.4883V64.1484H87.7471C87.9932 64.1484 88.1801 64.0072 88.3077 63.7246C88.4444 63.4421 88.5127 63.0592 88.5127 62.5762V59.9238C88.5127 59.2585 88.6996 58.748 89.0733 58.3926C89.447 58.028 89.9437 57.8457 90.5635 57.8457H91.794V59.2676H90.878C90.6866 59.2676 90.5316 59.3451 90.4131 59.5C90.3037 59.6458 90.2491 59.8509 90.2491 60.1152V62.7949C90.2491 63.679 89.9027 64.3535 89.21 64.8184C89.9027 65.2467 90.2491 65.8984 90.2491 66.7734V69.4531C90.2491 70.0365 90.4678 70.3281 90.9053 70.3281H91.794V71.7637H90.5635C89.9711 71.7637 89.4789 71.5905 89.087 71.2441C88.7041 70.8978 88.5127 70.3828 88.5127 69.6992V66.9922C88.5127 66.5729 88.4444 66.2174 88.3077 65.9258C88.1801 65.6341 87.9932 65.4883 87.7471 65.4883H87.2823ZM97.2895 67.6895L98.8755 67.1562C99.1307 67.612 99.4998 67.9857 99.9829 68.2773C100.466 68.5599 100.999 68.7012 101.583 68.7012C102.184 68.7012 102.667 68.5553 103.032 68.2637C103.396 67.972 103.579 67.5938 103.579 67.1289C103.579 66.6367 103.383 66.2539 102.991 65.9805C102.608 65.707 102.043 65.4427 101.295 65.1875C100.229 64.832 99.5089 64.5495 99.1352 64.3398C98.16 63.7839 97.6723 62.9772 97.6723 61.9199C97.6723 61.0267 98.0233 60.3066 98.7251 59.7598C99.4269 59.2129 100.343 58.9395 101.473 58.9395C102.403 58.9395 103.196 59.1582 103.852 59.5957C104.517 60.0241 105 60.5755 105.301 61.25L103.784 61.7559C103.2 60.9082 102.426 60.4844 101.459 60.4844C100.867 60.4844 100.398 60.6165 100.051 60.8809C99.7049 61.1452 99.5317 61.4915 99.5317 61.9199C99.5317 62.0475 99.5454 62.1706 99.5727 62.2891C99.6001 62.3984 99.6548 62.5033 99.7368 62.6035C99.8188 62.7038 99.8917 62.7904 99.9555 62.8633C100.019 62.9362 100.124 63.0137 100.27 63.0957C100.416 63.1777 100.53 63.2415 100.612 63.2871C100.703 63.3327 100.849 63.3919 101.049 63.4648C101.25 63.5378 101.391 63.5879 101.473 63.6152C101.564 63.6426 101.728 63.6973 101.965 63.7793C102.202 63.8522 102.362 63.9023 102.444 63.9297C102.863 64.0664 103.232 64.2122 103.551 64.3672C103.87 64.5221 104.18 64.7227 104.481 64.9688C104.791 65.2057 105.028 65.502 105.192 65.8574C105.356 66.2129 105.438 66.6139 105.438 67.0605C105.438 68.0723 105.073 68.8561 104.344 69.4121C103.624 69.9681 102.69 70.2461 101.541 70.2461C100.548 70.2461 99.6776 70.0182 98.9302 69.5625C98.1828 69.0977 97.6359 68.4733 97.2895 67.6895ZM106.32 59.1855H108.22L109.327 65.1465C109.501 66.1673 109.655 67.1335 109.792 68.0449H109.861C110.134 66.5319 110.312 65.5658 110.394 65.1465L111.665 59.1855H113.484L114.769 65.1465C114.833 65.4473 114.928 65.9668 115.056 66.7051C115.193 67.4342 115.275 67.8809 115.302 68.0449H115.37C115.416 67.7624 115.493 67.2793 115.603 66.5957C115.721 65.9121 115.803 65.429 115.849 65.1465L116.943 59.1855H118.843L116.409 70H114.345L113.114 64.1211C112.795 62.4167 112.627 61.5007 112.609 61.373H112.554C112.554 61.4004 112.385 62.3164 112.048 64.1211L110.818 70H108.767L106.32 59.1855ZM122.117 65.8711H125.344L124.428 63.0684C124.364 62.8678 124.291 62.6445 124.209 62.3984C124.136 62.1523 124.054 61.8835 123.963 61.5918C123.881 61.291 123.817 61.0677 123.771 60.9219H123.689C123.662 61.013 123.443 61.7285 123.033 63.0684L122.117 65.8711ZM118.836 70L122.746 59.1855H124.728L128.625 70H126.711L125.822 67.3203H121.639L120.75 70H118.836ZM130.067 70V59.1855H134.292C135.422 59.1855 136.301 59.4909 136.93 60.1016C137.568 60.7031 137.887 61.5007 137.887 62.4941C137.887 63.515 137.559 64.3216 136.903 64.9141C136.256 65.5065 135.395 65.8027 134.319 65.8027H131.872V70H130.067ZM131.872 64.2715H134.073C134.693 64.2715 135.176 64.1211 135.522 63.8203C135.868 63.5195 136.042 63.0775 136.042 62.4941C136.042 61.9199 135.873 61.4824 135.536 61.1816C135.199 60.8809 134.706 60.7305 134.059 60.7305H131.872V64.2715ZM139.808 70.3281H140.71C141.139 70.3281 141.353 70.0365 141.353 69.4531V66.7734C141.353 65.9258 141.699 65.2695 142.392 64.8047C141.699 64.349 141.353 63.679 141.353 62.7949V60.1152C141.353 59.8509 141.294 59.6458 141.175 59.5C141.066 59.3451 140.915 59.2676 140.724 59.2676H139.808V57.8457H141.038C141.658 57.8457 142.155 58.028 142.529 58.3926C142.902 58.748 143.089 59.2585 143.089 59.9238V62.5762C143.089 63.6243 143.344 64.1484 143.855 64.1484H144.32V65.4883H143.855C143.6 65.4883 143.408 65.6341 143.281 65.9258C143.153 66.2174 143.089 66.5729 143.089 66.9922V69.6992C143.089 70.3828 142.893 70.8978 142.501 71.2441C142.119 71.5905 141.631 71.7637 141.038 71.7637H139.808V70.3281ZM146.049 71.3672L147.361 66.9375H149.357L147.457 71.3672H146.049ZM146.951 63.2734V61.1406H149.262V63.2734H146.951ZM58.6681 82.5859C58.6681 80.8542 59.1147 79.4824 60.008 78.4707C60.9012 77.4499 62.0542 76.9395 63.467 76.9395C64.3784 76.9395 65.1577 77.1901 65.8048 77.6914C66.4611 78.1927 66.9487 78.8125 67.2677 79.5508L65.7228 80.0566C65.1395 79.0085 64.3784 78.4844 63.4396 78.4844C62.5464 78.4844 61.8354 78.8581 61.3068 79.6055C60.7873 80.3438 60.5275 81.3372 60.5275 82.5859C60.5275 83.8529 60.7918 84.8555 61.3205 85.5938C61.8491 86.332 62.5555 86.7012 63.4396 86.7012C64.0138 86.7012 64.5197 86.528 64.9572 86.1816C65.4038 85.8353 65.7274 85.4115 65.9279 84.9102L67.5412 85.416C67.4045 85.7441 67.2267 86.0632 67.008 86.373C66.7983 86.6738 66.5295 86.9746 66.2013 87.2754C65.8823 87.5671 65.4858 87.804 65.0119 87.9863C64.5379 88.1595 64.0229 88.2461 63.467 88.2461C62.0815 88.2461 60.9331 87.7448 60.0216 86.7422C59.1193 85.7305 58.6681 84.3451 58.6681 82.5859ZM69.3388 88V77.1855H71.5399L73.4403 82.2168C73.577 82.5905 73.7502 83.1009 73.9598 83.748C74.1695 84.3861 74.3062 84.8008 74.37 84.9922H74.4247C74.8804 83.6706 75.204 82.7454 75.3954 82.2168L77.2548 77.1855H79.4833V88H77.7059V83.0918C77.7059 82.2715 77.7697 81.1595 77.8973 79.7559H77.8427L77.0634 82.0527L75.0809 87.3848H73.7411L71.786 82.0527L70.9794 79.7422H70.911C71.0568 81.0547 71.1298 82.1712 71.1298 83.0918V88H69.3388ZM82.1832 88V77.1855H86.4078C87.538 77.1855 88.4176 77.4909 89.0465 78.1016C89.6845 78.7031 90.0035 79.5007 90.0035 80.4941C90.0035 81.515 89.6754 82.3216 89.0191 82.9141C88.372 83.5065 87.5107 83.8027 86.4352 83.8027H83.9879V88H82.1832ZM83.9879 82.2715H86.1891C86.8089 82.2715 87.2919 82.1211 87.6383 81.8203C87.9846 81.5195 88.1578 81.0775 88.1578 80.4941C88.1578 79.9199 87.9892 79.4824 87.652 79.1816C87.3147 78.8809 86.8225 78.7305 86.1754 78.7305H83.9879V82.2715ZM91.9788 88V77.1855H93.7835V86.4688H98.678V88H91.9788ZM100.312 88V77.1855H107.407V78.7305H102.116V81.6562H106.888V83.1738H102.116V86.4688H107.544V88H100.312ZM108.863 89.3672L110.176 84.9375H112.172L110.271 89.3672H108.863ZM109.765 81.2734V79.1406H112.076V81.2734H109.765ZM59.3107 106V95.1855H61.1154V106H59.3107ZM63.8016 106V95.1855H70.6923V96.7305H65.6063V99.8203H70.1591V101.338H65.6063V106H63.8016ZM70.0355 119.488V118.148H70.5003C70.7464 118.148 70.9333 118.007 71.0609 117.725C71.1976 117.442 71.2659 117.059 71.2659 116.576V113.924C71.2659 113.258 71.4528 112.748 71.8265 112.393C72.2002 112.028 72.6969 111.846 73.3167 111.846H74.5472V113.268H73.6312C73.4398 113.268 73.2848 113.345 73.1663 113.5C73.057 113.646 73.0023 113.851 73.0023 114.115V116.795C73.0023 117.679 72.6559 118.354 71.9632 118.818C72.6559 119.247 73.0023 119.898 73.0023 120.773V123.453C73.0023 124.036 73.221 124.328 73.6585 124.328H74.5472V125.764H73.3167C72.7243 125.764 72.2321 125.59 71.8402 125.244C71.4573 124.898 71.2659 124.383 71.2659 123.699V120.992C71.2659 120.573 71.1976 120.217 71.0609 119.926C70.9333 119.634 70.7464 119.488 70.5003 119.488H70.0355ZM77.1924 124V113.186H81.417C82.5472 113.186 83.4268 113.491 84.0557 114.102C84.6937 114.703 85.0127 115.501 85.0127 116.494C85.0127 117.515 84.6846 118.322 84.0284 118.914C83.3812 119.507 82.5199 119.803 81.4444 119.803H78.9971V124H77.1924ZM78.9971 118.271H81.1983C81.8181 118.271 82.3011 118.121 82.6475 117.82C82.9939 117.52 83.167 117.077 83.167 116.494C83.167 115.92 82.9984 115.482 82.6612 115.182C82.3239 114.881 81.8317 114.73 81.1846 114.73H78.9971V118.271ZM86.9334 119.953V113.186H88.7517V119.953C88.7517 120.883 88.9431 121.576 89.3259 122.031C89.7088 122.478 90.242 122.701 90.9255 122.701C91.6274 122.701 92.1697 122.469 92.5525 122.004C92.9353 121.53 93.1267 120.846 93.1267 119.953V113.186H94.9314V119.953C94.9314 121.329 94.5942 122.391 93.9197 123.139C93.2452 123.877 92.2472 124.246 90.9255 124.246C89.6495 124.246 88.6651 123.886 87.9724 123.166C87.2797 122.446 86.9334 121.375 86.9334 119.953ZM96.729 121.689L98.3149 121.156C98.5701 121.612 98.9393 121.986 99.4223 122.277C99.9054 122.56 100.439 122.701 101.022 122.701C101.624 122.701 102.107 122.555 102.471 122.264C102.836 121.972 103.018 121.594 103.018 121.129C103.018 120.637 102.822 120.254 102.43 119.98C102.047 119.707 101.482 119.443 100.735 119.188C99.6684 118.832 98.9484 118.549 98.5747 118.34C97.5994 117.784 97.1118 116.977 97.1118 115.92C97.1118 115.027 97.4627 114.307 98.1645 113.76C98.8664 113.213 99.7824 112.939 100.913 112.939C101.842 112.939 102.635 113.158 103.291 113.596C103.957 114.024 104.44 114.576 104.741 115.25L103.223 115.756C102.64 114.908 101.865 114.484 100.899 114.484C100.306 114.484 99.8371 114.617 99.4907 114.881C99.1443 115.145 98.9712 115.492 98.9712 115.92C98.9712 116.048 98.9848 116.171 99.0122 116.289C99.0395 116.398 99.0942 116.503 99.1763 116.604C99.2583 116.704 99.3312 116.79 99.395 116.863C99.4588 116.936 99.5636 117.014 99.7095 117.096C99.8553 117.178 99.9692 117.242 100.051 117.287C100.142 117.333 100.288 117.392 100.489 117.465C100.689 117.538 100.831 117.588 100.913 117.615C101.004 117.643 101.168 117.697 101.405 117.779C101.642 117.852 101.801 117.902 101.883 117.93C102.303 118.066 102.672 118.212 102.991 118.367C103.31 118.522 103.62 118.723 103.92 118.969C104.23 119.206 104.467 119.502 104.631 119.857C104.795 120.213 104.877 120.614 104.877 121.061C104.877 122.072 104.513 122.856 103.784 123.412C103.064 123.968 102.129 124.246 100.981 124.246C99.9874 124.246 99.117 124.018 98.3696 123.562C97.6222 123.098 97.0753 122.473 96.729 121.689ZM106.798 124V113.186H108.589V117.684H112.964V113.186H114.755V124H112.964V119.201H108.589V124H106.798ZM121.153 124V113.186H128.044V114.73H122.958V117.82H127.51V119.338H122.958V124H121.153ZM130.552 121.785C130.552 122.077 130.666 122.323 130.894 122.523C131.131 122.715 131.441 122.811 131.824 122.811C132.37 122.811 132.835 122.628 133.218 122.264C133.61 121.899 133.806 121.421 133.806 120.828V120.104C133.387 120.204 132.881 120.299 132.288 120.391C131.131 120.573 130.552 121.038 130.552 121.785ZM128.802 121.936C128.802 120.45 129.905 119.543 132.111 119.215C132.913 119.096 133.478 118.987 133.806 118.887V118.463C133.806 118.08 133.669 117.779 133.396 117.561C133.122 117.342 132.758 117.232 132.302 117.232C131.436 117.232 130.689 117.588 130.06 118.299L129.007 117.396C129.417 116.913 129.905 116.54 130.47 116.275C131.044 116.002 131.646 115.865 132.275 115.865C133.451 115.865 134.289 116.152 134.79 116.727C135.292 117.292 135.542 118.085 135.542 119.105V124H133.861V123.016C133.697 123.353 133.41 123.645 132.999 123.891C132.598 124.128 132.124 124.246 131.577 124.246C130.712 124.246 130.033 124.032 129.54 123.604C129.048 123.175 128.802 122.619 128.802 121.936ZM137.75 124V112.83H139.473V124H137.75ZM141.188 122.359L142.432 121.635C142.979 122.437 143.69 122.838 144.565 122.838C144.994 122.838 145.331 122.756 145.577 122.592C145.832 122.419 145.96 122.191 145.96 121.908C145.96 121.68 145.855 121.48 145.645 121.307C145.445 121.133 145.231 121.006 145.003 120.924C144.775 120.833 144.433 120.714 143.977 120.568C143.895 120.541 143.836 120.523 143.8 120.514C143.471 120.404 143.193 120.299 142.966 120.199C142.747 120.09 142.514 119.949 142.268 119.775C142.022 119.593 141.835 119.37 141.708 119.105C141.58 118.832 141.516 118.518 141.516 118.162C141.516 117.469 141.808 116.913 142.391 116.494C142.975 116.075 143.699 115.865 144.565 115.865C145.212 115.865 145.823 116.038 146.397 116.385C146.971 116.722 147.4 117.155 147.682 117.684L146.534 118.381C145.996 117.643 145.345 117.273 144.579 117.273C144.16 117.273 143.836 117.36 143.608 117.533C143.389 117.697 143.28 117.916 143.28 118.189C143.28 118.417 143.376 118.622 143.567 118.805C143.768 118.978 143.973 119.105 144.182 119.188C144.392 119.27 144.688 119.374 145.071 119.502C145.171 119.529 145.244 119.552 145.29 119.57C146.912 120.09 147.723 120.874 147.723 121.922C147.723 122.569 147.45 123.12 146.903 123.576C146.365 124.023 145.6 124.246 144.606 124.246C143.841 124.246 143.157 124.077 142.555 123.74C141.963 123.403 141.507 122.943 141.188 122.359ZM148.906 120.021C148.906 118.755 149.252 117.747 149.945 117C150.647 116.243 151.526 115.865 152.584 115.865C153.623 115.865 154.479 116.243 155.154 117C155.828 117.757 156.166 118.741 156.166 119.953C156.166 120.19 156.152 120.423 156.125 120.65H150.656C150.656 121.252 150.834 121.771 151.189 122.209C151.554 122.637 152.05 122.852 152.679 122.852C153.117 122.852 153.5 122.747 153.828 122.537C154.165 122.318 154.42 122.04 154.593 121.703L156.043 122.195C155.787 122.779 155.373 123.266 154.798 123.658C154.224 124.05 153.509 124.246 152.652 124.246C151.549 124.246 150.647 123.863 149.945 123.098C149.252 122.332 148.906 121.307 148.906 120.021ZM150.683 119.434H154.402C154.402 118.832 154.242 118.322 153.923 117.902C153.604 117.474 153.158 117.26 152.584 117.26C152.009 117.26 151.549 117.479 151.203 117.916C150.865 118.344 150.692 118.85 150.683 119.434ZM158.073 124.328H158.975C159.403 124.328 159.617 124.036 159.617 123.453V120.773C159.617 119.926 159.964 119.27 160.656 118.805C159.964 118.349 159.617 117.679 159.617 116.795V114.115C159.617 113.851 159.558 113.646 159.44 113.5C159.33 113.345 159.18 113.268 158.989 113.268H158.073V111.846H159.303C159.923 111.846 160.42 112.028 160.793 112.393C161.167 112.748 161.354 113.258 161.354 113.924V116.576C161.354 117.624 161.609 118.148 162.119 118.148H162.584V119.488H162.119C161.864 119.488 161.673 119.634 161.545 119.926C161.418 120.217 161.354 120.573 161.354 120.992V123.699C161.354 124.383 161.158 124.898 160.766 125.244C160.383 125.59 159.895 125.764 159.303 125.764H158.073V124.328ZM70.0355 137.488V136.148H70.5003C70.7464 136.148 70.9333 136.007 71.0609 135.725C71.1976 135.442 71.2659 135.059 71.2659 134.576V131.924C71.2659 131.258 71.4528 130.748 71.8265 130.393C72.2002 130.028 72.6969 129.846 73.3167 129.846H74.5472V131.268H73.6312C73.4398 131.268 73.2848 131.345 73.1663 131.5C73.057 131.646 73.0023 131.851 73.0023 132.115V134.795C73.0023 135.679 72.6559 136.354 71.9632 136.818C72.6559 137.247 73.0023 137.898 73.0023 138.773V141.453C73.0023 142.036 73.221 142.328 73.6585 142.328H74.5472V143.764H73.3167C72.7243 143.764 72.2321 143.59 71.8402 143.244C71.4573 142.898 71.2659 142.383 71.2659 141.699V138.992C71.2659 138.573 71.1976 138.217 71.0609 137.926C70.9333 137.634 70.7464 137.488 70.5003 137.488H70.0355ZM80.8904 142V131.186H84.1033C85.7348 131.186 86.9926 131.65 87.8767 132.58C88.7608 133.51 89.2029 134.845 89.2029 136.586C89.2029 137.178 89.1482 137.734 89.0388 138.254C88.9295 138.764 88.7472 139.252 88.492 139.717C88.2459 140.182 87.9314 140.583 87.5486 140.92C87.1658 141.248 86.6782 141.512 86.0857 141.713C85.5024 141.904 84.837 142 84.0896 142H80.8904ZM82.6951 140.482H83.8845C86.1814 140.482 87.3298 139.184 87.3298 136.586C87.3298 135.201 87.0291 134.212 86.4275 133.619C85.8259 133.018 84.9874 132.717 83.9119 132.717H82.6951V140.482ZM91.2466 142V131.186H93.0513V142H91.2466ZM95.7375 142V131.186H99.9621C101.092 131.186 101.972 131.491 102.601 132.102C103.239 132.703 103.558 133.501 103.558 134.494C103.558 135.515 103.23 136.322 102.573 136.914C101.926 137.507 101.065 137.803 99.9895 137.803H97.5422V142H95.7375ZM97.5422 136.271H99.7434C100.363 136.271 100.846 136.121 101.193 135.82C101.539 135.52 101.712 135.077 101.712 134.494C101.712 133.92 101.543 133.482 101.206 133.182C100.869 132.881 100.377 132.73 99.7297 132.73H97.5422V136.271ZM108.862 137.488V136.148H109.327C109.573 136.148 109.76 136.007 109.887 135.725C110.024 135.442 110.092 135.059 110.092 134.576V131.924C110.092 131.258 110.279 130.748 110.653 130.393C111.027 130.028 111.523 129.846 112.143 129.846H113.374V131.268H112.458C112.266 131.268 112.111 131.345 111.993 131.5C111.883 131.646 111.829 131.851 111.829 132.115V134.795C111.829 135.679 111.482 136.354 110.79 136.818C111.482 137.247 111.829 137.898 111.829 138.773V141.453C111.829 142.036 112.048 142.328 112.485 142.328H113.374V143.764H112.143C111.551 143.764 111.059 143.59 110.667 143.244C110.284 142.898 110.092 142.383 110.092 141.699V138.992C110.092 138.573 110.024 138.217 109.887 137.926C109.76 137.634 109.573 137.488 109.327 137.488H108.862ZM119.717 142V131.186H122.93C124.561 131.186 125.819 131.65 126.703 132.58C127.587 133.51 128.029 134.845 128.029 136.586C128.029 137.178 127.975 137.734 127.865 138.254C127.756 138.764 127.574 139.252 127.318 139.717C127.072 140.182 126.758 140.583 126.375 140.92C125.992 141.248 125.505 141.512 124.912 141.713C124.329 141.904 123.663 142 122.916 142H119.717ZM121.522 140.482H122.711C125.008 140.482 126.156 139.184 126.156 136.586C126.156 135.201 125.856 134.212 125.254 133.619C124.652 133.018 123.814 132.717 122.738 132.717H121.522V140.482ZM130.018 137.953V131.186H131.837V137.953C131.837 138.883 132.028 139.576 132.411 140.031C132.794 140.478 133.327 140.701 134.011 140.701C134.712 140.701 135.255 140.469 135.637 140.004C136.02 139.53 136.212 138.846 136.212 137.953V131.186H138.016V137.953C138.016 139.329 137.679 140.391 137.005 141.139C136.33 141.877 135.332 142.246 134.011 142.246C132.735 142.246 131.75 141.886 131.057 141.166C130.365 140.446 130.018 139.375 130.018 137.953ZM140.662 142V131.186H144.886C146.016 131.186 146.896 131.491 147.525 132.102C148.163 132.703 148.482 133.501 148.482 134.494C148.482 135.515 148.154 136.322 147.498 136.914C146.85 137.507 145.989 137.803 144.914 137.803H142.466V142H140.662ZM142.466 136.271H144.668C145.287 136.271 145.77 136.121 146.117 135.82C146.463 135.52 146.636 135.077 146.636 134.494C146.636 133.92 146.468 133.482 146.13 133.182C145.793 132.881 145.301 132.73 144.654 132.73H142.466V136.271ZM154.101 142.328H155.003C155.431 142.328 155.645 142.036 155.645 141.453V138.773C155.645 137.926 155.992 137.27 156.685 136.805C155.992 136.349 155.645 135.679 155.645 134.795V132.115C155.645 131.851 155.586 131.646 155.468 131.5C155.358 131.345 155.208 131.268 155.017 131.268H154.101V129.846H155.331C155.951 129.846 156.448 130.028 156.821 130.393C157.195 130.748 157.382 131.258 157.382 131.924V134.576C157.382 135.624 157.637 136.148 158.147 136.148H158.612V137.488H158.147C157.892 137.488 157.701 137.634 157.573 137.926C157.446 138.217 157.382 138.573 157.382 138.992V141.699C157.382 142.383 157.186 142.898 156.794 143.244C156.411 143.59 155.923 143.764 155.331 143.764H154.101V142.328ZM160.341 143.367L161.654 138.938H163.65L161.75 143.367H160.341ZM161.244 135.273V133.141H163.554V135.273H161.244ZM169.255 139.689L170.841 139.156C171.096 139.612 171.465 139.986 171.948 140.277C172.431 140.56 172.965 140.701 173.548 140.701C174.15 140.701 174.633 140.555 174.997 140.264C175.362 139.972 175.544 139.594 175.544 139.129C175.544 138.637 175.348 138.254 174.956 137.98C174.573 137.707 174.008 137.443 173.261 137.188C172.194 136.832 171.474 136.549 171.101 136.34C170.125 135.784 169.638 134.977 169.638 133.92C169.638 133.027 169.989 132.307 170.691 131.76C171.392 131.213 172.308 130.939 173.439 130.939C174.368 130.939 175.161 131.158 175.817 131.596C176.483 132.024 176.966 132.576 177.267 133.25L175.749 133.756C175.166 132.908 174.391 132.484 173.425 132.484C172.832 132.484 172.363 132.617 172.017 132.881C171.67 133.145 171.497 133.492 171.497 133.92C171.497 134.048 171.511 134.171 171.538 134.289C171.566 134.398 171.62 134.503 171.702 134.604C171.784 134.704 171.857 134.79 171.921 134.863C171.985 134.936 172.09 135.014 172.235 135.096C172.381 135.178 172.495 135.242 172.577 135.287C172.668 135.333 172.814 135.392 173.015 135.465C173.215 135.538 173.357 135.588 173.439 135.615C173.53 135.643 173.694 135.697 173.931 135.779C174.168 135.852 174.327 135.902 174.409 135.93C174.829 136.066 175.198 136.212 175.517 136.367C175.836 136.522 176.146 136.723 176.446 136.969C176.756 137.206 176.993 137.502 177.157 137.857C177.321 138.213 177.403 138.614 177.403 139.061C177.403 140.072 177.039 140.856 176.31 141.412C175.59 141.968 174.655 142.246 173.507 142.246C172.513 142.246 171.643 142.018 170.896 141.562C170.148 141.098 169.601 140.473 169.255 139.689ZM179.269 137.953V131.186H181.088V137.953C181.088 138.883 181.279 139.576 181.662 140.031C182.045 140.478 182.578 140.701 183.262 140.701C183.963 140.701 184.506 140.469 184.889 140.004C185.271 139.53 185.463 138.846 185.463 137.953V131.186H187.267V137.953C187.267 139.329 186.93 140.391 186.256 141.139C185.581 141.877 184.583 142.246 183.262 142.246C181.986 142.246 181.001 141.886 180.308 141.166C179.616 140.446 179.269 139.375 179.269 137.953ZM189.913 142V131.186H194.014C195.163 131.186 196.024 131.441 196.598 131.951C197.172 132.462 197.46 133.159 197.46 134.043C197.46 134.572 197.336 135.027 197.09 135.41C196.844 135.784 196.521 136.076 196.12 136.285C196.575 136.449 196.976 136.759 197.323 137.215C197.669 137.661 197.842 138.208 197.842 138.855C197.842 139.758 197.551 140.51 196.967 141.111C196.393 141.704 195.586 142 194.547 142H189.913ZM191.717 140.469H194.233C194.716 140.469 195.126 140.327 195.463 140.045C195.81 139.762 195.983 139.366 195.983 138.855C195.983 138.372 195.823 137.976 195.504 137.666C195.195 137.356 194.757 137.201 194.192 137.201H191.717V140.469ZM191.717 135.684H193.836C194.356 135.684 194.78 135.561 195.108 135.314C195.436 135.059 195.6 134.681 195.6 134.18C195.6 133.733 195.459 133.382 195.176 133.127C194.903 132.863 194.475 132.73 193.891 132.73H191.717V135.684ZM199.339 143.367L200.652 138.938H202.648L200.747 143.367H199.339ZM200.241 135.273V133.141H202.552V135.273H200.241ZM209.1 142V131.186H213.325C214.455 131.186 215.335 131.491 215.964 132.102C216.602 132.703 216.921 133.501 216.921 134.494C216.921 135.515 216.592 136.322 215.936 136.914C215.289 137.507 214.428 137.803 213.352 137.803H210.905V142H209.1ZM210.905 136.271H213.106C213.726 136.271 214.209 136.121 214.555 135.82C214.902 135.52 215.075 135.077 215.075 134.494C215.075 133.92 214.906 133.482 214.569 133.182C214.232 132.881 213.74 132.73 213.092 132.73H210.905V136.271ZM218.841 137.953V131.186H220.66V137.953C220.66 138.883 220.851 139.576 221.234 140.031C221.617 140.478 222.15 140.701 222.833 140.701C223.535 140.701 224.078 140.469 224.46 140.004C224.843 139.53 225.035 138.846 225.035 137.953V131.186H226.839V137.953C226.839 139.329 226.502 140.391 225.828 141.139C225.153 141.877 224.155 142.246 222.833 142.246C221.557 142.246 220.573 141.886 219.88 141.166C219.188 140.446 218.841 139.375 218.841 137.953ZM228.637 139.689L230.223 139.156C230.478 139.612 230.847 139.986 231.33 140.277C231.813 140.56 232.347 140.701 232.93 140.701C233.531 140.701 234.014 140.555 234.379 140.264C234.744 139.972 234.926 139.594 234.926 139.129C234.926 138.637 234.73 138.254 234.338 137.98C233.955 137.707 233.39 137.443 232.643 137.188C231.576 136.832 230.856 136.549 230.483 136.34C229.507 135.784 229.02 134.977 229.02 133.92C229.02 133.027 229.371 132.307 230.072 131.76C230.774 131.213 231.69 130.939 232.82 130.939C233.75 130.939 234.543 131.158 235.199 131.596C235.865 132.024 236.348 132.576 236.649 133.25L235.131 133.756C234.548 132.908 233.773 132.484 232.807 132.484C232.214 132.484 231.745 132.617 231.399 132.881C231.052 133.145 230.879 133.492 230.879 133.92C230.879 134.048 230.893 134.171 230.92 134.289C230.947 134.398 231.002 134.503 231.084 134.604C231.166 134.704 231.239 134.79 231.303 134.863C231.367 134.936 231.472 135.014 231.617 135.096C231.763 135.178 231.877 135.242 231.959 135.287C232.05 135.333 232.196 135.392 232.397 135.465C232.597 135.538 232.738 135.588 232.82 135.615C232.912 135.643 233.076 135.697 233.313 135.779C233.55 135.852 233.709 135.902 233.791 135.93C234.21 136.066 234.58 136.212 234.899 136.367C235.218 136.522 235.527 136.723 235.828 136.969C236.138 137.206 236.375 137.502 236.539 137.857C236.703 138.213 236.785 138.614 236.785 139.061C236.785 140.072 236.421 140.856 235.692 141.412C234.972 141.968 234.037 142.246 232.889 142.246C231.895 142.246 231.025 142.018 230.277 141.562C229.53 141.098 228.983 140.473 228.637 139.689ZM238.706 142V131.186H240.497V135.684H244.872V131.186H246.663V142H244.872V137.201H240.497V142H238.706ZM251.994 132.73V131.186H260.034V132.73H256.916V142H255.112V132.73H251.994ZM260.751 142V134.111H262.419V134.959C262.592 134.667 262.838 134.412 263.157 134.193C263.485 133.975 263.873 133.865 264.319 133.865C264.739 133.865 265.08 133.924 265.345 134.043V135.615C264.998 135.506 264.657 135.451 264.319 135.451C263.727 135.451 263.271 135.684 262.952 136.148C262.642 136.604 262.487 137.215 262.487 137.98V142H260.751ZM266.431 139.143V134.111H268.168V138.924C268.168 140.154 268.601 140.77 269.467 140.77C269.986 140.77 270.392 140.551 270.683 140.113C270.975 139.667 271.121 139.138 271.121 138.527V134.111H272.844V142H271.176V141.084H271.162C271.034 141.367 270.788 141.631 270.424 141.877C270.068 142.123 269.622 142.246 269.084 142.246C268.765 142.246 268.459 142.196 268.168 142.096C267.885 142.005 267.607 141.854 267.334 141.645C267.06 141.426 266.842 141.102 266.678 140.674C266.513 140.245 266.431 139.735 266.431 139.143ZM274.559 138.021C274.559 136.755 274.905 135.747 275.598 135C276.3 134.243 277.18 133.865 278.237 133.865C279.276 133.865 280.133 134.243 280.807 135C281.482 135.757 281.819 136.741 281.819 137.953C281.819 138.19 281.805 138.423 281.778 138.65H276.309C276.309 139.252 276.487 139.771 276.842 140.209C277.207 140.637 277.704 140.852 278.333 140.852C278.77 140.852 279.153 140.747 279.481 140.537C279.818 140.318 280.073 140.04 280.247 139.703L281.696 140.195C281.441 140.779 281.026 141.266 280.452 141.658C279.877 142.05 279.162 142.246 278.305 142.246C277.202 142.246 276.3 141.863 275.598 141.098C274.905 140.332 274.559 139.307 274.559 138.021ZM276.336 137.434H280.055C280.055 136.832 279.896 136.322 279.577 135.902C279.258 135.474 278.811 135.26 278.237 135.26C277.663 135.26 277.202 135.479 276.856 135.916C276.519 136.344 276.346 136.85 276.336 137.434ZM283.726 142.328H284.628C285.057 142.328 285.271 142.036 285.271 141.453V138.773C285.271 137.926 285.617 137.27 286.31 136.805C285.617 136.349 285.271 135.679 285.271 134.795V132.115C285.271 131.851 285.211 131.646 285.093 131.5C284.984 131.345 284.833 131.268 284.642 131.268H283.726V129.846H284.956C285.576 129.846 286.073 130.028 286.446 130.393C286.82 130.748 287.007 131.258 287.007 131.924V134.576C287.007 135.624 287.262 136.148 287.773 136.148H288.238V137.488H287.773C287.517 137.488 287.326 137.634 287.198 137.926C287.071 138.217 287.007 138.573 287.007 138.992V141.699C287.007 142.383 286.811 142.898 286.419 143.244C286.036 143.59 285.549 143.764 284.956 143.764H283.726V142.328ZM48.1621 160.328H49.0645C49.4928 160.328 49.707 160.036 49.707 159.453V156.773C49.707 155.926 50.0534 155.27 50.7461 154.805C50.0534 154.349 49.707 153.679 49.707 152.795V150.115C49.707 149.851 49.6478 149.646 49.5293 149.5C49.4199 149.345 49.2695 149.268 49.0781 149.268H48.1621V147.846H49.3926C50.0124 147.846 50.5091 148.028 50.8828 148.393C51.2565 148.748 51.4434 149.258 51.4434 149.924V152.576C51.4434 153.624 51.6986 154.148 52.209 154.148H52.6738V155.488H52.209C51.9538 155.488 51.7624 155.634 51.6348 155.926C51.5072 156.217 51.4434 156.573 51.4434 156.992V159.699C51.4434 160.383 51.2474 160.898 50.8555 161.244C50.4727 161.59 49.985 161.764 49.3926 161.764H48.1621V160.328Z" fill="#0F70CE"/>
<path d="M17.5 7.5C17.5 11.2845 13.7837 14.5 9 14.5C4.21635 14.5 0.5 11.2845 0.5 7.5C0.5 3.71549 4.21635 0.5 9 0.5C13.7837 0.5 17.5 3.71549 17.5 7.5Z" stroke="black"/>
<path d="M8.8897 12V3.516L7.3077 3.866V3.054L9.2817 2.2H10.0797V12H8.8897Z" fill="black"/>
<path d="M17.5 26.5C17.5 30.2845 13.7837 33.5 9 33.5C4.21635 33.5 0.5 30.2845 0.5 26.5C0.5 22.7155 4.21635 19.5 9 19.5C13.7837 19.5 17.5 22.7155 17.5 26.5Z" stroke="black"/>
<path d="M5.87614 31V30.174C6.53881 29.6513 7.16414 29.124 7.75214 28.592C8.34947 28.0507 8.87681 27.5187 9.33414 26.996C9.80081 26.4733 10.1648 25.96 10.4261 25.456C10.6968 24.952 10.8321 24.4667 10.8321 24C10.8321 23.6547 10.7715 23.3327 10.6501 23.034C10.5381 22.7353 10.3515 22.4973 10.0901 22.32C9.82881 22.1333 9.47414 22.04 9.02614 22.04C8.59681 22.04 8.23747 22.138 7.94814 22.334C7.65881 22.5207 7.43947 22.7727 7.29014 23.09C7.15014 23.4073 7.08014 23.748 7.08014 24.112H5.94614C5.94614 23.468 6.08147 22.9173 6.35214 22.46C6.62281 21.9933 6.99147 21.6387 7.45814 21.396C7.92481 21.1533 8.45214 21.032 9.04014 21.032C9.90814 21.032 10.6175 21.2793 11.1681 21.774C11.7281 22.2593 12.0081 22.9873 12.0081 23.958C12.0081 24.5367 11.8635 25.1107 11.5741 25.68C11.2848 26.24 10.9161 26.786 10.4681 27.318C10.0201 27.8407 9.53947 28.3307 9.02614 28.788C8.52214 29.2453 8.05081 29.656 7.61214 30.02H12.3441V31H5.87614Z" fill="black"/>
<path d="M17.5 45.5C17.5 49.2845 13.7837 52.5 9 52.5C4.21635 52.5 0.5 49.2845 0.5 45.5C0.5 41.7155 4.21635 38.5 9 38.5C13.7837 38.5 17.5 41.7155 17.5 45.5Z" stroke="black"/>
<path d="M8.97277 50.168C8.34743 50.168 7.78277 50.056 7.27877 49.832C6.77477 49.5987 6.36877 49.2533 6.06077 48.796C5.7621 48.3387 5.60343 47.7693 5.58477 47.088H6.77477C6.7841 47.648 6.9801 48.1333 7.36277 48.544C7.74543 48.9453 8.2821 49.146 8.97277 49.146C9.66343 49.146 10.1814 48.9547 10.5268 48.572C10.8814 48.1893 11.0588 47.7273 11.0588 47.186C11.0588 46.7287 10.9468 46.3553 10.7228 46.066C10.5081 45.7767 10.2141 45.562 9.84077 45.422C9.47677 45.282 9.07543 45.212 8.63677 45.212H7.90877V44.218H8.63677C9.27143 44.218 9.7661 44.0733 10.1208 43.784C10.4848 43.4947 10.6668 43.0887 10.6668 42.566C10.6668 42.1273 10.5221 41.768 10.2328 41.488C9.95277 41.1987 9.53277 41.054 8.97277 41.054C8.43143 41.054 7.99743 41.2173 7.67077 41.544C7.3441 41.8613 7.1621 42.2627 7.12477 42.748H5.93477C5.96277 42.216 6.10277 41.7447 6.35477 41.334C6.6161 40.9233 6.97077 40.606 7.41877 40.382C7.86677 40.1487 8.38477 40.032 8.97277 40.032C9.60743 40.032 10.1348 40.144 10.5548 40.368C10.9841 40.592 11.3061 40.8907 11.5208 41.264C11.7448 41.6373 11.8568 42.048 11.8568 42.496C11.8568 42.9907 11.7214 43.4433 11.4508 43.854C11.1801 44.2553 10.7741 44.526 10.2328 44.666C10.8114 44.7873 11.2921 45.0627 11.6748 45.492C12.0574 45.9213 12.2488 46.486 12.2488 47.186C12.2488 47.7273 12.1228 48.2267 11.8708 48.684C11.6281 49.132 11.2641 49.4913 10.7788 49.762C10.2934 50.0327 9.69143 50.168 8.97277 50.168Z" fill="black"/>
<path d="M17.5 62.5C17.5 66.2845 13.7837 69.5 9 69.5C4.21635 69.5 0.5 66.2845 0.5 62.5C0.5 58.7155 4.21635 55.5 9 55.5C13.7837 55.5 17.5 58.7155 17.5 62.5Z" stroke="black"/>
<path d="M10.2357 68V65.9H5.26572V64.99L10.0257 58.2H11.3977V64.864H12.8537V65.9H11.3977V68H10.2357ZM6.56772 64.864H10.2917V59.502L6.56772 64.864Z" fill="black"/>
<path d="M17.5 100.5C17.5 104.285 13.7837 107.5 9 107.5C4.21635 107.5 0.5 104.285 0.5 100.5C0.5 96.7155 4.21635 93.5 9 93.5C13.7837 93.5 17.5 96.7155 17.5 100.5Z" stroke="black"/>
<path d="M9.15482 105.168C8.44549 105.168 7.84815 105.037 7.36282 104.776C6.87749 104.505 6.48549 104.146 6.18682 103.698C5.89749 103.25 5.68282 102.751 5.54282 102.2C5.41215 101.64 5.34682 101.071 5.34682 100.492C5.34682 99.4093 5.49615 98.462 5.79482 97.65C6.09349 96.8287 6.52282 96.1893 7.08282 95.732C7.65215 95.2653 8.33815 95.032 9.14082 95.032C9.75682 95.032 10.2842 95.1533 10.7228 95.396C11.1615 95.6387 11.5068 95.9653 11.7588 96.376C12.0202 96.7773 12.1835 97.2253 12.2488 97.72H11.1568C11.0542 97.188 10.8255 96.7773 10.4708 96.488C10.1162 96.1987 9.66815 96.054 9.12682 96.054C8.38949 96.054 7.76882 96.404 7.26482 97.104C6.77015 97.7947 6.50415 98.8773 6.46682 100.352C6.69082 99.9133 7.04549 99.5353 7.53082 99.218C8.02549 98.8913 8.61815 98.728 9.30882 98.728C9.86882 98.728 10.3915 98.8587 10.8768 99.12C11.3715 99.3813 11.7728 99.75 12.0808 100.226C12.3888 100.693 12.5428 101.243 12.5428 101.878C12.5428 102.429 12.4075 102.956 12.1368 103.46C11.8662 103.964 11.4742 104.375 10.9608 104.692C10.4568 105.009 9.85482 105.168 9.15482 105.168ZM9.07082 104.132C9.50949 104.132 9.90149 104.039 10.2468 103.852C10.5922 103.665 10.8628 103.409 11.0588 103.082C11.2548 102.746 11.3528 102.363 11.3528 101.934C11.3528 101.271 11.1335 100.744 10.6948 100.352C10.2655 99.9507 9.72415 99.75 9.07082 99.75C8.63215 99.75 8.24015 99.8527 7.89482 100.058C7.54949 100.254 7.27415 100.52 7.06882 100.856C6.87282 101.192 6.77482 101.556 6.77482 101.948C6.77482 102.368 6.87282 102.746 7.06882 103.082C7.27415 103.409 7.54949 103.665 7.89482 103.852C8.24015 104.039 8.63215 104.132 9.07082 104.132Z" fill="black"/>
<path d="M17.5 119.5C17.5 123.285 13.7837 126.5 9 126.5C4.21635 126.5 0.5 123.285 0.5 119.5C0.5 115.715 4.21635 112.5 9 112.5C13.7837 112.5 17.5 115.715 17.5 119.5Z" stroke="black"/>
<path d="M6.61558 124L10.5076 115.208H5.13158V114.2H11.7116V115.082L7.86158 124H6.61558Z" fill="black"/>
<path d="M17.5 138.5C17.5 142.285 13.7837 145.5 9 145.5C4.21635 145.5 0.5 142.285 0.5 138.5C0.5 134.715 4.21635 131.5 9 131.5C13.7837 131.5 17.5 134.715 17.5 138.5Z" stroke="black"/>
<path d="M8.49754 143.168C7.85354 143.168 7.27487 143.051 6.76154 142.818C6.24821 142.575 5.84221 142.244 5.54354 141.824C5.25421 141.395 5.10954 140.9 5.10954 140.34C5.10954 139.743 5.28221 139.206 5.62754 138.73C5.98221 138.254 6.44887 137.937 7.02754 137.778C6.49554 137.601 6.08487 137.316 5.79554 136.924C5.50621 136.532 5.36154 136.103 5.36154 135.636C5.36154 135.16 5.48754 134.726 5.73954 134.334C5.99154 133.933 6.35087 133.615 6.81754 133.382C7.28421 133.149 7.84421 133.032 8.49754 133.032C9.15087 133.032 9.71087 133.149 10.1775 133.382C10.6442 133.615 11.0035 133.933 11.2555 134.334C11.5075 134.726 11.6335 135.16 11.6335 135.636C11.6335 136.093 11.4889 136.523 11.1995 136.924C10.9102 137.316 10.4995 137.601 9.96754 137.778C10.5462 137.937 11.0082 138.254 11.3535 138.73C11.7082 139.206 11.8855 139.743 11.8855 140.34C11.8855 140.9 11.7362 141.395 11.4375 141.824C11.1482 142.244 10.7469 142.575 10.2335 142.818C9.72021 143.051 9.14154 143.168 8.49754 143.168ZM8.49754 137.358C9.09487 137.358 9.56621 137.209 9.91154 136.91C10.2662 136.602 10.4435 136.201 10.4435 135.706C10.4435 135.155 10.2709 134.74 9.92554 134.46C9.58021 134.18 9.10421 134.04 8.49754 134.04C7.89087 134.04 7.41487 134.18 7.06954 134.46C6.73354 134.74 6.56554 135.155 6.56554 135.706C6.56554 136.201 6.73821 136.602 7.08354 136.91C7.42887 137.209 7.90021 137.358 8.49754 137.358ZM8.49754 142.132C9.23487 142.132 9.78554 141.964 10.1495 141.628C10.5229 141.283 10.7095 140.83 10.7095 140.27C10.7095 139.635 10.5089 139.155 10.1075 138.828C9.70621 138.501 9.16954 138.338 8.49754 138.338C7.82554 138.338 7.28887 138.501 6.88754 138.828C6.48621 139.155 6.28554 139.635 6.28554 140.27C6.28554 140.83 6.46754 141.283 6.83154 141.628C7.20487 141.964 7.76021 142.132 8.49754 142.132Z" fill="black"/>
<path d="M17.5 81.5C17.5 85.2845 13.7837 88.5 9 88.5C4.21635 88.5 0.5 85.2845 0.5 81.5C0.5 77.7155 4.21635 74.5 9 74.5C13.7837 74.5 17.5 77.7155 17.5 81.5Z" stroke="black"/>
<path d="M9.08187 86.168C8.40987 86.168 7.82653 86.0467 7.33187 85.804C6.8372 85.5613 6.44053 85.23 6.14187 84.81C5.85253 84.3807 5.6752 83.8953 5.60987 83.354H6.75787C6.86987 83.8953 7.1312 84.334 7.54187 84.67C7.95253 84.9967 8.47053 85.16 9.09587 85.16C9.56253 85.16 9.96387 85.0527 10.2999 84.838C10.6359 84.614 10.8925 84.3153 11.0699 83.942C11.2565 83.5687 11.3499 83.1533 11.3499 82.696C11.3499 81.968 11.1445 81.38 10.7339 80.932C10.3232 80.484 9.7912 80.26 9.13787 80.26C8.59653 80.26 8.13453 80.3813 7.75187 80.624C7.3692 80.8667 7.0892 81.184 6.91187 81.576H5.79187L6.63187 76.2H11.7699V77.222H7.54187L6.96787 80.204C7.19187 79.9333 7.49987 79.7093 7.89187 79.532C8.2932 79.3547 8.75053 79.266 9.26387 79.266C9.90787 79.266 10.4679 79.4153 10.9439 79.714C11.4292 80.0127 11.8072 80.4187 12.0779 80.932C12.3485 81.4453 12.4839 82.0287 12.4839 82.682C12.4839 83.3073 12.3485 83.886 12.0779 84.418C11.8165 84.95 11.4292 85.3747 10.9159 85.692C10.4119 86.0093 9.80053 86.168 9.08187 86.168Z" fill="black"/>
</svg>
