<svg width="177" height="105" viewBox="0 0 177 105" fill="none" xmlns="http://www.w3.org/2000/svg">
<g filter="url(#filter0_d)">
<rect width="173" height="101" rx="8" fill="white"/>
<path d="M54.5703 31.7422H49.6406V35.7734H55.3672V37H48.1406V25.625H55.2891V26.8594H49.6406V30.5156H54.5703V31.7422ZM58.5781 37H57.1328V25H58.5781V37ZM62.8594 26.5V28.5469H64.4375V29.6641H62.8594V34.9062C62.8594 35.2448 62.9297 35.5 63.0703 35.6719C63.2109 35.8385 63.4505 35.9219 63.7891 35.9219C63.9557 35.9219 64.1849 35.8906 64.4766 35.8281V37C64.0964 37.1042 63.7266 37.1562 63.3672 37.1562C62.7214 37.1562 62.2344 36.9609 61.9062 36.5703C61.5781 36.1797 61.4141 35.625 61.4141 34.9062V29.6641H59.875V28.5469H61.4141V26.5H62.8594ZM71.1797 24.8516L72.0078 25.4141C71.5234 26.0755 71.2734 26.7891 71.2578 27.5547V28.6172H69.8203V27.7109C69.8203 27.1797 69.9453 26.6536 70.1953 26.1328C70.4505 25.612 70.7786 25.1849 71.1797 24.8516ZM73.6406 24.8516L74.4688 25.4141C73.9844 26.0755 73.7344 26.7891 73.7188 27.5547V28.6172H72.2812V27.7109C72.2812 27.1797 72.4062 26.6536 72.6562 26.1328C72.9115 25.612 73.2396 25.1849 73.6406 24.8516ZM80.5859 37C80.5026 36.8333 80.4349 36.5365 80.3828 36.1094C79.7109 36.8073 78.9089 37.1562 77.9766 37.1562C77.1432 37.1562 76.4583 36.9219 75.9219 36.4531C75.3906 35.9792 75.125 35.3802 75.125 34.6562C75.125 33.776 75.4583 33.0938 76.125 32.6094C76.7969 32.1198 77.7396 31.875 78.9531 31.875H80.3594V31.2109C80.3594 30.7057 80.2083 30.3047 79.9062 30.0078C79.6042 29.7057 79.1589 29.5547 78.5703 29.5547C78.0547 29.5547 77.6224 29.6849 77.2734 29.9453C76.9245 30.2057 76.75 30.5208 76.75 30.8906H75.2969C75.2969 30.4688 75.4453 30.0625 75.7422 29.6719C76.0443 29.276 76.4505 28.9635 76.9609 28.7344C77.4766 28.5052 78.0417 28.3906 78.6562 28.3906C79.6302 28.3906 80.3932 28.6354 80.9453 29.125C81.4974 29.6094 81.7839 30.2786 81.8047 31.1328V35.0234C81.8047 35.7995 81.9036 36.4167 82.1016 36.875V37H80.5859ZM78.1875 35.8984C78.6406 35.8984 79.0703 35.7812 79.4766 35.5469C79.8828 35.3125 80.1771 35.0078 80.3594 34.6328V32.8984H79.2266C77.4557 32.8984 76.5703 33.4167 76.5703 34.4531C76.5703 34.9062 76.7214 35.2604 77.0234 35.5156C77.3255 35.7708 77.7135 35.8984 78.1875 35.8984ZM85.6406 37H84.1953V25H85.6406V37ZM89.5312 37H88.0859V28.5469H89.5312V37ZM87.9688 26.3047C87.9688 26.0703 88.0391 25.8724 88.1797 25.7109C88.3255 25.5495 88.5391 25.4688 88.8203 25.4688C89.1016 25.4688 89.3151 25.5495 89.4609 25.7109C89.6068 25.8724 89.6797 26.0703 89.6797 26.3047C89.6797 26.5391 89.6068 26.7344 89.4609 26.8906C89.3151 27.0469 89.1016 27.125 88.8203 27.125C88.5391 27.125 88.3255 27.0469 88.1797 26.8906C88.0391 26.7344 87.9688 26.5391 87.9688 26.3047ZM95.2422 35.9766C95.7578 35.9766 96.2083 35.8203 96.5938 35.5078C96.9792 35.1953 97.1927 34.8047 97.2344 34.3359H98.6016C98.5755 34.8203 98.4089 35.2812 98.1016 35.7188C97.7943 36.1562 97.3828 36.5052 96.8672 36.7656C96.3568 37.026 95.8151 37.1562 95.2422 37.1562C94.0911 37.1562 93.1745 36.7734 92.4922 36.0078C91.8151 35.237 91.4766 34.1849 91.4766 32.8516V32.6094C91.4766 31.7865 91.6276 31.0547 91.9297 30.4141C92.2318 29.7734 92.6641 29.276 93.2266 28.9219C93.7943 28.5677 94.4635 28.3906 95.2344 28.3906C96.1823 28.3906 96.9688 28.6745 97.5938 29.2422C98.224 29.8099 98.5599 30.5469 98.6016 31.4531H97.2344C97.1927 30.9062 96.9844 30.4583 96.6094 30.1094C96.2396 29.7552 95.7812 29.5781 95.2344 29.5781C94.5 29.5781 93.9297 29.8438 93.5234 30.375C93.1224 30.901 92.9219 31.6641 92.9219 32.6641V32.9375C92.9219 33.9115 93.1224 34.6615 93.5234 35.1875C93.9245 35.7135 94.4974 35.9766 95.2422 35.9766ZM103.734 37.1562C102.589 37.1562 101.656 36.7812 100.938 36.0312C100.219 35.276 99.8594 34.2682 99.8594 33.0078V32.7422C99.8594 31.9036 100.018 31.1562 100.336 30.5C100.659 29.8385 101.107 29.3229 101.68 28.9531C102.258 28.5781 102.883 28.3906 103.555 28.3906C104.654 28.3906 105.508 28.7526 106.117 29.4766C106.727 30.2005 107.031 31.237 107.031 32.5859V33.1875H101.305C101.326 34.0208 101.568 34.6953 102.031 35.2109C102.5 35.7214 103.094 35.9766 103.812 35.9766C104.323 35.9766 104.755 35.8724 105.109 35.6641C105.464 35.4557 105.773 35.1797 106.039 34.8359L106.922 35.5234C106.214 36.612 105.151 37.1562 103.734 37.1562ZM103.555 29.5781C102.971 29.5781 102.482 29.7917 102.086 30.2188C101.69 30.6406 101.445 31.2344 101.352 32H105.586V31.8906C105.544 31.1562 105.346 30.5885 104.992 30.1875C104.638 29.7812 104.159 29.5781 103.555 29.5781ZM108.797 28.8281L107.977 28.2656C108.461 27.5885 108.711 26.875 108.727 26.125V25H110.156V26.0156C110.151 26.5365 110.021 27.0573 109.766 27.5781C109.516 28.0938 109.193 28.5104 108.797 28.8281ZM111.195 28.8281L110.375 28.2656C110.859 27.5885 111.109 26.875 111.125 26.125V25H112.555V26.0156C112.549 26.5365 112.419 27.0573 112.164 27.5781C111.914 28.0938 111.591 28.5104 111.195 28.8281ZM122.891 37H121.438V27.3672L118.523 28.4375V27.125L122.664 25.5703H122.891V37ZM55.5781 50.7422H50.6484V54.7734H56.375V56H49.1484V44.625H56.2969V45.8594H50.6484V49.5156H55.5781V50.7422ZM59.5859 56H58.1406V44H59.5859V56ZM63.8672 45.5V47.5469H65.4453V48.6641H63.8672V53.9062C63.8672 54.2448 63.9375 54.5 64.0781 54.6719C64.2188 54.8385 64.4583 54.9219 64.7969 54.9219C64.9635 54.9219 65.1927 54.8906 65.4844 54.8281V56C65.1042 56.1042 64.7344 56.1562 64.375 56.1562C63.7292 56.1562 63.2422 55.9609 62.9141 55.5703C62.5859 55.1797 62.4219 54.625 62.4219 53.9062V48.6641H60.8828V47.5469H62.4219V45.5H63.8672ZM72.1875 43.8516L73.0156 44.4141C72.5312 45.0755 72.2812 45.7891 72.2656 46.5547V47.6172H70.8281V46.7109C70.8281 46.1797 70.9531 45.6536 71.2031 45.1328C71.4583 44.612 71.7865 44.1849 72.1875 43.8516ZM74.6484 43.8516L75.4766 44.4141C74.9922 45.0755 74.7422 45.7891 74.7266 46.5547V47.6172H73.2891V46.7109C73.2891 46.1797 73.4141 45.6536 73.6641 45.1328C73.9193 44.612 74.2474 44.1849 74.6484 43.8516ZM83.9219 51.8672C83.9219 53.1589 83.625 54.1979 83.0312 54.9844C82.4375 55.7656 81.6406 56.1562 80.6406 56.1562C79.5729 56.1562 78.7474 55.7786 78.1641 55.0234L78.0938 56H76.7656V44H78.2109V48.4766C78.7943 47.7526 79.599 47.3906 80.625 47.3906C81.651 47.3906 82.4557 47.7786 83.0391 48.5547C83.6276 49.3307 83.9219 50.3932 83.9219 51.7422V51.8672ZM82.4766 51.7031C82.4766 50.7188 82.2865 49.9583 81.9062 49.4219C81.526 48.8854 80.9792 48.6172 80.2656 48.6172C79.3125 48.6172 78.6276 49.0599 78.2109 49.9453V53.6016C78.6536 54.487 79.3438 54.9297 80.2812 54.9297C80.974 54.9297 81.513 54.6615 81.8984 54.125C82.2839 53.5885 82.4766 52.7812 82.4766 51.7031ZM85.3672 51.6953C85.3672 50.8672 85.5286 50.1224 85.8516 49.4609C86.1797 48.7995 86.6328 48.2891 87.2109 47.9297C87.7943 47.5703 88.4583 47.3906 89.2031 47.3906C90.3542 47.3906 91.2839 47.7891 91.9922 48.5859C92.7057 49.3828 93.0625 50.4427 93.0625 51.7656V51.8672C93.0625 52.6901 92.9036 53.4297 92.5859 54.0859C92.2734 54.737 91.8229 55.2448 91.2344 55.6094C90.651 55.974 89.9792 56.1562 89.2188 56.1562C88.0729 56.1562 87.1432 55.7578 86.4297 54.9609C85.7214 54.1641 85.3672 53.1094 85.3672 51.7969V51.6953ZM86.8203 51.8672C86.8203 52.8047 87.0365 53.5573 87.4688 54.125C87.9062 54.6927 88.4896 54.9766 89.2188 54.9766C89.9531 54.9766 90.5365 54.6901 90.9688 54.1172C91.401 53.5391 91.6172 52.7318 91.6172 51.6953C91.6172 50.7682 91.3958 50.0182 90.9531 49.4453C90.5156 48.8672 89.9323 48.5781 89.2031 48.5781C88.4896 48.5781 87.9141 48.862 87.4766 49.4297C87.0391 49.9974 86.8203 50.8099 86.8203 51.8672ZM102.031 51.8672C102.031 53.1589 101.734 54.1979 101.141 54.9844C100.547 55.7656 99.75 56.1562 98.75 56.1562C97.6823 56.1562 96.8568 55.7786 96.2734 55.0234L96.2031 56H94.875V44H96.3203V48.4766C96.9036 47.7526 97.7083 47.3906 98.7344 47.3906C99.7604 47.3906 100.565 47.7786 101.148 48.5547C101.737 49.3307 102.031 50.3932 102.031 51.7422V51.8672ZM100.586 51.7031C100.586 50.7188 100.396 49.9583 100.016 49.4219C99.6354 48.8854 99.0885 48.6172 98.375 48.6172C97.4219 48.6172 96.737 49.0599 96.3203 49.9453V53.6016C96.763 54.487 97.4531 54.9297 98.3906 54.9297C99.0833 54.9297 99.6224 54.6615 100.008 54.125C100.393 53.5885 100.586 52.7812 100.586 51.7031ZM103.82 47.8281L103 47.2656C103.484 46.5885 103.734 45.875 103.75 45.125V44H105.18V45.0156C105.174 45.5365 105.044 46.0573 104.789 46.5781C104.539 47.0938 104.216 47.5104 103.82 47.8281ZM106.219 47.8281L105.398 47.2656C105.883 46.5885 106.133 45.875 106.148 45.125V44H107.578V45.0156C107.573 45.5365 107.443 46.0573 107.188 46.5781C106.938 47.0938 106.615 47.5104 106.219 47.8281ZM124.586 56H117.133V54.9609L121.07 50.5859C121.654 49.9245 122.055 49.388 122.273 48.9766C122.497 48.5599 122.609 48.1302 122.609 47.6875C122.609 47.0938 122.43 46.6068 122.07 46.2266C121.711 45.8464 121.232 45.6562 120.633 45.6562C119.914 45.6562 119.354 45.862 118.953 46.2734C118.557 46.6797 118.359 47.2474 118.359 47.9766H116.914C116.914 46.9297 117.25 46.0833 117.922 45.4375C118.599 44.7917 119.503 44.4688 120.633 44.4688C121.69 44.4688 122.526 44.7474 123.141 45.3047C123.755 45.8568 124.062 46.5938 124.062 47.5156C124.062 48.6354 123.349 49.9688 121.922 51.5156L118.875 54.8203H124.586V56ZM54.0234 69.7422H49.0938V73.7734H54.8203V75H47.5938V63.625H54.7422V64.8594H49.0938V68.5156H54.0234V69.7422ZM58.0312 75H56.5859V63H58.0312V75ZM62.3125 64.5V66.5469H63.8906V67.6641H62.3125V72.9062C62.3125 73.2448 62.3828 73.5 62.5234 73.6719C62.6641 73.8385 62.9036 73.9219 63.2422 73.9219C63.4089 73.9219 63.638 73.8906 63.9297 73.8281V75C63.5495 75.1042 63.1797 75.1562 62.8203 75.1562C62.1745 75.1562 61.6875 74.9609 61.3594 74.5703C61.0312 74.1797 60.8672 73.625 60.8672 72.9062V67.6641H59.3281V66.5469H60.8672V64.5H62.3125ZM70.6328 62.8516L71.4609 63.4141C70.9766 64.0755 70.7266 64.7891 70.7109 65.5547V66.6172H69.2734V65.7109C69.2734 65.1797 69.3984 64.6536 69.6484 64.1328C69.9036 63.612 70.2318 63.1849 70.6328 62.8516ZM73.0938 62.8516L73.9219 63.4141C73.4375 64.0755 73.1875 64.7891 73.1719 65.5547V66.6172H71.7344V65.7109C71.7344 65.1797 71.8594 64.6536 72.1094 64.1328C72.3646 63.612 72.6927 63.1849 73.0938 62.8516ZM78.1328 73.9766C78.6484 73.9766 79.099 73.8203 79.4844 73.5078C79.8698 73.1953 80.0833 72.8047 80.125 72.3359H81.4922C81.4661 72.8203 81.2995 73.2812 80.9922 73.7188C80.6849 74.1562 80.2734 74.5052 79.7578 74.7656C79.2474 75.026 78.7057 75.1562 78.1328 75.1562C76.9818 75.1562 76.0651 74.7734 75.3828 74.0078C74.7057 73.237 74.3672 72.1849 74.3672 70.8516V70.6094C74.3672 69.7865 74.5182 69.0547 74.8203 68.4141C75.1224 67.7734 75.5547 67.276 76.1172 66.9219C76.6849 66.5677 77.3542 66.3906 78.125 66.3906C79.0729 66.3906 79.8594 66.6745 80.4844 67.2422C81.1146 67.8099 81.4505 68.5469 81.4922 69.4531H80.125C80.0833 68.9062 79.875 68.4583 79.5 68.1094C79.1302 67.7552 78.6719 67.5781 78.125 67.5781C77.3906 67.5781 76.8203 67.8438 76.4141 68.375C76.013 68.901 75.8125 69.6641 75.8125 70.6641V70.9375C75.8125 71.9115 76.013 72.6615 76.4141 73.1875C76.8151 73.7135 77.388 73.9766 78.1328 73.9766ZM88.3359 75C88.2526 74.8333 88.1849 74.5365 88.1328 74.1094C87.4609 74.8073 86.6589 75.1562 85.7266 75.1562C84.8932 75.1562 84.2083 74.9219 83.6719 74.4531C83.1406 73.9792 82.875 73.3802 82.875 72.6562C82.875 71.776 83.2083 71.0938 83.875 70.6094C84.5469 70.1198 85.4896 69.875 86.7031 69.875H88.1094V69.2109C88.1094 68.7057 87.9583 68.3047 87.6562 68.0078C87.3542 67.7057 86.9089 67.5547 86.3203 67.5547C85.8047 67.5547 85.3724 67.6849 85.0234 67.9453C84.6745 68.2057 84.5 68.5208 84.5 68.8906H83.0469C83.0469 68.4688 83.1953 68.0625 83.4922 67.6719C83.7943 67.276 84.2005 66.9635 84.7109 66.7344C85.2266 66.5052 85.7917 66.3906 86.4062 66.3906C87.3802 66.3906 88.1432 66.6354 88.6953 67.125C89.2474 67.6094 89.5339 68.2786 89.5547 69.1328V73.0234C89.5547 73.7995 89.6536 74.4167 89.8516 74.875V75H88.3359ZM85.9375 73.8984C86.3906 73.8984 86.8203 73.7812 87.2266 73.5469C87.6328 73.3125 87.9271 73.0078 88.1094 72.6328V70.8984H86.9766C85.2057 70.8984 84.3203 71.4167 84.3203 72.4531C84.3203 72.9062 84.4714 73.2604 84.7734 73.5156C85.0755 73.7708 85.4635 73.8984 85.9375 73.8984ZM95.9062 67.8438C95.6875 67.8073 95.4505 67.7891 95.1953 67.7891C94.2474 67.7891 93.6042 68.1927 93.2656 69V75H91.8203V66.5469H93.2266L93.25 67.5234C93.724 66.7682 94.3958 66.3906 95.2656 66.3906C95.5469 66.3906 95.7604 66.4271 95.9062 66.5V67.8438ZM98.8125 75H97.3672V66.5469H98.8125V75ZM97.25 64.3047C97.25 64.0703 97.3203 63.8724 97.4609 63.7109C97.6068 63.5495 97.8203 63.4688 98.1016 63.4688C98.3828 63.4688 98.5964 63.5495 98.7422 63.7109C98.888 63.8724 98.9609 64.0703 98.9609 64.3047C98.9609 64.5391 98.888 64.7344 98.7422 64.8906C98.5964 65.0469 98.3828 65.125 98.1016 65.125C97.8203 65.125 97.6068 65.0469 97.4609 64.8906C97.3203 64.7344 97.25 64.5391 97.25 64.3047ZM102.5 66.5469L102.547 67.6094C103.193 66.7969 104.036 66.3906 105.078 66.3906C106.865 66.3906 107.766 67.3984 107.781 69.4141V75H106.336V69.4062C106.331 68.7969 106.19 68.3464 105.914 68.0547C105.643 67.763 105.219 67.6172 104.641 67.6172C104.172 67.6172 103.76 67.7422 103.406 67.9922C103.052 68.2422 102.776 68.5703 102.578 68.9766V75H101.133V66.5469H102.5ZM109.344 66.8281L108.523 66.2656C109.008 65.5885 109.258 64.875 109.273 64.125V63H110.703V64.0156C110.698 64.5365 110.568 65.0573 110.312 65.5781C110.062 66.0938 109.74 66.5104 109.344 66.8281ZM111.742 66.8281L110.922 66.2656C111.406 65.5885 111.656 64.875 111.672 64.125V63H113.102V64.0156C113.096 64.5365 112.966 65.0573 112.711 65.5781C112.461 66.0938 112.138 66.5104 111.742 66.8281ZM120.789 68.6094H121.875C122.557 68.599 123.094 68.4193 123.484 68.0703C123.875 67.7214 124.07 67.25 124.07 66.6562C124.07 65.3229 123.406 64.6562 122.078 64.6562C121.453 64.6562 120.953 64.8359 120.578 65.1953C120.208 65.5495 120.023 66.0208 120.023 66.6094H118.578C118.578 65.7083 118.906 64.9609 119.562 64.3672C120.224 63.7682 121.062 63.4688 122.078 63.4688C123.151 63.4688 123.992 63.7526 124.602 64.3203C125.211 64.888 125.516 65.6771 125.516 66.6875C125.516 67.1823 125.354 67.6615 125.031 68.125C124.714 68.5885 124.279 68.9349 123.727 69.1641C124.352 69.362 124.833 69.6901 125.172 70.1484C125.516 70.6068 125.688 71.1667 125.688 71.8281C125.688 72.849 125.354 73.6589 124.688 74.2578C124.021 74.8568 123.154 75.1562 122.086 75.1562C121.018 75.1562 120.148 74.8672 119.477 74.2891C118.81 73.7109 118.477 72.9479 118.477 72H119.93C119.93 72.599 120.125 73.0781 120.516 73.4375C120.906 73.7969 121.43 73.9766 122.086 73.9766C122.784 73.9766 123.318 73.7943 123.688 73.4297C124.057 73.0651 124.242 72.5417 124.242 71.8594C124.242 71.1979 124.039 70.6901 123.633 70.3359C123.227 69.9818 122.641 69.7995 121.875 69.7891H120.789V68.6094Z" fill="#65BF73"/>
<rect x="0.5" y="0.5" width="172" height="100" rx="7.5" stroke="#65BF73"/>
</g>
<defs>
<filter id="filter0_d" x="0" y="0" width="177" height="105" filterUnits="userSpaceOnUse" color-interpolation-filters="sRGB">
<feFlood flood-opacity="0" result="BackgroundImageFix"/>
<feColorMatrix in="SourceAlpha" type="matrix" values="0 0 0 0 0 0 0 0 0 0 0 0 0 0 0 0 0 0 127 0"/>
<feOffset dx="4" dy="4"/>
<feColorMatrix type="matrix" values="0 0 0 0 0.576471 0 0 0 0 0.776471 0 0 0 0 0.607843 0 0 0 1 0"/>
<feBlend mode="normal" in2="BackgroundImageFix" result="effect1_dropShadow"/>
<feBlend mode="normal" in="SourceGraphic" in2="effect1_dropShadow" result="shape"/>
</filter>
</defs>
</svg>
