<svg width="233" height="67" viewBox="0 0 233 67" fill="none" xmlns="http://www.w3.org/2000/svg">
<g filter="url(#filter0_d)">
<path d="M0 8C0 3.58172 3.58172 0 8 0H221C225.418 0 229 3.58172 229 8V40H0V8Z" fill="white"/>
<path d="M8 0.5H221C225.142 0.5 228.5 3.85787 228.5 8V39.5H0.5V8C0.5 3.85786 3.85786 0.5 8 0.5Z" stroke="#5452F6"/>
</g>
<g filter="url(#filter1_d)">
<path d="M0 39H229V55C229 59.4183 225.418 63 221 63H8.00001C3.58173 63 0 59.4183 0 55V39Z" fill="#EEEEFF"/>
<path d="M0.5 39.5H228.5V55C228.5 59.1421 225.142 62.5 221 62.5H8.00001C3.85787 62.5 0.5 59.1421 0.5 55V39.5Z" stroke="#5452F6"/>
</g>
<path d="M53.3125 20.7734V25H51.3359V13.625H55.6875C56.9583 13.625 57.9661 13.9557 58.7109 14.6172C59.4609 15.2786 59.8359 16.1536 59.8359 17.2422C59.8359 18.3568 59.4688 19.224 58.7344 19.8438C58.0052 20.4635 56.9818 20.7734 55.6641 20.7734H53.3125ZM53.3125 19.1875H55.6875C56.3906 19.1875 56.9271 19.0234 57.2969 18.6953C57.6667 18.362 57.8516 17.8828 57.8516 17.2578C57.8516 16.6432 57.6641 16.1536 57.2891 15.7891C56.9141 15.4193 56.3984 15.2292 55.7422 15.2188H53.3125V19.1875ZM66.5469 22.3516H62.1406L61.2188 25H59.1641L63.4609 13.625H65.2344L69.5391 25H67.4766L66.5469 22.3516ZM62.6953 20.7578H65.9922L64.3438 16.0391L62.6953 20.7578ZM72.9219 25H70.9531V13.625H72.9219V25ZM79.5312 20.6172H77.3281V25H75.3516V13.625H79.3516C80.6641 13.625 81.6771 13.9193 82.3906 14.5078C83.1042 15.0964 83.4609 15.9479 83.4609 17.0625C83.4609 17.8229 83.276 18.4609 82.9062 18.9766C82.5417 19.487 82.0312 19.8802 81.375 20.1562L83.9297 24.8984V25H81.8125L79.5312 20.6172ZM77.3281 19.0312H79.3594C80.026 19.0312 80.5469 18.8646 80.9219 18.5312C81.2969 18.1927 81.4844 17.7318 81.4844 17.1484C81.4844 16.5391 81.3099 16.0677 80.9609 15.7344C80.6172 15.401 80.1016 15.2292 79.4141 15.2188H77.3281V19.0312ZM89.1641 20.375C89.1641 19.1719 89.3255 18.0312 89.6484 16.9531C89.9714 15.8698 90.4453 14.9036 91.0703 14.0547C91.6953 13.2005 92.3568 12.6016 93.0547 12.2578L93.4297 13.3672C92.6953 13.9245 92.099 14.776 91.6406 15.9219C91.1875 17.0625 90.9401 18.3698 90.8984 19.8438L90.8906 20.5156C90.8906 22.0938 91.112 23.5026 91.5547 24.7422C92.0026 25.9766 92.6276 26.9167 93.4297 27.5625L93.0547 28.6172C92.3568 28.2734 91.6927 27.6719 91.0625 26.8125C90.4375 25.9583 89.9635 24.9948 89.6406 23.9219C89.3229 22.8438 89.1641 21.6615 89.1641 20.375ZM96.4766 16.5469L96.5312 17.5234C97.1562 16.7682 97.9766 16.3906 98.9922 16.3906C100.753 16.3906 101.648 17.3984 101.68 19.4141V25H99.7812V19.5234C99.7812 18.987 99.6641 18.5911 99.4297 18.3359C99.2005 18.0755 98.8229 17.9453 98.2969 17.9453C97.5312 17.9453 96.9609 18.2917 96.5859 18.9844V25H94.6875V16.5469H96.4766ZM108.672 25C108.589 24.8385 108.516 24.5755 108.453 24.2109C107.849 24.8411 107.109 25.1562 106.234 25.1562C105.385 25.1562 104.693 24.9141 104.156 24.4297C103.62 23.9453 103.352 23.3464 103.352 22.6328C103.352 21.7318 103.685 21.0417 104.352 20.5625C105.023 20.0781 105.982 19.8359 107.227 19.8359H108.391V19.2812C108.391 18.8438 108.268 18.4948 108.023 18.2344C107.779 17.9688 107.406 17.8359 106.906 17.8359C106.474 17.8359 106.12 17.9453 105.844 18.1641C105.568 18.3776 105.43 18.651 105.43 18.9844H103.531C103.531 18.5208 103.685 18.0885 103.992 17.6875C104.299 17.2812 104.716 16.9635 105.242 16.7344C105.773 16.5052 106.365 16.3906 107.016 16.3906C108.005 16.3906 108.794 16.6406 109.383 17.1406C109.971 17.6354 110.273 18.3333 110.289 19.2344V23.0469C110.289 23.8073 110.396 24.4141 110.609 24.8672V25H108.672ZM106.586 23.6328C106.961 23.6328 107.312 23.5417 107.641 23.3594C107.974 23.1771 108.224 22.9323 108.391 22.625V21.0312H107.367C106.664 21.0312 106.135 21.1536 105.781 21.3984C105.427 21.6432 105.25 21.9896 105.25 22.4375C105.25 22.8021 105.37 23.0938 105.609 23.3125C105.854 23.526 106.18 23.6328 106.586 23.6328ZM114.656 14.4922V16.5469H116.148V17.9531H114.656V22.6719C114.656 22.9948 114.719 23.2292 114.844 23.375C114.974 23.5156 115.203 23.5859 115.531 23.5859C115.75 23.5859 115.971 23.5599 116.195 23.5078V24.9766C115.763 25.0964 115.346 25.1562 114.945 25.1562C113.487 25.1562 112.758 24.3516 112.758 22.7422V17.9531H111.367V16.5469H112.758V14.4922H114.656ZM129.117 25H121.469V23.6953L125.258 19.5625C125.805 18.9531 126.193 18.4453 126.422 18.0391C126.656 17.6276 126.773 17.2161 126.773 16.8047C126.773 16.263 126.62 15.8255 126.312 15.4922C126.01 15.1589 125.602 14.9922 125.086 14.9922C124.471 14.9922 123.995 15.1797 123.656 15.5547C123.318 15.9297 123.148 16.4427 123.148 17.0938H121.25C121.25 16.401 121.406 15.7786 121.719 15.2266C122.036 14.6693 122.487 14.237 123.07 13.9297C123.659 13.6224 124.336 13.4688 125.102 13.4688C126.206 13.4688 127.076 13.7474 127.711 14.3047C128.352 14.8568 128.672 15.6224 128.672 16.6016C128.672 17.1693 128.51 17.7656 128.188 18.3906C127.87 19.0104 127.346 19.7161 126.617 20.5078L123.836 23.4844H129.117V25ZM130.953 27.5625L129.93 26.9531C130.232 26.4792 130.438 26.0651 130.547 25.7109C130.661 25.362 130.721 25.0052 130.727 24.6406V23.1641H132.438L132.43 24.5312C132.424 25.0833 132.284 25.6354 132.008 26.1875C131.737 26.7448 131.385 27.2031 130.953 27.5625ZM139.945 16.5469L140 17.5234C140.625 16.7682 141.445 16.3906 142.461 16.3906C144.221 16.3906 145.117 17.3984 145.148 19.4141V25H143.25V19.5234C143.25 18.987 143.133 18.5911 142.898 18.3359C142.669 18.0755 142.292 17.9453 141.766 17.9453C141 17.9453 140.43 18.2917 140.055 18.9844V25H138.156V16.5469H139.945ZM152.141 25C152.057 24.8385 151.984 24.5755 151.922 24.2109C151.318 24.8411 150.578 25.1562 149.703 25.1562C148.854 25.1562 148.161 24.9141 147.625 24.4297C147.089 23.9453 146.82 23.3464 146.82 22.6328C146.82 21.7318 147.154 21.0417 147.82 20.5625C148.492 20.0781 149.451 19.8359 150.695 19.8359H151.859V19.2812C151.859 18.8438 151.737 18.4948 151.492 18.2344C151.247 17.9688 150.875 17.8359 150.375 17.8359C149.943 17.8359 149.589 17.9453 149.312 18.1641C149.036 18.3776 148.898 18.651 148.898 18.9844H147C147 18.5208 147.154 18.0885 147.461 17.6875C147.768 17.2812 148.185 16.9635 148.711 16.7344C149.242 16.5052 149.833 16.3906 150.484 16.3906C151.474 16.3906 152.263 16.6406 152.852 17.1406C153.44 17.6354 153.742 18.3333 153.758 19.2344V23.0469C153.758 23.8073 153.865 24.4141 154.078 24.8672V25H152.141ZM150.055 23.6328C150.43 23.6328 150.781 23.5417 151.109 23.3594C151.443 23.1771 151.693 22.9323 151.859 22.625V21.0312H150.836C150.133 21.0312 149.604 21.1536 149.25 21.3984C148.896 21.6432 148.719 21.9896 148.719 22.4375C148.719 22.8021 148.839 23.0938 149.078 23.3125C149.323 23.526 149.648 23.6328 150.055 23.6328ZM158.125 14.4922V16.5469H159.617V17.9531H158.125V22.6719C158.125 22.9948 158.188 23.2292 158.312 23.375C158.443 23.5156 158.672 23.5859 159 23.5859C159.219 23.5859 159.44 23.5599 159.664 23.5078V24.9766C159.232 25.0964 158.815 25.1562 158.414 25.1562C156.956 25.1562 156.227 24.3516 156.227 22.7422V17.9531H154.836V16.5469H156.227V14.4922H158.125ZM165.445 19.3594L166.062 13.625H172.172V15.2656H167.641L167.328 17.9844C167.854 17.6823 168.448 17.5312 169.109 17.5312C170.193 17.5312 171.034 17.8776 171.633 18.5703C172.237 19.263 172.539 20.1953 172.539 21.3672C172.539 22.5234 172.206 23.4453 171.539 24.1328C170.872 24.8151 169.958 25.1562 168.797 25.1562C167.755 25.1562 166.891 24.862 166.203 24.2734C165.521 23.6797 165.151 22.8984 165.094 21.9297H166.93C167.003 22.4818 167.201 22.9062 167.523 23.2031C167.846 23.4948 168.268 23.6406 168.789 23.6406C169.372 23.6406 169.826 23.4323 170.148 23.0156C170.477 22.599 170.641 22.0312 170.641 21.3125C170.641 20.6198 170.461 20.0729 170.102 19.6719C169.742 19.2656 169.247 19.0625 168.617 19.0625C168.273 19.0625 167.982 19.1094 167.742 19.2031C167.503 19.2917 167.242 19.4688 166.961 19.7344L165.445 19.3594ZM177.812 20.5C177.812 21.6562 177.654 22.7734 177.336 23.8516C177.018 24.9245 176.536 25.901 175.891 26.7812C175.245 27.6667 174.57 28.2786 173.867 28.6172L173.492 27.5625C174.273 26.9583 174.891 26.0365 175.344 24.7969C175.802 23.5521 176.031 22.1328 176.031 20.5391V20.3594C176.031 18.9115 175.833 17.5938 175.438 16.4062C175.042 15.2135 174.474 14.2578 173.734 13.5391L173.492 13.3203L173.867 12.2578C174.534 12.5807 175.18 13.1536 175.805 13.9766C176.43 14.7995 176.909 15.7214 177.242 16.7422C177.576 17.7578 177.763 18.8073 177.805 19.8906L177.812 20.5Z" fill="#5452F6"/>
<defs>
<filter id="filter0_d" x="0" y="0" width="233" height="44" filterUnits="userSpaceOnUse" color-interpolation-filters="sRGB">
<feFlood flood-opacity="0" result="BackgroundImageFix"/>
<feColorMatrix in="SourceAlpha" type="matrix" values="0 0 0 0 0 0 0 0 0 0 0 0 0 0 0 0 0 0 127 0"/>
<feOffset dx="4" dy="4"/>
<feColorMatrix type="matrix" values="0 0 0 0 0.674908 0 0 0 0 0.662083 0 0 0 0 0.945833 0 0 0 1 0"/>
<feBlend mode="normal" in2="BackgroundImageFix" result="effect1_dropShadow"/>
<feBlend mode="normal" in="SourceGraphic" in2="effect1_dropShadow" result="shape"/>
</filter>
<filter id="filter1_d" x="0" y="39" width="233" height="28" filterUnits="userSpaceOnUse" color-interpolation-filters="sRGB">
<feFlood flood-opacity="0" result="BackgroundImageFix"/>
<feColorMatrix in="SourceAlpha" type="matrix" values="0 0 0 0 0 0 0 0 0 0 0 0 0 0 0 0 0 0 127 0"/>
<feOffset dx="4" dy="4"/>
<feColorMatrix type="matrix" values="0 0 0 0 0.674908 0 0 0 0 0.662083 0 0 0 0 0.945833 0 0 0 1 0"/>
<feBlend mode="normal" in2="BackgroundImageFix" result="effect1_dropShadow"/>
<feBlend mode="normal" in="SourceGraphic" in2="effect1_dropShadow" result="shape"/>
</filter>
</defs>
</svg>
