<svg width="48" height="48" viewBox="0 0 48 48" fill="none" xmlns="http://www.w3.org/2000/svg">
<path d="M9.9502 39C12.8497 39 15.2002 36.6495 15.2002 33.75C15.2002 30.8505 12.8497 28.5 9.9502 28.5C7.0507 28.5 4.7002 30.8505 4.7002 33.75C4.7002 36.6495 7.0507 39 9.9502 39Z" stroke="#2B7DF7" stroke-width="1.5" stroke-linecap="round" stroke-linejoin="round"/>
<path d="M18.4 46.5C17.7885 44.7466 16.6467 43.2269 15.1328 42.1515C13.6189 41.0761 11.8079 40.4984 9.95095 40.4984C8.09399 40.4984 6.28303 41.0761 4.76913 42.1515C3.25523 43.2269 2.11341 44.7466 1.50195 46.5H18.4Z" stroke="#2B7DF7" stroke-width="1.5" stroke-linecap="round" stroke-linejoin="round"/>
<path d="M38.0518 39C40.9513 39 43.3018 36.6495 43.3018 33.75C43.3018 30.8505 40.9513 28.5 38.0518 28.5C35.1523 28.5 32.8018 30.8505 32.8018 33.75C32.8018 36.6495 35.1523 39 38.0518 39Z" stroke="#2B7DF7" stroke-width="1.5" stroke-linecap="round" stroke-linejoin="round"/>
<path d="M46.5001 46.5C45.8886 44.7466 44.7468 43.2269 43.2329 42.1515C41.719 41.0761 39.908 40.4984 38.0511 40.4984C36.1941 40.4984 34.3831 41.0761 32.8692 42.1515C31.3553 43.2269 30.2135 44.7466 29.6021 46.5H46.5001Z" stroke="#2B7DF7" stroke-width="1.5" stroke-linecap="round" stroke-linejoin="round"/>
<path d="M24 28.5C31.4558 28.5 37.5 22.4558 37.5 15C37.5 7.54416 31.4558 1.5 24 1.5C16.5442 1.5 10.5 7.54416 10.5 15C10.5 22.4558 16.5442 28.5 24 28.5Z" stroke="#2B7DF7" stroke-width="1.5" stroke-linecap="round" stroke-linejoin="round"/>
<path d="M11.2681 19.5H36.7321" stroke="#2B7DF7" stroke-width="1.5" stroke-linecap="round" stroke-linejoin="round"/>
<path d="M11.2681 10.5H36.7321" stroke="#2B7DF7" stroke-width="1.5" stroke-linecap="round" stroke-linejoin="round"/>
<path d="M21.088 1.81601C18.6654 10.5582 19.0219 19.8374 22.108 28.368" stroke="#2B7DF7" stroke-width="1.5" stroke-linecap="round" stroke-linejoin="round"/>
<path d="M26.9119 1.81601C27.9695 5.62047 28.5037 9.55129 28.4999 13.5C28.5083 18.5698 27.6283 23.6019 25.8999 28.368" stroke="#2B7DF7" stroke-width="1.5" stroke-linecap="round" stroke-linejoin="round"/>
</svg>
