<svg width="24" height="24" viewBox="0 0 24 24" fill="none" xmlns="http://www.w3.org/2000/svg">
<path d="M3 5.25C4.24264 5.25 5.25 4.24264 5.25 3C5.25 1.75736 4.24264 0.75 3 0.75C1.75736 0.75 0.75 1.75736 0.75 3C0.75 4.24264 1.75736 5.25 3 5.25Z" stroke="white" stroke-width="1.5" stroke-linecap="round" stroke-linejoin="round"/>
<path d="M4.82178 4.321L6.74978 5.719" stroke="white" stroke-width="1.5" stroke-linecap="round" stroke-linejoin="round"/>
<path d="M3 23.25C4.24264 23.25 5.25 22.2426 5.25 21C5.25 19.7574 4.24264 18.75 3 18.75C1.75736 18.75 0.75 19.7574 0.75 21C0.75 22.2426 1.75736 23.25 3 23.25Z" stroke="white" stroke-width="1.5" stroke-linecap="round" stroke-linejoin="round"/>
<path d="M4.82178 19.679L6.74978 18.28" stroke="white" stroke-width="1.5" stroke-linecap="round" stroke-linejoin="round"/>
<path d="M21 5.25C22.2426 5.25 23.25 4.24264 23.25 3C23.25 1.75736 22.2426 0.75 21 0.75C19.7574 0.75 18.75 1.75736 18.75 3C18.75 4.24264 19.7574 5.25 21 5.25Z" stroke="white" stroke-width="1.5" stroke-linecap="round" stroke-linejoin="round"/>
<path d="M19.178 4.321L17.25 5.719" stroke="white" stroke-width="1.5" stroke-linecap="round" stroke-linejoin="round"/>
<path d="M21 23.25C22.2426 23.25 23.25 22.2426 23.25 21C23.25 19.7574 22.2426 18.75 21 18.75C19.7574 18.75 18.75 19.7574 18.75 21C18.75 22.2426 19.7574 23.25 21 23.25Z" stroke="white" stroke-width="1.5" stroke-linecap="round" stroke-linejoin="round"/>
<path d="M19.178 19.679L17.25 18.28" stroke="white" stroke-width="1.5" stroke-linecap="round" stroke-linejoin="round"/>
<path d="M9.75 14.25C9.75 14.695 9.88196 15.13 10.1292 15.5C10.3764 15.87 10.7278 16.1584 11.139 16.3287C11.5501 16.499 12.0025 16.5436 12.439 16.4568C12.8754 16.37 13.2763 16.1557 13.591 15.841C13.9057 15.5263 14.12 15.1254 14.2068 14.689C14.2936 14.2525 14.249 13.8001 14.0787 13.389C13.9084 12.9778 13.62 12.6264 13.25 12.3792C12.88 12.132 12.445 12 12 12C11.555 12 11.12 11.868 10.75 11.6208C10.38 11.3736 10.0916 11.0222 9.92127 10.611C9.75098 10.1999 9.70642 9.74751 9.79323 9.31105C9.88005 8.87459 10.0943 8.47368 10.409 8.15901C10.7237 7.84434 11.1246 7.63005 11.561 7.54323C11.9975 7.45642 12.4499 7.50097 12.861 7.67127C13.2722 7.84157 13.6236 8.12996 13.8708 8.49997C14.118 8.86998 14.25 9.30499 14.25 9.75" stroke="white" stroke-width="1.5" stroke-linecap="round" stroke-linejoin="round"/>
<path d="M12 6V7.5" stroke="white" stroke-width="1.5" stroke-linecap="round" stroke-linejoin="round"/>
<path d="M12 16.5V18" stroke="white" stroke-width="1.5" stroke-linecap="round" stroke-linejoin="round"/>
</svg>
