<svg version="1.1" xmlns="http://www.w3.org/2000/svg" viewBox="0 0 925.5 486" width="925.5" height="486">
  <!-- svg-source:excalidraw -->
  
  <defs>
    <style>
      @font-face {
        font-family: "Virgil";
        src: url("https://excalidraw.com/Virgil.woff2");
      }
      @font-face {
        font-family: "Cascadia";
        src: url("https://excalidraw.com/Cascadia.woff2");
      }
    </style>
  </defs>
  <rect x="0" y="0" width="925.5" height="486" fill="#ffffff"></rect><g transform="translate(11.5 122) rotate(0 65.5 21)"><path d="M-0.10038593597710133 -1.7295155506581068 C47.07452205261216 1.244882960068062, 99.03894839752466 -0.8187786748539656, 129.9888333361596 1.9739697594195604 M-0.47648277785629034 -0.3001699009910226 C49.586092229839416 -1.9625304670725017, 98.50239743925631 -2.0569904477987437, 131.64990186784416 -0.5869372943416238 M132.51446857862175 0.9127586502581835 C130.74150543076917 13.53743755798787, 130.33007227046414 25.63678878322244, 131.85737857036293 40.52096998877823 M131.06501317117363 0.2507857223972678 C130.66291642976924 15.970320410653951, 131.4687473554723 32.49382448215038, 130.69536605570465 41.01487491931766 M131.0513029973954 42.446987273171544 C104.96594524765388 44.346394232315944, 77.60894862767309 42.09789907078259, -1.3875577170401812 43.20144075341523 M131.43832007143646 42.14816830959171 C100.14218920441344 41.23354670473375, 69.77821871489286 41.069424629891294, 0.6221101889386773 41.88093025889248 M0.18998792581260204 40.907166900113225 C0.062277852315455656 28.9635138431564, 0.8971406209655106 14.409205955266952, -1.3961830455809832 0.8482067603617907 M-0.3092903485521674 42.24558503832668 C0.6135816597379744 30.51666712462902, 0.03500363463535905 17.820905605889855, 0.9705700585618615 0.38729683961719275" stroke="#000000" stroke-width="1" fill="none"></path></g><g transform="translate(29.5 95) rotate(0 50.5 13)"><text x="0" y="18" font-family="Virgil, Segoe UI Emoji" font-size="20px" fill="#000000" text-anchor="start" style="white-space: pre;" direction="ltr">Parameter</text></g><g transform="translate(59 130) rotate(0 18 13)"><text x="18" y="18" font-family="Virgil, Segoe UI Emoji" font-size="20px" fill="#c92a2a" text-anchor="middle" style="white-space: pre;" direction="ltr">Bob</text></g><g transform="translate(16 220.5) rotate(0 97 50)"><path d="M-0.23813948221504688 0.7690539974719286 C75.80593920182439 -2.138712249938399, 153.7908423945308 -2.299726866427809, 193.8534353654832 1.1785272378474474 M0.42410338018089533 -0.10573528800159693 C64.92840477600694 1.2406825619749728, 129.4436934536323 1.5998825925402347, 194.63538506720218 0.6725789150223136 M194.7745936792344 -1.588509676977992 C195.18211178202185 29.315330337733023, 195.11617003101858 60.80913808010517, 193.24968102388087 101.35270375199613 M193.22614792082462 -0.6137138763442636 C194.08114201016727 32.749114845879376, 194.54972222633663 63.39879259001463, 193.84377211425456 100.72372718062249 M194.7556324284524 99.13295382447538 C153.34018615875397 102.91653866896402, 113.59737592116 101.14820517430078, -0.6809947807341814 99.70093918032941 M193.73771947715434 99.45688171591607 C134.5961242657155 97.28141601080073, 76.17871213685721 97.90817318553103, -0.5433370163664222 100.5788829764351 M-0.9842932540923357 99.18033170886335 C0.8257822534069422 79.0984871909022, -2.229581342078745 55.04081450216471, -1.5204401928931475 -1.1685511451214552 M-0.9187149098142982 100.71258835401383 C-0.38958269357681286 65.12889646831898, 0.6395958960056304 32.27022499125451, 0.8709387788549066 -0.914205894805491" stroke="#000000" stroke-width="1" fill="none"></path></g><g transform="translate(10 192.5) rotate(0 80 13)"><text x="0" y="18" font-family="Virgil, Segoe UI Emoji" font-size="20px" fill="#000000" text-anchor="start" style="white-space: pre;" direction="ltr">current Storage</text></g><g transform="translate(23.5 230) rotate(0 89.5 38.5)"><text x="0" y="17.666666666666668" font-family="Virgil, Segoe UI Emoji" font-size="20px" fill="#c92a2a" text-anchor="start" style="white-space: pre;" direction="ltr">MAP </text><text x="0" y="43.333333333333336" font-family="Virgil, Segoe UI Emoji" font-size="20px" fill="#c92a2a" text-anchor="start" style="white-space: pre;" direction="ltr">    Elt "James" 3</text><text x="0" y="69" font-family="Virgil, Segoe UI Emoji" font-size="20px" fill="#c92a2a" text-anchor="start" style="white-space: pre;" direction="ltr">    Elt "Bob"    4</text></g><g transform="translate(711.5 224) rotate(0 95 50)"><path d="M-0.6441014390438795 0.5794359128922224 C57.536069928668454 -3.0046502099372447, 109.88805716857317 -1.4937563286162914, 189.07636499591175 -0.7852823454886675 M0.6506118318066001 -0.3162668636068702 C72.0232855398208 0.44538475787267107, 145.285927166231 -0.02551485383883101, 189.40865282621237 -0.9194259038195014 M191.27292061038318 1.1507838051766157 C191.2133578984067 35.23780070617794, 190.32320395391437 68.53871340490876, 191.6688039917499 98.83748575858769 M190.78631572332236 0.24628049228340387 C190.74220141582194 31.969105283729725, 189.85212528519335 62.47946764994411, 189.65176238026473 100.22185775730756 M191.69682628102603 99.50141140632329 C147.0097377346829 97.34309414708984, 104.24507541209461 97.74884352767837, -0.5860604029148817 98.27829089574513 M190.35209526028487 99.99030920956281 C139.10748391970992 97.72241744073105, 88.12655875924975 97.65513378055763, 0.4937403043732047 99.33823239896444 M1.3940340299159288 99.41665807180104 C1.0705854604020715 72.44978053122756, 1.2368089267984033 44.06142281182108, 1.5645183939486742 0.8673942964524031 M-0.33652831707149744 99.44160664174703 C0.1205196976661681 60.05986805912105, 0.9542385041713713 20.54995660204439, 0.4288187762722373 -0.48885056283324957" stroke="#000000" stroke-width="1" fill="none"></path></g><g transform="translate(705.5 196) rotate(0 62.5 13)"><text x="0" y="18" font-family="Virgil, Segoe UI Emoji" font-size="20px" fill="#000000" text-anchor="start" style="white-space: pre;" direction="ltr">new Storage</text></g><g transform="translate(719 233.5) rotate(0 88.5 38.5)"><text x="0" y="17.666666666666668" font-family="Virgil, Segoe UI Emoji" font-size="20px" fill="#c92a2a" text-anchor="start" style="white-space: pre;" direction="ltr">MAP </text><text x="0" y="43.333333333333336" font-family="Virgil, Segoe UI Emoji" font-size="20px" fill="#c92a2a" text-anchor="start" style="white-space: pre;" direction="ltr">    Elt "James" 3</text><text x="0" y="69" font-family="Virgil, Segoe UI Emoji" font-size="20px" fill="#c92a2a" text-anchor="start" style="white-space: pre;" direction="ltr">    Elt "Bob"   5</text></g><g transform="translate(702 127.5) rotate(0 65.5 21)"><path d="M-0.1736274678260088 -1.1714994292706251 C29.101333303656432 2.5789012933243067, 62.471171318180865 1.288789691971615, 129.39349517039955 0.40537035651504993 M0.7283742437139153 -0.6468816855922341 C37.266894441004844 2.0912964977230875, 73.59289117790759 0.8434751965012401, 131.22538057062775 -0.6544752279296517 M129.20485123805702 -1.6258877497166395 C131.774554510545 10.004352468065917, 129.6788962678425 22.355663929134607, 130.41110160760581 43.28570074029267 M131.57172814104706 -0.11090351734310389 C131.4170985795371 7.795986063405872, 130.27620842827483 16.41440728325397, 131.63828498218209 42.65437491144985 M129.5201413910836 43.745088996365666 C101.65025076353922 41.10296401570551, 68.40392390247433 41.44137337992899, 1.843729941174388 40.68799042887986 M130.79074674937874 41.136339261196554 C92.02422660859301 43.20059222557582, 53.48494130820035 42.82506439664401, -0.20238783862441778 42.53664176072925 M0.9189104717224836 42.72738051600754 C-0.7305620533041657 28.353691432811317, 1.8782055157609283 14.588402694463728, 0.6954695265740156 -0.9904827456921339 M0.15242835972458124 41.869352265261114 C-0.6585183972679078 29.338848349452018, 0.004109746757894717 15.606484959460794, -0.13022553827613592 -0.11695812735706568" stroke="#000000" stroke-width="1" fill="none"></path></g><g transform="translate(720 100.5) rotate(0 51.5 13)"><text x="0" y="18" font-family="Virgil, Segoe UI Emoji" font-size="20px" fill="#000000" text-anchor="start" style="white-space: pre;" direction="ltr">Operations</text></g><g transform="translate(757 135.5) rotate(0 10.5 13)"><text x="10.5" y="18" font-family="Virgil, Segoe UI Emoji" font-size="20px" fill="#c92a2a" text-anchor="middle" style="white-space: pre;" direction="ltr">{}</text></g><g transform="translate(253.5 63) rotate(0 167 29)"><path d="M-0.30038507586297614 -1.2146385817223944 C77.24041466545066 0.5112330285125432, 155.41848171458062 -0.9067371195078912, 333.0628598458934 -0.3984620791772522 M-0.5534459155788023 0.386844295634057 C121.59616251445303 1.2466495242476412, 242.8478430296331 0.4746972356081316, 333.5673549860863 0.4318781718419928 M332.5741028804332 -1.4798586089164019 C335.35727234186606 22.386318053491408, 333.64910997452216 40.87605848237871, 334.37533599324524 59.843729941174374 M334.98684076871723 -0.2092532506212592 C333.1322770744748 13.827649462595579, 333.9037686318345 28.091787016205483, 333.53230298962444 57.79761216137557 M335.0928475012943 58.621755776326175 C216.36832743304942 58.205011698768246, 97.71058716290405 59.97016331589826, -0.1639911373176776 58.47057053838517 M334.02562552287924 58.103136503556236 C250.25266261696595 58.53400035262162, 167.21960038660615 58.982349662791165, 0.3501470744428675 57.91188643166008 M0.27373802848160267 59.60837283544241 C1.5828837199322878 42.33397944625466, -0.23784654902294278 25.1415238469839, 1.3427361864596605 -0.781543405726552 M-0.8883989015594125 58.09662282560019 C0.47673370113596314 45.747666169702995, 0.6268053518794476 33.913358904980115, -0.978680775500834 0.1002857992425561" stroke="#862e9c" stroke-width="1" fill="none"></path></g><g transform="translate(261.5 66) rotate(0 159.5 25.5)"><text x="0" y="17.5" font-family="Virgil, Segoe UI Emoji" font-size="20px" fill="#862e9c" text-anchor="start" style="white-space: pre;" direction="ltr">The key "Bob" existe in current</text><text x="0" y="43" font-family="Virgil, Segoe UI Emoji" font-size="20px" fill="#862e9c" text-anchor="start" style="white-space: pre;" direction="ltr"> storage and new storage</text></g><g transform="translate(96.5 278) rotate(0 29.5 14)"><path d="M-1.0079694706946611 0.30568009801208973 C11.359416902717204 1.030953305484727, 25.08046958167106 0.2533233935851604, 59.35618075542152 1.2012449521571398 M60.34301614947617 0.7325513642281294 C59.857528875805436 8.991229207813742, 56.98945439908653 22.381283317878847, 58.91451293416321 29.45384499244392 M58.63799580745399 29.69562161155045 C46.923501883540304 28.753563394872472, 33.71080658938736 28.384706905214117, 0.4938128273934126 28.838991107419133 M1.0312803406268358 28.933322397992015 C0.33684281270951033 21.694348765164612, 0.9269191996380687 14.355977473035454, -0.43878590874373913 -0.6346009690314531" stroke="#862e9c" stroke-width="1.5" fill="none" stroke-dasharray="12 8"></path></g><g transform="translate(794.5 280) rotate(0 28.5 15)"><path d="M-0.6387058217078447 1.0312803406268358 C20.424447054136547 0.2657610578741878, 39.59224279802293 0.8558374448027462, 57.18726691417396 -0.43878590874373913 M56.16789007373154 1.2217490952461958 C55.92707021152601 6.432562659494579, 57.34369422113523 16.338229052722454, 56.12473231740296 31.95369335822761 M57.03524407558143 31.26677239127457 C43.88362845061347 30.756433967063202, 30.641038017906247 31.10391658873297, 1.947610167786479 31.09040922112763 M1.663618864491582 30.546207873150706 C-2.0775336070917545 24.104258553124964, -1.6353759213350714 15.782638136297464, 1.281046511605382 1.3961617033928633" stroke="#862e9c" stroke-width="1.5" fill="none" stroke-dasharray="12 8"></path></g><g><g transform="translate(98.5 277) rotate(0 68.65705301012696 -79.92716483585535)"><path d="M0.8440092097967862 1.1685661006718873 C-0.6528698075562716 -14.97848054878414, -34.09027190891405 -69.48198185674846, -8.345754467323422 -96.51389216892422 C17.398762974267207 -123.54580248109997, 127.92045956167081 -150.1631652545184, 155.31111385934054 -161.0228957723826" stroke="#862e9c" stroke-width="1.5" fill="none" stroke-dasharray="12 8"></path></g></g><g><g transform="translate(588.5 99) rotate(0 149.87284973635354 78.71551518191993)"><path d="M-1.0092954229563473 0.30063847415149203 C17.139896734901104 -4.13333249775072, 64.33561121431944 -29.85807272878786, 109.52440824678739 -26.221256779506803 C154.71320527925533 -22.584440830225745, 238.86159950222728 -4.425314306095242, 270.1234867718513 22.121534169837833 C301.3853740414753 48.668382645770905, 305.20632432981955 106.09456684303781, 297.0957318645314 133.05983407609165 C288.9851393992432 160.0251013091455, 234.2970876817744 175.56442472251751, 221.45993198012215 183.9131375681609" stroke="#862e9c" stroke-width="1.5" fill="none" stroke-dasharray="12 8"></path></g></g><g transform="translate(255.5 143) rotate(0 167 29)"><path d="M0.8930709102149285 0.43407338481543883 C70.00749100223467 -0.6186662659496791, 141.82790801147013 -0.8120785628829248, 333.29906559439576 -0.9582017210966027 M-0.38682867789513653 -0.5243218761364083 C114.70982499742631 -0.020891151710295153, 228.8438577881572 -0.2027891723204011, 334.65790096174106 -0.43041659623088646 M335.1229508537799 1.9606628101319075 C333.2536896431632 14.422573633678256, 334.55923539044335 29.594168829172848, 334.939917685464 56.76659503392874 M333.99785865750164 0.6352562615647912 C334.4783242738433 11.897014165297147, 333.9608725404926 24.480153637938194, 333.8298113187775 58.822168708778904 M334.66875468723333 59.13696504019524 C203.75913666283648 61.264857105263616, 73.97273690375106 61.179451404193706, 0.24376816343841923 57.10927973593573 M333.9025582039795 58.268769894265176 C249.78910875430324 57.32088201395676, 165.2288889690355 58.35527970765864, -0.5424069065101702 58.07208464757539 M1.4657782930880785 56.5839856546372 C-0.5592805133946239 38.70612456854432, -0.4836122380383312 14.429915627837175, 1.0735814590007067 -1.1493925768882036 M0.9734776755794883 58.740877897478626 C0.6185745208524168 35.73958878666161, 0.1760529785417021 12.536548920534543, -0.6787634650245309 -0.5912201991304755" stroke="#087f5b" stroke-width="1" fill="none"></path></g><g transform="translate(263.5 146) rotate(0 148 25.5)"><text x="0" y="17.5" font-family="Virgil, Segoe UI Emoji" font-size="20px" fill="#087f5b" text-anchor="start" style="white-space: pre;" direction="ltr">Keys of the current storage </text><text x="0" y="43" font-family="Virgil, Segoe UI Emoji" font-size="20px" fill="#087f5b" text-anchor="start" style="white-space: pre;" direction="ltr">exist in the new storage</text></g><g transform="translate(91.5 241) rotate(0 43 36.5)"><path d="M-0.4135007243603468 -0.09346559830009937 C34.4136344878003 -0.2815981264598667, 67.78209240809083 0.30450251145288354, 85.26292503066361 0.6541551630944014 M87.31893113069236 -1.8753903489559889 C86.41265813081526 22.686498641688374, 87.05419967143797 51.08035975452512, 85.44185897521675 74.97459268756211 M85.37638127990067 74.30076208524406 C63.16304518077522 72.80456225277857, 39.525516653060905 72.39140484930948, 1.8516370672732592 73.37287434749305 M0.47120210342109203 74.39673423953354 C1.7901123838219792 54.105933071207254, 0.11055750415660437 37.9979951383546, 1.3906063120812178 1.9572904724627733" stroke="#087f5b" stroke-width="1.5" fill="none" stroke-dasharray="12 8"></path></g><g transform="translate(788.5 249) rotate(0 42 33.5)"><path d="M1.6266783494502306 1.3906063120812178 C34.54289187192917 0.33524916004389527, 64.02661218456925 1.433306966535747, 83.20378655381501 1.9807392042130232 M83.02581378631294 -0.9427208881825209 C86.29236173485405 21.613890447374434, 85.45458847139962 42.43881423715502, 85.95493784360588 65.8046486992389 M83.64980811066926 66.8873101156205 C62.517675081640476 66.03397886905819, 42.08323683105409 66.87112091932445, -0.5750226955860853 66.07946136407554 M0.025006679818034172 66.09744149632752 C0.4645107768010348 45.33165054777637, -0.5907822467852384 22.905766291730103, 0.12383708171546459 1.7397714871913195" stroke="#087f5b" stroke-width="1.5" fill="none" stroke-dasharray="12 8"></path></g><g><g transform="translate(165.5 241) rotate(0 44.838223583623744 -28.009394897148013)"><path d="M-0.11343769915401936 1.0488241363316775 C14.971078241989018 -8.38218094818294, 74.73631947152316 -47.22279010526836, 89.78988486640155 -57.0676139306277" stroke="#087f5b" stroke-width="1.5" fill="none" stroke-dasharray="12 8"></path></g></g><g><g transform="translate(589.5 180) rotate(0 98.55140147339552 34.30052227545529)"><path d="M0.37923769243061534 -1.0173486817628146 C33.16018859713028 10.397105409018694, 163.871496567068 57.67745560612529, 196.72356525436044 69.6183932326734" stroke="#087f5b" stroke-width="1.5" fill="none" stroke-dasharray="12 8"></path></g></g><g transform="translate(259.5 225) rotate(0 213 57)"><path d="M0.5521413959845893 0.8629751721105107 C100.33290867229378 -0.2743239515380901, 202.10798260195915 0.1572763070075709, 425.6596410078884 -0.6579370179019205 M0.19135885790959634 0.19429575412487352 C105.53179523510441 1.6095127386097565, 212.01466530493877 2.436086335029103, 425.8582767165346 0.20149664124668204 M426.2220760267228 -0.16811406426131725 C426.87967067336666 31.121929503045976, 424.0360418496095 59.4557982198894, 427.7625396531075 113.55159515328705 M426.49707952234894 0.5256233057007194 C427.14972464641556 29.33973389901221, 426.2108227153681 58.38759292829782, 425.7555385241285 113.60009820666164 M426.0159039184918 113.52711991901474 C282.65033640982335 114.49119487808477, 140.62363764567317 114.9854481116228, 0.08084806144882366 112.96886219616692 M426.06514382023425 113.66137452697365 C295.5171516854718 115.65935036854975, 164.84546299190848 115.46069337436012, -0.34326381697740516 114.40810588367476 M-1.8888464290648699 113.49402260966599 C-0.3595401155017317 72.79652809221298, -2.068079064991325 29.31143782585859, 0.5139180701225996 -0.6608371119946241 M-0.10225871112197638 113.86975543107837 C1.4657902310974895 74.83705202713608, -0.17398793591186412 36.734080945886674, 0.7938059577718377 -0.19261239562183619" stroke="#e67700" stroke-width="1" fill="none"></path></g><g transform="translate(267.5 228) rotate(0 208 51)"><text x="0" y="18.5" font-family="Virgil, Segoe UI Emoji" font-size="20px" fill="#e67700" text-anchor="start" style="white-space: pre;" direction="ltr">For "Bob", number of votes </text><text x="0" y="44" font-family="Virgil, Segoe UI Emoji" font-size="20px" fill="#e67700" text-anchor="start" style="white-space: pre;" direction="ltr">is incremented (old value + 1 = new value).</text><text x="0" y="69.5" font-family="Virgil, Segoe UI Emoji" font-size="20px" fill="#e67700" text-anchor="start" style="white-space: pre;" direction="ltr">For others, number of votes </text><text x="0" y="95" font-family="Virgil, Segoe UI Emoji" font-size="20px" fill="#e67700" text-anchor="start" style="white-space: pre;" direction="ltr">do not change</text></g><g transform="translate(181.5 278) rotate(0 18 13.5)"><path d="M19.104166984216356 0.8019758047996586 C22.646735158793295 0.6446809150615742, 26.995805067621756 1.9642072822955736, 29.77079416314066 3.895440672198598 C32.54578325865957 5.826674062101622, 35.236373721707466 9.504242017007893, 35.75410155732979 12.389376144217804 C36.271829392952114 15.274510271427715, 35.056674324003694 18.742249499545867, 32.8771611768746 21.20624543545806 C30.69764802974551 23.670241371370256, 26.18607304531057 26.285511822240682, 22.67702267455522 27.173351759690973 C19.16797230379987 28.061191697141265, 15.107919751728017 27.607863119244833, 11.822858952342497 26.533285060159802 C8.537798152956976 25.45870700107477, 4.934213849671536 23.505349700718387, 2.966657878242094 20.72588340518078 C0.9991019068126512 17.946417109643175, -0.6714250349678403 12.664140652437638, 0.017523123765840865 9.856487286934172 C0.7064712824995221 7.048833921430706, 3.558118018026633 5.454143359905736, 7.100346830644181 3.879963212159989 C10.64257564326173 2.3057830644142427, 18.482768878631113 0.7370478279501753, 21.27089599947113 0.4114064004596951 C24.059023120311146 0.08576497296921498, 23.91411749957382 1.5694177378589247, 23.829109555684283 1.9261146472171085" stroke="#e67700" stroke-width="1.5" fill="none" stroke-dasharray="12 8"></path></g><g transform="translate(193.5 329) rotate(0 20 20.5)"><text x="0" y="14.5" font-family="Virgil, Segoe UI Emoji" font-size="16px" fill="#e67700" text-anchor="start" style="white-space: pre;" direction="ltr">old</text><text x="0" y="35" font-family="Virgil, Segoe UI Emoji" font-size="16px" fill="#e67700" text-anchor="start" style="white-space: pre;" direction="ltr">value</text></g><g><g transform="translate(202.5 306) rotate(0 0.2568689282924197 12.288784034177667)"><path d="M0.7165568400174378 0.11522448174655442 C0.6332132189224162 4.035290603960553, -0.3108270040402809 20.269687971596916, -0.19904161207377902 24.462343586608768" stroke="#e67700" stroke-width="1.5" fill="none" stroke-dasharray="12 8"></path></g></g><g><g transform="translate(216.5 293) rotate(0 21.02006556876006 -10.314930384233605)"><path d="M0.0060210753232241565 0.24332692734897132 C7.119458358362317 -3.1255834925919777, 35.20899103172124 -17.293907784298064, 42.03411006219685 -20.87318769581616" stroke="#e67700" stroke-width="1.5" fill="none" stroke-dasharray="12 8"></path></g></g><g transform="translate(862.5 283) rotate(0 26.5 16)"><path d="M19.152519598881703 0.9683017983680351 C24.540036810595506 0.12799060808349783, 33.58228616775087 0.80566295771951, 38.74085059921421 2.1980699964317214 C43.89941503067755 3.590477035143933, 47.936729397774386 6.1475482663945815, 50.10390618766173 9.322744030641303 C52.27108297754907 12.497939794888024, 53.20632931989194 18.01789528218983, 51.743911338538275 21.249244581912052 C50.28149335718461 24.480593881634274, 45.960467868489815 26.887703648764095, 41.329398299539726 28.710839828974628 C36.69832873058964 30.53397600918516, 29.711818125991574 32.57579038170402, 23.957493924837728 32.18806166317525 C18.20316972368388 31.800332944646474, 10.922597843221396 29.024579608972246, 6.803453092616646 26.384467517801994 C2.684308342011895 23.744355426631742, -0.3309337191188468 19.58516118202384, -0.7573745787907775 16.347389116153742 C-1.1838154384627082 13.109617050283646, -0.16181496610812562 9.713652386082021, 4.244807934585062 6.957835122581416 C8.651430835278248 4.2020178590808115, 21.486346321244753 0.8661467764906847, 25.682362825368344 -0.18751446484988676 C29.878379329491935 -1.2411757061904582, 29.491869953619933 0.490174243821904, 29.42090695932661 0.6358676745379874" stroke="#e67700" stroke-width="1.5" fill="none" stroke-dasharray="12 8"></path></g><g><g transform="translate(683.5 271) rotate(0 105.1407205533236 48.2290128055364)"><path d="M-0.9009059417992831 0.3692834068089723 C10.578307061518233 14.326833213244873, 41.492623608435196 67.43420277523498, 67.87933007590473 82.74209399707615 C94.26603654337427 98.04998521891733, 133.53549670092764 98.694583810245, 157.41933286301793 92.21663073785604 C181.30316902510822 85.73867766546707, 202.08843766960004 51.841415930663544, 211.18234704844653 43.87437556274235" stroke="#e67700" stroke-width="1.5" fill="none" stroke-dasharray="12 8"></path></g></g><g transform="translate(311.5 370) rotate(0 156 41.5)"><path d="M1.0811680608791343 -1.1148565033040156 C92.26396622104386 -0.7228316535089125, 180.9287356006414 -0.7790548415006509, 313.16220323305555 -1.1615819747255198 M0.3971671547804657 -0.21739879213840996 C88.37158332261623 0.5074802069305546, 176.58787345933055 0.7534574143596895, 311.74658319948924 0.28228254578620154 M312.7091609854251 -0.09007254429161549 C312.6561652627122 16.641591469291605, 311.03025730515833 33.45806192513557, 310.5481729526073 81.85659530572597 M311.9487998029217 0.5152868339791894 C311.0298599388544 20.49604041548447, 311.695023485655 38.16041921824219, 311.0141451796517 82.80196696612988 M311.02408298775117 83.19316733573206 C195.30264225178843 85.98829312905264, 79.20069899595191 85.66055005611675, 1.3793934446184388 83.2820099766656 M311.5569952457516 83.22365967442111 C208.84699938047814 82.24935605028567, 105.7775159166272 82.23297904297253, -0.35826849801543315 83.50886269702514 M-1.0299589019268751 81.8538450878114 C1.2629779558349399 55.10513282855975, 1.0060694794822482 24.622257285006356, 1.6465202588588 -0.8205846268683672 M-0.9691167930141091 82.763284415938 C-1.1151017299387607 50.685065837856406, -1.3326495936606082 20.0603089068085, -0.8858900228515267 -0.797293066047132" stroke="#364fc7" stroke-width="1" fill="none"></path></g><g transform="translate(330.5 374) rotate(0 137.5 38.5)"><text x="0" y="17.666666666666668" font-family="Virgil, Segoe UI Emoji" font-size="20px" fill="#364fc7" text-anchor="start" style="white-space: pre;" direction="ltr">only the storage is modified</text><text x="0" y="43.333333333333336" font-family="Virgil, Segoe UI Emoji" font-size="20px" fill="#364fc7" text-anchor="start" style="white-space: pre;" direction="ltr">            =</text><text x="0" y="69" font-family="Virgil, Segoe UI Emoji" font-size="20px" fill="#364fc7" text-anchor="start" style="white-space: pre;" direction="ltr">No operations are produced</text></g><g transform="translate(743.5 130) rotate(0 24 18)"><path d="M-1.91522422619164 -1.788622496649623 C19.446428784355522 -1.3823321447521448, 38.031315971538426 1.7648864998668432, 49.33658125810325 -1.8860900979489088 M47.56320291943848 -0.6318757850676775 C47.08300552826375 12.97100662663579, 49.42963556509465 22.9303019259125, 47.82373511977494 35.51796665601432 M47.832400826737285 37.82030743546784 C34.215931546315545 34.563435370847586, 18.820438141748305 36.227032418176535, -1.9979183990508318 34.480959417298436 M-1.6458164434880018 34.79445639066398 C-1.1189540525898338 29.315455783903598, 0.07663495335727932 21.686703513935207, -1.0669229608029127 -1.4382409173995256" stroke="#364fc7" stroke-width="1.5" fill="none" stroke-dasharray="12 8"></path></g><g><g transform="translate(741.5 162) rotate(0 -60.25658089034266 122.38384227268398)"><path d="M-0.6185677718371153 -0.48491434939205647 C-10.08712435476482 4.886937814081708, -42.04300921273728 -0.3643747080117521, -57.100559503957626 32.0921844612807 C-72.15810979517798 64.54874363057316, -80.49819710167746 158.72770492744945, -90.9638695191592 194.25444066636265 C-101.42954193664094 229.78117640527586, -115.02211375546952 236.94690973075728, -119.89459400884807 245.25259889476" stroke="#364fc7" stroke-width="1.5" fill="none" stroke-dasharray="12 8"></path></g></g><g transform="translate(233.5 43) rotate(0 229 216.5)"><path d="M0.2843737028466336 -0.8725850901474228 C171.27308822509946 1.657579432687878, 344.07256368681686 1.659158753384876, 457.07484678887994 -0.650345175737094 M457.78518296690146 -0.12963190090507268 C460.02608890098674 90.48674695214721, 460.0667209508269 182.24127195496754, 457.34947336525005 431.97962358521283 M457.20642235659864 433.8100089734662 C360.4436032074595 434.35637487816217, 263.9971405117253 434.87933198517123, -0.32574749239076445 433.0218108054066 M0.6921711890201926 432.5957083937181 C-0.6117182695115849 295.8639048779051, -0.5457822864560887 158.96109025600074, -0.13626900048519372 -0.5879048207865119" stroke="#000000" stroke-width="1.5" fill="none" stroke-dasharray="3 6"></path></g><g transform="translate(239.5 10) rotate(0 25.5 13)"><text x="0" y="18" font-family="Virgil, Segoe UI Emoji" font-size="20px" fill="#000000" text-anchor="start" style="white-space: pre;" direction="ltr">Rules</text></g></svg>