<svg version="1.1" xmlns="http://www.w3.org/2000/svg" viewBox="0 0 1711.7857142857147 707.4285757882257" width="1711.7857142857147" height="707.4285757882257">
  <!-- svg-source:excalidraw -->
  
  <defs>
    <style>
      @font-face {
        font-family: "Virgil";
        src: url("https://excalidraw.com/Virgil.woff2");
      }
      @font-face {
        font-family: "Cascadia";
        src: url("https://excalidraw.com/Cascadia.woff2");
      }
    </style>
  </defs>
  <rect x="0" y="0" width="1711.7857142857147" height="707.4285757882257" fill="#ffffff"></rect><g transform="translate(792.595220656622 351.2182626875622) rotate(0 79.66666666666674 19.5)"><path d="M0.4776634927839041 1.2944601718336344 C46.85193149925526 -1.2272067162829134, 92.61509072581939 0.8310152795476224, 160.45243095917024 -0.03850323520600796 M0.19145241100341082 -0.40066845435649157 C58.36869561175512 -0.49325334565713974, 118.14411100031201 0.4392412052862349, 159.8506012133635 -0.9621630730107427 M159.43469881576814 1.013202602043748 C159.2685835980098 10.078442530240864, 159.24068749176666 16.96807859186083, 161.00610082907 37.15978669561446 M158.4685027770079 -0.23578439373522997 C159.44625121552826 9.678942910116167, 159.93405667145134 20.410094583779575, 158.38122944751152 39.99332748632878 M158.49814956945696 39.84453391470015 C95.51318810426952 40.912075742973634, 32.73340203886234 41.298479959263155, -1.8485233429819345 40.92971091903746 M158.7348411551989 39.184069263748825 C102.17043998974076 38.629962787820645, 45.84001423474405 38.54671217580015, 0.6570355864241719 38.76479228120297 M-1.1489398125559092 38.52630811370909 C-1.5768887452501803 27.642179741803556, -1.8790730289835482 12.080616448633371, 1.353503918275237 -1.0123609360307455 M-0.9189257649704814 39.53439910989255 C-0.11297364852391184 25.906171836797146, 0.3523994801286608 13.598214148357506, -0.3566992012783885 -0.2271449090912938" stroke="#d9480f" stroke-width="1" fill="none"></path></g><g transform="translate(799.095220656622 358.2182626875622) rotate(0 75 13)"><text x="75" y="18" font-family="Virgil, Segoe UI Emoji" font-size="20px" fill="#d9480f" text-anchor="middle" style="white-space: pre;" direction="ltr">smart contract</text></g><g><g transform="translate(868.3255037567516 556.2182626875622) rotate(0 -17.550004564854646 -42.64729943986052)"><path d="M19.48369404341161 -0.7093041334301233 C10.283415122362362 -3.352255872264504, -24.5286065987695 -5.065937756871184, -36.263611356491516 -14.763185480609536 C-47.99861611421353 -24.460433204347886, -59.185514515495534 -46.88210370081166, -50.92633450292051 -58.89279047586024 C-42.66715449034549 -70.90347725090881, 2.556032260579979 -82.29494869646926, 13.291468718958635 -86.82730613090098 M18.136893314431155 1.5327072511799633 C8.770878222970797 -0.9809264023415745, -25.800356221535424 -6.831978291006138, -37.43206484299741 -16.761432606708258 C-49.0637734644594 -26.690886922410378, -60.228137743870406 -46.477960584095364, -51.653358414340765 -58.04401864303276 C-43.078579084811125 -69.61007670197014, 3.308419272879128 -81.54147800418859, 14.016611134180415 -86.1577809603326" stroke="#d9480f" stroke-width="1" fill="none"></path></g><g transform="translate(868.3255037567516 556.2182626875622) rotate(0 -17.550004564854646 -42.64729943986052)"><path d="M-10.509030691535973 -68.01385638104702 C-2.746163645342552 -72.3652887355103, 1.7290375379139444 -76.1021230997912, 12.637767582678784 -84.31485549559817 M-8.381550817007028 -66.43283299436743 C-2.6999679533532133 -73.57370494551063, 4.775930641650495 -78.46104782995293, 14.314987920702983 -85.2119187294878" stroke="#d9480f" stroke-width="1" fill="none"></path></g><g transform="translate(868.3255037567516 556.2182626875622) rotate(0 -17.550004564854646 -42.64729943986052)"><path d="M-17.160150122218393 -87.42732110799976 C-7.408699168804553 -86.50312122415961, -1.1219850912953362 -84.95246345399437, 12.637767582678784 -84.31485549559817 M-15.032670247689449 -85.84629772132017 C-7.216817077959378 -87.3442119012119, 2.2062327115745095 -86.54815796395903, 14.314987920702983 -85.2119187294878" stroke="#d9480f" stroke-width="1" fill="none"></path></g></g><g><g transform="translate(886.5952206566222 470.2182626875622) rotate(0 28.310177432123282 43.05023764510639)"><path d="M0.03372729755938053 0.850380488857627 C7.904455233160138 4.591900770490368, 38.99269678290025 12.166444568460184, 47.891452829426406 22.519574626907705 C56.79020887595256 32.872704685355224, 61.02940557231099 52.41421511235336, 53.4262635767163 62.969160839542745 C45.82312158112161 73.52410656673213, 10.77569250168501 82.230536910519, 2.272600855858286 85.849248990044 M-1.4077046005614102 0.25122630016878267 C6.779332633912294 4.148912477859607, 41.07688596398592 13.2224047551242, 50.139610630216325 23.804776557255536 C59.202335296446726 34.38714835938687, 60.94357603098169 53.7564256059813, 52.96864339682099 63.74545711295679 C44.993710762660285 73.73448861993228, 10.378430415766672 80.21238754646852, 2.290014825252106 83.73896559910848" stroke="#d9480f" stroke-width="1" fill="none"></path></g><g transform="translate(886.5952206566222 470.2182626875622) rotate(0 28.310177432123282 43.05023764510639)"><path d="M27.65436517228723 64.1962098812745 C16.931622914786637 73.07899291968555, 7.498924850702249 77.79809919863524, 3.705429808658769 83.2356296221353 M26.284582896766963 65.43598824255774 C20.118960669612694 70.34872966009321, 13.454907486603448 75.97654240569624, 2.6901508369047544 84.70438408410176" stroke="#d9480f" stroke-width="1" fill="none"></path></g><g transform="translate(886.5952206566222 470.2182626875622) rotate(0 28.310177432123282 43.05023764510639)"><path d="M33.66723952628771 83.81674362500438 C20.794857295158486 85.72434252473616, 9.224038626028278 83.46657468165222, 3.705429808658769 83.2356296221353 M32.297457250767444 85.05652198628762 C24.607343577836872 84.59251406177934, 16.299053208635595 84.85503738088497, 2.6901508369047544 84.70438408410176" stroke="#d9480f" stroke-width="1" fill="none"></path></g></g><g transform="translate(828.9285539899553 489.8849293542289) rotate(0 52.5 25.5)"><text x="0" y="17.5" font-family="Virgil, Segoe UI Emoji" font-size="20px" fill="#d9480f" text-anchor="start" style="white-space: pre;" direction="ltr">Michelson </text><text x="0" y="43" font-family="Virgil, Segoe UI Emoji" font-size="20px" fill="#d9480f" text-anchor="start" style="white-space: pre;" direction="ltr">interpreter</text></g><g transform="translate(786.595220656622 317.2182626875622) rotate(0 92.5 129)"><path d="M-0.4408301170915365 0.6894178744405508 C61.107598179485656 1.6423922460991889, 125.54310571495445 0.8255061191041022, 186.19810741581023 1.8430685754865408 M184.32187666262413 -0.8395176700980506 C184.23663835991667 61.10165857659989, 185.19026767677926 122.90750876096034, 184.3028198375528 259.4564201103471 M183.38354128040373 257.9211463686079 C116.3324815132655 255.78360592084937, 45.98887452017513 259.42402760940604, 0.43195795454084873 257.04242364130914 M1.2637542049029789 258.10760087169865 C-0.2504419971584604 171.2468351223832, -0.5841546507723854 82.23940545118437, -1.5865319745667255 -0.1142787104134403" stroke="#d9480f" stroke-width="1.5" fill="none" stroke-dasharray="12 8"></path></g><g transform="translate(614.595220656622 483.2182626875622) rotate(0 49.5 16.5)"><path d="M-1.7794313486665487 1.0693685170263052 C33.73657106431201 -1.083022893378511, 70.45886658336967 0.8829545965697616, 100.66051250137389 -1.4010461810976267 M-0.39427555818110704 -0.07546896021813154 C19.331792881060395 1.427639777334407, 39.99730204753578 -0.08106431874446574, 99.75393708329648 -0.7030521957203746 M100.44924836792052 0.6679678913205862 C98.57051156763919 11.585752721037718, 97.1377305269707 26.904757872410123, 98.9186664763838 34.94948152266443 M99.82005270104855 0.7639323147013783 C98.67528552531265 9.071628633048388, 98.39904270290397 17.501606025919322, 98.85402564983815 32.67214333731681 M97.37462341226637 34.4467335101217 C68.26601444883272 32.838431850234045, 38.69389878679067 33.33529694394208, -0.11665756069123745 33.82288787327707 M98.81272702198476 33.14607822615653 C60.6204265630804 33.599131196839735, 22.92414642125368 33.177125632865355, 0.7368242917582393 32.245387461967766 M1.2540790382772684 32.649256682023406 C1.5712871218752116 21.057449970487504, -0.6503771280217916 12.878460260294379, 0.9154412690550089 1.2654985543340445 M-0.531761628575623 32.33442702610046 C0.28298080229200423 24.248523769248276, 0.7868302192632108 17.51054855957627, 0.969441163353622 -0.10560375731438398" stroke="#364fc7" stroke-width="1" fill="none"></path></g><g transform="translate(616.095220656622 486.7182626875622) rotate(0 48 13)"><text x="48" y="18" font-family="Virgil, Segoe UI Emoji" font-size="20px" fill="#364fc7" text-anchor="middle" style="white-space: pre;" direction="ltr">entrypoint</text></g><g transform="translate(615.095220656622 529.7182626875622) rotate(0 49.5 16.5)"><path d="M0.8228878732770681 1.6205309573560953 C28.906442626100034 0.6068044607434422, 56.138654224015774 0.3499019448552281, 97.68410960398614 0.654694015160203 M-0.7546125380322337 0.09817664604634047 C22.52217000378296 -0.4240837333817036, 47.50161692090333 -0.9048277078289539, 99.6346489759162 -0.8592835487797856 M100.26549855433404 -1.1192837413400412 C98.10838208536617 9.149190509412438, 97.99033705334179 15.32604526858777, 99.25395379029214 31.603411192074418 M98.89439624268562 0.40103067737072706 C99.35540839270689 12.84033560017124, 99.1075265927706 23.319697705283765, 98.25631114561111 32.39530979376286 M98.9544986244291 32.60309981741011 C60.640644404757765 33.10994956581853, 21.416731209866697 35.4663855203893, 1.1179778929799795 34.91087203659117 M98.57208105642349 32.92467461805791 C70.73330072546378 34.853443625019864, 42.670487992465496 33.558126362608746, -0.1187107590958476 32.71294768434018 M0.1354325171560049 34.4630356375128 C-1.8946707999240608 22.87297236388549, 1.7403397405613212 15.564458543993531, 0.13696072064340115 -0.7690538223832846 M0.8377985926344991 32.375865059904754 C0.2331434991117567 21.77004957301542, -0.8945925030950457 9.270636483281852, 0.27694776374846697 0.5455039022490382" stroke="#2b8a3e" stroke-width="1" fill="none"></path></g><g transform="translate(626.095220656622 533.2182626875622) rotate(0 38.5 13)"><text x="38.5" y="18" font-family="Virgil, Segoe UI Emoji" font-size="20px" fill="#2b8a3e" text-anchor="middle" style="white-space: pre;" direction="ltr">storage</text></g><g transform="translate(605.595220656622 471.2182626875622) rotate(0 60 51.5)"><path d="M0.3690857235342264 0.13696072064340115 C24.3904964607209 -0.09402161613106741, 51.223119737580426 0.812459947913885, 121.675597185269 -1.2482698801904917 M118.76067522726953 0.5538955274969339 C121.4256549468357 34.875489549245685, 121.64420735743828 71.45666036847979, 121.55970404110849 103.47376834787428 M119.93590592779219 101.11504045687616 C75.48637243174016 102.8407327502966, 31.18600313551724 104.88573550879956, 0.7772017065435648 103.30357656441629 M-1.976170802488923 103.25919305719435 C-0.12188400042243297 63.835713195148855, 1.6811734913568945 22.31054304074496, 0.4220763798803091 -1.9510667975991964" stroke="#000000" stroke-width="1.5" fill="none" stroke-dasharray="12 8"></path></g><g><g transform="translate(929.5952206566222 516.2182626875622) rotate(0 73.15293110529888 -0.5715044275235357)"><path d="M0.7105806324630974 -0.3622903738170862 C25.066148274516063 -0.28997416831552975, 122.37247637646892 0.5405018653720617, 146.68136547543108 0.5928645338863134 M-0.3755032648332417 -1.5980967654101552 C23.833716100485375 -1.8934468038193883, 121.67940760516251 -1.6921578670851887, 146.0910368864052 -1.2184563346020878" stroke="#000000" stroke-width="1" fill="none"></path></g><g transform="translate(929.5952206566222 516.2182626875622) rotate(0 73.15293110529888 -0.5715044275235357)"><path d="M117.20357884970045 9.918935936840839 C128.55887070972062 6.098454406462606, 137.2671891997939 2.8206739489302226, 145.15555509408935 -1.8600532125495375 M118.52663086206204 8.962624642963178 C129.20120812136545 5.7283342397960695, 139.27572576652597 2.1031729324136235, 146.1530805411376 -0.3091987466253341" stroke="#000000" stroke-width="1" fill="none"></path></g><g transform="translate(929.5952206566222 516.2182626875622) rotate(0 73.15293110529888 -0.5715044275235357)"><path d="M117.3916714904465 -10.601410637823452 C128.70913049476533 -7.327647622971638, 137.35243226157033 -3.5122973268374986, 145.15555509408935 -1.8600532125495375 M118.71472350280808 -11.557721931701114 C129.45401361158866 -7.1198264934952205, 139.4582118392944 -3.073348913905498, 146.1530805411376 -0.3091987466253341" stroke="#000000" stroke-width="1" fill="none"></path></g></g><g><g transform="translate(726.595220656622 522.2182626875622) rotate(0 48.829704155586626 1.3272971221338992)"><path d="M-0.8739978935569525 0.8476801123470066 C15.594802944796777 0.8793297423453393, 81.9594650618111 1.2699059687710132, 98.53340620473026 1.3291972766257913 M0.8680144829861822 0.24710822599008697 C17.270327951206514 0.9169141466387876, 81.76163274302456 2.116045824099961, 97.98787986984475 2.407486018277714" stroke="#000000" stroke-width="1" fill="none"></path></g><g transform="translate(726.595220656622 522.2182626875622) rotate(0 48.829704155586626 1.3272971221338992)"><path d="M71.02281664295091 13.416556101443305 C75.91268089000626 10.990850722856976, 83.55569591024366 5.946875549747967, 98.49857907680793 2.3689053380116913 M70.15165428148552 11.538205805385545 C81.17712989470927 8.47597324631763, 91.85155735945919 5.242595812216145, 98.5444619807787 3.182562911435971" stroke="#000000" stroke-width="1" fill="none"></path></g><g transform="translate(726.595220656622 522.2182626875622) rotate(0 48.829704155586626 1.3272971221338992)"><path d="M71.40686039498398 -7.101058593797564 C76.38525086498463 -3.8519931295391006, 83.92199454071354 -3.21840034788406, 98.49857907680793 2.3689053380116913 M70.53569803351859 -8.979408889855325 C81.4431481474424 -4.172121294885939, 91.97025675767657 0.46504070381733875, 98.5444619807787 3.182562911435971" stroke="#000000" stroke-width="1" fill="none"></path></g></g><g transform="translate(23.17855398995539 323.6190563383557) rotate(0 237.14285714285717 97.14285714285714)"><path d="M0.38039343161383743 0.16604943155005092 C143.0358224246035 -0.5274320188459827, 284.7904981349312 -1.4215365535839612, 473.5665942252038 0.6787808120075713 M472.85582035061503 1.5898588243871927 C476.22128576205245 66.47864632069, 474.5656392590808 133.85967663010317, 474.10256492373134 193.482862007139 M473.6893977872917 194.681518355892 C296.1678595460409 192.64838060417904, 117.38668929202558 192.9153559533375, -0.2732360489657771 194.8730883729718 M0.15945479832589626 195.32828427505282 C2.314772702274578 133.19157257010895, 0.34446135860468674 71.53739908843167, -1.4420920256525278 0.7758297268301249" stroke="#364fc7" stroke-width="1.5" fill="none" stroke-dasharray="12 8"></path></g><g transform="translate(34.607125418526806 290.33334205264146) rotate(0 49.500000000000014 13)"><text x="0" y="18" font-family="Virgil, Segoe UI Emoji" font-size="20px" fill="#364fc7" text-anchor="start" style="white-space: pre;" direction="ltr">Entrypoint</text></g><g><g transform="translate(499.13093494233635 416.71429443359386) rotate(0 59.54700885079791 34.34995115649491)"><path d="M-0.617102912440896 0.625313565507531 C19.443422445282323 12.073427652407975, 99.56746041439465 56.824520391172626, 119.7111206140368 68.07458874748225" stroke="#364fc7" stroke-width="1.5" fill="none" stroke-dasharray="12 8"></path></g></g><g transform="translate(91.9880777994793 585.5238182431176) rotate(0 138.69047619047618 50.83333333333337)"><path d="M0.6164217089636814 1.0367339573004095 C58.522348355206724 0.39634855013865755, 114.96085168198958 -0.667778764873116, 276.4340678296324 0.6288106611908695 M277.7830319575788 0.7832433339208364 C277.30751786120015 33.68854160777607, 278.91789058334905 71.57617592594282, 278.88386447949426 100.73657538058865 M275.9491005317683 102.94423527291235 C199.35194521544088 99.53408783111921, 123.24567802740721 101.51761211781599, -1.4929972907443576 102.76312628862487 M1.5436010900884867 100.83488632800686 C1.9126409075999018 71.42892257325977, 1.6558852575564142 43.68199164016795, -0.20890462957322598 -0.03537412919104099" stroke="#2b8a3e" stroke-width="1.5" fill="none" stroke-dasharray="12 8"></path></g><g transform="translate(103.17855398995545 599.1904849097843) rotate(0 135.00000000000003 38.5)"><text x="135" y="17.666666666666668" font-family="Virgil, Segoe UI Emoji" font-size="20px" fill="#2b8a3e" text-anchor="middle" style="white-space: pre;" direction="ltr">Persistent data structure </text><text x="135" y="43.333333333333336" font-family="Virgil, Segoe UI Emoji" font-size="20px" fill="#2b8a3e" text-anchor="middle" style="white-space: pre;" direction="ltr">associated to the</text><text x="135" y="69" font-family="Virgil, Segoe UI Emoji" font-size="20px" fill="#2b8a3e" text-anchor="middle" style="white-space: pre;" direction="ltr">smart contract</text></g><g><g transform="translate(377.70846935123916 599.9825084872544) rotate(0 122.8790957941896 -26.062156771762005)"><path d="M-0.8302804145962 -0.8658929731696844 C40.44480214936156 -9.253860866491273, 205.47042793694231 -42.865119348785655, 246.58847200297527 -51.25842057035432" stroke="#2b8a3e" stroke-width="1.5" fill="none" stroke-dasharray="12 8"></path></g></g><g transform="translate(563.4166492280507 222.4285801478796) rotate(0 325.71428571428567 221.42857142857142)"><path d="M-0.09086983427405358 -0.7777702428400517 C163.57327673020106 -1.6357745680851596, 325.87118565429535 -1.6807533535999912, 650.6874637717647 0.39229828342795375 M651.2254354456354 0.9620294130098506 C651.4265349217364 167.47411519768875, 651.3228880317085 335.3873838626717, 652.2814676330607 443.768384049391 M650.7763773078364 442.3947408613349 C409.3539464334291 442.73359368151847, 167.73483358270346 442.03103509253685, -0.36361587271094326 442.75535122720254 M0.592347368569993 442.39954938498994 C1.8692502065094332 309.9776612805259, 0.7739301157417942 175.35436042873266, -0.5364802287015346 -0.5187813660598797" stroke="#d9480f" stroke-width="1.5" fill="none" stroke-dasharray="12 8"></path></g><g transform="translate(566.2737920851935 193.4285801478796) rotate(0 127 13)"><text x="0" y="18" font-family="Virgil, Segoe UI Emoji" font-size="20px" fill="#d9480f" text-anchor="start" style="white-space: pre;" direction="ltr">Smart contract execution</text></g><g transform="translate(1047.7023635137648 492.42858014787964) rotate(0 61.428571428571445 77.8571428571428)"><path d="M1.440003091469407 -1.610771680250764 C39.59903303108047 -1.1323395916127736, 84.09491027598938 -1.57942705832954, 123.27532641669472 -1.861396873369813 M123.38422295158466 -1.316761201247573 C121.36086696848011 51.35143198059604, 122.73439527019596 99.63296172555, 123.59349193876346 156.0208046210131 M123.94426553031167 156.21284224438875 C87.9810781037169 153.43969223166678, 50.91925214257624 155.09523728753302, 0.27415972389280796 157.67831774401873 M0.2342266794294119 154.07032845142692 C1.8883803982420688 95.42030524741855, 1.5527126092596775 35.74891401667678, 1.4116105195134878 -0.14861256442964077" stroke="#000000" stroke-width="1.5" fill="none" stroke-dasharray="12 8"></path></g><g transform="translate(1063.4166492280506 466.2857230050224) rotate(0 31.5 13)"><text x="0" y="18" font-family="Virgil, Segoe UI Emoji" font-size="20px" fill="#000000" text-anchor="start" style="white-space: pre;" direction="ltr">output</text></g><g transform="translate(634.845220656622 444.857151576451) rotate(0 22 13)"><text x="0" y="18" font-family="Virgil, Segoe UI Emoji" font-size="20px" fill="#000000" text-anchor="start" style="white-space: pre;" direction="ltr">input</text></g><g transform="translate(1054 528.3472222222223) rotate(0 55.33333333333337 18.166666666666686)"><path d="M0.3083349782973528 -0.3622626084834337 C37.51929752180976 1.8316264903172854, 74.11493604493643 0.99173511620611, 109.78973973977077 1.8603118043392897 M-0.24521997664123774 0.9865075508132577 C27.987445489006763 -0.747593537271023, 56.35057264746482 -0.6009847375750543, 111.407689073744 -0.10738797392696142 M111.44858325707423 -0.10426444001495838 C109.66788944966167 13.148936003167194, 110.83974817759365 23.841160417906963, 111.18773121821391 36.64030106676125 M111.16767237490672 0.046542451716959476 C111.02450883430437 13.182292470180757, 110.84209671658472 27.845310898373558, 109.72593528932589 36.289017713007865 M111.39801211344707 35.10939486635232 C67.42927699709936 37.51377536285673, 24.39856258692842 35.58894212473188, 1.1139584500342607 36.221674937134026 M110.19665009683627 36.16349104636663 C87.31515008875485 35.88383434293174, 65.55208784770224 34.66663355705642, -0.8247489938512444 36.874651139912544 M1.8165946919471025 37.1757083119204 C-1.4759410823540138 24.57655252271024, 0.2936158572478843 16.134560353495196, 0.2668060380965471 -1.0057350415736437 M-0.7192304143682122 36.36200136536115 C-0.017468810575082733 25.85793078842886, 0.612140327198431 14.523035359506817, 0.34736189153045416 -0.4941339334473014" stroke="#862e9c" stroke-width="1" fill="none"></path></g><g transform="translate(1061.8333333333335 535.1805555555557) rotate(0 50 13)"><text x="50" y="18" font-family="Virgil, Segoe UI Emoji" font-size="20px" fill="#862e9c" text-anchor="middle" style="white-space: pre;" direction="ltr">operations</text></g><g transform="translate(1061.166666666667 578.1805555555557) rotate(0 49.5 16.5)"><path d="M1.2216258961707354 1.1036340575665236 C24.707130368147048 0.44306267465464766, 45.49814822208137 2.039631795538589, 98.11110726185143 0.2586368303745985 M-0.29401469323784113 -0.3832572838291526 C32.746925393585116 -1.213290959438309, 66.65956862829626 -1.0840304492320865, 99.2751105716452 -0.13759611453860998 M98.05121603794396 1.249367592856288 C99.35209100329317 10.265275449585172, 99.6500807889644 20.753471438027923, 100.63946029730141 31.38801103644073 M99.65068682935089 -0.6960604032501578 C99.63360659535043 9.461826201807709, 98.22460050637834 18.702126480266454, 99.84069126751274 32.008174107410014 M98.26626035757363 34.65372043661773 C72.27304196571932 32.123037657337264, 49.1816504323855 32.282492062645034, -1.8624429386109114 31.01691031269729 M98.54296582844108 33.50350467953831 C78.49975014952943 32.118160029565914, 55.8259793177247 33.3731739424821, -0.048158616758883 32.335410431958735 M-1.717408625409007 31.968242881819606 C-0.24758980997838081 25.68130284072831, -0.03293208607472481 14.854321829788383, 0.16380819864571095 -0.8144431728869677 M-0.16542598698288202 33.722182349301875 C0.7015291875321419 26.962429218832405, 0.5847079282719643 19.26098087504506, -0.33910143468528986 -0.765353693626821" stroke="#2b8a3e" stroke-width="1" fill="none"></path></g><g transform="translate(1072.166666666667 581.6805555555557) rotate(0 38.5 13)"><text x="38.5" y="18" font-family="Virgil, Segoe UI Emoji" font-size="20px" fill="#2b8a3e" text-anchor="middle" style="white-space: pre;" direction="ltr">storage</text></g><g transform="translate(85.66666666666663 359.33333333333337) rotate(0 115.5 20.5)"><text x="0" y="14.5" font-family="Virgil, Segoe UI Emoji" font-size="16px" fill="#364fc7" text-anchor="start" style="white-space: pre;" direction="ltr">Name of the "public" function </text><text x="0" y="35" font-family="Virgil, Segoe UI Emoji" font-size="16px" fill="#364fc7" text-anchor="start" style="white-space: pre;" direction="ltr">of the smart contract</text></g><g transform="translate(86.83333333333331 444.16666666666674) rotate(0 165.50000000000003 20.5)"><text x="0" y="14.5" font-family="Virgil, Segoe UI Emoji" font-size="16px" fill="#364fc7" text-anchor="start" style="white-space: pre;" direction="ltr">Arguments of the invoked "public" function </text><text x="0" y="35" font-family="Virgil, Segoe UI Emoji" font-size="16px" fill="#364fc7" text-anchor="start" style="white-space: pre;" direction="ltr">of the smart contract</text></g><g transform="translate(214.32141113281256 410.2619134812129) rotate(0 5 10.5)"><text x="5" y="14" font-family="Virgil, Segoe UI Emoji" font-size="16px" fill="#364fc7" text-anchor="middle" style="white-space: pre;" direction="ltr">+</text></g><g transform="translate(63.33333333333337 174.66666666666674) rotate(0 24.16666666666663 21.666666666666664)"><path d="M1.1784622985869646 1.553615091368556 C9.22068647279713 -0.02262371671386093, 22.548587603184053 -0.8877645720262084, 48.33447211173666 -1.0300276894122362 M-0.5198994586244226 -0.06676725950092077 C12.450010554088882 -0.6466971588786687, 26.208280208830995 -0.03925194866023912, 47.78456814990682 0.5558308223262429 M49.3408192911495 0.35466974787414074 C48.63344743329403 13.772040410898624, 47.16557761508343 29.436418443918225, 46.953750363861445 41.483813959484294 M47.65229376063985 -0.4612134834751487 C49.11231645708896 17.11672210196654, 48.49052178626872 33.475160960418485, 47.527174640757266 43.24708399766435 M46.783995858703975 43.264095503215984 C32.47216577967624 42.60663874762443, 11.56966988338776 43.77203454392341, 1.4205596167594194 43.166593927269176 M49.133463789087955 42.4305630683278 C35.84805738134304 43.36204177155159, 21.741330439845683 44.16317251338623, 0.5136639466509223 42.405702120003596 M1.1093713957816362 41.79997910869618 C-0.8357386778108775 28.83419371861964, 1.0106424500234426 13.138242846975722, -0.6669759433716536 0.40423750691115856 M-0.514286101795733 44.22891355150689 C0.8755761866457761 28.21252166914443, 0.06104202913120388 12.778696048073467, -0.020358056761324406 -0.7037579258903861" stroke="#000000" stroke-width="1" fill="none"></path></g><g><g transform="translate(111.66666666666663 198.00000000000006) rotate(0 11.029201458891265 0.2073442156568177)"><path d="M0.15803977958858018 -0.8617994796484709 C3.5479552763617823 -0.9952991854399443, 17.497171704429782 -0.5468776952475309, 20.94398455532896 -0.5881963860243559 M-1.218128065466881 1.3001518481969834 C2.5076384449667524 1.30093254506588, 19.1904013136361 0.9195883029699327, 23.276530983249422 0.6404257625341416" stroke="#000000" stroke-width="1" fill="none"></path></g></g><g transform="translate(131.66666666666663 176.3333333333334) rotate(0 24.16666666666663 21.666666666666664)"><path d="M-1.3999235313385725 0.2912187557667494 C15.75323486064248 0.044520045397802854, 27.987480365050292 -1.2574341644067322, 49.023801735912684 1.6002609115093946 M-0.8683751532807946 0.6629759827628732 C10.650274332457517 -0.8608564131117116, 20.586922132099637 0.7451468415403117, 48.030140001637164 0.5546856978908181 M49.637937001263026 -1.4763453621417284 C47.54897227364895 10.081970020197332, 49.164644325555535 17.86532011628151, 49.54836868432653 42.30476112974186 M48.07151063190145 -0.4436208149418235 C48.5524835742078 16.177089686195057, 49.47400097614147 33.62444603846719, 49.17789023028058 42.939305877623454 M48.41999601510656 42.62764521253605 C34.0420747562311 44.395790316831935, 18.400147836344903 43.37534932113873, 0.39947053976356983 42.17575826061268 M48.14727752314252 44.233319616255656 C36.22817324800411 43.95494944268527, 26.101762110988258 43.0275874477035, -0.23638492915779352 42.796417957482234 M1.9382579047232866 44.980652231102184 C1.7223598211693267 29.566767784145966, 1.8544312566208343 13.369495199372366, -0.9341435115784407 -0.04144740290939808 M0.6007162919268012 42.50946093195428 C0.8284596129941444 32.68180048155287, 0.4327258094834785 20.74847387056797, -0.5473921010270715 0.8358913222327828" stroke="#000000" stroke-width="1" fill="none"></path></g><g><g transform="translate(179.9999999999999 199.66666666666674) rotate(0 10.839524158959648 0.30285995543002997)"><path d="M-0.8399541188031434 0.17473125346004958 C2.731142713419278 0.2454750169068574, 18.835685984749 0.07594759352505198, 22.519002436722396 -0.10004364363849172 M0.9199312394857406 -0.779138783812523 C4.311999286479432 -0.4668867963552476, 18.791635591122905 1.2593968683481218, 22.018433252374408 1.3848586946725847" stroke="#000000" stroke-width="1" fill="none"></path></g></g><g transform="translate(203.33333333333337 174.6666666666667) rotate(0 24.16666666666663 21.666666666666664)"><path d="M1.6891137938946486 -0.7880549114197493 C10.899874215479924 0.0389890369493513, 22.078345132060317 0.1529997881967573, 47.62764521253598 -0.27127900533378124 M0.19973526988178492 -0.5787875363603234 C16.483738389021383 0.9273227766311418, 33.734768218671235 -0.20313984005091085, 49.233319616255585 -0.7621370563283563 M47.86056347501767 -1.0738307517021894 C49.64605701239772 16.860302816766005, 49.23814958604045 35.58359234531721, 49.98065223110211 45.063847533737615 M47.86626157754404 -0.02072370145469904 C48.383100634658014 16.639066144824024, 48.06316814407078 33.75490972492843, 47.50946093195421 44.18864636526753 M47.238549131279115 45.005115977798894 C28.51243593404065 43.018257044830044, 13.401860380234801 42.48033221868487, -0.21889901347458363 44.85905390170713 M48.821197754082505 43.036787320238844 C33.12164165126154 43.89786744277613, 19.878675247232085 44.35365703861849, 0.2431100169196725 42.49696006284405 M1.4746210556477308 44.766310504948095 C-0.6282133385228614 33.594883871885635, -0.8705743476438026 24.07455167546868, -1.2641196865588427 -0.3213898818939924 M0.07128818426281214 42.48527588353802 C-0.9613161563562851 35.12771313699583, -1.0710836231398086 25.466133323498067, -0.008533014915883541 0.10283699538558722" stroke="#000000" stroke-width="1" fill="none"></path></g><g><g transform="translate(251.66666666666663 198.00000000000006) rotate(0 10.816944786555496 -0.1271362108178451)"><path d="M1.0134682763367893 -0.4728329468518495 C4.424484604141791 -0.44811791665852063, 18.117155607748426 -0.10388060100376595, 21.547489181036827 -0.01640884168446055 M0.08640039207413786 -1.7666741892881692 C3.2343456698312654 -1.5246160200424494, 17.085876766197032 0.9851588716916738, 20.536875537453916 1.5124017676524817" stroke="#000000" stroke-width="1" fill="none"></path></g></g><g transform="translate(271.66666666666663 174.66666666666674) rotate(0 24.16666666666663 21.666666666666664)"><path d="M-0.48372831754386425 1.9503838401287794 C10.832618368013433 0.11459349550617182, 25.23426359177874 0.39104848064792597, 46.61764167932165 1.8481692057102919 M0.11789321806281805 0.8235291102901101 C17.431694180859846 0.5198657574597741, 32.87964946342006 -0.29738404727540957, 48.031635690790836 0.753096834756434 M49.10694479135168 -1.0013099927455187 C50.409151901584046 14.930892600677907, 48.32242183862247 30.5790356695652, 50.087904504810695 42.23835172069569 M49.203903843027774 -0.6909265359863639 C48.251023173984066 13.300382450222969, 48.06867876714088 26.66243518795818, 47.42545582757634 43.17825294130792 M50.32249265102041 42.04275740993519 C31.89001836519062 43.00611250963993, 16.67040609413134 44.44017934170551, -1.7170433681458235 43.93290956628819 M48.80137540803594 44.19232130640496 C38.52629081113258 42.898505479733764, 28.367477233211154 42.55808329645854, -0.45408365223556757 44.26135627025117 M0.4693727809935808 44.426844674473 C0.7481172084497909 29.357489230421677, 0.9364535212206344 12.96049516027172, -1.1814996283501387 -0.1685600895434618 M-0.7082528779283166 43.25866285556306 C-0.2411315645091236 31.74858293620248, -0.08392786039039496 20.350762881649036, 0.7917090645059943 0.5882527688518167" stroke="#000000" stroke-width="1" fill="none"></path></g><g><g transform="translate(319.9999999999999 198.00000000000006) rotate(0 11.5767857930189 0.6028966229036428)"><path d="M-0.2902369905263186 1.1702303040772677 C3.0515305417693455 1.2863373029977083, 17.241618780750432 0.057943378761410785, 21.05367478045332 -0.1313394080847501 M1.7582498601078989 0.7389972683787347 C5.410590724713286 1.1204281899333002, 20.02068310502509 1.2319404408335688, 23.44380857656407 1.3371326538920405" stroke="#000000" stroke-width="1" fill="none"></path></g></g><g transform="translate(341.66666666666663 173.00000000000006) rotate(0 24.16666666666663 21.666666666666664)"><path d="M-1.672746540978551 -1.1482795756310225 C17.87699541465066 1.3886904946683598, 38.43540245511874 1.315473996770258, 47.57438434970868 0.7736114580184221 M-0.1606949409469962 -0.9054944524541497 C12.957453103270364 -0.241995215400433, 24.231623219326103 -0.5425618588769192, 47.75217426413042 0.8705705096945167 M48.53900732410443 0.08920851536095142 C46.641156929451896 9.695824226674933, 48.68570502372451 20.082867870728172, 46.64341576707852 45.32249265102048 M47.55478633039934 0.7576213767752051 C47.1735586731073 10.503540282448132, 47.10425083919731 21.148841779368617, 47.43325809234125 43.80137540803601 M48.46358378541959 42.6529059925427 C28.773390825682583 45.189479988394304, 12.220158849221946 43.969576936541124, -0.7498400826007128 43.80270611432691 M48.87047556632501 43.72606207833935 C30.599931111404 43.636518356312685, 13.765987341602617 43.31118097614186, -0.6427194019779563 42.62508045540501 M-0.5228574890643358 44.479478708778814 C1.764825523427377 31.833410941374794, -0.7197821135011813 16.661740833272532, -0.7363849896937609 1.9601624924689531 M0.5714374640956521 43.19116269455601 C-0.36057019131258133 32.25679146560529, 0.6891615102998911 21.01446640212088, 0.1410122076049447 0.8002732982859015" stroke="#000000" stroke-width="1" fill="none"></path></g><g><g transform="translate(389.9999999999999 196.3333333333334) rotate(0 10.150490785514364 0.40965635089203545)"><path d="M-1.0036479245871306 -0.6889677453786135 C2.432387095234472 -0.5869703818112612, 17.378781624842084 0.6455905269831419, 21.304629495615835 0.9037162017077207 M0.6702981856651604 1.563720242958516 C3.8563969687476054 1.3136339705996216, 16.569856442264864 -0.3118976581282913, 20.166514517186908 -0.7444075411744415" stroke="#000000" stroke-width="1" fill="none"></path></g></g><g transform="translate(143.33333333333326 186.33333333333337) rotate(0 10.833333333333314 13.333333333333336)"><path d="M0 0 C0 0, 0 0, 0 0 M0 0 C0 0, 0 0, 0 0 M-0.4349459185870239 6.305702173014276 C0.7911791691466044 5.29481087831364, 2.298884829962358 3.8008731307958117, 5.71659569028253 0.3299200672504716 M-0.30547964010852074 6.172430608843557 C1.9389595759062819 4.084928064817811, 3.379814037981042 1.8034375597149253, 5.3265761971049965 0.09896489454780161 M-0.9079927450884475 11.262380429029047 C3.001811488174904 9.673567520288591, 5.4082008770392695 4.856465689816697, 12.040254962396753 -0.35409924880715593 M0.11555046002377145 12.316434400945484 C2.8703114785569035 8.19557414139771, 5.205546320985862 4.976845612884114, 11.18419170598401 -0.183549548397982 M1.6370275718578835 17.118238032702976 C3.8693229100785906 13.140479001338964, 11.296865666994268 6.349786117093718, 15.925575321077783 -1.5157109175878594 M-0.6441423018044095 18.767266480159634 C4.691503720765176 11.505916663551822, 10.723655530469342 5.151726452191882, 14.634209923915048 0.9852026400086453 M0.35041896088042 25.034017845704316 C5.081368751982075 18.863817742132476, 9.221863909236019 13.671138544939875, 19.49015920264449 -0.7279073526919362 M0.5828336712158535 23.92450044741398 C7.012910867470838 14.81350808531251, 14.959308715781809 5.602659962262621, 20.34316433155712 0.6826703887596253 M1.849818712449398 29.59927017611656 C5.648113026236954 20.3710035516484, 12.586529297457774 17.47022432203873, 22.666787409533356 2.57191576173277 M1.857226812629726 29.195673980724248 C9.573981482722338 20.810245400468293, 16.212785451461688 11.928754070121748, 24.83716244654039 2.7453271282625327 M8.917063581505092 28.715698802802635 C11.75384589615298 21.87339549824624, 17.114218777776138 18.637410798955397, 24.095291484713112 7.69216907021751 M6.713528906674357 27.893410048406494 C11.600005915381852 22.825965298860805, 17.48016611074122 16.603545798107582, 23.84755802863047 7.350510505001743 M12.079096682484904 27.574772657529422 C15.334764472679849 23.339618771892106, 18.700445100523396 23.181786397371663, 23.906645578930657 13.54578933252473 M11.976875674374112 28.864490141515592 C14.851941324585708 25.594101694171712, 17.844977966008713 21.17268555494509, 23.855463977477083 14.35870556712602 M18.24950079515408 27.691049750582028 C19.76487391406556 25.961252224988314, 20.021332883677637 25.633655299447717, 25.000017321927057 20.0733337989803 M17.783020712787465 28.230993831683595 C19.856750815696994 26.531508117881252, 21.398219496207503 23.853474461130958, 24.154568151363687 21.396421534547542" stroke="#fa5252" stroke-width="0.5" fill="none"></path><path d="M1.4826748948544264 -1.8001504819840193 C5.575953833914044 1.919005675039564, 9.696635650781278 0.20144675465611084, 21.79691711875296 -0.6804273407906294 M0.31807141099125147 -0.3749200413003564 C5.750838477319718 0.4177982789929958, 11.475278250252188 0.6726944727357479, 22.203808899658384 0.39272874500602484 M20.847431816781523 -1.2854388039559126 C20.2276862322042 6.275326206659277, 20.80692709075904 13.235476669544974, 21.143809177602293 27.81281204211215 M21.0072983462984 -0.36819249484688044 C22.803615317928255 9.613061156434318, 20.99660892902559 19.71888660794745, 22.23810413076228 26.52449602788935 M20.39410720082617 26.948691081876554 C18.324839506143054 26.723109028566004, 12.282364337705054 27.727882108914972, 1.9018067102879286 24.77837897526721 M21.45329859449214 27.1764547318841 C16.809443615842582 26.479897581397864, 12.208543082078277 27.33508407360253, 0.9228799501433969 27.004740038576223 M-1.768717410042882 24.9085664867113 C-1.2990476664155721 19.42651366132001, -1.018371718749404 14.229222264761724, 1.0264964681118727 -1.9889877717942 M0.903050915338099 25.83740095204363 C0.6927938199912509 17.14519221739222, -0.02941375604520241 7.3682657321914995, 0.6597375134006143 0.189509361051023" stroke="#c92a2a" stroke-width="1" fill="none"></path></g><g><g transform="translate(165.40568804629152 213.63434920224057) rotate(0 328.53700801817087 67.01404512238999)"><path d="M0.4056880462914705 -1.03231746442616 C109.6971789792594 21.293174497079516, 547.5020388545677 112.75088216310574, 656.6683279900502 135.06040770920615" stroke="#c92a2a" stroke-width="1.5" fill="none" stroke-dasharray="12 8"></path></g></g><g transform="translate(632.5000000000006 10) rotate(0 229 23)"><text x="0" y="32" font-family="Virgil, Segoe UI Emoji" font-size="36px" fill="#000000" text-anchor="start" style="white-space: pre;" direction="ltr">Smart contract invocation</text></g><g transform="translate(10 141.33333333333337) rotate(0 216.66666666666669 50.00000000000001)"><path d="M-0.23774253853812435 0.15854622619649392 C169.04036090251395 -1.069625691547414, 338.1691148243743 -1.705780670126816, 433.0778688082865 -0.817176536568079 M432.5526521125188 -0.26320994086563587 C431.72057000578695 22.815478969365365, 431.1700337904816 46.674561480060234, 433.20469336894655 98.42027908377351 M433.96837300487215 100.98106484959469 C276.021020794522 100.75541303898929, 117.84780444937942 102.22763166696582, 0.8264608185482955 99.17071614477919 M1.434561463072896 99.71638399176301 C1.6821992555633187 77.02784008532764, -0.1260369261726737 50.77856429107488, 1.8662371952086687 1.1356499176472425" stroke="#000000" stroke-width="1.5" fill="none" stroke-dasharray="12 8"></path></g><g transform="translate(25.49999999999997 105.00000000000006) rotate(0 49.000000000000014 13)"><text x="0" y="18" font-family="Virgil, Segoe UI Emoji" font-size="20px" fill="#000000" text-anchor="start" style="white-space: pre;" direction="ltr">Blockchain</text></g><g transform="translate(208.3333333333332 65.33333333333339) rotate(0 60 20.5)"><text x="0" y="14.5" font-family="Virgil, Segoe UI Emoji" font-size="16px" fill="#c92a2a" text-anchor="start" style="white-space: pre;" direction="ltr">deployed</text><text x="0" y="35" font-family="Virgil, Segoe UI Emoji" font-size="16px" fill="#c92a2a" text-anchor="start" style="white-space: pre;" direction="ltr">smart contract</text></g><g><g transform="translate(163.33333333333331 188.00000000000006) rotate(0 38.424279007191444 -41.861377194399644)"><path d="M-1.104946805164218 0.7127679180353879 C12.02022641520533 -13.461822734483416, 64.80778144353792 -70.2374945357856, 77.95350481954712 -84.43552230683467" stroke="#c92a2a" stroke-width="1.5" fill="none" stroke-dasharray="12 8"></path></g></g><g transform="translate(100.00000000000006 558.3333333333334) rotate(0 40 13)"><text x="40" y="18" font-family="Virgil, Segoe UI Emoji" font-size="20px" fill="#2b8a3e" text-anchor="middle" style="white-space: pre;" direction="ltr">Storage</text></g><g transform="translate(1346.1904761904761 380.83333333333337) rotate(0 138.80952380952374 43.809523809523796)"><path d="M0.9328273719804069 0.894347151934603 C73.17272240259031 -0.27140663609812743, 147.22978571857826 -0.08815778895183768, 278.7532940585769 -1.3598146217946363 M276.1228648178456 1.7600031811743975 C278.53017712336555 26.722786086034905, 276.76235300999656 54.22692221660342, 276.8585160128949 87.9978870243011 M278.7869344765403 88.77645422459022 C209.58995212593547 88.39404097835182, 139.2634357231494 87.84115071815636, 1.1446043507134356 86.89808947872407 M0.38072711043059826 85.69739521445612 C-0.9136121045088478 66.5973831451542, -2.244689620587797 46.343716977341515, 1.2176337223500013 0.39741155691444874" stroke="#862e9c" stroke-width="1.5" fill="none" stroke-dasharray="12 8"></path></g><g transform="translate(1357.6190476190477 347.54761904761904) rotate(0 51.5 13)"><text x="0" y="18" font-family="Virgil, Segoe UI Emoji" font-size="20px" fill="#862e9c" text-anchor="start" style="white-space: pre;" direction="ltr">Operations</text></g><g transform="translate(1367.011922200521 394.8809436616443) rotate(0 125.5 31)"><text x="0" y="14.666666666666668" font-family="Virgil, Segoe UI Emoji" font-size="16px" fill="#862e9c" text-anchor="start" style="white-space: pre;" direction="ltr">The smart contract execution </text><text x="0" y="35.333333333333336" font-family="Virgil, Segoe UI Emoji" font-size="16px" fill="#862e9c" text-anchor="start" style="white-space: pre;" direction="ltr">produces side-effect on </text><text x="0" y="56" font-family="Virgil, Segoe UI Emoji" font-size="16px" fill="#862e9c" text-anchor="start" style="white-space: pre;" direction="ltr">the Tezos network</text></g><g transform="translate(1356.071428571429 595.7619091215589) rotate(0 172.8571428571429 50.83333333333337)"><path d="M0.3235204006319987 -1.2384233785002745 C110.07799254164583 -0.4768216944006268, 220.16693029178234 -2.126247896282018, 345.7757813040202 1.001624640314953 M346.0926427652262 -0.32679405622184277 C346.7662582939159 32.21840519597756, 344.3007565682422 63.98708658013497, 346.8133861233614 100.3425131558131 M345.1084665473541 101.63362085164431 C211.4078499649869 101.78564951818781, 76.44279132665095 102.12952003384716, 0.5900320360611425 101.87213537408623 M-1.0109836477786303 100.47500474440562 C1.8012653123121711 63.07366086030383, 1.5581547151785347 19.5914167839413, 1.6679487209767103 1.5527102667838335" stroke="#2b8a3e" stroke-width="1.5" fill="none" stroke-dasharray="12 8"></path></g><g transform="translate(1370.261904761905 607.761909121559) rotate(0 157 38.5)"><text x="157" y="17.666666666666668" font-family="Virgil, Segoe UI Emoji" font-size="20px" fill="#2b8a3e" text-anchor="middle" style="white-space: pre;" direction="ltr">The smart contract execution </text><text x="157" y="43.333333333333336" font-family="Virgil, Segoe UI Emoji" font-size="20px" fill="#2b8a3e" text-anchor="middle" style="white-space: pre;" direction="ltr">produces side-effect on </text><text x="157" y="69" font-family="Virgil, Segoe UI Emoji" font-size="20px" fill="#2b8a3e" text-anchor="middle" style="white-space: pre;" direction="ltr">the storage</text></g><g transform="translate(1359.0833507719494 565.2380908784414) rotate(0 95 13)"><text x="95" y="18" font-family="Virgil, Segoe UI Emoji" font-size="20px" fill="#2b8a3e" text-anchor="middle" style="white-space: pre;" direction="ltr">New storage state</text></g><g><g transform="translate(1343.3333333333335 436.33333333333337) rotate(0 -96.58210178924094 46.86453154596197)"><path d="M-0.4265429031103849 -0.05247604139149198 C-32.40054418225253 15.565111820358393, -160.75466853624403 78.16175362447082, -192.73766067537153 93.78153913331543" stroke="#862e9c" stroke-width="1.5" fill="none" stroke-dasharray="12 8"></path></g></g><g><g transform="translate(1358.3333333333335 673.0000000000002) rotate(0 -100.31069080345333 -38.92244016217691)"><path d="M-0.6012534510344266 0.09466511718928805 C-33.90378099394341 -12.734580864715914, -166.87622449907164 -64.84390579813888, -200.02012815587221 -77.9395454415431" stroke="#087f5b" stroke-width="1.5" fill="none" stroke-dasharray="12 8"></path></g></g><g transform="translate(819.6666666666667 283.33333333333337) rotate(0 54.99999999999994 13)"><text x="0" y="18" font-family="Virgil, Segoe UI Emoji" font-size="20px" fill="#d9480f" text-anchor="start" style="white-space: pre;" direction="ltr">Tezos node</text></g></svg>