<svg version="1.1" xmlns="http://www.w3.org/2000/svg" viewBox="0 0 494.2857142857143 247.57142857142858" width="494.2857142857143" height="247.57142857142858">
  <!-- svg-source:excalidraw -->
  
  <defs>
    <style>
      @font-face {
        font-family: "Virgil";
        src: url("https://excalidraw.com/FG_Virgil.woff2");
      }
      @font-face {
        font-family: "Cascadia";
        src: url("https://excalidraw.com/Cascadia.woff2");
      }
    </style>
  </defs>
  <rect x="0" y="0" width="494.2857142857143" height="247.57142857142858" fill="#ffffff"></rect><g transform="translate(37.60714285714283 174.218253968254) rotate(0 50.5 15.5)"><path d="M0.8635706249624491 1.417637562379241 C22.77395837036893 0.20690051221288763, 49.473097717948264 -0.11730029678903497, 100.99347686208786 1.1216098424047232 M0.8204349456354976 -0.7847392288967967 C36.35763065060601 1.6912110287230464, 72.68610424101354 1.0598501104395839, 100.25332032423468 -0.9746288685128093 M102.41955708898605 -0.5597575549036264 C101.12427022377962 8.137735111359508, 102.6807336441707 16.522153665684165, 99.65553670562805 32.41231737099588 M100.53726278524847 -0.7880932716652751 C101.18193199151197 11.525911790598185, 100.8978070508782 24.887216237932446, 100.57005031686278 30.898845282383263 M99.16924815811218 30.777840232476592 C79.30354006038979 31.44153256854974, 57.31850251015276 32.99038244924508, 0.49573718942701817 32.72987083159387 M100.5637172041461 31.193161335773766 C77.88653420330958 31.580832084761933, 54.95759930275381 29.967627218114213, -0.6459087850525975 30.33703672606498 M0.8602634612470865 32.77753785811365 C-0.35634902502410115 19.558971868362278, 1.2077399752009659 10.089709696359932, 1.302713567391038 -0.713388467207551 M-0.9452030183747411 31.10510003287345 C-0.9067323169205337 22.507968610432, 0.16656652479432527 12.377142920717596, 0.47430898528546095 -0.6309712855145335" stroke="#862e9c" stroke-width="1" fill="none"></path></g><g transform="translate(44.60714285714283 177.218253968254) rotate(0 43 13)"><text x="43" y="18" font-family="Virgil, Segoe UI Emoji" font-size="20px" fill="#862e9c" text-anchor="middle" style="white-space: pre;" direction="ltr">Michelson</text></g><g transform="translate(317.60714285714283 166.9325396825397) rotate(0 12 12.499999999999986)"><path d="M0 0 C0 0, 0 0, 0 0 M0 0 C0 0, 0 0, 0 0 M-0.6141144543560098 5.66131206830322 C1.1350367587790635 5.488811371260279, 2.6245901412183446 4.028777306028607, 4.399732748004145 0.43883334732029966 M-0.29702905972021315 6.090396532838337 C1.179774063768639 4.279771162388452, 3.0292807292068042 2.614558927289828, 5.140181124913043 0.2224351167527252 M0.23113369579423537 12.4348082770105 C2.0763322729524223 8.206941389015372, 6.6783708601419525 5.601293873269853, 10.520053991627824 0.4248407642438772 M-0.06991706778298745 11.613399640887557 C2.911269298541373 8.943214128702694, 6.803905307104542 4.940974789886055, 11.154053930145633 -0.5641270426020264 M-1.4683923656633358 19.39243394592839 C6.059224994825782 12.415039888170046, 9.542897123942117 5.405549740840295, 15.476400019138534 0.34328917292179373 M0.6494304239237447 18.816310103890174 C6.120569023486288 11.430778182911343, 10.822020236543773 5.4792264521642, 15.386534149296065 0.4278860070672801 M-1.0444951334782626 23.135769057734965 C6.357594430236597 13.396528098792063, 16.219708353860796 5.560981312606501, 21.532064542451764 0.08475048413271935 M0.3840999856776808 24.850765834278523 C8.47794822466604 14.587233280802462, 14.99072463254048 6.847110760402764, 21.937412568645442 0.6393228791817549 M3.4483882829683683 28.770910716348812 C10.491181946712457 16.594250082721818, 19.963240524883943 5.5243216594231335, 24.65382489023027 0.09795052060852427 M2.5416537800940535 27.789722470299825 C10.533742808287526 17.935393845500123, 18.529427244978788 9.81051335371318, 24.6733300268766 1.6304015756211676 M7.644214320563824 28.248827944918137 C14.764985183527394 22.87998850746539, 19.012860905427342 14.758743848229425, 26.799239921427763 8.60705974205682 M8.583349269450755 27.231945665961664 C13.639342985748577 21.128185544096667, 19.036764908473625 14.268026505012607, 24.739497970833874 6.803362624452504 M14.631622913725325 28.388382882925026 C17.311895900885002 22.198892966451655, 22.613616012042435 15.834038616911107, 26.739114244489382 14.280548555783461 M12.721926797939116 27.747177766796476 C14.983730361345136 23.720294758047864, 19.064905236133797 20.826628544517035, 25.511522738609845 12.510968244688119 M18.888395385591373 27.011628787170487 C21.037274776683415 24.091886505913486, 23.427393595510843 21.221936751225233, 24.880263218802796 18.662825925797794 M19.07408062951459 27.224038204781102 C20.94122405408699 24.6016956361813, 23.515578981907822 22.222134183508516, 25.440816691757576 19.139518925976578" stroke="#fd7e14" stroke-width="0.5" fill="none"></path><path d="M-1.7998839672654867 1.8010161276906729 C8.141330195590854 -1.692969701141119, 15.267231019213796 0.7185606147348881, 23.663447791710496 -1.7116463426500559 M0.09159486275166273 -0.6243801144883037 C9.090766262076796 -0.17216473195701837, 16.224751923792066 0.13190773751586676, 23.0203803954646 0.7820694716647267 M22.527409488335252 0.583411430940032 C25.866790020139888 4.680736099835485, 22.189811134012416 10.921590660698712, 24.830640310421586 24.838424360379577 M24.241021770052612 0.36186220962554216 C23.475424632197246 7.973279213067144, 24.438559785252437 15.698127193376422, 24.80367552023381 25.22103720624 M25.16358088888228 24.213087236508727 C16.485235726460814 24.024146896898745, 11.157714920118451 23.254406613409518, -0.07799381576478481 24.160519218072295 M23.633211242966354 25.739909228868783 C15.25057604368776 24.38111063491553, 5.703865946643052 24.067413863055407, -0.9373871507123113 24.38484796602279 M0.752734238281846 24.234416102990508 C0.7447003226261586 18.888131684157997, 0.29959018039517105 9.486036336980758, 1.5601650420576334 -1.2732548359781504 M-0.2594551267102361 24.841578570194542 C0.9660212455783039 18.287414957303554, -0.8343304635491222 13.615298043936491, -0.4853088380768895 -0.34292280953377485" stroke="#e67700" stroke-width="1" fill="none"></path></g><g transform="translate(342.0357142857143 166.4325396825397) rotate(0 12 12.499999999999986)"><path d="M0 0 C0 0, 0 0, 0 0 M0 0 C0 0, 0 0, 0 0 M-0.08177511986809471 6.21332713445007 C1.6264007901575175 5.055097412645927, 3.744818211687243 2.7034780538556937, 4.462701049777216 -0.018271764755505904 M-0.23437525589483477 6.452160987679951 C0.8981947556217607 5.384047533599417, 2.117275588871133 3.6575488193127215, 5.034139097439593 0.667726945861917 M0.14503416652787804 13.12443106067139 C5.326986735651598 9.055708770370009, 9.382824342974008 2.9519739682348995, 11.28554442818178 1.0137036602094533 M-0.2867252438236369 11.665933982699691 C2.396910076211065 9.478791301660086, 6.080668598787263 6.223954758038699, 10.560156825882327 0.2287530633702637 M1.863073951513483 16.603030388150984 C5.873486607426619 12.892451704799841, 9.210294677972346 6.98928703611713, 14.989175082653244 1.5083800914627483 M-0.44210782652257485 19.173422809597724 C6.109144294705315 12.129952597285133, 10.803232740478144 4.734671883301013, 15.928310031540175 0.49149781250627544 M1.3262816390208219 22.901354361041545 C3.955499640592607 19.48518017888515, 11.278371682014047 13.365128962065096, 22.70487760035124 0.9438683496951583 M-0.4384277209453966 24.615839431709706 C6.854530115536349 16.20201195163032, 11.309149644666023 9.689554823526624, 20.694671162681544 0.2689155958756331 M0.8063514873522184 27.012749529176876 C6.310240576297103 23.730106397166725, 13.364000736803668 18.58829618378504, 25.56345816907701 1.0059537316299476 M2.7475970665129683 26.87810119773589 C7.835078490968453 21.06047146251503, 15.467304034016074 14.30959442070632, 25.934828656923443 1.4307725668511786 M9.90989618339494 26.978028665705185 C11.407616589000023 21.235000609805017, 17.713776789470845 18.268703489940293, 26.12013189778427 7.383650446974727 M8.434645873130412 27.170301886683863 C14.77150771659296 19.057580757544443, 21.74643263234841 11.40048025917744, 24.33891583611021 8.303137378499898 M11.488632461674163 28.096271921249382 C18.118152641777847 23.879107628334573, 21.902494220604133 16.841265995474462, 25.436897374896716 14.57003644817276 M12.872458212090306 26.54907025897158 C15.967289241780126 24.039595631482577, 20.626648784174204 18.99023006456465, 25.039789004598195 12.951893768326844 M19.817565815297947 26.997441153179246 C20.977943779710827 25.45980250176505, 22.083901050832473 24.204629899967625, 26.221438119334564 18.516449494809482 M18.753999484943286 26.58710860335021 C20.90457945138298 24.44482271534332, 24.038466749106348 21.712008254309044, 25.88755740845336 19.760654548239533" stroke="#fd7e14" stroke-width="0.5" fill="none"></path><path d="M-1.6561884935945272 -1.8747743014246225 C6.349824072048069 0.10765881791710853, 13.200313337519766 -0.2904536579549313, 24.752734238281846 -0.7655838970094919 M-0.26656211633235216 0.7800825210288167 C7.1630215277895335 -0.6486454281583428, 15.091860352270306 -0.5240105960145592, 23.740544873289764 -0.1584214298054576 M24.809658581390977 -0.970617676153779 C23.109699526103213 11.144026642199606, 24.65013931063004 19.310770188458264, 25.2768641654402 24.510129963979125 M23.09346469026059 0.6340635688975453 C25.083217948442325 10.165310447569937, 23.394461393123493 19.551992697641253, 23.225833940319717 25.230133173055947 M25.22366582788527 24.5731778498739 C15.84783946238458 23.70028987556696, 6.865439992025493 26.043025940954685, -0.8816440757364035 23.158820128068328 M24.703761386685073 24.26589667517692 C16.41072508152574 25.343996155373752, 7.814148546569047 26.114411550872028, -0.0889305891469121 24.23153128940612 M0.8275934997946024 25.765828585252166 C-0.6149405885953456 19.494862532708794, 0.3485300492029637 13.568842387758195, 0.12248539365828037 0.4924372788518667 M0.5816314397379756 24.93122759182006 C0.3111463396344334 19.31792326690629, -0.2425375075545162 14.895076286047697, -0.25382806081324816 -0.5343235163018107" stroke="#e67700" stroke-width="1" fill="none"></path></g><g transform="translate(366.5357142857143 165.6825396825397) rotate(0 12 12.499999999999986)"><path d="M0 0 C0 0, 0 0, 0 0 M0 0 C0 0, 0 0, 0 0 M0.4259325400320938 6.569778176446549 C1.0257941094806513 5.10539166913291, 2.463339487128554 3.171668352336568, 4.956338532599157 1.156661533176642 M-0.32035931531804296 6.315628569995157 C0.6704961545388846 5.377961329188455, 2.163356610487596 4.211501013902476, 5.092682878630704 0.23458882196221886 M-0.7118276781309737 11.54632753324467 C4.4812059530737045 7.753405260010828, 7.020002111248525 4.0977559368882535, 9.076942986202372 0.8134978721931341 M0.49461212019432654 12.401832493811428 C3.317910170407363 9.477745727365138, 5.137184656352698 6.132105327124191, 10.86385828177346 -0.5982696157798408 M-1.8637070181360702 17.15884443456369 C4.19148166816146 12.86627347537698, 8.936264237330041 3.9388201435032464, 16.938606304585416 -1.4971060206252167 M0.4681333694094558 19.426191644650572 C4.338614014566588 13.25117872114339, 8.35503028680566 8.299653051894753, 15.09033179702558 0.4441395585355332 M1.8021458519808267 25.34277815343356 C6.227252464703036 18.923021584825506, 10.001325805123097 13.115837978412701, 21.94244518531289 1.5687620336353305 M0.43253788838156204 24.996767253331004 C7.033893476104474 16.964075854335036, 13.65893768903803 9.081019352688022, 21.405073362680042 0.09351172337080271 M3.247384534044828 26.118946428143904 C7.8175631694782 21.094437792891412, 17.292454217328675 12.647658354308831, 24.14550901037869 -0.8178857949935399 M3.0576749218764565 26.646257448674664 C10.037629689924357 19.27331846197648, 17.582894072918396 9.481289327554403, 25.404970315482885 0.6387728896550335 M9.588265269630702 25.53219035215543 C10.512764043836217 22.62543004570095, 13.509352036809528 19.391209627793856, 24.061875193424022 9.274274273508283 M8.841972342328281 27.226296537032884 C13.936696437425168 20.295147879441103, 18.930564518059953 15.95419098935893, 26.016545137434697 7.147141612798961 M14.507717866137273 28.567830760145835 C17.614253353638535 25.38720686126873, 17.550903047935222 21.109112300967624, 24.13632457742692 14.420529783710371 M12.524260042527342 27.97522728505758 C16.656688222345768 23.65152789822068, 18.919047724216398 19.68118242538426, 25.916420422375584 13.927061300685164 M17.9602961910498 26.735409070874887 C21.676752292083385 23.872096554971524, 23.39014151352318 21.925892438461737, 26.318712502864585 20.048216872439358 M18.41040201788588 26.793776275261628 C21.021778466627687 24.62453967521374, 23.45175095898312 21.664816575618545, 25.743299360999302 19.28044589335156" stroke="#fd7e14" stroke-width="0.5" fill="none"></path><path d="M-1.6124446038156748 1.6865292135626078 C7.173420445993543 0.26563920959830284, 18.960298297926784 0.9283476708829403, 23.11692783795297 1.2236658278852701 M0.4528717966750264 0.5744973002001643 C6.246991381980479 -0.7773409601673484, 13.578827832825482 0.8583882633224129, 24.48854806739837 0.7037613866850734 M22.37902662716806 1.9943200293928385 C23.846740687964484 4.127804266754538, 22.518343711970374 10.742117743007839, 23.27353540621698 25.827593499794602 M24.137554672546685 -0.09840149898082018 C23.975197535241023 8.70350437099114, 23.133898567641154 16.818325089290738, 24.091288384981453 25.581631439737976 M23.46680179797113 26.98958986438811 C16.457397658005355 23.899620788991452, 9.269196749851107 26.142586666047574, 1.5449405666440725 24.826092476025224 M24.191093024797738 25.251400011591613 C14.55806728247553 25.633930103071034, 6.690358503349124 25.474556253440678, -0.9009524909779429 25.12230800371617 M-1.4609965328127146 25.236364597454667 C1.5532741558272392 18.43121680757031, 0.7864044320303947 9.538660951890051, -1.252999747171998 0.44920426048338413 M0.52342948038131 25.46444748621434 C-0.6809613129589707 17.603453833144158, -0.9499050101730973 10.498673368245363, -0.026474121026694775 0.06770392041653395" stroke="#e67700" stroke-width="1" fill="none"></path></g><g transform="translate(389.10714285714283 166.1825396825397) rotate(0 12 12.499999999999986)"><path d="M0 0 C0 0, 0 0, 0 0 M0 0 C0 0, 0 0, 0 0 M-0.08946266469078756 6.32785099824249 C1.2961866460249403 4.866576171821092, 2.216603654232851 3.2717017036238643, 5.783569565745538 -0.37413745784785213 M-0.3436122711421797 6.27219798309087 C1.8573537947627223 4.515703384246515, 3.829408719067469 2.1826801106241938, 4.861496854531116 0.654019510730844 M-0.3613855398167265 12.538786100267945 C4.10882300501841 6.887580773737127, 8.722768900701322 1.8930297653195511, 11.478082546544206 -0.9787848670885204 M0.49411942075003257 12.61873761829692 C2.948223061762904 9.011526992215865, 4.989541754959734 6.528232038731958, 10.06631505857123 0.39280318944600845 M-1.408109479635046 17.30762541750508 C6.436707227817002 10.052368318763346, 9.623607047684876 6.752687913285817, 13.794386686294754 -0.12230052920757029 M0.8592377304518362 18.424803521391624 C3.4609624023055003 13.64008497659767, 7.307116307369989 9.145504319229223, 15.735632265455504 -0.2569488606485555 M1.5273520073107694 24.76910208509779 C5.505518779168682 18.045929798720838, 10.10983690853935 14.080996471117428, 22.897931382337475 -0.15702139267926185 M1.1813411072082136 24.476943234629093 C5.145061368201101 19.28227479320521, 9.250710157449445 13.033607522793872, 21.422681072072947 0.03525182829941542 M1.2873538777368925 25.47913578777902 C11.003039552450211 20.25100891540667, 17.279233358172334 10.93594818786823, 23.727422977064222 1.7512000823951759 M1.8146648982676528 27.309407828108892 C11.374805147790951 17.746882295515764, 18.53269487888591 8.554254809687187, 25.184081661712796 0.12256675368169923 M6.738274443530591 25.625023673696976 C11.801059765543124 20.47272983224785, 16.548683056766222 16.69755265304324, 27.16034220442871 7.3753624807233535 M8.432380628408046 27.824673893338602 C13.771806023189269 20.244414762772195, 21.698884663568627 12.819975622625023, 25.033209543719387 6.5546973810652815 M14.400822884089894 29.04015235111331 C17.024845953264418 23.057694568621027, 18.560612186504873 19.34489760961683, 27.058125482706735 11.872028545669746 M13.808219409001643 27.97780636602295 C17.44490076749064 22.124500091453, 21.440343974911684 17.17584693577123, 26.564656999681528 13.854884435848799 M18.606077836601123 27.261221478830414 C20.183130868071817 24.735350631398806, 22.678113257673488 24.344509062685, 26.026571730298386 20.12098432943282 M18.664445040987864 26.704544431201505 C20.675615724763553 25.157124748067808, 21.90008133626907 24.064258173034563, 25.258800751210586 19.048052782249275" stroke="#fd7e14" stroke-width="0.5" fill="none"></path><path d="M1.6865292135626078 -1.5483321193605661 C9.778348554298283 1.710286519676447, 19.75913922376931 -0.6895788095891475, 25.22366582788527 -0.4268221501260996 M0.5744973002001643 -0.44082203786820173 C7.3209995796903975 0.09451176192611455, 17.198318318836392 0.37985883619636296, 24.703761386685073 -0.7341033248230815 M25.99432002939284 -0.1778611782938242 C22.519748733611777 6.239760508295149, 23.469320521922782 14.765572731383145, 24.827593499794602 25.765828585252166 M23.90159850101918 0.061242696829140186 C24.260223619407043 5.8594921133480975, 23.917758606141433 13.370385153219106, 24.581631439737976 24.93122759182006 M25.98958986438811 24.492343878373504 C15.042349576577543 24.275105406343936, 9.39631206281483 26.480956782400607, -0.17390752397477627 26.309910213574767 M24.251400011591613 24.32995953876525 C18.86579237636179 25.280005341880024, 13.095315165631472 24.144909834973515, 0.12230800371617079 24.9296473832801 M0.2363645974546671 26.555483734235168 C0.5967759366612881 18.26651822635904, -0.9716614608187228 8.702808684669433, 0.44920426048338413 -0.46114220656454563 M0.46444748621433973 24.344607052393258 C-0.6835378424730152 16.319979701656848, -0.8647460655774921 9.46215857192874, 0.06770392041653395 0.1359424265101552" stroke="#e67700" stroke-width="1" fill="none"></path></g><g transform="translate(313.89285714285705 70.21825396825403) rotate(0 71.5 13)"><text x="0" y="18" font-family="Virgil, Segoe UI Emoji" font-size="20px" fill="#000000" text-anchor="start" style="white-space: pre;" direction="ltr">post-conditions</text></g><g transform="translate(413.60714285714283 166.1825396825397) rotate(0 12 12.499999999999986)"><path d="M0 0 C0 0, 0 0, 0 0 M0 0 C0 0, 0 0, 0 0 M0.09959394637030872 5.879523528416746 C1.9873257088917295 5.0582725937239434, 2.131026944076964 2.452969905065312, 5.1563213977539 0.12954541778538764 M-0.3046057637454817 6.755316529099934 C1.4808985718657637 4.329894198733048, 2.9391281844368895 2.7739062707825637, 5.206305897938556 0.13135383127604064 M0.9060785734187471 13.498996089815677 C2.439667325009879 6.187112249031995, 6.960143682116902 3.1789603442597856, 10.661814054799212 -1.4751498897478221 M0.882620564205538 12.357433358996689 C3.5209320602758685 8.369246643102057, 6.466465383407703 4.198163796444835, 11.23377967248572 -0.12281854421945793 M-1.9542171890428524 20.142384593282515 C6.862885956812259 12.99624726544059, 9.5641826832339 4.007764999925641, 15.636350037067611 1.290604627404826 M0.5664398967707296 18.78057390069651 C4.829632053046991 11.696751322819749, 10.080804612618119 6.258844350787051, 14.956791455395003 0.3183087089029124 M1.3996956071070645 22.667007852061747 C4.178612756629505 17.387495681913308, 10.268208963456942 12.870900444648518, 21.770223483720684 0.2550044762134078 M0.7824517741984938 23.68994952244228 C7.295090131272204 17.28079828294496, 12.88316699843783 11.063309896266011, 21.877806135730708 -0.6228003479376909 M1.4805535718935392 27.42157242327325 C8.302757732165107 20.552827008859655, 11.636628631047556 17.385420959427144, 27.214089239214033 2.618340315911869 M3.5396340171011946 27.293743042008504 C8.875696698124699 20.229719244726287, 13.360780482933963 14.565346843694476, 25.371677237760693 1.5486181617341437 M10.070750642203839 27.58360983006523 C12.251148354977616 20.879887998177487, 20.842956662775357 15.559215931894895, 23.82394366250137 8.08134510620782 M8.787525337756724 27.014938863402765 C13.64717084358977 20.440325135926763, 18.201741812834257 14.243048859462668, 26.196897458329296 6.934023515985402 M14.18107718551869 27.495536620470038 C17.289090652055613 24.89074931835424, 20.79505513878424 18.05474436720647, 24.155033131150912 13.101126594475936 M13.320636303735547 27.15373206638945 C17.371726133537035 21.642590049799228, 23.175511525601085 16.508518946348236, 25.469562803183134 12.462925261871423 M19.377504305688724 26.78831080640419 C20.505279765282673 24.00843302718838, 21.8956638387225 22.153554389110766, 25.242430457991944 18.83762882515845 M18.581278069185153 27.151648542515325 C20.557026379561393 24.05223624742619, 23.153487396077455 22.088297331275264, 25.469279161335365 19.0513879154442" stroke="#fd7e14" stroke-width="0.5" fill="none"></path><path d="M-1.3417161758989096 -1.981526816263795 C8.537083722278476 0.29118669763207433, 15.108138640597463 -1.51982479557395, 22.136286908760667 0.7053727861493826 M-0.8144051553681493 -0.15125477593392134 C9.240423153899611 -0.4073161897435784, 16.764172170870008 -0.28903092119842766, 23.59294559340924 -0.9232605425640941 M22.466129953041673 -1.4410367254167795 C23.83609574404545 3.739020442124456, 24.67694675293751 10.183945392258465, 25.8306629601866 24.93175116740167 M24.160236137919128 0.7586134942248464 C23.00723697221838 10.144181048031896, 24.486054345732555 19.588370008394122, 23.70353029947728 24.1110860677436 M25.201750511303544 26.698931133374572 C19.739356600865722 24.019965035021304, 13.057230405882 23.486179036200046, 1.4040463510900736 23.721413468942046 M24.577957379631698 25.58067220170051 C14.808377123437822 24.678918409459293, 5.372890914790332 25.016592639796436, 0.8846058426424861 25.808630195446312 M-0.5923129972070456 25.45931181870401 C-0.5800040562171489 17.918306833598763, 1.2764071028213948 14.77095381077379, 1.1274942103773355 1.2730291243642569 M-0.4755785884335637 24.34595772344619 C0.6294396279845387 18.948288549203426, 0.1990181861910969 14.588794004172087, -0.408047747798264 -0.87283397000283" stroke="#e67700" stroke-width="1" fill="none"></path></g><g transform="translate(437.60714285714283 164.6825396825397) rotate(0 12 12.499999999999986)"><path d="M0 0 C0 0, 0 0, 0 0 M0 0 C0 0, 0 0, 0 0 M-0.7797173127205917 7.045735951562516 C1.4968143842797992 4.105529696718575, 1.992692471258564 3.560639074217847, 4.756453450354284 0.5038564909097963 M0.09607568796259663 6.449671929751627 C0.9726247495365106 4.649589709945011, 2.7230487071230662 3.432488341675233, 4.758261863844937 0.5977840982225948 M1.5912830167542804 10.602680339335977 C2.010206754121924 7.396007345481719, 6.735548473480614 4.214599300843705, 9.18943478460325 0.5050984810188175 M0.44972028593529334 11.82810097601968 C2.789446756552902 8.524157466539652, 4.95011952402584 7.250111413865866, 10.541766130131615 0.4914784806862238 M1.5754306790837784 19.774626933877045 C6.659870656863777 10.390722396995805, 9.920554576397645 5.66140374774068, 16.582097334324796 1.4583905289811065 M0.2136199864977737 17.810685114842528 C4.546972406174339 11.607856877149477, 10.549177746018326 6.210574727354695, 15.609801415822883 -0.2378914768877456 M-1.1484182940610435 22.660884566321133 C3.887762238949432 18.4511607743622, 9.658583370788417 14.342398766432868, 21.584173824915553 -0.5480757063091275 M-0.1254766236805107 25.0782555050171 C4.362787197051395 19.887365986864552, 9.05005838211314 14.840318283949877, 20.706369000764454 -1.0647423039958355 M2.5899798728662393 28.538546676480696 C7.93593431657683 19.414038510602808, 17.006641969452403 13.23932810537802, 27.16364908796963 -0.17820040261377912 M2.462150491601493 28.0864836459174 C7.4097688677959805 20.329683371477806, 13.746607523544787 13.93313907970005, 26.093926933791906 1.263695284407536 M8.789693921440394 25.69464185781644 C14.701978680152582 21.372756017866088, 22.016488238179868 10.864114464794548, 25.967413037128246 7.491527720087262 M8.221022954777927 27.37841009389476 C13.508493731855387 19.845702290554293, 19.19196349860128 14.16288676478773, 24.820091446905828 7.131046093733104 M13.328528744414099 28.12973606076305 C18.517714927527795 23.687876080182534, 19.479672262392473 16.72159397733751, 25.7387222934723 14.76068101023091 M12.98672419033351 26.582106036573922 C15.730007587358978 24.426722250371125, 18.867534855944005 20.936729542236183, 25.100520960867787 12.844154857804533 M18.658979572130427 26.88089721384211 C20.32113761647031 23.705541299151527, 22.914231793928955 21.31224804873803, 24.81598368301748 19.825354032740567 M19.02231730824156 26.556757034405457 C20.95705989312551 24.117218196740367, 24.023537014766504 21.307541720469022, 25.029742773303226 19.19040121609402" stroke="#fd7e14" stroke-width="0.5" fill="none"></path><path d="M-1.981526816263795 1.719052130356431 C6.36835810430348 1.6330813978612424, 10.560320280119779 -1.702707150131464, 24.705372786149383 1.049760216847062 M-0.15125477593392134 0.7807108936831355 C8.066061888076366 0.040204887725412836, 16.554860066063704 -0.21159716930240394, 23.076739457435906 -0.7096501113846898 M22.55896327458322 -0.28377259336411953 C22.177660817978904 9.255761789623648, 22.896711046574637 19.228029708378017, 23.93175116740167 26.560601646080613 M24.758613494224846 -0.9680202724412084 C24.83588595339097 7.763369547668845, 24.82932285615243 14.208675192669036, 23.1110860677436 24.235576051287353 M25.698931133374572 26.10473912395537 C14.482480389252304 24.93220551341772, 5.56892233006656 26.5482564124465, -1.2785865310579538 26.349559301510453 M24.58067220170051 24.627848285250366 C15.972125467099247 24.150543009527027, 8.417347844131289 26.023315613754093, 0.8086301954463124 24.38816438894719 M0.45931181870400906 24.440800661221147 C-0.8757976579945534 18.589164645876735, 1.9472602915484458 10.711399861611426, 1.2730291243642569 -1.6111378129571676 M-0.6540422765538096 25.725268471054733 C-0.31971755833365023 16.83655859855935, 0.8068656304385513 7.6753753907978535, -0.87283397000283 -0.5685660066083074" stroke="#e67700" stroke-width="1" fill="none"></path></g><g><g transform="translate(93.60714285714278 127.2182539682538) rotate(0 9.159961144579597 18.623908779518686)"><path d="M0.04374102093279353 -0.5771785531193018 C2.959898389751712 0.8885050382465124, 13.534756892298658 3.8166148152202366, 16.614062378183007 8.005057271942496 C19.693367864067355 12.193499728664754, 20.78041216271619 19.8088398065418, 18.519573936238885 24.553476187214255 C16.25873570976158 29.298112567886708, 5.672968245918552 34.58353206776083, 3.0490330193191766 36.472875555977225 M-1.3924336724169553 1.7341987611539662 C1.4966850262197358 3.386233986187726, 12.839385391802837 5.5589143814332775, 15.988399663101882 9.02013759093359 C19.137413934400925 12.481360800433903, 19.61277283244456 17.70072826461866, 17.501651955377312 22.50153801815584 C15.390531078310064 27.30234777169302, 6.040728074243914 35.538205161262304, 3.321674400698394 37.82499611215666" stroke="#c92a2a" stroke-width="1" fill="none"></path></g><g transform="translate(93.60714285714278 127.2182539682538) rotate(0 9.159961144579597 18.623908779518686)"><path d="M15.18349084252322 15.28458048488601 C11.428632233713888 18.800588527494817, 11.10568646922388 25.018501401311763, 4.109800327327102 37.45160040656105 M17.033082627633753 14.929639555435916 C13.531405267661064 20.41841012376237, 8.643861580040523 27.46708441472626, 2.992144775334746 37.10045018350706" stroke="#c92a2a" stroke-width="1" fill="none"></path></g><g transform="translate(93.60714285714278 127.2182539682538) rotate(0 9.159961144579597 18.623908779518686)"><path d="M27.329848784409844 29.040442159423844 C20.915182557780167 29.446185849939162, 17.841979309476365 32.54940692085434, 4.109800327327102 37.45160040656105 M29.179440569520377 28.68550122997375 C22.071596251439896 30.170467765898863, 13.651955324764216 33.21900956661994, 2.992144775334746 37.10045018350706" stroke="#c92a2a" stroke-width="1" fill="none"></path></g></g><g><g transform="translate(90.60714285714278 165.21825396825398) rotate(0 -10.12217291057594 -19.505087921395898)"><path d="M-0.41202998422086234 -0.29936832524836066 C-3.428571818893155 -2.3569364581257104, -14.003752607728044 -6.975460973754525, -17.408428063616157 -11.23105881549418 C-20.813103519504267 -15.486656657233834, -23.276664104685185 -21.25299725867808, -20.840082719549535 -25.83295537568629 C-18.403501334413885 -30.4129134926945, -5.730673649534583 -36.54773668386042, -2.7889397528022526 -38.71080751754344 M1.5725155447237196 -1.5021406413428486 C-1.6982320419636867 -3.385564295779914, -15.244341595737884 -8.606501196753232, -18.570898260641844 -12.94993944240734 C-21.8974549255458 -17.293377688061447, -20.98926847534254 -23.478573259841653, -18.386824444700032 -27.562770115267487 C-15.784380414057523 -31.64696697069332, -5.749825816322119 -35.6619796849601, -2.9562340767867865 -37.45512057496235" stroke="#c92a2a" stroke-width="1" fill="none"></path></g><g transform="translate(90.60714285714278 165.21825396825398) rotate(0 -10.12217291057594 -19.505087921395898)"><path d="M-22.814160475809455 -16.71905364127445 C-14.310363525526753 -25.029975120429864, -6.7246951183355606 -32.602704560870016, -2.474246606025845 -39.43791947355494 M-22.502045558136285 -16.61986263965803 C-16.740355917136498 -22.641513850428396, -10.917754428748168 -30.188116381732456, -3.416090718265623 -37.1950613998808" stroke="#c92a2a" stroke-width="1" fill="none"></path></g><g transform="translate(90.60714285714278 165.21825396825398) rotate(0 -10.12217291057594 -19.505087921395898)"><path d="M-32.05146078187367 -34.17334037973805 C-20.08261062253952 -36.211440318411924, -9.193973873870323 -37.543065257531794, -2.474246606025845 -39.43791947355494 M-31.739345864200505 -34.07414937812163 C-23.16922855187018 -34.56130327969333, -14.430242297160738 -36.59726804190395, -3.416090718265623 -37.1950613998808" stroke="#c92a2a" stroke-width="1" fill="none"></path></g></g><g transform="translate(193.46428571428567 71.64682539682545) rotate(0 48 13)"><text x="0" y="18" font-family="Virgil, Segoe UI Emoji" font-size="20px" fill="#000000" text-anchor="start" style="white-space: pre;" direction="ltr">equivalent</text></g><g transform="translate(31.428571428571416 160.42857142857142) rotate(0 57.857142857142875 27.85714285714286)"><path d="M0.9138286467641592 -0.5773920472711325 C26.50386204770102 -0.0004539334481313828, 51.436216844511904 1.1091997182661935, 115.6511727159045 1.4724551383405924 M117.3452285302005 -0.7593329790979624 C113.44884263712119 18.372002062919954, 115.29760342079352 39.07502861799939, 116.77060023668625 57.072596508743516 M114.31817873168208 56.23412845257138 C87.99674114119264 55.193630680987354, 56.60447797392097 56.312315628478046, -0.975978696718812 56.24661640051221 M-0.6462826188653708 55.00599046397423 C2.1316275513730942 38.76390482764691, 1.1850373066030444 20.817082481724874, -1.358917122706771 -0.2884301785379648" stroke="#c92a2a" stroke-width="1.5" fill="none" stroke-dasharray="12 8"></path></g><g transform="translate(24.28571428571425 57.14285714285708) rotate(0 76.00000000000001 25.5)"><text x="0" y="17.5" font-family="Virgil, Segoe UI Emoji" font-size="20px" fill="#c92a2a" text-anchor="start" style="white-space: pre;" direction="ltr">Execution of </text><text x="0" y="43" font-family="Virgil, Segoe UI Emoji" font-size="20px" fill="#c92a2a" text-anchor="start" style="white-space: pre;" direction="ltr">Michelson script</text></g><g><g transform="translate(221.42857142857144 176.14285714285714) rotate(0 21.331494931717003 0.9913373858428542)"><path d="M-0.4013652238994837 0.8992771480232478 C6.608462970650618 0.8970086571183971, 35.71906050789567 0.47453853766479603, 43.06435508733347 0.570134960700375 M1.5887793042138219 0.3257937053963542 C8.370746012090567 0.4017020049673488, 35.26794840558829 1.242248058161224, 42.225096044556345 1.6568810662893476" stroke="#000000" stroke-width="1" fill="none"></path></g><g transform="translate(221.42857142857144 176.14285714285714) rotate(0 21.331494931717003 0.9913373858428542)"><path d="M23.27892033594569 8.459559321137887 C28.164400784183545 7.0598144740232405, 37.51535044116857 1.9685124566743717, 41.53906962597474 2.4756297136364402 M21.317142223258518 7.468281798730414 C30.446004011439914 5.073664599211796, 37.01414861882081 3.420543811145275, 41.888690824114825 1.0404851336670937" stroke="#000000" stroke-width="1" fill="none"></path></g><g transform="translate(221.42857142857144 176.14285714285714) rotate(0 21.331494931717003 0.9913373858428542)"><path d="M23.911446696549046 -6.192941647557944 C28.625452623981158 -1.9714336408338395, 37.73364994803516 -1.4393671869744082, 41.53906962597474 2.4756297136364402 M21.949668583861875 -7.1842191699654165 C30.686023782123947 -3.858544014566667, 37.006978476444985 0.2145004074722614, 41.888690824114825 1.0404851336670937" stroke="#000000" stroke-width="1" fill="none"></path></g></g><g><g transform="translate(260 190.42857142857142) rotate(0 -20.1334235786793 0.7862769892633708)"><path d="M0.04488475061953068 -0.5682028446346521 C-6.310952643890463 -0.4236446652561425, -32.63024728218358 -0.009415427222847828, -39.0909419307219 0.17063355110585698 M-1.3906894846446813 1.7478867165930572 C-7.866362800084584 2.1727056883461775, -33.94974597428259 2.3492182617075743, -40.31173190797811 1.797641416657716" stroke="#000000" stroke-width="1" fill="none"></path></g><g transform="translate(260 190.42857142857142) rotate(0 -20.1334235786793 0.7862769892633708)"><path d="M-22.904698968104796 -5.062940789376452 C-25.78894816267577 -3.13108658436524, -29.27685735320239 -2.938456536298086, -39.395738721000285 3.276198594676597 M-21.566592917982003 -5.060081026207324 C-26.986487172864262 -2.5333486902601696, -30.93051248297356 -1.504214114529542, -41.0994354954854 2.2720545662154574" stroke="#000000" stroke-width="1" fill="none"></path></g><g transform="translate(260 190.42857142857142) rotate(0 -20.1334235786793 0.7862769892633708)"><path d="M-23.31760214989309 8.122801421919025 C-26.034316245979223 7.1491520688800465, -29.431246265599636 4.436433001033214, -39.395738721000285 3.276198594676597 M-21.979496099770298 8.125661185088155 C-27.21115458811887 7.47268138527863, -31.05567090109799 5.324073473822962, -41.0994354954854 2.2720545662154574" stroke="#000000" stroke-width="1" fill="none"></path></g></g><g><g transform="translate(240 109) rotate(0 -1.4174101343644168 27.823975522124343)"><path d="M-0.33374709226191046 0.8941094253212214 C-0.7693291266227011 9.989919271586198, -1.947686042618873 45.42798912434706, -2.5010731764669685 54.75384161892747" stroke="#000000" stroke-width="1.5" fill="none" stroke-dasharray="3 6"></path></g></g><g><g transform="translate(384.2857142857143 100.42857142857142) rotate(0 -2.62457236567775 30.010193510619658)"><path d="M-0.5916416790336371 0.8645113673061131 C-1.3885182951709945 10.680992848018096, -4.0160108813749344 49.57684038598978, -4.657503052321863 59.155875653933215" stroke="#000000" stroke-width="1.5" fill="none" stroke-dasharray="3 6"></path></g></g><g><g transform="translate(107.14285714285717 113.28571428571428) rotate(0 -5.337419675875992 19.157682933072948)"><path d="M1.1875103797763586 0.7135421846061945 C-0.9263113498155613 6.872452100916278, -9.58387231651164 31.537504905976707, -11.862349731528365 37.60182368153972" stroke="#000000" stroke-width="1.5" fill="none" stroke-dasharray="3 6"></path></g></g><g transform="translate(10 43.28571428571428) rotate(0 237.14285714285714 97.14285714285715)"><path d="M0.38039343161383743 0.16604943155005092 C143.0358224246035 -0.5274320188459827, 284.7904981349312 -1.4215365535839612, 473.5665942252038 0.6787808120075713 M472.85582035061503 1.5898588243871927 C476.22128576205245 66.47864632069, 474.5656392590808 133.85967663010317, 474.10256492373134 193.482862007139 M473.6893977872917 194.681518355892 C296.1678595460409 192.64838060417904, 117.38668929202558 192.9153559533375, -0.2732360489657771 194.8730883729718 M0.15945479832589626 195.32828427505282 C2.314772702274578 133.19157257010895, 0.34446135860468674 71.53739908843167, -1.4420920256525278 0.7758297268301249" stroke="#364fc7" stroke-width="1.5" fill="none" stroke-dasharray="12 8"></path></g><g transform="translate(21.428571428571416 10) rotate(0 42.499999999999986 13)"><text x="0" y="18" font-family="Virgil, Segoe UI Emoji" font-size="20px" fill="#364fc7" text-anchor="start" style="white-space: pre;" direction="ltr">Theorem</text></g></svg>