<svg width="687" height="296" viewBox="0 0 687 296" fill="none" xmlns="http://www.w3.org/2000/svg">
<g filter="url(#filter0_d)">
<rect y="25" width="683" height="267" rx="8" fill="white"/>
<g clip-path="url(#clip0)">
<g filter="url(#filter1_d)">
<rect x="32" y="47" width="177" height="108" rx="8" fill="#EEEEFF"/>
<rect x="32.5" y="47.5" width="176" height="107" rx="7.5" stroke="#5452F6"/>
</g>
<g filter="url(#filter2_d)">
<path d="M134 154L126.413 166.415C124.853 168.967 121.147 168.967 119.587 166.415L112 154L134 154Z" fill="#EEEEFF"/>
</g>
<path d="M134 154.5L126.387 166.612C124.818 169.107 121.182 169.107 119.613 166.612L112 154.5" stroke="#5452F6" stroke-linecap="round" stroke-linejoin="round"/>
<path d="M59.8047 78.9219H55.1328V82.4219H60.5938V84H53.1562V72.625H60.5391V74.2188H55.1328V77.3594H59.8047V78.9219ZM65.0547 78.3281L66.6641 75.5469H68.7734L66.1875 79.7109L68.8594 84H66.7656L65.0781 81.1094L63.3984 84H61.2891L63.9609 79.7109L61.3828 75.5469H63.4766L65.0547 78.3281ZM73.6328 84.1562C72.4297 84.1562 71.4531 83.7786 70.7031 83.0234C69.9583 82.263 69.5859 81.2526 69.5859 79.9922V79.7578C69.5859 78.9141 69.7474 78.1615 70.0703 77.5C70.3984 76.8333 70.8568 76.3151 71.4453 75.9453C72.0339 75.5755 72.6901 75.3906 73.4141 75.3906C74.5651 75.3906 75.4531 75.7578 76.0781 76.4922C76.7083 77.2266 77.0234 78.2656 77.0234 79.6094V80.375H71.5C71.5573 81.0729 71.7891 81.625 72.1953 82.0312C72.6068 82.4375 73.1224 82.6406 73.7422 82.6406C74.612 82.6406 75.3203 82.2891 75.8672 81.5859L76.8906 82.5625C76.5521 83.0677 76.099 83.4609 75.5312 83.7422C74.9688 84.0182 74.3359 84.1562 73.6328 84.1562ZM73.4062 76.9141C72.8854 76.9141 72.4635 77.0964 72.1406 77.4609C71.8229 77.8255 71.6198 78.3333 71.5312 78.9844H75.1484V78.8438C75.1068 78.2083 74.9375 77.7292 74.6406 77.4062C74.3438 77.0781 73.9323 76.9141 73.4062 76.9141ZM81.9766 82.6406C82.4505 82.6406 82.8438 82.5026 83.1562 82.2266C83.4688 81.9505 83.6354 81.6094 83.6562 81.2031H85.4453C85.4245 81.7292 85.2604 82.2214 84.9531 82.6797C84.6458 83.1328 84.2292 83.4922 83.7031 83.7578C83.1771 84.0234 82.6094 84.1562 82 84.1562C80.8177 84.1562 79.8802 83.7734 79.1875 83.0078C78.4948 82.2422 78.1484 81.1849 78.1484 79.8359V79.6406C78.1484 78.3542 78.4922 77.3255 79.1797 76.5547C79.8672 75.7786 80.8047 75.3906 81.9922 75.3906C82.9974 75.3906 83.8151 75.6849 84.4453 76.2734C85.0807 76.8568 85.4141 77.625 85.4453 78.5781H83.6562C83.6354 78.0938 83.4688 77.6953 83.1562 77.3828C82.849 77.0703 82.4557 76.9141 81.9766 76.9141C81.362 76.9141 80.888 77.138 80.5547 77.5859C80.2214 78.0286 80.0521 78.7031 80.0469 79.6094V79.9141C80.0469 80.8307 80.2109 81.5156 80.5391 81.9688C80.8724 82.4167 81.3516 82.6406 81.9766 82.6406ZM92 83.1719C91.4427 83.8281 90.651 84.1562 89.625 84.1562C88.7083 84.1562 88.013 83.888 87.5391 83.3516C87.0703 82.8151 86.8359 82.0391 86.8359 81.0234V75.5469H88.7344V81C88.7344 82.0729 89.1797 82.6094 90.0703 82.6094C90.9922 82.6094 91.6146 82.2786 91.9375 81.6172V75.5469H93.8359V84H92.0469L92 83.1719ZM98.1484 73.4922V75.5469H99.6406V76.9531H98.1484V81.6719C98.1484 81.9948 98.2109 82.2292 98.3359 82.375C98.4661 82.5156 98.6953 82.5859 99.0234 82.5859C99.2422 82.5859 99.4635 82.5599 99.6875 82.5078V83.9766C99.2552 84.0964 98.8385 84.1562 98.4375 84.1562C96.9792 84.1562 96.25 83.3516 96.25 81.7422V76.9531H94.8594V75.5469H96.25V73.4922H98.1484ZM103.117 84H101.219V75.5469H103.117V84ZM101.102 73.3516C101.102 73.0599 101.193 72.8177 101.375 72.625C101.562 72.4323 101.828 72.3359 102.172 72.3359C102.516 72.3359 102.781 72.4323 102.969 72.625C103.156 72.8177 103.25 73.0599 103.25 73.3516C103.25 73.638 103.156 73.8776 102.969 74.0703C102.781 74.2578 102.516 74.3516 102.172 74.3516C101.828 74.3516 101.562 74.2578 101.375 74.0703C101.193 73.8776 101.102 73.638 101.102 73.3516ZM104.836 79.6953C104.836 78.8672 105 78.1224 105.328 77.4609C105.656 76.7943 106.117 76.2839 106.711 75.9297C107.305 75.5703 107.987 75.3906 108.758 75.3906C109.898 75.3906 110.823 75.7578 111.531 76.4922C112.245 77.2266 112.63 78.2005 112.688 79.4141L112.695 79.8594C112.695 80.6927 112.534 81.4375 112.211 82.0938C111.893 82.75 111.435 83.2578 110.836 83.6172C110.242 83.9766 109.555 84.1562 108.773 84.1562C107.581 84.1562 106.625 83.7604 105.906 82.9688C105.193 82.1719 104.836 81.112 104.836 79.7891V79.6953ZM106.734 79.8594C106.734 80.7292 106.914 81.4115 107.273 81.9062C107.633 82.3958 108.133 82.6406 108.773 82.6406C109.414 82.6406 109.911 82.3906 110.266 81.8906C110.625 81.3906 110.805 80.6589 110.805 79.6953C110.805 78.8411 110.62 78.1641 110.25 77.6641C109.885 77.1641 109.388 76.9141 108.758 76.9141C108.138 76.9141 107.646 77.1615 107.281 77.6562C106.917 78.1458 106.734 78.8802 106.734 79.8594ZM116.062 75.5469L116.117 76.5234C116.742 75.7682 117.562 75.3906 118.578 75.3906C120.339 75.3906 121.234 76.3984 121.266 78.4141V84H119.367V78.5234C119.367 77.987 119.25 77.5911 119.016 77.3359C118.786 77.0755 118.409 76.9453 117.883 76.9453C117.117 76.9453 116.547 77.2917 116.172 77.9844V84H114.273V75.5469H116.062ZM126.836 79.6953C126.836 78.8672 127 78.1224 127.328 77.4609C127.656 76.7943 128.117 76.2839 128.711 75.9297C129.305 75.5703 129.987 75.3906 130.758 75.3906C131.898 75.3906 132.823 75.7578 133.531 76.4922C134.245 77.2266 134.63 78.2005 134.688 79.4141L134.695 79.8594C134.695 80.6927 134.534 81.4375 134.211 82.0938C133.893 82.75 133.435 83.2578 132.836 83.6172C132.242 83.9766 131.555 84.1562 130.773 84.1562C129.581 84.1562 128.625 83.7604 127.906 82.9688C127.193 82.1719 126.836 81.112 126.836 79.7891V79.6953ZM128.734 79.8594C128.734 80.7292 128.914 81.4115 129.273 81.9062C129.633 82.3958 130.133 82.6406 130.773 82.6406C131.414 82.6406 131.911 82.3906 132.266 81.8906C132.625 81.3906 132.805 80.6589 132.805 79.6953C132.805 78.8411 132.62 78.1641 132.25 77.6641C131.885 77.1641 131.388 76.9141 130.758 76.9141C130.138 76.9141 129.646 77.1615 129.281 77.6562C128.917 78.1458 128.734 78.8802 128.734 79.8594ZM136.969 84V76.9531H135.68V75.5469H136.969V74.7734C136.969 73.8359 137.229 73.112 137.75 72.6016C138.271 72.0911 139 71.8359 139.938 71.8359C140.271 71.8359 140.625 71.8828 141 71.9766L140.953 73.4609C140.745 73.4193 140.503 73.3984 140.227 73.3984C139.32 73.3984 138.867 73.8646 138.867 74.7969V75.5469H140.586V76.9531H138.867V84H136.969ZM151.008 84C150.924 83.8385 150.852 83.5755 150.789 83.2109C150.185 83.8411 149.445 84.1562 148.57 84.1562C147.721 84.1562 147.029 83.9141 146.492 83.4297C145.956 82.9453 145.688 82.3464 145.688 81.6328C145.688 80.7318 146.021 80.0417 146.688 79.5625C147.359 79.0781 148.318 78.8359 149.562 78.8359H150.727V78.2812C150.727 77.8438 150.604 77.4948 150.359 77.2344C150.115 76.9688 149.742 76.8359 149.242 76.8359C148.81 76.8359 148.456 76.9453 148.18 77.1641C147.904 77.3776 147.766 77.651 147.766 77.9844H145.867C145.867 77.5208 146.021 77.0885 146.328 76.6875C146.635 76.2812 147.052 75.9635 147.578 75.7344C148.109 75.5052 148.701 75.3906 149.352 75.3906C150.341 75.3906 151.13 75.6406 151.719 76.1406C152.307 76.6354 152.609 77.3333 152.625 78.2344V82.0469C152.625 82.8073 152.732 83.4141 152.945 83.8672V84H151.008ZM148.922 82.6328C149.297 82.6328 149.648 82.5417 149.977 82.3594C150.31 82.1771 150.56 81.9323 150.727 81.625V80.0312H149.703C149 80.0312 148.471 80.1536 148.117 80.3984C147.763 80.6432 147.586 80.9896 147.586 81.4375C147.586 81.8021 147.706 82.0938 147.945 82.3125C148.19 82.526 148.516 82.6328 148.922 82.6328ZM55.7188 96.625L59 105.344L62.2734 96.625H64.8281V108H62.8594V104.25L63.0547 99.2344L59.6953 108H58.2812L54.9297 99.2422L55.125 104.25V108H53.1562V96.625H55.7188ZM69.0078 108H67.1094V99.5469H69.0078V108ZM66.9922 97.3516C66.9922 97.0599 67.0833 96.8177 67.2656 96.625C67.4531 96.4323 67.7188 96.3359 68.0625 96.3359C68.4062 96.3359 68.6719 96.4323 68.8594 96.625C69.0469 96.8177 69.1406 97.0599 69.1406 97.3516C69.1406 97.638 69.0469 97.8776 68.8594 98.0703C68.6719 98.2578 68.4062 98.3516 68.0625 98.3516C67.7188 98.3516 67.4531 98.2578 67.2656 98.0703C67.0833 97.8776 66.9922 97.638 66.9922 97.3516ZM74.5547 106.641C75.0286 106.641 75.4219 106.503 75.7344 106.227C76.0469 105.951 76.2135 105.609 76.2344 105.203H78.0234C78.0026 105.729 77.8385 106.221 77.5312 106.68C77.224 107.133 76.8073 107.492 76.2812 107.758C75.7552 108.023 75.1875 108.156 74.5781 108.156C73.3958 108.156 72.4583 107.773 71.7656 107.008C71.0729 106.242 70.7266 105.185 70.7266 103.836V103.641C70.7266 102.354 71.0703 101.326 71.7578 100.555C72.4453 99.7786 73.3828 99.3906 74.5703 99.3906C75.5755 99.3906 76.3932 99.6849 77.0234 100.273C77.6589 100.857 77.9922 101.625 78.0234 102.578H76.2344C76.2135 102.094 76.0469 101.695 75.7344 101.383C75.4271 101.07 75.0339 100.914 74.5547 100.914C73.9401 100.914 73.4661 101.138 73.1328 101.586C72.7995 102.029 72.6302 102.703 72.625 103.609V103.914C72.625 104.831 72.7891 105.516 73.1172 105.969C73.4505 106.417 73.9297 106.641 74.5547 106.641ZM81.3281 100.469C81.9479 99.75 82.7318 99.3906 83.6797 99.3906C85.4818 99.3906 86.3958 100.419 86.4219 102.477V108H84.5234V102.547C84.5234 101.964 84.3958 101.552 84.1406 101.312C83.8906 101.068 83.5208 100.945 83.0312 100.945C82.2708 100.945 81.7031 101.284 81.3281 101.961V108H79.4297V96H81.3281V100.469ZM92.0703 108.156C90.8672 108.156 89.8906 107.779 89.1406 107.023C88.3958 106.263 88.0234 105.253 88.0234 103.992V103.758C88.0234 102.914 88.1849 102.161 88.5078 101.5C88.8359 100.833 89.2943 100.315 89.8828 99.9453C90.4714 99.5755 91.1276 99.3906 91.8516 99.3906C93.0026 99.3906 93.8906 99.7578 94.5156 100.492C95.1458 101.227 95.4609 102.266 95.4609 103.609V104.375H89.9375C89.9948 105.073 90.2266 105.625 90.6328 106.031C91.0443 106.438 91.5599 106.641 92.1797 106.641C93.0495 106.641 93.7578 106.289 94.3047 105.586L95.3281 106.562C94.9896 107.068 94.5365 107.461 93.9688 107.742C93.4062 108.018 92.7734 108.156 92.0703 108.156ZM91.8438 100.914C91.3229 100.914 90.901 101.096 90.5781 101.461C90.2604 101.826 90.0573 102.333 89.9688 102.984H93.5859V102.844C93.5443 102.208 93.375 101.729 93.0781 101.406C92.7812 101.078 92.3698 100.914 91.8438 100.914ZM98.9609 108H97.0625V96H98.9609V108ZM105.773 105.703C105.773 105.365 105.633 105.107 105.352 104.93C105.076 104.753 104.615 104.596 103.969 104.461C103.323 104.326 102.784 104.154 102.352 103.945C101.404 103.487 100.93 102.823 100.93 101.953C100.93 101.224 101.237 100.615 101.852 100.125C102.466 99.6354 103.247 99.3906 104.195 99.3906C105.206 99.3906 106.021 99.6406 106.641 100.141C107.266 100.641 107.578 101.289 107.578 102.086H105.68C105.68 101.721 105.544 101.419 105.273 101.18C105.003 100.935 104.643 100.812 104.195 100.812C103.779 100.812 103.438 100.909 103.172 101.102C102.911 101.294 102.781 101.552 102.781 101.875C102.781 102.167 102.904 102.393 103.148 102.555C103.393 102.716 103.888 102.88 104.633 103.047C105.378 103.208 105.961 103.404 106.383 103.633C106.81 103.857 107.125 104.128 107.328 104.445C107.536 104.763 107.641 105.148 107.641 105.602C107.641 106.362 107.326 106.979 106.695 107.453C106.065 107.922 105.24 108.156 104.219 108.156C103.526 108.156 102.909 108.031 102.367 107.781C101.826 107.531 101.404 107.188 101.102 106.75C100.799 106.312 100.648 105.841 100.648 105.336H102.492C102.518 105.784 102.688 106.13 103 106.375C103.312 106.615 103.727 106.734 104.242 106.734C104.742 106.734 105.122 106.641 105.383 106.453C105.643 106.26 105.773 106.01 105.773 105.703ZM108.945 103.695C108.945 102.867 109.109 102.122 109.438 101.461C109.766 100.794 110.227 100.284 110.82 99.9297C111.414 99.5703 112.096 99.3906 112.867 99.3906C114.008 99.3906 114.932 99.7578 115.641 100.492C116.354 101.227 116.74 102.201 116.797 103.414L116.805 103.859C116.805 104.693 116.643 105.438 116.32 106.094C116.003 106.75 115.544 107.258 114.945 107.617C114.352 107.977 113.664 108.156 112.883 108.156C111.69 108.156 110.734 107.76 110.016 106.969C109.302 106.172 108.945 105.112 108.945 103.789V103.695ZM110.844 103.859C110.844 104.729 111.023 105.411 111.383 105.906C111.742 106.396 112.242 106.641 112.883 106.641C113.523 106.641 114.021 106.391 114.375 105.891C114.734 105.391 114.914 104.659 114.914 103.695C114.914 102.841 114.729 102.164 114.359 101.664C113.995 101.164 113.497 100.914 112.867 100.914C112.247 100.914 111.755 101.161 111.391 101.656C111.026 102.146 110.844 102.88 110.844 103.859ZM120.172 99.5469L120.227 100.523C120.852 99.7682 121.672 99.3906 122.688 99.3906C124.448 99.3906 125.344 100.398 125.375 102.414V108H123.477V102.523C123.477 101.987 123.359 101.591 123.125 101.336C122.896 101.076 122.518 100.945 121.992 100.945C121.227 100.945 120.656 101.292 120.281 101.984V108H118.383V99.5469H120.172ZM136.039 105.703C136.039 105.365 135.898 105.107 135.617 104.93C135.341 104.753 134.88 104.596 134.234 104.461C133.589 104.326 133.049 104.154 132.617 103.945C131.669 103.487 131.195 102.823 131.195 101.953C131.195 101.224 131.503 100.615 132.117 100.125C132.732 99.6354 133.513 99.3906 134.461 99.3906C135.471 99.3906 136.286 99.6406 136.906 100.141C137.531 100.641 137.844 101.289 137.844 102.086H135.945C135.945 101.721 135.81 101.419 135.539 101.18C135.268 100.935 134.909 100.812 134.461 100.812C134.044 100.812 133.703 100.909 133.438 101.102C133.177 101.294 133.047 101.552 133.047 101.875C133.047 102.167 133.169 102.393 133.414 102.555C133.659 102.716 134.154 102.88 134.898 103.047C135.643 103.208 136.227 103.404 136.648 103.633C137.076 103.857 137.391 104.128 137.594 104.445C137.802 104.763 137.906 105.148 137.906 105.602C137.906 106.362 137.591 106.979 136.961 107.453C136.331 107.922 135.505 108.156 134.484 108.156C133.792 108.156 133.174 108.031 132.633 107.781C132.091 107.531 131.669 107.188 131.367 106.75C131.065 106.312 130.914 105.841 130.914 105.336H132.758C132.784 105.784 132.953 106.13 133.266 106.375C133.578 106.615 133.992 106.734 134.508 106.734C135.008 106.734 135.388 106.641 135.648 106.453C135.909 106.26 136.039 106.01 136.039 105.703ZM143.039 106.641C143.513 106.641 143.906 106.503 144.219 106.227C144.531 105.951 144.698 105.609 144.719 105.203H146.508C146.487 105.729 146.323 106.221 146.016 106.68C145.708 107.133 145.292 107.492 144.766 107.758C144.24 108.023 143.672 108.156 143.062 108.156C141.88 108.156 140.943 107.773 140.25 107.008C139.557 106.242 139.211 105.185 139.211 103.836V103.641C139.211 102.354 139.555 101.326 140.242 100.555C140.93 99.7786 141.867 99.3906 143.055 99.3906C144.06 99.3906 144.878 99.6849 145.508 100.273C146.143 100.857 146.477 101.625 146.508 102.578H144.719C144.698 102.094 144.531 101.695 144.219 101.383C143.911 101.07 143.518 100.914 143.039 100.914C142.424 100.914 141.951 101.138 141.617 101.586C141.284 102.029 141.115 102.703 141.109 103.609V103.914C141.109 104.831 141.273 105.516 141.602 105.969C141.935 106.417 142.414 106.641 143.039 106.641ZM152.367 101.281C152.117 101.24 151.859 101.219 151.594 101.219C150.724 101.219 150.138 101.552 149.836 102.219V108H147.938V99.5469H149.75L149.797 100.492C150.255 99.7578 150.891 99.3906 151.703 99.3906C151.974 99.3906 152.198 99.4271 152.375 99.5L152.367 101.281ZM155.586 108H153.688V99.5469H155.586V108ZM153.57 97.3516C153.57 97.0599 153.661 96.8177 153.844 96.625C154.031 96.4323 154.297 96.3359 154.641 96.3359C154.984 96.3359 155.25 96.4323 155.438 96.625C155.625 96.8177 155.719 97.0599 155.719 97.3516C155.719 97.638 155.625 97.8776 155.438 98.0703C155.25 98.2578 154.984 98.3516 154.641 98.3516C154.297 98.3516 154.031 98.2578 153.844 98.0703C153.661 97.8776 153.57 97.638 153.57 97.3516ZM165.062 103.859C165.062 105.167 164.766 106.211 164.172 106.992C163.578 107.768 162.781 108.156 161.781 108.156C160.854 108.156 160.112 107.852 159.555 107.242V111.25H157.656V99.5469H159.406L159.484 100.406C160.042 99.7292 160.799 99.3906 161.758 99.3906C162.789 99.3906 163.596 99.776 164.18 100.547C164.768 101.312 165.062 102.378 165.062 103.742V103.859ZM163.172 103.695C163.172 102.852 163.003 102.182 162.664 101.688C162.331 101.193 161.852 100.945 161.227 100.945C160.451 100.945 159.893 101.266 159.555 101.906V105.656C159.898 106.312 160.461 106.641 161.242 106.641C161.846 106.641 162.318 106.398 162.656 105.914C163 105.424 163.172 104.685 163.172 103.695ZM169.055 97.4922V99.5469H170.547V100.953H169.055V105.672C169.055 105.995 169.117 106.229 169.242 106.375C169.372 106.516 169.602 106.586 169.93 106.586C170.148 106.586 170.37 106.56 170.594 106.508V107.977C170.161 108.096 169.745 108.156 169.344 108.156C167.885 108.156 167.156 107.352 167.156 105.742V100.953H165.766V99.5469H167.156V97.4922H169.055Z" fill="#5452F6"/>
</g>
<g clip-path="url(#clip1)">
<g filter="url(#filter3_d)">
<rect x="251" y="47" width="177" height="108" rx="8" fill="#EEEEFF"/>
<rect x="251.5" y="47.5" width="176" height="107" rx="7.5" stroke="#5452F6"/>
</g>
<g filter="url(#filter4_d)">
<path d="M353 154L345.413 166.415C343.853 168.967 340.147 168.967 338.587 166.415L331 154L353 154Z" fill="#EEEEFF"/>
</g>
<path d="M353 154.5L345.387 166.612C343.818 169.107 340.182 169.107 338.613 166.612L331 154.5" stroke="#5452F6" stroke-linecap="round" stroke-linejoin="round"/>
<path d="M275.695 82.1562C274.492 82.1562 273.516 81.7786 272.766 81.0234C272.021 80.263 271.648 79.2526 271.648 77.9922V77.7578C271.648 76.9141 271.81 76.1615 272.133 75.5C272.461 74.8333 272.919 74.3151 273.508 73.9453C274.096 73.5755 274.753 73.3906 275.477 73.3906C276.628 73.3906 277.516 73.7578 278.141 74.4922C278.771 75.2266 279.086 76.2656 279.086 77.6094V78.375H273.562C273.62 79.0729 273.852 79.625 274.258 80.0312C274.669 80.4375 275.185 80.6406 275.805 80.6406C276.674 80.6406 277.383 80.2891 277.93 79.5859L278.953 80.5625C278.615 81.0677 278.161 81.4609 277.594 81.7422C277.031 82.0182 276.398 82.1562 275.695 82.1562ZM275.469 74.9141C274.948 74.9141 274.526 75.0964 274.203 75.4609C273.885 75.8255 273.682 76.3333 273.594 76.9844H277.211V76.8438C277.169 76.2083 277 75.7292 276.703 75.4062C276.406 75.0781 275.995 74.9141 275.469 74.9141ZM280.211 77.7031C280.211 76.3802 280.513 75.3307 281.117 74.5547C281.721 73.7786 282.539 73.3906 283.57 73.3906C284.513 73.3906 285.26 73.7214 285.812 74.3828L285.922 73.5469H287.609V85.25H285.711V81.2812C285.159 81.8646 284.44 82.1562 283.555 82.1562C282.544 82.1562 281.734 81.763 281.125 80.9766C280.516 80.1849 280.211 79.0938 280.211 77.7031ZM282.109 77.8672C282.109 78.7318 282.279 79.4115 282.617 79.9062C282.961 80.3958 283.435 80.6406 284.039 80.6406C284.789 80.6406 285.346 80.3203 285.711 79.6797V75.8359C285.346 75.2214 284.794 74.9141 284.055 74.9141C283.451 74.9141 282.974 75.1562 282.625 75.6406C282.281 76.125 282.109 76.8672 282.109 77.8672ZM294.781 81.1719C294.224 81.8281 293.432 82.1562 292.406 82.1562C291.49 82.1562 290.794 81.888 290.32 81.3516C289.852 80.8151 289.617 80.0391 289.617 79.0234V73.5469H291.516V79C291.516 80.0729 291.961 80.6094 292.852 80.6094C293.773 80.6094 294.396 80.2786 294.719 79.6172V73.5469H296.617V82H294.828L294.781 81.1719ZM300.57 82H298.672V73.5469H300.57V82ZM298.555 71.3516C298.555 71.0599 298.646 70.8177 298.828 70.625C299.016 70.4323 299.281 70.3359 299.625 70.3359C299.969 70.3359 300.234 70.4323 300.422 70.625C300.609 70.8177 300.703 71.0599 300.703 71.3516C300.703 71.638 300.609 71.8776 300.422 72.0703C300.234 72.2578 299.969 72.3516 299.625 72.3516C299.281 72.3516 299.016 72.2578 298.828 72.0703C298.646 71.8776 298.555 71.638 298.555 71.3516ZM305.625 79.5938L307.414 73.5469H309.375L306.445 82H304.797L301.844 73.5469H303.812L305.625 79.5938ZM315.492 82C315.409 81.8385 315.336 81.5755 315.273 81.2109C314.669 81.8411 313.93 82.1562 313.055 82.1562C312.206 82.1562 311.513 81.9141 310.977 81.4297C310.44 80.9453 310.172 80.3464 310.172 79.6328C310.172 78.7318 310.505 78.0417 311.172 77.5625C311.844 77.0781 312.802 76.8359 314.047 76.8359H315.211V76.2812C315.211 75.8438 315.089 75.4948 314.844 75.2344C314.599 74.9688 314.227 74.8359 313.727 74.8359C313.294 74.8359 312.94 74.9453 312.664 75.1641C312.388 75.3776 312.25 75.651 312.25 75.9844H310.352C310.352 75.5208 310.505 75.0885 310.812 74.6875C311.12 74.2812 311.536 73.9635 312.062 73.7344C312.594 73.5052 313.185 73.3906 313.836 73.3906C314.826 73.3906 315.615 73.6406 316.203 74.1406C316.792 74.6354 317.094 75.3333 317.109 76.2344V80.0469C317.109 80.8073 317.216 81.4141 317.43 81.8672V82H315.492ZM313.406 80.6328C313.781 80.6328 314.133 80.5417 314.461 80.3594C314.794 80.1771 315.044 79.9323 315.211 79.625V78.0312H314.188C313.484 78.0312 312.956 78.1536 312.602 78.3984C312.247 78.6432 312.07 78.9896 312.07 79.4375C312.07 79.8021 312.19 80.0938 312.43 80.3125C312.674 80.526 313 80.6328 313.406 80.6328ZM321.117 82H319.219V70H321.117V82ZM326.914 82.1562C325.711 82.1562 324.734 81.7786 323.984 81.0234C323.24 80.263 322.867 79.2526 322.867 77.9922V77.7578C322.867 76.9141 323.029 76.1615 323.352 75.5C323.68 74.8333 324.138 74.3151 324.727 73.9453C325.315 73.5755 325.971 73.3906 326.695 73.3906C327.846 73.3906 328.734 73.7578 329.359 74.4922C329.99 75.2266 330.305 76.2656 330.305 77.6094V78.375H324.781C324.839 79.0729 325.07 79.625 325.477 80.0312C325.888 80.4375 326.404 80.6406 327.023 80.6406C327.893 80.6406 328.602 80.2891 329.148 79.5859L330.172 80.5625C329.833 81.0677 329.38 81.4609 328.812 81.7422C328.25 82.0182 327.617 82.1562 326.914 82.1562ZM326.688 74.9141C326.167 74.9141 325.745 75.0964 325.422 75.4609C325.104 75.8255 324.901 76.3333 324.812 76.9844H328.43V76.8438C328.388 76.2083 328.219 75.7292 327.922 75.4062C327.625 75.0781 327.214 74.9141 326.688 74.9141ZM333.547 73.5469L333.602 74.5234C334.227 73.7682 335.047 73.3906 336.062 73.3906C337.823 73.3906 338.719 74.3984 338.75 76.4141V82H336.852V76.5234C336.852 75.987 336.734 75.5911 336.5 75.3359C336.271 75.0755 335.893 74.9453 335.367 74.9453C334.602 74.9453 334.031 75.2917 333.656 75.9844V82H331.758V73.5469H333.547ZM343.07 71.4922V73.5469H344.562V74.9531H343.07V79.6719C343.07 79.9948 343.133 80.2292 343.258 80.375C343.388 80.5156 343.617 80.5859 343.945 80.5859C344.164 80.5859 344.385 80.5599 344.609 80.5078V81.9766C344.177 82.0964 343.76 82.1562 343.359 82.1562C341.901 82.1562 341.172 81.3516 341.172 79.7422V74.9531H339.781V73.5469H341.172V71.4922H343.07ZM352.383 71.4922V73.5469H353.875V74.9531H352.383V79.6719C352.383 79.9948 352.445 80.2292 352.57 80.375C352.701 80.5156 352.93 80.5859 353.258 80.5859C353.477 80.5859 353.698 80.5599 353.922 80.5078V81.9766C353.49 82.0964 353.073 82.1562 352.672 82.1562C351.214 82.1562 350.484 81.3516 350.484 79.7422V74.9531H349.094V73.5469H350.484V71.4922H352.383ZM354.742 77.6953C354.742 76.8672 354.906 76.1224 355.234 75.4609C355.562 74.7943 356.023 74.2839 356.617 73.9297C357.211 73.5703 357.893 73.3906 358.664 73.3906C359.805 73.3906 360.729 73.7578 361.438 74.4922C362.151 75.2266 362.536 76.2005 362.594 77.4141L362.602 77.8594C362.602 78.6927 362.44 79.4375 362.117 80.0938C361.799 80.75 361.341 81.2578 360.742 81.6172C360.148 81.9766 359.461 82.1562 358.68 82.1562C357.487 82.1562 356.531 81.7604 355.812 80.9688C355.099 80.1719 354.742 79.112 354.742 77.7891V77.6953ZM356.641 77.8594C356.641 78.7292 356.82 79.4115 357.18 79.9062C357.539 80.3958 358.039 80.6406 358.68 80.6406C359.32 80.6406 359.818 80.3906 360.172 79.8906C360.531 79.3906 360.711 78.6589 360.711 77.6953C360.711 76.8411 360.526 76.1641 360.156 75.6641C359.792 75.1641 359.294 74.9141 358.664 74.9141C358.044 74.9141 357.552 75.1615 357.188 75.6562C356.823 76.1458 356.641 76.8802 356.641 77.8594Z" fill="#5452F6"/>
</g>
<g clip-path="url(#clip2)">
<g filter="url(#filter5_d)">
<rect x="470" y="47" width="177" height="108" rx="8" fill="#EEEEFF"/>
<rect x="470.5" y="47.5" width="176" height="107" rx="7.5" stroke="#5452F6"/>
</g>
<g filter="url(#filter6_d)">
<path d="M572 154L564.413 166.415C562.853 168.967 559.147 168.967 557.587 166.415L550 154L572 154Z" fill="#EEEEFF"/>
</g>
<path d="M572 154.5L564.387 166.612C562.818 169.107 559.182 169.107 557.613 166.612L550 154.5" stroke="#5452F6" stroke-linecap="round" stroke-linejoin="round"/>
<path d="M498.375 77.8594C498.375 79.1667 498.078 80.2109 497.484 80.9922C496.891 81.7682 496.094 82.1562 495.094 82.1562C494.167 82.1562 493.424 81.8516 492.867 81.2422V85.25H490.969V73.5469H492.719L492.797 74.4062C493.354 73.7292 494.112 73.3906 495.07 73.3906C496.102 73.3906 496.909 73.776 497.492 74.5469C498.081 75.3125 498.375 76.3776 498.375 77.7422V77.8594ZM496.484 77.6953C496.484 76.8516 496.315 76.1823 495.977 75.6875C495.643 75.1927 495.164 74.9453 494.539 74.9453C493.763 74.9453 493.206 75.2656 492.867 75.9062V79.6562C493.211 80.3125 493.773 80.6406 494.555 80.6406C495.159 80.6406 495.63 80.3984 495.969 79.9141C496.312 79.4245 496.484 78.6849 496.484 77.6953ZM499.633 77.6953C499.633 76.8672 499.797 76.1224 500.125 75.4609C500.453 74.7943 500.914 74.2839 501.508 73.9297C502.102 73.5703 502.784 73.3906 503.555 73.3906C504.695 73.3906 505.62 73.7578 506.328 74.4922C507.042 75.2266 507.427 76.2005 507.484 77.4141L507.492 77.8594C507.492 78.6927 507.331 79.4375 507.008 80.0938C506.69 80.75 506.232 81.2578 505.633 81.6172C505.039 81.9766 504.352 82.1562 503.57 82.1562C502.378 82.1562 501.422 81.7604 500.703 80.9688C499.99 80.1719 499.633 79.112 499.633 77.7891V77.6953ZM501.531 77.8594C501.531 78.7292 501.711 79.4115 502.07 79.9062C502.43 80.3958 502.93 80.6406 503.57 80.6406C504.211 80.6406 504.708 80.3906 505.062 79.8906C505.422 79.3906 505.602 78.6589 505.602 77.6953C505.602 76.8411 505.417 76.1641 505.047 75.6641C504.682 75.1641 504.185 74.9141 503.555 74.9141C502.935 74.9141 502.443 75.1615 502.078 75.6562C501.714 76.1458 501.531 76.8802 501.531 77.8594ZM513.836 79.7031C513.836 79.3646 513.695 79.1068 513.414 78.9297C513.138 78.7526 512.677 78.5964 512.031 78.4609C511.385 78.3255 510.846 78.1536 510.414 77.9453C509.466 77.487 508.992 76.8229 508.992 75.9531C508.992 75.224 509.299 74.6146 509.914 74.125C510.529 73.6354 511.31 73.3906 512.258 73.3906C513.268 73.3906 514.083 73.6406 514.703 74.1406C515.328 74.6406 515.641 75.2891 515.641 76.0859H513.742C513.742 75.7214 513.607 75.4193 513.336 75.1797C513.065 74.9349 512.706 74.8125 512.258 74.8125C511.841 74.8125 511.5 74.9089 511.234 75.1016C510.974 75.2943 510.844 75.5521 510.844 75.875C510.844 76.1667 510.966 76.3932 511.211 76.5547C511.456 76.7161 511.951 76.8802 512.695 77.0469C513.44 77.2083 514.023 77.4036 514.445 77.6328C514.872 77.8568 515.188 78.1276 515.391 78.4453C515.599 78.763 515.703 79.1484 515.703 79.6016C515.703 80.362 515.388 80.9792 514.758 81.4531C514.128 81.9219 513.302 82.1562 512.281 82.1562C511.589 82.1562 510.971 82.0312 510.43 81.7812C509.888 81.5312 509.466 81.1875 509.164 80.75C508.862 80.3125 508.711 79.8411 508.711 79.3359H510.555C510.581 79.7839 510.75 80.1302 511.062 80.375C511.375 80.6146 511.789 80.7344 512.305 80.7344C512.805 80.7344 513.185 80.6406 513.445 80.4531C513.706 80.2604 513.836 80.0104 513.836 79.7031ZM519.742 71.4922V73.5469H521.234V74.9531H519.742V79.6719C519.742 79.9948 519.805 80.2292 519.93 80.375C520.06 80.5156 520.289 80.5859 520.617 80.5859C520.836 80.5859 521.057 80.5599 521.281 80.5078V81.9766C520.849 82.0964 520.432 82.1562 520.031 82.1562C518.573 82.1562 517.844 81.3516 517.844 79.7422V74.9531H516.453V73.5469H517.844V71.4922H519.742ZM530.148 80.6406C530.622 80.6406 531.016 80.5026 531.328 80.2266C531.641 79.9505 531.807 79.6094 531.828 79.2031H533.617C533.596 79.7292 533.432 80.2214 533.125 80.6797C532.818 81.1328 532.401 81.4922 531.875 81.7578C531.349 82.0234 530.781 82.1562 530.172 82.1562C528.99 82.1562 528.052 81.7734 527.359 81.0078C526.667 80.2422 526.32 79.1849 526.32 77.8359V77.6406C526.32 76.3542 526.664 75.3255 527.352 74.5547C528.039 73.7786 528.977 73.3906 530.164 73.3906C531.169 73.3906 531.987 73.6849 532.617 74.2734C533.253 74.8568 533.586 75.625 533.617 76.5781H531.828C531.807 76.0938 531.641 75.6953 531.328 75.3828C531.021 75.0703 530.628 74.9141 530.148 74.9141C529.534 74.9141 529.06 75.138 528.727 75.5859C528.393 76.0286 528.224 76.7031 528.219 77.6094V77.9141C528.219 78.8307 528.383 79.5156 528.711 79.9688C529.044 80.4167 529.523 80.6406 530.148 80.6406ZM534.695 77.6953C534.695 76.8672 534.859 76.1224 535.188 75.4609C535.516 74.7943 535.977 74.2839 536.57 73.9297C537.164 73.5703 537.846 73.3906 538.617 73.3906C539.758 73.3906 540.682 73.7578 541.391 74.4922C542.104 75.2266 542.49 76.2005 542.547 77.4141L542.555 77.8594C542.555 78.6927 542.393 79.4375 542.07 80.0938C541.753 80.75 541.294 81.2578 540.695 81.6172C540.102 81.9766 539.414 82.1562 538.633 82.1562C537.44 82.1562 536.484 81.7604 535.766 80.9688C535.052 80.1719 534.695 79.112 534.695 77.7891V77.6953ZM536.594 77.8594C536.594 78.7292 536.773 79.4115 537.133 79.9062C537.492 80.3958 537.992 80.6406 538.633 80.6406C539.273 80.6406 539.771 80.3906 540.125 79.8906C540.484 79.3906 540.664 78.6589 540.664 77.6953C540.664 76.8411 540.479 76.1641 540.109 75.6641C539.745 75.1641 539.247 74.9141 538.617 74.9141C537.997 74.9141 537.505 75.1615 537.141 75.6562C536.776 76.1458 536.594 76.8802 536.594 77.8594ZM545.922 73.5469L545.977 74.5234C546.602 73.7682 547.422 73.3906 548.438 73.3906C550.198 73.3906 551.094 74.3984 551.125 76.4141V82H549.227V76.5234C549.227 75.987 549.109 75.5911 548.875 75.3359C548.646 75.0755 548.268 74.9453 547.742 74.9453C546.977 74.9453 546.406 75.2917 546.031 75.9844V82H544.133V73.5469H545.922ZM552.711 77.7109C552.711 76.4089 553.013 75.3646 553.617 74.5781C554.221 73.7865 555.031 73.3906 556.047 73.3906C556.943 73.3906 557.667 73.7031 558.219 74.3281V70H560.117V82H558.398L558.305 81.125C557.737 81.8125 556.979 82.1562 556.031 82.1562C555.042 82.1562 554.24 81.7578 553.625 80.9609C553.016 80.1641 552.711 79.0807 552.711 77.7109ZM554.609 77.875C554.609 78.7344 554.773 79.4062 555.102 79.8906C555.435 80.3698 555.906 80.6094 556.516 80.6094C557.292 80.6094 557.859 80.263 558.219 79.5703V75.9609C557.87 75.2839 557.307 74.9453 556.531 74.9453C555.917 74.9453 555.443 75.1901 555.109 75.6797C554.776 76.1641 554.609 76.8958 554.609 77.875ZM564.117 82H562.219V73.5469H564.117V82ZM562.102 71.3516C562.102 71.0599 562.193 70.8177 562.375 70.625C562.562 70.4323 562.828 70.3359 563.172 70.3359C563.516 70.3359 563.781 70.4323 563.969 70.625C564.156 70.8177 564.25 71.0599 564.25 71.3516C564.25 71.638 564.156 71.8776 563.969 72.0703C563.781 72.2578 563.516 72.3516 563.172 72.3516C562.828 72.3516 562.562 72.2578 562.375 72.0703C562.193 71.8776 562.102 71.638 562.102 71.3516ZM568.57 71.4922V73.5469H570.062V74.9531H568.57V79.6719C568.57 79.9948 568.633 80.2292 568.758 80.375C568.888 80.5156 569.117 80.5859 569.445 80.5859C569.664 80.5859 569.885 80.5599 570.109 80.5078V81.9766C569.677 82.0964 569.26 82.1562 568.859 82.1562C567.401 82.1562 566.672 81.3516 566.672 79.7422V74.9531H565.281V73.5469H566.672V71.4922H568.57ZM573.539 82H571.641V73.5469H573.539V82ZM571.523 71.3516C571.523 71.0599 571.615 70.8177 571.797 70.625C571.984 70.4323 572.25 70.3359 572.594 70.3359C572.938 70.3359 573.203 70.4323 573.391 70.625C573.578 70.8177 573.672 71.0599 573.672 71.3516C573.672 71.638 573.578 71.8776 573.391 72.0703C573.203 72.2578 572.938 72.3516 572.594 72.3516C572.25 72.3516 571.984 72.2578 571.797 72.0703C571.615 71.8776 571.523 71.638 571.523 71.3516ZM575.258 77.6953C575.258 76.8672 575.422 76.1224 575.75 75.4609C576.078 74.7943 576.539 74.2839 577.133 73.9297C577.727 73.5703 578.409 73.3906 579.18 73.3906C580.32 73.3906 581.245 73.7578 581.953 74.4922C582.667 75.2266 583.052 76.2005 583.109 77.4141L583.117 77.8594C583.117 78.6927 582.956 79.4375 582.633 80.0938C582.315 80.75 581.857 81.2578 581.258 81.6172C580.664 81.9766 579.977 82.1562 579.195 82.1562C578.003 82.1562 577.047 81.7604 576.328 80.9688C575.615 80.1719 575.258 79.112 575.258 77.7891V77.6953ZM577.156 77.8594C577.156 78.7292 577.336 79.4115 577.695 79.9062C578.055 80.3958 578.555 80.6406 579.195 80.6406C579.836 80.6406 580.333 80.3906 580.688 79.8906C581.047 79.3906 581.227 78.6589 581.227 77.6953C581.227 76.8411 581.042 76.1641 580.672 75.6641C580.307 75.1641 579.81 74.9141 579.18 74.9141C578.56 74.9141 578.068 75.1615 577.703 75.6562C577.339 76.1458 577.156 76.8802 577.156 77.8594ZM586.484 73.5469L586.539 74.5234C587.164 73.7682 587.984 73.3906 589 73.3906C590.76 73.3906 591.656 74.3984 591.688 76.4141V82H589.789V76.5234C589.789 75.987 589.672 75.5911 589.438 75.3359C589.208 75.0755 588.831 74.9453 588.305 74.9453C587.539 74.9453 586.969 75.2917 586.594 75.9844V82H584.695V73.5469H586.484ZM598.367 79.7031C598.367 79.3646 598.227 79.1068 597.945 78.9297C597.669 78.7526 597.208 78.5964 596.562 78.4609C595.917 78.3255 595.378 78.1536 594.945 77.9453C593.997 77.487 593.523 76.8229 593.523 75.9531C593.523 75.224 593.831 74.6146 594.445 74.125C595.06 73.6354 595.841 73.3906 596.789 73.3906C597.799 73.3906 598.615 73.6406 599.234 74.1406C599.859 74.6406 600.172 75.2891 600.172 76.0859H598.273C598.273 75.7214 598.138 75.4193 597.867 75.1797C597.596 74.9349 597.237 74.8125 596.789 74.8125C596.372 74.8125 596.031 74.9089 595.766 75.1016C595.505 75.2943 595.375 75.5521 595.375 75.875C595.375 76.1667 595.497 76.3932 595.742 76.5547C595.987 76.7161 596.482 76.8802 597.227 77.0469C597.971 77.2083 598.555 77.4036 598.977 77.6328C599.404 77.8568 599.719 78.1276 599.922 78.4453C600.13 78.763 600.234 79.1484 600.234 79.6016C600.234 80.362 599.919 80.9792 599.289 81.4531C598.659 81.9219 597.833 82.1562 596.812 82.1562C596.12 82.1562 595.503 82.0312 594.961 81.7812C594.419 81.5312 593.997 81.1875 593.695 80.75C593.393 80.3125 593.242 79.8411 593.242 79.3359H595.086C595.112 79.7839 595.281 80.1302 595.594 80.375C595.906 80.6146 596.32 80.7344 596.836 80.7344C597.336 80.7344 597.716 80.6406 597.977 80.4531C598.237 80.2604 598.367 80.0104 598.367 79.7031Z" fill="#5452F6"/>
</g>
<g filter="url(#filter7_d)">
<rect x="21" y="182" width="197" height="82" rx="8" fill="white"/>
<path d="M88.0859 207.625L91.8047 216.906L95.5234 207.625H97.4688V219H95.9688V214.57L96.1094 209.789L92.375 219H91.2266L87.5 209.812L87.6484 214.57V219H86.1484V207.625H88.0859ZM101.461 219H100.016V210.547H101.461V219ZM99.8984 208.305C99.8984 208.07 99.9688 207.872 100.109 207.711C100.255 207.549 100.469 207.469 100.75 207.469C101.031 207.469 101.245 207.549 101.391 207.711C101.536 207.872 101.609 208.07 101.609 208.305C101.609 208.539 101.536 208.734 101.391 208.891C101.245 209.047 101.031 209.125 100.75 209.125C100.469 209.125 100.255 209.047 100.109 208.891C99.9688 208.734 99.8984 208.539 99.8984 208.305ZM107.172 217.977C107.688 217.977 108.138 217.82 108.523 217.508C108.909 217.195 109.122 216.805 109.164 216.336H110.531C110.505 216.82 110.339 217.281 110.031 217.719C109.724 218.156 109.312 218.505 108.797 218.766C108.286 219.026 107.745 219.156 107.172 219.156C106.021 219.156 105.104 218.773 104.422 218.008C103.745 217.237 103.406 216.185 103.406 214.852V214.609C103.406 213.786 103.557 213.055 103.859 212.414C104.161 211.773 104.594 211.276 105.156 210.922C105.724 210.568 106.393 210.391 107.164 210.391C108.112 210.391 108.898 210.674 109.523 211.242C110.154 211.81 110.49 212.547 110.531 213.453H109.164C109.122 212.906 108.914 212.458 108.539 212.109C108.169 211.755 107.711 211.578 107.164 211.578C106.43 211.578 105.859 211.844 105.453 212.375C105.052 212.901 104.852 213.664 104.852 214.664V214.938C104.852 215.911 105.052 216.661 105.453 217.188C105.854 217.714 106.427 217.977 107.172 217.977ZM113.602 211.57C114.242 210.784 115.076 210.391 116.102 210.391C117.888 210.391 118.789 211.398 118.805 213.414V219H117.359V213.406C117.354 212.797 117.214 212.346 116.938 212.055C116.667 211.763 116.242 211.617 115.664 211.617C115.195 211.617 114.784 211.742 114.43 211.992C114.076 212.242 113.799 212.57 113.602 212.977V219H112.156V207H113.602V211.57ZM124.477 219.156C123.331 219.156 122.398 218.781 121.68 218.031C120.961 217.276 120.602 216.268 120.602 215.008V214.742C120.602 213.904 120.76 213.156 121.078 212.5C121.401 211.839 121.849 211.323 122.422 210.953C123 210.578 123.625 210.391 124.297 210.391C125.396 210.391 126.25 210.753 126.859 211.477C127.469 212.201 127.773 213.237 127.773 214.586V215.188H122.047C122.068 216.021 122.31 216.695 122.773 217.211C123.242 217.721 123.836 217.977 124.555 217.977C125.065 217.977 125.497 217.872 125.852 217.664C126.206 217.456 126.516 217.18 126.781 216.836L127.664 217.523C126.956 218.612 125.893 219.156 124.477 219.156ZM124.297 211.578C123.714 211.578 123.224 211.792 122.828 212.219C122.432 212.641 122.188 213.234 122.094 214H126.328V213.891C126.286 213.156 126.089 212.589 125.734 212.188C125.38 211.781 124.901 211.578 124.297 211.578ZM131.023 219H129.578V207H131.023V219ZM132.961 214.695C132.961 213.867 133.122 213.122 133.445 212.461C133.773 211.799 134.227 211.289 134.805 210.93C135.388 210.57 136.052 210.391 136.797 210.391C137.948 210.391 138.878 210.789 139.586 211.586C140.299 212.383 140.656 213.443 140.656 214.766V214.867C140.656 215.69 140.497 216.43 140.18 217.086C139.867 217.737 139.417 218.245 138.828 218.609C138.245 218.974 137.573 219.156 136.812 219.156C135.667 219.156 134.737 218.758 134.023 217.961C133.315 217.164 132.961 216.109 132.961 214.797V214.695ZM134.414 214.867C134.414 215.805 134.63 216.557 135.062 217.125C135.5 217.693 136.083 217.977 136.812 217.977C137.547 217.977 138.13 217.69 138.562 217.117C138.995 216.539 139.211 215.732 139.211 214.695C139.211 213.768 138.99 213.018 138.547 212.445C138.109 211.867 137.526 211.578 136.797 211.578C136.083 211.578 135.508 211.862 135.07 212.43C134.633 212.997 134.414 213.81 134.414 214.867ZM143.836 210.547L143.883 211.609C144.529 210.797 145.372 210.391 146.414 210.391C148.201 210.391 149.102 211.398 149.117 213.414V219H147.672V213.406C147.667 212.797 147.526 212.346 147.25 212.055C146.979 211.763 146.555 211.617 145.977 211.617C145.508 211.617 145.096 211.742 144.742 211.992C144.388 212.242 144.112 212.57 143.914 212.977V219H142.469V210.547H143.836ZM73.0234 235.758C73.0234 235.367 72.875 235.065 72.5781 234.852C72.2865 234.633 71.7734 234.445 71.0391 234.289C70.3099 234.133 69.7292 233.945 69.2969 233.727C68.8698 233.508 68.5521 233.247 68.3438 232.945C68.1406 232.643 68.0391 232.284 68.0391 231.867C68.0391 231.174 68.3307 230.589 68.9141 230.109C69.5026 229.63 70.2526 229.391 71.1641 229.391C72.1224 229.391 72.8984 229.638 73.4922 230.133C74.0911 230.628 74.3906 231.26 74.3906 232.031H72.9375C72.9375 231.635 72.7682 231.294 72.4297 231.008C72.0964 230.721 71.6745 230.578 71.1641 230.578C70.638 230.578 70.2266 230.693 69.9297 230.922C69.6328 231.151 69.4844 231.451 69.4844 231.82C69.4844 232.169 69.6224 232.432 69.8984 232.609C70.1745 232.786 70.6719 232.956 71.3906 233.117C72.1146 233.279 72.7005 233.471 73.1484 233.695C73.5964 233.919 73.9271 234.19 74.1406 234.508C74.3594 234.82 74.4688 235.203 74.4688 235.656C74.4688 236.411 74.1667 237.018 73.5625 237.477C72.9583 237.93 72.1745 238.156 71.2109 238.156C70.5339 238.156 69.9349 238.036 69.4141 237.797C68.8932 237.557 68.4844 237.224 68.1875 236.797C67.8958 236.365 67.75 235.898 67.75 235.398H69.1953C69.2214 235.883 69.4141 236.268 69.7734 236.555C70.138 236.836 70.6172 236.977 71.2109 236.977C71.7578 236.977 72.1953 236.867 72.5234 236.648C72.8568 236.424 73.0234 236.128 73.0234 235.758ZM77.7109 229.547L77.75 230.484C78.3698 229.755 79.2057 229.391 80.2578 229.391C81.4401 229.391 82.2448 229.844 82.6719 230.75C82.9531 230.344 83.3177 230.016 83.7656 229.766C84.2188 229.516 84.7526 229.391 85.3672 229.391C87.2214 229.391 88.1641 230.372 88.1953 232.336V238H86.75V232.422C86.75 231.818 86.612 231.367 86.3359 231.07C86.0599 230.768 85.5964 230.617 84.9453 230.617C84.4089 230.617 83.9635 230.779 83.6094 231.102C83.2552 231.419 83.0495 231.849 82.9922 232.391V238H81.5391V232.461C81.5391 231.232 80.9375 230.617 79.7344 230.617C78.7865 230.617 78.138 231.021 77.7891 231.828V238H76.3438V229.547H77.7109ZM95.6016 238C95.5182 237.833 95.4505 237.536 95.3984 237.109C94.7266 237.807 93.9245 238.156 92.9922 238.156C92.1589 238.156 91.474 237.922 90.9375 237.453C90.4062 236.979 90.1406 236.38 90.1406 235.656C90.1406 234.776 90.474 234.094 91.1406 233.609C91.8125 233.12 92.7552 232.875 93.9688 232.875H95.375V232.211C95.375 231.706 95.224 231.305 94.9219 231.008C94.6198 230.706 94.1745 230.555 93.5859 230.555C93.0703 230.555 92.638 230.685 92.2891 230.945C91.9401 231.206 91.7656 231.521 91.7656 231.891H90.3125C90.3125 231.469 90.4609 231.062 90.7578 230.672C91.0599 230.276 91.4661 229.964 91.9766 229.734C92.4922 229.505 93.0573 229.391 93.6719 229.391C94.6458 229.391 95.4089 229.635 95.9609 230.125C96.513 230.609 96.7995 231.279 96.8203 232.133V236.023C96.8203 236.799 96.9193 237.417 97.1172 237.875V238H95.6016ZM93.2031 236.898C93.6562 236.898 94.0859 236.781 94.4922 236.547C94.8984 236.312 95.1927 236.008 95.375 235.633V233.898H94.2422C92.4714 233.898 91.5859 234.417 91.5859 235.453C91.5859 235.906 91.737 236.26 92.0391 236.516C92.3411 236.771 92.7292 236.898 93.2031 236.898ZM103.172 230.844C102.953 230.807 102.716 230.789 102.461 230.789C101.513 230.789 100.87 231.193 100.531 232V238H99.0859V229.547H100.492L100.516 230.523C100.99 229.768 101.661 229.391 102.531 229.391C102.812 229.391 103.026 229.427 103.172 229.5V230.844ZM106.859 227.5V229.547H108.438V230.664H106.859V235.906C106.859 236.245 106.93 236.5 107.07 236.672C107.211 236.839 107.451 236.922 107.789 236.922C107.956 236.922 108.185 236.891 108.477 236.828V238C108.096 238.104 107.727 238.156 107.367 238.156C106.721 238.156 106.234 237.961 105.906 237.57C105.578 237.18 105.414 236.625 105.414 235.906V230.664H103.875V229.547H105.414V227.5H106.859ZM117.492 236.977C118.008 236.977 118.458 236.82 118.844 236.508C119.229 236.195 119.443 235.805 119.484 235.336H120.852C120.826 235.82 120.659 236.281 120.352 236.719C120.044 237.156 119.633 237.505 119.117 237.766C118.607 238.026 118.065 238.156 117.492 238.156C116.341 238.156 115.424 237.773 114.742 237.008C114.065 236.237 113.727 235.185 113.727 233.852V233.609C113.727 232.786 113.878 232.055 114.18 231.414C114.482 230.773 114.914 230.276 115.477 229.922C116.044 229.568 116.714 229.391 117.484 229.391C118.432 229.391 119.219 229.674 119.844 230.242C120.474 230.81 120.81 231.547 120.852 232.453H119.484C119.443 231.906 119.234 231.458 118.859 231.109C118.49 230.755 118.031 230.578 117.484 230.578C116.75 230.578 116.18 230.844 115.773 231.375C115.372 231.901 115.172 232.664 115.172 233.664V233.938C115.172 234.911 115.372 235.661 115.773 236.188C116.174 236.714 116.747 236.977 117.492 236.977ZM122.094 233.695C122.094 232.867 122.255 232.122 122.578 231.461C122.906 230.799 123.359 230.289 123.938 229.93C124.521 229.57 125.185 229.391 125.93 229.391C127.081 229.391 128.01 229.789 128.719 230.586C129.432 231.383 129.789 232.443 129.789 233.766V233.867C129.789 234.69 129.63 235.43 129.312 236.086C129 236.737 128.549 237.245 127.961 237.609C127.378 237.974 126.706 238.156 125.945 238.156C124.799 238.156 123.87 237.758 123.156 236.961C122.448 236.164 122.094 235.109 122.094 233.797V233.695ZM123.547 233.867C123.547 234.805 123.763 235.557 124.195 236.125C124.633 236.693 125.216 236.977 125.945 236.977C126.68 236.977 127.263 236.69 127.695 236.117C128.128 235.539 128.344 234.732 128.344 233.695C128.344 232.768 128.122 232.018 127.68 231.445C127.242 230.867 126.659 230.578 125.93 230.578C125.216 230.578 124.641 230.862 124.203 231.43C123.766 231.997 123.547 232.81 123.547 233.867ZM132.969 229.547L133.016 230.609C133.661 229.797 134.505 229.391 135.547 229.391C137.333 229.391 138.234 230.398 138.25 232.414V238H136.805V232.406C136.799 231.797 136.659 231.346 136.383 231.055C136.112 230.763 135.688 230.617 135.109 230.617C134.641 230.617 134.229 230.742 133.875 230.992C133.521 231.242 133.245 231.57 133.047 231.977V238H131.602V229.547H132.969ZM142.391 227.5V229.547H143.969V230.664H142.391V235.906C142.391 236.245 142.461 236.5 142.602 236.672C142.742 236.839 142.982 236.922 143.32 236.922C143.487 236.922 143.716 236.891 144.008 236.828V238C143.628 238.104 143.258 238.156 142.898 238.156C142.253 238.156 141.766 237.961 141.438 237.57C141.109 237.18 140.945 236.625 140.945 235.906V230.664H139.406V229.547H140.945V227.5H142.391ZM149.75 230.844C149.531 230.807 149.294 230.789 149.039 230.789C148.091 230.789 147.448 231.193 147.109 232V238H145.664V229.547H147.07L147.094 230.523C147.568 229.768 148.24 229.391 149.109 229.391C149.391 229.391 149.604 229.427 149.75 229.5V230.844ZM155.992 238C155.909 237.833 155.841 237.536 155.789 237.109C155.117 237.807 154.315 238.156 153.383 238.156C152.549 238.156 151.865 237.922 151.328 237.453C150.797 236.979 150.531 236.38 150.531 235.656C150.531 234.776 150.865 234.094 151.531 233.609C152.203 233.12 153.146 232.875 154.359 232.875H155.766V232.211C155.766 231.706 155.615 231.305 155.312 231.008C155.01 230.706 154.565 230.555 153.977 230.555C153.461 230.555 153.029 230.685 152.68 230.945C152.331 231.206 152.156 231.521 152.156 231.891H150.703C150.703 231.469 150.852 231.062 151.148 230.672C151.451 230.276 151.857 229.964 152.367 229.734C152.883 229.505 153.448 229.391 154.062 229.391C155.036 229.391 155.799 229.635 156.352 230.125C156.904 230.609 157.19 231.279 157.211 232.133V236.023C157.211 236.799 157.31 237.417 157.508 237.875V238H155.992ZM153.594 236.898C154.047 236.898 154.477 236.781 154.883 236.547C155.289 236.312 155.583 236.008 155.766 235.633V233.898H154.633C152.862 233.898 151.977 234.417 151.977 235.453C151.977 235.906 152.128 236.26 152.43 236.516C152.732 236.771 153.12 236.898 153.594 236.898ZM162.867 236.977C163.383 236.977 163.833 236.82 164.219 236.508C164.604 236.195 164.818 235.805 164.859 235.336H166.227C166.201 235.82 166.034 236.281 165.727 236.719C165.419 237.156 165.008 237.505 164.492 237.766C163.982 238.026 163.44 238.156 162.867 238.156C161.716 238.156 160.799 237.773 160.117 237.008C159.44 236.237 159.102 235.185 159.102 233.852V233.609C159.102 232.786 159.253 232.055 159.555 231.414C159.857 230.773 160.289 230.276 160.852 229.922C161.419 229.568 162.089 229.391 162.859 229.391C163.807 229.391 164.594 229.674 165.219 230.242C165.849 230.81 166.185 231.547 166.227 232.453H164.859C164.818 231.906 164.609 231.458 164.234 231.109C163.865 230.755 163.406 230.578 162.859 230.578C162.125 230.578 161.555 230.844 161.148 231.375C160.747 231.901 160.547 232.664 160.547 233.664V233.938C160.547 234.911 160.747 235.661 161.148 236.188C161.549 236.714 162.122 236.977 162.867 236.977ZM169.812 227.5V229.547H171.391V230.664H169.812V235.906C169.812 236.245 169.883 236.5 170.023 236.672C170.164 236.839 170.404 236.922 170.742 236.922C170.909 236.922 171.138 236.891 171.43 236.828V238C171.049 238.104 170.68 238.156 170.32 238.156C169.674 238.156 169.188 237.961 168.859 237.57C168.531 237.18 168.367 236.625 168.367 235.906V230.664H166.828V229.547H168.367V227.5H169.812Z" fill="#5452F6"/>
<rect x="21.5" y="182.5" width="196" height="81" rx="7.5" stroke="#5452F6"/>
</g>
<g filter="url(#filter8_d)">
<rect x="354" y="195" width="47" height="63" rx="8" fill="white"/>
<path d="M379.883 239.031H375.117L374.047 242H372.5L376.844 230.625H378.156L382.508 242H380.969L379.883 239.031ZM375.57 237.797H379.438L377.5 232.477L375.57 237.797Z" fill="#5452F6"/>
<rect x="354.5" y="195.5" width="46" height="62" rx="7.5" stroke="#5452F6"/>
</g>
<g filter="url(#filter9_d)">
<rect x="441" y="195" width="47" height="63" rx="8" fill="white"/>
<path d="M460.836 242V230.625H464.555C465.789 230.625 466.716 230.88 467.336 231.391C467.961 231.901 468.273 232.656 468.273 233.656C468.273 234.188 468.122 234.659 467.82 235.07C467.518 235.477 467.107 235.792 466.586 236.016C467.201 236.188 467.685 236.516 468.039 237C468.398 237.479 468.578 238.052 468.578 238.719C468.578 239.74 468.247 240.542 467.586 241.125C466.924 241.708 465.99 242 464.781 242H460.836ZM462.336 236.68V240.773H464.812C465.51 240.773 466.06 240.594 466.461 240.234C466.867 239.87 467.07 239.37 467.07 238.734C467.07 237.365 466.326 236.68 464.836 236.68H462.336ZM462.336 235.477H464.602C465.258 235.477 465.781 235.312 466.172 234.984C466.568 234.656 466.766 234.211 466.766 233.648C466.766 233.023 466.583 232.57 466.219 232.289C465.854 232.003 465.299 231.859 464.555 231.859H462.336V235.477Z" fill="#5452F6"/>
<rect x="441.5" y="195.5" width="46" height="62" rx="7.5" stroke="#5452F6"/>
</g>
<path d="M415.023 232C414.94 231.839 414.867 231.576 414.805 231.211C414.201 231.841 413.461 232.156 412.586 232.156C411.737 232.156 411.044 231.914 410.508 231.43C409.971 230.945 409.703 230.346 409.703 229.633C409.703 228.732 410.036 228.042 410.703 227.562C411.375 227.078 412.333 226.836 413.578 226.836H414.742V226.281C414.742 225.844 414.62 225.495 414.375 225.234C414.13 224.969 413.758 224.836 413.258 224.836C412.826 224.836 412.471 224.945 412.195 225.164C411.919 225.378 411.781 225.651 411.781 225.984H409.883C409.883 225.521 410.036 225.089 410.344 224.688C410.651 224.281 411.068 223.964 411.594 223.734C412.125 223.505 412.716 223.391 413.367 223.391C414.357 223.391 415.146 223.641 415.734 224.141C416.323 224.635 416.625 225.333 416.641 226.234V230.047C416.641 230.807 416.747 231.414 416.961 231.867V232H415.023ZM412.938 230.633C413.312 230.633 413.664 230.542 413.992 230.359C414.326 230.177 414.576 229.932 414.742 229.625V228.031H413.719C413.016 228.031 412.487 228.154 412.133 228.398C411.779 228.643 411.602 228.99 411.602 229.438C411.602 229.802 411.721 230.094 411.961 230.312C412.206 230.526 412.531 230.633 412.938 230.633ZM420.391 223.547L420.445 224.523C421.07 223.768 421.891 223.391 422.906 223.391C424.667 223.391 425.562 224.398 425.594 226.414V232H423.695V226.523C423.695 225.987 423.578 225.591 423.344 225.336C423.115 225.076 422.737 224.945 422.211 224.945C421.445 224.945 420.875 225.292 420.5 225.984V232H418.602V223.547H420.391ZM427.18 227.711C427.18 226.409 427.482 225.365 428.086 224.578C428.69 223.786 429.5 223.391 430.516 223.391C431.411 223.391 432.135 223.703 432.688 224.328V220H434.586V232H432.867L432.773 231.125C432.206 231.812 431.448 232.156 430.5 232.156C429.51 232.156 428.708 231.758 428.094 230.961C427.484 230.164 427.18 229.081 427.18 227.711ZM429.078 227.875C429.078 228.734 429.242 229.406 429.57 229.891C429.904 230.37 430.375 230.609 430.984 230.609C431.76 230.609 432.328 230.263 432.688 229.57V225.961C432.339 225.284 431.776 224.945 431 224.945C430.385 224.945 429.911 225.19 429.578 225.68C429.245 226.164 429.078 226.896 429.078 227.875Z" fill="#5452F6"/>
<g filter="url(#filter10_d)">
<rect x="528" y="195" width="47" height="63" rx="8" fill="white"/>
<path d="M555.977 238.391C555.836 239.594 555.391 240.523 554.641 241.18C553.896 241.831 552.904 242.156 551.664 242.156C550.32 242.156 549.242 241.674 548.43 240.711C547.622 239.747 547.219 238.458 547.219 236.844V235.75C547.219 234.693 547.406 233.763 547.781 232.961C548.161 232.159 548.698 231.544 549.391 231.117C550.083 230.685 550.885 230.469 551.797 230.469C553.005 230.469 553.974 230.807 554.703 231.484C555.432 232.156 555.857 233.089 555.977 234.281H554.469C554.339 233.375 554.055 232.719 553.617 232.312C553.185 231.906 552.578 231.703 551.797 231.703C550.839 231.703 550.086 232.057 549.539 232.766C548.997 233.474 548.727 234.482 548.727 235.789V236.891C548.727 238.125 548.984 239.107 549.5 239.836C550.016 240.565 550.737 240.93 551.664 240.93C552.497 240.93 553.135 240.742 553.578 240.367C554.026 239.987 554.323 239.328 554.469 238.391H555.977Z" fill="#5452F6"/>
<rect x="528.5" y="195.5" width="46" height="62" rx="7.5" stroke="#5452F6"/>
</g>
<g filter="url(#filter11_d)">
<rect x="615" y="195" width="47" height="63" rx="8" fill="white"/>
<path d="M634.57 242V230.625H637.781C638.771 230.625 639.646 230.844 640.406 231.281C641.167 231.719 641.753 232.341 642.164 233.148C642.581 233.956 642.792 234.883 642.797 235.93V236.656C642.797 237.729 642.589 238.669 642.172 239.477C641.76 240.284 641.169 240.904 640.398 241.336C639.633 241.768 638.74 241.99 637.719 242H634.57ZM636.07 231.859V240.773H637.648C638.805 240.773 639.703 240.414 640.344 239.695C640.99 238.977 641.312 237.953 641.312 236.625V235.961C641.312 234.669 641.008 233.667 640.398 232.953C639.794 232.234 638.935 231.87 637.82 231.859H636.07Z" fill="#5452F6"/>
<rect x="615.5" y="195.5" width="46" height="62" rx="7.5" stroke="#5452F6"/>
</g>
<path d="M589.023 232C588.94 231.839 588.867 231.576 588.805 231.211C588.201 231.841 587.461 232.156 586.586 232.156C585.737 232.156 585.044 231.914 584.508 231.43C583.971 230.945 583.703 230.346 583.703 229.633C583.703 228.732 584.036 228.042 584.703 227.562C585.375 227.078 586.333 226.836 587.578 226.836H588.742V226.281C588.742 225.844 588.62 225.495 588.375 225.234C588.13 224.969 587.758 224.836 587.258 224.836C586.826 224.836 586.471 224.945 586.195 225.164C585.919 225.378 585.781 225.651 585.781 225.984H583.883C583.883 225.521 584.036 225.089 584.344 224.688C584.651 224.281 585.068 223.964 585.594 223.734C586.125 223.505 586.716 223.391 587.367 223.391C588.357 223.391 589.146 223.641 589.734 224.141C590.323 224.635 590.625 225.333 590.641 226.234V230.047C590.641 230.807 590.747 231.414 590.961 231.867V232H589.023ZM586.938 230.633C587.312 230.633 587.664 230.542 587.992 230.359C588.326 230.177 588.576 229.932 588.742 229.625V228.031H587.719C587.016 228.031 586.487 228.154 586.133 228.398C585.779 228.643 585.602 228.99 585.602 229.438C585.602 229.802 585.721 230.094 585.961 230.312C586.206 230.526 586.531 230.633 586.938 230.633ZM594.391 223.547L594.445 224.523C595.07 223.768 595.891 223.391 596.906 223.391C598.667 223.391 599.562 224.398 599.594 226.414V232H597.695V226.523C597.695 225.987 597.578 225.591 597.344 225.336C597.115 225.076 596.737 224.945 596.211 224.945C595.445 224.945 594.875 225.292 594.5 225.984V232H592.602V223.547H594.391ZM601.18 227.711C601.18 226.409 601.482 225.365 602.086 224.578C602.69 223.786 603.5 223.391 604.516 223.391C605.411 223.391 606.135 223.703 606.688 224.328V220H608.586V232H606.867L606.773 231.125C606.206 231.812 605.448 232.156 604.5 232.156C603.51 232.156 602.708 231.758 602.094 230.961C601.484 230.164 601.18 229.081 601.18 227.711ZM603.078 227.875C603.078 228.734 603.242 229.406 603.57 229.891C603.904 230.37 604.375 230.609 604.984 230.609C605.76 230.609 606.328 230.263 606.688 229.57V225.961C606.339 225.284 605.776 224.945 605 224.945C604.385 224.945 603.911 225.19 603.578 225.68C603.245 226.164 603.078 226.896 603.078 227.875Z" fill="#5452F6"/>
<path d="M503.023 232C502.94 231.839 502.867 231.576 502.805 231.211C502.201 231.841 501.461 232.156 500.586 232.156C499.737 232.156 499.044 231.914 498.508 231.43C497.971 230.945 497.703 230.346 497.703 229.633C497.703 228.732 498.036 228.042 498.703 227.562C499.375 227.078 500.333 226.836 501.578 226.836H502.742V226.281C502.742 225.844 502.62 225.495 502.375 225.234C502.13 224.969 501.758 224.836 501.258 224.836C500.826 224.836 500.471 224.945 500.195 225.164C499.919 225.378 499.781 225.651 499.781 225.984H497.883C497.883 225.521 498.036 225.089 498.344 224.688C498.651 224.281 499.068 223.964 499.594 223.734C500.125 223.505 500.716 223.391 501.367 223.391C502.357 223.391 503.146 223.641 503.734 224.141C504.323 224.635 504.625 225.333 504.641 226.234V230.047C504.641 230.807 504.747 231.414 504.961 231.867V232H503.023ZM500.938 230.633C501.312 230.633 501.664 230.542 501.992 230.359C502.326 230.177 502.576 229.932 502.742 229.625V228.031H501.719C501.016 228.031 500.487 228.154 500.133 228.398C499.779 228.643 499.602 228.99 499.602 229.438C499.602 229.802 499.721 230.094 499.961 230.312C500.206 230.526 500.531 230.633 500.938 230.633ZM508.391 223.547L508.445 224.523C509.07 223.768 509.891 223.391 510.906 223.391C512.667 223.391 513.562 224.398 513.594 226.414V232H511.695V226.523C511.695 225.987 511.578 225.591 511.344 225.336C511.115 225.076 510.737 224.945 510.211 224.945C509.445 224.945 508.875 225.292 508.5 225.984V232H506.602V223.547H508.391ZM515.18 227.711C515.18 226.409 515.482 225.365 516.086 224.578C516.69 223.786 517.5 223.391 518.516 223.391C519.411 223.391 520.135 223.703 520.688 224.328V220H522.586V232H520.867L520.773 231.125C520.206 231.812 519.448 232.156 518.5 232.156C517.51 232.156 516.708 231.758 516.094 230.961C515.484 230.164 515.18 229.081 515.18 227.711ZM517.078 227.875C517.078 228.734 517.242 229.406 517.57 229.891C517.904 230.37 518.375 230.609 518.984 230.609C519.76 230.609 520.328 230.263 520.688 229.57V225.961C520.339 225.284 519.776 224.945 519 224.945C518.385 224.945 517.911 225.19 517.578 225.68C517.245 226.164 517.078 226.896 517.078 227.875Z" fill="#5452F6"/>
<path d="M284.422 227.07L289.031 228.82V230.719L282.492 227.805V226.297L289.031 223.391V225.289L284.422 227.07ZM298.008 225.906H291.273V224.328H298.008V225.906ZM298.008 229.219H291.273V227.648H298.008V229.219ZM304.922 227.031L300.094 225.258V223.391L306.844 226.297V227.805L300.094 230.711V228.844L304.922 227.031Z" fill="#5452F6"/>
<rect x="0.5" y="25.5" width="682" height="266" rx="7.5" stroke="#5452F6"/>
</g>
<path d="M20.375 5.21875H16.8281V15H14.8672V5.21875H11.3516V3.625H20.375V5.21875ZM23.5625 7.46875C24.1823 6.75 24.9661 6.39062 25.9141 6.39062C27.7161 6.39062 28.6302 7.41927 28.6562 9.47656V15H26.7578V9.54688C26.7578 8.96354 26.6302 8.55208 26.375 8.3125C26.125 8.06771 25.7552 7.94531 25.2656 7.94531C24.5052 7.94531 23.9375 8.28385 23.5625 8.96094V15H21.6641V3H23.5625V7.46875ZM34.3047 15.1562C33.1016 15.1562 32.125 14.7786 31.375 14.0234C30.6302 13.263 30.2578 12.2526 30.2578 10.9922V10.7578C30.2578 9.91406 30.4193 9.16146 30.7422 8.5C31.0703 7.83333 31.5286 7.3151 32.1172 6.94531C32.7057 6.57552 33.362 6.39062 34.0859 6.39062C35.237 6.39062 36.125 6.75781 36.75 7.49219C37.3802 8.22656 37.6953 9.26562 37.6953 10.6094V11.375H32.1719C32.2292 12.0729 32.4609 12.625 32.8672 13.0312C33.2786 13.4375 33.7943 13.6406 34.4141 13.6406C35.2839 13.6406 35.9922 13.2891 36.5391 12.5859L37.5625 13.5625C37.224 14.0677 36.7708 14.4609 36.2031 14.7422C35.6406 15.0182 35.0078 15.1562 34.3047 15.1562ZM34.0781 7.91406C33.5573 7.91406 33.1354 8.09635 32.8125 8.46094C32.4948 8.82552 32.2917 9.33333 32.2031 9.98438H35.8203V9.84375C35.7786 9.20833 35.6094 8.72917 35.3125 8.40625C35.0156 8.07812 34.6042 7.91406 34.0781 7.91406ZM38.8203 10.6953C38.8203 9.86719 38.9844 9.1224 39.3125 8.46094C39.6406 7.79427 40.1016 7.28385 40.6953 6.92969C41.2891 6.57031 41.9714 6.39062 42.7422 6.39062C43.8828 6.39062 44.8073 6.75781 45.5156 7.49219C46.2292 8.22656 46.6146 9.20052 46.6719 10.4141L46.6797 10.8594C46.6797 11.6927 46.5182 12.4375 46.1953 13.0938C45.8776 13.75 45.4193 14.2578 44.8203 14.6172C44.2266 14.9766 43.5391 15.1562 42.7578 15.1562C41.5651 15.1562 40.6094 14.7604 39.8906 13.9688C39.1771 13.1719 38.8203 12.112 38.8203 10.7891V10.6953ZM40.7188 10.8594C40.7188 11.7292 40.8984 12.4115 41.2578 12.9062C41.6172 13.3958 42.1172 13.6406 42.7578 13.6406C43.3984 13.6406 43.8958 13.3906 44.25 12.8906C44.6094 12.3906 44.7891 11.6589 44.7891 10.6953C44.7891 9.84115 44.6042 9.16406 44.2344 8.66406C43.8698 8.16406 43.3724 7.91406 42.7422 7.91406C42.1224 7.91406 41.6302 8.16146 41.2656 8.65625C40.901 9.14583 40.7188 9.88021 40.7188 10.8594ZM52.7109 8.28125C52.4609 8.23958 52.2031 8.21875 51.9375 8.21875C51.0677 8.21875 50.4818 8.55208 50.1797 9.21875V15H48.2812V6.54688H50.0938L50.1406 7.49219C50.599 6.75781 51.2344 6.39062 52.0469 6.39062C52.3177 6.39062 52.5417 6.42708 52.7188 6.5L52.7109 8.28125ZM57.4766 15.1562C56.2734 15.1562 55.2969 14.7786 54.5469 14.0234C53.8021 13.263 53.4297 12.2526 53.4297 10.9922V10.7578C53.4297 9.91406 53.5911 9.16146 53.9141 8.5C54.2422 7.83333 54.7005 7.3151 55.2891 6.94531C55.8776 6.57552 56.5339 6.39062 57.2578 6.39062C58.4089 6.39062 59.2969 6.75781 59.9219 7.49219C60.5521 8.22656 60.8672 9.26562 60.8672 10.6094V11.375H55.3438C55.401 12.0729 55.6328 12.625 56.0391 13.0312C56.4505 13.4375 56.9661 13.6406 57.5859 13.6406C58.4557 13.6406 59.1641 13.2891 59.7109 12.5859L60.7344 13.5625C60.3958 14.0677 59.9427 14.4609 59.375 14.7422C58.8125 15.0182 58.1797 15.1562 57.4766 15.1562ZM57.25 7.91406C56.7292 7.91406 56.3073 8.09635 55.9844 8.46094C55.6667 8.82552 55.4635 9.33333 55.375 9.98438H58.9922V9.84375C58.9505 9.20833 58.7812 8.72917 58.4844 8.40625C58.1875 8.07812 57.776 7.91406 57.25 7.91406ZM64.1328 6.54688L64.1875 7.42969C64.7812 6.73698 65.5938 6.39062 66.625 6.39062C67.7552 6.39062 68.5286 6.82292 68.9453 7.6875C69.5599 6.82292 70.4245 6.39062 71.5391 6.39062C72.4714 6.39062 73.1641 6.64844 73.6172 7.16406C74.0755 7.67969 74.3099 8.4401 74.3203 9.44531V15H72.4219V9.5C72.4219 8.96354 72.3047 8.57031 72.0703 8.32031C71.8359 8.07031 71.4479 7.94531 70.9062 7.94531C70.474 7.94531 70.1198 8.0625 69.8438 8.29688C69.5729 8.52604 69.3828 8.82812 69.2734 9.20312L69.2812 15H67.3828V9.4375C67.3568 8.44271 66.849 7.94531 65.8594 7.94531C65.099 7.94531 64.5599 8.25521 64.2422 8.875V15H62.3438V6.54688H64.1328Z" fill="#5452F6"/>
<defs>
<filter id="filter0_d" x="0" y="25" width="687" height="271" filterUnits="userSpaceOnUse" color-interpolation-filters="sRGB">
<feFlood flood-opacity="0" result="BackgroundImageFix"/>
<feColorMatrix in="SourceAlpha" type="matrix" values="0 0 0 0 0 0 0 0 0 0 0 0 0 0 0 0 0 0 127 0"/>
<feOffset dx="4" dy="4"/>
<feColorMatrix type="matrix" values="0 0 0 0 0.674908 0 0 0 0 0.662083 0 0 0 0 0.945833 0 0 0 1 0"/>
<feBlend mode="normal" in2="BackgroundImageFix" result="effect1_dropShadow"/>
<feBlend mode="normal" in="SourceGraphic" in2="effect1_dropShadow" result="shape"/>
</filter>
<filter id="filter1_d" x="32" y="47" width="181" height="112" filterUnits="userSpaceOnUse" color-interpolation-filters="sRGB">
<feFlood flood-opacity="0" result="BackgroundImageFix"/>
<feColorMatrix in="SourceAlpha" type="matrix" values="0 0 0 0 0 0 0 0 0 0 0 0 0 0 0 0 0 0 127 0"/>
<feOffset dx="4" dy="4"/>
<feColorMatrix type="matrix" values="0 0 0 0 0.674908 0 0 0 0 0.662083 0 0 0 0 0.945833 0 0 0 1 0"/>
<feBlend mode="normal" in2="BackgroundImageFix" result="effect1_dropShadow"/>
<feBlend mode="normal" in="SourceGraphic" in2="effect1_dropShadow" result="shape"/>
</filter>
<filter id="filter2_d" x="112" y="154" width="26" height="18.3291" filterUnits="userSpaceOnUse" color-interpolation-filters="sRGB">
<feFlood flood-opacity="0" result="BackgroundImageFix"/>
<feColorMatrix in="SourceAlpha" type="matrix" values="0 0 0 0 0 0 0 0 0 0 0 0 0 0 0 0 0 0 127 0"/>
<feOffset dx="4" dy="4"/>
<feColorMatrix type="matrix" values="0 0 0 0 0.674908 0 0 0 0 0.662083 0 0 0 0 0.945833 0 0 0 1 0"/>
<feBlend mode="normal" in2="BackgroundImageFix" result="effect1_dropShadow"/>
<feBlend mode="normal" in="SourceGraphic" in2="effect1_dropShadow" result="shape"/>
</filter>
<filter id="filter3_d" x="251" y="47" width="181" height="112" filterUnits="userSpaceOnUse" color-interpolation-filters="sRGB">
<feFlood flood-opacity="0" result="BackgroundImageFix"/>
<feColorMatrix in="SourceAlpha" type="matrix" values="0 0 0 0 0 0 0 0 0 0 0 0 0 0 0 0 0 0 127 0"/>
<feOffset dx="4" dy="4"/>
<feColorMatrix type="matrix" values="0 0 0 0 0.674908 0 0 0 0 0.662083 0 0 0 0 0.945833 0 0 0 1 0"/>
<feBlend mode="normal" in2="BackgroundImageFix" result="effect1_dropShadow"/>
<feBlend mode="normal" in="SourceGraphic" in2="effect1_dropShadow" result="shape"/>
</filter>
<filter id="filter4_d" x="331" y="154" width="26" height="18.3291" filterUnits="userSpaceOnUse" color-interpolation-filters="sRGB">
<feFlood flood-opacity="0" result="BackgroundImageFix"/>
<feColorMatrix in="SourceAlpha" type="matrix" values="0 0 0 0 0 0 0 0 0 0 0 0 0 0 0 0 0 0 127 0"/>
<feOffset dx="4" dy="4"/>
<feColorMatrix type="matrix" values="0 0 0 0 0.674908 0 0 0 0 0.662083 0 0 0 0 0.945833 0 0 0 1 0"/>
<feBlend mode="normal" in2="BackgroundImageFix" result="effect1_dropShadow"/>
<feBlend mode="normal" in="SourceGraphic" in2="effect1_dropShadow" result="shape"/>
</filter>
<filter id="filter5_d" x="470" y="47" width="181" height="112" filterUnits="userSpaceOnUse" color-interpolation-filters="sRGB">
<feFlood flood-opacity="0" result="BackgroundImageFix"/>
<feColorMatrix in="SourceAlpha" type="matrix" values="0 0 0 0 0 0 0 0 0 0 0 0 0 0 0 0 0 0 127 0"/>
<feOffset dx="4" dy="4"/>
<feColorMatrix type="matrix" values="0 0 0 0 0.674908 0 0 0 0 0.662083 0 0 0 0 0.945833 0 0 0 1 0"/>
<feBlend mode="normal" in2="BackgroundImageFix" result="effect1_dropShadow"/>
<feBlend mode="normal" in="SourceGraphic" in2="effect1_dropShadow" result="shape"/>
</filter>
<filter id="filter6_d" x="550" y="154" width="26" height="18.3291" filterUnits="userSpaceOnUse" color-interpolation-filters="sRGB">
<feFlood flood-opacity="0" result="BackgroundImageFix"/>
<feColorMatrix in="SourceAlpha" type="matrix" values="0 0 0 0 0 0 0 0 0 0 0 0 0 0 0 0 0 0 127 0"/>
<feOffset dx="4" dy="4"/>
<feColorMatrix type="matrix" values="0 0 0 0 0.674908 0 0 0 0 0.662083 0 0 0 0 0.945833 0 0 0 1 0"/>
<feBlend mode="normal" in2="BackgroundImageFix" result="effect1_dropShadow"/>
<feBlend mode="normal" in="SourceGraphic" in2="effect1_dropShadow" result="shape"/>
</filter>
<filter id="filter7_d" x="21" y="182" width="201" height="86" filterUnits="userSpaceOnUse" color-interpolation-filters="sRGB">
<feFlood flood-opacity="0" result="BackgroundImageFix"/>
<feColorMatrix in="SourceAlpha" type="matrix" values="0 0 0 0 0 0 0 0 0 0 0 0 0 0 0 0 0 0 127 0"/>
<feOffset dx="4" dy="4"/>
<feColorMatrix type="matrix" values="0 0 0 0 0.674908 0 0 0 0 0.662083 0 0 0 0 0.945833 0 0 0 1 0"/>
<feBlend mode="normal" in2="BackgroundImageFix" result="effect1_dropShadow"/>
<feBlend mode="normal" in="SourceGraphic" in2="effect1_dropShadow" result="shape"/>
</filter>
<filter id="filter8_d" x="354" y="195" width="51" height="67" filterUnits="userSpaceOnUse" color-interpolation-filters="sRGB">
<feFlood flood-opacity="0" result="BackgroundImageFix"/>
<feColorMatrix in="SourceAlpha" type="matrix" values="0 0 0 0 0 0 0 0 0 0 0 0 0 0 0 0 0 0 127 0"/>
<feOffset dx="4" dy="4"/>
<feColorMatrix type="matrix" values="0 0 0 0 0.674908 0 0 0 0 0.662083 0 0 0 0 0.945833 0 0 0 1 0"/>
<feBlend mode="normal" in2="BackgroundImageFix" result="effect1_dropShadow"/>
<feBlend mode="normal" in="SourceGraphic" in2="effect1_dropShadow" result="shape"/>
</filter>
<filter id="filter9_d" x="441" y="195" width="51" height="67" filterUnits="userSpaceOnUse" color-interpolation-filters="sRGB">
<feFlood flood-opacity="0" result="BackgroundImageFix"/>
<feColorMatrix in="SourceAlpha" type="matrix" values="0 0 0 0 0 0 0 0 0 0 0 0 0 0 0 0 0 0 127 0"/>
<feOffset dx="4" dy="4"/>
<feColorMatrix type="matrix" values="0 0 0 0 0.674908 0 0 0 0 0.662083 0 0 0 0 0.945833 0 0 0 1 0"/>
<feBlend mode="normal" in2="BackgroundImageFix" result="effect1_dropShadow"/>
<feBlend mode="normal" in="SourceGraphic" in2="effect1_dropShadow" result="shape"/>
</filter>
<filter id="filter10_d" x="528" y="195" width="51" height="67" filterUnits="userSpaceOnUse" color-interpolation-filters="sRGB">
<feFlood flood-opacity="0" result="BackgroundImageFix"/>
<feColorMatrix in="SourceAlpha" type="matrix" values="0 0 0 0 0 0 0 0 0 0 0 0 0 0 0 0 0 0 127 0"/>
<feOffset dx="4" dy="4"/>
<feColorMatrix type="matrix" values="0 0 0 0 0.674908 0 0 0 0 0.662083 0 0 0 0 0.945833 0 0 0 1 0"/>
<feBlend mode="normal" in2="BackgroundImageFix" result="effect1_dropShadow"/>
<feBlend mode="normal" in="SourceGraphic" in2="effect1_dropShadow" result="shape"/>
</filter>
<filter id="filter11_d" x="615" y="195" width="51" height="67" filterUnits="userSpaceOnUse" color-interpolation-filters="sRGB">
<feFlood flood-opacity="0" result="BackgroundImageFix"/>
<feColorMatrix in="SourceAlpha" type="matrix" values="0 0 0 0 0 0 0 0 0 0 0 0 0 0 0 0 0 0 127 0"/>
<feOffset dx="4" dy="4"/>
<feColorMatrix type="matrix" values="0 0 0 0 0.674908 0 0 0 0 0.662083 0 0 0 0 0.945833 0 0 0 1 0"/>
<feBlend mode="normal" in2="BackgroundImageFix" result="effect1_dropShadow"/>
<feBlend mode="normal" in="SourceGraphic" in2="effect1_dropShadow" result="shape"/>
</filter>
<clipPath id="clip0">
<rect width="181" height="125" fill="white" transform="translate(32 47)"/>
</clipPath>
<clipPath id="clip1">
<rect width="181" height="125" fill="white" transform="translate(251 47)"/>
</clipPath>
<clipPath id="clip2">
<rect width="181" height="125" fill="white" transform="translate(470 47)"/>
</clipPath>
</defs>
</svg>
