<svg width="542" height="358" viewBox="0 0 542 358" fill="none" xmlns="http://www.w3.org/2000/svg">
<path d="M7.80469 9.92188H3.13281V13.4219H8.59375V15H1.15625V3.625H8.53906V5.21875H3.13281V8.35938H7.80469V9.92188ZM13.0547 9.32812L14.6641 6.54688H16.7734L14.1875 10.7109L16.8594 15H14.7656L13.0781 12.1094L11.3984 15H9.28906L11.9609 10.7109L9.38281 6.54688H11.4766L13.0547 9.32812ZM25.4688 10.8594C25.4688 12.1667 25.1719 13.2109 24.5781 13.9922C23.9844 14.7682 23.1875 15.1562 22.1875 15.1562C21.2604 15.1562 20.5182 14.8516 19.9609 14.2422V18.25H18.0625V6.54688H19.8125L19.8906 7.40625C20.4479 6.72917 21.2057 6.39062 22.1641 6.39062C23.1953 6.39062 24.0026 6.77604 24.5859 7.54688C25.1745 8.3125 25.4688 9.3776 25.4688 10.7422V10.8594ZM23.5781 10.6953C23.5781 9.85156 23.4089 9.18229 23.0703 8.6875C22.737 8.19271 22.2578 7.94531 21.6328 7.94531C20.8568 7.94531 20.2995 8.26562 19.9609 8.90625V12.6562C20.3047 13.3125 20.8672 13.6406 21.6484 13.6406C22.2526 13.6406 22.724 13.3984 23.0625 12.9141C23.4062 12.4245 23.5781 11.6849 23.5781 10.6953ZM31.5078 8.28125C31.2578 8.23958 31 8.21875 30.7344 8.21875C29.8646 8.21875 29.2786 8.55208 28.9766 9.21875V15H27.0781V6.54688H28.8906L28.9375 7.49219C29.3958 6.75781 30.0312 6.39062 30.8438 6.39062C31.1146 6.39062 31.3385 6.42708 31.5156 6.5L31.5078 8.28125ZM36.2734 15.1562C35.0703 15.1562 34.0938 14.7786 33.3438 14.0234C32.599 13.263 32.2266 12.2526 32.2266 10.9922V10.7578C32.2266 9.91406 32.388 9.16146 32.7109 8.5C33.0391 7.83333 33.4974 7.3151 34.0859 6.94531C34.6745 6.57552 35.3307 6.39062 36.0547 6.39062C37.2057 6.39062 38.0938 6.75781 38.7188 7.49219C39.349 8.22656 39.6641 9.26562 39.6641 10.6094V11.375H34.1406C34.1979 12.0729 34.4297 12.625 34.8359 13.0312C35.2474 13.4375 35.763 13.6406 36.3828 13.6406C37.2526 13.6406 37.9609 13.2891 38.5078 12.5859L39.5312 13.5625C39.1927 14.0677 38.7396 14.4609 38.1719 14.7422C37.6094 15.0182 36.9766 15.1562 36.2734 15.1562ZM36.0469 7.91406C35.526 7.91406 35.1042 8.09635 34.7812 8.46094C34.4635 8.82552 34.2604 9.33333 34.1719 9.98438H37.7891V9.84375C37.7474 9.20833 37.5781 8.72917 37.2812 8.40625C36.9844 8.07812 36.5729 7.91406 36.0469 7.91406ZM45.8828 12.7031C45.8828 12.3646 45.7422 12.1068 45.4609 11.9297C45.1849 11.7526 44.724 11.5964 44.0781 11.4609C43.4323 11.3255 42.8932 11.1536 42.4609 10.9453C41.513 10.487 41.0391 9.82292 41.0391 8.95312C41.0391 8.22396 41.3464 7.61458 41.9609 7.125C42.5755 6.63542 43.3568 6.39062 44.3047 6.39062C45.3151 6.39062 46.1302 6.64062 46.75 7.14062C47.375 7.64062 47.6875 8.28906 47.6875 9.08594H45.7891C45.7891 8.72135 45.6536 8.41927 45.3828 8.17969C45.112 7.9349 44.7526 7.8125 44.3047 7.8125C43.888 7.8125 43.5469 7.90885 43.2812 8.10156C43.0208 8.29427 42.8906 8.55208 42.8906 8.875C42.8906 9.16667 43.013 9.39323 43.2578 9.55469C43.5026 9.71615 43.9974 9.88021 44.7422 10.0469C45.487 10.2083 46.0703 10.4036 46.4922 10.6328C46.9193 10.8568 47.2344 11.1276 47.4375 11.4453C47.6458 11.763 47.75 12.1484 47.75 12.6016C47.75 13.362 47.4349 13.9792 46.8047 14.4531C46.1745 14.9219 45.349 15.1562 44.3281 15.1562C43.6354 15.1562 43.0182 15.0312 42.4766 14.7812C41.9349 14.5312 41.513 14.1875 41.2109 13.75C40.9089 13.3125 40.7578 12.8411 40.7578 12.3359H42.6016C42.6276 12.7839 42.7969 13.1302 43.1094 13.375C43.4219 13.6146 43.8359 13.7344 44.3516 13.7344C44.8516 13.7344 45.2318 13.6406 45.4922 13.4531C45.7526 13.2604 45.8828 13.0104 45.8828 12.7031ZM54.1484 12.7031C54.1484 12.3646 54.0078 12.1068 53.7266 11.9297C53.4505 11.7526 52.9896 11.5964 52.3438 11.4609C51.6979 11.3255 51.1589 11.1536 50.7266 10.9453C49.7786 10.487 49.3047 9.82292 49.3047 8.95312C49.3047 8.22396 49.612 7.61458 50.2266 7.125C50.8411 6.63542 51.6224 6.39062 52.5703 6.39062C53.5807 6.39062 54.3958 6.64062 55.0156 7.14062C55.6406 7.64062 55.9531 8.28906 55.9531 9.08594H54.0547C54.0547 8.72135 53.9193 8.41927 53.6484 8.17969C53.3776 7.9349 53.0182 7.8125 52.5703 7.8125C52.1536 7.8125 51.8125 7.90885 51.5469 8.10156C51.2865 8.29427 51.1562 8.55208 51.1562 8.875C51.1562 9.16667 51.2786 9.39323 51.5234 9.55469C51.7682 9.71615 52.263 9.88021 53.0078 10.0469C53.7526 10.2083 54.3359 10.4036 54.7578 10.6328C55.1849 10.8568 55.5 11.1276 55.7031 11.4453C55.9115 11.763 56.0156 12.1484 56.0156 12.6016C56.0156 13.362 55.7005 13.9792 55.0703 14.4531C54.4401 14.9219 53.6146 15.1562 52.5938 15.1562C51.901 15.1562 51.2839 15.0312 50.7422 14.7812C50.2005 14.5312 49.7786 14.1875 49.4766 13.75C49.1745 13.3125 49.0234 12.8411 49.0234 12.3359H50.8672C50.8932 12.7839 51.0625 13.1302 51.375 13.375C51.6875 13.6146 52.1016 13.7344 52.6172 13.7344C53.1172 13.7344 53.4974 13.6406 53.7578 13.4531C54.0182 13.2604 54.1484 13.0104 54.1484 12.7031ZM59.6953 15H57.7969V6.54688H59.6953V15ZM57.6797 4.35156C57.6797 4.0599 57.7708 3.81771 57.9531 3.625C58.1406 3.43229 58.4062 3.33594 58.75 3.33594C59.0938 3.33594 59.3594 3.43229 59.5469 3.625C59.7344 3.81771 59.8281 4.0599 59.8281 4.35156C59.8281 4.63802 59.7344 4.8776 59.5469 5.07031C59.3594 5.25781 59.0938 5.35156 58.75 5.35156C58.4062 5.35156 58.1406 5.25781 57.9531 5.07031C57.7708 4.8776 57.6797 4.63802 57.6797 4.35156ZM64.75 12.5938L66.5391 6.54688H68.5L65.5703 15H63.9219L60.9688 6.54688H62.9375L64.75 12.5938ZM71.7109 15H69.8125V6.54688H71.7109V15ZM69.6953 4.35156C69.6953 4.0599 69.7865 3.81771 69.9688 3.625C70.1562 3.43229 70.4219 3.33594 70.7656 3.33594C71.1094 3.33594 71.375 3.43229 71.5625 3.625C71.75 3.81771 71.8438 4.0599 71.8438 4.35156C71.8438 4.63802 71.75 4.8776 71.5625 5.07031C71.375 5.25781 71.1094 5.35156 70.7656 5.35156C70.4219 5.35156 70.1562 5.25781 69.9688 5.07031C69.7865 4.8776 69.6953 4.63802 69.6953 4.35156ZM76.1641 4.49219V6.54688H77.6562V7.95312H76.1641V12.6719C76.1641 12.9948 76.2266 13.2292 76.3516 13.375C76.4818 13.5156 76.7109 13.5859 77.0391 13.5859C77.2578 13.5859 77.4792 13.5599 77.7031 13.5078V14.9766C77.2708 15.0964 76.8542 15.1562 76.4531 15.1562C74.9948 15.1562 74.2656 14.3516 74.2656 12.7422V7.95312H72.875V6.54688H74.2656V4.49219H76.1641ZM82.0703 12.2812L83.7891 6.54688H85.8125L82.4531 16.2812C81.9375 17.7031 81.0625 18.4141 79.8281 18.4141C79.5521 18.4141 79.2474 18.3672 78.9141 18.2734V16.8047L79.2734 16.8281C79.7526 16.8281 80.112 16.7396 80.3516 16.5625C80.5964 16.3906 80.7891 16.099 80.9297 15.6875L81.2031 14.9609L78.2344 6.54688H80.2812L82.0703 12.2812ZM90.5391 10.6953C90.5391 9.86719 90.7031 9.1224 91.0312 8.46094C91.3594 7.79427 91.8203 7.28385 92.4141 6.92969C93.0078 6.57031 93.6901 6.39062 94.4609 6.39062C95.6016 6.39062 96.526 6.75781 97.2344 7.49219C97.9479 8.22656 98.3333 9.20052 98.3906 10.4141L98.3984 10.8594C98.3984 11.6927 98.237 12.4375 97.9141 13.0938C97.5964 13.75 97.138 14.2578 96.5391 14.6172C95.9453 14.9766 95.2578 15.1562 94.4766 15.1562C93.2839 15.1562 92.3281 14.7604 91.6094 13.9688C90.8958 13.1719 90.5391 12.112 90.5391 10.7891V10.6953ZM92.4375 10.8594C92.4375 11.7292 92.6172 12.4115 92.9766 12.9062C93.3359 13.3958 93.8359 13.6406 94.4766 13.6406C95.1172 13.6406 95.6146 13.3906 95.9688 12.8906C96.3281 12.3906 96.5078 11.6589 96.5078 10.6953C96.5078 9.84115 96.3229 9.16406 95.9531 8.66406C95.5885 8.16406 95.0911 7.91406 94.4609 7.91406C93.8411 7.91406 93.349 8.16146 92.9844 8.65625C92.6198 9.14583 92.4375 9.88021 92.4375 10.8594ZM100.672 15V7.95312H99.3828V6.54688H100.672V5.77344C100.672 4.83594 100.932 4.11198 101.453 3.60156C101.974 3.09115 102.703 2.83594 103.641 2.83594C103.974 2.83594 104.328 2.88281 104.703 2.97656L104.656 4.46094C104.448 4.41927 104.206 4.39844 103.93 4.39844C103.023 4.39844 102.57 4.86458 102.57 5.79688V6.54688H104.289V7.95312H102.57V15H100.672ZM9.69531 31.7031C9.69531 31.3646 9.55469 31.1068 9.27344 30.9297C8.9974 30.7526 8.53646 30.5964 7.89062 30.4609C7.24479 30.3255 6.70573 30.1536 6.27344 29.9453C5.32552 29.487 4.85156 28.8229 4.85156 27.9531C4.85156 27.224 5.15885 26.6146 5.77344 26.125C6.38802 25.6354 7.16927 25.3906 8.11719 25.3906C9.1276 25.3906 9.94271 25.6406 10.5625 26.1406C11.1875 26.6406 11.5 27.2891 11.5 28.0859H9.60156C9.60156 27.7214 9.46615 27.4193 9.19531 27.1797C8.92448 26.9349 8.5651 26.8125 8.11719 26.8125C7.70052 26.8125 7.35938 26.9089 7.09375 27.1016C6.83333 27.2943 6.70312 27.5521 6.70312 27.875C6.70312 28.1667 6.82552 28.3932 7.07031 28.5547C7.3151 28.7161 7.8099 28.8802 8.55469 29.0469C9.29948 29.2083 9.88281 29.4036 10.3047 29.6328C10.7318 29.8568 11.0469 30.1276 11.25 30.4453C11.4583 30.763 11.5625 31.1484 11.5625 31.6016C11.5625 32.362 11.2474 32.9792 10.6172 33.4531C9.98698 33.9219 9.16146 34.1562 8.14062 34.1562C7.44792 34.1562 6.83073 34.0312 6.28906 33.7812C5.7474 33.5312 5.32552 33.1875 5.02344 32.75C4.72135 32.3125 4.57031 31.8411 4.57031 31.3359H6.41406C6.4401 31.7839 6.60938 32.1302 6.92188 32.375C7.23438 32.6146 7.64844 32.7344 8.16406 32.7344C8.66406 32.7344 9.04427 32.6406 9.30469 32.4531C9.5651 32.2604 9.69531 32.0104 9.69531 31.7031ZM20.625 29.8594C20.625 31.1667 20.3281 32.2109 19.7344 32.9922C19.1406 33.7682 18.3438 34.1562 17.3438 34.1562C16.4167 34.1562 15.6745 33.8516 15.1172 33.2422V37.25H13.2188V25.5469H14.9688L15.0469 26.4062C15.6042 25.7292 16.362 25.3906 17.3203 25.3906C18.3516 25.3906 19.1589 25.776 19.7422 26.5469C20.3307 27.3125 20.625 28.3776 20.625 29.7422V29.8594ZM18.7344 29.6953C18.7344 28.8516 18.5651 28.1823 18.2266 27.6875C17.8932 27.1927 17.4141 26.9453 16.7891 26.9453C16.013 26.9453 15.4557 27.2656 15.1172 27.9062V31.6562C15.4609 32.3125 16.0234 32.6406 16.8047 32.6406C17.4089 32.6406 17.8802 32.3984 18.2188 31.9141C18.5625 31.4245 18.7344 30.6849 18.7344 29.6953ZM25.9609 34.1562C24.7578 34.1562 23.7812 33.7786 23.0312 33.0234C22.2865 32.263 21.9141 31.2526 21.9141 29.9922V29.7578C21.9141 28.9141 22.0755 28.1615 22.3984 27.5C22.7266 26.8333 23.1849 26.3151 23.7734 25.9453C24.362 25.5755 25.0182 25.3906 25.7422 25.3906C26.8932 25.3906 27.7812 25.7578 28.4062 26.4922C29.0365 27.2266 29.3516 28.2656 29.3516 29.6094V30.375H23.8281C23.8854 31.0729 24.1172 31.625 24.5234 32.0312C24.9349 32.4375 25.4505 32.6406 26.0703 32.6406C26.9401 32.6406 27.6484 32.2891 28.1953 31.5859L29.2188 32.5625C28.8802 33.0677 28.4271 33.4609 27.8594 33.7422C27.2969 34.0182 26.6641 34.1562 25.9609 34.1562ZM25.7344 26.9141C25.2135 26.9141 24.7917 27.0964 24.4688 27.4609C24.151 27.8255 23.9479 28.3333 23.8594 28.9844H27.4766V28.8438C27.4349 28.2083 27.2656 27.7292 26.9688 27.4062C26.6719 27.0781 26.2604 26.9141 25.7344 26.9141ZM34.3047 32.6406C34.7786 32.6406 35.1719 32.5026 35.4844 32.2266C35.7969 31.9505 35.9635 31.6094 35.9844 31.2031H37.7734C37.7526 31.7292 37.5885 32.2214 37.2812 32.6797C36.974 33.1328 36.5573 33.4922 36.0312 33.7578C35.5052 34.0234 34.9375 34.1562 34.3281 34.1562C33.1458 34.1562 32.2083 33.7734 31.5156 33.0078C30.8229 32.2422 30.4766 31.1849 30.4766 29.8359V29.6406C30.4766 28.3542 30.8203 27.3255 31.5078 26.5547C32.1953 25.7786 33.1328 25.3906 34.3203 25.3906C35.3255 25.3906 36.1432 25.6849 36.7734 26.2734C37.4089 26.8568 37.7422 27.625 37.7734 28.5781H35.9844C35.9635 28.0938 35.7969 27.6953 35.4844 27.3828C35.1771 27.0703 34.7839 26.9141 34.3047 26.9141C33.6901 26.9141 33.2161 27.138 32.8828 27.5859C32.5495 28.0286 32.3802 28.7031 32.375 29.6094V29.9141C32.375 30.8307 32.5391 31.5156 32.8672 31.9688C33.2005 32.4167 33.6797 32.6406 34.3047 32.6406ZM41.2266 34H39.3281V25.5469H41.2266V34ZM39.2109 23.3516C39.2109 23.0599 39.3021 22.8177 39.4844 22.625C39.6719 22.4323 39.9375 22.3359 40.2812 22.3359C40.625 22.3359 40.8906 22.4323 41.0781 22.625C41.2656 22.8177 41.3594 23.0599 41.3594 23.3516C41.3594 23.638 41.2656 23.8776 41.0781 24.0703C40.8906 24.2578 40.625 24.3516 40.2812 24.3516C39.9375 24.3516 39.6719 24.2578 39.4844 24.0703C39.3021 23.8776 39.2109 23.638 39.2109 23.3516ZM43.8047 34V26.9531H42.5156V25.5469H43.8047V24.9688C43.8099 24.3073 43.9505 23.7396 44.2266 23.2656C44.5026 22.7917 44.8932 22.4349 45.3984 22.1953C45.9036 21.9557 46.5104 21.8359 47.2188 21.8359C47.6354 21.8359 48.0339 21.8802 48.4141 21.9688C48.7995 22.0573 49.1979 22.1693 49.6094 22.3047L49.3203 23.875C48.6016 23.625 47.9453 23.5 47.3516 23.5C46.7734 23.5 46.3542 23.6276 46.0938 23.8828C45.8333 24.1328 45.7031 24.5104 45.7031 25.0156V25.5469H47.3672V26.9531H45.7031V34H43.8047ZM50.5078 34H48.6094V25.5469H50.5078V34ZM56.0859 32.6406C56.5599 32.6406 56.9531 32.5026 57.2656 32.2266C57.5781 31.9505 57.7448 31.6094 57.7656 31.2031H59.5547C59.5339 31.7292 59.3698 32.2214 59.0625 32.6797C58.7552 33.1328 58.3385 33.4922 57.8125 33.7578C57.2865 34.0234 56.7188 34.1562 56.1094 34.1562C54.9271 34.1562 53.9896 33.7734 53.2969 33.0078C52.6042 32.2422 52.2578 31.1849 52.2578 29.8359V29.6406C52.2578 28.3542 52.6016 27.3255 53.2891 26.5547C53.9766 25.7786 54.9141 25.3906 56.1016 25.3906C57.1068 25.3906 57.9245 25.6849 58.5547 26.2734C59.1901 26.8568 59.5234 27.625 59.5547 28.5781H57.7656C57.7448 28.0938 57.5781 27.6953 57.2656 27.3828C56.9583 27.0703 56.5651 26.9141 56.0859 26.9141C55.4714 26.9141 54.9974 27.138 54.6641 27.5859C54.3307 28.0286 54.1615 28.7031 54.1562 29.6094V29.9141C54.1562 30.8307 54.3203 31.5156 54.6484 31.9688C54.9818 32.4167 55.4609 32.6406 56.0859 32.6406ZM66.0391 34C65.9557 33.8385 65.8828 33.5755 65.8203 33.2109C65.2161 33.8411 64.4766 34.1562 63.6016 34.1562C62.7526 34.1562 62.0599 33.9141 61.5234 33.4297C60.987 32.9453 60.7188 32.3464 60.7188 31.6328C60.7188 30.7318 61.0521 30.0417 61.7188 29.5625C62.3906 29.0781 63.349 28.8359 64.5938 28.8359H65.7578V28.2812C65.7578 27.8438 65.6354 27.4948 65.3906 27.2344C65.1458 26.9688 64.7734 26.8359 64.2734 26.8359C63.8411 26.8359 63.487 26.9453 63.2109 27.1641C62.9349 27.3776 62.7969 27.651 62.7969 27.9844H60.8984C60.8984 27.5208 61.0521 27.0885 61.3594 26.6875C61.6667 26.2812 62.0833 25.9635 62.6094 25.7344C63.1406 25.5052 63.7318 25.3906 64.3828 25.3906C65.3724 25.3906 66.1615 25.6406 66.75 26.1406C67.3385 26.6354 67.6406 27.3333 67.6562 28.2344V32.0469C67.6562 32.8073 67.763 33.4141 67.9766 33.8672V34H66.0391ZM63.9531 32.6328C64.3281 32.6328 64.6797 32.5417 65.0078 32.3594C65.3411 32.1771 65.5911 31.9323 65.7578 31.625V30.0312H64.7344C64.0312 30.0312 63.5026 30.1536 63.1484 30.3984C62.7943 30.6432 62.6172 30.9896 62.6172 31.4375C62.6172 31.8021 62.737 32.0938 62.9766 32.3125C63.2214 32.526 63.5469 32.6328 63.9531 32.6328ZM72.0234 23.4922V25.5469H73.5156V26.9531H72.0234V31.6719C72.0234 31.9948 72.0859 32.2292 72.2109 32.375C72.3411 32.5156 72.5703 32.5859 72.8984 32.5859C73.1172 32.5859 73.3385 32.5599 73.5625 32.5078V33.9766C73.1302 34.0964 72.7135 34.1562 72.3125 34.1562C70.8542 34.1562 70.125 33.3516 70.125 31.7422V26.9531H68.7344V25.5469H70.125V23.4922H72.0234ZM76.9922 34H75.0938V25.5469H76.9922V34ZM74.9766 23.3516C74.9766 23.0599 75.0677 22.8177 75.25 22.625C75.4375 22.4323 75.7031 22.3359 76.0469 22.3359C76.3906 22.3359 76.6562 22.4323 76.8438 22.625C77.0312 22.8177 77.125 23.0599 77.125 23.3516C77.125 23.638 77.0312 23.8776 76.8438 24.0703C76.6562 24.2578 76.3906 24.3516 76.0469 24.3516C75.7031 24.3516 75.4375 24.2578 75.25 24.0703C75.0677 23.8776 74.9766 23.638 74.9766 23.3516ZM78.7109 29.6953C78.7109 28.8672 78.875 28.1224 79.2031 27.4609C79.5312 26.7943 79.9922 26.2839 80.5859 25.9297C81.1797 25.5703 81.862 25.3906 82.6328 25.3906C83.7734 25.3906 84.6979 25.7578 85.4062 26.4922C86.1198 27.2266 86.5052 28.2005 86.5625 29.4141L86.5703 29.8594C86.5703 30.6927 86.4089 31.4375 86.0859 32.0938C85.7682 32.75 85.3099 33.2578 84.7109 33.6172C84.1172 33.9766 83.4297 34.1562 82.6484 34.1562C81.4557 34.1562 80.5 33.7604 79.7812 32.9688C79.0677 32.1719 78.7109 31.112 78.7109 29.7891V29.6953ZM80.6094 29.8594C80.6094 30.7292 80.7891 31.4115 81.1484 31.9062C81.5078 32.3958 82.0078 32.6406 82.6484 32.6406C83.2891 32.6406 83.7865 32.3906 84.1406 31.8906C84.5 31.3906 84.6797 30.6589 84.6797 29.6953C84.6797 28.8411 84.4948 28.1641 84.125 27.6641C83.7604 27.1641 83.263 26.9141 82.6328 26.9141C82.013 26.9141 81.5208 27.1615 81.1562 27.6562C80.7917 28.1458 80.6094 28.8802 80.6094 29.8594ZM89.9375 25.5469L89.9922 26.5234C90.6172 25.7682 91.4375 25.3906 92.4531 25.3906C94.2135 25.3906 95.1094 26.3984 95.1406 28.4141V34H93.2422V28.5234C93.2422 27.987 93.125 27.5911 92.8906 27.3359C92.6615 27.0755 92.2839 26.9453 91.7578 26.9453C90.9922 26.9453 90.4219 27.2917 90.0469 27.9844V34H88.1484V25.5469H89.9375ZM101.82 31.7031C101.82 31.3646 101.68 31.1068 101.398 30.9297C101.122 30.7526 100.661 30.5964 100.016 30.4609C99.3698 30.3255 98.8307 30.1536 98.3984 29.9453C97.4505 29.487 96.9766 28.8229 96.9766 27.9531C96.9766 27.224 97.2839 26.6146 97.8984 26.125C98.513 25.6354 99.2943 25.3906 100.242 25.3906C101.253 25.3906 102.068 25.6406 102.688 26.1406C103.312 26.6406 103.625 27.2891 103.625 28.0859H101.727C101.727 27.7214 101.591 27.4193 101.32 27.1797C101.049 26.9349 100.69 26.8125 100.242 26.8125C99.8255 26.8125 99.4844 26.9089 99.2188 27.1016C98.9583 27.2943 98.8281 27.5521 98.8281 27.875C98.8281 28.1667 98.9505 28.3932 99.1953 28.5547C99.4401 28.7161 99.9349 28.8802 100.68 29.0469C101.424 29.2083 102.008 29.4036 102.43 29.6328C102.857 29.8568 103.172 30.1276 103.375 30.4453C103.583 30.763 103.688 31.1484 103.688 31.6016C103.688 32.362 103.372 32.9792 102.742 33.4531C102.112 33.9219 101.286 34.1562 100.266 34.1562C99.5729 34.1562 98.9557 34.0312 98.4141 33.7812C97.8724 33.5312 97.4505 33.1875 97.1484 32.75C96.8464 32.3125 96.6953 31.8411 96.6953 31.3359H98.5391C98.5651 31.7839 98.7344 32.1302 99.0469 32.375C99.3594 32.6146 99.7734 32.7344 100.289 32.7344C100.789 32.7344 101.169 32.6406 101.43 32.4531C101.69 32.2604 101.82 32.0104 101.82 31.7031Z" fill="#2097F6"/>
<path d="M446.523 332.352H442.117L441.195 335H439.141L443.438 323.625H445.211L449.516 335H447.453L446.523 332.352ZM442.672 330.758H445.969L444.32 326.039L442.672 330.758ZM455.656 334.172C455.099 334.828 454.307 335.156 453.281 335.156C452.365 335.156 451.669 334.888 451.195 334.352C450.727 333.815 450.492 333.039 450.492 332.023V326.547H452.391V332C452.391 333.073 452.836 333.609 453.727 333.609C454.648 333.609 455.271 333.279 455.594 332.617V326.547H457.492V335H455.703L455.656 334.172ZM461.805 324.492V326.547H463.297V327.953H461.805V332.672C461.805 332.995 461.867 333.229 461.992 333.375C462.122 333.516 462.352 333.586 462.68 333.586C462.898 333.586 463.12 333.56 463.344 333.508V334.977C462.911 335.096 462.495 335.156 462.094 335.156C460.635 335.156 459.906 334.352 459.906 332.742V327.953H458.516V326.547H459.906V324.492H461.805ZM464.164 330.695C464.164 329.867 464.328 329.122 464.656 328.461C464.984 327.794 465.445 327.284 466.039 326.93C466.633 326.57 467.315 326.391 468.086 326.391C469.227 326.391 470.151 326.758 470.859 327.492C471.573 328.227 471.958 329.201 472.016 330.414L472.023 330.859C472.023 331.693 471.862 332.438 471.539 333.094C471.221 333.75 470.763 334.258 470.164 334.617C469.57 334.977 468.883 335.156 468.102 335.156C466.909 335.156 465.953 334.76 465.234 333.969C464.521 333.172 464.164 332.112 464.164 330.789V330.695ZM466.062 330.859C466.062 331.729 466.242 332.411 466.602 332.906C466.961 333.396 467.461 333.641 468.102 333.641C468.742 333.641 469.24 333.391 469.594 332.891C469.953 332.391 470.133 331.659 470.133 330.695C470.133 329.841 469.948 329.164 469.578 328.664C469.214 328.164 468.716 327.914 468.086 327.914C467.466 327.914 466.974 328.161 466.609 328.656C466.245 329.146 466.062 329.88 466.062 330.859ZM475.414 326.547L475.469 327.43C476.062 326.737 476.875 326.391 477.906 326.391C479.036 326.391 479.81 326.823 480.227 327.688C480.841 326.823 481.706 326.391 482.82 326.391C483.753 326.391 484.445 326.648 484.898 327.164C485.357 327.68 485.591 328.44 485.602 329.445V335H483.703V329.5C483.703 328.964 483.586 328.57 483.352 328.32C483.117 328.07 482.729 327.945 482.188 327.945C481.755 327.945 481.401 328.062 481.125 328.297C480.854 328.526 480.664 328.828 480.555 329.203L480.562 335H478.664V329.438C478.638 328.443 478.13 327.945 477.141 327.945C476.38 327.945 475.841 328.255 475.523 328.875V335H473.625V326.547H475.414ZM492.602 335C492.518 334.839 492.445 334.576 492.383 334.211C491.779 334.841 491.039 335.156 490.164 335.156C489.315 335.156 488.622 334.914 488.086 334.43C487.549 333.945 487.281 333.346 487.281 332.633C487.281 331.732 487.615 331.042 488.281 330.562C488.953 330.078 489.911 329.836 491.156 329.836H492.32V329.281C492.32 328.844 492.198 328.495 491.953 328.234C491.708 327.969 491.336 327.836 490.836 327.836C490.404 327.836 490.049 327.945 489.773 328.164C489.497 328.378 489.359 328.651 489.359 328.984H487.461C487.461 328.521 487.615 328.089 487.922 327.688C488.229 327.281 488.646 326.964 489.172 326.734C489.703 326.505 490.294 326.391 490.945 326.391C491.935 326.391 492.724 326.641 493.312 327.141C493.901 327.635 494.203 328.333 494.219 329.234V333.047C494.219 333.807 494.326 334.414 494.539 334.867V335H492.602ZM490.516 333.633C490.891 333.633 491.242 333.542 491.57 333.359C491.904 333.177 492.154 332.932 492.32 332.625V331.031H491.297C490.594 331.031 490.065 331.154 489.711 331.398C489.357 331.643 489.18 331.99 489.18 332.438C489.18 332.802 489.299 333.094 489.539 333.312C489.784 333.526 490.109 333.633 490.516 333.633ZM498.586 324.492V326.547H500.078V327.953H498.586V332.672C498.586 332.995 498.648 333.229 498.773 333.375C498.904 333.516 499.133 333.586 499.461 333.586C499.68 333.586 499.901 333.56 500.125 333.508V334.977C499.693 335.096 499.276 335.156 498.875 335.156C497.417 335.156 496.688 334.352 496.688 332.742V327.953H495.297V326.547H496.688V324.492H498.586ZM503.555 335H501.656V326.547H503.555V335ZM501.539 324.352C501.539 324.06 501.63 323.818 501.812 323.625C502 323.432 502.266 323.336 502.609 323.336C502.953 323.336 503.219 323.432 503.406 323.625C503.594 323.818 503.688 324.06 503.688 324.352C503.688 324.638 503.594 324.878 503.406 325.07C503.219 325.258 502.953 325.352 502.609 325.352C502.266 325.352 502 325.258 501.812 325.07C501.63 324.878 501.539 324.638 501.539 324.352ZM505.273 330.695C505.273 329.867 505.438 329.122 505.766 328.461C506.094 327.794 506.555 327.284 507.148 326.93C507.742 326.57 508.424 326.391 509.195 326.391C510.336 326.391 511.26 326.758 511.969 327.492C512.682 328.227 513.068 329.201 513.125 330.414L513.133 330.859C513.133 331.693 512.971 332.438 512.648 333.094C512.331 333.75 511.872 334.258 511.273 334.617C510.68 334.977 509.992 335.156 509.211 335.156C508.018 335.156 507.062 334.76 506.344 333.969C505.63 333.172 505.273 332.112 505.273 330.789V330.695ZM507.172 330.859C507.172 331.729 507.352 332.411 507.711 332.906C508.07 333.396 508.57 333.641 509.211 333.641C509.852 333.641 510.349 333.391 510.703 332.891C511.062 332.391 511.242 331.659 511.242 330.695C511.242 329.841 511.057 329.164 510.688 328.664C510.323 328.164 509.826 327.914 509.195 327.914C508.576 327.914 508.083 328.161 507.719 328.656C507.354 329.146 507.172 329.88 507.172 330.859ZM516.5 326.547L516.555 327.523C517.18 326.768 518 326.391 519.016 326.391C520.776 326.391 521.672 327.398 521.703 329.414V335H519.805V329.523C519.805 328.987 519.688 328.591 519.453 328.336C519.224 328.076 518.846 327.945 518.32 327.945C517.555 327.945 516.984 328.292 516.609 328.984V335H514.711V326.547H516.5ZM527.273 330.695C527.273 329.867 527.438 329.122 527.766 328.461C528.094 327.794 528.555 327.284 529.148 326.93C529.742 326.57 530.424 326.391 531.195 326.391C532.336 326.391 533.26 326.758 533.969 327.492C534.682 328.227 535.068 329.201 535.125 330.414L535.133 330.859C535.133 331.693 534.971 332.438 534.648 333.094C534.331 333.75 533.872 334.258 533.273 334.617C532.68 334.977 531.992 335.156 531.211 335.156C530.018 335.156 529.062 334.76 528.344 333.969C527.63 333.172 527.273 332.112 527.273 330.789V330.695ZM529.172 330.859C529.172 331.729 529.352 332.411 529.711 332.906C530.07 333.396 530.57 333.641 531.211 333.641C531.852 333.641 532.349 333.391 532.703 332.891C533.062 332.391 533.242 331.659 533.242 330.695C533.242 329.841 533.057 329.164 532.688 328.664C532.323 328.164 531.826 327.914 531.195 327.914C530.576 327.914 530.083 328.161 529.719 328.656C529.354 329.146 529.172 329.88 529.172 330.859ZM537.406 335V327.953H536.117V326.547H537.406V325.773C537.406 324.836 537.667 324.112 538.188 323.602C538.708 323.091 539.438 322.836 540.375 322.836C540.708 322.836 541.062 322.883 541.438 322.977L541.391 324.461C541.182 324.419 540.94 324.398 540.664 324.398C539.758 324.398 539.305 324.865 539.305 325.797V326.547H541.023V327.953H539.305V335H537.406ZM451.359 349.859C451.359 351.167 451.062 352.211 450.469 352.992C449.875 353.768 449.078 354.156 448.078 354.156C447.151 354.156 446.409 353.852 445.852 353.242V357.25H443.953V345.547H445.703L445.781 346.406C446.339 345.729 447.096 345.391 448.055 345.391C449.086 345.391 449.893 345.776 450.477 346.547C451.065 347.312 451.359 348.378 451.359 349.742V349.859ZM449.469 349.695C449.469 348.852 449.299 348.182 448.961 347.688C448.628 347.193 448.148 346.945 447.523 346.945C446.747 346.945 446.19 347.266 445.852 347.906V351.656C446.195 352.312 446.758 352.641 447.539 352.641C448.143 352.641 448.615 352.398 448.953 351.914C449.297 351.424 449.469 350.685 449.469 349.695ZM457.398 347.281C457.148 347.24 456.891 347.219 456.625 347.219C455.755 347.219 455.169 347.552 454.867 348.219V354H452.969V345.547H454.781L454.828 346.492C455.286 345.758 455.922 345.391 456.734 345.391C457.005 345.391 457.229 345.427 457.406 345.5L457.398 347.281ZM457.961 349.695C457.961 348.867 458.125 348.122 458.453 347.461C458.781 346.794 459.242 346.284 459.836 345.93C460.43 345.57 461.112 345.391 461.883 345.391C463.023 345.391 463.948 345.758 464.656 346.492C465.37 347.227 465.755 348.201 465.812 349.414L465.82 349.859C465.82 350.693 465.659 351.438 465.336 352.094C465.018 352.75 464.56 353.258 463.961 353.617C463.367 353.977 462.68 354.156 461.898 354.156C460.706 354.156 459.75 353.76 459.031 352.969C458.318 352.172 457.961 351.112 457.961 349.789V349.695ZM459.859 349.859C459.859 350.729 460.039 351.411 460.398 351.906C460.758 352.396 461.258 352.641 461.898 352.641C462.539 352.641 463.036 352.391 463.391 351.891C463.75 351.391 463.93 350.659 463.93 349.695C463.93 348.841 463.745 348.164 463.375 347.664C463.01 347.164 462.513 346.914 461.883 346.914C461.263 346.914 460.771 347.161 460.406 347.656C460.042 348.146 459.859 348.88 459.859 349.859ZM467.07 349.695C467.07 348.867 467.234 348.122 467.562 347.461C467.891 346.794 468.352 346.284 468.945 345.93C469.539 345.57 470.221 345.391 470.992 345.391C472.133 345.391 473.057 345.758 473.766 346.492C474.479 347.227 474.865 348.201 474.922 349.414L474.93 349.859C474.93 350.693 474.768 351.438 474.445 352.094C474.128 352.75 473.669 353.258 473.07 353.617C472.477 353.977 471.789 354.156 471.008 354.156C469.815 354.156 468.859 353.76 468.141 352.969C467.427 352.172 467.07 351.112 467.07 349.789V349.695ZM468.969 349.859C468.969 350.729 469.148 351.411 469.508 351.906C469.867 352.396 470.367 352.641 471.008 352.641C471.648 352.641 472.146 352.391 472.5 351.891C472.859 351.391 473.039 350.659 473.039 349.695C473.039 348.841 472.854 348.164 472.484 347.664C472.12 347.164 471.622 346.914 470.992 346.914C470.372 346.914 469.88 347.161 469.516 347.656C469.151 348.146 468.969 348.88 468.969 349.859ZM477.203 354V346.953H475.914V345.547H477.203V344.773C477.203 343.836 477.464 343.112 477.984 342.602C478.505 342.091 479.234 341.836 480.172 341.836C480.505 341.836 480.859 341.883 481.234 341.977L481.188 343.461C480.979 343.419 480.737 343.398 480.461 343.398C479.555 343.398 479.102 343.865 479.102 344.797V345.547H480.82V346.953H479.102V354H477.203Z" fill="#2097F6"/>
<line x1="53" y1="334.5" x2="410" y2="334.5" stroke="#2097F7" stroke-width="2"/>
<path d="M400 325L410.5 334.5L400 343.5" stroke="#2097F7" stroke-width="2" stroke-linecap="round" stroke-linejoin="round"/>
<circle cx="48.5" cy="335" r="5.5" stroke="#2097F7" stroke-width="2"/>
<line x1="48.5114" y1="330.012" x2="48.8238" y2="57.012" stroke="#2097F7" stroke-width="2"/>
<path d="M39.3124 67.0012L48.8244 56.5121L57.8124 67.0224" stroke="#2097F7" stroke-width="2" stroke-linecap="round" stroke-linejoin="round"/>
<circle cx="49.0063" cy="334.512" r="5.5" transform="rotate(-89.9344 49.0063 334.512)" stroke="#2097F7" stroke-width="2"/>
<circle cx="63.5" cy="100.5" r="5.5" fill="#5452F6"/>
<circle cx="209.5" cy="198.5" r="5.5" fill="#65BF73"/>
<g filter="url(#filter0_d)">
<g filter="url(#filter1_d)">
<path d="M109 79C109 74.5817 112.582 71 117 71H278C282.418 71 286 74.5817 286 79V128C286 132.418 282.418 136 278 136H197.5H117C112.582 136 109 132.418 109 128V79Z" fill="#EEEEFF"/>
<path d="M117 71.5H278C282.142 71.5 285.5 74.8579 285.5 79V128C285.5 132.142 282.142 135.5 278 135.5H197.5H117C112.858 135.5 109.5 132.142 109.5 128V79C109.5 74.8579 112.858 71.5 117 71.5Z" stroke="#5452F6"/>
</g>
<path d="M110 93L97.5851 100.587C95.0328 102.147 95.0329 105.853 97.5851 107.413L110 115V93Z" fill="#EEEEFF"/>
<path d="M109.5 93L97.3877 100.613C94.8926 102.182 94.8926 105.818 97.3877 107.387L109.5 115" stroke="#5452F6" stroke-linecap="round" stroke-linejoin="round"/>
<path d="M132.719 96.625L136 105.344L139.273 96.625H141.828V108H139.859V104.25L140.055 99.2344L136.695 108H135.281L131.93 99.2422L132.125 104.25V108H130.156V96.625H132.719ZM146.008 108H144.109V99.5469H146.008V108ZM143.992 97.3516C143.992 97.0599 144.083 96.8177 144.266 96.625C144.453 96.4323 144.719 96.3359 145.062 96.3359C145.406 96.3359 145.672 96.4323 145.859 96.625C146.047 96.8177 146.141 97.0599 146.141 97.3516C146.141 97.638 146.047 97.8776 145.859 98.0703C145.672 98.2578 145.406 98.3516 145.062 98.3516C144.719 98.3516 144.453 98.2578 144.266 98.0703C144.083 97.8776 143.992 97.638 143.992 97.3516ZM151.766 103.93H147.664V102.398H151.766V103.93ZM162.195 104.297C162.081 105.51 161.633 106.458 160.852 107.141C160.07 107.818 159.031 108.156 157.734 108.156C156.828 108.156 156.029 107.943 155.336 107.516C154.648 107.083 154.117 106.471 153.742 105.68C153.367 104.888 153.172 103.969 153.156 102.922V101.859C153.156 100.786 153.346 99.8411 153.727 99.0234C154.107 98.2057 154.651 97.5755 155.359 97.1328C156.073 96.6901 156.896 96.4688 157.828 96.4688C159.083 96.4688 160.094 96.8099 160.859 97.4922C161.625 98.1745 162.07 99.138 162.195 100.383H160.227C160.133 99.5651 159.893 98.9766 159.508 98.6172C159.128 98.2526 158.568 98.0703 157.828 98.0703C156.969 98.0703 156.307 98.3854 155.844 99.0156C155.385 99.6406 155.151 100.56 155.141 101.773V102.781C155.141 104.01 155.359 104.948 155.797 105.594C156.24 106.24 156.885 106.562 157.734 106.562C158.51 106.562 159.094 106.388 159.484 106.039C159.875 105.69 160.122 105.109 160.227 104.297H162.195ZM165.656 100.469C166.276 99.75 167.06 99.3906 168.008 99.3906C169.81 99.3906 170.724 100.419 170.75 102.477V108H168.852V102.547C168.852 101.964 168.724 101.552 168.469 101.312C168.219 101.068 167.849 100.945 167.359 100.945C166.599 100.945 166.031 101.284 165.656 101.961V108H163.758V96H165.656V100.469ZM172.32 103.695C172.32 102.867 172.484 102.122 172.812 101.461C173.141 100.794 173.602 100.284 174.195 99.9297C174.789 99.5703 175.471 99.3906 176.242 99.3906C177.383 99.3906 178.307 99.7578 179.016 100.492C179.729 101.227 180.115 102.201 180.172 103.414L180.18 103.859C180.18 104.693 180.018 105.438 179.695 106.094C179.378 106.75 178.919 107.258 178.32 107.617C177.727 107.977 177.039 108.156 176.258 108.156C175.065 108.156 174.109 107.76 173.391 106.969C172.677 106.172 172.32 105.112 172.32 103.789V103.695ZM174.219 103.859C174.219 104.729 174.398 105.411 174.758 105.906C175.117 106.396 175.617 106.641 176.258 106.641C176.898 106.641 177.396 106.391 177.75 105.891C178.109 105.391 178.289 104.659 178.289 103.695C178.289 102.841 178.104 102.164 177.734 101.664C177.37 101.164 176.872 100.914 176.242 100.914C175.622 100.914 175.13 101.161 174.766 101.656C174.401 102.146 174.219 102.88 174.219 103.859ZM185.469 103.93H181.367V102.398H185.469V103.93ZM195.898 104.297C195.784 105.51 195.336 106.458 194.555 107.141C193.773 107.818 192.734 108.156 191.438 108.156C190.531 108.156 189.732 107.943 189.039 107.516C188.352 107.083 187.82 106.471 187.445 105.68C187.07 104.888 186.875 103.969 186.859 102.922V101.859C186.859 100.786 187.049 99.8411 187.43 99.0234C187.81 98.2057 188.354 97.5755 189.062 97.1328C189.776 96.6901 190.599 96.4688 191.531 96.4688C192.786 96.4688 193.797 96.8099 194.562 97.4922C195.328 98.1745 195.773 99.138 195.898 100.383H193.93C193.836 99.5651 193.596 98.9766 193.211 98.6172C192.831 98.2526 192.271 98.0703 191.531 98.0703C190.672 98.0703 190.01 98.3854 189.547 99.0156C189.089 99.6406 188.854 100.56 188.844 101.773V102.781C188.844 104.01 189.062 104.948 189.5 105.594C189.943 106.24 190.589 106.562 191.438 106.562C192.214 106.562 192.797 106.388 193.188 106.039C193.578 105.69 193.826 105.109 193.93 104.297H195.898ZM197.133 103.695C197.133 102.867 197.297 102.122 197.625 101.461C197.953 100.794 198.414 100.284 199.008 99.9297C199.602 99.5703 200.284 99.3906 201.055 99.3906C202.195 99.3906 203.12 99.7578 203.828 100.492C204.542 101.227 204.927 102.201 204.984 103.414L204.992 103.859C204.992 104.693 204.831 105.438 204.508 106.094C204.19 106.75 203.732 107.258 203.133 107.617C202.539 107.977 201.852 108.156 201.07 108.156C199.878 108.156 198.922 107.76 198.203 106.969C197.49 106.172 197.133 105.112 197.133 103.789V103.695ZM199.031 103.859C199.031 104.729 199.211 105.411 199.57 105.906C199.93 106.396 200.43 106.641 201.07 106.641C201.711 106.641 202.208 106.391 202.562 105.891C202.922 105.391 203.102 104.659 203.102 103.695C203.102 102.841 202.917 102.164 202.547 101.664C202.182 101.164 201.685 100.914 201.055 100.914C200.435 100.914 199.943 101.161 199.578 101.656C199.214 102.146 199.031 102.88 199.031 103.859ZM206.242 103.703C206.242 102.38 206.544 101.331 207.148 100.555C207.753 99.7786 208.57 99.3906 209.602 99.3906C210.544 99.3906 211.292 99.7214 211.844 100.383L211.953 99.5469H213.641V111.25H211.742V107.281C211.19 107.865 210.471 108.156 209.586 108.156C208.576 108.156 207.766 107.763 207.156 106.977C206.547 106.185 206.242 105.094 206.242 103.703ZM208.141 103.867C208.141 104.732 208.31 105.411 208.648 105.906C208.992 106.396 209.466 106.641 210.07 106.641C210.82 106.641 211.378 106.32 211.742 105.68V101.836C211.378 101.221 210.826 100.914 210.086 100.914C209.482 100.914 209.005 101.156 208.656 101.641C208.312 102.125 208.141 102.867 208.141 103.867Z" fill="#5452F6"/>
</g>
<g filter="url(#filter2_d)">
<g filter="url(#filter3_d)">
<path d="M250 174C250 169.582 253.582 166 258 166H419C423.418 166 427 169.582 427 174V223C427 227.418 423.418 231 419 231H338.5H258C253.582 231 250 227.418 250 223V174Z" fill="#E5FDE8"/>
<path d="M258 166.5H419C423.142 166.5 426.5 169.858 426.5 174V223C426.5 227.142 423.142 230.5 419 230.5H338.5H258C253.858 230.5 250.5 227.142 250.5 223V174C250.5 169.858 253.858 166.5 258 166.5Z" stroke="#65BF73"/>
</g>
<path d="M251 188L238.585 195.587C236.033 197.147 236.033 200.853 238.585 202.413L251 210V188Z" fill="#E5FDE8"/>
<path d="M250.5 188L238.388 195.613C235.893 197.182 235.893 200.818 238.388 202.387L250.5 210" stroke="#65BF73" stroke-linecap="round" stroke-linejoin="round"/>
<path d="M277.523 198.384H273.117L272.195 201.032H270.141L274.438 189.657H276.211L280.516 201.032H278.453L277.523 198.384ZM273.672 196.79H276.969L275.32 192.071L273.672 196.79ZM286.055 194.313C285.805 194.272 285.547 194.251 285.281 194.251C284.411 194.251 283.826 194.584 283.523 195.251V201.032H281.625V192.579H283.438L283.484 193.524C283.943 192.79 284.578 192.423 285.391 192.423C285.661 192.423 285.885 192.459 286.062 192.532L286.055 194.313ZM290.57 199.673C291.044 199.673 291.438 199.535 291.75 199.259C292.062 198.983 292.229 198.641 292.25 198.235H294.039C294.018 198.761 293.854 199.253 293.547 199.712C293.24 200.165 292.823 200.524 292.297 200.79C291.771 201.055 291.203 201.188 290.594 201.188C289.411 201.188 288.474 200.805 287.781 200.04C287.089 199.274 286.742 198.217 286.742 196.868V196.673C286.742 195.386 287.086 194.358 287.773 193.587C288.461 192.811 289.398 192.423 290.586 192.423C291.591 192.423 292.409 192.717 293.039 193.305C293.674 193.889 294.008 194.657 294.039 195.61H292.25C292.229 195.126 292.062 194.727 291.75 194.415C291.443 194.102 291.049 193.946 290.57 193.946C289.956 193.946 289.482 194.17 289.148 194.618C288.815 195.061 288.646 195.735 288.641 196.641V196.946C288.641 197.863 288.805 198.548 289.133 199.001C289.466 199.449 289.945 199.673 290.57 199.673ZM297.344 193.501C297.964 192.782 298.747 192.423 299.695 192.423C301.497 192.423 302.411 193.451 302.438 195.509V201.032H300.539V195.579C300.539 194.996 300.411 194.584 300.156 194.344C299.906 194.1 299.536 193.977 299.047 193.977C298.286 193.977 297.719 194.316 297.344 194.993V201.032H295.445V189.032H297.344V193.501ZM308.086 201.188C306.883 201.188 305.906 200.811 305.156 200.055C304.411 199.295 304.039 198.285 304.039 197.024V196.79C304.039 195.946 304.201 195.193 304.523 194.532C304.852 193.865 305.31 193.347 305.898 192.977C306.487 192.608 307.143 192.423 307.867 192.423C309.018 192.423 309.906 192.79 310.531 193.524C311.161 194.259 311.477 195.298 311.477 196.641V197.407H305.953C306.01 198.105 306.242 198.657 306.648 199.063C307.06 199.469 307.576 199.673 308.195 199.673C309.065 199.673 309.773 199.321 310.32 198.618L311.344 199.594C311.005 200.1 310.552 200.493 309.984 200.774C309.422 201.05 308.789 201.188 308.086 201.188ZM307.859 193.946C307.339 193.946 306.917 194.128 306.594 194.493C306.276 194.858 306.073 195.365 305.984 196.016H309.602V195.876C309.56 195.24 309.391 194.761 309.094 194.438C308.797 194.11 308.385 193.946 307.859 193.946ZM315.336 190.524V192.579H316.828V193.985H315.336V198.704C315.336 199.027 315.398 199.261 315.523 199.407C315.654 199.548 315.883 199.618 316.211 199.618C316.43 199.618 316.651 199.592 316.875 199.54V201.009C316.443 201.128 316.026 201.188 315.625 201.188C314.167 201.188 313.438 200.384 313.438 198.774V193.985H312.047V192.579H313.438V190.524H315.336ZM321.242 198.313L322.961 192.579H324.984L321.625 202.313C321.109 203.735 320.234 204.446 319 204.446C318.724 204.446 318.419 204.399 318.086 204.305V202.837L318.445 202.86C318.924 202.86 319.284 202.772 319.523 202.594C319.768 202.423 319.961 202.131 320.102 201.719L320.375 200.993L317.406 192.579H319.453L321.242 198.313ZM333.484 196.891C333.484 198.199 333.188 199.243 332.594 200.024C332 200.8 331.203 201.188 330.203 201.188C329.276 201.188 328.534 200.884 327.977 200.274V204.282H326.078V192.579H327.828L327.906 193.438C328.464 192.761 329.221 192.423 330.18 192.423C331.211 192.423 332.018 192.808 332.602 193.579C333.19 194.344 333.484 195.41 333.484 196.774V196.891ZM331.594 196.727C331.594 195.884 331.424 195.214 331.086 194.719C330.753 194.225 330.273 193.977 329.648 193.977C328.872 193.977 328.315 194.298 327.977 194.938V198.688C328.32 199.344 328.883 199.673 329.664 199.673C330.268 199.673 330.74 199.43 331.078 198.946C331.422 198.456 331.594 197.717 331.594 196.727ZM338.82 201.188C337.617 201.188 336.641 200.811 335.891 200.055C335.146 199.295 334.773 198.285 334.773 197.024V196.79C334.773 195.946 334.935 195.193 335.258 194.532C335.586 193.865 336.044 193.347 336.633 192.977C337.221 192.608 337.878 192.423 338.602 192.423C339.753 192.423 340.641 192.79 341.266 193.524C341.896 194.259 342.211 195.298 342.211 196.641V197.407H336.688C336.745 198.105 336.977 198.657 337.383 199.063C337.794 199.469 338.31 199.673 338.93 199.673C339.799 199.673 340.508 199.321 341.055 198.618L342.078 199.594C341.74 200.1 341.286 200.493 340.719 200.774C340.156 201.05 339.523 201.188 338.82 201.188ZM338.594 193.946C338.073 193.946 337.651 194.128 337.328 194.493C337.01 194.858 336.807 195.365 336.719 196.016H340.336V195.876C340.294 195.24 340.125 194.761 339.828 194.438C339.531 194.11 339.12 193.946 338.594 193.946Z" fill="#65BF73"/>
</g>
<defs>
<filter id="filter0_d" x="71" y="71" width="219" height="69" filterUnits="userSpaceOnUse" color-interpolation-filters="sRGB">
<feFlood flood-opacity="0" result="BackgroundImageFix"/>
<feColorMatrix in="SourceAlpha" type="matrix" values="0 0 0 0 0 0 0 0 0 0 0 0 0 0 0 0 0 0 127 0"/>
<feOffset dx="4" dy="4"/>
<feColorMatrix type="matrix" values="0 0 0 0 0.674908 0 0 0 0 0.662083 0 0 0 0 0.945833 0 0 0 1 0"/>
<feBlend mode="normal" in2="BackgroundImageFix" result="effect1_dropShadow"/>
<feBlend mode="normal" in="SourceGraphic" in2="effect1_dropShadow" result="shape"/>
</filter>
<filter id="filter1_d" x="109" y="71" width="181" height="69" filterUnits="userSpaceOnUse" color-interpolation-filters="sRGB">
<feFlood flood-opacity="0" result="BackgroundImageFix"/>
<feColorMatrix in="SourceAlpha" type="matrix" values="0 0 0 0 0 0 0 0 0 0 0 0 0 0 0 0 0 0 127 0"/>
<feOffset dx="4" dy="4"/>
<feColorMatrix type="matrix" values="0 0 0 0 0.674908 0 0 0 0 0.662083 0 0 0 0 0.945833 0 0 0 1 0"/>
<feBlend mode="normal" in2="BackgroundImageFix" result="effect1_dropShadow"/>
<feBlend mode="normal" in="SourceGraphic" in2="effect1_dropShadow" result="shape"/>
</filter>
<filter id="filter2_d" x="235" y="166" width="196" height="69" filterUnits="userSpaceOnUse" color-interpolation-filters="sRGB">
<feFlood flood-opacity="0" result="BackgroundImageFix"/>
<feColorMatrix in="SourceAlpha" type="matrix" values="0 0 0 0 0 0 0 0 0 0 0 0 0 0 0 0 0 0 127 0"/>
<feOffset dx="4" dy="4"/>
<feColorMatrix type="matrix" values="0 0 0 0 0.578021 0 0 0 0 0.775 0 0 0 0 0.608662 0 0 0 1 0"/>
<feBlend mode="normal" in2="BackgroundImageFix" result="effect1_dropShadow"/>
<feBlend mode="normal" in="SourceGraphic" in2="effect1_dropShadow" result="shape"/>
</filter>
<filter id="filter3_d" x="250" y="166" width="181" height="69" filterUnits="userSpaceOnUse" color-interpolation-filters="sRGB">
<feFlood flood-opacity="0" result="BackgroundImageFix"/>
<feColorMatrix in="SourceAlpha" type="matrix" values="0 0 0 0 0 0 0 0 0 0 0 0 0 0 0 0 0 0 127 0"/>
<feOffset dx="4" dy="4"/>
<feColorMatrix type="matrix" values="0 0 0 0 0.578021 0 0 0 0 0.775 0 0 0 0 0.608662 0 0 0 1 0"/>
<feBlend mode="normal" in2="BackgroundImageFix" result="effect1_dropShadow"/>
<feBlend mode="normal" in="SourceGraphic" in2="effect1_dropShadow" result="shape"/>
</filter>
</defs>
</svg>
