<svg width="633" height="147" viewBox="0 0 633 147" fill="none" xmlns="http://www.w3.org/2000/svg">
<line x1="255" y1="120.5" x2="389" y2="120.5" stroke="#65BF73" stroke-width="2"/>
<path d="M379 111L389.5 120.5L379 129.5" stroke="#65BF73" stroke-width="2" stroke-linecap="round" stroke-linejoin="round"/>
<circle cx="250.5" cy="121" r="5.5" stroke="#65BF73" stroke-width="2"/>
<path d="M304.078 102.297C303.964 103.51 303.516 104.458 302.734 105.141C301.953 105.818 300.914 106.156 299.617 106.156C298.711 106.156 297.911 105.943 297.219 105.516C296.531 105.083 296 104.471 295.625 103.68C295.25 102.888 295.055 101.969 295.039 100.922V99.8594C295.039 98.7865 295.229 97.8411 295.609 97.0234C295.99 96.2057 296.534 95.5755 297.242 95.1328C297.956 94.6901 298.779 94.4688 299.711 94.4688C300.966 94.4688 301.977 94.8099 302.742 95.4922C303.508 96.1745 303.953 97.138 304.078 98.3828H302.109C302.016 97.5651 301.776 96.9766 301.391 96.6172C301.01 96.2526 300.451 96.0703 299.711 96.0703C298.852 96.0703 298.19 96.3854 297.727 97.0156C297.268 97.6406 297.034 98.5599 297.023 99.7734V100.781C297.023 102.01 297.242 102.948 297.68 103.594C298.122 104.24 298.768 104.562 299.617 104.562C300.393 104.562 300.977 104.388 301.367 104.039C301.758 103.69 302.005 103.109 302.109 102.297H304.078ZM314.93 100.609C314.93 101.724 314.737 102.703 314.352 103.547C313.966 104.385 313.414 105.031 312.695 105.484C311.982 105.932 311.159 106.156 310.227 106.156C309.305 106.156 308.482 105.932 307.758 105.484C307.039 105.031 306.482 104.388 306.086 103.555C305.695 102.721 305.497 101.76 305.492 100.672V100.031C305.492 98.9219 305.688 97.9427 306.078 97.0938C306.474 96.2448 307.029 95.5964 307.742 95.1484C308.461 94.6953 309.284 94.4688 310.211 94.4688C311.138 94.4688 311.958 94.6927 312.672 95.1406C313.391 95.5833 313.945 96.224 314.336 97.0625C314.727 97.8958 314.924 98.8672 314.93 99.9766V100.609ZM312.953 100.016C312.953 98.7552 312.714 97.7891 312.234 97.1172C311.76 96.4453 311.086 96.1094 310.211 96.1094C309.357 96.1094 308.688 96.4453 308.203 97.1172C307.724 97.7839 307.479 98.7292 307.469 99.9531V100.609C307.469 101.859 307.711 102.826 308.195 103.508C308.685 104.19 309.362 104.531 310.227 104.531C311.102 104.531 311.773 104.198 312.242 103.531C312.716 102.865 312.953 101.891 312.953 100.609V100.016ZM325.922 106H323.945L318.875 97.9297V106H316.898V94.625H318.875L323.961 102.727V94.625H325.922V106ZM334.203 103.07C334.203 102.57 334.026 102.185 333.672 101.914C333.323 101.643 332.69 101.37 331.773 101.094C330.857 100.818 330.128 100.51 329.586 100.172C328.549 99.5208 328.031 98.6719 328.031 97.625C328.031 96.7083 328.404 95.9531 329.148 95.3594C329.898 94.7656 330.87 94.4688 332.062 94.4688C332.854 94.4688 333.56 94.6146 334.18 94.9062C334.799 95.1979 335.286 95.6146 335.641 96.1562C335.995 96.6927 336.172 97.2891 336.172 97.9453H334.203C334.203 97.3516 334.016 96.888 333.641 96.5547C333.271 96.2161 332.74 96.0469 332.047 96.0469C331.401 96.0469 330.898 96.1849 330.539 96.4609C330.185 96.737 330.008 97.1224 330.008 97.6172C330.008 98.0339 330.201 98.3828 330.586 98.6641C330.971 98.9401 331.607 99.2109 332.492 99.4766C333.378 99.737 334.089 100.036 334.625 100.375C335.161 100.708 335.555 101.094 335.805 101.531C336.055 101.964 336.18 102.471 336.18 103.055C336.18 104.003 335.815 104.758 335.086 105.32C334.362 105.878 333.378 106.156 332.133 106.156C331.31 106.156 330.552 106.005 329.859 105.703C329.172 105.396 328.635 104.974 328.25 104.438C327.87 103.901 327.68 103.276 327.68 102.562H329.656C329.656 103.208 329.87 103.708 330.297 104.062C330.724 104.417 331.336 104.594 332.133 104.594C332.82 104.594 333.336 104.456 333.68 104.18C334.029 103.898 334.203 103.529 334.203 103.07Z" fill="#65BF73"/>
<g filter="url(#filter0_d)">
<path d="M0 8C0 3.58172 3.58172 0 8 0H221C225.418 0 229 3.58172 229 8V120H0V8Z" fill="white"/>
<line x1="0.5" y1="79.5" x2="228.5" y2="79.5" stroke="#5452F6"/>
<line x1="0.5" y1="39.5" x2="228.5" y2="39.5" stroke="#5452F6"/>
<path d="M73.7891 102.07C73.7891 101.57 73.612 101.185 73.2578 100.914C72.9089 100.643 72.276 100.37 71.3594 100.094C70.4427 99.8177 69.7135 99.5104 69.1719 99.1719C68.1354 98.5208 67.6172 97.6719 67.6172 96.625C67.6172 95.7083 67.9896 94.9531 68.7344 94.3594C69.4844 93.7656 70.4557 93.4688 71.6484 93.4688C72.4401 93.4688 73.1458 93.6146 73.7656 93.9062C74.3854 94.1979 74.8724 94.6146 75.2266 95.1562C75.5807 95.6927 75.7578 96.2891 75.7578 96.9453H73.7891C73.7891 96.3516 73.6016 95.888 73.2266 95.5547C72.8568 95.2161 72.3255 95.0469 71.6328 95.0469C70.987 95.0469 70.4844 95.1849 70.125 95.4609C69.7708 95.737 69.5938 96.1224 69.5938 96.6172C69.5938 97.0339 69.7865 97.3828 70.1719 97.6641C70.5573 97.9401 71.1927 98.2109 72.0781 98.4766C72.9635 98.737 73.6745 99.0365 74.2109 99.375C74.7474 99.7083 75.1406 100.094 75.3906 100.531C75.6406 100.964 75.7656 101.471 75.7656 102.055C75.7656 103.003 75.401 103.758 74.6719 104.32C73.9479 104.878 72.9635 105.156 71.7188 105.156C70.8958 105.156 70.138 105.005 69.4453 104.703C68.7578 104.396 68.2214 103.974 67.8359 103.438C67.4557 102.901 67.2656 102.276 67.2656 101.562H69.2422C69.2422 102.208 69.4557 102.708 69.8828 103.062C70.3099 103.417 70.9219 103.594 71.7188 103.594C72.4062 103.594 72.9219 103.456 73.2656 103.18C73.6146 102.898 73.7891 102.529 73.7891 102.07ZM79.6953 94.4922V96.5469H81.1875V97.9531H79.6953V102.672C79.6953 102.995 79.7578 103.229 79.8828 103.375C80.013 103.516 80.2422 103.586 80.5703 103.586C80.7891 103.586 81.0104 103.56 81.2344 103.508V104.977C80.8021 105.096 80.3854 105.156 79.9844 105.156C78.526 105.156 77.7969 104.352 77.7969 102.742V97.9531H76.4062V96.5469H77.7969V94.4922H79.6953ZM87.0703 98.2812C86.8203 98.2396 86.5625 98.2188 86.2969 98.2188C85.4271 98.2188 84.8411 98.5521 84.5391 99.2188V105H82.6406V96.5469H84.4531L84.5 97.4922C84.9583 96.7578 85.5938 96.3906 86.4062 96.3906C86.6771 96.3906 86.901 96.4271 87.0781 96.5L87.0703 98.2812ZM90.2891 105H88.3906V96.5469H90.2891V105ZM88.2734 94.3516C88.2734 94.0599 88.3646 93.8177 88.5469 93.625C88.7344 93.4323 89 93.3359 89.3438 93.3359C89.6875 93.3359 89.9531 93.4323 90.1406 93.625C90.3281 93.8177 90.4219 94.0599 90.4219 94.3516C90.4219 94.638 90.3281 94.8776 90.1406 95.0703C89.9531 95.2578 89.6875 95.3516 89.3438 95.3516C89 95.3516 88.7344 95.2578 88.5469 95.0703C88.3646 94.8776 88.2734 94.638 88.2734 94.3516ZM94.125 96.5469L94.1797 97.5234C94.8047 96.7682 95.625 96.3906 96.6406 96.3906C98.401 96.3906 99.2969 97.3984 99.3281 99.4141V105H97.4297V99.5234C97.4297 98.987 97.3125 98.5911 97.0781 98.3359C96.849 98.0755 96.4714 97.9453 95.9453 97.9453C95.1797 97.9453 94.6094 98.2917 94.2344 98.9844V105H92.3359V96.5469H94.125ZM100.938 100.711C100.938 99.3984 101.245 98.3516 101.859 97.5703C102.479 96.7839 103.299 96.3906 104.32 96.3906C105.284 96.3906 106.042 96.7266 106.594 97.3984L106.68 96.5469H108.391V104.742C108.391 105.852 108.044 106.727 107.352 107.367C106.664 108.008 105.734 108.328 104.562 108.328C103.943 108.328 103.336 108.198 102.742 107.938C102.154 107.682 101.706 107.346 101.398 106.93L102.297 105.789C102.88 106.482 103.599 106.828 104.453 106.828C105.083 106.828 105.581 106.656 105.945 106.312C106.31 105.974 106.492 105.474 106.492 104.812V104.242C105.945 104.852 105.216 105.156 104.305 105.156C103.315 105.156 102.505 104.763 101.875 103.977C101.25 103.19 100.938 102.102 100.938 100.711ZM102.828 100.875C102.828 101.724 103 102.393 103.344 102.883C103.693 103.367 104.174 103.609 104.789 103.609C105.555 103.609 106.122 103.281 106.492 102.625V98.9062C106.133 98.2656 105.57 97.9453 104.805 97.9453C104.18 97.9453 103.693 98.1927 103.344 98.6875C103 99.1823 102.828 99.9115 102.828 100.875ZM115.633 92.7969L116.602 93.3984C116.128 94.0911 115.883 94.8125 115.867 95.5625V96.75H114.203V95.6719C114.208 95.1719 114.344 94.651 114.609 94.1094C114.88 93.5625 115.221 93.125 115.633 92.7969ZM118.258 92.7969L119.227 93.3984C118.753 94.0911 118.508 94.8125 118.492 95.5625V96.75H116.828V95.6719C116.833 95.1719 116.969 94.651 117.234 94.1094C117.505 93.5625 117.846 93.125 118.258 92.7969ZM129.703 105H127.734V99.9453H122.648V105H120.672V93.625H122.648V98.3594H127.734V93.625H129.703V105ZM135.586 105.156C134.383 105.156 133.406 104.779 132.656 104.023C131.911 103.263 131.539 102.253 131.539 100.992V100.758C131.539 99.9141 131.701 99.1615 132.023 98.5C132.352 97.8333 132.81 97.3151 133.398 96.9453C133.987 96.5755 134.643 96.3906 135.367 96.3906C136.518 96.3906 137.406 96.7578 138.031 97.4922C138.661 98.2266 138.977 99.2656 138.977 100.609V101.375H133.453C133.51 102.073 133.742 102.625 134.148 103.031C134.56 103.438 135.076 103.641 135.695 103.641C136.565 103.641 137.273 103.289 137.82 102.586L138.844 103.562C138.505 104.068 138.052 104.461 137.484 104.742C136.922 105.018 136.289 105.156 135.586 105.156ZM135.359 97.9141C134.839 97.9141 134.417 98.0964 134.094 98.4609C133.776 98.8255 133.573 99.3333 133.484 99.9844H137.102V99.8438C137.06 99.2083 136.891 98.7292 136.594 98.4062C136.297 98.0781 135.885 97.9141 135.359 97.9141ZM142.477 105H140.578V93H142.477V105ZM146.57 105H144.672V93H146.57V105ZM148.289 100.695C148.289 99.8672 148.453 99.1224 148.781 98.4609C149.109 97.7943 149.57 97.2839 150.164 96.9297C150.758 96.5703 151.44 96.3906 152.211 96.3906C153.352 96.3906 154.276 96.7578 154.984 97.4922C155.698 98.2266 156.083 99.2005 156.141 100.414L156.148 100.859C156.148 101.693 155.987 102.438 155.664 103.094C155.346 103.75 154.888 104.258 154.289 104.617C153.695 104.977 153.008 105.156 152.227 105.156C151.034 105.156 150.078 104.76 149.359 103.969C148.646 103.172 148.289 102.112 148.289 100.789V100.695ZM150.188 100.859C150.188 101.729 150.367 102.411 150.727 102.906C151.086 103.396 151.586 103.641 152.227 103.641C152.867 103.641 153.365 103.391 153.719 102.891C154.078 102.391 154.258 101.659 154.258 100.695C154.258 99.8411 154.073 99.1641 153.703 98.6641C153.339 98.1641 152.841 97.9141 152.211 97.9141C151.591 97.9141 151.099 98.1615 150.734 98.6562C150.37 99.1458 150.188 99.8802 150.188 100.859ZM157.562 97L156.594 96.3984C157.062 95.7161 157.305 94.9948 157.32 94.2344V93H158.984V94.0781C158.984 94.6146 158.846 95.1562 158.57 95.7031C158.299 96.2448 157.964 96.6771 157.562 97ZM160.172 97L159.203 96.3984C159.672 95.7161 159.914 94.9948 159.93 94.2344V93H161.594V94.0781C161.594 94.6146 161.456 95.1562 161.18 95.7031C160.909 96.2448 160.573 96.6771 160.172 97Z" fill="#5452F6"/>
<path d="M45.7656 65H43.8672V53H45.7656V65ZM49.8594 65H47.9609V56.5469H49.8594V65ZM47.8438 54.3516C47.8438 54.0599 47.9349 53.8177 48.1172 53.625C48.3047 53.4323 48.5703 53.3359 48.9141 53.3359C49.2578 53.3359 49.5234 53.4323 49.7109 53.625C49.8984 53.8177 49.9922 54.0599 49.9922 54.3516C49.9922 54.638 49.8984 54.8776 49.7109 55.0703C49.5234 55.2578 49.2578 55.3516 48.9141 55.3516C48.5703 55.3516 48.3047 55.2578 48.1172 55.0703C47.9349 54.8776 47.8438 54.638 47.8438 54.3516ZM56.6719 62.7031C56.6719 62.3646 56.5312 62.1068 56.25 61.9297C55.974 61.7526 55.513 61.5964 54.8672 61.4609C54.2214 61.3255 53.6823 61.1536 53.25 60.9453C52.3021 60.487 51.8281 59.8229 51.8281 58.9531C51.8281 58.224 52.1354 57.6146 52.75 57.125C53.3646 56.6354 54.1458 56.3906 55.0938 56.3906C56.1042 56.3906 56.9193 56.6406 57.5391 57.1406C58.1641 57.6406 58.4766 58.2891 58.4766 59.0859H56.5781C56.5781 58.7214 56.4427 58.4193 56.1719 58.1797C55.901 57.9349 55.5417 57.8125 55.0938 57.8125C54.6771 57.8125 54.3359 57.9089 54.0703 58.1016C53.8099 58.2943 53.6797 58.5521 53.6797 58.875C53.6797 59.1667 53.8021 59.3932 54.0469 59.5547C54.2917 59.7161 54.7865 59.8802 55.5312 60.0469C56.276 60.2083 56.8594 60.4036 57.2812 60.6328C57.7083 60.8568 58.0234 61.1276 58.2266 61.4453C58.4349 61.763 58.5391 62.1484 58.5391 62.6016C58.5391 63.362 58.224 63.9792 57.5938 64.4531C56.9635 64.9219 56.138 65.1562 55.1172 65.1562C54.4245 65.1562 53.8073 65.0312 53.2656 64.7812C52.724 64.5312 52.3021 64.1875 52 63.75C51.6979 63.3125 51.5469 62.8411 51.5469 62.3359H53.3906C53.4167 62.7839 53.5859 63.1302 53.8984 63.375C54.2109 63.6146 54.625 63.7344 55.1406 63.7344C55.6406 63.7344 56.0208 63.6406 56.2812 63.4531C56.5417 63.2604 56.6719 63.0104 56.6719 62.7031ZM62.5781 54.4922V56.5469H64.0703V57.9531H62.5781V62.6719C62.5781 62.9948 62.6406 63.2292 62.7656 63.375C62.8958 63.5156 63.125 63.5859 63.4531 63.5859C63.6719 63.5859 63.8932 63.5599 64.1172 63.5078V64.9766C63.6849 65.0964 63.2682 65.1562 62.8672 65.1562C61.4089 65.1562 60.6797 64.3516 60.6797 62.7422V57.9531H59.2891V56.5469H60.6797V54.4922H62.5781ZM71.5312 65H69.6328V56.5469H71.5312V65ZM69.5156 54.3516C69.5156 54.0599 69.6068 53.8177 69.7891 53.625C69.9766 53.4323 70.2422 53.3359 70.5859 53.3359C70.9297 53.3359 71.1953 53.4323 71.3828 53.625C71.5703 53.8177 71.6641 54.0599 71.6641 54.3516C71.6641 54.638 71.5703 54.8776 71.3828 55.0703C71.1953 55.2578 70.9297 55.3516 70.5859 55.3516C70.2422 55.3516 69.9766 55.2578 69.7891 55.0703C69.6068 54.8776 69.5156 54.638 69.5156 54.3516ZM75.3672 56.5469L75.4219 57.5234C76.0469 56.7682 76.8672 56.3906 77.8828 56.3906C79.6432 56.3906 80.5391 57.3984 80.5703 59.4141V65H78.6719V59.5234C78.6719 58.987 78.5547 58.5911 78.3203 58.3359C78.0911 58.0755 77.7135 57.9453 77.1875 57.9453C76.4219 57.9453 75.8516 58.2917 75.4766 58.9844V65H73.5781V56.5469H75.3672ZM84.8906 54.4922V56.5469H86.3828V57.9531H84.8906V62.6719C84.8906 62.9948 84.9531 63.2292 85.0781 63.375C85.2083 63.5156 85.4375 63.5859 85.7656 63.5859C85.9844 63.5859 86.2057 63.5599 86.4297 63.5078V64.9766C85.9974 65.0964 85.5807 65.1562 85.1797 65.1562C83.7214 65.1562 82.9922 64.3516 82.9922 62.7422V57.9531H81.6016V56.5469H82.9922V54.4922H84.8906ZM95.6094 67.8125C93.7708 67.2969 92.8333 66.1224 92.7969 64.2891V62.625C92.7969 61.4531 92.2943 60.8672 91.2891 60.8672V59.4766C92.2943 59.4766 92.7969 58.888 92.7969 57.7109V56.0547C92.8125 55.1172 93.0547 54.3594 93.5234 53.7812C93.9974 53.2031 94.6927 52.7839 95.6094 52.5234L95.9844 53.6172C95.0833 53.9089 94.6172 54.7057 94.5859 56.0078V57.6953C94.5859 58.8672 94.1354 59.6901 93.2344 60.1641C94.1354 60.6432 94.5859 61.474 94.5859 62.6562V64.3203C94.6172 65.6224 95.0833 66.4193 95.9844 66.7109L95.6094 67.8125ZM103.258 58.4453H104.414C104.997 58.4401 105.458 58.2891 105.797 57.9922C106.141 57.6953 106.312 57.2656 106.312 56.7031C106.312 56.1615 106.169 55.7422 105.883 55.4453C105.602 55.1432 105.169 54.9922 104.586 54.9922C104.076 54.9922 103.656 55.1406 103.328 55.4375C103 55.7292 102.836 56.112 102.836 56.5859H100.938C100.938 56.0026 101.091 55.4714 101.398 54.9922C101.711 54.513 102.143 54.1406 102.695 53.875C103.253 53.6042 103.875 53.4688 104.562 53.4688C105.698 53.4688 106.589 53.7552 107.234 54.3281C107.885 54.8958 108.211 55.6875 108.211 56.7031C108.211 57.2135 108.047 57.6953 107.719 58.1484C107.396 58.5964 106.977 58.9349 106.461 59.1641C107.086 59.3776 107.56 59.7135 107.883 60.1719C108.211 60.6302 108.375 61.1771 108.375 61.8125C108.375 62.8333 108.023 63.6458 107.32 64.25C106.622 64.8542 105.703 65.1562 104.562 65.1562C103.469 65.1562 102.573 64.8646 101.875 64.2812C101.177 63.6979 100.828 62.9219 100.828 61.9531H102.727C102.727 62.4531 102.893 62.8594 103.227 63.1719C103.565 63.4844 104.018 63.6406 104.586 63.6406C105.174 63.6406 105.638 63.4844 105.977 63.1719C106.315 62.8594 106.484 62.4062 106.484 61.8125C106.484 61.2135 106.307 60.7526 105.953 60.4297C105.599 60.1068 105.073 59.9453 104.375 59.9453H103.258V58.4453ZM111.258 56.3672C111.612 56.3672 111.885 56.4688 112.078 56.6719C112.271 56.8698 112.367 57.1198 112.367 57.4219C112.367 57.7188 112.271 57.9661 112.078 58.1641C111.885 58.3568 111.612 58.4531 111.258 58.4531C110.919 58.4531 110.651 58.3568 110.453 58.1641C110.255 57.9714 110.156 57.724 110.156 57.4219C110.156 57.1198 110.253 56.8698 110.445 56.6719C110.638 56.4688 110.909 56.3672 111.258 56.3672ZM110.688 67.5625L109.664 66.9531C109.966 66.4792 110.172 66.0651 110.281 65.7109C110.396 65.362 110.456 65.0052 110.461 64.6406V63.1641H112.172L112.164 64.5312C112.159 65.0833 112.018 65.6354 111.742 66.1875C111.471 66.7448 111.12 67.2031 110.688 67.5625ZM118.461 59.3594L119.078 53.625H125.188V55.2656H120.656L120.344 57.9844C120.87 57.6823 121.464 57.5312 122.125 57.5312C123.208 57.5312 124.049 57.8776 124.648 58.5703C125.253 59.263 125.555 60.1953 125.555 61.3672C125.555 62.5234 125.221 63.4453 124.555 64.1328C123.888 64.8151 122.974 65.1562 121.812 65.1562C120.771 65.1562 119.906 64.862 119.219 64.2734C118.536 63.6797 118.167 62.8984 118.109 61.9297H119.945C120.018 62.4818 120.216 62.9062 120.539 63.2031C120.862 63.4948 121.284 63.6406 121.805 63.6406C122.388 63.6406 122.841 63.4323 123.164 63.0156C123.492 62.599 123.656 62.0312 123.656 61.3125C123.656 60.6198 123.477 60.0729 123.117 59.6719C122.758 59.2656 122.263 59.0625 121.633 59.0625C121.289 59.0625 120.997 59.1094 120.758 59.2031C120.518 59.2917 120.258 59.4688 119.977 59.7344L118.461 59.3594ZM128.148 56.3672C128.503 56.3672 128.776 56.4688 128.969 56.6719C129.161 56.8698 129.258 57.1198 129.258 57.4219C129.258 57.7188 129.161 57.9661 128.969 58.1641C128.776 58.3568 128.503 58.4531 128.148 58.4531C127.81 58.4531 127.542 58.3568 127.344 58.1641C127.146 57.9714 127.047 57.724 127.047 57.4219C127.047 57.1198 127.143 56.8698 127.336 56.6719C127.529 56.4688 127.799 56.3672 128.148 56.3672ZM127.578 67.5625L126.555 66.9531C126.857 66.4792 127.062 66.0651 127.172 65.7109C127.286 65.362 127.346 65.0052 127.352 64.6406V63.1641H129.062L129.055 64.5312C129.049 65.0833 128.909 65.6354 128.633 66.1875C128.362 66.7448 128.01 67.2031 127.578 67.5625ZM139.984 65H138.094V55.8672L135.305 56.8203V55.2188L139.742 53.5859H139.984V65ZM145.039 56.3672C145.393 56.3672 145.667 56.4688 145.859 56.6719C146.052 56.8698 146.148 57.1198 146.148 57.4219C146.148 57.7188 146.052 57.9661 145.859 58.1641C145.667 58.3568 145.393 58.4531 145.039 58.4531C144.701 58.4531 144.432 58.3568 144.234 58.1641C144.036 57.9714 143.938 57.724 143.938 57.4219C143.938 57.1198 144.034 56.8698 144.227 56.6719C144.419 56.4688 144.69 56.3672 145.039 56.3672ZM144.469 67.5625L143.445 66.9531C143.747 66.4792 143.953 66.0651 144.062 65.7109C144.177 65.362 144.237 65.0052 144.242 64.6406V63.1641H145.953L145.945 64.5312C145.94 65.0833 145.799 65.6354 145.523 66.1875C145.253 66.7448 144.901 67.2031 144.469 67.5625ZM157.641 53.5703V55.1406H157.406C156.344 55.1562 155.495 55.4479 154.859 56.0156C154.224 56.5833 153.846 57.388 153.727 58.4297C154.336 57.7891 155.115 57.4688 156.062 57.4688C157.068 57.4688 157.859 57.8229 158.438 58.5312C159.021 59.2396 159.312 60.1536 159.312 61.2734C159.312 62.4297 158.971 63.3672 158.289 64.0859C157.612 64.7995 156.721 65.1562 155.617 65.1562C154.482 65.1562 153.56 64.737 152.852 63.8984C152.148 63.0599 151.797 61.9609 151.797 60.6016V59.9531C151.797 57.9583 152.281 56.3958 153.25 55.2656C154.224 54.1354 155.622 53.5703 157.445 53.5703H157.641ZM155.602 59C155.185 59 154.802 59.1172 154.453 59.3516C154.109 59.5859 153.857 59.8984 153.695 60.2891V60.8672C153.695 61.7109 153.872 62.3828 154.227 62.8828C154.581 63.3776 155.039 63.625 155.602 63.625C156.164 63.625 156.609 63.4141 156.938 62.9922C157.266 62.5703 157.43 62.0156 157.43 61.3281C157.43 60.6406 157.263 60.0807 156.93 59.6484C156.596 59.2161 156.154 59 155.602 59ZM161.93 56.3672C162.284 56.3672 162.557 56.4688 162.75 56.6719C162.943 56.8698 163.039 57.1198 163.039 57.4219C163.039 57.7188 162.943 57.9661 162.75 58.1641C162.557 58.3568 162.284 58.4531 161.93 58.4531C161.591 58.4531 161.323 58.3568 161.125 58.1641C160.927 57.9714 160.828 57.724 160.828 57.4219C160.828 57.1198 160.924 56.8698 161.117 56.6719C161.31 56.4688 161.581 56.3672 161.93 56.3672ZM161.359 67.5625L160.336 66.9531C160.638 66.4792 160.844 66.0651 160.953 65.7109C161.068 65.362 161.128 65.0052 161.133 64.6406V63.1641H162.844L162.836 64.5312C162.831 65.0833 162.69 65.6354 162.414 66.1875C162.143 66.7448 161.792 67.2031 161.359 67.5625ZM176.273 65H168.625V63.6953L172.414 59.5625C172.961 58.9531 173.349 58.4453 173.578 58.0391C173.812 57.6276 173.93 57.2161 173.93 56.8047C173.93 56.263 173.776 55.8255 173.469 55.4922C173.167 55.1589 172.758 54.9922 172.242 54.9922C171.628 54.9922 171.151 55.1797 170.812 55.5547C170.474 55.9297 170.305 56.4427 170.305 57.0938H168.406C168.406 56.401 168.562 55.7786 168.875 55.2266C169.193 54.6693 169.643 54.237 170.227 53.9297C170.815 53.6224 171.492 53.4688 172.258 53.4688C173.362 53.4688 174.232 53.7474 174.867 54.3047C175.508 54.8568 175.828 55.6224 175.828 56.6016C175.828 57.1693 175.667 57.7656 175.344 58.3906C175.026 59.0104 174.503 59.7161 173.773 60.5078L170.992 63.4844H176.273V65ZM181.062 66.7109C181.979 66.4141 182.448 65.6016 182.469 64.2734V62.6484C182.469 61.4453 182.943 60.6198 183.891 60.1719C182.943 59.724 182.469 58.8906 182.469 57.6719V56.0547C182.448 54.7266 181.979 53.9141 181.062 53.6172L181.438 52.5234C182.385 52.7891 183.091 53.2214 183.555 53.8203C184.018 54.4141 184.25 55.1927 184.25 56.1562V57.7188C184.25 58.8906 184.755 59.4766 185.766 59.4766V60.8672C184.755 60.8672 184.25 61.4531 184.25 62.625V64.1641C184.25 65.138 184.016 65.9219 183.547 66.5156C183.083 67.1146 182.38 67.5469 181.438 67.8125L181.062 66.7109Z" fill="#FF5A43"/>
<path d="M101.789 25H99.8906V16.5469H101.789V25ZM99.7734 14.3516C99.7734 14.0599 99.8646 13.8177 100.047 13.625C100.234 13.4323 100.5 13.3359 100.844 13.3359C101.188 13.3359 101.453 13.4323 101.641 13.625C101.828 13.8177 101.922 14.0599 101.922 14.3516C101.922 14.638 101.828 14.8776 101.641 15.0703C101.453 15.2578 101.188 15.3516 100.844 15.3516C100.5 15.3516 100.234 15.2578 100.047 15.0703C99.8646 14.8776 99.7734 14.638 99.7734 14.3516ZM105.625 16.5469L105.68 17.5234C106.305 16.7682 107.125 16.3906 108.141 16.3906C109.901 16.3906 110.797 17.3984 110.828 19.4141V25H108.93V19.5234C108.93 18.987 108.812 18.5911 108.578 18.3359C108.349 18.0755 107.971 17.9453 107.445 17.9453C106.68 17.9453 106.109 18.2917 105.734 18.9844V25H103.836V16.5469H105.625ZM115.148 14.4922V16.5469H116.641V17.9531H115.148V22.6719C115.148 22.9948 115.211 23.2292 115.336 23.375C115.466 23.5156 115.695 23.5859 116.023 23.5859C116.242 23.5859 116.464 23.5599 116.688 23.5078V24.9766C116.255 25.0964 115.839 25.1562 115.438 25.1562C113.979 25.1562 113.25 24.3516 113.25 22.7422V17.9531H111.859V16.5469H113.25V14.4922H115.148ZM128.383 20.9453H129.797V22.4688H128.383V25H126.484V22.4688H121.57L121.516 21.3125L126.422 13.625H128.383V20.9453ZM123.508 20.9453H126.484V16.1953L126.344 16.4453L123.508 20.9453Z" fill="#FF5A43"/>
<path d="M0.5 8C0.5 3.85786 3.85786 0.5 8 0.5H221C225.142 0.5 228.5 3.85787 228.5 8V119.5H0.5V8Z" stroke="#5452F6"/>
</g>
<g filter="url(#filter1_d)">
<path d="M0 119H229V135C229 139.418 225.418 143 221 143H8.00001C3.58173 143 0 139.418 0 135V119Z" fill="#EEEEFF"/>
<path d="M0.5 119.5H228.5V135C228.5 139.142 225.142 142.5 221 142.5H8.00001C3.85787 142.5 0.5 139.142 0.5 135V119.5Z" stroke="#5452F6"/>
</g>
<g filter="url(#filter2_d)">
<path d="M400 48C400 43.5817 403.582 40 408 40H621C625.418 40 629 43.5817 629 48V120H400V48Z" fill="white"/>
<path d="M400.5 48C400.5 43.8579 403.858 40.5 408 40.5H621C625.142 40.5 628.5 43.8579 628.5 48V119.5H400.5V48Z" stroke="#5452F6"/>
</g>
<g filter="url(#filter3_d)">
<path d="M400 119H629V135C629 139.418 625.418 143 621 143H408C403.582 143 400 139.418 400 135V119Z" fill="#EEEEFF"/>
<path d="M400.5 119.5H628.5V135C628.5 139.142 625.142 142.5 621 142.5H408C403.858 142.5 400.5 139.142 400.5 135V119.5Z" stroke="#5452F6"/>
</g>
<line x1="400.5" y1="79.5" x2="628.5" y2="79.5" stroke="#5452F6"/>
<path d="M473.789 102.07C473.789 101.57 473.612 101.185 473.258 100.914C472.909 100.643 472.276 100.37 471.359 100.094C470.443 99.8177 469.714 99.5104 469.172 99.1719C468.135 98.5208 467.617 97.6719 467.617 96.625C467.617 95.7083 467.99 94.9531 468.734 94.3594C469.484 93.7656 470.456 93.4688 471.648 93.4688C472.44 93.4688 473.146 93.6146 473.766 93.9062C474.385 94.1979 474.872 94.6146 475.227 95.1562C475.581 95.6927 475.758 96.2891 475.758 96.9453H473.789C473.789 96.3516 473.602 95.888 473.227 95.5547C472.857 95.2161 472.326 95.0469 471.633 95.0469C470.987 95.0469 470.484 95.1849 470.125 95.4609C469.771 95.737 469.594 96.1224 469.594 96.6172C469.594 97.0339 469.786 97.3828 470.172 97.6641C470.557 97.9401 471.193 98.2109 472.078 98.4766C472.964 98.737 473.674 99.0365 474.211 99.375C474.747 99.7083 475.141 100.094 475.391 100.531C475.641 100.964 475.766 101.471 475.766 102.055C475.766 103.003 475.401 103.758 474.672 104.32C473.948 104.878 472.964 105.156 471.719 105.156C470.896 105.156 470.138 105.005 469.445 104.703C468.758 104.396 468.221 103.974 467.836 103.438C467.456 102.901 467.266 102.276 467.266 101.562H469.242C469.242 102.208 469.456 102.708 469.883 103.062C470.31 103.417 470.922 103.594 471.719 103.594C472.406 103.594 472.922 103.456 473.266 103.18C473.615 102.898 473.789 102.529 473.789 102.07ZM479.695 94.4922V96.5469H481.188V97.9531H479.695V102.672C479.695 102.995 479.758 103.229 479.883 103.375C480.013 103.516 480.242 103.586 480.57 103.586C480.789 103.586 481.01 103.56 481.234 103.508V104.977C480.802 105.096 480.385 105.156 479.984 105.156C478.526 105.156 477.797 104.352 477.797 102.742V97.9531H476.406V96.5469H477.797V94.4922H479.695ZM487.07 98.2812C486.82 98.2396 486.562 98.2188 486.297 98.2188C485.427 98.2188 484.841 98.5521 484.539 99.2188V105H482.641V96.5469H484.453L484.5 97.4922C484.958 96.7578 485.594 96.3906 486.406 96.3906C486.677 96.3906 486.901 96.4271 487.078 96.5L487.07 98.2812ZM490.289 105H488.391V96.5469H490.289V105ZM488.273 94.3516C488.273 94.0599 488.365 93.8177 488.547 93.625C488.734 93.4323 489 93.3359 489.344 93.3359C489.688 93.3359 489.953 93.4323 490.141 93.625C490.328 93.8177 490.422 94.0599 490.422 94.3516C490.422 94.638 490.328 94.8776 490.141 95.0703C489.953 95.2578 489.688 95.3516 489.344 95.3516C489 95.3516 488.734 95.2578 488.547 95.0703C488.365 94.8776 488.273 94.638 488.273 94.3516ZM494.125 96.5469L494.18 97.5234C494.805 96.7682 495.625 96.3906 496.641 96.3906C498.401 96.3906 499.297 97.3984 499.328 99.4141V105H497.43V99.5234C497.43 98.987 497.312 98.5911 497.078 98.3359C496.849 98.0755 496.471 97.9453 495.945 97.9453C495.18 97.9453 494.609 98.2917 494.234 98.9844V105H492.336V96.5469H494.125ZM500.938 100.711C500.938 99.3984 501.245 98.3516 501.859 97.5703C502.479 96.7839 503.299 96.3906 504.32 96.3906C505.284 96.3906 506.042 96.7266 506.594 97.3984L506.68 96.5469H508.391V104.742C508.391 105.852 508.044 106.727 507.352 107.367C506.664 108.008 505.734 108.328 504.562 108.328C503.943 108.328 503.336 108.198 502.742 107.938C502.154 107.682 501.706 107.346 501.398 106.93L502.297 105.789C502.88 106.482 503.599 106.828 504.453 106.828C505.083 106.828 505.581 106.656 505.945 106.312C506.31 105.974 506.492 105.474 506.492 104.812V104.242C505.945 104.852 505.216 105.156 504.305 105.156C503.315 105.156 502.505 104.763 501.875 103.977C501.25 103.19 500.938 102.102 500.938 100.711ZM502.828 100.875C502.828 101.724 503 102.393 503.344 102.883C503.693 103.367 504.174 103.609 504.789 103.609C505.555 103.609 506.122 103.281 506.492 102.625V98.9062C506.133 98.2656 505.57 97.9453 504.805 97.9453C504.18 97.9453 503.693 98.1927 503.344 98.6875C503 99.1823 502.828 99.9115 502.828 100.875ZM515.633 92.7969L516.602 93.3984C516.128 94.0911 515.883 94.8125 515.867 95.5625V96.75H514.203V95.6719C514.208 95.1719 514.344 94.651 514.609 94.1094C514.88 93.5625 515.221 93.125 515.633 92.7969ZM518.258 92.7969L519.227 93.3984C518.753 94.0911 518.508 94.8125 518.492 95.5625V96.75H516.828V95.6719C516.833 95.1719 516.969 94.651 517.234 94.1094C517.505 93.5625 517.846 93.125 518.258 92.7969ZM529.703 105H527.734V99.9453H522.648V105H520.672V93.625H522.648V98.3594H527.734V93.625H529.703V105ZM535.586 105.156C534.383 105.156 533.406 104.779 532.656 104.023C531.911 103.263 531.539 102.253 531.539 100.992V100.758C531.539 99.9141 531.701 99.1615 532.023 98.5C532.352 97.8333 532.81 97.3151 533.398 96.9453C533.987 96.5755 534.643 96.3906 535.367 96.3906C536.518 96.3906 537.406 96.7578 538.031 97.4922C538.661 98.2266 538.977 99.2656 538.977 100.609V101.375H533.453C533.51 102.073 533.742 102.625 534.148 103.031C534.56 103.438 535.076 103.641 535.695 103.641C536.565 103.641 537.273 103.289 537.82 102.586L538.844 103.562C538.505 104.068 538.052 104.461 537.484 104.742C536.922 105.018 536.289 105.156 535.586 105.156ZM535.359 97.9141C534.839 97.9141 534.417 98.0964 534.094 98.4609C533.776 98.8255 533.573 99.3333 533.484 99.9844H537.102V99.8438C537.06 99.2083 536.891 98.7292 536.594 98.4062C536.297 98.0781 535.885 97.9141 535.359 97.9141ZM542.477 105H540.578V93H542.477V105ZM546.57 105H544.672V93H546.57V105ZM548.289 100.695C548.289 99.8672 548.453 99.1224 548.781 98.4609C549.109 97.7943 549.57 97.2839 550.164 96.9297C550.758 96.5703 551.44 96.3906 552.211 96.3906C553.352 96.3906 554.276 96.7578 554.984 97.4922C555.698 98.2266 556.083 99.2005 556.141 100.414L556.148 100.859C556.148 101.693 555.987 102.438 555.664 103.094C555.346 103.75 554.888 104.258 554.289 104.617C553.695 104.977 553.008 105.156 552.227 105.156C551.034 105.156 550.078 104.76 549.359 103.969C548.646 103.172 548.289 102.112 548.289 100.789V100.695ZM550.188 100.859C550.188 101.729 550.367 102.411 550.727 102.906C551.086 103.396 551.586 103.641 552.227 103.641C552.867 103.641 553.365 103.391 553.719 102.891C554.078 102.391 554.258 101.659 554.258 100.695C554.258 99.8411 554.073 99.1641 553.703 98.6641C553.339 98.1641 552.841 97.9141 552.211 97.9141C551.591 97.9141 551.099 98.1615 550.734 98.6562C550.37 99.1458 550.188 99.8802 550.188 100.859ZM557.562 97L556.594 96.3984C557.062 95.7161 557.305 94.9948 557.32 94.2344V93H558.984V94.0781C558.984 94.6146 558.846 95.1562 558.57 95.7031C558.299 96.2448 557.964 96.6771 557.562 97ZM560.172 97L559.203 96.3984C559.672 95.7161 559.914 94.9948 559.93 94.2344V93H561.594V94.0781C561.594 94.6146 561.456 95.1562 561.18 95.7031C560.909 96.2448 560.573 96.6771 560.172 97Z" fill="#5452F6"/>
<path d="M437.32 65H435.422V53H437.32V65ZM441.414 65H439.516V56.5469H441.414V65ZM439.398 54.3516C439.398 54.0599 439.49 53.8177 439.672 53.625C439.859 53.4323 440.125 53.3359 440.469 53.3359C440.812 53.3359 441.078 53.4323 441.266 53.625C441.453 53.8177 441.547 54.0599 441.547 54.3516C441.547 54.638 441.453 54.8776 441.266 55.0703C441.078 55.2578 440.812 55.3516 440.469 55.3516C440.125 55.3516 439.859 55.2578 439.672 55.0703C439.49 54.8776 439.398 54.638 439.398 54.3516ZM448.227 62.7031C448.227 62.3646 448.086 62.1068 447.805 61.9297C447.529 61.7526 447.068 61.5964 446.422 61.4609C445.776 61.3255 445.237 61.1536 444.805 60.9453C443.857 60.487 443.383 59.8229 443.383 58.9531C443.383 58.224 443.69 57.6146 444.305 57.125C444.919 56.6354 445.701 56.3906 446.648 56.3906C447.659 56.3906 448.474 56.6406 449.094 57.1406C449.719 57.6406 450.031 58.2891 450.031 59.0859H448.133C448.133 58.7214 447.997 58.4193 447.727 58.1797C447.456 57.9349 447.096 57.8125 446.648 57.8125C446.232 57.8125 445.891 57.9089 445.625 58.1016C445.365 58.2943 445.234 58.5521 445.234 58.875C445.234 59.1667 445.357 59.3932 445.602 59.5547C445.846 59.7161 446.341 59.8802 447.086 60.0469C447.831 60.2083 448.414 60.4036 448.836 60.6328C449.263 60.8568 449.578 61.1276 449.781 61.4453C449.99 61.763 450.094 62.1484 450.094 62.6016C450.094 63.362 449.779 63.9792 449.148 64.4531C448.518 64.9219 447.693 65.1562 446.672 65.1562C445.979 65.1562 445.362 65.0312 444.82 64.7812C444.279 64.5312 443.857 64.1875 443.555 63.75C443.253 63.3125 443.102 62.8411 443.102 62.3359H444.945C444.971 62.7839 445.141 63.1302 445.453 63.375C445.766 63.6146 446.18 63.7344 446.695 63.7344C447.195 63.7344 447.576 63.6406 447.836 63.4531C448.096 63.2604 448.227 63.0104 448.227 62.7031ZM454.133 54.4922V56.5469H455.625V57.9531H454.133V62.6719C454.133 62.9948 454.195 63.2292 454.32 63.375C454.451 63.5156 454.68 63.5859 455.008 63.5859C455.227 63.5859 455.448 63.5599 455.672 63.5078V64.9766C455.24 65.0964 454.823 65.1562 454.422 65.1562C452.964 65.1562 452.234 64.3516 452.234 62.7422V57.9531H450.844V56.5469H452.234V54.4922H454.133ZM463.086 65H461.188V56.5469H463.086V65ZM461.07 54.3516C461.07 54.0599 461.161 53.8177 461.344 53.625C461.531 53.4323 461.797 53.3359 462.141 53.3359C462.484 53.3359 462.75 53.4323 462.938 53.625C463.125 53.8177 463.219 54.0599 463.219 54.3516C463.219 54.638 463.125 54.8776 462.938 55.0703C462.75 55.2578 462.484 55.3516 462.141 55.3516C461.797 55.3516 461.531 55.2578 461.344 55.0703C461.161 54.8776 461.07 54.638 461.07 54.3516ZM466.922 56.5469L466.977 57.5234C467.602 56.7682 468.422 56.3906 469.438 56.3906C471.198 56.3906 472.094 57.3984 472.125 59.4141V65H470.227V59.5234C470.227 58.987 470.109 58.5911 469.875 58.3359C469.646 58.0755 469.268 57.9453 468.742 57.9453C467.977 57.9453 467.406 58.2917 467.031 58.9844V65H465.133V56.5469H466.922ZM476.445 54.4922V56.5469H477.938V57.9531H476.445V62.6719C476.445 62.9948 476.508 63.2292 476.633 63.375C476.763 63.5156 476.992 63.5859 477.32 63.5859C477.539 63.5859 477.76 63.5599 477.984 63.5078V64.9766C477.552 65.0964 477.135 65.1562 476.734 65.1562C475.276 65.1562 474.547 64.3516 474.547 62.7422V57.9531H473.156V56.5469H474.547V54.4922H476.445ZM487.164 67.8125C485.326 67.2969 484.388 66.1224 484.352 64.2891V62.625C484.352 61.4531 483.849 60.8672 482.844 60.8672V59.4766C483.849 59.4766 484.352 58.888 484.352 57.7109V56.0547C484.367 55.1172 484.609 54.3594 485.078 53.7812C485.552 53.2031 486.247 52.7839 487.164 52.5234L487.539 53.6172C486.638 53.9089 486.172 54.7057 486.141 56.0078V57.6953C486.141 58.8672 485.69 59.6901 484.789 60.1641C485.69 60.6432 486.141 61.474 486.141 62.6562V64.3203C486.172 65.6224 486.638 66.4193 487.539 66.7109L487.164 67.8125ZM499.039 60.9453H500.453V62.4688H499.039V65H497.141V62.4688H492.227L492.172 61.3125L497.078 53.625H499.039V60.9453ZM494.164 60.9453H497.141V56.1953L497 56.4453L494.164 60.9453ZM502.812 56.3672C503.167 56.3672 503.44 56.4688 503.633 56.6719C503.826 56.8698 503.922 57.1198 503.922 57.4219C503.922 57.7188 503.826 57.9661 503.633 58.1641C503.44 58.3568 503.167 58.4531 502.812 58.4531C502.474 58.4531 502.206 58.3568 502.008 58.1641C501.81 57.9714 501.711 57.724 501.711 57.4219C501.711 57.1198 501.807 56.8698 502 56.6719C502.193 56.4688 502.464 56.3672 502.812 56.3672ZM502.242 67.5625L501.219 66.9531C501.521 66.4792 501.727 66.0651 501.836 65.7109C501.951 65.362 502.01 65.0052 502.016 64.6406V63.1641H503.727L503.719 64.5312C503.714 65.0833 503.573 65.6354 503.297 66.1875C503.026 66.7448 502.674 67.2031 502.242 67.5625ZM511.703 58.4453H512.859C513.443 58.4401 513.904 58.2891 514.242 57.9922C514.586 57.6953 514.758 57.2656 514.758 56.7031C514.758 56.1615 514.615 55.7422 514.328 55.4453C514.047 55.1432 513.615 54.9922 513.031 54.9922C512.521 54.9922 512.102 55.1406 511.773 55.4375C511.445 55.7292 511.281 56.112 511.281 56.5859H509.383C509.383 56.0026 509.536 55.4714 509.844 54.9922C510.156 54.513 510.589 54.1406 511.141 53.875C511.698 53.6042 512.32 53.4688 513.008 53.4688C514.143 53.4688 515.034 53.7552 515.68 54.3281C516.331 54.8958 516.656 55.6875 516.656 56.7031C516.656 57.2135 516.492 57.6953 516.164 58.1484C515.841 58.5964 515.422 58.9349 514.906 59.1641C515.531 59.3776 516.005 59.7135 516.328 60.1719C516.656 60.6302 516.82 61.1771 516.82 61.8125C516.82 62.8333 516.469 63.6458 515.766 64.25C515.068 64.8542 514.148 65.1562 513.008 65.1562C511.914 65.1562 511.018 64.8646 510.32 64.2812C509.622 63.6979 509.273 62.9219 509.273 61.9531H511.172C511.172 62.4531 511.339 62.8594 511.672 63.1719C512.01 63.4844 512.464 63.6406 513.031 63.6406C513.62 63.6406 514.083 63.4844 514.422 63.1719C514.76 62.8594 514.93 62.4062 514.93 61.8125C514.93 61.2135 514.753 60.7526 514.398 60.4297C514.044 60.1068 513.518 59.9453 512.82 59.9453H511.703V58.4453ZM519.703 56.3672C520.057 56.3672 520.331 56.4688 520.523 56.6719C520.716 56.8698 520.812 57.1198 520.812 57.4219C520.812 57.7188 520.716 57.9661 520.523 58.1641C520.331 58.3568 520.057 58.4531 519.703 58.4531C519.365 58.4531 519.096 58.3568 518.898 58.1641C518.701 57.9714 518.602 57.724 518.602 57.4219C518.602 57.1198 518.698 56.8698 518.891 56.6719C519.083 56.4688 519.354 56.3672 519.703 56.3672ZM519.133 67.5625L518.109 66.9531C518.411 66.4792 518.617 66.0651 518.727 65.7109C518.841 65.362 518.901 65.0052 518.906 64.6406V63.1641H520.617L520.609 64.5312C520.604 65.0833 520.464 65.6354 520.188 66.1875C519.917 66.7448 519.565 67.2031 519.133 67.5625ZM526.906 59.3594L527.523 53.625H533.633V55.2656H529.102L528.789 57.9844C529.315 57.6823 529.909 57.5312 530.57 57.5312C531.654 57.5312 532.495 57.8776 533.094 58.5703C533.698 59.263 534 60.1953 534 61.3672C534 62.5234 533.667 63.4453 533 64.1328C532.333 64.8151 531.419 65.1562 530.258 65.1562C529.216 65.1562 528.352 64.862 527.664 64.2734C526.982 63.6797 526.612 62.8984 526.555 61.9297H528.391C528.464 62.4818 528.661 62.9062 528.984 63.2031C529.307 63.4948 529.729 63.6406 530.25 63.6406C530.833 63.6406 531.286 63.4323 531.609 63.0156C531.938 62.599 532.102 62.0312 532.102 61.3125C532.102 60.6198 531.922 60.0729 531.562 59.6719C531.203 59.2656 530.708 59.0625 530.078 59.0625C529.734 59.0625 529.443 59.1094 529.203 59.2031C528.964 59.2917 528.703 59.4688 528.422 59.7344L526.906 59.3594ZM536.594 56.3672C536.948 56.3672 537.221 56.4688 537.414 56.6719C537.607 56.8698 537.703 57.1198 537.703 57.4219C537.703 57.7188 537.607 57.9661 537.414 58.1641C537.221 58.3568 536.948 58.4531 536.594 58.4531C536.255 58.4531 535.987 58.3568 535.789 58.1641C535.591 57.9714 535.492 57.724 535.492 57.4219C535.492 57.1198 535.589 56.8698 535.781 56.6719C535.974 56.4688 536.245 56.3672 536.594 56.3672ZM536.023 67.5625L535 66.9531C535.302 66.4792 535.508 66.0651 535.617 65.7109C535.732 65.362 535.792 65.0052 535.797 64.6406V63.1641H537.508L537.5 64.5312C537.495 65.0833 537.354 65.6354 537.078 66.1875C536.807 66.7448 536.456 67.2031 536.023 67.5625ZM548.43 65H546.539V55.8672L543.75 56.8203V55.2188L548.188 53.5859H548.43V65ZM553.484 56.3672C553.839 56.3672 554.112 56.4688 554.305 56.6719C554.497 56.8698 554.594 57.1198 554.594 57.4219C554.594 57.7188 554.497 57.9661 554.305 58.1641C554.112 58.3568 553.839 58.4531 553.484 58.4531C553.146 58.4531 552.878 58.3568 552.68 58.1641C552.482 57.9714 552.383 57.724 552.383 57.4219C552.383 57.1198 552.479 56.8698 552.672 56.6719C552.865 56.4688 553.135 56.3672 553.484 56.3672ZM552.914 67.5625L551.891 66.9531C552.193 66.4792 552.398 66.0651 552.508 65.7109C552.622 65.362 552.682 65.0052 552.688 64.6406V63.1641H554.398L554.391 64.5312C554.385 65.0833 554.245 65.6354 553.969 66.1875C553.698 66.7448 553.346 67.2031 552.914 67.5625ZM566.086 53.5703V55.1406H565.852C564.789 55.1562 563.94 55.4479 563.305 56.0156C562.669 56.5833 562.292 57.388 562.172 58.4297C562.781 57.7891 563.56 57.4688 564.508 57.4688C565.513 57.4688 566.305 57.8229 566.883 58.5312C567.466 59.2396 567.758 60.1536 567.758 61.2734C567.758 62.4297 567.417 63.3672 566.734 64.0859C566.057 64.7995 565.167 65.1562 564.062 65.1562C562.927 65.1562 562.005 64.737 561.297 63.8984C560.594 63.0599 560.242 61.9609 560.242 60.6016V59.9531C560.242 57.9583 560.727 56.3958 561.695 55.2656C562.669 54.1354 564.068 53.5703 565.891 53.5703H566.086ZM564.047 59C563.63 59 563.247 59.1172 562.898 59.3516C562.555 59.5859 562.302 59.8984 562.141 60.2891V60.8672C562.141 61.7109 562.318 62.3828 562.672 62.8828C563.026 63.3776 563.484 63.625 564.047 63.625C564.609 63.625 565.055 63.4141 565.383 62.9922C565.711 62.5703 565.875 62.0156 565.875 61.3281C565.875 60.6406 565.708 60.0807 565.375 59.6484C565.042 59.2161 564.599 59 564.047 59ZM570.375 56.3672C570.729 56.3672 571.003 56.4688 571.195 56.6719C571.388 56.8698 571.484 57.1198 571.484 57.4219C571.484 57.7188 571.388 57.9661 571.195 58.1641C571.003 58.3568 570.729 58.4531 570.375 58.4531C570.036 58.4531 569.768 58.3568 569.57 58.1641C569.372 57.9714 569.273 57.724 569.273 57.4219C569.273 57.1198 569.37 56.8698 569.562 56.6719C569.755 56.4688 570.026 56.3672 570.375 56.3672ZM569.805 67.5625L568.781 66.9531C569.083 66.4792 569.289 66.0651 569.398 65.7109C569.513 65.362 569.573 65.0052 569.578 64.6406V63.1641H571.289L571.281 64.5312C571.276 65.0833 571.135 65.6354 570.859 66.1875C570.589 66.7448 570.237 67.2031 569.805 67.5625ZM584.719 65H577.07V63.6953L580.859 59.5625C581.406 58.9531 581.794 58.4453 582.023 58.0391C582.258 57.6276 582.375 57.2161 582.375 56.8047C582.375 56.263 582.221 55.8255 581.914 55.4922C581.612 55.1589 581.203 54.9922 580.688 54.9922C580.073 54.9922 579.596 55.1797 579.258 55.5547C578.919 55.9297 578.75 56.4427 578.75 57.0938H576.852C576.852 56.401 577.008 55.7786 577.32 55.2266C577.638 54.6693 578.089 54.237 578.672 53.9297C579.26 53.6224 579.938 53.4688 580.703 53.4688C581.807 53.4688 582.677 53.7474 583.312 54.3047C583.953 54.8568 584.273 55.6224 584.273 56.6016C584.273 57.1693 584.112 57.7656 583.789 58.3906C583.471 59.0104 582.948 59.7161 582.219 60.5078L579.438 63.4844H584.719V65ZM589.508 66.7109C590.424 66.4141 590.893 65.6016 590.914 64.2734V62.6484C590.914 61.4453 591.388 60.6198 592.336 60.1719C591.388 59.724 590.914 58.8906 590.914 57.6719V56.0547C590.893 54.7266 590.424 53.9141 589.508 53.6172L589.883 52.5234C590.831 52.7891 591.536 53.2214 592 53.8203C592.464 54.4141 592.695 55.1927 592.695 56.1562V57.7188C592.695 58.8906 593.201 59.4766 594.211 59.4766V60.8672C593.201 60.8672 592.695 61.4531 592.695 62.625V64.1641C592.695 65.138 592.461 65.9219 591.992 66.5156C591.529 67.1146 590.826 67.5469 589.883 67.8125L589.508 66.7109Z" fill="#FF5A43"/>
<defs>
<filter id="filter0_d" x="0" y="0" width="233" height="124" filterUnits="userSpaceOnUse" color-interpolation-filters="sRGB">
<feFlood flood-opacity="0" result="BackgroundImageFix"/>
<feColorMatrix in="SourceAlpha" type="matrix" values="0 0 0 0 0 0 0 0 0 0 0 0 0 0 0 0 0 0 127 0"/>
<feOffset dx="4" dy="4"/>
<feColorMatrix type="matrix" values="0 0 0 0 0.674908 0 0 0 0 0.662083 0 0 0 0 0.945833 0 0 0 1 0"/>
<feBlend mode="normal" in2="BackgroundImageFix" result="effect1_dropShadow"/>
<feBlend mode="normal" in="SourceGraphic" in2="effect1_dropShadow" result="shape"/>
</filter>
<filter id="filter1_d" x="0" y="119" width="233" height="28" filterUnits="userSpaceOnUse" color-interpolation-filters="sRGB">
<feFlood flood-opacity="0" result="BackgroundImageFix"/>
<feColorMatrix in="SourceAlpha" type="matrix" values="0 0 0 0 0 0 0 0 0 0 0 0 0 0 0 0 0 0 127 0"/>
<feOffset dx="4" dy="4"/>
<feColorMatrix type="matrix" values="0 0 0 0 0.674908 0 0 0 0 0.662083 0 0 0 0 0.945833 0 0 0 1 0"/>
<feBlend mode="normal" in2="BackgroundImageFix" result="effect1_dropShadow"/>
<feBlend mode="normal" in="SourceGraphic" in2="effect1_dropShadow" result="shape"/>
</filter>
<filter id="filter2_d" x="400" y="40" width="233" height="84" filterUnits="userSpaceOnUse" color-interpolation-filters="sRGB">
<feFlood flood-opacity="0" result="BackgroundImageFix"/>
<feColorMatrix in="SourceAlpha" type="matrix" values="0 0 0 0 0 0 0 0 0 0 0 0 0 0 0 0 0 0 127 0"/>
<feOffset dx="4" dy="4"/>
<feColorMatrix type="matrix" values="0 0 0 0 0.674908 0 0 0 0 0.662083 0 0 0 0 0.945833 0 0 0 1 0"/>
<feBlend mode="normal" in2="BackgroundImageFix" result="effect1_dropShadow"/>
<feBlend mode="normal" in="SourceGraphic" in2="effect1_dropShadow" result="shape"/>
</filter>
<filter id="filter3_d" x="400" y="119" width="233" height="28" filterUnits="userSpaceOnUse" color-interpolation-filters="sRGB">
<feFlood flood-opacity="0" result="BackgroundImageFix"/>
<feColorMatrix in="SourceAlpha" type="matrix" values="0 0 0 0 0 0 0 0 0 0 0 0 0 0 0 0 0 0 127 0"/>
<feOffset dx="4" dy="4"/>
<feColorMatrix type="matrix" values="0 0 0 0 0.674908 0 0 0 0 0.662083 0 0 0 0 0.945833 0 0 0 1 0"/>
<feBlend mode="normal" in2="BackgroundImageFix" result="effect1_dropShadow"/>
<feBlend mode="normal" in="SourceGraphic" in2="effect1_dropShadow" result="shape"/>
</filter>
</defs>
</svg>
