<svg width="633" height="147" viewBox="0 0 633 147" fill="none" xmlns="http://www.w3.org/2000/svg">
<line x1="252" y1="120.5" x2="386" y2="120.5" stroke="#65BF73" stroke-width="2"/>
<path d="M376 111L386.5 120.5L376 129.5" stroke="#65BF73" stroke-width="2" stroke-linecap="round" stroke-linejoin="round"/>
<circle cx="247.5" cy="121" r="5.5" stroke="#65BF73" stroke-width="2"/>
<path d="M306.891 102.297C306.776 103.51 306.328 104.458 305.547 105.141C304.766 105.818 303.727 106.156 302.43 106.156C301.523 106.156 300.724 105.943 300.031 105.516C299.344 105.083 298.812 104.471 298.438 103.68C298.062 102.888 297.867 101.969 297.852 100.922V99.8594C297.852 98.7865 298.042 97.8411 298.422 97.0234C298.802 96.2057 299.346 95.5755 300.055 95.1328C300.768 94.6901 301.591 94.4688 302.523 94.4688C303.779 94.4688 304.789 94.8099 305.555 95.4922C306.32 96.1745 306.766 97.138 306.891 98.3828H304.922C304.828 97.5651 304.589 96.9766 304.203 96.6172C303.823 96.2526 303.263 96.0703 302.523 96.0703C301.664 96.0703 301.003 96.3854 300.539 97.0156C300.081 97.6406 299.846 98.5599 299.836 99.7734V100.781C299.836 102.01 300.055 102.948 300.492 103.594C300.935 104.24 301.581 104.562 302.43 104.562C303.206 104.562 303.789 104.388 304.18 104.039C304.57 103.69 304.818 103.109 304.922 102.297H306.891ZM308.664 106V94.625H312.023C313.029 94.625 313.919 94.849 314.695 95.2969C315.477 95.7448 316.081 96.3802 316.508 97.2031C316.935 98.026 317.148 98.9688 317.148 100.031V100.602C317.148 101.68 316.932 102.628 316.5 103.445C316.073 104.263 315.461 104.893 314.664 105.336C313.872 105.779 312.964 106 311.938 106H308.664ZM310.641 96.2188V104.422H311.93C312.966 104.422 313.76 104.099 314.312 103.453C314.87 102.802 315.154 101.87 315.164 100.656V100.023C315.164 98.7891 314.896 97.8464 314.359 97.1953C313.823 96.5443 313.044 96.2188 312.023 96.2188H310.641ZM323.297 101.617H321.094V106H319.117V94.625H323.117C324.43 94.625 325.443 94.9193 326.156 95.5078C326.87 96.0964 327.227 96.9479 327.227 98.0625C327.227 98.8229 327.042 99.4609 326.672 99.9766C326.307 100.487 325.797 100.88 325.141 101.156L327.695 105.898V106H325.578L323.297 101.617ZM321.094 100.031H323.125C323.792 100.031 324.312 99.8646 324.688 99.5312C325.062 99.1927 325.25 98.7318 325.25 98.1484C325.25 97.5391 325.076 97.0677 324.727 96.7344C324.383 96.401 323.867 96.2292 323.18 96.2188H321.094V100.031Z" fill="#65BF73"/>
<g filter="url(#filter0_d)">
<path d="M0 8C0 3.58172 3.58172 0 8 0H221C225.418 0 229 3.58172 229 8V120H0V8Z" fill="white"/>
<line x1="0.5" y1="79.5" x2="228.5" y2="79.5" stroke="#5452F6"/>
<line x1="0.5" y1="39.5" x2="228.5" y2="39.5" stroke="#5452F6"/>
<path d="M99.25 96.5469L99.3047 97.5234C99.9297 96.7682 100.75 96.3906 101.766 96.3906C103.526 96.3906 104.422 97.3984 104.453 99.4141V105H102.555V99.5234C102.555 98.987 102.438 98.5911 102.203 98.3359C101.974 98.0755 101.596 97.9453 101.07 97.9453C100.305 97.9453 99.7344 98.2917 99.3594 98.9844V105H97.4609V96.5469H99.25ZM111.445 105C111.362 104.839 111.289 104.576 111.227 104.211C110.622 104.841 109.883 105.156 109.008 105.156C108.159 105.156 107.466 104.914 106.93 104.43C106.393 103.945 106.125 103.346 106.125 102.633C106.125 101.732 106.458 101.042 107.125 100.562C107.797 100.078 108.755 99.8359 110 99.8359H111.164V99.2812C111.164 98.8438 111.042 98.4948 110.797 98.2344C110.552 97.9688 110.18 97.8359 109.68 97.8359C109.247 97.8359 108.893 97.9453 108.617 98.1641C108.341 98.3776 108.203 98.651 108.203 98.9844H106.305C106.305 98.5208 106.458 98.0885 106.766 97.6875C107.073 97.2812 107.49 96.9635 108.016 96.7344C108.547 96.5052 109.138 96.3906 109.789 96.3906C110.779 96.3906 111.568 96.6406 112.156 97.1406C112.745 97.6354 113.047 98.3333 113.062 99.2344V103.047C113.062 103.807 113.169 104.414 113.383 104.867V105H111.445ZM109.359 103.633C109.734 103.633 110.086 103.542 110.414 103.359C110.747 103.177 110.997 102.932 111.164 102.625V101.031H110.141C109.438 101.031 108.909 101.154 108.555 101.398C108.201 101.643 108.023 101.99 108.023 102.438C108.023 102.802 108.143 103.094 108.383 103.312C108.628 103.526 108.953 103.633 109.359 103.633ZM117.43 94.4922V96.5469H118.922V97.9531H117.43V102.672C117.43 102.995 117.492 103.229 117.617 103.375C117.747 103.516 117.977 103.586 118.305 103.586C118.523 103.586 118.745 103.56 118.969 103.508V104.977C118.536 105.096 118.12 105.156 117.719 105.156C116.26 105.156 115.531 104.352 115.531 102.742V97.9531H114.141V96.5469H115.531V94.4922H117.43ZM124.75 99.3594L125.367 93.625H131.477V95.2656H126.945L126.633 97.9844C127.159 97.6823 127.753 97.5312 128.414 97.5312C129.497 97.5312 130.339 97.8776 130.938 98.5703C131.542 99.263 131.844 100.195 131.844 101.367C131.844 102.523 131.51 103.445 130.844 104.133C130.177 104.815 129.263 105.156 128.102 105.156C127.06 105.156 126.195 104.862 125.508 104.273C124.826 103.68 124.456 102.898 124.398 101.93H126.234C126.307 102.482 126.505 102.906 126.828 103.203C127.151 103.495 127.573 103.641 128.094 103.641C128.677 103.641 129.13 103.432 129.453 103.016C129.781 102.599 129.945 102.031 129.945 101.312C129.945 100.62 129.766 100.073 129.406 99.6719C129.047 99.2656 128.552 99.0625 127.922 99.0625C127.578 99.0625 127.286 99.1094 127.047 99.2031C126.807 99.2917 126.547 99.4688 126.266 99.7344L124.75 99.3594Z" fill="#5452F6"/>
<path d="M73.7891 62.0703C73.7891 61.5703 73.612 61.1849 73.2578 60.9141C72.9089 60.6432 72.276 60.3698 71.3594 60.0938C70.4427 59.8177 69.7135 59.5104 69.1719 59.1719C68.1354 58.5208 67.6172 57.6719 67.6172 56.625C67.6172 55.7083 67.9896 54.9531 68.7344 54.3594C69.4844 53.7656 70.4557 53.4688 71.6484 53.4688C72.4401 53.4688 73.1458 53.6146 73.7656 53.9062C74.3854 54.1979 74.8724 54.6146 75.2266 55.1562C75.5807 55.6927 75.7578 56.2891 75.7578 56.9453H73.7891C73.7891 56.3516 73.6016 55.888 73.2266 55.5547C72.8568 55.2161 72.3255 55.0469 71.6328 55.0469C70.987 55.0469 70.4844 55.1849 70.125 55.4609C69.7708 55.737 69.5938 56.1224 69.5938 56.6172C69.5938 57.0339 69.7865 57.3828 70.1719 57.6641C70.5573 57.9401 71.1927 58.2109 72.0781 58.4766C72.9635 58.737 73.6745 59.0365 74.2109 59.375C74.7474 59.7083 75.1406 60.0938 75.3906 60.5312C75.6406 60.9635 75.7656 61.4714 75.7656 62.0547C75.7656 63.0026 75.401 63.7578 74.6719 64.3203C73.9479 64.8776 72.9635 65.1562 71.7188 65.1562C70.8958 65.1562 70.138 65.0052 69.4453 64.7031C68.7578 64.3958 68.2214 63.974 67.8359 63.4375C67.4557 62.901 67.2656 62.276 67.2656 61.5625H69.2422C69.2422 62.2083 69.4557 62.7083 69.8828 63.0625C70.3099 63.4167 70.9219 63.5938 71.7188 63.5938C72.4062 63.5938 72.9219 63.4557 73.2656 63.1797C73.6146 62.8984 73.7891 62.5286 73.7891 62.0703ZM79.6953 54.4922V56.5469H81.1875V57.9531H79.6953V62.6719C79.6953 62.9948 79.7578 63.2292 79.8828 63.375C80.013 63.5156 80.2422 63.5859 80.5703 63.5859C80.7891 63.5859 81.0104 63.5599 81.2344 63.5078V64.9766C80.8021 65.0964 80.3854 65.1562 79.9844 65.1562C78.526 65.1562 77.7969 64.3516 77.7969 62.7422V57.9531H76.4062V56.5469H77.7969V54.4922H79.6953ZM87.0703 58.2812C86.8203 58.2396 86.5625 58.2188 86.2969 58.2188C85.4271 58.2188 84.8411 58.5521 84.5391 59.2188V65H82.6406V56.5469H84.4531L84.5 57.4922C84.9583 56.7578 85.5938 56.3906 86.4062 56.3906C86.6771 56.3906 86.901 56.4271 87.0781 56.5L87.0703 58.2812ZM90.2891 65H88.3906V56.5469H90.2891V65ZM88.2734 54.3516C88.2734 54.0599 88.3646 53.8177 88.5469 53.625C88.7344 53.4323 89 53.3359 89.3438 53.3359C89.6875 53.3359 89.9531 53.4323 90.1406 53.625C90.3281 53.8177 90.4219 54.0599 90.4219 54.3516C90.4219 54.638 90.3281 54.8776 90.1406 55.0703C89.9531 55.2578 89.6875 55.3516 89.3438 55.3516C89 55.3516 88.7344 55.2578 88.5469 55.0703C88.3646 54.8776 88.2734 54.638 88.2734 54.3516ZM94.125 56.5469L94.1797 57.5234C94.8047 56.7682 95.625 56.3906 96.6406 56.3906C98.401 56.3906 99.2969 57.3984 99.3281 59.4141V65H97.4297V59.5234C97.4297 58.987 97.3125 58.5911 97.0781 58.3359C96.849 58.0755 96.4714 57.9453 95.9453 57.9453C95.1797 57.9453 94.6094 58.2917 94.2344 58.9844V65H92.3359V56.5469H94.125ZM100.938 60.7109C100.938 59.3984 101.245 58.3516 101.859 57.5703C102.479 56.7839 103.299 56.3906 104.32 56.3906C105.284 56.3906 106.042 56.7266 106.594 57.3984L106.68 56.5469H108.391V64.7422C108.391 65.8516 108.044 66.7266 107.352 67.3672C106.664 68.0078 105.734 68.3281 104.562 68.3281C103.943 68.3281 103.336 68.1979 102.742 67.9375C102.154 67.6823 101.706 67.3464 101.398 66.9297L102.297 65.7891C102.88 66.4818 103.599 66.8281 104.453 66.8281C105.083 66.8281 105.581 66.6562 105.945 66.3125C106.31 65.974 106.492 65.474 106.492 64.8125V64.2422C105.945 64.8516 105.216 65.1562 104.305 65.1562C103.315 65.1562 102.505 64.763 101.875 63.9766C101.25 63.1901 100.938 62.1016 100.938 60.7109ZM102.828 60.875C102.828 61.724 103 62.3932 103.344 62.8828C103.693 63.3672 104.174 63.6094 104.789 63.6094C105.555 63.6094 106.122 63.2812 106.492 62.625V58.9062C106.133 58.2656 105.57 57.9453 104.805 57.9453C104.18 57.9453 103.693 58.1927 103.344 58.6875C103 59.1823 102.828 59.9115 102.828 60.875ZM115.633 52.7969L116.602 53.3984C116.128 54.0911 115.883 54.8125 115.867 55.5625V56.75H114.203V55.6719C114.208 55.1719 114.344 54.651 114.609 54.1094C114.88 53.5625 115.221 53.125 115.633 52.7969ZM118.258 52.7969L119.227 53.3984C118.753 54.0911 118.508 54.8125 118.492 55.5625V56.75H116.828V55.6719C116.833 55.1719 116.969 54.651 117.234 54.1094C117.505 53.5625 117.846 53.125 118.258 52.7969ZM129.703 65H127.734V59.9453H122.648V65H120.672V53.625H122.648V58.3594H127.734V53.625H129.703V65ZM135.586 65.1562C134.383 65.1562 133.406 64.7786 132.656 64.0234C131.911 63.263 131.539 62.2526 131.539 60.9922V60.7578C131.539 59.9141 131.701 59.1615 132.023 58.5C132.352 57.8333 132.81 57.3151 133.398 56.9453C133.987 56.5755 134.643 56.3906 135.367 56.3906C136.518 56.3906 137.406 56.7578 138.031 57.4922C138.661 58.2266 138.977 59.2656 138.977 60.6094V61.375H133.453C133.51 62.0729 133.742 62.625 134.148 63.0312C134.56 63.4375 135.076 63.6406 135.695 63.6406C136.565 63.6406 137.273 63.2891 137.82 62.5859L138.844 63.5625C138.505 64.0677 138.052 64.4609 137.484 64.7422C136.922 65.0182 136.289 65.1562 135.586 65.1562ZM135.359 57.9141C134.839 57.9141 134.417 58.0964 134.094 58.4609C133.776 58.8255 133.573 59.3333 133.484 59.9844H137.102V59.8438C137.06 59.2083 136.891 58.7292 136.594 58.4062C136.297 58.0781 135.885 57.9141 135.359 57.9141ZM142.477 65H140.578V53H142.477V65ZM146.57 65H144.672V53H146.57V65ZM148.289 60.6953C148.289 59.8672 148.453 59.1224 148.781 58.4609C149.109 57.7943 149.57 57.2839 150.164 56.9297C150.758 56.5703 151.44 56.3906 152.211 56.3906C153.352 56.3906 154.276 56.7578 154.984 57.4922C155.698 58.2266 156.083 59.2005 156.141 60.4141L156.148 60.8594C156.148 61.6927 155.987 62.4375 155.664 63.0938C155.346 63.75 154.888 64.2578 154.289 64.6172C153.695 64.9766 153.008 65.1562 152.227 65.1562C151.034 65.1562 150.078 64.7604 149.359 63.9688C148.646 63.1719 148.289 62.112 148.289 60.7891V60.6953ZM150.188 60.8594C150.188 61.7292 150.367 62.4115 150.727 62.9062C151.086 63.3958 151.586 63.6406 152.227 63.6406C152.867 63.6406 153.365 63.3906 153.719 62.8906C154.078 62.3906 154.258 61.6589 154.258 60.6953C154.258 59.8411 154.073 59.1641 153.703 58.6641C153.339 58.1641 152.841 57.9141 152.211 57.9141C151.591 57.9141 151.099 58.1615 150.734 58.6562C150.37 59.1458 150.188 59.8802 150.188 60.8594ZM157.562 57L156.594 56.3984C157.062 55.7161 157.305 54.9948 157.32 54.2344V53H158.984V54.0781C158.984 54.6146 158.846 55.1562 158.57 55.7031C158.299 56.2448 157.964 56.6771 157.562 57ZM160.172 57L159.203 56.3984C159.672 55.7161 159.914 54.9948 159.93 54.2344V53H161.594V54.0781C161.594 54.6146 161.456 55.1562 161.18 55.7031C160.909 56.2448 160.573 56.6771 160.172 57Z" fill="#5452F6"/>
<path d="M21.625 20.7734V25H19.6484V13.625H24C25.2708 13.625 26.2786 13.9557 27.0234 14.6172C27.7734 15.2786 28.1484 16.1536 28.1484 17.2422C28.1484 18.3568 27.7812 19.224 27.0469 19.8438C26.3177 20.4635 25.2943 20.7734 23.9766 20.7734H21.625ZM21.625 19.1875H24C24.7031 19.1875 25.2396 19.0234 25.6094 18.6953C25.9792 18.362 26.1641 17.8828 26.1641 17.2578C26.1641 16.6432 25.9766 16.1536 25.6016 15.7891C25.2266 15.4193 24.7109 15.2292 24.0547 15.2188H21.625V19.1875ZM34.8594 22.3516H30.4531L29.5312 25H27.4766L31.7734 13.625H33.5469L37.8516 25H35.7891L34.8594 22.3516ZM31.0078 20.7578H34.3047L32.6562 16.0391L31.0078 20.7578ZM41.2344 25H39.2656V13.625H41.2344V25ZM47.8438 20.6172H45.6406V25H43.6641V13.625H47.6641C48.9766 13.625 49.9896 13.9193 50.7031 14.5078C51.4167 15.0964 51.7734 15.9479 51.7734 17.0625C51.7734 17.8229 51.5885 18.4609 51.2188 18.9766C50.8542 19.487 50.3438 19.8802 49.6875 20.1562L52.2422 24.8984V25H50.125L47.8438 20.6172ZM45.6406 19.0312H47.6719C48.3385 19.0312 48.8594 18.8646 49.2344 18.5312C49.6094 18.1927 49.7969 17.7318 49.7969 17.1484C49.7969 16.5391 49.6224 16.0677 49.2734 15.7344C48.9297 15.401 48.4141 15.2292 47.7266 15.2188H45.6406V19.0312ZM57.4766 20.375C57.4766 19.1719 57.638 18.0312 57.9609 16.9531C58.2839 15.8698 58.7578 14.9036 59.3828 14.0547C60.0078 13.2005 60.6693 12.6016 61.3672 12.2578L61.7422 13.3672C61.0078 13.9245 60.4115 14.776 59.9531 15.9219C59.5 17.0625 59.2526 18.3698 59.2109 19.8438L59.2031 20.5156C59.2031 22.0938 59.4245 23.5026 59.8672 24.7422C60.3151 25.9766 60.9401 26.9167 61.7422 27.5625L61.3672 28.6172C60.6693 28.2734 60.0052 27.6719 59.375 26.8125C58.75 25.9583 58.276 24.9948 57.9531 23.9219C57.6354 22.8438 57.4766 21.6615 57.4766 20.375ZM64.7891 16.5469L64.8438 17.5234C65.4688 16.7682 66.2891 16.3906 67.3047 16.3906C69.0651 16.3906 69.9609 17.3984 69.9922 19.4141V25H68.0938V19.5234C68.0938 18.987 67.9766 18.5911 67.7422 18.3359C67.513 18.0755 67.1354 17.9453 66.6094 17.9453C65.8438 17.9453 65.2734 18.2917 64.8984 18.9844V25H63V16.5469H64.7891ZM76.9844 25C76.901 24.8385 76.8281 24.5755 76.7656 24.2109C76.1615 24.8411 75.4219 25.1562 74.5469 25.1562C73.6979 25.1562 73.0052 24.9141 72.4688 24.4297C71.9323 23.9453 71.6641 23.3464 71.6641 22.6328C71.6641 21.7318 71.9974 21.0417 72.6641 20.5625C73.3359 20.0781 74.2943 19.8359 75.5391 19.8359H76.7031V19.2812C76.7031 18.8438 76.5807 18.4948 76.3359 18.2344C76.0911 17.9688 75.7188 17.8359 75.2188 17.8359C74.7865 17.8359 74.4323 17.9453 74.1562 18.1641C73.8802 18.3776 73.7422 18.651 73.7422 18.9844H71.8438C71.8438 18.5208 71.9974 18.0885 72.3047 17.6875C72.612 17.2812 73.0286 16.9635 73.5547 16.7344C74.0859 16.5052 74.6771 16.3906 75.3281 16.3906C76.3177 16.3906 77.1068 16.6406 77.6953 17.1406C78.2839 17.6354 78.5859 18.3333 78.6016 19.2344V23.0469C78.6016 23.8073 78.7083 24.4141 78.9219 24.8672V25H76.9844ZM74.8984 23.6328C75.2734 23.6328 75.625 23.5417 75.9531 23.3594C76.2865 23.1771 76.5365 22.9323 76.7031 22.625V21.0312H75.6797C74.9766 21.0312 74.4479 21.1536 74.0938 21.3984C73.7396 21.6432 73.5625 21.9896 73.5625 22.4375C73.5625 22.8021 73.6823 23.0938 73.9219 23.3125C74.1667 23.526 74.4922 23.6328 74.8984 23.6328ZM82.9688 14.4922V16.5469H84.4609V17.9531H82.9688V22.6719C82.9688 22.9948 83.0312 23.2292 83.1562 23.375C83.2865 23.5156 83.5156 23.5859 83.8438 23.5859C84.0625 23.5859 84.2839 23.5599 84.5078 23.5078V24.9766C84.0755 25.0964 83.6589 25.1562 83.2578 25.1562C81.7995 25.1562 81.0703 24.3516 81.0703 22.7422V17.9531H79.6797V16.5469H81.0703V14.4922H82.9688ZM96.9453 16.625C96.9453 17.1823 96.8021 17.6797 96.5156 18.1172C96.2292 18.5495 95.8385 18.8906 95.3438 19.1406C95.9375 19.4167 96.3932 19.7943 96.7109 20.2734C97.0339 20.7526 97.1953 21.2943 97.1953 21.8984C97.1953 22.8984 96.8568 23.6927 96.1797 24.2812C95.5026 24.8646 94.6016 25.1562 93.4766 25.1562C92.3464 25.1562 91.4401 24.862 90.7578 24.2734C90.0807 23.6849 89.7422 22.8932 89.7422 21.8984C89.7422 21.2891 89.9036 20.7422 90.2266 20.2578C90.5495 19.7734 91.0026 19.401 91.5859 19.1406C91.0964 18.8906 90.7083 18.5495 90.4219 18.1172C90.1406 17.6797 90 17.1823 90 16.625C90 15.6562 90.3125 14.888 90.9375 14.3203C91.5625 13.7526 92.4062 13.4688 93.4688 13.4688C94.5365 13.4688 95.3828 13.7526 96.0078 14.3203C96.6328 14.888 96.9453 15.6562 96.9453 16.625ZM95.2969 21.8047C95.2969 21.2422 95.1276 20.7891 94.7891 20.4453C94.4557 20.0964 94.013 19.9219 93.4609 19.9219C92.9089 19.9219 92.4661 20.0938 92.1328 20.4375C91.8047 20.7812 91.6406 21.237 91.6406 21.8047C91.6406 22.362 91.8021 22.8073 92.125 23.1406C92.4531 23.474 92.9036 23.6406 93.4766 23.6406C94.0495 23.6406 94.4948 23.4792 94.8125 23.1562C95.1354 22.8333 95.2969 22.3828 95.2969 21.8047ZM95.0547 16.6953C95.0547 16.2005 94.9115 15.7943 94.625 15.4766C94.3385 15.1536 93.9531 14.9922 93.4688 14.9922C92.9844 14.9922 92.6016 15.1458 92.3203 15.4531C92.0391 15.7552 91.8984 16.1693 91.8984 16.6953C91.8984 17.2161 92.0391 17.6302 92.3203 17.9375C92.6068 18.2448 92.9922 18.3984 93.4766 18.3984C93.9609 18.3984 94.3438 18.2448 94.625 17.9375C94.9115 17.6302 95.0547 17.2161 95.0547 16.6953ZM99.2656 27.5625L98.2422 26.9531C98.5443 26.4792 98.75 26.0651 98.8594 25.7109C98.974 25.362 99.0339 25.0052 99.0391 24.6406V23.1641H100.75L100.742 24.5312C100.737 25.0833 100.596 25.6354 100.32 26.1875C100.049 26.7448 99.6979 27.2031 99.2656 27.5625ZM111.234 22.7031C111.234 22.3646 111.094 22.1068 110.812 21.9297C110.536 21.7526 110.076 21.5964 109.43 21.4609C108.784 21.3255 108.245 21.1536 107.812 20.9453C106.865 20.487 106.391 19.8229 106.391 18.9531C106.391 18.224 106.698 17.6146 107.312 17.125C107.927 16.6354 108.708 16.3906 109.656 16.3906C110.667 16.3906 111.482 16.6406 112.102 17.1406C112.727 17.6406 113.039 18.2891 113.039 19.0859H111.141C111.141 18.7214 111.005 18.4193 110.734 18.1797C110.464 17.9349 110.104 17.8125 109.656 17.8125C109.24 17.8125 108.898 17.9089 108.633 18.1016C108.372 18.2943 108.242 18.5521 108.242 18.875C108.242 19.1667 108.365 19.3932 108.609 19.5547C108.854 19.7161 109.349 19.8802 110.094 20.0469C110.839 20.2083 111.422 20.4036 111.844 20.6328C112.271 20.8568 112.586 21.1276 112.789 21.4453C112.997 21.763 113.102 22.1484 113.102 22.6016C113.102 23.362 112.786 23.9792 112.156 24.4531C111.526 24.9219 110.701 25.1562 109.68 25.1562C108.987 25.1562 108.37 25.0312 107.828 24.7812C107.286 24.5312 106.865 24.1875 106.562 23.75C106.26 23.3125 106.109 22.8411 106.109 22.3359H107.953C107.979 22.7839 108.148 23.1302 108.461 23.375C108.773 23.6146 109.188 23.7344 109.703 23.7344C110.203 23.7344 110.583 23.6406 110.844 23.4531C111.104 23.2604 111.234 23.0104 111.234 22.7031ZM117.141 14.4922V16.5469H118.633V17.9531H117.141V22.6719C117.141 22.9948 117.203 23.2292 117.328 23.375C117.458 23.5156 117.688 23.5859 118.016 23.5859C118.234 23.5859 118.456 23.5599 118.68 23.5078V24.9766C118.247 25.0964 117.831 25.1562 117.43 25.1562C115.971 25.1562 115.242 24.3516 115.242 22.7422V17.9531H113.852V16.5469H115.242V14.4922H117.141ZM124.516 18.2812C124.266 18.2396 124.008 18.2188 123.742 18.2188C122.872 18.2188 122.286 18.5521 121.984 19.2188V25H120.086V16.5469H121.898L121.945 17.4922C122.404 16.7578 123.039 16.3906 123.852 16.3906C124.122 16.3906 124.346 16.4271 124.523 16.5L124.516 18.2812ZM127.734 25H125.836V16.5469H127.734V25ZM125.719 14.3516C125.719 14.0599 125.81 13.8177 125.992 13.625C126.18 13.4323 126.445 13.3359 126.789 13.3359C127.133 13.3359 127.398 13.4323 127.586 13.625C127.773 13.8177 127.867 14.0599 127.867 14.3516C127.867 14.638 127.773 14.8776 127.586 15.0703C127.398 15.2578 127.133 15.3516 126.789 15.3516C126.445 15.3516 126.18 15.2578 125.992 15.0703C125.81 14.8776 125.719 14.638 125.719 14.3516ZM131.57 16.5469L131.625 17.5234C132.25 16.7682 133.07 16.3906 134.086 16.3906C135.846 16.3906 136.742 17.3984 136.773 19.4141V25H134.875V19.5234C134.875 18.987 134.758 18.5911 134.523 18.3359C134.294 18.0755 133.917 17.9453 133.391 17.9453C132.625 17.9453 132.055 18.2917 131.68 18.9844V25H129.781V16.5469H131.57ZM138.383 20.7109C138.383 19.3984 138.69 18.3516 139.305 17.5703C139.924 16.7839 140.745 16.3906 141.766 16.3906C142.729 16.3906 143.487 16.7266 144.039 17.3984L144.125 16.5469H145.836V24.7422C145.836 25.8516 145.49 26.7266 144.797 27.3672C144.109 28.0078 143.18 28.3281 142.008 28.3281C141.388 28.3281 140.781 28.1979 140.188 27.9375C139.599 27.6823 139.151 27.3464 138.844 26.9297L139.742 25.7891C140.326 26.4818 141.044 26.8281 141.898 26.8281C142.529 26.8281 143.026 26.6562 143.391 26.3125C143.755 25.974 143.938 25.474 143.938 24.8125V24.2422C143.391 24.8516 142.661 25.1562 141.75 25.1562C140.76 25.1562 139.951 24.763 139.32 23.9766C138.695 23.1901 138.383 22.1016 138.383 20.7109ZM140.273 20.875C140.273 21.724 140.445 22.3932 140.789 22.8828C141.138 23.3672 141.62 23.6094 142.234 23.6094C143 23.6094 143.568 23.2812 143.938 22.625V18.9062C143.578 18.2656 143.016 17.9453 142.25 17.9453C141.625 17.9453 141.138 18.1927 140.789 18.6875C140.445 19.1823 140.273 19.9115 140.273 20.875ZM153.078 12.7969L154.047 13.3984C153.573 14.0911 153.328 14.8125 153.312 15.5625V16.75H151.648V15.6719C151.654 15.1719 151.789 14.651 152.055 14.1094C152.326 13.5625 152.667 13.125 153.078 12.7969ZM155.703 12.7969L156.672 13.3984C156.198 14.0911 155.953 14.8125 155.938 15.5625V16.75H154.273V15.6719C154.279 15.1719 154.414 14.651 154.68 14.1094C154.951 13.5625 155.292 13.125 155.703 12.7969ZM167.039 22.1875L168.789 13.625H170.75L168.125 25H166.234L164.07 16.6953L161.859 25H159.961L157.336 13.625H159.297L161.062 22.1719L163.234 13.625H164.891L167.039 22.1875ZM171.406 20.6953C171.406 19.8672 171.57 19.1224 171.898 18.4609C172.227 17.7943 172.688 17.2839 173.281 16.9297C173.875 16.5703 174.557 16.3906 175.328 16.3906C176.469 16.3906 177.393 16.7578 178.102 17.4922C178.815 18.2266 179.201 19.2005 179.258 20.4141L179.266 20.8594C179.266 21.6927 179.104 22.4375 178.781 23.0938C178.464 23.75 178.005 24.2578 177.406 24.6172C176.812 24.9766 176.125 25.1562 175.344 25.1562C174.151 25.1562 173.195 24.7604 172.477 23.9688C171.763 23.1719 171.406 22.112 171.406 20.7891V20.6953ZM173.305 20.8594C173.305 21.7292 173.484 22.4115 173.844 22.9062C174.203 23.3958 174.703 23.6406 175.344 23.6406C175.984 23.6406 176.482 23.3906 176.836 22.8906C177.195 22.3906 177.375 21.6589 177.375 20.6953C177.375 19.8411 177.19 19.1641 176.82 18.6641C176.456 18.1641 175.958 17.9141 175.328 17.9141C174.708 17.9141 174.216 18.1615 173.852 18.6562C173.487 19.1458 173.305 19.8802 173.305 20.8594ZM185.297 18.2812C185.047 18.2396 184.789 18.2188 184.523 18.2188C183.654 18.2188 183.068 18.5521 182.766 19.2188V25H180.867V16.5469H182.68L182.727 17.4922C183.185 16.7578 183.82 16.3906 184.633 16.3906C184.904 16.3906 185.128 16.4271 185.305 16.5L185.297 18.2812ZM188.516 25H186.617V13H188.516V25ZM190.234 20.7109C190.234 19.4089 190.536 18.3646 191.141 17.5781C191.745 16.7865 192.555 16.3906 193.57 16.3906C194.466 16.3906 195.19 16.7031 195.742 17.3281V13H197.641V25H195.922L195.828 24.125C195.26 24.8125 194.503 25.1562 193.555 25.1562C192.565 25.1562 191.763 24.7578 191.148 23.9609C190.539 23.1641 190.234 22.0807 190.234 20.7109ZM192.133 20.875C192.133 21.7344 192.297 22.4062 192.625 22.8906C192.958 23.3698 193.43 23.6094 194.039 23.6094C194.815 23.6094 195.383 23.263 195.742 22.5703V18.9609C195.393 18.2839 194.831 17.9453 194.055 17.9453C193.44 17.9453 192.966 18.1901 192.633 18.6797C192.299 19.1641 192.133 19.8958 192.133 20.875ZM200.117 17L199.148 16.3984C199.617 15.7161 199.859 14.9948 199.875 14.2344V13H201.539V14.0781C201.539 14.6146 201.401 15.1562 201.125 15.7031C200.854 16.2448 200.518 16.6771 200.117 17ZM202.727 17L201.758 16.3984C202.227 15.7161 202.469 14.9948 202.484 14.2344V13H204.148V14.0781C204.148 14.6146 204.01 15.1562 203.734 15.7031C203.464 16.2448 203.128 16.6771 202.727 17ZM209.5 20.5C209.5 21.6562 209.341 22.7734 209.023 23.8516C208.706 24.9245 208.224 25.901 207.578 26.7812C206.932 27.6667 206.258 28.2786 205.555 28.6172L205.18 27.5625C205.961 26.9583 206.578 26.0365 207.031 24.7969C207.49 23.5521 207.719 22.1328 207.719 20.5391V20.3594C207.719 18.9115 207.521 17.5938 207.125 16.4062C206.729 15.2135 206.161 14.2578 205.422 13.5391L205.18 13.3203L205.555 12.2578C206.221 12.5807 206.867 13.1536 207.492 13.9766C208.117 14.7995 208.596 15.7214 208.93 16.7422C209.263 17.7578 209.451 18.8073 209.492 19.8906L209.5 20.5Z" fill="#FF5A43"/>
<path d="M0.5 8C0.5 3.85786 3.85786 0.5 8 0.5H221C225.142 0.5 228.5 3.85787 228.5 8V119.5H0.5V8Z" stroke="#5452F6"/>
</g>
<g filter="url(#filter1_d)">
<path d="M0 119H229V135C229 139.418 225.418 143 221 143H8.00001C3.58173 143 0 139.418 0 135V119Z" fill="#EEEEFF"/>
<path d="M0.5 119.5H228.5V135C228.5 139.142 225.142 142.5 221 142.5H8.00001C3.85787 142.5 0.5 139.142 0.5 135V119.5Z" stroke="#5452F6"/>
</g>
<g filter="url(#filter2_d)">
<path d="M400 8C400 3.58172 403.582 0 408 0H621C625.418 0 629 3.58172 629 8V120H400V8Z" fill="white"/>
<line x1="400.5" y1="79.5" x2="628.5" y2="79.5" stroke="#5452F6"/>
<line x1="400.5" y1="39.5" x2="628.5" y2="39.5" stroke="#5452F6"/>
<path d="M499.25 96.5469L499.305 97.5234C499.93 96.7682 500.75 96.3906 501.766 96.3906C503.526 96.3906 504.422 97.3984 504.453 99.4141V105H502.555V99.5234C502.555 98.987 502.438 98.5911 502.203 98.3359C501.974 98.0755 501.596 97.9453 501.07 97.9453C500.305 97.9453 499.734 98.2917 499.359 98.9844V105H497.461V96.5469H499.25ZM511.445 105C511.362 104.839 511.289 104.576 511.227 104.211C510.622 104.841 509.883 105.156 509.008 105.156C508.159 105.156 507.466 104.914 506.93 104.43C506.393 103.945 506.125 103.346 506.125 102.633C506.125 101.732 506.458 101.042 507.125 100.562C507.797 100.078 508.755 99.8359 510 99.8359H511.164V99.2812C511.164 98.8438 511.042 98.4948 510.797 98.2344C510.552 97.9688 510.18 97.8359 509.68 97.8359C509.247 97.8359 508.893 97.9453 508.617 98.1641C508.341 98.3776 508.203 98.651 508.203 98.9844H506.305C506.305 98.5208 506.458 98.0885 506.766 97.6875C507.073 97.2812 507.49 96.9635 508.016 96.7344C508.547 96.5052 509.138 96.3906 509.789 96.3906C510.779 96.3906 511.568 96.6406 512.156 97.1406C512.745 97.6354 513.047 98.3333 513.062 99.2344V103.047C513.062 103.807 513.169 104.414 513.383 104.867V105H511.445ZM509.359 103.633C509.734 103.633 510.086 103.542 510.414 103.359C510.747 103.177 510.997 102.932 511.164 102.625V101.031H510.141C509.438 101.031 508.909 101.154 508.555 101.398C508.201 101.643 508.023 101.99 508.023 102.438C508.023 102.802 508.143 103.094 508.383 103.312C508.628 103.526 508.953 103.633 509.359 103.633ZM517.43 94.4922V96.5469H518.922V97.9531H517.43V102.672C517.43 102.995 517.492 103.229 517.617 103.375C517.747 103.516 517.977 103.586 518.305 103.586C518.523 103.586 518.745 103.56 518.969 103.508V104.977C518.536 105.096 518.12 105.156 517.719 105.156C516.26 105.156 515.531 104.352 515.531 102.742V97.9531H514.141V96.5469H515.531V94.4922H517.43ZM524.75 99.3594L525.367 93.625H531.477V95.2656H526.945L526.633 97.9844C527.159 97.6823 527.753 97.5312 528.414 97.5312C529.497 97.5312 530.339 97.8776 530.938 98.5703C531.542 99.263 531.844 100.195 531.844 101.367C531.844 102.523 531.51 103.445 530.844 104.133C530.177 104.815 529.263 105.156 528.102 105.156C527.06 105.156 526.195 104.862 525.508 104.273C524.826 103.68 524.456 102.898 524.398 101.93H526.234C526.307 102.482 526.505 102.906 526.828 103.203C527.151 103.495 527.573 103.641 528.094 103.641C528.677 103.641 529.13 103.432 529.453 103.016C529.781 102.599 529.945 102.031 529.945 101.312C529.945 100.62 529.766 100.073 529.406 99.6719C529.047 99.2656 528.552 99.0625 527.922 99.0625C527.578 99.0625 527.286 99.1094 527.047 99.2031C526.807 99.2917 526.547 99.4688 526.266 99.7344L524.75 99.3594Z" fill="#5452F6"/>
<path d="M473.289 63.0703C473.289 62.5703 473.112 62.1849 472.758 61.9141C472.409 61.6432 471.776 61.3698 470.859 61.0938C469.943 60.8177 469.214 60.5104 468.672 60.1719C467.635 59.5208 467.117 58.6719 467.117 57.625C467.117 56.7083 467.49 55.9531 468.234 55.3594C468.984 54.7656 469.956 54.4688 471.148 54.4688C471.94 54.4688 472.646 54.6146 473.266 54.9062C473.885 55.1979 474.372 55.6146 474.727 56.1562C475.081 56.6927 475.258 57.2891 475.258 57.9453H473.289C473.289 57.3516 473.102 56.888 472.727 56.5547C472.357 56.2161 471.826 56.0469 471.133 56.0469C470.487 56.0469 469.984 56.1849 469.625 56.4609C469.271 56.737 469.094 57.1224 469.094 57.6172C469.094 58.0339 469.286 58.3828 469.672 58.6641C470.057 58.9401 470.693 59.2109 471.578 59.4766C472.464 59.737 473.174 60.0365 473.711 60.375C474.247 60.7083 474.641 61.0938 474.891 61.5312C475.141 61.9635 475.266 62.4714 475.266 63.0547C475.266 64.0026 474.901 64.7578 474.172 65.3203C473.448 65.8776 472.464 66.1562 471.219 66.1562C470.396 66.1562 469.638 66.0052 468.945 65.7031C468.258 65.3958 467.721 64.974 467.336 64.4375C466.956 63.901 466.766 63.276 466.766 62.5625H468.742C468.742 63.2083 468.956 63.7083 469.383 64.0625C469.81 64.4167 470.422 64.5938 471.219 64.5938C471.906 64.5938 472.422 64.4557 472.766 64.1797C473.115 63.8984 473.289 63.5286 473.289 63.0703ZM479.195 55.4922V57.5469H480.688V58.9531H479.195V63.6719C479.195 63.9948 479.258 64.2292 479.383 64.375C479.513 64.5156 479.742 64.5859 480.07 64.5859C480.289 64.5859 480.51 64.5599 480.734 64.5078V65.9766C480.302 66.0964 479.885 66.1562 479.484 66.1562C478.026 66.1562 477.297 65.3516 477.297 63.7422V58.9531H475.906V57.5469H477.297V55.4922H479.195ZM486.57 59.2812C486.32 59.2396 486.062 59.2188 485.797 59.2188C484.927 59.2188 484.341 59.5521 484.039 60.2188V66H482.141V57.5469H483.953L484 58.4922C484.458 57.7578 485.094 57.3906 485.906 57.3906C486.177 57.3906 486.401 57.4271 486.578 57.5L486.57 59.2812ZM489.789 66H487.891V57.5469H489.789V66ZM487.773 55.3516C487.773 55.0599 487.865 54.8177 488.047 54.625C488.234 54.4323 488.5 54.3359 488.844 54.3359C489.188 54.3359 489.453 54.4323 489.641 54.625C489.828 54.8177 489.922 55.0599 489.922 55.3516C489.922 55.638 489.828 55.8776 489.641 56.0703C489.453 56.2578 489.188 56.3516 488.844 56.3516C488.5 56.3516 488.234 56.2578 488.047 56.0703C487.865 55.8776 487.773 55.638 487.773 55.3516ZM493.625 57.5469L493.68 58.5234C494.305 57.7682 495.125 57.3906 496.141 57.3906C497.901 57.3906 498.797 58.3984 498.828 60.4141V66H496.93V60.5234C496.93 59.987 496.812 59.5911 496.578 59.3359C496.349 59.0755 495.971 58.9453 495.445 58.9453C494.68 58.9453 494.109 59.2917 493.734 59.9844V66H491.836V57.5469H493.625ZM500.438 61.7109C500.438 60.3984 500.745 59.3516 501.359 58.5703C501.979 57.7839 502.799 57.3906 503.82 57.3906C504.784 57.3906 505.542 57.7266 506.094 58.3984L506.18 57.5469H507.891V65.7422C507.891 66.8516 507.544 67.7266 506.852 68.3672C506.164 69.0078 505.234 69.3281 504.062 69.3281C503.443 69.3281 502.836 69.1979 502.242 68.9375C501.654 68.6823 501.206 68.3464 500.898 67.9297L501.797 66.7891C502.38 67.4818 503.099 67.8281 503.953 67.8281C504.583 67.8281 505.081 67.6562 505.445 67.3125C505.81 66.974 505.992 66.474 505.992 65.8125V65.2422C505.445 65.8516 504.716 66.1562 503.805 66.1562C502.815 66.1562 502.005 65.763 501.375 64.9766C500.75 64.1901 500.438 63.1016 500.438 61.7109ZM502.328 61.875C502.328 62.724 502.5 63.3932 502.844 63.8828C503.193 64.3672 503.674 64.6094 504.289 64.6094C505.055 64.6094 505.622 64.2812 505.992 63.625V59.9062C505.633 59.2656 505.07 58.9453 504.305 58.9453C503.68 58.9453 503.193 59.1927 502.844 59.6875C502.5 60.1823 502.328 60.9115 502.328 61.875ZM515.133 53.7969L516.102 54.3984C515.628 55.0911 515.383 55.8125 515.367 56.5625V57.75H513.703V56.6719C513.708 56.1719 513.844 55.651 514.109 55.1094C514.38 54.5625 514.721 54.125 515.133 53.7969ZM517.758 53.7969L518.727 54.3984C518.253 55.0911 518.008 55.8125 517.992 56.5625V57.75H516.328V56.6719C516.333 56.1719 516.469 55.651 516.734 55.1094C517.005 54.5625 517.346 54.125 517.758 53.7969ZM529.203 66H527.234V60.9453H522.148V66H520.172V54.625H522.148V59.3594H527.234V54.625H529.203V66ZM535.086 66.1562C533.883 66.1562 532.906 65.7786 532.156 65.0234C531.411 64.263 531.039 63.2526 531.039 61.9922V61.7578C531.039 60.9141 531.201 60.1615 531.523 59.5C531.852 58.8333 532.31 58.3151 532.898 57.9453C533.487 57.5755 534.143 57.3906 534.867 57.3906C536.018 57.3906 536.906 57.7578 537.531 58.4922C538.161 59.2266 538.477 60.2656 538.477 61.6094V62.375H532.953C533.01 63.0729 533.242 63.625 533.648 64.0312C534.06 64.4375 534.576 64.6406 535.195 64.6406C536.065 64.6406 536.773 64.2891 537.32 63.5859L538.344 64.5625C538.005 65.0677 537.552 65.4609 536.984 65.7422C536.422 66.0182 535.789 66.1562 535.086 66.1562ZM534.859 58.9141C534.339 58.9141 533.917 59.0964 533.594 59.4609C533.276 59.8255 533.073 60.3333 532.984 60.9844H536.602V60.8438C536.56 60.2083 536.391 59.7292 536.094 59.4062C535.797 59.0781 535.385 58.9141 534.859 58.9141ZM541.977 66H540.078V54H541.977V66ZM546.07 66H544.172V54H546.07V66ZM547.789 61.6953C547.789 60.8672 547.953 60.1224 548.281 59.4609C548.609 58.7943 549.07 58.2839 549.664 57.9297C550.258 57.5703 550.94 57.3906 551.711 57.3906C552.852 57.3906 553.776 57.7578 554.484 58.4922C555.198 59.2266 555.583 60.2005 555.641 61.4141L555.648 61.8594C555.648 62.6927 555.487 63.4375 555.164 64.0938C554.846 64.75 554.388 65.2578 553.789 65.6172C553.195 65.9766 552.508 66.1562 551.727 66.1562C550.534 66.1562 549.578 65.7604 548.859 64.9688C548.146 64.1719 547.789 63.112 547.789 61.7891V61.6953ZM549.688 61.8594C549.688 62.7292 549.867 63.4115 550.227 63.9062C550.586 64.3958 551.086 64.6406 551.727 64.6406C552.367 64.6406 552.865 64.3906 553.219 63.8906C553.578 63.3906 553.758 62.6589 553.758 61.6953C553.758 60.8411 553.573 60.1641 553.203 59.6641C552.839 59.1641 552.341 58.9141 551.711 58.9141C551.091 58.9141 550.599 59.1615 550.234 59.6562C549.87 60.1458 549.688 60.8802 549.688 61.8594ZM557.062 58L556.094 57.3984C556.562 56.7161 556.805 55.9948 556.82 55.2344V54H558.484V55.0781C558.484 55.6146 558.346 56.1562 558.07 56.7031C557.799 57.2448 557.464 57.6771 557.062 58ZM559.672 58L558.703 57.3984C559.172 56.7161 559.414 55.9948 559.43 55.2344V54H561.094V55.0781C561.094 55.6146 560.956 56.1562 560.68 56.7031C560.409 57.2448 560.073 57.6771 559.672 58Z" fill="#5452F6"/>
<path d="M471.234 22.0703C471.234 21.5703 471.057 21.1849 470.703 20.9141C470.354 20.6432 469.721 20.3698 468.805 20.0938C467.888 19.8177 467.159 19.5104 466.617 19.1719C465.581 18.5208 465.062 17.6719 465.062 16.625C465.062 15.7083 465.435 14.9531 466.18 14.3594C466.93 13.7656 467.901 13.4688 469.094 13.4688C469.885 13.4688 470.591 13.6146 471.211 13.9062C471.831 14.1979 472.318 14.6146 472.672 15.1562C473.026 15.6927 473.203 16.2891 473.203 16.9453H471.234C471.234 16.3516 471.047 15.888 470.672 15.5547C470.302 15.2161 469.771 15.0469 469.078 15.0469C468.432 15.0469 467.93 15.1849 467.57 15.4609C467.216 15.737 467.039 16.1224 467.039 16.6172C467.039 17.0339 467.232 17.3828 467.617 17.6641C468.003 17.9401 468.638 18.2109 469.523 18.4766C470.409 18.737 471.12 19.0365 471.656 19.375C472.193 19.7083 472.586 20.0938 472.836 20.5312C473.086 20.9635 473.211 21.4714 473.211 22.0547C473.211 23.0026 472.846 23.7578 472.117 24.3203C471.393 24.8776 470.409 25.1562 469.164 25.1562C468.341 25.1562 467.583 25.0052 466.891 24.7031C466.203 24.3958 465.667 23.974 465.281 23.4375C464.901 22.901 464.711 22.276 464.711 21.5625H466.688C466.688 22.2083 466.901 22.7083 467.328 23.0625C467.755 23.4167 468.367 23.5938 469.164 23.5938C469.852 23.5938 470.367 23.4557 470.711 23.1797C471.06 22.8984 471.234 22.5286 471.234 22.0703ZM477.141 14.4922V16.5469H478.633V17.9531H477.141V22.6719C477.141 22.9948 477.203 23.2292 477.328 23.375C477.458 23.5156 477.688 23.5859 478.016 23.5859C478.234 23.5859 478.456 23.5599 478.68 23.5078V24.9766C478.247 25.0964 477.831 25.1562 477.43 25.1562C475.971 25.1562 475.242 24.3516 475.242 22.7422V17.9531H473.852V16.5469H475.242V14.4922H477.141ZM484.516 18.2812C484.266 18.2396 484.008 18.2188 483.742 18.2188C482.872 18.2188 482.286 18.5521 481.984 19.2188V25H480.086V16.5469H481.898L481.945 17.4922C482.404 16.7578 483.039 16.3906 483.852 16.3906C484.122 16.3906 484.346 16.4271 484.523 16.5L484.516 18.2812ZM487.734 25H485.836V16.5469H487.734V25ZM485.719 14.3516C485.719 14.0599 485.81 13.8177 485.992 13.625C486.18 13.4323 486.445 13.3359 486.789 13.3359C487.133 13.3359 487.398 13.4323 487.586 13.625C487.773 13.8177 487.867 14.0599 487.867 14.3516C487.867 14.638 487.773 14.8776 487.586 15.0703C487.398 15.2578 487.133 15.3516 486.789 15.3516C486.445 15.3516 486.18 15.2578 485.992 15.0703C485.81 14.8776 485.719 14.638 485.719 14.3516ZM491.57 16.5469L491.625 17.5234C492.25 16.7682 493.07 16.3906 494.086 16.3906C495.846 16.3906 496.742 17.3984 496.773 19.4141V25H494.875V19.5234C494.875 18.987 494.758 18.5911 494.523 18.3359C494.294 18.0755 493.917 17.9453 493.391 17.9453C492.625 17.9453 492.055 18.2917 491.68 18.9844V25H489.781V16.5469H491.57ZM498.383 20.7109C498.383 19.3984 498.69 18.3516 499.305 17.5703C499.924 16.7839 500.745 16.3906 501.766 16.3906C502.729 16.3906 503.487 16.7266 504.039 17.3984L504.125 16.5469H505.836V24.7422C505.836 25.8516 505.49 26.7266 504.797 27.3672C504.109 28.0078 503.18 28.3281 502.008 28.3281C501.388 28.3281 500.781 28.1979 500.188 27.9375C499.599 27.6823 499.151 27.3464 498.844 26.9297L499.742 25.7891C500.326 26.4818 501.044 26.8281 501.898 26.8281C502.529 26.8281 503.026 26.6562 503.391 26.3125C503.755 25.974 503.938 25.474 503.938 24.8125V24.2422C503.391 24.8516 502.661 25.1562 501.75 25.1562C500.76 25.1562 499.951 24.763 499.32 23.9766C498.695 23.1901 498.383 22.1016 498.383 20.7109ZM500.273 20.875C500.273 21.724 500.445 22.3932 500.789 22.8828C501.138 23.3672 501.62 23.6094 502.234 23.6094C503 23.6094 503.568 23.2812 503.938 22.625V18.9062C503.578 18.2656 503.016 17.9453 502.25 17.9453C501.625 17.9453 501.138 18.1927 500.789 18.6875C500.445 19.1823 500.273 19.9115 500.273 20.875ZM513.078 12.7969L514.047 13.3984C513.573 14.0911 513.328 14.8125 513.312 15.5625V16.75H511.648V15.6719C511.654 15.1719 511.789 14.651 512.055 14.1094C512.326 13.5625 512.667 13.125 513.078 12.7969ZM515.703 12.7969L516.672 13.3984C516.198 14.0911 515.953 14.8125 515.938 15.5625V16.75H514.273V15.6719C514.279 15.1719 514.414 14.651 514.68 14.1094C514.951 13.5625 515.292 13.125 515.703 12.7969ZM527.039 22.1875L528.789 13.625H530.75L528.125 25H526.234L524.07 16.6953L521.859 25H519.961L517.336 13.625H519.297L521.062 22.1719L523.234 13.625H524.891L527.039 22.1875ZM531.406 20.6953C531.406 19.8672 531.57 19.1224 531.898 18.4609C532.227 17.7943 532.688 17.2839 533.281 16.9297C533.875 16.5703 534.557 16.3906 535.328 16.3906C536.469 16.3906 537.393 16.7578 538.102 17.4922C538.815 18.2266 539.201 19.2005 539.258 20.4141L539.266 20.8594C539.266 21.6927 539.104 22.4375 538.781 23.0938C538.464 23.75 538.005 24.2578 537.406 24.6172C536.812 24.9766 536.125 25.1562 535.344 25.1562C534.151 25.1562 533.195 24.7604 532.477 23.9688C531.763 23.1719 531.406 22.112 531.406 20.7891V20.6953ZM533.305 20.8594C533.305 21.7292 533.484 22.4115 533.844 22.9062C534.203 23.3958 534.703 23.6406 535.344 23.6406C535.984 23.6406 536.482 23.3906 536.836 22.8906C537.195 22.3906 537.375 21.6589 537.375 20.6953C537.375 19.8411 537.19 19.1641 536.82 18.6641C536.456 18.1641 535.958 17.9141 535.328 17.9141C534.708 17.9141 534.216 18.1615 533.852 18.6562C533.487 19.1458 533.305 19.8802 533.305 20.8594ZM545.297 18.2812C545.047 18.2396 544.789 18.2188 544.523 18.2188C543.654 18.2188 543.068 18.5521 542.766 19.2188V25H540.867V16.5469H542.68L542.727 17.4922C543.185 16.7578 543.82 16.3906 544.633 16.3906C544.904 16.3906 545.128 16.4271 545.305 16.5L545.297 18.2812ZM548.516 25H546.617V13H548.516V25ZM550.234 20.7109C550.234 19.4089 550.536 18.3646 551.141 17.5781C551.745 16.7865 552.555 16.3906 553.57 16.3906C554.466 16.3906 555.19 16.7031 555.742 17.3281V13H557.641V25H555.922L555.828 24.125C555.26 24.8125 554.503 25.1562 553.555 25.1562C552.565 25.1562 551.763 24.7578 551.148 23.9609C550.539 23.1641 550.234 22.0807 550.234 20.7109ZM552.133 20.875C552.133 21.7344 552.297 22.4062 552.625 22.8906C552.958 23.3698 553.43 23.6094 554.039 23.6094C554.815 23.6094 555.383 23.263 555.742 22.5703V18.9609C555.393 18.2839 554.831 17.9453 554.055 17.9453C553.44 17.9453 552.966 18.1901 552.633 18.6797C552.299 19.1641 552.133 19.8958 552.133 20.875ZM560.117 17L559.148 16.3984C559.617 15.7161 559.859 14.9948 559.875 14.2344V13H561.539V14.0781C561.539 14.6146 561.401 15.1562 561.125 15.7031C560.854 16.2448 560.518 16.6771 560.117 17ZM562.727 17L561.758 16.3984C562.227 15.7161 562.469 14.9948 562.484 14.2344V13H564.148V14.0781C564.148 14.6146 564.01 15.1562 563.734 15.7031C563.464 16.2448 563.128 16.6771 562.727 17Z" fill="#FF5A43"/>
<path d="M400.5 8C400.5 3.85786 403.858 0.5 408 0.5H621C625.142 0.5 628.5 3.85787 628.5 8V119.5H400.5V8Z" stroke="#5452F6"/>
</g>
<g filter="url(#filter3_d)">
<path d="M400 119H629V135C629 139.418 625.418 143 621 143H408C403.582 143 400 139.418 400 135V119Z" fill="#EEEEFF"/>
<path d="M400.5 119.5H628.5V135C628.5 139.142 625.142 142.5 621 142.5H408C403.858 142.5 400.5 139.142 400.5 135V119.5Z" stroke="#5452F6"/>
</g>
<defs>
<filter id="filter0_d" x="0" y="0" width="233" height="124" filterUnits="userSpaceOnUse" color-interpolation-filters="sRGB">
<feFlood flood-opacity="0" result="BackgroundImageFix"/>
<feColorMatrix in="SourceAlpha" type="matrix" values="0 0 0 0 0 0 0 0 0 0 0 0 0 0 0 0 0 0 127 0"/>
<feOffset dx="4" dy="4"/>
<feColorMatrix type="matrix" values="0 0 0 0 0.674908 0 0 0 0 0.662083 0 0 0 0 0.945833 0 0 0 1 0"/>
<feBlend mode="normal" in2="BackgroundImageFix" result="effect1_dropShadow"/>
<feBlend mode="normal" in="SourceGraphic" in2="effect1_dropShadow" result="shape"/>
</filter>
<filter id="filter1_d" x="0" y="119" width="233" height="28" filterUnits="userSpaceOnUse" color-interpolation-filters="sRGB">
<feFlood flood-opacity="0" result="BackgroundImageFix"/>
<feColorMatrix in="SourceAlpha" type="matrix" values="0 0 0 0 0 0 0 0 0 0 0 0 0 0 0 0 0 0 127 0"/>
<feOffset dx="4" dy="4"/>
<feColorMatrix type="matrix" values="0 0 0 0 0.674908 0 0 0 0 0.662083 0 0 0 0 0.945833 0 0 0 1 0"/>
<feBlend mode="normal" in2="BackgroundImageFix" result="effect1_dropShadow"/>
<feBlend mode="normal" in="SourceGraphic" in2="effect1_dropShadow" result="shape"/>
</filter>
<filter id="filter2_d" x="400" y="0" width="233" height="124" filterUnits="userSpaceOnUse" color-interpolation-filters="sRGB">
<feFlood flood-opacity="0" result="BackgroundImageFix"/>
<feColorMatrix in="SourceAlpha" type="matrix" values="0 0 0 0 0 0 0 0 0 0 0 0 0 0 0 0 0 0 127 0"/>
<feOffset dx="4" dy="4"/>
<feColorMatrix type="matrix" values="0 0 0 0 0.674908 0 0 0 0 0.662083 0 0 0 0 0.945833 0 0 0 1 0"/>
<feBlend mode="normal" in2="BackgroundImageFix" result="effect1_dropShadow"/>
<feBlend mode="normal" in="SourceGraphic" in2="effect1_dropShadow" result="shape"/>
</filter>
<filter id="filter3_d" x="400" y="119" width="233" height="28" filterUnits="userSpaceOnUse" color-interpolation-filters="sRGB">
<feFlood flood-opacity="0" result="BackgroundImageFix"/>
<feColorMatrix in="SourceAlpha" type="matrix" values="0 0 0 0 0 0 0 0 0 0 0 0 0 0 0 0 0 0 127 0"/>
<feOffset dx="4" dy="4"/>
<feColorMatrix type="matrix" values="0 0 0 0 0.674908 0 0 0 0 0.662083 0 0 0 0 0.945833 0 0 0 1 0"/>
<feBlend mode="normal" in2="BackgroundImageFix" result="effect1_dropShadow"/>
<feBlend mode="normal" in="SourceGraphic" in2="effect1_dropShadow" result="shape"/>
</filter>
</defs>
</svg>
