<svg width="1033" height="532" viewBox="0 0 1033 532" fill="none" xmlns="http://www.w3.org/2000/svg">
<line x1="255" y1="73.5" x2="389" y2="73.5" stroke="#65BF73" stroke-width="2"/>
<path d="M379 64L389.5 73.5L379 82.5" stroke="#65BF73" stroke-width="2" stroke-linecap="round" stroke-linejoin="round"/>
<circle cx="250.5" cy="74" r="5.5" stroke="#65BF73" stroke-width="2"/>
<path d="M279.586 54.7734V59H277.609V47.625H281.961C283.232 47.625 284.24 47.9557 284.984 48.6172C285.734 49.2786 286.109 50.1536 286.109 51.2422C286.109 52.3568 285.742 53.224 285.008 53.8438C284.279 54.4635 283.255 54.7734 281.938 54.7734H279.586ZM279.586 53.1875H281.961C282.664 53.1875 283.201 53.0234 283.57 52.6953C283.94 52.362 284.125 51.8828 284.125 51.2578C284.125 50.6432 283.938 50.1536 283.562 49.7891C283.188 49.4193 282.672 49.2292 282.016 49.2188H279.586V53.1875ZM296.164 47.625V55.2266C296.164 56.4349 295.776 57.3932 295 58.1016C294.229 58.8047 293.201 59.1562 291.914 59.1562C290.612 59.1562 289.578 58.8099 288.812 58.1172C288.047 57.4193 287.664 56.4531 287.664 55.2188V47.625H289.633V55.2344C289.633 55.9948 289.826 56.5755 290.211 56.9766C290.596 57.3776 291.164 57.5781 291.914 57.5781C293.435 57.5781 294.195 56.776 294.195 55.1719V47.625H296.164ZM304.227 56.0703C304.227 55.5703 304.049 55.1849 303.695 54.9141C303.346 54.6432 302.714 54.3698 301.797 54.0938C300.88 53.8177 300.151 53.5104 299.609 53.1719C298.573 52.5208 298.055 51.6719 298.055 50.625C298.055 49.7083 298.427 48.9531 299.172 48.3594C299.922 47.7656 300.893 47.4688 302.086 47.4688C302.878 47.4688 303.583 47.6146 304.203 47.9062C304.823 48.1979 305.31 48.6146 305.664 49.1562C306.018 49.6927 306.195 50.2891 306.195 50.9453H304.227C304.227 50.3516 304.039 49.888 303.664 49.5547C303.294 49.2161 302.763 49.0469 302.07 49.0469C301.424 49.0469 300.922 49.1849 300.562 49.4609C300.208 49.737 300.031 50.1224 300.031 50.6172C300.031 51.0339 300.224 51.3828 300.609 51.6641C300.995 51.9401 301.63 52.2109 302.516 52.4766C303.401 52.737 304.112 53.0365 304.648 53.375C305.185 53.7083 305.578 54.0938 305.828 54.5312C306.078 54.9635 306.203 55.4714 306.203 56.0547C306.203 57.0026 305.839 57.7578 305.109 58.3203C304.385 58.8776 303.401 59.1562 302.156 59.1562C301.333 59.1562 300.576 59.0052 299.883 58.7031C299.195 58.3958 298.659 57.974 298.273 57.4375C297.893 56.901 297.703 56.276 297.703 55.5625H299.68C299.68 56.2083 299.893 56.7083 300.32 57.0625C300.747 57.4167 301.359 57.5938 302.156 57.5938C302.844 57.5938 303.359 57.4557 303.703 57.1797C304.052 56.8984 304.227 56.5286 304.227 56.0703ZM316.969 59H315V53.9453H309.914V59H307.938V47.625H309.914V52.3594H315V47.625H316.969V59ZM325.133 59H323.234V50.5469H325.133V59ZM323.117 48.3516C323.117 48.0599 323.208 47.8177 323.391 47.625C323.578 47.4323 323.844 47.3359 324.188 47.3359C324.531 47.3359 324.797 47.4323 324.984 47.625C325.172 47.8177 325.266 48.0599 325.266 48.3516C325.266 48.638 325.172 48.8776 324.984 49.0703C324.797 49.2578 324.531 49.3516 324.188 49.3516C323.844 49.3516 323.578 49.2578 323.391 49.0703C323.208 48.8776 323.117 48.638 323.117 48.3516ZM328.969 50.5469L329.023 51.5234C329.648 50.7682 330.469 50.3906 331.484 50.3906C333.245 50.3906 334.141 51.3984 334.172 53.4141V59H332.273V53.5234C332.273 52.987 332.156 52.5911 331.922 52.3359C331.693 52.0755 331.315 51.9453 330.789 51.9453C330.023 51.9453 329.453 52.2917 329.078 52.9844V59H327.18V50.5469H328.969ZM338.492 48.4922V50.5469H339.984V51.9531H338.492V56.6719C338.492 56.9948 338.555 57.2292 338.68 57.375C338.81 57.5156 339.039 57.5859 339.367 57.5859C339.586 57.5859 339.807 57.5599 340.031 57.5078V58.9766C339.599 59.0964 339.182 59.1562 338.781 59.1562C337.323 59.1562 336.594 58.3516 336.594 56.7422V51.9531H335.203V50.5469H336.594V48.4922H338.492ZM352.953 59H345.305V57.6953L349.094 53.5625C349.641 52.9531 350.029 52.4453 350.258 52.0391C350.492 51.6276 350.609 51.2161 350.609 50.8047C350.609 50.263 350.456 49.8255 350.148 49.4922C349.846 49.1589 349.438 48.9922 348.922 48.9922C348.307 48.9922 347.831 49.1797 347.492 49.5547C347.154 49.9297 346.984 50.4427 346.984 51.0938H345.086C345.086 50.401 345.242 49.7786 345.555 49.2266C345.872 48.6693 346.323 48.237 346.906 47.9297C347.495 47.6224 348.172 47.4688 348.938 47.4688C350.042 47.4688 350.911 47.7474 351.547 48.3047C352.188 48.8568 352.508 49.6224 352.508 50.6016C352.508 51.1693 352.346 51.7656 352.023 52.3906C351.706 53.0104 351.182 53.7161 350.453 54.5078L347.672 57.4844H352.953V59Z" fill="#65BF73"/>
<line x1="657" y1="73.5" x2="791" y2="73.5" stroke="#65BF73" stroke-width="2"/>
<path d="M781 64L791.5 73.5L781 82.5" stroke="#65BF73" stroke-width="2" stroke-linecap="round" stroke-linejoin="round"/>
<circle cx="652.5" cy="74" r="5.5" stroke="#65BF73" stroke-width="2"/>
<path d="M681.586 54.7734V59H679.609V47.625H683.961C685.232 47.625 686.24 47.9557 686.984 48.6172C687.734 49.2786 688.109 50.1536 688.109 51.2422C688.109 52.3568 687.742 53.224 687.008 53.8438C686.279 54.4635 685.255 54.7734 683.938 54.7734H681.586ZM681.586 53.1875H683.961C684.664 53.1875 685.201 53.0234 685.57 52.6953C685.94 52.362 686.125 51.8828 686.125 51.2578C686.125 50.6432 685.938 50.1536 685.562 49.7891C685.188 49.4193 684.672 49.2292 684.016 49.2188H681.586V53.1875ZM698.164 47.625V55.2266C698.164 56.4349 697.776 57.3932 697 58.1016C696.229 58.8047 695.201 59.1562 693.914 59.1562C692.612 59.1562 691.578 58.8099 690.812 58.1172C690.047 57.4193 689.664 56.4531 689.664 55.2188V47.625H691.633V55.2344C691.633 55.9948 691.826 56.5755 692.211 56.9766C692.596 57.3776 693.164 57.5781 693.914 57.5781C695.435 57.5781 696.195 56.776 696.195 55.1719V47.625H698.164ZM706.227 56.0703C706.227 55.5703 706.049 55.1849 705.695 54.9141C705.346 54.6432 704.714 54.3698 703.797 54.0938C702.88 53.8177 702.151 53.5104 701.609 53.1719C700.573 52.5208 700.055 51.6719 700.055 50.625C700.055 49.7083 700.427 48.9531 701.172 48.3594C701.922 47.7656 702.893 47.4688 704.086 47.4688C704.878 47.4688 705.583 47.6146 706.203 47.9062C706.823 48.1979 707.31 48.6146 707.664 49.1562C708.018 49.6927 708.195 50.2891 708.195 50.9453H706.227C706.227 50.3516 706.039 49.888 705.664 49.5547C705.294 49.2161 704.763 49.0469 704.07 49.0469C703.424 49.0469 702.922 49.1849 702.562 49.4609C702.208 49.737 702.031 50.1224 702.031 50.6172C702.031 51.0339 702.224 51.3828 702.609 51.6641C702.995 51.9401 703.63 52.2109 704.516 52.4766C705.401 52.737 706.112 53.0365 706.648 53.375C707.185 53.7083 707.578 54.0938 707.828 54.5312C708.078 54.9635 708.203 55.4714 708.203 56.0547C708.203 57.0026 707.839 57.7578 707.109 58.3203C706.385 58.8776 705.401 59.1562 704.156 59.1562C703.333 59.1562 702.576 59.0052 701.883 58.7031C701.195 58.3958 700.659 57.974 700.273 57.4375C699.893 56.901 699.703 56.276 699.703 55.5625H701.68C701.68 56.2083 701.893 56.7083 702.32 57.0625C702.747 57.4167 703.359 57.5938 704.156 57.5938C704.844 57.5938 705.359 57.4557 705.703 57.1797C706.052 56.8984 706.227 56.5286 706.227 56.0703ZM718.969 59H717V53.9453H711.914V59H709.938V47.625H711.914V52.3594H717V47.625H718.969V59ZM727.133 59H725.234V50.5469H727.133V59ZM725.117 48.3516C725.117 48.0599 725.208 47.8177 725.391 47.625C725.578 47.4323 725.844 47.3359 726.188 47.3359C726.531 47.3359 726.797 47.4323 726.984 47.625C727.172 47.8177 727.266 48.0599 727.266 48.3516C727.266 48.638 727.172 48.8776 726.984 49.0703C726.797 49.2578 726.531 49.3516 726.188 49.3516C725.844 49.3516 725.578 49.2578 725.391 49.0703C725.208 48.8776 725.117 48.638 725.117 48.3516ZM730.969 50.5469L731.023 51.5234C731.648 50.7682 732.469 50.3906 733.484 50.3906C735.245 50.3906 736.141 51.3984 736.172 53.4141V59H734.273V53.5234C734.273 52.987 734.156 52.5911 733.922 52.3359C733.693 52.0755 733.315 51.9453 732.789 51.9453C732.023 51.9453 731.453 52.2917 731.078 52.9844V59H729.18V50.5469H730.969ZM740.492 48.4922V50.5469H741.984V51.9531H740.492V56.6719C740.492 56.9948 740.555 57.2292 740.68 57.375C740.81 57.5156 741.039 57.5859 741.367 57.5859C741.586 57.5859 741.807 57.5599 742.031 57.5078V58.9766C741.599 59.0964 741.182 59.1562 740.781 59.1562C739.323 59.1562 738.594 58.3516 738.594 56.7422V51.9531H737.203V50.5469H738.594V48.4922H740.492ZM749.5 52.4453H750.656C751.24 52.4401 751.701 52.2891 752.039 51.9922C752.383 51.6953 752.555 51.2656 752.555 50.7031C752.555 50.1615 752.411 49.7422 752.125 49.4453C751.844 49.1432 751.411 48.9922 750.828 48.9922C750.318 48.9922 749.898 49.1406 749.57 49.4375C749.242 49.7292 749.078 50.112 749.078 50.5859H747.18C747.18 50.0026 747.333 49.4714 747.641 48.9922C747.953 48.513 748.385 48.1406 748.938 47.875C749.495 47.6042 750.117 47.4688 750.805 47.4688C751.94 47.4688 752.831 47.7552 753.477 48.3281C754.128 48.8958 754.453 49.6875 754.453 50.7031C754.453 51.2135 754.289 51.6953 753.961 52.1484C753.638 52.5964 753.219 52.9349 752.703 53.1641C753.328 53.3776 753.802 53.7135 754.125 54.1719C754.453 54.6302 754.617 55.1771 754.617 55.8125C754.617 56.8333 754.266 57.6458 753.562 58.25C752.865 58.8542 751.945 59.1562 750.805 59.1562C749.711 59.1562 748.815 58.8646 748.117 58.2812C747.419 57.6979 747.07 56.9219 747.07 55.9531H748.969C748.969 56.4531 749.135 56.8594 749.469 57.1719C749.807 57.4844 750.26 57.6406 750.828 57.6406C751.417 57.6406 751.88 57.4844 752.219 57.1719C752.557 56.8594 752.727 56.4062 752.727 55.8125C752.727 55.2135 752.549 54.7526 752.195 54.4297C751.841 54.1068 751.315 53.9453 750.617 53.9453H749.5V52.4453Z" fill="#65BF73"/>
<line x1="657" y1="218.5" x2="791" y2="218.5" stroke="#65BF73" stroke-width="2"/>
<path d="M781 209L791.5 218.5L781 227.5" stroke="#65BF73" stroke-width="2" stroke-linecap="round" stroke-linejoin="round"/>
<circle cx="652.5" cy="219" r="5.5" stroke="#65BF73" stroke-width="2"/>
<path d="M681.586 199.773V204H679.609V192.625H683.961C685.232 192.625 686.24 192.956 686.984 193.617C687.734 194.279 688.109 195.154 688.109 196.242C688.109 197.357 687.742 198.224 687.008 198.844C686.279 199.464 685.255 199.773 683.938 199.773H681.586ZM681.586 198.188H683.961C684.664 198.188 685.201 198.023 685.57 197.695C685.94 197.362 686.125 196.883 686.125 196.258C686.125 195.643 685.938 195.154 685.562 194.789C685.188 194.419 684.672 194.229 684.016 194.219H681.586V198.188ZM698.164 192.625V200.227C698.164 201.435 697.776 202.393 697 203.102C696.229 203.805 695.201 204.156 693.914 204.156C692.612 204.156 691.578 203.81 690.812 203.117C690.047 202.419 689.664 201.453 689.664 200.219V192.625H691.633V200.234C691.633 200.995 691.826 201.576 692.211 201.977C692.596 202.378 693.164 202.578 693.914 202.578C695.435 202.578 696.195 201.776 696.195 200.172V192.625H698.164ZM706.227 201.07C706.227 200.57 706.049 200.185 705.695 199.914C705.346 199.643 704.714 199.37 703.797 199.094C702.88 198.818 702.151 198.51 701.609 198.172C700.573 197.521 700.055 196.672 700.055 195.625C700.055 194.708 700.427 193.953 701.172 193.359C701.922 192.766 702.893 192.469 704.086 192.469C704.878 192.469 705.583 192.615 706.203 192.906C706.823 193.198 707.31 193.615 707.664 194.156C708.018 194.693 708.195 195.289 708.195 195.945H706.227C706.227 195.352 706.039 194.888 705.664 194.555C705.294 194.216 704.763 194.047 704.07 194.047C703.424 194.047 702.922 194.185 702.562 194.461C702.208 194.737 702.031 195.122 702.031 195.617C702.031 196.034 702.224 196.383 702.609 196.664C702.995 196.94 703.63 197.211 704.516 197.477C705.401 197.737 706.112 198.036 706.648 198.375C707.185 198.708 707.578 199.094 707.828 199.531C708.078 199.964 708.203 200.471 708.203 201.055C708.203 202.003 707.839 202.758 707.109 203.32C706.385 203.878 705.401 204.156 704.156 204.156C703.333 204.156 702.576 204.005 701.883 203.703C701.195 203.396 700.659 202.974 700.273 202.438C699.893 201.901 699.703 201.276 699.703 200.562H701.68C701.68 201.208 701.893 201.708 702.32 202.062C702.747 202.417 703.359 202.594 704.156 202.594C704.844 202.594 705.359 202.456 705.703 202.18C706.052 201.898 706.227 201.529 706.227 201.07ZM718.969 204H717V198.945H711.914V204H709.938V192.625H711.914V197.359H717V192.625H718.969V204ZM727.133 204H725.234V195.547H727.133V204ZM725.117 193.352C725.117 193.06 725.208 192.818 725.391 192.625C725.578 192.432 725.844 192.336 726.188 192.336C726.531 192.336 726.797 192.432 726.984 192.625C727.172 192.818 727.266 193.06 727.266 193.352C727.266 193.638 727.172 193.878 726.984 194.07C726.797 194.258 726.531 194.352 726.188 194.352C725.844 194.352 725.578 194.258 725.391 194.07C725.208 193.878 725.117 193.638 725.117 193.352ZM730.969 195.547L731.023 196.523C731.648 195.768 732.469 195.391 733.484 195.391C735.245 195.391 736.141 196.398 736.172 198.414V204H734.273V198.523C734.273 197.987 734.156 197.591 733.922 197.336C733.693 197.076 733.315 196.945 732.789 196.945C732.023 196.945 731.453 197.292 731.078 197.984V204H729.18V195.547H730.969ZM740.492 193.492V195.547H741.984V196.953H740.492V201.672C740.492 201.995 740.555 202.229 740.68 202.375C740.81 202.516 741.039 202.586 741.367 202.586C741.586 202.586 741.807 202.56 742.031 202.508V203.977C741.599 204.096 741.182 204.156 740.781 204.156C739.323 204.156 738.594 203.352 738.594 201.742V196.953H737.203V195.547H738.594V193.492H740.492ZM753.211 192.57V194.141H752.977C751.914 194.156 751.065 194.448 750.43 195.016C749.794 195.583 749.417 196.388 749.297 197.43C749.906 196.789 750.685 196.469 751.633 196.469C752.638 196.469 753.43 196.823 754.008 197.531C754.591 198.24 754.883 199.154 754.883 200.273C754.883 201.43 754.542 202.367 753.859 203.086C753.182 203.799 752.292 204.156 751.188 204.156C750.052 204.156 749.13 203.737 748.422 202.898C747.719 202.06 747.367 200.961 747.367 199.602V198.953C747.367 196.958 747.852 195.396 748.82 194.266C749.794 193.135 751.193 192.57 753.016 192.57H753.211ZM751.172 198C750.755 198 750.372 198.117 750.023 198.352C749.68 198.586 749.427 198.898 749.266 199.289V199.867C749.266 200.711 749.443 201.383 749.797 201.883C750.151 202.378 750.609 202.625 751.172 202.625C751.734 202.625 752.18 202.414 752.508 201.992C752.836 201.57 753 201.016 753 200.328C753 199.641 752.833 199.081 752.5 198.648C752.167 198.216 751.724 198 751.172 198Z" fill="#65BF73"/>
<line x1="254" y1="217.5" x2="388" y2="217.5" stroke="#65BF73" stroke-width="2"/>
<path d="M378 208L388.5 217.5L378 226.5" stroke="#65BF73" stroke-width="2" stroke-linecap="round" stroke-linejoin="round"/>
<circle cx="249.5" cy="218" r="5.5" stroke="#65BF73" stroke-width="2"/>
<path d="M305.742 200.352H301.336L300.414 203H298.359L302.656 191.625H304.43L308.734 203H306.672L305.742 200.352ZM301.891 198.758H305.188L303.539 194.039L301.891 198.758ZM310.031 203V191.625H313.391C314.396 191.625 315.286 191.849 316.062 192.297C316.844 192.745 317.448 193.38 317.875 194.203C318.302 195.026 318.516 195.969 318.516 197.031V197.602C318.516 198.68 318.299 199.628 317.867 200.445C317.44 201.263 316.828 201.893 316.031 202.336C315.24 202.779 314.331 203 313.305 203H310.031ZM312.008 193.219V201.422H313.297C314.333 201.422 315.128 201.099 315.68 200.453C316.237 199.802 316.521 198.87 316.531 197.656V197.023C316.531 195.789 316.263 194.846 315.727 194.195C315.19 193.544 314.411 193.219 313.391 193.219H312.008ZM320.484 203V191.625H323.844C324.849 191.625 325.74 191.849 326.516 192.297C327.297 192.745 327.901 193.38 328.328 194.203C328.755 195.026 328.969 195.969 328.969 197.031V197.602C328.969 198.68 328.753 199.628 328.32 200.445C327.893 201.263 327.281 201.893 326.484 202.336C325.693 202.779 324.784 203 323.758 203H320.484ZM322.461 193.219V201.422H323.75C324.786 201.422 325.581 201.099 326.133 200.453C326.69 199.802 326.974 198.87 326.984 197.656V197.023C326.984 195.789 326.716 194.846 326.18 194.195C325.643 193.544 324.865 193.219 323.844 193.219H322.461Z" fill="#65BF73"/>
<line x1="657" y1="362.5" x2="791" y2="362.5" stroke="#65BF73" stroke-width="2"/>
<path d="M781 353L791.5 362.5L781 371.5" stroke="#65BF73" stroke-width="2" stroke-linecap="round" stroke-linejoin="round"/>
<circle cx="652.5" cy="363" r="5.5" stroke="#65BF73" stroke-width="2"/>
<path d="M679.594 343.773V348H677.617V336.625H681.969C683.24 336.625 684.247 336.956 684.992 337.617C685.742 338.279 686.117 339.154 686.117 340.242C686.117 341.357 685.75 342.224 685.016 342.844C684.286 343.464 683.263 343.773 681.945 343.773H679.594ZM679.594 342.188H681.969C682.672 342.188 683.208 342.023 683.578 341.695C683.948 341.362 684.133 340.883 684.133 340.258C684.133 339.643 683.945 339.154 683.57 338.789C683.195 338.419 682.68 338.229 682.023 338.219H679.594V342.188ZM696.172 336.625V344.227C696.172 345.435 695.784 346.393 695.008 347.102C694.237 347.805 693.208 348.156 691.922 348.156C690.62 348.156 689.586 347.81 688.82 347.117C688.055 346.419 687.672 345.453 687.672 344.219V336.625H689.641V344.234C689.641 344.995 689.833 345.576 690.219 345.977C690.604 346.378 691.172 346.578 691.922 346.578C693.443 346.578 694.203 345.776 694.203 344.172V336.625H696.172ZM704.234 345.07C704.234 344.57 704.057 344.185 703.703 343.914C703.354 343.643 702.721 343.37 701.805 343.094C700.888 342.818 700.159 342.51 699.617 342.172C698.581 341.521 698.062 340.672 698.062 339.625C698.062 338.708 698.435 337.953 699.18 337.359C699.93 336.766 700.901 336.469 702.094 336.469C702.885 336.469 703.591 336.615 704.211 336.906C704.831 337.198 705.318 337.615 705.672 338.156C706.026 338.693 706.203 339.289 706.203 339.945H704.234C704.234 339.352 704.047 338.888 703.672 338.555C703.302 338.216 702.771 338.047 702.078 338.047C701.432 338.047 700.93 338.185 700.57 338.461C700.216 338.737 700.039 339.122 700.039 339.617C700.039 340.034 700.232 340.383 700.617 340.664C701.003 340.94 701.638 341.211 702.523 341.477C703.409 341.737 704.12 342.036 704.656 342.375C705.193 342.708 705.586 343.094 705.836 343.531C706.086 343.964 706.211 344.471 706.211 345.055C706.211 346.003 705.846 346.758 705.117 347.32C704.393 347.878 703.409 348.156 702.164 348.156C701.341 348.156 700.583 348.005 699.891 347.703C699.203 347.396 698.667 346.974 698.281 346.438C697.901 345.901 697.711 345.276 697.711 344.562H699.688C699.688 345.208 699.901 345.708 700.328 346.062C700.755 346.417 701.367 346.594 702.164 346.594C702.852 346.594 703.367 346.456 703.711 346.18C704.06 345.898 704.234 345.529 704.234 345.07ZM716.977 348H715.008V342.945H709.922V348H707.945V336.625H709.922V341.359H715.008V336.625H716.977V348ZM725.141 348H723.242V339.547H725.141V348ZM723.125 337.352C723.125 337.06 723.216 336.818 723.398 336.625C723.586 336.432 723.852 336.336 724.195 336.336C724.539 336.336 724.805 336.432 724.992 336.625C725.18 336.818 725.273 337.06 725.273 337.352C725.273 337.638 725.18 337.878 724.992 338.07C724.805 338.258 724.539 338.352 724.195 338.352C723.852 338.352 723.586 338.258 723.398 338.07C723.216 337.878 723.125 337.638 723.125 337.352ZM728.977 339.547L729.031 340.523C729.656 339.768 730.477 339.391 731.492 339.391C733.253 339.391 734.148 340.398 734.18 342.414V348H732.281V342.523C732.281 341.987 732.164 341.591 731.93 341.336C731.701 341.076 731.323 340.945 730.797 340.945C730.031 340.945 729.461 341.292 729.086 341.984V348H727.188V339.547H728.977ZM738.5 337.492V339.547H739.992V340.953H738.5V345.672C738.5 345.995 738.562 346.229 738.688 346.375C738.818 346.516 739.047 346.586 739.375 346.586C739.594 346.586 739.815 346.56 740.039 346.508V347.977C739.607 348.096 739.19 348.156 738.789 348.156C737.331 348.156 736.602 347.352 736.602 345.742V340.953H735.211V339.547H736.602V337.492H738.5ZM756.867 337.68L752.32 348H750.328L754.867 338.148H748.984V336.625H756.867V337.68Z" fill="#65BF73"/>
<line x1="254" y1="361.5" x2="388" y2="361.5" stroke="#65BF73" stroke-width="2"/>
<path d="M378 352L388.5 361.5L378 370.5" stroke="#65BF73" stroke-width="2" stroke-linecap="round" stroke-linejoin="round"/>
<circle cx="249.5" cy="362" r="5.5" stroke="#65BF73" stroke-width="2"/>
<path d="M301.164 335.625L304.445 344.344L307.719 335.625H310.273V347H308.305V343.25L308.5 338.234L305.141 347H303.727L300.375 338.242L300.57 343.25V347H298.602V335.625H301.164ZM320.938 335.625V343.227C320.938 344.435 320.549 345.393 319.773 346.102C319.003 346.805 317.974 347.156 316.688 347.156C315.385 347.156 314.352 346.81 313.586 346.117C312.82 345.419 312.438 344.453 312.438 343.219V335.625H314.406V343.234C314.406 343.995 314.599 344.576 314.984 344.977C315.37 345.378 315.938 345.578 316.688 345.578C318.208 345.578 318.969 344.776 318.969 343.172V335.625H320.938ZM325.031 345.422H330.195V347H323.055V335.625H325.031V345.422Z" fill="#65BF73"/>
<line x1="254" y1="505.5" x2="388" y2="505.5" stroke="#65BF73" stroke-width="2"/>
<path d="M378 496L388.5 505.5L378 514.5" stroke="#65BF73" stroke-width="2" stroke-linecap="round" stroke-linejoin="round"/>
<circle cx="249.5" cy="506" r="5.5" stroke="#65BF73" stroke-width="2"/>
<path d="M305.742 488.352H301.336L300.414 491H298.359L302.656 479.625H304.43L308.734 491H306.672L305.742 488.352ZM301.891 486.758H305.188L303.539 482.039L301.891 486.758ZM310.031 491V479.625H313.391C314.396 479.625 315.286 479.849 316.062 480.297C316.844 480.745 317.448 481.38 317.875 482.203C318.302 483.026 318.516 483.969 318.516 485.031V485.602C318.516 486.68 318.299 487.628 317.867 488.445C317.44 489.263 316.828 489.893 316.031 490.336C315.24 490.779 314.331 491 313.305 491H310.031ZM312.008 481.219V489.422H313.297C314.333 489.422 315.128 489.099 315.68 488.453C316.237 487.802 316.521 486.87 316.531 485.656V485.023C316.531 483.789 316.263 482.846 315.727 482.195C315.19 481.544 314.411 481.219 313.391 481.219H312.008ZM320.484 491V479.625H323.844C324.849 479.625 325.74 479.849 326.516 480.297C327.297 480.745 327.901 481.38 328.328 482.203C328.755 483.026 328.969 483.969 328.969 485.031V485.602C328.969 486.68 328.753 487.628 328.32 488.445C327.893 489.263 327.281 489.893 326.484 490.336C325.693 490.779 324.784 491 323.758 491H320.484ZM322.461 481.219V489.422H323.75C324.786 489.422 325.581 489.099 326.133 488.453C326.69 487.802 326.974 486.87 326.984 485.656V485.023C326.984 483.789 326.716 482.846 326.18 482.195C325.643 481.544 324.865 481.219 323.844 481.219H322.461Z" fill="#65BF73"/>
<g filter="url(#filter0_d)">
<path d="M400 185C400 180.582 403.582 177 408 177H621C625.418 177 629 180.582 629 185V217H400V185Z" fill="white"/>
<path d="M408 177.5H621C625.142 177.5 628.5 180.858 628.5 185V216.5H400.5V185C400.5 180.858 403.858 177.5 408 177.5Z" stroke="#5452F6"/>
</g>
<g filter="url(#filter1_d)">
<path d="M400 216H629V232C629 236.418 625.418 240 621 240H408C403.582 240 400 236.418 400 232V216Z" fill="#EEEEFF"/>
<path d="M400.5 216.5H628.5V232C628.5 236.142 625.142 239.5 621 239.5H408C403.858 239.5 400.5 236.142 400.5 232V216.5Z" stroke="#5452F6"/>
</g>
<path d="M501.789 202H499.891V193.547H501.789V202ZM499.773 191.352C499.773 191.06 499.865 190.818 500.047 190.625C500.234 190.432 500.5 190.336 500.844 190.336C501.188 190.336 501.453 190.432 501.641 190.625C501.828 190.818 501.922 191.06 501.922 191.352C501.922 191.638 501.828 191.878 501.641 192.07C501.453 192.258 501.188 192.352 500.844 192.352C500.5 192.352 500.234 192.258 500.047 192.07C499.865 191.878 499.773 191.638 499.773 191.352ZM505.625 193.547L505.68 194.523C506.305 193.768 507.125 193.391 508.141 193.391C509.901 193.391 510.797 194.398 510.828 196.414V202H508.93V196.523C508.93 195.987 508.812 195.591 508.578 195.336C508.349 195.076 507.971 194.945 507.445 194.945C506.68 194.945 506.109 195.292 505.734 195.984V202H503.836V193.547H505.625ZM515.148 191.492V193.547H516.641V194.953H515.148V199.672C515.148 199.995 515.211 200.229 515.336 200.375C515.466 200.516 515.695 200.586 516.023 200.586C516.242 200.586 516.464 200.56 516.688 200.508V201.977C516.255 202.096 515.839 202.156 515.438 202.156C513.979 202.156 513.25 201.352 513.25 199.742V194.953H511.859V193.547H513.25V191.492H515.148ZM522.469 196.359L523.086 190.625H529.195V192.266H524.664L524.352 194.984C524.878 194.682 525.471 194.531 526.133 194.531C527.216 194.531 528.057 194.878 528.656 195.57C529.26 196.263 529.562 197.195 529.562 198.367C529.562 199.523 529.229 200.445 528.562 201.133C527.896 201.815 526.982 202.156 525.82 202.156C524.779 202.156 523.914 201.862 523.227 201.273C522.544 200.68 522.174 199.898 522.117 198.93H523.953C524.026 199.482 524.224 199.906 524.547 200.203C524.87 200.495 525.292 200.641 525.812 200.641C526.396 200.641 526.849 200.432 527.172 200.016C527.5 199.599 527.664 199.031 527.664 198.312C527.664 197.62 527.484 197.073 527.125 196.672C526.766 196.266 526.271 196.062 525.641 196.062C525.297 196.062 525.005 196.109 524.766 196.203C524.526 196.292 524.266 196.469 523.984 196.734L522.469 196.359Z" fill="#5452F6"/>
<g filter="url(#filter2_d)">
<path d="M400 48C400 43.5817 403.582 40 408 40H621C625.418 40 629 43.5817 629 48V80H400V48Z" fill="white"/>
<path d="M408 40.5H621C625.142 40.5 628.5 43.8579 628.5 48V79.5H400.5V48C400.5 43.8579 403.858 40.5 408 40.5Z" stroke="#5452F6"/>
</g>
<g filter="url(#filter3_d)">
<path d="M400 79H629V95C629 99.4183 625.418 103 621 103H408C403.582 103 400 99.4183 400 95V79Z" fill="#EEEEFF"/>
<path d="M400.5 79.5H628.5V95C628.5 99.1421 625.142 102.5 621 102.5H408C403.858 102.5 400.5 99.1421 400.5 95V79.5Z" stroke="#5452F6"/>
</g>
<path d="M501.789 65H499.891V56.5469H501.789V65ZM499.773 54.3516C499.773 54.0599 499.865 53.8177 500.047 53.625C500.234 53.4323 500.5 53.3359 500.844 53.3359C501.188 53.3359 501.453 53.4323 501.641 53.625C501.828 53.8177 501.922 54.0599 501.922 54.3516C501.922 54.638 501.828 54.8776 501.641 55.0703C501.453 55.2578 501.188 55.3516 500.844 55.3516C500.5 55.3516 500.234 55.2578 500.047 55.0703C499.865 54.8776 499.773 54.638 499.773 54.3516ZM505.625 56.5469L505.68 57.5234C506.305 56.7682 507.125 56.3906 508.141 56.3906C509.901 56.3906 510.797 57.3984 510.828 59.4141V65H508.93V59.5234C508.93 58.987 508.812 58.5911 508.578 58.3359C508.349 58.0755 507.971 57.9453 507.445 57.9453C506.68 57.9453 506.109 58.2917 505.734 58.9844V65H503.836V56.5469H505.625ZM515.148 54.4922V56.5469H516.641V57.9531H515.148V62.6719C515.148 62.9948 515.211 63.2292 515.336 63.375C515.466 63.5156 515.695 63.5859 516.023 63.5859C516.242 63.5859 516.464 63.5599 516.688 63.5078V64.9766C516.255 65.0964 515.839 65.1562 515.438 65.1562C513.979 65.1562 513.25 64.3516 513.25 62.7422V57.9531H511.859V56.5469H513.25V54.4922H515.148ZM529.609 65H521.961V63.6953L525.75 59.5625C526.297 58.9531 526.685 58.4453 526.914 58.0391C527.148 57.6276 527.266 57.2161 527.266 56.8047C527.266 56.263 527.112 55.8255 526.805 55.4922C526.503 55.1589 526.094 54.9922 525.578 54.9922C524.964 54.9922 524.487 55.1797 524.148 55.5547C523.81 55.9297 523.641 56.4427 523.641 57.0938H521.742C521.742 56.401 521.898 55.7786 522.211 55.2266C522.529 54.6693 522.979 54.237 523.562 53.9297C524.151 53.6224 524.828 53.4688 525.594 53.4688C526.698 53.4688 527.568 53.7474 528.203 54.3047C528.844 54.8568 529.164 55.6224 529.164 56.6016C529.164 57.1693 529.003 57.7656 528.68 58.3906C528.362 59.0104 527.839 59.7161 527.109 60.5078L524.328 63.4844H529.609V65Z" fill="#5452F6"/>
<g filter="url(#filter4_d)">
<path d="M800 8C800 3.58172 803.582 0 808 0H1021C1025.42 0 1029 3.58172 1029 8V80H800V8Z" fill="white"/>
<path d="M808 0.5H1021C1025.14 0.5 1028.5 3.85787 1028.5 8V79.5H800.5V8C800.5 3.85787 803.858 0.5 808 0.5Z" stroke="#5452F6"/>
</g>
<g filter="url(#filter5_d)">
<path d="M800 79H1029V95C1029 99.4183 1025.42 103 1021 103H808C803.582 103 800 99.4183 800 95V79Z" fill="#EEEEFF"/>
<path d="M800.5 79.5H1028.5V95C1028.5 99.1421 1025.14 102.5 1021 102.5H808C803.858 102.5 800.5 99.1421 800.5 95V79.5Z" stroke="#5452F6"/>
</g>
<line x1="800.5" y1="39.5" x2="1028.5" y2="39.5" stroke="#5452F6"/>
<path d="M901.789 65H899.891V56.5469H901.789V65ZM899.773 54.3516C899.773 54.0599 899.865 53.8177 900.047 53.625C900.234 53.4323 900.5 53.3359 900.844 53.3359C901.188 53.3359 901.453 53.4323 901.641 53.625C901.828 53.8177 901.922 54.0599 901.922 54.3516C901.922 54.638 901.828 54.8776 901.641 55.0703C901.453 55.2578 901.188 55.3516 900.844 55.3516C900.5 55.3516 900.234 55.2578 900.047 55.0703C899.865 54.8776 899.773 54.638 899.773 54.3516ZM905.625 56.5469L905.68 57.5234C906.305 56.7682 907.125 56.3906 908.141 56.3906C909.901 56.3906 910.797 57.3984 910.828 59.4141V65H908.93V59.5234C908.93 58.987 908.812 58.5911 908.578 58.3359C908.349 58.0755 907.971 57.9453 907.445 57.9453C906.68 57.9453 906.109 58.2917 905.734 58.9844V65H903.836V56.5469H905.625ZM915.148 54.4922V56.5469H916.641V57.9531H915.148V62.6719C915.148 62.9948 915.211 63.2292 915.336 63.375C915.466 63.5156 915.695 63.5859 916.023 63.5859C916.242 63.5859 916.464 63.5599 916.688 63.5078V64.9766C916.255 65.0964 915.839 65.1562 915.438 65.1562C913.979 65.1562 913.25 64.3516 913.25 62.7422V57.9531H911.859V56.5469H913.25V54.4922H915.148ZM929.609 65H921.961V63.6953L925.75 59.5625C926.297 58.9531 926.685 58.4453 926.914 58.0391C927.148 57.6276 927.266 57.2161 927.266 56.8047C927.266 56.263 927.112 55.8255 926.805 55.4922C926.503 55.1589 926.094 54.9922 925.578 54.9922C924.964 54.9922 924.487 55.1797 924.148 55.5547C923.81 55.9297 923.641 56.4427 923.641 57.0938H921.742C921.742 56.401 921.898 55.7786 922.211 55.2266C922.529 54.6693 922.979 54.237 923.562 53.9297C924.151 53.6224 924.828 53.4688 925.594 53.4688C926.698 53.4688 927.568 53.7474 928.203 54.3047C928.844 54.8568 929.164 55.6224 929.164 56.6016C929.164 57.1693 929.003 57.7656 928.68 58.3906C928.362 59.0104 927.839 59.7161 927.109 60.5078L924.328 63.4844H929.609V65Z" fill="#5452F6"/>
<path d="M901.789 25H899.891V16.5469H901.789V25ZM899.773 14.3516C899.773 14.0599 899.865 13.8177 900.047 13.625C900.234 13.4323 900.5 13.3359 900.844 13.3359C901.188 13.3359 901.453 13.4323 901.641 13.625C901.828 13.8177 901.922 14.0599 901.922 14.3516C901.922 14.638 901.828 14.8776 901.641 15.0703C901.453 15.2578 901.188 15.3516 900.844 15.3516C900.5 15.3516 900.234 15.2578 900.047 15.0703C899.865 14.8776 899.773 14.638 899.773 14.3516ZM905.625 16.5469L905.68 17.5234C906.305 16.7682 907.125 16.3906 908.141 16.3906C909.901 16.3906 910.797 17.3984 910.828 19.4141V25H908.93V19.5234C908.93 18.987 908.812 18.5911 908.578 18.3359C908.349 18.0755 907.971 17.9453 907.445 17.9453C906.68 17.9453 906.109 18.2917 905.734 18.9844V25H903.836V16.5469H905.625ZM915.148 14.4922V16.5469H916.641V17.9531H915.148V22.6719C915.148 22.9948 915.211 23.2292 915.336 23.375C915.466 23.5156 915.695 23.5859 916.023 23.5859C916.242 23.5859 916.464 23.5599 916.688 23.5078V24.9766C916.255 25.0964 915.839 25.1562 915.438 25.1562C913.979 25.1562 913.25 24.3516 913.25 22.7422V17.9531H911.859V16.5469H913.25V14.4922H915.148ZM924.156 18.4453H925.312C925.896 18.4401 926.357 18.2891 926.695 17.9922C927.039 17.6953 927.211 17.2656 927.211 16.7031C927.211 16.1615 927.068 15.7422 926.781 15.4453C926.5 15.1432 926.068 14.9922 925.484 14.9922C924.974 14.9922 924.555 15.1406 924.227 15.4375C923.898 15.7292 923.734 16.112 923.734 16.5859H921.836C921.836 16.0026 921.99 15.4714 922.297 14.9922C922.609 14.513 923.042 14.1406 923.594 13.875C924.151 13.6042 924.773 13.4688 925.461 13.4688C926.596 13.4688 927.487 13.7552 928.133 14.3281C928.784 14.8958 929.109 15.6875 929.109 16.7031C929.109 17.2135 928.945 17.6953 928.617 18.1484C928.294 18.5964 927.875 18.9349 927.359 19.1641C927.984 19.3776 928.458 19.7135 928.781 20.1719C929.109 20.6302 929.273 21.1771 929.273 21.8125C929.273 22.8333 928.922 23.6458 928.219 24.25C927.521 24.8542 926.602 25.1562 925.461 25.1562C924.367 25.1562 923.471 24.8646 922.773 24.2812C922.076 23.6979 921.727 22.9219 921.727 21.9531H923.625C923.625 22.4531 923.792 22.8594 924.125 23.1719C924.464 23.4844 924.917 23.6406 925.484 23.6406C926.073 23.6406 926.536 23.4844 926.875 23.1719C927.214 22.8594 927.383 22.4062 927.383 21.8125C927.383 21.2135 927.206 20.7526 926.852 20.4297C926.497 20.1068 925.971 19.9453 925.273 19.9453H924.156V18.4453Z" fill="#5452F6"/>
<g filter="url(#filter6_d)">
<path d="M800 145C800 140.582 803.582 137 808 137H1021C1025.42 137 1029 140.582 1029 145V217H800V145Z" fill="white"/>
<path d="M808 137.5H1021C1025.14 137.5 1028.5 140.858 1028.5 145V216.5H800.5V145C800.5 140.858 803.858 137.5 808 137.5Z" stroke="#5452F6"/>
</g>
<g filter="url(#filter7_d)">
<path d="M800 216H1029V232C1029 236.418 1025.42 240 1021 240H808C803.582 240 800 236.418 800 232V216Z" fill="#EEEEFF"/>
<path d="M800.5 216.5H1028.5V232C1028.5 236.142 1025.14 239.5 1021 239.5H808C803.858 239.5 800.5 236.142 800.5 232V216.5Z" stroke="#5452F6"/>
</g>
<line x1="800.5" y1="176.5" x2="1028.5" y2="176.5" stroke="#5452F6"/>
<path d="M901.789 202H899.891V193.547H901.789V202ZM899.773 191.352C899.773 191.06 899.865 190.818 900.047 190.625C900.234 190.432 900.5 190.336 900.844 190.336C901.188 190.336 901.453 190.432 901.641 190.625C901.828 190.818 901.922 191.06 901.922 191.352C901.922 191.638 901.828 191.878 901.641 192.07C901.453 192.258 901.188 192.352 900.844 192.352C900.5 192.352 900.234 192.258 900.047 192.07C899.865 191.878 899.773 191.638 899.773 191.352ZM905.625 193.547L905.68 194.523C906.305 193.768 907.125 193.391 908.141 193.391C909.901 193.391 910.797 194.398 910.828 196.414V202H908.93V196.523C908.93 195.987 908.812 195.591 908.578 195.336C908.349 195.076 907.971 194.945 907.445 194.945C906.68 194.945 906.109 195.292 905.734 195.984V202H903.836V193.547H905.625ZM915.148 191.492V193.547H916.641V194.953H915.148V199.672C915.148 199.995 915.211 200.229 915.336 200.375C915.466 200.516 915.695 200.586 916.023 200.586C916.242 200.586 916.464 200.56 916.688 200.508V201.977C916.255 202.096 915.839 202.156 915.438 202.156C913.979 202.156 913.25 201.352 913.25 199.742V194.953H911.859V193.547H913.25V191.492H915.148ZM922.469 196.359L923.086 190.625H929.195V192.266H924.664L924.352 194.984C924.878 194.682 925.471 194.531 926.133 194.531C927.216 194.531 928.057 194.878 928.656 195.57C929.26 196.263 929.562 197.195 929.562 198.367C929.562 199.523 929.229 200.445 928.562 201.133C927.896 201.815 926.982 202.156 925.82 202.156C924.779 202.156 923.914 201.862 923.227 201.273C922.544 200.68 922.174 199.898 922.117 198.93H923.953C924.026 199.482 924.224 199.906 924.547 200.203C924.87 200.495 925.292 200.641 925.812 200.641C926.396 200.641 926.849 200.432 927.172 200.016C927.5 199.599 927.664 199.031 927.664 198.312C927.664 197.62 927.484 197.073 927.125 196.672C926.766 196.266 926.271 196.062 925.641 196.062C925.297 196.062 925.005 196.109 924.766 196.203C924.526 196.292 924.266 196.469 923.984 196.734L922.469 196.359Z" fill="#5452F6"/>
<path d="M901.789 162H899.891V153.547H901.789V162ZM899.773 151.352C899.773 151.06 899.865 150.818 900.047 150.625C900.234 150.432 900.5 150.336 900.844 150.336C901.188 150.336 901.453 150.432 901.641 150.625C901.828 150.818 901.922 151.06 901.922 151.352C901.922 151.638 901.828 151.878 901.641 152.07C901.453 152.258 901.188 152.352 900.844 152.352C900.5 152.352 900.234 152.258 900.047 152.07C899.865 151.878 899.773 151.638 899.773 151.352ZM905.625 153.547L905.68 154.523C906.305 153.768 907.125 153.391 908.141 153.391C909.901 153.391 910.797 154.398 910.828 156.414V162H908.93V156.523C908.93 155.987 908.812 155.591 908.578 155.336C908.349 155.076 907.971 154.945 907.445 154.945C906.68 154.945 906.109 155.292 905.734 155.984V162H903.836V153.547H905.625ZM915.148 151.492V153.547H916.641V154.953H915.148V159.672C915.148 159.995 915.211 160.229 915.336 160.375C915.466 160.516 915.695 160.586 916.023 160.586C916.242 160.586 916.464 160.56 916.688 160.508V161.977C916.255 162.096 915.839 162.156 915.438 162.156C913.979 162.156 913.25 161.352 913.25 159.742V154.953H911.859V153.547H913.25V151.492H915.148ZM927.867 150.57V152.141H927.633C926.57 152.156 925.721 152.448 925.086 153.016C924.451 153.583 924.073 154.388 923.953 155.43C924.562 154.789 925.341 154.469 926.289 154.469C927.294 154.469 928.086 154.823 928.664 155.531C929.247 156.24 929.539 157.154 929.539 158.273C929.539 159.43 929.198 160.367 928.516 161.086C927.839 161.799 926.948 162.156 925.844 162.156C924.708 162.156 923.786 161.737 923.078 160.898C922.375 160.06 922.023 158.961 922.023 157.602V156.953C922.023 154.958 922.508 153.396 923.477 152.266C924.451 151.135 925.849 150.57 927.672 150.57H927.867ZM925.828 156C925.411 156 925.029 156.117 924.68 156.352C924.336 156.586 924.083 156.898 923.922 157.289V157.867C923.922 158.711 924.099 159.383 924.453 159.883C924.807 160.378 925.266 160.625 925.828 160.625C926.391 160.625 926.836 160.414 927.164 159.992C927.492 159.57 927.656 159.016 927.656 158.328C927.656 157.641 927.49 157.081 927.156 156.648C926.823 156.216 926.38 156 925.828 156Z" fill="#5452F6"/>
<g filter="url(#filter8_d)">
<path d="M0 289C0 284.582 3.58172 281 8 281H221C225.418 281 229 284.582 229 289V361H0V289Z" fill="white"/>
<path d="M8 281.5H221C225.142 281.5 228.5 284.858 228.5 289V360.5H0.5V289C0.5 284.858 3.85786 281.5 8 281.5Z" stroke="#5452F6"/>
</g>
<g filter="url(#filter9_d)">
<path d="M0 360H229V376C229 380.418 225.418 384 221 384H8.00001C3.58173 384 0 380.418 0 376V360Z" fill="#EEEEFF"/>
<path d="M0.5 360.5H228.5V376C228.5 380.142 225.142 383.5 221 383.5H8.00001C3.85787 383.5 0.5 380.142 0.5 376V360.5Z" stroke="#5452F6"/>
</g>
<line x1="0.5" y1="320.5" x2="228.5" y2="320.5" stroke="#5452F6"/>
<path d="M101.789 346H99.8906V337.547H101.789V346ZM99.7734 335.352C99.7734 335.06 99.8646 334.818 100.047 334.625C100.234 334.432 100.5 334.336 100.844 334.336C101.188 334.336 101.453 334.432 101.641 334.625C101.828 334.818 101.922 335.06 101.922 335.352C101.922 335.638 101.828 335.878 101.641 336.07C101.453 336.258 101.188 336.352 100.844 336.352C100.5 336.352 100.234 336.258 100.047 336.07C99.8646 335.878 99.7734 335.638 99.7734 335.352ZM105.625 337.547L105.68 338.523C106.305 337.768 107.125 337.391 108.141 337.391C109.901 337.391 110.797 338.398 110.828 340.414V346H108.93V340.523C108.93 339.987 108.812 339.591 108.578 339.336C108.349 339.076 107.971 338.945 107.445 338.945C106.68 338.945 106.109 339.292 105.734 339.984V346H103.836V337.547H105.625ZM115.148 335.492V337.547H116.641V338.953H115.148V343.672C115.148 343.995 115.211 344.229 115.336 344.375C115.466 344.516 115.695 344.586 116.023 344.586C116.242 344.586 116.464 344.56 116.688 344.508V345.977C116.255 346.096 115.839 346.156 115.438 346.156C113.979 346.156 113.25 345.352 113.25 343.742V338.953H111.859V337.547H113.25V335.492H115.148ZM122.469 340.359L123.086 334.625H129.195V336.266H124.664L124.352 338.984C124.878 338.682 125.471 338.531 126.133 338.531C127.216 338.531 128.057 338.878 128.656 339.57C129.26 340.263 129.562 341.195 129.562 342.367C129.562 343.523 129.229 344.445 128.562 345.133C127.896 345.815 126.982 346.156 125.82 346.156C124.779 346.156 123.914 345.862 123.227 345.273C122.544 344.68 122.174 343.898 122.117 342.93H123.953C124.026 343.482 124.224 343.906 124.547 344.203C124.87 344.495 125.292 344.641 125.812 344.641C126.396 344.641 126.849 344.432 127.172 344.016C127.5 343.599 127.664 343.031 127.664 342.312C127.664 341.62 127.484 341.073 127.125 340.672C126.766 340.266 126.271 340.062 125.641 340.062C125.297 340.062 125.005 340.109 124.766 340.203C124.526 340.292 124.266 340.469 123.984 340.734L122.469 340.359Z" fill="#5452F6"/>
<path d="M101.789 306H99.8906V297.547H101.789V306ZM99.7734 295.352C99.7734 295.06 99.8646 294.818 100.047 294.625C100.234 294.432 100.5 294.336 100.844 294.336C101.188 294.336 101.453 294.432 101.641 294.625C101.828 294.818 101.922 295.06 101.922 295.352C101.922 295.638 101.828 295.878 101.641 296.07C101.453 296.258 101.188 296.352 100.844 296.352C100.5 296.352 100.234 296.258 100.047 296.07C99.8646 295.878 99.7734 295.638 99.7734 295.352ZM105.625 297.547L105.68 298.523C106.305 297.768 107.125 297.391 108.141 297.391C109.901 297.391 110.797 298.398 110.828 300.414V306H108.93V300.523C108.93 299.987 108.812 299.591 108.578 299.336C108.349 299.076 107.971 298.945 107.445 298.945C106.68 298.945 106.109 299.292 105.734 299.984V306H103.836V297.547H105.625ZM115.148 295.492V297.547H116.641V298.953H115.148V303.672C115.148 303.995 115.211 304.229 115.336 304.375C115.466 304.516 115.695 304.586 116.023 304.586C116.242 304.586 116.464 304.56 116.688 304.508V305.977C116.255 306.096 115.839 306.156 115.438 306.156C113.979 306.156 113.25 305.352 113.25 303.742V298.953H111.859V297.547H113.25V295.492H115.148ZM127.867 294.57V296.141H127.633C126.57 296.156 125.721 296.448 125.086 297.016C124.451 297.583 124.073 298.388 123.953 299.43C124.562 298.789 125.341 298.469 126.289 298.469C127.294 298.469 128.086 298.823 128.664 299.531C129.247 300.24 129.539 301.154 129.539 302.273C129.539 303.43 129.198 304.367 128.516 305.086C127.839 305.799 126.948 306.156 125.844 306.156C124.708 306.156 123.786 305.737 123.078 304.898C122.375 304.06 122.023 302.961 122.023 301.602V300.953C122.023 298.958 122.508 297.396 123.477 296.266C124.451 295.135 125.849 294.57 127.672 294.57H127.867ZM125.828 300C125.411 300 125.029 300.117 124.68 300.352C124.336 300.586 124.083 300.898 123.922 301.289V301.867C123.922 302.711 124.099 303.383 124.453 303.883C124.807 304.378 125.266 304.625 125.828 304.625C126.391 304.625 126.836 304.414 127.164 303.992C127.492 303.57 127.656 303.016 127.656 302.328C127.656 301.641 127.49 301.081 127.156 300.648C126.823 300.216 126.38 300 125.828 300Z" fill="#5452F6"/>
<g filter="url(#filter10_d)">
<path d="M0 145C0 140.582 3.58172 137 8 137H221C225.418 137 229 140.582 229 145V217H0V145Z" fill="white"/>
<path d="M8 137.5H221C225.142 137.5 228.5 140.858 228.5 145V216.5H0.5V145C0.5 140.858 3.85786 137.5 8 137.5Z" stroke="#5452F6"/>
</g>
<g filter="url(#filter11_d)">
<path d="M0 216H229V232C229 236.418 225.418 240 221 240H8.00001C3.58173 240 0 236.418 0 232V216Z" fill="#EEEEFF"/>
<path d="M0.5 216.5H228.5V232C228.5 236.142 225.142 239.5 221 239.5H8.00001C3.85787 239.5 0.5 236.142 0.5 232V216.5Z" stroke="#5452F6"/>
</g>
<line x1="0.5" y1="176.5" x2="228.5" y2="176.5" stroke="#5452F6"/>
<path d="M101.789 202H99.8906V193.547H101.789V202ZM99.7734 191.352C99.7734 191.06 99.8646 190.818 100.047 190.625C100.234 190.432 100.5 190.336 100.844 190.336C101.188 190.336 101.453 190.432 101.641 190.625C101.828 190.818 101.922 191.06 101.922 191.352C101.922 191.638 101.828 191.878 101.641 192.07C101.453 192.258 101.188 192.352 100.844 192.352C100.5 192.352 100.234 192.258 100.047 192.07C99.8646 191.878 99.7734 191.638 99.7734 191.352ZM105.625 193.547L105.68 194.523C106.305 193.768 107.125 193.391 108.141 193.391C109.901 193.391 110.797 194.398 110.828 196.414V202H108.93V196.523C108.93 195.987 108.812 195.591 108.578 195.336C108.349 195.076 107.971 194.945 107.445 194.945C106.68 194.945 106.109 195.292 105.734 195.984V202H103.836V193.547H105.625ZM115.148 191.492V193.547H116.641V194.953H115.148V199.672C115.148 199.995 115.211 200.229 115.336 200.375C115.466 200.516 115.695 200.586 116.023 200.586C116.242 200.586 116.464 200.56 116.688 200.508V201.977C116.255 202.096 115.839 202.156 115.438 202.156C113.979 202.156 113.25 201.352 113.25 199.742V194.953H111.859V193.547H113.25V191.492H115.148ZM129.609 202H121.961V200.695L125.75 196.562C126.297 195.953 126.685 195.445 126.914 195.039C127.148 194.628 127.266 194.216 127.266 193.805C127.266 193.263 127.112 192.826 126.805 192.492C126.503 192.159 126.094 191.992 125.578 191.992C124.964 191.992 124.487 192.18 124.148 192.555C123.81 192.93 123.641 193.443 123.641 194.094H121.742C121.742 193.401 121.898 192.779 122.211 192.227C122.529 191.669 122.979 191.237 123.562 190.93C124.151 190.622 124.828 190.469 125.594 190.469C126.698 190.469 127.568 190.747 128.203 191.305C128.844 191.857 129.164 192.622 129.164 193.602C129.164 194.169 129.003 194.766 128.68 195.391C128.362 196.01 127.839 196.716 127.109 197.508L124.328 200.484H129.609V202Z" fill="#5452F6"/>
<path d="M101.789 162H99.8906V153.547H101.789V162ZM99.7734 151.352C99.7734 151.06 99.8646 150.818 100.047 150.625C100.234 150.432 100.5 150.336 100.844 150.336C101.188 150.336 101.453 150.432 101.641 150.625C101.828 150.818 101.922 151.06 101.922 151.352C101.922 151.638 101.828 151.878 101.641 152.07C101.453 152.258 101.188 152.352 100.844 152.352C100.5 152.352 100.234 152.258 100.047 152.07C99.8646 151.878 99.7734 151.638 99.7734 151.352ZM105.625 153.547L105.68 154.523C106.305 153.768 107.125 153.391 108.141 153.391C109.901 153.391 110.797 154.398 110.828 156.414V162H108.93V156.523C108.93 155.987 108.812 155.591 108.578 155.336C108.349 155.076 107.971 154.945 107.445 154.945C106.68 154.945 106.109 155.292 105.734 155.984V162H103.836V153.547H105.625ZM115.148 151.492V153.547H116.641V154.953H115.148V159.672C115.148 159.995 115.211 160.229 115.336 160.375C115.466 160.516 115.695 160.586 116.023 160.586C116.242 160.586 116.464 160.56 116.688 160.508V161.977C116.255 162.096 115.839 162.156 115.438 162.156C113.979 162.156 113.25 161.352 113.25 159.742V154.953H111.859V153.547H113.25V151.492H115.148ZM124.156 155.445H125.312C125.896 155.44 126.357 155.289 126.695 154.992C127.039 154.695 127.211 154.266 127.211 153.703C127.211 153.161 127.068 152.742 126.781 152.445C126.5 152.143 126.068 151.992 125.484 151.992C124.974 151.992 124.555 152.141 124.227 152.438C123.898 152.729 123.734 153.112 123.734 153.586H121.836C121.836 153.003 121.99 152.471 122.297 151.992C122.609 151.513 123.042 151.141 123.594 150.875C124.151 150.604 124.773 150.469 125.461 150.469C126.596 150.469 127.487 150.755 128.133 151.328C128.784 151.896 129.109 152.688 129.109 153.703C129.109 154.214 128.945 154.695 128.617 155.148C128.294 155.596 127.875 155.935 127.359 156.164C127.984 156.378 128.458 156.714 128.781 157.172C129.109 157.63 129.273 158.177 129.273 158.812C129.273 159.833 128.922 160.646 128.219 161.25C127.521 161.854 126.602 162.156 125.461 162.156C124.367 162.156 123.471 161.865 122.773 161.281C122.076 160.698 121.727 159.922 121.727 158.953H123.625C123.625 159.453 123.792 159.859 124.125 160.172C124.464 160.484 124.917 160.641 125.484 160.641C126.073 160.641 126.536 160.484 126.875 160.172C127.214 159.859 127.383 159.406 127.383 158.812C127.383 158.214 127.206 157.753 126.852 157.43C126.497 157.107 125.971 156.945 125.273 156.945H124.156V155.445Z" fill="#5452F6"/>
<g filter="url(#filter12_d)">
<path d="M0 71C0 66.5817 3.58172 63 8 63H221C225.418 63 229 66.5817 229 71V73H0V71Z" fill="white"/>
<path d="M8 63.5H221C225.142 63.5 228.5 66.8579 228.5 71V72.5H0.5V71C0.5 66.8579 3.85786 63.5 8 63.5Z" stroke="#5452F6"/>
</g>
<g filter="url(#filter13_d)">
<path d="M0 72H229V88C229 92.4183 225.418 96 221 96H8.00001C3.58173 96 0 92.4183 0 88V72Z" fill="#EEEEFF"/>
<path d="M0.5 72.5H228.5V88C228.5 92.1421 225.142 95.5 221 95.5H8.00001C3.85787 95.5 0.5 92.1421 0.5 88V72.5Z" stroke="#5452F6"/>
</g>
<g filter="url(#filter14_d)">
<path d="M400 329C400 324.582 403.582 321 408 321H621C625.418 321 629 324.582 629 329V361H400V329Z" fill="white"/>
<path d="M408 321.5H621C625.142 321.5 628.5 324.858 628.5 329V360.5H400.5V329C400.5 324.858 403.858 321.5 408 321.5Z" stroke="#5452F6"/>
</g>
<g filter="url(#filter15_d)">
<path d="M400 360H629V376C629 380.418 625.418 384 621 384H408C403.582 384 400 380.418 400 376V360Z" fill="#EEEEFF"/>
<path d="M400.5 360.5H628.5V376C628.5 380.142 625.142 383.5 621 383.5H408C403.858 383.5 400.5 380.142 400.5 376V360.5Z" stroke="#5452F6"/>
</g>
<path d="M497.242 346H495.344V337.547H497.242V346ZM495.227 335.352C495.227 335.06 495.318 334.818 495.5 334.625C495.688 334.432 495.953 334.336 496.297 334.336C496.641 334.336 496.906 334.432 497.094 334.625C497.281 334.818 497.375 335.06 497.375 335.352C497.375 335.638 497.281 335.878 497.094 336.07C496.906 336.258 496.641 336.352 496.297 336.352C495.953 336.352 495.688 336.258 495.5 336.07C495.318 335.878 495.227 335.638 495.227 335.352ZM501.078 337.547L501.133 338.523C501.758 337.768 502.578 337.391 503.594 337.391C505.354 337.391 506.25 338.398 506.281 340.414V346H504.383V340.523C504.383 339.987 504.266 339.591 504.031 339.336C503.802 339.076 503.424 338.945 502.898 338.945C502.133 338.945 501.562 339.292 501.188 339.984V346H499.289V337.547H501.078ZM510.602 335.492V337.547H512.094V338.953H510.602V343.672C510.602 343.995 510.664 344.229 510.789 344.375C510.919 344.516 511.148 344.586 511.477 344.586C511.695 344.586 511.917 344.56 512.141 344.508V345.977C511.708 346.096 511.292 346.156 510.891 346.156C509.432 346.156 508.703 345.352 508.703 343.742V338.953H507.312V337.547H508.703V335.492H510.602ZM519.609 339.445H520.766C521.349 339.44 521.81 339.289 522.148 338.992C522.492 338.695 522.664 338.266 522.664 337.703C522.664 337.161 522.521 336.742 522.234 336.445C521.953 336.143 521.521 335.992 520.938 335.992C520.427 335.992 520.008 336.141 519.68 336.438C519.352 336.729 519.188 337.112 519.188 337.586H517.289C517.289 337.003 517.443 336.471 517.75 335.992C518.062 335.513 518.495 335.141 519.047 334.875C519.604 334.604 520.227 334.469 520.914 334.469C522.049 334.469 522.94 334.755 523.586 335.328C524.237 335.896 524.562 336.688 524.562 337.703C524.562 338.214 524.398 338.695 524.07 339.148C523.747 339.596 523.328 339.935 522.812 340.164C523.438 340.378 523.911 340.714 524.234 341.172C524.562 341.63 524.727 342.177 524.727 342.812C524.727 343.833 524.375 344.646 523.672 345.25C522.974 345.854 522.055 346.156 520.914 346.156C519.82 346.156 518.924 345.865 518.227 345.281C517.529 344.698 517.18 343.922 517.18 342.953H519.078C519.078 343.453 519.245 343.859 519.578 344.172C519.917 344.484 520.37 344.641 520.938 344.641C521.526 344.641 521.99 344.484 522.328 344.172C522.667 343.859 522.836 343.406 522.836 342.812C522.836 342.214 522.659 341.753 522.305 341.43C521.951 341.107 521.424 340.945 520.727 340.945H519.609V339.445ZM533.922 341.211C533.922 342.846 533.615 344.081 533 344.914C532.391 345.742 531.461 346.156 530.211 346.156C528.982 346.156 528.055 345.753 527.43 344.945C526.81 344.133 526.492 342.932 526.477 341.344V339.375C526.477 337.74 526.781 336.513 527.391 335.695C528.005 334.878 528.94 334.469 530.195 334.469C531.44 334.469 532.367 334.867 532.977 335.664C533.591 336.461 533.906 337.654 533.922 339.242V341.211ZM532.023 339.086C532.023 338.018 531.878 337.237 531.586 336.742C531.294 336.242 530.831 335.992 530.195 335.992C529.576 335.992 529.12 336.229 528.828 336.703C528.536 337.172 528.383 337.906 528.367 338.906V341.484C528.367 342.547 528.516 343.339 528.812 343.859C529.109 344.38 529.576 344.641 530.211 344.641C530.82 344.641 531.271 344.401 531.562 343.922C531.854 343.438 532.008 342.682 532.023 341.656V339.086Z" fill="#5452F6"/>
<g filter="url(#filter16_d)">
<path d="M800 289C800 284.582 803.582 281 808 281H1021C1025.42 281 1029 284.582 1029 289V361H800V289Z" fill="white"/>
<path d="M808 281.5H1021C1025.14 281.5 1028.5 284.858 1028.5 289V360.5H800.5V289C800.5 284.858 803.858 281.5 808 281.5Z" stroke="#5452F6"/>
</g>
<g filter="url(#filter17_d)">
<path d="M800 360H1029V376C1029 380.418 1025.42 384 1021 384H808C803.582 384 800 380.418 800 376V360Z" fill="#EEEEFF"/>
<path d="M800.5 360.5H1028.5V376C1028.5 380.142 1025.14 383.5 1021 383.5H808C803.858 383.5 800.5 380.142 800.5 376V360.5Z" stroke="#5452F6"/>
</g>
<line x1="800.5" y1="320.5" x2="1028.5" y2="320.5" stroke="#5452F6"/>
<path d="M897.242 346H895.344V337.547H897.242V346ZM895.227 335.352C895.227 335.06 895.318 334.818 895.5 334.625C895.688 334.432 895.953 334.336 896.297 334.336C896.641 334.336 896.906 334.432 897.094 334.625C897.281 334.818 897.375 335.06 897.375 335.352C897.375 335.638 897.281 335.878 897.094 336.07C896.906 336.258 896.641 336.352 896.297 336.352C895.953 336.352 895.688 336.258 895.5 336.07C895.318 335.878 895.227 335.638 895.227 335.352ZM901.078 337.547L901.133 338.523C901.758 337.768 902.578 337.391 903.594 337.391C905.354 337.391 906.25 338.398 906.281 340.414V346H904.383V340.523C904.383 339.987 904.266 339.591 904.031 339.336C903.802 339.076 903.424 338.945 902.898 338.945C902.133 338.945 901.562 339.292 901.188 339.984V346H899.289V337.547H901.078ZM910.602 335.492V337.547H912.094V338.953H910.602V343.672C910.602 343.995 910.664 344.229 910.789 344.375C910.919 344.516 911.148 344.586 911.477 344.586C911.695 344.586 911.917 344.56 912.141 344.508V345.977C911.708 346.096 911.292 346.156 910.891 346.156C909.432 346.156 908.703 345.352 908.703 343.742V338.953H907.312V337.547H908.703V335.492H910.602ZM919.609 339.445H920.766C921.349 339.44 921.81 339.289 922.148 338.992C922.492 338.695 922.664 338.266 922.664 337.703C922.664 337.161 922.521 336.742 922.234 336.445C921.953 336.143 921.521 335.992 920.938 335.992C920.427 335.992 920.008 336.141 919.68 336.438C919.352 336.729 919.188 337.112 919.188 337.586H917.289C917.289 337.003 917.443 336.471 917.75 335.992C918.062 335.513 918.495 335.141 919.047 334.875C919.604 334.604 920.227 334.469 920.914 334.469C922.049 334.469 922.94 334.755 923.586 335.328C924.237 335.896 924.562 336.688 924.562 337.703C924.562 338.214 924.398 338.695 924.07 339.148C923.747 339.596 923.328 339.935 922.812 340.164C923.438 340.378 923.911 340.714 924.234 341.172C924.562 341.63 924.727 342.177 924.727 342.812C924.727 343.833 924.375 344.646 923.672 345.25C922.974 345.854 922.055 346.156 920.914 346.156C919.82 346.156 918.924 345.865 918.227 345.281C917.529 344.698 917.18 343.922 917.18 342.953H919.078C919.078 343.453 919.245 343.859 919.578 344.172C919.917 344.484 920.37 344.641 920.938 344.641C921.526 344.641 921.99 344.484 922.328 344.172C922.667 343.859 922.836 343.406 922.836 342.812C922.836 342.214 922.659 341.753 922.305 341.43C921.951 341.107 921.424 340.945 920.727 340.945H919.609V339.445ZM933.922 341.211C933.922 342.846 933.615 344.081 933 344.914C932.391 345.742 931.461 346.156 930.211 346.156C928.982 346.156 928.055 345.753 927.43 344.945C926.81 344.133 926.492 342.932 926.477 341.344V339.375C926.477 337.74 926.781 336.513 927.391 335.695C928.005 334.878 928.94 334.469 930.195 334.469C931.44 334.469 932.367 334.867 932.977 335.664C933.591 336.461 933.906 337.654 933.922 339.242V341.211ZM932.023 339.086C932.023 338.018 931.878 337.237 931.586 336.742C931.294 336.242 930.831 335.992 930.195 335.992C929.576 335.992 929.12 336.229 928.828 336.703C928.536 337.172 928.383 337.906 928.367 338.906V341.484C928.367 342.547 928.516 343.339 928.812 343.859C929.109 344.38 929.576 344.641 930.211 344.641C930.82 344.641 931.271 344.401 931.562 343.922C931.854 343.438 932.008 342.682 932.023 341.656V339.086Z" fill="#5452F6"/>
<path d="M901.789 306H899.891V297.547H901.789V306ZM899.773 295.352C899.773 295.06 899.865 294.818 900.047 294.625C900.234 294.432 900.5 294.336 900.844 294.336C901.188 294.336 901.453 294.432 901.641 294.625C901.828 294.818 901.922 295.06 901.922 295.352C901.922 295.638 901.828 295.878 901.641 296.07C901.453 296.258 901.188 296.352 900.844 296.352C900.5 296.352 900.234 296.258 900.047 296.07C899.865 295.878 899.773 295.638 899.773 295.352ZM905.625 297.547L905.68 298.523C906.305 297.768 907.125 297.391 908.141 297.391C909.901 297.391 910.797 298.398 910.828 300.414V306H908.93V300.523C908.93 299.987 908.812 299.591 908.578 299.336C908.349 299.076 907.971 298.945 907.445 298.945C906.68 298.945 906.109 299.292 905.734 299.984V306H903.836V297.547H905.625ZM915.148 295.492V297.547H916.641V298.953H915.148V303.672C915.148 303.995 915.211 304.229 915.336 304.375C915.466 304.516 915.695 304.586 916.023 304.586C916.242 304.586 916.464 304.56 916.688 304.508V305.977C916.255 306.096 915.839 306.156 915.438 306.156C913.979 306.156 913.25 305.352 913.25 303.742V298.953H911.859V297.547H913.25V295.492H915.148ZM929.531 295.68L924.984 306H922.992L927.531 296.148H921.648V294.625H929.531V295.68Z" fill="#5452F6"/>
<g filter="url(#filter18_d)">
<path d="M0 433C0 428.582 3.58172 425 8 425H221C225.418 425 229 428.582 229 433V505H0V433Z" fill="white"/>
<path d="M8 425.5H221C225.142 425.5 228.5 428.858 228.5 433V504.5H0.5V433C0.5 428.858 3.85786 425.5 8 425.5Z" stroke="#5452F6"/>
</g>
<g filter="url(#filter19_d)">
<path d="M0 504H229V520C229 524.418 225.418 528 221 528H8.00001C3.58173 528 0 524.418 0 520V504Z" fill="#EEEEFF"/>
<path d="M0.5 504.5H228.5V520C228.5 524.142 225.142 527.5 221 527.5H8.00001C3.85787 527.5 0.5 524.142 0.5 520V504.5Z" stroke="#5452F6"/>
</g>
<line x1="0.5" y1="464.5" x2="228.5" y2="464.5" stroke="#5452F6"/>
<path d="M97.2422 490H95.3438V481.547H97.2422V490ZM95.2266 479.352C95.2266 479.06 95.3177 478.818 95.5 478.625C95.6875 478.432 95.9531 478.336 96.2969 478.336C96.6406 478.336 96.9062 478.432 97.0938 478.625C97.2812 478.818 97.375 479.06 97.375 479.352C97.375 479.638 97.2812 479.878 97.0938 480.07C96.9062 480.258 96.6406 480.352 96.2969 480.352C95.9531 480.352 95.6875 480.258 95.5 480.07C95.3177 479.878 95.2266 479.638 95.2266 479.352ZM101.078 481.547L101.133 482.523C101.758 481.768 102.578 481.391 103.594 481.391C105.354 481.391 106.25 482.398 106.281 484.414V490H104.383V484.523C104.383 483.987 104.266 483.591 104.031 483.336C103.802 483.076 103.424 482.945 102.898 482.945C102.133 482.945 101.562 483.292 101.188 483.984V490H99.2891V481.547H101.078ZM110.602 479.492V481.547H112.094V482.953H110.602V487.672C110.602 487.995 110.664 488.229 110.789 488.375C110.919 488.516 111.148 488.586 111.477 488.586C111.695 488.586 111.917 488.56 112.141 488.508V489.977C111.708 490.096 111.292 490.156 110.891 490.156C109.432 490.156 108.703 489.352 108.703 487.742V482.953H107.312V481.547H108.703V479.492H110.602ZM119.609 483.445H120.766C121.349 483.44 121.81 483.289 122.148 482.992C122.492 482.695 122.664 482.266 122.664 481.703C122.664 481.161 122.521 480.742 122.234 480.445C121.953 480.143 121.521 479.992 120.938 479.992C120.427 479.992 120.008 480.141 119.68 480.438C119.352 480.729 119.188 481.112 119.188 481.586H117.289C117.289 481.003 117.443 480.471 117.75 479.992C118.062 479.513 118.495 479.141 119.047 478.875C119.604 478.604 120.227 478.469 120.914 478.469C122.049 478.469 122.94 478.755 123.586 479.328C124.237 479.896 124.562 480.688 124.562 481.703C124.562 482.214 124.398 482.695 124.07 483.148C123.747 483.596 123.328 483.935 122.812 484.164C123.438 484.378 123.911 484.714 124.234 485.172C124.562 485.63 124.727 486.177 124.727 486.812C124.727 487.833 124.375 488.646 123.672 489.25C122.974 489.854 122.055 490.156 120.914 490.156C119.82 490.156 118.924 489.865 118.227 489.281C117.529 488.698 117.18 487.922 117.18 486.953H119.078C119.078 487.453 119.245 487.859 119.578 488.172C119.917 488.484 120.37 488.641 120.938 488.641C121.526 488.641 121.99 488.484 122.328 488.172C122.667 487.859 122.836 487.406 122.836 486.812C122.836 486.214 122.659 485.753 122.305 485.43C121.951 485.107 121.424 484.945 120.727 484.945H119.609V483.445ZM133.922 485.211C133.922 486.846 133.615 488.081 133 488.914C132.391 489.742 131.461 490.156 130.211 490.156C128.982 490.156 128.055 489.753 127.43 488.945C126.81 488.133 126.492 486.932 126.477 485.344V483.375C126.477 481.74 126.781 480.513 127.391 479.695C128.005 478.878 128.94 478.469 130.195 478.469C131.44 478.469 132.367 478.867 132.977 479.664C133.591 480.461 133.906 481.654 133.922 483.242V485.211ZM132.023 483.086C132.023 482.018 131.878 481.237 131.586 480.742C131.294 480.242 130.831 479.992 130.195 479.992C129.576 479.992 129.12 480.229 128.828 480.703C128.536 481.172 128.383 481.906 128.367 482.906V485.484C128.367 486.547 128.516 487.339 128.812 487.859C129.109 488.38 129.576 488.641 130.211 488.641C130.82 488.641 131.271 488.401 131.562 487.922C131.854 487.438 132.008 486.682 132.023 485.656V483.086Z" fill="#5452F6"/>
<path d="M101.789 450H99.8906V441.547H101.789V450ZM99.7734 439.352C99.7734 439.06 99.8646 438.818 100.047 438.625C100.234 438.432 100.5 438.336 100.844 438.336C101.188 438.336 101.453 438.432 101.641 438.625C101.828 438.818 101.922 439.06 101.922 439.352C101.922 439.638 101.828 439.878 101.641 440.07C101.453 440.258 101.188 440.352 100.844 440.352C100.5 440.352 100.234 440.258 100.047 440.07C99.8646 439.878 99.7734 439.638 99.7734 439.352ZM105.625 441.547L105.68 442.523C106.305 441.768 107.125 441.391 108.141 441.391C109.901 441.391 110.797 442.398 110.828 444.414V450H108.93V444.523C108.93 443.987 108.812 443.591 108.578 443.336C108.349 443.076 107.971 442.945 107.445 442.945C106.68 442.945 106.109 443.292 105.734 443.984V450H103.836V441.547H105.625ZM115.148 439.492V441.547H116.641V442.953H115.148V447.672C115.148 447.995 115.211 448.229 115.336 448.375C115.466 448.516 115.695 448.586 116.023 448.586C116.242 448.586 116.464 448.56 116.688 448.508V449.977C116.255 450.096 115.839 450.156 115.438 450.156C113.979 450.156 113.25 449.352 113.25 447.742V442.953H111.859V441.547H113.25V439.492H115.148ZM129.531 439.68L124.984 450H122.992L127.531 440.148H121.648V438.625H129.531V439.68Z" fill="#5452F6"/>
<g filter="url(#filter20_d)">
<path d="M400 473C400 468.582 403.582 465 408 465H621C625.418 465 629 468.582 629 473V505H400V473Z" fill="white"/>
<path d="M408 465.5H621C625.142 465.5 628.5 468.858 628.5 473V504.5H400.5V473C400.5 468.858 403.858 465.5 408 465.5Z" stroke="#5452F6"/>
</g>
<g filter="url(#filter21_d)">
<path d="M400 504H629V520C629 524.418 625.418 528 621 528H408C403.582 528 400 524.418 400 520V504Z" fill="#EEEEFF"/>
<path d="M400.5 504.5H628.5V520C628.5 524.142 625.142 527.5 621 527.5H408C403.858 527.5 400.5 524.142 400.5 520V504.5Z" stroke="#5452F6"/>
</g>
<path d="M497.242 490H495.344V481.547H497.242V490ZM495.227 479.352C495.227 479.06 495.318 478.818 495.5 478.625C495.688 478.432 495.953 478.336 496.297 478.336C496.641 478.336 496.906 478.432 497.094 478.625C497.281 478.818 497.375 479.06 497.375 479.352C497.375 479.638 497.281 479.878 497.094 480.07C496.906 480.258 496.641 480.352 496.297 480.352C495.953 480.352 495.688 480.258 495.5 480.07C495.318 479.878 495.227 479.638 495.227 479.352ZM501.078 481.547L501.133 482.523C501.758 481.768 502.578 481.391 503.594 481.391C505.354 481.391 506.25 482.398 506.281 484.414V490H504.383V484.523C504.383 483.987 504.266 483.591 504.031 483.336C503.802 483.076 503.424 482.945 502.898 482.945C502.133 482.945 501.562 483.292 501.188 483.984V490H499.289V481.547H501.078ZM510.602 479.492V481.547H512.094V482.953H510.602V487.672C510.602 487.995 510.664 488.229 510.789 488.375C510.919 488.516 511.148 488.586 511.477 488.586C511.695 488.586 511.917 488.56 512.141 488.508V489.977C511.708 490.096 511.292 490.156 510.891 490.156C509.432 490.156 508.703 489.352 508.703 487.742V482.953H507.312V481.547H508.703V479.492H510.602ZM519.609 483.445H520.766C521.349 483.44 521.81 483.289 522.148 482.992C522.492 482.695 522.664 482.266 522.664 481.703C522.664 481.161 522.521 480.742 522.234 480.445C521.953 480.143 521.521 479.992 520.938 479.992C520.427 479.992 520.008 480.141 519.68 480.438C519.352 480.729 519.188 481.112 519.188 481.586H517.289C517.289 481.003 517.443 480.471 517.75 479.992C518.062 479.513 518.495 479.141 519.047 478.875C519.604 478.604 520.227 478.469 520.914 478.469C522.049 478.469 522.94 478.755 523.586 479.328C524.237 479.896 524.562 480.688 524.562 481.703C524.562 482.214 524.398 482.695 524.07 483.148C523.747 483.596 523.328 483.935 522.812 484.164C523.438 484.378 523.911 484.714 524.234 485.172C524.562 485.63 524.727 486.177 524.727 486.812C524.727 487.833 524.375 488.646 523.672 489.25C522.974 489.854 522.055 490.156 520.914 490.156C519.82 490.156 518.924 489.865 518.227 489.281C517.529 488.698 517.18 487.922 517.18 486.953H519.078C519.078 487.453 519.245 487.859 519.578 488.172C519.917 488.484 520.37 488.641 520.938 488.641C521.526 488.641 521.99 488.484 522.328 488.172C522.667 487.859 522.836 487.406 522.836 486.812C522.836 486.214 522.659 485.753 522.305 485.43C521.951 485.107 521.424 484.945 520.727 484.945H519.609V483.445ZM534.078 479.68L529.531 490H527.539L532.078 480.148H526.195V478.625H534.078V479.68Z" fill="#5452F6"/>
<defs>
<filter id="filter0_d" x="400" y="177" width="233" height="44" filterUnits="userSpaceOnUse" color-interpolation-filters="sRGB">
<feFlood flood-opacity="0" result="BackgroundImageFix"/>
<feColorMatrix in="SourceAlpha" type="matrix" values="0 0 0 0 0 0 0 0 0 0 0 0 0 0 0 0 0 0 127 0"/>
<feOffset dx="4" dy="4"/>
<feColorMatrix type="matrix" values="0 0 0 0 0.674908 0 0 0 0 0.662083 0 0 0 0 0.945833 0 0 0 1 0"/>
<feBlend mode="normal" in2="BackgroundImageFix" result="effect1_dropShadow"/>
<feBlend mode="normal" in="SourceGraphic" in2="effect1_dropShadow" result="shape"/>
</filter>
<filter id="filter1_d" x="400" y="216" width="233" height="28" filterUnits="userSpaceOnUse" color-interpolation-filters="sRGB">
<feFlood flood-opacity="0" result="BackgroundImageFix"/>
<feColorMatrix in="SourceAlpha" type="matrix" values="0 0 0 0 0 0 0 0 0 0 0 0 0 0 0 0 0 0 127 0"/>
<feOffset dx="4" dy="4"/>
<feColorMatrix type="matrix" values="0 0 0 0 0.674908 0 0 0 0 0.662083 0 0 0 0 0.945833 0 0 0 1 0"/>
<feBlend mode="normal" in2="BackgroundImageFix" result="effect1_dropShadow"/>
<feBlend mode="normal" in="SourceGraphic" in2="effect1_dropShadow" result="shape"/>
</filter>
<filter id="filter2_d" x="400" y="40" width="233" height="44" filterUnits="userSpaceOnUse" color-interpolation-filters="sRGB">
<feFlood flood-opacity="0" result="BackgroundImageFix"/>
<feColorMatrix in="SourceAlpha" type="matrix" values="0 0 0 0 0 0 0 0 0 0 0 0 0 0 0 0 0 0 127 0"/>
<feOffset dx="4" dy="4"/>
<feColorMatrix type="matrix" values="0 0 0 0 0.674908 0 0 0 0 0.662083 0 0 0 0 0.945833 0 0 0 1 0"/>
<feBlend mode="normal" in2="BackgroundImageFix" result="effect1_dropShadow"/>
<feBlend mode="normal" in="SourceGraphic" in2="effect1_dropShadow" result="shape"/>
</filter>
<filter id="filter3_d" x="400" y="79" width="233" height="28" filterUnits="userSpaceOnUse" color-interpolation-filters="sRGB">
<feFlood flood-opacity="0" result="BackgroundImageFix"/>
<feColorMatrix in="SourceAlpha" type="matrix" values="0 0 0 0 0 0 0 0 0 0 0 0 0 0 0 0 0 0 127 0"/>
<feOffset dx="4" dy="4"/>
<feColorMatrix type="matrix" values="0 0 0 0 0.674908 0 0 0 0 0.662083 0 0 0 0 0.945833 0 0 0 1 0"/>
<feBlend mode="normal" in2="BackgroundImageFix" result="effect1_dropShadow"/>
<feBlend mode="normal" in="SourceGraphic" in2="effect1_dropShadow" result="shape"/>
</filter>
<filter id="filter4_d" x="800" y="0" width="233" height="84" filterUnits="userSpaceOnUse" color-interpolation-filters="sRGB">
<feFlood flood-opacity="0" result="BackgroundImageFix"/>
<feColorMatrix in="SourceAlpha" type="matrix" values="0 0 0 0 0 0 0 0 0 0 0 0 0 0 0 0 0 0 127 0"/>
<feOffset dx="4" dy="4"/>
<feColorMatrix type="matrix" values="0 0 0 0 0.674908 0 0 0 0 0.662083 0 0 0 0 0.945833 0 0 0 1 0"/>
<feBlend mode="normal" in2="BackgroundImageFix" result="effect1_dropShadow"/>
<feBlend mode="normal" in="SourceGraphic" in2="effect1_dropShadow" result="shape"/>
</filter>
<filter id="filter5_d" x="800" y="79" width="233" height="28" filterUnits="userSpaceOnUse" color-interpolation-filters="sRGB">
<feFlood flood-opacity="0" result="BackgroundImageFix"/>
<feColorMatrix in="SourceAlpha" type="matrix" values="0 0 0 0 0 0 0 0 0 0 0 0 0 0 0 0 0 0 127 0"/>
<feOffset dx="4" dy="4"/>
<feColorMatrix type="matrix" values="0 0 0 0 0.674908 0 0 0 0 0.662083 0 0 0 0 0.945833 0 0 0 1 0"/>
<feBlend mode="normal" in2="BackgroundImageFix" result="effect1_dropShadow"/>
<feBlend mode="normal" in="SourceGraphic" in2="effect1_dropShadow" result="shape"/>
</filter>
<filter id="filter6_d" x="800" y="137" width="233" height="84" filterUnits="userSpaceOnUse" color-interpolation-filters="sRGB">
<feFlood flood-opacity="0" result="BackgroundImageFix"/>
<feColorMatrix in="SourceAlpha" type="matrix" values="0 0 0 0 0 0 0 0 0 0 0 0 0 0 0 0 0 0 127 0"/>
<feOffset dx="4" dy="4"/>
<feColorMatrix type="matrix" values="0 0 0 0 0.674908 0 0 0 0 0.662083 0 0 0 0 0.945833 0 0 0 1 0"/>
<feBlend mode="normal" in2="BackgroundImageFix" result="effect1_dropShadow"/>
<feBlend mode="normal" in="SourceGraphic" in2="effect1_dropShadow" result="shape"/>
</filter>
<filter id="filter7_d" x="800" y="216" width="233" height="28" filterUnits="userSpaceOnUse" color-interpolation-filters="sRGB">
<feFlood flood-opacity="0" result="BackgroundImageFix"/>
<feColorMatrix in="SourceAlpha" type="matrix" values="0 0 0 0 0 0 0 0 0 0 0 0 0 0 0 0 0 0 127 0"/>
<feOffset dx="4" dy="4"/>
<feColorMatrix type="matrix" values="0 0 0 0 0.674908 0 0 0 0 0.662083 0 0 0 0 0.945833 0 0 0 1 0"/>
<feBlend mode="normal" in2="BackgroundImageFix" result="effect1_dropShadow"/>
<feBlend mode="normal" in="SourceGraphic" in2="effect1_dropShadow" result="shape"/>
</filter>
<filter id="filter8_d" x="0" y="281" width="233" height="84" filterUnits="userSpaceOnUse" color-interpolation-filters="sRGB">
<feFlood flood-opacity="0" result="BackgroundImageFix"/>
<feColorMatrix in="SourceAlpha" type="matrix" values="0 0 0 0 0 0 0 0 0 0 0 0 0 0 0 0 0 0 127 0"/>
<feOffset dx="4" dy="4"/>
<feColorMatrix type="matrix" values="0 0 0 0 0.674908 0 0 0 0 0.662083 0 0 0 0 0.945833 0 0 0 1 0"/>
<feBlend mode="normal" in2="BackgroundImageFix" result="effect1_dropShadow"/>
<feBlend mode="normal" in="SourceGraphic" in2="effect1_dropShadow" result="shape"/>
</filter>
<filter id="filter9_d" x="0" y="360" width="233" height="28" filterUnits="userSpaceOnUse" color-interpolation-filters="sRGB">
<feFlood flood-opacity="0" result="BackgroundImageFix"/>
<feColorMatrix in="SourceAlpha" type="matrix" values="0 0 0 0 0 0 0 0 0 0 0 0 0 0 0 0 0 0 127 0"/>
<feOffset dx="4" dy="4"/>
<feColorMatrix type="matrix" values="0 0 0 0 0.674908 0 0 0 0 0.662083 0 0 0 0 0.945833 0 0 0 1 0"/>
<feBlend mode="normal" in2="BackgroundImageFix" result="effect1_dropShadow"/>
<feBlend mode="normal" in="SourceGraphic" in2="effect1_dropShadow" result="shape"/>
</filter>
<filter id="filter10_d" x="0" y="137" width="233" height="84" filterUnits="userSpaceOnUse" color-interpolation-filters="sRGB">
<feFlood flood-opacity="0" result="BackgroundImageFix"/>
<feColorMatrix in="SourceAlpha" type="matrix" values="0 0 0 0 0 0 0 0 0 0 0 0 0 0 0 0 0 0 127 0"/>
<feOffset dx="4" dy="4"/>
<feColorMatrix type="matrix" values="0 0 0 0 0.674908 0 0 0 0 0.662083 0 0 0 0 0.945833 0 0 0 1 0"/>
<feBlend mode="normal" in2="BackgroundImageFix" result="effect1_dropShadow"/>
<feBlend mode="normal" in="SourceGraphic" in2="effect1_dropShadow" result="shape"/>
</filter>
<filter id="filter11_d" x="0" y="216" width="233" height="28" filterUnits="userSpaceOnUse" color-interpolation-filters="sRGB">
<feFlood flood-opacity="0" result="BackgroundImageFix"/>
<feColorMatrix in="SourceAlpha" type="matrix" values="0 0 0 0 0 0 0 0 0 0 0 0 0 0 0 0 0 0 127 0"/>
<feOffset dx="4" dy="4"/>
<feColorMatrix type="matrix" values="0 0 0 0 0.674908 0 0 0 0 0.662083 0 0 0 0 0.945833 0 0 0 1 0"/>
<feBlend mode="normal" in2="BackgroundImageFix" result="effect1_dropShadow"/>
<feBlend mode="normal" in="SourceGraphic" in2="effect1_dropShadow" result="shape"/>
</filter>
<filter id="filter12_d" x="0" y="63" width="233" height="14" filterUnits="userSpaceOnUse" color-interpolation-filters="sRGB">
<feFlood flood-opacity="0" result="BackgroundImageFix"/>
<feColorMatrix in="SourceAlpha" type="matrix" values="0 0 0 0 0 0 0 0 0 0 0 0 0 0 0 0 0 0 127 0"/>
<feOffset dx="4" dy="4"/>
<feColorMatrix type="matrix" values="0 0 0 0 0.674908 0 0 0 0 0.662083 0 0 0 0 0.945833 0 0 0 1 0"/>
<feBlend mode="normal" in2="BackgroundImageFix" result="effect1_dropShadow"/>
<feBlend mode="normal" in="SourceGraphic" in2="effect1_dropShadow" result="shape"/>
</filter>
<filter id="filter13_d" x="0" y="72" width="233" height="28" filterUnits="userSpaceOnUse" color-interpolation-filters="sRGB">
<feFlood flood-opacity="0" result="BackgroundImageFix"/>
<feColorMatrix in="SourceAlpha" type="matrix" values="0 0 0 0 0 0 0 0 0 0 0 0 0 0 0 0 0 0 127 0"/>
<feOffset dx="4" dy="4"/>
<feColorMatrix type="matrix" values="0 0 0 0 0.674908 0 0 0 0 0.662083 0 0 0 0 0.945833 0 0 0 1 0"/>
<feBlend mode="normal" in2="BackgroundImageFix" result="effect1_dropShadow"/>
<feBlend mode="normal" in="SourceGraphic" in2="effect1_dropShadow" result="shape"/>
</filter>
<filter id="filter14_d" x="400" y="321" width="233" height="44" filterUnits="userSpaceOnUse" color-interpolation-filters="sRGB">
<feFlood flood-opacity="0" result="BackgroundImageFix"/>
<feColorMatrix in="SourceAlpha" type="matrix" values="0 0 0 0 0 0 0 0 0 0 0 0 0 0 0 0 0 0 127 0"/>
<feOffset dx="4" dy="4"/>
<feColorMatrix type="matrix" values="0 0 0 0 0.674908 0 0 0 0 0.662083 0 0 0 0 0.945833 0 0 0 1 0"/>
<feBlend mode="normal" in2="BackgroundImageFix" result="effect1_dropShadow"/>
<feBlend mode="normal" in="SourceGraphic" in2="effect1_dropShadow" result="shape"/>
</filter>
<filter id="filter15_d" x="400" y="360" width="233" height="28" filterUnits="userSpaceOnUse" color-interpolation-filters="sRGB">
<feFlood flood-opacity="0" result="BackgroundImageFix"/>
<feColorMatrix in="SourceAlpha" type="matrix" values="0 0 0 0 0 0 0 0 0 0 0 0 0 0 0 0 0 0 127 0"/>
<feOffset dx="4" dy="4"/>
<feColorMatrix type="matrix" values="0 0 0 0 0.674908 0 0 0 0 0.662083 0 0 0 0 0.945833 0 0 0 1 0"/>
<feBlend mode="normal" in2="BackgroundImageFix" result="effect1_dropShadow"/>
<feBlend mode="normal" in="SourceGraphic" in2="effect1_dropShadow" result="shape"/>
</filter>
<filter id="filter16_d" x="800" y="281" width="233" height="84" filterUnits="userSpaceOnUse" color-interpolation-filters="sRGB">
<feFlood flood-opacity="0" result="BackgroundImageFix"/>
<feColorMatrix in="SourceAlpha" type="matrix" values="0 0 0 0 0 0 0 0 0 0 0 0 0 0 0 0 0 0 127 0"/>
<feOffset dx="4" dy="4"/>
<feColorMatrix type="matrix" values="0 0 0 0 0.674908 0 0 0 0 0.662083 0 0 0 0 0.945833 0 0 0 1 0"/>
<feBlend mode="normal" in2="BackgroundImageFix" result="effect1_dropShadow"/>
<feBlend mode="normal" in="SourceGraphic" in2="effect1_dropShadow" result="shape"/>
</filter>
<filter id="filter17_d" x="800" y="360" width="233" height="28" filterUnits="userSpaceOnUse" color-interpolation-filters="sRGB">
<feFlood flood-opacity="0" result="BackgroundImageFix"/>
<feColorMatrix in="SourceAlpha" type="matrix" values="0 0 0 0 0 0 0 0 0 0 0 0 0 0 0 0 0 0 127 0"/>
<feOffset dx="4" dy="4"/>
<feColorMatrix type="matrix" values="0 0 0 0 0.674908 0 0 0 0 0.662083 0 0 0 0 0.945833 0 0 0 1 0"/>
<feBlend mode="normal" in2="BackgroundImageFix" result="effect1_dropShadow"/>
<feBlend mode="normal" in="SourceGraphic" in2="effect1_dropShadow" result="shape"/>
</filter>
<filter id="filter18_d" x="0" y="425" width="233" height="84" filterUnits="userSpaceOnUse" color-interpolation-filters="sRGB">
<feFlood flood-opacity="0" result="BackgroundImageFix"/>
<feColorMatrix in="SourceAlpha" type="matrix" values="0 0 0 0 0 0 0 0 0 0 0 0 0 0 0 0 0 0 127 0"/>
<feOffset dx="4" dy="4"/>
<feColorMatrix type="matrix" values="0 0 0 0 0.674908 0 0 0 0 0.662083 0 0 0 0 0.945833 0 0 0 1 0"/>
<feBlend mode="normal" in2="BackgroundImageFix" result="effect1_dropShadow"/>
<feBlend mode="normal" in="SourceGraphic" in2="effect1_dropShadow" result="shape"/>
</filter>
<filter id="filter19_d" x="0" y="504" width="233" height="28" filterUnits="userSpaceOnUse" color-interpolation-filters="sRGB">
<feFlood flood-opacity="0" result="BackgroundImageFix"/>
<feColorMatrix in="SourceAlpha" type="matrix" values="0 0 0 0 0 0 0 0 0 0 0 0 0 0 0 0 0 0 127 0"/>
<feOffset dx="4" dy="4"/>
<feColorMatrix type="matrix" values="0 0 0 0 0.674908 0 0 0 0 0.662083 0 0 0 0 0.945833 0 0 0 1 0"/>
<feBlend mode="normal" in2="BackgroundImageFix" result="effect1_dropShadow"/>
<feBlend mode="normal" in="SourceGraphic" in2="effect1_dropShadow" result="shape"/>
</filter>
<filter id="filter20_d" x="400" y="465" width="233" height="44" filterUnits="userSpaceOnUse" color-interpolation-filters="sRGB">
<feFlood flood-opacity="0" result="BackgroundImageFix"/>
<feColorMatrix in="SourceAlpha" type="matrix" values="0 0 0 0 0 0 0 0 0 0 0 0 0 0 0 0 0 0 127 0"/>
<feOffset dx="4" dy="4"/>
<feColorMatrix type="matrix" values="0 0 0 0 0.674908 0 0 0 0 0.662083 0 0 0 0 0.945833 0 0 0 1 0"/>
<feBlend mode="normal" in2="BackgroundImageFix" result="effect1_dropShadow"/>
<feBlend mode="normal" in="SourceGraphic" in2="effect1_dropShadow" result="shape"/>
</filter>
<filter id="filter21_d" x="400" y="504" width="233" height="28" filterUnits="userSpaceOnUse" color-interpolation-filters="sRGB">
<feFlood flood-opacity="0" result="BackgroundImageFix"/>
<feColorMatrix in="SourceAlpha" type="matrix" values="0 0 0 0 0 0 0 0 0 0 0 0 0 0 0 0 0 0 127 0"/>
<feOffset dx="4" dy="4"/>
<feColorMatrix type="matrix" values="0 0 0 0 0.674908 0 0 0 0 0.662083 0 0 0 0 0.945833 0 0 0 1 0"/>
<feBlend mode="normal" in2="BackgroundImageFix" result="effect1_dropShadow"/>
<feBlend mode="normal" in="SourceGraphic" in2="effect1_dropShadow" result="shape"/>
</filter>
</defs>
</svg>
