<svg width="596" height="677" viewBox="0 0 596 677" fill="none" xmlns="http://www.w3.org/2000/svg">
<g filter="url(#filter0_d)">
<rect x="407" y="269" width="185" height="63" rx="8" fill="white"/>
<path d="M459.711 305.164C459.148 305.826 458.323 306.156 457.234 306.156C456.333 306.156 455.646 305.896 455.172 305.375C454.703 304.849 454.466 304.073 454.461 303.047V297.547H455.906V303.008C455.906 304.289 456.427 304.93 457.469 304.93C458.573 304.93 459.307 304.518 459.672 303.695V297.547H461.117V306H459.742L459.711 305.164ZM464.688 297.547L464.734 298.609C465.38 297.797 466.224 297.391 467.266 297.391C469.052 297.391 469.953 298.398 469.969 300.414V306H468.523V300.406C468.518 299.797 468.378 299.346 468.102 299.055C467.831 298.763 467.406 298.617 466.828 298.617C466.359 298.617 465.948 298.742 465.594 298.992C465.24 299.242 464.964 299.57 464.766 299.977V306H463.32V297.547H464.688ZM473.719 306H472.273V297.547H473.719V306ZM472.156 295.305C472.156 295.07 472.227 294.872 472.367 294.711C472.513 294.549 472.727 294.469 473.008 294.469C473.289 294.469 473.503 294.549 473.648 294.711C473.794 294.872 473.867 295.07 473.867 295.305C473.867 295.539 473.794 295.734 473.648 295.891C473.503 296.047 473.289 296.125 473.008 296.125C472.727 296.125 472.513 296.047 472.367 295.891C472.227 295.734 472.156 295.539 472.156 295.305ZM478 295.5V297.547H479.578V298.664H478V303.906C478 304.245 478.07 304.5 478.211 304.672C478.352 304.839 478.591 304.922 478.93 304.922C479.096 304.922 479.326 304.891 479.617 304.828V306C479.237 306.104 478.867 306.156 478.508 306.156C477.862 306.156 477.375 305.961 477.047 305.57C476.719 305.18 476.555 304.625 476.555 303.906V298.664H475.016V297.547H476.555V295.5H478ZM484.969 296.812C484.969 296.13 485.185 295.568 485.617 295.125C486.055 294.682 486.615 294.461 487.297 294.461C487.99 294.461 488.549 294.685 488.977 295.133C489.409 295.576 489.625 296.151 489.625 296.859V297.414C489.625 298.102 489.406 298.664 488.969 299.102C488.536 299.534 487.984 299.75 487.312 299.75C486.635 299.75 486.076 299.534 485.633 299.102C485.19 298.664 484.969 298.083 484.969 297.359V296.812ZM486.047 297.414C486.047 297.82 486.161 298.156 486.391 298.422C486.62 298.682 486.927 298.812 487.312 298.812C487.682 298.812 487.979 298.685 488.203 298.43C488.432 298.174 488.547 297.826 488.547 297.383V296.812C488.547 296.406 488.435 296.07 488.211 295.805C487.987 295.539 487.682 295.406 487.297 295.406C486.911 295.406 486.607 295.539 486.383 295.805C486.159 296.07 486.047 296.417 486.047 296.844V297.414ZM490.508 303.211C490.508 302.529 490.724 301.969 491.156 301.531C491.594 301.089 492.154 300.867 492.836 300.867C493.518 300.867 494.078 301.086 494.516 301.523C494.953 301.961 495.172 302.542 495.172 303.266V303.82C495.172 304.503 494.953 305.065 494.516 305.508C494.083 305.945 493.529 306.164 492.852 306.164C492.174 306.164 491.615 305.948 491.172 305.516C490.729 305.078 490.508 304.497 490.508 303.773V303.211ZM491.586 303.82C491.586 304.232 491.701 304.57 491.93 304.836C492.159 305.096 492.466 305.227 492.852 305.227C493.227 305.227 493.526 305.099 493.75 304.844C493.974 304.583 494.086 304.232 494.086 303.789V303.211C494.086 302.799 493.971 302.464 493.742 302.203C493.518 301.943 493.216 301.812 492.836 301.812C492.466 301.812 492.164 301.943 491.93 302.203C491.701 302.458 491.586 302.805 491.586 303.242V303.82ZM487.641 305.141L486.82 304.625L492.375 295.734L493.195 296.25L487.641 305.141ZM496.609 301.703C496.609 300.406 496.917 299.365 497.531 298.578C498.146 297.786 498.951 297.391 499.945 297.391C500.935 297.391 501.719 297.729 502.297 298.406V294H503.742V306H502.414L502.344 305.094C501.766 305.802 500.961 306.156 499.93 306.156C498.951 306.156 498.151 305.755 497.531 304.953C496.917 304.151 496.609 303.104 496.609 301.812V301.703ZM498.055 301.867C498.055 302.826 498.253 303.576 498.648 304.117C499.044 304.659 499.591 304.93 500.289 304.93C501.206 304.93 501.875 304.518 502.297 303.695V299.812C501.865 299.016 501.201 298.617 500.305 298.617C499.596 298.617 499.044 298.891 498.648 299.438C498.253 299.984 498.055 300.794 498.055 301.867ZM509.5 306.156C508.354 306.156 507.422 305.781 506.703 305.031C505.984 304.276 505.625 303.268 505.625 302.008V301.742C505.625 300.904 505.784 300.156 506.102 299.5C506.424 298.839 506.872 298.323 507.445 297.953C508.023 297.578 508.648 297.391 509.32 297.391C510.419 297.391 511.273 297.753 511.883 298.477C512.492 299.201 512.797 300.237 512.797 301.586V302.188H507.07C507.091 303.021 507.333 303.695 507.797 304.211C508.266 304.721 508.859 304.977 509.578 304.977C510.089 304.977 510.521 304.872 510.875 304.664C511.229 304.456 511.539 304.18 511.805 303.836L512.688 304.523C511.979 305.612 510.917 306.156 509.5 306.156ZM509.32 298.578C508.737 298.578 508.247 298.792 507.852 299.219C507.456 299.641 507.211 300.234 507.117 301H511.352V300.891C511.31 300.156 511.112 299.589 510.758 299.188C510.404 298.781 509.924 298.578 509.32 298.578ZM515.188 306V298.664H513.852V297.547H515.188V296.68C515.188 295.773 515.43 295.073 515.914 294.578C516.398 294.083 517.083 293.836 517.969 293.836C518.302 293.836 518.633 293.88 518.961 293.969L518.883 295.141C518.638 295.094 518.378 295.07 518.102 295.07C517.633 295.07 517.271 295.208 517.016 295.484C516.76 295.755 516.633 296.146 516.633 296.656V297.547H518.438V298.664H516.633V306H515.188ZM525.258 306C525.174 305.833 525.107 305.536 525.055 305.109C524.383 305.807 523.581 306.156 522.648 306.156C521.815 306.156 521.13 305.922 520.594 305.453C520.062 304.979 519.797 304.38 519.797 303.656C519.797 302.776 520.13 302.094 520.797 301.609C521.469 301.12 522.411 300.875 523.625 300.875H525.031V300.211C525.031 299.706 524.88 299.305 524.578 299.008C524.276 298.706 523.831 298.555 523.242 298.555C522.727 298.555 522.294 298.685 521.945 298.945C521.596 299.206 521.422 299.521 521.422 299.891H519.969C519.969 299.469 520.117 299.062 520.414 298.672C520.716 298.276 521.122 297.964 521.633 297.734C522.148 297.505 522.714 297.391 523.328 297.391C524.302 297.391 525.065 297.635 525.617 298.125C526.169 298.609 526.456 299.279 526.477 300.133V304.023C526.477 304.799 526.576 305.417 526.773 305.875V306H525.258ZM522.859 304.898C523.312 304.898 523.742 304.781 524.148 304.547C524.555 304.312 524.849 304.008 525.031 303.633V301.898H523.898C522.128 301.898 521.242 302.417 521.242 303.453C521.242 303.906 521.393 304.26 521.695 304.516C521.997 304.771 522.385 304.898 522.859 304.898ZM533.961 305.164C533.398 305.826 532.573 306.156 531.484 306.156C530.583 306.156 529.896 305.896 529.422 305.375C528.953 304.849 528.716 304.073 528.711 303.047V297.547H530.156V303.008C530.156 304.289 530.677 304.93 531.719 304.93C532.823 304.93 533.557 304.518 533.922 303.695V297.547H535.367V306H533.992L533.961 305.164ZM539.141 306H537.695V294H539.141V306ZM543.422 295.5V297.547H545V298.664H543.422V303.906C543.422 304.245 543.492 304.5 543.633 304.672C543.773 304.839 544.013 304.922 544.352 304.922C544.518 304.922 544.747 304.891 545.039 304.828V306C544.659 306.104 544.289 306.156 543.93 306.156C543.284 306.156 542.797 305.961 542.469 305.57C542.141 305.18 541.977 304.625 541.977 303.906V298.664H540.438V297.547H541.977V295.5H543.422Z" fill="#5452F6"/>
<rect x="407.5" y="269.5" width="184" height="62" rx="7.5" stroke="#5452F6"/>
</g>
<g filter="url(#filter1_d)">
<rect y="541" width="158" height="63" rx="8" fill="white"/>
<path d="M48.8516 569.547L48.8984 570.609C49.5443 569.797 50.388 569.391 51.4297 569.391C53.2161 569.391 54.1172 570.398 54.1328 572.414V578H52.6875V572.406C52.6823 571.797 52.5417 571.346 52.2656 571.055C51.9948 570.763 51.5703 570.617 50.9922 570.617C50.5234 570.617 50.112 570.742 49.7578 570.992C49.4036 571.242 49.1276 571.57 48.9297 571.977V578H47.4844V569.547H48.8516ZM61.5312 578C61.4479 577.833 61.3802 577.536 61.3281 577.109C60.6562 577.807 59.8542 578.156 58.9219 578.156C58.0885 578.156 57.4036 577.922 56.8672 577.453C56.3359 576.979 56.0703 576.38 56.0703 575.656C56.0703 574.776 56.4036 574.094 57.0703 573.609C57.7422 573.12 58.6849 572.875 59.8984 572.875H61.3047V572.211C61.3047 571.706 61.1536 571.305 60.8516 571.008C60.5495 570.706 60.1042 570.555 59.5156 570.555C59 570.555 58.5677 570.685 58.2188 570.945C57.8698 571.206 57.6953 571.521 57.6953 571.891H56.2422C56.2422 571.469 56.3906 571.062 56.6875 570.672C56.9896 570.276 57.3958 569.964 57.9062 569.734C58.4219 569.505 58.987 569.391 59.6016 569.391C60.5755 569.391 61.3385 569.635 61.8906 570.125C62.4427 570.609 62.7292 571.279 62.75 572.133V576.023C62.75 576.799 62.849 577.417 63.0469 577.875V578H61.5312ZM59.1328 576.898C59.5859 576.898 60.0156 576.781 60.4219 576.547C60.8281 576.312 61.1224 576.008 61.3047 575.633V573.898H60.1719C58.401 573.898 57.5156 574.417 57.5156 575.453C57.5156 575.906 57.6667 576.26 57.9688 576.516C58.2708 576.771 58.6589 576.898 59.1328 576.898ZM66.9766 567.5V569.547H68.5547V570.664H66.9766V575.906C66.9766 576.245 67.0469 576.5 67.1875 576.672C67.3281 576.839 67.5677 576.922 67.9062 576.922C68.0729 576.922 68.3021 576.891 68.5938 576.828V578C68.2135 578.104 67.8438 578.156 67.4844 578.156C66.8385 578.156 66.3516 577.961 66.0234 577.57C65.6953 577.18 65.5312 576.625 65.5312 575.906V570.664H63.9922V569.547H65.5312V567.5H66.9766ZM73.9453 568.812C73.9453 568.13 74.1615 567.568 74.5938 567.125C75.0312 566.682 75.5911 566.461 76.2734 566.461C76.9661 566.461 77.526 566.685 77.9531 567.133C78.3854 567.576 78.6016 568.151 78.6016 568.859V569.414C78.6016 570.102 78.3828 570.664 77.9453 571.102C77.513 571.534 76.9609 571.75 76.2891 571.75C75.612 571.75 75.0521 571.534 74.6094 571.102C74.1667 570.664 73.9453 570.083 73.9453 569.359V568.812ZM75.0234 569.414C75.0234 569.82 75.138 570.156 75.3672 570.422C75.5964 570.682 75.9036 570.812 76.2891 570.812C76.6589 570.812 76.9557 570.685 77.1797 570.43C77.4089 570.174 77.5234 569.826 77.5234 569.383V568.812C77.5234 568.406 77.4115 568.07 77.1875 567.805C76.9635 567.539 76.6589 567.406 76.2734 567.406C75.888 567.406 75.5833 567.539 75.3594 567.805C75.1354 568.07 75.0234 568.417 75.0234 568.844V569.414ZM79.4844 575.211C79.4844 574.529 79.7005 573.969 80.1328 573.531C80.5703 573.089 81.1302 572.867 81.8125 572.867C82.4948 572.867 83.0547 573.086 83.4922 573.523C83.9297 573.961 84.1484 574.542 84.1484 575.266V575.82C84.1484 576.503 83.9297 577.065 83.4922 577.508C83.0599 577.945 82.5052 578.164 81.8281 578.164C81.151 578.164 80.5911 577.948 80.1484 577.516C79.7057 577.078 79.4844 576.497 79.4844 575.773V575.211ZM80.5625 575.82C80.5625 576.232 80.6771 576.57 80.9062 576.836C81.1354 577.096 81.4427 577.227 81.8281 577.227C82.2031 577.227 82.5026 577.099 82.7266 576.844C82.9505 576.583 83.0625 576.232 83.0625 575.789V575.211C83.0625 574.799 82.9479 574.464 82.7188 574.203C82.4948 573.943 82.1927 573.812 81.8125 573.812C81.4427 573.812 81.1406 573.943 80.9062 574.203C80.6771 574.458 80.5625 574.805 80.5625 575.242V575.82ZM76.6172 577.141L75.7969 576.625L81.3516 567.734L82.1719 568.25L76.6172 577.141ZM91.1562 578C91.0729 577.833 91.0052 577.536 90.9531 577.109C90.2812 577.807 89.4792 578.156 88.5469 578.156C87.7135 578.156 87.0286 577.922 86.4922 577.453C85.9609 576.979 85.6953 576.38 85.6953 575.656C85.6953 574.776 86.0286 574.094 86.6953 573.609C87.3672 573.12 88.3099 572.875 89.5234 572.875H90.9297V572.211C90.9297 571.706 90.7786 571.305 90.4766 571.008C90.1745 570.706 89.7292 570.555 89.1406 570.555C88.625 570.555 88.1927 570.685 87.8438 570.945C87.4948 571.206 87.3203 571.521 87.3203 571.891H85.8672C85.8672 571.469 86.0156 571.062 86.3125 570.672C86.6146 570.276 87.0208 569.964 87.5312 569.734C88.0469 569.505 88.612 569.391 89.2266 569.391C90.2005 569.391 90.9635 569.635 91.5156 570.125C92.0677 570.609 92.3542 571.279 92.375 572.133V576.023C92.375 576.799 92.474 577.417 92.6719 577.875V578H91.1562ZM88.7578 576.898C89.2109 576.898 89.6406 576.781 90.0469 576.547C90.4531 576.312 90.7474 576.008 90.9297 575.633V573.898H89.7969C88.026 573.898 87.1406 574.417 87.1406 575.453C87.1406 575.906 87.2917 576.26 87.5938 576.516C87.8958 576.771 88.2839 576.898 88.7578 576.898ZM94.2891 573.703C94.2891 572.406 94.5964 571.365 95.2109 570.578C95.8255 569.786 96.6302 569.391 97.625 569.391C98.6146 569.391 99.3984 569.729 99.9766 570.406V566H101.422V578H100.094L100.023 577.094C99.4453 577.802 98.6406 578.156 97.6094 578.156C96.6302 578.156 95.8307 577.755 95.2109 576.953C94.5964 576.151 94.2891 575.104 94.2891 573.812V573.703ZM95.7344 573.867C95.7344 574.826 95.9323 575.576 96.3281 576.117C96.724 576.659 97.2708 576.93 97.9688 576.93C98.8854 576.93 99.5547 576.518 99.9766 575.695V571.812C99.5443 571.016 98.8802 570.617 97.9844 570.617C97.276 570.617 96.724 570.891 96.3281 571.438C95.9323 571.984 95.7344 572.794 95.7344 573.867ZM103.32 573.703C103.32 572.406 103.628 571.365 104.242 570.578C104.857 569.786 105.661 569.391 106.656 569.391C107.646 569.391 108.43 569.729 109.008 570.406V566H110.453V578H109.125L109.055 577.094C108.477 577.802 107.672 578.156 106.641 578.156C105.661 578.156 104.862 577.755 104.242 576.953C103.628 576.151 103.32 575.104 103.32 573.812V573.703ZM104.766 573.867C104.766 574.826 104.964 575.576 105.359 576.117C105.755 576.659 106.302 576.93 107 576.93C107.917 576.93 108.586 576.518 109.008 575.695V571.812C108.576 571.016 107.911 570.617 107.016 570.617C106.307 570.617 105.755 570.891 105.359 571.438C104.964 571.984 104.766 572.794 104.766 573.867Z" fill="#5452F6"/>
<rect x="0.5" y="541.5" width="157" height="62" rx="7.5" stroke="#5452F6"/>
</g>
<g filter="url(#filter2_d)">
<rect x="280" y="541" width="157" height="63" rx="8" fill="white"/>
<path d="M328.703 569.547L328.75 570.609C329.396 569.797 330.24 569.391 331.281 569.391C333.068 569.391 333.969 570.398 333.984 572.414V578H332.539V572.406C332.534 571.797 332.393 571.346 332.117 571.055C331.846 570.763 331.422 570.617 330.844 570.617C330.375 570.617 329.964 570.742 329.609 570.992C329.255 571.242 328.979 571.57 328.781 571.977V578H327.336V569.547H328.703ZM341.383 578C341.299 577.833 341.232 577.536 341.18 577.109C340.508 577.807 339.706 578.156 338.773 578.156C337.94 578.156 337.255 577.922 336.719 577.453C336.188 576.979 335.922 576.38 335.922 575.656C335.922 574.776 336.255 574.094 336.922 573.609C337.594 573.12 338.536 572.875 339.75 572.875H341.156V572.211C341.156 571.706 341.005 571.305 340.703 571.008C340.401 570.706 339.956 570.555 339.367 570.555C338.852 570.555 338.419 570.685 338.07 570.945C337.721 571.206 337.547 571.521 337.547 571.891H336.094C336.094 571.469 336.242 571.062 336.539 570.672C336.841 570.276 337.247 569.964 337.758 569.734C338.273 569.505 338.839 569.391 339.453 569.391C340.427 569.391 341.19 569.635 341.742 570.125C342.294 570.609 342.581 571.279 342.602 572.133V576.023C342.602 576.799 342.701 577.417 342.898 577.875V578H341.383ZM338.984 576.898C339.438 576.898 339.867 576.781 340.273 576.547C340.68 576.312 340.974 576.008 341.156 575.633V573.898H340.023C338.253 573.898 337.367 574.417 337.367 575.453C337.367 575.906 337.518 576.26 337.82 576.516C338.122 576.771 338.51 576.898 338.984 576.898ZM346.828 567.5V569.547H348.406V570.664H346.828V575.906C346.828 576.245 346.898 576.5 347.039 576.672C347.18 576.839 347.419 576.922 347.758 576.922C347.924 576.922 348.154 576.891 348.445 576.828V578C348.065 578.104 347.695 578.156 347.336 578.156C346.69 578.156 346.203 577.961 345.875 577.57C345.547 577.18 345.383 576.625 345.383 575.906V570.664H343.844V569.547H345.383V567.5H346.828ZM353.797 568.812C353.797 568.13 354.013 567.568 354.445 567.125C354.883 566.682 355.443 566.461 356.125 566.461C356.818 566.461 357.378 566.685 357.805 567.133C358.237 567.576 358.453 568.151 358.453 568.859V569.414C358.453 570.102 358.234 570.664 357.797 571.102C357.365 571.534 356.812 571.75 356.141 571.75C355.464 571.75 354.904 571.534 354.461 571.102C354.018 570.664 353.797 570.083 353.797 569.359V568.812ZM354.875 569.414C354.875 569.82 354.99 570.156 355.219 570.422C355.448 570.682 355.755 570.812 356.141 570.812C356.51 570.812 356.807 570.685 357.031 570.43C357.26 570.174 357.375 569.826 357.375 569.383V568.812C357.375 568.406 357.263 568.07 357.039 567.805C356.815 567.539 356.51 567.406 356.125 567.406C355.74 567.406 355.435 567.539 355.211 567.805C354.987 568.07 354.875 568.417 354.875 568.844V569.414ZM359.336 575.211C359.336 574.529 359.552 573.969 359.984 573.531C360.422 573.089 360.982 572.867 361.664 572.867C362.346 572.867 362.906 573.086 363.344 573.523C363.781 573.961 364 574.542 364 575.266V575.82C364 576.503 363.781 577.065 363.344 577.508C362.911 577.945 362.357 578.164 361.68 578.164C361.003 578.164 360.443 577.948 360 577.516C359.557 577.078 359.336 576.497 359.336 575.773V575.211ZM360.414 575.82C360.414 576.232 360.529 576.57 360.758 576.836C360.987 577.096 361.294 577.227 361.68 577.227C362.055 577.227 362.354 577.099 362.578 576.844C362.802 576.583 362.914 576.232 362.914 575.789V575.211C362.914 574.799 362.799 574.464 362.57 574.203C362.346 573.943 362.044 573.812 361.664 573.812C361.294 573.812 360.992 573.943 360.758 574.203C360.529 574.458 360.414 574.805 360.414 575.242V575.82ZM356.469 577.141L355.648 576.625L361.203 567.734L362.023 568.25L356.469 577.141ZM370.711 575.758C370.711 575.367 370.562 575.065 370.266 574.852C369.974 574.633 369.461 574.445 368.727 574.289C367.997 574.133 367.417 573.945 366.984 573.727C366.557 573.508 366.24 573.247 366.031 572.945C365.828 572.643 365.727 572.284 365.727 571.867C365.727 571.174 366.018 570.589 366.602 570.109C367.19 569.63 367.94 569.391 368.852 569.391C369.81 569.391 370.586 569.638 371.18 570.133C371.779 570.628 372.078 571.26 372.078 572.031H370.625C370.625 571.635 370.456 571.294 370.117 571.008C369.784 570.721 369.362 570.578 368.852 570.578C368.326 570.578 367.914 570.693 367.617 570.922C367.32 571.151 367.172 571.451 367.172 571.82C367.172 572.169 367.31 572.432 367.586 572.609C367.862 572.786 368.359 572.956 369.078 573.117C369.802 573.279 370.388 573.471 370.836 573.695C371.284 573.919 371.615 574.19 371.828 574.508C372.047 574.82 372.156 575.203 372.156 575.656C372.156 576.411 371.854 577.018 371.25 577.477C370.646 577.93 369.862 578.156 368.898 578.156C368.221 578.156 367.622 578.036 367.102 577.797C366.581 577.557 366.172 577.224 365.875 576.797C365.583 576.365 365.438 575.898 365.438 575.398H366.883C366.909 575.883 367.102 576.268 367.461 576.555C367.826 576.836 368.305 576.977 368.898 576.977C369.445 576.977 369.883 576.867 370.211 576.648C370.544 576.424 370.711 576.128 370.711 575.758ZM379.258 577.164C378.695 577.826 377.87 578.156 376.781 578.156C375.88 578.156 375.193 577.896 374.719 577.375C374.25 576.849 374.013 576.073 374.008 575.047V569.547H375.453V575.008C375.453 576.289 375.974 576.93 377.016 576.93C378.12 576.93 378.854 576.518 379.219 575.695V569.547H380.664V578H379.289L379.258 577.164ZM390.023 573.867C390.023 575.159 389.727 576.198 389.133 576.984C388.539 577.766 387.742 578.156 386.742 578.156C385.674 578.156 384.849 577.779 384.266 577.023L384.195 578H382.867V566H384.312V570.477C384.896 569.753 385.701 569.391 386.727 569.391C387.753 569.391 388.557 569.779 389.141 570.555C389.729 571.331 390.023 572.393 390.023 573.742V573.867ZM388.578 573.703C388.578 572.719 388.388 571.958 388.008 571.422C387.628 570.885 387.081 570.617 386.367 570.617C385.414 570.617 384.729 571.06 384.312 571.945V575.602C384.755 576.487 385.445 576.93 386.383 576.93C387.076 576.93 387.615 576.661 388 576.125C388.385 575.589 388.578 574.781 388.578 573.703Z" fill="#5452F6"/>
<rect x="280.5" y="541.5" width="156" height="62" rx="7.5" stroke="#5452F6"/>
</g>
<path d="M218.5 251V197.475C218.5 186.429 227.454 177.475 238.5 177.475L479.5 177.475C490.546 177.475 499.5 186.429 499.5 197.475L499.5 251" stroke="#65BF73" stroke-width="2"/>
<circle cx="358" cy="116.5" r="5.5" stroke="#65BF73" stroke-width="2"/>
<line x1="358.5" y1="177" x2="358.5" y2="122" stroke="#65BF73" stroke-width="2"/>
<path d="M509.026 241L499.769 251L491 241" stroke="#65BF73" stroke-width="2" stroke-linecap="round" stroke-linejoin="round"/>
<path d="M228.026 241L218.769 251L210 241" stroke="#65BF73" stroke-width="2" stroke-linecap="round" stroke-linejoin="round"/>
<path d="M79.5 523L79.5 469.475C79.5 458.429 88.4543 449.475 99.5 449.475L340.5 449.475C351.546 449.475 360.5 458.429 360.5 469.475L360.5 523" stroke="#65BF73" stroke-width="2"/>
<circle cx="219" cy="388.5" r="5.5" stroke="#65BF73" stroke-width="2"/>
<line x1="219.5" y1="449" x2="219.5" y2="394" stroke="#65BF73" stroke-width="2"/>
<path d="M370.026 513L360.769 523L352 513" stroke="#65BF73" stroke-width="2" stroke-linecap="round" stroke-linejoin="round"/>
<path d="M89.0256 513L79.7692 523L71 513" stroke="#65BF73" stroke-width="2" stroke-linecap="round" stroke-linejoin="round"/>
<g filter="url(#filter3_d)">
<path d="M348.343 5.65686C351.467 2.53266 356.533 2.53266 359.657 5.65685L397.343 43.3431C400.467 46.4673 400.467 51.5327 397.343 54.6569L359.657 92.3431C356.533 95.4673 351.467 95.4673 348.343 92.3431L310.657 54.6569C307.533 51.5327 307.533 46.4673 310.657 43.3431L348.343 5.65686Z" fill="#E7F4FF"/>
<path d="M348.697 6.01041C351.626 3.08148 356.374 3.08148 359.303 6.01041L396.99 43.6967C399.919 46.6256 399.919 51.3744 396.99 54.3033L359.303 91.9896C356.374 94.9185 351.626 94.9185 348.697 91.9896L311.01 54.3033C308.081 51.3744 308.081 46.6256 311.01 43.6967L348.697 6.01041Z" stroke="#2097F6"/>
</g>
<path d="M353.141 49.6797C353.141 50.7943 352.953 51.7682 352.578 52.6016C352.203 53.4297 351.672 54.0625 350.984 54.5C350.297 54.9375 349.495 55.1562 348.578 55.1562C347.682 55.1562 346.888 54.9375 346.195 54.5C345.503 54.0573 344.964 53.4297 344.578 52.6172C344.198 51.7995 344.003 50.8542 343.992 49.7812V48.9609C343.992 47.8672 344.182 46.901 344.562 46.0625C344.943 45.224 345.479 44.5833 346.172 44.1406C346.87 43.6927 347.667 43.4688 348.562 43.4688C349.474 43.4688 350.276 43.6901 350.969 44.1328C351.667 44.5703 352.203 45.2083 352.578 46.0469C352.953 46.8802 353.141 47.8516 353.141 48.9609V49.6797ZM351.648 48.9453C351.648 47.5964 351.378 46.5625 350.836 45.8438C350.294 45.1198 349.536 44.7578 348.562 44.7578C347.615 44.7578 346.867 45.1198 346.32 45.8438C345.779 46.5625 345.5 47.5625 345.484 48.8438V49.6797C345.484 50.987 345.758 52.0156 346.305 52.7656C346.857 53.5104 347.615 53.8828 348.578 53.8828C349.547 53.8828 350.297 53.5312 350.828 52.8281C351.359 52.1198 351.633 51.1068 351.648 49.7891V48.9453ZM359.562 50.3984H356.891V55H355.383V43.625H359.148C360.43 43.625 361.414 43.9167 362.102 44.5C362.794 45.0833 363.141 45.9323 363.141 47.0469C363.141 47.7552 362.948 48.3724 362.562 48.8984C362.182 49.4245 361.651 49.8177 360.969 50.0781L363.641 54.9062V55H362.031L359.562 50.3984ZM356.891 49.1719H359.195C359.94 49.1719 360.531 48.9792 360.969 48.5938C361.411 48.2083 361.633 47.6927 361.633 47.0469C361.633 46.3438 361.422 45.8047 361 45.4297C360.583 45.0547 359.979 44.8646 359.188 44.8594H356.891V49.1719Z" fill="#2097F6"/>
<g filter="url(#filter4_d)">
<path d="M213.343 273.657C216.467 270.533 221.533 270.533 224.657 273.657L262.343 311.343C265.467 314.467 265.467 319.533 262.343 322.657L224.657 360.343C221.533 363.467 216.467 363.467 213.343 360.343L175.657 322.657C172.533 319.533 172.533 314.467 175.657 311.343L213.343 273.657Z" fill="#E7F4FF"/>
<path d="M213.697 274.01C216.626 271.081 221.374 271.081 224.303 274.01L261.99 311.697C264.919 314.626 264.919 319.374 261.99 322.303L224.303 359.99C221.374 362.919 216.626 362.919 213.697 359.99L176.01 322.303C173.081 319.374 173.081 314.626 176.01 311.697L213.697 274.01Z" stroke="#2097F6"/>
</g>
<path d="M218.141 317.68C218.141 318.794 217.953 319.768 217.578 320.602C217.203 321.43 216.672 322.062 215.984 322.5C215.297 322.938 214.495 323.156 213.578 323.156C212.682 323.156 211.888 322.938 211.195 322.5C210.503 322.057 209.964 321.43 209.578 320.617C209.198 319.799 209.003 318.854 208.992 317.781V316.961C208.992 315.867 209.182 314.901 209.562 314.062C209.943 313.224 210.479 312.583 211.172 312.141C211.87 311.693 212.667 311.469 213.562 311.469C214.474 311.469 215.276 311.69 215.969 312.133C216.667 312.57 217.203 313.208 217.578 314.047C217.953 314.88 218.141 315.852 218.141 316.961V317.68ZM216.648 316.945C216.648 315.596 216.378 314.562 215.836 313.844C215.294 313.12 214.536 312.758 213.562 312.758C212.615 312.758 211.867 313.12 211.32 313.844C210.779 314.562 210.5 315.562 210.484 316.844V317.68C210.484 318.987 210.758 320.016 211.305 320.766C211.857 321.51 212.615 321.883 213.578 321.883C214.547 321.883 215.297 321.531 215.828 320.828C216.359 320.12 216.633 319.107 216.648 317.789V316.945ZM224.562 318.398H221.891V323H220.383V311.625H224.148C225.43 311.625 226.414 311.917 227.102 312.5C227.794 313.083 228.141 313.932 228.141 315.047C228.141 315.755 227.948 316.372 227.562 316.898C227.182 317.424 226.651 317.818 225.969 318.078L228.641 322.906V323H227.031L224.562 318.398ZM221.891 317.172H224.195C224.94 317.172 225.531 316.979 225.969 316.594C226.411 316.208 226.633 315.693 226.633 315.047C226.633 314.344 226.422 313.805 226 313.43C225.583 313.055 224.979 312.865 224.188 312.859H221.891V317.172Z" fill="#2097F6"/>
<rect x="441.5" y="367.5" width="111" height="35" rx="7.5" fill="white" stroke="#2097F6" stroke-dasharray="5 8"/>
<path d="M508 368L500.413 355.585C498.853 353.033 495.147 353.033 493.587 355.585L486 368L508 368Z" fill="white"/>
<path d="M513 367.5L508 367.5L507.258 366.319L500.387 355.388C498.818 352.893 495.182 352.893 493.613 355.388L486 367.5" stroke="#2097F6" stroke-width="0.5" stroke-linecap="round" stroke-linejoin="round" stroke-dasharray="5.8 5.8"/>
<path d="M490.492 390.168C489.531 390.168 488.7 389.958 488 389.538C487.31 389.109 486.773 388.516 486.39 387.76C486.008 386.995 485.816 386.108 485.816 385.1C485.816 384.101 486.008 383.224 486.39 382.468C486.773 381.703 487.31 381.105 488 380.676C488.7 380.247 489.531 380.032 490.492 380.032C491.612 380.032 492.522 380.303 493.222 380.844C493.932 381.376 494.384 382.123 494.58 383.084H493.278C493.129 382.477 492.821 381.992 492.354 381.628C491.897 381.255 491.276 381.068 490.492 381.068C489.792 381.068 489.181 381.231 488.658 381.558C488.136 381.875 487.73 382.337 487.44 382.944C487.16 383.541 487.02 384.26 487.02 385.1C487.02 385.94 487.16 386.663 487.44 387.27C487.73 387.867 488.136 388.329 488.658 388.656C489.181 388.973 489.792 389.132 490.492 389.132C491.276 389.132 491.897 388.955 492.354 388.6C492.821 388.236 493.129 387.755 493.278 387.158H494.58C494.384 388.101 493.932 388.838 493.222 389.37C492.522 389.902 491.612 390.168 490.492 390.168ZM496.551 390V380.2H499.561C501.287 380.2 502.557 380.639 503.369 381.516C504.19 382.393 504.601 383.597 504.601 385.128C504.601 386.631 504.19 387.821 503.369 388.698C502.557 389.566 501.287 390 499.561 390H496.551ZM497.727 389.02H499.533C500.485 389.02 501.241 388.866 501.801 388.558C502.37 388.241 502.776 387.793 503.019 387.214C503.261 386.626 503.383 385.931 503.383 385.128C503.383 384.307 503.261 383.602 503.019 383.014C502.776 382.426 502.37 381.973 501.801 381.656C501.241 381.339 500.485 381.18 499.533 381.18H497.727V389.02ZM506.579 390V380.2H509.743C510.508 380.2 511.133 380.326 511.619 380.578C512.104 380.83 512.463 381.175 512.697 381.614C512.93 382.053 513.047 382.538 513.047 383.07C513.047 383.686 512.879 384.241 512.543 384.736C512.216 385.231 511.703 385.581 511.003 385.786L513.145 390H511.759L509.771 385.954H509.687H507.755V390H506.579ZM507.755 385.03H509.659C510.415 385.03 510.965 384.848 511.311 384.484C511.656 384.12 511.829 383.653 511.829 383.084C511.829 382.505 511.656 382.048 511.311 381.712C510.975 381.367 510.419 381.194 509.645 381.194H507.755V385.03Z" fill="#2097F6"/>
<rect x="303.5" y="634.5" width="111" height="35" rx="7.5" fill="white" stroke="#2097F6" stroke-dasharray="5 8"/>
<path d="M370 635L362.413 622.585C360.853 620.033 357.147 620.033 355.587 622.585L348 635L370 635Z" fill="white"/>
<path d="M375 634.5L370 634.5L369.258 633.319L362.387 622.388C360.818 619.893 357.182 619.893 355.613 622.388L348 634.5" stroke="#2097F6" stroke-width="0.5" stroke-linecap="round" stroke-linejoin="round" stroke-dasharray="5.8 5.8"/>
<path d="M347.82 657.168C346.859 657.168 346.028 656.958 345.328 656.538C344.638 656.109 344.101 655.516 343.718 654.76C343.336 653.995 343.144 653.108 343.144 652.1C343.144 651.101 343.336 650.224 343.718 649.468C344.101 648.703 344.638 648.105 345.328 647.676C346.028 647.247 346.859 647.032 347.82 647.032C348.94 647.032 349.85 647.303 350.55 647.844C351.26 648.376 351.712 649.123 351.908 650.084H350.606C350.457 649.477 350.149 648.992 349.682 648.628C349.225 648.255 348.604 648.068 347.82 648.068C347.12 648.068 346.509 648.231 345.986 648.558C345.464 648.875 345.058 649.337 344.768 649.944C344.488 650.541 344.348 651.26 344.348 652.1C344.348 652.94 344.488 653.663 344.768 654.27C345.058 654.867 345.464 655.329 345.986 655.656C346.509 655.973 347.12 656.132 347.82 656.132C348.604 656.132 349.225 655.955 349.682 655.6C350.149 655.236 350.457 654.755 350.606 654.158H351.908C351.712 655.101 351.26 655.838 350.55 656.37C349.85 656.902 348.94 657.168 347.82 657.168ZM353.03 657L356.642 647.2H357.888L361.486 657H360.24L359.344 654.48H355.172L354.262 657H353.03ZM355.522 653.528H358.994L357.258 648.684L355.522 653.528ZM363.223 657V647.2H366.233C367.96 647.2 369.229 647.639 370.041 648.516C370.862 649.393 371.273 650.597 371.273 652.128C371.273 653.631 370.862 654.821 370.041 655.698C369.229 656.566 367.96 657 366.233 657H363.223ZM364.399 656.02H366.205C367.157 656.02 367.913 655.866 368.473 655.558C369.042 655.241 369.448 654.793 369.691 654.214C369.934 653.626 370.055 652.931 370.055 652.128C370.055 651.307 369.934 650.602 369.691 650.014C369.448 649.426 369.042 648.973 368.473 648.656C367.913 648.339 367.157 648.18 366.205 648.18H364.399V656.02ZM373.251 657V647.2H376.415C377.18 647.2 377.806 647.326 378.291 647.578C378.776 647.83 379.136 648.175 379.369 648.614C379.602 649.053 379.719 649.538 379.719 650.07C379.719 650.686 379.551 651.241 379.215 651.736C378.888 652.231 378.375 652.581 377.675 652.786L379.817 657H378.431L376.443 652.954H376.359H374.427V657H373.251ZM374.427 652.03H376.331C377.087 652.03 377.638 651.848 377.983 651.484C378.328 651.12 378.501 650.653 378.501 650.084C378.501 649.505 378.328 649.048 377.983 648.712C377.647 648.367 377.092 648.194 376.317 648.194H374.427V652.03Z" fill="#2097F6"/>
<rect x="22.5" y="634.5" width="111" height="35" rx="7.5" fill="white" stroke="#2097F6" stroke-dasharray="5 8"/>
<path d="M89 635L81.4131 622.585C79.8534 620.033 76.1466 620.033 74.5869 622.585L67 635L89 635Z" fill="white"/>
<path d="M94 634.5L89 634.5L88.2577 633.319L81.3865 622.388C79.8182 619.893 76.1818 619.893 74.6135 622.388L67 634.5" stroke="#2097F6" stroke-width="0.5" stroke-linecap="round" stroke-linejoin="round" stroke-dasharray="5.8 5.8"/>
<path d="M66.5458 657.168C65.5845 657.168 64.7538 656.958 64.0538 656.538C63.3632 656.109 62.8265 655.516 62.4438 654.76C62.0612 653.995 61.8698 653.108 61.8698 652.1C61.8698 651.101 62.0612 650.224 62.4438 649.468C62.8265 648.703 63.3632 648.105 64.0538 647.676C64.7538 647.247 65.5845 647.032 66.5458 647.032C67.6658 647.032 68.5758 647.303 69.2758 647.844C69.9852 648.376 70.4378 649.123 70.6338 650.084H69.3318C69.1825 649.477 68.8745 648.992 68.4078 648.628C67.9505 648.255 67.3298 648.068 66.5458 648.068C65.8458 648.068 65.2345 648.231 64.7118 648.558C64.1892 648.875 63.7832 649.337 63.4938 649.944C63.2138 650.541 63.0738 651.26 63.0738 652.1C63.0738 652.94 63.2138 653.663 63.4938 654.27C63.7832 654.867 64.1892 655.329 64.7118 655.656C65.2345 655.973 65.8458 656.132 66.5458 656.132C67.3298 656.132 67.9505 655.955 68.4078 655.6C68.8745 655.236 69.1825 654.755 69.3318 654.158H70.6338C70.4378 655.101 69.9852 655.838 69.2758 656.37C68.5758 656.902 67.6658 657.168 66.5458 657.168ZM71.7556 657L75.3676 647.2H76.6136L80.2116 657H78.9656L78.0696 654.48H73.8976L72.9876 657H71.7556ZM74.2476 653.528H77.7196L75.9836 648.684L74.2476 653.528ZM81.3325 657L84.9445 647.2H86.1905L89.7885 657H88.5425L87.6465 654.48H83.4745L82.5645 657H81.3325ZM83.8245 653.528H87.2965L85.5605 648.684L83.8245 653.528ZM91.5253 657V647.2H94.6893C95.4547 647.2 96.08 647.326 96.5653 647.578C97.0507 647.83 97.41 648.175 97.6433 648.614C97.8767 649.053 97.9933 649.538 97.9933 650.07C97.9933 650.686 97.8253 651.241 97.4893 651.736C97.1627 652.231 96.6493 652.581 95.9493 652.786L98.0913 657H96.7053L94.7173 652.954H94.6333H92.7013V657H91.5253ZM92.7013 652.03H94.6053C95.3613 652.03 95.912 651.848 96.2573 651.484C96.6027 651.12 96.7753 650.653 96.7753 650.084C96.7753 649.505 96.6027 649.048 96.2573 648.712C95.9213 648.367 95.366 648.194 94.5913 648.194H92.7013V652.03Z" fill="#2097F6"/>
<defs>
<filter id="filter0_d" x="407" y="269" width="189" height="67" filterUnits="userSpaceOnUse" color-interpolation-filters="sRGB">
<feFlood flood-opacity="0" result="BackgroundImageFix"/>
<feColorMatrix in="SourceAlpha" type="matrix" values="0 0 0 0 0 0 0 0 0 0 0 0 0 0 0 0 0 0 127 0"/>
<feOffset dx="4" dy="4"/>
<feColorMatrix type="matrix" values="0 0 0 0 0.674908 0 0 0 0 0.662083 0 0 0 0 0.945833 0 0 0 1 0"/>
<feBlend mode="normal" in2="BackgroundImageFix" result="effect1_dropShadow"/>
<feBlend mode="normal" in="SourceGraphic" in2="effect1_dropShadow" result="shape"/>
</filter>
<filter id="filter1_d" x="0" y="541" width="162" height="67" filterUnits="userSpaceOnUse" color-interpolation-filters="sRGB">
<feFlood flood-opacity="0" result="BackgroundImageFix"/>
<feColorMatrix in="SourceAlpha" type="matrix" values="0 0 0 0 0 0 0 0 0 0 0 0 0 0 0 0 0 0 127 0"/>
<feOffset dx="4" dy="4"/>
<feColorMatrix type="matrix" values="0 0 0 0 0.674908 0 0 0 0 0.662083 0 0 0 0 0.945833 0 0 0 1 0"/>
<feBlend mode="normal" in2="BackgroundImageFix" result="effect1_dropShadow"/>
<feBlend mode="normal" in="SourceGraphic" in2="effect1_dropShadow" result="shape"/>
</filter>
<filter id="filter2_d" x="280" y="541" width="161" height="67" filterUnits="userSpaceOnUse" color-interpolation-filters="sRGB">
<feFlood flood-opacity="0" result="BackgroundImageFix"/>
<feColorMatrix in="SourceAlpha" type="matrix" values="0 0 0 0 0 0 0 0 0 0 0 0 0 0 0 0 0 0 127 0"/>
<feOffset dx="4" dy="4"/>
<feColorMatrix type="matrix" values="0 0 0 0 0.674908 0 0 0 0 0.662083 0 0 0 0 0.945833 0 0 0 1 0"/>
<feBlend mode="normal" in2="BackgroundImageFix" result="effect1_dropShadow"/>
<feBlend mode="normal" in="SourceGraphic" in2="effect1_dropShadow" result="shape"/>
</filter>
<filter id="filter3_d" x="308.314" y="3.31372" width="95.3726" height="95.3726" filterUnits="userSpaceOnUse" color-interpolation-filters="sRGB">
<feFlood flood-opacity="0" result="BackgroundImageFix"/>
<feColorMatrix in="SourceAlpha" type="matrix" values="0 0 0 0 0 0 0 0 0 0 0 0 0 0 0 0 0 0 127 0"/>
<feOffset dx="4" dy="4"/>
<feColorMatrix type="matrix" values="0 0 0 0 0.513733 0 0 0 0 0.767915 0 0 0 0 0.970833 0 0 0 1 0"/>
<feBlend mode="normal" in2="BackgroundImageFix" result="effect1_dropShadow"/>
<feBlend mode="normal" in="SourceGraphic" in2="effect1_dropShadow" result="shape"/>
</filter>
<filter id="filter4_d" x="173.314" y="271.314" width="95.3726" height="95.3726" filterUnits="userSpaceOnUse" color-interpolation-filters="sRGB">
<feFlood flood-opacity="0" result="BackgroundImageFix"/>
<feColorMatrix in="SourceAlpha" type="matrix" values="0 0 0 0 0 0 0 0 0 0 0 0 0 0 0 0 0 0 127 0"/>
<feOffset dx="4" dy="4"/>
<feColorMatrix type="matrix" values="0 0 0 0 0.513733 0 0 0 0 0.767915 0 0 0 0 0.970833 0 0 0 1 0"/>
<feBlend mode="normal" in2="BackgroundImageFix" result="effect1_dropShadow"/>
<feBlend mode="normal" in="SourceGraphic" in2="effect1_dropShadow" result="shape"/>
</filter>
</defs>
</svg>
