<svg width="633" height="147" viewBox="0 0 633 147" fill="none" xmlns="http://www.w3.org/2000/svg">
<line x1="252" y1="119.5" x2="386" y2="119.5" stroke="#65BF73" stroke-width="2"/>
<path d="M376 110L386.5 119.5L376 128.5" stroke="#65BF73" stroke-width="2" stroke-linecap="round" stroke-linejoin="round"/>
<circle cx="247.5" cy="120" r="5.5" stroke="#65BF73" stroke-width="2"/>
<path d="M298.133 100.773V105H296.156V93.625H300.508C301.779 93.625 302.786 93.9557 303.531 94.6172C304.281 95.2786 304.656 96.1536 304.656 97.2422C304.656 98.3568 304.289 99.224 303.555 99.8438C302.826 100.464 301.802 100.773 300.484 100.773H298.133ZM298.133 99.1875H300.508C301.211 99.1875 301.747 99.0234 302.117 98.6953C302.487 98.362 302.672 97.8828 302.672 97.2578C302.672 96.6432 302.484 96.1536 302.109 95.7891C301.734 95.4193 301.219 95.2292 300.562 95.2188H298.133V99.1875ZM311.367 102.352H306.961L306.039 105H303.984L308.281 93.625H310.055L314.359 105H312.297L311.367 102.352ZM307.516 100.758H310.812L309.164 96.0391L307.516 100.758ZM317.742 105H315.773V93.625H317.742V105ZM324.352 100.617H322.148V105H320.172V93.625H324.172C325.484 93.625 326.497 93.9193 327.211 94.5078C327.924 95.0964 328.281 95.9479 328.281 97.0625C328.281 97.8229 328.096 98.4609 327.727 98.9766C327.362 99.487 326.852 99.8802 326.195 100.156L328.75 104.898V105H326.633L324.352 100.617ZM322.148 99.0312H324.18C324.846 99.0312 325.367 98.8646 325.742 98.5312C326.117 98.1927 326.305 97.7318 326.305 97.1484C326.305 96.5391 326.13 96.0677 325.781 95.7344C325.438 95.401 324.922 95.2292 324.234 95.2188H322.148V99.0312Z" fill="#65BF73"/>
<g filter="url(#filter0_d)">
<path d="M400 48C400 43.5817 403.582 40 408 40H621C625.418 40 629 43.5817 629 48V120H400V48Z" fill="white"/>
<path d="M400.5 48C400.5 43.8579 403.858 40.5 408 40.5H621C625.142 40.5 628.5 43.8579 628.5 48V119.5H400.5V48Z" stroke="#5452F6"/>
</g>
<g filter="url(#filter1_d)">
<path d="M400 119H629V135C629 139.418 625.418 143 621 143H408C403.582 143 400 139.418 400 135V119Z" fill="#EEEEFF"/>
<path d="M400.5 119.5H628.5V135C628.5 139.142 625.142 142.5 621 142.5H408C403.858 142.5 400.5 139.142 400.5 135V119.5Z" stroke="#5452F6"/>
</g>
<line x1="400.5" y1="79.5" x2="628.5" y2="79.5" stroke="#5452F6"/>
<path d="M473.789 102.07C473.789 101.57 473.612 101.185 473.258 100.914C472.909 100.643 472.276 100.37 471.359 100.094C470.443 99.8177 469.714 99.5104 469.172 99.1719C468.135 98.5208 467.617 97.6719 467.617 96.625C467.617 95.7083 467.99 94.9531 468.734 94.3594C469.484 93.7656 470.456 93.4688 471.648 93.4688C472.44 93.4688 473.146 93.6146 473.766 93.9062C474.385 94.1979 474.872 94.6146 475.227 95.1562C475.581 95.6927 475.758 96.2891 475.758 96.9453H473.789C473.789 96.3516 473.602 95.888 473.227 95.5547C472.857 95.2161 472.326 95.0469 471.633 95.0469C470.987 95.0469 470.484 95.1849 470.125 95.4609C469.771 95.737 469.594 96.1224 469.594 96.6172C469.594 97.0339 469.786 97.3828 470.172 97.6641C470.557 97.9401 471.193 98.2109 472.078 98.4766C472.964 98.737 473.674 99.0365 474.211 99.375C474.747 99.7083 475.141 100.094 475.391 100.531C475.641 100.964 475.766 101.471 475.766 102.055C475.766 103.003 475.401 103.758 474.672 104.32C473.948 104.878 472.964 105.156 471.719 105.156C470.896 105.156 470.138 105.005 469.445 104.703C468.758 104.396 468.221 103.974 467.836 103.438C467.456 102.901 467.266 102.276 467.266 101.562H469.242C469.242 102.208 469.456 102.708 469.883 103.062C470.31 103.417 470.922 103.594 471.719 103.594C472.406 103.594 472.922 103.456 473.266 103.18C473.615 102.898 473.789 102.529 473.789 102.07ZM479.695 94.4922V96.5469H481.188V97.9531H479.695V102.672C479.695 102.995 479.758 103.229 479.883 103.375C480.013 103.516 480.242 103.586 480.57 103.586C480.789 103.586 481.01 103.56 481.234 103.508V104.977C480.802 105.096 480.385 105.156 479.984 105.156C478.526 105.156 477.797 104.352 477.797 102.742V97.9531H476.406V96.5469H477.797V94.4922H479.695ZM487.07 98.2812C486.82 98.2396 486.562 98.2188 486.297 98.2188C485.427 98.2188 484.841 98.5521 484.539 99.2188V105H482.641V96.5469H484.453L484.5 97.4922C484.958 96.7578 485.594 96.3906 486.406 96.3906C486.677 96.3906 486.901 96.4271 487.078 96.5L487.07 98.2812ZM490.289 105H488.391V96.5469H490.289V105ZM488.273 94.3516C488.273 94.0599 488.365 93.8177 488.547 93.625C488.734 93.4323 489 93.3359 489.344 93.3359C489.688 93.3359 489.953 93.4323 490.141 93.625C490.328 93.8177 490.422 94.0599 490.422 94.3516C490.422 94.638 490.328 94.8776 490.141 95.0703C489.953 95.2578 489.688 95.3516 489.344 95.3516C489 95.3516 488.734 95.2578 488.547 95.0703C488.365 94.8776 488.273 94.638 488.273 94.3516ZM494.125 96.5469L494.18 97.5234C494.805 96.7682 495.625 96.3906 496.641 96.3906C498.401 96.3906 499.297 97.3984 499.328 99.4141V105H497.43V99.5234C497.43 98.987 497.312 98.5911 497.078 98.3359C496.849 98.0755 496.471 97.9453 495.945 97.9453C495.18 97.9453 494.609 98.2917 494.234 98.9844V105H492.336V96.5469H494.125ZM500.938 100.711C500.938 99.3984 501.245 98.3516 501.859 97.5703C502.479 96.7839 503.299 96.3906 504.32 96.3906C505.284 96.3906 506.042 96.7266 506.594 97.3984L506.68 96.5469H508.391V104.742C508.391 105.852 508.044 106.727 507.352 107.367C506.664 108.008 505.734 108.328 504.562 108.328C503.943 108.328 503.336 108.198 502.742 107.938C502.154 107.682 501.706 107.346 501.398 106.93L502.297 105.789C502.88 106.482 503.599 106.828 504.453 106.828C505.083 106.828 505.581 106.656 505.945 106.312C506.31 105.974 506.492 105.474 506.492 104.812V104.242C505.945 104.852 505.216 105.156 504.305 105.156C503.315 105.156 502.505 104.763 501.875 103.977C501.25 103.19 500.938 102.102 500.938 100.711ZM502.828 100.875C502.828 101.724 503 102.393 503.344 102.883C503.693 103.367 504.174 103.609 504.789 103.609C505.555 103.609 506.122 103.281 506.492 102.625V98.9062C506.133 98.2656 505.57 97.9453 504.805 97.9453C504.18 97.9453 503.693 98.1927 503.344 98.6875C503 99.1823 502.828 99.9115 502.828 100.875ZM515.633 92.7969L516.602 93.3984C516.128 94.0911 515.883 94.8125 515.867 95.5625V96.75H514.203V95.6719C514.208 95.1719 514.344 94.651 514.609 94.1094C514.88 93.5625 515.221 93.125 515.633 92.7969ZM518.258 92.7969L519.227 93.3984C518.753 94.0911 518.508 94.8125 518.492 95.5625V96.75H516.828V95.6719C516.833 95.1719 516.969 94.651 517.234 94.1094C517.505 93.5625 517.846 93.125 518.258 92.7969ZM529.703 105H527.734V99.9453H522.648V105H520.672V93.625H522.648V98.3594H527.734V93.625H529.703V105ZM535.586 105.156C534.383 105.156 533.406 104.779 532.656 104.023C531.911 103.263 531.539 102.253 531.539 100.992V100.758C531.539 99.9141 531.701 99.1615 532.023 98.5C532.352 97.8333 532.81 97.3151 533.398 96.9453C533.987 96.5755 534.643 96.3906 535.367 96.3906C536.518 96.3906 537.406 96.7578 538.031 97.4922C538.661 98.2266 538.977 99.2656 538.977 100.609V101.375H533.453C533.51 102.073 533.742 102.625 534.148 103.031C534.56 103.438 535.076 103.641 535.695 103.641C536.565 103.641 537.273 103.289 537.82 102.586L538.844 103.562C538.505 104.068 538.052 104.461 537.484 104.742C536.922 105.018 536.289 105.156 535.586 105.156ZM535.359 97.9141C534.839 97.9141 534.417 98.0964 534.094 98.4609C533.776 98.8255 533.573 99.3333 533.484 99.9844H537.102V99.8438C537.06 99.2083 536.891 98.7292 536.594 98.4062C536.297 98.0781 535.885 97.9141 535.359 97.9141ZM542.477 105H540.578V93H542.477V105ZM546.57 105H544.672V93H546.57V105ZM548.289 100.695C548.289 99.8672 548.453 99.1224 548.781 98.4609C549.109 97.7943 549.57 97.2839 550.164 96.9297C550.758 96.5703 551.44 96.3906 552.211 96.3906C553.352 96.3906 554.276 96.7578 554.984 97.4922C555.698 98.2266 556.083 99.2005 556.141 100.414L556.148 100.859C556.148 101.693 555.987 102.438 555.664 103.094C555.346 103.75 554.888 104.258 554.289 104.617C553.695 104.977 553.008 105.156 552.227 105.156C551.034 105.156 550.078 104.76 549.359 103.969C548.646 103.172 548.289 102.112 548.289 100.789V100.695ZM550.188 100.859C550.188 101.729 550.367 102.411 550.727 102.906C551.086 103.396 551.586 103.641 552.227 103.641C552.867 103.641 553.365 103.391 553.719 102.891C554.078 102.391 554.258 101.659 554.258 100.695C554.258 99.8411 554.073 99.1641 553.703 98.6641C553.339 98.1641 552.841 97.9141 552.211 97.9141C551.591 97.9141 551.099 98.1615 550.734 98.6562C550.37 99.1458 550.188 99.8802 550.188 100.859ZM557.562 97L556.594 96.3984C557.062 95.7161 557.305 94.9948 557.32 94.2344V93H558.984V94.0781C558.984 94.6146 558.846 95.1562 558.57 95.7031C558.299 96.2448 557.964 96.6771 557.562 97ZM560.172 97L559.203 96.3984C559.672 95.7161 559.914 94.9948 559.93 94.2344V93H561.594V94.0781C561.594 94.6146 561.456 95.1562 561.18 95.7031C560.909 96.2448 560.573 96.6771 560.172 97Z" fill="#5452F6"/>
<path d="M453.039 60.7734V65H451.062V53.625H455.414C456.685 53.625 457.693 53.9557 458.438 54.6172C459.188 55.2786 459.562 56.1536 459.562 57.2422C459.562 58.3568 459.195 59.224 458.461 59.8438C457.732 60.4635 456.708 60.7734 455.391 60.7734H453.039ZM453.039 59.1875H455.414C456.117 59.1875 456.654 59.0234 457.023 58.6953C457.393 58.362 457.578 57.8828 457.578 57.2578C457.578 56.6432 457.391 56.1536 457.016 55.7891C456.641 55.4193 456.125 55.2292 455.469 55.2188H453.039V59.1875ZM466.273 62.3516H461.867L460.945 65H458.891L463.188 53.625H464.961L469.266 65H467.203L466.273 62.3516ZM462.422 60.7578H465.719L464.07 56.0391L462.422 60.7578ZM472.648 65H470.68V53.625H472.648V65ZM479.258 60.6172H477.055V65H475.078V53.625H479.078C480.391 53.625 481.404 53.9193 482.117 54.5078C482.831 55.0964 483.188 55.9479 483.188 57.0625C483.188 57.8229 483.003 58.4609 482.633 58.9766C482.268 59.487 481.758 59.8802 481.102 60.1562L483.656 64.8984V65H481.539L479.258 60.6172ZM477.055 59.0312H479.086C479.753 59.0312 480.273 58.8646 480.648 58.5312C481.023 58.1927 481.211 57.7318 481.211 57.1484C481.211 56.5391 481.036 56.0677 480.688 55.7344C480.344 55.401 479.828 55.2292 479.141 55.2188H477.055V59.0312ZM484.906 60.375C484.906 59.1719 485.068 58.0312 485.391 56.9531C485.714 55.8698 486.188 54.9036 486.812 54.0547C487.438 53.2005 488.099 52.6016 488.797 52.2578L489.172 53.3672C488.438 53.9245 487.841 54.776 487.383 55.9219C486.93 57.0625 486.682 58.3698 486.641 59.8438L486.633 60.5156C486.633 62.0938 486.854 63.5026 487.297 64.7422C487.745 65.9766 488.37 66.9167 489.172 67.5625L488.797 68.6172C488.099 68.2734 487.435 67.6719 486.805 66.8125C486.18 65.9583 485.706 64.9948 485.383 63.9219C485.065 62.8438 484.906 61.6615 484.906 60.375ZM492.477 65H490.578V56.5469H492.477V65ZM490.461 54.3516C490.461 54.0599 490.552 53.8177 490.734 53.625C490.922 53.4323 491.188 53.3359 491.531 53.3359C491.875 53.3359 492.141 53.4323 492.328 53.625C492.516 53.8177 492.609 54.0599 492.609 54.3516C492.609 54.638 492.516 54.8776 492.328 55.0703C492.141 55.2578 491.875 55.3516 491.531 55.3516C491.188 55.3516 490.922 55.2578 490.734 55.0703C490.552 54.8776 490.461 54.638 490.461 54.3516ZM496.312 56.5469L496.367 57.5234C496.992 56.7682 497.812 56.3906 498.828 56.3906C500.589 56.3906 501.484 57.3984 501.516 59.4141V65H499.617V59.5234C499.617 58.987 499.5 58.5911 499.266 58.3359C499.036 58.0755 498.659 57.9453 498.133 57.9453C497.367 57.9453 496.797 58.2917 496.422 58.9844V65H494.523V56.5469H496.312ZM505.836 54.4922V56.5469H507.328V57.9531H505.836V62.6719C505.836 62.9948 505.898 63.2292 506.023 63.375C506.154 63.5156 506.383 63.5859 506.711 63.5859C506.93 63.5859 507.151 63.5599 507.375 63.5078V64.9766C506.943 65.0964 506.526 65.1562 506.125 65.1562C504.667 65.1562 503.938 64.3516 503.938 62.7422V57.9531H502.547V56.5469H503.938V54.4922H505.836ZM520.219 54.6797L515.672 65H513.68L518.219 55.1484H512.336V53.625H520.219V54.6797ZM522.133 67.5625L521.109 66.9531C521.411 66.4792 521.617 66.0651 521.727 65.7109C521.841 65.362 521.901 65.0052 521.906 64.6406V63.1641H523.617L523.609 64.5312C523.604 65.0833 523.464 65.6354 523.188 66.1875C522.917 66.7448 522.565 67.2031 522.133 67.5625ZM531.125 56.5469L531.18 57.5234C531.805 56.7682 532.625 56.3906 533.641 56.3906C535.401 56.3906 536.297 57.3984 536.328 59.4141V65H534.43V59.5234C534.43 58.987 534.312 58.5911 534.078 58.3359C533.849 58.0755 533.471 57.9453 532.945 57.9453C532.18 57.9453 531.609 58.2917 531.234 58.9844V65H529.336V56.5469H531.125ZM543.32 65C543.237 64.8385 543.164 64.5755 543.102 64.2109C542.497 64.8411 541.758 65.1562 540.883 65.1562C540.034 65.1562 539.341 64.9141 538.805 64.4297C538.268 63.9453 538 63.3464 538 62.6328C538 61.7318 538.333 61.0417 539 60.5625C539.672 60.0781 540.63 59.8359 541.875 59.8359H543.039V59.2812C543.039 58.8438 542.917 58.4948 542.672 58.2344C542.427 57.9688 542.055 57.8359 541.555 57.8359C541.122 57.8359 540.768 57.9453 540.492 58.1641C540.216 58.3776 540.078 58.651 540.078 58.9844H538.18C538.18 58.5208 538.333 58.0885 538.641 57.6875C538.948 57.2812 539.365 56.9635 539.891 56.7344C540.422 56.5052 541.013 56.3906 541.664 56.3906C542.654 56.3906 543.443 56.6406 544.031 57.1406C544.62 57.6354 544.922 58.3333 544.938 59.2344V63.0469C544.938 63.8073 545.044 64.4141 545.258 64.8672V65H543.32ZM541.234 63.6328C541.609 63.6328 541.961 63.5417 542.289 63.3594C542.622 63.1771 542.872 62.9323 543.039 62.625V61.0312H542.016C541.312 61.0312 540.784 61.1536 540.43 61.3984C540.076 61.6432 539.898 61.9896 539.898 62.4375C539.898 62.8021 540.018 63.0938 540.258 63.3125C540.503 63.526 540.828 63.6328 541.234 63.6328ZM549.305 54.4922V56.5469H550.797V57.9531H549.305V62.6719C549.305 62.9948 549.367 63.2292 549.492 63.375C549.622 63.5156 549.852 63.5859 550.18 63.5859C550.398 63.5859 550.62 63.5599 550.844 63.5078V64.9766C550.411 65.0964 549.995 65.1562 549.594 65.1562C548.135 65.1562 547.406 64.3516 547.406 62.7422V57.9531H546.016V56.5469H547.406V54.4922H549.305ZM562.539 60.9453H563.953V62.4688H562.539V65H560.641V62.4688H555.727L555.672 61.3125L560.578 53.625H562.539V60.9453ZM557.664 60.9453H560.641V56.1953L560.5 56.4453L557.664 60.9453ZM572.859 65H565.211V63.6953L569 59.5625C569.547 58.9531 569.935 58.4453 570.164 58.0391C570.398 57.6276 570.516 57.2161 570.516 56.8047C570.516 56.263 570.362 55.8255 570.055 55.4922C569.753 55.1589 569.344 54.9922 568.828 54.9922C568.214 54.9922 567.737 55.1797 567.398 55.5547C567.06 55.9297 566.891 56.4427 566.891 57.0938H564.992C564.992 56.401 565.148 55.7786 565.461 55.2266C565.779 54.6693 566.229 54.237 566.812 53.9297C567.401 53.6224 568.078 53.4688 568.844 53.4688C569.948 53.4688 570.818 53.7474 571.453 54.3047C572.094 54.8568 572.414 55.6224 572.414 56.6016C572.414 57.1693 572.253 57.7656 571.93 58.3906C571.612 59.0104 571.089 59.7161 570.359 60.5078L567.578 63.4844H572.859V65ZM578.086 60.5C578.086 61.6562 577.927 62.7734 577.609 63.8516C577.292 64.9245 576.81 65.901 576.164 66.7812C575.518 67.6667 574.844 68.2786 574.141 68.6172L573.766 67.5625C574.547 66.9583 575.164 66.0365 575.617 64.7969C576.076 63.5521 576.305 62.1328 576.305 60.5391V60.3594C576.305 58.9115 576.107 57.5938 575.711 56.4062C575.315 55.2135 574.747 54.2578 574.008 53.5391L573.766 53.3203L574.141 52.2578C574.807 52.5807 575.453 53.1536 576.078 53.9766C576.703 54.7995 577.182 55.7214 577.516 56.7422C577.849 57.7578 578.036 58.8073 578.078 59.8906L578.086 60.5Z" fill="#FF5A43"/>
<g filter="url(#filter2_d)">
<path d="M0 8C0 3.58172 3.58172 0 8 0H221C225.418 0 229 3.58172 229 8V120H0V8Z" fill="white"/>
<line x1="0.5" y1="79.5" x2="228.5" y2="79.5" stroke="#5452F6"/>
<line x1="0.5" y1="39.5" x2="228.5" y2="39.5" stroke="#5452F6"/>
<path d="M73.7891 102.07C73.7891 101.57 73.612 101.185 73.2578 100.914C72.9089 100.643 72.276 100.37 71.3594 100.094C70.4427 99.8177 69.7135 99.5104 69.1719 99.1719C68.1354 98.5208 67.6172 97.6719 67.6172 96.625C67.6172 95.7083 67.9896 94.9531 68.7344 94.3594C69.4844 93.7656 70.4557 93.4688 71.6484 93.4688C72.4401 93.4688 73.1458 93.6146 73.7656 93.9062C74.3854 94.1979 74.8724 94.6146 75.2266 95.1562C75.5807 95.6927 75.7578 96.2891 75.7578 96.9453H73.7891C73.7891 96.3516 73.6016 95.888 73.2266 95.5547C72.8568 95.2161 72.3255 95.0469 71.6328 95.0469C70.987 95.0469 70.4844 95.1849 70.125 95.4609C69.7708 95.737 69.5938 96.1224 69.5938 96.6172C69.5938 97.0339 69.7865 97.3828 70.1719 97.6641C70.5573 97.9401 71.1927 98.2109 72.0781 98.4766C72.9635 98.737 73.6745 99.0365 74.2109 99.375C74.7474 99.7083 75.1406 100.094 75.3906 100.531C75.6406 100.964 75.7656 101.471 75.7656 102.055C75.7656 103.003 75.401 103.758 74.6719 104.32C73.9479 104.878 72.9635 105.156 71.7188 105.156C70.8958 105.156 70.138 105.005 69.4453 104.703C68.7578 104.396 68.2214 103.974 67.8359 103.438C67.4557 102.901 67.2656 102.276 67.2656 101.562H69.2422C69.2422 102.208 69.4557 102.708 69.8828 103.062C70.3099 103.417 70.9219 103.594 71.7188 103.594C72.4062 103.594 72.9219 103.456 73.2656 103.18C73.6146 102.898 73.7891 102.529 73.7891 102.07ZM79.6953 94.4922V96.5469H81.1875V97.9531H79.6953V102.672C79.6953 102.995 79.7578 103.229 79.8828 103.375C80.013 103.516 80.2422 103.586 80.5703 103.586C80.7891 103.586 81.0104 103.56 81.2344 103.508V104.977C80.8021 105.096 80.3854 105.156 79.9844 105.156C78.526 105.156 77.7969 104.352 77.7969 102.742V97.9531H76.4062V96.5469H77.7969V94.4922H79.6953ZM87.0703 98.2812C86.8203 98.2396 86.5625 98.2188 86.2969 98.2188C85.4271 98.2188 84.8411 98.5521 84.5391 99.2188V105H82.6406V96.5469H84.4531L84.5 97.4922C84.9583 96.7578 85.5938 96.3906 86.4062 96.3906C86.6771 96.3906 86.901 96.4271 87.0781 96.5L87.0703 98.2812ZM90.2891 105H88.3906V96.5469H90.2891V105ZM88.2734 94.3516C88.2734 94.0599 88.3646 93.8177 88.5469 93.625C88.7344 93.4323 89 93.3359 89.3438 93.3359C89.6875 93.3359 89.9531 93.4323 90.1406 93.625C90.3281 93.8177 90.4219 94.0599 90.4219 94.3516C90.4219 94.638 90.3281 94.8776 90.1406 95.0703C89.9531 95.2578 89.6875 95.3516 89.3438 95.3516C89 95.3516 88.7344 95.2578 88.5469 95.0703C88.3646 94.8776 88.2734 94.638 88.2734 94.3516ZM94.125 96.5469L94.1797 97.5234C94.8047 96.7682 95.625 96.3906 96.6406 96.3906C98.401 96.3906 99.2969 97.3984 99.3281 99.4141V105H97.4297V99.5234C97.4297 98.987 97.3125 98.5911 97.0781 98.3359C96.849 98.0755 96.4714 97.9453 95.9453 97.9453C95.1797 97.9453 94.6094 98.2917 94.2344 98.9844V105H92.3359V96.5469H94.125ZM100.938 100.711C100.938 99.3984 101.245 98.3516 101.859 97.5703C102.479 96.7839 103.299 96.3906 104.32 96.3906C105.284 96.3906 106.042 96.7266 106.594 97.3984L106.68 96.5469H108.391V104.742C108.391 105.852 108.044 106.727 107.352 107.367C106.664 108.008 105.734 108.328 104.562 108.328C103.943 108.328 103.336 108.198 102.742 107.938C102.154 107.682 101.706 107.346 101.398 106.93L102.297 105.789C102.88 106.482 103.599 106.828 104.453 106.828C105.083 106.828 105.581 106.656 105.945 106.312C106.31 105.974 106.492 105.474 106.492 104.812V104.242C105.945 104.852 105.216 105.156 104.305 105.156C103.315 105.156 102.505 104.763 101.875 103.977C101.25 103.19 100.938 102.102 100.938 100.711ZM102.828 100.875C102.828 101.724 103 102.393 103.344 102.883C103.693 103.367 104.174 103.609 104.789 103.609C105.555 103.609 106.122 103.281 106.492 102.625V98.9062C106.133 98.2656 105.57 97.9453 104.805 97.9453C104.18 97.9453 103.693 98.1927 103.344 98.6875C103 99.1823 102.828 99.9115 102.828 100.875ZM115.633 92.7969L116.602 93.3984C116.128 94.0911 115.883 94.8125 115.867 95.5625V96.75H114.203V95.6719C114.208 95.1719 114.344 94.651 114.609 94.1094C114.88 93.5625 115.221 93.125 115.633 92.7969ZM118.258 92.7969L119.227 93.3984C118.753 94.0911 118.508 94.8125 118.492 95.5625V96.75H116.828V95.6719C116.833 95.1719 116.969 94.651 117.234 94.1094C117.505 93.5625 117.846 93.125 118.258 92.7969ZM129.703 105H127.734V99.9453H122.648V105H120.672V93.625H122.648V98.3594H127.734V93.625H129.703V105ZM135.586 105.156C134.383 105.156 133.406 104.779 132.656 104.023C131.911 103.263 131.539 102.253 131.539 100.992V100.758C131.539 99.9141 131.701 99.1615 132.023 98.5C132.352 97.8333 132.81 97.3151 133.398 96.9453C133.987 96.5755 134.643 96.3906 135.367 96.3906C136.518 96.3906 137.406 96.7578 138.031 97.4922C138.661 98.2266 138.977 99.2656 138.977 100.609V101.375H133.453C133.51 102.073 133.742 102.625 134.148 103.031C134.56 103.438 135.076 103.641 135.695 103.641C136.565 103.641 137.273 103.289 137.82 102.586L138.844 103.562C138.505 104.068 138.052 104.461 137.484 104.742C136.922 105.018 136.289 105.156 135.586 105.156ZM135.359 97.9141C134.839 97.9141 134.417 98.0964 134.094 98.4609C133.776 98.8255 133.573 99.3333 133.484 99.9844H137.102V99.8438C137.06 99.2083 136.891 98.7292 136.594 98.4062C136.297 98.0781 135.885 97.9141 135.359 97.9141ZM142.477 105H140.578V93H142.477V105ZM146.57 105H144.672V93H146.57V105ZM148.289 100.695C148.289 99.8672 148.453 99.1224 148.781 98.4609C149.109 97.7943 149.57 97.2839 150.164 96.9297C150.758 96.5703 151.44 96.3906 152.211 96.3906C153.352 96.3906 154.276 96.7578 154.984 97.4922C155.698 98.2266 156.083 99.2005 156.141 100.414L156.148 100.859C156.148 101.693 155.987 102.438 155.664 103.094C155.346 103.75 154.888 104.258 154.289 104.617C153.695 104.977 153.008 105.156 152.227 105.156C151.034 105.156 150.078 104.76 149.359 103.969C148.646 103.172 148.289 102.112 148.289 100.789V100.695ZM150.188 100.859C150.188 101.729 150.367 102.411 150.727 102.906C151.086 103.396 151.586 103.641 152.227 103.641C152.867 103.641 153.365 103.391 153.719 102.891C154.078 102.391 154.258 101.659 154.258 100.695C154.258 99.8411 154.073 99.1641 153.703 98.6641C153.339 98.1641 152.841 97.9141 152.211 97.9141C151.591 97.9141 151.099 98.1615 150.734 98.6562C150.37 99.1458 150.188 99.8802 150.188 100.859ZM157.562 97L156.594 96.3984C157.062 95.7161 157.305 94.9948 157.32 94.2344V93H158.984V94.0781C158.984 94.6146 158.846 95.1562 158.57 95.7031C158.299 96.2448 157.964 96.6771 157.562 97ZM160.172 97L159.203 96.3984C159.672 95.7161 159.914 94.9948 159.93 94.2344V93H161.594V94.0781C161.594 94.6146 161.456 95.1562 161.18 95.7031C160.909 96.2448 160.573 96.6771 160.172 97Z" fill="#5452F6"/>
<path d="M94.7031 56.5469L94.7578 57.5234C95.3828 56.7682 96.2031 56.3906 97.2188 56.3906C98.9792 56.3906 99.875 57.3984 99.9062 59.4141V65H98.0078V59.5234C98.0078 58.987 97.8906 58.5911 97.6562 58.3359C97.4271 58.0755 97.0495 57.9453 96.5234 57.9453C95.7578 57.9453 95.1875 58.2917 94.8125 58.9844V65H92.9141V56.5469H94.7031ZM106.898 65C106.815 64.8385 106.742 64.5755 106.68 64.2109C106.076 64.8411 105.336 65.1562 104.461 65.1562C103.612 65.1562 102.919 64.9141 102.383 64.4297C101.846 63.9453 101.578 63.3464 101.578 62.6328C101.578 61.7318 101.911 61.0417 102.578 60.5625C103.25 60.0781 104.208 59.8359 105.453 59.8359H106.617V59.2812C106.617 58.8438 106.495 58.4948 106.25 58.2344C106.005 57.9688 105.633 57.8359 105.133 57.8359C104.701 57.8359 104.346 57.9453 104.07 58.1641C103.794 58.3776 103.656 58.651 103.656 58.9844H101.758C101.758 58.5208 101.911 58.0885 102.219 57.6875C102.526 57.2812 102.943 56.9635 103.469 56.7344C104 56.5052 104.591 56.3906 105.242 56.3906C106.232 56.3906 107.021 56.6406 107.609 57.1406C108.198 57.6354 108.5 58.3333 108.516 59.2344V63.0469C108.516 63.8073 108.622 64.4141 108.836 64.8672V65H106.898ZM104.812 63.6328C105.188 63.6328 105.539 63.5417 105.867 63.3594C106.201 63.1771 106.451 62.9323 106.617 62.625V61.0312H105.594C104.891 61.0312 104.362 61.1536 104.008 61.3984C103.654 61.6432 103.477 61.9896 103.477 62.4375C103.477 62.8021 103.596 63.0938 103.836 63.3125C104.081 63.526 104.406 63.6328 104.812 63.6328ZM112.883 54.4922V56.5469H114.375V57.9531H112.883V62.6719C112.883 62.9948 112.945 63.2292 113.07 63.375C113.201 63.5156 113.43 63.5859 113.758 63.5859C113.977 63.5859 114.198 63.5599 114.422 63.5078V64.9766C113.99 65.0964 113.573 65.1562 113.172 65.1562C111.714 65.1562 110.984 64.3516 110.984 62.7422V57.9531H109.594V56.5469H110.984V54.4922H112.883ZM126.117 60.9453H127.531V62.4688H126.117V65H124.219V62.4688H119.305L119.25 61.3125L124.156 53.625H126.117V60.9453ZM121.242 60.9453H124.219V56.1953L124.078 56.4453L121.242 60.9453ZM136.438 65H128.789V63.6953L132.578 59.5625C133.125 58.9531 133.513 58.4453 133.742 58.0391C133.977 57.6276 134.094 57.2161 134.094 56.8047C134.094 56.263 133.94 55.8255 133.633 55.4922C133.331 55.1589 132.922 54.9922 132.406 54.9922C131.792 54.9922 131.315 55.1797 130.977 55.5547C130.638 55.9297 130.469 56.4427 130.469 57.0938H128.57C128.57 56.401 128.727 55.7786 129.039 55.2266C129.357 54.6693 129.807 54.237 130.391 53.9297C130.979 53.6224 131.656 53.4688 132.422 53.4688C133.526 53.4688 134.396 53.7474 135.031 54.3047C135.672 54.8568 135.992 55.6224 135.992 56.6016C135.992 57.1693 135.831 57.7656 135.508 58.3906C135.19 59.0104 134.667 59.7161 133.938 60.5078L131.156 63.4844H136.438V65Z" fill="#FF5A43"/>
<path d="M101.789 25H99.8906V16.5469H101.789V25ZM99.7734 14.3516C99.7734 14.0599 99.8646 13.8177 100.047 13.625C100.234 13.4323 100.5 13.3359 100.844 13.3359C101.188 13.3359 101.453 13.4323 101.641 13.625C101.828 13.8177 101.922 14.0599 101.922 14.3516C101.922 14.638 101.828 14.8776 101.641 15.0703C101.453 15.2578 101.188 15.3516 100.844 15.3516C100.5 15.3516 100.234 15.2578 100.047 15.0703C99.8646 14.8776 99.7734 14.638 99.7734 14.3516ZM105.625 16.5469L105.68 17.5234C106.305 16.7682 107.125 16.3906 108.141 16.3906C109.901 16.3906 110.797 17.3984 110.828 19.4141V25H108.93V19.5234C108.93 18.987 108.812 18.5911 108.578 18.3359C108.349 18.0755 107.971 17.9453 107.445 17.9453C106.68 17.9453 106.109 18.2917 105.734 18.9844V25H103.836V16.5469H105.625ZM115.148 14.4922V16.5469H116.641V17.9531H115.148V22.6719C115.148 22.9948 115.211 23.2292 115.336 23.375C115.466 23.5156 115.695 23.5859 116.023 23.5859C116.242 23.5859 116.464 23.5599 116.688 23.5078V24.9766C116.255 25.0964 115.839 25.1562 115.438 25.1562C113.979 25.1562 113.25 24.3516 113.25 22.7422V17.9531H111.859V16.5469H113.25V14.4922H115.148ZM129.531 14.6797L124.984 25H122.992L127.531 15.1484H121.648V13.625H129.531V14.6797Z" fill="#FF5A43"/>
<path d="M0.5 8C0.5 3.85786 3.85786 0.5 8 0.5H221C225.142 0.5 228.5 3.85787 228.5 8V119.5H0.5V8Z" stroke="#5452F6"/>
</g>
<g filter="url(#filter3_d)">
<path d="M0 119H229V135C229 139.418 225.418 143 221 143H8.00001C3.58173 143 0 139.418 0 135V119Z" fill="#EEEEFF"/>
<path d="M0.5 119.5H228.5V135C228.5 139.142 225.142 142.5 221 142.5H8.00001C3.85787 142.5 0.5 139.142 0.5 135V119.5Z" stroke="#5452F6"/>
</g>
<defs>
<filter id="filter0_d" x="400" y="40" width="233" height="84" filterUnits="userSpaceOnUse" color-interpolation-filters="sRGB">
<feFlood flood-opacity="0" result="BackgroundImageFix"/>
<feColorMatrix in="SourceAlpha" type="matrix" values="0 0 0 0 0 0 0 0 0 0 0 0 0 0 0 0 0 0 127 0"/>
<feOffset dx="4" dy="4"/>
<feColorMatrix type="matrix" values="0 0 0 0 0.674908 0 0 0 0 0.662083 0 0 0 0 0.945833 0 0 0 1 0"/>
<feBlend mode="normal" in2="BackgroundImageFix" result="effect1_dropShadow"/>
<feBlend mode="normal" in="SourceGraphic" in2="effect1_dropShadow" result="shape"/>
</filter>
<filter id="filter1_d" x="400" y="119" width="233" height="28" filterUnits="userSpaceOnUse" color-interpolation-filters="sRGB">
<feFlood flood-opacity="0" result="BackgroundImageFix"/>
<feColorMatrix in="SourceAlpha" type="matrix" values="0 0 0 0 0 0 0 0 0 0 0 0 0 0 0 0 0 0 127 0"/>
<feOffset dx="4" dy="4"/>
<feColorMatrix type="matrix" values="0 0 0 0 0.674908 0 0 0 0 0.662083 0 0 0 0 0.945833 0 0 0 1 0"/>
<feBlend mode="normal" in2="BackgroundImageFix" result="effect1_dropShadow"/>
<feBlend mode="normal" in="SourceGraphic" in2="effect1_dropShadow" result="shape"/>
</filter>
<filter id="filter2_d" x="0" y="0" width="233" height="124" filterUnits="userSpaceOnUse" color-interpolation-filters="sRGB">
<feFlood flood-opacity="0" result="BackgroundImageFix"/>
<feColorMatrix in="SourceAlpha" type="matrix" values="0 0 0 0 0 0 0 0 0 0 0 0 0 0 0 0 0 0 127 0"/>
<feOffset dx="4" dy="4"/>
<feColorMatrix type="matrix" values="0 0 0 0 0.674908 0 0 0 0 0.662083 0 0 0 0 0.945833 0 0 0 1 0"/>
<feBlend mode="normal" in2="BackgroundImageFix" result="effect1_dropShadow"/>
<feBlend mode="normal" in="SourceGraphic" in2="effect1_dropShadow" result="shape"/>
</filter>
<filter id="filter3_d" x="0" y="119" width="233" height="28" filterUnits="userSpaceOnUse" color-interpolation-filters="sRGB">
<feFlood flood-opacity="0" result="BackgroundImageFix"/>
<feColorMatrix in="SourceAlpha" type="matrix" values="0 0 0 0 0 0 0 0 0 0 0 0 0 0 0 0 0 0 127 0"/>
<feOffset dx="4" dy="4"/>
<feColorMatrix type="matrix" values="0 0 0 0 0.674908 0 0 0 0 0.662083 0 0 0 0 0.945833 0 0 0 1 0"/>
<feBlend mode="normal" in2="BackgroundImageFix" result="effect1_dropShadow"/>
<feBlend mode="normal" in="SourceGraphic" in2="effect1_dropShadow" result="shape"/>
</filter>
</defs>
</svg>
