<svg width="596" height="677" viewBox="0 0 596 677" fill="none" xmlns="http://www.w3.org/2000/svg">
<g filter="url(#filter0_d)">
<rect x="407" y="269" width="185" height="63" rx="8" fill="white"/>
<path d="M459.711 305.164C459.148 305.826 458.323 306.156 457.234 306.156C456.333 306.156 455.646 305.896 455.172 305.375C454.703 304.849 454.466 304.073 454.461 303.047V297.547H455.906V303.008C455.906 304.289 456.427 304.93 457.469 304.93C458.573 304.93 459.307 304.518 459.672 303.695V297.547H461.117V306H459.742L459.711 305.164ZM464.688 297.547L464.734 298.609C465.38 297.797 466.224 297.391 467.266 297.391C469.052 297.391 469.953 298.398 469.969 300.414V306H468.523V300.406C468.518 299.797 468.378 299.346 468.102 299.055C467.831 298.763 467.406 298.617 466.828 298.617C466.359 298.617 465.948 298.742 465.594 298.992C465.24 299.242 464.964 299.57 464.766 299.977V306H463.32V297.547H464.688ZM473.719 306H472.273V297.547H473.719V306ZM472.156 295.305C472.156 295.07 472.227 294.872 472.367 294.711C472.513 294.549 472.727 294.469 473.008 294.469C473.289 294.469 473.503 294.549 473.648 294.711C473.794 294.872 473.867 295.07 473.867 295.305C473.867 295.539 473.794 295.734 473.648 295.891C473.503 296.047 473.289 296.125 473.008 296.125C472.727 296.125 472.513 296.047 472.367 295.891C472.227 295.734 472.156 295.539 472.156 295.305ZM478 295.5V297.547H479.578V298.664H478V303.906C478 304.245 478.07 304.5 478.211 304.672C478.352 304.839 478.591 304.922 478.93 304.922C479.096 304.922 479.326 304.891 479.617 304.828V306C479.237 306.104 478.867 306.156 478.508 306.156C477.862 306.156 477.375 305.961 477.047 305.57C476.719 305.18 476.555 304.625 476.555 303.906V298.664H475.016V297.547H476.555V295.5H478ZM484.969 296.812C484.969 296.13 485.185 295.568 485.617 295.125C486.055 294.682 486.615 294.461 487.297 294.461C487.99 294.461 488.549 294.685 488.977 295.133C489.409 295.576 489.625 296.151 489.625 296.859V297.414C489.625 298.102 489.406 298.664 488.969 299.102C488.536 299.534 487.984 299.75 487.312 299.75C486.635 299.75 486.076 299.534 485.633 299.102C485.19 298.664 484.969 298.083 484.969 297.359V296.812ZM486.047 297.414C486.047 297.82 486.161 298.156 486.391 298.422C486.62 298.682 486.927 298.812 487.312 298.812C487.682 298.812 487.979 298.685 488.203 298.43C488.432 298.174 488.547 297.826 488.547 297.383V296.812C488.547 296.406 488.435 296.07 488.211 295.805C487.987 295.539 487.682 295.406 487.297 295.406C486.911 295.406 486.607 295.539 486.383 295.805C486.159 296.07 486.047 296.417 486.047 296.844V297.414ZM490.508 303.211C490.508 302.529 490.724 301.969 491.156 301.531C491.594 301.089 492.154 300.867 492.836 300.867C493.518 300.867 494.078 301.086 494.516 301.523C494.953 301.961 495.172 302.542 495.172 303.266V303.82C495.172 304.503 494.953 305.065 494.516 305.508C494.083 305.945 493.529 306.164 492.852 306.164C492.174 306.164 491.615 305.948 491.172 305.516C490.729 305.078 490.508 304.497 490.508 303.773V303.211ZM491.586 303.82C491.586 304.232 491.701 304.57 491.93 304.836C492.159 305.096 492.466 305.227 492.852 305.227C493.227 305.227 493.526 305.099 493.75 304.844C493.974 304.583 494.086 304.232 494.086 303.789V303.211C494.086 302.799 493.971 302.464 493.742 302.203C493.518 301.943 493.216 301.812 492.836 301.812C492.466 301.812 492.164 301.943 491.93 302.203C491.701 302.458 491.586 302.805 491.586 303.242V303.82ZM487.641 305.141L486.82 304.625L492.375 295.734L493.195 296.25L487.641 305.141ZM496.609 301.703C496.609 300.406 496.917 299.365 497.531 298.578C498.146 297.786 498.951 297.391 499.945 297.391C500.935 297.391 501.719 297.729 502.297 298.406V294H503.742V306H502.414L502.344 305.094C501.766 305.802 500.961 306.156 499.93 306.156C498.951 306.156 498.151 305.755 497.531 304.953C496.917 304.151 496.609 303.104 496.609 301.812V301.703ZM498.055 301.867C498.055 302.826 498.253 303.576 498.648 304.117C499.044 304.659 499.591 304.93 500.289 304.93C501.206 304.93 501.875 304.518 502.297 303.695V299.812C501.865 299.016 501.201 298.617 500.305 298.617C499.596 298.617 499.044 298.891 498.648 299.438C498.253 299.984 498.055 300.794 498.055 301.867ZM509.5 306.156C508.354 306.156 507.422 305.781 506.703 305.031C505.984 304.276 505.625 303.268 505.625 302.008V301.742C505.625 300.904 505.784 300.156 506.102 299.5C506.424 298.839 506.872 298.323 507.445 297.953C508.023 297.578 508.648 297.391 509.32 297.391C510.419 297.391 511.273 297.753 511.883 298.477C512.492 299.201 512.797 300.237 512.797 301.586V302.188H507.07C507.091 303.021 507.333 303.695 507.797 304.211C508.266 304.721 508.859 304.977 509.578 304.977C510.089 304.977 510.521 304.872 510.875 304.664C511.229 304.456 511.539 304.18 511.805 303.836L512.688 304.523C511.979 305.612 510.917 306.156 509.5 306.156ZM509.32 298.578C508.737 298.578 508.247 298.792 507.852 299.219C507.456 299.641 507.211 300.234 507.117 301H511.352V300.891C511.31 300.156 511.112 299.589 510.758 299.188C510.404 298.781 509.924 298.578 509.32 298.578ZM515.188 306V298.664H513.852V297.547H515.188V296.68C515.188 295.773 515.43 295.073 515.914 294.578C516.398 294.083 517.083 293.836 517.969 293.836C518.302 293.836 518.633 293.88 518.961 293.969L518.883 295.141C518.638 295.094 518.378 295.07 518.102 295.07C517.633 295.07 517.271 295.208 517.016 295.484C516.76 295.755 516.633 296.146 516.633 296.656V297.547H518.438V298.664H516.633V306H515.188ZM525.258 306C525.174 305.833 525.107 305.536 525.055 305.109C524.383 305.807 523.581 306.156 522.648 306.156C521.815 306.156 521.13 305.922 520.594 305.453C520.062 304.979 519.797 304.38 519.797 303.656C519.797 302.776 520.13 302.094 520.797 301.609C521.469 301.12 522.411 300.875 523.625 300.875H525.031V300.211C525.031 299.706 524.88 299.305 524.578 299.008C524.276 298.706 523.831 298.555 523.242 298.555C522.727 298.555 522.294 298.685 521.945 298.945C521.596 299.206 521.422 299.521 521.422 299.891H519.969C519.969 299.469 520.117 299.062 520.414 298.672C520.716 298.276 521.122 297.964 521.633 297.734C522.148 297.505 522.714 297.391 523.328 297.391C524.302 297.391 525.065 297.635 525.617 298.125C526.169 298.609 526.456 299.279 526.477 300.133V304.023C526.477 304.799 526.576 305.417 526.773 305.875V306H525.258ZM522.859 304.898C523.312 304.898 523.742 304.781 524.148 304.547C524.555 304.312 524.849 304.008 525.031 303.633V301.898H523.898C522.128 301.898 521.242 302.417 521.242 303.453C521.242 303.906 521.393 304.26 521.695 304.516C521.997 304.771 522.385 304.898 522.859 304.898ZM533.961 305.164C533.398 305.826 532.573 306.156 531.484 306.156C530.583 306.156 529.896 305.896 529.422 305.375C528.953 304.849 528.716 304.073 528.711 303.047V297.547H530.156V303.008C530.156 304.289 530.677 304.93 531.719 304.93C532.823 304.93 533.557 304.518 533.922 303.695V297.547H535.367V306H533.992L533.961 305.164ZM539.141 306H537.695V294H539.141V306ZM543.422 295.5V297.547H545V298.664H543.422V303.906C543.422 304.245 543.492 304.5 543.633 304.672C543.773 304.839 544.013 304.922 544.352 304.922C544.518 304.922 544.747 304.891 545.039 304.828V306C544.659 306.104 544.289 306.156 543.93 306.156C543.284 306.156 542.797 305.961 542.469 305.57C542.141 305.18 541.977 304.625 541.977 303.906V298.664H540.438V297.547H541.977V295.5H543.422Z" fill="#5452F6"/>
<rect x="407.5" y="269.5" width="184" height="62" rx="7.5" stroke="#5452F6"/>
</g>
<g filter="url(#filter1_d)">
<rect y="541" width="158" height="63" rx="8" fill="white"/>
<path d="M48.8516 569.547L48.8984 570.609C49.5443 569.797 50.388 569.391 51.4297 569.391C53.2161 569.391 54.1172 570.398 54.1328 572.414V578H52.6875V572.406C52.6823 571.797 52.5417 571.346 52.2656 571.055C51.9948 570.763 51.5703 570.617 50.9922 570.617C50.5234 570.617 50.112 570.742 49.7578 570.992C49.4036 571.242 49.1276 571.57 48.9297 571.977V578H47.4844V569.547H48.8516ZM61.5312 578C61.4479 577.833 61.3802 577.536 61.3281 577.109C60.6562 577.807 59.8542 578.156 58.9219 578.156C58.0885 578.156 57.4036 577.922 56.8672 577.453C56.3359 576.979 56.0703 576.38 56.0703 575.656C56.0703 574.776 56.4036 574.094 57.0703 573.609C57.7422 573.12 58.6849 572.875 59.8984 572.875H61.3047V572.211C61.3047 571.706 61.1536 571.305 60.8516 571.008C60.5495 570.706 60.1042 570.555 59.5156 570.555C59 570.555 58.5677 570.685 58.2188 570.945C57.8698 571.206 57.6953 571.521 57.6953 571.891H56.2422C56.2422 571.469 56.3906 571.062 56.6875 570.672C56.9896 570.276 57.3958 569.964 57.9062 569.734C58.4219 569.505 58.987 569.391 59.6016 569.391C60.5755 569.391 61.3385 569.635 61.8906 570.125C62.4427 570.609 62.7292 571.279 62.75 572.133V576.023C62.75 576.799 62.849 577.417 63.0469 577.875V578H61.5312ZM59.1328 576.898C59.5859 576.898 60.0156 576.781 60.4219 576.547C60.8281 576.312 61.1224 576.008 61.3047 575.633V573.898H60.1719C58.401 573.898 57.5156 574.417 57.5156 575.453C57.5156 575.906 57.6667 576.26 57.9688 576.516C58.2708 576.771 58.6589 576.898 59.1328 576.898ZM66.9766 567.5V569.547H68.5547V570.664H66.9766V575.906C66.9766 576.245 67.0469 576.5 67.1875 576.672C67.3281 576.839 67.5677 576.922 67.9062 576.922C68.0729 576.922 68.3021 576.891 68.5938 576.828V578C68.2135 578.104 67.8438 578.156 67.4844 578.156C66.8385 578.156 66.3516 577.961 66.0234 577.57C65.6953 577.18 65.5312 576.625 65.5312 575.906V570.664H63.9922V569.547H65.5312V567.5H66.9766ZM73.9453 568.812C73.9453 568.13 74.1615 567.568 74.5938 567.125C75.0312 566.682 75.5911 566.461 76.2734 566.461C76.9661 566.461 77.526 566.685 77.9531 567.133C78.3854 567.576 78.6016 568.151 78.6016 568.859V569.414C78.6016 570.102 78.3828 570.664 77.9453 571.102C77.513 571.534 76.9609 571.75 76.2891 571.75C75.612 571.75 75.0521 571.534 74.6094 571.102C74.1667 570.664 73.9453 570.083 73.9453 569.359V568.812ZM75.0234 569.414C75.0234 569.82 75.138 570.156 75.3672 570.422C75.5964 570.682 75.9036 570.812 76.2891 570.812C76.6589 570.812 76.9557 570.685 77.1797 570.43C77.4089 570.174 77.5234 569.826 77.5234 569.383V568.812C77.5234 568.406 77.4115 568.07 77.1875 567.805C76.9635 567.539 76.6589 567.406 76.2734 567.406C75.888 567.406 75.5833 567.539 75.3594 567.805C75.1354 568.07 75.0234 568.417 75.0234 568.844V569.414ZM79.4844 575.211C79.4844 574.529 79.7005 573.969 80.1328 573.531C80.5703 573.089 81.1302 572.867 81.8125 572.867C82.4948 572.867 83.0547 573.086 83.4922 573.523C83.9297 573.961 84.1484 574.542 84.1484 575.266V575.82C84.1484 576.503 83.9297 577.065 83.4922 577.508C83.0599 577.945 82.5052 578.164 81.8281 578.164C81.151 578.164 80.5911 577.948 80.1484 577.516C79.7057 577.078 79.4844 576.497 79.4844 575.773V575.211ZM80.5625 575.82C80.5625 576.232 80.6771 576.57 80.9062 576.836C81.1354 577.096 81.4427 577.227 81.8281 577.227C82.2031 577.227 82.5026 577.099 82.7266 576.844C82.9505 576.583 83.0625 576.232 83.0625 575.789V575.211C83.0625 574.799 82.9479 574.464 82.7188 574.203C82.4948 573.943 82.1927 573.812 81.8125 573.812C81.4427 573.812 81.1406 573.943 80.9062 574.203C80.6771 574.458 80.5625 574.805 80.5625 575.242V575.82ZM76.6172 577.141L75.7969 576.625L81.3516 567.734L82.1719 568.25L76.6172 577.141ZM91.1562 578C91.0729 577.833 91.0052 577.536 90.9531 577.109C90.2812 577.807 89.4792 578.156 88.5469 578.156C87.7135 578.156 87.0286 577.922 86.4922 577.453C85.9609 576.979 85.6953 576.38 85.6953 575.656C85.6953 574.776 86.0286 574.094 86.6953 573.609C87.3672 573.12 88.3099 572.875 89.5234 572.875H90.9297V572.211C90.9297 571.706 90.7786 571.305 90.4766 571.008C90.1745 570.706 89.7292 570.555 89.1406 570.555C88.625 570.555 88.1927 570.685 87.8438 570.945C87.4948 571.206 87.3203 571.521 87.3203 571.891H85.8672C85.8672 571.469 86.0156 571.062 86.3125 570.672C86.6146 570.276 87.0208 569.964 87.5312 569.734C88.0469 569.505 88.612 569.391 89.2266 569.391C90.2005 569.391 90.9635 569.635 91.5156 570.125C92.0677 570.609 92.3542 571.279 92.375 572.133V576.023C92.375 576.799 92.474 577.417 92.6719 577.875V578H91.1562ZM88.7578 576.898C89.2109 576.898 89.6406 576.781 90.0469 576.547C90.4531 576.312 90.7474 576.008 90.9297 575.633V573.898H89.7969C88.026 573.898 87.1406 574.417 87.1406 575.453C87.1406 575.906 87.2917 576.26 87.5938 576.516C87.8958 576.771 88.2839 576.898 88.7578 576.898ZM94.2891 573.703C94.2891 572.406 94.5964 571.365 95.2109 570.578C95.8255 569.786 96.6302 569.391 97.625 569.391C98.6146 569.391 99.3984 569.729 99.9766 570.406V566H101.422V578H100.094L100.023 577.094C99.4453 577.802 98.6406 578.156 97.6094 578.156C96.6302 578.156 95.8307 577.755 95.2109 576.953C94.5964 576.151 94.2891 575.104 94.2891 573.812V573.703ZM95.7344 573.867C95.7344 574.826 95.9323 575.576 96.3281 576.117C96.724 576.659 97.2708 576.93 97.9688 576.93C98.8854 576.93 99.5547 576.518 99.9766 575.695V571.812C99.5443 571.016 98.8802 570.617 97.9844 570.617C97.276 570.617 96.724 570.891 96.3281 571.438C95.9323 571.984 95.7344 572.794 95.7344 573.867ZM103.32 573.703C103.32 572.406 103.628 571.365 104.242 570.578C104.857 569.786 105.661 569.391 106.656 569.391C107.646 569.391 108.43 569.729 109.008 570.406V566H110.453V578H109.125L109.055 577.094C108.477 577.802 107.672 578.156 106.641 578.156C105.661 578.156 104.862 577.755 104.242 576.953C103.628 576.151 103.32 575.104 103.32 573.812V573.703ZM104.766 573.867C104.766 574.826 104.964 575.576 105.359 576.117C105.755 576.659 106.302 576.93 107 576.93C107.917 576.93 108.586 576.518 109.008 575.695V571.812C108.576 571.016 107.911 570.617 107.016 570.617C106.307 570.617 105.755 570.891 105.359 571.438C104.964 571.984 104.766 572.794 104.766 573.867Z" fill="#5452F6"/>
<rect x="0.5" y="541.5" width="157" height="62" rx="7.5" stroke="#5452F6"/>
</g>
<g filter="url(#filter2_d)">
<rect x="280" y="541" width="157" height="63" rx="8" fill="white"/>
<path d="M328.703 569.547L328.75 570.609C329.396 569.797 330.24 569.391 331.281 569.391C333.068 569.391 333.969 570.398 333.984 572.414V578H332.539V572.406C332.534 571.797 332.393 571.346 332.117 571.055C331.846 570.763 331.422 570.617 330.844 570.617C330.375 570.617 329.964 570.742 329.609 570.992C329.255 571.242 328.979 571.57 328.781 571.977V578H327.336V569.547H328.703ZM341.383 578C341.299 577.833 341.232 577.536 341.18 577.109C340.508 577.807 339.706 578.156 338.773 578.156C337.94 578.156 337.255 577.922 336.719 577.453C336.188 576.979 335.922 576.38 335.922 575.656C335.922 574.776 336.255 574.094 336.922 573.609C337.594 573.12 338.536 572.875 339.75 572.875H341.156V572.211C341.156 571.706 341.005 571.305 340.703 571.008C340.401 570.706 339.956 570.555 339.367 570.555C338.852 570.555 338.419 570.685 338.07 570.945C337.721 571.206 337.547 571.521 337.547 571.891H336.094C336.094 571.469 336.242 571.062 336.539 570.672C336.841 570.276 337.247 569.964 337.758 569.734C338.273 569.505 338.839 569.391 339.453 569.391C340.427 569.391 341.19 569.635 341.742 570.125C342.294 570.609 342.581 571.279 342.602 572.133V576.023C342.602 576.799 342.701 577.417 342.898 577.875V578H341.383ZM338.984 576.898C339.438 576.898 339.867 576.781 340.273 576.547C340.68 576.312 340.974 576.008 341.156 575.633V573.898H340.023C338.253 573.898 337.367 574.417 337.367 575.453C337.367 575.906 337.518 576.26 337.82 576.516C338.122 576.771 338.51 576.898 338.984 576.898ZM346.828 567.5V569.547H348.406V570.664H346.828V575.906C346.828 576.245 346.898 576.5 347.039 576.672C347.18 576.839 347.419 576.922 347.758 576.922C347.924 576.922 348.154 576.891 348.445 576.828V578C348.065 578.104 347.695 578.156 347.336 578.156C346.69 578.156 346.203 577.961 345.875 577.57C345.547 577.18 345.383 576.625 345.383 575.906V570.664H343.844V569.547H345.383V567.5H346.828ZM353.797 568.812C353.797 568.13 354.013 567.568 354.445 567.125C354.883 566.682 355.443 566.461 356.125 566.461C356.818 566.461 357.378 566.685 357.805 567.133C358.237 567.576 358.453 568.151 358.453 568.859V569.414C358.453 570.102 358.234 570.664 357.797 571.102C357.365 571.534 356.812 571.75 356.141 571.75C355.464 571.75 354.904 571.534 354.461 571.102C354.018 570.664 353.797 570.083 353.797 569.359V568.812ZM354.875 569.414C354.875 569.82 354.99 570.156 355.219 570.422C355.448 570.682 355.755 570.812 356.141 570.812C356.51 570.812 356.807 570.685 357.031 570.43C357.26 570.174 357.375 569.826 357.375 569.383V568.812C357.375 568.406 357.263 568.07 357.039 567.805C356.815 567.539 356.51 567.406 356.125 567.406C355.74 567.406 355.435 567.539 355.211 567.805C354.987 568.07 354.875 568.417 354.875 568.844V569.414ZM359.336 575.211C359.336 574.529 359.552 573.969 359.984 573.531C360.422 573.089 360.982 572.867 361.664 572.867C362.346 572.867 362.906 573.086 363.344 573.523C363.781 573.961 364 574.542 364 575.266V575.82C364 576.503 363.781 577.065 363.344 577.508C362.911 577.945 362.357 578.164 361.68 578.164C361.003 578.164 360.443 577.948 360 577.516C359.557 577.078 359.336 576.497 359.336 575.773V575.211ZM360.414 575.82C360.414 576.232 360.529 576.57 360.758 576.836C360.987 577.096 361.294 577.227 361.68 577.227C362.055 577.227 362.354 577.099 362.578 576.844C362.802 576.583 362.914 576.232 362.914 575.789V575.211C362.914 574.799 362.799 574.464 362.57 574.203C362.346 573.943 362.044 573.812 361.664 573.812C361.294 573.812 360.992 573.943 360.758 574.203C360.529 574.458 360.414 574.805 360.414 575.242V575.82ZM356.469 577.141L355.648 576.625L361.203 567.734L362.023 568.25L356.469 577.141ZM370.711 575.758C370.711 575.367 370.562 575.065 370.266 574.852C369.974 574.633 369.461 574.445 368.727 574.289C367.997 574.133 367.417 573.945 366.984 573.727C366.557 573.508 366.24 573.247 366.031 572.945C365.828 572.643 365.727 572.284 365.727 571.867C365.727 571.174 366.018 570.589 366.602 570.109C367.19 569.63 367.94 569.391 368.852 569.391C369.81 569.391 370.586 569.638 371.18 570.133C371.779 570.628 372.078 571.26 372.078 572.031H370.625C370.625 571.635 370.456 571.294 370.117 571.008C369.784 570.721 369.362 570.578 368.852 570.578C368.326 570.578 367.914 570.693 367.617 570.922C367.32 571.151 367.172 571.451 367.172 571.82C367.172 572.169 367.31 572.432 367.586 572.609C367.862 572.786 368.359 572.956 369.078 573.117C369.802 573.279 370.388 573.471 370.836 573.695C371.284 573.919 371.615 574.19 371.828 574.508C372.047 574.82 372.156 575.203 372.156 575.656C372.156 576.411 371.854 577.018 371.25 577.477C370.646 577.93 369.862 578.156 368.898 578.156C368.221 578.156 367.622 578.036 367.102 577.797C366.581 577.557 366.172 577.224 365.875 576.797C365.583 576.365 365.438 575.898 365.438 575.398H366.883C366.909 575.883 367.102 576.268 367.461 576.555C367.826 576.836 368.305 576.977 368.898 576.977C369.445 576.977 369.883 576.867 370.211 576.648C370.544 576.424 370.711 576.128 370.711 575.758ZM379.258 577.164C378.695 577.826 377.87 578.156 376.781 578.156C375.88 578.156 375.193 577.896 374.719 577.375C374.25 576.849 374.013 576.073 374.008 575.047V569.547H375.453V575.008C375.453 576.289 375.974 576.93 377.016 576.93C378.12 576.93 378.854 576.518 379.219 575.695V569.547H380.664V578H379.289L379.258 577.164ZM390.023 573.867C390.023 575.159 389.727 576.198 389.133 576.984C388.539 577.766 387.742 578.156 386.742 578.156C385.674 578.156 384.849 577.779 384.266 577.023L384.195 578H382.867V566H384.312V570.477C384.896 569.753 385.701 569.391 386.727 569.391C387.753 569.391 388.557 569.779 389.141 570.555C389.729 571.331 390.023 572.393 390.023 573.742V573.867ZM388.578 573.703C388.578 572.719 388.388 571.958 388.008 571.422C387.628 570.885 387.081 570.617 386.367 570.617C385.414 570.617 384.729 571.06 384.312 571.945V575.602C384.755 576.487 385.445 576.93 386.383 576.93C387.076 576.93 387.615 576.661 388 576.125C388.385 575.589 388.578 574.781 388.578 573.703Z" fill="#5452F6"/>
<rect x="280.5" y="541.5" width="156" height="62" rx="7.5" stroke="#5452F6"/>
</g>
<path d="M218.5 251V197.475C218.5 186.429 227.454 177.475 238.5 177.475L479.5 177.475C490.546 177.475 499.5 186.429 499.5 197.475L499.5 251" stroke="#65BF73" stroke-width="2"/>
<circle cx="358" cy="116.5" r="5.5" stroke="#65BF73" stroke-width="2"/>
<line x1="358.5" y1="177" x2="358.5" y2="122" stroke="#65BF73" stroke-width="2"/>
<path d="M509.026 241L499.769 251L491 241" stroke="#65BF73" stroke-width="2" stroke-linecap="round" stroke-linejoin="round"/>
<path d="M228.026 241L218.769 251L210 241" stroke="#65BF73" stroke-width="2" stroke-linecap="round" stroke-linejoin="round"/>
<path d="M79.5 523L79.5 469.475C79.5 458.429 88.4543 449.475 99.5 449.475L340.5 449.475C351.546 449.475 360.5 458.429 360.5 469.475L360.5 523" stroke="#65BF73" stroke-width="2"/>
<circle cx="219" cy="388.5" r="5.5" stroke="#65BF73" stroke-width="2"/>
<line x1="219.5" y1="449" x2="219.5" y2="394" stroke="#65BF73" stroke-width="2"/>
<path d="M370.026 513L360.769 523L352 513" stroke="#65BF73" stroke-width="2" stroke-linecap="round" stroke-linejoin="round"/>
<path d="M89.0256 513L79.7692 523L71 513" stroke="#65BF73" stroke-width="2" stroke-linecap="round" stroke-linejoin="round"/>
<g filter="url(#filter3_d)">
<path d="M348.343 5.65686C351.467 2.53266 356.533 2.53266 359.657 5.65685L397.343 43.3431C400.467 46.4673 400.467 51.5327 397.343 54.6569L359.657 92.3431C356.533 95.4673 351.467 95.4673 348.343 92.3431L310.657 54.6569C307.533 51.5327 307.533 46.4673 310.657 43.3431L348.343 5.65686Z" fill="#E7F4FF"/>
<path d="M359.303 6.01041L396.99 43.6967C399.919 46.6256 399.919 51.3744 396.99 54.3033L359.303 91.9896C356.374 94.9185 351.626 94.9185 348.697 91.9896L311.01 54.3033C308.081 51.3744 308.081 46.6256 311.01 43.6967L348.697 6.01041C351.626 3.08148 356.374 3.08148 359.303 6.01041Z" stroke="#2097F6"/>
</g>
<path d="M353.141 49.6797C353.141 50.7943 352.953 51.7682 352.578 52.6016C352.203 53.4297 351.672 54.0625 350.984 54.5C350.297 54.9375 349.495 55.1562 348.578 55.1562C347.682 55.1562 346.888 54.9375 346.195 54.5C345.503 54.0573 344.964 53.4297 344.578 52.6172C344.198 51.7995 344.003 50.8542 343.992 49.7812V48.9609C343.992 47.8672 344.182 46.901 344.562 46.0625C344.943 45.224 345.479 44.5833 346.172 44.1406C346.87 43.6927 347.667 43.4688 348.562 43.4688C349.474 43.4688 350.276 43.6901 350.969 44.1328C351.667 44.5703 352.203 45.2083 352.578 46.0469C352.953 46.8802 353.141 47.8516 353.141 48.9609V49.6797ZM351.648 48.9453C351.648 47.5964 351.378 46.5625 350.836 45.8438C350.294 45.1198 349.536 44.7578 348.562 44.7578C347.615 44.7578 346.867 45.1198 346.32 45.8438C345.779 46.5625 345.5 47.5625 345.484 48.8438V49.6797C345.484 50.987 345.758 52.0156 346.305 52.7656C346.857 53.5104 347.615 53.8828 348.578 53.8828C349.547 53.8828 350.297 53.5312 350.828 52.8281C351.359 52.1198 351.633 51.1068 351.648 49.7891V48.9453ZM359.562 50.3984H356.891V55H355.383V43.625H359.148C360.43 43.625 361.414 43.9167 362.102 44.5C362.794 45.0833 363.141 45.9323 363.141 47.0469C363.141 47.7552 362.948 48.3724 362.562 48.8984C362.182 49.4245 361.651 49.8177 360.969 50.0781L363.641 54.9062V55H362.031L359.562 50.3984ZM356.891 49.1719H359.195C359.94 49.1719 360.531 48.9792 360.969 48.5938C361.411 48.2083 361.633 47.6927 361.633 47.0469C361.633 46.3438 361.422 45.8047 361 45.4297C360.583 45.0547 359.979 44.8646 359.188 44.8594H356.891V49.1719Z" fill="#2097F6"/>
<g filter="url(#filter4_d)">
<path d="M213.343 273.657C216.467 270.533 221.533 270.533 224.657 273.657L262.343 311.343C265.467 314.467 265.467 319.533 262.343 322.657L224.657 360.343C221.533 363.467 216.467 363.467 213.343 360.343L175.657 322.657C172.533 319.533 172.533 314.467 175.657 311.343L213.343 273.657Z" fill="#E7F4FF"/>
<path d="M224.303 274.01L261.99 311.697C264.919 314.626 264.919 319.374 261.99 322.303L224.303 359.99C221.374 362.919 216.626 362.919 213.697 359.99L176.01 322.303C173.081 319.374 173.081 314.626 176.01 311.697L213.697 274.01C216.626 271.081 221.374 271.081 224.303 274.01Z" stroke="#2097F6"/>
</g>
<path d="M218.141 317.68C218.141 318.794 217.953 319.768 217.578 320.602C217.203 321.43 216.672 322.062 215.984 322.5C215.297 322.938 214.495 323.156 213.578 323.156C212.682 323.156 211.888 322.938 211.195 322.5C210.503 322.057 209.964 321.43 209.578 320.617C209.198 319.799 209.003 318.854 208.992 317.781V316.961C208.992 315.867 209.182 314.901 209.562 314.062C209.943 313.224 210.479 312.583 211.172 312.141C211.87 311.693 212.667 311.469 213.562 311.469C214.474 311.469 215.276 311.69 215.969 312.133C216.667 312.57 217.203 313.208 217.578 314.047C217.953 314.88 218.141 315.852 218.141 316.961V317.68ZM216.648 316.945C216.648 315.596 216.378 314.562 215.836 313.844C215.294 313.12 214.536 312.758 213.562 312.758C212.615 312.758 211.867 313.12 211.32 313.844C210.779 314.562 210.5 315.562 210.484 316.844V317.68C210.484 318.987 210.758 320.016 211.305 320.766C211.857 321.51 212.615 321.883 213.578 321.883C214.547 321.883 215.297 321.531 215.828 320.828C216.359 320.12 216.633 319.107 216.648 317.789V316.945ZM224.562 318.398H221.891V323H220.383V311.625H224.148C225.43 311.625 226.414 311.917 227.102 312.5C227.794 313.083 228.141 313.932 228.141 315.047C228.141 315.755 227.948 316.372 227.562 316.898C227.182 317.424 226.651 317.818 225.969 318.078L228.641 322.906V323H227.031L224.562 318.398ZM221.891 317.172H224.195C224.94 317.172 225.531 316.979 225.969 316.594C226.411 316.208 226.633 315.693 226.633 315.047C226.633 314.344 226.422 313.805 226 313.43C225.583 313.055 224.979 312.865 224.188 312.859H221.891V317.172Z" fill="#2097F6"/>
<rect x="441.5" y="367.5" width="111" height="35" rx="7.5" fill="white" stroke="#2097F6" stroke-dasharray="5 8"/>
<path d="M508 368L500.413 355.585C498.853 353.033 495.147 353.033 493.587 355.585L486 368L508 368Z" fill="white"/>
<path d="M513 367.5L508 367.5L507.258 366.319L500.387 355.388C498.818 352.893 495.182 352.893 493.613 355.388L486 367.5" stroke="#2097F6" stroke-width="0.5" stroke-linecap="round" stroke-linejoin="round" stroke-dasharray="5.8 5.8"/>
<path d="M483.077 390V380.2H486.241C487.006 380.2 487.631 380.326 488.117 380.578C488.602 380.83 488.961 381.175 489.195 381.614C489.428 382.053 489.545 382.538 489.545 383.07C489.545 383.686 489.377 384.241 489.041 384.736C488.714 385.231 488.201 385.581 487.501 385.786L489.643 390H488.257L486.269 385.954H486.185H484.253V390H483.077ZM484.253 385.03H486.157C486.913 385.03 487.463 384.848 487.809 384.484C488.154 384.12 488.327 383.653 488.327 383.084C488.327 382.505 488.154 382.048 487.809 381.712C487.473 381.367 486.917 381.194 486.143 381.194H484.253V385.03ZM492.299 381.516C492.066 381.516 491.87 381.441 491.711 381.292C491.562 381.133 491.487 380.937 491.487 380.704C491.487 380.48 491.562 380.293 491.711 380.144C491.87 379.995 492.066 379.92 492.299 379.92C492.523 379.92 492.715 379.995 492.873 380.144C493.032 380.293 493.111 380.48 493.111 380.704C493.111 380.937 493.032 381.133 492.873 381.292C492.715 381.441 492.523 381.516 492.299 381.516ZM491.711 390V383.056H492.887V390H491.711ZM497.959 387.816C497.567 387.816 497.208 387.765 496.881 387.662L496.181 388.32C496.284 388.395 496.41 388.46 496.559 388.516C496.718 388.563 496.942 388.609 497.231 388.656C497.52 388.693 497.926 388.735 498.449 388.782C499.382 388.847 500.05 389.062 500.451 389.426C500.852 389.79 501.053 390.266 501.053 390.854C501.053 391.255 500.941 391.638 500.717 392.002C500.502 392.366 500.166 392.665 499.709 392.898C499.261 393.131 498.682 393.248 497.973 393.248C497.348 393.248 496.792 393.164 496.307 392.996C495.822 392.837 495.444 392.59 495.173 392.254C494.902 391.927 494.767 391.512 494.767 391.008C494.767 390.747 494.837 390.462 494.977 390.154C495.117 389.855 495.378 389.571 495.761 389.3C495.556 389.216 495.378 389.127 495.229 389.034C495.089 388.931 494.958 388.819 494.837 388.698V388.376L496.027 387.2C495.476 386.733 495.201 386.117 495.201 385.352C495.201 384.895 495.308 384.479 495.523 384.106C495.738 383.733 496.05 383.439 496.461 383.224C496.872 383 497.371 382.888 497.959 382.888C498.36 382.888 498.724 382.944 499.051 383.056H501.613V383.938L500.311 383.994C500.582 384.386 500.717 384.839 500.717 385.352C500.717 385.809 500.605 386.225 500.381 386.598C500.166 386.971 499.854 387.27 499.443 387.494C499.042 387.709 498.547 387.816 497.959 387.816ZM497.959 386.85C498.454 386.85 498.846 386.724 499.135 386.472C499.434 386.211 499.583 385.837 499.583 385.352C499.583 384.876 499.434 384.512 499.135 384.26C498.846 383.999 498.454 383.868 497.959 383.868C497.455 383.868 497.054 383.999 496.755 384.26C496.466 384.512 496.321 384.876 496.321 385.352C496.321 385.837 496.466 386.211 496.755 386.472C497.054 386.724 497.455 386.85 497.959 386.85ZM495.915 390.896C495.915 391.363 496.111 391.708 496.503 391.932C496.895 392.165 497.385 392.282 497.973 392.282C498.552 392.282 499.014 392.156 499.359 391.904C499.714 391.652 499.891 391.316 499.891 390.896C499.891 390.597 499.77 390.336 499.527 390.112C499.284 389.897 498.836 389.771 498.183 389.734C497.67 389.697 497.226 389.65 496.853 389.594C496.47 389.799 496.218 390.019 496.097 390.252C495.976 390.495 495.915 390.709 495.915 390.896ZM503.22 390V379.92H504.396V384.246C504.629 383.817 504.96 383.485 505.39 383.252C505.819 383.009 506.286 382.888 506.79 382.888C507.592 382.888 508.236 383.14 508.722 383.644C509.207 384.139 509.45 384.904 509.45 385.94V390H508.288V386.066C508.288 384.619 507.704 383.896 506.538 383.896C505.931 383.896 505.422 384.115 505.012 384.554C504.601 384.983 504.396 385.599 504.396 386.402V390H503.22ZM514.255 390C513.621 390 513.121 389.846 512.757 389.538C512.393 389.23 512.211 388.675 512.211 387.872V384.05H511.007V383.056H512.211L512.365 381.39H513.387V383.056H515.431V384.05H513.387V387.872C513.387 388.311 513.476 388.609 513.653 388.768C513.831 388.917 514.143 388.992 514.591 388.992H515.319V390H514.255Z" fill="#2097F6"/>
<rect x="303.5" y="634.5" width="111" height="35" rx="7.5" fill="white" stroke="#2097F6" stroke-dasharray="5 8"/>
<path d="M370 635L362.413 622.585C360.853 620.033 357.147 620.033 355.587 622.585L348 635L370 635Z" fill="white"/>
<path d="M375 634.5L370 634.5L369.258 633.319L362.387 622.388C360.818 619.893 357.182 619.893 355.613 622.388L348 634.5" stroke="#2097F6" stroke-width="0.5" stroke-linecap="round" stroke-linejoin="round" stroke-dasharray="5.8 5.8"/>
<path d="M330.473 657V647.2H331.649V656.062H336.213V657H330.473ZM340.86 657.168C340.197 657.168 339.609 657.019 339.096 656.72C338.583 656.412 338.177 655.987 337.878 655.446C337.589 654.905 337.444 654.265 337.444 653.528C337.444 652.8 337.589 652.165 337.878 651.624C338.167 651.073 338.569 650.649 339.082 650.35C339.605 650.042 340.207 649.888 340.888 649.888C341.56 649.888 342.139 650.042 342.624 650.35C343.119 650.649 343.497 651.045 343.758 651.54C344.019 652.035 344.15 652.567 344.15 653.136C344.15 653.239 344.145 653.341 344.136 653.444C344.136 653.547 344.136 653.663 344.136 653.794H338.606C338.634 654.326 338.755 654.769 338.97 655.124C339.194 655.469 339.469 655.731 339.796 655.908C340.132 656.085 340.487 656.174 340.86 656.174C341.345 656.174 341.751 656.062 342.078 655.838C342.405 655.614 342.643 655.311 342.792 654.928H343.954C343.767 655.572 343.408 656.109 342.876 656.538C342.353 656.958 341.681 657.168 340.86 657.168ZM340.86 650.882C340.3 650.882 339.801 651.055 339.362 651.4C338.933 651.736 338.685 652.231 338.62 652.884H342.988C342.96 652.259 342.745 651.769 342.344 651.414C341.943 651.059 341.448 650.882 340.86 650.882ZM346.367 657V651.05H345.317V650.056H346.367V648.852C346.367 648.18 346.535 647.69 346.871 647.382C347.207 647.074 347.697 646.92 348.341 646.92H349.041V647.928H348.523C348.168 647.928 347.916 648.003 347.767 648.152C347.617 648.292 347.543 648.535 347.543 648.88V650.056H349.251V651.05H347.543V657H346.367ZM353.675 657C353.04 657 352.541 656.846 352.177 656.538C351.813 656.23 351.631 655.675 351.631 654.872V651.05H350.427V650.056H351.631L351.785 648.39H352.807V650.056H354.851V651.05H352.807V654.872C352.807 655.311 352.895 655.609 353.073 655.768C353.25 655.917 353.563 655.992 354.011 655.992H354.739V657H353.675ZM360.68 657V647.2H363.844C364.609 647.2 365.235 647.326 365.72 647.578C366.205 647.83 366.565 648.175 366.798 648.614C367.031 649.053 367.148 649.538 367.148 650.07C367.148 650.686 366.98 651.241 366.644 651.736C366.317 652.231 365.804 652.581 365.104 652.786L367.246 657H365.86L363.872 652.954H363.788H361.856V657H360.68ZM361.856 652.03H363.76C364.516 652.03 365.067 651.848 365.412 651.484C365.757 651.12 365.93 650.653 365.93 650.084C365.93 649.505 365.757 649.048 365.412 648.712C365.076 648.367 364.521 648.194 363.746 648.194H361.856V652.03ZM369.903 648.516C369.669 648.516 369.473 648.441 369.315 648.292C369.165 648.133 369.091 647.937 369.091 647.704C369.091 647.48 369.165 647.293 369.315 647.144C369.473 646.995 369.669 646.92 369.903 646.92C370.127 646.92 370.318 646.995 370.477 647.144C370.635 647.293 370.715 647.48 370.715 647.704C370.715 647.937 370.635 648.133 370.477 648.292C370.318 648.441 370.127 648.516 369.903 648.516ZM369.315 657V650.056H370.491V657H369.315ZM375.562 654.816C375.17 654.816 374.811 654.765 374.484 654.662L373.784 655.32C373.887 655.395 374.013 655.46 374.162 655.516C374.321 655.563 374.545 655.609 374.834 655.656C375.124 655.693 375.53 655.735 376.052 655.782C376.986 655.847 377.653 656.062 378.054 656.426C378.456 656.79 378.656 657.266 378.656 657.854C378.656 658.255 378.544 658.638 378.32 659.002C378.106 659.366 377.77 659.665 377.312 659.898C376.864 660.131 376.286 660.248 375.576 660.248C374.951 660.248 374.396 660.164 373.91 659.996C373.425 659.837 373.047 659.59 372.776 659.254C372.506 658.927 372.37 658.512 372.37 658.008C372.37 657.747 372.44 657.462 372.58 657.154C372.72 656.855 372.982 656.571 373.364 656.3C373.159 656.216 372.982 656.127 372.832 656.034C372.692 655.931 372.562 655.819 372.44 655.698V655.376L373.63 654.2C373.08 653.733 372.804 653.117 372.804 652.352C372.804 651.895 372.912 651.479 373.126 651.106C373.341 650.733 373.654 650.439 374.064 650.224C374.475 650 374.974 649.888 375.562 649.888C375.964 649.888 376.328 649.944 376.654 650.056H379.216V650.938L377.914 650.994C378.185 651.386 378.32 651.839 378.32 652.352C378.32 652.809 378.208 653.225 377.984 653.598C377.77 653.971 377.457 654.27 377.046 654.494C376.645 654.709 376.15 654.816 375.562 654.816ZM375.562 653.85C376.057 653.85 376.449 653.724 376.738 653.472C377.037 653.211 377.186 652.837 377.186 652.352C377.186 651.876 377.037 651.512 376.738 651.26C376.449 650.999 376.057 650.868 375.562 650.868C375.058 650.868 374.657 650.999 374.358 651.26C374.069 651.512 373.924 651.876 373.924 652.352C373.924 652.837 374.069 653.211 374.358 653.472C374.657 653.724 375.058 653.85 375.562 653.85ZM373.518 657.896C373.518 658.363 373.714 658.708 374.106 658.932C374.498 659.165 374.988 659.282 375.576 659.282C376.155 659.282 376.617 659.156 376.962 658.904C377.317 658.652 377.494 658.316 377.494 657.896C377.494 657.597 377.373 657.336 377.13 657.112C376.888 656.897 376.44 656.771 375.786 656.734C375.273 656.697 374.83 656.65 374.456 656.594C374.074 656.799 373.822 657.019 373.7 657.252C373.579 657.495 373.518 657.709 373.518 657.896ZM380.823 657V646.92H381.999V651.246C382.232 650.817 382.564 650.485 382.993 650.252C383.422 650.009 383.889 649.888 384.393 649.888C385.196 649.888 385.84 650.14 386.325 650.644C386.81 651.139 387.053 651.904 387.053 652.94V657H385.891V653.066C385.891 651.619 385.308 650.896 384.141 650.896C383.534 650.896 383.026 651.115 382.615 651.554C382.204 651.983 381.999 652.599 381.999 653.402V657H380.823ZM391.859 657C391.224 657 390.725 656.846 390.361 656.538C389.997 656.23 389.815 655.675 389.815 654.872V651.05H388.611V650.056H389.815L389.969 648.39H390.991V650.056H393.035V651.05H390.991V654.872C390.991 655.311 391.079 655.609 391.257 655.768C391.434 655.917 391.747 655.992 392.195 655.992H392.923V657H391.859Z" fill="#2097F6"/>
<rect x="22.5" y="634.5" width="111" height="35" rx="7.5" fill="white" stroke="#2097F6" stroke-dasharray="5 8"/>
<path d="M89 635L81.4131 622.585C79.8534 620.033 76.1466 620.033 74.5869 622.585L67 635L89 635Z" fill="white"/>
<path d="M94 634.5L89 634.5L88.2577 633.319L81.3865 622.388C79.8182 619.893 76.1818 619.893 74.6135 622.388L67 634.5" stroke="#2097F6" stroke-width="0.5" stroke-linecap="round" stroke-linejoin="round" stroke-dasharray="5.8 5.8"/>
<path d="M53.4619 657V647.2H54.6379V656.062H59.2019V657H53.4619ZM63.8486 657.168C63.1859 657.168 62.5979 657.019 62.0846 656.72C61.5713 656.412 61.1653 655.987 60.8666 655.446C60.5773 654.905 60.4326 654.265 60.4326 653.528C60.4326 652.8 60.5773 652.165 60.8666 651.624C61.1559 651.073 61.5573 650.649 62.0706 650.35C62.5933 650.042 63.1953 649.888 63.8766 649.888C64.5486 649.888 65.1273 650.042 65.6126 650.35C66.1073 650.649 66.4853 651.045 66.7466 651.54C67.0079 652.035 67.1386 652.567 67.1386 653.136C67.1386 653.239 67.1339 653.341 67.1246 653.444C67.1246 653.547 67.1246 653.663 67.1246 653.794H61.5946C61.6226 654.326 61.7439 654.769 61.9586 655.124C62.1826 655.469 62.4579 655.731 62.7846 655.908C63.1206 656.085 63.4753 656.174 63.8486 656.174C64.3339 656.174 64.7399 656.062 65.0666 655.838C65.3933 655.614 65.6313 655.311 65.7806 654.928H66.9426C66.7559 655.572 66.3966 656.109 65.8646 656.538C65.3419 656.958 64.6699 657.168 63.8486 657.168ZM63.8486 650.882C63.2886 650.882 62.7893 651.055 62.3506 651.4C61.9213 651.736 61.6739 652.231 61.6086 652.884H65.9766C65.9486 652.259 65.7339 651.769 65.3326 651.414C64.9313 651.059 64.4366 650.882 63.8486 650.882ZM69.3553 657V651.05H68.3053V650.056H69.3553V648.852C69.3553 648.18 69.5233 647.69 69.8593 647.382C70.1953 647.074 70.6853 646.92 71.3293 646.92H72.0293V647.928H71.5113C71.1566 647.928 70.9046 648.003 70.7553 648.152C70.606 648.292 70.5313 648.535 70.5313 648.88V650.056H72.2393V651.05H70.5313V657H69.3553ZM76.6634 657C76.0287 657 75.5294 656.846 75.1654 656.538C74.8014 656.23 74.6194 655.675 74.6194 654.872V651.05H73.4154V650.056H74.6194L74.7734 648.39H75.7954V650.056H77.8394V651.05H75.7954V654.872C75.7954 655.311 75.8841 655.609 76.0614 655.768C76.2387 655.917 76.5514 655.992 76.9994 655.992H77.7274V657H76.6634ZM83.6685 657V647.2H84.8445V656.062H89.4085V657H83.6685ZM94.0552 657.168C93.3926 657.168 92.8046 657.019 92.2912 656.72C91.7779 656.412 91.3719 655.987 91.0732 655.446C90.7839 654.905 90.6392 654.265 90.6392 653.528C90.6392 652.8 90.7839 652.165 91.0732 651.624C91.3626 651.073 91.7639 650.649 92.2772 650.35C92.7999 650.042 93.4019 649.888 94.0832 649.888C94.7552 649.888 95.3339 650.042 95.8192 650.35C96.3139 650.649 96.6919 651.045 96.9532 651.54C97.2146 652.035 97.3452 652.567 97.3452 653.136C97.3452 653.239 97.3406 653.341 97.3312 653.444C97.3312 653.547 97.3312 653.663 97.3312 653.794H91.8012C91.8292 654.326 91.9506 654.769 92.1652 655.124C92.3892 655.469 92.6646 655.731 92.9912 655.908C93.3272 656.085 93.6819 656.174 94.0552 656.174C94.5406 656.174 94.9466 656.062 95.2732 655.838C95.5999 655.614 95.8379 655.311 95.9872 654.928H97.1492C96.9626 655.572 96.6032 656.109 96.0712 656.538C95.5486 656.958 94.8766 657.168 94.0552 657.168ZM94.0552 650.882C93.4952 650.882 92.9959 651.055 92.5572 651.4C92.1279 651.736 91.8806 652.231 91.8152 652.884H96.1832C96.1552 652.259 95.9406 651.769 95.5392 651.414C95.1379 651.059 94.6432 650.882 94.0552 650.882ZM99.5619 657V651.05H98.5119V650.056H99.5619V648.852C99.5619 648.18 99.7299 647.69 100.066 647.382C100.402 647.074 100.892 646.92 101.536 646.92H102.236V647.928H101.718C101.363 647.928 101.111 648.003 100.962 648.152C100.813 648.292 100.738 648.535 100.738 648.88V650.056H102.446V651.05H100.738V657H99.5619ZM106.87 657C106.235 657 105.736 656.846 105.372 656.538C105.008 656.23 104.826 655.675 104.826 654.872V651.05H103.622V650.056H104.826L104.98 648.39H106.002V650.056H108.046V651.05H106.002V654.872C106.002 655.311 106.091 655.609 106.268 655.768C106.445 655.917 106.758 655.992 107.206 655.992H107.934V657H106.87Z" fill="#2097F6"/>
<defs>
<filter id="filter0_d" x="407" y="269" width="189" height="67" filterUnits="userSpaceOnUse" color-interpolation-filters="sRGB">
<feFlood flood-opacity="0" result="BackgroundImageFix"/>
<feColorMatrix in="SourceAlpha" type="matrix" values="0 0 0 0 0 0 0 0 0 0 0 0 0 0 0 0 0 0 127 0"/>
<feOffset dx="4" dy="4"/>
<feColorMatrix type="matrix" values="0 0 0 0 0.674908 0 0 0 0 0.662083 0 0 0 0 0.945833 0 0 0 1 0"/>
<feBlend mode="normal" in2="BackgroundImageFix" result="effect1_dropShadow"/>
<feBlend mode="normal" in="SourceGraphic" in2="effect1_dropShadow" result="shape"/>
</filter>
<filter id="filter1_d" x="0" y="541" width="162" height="67" filterUnits="userSpaceOnUse" color-interpolation-filters="sRGB">
<feFlood flood-opacity="0" result="BackgroundImageFix"/>
<feColorMatrix in="SourceAlpha" type="matrix" values="0 0 0 0 0 0 0 0 0 0 0 0 0 0 0 0 0 0 127 0"/>
<feOffset dx="4" dy="4"/>
<feColorMatrix type="matrix" values="0 0 0 0 0.674908 0 0 0 0 0.662083 0 0 0 0 0.945833 0 0 0 1 0"/>
<feBlend mode="normal" in2="BackgroundImageFix" result="effect1_dropShadow"/>
<feBlend mode="normal" in="SourceGraphic" in2="effect1_dropShadow" result="shape"/>
</filter>
<filter id="filter2_d" x="280" y="541" width="161" height="67" filterUnits="userSpaceOnUse" color-interpolation-filters="sRGB">
<feFlood flood-opacity="0" result="BackgroundImageFix"/>
<feColorMatrix in="SourceAlpha" type="matrix" values="0 0 0 0 0 0 0 0 0 0 0 0 0 0 0 0 0 0 127 0"/>
<feOffset dx="4" dy="4"/>
<feColorMatrix type="matrix" values="0 0 0 0 0.674908 0 0 0 0 0.662083 0 0 0 0 0.945833 0 0 0 1 0"/>
<feBlend mode="normal" in2="BackgroundImageFix" result="effect1_dropShadow"/>
<feBlend mode="normal" in="SourceGraphic" in2="effect1_dropShadow" result="shape"/>
</filter>
<filter id="filter3_d" x="308.314" y="3.31372" width="95.3726" height="95.3726" filterUnits="userSpaceOnUse" color-interpolation-filters="sRGB">
<feFlood flood-opacity="0" result="BackgroundImageFix"/>
<feColorMatrix in="SourceAlpha" type="matrix" values="0 0 0 0 0 0 0 0 0 0 0 0 0 0 0 0 0 0 127 0"/>
<feOffset dx="4" dy="4"/>
<feColorMatrix type="matrix" values="0 0 0 0 0.513733 0 0 0 0 0.767915 0 0 0 0 0.970833 0 0 0 1 0"/>
<feBlend mode="normal" in2="BackgroundImageFix" result="effect1_dropShadow"/>
<feBlend mode="normal" in="SourceGraphic" in2="effect1_dropShadow" result="shape"/>
</filter>
<filter id="filter4_d" x="173.314" y="271.314" width="95.3726" height="95.3726" filterUnits="userSpaceOnUse" color-interpolation-filters="sRGB">
<feFlood flood-opacity="0" result="BackgroundImageFix"/>
<feColorMatrix in="SourceAlpha" type="matrix" values="0 0 0 0 0 0 0 0 0 0 0 0 0 0 0 0 0 0 127 0"/>
<feOffset dx="4" dy="4"/>
<feColorMatrix type="matrix" values="0 0 0 0 0.513733 0 0 0 0 0.767915 0 0 0 0 0.970833 0 0 0 1 0"/>
<feBlend mode="normal" in2="BackgroundImageFix" result="effect1_dropShadow"/>
<feBlend mode="normal" in="SourceGraphic" in2="effect1_dropShadow" result="shape"/>
</filter>
</defs>
</svg>
