<svg width="154" height="369" viewBox="0 0 154 369" fill="none" xmlns="http://www.w3.org/2000/svg">
<g filter="url(#filter0_d)">
<g clip-path="url(#clip0)">
<path d="M0 92C0 87.5817 3.58172 84 8 84H142C146.418 84 150 87.5817 150 92V342H0V92Z" fill="white"/>
<line x1="0.5" y1="301.5" x2="228.5" y2="301.5" stroke="#5452F6"/>
<line x1="0.5" y1="261.5" x2="228.5" y2="261.5" stroke="#5452F6"/>
<line x1="0.5" y1="181.5" x2="228.5" y2="181.5" stroke="#5452F6"/>
<line x1="0.5" y1="221.5" x2="228.5" y2="221.5" stroke="#5452F6"/>
<path d="M44.1406 327.156C42.9375 327.156 41.9609 326.779 41.2109 326.023C40.4661 325.263 40.0938 324.253 40.0938 322.992V322.758C40.0938 321.914 40.2552 321.161 40.5781 320.5C40.9062 319.833 41.3646 319.315 41.9531 318.945C42.5417 318.576 43.1979 318.391 43.9219 318.391C45.0729 318.391 45.9609 318.758 46.5859 319.492C47.2161 320.227 47.5312 321.266 47.5312 322.609V323.375H42.0078C42.0651 324.073 42.2969 324.625 42.7031 325.031C43.1146 325.438 43.6302 325.641 44.25 325.641C45.1198 325.641 45.8281 325.289 46.375 324.586L47.3984 325.562C47.0599 326.068 46.6068 326.461 46.0391 326.742C45.4766 327.018 44.8438 327.156 44.1406 327.156ZM43.9141 319.914C43.3932 319.914 42.9714 320.096 42.6484 320.461C42.3307 320.826 42.1276 321.333 42.0391 321.984H45.6562V321.844C45.6146 321.208 45.4453 320.729 45.1484 320.406C44.8516 320.078 44.4401 319.914 43.9141 319.914ZM51.0312 327H49.1328V315H51.0312V327ZM56.8281 327.156C55.625 327.156 54.6484 326.779 53.8984 326.023C53.1536 325.263 52.7812 324.253 52.7812 322.992V322.758C52.7812 321.914 52.9427 321.161 53.2656 320.5C53.5938 319.833 54.0521 319.315 54.6406 318.945C55.2292 318.576 55.8854 318.391 56.6094 318.391C57.7604 318.391 58.6484 318.758 59.2734 319.492C59.9036 320.227 60.2188 321.266 60.2188 322.609V323.375H54.6953C54.7526 324.073 54.9844 324.625 55.3906 325.031C55.8021 325.438 56.3177 325.641 56.9375 325.641C57.8073 325.641 58.5156 325.289 59.0625 324.586L60.0859 325.562C59.7474 326.068 59.2943 326.461 58.7266 326.742C58.1641 327.018 57.5312 327.156 56.8281 327.156ZM56.6016 319.914C56.0807 319.914 55.6589 320.096 55.3359 320.461C55.0182 320.826 54.8151 321.333 54.7266 321.984H58.3438V321.844C58.3021 321.208 58.1328 320.729 57.8359 320.406C57.5391 320.078 57.1276 319.914 56.6016 319.914ZM63.4844 318.547L63.5391 319.43C64.1328 318.737 64.9453 318.391 65.9766 318.391C67.1068 318.391 67.8802 318.823 68.2969 319.688C68.9115 318.823 69.776 318.391 70.8906 318.391C71.8229 318.391 72.5156 318.648 72.9688 319.164C73.4271 319.68 73.6615 320.44 73.6719 321.445V327H71.7734V321.5C71.7734 320.964 71.6562 320.57 71.4219 320.32C71.1875 320.07 70.7995 319.945 70.2578 319.945C69.8255 319.945 69.4714 320.062 69.1953 320.297C68.9245 320.526 68.7344 320.828 68.625 321.203L68.6328 327H66.7344V321.438C66.7083 320.443 66.2005 319.945 65.2109 319.945C64.4505 319.945 63.9115 320.255 63.5938 320.875V327H61.6953V318.547H63.4844ZM79.3438 327.156C78.1406 327.156 77.1641 326.779 76.4141 326.023C75.6693 325.263 75.2969 324.253 75.2969 322.992V322.758C75.2969 321.914 75.4583 321.161 75.7812 320.5C76.1094 319.833 76.5677 319.315 77.1562 318.945C77.7448 318.576 78.401 318.391 79.125 318.391C80.276 318.391 81.1641 318.758 81.7891 319.492C82.4193 320.227 82.7344 321.266 82.7344 322.609V323.375H77.2109C77.2682 324.073 77.5 324.625 77.9062 325.031C78.3177 325.438 78.8333 325.641 79.4531 325.641C80.3229 325.641 81.0312 325.289 81.5781 324.586L82.6016 325.562C82.263 326.068 81.8099 326.461 81.2422 326.742C80.6797 327.018 80.0469 327.156 79.3438 327.156ZM79.1172 319.914C78.5964 319.914 78.1745 320.096 77.8516 320.461C77.5339 320.826 77.3307 321.333 77.2422 321.984H80.8594V321.844C80.8177 321.208 80.6484 320.729 80.3516 320.406C80.0547 320.078 79.6432 319.914 79.1172 319.914ZM85.9766 318.547L86.0312 319.523C86.6562 318.768 87.4766 318.391 88.4922 318.391C90.2526 318.391 91.1484 319.398 91.1797 321.414V327H89.2812V321.523C89.2812 320.987 89.1641 320.591 88.9297 320.336C88.7005 320.076 88.3229 319.945 87.7969 319.945C87.0312 319.945 86.4609 320.292 86.0859 320.984V327H84.1875V318.547H85.9766ZM95.5 316.492V318.547H96.9922V319.953H95.5V324.672C95.5 324.995 95.5625 325.229 95.6875 325.375C95.8177 325.516 96.0469 325.586 96.375 325.586C96.5938 325.586 96.8151 325.56 97.0391 325.508V326.977C96.6068 327.096 96.1901 327.156 95.7891 327.156C94.3307 327.156 93.6016 326.352 93.6016 324.742V319.953H92.2109V318.547H93.6016V316.492H95.5ZM107.453 327H105.562V317.867L102.773 318.82V317.219L107.211 315.586H107.453V327Z" fill="#5452F6"/>
<path d="M44.1406 287.156C42.9375 287.156 41.9609 286.779 41.2109 286.023C40.4661 285.263 40.0938 284.253 40.0938 282.992V282.758C40.0938 281.914 40.2552 281.161 40.5781 280.5C40.9062 279.833 41.3646 279.315 41.9531 278.945C42.5417 278.576 43.1979 278.391 43.9219 278.391C45.0729 278.391 45.9609 278.758 46.5859 279.492C47.2161 280.227 47.5312 281.266 47.5312 282.609V283.375H42.0078C42.0651 284.073 42.2969 284.625 42.7031 285.031C43.1146 285.438 43.6302 285.641 44.25 285.641C45.1198 285.641 45.8281 285.289 46.375 284.586L47.3984 285.562C47.0599 286.068 46.6068 286.461 46.0391 286.742C45.4766 287.018 44.8438 287.156 44.1406 287.156ZM43.9141 279.914C43.3932 279.914 42.9714 280.096 42.6484 280.461C42.3307 280.826 42.1276 281.333 42.0391 281.984H45.6562V281.844C45.6146 281.208 45.4453 280.729 45.1484 280.406C44.8516 280.078 44.4401 279.914 43.9141 279.914ZM51.0312 287H49.1328V275H51.0312V287ZM56.8281 287.156C55.625 287.156 54.6484 286.779 53.8984 286.023C53.1536 285.263 52.7812 284.253 52.7812 282.992V282.758C52.7812 281.914 52.9427 281.161 53.2656 280.5C53.5938 279.833 54.0521 279.315 54.6406 278.945C55.2292 278.576 55.8854 278.391 56.6094 278.391C57.7604 278.391 58.6484 278.758 59.2734 279.492C59.9036 280.227 60.2188 281.266 60.2188 282.609V283.375H54.6953C54.7526 284.073 54.9844 284.625 55.3906 285.031C55.8021 285.438 56.3177 285.641 56.9375 285.641C57.8073 285.641 58.5156 285.289 59.0625 284.586L60.0859 285.562C59.7474 286.068 59.2943 286.461 58.7266 286.742C58.1641 287.018 57.5312 287.156 56.8281 287.156ZM56.6016 279.914C56.0807 279.914 55.6589 280.096 55.3359 280.461C55.0182 280.826 54.8151 281.333 54.7266 281.984H58.3438V281.844C58.3021 281.208 58.1328 280.729 57.8359 280.406C57.5391 280.078 57.1276 279.914 56.6016 279.914ZM63.4844 278.547L63.5391 279.43C64.1328 278.737 64.9453 278.391 65.9766 278.391C67.1068 278.391 67.8802 278.823 68.2969 279.688C68.9115 278.823 69.776 278.391 70.8906 278.391C71.8229 278.391 72.5156 278.648 72.9688 279.164C73.4271 279.68 73.6615 280.44 73.6719 281.445V287H71.7734V281.5C71.7734 280.964 71.6562 280.57 71.4219 280.32C71.1875 280.07 70.7995 279.945 70.2578 279.945C69.8255 279.945 69.4714 280.062 69.1953 280.297C68.9245 280.526 68.7344 280.828 68.625 281.203L68.6328 287H66.7344V281.438C66.7083 280.443 66.2005 279.945 65.2109 279.945C64.4505 279.945 63.9115 280.255 63.5938 280.875V287H61.6953V278.547H63.4844ZM79.3438 287.156C78.1406 287.156 77.1641 286.779 76.4141 286.023C75.6693 285.263 75.2969 284.253 75.2969 282.992V282.758C75.2969 281.914 75.4583 281.161 75.7812 280.5C76.1094 279.833 76.5677 279.315 77.1562 278.945C77.7448 278.576 78.401 278.391 79.125 278.391C80.276 278.391 81.1641 278.758 81.7891 279.492C82.4193 280.227 82.7344 281.266 82.7344 282.609V283.375H77.2109C77.2682 284.073 77.5 284.625 77.9062 285.031C78.3177 285.438 78.8333 285.641 79.4531 285.641C80.3229 285.641 81.0312 285.289 81.5781 284.586L82.6016 285.562C82.263 286.068 81.8099 286.461 81.2422 286.742C80.6797 287.018 80.0469 287.156 79.3438 287.156ZM79.1172 279.914C78.5964 279.914 78.1745 280.096 77.8516 280.461C77.5339 280.826 77.3307 281.333 77.2422 281.984H80.8594V281.844C80.8177 281.208 80.6484 280.729 80.3516 280.406C80.0547 280.078 79.6432 279.914 79.1172 279.914ZM85.9766 278.547L86.0312 279.523C86.6562 278.768 87.4766 278.391 88.4922 278.391C90.2526 278.391 91.1484 279.398 91.1797 281.414V287H89.2812V281.523C89.2812 280.987 89.1641 280.591 88.9297 280.336C88.7005 280.076 88.3229 279.945 87.7969 279.945C87.0312 279.945 86.4609 280.292 86.0859 280.984V287H84.1875V278.547H85.9766ZM95.5 276.492V278.547H96.9922V279.953H95.5V284.672C95.5 284.995 95.5625 285.229 95.6875 285.375C95.8177 285.516 96.0469 285.586 96.375 285.586C96.5938 285.586 96.8151 285.56 97.0391 285.508V286.977C96.6068 287.096 96.1901 287.156 95.7891 287.156C94.3307 287.156 93.6016 286.352 93.6016 284.742V279.953H92.2109V278.547H93.6016V276.492H95.5ZM109.961 287H102.312V285.695L106.102 281.562C106.648 280.953 107.036 280.445 107.266 280.039C107.5 279.628 107.617 279.216 107.617 278.805C107.617 278.263 107.464 277.826 107.156 277.492C106.854 277.159 106.445 276.992 105.93 276.992C105.315 276.992 104.839 277.18 104.5 277.555C104.161 277.93 103.992 278.443 103.992 279.094H102.094C102.094 278.401 102.25 277.779 102.562 277.227C102.88 276.669 103.331 276.237 103.914 275.93C104.503 275.622 105.18 275.469 105.945 275.469C107.049 275.469 107.919 275.747 108.555 276.305C109.195 276.857 109.516 277.622 109.516 278.602C109.516 279.169 109.354 279.766 109.031 280.391C108.714 281.01 108.19 281.716 107.461 282.508L104.68 285.484H109.961V287Z" fill="#5452F6"/>
<path d="M44.2344 207.156C43.0312 207.156 42.0547 206.779 41.3047 206.023C40.5599 205.263 40.1875 204.253 40.1875 202.992V202.758C40.1875 201.914 40.349 201.161 40.6719 200.5C41 199.833 41.4583 199.315 42.0469 198.945C42.6354 198.576 43.2917 198.391 44.0156 198.391C45.1667 198.391 46.0547 198.758 46.6797 199.492C47.3099 200.227 47.625 201.266 47.625 202.609V203.375H42.1016C42.1589 204.073 42.3906 204.625 42.7969 205.031C43.2083 205.438 43.724 205.641 44.3438 205.641C45.2135 205.641 45.9219 205.289 46.4688 204.586L47.4922 205.562C47.1536 206.068 46.7005 206.461 46.1328 206.742C45.5703 207.018 44.9375 207.156 44.2344 207.156ZM44.0078 199.914C43.487 199.914 43.0651 200.096 42.7422 200.461C42.4245 200.826 42.2214 201.333 42.1328 201.984H45.75V201.844C45.7083 201.208 45.5391 200.729 45.2422 200.406C44.9453 200.078 44.5339 199.914 44.0078 199.914ZM51.125 207H49.2266V195H51.125V207ZM56.9219 207.156C55.7188 207.156 54.7422 206.779 53.9922 206.023C53.2474 205.263 52.875 204.253 52.875 202.992V202.758C52.875 201.914 53.0365 201.161 53.3594 200.5C53.6875 199.833 54.1458 199.315 54.7344 198.945C55.3229 198.576 55.9792 198.391 56.7031 198.391C57.8542 198.391 58.7422 198.758 59.3672 199.492C59.9974 200.227 60.3125 201.266 60.3125 202.609V203.375H54.7891C54.8464 204.073 55.0781 204.625 55.4844 205.031C55.8958 205.438 56.4115 205.641 57.0312 205.641C57.901 205.641 58.6094 205.289 59.1562 204.586L60.1797 205.562C59.8411 206.068 59.388 206.461 58.8203 206.742C58.2578 207.018 57.625 207.156 56.9219 207.156ZM56.6953 199.914C56.1745 199.914 55.7526 200.096 55.4297 200.461C55.112 200.826 54.9089 201.333 54.8203 201.984H58.4375V201.844C58.3958 201.208 58.2266 200.729 57.9297 200.406C57.6328 200.078 57.2214 199.914 56.6953 199.914ZM63.5781 198.547L63.6328 199.43C64.2266 198.737 65.0391 198.391 66.0703 198.391C67.2005 198.391 67.974 198.823 68.3906 199.688C69.0052 198.823 69.8698 198.391 70.9844 198.391C71.9167 198.391 72.6094 198.648 73.0625 199.164C73.5208 199.68 73.7552 200.44 73.7656 201.445V207H71.8672V201.5C71.8672 200.964 71.75 200.57 71.5156 200.32C71.2812 200.07 70.8932 199.945 70.3516 199.945C69.9193 199.945 69.5651 200.062 69.2891 200.297C69.0182 200.526 68.8281 200.828 68.7188 201.203L68.7266 207H66.8281V201.438C66.8021 200.443 66.2943 199.945 65.3047 199.945C64.5443 199.945 64.0052 200.255 63.6875 200.875V207H61.7891V198.547H63.5781ZM79.4375 207.156C78.2344 207.156 77.2578 206.779 76.5078 206.023C75.763 205.263 75.3906 204.253 75.3906 202.992V202.758C75.3906 201.914 75.5521 201.161 75.875 200.5C76.2031 199.833 76.6615 199.315 77.25 198.945C77.8385 198.576 78.4948 198.391 79.2188 198.391C80.3698 198.391 81.2578 198.758 81.8828 199.492C82.513 200.227 82.8281 201.266 82.8281 202.609V203.375H77.3047C77.362 204.073 77.5938 204.625 78 205.031C78.4115 205.438 78.9271 205.641 79.5469 205.641C80.4167 205.641 81.125 205.289 81.6719 204.586L82.6953 205.562C82.3568 206.068 81.9036 206.461 81.3359 206.742C80.7734 207.018 80.1406 207.156 79.4375 207.156ZM79.2109 199.914C78.6901 199.914 78.2682 200.096 77.9453 200.461C77.6276 200.826 77.4245 201.333 77.3359 201.984H80.9531V201.844C80.9115 201.208 80.7422 200.729 80.4453 200.406C80.1484 200.078 79.737 199.914 79.2109 199.914ZM86.0703 198.547L86.125 199.523C86.75 198.768 87.5703 198.391 88.5859 198.391C90.3464 198.391 91.2422 199.398 91.2734 201.414V207H89.375V201.523C89.375 200.987 89.2578 200.591 89.0234 200.336C88.7943 200.076 88.4167 199.945 87.8906 199.945C87.125 199.945 86.5547 200.292 86.1797 200.984V207H84.2812V198.547H86.0703ZM95.5938 196.492V198.547H97.0859V199.953H95.5938V204.672C95.5938 204.995 95.6562 205.229 95.7812 205.375C95.9115 205.516 96.1406 205.586 96.4688 205.586C96.6875 205.586 96.9089 205.56 97.1328 205.508V206.977C96.7005 207.096 96.2839 207.156 95.8828 207.156C94.4245 207.156 93.6953 206.352 93.6953 204.742V199.953H92.3047V198.547H93.6953V196.492H95.5938ZM104.289 198.547L104.344 199.523C104.969 198.768 105.789 198.391 106.805 198.391C108.565 198.391 109.461 199.398 109.492 201.414V207H107.594V201.523C107.594 200.987 107.477 200.591 107.242 200.336C107.013 200.076 106.635 199.945 106.109 199.945C105.344 199.945 104.773 200.292 104.398 200.984V207H102.5V198.547H104.289Z" fill="#5452F6"/>
<path d="M70.4531 245C70.8073 245 71.0807 245.102 71.2734 245.305C71.4661 245.503 71.5625 245.753 71.5625 246.055C71.5625 246.352 71.4661 246.599 71.2734 246.797C71.0807 246.99 70.8073 247.086 70.4531 247.086C70.1146 247.086 69.8464 246.99 69.6484 246.797C69.4505 246.604 69.3516 246.357 69.3516 246.055C69.3516 245.753 69.4479 245.503 69.6406 245.305C69.8333 245.102 70.1042 245 70.4531 245ZM74.9219 245C75.276 245 75.5495 245.102 75.7422 245.305C75.9349 245.503 76.0312 245.753 76.0312 246.055C76.0312 246.352 75.9349 246.599 75.7422 246.797C75.5495 246.99 75.276 247.086 74.9219 247.086C74.5833 247.086 74.3151 246.99 74.1172 246.797C73.9193 246.604 73.8203 246.357 73.8203 246.055C73.8203 245.753 73.9167 245.503 74.1094 245.305C74.3021 245.102 74.5729 245 74.9219 245ZM79.3906 245C79.7448 245 80.0182 245.102 80.2109 245.305C80.4036 245.503 80.5 245.753 80.5 246.055C80.5 246.352 80.4036 246.599 80.2109 246.797C80.0182 246.99 79.7448 247.086 79.3906 247.086C79.0521 247.086 78.7839 246.99 78.5859 246.797C78.388 246.604 78.2891 246.357 78.2891 246.055C78.2891 245.753 78.3854 245.503 78.5781 245.305C78.7708 245.102 79.0417 245 79.3906 245Z" fill="#5452F6"/>
</g>
<path d="M8 84.5H142C146.142 84.5 149.5 87.8579 149.5 92V341.5H0.5V92C0.5 87.8579 3.85787 84.5 8 84.5Z" stroke="#5452F6"/>
</g>
<g filter="url(#filter1_d)">
<path d="M0 341H150V357C150 361.418 146.418 365 142 365H8C3.58172 365 0 361.418 0 357V341Z" fill="#EEEEFF"/>
<path d="M0.5 341.5H149.5V357C149.5 361.142 146.142 364.5 142 364.5H8C3.85787 364.5 0.5 361.142 0.5 357V341.5Z" stroke="#5452F6"/>
</g>
<line x1="36" y1="12" x2="36" y2="146" stroke="#65BF73" stroke-width="2"/>
<path d="M45.5 136L36 146.5L27 136" stroke="#65BF73" stroke-width="2" stroke-linecap="round" stroke-linejoin="round"/>
<circle cx="36" cy="6.5" r="5.5" transform="rotate(90 36 6.5)" stroke="#65BF73" stroke-width="2"/>
<line x1="101" y1="2" x2="101" y2="136" stroke="#65BF73" stroke-width="2"/>
<path d="M91.5 11.5L101 1L110 11.5" stroke="#65BF73" stroke-width="2" stroke-linecap="round" stroke-linejoin="round"/>
<circle cx="101" cy="140.5" r="5.5" transform="rotate(90 101 140.5)" stroke="#65BF73" stroke-width="2"/>
<path d="M51.4258 49.8945C51.4258 50.875 51.2031 51.6582 50.7578 52.2441C50.3125 52.8262 49.7148 53.1172 48.9648 53.1172C48.2695 53.1172 47.7129 52.8887 47.2949 52.4316V55.4375H45.8711V46.6602H47.1836L47.2422 47.3047C47.6602 46.7969 48.2285 46.543 48.9473 46.543C49.7207 46.543 50.3262 46.832 50.7637 47.4102C51.2051 47.9844 51.4258 48.7832 51.4258 49.8066V49.8945ZM50.0078 49.7715C50.0078 49.1387 49.8809 48.6367 49.627 48.2656C49.377 47.8945 49.0176 47.709 48.5488 47.709C47.9668 47.709 47.5488 47.9492 47.2949 48.4297V51.2422C47.5527 51.7344 47.9746 51.9805 48.5605 51.9805C49.0137 51.9805 49.3672 51.7988 49.6211 51.4355C49.8789 51.0684 50.0078 50.5137 50.0078 49.7715ZM56.4766 52.3789C56.0586 52.8711 55.4648 53.1172 54.6953 53.1172C54.0078 53.1172 53.4863 52.916 53.1309 52.5137C52.7793 52.1113 52.6035 51.5293 52.6035 50.7676V46.6602H54.0273V50.75C54.0273 51.5547 54.3613 51.957 55.0293 51.957C55.7207 51.957 56.1875 51.709 56.4297 51.2129V46.6602H57.8535V53H56.5117L56.4766 52.3789ZM62.8574 51.2773C62.8574 51.0234 62.752 50.8301 62.541 50.6973C62.334 50.5645 61.9883 50.4473 61.5039 50.3457C61.0195 50.2441 60.6152 50.1152 60.291 49.959C59.5801 49.6152 59.2246 49.1172 59.2246 48.4648C59.2246 47.918 59.4551 47.4609 59.916 47.0938C60.377 46.7266 60.9629 46.543 61.6738 46.543C62.4316 46.543 63.043 46.7305 63.5078 47.1055C63.9766 47.4805 64.2109 47.9668 64.2109 48.5645H62.7871C62.7871 48.291 62.6855 48.0645 62.4824 47.8848C62.2793 47.7012 62.0098 47.6094 61.6738 47.6094C61.3613 47.6094 61.1055 47.6816 60.9062 47.8262C60.7109 47.9707 60.6133 48.1641 60.6133 48.4062C60.6133 48.625 60.7051 48.7949 60.8887 48.916C61.0723 49.0371 61.4434 49.1602 62.002 49.2852C62.5605 49.4062 62.998 49.5527 63.3145 49.7246C63.6348 49.8926 63.8711 50.0957 64.0234 50.334C64.1797 50.5723 64.2578 50.8613 64.2578 51.2012C64.2578 51.7715 64.0215 52.2344 63.5488 52.5898C63.0762 52.9414 62.457 53.1172 61.6914 53.1172C61.1719 53.1172 60.709 53.0234 60.3027 52.8359C59.8965 52.6484 59.5801 52.3906 59.3535 52.0625C59.127 51.7344 59.0137 51.3809 59.0137 51.002H60.3965C60.416 51.3379 60.543 51.5977 60.7773 51.7812C61.0117 51.9609 61.3223 52.0508 61.709 52.0508C62.084 52.0508 62.3691 51.9805 62.5645 51.8398C62.7598 51.6953 62.8574 51.5078 62.8574 51.2773ZM66.9062 47.3516C67.3711 46.8125 67.959 46.543 68.6699 46.543C70.0215 46.543 70.707 47.3145 70.7266 48.8574V53H69.3027V48.9102C69.3027 48.4727 69.207 48.1641 69.0156 47.9844C68.8281 47.8008 68.5508 47.709 68.1836 47.709C67.6133 47.709 67.1875 47.9629 66.9062 48.4707V53H65.4824V44H66.9062V47.3516ZM72.1914 49.5312C72.1914 48.6289 72.3125 47.7734 72.5547 46.9648C72.7969 46.1523 73.1523 45.4277 73.6211 44.791C74.0898 44.1504 74.5859 43.7012 75.1094 43.4434L75.3906 44.2754C74.8398 44.6934 74.3926 45.332 74.0488 46.1914C73.709 47.0469 73.5234 48.0273 73.4922 49.1328L73.4863 49.6367C73.4863 50.8203 73.6523 51.877 73.9844 52.8066C74.3203 53.7324 74.7891 54.4375 75.3906 54.9219L75.1094 55.7129C74.5859 55.4551 74.0879 55.0039 73.6152 54.3594C73.1465 53.7188 72.791 52.9961 72.5488 52.1914C72.3105 51.3828 72.1914 50.4961 72.1914 49.5312ZM79.0996 49.625C79.0996 50.4922 78.9805 51.3301 78.7422 52.1387C78.5039 52.9434 78.1426 53.6758 77.6582 54.3359C77.1738 55 76.668 55.459 76.1406 55.7129L75.8594 54.9219C76.4453 54.4688 76.9082 53.7773 77.248 52.8477C77.5918 51.9141 77.7637 50.8496 77.7637 49.6543V49.5195C77.7637 48.4336 77.6152 47.4453 77.3184 46.5547C77.0215 45.6602 76.5957 44.9434 76.041 44.4043L75.8594 44.2402L76.1406 43.4434C76.6406 43.6855 77.125 44.1152 77.5938 44.7324C78.0625 45.3496 78.4219 46.041 78.6719 46.8066C78.9219 47.5684 79.0625 48.3555 79.0938 49.168L79.0996 49.625Z" fill="#65BF73"/>
<path d="M119.396 49.8945C119.396 50.875 119.174 51.6582 118.729 52.2441C118.283 52.8262 117.686 53.1172 116.936 53.1172C116.24 53.1172 115.684 52.8887 115.266 52.4316V55.4375H113.842V46.6602H115.154L115.213 47.3047C115.631 46.7969 116.199 46.543 116.918 46.543C117.691 46.543 118.297 46.832 118.734 47.4102C119.176 47.9844 119.396 48.7832 119.396 49.8066V49.8945ZM117.979 49.7715C117.979 49.1387 117.852 48.6367 117.598 48.2656C117.348 47.8945 116.988 47.709 116.52 47.709C115.938 47.709 115.52 47.9492 115.266 48.4297V51.2422C115.523 51.7344 115.945 51.9805 116.531 51.9805C116.984 51.9805 117.338 51.7988 117.592 51.4355C117.85 51.0684 117.979 50.5137 117.979 49.7715ZM120.34 49.7715C120.34 49.1504 120.463 48.5918 120.709 48.0957C120.955 47.5957 121.301 47.2129 121.746 46.9473C122.191 46.6777 122.703 46.543 123.281 46.543C124.137 46.543 124.83 46.8184 125.361 47.3691C125.896 47.9199 126.186 48.6504 126.229 49.5605L126.234 49.8945C126.234 50.5195 126.113 51.0781 125.871 51.5703C125.633 52.0625 125.289 52.4434 124.84 52.7129C124.395 52.9824 123.879 53.1172 123.293 53.1172C122.398 53.1172 121.682 52.8203 121.143 52.2266C120.607 51.6289 120.34 50.834 120.34 49.8418V49.7715ZM121.764 49.8945C121.764 50.5469 121.898 51.0586 122.168 51.4297C122.438 51.7969 122.812 51.9805 123.293 51.9805C123.773 51.9805 124.146 51.793 124.412 51.418C124.682 51.043 124.816 50.4941 124.816 49.7715C124.816 49.1309 124.678 48.623 124.4 48.248C124.127 47.873 123.754 47.6855 123.281 47.6855C122.816 47.6855 122.447 47.8711 122.174 48.2422C121.9 48.6094 121.764 49.1602 121.764 49.8945ZM132.99 49.8945C132.99 50.875 132.768 51.6582 132.322 52.2441C131.877 52.8262 131.279 53.1172 130.529 53.1172C129.834 53.1172 129.277 52.8887 128.859 52.4316V55.4375H127.436V46.6602H128.748L128.807 47.3047C129.225 46.7969 129.793 46.543 130.512 46.543C131.285 46.543 131.891 46.832 132.328 47.4102C132.77 47.9844 132.99 48.7832 132.99 49.8066V49.8945ZM131.572 49.7715C131.572 49.1387 131.445 48.6367 131.191 48.2656C130.941 47.8945 130.582 47.709 130.113 47.709C129.531 47.709 129.113 47.9492 128.859 48.4297V51.2422C129.117 51.7344 129.539 51.9805 130.125 51.9805C130.578 51.9805 130.932 51.7988 131.186 51.4355C131.443 51.0684 131.572 50.5137 131.572 49.7715ZM134.221 49.5312C134.221 48.6289 134.342 47.7734 134.584 46.9648C134.826 46.1523 135.182 45.4277 135.65 44.791C136.119 44.1504 136.615 43.7012 137.139 43.4434L137.42 44.2754C136.869 44.6934 136.422 45.332 136.078 46.1914C135.738 47.0469 135.553 48.0273 135.521 49.1328L135.516 49.6367C135.516 50.8203 135.682 51.877 136.014 52.8066C136.35 53.7324 136.818 54.4375 137.42 54.9219L137.139 55.7129C136.615 55.4551 136.117 55.0039 135.645 54.3594C135.176 53.7188 134.82 52.9961 134.578 52.1914C134.34 51.3828 134.221 50.4961 134.221 49.5312ZM141.129 49.625C141.129 50.4922 141.01 51.3301 140.771 52.1387C140.533 52.9434 140.172 53.6758 139.688 54.3359C139.203 55 138.697 55.459 138.17 55.7129L137.889 54.9219C138.475 54.4688 138.938 53.7773 139.277 52.8477C139.621 51.9141 139.793 50.8496 139.793 49.6543V49.5195C139.793 48.4336 139.645 47.4453 139.348 46.5547C139.051 45.6602 138.625 44.9434 138.07 44.4043L137.889 44.2402L138.17 43.4434C138.67 43.6855 139.154 44.1152 139.623 44.7324C140.092 45.3496 140.451 46.041 140.701 46.8066C140.951 47.5684 141.092 48.3555 141.123 49.168L141.129 49.625Z" fill="#65BF73"/>
<defs>
<filter id="filter0_d" x="0" y="84" width="154" height="262" filterUnits="userSpaceOnUse" color-interpolation-filters="sRGB">
<feFlood flood-opacity="0" result="BackgroundImageFix"/>
<feColorMatrix in="SourceAlpha" type="matrix" values="0 0 0 0 0 0 0 0 0 0 0 0 0 0 0 0 0 0 127 0"/>
<feOffset dx="4" dy="4"/>
<feColorMatrix type="matrix" values="0 0 0 0 0.674908 0 0 0 0 0.662083 0 0 0 0 0.945833 0 0 0 1 0"/>
<feBlend mode="normal" in2="BackgroundImageFix" result="effect1_dropShadow"/>
<feBlend mode="normal" in="SourceGraphic" in2="effect1_dropShadow" result="shape"/>
</filter>
<filter id="filter1_d" x="0" y="341" width="154" height="28" filterUnits="userSpaceOnUse" color-interpolation-filters="sRGB">
<feFlood flood-opacity="0" result="BackgroundImageFix"/>
<feColorMatrix in="SourceAlpha" type="matrix" values="0 0 0 0 0 0 0 0 0 0 0 0 0 0 0 0 0 0 127 0"/>
<feOffset dx="4" dy="4"/>
<feColorMatrix type="matrix" values="0 0 0 0 0.674908 0 0 0 0 0.662083 0 0 0 0 0.945833 0 0 0 1 0"/>
<feBlend mode="normal" in2="BackgroundImageFix" result="effect1_dropShadow"/>
<feBlend mode="normal" in="SourceGraphic" in2="effect1_dropShadow" result="shape"/>
</filter>
<clipPath id="clip0">
<path d="M0 92C0 87.5817 3.58172 84 8 84H142C146.418 84 150 87.5817 150 92V342H0V92Z" fill="white"/>
</clipPath>
</defs>
</svg>
