<svg width="633" height="147" viewBox="0 0 633 147" fill="none" xmlns="http://www.w3.org/2000/svg">
<line x1="255" y1="119.5" x2="389" y2="119.5" stroke="#65BF73" stroke-width="2"/>
<path d="M379 110L389.5 119.5L379 128.5" stroke="#65BF73" stroke-width="2" stroke-linecap="round" stroke-linejoin="round"/>
<circle cx="250.5" cy="120" r="5.5" stroke="#65BF73" stroke-width="2"/>
<path d="M285.078 66H283.109V54.625H285.078V66ZM294.062 61.1797H289.484V66H287.508V54.625H294.734V56.2188H289.484V59.6016H294.062V61.1797ZM302.336 67.4922H295.172V66H302.336V67.4922ZM312.547 66H310.57L305.5 57.9297V66H303.523V54.625H305.5L310.586 62.7266V54.625H312.547V66ZM323.961 60.6094C323.961 61.724 323.768 62.7031 323.383 63.5469C322.997 64.3854 322.445 65.0312 321.727 65.4844C321.013 65.9323 320.19 66.1562 319.258 66.1562C318.336 66.1562 317.513 65.9323 316.789 65.4844C316.07 65.0312 315.513 64.388 315.117 63.5547C314.727 62.7214 314.529 61.7604 314.523 60.6719V60.0312C314.523 58.9219 314.719 57.9427 315.109 57.0938C315.505 56.2448 316.06 55.5964 316.773 55.1484C317.492 54.6953 318.315 54.4688 319.242 54.4688C320.169 54.4688 320.99 54.6927 321.703 55.1406C322.422 55.5833 322.977 56.224 323.367 57.0625C323.758 57.8958 323.956 58.8672 323.961 59.9766V60.6094ZM321.984 60.0156C321.984 58.7552 321.745 57.7891 321.266 57.1172C320.792 56.4453 320.117 56.1094 319.242 56.1094C318.388 56.1094 317.719 56.4453 317.234 57.1172C316.755 57.7839 316.51 58.7292 316.5 59.9531V60.6094C316.5 61.8594 316.742 62.8255 317.227 63.5078C317.716 64.1901 318.393 64.5312 319.258 64.5312C320.133 64.5312 320.805 64.1979 321.273 63.5312C321.747 62.8646 321.984 61.8906 321.984 60.6094V60.0156ZM334.953 66H332.977L327.906 57.9297V66H325.93V54.625H327.906L332.992 62.7266V54.625H334.953V66ZM343.938 60.9219H339.266V64.4219H344.727V66H337.289V54.625H344.672V56.2188H339.266V59.3594H343.938V60.9219ZM306.688 87.8125C304.849 87.2969 303.911 86.1224 303.875 84.2891V82.625C303.875 81.4531 303.372 80.8672 302.367 80.8672V79.4766C303.372 79.4766 303.875 78.888 303.875 77.7109V76.0547C303.891 75.1172 304.133 74.3594 304.602 73.7812C305.076 73.2031 305.771 72.7839 306.688 72.5234L307.062 73.6172C306.161 73.9089 305.695 74.7057 305.664 76.0078V77.6953C305.664 78.8672 305.214 79.6901 304.312 80.1641C305.214 80.6432 305.664 81.474 305.664 82.6562V84.3203C305.695 85.6224 306.161 86.4193 307.062 86.7109L306.688 87.8125ZM318.391 82.0703C318.391 81.5703 318.214 81.1849 317.859 80.9141C317.51 80.6432 316.878 80.3698 315.961 80.0938C315.044 79.8177 314.315 79.5104 313.773 79.1719C312.737 78.5208 312.219 77.6719 312.219 76.625C312.219 75.7083 312.591 74.9531 313.336 74.3594C314.086 73.7656 315.057 73.4688 316.25 73.4688C317.042 73.4688 317.747 73.6146 318.367 73.9062C318.987 74.1979 319.474 74.6146 319.828 75.1562C320.182 75.6927 320.359 76.2891 320.359 76.9453H318.391C318.391 76.3516 318.203 75.888 317.828 75.5547C317.458 75.2161 316.927 75.0469 316.234 75.0469C315.589 75.0469 315.086 75.1849 314.727 75.4609C314.372 75.737 314.195 76.1224 314.195 76.6172C314.195 77.0339 314.388 77.3828 314.773 77.6641C315.159 77.9401 315.794 78.2109 316.68 78.4766C317.565 78.737 318.276 79.0365 318.812 79.375C319.349 79.7083 319.742 80.0938 319.992 80.5312C320.242 80.9635 320.367 81.4714 320.367 82.0547C320.367 83.0026 320.003 83.7578 319.273 84.3203C318.549 84.8776 317.565 85.1562 316.32 85.1562C315.497 85.1562 314.74 85.0052 314.047 84.7031C313.359 84.3958 312.823 83.974 312.438 83.4375C312.057 82.901 311.867 82.276 311.867 81.5625H313.844C313.844 82.2083 314.057 82.7083 314.484 83.0625C314.911 83.4167 315.523 83.5938 316.32 83.5938C317.008 83.5938 317.523 83.4557 317.867 83.1797C318.216 82.8984 318.391 82.5286 318.391 82.0703ZM331.023 82.1875L332.773 73.625H334.734L332.109 85H330.219L328.055 76.6953L325.844 85H323.945L321.32 73.625H323.281L325.047 82.1719L327.219 73.625H328.875L331.023 82.1875ZM342.203 82.3516H337.797L336.875 85H334.82L339.117 73.625H340.891L345.195 85H343.133L342.203 82.3516ZM338.352 80.7578H341.648L340 76.0391L338.352 80.7578ZM348.469 80.7734V85H346.492V73.625H350.844C352.115 73.625 353.122 73.9557 353.867 74.6172C354.617 75.2786 354.992 76.1536 354.992 77.2422C354.992 78.3568 354.625 79.224 353.891 79.8438C353.161 80.4635 352.138 80.7734 350.82 80.7734H348.469ZM348.469 79.1875H350.844C351.547 79.1875 352.083 79.0234 352.453 78.6953C352.823 78.362 353.008 77.8828 353.008 77.2578C353.008 76.6432 352.82 76.1536 352.445 75.7891C352.07 75.4193 351.555 75.2292 350.898 75.2188H348.469V79.1875ZM359.766 86.7109C360.682 86.4141 361.151 85.6016 361.172 84.2734V82.6484C361.172 81.4453 361.646 80.6198 362.594 80.1719C361.646 79.724 361.172 78.8906 361.172 77.6719V76.0547C361.151 74.7266 360.682 73.9141 359.766 73.6172L360.141 72.5234C361.089 72.7891 361.794 73.2214 362.258 73.8203C362.721 74.4141 362.953 75.1927 362.953 76.1562V77.7188C362.953 78.8906 363.458 79.4766 364.469 79.4766V80.8672C363.458 80.8672 362.953 81.4531 362.953 82.625V84.1641C362.953 85.138 362.719 85.9219 362.25 86.5156C361.786 87.1146 361.083 87.5469 360.141 87.8125L359.766 86.7109ZM305.977 106.812C304.138 106.297 303.201 105.122 303.164 103.289V101.625C303.164 100.453 302.661 99.8672 301.656 99.8672V98.4766C302.661 98.4766 303.164 97.888 303.164 96.7109V95.0547C303.18 94.1172 303.422 93.3594 303.891 92.7812C304.365 92.2031 305.06 91.7839 305.977 91.5234L306.352 92.6172C305.451 92.9089 304.984 93.7057 304.953 95.0078V96.6953C304.953 97.8672 304.503 98.6901 303.602 99.1641C304.503 99.6432 304.953 100.474 304.953 101.656V103.32C304.984 104.622 305.451 105.419 306.352 105.711L305.977 106.812ZM311.734 104V92.625H315.094C316.099 92.625 316.99 92.849 317.766 93.2969C318.547 93.7448 319.151 94.3802 319.578 95.2031C320.005 96.026 320.219 96.9688 320.219 98.0312V98.6016C320.219 99.6797 320.003 100.628 319.57 101.445C319.143 102.263 318.531 102.893 317.734 103.336C316.943 103.779 316.034 104 315.008 104H311.734ZM313.711 94.2188V102.422H315C316.036 102.422 316.831 102.099 317.383 101.453C317.94 100.802 318.224 99.8698 318.234 98.6562V98.0234C318.234 96.7891 317.966 95.8464 317.43 95.1953C316.893 94.5443 316.115 94.2188 315.094 94.2188H313.711ZM326.367 99.6172H324.164V104H322.188V92.625H326.188C327.5 92.625 328.513 92.9193 329.227 93.5078C329.94 94.0964 330.297 94.9479 330.297 96.0625C330.297 96.8229 330.112 97.4609 329.742 97.9766C329.378 98.487 328.867 98.8802 328.211 99.1562L330.766 103.898V104H328.648L326.367 99.6172ZM324.164 98.0312H326.195C326.862 98.0312 327.383 97.8646 327.758 97.5312C328.133 97.1927 328.32 96.7318 328.32 96.1484C328.32 95.5391 328.146 95.0677 327.797 94.7344C327.453 94.401 326.938 94.2292 326.25 94.2188H324.164V98.0312ZM341.25 98.6094C341.25 99.724 341.057 100.703 340.672 101.547C340.286 102.385 339.734 103.031 339.016 103.484C338.302 103.932 337.479 104.156 336.547 104.156C335.625 104.156 334.802 103.932 334.078 103.484C333.359 103.031 332.802 102.388 332.406 101.555C332.016 100.721 331.818 99.7604 331.812 98.6719V98.0312C331.812 96.9219 332.008 95.9427 332.398 95.0938C332.794 94.2448 333.349 93.5964 334.062 93.1484C334.781 92.6953 335.604 92.4688 336.531 92.4688C337.458 92.4688 338.279 92.6927 338.992 93.1406C339.711 93.5833 340.266 94.224 340.656 95.0625C341.047 95.8958 341.245 96.8672 341.25 97.9766V98.6094ZM339.273 98.0156C339.273 96.7552 339.034 95.7891 338.555 95.1172C338.081 94.4453 337.406 94.1094 336.531 94.1094C335.677 94.1094 335.008 94.4453 334.523 95.1172C334.044 95.7839 333.799 96.7292 333.789 97.9531V98.6094C333.789 99.8594 334.031 100.826 334.516 101.508C335.005 102.19 335.682 102.531 336.547 102.531C337.422 102.531 338.094 102.198 338.562 101.531C339.036 100.865 339.273 99.8906 339.273 98.6094V98.0156ZM345.195 99.7734V104H343.219V92.625H347.57C348.841 92.625 349.849 92.9557 350.594 93.6172C351.344 94.2786 351.719 95.1536 351.719 96.2422C351.719 97.3568 351.352 98.224 350.617 98.8438C349.888 99.4635 348.865 99.7734 347.547 99.7734H345.195ZM345.195 98.1875H347.57C348.273 98.1875 348.81 98.0234 349.18 97.6953C349.549 97.362 349.734 96.8828 349.734 96.2578C349.734 95.6432 349.547 95.1536 349.172 94.7891C348.797 94.4193 348.281 94.2292 347.625 94.2188H345.195V98.1875ZM356.492 105.711C357.409 105.414 357.878 104.602 357.898 103.273V101.648C357.898 100.445 358.372 99.6198 359.32 99.1719C358.372 98.724 357.898 97.8906 357.898 96.6719V95.0547C357.878 93.7266 357.409 92.9141 356.492 92.6172L356.867 91.5234C357.815 91.7891 358.521 92.2214 358.984 92.8203C359.448 93.4141 359.68 94.1927 359.68 95.1562V96.7188C359.68 97.8906 360.185 98.4766 361.195 98.4766V99.8672C360.185 99.8672 359.68 100.453 359.68 101.625V103.164C359.68 104.138 359.445 104.922 358.977 105.516C358.513 106.115 357.81 106.547 356.867 106.812L356.492 105.711Z" fill="#65BF73"/>
<g filter="url(#filter0_d)">
<path d="M0 8C0 3.58172 3.58172 0 8 0H221C225.418 0 229 3.58172 229 8V120H0V8Z" fill="white"/>
<line x1="0.5" y1="79.5" x2="228.5" y2="79.5" stroke="#5452F6"/>
<line x1="0.5" y1="39.5" x2="228.5" y2="39.5" stroke="#5452F6"/>
<path d="M73.7891 102.07C73.7891 101.57 73.612 101.185 73.2578 100.914C72.9089 100.643 72.276 100.37 71.3594 100.094C70.4427 99.8177 69.7135 99.5104 69.1719 99.1719C68.1354 98.5208 67.6172 97.6719 67.6172 96.625C67.6172 95.7083 67.9896 94.9531 68.7344 94.3594C69.4844 93.7656 70.4557 93.4688 71.6484 93.4688C72.4401 93.4688 73.1458 93.6146 73.7656 93.9062C74.3854 94.1979 74.8724 94.6146 75.2266 95.1562C75.5807 95.6927 75.7578 96.2891 75.7578 96.9453H73.7891C73.7891 96.3516 73.6016 95.888 73.2266 95.5547C72.8568 95.2161 72.3255 95.0469 71.6328 95.0469C70.987 95.0469 70.4844 95.1849 70.125 95.4609C69.7708 95.737 69.5938 96.1224 69.5938 96.6172C69.5938 97.0339 69.7865 97.3828 70.1719 97.6641C70.5573 97.9401 71.1927 98.2109 72.0781 98.4766C72.9635 98.737 73.6745 99.0365 74.2109 99.375C74.7474 99.7083 75.1406 100.094 75.3906 100.531C75.6406 100.964 75.7656 101.471 75.7656 102.055C75.7656 103.003 75.401 103.758 74.6719 104.32C73.9479 104.878 72.9635 105.156 71.7188 105.156C70.8958 105.156 70.138 105.005 69.4453 104.703C68.7578 104.396 68.2214 103.974 67.8359 103.438C67.4557 102.901 67.2656 102.276 67.2656 101.562H69.2422C69.2422 102.208 69.4557 102.708 69.8828 103.062C70.3099 103.417 70.9219 103.594 71.7188 103.594C72.4062 103.594 72.9219 103.456 73.2656 103.18C73.6146 102.898 73.7891 102.529 73.7891 102.07ZM79.6953 94.4922V96.5469H81.1875V97.9531H79.6953V102.672C79.6953 102.995 79.7578 103.229 79.8828 103.375C80.013 103.516 80.2422 103.586 80.5703 103.586C80.7891 103.586 81.0104 103.56 81.2344 103.508V104.977C80.8021 105.096 80.3854 105.156 79.9844 105.156C78.526 105.156 77.7969 104.352 77.7969 102.742V97.9531H76.4062V96.5469H77.7969V94.4922H79.6953ZM87.0703 98.2812C86.8203 98.2396 86.5625 98.2188 86.2969 98.2188C85.4271 98.2188 84.8411 98.5521 84.5391 99.2188V105H82.6406V96.5469H84.4531L84.5 97.4922C84.9583 96.7578 85.5938 96.3906 86.4062 96.3906C86.6771 96.3906 86.901 96.4271 87.0781 96.5L87.0703 98.2812ZM90.2891 105H88.3906V96.5469H90.2891V105ZM88.2734 94.3516C88.2734 94.0599 88.3646 93.8177 88.5469 93.625C88.7344 93.4323 89 93.3359 89.3438 93.3359C89.6875 93.3359 89.9531 93.4323 90.1406 93.625C90.3281 93.8177 90.4219 94.0599 90.4219 94.3516C90.4219 94.638 90.3281 94.8776 90.1406 95.0703C89.9531 95.2578 89.6875 95.3516 89.3438 95.3516C89 95.3516 88.7344 95.2578 88.5469 95.0703C88.3646 94.8776 88.2734 94.638 88.2734 94.3516ZM94.125 96.5469L94.1797 97.5234C94.8047 96.7682 95.625 96.3906 96.6406 96.3906C98.401 96.3906 99.2969 97.3984 99.3281 99.4141V105H97.4297V99.5234C97.4297 98.987 97.3125 98.5911 97.0781 98.3359C96.849 98.0755 96.4714 97.9453 95.9453 97.9453C95.1797 97.9453 94.6094 98.2917 94.2344 98.9844V105H92.3359V96.5469H94.125ZM100.938 100.711C100.938 99.3984 101.245 98.3516 101.859 97.5703C102.479 96.7839 103.299 96.3906 104.32 96.3906C105.284 96.3906 106.042 96.7266 106.594 97.3984L106.68 96.5469H108.391V104.742C108.391 105.852 108.044 106.727 107.352 107.367C106.664 108.008 105.734 108.328 104.562 108.328C103.943 108.328 103.336 108.198 102.742 107.938C102.154 107.682 101.706 107.346 101.398 106.93L102.297 105.789C102.88 106.482 103.599 106.828 104.453 106.828C105.083 106.828 105.581 106.656 105.945 106.312C106.31 105.974 106.492 105.474 106.492 104.812V104.242C105.945 104.852 105.216 105.156 104.305 105.156C103.315 105.156 102.505 104.763 101.875 103.977C101.25 103.19 100.938 102.102 100.938 100.711ZM102.828 100.875C102.828 101.724 103 102.393 103.344 102.883C103.693 103.367 104.174 103.609 104.789 103.609C105.555 103.609 106.122 103.281 106.492 102.625V98.9062C106.133 98.2656 105.57 97.9453 104.805 97.9453C104.18 97.9453 103.693 98.1927 103.344 98.6875C103 99.1823 102.828 99.9115 102.828 100.875ZM115.633 92.7969L116.602 93.3984C116.128 94.0911 115.883 94.8125 115.867 95.5625V96.75H114.203V95.6719C114.208 95.1719 114.344 94.651 114.609 94.1094C114.88 93.5625 115.221 93.125 115.633 92.7969ZM118.258 92.7969L119.227 93.3984C118.753 94.0911 118.508 94.8125 118.492 95.5625V96.75H116.828V95.6719C116.833 95.1719 116.969 94.651 117.234 94.1094C117.505 93.5625 117.846 93.125 118.258 92.7969ZM129.703 105H127.734V99.9453H122.648V105H120.672V93.625H122.648V98.3594H127.734V93.625H129.703V105ZM135.586 105.156C134.383 105.156 133.406 104.779 132.656 104.023C131.911 103.263 131.539 102.253 131.539 100.992V100.758C131.539 99.9141 131.701 99.1615 132.023 98.5C132.352 97.8333 132.81 97.3151 133.398 96.9453C133.987 96.5755 134.643 96.3906 135.367 96.3906C136.518 96.3906 137.406 96.7578 138.031 97.4922C138.661 98.2266 138.977 99.2656 138.977 100.609V101.375H133.453C133.51 102.073 133.742 102.625 134.148 103.031C134.56 103.438 135.076 103.641 135.695 103.641C136.565 103.641 137.273 103.289 137.82 102.586L138.844 103.562C138.505 104.068 138.052 104.461 137.484 104.742C136.922 105.018 136.289 105.156 135.586 105.156ZM135.359 97.9141C134.839 97.9141 134.417 98.0964 134.094 98.4609C133.776 98.8255 133.573 99.3333 133.484 99.9844H137.102V99.8438C137.06 99.2083 136.891 98.7292 136.594 98.4062C136.297 98.0781 135.885 97.9141 135.359 97.9141ZM142.477 105H140.578V93H142.477V105ZM146.57 105H144.672V93H146.57V105ZM148.289 100.695C148.289 99.8672 148.453 99.1224 148.781 98.4609C149.109 97.7943 149.57 97.2839 150.164 96.9297C150.758 96.5703 151.44 96.3906 152.211 96.3906C153.352 96.3906 154.276 96.7578 154.984 97.4922C155.698 98.2266 156.083 99.2005 156.141 100.414L156.148 100.859C156.148 101.693 155.987 102.438 155.664 103.094C155.346 103.75 154.888 104.258 154.289 104.617C153.695 104.977 153.008 105.156 152.227 105.156C151.034 105.156 150.078 104.76 149.359 103.969C148.646 103.172 148.289 102.112 148.289 100.789V100.695ZM150.188 100.859C150.188 101.729 150.367 102.411 150.727 102.906C151.086 103.396 151.586 103.641 152.227 103.641C152.867 103.641 153.365 103.391 153.719 102.891C154.078 102.391 154.258 101.659 154.258 100.695C154.258 99.8411 154.073 99.1641 153.703 98.6641C153.339 98.1641 152.841 97.9141 152.211 97.9141C151.591 97.9141 151.099 98.1615 150.734 98.6562C150.37 99.1458 150.188 99.8802 150.188 100.859ZM157.562 97L156.594 96.3984C157.062 95.7161 157.305 94.9948 157.32 94.2344V93H158.984V94.0781C158.984 94.6146 158.846 95.1562 158.57 95.7031C158.299 96.2448 157.964 96.6771 157.562 97ZM160.172 97L159.203 96.3984C159.672 95.7161 159.914 94.9948 159.93 94.2344V93H161.594V94.0781C161.594 94.6146 161.456 95.1562 161.18 95.7031C160.909 96.2448 160.573 96.6771 160.172 97Z" fill="#5452F6"/>
<path d="M99.25 56.5469L99.3047 57.5234C99.9297 56.7682 100.75 56.3906 101.766 56.3906C103.526 56.3906 104.422 57.3984 104.453 59.4141V65H102.555V59.5234C102.555 58.987 102.438 58.5911 102.203 58.3359C101.974 58.0755 101.596 57.9453 101.07 57.9453C100.305 57.9453 99.7344 58.2917 99.3594 58.9844V65H97.4609V56.5469H99.25ZM111.445 65C111.362 64.8385 111.289 64.5755 111.227 64.2109C110.622 64.8411 109.883 65.1562 109.008 65.1562C108.159 65.1562 107.466 64.9141 106.93 64.4297C106.393 63.9453 106.125 63.3464 106.125 62.6328C106.125 61.7318 106.458 61.0417 107.125 60.5625C107.797 60.0781 108.755 59.8359 110 59.8359H111.164V59.2812C111.164 58.8438 111.042 58.4948 110.797 58.2344C110.552 57.9688 110.18 57.8359 109.68 57.8359C109.247 57.8359 108.893 57.9453 108.617 58.1641C108.341 58.3776 108.203 58.651 108.203 58.9844H106.305C106.305 58.5208 106.458 58.0885 106.766 57.6875C107.073 57.2812 107.49 56.9635 108.016 56.7344C108.547 56.5052 109.138 56.3906 109.789 56.3906C110.779 56.3906 111.568 56.6406 112.156 57.1406C112.745 57.6354 113.047 58.3333 113.062 59.2344V63.0469C113.062 63.8073 113.169 64.4141 113.383 64.8672V65H111.445ZM109.359 63.6328C109.734 63.6328 110.086 63.5417 110.414 63.3594C110.747 63.1771 110.997 62.9323 111.164 62.625V61.0312H110.141C109.438 61.0312 108.909 61.1536 108.555 61.3984C108.201 61.6432 108.023 61.9896 108.023 62.4375C108.023 62.8021 108.143 63.0938 108.383 63.3125C108.628 63.526 108.953 63.6328 109.359 63.6328ZM117.43 54.4922V56.5469H118.922V57.9531H117.43V62.6719C117.43 62.9948 117.492 63.2292 117.617 63.375C117.747 63.5156 117.977 63.5859 118.305 63.5859C118.523 63.5859 118.745 63.5599 118.969 63.5078V64.9766C118.536 65.0964 118.12 65.1562 117.719 65.1562C116.26 65.1562 115.531 64.3516 115.531 62.7422V57.9531H114.141V56.5469H115.531V54.4922H117.43ZM124.75 59.3594L125.367 53.625H131.477V55.2656H126.945L126.633 57.9844C127.159 57.6823 127.753 57.5312 128.414 57.5312C129.497 57.5312 130.339 57.8776 130.938 58.5703C131.542 59.263 131.844 60.1953 131.844 61.3672C131.844 62.5234 131.51 63.4453 130.844 64.1328C130.177 64.8151 129.263 65.1562 128.102 65.1562C127.06 65.1562 126.195 64.862 125.508 64.2734C124.826 63.6797 124.456 62.8984 124.398 61.9297H126.234C126.307 62.4818 126.505 62.9062 126.828 63.2031C127.151 63.4948 127.573 63.6406 128.094 63.6406C128.677 63.6406 129.13 63.4323 129.453 63.0156C129.781 62.599 129.945 62.0312 129.945 61.3125C129.945 60.6198 129.766 60.0729 129.406 59.6719C129.047 59.2656 128.552 59.0625 127.922 59.0625C127.578 59.0625 127.286 59.1094 127.047 59.2031C126.807 59.2917 126.547 59.4688 126.266 59.7344L124.75 59.3594Z" fill="#5452F6"/>
<path d="M92.1172 25H90.1406L85.0703 16.9297V25H83.0938V13.625H85.0703L90.1562 21.7266V13.625H92.1172V25ZM103.531 19.6094C103.531 20.724 103.339 21.7031 102.953 22.5469C102.568 23.3854 102.016 24.0312 101.297 24.4844C100.583 24.9323 99.7604 25.1562 98.8281 25.1562C97.9062 25.1562 97.0833 24.9323 96.3594 24.4844C95.6406 24.0312 95.0833 23.388 94.6875 22.5547C94.2969 21.7214 94.099 20.7604 94.0938 19.6719V19.0312C94.0938 17.9219 94.2891 16.9427 94.6797 16.0938C95.0755 15.2448 95.6302 14.5964 96.3438 14.1484C97.0625 13.6953 97.8854 13.4688 98.8125 13.4688C99.7396 13.4688 100.56 13.6927 101.273 14.1406C101.992 14.5833 102.547 15.224 102.938 16.0625C103.328 16.8958 103.526 17.8672 103.531 18.9766V19.6094ZM101.555 19.0156C101.555 17.7552 101.315 16.7891 100.836 16.1172C100.362 15.4453 99.6875 15.1094 98.8125 15.1094C97.9583 15.1094 97.2891 15.4453 96.8047 16.1172C96.3255 16.7839 96.0807 17.7292 96.0703 18.9531V19.6094C96.0703 20.8594 96.3125 21.8255 96.7969 22.5078C97.2865 23.1901 97.9635 23.5312 98.8281 23.5312C99.7031 23.5312 100.375 23.1979 100.844 22.5312C101.318 21.8646 101.555 20.8906 101.555 19.6094V19.0156ZM114.523 25H112.547L107.477 16.9297V25H105.5V13.625H107.477L112.562 21.7266V13.625H114.523V25ZM123.508 19.9219H118.836V23.4219H124.297V25H116.859V13.625H124.242V15.2188H118.836V18.3594H123.508V19.9219ZM131.727 25H129.828V16.5469H131.727V25ZM129.711 14.3516C129.711 14.0599 129.802 13.8177 129.984 13.625C130.172 13.4323 130.438 13.3359 130.781 13.3359C131.125 13.3359 131.391 13.4323 131.578 13.625C131.766 13.8177 131.859 14.0599 131.859 14.3516C131.859 14.638 131.766 14.8776 131.578 15.0703C131.391 15.2578 131.125 15.3516 130.781 15.3516C130.438 15.3516 130.172 15.2578 129.984 15.0703C129.802 14.8776 129.711 14.638 129.711 14.3516ZM135.562 16.5469L135.617 17.5234C136.242 16.7682 137.062 16.3906 138.078 16.3906C139.839 16.3906 140.734 17.3984 140.766 19.4141V25H138.867V19.5234C138.867 18.987 138.75 18.5911 138.516 18.3359C138.286 18.0755 137.909 17.9453 137.383 17.9453C136.617 17.9453 136.047 18.2917 135.672 18.9844V25H133.773V16.5469H135.562ZM145.086 14.4922V16.5469H146.578V17.9531H145.086V22.6719C145.086 22.9948 145.148 23.2292 145.273 23.375C145.404 23.5156 145.633 23.5859 145.961 23.5859C146.18 23.5859 146.401 23.5599 146.625 23.5078V24.9766C146.193 25.0964 145.776 25.1562 145.375 25.1562C143.917 25.1562 143.188 24.3516 143.188 22.7422V17.9531H141.797V16.5469H143.188V14.4922H145.086Z" fill="#FF5A43"/>
<path d="M0.5 8C0.5 3.85786 3.85786 0.5 8 0.5H221C225.142 0.5 228.5 3.85787 228.5 8V119.5H0.5V8Z" stroke="#5452F6"/>
</g>
<g filter="url(#filter1_d)">
<path d="M0 119H229V135C229 139.418 225.418 143 221 143H8.00001C3.58173 143 0 139.418 0 135V119Z" fill="#EEEEFF"/>
<path d="M0.5 119.5H228.5V135C228.5 139.142 225.142 142.5 221 142.5H8.00001C3.85787 142.5 0.5 139.142 0.5 135V119.5Z" stroke="#5452F6"/>
</g>
<g filter="url(#filter2_d)">
<path d="M400 48C400 43.5817 403.582 40 408 40H621C625.418 40 629 43.5817 629 48V120H400V48Z" fill="white"/>
<path d="M400.5 48C400.5 43.8579 403.858 40.5 408 40.5H621C625.142 40.5 628.5 43.8579 628.5 48V119.5H400.5V48Z" stroke="#5452F6"/>
</g>
<g filter="url(#filter3_d)">
<path d="M400 119H629V135C629 139.418 625.418 143 621 143H408C403.582 143 400 139.418 400 135V119Z" fill="#EEEEFF"/>
<path d="M400.5 119.5H628.5V135C628.5 139.142 625.142 142.5 621 142.5H408C403.858 142.5 400.5 139.142 400.5 135V119.5Z" stroke="#5452F6"/>
</g>
<line x1="400.5" y1="79.5" x2="628.5" y2="79.5" stroke="#5452F6"/>
<path d="M499.25 96.5469L499.305 97.5234C499.93 96.7682 500.75 96.3906 501.766 96.3906C503.526 96.3906 504.422 97.3984 504.453 99.4141V105H502.555V99.5234C502.555 98.987 502.438 98.5911 502.203 98.3359C501.974 98.0755 501.596 97.9453 501.07 97.9453C500.305 97.9453 499.734 98.2917 499.359 98.9844V105H497.461V96.5469H499.25ZM511.445 105C511.362 104.839 511.289 104.576 511.227 104.211C510.622 104.841 509.883 105.156 509.008 105.156C508.159 105.156 507.466 104.914 506.93 104.43C506.393 103.945 506.125 103.346 506.125 102.633C506.125 101.732 506.458 101.042 507.125 100.562C507.797 100.078 508.755 99.8359 510 99.8359H511.164V99.2812C511.164 98.8438 511.042 98.4948 510.797 98.2344C510.552 97.9688 510.18 97.8359 509.68 97.8359C509.247 97.8359 508.893 97.9453 508.617 98.1641C508.341 98.3776 508.203 98.651 508.203 98.9844H506.305C506.305 98.5208 506.458 98.0885 506.766 97.6875C507.073 97.2812 507.49 96.9635 508.016 96.7344C508.547 96.5052 509.138 96.3906 509.789 96.3906C510.779 96.3906 511.568 96.6406 512.156 97.1406C512.745 97.6354 513.047 98.3333 513.062 99.2344V103.047C513.062 103.807 513.169 104.414 513.383 104.867V105H511.445ZM509.359 103.633C509.734 103.633 510.086 103.542 510.414 103.359C510.747 103.177 510.997 102.932 511.164 102.625V101.031H510.141C509.438 101.031 508.909 101.154 508.555 101.398C508.201 101.643 508.023 101.99 508.023 102.438C508.023 102.802 508.143 103.094 508.383 103.312C508.628 103.526 508.953 103.633 509.359 103.633ZM517.43 94.4922V96.5469H518.922V97.9531H517.43V102.672C517.43 102.995 517.492 103.229 517.617 103.375C517.747 103.516 517.977 103.586 518.305 103.586C518.523 103.586 518.745 103.56 518.969 103.508V104.977C518.536 105.096 518.12 105.156 517.719 105.156C516.26 105.156 515.531 104.352 515.531 102.742V97.9531H514.141V96.5469H515.531V94.4922H517.43ZM524.75 99.3594L525.367 93.625H531.477V95.2656H526.945L526.633 97.9844C527.159 97.6823 527.753 97.5312 528.414 97.5312C529.497 97.5312 530.339 97.8776 530.938 98.5703C531.542 99.263 531.844 100.195 531.844 101.367C531.844 102.523 531.51 103.445 530.844 104.133C530.177 104.815 529.263 105.156 528.102 105.156C527.06 105.156 526.195 104.862 525.508 104.273C524.826 103.68 524.456 102.898 524.398 101.93H526.234C526.307 102.482 526.505 102.906 526.828 103.203C527.151 103.495 527.573 103.641 528.094 103.641C528.677 103.641 529.13 103.432 529.453 103.016C529.781 102.599 529.945 102.031 529.945 101.312C529.945 100.62 529.766 100.073 529.406 99.6719C529.047 99.2656 528.552 99.0625 527.922 99.0625C527.578 99.0625 527.286 99.1094 527.047 99.2031C526.807 99.2917 526.547 99.4688 526.266 99.7344L524.75 99.3594Z" fill="#5452F6"/>
<path d="M473.789 62.0703C473.789 61.5703 473.612 61.1849 473.258 60.9141C472.909 60.6432 472.276 60.3698 471.359 60.0938C470.443 59.8177 469.714 59.5104 469.172 59.1719C468.135 58.5208 467.617 57.6719 467.617 56.625C467.617 55.7083 467.99 54.9531 468.734 54.3594C469.484 53.7656 470.456 53.4688 471.648 53.4688C472.44 53.4688 473.146 53.6146 473.766 53.9062C474.385 54.1979 474.872 54.6146 475.227 55.1562C475.581 55.6927 475.758 56.2891 475.758 56.9453H473.789C473.789 56.3516 473.602 55.888 473.227 55.5547C472.857 55.2161 472.326 55.0469 471.633 55.0469C470.987 55.0469 470.484 55.1849 470.125 55.4609C469.771 55.737 469.594 56.1224 469.594 56.6172C469.594 57.0339 469.786 57.3828 470.172 57.6641C470.557 57.9401 471.193 58.2109 472.078 58.4766C472.964 58.737 473.674 59.0365 474.211 59.375C474.747 59.7083 475.141 60.0938 475.391 60.5312C475.641 60.9635 475.766 61.4714 475.766 62.0547C475.766 63.0026 475.401 63.7578 474.672 64.3203C473.948 64.8776 472.964 65.1562 471.719 65.1562C470.896 65.1562 470.138 65.0052 469.445 64.7031C468.758 64.3958 468.221 63.974 467.836 63.4375C467.456 62.901 467.266 62.276 467.266 61.5625H469.242C469.242 62.2083 469.456 62.7083 469.883 63.0625C470.31 63.4167 470.922 63.5938 471.719 63.5938C472.406 63.5938 472.922 63.4557 473.266 63.1797C473.615 62.8984 473.789 62.5286 473.789 62.0703ZM479.695 54.4922V56.5469H481.188V57.9531H479.695V62.6719C479.695 62.9948 479.758 63.2292 479.883 63.375C480.013 63.5156 480.242 63.5859 480.57 63.5859C480.789 63.5859 481.01 63.5599 481.234 63.5078V64.9766C480.802 65.0964 480.385 65.1562 479.984 65.1562C478.526 65.1562 477.797 64.3516 477.797 62.7422V57.9531H476.406V56.5469H477.797V54.4922H479.695ZM487.07 58.2812C486.82 58.2396 486.562 58.2188 486.297 58.2188C485.427 58.2188 484.841 58.5521 484.539 59.2188V65H482.641V56.5469H484.453L484.5 57.4922C484.958 56.7578 485.594 56.3906 486.406 56.3906C486.677 56.3906 486.901 56.4271 487.078 56.5L487.07 58.2812ZM490.289 65H488.391V56.5469H490.289V65ZM488.273 54.3516C488.273 54.0599 488.365 53.8177 488.547 53.625C488.734 53.4323 489 53.3359 489.344 53.3359C489.688 53.3359 489.953 53.4323 490.141 53.625C490.328 53.8177 490.422 54.0599 490.422 54.3516C490.422 54.638 490.328 54.8776 490.141 55.0703C489.953 55.2578 489.688 55.3516 489.344 55.3516C489 55.3516 488.734 55.2578 488.547 55.0703C488.365 54.8776 488.273 54.638 488.273 54.3516ZM494.125 56.5469L494.18 57.5234C494.805 56.7682 495.625 56.3906 496.641 56.3906C498.401 56.3906 499.297 57.3984 499.328 59.4141V65H497.43V59.5234C497.43 58.987 497.312 58.5911 497.078 58.3359C496.849 58.0755 496.471 57.9453 495.945 57.9453C495.18 57.9453 494.609 58.2917 494.234 58.9844V65H492.336V56.5469H494.125ZM500.938 60.7109C500.938 59.3984 501.245 58.3516 501.859 57.5703C502.479 56.7839 503.299 56.3906 504.32 56.3906C505.284 56.3906 506.042 56.7266 506.594 57.3984L506.68 56.5469H508.391V64.7422C508.391 65.8516 508.044 66.7266 507.352 67.3672C506.664 68.0078 505.734 68.3281 504.562 68.3281C503.943 68.3281 503.336 68.1979 502.742 67.9375C502.154 67.6823 501.706 67.3464 501.398 66.9297L502.297 65.7891C502.88 66.4818 503.599 66.8281 504.453 66.8281C505.083 66.8281 505.581 66.6562 505.945 66.3125C506.31 65.974 506.492 65.474 506.492 64.8125V64.2422C505.945 64.8516 505.216 65.1562 504.305 65.1562C503.315 65.1562 502.505 64.763 501.875 63.9766C501.25 63.1901 500.938 62.1016 500.938 60.7109ZM502.828 60.875C502.828 61.724 503 62.3932 503.344 62.8828C503.693 63.3672 504.174 63.6094 504.789 63.6094C505.555 63.6094 506.122 63.2812 506.492 62.625V58.9062C506.133 58.2656 505.57 57.9453 504.805 57.9453C504.18 57.9453 503.693 58.1927 503.344 58.6875C503 59.1823 502.828 59.9115 502.828 60.875ZM515.633 52.7969L516.602 53.3984C516.128 54.0911 515.883 54.8125 515.867 55.5625V56.75H514.203V55.6719C514.208 55.1719 514.344 54.651 514.609 54.1094C514.88 53.5625 515.221 53.125 515.633 52.7969ZM518.258 52.7969L519.227 53.3984C518.753 54.0911 518.508 54.8125 518.492 55.5625V56.75H516.828V55.6719C516.833 55.1719 516.969 54.651 517.234 54.1094C517.505 53.5625 517.846 53.125 518.258 52.7969ZM529.703 65H527.734V59.9453H522.648V65H520.672V53.625H522.648V58.3594H527.734V53.625H529.703V65ZM535.586 65.1562C534.383 65.1562 533.406 64.7786 532.656 64.0234C531.911 63.263 531.539 62.2526 531.539 60.9922V60.7578C531.539 59.9141 531.701 59.1615 532.023 58.5C532.352 57.8333 532.81 57.3151 533.398 56.9453C533.987 56.5755 534.643 56.3906 535.367 56.3906C536.518 56.3906 537.406 56.7578 538.031 57.4922C538.661 58.2266 538.977 59.2656 538.977 60.6094V61.375H533.453C533.51 62.0729 533.742 62.625 534.148 63.0312C534.56 63.4375 535.076 63.6406 535.695 63.6406C536.565 63.6406 537.273 63.2891 537.82 62.5859L538.844 63.5625C538.505 64.0677 538.052 64.4609 537.484 64.7422C536.922 65.0182 536.289 65.1562 535.586 65.1562ZM535.359 57.9141C534.839 57.9141 534.417 58.0964 534.094 58.4609C533.776 58.8255 533.573 59.3333 533.484 59.9844H537.102V59.8438C537.06 59.2083 536.891 58.7292 536.594 58.4062C536.297 58.0781 535.885 57.9141 535.359 57.9141ZM542.477 65H540.578V53H542.477V65ZM546.57 65H544.672V53H546.57V65ZM548.289 60.6953C548.289 59.8672 548.453 59.1224 548.781 58.4609C549.109 57.7943 549.57 57.2839 550.164 56.9297C550.758 56.5703 551.44 56.3906 552.211 56.3906C553.352 56.3906 554.276 56.7578 554.984 57.4922C555.698 58.2266 556.083 59.2005 556.141 60.4141L556.148 60.8594C556.148 61.6927 555.987 62.4375 555.664 63.0938C555.346 63.75 554.888 64.2578 554.289 64.6172C553.695 64.9766 553.008 65.1562 552.227 65.1562C551.034 65.1562 550.078 64.7604 549.359 63.9688C548.646 63.1719 548.289 62.112 548.289 60.7891V60.6953ZM550.188 60.8594C550.188 61.7292 550.367 62.4115 550.727 62.9062C551.086 63.3958 551.586 63.6406 552.227 63.6406C552.867 63.6406 553.365 63.3906 553.719 62.8906C554.078 62.3906 554.258 61.6589 554.258 60.6953C554.258 59.8411 554.073 59.1641 553.703 58.6641C553.339 58.1641 552.841 57.9141 552.211 57.9141C551.591 57.9141 551.099 58.1615 550.734 58.6562C550.37 59.1458 550.188 59.8802 550.188 60.8594ZM557.562 57L556.594 56.3984C557.062 55.7161 557.305 54.9948 557.32 54.2344V53H558.984V54.0781C558.984 54.6146 558.846 55.1562 558.57 55.7031C558.299 56.2448 557.964 56.6771 557.562 57ZM560.172 57L559.203 56.3984C559.672 55.7161 559.914 54.9948 559.93 54.2344V53H561.594V54.0781C561.594 54.6146 561.456 55.1562 561.18 55.7031C560.909 56.2448 560.573 56.6771 560.172 57Z" fill="#5452F6"/>
<defs>
<filter id="filter0_d" x="0" y="0" width="233" height="124" filterUnits="userSpaceOnUse" color-interpolation-filters="sRGB">
<feFlood flood-opacity="0" result="BackgroundImageFix"/>
<feColorMatrix in="SourceAlpha" type="matrix" values="0 0 0 0 0 0 0 0 0 0 0 0 0 0 0 0 0 0 127 0"/>
<feOffset dx="4" dy="4"/>
<feColorMatrix type="matrix" values="0 0 0 0 0.674908 0 0 0 0 0.662083 0 0 0 0 0.945833 0 0 0 1 0"/>
<feBlend mode="normal" in2="BackgroundImageFix" result="effect1_dropShadow"/>
<feBlend mode="normal" in="SourceGraphic" in2="effect1_dropShadow" result="shape"/>
</filter>
<filter id="filter1_d" x="0" y="119" width="233" height="28" filterUnits="userSpaceOnUse" color-interpolation-filters="sRGB">
<feFlood flood-opacity="0" result="BackgroundImageFix"/>
<feColorMatrix in="SourceAlpha" type="matrix" values="0 0 0 0 0 0 0 0 0 0 0 0 0 0 0 0 0 0 127 0"/>
<feOffset dx="4" dy="4"/>
<feColorMatrix type="matrix" values="0 0 0 0 0.674908 0 0 0 0 0.662083 0 0 0 0 0.945833 0 0 0 1 0"/>
<feBlend mode="normal" in2="BackgroundImageFix" result="effect1_dropShadow"/>
<feBlend mode="normal" in="SourceGraphic" in2="effect1_dropShadow" result="shape"/>
</filter>
<filter id="filter2_d" x="400" y="40" width="233" height="84" filterUnits="userSpaceOnUse" color-interpolation-filters="sRGB">
<feFlood flood-opacity="0" result="BackgroundImageFix"/>
<feColorMatrix in="SourceAlpha" type="matrix" values="0 0 0 0 0 0 0 0 0 0 0 0 0 0 0 0 0 0 127 0"/>
<feOffset dx="4" dy="4"/>
<feColorMatrix type="matrix" values="0 0 0 0 0.674908 0 0 0 0 0.662083 0 0 0 0 0.945833 0 0 0 1 0"/>
<feBlend mode="normal" in2="BackgroundImageFix" result="effect1_dropShadow"/>
<feBlend mode="normal" in="SourceGraphic" in2="effect1_dropShadow" result="shape"/>
</filter>
<filter id="filter3_d" x="400" y="119" width="233" height="28" filterUnits="userSpaceOnUse" color-interpolation-filters="sRGB">
<feFlood flood-opacity="0" result="BackgroundImageFix"/>
<feColorMatrix in="SourceAlpha" type="matrix" values="0 0 0 0 0 0 0 0 0 0 0 0 0 0 0 0 0 0 127 0"/>
<feOffset dx="4" dy="4"/>
<feColorMatrix type="matrix" values="0 0 0 0 0.674908 0 0 0 0 0.662083 0 0 0 0 0.945833 0 0 0 1 0"/>
<feBlend mode="normal" in2="BackgroundImageFix" result="effect1_dropShadow"/>
<feBlend mode="normal" in="SourceGraphic" in2="effect1_dropShadow" result="shape"/>
</filter>
</defs>
</svg>
