<svg width="1034" height="147" viewBox="0 0 1034 147" fill="none" xmlns="http://www.w3.org/2000/svg">
<g filter="url(#filter0_d)">
<path d="M0 8C0 3.58172 3.58172 0 8 0H221C225.418 0 229 3.58172 229 8V120H0V8Z" fill="white"/>
<path d="M8 0.5H221C225.142 0.5 228.5 3.85787 228.5 8V119.5H0.5V8C0.5 3.85786 3.85786 0.5 8 0.5Z" stroke="#5452F6"/>
</g>
<g filter="url(#filter1_d)">
<path d="M0 119H229V135C229 139.418 225.418 143 221 143H8.00001C3.58173 143 0 139.418 0 135V119Z" fill="#EEEEFF"/>
<path d="M0.5 119.5H228.5V135C228.5 139.142 225.142 142.5 221 142.5H8.00001C3.85787 142.5 0.5 139.142 0.5 135V119.5Z" stroke="#5452F6"/>
</g>
<line x1="0.5" y1="79.5" x2="228.5" y2="79.5" stroke="#5452F6"/>
<line x1="0.5" y1="39.5" x2="228.5" y2="39.5" stroke="#5452F6"/>
<path d="M101.789 105H99.8906V96.5469H101.789V105ZM99.7734 94.3516C99.7734 94.0599 99.8646 93.8177 100.047 93.625C100.234 93.4323 100.5 93.3359 100.844 93.3359C101.188 93.3359 101.453 93.4323 101.641 93.625C101.828 93.8177 101.922 94.0599 101.922 94.3516C101.922 94.638 101.828 94.8776 101.641 95.0703C101.453 95.2578 101.188 95.3516 100.844 95.3516C100.5 95.3516 100.234 95.2578 100.047 95.0703C99.8646 94.8776 99.7734 94.638 99.7734 94.3516ZM105.625 96.5469L105.68 97.5234C106.305 96.7682 107.125 96.3906 108.141 96.3906C109.901 96.3906 110.797 97.3984 110.828 99.4141V105H108.93V99.5234C108.93 98.987 108.812 98.5911 108.578 98.3359C108.349 98.0755 107.971 97.9453 107.445 97.9453C106.68 97.9453 106.109 98.2917 105.734 98.9844V105H103.836V96.5469H105.625ZM115.148 94.4922V96.5469H116.641V97.9531H115.148V102.672C115.148 102.995 115.211 103.229 115.336 103.375C115.466 103.516 115.695 103.586 116.023 103.586C116.242 103.586 116.464 103.56 116.688 103.508V104.977C116.255 105.096 115.839 105.156 115.438 105.156C113.979 105.156 113.25 104.352 113.25 102.742V97.9531H111.859V96.5469H113.25V94.4922H115.148ZM124.156 98.4453H125.312C125.896 98.4401 126.357 98.2891 126.695 97.9922C127.039 97.6953 127.211 97.2656 127.211 96.7031C127.211 96.1615 127.068 95.7422 126.781 95.4453C126.5 95.1432 126.068 94.9922 125.484 94.9922C124.974 94.9922 124.555 95.1406 124.227 95.4375C123.898 95.7292 123.734 96.112 123.734 96.5859H121.836C121.836 96.0026 121.99 95.4714 122.297 94.9922C122.609 94.513 123.042 94.1406 123.594 93.875C124.151 93.6042 124.773 93.4688 125.461 93.4688C126.596 93.4688 127.487 93.7552 128.133 94.3281C128.784 94.8958 129.109 95.6875 129.109 96.7031C129.109 97.2135 128.945 97.6953 128.617 98.1484C128.294 98.5964 127.875 98.9349 127.359 99.1641C127.984 99.3776 128.458 99.7135 128.781 100.172C129.109 100.63 129.273 101.177 129.273 101.812C129.273 102.833 128.922 103.646 128.219 104.25C127.521 104.854 126.602 105.156 125.461 105.156C124.367 105.156 123.471 104.865 122.773 104.281C122.076 103.698 121.727 102.922 121.727 101.953H123.625C123.625 102.453 123.792 102.859 124.125 103.172C124.464 103.484 124.917 103.641 125.484 103.641C126.073 103.641 126.536 103.484 126.875 103.172C127.214 102.859 127.383 102.406 127.383 101.812C127.383 101.214 127.206 100.753 126.852 100.43C126.497 100.107 125.971 99.9453 125.273 99.9453H124.156V98.4453Z" fill="#5452F6"/>
<path d="M101.789 65H99.8906V56.5469H101.789V65ZM99.7734 54.3516C99.7734 54.0599 99.8646 53.8177 100.047 53.625C100.234 53.4323 100.5 53.3359 100.844 53.3359C101.188 53.3359 101.453 53.4323 101.641 53.625C101.828 53.8177 101.922 54.0599 101.922 54.3516C101.922 54.638 101.828 54.8776 101.641 55.0703C101.453 55.2578 101.188 55.3516 100.844 55.3516C100.5 55.3516 100.234 55.2578 100.047 55.0703C99.8646 54.8776 99.7734 54.638 99.7734 54.3516ZM105.625 56.5469L105.68 57.5234C106.305 56.7682 107.125 56.3906 108.141 56.3906C109.901 56.3906 110.797 57.3984 110.828 59.4141V65H108.93V59.5234C108.93 58.987 108.812 58.5911 108.578 58.3359C108.349 58.0755 107.971 57.9453 107.445 57.9453C106.68 57.9453 106.109 58.2917 105.734 58.9844V65H103.836V56.5469H105.625ZM115.148 54.4922V56.5469H116.641V57.9531H115.148V62.6719C115.148 62.9948 115.211 63.2292 115.336 63.375C115.466 63.5156 115.695 63.5859 116.023 63.5859C116.242 63.5859 116.464 63.5599 116.688 63.5078V64.9766C116.255 65.0964 115.839 65.1562 115.438 65.1562C113.979 65.1562 113.25 64.3516 113.25 62.7422V57.9531H111.859V56.5469H113.25V54.4922H115.148ZM127.867 53.5703V55.1406H127.633C126.57 55.1562 125.721 55.4479 125.086 56.0156C124.451 56.5833 124.073 57.388 123.953 58.4297C124.562 57.7891 125.341 57.4688 126.289 57.4688C127.294 57.4688 128.086 57.8229 128.664 58.5312C129.247 59.2396 129.539 60.1536 129.539 61.2734C129.539 62.4297 129.198 63.3672 128.516 64.0859C127.839 64.7995 126.948 65.1562 125.844 65.1562C124.708 65.1562 123.786 64.737 123.078 63.8984C122.375 63.0599 122.023 61.9609 122.023 60.6016V59.9531C122.023 57.9583 122.508 56.3958 123.477 55.2656C124.451 54.1354 125.849 53.5703 127.672 53.5703H127.867ZM125.828 59C125.411 59 125.029 59.1172 124.68 59.3516C124.336 59.5859 124.083 59.8984 123.922 60.2891V60.8672C123.922 61.7109 124.099 62.3828 124.453 62.8828C124.807 63.3776 125.266 63.625 125.828 63.625C126.391 63.625 126.836 63.4141 127.164 62.9922C127.492 62.5703 127.656 62.0156 127.656 61.3281C127.656 60.6406 127.49 60.0807 127.156 59.6484C126.823 59.2161 126.38 59 125.828 59Z" fill="#5452F6"/>
<path d="M89.3125 20.8594C89.3125 22.1719 89.0182 23.2161 88.4297 23.9922C87.8464 24.7682 87.0417 25.1562 86.0156 25.1562C85.026 25.1562 84.2552 24.7995 83.7031 24.0859L83.6094 25H81.8906V13H83.7891V17.3594C84.3359 16.7135 85.0729 16.3906 86 16.3906C87.0312 16.3906 87.8411 16.7734 88.4297 17.5391C89.0182 18.3047 89.3125 19.375 89.3125 20.75V20.8594ZM87.4141 20.6953C87.4141 19.7786 87.2526 19.0911 86.9297 18.6328C86.6068 18.1745 86.138 17.9453 85.5234 17.9453C84.7005 17.9453 84.1224 18.3047 83.7891 19.0234V22.5078C84.1276 23.2422 84.7109 23.6094 85.5391 23.6094C86.1328 23.6094 86.5911 23.388 86.9141 22.9453C87.237 22.5026 87.4036 21.8333 87.4141 20.9375V20.6953ZM90.5547 20.6953C90.5547 19.8672 90.7188 19.1224 91.0469 18.4609C91.375 17.7943 91.8359 17.2839 92.4297 16.9297C93.0234 16.5703 93.7057 16.3906 94.4766 16.3906C95.6172 16.3906 96.5417 16.7578 97.25 17.4922C97.9635 18.2266 98.349 19.2005 98.4062 20.4141L98.4141 20.8594C98.4141 21.6927 98.2526 22.4375 97.9297 23.0938C97.612 23.75 97.1536 24.2578 96.5547 24.6172C95.9609 24.9766 95.2734 25.1562 94.4922 25.1562C93.2995 25.1562 92.3438 24.7604 91.625 23.9688C90.9115 23.1719 90.5547 22.112 90.5547 20.7891V20.6953ZM92.4531 20.8594C92.4531 21.7292 92.6328 22.4115 92.9922 22.9062C93.3516 23.3958 93.8516 23.6406 94.4922 23.6406C95.1328 23.6406 95.6302 23.3906 95.9844 22.8906C96.3438 22.3906 96.5234 21.6589 96.5234 20.6953C96.5234 19.8411 96.3385 19.1641 95.9688 18.6641C95.6042 18.1641 95.1068 17.9141 94.4766 17.9141C93.8568 17.9141 93.3646 18.1615 93 18.6562C92.6354 19.1458 92.4531 19.8802 92.4531 20.8594ZM99.6641 20.6953C99.6641 19.8672 99.8281 19.1224 100.156 18.4609C100.484 17.7943 100.945 17.2839 101.539 16.9297C102.133 16.5703 102.815 16.3906 103.586 16.3906C104.727 16.3906 105.651 16.7578 106.359 17.4922C107.073 18.2266 107.458 19.2005 107.516 20.4141L107.523 20.8594C107.523 21.6927 107.362 22.4375 107.039 23.0938C106.721 23.75 106.263 24.2578 105.664 24.6172C105.07 24.9766 104.383 25.1562 103.602 25.1562C102.409 25.1562 101.453 24.7604 100.734 23.9688C100.021 23.1719 99.6641 22.112 99.6641 20.7891V20.6953ZM101.562 20.8594C101.562 21.7292 101.742 22.4115 102.102 22.9062C102.461 23.3958 102.961 23.6406 103.602 23.6406C104.242 23.6406 104.74 23.3906 105.094 22.8906C105.453 22.3906 105.633 21.6589 105.633 20.6953C105.633 19.8411 105.448 19.1641 105.078 18.6641C104.714 18.1641 104.216 17.9141 103.586 17.9141C102.966 17.9141 102.474 18.1615 102.109 18.6562C101.745 19.1458 101.562 19.8802 101.562 20.8594ZM111.148 25H109.25V13H111.148V25ZM125.141 15.2188H121.594V25H119.633V15.2188H116.117V13.625H125.141V15.2188ZM130.367 18.2812C130.117 18.2396 129.859 18.2188 129.594 18.2188C128.724 18.2188 128.138 18.5521 127.836 19.2188V25H125.938V16.5469H127.75L127.797 17.4922C128.255 16.7578 128.891 16.3906 129.703 16.3906C129.974 16.3906 130.198 16.4271 130.375 16.5L130.367 18.2812ZM136.688 24.1719C136.13 24.8281 135.339 25.1562 134.312 25.1562C133.396 25.1562 132.701 24.888 132.227 24.3516C131.758 23.8151 131.523 23.0391 131.523 22.0234V16.5469H133.422V22C133.422 23.0729 133.867 23.6094 134.758 23.6094C135.68 23.6094 136.302 23.2786 136.625 22.6172V16.5469H138.523V25H136.734L136.688 24.1719ZM144.18 25.1562C142.977 25.1562 142 24.7786 141.25 24.0234C140.505 23.263 140.133 22.2526 140.133 20.9922V20.7578C140.133 19.9141 140.294 19.1615 140.617 18.5C140.945 17.8333 141.404 17.3151 141.992 16.9453C142.581 16.5755 143.237 16.3906 143.961 16.3906C145.112 16.3906 146 16.7578 146.625 17.4922C147.255 18.2266 147.57 19.2656 147.57 20.6094V21.375H142.047C142.104 22.0729 142.336 22.625 142.742 23.0312C143.154 23.4375 143.669 23.6406 144.289 23.6406C145.159 23.6406 145.867 23.2891 146.414 22.5859L147.438 23.5625C147.099 24.0677 146.646 24.4609 146.078 24.7422C145.516 25.0182 144.883 25.1562 144.18 25.1562ZM143.953 17.9141C143.432 17.9141 143.01 18.0964 142.688 18.4609C142.37 18.8255 142.167 19.3333 142.078 19.9844H145.695V19.8438C145.654 19.2083 145.484 18.7292 145.188 18.4062C144.891 18.0781 144.479 17.9141 143.953 17.9141Z" fill="#5452F6"/>
<line x1="255" y1="119.5" x2="389" y2="119.5" stroke="#65BF73" stroke-width="2"/>
<path d="M379 110L389.5 119.5L379 128.5" stroke="#65BF73" stroke-width="2" stroke-linecap="round" stroke-linejoin="round"/>
<circle cx="250.5" cy="120" r="5.5" stroke="#65BF73" stroke-width="2"/>
<path d="M311.586 105H309.617V93.625H311.586V105ZM320.57 100.18H315.992V105H314.016V93.625H321.242V95.2188H315.992V98.6016H320.57V100.18Z" fill="#65BF73"/>
<g filter="url(#filter2_d)">
<path d="M801 88C801 83.5817 804.582 80 809 80H1022C1026.42 80 1030 83.5817 1030 88V120H801V88Z" fill="white"/>
<path d="M809 80.5H1022C1026.14 80.5 1029.5 83.8579 1029.5 88V119.5H801.5V88C801.5 83.8579 804.858 80.5 809 80.5Z" stroke="#5452F6"/>
</g>
<g filter="url(#filter3_d)">
<path d="M801 119H1030V135C1030 139.418 1026.42 143 1022 143H809C804.582 143 801 139.418 801 135V119Z" fill="#EEEEFF"/>
<path d="M801.5 119.5H1029.5V135C1029.5 139.142 1026.14 142.5 1022 142.5H809C804.858 142.5 801.5 139.142 801.5 135V119.5Z" stroke="#5452F6"/>
</g>
<path d="M902.789 105H900.891V96.5469H902.789V105ZM900.773 94.3516C900.773 94.0599 900.865 93.8177 901.047 93.625C901.234 93.4323 901.5 93.3359 901.844 93.3359C902.188 93.3359 902.453 93.4323 902.641 93.625C902.828 93.8177 902.922 94.0599 902.922 94.3516C902.922 94.638 902.828 94.8776 902.641 95.0703C902.453 95.2578 902.188 95.3516 901.844 95.3516C901.5 95.3516 901.234 95.2578 901.047 95.0703C900.865 94.8776 900.773 94.638 900.773 94.3516ZM906.625 96.5469L906.68 97.5234C907.305 96.7682 908.125 96.3906 909.141 96.3906C910.901 96.3906 911.797 97.3984 911.828 99.4141V105H909.93V99.5234C909.93 98.987 909.812 98.5911 909.578 98.3359C909.349 98.0755 908.971 97.9453 908.445 97.9453C907.68 97.9453 907.109 98.2917 906.734 98.9844V105H904.836V96.5469H906.625ZM916.148 94.4922V96.5469H917.641V97.9531H916.148V102.672C916.148 102.995 916.211 103.229 916.336 103.375C916.466 103.516 916.695 103.586 917.023 103.586C917.242 103.586 917.464 103.56 917.688 103.508V104.977C917.255 105.096 916.839 105.156 916.438 105.156C914.979 105.156 914.25 104.352 914.25 102.742V97.9531H912.859V96.5469H914.25V94.4922H916.148ZM925.156 98.4453H926.312C926.896 98.4401 927.357 98.2891 927.695 97.9922C928.039 97.6953 928.211 97.2656 928.211 96.7031C928.211 96.1615 928.068 95.7422 927.781 95.4453C927.5 95.1432 927.068 94.9922 926.484 94.9922C925.974 94.9922 925.555 95.1406 925.227 95.4375C924.898 95.7292 924.734 96.112 924.734 96.5859H922.836C922.836 96.0026 922.99 95.4714 923.297 94.9922C923.609 94.513 924.042 94.1406 924.594 93.875C925.151 93.6042 925.773 93.4688 926.461 93.4688C927.596 93.4688 928.487 93.7552 929.133 94.3281C929.784 94.8958 930.109 95.6875 930.109 96.7031C930.109 97.2135 929.945 97.6953 929.617 98.1484C929.294 98.5964 928.875 98.9349 928.359 99.1641C928.984 99.3776 929.458 99.7135 929.781 100.172C930.109 100.63 930.273 101.177 930.273 101.812C930.273 102.833 929.922 103.646 929.219 104.25C928.521 104.854 927.602 105.156 926.461 105.156C925.367 105.156 924.471 104.865 923.773 104.281C923.076 103.698 922.727 102.922 922.727 101.953H924.625C924.625 102.453 924.792 102.859 925.125 103.172C925.464 103.484 925.917 103.641 926.484 103.641C927.073 103.641 927.536 103.484 927.875 103.172C928.214 102.859 928.383 102.406 928.383 101.812C928.383 101.214 928.206 100.753 927.852 100.43C927.497 100.107 926.971 99.9453 926.273 99.9453H925.156V98.4453Z" fill="#5452F6"/>
<g filter="url(#filter4_d)">
<path d="M401 48C401 43.5817 404.582 40 409 40H622C626.418 40 630 43.5817 630 48V120H401V48Z" fill="white"/>
<path d="M409 40.5H622C626.142 40.5 629.5 43.8579 629.5 48V119.5H401.5V48C401.5 43.8579 404.858 40.5 409 40.5Z" stroke="#5452F6"/>
</g>
<g filter="url(#filter5_d)">
<path d="M401 119H630V135C630 139.418 626.418 143 622 143H409C404.582 143 401 139.418 401 135V119Z" fill="#EEEEFF"/>
<path d="M401.5 119.5H629.5V135C629.5 139.142 626.142 142.5 622 142.5H409C404.858 142.5 401.5 139.142 401.5 135V119.5Z" stroke="#5452F6"/>
</g>
<line x1="401.5" y1="79.5" x2="629.5" y2="79.5" stroke="#5452F6"/>
<path d="M502.789 105H500.891V96.5469H502.789V105ZM500.773 94.3516C500.773 94.0599 500.865 93.8177 501.047 93.625C501.234 93.4323 501.5 93.3359 501.844 93.3359C502.188 93.3359 502.453 93.4323 502.641 93.625C502.828 93.8177 502.922 94.0599 502.922 94.3516C502.922 94.638 502.828 94.8776 502.641 95.0703C502.453 95.2578 502.188 95.3516 501.844 95.3516C501.5 95.3516 501.234 95.2578 501.047 95.0703C500.865 94.8776 500.773 94.638 500.773 94.3516ZM506.625 96.5469L506.68 97.5234C507.305 96.7682 508.125 96.3906 509.141 96.3906C510.901 96.3906 511.797 97.3984 511.828 99.4141V105H509.93V99.5234C509.93 98.987 509.812 98.5911 509.578 98.3359C509.349 98.0755 508.971 97.9453 508.445 97.9453C507.68 97.9453 507.109 98.2917 506.734 98.9844V105H504.836V96.5469H506.625ZM516.148 94.4922V96.5469H517.641V97.9531H516.148V102.672C516.148 102.995 516.211 103.229 516.336 103.375C516.466 103.516 516.695 103.586 517.023 103.586C517.242 103.586 517.464 103.56 517.688 103.508V104.977C517.255 105.096 516.839 105.156 516.438 105.156C514.979 105.156 514.25 104.352 514.25 102.742V97.9531H512.859V96.5469H514.25V94.4922H516.148ZM525.156 98.4453H526.312C526.896 98.4401 527.357 98.2891 527.695 97.9922C528.039 97.6953 528.211 97.2656 528.211 96.7031C528.211 96.1615 528.068 95.7422 527.781 95.4453C527.5 95.1432 527.068 94.9922 526.484 94.9922C525.974 94.9922 525.555 95.1406 525.227 95.4375C524.898 95.7292 524.734 96.112 524.734 96.5859H522.836C522.836 96.0026 522.99 95.4714 523.297 94.9922C523.609 94.513 524.042 94.1406 524.594 93.875C525.151 93.6042 525.773 93.4688 526.461 93.4688C527.596 93.4688 528.487 93.7552 529.133 94.3281C529.784 94.8958 530.109 95.6875 530.109 96.7031C530.109 97.2135 529.945 97.6953 529.617 98.1484C529.294 98.5964 528.875 98.9349 528.359 99.1641C528.984 99.3776 529.458 99.7135 529.781 100.172C530.109 100.63 530.273 101.177 530.273 101.812C530.273 102.833 529.922 103.646 529.219 104.25C528.521 104.854 527.602 105.156 526.461 105.156C525.367 105.156 524.471 104.865 523.773 104.281C523.076 103.698 522.727 102.922 522.727 101.953H524.625C524.625 102.453 524.792 102.859 525.125 103.172C525.464 103.484 525.917 103.641 526.484 103.641C527.073 103.641 527.536 103.484 527.875 103.172C528.214 102.859 528.383 102.406 528.383 101.812C528.383 101.214 528.206 100.753 527.852 100.43C527.497 100.107 526.971 99.9453 526.273 99.9453H525.156V98.4453Z" fill="#5452F6"/>
<path d="M502.789 65H500.891V56.5469H502.789V65ZM500.773 54.3516C500.773 54.0599 500.865 53.8177 501.047 53.625C501.234 53.4323 501.5 53.3359 501.844 53.3359C502.188 53.3359 502.453 53.4323 502.641 53.625C502.828 53.8177 502.922 54.0599 502.922 54.3516C502.922 54.638 502.828 54.8776 502.641 55.0703C502.453 55.2578 502.188 55.3516 501.844 55.3516C501.5 55.3516 501.234 55.2578 501.047 55.0703C500.865 54.8776 500.773 54.638 500.773 54.3516ZM506.625 56.5469L506.68 57.5234C507.305 56.7682 508.125 56.3906 509.141 56.3906C510.901 56.3906 511.797 57.3984 511.828 59.4141V65H509.93V59.5234C509.93 58.987 509.812 58.5911 509.578 58.3359C509.349 58.0755 508.971 57.9453 508.445 57.9453C507.68 57.9453 507.109 58.2917 506.734 58.9844V65H504.836V56.5469H506.625ZM516.148 54.4922V56.5469H517.641V57.9531H516.148V62.6719C516.148 62.9948 516.211 63.2292 516.336 63.375C516.466 63.5156 516.695 63.5859 517.023 63.5859C517.242 63.5859 517.464 63.5599 517.688 63.5078V64.9766C517.255 65.0964 516.839 65.1562 516.438 65.1562C514.979 65.1562 514.25 64.3516 514.25 62.7422V57.9531H512.859V56.5469H514.25V54.4922H516.148ZM528.867 53.5703V55.1406H528.633C527.57 55.1562 526.721 55.4479 526.086 56.0156C525.451 56.5833 525.073 57.388 524.953 58.4297C525.562 57.7891 526.341 57.4688 527.289 57.4688C528.294 57.4688 529.086 57.8229 529.664 58.5312C530.247 59.2396 530.539 60.1536 530.539 61.2734C530.539 62.4297 530.198 63.3672 529.516 64.0859C528.839 64.7995 527.948 65.1562 526.844 65.1562C525.708 65.1562 524.786 64.737 524.078 63.8984C523.375 63.0599 523.023 61.9609 523.023 60.6016V59.9531C523.023 57.9583 523.508 56.3958 524.477 55.2656C525.451 54.1354 526.849 53.5703 528.672 53.5703H528.867ZM526.828 59C526.411 59 526.029 59.1172 525.68 59.3516C525.336 59.5859 525.083 59.8984 524.922 60.2891V60.8672C524.922 61.7109 525.099 62.3828 525.453 62.8828C525.807 63.3776 526.266 63.625 526.828 63.625C527.391 63.625 527.836 63.4141 528.164 62.9922C528.492 62.5703 528.656 62.0156 528.656 61.3281C528.656 60.6406 528.49 60.0807 528.156 59.6484C527.823 59.2161 527.38 59 526.828 59Z" fill="#5452F6"/>
<line x1="658" y1="119.5" x2="792" y2="119.5" stroke="#65BF73" stroke-width="2"/>
<path d="M782 110L792.5 119.5L782 128.5" stroke="#65BF73" stroke-width="2" stroke-linecap="round" stroke-linejoin="round"/>
<circle cx="653.5" cy="120" r="5.5" stroke="#65BF73" stroke-width="2"/>
<path d="M698.297 105V93.625H701.656C702.661 93.625 703.552 93.849 704.328 94.2969C705.109 94.7448 705.714 95.3802 706.141 96.2031C706.568 97.026 706.781 97.9688 706.781 99.0312V99.6016C706.781 100.68 706.565 101.628 706.133 102.445C705.706 103.263 705.094 103.893 704.297 104.336C703.505 104.779 702.596 105 701.57 105H698.297ZM700.273 95.2188V103.422H701.562C702.599 103.422 703.393 103.099 703.945 102.453C704.503 101.802 704.786 100.87 704.797 99.6562V99.0234C704.797 97.7891 704.529 96.8464 703.992 96.1953C703.456 95.5443 702.677 95.2188 701.656 95.2188H700.273ZM712.93 100.617H710.727V105H708.75V93.625H712.75C714.062 93.625 715.076 93.9193 715.789 94.5078C716.503 95.0964 716.859 95.9479 716.859 97.0625C716.859 97.8229 716.674 98.4609 716.305 98.9766C715.94 99.487 715.43 99.8802 714.773 100.156L717.328 104.898V105H715.211L712.93 100.617ZM710.727 99.0312H712.758C713.424 99.0312 713.945 98.8646 714.32 98.5312C714.695 98.1927 714.883 97.7318 714.883 97.1484C714.883 96.5391 714.708 96.0677 714.359 95.7344C714.016 95.401 713.5 95.2292 712.812 95.2188H710.727V99.0312ZM727.812 99.6094C727.812 100.724 727.62 101.703 727.234 102.547C726.849 103.385 726.297 104.031 725.578 104.484C724.865 104.932 724.042 105.156 723.109 105.156C722.188 105.156 721.365 104.932 720.641 104.484C719.922 104.031 719.365 103.388 718.969 102.555C718.578 101.721 718.38 100.76 718.375 99.6719V99.0312C718.375 97.9219 718.57 96.9427 718.961 96.0938C719.357 95.2448 719.911 94.5964 720.625 94.1484C721.344 93.6953 722.167 93.4688 723.094 93.4688C724.021 93.4688 724.841 93.6927 725.555 94.1406C726.273 94.5833 726.828 95.224 727.219 96.0625C727.609 96.8958 727.807 97.8672 727.812 98.9766V99.6094ZM725.836 99.0156C725.836 97.7552 725.596 96.7891 725.117 96.1172C724.643 95.4453 723.969 95.1094 723.094 95.1094C722.24 95.1094 721.57 95.4453 721.086 96.1172C720.607 96.7839 720.362 97.7292 720.352 98.9531V99.6094C720.352 100.859 720.594 101.826 721.078 102.508C721.568 103.19 722.245 103.531 723.109 103.531C723.984 103.531 724.656 103.198 725.125 102.531C725.599 101.865 725.836 100.891 725.836 99.6094V99.0156ZM731.758 100.773V105H729.781V93.625H734.133C735.404 93.625 736.411 93.9557 737.156 94.6172C737.906 95.2786 738.281 96.1536 738.281 97.2422C738.281 98.3568 737.914 99.224 737.18 99.8438C736.451 100.464 735.427 100.773 734.109 100.773H731.758ZM731.758 99.1875H734.133C734.836 99.1875 735.372 99.0234 735.742 98.6953C736.112 98.362 736.297 97.8828 736.297 97.2578C736.297 96.6432 736.109 96.1536 735.734 95.7891C735.359 95.4193 734.844 95.2292 734.188 95.2188H731.758V99.1875Z" fill="#65BF73"/>
<defs>
<filter id="filter0_d" x="0" y="0" width="233" height="124" filterUnits="userSpaceOnUse" color-interpolation-filters="sRGB">
<feFlood flood-opacity="0" result="BackgroundImageFix"/>
<feColorMatrix in="SourceAlpha" type="matrix" values="0 0 0 0 0 0 0 0 0 0 0 0 0 0 0 0 0 0 127 0"/>
<feOffset dx="4" dy="4"/>
<feColorMatrix type="matrix" values="0 0 0 0 0.674908 0 0 0 0 0.662083 0 0 0 0 0.945833 0 0 0 1 0"/>
<feBlend mode="normal" in2="BackgroundImageFix" result="effect1_dropShadow"/>
<feBlend mode="normal" in="SourceGraphic" in2="effect1_dropShadow" result="shape"/>
</filter>
<filter id="filter1_d" x="0" y="119" width="233" height="28" filterUnits="userSpaceOnUse" color-interpolation-filters="sRGB">
<feFlood flood-opacity="0" result="BackgroundImageFix"/>
<feColorMatrix in="SourceAlpha" type="matrix" values="0 0 0 0 0 0 0 0 0 0 0 0 0 0 0 0 0 0 127 0"/>
<feOffset dx="4" dy="4"/>
<feColorMatrix type="matrix" values="0 0 0 0 0.674908 0 0 0 0 0.662083 0 0 0 0 0.945833 0 0 0 1 0"/>
<feBlend mode="normal" in2="BackgroundImageFix" result="effect1_dropShadow"/>
<feBlend mode="normal" in="SourceGraphic" in2="effect1_dropShadow" result="shape"/>
</filter>
<filter id="filter2_d" x="801" y="80" width="233" height="44" filterUnits="userSpaceOnUse" color-interpolation-filters="sRGB">
<feFlood flood-opacity="0" result="BackgroundImageFix"/>
<feColorMatrix in="SourceAlpha" type="matrix" values="0 0 0 0 0 0 0 0 0 0 0 0 0 0 0 0 0 0 127 0"/>
<feOffset dx="4" dy="4"/>
<feColorMatrix type="matrix" values="0 0 0 0 0.674908 0 0 0 0 0.662083 0 0 0 0 0.945833 0 0 0 1 0"/>
<feBlend mode="normal" in2="BackgroundImageFix" result="effect1_dropShadow"/>
<feBlend mode="normal" in="SourceGraphic" in2="effect1_dropShadow" result="shape"/>
</filter>
<filter id="filter3_d" x="801" y="119" width="233" height="28" filterUnits="userSpaceOnUse" color-interpolation-filters="sRGB">
<feFlood flood-opacity="0" result="BackgroundImageFix"/>
<feColorMatrix in="SourceAlpha" type="matrix" values="0 0 0 0 0 0 0 0 0 0 0 0 0 0 0 0 0 0 127 0"/>
<feOffset dx="4" dy="4"/>
<feColorMatrix type="matrix" values="0 0 0 0 0.674908 0 0 0 0 0.662083 0 0 0 0 0.945833 0 0 0 1 0"/>
<feBlend mode="normal" in2="BackgroundImageFix" result="effect1_dropShadow"/>
<feBlend mode="normal" in="SourceGraphic" in2="effect1_dropShadow" result="shape"/>
</filter>
<filter id="filter4_d" x="401" y="40" width="233" height="84" filterUnits="userSpaceOnUse" color-interpolation-filters="sRGB">
<feFlood flood-opacity="0" result="BackgroundImageFix"/>
<feColorMatrix in="SourceAlpha" type="matrix" values="0 0 0 0 0 0 0 0 0 0 0 0 0 0 0 0 0 0 127 0"/>
<feOffset dx="4" dy="4"/>
<feColorMatrix type="matrix" values="0 0 0 0 0.674908 0 0 0 0 0.662083 0 0 0 0 0.945833 0 0 0 1 0"/>
<feBlend mode="normal" in2="BackgroundImageFix" result="effect1_dropShadow"/>
<feBlend mode="normal" in="SourceGraphic" in2="effect1_dropShadow" result="shape"/>
</filter>
<filter id="filter5_d" x="401" y="119" width="233" height="28" filterUnits="userSpaceOnUse" color-interpolation-filters="sRGB">
<feFlood flood-opacity="0" result="BackgroundImageFix"/>
<feColorMatrix in="SourceAlpha" type="matrix" values="0 0 0 0 0 0 0 0 0 0 0 0 0 0 0 0 0 0 127 0"/>
<feOffset dx="4" dy="4"/>
<feColorMatrix type="matrix" values="0 0 0 0 0.674908 0 0 0 0 0.662083 0 0 0 0 0.945833 0 0 0 1 0"/>
<feBlend mode="normal" in2="BackgroundImageFix" result="effect1_dropShadow"/>
<feBlend mode="normal" in="SourceGraphic" in2="effect1_dropShadow" result="shape"/>
</filter>
</defs>
</svg>
