<svg width="633" height="147" viewBox="0 0 633 147" fill="none" xmlns="http://www.w3.org/2000/svg">
<line x1="252" y1="120.5" x2="386" y2="120.5" stroke="#65BF73" stroke-width="2"/>
<path d="M376 111L386.5 120.5L376 129.5" stroke="#65BF73" stroke-width="2" stroke-linecap="round" stroke-linejoin="round"/>
<circle cx="247.5" cy="121" r="5.5" stroke="#65BF73" stroke-width="2"/>
<path d="M303.117 100.922H298.445V104.422H303.906V106H296.469V94.625H303.852V96.2188H298.445V99.3594H303.117V100.922ZM305.516 106V94.625H308.875C309.88 94.625 310.771 94.849 311.547 95.2969C312.328 95.7448 312.932 96.3802 313.359 97.2031C313.786 98.026 314 98.9688 314 100.031V100.602C314 101.68 313.784 102.628 313.352 103.445C312.924 104.263 312.312 104.893 311.516 105.336C310.724 105.779 309.815 106 308.789 106H305.516ZM307.492 96.2188V104.422H308.781C309.818 104.422 310.612 104.099 311.164 103.453C311.721 102.802 312.005 101.87 312.016 100.656V100.023C312.016 98.7891 311.747 97.8464 311.211 97.1953C310.674 96.5443 309.896 96.2188 308.875 96.2188H307.492ZM318.055 106H316.086V94.625H318.055V106ZM324.492 103.523L327.383 94.625H329.555L325.461 106H323.547L319.469 94.625H321.633L324.492 103.523Z" fill="#65BF73"/>
<g filter="url(#filter0_d)">
<path d="M0 8C0 3.58172 3.58172 0 8 0H221C225.418 0 229 3.58172 229 8V120H0V8Z" fill="white"/>
<line x1="0.5" y1="79.5" x2="228.5" y2="79.5" stroke="#5452F6"/>
<line x1="0.5" y1="39.5" x2="228.5" y2="39.5" stroke="#5452F6"/>
<path d="M73.7891 102.07C73.7891 101.57 73.612 101.185 73.2578 100.914C72.9089 100.643 72.276 100.37 71.3594 100.094C70.4427 99.8177 69.7135 99.5104 69.1719 99.1719C68.1354 98.5208 67.6172 97.6719 67.6172 96.625C67.6172 95.7083 67.9896 94.9531 68.7344 94.3594C69.4844 93.7656 70.4557 93.4688 71.6484 93.4688C72.4401 93.4688 73.1458 93.6146 73.7656 93.9062C74.3854 94.1979 74.8724 94.6146 75.2266 95.1562C75.5807 95.6927 75.7578 96.2891 75.7578 96.9453H73.7891C73.7891 96.3516 73.6016 95.888 73.2266 95.5547C72.8568 95.2161 72.3255 95.0469 71.6328 95.0469C70.987 95.0469 70.4844 95.1849 70.125 95.4609C69.7708 95.737 69.5938 96.1224 69.5938 96.6172C69.5938 97.0339 69.7865 97.3828 70.1719 97.6641C70.5573 97.9401 71.1927 98.2109 72.0781 98.4766C72.9635 98.737 73.6745 99.0365 74.2109 99.375C74.7474 99.7083 75.1406 100.094 75.3906 100.531C75.6406 100.964 75.7656 101.471 75.7656 102.055C75.7656 103.003 75.401 103.758 74.6719 104.32C73.9479 104.878 72.9635 105.156 71.7188 105.156C70.8958 105.156 70.138 105.005 69.4453 104.703C68.7578 104.396 68.2214 103.974 67.8359 103.438C67.4557 102.901 67.2656 102.276 67.2656 101.562H69.2422C69.2422 102.208 69.4557 102.708 69.8828 103.062C70.3099 103.417 70.9219 103.594 71.7188 103.594C72.4062 103.594 72.9219 103.456 73.2656 103.18C73.6146 102.898 73.7891 102.529 73.7891 102.07ZM79.6953 94.4922V96.5469H81.1875V97.9531H79.6953V102.672C79.6953 102.995 79.7578 103.229 79.8828 103.375C80.013 103.516 80.2422 103.586 80.5703 103.586C80.7891 103.586 81.0104 103.56 81.2344 103.508V104.977C80.8021 105.096 80.3854 105.156 79.9844 105.156C78.526 105.156 77.7969 104.352 77.7969 102.742V97.9531H76.4062V96.5469H77.7969V94.4922H79.6953ZM87.0703 98.2812C86.8203 98.2396 86.5625 98.2188 86.2969 98.2188C85.4271 98.2188 84.8411 98.5521 84.5391 99.2188V105H82.6406V96.5469H84.4531L84.5 97.4922C84.9583 96.7578 85.5938 96.3906 86.4062 96.3906C86.6771 96.3906 86.901 96.4271 87.0781 96.5L87.0703 98.2812ZM90.2891 105H88.3906V96.5469H90.2891V105ZM88.2734 94.3516C88.2734 94.0599 88.3646 93.8177 88.5469 93.625C88.7344 93.4323 89 93.3359 89.3438 93.3359C89.6875 93.3359 89.9531 93.4323 90.1406 93.625C90.3281 93.8177 90.4219 94.0599 90.4219 94.3516C90.4219 94.638 90.3281 94.8776 90.1406 95.0703C89.9531 95.2578 89.6875 95.3516 89.3438 95.3516C89 95.3516 88.7344 95.2578 88.5469 95.0703C88.3646 94.8776 88.2734 94.638 88.2734 94.3516ZM94.125 96.5469L94.1797 97.5234C94.8047 96.7682 95.625 96.3906 96.6406 96.3906C98.401 96.3906 99.2969 97.3984 99.3281 99.4141V105H97.4297V99.5234C97.4297 98.987 97.3125 98.5911 97.0781 98.3359C96.849 98.0755 96.4714 97.9453 95.9453 97.9453C95.1797 97.9453 94.6094 98.2917 94.2344 98.9844V105H92.3359V96.5469H94.125ZM100.938 100.711C100.938 99.3984 101.245 98.3516 101.859 97.5703C102.479 96.7839 103.299 96.3906 104.32 96.3906C105.284 96.3906 106.042 96.7266 106.594 97.3984L106.68 96.5469H108.391V104.742C108.391 105.852 108.044 106.727 107.352 107.367C106.664 108.008 105.734 108.328 104.562 108.328C103.943 108.328 103.336 108.198 102.742 107.938C102.154 107.682 101.706 107.346 101.398 106.93L102.297 105.789C102.88 106.482 103.599 106.828 104.453 106.828C105.083 106.828 105.581 106.656 105.945 106.312C106.31 105.974 106.492 105.474 106.492 104.812V104.242C105.945 104.852 105.216 105.156 104.305 105.156C103.315 105.156 102.505 104.763 101.875 103.977C101.25 103.19 100.938 102.102 100.938 100.711ZM102.828 100.875C102.828 101.724 103 102.393 103.344 102.883C103.693 103.367 104.174 103.609 104.789 103.609C105.555 103.609 106.122 103.281 106.492 102.625V98.9062C106.133 98.2656 105.57 97.9453 104.805 97.9453C104.18 97.9453 103.693 98.1927 103.344 98.6875C103 99.1823 102.828 99.9115 102.828 100.875ZM115.633 92.7969L116.602 93.3984C116.128 94.0911 115.883 94.8125 115.867 95.5625V96.75H114.203V95.6719C114.208 95.1719 114.344 94.651 114.609 94.1094C114.88 93.5625 115.221 93.125 115.633 92.7969ZM118.258 92.7969L119.227 93.3984C118.753 94.0911 118.508 94.8125 118.492 95.5625V96.75H116.828V95.6719C116.833 95.1719 116.969 94.651 117.234 94.1094C117.505 93.5625 117.846 93.125 118.258 92.7969ZM129.703 105H127.734V99.9453H122.648V105H120.672V93.625H122.648V98.3594H127.734V93.625H129.703V105ZM135.586 105.156C134.383 105.156 133.406 104.779 132.656 104.023C131.911 103.263 131.539 102.253 131.539 100.992V100.758C131.539 99.9141 131.701 99.1615 132.023 98.5C132.352 97.8333 132.81 97.3151 133.398 96.9453C133.987 96.5755 134.643 96.3906 135.367 96.3906C136.518 96.3906 137.406 96.7578 138.031 97.4922C138.661 98.2266 138.977 99.2656 138.977 100.609V101.375H133.453C133.51 102.073 133.742 102.625 134.148 103.031C134.56 103.438 135.076 103.641 135.695 103.641C136.565 103.641 137.273 103.289 137.82 102.586L138.844 103.562C138.505 104.068 138.052 104.461 137.484 104.742C136.922 105.018 136.289 105.156 135.586 105.156ZM135.359 97.9141C134.839 97.9141 134.417 98.0964 134.094 98.4609C133.776 98.8255 133.573 99.3333 133.484 99.9844H137.102V99.8438C137.06 99.2083 136.891 98.7292 136.594 98.4062C136.297 98.0781 135.885 97.9141 135.359 97.9141ZM142.477 105H140.578V93H142.477V105ZM146.57 105H144.672V93H146.57V105ZM148.289 100.695C148.289 99.8672 148.453 99.1224 148.781 98.4609C149.109 97.7943 149.57 97.2839 150.164 96.9297C150.758 96.5703 151.44 96.3906 152.211 96.3906C153.352 96.3906 154.276 96.7578 154.984 97.4922C155.698 98.2266 156.083 99.2005 156.141 100.414L156.148 100.859C156.148 101.693 155.987 102.438 155.664 103.094C155.346 103.75 154.888 104.258 154.289 104.617C153.695 104.977 153.008 105.156 152.227 105.156C151.034 105.156 150.078 104.76 149.359 103.969C148.646 103.172 148.289 102.112 148.289 100.789V100.695ZM150.188 100.859C150.188 101.729 150.367 102.411 150.727 102.906C151.086 103.396 151.586 103.641 152.227 103.641C152.867 103.641 153.365 103.391 153.719 102.891C154.078 102.391 154.258 101.659 154.258 100.695C154.258 99.8411 154.073 99.1641 153.703 98.6641C153.339 98.1641 152.841 97.9141 152.211 97.9141C151.591 97.9141 151.099 98.1615 150.734 98.6562C150.37 99.1458 150.188 99.8802 150.188 100.859ZM157.562 97L156.594 96.3984C157.062 95.7161 157.305 94.9948 157.32 94.2344V93H158.984V94.0781C158.984 94.6146 158.846 95.1562 158.57 95.7031C158.299 96.2448 157.964 96.6771 157.562 97ZM160.172 97L159.203 96.3984C159.672 95.7161 159.914 94.9948 159.93 94.2344V93H161.594V94.0781C161.594 94.6146 161.456 95.1562 161.18 95.7031C160.909 96.2448 160.573 96.6771 160.172 97Z" fill="#5452F6"/>
<path d="M99.25 56.5469L99.3047 57.5234C99.9297 56.7682 100.75 56.3906 101.766 56.3906C103.526 56.3906 104.422 57.3984 104.453 59.4141V65H102.555V59.5234C102.555 58.987 102.438 58.5911 102.203 58.3359C101.974 58.0755 101.596 57.9453 101.07 57.9453C100.305 57.9453 99.7344 58.2917 99.3594 58.9844V65H97.4609V56.5469H99.25ZM111.445 65C111.362 64.8385 111.289 64.5755 111.227 64.2109C110.622 64.8411 109.883 65.1562 109.008 65.1562C108.159 65.1562 107.466 64.9141 106.93 64.4297C106.393 63.9453 106.125 63.3464 106.125 62.6328C106.125 61.7318 106.458 61.0417 107.125 60.5625C107.797 60.0781 108.755 59.8359 110 59.8359H111.164V59.2812C111.164 58.8438 111.042 58.4948 110.797 58.2344C110.552 57.9688 110.18 57.8359 109.68 57.8359C109.247 57.8359 108.893 57.9453 108.617 58.1641C108.341 58.3776 108.203 58.651 108.203 58.9844H106.305C106.305 58.5208 106.458 58.0885 106.766 57.6875C107.073 57.2812 107.49 56.9635 108.016 56.7344C108.547 56.5052 109.138 56.3906 109.789 56.3906C110.779 56.3906 111.568 56.6406 112.156 57.1406C112.745 57.6354 113.047 58.3333 113.062 59.2344V63.0469C113.062 63.8073 113.169 64.4141 113.383 64.8672V65H111.445ZM109.359 63.6328C109.734 63.6328 110.086 63.5417 110.414 63.3594C110.747 63.1771 110.997 62.9323 111.164 62.625V61.0312H110.141C109.438 61.0312 108.909 61.1536 108.555 61.3984C108.201 61.6432 108.023 61.9896 108.023 62.4375C108.023 62.8021 108.143 63.0938 108.383 63.3125C108.628 63.526 108.953 63.6328 109.359 63.6328ZM117.43 54.4922V56.5469H118.922V57.9531H117.43V62.6719C117.43 62.9948 117.492 63.2292 117.617 63.375C117.747 63.5156 117.977 63.5859 118.305 63.5859C118.523 63.5859 118.745 63.5599 118.969 63.5078V64.9766C118.536 65.0964 118.12 65.1562 117.719 65.1562C116.26 65.1562 115.531 64.3516 115.531 62.7422V57.9531H114.141V56.5469H115.531V54.4922H117.43ZM124.75 59.3594L125.367 53.625H131.477V55.2656H126.945L126.633 57.9844C127.159 57.6823 127.753 57.5312 128.414 57.5312C129.497 57.5312 130.339 57.8776 130.938 58.5703C131.542 59.263 131.844 60.1953 131.844 61.3672C131.844 62.5234 131.51 63.4453 130.844 64.1328C130.177 64.8151 129.263 65.1562 128.102 65.1562C127.06 65.1562 126.195 64.862 125.508 64.2734C124.826 63.6797 124.456 62.8984 124.398 61.9297H126.234C126.307 62.4818 126.505 62.9062 126.828 63.2031C127.151 63.4948 127.573 63.6406 128.094 63.6406C128.677 63.6406 129.13 63.4323 129.453 63.0156C129.781 62.599 129.945 62.0312 129.945 61.3125C129.945 60.6198 129.766 60.0729 129.406 59.6719C129.047 59.2656 128.552 59.0625 127.922 59.0625C127.578 59.0625 127.286 59.1094 127.047 59.2031C126.807 59.2917 126.547 59.4688 126.266 59.7344L124.75 59.3594Z" fill="#FF5A43"/>
<path d="M94.7031 16.5469L94.7578 17.5234C95.3828 16.7682 96.2031 16.3906 97.2188 16.3906C98.9792 16.3906 99.875 17.3984 99.9062 19.4141V25H98.0078V19.5234C98.0078 18.987 97.8906 18.5911 97.6562 18.3359C97.4271 18.0755 97.0495 17.9453 96.5234 17.9453C95.7578 17.9453 95.1875 18.2917 94.8125 18.9844V25H92.9141V16.5469H94.7031ZM106.898 25C106.815 24.8385 106.742 24.5755 106.68 24.2109C106.076 24.8411 105.336 25.1562 104.461 25.1562C103.612 25.1562 102.919 24.9141 102.383 24.4297C101.846 23.9453 101.578 23.3464 101.578 22.6328C101.578 21.7318 101.911 21.0417 102.578 20.5625C103.25 20.0781 104.208 19.8359 105.453 19.8359H106.617V19.2812C106.617 18.8438 106.495 18.4948 106.25 18.2344C106.005 17.9688 105.633 17.8359 105.133 17.8359C104.701 17.8359 104.346 17.9453 104.07 18.1641C103.794 18.3776 103.656 18.651 103.656 18.9844H101.758C101.758 18.5208 101.911 18.0885 102.219 17.6875C102.526 17.2812 102.943 16.9635 103.469 16.7344C104 16.5052 104.591 16.3906 105.242 16.3906C106.232 16.3906 107.021 16.6406 107.609 17.1406C108.198 17.6354 108.5 18.3333 108.516 19.2344V23.0469C108.516 23.8073 108.622 24.4141 108.836 24.8672V25H106.898ZM104.812 23.6328C105.188 23.6328 105.539 23.5417 105.867 23.3594C106.201 23.1771 106.451 22.9323 106.617 22.625V21.0312H105.594C104.891 21.0312 104.362 21.1536 104.008 21.3984C103.654 21.6432 103.477 21.9896 103.477 22.4375C103.477 22.8021 103.596 23.0938 103.836 23.3125C104.081 23.526 104.406 23.6328 104.812 23.6328ZM112.883 14.4922V16.5469H114.375V17.9531H112.883V22.6719C112.883 22.9948 112.945 23.2292 113.07 23.375C113.201 23.5156 113.43 23.5859 113.758 23.5859C113.977 23.5859 114.198 23.5599 114.422 23.5078V24.9766C113.99 25.0964 113.573 25.1562 113.172 25.1562C111.714 25.1562 110.984 24.3516 110.984 22.7422V17.9531H109.594V16.5469H110.984V14.4922H112.883ZM126.117 20.9453H127.531V22.4688H126.117V25H124.219V22.4688H119.305L119.25 21.3125L124.156 13.625H126.117V20.9453ZM121.242 20.9453H124.219V16.1953L124.078 16.4453L121.242 20.9453ZM136.438 25H128.789V23.6953L132.578 19.5625C133.125 18.9531 133.513 18.4453 133.742 18.0391C133.977 17.6276 134.094 17.2161 134.094 16.8047C134.094 16.263 133.94 15.8255 133.633 15.4922C133.331 15.1589 132.922 14.9922 132.406 14.9922C131.792 14.9922 131.315 15.1797 130.977 15.5547C130.638 15.9297 130.469 16.4427 130.469 17.0938H128.57C128.57 16.401 128.727 15.7786 129.039 15.2266C129.357 14.6693 129.807 14.237 130.391 13.9297C130.979 13.6224 131.656 13.4688 132.422 13.4688C133.526 13.4688 134.396 13.7474 135.031 14.3047C135.672 14.8568 135.992 15.6224 135.992 16.6016C135.992 17.1693 135.831 17.7656 135.508 18.3906C135.19 19.0104 134.667 19.7161 133.938 20.5078L131.156 23.4844H136.438V25Z" fill="#FF5A43"/>
<path d="M0.5 8C0.5 3.85786 3.85786 0.5 8 0.5H221C225.142 0.5 228.5 3.85787 228.5 8V119.5H0.5V8Z" stroke="#5452F6"/>
</g>
<g filter="url(#filter1_d)">
<path d="M0 119H229V135C229 139.418 225.418 143 221 143H8.00001C3.58173 143 0 139.418 0 135V119Z" fill="#EEEEFF"/>
<path d="M0.5 119.5H228.5V135C228.5 139.142 225.142 142.5 221 142.5H8.00001C3.85787 142.5 0.5 139.142 0.5 135V119.5Z" stroke="#5452F6"/>
</g>
<g filter="url(#filter2_d)">
<path d="M400 48C400 43.5817 403.582 40 408 40H621C625.418 40 629 43.5817 629 48V120H400V48Z" fill="white"/>
<path d="M408 40.5H621C625.142 40.5 628.5 43.8579 628.5 48V119.5H400.5V48C400.5 43.8579 403.858 40.5 408 40.5Z" stroke="#5452F6"/>
</g>
<g filter="url(#filter3_d)">
<path d="M400 119H629V135C629 139.418 625.418 143 621 143H408C403.582 143 400 139.418 400 135V119Z" fill="#EEEEFF"/>
<path d="M400.5 119.5H628.5V135C628.5 139.142 625.142 142.5 621 142.5H408C403.858 142.5 400.5 139.142 400.5 135V119.5Z" stroke="#5452F6"/>
</g>
<line x1="400.5" y1="79.5" x2="628.5" y2="79.5" stroke="#5452F6"/>
<path d="M473.789 102.07C473.789 101.57 473.612 101.185 473.258 100.914C472.909 100.643 472.276 100.37 471.359 100.094C470.443 99.8177 469.714 99.5104 469.172 99.1719C468.135 98.5208 467.617 97.6719 467.617 96.625C467.617 95.7083 467.99 94.9531 468.734 94.3594C469.484 93.7656 470.456 93.4688 471.648 93.4688C472.44 93.4688 473.146 93.6146 473.766 93.9062C474.385 94.1979 474.872 94.6146 475.227 95.1562C475.581 95.6927 475.758 96.2891 475.758 96.9453H473.789C473.789 96.3516 473.602 95.888 473.227 95.5547C472.857 95.2161 472.326 95.0469 471.633 95.0469C470.987 95.0469 470.484 95.1849 470.125 95.4609C469.771 95.737 469.594 96.1224 469.594 96.6172C469.594 97.0339 469.786 97.3828 470.172 97.6641C470.557 97.9401 471.193 98.2109 472.078 98.4766C472.964 98.737 473.674 99.0365 474.211 99.375C474.747 99.7083 475.141 100.094 475.391 100.531C475.641 100.964 475.766 101.471 475.766 102.055C475.766 103.003 475.401 103.758 474.672 104.32C473.948 104.878 472.964 105.156 471.719 105.156C470.896 105.156 470.138 105.005 469.445 104.703C468.758 104.396 468.221 103.974 467.836 103.438C467.456 102.901 467.266 102.276 467.266 101.562H469.242C469.242 102.208 469.456 102.708 469.883 103.062C470.31 103.417 470.922 103.594 471.719 103.594C472.406 103.594 472.922 103.456 473.266 103.18C473.615 102.898 473.789 102.529 473.789 102.07ZM479.695 94.4922V96.5469H481.188V97.9531H479.695V102.672C479.695 102.995 479.758 103.229 479.883 103.375C480.013 103.516 480.242 103.586 480.57 103.586C480.789 103.586 481.01 103.56 481.234 103.508V104.977C480.802 105.096 480.385 105.156 479.984 105.156C478.526 105.156 477.797 104.352 477.797 102.742V97.9531H476.406V96.5469H477.797V94.4922H479.695ZM487.07 98.2812C486.82 98.2396 486.562 98.2188 486.297 98.2188C485.427 98.2188 484.841 98.5521 484.539 99.2188V105H482.641V96.5469H484.453L484.5 97.4922C484.958 96.7578 485.594 96.3906 486.406 96.3906C486.677 96.3906 486.901 96.4271 487.078 96.5L487.07 98.2812ZM490.289 105H488.391V96.5469H490.289V105ZM488.273 94.3516C488.273 94.0599 488.365 93.8177 488.547 93.625C488.734 93.4323 489 93.3359 489.344 93.3359C489.688 93.3359 489.953 93.4323 490.141 93.625C490.328 93.8177 490.422 94.0599 490.422 94.3516C490.422 94.638 490.328 94.8776 490.141 95.0703C489.953 95.2578 489.688 95.3516 489.344 95.3516C489 95.3516 488.734 95.2578 488.547 95.0703C488.365 94.8776 488.273 94.638 488.273 94.3516ZM494.125 96.5469L494.18 97.5234C494.805 96.7682 495.625 96.3906 496.641 96.3906C498.401 96.3906 499.297 97.3984 499.328 99.4141V105H497.43V99.5234C497.43 98.987 497.312 98.5911 497.078 98.3359C496.849 98.0755 496.471 97.9453 495.945 97.9453C495.18 97.9453 494.609 98.2917 494.234 98.9844V105H492.336V96.5469H494.125ZM500.938 100.711C500.938 99.3984 501.245 98.3516 501.859 97.5703C502.479 96.7839 503.299 96.3906 504.32 96.3906C505.284 96.3906 506.042 96.7266 506.594 97.3984L506.68 96.5469H508.391V104.742C508.391 105.852 508.044 106.727 507.352 107.367C506.664 108.008 505.734 108.328 504.562 108.328C503.943 108.328 503.336 108.198 502.742 107.938C502.154 107.682 501.706 107.346 501.398 106.93L502.297 105.789C502.88 106.482 503.599 106.828 504.453 106.828C505.083 106.828 505.581 106.656 505.945 106.312C506.31 105.974 506.492 105.474 506.492 104.812V104.242C505.945 104.852 505.216 105.156 504.305 105.156C503.315 105.156 502.505 104.763 501.875 103.977C501.25 103.19 500.938 102.102 500.938 100.711ZM502.828 100.875C502.828 101.724 503 102.393 503.344 102.883C503.693 103.367 504.174 103.609 504.789 103.609C505.555 103.609 506.122 103.281 506.492 102.625V98.9062C506.133 98.2656 505.57 97.9453 504.805 97.9453C504.18 97.9453 503.693 98.1927 503.344 98.6875C503 99.1823 502.828 99.9115 502.828 100.875ZM515.633 92.7969L516.602 93.3984C516.128 94.0911 515.883 94.8125 515.867 95.5625V96.75H514.203V95.6719C514.208 95.1719 514.344 94.651 514.609 94.1094C514.88 93.5625 515.221 93.125 515.633 92.7969ZM518.258 92.7969L519.227 93.3984C518.753 94.0911 518.508 94.8125 518.492 95.5625V96.75H516.828V95.6719C516.833 95.1719 516.969 94.651 517.234 94.1094C517.505 93.5625 517.846 93.125 518.258 92.7969ZM529.703 105H527.734V99.9453H522.648V105H520.672V93.625H522.648V98.3594H527.734V93.625H529.703V105ZM535.586 105.156C534.383 105.156 533.406 104.779 532.656 104.023C531.911 103.263 531.539 102.253 531.539 100.992V100.758C531.539 99.9141 531.701 99.1615 532.023 98.5C532.352 97.8333 532.81 97.3151 533.398 96.9453C533.987 96.5755 534.643 96.3906 535.367 96.3906C536.518 96.3906 537.406 96.7578 538.031 97.4922C538.661 98.2266 538.977 99.2656 538.977 100.609V101.375H533.453C533.51 102.073 533.742 102.625 534.148 103.031C534.56 103.438 535.076 103.641 535.695 103.641C536.565 103.641 537.273 103.289 537.82 102.586L538.844 103.562C538.505 104.068 538.052 104.461 537.484 104.742C536.922 105.018 536.289 105.156 535.586 105.156ZM535.359 97.9141C534.839 97.9141 534.417 98.0964 534.094 98.4609C533.776 98.8255 533.573 99.3333 533.484 99.9844H537.102V99.8438C537.06 99.2083 536.891 98.7292 536.594 98.4062C536.297 98.0781 535.885 97.9141 535.359 97.9141ZM542.477 105H540.578V93H542.477V105ZM546.57 105H544.672V93H546.57V105ZM548.289 100.695C548.289 99.8672 548.453 99.1224 548.781 98.4609C549.109 97.7943 549.57 97.2839 550.164 96.9297C550.758 96.5703 551.44 96.3906 552.211 96.3906C553.352 96.3906 554.276 96.7578 554.984 97.4922C555.698 98.2266 556.083 99.2005 556.141 100.414L556.148 100.859C556.148 101.693 555.987 102.438 555.664 103.094C555.346 103.75 554.888 104.258 554.289 104.617C553.695 104.977 553.008 105.156 552.227 105.156C551.034 105.156 550.078 104.76 549.359 103.969C548.646 103.172 548.289 102.112 548.289 100.789V100.695ZM550.188 100.859C550.188 101.729 550.367 102.411 550.727 102.906C551.086 103.396 551.586 103.641 552.227 103.641C552.867 103.641 553.365 103.391 553.719 102.891C554.078 102.391 554.258 101.659 554.258 100.695C554.258 99.8411 554.073 99.1641 553.703 98.6641C553.339 98.1641 552.841 97.9141 552.211 97.9141C551.591 97.9141 551.099 98.1615 550.734 98.6562C550.37 99.1458 550.188 99.8802 550.188 100.859ZM557.562 97L556.594 96.3984C557.062 95.7161 557.305 94.9948 557.32 94.2344V93H558.984V94.0781C558.984 94.6146 558.846 95.1562 558.57 95.7031C558.299 96.2448 557.964 96.6771 557.562 97ZM560.172 97L559.203 96.3984C559.672 95.7161 559.914 94.9948 559.93 94.2344V93H561.594V94.0781C561.594 94.6146 561.456 95.1562 561.18 95.7031C560.909 96.2448 560.573 96.6771 560.172 97Z" fill="#5452F6"/>
<path d="M464.031 62.0703C464.031 61.5703 463.854 61.1849 463.5 60.9141C463.151 60.6432 462.518 60.3698 461.602 60.0938C460.685 59.8177 459.956 59.5104 459.414 59.1719C458.378 58.5208 457.859 57.6719 457.859 56.625C457.859 55.7083 458.232 54.9531 458.977 54.3594C459.727 53.7656 460.698 53.4688 461.891 53.4688C462.682 53.4688 463.388 53.6146 464.008 53.9062C464.628 54.1979 465.115 54.6146 465.469 55.1562C465.823 55.6927 466 56.2891 466 56.9453H464.031C464.031 56.3516 463.844 55.888 463.469 55.5547C463.099 55.2161 462.568 55.0469 461.875 55.0469C461.229 55.0469 460.727 55.1849 460.367 55.4609C460.013 55.737 459.836 56.1224 459.836 56.6172C459.836 57.0339 460.029 57.3828 460.414 57.6641C460.799 57.9401 461.435 58.2109 462.32 58.4766C463.206 58.737 463.917 59.0365 464.453 59.375C464.99 59.7083 465.383 60.0938 465.633 60.5312C465.883 60.9635 466.008 61.4714 466.008 62.0547C466.008 63.0026 465.643 63.7578 464.914 64.3203C464.19 64.8776 463.206 65.1562 461.961 65.1562C461.138 65.1562 460.38 65.0052 459.688 64.7031C459 64.3958 458.464 63.974 458.078 63.4375C457.698 62.901 457.508 62.276 457.508 61.5625H459.484C459.484 62.2083 459.698 62.7083 460.125 63.0625C460.552 63.4167 461.164 63.5938 461.961 63.5938C462.648 63.5938 463.164 63.4557 463.508 63.1797C463.857 62.8984 464.031 62.5286 464.031 62.0703ZM467.203 60.6953C467.203 59.8672 467.367 59.1224 467.695 58.4609C468.023 57.7943 468.484 57.2839 469.078 56.9297C469.672 56.5703 470.354 56.3906 471.125 56.3906C472.266 56.3906 473.19 56.7578 473.898 57.4922C474.612 58.2266 474.997 59.2005 475.055 60.4141L475.062 60.8594C475.062 61.6927 474.901 62.4375 474.578 63.0938C474.26 63.75 473.802 64.2578 473.203 64.6172C472.609 64.9766 471.922 65.1562 471.141 65.1562C469.948 65.1562 468.992 64.7604 468.273 63.9688C467.56 63.1719 467.203 62.112 467.203 60.7891V60.6953ZM469.102 60.8594C469.102 61.7292 469.281 62.4115 469.641 62.9062C470 63.3958 470.5 63.6406 471.141 63.6406C471.781 63.6406 472.279 63.3906 472.633 62.8906C472.992 62.3906 473.172 61.6589 473.172 60.6953C473.172 59.8411 472.987 59.1641 472.617 58.6641C472.253 58.1641 471.755 57.9141 471.125 57.9141C470.505 57.9141 470.013 58.1615 469.648 58.6562C469.284 59.1458 469.102 59.8802 469.102 60.8594ZM478.453 56.5469L478.508 57.4297C479.102 56.737 479.914 56.3906 480.945 56.3906C482.076 56.3906 482.849 56.8229 483.266 57.6875C483.88 56.8229 484.745 56.3906 485.859 56.3906C486.792 56.3906 487.484 56.6484 487.938 57.1641C488.396 57.6797 488.63 58.4401 488.641 59.4453V65H486.742V59.5C486.742 58.9635 486.625 58.5703 486.391 58.3203C486.156 58.0703 485.768 57.9453 485.227 57.9453C484.794 57.9453 484.44 58.0625 484.164 58.2969C483.893 58.526 483.703 58.8281 483.594 59.2031L483.602 65H481.703V59.4375C481.677 58.4427 481.169 57.9453 480.18 57.9453C479.419 57.9453 478.88 58.2552 478.562 58.875V65H476.664V56.5469H478.453ZM494.312 65.1562C493.109 65.1562 492.133 64.7786 491.383 64.0234C490.638 63.263 490.266 62.2526 490.266 60.9922V60.7578C490.266 59.9141 490.427 59.1615 490.75 58.5C491.078 57.8333 491.536 57.3151 492.125 56.9453C492.714 56.5755 493.37 56.3906 494.094 56.3906C495.245 56.3906 496.133 56.7578 496.758 57.4922C497.388 58.2266 497.703 59.2656 497.703 60.6094V61.375H492.18C492.237 62.0729 492.469 62.625 492.875 63.0312C493.286 63.4375 493.802 63.6406 494.422 63.6406C495.292 63.6406 496 63.2891 496.547 62.5859L497.57 63.5625C497.232 64.0677 496.779 64.4609 496.211 64.7422C495.648 65.0182 495.016 65.1562 494.312 65.1562ZM494.086 57.9141C493.565 57.9141 493.143 58.0964 492.82 58.4609C492.503 58.8255 492.299 59.3333 492.211 59.9844H495.828V59.8438C495.786 59.2083 495.617 58.7292 495.32 58.4062C495.023 58.0781 494.612 57.9141 494.086 57.9141ZM503.195 60.375C503.195 59.1719 503.357 58.0312 503.68 56.9531C504.003 55.8698 504.477 54.9036 505.102 54.0547C505.727 53.2005 506.388 52.6016 507.086 52.2578L507.461 53.3672C506.727 53.9245 506.13 54.776 505.672 55.9219C505.219 57.0625 504.971 58.3698 504.93 59.8438L504.922 60.5156C504.922 62.0938 505.143 63.5026 505.586 64.7422C506.034 65.9766 506.659 66.9167 507.461 67.5625L507.086 68.6172C506.388 68.2734 505.724 67.6719 505.094 66.8125C504.469 65.9583 503.995 64.9948 503.672 63.9219C503.354 62.8438 503.195 61.6615 503.195 60.375ZM514.891 60.7734V65H512.914V53.625H517.266C518.536 53.625 519.544 53.9557 520.289 54.6172C521.039 55.2786 521.414 56.1536 521.414 57.2422C521.414 58.3568 521.047 59.224 520.312 59.8438C519.583 60.4635 518.56 60.7734 517.242 60.7734H514.891ZM514.891 59.1875H517.266C517.969 59.1875 518.505 59.0234 518.875 58.6953C519.245 58.362 519.43 57.8828 519.43 57.2578C519.43 56.6432 519.242 56.1536 518.867 55.7891C518.492 55.4193 517.977 55.2292 517.32 55.2188H514.891V59.1875ZM527.922 65C527.839 64.8385 527.766 64.5755 527.703 64.2109C527.099 64.8411 526.359 65.1562 525.484 65.1562C524.635 65.1562 523.943 64.9141 523.406 64.4297C522.87 63.9453 522.602 63.3464 522.602 62.6328C522.602 61.7318 522.935 61.0417 523.602 60.5625C524.273 60.0781 525.232 59.8359 526.477 59.8359H527.641V59.2812C527.641 58.8438 527.518 58.4948 527.273 58.2344C527.029 57.9688 526.656 57.8359 526.156 57.8359C525.724 57.8359 525.37 57.9453 525.094 58.1641C524.818 58.3776 524.68 58.651 524.68 58.9844H522.781C522.781 58.5208 522.935 58.0885 523.242 57.6875C523.549 57.2812 523.966 56.9635 524.492 56.7344C525.023 56.5052 525.615 56.3906 526.266 56.3906C527.255 56.3906 528.044 56.6406 528.633 57.1406C529.221 57.6354 529.523 58.3333 529.539 59.2344V63.0469C529.539 63.8073 529.646 64.4141 529.859 64.8672V65H527.922ZM525.836 63.6328C526.211 63.6328 526.562 63.5417 526.891 63.3594C527.224 63.1771 527.474 62.9323 527.641 62.625V61.0312H526.617C525.914 61.0312 525.385 61.1536 525.031 61.3984C524.677 61.6432 524.5 61.9896 524.5 62.4375C524.5 62.8021 524.62 63.0938 524.859 63.3125C525.104 63.526 525.43 63.6328 525.836 63.6328ZM533.547 65H531.648V56.5469H533.547V65ZM531.531 54.3516C531.531 54.0599 531.622 53.8177 531.805 53.625C531.992 53.4323 532.258 53.3359 532.602 53.3359C532.945 53.3359 533.211 53.4323 533.398 53.625C533.586 53.8177 533.68 54.0599 533.68 54.3516C533.68 54.638 533.586 54.8776 533.398 55.0703C533.211 55.2578 532.945 55.3516 532.602 55.3516C532.258 55.3516 531.992 55.2578 531.805 55.0703C531.622 54.8776 531.531 54.638 531.531 54.3516ZM540.047 58.2812C539.797 58.2396 539.539 58.2188 539.273 58.2188C538.404 58.2188 537.818 58.5521 537.516 59.2188V65H535.617V56.5469H537.43L537.477 57.4922C537.935 56.7578 538.57 56.3906 539.383 56.3906C539.654 56.3906 539.878 56.4271 540.055 56.5L540.047 58.2812ZM552.273 56.625C552.273 57.1823 552.13 57.6797 551.844 58.1172C551.557 58.5495 551.167 58.8906 550.672 59.1406C551.266 59.4167 551.721 59.7943 552.039 60.2734C552.362 60.7526 552.523 61.2943 552.523 61.8984C552.523 62.8984 552.185 63.6927 551.508 64.2812C550.831 64.8646 549.93 65.1562 548.805 65.1562C547.674 65.1562 546.768 64.862 546.086 64.2734C545.409 63.6849 545.07 62.8932 545.07 61.8984C545.07 61.2891 545.232 60.7422 545.555 60.2578C545.878 59.7734 546.331 59.401 546.914 59.1406C546.424 58.8906 546.036 58.5495 545.75 58.1172C545.469 57.6797 545.328 57.1823 545.328 56.625C545.328 55.6562 545.641 54.888 546.266 54.3203C546.891 53.7526 547.734 53.4688 548.797 53.4688C549.865 53.4688 550.711 53.7526 551.336 54.3203C551.961 54.888 552.273 55.6562 552.273 56.625ZM550.625 61.8047C550.625 61.2422 550.456 60.7891 550.117 60.4453C549.784 60.0964 549.341 59.9219 548.789 59.9219C548.237 59.9219 547.794 60.0938 547.461 60.4375C547.133 60.7812 546.969 61.237 546.969 61.8047C546.969 62.362 547.13 62.8073 547.453 63.1406C547.781 63.474 548.232 63.6406 548.805 63.6406C549.378 63.6406 549.823 63.4792 550.141 63.1562C550.464 62.8333 550.625 62.3828 550.625 61.8047ZM550.383 56.6953C550.383 56.2005 550.24 55.7943 549.953 55.4766C549.667 55.1536 549.281 54.9922 548.797 54.9922C548.312 54.9922 547.93 55.1458 547.648 55.4531C547.367 55.7552 547.227 56.1693 547.227 56.6953C547.227 57.2161 547.367 57.6302 547.648 57.9375C547.935 58.2448 548.32 58.3984 548.805 58.3984C549.289 58.3984 549.672 58.2448 549.953 57.9375C550.24 57.6302 550.383 57.2161 550.383 56.6953ZM565.836 65H558.188V63.6953L561.977 59.5625C562.523 58.9531 562.911 58.4453 563.141 58.0391C563.375 57.6276 563.492 57.2161 563.492 56.8047C563.492 56.263 563.339 55.8255 563.031 55.4922C562.729 55.1589 562.32 54.9922 561.805 54.9922C561.19 54.9922 560.714 55.1797 560.375 55.5547C560.036 55.9297 559.867 56.4427 559.867 57.0938H557.969C557.969 56.401 558.125 55.7786 558.438 55.2266C558.755 54.6693 559.206 54.237 559.789 53.9297C560.378 53.6224 561.055 53.4688 561.82 53.4688C562.924 53.4688 563.794 53.7474 564.43 54.3047C565.07 54.8568 565.391 55.6224 565.391 56.6016C565.391 57.1693 565.229 57.7656 564.906 58.3906C564.589 59.0104 564.065 59.7161 563.336 60.5078L560.555 63.4844H565.836V65ZM571.062 60.5C571.062 61.6562 570.904 62.7734 570.586 63.8516C570.268 64.9245 569.786 65.901 569.141 66.7812C568.495 67.6667 567.82 68.2786 567.117 68.6172L566.742 67.5625C567.523 66.9583 568.141 66.0365 568.594 64.7969C569.052 63.5521 569.281 62.1328 569.281 60.5391V60.3594C569.281 58.9115 569.083 57.5938 568.688 56.4062C568.292 55.2135 567.724 54.2578 566.984 53.5391L566.742 53.3203L567.117 52.2578C567.784 52.5807 568.43 53.1536 569.055 53.9766C569.68 54.7995 570.159 55.7214 570.492 56.7422C570.826 57.7578 571.013 58.8073 571.055 59.8906L571.062 60.5Z" fill="#FF5A43"/>
<defs>
<filter id="filter0_d" x="0" y="0" width="233" height="124" filterUnits="userSpaceOnUse" color-interpolation-filters="sRGB">
<feFlood flood-opacity="0" result="BackgroundImageFix"/>
<feColorMatrix in="SourceAlpha" type="matrix" values="0 0 0 0 0 0 0 0 0 0 0 0 0 0 0 0 0 0 127 0"/>
<feOffset dx="4" dy="4"/>
<feColorMatrix type="matrix" values="0 0 0 0 0.674908 0 0 0 0 0.662083 0 0 0 0 0.945833 0 0 0 1 0"/>
<feBlend mode="normal" in2="BackgroundImageFix" result="effect1_dropShadow"/>
<feBlend mode="normal" in="SourceGraphic" in2="effect1_dropShadow" result="shape"/>
</filter>
<filter id="filter1_d" x="0" y="119" width="233" height="28" filterUnits="userSpaceOnUse" color-interpolation-filters="sRGB">
<feFlood flood-opacity="0" result="BackgroundImageFix"/>
<feColorMatrix in="SourceAlpha" type="matrix" values="0 0 0 0 0 0 0 0 0 0 0 0 0 0 0 0 0 0 127 0"/>
<feOffset dx="4" dy="4"/>
<feColorMatrix type="matrix" values="0 0 0 0 0.674908 0 0 0 0 0.662083 0 0 0 0 0.945833 0 0 0 1 0"/>
<feBlend mode="normal" in2="BackgroundImageFix" result="effect1_dropShadow"/>
<feBlend mode="normal" in="SourceGraphic" in2="effect1_dropShadow" result="shape"/>
</filter>
<filter id="filter2_d" x="400" y="40" width="233" height="84" filterUnits="userSpaceOnUse" color-interpolation-filters="sRGB">
<feFlood flood-opacity="0" result="BackgroundImageFix"/>
<feColorMatrix in="SourceAlpha" type="matrix" values="0 0 0 0 0 0 0 0 0 0 0 0 0 0 0 0 0 0 127 0"/>
<feOffset dx="4" dy="4"/>
<feColorMatrix type="matrix" values="0 0 0 0 0.674908 0 0 0 0 0.662083 0 0 0 0 0.945833 0 0 0 1 0"/>
<feBlend mode="normal" in2="BackgroundImageFix" result="effect1_dropShadow"/>
<feBlend mode="normal" in="SourceGraphic" in2="effect1_dropShadow" result="shape"/>
</filter>
<filter id="filter3_d" x="400" y="119" width="233" height="28" filterUnits="userSpaceOnUse" color-interpolation-filters="sRGB">
<feFlood flood-opacity="0" result="BackgroundImageFix"/>
<feColorMatrix in="SourceAlpha" type="matrix" values="0 0 0 0 0 0 0 0 0 0 0 0 0 0 0 0 0 0 127 0"/>
<feOffset dx="4" dy="4"/>
<feColorMatrix type="matrix" values="0 0 0 0 0.674908 0 0 0 0 0.662083 0 0 0 0 0.945833 0 0 0 1 0"/>
<feBlend mode="normal" in2="BackgroundImageFix" result="effect1_dropShadow"/>
<feBlend mode="normal" in="SourceGraphic" in2="effect1_dropShadow" result="shape"/>
</filter>
</defs>
</svg>
