<svg width="634" height="67" viewBox="0 0 634 67" fill="none" xmlns="http://www.w3.org/2000/svg">
<line x1="255" y1="39.5" x2="389" y2="39.5" stroke="#65BF73" stroke-width="2"/>
<path d="M379 30L389.5 39.5L379 48.5" stroke="#65BF73" stroke-width="2" stroke-linecap="round" stroke-linejoin="round"/>
<circle cx="250.5" cy="40" r="5.5" stroke="#65BF73" stroke-width="2"/>
<path d="M307.82 22.3516H303.414L302.492 25H300.438L304.734 13.625H306.508L310.812 25H308.75L307.82 22.3516ZM303.969 20.7578H307.266L305.617 16.0391L303.969 20.7578ZM312.109 25V13.625H316.008C317.294 13.625 318.273 13.8828 318.945 14.3984C319.617 14.9141 319.953 15.6823 319.953 16.7031C319.953 17.224 319.812 17.6927 319.531 18.1094C319.25 18.526 318.839 18.849 318.297 19.0781C318.911 19.2448 319.385 19.5599 319.719 20.0234C320.057 20.4818 320.227 21.0339 320.227 21.6797C320.227 22.7474 319.883 23.5677 319.195 24.1406C318.513 24.7135 317.534 25 316.258 25H312.109ZM314.086 19.8672V23.4219H316.281C316.901 23.4219 317.385 23.2682 317.734 22.9609C318.083 22.6536 318.258 22.2266 318.258 21.6797C318.258 20.4974 317.654 19.8932 316.445 19.8672H314.086ZM314.086 18.4141H316.023C316.638 18.4141 317.117 18.276 317.461 18C317.81 17.7188 317.984 17.3229 317.984 16.8125C317.984 16.25 317.823 15.8438 317.5 15.5938C317.182 15.3438 316.685 15.2188 316.008 15.2188H314.086V18.4141ZM328.148 22.0703C328.148 21.5703 327.971 21.1849 327.617 20.9141C327.268 20.6432 326.635 20.3698 325.719 20.0938C324.802 19.8177 324.073 19.5104 323.531 19.1719C322.495 18.5208 321.977 17.6719 321.977 16.625C321.977 15.7083 322.349 14.9531 323.094 14.3594C323.844 13.7656 324.815 13.4688 326.008 13.4688C326.799 13.4688 327.505 13.6146 328.125 13.9062C328.745 14.1979 329.232 14.6146 329.586 15.1562C329.94 15.6927 330.117 16.2891 330.117 16.9453H328.148C328.148 16.3516 327.961 15.888 327.586 15.5547C327.216 15.2161 326.685 15.0469 325.992 15.0469C325.346 15.0469 324.844 15.1849 324.484 15.4609C324.13 15.737 323.953 16.1224 323.953 16.6172C323.953 17.0339 324.146 17.3828 324.531 17.6641C324.917 17.9401 325.552 18.2109 326.438 18.4766C327.323 18.737 328.034 19.0365 328.57 19.375C329.107 19.7083 329.5 20.0938 329.75 20.5312C330 20.9635 330.125 21.4714 330.125 22.0547C330.125 23.0026 329.76 23.7578 329.031 24.3203C328.307 24.8776 327.323 25.1562 326.078 25.1562C325.255 25.1562 324.497 25.0052 323.805 24.7031C323.117 24.3958 322.581 23.974 322.195 23.4375C321.815 22.901 321.625 22.276 321.625 21.5625H323.602C323.602 22.2083 323.815 22.7083 324.242 23.0625C324.669 23.4167 325.281 23.5938 326.078 23.5938C326.766 23.5938 327.281 23.4557 327.625 23.1797C327.974 22.8984 328.148 22.5286 328.148 22.0703Z" fill="#65BF73"/>
<g filter="url(#filter0_d)">
<path d="M401 8C401 3.58172 404.582 0 409 0H622C626.418 0 630 3.58172 630 8V40H401V8Z" fill="white"/>
<path d="M409 0.5H622C626.142 0.5 629.5 3.85787 629.5 8V39.5H401.5V8C401.5 3.85786 404.858 0.5 409 0.5Z" stroke="#5452F6"/>
</g>
<g filter="url(#filter1_d)">
<path d="M401 39H630V55C630 59.4183 626.418 63 622 63H409C404.582 63 401 59.4183 401 55V39Z" fill="#EEEEFF"/>
<path d="M401.5 39.5H629.5V55C629.5 59.1421 626.142 62.5 622 62.5H409C404.858 62.5 401.5 59.1421 401.5 55V39.5Z" stroke="#5452F6"/>
</g>
<path d="M495.703 16.5469L495.758 17.5234C496.383 16.7682 497.203 16.3906 498.219 16.3906C499.979 16.3906 500.875 17.3984 500.906 19.4141V25H499.008V19.5234C499.008 18.987 498.891 18.5911 498.656 18.3359C498.427 18.0755 498.049 17.9453 497.523 17.9453C496.758 17.9453 496.188 18.2917 495.812 18.9844V25H493.914V16.5469H495.703ZM507.898 25C507.815 24.8385 507.742 24.5755 507.68 24.2109C507.076 24.8411 506.336 25.1562 505.461 25.1562C504.612 25.1562 503.919 24.9141 503.383 24.4297C502.846 23.9453 502.578 23.3464 502.578 22.6328C502.578 21.7318 502.911 21.0417 503.578 20.5625C504.25 20.0781 505.208 19.8359 506.453 19.8359H507.617V19.2812C507.617 18.8438 507.495 18.4948 507.25 18.2344C507.005 17.9688 506.633 17.8359 506.133 17.8359C505.701 17.8359 505.346 17.9453 505.07 18.1641C504.794 18.3776 504.656 18.651 504.656 18.9844H502.758C502.758 18.5208 502.911 18.0885 503.219 17.6875C503.526 17.2812 503.943 16.9635 504.469 16.7344C505 16.5052 505.591 16.3906 506.242 16.3906C507.232 16.3906 508.021 16.6406 508.609 17.1406C509.198 17.6354 509.5 18.3333 509.516 19.2344V23.0469C509.516 23.8073 509.622 24.4141 509.836 24.8672V25H507.898ZM505.812 23.6328C506.188 23.6328 506.539 23.5417 506.867 23.3594C507.201 23.1771 507.451 22.9323 507.617 22.625V21.0312H506.594C505.891 21.0312 505.362 21.1536 505.008 21.3984C504.654 21.6432 504.477 21.9896 504.477 22.4375C504.477 22.8021 504.596 23.0938 504.836 23.3125C505.081 23.526 505.406 23.6328 505.812 23.6328ZM513.883 14.4922V16.5469H515.375V17.9531H513.883V22.6719C513.883 22.9948 513.945 23.2292 514.07 23.375C514.201 23.5156 514.43 23.5859 514.758 23.5859C514.977 23.5859 515.198 23.5599 515.422 23.5078V24.9766C514.99 25.0964 514.573 25.1562 514.172 25.1562C512.714 25.1562 511.984 24.3516 511.984 22.7422V17.9531H510.594V16.5469H511.984V14.4922H513.883ZM527.117 20.9453H528.531V22.4688H527.117V25H525.219V22.4688H520.305L520.25 21.3125L525.156 13.625H527.117V20.9453ZM522.242 20.9453H525.219V16.1953L525.078 16.4453L522.242 20.9453ZM537.438 25H529.789V23.6953L533.578 19.5625C534.125 18.9531 534.513 18.4453 534.742 18.0391C534.977 17.6276 535.094 17.2161 535.094 16.8047C535.094 16.263 534.94 15.8255 534.633 15.4922C534.331 15.1589 533.922 14.9922 533.406 14.9922C532.792 14.9922 532.315 15.1797 531.977 15.5547C531.638 15.9297 531.469 16.4427 531.469 17.0938H529.57C529.57 16.401 529.727 15.7786 530.039 15.2266C530.357 14.6693 530.807 14.237 531.391 13.9297C531.979 13.6224 532.656 13.4688 533.422 13.4688C534.526 13.4688 535.396 13.7474 536.031 14.3047C536.672 14.8568 536.992 15.6224 536.992 16.6016C536.992 17.1693 536.831 17.7656 536.508 18.3906C536.19 19.0104 535.667 19.7161 534.938 20.5078L532.156 23.4844H537.438V25Z" fill="#5452F6"/>
<g filter="url(#filter2_d)">
<path d="M0 8C0 3.58172 3.58172 0 8 0H221C225.418 0 229 3.58172 229 8V40H0V8Z" fill="white"/>
<path d="M8 0.5H221C225.142 0.5 228.5 3.85787 228.5 8V39.5H0.5V8C0.5 3.85786 3.85786 0.5 8 0.5Z" stroke="#5452F6"/>
</g>
<g filter="url(#filter3_d)">
<path d="M0 39H229V55C229 59.4183 225.418 63 221 63H8.00001C3.58173 63 0 59.4183 0 55V39Z" fill="#EEEEFF"/>
<path d="M0.5 39.5H228.5V55C228.5 59.1421 225.142 62.5 221 62.5H8.00001C3.85787 62.5 0.5 59.1421 0.5 55V39.5Z" stroke="#5452F6"/>
</g>
<path d="M94.6172 25H92.7188V16.5469H94.6172V25ZM92.6016 14.3516C92.6016 14.0599 92.6927 13.8177 92.875 13.625C93.0625 13.4323 93.3281 13.3359 93.6719 13.3359C94.0156 13.3359 94.2812 13.4323 94.4688 13.625C94.6562 13.8177 94.75 14.0599 94.75 14.3516C94.75 14.638 94.6562 14.8776 94.4688 15.0703C94.2812 15.2578 94.0156 15.3516 93.6719 15.3516C93.3281 15.3516 93.0625 15.2578 92.875 15.0703C92.6927 14.8776 92.6016 14.638 92.6016 14.3516ZM98.4531 16.5469L98.5078 17.5234C99.1328 16.7682 99.9531 16.3906 100.969 16.3906C102.729 16.3906 103.625 17.3984 103.656 19.4141V25H101.758V19.5234C101.758 18.987 101.641 18.5911 101.406 18.3359C101.177 18.0755 100.799 17.9453 100.273 17.9453C99.5078 17.9453 98.9375 18.2917 98.5625 18.9844V25H96.6641V16.5469H98.4531ZM107.977 14.4922V16.5469H109.469V17.9531H107.977V22.6719C107.977 22.9948 108.039 23.2292 108.164 23.375C108.294 23.5156 108.523 23.5859 108.852 23.5859C109.07 23.5859 109.292 23.5599 109.516 23.5078V24.9766C109.083 25.0964 108.667 25.1562 108.266 25.1562C106.807 25.1562 106.078 24.3516 106.078 22.7422V17.9531H104.688V16.5469H106.078V14.4922H107.977ZM118.594 20.9297H114.492V19.3984H118.594V20.9297ZM126.461 20.9453H127.875V22.4688H126.461V25H124.562V22.4688H119.648L119.594 21.3125L124.5 13.625H126.461V20.9453ZM121.586 20.9453H124.562V16.1953L124.422 16.4453L121.586 20.9453ZM136.781 25H129.133V23.6953L132.922 19.5625C133.469 18.9531 133.857 18.4453 134.086 18.0391C134.32 17.6276 134.438 17.2161 134.438 16.8047C134.438 16.263 134.284 15.8255 133.977 15.4922C133.674 15.1589 133.266 14.9922 132.75 14.9922C132.135 14.9922 131.659 15.1797 131.32 15.5547C130.982 15.9297 130.812 16.4427 130.812 17.0938H128.914C128.914 16.401 129.07 15.7786 129.383 15.2266C129.701 14.6693 130.151 14.237 130.734 13.9297C131.323 13.6224 132 13.4688 132.766 13.4688C133.87 13.4688 134.74 13.7474 135.375 14.3047C136.016 14.8568 136.336 15.6224 136.336 16.6016C136.336 17.1693 136.174 17.7656 135.852 18.3906C135.534 19.0104 135.01 19.7161 134.281 20.5078L131.5 23.4844H136.781V25Z" fill="#5452F6"/>
<defs>
<filter id="filter0_d" x="401" y="0" width="233" height="44" filterUnits="userSpaceOnUse" color-interpolation-filters="sRGB">
<feFlood flood-opacity="0" result="BackgroundImageFix"/>
<feColorMatrix in="SourceAlpha" type="matrix" values="0 0 0 0 0 0 0 0 0 0 0 0 0 0 0 0 0 0 127 0"/>
<feOffset dx="4" dy="4"/>
<feColorMatrix type="matrix" values="0 0 0 0 0.674908 0 0 0 0 0.662083 0 0 0 0 0.945833 0 0 0 1 0"/>
<feBlend mode="normal" in2="BackgroundImageFix" result="effect1_dropShadow"/>
<feBlend mode="normal" in="SourceGraphic" in2="effect1_dropShadow" result="shape"/>
</filter>
<filter id="filter1_d" x="401" y="39" width="233" height="28" filterUnits="userSpaceOnUse" color-interpolation-filters="sRGB">
<feFlood flood-opacity="0" result="BackgroundImageFix"/>
<feColorMatrix in="SourceAlpha" type="matrix" values="0 0 0 0 0 0 0 0 0 0 0 0 0 0 0 0 0 0 127 0"/>
<feOffset dx="4" dy="4"/>
<feColorMatrix type="matrix" values="0 0 0 0 0.674908 0 0 0 0 0.662083 0 0 0 0 0.945833 0 0 0 1 0"/>
<feBlend mode="normal" in2="BackgroundImageFix" result="effect1_dropShadow"/>
<feBlend mode="normal" in="SourceGraphic" in2="effect1_dropShadow" result="shape"/>
</filter>
<filter id="filter2_d" x="0" y="0" width="233" height="44" filterUnits="userSpaceOnUse" color-interpolation-filters="sRGB">
<feFlood flood-opacity="0" result="BackgroundImageFix"/>
<feColorMatrix in="SourceAlpha" type="matrix" values="0 0 0 0 0 0 0 0 0 0 0 0 0 0 0 0 0 0 127 0"/>
<feOffset dx="4" dy="4"/>
<feColorMatrix type="matrix" values="0 0 0 0 0.674908 0 0 0 0 0.662083 0 0 0 0 0.945833 0 0 0 1 0"/>
<feBlend mode="normal" in2="BackgroundImageFix" result="effect1_dropShadow"/>
<feBlend mode="normal" in="SourceGraphic" in2="effect1_dropShadow" result="shape"/>
</filter>
<filter id="filter3_d" x="0" y="39" width="233" height="28" filterUnits="userSpaceOnUse" color-interpolation-filters="sRGB">
<feFlood flood-opacity="0" result="BackgroundImageFix"/>
<feColorMatrix in="SourceAlpha" type="matrix" values="0 0 0 0 0 0 0 0 0 0 0 0 0 0 0 0 0 0 127 0"/>
<feOffset dx="4" dy="4"/>
<feColorMatrix type="matrix" values="0 0 0 0 0.674908 0 0 0 0 0.662083 0 0 0 0 0.945833 0 0 0 1 0"/>
<feBlend mode="normal" in2="BackgroundImageFix" result="effect1_dropShadow"/>
<feBlend mode="normal" in="SourceGraphic" in2="effect1_dropShadow" result="shape"/>
</filter>
</defs>
</svg>
