<svg width="633" height="147" viewBox="0 0 633 147" fill="none" xmlns="http://www.w3.org/2000/svg">
<line x1="254" y1="120.5" x2="388" y2="120.5" stroke="#65BF73" stroke-width="2"/>
<path d="M378 111L388.5 120.5L378 129.5" stroke="#65BF73" stroke-width="2" stroke-linecap="round" stroke-linejoin="round"/>
<circle cx="249.5" cy="121" r="5.5" stroke="#65BF73" stroke-width="2"/>
<path d="M296.188 106V94.625H299.547C300.552 94.625 301.443 94.849 302.219 95.2969C303 95.7448 303.604 96.3802 304.031 97.2031C304.458 98.026 304.672 98.9688 304.672 100.031V100.602C304.672 101.68 304.456 102.628 304.023 103.445C303.596 104.263 302.984 104.893 302.188 105.336C301.396 105.779 300.487 106 299.461 106H296.188ZM298.164 96.2188V104.422H299.453C300.49 104.422 301.284 104.099 301.836 103.453C302.393 102.802 302.677 101.87 302.688 100.656V100.023C302.688 98.7891 302.419 97.8464 301.883 97.1953C301.346 96.5443 300.568 96.2188 299.547 96.2188H298.164ZM308.727 106H306.758V94.625H308.727V106ZM319.875 104.523C319.464 105.06 318.893 105.466 318.164 105.742C317.435 106.018 316.607 106.156 315.68 106.156C314.727 106.156 313.883 105.94 313.148 105.508C312.414 105.076 311.846 104.458 311.445 103.656C311.049 102.849 310.844 101.909 310.828 100.836V99.9453C310.828 98.2266 311.24 96.8854 312.062 95.9219C312.885 94.9531 314.034 94.4688 315.508 94.4688C316.773 94.4688 317.779 94.7812 318.523 95.4062C319.268 96.0312 319.716 96.9323 319.867 98.1094H317.93C317.711 96.7396 316.917 96.0547 315.547 96.0547C314.661 96.0547 313.987 96.375 313.523 97.0156C313.065 97.651 312.828 98.5859 312.812 99.8203V100.695C312.812 101.924 313.07 102.88 313.586 103.562C314.107 104.24 314.828 104.578 315.75 104.578C316.76 104.578 317.479 104.349 317.906 103.891V101.664H315.562V100.164H319.875V104.523ZM333.375 106H325.727V104.695L329.516 100.562C330.062 99.9531 330.451 99.4453 330.68 99.0391C330.914 98.6276 331.031 98.2161 331.031 97.8047C331.031 97.263 330.878 96.8255 330.57 96.4922C330.268 96.1589 329.859 95.9922 329.344 95.9922C328.729 95.9922 328.253 96.1797 327.914 96.5547C327.576 96.9297 327.406 97.4427 327.406 98.0938H325.508C325.508 97.401 325.664 96.7786 325.977 96.2266C326.294 95.6693 326.745 95.237 327.328 94.9297C327.917 94.6224 328.594 94.4688 329.359 94.4688C330.464 94.4688 331.333 94.7474 331.969 95.3047C332.609 95.8568 332.93 96.6224 332.93 97.6016C332.93 98.1693 332.768 98.7656 332.445 99.3906C332.128 100.01 331.604 100.716 330.875 101.508L328.094 104.484H333.375V106Z" fill="#65BF73"/>
<g filter="url(#filter0_d)">
<path d="M400 8C400 3.58172 403.582 0 408 0H621C625.418 0 629 3.58172 629 8V120H400V8Z" fill="white"/>
<line x1="400.5" y1="79.5" x2="628.5" y2="79.5" stroke="#5452F6"/>
<line x1="400.5" y1="39.5" x2="628.5" y2="39.5" stroke="#5452F6"/>
<path d="M499.25 96.5469L499.305 97.5234C499.93 96.7682 500.75 96.3906 501.766 96.3906C503.526 96.3906 504.422 97.3984 504.453 99.4141V105H502.555V99.5234C502.555 98.987 502.438 98.5911 502.203 98.3359C501.974 98.0755 501.596 97.9453 501.07 97.9453C500.305 97.9453 499.734 98.2917 499.359 98.9844V105H497.461V96.5469H499.25ZM511.445 105C511.362 104.839 511.289 104.576 511.227 104.211C510.622 104.841 509.883 105.156 509.008 105.156C508.159 105.156 507.466 104.914 506.93 104.43C506.393 103.945 506.125 103.346 506.125 102.633C506.125 101.732 506.458 101.042 507.125 100.562C507.797 100.078 508.755 99.8359 510 99.8359H511.164V99.2812C511.164 98.8438 511.042 98.4948 510.797 98.2344C510.552 97.9688 510.18 97.8359 509.68 97.8359C509.247 97.8359 508.893 97.9453 508.617 98.1641C508.341 98.3776 508.203 98.651 508.203 98.9844H506.305C506.305 98.5208 506.458 98.0885 506.766 97.6875C507.073 97.2812 507.49 96.9635 508.016 96.7344C508.547 96.5052 509.138 96.3906 509.789 96.3906C510.779 96.3906 511.568 96.6406 512.156 97.1406C512.745 97.6354 513.047 98.3333 513.062 99.2344V103.047C513.062 103.807 513.169 104.414 513.383 104.867V105H511.445ZM509.359 103.633C509.734 103.633 510.086 103.542 510.414 103.359C510.747 103.177 510.997 102.932 511.164 102.625V101.031H510.141C509.438 101.031 508.909 101.154 508.555 101.398C508.201 101.643 508.023 101.99 508.023 102.438C508.023 102.802 508.143 103.094 508.383 103.312C508.628 103.526 508.953 103.633 509.359 103.633ZM517.43 94.4922V96.5469H518.922V97.9531H517.43V102.672C517.43 102.995 517.492 103.229 517.617 103.375C517.747 103.516 517.977 103.586 518.305 103.586C518.523 103.586 518.745 103.56 518.969 103.508V104.977C518.536 105.096 518.12 105.156 517.719 105.156C516.26 105.156 515.531 104.352 515.531 102.742V97.9531H514.141V96.5469H515.531V94.4922H517.43ZM524.75 99.3594L525.367 93.625H531.477V95.2656H526.945L526.633 97.9844C527.159 97.6823 527.753 97.5312 528.414 97.5312C529.497 97.5312 530.339 97.8776 530.938 98.5703C531.542 99.263 531.844 100.195 531.844 101.367C531.844 102.523 531.51 103.445 530.844 104.133C530.177 104.815 529.263 105.156 528.102 105.156C527.06 105.156 526.195 104.862 525.508 104.273C524.826 103.68 524.456 102.898 524.398 101.93H526.234C526.307 102.482 526.505 102.906 526.828 103.203C527.151 103.495 527.573 103.641 528.094 103.641C528.677 103.641 529.13 103.432 529.453 103.016C529.781 102.599 529.945 102.031 529.945 101.312C529.945 100.62 529.766 100.073 529.406 99.6719C529.047 99.2656 528.552 99.0625 527.922 99.0625C527.578 99.0625 527.286 99.1094 527.047 99.2031C526.807 99.2917 526.547 99.4688 526.266 99.7344L524.75 99.3594Z" fill="#5452F6"/>
<path d="M494.703 56.5469L494.758 57.5234C495.383 56.7682 496.203 56.3906 497.219 56.3906C498.979 56.3906 499.875 57.3984 499.906 59.4141V65H498.008V59.5234C498.008 58.987 497.891 58.5911 497.656 58.3359C497.427 58.0755 497.049 57.9453 496.523 57.9453C495.758 57.9453 495.188 58.2917 494.812 58.9844V65H492.914V56.5469H494.703ZM506.898 65C506.815 64.8385 506.742 64.5755 506.68 64.2109C506.076 64.8411 505.336 65.1562 504.461 65.1562C503.612 65.1562 502.919 64.9141 502.383 64.4297C501.846 63.9453 501.578 63.3464 501.578 62.6328C501.578 61.7318 501.911 61.0417 502.578 60.5625C503.25 60.0781 504.208 59.8359 505.453 59.8359H506.617V59.2812C506.617 58.8438 506.495 58.4948 506.25 58.2344C506.005 57.9688 505.633 57.8359 505.133 57.8359C504.701 57.8359 504.346 57.9453 504.07 58.1641C503.794 58.3776 503.656 58.651 503.656 58.9844H501.758C501.758 58.5208 501.911 58.0885 502.219 57.6875C502.526 57.2812 502.943 56.9635 503.469 56.7344C504 56.5052 504.591 56.3906 505.242 56.3906C506.232 56.3906 507.021 56.6406 507.609 57.1406C508.198 57.6354 508.5 58.3333 508.516 59.2344V63.0469C508.516 63.8073 508.622 64.4141 508.836 64.8672V65H506.898ZM504.812 63.6328C505.188 63.6328 505.539 63.5417 505.867 63.3594C506.201 63.1771 506.451 62.9323 506.617 62.625V61.0312H505.594C504.891 61.0312 504.362 61.1536 504.008 61.3984C503.654 61.6432 503.477 61.9896 503.477 62.4375C503.477 62.8021 503.596 63.0938 503.836 63.3125C504.081 63.526 504.406 63.6328 504.812 63.6328ZM512.883 54.4922V56.5469H514.375V57.9531H512.883V62.6719C512.883 62.9948 512.945 63.2292 513.07 63.375C513.201 63.5156 513.43 63.5859 513.758 63.5859C513.977 63.5859 514.198 63.5599 514.422 63.5078V64.9766C513.99 65.0964 513.573 65.1562 513.172 65.1562C511.714 65.1562 510.984 64.3516 510.984 62.7422V57.9531H509.594V56.5469H510.984V54.4922H512.883ZM526.117 60.9453H527.531V62.4688H526.117V65H524.219V62.4688H519.305L519.25 61.3125L524.156 53.625H526.117V60.9453ZM521.242 60.9453H524.219V56.1953L524.078 56.4453L521.242 60.9453ZM536.438 65H528.789V63.6953L532.578 59.5625C533.125 58.9531 533.513 58.4453 533.742 58.0391C533.977 57.6276 534.094 57.2161 534.094 56.8047C534.094 56.263 533.94 55.8255 533.633 55.4922C533.331 55.1589 532.922 54.9922 532.406 54.9922C531.792 54.9922 531.315 55.1797 530.977 55.5547C530.638 55.9297 530.469 56.4427 530.469 57.0938H528.57C528.57 56.401 528.727 55.7786 529.039 55.2266C529.357 54.6693 529.807 54.237 530.391 53.9297C530.979 53.6224 531.656 53.4688 532.422 53.4688C533.526 53.4688 534.396 53.7474 535.031 54.3047C535.672 54.8568 535.992 55.6224 535.992 56.6016C535.992 57.1693 535.831 57.7656 535.508 58.3906C535.19 59.0104 534.667 59.7161 533.938 60.5078L531.156 63.4844H536.438V65Z" fill="#5452F6"/>
<path d="M473.789 22.0703C473.789 21.5703 473.612 21.1849 473.258 20.9141C472.909 20.6432 472.276 20.3698 471.359 20.0938C470.443 19.8177 469.714 19.5104 469.172 19.1719C468.135 18.5208 467.617 17.6719 467.617 16.625C467.617 15.7083 467.99 14.9531 468.734 14.3594C469.484 13.7656 470.456 13.4688 471.648 13.4688C472.44 13.4688 473.146 13.6146 473.766 13.9062C474.385 14.1979 474.872 14.6146 475.227 15.1562C475.581 15.6927 475.758 16.2891 475.758 16.9453H473.789C473.789 16.3516 473.602 15.888 473.227 15.5547C472.857 15.2161 472.326 15.0469 471.633 15.0469C470.987 15.0469 470.484 15.1849 470.125 15.4609C469.771 15.737 469.594 16.1224 469.594 16.6172C469.594 17.0339 469.786 17.3828 470.172 17.6641C470.557 17.9401 471.193 18.2109 472.078 18.4766C472.964 18.737 473.674 19.0365 474.211 19.375C474.747 19.7083 475.141 20.0938 475.391 20.5312C475.641 20.9635 475.766 21.4714 475.766 22.0547C475.766 23.0026 475.401 23.7578 474.672 24.3203C473.948 24.8776 472.964 25.1562 471.719 25.1562C470.896 25.1562 470.138 25.0052 469.445 24.7031C468.758 24.3958 468.221 23.974 467.836 23.4375C467.456 22.901 467.266 22.276 467.266 21.5625H469.242C469.242 22.2083 469.456 22.7083 469.883 23.0625C470.31 23.4167 470.922 23.5938 471.719 23.5938C472.406 23.5938 472.922 23.4557 473.266 23.1797C473.615 22.8984 473.789 22.5286 473.789 22.0703ZM479.695 14.4922V16.5469H481.188V17.9531H479.695V22.6719C479.695 22.9948 479.758 23.2292 479.883 23.375C480.013 23.5156 480.242 23.5859 480.57 23.5859C480.789 23.5859 481.01 23.5599 481.234 23.5078V24.9766C480.802 25.0964 480.385 25.1562 479.984 25.1562C478.526 25.1562 477.797 24.3516 477.797 22.7422V17.9531H476.406V16.5469H477.797V14.4922H479.695ZM487.07 18.2812C486.82 18.2396 486.562 18.2188 486.297 18.2188C485.427 18.2188 484.841 18.5521 484.539 19.2188V25H482.641V16.5469H484.453L484.5 17.4922C484.958 16.7578 485.594 16.3906 486.406 16.3906C486.677 16.3906 486.901 16.4271 487.078 16.5L487.07 18.2812ZM490.289 25H488.391V16.5469H490.289V25ZM488.273 14.3516C488.273 14.0599 488.365 13.8177 488.547 13.625C488.734 13.4323 489 13.3359 489.344 13.3359C489.688 13.3359 489.953 13.4323 490.141 13.625C490.328 13.8177 490.422 14.0599 490.422 14.3516C490.422 14.638 490.328 14.8776 490.141 15.0703C489.953 15.2578 489.688 15.3516 489.344 15.3516C489 15.3516 488.734 15.2578 488.547 15.0703C488.365 14.8776 488.273 14.638 488.273 14.3516ZM494.125 16.5469L494.18 17.5234C494.805 16.7682 495.625 16.3906 496.641 16.3906C498.401 16.3906 499.297 17.3984 499.328 19.4141V25H497.43V19.5234C497.43 18.987 497.312 18.5911 497.078 18.3359C496.849 18.0755 496.471 17.9453 495.945 17.9453C495.18 17.9453 494.609 18.2917 494.234 18.9844V25H492.336V16.5469H494.125ZM500.938 20.7109C500.938 19.3984 501.245 18.3516 501.859 17.5703C502.479 16.7839 503.299 16.3906 504.32 16.3906C505.284 16.3906 506.042 16.7266 506.594 17.3984L506.68 16.5469H508.391V24.7422C508.391 25.8516 508.044 26.7266 507.352 27.3672C506.664 28.0078 505.734 28.3281 504.562 28.3281C503.943 28.3281 503.336 28.1979 502.742 27.9375C502.154 27.6823 501.706 27.3464 501.398 26.9297L502.297 25.7891C502.88 26.4818 503.599 26.8281 504.453 26.8281C505.083 26.8281 505.581 26.6562 505.945 26.3125C506.31 25.974 506.492 25.474 506.492 24.8125V24.2422C505.945 24.8516 505.216 25.1562 504.305 25.1562C503.315 25.1562 502.505 24.763 501.875 23.9766C501.25 23.1901 500.938 22.1016 500.938 20.7109ZM502.828 20.875C502.828 21.724 503 22.3932 503.344 22.8828C503.693 23.3672 504.174 23.6094 504.789 23.6094C505.555 23.6094 506.122 23.2812 506.492 22.625V18.9062C506.133 18.2656 505.57 17.9453 504.805 17.9453C504.18 17.9453 503.693 18.1927 503.344 18.6875C503 19.1823 502.828 19.9115 502.828 20.875ZM515.633 12.7969L516.602 13.3984C516.128 14.0911 515.883 14.8125 515.867 15.5625V16.75H514.203V15.6719C514.208 15.1719 514.344 14.651 514.609 14.1094C514.88 13.5625 515.221 13.125 515.633 12.7969ZM518.258 12.7969L519.227 13.3984C518.753 14.0911 518.508 14.8125 518.492 15.5625V16.75H516.828V15.6719C516.833 15.1719 516.969 14.651 517.234 14.1094C517.505 13.5625 517.846 13.125 518.258 12.7969ZM529.703 25H527.734V19.9453H522.648V25H520.672V13.625H522.648V18.3594H527.734V13.625H529.703V25ZM535.586 25.1562C534.383 25.1562 533.406 24.7786 532.656 24.0234C531.911 23.263 531.539 22.2526 531.539 20.9922V20.7578C531.539 19.9141 531.701 19.1615 532.023 18.5C532.352 17.8333 532.81 17.3151 533.398 16.9453C533.987 16.5755 534.643 16.3906 535.367 16.3906C536.518 16.3906 537.406 16.7578 538.031 17.4922C538.661 18.2266 538.977 19.2656 538.977 20.6094V21.375H533.453C533.51 22.0729 533.742 22.625 534.148 23.0312C534.56 23.4375 535.076 23.6406 535.695 23.6406C536.565 23.6406 537.273 23.2891 537.82 22.5859L538.844 23.5625C538.505 24.0677 538.052 24.4609 537.484 24.7422C536.922 25.0182 536.289 25.1562 535.586 25.1562ZM535.359 17.9141C534.839 17.9141 534.417 18.0964 534.094 18.4609C533.776 18.8255 533.573 19.3333 533.484 19.9844H537.102V19.8438C537.06 19.2083 536.891 18.7292 536.594 18.4062C536.297 18.0781 535.885 17.9141 535.359 17.9141ZM542.477 25H540.578V13H542.477V25ZM546.57 25H544.672V13H546.57V25ZM548.289 20.6953C548.289 19.8672 548.453 19.1224 548.781 18.4609C549.109 17.7943 549.57 17.2839 550.164 16.9297C550.758 16.5703 551.44 16.3906 552.211 16.3906C553.352 16.3906 554.276 16.7578 554.984 17.4922C555.698 18.2266 556.083 19.2005 556.141 20.4141L556.148 20.8594C556.148 21.6927 555.987 22.4375 555.664 23.0938C555.346 23.75 554.888 24.2578 554.289 24.6172C553.695 24.9766 553.008 25.1562 552.227 25.1562C551.034 25.1562 550.078 24.7604 549.359 23.9688C548.646 23.1719 548.289 22.112 548.289 20.7891V20.6953ZM550.188 20.8594C550.188 21.7292 550.367 22.4115 550.727 22.9062C551.086 23.3958 551.586 23.6406 552.227 23.6406C552.867 23.6406 553.365 23.3906 553.719 22.8906C554.078 22.3906 554.258 21.6589 554.258 20.6953C554.258 19.8411 554.073 19.1641 553.703 18.6641C553.339 18.1641 552.841 17.9141 552.211 17.9141C551.591 17.9141 551.099 18.1615 550.734 18.6562C550.37 19.1458 550.188 19.8802 550.188 20.8594ZM557.562 17L556.594 16.3984C557.062 15.7161 557.305 14.9948 557.32 14.2344V13H558.984V14.0781C558.984 14.6146 558.846 15.1562 558.57 15.7031C558.299 16.2448 557.964 16.6771 557.562 17ZM560.172 17L559.203 16.3984C559.672 15.7161 559.914 14.9948 559.93 14.2344V13H561.594V14.0781C561.594 14.6146 561.456 15.1562 561.18 15.7031C560.909 16.2448 560.573 16.6771 560.172 17Z" fill="#FF5A43"/>
<path d="M408 0.5H621C625.142 0.5 628.5 3.85787 628.5 8V119.5H400.5V8C400.5 3.85786 403.858 0.5 408 0.5Z" stroke="#5452F6"/>
</g>
<g filter="url(#filter1_d)">
<path d="M400 119H629V135C629 139.418 625.418 143 621 143H408C403.582 143 400 139.418 400 135V119Z" fill="#EEEEFF"/>
<path d="M400.5 119.5H628.5V135C628.5 139.142 625.142 142.5 621 142.5H408C403.858 142.5 400.5 139.142 400.5 135V119.5Z" stroke="#5452F6"/>
</g>
<g filter="url(#filter2_d)">
<path d="M0 8C0 3.58172 3.58172 0 8 0H221C225.418 0 229 3.58172 229 8V120H0V8Z" fill="white"/>
<line x1="0.5" y1="79.5" x2="228.5" y2="79.5" stroke="#5452F6"/>
<line x1="0.5" y1="39.5" x2="228.5" y2="39.5" stroke="#5452F6"/>
<path d="M73.7891 102.07C73.7891 101.57 73.612 101.185 73.2578 100.914C72.9089 100.643 72.276 100.37 71.3594 100.094C70.4427 99.8177 69.7135 99.5104 69.1719 99.1719C68.1354 98.5208 67.6172 97.6719 67.6172 96.625C67.6172 95.7083 67.9896 94.9531 68.7344 94.3594C69.4844 93.7656 70.4557 93.4688 71.6484 93.4688C72.4401 93.4688 73.1458 93.6146 73.7656 93.9062C74.3854 94.1979 74.8724 94.6146 75.2266 95.1562C75.5807 95.6927 75.7578 96.2891 75.7578 96.9453H73.7891C73.7891 96.3516 73.6016 95.888 73.2266 95.5547C72.8568 95.2161 72.3255 95.0469 71.6328 95.0469C70.987 95.0469 70.4844 95.1849 70.125 95.4609C69.7708 95.737 69.5938 96.1224 69.5938 96.6172C69.5938 97.0339 69.7865 97.3828 70.1719 97.6641C70.5573 97.9401 71.1927 98.2109 72.0781 98.4766C72.9635 98.737 73.6745 99.0365 74.2109 99.375C74.7474 99.7083 75.1406 100.094 75.3906 100.531C75.6406 100.964 75.7656 101.471 75.7656 102.055C75.7656 103.003 75.401 103.758 74.6719 104.32C73.9479 104.878 72.9635 105.156 71.7188 105.156C70.8958 105.156 70.138 105.005 69.4453 104.703C68.7578 104.396 68.2214 103.974 67.8359 103.438C67.4557 102.901 67.2656 102.276 67.2656 101.562H69.2422C69.2422 102.208 69.4557 102.708 69.8828 103.062C70.3099 103.417 70.9219 103.594 71.7188 103.594C72.4062 103.594 72.9219 103.456 73.2656 103.18C73.6146 102.898 73.7891 102.529 73.7891 102.07ZM79.6953 94.4922V96.5469H81.1875V97.9531H79.6953V102.672C79.6953 102.995 79.7578 103.229 79.8828 103.375C80.013 103.516 80.2422 103.586 80.5703 103.586C80.7891 103.586 81.0104 103.56 81.2344 103.508V104.977C80.8021 105.096 80.3854 105.156 79.9844 105.156C78.526 105.156 77.7969 104.352 77.7969 102.742V97.9531H76.4062V96.5469H77.7969V94.4922H79.6953ZM87.0703 98.2812C86.8203 98.2396 86.5625 98.2188 86.2969 98.2188C85.4271 98.2188 84.8411 98.5521 84.5391 99.2188V105H82.6406V96.5469H84.4531L84.5 97.4922C84.9583 96.7578 85.5938 96.3906 86.4062 96.3906C86.6771 96.3906 86.901 96.4271 87.0781 96.5L87.0703 98.2812ZM90.2891 105H88.3906V96.5469H90.2891V105ZM88.2734 94.3516C88.2734 94.0599 88.3646 93.8177 88.5469 93.625C88.7344 93.4323 89 93.3359 89.3438 93.3359C89.6875 93.3359 89.9531 93.4323 90.1406 93.625C90.3281 93.8177 90.4219 94.0599 90.4219 94.3516C90.4219 94.638 90.3281 94.8776 90.1406 95.0703C89.9531 95.2578 89.6875 95.3516 89.3438 95.3516C89 95.3516 88.7344 95.2578 88.5469 95.0703C88.3646 94.8776 88.2734 94.638 88.2734 94.3516ZM94.125 96.5469L94.1797 97.5234C94.8047 96.7682 95.625 96.3906 96.6406 96.3906C98.401 96.3906 99.2969 97.3984 99.3281 99.4141V105H97.4297V99.5234C97.4297 98.987 97.3125 98.5911 97.0781 98.3359C96.849 98.0755 96.4714 97.9453 95.9453 97.9453C95.1797 97.9453 94.6094 98.2917 94.2344 98.9844V105H92.3359V96.5469H94.125ZM100.938 100.711C100.938 99.3984 101.245 98.3516 101.859 97.5703C102.479 96.7839 103.299 96.3906 104.32 96.3906C105.284 96.3906 106.042 96.7266 106.594 97.3984L106.68 96.5469H108.391V104.742C108.391 105.852 108.044 106.727 107.352 107.367C106.664 108.008 105.734 108.328 104.562 108.328C103.943 108.328 103.336 108.198 102.742 107.938C102.154 107.682 101.706 107.346 101.398 106.93L102.297 105.789C102.88 106.482 103.599 106.828 104.453 106.828C105.083 106.828 105.581 106.656 105.945 106.312C106.31 105.974 106.492 105.474 106.492 104.812V104.242C105.945 104.852 105.216 105.156 104.305 105.156C103.315 105.156 102.505 104.763 101.875 103.977C101.25 103.19 100.938 102.102 100.938 100.711ZM102.828 100.875C102.828 101.724 103 102.393 103.344 102.883C103.693 103.367 104.174 103.609 104.789 103.609C105.555 103.609 106.122 103.281 106.492 102.625V98.9062C106.133 98.2656 105.57 97.9453 104.805 97.9453C104.18 97.9453 103.693 98.1927 103.344 98.6875C103 99.1823 102.828 99.9115 102.828 100.875ZM115.633 92.7969L116.602 93.3984C116.128 94.0911 115.883 94.8125 115.867 95.5625V96.75H114.203V95.6719C114.208 95.1719 114.344 94.651 114.609 94.1094C114.88 93.5625 115.221 93.125 115.633 92.7969ZM118.258 92.7969L119.227 93.3984C118.753 94.0911 118.508 94.8125 118.492 95.5625V96.75H116.828V95.6719C116.833 95.1719 116.969 94.651 117.234 94.1094C117.505 93.5625 117.846 93.125 118.258 92.7969ZM129.703 105H127.734V99.9453H122.648V105H120.672V93.625H122.648V98.3594H127.734V93.625H129.703V105ZM135.586 105.156C134.383 105.156 133.406 104.779 132.656 104.023C131.911 103.263 131.539 102.253 131.539 100.992V100.758C131.539 99.9141 131.701 99.1615 132.023 98.5C132.352 97.8333 132.81 97.3151 133.398 96.9453C133.987 96.5755 134.643 96.3906 135.367 96.3906C136.518 96.3906 137.406 96.7578 138.031 97.4922C138.661 98.2266 138.977 99.2656 138.977 100.609V101.375H133.453C133.51 102.073 133.742 102.625 134.148 103.031C134.56 103.438 135.076 103.641 135.695 103.641C136.565 103.641 137.273 103.289 137.82 102.586L138.844 103.562C138.505 104.068 138.052 104.461 137.484 104.742C136.922 105.018 136.289 105.156 135.586 105.156ZM135.359 97.9141C134.839 97.9141 134.417 98.0964 134.094 98.4609C133.776 98.8255 133.573 99.3333 133.484 99.9844H137.102V99.8438C137.06 99.2083 136.891 98.7292 136.594 98.4062C136.297 98.0781 135.885 97.9141 135.359 97.9141ZM142.477 105H140.578V93H142.477V105ZM146.57 105H144.672V93H146.57V105ZM148.289 100.695C148.289 99.8672 148.453 99.1224 148.781 98.4609C149.109 97.7943 149.57 97.2839 150.164 96.9297C150.758 96.5703 151.44 96.3906 152.211 96.3906C153.352 96.3906 154.276 96.7578 154.984 97.4922C155.698 98.2266 156.083 99.2005 156.141 100.414L156.148 100.859C156.148 101.693 155.987 102.438 155.664 103.094C155.346 103.75 154.888 104.258 154.289 104.617C153.695 104.977 153.008 105.156 152.227 105.156C151.034 105.156 150.078 104.76 149.359 103.969C148.646 103.172 148.289 102.112 148.289 100.789V100.695ZM150.188 100.859C150.188 101.729 150.367 102.411 150.727 102.906C151.086 103.396 151.586 103.641 152.227 103.641C152.867 103.641 153.365 103.391 153.719 102.891C154.078 102.391 154.258 101.659 154.258 100.695C154.258 99.8411 154.073 99.1641 153.703 98.6641C153.339 98.1641 152.841 97.9141 152.211 97.9141C151.591 97.9141 151.099 98.1615 150.734 98.6562C150.37 99.1458 150.188 99.8802 150.188 100.859ZM157.562 97L156.594 96.3984C157.062 95.7161 157.305 94.9948 157.32 94.2344V93H158.984V94.0781C158.984 94.6146 158.846 95.1562 158.57 95.7031C158.299 96.2448 157.964 96.6771 157.562 97ZM160.172 97L159.203 96.3984C159.672 95.7161 159.914 94.9948 159.93 94.2344V93H161.594V94.0781C161.594 94.6146 161.456 95.1562 161.18 95.7031C160.909 96.2448 160.573 96.6771 160.172 97Z" fill="#FF5A43"/>
<path d="M98.75 57.5469L98.8047 58.5234C99.4297 57.7682 100.25 57.3906 101.266 57.3906C103.026 57.3906 103.922 58.3984 103.953 60.4141V66H102.055V60.5234C102.055 59.987 101.938 59.5911 101.703 59.3359C101.474 59.0755 101.096 58.9453 100.57 58.9453C99.8047 58.9453 99.2344 59.2917 98.8594 59.9844V66H96.9609V57.5469H98.75ZM110.945 66C110.862 65.8385 110.789 65.5755 110.727 65.2109C110.122 65.8411 109.383 66.1562 108.508 66.1562C107.659 66.1562 106.966 65.9141 106.43 65.4297C105.893 64.9453 105.625 64.3464 105.625 63.6328C105.625 62.7318 105.958 62.0417 106.625 61.5625C107.297 61.0781 108.255 60.8359 109.5 60.8359H110.664V60.2812C110.664 59.8438 110.542 59.4948 110.297 59.2344C110.052 58.9688 109.68 58.8359 109.18 58.8359C108.747 58.8359 108.393 58.9453 108.117 59.1641C107.841 59.3776 107.703 59.651 107.703 59.9844H105.805C105.805 59.5208 105.958 59.0885 106.266 58.6875C106.573 58.2812 106.99 57.9635 107.516 57.7344C108.047 57.5052 108.638 57.3906 109.289 57.3906C110.279 57.3906 111.068 57.6406 111.656 58.1406C112.245 58.6354 112.547 59.3333 112.562 60.2344V64.0469C112.562 64.8073 112.669 65.4141 112.883 65.8672V66H110.945ZM108.859 64.6328C109.234 64.6328 109.586 64.5417 109.914 64.3594C110.247 64.1771 110.497 63.9323 110.664 63.625V62.0312H109.641C108.938 62.0312 108.409 62.1536 108.055 62.3984C107.701 62.6432 107.523 62.9896 107.523 63.4375C107.523 63.8021 107.643 64.0938 107.883 64.3125C108.128 64.526 108.453 64.6328 108.859 64.6328ZM116.93 55.4922V57.5469H118.422V58.9531H116.93V63.6719C116.93 63.9948 116.992 64.2292 117.117 64.375C117.247 64.5156 117.477 64.5859 117.805 64.5859C118.023 64.5859 118.245 64.5599 118.469 64.5078V65.9766C118.036 66.0964 117.62 66.1562 117.219 66.1562C115.76 66.1562 115.031 65.3516 115.031 63.7422V58.9531H113.641V57.5469H115.031V55.4922H116.93ZM124.25 60.3594L124.867 54.625H130.977V56.2656H126.445L126.133 58.9844C126.659 58.6823 127.253 58.5312 127.914 58.5312C128.997 58.5312 129.839 58.8776 130.438 59.5703C131.042 60.263 131.344 61.1953 131.344 62.3672C131.344 63.5234 131.01 64.4453 130.344 65.1328C129.677 65.8151 128.763 66.1562 127.602 66.1562C126.56 66.1562 125.695 65.862 125.008 65.2734C124.326 64.6797 123.956 63.8984 123.898 62.9297H125.734C125.807 63.4818 126.005 63.9062 126.328 64.2031C126.651 64.4948 127.073 64.6406 127.594 64.6406C128.177 64.6406 128.63 64.4323 128.953 64.0156C129.281 63.599 129.445 63.0312 129.445 62.3125C129.445 61.6198 129.266 61.0729 128.906 60.6719C128.547 60.2656 128.052 60.0625 127.422 60.0625C127.078 60.0625 126.786 60.1094 126.547 60.2031C126.307 60.2917 126.047 60.4688 125.766 60.7344L124.25 60.3594Z" fill="#5452F6"/>
<path d="M94.7031 16.5469L94.7578 17.5234C95.3828 16.7682 96.2031 16.3906 97.2188 16.3906C98.9792 16.3906 99.875 17.3984 99.9062 19.4141V25H98.0078V19.5234C98.0078 18.987 97.8906 18.5911 97.6562 18.3359C97.4271 18.0755 97.0495 17.9453 96.5234 17.9453C95.7578 17.9453 95.1875 18.2917 94.8125 18.9844V25H92.9141V16.5469H94.7031ZM106.898 25C106.815 24.8385 106.742 24.5755 106.68 24.2109C106.076 24.8411 105.336 25.1562 104.461 25.1562C103.612 25.1562 102.919 24.9141 102.383 24.4297C101.846 23.9453 101.578 23.3464 101.578 22.6328C101.578 21.7318 101.911 21.0417 102.578 20.5625C103.25 20.0781 104.208 19.8359 105.453 19.8359H106.617V19.2812C106.617 18.8438 106.495 18.4948 106.25 18.2344C106.005 17.9688 105.633 17.8359 105.133 17.8359C104.701 17.8359 104.346 17.9453 104.07 18.1641C103.794 18.3776 103.656 18.651 103.656 18.9844H101.758C101.758 18.5208 101.911 18.0885 102.219 17.6875C102.526 17.2812 102.943 16.9635 103.469 16.7344C104 16.5052 104.591 16.3906 105.242 16.3906C106.232 16.3906 107.021 16.6406 107.609 17.1406C108.198 17.6354 108.5 18.3333 108.516 19.2344V23.0469C108.516 23.8073 108.622 24.4141 108.836 24.8672V25H106.898ZM104.812 23.6328C105.188 23.6328 105.539 23.5417 105.867 23.3594C106.201 23.1771 106.451 22.9323 106.617 22.625V21.0312H105.594C104.891 21.0312 104.362 21.1536 104.008 21.3984C103.654 21.6432 103.477 21.9896 103.477 22.4375C103.477 22.8021 103.596 23.0938 103.836 23.3125C104.081 23.526 104.406 23.6328 104.812 23.6328ZM112.883 14.4922V16.5469H114.375V17.9531H112.883V22.6719C112.883 22.9948 112.945 23.2292 113.07 23.375C113.201 23.5156 113.43 23.5859 113.758 23.5859C113.977 23.5859 114.198 23.5599 114.422 23.5078V24.9766C113.99 25.0964 113.573 25.1562 113.172 25.1562C111.714 25.1562 110.984 24.3516 110.984 22.7422V17.9531H109.594V16.5469H110.984V14.4922H112.883ZM126.117 20.9453H127.531V22.4688H126.117V25H124.219V22.4688H119.305L119.25 21.3125L124.156 13.625H126.117V20.9453ZM121.242 20.9453H124.219V16.1953L124.078 16.4453L121.242 20.9453ZM136.438 25H128.789V23.6953L132.578 19.5625C133.125 18.9531 133.513 18.4453 133.742 18.0391C133.977 17.6276 134.094 17.2161 134.094 16.8047C134.094 16.263 133.94 15.8255 133.633 15.4922C133.331 15.1589 132.922 14.9922 132.406 14.9922C131.792 14.9922 131.315 15.1797 130.977 15.5547C130.638 15.9297 130.469 16.4427 130.469 17.0938H128.57C128.57 16.401 128.727 15.7786 129.039 15.2266C129.357 14.6693 129.807 14.237 130.391 13.9297C130.979 13.6224 131.656 13.4688 132.422 13.4688C133.526 13.4688 134.396 13.7474 135.031 14.3047C135.672 14.8568 135.992 15.6224 135.992 16.6016C135.992 17.1693 135.831 17.7656 135.508 18.3906C135.19 19.0104 134.667 19.7161 133.938 20.5078L131.156 23.4844H136.438V25Z" fill="#5452F6"/>
<path d="M8 0.5H221C225.142 0.5 228.5 3.85787 228.5 8V119.5H0.5V8C0.5 3.85786 3.85786 0.5 8 0.5Z" stroke="#5452F6"/>
</g>
<g filter="url(#filter3_d)">
<path d="M0 119H229V135C229 139.418 225.418 143 221 143H8.00001C3.58173 143 0 139.418 0 135V119Z" fill="#EEEEFF"/>
<path d="M0.5 119.5H228.5V135C228.5 139.142 225.142 142.5 221 142.5H8.00001C3.85787 142.5 0.5 139.142 0.5 135V119.5Z" stroke="#5452F6"/>
</g>
<defs>
<filter id="filter0_d" x="400" y="0" width="233" height="124" filterUnits="userSpaceOnUse" color-interpolation-filters="sRGB">
<feFlood flood-opacity="0" result="BackgroundImageFix"/>
<feColorMatrix in="SourceAlpha" type="matrix" values="0 0 0 0 0 0 0 0 0 0 0 0 0 0 0 0 0 0 127 0"/>
<feOffset dx="4" dy="4"/>
<feColorMatrix type="matrix" values="0 0 0 0 0.674908 0 0 0 0 0.662083 0 0 0 0 0.945833 0 0 0 1 0"/>
<feBlend mode="normal" in2="BackgroundImageFix" result="effect1_dropShadow"/>
<feBlend mode="normal" in="SourceGraphic" in2="effect1_dropShadow" result="shape"/>
</filter>
<filter id="filter1_d" x="400" y="119" width="233" height="28" filterUnits="userSpaceOnUse" color-interpolation-filters="sRGB">
<feFlood flood-opacity="0" result="BackgroundImageFix"/>
<feColorMatrix in="SourceAlpha" type="matrix" values="0 0 0 0 0 0 0 0 0 0 0 0 0 0 0 0 0 0 127 0"/>
<feOffset dx="4" dy="4"/>
<feColorMatrix type="matrix" values="0 0 0 0 0.674908 0 0 0 0 0.662083 0 0 0 0 0.945833 0 0 0 1 0"/>
<feBlend mode="normal" in2="BackgroundImageFix" result="effect1_dropShadow"/>
<feBlend mode="normal" in="SourceGraphic" in2="effect1_dropShadow" result="shape"/>
</filter>
<filter id="filter2_d" x="0" y="0" width="233" height="124" filterUnits="userSpaceOnUse" color-interpolation-filters="sRGB">
<feFlood flood-opacity="0" result="BackgroundImageFix"/>
<feColorMatrix in="SourceAlpha" type="matrix" values="0 0 0 0 0 0 0 0 0 0 0 0 0 0 0 0 0 0 127 0"/>
<feOffset dx="4" dy="4"/>
<feColorMatrix type="matrix" values="0 0 0 0 0.674908 0 0 0 0 0.662083 0 0 0 0 0.945833 0 0 0 1 0"/>
<feBlend mode="normal" in2="BackgroundImageFix" result="effect1_dropShadow"/>
<feBlend mode="normal" in="SourceGraphic" in2="effect1_dropShadow" result="shape"/>
</filter>
<filter id="filter3_d" x="0" y="119" width="233" height="28" filterUnits="userSpaceOnUse" color-interpolation-filters="sRGB">
<feFlood flood-opacity="0" result="BackgroundImageFix"/>
<feColorMatrix in="SourceAlpha" type="matrix" values="0 0 0 0 0 0 0 0 0 0 0 0 0 0 0 0 0 0 127 0"/>
<feOffset dx="4" dy="4"/>
<feColorMatrix type="matrix" values="0 0 0 0 0.674908 0 0 0 0 0.662083 0 0 0 0 0.945833 0 0 0 1 0"/>
<feBlend mode="normal" in2="BackgroundImageFix" result="effect1_dropShadow"/>
<feBlend mode="normal" in="SourceGraphic" in2="effect1_dropShadow" result="shape"/>
</filter>
</defs>
</svg>
