<svg width="1034" height="107" viewBox="0 0 1034 107" fill="none" xmlns="http://www.w3.org/2000/svg">
<line x1="255" y1="79.5" x2="389" y2="79.5" stroke="#65BF73" stroke-width="2"/>
<path d="M379 70L389.5 79.5L379 88.5" stroke="#65BF73" stroke-width="2" stroke-linecap="round" stroke-linejoin="round"/>
<circle cx="250.5" cy="80" r="5.5" stroke="#65BF73" stroke-width="2"/>
<path d="M288.312 61.2969C288.198 62.5104 287.75 63.4583 286.969 64.1406C286.188 64.8177 285.148 65.1562 283.852 65.1562C282.945 65.1562 282.146 64.9427 281.453 64.5156C280.766 64.0833 280.234 63.4714 279.859 62.6797C279.484 61.888 279.289 60.9688 279.273 59.9219V58.8594C279.273 57.7865 279.464 56.8411 279.844 56.0234C280.224 55.2057 280.768 54.5755 281.477 54.1328C282.19 53.6901 283.013 53.4688 283.945 53.4688C285.201 53.4688 286.211 53.8099 286.977 54.4922C287.742 55.1745 288.188 56.138 288.312 57.3828H286.344C286.25 56.5651 286.01 55.9766 285.625 55.6172C285.245 55.2526 284.685 55.0703 283.945 55.0703C283.086 55.0703 282.424 55.3854 281.961 56.0156C281.503 56.6406 281.268 57.5599 281.258 58.7734V59.7812C281.258 61.0104 281.477 61.9479 281.914 62.5938C282.357 63.2396 283.003 63.5625 283.852 63.5625C284.628 63.5625 285.211 63.388 285.602 63.0391C285.992 62.6901 286.24 62.1094 286.344 61.2969H288.312ZM299.164 59.6094C299.164 60.724 298.971 61.7031 298.586 62.5469C298.201 63.3854 297.648 64.0312 296.93 64.4844C296.216 64.9323 295.393 65.1562 294.461 65.1562C293.539 65.1562 292.716 64.9323 291.992 64.4844C291.273 64.0312 290.716 63.388 290.32 62.5547C289.93 61.7214 289.732 60.7604 289.727 59.6719V59.0312C289.727 57.9219 289.922 56.9427 290.312 56.0938C290.708 55.2448 291.263 54.5964 291.977 54.1484C292.695 53.6953 293.518 53.4688 294.445 53.4688C295.372 53.4688 296.193 53.6927 296.906 54.1406C297.625 54.5833 298.18 55.224 298.57 56.0625C298.961 56.8958 299.159 57.8672 299.164 58.9766V59.6094ZM297.188 59.0156C297.188 57.7552 296.948 56.7891 296.469 56.1172C295.995 55.4453 295.32 55.1094 294.445 55.1094C293.591 55.1094 292.922 55.4453 292.438 56.1172C291.958 56.7839 291.714 57.7292 291.703 58.9531V59.6094C291.703 60.8594 291.945 61.8255 292.43 62.5078C292.919 63.1901 293.596 63.5312 294.461 63.5312C295.336 63.5312 296.008 63.1979 296.477 62.5312C296.951 61.8646 297.188 60.8906 297.188 59.6094V59.0156ZM303.695 53.625L306.977 62.3438L310.25 53.625H312.805V65H310.836V61.25L311.031 56.2344L307.672 65H306.258L302.906 56.2422L303.102 61.25V65H301.133V53.625H303.695ZM317.125 60.7734V65H315.148V53.625H319.5C320.771 53.625 321.779 53.9557 322.523 54.6172C323.273 55.2786 323.648 56.1536 323.648 57.2422C323.648 58.3568 323.281 59.224 322.547 59.8438C321.818 60.4635 320.794 60.7734 319.477 60.7734H317.125ZM317.125 59.1875H319.5C320.203 59.1875 320.74 59.0234 321.109 58.6953C321.479 58.362 321.664 57.8828 321.664 57.2578C321.664 56.6432 321.477 56.1536 321.102 55.7891C320.727 55.4193 320.211 55.2292 319.555 55.2188H317.125V59.1875ZM330.359 62.3516H325.953L325.031 65H322.977L327.273 53.625H329.047L333.352 65H331.289L330.359 62.3516ZM326.508 60.7578H329.805L328.156 56.0391L326.508 60.7578ZM338.828 60.6172H336.625V65H334.648V53.625H338.648C339.961 53.625 340.974 53.9193 341.688 54.5078C342.401 55.0964 342.758 55.9479 342.758 57.0625C342.758 57.8229 342.573 58.4609 342.203 58.9766C341.839 59.487 341.328 59.8802 340.672 60.1562L343.227 64.8984V65H341.109L338.828 60.6172ZM336.625 59.0312H338.656C339.323 59.0312 339.844 58.8646 340.219 58.5312C340.594 58.1927 340.781 57.7318 340.781 57.1484C340.781 56.5391 340.607 56.0677 340.258 55.7344C339.914 55.401 339.398 55.2292 338.711 55.2188H336.625V59.0312ZM351.281 59.9219H346.609V63.4219H352.07V65H344.633V53.625H352.016V55.2188H346.609V58.3594H351.281V59.9219Z" fill="#65BF73"/>
<g filter="url(#filter0_d)">
<path d="M401 48C401 43.5817 404.582 40 409 40H622C626.418 40 630 43.5817 630 48V80H401V48Z" fill="white"/>
<path d="M409 40.5H622C626.142 40.5 629.5 43.8579 629.5 48V79.5H401.5V48C401.5 43.8579 404.858 40.5 409 40.5Z" stroke="#5452F6"/>
</g>
<g filter="url(#filter1_d)">
<path d="M401 79H630V95C630 99.4183 626.418 103 622 103H409C404.582 103 401 99.4183 401 95V79Z" fill="#EEEEFF"/>
<path d="M401.5 79.5H629.5V95C629.5 99.1421 626.142 102.5 622 102.5H409C404.858 102.5 401.5 99.1421 401.5 95V79.5Z" stroke="#5452F6"/>
</g>
<path d="M500.164 65H498.266V56.5469H500.164V65ZM498.148 54.3516C498.148 54.0599 498.24 53.8177 498.422 53.625C498.609 53.4323 498.875 53.3359 499.219 53.3359C499.562 53.3359 499.828 53.4323 500.016 53.625C500.203 53.8177 500.297 54.0599 500.297 54.3516C500.297 54.638 500.203 54.8776 500.016 55.0703C499.828 55.2578 499.562 55.3516 499.219 55.3516C498.875 55.3516 498.609 55.2578 498.422 55.0703C498.24 54.8776 498.148 54.638 498.148 54.3516ZM504 56.5469L504.055 57.5234C504.68 56.7682 505.5 56.3906 506.516 56.3906C508.276 56.3906 509.172 57.3984 509.203 59.4141V65H507.305V59.5234C507.305 58.987 507.188 58.5911 506.953 58.3359C506.724 58.0755 506.346 57.9453 505.82 57.9453C505.055 57.9453 504.484 58.2917 504.109 58.9844V65H502.211V56.5469H504ZM513.523 54.4922V56.5469H515.016V57.9531H513.523V62.6719C513.523 62.9948 513.586 63.2292 513.711 63.375C513.841 63.5156 514.07 63.5859 514.398 63.5859C514.617 63.5859 514.839 63.5599 515.062 63.5078V64.9766C514.63 65.0964 514.214 65.1562 513.812 65.1562C512.354 65.1562 511.625 64.3516 511.625 62.7422V57.9531H510.234V56.5469H511.625V54.4922H513.523ZM524.141 60.9297H520.039V59.3984H524.141V60.9297ZM530.727 65H528.836V55.8672L526.047 56.8203V55.2188L530.484 53.5859H530.727V65Z" fill="#5452F6"/>
<line x1="658" y1="79.5" x2="792" y2="79.5" stroke="#65BF73" stroke-width="2"/>
<path d="M782 70L792.5 79.5L782 88.5" stroke="#65BF73" stroke-width="2" stroke-linecap="round" stroke-linejoin="round"/>
<circle cx="653.5" cy="80" r="5.5" stroke="#65BF73" stroke-width="2"/>
<path d="M716.258 59.9219H711.586V63.4219H717.047V65H709.609V53.625H716.992V55.2188H711.586V58.3594H716.258V59.9219ZM727.695 59.6094C727.695 60.6875 727.523 61.6224 727.18 62.4141C726.841 63.2005 726.365 63.8255 725.75 64.2891L727.703 65.8125L726.422 66.9688L724 65.0547C723.682 65.1224 723.341 65.1562 722.977 65.1562C722.06 65.1562 721.24 64.9323 720.516 64.4844C719.797 64.0312 719.24 63.388 718.844 62.5547C718.453 61.7214 718.255 60.7604 718.25 59.6719V59.0312C718.25 57.9219 718.445 56.9427 718.836 56.0938C719.232 55.2448 719.786 54.5964 720.5 54.1484C721.219 53.6953 722.039 53.4688 722.961 53.4688C723.898 53.4688 724.724 53.6927 725.438 54.1406C726.156 54.5833 726.711 55.224 727.102 56.0625C727.492 56.8958 727.69 57.8672 727.695 58.9766V59.6094ZM725.711 59.0156C725.711 57.7344 725.471 56.763 724.992 56.1016C724.513 55.4401 723.836 55.1094 722.961 55.1094C722.112 55.1094 721.445 55.4453 720.961 56.1172C720.482 56.7839 720.237 57.7266 720.227 58.9453V59.6094C720.227 60.8385 720.466 61.7995 720.945 62.4922C721.43 63.1849 722.107 63.5312 722.977 63.5312C723.857 63.5312 724.531 63.1979 725 62.5312C725.474 61.8646 725.711 60.8906 725.711 59.6094V59.0156Z" fill="#65BF73"/>
<g filter="url(#filter2_d)">
<path d="M801 48C801 43.5817 804.582 40 809 40H1022C1026.42 40 1030 43.5817 1030 48V80H801V48Z" fill="white"/>
<path d="M809 40.5H1022C1026.14 40.5 1029.5 43.8579 1029.5 48V79.5H801.5V48C801.5 43.8579 804.858 40.5 809 40.5Z" stroke="#5452F6"/>
</g>
<g filter="url(#filter3_d)">
<path d="M801 79H1030V95C1030 99.4183 1026.42 103 1022 103H809C804.582 103 801 99.4183 801 95V79Z" fill="#EEEEFF"/>
<path d="M801.5 79.5H1029.5V95C1029.5 99.1421 1026.14 102.5 1022 102.5H809C804.858 102.5 801.5 99.1421 801.5 95V79.5Z" stroke="#5452F6"/>
</g>
<path d="M887.164 60.8594C887.164 62.1719 886.87 63.2161 886.281 63.9922C885.698 64.7682 884.893 65.1562 883.867 65.1562C882.878 65.1562 882.107 64.7995 881.555 64.0859L881.461 65H879.742V53H881.641V57.3594C882.188 56.7135 882.924 56.3906 883.852 56.3906C884.883 56.3906 885.693 56.7734 886.281 57.5391C886.87 58.3047 887.164 59.375 887.164 60.75V60.8594ZM885.266 60.6953C885.266 59.7786 885.104 59.0911 884.781 58.6328C884.458 58.1745 883.99 57.9453 883.375 57.9453C882.552 57.9453 881.974 58.3047 881.641 59.0234V62.5078C881.979 63.2422 882.562 63.6094 883.391 63.6094C883.984 63.6094 884.443 63.388 884.766 62.9453C885.089 62.5026 885.255 61.8333 885.266 60.9375V60.6953ZM888.406 60.6953C888.406 59.8672 888.57 59.1224 888.898 58.4609C889.227 57.7943 889.688 57.2839 890.281 56.9297C890.875 56.5703 891.557 56.3906 892.328 56.3906C893.469 56.3906 894.393 56.7578 895.102 57.4922C895.815 58.2266 896.201 59.2005 896.258 60.4141L896.266 60.8594C896.266 61.6927 896.104 62.4375 895.781 63.0938C895.464 63.75 895.005 64.2578 894.406 64.6172C893.812 64.9766 893.125 65.1562 892.344 65.1562C891.151 65.1562 890.195 64.7604 889.477 63.9688C888.763 63.1719 888.406 62.112 888.406 60.7891V60.6953ZM890.305 60.8594C890.305 61.7292 890.484 62.4115 890.844 62.9062C891.203 63.3958 891.703 63.6406 892.344 63.6406C892.984 63.6406 893.482 63.3906 893.836 62.8906C894.195 62.3906 894.375 61.6589 894.375 60.6953C894.375 59.8411 894.19 59.1641 893.82 58.6641C893.456 58.1641 892.958 57.9141 892.328 57.9141C891.708 57.9141 891.216 58.1615 890.852 58.6562C890.487 59.1458 890.305 59.8802 890.305 60.8594ZM897.516 60.6953C897.516 59.8672 897.68 59.1224 898.008 58.4609C898.336 57.7943 898.797 57.2839 899.391 56.9297C899.984 56.5703 900.667 56.3906 901.438 56.3906C902.578 56.3906 903.503 56.7578 904.211 57.4922C904.924 58.2266 905.31 59.2005 905.367 60.4141L905.375 60.8594C905.375 61.6927 905.214 62.4375 904.891 63.0938C904.573 63.75 904.115 64.2578 903.516 64.6172C902.922 64.9766 902.234 65.1562 901.453 65.1562C900.26 65.1562 899.305 64.7604 898.586 63.9688C897.872 63.1719 897.516 62.112 897.516 60.7891V60.6953ZM899.414 60.8594C899.414 61.7292 899.594 62.4115 899.953 62.9062C900.312 63.3958 900.812 63.6406 901.453 63.6406C902.094 63.6406 902.591 63.3906 902.945 62.8906C903.305 62.3906 903.484 61.6589 903.484 60.6953C903.484 59.8411 903.299 59.1641 902.93 58.6641C902.565 58.1641 902.068 57.9141 901.438 57.9141C900.818 57.9141 900.326 58.1615 899.961 58.6562C899.596 59.1458 899.414 59.8802 899.414 60.8594ZM909 65H907.102V53H909V65ZM921.797 60.1797H917.219V65H915.242V53.625H922.469V55.2188H917.219V58.6016H921.797V60.1797ZM928.641 65C928.557 64.8385 928.484 64.5755 928.422 64.2109C927.818 64.8411 927.078 65.1562 926.203 65.1562C925.354 65.1562 924.661 64.9141 924.125 64.4297C923.589 63.9453 923.32 63.3464 923.32 62.6328C923.32 61.7318 923.654 61.0417 924.32 60.5625C924.992 60.0781 925.951 59.8359 927.195 59.8359H928.359V59.2812C928.359 58.8438 928.237 58.4948 927.992 58.2344C927.747 57.9688 927.375 57.8359 926.875 57.8359C926.443 57.8359 926.089 57.9453 925.812 58.1641C925.536 58.3776 925.398 58.651 925.398 58.9844H923.5C923.5 58.5208 923.654 58.0885 923.961 57.6875C924.268 57.2812 924.685 56.9635 925.211 56.7344C925.742 56.5052 926.333 56.3906 926.984 56.3906C927.974 56.3906 928.763 56.6406 929.352 57.1406C929.94 57.6354 930.242 58.3333 930.258 59.2344V63.0469C930.258 63.8073 930.365 64.4141 930.578 64.8672V65H928.641ZM926.555 63.6328C926.93 63.6328 927.281 63.5417 927.609 63.3594C927.943 63.1771 928.193 62.9323 928.359 62.625V61.0312H927.336C926.633 61.0312 926.104 61.1536 925.75 61.3984C925.396 61.6432 925.219 61.9896 925.219 62.4375C925.219 62.8021 925.339 63.0938 925.578 63.3125C925.823 63.526 926.148 63.6328 926.555 63.6328ZM934.266 65H932.367V53H934.266V65ZM941.078 62.7031C941.078 62.3646 940.938 62.1068 940.656 61.9297C940.38 61.7526 939.919 61.5964 939.273 61.4609C938.628 61.3255 938.089 61.1536 937.656 60.9453C936.708 60.487 936.234 59.8229 936.234 58.9531C936.234 58.224 936.542 57.6146 937.156 57.125C937.771 56.6354 938.552 56.3906 939.5 56.3906C940.51 56.3906 941.326 56.6406 941.945 57.1406C942.57 57.6406 942.883 58.2891 942.883 59.0859H940.984C940.984 58.7214 940.849 58.4193 940.578 58.1797C940.307 57.9349 939.948 57.8125 939.5 57.8125C939.083 57.8125 938.742 57.9089 938.477 58.1016C938.216 58.2943 938.086 58.5521 938.086 58.875C938.086 59.1667 938.208 59.3932 938.453 59.5547C938.698 59.7161 939.193 59.8802 939.938 60.0469C940.682 60.2083 941.266 60.4036 941.688 60.6328C942.115 60.8568 942.43 61.1276 942.633 61.4453C942.841 61.763 942.945 62.1484 942.945 62.6016C942.945 63.362 942.63 63.9792 942 64.4531C941.37 64.9219 940.544 65.1562 939.523 65.1562C938.831 65.1562 938.214 65.0312 937.672 64.7812C937.13 64.5312 936.708 64.1875 936.406 63.75C936.104 63.3125 935.953 62.8411 935.953 62.3359H937.797C937.823 62.7839 937.992 63.1302 938.305 63.375C938.617 63.6146 939.031 63.7344 939.547 63.7344C940.047 63.7344 940.427 63.6406 940.688 63.4531C940.948 63.2604 941.078 63.0104 941.078 62.7031ZM948.328 65.1562C947.125 65.1562 946.148 64.7786 945.398 64.0234C944.654 63.263 944.281 62.2526 944.281 60.9922V60.7578C944.281 59.9141 944.443 59.1615 944.766 58.5C945.094 57.8333 945.552 57.3151 946.141 56.9453C946.729 56.5755 947.385 56.3906 948.109 56.3906C949.26 56.3906 950.148 56.7578 950.773 57.4922C951.404 58.2266 951.719 59.2656 951.719 60.6094V61.375H946.195C946.253 62.0729 946.484 62.625 946.891 63.0312C947.302 63.4375 947.818 63.6406 948.438 63.6406C949.307 63.6406 950.016 63.2891 950.562 62.5859L951.586 63.5625C951.247 64.0677 950.794 64.4609 950.227 64.7422C949.664 65.0182 949.031 65.1562 948.328 65.1562ZM948.102 57.9141C947.581 57.9141 947.159 58.0964 946.836 58.4609C946.518 58.8255 946.315 59.3333 946.227 59.9844H949.844V59.8438C949.802 59.2083 949.633 58.7292 949.336 58.4062C949.039 58.0781 948.628 57.9141 948.102 57.9141Z" fill="#5452F6"/>
<g filter="url(#filter4_d)">
<path d="M0 8C0 3.58172 3.58172 0 8 0H221C225.418 0 229 3.58172 229 8V80H0V8Z" fill="white"/>
<path d="M8 0.5H221C225.142 0.5 228.5 3.85787 228.5 8V79.5H0.5V8C0.5 3.85787 3.85786 0.5 8 0.5Z" stroke="#5452F6"/>
</g>
<g filter="url(#filter5_d)">
<path d="M0 79H229V95C229 99.4183 225.418 103 221 103H8.00001C3.58173 103 0 99.4183 0 95V79Z" fill="#EEEEFF"/>
<path d="M0.5 79.5H228.5V95C228.5 99.1421 225.142 102.5 221 102.5H8.00001C3.85787 102.5 0.5 99.1421 0.5 95V79.5Z" stroke="#5452F6"/>
</g>
<line x1="0.5" y1="39.5" x2="228.5" y2="39.5" stroke="#5452F6"/>
<path d="M99.25 56.5469L99.3047 57.5234C99.9297 56.7682 100.75 56.3906 101.766 56.3906C103.526 56.3906 104.422 57.3984 104.453 59.4141V65H102.555V59.5234C102.555 58.987 102.438 58.5911 102.203 58.3359C101.974 58.0755 101.596 57.9453 101.07 57.9453C100.305 57.9453 99.7344 58.2917 99.3594 58.9844V65H97.4609V56.5469H99.25ZM111.445 65C111.362 64.8385 111.289 64.5755 111.227 64.2109C110.622 64.8411 109.883 65.1562 109.008 65.1562C108.159 65.1562 107.466 64.9141 106.93 64.4297C106.393 63.9453 106.125 63.3464 106.125 62.6328C106.125 61.7318 106.458 61.0417 107.125 60.5625C107.797 60.0781 108.755 59.8359 110 59.8359H111.164V59.2812C111.164 58.8438 111.042 58.4948 110.797 58.2344C110.552 57.9688 110.18 57.8359 109.68 57.8359C109.247 57.8359 108.893 57.9453 108.617 58.1641C108.341 58.3776 108.203 58.651 108.203 58.9844H106.305C106.305 58.5208 106.458 58.0885 106.766 57.6875C107.073 57.2812 107.49 56.9635 108.016 56.7344C108.547 56.5052 109.138 56.3906 109.789 56.3906C110.779 56.3906 111.568 56.6406 112.156 57.1406C112.745 57.6354 113.047 58.3333 113.062 59.2344V63.0469C113.062 63.8073 113.169 64.4141 113.383 64.8672V65H111.445ZM109.359 63.6328C109.734 63.6328 110.086 63.5417 110.414 63.3594C110.747 63.1771 110.997 62.9323 111.164 62.625V61.0312H110.141C109.438 61.0312 108.909 61.1536 108.555 61.3984C108.201 61.6432 108.023 61.9896 108.023 62.4375C108.023 62.8021 108.143 63.0938 108.383 63.3125C108.628 63.526 108.953 63.6328 109.359 63.6328ZM117.43 54.4922V56.5469H118.922V57.9531H117.43V62.6719C117.43 62.9948 117.492 63.2292 117.617 63.375C117.747 63.5156 117.977 63.5859 118.305 63.5859C118.523 63.5859 118.745 63.5599 118.969 63.5078V64.9766C118.536 65.0964 118.12 65.1562 117.719 65.1562C116.26 65.1562 115.531 64.3516 115.531 62.7422V57.9531H114.141V56.5469H115.531V54.4922H117.43ZM130.148 53.5703V55.1406H129.914C128.852 55.1562 128.003 55.4479 127.367 56.0156C126.732 56.5833 126.354 57.388 126.234 58.4297C126.844 57.7891 127.622 57.4688 128.57 57.4688C129.576 57.4688 130.367 57.8229 130.945 58.5312C131.529 59.2396 131.82 60.1536 131.82 61.2734C131.82 62.4297 131.479 63.3672 130.797 64.0859C130.12 64.7995 129.229 65.1562 128.125 65.1562C126.99 65.1562 126.068 64.737 125.359 63.8984C124.656 63.0599 124.305 61.9609 124.305 60.6016V59.9531C124.305 57.9583 124.789 56.3958 125.758 55.2656C126.732 54.1354 128.13 53.5703 129.953 53.5703H130.148ZM128.109 59C127.693 59 127.31 59.1172 126.961 59.3516C126.617 59.5859 126.365 59.8984 126.203 60.2891V60.8672C126.203 61.7109 126.38 62.3828 126.734 62.8828C127.089 63.3776 127.547 63.625 128.109 63.625C128.672 63.625 129.117 63.4141 129.445 62.9922C129.773 62.5703 129.938 62.0156 129.938 61.3281C129.938 60.6406 129.771 60.0807 129.438 59.6484C129.104 59.2161 128.661 59 128.109 59Z" fill="#5452F6"/>
<path d="M99.25 16.5469L99.3047 17.5234C99.9297 16.7682 100.75 16.3906 101.766 16.3906C103.526 16.3906 104.422 17.3984 104.453 19.4141V25H102.555V19.5234C102.555 18.987 102.438 18.5911 102.203 18.3359C101.974 18.0755 101.596 17.9453 101.07 17.9453C100.305 17.9453 99.7344 18.2917 99.3594 18.9844V25H97.4609V16.5469H99.25ZM111.445 25C111.362 24.8385 111.289 24.5755 111.227 24.2109C110.622 24.8411 109.883 25.1562 109.008 25.1562C108.159 25.1562 107.466 24.9141 106.93 24.4297C106.393 23.9453 106.125 23.3464 106.125 22.6328C106.125 21.7318 106.458 21.0417 107.125 20.5625C107.797 20.0781 108.755 19.8359 110 19.8359H111.164V19.2812C111.164 18.8438 111.042 18.4948 110.797 18.2344C110.552 17.9688 110.18 17.8359 109.68 17.8359C109.247 17.8359 108.893 17.9453 108.617 18.1641C108.341 18.3776 108.203 18.651 108.203 18.9844H106.305C106.305 18.5208 106.458 18.0885 106.766 17.6875C107.073 17.2812 107.49 16.9635 108.016 16.7344C108.547 16.5052 109.138 16.3906 109.789 16.3906C110.779 16.3906 111.568 16.6406 112.156 17.1406C112.745 17.6354 113.047 18.3333 113.062 19.2344V23.0469C113.062 23.8073 113.169 24.4141 113.383 24.8672V25H111.445ZM109.359 23.6328C109.734 23.6328 110.086 23.5417 110.414 23.3594C110.747 23.1771 110.997 22.9323 111.164 22.625V21.0312H110.141C109.438 21.0312 108.909 21.1536 108.555 21.3984C108.201 21.6432 108.023 21.9896 108.023 22.4375C108.023 22.8021 108.143 23.0938 108.383 23.3125C108.628 23.526 108.953 23.6328 109.359 23.6328ZM117.43 14.4922V16.5469H118.922V17.9531H117.43V22.6719C117.43 22.9948 117.492 23.2292 117.617 23.375C117.747 23.5156 117.977 23.5859 118.305 23.5859C118.523 23.5859 118.745 23.5599 118.969 23.5078V24.9766C118.536 25.0964 118.12 25.1562 117.719 25.1562C116.26 25.1562 115.531 24.3516 115.531 22.7422V17.9531H114.141V16.5469H115.531V14.4922H117.43ZM126.438 18.4453H127.594C128.177 18.4401 128.638 18.2891 128.977 17.9922C129.32 17.6953 129.492 17.2656 129.492 16.7031C129.492 16.1615 129.349 15.7422 129.062 15.4453C128.781 15.1432 128.349 14.9922 127.766 14.9922C127.255 14.9922 126.836 15.1406 126.508 15.4375C126.18 15.7292 126.016 16.112 126.016 16.5859H124.117C124.117 16.0026 124.271 15.4714 124.578 14.9922C124.891 14.513 125.323 14.1406 125.875 13.875C126.432 13.6042 127.055 13.4688 127.742 13.4688C128.878 13.4688 129.768 13.7552 130.414 14.3281C131.065 14.8958 131.391 15.6875 131.391 16.7031C131.391 17.2135 131.227 17.6953 130.898 18.1484C130.576 18.5964 130.156 18.9349 129.641 19.1641C130.266 19.3776 130.74 19.7135 131.062 20.1719C131.391 20.6302 131.555 21.1771 131.555 21.8125C131.555 22.8333 131.203 23.6458 130.5 24.25C129.802 24.8542 128.883 25.1562 127.742 25.1562C126.648 25.1562 125.753 24.8646 125.055 24.2812C124.357 23.6979 124.008 22.9219 124.008 21.9531H125.906C125.906 22.4531 126.073 22.8594 126.406 23.1719C126.745 23.4844 127.198 23.6406 127.766 23.6406C128.354 23.6406 128.818 23.4844 129.156 23.1719C129.495 22.8594 129.664 22.4062 129.664 21.8125C129.664 21.2135 129.487 20.7526 129.133 20.4297C128.779 20.1068 128.253 19.9453 127.555 19.9453H126.438V18.4453Z" fill="#5452F6"/>
<defs>
<filter id="filter0_d" x="401" y="40" width="233" height="44" filterUnits="userSpaceOnUse" color-interpolation-filters="sRGB">
<feFlood flood-opacity="0" result="BackgroundImageFix"/>
<feColorMatrix in="SourceAlpha" type="matrix" values="0 0 0 0 0 0 0 0 0 0 0 0 0 0 0 0 0 0 127 0"/>
<feOffset dx="4" dy="4"/>
<feColorMatrix type="matrix" values="0 0 0 0 0.674908 0 0 0 0 0.662083 0 0 0 0 0.945833 0 0 0 1 0"/>
<feBlend mode="normal" in2="BackgroundImageFix" result="effect1_dropShadow"/>
<feBlend mode="normal" in="SourceGraphic" in2="effect1_dropShadow" result="shape"/>
</filter>
<filter id="filter1_d" x="401" y="79" width="233" height="28" filterUnits="userSpaceOnUse" color-interpolation-filters="sRGB">
<feFlood flood-opacity="0" result="BackgroundImageFix"/>
<feColorMatrix in="SourceAlpha" type="matrix" values="0 0 0 0 0 0 0 0 0 0 0 0 0 0 0 0 0 0 127 0"/>
<feOffset dx="4" dy="4"/>
<feColorMatrix type="matrix" values="0 0 0 0 0.674908 0 0 0 0 0.662083 0 0 0 0 0.945833 0 0 0 1 0"/>
<feBlend mode="normal" in2="BackgroundImageFix" result="effect1_dropShadow"/>
<feBlend mode="normal" in="SourceGraphic" in2="effect1_dropShadow" result="shape"/>
</filter>
<filter id="filter2_d" x="801" y="40" width="233" height="44" filterUnits="userSpaceOnUse" color-interpolation-filters="sRGB">
<feFlood flood-opacity="0" result="BackgroundImageFix"/>
<feColorMatrix in="SourceAlpha" type="matrix" values="0 0 0 0 0 0 0 0 0 0 0 0 0 0 0 0 0 0 127 0"/>
<feOffset dx="4" dy="4"/>
<feColorMatrix type="matrix" values="0 0 0 0 0.674908 0 0 0 0 0.662083 0 0 0 0 0.945833 0 0 0 1 0"/>
<feBlend mode="normal" in2="BackgroundImageFix" result="effect1_dropShadow"/>
<feBlend mode="normal" in="SourceGraphic" in2="effect1_dropShadow" result="shape"/>
</filter>
<filter id="filter3_d" x="801" y="79" width="233" height="28" filterUnits="userSpaceOnUse" color-interpolation-filters="sRGB">
<feFlood flood-opacity="0" result="BackgroundImageFix"/>
<feColorMatrix in="SourceAlpha" type="matrix" values="0 0 0 0 0 0 0 0 0 0 0 0 0 0 0 0 0 0 127 0"/>
<feOffset dx="4" dy="4"/>
<feColorMatrix type="matrix" values="0 0 0 0 0.674908 0 0 0 0 0.662083 0 0 0 0 0.945833 0 0 0 1 0"/>
<feBlend mode="normal" in2="BackgroundImageFix" result="effect1_dropShadow"/>
<feBlend mode="normal" in="SourceGraphic" in2="effect1_dropShadow" result="shape"/>
</filter>
<filter id="filter4_d" x="0" y="0" width="233" height="84" filterUnits="userSpaceOnUse" color-interpolation-filters="sRGB">
<feFlood flood-opacity="0" result="BackgroundImageFix"/>
<feColorMatrix in="SourceAlpha" type="matrix" values="0 0 0 0 0 0 0 0 0 0 0 0 0 0 0 0 0 0 127 0"/>
<feOffset dx="4" dy="4"/>
<feColorMatrix type="matrix" values="0 0 0 0 0.674908 0 0 0 0 0.662083 0 0 0 0 0.945833 0 0 0 1 0"/>
<feBlend mode="normal" in2="BackgroundImageFix" result="effect1_dropShadow"/>
<feBlend mode="normal" in="SourceGraphic" in2="effect1_dropShadow" result="shape"/>
</filter>
<filter id="filter5_d" x="0" y="79" width="233" height="28" filterUnits="userSpaceOnUse" color-interpolation-filters="sRGB">
<feFlood flood-opacity="0" result="BackgroundImageFix"/>
<feColorMatrix in="SourceAlpha" type="matrix" values="0 0 0 0 0 0 0 0 0 0 0 0 0 0 0 0 0 0 127 0"/>
<feOffset dx="4" dy="4"/>
<feColorMatrix type="matrix" values="0 0 0 0 0.674908 0 0 0 0 0.662083 0 0 0 0 0.945833 0 0 0 1 0"/>
<feBlend mode="normal" in2="BackgroundImageFix" result="effect1_dropShadow"/>
<feBlend mode="normal" in="SourceGraphic" in2="effect1_dropShadow" result="shape"/>
</filter>
</defs>
</svg>
