<svg width="1033" height="68" viewBox="0 0 1033 68" fill="none" xmlns="http://www.w3.org/2000/svg">
<line x1="252" y1="40.5" x2="386" y2="40.5" stroke="#65BF73" stroke-width="2"/>
<path d="M376 31L386.5 40.5L376 49.5" stroke="#65BF73" stroke-width="2" stroke-linecap="round" stroke-linejoin="round"/>
<circle cx="247.5" cy="41" r="5.5" stroke="#65BF73" stroke-width="2"/>
<path d="M274.305 21.7734V26H272.328V14.625H276.68C277.951 14.625 278.958 14.9557 279.703 15.6172C280.453 16.2786 280.828 17.1536 280.828 18.2422C280.828 19.3568 280.461 20.224 279.727 20.8438C278.997 21.4635 277.974 21.7734 276.656 21.7734H274.305ZM274.305 20.1875H276.68C277.383 20.1875 277.919 20.0234 278.289 19.6953C278.659 19.362 278.844 18.8828 278.844 18.2578C278.844 17.6432 278.656 17.1536 278.281 16.7891C277.906 16.4193 277.391 16.2292 276.734 16.2188H274.305V20.1875ZM290.883 14.625V22.2266C290.883 23.4349 290.495 24.3932 289.719 25.1016C288.948 25.8047 287.919 26.1562 286.633 26.1562C285.331 26.1562 284.297 25.8099 283.531 25.1172C282.766 24.4193 282.383 23.4531 282.383 22.2188V14.625H284.352V22.2344C284.352 22.9948 284.544 23.5755 284.93 23.9766C285.315 24.3776 285.883 24.5781 286.633 24.5781C288.154 24.5781 288.914 23.776 288.914 22.1719V14.625H290.883ZM298.945 23.0703C298.945 22.5703 298.768 22.1849 298.414 21.9141C298.065 21.6432 297.432 21.3698 296.516 21.0938C295.599 20.8177 294.87 20.5104 294.328 20.1719C293.292 19.5208 292.773 18.6719 292.773 17.625C292.773 16.7083 293.146 15.9531 293.891 15.3594C294.641 14.7656 295.612 14.4688 296.805 14.4688C297.596 14.4688 298.302 14.6146 298.922 14.9062C299.542 15.1979 300.029 15.6146 300.383 16.1562C300.737 16.6927 300.914 17.2891 300.914 17.9453H298.945C298.945 17.3516 298.758 16.888 298.383 16.5547C298.013 16.2161 297.482 16.0469 296.789 16.0469C296.143 16.0469 295.641 16.1849 295.281 16.4609C294.927 16.737 294.75 17.1224 294.75 17.6172C294.75 18.0339 294.943 18.3828 295.328 18.6641C295.714 18.9401 296.349 19.2109 297.234 19.4766C298.12 19.737 298.831 20.0365 299.367 20.375C299.904 20.7083 300.297 21.0938 300.547 21.5312C300.797 21.9635 300.922 22.4714 300.922 23.0547C300.922 24.0026 300.557 24.7578 299.828 25.3203C299.104 25.8776 298.12 26.1562 296.875 26.1562C296.052 26.1562 295.294 26.0052 294.602 25.7031C293.914 25.3958 293.378 24.974 292.992 24.4375C292.612 23.901 292.422 23.276 292.422 22.5625H294.398C294.398 23.2083 294.612 23.7083 295.039 24.0625C295.466 24.4167 296.078 24.5938 296.875 24.5938C297.562 24.5938 298.078 24.4557 298.422 24.1797C298.771 23.8984 298.945 23.5286 298.945 23.0703ZM311.688 26H309.719V20.9453H304.633V26H302.656V14.625H304.633V19.3594H309.719V14.625H311.688V26ZM319.594 17.5469L319.648 18.5234C320.273 17.7682 321.094 17.3906 322.109 17.3906C323.87 17.3906 324.766 18.3984 324.797 20.4141V26H322.898V20.5234C322.898 19.987 322.781 19.5911 322.547 19.3359C322.318 19.0755 321.94 18.9453 321.414 18.9453C320.648 18.9453 320.078 19.2917 319.703 19.9844V26H317.805V17.5469H319.594ZM331.789 26C331.706 25.8385 331.633 25.5755 331.57 25.2109C330.966 25.8411 330.227 26.1562 329.352 26.1562C328.503 26.1562 327.81 25.9141 327.273 25.4297C326.737 24.9453 326.469 24.3464 326.469 23.6328C326.469 22.7318 326.802 22.0417 327.469 21.5625C328.141 21.0781 329.099 20.8359 330.344 20.8359H331.508V20.2812C331.508 19.8438 331.385 19.4948 331.141 19.2344C330.896 18.9688 330.523 18.8359 330.023 18.8359C329.591 18.8359 329.237 18.9453 328.961 19.1641C328.685 19.3776 328.547 19.651 328.547 19.9844H326.648C326.648 19.5208 326.802 19.0885 327.109 18.6875C327.417 18.2812 327.833 17.9635 328.359 17.7344C328.891 17.5052 329.482 17.3906 330.133 17.3906C331.122 17.3906 331.911 17.6406 332.5 18.1406C333.089 18.6354 333.391 19.3333 333.406 20.2344V24.0469C333.406 24.8073 333.513 25.4141 333.727 25.8672V26H331.789ZM329.703 24.6328C330.078 24.6328 330.43 24.5417 330.758 24.3594C331.091 24.1771 331.341 23.9323 331.508 23.625V22.0312H330.484C329.781 22.0312 329.253 22.1536 328.898 22.3984C328.544 22.6432 328.367 22.9896 328.367 23.4375C328.367 23.8021 328.487 24.0938 328.727 24.3125C328.971 24.526 329.297 24.6328 329.703 24.6328ZM337.773 15.4922V17.5469H339.266V18.9531H337.773V23.6719C337.773 23.9948 337.836 24.2292 337.961 24.375C338.091 24.5156 338.32 24.5859 338.648 24.5859C338.867 24.5859 339.089 24.5599 339.312 24.5078V25.9766C338.88 26.0964 338.464 26.1562 338.062 26.1562C336.604 26.1562 335.875 25.3516 335.875 23.7422V18.9531H334.484V17.5469H335.875V15.4922H337.773ZM349.727 26H347.836V16.8672L345.047 17.8203V16.2188L349.484 14.5859H349.727V26Z" fill="#65BF73"/>
<line x1="652" y1="40.5" x2="786" y2="40.5" stroke="#65BF73" stroke-width="2"/>
<path d="M776 31L786.5 40.5L776 49.5" stroke="#65BF73" stroke-width="2" stroke-linecap="round" stroke-linejoin="round"/>
<circle cx="647.5" cy="41" r="5.5" stroke="#65BF73" stroke-width="2"/>
<path d="M692.297 26V14.625H695.656C696.661 14.625 697.552 14.849 698.328 15.2969C699.109 15.7448 699.714 16.3802 700.141 17.2031C700.568 18.026 700.781 18.9688 700.781 20.0312V20.6016C700.781 21.6797 700.565 22.6276 700.133 23.4453C699.706 24.263 699.094 24.8932 698.297 25.3359C697.505 25.7786 696.596 26 695.57 26H692.297ZM694.273 16.2188V24.4219H695.562C696.599 24.4219 697.393 24.099 697.945 23.4531C698.503 22.8021 698.786 21.8698 698.797 20.6562V20.0234C698.797 18.7891 698.529 17.8464 697.992 17.1953C697.456 16.5443 696.677 16.2188 695.656 16.2188H694.273ZM706.93 21.6172H704.727V26H702.75V14.625H706.75C708.062 14.625 709.076 14.9193 709.789 15.5078C710.503 16.0964 710.859 16.9479 710.859 18.0625C710.859 18.8229 710.674 19.4609 710.305 19.9766C709.94 20.487 709.43 20.8802 708.773 21.1562L711.328 25.8984V26H709.211L706.93 21.6172ZM704.727 20.0312H706.758C707.424 20.0312 707.945 19.8646 708.32 19.5312C708.695 19.1927 708.883 18.7318 708.883 18.1484C708.883 17.5391 708.708 17.0677 708.359 16.7344C708.016 16.401 707.5 16.2292 706.812 16.2188H704.727V20.0312ZM721.812 20.6094C721.812 21.724 721.62 22.7031 721.234 23.5469C720.849 24.3854 720.297 25.0312 719.578 25.4844C718.865 25.9323 718.042 26.1562 717.109 26.1562C716.188 26.1562 715.365 25.9323 714.641 25.4844C713.922 25.0312 713.365 24.388 712.969 23.5547C712.578 22.7214 712.38 21.7604 712.375 20.6719V20.0312C712.375 18.9219 712.57 17.9427 712.961 17.0938C713.357 16.2448 713.911 15.5964 714.625 15.1484C715.344 14.6953 716.167 14.4688 717.094 14.4688C718.021 14.4688 718.841 14.6927 719.555 15.1406C720.273 15.5833 720.828 16.224 721.219 17.0625C721.609 17.8958 721.807 18.8672 721.812 19.9766V20.6094ZM719.836 20.0156C719.836 18.7552 719.596 17.7891 719.117 17.1172C718.643 16.4453 717.969 16.1094 717.094 16.1094C716.24 16.1094 715.57 16.4453 715.086 17.1172C714.607 17.7839 714.362 18.7292 714.352 19.9531V20.6094C714.352 21.8594 714.594 22.8255 715.078 23.5078C715.568 24.1901 716.245 24.5312 717.109 24.5312C717.984 24.5312 718.656 24.1979 719.125 23.5312C719.599 22.8646 719.836 21.8906 719.836 20.6094V20.0156ZM725.758 21.7734V26H723.781V14.625H728.133C729.404 14.625 730.411 14.9557 731.156 15.6172C731.906 16.2786 732.281 17.1536 732.281 18.2422C732.281 19.3568 731.914 20.224 731.18 20.8438C730.451 21.4635 729.427 21.7734 728.109 21.7734H725.758ZM725.758 20.1875H728.133C728.836 20.1875 729.372 20.0234 729.742 19.6953C730.112 19.362 730.297 18.8828 730.297 18.2578C730.297 17.6432 730.109 17.1536 729.734 16.7891C729.359 16.4193 728.844 16.2292 728.188 16.2188H725.758V20.1875Z" fill="#65BF73"/>
<g filter="url(#filter0_d)">
<path d="M400 8C400 3.58172 403.582 0 408 0H621C625.418 0 629 3.58172 629 8V41H400V8Z" fill="white"/>
<path d="M408 0.5H621C625.142 0.5 628.5 3.85786 628.5 8V40.5H400.5V8C400.5 3.85786 403.858 0.5 408 0.5Z" stroke="#5452F6"/>
</g>
<g filter="url(#filter1_d)">
<path d="M400 40H629V56C629 60.4183 625.418 64 621 64H408C403.582 64 400 60.4183 400 56V40Z" fill="#EEEEFF"/>
<path d="M400.5 40.5H628.5V56C628.5 60.1421 625.142 63.5 621 63.5H408C403.858 63.5 400.5 60.1421 400.5 56V40.5Z" stroke="#5452F6"/>
</g>
<path d="M499.25 18.5469L499.305 19.5234C499.93 18.7682 500.75 18.3906 501.766 18.3906C503.526 18.3906 504.422 19.3984 504.453 21.4141V27H502.555V21.5234C502.555 20.987 502.438 20.5911 502.203 20.3359C501.974 20.0755 501.596 19.9453 501.07 19.9453C500.305 19.9453 499.734 20.2917 499.359 20.9844V27H497.461V18.5469H499.25ZM511.445 27C511.362 26.8385 511.289 26.5755 511.227 26.2109C510.622 26.8411 509.883 27.1562 509.008 27.1562C508.159 27.1562 507.466 26.9141 506.93 26.4297C506.393 25.9453 506.125 25.3464 506.125 24.6328C506.125 23.7318 506.458 23.0417 507.125 22.5625C507.797 22.0781 508.755 21.8359 510 21.8359H511.164V21.2812C511.164 20.8438 511.042 20.4948 510.797 20.2344C510.552 19.9688 510.18 19.8359 509.68 19.8359C509.247 19.8359 508.893 19.9453 508.617 20.1641C508.341 20.3776 508.203 20.651 508.203 20.9844H506.305C506.305 20.5208 506.458 20.0885 506.766 19.6875C507.073 19.2812 507.49 18.9635 508.016 18.7344C508.547 18.5052 509.138 18.3906 509.789 18.3906C510.779 18.3906 511.568 18.6406 512.156 19.1406C512.745 19.6354 513.047 20.3333 513.062 21.2344V25.0469C513.062 25.8073 513.169 26.4141 513.383 26.8672V27H511.445ZM509.359 25.6328C509.734 25.6328 510.086 25.5417 510.414 25.3594C510.747 25.1771 510.997 24.9323 511.164 24.625V23.0312H510.141C509.438 23.0312 508.909 23.1536 508.555 23.3984C508.201 23.6432 508.023 23.9896 508.023 24.4375C508.023 24.8021 508.143 25.0938 508.383 25.3125C508.628 25.526 508.953 25.6328 509.359 25.6328ZM517.43 16.4922V18.5469H518.922V19.9531H517.43V24.6719C517.43 24.9948 517.492 25.2292 517.617 25.375C517.747 25.5156 517.977 25.5859 518.305 25.5859C518.523 25.5859 518.745 25.5599 518.969 25.5078V26.9766C518.536 27.0964 518.12 27.1562 517.719 27.1562C516.26 27.1562 515.531 26.3516 515.531 24.7422V19.9531H514.141V18.5469H515.531V16.4922H517.43ZM529.383 27H527.492V17.8672L524.703 18.8203V17.2188L529.141 15.5859H529.383V27Z" fill="#FF5A43"/>
<g filter="url(#filter2_d)">
<path d="M0 39C0 34.5817 3.58172 31 8 31H221C225.418 31 229 34.5817 229 39V41H0V39Z" fill="white"/>
<path d="M8 31.5H221C225.142 31.5 228.5 34.8579 228.5 39V40.5H0.5V39C0.5 34.8579 3.85786 31.5 8 31.5Z" stroke="#5452F6"/>
</g>
<g filter="url(#filter3_d)">
<path d="M0 40H229V56C229 60.4183 225.418 64 221 64H8.00001C3.58173 64 0 60.4183 0 56V40Z" fill="#EEEEFF"/>
<path d="M0.5 40.5H228.5V56C228.5 60.1421 225.142 63.5 221 63.5H8.00001C3.85787 63.5 0.5 60.1421 0.5 56V40.5Z" stroke="#5452F6"/>
</g>
<g filter="url(#filter4_d)">
<path d="M800 39C800 34.5817 803.582 31 808 31H1021C1025.42 31 1029 34.5817 1029 39V41H800V39Z" fill="white"/>
<path d="M808 31.5H1021C1025.14 31.5 1028.5 34.8579 1028.5 39V40.5H800.5V39C800.5 34.8579 803.858 31.5 808 31.5Z" stroke="#5452F6"/>
</g>
<g filter="url(#filter5_d)">
<path d="M800 40H1029V56C1029 60.4183 1025.42 64 1021 64H808C803.582 64 800 60.4183 800 56V40Z" fill="#EEEEFF"/>
<path d="M800.5 40.5H1028.5V56C1028.5 60.1421 1025.14 63.5 1021 63.5H808C803.858 63.5 800.5 60.1421 800.5 56V40.5Z" stroke="#5452F6"/>
</g>
<defs>
<filter id="filter0_d" x="400" y="0" width="233" height="45" filterUnits="userSpaceOnUse" color-interpolation-filters="sRGB">
<feFlood flood-opacity="0" result="BackgroundImageFix"/>
<feColorMatrix in="SourceAlpha" type="matrix" values="0 0 0 0 0 0 0 0 0 0 0 0 0 0 0 0 0 0 127 0"/>
<feOffset dx="4" dy="4"/>
<feColorMatrix type="matrix" values="0 0 0 0 0.674908 0 0 0 0 0.662083 0 0 0 0 0.945833 0 0 0 1 0"/>
<feBlend mode="normal" in2="BackgroundImageFix" result="effect1_dropShadow"/>
<feBlend mode="normal" in="SourceGraphic" in2="effect1_dropShadow" result="shape"/>
</filter>
<filter id="filter1_d" x="400" y="40" width="233" height="28" filterUnits="userSpaceOnUse" color-interpolation-filters="sRGB">
<feFlood flood-opacity="0" result="BackgroundImageFix"/>
<feColorMatrix in="SourceAlpha" type="matrix" values="0 0 0 0 0 0 0 0 0 0 0 0 0 0 0 0 0 0 127 0"/>
<feOffset dx="4" dy="4"/>
<feColorMatrix type="matrix" values="0 0 0 0 0.674908 0 0 0 0 0.662083 0 0 0 0 0.945833 0 0 0 1 0"/>
<feBlend mode="normal" in2="BackgroundImageFix" result="effect1_dropShadow"/>
<feBlend mode="normal" in="SourceGraphic" in2="effect1_dropShadow" result="shape"/>
</filter>
<filter id="filter2_d" x="0" y="31" width="233" height="14" filterUnits="userSpaceOnUse" color-interpolation-filters="sRGB">
<feFlood flood-opacity="0" result="BackgroundImageFix"/>
<feColorMatrix in="SourceAlpha" type="matrix" values="0 0 0 0 0 0 0 0 0 0 0 0 0 0 0 0 0 0 127 0"/>
<feOffset dx="4" dy="4"/>
<feColorMatrix type="matrix" values="0 0 0 0 0.674908 0 0 0 0 0.662083 0 0 0 0 0.945833 0 0 0 1 0"/>
<feBlend mode="normal" in2="BackgroundImageFix" result="effect1_dropShadow"/>
<feBlend mode="normal" in="SourceGraphic" in2="effect1_dropShadow" result="shape"/>
</filter>
<filter id="filter3_d" x="0" y="40" width="233" height="28" filterUnits="userSpaceOnUse" color-interpolation-filters="sRGB">
<feFlood flood-opacity="0" result="BackgroundImageFix"/>
<feColorMatrix in="SourceAlpha" type="matrix" values="0 0 0 0 0 0 0 0 0 0 0 0 0 0 0 0 0 0 127 0"/>
<feOffset dx="4" dy="4"/>
<feColorMatrix type="matrix" values="0 0 0 0 0.674908 0 0 0 0 0.662083 0 0 0 0 0.945833 0 0 0 1 0"/>
<feBlend mode="normal" in2="BackgroundImageFix" result="effect1_dropShadow"/>
<feBlend mode="normal" in="SourceGraphic" in2="effect1_dropShadow" result="shape"/>
</filter>
<filter id="filter4_d" x="800" y="31" width="233" height="14" filterUnits="userSpaceOnUse" color-interpolation-filters="sRGB">
<feFlood flood-opacity="0" result="BackgroundImageFix"/>
<feColorMatrix in="SourceAlpha" type="matrix" values="0 0 0 0 0 0 0 0 0 0 0 0 0 0 0 0 0 0 127 0"/>
<feOffset dx="4" dy="4"/>
<feColorMatrix type="matrix" values="0 0 0 0 0.674908 0 0 0 0 0.662083 0 0 0 0 0.945833 0 0 0 1 0"/>
<feBlend mode="normal" in2="BackgroundImageFix" result="effect1_dropShadow"/>
<feBlend mode="normal" in="SourceGraphic" in2="effect1_dropShadow" result="shape"/>
</filter>
<filter id="filter5_d" x="800" y="40" width="233" height="28" filterUnits="userSpaceOnUse" color-interpolation-filters="sRGB">
<feFlood flood-opacity="0" result="BackgroundImageFix"/>
<feColorMatrix in="SourceAlpha" type="matrix" values="0 0 0 0 0 0 0 0 0 0 0 0 0 0 0 0 0 0 127 0"/>
<feOffset dx="4" dy="4"/>
<feColorMatrix type="matrix" values="0 0 0 0 0.674908 0 0 0 0 0.662083 0 0 0 0 0.945833 0 0 0 1 0"/>
<feBlend mode="normal" in2="BackgroundImageFix" result="effect1_dropShadow"/>
<feBlend mode="normal" in="SourceGraphic" in2="effect1_dropShadow" result="shape"/>
</filter>
</defs>
</svg>
