<svg width="633" height="147" viewBox="0 0 633 147" fill="none" xmlns="http://www.w3.org/2000/svg">
<line x1="252" y1="119.5" x2="386" y2="119.5" stroke="#65BF73" stroke-width="2"/>
<path d="M376 110L386.5 119.5L376 128.5" stroke="#65BF73" stroke-width="2" stroke-linecap="round" stroke-linejoin="round"/>
<circle cx="247.5" cy="120" r="5.5" stroke="#65BF73" stroke-width="2"/>
<path d="M291.758 93.625V101.227C291.758 102.435 291.37 103.393 290.594 104.102C289.823 104.805 288.794 105.156 287.508 105.156C286.206 105.156 285.172 104.81 284.406 104.117C283.641 103.419 283.258 102.453 283.258 101.219V93.625H285.227V101.234C285.227 101.995 285.419 102.576 285.805 102.977C286.19 103.378 286.758 103.578 287.508 103.578C289.029 103.578 289.789 102.776 289.789 101.172V93.625H291.758ZM295.852 100.773V105H293.875V93.625H298.227C299.497 93.625 300.505 93.9557 301.25 94.6172C302 95.2786 302.375 96.1536 302.375 97.2422C302.375 98.3568 302.008 99.224 301.273 99.8438C300.544 100.464 299.521 100.773 298.203 100.773H295.852ZM295.852 99.1875H298.227C298.93 99.1875 299.466 99.0234 299.836 98.6953C300.206 98.362 300.391 97.8828 300.391 97.2578C300.391 96.6432 300.203 96.1536 299.828 95.7891C299.453 95.4193 298.938 95.2292 298.281 95.2188H295.852V99.1875ZM304.109 105V93.625H307.469C308.474 93.625 309.365 93.849 310.141 94.2969C310.922 94.7448 311.526 95.3802 311.953 96.2031C312.38 97.026 312.594 97.9688 312.594 99.0312V99.6016C312.594 100.68 312.378 101.628 311.945 102.445C311.518 103.263 310.906 103.893 310.109 104.336C309.318 104.779 308.409 105 307.383 105H304.109ZM306.086 95.2188V103.422H307.375C308.411 103.422 309.206 103.099 309.758 102.453C310.315 101.802 310.599 100.87 310.609 99.6562V99.0234C310.609 97.7891 310.341 96.8464 309.805 96.1953C309.268 95.5443 308.49 95.2188 307.469 95.2188H306.086ZM320.758 102.352H316.352L315.43 105H313.375L317.672 93.625H319.445L323.75 105H321.688L320.758 102.352ZM316.906 100.758H320.203L318.555 96.0391L316.906 100.758ZM332.328 95.2188H328.781V105H326.82V95.2188H323.305V93.625H332.328V95.2188ZM340.477 99.9219H335.805V103.422H341.266V105H333.828V93.625H341.211V95.2188H335.805V98.3594H340.477V99.9219Z" fill="#65BF73"/>
<g filter="url(#filter0_d)">
<path d="M400 87C400 82.5817 403.582 79 408 79H621C625.418 79 629 82.5817 629 87V120H400V87Z" fill="white"/>
<path d="M400.5 87C400.5 82.8579 403.858 79.5 408 79.5H621C625.142 79.5 628.5 82.8579 628.5 87V119.5H400.5V87Z" stroke="#5452F6"/>
</g>
<g filter="url(#filter1_d)">
<path d="M400 119H629V135C629 139.418 625.418 143 621 143H408C403.582 143 400 139.418 400 135V119Z" fill="#EEEEFF"/>
<path d="M400.5 119.5H628.5V135C628.5 139.142 625.142 142.5 621 142.5H408C403.858 142.5 400.5 139.142 400.5 135V119.5Z" stroke="#5452F6"/>
</g>
<path d="M475.609 103.703C475.609 103.365 475.469 103.107 475.188 102.93C474.911 102.753 474.451 102.596 473.805 102.461C473.159 102.326 472.62 102.154 472.188 101.945C471.24 101.487 470.766 100.823 470.766 99.9531C470.766 99.224 471.073 98.6146 471.688 98.125C472.302 97.6354 473.083 97.3906 474.031 97.3906C475.042 97.3906 475.857 97.6406 476.477 98.1406C477.102 98.6406 477.414 99.2891 477.414 100.086H475.516C475.516 99.7214 475.38 99.4193 475.109 99.1797C474.839 98.9349 474.479 98.8125 474.031 98.8125C473.615 98.8125 473.273 98.9089 473.008 99.1016C472.747 99.2943 472.617 99.5521 472.617 99.875C472.617 100.167 472.74 100.393 472.984 100.555C473.229 100.716 473.724 100.88 474.469 101.047C475.214 101.208 475.797 101.404 476.219 101.633C476.646 101.857 476.961 102.128 477.164 102.445C477.372 102.763 477.477 103.148 477.477 103.602C477.477 104.362 477.161 104.979 476.531 105.453C475.901 105.922 475.076 106.156 474.055 106.156C473.362 106.156 472.745 106.031 472.203 105.781C471.661 105.531 471.24 105.188 470.938 104.75C470.635 104.312 470.484 103.841 470.484 103.336H472.328C472.354 103.784 472.523 104.13 472.836 104.375C473.148 104.615 473.562 104.734 474.078 104.734C474.578 104.734 474.958 104.641 475.219 104.453C475.479 104.26 475.609 104.01 475.609 103.703ZM482.859 106.156C481.656 106.156 480.68 105.779 479.93 105.023C479.185 104.263 478.812 103.253 478.812 101.992V101.758C478.812 100.914 478.974 100.161 479.297 99.5C479.625 98.8333 480.083 98.3151 480.672 97.9453C481.26 97.5755 481.917 97.3906 482.641 97.3906C483.792 97.3906 484.68 97.7578 485.305 98.4922C485.935 99.2266 486.25 100.266 486.25 101.609V102.375H480.727C480.784 103.073 481.016 103.625 481.422 104.031C481.833 104.438 482.349 104.641 482.969 104.641C483.839 104.641 484.547 104.289 485.094 103.586L486.117 104.562C485.779 105.068 485.326 105.461 484.758 105.742C484.195 106.018 483.562 106.156 482.859 106.156ZM482.633 98.9141C482.112 98.9141 481.69 99.0964 481.367 99.4609C481.049 99.8255 480.846 100.333 480.758 100.984H484.375V100.844C484.333 100.208 484.164 99.7292 483.867 99.4062C483.57 99.0781 483.159 98.9141 482.633 98.9141ZM490.109 95.4922V97.5469H491.602V98.9531H490.109V103.672C490.109 103.995 490.172 104.229 490.297 104.375C490.427 104.516 490.656 104.586 490.984 104.586C491.203 104.586 491.424 104.56 491.648 104.508V105.977C491.216 106.096 490.799 106.156 490.398 106.156C488.94 106.156 488.211 105.352 488.211 103.742V98.9531H486.82V97.5469H488.211V95.4922H490.109ZM499.062 106H497.164V97.5469H499.062V106ZM497.047 95.3516C497.047 95.0599 497.138 94.8177 497.32 94.625C497.508 94.4323 497.773 94.3359 498.117 94.3359C498.461 94.3359 498.727 94.4323 498.914 94.625C499.102 94.8177 499.195 95.0599 499.195 95.3516C499.195 95.638 499.102 95.8776 498.914 96.0703C498.727 96.2578 498.461 96.3516 498.117 96.3516C497.773 96.3516 497.508 96.2578 497.32 96.0703C497.138 95.8776 497.047 95.638 497.047 95.3516ZM502.898 97.5469L502.953 98.5234C503.578 97.7682 504.398 97.3906 505.414 97.3906C507.174 97.3906 508.07 98.3984 508.102 100.414V106H506.203V100.523C506.203 99.987 506.086 99.5911 505.852 99.3359C505.622 99.0755 505.245 98.9453 504.719 98.9453C503.953 98.9453 503.383 99.2917 503.008 99.9844V106H501.109V97.5469H502.898ZM512.422 95.4922V97.5469H513.914V98.9531H512.422V103.672C512.422 103.995 512.484 104.229 512.609 104.375C512.74 104.516 512.969 104.586 513.297 104.586C513.516 104.586 513.737 104.56 513.961 104.508V105.977C513.529 106.096 513.112 106.156 512.711 106.156C511.253 106.156 510.523 105.352 510.523 103.742V98.9531H509.133V97.5469H510.523V95.4922H512.422ZM523.141 108.812C521.302 108.297 520.365 107.122 520.328 105.289V103.625C520.328 102.453 519.826 101.867 518.82 101.867V100.477C519.826 100.477 520.328 99.888 520.328 98.7109V97.0547C520.344 96.1172 520.586 95.3594 521.055 94.7812C521.529 94.2031 522.224 93.7839 523.141 93.5234L523.516 94.6172C522.615 94.9089 522.148 95.7057 522.117 97.0078V98.6953C522.117 99.8672 521.667 100.69 520.766 101.164C521.667 101.643 522.117 102.474 522.117 103.656V105.32C522.148 106.622 522.615 107.419 523.516 107.711L523.141 108.812ZM529.75 106H527.859V96.8672L525.07 97.8203V96.2188L529.508 94.5859H529.75V106ZM534.805 97.3672C535.159 97.3672 535.432 97.4688 535.625 97.6719C535.818 97.8698 535.914 98.1198 535.914 98.4219C535.914 98.7188 535.818 98.9661 535.625 99.1641C535.432 99.3568 535.159 99.4531 534.805 99.4531C534.466 99.4531 534.198 99.3568 534 99.1641C533.802 98.9714 533.703 98.724 533.703 98.4219C533.703 98.1198 533.799 97.8698 533.992 97.6719C534.185 97.4688 534.456 97.3672 534.805 97.3672ZM534.234 108.562L533.211 107.953C533.513 107.479 533.719 107.065 533.828 106.711C533.943 106.362 534.003 106.005 534.008 105.641V104.164H535.719L535.711 105.531C535.706 106.083 535.565 106.635 535.289 107.188C535.018 107.745 534.667 108.203 534.234 108.562ZM546.883 101.242C546.247 101.914 545.505 102.25 544.656 102.25C543.656 102.25 542.859 101.901 542.266 101.203C541.672 100.5 541.375 99.5781 541.375 98.4375C541.375 97.6875 541.526 97.0078 541.828 96.3984C542.13 95.7891 542.56 95.3151 543.117 94.9766C543.674 94.638 544.32 94.4688 545.055 94.4688C546.201 94.4688 547.109 94.8958 547.781 95.75C548.453 96.6042 548.789 97.7474 548.789 99.1797V99.7109C548.789 101.763 548.326 103.328 547.398 104.406C546.471 105.484 545.089 106.031 543.25 106.047H543.023V104.477H543.297C544.417 104.461 545.276 104.193 545.875 103.672C546.474 103.146 546.81 102.336 546.883 101.242ZM545.055 100.766C545.435 100.766 545.792 100.656 546.125 100.438C546.458 100.219 546.716 99.9167 546.898 99.5312V98.7891C546.898 97.9505 546.727 97.276 546.383 96.7656C546.039 96.2552 545.594 96 545.047 96C544.5 96 544.062 96.2266 543.734 96.6797C543.411 97.1276 543.25 97.6953 543.25 98.3828C543.25 99.0964 543.414 99.6719 543.742 100.109C544.07 100.547 544.508 100.766 545.055 100.766ZM553.938 107.711C554.854 107.414 555.323 106.602 555.344 105.273V103.648C555.344 102.445 555.818 101.62 556.766 101.172C555.818 100.724 555.344 99.8906 555.344 98.6719V97.0547C555.323 95.7266 554.854 94.9141 553.938 94.6172L554.312 93.5234C555.26 93.7891 555.966 94.2214 556.43 94.8203C556.893 95.4141 557.125 96.1927 557.125 97.1562V98.7188C557.125 99.8906 557.63 100.477 558.641 100.477V101.867C557.63 101.867 557.125 102.453 557.125 103.625V105.164C557.125 106.138 556.891 106.922 556.422 107.516C555.958 108.115 555.255 108.547 554.312 108.812L553.938 107.711Z" fill="#FF5A43"/>
<g filter="url(#filter2_d)">
<path d="M0 8C0 3.58172 3.58172 0 8 0H221C225.418 0 229 3.58172 229 8V120H0V8Z" fill="white"/>
<line x1="0.5" y1="79.5" x2="228.5" y2="79.5" stroke="#5452F6"/>
<line x1="0.5" y1="39.5" x2="228.5" y2="39.5" stroke="#5452F6"/>
<path d="M65.1719 102.703C65.1719 102.365 65.0312 102.107 64.75 101.93C64.474 101.753 64.013 101.596 63.3672 101.461C62.7214 101.326 62.1823 101.154 61.75 100.945C60.8021 100.487 60.3281 99.8229 60.3281 98.9531C60.3281 98.224 60.6354 97.6146 61.25 97.125C61.8646 96.6354 62.6458 96.3906 63.5938 96.3906C64.6042 96.3906 65.4193 96.6406 66.0391 97.1406C66.6641 97.6406 66.9766 98.2891 66.9766 99.0859H65.0781C65.0781 98.7214 64.9427 98.4193 64.6719 98.1797C64.401 97.9349 64.0417 97.8125 63.5938 97.8125C63.1771 97.8125 62.8359 97.9089 62.5703 98.1016C62.3099 98.2943 62.1797 98.5521 62.1797 98.875C62.1797 99.1667 62.3021 99.3932 62.5469 99.5547C62.7917 99.7161 63.2865 99.8802 64.0312 100.047C64.776 100.208 65.3594 100.404 65.7812 100.633C66.2083 100.857 66.5234 101.128 66.7266 101.445C66.9349 101.763 67.0391 102.148 67.0391 102.602C67.0391 103.362 66.724 103.979 66.0938 104.453C65.4635 104.922 64.638 105.156 63.6172 105.156C62.9245 105.156 62.3073 105.031 61.7656 104.781C61.224 104.531 60.8021 104.188 60.5 103.75C60.1979 103.312 60.0469 102.841 60.0469 102.336H61.8906C61.9167 102.784 62.0859 103.13 62.3984 103.375C62.7109 103.615 63.125 103.734 63.6406 103.734C64.1406 103.734 64.5208 103.641 64.7812 103.453C65.0417 103.26 65.1719 103.01 65.1719 102.703ZM72.4219 105.156C71.2188 105.156 70.2422 104.779 69.4922 104.023C68.7474 103.263 68.375 102.253 68.375 100.992V100.758C68.375 99.9141 68.5365 99.1615 68.8594 98.5C69.1875 97.8333 69.6458 97.3151 70.2344 96.9453C70.8229 96.5755 71.4792 96.3906 72.2031 96.3906C73.3542 96.3906 74.2422 96.7578 74.8672 97.4922C75.4974 98.2266 75.8125 99.2656 75.8125 100.609V101.375H70.2891C70.3464 102.073 70.5781 102.625 70.9844 103.031C71.3958 103.438 71.9115 103.641 72.5312 103.641C73.401 103.641 74.1094 103.289 74.6562 102.586L75.6797 103.562C75.3411 104.068 74.888 104.461 74.3203 104.742C73.7578 105.018 73.125 105.156 72.4219 105.156ZM72.1953 97.9141C71.6745 97.9141 71.2526 98.0964 70.9297 98.4609C70.612 98.8255 70.4089 99.3333 70.3203 99.9844H73.9375V99.8438C73.8958 99.2083 73.7266 98.7292 73.4297 98.4062C73.1328 98.0781 72.7214 97.9141 72.1953 97.9141ZM79.6719 94.4922V96.5469H81.1641V97.9531H79.6719V102.672C79.6719 102.995 79.7344 103.229 79.8594 103.375C79.9896 103.516 80.2188 103.586 80.5469 103.586C80.7656 103.586 80.987 103.56 81.2109 103.508V104.977C80.7786 105.096 80.362 105.156 79.9609 105.156C78.5026 105.156 77.7734 104.352 77.7734 102.742V97.9531H76.3828V96.5469H77.7734V94.4922H79.6719ZM88.625 105H86.7266V96.5469H88.625V105ZM86.6094 94.3516C86.6094 94.0599 86.7005 93.8177 86.8828 93.625C87.0703 93.4323 87.3359 93.3359 87.6797 93.3359C88.0234 93.3359 88.2891 93.4323 88.4766 93.625C88.6641 93.8177 88.7578 94.0599 88.7578 94.3516C88.7578 94.638 88.6641 94.8776 88.4766 95.0703C88.2891 95.2578 88.0234 95.3516 87.6797 95.3516C87.3359 95.3516 87.0703 95.2578 86.8828 95.0703C86.7005 94.8776 86.6094 94.638 86.6094 94.3516ZM92.4609 96.5469L92.5156 97.5234C93.1406 96.7682 93.9609 96.3906 94.9766 96.3906C96.737 96.3906 97.6328 97.3984 97.6641 99.4141V105H95.7656V99.5234C95.7656 98.987 95.6484 98.5911 95.4141 98.3359C95.1849 98.0755 94.8073 97.9453 94.2812 97.9453C93.5156 97.9453 92.9453 98.2917 92.5703 98.9844V105H90.6719V96.5469H92.4609ZM101.984 94.4922V96.5469H103.477V97.9531H101.984V102.672C101.984 102.995 102.047 103.229 102.172 103.375C102.302 103.516 102.531 103.586 102.859 103.586C103.078 103.586 103.299 103.56 103.523 103.508V104.977C103.091 105.096 102.674 105.156 102.273 105.156C100.815 105.156 100.086 104.352 100.086 102.742V97.9531H98.6953V96.5469H100.086V94.4922H101.984ZM112.703 107.812C110.865 107.297 109.927 106.122 109.891 104.289V102.625C109.891 101.453 109.388 100.867 108.383 100.867V99.4766C109.388 99.4766 109.891 98.888 109.891 97.7109V96.0547C109.906 95.1172 110.148 94.3594 110.617 93.7812C111.091 93.2031 111.786 92.7839 112.703 92.5234L113.078 93.6172C112.177 93.9089 111.711 94.7057 111.68 96.0078V97.6953C111.68 98.8672 111.229 99.6901 110.328 100.164C111.229 100.643 111.68 101.474 111.68 102.656V104.32C111.711 105.622 112.177 106.419 113.078 106.711L112.703 107.812ZM123.297 105H121.406V95.8672L118.617 96.8203V95.2188L123.055 93.5859H123.297V105ZM128.352 96.3672C128.706 96.3672 128.979 96.4688 129.172 96.6719C129.365 96.8698 129.461 97.1198 129.461 97.4219C129.461 97.7188 129.365 97.9661 129.172 98.1641C128.979 98.3568 128.706 98.4531 128.352 98.4531C128.013 98.4531 127.745 98.3568 127.547 98.1641C127.349 97.9714 127.25 97.724 127.25 97.4219C127.25 97.1198 127.346 96.8698 127.539 96.6719C127.732 96.4688 128.003 96.3672 128.352 96.3672ZM127.781 107.562L126.758 106.953C127.06 106.479 127.266 106.065 127.375 105.711C127.49 105.362 127.549 105.005 127.555 104.641V103.164H129.266L129.258 104.531C129.253 105.083 129.112 105.635 128.836 106.188C128.565 106.745 128.214 107.203 127.781 107.562ZM137.242 98.4453H138.398C138.982 98.4401 139.443 98.2891 139.781 97.9922C140.125 97.6953 140.297 97.2656 140.297 96.7031C140.297 96.1615 140.154 95.7422 139.867 95.4453C139.586 95.1432 139.154 94.9922 138.57 94.9922C138.06 94.9922 137.641 95.1406 137.312 95.4375C136.984 95.7292 136.82 96.112 136.82 96.5859H134.922C134.922 96.0026 135.076 95.4714 135.383 94.9922C135.695 94.513 136.128 94.1406 136.68 93.875C137.237 93.6042 137.859 93.4688 138.547 93.4688C139.682 93.4688 140.573 93.7552 141.219 94.3281C141.87 94.8958 142.195 95.6875 142.195 96.7031C142.195 97.2135 142.031 97.6953 141.703 98.1484C141.38 98.5964 140.961 98.9349 140.445 99.1641C141.07 99.3776 141.544 99.7135 141.867 100.172C142.195 100.63 142.359 101.177 142.359 101.812C142.359 102.833 142.008 103.646 141.305 104.25C140.607 104.854 139.688 105.156 138.547 105.156C137.453 105.156 136.557 104.865 135.859 104.281C135.161 103.698 134.812 102.922 134.812 101.953H136.711C136.711 102.453 136.878 102.859 137.211 103.172C137.549 103.484 138.003 103.641 138.57 103.641C139.159 103.641 139.622 103.484 139.961 103.172C140.299 102.859 140.469 102.406 140.469 101.812C140.469 101.214 140.292 100.753 139.938 100.43C139.583 100.107 139.057 99.9453 138.359 99.9453H137.242V98.4453ZM145.242 96.3672C145.596 96.3672 145.87 96.4688 146.062 96.6719C146.255 96.8698 146.352 97.1198 146.352 97.4219C146.352 97.7188 146.255 97.9661 146.062 98.1641C145.87 98.3568 145.596 98.4531 145.242 98.4531C144.904 98.4531 144.635 98.3568 144.438 98.1641C144.24 97.9714 144.141 97.724 144.141 97.4219C144.141 97.1198 144.237 96.8698 144.43 96.6719C144.622 96.4688 144.893 96.3672 145.242 96.3672ZM144.672 107.562L143.648 106.953C143.951 106.479 144.156 106.065 144.266 105.711C144.38 105.362 144.44 105.005 144.445 104.641V103.164H146.156L146.148 104.531C146.143 105.083 146.003 105.635 145.727 106.188C145.456 106.745 145.104 107.203 144.672 107.562ZM157.32 100.242C156.685 100.914 155.943 101.25 155.094 101.25C154.094 101.25 153.297 100.901 152.703 100.203C152.109 99.5 151.812 98.5781 151.812 97.4375C151.812 96.6875 151.964 96.0078 152.266 95.3984C152.568 94.7891 152.997 94.3151 153.555 93.9766C154.112 93.638 154.758 93.4688 155.492 93.4688C156.638 93.4688 157.547 93.8958 158.219 94.75C158.891 95.6042 159.227 96.7474 159.227 98.1797V98.7109C159.227 100.763 158.763 102.328 157.836 103.406C156.909 104.484 155.526 105.031 153.688 105.047H153.461V103.477H153.734C154.854 103.461 155.714 103.193 156.312 102.672C156.911 102.146 157.247 101.336 157.32 100.242ZM155.492 99.7656C155.872 99.7656 156.229 99.6562 156.562 99.4375C156.896 99.2188 157.154 98.9167 157.336 98.5312V97.7891C157.336 96.9505 157.164 96.276 156.82 95.7656C156.477 95.2552 156.031 95 155.484 95C154.938 95 154.5 95.2266 154.172 95.6797C153.849 96.1276 153.688 96.6953 153.688 97.3828C153.688 98.0964 153.852 98.6719 154.18 99.1094C154.508 99.5469 154.945 99.7656 155.492 99.7656ZM164.375 106.711C165.292 106.414 165.76 105.602 165.781 104.273V102.648C165.781 101.445 166.255 100.62 167.203 100.172C166.255 99.724 165.781 98.8906 165.781 97.6719V96.0547C165.76 94.7266 165.292 93.9141 164.375 93.6172L164.75 92.5234C165.698 92.7891 166.404 93.2214 166.867 93.8203C167.331 94.4141 167.562 95.1927 167.562 96.1562V97.7188C167.562 98.8906 168.068 99.4766 169.078 99.4766V100.867C168.068 100.867 167.562 101.453 167.562 102.625V104.164C167.562 105.138 167.328 105.922 166.859 106.516C166.396 107.115 165.693 107.547 164.75 107.812L164.375 106.711Z" fill="#5452F6"/>
<path d="M103.141 60.1797H98.5625V65H96.5859V53.625H103.812V55.2188H98.5625V58.6016H103.141V60.1797ZM109.984 65C109.901 64.8385 109.828 64.5755 109.766 64.2109C109.161 64.8411 108.422 65.1562 107.547 65.1562C106.698 65.1562 106.005 64.9141 105.469 64.4297C104.932 63.9453 104.664 63.3464 104.664 62.6328C104.664 61.7318 104.997 61.0417 105.664 60.5625C106.336 60.0781 107.294 59.8359 108.539 59.8359H109.703V59.2812C109.703 58.8438 109.581 58.4948 109.336 58.2344C109.091 57.9688 108.719 57.8359 108.219 57.8359C107.786 57.8359 107.432 57.9453 107.156 58.1641C106.88 58.3776 106.742 58.651 106.742 58.9844H104.844C104.844 58.5208 104.997 58.0885 105.305 57.6875C105.612 57.2812 106.029 56.9635 106.555 56.7344C107.086 56.5052 107.677 56.3906 108.328 56.3906C109.318 56.3906 110.107 56.6406 110.695 57.1406C111.284 57.6354 111.586 58.3333 111.602 59.2344V63.0469C111.602 63.8073 111.708 64.4141 111.922 64.8672V65H109.984ZM107.898 63.6328C108.273 63.6328 108.625 63.5417 108.953 63.3594C109.286 63.1771 109.536 62.9323 109.703 62.625V61.0312H108.68C107.977 61.0312 107.448 61.1536 107.094 61.3984C106.74 61.6432 106.562 61.9896 106.562 62.4375C106.562 62.8021 106.682 63.0938 106.922 63.3125C107.167 63.526 107.492 63.6328 107.898 63.6328ZM115.609 65H113.711V53H115.609V65ZM122.422 62.7031C122.422 62.3646 122.281 62.1068 122 61.9297C121.724 61.7526 121.263 61.5964 120.617 61.4609C119.971 61.3255 119.432 61.1536 119 60.9453C118.052 60.487 117.578 59.8229 117.578 58.9531C117.578 58.224 117.885 57.6146 118.5 57.125C119.115 56.6354 119.896 56.3906 120.844 56.3906C121.854 56.3906 122.669 56.6406 123.289 57.1406C123.914 57.6406 124.227 58.2891 124.227 59.0859H122.328C122.328 58.7214 122.193 58.4193 121.922 58.1797C121.651 57.9349 121.292 57.8125 120.844 57.8125C120.427 57.8125 120.086 57.9089 119.82 58.1016C119.56 58.2943 119.43 58.5521 119.43 58.875C119.43 59.1667 119.552 59.3932 119.797 59.5547C120.042 59.7161 120.536 59.8802 121.281 60.0469C122.026 60.2083 122.609 60.4036 123.031 60.6328C123.458 60.8568 123.773 61.1276 123.977 61.4453C124.185 61.763 124.289 62.1484 124.289 62.6016C124.289 63.362 123.974 63.9792 123.344 64.4531C122.714 64.9219 121.888 65.1562 120.867 65.1562C120.174 65.1562 119.557 65.0312 119.016 64.7812C118.474 64.5312 118.052 64.1875 117.75 63.75C117.448 63.3125 117.297 62.8411 117.297 62.3359H119.141C119.167 62.7839 119.336 63.1302 119.648 63.375C119.961 63.6146 120.375 63.7344 120.891 63.7344C121.391 63.7344 121.771 63.6406 122.031 63.4531C122.292 63.2604 122.422 63.0104 122.422 62.7031ZM129.672 65.1562C128.469 65.1562 127.492 64.7786 126.742 64.0234C125.997 63.263 125.625 62.2526 125.625 60.9922V60.7578C125.625 59.9141 125.786 59.1615 126.109 58.5C126.438 57.8333 126.896 57.3151 127.484 56.9453C128.073 56.5755 128.729 56.3906 129.453 56.3906C130.604 56.3906 131.492 56.7578 132.117 57.4922C132.747 58.2266 133.062 59.2656 133.062 60.6094V61.375H127.539C127.596 62.0729 127.828 62.625 128.234 63.0312C128.646 63.4375 129.161 63.6406 129.781 63.6406C130.651 63.6406 131.359 63.2891 131.906 62.5859L132.93 63.5625C132.591 64.0677 132.138 64.4609 131.57 64.7422C131.008 65.0182 130.375 65.1562 129.672 65.1562ZM129.445 57.9141C128.924 57.9141 128.503 58.0964 128.18 58.4609C127.862 58.8255 127.659 59.3333 127.57 59.9844H131.188V59.8438C131.146 59.2083 130.977 58.7292 130.68 58.4062C130.383 58.0781 129.971 57.9141 129.445 57.9141Z" fill="#FF5A43"/>
<path d="M101.789 25H99.8906V16.5469H101.789V25ZM99.7734 14.3516C99.7734 14.0599 99.8646 13.8177 100.047 13.625C100.234 13.4323 100.5 13.3359 100.844 13.3359C101.188 13.3359 101.453 13.4323 101.641 13.625C101.828 13.8177 101.922 14.0599 101.922 14.3516C101.922 14.638 101.828 14.8776 101.641 15.0703C101.453 15.2578 101.188 15.3516 100.844 15.3516C100.5 15.3516 100.234 15.2578 100.047 15.0703C99.8646 14.8776 99.7734 14.638 99.7734 14.3516ZM105.625 16.5469L105.68 17.5234C106.305 16.7682 107.125 16.3906 108.141 16.3906C109.901 16.3906 110.797 17.3984 110.828 19.4141V25H108.93V19.5234C108.93 18.987 108.812 18.5911 108.578 18.3359C108.349 18.0755 107.971 17.9453 107.445 17.9453C106.68 17.9453 106.109 18.2917 105.734 18.9844V25H103.836V16.5469H105.625ZM115.148 14.4922V16.5469H116.641V17.9531H115.148V22.6719C115.148 22.9948 115.211 23.2292 115.336 23.375C115.466 23.5156 115.695 23.5859 116.023 23.5859C116.242 23.5859 116.464 23.5599 116.688 23.5078V24.9766C116.255 25.0964 115.839 25.1562 115.438 25.1562C113.979 25.1562 113.25 24.3516 113.25 22.7422V17.9531H111.859V16.5469H113.25V14.4922H115.148ZM124.156 18.4453H125.312C125.896 18.4401 126.357 18.2891 126.695 17.9922C127.039 17.6953 127.211 17.2656 127.211 16.7031C127.211 16.1615 127.068 15.7422 126.781 15.4453C126.5 15.1432 126.068 14.9922 125.484 14.9922C124.974 14.9922 124.555 15.1406 124.227 15.4375C123.898 15.7292 123.734 16.112 123.734 16.5859H121.836C121.836 16.0026 121.99 15.4714 122.297 14.9922C122.609 14.513 123.042 14.1406 123.594 13.875C124.151 13.6042 124.773 13.4688 125.461 13.4688C126.596 13.4688 127.487 13.7552 128.133 14.3281C128.784 14.8958 129.109 15.6875 129.109 16.7031C129.109 17.2135 128.945 17.6953 128.617 18.1484C128.294 18.5964 127.875 18.9349 127.359 19.1641C127.984 19.3776 128.458 19.7135 128.781 20.1719C129.109 20.6302 129.273 21.1771 129.273 21.8125C129.273 22.8333 128.922 23.6458 128.219 24.25C127.521 24.8542 126.602 25.1562 125.461 25.1562C124.367 25.1562 123.471 24.8646 122.773 24.2812C122.076 23.6979 121.727 22.9219 121.727 21.9531H123.625C123.625 22.4531 123.792 22.8594 124.125 23.1719C124.464 23.4844 124.917 23.6406 125.484 23.6406C126.073 23.6406 126.536 23.4844 126.875 23.1719C127.214 22.8594 127.383 22.4062 127.383 21.8125C127.383 21.2135 127.206 20.7526 126.852 20.4297C126.497 20.1068 125.971 19.9453 125.273 19.9453H124.156V18.4453Z" fill="#FF5A43"/>
<path d="M0.5 8C0.5 3.85786 3.85786 0.5 8 0.5H221C225.142 0.5 228.5 3.85787 228.5 8V119.5H0.5V8Z" stroke="#5452F6"/>
</g>
<g filter="url(#filter3_d)">
<path d="M0 119H229V135C229 139.418 225.418 143 221 143H8.00001C3.58173 143 0 139.418 0 135V119Z" fill="#EEEEFF"/>
<path d="M0.5 119.5H228.5V135C228.5 139.142 225.142 142.5 221 142.5H8.00001C3.85787 142.5 0.5 139.142 0.5 135V119.5Z" stroke="#5452F6"/>
</g>
<defs>
<filter id="filter0_d" x="400" y="79" width="233" height="45" filterUnits="userSpaceOnUse" color-interpolation-filters="sRGB">
<feFlood flood-opacity="0" result="BackgroundImageFix"/>
<feColorMatrix in="SourceAlpha" type="matrix" values="0 0 0 0 0 0 0 0 0 0 0 0 0 0 0 0 0 0 127 0"/>
<feOffset dx="4" dy="4"/>
<feColorMatrix type="matrix" values="0 0 0 0 0.674908 0 0 0 0 0.662083 0 0 0 0 0.945833 0 0 0 1 0"/>
<feBlend mode="normal" in2="BackgroundImageFix" result="effect1_dropShadow"/>
<feBlend mode="normal" in="SourceGraphic" in2="effect1_dropShadow" result="shape"/>
</filter>
<filter id="filter1_d" x="400" y="119" width="233" height="28" filterUnits="userSpaceOnUse" color-interpolation-filters="sRGB">
<feFlood flood-opacity="0" result="BackgroundImageFix"/>
<feColorMatrix in="SourceAlpha" type="matrix" values="0 0 0 0 0 0 0 0 0 0 0 0 0 0 0 0 0 0 127 0"/>
<feOffset dx="4" dy="4"/>
<feColorMatrix type="matrix" values="0 0 0 0 0.674908 0 0 0 0 0.662083 0 0 0 0 0.945833 0 0 0 1 0"/>
<feBlend mode="normal" in2="BackgroundImageFix" result="effect1_dropShadow"/>
<feBlend mode="normal" in="SourceGraphic" in2="effect1_dropShadow" result="shape"/>
</filter>
<filter id="filter2_d" x="0" y="0" width="233" height="124" filterUnits="userSpaceOnUse" color-interpolation-filters="sRGB">
<feFlood flood-opacity="0" result="BackgroundImageFix"/>
<feColorMatrix in="SourceAlpha" type="matrix" values="0 0 0 0 0 0 0 0 0 0 0 0 0 0 0 0 0 0 127 0"/>
<feOffset dx="4" dy="4"/>
<feColorMatrix type="matrix" values="0 0 0 0 0.674908 0 0 0 0 0.662083 0 0 0 0 0.945833 0 0 0 1 0"/>
<feBlend mode="normal" in2="BackgroundImageFix" result="effect1_dropShadow"/>
<feBlend mode="normal" in="SourceGraphic" in2="effect1_dropShadow" result="shape"/>
</filter>
<filter id="filter3_d" x="0" y="119" width="233" height="28" filterUnits="userSpaceOnUse" color-interpolation-filters="sRGB">
<feFlood flood-opacity="0" result="BackgroundImageFix"/>
<feColorMatrix in="SourceAlpha" type="matrix" values="0 0 0 0 0 0 0 0 0 0 0 0 0 0 0 0 0 0 127 0"/>
<feOffset dx="4" dy="4"/>
<feColorMatrix type="matrix" values="0 0 0 0 0.674908 0 0 0 0 0.662083 0 0 0 0 0.945833 0 0 0 1 0"/>
<feBlend mode="normal" in2="BackgroundImageFix" result="effect1_dropShadow"/>
<feBlend mode="normal" in="SourceGraphic" in2="effect1_dropShadow" result="shape"/>
</filter>
</defs>
</svg>
