<svg width="984" height="490" viewBox="0 0 984 490" fill="none" xmlns="http://www.w3.org/2000/svg">
<g filter="url(#filter0_d)">
<rect x="468" y="362" width="512" height="124" rx="8" fill="#FEEBEA"/>
<path d="M657.602 393.742H652.672V397.773H658.398V399H651.172V387.625H658.32V388.859H652.672V392.516H657.602V393.742ZM661.398 390.547L661.438 391.484C662.057 390.755 662.893 390.391 663.945 390.391C665.128 390.391 665.932 390.844 666.359 391.75C666.641 391.344 667.005 391.016 667.453 390.766C667.906 390.516 668.44 390.391 669.055 390.391C670.909 390.391 671.852 391.372 671.883 393.336V399H670.438V393.422C670.438 392.818 670.299 392.367 670.023 392.07C669.747 391.768 669.284 391.617 668.633 391.617C668.096 391.617 667.651 391.779 667.297 392.102C666.943 392.419 666.737 392.849 666.68 393.391V399H665.227V393.461C665.227 392.232 664.625 391.617 663.422 391.617C662.474 391.617 661.826 392.021 661.477 392.828V399H660.031V390.547H661.398ZM681.227 394.867C681.227 396.159 680.93 397.198 680.336 397.984C679.742 398.766 678.945 399.156 677.945 399.156C676.878 399.156 676.052 398.779 675.469 398.023L675.398 399H674.07V387H675.516V391.477C676.099 390.753 676.904 390.391 677.93 390.391C678.956 390.391 679.76 390.779 680.344 391.555C680.932 392.331 681.227 393.393 681.227 394.742V394.867ZM679.781 394.703C679.781 393.719 679.591 392.958 679.211 392.422C678.831 391.885 678.284 391.617 677.57 391.617C676.617 391.617 675.932 392.06 675.516 392.945V396.602C675.958 397.487 676.648 397.93 677.586 397.93C678.279 397.93 678.818 397.661 679.203 397.125C679.589 396.589 679.781 395.781 679.781 394.703ZM686.562 399.156C685.417 399.156 684.484 398.781 683.766 398.031C683.047 397.276 682.688 396.268 682.688 395.008V394.742C682.688 393.904 682.846 393.156 683.164 392.5C683.487 391.839 683.935 391.323 684.508 390.953C685.086 390.578 685.711 390.391 686.383 390.391C687.482 390.391 688.336 390.753 688.945 391.477C689.555 392.201 689.859 393.237 689.859 394.586V395.188H684.133C684.154 396.021 684.396 396.695 684.859 397.211C685.328 397.721 685.922 397.977 686.641 397.977C687.151 397.977 687.583 397.872 687.938 397.664C688.292 397.456 688.602 397.18 688.867 396.836L689.75 397.523C689.042 398.612 687.979 399.156 686.562 399.156ZM686.383 391.578C685.799 391.578 685.31 391.792 684.914 392.219C684.518 392.641 684.273 393.234 684.18 394H688.414V393.891C688.372 393.156 688.174 392.589 687.82 392.188C687.466 391.781 686.987 391.578 686.383 391.578ZM691.188 394.703C691.188 393.406 691.495 392.365 692.109 391.578C692.724 390.786 693.529 390.391 694.523 390.391C695.513 390.391 696.297 390.729 696.875 391.406V387H698.32V399H696.992L696.922 398.094C696.344 398.802 695.539 399.156 694.508 399.156C693.529 399.156 692.729 398.755 692.109 397.953C691.495 397.151 691.188 396.104 691.188 394.812V394.703ZM692.633 394.867C692.633 395.826 692.831 396.576 693.227 397.117C693.622 397.659 694.169 397.93 694.867 397.93C695.784 397.93 696.453 397.518 696.875 396.695V392.812C696.443 392.016 695.779 391.617 694.883 391.617C694.174 391.617 693.622 391.891 693.227 392.438C692.831 392.984 692.633 393.794 692.633 394.867ZM700.219 394.703C700.219 393.406 700.526 392.365 701.141 391.578C701.755 390.786 702.56 390.391 703.555 390.391C704.544 390.391 705.328 390.729 705.906 391.406V387H707.352V399H706.023L705.953 398.094C705.375 398.802 704.57 399.156 703.539 399.156C702.56 399.156 701.76 398.755 701.141 397.953C700.526 397.151 700.219 396.104 700.219 394.812V394.703ZM701.664 394.867C701.664 395.826 701.862 396.576 702.258 397.117C702.654 397.659 703.201 397.93 703.898 397.93C704.815 397.93 705.484 397.518 705.906 396.695V392.812C705.474 392.016 704.81 391.617 703.914 391.617C703.206 391.617 702.654 391.891 702.258 392.438C701.862 392.984 701.664 393.794 701.664 394.867ZM713.109 399.156C711.964 399.156 711.031 398.781 710.312 398.031C709.594 397.276 709.234 396.268 709.234 395.008V394.742C709.234 393.904 709.393 393.156 709.711 392.5C710.034 391.839 710.482 391.323 711.055 390.953C711.633 390.578 712.258 390.391 712.93 390.391C714.029 390.391 714.883 390.753 715.492 391.477C716.102 392.201 716.406 393.237 716.406 394.586V395.188H710.68C710.701 396.021 710.943 396.695 711.406 397.211C711.875 397.721 712.469 397.977 713.188 397.977C713.698 397.977 714.13 397.872 714.484 397.664C714.839 397.456 715.148 397.18 715.414 396.836L716.297 397.523C715.589 398.612 714.526 399.156 713.109 399.156ZM712.93 391.578C712.346 391.578 711.857 391.792 711.461 392.219C711.065 392.641 710.82 393.234 710.727 394H714.961V393.891C714.919 393.156 714.721 392.589 714.367 392.188C714.013 391.781 713.534 391.578 712.93 391.578ZM717.734 394.703C717.734 393.406 718.042 392.365 718.656 391.578C719.271 390.786 720.076 390.391 721.07 390.391C722.06 390.391 722.844 390.729 723.422 391.406V387H724.867V399H723.539L723.469 398.094C722.891 398.802 722.086 399.156 721.055 399.156C720.076 399.156 719.276 398.755 718.656 397.953C718.042 397.151 717.734 396.104 717.734 394.812V394.703ZM719.18 394.867C719.18 395.826 719.378 396.576 719.773 397.117C720.169 397.659 720.716 397.93 721.414 397.93C722.331 397.93 723 397.518 723.422 396.695V392.812C722.99 392.016 722.326 391.617 721.43 391.617C720.721 391.617 720.169 391.891 719.773 392.438C719.378 392.984 719.18 393.794 719.18 394.867ZM731.375 399.977H730.133L734.883 387.625H736.117L731.375 399.977ZM748.305 393.742H743.375V397.773H749.102V399H741.875V387.625H749.023V388.859H743.375V392.516H748.305V393.742ZM753.578 393.633L755.453 390.547H757.141L754.375 394.727L757.227 399H755.555L753.602 395.836L751.648 399H749.969L752.82 394.727L750.055 390.547H751.727L753.578 393.633ZM760.641 388.5V390.547H762.219V391.664H760.641V396.906C760.641 397.245 760.711 397.5 760.852 397.672C760.992 397.839 761.232 397.922 761.57 397.922C761.737 397.922 761.966 397.891 762.258 397.828V399C761.878 399.104 761.508 399.156 761.148 399.156C760.503 399.156 760.016 398.961 759.688 398.57C759.359 398.18 759.195 397.625 759.195 396.906V391.664H757.656V390.547H759.195V388.5H760.641ZM767.422 399.156C766.276 399.156 765.344 398.781 764.625 398.031C763.906 397.276 763.547 396.268 763.547 395.008V394.742C763.547 393.904 763.706 393.156 764.023 392.5C764.346 391.839 764.794 391.323 765.367 390.953C765.945 390.578 766.57 390.391 767.242 390.391C768.341 390.391 769.195 390.753 769.805 391.477C770.414 392.201 770.719 393.237 770.719 394.586V395.188H764.992C765.013 396.021 765.255 396.695 765.719 397.211C766.188 397.721 766.781 397.977 767.5 397.977C768.01 397.977 768.443 397.872 768.797 397.664C769.151 397.456 769.461 397.18 769.727 396.836L770.609 397.523C769.901 398.612 768.839 399.156 767.422 399.156ZM767.242 391.578C766.659 391.578 766.169 391.792 765.773 392.219C765.378 392.641 765.133 393.234 765.039 394H769.273V393.891C769.232 393.156 769.034 392.589 768.68 392.188C768.326 391.781 767.846 391.578 767.242 391.578ZM776.484 391.844C776.266 391.807 776.029 391.789 775.773 391.789C774.826 391.789 774.182 392.193 773.844 393V399H772.398V390.547H773.805L773.828 391.523C774.302 390.768 774.974 390.391 775.844 390.391C776.125 390.391 776.339 390.427 776.484 390.5V391.844ZM779.188 390.547L779.234 391.609C779.88 390.797 780.724 390.391 781.766 390.391C783.552 390.391 784.453 391.398 784.469 393.414V399H783.023V393.406C783.018 392.797 782.878 392.346 782.602 392.055C782.331 391.763 781.906 391.617 781.328 391.617C780.859 391.617 780.448 391.742 780.094 391.992C779.74 392.242 779.464 392.57 779.266 392.977V399H777.82V390.547H779.188ZM791.867 399C791.784 398.833 791.716 398.536 791.664 398.109C790.992 398.807 790.19 399.156 789.258 399.156C788.424 399.156 787.74 398.922 787.203 398.453C786.672 397.979 786.406 397.38 786.406 396.656C786.406 395.776 786.74 395.094 787.406 394.609C788.078 394.12 789.021 393.875 790.234 393.875H791.641V393.211C791.641 392.706 791.49 392.305 791.188 392.008C790.885 391.706 790.44 391.555 789.852 391.555C789.336 391.555 788.904 391.685 788.555 391.945C788.206 392.206 788.031 392.521 788.031 392.891H786.578C786.578 392.469 786.727 392.062 787.023 391.672C787.326 391.276 787.732 390.964 788.242 390.734C788.758 390.505 789.323 390.391 789.938 390.391C790.911 390.391 791.674 390.635 792.227 391.125C792.779 391.609 793.065 392.279 793.086 393.133V397.023C793.086 397.799 793.185 398.417 793.383 398.875V399H791.867ZM789.469 397.898C789.922 397.898 790.352 397.781 790.758 397.547C791.164 397.312 791.458 397.008 791.641 396.633V394.898H790.508C788.737 394.898 787.852 395.417 787.852 396.453C787.852 396.906 788.003 397.26 788.305 397.516C788.607 397.771 788.995 397.898 789.469 397.898ZM796.922 399H795.477V387H796.922V399ZM662.406 414.391C662.266 415.594 661.82 416.523 661.07 417.18C660.326 417.831 659.333 418.156 658.094 418.156C656.75 418.156 655.672 417.674 654.859 416.711C654.052 415.747 653.648 414.458 653.648 412.844V411.75C653.648 410.693 653.836 409.763 654.211 408.961C654.591 408.159 655.128 407.544 655.82 407.117C656.513 406.685 657.315 406.469 658.227 406.469C659.435 406.469 660.404 406.807 661.133 407.484C661.862 408.156 662.286 409.089 662.406 410.281H660.898C660.768 409.375 660.484 408.719 660.047 408.312C659.615 407.906 659.008 407.703 658.227 407.703C657.268 407.703 656.516 408.057 655.969 408.766C655.427 409.474 655.156 410.482 655.156 411.789V412.891C655.156 414.125 655.414 415.107 655.93 415.836C656.445 416.565 657.167 416.93 658.094 416.93C658.927 416.93 659.565 416.742 660.008 416.367C660.456 415.987 660.753 415.328 660.898 414.391H662.406ZM663.852 413.695C663.852 412.867 664.013 412.122 664.336 411.461C664.664 410.799 665.117 410.289 665.695 409.93C666.279 409.57 666.943 409.391 667.688 409.391C668.839 409.391 669.768 409.789 670.477 410.586C671.19 411.383 671.547 412.443 671.547 413.766V413.867C671.547 414.69 671.388 415.43 671.07 416.086C670.758 416.737 670.307 417.245 669.719 417.609C669.135 417.974 668.464 418.156 667.703 418.156C666.557 418.156 665.628 417.758 664.914 416.961C664.206 416.164 663.852 415.109 663.852 413.797V413.695ZM665.305 413.867C665.305 414.805 665.521 415.557 665.953 416.125C666.391 416.693 666.974 416.977 667.703 416.977C668.438 416.977 669.021 416.69 669.453 416.117C669.885 415.539 670.102 414.732 670.102 413.695C670.102 412.768 669.88 412.018 669.438 411.445C669 410.867 668.417 410.578 667.688 410.578C666.974 410.578 666.398 410.862 665.961 411.43C665.523 411.997 665.305 412.81 665.305 413.867ZM674.93 418H673.484V406H674.93V418ZM682.469 417.164C681.906 417.826 681.081 418.156 679.992 418.156C679.091 418.156 678.404 417.896 677.93 417.375C677.461 416.849 677.224 416.073 677.219 415.047V409.547H678.664V415.008C678.664 416.289 679.185 416.93 680.227 416.93C681.331 416.93 682.065 416.518 682.43 415.695V409.547H683.875V418H682.5L682.469 417.164ZM687.438 409.547L687.477 410.484C688.096 409.755 688.932 409.391 689.984 409.391C691.167 409.391 691.971 409.844 692.398 410.75C692.68 410.344 693.044 410.016 693.492 409.766C693.945 409.516 694.479 409.391 695.094 409.391C696.948 409.391 697.891 410.372 697.922 412.336V418H696.477V412.422C696.477 411.818 696.339 411.367 696.062 411.07C695.786 410.768 695.323 410.617 694.672 410.617C694.135 410.617 693.69 410.779 693.336 411.102C692.982 411.419 692.776 411.849 692.719 412.391V418H691.266V412.461C691.266 411.232 690.664 410.617 689.461 410.617C688.513 410.617 687.865 411.021 687.516 411.828V418H686.07V409.547H687.438ZM701.477 409.547L701.523 410.609C702.169 409.797 703.013 409.391 704.055 409.391C705.841 409.391 706.742 410.398 706.758 412.414V418H705.312V412.406C705.307 411.797 705.167 411.346 704.891 411.055C704.62 410.763 704.195 410.617 703.617 410.617C703.148 410.617 702.737 410.742 702.383 410.992C702.029 411.242 701.753 411.57 701.555 411.977V418H700.109V409.547H701.477ZM714.156 418C714.073 417.833 714.005 417.536 713.953 417.109C713.281 417.807 712.479 418.156 711.547 418.156C710.714 418.156 710.029 417.922 709.492 417.453C708.961 416.979 708.695 416.38 708.695 415.656C708.695 414.776 709.029 414.094 709.695 413.609C710.367 413.12 711.31 412.875 712.523 412.875H713.93V412.211C713.93 411.706 713.779 411.305 713.477 411.008C713.174 410.706 712.729 410.555 712.141 410.555C711.625 410.555 711.193 410.685 710.844 410.945C710.495 411.206 710.32 411.521 710.32 411.891H708.867C708.867 411.469 709.016 411.062 709.312 410.672C709.615 410.276 710.021 409.964 710.531 409.734C711.047 409.505 711.612 409.391 712.227 409.391C713.201 409.391 713.964 409.635 714.516 410.125C715.068 410.609 715.354 411.279 715.375 412.133V416.023C715.375 416.799 715.474 417.417 715.672 417.875V418H714.156ZM711.758 416.898C712.211 416.898 712.641 416.781 713.047 416.547C713.453 416.312 713.747 416.008 713.93 415.633V413.898H712.797C711.026 413.898 710.141 414.417 710.141 415.453C710.141 415.906 710.292 416.26 710.594 416.516C710.896 416.771 711.284 416.898 711.758 416.898ZM721.727 410.844C721.508 410.807 721.271 410.789 721.016 410.789C720.068 410.789 719.424 411.193 719.086 412V418H717.641V409.547H719.047L719.07 410.523C719.544 409.768 720.216 409.391 721.086 409.391C721.367 409.391 721.581 409.427 721.727 409.5V410.844ZM727.258 418V406.625H730.469C731.458 406.625 732.333 406.844 733.094 407.281C733.854 407.719 734.44 408.341 734.852 409.148C735.268 409.956 735.479 410.883 735.484 411.93V412.656C735.484 413.729 735.276 414.669 734.859 415.477C734.448 416.284 733.857 416.904 733.086 417.336C732.32 417.768 731.427 417.99 730.406 418H727.258ZM728.758 407.859V416.773H730.336C731.492 416.773 732.391 416.414 733.031 415.695C733.677 414.977 734 413.953 734 412.625V411.961C734 410.669 733.695 409.667 733.086 408.953C732.482 408.234 731.622 407.87 730.508 407.859H728.758ZM742.75 418C742.667 417.833 742.599 417.536 742.547 417.109C741.875 417.807 741.073 418.156 740.141 418.156C739.307 418.156 738.622 417.922 738.086 417.453C737.555 416.979 737.289 416.38 737.289 415.656C737.289 414.776 737.622 414.094 738.289 413.609C738.961 413.12 739.904 412.875 741.117 412.875H742.523V412.211C742.523 411.706 742.372 411.305 742.07 411.008C741.768 410.706 741.323 410.555 740.734 410.555C740.219 410.555 739.786 410.685 739.438 410.945C739.089 411.206 738.914 411.521 738.914 411.891H737.461C737.461 411.469 737.609 411.062 737.906 410.672C738.208 410.276 738.615 409.964 739.125 409.734C739.641 409.505 740.206 409.391 740.82 409.391C741.794 409.391 742.557 409.635 743.109 410.125C743.661 410.609 743.948 411.279 743.969 412.133V416.023C743.969 416.799 744.068 417.417 744.266 417.875V418H742.75ZM740.352 416.898C740.805 416.898 741.234 416.781 741.641 416.547C742.047 416.312 742.341 416.008 742.523 415.633V413.898H741.391C739.62 413.898 738.734 414.417 738.734 415.453C738.734 415.906 738.885 416.26 739.188 416.516C739.49 416.771 739.878 416.898 740.352 416.898ZM748.195 407.5V409.547H749.773V410.664H748.195V415.906C748.195 416.245 748.266 416.5 748.406 416.672C748.547 416.839 748.786 416.922 749.125 416.922C749.292 416.922 749.521 416.891 749.812 416.828V418C749.432 418.104 749.062 418.156 748.703 418.156C748.057 418.156 747.57 417.961 747.242 417.57C746.914 417.18 746.75 416.625 746.75 415.906V410.664H745.211V409.547H746.75V407.5H748.195ZM756.688 418C756.604 417.833 756.536 417.536 756.484 417.109C755.812 417.807 755.01 418.156 754.078 418.156C753.245 418.156 752.56 417.922 752.023 417.453C751.492 416.979 751.227 416.38 751.227 415.656C751.227 414.776 751.56 414.094 752.227 413.609C752.898 413.12 753.841 412.875 755.055 412.875H756.461V412.211C756.461 411.706 756.31 411.305 756.008 411.008C755.706 410.706 755.26 410.555 754.672 410.555C754.156 410.555 753.724 410.685 753.375 410.945C753.026 411.206 752.852 411.521 752.852 411.891H751.398C751.398 411.469 751.547 411.062 751.844 410.672C752.146 410.276 752.552 409.964 753.062 409.734C753.578 409.505 754.143 409.391 754.758 409.391C755.732 409.391 756.495 409.635 757.047 410.125C757.599 410.609 757.885 411.279 757.906 412.133V416.023C757.906 416.799 758.005 417.417 758.203 417.875V418H756.688ZM754.289 416.898C754.742 416.898 755.172 416.781 755.578 416.547C755.984 416.312 756.279 416.008 756.461 415.633V413.898H755.328C753.557 413.898 752.672 414.417 752.672 415.453C752.672 415.906 752.823 416.26 753.125 416.516C753.427 416.771 753.815 416.898 754.289 416.898ZM765.094 415.758C765.094 415.367 764.945 415.065 764.648 414.852C764.357 414.633 763.844 414.445 763.109 414.289C762.38 414.133 761.799 413.945 761.367 413.727C760.94 413.508 760.622 413.247 760.414 412.945C760.211 412.643 760.109 412.284 760.109 411.867C760.109 411.174 760.401 410.589 760.984 410.109C761.573 409.63 762.323 409.391 763.234 409.391C764.193 409.391 764.969 409.638 765.562 410.133C766.161 410.628 766.461 411.26 766.461 412.031H765.008C765.008 411.635 764.839 411.294 764.5 411.008C764.167 410.721 763.745 410.578 763.234 410.578C762.708 410.578 762.297 410.693 762 410.922C761.703 411.151 761.555 411.451 761.555 411.82C761.555 412.169 761.693 412.432 761.969 412.609C762.245 412.786 762.742 412.956 763.461 413.117C764.185 413.279 764.771 413.471 765.219 413.695C765.667 413.919 765.997 414.19 766.211 414.508C766.43 414.82 766.539 415.203 766.539 415.656C766.539 416.411 766.237 417.018 765.633 417.477C765.029 417.93 764.245 418.156 763.281 418.156C762.604 418.156 762.005 418.036 761.484 417.797C760.964 417.557 760.555 417.224 760.258 416.797C759.966 416.365 759.82 415.898 759.82 415.398H761.266C761.292 415.883 761.484 416.268 761.844 416.555C762.208 416.836 762.688 416.977 763.281 416.977C763.828 416.977 764.266 416.867 764.594 416.648C764.927 416.424 765.094 416.128 765.094 415.758ZM770.383 407.5V409.547H771.961V410.664H770.383V415.906C770.383 416.245 770.453 416.5 770.594 416.672C770.734 416.839 770.974 416.922 771.312 416.922C771.479 416.922 771.708 416.891 772 416.828V418C771.62 418.104 771.25 418.156 770.891 418.156C770.245 418.156 769.758 417.961 769.43 417.57C769.102 417.18 768.938 416.625 768.938 415.906V410.664H767.398V409.547H768.938V407.5H770.383ZM773.117 413.695C773.117 412.867 773.279 412.122 773.602 411.461C773.93 410.799 774.383 410.289 774.961 409.93C775.544 409.57 776.208 409.391 776.953 409.391C778.104 409.391 779.034 409.789 779.742 410.586C780.456 411.383 780.812 412.443 780.812 413.766V413.867C780.812 414.69 780.654 415.43 780.336 416.086C780.023 416.737 779.573 417.245 778.984 417.609C778.401 417.974 777.729 418.156 776.969 418.156C775.823 418.156 774.893 417.758 774.18 416.961C773.471 416.164 773.117 415.109 773.117 413.797V413.695ZM774.57 413.867C774.57 414.805 774.786 415.557 775.219 416.125C775.656 416.693 776.24 416.977 776.969 416.977C777.703 416.977 778.286 416.69 778.719 416.117C779.151 415.539 779.367 414.732 779.367 413.695C779.367 412.768 779.146 412.018 778.703 411.445C778.266 410.867 777.682 410.578 776.953 410.578C776.24 410.578 775.664 410.862 775.227 411.43C774.789 411.997 774.57 412.81 774.57 413.867ZM786.711 410.844C786.492 410.807 786.255 410.789 786 410.789C785.052 410.789 784.409 411.193 784.07 412V418H782.625V409.547H784.031L784.055 410.523C784.529 409.768 785.201 409.391 786.07 409.391C786.352 409.391 786.565 409.427 786.711 409.5V410.844ZM791.398 418.156C790.253 418.156 789.32 417.781 788.602 417.031C787.883 416.276 787.523 415.268 787.523 414.008V413.742C787.523 412.904 787.682 412.156 788 411.5C788.323 410.839 788.771 410.323 789.344 409.953C789.922 409.578 790.547 409.391 791.219 409.391C792.318 409.391 793.172 409.753 793.781 410.477C794.391 411.201 794.695 412.237 794.695 413.586V414.188H788.969C788.99 415.021 789.232 415.695 789.695 416.211C790.164 416.721 790.758 416.977 791.477 416.977C791.987 416.977 792.419 416.872 792.773 416.664C793.128 416.456 793.438 416.18 793.703 415.836L794.586 416.523C793.878 417.612 792.815 418.156 791.398 418.156ZM791.219 410.578C790.635 410.578 790.146 410.792 789.75 411.219C789.354 411.641 789.109 412.234 789.016 413H793.25V412.891C793.208 412.156 793.01 411.589 792.656 411.188C792.302 410.781 791.823 410.578 791.219 410.578Z" fill="#DE1306"/>
<path d="M724 445.001C732.284 445.001 739 442.315 739 439.001C739 435.688 732.284 433.001 724 433.001C715.716 433.001 709 435.688 709 439.001C709 442.315 715.716 445.001 724 445.001Z" stroke="#DE1306" stroke-width="1.5" stroke-linecap="round" stroke-linejoin="round"/>
<path d="M709 439.001V448C709 451.313 715.716 454 724 454C732.284 454 739 451.315 739 448V439.001" stroke="#DE1306" stroke-width="1.5" stroke-linecap="round" stroke-linejoin="round"/>
<path d="M709 448V457C709 460.313 715.716 463 724 463C732.284 463 739 460.313 739 457V448" stroke="#DE1306" stroke-width="1.5" stroke-linecap="round" stroke-linejoin="round"/>
<rect x="468.5" y="362.5" width="511" height="123" rx="7.5" stroke="#DE1306"/>
</g>
<g filter="url(#filter1_d)">
<rect x="468" width="131" height="105" rx="8" fill="#EEEEFF"/>
<path d="M497.719 31.7422H492.789V35.7734H498.516V37H491.289V25.625H498.438V26.8594H492.789V30.5156H497.719V31.7422ZM502.992 31.6328L504.867 28.5469H506.555L503.789 32.7266L506.641 37H504.969L503.016 33.8359L501.062 37H499.383L502.234 32.7266L499.469 28.5469H501.141L502.992 31.6328ZM515.234 32.8672C515.234 34.1536 514.94 35.1901 514.352 35.9766C513.763 36.763 512.966 37.1562 511.961 37.1562C510.935 37.1562 510.128 36.8307 509.539 36.1797V40.25H508.094V28.5469H509.414L509.484 29.4844C510.073 28.7552 510.891 28.3906 511.938 28.3906C512.953 28.3906 513.755 28.7734 514.344 29.5391C514.938 30.3047 515.234 31.3698 515.234 32.7344V32.8672ZM513.789 32.7031C513.789 31.75 513.586 30.9974 513.18 30.4453C512.773 29.8932 512.216 29.6172 511.508 29.6172C510.633 29.6172 509.977 30.0052 509.539 30.7812V34.8203C509.971 35.5911 510.633 35.9766 511.523 35.9766C512.216 35.9766 512.766 35.7031 513.172 35.1562C513.583 34.6042 513.789 33.7865 513.789 32.7031ZM518.648 37H517.203V25H518.648V37ZM520.586 32.6953C520.586 31.8672 520.747 31.1224 521.07 30.4609C521.398 29.7995 521.852 29.2891 522.43 28.9297C523.013 28.5703 523.677 28.3906 524.422 28.3906C525.573 28.3906 526.503 28.7891 527.211 29.5859C527.924 30.3828 528.281 31.4427 528.281 32.7656V32.8672C528.281 33.6901 528.122 34.4297 527.805 35.0859C527.492 35.737 527.042 36.2448 526.453 36.6094C525.87 36.974 525.198 37.1562 524.438 37.1562C523.292 37.1562 522.362 36.7578 521.648 35.9609C520.94 35.1641 520.586 34.1094 520.586 32.7969V32.6953ZM522.039 32.8672C522.039 33.8047 522.255 34.5573 522.688 35.125C523.125 35.6927 523.708 35.9766 524.438 35.9766C525.172 35.9766 525.755 35.6901 526.188 35.1172C526.62 34.5391 526.836 33.7318 526.836 32.6953C526.836 31.7682 526.615 31.0182 526.172 30.4453C525.734 29.8672 525.151 29.5781 524.422 29.5781C523.708 29.5781 523.133 29.862 522.695 30.4297C522.258 30.9974 522.039 31.8099 522.039 32.8672ZM534.18 29.8438C533.961 29.8073 533.724 29.7891 533.469 29.7891C532.521 29.7891 531.878 30.1927 531.539 31V37H530.094V28.5469H531.5L531.523 29.5234C531.997 28.7682 532.669 28.3906 533.539 28.3906C533.82 28.3906 534.034 28.4271 534.18 28.5V29.8438ZM538.867 37.1562C537.721 37.1562 536.789 36.7812 536.07 36.0312C535.352 35.276 534.992 34.2682 534.992 33.0078V32.7422C534.992 31.9036 535.151 31.1562 535.469 30.5C535.792 29.8385 536.24 29.3229 536.812 28.9531C537.391 28.5781 538.016 28.3906 538.688 28.3906C539.786 28.3906 540.641 28.7526 541.25 29.4766C541.859 30.2005 542.164 31.237 542.164 32.5859V33.1875H536.438C536.458 34.0208 536.701 34.6953 537.164 35.2109C537.633 35.7214 538.227 35.9766 538.945 35.9766C539.456 35.9766 539.888 35.8724 540.242 35.6641C540.596 35.4557 540.906 35.1797 541.172 34.8359L542.055 35.5234C541.346 36.612 540.284 37.1562 538.867 37.1562ZM538.688 29.5781C538.104 29.5781 537.615 29.7917 537.219 30.2188C536.823 30.6406 536.578 31.2344 536.484 32H540.719V31.8906C540.677 31.1562 540.479 30.5885 540.125 30.1875C539.771 29.7812 539.292 29.5781 538.688 29.5781ZM547.93 29.8438C547.711 29.8073 547.474 29.7891 547.219 29.7891C546.271 29.7891 545.628 30.1927 545.289 31V37H543.844V28.5469H545.25L545.273 29.5234C545.747 28.7682 546.419 28.3906 547.289 28.3906C547.57 28.3906 547.784 28.4271 547.93 28.5V29.8438ZM559.742 34.0312H554.977L553.906 37H552.359L556.703 25.625H558.016L562.367 37H560.828L559.742 34.0312ZM555.43 32.7969H559.297L557.359 27.4766L555.43 32.7969ZM565.398 32.5469V37H563.898V25.625H568.094C569.339 25.625 570.312 25.9427 571.016 26.5781C571.724 27.2135 572.078 28.0547 572.078 29.1016C572.078 30.2057 571.732 31.0573 571.039 31.6562C570.352 32.25 569.365 32.5469 568.078 32.5469H565.398ZM565.398 31.3203H568.094C568.896 31.3203 569.51 31.1328 569.938 30.7578C570.365 30.3776 570.578 29.8307 570.578 29.1172C570.578 28.4401 570.365 27.8984 569.938 27.4922C569.51 27.0859 568.924 26.875 568.18 26.8594H565.398V31.3203ZM575.602 37H574.102V25.625H575.602V37Z" fill="#5452F6"/>
<g clip-path="url(#clip0)">
<path d="M546.5 52.0054H520.5C519.395 52.0054 518.5 52.9008 518.5 54.0054V80.0054C518.5 81.1099 519.395 82.0054 520.5 82.0054H546.5C547.605 82.0054 548.5 81.1099 548.5 80.0054V54.0054C548.5 52.9008 547.605 52.0054 546.5 52.0054Z" stroke="#5452F6" stroke-width="1.5" stroke-linecap="round" stroke-linejoin="round"/>
<path d="M525.5 75V67C525.5 66.4696 525.711 65.9609 526.086 65.5858C526.461 65.2107 526.97 65 527.5 65C528.03 65 528.539 65.2107 528.914 65.5858C529.289 65.9609 529.5 66.4696 529.5 67V75" stroke="#5452F6" stroke-width="1.5" stroke-linecap="round" stroke-linejoin="round"/>
<path d="M533.5 65H534.5C535.296 65 536.059 65.3161 536.621 65.8787C537.184 66.4413 537.5 67.2044 537.5 68C537.5 68.7956 537.184 69.5587 536.621 70.1213C536.059 70.6839 535.296 71 534.5 71H533.5" stroke="#5452F6" stroke-width="1.5" stroke-linecap="round" stroke-linejoin="round"/>
<path d="M525.5 71.0054H529.5" stroke="#5452F6" stroke-width="1.5" stroke-linecap="round" stroke-linejoin="round"/>
<path d="M541.5 75.0054V65.0054" stroke="#5452F6" stroke-width="1.5" stroke-linecap="round" stroke-linejoin="round"/>
<path d="M533.5 75.0054V65.0054" stroke="#5452F6" stroke-width="1.5" stroke-linecap="round" stroke-linejoin="round"/>
</g>
<rect x="468.5" y="0.5" width="130" height="104" rx="7.5" stroke="#5452F6"/>
</g>
<path d="M169 231V231C169 231.552 169.448 232 170 232H228.5" stroke="#2097F6" stroke-width="2" stroke-linecap="round" stroke-linejoin="round"/>
<path d="M220 222.974L230 232.231L220 241" stroke="#2097F6" stroke-width="2" stroke-linecap="round" stroke-linejoin="round"/>
<path d="M406 231V231C406 231.552 406.448 232 407 232H465" stroke="#FF5A43" stroke-width="2" stroke-linecap="round" stroke-linejoin="round"/>
<path d="M457 222.974L467 232.231L457 241" stroke="#FF5A43" stroke-width="2" stroke-linecap="round" stroke-linejoin="round"/>
<path d="M533 172V172C533.552 172 534 171.552 534 171V112.5" stroke="#65BF73" stroke-width="2" stroke-linecap="round" stroke-linejoin="round"/>
<path d="M524.987 119.988L534.243 109.988L543.012 119.988" stroke="#65BF73" stroke-width="2" stroke-linecap="round" stroke-linejoin="round"/>
<path d="M723 172V172C723.552 172 724 171.552 724 171V112.5" stroke="#65BF73" stroke-width="2" stroke-linecap="round" stroke-linejoin="round"/>
<path d="M714.987 119.988L724.243 109.988L733.012 119.988" stroke="#65BF73" stroke-width="2" stroke-linecap="round" stroke-linejoin="round"/>
<path d="M923 172V172C923.552 172 924 171.552 924 171V112.5" stroke="#65BF73" stroke-width="2" stroke-linecap="round" stroke-linejoin="round"/>
<path d="M914.987 119.988L924.243 109.988L933.012 119.988" stroke="#65BF73" stroke-width="2" stroke-linecap="round" stroke-linejoin="round"/>
<path d="M719 359V359C719.552 359 720 358.552 720 358V299.5" stroke="#FF5A43" stroke-width="2" stroke-linecap="round" stroke-linejoin="round"/>
<path d="M710.987 306.988L720.243 296.988L729.012 306.988" stroke="#FF5A43" stroke-width="2" stroke-linecap="round" stroke-linejoin="round"/>
<path d="M729.013 350.988L719.756 360.988L710.987 350.988" stroke="#FF5A43" stroke-width="2" stroke-linecap="round" stroke-linejoin="round"/>
<g filter="url(#filter2_d)">
<rect y="177" width="173" height="105" rx="8" fill="#E7F4FF"/>
<path d="M25.0156 203.859H21.3594V214H19.8672V203.859H16.2188V202.625H25.0156V203.859ZM29.2031 214.156C28.0573 214.156 27.125 213.781 26.4062 213.031C25.6875 212.276 25.3281 211.268 25.3281 210.008V209.742C25.3281 208.904 25.487 208.156 25.8047 207.5C26.1276 206.839 26.5755 206.323 27.1484 205.953C27.7266 205.578 28.3516 205.391 29.0234 205.391C30.1224 205.391 30.9766 205.753 31.5859 206.477C32.1953 207.201 32.5 208.237 32.5 209.586V210.188H26.7734C26.7943 211.021 27.0365 211.695 27.5 212.211C27.9688 212.721 28.5625 212.977 29.2812 212.977C29.7917 212.977 30.224 212.872 30.5781 212.664C30.9323 212.456 31.2422 212.18 31.5078 211.836L32.3906 212.523C31.6823 213.612 30.6198 214.156 29.2031 214.156ZM29.0234 206.578C28.4401 206.578 27.9505 206.792 27.5547 207.219C27.1589 207.641 26.9141 208.234 26.8203 209H31.0547V208.891C31.013 208.156 30.8151 207.589 30.4609 207.188C30.1068 206.781 29.6276 206.578 29.0234 206.578ZM35.5391 212.82H40.4844V214H33.7734V212.938L38.4375 206.742H33.8438V205.547H40.25V206.57L35.5391 212.82ZM41.6094 209.695C41.6094 208.867 41.7708 208.122 42.0938 207.461C42.4219 206.799 42.875 206.289 43.4531 205.93C44.0365 205.57 44.7005 205.391 45.4453 205.391C46.5964 205.391 47.526 205.789 48.2344 206.586C48.9479 207.383 49.3047 208.443 49.3047 209.766V209.867C49.3047 210.69 49.1458 211.43 48.8281 212.086C48.5156 212.737 48.0651 213.245 47.4766 213.609C46.8932 213.974 46.2214 214.156 45.4609 214.156C44.3151 214.156 43.3854 213.758 42.6719 212.961C41.9635 212.164 41.6094 211.109 41.6094 209.797V209.695ZM43.0625 209.867C43.0625 210.805 43.2786 211.557 43.7109 212.125C44.1484 212.693 44.7318 212.977 45.4609 212.977C46.1953 212.977 46.7786 212.69 47.2109 212.117C47.6432 211.539 47.8594 210.732 47.8594 209.695C47.8594 208.768 47.638 208.018 47.1953 207.445C46.7578 206.867 46.1745 206.578 45.4453 206.578C44.7318 206.578 44.1562 206.862 43.7188 207.43C43.2812 207.997 43.0625 208.81 43.0625 209.867ZM56.0391 211.758C56.0391 211.367 55.8906 211.065 55.5938 210.852C55.3021 210.633 54.7891 210.445 54.0547 210.289C53.3255 210.133 52.7448 209.945 52.3125 209.727C51.8854 209.508 51.5677 209.247 51.3594 208.945C51.1562 208.643 51.0547 208.284 51.0547 207.867C51.0547 207.174 51.3464 206.589 51.9297 206.109C52.5182 205.63 53.2682 205.391 54.1797 205.391C55.138 205.391 55.9141 205.638 56.5078 206.133C57.1068 206.628 57.4062 207.26 57.4062 208.031H55.9531C55.9531 207.635 55.7839 207.294 55.4453 207.008C55.112 206.721 54.6901 206.578 54.1797 206.578C53.6536 206.578 53.2422 206.693 52.9453 206.922C52.6484 207.151 52.5 207.451 52.5 207.82C52.5 208.169 52.638 208.432 52.9141 208.609C53.1901 208.786 53.6875 208.956 54.4062 209.117C55.1302 209.279 55.7161 209.471 56.1641 209.695C56.612 209.919 56.9427 210.19 57.1562 210.508C57.375 210.82 57.4844 211.203 57.4844 211.656C57.4844 212.411 57.1823 213.018 56.5781 213.477C55.974 213.93 55.1901 214.156 54.2266 214.156C53.5495 214.156 52.9505 214.036 52.4297 213.797C51.9089 213.557 51.5 213.224 51.2031 212.797C50.9115 212.365 50.7656 211.898 50.7656 211.398H52.2109C52.237 211.883 52.4297 212.268 52.7891 212.555C53.1536 212.836 53.6328 212.977 54.2266 212.977C54.7734 212.977 55.2109 212.867 55.5391 212.648C55.8724 212.424 56.0391 212.128 56.0391 211.758ZM69.8438 211.031H65.0781L64.0078 214H62.4609L66.8047 202.625H68.1172L72.4688 214H70.9297L69.8438 211.031ZM65.5312 209.797H69.3984L67.4609 204.477L65.5312 209.797ZM77.8594 206.844C77.6406 206.807 77.4036 206.789 77.1484 206.789C76.2005 206.789 75.5573 207.193 75.2188 208V214H73.7734V205.547H75.1797L75.2031 206.523C75.6771 205.768 76.349 205.391 77.2188 205.391C77.5 205.391 77.7135 205.427 77.8594 205.5V206.844ZM82.4297 212.977C82.9453 212.977 83.3958 212.82 83.7812 212.508C84.1667 212.195 84.3802 211.805 84.4219 211.336H85.7891C85.763 211.82 85.5964 212.281 85.2891 212.719C84.9818 213.156 84.5703 213.505 84.0547 213.766C83.5443 214.026 83.0026 214.156 82.4297 214.156C81.2786 214.156 80.362 213.773 79.6797 213.008C79.0026 212.237 78.6641 211.185 78.6641 209.852V209.609C78.6641 208.786 78.8151 208.055 79.1172 207.414C79.4193 206.773 79.8516 206.276 80.4141 205.922C80.9818 205.568 81.651 205.391 82.4219 205.391C83.3698 205.391 84.1562 205.674 84.7812 206.242C85.4115 206.81 85.7474 207.547 85.7891 208.453H84.4219C84.3802 207.906 84.1719 207.458 83.7969 207.109C83.4271 206.755 82.9688 206.578 82.4219 206.578C81.6875 206.578 81.1172 206.844 80.7109 207.375C80.3099 207.901 80.1094 208.664 80.1094 209.664V209.938C80.1094 210.911 80.3099 211.661 80.7109 212.188C81.112 212.714 81.6849 212.977 82.4297 212.977ZM88.8594 206.57C89.5 205.784 90.3333 205.391 91.3594 205.391C93.1458 205.391 94.0469 206.398 94.0625 208.414V214H92.6172V208.406C92.612 207.797 92.4714 207.346 92.1953 207.055C91.9245 206.763 91.5 206.617 90.9219 206.617C90.4531 206.617 90.0417 206.742 89.6875 206.992C89.3333 207.242 89.0573 207.57 88.8594 207.977V214H87.4141V202H88.8594V206.57ZM97.7969 214H96.3516V205.547H97.7969V214ZM96.2344 203.305C96.2344 203.07 96.3047 202.872 96.4453 202.711C96.5911 202.549 96.8047 202.469 97.0859 202.469C97.3672 202.469 97.5807 202.549 97.7266 202.711C97.8724 202.872 97.9453 203.07 97.9453 203.305C97.9453 203.539 97.8724 203.734 97.7266 203.891C97.5807 204.047 97.3672 204.125 97.0859 204.125C96.8047 204.125 96.5911 204.047 96.4453 203.891C96.3047 203.734 96.2344 203.539 96.2344 203.305ZM102.906 212.039L105 205.547H106.477L103.445 214H102.344L99.2812 205.547H100.758L102.906 212.039ZM111.266 214.156C110.12 214.156 109.188 213.781 108.469 213.031C107.75 212.276 107.391 211.268 107.391 210.008V209.742C107.391 208.904 107.549 208.156 107.867 207.5C108.19 206.839 108.638 206.323 109.211 205.953C109.789 205.578 110.414 205.391 111.086 205.391C112.185 205.391 113.039 205.753 113.648 206.477C114.258 207.201 114.562 208.237 114.562 209.586V210.188H108.836C108.857 211.021 109.099 211.695 109.562 212.211C110.031 212.721 110.625 212.977 111.344 212.977C111.854 212.977 112.286 212.872 112.641 212.664C112.995 212.456 113.305 212.18 113.57 211.836L114.453 212.523C113.745 213.612 112.682 214.156 111.266 214.156ZM111.086 206.578C110.503 206.578 110.013 206.792 109.617 207.219C109.221 207.641 108.977 208.234 108.883 209H113.117V208.891C113.076 208.156 112.878 207.589 112.523 207.188C112.169 206.781 111.69 206.578 111.086 206.578ZM129.18 214H127.672L121.945 205.234V214H120.438V202.625H121.945L127.688 211.43V202.625H129.18V214ZM131.234 209.695C131.234 208.867 131.396 208.122 131.719 207.461C132.047 206.799 132.5 206.289 133.078 205.93C133.661 205.57 134.326 205.391 135.07 205.391C136.221 205.391 137.151 205.789 137.859 206.586C138.573 207.383 138.93 208.443 138.93 209.766V209.867C138.93 210.69 138.771 211.43 138.453 212.086C138.141 212.737 137.69 213.245 137.102 213.609C136.518 213.974 135.846 214.156 135.086 214.156C133.94 214.156 133.01 213.758 132.297 212.961C131.589 212.164 131.234 211.109 131.234 209.797V209.695ZM132.688 209.867C132.688 210.805 132.904 211.557 133.336 212.125C133.773 212.693 134.357 212.977 135.086 212.977C135.82 212.977 136.404 212.69 136.836 212.117C137.268 211.539 137.484 210.732 137.484 209.695C137.484 208.768 137.263 208.018 136.82 207.445C136.383 206.867 135.799 206.578 135.07 206.578C134.357 206.578 133.781 206.862 133.344 207.43C132.906 207.997 132.688 208.81 132.688 209.867ZM140.391 209.703C140.391 208.406 140.698 207.365 141.312 206.578C141.927 205.786 142.732 205.391 143.727 205.391C144.716 205.391 145.5 205.729 146.078 206.406V202H147.523V214H146.195L146.125 213.094C145.547 213.802 144.742 214.156 143.711 214.156C142.732 214.156 141.932 213.755 141.312 212.953C140.698 212.151 140.391 211.104 140.391 209.812V209.703ZM141.836 209.867C141.836 210.826 142.034 211.576 142.43 212.117C142.826 212.659 143.372 212.93 144.07 212.93C144.987 212.93 145.656 212.518 146.078 211.695V207.812C145.646 207.016 144.982 206.617 144.086 206.617C143.378 206.617 142.826 206.891 142.43 207.438C142.034 207.984 141.836 208.794 141.836 209.867ZM153.281 214.156C152.135 214.156 151.203 213.781 150.484 213.031C149.766 212.276 149.406 211.268 149.406 210.008V209.742C149.406 208.904 149.565 208.156 149.883 207.5C150.206 206.839 150.654 206.323 151.227 205.953C151.805 205.578 152.43 205.391 153.102 205.391C154.201 205.391 155.055 205.753 155.664 206.477C156.273 207.201 156.578 208.237 156.578 209.586V210.188H150.852C150.872 211.021 151.115 211.695 151.578 212.211C152.047 212.721 152.641 212.977 153.359 212.977C153.87 212.977 154.302 212.872 154.656 212.664C155.01 212.456 155.32 212.18 155.586 211.836L156.469 212.523C155.76 213.612 154.698 214.156 153.281 214.156ZM153.102 206.578C152.518 206.578 152.029 206.792 151.633 207.219C151.237 207.641 150.992 208.234 150.898 209H155.133V208.891C155.091 208.156 154.893 207.589 154.539 207.188C154.185 206.781 153.706 206.578 153.102 206.578Z" fill="#2097F6"/>
<g clip-path="url(#clip1)">
<path d="M86.5 245.453L75.5 240.453V252.453L86.5 257.453V245.453Z" stroke="#2097F6" stroke-width="1.5" stroke-linecap="round" stroke-linejoin="round"/>
<path d="M86.5 245.453L97.5 240.453V252.453L86.5 257.453V245.453Z" stroke="#2097F6" stroke-width="1.5" stroke-linecap="round" stroke-linejoin="round"/>
<path d="M97.5 240.453L86.5 235.453L75.5 240.453" stroke="#2097F6" stroke-width="1.5" stroke-linecap="round" stroke-linejoin="round"/>
<path d="M86.5 235.453V230.453" stroke="#2097F6" stroke-width="1.5" stroke-linecap="round" stroke-linejoin="round"/>
<path d="M75.5 252.453L71.5 254.453" stroke="#2097F6" stroke-width="1.5" stroke-linecap="round" stroke-linejoin="round"/>
<path d="M97.5 252.453L101.5 254.453" stroke="#2097F6" stroke-width="1.5" stroke-linecap="round" stroke-linejoin="round"/>
</g>
<rect x="0.5" y="177.5" width="172" height="104" rx="7.5" stroke="#2097F6"/>
</g>
<g filter="url(#filter3_d)">
<rect x="231" y="177" width="173" height="105" rx="8" fill="#FFECEA"/>
<path d="M261.523 209.398H258.852V214H257.344V202.625H261.109C262.391 202.625 263.375 202.917 264.062 203.5C264.755 204.083 265.102 204.932 265.102 206.047C265.102 206.755 264.909 207.372 264.523 207.898C264.143 208.424 263.612 208.818 262.93 209.078L265.602 213.906V214H263.992L261.523 209.398ZM258.852 208.172H261.156C261.901 208.172 262.492 207.979 262.93 207.594C263.372 207.208 263.594 206.693 263.594 206.047C263.594 205.344 263.383 204.805 262.961 204.43C262.544 204.055 261.94 203.865 261.148 203.859H258.852V208.172ZM268.711 209.547V214H267.211V202.625H271.406C272.651 202.625 273.625 202.943 274.328 203.578C275.036 204.214 275.391 205.055 275.391 206.102C275.391 207.206 275.044 208.057 274.352 208.656C273.664 209.25 272.677 209.547 271.391 209.547H268.711ZM268.711 208.32H271.406C272.208 208.32 272.823 208.133 273.25 207.758C273.677 207.378 273.891 206.831 273.891 206.117C273.891 205.44 273.677 204.898 273.25 204.492C272.823 204.086 272.237 203.875 271.492 203.859H268.711V208.32ZM285.672 210.391C285.531 211.594 285.086 212.523 284.336 213.18C283.591 213.831 282.599 214.156 281.359 214.156C280.016 214.156 278.938 213.674 278.125 212.711C277.318 211.747 276.914 210.458 276.914 208.844V207.75C276.914 206.693 277.102 205.763 277.477 204.961C277.857 204.159 278.393 203.544 279.086 203.117C279.779 202.685 280.581 202.469 281.492 202.469C282.701 202.469 283.669 202.807 284.398 203.484C285.128 204.156 285.552 205.089 285.672 206.281H284.164C284.034 205.375 283.75 204.719 283.312 204.312C282.88 203.906 282.273 203.703 281.492 203.703C280.534 203.703 279.781 204.057 279.234 204.766C278.693 205.474 278.422 206.482 278.422 207.789V208.891C278.422 210.125 278.68 211.107 279.195 211.836C279.711 212.565 280.432 212.93 281.359 212.93C282.193 212.93 282.831 212.742 283.273 212.367C283.721 211.987 284.018 211.328 284.164 210.391H285.672ZM293.195 209.547V214H291.695V202.625H295.891C297.135 202.625 298.109 202.943 298.812 203.578C299.521 204.214 299.875 205.055 299.875 206.102C299.875 207.206 299.529 208.057 298.836 208.656C298.148 209.25 297.161 209.547 295.875 209.547H293.195ZM293.195 208.32H295.891C296.693 208.32 297.307 208.133 297.734 207.758C298.161 207.378 298.375 206.831 298.375 206.117C298.375 205.44 298.161 204.898 297.734 204.492C297.307 204.086 296.721 203.875 295.977 203.859H293.195V208.32ZM305.648 206.844C305.43 206.807 305.193 206.789 304.938 206.789C303.99 206.789 303.346 207.193 303.008 208V214H301.562V205.547H302.969L302.992 206.523C303.466 205.768 304.138 205.391 305.008 205.391C305.289 205.391 305.503 205.427 305.648 205.5V206.844ZM306.445 209.695C306.445 208.867 306.607 208.122 306.93 207.461C307.258 206.799 307.711 206.289 308.289 205.93C308.872 205.57 309.536 205.391 310.281 205.391C311.432 205.391 312.362 205.789 313.07 206.586C313.784 207.383 314.141 208.443 314.141 209.766V209.867C314.141 210.69 313.982 211.43 313.664 212.086C313.352 212.737 312.901 213.245 312.312 213.609C311.729 213.974 311.057 214.156 310.297 214.156C309.151 214.156 308.221 213.758 307.508 212.961C306.799 212.164 306.445 211.109 306.445 209.797V209.695ZM307.898 209.867C307.898 210.805 308.115 211.557 308.547 212.125C308.984 212.693 309.568 212.977 310.297 212.977C311.031 212.977 311.615 212.69 312.047 212.117C312.479 211.539 312.695 210.732 312.695 209.695C312.695 208.768 312.474 208.018 312.031 207.445C311.594 206.867 311.01 206.578 310.281 206.578C309.568 206.578 308.992 206.862 308.555 207.43C308.117 207.997 307.898 208.81 307.898 209.867ZM318.617 208.633L320.492 205.547H322.18L319.414 209.727L322.266 214H320.594L318.641 210.836L316.688 214H315.008L317.859 209.727L315.094 205.547H316.766L318.617 208.633ZM326.484 211.883L328.453 205.547H330L326.602 215.305C326.076 216.711 325.24 217.414 324.094 217.414L323.82 217.391L323.281 217.289V216.117L323.672 216.148C324.161 216.148 324.542 216.049 324.812 215.852C325.089 215.654 325.315 215.292 325.492 214.766L325.812 213.906L322.797 205.547H324.375L326.484 211.883ZM343.859 210.391C343.719 211.594 343.273 212.523 342.523 213.18C341.779 213.831 340.786 214.156 339.547 214.156C338.203 214.156 337.125 213.674 336.312 212.711C335.505 211.747 335.102 210.458 335.102 208.844V207.75C335.102 206.693 335.289 205.763 335.664 204.961C336.044 204.159 336.581 203.544 337.273 203.117C337.966 202.685 338.768 202.469 339.68 202.469C340.888 202.469 341.857 202.807 342.586 203.484C343.315 204.156 343.74 205.089 343.859 206.281H342.352C342.221 205.375 341.938 204.719 341.5 204.312C341.068 203.906 340.461 203.703 339.68 203.703C338.721 203.703 337.969 204.057 337.422 204.766C336.88 205.474 336.609 206.482 336.609 207.789V208.891C336.609 210.125 336.867 211.107 337.383 211.836C337.898 212.565 338.62 212.93 339.547 212.93C340.38 212.93 341.018 212.742 341.461 212.367C341.909 211.987 342.206 211.328 342.352 210.391H343.859ZM350.906 214C350.823 213.833 350.755 213.536 350.703 213.109C350.031 213.807 349.229 214.156 348.297 214.156C347.464 214.156 346.779 213.922 346.242 213.453C345.711 212.979 345.445 212.38 345.445 211.656C345.445 210.776 345.779 210.094 346.445 209.609C347.117 209.12 348.06 208.875 349.273 208.875H350.68V208.211C350.68 207.706 350.529 207.305 350.227 207.008C349.924 206.706 349.479 206.555 348.891 206.555C348.375 206.555 347.943 206.685 347.594 206.945C347.245 207.206 347.07 207.521 347.07 207.891H345.617C345.617 207.469 345.766 207.062 346.062 206.672C346.365 206.276 346.771 205.964 347.281 205.734C347.797 205.505 348.362 205.391 348.977 205.391C349.951 205.391 350.714 205.635 351.266 206.125C351.818 206.609 352.104 207.279 352.125 208.133V212.023C352.125 212.799 352.224 213.417 352.422 213.875V214H350.906ZM348.508 212.898C348.961 212.898 349.391 212.781 349.797 212.547C350.203 212.312 350.497 212.008 350.68 211.633V209.898H349.547C347.776 209.898 346.891 210.417 346.891 211.453C346.891 211.906 347.042 212.26 347.344 212.516C347.646 212.771 348.034 212.898 348.508 212.898ZM357.781 212.977C358.297 212.977 358.747 212.82 359.133 212.508C359.518 212.195 359.732 211.805 359.773 211.336H361.141C361.115 211.82 360.948 212.281 360.641 212.719C360.333 213.156 359.922 213.505 359.406 213.766C358.896 214.026 358.354 214.156 357.781 214.156C356.63 214.156 355.714 213.773 355.031 213.008C354.354 212.237 354.016 211.185 354.016 209.852V209.609C354.016 208.786 354.167 208.055 354.469 207.414C354.771 206.773 355.203 206.276 355.766 205.922C356.333 205.568 357.003 205.391 357.773 205.391C358.721 205.391 359.508 205.674 360.133 206.242C360.763 206.81 361.099 207.547 361.141 208.453H359.773C359.732 207.906 359.523 207.458 359.148 207.109C358.779 206.755 358.32 206.578 357.773 206.578C357.039 206.578 356.469 206.844 356.062 207.375C355.661 207.901 355.461 208.664 355.461 209.664V209.938C355.461 210.911 355.661 211.661 356.062 212.188C356.464 212.714 357.036 212.977 357.781 212.977ZM364.211 206.57C364.852 205.784 365.685 205.391 366.711 205.391C368.497 205.391 369.398 206.398 369.414 208.414V214H367.969V208.406C367.964 207.797 367.823 207.346 367.547 207.055C367.276 206.763 366.852 206.617 366.273 206.617C365.805 206.617 365.393 206.742 365.039 206.992C364.685 207.242 364.409 207.57 364.211 207.977V214H362.766V202H364.211V206.57ZM375.086 214.156C373.94 214.156 373.008 213.781 372.289 213.031C371.57 212.276 371.211 211.268 371.211 210.008V209.742C371.211 208.904 371.37 208.156 371.688 207.5C372.01 206.839 372.458 206.323 373.031 205.953C373.609 205.578 374.234 205.391 374.906 205.391C376.005 205.391 376.859 205.753 377.469 206.477C378.078 207.201 378.383 208.237 378.383 209.586V210.188H372.656C372.677 211.021 372.919 211.695 373.383 212.211C373.852 212.721 374.445 212.977 375.164 212.977C375.674 212.977 376.107 212.872 376.461 212.664C376.815 212.456 377.125 212.18 377.391 211.836L378.273 212.523C377.565 213.612 376.503 214.156 375.086 214.156ZM374.906 206.578C374.323 206.578 373.833 206.792 373.438 207.219C373.042 207.641 372.797 208.234 372.703 209H376.938V208.891C376.896 208.156 376.698 207.589 376.344 207.188C375.99 206.781 375.51 206.578 374.906 206.578Z" fill="#FF5A43"/>
<path d="M313.633 243.505C313.534 243.506 313.438 243.536 313.356 243.592C313.274 243.648 313.211 243.726 313.174 243.818C313.137 243.91 313.128 244.01 313.148 244.107C313.168 244.204 313.217 244.293 313.287 244.362C313.358 244.431 313.447 244.478 313.545 244.497C313.642 244.515 313.742 244.504 313.833 244.465C313.924 244.427 314.002 244.362 314.056 244.279C314.11 244.196 314.138 244.099 314.137 244C314.138 243.934 314.125 243.869 314.1 243.808C314.075 243.748 314.038 243.693 313.991 243.646C313.945 243.6 313.89 243.563 313.829 243.538C313.768 243.513 313.703 243.5 313.637 243.5V243.5" stroke="#FF5A43" stroke-width="1.5" stroke-linecap="round" stroke-linejoin="round"/>
<path d="M322.5 232H328.5C329.03 232 329.539 232.211 329.914 232.586C330.289 232.961 330.5 233.47 330.5 234V254C330.5 254.53 330.289 255.039 329.914 255.414C329.539 255.789 329.03 256 328.5 256H322.5" stroke="#FF5A43" stroke-width="1.5" stroke-linecap="round" stroke-linejoin="round"/>
<path d="M317.359 258.995L305.359 257.28C305.12 257.246 304.902 257.128 304.744 256.946C304.587 256.764 304.5 256.531 304.5 256.291V232.967C304.5 232.738 304.578 232.516 304.722 232.338C304.866 232.159 305.067 232.036 305.291 231.988L317.291 229.027C317.437 228.996 317.588 228.997 317.733 229.032C317.878 229.067 318.013 229.133 318.129 229.227C318.245 229.321 318.339 229.44 318.403 229.574C318.467 229.709 318.5 229.856 318.5 230.005V258.005C318.5 258.149 318.469 258.29 318.41 258.42C318.35 258.551 318.263 258.667 318.155 258.76C318.047 258.854 317.92 258.924 317.782 258.964C317.645 259.005 317.5 259.015 317.359 258.995V258.995Z" stroke="#FF5A43" stroke-width="1.5" stroke-linecap="round" stroke-linejoin="round"/>
<rect x="231.5" y="177.5" width="172" height="104" rx="7.5" stroke="#FF5A43"/>
</g>
<g filter="url(#filter4_d)">
<rect x="468" y="168" width="512" height="124" rx="8" fill="#E5FDE8"/>
<path d="M654.398 205V193.625H658.383C659.763 193.625 660.81 193.891 661.523 194.422C662.237 194.948 662.594 195.721 662.594 196.742C662.594 197.299 662.451 197.792 662.164 198.219C661.878 198.641 661.479 198.951 660.969 199.148C661.552 199.294 662.01 199.589 662.344 200.031C662.682 200.474 662.852 201.016 662.852 201.656C662.852 202.75 662.503 203.578 661.805 204.141C661.107 204.703 660.112 204.99 658.82 205H654.398ZM656.742 200.047V203.117H658.75C659.302 203.117 659.732 202.987 660.039 202.727C660.352 202.461 660.508 202.096 660.508 201.633C660.508 200.591 659.969 200.062 658.891 200.047H656.742ZM656.742 198.391H658.477C659.659 198.37 660.25 197.898 660.25 196.977C660.25 196.461 660.099 196.091 659.797 195.867C659.5 195.638 659.029 195.523 658.383 195.523H656.742V198.391ZM666.852 205H664.586V193H666.852V205ZM668.367 200.695C668.367 199.857 668.529 199.109 668.852 198.453C669.174 197.797 669.638 197.289 670.242 196.93C670.852 196.57 671.557 196.391 672.359 196.391C673.5 196.391 674.43 196.74 675.148 197.438C675.872 198.135 676.276 199.083 676.359 200.281L676.375 200.859C676.375 202.156 676.013 203.198 675.289 203.984C674.565 204.766 673.594 205.156 672.375 205.156C671.156 205.156 670.182 204.766 669.453 203.984C668.729 203.203 668.367 202.141 668.367 200.797V200.695ZM670.625 200.859C670.625 201.661 670.776 202.276 671.078 202.703C671.38 203.125 671.812 203.336 672.375 203.336C672.922 203.336 673.349 203.128 673.656 202.711C673.964 202.289 674.117 201.617 674.117 200.695C674.117 199.909 673.964 199.299 673.656 198.867C673.349 198.435 672.917 198.219 672.359 198.219C671.807 198.219 671.38 198.435 671.078 198.867C670.776 199.294 670.625 199.958 670.625 200.859ZM681.281 203.336C681.698 203.336 682.036 203.221 682.297 202.992C682.557 202.763 682.693 202.458 682.703 202.078H684.82C684.815 202.651 684.659 203.177 684.352 203.656C684.044 204.13 683.622 204.5 683.086 204.766C682.555 205.026 681.966 205.156 681.32 205.156C680.112 205.156 679.159 204.773 678.461 204.008C677.763 203.237 677.414 202.174 677.414 200.82V200.672C677.414 199.37 677.76 198.331 678.453 197.555C679.146 196.779 680.096 196.391 681.305 196.391C682.362 196.391 683.208 196.693 683.844 197.297C684.484 197.896 684.81 198.695 684.82 199.695H682.703C682.693 199.258 682.557 198.904 682.297 198.633C682.036 198.357 681.693 198.219 681.266 198.219C680.74 198.219 680.341 198.411 680.07 198.797C679.805 199.177 679.672 199.797 679.672 200.656V200.891C679.672 201.76 679.805 202.385 680.07 202.766C680.336 203.146 680.74 203.336 681.281 203.336ZM689.18 201.609L688.367 202.422V205H686.109V193H688.367V199.648L688.805 199.086L690.969 196.547H693.68L690.625 200.07L693.945 205H691.352L689.18 201.609ZM702.008 201.93L703.117 196.547H705.297L703.141 205H701.25L699.648 199.68L698.047 205H696.164L694.008 196.547H696.188L697.289 201.922L698.836 196.547H700.469L702.008 201.93ZM711.32 205C711.216 204.797 711.141 204.544 711.094 204.242C710.547 204.852 709.836 205.156 708.961 205.156C708.133 205.156 707.445 204.917 706.898 204.438C706.357 203.958 706.086 203.354 706.086 202.625C706.086 201.729 706.417 201.042 707.078 200.562C707.745 200.083 708.706 199.841 709.961 199.836H711V199.352C711 198.961 710.898 198.648 710.695 198.414C710.497 198.18 710.182 198.062 709.75 198.062C709.37 198.062 709.07 198.154 708.852 198.336C708.638 198.518 708.531 198.768 708.531 199.086H706.273C706.273 198.596 706.424 198.143 706.727 197.727C707.029 197.31 707.456 196.984 708.008 196.75C708.56 196.51 709.18 196.391 709.867 196.391C710.909 196.391 711.734 196.654 712.344 197.18C712.958 197.701 713.266 198.435 713.266 199.383V203.047C713.271 203.849 713.383 204.456 713.602 204.867V205H711.32ZM709.453 203.43C709.786 203.43 710.094 203.357 710.375 203.211C710.656 203.06 710.865 202.859 711 202.609V201.156H710.156C709.026 201.156 708.424 201.547 708.352 202.328L708.344 202.461C708.344 202.742 708.443 202.974 708.641 203.156C708.839 203.339 709.109 203.43 709.453 203.43ZM717.703 194.469V196.547H719.148V198.203H717.703V202.422C717.703 202.734 717.763 202.958 717.883 203.094C718.003 203.229 718.232 203.297 718.57 203.297C718.82 203.297 719.042 203.279 719.234 203.242V204.953C718.792 205.089 718.336 205.156 717.867 205.156C716.284 205.156 715.477 204.357 715.445 202.758V198.203H714.211V196.547H715.445V194.469H717.703ZM723.922 203.336C724.339 203.336 724.677 203.221 724.938 202.992C725.198 202.763 725.333 202.458 725.344 202.078H727.461C727.456 202.651 727.299 203.177 726.992 203.656C726.685 204.13 726.263 204.5 725.727 204.766C725.195 205.026 724.607 205.156 723.961 205.156C722.753 205.156 721.799 204.773 721.102 204.008C720.404 203.237 720.055 202.174 720.055 200.82V200.672C720.055 199.37 720.401 198.331 721.094 197.555C721.786 196.779 722.737 196.391 723.945 196.391C725.003 196.391 725.849 196.693 726.484 197.297C727.125 197.896 727.451 198.695 727.461 199.695H725.344C725.333 199.258 725.198 198.904 724.938 198.633C724.677 198.357 724.333 198.219 723.906 198.219C723.38 198.219 722.982 198.411 722.711 198.797C722.445 199.177 722.312 199.797 722.312 200.656V200.891C722.312 201.76 722.445 202.385 722.711 202.766C722.977 203.146 723.38 203.336 723.922 203.336ZM730.953 197.469C731.552 196.75 732.305 196.391 733.211 196.391C735.044 196.391 735.974 197.456 736 199.586V205H733.742V199.648C733.742 199.164 733.638 198.807 733.43 198.578C733.221 198.344 732.875 198.227 732.391 198.227C731.729 198.227 731.25 198.482 730.953 198.992V205H728.695V193H730.953V197.469ZM744.328 205H741.984V193.625H744.328V205ZM748.438 196.547L748.508 197.523C749.112 196.768 749.922 196.391 750.938 196.391C751.833 196.391 752.5 196.654 752.938 197.18C753.375 197.706 753.599 198.492 753.609 199.539V205H751.352V199.594C751.352 199.115 751.247 198.768 751.039 198.555C750.831 198.336 750.484 198.227 750 198.227C749.365 198.227 748.888 198.497 748.57 199.039V205H746.312V196.547H748.438ZM754.977 200.711C754.977 199.393 755.271 198.344 755.859 197.562C756.453 196.781 757.263 196.391 758.289 196.391C759.112 196.391 759.792 196.698 760.328 197.312V193H762.594V205H760.555L760.445 204.102C759.883 204.805 759.159 205.156 758.273 205.156C757.279 205.156 756.479 204.766 755.875 203.984C755.276 203.198 754.977 202.107 754.977 200.711ZM757.234 200.875C757.234 201.667 757.372 202.273 757.648 202.695C757.924 203.117 758.326 203.328 758.852 203.328C759.549 203.328 760.042 203.034 760.328 202.445V199.109C760.047 198.521 759.56 198.227 758.867 198.227C757.779 198.227 757.234 199.109 757.234 200.875ZM768.234 205.156C766.995 205.156 765.984 204.776 765.203 204.016C764.427 203.255 764.039 202.242 764.039 200.977V200.758C764.039 199.909 764.203 199.151 764.531 198.484C764.859 197.812 765.323 197.297 765.922 196.938C766.526 196.573 767.214 196.391 767.984 196.391C769.141 196.391 770.049 196.755 770.711 197.484C771.378 198.214 771.711 199.247 771.711 200.586V201.508H766.328C766.401 202.06 766.62 202.503 766.984 202.836C767.354 203.169 767.82 203.336 768.383 203.336C769.253 203.336 769.932 203.021 770.422 202.391L771.531 203.633C771.193 204.112 770.734 204.487 770.156 204.758C769.578 205.023 768.938 205.156 768.234 205.156ZM767.977 198.219C767.529 198.219 767.164 198.37 766.883 198.672C766.607 198.974 766.43 199.406 766.352 199.969H769.492V199.789C769.482 199.289 769.346 198.904 769.086 198.633C768.826 198.357 768.456 198.219 767.977 198.219ZM776.219 199.07L777.641 196.547H780.055L777.648 200.688L780.156 205H777.734L776.227 202.344L774.727 205H772.297L774.805 200.688L772.406 196.547H774.828L776.219 199.07ZM784.875 205.156C783.635 205.156 782.625 204.776 781.844 204.016C781.068 203.255 780.68 202.242 780.68 200.977V200.758C780.68 199.909 780.844 199.151 781.172 198.484C781.5 197.812 781.964 197.297 782.562 196.938C783.167 196.573 783.854 196.391 784.625 196.391C785.781 196.391 786.69 196.755 787.352 197.484C788.018 198.214 788.352 199.247 788.352 200.586V201.508H782.969C783.042 202.06 783.26 202.503 783.625 202.836C783.995 203.169 784.461 203.336 785.023 203.336C785.893 203.336 786.573 203.021 787.062 202.391L788.172 203.633C787.833 204.112 787.375 204.487 786.797 204.758C786.219 205.023 785.578 205.156 784.875 205.156ZM784.617 198.219C784.169 198.219 783.805 198.37 783.523 198.672C783.247 198.974 783.07 199.406 782.992 199.969H786.133V199.789C786.122 199.289 785.987 198.904 785.727 198.633C785.466 198.357 785.096 198.219 784.617 198.219ZM794.391 198.664C794.083 198.622 793.812 198.602 793.578 198.602C792.724 198.602 792.164 198.891 791.898 199.469V205H789.641V196.547H791.773L791.836 197.555C792.289 196.779 792.917 196.391 793.719 196.391C793.969 196.391 794.203 196.424 794.422 196.492L794.391 198.664ZM596.977 219.383C596.977 218.206 597.133 217.076 597.445 215.992C597.763 214.909 598.234 213.924 598.859 213.039C599.484 212.154 600.133 211.529 600.805 211.164L601.102 212.117C600.341 212.701 599.716 213.591 599.227 214.789C598.742 215.987 598.477 217.328 598.43 218.812L598.422 219.477C598.422 221.487 598.789 223.232 599.523 224.711C599.966 225.596 600.492 226.289 601.102 226.789L600.805 227.672C600.112 227.286 599.451 226.641 598.82 225.734C597.591 223.964 596.977 221.846 596.977 219.383ZM609.156 218.742H604.227V222.773H609.953V224H602.727V212.625H609.875V213.859H604.227V217.516H609.156V218.742ZM619.836 213.859H616.18V224H614.688V213.859H611.039V212.625H619.836V213.859ZM623.031 222.773H628.422V224H621.523V212.625H623.031V222.773ZM638.016 217.898H641.188V219.266H638.016V222.859H636.562V219.266H633.391V217.898H636.562V214.578H638.016V217.898ZM653.43 221.031H648.664L647.594 224H646.047L650.391 212.625H651.703L656.055 224H654.516L653.43 221.031ZM649.117 219.797H652.984L651.047 214.477L649.117 219.797ZM658.727 215.547L658.773 216.609C659.419 215.797 660.263 215.391 661.305 215.391C663.091 215.391 663.992 216.398 664.008 218.414V224H662.562V218.406C662.557 217.797 662.417 217.346 662.141 217.055C661.87 216.763 661.445 216.617 660.867 216.617C660.398 216.617 659.987 216.742 659.633 216.992C659.279 217.242 659.003 217.57 658.805 217.977V224H657.359V215.547H658.727ZM671.406 224C671.323 223.833 671.255 223.536 671.203 223.109C670.531 223.807 669.729 224.156 668.797 224.156C667.964 224.156 667.279 223.922 666.742 223.453C666.211 222.979 665.945 222.38 665.945 221.656C665.945 220.776 666.279 220.094 666.945 219.609C667.617 219.12 668.56 218.875 669.773 218.875H671.18V218.211C671.18 217.706 671.029 217.305 670.727 217.008C670.424 216.706 669.979 216.555 669.391 216.555C668.875 216.555 668.443 216.685 668.094 216.945C667.745 217.206 667.57 217.521 667.57 217.891H666.117C666.117 217.469 666.266 217.062 666.562 216.672C666.865 216.276 667.271 215.964 667.781 215.734C668.297 215.505 668.862 215.391 669.477 215.391C670.451 215.391 671.214 215.635 671.766 216.125C672.318 216.609 672.604 217.279 672.625 218.133V222.023C672.625 222.799 672.724 223.417 672.922 223.875V224H671.406ZM669.008 222.898C669.461 222.898 669.891 222.781 670.297 222.547C670.703 222.312 670.997 222.008 671.18 221.633V219.898H670.047C668.276 219.898 667.391 220.417 667.391 221.453C667.391 221.906 667.542 222.26 667.844 222.516C668.146 222.771 668.534 222.898 669.008 222.898ZM676.461 224H675.016V212H676.461V224ZM681.547 221.883L683.516 215.547H685.062L681.664 225.305C681.138 226.711 680.302 227.414 679.156 227.414L678.883 227.391L678.344 227.289V226.117L678.734 226.148C679.224 226.148 679.604 226.049 679.875 225.852C680.151 225.654 680.378 225.292 680.555 224.766L680.875 223.906L677.859 215.547H679.438L681.547 221.883ZM687.719 222.82H692.664V224H685.953V222.938L690.617 216.742H686.023V215.547H692.43V216.57L687.719 222.82ZM697.68 224.156C696.534 224.156 695.602 223.781 694.883 223.031C694.164 222.276 693.805 221.268 693.805 220.008V219.742C693.805 218.904 693.964 218.156 694.281 217.5C694.604 216.839 695.052 216.323 695.625 215.953C696.203 215.578 696.828 215.391 697.5 215.391C698.599 215.391 699.453 215.753 700.062 216.477C700.672 217.201 700.977 218.237 700.977 219.586V220.188H695.25C695.271 221.021 695.513 221.695 695.977 222.211C696.445 222.721 697.039 222.977 697.758 222.977C698.268 222.977 698.701 222.872 699.055 222.664C699.409 222.456 699.719 222.18 699.984 221.836L700.867 222.523C700.159 223.612 699.096 224.156 697.68 224.156ZM697.5 216.578C696.917 216.578 696.427 216.792 696.031 217.219C695.635 217.641 695.391 218.234 695.297 219H699.531V218.891C699.49 218.156 699.292 217.589 698.938 217.188C698.583 216.781 698.104 216.578 697.5 216.578ZM709.633 219.758H705.82V218.578H709.633V219.758ZM719.008 222.008L722.258 212.625H723.898L719.68 224H718.352L714.141 212.625H715.773L719.008 222.008ZM728.367 224.156C727.221 224.156 726.289 223.781 725.57 223.031C724.852 222.276 724.492 221.268 724.492 220.008V219.742C724.492 218.904 724.651 218.156 724.969 217.5C725.292 216.839 725.74 216.323 726.312 215.953C726.891 215.578 727.516 215.391 728.188 215.391C729.286 215.391 730.141 215.753 730.75 216.477C731.359 217.201 731.664 218.237 731.664 219.586V220.188H725.938C725.958 221.021 726.201 221.695 726.664 222.211C727.133 222.721 727.727 222.977 728.445 222.977C728.956 222.977 729.388 222.872 729.742 222.664C730.096 222.456 730.406 222.18 730.672 221.836L731.555 222.523C730.846 223.612 729.784 224.156 728.367 224.156ZM728.188 216.578C727.604 216.578 727.115 216.792 726.719 217.219C726.323 217.641 726.078 218.234 725.984 219H730.219V218.891C730.177 218.156 729.979 217.589 729.625 217.188C729.271 216.781 728.792 216.578 728.188 216.578ZM737.43 216.844C737.211 216.807 736.974 216.789 736.719 216.789C735.771 216.789 735.128 217.193 734.789 218V224H733.344V215.547H734.75L734.773 216.523C735.247 215.768 735.919 215.391 736.789 215.391C737.07 215.391 737.284 215.427 737.43 215.5V216.844ZM740.336 224H738.891V215.547H740.336V224ZM738.773 213.305C738.773 213.07 738.844 212.872 738.984 212.711C739.13 212.549 739.344 212.469 739.625 212.469C739.906 212.469 740.12 212.549 740.266 212.711C740.411 212.872 740.484 213.07 740.484 213.305C740.484 213.539 740.411 213.734 740.266 213.891C740.12 214.047 739.906 214.125 739.625 214.125C739.344 214.125 739.13 214.047 738.984 213.891C738.844 213.734 738.773 213.539 738.773 213.305ZM743.367 224V216.664H742.031V215.547H743.367V214.68C743.367 213.773 743.609 213.073 744.094 212.578C744.578 212.083 745.263 211.836 746.148 211.836C746.482 211.836 746.812 211.88 747.141 211.969L747.062 213.141C746.818 213.094 746.557 213.07 746.281 213.07C745.812 213.07 745.451 213.208 745.195 213.484C744.94 213.755 744.812 214.146 744.812 214.656V215.547H746.617V216.664H744.812V224H743.367ZM750.984 221.883L752.953 215.547H754.5L751.102 225.305C750.576 226.711 749.74 227.414 748.594 227.414L748.32 227.391L747.781 227.289V226.117L748.172 226.148C748.661 226.148 749.042 226.049 749.312 225.852C749.589 225.654 749.815 225.292 749.992 224.766L750.312 223.906L747.297 215.547H748.875L750.984 221.883ZM762.773 219.758H758.961V218.578H762.773V219.758ZM772.555 219.398H769.883V224H768.375V212.625H772.141C773.422 212.625 774.406 212.917 775.094 213.5C775.786 214.083 776.133 214.932 776.133 216.047C776.133 216.755 775.94 217.372 775.555 217.898C775.174 218.424 774.643 218.818 773.961 219.078L776.633 223.906V224H775.023L772.555 219.398ZM769.883 218.172H772.188C772.932 218.172 773.523 217.979 773.961 217.594C774.404 217.208 774.625 216.693 774.625 216.047C774.625 215.344 774.414 214.805 773.992 214.43C773.576 214.055 772.971 213.865 772.18 213.859H769.883V218.172ZM781.523 224.156C780.378 224.156 779.445 223.781 778.727 223.031C778.008 222.276 777.648 221.268 777.648 220.008V219.742C777.648 218.904 777.807 218.156 778.125 217.5C778.448 216.839 778.896 216.323 779.469 215.953C780.047 215.578 780.672 215.391 781.344 215.391C782.443 215.391 783.297 215.753 783.906 216.477C784.516 217.201 784.82 218.237 784.82 219.586V220.188H779.094C779.115 221.021 779.357 221.695 779.82 222.211C780.289 222.721 780.883 222.977 781.602 222.977C782.112 222.977 782.544 222.872 782.898 222.664C783.253 222.456 783.562 222.18 783.828 221.836L784.711 222.523C784.003 223.612 782.94 224.156 781.523 224.156ZM781.344 216.578C780.76 216.578 780.271 216.792 779.875 217.219C779.479 217.641 779.234 218.234 779.141 219H783.375V218.891C783.333 218.156 783.135 217.589 782.781 217.188C782.427 216.781 781.948 216.578 781.344 216.578ZM786.117 219.695C786.117 218.867 786.279 218.122 786.602 217.461C786.93 216.799 787.383 216.289 787.961 215.93C788.544 215.57 789.208 215.391 789.953 215.391C791.104 215.391 792.034 215.789 792.742 216.586C793.456 217.383 793.812 218.443 793.812 219.766V219.867C793.812 220.69 793.654 221.43 793.336 222.086C793.023 222.737 792.573 223.245 791.984 223.609C791.401 223.974 790.729 224.156 789.969 224.156C788.823 224.156 787.893 223.758 787.18 222.961C786.471 222.164 786.117 221.109 786.117 219.797V219.695ZM787.57 219.867C787.57 220.805 787.786 221.557 788.219 222.125C788.656 222.693 789.24 222.977 789.969 222.977C790.703 222.977 791.286 222.69 791.719 222.117C792.151 221.539 792.367 220.732 792.367 219.695C792.367 218.768 792.146 218.018 791.703 217.445C791.266 216.867 790.682 216.578 789.953 216.578C789.24 216.578 788.664 216.862 788.227 217.43C787.789 217.997 787.57 218.81 787.57 219.867ZM799.711 216.844C799.492 216.807 799.255 216.789 799 216.789C798.052 216.789 797.409 217.193 797.07 218V224H795.625V215.547H797.031L797.055 216.523C797.529 215.768 798.201 215.391 799.07 215.391C799.352 215.391 799.565 215.427 799.711 215.5V216.844ZM800.547 219.703C800.547 218.385 800.852 217.339 801.461 216.562C802.07 215.781 802.878 215.391 803.883 215.391C804.914 215.391 805.719 215.755 806.297 216.484L806.367 215.547H807.688V223.797C807.688 224.891 807.362 225.753 806.711 226.383C806.065 227.013 805.195 227.328 804.102 227.328C803.492 227.328 802.896 227.198 802.312 226.938C801.729 226.677 801.284 226.32 800.977 225.867L801.727 225C802.346 225.766 803.104 226.148 804 226.148C804.703 226.148 805.25 225.951 805.641 225.555C806.036 225.159 806.234 224.602 806.234 223.883V223.156C805.656 223.823 804.867 224.156 803.867 224.156C802.878 224.156 802.076 223.758 801.461 222.961C800.852 222.164 800.547 221.078 800.547 219.703ZM802 219.867C802 220.82 802.195 221.57 802.586 222.117C802.977 222.659 803.523 222.93 804.227 222.93C805.138 222.93 805.807 222.516 806.234 221.688V217.828C805.792 217.021 805.128 216.617 804.242 216.617C803.539 216.617 802.99 216.891 802.594 217.438C802.198 217.984 802 218.794 802 219.867ZM815.094 224C815.01 223.833 814.943 223.536 814.891 223.109C814.219 223.807 813.417 224.156 812.484 224.156C811.651 224.156 810.966 223.922 810.43 223.453C809.898 222.979 809.633 222.38 809.633 221.656C809.633 220.776 809.966 220.094 810.633 219.609C811.305 219.12 812.247 218.875 813.461 218.875H814.867V218.211C814.867 217.706 814.716 217.305 814.414 217.008C814.112 216.706 813.667 216.555 813.078 216.555C812.562 216.555 812.13 216.685 811.781 216.945C811.432 217.206 811.258 217.521 811.258 217.891H809.805C809.805 217.469 809.953 217.062 810.25 216.672C810.552 216.276 810.958 215.964 811.469 215.734C811.984 215.505 812.549 215.391 813.164 215.391C814.138 215.391 814.901 215.635 815.453 216.125C816.005 216.609 816.292 217.279 816.312 218.133V222.023C816.312 222.799 816.411 223.417 816.609 223.875V224H815.094ZM812.695 222.898C813.148 222.898 813.578 222.781 813.984 222.547C814.391 222.312 814.685 222.008 814.867 221.633V219.898H813.734C811.964 219.898 811.078 220.417 811.078 221.453C811.078 221.906 811.229 222.26 811.531 222.516C811.833 222.771 812.221 222.898 812.695 222.898ZM819.945 215.547L819.992 216.609C820.638 215.797 821.482 215.391 822.523 215.391C824.31 215.391 825.211 216.398 825.227 218.414V224H823.781V218.406C823.776 217.797 823.635 217.346 823.359 217.055C823.089 216.763 822.664 216.617 822.086 216.617C821.617 216.617 821.206 216.742 820.852 216.992C820.497 217.242 820.221 217.57 820.023 217.977V224H818.578V215.547H819.945ZM828.977 224H827.531V215.547H828.977V224ZM827.414 213.305C827.414 213.07 827.484 212.872 827.625 212.711C827.771 212.549 827.984 212.469 828.266 212.469C828.547 212.469 828.76 212.549 828.906 212.711C829.052 212.872 829.125 213.07 829.125 213.305C829.125 213.539 829.052 213.734 828.906 213.891C828.76 214.047 828.547 214.125 828.266 214.125C827.984 214.125 827.771 214.047 827.625 213.891C827.484 213.734 827.414 213.539 827.414 213.305ZM832.656 222.82H837.602V224H830.891V222.938L835.555 216.742H830.961V215.547H837.367V216.57L832.656 222.82ZM842.617 224.156C841.471 224.156 840.539 223.781 839.82 223.031C839.102 222.276 838.742 221.268 838.742 220.008V219.742C838.742 218.904 838.901 218.156 839.219 217.5C839.542 216.839 839.99 216.323 840.562 215.953C841.141 215.578 841.766 215.391 842.438 215.391C843.536 215.391 844.391 215.753 845 216.477C845.609 217.201 845.914 218.237 845.914 219.586V220.188H840.188C840.208 221.021 840.451 221.695 840.914 222.211C841.383 222.721 841.977 222.977 842.695 222.977C843.206 222.977 843.638 222.872 843.992 222.664C844.346 222.456 844.656 222.18 844.922 221.836L845.805 222.523C845.096 223.612 844.034 224.156 842.617 224.156ZM842.438 216.578C841.854 216.578 841.365 216.792 840.969 217.219C840.573 217.641 840.328 218.234 840.234 219H844.469V218.891C844.427 218.156 844.229 217.589 843.875 217.188C843.521 216.781 843.042 216.578 842.438 216.578ZM850.93 219.461C850.93 220.622 850.776 221.737 850.469 222.805C850.167 223.867 849.701 224.849 849.07 225.75C848.445 226.651 847.789 227.292 847.102 227.672L846.797 226.789C847.599 226.174 848.242 225.221 848.727 223.93C849.216 222.633 849.466 221.195 849.477 219.617V219.367C849.477 218.273 849.362 217.258 849.133 216.32C848.904 215.378 848.583 214.534 848.172 213.789C847.766 213.044 847.307 212.464 846.797 212.047L847.102 211.164C847.789 211.544 848.443 212.18 849.062 213.07C849.688 213.961 850.154 214.943 850.461 216.016C850.773 217.089 850.93 218.237 850.93 219.461Z" fill="#65BF73"/>
<path d="M724 268.4V245.183C724 245.183 720.727 241.547 709.691 241.4C709.6 241.399 709.51 241.416 709.425 241.451C709.341 241.485 709.265 241.536 709.2 241.6C709.07 241.731 708.998 241.909 708.998 242.093V263.925C708.996 264.105 709.065 264.278 709.19 264.408C709.314 264.537 709.485 264.613 709.664 264.619C720.724 264.761 724 268.4 724 268.4Z" stroke="#65BF73" stroke-width="1.5" stroke-linecap="round" stroke-linejoin="round"/>
<path d="M720 253.807C717.731 253.043 715.375 252.571 712.987 252.4" stroke="#65BF73" stroke-width="1.5" stroke-linecap="round" stroke-linejoin="round"/>
<path d="M720 259.4C717.731 258.64 715.374 258.169 712.987 258" stroke="#65BF73" stroke-width="1.5" stroke-linecap="round" stroke-linejoin="round"/>
<path d="M728 253.807C730.269 253.043 732.626 252.571 735.013 252.4" stroke="#65BF73" stroke-width="1.5" stroke-linecap="round" stroke-linejoin="round"/>
<path d="M728 259.4C730.269 258.64 732.626 258.169 735.013 258" stroke="#65BF73" stroke-width="1.5" stroke-linecap="round" stroke-linejoin="round"/>
<path d="M735.013 241.56C736.027 241.472 737.123 241.416 738.309 241.4C738.4 241.399 738.49 241.417 738.573 241.451C738.657 241.485 738.733 241.536 738.797 241.6C738.927 241.731 739 241.909 739 242.093V263.925C739.001 264.105 738.933 264.278 738.808 264.408C738.683 264.537 738.513 264.613 738.333 264.619C727.276 264.761 724 268.4 724 268.4" stroke="#65BF73" stroke-width="1.5" stroke-linecap="round" stroke-linejoin="round"/>
<path d="M724 268.4V245.183C724 245.183 725.524 243.489 730 242.368" stroke="#65BF73" stroke-width="1.5" stroke-linecap="round" stroke-linejoin="round"/>
<path d="M735 248.4V239.6C733.315 239.734 731.643 240.002 730 240.4V248.4L732.5 246.4L735 248.4Z" stroke="#65BF73" stroke-width="1.5" stroke-linecap="round" stroke-linejoin="round"/>
<rect x="468.5" y="168.5" width="511" height="123" rx="7.5" stroke="#65BF73"/>
</g>
<g filter="url(#filter5_d)">
<rect x="849" width="131" height="105" rx="8" fill="#EEEEFF"/>
<path d="M867.047 26.8594H863.391V37H861.898V26.8594H858.25V25.625H867.047V26.8594ZM870.078 37H868.633V28.5469H870.078V37ZM868.516 26.3047C868.516 26.0703 868.586 25.8724 868.727 25.7109C868.872 25.5495 869.086 25.4688 869.367 25.4688C869.648 25.4688 869.862 25.5495 870.008 25.7109C870.154 25.8724 870.227 26.0703 870.227 26.3047C870.227 26.5391 870.154 26.7344 870.008 26.8906C869.862 27.0469 869.648 27.125 869.367 27.125C869.086 27.125 868.872 27.0469 868.727 26.8906C868.586 26.7344 868.516 26.5391 868.516 26.3047ZM873.758 28.5469L873.797 29.4844C874.417 28.7552 875.253 28.3906 876.305 28.3906C877.487 28.3906 878.292 28.8438 878.719 29.75C879 29.3438 879.365 29.0156 879.812 28.7656C880.266 28.5156 880.799 28.3906 881.414 28.3906C883.268 28.3906 884.211 29.3724 884.242 31.3359V37H882.797V31.4219C882.797 30.8177 882.659 30.3672 882.383 30.0703C882.107 29.7682 881.643 29.6172 880.992 29.6172C880.456 29.6172 880.01 29.7786 879.656 30.1016C879.302 30.4193 879.096 30.849 879.039 31.3906V37H877.586V31.4609C877.586 30.2318 876.984 29.6172 875.781 29.6172C874.833 29.6172 874.185 30.0208 873.836 30.8281V37H872.391V28.5469H873.758ZM889.938 37.1562C888.792 37.1562 887.859 36.7812 887.141 36.0312C886.422 35.276 886.062 34.2682 886.062 33.0078V32.7422C886.062 31.9036 886.221 31.1562 886.539 30.5C886.862 29.8385 887.31 29.3229 887.883 28.9531C888.461 28.5781 889.086 28.3906 889.758 28.3906C890.857 28.3906 891.711 28.7526 892.32 29.4766C892.93 30.2005 893.234 31.237 893.234 32.5859V33.1875H887.508C887.529 34.0208 887.771 34.6953 888.234 35.2109C888.703 35.7214 889.297 35.9766 890.016 35.9766C890.526 35.9766 890.958 35.8724 891.312 35.6641C891.667 35.4557 891.977 35.1797 892.242 34.8359L893.125 35.5234C892.417 36.612 891.354 37.1562 889.938 37.1562ZM889.758 29.5781C889.174 29.5781 888.685 29.7917 888.289 30.2188C887.893 30.6406 887.648 31.2344 887.555 32H891.789V31.8906C891.747 31.1562 891.549 30.5885 891.195 30.1875C890.841 29.7812 890.362 29.5781 889.758 29.5781ZM897.922 32.7578H894.109V31.5781H897.922V32.7578ZM902.914 31.9297C901.628 31.5599 900.69 31.1068 900.102 30.5703C899.518 30.0286 899.227 29.362 899.227 28.5703C899.227 27.6745 899.583 26.9349 900.297 26.3516C901.016 25.763 901.948 25.4688 903.094 25.4688C903.875 25.4688 904.57 25.6198 905.18 25.9219C905.794 26.224 906.268 26.6406 906.602 27.1719C906.94 27.7031 907.109 28.2839 907.109 28.9141H905.602C905.602 28.2266 905.383 27.6875 904.945 27.2969C904.508 26.901 903.891 26.7031 903.094 26.7031C902.354 26.7031 901.776 26.8672 901.359 27.1953C900.948 27.5182 900.742 27.9688 900.742 28.5469C900.742 29.0104 900.938 29.4036 901.328 29.7266C901.724 30.0443 902.393 30.3359 903.336 30.6016C904.284 30.8672 905.023 31.1615 905.555 31.4844C906.091 31.8021 906.487 32.1745 906.742 32.6016C907.003 33.0286 907.133 33.5312 907.133 34.1094C907.133 35.0312 906.773 35.7708 906.055 36.3281C905.336 36.8802 904.375 37.1562 903.172 37.1562C902.391 37.1562 901.661 37.0078 900.984 36.7109C900.307 36.4089 899.784 35.9974 899.414 35.4766C899.049 34.9557 898.867 34.3646 898.867 33.7031H900.375C900.375 34.3906 900.628 34.9349 901.133 35.3359C901.643 35.7318 902.323 35.9297 903.172 35.9297C903.964 35.9297 904.57 35.7682 904.992 35.4453C905.414 35.1224 905.625 34.6823 905.625 34.125C905.625 33.5677 905.43 33.138 905.039 32.8359C904.648 32.5286 903.94 32.2266 902.914 31.9297ZM912.344 37.1562C911.198 37.1562 910.266 36.7812 909.547 36.0312C908.828 35.276 908.469 34.2682 908.469 33.0078V32.7422C908.469 31.9036 908.628 31.1562 908.945 30.5C909.268 29.8385 909.716 29.3229 910.289 28.9531C910.867 28.5781 911.492 28.3906 912.164 28.3906C913.263 28.3906 914.117 28.7526 914.727 29.4766C915.336 30.2005 915.641 31.237 915.641 32.5859V33.1875H909.914C909.935 34.0208 910.177 34.6953 910.641 35.2109C911.109 35.7214 911.703 35.9766 912.422 35.9766C912.932 35.9766 913.365 35.8724 913.719 35.6641C914.073 35.4557 914.383 35.1797 914.648 34.8359L915.531 35.5234C914.823 36.612 913.76 37.1562 912.344 37.1562ZM912.164 29.5781C911.581 29.5781 911.091 29.7917 910.695 30.2188C910.299 30.6406 910.055 31.2344 909.961 32H914.195V31.8906C914.154 31.1562 913.956 30.5885 913.602 30.1875C913.247 29.7812 912.768 29.5781 912.164 29.5781ZM921.406 29.8438C921.188 29.8073 920.951 29.7891 920.695 29.7891C919.747 29.7891 919.104 30.1927 918.766 31V37H917.32V28.5469H918.727L918.75 29.5234C919.224 28.7682 919.896 28.3906 920.766 28.3906C921.047 28.3906 921.26 28.4271 921.406 28.5V29.8438ZM924.312 37H922.867V28.5469H924.312V37ZM922.75 26.3047C922.75 26.0703 922.82 25.8724 922.961 25.7109C923.107 25.5495 923.32 25.4688 923.602 25.4688C923.883 25.4688 924.096 25.5495 924.242 25.7109C924.388 25.8724 924.461 26.0703 924.461 26.3047C924.461 26.5391 924.388 26.7344 924.242 26.8906C924.096 27.0469 923.883 27.125 923.602 27.125C923.32 27.125 923.107 27.0469 922.961 26.8906C922.82 26.7344 922.75 26.5391 922.75 26.3047ZM930.141 37.1562C928.995 37.1562 928.062 36.7812 927.344 36.0312C926.625 35.276 926.266 34.2682 926.266 33.0078V32.7422C926.266 31.9036 926.424 31.1562 926.742 30.5C927.065 29.8385 927.513 29.3229 928.086 28.9531C928.664 28.5781 929.289 28.3906 929.961 28.3906C931.06 28.3906 931.914 28.7526 932.523 29.4766C933.133 30.2005 933.438 31.237 933.438 32.5859V33.1875H927.711C927.732 34.0208 927.974 34.6953 928.438 35.2109C928.906 35.7214 929.5 35.9766 930.219 35.9766C930.729 35.9766 931.161 35.8724 931.516 35.6641C931.87 35.4557 932.18 35.1797 932.445 34.8359L933.328 35.5234C932.62 36.612 931.557 37.1562 930.141 37.1562ZM929.961 29.5781C929.378 29.5781 928.888 29.7917 928.492 30.2188C928.096 30.6406 927.852 31.2344 927.758 32H931.992V31.8906C931.951 31.1562 931.753 30.5885 931.398 30.1875C931.044 29.7812 930.565 29.5781 929.961 29.5781ZM940.039 34.7578C940.039 34.3672 939.891 34.0651 939.594 33.8516C939.302 33.6328 938.789 33.4453 938.055 33.2891C937.326 33.1328 936.745 32.9453 936.312 32.7266C935.885 32.5078 935.568 32.2474 935.359 31.9453C935.156 31.6432 935.055 31.2839 935.055 30.8672C935.055 30.1745 935.346 29.5885 935.93 29.1094C936.518 28.6302 937.268 28.3906 938.18 28.3906C939.138 28.3906 939.914 28.638 940.508 29.1328C941.107 29.6276 941.406 30.2604 941.406 31.0312H939.953C939.953 30.6354 939.784 30.2943 939.445 30.0078C939.112 29.7214 938.69 29.5781 938.18 29.5781C937.654 29.5781 937.242 29.6927 936.945 29.9219C936.648 30.151 936.5 30.4505 936.5 30.8203C936.5 31.1693 936.638 31.4323 936.914 31.6094C937.19 31.7865 937.688 31.9557 938.406 32.1172C939.13 32.2786 939.716 32.4714 940.164 32.6953C940.612 32.9193 940.943 33.1901 941.156 33.5078C941.375 33.8203 941.484 34.2031 941.484 34.6562C941.484 35.4115 941.182 36.0182 940.578 36.4766C939.974 36.9297 939.19 37.1562 938.227 37.1562C937.549 37.1562 936.951 37.0365 936.43 36.7969C935.909 36.5573 935.5 36.224 935.203 35.7969C934.911 35.3646 934.766 34.8984 934.766 34.3984H936.211C936.237 34.8828 936.43 35.2682 936.789 35.5547C937.154 35.8359 937.633 35.9766 938.227 35.9766C938.773 35.9766 939.211 35.8672 939.539 35.6484C939.872 35.4245 940.039 35.1276 940.039 34.7578ZM953.844 34.0312H949.078L948.008 37H946.461L950.805 25.625H952.117L956.469 37H954.93L953.844 34.0312ZM949.531 32.7969H953.398L951.461 27.4766L949.531 32.7969ZM959.5 32.5469V37H958V25.625H962.195C963.44 25.625 964.414 25.9427 965.117 26.5781C965.826 27.2135 966.18 28.0547 966.18 29.1016C966.18 30.2057 965.833 31.0573 965.141 31.6562C964.453 32.25 963.466 32.5469 962.18 32.5469H959.5ZM959.5 31.3203H962.195C962.997 31.3203 963.612 31.1328 964.039 30.7578C964.466 30.3776 964.68 29.8307 964.68 29.1172C964.68 28.4401 964.466 27.8984 964.039 27.4922C963.612 27.0859 963.026 26.875 962.281 26.8594H959.5V31.3203ZM969.703 37H968.203V25.625H969.703V37Z" fill="#5452F6"/>
<g clip-path="url(#clip2)">
<path d="M927.5 52.0054H901.5C900.395 52.0054 899.5 52.9008 899.5 54.0054V80.0054C899.5 81.1099 900.395 82.0054 901.5 82.0054H927.5C928.605 82.0054 929.5 81.1099 929.5 80.0054V54.0054C929.5 52.9008 928.605 52.0054 927.5 52.0054Z" stroke="#5452F6" stroke-width="1.5" stroke-linecap="round" stroke-linejoin="round"/>
<path d="M906.5 75V67C906.5 66.4696 906.711 65.9609 907.086 65.5858C907.461 65.2107 907.97 65 908.5 65C909.03 65 909.539 65.2107 909.914 65.5858C910.289 65.9609 910.5 66.4696 910.5 67V75" stroke="#5452F6" stroke-width="1.5" stroke-linecap="round" stroke-linejoin="round"/>
<path d="M914.5 65H915.5C916.296 65 917.059 65.3161 917.621 65.8787C918.184 66.4413 918.5 67.2044 918.5 68C918.5 68.7956 918.184 69.5587 917.621 70.1213C917.059 70.6839 916.296 71 915.5 71H914.5" stroke="#5452F6" stroke-width="1.5" stroke-linecap="round" stroke-linejoin="round"/>
<path d="M906.5 71.0054H910.5" stroke="#5452F6" stroke-width="1.5" stroke-linecap="round" stroke-linejoin="round"/>
<path d="M922.5 75.0054V65.0054" stroke="#5452F6" stroke-width="1.5" stroke-linecap="round" stroke-linejoin="round"/>
<path d="M914.5 75.0054V65.0054" stroke="#5452F6" stroke-width="1.5" stroke-linecap="round" stroke-linejoin="round"/>
</g>
<rect x="849.5" y="0.5" width="130" height="104" rx="7.5" stroke="#5452F6"/>
</g>
<g filter="url(#filter6_d)">
<rect x="654" width="131" height="105" rx="8" fill="#EEEEFF"/>
<path d="M690.766 26.8594H687.109V37H685.617V26.8594H681.969V25.625H690.766V26.8594ZM696.555 37C696.471 36.8333 696.404 36.5365 696.352 36.1094C695.68 36.8073 694.878 37.1562 693.945 37.1562C693.112 37.1562 692.427 36.9219 691.891 36.4531C691.359 35.9792 691.094 35.3802 691.094 34.6562C691.094 33.776 691.427 33.0938 692.094 32.6094C692.766 32.1198 693.708 31.875 694.922 31.875H696.328V31.2109C696.328 30.7057 696.177 30.3047 695.875 30.0078C695.573 29.7057 695.128 29.5547 694.539 29.5547C694.023 29.5547 693.591 29.6849 693.242 29.9453C692.893 30.2057 692.719 30.5208 692.719 30.8906H691.266C691.266 30.4688 691.414 30.0625 691.711 29.6719C692.013 29.276 692.419 28.9635 692.93 28.7344C693.445 28.5052 694.01 28.3906 694.625 28.3906C695.599 28.3906 696.362 28.6354 696.914 29.125C697.466 29.6094 697.753 30.2786 697.773 31.1328V35.0234C697.773 35.7995 697.872 36.4167 698.07 36.875V37H696.555ZM694.156 35.8984C694.609 35.8984 695.039 35.7812 695.445 35.5469C695.852 35.3125 696.146 35.0078 696.328 34.6328V32.8984H695.195C693.424 32.8984 692.539 33.4167 692.539 34.4531C692.539 34.9062 692.69 35.2604 692.992 35.5156C693.294 35.7708 693.682 35.8984 694.156 35.8984ZM707.195 32.8672C707.195 34.1589 706.898 35.1979 706.305 35.9844C705.711 36.7656 704.914 37.1562 703.914 37.1562C702.846 37.1562 702.021 36.7786 701.438 36.0234L701.367 37H700.039V25H701.484V29.4766C702.068 28.7526 702.872 28.3906 703.898 28.3906C704.924 28.3906 705.729 28.7786 706.312 29.5547C706.901 30.3307 707.195 31.3932 707.195 32.7422V32.8672ZM705.75 32.7031C705.75 31.7188 705.56 30.9583 705.18 30.4219C704.799 29.8854 704.253 29.6172 703.539 29.6172C702.586 29.6172 701.901 30.0599 701.484 30.9453V34.6016C701.927 35.487 702.617 35.9297 703.555 35.9297C704.247 35.9297 704.786 35.6615 705.172 35.125C705.557 34.5885 705.75 33.7812 705.75 32.7031ZM710.594 37H709.148V25H710.594V37ZM716.422 37.1562C715.276 37.1562 714.344 36.7812 713.625 36.0312C712.906 35.276 712.547 34.2682 712.547 33.0078V32.7422C712.547 31.9036 712.706 31.1562 713.023 30.5C713.346 29.8385 713.794 29.3229 714.367 28.9531C714.945 28.5781 715.57 28.3906 716.242 28.3906C717.341 28.3906 718.195 28.7526 718.805 29.4766C719.414 30.2005 719.719 31.237 719.719 32.5859V33.1875H713.992C714.013 34.0208 714.255 34.6953 714.719 35.2109C715.188 35.7214 715.781 35.9766 716.5 35.9766C717.01 35.9766 717.443 35.8724 717.797 35.6641C718.151 35.4557 718.461 35.1797 718.727 34.8359L719.609 35.5234C718.901 36.612 717.839 37.1562 716.422 37.1562ZM716.242 29.5781C715.659 29.5781 715.169 29.7917 714.773 30.2188C714.378 30.6406 714.133 31.2344 714.039 32H718.273V31.8906C718.232 31.1562 718.034 30.5885 717.68 30.1875C717.326 29.7812 716.846 29.5781 716.242 29.5781ZM726.32 34.7578C726.32 34.3672 726.172 34.0651 725.875 33.8516C725.583 33.6328 725.07 33.4453 724.336 33.2891C723.607 33.1328 723.026 32.9453 722.594 32.7266C722.167 32.5078 721.849 32.2474 721.641 31.9453C721.438 31.6432 721.336 31.2839 721.336 30.8672C721.336 30.1745 721.628 29.5885 722.211 29.1094C722.799 28.6302 723.549 28.3906 724.461 28.3906C725.419 28.3906 726.195 28.638 726.789 29.1328C727.388 29.6276 727.688 30.2604 727.688 31.0312H726.234C726.234 30.6354 726.065 30.2943 725.727 30.0078C725.393 29.7214 724.971 29.5781 724.461 29.5781C723.935 29.5781 723.523 29.6927 723.227 29.9219C722.93 30.151 722.781 30.4505 722.781 30.8203C722.781 31.1693 722.919 31.4323 723.195 31.6094C723.471 31.7865 723.969 31.9557 724.688 32.1172C725.411 32.2786 725.997 32.4714 726.445 32.6953C726.893 32.9193 727.224 33.1901 727.438 33.5078C727.656 33.8203 727.766 34.2031 727.766 34.6562C727.766 35.4115 727.464 36.0182 726.859 36.4766C726.255 36.9297 725.471 37.1562 724.508 37.1562C723.831 37.1562 723.232 37.0365 722.711 36.7969C722.19 36.5573 721.781 36.224 721.484 35.7969C721.193 35.3646 721.047 34.8984 721.047 34.3984H722.492C722.518 34.8828 722.711 35.2682 723.07 35.5547C723.435 35.8359 723.914 35.9766 724.508 35.9766C725.055 35.9766 725.492 35.8672 725.82 35.6484C726.154 35.4245 726.32 35.1276 726.32 34.7578ZM740.125 34.0312H735.359L734.289 37H732.742L737.086 25.625H738.398L742.75 37H741.211L740.125 34.0312ZM735.812 32.7969H739.68L737.742 27.4766L735.812 32.7969ZM745.781 32.5469V37H744.281V25.625H748.477C749.721 25.625 750.695 25.9427 751.398 26.5781C752.107 27.2135 752.461 28.0547 752.461 29.1016C752.461 30.2057 752.115 31.0573 751.422 31.6562C750.734 32.25 749.747 32.5469 748.461 32.5469H745.781ZM745.781 31.3203H748.477C749.279 31.3203 749.893 31.1328 750.32 30.7578C750.747 30.3776 750.961 29.8307 750.961 29.1172C750.961 28.4401 750.747 27.8984 750.32 27.4922C749.893 27.0859 749.307 26.875 748.562 26.8594H745.781V31.3203ZM755.984 37H754.484V25.625H755.984V37Z" fill="#5452F6"/>
<g clip-path="url(#clip3)">
<path d="M732.5 52.0054H706.5C705.395 52.0054 704.5 52.9008 704.5 54.0054V80.0054C704.5 81.1099 705.395 82.0054 706.5 82.0054H732.5C733.605 82.0054 734.5 81.1099 734.5 80.0054V54.0054C734.5 52.9008 733.605 52.0054 732.5 52.0054Z" stroke="#5452F6" stroke-width="1.5" stroke-linecap="round" stroke-linejoin="round"/>
<path d="M711.5 75V67C711.5 66.4696 711.711 65.9609 712.086 65.5858C712.461 65.2107 712.97 65 713.5 65C714.03 65 714.539 65.2107 714.914 65.5858C715.289 65.9609 715.5 66.4696 715.5 67V75" stroke="#5452F6" stroke-width="1.5" stroke-linecap="round" stroke-linejoin="round"/>
<path d="M719.5 65H720.5C721.296 65 722.059 65.3161 722.621 65.8787C723.184 66.4413 723.5 67.2044 723.5 68C723.5 68.7956 723.184 69.5587 722.621 70.1213C722.059 70.6839 721.296 71 720.5 71H719.5" stroke="#5452F6" stroke-width="1.5" stroke-linecap="round" stroke-linejoin="round"/>
<path d="M711.5 71.0054H715.5" stroke="#5452F6" stroke-width="1.5" stroke-linecap="round" stroke-linejoin="round"/>
<path d="M727.5 75.0054V65.0054" stroke="#5452F6" stroke-width="1.5" stroke-linecap="round" stroke-linejoin="round"/>
<path d="M719.5 75.0054V65.0054" stroke="#5452F6" stroke-width="1.5" stroke-linecap="round" stroke-linejoin="round"/>
</g>
<rect x="654.5" y="0.5" width="130" height="104" rx="7.5" stroke="#5452F6"/>
</g>
<defs>
<filter id="filter0_d" x="468" y="362" width="516" height="128" filterUnits="userSpaceOnUse" color-interpolation-filters="sRGB">
<feFlood flood-opacity="0" result="BackgroundImageFix"/>
<feColorMatrix in="SourceAlpha" type="matrix" values="0 0 0 0 0 0 0 0 0 0 0 0 0 0 0 0 0 0 127 0"/>
<feOffset dx="4" dy="4"/>
<feColorMatrix type="matrix" values="0 0 0 0 0.952941 0 0 0 0 0.639216 0 0 0 0 0.619608 0 0 0 1 0"/>
<feBlend mode="normal" in2="BackgroundImageFix" result="effect1_dropShadow"/>
<feBlend mode="normal" in="SourceGraphic" in2="effect1_dropShadow" result="shape"/>
</filter>
<filter id="filter1_d" x="468" y="0" width="135" height="109" filterUnits="userSpaceOnUse" color-interpolation-filters="sRGB">
<feFlood flood-opacity="0" result="BackgroundImageFix"/>
<feColorMatrix in="SourceAlpha" type="matrix" values="0 0 0 0 0 0 0 0 0 0 0 0 0 0 0 0 0 0 127 0"/>
<feOffset dx="4" dy="4"/>
<feColorMatrix type="matrix" values="0 0 0 0 0.674908 0 0 0 0 0.662083 0 0 0 0 0.945833 0 0 0 1 0"/>
<feBlend mode="normal" in2="BackgroundImageFix" result="effect1_dropShadow"/>
<feBlend mode="normal" in="SourceGraphic" in2="effect1_dropShadow" result="shape"/>
</filter>
<filter id="filter2_d" x="0" y="177" width="177" height="109" filterUnits="userSpaceOnUse" color-interpolation-filters="sRGB">
<feFlood flood-opacity="0" result="BackgroundImageFix"/>
<feColorMatrix in="SourceAlpha" type="matrix" values="0 0 0 0 0 0 0 0 0 0 0 0 0 0 0 0 0 0 127 0"/>
<feOffset dx="4" dy="4"/>
<feColorMatrix type="matrix" values="0 0 0 0 0.513733 0 0 0 0 0.767915 0 0 0 0 0.970833 0 0 0 1 0"/>
<feBlend mode="normal" in2="BackgroundImageFix" result="effect1_dropShadow"/>
<feBlend mode="normal" in="SourceGraphic" in2="effect1_dropShadow" result="shape"/>
</filter>
<filter id="filter3_d" x="231" y="177" width="177" height="109" filterUnits="userSpaceOnUse" color-interpolation-filters="sRGB">
<feFlood flood-opacity="0" result="BackgroundImageFix"/>
<feColorMatrix in="SourceAlpha" type="matrix" values="0 0 0 0 0 0 0 0 0 0 0 0 0 0 0 0 0 0 127 0"/>
<feOffset dx="4" dy="4"/>
<feColorMatrix type="matrix" values="0 0 0 0 0.9875 0 0 0 0 0.738327 0 0 0 0 0.703594 0 0 0 1 0"/>
<feBlend mode="normal" in2="BackgroundImageFix" result="effect1_dropShadow"/>
<feBlend mode="normal" in="SourceGraphic" in2="effect1_dropShadow" result="shape"/>
</filter>
<filter id="filter4_d" x="468" y="168" width="516" height="128" filterUnits="userSpaceOnUse" color-interpolation-filters="sRGB">
<feFlood flood-opacity="0" result="BackgroundImageFix"/>
<feColorMatrix in="SourceAlpha" type="matrix" values="0 0 0 0 0 0 0 0 0 0 0 0 0 0 0 0 0 0 127 0"/>
<feOffset dx="4" dy="4"/>
<feColorMatrix type="matrix" values="0 0 0 0 0.578021 0 0 0 0 0.775 0 0 0 0 0.608662 0 0 0 1 0"/>
<feBlend mode="normal" in2="BackgroundImageFix" result="effect1_dropShadow"/>
<feBlend mode="normal" in="SourceGraphic" in2="effect1_dropShadow" result="shape"/>
</filter>
<filter id="filter5_d" x="849" y="0" width="135" height="109" filterUnits="userSpaceOnUse" color-interpolation-filters="sRGB">
<feFlood flood-opacity="0" result="BackgroundImageFix"/>
<feColorMatrix in="SourceAlpha" type="matrix" values="0 0 0 0 0 0 0 0 0 0 0 0 0 0 0 0 0 0 127 0"/>
<feOffset dx="4" dy="4"/>
<feColorMatrix type="matrix" values="0 0 0 0 0.674908 0 0 0 0 0.662083 0 0 0 0 0.945833 0 0 0 1 0"/>
<feBlend mode="normal" in2="BackgroundImageFix" result="effect1_dropShadow"/>
<feBlend mode="normal" in="SourceGraphic" in2="effect1_dropShadow" result="shape"/>
</filter>
<filter id="filter6_d" x="654" y="0" width="135" height="109" filterUnits="userSpaceOnUse" color-interpolation-filters="sRGB">
<feFlood flood-opacity="0" result="BackgroundImageFix"/>
<feColorMatrix in="SourceAlpha" type="matrix" values="0 0 0 0 0 0 0 0 0 0 0 0 0 0 0 0 0 0 127 0"/>
<feOffset dx="4" dy="4"/>
<feColorMatrix type="matrix" values="0 0 0 0 0.674908 0 0 0 0 0.662083 0 0 0 0 0.945833 0 0 0 1 0"/>
<feBlend mode="normal" in2="BackgroundImageFix" result="effect1_dropShadow"/>
<feBlend mode="normal" in="SourceGraphic" in2="effect1_dropShadow" result="shape"/>
</filter>
<clipPath id="clip0">
<rect width="32" height="32" fill="white" transform="translate(517.5 51)"/>
</clipPath>
<clipPath id="clip1">
<rect width="32" height="32" fill="white" transform="translate(70.5 228)"/>
</clipPath>
<clipPath id="clip2">
<rect width="32" height="32" fill="white" transform="translate(898.5 51)"/>
</clipPath>
<clipPath id="clip3">
<rect width="32" height="32" fill="white" transform="translate(703.5 51)"/>
</clipPath>
</defs>
</svg>
