<svg width="633" height="148" viewBox="0 0 633 148" fill="none" xmlns="http://www.w3.org/2000/svg">
<line x1="255" y1="120.5" x2="389" y2="120.5" stroke="#65BF73" stroke-width="2"/>
<path d="M379 111L389.5 120.5L379 129.5" stroke="#65BF73" stroke-width="2" stroke-linecap="round" stroke-linejoin="round"/>
<circle cx="250.5" cy="121" r="5.5" stroke="#65BF73" stroke-width="2"/>
<path d="M285.078 67H283.109V55.625H285.078V67ZM294.062 62.1797H289.484V67H287.508V55.625H294.734V57.2188H289.484V60.6016H294.062V62.1797ZM302.336 68.4922H295.172V67H302.336V68.4922ZM312.547 67H310.57L305.5 58.9297V67H303.523V55.625H305.5L310.586 63.7266V55.625H312.547V67ZM323.961 61.6094C323.961 62.724 323.768 63.7031 323.383 64.5469C322.997 65.3854 322.445 66.0312 321.727 66.4844C321.013 66.9323 320.19 67.1562 319.258 67.1562C318.336 67.1562 317.513 66.9323 316.789 66.4844C316.07 66.0312 315.513 65.388 315.117 64.5547C314.727 63.7214 314.529 62.7604 314.523 61.6719V61.0312C314.523 59.9219 314.719 58.9427 315.109 58.0938C315.505 57.2448 316.06 56.5964 316.773 56.1484C317.492 55.6953 318.315 55.4688 319.242 55.4688C320.169 55.4688 320.99 55.6927 321.703 56.1406C322.422 56.5833 322.977 57.224 323.367 58.0625C323.758 58.8958 323.956 59.8672 323.961 60.9766V61.6094ZM321.984 61.0156C321.984 59.7552 321.745 58.7891 321.266 58.1172C320.792 57.4453 320.117 57.1094 319.242 57.1094C318.388 57.1094 317.719 57.4453 317.234 58.1172C316.755 58.7839 316.51 59.7292 316.5 60.9531V61.6094C316.5 62.8594 316.742 63.8255 317.227 64.5078C317.716 65.1901 318.393 65.5312 319.258 65.5312C320.133 65.5312 320.805 65.1979 321.273 64.5312C321.747 63.8646 321.984 62.8906 321.984 61.6094V61.0156ZM334.953 67H332.977L327.906 58.9297V67H325.93V55.625H327.906L332.992 63.7266V55.625H334.953V67ZM343.938 61.9219H339.266V65.4219H344.727V67H337.289V55.625H344.672V57.2188H339.266V60.3594H343.938V61.9219ZM306.688 88.8125C304.849 88.2969 303.911 87.1224 303.875 85.2891V83.625C303.875 82.4531 303.372 81.8672 302.367 81.8672V80.4766C303.372 80.4766 303.875 79.888 303.875 78.7109V77.0547C303.891 76.1172 304.133 75.3594 304.602 74.7812C305.076 74.2031 305.771 73.7839 306.688 73.5234L307.062 74.6172C306.161 74.9089 305.695 75.7057 305.664 77.0078V78.6953C305.664 79.8672 305.214 80.6901 304.312 81.1641C305.214 81.6432 305.664 82.474 305.664 83.6562V85.3203C305.695 86.6224 306.161 87.4193 307.062 87.7109L306.688 88.8125ZM318.391 83.0703C318.391 82.5703 318.214 82.1849 317.859 81.9141C317.51 81.6432 316.878 81.3698 315.961 81.0938C315.044 80.8177 314.315 80.5104 313.773 80.1719C312.737 79.5208 312.219 78.6719 312.219 77.625C312.219 76.7083 312.591 75.9531 313.336 75.3594C314.086 74.7656 315.057 74.4688 316.25 74.4688C317.042 74.4688 317.747 74.6146 318.367 74.9062C318.987 75.1979 319.474 75.6146 319.828 76.1562C320.182 76.6927 320.359 77.2891 320.359 77.9453H318.391C318.391 77.3516 318.203 76.888 317.828 76.5547C317.458 76.2161 316.927 76.0469 316.234 76.0469C315.589 76.0469 315.086 76.1849 314.727 76.4609C314.372 76.737 314.195 77.1224 314.195 77.6172C314.195 78.0339 314.388 78.3828 314.773 78.6641C315.159 78.9401 315.794 79.2109 316.68 79.4766C317.565 79.737 318.276 80.0365 318.812 80.375C319.349 80.7083 319.742 81.0938 319.992 81.5312C320.242 81.9635 320.367 82.4714 320.367 83.0547C320.367 84.0026 320.003 84.7578 319.273 85.3203C318.549 85.8776 317.565 86.1562 316.32 86.1562C315.497 86.1562 314.74 86.0052 314.047 85.7031C313.359 85.3958 312.823 84.974 312.438 84.4375C312.057 83.901 311.867 83.276 311.867 82.5625H313.844C313.844 83.2083 314.057 83.7083 314.484 84.0625C314.911 84.4167 315.523 84.5938 316.32 84.5938C317.008 84.5938 317.523 84.4557 317.867 84.1797C318.216 83.8984 318.391 83.5286 318.391 83.0703ZM331.023 83.1875L332.773 74.625H334.734L332.109 86H330.219L328.055 77.6953L325.844 86H323.945L321.32 74.625H323.281L325.047 83.1719L327.219 74.625H328.875L331.023 83.1875ZM342.203 83.3516H337.797L336.875 86H334.82L339.117 74.625H340.891L345.195 86H343.133L342.203 83.3516ZM338.352 81.7578H341.648L340 77.0391L338.352 81.7578ZM348.469 81.7734V86H346.492V74.625H350.844C352.115 74.625 353.122 74.9557 353.867 75.6172C354.617 76.2786 354.992 77.1536 354.992 78.2422C354.992 79.3568 354.625 80.224 353.891 80.8438C353.161 81.4635 352.138 81.7734 350.82 81.7734H348.469ZM348.469 80.1875H350.844C351.547 80.1875 352.083 80.0234 352.453 79.6953C352.823 79.362 353.008 78.8828 353.008 78.2578C353.008 77.6432 352.82 77.1536 352.445 76.7891C352.07 76.4193 351.555 76.2292 350.898 76.2188H348.469V80.1875ZM359.766 87.7109C360.682 87.4141 361.151 86.6016 361.172 85.2734V83.6484C361.172 82.4453 361.646 81.6198 362.594 81.1719C361.646 80.724 361.172 79.8906 361.172 78.6719V77.0547C361.151 75.7266 360.682 74.9141 359.766 74.6172L360.141 73.5234C361.089 73.7891 361.794 74.2214 362.258 74.8203C362.721 75.4141 362.953 76.1927 362.953 77.1562V78.7188C362.953 79.8906 363.458 80.4766 364.469 80.4766V81.8672C363.458 81.8672 362.953 82.4531 362.953 83.625V85.1641C362.953 86.138 362.719 86.9219 362.25 87.5156C361.786 88.1146 361.083 88.5469 360.141 88.8125L359.766 87.7109ZM305.977 107.812C304.138 107.297 303.201 106.122 303.164 104.289V102.625C303.164 101.453 302.661 100.867 301.656 100.867V99.4766C302.661 99.4766 303.164 98.888 303.164 97.7109V96.0547C303.18 95.1172 303.422 94.3594 303.891 93.7812C304.365 93.2031 305.06 92.7839 305.977 92.5234L306.352 93.6172C305.451 93.9089 304.984 94.7057 304.953 96.0078V97.6953C304.953 98.8672 304.503 99.6901 303.602 100.164C304.503 100.643 304.953 101.474 304.953 102.656V104.32C304.984 105.622 305.451 106.419 306.352 106.711L305.977 107.812ZM311.734 105V93.625H315.094C316.099 93.625 316.99 93.849 317.766 94.2969C318.547 94.7448 319.151 95.3802 319.578 96.2031C320.005 97.026 320.219 97.9688 320.219 99.0312V99.6016C320.219 100.68 320.003 101.628 319.57 102.445C319.143 103.263 318.531 103.893 317.734 104.336C316.943 104.779 316.034 105 315.008 105H311.734ZM313.711 95.2188V103.422H315C316.036 103.422 316.831 103.099 317.383 102.453C317.94 101.802 318.224 100.87 318.234 99.6562V99.0234C318.234 97.7891 317.966 96.8464 317.43 96.1953C316.893 95.5443 316.115 95.2188 315.094 95.2188H313.711ZM326.367 100.617H324.164V105H322.188V93.625H326.188C327.5 93.625 328.513 93.9193 329.227 94.5078C329.94 95.0964 330.297 95.9479 330.297 97.0625C330.297 97.8229 330.112 98.4609 329.742 98.9766C329.378 99.487 328.867 99.8802 328.211 100.156L330.766 104.898V105H328.648L326.367 100.617ZM324.164 99.0312H326.195C326.862 99.0312 327.383 98.8646 327.758 98.5312C328.133 98.1927 328.32 97.7318 328.32 97.1484C328.32 96.5391 328.146 96.0677 327.797 95.7344C327.453 95.401 326.938 95.2292 326.25 95.2188H324.164V99.0312ZM341.25 99.6094C341.25 100.724 341.057 101.703 340.672 102.547C340.286 103.385 339.734 104.031 339.016 104.484C338.302 104.932 337.479 105.156 336.547 105.156C335.625 105.156 334.802 104.932 334.078 104.484C333.359 104.031 332.802 103.388 332.406 102.555C332.016 101.721 331.818 100.76 331.812 99.6719V99.0312C331.812 97.9219 332.008 96.9427 332.398 96.0938C332.794 95.2448 333.349 94.5964 334.062 94.1484C334.781 93.6953 335.604 93.4688 336.531 93.4688C337.458 93.4688 338.279 93.6927 338.992 94.1406C339.711 94.5833 340.266 95.224 340.656 96.0625C341.047 96.8958 341.245 97.8672 341.25 98.9766V99.6094ZM339.273 99.0156C339.273 97.7552 339.034 96.7891 338.555 96.1172C338.081 95.4453 337.406 95.1094 336.531 95.1094C335.677 95.1094 335.008 95.4453 334.523 96.1172C334.044 96.7839 333.799 97.7292 333.789 98.9531V99.6094C333.789 100.859 334.031 101.826 334.516 102.508C335.005 103.19 335.682 103.531 336.547 103.531C337.422 103.531 338.094 103.198 338.562 102.531C339.036 101.865 339.273 100.891 339.273 99.6094V99.0156ZM345.195 100.773V105H343.219V93.625H347.57C348.841 93.625 349.849 93.9557 350.594 94.6172C351.344 95.2786 351.719 96.1536 351.719 97.2422C351.719 98.3568 351.352 99.224 350.617 99.8438C349.888 100.464 348.865 100.773 347.547 100.773H345.195ZM345.195 99.1875H347.57C348.273 99.1875 348.81 99.0234 349.18 98.6953C349.549 98.362 349.734 97.8828 349.734 97.2578C349.734 96.6432 349.547 96.1536 349.172 95.7891C348.797 95.4193 348.281 95.2292 347.625 95.2188H345.195V99.1875ZM356.492 106.711C357.409 106.414 357.878 105.602 357.898 104.273V102.648C357.898 101.445 358.372 100.62 359.32 100.172C358.372 99.724 357.898 98.8906 357.898 97.6719V96.0547C357.878 94.7266 357.409 93.9141 356.492 93.6172L356.867 92.5234C357.815 92.7891 358.521 93.2214 358.984 93.8203C359.448 94.4141 359.68 95.1927 359.68 96.1562V97.7188C359.68 98.8906 360.185 99.4766 361.195 99.4766V100.867C360.185 100.867 359.68 101.453 359.68 102.625V104.164C359.68 105.138 359.445 105.922 358.977 106.516C358.513 107.115 357.81 107.547 356.867 107.812L356.492 106.711Z" fill="#65BF73"/>
<g filter="url(#filter0_d)">
<path d="M400 88C400 83.5817 403.582 80 408 80H621C625.418 80 629 83.5817 629 88V121H400V88Z" fill="white"/>
<path d="M400.5 88C400.5 83.8579 403.858 80.5 408 80.5H621C625.142 80.5 628.5 83.8579 628.5 88V120.5H400.5V88Z" stroke="#5452F6"/>
</g>
<g filter="url(#filter1_d)">
<path d="M400 120H629V136C629 140.418 625.418 144 621 144H408C403.582 144 400 140.418 400 136V120Z" fill="#EEEEFF"/>
<path d="M400.5 120.5H628.5V136C628.5 140.142 625.142 143.5 621 143.5H408C403.858 143.5 400.5 140.142 400.5 136V120.5Z" stroke="#5452F6"/>
</g>
<path d="M473.789 104.07C473.789 103.57 473.612 103.185 473.258 102.914C472.909 102.643 472.276 102.37 471.359 102.094C470.443 101.818 469.714 101.51 469.172 101.172C468.135 100.521 467.617 99.6719 467.617 98.625C467.617 97.7083 467.99 96.9531 468.734 96.3594C469.484 95.7656 470.456 95.4688 471.648 95.4688C472.44 95.4688 473.146 95.6146 473.766 95.9062C474.385 96.1979 474.872 96.6146 475.227 97.1562C475.581 97.6927 475.758 98.2891 475.758 98.9453H473.789C473.789 98.3516 473.602 97.888 473.227 97.5547C472.857 97.2161 472.326 97.0469 471.633 97.0469C470.987 97.0469 470.484 97.1849 470.125 97.4609C469.771 97.737 469.594 98.1224 469.594 98.6172C469.594 99.0339 469.786 99.3828 470.172 99.6641C470.557 99.9401 471.193 100.211 472.078 100.477C472.964 100.737 473.674 101.036 474.211 101.375C474.747 101.708 475.141 102.094 475.391 102.531C475.641 102.964 475.766 103.471 475.766 104.055C475.766 105.003 475.401 105.758 474.672 106.32C473.948 106.878 472.964 107.156 471.719 107.156C470.896 107.156 470.138 107.005 469.445 106.703C468.758 106.396 468.221 105.974 467.836 105.438C467.456 104.901 467.266 104.276 467.266 103.562H469.242C469.242 104.208 469.456 104.708 469.883 105.062C470.31 105.417 470.922 105.594 471.719 105.594C472.406 105.594 472.922 105.456 473.266 105.18C473.615 104.898 473.789 104.529 473.789 104.07ZM479.695 96.4922V98.5469H481.188V99.9531H479.695V104.672C479.695 104.995 479.758 105.229 479.883 105.375C480.013 105.516 480.242 105.586 480.57 105.586C480.789 105.586 481.01 105.56 481.234 105.508V106.977C480.802 107.096 480.385 107.156 479.984 107.156C478.526 107.156 477.797 106.352 477.797 104.742V99.9531H476.406V98.5469H477.797V96.4922H479.695ZM487.07 100.281C486.82 100.24 486.562 100.219 486.297 100.219C485.427 100.219 484.841 100.552 484.539 101.219V107H482.641V98.5469H484.453L484.5 99.4922C484.958 98.7578 485.594 98.3906 486.406 98.3906C486.677 98.3906 486.901 98.4271 487.078 98.5L487.07 100.281ZM490.289 107H488.391V98.5469H490.289V107ZM488.273 96.3516C488.273 96.0599 488.365 95.8177 488.547 95.625C488.734 95.4323 489 95.3359 489.344 95.3359C489.688 95.3359 489.953 95.4323 490.141 95.625C490.328 95.8177 490.422 96.0599 490.422 96.3516C490.422 96.638 490.328 96.8776 490.141 97.0703C489.953 97.2578 489.688 97.3516 489.344 97.3516C489 97.3516 488.734 97.2578 488.547 97.0703C488.365 96.8776 488.273 96.638 488.273 96.3516ZM494.125 98.5469L494.18 99.5234C494.805 98.7682 495.625 98.3906 496.641 98.3906C498.401 98.3906 499.297 99.3984 499.328 101.414V107H497.43V101.523C497.43 100.987 497.312 100.591 497.078 100.336C496.849 100.076 496.471 99.9453 495.945 99.9453C495.18 99.9453 494.609 100.292 494.234 100.984V107H492.336V98.5469H494.125ZM500.938 102.711C500.938 101.398 501.245 100.352 501.859 99.5703C502.479 98.7839 503.299 98.3906 504.32 98.3906C505.284 98.3906 506.042 98.7266 506.594 99.3984L506.68 98.5469H508.391V106.742C508.391 107.852 508.044 108.727 507.352 109.367C506.664 110.008 505.734 110.328 504.562 110.328C503.943 110.328 503.336 110.198 502.742 109.938C502.154 109.682 501.706 109.346 501.398 108.93L502.297 107.789C502.88 108.482 503.599 108.828 504.453 108.828C505.083 108.828 505.581 108.656 505.945 108.312C506.31 107.974 506.492 107.474 506.492 106.812V106.242C505.945 106.852 505.216 107.156 504.305 107.156C503.315 107.156 502.505 106.763 501.875 105.977C501.25 105.19 500.938 104.102 500.938 102.711ZM502.828 102.875C502.828 103.724 503 104.393 503.344 104.883C503.693 105.367 504.174 105.609 504.789 105.609C505.555 105.609 506.122 105.281 506.492 104.625V100.906C506.133 100.266 505.57 99.9453 504.805 99.9453C504.18 99.9453 503.693 100.193 503.344 100.688C503 101.182 502.828 101.911 502.828 102.875ZM515.633 94.7969L516.602 95.3984C516.128 96.0911 515.883 96.8125 515.867 97.5625V98.75H514.203V97.6719C514.208 97.1719 514.344 96.651 514.609 96.1094C514.88 95.5625 515.221 95.125 515.633 94.7969ZM518.258 94.7969L519.227 95.3984C518.753 96.0911 518.508 96.8125 518.492 97.5625V98.75H516.828V97.6719C516.833 97.1719 516.969 96.651 517.234 96.1094C517.505 95.5625 517.846 95.125 518.258 94.7969ZM529.703 107H527.734V101.945H522.648V107H520.672V95.625H522.648V100.359H527.734V95.625H529.703V107ZM535.586 107.156C534.383 107.156 533.406 106.779 532.656 106.023C531.911 105.263 531.539 104.253 531.539 102.992V102.758C531.539 101.914 531.701 101.161 532.023 100.5C532.352 99.8333 532.81 99.3151 533.398 98.9453C533.987 98.5755 534.643 98.3906 535.367 98.3906C536.518 98.3906 537.406 98.7578 538.031 99.4922C538.661 100.227 538.977 101.266 538.977 102.609V103.375H533.453C533.51 104.073 533.742 104.625 534.148 105.031C534.56 105.438 535.076 105.641 535.695 105.641C536.565 105.641 537.273 105.289 537.82 104.586L538.844 105.562C538.505 106.068 538.052 106.461 537.484 106.742C536.922 107.018 536.289 107.156 535.586 107.156ZM535.359 99.9141C534.839 99.9141 534.417 100.096 534.094 100.461C533.776 100.826 533.573 101.333 533.484 101.984H537.102V101.844C537.06 101.208 536.891 100.729 536.594 100.406C536.297 100.078 535.885 99.9141 535.359 99.9141ZM542.477 107H540.578V95H542.477V107ZM546.57 107H544.672V95H546.57V107ZM548.289 102.695C548.289 101.867 548.453 101.122 548.781 100.461C549.109 99.7943 549.57 99.2839 550.164 98.9297C550.758 98.5703 551.44 98.3906 552.211 98.3906C553.352 98.3906 554.276 98.7578 554.984 99.4922C555.698 100.227 556.083 101.201 556.141 102.414L556.148 102.859C556.148 103.693 555.987 104.438 555.664 105.094C555.346 105.75 554.888 106.258 554.289 106.617C553.695 106.977 553.008 107.156 552.227 107.156C551.034 107.156 550.078 106.76 549.359 105.969C548.646 105.172 548.289 104.112 548.289 102.789V102.695ZM550.188 102.859C550.188 103.729 550.367 104.411 550.727 104.906C551.086 105.396 551.586 105.641 552.227 105.641C552.867 105.641 553.365 105.391 553.719 104.891C554.078 104.391 554.258 103.659 554.258 102.695C554.258 101.841 554.073 101.164 553.703 100.664C553.339 100.164 552.841 99.9141 552.211 99.9141C551.591 99.9141 551.099 100.161 550.734 100.656C550.37 101.146 550.188 101.88 550.188 102.859ZM557.562 99L556.594 98.3984C557.062 97.7161 557.305 96.9948 557.32 96.2344V95H558.984V96.0781C558.984 96.6146 558.846 97.1562 558.57 97.7031C558.299 98.2448 557.964 98.6771 557.562 99ZM560.172 99L559.203 98.3984C559.672 97.7161 559.914 96.9948 559.93 96.2344V95H561.594V96.0781C561.594 96.6146 561.456 97.1562 561.18 97.7031C560.909 98.2448 560.573 98.6771 560.172 99Z" fill="#FF5A43"/>
<g filter="url(#filter2_d)">
<path d="M0 8C0 3.58172 3.58172 0 8 0H221C225.418 0 229 3.58172 229 8V120H0V8Z" fill="white"/>
<line x1="0.5" y1="79.5" x2="228.5" y2="79.5" stroke="#5452F6"/>
<line x1="0.5" y1="39.5" x2="228.5" y2="39.5" stroke="#5452F6"/>
<path d="M73.7891 102.07C73.7891 101.57 73.612 101.185 73.2578 100.914C72.9089 100.643 72.276 100.37 71.3594 100.094C70.4427 99.8177 69.7135 99.5104 69.1719 99.1719C68.1354 98.5208 67.6172 97.6719 67.6172 96.625C67.6172 95.7083 67.9896 94.9531 68.7344 94.3594C69.4844 93.7656 70.4557 93.4688 71.6484 93.4688C72.4401 93.4688 73.1458 93.6146 73.7656 93.9062C74.3854 94.1979 74.8724 94.6146 75.2266 95.1562C75.5807 95.6927 75.7578 96.2891 75.7578 96.9453H73.7891C73.7891 96.3516 73.6016 95.888 73.2266 95.5547C72.8568 95.2161 72.3255 95.0469 71.6328 95.0469C70.987 95.0469 70.4844 95.1849 70.125 95.4609C69.7708 95.737 69.5938 96.1224 69.5938 96.6172C69.5938 97.0339 69.7865 97.3828 70.1719 97.6641C70.5573 97.9401 71.1927 98.2109 72.0781 98.4766C72.9635 98.737 73.6745 99.0365 74.2109 99.375C74.7474 99.7083 75.1406 100.094 75.3906 100.531C75.6406 100.964 75.7656 101.471 75.7656 102.055C75.7656 103.003 75.401 103.758 74.6719 104.32C73.9479 104.878 72.9635 105.156 71.7188 105.156C70.8958 105.156 70.138 105.005 69.4453 104.703C68.7578 104.396 68.2214 103.974 67.8359 103.438C67.4557 102.901 67.2656 102.276 67.2656 101.562H69.2422C69.2422 102.208 69.4557 102.708 69.8828 103.062C70.3099 103.417 70.9219 103.594 71.7188 103.594C72.4062 103.594 72.9219 103.456 73.2656 103.18C73.6146 102.898 73.7891 102.529 73.7891 102.07ZM79.6953 94.4922V96.5469H81.1875V97.9531H79.6953V102.672C79.6953 102.995 79.7578 103.229 79.8828 103.375C80.013 103.516 80.2422 103.586 80.5703 103.586C80.7891 103.586 81.0104 103.56 81.2344 103.508V104.977C80.8021 105.096 80.3854 105.156 79.9844 105.156C78.526 105.156 77.7969 104.352 77.7969 102.742V97.9531H76.4062V96.5469H77.7969V94.4922H79.6953ZM87.0703 98.2812C86.8203 98.2396 86.5625 98.2188 86.2969 98.2188C85.4271 98.2188 84.8411 98.5521 84.5391 99.2188V105H82.6406V96.5469H84.4531L84.5 97.4922C84.9583 96.7578 85.5938 96.3906 86.4062 96.3906C86.6771 96.3906 86.901 96.4271 87.0781 96.5L87.0703 98.2812ZM90.2891 105H88.3906V96.5469H90.2891V105ZM88.2734 94.3516C88.2734 94.0599 88.3646 93.8177 88.5469 93.625C88.7344 93.4323 89 93.3359 89.3438 93.3359C89.6875 93.3359 89.9531 93.4323 90.1406 93.625C90.3281 93.8177 90.4219 94.0599 90.4219 94.3516C90.4219 94.638 90.3281 94.8776 90.1406 95.0703C89.9531 95.2578 89.6875 95.3516 89.3438 95.3516C89 95.3516 88.7344 95.2578 88.5469 95.0703C88.3646 94.8776 88.2734 94.638 88.2734 94.3516ZM94.125 96.5469L94.1797 97.5234C94.8047 96.7682 95.625 96.3906 96.6406 96.3906C98.401 96.3906 99.2969 97.3984 99.3281 99.4141V105H97.4297V99.5234C97.4297 98.987 97.3125 98.5911 97.0781 98.3359C96.849 98.0755 96.4714 97.9453 95.9453 97.9453C95.1797 97.9453 94.6094 98.2917 94.2344 98.9844V105H92.3359V96.5469H94.125ZM100.938 100.711C100.938 99.3984 101.245 98.3516 101.859 97.5703C102.479 96.7839 103.299 96.3906 104.32 96.3906C105.284 96.3906 106.042 96.7266 106.594 97.3984L106.68 96.5469H108.391V104.742C108.391 105.852 108.044 106.727 107.352 107.367C106.664 108.008 105.734 108.328 104.562 108.328C103.943 108.328 103.336 108.198 102.742 107.938C102.154 107.682 101.706 107.346 101.398 106.93L102.297 105.789C102.88 106.482 103.599 106.828 104.453 106.828C105.083 106.828 105.581 106.656 105.945 106.312C106.31 105.974 106.492 105.474 106.492 104.812V104.242C105.945 104.852 105.216 105.156 104.305 105.156C103.315 105.156 102.505 104.763 101.875 103.977C101.25 103.19 100.938 102.102 100.938 100.711ZM102.828 100.875C102.828 101.724 103 102.393 103.344 102.883C103.693 103.367 104.174 103.609 104.789 103.609C105.555 103.609 106.122 103.281 106.492 102.625V98.9062C106.133 98.2656 105.57 97.9453 104.805 97.9453C104.18 97.9453 103.693 98.1927 103.344 98.6875C103 99.1823 102.828 99.9115 102.828 100.875ZM115.633 92.7969L116.602 93.3984C116.128 94.0911 115.883 94.8125 115.867 95.5625V96.75H114.203V95.6719C114.208 95.1719 114.344 94.651 114.609 94.1094C114.88 93.5625 115.221 93.125 115.633 92.7969ZM118.258 92.7969L119.227 93.3984C118.753 94.0911 118.508 94.8125 118.492 95.5625V96.75H116.828V95.6719C116.833 95.1719 116.969 94.651 117.234 94.1094C117.505 93.5625 117.846 93.125 118.258 92.7969ZM129.703 105H127.734V99.9453H122.648V105H120.672V93.625H122.648V98.3594H127.734V93.625H129.703V105ZM135.586 105.156C134.383 105.156 133.406 104.779 132.656 104.023C131.911 103.263 131.539 102.253 131.539 100.992V100.758C131.539 99.9141 131.701 99.1615 132.023 98.5C132.352 97.8333 132.81 97.3151 133.398 96.9453C133.987 96.5755 134.643 96.3906 135.367 96.3906C136.518 96.3906 137.406 96.7578 138.031 97.4922C138.661 98.2266 138.977 99.2656 138.977 100.609V101.375H133.453C133.51 102.073 133.742 102.625 134.148 103.031C134.56 103.438 135.076 103.641 135.695 103.641C136.565 103.641 137.273 103.289 137.82 102.586L138.844 103.562C138.505 104.068 138.052 104.461 137.484 104.742C136.922 105.018 136.289 105.156 135.586 105.156ZM135.359 97.9141C134.839 97.9141 134.417 98.0964 134.094 98.4609C133.776 98.8255 133.573 99.3333 133.484 99.9844H137.102V99.8438C137.06 99.2083 136.891 98.7292 136.594 98.4062C136.297 98.0781 135.885 97.9141 135.359 97.9141ZM142.477 105H140.578V93H142.477V105ZM146.57 105H144.672V93H146.57V105ZM148.289 100.695C148.289 99.8672 148.453 99.1224 148.781 98.4609C149.109 97.7943 149.57 97.2839 150.164 96.9297C150.758 96.5703 151.44 96.3906 152.211 96.3906C153.352 96.3906 154.276 96.7578 154.984 97.4922C155.698 98.2266 156.083 99.2005 156.141 100.414L156.148 100.859C156.148 101.693 155.987 102.438 155.664 103.094C155.346 103.75 154.888 104.258 154.289 104.617C153.695 104.977 153.008 105.156 152.227 105.156C151.034 105.156 150.078 104.76 149.359 103.969C148.646 103.172 148.289 102.112 148.289 100.789V100.695ZM150.188 100.859C150.188 101.729 150.367 102.411 150.727 102.906C151.086 103.396 151.586 103.641 152.227 103.641C152.867 103.641 153.365 103.391 153.719 102.891C154.078 102.391 154.258 101.659 154.258 100.695C154.258 99.8411 154.073 99.1641 153.703 98.6641C153.339 98.1641 152.841 97.9141 152.211 97.9141C151.591 97.9141 151.099 98.1615 150.734 98.6562C150.37 99.1458 150.188 99.8802 150.188 100.859ZM157.562 97L156.594 96.3984C157.062 95.7161 157.305 94.9948 157.32 94.2344V93H158.984V94.0781C158.984 94.6146 158.846 95.1562 158.57 95.7031C158.299 96.2448 157.964 96.6771 157.562 97ZM160.172 97L159.203 96.3984C159.672 95.7161 159.914 94.9948 159.93 94.2344V93H161.594V94.0781C161.594 94.6146 161.456 95.1562 161.18 95.7031C160.909 96.2448 160.573 96.6771 160.172 97Z" fill="#5452F6"/>
<path d="M99.25 56.5469L99.3047 57.5234C99.9297 56.7682 100.75 56.3906 101.766 56.3906C103.526 56.3906 104.422 57.3984 104.453 59.4141V65H102.555V59.5234C102.555 58.987 102.438 58.5911 102.203 58.3359C101.974 58.0755 101.596 57.9453 101.07 57.9453C100.305 57.9453 99.7344 58.2917 99.3594 58.9844V65H97.4609V56.5469H99.25ZM111.445 65C111.362 64.8385 111.289 64.5755 111.227 64.2109C110.622 64.8411 109.883 65.1562 109.008 65.1562C108.159 65.1562 107.466 64.9141 106.93 64.4297C106.393 63.9453 106.125 63.3464 106.125 62.6328C106.125 61.7318 106.458 61.0417 107.125 60.5625C107.797 60.0781 108.755 59.8359 110 59.8359H111.164V59.2812C111.164 58.8438 111.042 58.4948 110.797 58.2344C110.552 57.9688 110.18 57.8359 109.68 57.8359C109.247 57.8359 108.893 57.9453 108.617 58.1641C108.341 58.3776 108.203 58.651 108.203 58.9844H106.305C106.305 58.5208 106.458 58.0885 106.766 57.6875C107.073 57.2812 107.49 56.9635 108.016 56.7344C108.547 56.5052 109.138 56.3906 109.789 56.3906C110.779 56.3906 111.568 56.6406 112.156 57.1406C112.745 57.6354 113.047 58.3333 113.062 59.2344V63.0469C113.062 63.8073 113.169 64.4141 113.383 64.8672V65H111.445ZM109.359 63.6328C109.734 63.6328 110.086 63.5417 110.414 63.3594C110.747 63.1771 110.997 62.9323 111.164 62.625V61.0312H110.141C109.438 61.0312 108.909 61.1536 108.555 61.3984C108.201 61.6432 108.023 61.9896 108.023 62.4375C108.023 62.8021 108.143 63.0938 108.383 63.3125C108.628 63.526 108.953 63.6328 109.359 63.6328ZM117.43 54.4922V56.5469H118.922V57.9531H117.43V62.6719C117.43 62.9948 117.492 63.2292 117.617 63.375C117.747 63.5156 117.977 63.5859 118.305 63.5859C118.523 63.5859 118.745 63.5599 118.969 63.5078V64.9766C118.536 65.0964 118.12 65.1562 117.719 65.1562C116.26 65.1562 115.531 64.3516 115.531 62.7422V57.9531H114.141V56.5469H115.531V54.4922H117.43ZM124.75 59.3594L125.367 53.625H131.477V55.2656H126.945L126.633 57.9844C127.159 57.6823 127.753 57.5312 128.414 57.5312C129.497 57.5312 130.339 57.8776 130.938 58.5703C131.542 59.263 131.844 60.1953 131.844 61.3672C131.844 62.5234 131.51 63.4453 130.844 64.1328C130.177 64.8151 129.263 65.1562 128.102 65.1562C127.06 65.1562 126.195 64.862 125.508 64.2734C124.826 63.6797 124.456 62.8984 124.398 61.9297H126.234C126.307 62.4818 126.505 62.9062 126.828 63.2031C127.151 63.4948 127.573 63.6406 128.094 63.6406C128.677 63.6406 129.13 63.4323 129.453 63.0156C129.781 62.599 129.945 62.0312 129.945 61.3125C129.945 60.6198 129.766 60.0729 129.406 59.6719C129.047 59.2656 128.552 59.0625 127.922 59.0625C127.578 59.0625 127.286 59.1094 127.047 59.2031C126.807 59.2917 126.547 59.4688 126.266 59.7344L124.75 59.3594Z" fill="#5452F6"/>
<path d="M77.4766 22.0703C77.4766 21.5703 77.2995 21.1849 76.9453 20.9141C76.5964 20.6432 75.9635 20.3698 75.0469 20.0938C74.1302 19.8177 73.401 19.5104 72.8594 19.1719C71.8229 18.5208 71.3047 17.6719 71.3047 16.625C71.3047 15.7083 71.6771 14.9531 72.4219 14.3594C73.1719 13.7656 74.1432 13.4688 75.3359 13.4688C76.1276 13.4688 76.8333 13.6146 77.4531 13.9062C78.0729 14.1979 78.5599 14.6146 78.9141 15.1562C79.2682 15.6927 79.4453 16.2891 79.4453 16.9453H77.4766C77.4766 16.3516 77.2891 15.888 76.9141 15.5547C76.5443 15.2161 76.013 15.0469 75.3203 15.0469C74.6745 15.0469 74.1719 15.1849 73.8125 15.4609C73.4583 15.737 73.2812 16.1224 73.2812 16.6172C73.2812 17.0339 73.474 17.3828 73.8594 17.6641C74.2448 17.9401 74.8802 18.2109 75.7656 18.4766C76.651 18.737 77.362 19.0365 77.8984 19.375C78.4349 19.7083 78.8281 20.0938 79.0781 20.5312C79.3281 20.9635 79.4531 21.4714 79.4531 22.0547C79.4531 23.0026 79.0885 23.7578 78.3594 24.3203C77.6354 24.8776 76.651 25.1562 75.4062 25.1562C74.5833 25.1562 73.8255 25.0052 73.1328 24.7031C72.4453 24.3958 71.9089 23.974 71.5234 23.4375C71.1432 22.901 70.9531 22.276 70.9531 21.5625H72.9297C72.9297 22.2083 73.1432 22.7083 73.5703 23.0625C73.9974 23.4167 74.6094 23.5938 75.4062 23.5938C76.0938 23.5938 76.6094 23.4557 76.9531 23.1797C77.3021 22.8984 77.4766 22.5286 77.4766 22.0703ZM90.2656 19.6094C90.2656 20.724 90.0729 21.7031 89.6875 22.5469C89.3021 23.3854 88.75 24.0312 88.0312 24.4844C87.3177 24.9323 86.4948 25.1562 85.5625 25.1562C84.6406 25.1562 83.8177 24.9323 83.0938 24.4844C82.375 24.0312 81.8177 23.388 81.4219 22.5547C81.0312 21.7214 80.8333 20.7604 80.8281 19.6719V19.0312C80.8281 17.9219 81.0234 16.9427 81.4141 16.0938C81.8099 15.2448 82.3646 14.5964 83.0781 14.1484C83.7969 13.6953 84.6198 13.4688 85.5469 13.4688C86.474 13.4688 87.2943 13.6927 88.0078 14.1406C88.7266 14.5833 89.2812 15.224 89.6719 16.0625C90.0625 16.8958 90.2604 17.8672 90.2656 18.9766V19.6094ZM88.2891 19.0156C88.2891 17.7552 88.0495 16.7891 87.5703 16.1172C87.0964 15.4453 86.4219 15.1094 85.5469 15.1094C84.6927 15.1094 84.0234 15.4453 83.5391 16.1172C83.0599 16.7839 82.8151 17.7292 82.8047 18.9531V19.6094C82.8047 20.8594 83.0469 21.8255 83.5312 22.5078C84.0208 23.1901 84.6979 23.5312 85.5625 23.5312C86.4375 23.5312 87.1094 23.1979 87.5781 22.5312C88.0521 21.8646 88.2891 20.8906 88.2891 19.6094V19.0156ZM94.7969 13.625L98.0781 22.3438L101.352 13.625H103.906V25H101.938V21.25L102.133 16.2344L98.7734 25H97.3594L94.0078 16.2422L94.2031 21.25V25H92.2344V13.625H94.7969ZM112.898 19.9219H108.227V23.4219H113.688V25H106.25V13.625H113.633V15.2188H108.227V18.3594H112.898V19.9219ZM121.117 25H119.219V16.5469H121.117V25ZM119.102 14.3516C119.102 14.0599 119.193 13.8177 119.375 13.625C119.562 13.4323 119.828 13.3359 120.172 13.3359C120.516 13.3359 120.781 13.4323 120.969 13.625C121.156 13.8177 121.25 14.0599 121.25 14.3516C121.25 14.638 121.156 14.8776 120.969 15.0703C120.781 15.2578 120.516 15.3516 120.172 15.3516C119.828 15.3516 119.562 15.2578 119.375 15.0703C119.193 14.8776 119.102 14.638 119.102 14.3516ZM124.953 16.5469L125.008 17.5234C125.633 16.7682 126.453 16.3906 127.469 16.3906C129.229 16.3906 130.125 17.3984 130.156 19.4141V25H128.258V19.5234C128.258 18.987 128.141 18.5911 127.906 18.3359C127.677 18.0755 127.299 17.9453 126.773 17.9453C126.008 17.9453 125.438 18.2917 125.062 18.9844V25H123.164V16.5469H124.953ZM134.477 14.4922V16.5469H135.969V17.9531H134.477V22.6719C134.477 22.9948 134.539 23.2292 134.664 23.375C134.794 23.5156 135.023 23.5859 135.352 23.5859C135.57 23.5859 135.792 23.5599 136.016 23.5078V24.9766C135.583 25.0964 135.167 25.1562 134.766 25.1562C133.307 25.1562 132.578 24.3516 132.578 22.7422V17.9531H131.188V16.5469H132.578V14.4922H134.477ZM147.711 20.9453H149.125V22.4688H147.711V25H145.812V22.4688H140.898L140.844 21.3125L145.75 13.625H147.711V20.9453ZM142.836 20.9453H145.812V16.1953L145.672 16.4453L142.836 20.9453ZM158.031 25H150.383V23.6953L154.172 19.5625C154.719 18.9531 155.107 18.4453 155.336 18.0391C155.57 17.6276 155.688 17.2161 155.688 16.8047C155.688 16.263 155.534 15.8255 155.227 15.4922C154.924 15.1589 154.516 14.9922 154 14.9922C153.385 14.9922 152.909 15.1797 152.57 15.5547C152.232 15.9297 152.062 16.4427 152.062 17.0938H150.164C150.164 16.401 150.32 15.7786 150.633 15.2266C150.951 14.6693 151.401 14.237 151.984 13.9297C152.573 13.6224 153.25 13.4688 154.016 13.4688C155.12 13.4688 155.99 13.7474 156.625 14.3047C157.266 14.8568 157.586 15.6224 157.586 16.6016C157.586 17.1693 157.424 17.7656 157.102 18.3906C156.784 19.0104 156.26 19.7161 155.531 20.5078L152.75 23.4844H158.031V25Z" fill="#FF5A43"/>
<path d="M0.5 8C0.5 3.85786 3.85786 0.5 8 0.5H221C225.142 0.5 228.5 3.85787 228.5 8V119.5H0.5V8Z" stroke="#5452F6"/>
</g>
<g filter="url(#filter3_d)">
<path d="M0 119H229V135C229 139.418 225.418 143 221 143H8.00001C3.58173 143 0 139.418 0 135V119Z" fill="#EEEEFF"/>
<path d="M0.5 119.5H228.5V135C228.5 139.142 225.142 142.5 221 142.5H8.00001C3.85787 142.5 0.5 139.142 0.5 135V119.5Z" stroke="#5452F6"/>
</g>
<defs>
<filter id="filter0_d" x="400" y="80" width="233" height="45" filterUnits="userSpaceOnUse" color-interpolation-filters="sRGB">
<feFlood flood-opacity="0" result="BackgroundImageFix"/>
<feColorMatrix in="SourceAlpha" type="matrix" values="0 0 0 0 0 0 0 0 0 0 0 0 0 0 0 0 0 0 127 0"/>
<feOffset dx="4" dy="4"/>
<feColorMatrix type="matrix" values="0 0 0 0 0.674908 0 0 0 0 0.662083 0 0 0 0 0.945833 0 0 0 1 0"/>
<feBlend mode="normal" in2="BackgroundImageFix" result="effect1_dropShadow"/>
<feBlend mode="normal" in="SourceGraphic" in2="effect1_dropShadow" result="shape"/>
</filter>
<filter id="filter1_d" x="400" y="120" width="233" height="28" filterUnits="userSpaceOnUse" color-interpolation-filters="sRGB">
<feFlood flood-opacity="0" result="BackgroundImageFix"/>
<feColorMatrix in="SourceAlpha" type="matrix" values="0 0 0 0 0 0 0 0 0 0 0 0 0 0 0 0 0 0 127 0"/>
<feOffset dx="4" dy="4"/>
<feColorMatrix type="matrix" values="0 0 0 0 0.674908 0 0 0 0 0.662083 0 0 0 0 0.945833 0 0 0 1 0"/>
<feBlend mode="normal" in2="BackgroundImageFix" result="effect1_dropShadow"/>
<feBlend mode="normal" in="SourceGraphic" in2="effect1_dropShadow" result="shape"/>
</filter>
<filter id="filter2_d" x="0" y="0" width="233" height="124" filterUnits="userSpaceOnUse" color-interpolation-filters="sRGB">
<feFlood flood-opacity="0" result="BackgroundImageFix"/>
<feColorMatrix in="SourceAlpha" type="matrix" values="0 0 0 0 0 0 0 0 0 0 0 0 0 0 0 0 0 0 127 0"/>
<feOffset dx="4" dy="4"/>
<feColorMatrix type="matrix" values="0 0 0 0 0.674908 0 0 0 0 0.662083 0 0 0 0 0.945833 0 0 0 1 0"/>
<feBlend mode="normal" in2="BackgroundImageFix" result="effect1_dropShadow"/>
<feBlend mode="normal" in="SourceGraphic" in2="effect1_dropShadow" result="shape"/>
</filter>
<filter id="filter3_d" x="0" y="119" width="233" height="28" filterUnits="userSpaceOnUse" color-interpolation-filters="sRGB">
<feFlood flood-opacity="0" result="BackgroundImageFix"/>
<feColorMatrix in="SourceAlpha" type="matrix" values="0 0 0 0 0 0 0 0 0 0 0 0 0 0 0 0 0 0 127 0"/>
<feOffset dx="4" dy="4"/>
<feColorMatrix type="matrix" values="0 0 0 0 0.674908 0 0 0 0 0.662083 0 0 0 0 0.945833 0 0 0 1 0"/>
<feBlend mode="normal" in2="BackgroundImageFix" result="effect1_dropShadow"/>
<feBlend mode="normal" in="SourceGraphic" in2="effect1_dropShadow" result="shape"/>
</filter>
</defs>
</svg>
