<svg width="633" height="147" viewBox="0 0 633 147" fill="none" xmlns="http://www.w3.org/2000/svg">
<line x1="253" y1="119.5" x2="387" y2="119.5" stroke="#65BF73" stroke-width="2"/>
<path d="M377 110L387.5 119.5L377 128.5" stroke="#65BF73" stroke-width="2" stroke-linecap="round" stroke-linejoin="round"/>
<circle cx="248.5" cy="120" r="5.5" stroke="#65BF73" stroke-width="2"/>
<path d="M308.25 103.422H313.414V105H306.273V93.625H308.25V103.422ZM321.539 95.2188H317.992V105H316.031V95.2188H312.516V93.625H321.539V95.2188Z" fill="#65BF73"/>
<g filter="url(#filter0_d)">
<path d="M0 8C0 3.58172 3.58172 0 8 0H221C225.418 0 229 3.58172 229 8V120H0V8Z" fill="white"/>
<line x1="0.5" y1="79.5" x2="228.5" y2="79.5" stroke="#5452F6"/>
<line x1="0.5" y1="39.5" x2="228.5" y2="39.5" stroke="#5452F6"/>
<path d="M99.25 96.5469L99.3047 97.5234C99.9297 96.7682 100.75 96.3906 101.766 96.3906C103.526 96.3906 104.422 97.3984 104.453 99.4141V105H102.555V99.5234C102.555 98.987 102.438 98.5911 102.203 98.3359C101.974 98.0755 101.596 97.9453 101.07 97.9453C100.305 97.9453 99.7344 98.2917 99.3594 98.9844V105H97.4609V96.5469H99.25ZM111.445 105C111.362 104.839 111.289 104.576 111.227 104.211C110.622 104.841 109.883 105.156 109.008 105.156C108.159 105.156 107.466 104.914 106.93 104.43C106.393 103.945 106.125 103.346 106.125 102.633C106.125 101.732 106.458 101.042 107.125 100.562C107.797 100.078 108.755 99.8359 110 99.8359H111.164V99.2812C111.164 98.8438 111.042 98.4948 110.797 98.2344C110.552 97.9688 110.18 97.8359 109.68 97.8359C109.247 97.8359 108.893 97.9453 108.617 98.1641C108.341 98.3776 108.203 98.651 108.203 98.9844H106.305C106.305 98.5208 106.458 98.0885 106.766 97.6875C107.073 97.2812 107.49 96.9635 108.016 96.7344C108.547 96.5052 109.138 96.3906 109.789 96.3906C110.779 96.3906 111.568 96.6406 112.156 97.1406C112.745 97.6354 113.047 98.3333 113.062 99.2344V103.047C113.062 103.807 113.169 104.414 113.383 104.867V105H111.445ZM109.359 103.633C109.734 103.633 110.086 103.542 110.414 103.359C110.747 103.177 110.997 102.932 111.164 102.625V101.031H110.141C109.438 101.031 108.909 101.154 108.555 101.398C108.201 101.643 108.023 101.99 108.023 102.438C108.023 102.802 108.143 103.094 108.383 103.312C108.628 103.526 108.953 103.633 109.359 103.633ZM117.43 94.4922V96.5469H118.922V97.9531H117.43V102.672C117.43 102.995 117.492 103.229 117.617 103.375C117.747 103.516 117.977 103.586 118.305 103.586C118.523 103.586 118.745 103.56 118.969 103.508V104.977C118.536 105.096 118.12 105.156 117.719 105.156C116.26 105.156 115.531 104.352 115.531 102.742V97.9531H114.141V96.5469H115.531V94.4922H117.43ZM124.75 99.3594L125.367 93.625H131.477V95.2656H126.945L126.633 97.9844C127.159 97.6823 127.753 97.5312 128.414 97.5312C129.497 97.5312 130.339 97.8776 130.938 98.5703C131.542 99.263 131.844 100.195 131.844 101.367C131.844 102.523 131.51 103.445 130.844 104.133C130.177 104.815 129.263 105.156 128.102 105.156C127.06 105.156 126.195 104.862 125.508 104.273C124.826 103.68 124.456 102.898 124.398 101.93H126.234C126.307 102.482 126.505 102.906 126.828 103.203C127.151 103.495 127.573 103.641 128.094 103.641C128.677 103.641 129.13 103.432 129.453 103.016C129.781 102.599 129.945 102.031 129.945 101.312C129.945 100.62 129.766 100.073 129.406 99.6719C129.047 99.2656 128.552 99.0625 127.922 99.0625C127.578 99.0625 127.286 99.1094 127.047 99.2031C126.807 99.2917 126.547 99.4688 126.266 99.7344L124.75 99.3594Z" fill="#5452F6"/>
<path d="M73.7891 62.0703C73.7891 61.5703 73.612 61.1849 73.2578 60.9141C72.9089 60.6432 72.276 60.3698 71.3594 60.0938C70.4427 59.8177 69.7135 59.5104 69.1719 59.1719C68.1354 58.5208 67.6172 57.6719 67.6172 56.625C67.6172 55.7083 67.9896 54.9531 68.7344 54.3594C69.4844 53.7656 70.4557 53.4688 71.6484 53.4688C72.4401 53.4688 73.1458 53.6146 73.7656 53.9062C74.3854 54.1979 74.8724 54.6146 75.2266 55.1562C75.5807 55.6927 75.7578 56.2891 75.7578 56.9453H73.7891C73.7891 56.3516 73.6016 55.888 73.2266 55.5547C72.8568 55.2161 72.3255 55.0469 71.6328 55.0469C70.987 55.0469 70.4844 55.1849 70.125 55.4609C69.7708 55.737 69.5938 56.1224 69.5938 56.6172C69.5938 57.0339 69.7865 57.3828 70.1719 57.6641C70.5573 57.9401 71.1927 58.2109 72.0781 58.4766C72.9635 58.737 73.6745 59.0365 74.2109 59.375C74.7474 59.7083 75.1406 60.0938 75.3906 60.5312C75.6406 60.9635 75.7656 61.4714 75.7656 62.0547C75.7656 63.0026 75.401 63.7578 74.6719 64.3203C73.9479 64.8776 72.9635 65.1562 71.7188 65.1562C70.8958 65.1562 70.138 65.0052 69.4453 64.7031C68.7578 64.3958 68.2214 63.974 67.8359 63.4375C67.4557 62.901 67.2656 62.276 67.2656 61.5625H69.2422C69.2422 62.2083 69.4557 62.7083 69.8828 63.0625C70.3099 63.4167 70.9219 63.5938 71.7188 63.5938C72.4062 63.5938 72.9219 63.4557 73.2656 63.1797C73.6146 62.8984 73.7891 62.5286 73.7891 62.0703ZM79.6953 54.4922V56.5469H81.1875V57.9531H79.6953V62.6719C79.6953 62.9948 79.7578 63.2292 79.8828 63.375C80.013 63.5156 80.2422 63.5859 80.5703 63.5859C80.7891 63.5859 81.0104 63.5599 81.2344 63.5078V64.9766C80.8021 65.0964 80.3854 65.1562 79.9844 65.1562C78.526 65.1562 77.7969 64.3516 77.7969 62.7422V57.9531H76.4062V56.5469H77.7969V54.4922H79.6953ZM87.0703 58.2812C86.8203 58.2396 86.5625 58.2188 86.2969 58.2188C85.4271 58.2188 84.8411 58.5521 84.5391 59.2188V65H82.6406V56.5469H84.4531L84.5 57.4922C84.9583 56.7578 85.5938 56.3906 86.4062 56.3906C86.6771 56.3906 86.901 56.4271 87.0781 56.5L87.0703 58.2812ZM90.2891 65H88.3906V56.5469H90.2891V65ZM88.2734 54.3516C88.2734 54.0599 88.3646 53.8177 88.5469 53.625C88.7344 53.4323 89 53.3359 89.3438 53.3359C89.6875 53.3359 89.9531 53.4323 90.1406 53.625C90.3281 53.8177 90.4219 54.0599 90.4219 54.3516C90.4219 54.638 90.3281 54.8776 90.1406 55.0703C89.9531 55.2578 89.6875 55.3516 89.3438 55.3516C89 55.3516 88.7344 55.2578 88.5469 55.0703C88.3646 54.8776 88.2734 54.638 88.2734 54.3516ZM94.125 56.5469L94.1797 57.5234C94.8047 56.7682 95.625 56.3906 96.6406 56.3906C98.401 56.3906 99.2969 57.3984 99.3281 59.4141V65H97.4297V59.5234C97.4297 58.987 97.3125 58.5911 97.0781 58.3359C96.849 58.0755 96.4714 57.9453 95.9453 57.9453C95.1797 57.9453 94.6094 58.2917 94.2344 58.9844V65H92.3359V56.5469H94.125ZM100.938 60.7109C100.938 59.3984 101.245 58.3516 101.859 57.5703C102.479 56.7839 103.299 56.3906 104.32 56.3906C105.284 56.3906 106.042 56.7266 106.594 57.3984L106.68 56.5469H108.391V64.7422C108.391 65.8516 108.044 66.7266 107.352 67.3672C106.664 68.0078 105.734 68.3281 104.562 68.3281C103.943 68.3281 103.336 68.1979 102.742 67.9375C102.154 67.6823 101.706 67.3464 101.398 66.9297L102.297 65.7891C102.88 66.4818 103.599 66.8281 104.453 66.8281C105.083 66.8281 105.581 66.6562 105.945 66.3125C106.31 65.974 106.492 65.474 106.492 64.8125V64.2422C105.945 64.8516 105.216 65.1562 104.305 65.1562C103.315 65.1562 102.505 64.763 101.875 63.9766C101.25 63.1901 100.938 62.1016 100.938 60.7109ZM102.828 60.875C102.828 61.724 103 62.3932 103.344 62.8828C103.693 63.3672 104.174 63.6094 104.789 63.6094C105.555 63.6094 106.122 63.2812 106.492 62.625V58.9062C106.133 58.2656 105.57 57.9453 104.805 57.9453C104.18 57.9453 103.693 58.1927 103.344 58.6875C103 59.1823 102.828 59.9115 102.828 60.875ZM115.633 52.7969L116.602 53.3984C116.128 54.0911 115.883 54.8125 115.867 55.5625V56.75H114.203V55.6719C114.208 55.1719 114.344 54.651 114.609 54.1094C114.88 53.5625 115.221 53.125 115.633 52.7969ZM118.258 52.7969L119.227 53.3984C118.753 54.0911 118.508 54.8125 118.492 55.5625V56.75H116.828V55.6719C116.833 55.1719 116.969 54.651 117.234 54.1094C117.505 53.5625 117.846 53.125 118.258 52.7969ZM129.703 65H127.734V59.9453H122.648V65H120.672V53.625H122.648V58.3594H127.734V53.625H129.703V65ZM135.586 65.1562C134.383 65.1562 133.406 64.7786 132.656 64.0234C131.911 63.263 131.539 62.2526 131.539 60.9922V60.7578C131.539 59.9141 131.701 59.1615 132.023 58.5C132.352 57.8333 132.81 57.3151 133.398 56.9453C133.987 56.5755 134.643 56.3906 135.367 56.3906C136.518 56.3906 137.406 56.7578 138.031 57.4922C138.661 58.2266 138.977 59.2656 138.977 60.6094V61.375H133.453C133.51 62.0729 133.742 62.625 134.148 63.0312C134.56 63.4375 135.076 63.6406 135.695 63.6406C136.565 63.6406 137.273 63.2891 137.82 62.5859L138.844 63.5625C138.505 64.0677 138.052 64.4609 137.484 64.7422C136.922 65.0182 136.289 65.1562 135.586 65.1562ZM135.359 57.9141C134.839 57.9141 134.417 58.0964 134.094 58.4609C133.776 58.8255 133.573 59.3333 133.484 59.9844H137.102V59.8438C137.06 59.2083 136.891 58.7292 136.594 58.4062C136.297 58.0781 135.885 57.9141 135.359 57.9141ZM142.477 65H140.578V53H142.477V65ZM146.57 65H144.672V53H146.57V65ZM148.289 60.6953C148.289 59.8672 148.453 59.1224 148.781 58.4609C149.109 57.7943 149.57 57.2839 150.164 56.9297C150.758 56.5703 151.44 56.3906 152.211 56.3906C153.352 56.3906 154.276 56.7578 154.984 57.4922C155.698 58.2266 156.083 59.2005 156.141 60.4141L156.148 60.8594C156.148 61.6927 155.987 62.4375 155.664 63.0938C155.346 63.75 154.888 64.2578 154.289 64.6172C153.695 64.9766 153.008 65.1562 152.227 65.1562C151.034 65.1562 150.078 64.7604 149.359 63.9688C148.646 63.1719 148.289 62.112 148.289 60.7891V60.6953ZM150.188 60.8594C150.188 61.7292 150.367 62.4115 150.727 62.9062C151.086 63.3958 151.586 63.6406 152.227 63.6406C152.867 63.6406 153.365 63.3906 153.719 62.8906C154.078 62.3906 154.258 61.6589 154.258 60.6953C154.258 59.8411 154.073 59.1641 153.703 58.6641C153.339 58.1641 152.841 57.9141 152.211 57.9141C151.591 57.9141 151.099 58.1615 150.734 58.6562C150.37 59.1458 150.188 59.8802 150.188 60.8594ZM157.562 57L156.594 56.3984C157.062 55.7161 157.305 54.9948 157.32 54.2344V53H158.984V54.0781C158.984 54.6146 158.846 55.1562 158.57 55.7031C158.299 56.2448 157.964 56.6771 157.562 57ZM160.172 57L159.203 56.3984C159.672 55.7161 159.914 54.9948 159.93 54.2344V53H161.594V54.0781C161.594 54.6146 161.456 55.1562 161.18 55.7031C160.909 56.2448 160.573 56.6771 160.172 57Z" fill="#5452F6"/>
<path d="M94.6172 25H92.7188V16.5469H94.6172V25ZM92.6016 14.3516C92.6016 14.0599 92.6927 13.8177 92.875 13.625C93.0625 13.4323 93.3281 13.3359 93.6719 13.3359C94.0156 13.3359 94.2812 13.4323 94.4688 13.625C94.6562 13.8177 94.75 14.0599 94.75 14.3516C94.75 14.638 94.6562 14.8776 94.4688 15.0703C94.2812 15.2578 94.0156 15.3516 93.6719 15.3516C93.3281 15.3516 93.0625 15.2578 92.875 15.0703C92.6927 14.8776 92.6016 14.638 92.6016 14.3516ZM98.4531 16.5469L98.5078 17.5234C99.1328 16.7682 99.9531 16.3906 100.969 16.3906C102.729 16.3906 103.625 17.3984 103.656 19.4141V25H101.758V19.5234C101.758 18.987 101.641 18.5911 101.406 18.3359C101.177 18.0755 100.799 17.9453 100.273 17.9453C99.5078 17.9453 98.9375 18.2917 98.5625 18.9844V25H96.6641V16.5469H98.4531ZM107.977 14.4922V16.5469H109.469V17.9531H107.977V22.6719C107.977 22.9948 108.039 23.2292 108.164 23.375C108.294 23.5156 108.523 23.5859 108.852 23.5859C109.07 23.5859 109.292 23.5599 109.516 23.5078V24.9766C109.083 25.0964 108.667 25.1562 108.266 25.1562C106.807 25.1562 106.078 24.3516 106.078 22.7422V17.9531H104.688V16.5469H106.078V14.4922H107.977ZM118.594 20.9297H114.492V19.3984H118.594V20.9297ZM125.18 25H123.289V15.8672L120.5 16.8203V15.2188L124.938 13.5859H125.18V25ZM136.781 25H129.133V23.6953L132.922 19.5625C133.469 18.9531 133.857 18.4453 134.086 18.0391C134.32 17.6276 134.438 17.2161 134.438 16.8047C134.438 16.263 134.284 15.8255 133.977 15.4922C133.674 15.1589 133.266 14.9922 132.75 14.9922C132.135 14.9922 131.659 15.1797 131.32 15.5547C130.982 15.9297 130.812 16.4427 130.812 17.0938H128.914C128.914 16.401 129.07 15.7786 129.383 15.2266C129.701 14.6693 130.151 14.237 130.734 13.9297C131.323 13.6224 132 13.4688 132.766 13.4688C133.87 13.4688 134.74 13.7474 135.375 14.3047C136.016 14.8568 136.336 15.6224 136.336 16.6016C136.336 17.1693 136.174 17.7656 135.852 18.3906C135.534 19.0104 135.01 19.7161 134.281 20.5078L131.5 23.4844H136.781V25Z" fill="#FF5A43"/>
<path d="M0.5 8C0.5 3.85786 3.85786 0.5 8 0.5H221C225.142 0.5 228.5 3.85787 228.5 8V119.5H0.5V8Z" stroke="#5452F6"/>
</g>
<g filter="url(#filter1_d)">
<path d="M0 119H229V135C229 139.418 225.418 143 221 143H8.00001C3.58173 143 0 139.418 0 135V119Z" fill="#EEEEFF"/>
<path d="M0.5 119.5H228.5V135C228.5 139.142 225.142 142.5 221 142.5H8.00001C3.85787 142.5 0.5 139.142 0.5 135V119.5Z" stroke="#5452F6"/>
</g>
<g filter="url(#filter2_d)">
<path d="M400 8C400 3.58172 403.582 0 408 0H621C625.418 0 629 3.58172 629 8V120H400V8Z" fill="white"/>
<line x1="400.5" y1="79.5" x2="628.5" y2="79.5" stroke="#5452F6"/>
<line x1="400.5" y1="39.5" x2="628.5" y2="39.5" stroke="#5452F6"/>
<path d="M499.25 96.5469L499.305 97.5234C499.93 96.7682 500.75 96.3906 501.766 96.3906C503.526 96.3906 504.422 97.3984 504.453 99.4141V105H502.555V99.5234C502.555 98.987 502.438 98.5911 502.203 98.3359C501.974 98.0755 501.596 97.9453 501.07 97.9453C500.305 97.9453 499.734 98.2917 499.359 98.9844V105H497.461V96.5469H499.25ZM511.445 105C511.362 104.839 511.289 104.576 511.227 104.211C510.622 104.841 509.883 105.156 509.008 105.156C508.159 105.156 507.466 104.914 506.93 104.43C506.393 103.945 506.125 103.346 506.125 102.633C506.125 101.732 506.458 101.042 507.125 100.562C507.797 100.078 508.755 99.8359 510 99.8359H511.164V99.2812C511.164 98.8438 511.042 98.4948 510.797 98.2344C510.552 97.9688 510.18 97.8359 509.68 97.8359C509.247 97.8359 508.893 97.9453 508.617 98.1641C508.341 98.3776 508.203 98.651 508.203 98.9844H506.305C506.305 98.5208 506.458 98.0885 506.766 97.6875C507.073 97.2812 507.49 96.9635 508.016 96.7344C508.547 96.5052 509.138 96.3906 509.789 96.3906C510.779 96.3906 511.568 96.6406 512.156 97.1406C512.745 97.6354 513.047 98.3333 513.062 99.2344V103.047C513.062 103.807 513.169 104.414 513.383 104.867V105H511.445ZM509.359 103.633C509.734 103.633 510.086 103.542 510.414 103.359C510.747 103.177 510.997 102.932 511.164 102.625V101.031H510.141C509.438 101.031 508.909 101.154 508.555 101.398C508.201 101.643 508.023 101.99 508.023 102.438C508.023 102.802 508.143 103.094 508.383 103.312C508.628 103.526 508.953 103.633 509.359 103.633ZM517.43 94.4922V96.5469H518.922V97.9531H517.43V102.672C517.43 102.995 517.492 103.229 517.617 103.375C517.747 103.516 517.977 103.586 518.305 103.586C518.523 103.586 518.745 103.56 518.969 103.508V104.977C518.536 105.096 518.12 105.156 517.719 105.156C516.26 105.156 515.531 104.352 515.531 102.742V97.9531H514.141V96.5469H515.531V94.4922H517.43ZM524.75 99.3594L525.367 93.625H531.477V95.2656H526.945L526.633 97.9844C527.159 97.6823 527.753 97.5312 528.414 97.5312C529.497 97.5312 530.339 97.8776 530.938 98.5703C531.542 99.263 531.844 100.195 531.844 101.367C531.844 102.523 531.51 103.445 530.844 104.133C530.177 104.815 529.263 105.156 528.102 105.156C527.06 105.156 526.195 104.862 525.508 104.273C524.826 103.68 524.456 102.898 524.398 101.93H526.234C526.307 102.482 526.505 102.906 526.828 103.203C527.151 103.495 527.573 103.641 528.094 103.641C528.677 103.641 529.13 103.432 529.453 103.016C529.781 102.599 529.945 102.031 529.945 101.312C529.945 100.62 529.766 100.073 529.406 99.6719C529.047 99.2656 528.552 99.0625 527.922 99.0625C527.578 99.0625 527.286 99.1094 527.047 99.2031C526.807 99.2917 526.547 99.4688 526.266 99.7344L524.75 99.3594Z" fill="#5452F6"/>
<path d="M473.289 63.0703C473.289 62.5703 473.112 62.1849 472.758 61.9141C472.409 61.6432 471.776 61.3698 470.859 61.0938C469.943 60.8177 469.214 60.5104 468.672 60.1719C467.635 59.5208 467.117 58.6719 467.117 57.625C467.117 56.7083 467.49 55.9531 468.234 55.3594C468.984 54.7656 469.956 54.4688 471.148 54.4688C471.94 54.4688 472.646 54.6146 473.266 54.9062C473.885 55.1979 474.372 55.6146 474.727 56.1562C475.081 56.6927 475.258 57.2891 475.258 57.9453H473.289C473.289 57.3516 473.102 56.888 472.727 56.5547C472.357 56.2161 471.826 56.0469 471.133 56.0469C470.487 56.0469 469.984 56.1849 469.625 56.4609C469.271 56.737 469.094 57.1224 469.094 57.6172C469.094 58.0339 469.286 58.3828 469.672 58.6641C470.057 58.9401 470.693 59.2109 471.578 59.4766C472.464 59.737 473.174 60.0365 473.711 60.375C474.247 60.7083 474.641 61.0938 474.891 61.5312C475.141 61.9635 475.266 62.4714 475.266 63.0547C475.266 64.0026 474.901 64.7578 474.172 65.3203C473.448 65.8776 472.464 66.1562 471.219 66.1562C470.396 66.1562 469.638 66.0052 468.945 65.7031C468.258 65.3958 467.721 64.974 467.336 64.4375C466.956 63.901 466.766 63.276 466.766 62.5625H468.742C468.742 63.2083 468.956 63.7083 469.383 64.0625C469.81 64.4167 470.422 64.5938 471.219 64.5938C471.906 64.5938 472.422 64.4557 472.766 64.1797C473.115 63.8984 473.289 63.5286 473.289 63.0703ZM479.195 55.4922V57.5469H480.688V58.9531H479.195V63.6719C479.195 63.9948 479.258 64.2292 479.383 64.375C479.513 64.5156 479.742 64.5859 480.07 64.5859C480.289 64.5859 480.51 64.5599 480.734 64.5078V65.9766C480.302 66.0964 479.885 66.1562 479.484 66.1562C478.026 66.1562 477.297 65.3516 477.297 63.7422V58.9531H475.906V57.5469H477.297V55.4922H479.195ZM486.57 59.2812C486.32 59.2396 486.062 59.2188 485.797 59.2188C484.927 59.2188 484.341 59.5521 484.039 60.2188V66H482.141V57.5469H483.953L484 58.4922C484.458 57.7578 485.094 57.3906 485.906 57.3906C486.177 57.3906 486.401 57.4271 486.578 57.5L486.57 59.2812ZM489.789 66H487.891V57.5469H489.789V66ZM487.773 55.3516C487.773 55.0599 487.865 54.8177 488.047 54.625C488.234 54.4323 488.5 54.3359 488.844 54.3359C489.188 54.3359 489.453 54.4323 489.641 54.625C489.828 54.8177 489.922 55.0599 489.922 55.3516C489.922 55.638 489.828 55.8776 489.641 56.0703C489.453 56.2578 489.188 56.3516 488.844 56.3516C488.5 56.3516 488.234 56.2578 488.047 56.0703C487.865 55.8776 487.773 55.638 487.773 55.3516ZM493.625 57.5469L493.68 58.5234C494.305 57.7682 495.125 57.3906 496.141 57.3906C497.901 57.3906 498.797 58.3984 498.828 60.4141V66H496.93V60.5234C496.93 59.987 496.812 59.5911 496.578 59.3359C496.349 59.0755 495.971 58.9453 495.445 58.9453C494.68 58.9453 494.109 59.2917 493.734 59.9844V66H491.836V57.5469H493.625ZM500.438 61.7109C500.438 60.3984 500.745 59.3516 501.359 58.5703C501.979 57.7839 502.799 57.3906 503.82 57.3906C504.784 57.3906 505.542 57.7266 506.094 58.3984L506.18 57.5469H507.891V65.7422C507.891 66.8516 507.544 67.7266 506.852 68.3672C506.164 69.0078 505.234 69.3281 504.062 69.3281C503.443 69.3281 502.836 69.1979 502.242 68.9375C501.654 68.6823 501.206 68.3464 500.898 67.9297L501.797 66.7891C502.38 67.4818 503.099 67.8281 503.953 67.8281C504.583 67.8281 505.081 67.6562 505.445 67.3125C505.81 66.974 505.992 66.474 505.992 65.8125V65.2422C505.445 65.8516 504.716 66.1562 503.805 66.1562C502.815 66.1562 502.005 65.763 501.375 64.9766C500.75 64.1901 500.438 63.1016 500.438 61.7109ZM502.328 61.875C502.328 62.724 502.5 63.3932 502.844 63.8828C503.193 64.3672 503.674 64.6094 504.289 64.6094C505.055 64.6094 505.622 64.2812 505.992 63.625V59.9062C505.633 59.2656 505.07 58.9453 504.305 58.9453C503.68 58.9453 503.193 59.1927 502.844 59.6875C502.5 60.1823 502.328 60.9115 502.328 61.875ZM515.133 53.7969L516.102 54.3984C515.628 55.0911 515.383 55.8125 515.367 56.5625V57.75H513.703V56.6719C513.708 56.1719 513.844 55.651 514.109 55.1094C514.38 54.5625 514.721 54.125 515.133 53.7969ZM517.758 53.7969L518.727 54.3984C518.253 55.0911 518.008 55.8125 517.992 56.5625V57.75H516.328V56.6719C516.333 56.1719 516.469 55.651 516.734 55.1094C517.005 54.5625 517.346 54.125 517.758 53.7969ZM529.203 66H527.234V60.9453H522.148V66H520.172V54.625H522.148V59.3594H527.234V54.625H529.203V66ZM535.086 66.1562C533.883 66.1562 532.906 65.7786 532.156 65.0234C531.411 64.263 531.039 63.2526 531.039 61.9922V61.7578C531.039 60.9141 531.201 60.1615 531.523 59.5C531.852 58.8333 532.31 58.3151 532.898 57.9453C533.487 57.5755 534.143 57.3906 534.867 57.3906C536.018 57.3906 536.906 57.7578 537.531 58.4922C538.161 59.2266 538.477 60.2656 538.477 61.6094V62.375H532.953C533.01 63.0729 533.242 63.625 533.648 64.0312C534.06 64.4375 534.576 64.6406 535.195 64.6406C536.065 64.6406 536.773 64.2891 537.32 63.5859L538.344 64.5625C538.005 65.0677 537.552 65.4609 536.984 65.7422C536.422 66.0182 535.789 66.1562 535.086 66.1562ZM534.859 58.9141C534.339 58.9141 533.917 59.0964 533.594 59.4609C533.276 59.8255 533.073 60.3333 532.984 60.9844H536.602V60.8438C536.56 60.2083 536.391 59.7292 536.094 59.4062C535.797 59.0781 535.385 58.9141 534.859 58.9141ZM541.977 66H540.078V54H541.977V66ZM546.07 66H544.172V54H546.07V66ZM547.789 61.6953C547.789 60.8672 547.953 60.1224 548.281 59.4609C548.609 58.7943 549.07 58.2839 549.664 57.9297C550.258 57.5703 550.94 57.3906 551.711 57.3906C552.852 57.3906 553.776 57.7578 554.484 58.4922C555.198 59.2266 555.583 60.2005 555.641 61.4141L555.648 61.8594C555.648 62.6927 555.487 63.4375 555.164 64.0938C554.846 64.75 554.388 65.2578 553.789 65.6172C553.195 65.9766 552.508 66.1562 551.727 66.1562C550.534 66.1562 549.578 65.7604 548.859 64.9688C548.146 64.1719 547.789 63.112 547.789 61.7891V61.6953ZM549.688 61.8594C549.688 62.7292 549.867 63.4115 550.227 63.9062C550.586 64.3958 551.086 64.6406 551.727 64.6406C552.367 64.6406 552.865 64.3906 553.219 63.8906C553.578 63.3906 553.758 62.6589 553.758 61.6953C553.758 60.8411 553.573 60.1641 553.203 59.6641C552.839 59.1641 552.341 58.9141 551.711 58.9141C551.091 58.9141 550.599 59.1615 550.234 59.6562C549.87 60.1458 549.688 60.8802 549.688 61.8594ZM557.062 58L556.094 57.3984C556.562 56.7161 556.805 55.9948 556.82 55.2344V54H558.484V55.0781C558.484 55.6146 558.346 56.1562 558.07 56.7031C557.799 57.2448 557.464 57.6771 557.062 58ZM559.672 58L558.703 57.3984C559.172 56.7161 559.414 55.9948 559.43 55.2344V54H561.094V55.0781C561.094 55.6146 560.956 56.1562 560.68 56.7031C560.409 57.2448 560.073 57.6771 559.672 58Z" fill="#5452F6"/>
<path d="M507.719 15.2188H504.172V25H502.211V15.2188H498.695V13.625H507.719V15.2188ZM512.945 18.2812C512.695 18.2396 512.438 18.2188 512.172 18.2188C511.302 18.2188 510.716 18.5521 510.414 19.2188V25H508.516V16.5469H510.328L510.375 17.4922C510.833 16.7578 511.469 16.3906 512.281 16.3906C512.552 16.3906 512.776 16.4271 512.953 16.5L512.945 18.2812ZM519.266 24.1719C518.708 24.8281 517.917 25.1562 516.891 25.1562C515.974 25.1562 515.279 24.888 514.805 24.3516C514.336 23.8151 514.102 23.0391 514.102 22.0234V16.5469H516V22C516 23.0729 516.445 23.6094 517.336 23.6094C518.258 23.6094 518.88 23.2786 519.203 22.6172V16.5469H521.102V25H519.312L519.266 24.1719ZM526.758 25.1562C525.555 25.1562 524.578 24.7786 523.828 24.0234C523.083 23.263 522.711 22.2526 522.711 20.9922V20.7578C522.711 19.9141 522.872 19.1615 523.195 18.5C523.523 17.8333 523.982 17.3151 524.57 16.9453C525.159 16.5755 525.815 16.3906 526.539 16.3906C527.69 16.3906 528.578 16.7578 529.203 17.4922C529.833 18.2266 530.148 19.2656 530.148 20.6094V21.375H524.625C524.682 22.0729 524.914 22.625 525.32 23.0312C525.732 23.4375 526.247 23.6406 526.867 23.6406C527.737 23.6406 528.445 23.2891 528.992 22.5859L530.016 23.5625C529.677 24.0677 529.224 24.4609 528.656 24.7422C528.094 25.0182 527.461 25.1562 526.758 25.1562ZM526.531 17.9141C526.01 17.9141 525.589 18.0964 525.266 18.4609C524.948 18.8255 524.745 19.3333 524.656 19.9844H528.273V19.8438C528.232 19.2083 528.062 18.7292 527.766 18.4062C527.469 18.0781 527.057 17.9141 526.531 17.9141Z" fill="#FF5A43"/>
<path d="M400.5 8C400.5 3.85786 403.858 0.5 408 0.5H621C625.142 0.5 628.5 3.85787 628.5 8V119.5H400.5V8Z" stroke="#5452F6"/>
</g>
<g filter="url(#filter3_d)">
<path d="M400 119H629V135C629 139.418 625.418 143 621 143H408C403.582 143 400 139.418 400 135V119Z" fill="#EEEEFF"/>
<path d="M400.5 119.5H628.5V135C628.5 139.142 625.142 142.5 621 142.5H408C403.858 142.5 400.5 139.142 400.5 135V119.5Z" stroke="#5452F6"/>
</g>
<defs>
<filter id="filter0_d" x="0" y="0" width="233" height="124" filterUnits="userSpaceOnUse" color-interpolation-filters="sRGB">
<feFlood flood-opacity="0" result="BackgroundImageFix"/>
<feColorMatrix in="SourceAlpha" type="matrix" values="0 0 0 0 0 0 0 0 0 0 0 0 0 0 0 0 0 0 127 0"/>
<feOffset dx="4" dy="4"/>
<feColorMatrix type="matrix" values="0 0 0 0 0.674908 0 0 0 0 0.662083 0 0 0 0 0.945833 0 0 0 1 0"/>
<feBlend mode="normal" in2="BackgroundImageFix" result="effect1_dropShadow"/>
<feBlend mode="normal" in="SourceGraphic" in2="effect1_dropShadow" result="shape"/>
</filter>
<filter id="filter1_d" x="0" y="119" width="233" height="28" filterUnits="userSpaceOnUse" color-interpolation-filters="sRGB">
<feFlood flood-opacity="0" result="BackgroundImageFix"/>
<feColorMatrix in="SourceAlpha" type="matrix" values="0 0 0 0 0 0 0 0 0 0 0 0 0 0 0 0 0 0 127 0"/>
<feOffset dx="4" dy="4"/>
<feColorMatrix type="matrix" values="0 0 0 0 0.674908 0 0 0 0 0.662083 0 0 0 0 0.945833 0 0 0 1 0"/>
<feBlend mode="normal" in2="BackgroundImageFix" result="effect1_dropShadow"/>
<feBlend mode="normal" in="SourceGraphic" in2="effect1_dropShadow" result="shape"/>
</filter>
<filter id="filter2_d" x="400" y="0" width="233" height="124" filterUnits="userSpaceOnUse" color-interpolation-filters="sRGB">
<feFlood flood-opacity="0" result="BackgroundImageFix"/>
<feColorMatrix in="SourceAlpha" type="matrix" values="0 0 0 0 0 0 0 0 0 0 0 0 0 0 0 0 0 0 127 0"/>
<feOffset dx="4" dy="4"/>
<feColorMatrix type="matrix" values="0 0 0 0 0.674908 0 0 0 0 0.662083 0 0 0 0 0.945833 0 0 0 1 0"/>
<feBlend mode="normal" in2="BackgroundImageFix" result="effect1_dropShadow"/>
<feBlend mode="normal" in="SourceGraphic" in2="effect1_dropShadow" result="shape"/>
</filter>
<filter id="filter3_d" x="400" y="119" width="233" height="28" filterUnits="userSpaceOnUse" color-interpolation-filters="sRGB">
<feFlood flood-opacity="0" result="BackgroundImageFix"/>
<feColorMatrix in="SourceAlpha" type="matrix" values="0 0 0 0 0 0 0 0 0 0 0 0 0 0 0 0 0 0 127 0"/>
<feOffset dx="4" dy="4"/>
<feColorMatrix type="matrix" values="0 0 0 0 0.674908 0 0 0 0 0.662083 0 0 0 0 0.945833 0 0 0 1 0"/>
<feBlend mode="normal" in2="BackgroundImageFix" result="effect1_dropShadow"/>
<feBlend mode="normal" in="SourceGraphic" in2="effect1_dropShadow" result="shape"/>
</filter>
</defs>
</svg>
