<svg width="233" height="107" viewBox="0 0 233 107" fill="none" xmlns="http://www.w3.org/2000/svg">
<g filter="url(#filter0_d)">
<path d="M0 8C0 3.58172 3.58172 0 8 0H221C225.418 0 229 3.58172 229 8V80H0V8Z" fill="white"/>
<path d="M8 0.5H221C225.142 0.5 228.5 3.85787 228.5 8V79.5H0.5V8C0.5 3.85787 3.85786 0.5 8 0.5Z" stroke="#5452F6"/>
</g>
<g filter="url(#filter1_d)">
<path d="M0 79H229V95C229 99.4183 225.418 103 221 103H8.00001C3.58173 103 0 99.4183 0 95V79Z" fill="#EEEEFF"/>
<path d="M0.5 79.5H228.5V95C228.5 99.1421 225.142 102.5 221 102.5H8.00001C3.85787 102.5 0.5 99.1421 0.5 95V79.5Z" stroke="#5452F6"/>
</g>
<line x1="0.5" y1="39.5" x2="228.5" y2="39.5" stroke="#5452F6"/>
<path d="M99.25 56.5469L99.3047 57.5234C99.9297 56.7682 100.75 56.3906 101.766 56.3906C103.526 56.3906 104.422 57.3984 104.453 59.4141V65H102.555V59.5234C102.555 58.987 102.438 58.5911 102.203 58.3359C101.974 58.0755 101.596 57.9453 101.07 57.9453C100.305 57.9453 99.7344 58.2917 99.3594 58.9844V65H97.4609V56.5469H99.25ZM111.445 65C111.362 64.8385 111.289 64.5755 111.227 64.2109C110.622 64.8411 109.883 65.1562 109.008 65.1562C108.159 65.1562 107.466 64.9141 106.93 64.4297C106.393 63.9453 106.125 63.3464 106.125 62.6328C106.125 61.7318 106.458 61.0417 107.125 60.5625C107.797 60.0781 108.755 59.8359 110 59.8359H111.164V59.2812C111.164 58.8438 111.042 58.4948 110.797 58.2344C110.552 57.9688 110.18 57.8359 109.68 57.8359C109.247 57.8359 108.893 57.9453 108.617 58.1641C108.341 58.3776 108.203 58.651 108.203 58.9844H106.305C106.305 58.5208 106.458 58.0885 106.766 57.6875C107.073 57.2812 107.49 56.9635 108.016 56.7344C108.547 56.5052 109.138 56.3906 109.789 56.3906C110.779 56.3906 111.568 56.6406 112.156 57.1406C112.745 57.6354 113.047 58.3333 113.062 59.2344V63.0469C113.062 63.8073 113.169 64.4141 113.383 64.8672V65H111.445ZM109.359 63.6328C109.734 63.6328 110.086 63.5417 110.414 63.3594C110.747 63.1771 110.997 62.9323 111.164 62.625V61.0312H110.141C109.438 61.0312 108.909 61.1536 108.555 61.3984C108.201 61.6432 108.023 61.9896 108.023 62.4375C108.023 62.8021 108.143 63.0938 108.383 63.3125C108.628 63.526 108.953 63.6328 109.359 63.6328ZM117.43 54.4922V56.5469H118.922V57.9531H117.43V62.6719C117.43 62.9948 117.492 63.2292 117.617 63.375C117.747 63.5156 117.977 63.5859 118.305 63.5859C118.523 63.5859 118.745 63.5599 118.969 63.5078V64.9766C118.536 65.0964 118.12 65.1562 117.719 65.1562C116.26 65.1562 115.531 64.3516 115.531 62.7422V57.9531H114.141V56.5469H115.531V54.4922H117.43ZM124.75 59.3594L125.367 53.625H131.477V55.2656H126.945L126.633 57.9844C127.159 57.6823 127.753 57.5312 128.414 57.5312C129.497 57.5312 130.339 57.8776 130.938 58.5703C131.542 59.263 131.844 60.1953 131.844 61.3672C131.844 62.5234 131.51 63.4453 130.844 64.1328C130.177 64.8151 129.263 65.1562 128.102 65.1562C127.06 65.1562 126.195 64.862 125.508 64.2734C124.826 63.6797 124.456 62.8984 124.398 61.9297H126.234C126.307 62.4818 126.505 62.9062 126.828 63.2031C127.151 63.4948 127.573 63.6406 128.094 63.6406C128.677 63.6406 129.13 63.4323 129.453 63.0156C129.781 62.599 129.945 62.0312 129.945 61.3125C129.945 60.6198 129.766 60.0729 129.406 59.6719C129.047 59.2656 128.552 59.0625 127.922 59.0625C127.578 59.0625 127.286 59.1094 127.047 59.2031C126.807 59.2917 126.547 59.4688 126.266 59.7344L124.75 59.3594Z" fill="#5452F6"/>
<path d="M99.25 16.5469L99.3047 17.5234C99.9297 16.7682 100.75 16.3906 101.766 16.3906C103.526 16.3906 104.422 17.3984 104.453 19.4141V25H102.555V19.5234C102.555 18.987 102.438 18.5911 102.203 18.3359C101.974 18.0755 101.596 17.9453 101.07 17.9453C100.305 17.9453 99.7344 18.2917 99.3594 18.9844V25H97.4609V16.5469H99.25ZM111.445 25C111.362 24.8385 111.289 24.5755 111.227 24.2109C110.622 24.8411 109.883 25.1562 109.008 25.1562C108.159 25.1562 107.466 24.9141 106.93 24.4297C106.393 23.9453 106.125 23.3464 106.125 22.6328C106.125 21.7318 106.458 21.0417 107.125 20.5625C107.797 20.0781 108.755 19.8359 110 19.8359H111.164V19.2812C111.164 18.8438 111.042 18.4948 110.797 18.2344C110.552 17.9688 110.18 17.8359 109.68 17.8359C109.247 17.8359 108.893 17.9453 108.617 18.1641C108.341 18.3776 108.203 18.651 108.203 18.9844H106.305C106.305 18.5208 106.458 18.0885 106.766 17.6875C107.073 17.2812 107.49 16.9635 108.016 16.7344C108.547 16.5052 109.138 16.3906 109.789 16.3906C110.779 16.3906 111.568 16.6406 112.156 17.1406C112.745 17.6354 113.047 18.3333 113.062 19.2344V23.0469C113.062 23.8073 113.169 24.4141 113.383 24.8672V25H111.445ZM109.359 23.6328C109.734 23.6328 110.086 23.5417 110.414 23.3594C110.747 23.1771 110.997 22.9323 111.164 22.625V21.0312H110.141C109.438 21.0312 108.909 21.1536 108.555 21.3984C108.201 21.6432 108.023 21.9896 108.023 22.4375C108.023 22.8021 108.143 23.0938 108.383 23.3125C108.628 23.526 108.953 23.6328 109.359 23.6328ZM117.43 14.4922V16.5469H118.922V17.9531H117.43V22.6719C117.43 22.9948 117.492 23.2292 117.617 23.375C117.747 23.5156 117.977 23.5859 118.305 23.5859C118.523 23.5859 118.745 23.5599 118.969 23.5078V24.9766C118.536 25.0964 118.12 25.1562 117.719 25.1562C116.26 25.1562 115.531 24.3516 115.531 22.7422V17.9531H114.141V16.5469H115.531V14.4922H117.43ZM131.891 25H124.242V23.6953L128.031 19.5625C128.578 18.9531 128.966 18.4453 129.195 18.0391C129.43 17.6276 129.547 17.2161 129.547 16.8047C129.547 16.263 129.393 15.8255 129.086 15.4922C128.784 15.1589 128.375 14.9922 127.859 14.9922C127.245 14.9922 126.768 15.1797 126.43 15.5547C126.091 15.9297 125.922 16.4427 125.922 17.0938H124.023C124.023 16.401 124.18 15.7786 124.492 15.2266C124.81 14.6693 125.26 14.237 125.844 13.9297C126.432 13.6224 127.109 13.4688 127.875 13.4688C128.979 13.4688 129.849 13.7474 130.484 14.3047C131.125 14.8568 131.445 15.6224 131.445 16.6016C131.445 17.1693 131.284 17.7656 130.961 18.3906C130.643 19.0104 130.12 19.7161 129.391 20.5078L126.609 23.4844H131.891V25Z" fill="#5452F6"/>
<defs>
<filter id="filter0_d" x="0" y="0" width="233" height="84" filterUnits="userSpaceOnUse" color-interpolation-filters="sRGB">
<feFlood flood-opacity="0" result="BackgroundImageFix"/>
<feColorMatrix in="SourceAlpha" type="matrix" values="0 0 0 0 0 0 0 0 0 0 0 0 0 0 0 0 0 0 127 0"/>
<feOffset dx="4" dy="4"/>
<feColorMatrix type="matrix" values="0 0 0 0 0.674908 0 0 0 0 0.662083 0 0 0 0 0.945833 0 0 0 1 0"/>
<feBlend mode="normal" in2="BackgroundImageFix" result="effect1_dropShadow"/>
<feBlend mode="normal" in="SourceGraphic" in2="effect1_dropShadow" result="shape"/>
</filter>
<filter id="filter1_d" x="0" y="79" width="233" height="28" filterUnits="userSpaceOnUse" color-interpolation-filters="sRGB">
<feFlood flood-opacity="0" result="BackgroundImageFix"/>
<feColorMatrix in="SourceAlpha" type="matrix" values="0 0 0 0 0 0 0 0 0 0 0 0 0 0 0 0 0 0 127 0"/>
<feOffset dx="4" dy="4"/>
<feColorMatrix type="matrix" values="0 0 0 0 0.674908 0 0 0 0 0.662083 0 0 0 0 0.945833 0 0 0 1 0"/>
<feBlend mode="normal" in2="BackgroundImageFix" result="effect1_dropShadow"/>
<feBlend mode="normal" in="SourceGraphic" in2="effect1_dropShadow" result="shape"/>
</filter>
</defs>
</svg>
