<svg width="404" height="134" viewBox="0 0 404 134" fill="none" xmlns="http://www.w3.org/2000/svg">
<g filter="url(#filter0_d)">
<rect width="400" height="130" rx="8" fill="#E7F4FF"/>
<path d="M28 20.5H128.5V59.5H28C23.8579 59.5 20.5 56.1421 20.5 52V28C20.5 23.8579 23.8579 20.5 28 20.5Z" fill="#E7F4FF"/>
<path d="M43.0938 41.0469V45.5H41.5938V34.125H45.7891C47.0339 34.125 48.0078 34.4427 48.7109 35.0781C49.4193 35.7135 49.7734 36.5547 49.7734 37.6016C49.7734 38.7057 49.4271 39.5573 48.7344 40.1562C48.0469 40.75 47.0599 41.0469 45.7734 41.0469H43.0938ZM43.0938 39.8203H45.7891C46.5911 39.8203 47.2057 39.6328 47.6328 39.2578C48.0599 38.8776 48.2734 38.3307 48.2734 37.6172C48.2734 36.9401 48.0599 36.3984 47.6328 35.9922C47.2057 35.5859 46.6198 35.375 45.875 35.3594H43.0938V39.8203ZM55.8594 40.8984H53.1875V45.5H51.6797V34.125H55.4453C56.7266 34.125 57.7109 34.4167 58.3984 35C59.0911 35.5833 59.4375 36.4323 59.4375 37.5469C59.4375 38.2552 59.2448 38.8724 58.8594 39.3984C58.4792 39.9245 57.9479 40.3177 57.2656 40.5781L59.9375 45.4062V45.5H58.3281L55.8594 40.8984ZM53.1875 39.6719H55.4922C56.237 39.6719 56.8281 39.4792 57.2656 39.0938C57.7083 38.7083 57.9297 38.1927 57.9297 37.5469C57.9297 36.8438 57.7188 36.3047 57.2969 35.9297C56.8802 35.5547 56.276 35.3646 55.4844 35.3594H53.1875V39.6719ZM63.1562 45.5H61.6562V34.125H63.1562V45.5ZM69.6719 43.5078L72.9219 34.125H74.5625L70.3438 45.5H69.0156L64.8047 34.125H66.4375L69.6719 43.5078ZM81.9609 46.6797H74.8047V45.5H81.9609V46.6797ZM86.2031 40.2109L84.8125 41.6562V45.5H83.3125V34.125H84.8125V39.75L89.8672 34.125H91.6797L87.2031 39.1484L92.0312 45.5H90.2344L86.2031 40.2109ZM99.7734 40.2422H94.8438V44.2734H100.57V45.5H93.3438V34.125H100.492V35.3594H94.8438V39.0156H99.7734V40.2422ZM105.906 39.8359L108.875 34.125H110.578L106.656 41.2578V45.5H105.156V41.2578L101.234 34.125H102.953L105.906 39.8359Z" fill="#2097F6"/>
<path d="M28 20.5H128.5V59.5H28C23.8579 59.5 20.5 56.1421 20.5 52V28C20.5 23.8579 23.8579 20.5 28 20.5Z" stroke="#2097F6"/>
<path d="M129 20.5H128.5V21V59V59.5H129H375C379.694 59.5 383.5 55.6944 383.5 51V29C383.5 24.3056 379.694 20.5 375 20.5H129Z" fill="white"/>
<path d="M150.961 39.7969L151.539 34.125H157.367V35.4609H152.766L152.422 38.5625C152.979 38.2344 153.612 38.0703 154.32 38.0703C155.357 38.0703 156.18 38.4141 156.789 39.1016C157.398 39.7839 157.703 40.7083 157.703 41.875C157.703 43.0469 157.385 43.9714 156.75 44.6484C156.12 45.3203 155.237 45.6562 154.102 45.6562C153.096 45.6562 152.276 45.3776 151.641 44.8203C151.005 44.263 150.643 43.4922 150.555 42.5078H151.922C152.01 43.1589 152.242 43.651 152.617 43.9844C152.992 44.3125 153.487 44.4766 154.102 44.4766C154.773 44.4766 155.299 44.2474 155.68 43.7891C156.065 43.3307 156.258 42.6979 156.258 41.8906C156.258 41.1302 156.049 40.5208 155.633 40.0625C155.221 39.599 154.672 39.3672 153.984 39.3672C153.354 39.3672 152.859 39.5052 152.5 39.7812L152.117 40.0938L150.961 39.7969ZM166.18 37.0938C166.18 37.6615 166.029 38.1667 165.727 38.6094C165.43 39.0521 165.026 39.3984 164.516 39.6484C165.109 39.9036 165.578 40.276 165.922 40.7656C166.271 41.2552 166.445 41.8099 166.445 42.4297C166.445 43.4141 166.112 44.1979 165.445 44.7812C164.784 45.3646 163.911 45.6562 162.828 45.6562C161.734 45.6562 160.857 45.3646 160.195 44.7812C159.539 44.1927 159.211 43.4089 159.211 42.4297C159.211 41.8151 159.378 41.2604 159.711 40.7656C160.049 40.2708 160.516 39.8958 161.109 39.6406C160.604 39.3906 160.206 39.0443 159.914 38.6016C159.622 38.1589 159.477 37.6562 159.477 37.0938C159.477 36.1354 159.784 35.375 160.398 34.8125C161.013 34.25 161.823 33.9688 162.828 33.9688C163.828 33.9688 164.635 34.25 165.25 34.8125C165.87 35.375 166.18 36.1354 166.18 37.0938ZM165 42.3984C165 41.763 164.797 41.2448 164.391 40.8438C163.99 40.4427 163.464 40.2422 162.812 40.2422C162.161 40.2422 161.638 40.4401 161.242 40.8359C160.852 41.2318 160.656 41.7526 160.656 42.3984C160.656 43.0443 160.846 43.5521 161.227 43.9219C161.612 44.2917 162.146 44.4766 162.828 44.4766C163.505 44.4766 164.036 44.2917 164.422 43.9219C164.807 43.5469 165 43.0391 165 42.3984ZM162.828 35.1562C162.26 35.1562 161.799 35.3333 161.445 35.6875C161.096 36.0365 160.922 36.513 160.922 37.1172C160.922 37.6953 161.094 38.1641 161.438 38.5234C161.786 38.8776 162.25 39.0547 162.828 39.0547C163.406 39.0547 163.867 38.8776 164.211 38.5234C164.56 38.1641 164.734 37.6953 164.734 37.1172C164.734 36.5391 164.555 36.0677 164.195 35.7031C163.836 35.3385 163.38 35.1562 162.828 35.1562ZM173.016 45.5H171.562V35.8672L168.648 36.9375V35.625L172.789 34.0703H173.016V45.5ZM183.352 41.6797H184.93V42.8594H183.352V45.5H181.898V42.8594H176.719V42.0078L181.812 34.125H183.352V41.6797ZM178.359 41.6797H181.898V36.1016L181.727 36.4141L178.359 41.6797ZM191.773 40.5C191.471 40.8594 191.109 41.1484 190.688 41.3672C190.271 41.5859 189.812 41.6953 189.312 41.6953C188.656 41.6953 188.083 41.5339 187.594 41.2109C187.109 40.888 186.734 40.4349 186.469 39.8516C186.203 39.263 186.07 38.6146 186.07 37.9062C186.07 37.1458 186.214 36.4609 186.5 35.8516C186.792 35.2422 187.203 34.776 187.734 34.4531C188.266 34.1302 188.885 33.9688 189.594 33.9688C190.719 33.9688 191.604 34.3906 192.25 35.2344C192.901 36.0729 193.227 37.2188 193.227 38.6719V39.0938C193.227 41.3073 192.789 42.9245 191.914 43.9453C191.039 44.9609 189.719 45.4818 187.953 45.5078H187.672V44.2891H187.977C189.169 44.2682 190.086 43.9583 190.727 43.3594C191.367 42.7552 191.716 41.8021 191.773 40.5ZM189.547 40.5C190.031 40.5 190.477 40.3516 190.883 40.0547C191.294 39.7578 191.594 39.3906 191.781 38.9531V38.375C191.781 37.4271 191.576 36.6562 191.164 36.0625C190.753 35.4688 190.232 35.1719 189.602 35.1719C188.966 35.1719 188.456 35.4167 188.07 35.9062C187.685 36.3906 187.492 37.0312 187.492 37.8281C187.492 38.6042 187.677 39.2448 188.047 39.75C188.422 40.25 188.922 40.5 189.547 40.5ZM200.758 40.5C200.456 40.8594 200.094 41.1484 199.672 41.3672C199.255 41.5859 198.797 41.6953 198.297 41.6953C197.641 41.6953 197.068 41.5339 196.578 41.2109C196.094 40.888 195.719 40.4349 195.453 39.8516C195.188 39.263 195.055 38.6146 195.055 37.9062C195.055 37.1458 195.198 36.4609 195.484 35.8516C195.776 35.2422 196.188 34.776 196.719 34.4531C197.25 34.1302 197.87 33.9688 198.578 33.9688C199.703 33.9688 200.589 34.3906 201.234 35.2344C201.885 36.0729 202.211 37.2188 202.211 38.6719V39.0938C202.211 41.3073 201.773 42.9245 200.898 43.9453C200.023 44.9609 198.703 45.4818 196.938 45.5078H196.656V44.2891H196.961C198.154 44.2682 199.07 43.9583 199.711 43.3594C200.352 42.7552 200.701 41.8021 200.758 40.5ZM198.531 40.5C199.016 40.5 199.461 40.3516 199.867 40.0547C200.279 39.7578 200.578 39.3906 200.766 38.9531V38.375C200.766 37.4271 200.56 36.6562 200.148 36.0625C199.737 35.4688 199.216 35.1719 198.586 35.1719C197.951 35.1719 197.44 35.4167 197.055 35.9062C196.669 36.3906 196.477 37.0312 196.477 37.8281C196.477 38.6042 196.661 39.2448 197.031 39.75C197.406 40.25 197.906 40.5 198.531 40.5ZM211.547 34.9375L206.836 45.5H205.32L210.016 35.3125H203.859V34.125H211.547V34.9375ZM220.32 40.6484C220.32 42.3411 220.031 43.599 219.453 44.4219C218.875 45.2448 217.971 45.6562 216.742 45.6562C215.529 45.6562 214.63 45.2552 214.047 44.4531C213.464 43.6458 213.161 42.4427 213.141 40.8438V38.9141C213.141 37.2422 213.43 36 214.008 35.1875C214.586 34.375 215.492 33.9688 216.727 33.9688C217.951 33.9688 218.852 34.362 219.43 35.1484C220.008 35.9297 220.305 37.138 220.32 38.7734V40.6484ZM218.875 38.6719C218.875 37.4479 218.703 36.5573 218.359 36C218.016 35.4375 217.471 35.1562 216.727 35.1562C215.987 35.1562 215.448 35.4349 215.109 35.9922C214.771 36.5495 214.596 37.4062 214.586 38.5625V40.875C214.586 42.1042 214.763 43.013 215.117 43.6016C215.477 44.1849 216.018 44.4766 216.742 44.4766C217.456 44.4766 217.984 44.2005 218.328 43.6484C218.677 43.0964 218.859 42.2266 218.875 41.0391V38.6719ZM229.305 40.6484C229.305 42.3411 229.016 43.599 228.438 44.4219C227.859 45.2448 226.956 45.6562 225.727 45.6562C224.513 45.6562 223.615 45.2552 223.031 44.4531C222.448 43.6458 222.146 42.4427 222.125 40.8438V38.9141C222.125 37.2422 222.414 36 222.992 35.1875C223.57 34.375 224.477 33.9688 225.711 33.9688C226.935 33.9688 227.836 34.362 228.414 35.1484C228.992 35.9297 229.289 37.138 229.305 38.7734V40.6484ZM227.859 38.6719C227.859 37.4479 227.688 36.5573 227.344 36C227 35.4375 226.456 35.1562 225.711 35.1562C224.971 35.1562 224.432 35.4349 224.094 35.9922C223.755 36.5495 223.581 37.4062 223.57 38.5625V40.875C223.57 42.1042 223.747 43.013 224.102 43.6016C224.461 44.1849 225.003 44.4766 225.727 44.4766C226.44 44.4766 226.969 44.2005 227.312 43.6484C227.661 43.0964 227.844 42.2266 227.859 41.0391V38.6719ZM236.828 34.1172V35.3438H236.562C235.438 35.3646 234.542 35.6979 233.875 36.3438C233.208 36.9896 232.823 37.8984 232.719 39.0703C233.318 38.3828 234.135 38.0391 235.172 38.0391C236.161 38.0391 236.951 38.388 237.539 39.0859C238.133 39.7839 238.43 40.6849 238.43 41.7891C238.43 42.9609 238.109 43.8984 237.469 44.6016C236.833 45.3047 235.979 45.6562 234.906 45.6562C233.818 45.6562 232.935 45.2396 232.258 44.4062C231.581 43.5677 231.242 42.4896 231.242 41.1719V40.6172C231.242 38.5234 231.688 36.9245 232.578 35.8203C233.474 34.7109 234.805 34.1432 236.57 34.1172H236.828ZM234.93 39.2422C234.435 39.2422 233.979 39.3906 233.562 39.6875C233.146 39.9844 232.857 40.3568 232.695 40.8047V41.3359C232.695 42.2734 232.906 43.0286 233.328 43.6016C233.75 44.1745 234.276 44.4609 234.906 44.4609C235.557 44.4609 236.068 44.2214 236.438 43.7422C236.812 43.263 237 42.6354 237 41.8594C237 41.0781 236.81 40.4479 236.43 39.9688C236.055 39.4844 235.555 39.2422 234.93 39.2422ZM246.242 41.6797H247.82V42.8594H246.242V45.5H244.789V42.8594H239.609V42.0078L244.703 34.125H246.242V41.6797ZM241.25 41.6797H244.789V36.1016L244.617 36.4141L241.25 41.6797ZM256.469 34.9375L251.758 45.5H250.242L254.938 35.3125H248.781V34.125H256.469V34.9375ZM265.008 37.0938C265.008 37.6615 264.857 38.1667 264.555 38.6094C264.258 39.0521 263.854 39.3984 263.344 39.6484C263.938 39.9036 264.406 40.276 264.75 40.7656C265.099 41.2552 265.273 41.8099 265.273 42.4297C265.273 43.4141 264.94 44.1979 264.273 44.7812C263.612 45.3646 262.74 45.6562 261.656 45.6562C260.562 45.6562 259.685 45.3646 259.023 44.7812C258.367 44.1927 258.039 43.4089 258.039 42.4297C258.039 41.8151 258.206 41.2604 258.539 40.7656C258.878 40.2708 259.344 39.8958 259.938 39.6406C259.432 39.3906 259.034 39.0443 258.742 38.6016C258.451 38.1589 258.305 37.6562 258.305 37.0938C258.305 36.1354 258.612 35.375 259.227 34.8125C259.841 34.25 260.651 33.9688 261.656 33.9688C262.656 33.9688 263.464 34.25 264.078 34.8125C264.698 35.375 265.008 36.1354 265.008 37.0938ZM263.828 42.3984C263.828 41.763 263.625 41.2448 263.219 40.8438C262.818 40.4427 262.292 40.2422 261.641 40.2422C260.99 40.2422 260.466 40.4401 260.07 40.8359C259.68 41.2318 259.484 41.7526 259.484 42.3984C259.484 43.0443 259.674 43.5521 260.055 43.9219C260.44 44.2917 260.974 44.4766 261.656 44.4766C262.333 44.4766 262.865 44.2917 263.25 43.9219C263.635 43.5469 263.828 43.0391 263.828 42.3984ZM261.656 35.1562C261.089 35.1562 260.628 35.3333 260.273 35.6875C259.924 36.0365 259.75 36.513 259.75 37.1172C259.75 37.6953 259.922 38.1641 260.266 38.5234C260.615 38.8776 261.078 39.0547 261.656 39.0547C262.234 39.0547 262.695 38.8776 263.039 38.5234C263.388 38.1641 263.562 37.6953 263.562 37.1172C263.562 36.5391 263.383 36.0677 263.023 35.7031C262.664 35.3385 262.208 35.1562 261.656 35.1562ZM272.633 40.5C272.331 40.8594 271.969 41.1484 271.547 41.3672C271.13 41.5859 270.672 41.6953 270.172 41.6953C269.516 41.6953 268.943 41.5339 268.453 41.2109C267.969 40.888 267.594 40.4349 267.328 39.8516C267.062 39.263 266.93 38.6146 266.93 37.9062C266.93 37.1458 267.073 36.4609 267.359 35.8516C267.651 35.2422 268.062 34.776 268.594 34.4531C269.125 34.1302 269.745 33.9688 270.453 33.9688C271.578 33.9688 272.464 34.3906 273.109 35.2344C273.76 36.0729 274.086 37.2188 274.086 38.6719V39.0938C274.086 41.3073 273.648 42.9245 272.773 43.9453C271.898 44.9609 270.578 45.4818 268.812 45.5078H268.531V44.2891H268.836C270.029 44.2682 270.945 43.9583 271.586 43.3594C272.227 42.7552 272.576 41.8021 272.633 40.5ZM270.406 40.5C270.891 40.5 271.336 40.3516 271.742 40.0547C272.154 39.7578 272.453 39.3906 272.641 38.9531V38.375C272.641 37.4271 272.435 36.6562 272.023 36.0625C271.612 35.4688 271.091 35.1719 270.461 35.1719C269.826 35.1719 269.315 35.4167 268.93 35.9062C268.544 36.3906 268.352 37.0312 268.352 37.8281C268.352 38.6042 268.536 39.2448 268.906 39.75C269.281 40.25 269.781 40.5 270.406 40.5ZM283.531 45.5H276.078V44.4609L280.016 40.0859C280.599 39.4245 281 38.888 281.219 38.4766C281.443 38.0599 281.555 37.6302 281.555 37.1875C281.555 36.5938 281.375 36.1068 281.016 35.7266C280.656 35.3464 280.177 35.1562 279.578 35.1562C278.859 35.1562 278.299 35.362 277.898 35.7734C277.503 36.1797 277.305 36.7474 277.305 37.4766H275.859C275.859 36.4297 276.195 35.5833 276.867 34.9375C277.544 34.2917 278.448 33.9688 279.578 33.9688C280.635 33.9688 281.471 34.2474 282.086 34.8047C282.701 35.3568 283.008 36.0938 283.008 37.0156C283.008 38.1354 282.294 39.4688 280.867 41.0156L277.82 44.3203H283.531V45.5ZM290.734 34.1172V35.3438H290.469C289.344 35.3646 288.448 35.6979 287.781 36.3438C287.115 36.9896 286.729 37.8984 286.625 39.0703C287.224 38.3828 288.042 38.0391 289.078 38.0391C290.068 38.0391 290.857 38.388 291.445 39.0859C292.039 39.7839 292.336 40.6849 292.336 41.7891C292.336 42.9609 292.016 43.8984 291.375 44.6016C290.74 45.3047 289.885 45.6562 288.812 45.6562C287.724 45.6562 286.841 45.2396 286.164 44.4062C285.487 43.5677 285.148 42.4896 285.148 41.1719V40.6172C285.148 38.5234 285.594 36.9245 286.484 35.8203C287.38 34.7109 288.711 34.1432 290.477 34.1172H290.734ZM288.836 39.2422C288.341 39.2422 287.885 39.3906 287.469 39.6875C287.052 39.9844 286.763 40.3568 286.602 40.8047V41.3359C286.602 42.2734 286.812 43.0286 287.234 43.6016C287.656 44.1745 288.182 44.4609 288.812 44.4609C289.464 44.4609 289.974 44.2214 290.344 43.7422C290.719 43.263 290.906 42.6354 290.906 41.8594C290.906 41.0781 290.716 40.4479 290.336 39.9688C289.961 39.4844 289.461 39.2422 288.836 39.2422ZM301.391 34.9375L296.68 45.5H295.164L299.859 35.3125H293.703V34.125H301.391V34.9375ZM310.164 40.6484C310.164 42.3411 309.875 43.599 309.297 44.4219C308.719 45.2448 307.815 45.6562 306.586 45.6562C305.372 45.6562 304.474 45.2552 303.891 44.4531C303.307 43.6458 303.005 42.4427 302.984 40.8438V38.9141C302.984 37.2422 303.273 36 303.852 35.1875C304.43 34.375 305.336 33.9688 306.57 33.9688C307.794 33.9688 308.695 34.362 309.273 35.1484C309.852 35.9297 310.148 37.138 310.164 38.7734V40.6484ZM308.719 38.6719C308.719 37.4479 308.547 36.5573 308.203 36C307.859 35.4375 307.315 35.1562 306.57 35.1562C305.831 35.1562 305.292 35.4349 304.953 35.9922C304.615 36.5495 304.44 37.4062 304.43 38.5625V40.875C304.43 42.1042 304.607 43.013 304.961 43.6016C305.32 44.1849 305.862 44.4766 306.586 44.4766C307.299 44.4766 307.828 44.2005 308.172 43.6484C308.521 43.0964 308.703 42.2266 308.719 41.0391V38.6719ZM318.117 41.6797H319.695V42.8594H318.117V45.5H316.664V42.8594H311.484V42.0078L316.578 34.125H318.117V41.6797ZM313.125 41.6797H316.664V36.1016L316.492 36.4141L313.125 41.6797ZM326.539 40.5C326.237 40.8594 325.875 41.1484 325.453 41.3672C325.036 41.5859 324.578 41.6953 324.078 41.6953C323.422 41.6953 322.849 41.5339 322.359 41.2109C321.875 40.888 321.5 40.4349 321.234 39.8516C320.969 39.263 320.836 38.6146 320.836 37.9062C320.836 37.1458 320.979 36.4609 321.266 35.8516C321.557 35.2422 321.969 34.776 322.5 34.4531C323.031 34.1302 323.651 33.9688 324.359 33.9688C325.484 33.9688 326.37 34.3906 327.016 35.2344C327.667 36.0729 327.992 37.2188 327.992 38.6719V39.0938C327.992 41.3073 327.555 42.9245 326.68 43.9453C325.805 44.9609 324.484 45.4818 322.719 45.5078H322.438V44.2891H322.742C323.935 44.2682 324.852 43.9583 325.492 43.3594C326.133 42.7552 326.482 41.8021 326.539 40.5ZM324.312 40.5C324.797 40.5 325.242 40.3516 325.648 40.0547C326.06 39.7578 326.359 39.3906 326.547 38.9531V38.375C326.547 37.4271 326.341 36.6562 325.93 36.0625C325.518 35.4688 324.997 35.1719 324.367 35.1719C323.732 35.1719 323.221 35.4167 322.836 35.9062C322.451 36.3906 322.258 37.0312 322.258 37.8281C322.258 38.6042 322.443 39.2448 322.812 39.75C323.188 40.25 323.688 40.5 324.312 40.5ZM336.883 37.0938C336.883 37.6615 336.732 38.1667 336.43 38.6094C336.133 39.0521 335.729 39.3984 335.219 39.6484C335.812 39.9036 336.281 40.276 336.625 40.7656C336.974 41.2552 337.148 41.8099 337.148 42.4297C337.148 43.4141 336.815 44.1979 336.148 44.7812C335.487 45.3646 334.615 45.6562 333.531 45.6562C332.438 45.6562 331.56 45.3646 330.898 44.7812C330.242 44.1927 329.914 43.4089 329.914 42.4297C329.914 41.8151 330.081 41.2604 330.414 40.7656C330.753 40.2708 331.219 39.8958 331.812 39.6406C331.307 39.3906 330.909 39.0443 330.617 38.6016C330.326 38.1589 330.18 37.6562 330.18 37.0938C330.18 36.1354 330.487 35.375 331.102 34.8125C331.716 34.25 332.526 33.9688 333.531 33.9688C334.531 33.9688 335.339 34.25 335.953 34.8125C336.573 35.375 336.883 36.1354 336.883 37.0938ZM335.703 42.3984C335.703 41.763 335.5 41.2448 335.094 40.8438C334.693 40.4427 334.167 40.2422 333.516 40.2422C332.865 40.2422 332.341 40.4401 331.945 40.8359C331.555 41.2318 331.359 41.7526 331.359 42.3984C331.359 43.0443 331.549 43.5521 331.93 43.9219C332.315 44.2917 332.849 44.4766 333.531 44.4766C334.208 44.4766 334.74 44.2917 335.125 43.9219C335.51 43.5469 335.703 43.0391 335.703 42.3984ZM333.531 35.1562C332.964 35.1562 332.503 35.3333 332.148 35.6875C331.799 36.0365 331.625 36.513 331.625 37.1172C331.625 37.6953 331.797 38.1641 332.141 38.5234C332.49 38.8776 332.953 39.0547 333.531 39.0547C334.109 39.0547 334.57 38.8776 334.914 38.5234C335.263 38.1641 335.438 37.6953 335.438 37.1172C335.438 36.5391 335.258 36.0677 334.898 35.7031C334.539 35.3385 334.083 35.1562 333.531 35.1562ZM345.867 37.0938C345.867 37.6615 345.716 38.1667 345.414 38.6094C345.117 39.0521 344.714 39.3984 344.203 39.6484C344.797 39.9036 345.266 40.276 345.609 40.7656C345.958 41.2552 346.133 41.8099 346.133 42.4297C346.133 43.4141 345.799 44.1979 345.133 44.7812C344.471 45.3646 343.599 45.6562 342.516 45.6562C341.422 45.6562 340.544 45.3646 339.883 44.7812C339.227 44.1927 338.898 43.4089 338.898 42.4297C338.898 41.8151 339.065 41.2604 339.398 40.7656C339.737 40.2708 340.203 39.8958 340.797 39.6406C340.292 39.3906 339.893 39.0443 339.602 38.6016C339.31 38.1589 339.164 37.6562 339.164 37.0938C339.164 36.1354 339.471 35.375 340.086 34.8125C340.701 34.25 341.51 33.9688 342.516 33.9688C343.516 33.9688 344.323 34.25 344.938 34.8125C345.557 35.375 345.867 36.1354 345.867 37.0938ZM344.688 42.3984C344.688 41.763 344.484 41.2448 344.078 40.8438C343.677 40.4427 343.151 40.2422 342.5 40.2422C341.849 40.2422 341.326 40.4401 340.93 40.8359C340.539 41.2318 340.344 41.7526 340.344 42.3984C340.344 43.0443 340.534 43.5521 340.914 43.9219C341.299 44.2917 341.833 44.4766 342.516 44.4766C343.193 44.4766 343.724 44.2917 344.109 43.9219C344.495 43.5469 344.688 43.0391 344.688 42.3984ZM342.516 35.1562C341.948 35.1562 341.487 35.3333 341.133 35.6875C340.784 36.0365 340.609 36.513 340.609 37.1172C340.609 37.6953 340.781 38.1641 341.125 38.5234C341.474 38.8776 341.938 39.0547 342.516 39.0547C343.094 39.0547 343.555 38.8776 343.898 38.5234C344.247 38.1641 344.422 37.6953 344.422 37.1172C344.422 36.5391 344.242 36.0677 343.883 35.7031C343.523 35.3385 343.068 35.1562 342.516 35.1562ZM350.055 39.1094H351.141C351.823 39.099 352.359 38.9193 352.75 38.5703C353.141 38.2214 353.336 37.75 353.336 37.1562C353.336 35.8229 352.672 35.1562 351.344 35.1562C350.719 35.1562 350.219 35.3359 349.844 35.6953C349.474 36.0495 349.289 36.5208 349.289 37.1094H347.844C347.844 36.2083 348.172 35.4609 348.828 34.8672C349.49 34.2682 350.328 33.9688 351.344 33.9688C352.417 33.9688 353.258 34.2526 353.867 34.8203C354.477 35.388 354.781 36.1771 354.781 37.1875C354.781 37.6823 354.62 38.1615 354.297 38.625C353.979 39.0885 353.544 39.4349 352.992 39.6641C353.617 39.862 354.099 40.1901 354.438 40.6484C354.781 41.1068 354.953 41.6667 354.953 42.3281C354.953 43.349 354.62 44.1589 353.953 44.7578C353.286 45.3568 352.419 45.6562 351.352 45.6562C350.284 45.6562 349.414 45.3672 348.742 44.7891C348.076 44.2109 347.742 43.4479 347.742 42.5H349.195C349.195 43.099 349.391 43.5781 349.781 43.9375C350.172 44.2969 350.695 44.4766 351.352 44.4766C352.049 44.4766 352.583 44.2943 352.953 43.9297C353.323 43.5651 353.508 43.0417 353.508 42.3594C353.508 41.6979 353.305 41.1901 352.898 40.8359C352.492 40.4818 351.906 40.2995 351.141 40.2891H350.055V39.1094ZM357.117 44.7422C357.117 44.4922 357.19 44.2839 357.336 44.1172C357.487 43.9505 357.711 43.8672 358.008 43.8672C358.305 43.8672 358.529 43.9505 358.68 44.1172C358.836 44.2839 358.914 44.4922 358.914 44.7422C358.914 44.9818 358.836 45.1823 358.68 45.3438C358.529 45.5052 358.305 45.5859 358.008 45.5859C357.711 45.5859 357.487 45.5052 357.336 45.3438C357.19 45.1823 357.117 44.9818 357.117 44.7422ZM361.336 44.7422C361.336 44.4922 361.409 44.2839 361.555 44.1172C361.706 43.9505 361.93 43.8672 362.227 43.8672C362.523 43.8672 362.747 43.9505 362.898 44.1172C363.055 44.2839 363.133 44.4922 363.133 44.7422C363.133 44.9818 363.055 45.1823 362.898 45.3438C362.747 45.5052 362.523 45.5859 362.227 45.5859C361.93 45.5859 361.706 45.5052 361.555 45.3438C361.409 45.1823 361.336 44.9818 361.336 44.7422ZM365.555 44.7422C365.555 44.4922 365.628 44.2839 365.773 44.1172C365.924 43.9505 366.148 43.8672 366.445 43.8672C366.742 43.8672 366.966 43.9505 367.117 44.1172C367.273 44.2839 367.352 44.4922 367.352 44.7422C367.352 44.9818 367.273 45.1823 367.117 45.3438C366.966 45.5052 366.742 45.5859 366.445 45.5859C366.148 45.5859 365.924 45.5052 365.773 45.3438C365.628 45.1823 365.555 44.9818 365.555 44.7422Z" fill="#2097F6"/>
<path d="M129 20.5H128.5V21V59V59.5H129H375C379.694 59.5 383.5 55.6944 383.5 51V29C383.5 24.3056 379.694 20.5 375 20.5H129Z" stroke="#2097F6"/>
<path d="M43.125 91.0469V95.5H41.625V84.125H45.8203C47.0651 84.125 48.0391 84.4427 48.7422 85.0781C49.4505 85.7135 49.8047 86.5547 49.8047 87.6016C49.8047 88.7057 49.4583 89.5573 48.7656 90.1562C48.0781 90.75 47.0911 91.0469 45.8047 91.0469H43.125ZM43.125 89.8203H45.8203C46.6224 89.8203 47.237 89.6328 47.6641 89.2578C48.0911 88.8776 48.3047 88.3307 48.3047 87.6172C48.3047 86.9401 48.0911 86.3984 47.6641 85.9922C47.237 85.5859 46.651 85.375 45.9062 85.3594H43.125V89.8203ZM59.7266 84.125V91.8594C59.7214 92.9323 59.3828 93.8099 58.7109 94.4922C58.0443 95.1745 57.138 95.5573 55.9922 95.6406L55.5938 95.6562C54.349 95.6562 53.3568 95.3203 52.6172 94.6484C51.8776 93.9766 51.5026 93.0521 51.4922 91.875V84.125H52.9766V91.8281C52.9766 92.651 53.2031 93.2917 53.6562 93.75C54.1094 94.2031 54.7552 94.4297 55.5938 94.4297C56.4427 94.4297 57.0911 94.2031 57.5391 93.75C57.9922 93.2969 58.2188 92.6589 58.2188 91.8359V84.125H59.7266ZM62.0938 95.5V84.125H65.8125C67.0469 84.125 67.974 84.3802 68.5938 84.8906C69.2188 85.401 69.5312 86.1562 69.5312 87.1562C69.5312 87.6875 69.3802 88.1589 69.0781 88.5703C68.776 88.9766 68.3646 89.2917 67.8438 89.5156C68.4583 89.6875 68.9427 90.0156 69.2969 90.5C69.6562 90.9792 69.8359 91.5521 69.8359 92.2188C69.8359 93.2396 69.5052 94.0417 68.8438 94.625C68.1823 95.2083 67.2474 95.5 66.0391 95.5H62.0938ZM63.5938 90.1797V94.2734H66.0703C66.7682 94.2734 67.3177 94.0938 67.7188 93.7344C68.125 93.3698 68.3281 92.8698 68.3281 92.2344C68.3281 90.8646 67.5833 90.1797 66.0938 90.1797H63.5938ZM63.5938 88.9766H65.8594C66.5156 88.9766 67.0391 88.8125 67.4297 88.4844C67.8255 88.1562 68.0234 87.7109 68.0234 87.1484C68.0234 86.5234 67.8411 86.0703 67.4766 85.7891C67.112 85.5026 66.5573 85.3594 65.8125 85.3594H63.5938V88.9766ZM77.9297 96.6797H70.7734V95.5H77.9297V96.6797ZM82.1719 90.2109L80.7812 91.6562V95.5H79.2812V84.125H80.7812V89.75L85.8359 84.125H87.6484L83.1719 89.1484L88 95.5H86.2031L82.1719 90.2109ZM95.7422 90.2422H90.8125V94.2734H96.5391V95.5H89.3125V84.125H96.4609V85.3594H90.8125V89.0156H95.7422V90.2422ZM101.875 89.8359L104.844 84.125H106.547L102.625 91.2578V95.5H101.125V91.2578L97.2031 84.125H98.9219L101.875 89.8359Z" fill="#2097F6"/>
<path d="M157.266 90.6484C157.266 92.3411 156.977 93.599 156.398 94.4219C155.82 95.2448 154.917 95.6562 153.688 95.6562C152.474 95.6562 151.576 95.2552 150.992 94.4531C150.409 93.6458 150.107 92.4427 150.086 90.8438V88.9141C150.086 87.2422 150.375 86 150.953 85.1875C151.531 84.375 152.438 83.9688 153.672 83.9688C154.896 83.9688 155.797 84.362 156.375 85.1484C156.953 85.9297 157.25 87.138 157.266 88.7734V90.6484ZM155.82 88.6719C155.82 87.4479 155.648 86.5573 155.305 86C154.961 85.4375 154.417 85.1562 153.672 85.1562C152.932 85.1562 152.393 85.4349 152.055 85.9922C151.716 86.5495 151.542 87.4062 151.531 88.5625V90.875C151.531 92.1042 151.708 93.013 152.062 93.6016C152.422 94.1849 152.964 94.4766 153.688 94.4766C154.401 94.4766 154.93 94.2005 155.273 93.6484C155.622 93.0964 155.805 92.2266 155.82 91.0391V88.6719ZM162.102 90.1328L163.977 87.0469H165.664L162.898 91.2266L165.75 95.5H164.078L162.125 92.3359L160.172 95.5H158.492L161.344 91.2266L158.578 87.0469H160.25L162.102 90.1328ZM173.156 91.6797H174.734V92.8594H173.156V95.5H171.703V92.8594H166.523V92.0078L171.617 84.125H173.156V91.6797ZM168.164 91.6797H171.703V86.1016L171.531 86.4141L168.164 91.6797ZM179.578 94.4766C180.094 94.4766 180.544 94.3203 180.93 94.0078C181.315 93.6953 181.529 93.3047 181.57 92.8359H182.938C182.911 93.3203 182.745 93.7812 182.438 94.2188C182.13 94.6562 181.719 95.0052 181.203 95.2656C180.693 95.526 180.151 95.6562 179.578 95.6562C178.427 95.6562 177.51 95.2734 176.828 94.5078C176.151 93.737 175.812 92.6849 175.812 91.3516V91.1094C175.812 90.2865 175.964 89.5547 176.266 88.9141C176.568 88.2734 177 87.776 177.562 87.4219C178.13 87.0677 178.799 86.8906 179.57 86.8906C180.518 86.8906 181.305 87.1745 181.93 87.7422C182.56 88.3099 182.896 89.0469 182.938 89.9531H181.57C181.529 89.4062 181.32 88.9583 180.945 88.6094C180.576 88.2552 180.117 88.0781 179.57 88.0781C178.836 88.0781 178.266 88.3438 177.859 88.875C177.458 89.401 177.258 90.1641 177.258 91.1641V91.4375C177.258 92.4115 177.458 93.1615 177.859 93.6875C178.26 94.2135 178.833 94.4766 179.578 94.4766ZM185.273 95.5V88.1641H183.938V87.0469H185.273V86.1797C185.273 85.2734 185.516 84.5729 186 84.0781C186.484 83.5833 187.169 83.3359 188.055 83.3359C188.388 83.3359 188.719 83.3802 189.047 83.4688L188.969 84.6406C188.724 84.5938 188.464 84.5703 188.188 84.5703C187.719 84.5703 187.357 84.7083 187.102 84.9844C186.846 85.2552 186.719 85.6458 186.719 86.1562V87.0469H188.523V88.1641H186.719V95.5H185.273ZM195.648 84.1172V85.3438H195.383C194.258 85.3646 193.362 85.6979 192.695 86.3438C192.029 86.9896 191.643 87.8984 191.539 89.0703C192.138 88.3828 192.956 88.0391 193.992 88.0391C194.982 88.0391 195.771 88.388 196.359 89.0859C196.953 89.7839 197.25 90.6849 197.25 91.7891C197.25 92.9609 196.93 93.8984 196.289 94.6016C195.654 95.3047 194.799 95.6562 193.727 95.6562C192.638 95.6562 191.755 95.2396 191.078 94.4062C190.401 93.5677 190.062 92.4896 190.062 91.1719V90.6172C190.062 88.5234 190.508 86.9245 191.398 85.8203C192.294 84.7109 193.625 84.1432 195.391 84.1172H195.648ZM193.75 89.2422C193.255 89.2422 192.799 89.3906 192.383 89.6875C191.966 89.9844 191.677 90.3568 191.516 90.8047V91.3359C191.516 92.2734 191.727 93.0286 192.148 93.6016C192.57 94.1745 193.096 94.4609 193.727 94.4609C194.378 94.4609 194.888 94.2214 195.258 93.7422C195.633 93.263 195.82 92.6354 195.82 91.8594C195.82 91.0781 195.63 90.4479 195.25 89.9688C194.875 89.4844 194.375 89.2422 193.75 89.2422ZM206.266 91.3672C206.266 92.6589 205.969 93.6979 205.375 94.4844C204.781 95.2656 203.984 95.6562 202.984 95.6562C201.917 95.6562 201.091 95.2786 200.508 94.5234L200.438 95.5H199.109V83.5H200.555V87.9766C201.138 87.2526 201.943 86.8906 202.969 86.8906C203.995 86.8906 204.799 87.2786 205.383 88.0547C205.971 88.8307 206.266 89.8932 206.266 91.2422V91.3672ZM204.82 91.2031C204.82 90.2188 204.63 89.4583 204.25 88.9219C203.87 88.3854 203.323 88.1172 202.609 88.1172C201.656 88.1172 200.971 88.5599 200.555 89.4453V93.1016C200.997 93.987 201.688 94.4297 202.625 94.4297C203.318 94.4297 203.857 94.1615 204.242 93.625C204.628 93.0885 204.82 92.2812 204.82 91.2031ZM215.398 95.5H207.945V94.4609L211.883 90.0859C212.466 89.4245 212.867 88.888 213.086 88.4766C213.31 88.0599 213.422 87.6302 213.422 87.1875C213.422 86.5938 213.242 86.1068 212.883 85.7266C212.523 85.3464 212.044 85.1562 211.445 85.1562C210.727 85.1562 210.167 85.362 209.766 85.7734C209.37 86.1797 209.172 86.7474 209.172 87.4766H207.727C207.727 86.4297 208.062 85.5833 208.734 84.9375C209.411 84.2917 210.315 83.9688 211.445 83.9688C212.503 83.9688 213.339 84.2474 213.953 84.8047C214.568 85.3568 214.875 86.0938 214.875 87.0156C214.875 88.1354 214.161 89.4688 212.734 91.0156L209.688 94.3203H215.398V95.5ZM220.469 94.4766C220.984 94.4766 221.435 94.3203 221.82 94.0078C222.206 93.6953 222.419 93.3047 222.461 92.8359H223.828C223.802 93.3203 223.635 93.7812 223.328 94.2188C223.021 94.6562 222.609 95.0052 222.094 95.2656C221.583 95.526 221.042 95.6562 220.469 95.6562C219.318 95.6562 218.401 95.2734 217.719 94.5078C217.042 93.737 216.703 92.6849 216.703 91.3516V91.1094C216.703 90.2865 216.854 89.5547 217.156 88.9141C217.458 88.2734 217.891 87.776 218.453 87.4219C219.021 87.0677 219.69 86.8906 220.461 86.8906C221.409 86.8906 222.195 87.1745 222.82 87.7422C223.451 88.3099 223.786 89.0469 223.828 89.9531H222.461C222.419 89.4062 222.211 88.9583 221.836 88.6094C221.466 88.2552 221.008 88.0781 220.461 88.0781C219.727 88.0781 219.156 88.3438 218.75 88.875C218.349 89.401 218.148 90.1641 218.148 91.1641V91.4375C218.148 92.4115 218.349 93.1615 218.75 93.6875C219.151 94.2135 219.724 94.4766 220.469 94.4766ZM232.438 90.6484C232.438 92.3411 232.148 93.599 231.57 94.4219C230.992 95.2448 230.089 95.6562 228.859 95.6562C227.646 95.6562 226.747 95.2552 226.164 94.4531C225.581 93.6458 225.279 92.4427 225.258 90.8438V88.9141C225.258 87.2422 225.547 86 226.125 85.1875C226.703 84.375 227.609 83.9688 228.844 83.9688C230.068 83.9688 230.969 84.362 231.547 85.1484C232.125 85.9297 232.422 87.138 232.438 88.7734V90.6484ZM230.992 88.6719C230.992 87.4479 230.82 86.5573 230.477 86C230.133 85.4375 229.589 85.1562 228.844 85.1562C228.104 85.1562 227.565 85.4349 227.227 85.9922C226.888 86.5495 226.714 87.4062 226.703 88.5625V90.875C226.703 92.1042 226.88 93.013 227.234 93.6016C227.594 94.1849 228.135 94.4766 228.859 94.4766C229.573 94.4766 230.102 94.2005 230.445 93.6484C230.794 93.0964 230.977 92.2266 230.992 91.0391V88.6719ZM241.188 87.0938C241.188 87.6615 241.036 88.1667 240.734 88.6094C240.438 89.0521 240.034 89.3984 239.523 89.6484C240.117 89.9036 240.586 90.276 240.93 90.7656C241.279 91.2552 241.453 91.8099 241.453 92.4297C241.453 93.4141 241.12 94.1979 240.453 94.7812C239.792 95.3646 238.919 95.6562 237.836 95.6562C236.742 95.6562 235.865 95.3646 235.203 94.7812C234.547 94.1927 234.219 93.4089 234.219 92.4297C234.219 91.8151 234.385 91.2604 234.719 90.7656C235.057 90.2708 235.523 89.8958 236.117 89.6406C235.612 89.3906 235.214 89.0443 234.922 88.6016C234.63 88.1589 234.484 87.6562 234.484 87.0938C234.484 86.1354 234.792 85.375 235.406 84.8125C236.021 84.25 236.831 83.9688 237.836 83.9688C238.836 83.9688 239.643 84.25 240.258 84.8125C240.878 85.375 241.188 86.1354 241.188 87.0938ZM240.008 92.3984C240.008 91.763 239.805 91.2448 239.398 90.8438C238.997 90.4427 238.471 90.2422 237.82 90.2422C237.169 90.2422 236.646 90.4401 236.25 90.8359C235.859 91.2318 235.664 91.7526 235.664 92.3984C235.664 93.0443 235.854 93.5521 236.234 93.9219C236.62 94.2917 237.154 94.4766 237.836 94.4766C238.513 94.4766 239.044 94.2917 239.43 93.9219C239.815 93.5469 240.008 93.0391 240.008 92.3984ZM237.836 85.1562C237.268 85.1562 236.807 85.3333 236.453 85.6875C236.104 86.0365 235.93 86.513 235.93 87.1172C235.93 87.6953 236.102 88.1641 236.445 88.5234C236.794 88.8776 237.258 89.0547 237.836 89.0547C238.414 89.0547 238.875 88.8776 239.219 88.5234C239.568 88.1641 239.742 87.6953 239.742 87.1172C239.742 86.5391 239.562 86.0677 239.203 85.7031C238.844 85.3385 238.388 85.1562 237.836 85.1562ZM248.641 95.5C248.557 95.3333 248.49 95.0365 248.438 94.6094C247.766 95.3073 246.964 95.6562 246.031 95.6562C245.198 95.6562 244.513 95.4219 243.977 94.9531C243.445 94.4792 243.18 93.8802 243.18 93.1562C243.18 92.276 243.513 91.5938 244.18 91.1094C244.852 90.6198 245.794 90.375 247.008 90.375H248.414V89.7109C248.414 89.2057 248.263 88.8047 247.961 88.5078C247.659 88.2057 247.214 88.0547 246.625 88.0547C246.109 88.0547 245.677 88.1849 245.328 88.4453C244.979 88.7057 244.805 89.0208 244.805 89.3906H243.352C243.352 88.9688 243.5 88.5625 243.797 88.1719C244.099 87.776 244.505 87.4635 245.016 87.2344C245.531 87.0052 246.096 86.8906 246.711 86.8906C247.685 86.8906 248.448 87.1354 249 87.625C249.552 88.1094 249.839 88.7786 249.859 89.6328V93.5234C249.859 94.2995 249.958 94.9167 250.156 95.375V95.5H248.641ZM246.242 94.3984C246.695 94.3984 247.125 94.2812 247.531 94.0469C247.938 93.8125 248.232 93.5078 248.414 93.1328V91.3984H247.281C245.51 91.3984 244.625 91.9167 244.625 92.9531C244.625 93.4062 244.776 93.7604 245.078 94.0156C245.38 94.2708 245.768 94.3984 246.242 94.3984ZM254.078 89.1094H255.164C255.846 89.099 256.383 88.9193 256.773 88.5703C257.164 88.2214 257.359 87.75 257.359 87.1562C257.359 85.8229 256.695 85.1562 255.367 85.1562C254.742 85.1562 254.242 85.3359 253.867 85.6953C253.497 86.0495 253.312 86.5208 253.312 87.1094H251.867C251.867 86.2083 252.195 85.4609 252.852 84.8672C253.513 84.2682 254.352 83.9688 255.367 83.9688C256.44 83.9688 257.281 84.2526 257.891 84.8203C258.5 85.388 258.805 86.1771 258.805 87.1875C258.805 87.6823 258.643 88.1615 258.32 88.625C258.003 89.0885 257.568 89.4349 257.016 89.6641C257.641 89.862 258.122 90.1901 258.461 90.6484C258.805 91.1068 258.977 91.6667 258.977 92.3281C258.977 93.349 258.643 94.1589 257.977 94.7578C257.31 95.3568 256.443 95.6562 255.375 95.6562C254.307 95.6562 253.438 95.3672 252.766 94.7891C252.099 94.2109 251.766 93.4479 251.766 92.5H253.219C253.219 93.099 253.414 93.5781 253.805 93.9375C254.195 94.2969 254.719 94.4766 255.375 94.4766C256.073 94.4766 256.607 94.2943 256.977 93.9297C257.346 93.5651 257.531 93.0417 257.531 92.3594C257.531 91.6979 257.328 91.1901 256.922 90.8359C256.516 90.4818 255.93 90.2995 255.164 90.2891H254.078V89.1094ZM266.633 84.1172V85.3438H266.367C265.242 85.3646 264.346 85.6979 263.68 86.3438C263.013 86.9896 262.628 87.8984 262.523 89.0703C263.122 88.3828 263.94 88.0391 264.977 88.0391C265.966 88.0391 266.755 88.388 267.344 89.0859C267.938 89.7839 268.234 90.6849 268.234 91.7891C268.234 92.9609 267.914 93.8984 267.273 94.6016C266.638 95.3047 265.784 95.6562 264.711 95.6562C263.622 95.6562 262.74 95.2396 262.062 94.4062C261.385 93.5677 261.047 92.4896 261.047 91.1719V90.6172C261.047 88.5234 261.492 86.9245 262.383 85.8203C263.279 84.7109 264.609 84.1432 266.375 84.1172H266.633ZM264.734 89.2422C264.24 89.2422 263.784 89.3906 263.367 89.6875C262.951 89.9844 262.661 90.3568 262.5 90.8047V91.3359C262.5 92.2734 262.711 93.0286 263.133 93.6016C263.555 94.1745 264.081 94.4609 264.711 94.4609C265.362 94.4609 265.872 94.2214 266.242 93.7422C266.617 93.263 266.805 92.6354 266.805 91.8594C266.805 91.0781 266.615 90.4479 266.234 89.9688C265.859 89.4844 265.359 89.2422 264.734 89.2422ZM277.078 90.6484C277.078 92.3411 276.789 93.599 276.211 94.4219C275.633 95.2448 274.729 95.6562 273.5 95.6562C272.286 95.6562 271.388 95.2552 270.805 94.4531C270.221 93.6458 269.919 92.4427 269.898 90.8438V88.9141C269.898 87.2422 270.188 86 270.766 85.1875C271.344 84.375 272.25 83.9688 273.484 83.9688C274.708 83.9688 275.609 84.362 276.188 85.1484C276.766 85.9297 277.062 87.138 277.078 88.7734V90.6484ZM275.633 88.6719C275.633 87.4479 275.461 86.5573 275.117 86C274.773 85.4375 274.229 85.1562 273.484 85.1562C272.745 85.1562 272.206 85.4349 271.867 85.9922C271.529 86.5495 271.354 87.4062 271.344 88.5625V90.875C271.344 92.1042 271.521 93.013 271.875 93.6016C272.234 94.1849 272.776 94.4766 273.5 94.4766C274.214 94.4766 274.742 94.2005 275.086 93.6484C275.435 93.0964 275.617 92.2266 275.633 91.0391V88.6719ZM286.273 84.9375L281.562 95.5H280.047L284.742 85.3125H278.586V84.125H286.273V84.9375ZM292.664 95.5H291.211V85.8672L288.297 86.9375V85.625L292.438 84.0703H292.664V95.5ZM300.438 94.4766C300.953 94.4766 301.404 94.3203 301.789 94.0078C302.174 93.6953 302.388 93.3047 302.43 92.8359H303.797C303.771 93.3203 303.604 93.7812 303.297 94.2188C302.99 94.6562 302.578 95.0052 302.062 95.2656C301.552 95.526 301.01 95.6562 300.438 95.6562C299.286 95.6562 298.37 95.2734 297.688 94.5078C297.01 93.737 296.672 92.6849 296.672 91.3516V91.1094C296.672 90.2865 296.823 89.5547 297.125 88.9141C297.427 88.2734 297.859 87.776 298.422 87.4219C298.99 87.0677 299.659 86.8906 300.43 86.8906C301.378 86.8906 302.164 87.1745 302.789 87.7422C303.419 88.3099 303.755 89.0469 303.797 89.9531H302.43C302.388 89.4062 302.18 88.9583 301.805 88.6094C301.435 88.2552 300.977 88.0781 300.43 88.0781C299.695 88.0781 299.125 88.3438 298.719 88.875C298.318 89.401 298.117 90.1641 298.117 91.1641V91.4375C298.117 92.4115 298.318 93.1615 298.719 93.6875C299.12 94.2135 299.693 94.4766 300.438 94.4766ZM311.375 91.6797H312.953V92.8594H311.375V95.5H309.922V92.8594H304.742V92.0078L309.836 84.125H311.375V91.6797ZM306.383 91.6797H309.922V86.1016L309.75 86.4141L306.383 91.6797ZM314.922 89.7969L315.5 84.125H321.328V85.4609H316.727L316.383 88.5625C316.94 88.2344 317.573 88.0703 318.281 88.0703C319.318 88.0703 320.141 88.4141 320.75 89.1016C321.359 89.7839 321.664 90.7083 321.664 91.875C321.664 93.0469 321.346 93.9714 320.711 94.6484C320.081 95.3203 319.198 95.6562 318.062 95.6562C317.057 95.6562 316.237 95.3776 315.602 94.8203C314.966 94.263 314.604 93.4922 314.516 92.5078H315.883C315.971 93.1589 316.203 93.651 316.578 93.9844C316.953 94.3125 317.448 94.4766 318.062 94.4766C318.734 94.4766 319.26 94.2474 319.641 93.7891C320.026 93.3307 320.219 92.6979 320.219 91.8906C320.219 91.1302 320.01 90.5208 319.594 90.0625C319.182 89.599 318.633 89.3672 317.945 89.3672C317.315 89.3672 316.82 89.5052 316.461 89.7812L316.078 90.0938L314.922 89.7969ZM328.609 95.5C328.526 95.3333 328.458 95.0365 328.406 94.6094C327.734 95.3073 326.932 95.6562 326 95.6562C325.167 95.6562 324.482 95.4219 323.945 94.9531C323.414 94.4792 323.148 93.8802 323.148 93.1562C323.148 92.276 323.482 91.5938 324.148 91.1094C324.82 90.6198 325.763 90.375 326.977 90.375H328.383V89.7109C328.383 89.2057 328.232 88.8047 327.93 88.5078C327.628 88.2057 327.182 88.0547 326.594 88.0547C326.078 88.0547 325.646 88.1849 325.297 88.4453C324.948 88.7057 324.773 89.0208 324.773 89.3906H323.32C323.32 88.9688 323.469 88.5625 323.766 88.1719C324.068 87.776 324.474 87.4635 324.984 87.2344C325.5 87.0052 326.065 86.8906 326.68 86.8906C327.654 86.8906 328.417 87.1354 328.969 87.625C329.521 88.1094 329.807 88.7786 329.828 89.6328V93.5234C329.828 94.2995 329.927 94.9167 330.125 95.375V95.5H328.609ZM326.211 94.3984C326.664 94.3984 327.094 94.2812 327.5 94.0469C327.906 93.8125 328.201 93.5078 328.383 93.1328V91.3984H327.25C325.479 91.3984 324.594 91.9167 324.594 92.9531C324.594 93.4062 324.745 93.7604 325.047 94.0156C325.349 94.2708 325.737 94.3984 326.211 94.3984ZM337.312 95.5C337.229 95.3333 337.161 95.0365 337.109 94.6094C336.438 95.3073 335.635 95.6562 334.703 95.6562C333.87 95.6562 333.185 95.4219 332.648 94.9531C332.117 94.4792 331.852 93.8802 331.852 93.1562C331.852 92.276 332.185 91.5938 332.852 91.1094C333.523 90.6198 334.466 90.375 335.68 90.375H337.086V89.7109C337.086 89.2057 336.935 88.8047 336.633 88.5078C336.331 88.2057 335.885 88.0547 335.297 88.0547C334.781 88.0547 334.349 88.1849 334 88.4453C333.651 88.7057 333.477 89.0208 333.477 89.3906H332.023C332.023 88.9688 332.172 88.5625 332.469 88.1719C332.771 87.776 333.177 87.4635 333.688 87.2344C334.203 87.0052 334.768 86.8906 335.383 86.8906C336.357 86.8906 337.12 87.1354 337.672 87.625C338.224 88.1094 338.51 88.7786 338.531 89.6328V93.5234C338.531 94.2995 338.63 94.9167 338.828 95.375V95.5H337.312ZM334.914 94.3984C335.367 94.3984 335.797 94.2812 336.203 94.0469C336.609 93.8125 336.904 93.5078 337.086 93.1328V91.3984H335.953C334.182 91.3984 333.297 91.9167 333.297 92.9531C333.297 93.4062 333.448 93.7604 333.75 94.0156C334.052 94.2708 334.44 94.3984 334.914 94.3984ZM344.305 95.6562C343.159 95.6562 342.227 95.2812 341.508 94.5312C340.789 93.776 340.43 92.7682 340.43 91.5078V91.2422C340.43 90.4036 340.589 89.6562 340.906 89C341.229 88.3385 341.677 87.8229 342.25 87.4531C342.828 87.0781 343.453 86.8906 344.125 86.8906C345.224 86.8906 346.078 87.2526 346.688 87.9766C347.297 88.7005 347.602 89.737 347.602 91.0859V91.6875H341.875C341.896 92.5208 342.138 93.1953 342.602 93.7109C343.07 94.2214 343.664 94.4766 344.383 94.4766C344.893 94.4766 345.326 94.3724 345.68 94.1641C346.034 93.9557 346.344 93.6797 346.609 93.3359L347.492 94.0234C346.784 95.112 345.721 95.6562 344.305 95.6562ZM344.125 88.0781C343.542 88.0781 343.052 88.2917 342.656 88.7188C342.26 89.1406 342.016 89.7344 341.922 90.5H346.156V90.3906C346.115 89.6562 345.917 89.0885 345.562 88.6875C345.208 88.2812 344.729 88.0781 344.125 88.0781ZM355.234 91.6797H356.812V92.8594H355.234V95.5H353.781V92.8594H348.602V92.0078L353.695 84.125H355.234V91.6797ZM350.242 91.6797H353.781V86.1016L353.609 86.4141L350.242 91.6797ZM365.016 87.0938C365.016 87.6615 364.865 88.1667 364.562 88.6094C364.266 89.0521 363.862 89.3984 363.352 89.6484C363.945 89.9036 364.414 90.276 364.758 90.7656C365.107 91.2552 365.281 91.8099 365.281 92.4297C365.281 93.4141 364.948 94.1979 364.281 94.7812C363.62 95.3646 362.747 95.6562 361.664 95.6562C360.57 95.6562 359.693 95.3646 359.031 94.7812C358.375 94.1927 358.047 93.4089 358.047 92.4297C358.047 91.8151 358.214 91.2604 358.547 90.7656C358.885 90.2708 359.352 89.8958 359.945 89.6406C359.44 89.3906 359.042 89.0443 358.75 88.6016C358.458 88.1589 358.312 87.6562 358.312 87.0938C358.312 86.1354 358.62 85.375 359.234 84.8125C359.849 84.25 360.659 83.9688 361.664 83.9688C362.664 83.9688 363.471 84.25 364.086 84.8125C364.706 85.375 365.016 86.1354 365.016 87.0938ZM363.836 92.3984C363.836 91.763 363.633 91.2448 363.227 90.8438C362.826 90.4427 362.299 90.2422 361.648 90.2422C360.997 90.2422 360.474 90.4401 360.078 90.8359C359.688 91.2318 359.492 91.7526 359.492 92.3984C359.492 93.0443 359.682 93.5521 360.062 93.9219C360.448 94.2917 360.982 94.4766 361.664 94.4766C362.341 94.4766 362.872 94.2917 363.258 93.9219C363.643 93.5469 363.836 93.0391 363.836 92.3984ZM361.664 85.1562C361.096 85.1562 360.635 85.3333 360.281 85.6875C359.932 86.0365 359.758 86.513 359.758 87.1172C359.758 87.6953 359.93 88.1641 360.273 88.5234C360.622 88.8776 361.086 89.0547 361.664 89.0547C362.242 89.0547 362.703 88.8776 363.047 88.5234C363.396 88.1641 363.57 87.6953 363.57 87.1172C363.57 86.5391 363.391 86.0677 363.031 85.7031C362.672 85.3385 362.216 85.1562 361.664 85.1562ZM367.281 94.7422C367.281 94.4922 367.354 94.2839 367.5 94.1172C367.651 93.9505 367.875 93.8672 368.172 93.8672C368.469 93.8672 368.693 93.9505 368.844 94.1172C369 94.2839 369.078 94.4922 369.078 94.7422C369.078 94.9818 369 95.1823 368.844 95.3438C368.693 95.5052 368.469 95.5859 368.172 95.5859C367.875 95.5859 367.651 95.5052 367.5 95.3438C367.354 95.1823 367.281 94.9818 367.281 94.7422ZM371.5 94.7422C371.5 94.4922 371.573 94.2839 371.719 94.1172C371.87 93.9505 372.094 93.8672 372.391 93.8672C372.688 93.8672 372.911 93.9505 373.062 94.1172C373.219 94.2839 373.297 94.4922 373.297 94.7422C373.297 94.9818 373.219 95.1823 373.062 95.3438C372.911 95.5052 372.688 95.5859 372.391 95.5859C372.094 95.5859 371.87 95.5052 371.719 95.3438C371.573 95.1823 371.5 94.9818 371.5 94.7422ZM375.719 94.7422C375.719 94.4922 375.792 94.2839 375.938 94.1172C376.089 93.9505 376.312 93.8672 376.609 93.8672C376.906 93.8672 377.13 93.9505 377.281 94.1172C377.438 94.2839 377.516 94.4922 377.516 94.7422C377.516 94.9818 377.438 95.1823 377.281 95.3438C377.13 95.5052 376.906 95.5859 376.609 95.5859C376.312 95.5859 376.089 95.5052 375.938 95.3438C375.792 95.1823 375.719 94.9818 375.719 94.7422Z" fill="#2097F6"/>
<rect x="0.5" y="0.5" width="399" height="129" rx="7.5" stroke="#2097F6"/>
</g>
<defs>
<filter id="filter0_d" x="0" y="0" width="404" height="134" filterUnits="userSpaceOnUse" color-interpolation-filters="sRGB">
<feFlood flood-opacity="0" result="BackgroundImageFix"/>
<feColorMatrix in="SourceAlpha" type="matrix" values="0 0 0 0 0 0 0 0 0 0 0 0 0 0 0 0 0 0 127 0"/>
<feOffset dx="4" dy="4"/>
<feColorMatrix type="matrix" values="0 0 0 0 0.513733 0 0 0 0 0.767915 0 0 0 0 0.970833 0 0 0 1 0"/>
<feBlend mode="normal" in2="BackgroundImageFix" result="effect1_dropShadow"/>
<feBlend mode="normal" in="SourceGraphic" in2="effect1_dropShadow" result="shape"/>
</filter>
</defs>
</svg>
