<svg width="676" height="306" viewBox="0 0 676 306" fill="none" xmlns="http://www.w3.org/2000/svg">
<g filter="url(#filter0_d)">
<rect width="672" height="302" rx="8" fill="#FEEBEA"/>
<rect x="0.5" y="0.5" width="671" height="301" rx="7.5" stroke="#DE1306"/>
</g>
<path d="M289.102 25.0703C289.102 24.5703 288.924 24.1849 288.57 23.9141C288.221 23.6432 287.589 23.3698 286.672 23.0938C285.755 22.8177 285.026 22.5104 284.484 22.1719C283.448 21.5208 282.93 20.6719 282.93 19.625C282.93 18.7083 283.302 17.9531 284.047 17.3594C284.797 16.7656 285.768 16.4688 286.961 16.4688C287.753 16.4688 288.458 16.6146 289.078 16.9062C289.698 17.1979 290.185 17.6146 290.539 18.1562C290.893 18.6927 291.07 19.2891 291.07 19.9453H289.102C289.102 19.3516 288.914 18.888 288.539 18.5547C288.169 18.2161 287.638 18.0469 286.945 18.0469C286.299 18.0469 285.797 18.1849 285.438 18.4609C285.083 18.737 284.906 19.1224 284.906 19.6172C284.906 20.0339 285.099 20.3828 285.484 20.6641C285.87 20.9401 286.505 21.2109 287.391 21.4766C288.276 21.737 288.987 22.0365 289.523 22.375C290.06 22.7083 290.453 23.0938 290.703 23.5312C290.953 23.9635 291.078 24.4714 291.078 25.0547C291.078 26.0026 290.714 26.7578 289.984 27.3203C289.26 27.8776 288.276 28.1562 287.031 28.1562C286.208 28.1562 285.451 28.0052 284.758 27.7031C284.07 27.3958 283.534 26.974 283.148 26.4375C282.768 25.901 282.578 25.276 282.578 24.5625H284.555C284.555 25.2083 284.768 25.7083 285.195 26.0625C285.622 26.4167 286.234 26.5938 287.031 26.5938C287.719 26.5938 288.234 26.4557 288.578 26.1797C288.927 25.8984 289.102 25.5286 289.102 25.0703ZM294.414 19.5469L294.469 20.4297C295.062 19.737 295.875 19.3906 296.906 19.3906C298.036 19.3906 298.81 19.8229 299.227 20.6875C299.841 19.8229 300.706 19.3906 301.82 19.3906C302.753 19.3906 303.445 19.6484 303.898 20.1641C304.357 20.6797 304.591 21.4401 304.602 22.4453V28H302.703V22.5C302.703 21.9635 302.586 21.5703 302.352 21.3203C302.117 21.0703 301.729 20.9453 301.188 20.9453C300.755 20.9453 300.401 21.0625 300.125 21.2969C299.854 21.526 299.664 21.8281 299.555 22.2031L299.562 28H297.664V22.4375C297.638 21.4427 297.13 20.9453 296.141 20.9453C295.38 20.9453 294.841 21.2552 294.523 21.875V28H292.625V19.5469H294.414ZM311.602 28C311.518 27.8385 311.445 27.5755 311.383 27.2109C310.779 27.8411 310.039 28.1562 309.164 28.1562C308.315 28.1562 307.622 27.9141 307.086 27.4297C306.549 26.9453 306.281 26.3464 306.281 25.6328C306.281 24.7318 306.615 24.0417 307.281 23.5625C307.953 23.0781 308.911 22.8359 310.156 22.8359H311.32V22.2812C311.32 21.8438 311.198 21.4948 310.953 21.2344C310.708 20.9688 310.336 20.8359 309.836 20.8359C309.404 20.8359 309.049 20.9453 308.773 21.1641C308.497 21.3776 308.359 21.651 308.359 21.9844H306.461C306.461 21.5208 306.615 21.0885 306.922 20.6875C307.229 20.2812 307.646 19.9635 308.172 19.7344C308.703 19.5052 309.294 19.3906 309.945 19.3906C310.935 19.3906 311.724 19.6406 312.312 20.1406C312.901 20.6354 313.203 21.3333 313.219 22.2344V26.0469C313.219 26.8073 313.326 27.4141 313.539 27.8672V28H311.602ZM309.516 26.6328C309.891 26.6328 310.242 26.5417 310.57 26.3594C310.904 26.1771 311.154 25.9323 311.32 25.625V24.0312H310.297C309.594 24.0312 309.065 24.1536 308.711 24.3984C308.357 24.6432 308.18 24.9896 308.18 25.4375C308.18 25.8021 308.299 26.0938 308.539 26.3125C308.784 26.526 309.109 26.6328 309.516 26.6328ZM319.633 21.2812C319.383 21.2396 319.125 21.2188 318.859 21.2188C317.99 21.2188 317.404 21.5521 317.102 22.2188V28H315.203V19.5469H317.016L317.062 20.4922C317.521 19.7578 318.156 19.3906 318.969 19.3906C319.24 19.3906 319.464 19.4271 319.641 19.5L319.633 21.2812ZM323.602 17.4922V19.5469H325.094V20.9531H323.602V25.6719C323.602 25.9948 323.664 26.2292 323.789 26.375C323.919 26.5156 324.148 26.5859 324.477 26.5859C324.695 26.5859 324.917 26.5599 325.141 26.5078V27.9766C324.708 28.0964 324.292 28.1562 323.891 28.1562C322.432 28.1562 321.703 27.3516 321.703 25.7422V20.9531H320.312V19.5469H321.703V17.4922H323.602ZM334.008 26.6406C334.482 26.6406 334.875 26.5026 335.188 26.2266C335.5 25.9505 335.667 25.6094 335.688 25.2031H337.477C337.456 25.7292 337.292 26.2214 336.984 26.6797C336.677 27.1328 336.26 27.4922 335.734 27.7578C335.208 28.0234 334.641 28.1562 334.031 28.1562C332.849 28.1562 331.911 27.7734 331.219 27.0078C330.526 26.2422 330.18 25.1849 330.18 23.8359V23.6406C330.18 22.3542 330.523 21.3255 331.211 20.5547C331.898 19.7786 332.836 19.3906 334.023 19.3906C335.029 19.3906 335.846 19.6849 336.477 20.2734C337.112 20.8568 337.445 21.625 337.477 22.5781H335.688C335.667 22.0938 335.5 21.6953 335.188 21.3828C334.88 21.0703 334.487 20.9141 334.008 20.9141C333.393 20.9141 332.919 21.138 332.586 21.5859C332.253 22.0286 332.083 22.7031 332.078 23.6094V23.9141C332.078 24.8307 332.242 25.5156 332.57 25.9688C332.904 26.4167 333.383 26.6406 334.008 26.6406ZM338.555 23.6953C338.555 22.8672 338.719 22.1224 339.047 21.4609C339.375 20.7943 339.836 20.2839 340.43 19.9297C341.023 19.5703 341.706 19.3906 342.477 19.3906C343.617 19.3906 344.542 19.7578 345.25 20.4922C345.964 21.2266 346.349 22.2005 346.406 23.4141L346.414 23.8594C346.414 24.6927 346.253 25.4375 345.93 26.0938C345.612 26.75 345.154 27.2578 344.555 27.6172C343.961 27.9766 343.273 28.1562 342.492 28.1562C341.299 28.1562 340.344 27.7604 339.625 26.9688C338.911 26.1719 338.555 25.112 338.555 23.7891V23.6953ZM340.453 23.8594C340.453 24.7292 340.633 25.4115 340.992 25.9062C341.352 26.3958 341.852 26.6406 342.492 26.6406C343.133 26.6406 343.63 26.3906 343.984 25.8906C344.344 25.3906 344.523 24.6589 344.523 23.6953C344.523 22.8411 344.339 22.1641 343.969 21.6641C343.604 21.1641 343.107 20.9141 342.477 20.9141C341.857 20.9141 341.365 21.1615 341 21.6562C340.635 22.1458 340.453 22.8802 340.453 23.8594ZM349.781 19.5469L349.836 20.5234C350.461 19.7682 351.281 19.3906 352.297 19.3906C354.057 19.3906 354.953 20.3984 354.984 22.4141V28H353.086V22.5234C353.086 21.987 352.969 21.5911 352.734 21.3359C352.505 21.0755 352.128 20.9453 351.602 20.9453C350.836 20.9453 350.266 21.2917 349.891 21.9844V28H347.992V19.5469H349.781ZM359.305 17.4922V19.5469H360.797V20.9531H359.305V25.6719C359.305 25.9948 359.367 26.2292 359.492 26.375C359.622 26.5156 359.852 26.5859 360.18 26.5859C360.398 26.5859 360.62 26.5599 360.844 26.5078V27.9766C360.411 28.0964 359.995 28.1562 359.594 28.1562C358.135 28.1562 357.406 27.3516 357.406 25.7422V20.9531H356.016V19.5469H357.406V17.4922H359.305ZM366.68 21.2812C366.43 21.2396 366.172 21.2188 365.906 21.2188C365.036 21.2188 364.451 21.5521 364.148 22.2188V28H362.25V19.5469H364.062L364.109 20.4922C364.568 19.7578 365.203 19.3906 366.016 19.3906C366.286 19.3906 366.51 19.4271 366.688 19.5L366.68 21.2812ZM372.695 28C372.612 27.8385 372.539 27.5755 372.477 27.2109C371.872 27.8411 371.133 28.1562 370.258 28.1562C369.409 28.1562 368.716 27.9141 368.18 27.4297C367.643 26.9453 367.375 26.3464 367.375 25.6328C367.375 24.7318 367.708 24.0417 368.375 23.5625C369.047 23.0781 370.005 22.8359 371.25 22.8359H372.414V22.2812C372.414 21.8438 372.292 21.4948 372.047 21.2344C371.802 20.9688 371.43 20.8359 370.93 20.8359C370.497 20.8359 370.143 20.9453 369.867 21.1641C369.591 21.3776 369.453 21.651 369.453 21.9844H367.555C367.555 21.5208 367.708 21.0885 368.016 20.6875C368.323 20.2812 368.74 19.9635 369.266 19.7344C369.797 19.5052 370.388 19.3906 371.039 19.3906C372.029 19.3906 372.818 19.6406 373.406 20.1406C373.995 20.6354 374.297 21.3333 374.312 22.2344V26.0469C374.312 26.8073 374.419 27.4141 374.633 27.8672V28H372.695ZM370.609 26.6328C370.984 26.6328 371.336 26.5417 371.664 26.3594C371.997 26.1771 372.247 25.9323 372.414 25.625V24.0312H371.391C370.688 24.0312 370.159 24.1536 369.805 24.3984C369.451 24.6432 369.273 24.9896 369.273 25.4375C369.273 25.8021 369.393 26.0938 369.633 26.3125C369.878 26.526 370.203 26.6328 370.609 26.6328ZM379.773 26.6406C380.247 26.6406 380.641 26.5026 380.953 26.2266C381.266 25.9505 381.432 25.6094 381.453 25.2031H383.242C383.221 25.7292 383.057 26.2214 382.75 26.6797C382.443 27.1328 382.026 27.4922 381.5 27.7578C380.974 28.0234 380.406 28.1562 379.797 28.1562C378.615 28.1562 377.677 27.7734 376.984 27.0078C376.292 26.2422 375.945 25.1849 375.945 23.8359V23.6406C375.945 22.3542 376.289 21.3255 376.977 20.5547C377.664 19.7786 378.602 19.3906 379.789 19.3906C380.794 19.3906 381.612 19.6849 382.242 20.2734C382.878 20.8568 383.211 21.625 383.242 22.5781H381.453C381.432 22.0938 381.266 21.6953 380.953 21.3828C380.646 21.0703 380.253 20.9141 379.773 20.9141C379.159 20.9141 378.685 21.138 378.352 21.5859C378.018 22.0286 377.849 22.7031 377.844 23.6094V23.9141C377.844 24.8307 378.008 25.5156 378.336 25.9688C378.669 26.4167 379.148 26.6406 379.773 26.6406ZM387.055 17.4922V19.5469H388.547V20.9531H387.055V25.6719C387.055 25.9948 387.117 26.2292 387.242 26.375C387.372 26.5156 387.602 26.5859 387.93 26.5859C388.148 26.5859 388.37 26.5599 388.594 26.5078V27.9766C388.161 28.0964 387.745 28.1562 387.344 28.1562C385.885 28.1562 385.156 27.3516 385.156 25.7422V20.9531H383.766V19.5469H385.156V17.4922H387.055Z" fill="#DE1306"/>
<path d="M226.242 81H224.273V69.625H226.242V81ZM230.273 72.5469L230.328 73.4297C230.922 72.737 231.734 72.3906 232.766 72.3906C233.896 72.3906 234.669 72.8229 235.086 73.6875C235.701 72.8229 236.565 72.3906 237.68 72.3906C238.612 72.3906 239.305 72.6484 239.758 73.1641C240.216 73.6797 240.451 74.4401 240.461 75.4453V81H238.562V75.5C238.562 74.9635 238.445 74.5703 238.211 74.3203C237.977 74.0703 237.589 73.9453 237.047 73.9453C236.615 73.9453 236.26 74.0625 235.984 74.2969C235.714 74.526 235.523 74.8281 235.414 75.2031L235.422 81H233.523V75.4375C233.497 74.4427 232.99 73.9453 232 73.9453C231.24 73.9453 230.701 74.2552 230.383 74.875V81H228.484V72.5469H230.273ZM244.195 72.5469L244.25 73.4297C244.844 72.737 245.656 72.3906 246.688 72.3906C247.818 72.3906 248.591 72.8229 249.008 73.6875C249.622 72.8229 250.487 72.3906 251.602 72.3906C252.534 72.3906 253.227 72.6484 253.68 73.1641C254.138 73.6797 254.372 74.4401 254.383 75.4453V81H252.484V75.5C252.484 74.9635 252.367 74.5703 252.133 74.3203C251.898 74.0703 251.51 73.9453 250.969 73.9453C250.536 73.9453 250.182 74.0625 249.906 74.2969C249.635 74.526 249.445 74.8281 249.336 75.2031L249.344 81H247.445V75.4375C247.419 74.4427 246.911 73.9453 245.922 73.9453C245.161 73.9453 244.622 74.2552 244.305 74.875V81H242.406V72.5469H244.195ZM261.453 80.1719C260.896 80.8281 260.104 81.1562 259.078 81.1562C258.161 81.1562 257.466 80.888 256.992 80.3516C256.523 79.8151 256.289 79.0391 256.289 78.0234V72.5469H258.188V78C258.188 79.0729 258.633 79.6094 259.523 79.6094C260.445 79.6094 261.068 79.2786 261.391 78.6172V72.5469H263.289V81H261.5L261.453 80.1719ZM267.602 70.4922V72.5469H269.094V73.9531H267.602V78.6719C267.602 78.9948 267.664 79.2292 267.789 79.375C267.919 79.5156 268.148 79.5859 268.477 79.5859C268.695 79.5859 268.917 79.5599 269.141 79.5078V80.9766C268.708 81.0964 268.292 81.1562 267.891 81.1562C266.432 81.1562 265.703 80.3516 265.703 78.7422V73.9531H264.312V72.5469H265.703V70.4922H267.602ZM275.602 81C275.518 80.8385 275.445 80.5755 275.383 80.2109C274.779 80.8411 274.039 81.1562 273.164 81.1562C272.315 81.1562 271.622 80.9141 271.086 80.4297C270.549 79.9453 270.281 79.3464 270.281 78.6328C270.281 77.7318 270.615 77.0417 271.281 76.5625C271.953 76.0781 272.911 75.8359 274.156 75.8359H275.32V75.2812C275.32 74.8438 275.198 74.4948 274.953 74.2344C274.708 73.9688 274.336 73.8359 273.836 73.8359C273.404 73.8359 273.049 73.9453 272.773 74.1641C272.497 74.3776 272.359 74.651 272.359 74.9844H270.461C270.461 74.5208 270.615 74.0885 270.922 73.6875C271.229 73.2812 271.646 72.9635 272.172 72.7344C272.703 72.5052 273.294 72.3906 273.945 72.3906C274.935 72.3906 275.724 72.6406 276.312 73.1406C276.901 73.6354 277.203 74.3333 277.219 75.2344V79.0469C277.219 79.8073 277.326 80.4141 277.539 80.8672V81H275.602ZM273.516 79.6328C273.891 79.6328 274.242 79.5417 274.57 79.3594C274.904 79.1771 275.154 78.9323 275.32 78.625V77.0312H274.297C273.594 77.0312 273.065 77.1536 272.711 77.3984C272.357 77.6432 272.18 77.9896 272.18 78.4375C272.18 78.8021 272.299 79.0938 272.539 79.3125C272.784 79.526 273.109 79.6328 273.516 79.6328ZM286.625 76.8594C286.625 78.1719 286.331 79.2161 285.742 79.9922C285.159 80.7682 284.354 81.1562 283.328 81.1562C282.339 81.1562 281.568 80.7995 281.016 80.0859L280.922 81H279.203V69H281.102V73.3594C281.648 72.7135 282.385 72.3906 283.312 72.3906C284.344 72.3906 285.154 72.7734 285.742 73.5391C286.331 74.3047 286.625 75.375 286.625 76.75V76.8594ZM284.727 76.6953C284.727 75.7786 284.565 75.0911 284.242 74.6328C283.919 74.1745 283.451 73.9453 282.836 73.9453C282.013 73.9453 281.435 74.3047 281.102 75.0234V78.5078C281.44 79.2422 282.023 79.6094 282.852 79.6094C283.445 79.6094 283.904 79.388 284.227 78.9453C284.549 78.5026 284.716 77.8333 284.727 76.9375V76.6953ZM290.242 81H288.344V69H290.242V81ZM296.039 81.1562C294.836 81.1562 293.859 80.7786 293.109 80.0234C292.365 79.263 291.992 78.2526 291.992 76.9922V76.7578C291.992 75.9141 292.154 75.1615 292.477 74.5C292.805 73.8333 293.263 73.3151 293.852 72.9453C294.44 72.5755 295.096 72.3906 295.82 72.3906C296.971 72.3906 297.859 72.7578 298.484 73.4922C299.115 74.2266 299.43 75.2656 299.43 76.6094V77.375H293.906C293.964 78.0729 294.195 78.625 294.602 79.0312C295.013 79.4375 295.529 79.6406 296.148 79.6406C297.018 79.6406 297.727 79.2891 298.273 78.5859L299.297 79.5625C298.958 80.0677 298.505 80.4609 297.938 80.7422C297.375 81.0182 296.742 81.1562 296.039 81.1562ZM295.812 73.9141C295.292 73.9141 294.87 74.0964 294.547 74.4609C294.229 74.8255 294.026 75.3333 293.938 75.9844H297.555V75.8438C297.513 75.2083 297.344 74.7292 297.047 74.4062C296.75 74.0781 296.339 73.9141 295.812 73.9141Z" fill="#DE1306"/>
<path d="M54.2422 81H52.2734V69.625H54.2422V81ZM58.2734 72.5469L58.3281 73.4297C58.9219 72.737 59.7344 72.3906 60.7656 72.3906C61.8958 72.3906 62.6693 72.8229 63.0859 73.6875C63.7005 72.8229 64.5651 72.3906 65.6797 72.3906C66.612 72.3906 67.3047 72.6484 67.7578 73.1641C68.2161 73.6797 68.4505 74.4401 68.4609 75.4453V81H66.5625V75.5C66.5625 74.9635 66.4453 74.5703 66.2109 74.3203C65.9766 74.0703 65.5885 73.9453 65.0469 73.9453C64.6146 73.9453 64.2604 74.0625 63.9844 74.2969C63.7135 74.526 63.5234 74.8281 63.4141 75.2031L63.4219 81H61.5234V75.4375C61.4974 74.4427 60.9896 73.9453 60 73.9453C59.2396 73.9453 58.7005 74.2552 58.3828 74.875V81H56.4844V72.5469H58.2734ZM72.1953 72.5469L72.25 73.4297C72.8438 72.737 73.6562 72.3906 74.6875 72.3906C75.8177 72.3906 76.5911 72.8229 77.0078 73.6875C77.6224 72.8229 78.487 72.3906 79.6016 72.3906C80.5339 72.3906 81.2266 72.6484 81.6797 73.1641C82.138 73.6797 82.3724 74.4401 82.3828 75.4453V81H80.4844V75.5C80.4844 74.9635 80.3672 74.5703 80.1328 74.3203C79.8984 74.0703 79.5104 73.9453 78.9688 73.9453C78.5365 73.9453 78.1823 74.0625 77.9062 74.2969C77.6354 74.526 77.4453 74.8281 77.3359 75.2031L77.3438 81H75.4453V75.4375C75.4193 74.4427 74.9115 73.9453 73.9219 73.9453C73.1615 73.9453 72.6224 74.2552 72.3047 74.875V81H70.4062V72.5469H72.1953ZM89.4531 80.1719C88.8958 80.8281 88.1042 81.1562 87.0781 81.1562C86.1615 81.1562 85.4661 80.888 84.9922 80.3516C84.5234 79.8151 84.2891 79.0391 84.2891 78.0234V72.5469H86.1875V78C86.1875 79.0729 86.6328 79.6094 87.5234 79.6094C88.4453 79.6094 89.0677 79.2786 89.3906 78.6172V72.5469H91.2891V81H89.5L89.4531 80.1719ZM95.6016 70.4922V72.5469H97.0938V73.9531H95.6016V78.6719C95.6016 78.9948 95.6641 79.2292 95.7891 79.375C95.9193 79.5156 96.1484 79.5859 96.4766 79.5859C96.6953 79.5859 96.9167 79.5599 97.1406 79.5078V80.9766C96.7083 81.0964 96.2917 81.1562 95.8906 81.1562C94.4323 81.1562 93.7031 80.3516 93.7031 78.7422V73.9531H92.3125V72.5469H93.7031V70.4922H95.6016ZM103.602 81C103.518 80.8385 103.445 80.5755 103.383 80.2109C102.779 80.8411 102.039 81.1562 101.164 81.1562C100.315 81.1562 99.6224 80.9141 99.0859 80.4297C98.5495 79.9453 98.2812 79.3464 98.2812 78.6328C98.2812 77.7318 98.6146 77.0417 99.2812 76.5625C99.9531 76.0781 100.911 75.8359 102.156 75.8359H103.32V75.2812C103.32 74.8438 103.198 74.4948 102.953 74.2344C102.708 73.9688 102.336 73.8359 101.836 73.8359C101.404 73.8359 101.049 73.9453 100.773 74.1641C100.497 74.3776 100.359 74.651 100.359 74.9844H98.4609C98.4609 74.5208 98.6146 74.0885 98.9219 73.6875C99.2292 73.2812 99.6458 72.9635 100.172 72.7344C100.703 72.5052 101.294 72.3906 101.945 72.3906C102.935 72.3906 103.724 72.6406 104.312 73.1406C104.901 73.6354 105.203 74.3333 105.219 75.2344V79.0469C105.219 79.8073 105.326 80.4141 105.539 80.8672V81H103.602ZM101.516 79.6328C101.891 79.6328 102.242 79.5417 102.57 79.3594C102.904 79.1771 103.154 78.9323 103.32 78.625V77.0312H102.297C101.594 77.0312 101.065 77.1536 100.711 77.3984C100.357 77.6432 100.18 77.9896 100.18 78.4375C100.18 78.8021 100.299 79.0938 100.539 79.3125C100.784 79.526 101.109 79.6328 101.516 79.6328ZM114.625 76.8594C114.625 78.1719 114.331 79.2161 113.742 79.9922C113.159 80.7682 112.354 81.1562 111.328 81.1562C110.339 81.1562 109.568 80.7995 109.016 80.0859L108.922 81H107.203V69H109.102V73.3594C109.648 72.7135 110.385 72.3906 111.312 72.3906C112.344 72.3906 113.154 72.7734 113.742 73.5391C114.331 74.3047 114.625 75.375 114.625 76.75V76.8594ZM112.727 76.6953C112.727 75.7786 112.565 75.0911 112.242 74.6328C111.919 74.1745 111.451 73.9453 110.836 73.9453C110.013 73.9453 109.435 74.3047 109.102 75.0234V78.5078C109.44 79.2422 110.023 79.6094 110.852 79.6094C111.445 79.6094 111.904 79.388 112.227 78.9453C112.549 78.5026 112.716 77.8333 112.727 76.9375V76.6953ZM118.242 81H116.344V69H118.242V81ZM124.039 81.1562C122.836 81.1562 121.859 80.7786 121.109 80.0234C120.365 79.263 119.992 78.2526 119.992 76.9922V76.7578C119.992 75.9141 120.154 75.1615 120.477 74.5C120.805 73.8333 121.263 73.3151 121.852 72.9453C122.44 72.5755 123.096 72.3906 123.82 72.3906C124.971 72.3906 125.859 72.7578 126.484 73.4922C127.115 74.2266 127.43 75.2656 127.43 76.6094V77.375H121.906C121.964 78.0729 122.195 78.625 122.602 79.0312C123.013 79.4375 123.529 79.6406 124.148 79.6406C125.018 79.6406 125.727 79.2891 126.273 78.5859L127.297 79.5625C126.958 80.0677 126.505 80.4609 125.938 80.7422C125.375 81.0182 124.742 81.1562 124.039 81.1562ZM123.812 73.9141C123.292 73.9141 122.87 74.0964 122.547 74.4609C122.229 74.8255 122.026 75.3333 121.938 75.9844H125.555V75.8438C125.513 75.2083 125.344 74.7292 125.047 74.4062C124.75 74.0781 124.339 73.9141 123.812 73.9141Z" fill="#DE1306"/>
<path d="M491.719 69.625L495 78.3438L498.273 69.625H500.828V81H498.859V77.25L499.055 72.2344L495.695 81H494.281L490.93 72.2422L491.125 77.25V81H489.156V69.625H491.719ZM508.109 80.1719C507.552 80.8281 506.76 81.1562 505.734 81.1562C504.818 81.1562 504.122 80.888 503.648 80.3516C503.18 79.8151 502.945 79.0391 502.945 78.0234V72.5469H504.844V78C504.844 79.0729 505.289 79.6094 506.18 79.6094C507.102 79.6094 507.724 79.2786 508.047 78.6172V72.5469H509.945V81H508.156L508.109 80.1719ZM514.258 70.4922V72.5469H515.75V73.9531H514.258V78.6719C514.258 78.9948 514.32 79.2292 514.445 79.375C514.576 79.5156 514.805 79.5859 515.133 79.5859C515.352 79.5859 515.573 79.5599 515.797 79.5078V80.9766C515.365 81.0964 514.948 81.1562 514.547 81.1562C513.089 81.1562 512.359 80.3516 512.359 78.7422V73.9531H510.969V72.5469H512.359V70.4922H514.258ZM522.258 81C522.174 80.8385 522.102 80.5755 522.039 80.2109C521.435 80.8411 520.695 81.1562 519.82 81.1562C518.971 81.1562 518.279 80.9141 517.742 80.4297C517.206 79.9453 516.938 79.3464 516.938 78.6328C516.938 77.7318 517.271 77.0417 517.938 76.5625C518.609 76.0781 519.568 75.8359 520.812 75.8359H521.977V75.2812C521.977 74.8438 521.854 74.4948 521.609 74.2344C521.365 73.9688 520.992 73.8359 520.492 73.8359C520.06 73.8359 519.706 73.9453 519.43 74.1641C519.154 74.3776 519.016 74.651 519.016 74.9844H517.117C517.117 74.5208 517.271 74.0885 517.578 73.6875C517.885 73.2812 518.302 72.9635 518.828 72.7344C519.359 72.5052 519.951 72.3906 520.602 72.3906C521.591 72.3906 522.38 72.6406 522.969 73.1406C523.557 73.6354 523.859 74.3333 523.875 75.2344V79.0469C523.875 79.8073 523.982 80.4141 524.195 80.8672V81H522.258ZM520.172 79.6328C520.547 79.6328 520.898 79.5417 521.227 79.3594C521.56 79.1771 521.81 78.9323 521.977 78.625V77.0312H520.953C520.25 77.0312 519.721 77.1536 519.367 77.3984C519.013 77.6432 518.836 77.9896 518.836 78.4375C518.836 78.8021 518.956 79.0938 519.195 79.3125C519.44 79.526 519.766 79.6328 520.172 79.6328ZM533.281 76.8594C533.281 78.1719 532.987 79.2161 532.398 79.9922C531.815 80.7682 531.01 81.1562 529.984 81.1562C528.995 81.1562 528.224 80.7995 527.672 80.0859L527.578 81H525.859V69H527.758V73.3594C528.305 72.7135 529.042 72.3906 529.969 72.3906C531 72.3906 531.81 72.7734 532.398 73.5391C532.987 74.3047 533.281 75.375 533.281 76.75V76.8594ZM531.383 76.6953C531.383 75.7786 531.221 75.0911 530.898 74.6328C530.576 74.1745 530.107 73.9453 529.492 73.9453C528.669 73.9453 528.091 74.3047 527.758 75.0234V78.5078C528.096 79.2422 528.68 79.6094 529.508 79.6094C530.102 79.6094 530.56 79.388 530.883 78.9453C531.206 78.5026 531.372 77.8333 531.383 76.9375V76.6953ZM536.898 81H535V69H536.898V81ZM542.695 81.1562C541.492 81.1562 540.516 80.7786 539.766 80.0234C539.021 79.263 538.648 78.2526 538.648 76.9922V76.7578C538.648 75.9141 538.81 75.1615 539.133 74.5C539.461 73.8333 539.919 73.3151 540.508 72.9453C541.096 72.5755 541.753 72.3906 542.477 72.3906C543.628 72.3906 544.516 72.7578 545.141 73.4922C545.771 74.2266 546.086 75.2656 546.086 76.6094V77.375H540.562C540.62 78.0729 540.852 78.625 541.258 79.0312C541.669 79.4375 542.185 79.6406 542.805 79.6406C543.674 79.6406 544.383 79.2891 544.93 78.5859L545.953 79.5625C545.615 80.0677 545.161 80.4609 544.594 80.7422C544.031 81.0182 543.398 81.1562 542.695 81.1562ZM542.469 73.9141C541.948 73.9141 541.526 74.0964 541.203 74.4609C540.885 74.8255 540.682 75.3333 540.594 75.9844H544.211V75.8438C544.169 75.2083 544 74.7292 543.703 74.4062C543.406 74.0781 542.995 73.9141 542.469 73.9141Z" fill="#2097F6"/>
<g filter="url(#filter1_d)">
<rect x="15" y="93" width="150" height="190" rx="10" fill="white"/>
<rect x="15.5" y="93.5" width="149" height="189" rx="9.5" stroke="#E12519"/>
</g>
<g filter="url(#filter2_d)">
<rect x="180" y="93" width="160" height="190" rx="10" fill="white"/>
<rect x="180.5" y="93.5" width="159" height="189" rx="9.5" stroke="#E12519"/>
</g>
<g filter="url(#filter3_d)">
<rect x="385" y="93" width="270" height="190" rx="10" fill="white"/>
<rect x="385.5" y="93.5" width="269" height="189" rx="9.5" stroke="#2097F6"/>
</g>
<path d="M56.9453 113.742H52.0156V117.773H57.7422V119H50.5156V107.625H57.6641V108.859H52.0156V112.516H56.9453V113.742ZM60.75 110.547L60.7969 111.609C61.4427 110.797 62.2865 110.391 63.3281 110.391C65.1146 110.391 66.0156 111.398 66.0312 113.414V119H64.5859V113.406C64.5807 112.797 64.4401 112.346 64.1641 112.055C63.8932 111.763 63.4688 111.617 62.8906 111.617C62.4219 111.617 62.0104 111.742 61.6562 111.992C61.3021 112.242 61.026 112.57 60.8281 112.977V119H59.3828V110.547H60.75ZM70.1719 108.5V110.547H71.75V111.664H70.1719V116.906C70.1719 117.245 70.2422 117.5 70.3828 117.672C70.5234 117.839 70.763 117.922 71.1016 117.922C71.2682 117.922 71.4974 117.891 71.7891 117.828V119C71.4089 119.104 71.0391 119.156 70.6797 119.156C70.0339 119.156 69.5469 118.961 69.2188 118.57C68.8906 118.18 68.7266 117.625 68.7266 116.906V111.664H67.1875V110.547H68.7266V108.5H70.1719ZM77.5312 111.844C77.3125 111.807 77.0755 111.789 76.8203 111.789C75.8724 111.789 75.2292 112.193 74.8906 113V119H73.4453V110.547H74.8516L74.875 111.523C75.349 110.768 76.0208 110.391 76.8906 110.391C77.1719 110.391 77.3854 110.427 77.5312 110.5V111.844ZM81.7734 116.883L83.7422 110.547H85.2891L81.8906 120.305C81.3646 121.711 80.5286 122.414 79.3828 122.414L79.1094 122.391L78.5703 122.289V121.117L78.9609 121.148C79.4505 121.148 79.8307 121.049 80.1016 120.852C80.3776 120.654 80.6042 120.292 80.7812 119.766L81.1016 118.906L78.0859 110.547H79.6641L81.7734 116.883ZM93.7266 114.867C93.7266 116.154 93.4323 117.19 92.8438 117.977C92.2552 118.763 91.4583 119.156 90.4531 119.156C89.4271 119.156 88.6198 118.831 88.0312 118.18V122.25H86.5859V110.547H87.9062L87.9766 111.484C88.5651 110.755 89.3828 110.391 90.4297 110.391C91.4453 110.391 92.2474 110.773 92.8359 111.539C93.4297 112.305 93.7266 113.37 93.7266 114.734V114.867ZM92.2812 114.703C92.2812 113.75 92.0781 112.997 91.6719 112.445C91.2656 111.893 90.7083 111.617 90 111.617C89.125 111.617 88.4688 112.005 88.0312 112.781V116.82C88.4635 117.591 89.125 117.977 90.0156 117.977C90.7083 117.977 91.2578 117.703 91.6641 117.156C92.0755 116.604 92.2812 115.786 92.2812 114.703ZM95.1875 114.695C95.1875 113.867 95.349 113.122 95.6719 112.461C96 111.799 96.4531 111.289 97.0312 110.93C97.6146 110.57 98.2786 110.391 99.0234 110.391C100.174 110.391 101.104 110.789 101.812 111.586C102.526 112.383 102.883 113.443 102.883 114.766V114.867C102.883 115.69 102.724 116.43 102.406 117.086C102.094 117.737 101.643 118.245 101.055 118.609C100.471 118.974 99.7995 119.156 99.0391 119.156C97.8932 119.156 96.9635 118.758 96.25 117.961C95.5417 117.164 95.1875 116.109 95.1875 114.797V114.695ZM96.6406 114.867C96.6406 115.805 96.8568 116.557 97.2891 117.125C97.7266 117.693 98.3099 117.977 99.0391 117.977C99.7734 117.977 100.357 117.69 100.789 117.117C101.221 116.539 101.438 115.732 101.438 114.695C101.438 113.768 101.216 113.018 100.773 112.445C100.336 111.867 99.7526 111.578 99.0234 111.578C98.3099 111.578 97.7344 111.862 97.2969 112.43C96.8594 112.997 96.6406 113.81 96.6406 114.867ZM106.266 119H104.82V110.547H106.266V119ZM104.703 108.305C104.703 108.07 104.773 107.872 104.914 107.711C105.06 107.549 105.273 107.469 105.555 107.469C105.836 107.469 106.049 107.549 106.195 107.711C106.341 107.872 106.414 108.07 106.414 108.305C106.414 108.539 106.341 108.734 106.195 108.891C106.049 109.047 105.836 109.125 105.555 109.125C105.273 109.125 105.06 109.047 104.914 108.891C104.773 108.734 104.703 108.539 104.703 108.305ZM109.953 110.547L110 111.609C110.646 110.797 111.49 110.391 112.531 110.391C114.318 110.391 115.219 111.398 115.234 113.414V119H113.789V113.406C113.784 112.797 113.643 112.346 113.367 112.055C113.096 111.763 112.672 111.617 112.094 111.617C111.625 111.617 111.214 111.742 110.859 111.992C110.505 112.242 110.229 112.57 110.031 112.977V119H108.586V110.547H109.953ZM119.375 108.5V110.547H120.953V111.664H119.375V116.906C119.375 117.245 119.445 117.5 119.586 117.672C119.727 117.839 119.966 117.922 120.305 117.922C120.471 117.922 120.701 117.891 120.992 117.828V119C120.612 119.104 120.242 119.156 119.883 119.156C119.237 119.156 118.75 118.961 118.422 118.57C118.094 118.18 117.93 117.625 117.93 116.906V111.664H116.391V110.547H117.93V108.5H119.375ZM127.57 116.758C127.57 116.367 127.422 116.065 127.125 115.852C126.833 115.633 126.32 115.445 125.586 115.289C124.857 115.133 124.276 114.945 123.844 114.727C123.417 114.508 123.099 114.247 122.891 113.945C122.688 113.643 122.586 113.284 122.586 112.867C122.586 112.174 122.878 111.589 123.461 111.109C124.049 110.63 124.799 110.391 125.711 110.391C126.669 110.391 127.445 110.638 128.039 111.133C128.638 111.628 128.938 112.26 128.938 113.031H127.484C127.484 112.635 127.315 112.294 126.977 112.008C126.643 111.721 126.221 111.578 125.711 111.578C125.185 111.578 124.773 111.693 124.477 111.922C124.18 112.151 124.031 112.451 124.031 112.82C124.031 113.169 124.169 113.432 124.445 113.609C124.721 113.786 125.219 113.956 125.938 114.117C126.661 114.279 127.247 114.471 127.695 114.695C128.143 114.919 128.474 115.19 128.688 115.508C128.906 115.82 129.016 116.203 129.016 116.656C129.016 117.411 128.714 118.018 128.109 118.477C127.505 118.93 126.721 119.156 125.758 119.156C125.081 119.156 124.482 119.036 123.961 118.797C123.44 118.557 123.031 118.224 122.734 117.797C122.443 117.365 122.297 116.898 122.297 116.398H123.742C123.768 116.883 123.961 117.268 124.32 117.555C124.685 117.836 125.164 117.977 125.758 117.977C126.305 117.977 126.742 117.867 127.07 117.648C127.404 117.424 127.57 117.128 127.57 116.758Z" fill="#DE1306"/>
<path d="M496.68 113.93C495.393 113.56 494.456 113.107 493.867 112.57C493.284 112.029 492.992 111.362 492.992 110.57C492.992 109.674 493.349 108.935 494.062 108.352C494.781 107.763 495.714 107.469 496.859 107.469C497.641 107.469 498.336 107.62 498.945 107.922C499.56 108.224 500.034 108.641 500.367 109.172C500.706 109.703 500.875 110.284 500.875 110.914H499.367C499.367 110.227 499.148 109.688 498.711 109.297C498.273 108.901 497.656 108.703 496.859 108.703C496.12 108.703 495.542 108.867 495.125 109.195C494.714 109.518 494.508 109.969 494.508 110.547C494.508 111.01 494.703 111.404 495.094 111.727C495.49 112.044 496.159 112.336 497.102 112.602C498.049 112.867 498.789 113.161 499.32 113.484C499.857 113.802 500.253 114.174 500.508 114.602C500.768 115.029 500.898 115.531 500.898 116.109C500.898 117.031 500.539 117.771 499.82 118.328C499.102 118.88 498.141 119.156 496.938 119.156C496.156 119.156 495.427 119.008 494.75 118.711C494.073 118.409 493.549 117.997 493.18 117.477C492.815 116.956 492.633 116.365 492.633 115.703H494.141C494.141 116.391 494.393 116.935 494.898 117.336C495.409 117.732 496.089 117.93 496.938 117.93C497.729 117.93 498.336 117.768 498.758 117.445C499.18 117.122 499.391 116.682 499.391 116.125C499.391 115.568 499.195 115.138 498.805 114.836C498.414 114.529 497.706 114.227 496.68 113.93ZM504.562 108.5V110.547H506.141V111.664H504.562V116.906C504.562 117.245 504.633 117.5 504.773 117.672C504.914 117.839 505.154 117.922 505.492 117.922C505.659 117.922 505.888 117.891 506.18 117.828V119C505.799 119.104 505.43 119.156 505.07 119.156C504.424 119.156 503.938 118.961 503.609 118.57C503.281 118.18 503.117 117.625 503.117 116.906V111.664H501.578V110.547H503.117V108.5H504.562ZM507.297 114.695C507.297 113.867 507.458 113.122 507.781 112.461C508.109 111.799 508.562 111.289 509.141 110.93C509.724 110.57 510.388 110.391 511.133 110.391C512.284 110.391 513.214 110.789 513.922 111.586C514.635 112.383 514.992 113.443 514.992 114.766V114.867C514.992 115.69 514.833 116.43 514.516 117.086C514.203 117.737 513.753 118.245 513.164 118.609C512.581 118.974 511.909 119.156 511.148 119.156C510.003 119.156 509.073 118.758 508.359 117.961C507.651 117.164 507.297 116.109 507.297 114.797V114.695ZM508.75 114.867C508.75 115.805 508.966 116.557 509.398 117.125C509.836 117.693 510.419 117.977 511.148 117.977C511.883 117.977 512.466 117.69 512.898 117.117C513.331 116.539 513.547 115.732 513.547 114.695C513.547 113.768 513.326 113.018 512.883 112.445C512.445 111.867 511.862 111.578 511.133 111.578C510.419 111.578 509.844 111.862 509.406 112.43C508.969 112.997 508.75 113.81 508.75 114.867ZM520.891 111.844C520.672 111.807 520.435 111.789 520.18 111.789C519.232 111.789 518.589 112.193 518.25 113V119H516.805V110.547H518.211L518.234 111.523C518.708 110.768 519.38 110.391 520.25 110.391C520.531 110.391 520.745 110.427 520.891 110.5V111.844ZM527.133 119C527.049 118.833 526.982 118.536 526.93 118.109C526.258 118.807 525.456 119.156 524.523 119.156C523.69 119.156 523.005 118.922 522.469 118.453C521.938 117.979 521.672 117.38 521.672 116.656C521.672 115.776 522.005 115.094 522.672 114.609C523.344 114.12 524.286 113.875 525.5 113.875H526.906V113.211C526.906 112.706 526.755 112.305 526.453 112.008C526.151 111.706 525.706 111.555 525.117 111.555C524.602 111.555 524.169 111.685 523.82 111.945C523.471 112.206 523.297 112.521 523.297 112.891H521.844C521.844 112.469 521.992 112.062 522.289 111.672C522.591 111.276 522.997 110.964 523.508 110.734C524.023 110.505 524.589 110.391 525.203 110.391C526.177 110.391 526.94 110.635 527.492 111.125C528.044 111.609 528.331 112.279 528.352 113.133V117.023C528.352 117.799 528.451 118.417 528.648 118.875V119H527.133ZM524.734 117.898C525.188 117.898 525.617 117.781 526.023 117.547C526.43 117.312 526.724 117.008 526.906 116.633V114.898H525.773C524.003 114.898 523.117 115.417 523.117 116.453C523.117 116.906 523.268 117.26 523.57 117.516C523.872 117.771 524.26 117.898 524.734 117.898ZM530.273 114.703C530.273 113.385 530.578 112.339 531.188 111.562C531.797 110.781 532.604 110.391 533.609 110.391C534.641 110.391 535.445 110.755 536.023 111.484L536.094 110.547H537.414V118.797C537.414 119.891 537.089 120.753 536.438 121.383C535.792 122.013 534.922 122.328 533.828 122.328C533.219 122.328 532.622 122.198 532.039 121.938C531.456 121.677 531.01 121.32 530.703 120.867L531.453 120C532.073 120.766 532.831 121.148 533.727 121.148C534.43 121.148 534.977 120.951 535.367 120.555C535.763 120.159 535.961 119.602 535.961 118.883V118.156C535.383 118.823 534.594 119.156 533.594 119.156C532.604 119.156 531.802 118.758 531.188 117.961C530.578 117.164 530.273 116.078 530.273 114.703ZM531.727 114.867C531.727 115.82 531.922 116.57 532.312 117.117C532.703 117.659 533.25 117.93 533.953 117.93C534.865 117.93 535.534 117.516 535.961 116.688V112.828C535.518 112.021 534.854 111.617 533.969 111.617C533.266 111.617 532.716 111.891 532.32 112.438C531.924 112.984 531.727 113.794 531.727 114.867ZM543.109 119.156C541.964 119.156 541.031 118.781 540.312 118.031C539.594 117.276 539.234 116.268 539.234 115.008V114.742C539.234 113.904 539.393 113.156 539.711 112.5C540.034 111.839 540.482 111.323 541.055 110.953C541.633 110.578 542.258 110.391 542.93 110.391C544.029 110.391 544.883 110.753 545.492 111.477C546.102 112.201 546.406 113.237 546.406 114.586V115.188H540.68C540.701 116.021 540.943 116.695 541.406 117.211C541.875 117.721 542.469 117.977 543.188 117.977C543.698 117.977 544.13 117.872 544.484 117.664C544.839 117.456 545.148 117.18 545.414 116.836L546.297 117.523C545.589 118.612 544.526 119.156 543.109 119.156ZM542.93 111.578C542.346 111.578 541.857 111.792 541.461 112.219C541.065 112.641 540.82 113.234 540.727 114H544.961V113.891C544.919 113.156 544.721 112.589 544.367 112.188C544.013 111.781 543.534 111.578 542.93 111.578Z" fill="#2097F6"/>
<path d="M412.43 132.625L416.148 141.906L419.867 132.625H421.812V144H420.312V139.57L420.453 134.789L416.719 144H415.57L411.844 134.812L411.992 139.57V144H410.492V132.625H412.43ZM429.453 144C429.37 143.833 429.302 143.536 429.25 143.109C428.578 143.807 427.776 144.156 426.844 144.156C426.01 144.156 425.326 143.922 424.789 143.453C424.258 142.979 423.992 142.38 423.992 141.656C423.992 140.776 424.326 140.094 424.992 139.609C425.664 139.12 426.607 138.875 427.82 138.875H429.227V138.211C429.227 137.706 429.076 137.305 428.773 137.008C428.471 136.706 428.026 136.555 427.438 136.555C426.922 136.555 426.49 136.685 426.141 136.945C425.792 137.206 425.617 137.521 425.617 137.891H424.164C424.164 137.469 424.312 137.062 424.609 136.672C424.911 136.276 425.318 135.964 425.828 135.734C426.344 135.505 426.909 135.391 427.523 135.391C428.497 135.391 429.26 135.635 429.812 136.125C430.365 136.609 430.651 137.279 430.672 138.133V142.023C430.672 142.799 430.771 143.417 430.969 143.875V144H429.453ZM427.055 142.898C427.508 142.898 427.938 142.781 428.344 142.547C428.75 142.312 429.044 142.008 429.227 141.633V139.898H428.094C426.323 139.898 425.438 140.417 425.438 141.453C425.438 141.906 425.589 142.26 425.891 142.516C426.193 142.771 426.581 142.898 427.055 142.898ZM440.078 139.867C440.078 141.154 439.784 142.19 439.195 142.977C438.607 143.763 437.81 144.156 436.805 144.156C435.779 144.156 434.971 143.831 434.383 143.18V147.25H432.938V135.547H434.258L434.328 136.484C434.917 135.755 435.734 135.391 436.781 135.391C437.797 135.391 438.599 135.773 439.188 136.539C439.781 137.305 440.078 138.37 440.078 139.734V139.867ZM438.633 139.703C438.633 138.75 438.43 137.997 438.023 137.445C437.617 136.893 437.06 136.617 436.352 136.617C435.477 136.617 434.82 137.005 434.383 137.781V141.82C434.815 142.591 435.477 142.977 436.367 142.977C437.06 142.977 437.609 142.703 438.016 142.156C438.427 141.604 438.633 140.786 438.633 139.703Z" fill="#2097F6"/>
<path d="M251.156 115.391C251.016 116.594 250.57 117.523 249.82 118.18C249.076 118.831 248.083 119.156 246.844 119.156C245.5 119.156 244.422 118.674 243.609 117.711C242.802 116.747 242.398 115.458 242.398 113.844V112.75C242.398 111.693 242.586 110.763 242.961 109.961C243.341 109.159 243.878 108.544 244.57 108.117C245.263 107.685 246.065 107.469 246.977 107.469C248.185 107.469 249.154 107.807 249.883 108.484C250.612 109.156 251.036 110.089 251.156 111.281H249.648C249.518 110.375 249.234 109.719 248.797 109.312C248.365 108.906 247.758 108.703 246.977 108.703C246.018 108.703 245.266 109.057 244.719 109.766C244.177 110.474 243.906 111.482 243.906 112.789V113.891C243.906 115.125 244.164 116.107 244.68 116.836C245.195 117.565 245.917 117.93 246.844 117.93C247.677 117.93 248.315 117.742 248.758 117.367C249.206 116.987 249.503 116.328 249.648 115.391H251.156ZM252.602 114.695C252.602 113.867 252.763 113.122 253.086 112.461C253.414 111.799 253.867 111.289 254.445 110.93C255.029 110.57 255.693 110.391 256.438 110.391C257.589 110.391 258.518 110.789 259.227 111.586C259.94 112.383 260.297 113.443 260.297 114.766V114.867C260.297 115.69 260.138 116.43 259.82 117.086C259.508 117.737 259.057 118.245 258.469 118.609C257.885 118.974 257.214 119.156 256.453 119.156C255.307 119.156 254.378 118.758 253.664 117.961C252.956 117.164 252.602 116.109 252.602 114.797V114.695ZM254.055 114.867C254.055 115.805 254.271 116.557 254.703 117.125C255.141 117.693 255.724 117.977 256.453 117.977C257.188 117.977 257.771 117.69 258.203 117.117C258.635 116.539 258.852 115.732 258.852 114.695C258.852 113.768 258.63 113.018 258.188 112.445C257.75 111.867 257.167 111.578 256.438 111.578C255.724 111.578 255.148 111.862 254.711 112.43C254.273 112.997 254.055 113.81 254.055 114.867ZM261.758 114.703C261.758 113.406 262.065 112.365 262.68 111.578C263.294 110.786 264.099 110.391 265.094 110.391C266.083 110.391 266.867 110.729 267.445 111.406V107H268.891V119H267.562L267.492 118.094C266.914 118.802 266.109 119.156 265.078 119.156C264.099 119.156 263.299 118.755 262.68 117.953C262.065 117.151 261.758 116.104 261.758 114.812V114.703ZM263.203 114.867C263.203 115.826 263.401 116.576 263.797 117.117C264.193 117.659 264.74 117.93 265.438 117.93C266.354 117.93 267.023 117.518 267.445 116.695V112.812C267.013 112.016 266.349 111.617 265.453 111.617C264.745 111.617 264.193 111.891 263.797 112.438C263.401 112.984 263.203 113.794 263.203 114.867ZM274.648 119.156C273.503 119.156 272.57 118.781 271.852 118.031C271.133 117.276 270.773 116.268 270.773 115.008V114.742C270.773 113.904 270.932 113.156 271.25 112.5C271.573 111.839 272.021 111.323 272.594 110.953C273.172 110.578 273.797 110.391 274.469 110.391C275.568 110.391 276.422 110.753 277.031 111.477C277.641 112.201 277.945 113.237 277.945 114.586V115.188H272.219C272.24 116.021 272.482 116.695 272.945 117.211C273.414 117.721 274.008 117.977 274.727 117.977C275.237 117.977 275.669 117.872 276.023 117.664C276.378 117.456 276.688 117.18 276.953 116.836L277.836 117.523C277.128 118.612 276.065 119.156 274.648 119.156ZM274.469 111.578C273.885 111.578 273.396 111.792 273 112.219C272.604 112.641 272.359 113.234 272.266 114H276.5V113.891C276.458 113.156 276.26 112.589 275.906 112.188C275.552 111.781 275.073 111.578 274.469 111.578Z" fill="#DE1306"/>
<g filter="url(#filter4_d)">
<rect x="25" y="147" width="130" height="31" rx="10" fill="white"/>
<rect x="25.5" y="147.5" width="129" height="30" rx="9.5" stroke="#E12519"/>
</g>
<path d="M55.0938 161.742H50.1641V165.773H55.8906V167H48.6641V155.625H55.8125V156.859H50.1641V160.516H55.0938V161.742ZM58.8984 158.547L58.9453 159.609C59.5911 158.797 60.4349 158.391 61.4766 158.391C63.263 158.391 64.1641 159.398 64.1797 161.414V167H62.7344V161.406C62.7292 160.797 62.5885 160.346 62.3125 160.055C62.0417 159.763 61.6172 159.617 61.0391 159.617C60.5703 159.617 60.1589 159.742 59.8047 159.992C59.4505 160.242 59.1745 160.57 58.9766 160.977V167H57.5312V158.547H58.8984ZM68.3203 156.5V158.547H69.8984V159.664H68.3203V164.906C68.3203 165.245 68.3906 165.5 68.5312 165.672C68.6719 165.839 68.9115 165.922 69.25 165.922C69.4167 165.922 69.6458 165.891 69.9375 165.828V167C69.5573 167.104 69.1875 167.156 68.8281 167.156C68.1823 167.156 67.6953 166.961 67.3672 166.57C67.0391 166.18 66.875 165.625 66.875 164.906V159.664H65.3359V158.547H66.875V156.5H68.3203ZM75.6797 159.844C75.4609 159.807 75.224 159.789 74.9688 159.789C74.0208 159.789 73.3776 160.193 73.0391 161V167H71.5938V158.547H73L73.0234 159.523C73.4974 158.768 74.1693 158.391 75.0391 158.391C75.3203 158.391 75.5339 158.427 75.6797 158.5V159.844ZM79.9219 164.883L81.8906 158.547H83.4375L80.0391 168.305C79.513 169.711 78.6771 170.414 77.5312 170.414L77.2578 170.391L76.7188 170.289V169.117L77.1094 169.148C77.599 169.148 77.9792 169.049 78.25 168.852C78.526 168.654 78.7526 168.292 78.9297 167.766L79.25 166.906L76.2344 158.547H77.8125L79.9219 164.883ZM91.875 162.867C91.875 164.154 91.5807 165.19 90.9922 165.977C90.4036 166.763 89.6068 167.156 88.6016 167.156C87.5755 167.156 86.7682 166.831 86.1797 166.18V170.25H84.7344V158.547H86.0547L86.125 159.484C86.7135 158.755 87.5312 158.391 88.5781 158.391C89.5938 158.391 90.3958 158.773 90.9844 159.539C91.5781 160.305 91.875 161.37 91.875 162.734V162.867ZM90.4297 162.703C90.4297 161.75 90.2266 160.997 89.8203 160.445C89.4141 159.893 88.8568 159.617 88.1484 159.617C87.2734 159.617 86.6172 160.005 86.1797 160.781V164.82C86.612 165.591 87.2734 165.977 88.1641 165.977C88.8568 165.977 89.4062 165.703 89.8125 165.156C90.224 164.604 90.4297 163.786 90.4297 162.703ZM93.3359 162.695C93.3359 161.867 93.4974 161.122 93.8203 160.461C94.1484 159.799 94.6016 159.289 95.1797 158.93C95.763 158.57 96.4271 158.391 97.1719 158.391C98.3229 158.391 99.2526 158.789 99.9609 159.586C100.674 160.383 101.031 161.443 101.031 162.766V162.867C101.031 163.69 100.872 164.43 100.555 165.086C100.242 165.737 99.7917 166.245 99.2031 166.609C98.6198 166.974 97.9479 167.156 97.1875 167.156C96.0417 167.156 95.112 166.758 94.3984 165.961C93.6901 165.164 93.3359 164.109 93.3359 162.797V162.695ZM94.7891 162.867C94.7891 163.805 95.0052 164.557 95.4375 165.125C95.875 165.693 96.4583 165.977 97.1875 165.977C97.9219 165.977 98.5052 165.69 98.9375 165.117C99.3698 164.539 99.5859 163.732 99.5859 162.695C99.5859 161.768 99.3646 161.018 98.9219 160.445C98.4844 159.867 97.901 159.578 97.1719 159.578C96.4583 159.578 95.8828 159.862 95.4453 160.43C95.0078 160.997 94.7891 161.81 94.7891 162.867ZM104.414 167H102.969V158.547H104.414V167ZM102.852 156.305C102.852 156.07 102.922 155.872 103.062 155.711C103.208 155.549 103.422 155.469 103.703 155.469C103.984 155.469 104.198 155.549 104.344 155.711C104.49 155.872 104.562 156.07 104.562 156.305C104.562 156.539 104.49 156.734 104.344 156.891C104.198 157.047 103.984 157.125 103.703 157.125C103.422 157.125 103.208 157.047 103.062 156.891C102.922 156.734 102.852 156.539 102.852 156.305ZM108.102 158.547L108.148 159.609C108.794 158.797 109.638 158.391 110.68 158.391C112.466 158.391 113.367 159.398 113.383 161.414V167H111.938V161.406C111.932 160.797 111.792 160.346 111.516 160.055C111.245 159.763 110.82 159.617 110.242 159.617C109.773 159.617 109.362 159.742 109.008 159.992C108.654 160.242 108.378 160.57 108.18 160.977V167H106.734V158.547H108.102ZM117.523 156.5V158.547H119.102V159.664H117.523V164.906C117.523 165.245 117.594 165.5 117.734 165.672C117.875 165.839 118.115 165.922 118.453 165.922C118.62 165.922 118.849 165.891 119.141 165.828V167C118.76 167.104 118.391 167.156 118.031 167.156C117.385 167.156 116.898 166.961 116.57 166.57C116.242 166.18 116.078 165.625 116.078 164.906V159.664H114.539V158.547H116.078V156.5H117.523ZM129.367 167H127.914V157.367L125 158.438V157.125L129.141 155.57H129.367V167Z" fill="#DE1306"/>
<g filter="url(#filter5_d)">
<rect x="190" y="147" width="140" height="31" rx="10" fill="white"/>
<rect x="190.5" y="147.5" width="139" height="30" rx="9.5" stroke="#E12519"/>
</g>
<path d="M231.156 165.008L234.406 155.625H236.047L231.828 167H230.5L226.289 155.625H227.922L231.156 165.008ZM242.211 167C242.128 166.833 242.06 166.536 242.008 166.109C241.336 166.807 240.534 167.156 239.602 167.156C238.768 167.156 238.083 166.922 237.547 166.453C237.016 165.979 236.75 165.38 236.75 164.656C236.75 163.776 237.083 163.094 237.75 162.609C238.422 162.12 239.365 161.875 240.578 161.875H241.984V161.211C241.984 160.706 241.833 160.305 241.531 160.008C241.229 159.706 240.784 159.555 240.195 159.555C239.68 159.555 239.247 159.685 238.898 159.945C238.549 160.206 238.375 160.521 238.375 160.891H236.922C236.922 160.469 237.07 160.062 237.367 159.672C237.669 159.276 238.076 158.964 238.586 158.734C239.102 158.505 239.667 158.391 240.281 158.391C241.255 158.391 242.018 158.635 242.57 159.125C243.122 159.609 243.409 160.279 243.43 161.133V165.023C243.43 165.799 243.529 166.417 243.727 166.875V167H242.211ZM239.812 165.898C240.266 165.898 240.695 165.781 241.102 165.547C241.508 165.312 241.802 165.008 241.984 164.633V162.898H240.852C239.081 162.898 238.195 163.417 238.195 164.453C238.195 164.906 238.346 165.26 238.648 165.516C238.951 165.771 239.339 165.898 239.812 165.898ZM249.781 159.844C249.562 159.807 249.326 159.789 249.07 159.789C248.122 159.789 247.479 160.193 247.141 161V167H245.695V158.547H247.102L247.125 159.523C247.599 158.768 248.271 158.391 249.141 158.391C249.422 158.391 249.635 158.427 249.781 158.5V159.844ZM252.688 167H251.242V158.547H252.688V167ZM251.125 156.305C251.125 156.07 251.195 155.872 251.336 155.711C251.482 155.549 251.695 155.469 251.977 155.469C252.258 155.469 252.471 155.549 252.617 155.711C252.763 155.872 252.836 156.07 252.836 156.305C252.836 156.539 252.763 156.734 252.617 156.891C252.471 157.047 252.258 157.125 251.977 157.125C251.695 157.125 251.482 157.047 251.336 156.891C251.195 156.734 251.125 156.539 251.125 156.305ZM260.227 167C260.143 166.833 260.076 166.536 260.023 166.109C259.352 166.807 258.549 167.156 257.617 167.156C256.784 167.156 256.099 166.922 255.562 166.453C255.031 165.979 254.766 165.38 254.766 164.656C254.766 163.776 255.099 163.094 255.766 162.609C256.438 162.12 257.38 161.875 258.594 161.875H260V161.211C260 160.706 259.849 160.305 259.547 160.008C259.245 159.706 258.799 159.555 258.211 159.555C257.695 159.555 257.263 159.685 256.914 159.945C256.565 160.206 256.391 160.521 256.391 160.891H254.938C254.938 160.469 255.086 160.062 255.383 159.672C255.685 159.276 256.091 158.964 256.602 158.734C257.117 158.505 257.682 158.391 258.297 158.391C259.271 158.391 260.034 158.635 260.586 159.125C261.138 159.609 261.424 160.279 261.445 161.133V165.023C261.445 165.799 261.544 166.417 261.742 166.875V167H260.227ZM257.828 165.898C258.281 165.898 258.711 165.781 259.117 165.547C259.523 165.312 259.818 165.008 260 164.633V162.898H258.867C257.096 162.898 256.211 163.417 256.211 164.453C256.211 164.906 256.362 165.26 256.664 165.516C256.966 165.771 257.354 165.898 257.828 165.898ZM270.867 162.867C270.867 164.159 270.57 165.198 269.977 165.984C269.383 166.766 268.586 167.156 267.586 167.156C266.518 167.156 265.693 166.779 265.109 166.023L265.039 167H263.711V155H265.156V159.477C265.74 158.753 266.544 158.391 267.57 158.391C268.596 158.391 269.401 158.779 269.984 159.555C270.573 160.331 270.867 161.393 270.867 162.742V162.867ZM269.422 162.703C269.422 161.719 269.232 160.958 268.852 160.422C268.471 159.885 267.924 159.617 267.211 159.617C266.258 159.617 265.573 160.06 265.156 160.945V164.602C265.599 165.487 266.289 165.93 267.227 165.93C267.919 165.93 268.458 165.661 268.844 165.125C269.229 164.589 269.422 163.781 269.422 162.703ZM274.266 167H272.82V155H274.266V167ZM280.094 167.156C278.948 167.156 278.016 166.781 277.297 166.031C276.578 165.276 276.219 164.268 276.219 163.008V162.742C276.219 161.904 276.378 161.156 276.695 160.5C277.018 159.839 277.466 159.323 278.039 158.953C278.617 158.578 279.242 158.391 279.914 158.391C281.013 158.391 281.867 158.753 282.477 159.477C283.086 160.201 283.391 161.237 283.391 162.586V163.188H277.664C277.685 164.021 277.927 164.695 278.391 165.211C278.859 165.721 279.453 165.977 280.172 165.977C280.682 165.977 281.115 165.872 281.469 165.664C281.823 165.456 282.133 165.18 282.398 164.836L283.281 165.523C282.573 166.612 281.51 167.156 280.094 167.156ZM279.914 159.578C279.331 159.578 278.841 159.792 278.445 160.219C278.049 160.641 277.805 161.234 277.711 162H281.945V161.891C281.904 161.156 281.706 160.589 281.352 160.188C280.997 159.781 280.518 159.578 279.914 159.578ZM293.641 167H292.188V157.367L289.273 158.438V157.125L293.414 155.57H293.641V167Z" fill="#DE1306"/>
<g filter="url(#filter6_d)">
<rect x="190" y="220" width="140" height="31" rx="10" fill="white"/>
<rect x="190.5" y="220.5" width="139" height="30" rx="9.5" stroke="#E12519"/>
</g>
<path d="M231.727 234.977H226.953V240H225.453V228.625H232.5V229.859H226.953V233.75H231.727V234.977ZM239.117 239.164C238.555 239.826 237.729 240.156 236.641 240.156C235.74 240.156 235.052 239.896 234.578 239.375C234.109 238.849 233.872 238.073 233.867 237.047V231.547H235.312V237.008C235.312 238.289 235.833 238.93 236.875 238.93C237.979 238.93 238.714 238.518 239.078 237.695V231.547H240.523V240H239.148L239.117 239.164ZM244.094 231.547L244.141 232.609C244.786 231.797 245.63 231.391 246.672 231.391C248.458 231.391 249.359 232.398 249.375 234.414V240H247.93V234.406C247.924 233.797 247.784 233.346 247.508 233.055C247.237 232.763 246.812 232.617 246.234 232.617C245.766 232.617 245.354 232.742 245 232.992C244.646 233.242 244.37 233.57 244.172 233.977V240H242.727V231.547H244.094ZM254.945 238.977C255.461 238.977 255.911 238.82 256.297 238.508C256.682 238.195 256.896 237.805 256.938 237.336H258.305C258.279 237.82 258.112 238.281 257.805 238.719C257.497 239.156 257.086 239.505 256.57 239.766C256.06 240.026 255.518 240.156 254.945 240.156C253.794 240.156 252.878 239.773 252.195 239.008C251.518 238.237 251.18 237.185 251.18 235.852V235.609C251.18 234.786 251.331 234.055 251.633 233.414C251.935 232.773 252.367 232.276 252.93 231.922C253.497 231.568 254.167 231.391 254.938 231.391C255.885 231.391 256.672 231.674 257.297 232.242C257.927 232.81 258.263 233.547 258.305 234.453H256.938C256.896 233.906 256.688 233.458 256.312 233.109C255.943 232.755 255.484 232.578 254.938 232.578C254.203 232.578 253.633 232.844 253.227 233.375C252.826 233.901 252.625 234.664 252.625 235.664V235.938C252.625 236.911 252.826 237.661 253.227 238.188C253.628 238.714 254.201 238.977 254.945 238.977ZM261.891 229.5V231.547H263.469V232.664H261.891V237.906C261.891 238.245 261.961 238.5 262.102 238.672C262.242 238.839 262.482 238.922 262.82 238.922C262.987 238.922 263.216 238.891 263.508 238.828V240C263.128 240.104 262.758 240.156 262.398 240.156C261.753 240.156 261.266 239.961 260.938 239.57C260.609 239.18 260.445 238.625 260.445 237.906V232.664H258.906V231.547H260.445V229.5H261.891ZM266.734 240H265.289V231.547H266.734V240ZM265.172 229.305C265.172 229.07 265.242 228.872 265.383 228.711C265.529 228.549 265.742 228.469 266.023 228.469C266.305 228.469 266.518 228.549 266.664 228.711C266.81 228.872 266.883 229.07 266.883 229.305C266.883 229.539 266.81 229.734 266.664 229.891C266.518 230.047 266.305 230.125 266.023 230.125C265.742 230.125 265.529 230.047 265.383 229.891C265.242 229.734 265.172 229.539 265.172 229.305ZM268.672 235.695C268.672 234.867 268.833 234.122 269.156 233.461C269.484 232.799 269.938 232.289 270.516 231.93C271.099 231.57 271.763 231.391 272.508 231.391C273.659 231.391 274.589 231.789 275.297 232.586C276.01 233.383 276.367 234.443 276.367 235.766V235.867C276.367 236.69 276.208 237.43 275.891 238.086C275.578 238.737 275.128 239.245 274.539 239.609C273.956 239.974 273.284 240.156 272.523 240.156C271.378 240.156 270.448 239.758 269.734 238.961C269.026 238.164 268.672 237.109 268.672 235.797V235.695ZM270.125 235.867C270.125 236.805 270.341 237.557 270.773 238.125C271.211 238.693 271.794 238.977 272.523 238.977C273.258 238.977 273.841 238.69 274.273 238.117C274.706 237.539 274.922 236.732 274.922 235.695C274.922 234.768 274.701 234.018 274.258 233.445C273.82 232.867 273.237 232.578 272.508 232.578C271.794 232.578 271.219 232.862 270.781 233.43C270.344 233.997 270.125 234.81 270.125 235.867ZM279.547 231.547L279.594 232.609C280.24 231.797 281.083 231.391 282.125 231.391C283.911 231.391 284.812 232.398 284.828 234.414V240H283.383V234.406C283.378 233.797 283.237 233.346 282.961 233.055C282.69 232.763 282.266 232.617 281.688 232.617C281.219 232.617 280.807 232.742 280.453 232.992C280.099 233.242 279.823 233.57 279.625 233.977V240H278.18V231.547H279.547ZM295.578 240H294.125V230.367L291.211 231.438V230.125L295.352 228.57H295.578V240Z" fill="#DE1306"/>
<g filter="url(#filter7_d)">
<rect x="190" y="183" width="140" height="31" rx="10" fill="white"/>
<rect x="190.5" y="183.5" width="139" height="30" rx="9.5" stroke="#E12519"/>
</g>
<path d="M201.461 202.008L204.711 192.625H206.352L202.133 204H200.805L196.594 192.625H198.227L201.461 202.008ZM212.516 204C212.432 203.833 212.365 203.536 212.312 203.109C211.641 203.807 210.839 204.156 209.906 204.156C209.073 204.156 208.388 203.922 207.852 203.453C207.32 202.979 207.055 202.38 207.055 201.656C207.055 200.776 207.388 200.094 208.055 199.609C208.727 199.12 209.669 198.875 210.883 198.875H212.289V198.211C212.289 197.706 212.138 197.305 211.836 197.008C211.534 196.706 211.089 196.555 210.5 196.555C209.984 196.555 209.552 196.685 209.203 196.945C208.854 197.206 208.68 197.521 208.68 197.891H207.227C207.227 197.469 207.375 197.062 207.672 196.672C207.974 196.276 208.38 195.964 208.891 195.734C209.406 195.505 209.971 195.391 210.586 195.391C211.56 195.391 212.323 195.635 212.875 196.125C213.427 196.609 213.714 197.279 213.734 198.133V202.023C213.734 202.799 213.833 203.417 214.031 203.875V204H212.516ZM210.117 202.898C210.57 202.898 211 202.781 211.406 202.547C211.812 202.312 212.107 202.008 212.289 201.633V199.898H211.156C209.385 199.898 208.5 200.417 208.5 201.453C208.5 201.906 208.651 202.26 208.953 202.516C209.255 202.771 209.643 202.898 210.117 202.898ZM220.086 196.844C219.867 196.807 219.63 196.789 219.375 196.789C218.427 196.789 217.784 197.193 217.445 198V204H216V195.547H217.406L217.43 196.523C217.904 195.768 218.576 195.391 219.445 195.391C219.727 195.391 219.94 195.427 220.086 195.5V196.844ZM222.992 204H221.547V195.547H222.992V204ZM221.43 193.305C221.43 193.07 221.5 192.872 221.641 192.711C221.786 192.549 222 192.469 222.281 192.469C222.562 192.469 222.776 192.549 222.922 192.711C223.068 192.872 223.141 193.07 223.141 193.305C223.141 193.539 223.068 193.734 222.922 193.891C222.776 194.047 222.562 194.125 222.281 194.125C222 194.125 221.786 194.047 221.641 193.891C221.5 193.734 221.43 193.539 221.43 193.305ZM230.531 204C230.448 203.833 230.38 203.536 230.328 203.109C229.656 203.807 228.854 204.156 227.922 204.156C227.089 204.156 226.404 203.922 225.867 203.453C225.336 202.979 225.07 202.38 225.07 201.656C225.07 200.776 225.404 200.094 226.07 199.609C226.742 199.12 227.685 198.875 228.898 198.875H230.305V198.211C230.305 197.706 230.154 197.305 229.852 197.008C229.549 196.706 229.104 196.555 228.516 196.555C228 196.555 227.568 196.685 227.219 196.945C226.87 197.206 226.695 197.521 226.695 197.891H225.242C225.242 197.469 225.391 197.062 225.688 196.672C225.99 196.276 226.396 195.964 226.906 195.734C227.422 195.505 227.987 195.391 228.602 195.391C229.576 195.391 230.339 195.635 230.891 196.125C231.443 196.609 231.729 197.279 231.75 198.133V202.023C231.75 202.799 231.849 203.417 232.047 203.875V204H230.531ZM228.133 202.898C228.586 202.898 229.016 202.781 229.422 202.547C229.828 202.312 230.122 202.008 230.305 201.633V199.898H229.172C227.401 199.898 226.516 200.417 226.516 201.453C226.516 201.906 226.667 202.26 226.969 202.516C227.271 202.771 227.659 202.898 228.133 202.898ZM241.172 199.867C241.172 201.159 240.875 202.198 240.281 202.984C239.688 203.766 238.891 204.156 237.891 204.156C236.823 204.156 235.997 203.779 235.414 203.023L235.344 204H234.016V192H235.461V196.477C236.044 195.753 236.849 195.391 237.875 195.391C238.901 195.391 239.706 195.779 240.289 196.555C240.878 197.331 241.172 198.393 241.172 199.742V199.867ZM239.727 199.703C239.727 198.719 239.536 197.958 239.156 197.422C238.776 196.885 238.229 196.617 237.516 196.617C236.562 196.617 235.878 197.06 235.461 197.945V201.602C235.904 202.487 236.594 202.93 237.531 202.93C238.224 202.93 238.763 202.661 239.148 202.125C239.534 201.589 239.727 200.781 239.727 199.703ZM244.57 204H243.125V192H244.57V204ZM250.398 204.156C249.253 204.156 248.32 203.781 247.602 203.031C246.883 202.276 246.523 201.268 246.523 200.008V199.742C246.523 198.904 246.682 198.156 247 197.5C247.323 196.839 247.771 196.323 248.344 195.953C248.922 195.578 249.547 195.391 250.219 195.391C251.318 195.391 252.172 195.753 252.781 196.477C253.391 197.201 253.695 198.237 253.695 199.586V200.188H247.969C247.99 201.021 248.232 201.695 248.695 202.211C249.164 202.721 249.758 202.977 250.477 202.977C250.987 202.977 251.419 202.872 251.773 202.664C252.128 202.456 252.438 202.18 252.703 201.836L253.586 202.523C252.878 203.612 251.815 204.156 250.398 204.156ZM250.219 196.578C249.635 196.578 249.146 196.792 248.75 197.219C248.354 197.641 248.109 198.234 248.016 199H252.25V198.891C252.208 198.156 252.01 197.589 251.656 197.188C251.302 196.781 250.823 196.578 250.219 196.578ZM266.648 204H259.195V202.961L263.133 198.586C263.716 197.924 264.117 197.388 264.336 196.977C264.56 196.56 264.672 196.13 264.672 195.688C264.672 195.094 264.492 194.607 264.133 194.227C263.773 193.846 263.294 193.656 262.695 193.656C261.977 193.656 261.417 193.862 261.016 194.273C260.62 194.68 260.422 195.247 260.422 195.977H258.977C258.977 194.93 259.312 194.083 259.984 193.438C260.661 192.792 261.565 192.469 262.695 192.469C263.753 192.469 264.589 192.747 265.203 193.305C265.818 193.857 266.125 194.594 266.125 195.516C266.125 196.635 265.411 197.969 263.984 199.516L260.938 202.82H266.648V204ZM278.906 197.641H272.391V196.383H278.906V197.641ZM278.906 200.883H272.391V199.633H278.906V200.883Z" fill="#DE1306"/>
<path d="M288.531 199.438L287.312 200.75V204H284.969V192.625H287.312V197.781L288.344 196.367L291.242 192.625H294.125L290.086 197.68L294.242 204H291.453L288.531 199.438ZM298.664 204.156C297.424 204.156 296.414 203.776 295.633 203.016C294.857 202.255 294.469 201.242 294.469 199.977V199.758C294.469 198.909 294.633 198.151 294.961 197.484C295.289 196.812 295.753 196.297 296.352 195.938C296.956 195.573 297.643 195.391 298.414 195.391C299.57 195.391 300.479 195.755 301.141 196.484C301.807 197.214 302.141 198.247 302.141 199.586V200.508H296.758C296.831 201.06 297.049 201.503 297.414 201.836C297.784 202.169 298.25 202.336 298.812 202.336C299.682 202.336 300.362 202.021 300.852 201.391L301.961 202.633C301.622 203.112 301.164 203.487 300.586 203.758C300.008 204.023 299.367 204.156 298.664 204.156ZM298.406 197.219C297.958 197.219 297.594 197.37 297.312 197.672C297.036 197.974 296.859 198.406 296.781 198.969H299.922V198.789C299.911 198.289 299.776 197.904 299.516 197.633C299.255 197.357 298.885 197.219 298.406 197.219ZM306.477 200.805L308.039 195.547H310.461L307.062 205.312L306.875 205.758C306.37 206.862 305.536 207.414 304.375 207.414C304.047 207.414 303.714 207.365 303.375 207.266V205.555L303.719 205.562C304.146 205.562 304.464 205.497 304.672 205.367C304.885 205.237 305.052 205.021 305.172 204.719L305.438 204.023L302.477 195.547H304.906L306.477 200.805ZM319.047 199.438L317.828 200.75V204H315.484V192.625H317.828V197.781L318.859 196.367L321.758 192.625H324.641L320.602 197.68L324.758 204H321.969L319.047 199.438Z" fill="#FF5A43"/>
<g filter="url(#filter8_d)">
<rect x="25" y="183" width="130" height="31" rx="10" fill="white"/>
<rect x="25.5" y="183.5" width="129" height="30" rx="9.5" stroke="#E12519"/>
</g>
<path d="M55.0938 197.742H50.1641V201.773H55.8906V203H48.6641V191.625H55.8125V192.859H50.1641V196.516H55.0938V197.742ZM58.8984 194.547L58.9453 195.609C59.5911 194.797 60.4349 194.391 61.4766 194.391C63.263 194.391 64.1641 195.398 64.1797 197.414V203H62.7344V197.406C62.7292 196.797 62.5885 196.346 62.3125 196.055C62.0417 195.763 61.6172 195.617 61.0391 195.617C60.5703 195.617 60.1589 195.742 59.8047 195.992C59.4505 196.242 59.1745 196.57 58.9766 196.977V203H57.5312V194.547H58.8984ZM68.3203 192.5V194.547H69.8984V195.664H68.3203V200.906C68.3203 201.245 68.3906 201.5 68.5312 201.672C68.6719 201.839 68.9115 201.922 69.25 201.922C69.4167 201.922 69.6458 201.891 69.9375 201.828V203C69.5573 203.104 69.1875 203.156 68.8281 203.156C68.1823 203.156 67.6953 202.961 67.3672 202.57C67.0391 202.18 66.875 201.625 66.875 200.906V195.664H65.3359V194.547H66.875V192.5H68.3203ZM75.6797 195.844C75.4609 195.807 75.224 195.789 74.9688 195.789C74.0208 195.789 73.3776 196.193 73.0391 197V203H71.5938V194.547H73L73.0234 195.523C73.4974 194.768 74.1693 194.391 75.0391 194.391C75.3203 194.391 75.5339 194.427 75.6797 194.5V195.844ZM79.9219 200.883L81.8906 194.547H83.4375L80.0391 204.305C79.513 205.711 78.6771 206.414 77.5312 206.414L77.2578 206.391L76.7188 206.289V205.117L77.1094 205.148C77.599 205.148 77.9792 205.049 78.25 204.852C78.526 204.654 78.7526 204.292 78.9297 203.766L79.25 202.906L76.2344 194.547H77.8125L79.9219 200.883ZM91.875 198.867C91.875 200.154 91.5807 201.19 90.9922 201.977C90.4036 202.763 89.6068 203.156 88.6016 203.156C87.5755 203.156 86.7682 202.831 86.1797 202.18V206.25H84.7344V194.547H86.0547L86.125 195.484C86.7135 194.755 87.5312 194.391 88.5781 194.391C89.5938 194.391 90.3958 194.773 90.9844 195.539C91.5781 196.305 91.875 197.37 91.875 198.734V198.867ZM90.4297 198.703C90.4297 197.75 90.2266 196.997 89.8203 196.445C89.4141 195.893 88.8568 195.617 88.1484 195.617C87.2734 195.617 86.6172 196.005 86.1797 196.781V200.82C86.612 201.591 87.2734 201.977 88.1641 201.977C88.8568 201.977 89.4062 201.703 89.8125 201.156C90.224 200.604 90.4297 199.786 90.4297 198.703ZM93.3359 198.695C93.3359 197.867 93.4974 197.122 93.8203 196.461C94.1484 195.799 94.6016 195.289 95.1797 194.93C95.763 194.57 96.4271 194.391 97.1719 194.391C98.3229 194.391 99.2526 194.789 99.9609 195.586C100.674 196.383 101.031 197.443 101.031 198.766V198.867C101.031 199.69 100.872 200.43 100.555 201.086C100.242 201.737 99.7917 202.245 99.2031 202.609C98.6198 202.974 97.9479 203.156 97.1875 203.156C96.0417 203.156 95.112 202.758 94.3984 201.961C93.6901 201.164 93.3359 200.109 93.3359 198.797V198.695ZM94.7891 198.867C94.7891 199.805 95.0052 200.557 95.4375 201.125C95.875 201.693 96.4583 201.977 97.1875 201.977C97.9219 201.977 98.5052 201.69 98.9375 201.117C99.3698 200.539 99.5859 199.732 99.5859 198.695C99.5859 197.768 99.3646 197.018 98.9219 196.445C98.4844 195.867 97.901 195.578 97.1719 195.578C96.4583 195.578 95.8828 195.862 95.4453 196.43C95.0078 196.997 94.7891 197.81 94.7891 198.867ZM104.414 203H102.969V194.547H104.414V203ZM102.852 192.305C102.852 192.07 102.922 191.872 103.062 191.711C103.208 191.549 103.422 191.469 103.703 191.469C103.984 191.469 104.198 191.549 104.344 191.711C104.49 191.872 104.562 192.07 104.562 192.305C104.562 192.539 104.49 192.734 104.344 192.891C104.198 193.047 103.984 193.125 103.703 193.125C103.422 193.125 103.208 193.047 103.062 192.891C102.922 192.734 102.852 192.539 102.852 192.305ZM108.102 194.547L108.148 195.609C108.794 194.797 109.638 194.391 110.68 194.391C112.466 194.391 113.367 195.398 113.383 197.414V203H111.938V197.406C111.932 196.797 111.792 196.346 111.516 196.055C111.245 195.763 110.82 195.617 110.242 195.617C109.773 195.617 109.362 195.742 109.008 195.992C108.654 196.242 108.378 196.57 108.18 196.977V203H106.734V194.547H108.102ZM117.523 192.5V194.547H119.102V195.664H117.523V200.906C117.523 201.245 117.594 201.5 117.734 201.672C117.875 201.839 118.115 201.922 118.453 201.922C118.62 201.922 118.849 201.891 119.141 201.828V203C118.76 203.104 118.391 203.156 118.031 203.156C117.385 203.156 116.898 202.961 116.57 202.57C116.242 202.18 116.078 201.625 116.078 200.906V195.664H114.539V194.547H116.078V192.5H117.523ZM132.07 203H124.617V201.961L128.555 197.586C129.138 196.924 129.539 196.388 129.758 195.977C129.982 195.56 130.094 195.13 130.094 194.688C130.094 194.094 129.914 193.607 129.555 193.227C129.195 192.846 128.716 192.656 128.117 192.656C127.398 192.656 126.839 192.862 126.438 193.273C126.042 193.68 125.844 194.247 125.844 194.977H124.398C124.398 193.93 124.734 193.083 125.406 192.438C126.083 191.792 126.987 191.469 128.117 191.469C129.174 191.469 130.01 191.747 130.625 192.305C131.24 192.857 131.547 193.594 131.547 194.516C131.547 195.635 130.833 196.969 129.406 198.516L126.359 201.82H132.07V203Z" fill="#DE1306"/>
<path d="M84.2969 264.242C84.2969 263.992 84.3698 263.784 84.5156 263.617C84.6667 263.451 84.8906 263.367 85.1875 263.367C85.4844 263.367 85.7083 263.451 85.8594 263.617C86.0156 263.784 86.0938 263.992 86.0938 264.242C86.0938 264.482 86.0156 264.682 85.8594 264.844C85.7083 265.005 85.4844 265.086 85.1875 265.086C84.8906 265.086 84.6667 265.005 84.5156 264.844C84.3698 264.682 84.2969 264.482 84.2969 264.242ZM88.5156 264.242C88.5156 263.992 88.5885 263.784 88.7344 263.617C88.8854 263.451 89.1094 263.367 89.4062 263.367C89.7031 263.367 89.9271 263.451 90.0781 263.617C90.2344 263.784 90.3125 263.992 90.3125 264.242C90.3125 264.482 90.2344 264.682 90.0781 264.844C89.9271 265.005 89.7031 265.086 89.4062 265.086C89.1094 265.086 88.8854 265.005 88.7344 264.844C88.5885 264.682 88.5156 264.482 88.5156 264.242ZM92.7344 264.242C92.7344 263.992 92.8073 263.784 92.9531 263.617C93.1042 263.451 93.3281 263.367 93.625 263.367C93.9219 263.367 94.1458 263.451 94.2969 263.617C94.4531 263.784 94.5312 263.992 94.5312 264.242C94.5312 264.482 94.4531 264.682 94.2969 264.844C94.1458 265.005 93.9219 265.086 93.625 265.086C93.3281 265.086 93.1042 265.005 92.9531 264.844C92.8073 264.682 92.7344 264.482 92.7344 264.242Z" fill="#DE1306"/>
<path d="M84.2969 236.242C84.2969 235.992 84.3698 235.784 84.5156 235.617C84.6667 235.451 84.8906 235.367 85.1875 235.367C85.4844 235.367 85.7083 235.451 85.8594 235.617C86.0156 235.784 86.0938 235.992 86.0938 236.242C86.0938 236.482 86.0156 236.682 85.8594 236.844C85.7083 237.005 85.4844 237.086 85.1875 237.086C84.8906 237.086 84.6667 237.005 84.5156 236.844C84.3698 236.682 84.2969 236.482 84.2969 236.242ZM88.5156 236.242C88.5156 235.992 88.5885 235.784 88.7344 235.617C88.8854 235.451 89.1094 235.367 89.4062 235.367C89.7031 235.367 89.9271 235.451 90.0781 235.617C90.2344 235.784 90.3125 235.992 90.3125 236.242C90.3125 236.482 90.2344 236.682 90.0781 236.844C89.9271 237.005 89.7031 237.086 89.4062 237.086C89.1094 237.086 88.8854 237.005 88.7344 236.844C88.5885 236.682 88.5156 236.482 88.5156 236.242ZM92.7344 236.242C92.7344 235.992 92.8073 235.784 92.9531 235.617C93.1042 235.451 93.3281 235.367 93.625 235.367C93.9219 235.367 94.1458 235.451 94.2969 235.617C94.4531 235.784 94.5312 235.992 94.5312 236.242C94.5312 236.482 94.4531 236.682 94.2969 236.844C94.1458 237.005 93.9219 237.086 93.625 237.086C93.3281 237.086 93.1042 237.005 92.9531 236.844C92.8073 236.682 92.7344 236.482 92.7344 236.242Z" fill="#DE1306"/>
<path d="M249.297 264.242C249.297 263.992 249.37 263.784 249.516 263.617C249.667 263.451 249.891 263.367 250.188 263.367C250.484 263.367 250.708 263.451 250.859 263.617C251.016 263.784 251.094 263.992 251.094 264.242C251.094 264.482 251.016 264.682 250.859 264.844C250.708 265.005 250.484 265.086 250.188 265.086C249.891 265.086 249.667 265.005 249.516 264.844C249.37 264.682 249.297 264.482 249.297 264.242ZM253.516 264.242C253.516 263.992 253.589 263.784 253.734 263.617C253.885 263.451 254.109 263.367 254.406 263.367C254.703 263.367 254.927 263.451 255.078 263.617C255.234 263.784 255.312 263.992 255.312 264.242C255.312 264.482 255.234 264.682 255.078 264.844C254.927 265.005 254.703 265.086 254.406 265.086C254.109 265.086 253.885 265.005 253.734 264.844C253.589 264.682 253.516 264.482 253.516 264.242ZM257.734 264.242C257.734 263.992 257.807 263.784 257.953 263.617C258.104 263.451 258.328 263.367 258.625 263.367C258.922 263.367 259.146 263.451 259.297 263.617C259.453 263.784 259.531 263.992 259.531 264.242C259.531 264.482 259.453 264.682 259.297 264.844C259.146 265.005 258.922 265.086 258.625 265.086C258.328 265.086 258.104 265.005 257.953 264.844C257.807 264.682 257.734 264.482 257.734 264.242Z" fill="#DE1306"/>
<path d="M519.242 209.703C518.992 209.703 518.784 209.63 518.617 209.484C518.451 209.333 518.367 209.109 518.367 208.812C518.367 208.516 518.451 208.292 518.617 208.141C518.784 207.984 518.992 207.906 519.242 207.906C519.482 207.906 519.682 207.984 519.844 208.141C520.005 208.292 520.086 208.516 520.086 208.812C520.086 209.109 520.005 209.333 519.844 209.484C519.682 209.63 519.482 209.703 519.242 209.703ZM519.242 205.484C518.992 205.484 518.784 205.411 518.617 205.266C518.451 205.115 518.367 204.891 518.367 204.594C518.367 204.297 518.451 204.073 518.617 203.922C518.784 203.766 518.992 203.688 519.242 203.688C519.482 203.688 519.682 203.766 519.844 203.922C520.005 204.073 520.086 204.297 520.086 204.594C520.086 204.891 520.005 205.115 519.844 205.266C519.682 205.411 519.482 205.484 519.242 205.484ZM519.242 201.266C518.992 201.266 518.784 201.193 518.617 201.047C518.451 200.896 518.367 200.672 518.367 200.375C518.367 200.078 518.451 199.854 518.617 199.703C518.784 199.547 518.992 199.469 519.242 199.469C519.482 199.469 519.682 199.547 519.844 199.703C520.005 199.854 520.086 200.078 520.086 200.375C520.086 200.672 520.005 200.896 519.844 201.047C519.682 201.193 519.482 201.266 519.242 201.266Z" fill="#2097F6"/>
<path d="M519.242 249.703C518.992 249.703 518.784 249.63 518.617 249.484C518.451 249.333 518.367 249.109 518.367 248.812C518.367 248.516 518.451 248.292 518.617 248.141C518.784 247.984 518.992 247.906 519.242 247.906C519.482 247.906 519.682 247.984 519.844 248.141C520.005 248.292 520.086 248.516 520.086 248.812C520.086 249.109 520.005 249.333 519.844 249.484C519.682 249.63 519.482 249.703 519.242 249.703ZM519.242 245.484C518.992 245.484 518.784 245.411 518.617 245.266C518.451 245.115 518.367 244.891 518.367 244.594C518.367 244.297 518.451 244.073 518.617 243.922C518.784 243.766 518.992 243.688 519.242 243.688C519.482 243.688 519.682 243.766 519.844 243.922C520.005 244.073 520.086 244.297 520.086 244.594C520.086 244.891 520.005 245.115 519.844 245.266C519.682 245.411 519.482 245.484 519.242 245.484ZM519.242 241.266C518.992 241.266 518.784 241.193 518.617 241.047C518.451 240.896 518.367 240.672 518.367 240.375C518.367 240.078 518.451 239.854 518.617 239.703C518.784 239.547 518.992 239.469 519.242 239.469C519.482 239.469 519.682 239.547 519.844 239.703C520.005 239.854 520.086 240.078 520.086 240.375C520.086 240.672 520.005 240.896 519.844 241.047C519.682 241.193 519.482 241.266 519.242 241.266Z" fill="#2097F6"/>
<path d="M519.917 150.5H519.417V151V172V172.5H519.917H637C641.694 172.5 645.5 168.694 645.5 164V159C645.5 154.306 641.694 150.5 637 150.5H519.917Z" fill="white"/>
<path d="M519.917 150.5H519.417V151V172V172.5H519.917H637C641.694 172.5 645.5 168.694 645.5 164V159C645.5 154.306 641.694 150.5 637 150.5H519.917Z" stroke="#2097F6"/>
<path d="M519.083 172.5H519.583V172V151V150.5H519.083H402C397.306 150.5 393.5 154.306 393.5 159V164C393.5 168.694 397.306 172.5 402 172.5H519.083Z" fill="white"/>
<path d="M519.083 172.5H519.583V172V151V150.5H519.083H402C397.306 150.5 393.5 154.306 393.5 159V164C393.5 168.694 397.306 172.5 402 172.5H519.083Z" stroke="#2097F6"/>
<path d="M560.242 165.008L563.492 155.625H565.133L560.914 167H559.586L555.375 155.625H557.008L560.242 165.008ZM571.297 167C571.214 166.833 571.146 166.536 571.094 166.109C570.422 166.807 569.62 167.156 568.688 167.156C567.854 167.156 567.169 166.922 566.633 166.453C566.102 165.979 565.836 165.38 565.836 164.656C565.836 163.776 566.169 163.094 566.836 162.609C567.508 162.12 568.451 161.875 569.664 161.875H571.07V161.211C571.07 160.706 570.919 160.305 570.617 160.008C570.315 159.706 569.87 159.555 569.281 159.555C568.766 159.555 568.333 159.685 567.984 159.945C567.635 160.206 567.461 160.521 567.461 160.891H566.008C566.008 160.469 566.156 160.062 566.453 159.672C566.755 159.276 567.161 158.964 567.672 158.734C568.188 158.505 568.753 158.391 569.367 158.391C570.341 158.391 571.104 158.635 571.656 159.125C572.208 159.609 572.495 160.279 572.516 161.133V165.023C572.516 165.799 572.615 166.417 572.812 166.875V167H571.297ZM568.898 165.898C569.352 165.898 569.781 165.781 570.188 165.547C570.594 165.312 570.888 165.008 571.07 164.633V162.898H569.938C568.167 162.898 567.281 163.417 567.281 164.453C567.281 164.906 567.432 165.26 567.734 165.516C568.036 165.771 568.424 165.898 568.898 165.898ZM576.352 167H574.906V155H576.352V167ZM583.891 166.164C583.328 166.826 582.503 167.156 581.414 167.156C580.513 167.156 579.826 166.896 579.352 166.375C578.883 165.849 578.646 165.073 578.641 164.047V158.547H580.086V164.008C580.086 165.289 580.607 165.93 581.648 165.93C582.753 165.93 583.487 165.518 583.852 164.695V158.547H585.297V167H583.922L583.891 166.164ZM591.008 167.156C589.862 167.156 588.93 166.781 588.211 166.031C587.492 165.276 587.133 164.268 587.133 163.008V162.742C587.133 161.904 587.292 161.156 587.609 160.5C587.932 159.839 588.38 159.323 588.953 158.953C589.531 158.578 590.156 158.391 590.828 158.391C591.927 158.391 592.781 158.753 593.391 159.477C594 160.201 594.305 161.237 594.305 162.586V163.188H588.578C588.599 164.021 588.841 164.695 589.305 165.211C589.773 165.721 590.367 165.977 591.086 165.977C591.596 165.977 592.029 165.872 592.383 165.664C592.737 165.456 593.047 165.18 593.312 164.836L594.195 165.523C593.487 166.612 592.424 167.156 591.008 167.156ZM590.828 159.578C590.245 159.578 589.755 159.792 589.359 160.219C588.964 160.641 588.719 161.234 588.625 162H592.859V161.891C592.818 161.156 592.62 160.589 592.266 160.188C591.911 159.781 591.432 159.578 590.828 159.578ZM604.555 167H603.102V157.367L600.188 158.438V157.125L604.328 155.57H604.555V167Z" fill="#2097F6"/>
<path d="M445.344 161.711L443.953 163.156V167H442.453V155.625H443.953V161.25L449.008 155.625H450.82L446.344 160.648L451.172 167H449.375L445.344 161.711ZM455.562 167.156C454.417 167.156 453.484 166.781 452.766 166.031C452.047 165.276 451.688 164.268 451.688 163.008V162.742C451.688 161.904 451.846 161.156 452.164 160.5C452.487 159.839 452.935 159.323 453.508 158.953C454.086 158.578 454.711 158.391 455.383 158.391C456.482 158.391 457.336 158.753 457.945 159.477C458.555 160.201 458.859 161.237 458.859 162.586V163.188H453.133C453.154 164.021 453.396 164.695 453.859 165.211C454.328 165.721 454.922 165.977 455.641 165.977C456.151 165.977 456.583 165.872 456.938 165.664C457.292 165.456 457.602 165.18 457.867 164.836L458.75 165.523C458.042 166.612 456.979 167.156 455.562 167.156ZM455.383 159.578C454.799 159.578 454.31 159.792 453.914 160.219C453.518 160.641 453.273 161.234 453.18 162H457.414V161.891C457.372 161.156 457.174 160.589 456.82 160.188C456.466 159.781 455.987 159.578 455.383 159.578ZM463.195 164.883L465.164 158.547H466.711L463.312 168.305C462.786 169.711 461.951 170.414 460.805 170.414L460.531 170.391L459.992 170.289V169.117L460.383 169.148C460.872 169.148 461.253 169.049 461.523 168.852C461.799 168.654 462.026 168.292 462.203 167.766L462.523 166.906L459.508 158.547H461.086L463.195 164.883ZM476.578 167H475.125V157.367L472.211 158.438V157.125L476.352 155.57H476.578V167Z" fill="#2097F6"/>
<path d="M519.917 173.5H519.417V174V195V195.5H519.917H637C641.694 195.5 645.5 191.694 645.5 187V182C645.5 177.306 641.694 173.5 637 173.5H519.917Z" fill="white"/>
<path d="M519.917 173.5H519.417V174V195V195.5H519.917H637C641.694 195.5 645.5 191.694 645.5 187V182C645.5 177.306 641.694 173.5 637 173.5H519.917Z" stroke="#2097F6"/>
<path d="M519.083 195.5H519.583V195V174V173.5H519.083H402C397.306 173.5 393.5 177.306 393.5 182V187C393.5 191.694 397.306 195.5 402 195.5H519.083Z" fill="white"/>
<path d="M519.083 195.5H519.583V195V174V173.5H519.083H402C397.306 173.5 393.5 177.306 393.5 182V187C393.5 191.694 397.306 195.5 402 195.5H519.083Z" stroke="#2097F6"/>
<path d="M560.242 188.008L563.492 178.625H565.133L560.914 190H559.586L555.375 178.625H557.008L560.242 188.008ZM571.297 190C571.214 189.833 571.146 189.536 571.094 189.109C570.422 189.807 569.62 190.156 568.688 190.156C567.854 190.156 567.169 189.922 566.633 189.453C566.102 188.979 565.836 188.38 565.836 187.656C565.836 186.776 566.169 186.094 566.836 185.609C567.508 185.12 568.451 184.875 569.664 184.875H571.07V184.211C571.07 183.706 570.919 183.305 570.617 183.008C570.315 182.706 569.87 182.555 569.281 182.555C568.766 182.555 568.333 182.685 567.984 182.945C567.635 183.206 567.461 183.521 567.461 183.891H566.008C566.008 183.469 566.156 183.062 566.453 182.672C566.755 182.276 567.161 181.964 567.672 181.734C568.188 181.505 568.753 181.391 569.367 181.391C570.341 181.391 571.104 181.635 571.656 182.125C572.208 182.609 572.495 183.279 572.516 184.133V188.023C572.516 188.799 572.615 189.417 572.812 189.875V190H571.297ZM568.898 188.898C569.352 188.898 569.781 188.781 570.188 188.547C570.594 188.312 570.888 188.008 571.07 187.633V185.898H569.938C568.167 185.898 567.281 186.417 567.281 187.453C567.281 187.906 567.432 188.26 567.734 188.516C568.036 188.771 568.424 188.898 568.898 188.898ZM576.352 190H574.906V178H576.352V190ZM583.891 189.164C583.328 189.826 582.503 190.156 581.414 190.156C580.513 190.156 579.826 189.896 579.352 189.375C578.883 188.849 578.646 188.073 578.641 187.047V181.547H580.086V187.008C580.086 188.289 580.607 188.93 581.648 188.93C582.753 188.93 583.487 188.518 583.852 187.695V181.547H585.297V190H583.922L583.891 189.164ZM591.008 190.156C589.862 190.156 588.93 189.781 588.211 189.031C587.492 188.276 587.133 187.268 587.133 186.008V185.742C587.133 184.904 587.292 184.156 587.609 183.5C587.932 182.839 588.38 182.323 588.953 181.953C589.531 181.578 590.156 181.391 590.828 181.391C591.927 181.391 592.781 181.753 593.391 182.477C594 183.201 594.305 184.237 594.305 185.586V186.188H588.578C588.599 187.021 588.841 187.695 589.305 188.211C589.773 188.721 590.367 188.977 591.086 188.977C591.596 188.977 592.029 188.872 592.383 188.664C592.737 188.456 593.047 188.18 593.312 187.836L594.195 188.523C593.487 189.612 592.424 190.156 591.008 190.156ZM590.828 182.578C590.245 182.578 589.755 182.792 589.359 183.219C588.964 183.641 588.719 184.234 588.625 185H592.859V184.891C592.818 184.156 592.62 183.589 592.266 183.188C591.911 182.781 591.432 182.578 590.828 182.578ZM607.258 190H599.805V188.961L603.742 184.586C604.326 183.924 604.727 183.388 604.945 182.977C605.169 182.56 605.281 182.13 605.281 181.688C605.281 181.094 605.102 180.607 604.742 180.227C604.383 179.846 603.904 179.656 603.305 179.656C602.586 179.656 602.026 179.862 601.625 180.273C601.229 180.68 601.031 181.247 601.031 181.977H599.586C599.586 180.93 599.922 180.083 600.594 179.438C601.271 178.792 602.174 178.469 603.305 178.469C604.362 178.469 605.198 178.747 605.812 179.305C606.427 179.857 606.734 180.594 606.734 181.516C606.734 182.635 606.021 183.969 604.594 185.516L601.547 188.82H607.258V190Z" fill="#2097F6"/>
<path d="M445.344 184.711L443.953 186.156V190H442.453V178.625H443.953V184.25L449.008 178.625H450.82L446.344 183.648L451.172 190H449.375L445.344 184.711ZM455.562 190.156C454.417 190.156 453.484 189.781 452.766 189.031C452.047 188.276 451.688 187.268 451.688 186.008V185.742C451.688 184.904 451.846 184.156 452.164 183.5C452.487 182.839 452.935 182.323 453.508 181.953C454.086 181.578 454.711 181.391 455.383 181.391C456.482 181.391 457.336 181.753 457.945 182.477C458.555 183.201 458.859 184.237 458.859 185.586V186.188H453.133C453.154 187.021 453.396 187.695 453.859 188.211C454.328 188.721 454.922 188.977 455.641 188.977C456.151 188.977 456.583 188.872 456.938 188.664C457.292 188.456 457.602 188.18 457.867 187.836L458.75 188.523C458.042 189.612 456.979 190.156 455.562 190.156ZM455.383 182.578C454.799 182.578 454.31 182.792 453.914 183.219C453.518 183.641 453.273 184.234 453.18 185H457.414V184.891C457.372 184.156 457.174 183.589 456.82 183.188C456.466 182.781 455.987 182.578 455.383 182.578ZM463.195 187.883L465.164 181.547H466.711L463.312 191.305C462.786 192.711 461.951 193.414 460.805 193.414L460.531 193.391L459.992 193.289V192.117L460.383 192.148C460.872 192.148 461.253 192.049 461.523 191.852C461.799 191.654 462.026 191.292 462.203 190.766L462.523 189.906L459.508 181.547H461.086L463.195 187.883ZM479.281 190H471.828V188.961L475.766 184.586C476.349 183.924 476.75 183.388 476.969 182.977C477.193 182.56 477.305 182.13 477.305 181.688C477.305 181.094 477.125 180.607 476.766 180.227C476.406 179.846 475.927 179.656 475.328 179.656C474.609 179.656 474.049 179.862 473.648 180.273C473.253 180.68 473.055 181.247 473.055 181.977H471.609C471.609 180.93 471.945 180.083 472.617 179.438C473.294 178.792 474.198 178.469 475.328 178.469C476.385 178.469 477.221 178.747 477.836 179.305C478.451 179.857 478.758 180.594 478.758 181.516C478.758 182.635 478.044 183.969 476.617 185.516L473.57 188.82H479.281V190Z" fill="#2097F6"/>
<path d="M519.917 213.5H519.417V214V235V235.5H519.917H637C641.694 235.5 645.5 231.694 645.5 227V222C645.5 217.306 641.694 213.5 637 213.5H519.917Z" fill="white"/>
<path d="M519.917 213.5H519.417V214V235V235.5H519.917H637C641.694 235.5 645.5 231.694 645.5 227V222C645.5 217.306 641.694 213.5 637 213.5H519.917Z" stroke="#2097F6"/>
<path d="M519.083 235.5H519.583V235V214V213.5H519.083H402C397.306 213.5 393.5 217.306 393.5 222V227C393.5 231.694 397.306 235.5 402 235.5H519.083Z" fill="white"/>
<path d="M519.083 235.5H519.583V235V214V213.5H519.083H402C397.306 213.5 393.5 217.306 393.5 222V227C393.5 231.694 397.306 235.5 402 235.5H519.083Z" stroke="#2097F6"/>
<path d="M559.219 228.008L562.469 218.625H564.109L559.891 230H558.562L554.352 218.625H555.984L559.219 228.008ZM570.273 230C570.19 229.833 570.122 229.536 570.07 229.109C569.398 229.807 568.596 230.156 567.664 230.156C566.831 230.156 566.146 229.922 565.609 229.453C565.078 228.979 564.812 228.38 564.812 227.656C564.812 226.776 565.146 226.094 565.812 225.609C566.484 225.12 567.427 224.875 568.641 224.875H570.047V224.211C570.047 223.706 569.896 223.305 569.594 223.008C569.292 222.706 568.846 222.555 568.258 222.555C567.742 222.555 567.31 222.685 566.961 222.945C566.612 223.206 566.438 223.521 566.438 223.891H564.984C564.984 223.469 565.133 223.062 565.43 222.672C565.732 222.276 566.138 221.964 566.648 221.734C567.164 221.505 567.729 221.391 568.344 221.391C569.318 221.391 570.081 221.635 570.633 222.125C571.185 222.609 571.471 223.279 571.492 224.133V228.023C571.492 228.799 571.591 229.417 571.789 229.875V230H570.273ZM567.875 228.898C568.328 228.898 568.758 228.781 569.164 228.547C569.57 228.312 569.865 228.008 570.047 227.633V225.898H568.914C567.143 225.898 566.258 226.417 566.258 227.453C566.258 227.906 566.409 228.26 566.711 228.516C567.013 228.771 567.401 228.898 567.875 228.898ZM575.328 230H573.883V218H575.328V230ZM582.867 229.164C582.305 229.826 581.479 230.156 580.391 230.156C579.49 230.156 578.802 229.896 578.328 229.375C577.859 228.849 577.622 228.073 577.617 227.047V221.547H579.062V227.008C579.062 228.289 579.583 228.93 580.625 228.93C581.729 228.93 582.464 228.518 582.828 227.695V221.547H584.273V230H582.898L582.867 229.164ZM589.984 230.156C588.839 230.156 587.906 229.781 587.188 229.031C586.469 228.276 586.109 227.268 586.109 226.008V225.742C586.109 224.904 586.268 224.156 586.586 223.5C586.909 222.839 587.357 222.323 587.93 221.953C588.508 221.578 589.133 221.391 589.805 221.391C590.904 221.391 591.758 221.753 592.367 222.477C592.977 223.201 593.281 224.237 593.281 225.586V226.188H587.555C587.576 227.021 587.818 227.695 588.281 228.211C588.75 228.721 589.344 228.977 590.062 228.977C590.573 228.977 591.005 228.872 591.359 228.664C591.714 228.456 592.023 228.18 592.289 227.836L593.172 228.523C592.464 229.612 591.401 230.156 589.984 230.156ZM589.805 222.578C589.221 222.578 588.732 222.792 588.336 223.219C587.94 223.641 587.695 224.234 587.602 225H591.836V224.891C591.794 224.156 591.596 223.589 591.242 223.188C590.888 222.781 590.409 222.578 589.805 222.578ZM602.047 224.711L600.656 226.156V230H599.156V218.625H600.656V224.25L605.711 218.625H607.523L603.047 223.648L607.875 230H606.078L602.047 224.711Z" fill="#2097F6"/>
<path d="M444.742 225.438L443.523 226.75V230H441.18V218.625H443.523V223.781L444.555 222.367L447.453 218.625H450.336L446.297 223.68L450.453 230H447.664L444.742 225.438ZM454.875 230.156C453.635 230.156 452.625 229.776 451.844 229.016C451.068 228.255 450.68 227.242 450.68 225.977V225.758C450.68 224.909 450.844 224.151 451.172 223.484C451.5 222.812 451.964 222.297 452.562 221.938C453.167 221.573 453.854 221.391 454.625 221.391C455.781 221.391 456.69 221.755 457.352 222.484C458.018 223.214 458.352 224.247 458.352 225.586V226.508H452.969C453.042 227.06 453.26 227.503 453.625 227.836C453.995 228.169 454.461 228.336 455.023 228.336C455.893 228.336 456.573 228.021 457.062 227.391L458.172 228.633C457.833 229.112 457.375 229.487 456.797 229.758C456.219 230.023 455.578 230.156 454.875 230.156ZM454.617 223.219C454.169 223.219 453.805 223.37 453.523 223.672C453.247 223.974 453.07 224.406 452.992 224.969H456.133V224.789C456.122 224.289 455.987 223.904 455.727 223.633C455.466 223.357 455.096 223.219 454.617 223.219ZM462.688 226.805L464.25 221.547H466.672L463.273 231.312L463.086 231.758C462.581 232.862 461.747 233.414 460.586 233.414C460.258 233.414 459.924 233.365 459.586 233.266V231.555L459.93 231.562C460.357 231.562 460.674 231.497 460.883 231.367C461.096 231.237 461.263 231.021 461.383 230.719L461.648 230.023L458.688 221.547H461.117L462.688 226.805ZM475.258 225.438L474.039 226.75V230H471.695V218.625H474.039V223.781L475.07 222.367L477.969 218.625H480.852L476.812 223.68L480.969 230H478.18L475.258 225.438Z" fill="#FF5A43"/>
<path d="M519.917 253.5H519.417V254V275V275.5H519.917H637C641.694 275.5 645.5 271.694 645.5 267V262C645.5 257.306 641.694 253.5 637 253.5H519.917Z" fill="white"/>
<path d="M519.917 253.5H519.417V254V275V275.5H519.917H637C641.694 275.5 645.5 271.694 645.5 267V262C645.5 257.306 641.694 253.5 637 253.5H519.917Z" stroke="#2097F6"/>
<path d="M519.083 275.5H519.583V275V254V253.5H519.083H402C397.306 253.5 393.5 257.306 393.5 262V267C393.5 271.694 397.306 275.5 402 275.5H519.083Z" fill="white"/>
<path d="M519.083 275.5H519.583V275V254V253.5H519.083H402C397.306 253.5 393.5 257.306 393.5 262V267C393.5 271.694 397.306 275.5 402 275.5H519.083Z" stroke="#2097F6"/>
<path d="M558.531 268.008L561.781 258.625H563.422L559.203 270H557.875L553.664 258.625H555.297L558.531 268.008ZM569.586 270C569.503 269.833 569.435 269.536 569.383 269.109C568.711 269.807 567.909 270.156 566.977 270.156C566.143 270.156 565.458 269.922 564.922 269.453C564.391 268.979 564.125 268.38 564.125 267.656C564.125 266.776 564.458 266.094 565.125 265.609C565.797 265.12 566.74 264.875 567.953 264.875H569.359V264.211C569.359 263.706 569.208 263.305 568.906 263.008C568.604 262.706 568.159 262.555 567.57 262.555C567.055 262.555 566.622 262.685 566.273 262.945C565.924 263.206 565.75 263.521 565.75 263.891H564.297C564.297 263.469 564.445 263.062 564.742 262.672C565.044 262.276 565.451 261.964 565.961 261.734C566.477 261.505 567.042 261.391 567.656 261.391C568.63 261.391 569.393 261.635 569.945 262.125C570.497 262.609 570.784 263.279 570.805 264.133V268.023C570.805 268.799 570.904 269.417 571.102 269.875V270H569.586ZM567.188 268.898C567.641 268.898 568.07 268.781 568.477 268.547C568.883 268.312 569.177 268.008 569.359 267.633V265.898H568.227C566.456 265.898 565.57 266.417 565.57 267.453C565.57 267.906 565.721 268.26 566.023 268.516C566.326 268.771 566.714 268.898 567.188 268.898ZM574.641 270H573.195V258H574.641V270ZM582.18 269.164C581.617 269.826 580.792 270.156 579.703 270.156C578.802 270.156 578.115 269.896 577.641 269.375C577.172 268.849 576.935 268.073 576.93 267.047V261.547H578.375V267.008C578.375 268.289 578.896 268.93 579.938 268.93C581.042 268.93 581.776 268.518 582.141 267.695V261.547H583.586V270H582.211L582.18 269.164ZM589.297 270.156C588.151 270.156 587.219 269.781 586.5 269.031C585.781 268.276 585.422 267.268 585.422 266.008V265.742C585.422 264.904 585.581 264.156 585.898 263.5C586.221 262.839 586.669 262.323 587.242 261.953C587.82 261.578 588.445 261.391 589.117 261.391C590.216 261.391 591.07 261.753 591.68 262.477C592.289 263.201 592.594 264.237 592.594 265.586V266.188H586.867C586.888 267.021 587.13 267.695 587.594 268.211C588.062 268.721 588.656 268.977 589.375 268.977C589.885 268.977 590.318 268.872 590.672 268.664C591.026 268.456 591.336 268.18 591.602 267.836L592.484 268.523C591.776 269.612 590.714 270.156 589.297 270.156ZM589.117 262.578C588.534 262.578 588.044 262.792 587.648 263.219C587.253 263.641 587.008 264.234 586.914 265H591.148V264.891C591.107 264.156 590.909 263.589 590.555 263.188C590.201 262.781 589.721 262.578 589.117 262.578ZM607.211 270H605.703L599.977 261.234V270H598.469V258.625H599.977L605.719 267.43V258.625H607.211V270Z" fill="#2097F6"/>
<path d="M443.633 264.711L442.242 266.156V270H440.742V258.625H442.242V264.25L447.297 258.625H449.109L444.633 263.648L449.461 270H447.664L443.633 264.711ZM453.852 270.156C452.706 270.156 451.773 269.781 451.055 269.031C450.336 268.276 449.977 267.268 449.977 266.008V265.742C449.977 264.904 450.135 264.156 450.453 263.5C450.776 262.839 451.224 262.323 451.797 261.953C452.375 261.578 453 261.391 453.672 261.391C454.771 261.391 455.625 261.753 456.234 262.477C456.844 263.201 457.148 264.237 457.148 265.586V266.188H451.422C451.443 267.021 451.685 267.695 452.148 268.211C452.617 268.721 453.211 268.977 453.93 268.977C454.44 268.977 454.872 268.872 455.227 268.664C455.581 268.456 455.891 268.18 456.156 267.836L457.039 268.523C456.331 269.612 455.268 270.156 453.852 270.156ZM453.672 262.578C453.089 262.578 452.599 262.792 452.203 263.219C451.807 263.641 451.562 264.234 451.469 265H455.703V264.891C455.661 264.156 455.464 263.589 455.109 263.188C454.755 262.781 454.276 262.578 453.672 262.578ZM461.484 267.883L463.453 261.547H465L461.602 271.305C461.076 272.711 460.24 273.414 459.094 273.414L458.82 273.391L458.281 273.289V272.117L458.672 272.148C459.161 272.148 459.542 272.049 459.812 271.852C460.089 271.654 460.315 271.292 460.492 270.766L460.812 269.906L457.797 261.547H459.375L461.484 267.883ZM479.234 270H477.727L472 261.234V270H470.492V258.625H472L477.742 267.43V258.625H479.234V270Z" fill="#2097F6"/>
<path d="M499.293 224.293C498.902 224.683 498.902 225.317 499.293 225.707L505.657 232.071C506.047 232.462 506.681 232.462 507.071 232.071C507.462 231.681 507.462 231.047 507.071 230.657L501.414 225L507.071 219.343C507.462 218.953 507.462 218.319 507.071 217.929C506.681 217.538 506.047 217.538 505.657 217.929L499.293 224.293ZM540.707 225.707C541.098 225.317 541.098 224.683 540.707 224.293L534.343 217.929C533.953 217.538 533.319 217.538 532.929 217.929C532.538 218.319 532.538 218.953 532.929 219.343L538.586 225L532.929 230.657C532.538 231.047 532.538 231.681 532.929 232.071C533.319 232.462 533.953 232.462 534.343 232.071L540.707 225.707ZM500 226H540V224H500V226Z" fill="#5452F6"/>
<path d="M387 223.5L368.954 223.5C362.05 223.5 356.454 217.904 356.454 211V211C356.454 204.096 350.857 198.5 343.954 198.5L328 198.5" stroke="#5452F6" stroke-width="2"/>
<path d="M338 189.974L328 199.231L338 208" stroke="#5452F6" stroke-width="2" stroke-linecap="round" stroke-linejoin="round"/>
<circle r="5.5" transform="matrix(-1 0 0 1 392.5 224)" fill="#5452F6"/>
<defs>
<filter id="filter0_d" x="0" y="0" width="676" height="306" filterUnits="userSpaceOnUse" color-interpolation-filters="sRGB">
<feFlood flood-opacity="0" result="BackgroundImageFix"/>
<feColorMatrix in="SourceAlpha" type="matrix" values="0 0 0 0 0 0 0 0 0 0 0 0 0 0 0 0 0 0 127 0"/>
<feOffset dx="4" dy="4"/>
<feColorMatrix type="matrix" values="0 0 0 0 0.952941 0 0 0 0 0.639216 0 0 0 0 0.619608 0 0 0 1 0"/>
<feBlend mode="normal" in2="BackgroundImageFix" result="effect1_dropShadow"/>
<feBlend mode="normal" in="SourceGraphic" in2="effect1_dropShadow" result="shape"/>
</filter>
<filter id="filter1_d" x="15" y="93" width="159" height="199" filterUnits="userSpaceOnUse" color-interpolation-filters="sRGB">
<feFlood flood-opacity="0" result="BackgroundImageFix"/>
<feColorMatrix in="SourceAlpha" type="matrix" values="0 0 0 0 0 0 0 0 0 0 0 0 0 0 0 0 0 0 127 0"/>
<feOffset dx="5" dy="5"/>
<feGaussianBlur stdDeviation="2"/>
<feColorMatrix type="matrix" values="0 0 0 0 0.952941 0 0 0 0 0.639216 0 0 0 0 0.619608 0 0 0 1 0"/>
<feBlend mode="normal" in2="BackgroundImageFix" result="effect1_dropShadow"/>
<feBlend mode="normal" in="SourceGraphic" in2="effect1_dropShadow" result="shape"/>
</filter>
<filter id="filter2_d" x="180" y="93" width="169" height="199" filterUnits="userSpaceOnUse" color-interpolation-filters="sRGB">
<feFlood flood-opacity="0" result="BackgroundImageFix"/>
<feColorMatrix in="SourceAlpha" type="matrix" values="0 0 0 0 0 0 0 0 0 0 0 0 0 0 0 0 0 0 127 0"/>
<feOffset dx="5" dy="5"/>
<feGaussianBlur stdDeviation="2"/>
<feColorMatrix type="matrix" values="0 0 0 0 0.952941 0 0 0 0 0.639216 0 0 0 0 0.619608 0 0 0 1 0"/>
<feBlend mode="normal" in2="BackgroundImageFix" result="effect1_dropShadow"/>
<feBlend mode="normal" in="SourceGraphic" in2="effect1_dropShadow" result="shape"/>
</filter>
<filter id="filter3_d" x="385" y="93" width="279" height="199" filterUnits="userSpaceOnUse" color-interpolation-filters="sRGB">
<feFlood flood-opacity="0" result="BackgroundImageFix"/>
<feColorMatrix in="SourceAlpha" type="matrix" values="0 0 0 0 0 0 0 0 0 0 0 0 0 0 0 0 0 0 127 0"/>
<feOffset dx="5" dy="5"/>
<feGaussianBlur stdDeviation="2"/>
<feColorMatrix type="matrix" values="0 0 0 0 0.952941 0 0 0 0 0.639216 0 0 0 0 0.619608 0 0 0 1 0"/>
<feBlend mode="normal" in2="BackgroundImageFix" result="effect1_dropShadow"/>
<feBlend mode="normal" in="SourceGraphic" in2="effect1_dropShadow" result="shape"/>
</filter>
<filter id="filter4_d" x="25" y="147" width="139" height="40" filterUnits="userSpaceOnUse" color-interpolation-filters="sRGB">
<feFlood flood-opacity="0" result="BackgroundImageFix"/>
<feColorMatrix in="SourceAlpha" type="matrix" values="0 0 0 0 0 0 0 0 0 0 0 0 0 0 0 0 0 0 127 0"/>
<feOffset dx="5" dy="5"/>
<feGaussianBlur stdDeviation="2"/>
<feColorMatrix type="matrix" values="0 0 0 0 0.952941 0 0 0 0 0.639216 0 0 0 0 0.619608 0 0 0 1 0"/>
<feBlend mode="normal" in2="BackgroundImageFix" result="effect1_dropShadow"/>
<feBlend mode="normal" in="SourceGraphic" in2="effect1_dropShadow" result="shape"/>
</filter>
<filter id="filter5_d" x="190" y="147" width="149" height="40" filterUnits="userSpaceOnUse" color-interpolation-filters="sRGB">
<feFlood flood-opacity="0" result="BackgroundImageFix"/>
<feColorMatrix in="SourceAlpha" type="matrix" values="0 0 0 0 0 0 0 0 0 0 0 0 0 0 0 0 0 0 127 0"/>
<feOffset dx="5" dy="5"/>
<feGaussianBlur stdDeviation="2"/>
<feColorMatrix type="matrix" values="0 0 0 0 0.952941 0 0 0 0 0.639216 0 0 0 0 0.619608 0 0 0 1 0"/>
<feBlend mode="normal" in2="BackgroundImageFix" result="effect1_dropShadow"/>
<feBlend mode="normal" in="SourceGraphic" in2="effect1_dropShadow" result="shape"/>
</filter>
<filter id="filter6_d" x="190" y="220" width="149" height="40" filterUnits="userSpaceOnUse" color-interpolation-filters="sRGB">
<feFlood flood-opacity="0" result="BackgroundImageFix"/>
<feColorMatrix in="SourceAlpha" type="matrix" values="0 0 0 0 0 0 0 0 0 0 0 0 0 0 0 0 0 0 127 0"/>
<feOffset dx="5" dy="5"/>
<feGaussianBlur stdDeviation="2"/>
<feColorMatrix type="matrix" values="0 0 0 0 0.952941 0 0 0 0 0.639216 0 0 0 0 0.619608 0 0 0 1 0"/>
<feBlend mode="normal" in2="BackgroundImageFix" result="effect1_dropShadow"/>
<feBlend mode="normal" in="SourceGraphic" in2="effect1_dropShadow" result="shape"/>
</filter>
<filter id="filter7_d" x="190" y="183" width="149" height="40" filterUnits="userSpaceOnUse" color-interpolation-filters="sRGB">
<feFlood flood-opacity="0" result="BackgroundImageFix"/>
<feColorMatrix in="SourceAlpha" type="matrix" values="0 0 0 0 0 0 0 0 0 0 0 0 0 0 0 0 0 0 127 0"/>
<feOffset dx="5" dy="5"/>
<feGaussianBlur stdDeviation="2"/>
<feColorMatrix type="matrix" values="0 0 0 0 0.952941 0 0 0 0 0.639216 0 0 0 0 0.619608 0 0 0 1 0"/>
<feBlend mode="normal" in2="BackgroundImageFix" result="effect1_dropShadow"/>
<feBlend mode="normal" in="SourceGraphic" in2="effect1_dropShadow" result="shape"/>
</filter>
<filter id="filter8_d" x="25" y="183" width="139" height="40" filterUnits="userSpaceOnUse" color-interpolation-filters="sRGB">
<feFlood flood-opacity="0" result="BackgroundImageFix"/>
<feColorMatrix in="SourceAlpha" type="matrix" values="0 0 0 0 0 0 0 0 0 0 0 0 0 0 0 0 0 0 127 0"/>
<feOffset dx="5" dy="5"/>
<feGaussianBlur stdDeviation="2"/>
<feColorMatrix type="matrix" values="0 0 0 0 0.952941 0 0 0 0 0.639216 0 0 0 0 0.619608 0 0 0 1 0"/>
<feBlend mode="normal" in2="BackgroundImageFix" result="effect1_dropShadow"/>
<feBlend mode="normal" in="SourceGraphic" in2="effect1_dropShadow" result="shape"/>
</filter>
</defs>
</svg>
