<svg width="1434" height="147" viewBox="0 0 1434 147" fill="none" xmlns="http://www.w3.org/2000/svg">
<g filter="url(#filter0_d)">
<path d="M0 8C0 3.58172 3.58172 0 8 0H221C225.418 0 229 3.58172 229 8V120H0V8Z" fill="white"/>
<path d="M8 0.5H221C225.142 0.5 228.5 3.85787 228.5 8V119.5H0.5V8C0.5 3.85786 3.85786 0.5 8 0.5Z" stroke="#5452F6"/>
</g>
<g filter="url(#filter1_d)">
<path d="M0 119H229V135C229 139.418 225.418 143 221 143H8.00001C3.58173 143 0 139.418 0 135V119Z" fill="#EEEEFF"/>
<path d="M0.5 119.5H228.5V135C228.5 139.142 225.142 142.5 221 142.5H8.00001C3.85787 142.5 0.5 139.142 0.5 135V119.5Z" stroke="#5452F6"/>
</g>
<line x1="0.5" y1="79.5" x2="228.5" y2="79.5" stroke="#5452F6"/>
<line x1="0.5" y1="39.5" x2="228.5" y2="39.5" stroke="#5452F6"/>
<path d="M101.789 105H99.8906V96.5469H101.789V105ZM99.7734 94.3516C99.7734 94.0599 99.8646 93.8177 100.047 93.625C100.234 93.4323 100.5 93.3359 100.844 93.3359C101.188 93.3359 101.453 93.4323 101.641 93.625C101.828 93.8177 101.922 94.0599 101.922 94.3516C101.922 94.638 101.828 94.8776 101.641 95.0703C101.453 95.2578 101.188 95.3516 100.844 95.3516C100.5 95.3516 100.234 95.2578 100.047 95.0703C99.8646 94.8776 99.7734 94.638 99.7734 94.3516ZM105.625 96.5469L105.68 97.5234C106.305 96.7682 107.125 96.3906 108.141 96.3906C109.901 96.3906 110.797 97.3984 110.828 99.4141V105H108.93V99.5234C108.93 98.987 108.812 98.5911 108.578 98.3359C108.349 98.0755 107.971 97.9453 107.445 97.9453C106.68 97.9453 106.109 98.2917 105.734 98.9844V105H103.836V96.5469H105.625ZM115.148 94.4922V96.5469H116.641V97.9531H115.148V102.672C115.148 102.995 115.211 103.229 115.336 103.375C115.466 103.516 115.695 103.586 116.023 103.586C116.242 103.586 116.464 103.56 116.688 103.508V104.977C116.255 105.096 115.839 105.156 115.438 105.156C113.979 105.156 113.25 104.352 113.25 102.742V97.9531H111.859V96.5469H113.25V94.4922H115.148ZM124.156 98.4453H125.312C125.896 98.4401 126.357 98.2891 126.695 97.9922C127.039 97.6953 127.211 97.2656 127.211 96.7031C127.211 96.1615 127.068 95.7422 126.781 95.4453C126.5 95.1432 126.068 94.9922 125.484 94.9922C124.974 94.9922 124.555 95.1406 124.227 95.4375C123.898 95.7292 123.734 96.112 123.734 96.5859H121.836C121.836 96.0026 121.99 95.4714 122.297 94.9922C122.609 94.513 123.042 94.1406 123.594 93.875C124.151 93.6042 124.773 93.4688 125.461 93.4688C126.596 93.4688 127.487 93.7552 128.133 94.3281C128.784 94.8958 129.109 95.6875 129.109 96.7031C129.109 97.2135 128.945 97.6953 128.617 98.1484C128.294 98.5964 127.875 98.9349 127.359 99.1641C127.984 99.3776 128.458 99.7135 128.781 100.172C129.109 100.63 129.273 101.177 129.273 101.812C129.273 102.833 128.922 103.646 128.219 104.25C127.521 104.854 126.602 105.156 125.461 105.156C124.367 105.156 123.471 104.865 122.773 104.281C122.076 103.698 121.727 102.922 121.727 101.953H123.625C123.625 102.453 123.792 102.859 124.125 103.172C124.464 103.484 124.917 103.641 125.484 103.641C126.073 103.641 126.536 103.484 126.875 103.172C127.214 102.859 127.383 102.406 127.383 101.812C127.383 101.214 127.206 100.753 126.852 100.43C126.497 100.107 125.971 99.9453 125.273 99.9453H124.156V98.4453Z" fill="#5452F6"/>
<path d="M101.789 65H99.8906V56.5469H101.789V65ZM99.7734 54.3516C99.7734 54.0599 99.8646 53.8177 100.047 53.625C100.234 53.4323 100.5 53.3359 100.844 53.3359C101.188 53.3359 101.453 53.4323 101.641 53.625C101.828 53.8177 101.922 54.0599 101.922 54.3516C101.922 54.638 101.828 54.8776 101.641 55.0703C101.453 55.2578 101.188 55.3516 100.844 55.3516C100.5 55.3516 100.234 55.2578 100.047 55.0703C99.8646 54.8776 99.7734 54.638 99.7734 54.3516ZM105.625 56.5469L105.68 57.5234C106.305 56.7682 107.125 56.3906 108.141 56.3906C109.901 56.3906 110.797 57.3984 110.828 59.4141V65H108.93V59.5234C108.93 58.987 108.812 58.5911 108.578 58.3359C108.349 58.0755 107.971 57.9453 107.445 57.9453C106.68 57.9453 106.109 58.2917 105.734 58.9844V65H103.836V56.5469H105.625ZM115.148 54.4922V56.5469H116.641V57.9531H115.148V62.6719C115.148 62.9948 115.211 63.2292 115.336 63.375C115.466 63.5156 115.695 63.5859 116.023 63.5859C116.242 63.5859 116.464 63.5599 116.688 63.5078V64.9766C116.255 65.0964 115.839 65.1562 115.438 65.1562C113.979 65.1562 113.25 64.3516 113.25 62.7422V57.9531H111.859V56.5469H113.25V54.4922H115.148ZM127.867 53.5703V55.1406H127.633C126.57 55.1562 125.721 55.4479 125.086 56.0156C124.451 56.5833 124.073 57.388 123.953 58.4297C124.562 57.7891 125.341 57.4688 126.289 57.4688C127.294 57.4688 128.086 57.8229 128.664 58.5312C129.247 59.2396 129.539 60.1536 129.539 61.2734C129.539 62.4297 129.198 63.3672 128.516 64.0859C127.839 64.7995 126.948 65.1562 125.844 65.1562C124.708 65.1562 123.786 64.737 123.078 63.8984C122.375 63.0599 122.023 61.9609 122.023 60.6016V59.9531C122.023 57.9583 122.508 56.3958 123.477 55.2656C124.451 54.1354 125.849 53.5703 127.672 53.5703H127.867ZM125.828 59C125.411 59 125.029 59.1172 124.68 59.3516C124.336 59.5859 124.083 59.8984 123.922 60.2891V60.8672C123.922 61.7109 124.099 62.3828 124.453 62.8828C124.807 63.3776 125.266 63.625 125.828 63.625C126.391 63.625 126.836 63.4141 127.164 62.9922C127.492 62.5703 127.656 62.0156 127.656 61.3281C127.656 60.6406 127.49 60.0807 127.156 59.6484C126.823 59.2161 126.38 59 125.828 59Z" fill="#5452F6"/>
<path d="M86.1641 20.8594C86.1641 22.1719 85.8698 23.2161 85.2812 23.9922C84.6979 24.7682 83.8932 25.1562 82.8672 25.1562C81.8776 25.1562 81.1068 24.7995 80.5547 24.0859L80.4609 25H78.7422V13H80.6406V17.3594C81.1875 16.7135 81.9245 16.3906 82.8516 16.3906C83.8828 16.3906 84.6927 16.7734 85.2812 17.5391C85.8698 18.3047 86.1641 19.375 86.1641 20.75V20.8594ZM84.2656 20.6953C84.2656 19.7786 84.1042 19.0911 83.7812 18.6328C83.4583 18.1745 82.9896 17.9453 82.375 17.9453C81.5521 17.9453 80.974 18.3047 80.6406 19.0234V22.5078C80.9792 23.2422 81.5625 23.6094 82.3906 23.6094C82.9844 23.6094 83.4427 23.388 83.7656 22.9453C84.0885 22.5026 84.2552 21.8333 84.2656 20.9375V20.6953ZM87.4062 20.6953C87.4062 19.8672 87.5703 19.1224 87.8984 18.4609C88.2266 17.7943 88.6875 17.2839 89.2812 16.9297C89.875 16.5703 90.5573 16.3906 91.3281 16.3906C92.4688 16.3906 93.3932 16.7578 94.1016 17.4922C94.8151 18.2266 95.2005 19.2005 95.2578 20.4141L95.2656 20.8594C95.2656 21.6927 95.1042 22.4375 94.7812 23.0938C94.4635 23.75 94.0052 24.2578 93.4062 24.6172C92.8125 24.9766 92.125 25.1562 91.3438 25.1562C90.151 25.1562 89.1953 24.7604 88.4766 23.9688C87.763 23.1719 87.4062 22.112 87.4062 20.7891V20.6953ZM89.3047 20.8594C89.3047 21.7292 89.4844 22.4115 89.8438 22.9062C90.2031 23.3958 90.7031 23.6406 91.3438 23.6406C91.9844 23.6406 92.4818 23.3906 92.8359 22.8906C93.1953 22.3906 93.375 21.6589 93.375 20.6953C93.375 19.8411 93.1901 19.1641 92.8203 18.6641C92.4557 18.1641 91.9583 17.9141 91.3281 17.9141C90.7083 17.9141 90.2161 18.1615 89.8516 18.6562C89.487 19.1458 89.3047 19.8802 89.3047 20.8594ZM96.5156 20.6953C96.5156 19.8672 96.6797 19.1224 97.0078 18.4609C97.3359 17.7943 97.7969 17.2839 98.3906 16.9297C98.9844 16.5703 99.6667 16.3906 100.438 16.3906C101.578 16.3906 102.503 16.7578 103.211 17.4922C103.924 18.2266 104.31 19.2005 104.367 20.4141L104.375 20.8594C104.375 21.6927 104.214 22.4375 103.891 23.0938C103.573 23.75 103.115 24.2578 102.516 24.6172C101.922 24.9766 101.234 25.1562 100.453 25.1562C99.2604 25.1562 98.3047 24.7604 97.5859 23.9688C96.8724 23.1719 96.5156 22.112 96.5156 20.7891V20.6953ZM98.4141 20.8594C98.4141 21.7292 98.5938 22.4115 98.9531 22.9062C99.3125 23.3958 99.8125 23.6406 100.453 23.6406C101.094 23.6406 101.591 23.3906 101.945 22.8906C102.305 22.3906 102.484 21.6589 102.484 20.6953C102.484 19.8411 102.299 19.1641 101.93 18.6641C101.565 18.1641 101.068 17.9141 100.438 17.9141C99.8177 17.9141 99.3255 18.1615 98.9609 18.6562C98.5964 19.1458 98.4141 19.8802 98.4141 20.8594ZM108 25H106.102V13H108V25ZM120.797 20.1797H116.219V25H114.242V13.625H121.469V15.2188H116.219V18.6016H120.797V20.1797ZM127.641 25C127.557 24.8385 127.484 24.5755 127.422 24.2109C126.818 24.8411 126.078 25.1562 125.203 25.1562C124.354 25.1562 123.661 24.9141 123.125 24.4297C122.589 23.9453 122.32 23.3464 122.32 22.6328C122.32 21.7318 122.654 21.0417 123.32 20.5625C123.992 20.0781 124.951 19.8359 126.195 19.8359H127.359V19.2812C127.359 18.8438 127.237 18.4948 126.992 18.2344C126.747 17.9688 126.375 17.8359 125.875 17.8359C125.443 17.8359 125.089 17.9453 124.812 18.1641C124.536 18.3776 124.398 18.651 124.398 18.9844H122.5C122.5 18.5208 122.654 18.0885 122.961 17.6875C123.268 17.2812 123.685 16.9635 124.211 16.7344C124.742 16.5052 125.333 16.3906 125.984 16.3906C126.974 16.3906 127.763 16.6406 128.352 17.1406C128.94 17.6354 129.242 18.3333 129.258 19.2344V23.0469C129.258 23.8073 129.365 24.4141 129.578 24.8672V25H127.641ZM125.555 23.6328C125.93 23.6328 126.281 23.5417 126.609 23.3594C126.943 23.1771 127.193 22.9323 127.359 22.625V21.0312H126.336C125.633 21.0312 125.104 21.1536 124.75 21.3984C124.396 21.6432 124.219 21.9896 124.219 22.4375C124.219 22.8021 124.339 23.0938 124.578 23.3125C124.823 23.526 125.148 23.6328 125.555 23.6328ZM133.266 25H131.367V13H133.266V25ZM140.078 22.7031C140.078 22.3646 139.938 22.1068 139.656 21.9297C139.38 21.7526 138.919 21.5964 138.273 21.4609C137.628 21.3255 137.089 21.1536 136.656 20.9453C135.708 20.487 135.234 19.8229 135.234 18.9531C135.234 18.224 135.542 17.6146 136.156 17.125C136.771 16.6354 137.552 16.3906 138.5 16.3906C139.51 16.3906 140.326 16.6406 140.945 17.1406C141.57 17.6406 141.883 18.2891 141.883 19.0859H139.984C139.984 18.7214 139.849 18.4193 139.578 18.1797C139.307 17.9349 138.948 17.8125 138.5 17.8125C138.083 17.8125 137.742 17.9089 137.477 18.1016C137.216 18.2943 137.086 18.5521 137.086 18.875C137.086 19.1667 137.208 19.3932 137.453 19.5547C137.698 19.7161 138.193 19.8802 138.938 20.0469C139.682 20.2083 140.266 20.4036 140.688 20.6328C141.115 20.8568 141.43 21.1276 141.633 21.4453C141.841 21.763 141.945 22.1484 141.945 22.6016C141.945 23.362 141.63 23.9792 141 24.4531C140.37 24.9219 139.544 25.1562 138.523 25.1562C137.831 25.1562 137.214 25.0312 136.672 24.7812C136.13 24.5312 135.708 24.1875 135.406 23.75C135.104 23.3125 134.953 22.8411 134.953 22.3359H136.797C136.823 22.7839 136.992 23.1302 137.305 23.375C137.617 23.6146 138.031 23.7344 138.547 23.7344C139.047 23.7344 139.427 23.6406 139.688 23.4531C139.948 23.2604 140.078 23.0104 140.078 22.7031ZM147.328 25.1562C146.125 25.1562 145.148 24.7786 144.398 24.0234C143.654 23.263 143.281 22.2526 143.281 20.9922V20.7578C143.281 19.9141 143.443 19.1615 143.766 18.5C144.094 17.8333 144.552 17.3151 145.141 16.9453C145.729 16.5755 146.385 16.3906 147.109 16.3906C148.26 16.3906 149.148 16.7578 149.773 17.4922C150.404 18.2266 150.719 19.2656 150.719 20.6094V21.375H145.195C145.253 22.0729 145.484 22.625 145.891 23.0312C146.302 23.4375 146.818 23.6406 147.438 23.6406C148.307 23.6406 149.016 23.2891 149.562 22.5859L150.586 23.5625C150.247 24.0677 149.794 24.4609 149.227 24.7422C148.664 25.0182 148.031 25.1562 147.328 25.1562ZM147.102 17.9141C146.581 17.9141 146.159 18.0964 145.836 18.4609C145.518 18.8255 145.315 19.3333 145.227 19.9844H148.844V19.8438C148.802 19.2083 148.633 18.7292 148.336 18.4062C148.039 18.0781 147.628 17.9141 147.102 17.9141Z" fill="#5452F6"/>
<line x1="255" y1="119.5" x2="389" y2="119.5" stroke="#65BF73" stroke-width="2"/>
<path d="M379 110L389.5 119.5L379 128.5" stroke="#65BF73" stroke-width="2" stroke-linecap="round" stroke-linejoin="round"/>
<circle cx="250.5" cy="120" r="5.5" stroke="#65BF73" stroke-width="2"/>
<path d="M311.586 105H309.617V93.625H311.586V105ZM320.57 100.18H315.992V105H314.016V93.625H321.242V95.2188H315.992V98.6016H320.57V100.18Z" fill="#65BF73"/>
<g filter="url(#filter2_d)">
<path d="M401 48C401 43.5817 404.582 40 409 40H622C626.418 40 630 43.5817 630 48V120H401V48Z" fill="white"/>
<path d="M409 40.5H622C626.142 40.5 629.5 43.8579 629.5 48V119.5H401.5V48C401.5 43.8579 404.858 40.5 409 40.5Z" stroke="#5452F6"/>
</g>
<g filter="url(#filter3_d)">
<path d="M401 119H630V135C630 139.418 626.418 143 622 143H409C404.582 143 401 139.418 401 135V119Z" fill="#EEEEFF"/>
<path d="M401.5 119.5H629.5V135C629.5 139.142 626.142 142.5 622 142.5H409C404.858 142.5 401.5 139.142 401.5 135V119.5Z" stroke="#5452F6"/>
</g>
<line x1="401.5" y1="79.5" x2="629.5" y2="79.5" stroke="#5452F6"/>
<path d="M502.789 105H500.891V96.5469H502.789V105ZM500.773 94.3516C500.773 94.0599 500.865 93.8177 501.047 93.625C501.234 93.4323 501.5 93.3359 501.844 93.3359C502.188 93.3359 502.453 93.4323 502.641 93.625C502.828 93.8177 502.922 94.0599 502.922 94.3516C502.922 94.638 502.828 94.8776 502.641 95.0703C502.453 95.2578 502.188 95.3516 501.844 95.3516C501.5 95.3516 501.234 95.2578 501.047 95.0703C500.865 94.8776 500.773 94.638 500.773 94.3516ZM506.625 96.5469L506.68 97.5234C507.305 96.7682 508.125 96.3906 509.141 96.3906C510.901 96.3906 511.797 97.3984 511.828 99.4141V105H509.93V99.5234C509.93 98.987 509.812 98.5911 509.578 98.3359C509.349 98.0755 508.971 97.9453 508.445 97.9453C507.68 97.9453 507.109 98.2917 506.734 98.9844V105H504.836V96.5469H506.625ZM516.148 94.4922V96.5469H517.641V97.9531H516.148V102.672C516.148 102.995 516.211 103.229 516.336 103.375C516.466 103.516 516.695 103.586 517.023 103.586C517.242 103.586 517.464 103.56 517.688 103.508V104.977C517.255 105.096 516.839 105.156 516.438 105.156C514.979 105.156 514.25 104.352 514.25 102.742V97.9531H512.859V96.5469H514.25V94.4922H516.148ZM525.156 98.4453H526.312C526.896 98.4401 527.357 98.2891 527.695 97.9922C528.039 97.6953 528.211 97.2656 528.211 96.7031C528.211 96.1615 528.068 95.7422 527.781 95.4453C527.5 95.1432 527.068 94.9922 526.484 94.9922C525.974 94.9922 525.555 95.1406 525.227 95.4375C524.898 95.7292 524.734 96.112 524.734 96.5859H522.836C522.836 96.0026 522.99 95.4714 523.297 94.9922C523.609 94.513 524.042 94.1406 524.594 93.875C525.151 93.6042 525.773 93.4688 526.461 93.4688C527.596 93.4688 528.487 93.7552 529.133 94.3281C529.784 94.8958 530.109 95.6875 530.109 96.7031C530.109 97.2135 529.945 97.6953 529.617 98.1484C529.294 98.5964 528.875 98.9349 528.359 99.1641C528.984 99.3776 529.458 99.7135 529.781 100.172C530.109 100.63 530.273 101.177 530.273 101.812C530.273 102.833 529.922 103.646 529.219 104.25C528.521 104.854 527.602 105.156 526.461 105.156C525.367 105.156 524.471 104.865 523.773 104.281C523.076 103.698 522.727 102.922 522.727 101.953H524.625C524.625 102.453 524.792 102.859 525.125 103.172C525.464 103.484 525.917 103.641 526.484 103.641C527.073 103.641 527.536 103.484 527.875 103.172C528.214 102.859 528.383 102.406 528.383 101.812C528.383 101.214 528.206 100.753 527.852 100.43C527.497 100.107 526.971 99.9453 526.273 99.9453H525.156V98.4453Z" fill="#5452F6"/>
<path d="M502.789 65H500.891V56.5469H502.789V65ZM500.773 54.3516C500.773 54.0599 500.865 53.8177 501.047 53.625C501.234 53.4323 501.5 53.3359 501.844 53.3359C502.188 53.3359 502.453 53.4323 502.641 53.625C502.828 53.8177 502.922 54.0599 502.922 54.3516C502.922 54.638 502.828 54.8776 502.641 55.0703C502.453 55.2578 502.188 55.3516 501.844 55.3516C501.5 55.3516 501.234 55.2578 501.047 55.0703C500.865 54.8776 500.773 54.638 500.773 54.3516ZM506.625 56.5469L506.68 57.5234C507.305 56.7682 508.125 56.3906 509.141 56.3906C510.901 56.3906 511.797 57.3984 511.828 59.4141V65H509.93V59.5234C509.93 58.987 509.812 58.5911 509.578 58.3359C509.349 58.0755 508.971 57.9453 508.445 57.9453C507.68 57.9453 507.109 58.2917 506.734 58.9844V65H504.836V56.5469H506.625ZM516.148 54.4922V56.5469H517.641V57.9531H516.148V62.6719C516.148 62.9948 516.211 63.2292 516.336 63.375C516.466 63.5156 516.695 63.5859 517.023 63.5859C517.242 63.5859 517.464 63.5599 517.688 63.5078V64.9766C517.255 65.0964 516.839 65.1562 516.438 65.1562C514.979 65.1562 514.25 64.3516 514.25 62.7422V57.9531H512.859V56.5469H514.25V54.4922H516.148ZM528.867 53.5703V55.1406H528.633C527.57 55.1562 526.721 55.4479 526.086 56.0156C525.451 56.5833 525.073 57.388 524.953 58.4297C525.562 57.7891 526.341 57.4688 527.289 57.4688C528.294 57.4688 529.086 57.8229 529.664 58.5312C530.247 59.2396 530.539 60.1536 530.539 61.2734C530.539 62.4297 530.198 63.3672 529.516 64.0859C528.839 64.7995 527.948 65.1562 526.844 65.1562C525.708 65.1562 524.786 64.737 524.078 63.8984C523.375 63.0599 523.023 61.9609 523.023 60.6016V59.9531C523.023 57.9583 523.508 56.3958 524.477 55.2656C525.451 54.1354 526.849 53.5703 528.672 53.5703H528.867ZM526.828 59C526.411 59 526.029 59.1172 525.68 59.3516C525.336 59.5859 525.083 59.8984 524.922 60.2891V60.8672C524.922 61.7109 525.099 62.3828 525.453 62.8828C525.807 63.3776 526.266 63.625 526.828 63.625C527.391 63.625 527.836 63.4141 528.164 62.9922C528.492 62.5703 528.656 62.0156 528.656 61.3281C528.656 60.6406 528.49 60.0807 528.156 59.6484C527.823 59.2161 527.38 59 526.828 59Z" fill="#5452F6"/>
<line x1="658" y1="119.5" x2="792" y2="119.5" stroke="#65BF73" stroke-width="2"/>
<path d="M782 110L792.5 119.5L782 128.5" stroke="#65BF73" stroke-width="2" stroke-linecap="round" stroke-linejoin="round"/>
<circle cx="653.5" cy="120" r="5.5" stroke="#65BF73" stroke-width="2"/>
<path d="M703.461 102.07C703.461 101.57 703.284 101.185 702.93 100.914C702.581 100.643 701.948 100.37 701.031 100.094C700.115 99.8177 699.385 99.5104 698.844 99.1719C697.807 98.5208 697.289 97.6719 697.289 96.625C697.289 95.7083 697.661 94.9531 698.406 94.3594C699.156 93.7656 700.128 93.4688 701.32 93.4688C702.112 93.4688 702.818 93.6146 703.438 93.9062C704.057 94.1979 704.544 94.6146 704.898 95.1562C705.253 95.6927 705.43 96.2891 705.43 96.9453H703.461C703.461 96.3516 703.273 95.888 702.898 95.5547C702.529 95.2161 701.997 95.0469 701.305 95.0469C700.659 95.0469 700.156 95.1849 699.797 95.4609C699.443 95.737 699.266 96.1224 699.266 96.6172C699.266 97.0339 699.458 97.3828 699.844 97.6641C700.229 97.9401 700.865 98.2109 701.75 98.4766C702.635 98.737 703.346 99.0365 703.883 99.375C704.419 99.7083 704.812 100.094 705.062 100.531C705.312 100.964 705.438 101.471 705.438 102.055C705.438 103.003 705.073 103.758 704.344 104.32C703.62 104.878 702.635 105.156 701.391 105.156C700.568 105.156 699.81 105.005 699.117 104.703C698.43 104.396 697.893 103.974 697.508 103.438C697.128 102.901 696.938 102.276 696.938 101.562H698.914C698.914 102.208 699.128 102.708 699.555 103.062C699.982 103.417 700.594 103.594 701.391 103.594C702.078 103.594 702.594 103.456 702.938 103.18C703.286 102.898 703.461 102.529 703.461 102.07ZM716.094 102.188L717.844 93.625H719.805L717.18 105H715.289L713.125 96.6953L710.914 105H709.016L706.391 93.625H708.352L710.117 102.172L712.289 93.625H713.945L716.094 102.188ZM727.273 102.352H722.867L721.945 105H719.891L724.188 93.625H725.961L730.266 105H728.203L727.273 102.352ZM723.422 100.758H726.719L725.07 96.0391L723.422 100.758ZM733.539 100.773V105H731.562V93.625H735.914C737.185 93.625 738.193 93.9557 738.938 94.6172C739.688 95.2786 740.062 96.1536 740.062 97.2422C740.062 98.3568 739.695 99.224 738.961 99.8438C738.232 100.464 737.208 100.773 735.891 100.773H733.539ZM733.539 99.1875H735.914C736.617 99.1875 737.154 99.0234 737.523 98.6953C737.893 98.362 738.078 97.8828 738.078 97.2578C738.078 96.6432 737.891 96.1536 737.516 95.7891C737.141 95.4193 736.625 95.2292 735.969 95.2188H733.539V99.1875Z" fill="#65BF73"/>
<g filter="url(#filter4_d)">
<path d="M1201 88C1201 83.5817 1204.58 80 1209 80H1422C1426.42 80 1430 83.5817 1430 88V120H1201V88Z" fill="white"/>
<path d="M1209 80.5H1422C1426.14 80.5 1429.5 83.8579 1429.5 88V119.5H1201.5V88C1201.5 83.8579 1204.86 80.5 1209 80.5Z" stroke="#5452F6"/>
</g>
<g filter="url(#filter5_d)">
<path d="M1201 119H1430V135C1430 139.418 1426.42 143 1422 143H1209C1204.58 143 1201 139.418 1201 135V119Z" fill="#EEEEFF"/>
<path d="M1201.5 119.5H1429.5V135C1429.5 139.142 1426.14 142.5 1422 142.5H1209C1204.86 142.5 1201.5 139.142 1201.5 135V119.5Z" stroke="#5452F6"/>
</g>
<path d="M1302.79 105H1300.89V96.5469H1302.79V105ZM1300.77 94.3516C1300.77 94.0599 1300.86 93.8177 1301.05 93.625C1301.23 93.4323 1301.5 93.3359 1301.84 93.3359C1302.19 93.3359 1302.45 93.4323 1302.64 93.625C1302.83 93.8177 1302.92 94.0599 1302.92 94.3516C1302.92 94.638 1302.83 94.8776 1302.64 95.0703C1302.45 95.2578 1302.19 95.3516 1301.84 95.3516C1301.5 95.3516 1301.23 95.2578 1301.05 95.0703C1300.86 94.8776 1300.77 94.638 1300.77 94.3516ZM1306.62 96.5469L1306.68 97.5234C1307.3 96.7682 1308.12 96.3906 1309.14 96.3906C1310.9 96.3906 1311.8 97.3984 1311.83 99.4141V105H1309.93V99.5234C1309.93 98.987 1309.81 98.5911 1309.58 98.3359C1309.35 98.0755 1308.97 97.9453 1308.45 97.9453C1307.68 97.9453 1307.11 98.2917 1306.73 98.9844V105H1304.84V96.5469H1306.62ZM1316.15 94.4922V96.5469H1317.64V97.9531H1316.15V102.672C1316.15 102.995 1316.21 103.229 1316.34 103.375C1316.47 103.516 1316.7 103.586 1317.02 103.586C1317.24 103.586 1317.46 103.56 1317.69 103.508V104.977C1317.26 105.096 1316.84 105.156 1316.44 105.156C1314.98 105.156 1314.25 104.352 1314.25 102.742V97.9531H1312.86V96.5469H1314.25V94.4922H1316.15ZM1328.87 93.5703V95.1406H1328.63C1327.57 95.1562 1326.72 95.4479 1326.09 96.0156C1325.45 96.5833 1325.07 97.388 1324.95 98.4297C1325.56 97.7891 1326.34 97.4688 1327.29 97.4688C1328.29 97.4688 1329.09 97.8229 1329.66 98.5312C1330.25 99.2396 1330.54 100.154 1330.54 101.273C1330.54 102.43 1330.2 103.367 1329.52 104.086C1328.84 104.799 1327.95 105.156 1326.84 105.156C1325.71 105.156 1324.79 104.737 1324.08 103.898C1323.38 103.06 1323.02 101.961 1323.02 100.602V99.9531C1323.02 97.9583 1323.51 96.3958 1324.48 95.2656C1325.45 94.1354 1326.85 93.5703 1328.67 93.5703H1328.87ZM1326.83 99C1326.41 99 1326.03 99.1172 1325.68 99.3516C1325.34 99.5859 1325.08 99.8984 1324.92 100.289V100.867C1324.92 101.711 1325.1 102.383 1325.45 102.883C1325.81 103.378 1326.27 103.625 1326.83 103.625C1327.39 103.625 1327.84 103.414 1328.16 102.992C1328.49 102.57 1328.66 102.016 1328.66 101.328C1328.66 100.641 1328.49 100.081 1328.16 99.6484C1327.82 99.2161 1327.38 99 1326.83 99Z" fill="#5452F6"/>
<g filter="url(#filter6_d)">
<path d="M801 48C801 43.5817 804.582 40 809 40H1022C1026.42 40 1030 43.5817 1030 48V120H801V48Z" fill="white"/>
<path d="M809 40.5H1022C1026.14 40.5 1029.5 43.8579 1029.5 48V119.5H801.5V48C801.5 43.8579 804.858 40.5 809 40.5Z" stroke="#5452F6"/>
</g>
<g filter="url(#filter7_d)">
<path d="M801 119H1030V135C1030 139.418 1026.42 143 1022 143H809C804.582 143 801 139.418 801 135V119Z" fill="#EEEEFF"/>
<path d="M801.5 119.5H1029.5V135C1029.5 139.142 1026.14 142.5 1022 142.5H809C804.858 142.5 801.5 139.142 801.5 135V119.5Z" stroke="#5452F6"/>
</g>
<line x1="801.5" y1="79.5" x2="1029.5" y2="79.5" stroke="#5452F6"/>
<path d="M902.789 105H900.891V96.5469H902.789V105ZM900.773 94.3516C900.773 94.0599 900.865 93.8177 901.047 93.625C901.234 93.4323 901.5 93.3359 901.844 93.3359C902.188 93.3359 902.453 93.4323 902.641 93.625C902.828 93.8177 902.922 94.0599 902.922 94.3516C902.922 94.638 902.828 94.8776 902.641 95.0703C902.453 95.2578 902.188 95.3516 901.844 95.3516C901.5 95.3516 901.234 95.2578 901.047 95.0703C900.865 94.8776 900.773 94.638 900.773 94.3516ZM906.625 96.5469L906.68 97.5234C907.305 96.7682 908.125 96.3906 909.141 96.3906C910.901 96.3906 911.797 97.3984 911.828 99.4141V105H909.93V99.5234C909.93 98.987 909.812 98.5911 909.578 98.3359C909.349 98.0755 908.971 97.9453 908.445 97.9453C907.68 97.9453 907.109 98.2917 906.734 98.9844V105H904.836V96.5469H906.625ZM916.148 94.4922V96.5469H917.641V97.9531H916.148V102.672C916.148 102.995 916.211 103.229 916.336 103.375C916.466 103.516 916.695 103.586 917.023 103.586C917.242 103.586 917.464 103.56 917.688 103.508V104.977C917.255 105.096 916.839 105.156 916.438 105.156C914.979 105.156 914.25 104.352 914.25 102.742V97.9531H912.859V96.5469H914.25V94.4922H916.148ZM928.867 93.5703V95.1406H928.633C927.57 95.1562 926.721 95.4479 926.086 96.0156C925.451 96.5833 925.073 97.388 924.953 98.4297C925.562 97.7891 926.341 97.4688 927.289 97.4688C928.294 97.4688 929.086 97.8229 929.664 98.5312C930.247 99.2396 930.539 100.154 930.539 101.273C930.539 102.43 930.198 103.367 929.516 104.086C928.839 104.799 927.948 105.156 926.844 105.156C925.708 105.156 924.786 104.737 924.078 103.898C923.375 103.06 923.023 101.961 923.023 100.602V99.9531C923.023 97.9583 923.508 96.3958 924.477 95.2656C925.451 94.1354 926.849 93.5703 928.672 93.5703H928.867ZM926.828 99C926.411 99 926.029 99.1172 925.68 99.3516C925.336 99.5859 925.083 99.8984 924.922 100.289V100.867C924.922 101.711 925.099 102.383 925.453 102.883C925.807 103.378 926.266 103.625 926.828 103.625C927.391 103.625 927.836 103.414 928.164 102.992C928.492 102.57 928.656 102.016 928.656 101.328C928.656 100.641 928.49 100.081 928.156 99.6484C927.823 99.2161 927.38 99 926.828 99Z" fill="#5452F6"/>
<path d="M902.789 65H900.891V56.5469H902.789V65ZM900.773 54.3516C900.773 54.0599 900.865 53.8177 901.047 53.625C901.234 53.4323 901.5 53.3359 901.844 53.3359C902.188 53.3359 902.453 53.4323 902.641 53.625C902.828 53.8177 902.922 54.0599 902.922 54.3516C902.922 54.638 902.828 54.8776 902.641 55.0703C902.453 55.2578 902.188 55.3516 901.844 55.3516C901.5 55.3516 901.234 55.2578 901.047 55.0703C900.865 54.8776 900.773 54.638 900.773 54.3516ZM906.625 56.5469L906.68 57.5234C907.305 56.7682 908.125 56.3906 909.141 56.3906C910.901 56.3906 911.797 57.3984 911.828 59.4141V65H909.93V59.5234C909.93 58.987 909.812 58.5911 909.578 58.3359C909.349 58.0755 908.971 57.9453 908.445 57.9453C907.68 57.9453 907.109 58.2917 906.734 58.9844V65H904.836V56.5469H906.625ZM916.148 54.4922V56.5469H917.641V57.9531H916.148V62.6719C916.148 62.9948 916.211 63.2292 916.336 63.375C916.466 63.5156 916.695 63.5859 917.023 63.5859C917.242 63.5859 917.464 63.5599 917.688 63.5078V64.9766C917.255 65.0964 916.839 65.1562 916.438 65.1562C914.979 65.1562 914.25 64.3516 914.25 62.7422V57.9531H912.859V56.5469H914.25V54.4922H916.148ZM925.156 58.4453H926.312C926.896 58.4401 927.357 58.2891 927.695 57.9922C928.039 57.6953 928.211 57.2656 928.211 56.7031C928.211 56.1615 928.068 55.7422 927.781 55.4453C927.5 55.1432 927.068 54.9922 926.484 54.9922C925.974 54.9922 925.555 55.1406 925.227 55.4375C924.898 55.7292 924.734 56.112 924.734 56.5859H922.836C922.836 56.0026 922.99 55.4714 923.297 54.9922C923.609 54.513 924.042 54.1406 924.594 53.875C925.151 53.6042 925.773 53.4688 926.461 53.4688C927.596 53.4688 928.487 53.7552 929.133 54.3281C929.784 54.8958 930.109 55.6875 930.109 56.7031C930.109 57.2135 929.945 57.6953 929.617 58.1484C929.294 58.5964 928.875 58.9349 928.359 59.1641C928.984 59.3776 929.458 59.7135 929.781 60.1719C930.109 60.6302 930.273 61.1771 930.273 61.8125C930.273 62.8333 929.922 63.6458 929.219 64.25C928.521 64.8542 927.602 65.1562 926.461 65.1562C925.367 65.1562 924.471 64.8646 923.773 64.2812C923.076 63.6979 922.727 62.9219 922.727 61.9531H924.625C924.625 62.4531 924.792 62.8594 925.125 63.1719C925.464 63.4844 925.917 63.6406 926.484 63.6406C927.073 63.6406 927.536 63.4844 927.875 63.1719C928.214 62.8594 928.383 62.4062 928.383 61.8125C928.383 61.2135 928.206 60.7526 927.852 60.4297C927.497 60.1068 926.971 59.9453 926.273 59.9453H925.156V58.4453Z" fill="#5452F6"/>
<line x1="1058" y1="119.5" x2="1192" y2="119.5" stroke="#65BF73" stroke-width="2"/>
<path d="M1182 110L1192.5 119.5L1182 128.5" stroke="#65BF73" stroke-width="2" stroke-linecap="round" stroke-linejoin="round"/>
<circle cx="1053.5" cy="120" r="5.5" stroke="#65BF73" stroke-width="2"/>
<path d="M1098.3 105V93.625H1101.66C1102.66 93.625 1103.55 93.849 1104.33 94.2969C1105.11 94.7448 1105.71 95.3802 1106.14 96.2031C1106.57 97.026 1106.78 97.9688 1106.78 99.0312V99.6016C1106.78 100.68 1106.57 101.628 1106.13 102.445C1105.71 103.263 1105.09 103.893 1104.3 104.336C1103.51 104.779 1102.6 105 1101.57 105H1098.3ZM1100.27 95.2188V103.422H1101.56C1102.6 103.422 1103.39 103.099 1103.95 102.453C1104.5 101.802 1104.79 100.87 1104.8 99.6562V99.0234C1104.8 97.7891 1104.53 96.8464 1103.99 96.1953C1103.46 95.5443 1102.68 95.2188 1101.66 95.2188H1100.27ZM1112.93 100.617H1110.73V105H1108.75V93.625H1112.75C1114.06 93.625 1115.08 93.9193 1115.79 94.5078C1116.5 95.0964 1116.86 95.9479 1116.86 97.0625C1116.86 97.8229 1116.67 98.4609 1116.3 98.9766C1115.94 99.487 1115.43 99.8802 1114.77 100.156L1117.33 104.898V105H1115.21L1112.93 100.617ZM1110.73 99.0312H1112.76C1113.42 99.0312 1113.95 98.8646 1114.32 98.5312C1114.7 98.1927 1114.88 97.7318 1114.88 97.1484C1114.88 96.5391 1114.71 96.0677 1114.36 95.7344C1114.02 95.401 1113.5 95.2292 1112.81 95.2188H1110.73V99.0312ZM1127.81 99.6094C1127.81 100.724 1127.62 101.703 1127.23 102.547C1126.85 103.385 1126.3 104.031 1125.58 104.484C1124.86 104.932 1124.04 105.156 1123.11 105.156C1122.19 105.156 1121.36 104.932 1120.64 104.484C1119.92 104.031 1119.36 103.388 1118.97 102.555C1118.58 101.721 1118.38 100.76 1118.38 99.6719V99.0312C1118.38 97.9219 1118.57 96.9427 1118.96 96.0938C1119.36 95.2448 1119.91 94.5964 1120.62 94.1484C1121.34 93.6953 1122.17 93.4688 1123.09 93.4688C1124.02 93.4688 1124.84 93.6927 1125.55 94.1406C1126.27 94.5833 1126.83 95.224 1127.22 96.0625C1127.61 96.8958 1127.81 97.8672 1127.81 98.9766V99.6094ZM1125.84 99.0156C1125.84 97.7552 1125.6 96.7891 1125.12 96.1172C1124.64 95.4453 1123.97 95.1094 1123.09 95.1094C1122.24 95.1094 1121.57 95.4453 1121.09 96.1172C1120.61 96.7839 1120.36 97.7292 1120.35 98.9531V99.6094C1120.35 100.859 1120.59 101.826 1121.08 102.508C1121.57 103.19 1122.24 103.531 1123.11 103.531C1123.98 103.531 1124.66 103.198 1125.12 102.531C1125.6 101.865 1125.84 100.891 1125.84 99.6094V99.0156ZM1131.76 100.773V105H1129.78V93.625H1134.13C1135.4 93.625 1136.41 93.9557 1137.16 94.6172C1137.91 95.2786 1138.28 96.1536 1138.28 97.2422C1138.28 98.3568 1137.91 99.224 1137.18 99.8438C1136.45 100.464 1135.43 100.773 1134.11 100.773H1131.76ZM1131.76 99.1875H1134.13C1134.84 99.1875 1135.37 99.0234 1135.74 98.6953C1136.11 98.362 1136.3 97.8828 1136.3 97.2578C1136.3 96.6432 1136.11 96.1536 1135.73 95.7891C1135.36 95.4193 1134.84 95.2292 1134.19 95.2188H1131.76V99.1875Z" fill="#65BF73"/>
<defs>
<filter id="filter0_d" x="0" y="0" width="233" height="124" filterUnits="userSpaceOnUse" color-interpolation-filters="sRGB">
<feFlood flood-opacity="0" result="BackgroundImageFix"/>
<feColorMatrix in="SourceAlpha" type="matrix" values="0 0 0 0 0 0 0 0 0 0 0 0 0 0 0 0 0 0 127 0"/>
<feOffset dx="4" dy="4"/>
<feColorMatrix type="matrix" values="0 0 0 0 0.674908 0 0 0 0 0.662083 0 0 0 0 0.945833 0 0 0 1 0"/>
<feBlend mode="normal" in2="BackgroundImageFix" result="effect1_dropShadow"/>
<feBlend mode="normal" in="SourceGraphic" in2="effect1_dropShadow" result="shape"/>
</filter>
<filter id="filter1_d" x="0" y="119" width="233" height="28" filterUnits="userSpaceOnUse" color-interpolation-filters="sRGB">
<feFlood flood-opacity="0" result="BackgroundImageFix"/>
<feColorMatrix in="SourceAlpha" type="matrix" values="0 0 0 0 0 0 0 0 0 0 0 0 0 0 0 0 0 0 127 0"/>
<feOffset dx="4" dy="4"/>
<feColorMatrix type="matrix" values="0 0 0 0 0.674908 0 0 0 0 0.662083 0 0 0 0 0.945833 0 0 0 1 0"/>
<feBlend mode="normal" in2="BackgroundImageFix" result="effect1_dropShadow"/>
<feBlend mode="normal" in="SourceGraphic" in2="effect1_dropShadow" result="shape"/>
</filter>
<filter id="filter2_d" x="401" y="40" width="233" height="84" filterUnits="userSpaceOnUse" color-interpolation-filters="sRGB">
<feFlood flood-opacity="0" result="BackgroundImageFix"/>
<feColorMatrix in="SourceAlpha" type="matrix" values="0 0 0 0 0 0 0 0 0 0 0 0 0 0 0 0 0 0 127 0"/>
<feOffset dx="4" dy="4"/>
<feColorMatrix type="matrix" values="0 0 0 0 0.674908 0 0 0 0 0.662083 0 0 0 0 0.945833 0 0 0 1 0"/>
<feBlend mode="normal" in2="BackgroundImageFix" result="effect1_dropShadow"/>
<feBlend mode="normal" in="SourceGraphic" in2="effect1_dropShadow" result="shape"/>
</filter>
<filter id="filter3_d" x="401" y="119" width="233" height="28" filterUnits="userSpaceOnUse" color-interpolation-filters="sRGB">
<feFlood flood-opacity="0" result="BackgroundImageFix"/>
<feColorMatrix in="SourceAlpha" type="matrix" values="0 0 0 0 0 0 0 0 0 0 0 0 0 0 0 0 0 0 127 0"/>
<feOffset dx="4" dy="4"/>
<feColorMatrix type="matrix" values="0 0 0 0 0.674908 0 0 0 0 0.662083 0 0 0 0 0.945833 0 0 0 1 0"/>
<feBlend mode="normal" in2="BackgroundImageFix" result="effect1_dropShadow"/>
<feBlend mode="normal" in="SourceGraphic" in2="effect1_dropShadow" result="shape"/>
</filter>
<filter id="filter4_d" x="1201" y="80" width="233" height="44" filterUnits="userSpaceOnUse" color-interpolation-filters="sRGB">
<feFlood flood-opacity="0" result="BackgroundImageFix"/>
<feColorMatrix in="SourceAlpha" type="matrix" values="0 0 0 0 0 0 0 0 0 0 0 0 0 0 0 0 0 0 127 0"/>
<feOffset dx="4" dy="4"/>
<feColorMatrix type="matrix" values="0 0 0 0 0.674908 0 0 0 0 0.662083 0 0 0 0 0.945833 0 0 0 1 0"/>
<feBlend mode="normal" in2="BackgroundImageFix" result="effect1_dropShadow"/>
<feBlend mode="normal" in="SourceGraphic" in2="effect1_dropShadow" result="shape"/>
</filter>
<filter id="filter5_d" x="1201" y="119" width="233" height="28" filterUnits="userSpaceOnUse" color-interpolation-filters="sRGB">
<feFlood flood-opacity="0" result="BackgroundImageFix"/>
<feColorMatrix in="SourceAlpha" type="matrix" values="0 0 0 0 0 0 0 0 0 0 0 0 0 0 0 0 0 0 127 0"/>
<feOffset dx="4" dy="4"/>
<feColorMatrix type="matrix" values="0 0 0 0 0.674908 0 0 0 0 0.662083 0 0 0 0 0.945833 0 0 0 1 0"/>
<feBlend mode="normal" in2="BackgroundImageFix" result="effect1_dropShadow"/>
<feBlend mode="normal" in="SourceGraphic" in2="effect1_dropShadow" result="shape"/>
</filter>
<filter id="filter6_d" x="801" y="40" width="233" height="84" filterUnits="userSpaceOnUse" color-interpolation-filters="sRGB">
<feFlood flood-opacity="0" result="BackgroundImageFix"/>
<feColorMatrix in="SourceAlpha" type="matrix" values="0 0 0 0 0 0 0 0 0 0 0 0 0 0 0 0 0 0 127 0"/>
<feOffset dx="4" dy="4"/>
<feColorMatrix type="matrix" values="0 0 0 0 0.674908 0 0 0 0 0.662083 0 0 0 0 0.945833 0 0 0 1 0"/>
<feBlend mode="normal" in2="BackgroundImageFix" result="effect1_dropShadow"/>
<feBlend mode="normal" in="SourceGraphic" in2="effect1_dropShadow" result="shape"/>
</filter>
<filter id="filter7_d" x="801" y="119" width="233" height="28" filterUnits="userSpaceOnUse" color-interpolation-filters="sRGB">
<feFlood flood-opacity="0" result="BackgroundImageFix"/>
<feColorMatrix in="SourceAlpha" type="matrix" values="0 0 0 0 0 0 0 0 0 0 0 0 0 0 0 0 0 0 127 0"/>
<feOffset dx="4" dy="4"/>
<feColorMatrix type="matrix" values="0 0 0 0 0.674908 0 0 0 0 0.662083 0 0 0 0 0.945833 0 0 0 1 0"/>
<feBlend mode="normal" in2="BackgroundImageFix" result="effect1_dropShadow"/>
<feBlend mode="normal" in="SourceGraphic" in2="effect1_dropShadow" result="shape"/>
</filter>
</defs>
</svg>
