<svg width="633" height="147" viewBox="0 0 633 147" fill="none" xmlns="http://www.w3.org/2000/svg">
<line x1="252" y1="119.5" x2="386" y2="119.5" stroke="#65BF73" stroke-width="2"/>
<path d="M376 110L386.5 119.5L376 128.5" stroke="#65BF73" stroke-width="2" stroke-linecap="round" stroke-linejoin="round"/>
<circle cx="247.5" cy="120" r="5.5" stroke="#65BF73" stroke-width="2"/>
<path d="M267.562 105V93.625H270.922C271.927 93.625 272.818 93.849 273.594 94.2969C274.375 94.7448 274.979 95.3802 275.406 96.2031C275.833 97.026 276.047 97.9688 276.047 99.0312V99.6016C276.047 100.68 275.831 101.628 275.398 102.445C274.971 103.263 274.359 103.893 273.562 104.336C272.771 104.779 271.862 105 270.836 105H267.562ZM269.539 95.2188V103.422H270.828C271.865 103.422 272.659 103.099 273.211 102.453C273.768 101.802 274.052 100.87 274.062 99.6562V99.0234C274.062 97.7891 273.794 96.8464 273.258 96.1953C272.721 95.5443 271.943 95.2188 270.922 95.2188H269.539ZM280.102 105H278.133V93.625H280.102V105ZM284.508 100.773V105H282.531V93.625H286.883C288.154 93.625 289.161 93.9557 289.906 94.6172C290.656 95.2786 291.031 96.1536 291.031 97.2422C291.031 98.3568 290.664 99.224 289.93 99.8438C289.201 100.464 288.177 100.773 286.859 100.773H284.508ZM284.508 99.1875H286.883C287.586 99.1875 288.122 99.0234 288.492 98.6953C288.862 98.362 289.047 97.8828 289.047 97.2578C289.047 96.6432 288.859 96.1536 288.484 95.7891C288.109 95.4193 287.594 95.2292 286.938 95.2188H284.508V99.1875ZM300.352 107.812C298.513 107.297 297.576 106.122 297.539 104.289V102.625C297.539 101.453 297.036 100.867 296.031 100.867V99.4766C297.036 99.4766 297.539 98.888 297.539 97.7109V96.0547C297.555 95.1172 297.797 94.3594 298.266 93.7812C298.74 93.2031 299.435 92.7839 300.352 92.5234L300.727 93.6172C299.826 93.9089 299.359 94.7057 299.328 96.0078V97.6953C299.328 98.8672 298.878 99.6901 297.977 100.164C298.878 100.643 299.328 101.474 299.328 102.656V104.32C299.359 105.622 299.826 106.419 300.727 106.711L300.352 107.812ZM312.055 102.07C312.055 101.57 311.878 101.185 311.523 100.914C311.174 100.643 310.542 100.37 309.625 100.094C308.708 99.8177 307.979 99.5104 307.438 99.1719C306.401 98.5208 305.883 97.6719 305.883 96.625C305.883 95.7083 306.255 94.9531 307 94.3594C307.75 93.7656 308.721 93.4688 309.914 93.4688C310.706 93.4688 311.411 93.6146 312.031 93.9062C312.651 94.1979 313.138 94.6146 313.492 95.1562C313.846 95.6927 314.023 96.2891 314.023 96.9453H312.055C312.055 96.3516 311.867 95.888 311.492 95.5547C311.122 95.2161 310.591 95.0469 309.898 95.0469C309.253 95.0469 308.75 95.1849 308.391 95.4609C308.036 95.737 307.859 96.1224 307.859 96.6172C307.859 97.0339 308.052 97.3828 308.438 97.6641C308.823 97.9401 309.458 98.2109 310.344 98.4766C311.229 98.737 311.94 99.0365 312.477 99.375C313.013 99.7083 313.406 100.094 313.656 100.531C313.906 100.964 314.031 101.471 314.031 102.055C314.031 103.003 313.667 103.758 312.938 104.32C312.214 104.878 311.229 105.156 309.984 105.156C309.161 105.156 308.404 105.005 307.711 104.703C307.023 104.396 306.487 103.974 306.102 103.438C305.721 102.901 305.531 102.276 305.531 101.562H307.508C307.508 102.208 307.721 102.708 308.148 103.062C308.576 103.417 309.188 103.594 309.984 103.594C310.672 103.594 311.188 103.456 311.531 103.18C311.88 102.898 312.055 102.529 312.055 102.07ZM324.688 102.188L326.438 93.625H328.398L325.773 105H323.883L321.719 96.6953L319.508 105H317.609L314.984 93.625H316.945L318.711 102.172L320.883 93.625H322.539L324.688 102.188ZM335.867 102.352H331.461L330.539 105H328.484L332.781 93.625H334.555L338.859 105H336.797L335.867 102.352ZM332.016 100.758H335.312L333.664 96.0391L332.016 100.758ZM342.133 100.773V105H340.156V93.625H344.508C345.779 93.625 346.786 93.9557 347.531 94.6172C348.281 95.2786 348.656 96.1536 348.656 97.2422C348.656 98.3568 348.289 99.224 347.555 99.8438C346.826 100.464 345.802 100.773 344.484 100.773H342.133ZM342.133 99.1875H344.508C345.211 99.1875 345.747 99.0234 346.117 98.6953C346.487 98.362 346.672 97.8828 346.672 97.2578C346.672 96.6432 346.484 96.1536 346.109 95.7891C345.734 95.4193 345.219 95.2292 344.562 95.2188H342.133V99.1875ZM353.43 106.711C354.346 106.414 354.815 105.602 354.836 104.273V102.648C354.836 101.445 355.31 100.62 356.258 100.172C355.31 99.724 354.836 98.8906 354.836 97.6719V96.0547C354.815 94.7266 354.346 93.9141 353.43 93.6172L353.805 92.5234C354.753 92.7891 355.458 93.2214 355.922 93.8203C356.385 94.4141 356.617 95.1927 356.617 96.1562V97.7188C356.617 98.8906 357.122 99.4766 358.133 99.4766V100.867C357.122 100.867 356.617 101.453 356.617 102.625V104.164C356.617 105.138 356.383 105.922 355.914 106.516C355.451 107.115 354.747 107.547 353.805 107.812L353.43 106.711Z" fill="#65BF73"/>
<g filter="url(#filter0_d)">
<path d="M0 8C0 3.58172 3.58172 0 8 0H221C225.418 0 229 3.58172 229 8V120H0V8Z" fill="white"/>
<line x1="0.5" y1="79.5" x2="228.5" y2="79.5" stroke="#5452F6"/>
<line x1="0.5" y1="39.5" x2="228.5" y2="39.5" stroke="#5452F6"/>
<path d="M73.7891 102.07C73.7891 101.57 73.612 101.185 73.2578 100.914C72.9089 100.643 72.276 100.37 71.3594 100.094C70.4427 99.8177 69.7135 99.5104 69.1719 99.1719C68.1354 98.5208 67.6172 97.6719 67.6172 96.625C67.6172 95.7083 67.9896 94.9531 68.7344 94.3594C69.4844 93.7656 70.4557 93.4688 71.6484 93.4688C72.4401 93.4688 73.1458 93.6146 73.7656 93.9062C74.3854 94.1979 74.8724 94.6146 75.2266 95.1562C75.5807 95.6927 75.7578 96.2891 75.7578 96.9453H73.7891C73.7891 96.3516 73.6016 95.888 73.2266 95.5547C72.8568 95.2161 72.3255 95.0469 71.6328 95.0469C70.987 95.0469 70.4844 95.1849 70.125 95.4609C69.7708 95.737 69.5938 96.1224 69.5938 96.6172C69.5938 97.0339 69.7865 97.3828 70.1719 97.6641C70.5573 97.9401 71.1927 98.2109 72.0781 98.4766C72.9635 98.737 73.6745 99.0365 74.2109 99.375C74.7474 99.7083 75.1406 100.094 75.3906 100.531C75.6406 100.964 75.7656 101.471 75.7656 102.055C75.7656 103.003 75.401 103.758 74.6719 104.32C73.9479 104.878 72.9635 105.156 71.7188 105.156C70.8958 105.156 70.138 105.005 69.4453 104.703C68.7578 104.396 68.2214 103.974 67.8359 103.438C67.4557 102.901 67.2656 102.276 67.2656 101.562H69.2422C69.2422 102.208 69.4557 102.708 69.8828 103.062C70.3099 103.417 70.9219 103.594 71.7188 103.594C72.4062 103.594 72.9219 103.456 73.2656 103.18C73.6146 102.898 73.7891 102.529 73.7891 102.07ZM79.6953 94.4922V96.5469H81.1875V97.9531H79.6953V102.672C79.6953 102.995 79.7578 103.229 79.8828 103.375C80.013 103.516 80.2422 103.586 80.5703 103.586C80.7891 103.586 81.0104 103.56 81.2344 103.508V104.977C80.8021 105.096 80.3854 105.156 79.9844 105.156C78.526 105.156 77.7969 104.352 77.7969 102.742V97.9531H76.4062V96.5469H77.7969V94.4922H79.6953ZM87.0703 98.2812C86.8203 98.2396 86.5625 98.2188 86.2969 98.2188C85.4271 98.2188 84.8411 98.5521 84.5391 99.2188V105H82.6406V96.5469H84.4531L84.5 97.4922C84.9583 96.7578 85.5938 96.3906 86.4062 96.3906C86.6771 96.3906 86.901 96.4271 87.0781 96.5L87.0703 98.2812ZM90.2891 105H88.3906V96.5469H90.2891V105ZM88.2734 94.3516C88.2734 94.0599 88.3646 93.8177 88.5469 93.625C88.7344 93.4323 89 93.3359 89.3438 93.3359C89.6875 93.3359 89.9531 93.4323 90.1406 93.625C90.3281 93.8177 90.4219 94.0599 90.4219 94.3516C90.4219 94.638 90.3281 94.8776 90.1406 95.0703C89.9531 95.2578 89.6875 95.3516 89.3438 95.3516C89 95.3516 88.7344 95.2578 88.5469 95.0703C88.3646 94.8776 88.2734 94.638 88.2734 94.3516ZM94.125 96.5469L94.1797 97.5234C94.8047 96.7682 95.625 96.3906 96.6406 96.3906C98.401 96.3906 99.2969 97.3984 99.3281 99.4141V105H97.4297V99.5234C97.4297 98.987 97.3125 98.5911 97.0781 98.3359C96.849 98.0755 96.4714 97.9453 95.9453 97.9453C95.1797 97.9453 94.6094 98.2917 94.2344 98.9844V105H92.3359V96.5469H94.125ZM100.938 100.711C100.938 99.3984 101.245 98.3516 101.859 97.5703C102.479 96.7839 103.299 96.3906 104.32 96.3906C105.284 96.3906 106.042 96.7266 106.594 97.3984L106.68 96.5469H108.391V104.742C108.391 105.852 108.044 106.727 107.352 107.367C106.664 108.008 105.734 108.328 104.562 108.328C103.943 108.328 103.336 108.198 102.742 107.938C102.154 107.682 101.706 107.346 101.398 106.93L102.297 105.789C102.88 106.482 103.599 106.828 104.453 106.828C105.083 106.828 105.581 106.656 105.945 106.312C106.31 105.974 106.492 105.474 106.492 104.812V104.242C105.945 104.852 105.216 105.156 104.305 105.156C103.315 105.156 102.505 104.763 101.875 103.977C101.25 103.19 100.938 102.102 100.938 100.711ZM102.828 100.875C102.828 101.724 103 102.393 103.344 102.883C103.693 103.367 104.174 103.609 104.789 103.609C105.555 103.609 106.122 103.281 106.492 102.625V98.9062C106.133 98.2656 105.57 97.9453 104.805 97.9453C104.18 97.9453 103.693 98.1927 103.344 98.6875C103 99.1823 102.828 99.9115 102.828 100.875ZM115.633 92.7969L116.602 93.3984C116.128 94.0911 115.883 94.8125 115.867 95.5625V96.75H114.203V95.6719C114.208 95.1719 114.344 94.651 114.609 94.1094C114.88 93.5625 115.221 93.125 115.633 92.7969ZM118.258 92.7969L119.227 93.3984C118.753 94.0911 118.508 94.8125 118.492 95.5625V96.75H116.828V95.6719C116.833 95.1719 116.969 94.651 117.234 94.1094C117.505 93.5625 117.846 93.125 118.258 92.7969ZM129.703 105H127.734V99.9453H122.648V105H120.672V93.625H122.648V98.3594H127.734V93.625H129.703V105ZM135.586 105.156C134.383 105.156 133.406 104.779 132.656 104.023C131.911 103.263 131.539 102.253 131.539 100.992V100.758C131.539 99.9141 131.701 99.1615 132.023 98.5C132.352 97.8333 132.81 97.3151 133.398 96.9453C133.987 96.5755 134.643 96.3906 135.367 96.3906C136.518 96.3906 137.406 96.7578 138.031 97.4922C138.661 98.2266 138.977 99.2656 138.977 100.609V101.375H133.453C133.51 102.073 133.742 102.625 134.148 103.031C134.56 103.438 135.076 103.641 135.695 103.641C136.565 103.641 137.273 103.289 137.82 102.586L138.844 103.562C138.505 104.068 138.052 104.461 137.484 104.742C136.922 105.018 136.289 105.156 135.586 105.156ZM135.359 97.9141C134.839 97.9141 134.417 98.0964 134.094 98.4609C133.776 98.8255 133.573 99.3333 133.484 99.9844H137.102V99.8438C137.06 99.2083 136.891 98.7292 136.594 98.4062C136.297 98.0781 135.885 97.9141 135.359 97.9141ZM142.477 105H140.578V93H142.477V105ZM146.57 105H144.672V93H146.57V105ZM148.289 100.695C148.289 99.8672 148.453 99.1224 148.781 98.4609C149.109 97.7943 149.57 97.2839 150.164 96.9297C150.758 96.5703 151.44 96.3906 152.211 96.3906C153.352 96.3906 154.276 96.7578 154.984 97.4922C155.698 98.2266 156.083 99.2005 156.141 100.414L156.148 100.859C156.148 101.693 155.987 102.438 155.664 103.094C155.346 103.75 154.888 104.258 154.289 104.617C153.695 104.977 153.008 105.156 152.227 105.156C151.034 105.156 150.078 104.76 149.359 103.969C148.646 103.172 148.289 102.112 148.289 100.789V100.695ZM150.188 100.859C150.188 101.729 150.367 102.411 150.727 102.906C151.086 103.396 151.586 103.641 152.227 103.641C152.867 103.641 153.365 103.391 153.719 102.891C154.078 102.391 154.258 101.659 154.258 100.695C154.258 99.8411 154.073 99.1641 153.703 98.6641C153.339 98.1641 152.841 97.9141 152.211 97.9141C151.591 97.9141 151.099 98.1615 150.734 98.6562C150.37 99.1458 150.188 99.8802 150.188 100.859ZM157.562 97L156.594 96.3984C157.062 95.7161 157.305 94.9948 157.32 94.2344V93H158.984V94.0781C158.984 94.6146 158.846 95.1562 158.57 95.7031C158.299 96.2448 157.964 96.6771 157.562 97ZM160.172 97L159.203 96.3984C159.672 95.7161 159.914 94.9948 159.93 94.2344V93H161.594V94.0781C161.594 94.6146 161.456 95.1562 161.18 95.7031C160.909 96.2448 160.573 96.6771 160.172 97Z" fill="#5452F6"/>
<path d="M99.25 56.5469L99.3047 57.5234C99.9297 56.7682 100.75 56.3906 101.766 56.3906C103.526 56.3906 104.422 57.3984 104.453 59.4141V65H102.555V59.5234C102.555 58.987 102.438 58.5911 102.203 58.3359C101.974 58.0755 101.596 57.9453 101.07 57.9453C100.305 57.9453 99.7344 58.2917 99.3594 58.9844V65H97.4609V56.5469H99.25ZM111.445 65C111.362 64.8385 111.289 64.5755 111.227 64.2109C110.622 64.8411 109.883 65.1562 109.008 65.1562C108.159 65.1562 107.466 64.9141 106.93 64.4297C106.393 63.9453 106.125 63.3464 106.125 62.6328C106.125 61.7318 106.458 61.0417 107.125 60.5625C107.797 60.0781 108.755 59.8359 110 59.8359H111.164V59.2812C111.164 58.8438 111.042 58.4948 110.797 58.2344C110.552 57.9688 110.18 57.8359 109.68 57.8359C109.247 57.8359 108.893 57.9453 108.617 58.1641C108.341 58.3776 108.203 58.651 108.203 58.9844H106.305C106.305 58.5208 106.458 58.0885 106.766 57.6875C107.073 57.2812 107.49 56.9635 108.016 56.7344C108.547 56.5052 109.138 56.3906 109.789 56.3906C110.779 56.3906 111.568 56.6406 112.156 57.1406C112.745 57.6354 113.047 58.3333 113.062 59.2344V63.0469C113.062 63.8073 113.169 64.4141 113.383 64.8672V65H111.445ZM109.359 63.6328C109.734 63.6328 110.086 63.5417 110.414 63.3594C110.747 63.1771 110.997 62.9323 111.164 62.625V61.0312H110.141C109.438 61.0312 108.909 61.1536 108.555 61.3984C108.201 61.6432 108.023 61.9896 108.023 62.4375C108.023 62.8021 108.143 63.0938 108.383 63.3125C108.628 63.526 108.953 63.6328 109.359 63.6328ZM117.43 54.4922V56.5469H118.922V57.9531H117.43V62.6719C117.43 62.9948 117.492 63.2292 117.617 63.375C117.747 63.5156 117.977 63.5859 118.305 63.5859C118.523 63.5859 118.745 63.5599 118.969 63.5078V64.9766C118.536 65.0964 118.12 65.1562 117.719 65.1562C116.26 65.1562 115.531 64.3516 115.531 62.7422V57.9531H114.141V56.5469H115.531V54.4922H117.43ZM124.75 59.3594L125.367 53.625H131.477V55.2656H126.945L126.633 57.9844C127.159 57.6823 127.753 57.5312 128.414 57.5312C129.497 57.5312 130.339 57.8776 130.938 58.5703C131.542 59.263 131.844 60.1953 131.844 61.3672C131.844 62.5234 131.51 63.4453 130.844 64.1328C130.177 64.8151 129.263 65.1562 128.102 65.1562C127.06 65.1562 126.195 64.862 125.508 64.2734C124.826 63.6797 124.456 62.8984 124.398 61.9297H126.234C126.307 62.4818 126.505 62.9062 126.828 63.2031C127.151 63.4948 127.573 63.6406 128.094 63.6406C128.677 63.6406 129.13 63.4323 129.453 63.0156C129.781 62.599 129.945 62.0312 129.945 61.3125C129.945 60.6198 129.766 60.0729 129.406 59.6719C129.047 59.2656 128.552 59.0625 127.922 59.0625C127.578 59.0625 127.286 59.1094 127.047 59.2031C126.807 59.2917 126.547 59.4688 126.266 59.7344L124.75 59.3594Z" fill="#FF5A43"/>
<path d="M94.7031 16.5469L94.7578 17.5234C95.3828 16.7682 96.2031 16.3906 97.2188 16.3906C98.9792 16.3906 99.875 17.3984 99.9062 19.4141V25H98.0078V19.5234C98.0078 18.987 97.8906 18.5911 97.6562 18.3359C97.4271 18.0755 97.0495 17.9453 96.5234 17.9453C95.7578 17.9453 95.1875 18.2917 94.8125 18.9844V25H92.9141V16.5469H94.7031ZM106.898 25C106.815 24.8385 106.742 24.5755 106.68 24.2109C106.076 24.8411 105.336 25.1562 104.461 25.1562C103.612 25.1562 102.919 24.9141 102.383 24.4297C101.846 23.9453 101.578 23.3464 101.578 22.6328C101.578 21.7318 101.911 21.0417 102.578 20.5625C103.25 20.0781 104.208 19.8359 105.453 19.8359H106.617V19.2812C106.617 18.8438 106.495 18.4948 106.25 18.2344C106.005 17.9688 105.633 17.8359 105.133 17.8359C104.701 17.8359 104.346 17.9453 104.07 18.1641C103.794 18.3776 103.656 18.651 103.656 18.9844H101.758C101.758 18.5208 101.911 18.0885 102.219 17.6875C102.526 17.2812 102.943 16.9635 103.469 16.7344C104 16.5052 104.591 16.3906 105.242 16.3906C106.232 16.3906 107.021 16.6406 107.609 17.1406C108.198 17.6354 108.5 18.3333 108.516 19.2344V23.0469C108.516 23.8073 108.622 24.4141 108.836 24.8672V25H106.898ZM104.812 23.6328C105.188 23.6328 105.539 23.5417 105.867 23.3594C106.201 23.1771 106.451 22.9323 106.617 22.625V21.0312H105.594C104.891 21.0312 104.362 21.1536 104.008 21.3984C103.654 21.6432 103.477 21.9896 103.477 22.4375C103.477 22.8021 103.596 23.0938 103.836 23.3125C104.081 23.526 104.406 23.6328 104.812 23.6328ZM112.883 14.4922V16.5469H114.375V17.9531H112.883V22.6719C112.883 22.9948 112.945 23.2292 113.07 23.375C113.201 23.5156 113.43 23.5859 113.758 23.5859C113.977 23.5859 114.198 23.5599 114.422 23.5078V24.9766C113.99 25.0964 113.573 25.1562 113.172 25.1562C111.714 25.1562 110.984 24.3516 110.984 22.7422V17.9531H109.594V16.5469H110.984V14.4922H112.883ZM126.117 20.9453H127.531V22.4688H126.117V25H124.219V22.4688H119.305L119.25 21.3125L124.156 13.625H126.117V20.9453ZM121.242 20.9453H124.219V16.1953L124.078 16.4453L121.242 20.9453ZM136.438 25H128.789V23.6953L132.578 19.5625C133.125 18.9531 133.513 18.4453 133.742 18.0391C133.977 17.6276 134.094 17.2161 134.094 16.8047C134.094 16.263 133.94 15.8255 133.633 15.4922C133.331 15.1589 132.922 14.9922 132.406 14.9922C131.792 14.9922 131.315 15.1797 130.977 15.5547C130.638 15.9297 130.469 16.4427 130.469 17.0938H128.57C128.57 16.401 128.727 15.7786 129.039 15.2266C129.357 14.6693 129.807 14.237 130.391 13.9297C130.979 13.6224 131.656 13.4688 132.422 13.4688C133.526 13.4688 134.396 13.7474 135.031 14.3047C135.672 14.8568 135.992 15.6224 135.992 16.6016C135.992 17.1693 135.831 17.7656 135.508 18.3906C135.19 19.0104 134.667 19.7161 133.938 20.5078L131.156 23.4844H136.438V25Z" fill="#FF5A43"/>
<path d="M0.5 8C0.5 3.85786 3.85786 0.5 8 0.5H221C225.142 0.5 228.5 3.85787 228.5 8V119.5H0.5V8Z" stroke="#5452F6"/>
</g>
<g filter="url(#filter1_d)">
<path d="M0 119H229V135C229 139.418 225.418 143 221 143H8.00001C3.58173 143 0 139.418 0 135V119Z" fill="#EEEEFF"/>
<path d="M0.5 119.5H228.5V135C228.5 139.142 225.142 142.5 221 142.5H8.00001C3.85787 142.5 0.5 139.142 0.5 135V119.5Z" stroke="#5452F6"/>
</g>
<g filter="url(#filter2_d)">
<path d="M400 8C400 3.58172 403.582 0 408 0H621C625.418 0 629 3.58172 629 8V120H400V8Z" fill="white"/>
<line x1="400.5" y1="79.5" x2="628.5" y2="79.5" stroke="#5452F6"/>
<line x1="400.5" y1="39.5" x2="628.5" y2="39.5" stroke="#5452F6"/>
<path d="M499.25 96.5469L499.305 97.5234C499.93 96.7682 500.75 96.3906 501.766 96.3906C503.526 96.3906 504.422 97.3984 504.453 99.4141V105H502.555V99.5234C502.555 98.987 502.438 98.5911 502.203 98.3359C501.974 98.0755 501.596 97.9453 501.07 97.9453C500.305 97.9453 499.734 98.2917 499.359 98.9844V105H497.461V96.5469H499.25ZM511.445 105C511.362 104.839 511.289 104.576 511.227 104.211C510.622 104.841 509.883 105.156 509.008 105.156C508.159 105.156 507.466 104.914 506.93 104.43C506.393 103.945 506.125 103.346 506.125 102.633C506.125 101.732 506.458 101.042 507.125 100.562C507.797 100.078 508.755 99.8359 510 99.8359H511.164V99.2812C511.164 98.8438 511.042 98.4948 510.797 98.2344C510.552 97.9688 510.18 97.8359 509.68 97.8359C509.247 97.8359 508.893 97.9453 508.617 98.1641C508.341 98.3776 508.203 98.651 508.203 98.9844H506.305C506.305 98.5208 506.458 98.0885 506.766 97.6875C507.073 97.2812 507.49 96.9635 508.016 96.7344C508.547 96.5052 509.138 96.3906 509.789 96.3906C510.779 96.3906 511.568 96.6406 512.156 97.1406C512.745 97.6354 513.047 98.3333 513.062 99.2344V103.047C513.062 103.807 513.169 104.414 513.383 104.867V105H511.445ZM509.359 103.633C509.734 103.633 510.086 103.542 510.414 103.359C510.747 103.177 510.997 102.932 511.164 102.625V101.031H510.141C509.438 101.031 508.909 101.154 508.555 101.398C508.201 101.643 508.023 101.99 508.023 102.438C508.023 102.802 508.143 103.094 508.383 103.312C508.628 103.526 508.953 103.633 509.359 103.633ZM517.43 94.4922V96.5469H518.922V97.9531H517.43V102.672C517.43 102.995 517.492 103.229 517.617 103.375C517.747 103.516 517.977 103.586 518.305 103.586C518.523 103.586 518.745 103.56 518.969 103.508V104.977C518.536 105.096 518.12 105.156 517.719 105.156C516.26 105.156 515.531 104.352 515.531 102.742V97.9531H514.141V96.5469H515.531V94.4922H517.43ZM524.75 99.3594L525.367 93.625H531.477V95.2656H526.945L526.633 97.9844C527.159 97.6823 527.753 97.5312 528.414 97.5312C529.497 97.5312 530.339 97.8776 530.938 98.5703C531.542 99.263 531.844 100.195 531.844 101.367C531.844 102.523 531.51 103.445 530.844 104.133C530.177 104.815 529.263 105.156 528.102 105.156C527.06 105.156 526.195 104.862 525.508 104.273C524.826 103.68 524.456 102.898 524.398 101.93H526.234C526.307 102.482 526.505 102.906 526.828 103.203C527.151 103.495 527.573 103.641 528.094 103.641C528.677 103.641 529.13 103.432 529.453 103.016C529.781 102.599 529.945 102.031 529.945 101.312C529.945 100.62 529.766 100.073 529.406 99.6719C529.047 99.2656 528.552 99.0625 527.922 99.0625C527.578 99.0625 527.286 99.1094 527.047 99.2031C526.807 99.2917 526.547 99.4688 526.266 99.7344L524.75 99.3594Z" fill="#FF5A43"/>
<path d="M473.094 62.7031C473.094 62.3646 472.953 62.1068 472.672 61.9297C472.396 61.7526 471.935 61.5964 471.289 61.4609C470.643 61.3255 470.104 61.1536 469.672 60.9453C468.724 60.487 468.25 59.8229 468.25 58.9531C468.25 58.224 468.557 57.6146 469.172 57.125C469.786 56.6354 470.568 56.3906 471.516 56.3906C472.526 56.3906 473.341 56.6406 473.961 57.1406C474.586 57.6406 474.898 58.2891 474.898 59.0859H473C473 58.7214 472.865 58.4193 472.594 58.1797C472.323 57.9349 471.964 57.8125 471.516 57.8125C471.099 57.8125 470.758 57.9089 470.492 58.1016C470.232 58.2943 470.102 58.5521 470.102 58.875C470.102 59.1667 470.224 59.3932 470.469 59.5547C470.714 59.7161 471.208 59.8802 471.953 60.0469C472.698 60.2083 473.281 60.4036 473.703 60.6328C474.13 60.8568 474.445 61.1276 474.648 61.4453C474.857 61.763 474.961 62.1484 474.961 62.6016C474.961 63.362 474.646 63.9792 474.016 64.4531C473.385 64.9219 472.56 65.1562 471.539 65.1562C470.846 65.1562 470.229 65.0312 469.688 64.7812C469.146 64.5312 468.724 64.1875 468.422 63.75C468.12 63.3125 467.969 62.8411 467.969 62.3359H469.812C469.839 62.7839 470.008 63.1302 470.32 63.375C470.633 63.6146 471.047 63.7344 471.562 63.7344C472.062 63.7344 472.443 63.6406 472.703 63.4531C472.964 63.2604 473.094 63.0104 473.094 62.7031ZM479 54.4922V56.5469H480.492V57.9531H479V62.6719C479 62.9948 479.062 63.2292 479.188 63.375C479.318 63.5156 479.547 63.5859 479.875 63.5859C480.094 63.5859 480.315 63.5599 480.539 63.5078V64.9766C480.107 65.0964 479.69 65.1562 479.289 65.1562C477.831 65.1562 477.102 64.3516 477.102 62.7422V57.9531H475.711V56.5469H477.102V54.4922H479ZM486.375 58.2812C486.125 58.2396 485.867 58.2188 485.602 58.2188C484.732 58.2188 484.146 58.5521 483.844 59.2188V65H481.945V56.5469H483.758L483.805 57.4922C484.263 56.7578 484.898 56.3906 485.711 56.3906C485.982 56.3906 486.206 56.4271 486.383 56.5L486.375 58.2812ZM489.594 65H487.695V56.5469H489.594V65ZM487.578 54.3516C487.578 54.0599 487.669 53.8177 487.852 53.625C488.039 53.4323 488.305 53.3359 488.648 53.3359C488.992 53.3359 489.258 53.4323 489.445 53.625C489.633 53.8177 489.727 54.0599 489.727 54.3516C489.727 54.638 489.633 54.8776 489.445 55.0703C489.258 55.2578 488.992 55.3516 488.648 55.3516C488.305 55.3516 488.039 55.2578 487.852 55.0703C487.669 54.8776 487.578 54.638 487.578 54.3516ZM493.43 56.5469L493.484 57.5234C494.109 56.7682 494.93 56.3906 495.945 56.3906C497.706 56.3906 498.602 57.3984 498.633 59.4141V65H496.734V59.5234C496.734 58.987 496.617 58.5911 496.383 58.3359C496.154 58.0755 495.776 57.9453 495.25 57.9453C494.484 57.9453 493.914 58.2917 493.539 58.9844V65H491.641V56.5469H493.43ZM500.242 60.7109C500.242 59.3984 500.549 58.3516 501.164 57.5703C501.784 56.7839 502.604 56.3906 503.625 56.3906C504.589 56.3906 505.346 56.7266 505.898 57.3984L505.984 56.5469H507.695V64.7422C507.695 65.8516 507.349 66.7266 506.656 67.3672C505.969 68.0078 505.039 68.3281 503.867 68.3281C503.247 68.3281 502.641 68.1979 502.047 67.9375C501.458 67.6823 501.01 67.3464 500.703 66.9297L501.602 65.7891C502.185 66.4818 502.904 66.8281 503.758 66.8281C504.388 66.8281 504.885 66.6562 505.25 66.3125C505.615 65.974 505.797 65.474 505.797 64.8125V64.2422C505.25 64.8516 504.521 65.1562 503.609 65.1562C502.62 65.1562 501.81 64.763 501.18 63.9766C500.555 63.1901 500.242 62.1016 500.242 60.7109ZM502.133 60.875C502.133 61.724 502.305 62.3932 502.648 62.8828C502.997 63.3672 503.479 63.6094 504.094 63.6094C504.859 63.6094 505.427 63.2812 505.797 62.625V58.9062C505.438 58.2656 504.875 57.9453 504.109 57.9453C503.484 57.9453 502.997 58.1927 502.648 58.6875C502.305 59.1823 502.133 59.9115 502.133 60.875ZM514.938 52.7969L515.906 53.3984C515.432 54.0911 515.188 54.8125 515.172 55.5625V56.75H513.508V55.6719C513.513 55.1719 513.648 54.651 513.914 54.1094C514.185 53.5625 514.526 53.125 514.938 52.7969ZM517.562 52.7969L518.531 53.3984C518.057 54.0911 517.812 54.8125 517.797 55.5625V56.75H516.133V55.6719C516.138 55.1719 516.273 54.651 516.539 54.1094C516.81 53.5625 517.151 53.125 517.562 52.7969ZM529.008 65H527.039V59.9453H521.953V65H519.977V53.625H521.953V58.3594H527.039V53.625H529.008V65ZM534.891 65.1562C533.688 65.1562 532.711 64.7786 531.961 64.0234C531.216 63.263 530.844 62.2526 530.844 60.9922V60.7578C530.844 59.9141 531.005 59.1615 531.328 58.5C531.656 57.8333 532.115 57.3151 532.703 56.9453C533.292 56.5755 533.948 56.3906 534.672 56.3906C535.823 56.3906 536.711 56.7578 537.336 57.4922C537.966 58.2266 538.281 59.2656 538.281 60.6094V61.375H532.758C532.815 62.0729 533.047 62.625 533.453 63.0312C533.865 63.4375 534.38 63.6406 535 63.6406C535.87 63.6406 536.578 63.2891 537.125 62.5859L538.148 63.5625C537.81 64.0677 537.357 64.4609 536.789 64.7422C536.227 65.0182 535.594 65.1562 534.891 65.1562ZM534.664 57.9141C534.143 57.9141 533.721 58.0964 533.398 58.4609C533.081 58.8255 532.878 59.3333 532.789 59.9844H536.406V59.8438C536.365 59.2083 536.195 58.7292 535.898 58.4062C535.602 58.0781 535.19 57.9141 534.664 57.9141ZM541.781 65H539.883V53H541.781V65ZM545.875 65H543.977V53H545.875V65ZM547.594 60.6953C547.594 59.8672 547.758 59.1224 548.086 58.4609C548.414 57.7943 548.875 57.2839 549.469 56.9297C550.062 56.5703 550.745 56.3906 551.516 56.3906C552.656 56.3906 553.581 56.7578 554.289 57.4922C555.003 58.2266 555.388 59.2005 555.445 60.4141L555.453 60.8594C555.453 61.6927 555.292 62.4375 554.969 63.0938C554.651 63.75 554.193 64.2578 553.594 64.6172C553 64.9766 552.312 65.1562 551.531 65.1562C550.339 65.1562 549.383 64.7604 548.664 63.9688C547.951 63.1719 547.594 62.112 547.594 60.7891V60.6953ZM549.492 60.8594C549.492 61.7292 549.672 62.4115 550.031 62.9062C550.391 63.3958 550.891 63.6406 551.531 63.6406C552.172 63.6406 552.669 63.3906 553.023 62.8906C553.383 62.3906 553.562 61.6589 553.562 60.6953C553.562 59.8411 553.378 59.1641 553.008 58.6641C552.643 58.1641 552.146 57.9141 551.516 57.9141C550.896 57.9141 550.404 58.1615 550.039 58.6562C549.674 59.1458 549.492 59.8802 549.492 60.8594ZM556.867 57L555.898 56.3984C556.367 55.7161 556.609 54.9948 556.625 54.2344V53H558.289V54.0781C558.289 54.6146 558.151 55.1562 557.875 55.7031C557.604 56.2448 557.268 56.6771 556.867 57ZM559.477 57L558.508 56.3984C558.977 55.7161 559.219 54.9948 559.234 54.2344V53H560.898V54.0781C560.898 54.6146 560.76 55.1562 560.484 55.7031C560.214 56.2448 559.878 56.6771 559.477 57Z" fill="#FF5A43"/>
<path d="M494.703 16.5469L494.758 17.5234C495.383 16.7682 496.203 16.3906 497.219 16.3906C498.979 16.3906 499.875 17.3984 499.906 19.4141V25H498.008V19.5234C498.008 18.987 497.891 18.5911 497.656 18.3359C497.427 18.0755 497.049 17.9453 496.523 17.9453C495.758 17.9453 495.188 18.2917 494.812 18.9844V25H492.914V16.5469H494.703ZM506.898 25C506.815 24.8385 506.742 24.5755 506.68 24.2109C506.076 24.8411 505.336 25.1562 504.461 25.1562C503.612 25.1562 502.919 24.9141 502.383 24.4297C501.846 23.9453 501.578 23.3464 501.578 22.6328C501.578 21.7318 501.911 21.0417 502.578 20.5625C503.25 20.0781 504.208 19.8359 505.453 19.8359H506.617V19.2812C506.617 18.8438 506.495 18.4948 506.25 18.2344C506.005 17.9688 505.633 17.8359 505.133 17.8359C504.701 17.8359 504.346 17.9453 504.07 18.1641C503.794 18.3776 503.656 18.651 503.656 18.9844H501.758C501.758 18.5208 501.911 18.0885 502.219 17.6875C502.526 17.2812 502.943 16.9635 503.469 16.7344C504 16.5052 504.591 16.3906 505.242 16.3906C506.232 16.3906 507.021 16.6406 507.609 17.1406C508.198 17.6354 508.5 18.3333 508.516 19.2344V23.0469C508.516 23.8073 508.622 24.4141 508.836 24.8672V25H506.898ZM504.812 23.6328C505.188 23.6328 505.539 23.5417 505.867 23.3594C506.201 23.1771 506.451 22.9323 506.617 22.625V21.0312H505.594C504.891 21.0312 504.362 21.1536 504.008 21.3984C503.654 21.6432 503.477 21.9896 503.477 22.4375C503.477 22.8021 503.596 23.0938 503.836 23.3125C504.081 23.526 504.406 23.6328 504.812 23.6328ZM512.883 14.4922V16.5469H514.375V17.9531H512.883V22.6719C512.883 22.9948 512.945 23.2292 513.07 23.375C513.201 23.5156 513.43 23.5859 513.758 23.5859C513.977 23.5859 514.198 23.5599 514.422 23.5078V24.9766C513.99 25.0964 513.573 25.1562 513.172 25.1562C511.714 25.1562 510.984 24.3516 510.984 22.7422V17.9531H509.594V16.5469H510.984V14.4922H512.883ZM526.117 20.9453H527.531V22.4688H526.117V25H524.219V22.4688H519.305L519.25 21.3125L524.156 13.625H526.117V20.9453ZM521.242 20.9453H524.219V16.1953L524.078 16.4453L521.242 20.9453ZM536.438 25H528.789V23.6953L532.578 19.5625C533.125 18.9531 533.513 18.4453 533.742 18.0391C533.977 17.6276 534.094 17.2161 534.094 16.8047C534.094 16.263 533.94 15.8255 533.633 15.4922C533.331 15.1589 532.922 14.9922 532.406 14.9922C531.792 14.9922 531.315 15.1797 530.977 15.5547C530.638 15.9297 530.469 16.4427 530.469 17.0938H528.57C528.57 16.401 528.727 15.7786 529.039 15.2266C529.357 14.6693 529.807 14.237 530.391 13.9297C530.979 13.6224 531.656 13.4688 532.422 13.4688C533.526 13.4688 534.396 13.7474 535.031 14.3047C535.672 14.8568 535.992 15.6224 535.992 16.6016C535.992 17.1693 535.831 17.7656 535.508 18.3906C535.19 19.0104 534.667 19.7161 533.938 20.5078L531.156 23.4844H536.438V25Z" fill="#5452F6"/>
<path d="M400.5 8C400.5 3.85786 403.858 0.5 408 0.5H621C625.142 0.5 628.5 3.85787 628.5 8V119.5H400.5V8Z" stroke="#5452F6"/>
</g>
<g filter="url(#filter3_d)">
<path d="M400 119H629V135C629 139.418 625.418 143 621 143H408C403.582 143 400 139.418 400 135V119Z" fill="#EEEEFF"/>
<path d="M400.5 119.5H628.5V135C628.5 139.142 625.142 142.5 621 142.5H408C403.858 142.5 400.5 139.142 400.5 135V119.5Z" stroke="#5452F6"/>
</g>
<defs>
<filter id="filter0_d" x="0" y="0" width="233" height="124" filterUnits="userSpaceOnUse" color-interpolation-filters="sRGB">
<feFlood flood-opacity="0" result="BackgroundImageFix"/>
<feColorMatrix in="SourceAlpha" type="matrix" values="0 0 0 0 0 0 0 0 0 0 0 0 0 0 0 0 0 0 127 0"/>
<feOffset dx="4" dy="4"/>
<feColorMatrix type="matrix" values="0 0 0 0 0.674908 0 0 0 0 0.662083 0 0 0 0 0.945833 0 0 0 1 0"/>
<feBlend mode="normal" in2="BackgroundImageFix" result="effect1_dropShadow"/>
<feBlend mode="normal" in="SourceGraphic" in2="effect1_dropShadow" result="shape"/>
</filter>
<filter id="filter1_d" x="0" y="119" width="233" height="28" filterUnits="userSpaceOnUse" color-interpolation-filters="sRGB">
<feFlood flood-opacity="0" result="BackgroundImageFix"/>
<feColorMatrix in="SourceAlpha" type="matrix" values="0 0 0 0 0 0 0 0 0 0 0 0 0 0 0 0 0 0 127 0"/>
<feOffset dx="4" dy="4"/>
<feColorMatrix type="matrix" values="0 0 0 0 0.674908 0 0 0 0 0.662083 0 0 0 0 0.945833 0 0 0 1 0"/>
<feBlend mode="normal" in2="BackgroundImageFix" result="effect1_dropShadow"/>
<feBlend mode="normal" in="SourceGraphic" in2="effect1_dropShadow" result="shape"/>
</filter>
<filter id="filter2_d" x="400" y="0" width="233" height="124" filterUnits="userSpaceOnUse" color-interpolation-filters="sRGB">
<feFlood flood-opacity="0" result="BackgroundImageFix"/>
<feColorMatrix in="SourceAlpha" type="matrix" values="0 0 0 0 0 0 0 0 0 0 0 0 0 0 0 0 0 0 127 0"/>
<feOffset dx="4" dy="4"/>
<feColorMatrix type="matrix" values="0 0 0 0 0.674908 0 0 0 0 0.662083 0 0 0 0 0.945833 0 0 0 1 0"/>
<feBlend mode="normal" in2="BackgroundImageFix" result="effect1_dropShadow"/>
<feBlend mode="normal" in="SourceGraphic" in2="effect1_dropShadow" result="shape"/>
</filter>
<filter id="filter3_d" x="400" y="119" width="233" height="28" filterUnits="userSpaceOnUse" color-interpolation-filters="sRGB">
<feFlood flood-opacity="0" result="BackgroundImageFix"/>
<feColorMatrix in="SourceAlpha" type="matrix" values="0 0 0 0 0 0 0 0 0 0 0 0 0 0 0 0 0 0 127 0"/>
<feOffset dx="4" dy="4"/>
<feColorMatrix type="matrix" values="0 0 0 0 0.674908 0 0 0 0 0.662083 0 0 0 0 0.945833 0 0 0 1 0"/>
<feBlend mode="normal" in2="BackgroundImageFix" result="effect1_dropShadow"/>
<feBlend mode="normal" in="SourceGraphic" in2="effect1_dropShadow" result="shape"/>
</filter>
</defs>
</svg>
