<svg width="1060" height="306" viewBox="0 0 1060 306" fill="none" xmlns="http://www.w3.org/2000/svg">
<path d="M476.064 106L485 115.5L476.064 124.5" stroke="#5452F6" stroke-width="2" stroke-linecap="round" stroke-linejoin="round"/>
<g filter="url(#filter0_d)">
<path d="M0 85C0 80.5817 3.58172 77 8 77H221C225.418 77 229 80.5817 229 85V117H0V85Z" fill="white"/>
<path d="M8 77.5H221C225.142 77.5 228.5 80.8579 228.5 85V116.5H0.5V85C0.5 80.8579 3.85786 77.5 8 77.5Z" stroke="#5452F6"/>
</g>
<g filter="url(#filter1_d)">
<path d="M0 116H229V132C229 136.418 225.418 140 221 140H8.00001C3.58173 140 0 136.418 0 132V116Z" fill="#EEEEFF"/>
<path d="M0.5 116.5H228.5V132C228.5 136.142 225.142 139.5 221 139.5H8.00001C3.85787 139.5 0.5 136.142 0.5 132V116.5Z" stroke="#5452F6"/>
</g>
<path d="M32.9922 97.7734V102H31.0156V90.625H35.3672C36.638 90.625 37.6458 90.9557 38.3906 91.6172C39.1406 92.2786 39.5156 93.1536 39.5156 94.2422C39.5156 95.3568 39.1484 96.224 38.4141 96.8438C37.6849 97.4635 36.6615 97.7734 35.3438 97.7734H32.9922ZM32.9922 96.1875H35.3672C36.0703 96.1875 36.6068 96.0234 36.9766 95.6953C37.3464 95.362 37.5312 94.8828 37.5312 94.2578C37.5312 93.6432 37.3438 93.1536 36.9688 92.7891C36.5938 92.4193 36.0781 92.2292 35.4219 92.2188H32.9922V96.1875ZM46.2266 99.3516H41.8203L40.8984 102H38.8438L43.1406 90.625H44.9141L49.2188 102H47.1562L46.2266 99.3516ZM42.375 97.7578H45.6719L44.0234 93.0391L42.375 97.7578ZM52.6016 102H50.6328V90.625H52.6016V102ZM59.2109 97.6172H57.0078V102H55.0312V90.625H59.0312C60.3438 90.625 61.3568 90.9193 62.0703 91.5078C62.7839 92.0964 63.1406 92.9479 63.1406 94.0625C63.1406 94.8229 62.9557 95.4609 62.5859 95.9766C62.2214 96.487 61.7109 96.8802 61.0547 97.1562L63.6094 101.898V102H61.4922L59.2109 97.6172ZM57.0078 96.0312H59.0391C59.7057 96.0312 60.2266 95.8646 60.6016 95.5312C60.9766 95.1927 61.1641 94.7318 61.1641 94.1484C61.1641 93.5391 60.9896 93.0677 60.6406 92.7344C60.2969 92.401 59.7812 92.2292 59.0938 92.2188H57.0078V96.0312ZM68.8438 97.375C68.8438 96.1719 69.0052 95.0312 69.3281 93.9531C69.651 92.8698 70.125 91.9036 70.75 91.0547C71.375 90.2005 72.0365 89.6016 72.7344 89.2578L73.1094 90.3672C72.375 90.9245 71.7786 91.776 71.3203 92.9219C70.8672 94.0625 70.6198 95.3698 70.5781 96.8438L70.5703 97.5156C70.5703 99.0938 70.7917 100.503 71.2344 101.742C71.6823 102.977 72.3073 103.917 73.1094 104.562L72.7344 105.617C72.0365 105.273 71.3724 104.672 70.7422 103.812C70.1172 102.958 69.6432 101.995 69.3203 100.922C69.0026 99.8438 68.8438 98.6615 68.8438 97.375ZM78.7578 97.6172H76.5547V102H74.5781V90.625H78.5781C79.8906 90.625 80.9036 90.9193 81.6172 91.5078C82.3307 92.0964 82.6875 92.9479 82.6875 94.0625C82.6875 94.8229 82.5026 95.4609 82.1328 95.9766C81.7682 96.487 81.2578 96.8802 80.6016 97.1562L83.1562 101.898V102H81.0391L78.7578 97.6172ZM76.5547 96.0312H78.5859C79.2526 96.0312 79.7734 95.8646 80.1484 95.5312C80.5234 95.1927 80.7109 94.7318 80.7109 94.1484C80.7109 93.5391 80.5365 93.0677 80.1875 92.7344C79.8438 92.401 79.3281 92.2292 78.6406 92.2188H76.5547V96.0312ZM86.6484 102H84.6797V90.625H86.6484V102ZM97.7969 100.523C97.3854 101.06 96.8151 101.466 96.0859 101.742C95.3568 102.018 94.5286 102.156 93.6016 102.156C92.6484 102.156 91.8047 101.94 91.0703 101.508C90.3359 101.076 89.7682 100.458 89.3672 99.6562C88.9714 98.849 88.7656 97.9089 88.75 96.8359V95.9453C88.75 94.2266 89.1615 92.8854 89.9844 91.9219C90.8073 90.9531 91.9557 90.4688 93.4297 90.4688C94.6953 90.4688 95.7005 90.7812 96.4453 91.4062C97.1901 92.0312 97.638 92.9323 97.7891 94.1094H95.8516C95.6328 92.7396 94.8385 92.0547 93.4688 92.0547C92.5833 92.0547 91.9089 92.375 91.4453 93.0156C90.987 93.651 90.75 94.5859 90.7344 95.8203V96.6953C90.7344 97.9245 90.9922 98.8802 91.5078 99.5625C92.0286 100.24 92.75 100.578 93.6719 100.578C94.6823 100.578 95.401 100.349 95.8281 99.8906V97.6641H93.4844V96.1641H97.7969V100.523ZM109 102H107.031V96.9453H101.945V102H99.9688V90.625H101.945V95.3594H107.031V90.625H109V102ZM119.328 92.2188H115.781V102H113.82V92.2188H110.305V90.625H119.328V92.2188ZM126.18 102H124.281V93.5469H126.18V102ZM124.164 91.3516C124.164 91.0599 124.255 90.8177 124.438 90.625C124.625 90.4323 124.891 90.3359 125.234 90.3359C125.578 90.3359 125.844 90.4323 126.031 90.625C126.219 90.8177 126.312 91.0599 126.312 91.3516C126.312 91.638 126.219 91.8776 126.031 92.0703C125.844 92.2578 125.578 92.3516 125.234 92.3516C124.891 92.3516 124.625 92.2578 124.438 92.0703C124.255 91.8776 124.164 91.638 124.164 91.3516ZM130.016 93.5469L130.07 94.5234C130.695 93.7682 131.516 93.3906 132.531 93.3906C134.292 93.3906 135.188 94.3984 135.219 96.4141V102H133.32V96.5234C133.32 95.987 133.203 95.5911 132.969 95.3359C132.74 95.0755 132.362 94.9453 131.836 94.9453C131.07 94.9453 130.5 95.2917 130.125 95.9844V102H128.227V93.5469H130.016ZM139.539 91.4922V93.5469H141.031V94.9531H139.539V99.6719C139.539 99.9948 139.602 100.229 139.727 100.375C139.857 100.516 140.086 100.586 140.414 100.586C140.633 100.586 140.854 100.56 141.078 100.508V101.977C140.646 102.096 140.229 102.156 139.828 102.156C138.37 102.156 137.641 101.352 137.641 99.7422V94.9531H136.25V93.5469H137.641V91.4922H139.539ZM151.492 102H149.602V92.8672L146.812 93.8203V92.2188L151.25 90.5859H151.492V102ZM155.836 104.562L154.812 103.953C155.115 103.479 155.32 103.065 155.43 102.711C155.544 102.362 155.604 102.005 155.609 101.641V100.164H157.32L157.312 101.531C157.307 102.083 157.167 102.635 156.891 103.188C156.62 103.745 156.268 104.203 155.836 104.562ZM165.086 102H163.188V93.5469H165.086V102ZM163.07 91.3516C163.07 91.0599 163.161 90.8177 163.344 90.625C163.531 90.4323 163.797 90.3359 164.141 90.3359C164.484 90.3359 164.75 90.4323 164.938 90.625C165.125 90.8177 165.219 91.0599 165.219 91.3516C165.219 91.638 165.125 91.8776 164.938 92.0703C164.75 92.2578 164.484 92.3516 164.141 92.3516C163.797 92.3516 163.531 92.2578 163.344 92.0703C163.161 91.8776 163.07 91.638 163.07 91.3516ZM168.922 93.5469L168.977 94.5234C169.602 93.7682 170.422 93.3906 171.438 93.3906C173.198 93.3906 174.094 94.3984 174.125 96.4141V102H172.227V96.5234C172.227 95.987 172.109 95.5911 171.875 95.3359C171.646 95.0755 171.268 94.9453 170.742 94.9453C169.977 94.9453 169.406 95.2917 169.031 95.9844V102H167.133V93.5469H168.922ZM178.445 91.4922V93.5469H179.938V94.9531H178.445V99.6719C178.445 99.9948 178.508 100.229 178.633 100.375C178.763 100.516 178.992 100.586 179.32 100.586C179.539 100.586 179.76 100.56 179.984 100.508V101.977C179.552 102.096 179.135 102.156 178.734 102.156C177.276 102.156 176.547 101.352 176.547 99.7422V94.9531H175.156V93.5469H176.547V91.4922H178.445ZM185.766 96.3594L186.383 90.625H192.492V92.2656H187.961L187.648 94.9844C188.174 94.6823 188.768 94.5312 189.43 94.5312C190.513 94.5312 191.354 94.8776 191.953 95.5703C192.557 96.263 192.859 97.1953 192.859 98.3672C192.859 99.5234 192.526 100.445 191.859 101.133C191.193 101.815 190.279 102.156 189.117 102.156C188.076 102.156 187.211 101.862 186.523 101.273C185.841 100.68 185.471 99.8984 185.414 98.9297H187.25C187.323 99.4818 187.521 99.9062 187.844 100.203C188.167 100.495 188.589 100.641 189.109 100.641C189.693 100.641 190.146 100.432 190.469 100.016C190.797 99.599 190.961 99.0312 190.961 98.3125C190.961 97.6198 190.781 97.0729 190.422 96.6719C190.062 96.2656 189.568 96.0625 188.938 96.0625C188.594 96.0625 188.302 96.1094 188.062 96.2031C187.823 96.2917 187.562 96.4688 187.281 96.7344L185.766 96.3594ZM198.133 97.5C198.133 98.6562 197.974 99.7734 197.656 100.852C197.339 101.924 196.857 102.901 196.211 103.781C195.565 104.667 194.891 105.279 194.188 105.617L193.812 104.562C194.594 103.958 195.211 103.036 195.664 101.797C196.122 100.552 196.352 99.1328 196.352 97.5391V97.3594C196.352 95.9115 196.154 94.5938 195.758 93.4062C195.362 92.2135 194.794 91.2578 194.055 90.5391L193.812 90.3203L194.188 89.2578C194.854 89.5807 195.5 90.1536 196.125 90.9766C196.75 91.7995 197.229 92.7214 197.562 93.7422C197.896 94.7578 198.083 95.8073 198.125 96.8906L198.133 97.5Z" fill="#5452F6"/>
<g filter="url(#filter2_d)">
<path d="M800 45C800 40.5817 803.582 37 808 37H1021C1025.42 37 1029 40.5817 1029 45V117H800V45Z" fill="white"/>
<path d="M808 37.5H1021C1025.14 37.5 1028.5 40.8579 1028.5 45V116.5H800.5V45C800.5 40.8579 803.858 37.5 808 37.5Z" stroke="#5452F6"/>
</g>
<g filter="url(#filter3_d)">
<path d="M800 116H1029V132C1029 136.418 1025.42 140 1021 140H808C803.582 140 800 136.418 800 132V116Z" fill="#EEEEFF"/>
<path d="M800.5 116.5H1028.5V132C1028.5 136.142 1025.14 139.5 1021 139.5H808C803.858 139.5 800.5 136.142 800.5 132V116.5Z" stroke="#5452F6"/>
</g>
<line x1="800.5" y1="76.5" x2="1028.5" y2="76.5" stroke="#5452F6"/>
<path d="M901.789 102H899.891V93.5469H901.789V102ZM899.773 91.3516C899.773 91.0599 899.865 90.8177 900.047 90.625C900.234 90.4323 900.5 90.3359 900.844 90.3359C901.188 90.3359 901.453 90.4323 901.641 90.625C901.828 90.8177 901.922 91.0599 901.922 91.3516C901.922 91.638 901.828 91.8776 901.641 92.0703C901.453 92.2578 901.188 92.3516 900.844 92.3516C900.5 92.3516 900.234 92.2578 900.047 92.0703C899.865 91.8776 899.773 91.638 899.773 91.3516ZM905.625 93.5469L905.68 94.5234C906.305 93.7682 907.125 93.3906 908.141 93.3906C909.901 93.3906 910.797 94.3984 910.828 96.4141V102H908.93V96.5234C908.93 95.987 908.812 95.5911 908.578 95.3359C908.349 95.0755 907.971 94.9453 907.445 94.9453C906.68 94.9453 906.109 95.2917 905.734 95.9844V102H903.836V93.5469H905.625ZM915.148 91.4922V93.5469H916.641V94.9531H915.148V99.6719C915.148 99.9948 915.211 100.229 915.336 100.375C915.466 100.516 915.695 100.586 916.023 100.586C916.242 100.586 916.464 100.56 916.688 100.508V101.977C916.255 102.096 915.839 102.156 915.438 102.156C913.979 102.156 913.25 101.352 913.25 99.7422V94.9531H911.859V93.5469H913.25V91.4922H915.148ZM922.469 96.3594L923.086 90.625H929.195V92.2656H924.664L924.352 94.9844C924.878 94.6823 925.471 94.5312 926.133 94.5312C927.216 94.5312 928.057 94.8776 928.656 95.5703C929.26 96.263 929.562 97.1953 929.562 98.3672C929.562 99.5234 929.229 100.445 928.562 101.133C927.896 101.815 926.982 102.156 925.82 102.156C924.779 102.156 923.914 101.862 923.227 101.273C922.544 100.68 922.174 99.8984 922.117 98.9297H923.953C924.026 99.4818 924.224 99.9062 924.547 100.203C924.87 100.495 925.292 100.641 925.812 100.641C926.396 100.641 926.849 100.432 927.172 100.016C927.5 99.599 927.664 99.0312 927.664 98.3125C927.664 97.6198 927.484 97.0729 927.125 96.6719C926.766 96.2656 926.271 96.0625 925.641 96.0625C925.297 96.0625 925.005 96.1094 924.766 96.2031C924.526 96.2917 924.266 96.4688 923.984 96.7344L922.469 96.3594Z" fill="#5452F6"/>
<path d="M901.789 62H899.891V53.5469H901.789V62ZM899.773 51.3516C899.773 51.0599 899.865 50.8177 900.047 50.625C900.234 50.4323 900.5 50.3359 900.844 50.3359C901.188 50.3359 901.453 50.4323 901.641 50.625C901.828 50.8177 901.922 51.0599 901.922 51.3516C901.922 51.638 901.828 51.8776 901.641 52.0703C901.453 52.2578 901.188 52.3516 900.844 52.3516C900.5 52.3516 900.234 52.2578 900.047 52.0703C899.865 51.8776 899.773 51.638 899.773 51.3516ZM905.625 53.5469L905.68 54.5234C906.305 53.7682 907.125 53.3906 908.141 53.3906C909.901 53.3906 910.797 54.3984 910.828 56.4141V62H908.93V56.5234C908.93 55.987 908.812 55.5911 908.578 55.3359C908.349 55.0755 907.971 54.9453 907.445 54.9453C906.68 54.9453 906.109 55.2917 905.734 55.9844V62H903.836V53.5469H905.625ZM915.148 51.4922V53.5469H916.641V54.9531H915.148V59.6719C915.148 59.9948 915.211 60.2292 915.336 60.375C915.466 60.5156 915.695 60.5859 916.023 60.5859C916.242 60.5859 916.464 60.5599 916.688 60.5078V61.9766C916.255 62.0964 915.839 62.1562 915.438 62.1562C913.979 62.1562 913.25 61.3516 913.25 59.7422V54.9531H911.859V53.5469H913.25V51.4922H915.148ZM927.102 62H925.211V52.8672L922.422 53.8203V52.2188L926.859 50.5859H927.102V62Z" fill="#5452F6"/>
<g filter="url(#filter4_d)">
<path d="M400 45C400 40.5817 403.582 37 408 37H621C625.418 37 629 40.5817 629 45V117H400V45Z" fill="white"/>
<path d="M408 37.5H621C625.142 37.5 628.5 40.8579 628.5 45V116.5H400.5V45C400.5 40.8579 403.858 37.5 408 37.5Z" stroke="#5452F6"/>
</g>
<g filter="url(#filter5_d)">
<path d="M400 116H629V132C629 136.418 625.418 140 621 140H408C403.582 140 400 136.418 400 132V116Z" fill="#EEEEFF"/>
<path d="M400.5 116.5H628.5V132C628.5 136.142 625.142 139.5 621 139.5H408C403.858 139.5 400.5 136.142 400.5 132V116.5Z" stroke="#5452F6"/>
</g>
<line x1="400.5" y1="76.5" x2="628.5" y2="76.5" stroke="#5452F6"/>
<path d="M501.789 102H499.891V93.5469H501.789V102ZM499.773 91.3516C499.773 91.0599 499.865 90.8177 500.047 90.625C500.234 90.4323 500.5 90.3359 500.844 90.3359C501.188 90.3359 501.453 90.4323 501.641 90.625C501.828 90.8177 501.922 91.0599 501.922 91.3516C501.922 91.638 501.828 91.8776 501.641 92.0703C501.453 92.2578 501.188 92.3516 500.844 92.3516C500.5 92.3516 500.234 92.2578 500.047 92.0703C499.865 91.8776 499.773 91.638 499.773 91.3516ZM505.625 93.5469L505.68 94.5234C506.305 93.7682 507.125 93.3906 508.141 93.3906C509.901 93.3906 510.797 94.3984 510.828 96.4141V102H508.93V96.5234C508.93 95.987 508.812 95.5911 508.578 95.3359C508.349 95.0755 507.971 94.9453 507.445 94.9453C506.68 94.9453 506.109 95.2917 505.734 95.9844V102H503.836V93.5469H505.625ZM515.148 91.4922V93.5469H516.641V94.9531H515.148V99.6719C515.148 99.9948 515.211 100.229 515.336 100.375C515.466 100.516 515.695 100.586 516.023 100.586C516.242 100.586 516.464 100.56 516.688 100.508V101.977C516.255 102.096 515.839 102.156 515.438 102.156C513.979 102.156 513.25 101.352 513.25 99.7422V94.9531H511.859V93.5469H513.25V91.4922H515.148ZM522.469 96.3594L523.086 90.625H529.195V92.2656H524.664L524.352 94.9844C524.878 94.6823 525.471 94.5312 526.133 94.5312C527.216 94.5312 528.057 94.8776 528.656 95.5703C529.26 96.263 529.562 97.1953 529.562 98.3672C529.562 99.5234 529.229 100.445 528.562 101.133C527.896 101.815 526.982 102.156 525.82 102.156C524.779 102.156 523.914 101.862 523.227 101.273C522.544 100.68 522.174 99.8984 522.117 98.9297H523.953C524.026 99.4818 524.224 99.9062 524.547 100.203C524.87 100.495 525.292 100.641 525.812 100.641C526.396 100.641 526.849 100.432 527.172 100.016C527.5 99.599 527.664 99.0312 527.664 98.3125C527.664 97.6198 527.484 97.0729 527.125 96.6719C526.766 96.2656 526.271 96.0625 525.641 96.0625C525.297 96.0625 525.005 96.1094 524.766 96.2031C524.526 96.2917 524.266 96.4688 523.984 96.7344L522.469 96.3594Z" fill="#5452F6"/>
<path d="M479.25 57.6172H477.047V62H475.07V50.625H479.07C480.383 50.625 481.396 50.9193 482.109 51.5078C482.823 52.0964 483.18 52.9479 483.18 54.0625C483.18 54.8229 482.995 55.4609 482.625 55.9766C482.26 56.487 481.75 56.8802 481.094 57.1562L483.648 61.8984V62H481.531L479.25 57.6172ZM477.047 56.0312H479.078C479.745 56.0312 480.266 55.8646 480.641 55.5312C481.016 55.1927 481.203 54.7318 481.203 54.1484C481.203 53.5391 481.029 53.0677 480.68 52.7344C480.336 52.401 479.82 52.2292 479.133 52.2188H477.047V56.0312ZM487.141 62H485.172V50.625H487.141V62ZM498.289 60.5234C497.878 61.0599 497.307 61.4661 496.578 61.7422C495.849 62.0182 495.021 62.1562 494.094 62.1562C493.141 62.1562 492.297 61.9401 491.562 61.5078C490.828 61.0755 490.26 60.4583 489.859 59.6562C489.464 58.849 489.258 57.9089 489.242 56.8359V55.9453C489.242 54.2266 489.654 52.8854 490.477 51.9219C491.299 50.9531 492.448 50.4688 493.922 50.4688C495.188 50.4688 496.193 50.7812 496.938 51.4062C497.682 52.0312 498.13 52.9323 498.281 54.1094H496.344C496.125 52.7396 495.331 52.0547 493.961 52.0547C493.076 52.0547 492.401 52.375 491.938 53.0156C491.479 53.651 491.242 54.5859 491.227 55.8203V56.6953C491.227 57.9245 491.484 58.8802 492 59.5625C492.521 60.2396 493.242 60.5781 494.164 60.5781C495.174 60.5781 495.893 60.349 496.32 59.8906V57.6641H493.977V56.1641H498.289V60.5234ZM509.492 62H507.523V56.9453H502.438V62H500.461V50.625H502.438V55.3594H507.523V50.625H509.492V62ZM519.82 52.2188H516.273V62H514.312V52.2188H510.797V50.625H519.82V52.2188ZM526.672 62H524.773V53.5469H526.672V62ZM524.656 51.3516C524.656 51.0599 524.747 50.8177 524.93 50.625C525.117 50.4323 525.383 50.3359 525.727 50.3359C526.07 50.3359 526.336 50.4323 526.523 50.625C526.711 50.8177 526.805 51.0599 526.805 51.3516C526.805 51.638 526.711 51.8776 526.523 52.0703C526.336 52.2578 526.07 52.3516 525.727 52.3516C525.383 52.3516 525.117 52.2578 524.93 52.0703C524.747 51.8776 524.656 51.638 524.656 51.3516ZM530.508 53.5469L530.562 54.5234C531.188 53.7682 532.008 53.3906 533.023 53.3906C534.784 53.3906 535.68 54.3984 535.711 56.4141V62H533.812V56.5234C533.812 55.987 533.695 55.5911 533.461 55.3359C533.232 55.0755 532.854 54.9453 532.328 54.9453C531.562 54.9453 530.992 55.2917 530.617 55.9844V62H528.719V53.5469H530.508ZM540.031 51.4922V53.5469H541.523V54.9531H540.031V59.6719C540.031 59.9948 540.094 60.2292 540.219 60.375C540.349 60.5156 540.578 60.5859 540.906 60.5859C541.125 60.5859 541.346 60.5599 541.57 60.5078V61.9766C541.138 62.0964 540.721 62.1562 540.32 62.1562C538.862 62.1562 538.133 61.3516 538.133 59.7422V54.9531H536.742V53.5469H538.133V51.4922H540.031ZM551.984 62H550.094V52.8672L547.305 53.8203V52.2188L551.742 50.5859H551.984V62Z" fill="#5452F6"/>
<g filter="url(#filter6_d)">
<path d="M400 247C400 242.582 403.582 239 408 239H621C625.418 239 629 242.582 629 247V279H400V247Z" fill="white"/>
<path d="M408 239.5H621C625.142 239.5 628.5 242.858 628.5 247V278.5H400.5V247C400.5 242.858 403.858 239.5 408 239.5Z" stroke="#5452F6"/>
</g>
<g filter="url(#filter7_d)">
<path d="M400 278H629V294C629 298.418 625.418 302 621 302H408C403.582 302 400 298.418 400 294V278Z" fill="#EEEEFF"/>
<path d="M400.5 278.5H628.5V294C628.5 298.142 625.142 301.5 621 301.5H408C403.858 301.5 400.5 298.142 400.5 294V278.5Z" stroke="#5452F6"/>
</g>
<path d="M501.789 264H499.891V255.547H501.789V264ZM499.773 253.352C499.773 253.06 499.865 252.818 500.047 252.625C500.234 252.432 500.5 252.336 500.844 252.336C501.188 252.336 501.453 252.432 501.641 252.625C501.828 252.818 501.922 253.06 501.922 253.352C501.922 253.638 501.828 253.878 501.641 254.07C501.453 254.258 501.188 254.352 500.844 254.352C500.5 254.352 500.234 254.258 500.047 254.07C499.865 253.878 499.773 253.638 499.773 253.352ZM505.625 255.547L505.68 256.523C506.305 255.768 507.125 255.391 508.141 255.391C509.901 255.391 510.797 256.398 510.828 258.414V264H508.93V258.523C508.93 257.987 508.812 257.591 508.578 257.336C508.349 257.076 507.971 256.945 507.445 256.945C506.68 256.945 506.109 257.292 505.734 257.984V264H503.836V255.547H505.625ZM515.148 253.492V255.547H516.641V256.953H515.148V261.672C515.148 261.995 515.211 262.229 515.336 262.375C515.466 262.516 515.695 262.586 516.023 262.586C516.242 262.586 516.464 262.56 516.688 262.508V263.977C516.255 264.096 515.839 264.156 515.438 264.156C513.979 264.156 513.25 263.352 513.25 261.742V256.953H511.859V255.547H513.25V253.492H515.148ZM527.867 252.57V254.141H527.633C526.57 254.156 525.721 254.448 525.086 255.016C524.451 255.583 524.073 256.388 523.953 257.43C524.562 256.789 525.341 256.469 526.289 256.469C527.294 256.469 528.086 256.823 528.664 257.531C529.247 258.24 529.539 259.154 529.539 260.273C529.539 261.43 529.198 262.367 528.516 263.086C527.839 263.799 526.948 264.156 525.844 264.156C524.708 264.156 523.786 263.737 523.078 262.898C522.375 262.06 522.023 260.961 522.023 259.602V258.953C522.023 256.958 522.508 255.396 523.477 254.266C524.451 253.135 525.849 252.57 527.672 252.57H527.867ZM525.828 258C525.411 258 525.029 258.117 524.68 258.352C524.336 258.586 524.083 258.898 523.922 259.289V259.867C523.922 260.711 524.099 261.383 524.453 261.883C524.807 262.378 525.266 262.625 525.828 262.625C526.391 262.625 526.836 262.414 527.164 261.992C527.492 261.57 527.656 261.016 527.656 260.328C527.656 259.641 527.49 259.081 527.156 258.648C526.823 258.216 526.38 258 525.828 258Z" fill="#5452F6"/>
<g filter="url(#filter8_d)">
<path d="M0 207C0 202.582 3.58172 199 8 199H221C225.418 199 229 202.582 229 207V279H0V207Z" fill="white"/>
<path d="M8 199.5H221C225.142 199.5 228.5 202.858 228.5 207V278.5H0.5V207C0.5 202.858 3.85786 199.5 8 199.5Z" stroke="#5452F6"/>
</g>
<g filter="url(#filter9_d)">
<path d="M0 278H229V294C229 298.418 225.418 302 221 302H8.00001C3.58173 302 0 298.418 0 294V278Z" fill="#EEEEFF"/>
<path d="M0.5 278.5H228.5V294C228.5 298.142 225.142 301.5 221 301.5H8.00001C3.85787 301.5 0.5 298.142 0.5 294V278.5Z" stroke="#5452F6"/>
</g>
<line x1="0.5" y1="238.5" x2="228.5" y2="238.5" stroke="#5452F6"/>
<path d="M101.789 264H99.8906V255.547H101.789V264ZM99.7734 253.352C99.7734 253.06 99.8646 252.818 100.047 252.625C100.234 252.432 100.5 252.336 100.844 252.336C101.188 252.336 101.453 252.432 101.641 252.625C101.828 252.818 101.922 253.06 101.922 253.352C101.922 253.638 101.828 253.878 101.641 254.07C101.453 254.258 101.188 254.352 100.844 254.352C100.5 254.352 100.234 254.258 100.047 254.07C99.8646 253.878 99.7734 253.638 99.7734 253.352ZM105.625 255.547L105.68 256.523C106.305 255.768 107.125 255.391 108.141 255.391C109.901 255.391 110.797 256.398 110.828 258.414V264H108.93V258.523C108.93 257.987 108.812 257.591 108.578 257.336C108.349 257.076 107.971 256.945 107.445 256.945C106.68 256.945 106.109 257.292 105.734 257.984V264H103.836V255.547H105.625ZM115.148 253.492V255.547H116.641V256.953H115.148V261.672C115.148 261.995 115.211 262.229 115.336 262.375C115.466 262.516 115.695 262.586 116.023 262.586C116.242 262.586 116.464 262.56 116.688 262.508V263.977C116.255 264.096 115.839 264.156 115.438 264.156C113.979 264.156 113.25 263.352 113.25 261.742V256.953H111.859V255.547H113.25V253.492H115.148ZM122.469 258.359L123.086 252.625H129.195V254.266H124.664L124.352 256.984C124.878 256.682 125.471 256.531 126.133 256.531C127.216 256.531 128.057 256.878 128.656 257.57C129.26 258.263 129.562 259.195 129.562 260.367C129.562 261.523 129.229 262.445 128.562 263.133C127.896 263.815 126.982 264.156 125.82 264.156C124.779 264.156 123.914 263.862 123.227 263.273C122.544 262.68 122.174 261.898 122.117 260.93H123.953C124.026 261.482 124.224 261.906 124.547 262.203C124.87 262.495 125.292 262.641 125.812 262.641C126.396 262.641 126.849 262.432 127.172 262.016C127.5 261.599 127.664 261.031 127.664 260.312C127.664 259.62 127.484 259.073 127.125 258.672C126.766 258.266 126.271 258.062 125.641 258.062C125.297 258.062 125.005 258.109 124.766 258.203C124.526 258.292 124.266 258.469 123.984 258.734L122.469 258.359Z" fill="#5452F6"/>
<path d="M101.789 224H99.8906V215.547H101.789V224ZM99.7734 213.352C99.7734 213.06 99.8646 212.818 100.047 212.625C100.234 212.432 100.5 212.336 100.844 212.336C101.188 212.336 101.453 212.432 101.641 212.625C101.828 212.818 101.922 213.06 101.922 213.352C101.922 213.638 101.828 213.878 101.641 214.07C101.453 214.258 101.188 214.352 100.844 214.352C100.5 214.352 100.234 214.258 100.047 214.07C99.8646 213.878 99.7734 213.638 99.7734 213.352ZM105.625 215.547L105.68 216.523C106.305 215.768 107.125 215.391 108.141 215.391C109.901 215.391 110.797 216.398 110.828 218.414V224H108.93V218.523C108.93 217.987 108.812 217.591 108.578 217.336C108.349 217.076 107.971 216.945 107.445 216.945C106.68 216.945 106.109 217.292 105.734 217.984V224H103.836V215.547H105.625ZM115.148 213.492V215.547H116.641V216.953H115.148V221.672C115.148 221.995 115.211 222.229 115.336 222.375C115.466 222.516 115.695 222.586 116.023 222.586C116.242 222.586 116.464 222.56 116.688 222.508V223.977C116.255 224.096 115.839 224.156 115.438 224.156C113.979 224.156 113.25 223.352 113.25 221.742V216.953H111.859V215.547H113.25V213.492H115.148ZM127.102 224H125.211V214.867L122.422 215.82V214.219L126.859 212.586H127.102V224Z" fill="#5452F6"/>
<g filter="url(#filter10_d)">
<path d="M800 247C800 242.582 803.582 239 808 239H1021C1025.42 239 1029 242.582 1029 247V279H800V247Z" fill="white"/>
<path d="M808 239.5H1021C1025.14 239.5 1028.5 242.858 1028.5 247V278.5H800.5V247C800.5 242.858 803.858 239.5 808 239.5Z" stroke="#5452F6"/>
</g>
<g filter="url(#filter11_d)">
<path d="M800 278H1029V294C1029 298.418 1025.42 302 1021 302H808C803.582 302 800 298.418 800 294V278Z" fill="#EEEEFF"/>
<path d="M800.5 278.5H1028.5V294C1028.5 298.142 1025.14 301.5 1021 301.5H808C803.858 301.5 800.5 298.142 800.5 294V278.5Z" stroke="#5452F6"/>
</g>
<path d="M819.227 259.773V264H817.25V252.625H821.602C822.872 252.625 823.88 252.956 824.625 253.617C825.375 254.279 825.75 255.154 825.75 256.242C825.75 257.357 825.383 258.224 824.648 258.844C823.919 259.464 822.896 259.773 821.578 259.773H819.227ZM819.227 258.188H821.602C822.305 258.188 822.841 258.023 823.211 257.695C823.581 257.362 823.766 256.883 823.766 256.258C823.766 255.643 823.578 255.154 823.203 254.789C822.828 254.419 822.312 254.229 821.656 254.219H819.227V258.188ZM832.461 261.352H828.055L827.133 264H825.078L829.375 252.625H831.148L835.453 264H833.391L832.461 261.352ZM828.609 259.758H831.906L830.258 255.039L828.609 259.758ZM838.836 264H836.867V252.625H838.836V264ZM845.445 259.617H843.242V264H841.266V252.625H845.266C846.578 252.625 847.591 252.919 848.305 253.508C849.018 254.096 849.375 254.948 849.375 256.062C849.375 256.823 849.19 257.461 848.82 257.977C848.456 258.487 847.945 258.88 847.289 259.156L849.844 263.898V264H847.727L845.445 259.617ZM843.242 258.031H845.273C845.94 258.031 846.461 257.865 846.836 257.531C847.211 257.193 847.398 256.732 847.398 256.148C847.398 255.539 847.224 255.068 846.875 254.734C846.531 254.401 846.016 254.229 845.328 254.219H843.242V258.031ZM855.078 259.375C855.078 258.172 855.24 257.031 855.562 255.953C855.885 254.87 856.359 253.904 856.984 253.055C857.609 252.201 858.271 251.602 858.969 251.258L859.344 252.367C858.609 252.924 858.013 253.776 857.555 254.922C857.102 256.062 856.854 257.37 856.812 258.844L856.805 259.516C856.805 261.094 857.026 262.503 857.469 263.742C857.917 264.977 858.542 265.917 859.344 266.562L858.969 267.617C858.271 267.273 857.607 266.672 856.977 265.812C856.352 264.958 855.878 263.995 855.555 262.922C855.237 261.844 855.078 260.661 855.078 259.375ZM862.648 264H860.75V252H862.648V264ZM866.742 264H864.844V255.547H866.742V264ZM864.727 253.352C864.727 253.06 864.818 252.818 865 252.625C865.188 252.432 865.453 252.336 865.797 252.336C866.141 252.336 866.406 252.432 866.594 252.625C866.781 252.818 866.875 253.06 866.875 253.352C866.875 253.638 866.781 253.878 866.594 254.07C866.406 254.258 866.141 254.352 865.797 254.352C865.453 254.352 865.188 254.258 865 254.07C864.818 253.878 864.727 253.638 864.727 253.352ZM873.555 261.703C873.555 261.365 873.414 261.107 873.133 260.93C872.857 260.753 872.396 260.596 871.75 260.461C871.104 260.326 870.565 260.154 870.133 259.945C869.185 259.487 868.711 258.823 868.711 257.953C868.711 257.224 869.018 256.615 869.633 256.125C870.247 255.635 871.029 255.391 871.977 255.391C872.987 255.391 873.802 255.641 874.422 256.141C875.047 256.641 875.359 257.289 875.359 258.086H873.461C873.461 257.721 873.326 257.419 873.055 257.18C872.784 256.935 872.424 256.812 871.977 256.812C871.56 256.812 871.219 256.909 870.953 257.102C870.693 257.294 870.562 257.552 870.562 257.875C870.562 258.167 870.685 258.393 870.93 258.555C871.174 258.716 871.669 258.88 872.414 259.047C873.159 259.208 873.742 259.404 874.164 259.633C874.591 259.857 874.906 260.128 875.109 260.445C875.318 260.763 875.422 261.148 875.422 261.602C875.422 262.362 875.107 262.979 874.477 263.453C873.846 263.922 873.021 264.156 872 264.156C871.307 264.156 870.69 264.031 870.148 263.781C869.607 263.531 869.185 263.188 868.883 262.75C868.581 262.312 868.43 261.841 868.43 261.336H870.273C870.299 261.784 870.469 262.13 870.781 262.375C871.094 262.615 871.508 262.734 872.023 262.734C872.523 262.734 872.904 262.641 873.164 262.453C873.424 262.26 873.555 262.01 873.555 261.703ZM879.461 253.492V255.547H880.953V256.953H879.461V261.672C879.461 261.995 879.523 262.229 879.648 262.375C879.779 262.516 880.008 262.586 880.336 262.586C880.555 262.586 880.776 262.56 881 262.508V263.977C880.568 264.096 880.151 264.156 879.75 264.156C878.292 264.156 877.562 263.352 877.562 261.742V256.953H876.172V255.547H877.562V253.492H879.461ZM886.039 259.695C886.039 258.867 886.203 258.122 886.531 257.461C886.859 256.794 887.32 256.284 887.914 255.93C888.508 255.57 889.19 255.391 889.961 255.391C891.102 255.391 892.026 255.758 892.734 256.492C893.448 257.227 893.833 258.201 893.891 259.414L893.898 259.859C893.898 260.693 893.737 261.438 893.414 262.094C893.096 262.75 892.638 263.258 892.039 263.617C891.445 263.977 890.758 264.156 889.977 264.156C888.784 264.156 887.828 263.76 887.109 262.969C886.396 262.172 886.039 261.112 886.039 259.789V259.695ZM887.938 259.859C887.938 260.729 888.117 261.411 888.477 261.906C888.836 262.396 889.336 262.641 889.977 262.641C890.617 262.641 891.115 262.391 891.469 261.891C891.828 261.391 892.008 260.659 892.008 259.695C892.008 258.841 891.823 258.164 891.453 257.664C891.089 257.164 890.591 256.914 889.961 256.914C889.341 256.914 888.849 257.161 888.484 257.656C888.12 258.146 887.938 258.88 887.938 259.859ZM902.906 259.859C902.906 261.167 902.609 262.211 902.016 262.992C901.422 263.768 900.625 264.156 899.625 264.156C898.698 264.156 897.956 263.852 897.398 263.242V267.25H895.5V255.547H897.25L897.328 256.406C897.885 255.729 898.643 255.391 899.602 255.391C900.633 255.391 901.44 255.776 902.023 256.547C902.612 257.312 902.906 258.378 902.906 259.742V259.859ZM901.016 259.695C901.016 258.852 900.846 258.182 900.508 257.688C900.174 257.193 899.695 256.945 899.07 256.945C898.294 256.945 897.737 257.266 897.398 257.906V261.656C897.742 262.312 898.305 262.641 899.086 262.641C899.69 262.641 900.161 262.398 900.5 261.914C900.844 261.424 901.016 260.685 901.016 259.695ZM908.242 264.156C907.039 264.156 906.062 263.779 905.312 263.023C904.568 262.263 904.195 261.253 904.195 259.992V259.758C904.195 258.914 904.357 258.161 904.68 257.5C905.008 256.833 905.466 256.315 906.055 255.945C906.643 255.576 907.299 255.391 908.023 255.391C909.174 255.391 910.062 255.758 910.688 256.492C911.318 257.227 911.633 258.266 911.633 259.609V260.375H906.109C906.167 261.073 906.398 261.625 906.805 262.031C907.216 262.438 907.732 262.641 908.352 262.641C909.221 262.641 909.93 262.289 910.477 261.586L911.5 262.562C911.161 263.068 910.708 263.461 910.141 263.742C909.578 264.018 908.945 264.156 908.242 264.156ZM908.016 256.914C907.495 256.914 907.073 257.096 906.75 257.461C906.432 257.826 906.229 258.333 906.141 258.984H909.758V258.844C909.716 258.208 909.547 257.729 909.25 257.406C908.953 257.078 908.542 256.914 908.016 256.914ZM917.539 257.281C917.289 257.24 917.031 257.219 916.766 257.219C915.896 257.219 915.31 257.552 915.008 258.219V264H913.109V255.547H914.922L914.969 256.492C915.427 255.758 916.062 255.391 916.875 255.391C917.146 255.391 917.37 255.427 917.547 255.5L917.539 257.281ZM923.555 264C923.471 263.839 923.398 263.576 923.336 263.211C922.732 263.841 921.992 264.156 921.117 264.156C920.268 264.156 919.576 263.914 919.039 263.43C918.503 262.945 918.234 262.346 918.234 261.633C918.234 260.732 918.568 260.042 919.234 259.562C919.906 259.078 920.865 258.836 922.109 258.836H923.273V258.281C923.273 257.844 923.151 257.495 922.906 257.234C922.661 256.969 922.289 256.836 921.789 256.836C921.357 256.836 921.003 256.945 920.727 257.164C920.451 257.378 920.312 257.651 920.312 257.984H918.414C918.414 257.521 918.568 257.089 918.875 256.688C919.182 256.281 919.599 255.964 920.125 255.734C920.656 255.505 921.247 255.391 921.898 255.391C922.888 255.391 923.677 255.641 924.266 256.141C924.854 256.635 925.156 257.333 925.172 258.234V262.047C925.172 262.807 925.279 263.414 925.492 263.867V264H923.555ZM921.469 262.633C921.844 262.633 922.195 262.542 922.523 262.359C922.857 262.177 923.107 261.932 923.273 261.625V260.031H922.25C921.547 260.031 921.018 260.154 920.664 260.398C920.31 260.643 920.133 260.99 920.133 261.438C920.133 261.802 920.253 262.094 920.492 262.312C920.737 262.526 921.062 262.633 921.469 262.633ZM929.539 253.492V255.547H931.031V256.953H929.539V261.672C929.539 261.995 929.602 262.229 929.727 262.375C929.857 262.516 930.086 262.586 930.414 262.586C930.633 262.586 930.854 262.56 931.078 262.508V263.977C930.646 264.096 930.229 264.156 929.828 264.156C928.37 264.156 927.641 263.352 927.641 261.742V256.953H926.25V255.547H927.641V253.492H929.539ZM934.508 264H932.609V255.547H934.508V264ZM932.492 253.352C932.492 253.06 932.583 252.818 932.766 252.625C932.953 252.432 933.219 252.336 933.562 252.336C933.906 252.336 934.172 252.432 934.359 252.625C934.547 252.818 934.641 253.06 934.641 253.352C934.641 253.638 934.547 253.878 934.359 254.07C934.172 254.258 933.906 254.352 933.562 254.352C933.219 254.352 932.953 254.258 932.766 254.07C932.583 253.878 932.492 253.638 932.492 253.352ZM936.227 259.695C936.227 258.867 936.391 258.122 936.719 257.461C937.047 256.794 937.508 256.284 938.102 255.93C938.695 255.57 939.378 255.391 940.148 255.391C941.289 255.391 942.214 255.758 942.922 256.492C943.635 257.227 944.021 258.201 944.078 259.414L944.086 259.859C944.086 260.693 943.924 261.438 943.602 262.094C943.284 262.75 942.826 263.258 942.227 263.617C941.633 263.977 940.945 264.156 940.164 264.156C938.971 264.156 938.016 263.76 937.297 262.969C936.583 262.172 936.227 261.112 936.227 259.789V259.695ZM938.125 259.859C938.125 260.729 938.305 261.411 938.664 261.906C939.023 262.396 939.523 262.641 940.164 262.641C940.805 262.641 941.302 262.391 941.656 261.891C942.016 261.391 942.195 260.659 942.195 259.695C942.195 258.841 942.01 258.164 941.641 257.664C941.276 257.164 940.779 256.914 940.148 256.914C939.529 256.914 939.036 257.161 938.672 257.656C938.307 258.146 938.125 258.88 938.125 259.859ZM947.453 255.547L947.508 256.523C948.133 255.768 948.953 255.391 949.969 255.391C951.729 255.391 952.625 256.398 952.656 258.414V264H950.758V258.523C950.758 257.987 950.641 257.591 950.406 257.336C950.177 257.076 949.799 256.945 949.273 256.945C948.508 256.945 947.938 257.292 947.562 257.984V264H945.664V255.547H947.453ZM962.367 266.812C960.529 266.297 959.591 265.122 959.555 263.289V261.625C959.555 260.453 959.052 259.867 958.047 259.867V258.477C959.052 258.477 959.555 257.888 959.555 256.711V255.055C959.57 254.117 959.812 253.359 960.281 252.781C960.755 252.203 961.451 251.784 962.367 251.523L962.742 252.617C961.841 252.909 961.375 253.706 961.344 255.008V256.695C961.344 257.867 960.893 258.69 959.992 259.164C960.893 259.643 961.344 260.474 961.344 261.656V263.32C961.375 264.622 961.841 265.419 962.742 265.711L962.367 266.812ZM963.195 265.711C964.112 265.414 964.581 264.602 964.602 263.273V261.648C964.602 260.445 965.076 259.62 966.023 259.172C965.076 258.724 964.602 257.891 964.602 256.672V255.055C964.581 253.727 964.112 252.914 963.195 252.617L963.57 251.523C964.518 251.789 965.224 252.221 965.688 252.82C966.151 253.414 966.383 254.193 966.383 255.156V256.719C966.383 257.891 966.888 258.477 967.898 258.477V259.867C966.888 259.867 966.383 260.453 966.383 261.625V263.164C966.383 264.138 966.148 264.922 965.68 265.516C965.216 266.115 964.513 266.547 963.57 266.812L963.195 265.711ZM969.602 266.562L968.578 265.953C968.88 265.479 969.086 265.065 969.195 264.711C969.31 264.362 969.37 264.005 969.375 263.641V262.164H971.086L971.078 263.531C971.073 264.083 970.932 264.635 970.656 265.188C970.385 265.745 970.034 266.203 969.602 266.562ZM978.852 264H976.953V255.547H978.852V264ZM976.836 253.352C976.836 253.06 976.927 252.818 977.109 252.625C977.297 252.432 977.562 252.336 977.906 252.336C978.25 252.336 978.516 252.432 978.703 252.625C978.891 252.818 978.984 253.06 978.984 253.352C978.984 253.638 978.891 253.878 978.703 254.07C978.516 254.258 978.25 254.352 977.906 254.352C977.562 254.352 977.297 254.258 977.109 254.07C976.927 253.878 976.836 253.638 976.836 253.352ZM982.688 255.547L982.742 256.523C983.367 255.768 984.188 255.391 985.203 255.391C986.964 255.391 987.859 256.398 987.891 258.414V264H985.992V258.523C985.992 257.987 985.875 257.591 985.641 257.336C985.411 257.076 985.034 256.945 984.508 256.945C983.742 256.945 983.172 257.292 982.797 257.984V264H980.898V255.547H982.688ZM992.211 253.492V255.547H993.703V256.953H992.211V261.672C992.211 261.995 992.273 262.229 992.398 262.375C992.529 262.516 992.758 262.586 993.086 262.586C993.305 262.586 993.526 262.56 993.75 262.508V263.977C993.318 264.096 992.901 264.156 992.5 264.156C991.042 264.156 990.312 263.352 990.312 261.742V256.953H988.922V255.547H990.312V253.492H992.211ZM1004.93 252.57V254.141H1004.7C1003.63 254.156 1002.78 254.448 1002.15 255.016C1001.51 255.583 1001.14 256.388 1001.02 257.43C1001.62 256.789 1002.4 256.469 1003.35 256.469C1004.36 256.469 1005.15 256.823 1005.73 257.531C1006.31 258.24 1006.6 259.154 1006.6 260.273C1006.6 261.43 1006.26 262.367 1005.58 263.086C1004.9 263.799 1004.01 264.156 1002.91 264.156C1001.77 264.156 1000.85 263.737 1000.14 262.898C999.438 262.06 999.086 260.961 999.086 259.602V258.953C999.086 256.958 999.57 255.396 1000.54 254.266C1001.51 253.135 1002.91 252.57 1004.73 252.57H1004.93ZM1002.89 258C1002.47 258 1002.09 258.117 1001.74 258.352C1001.4 258.586 1001.15 258.898 1000.98 259.289V259.867C1000.98 260.711 1001.16 261.383 1001.52 261.883C1001.87 262.378 1002.33 262.625 1002.89 262.625C1003.45 262.625 1003.9 262.414 1004.23 261.992C1004.55 261.57 1004.72 261.016 1004.72 260.328C1004.72 259.641 1004.55 259.081 1004.22 258.648C1003.89 258.216 1003.44 258 1002.89 258ZM1011.9 259.5C1011.9 260.656 1011.74 261.773 1011.42 262.852C1011.1 263.924 1010.62 264.901 1009.98 265.781C1009.33 266.667 1008.66 267.279 1007.95 267.617L1007.58 266.562C1008.36 265.958 1008.98 265.036 1009.43 263.797C1009.89 262.552 1010.12 261.133 1010.12 259.539V259.359C1010.12 257.911 1009.92 256.594 1009.52 255.406C1009.13 254.214 1008.56 253.258 1007.82 252.539L1007.58 252.32L1007.95 251.258C1008.62 251.581 1009.27 252.154 1009.89 252.977C1010.52 253.799 1010.99 254.721 1011.33 255.742C1011.66 256.758 1011.85 257.807 1011.89 258.891L1011.9 259.5Z" fill="#5452F6"/>
<line x1="657" y1="117.5" x2="791" y2="117.5" stroke="#65BF73" stroke-width="2"/>
<path d="M781 108L791.5 117.5L781 126.5" stroke="#65BF73" stroke-width="2" stroke-linecap="round" stroke-linejoin="round"/>
<circle cx="652.5" cy="118" r="5.5" stroke="#65BF73" stroke-width="2"/>
<path d="M692.289 103H690.32V91.625H692.289V103ZM701.273 98.1797H696.695V103H694.719V91.625H701.945V93.2188H696.695V96.6016H701.273V98.1797ZM709.547 104.492H702.383V103H709.547V104.492ZM712.711 101.422H717.875V103H710.734V91.625H712.711V101.422ZM726.039 97.9219H721.367V101.422H726.828V103H719.391V91.625H726.773V93.2188H721.367V96.3594H726.039V97.9219ZM734.992 98.1797H730.414V103H728.438V91.625H735.664V93.2188H730.414V96.6016H734.992V98.1797ZM745.609 93.2188H742.062V103H740.102V93.2188H736.586V91.625H745.609V93.2188Z" fill="#65BF73"/>
<line x1="657" y1="278.5" x2="791" y2="278.5" stroke="#65BF73" stroke-width="2"/>
<path d="M781 269L791.5 278.5L781 287.5" stroke="#65BF73" stroke-width="2" stroke-linecap="round" stroke-linejoin="round"/>
<circle cx="652.5" cy="279" r="5.5" stroke="#65BF73" stroke-width="2"/>
<path d="M675.422 254H673.445L668.375 245.93V254H666.398V242.625H668.375L673.461 250.727V242.625H675.422V254ZM679.844 254H677.875V242.625H679.844V254ZM684.25 252.422H689.414V254H682.273V242.625H684.25V252.422ZM694.375 249.695C694.375 248.867 694.539 248.122 694.867 247.461C695.195 246.794 695.656 246.284 696.25 245.93C696.844 245.57 697.526 245.391 698.297 245.391C699.438 245.391 700.362 245.758 701.07 246.492C701.784 247.227 702.169 248.201 702.227 249.414L702.234 249.859C702.234 250.693 702.073 251.438 701.75 252.094C701.432 252.75 700.974 253.258 700.375 253.617C699.781 253.977 699.094 254.156 698.312 254.156C697.12 254.156 696.164 253.76 695.445 252.969C694.732 252.172 694.375 251.112 694.375 249.789V249.695ZM696.273 249.859C696.273 250.729 696.453 251.411 696.812 251.906C697.172 252.396 697.672 252.641 698.312 252.641C698.953 252.641 699.451 252.391 699.805 251.891C700.164 251.391 700.344 250.659 700.344 249.695C700.344 248.841 700.159 248.164 699.789 247.664C699.424 247.164 698.927 246.914 698.297 246.914C697.677 246.914 697.185 247.161 696.82 247.656C696.456 248.146 696.273 248.88 696.273 249.859ZM711.242 249.859C711.242 251.167 710.945 252.211 710.352 252.992C709.758 253.768 708.961 254.156 707.961 254.156C707.034 254.156 706.292 253.852 705.734 253.242V257.25H703.836V245.547H705.586L705.664 246.406C706.221 245.729 706.979 245.391 707.938 245.391C708.969 245.391 709.776 245.776 710.359 246.547C710.948 247.312 711.242 248.378 711.242 249.742V249.859ZM709.352 249.695C709.352 248.852 709.182 248.182 708.844 247.688C708.51 247.193 708.031 246.945 707.406 246.945C706.63 246.945 706.073 247.266 705.734 247.906V251.656C706.078 252.312 706.641 252.641 707.422 252.641C708.026 252.641 708.497 252.398 708.836 251.914C709.18 251.424 709.352 250.685 709.352 249.695ZM716.578 254.156C715.375 254.156 714.398 253.779 713.648 253.023C712.904 252.263 712.531 251.253 712.531 249.992V249.758C712.531 248.914 712.693 248.161 713.016 247.5C713.344 246.833 713.802 246.315 714.391 245.945C714.979 245.576 715.635 245.391 716.359 245.391C717.51 245.391 718.398 245.758 719.023 246.492C719.654 247.227 719.969 248.266 719.969 249.609V250.375H714.445C714.503 251.073 714.734 251.625 715.141 252.031C715.552 252.438 716.068 252.641 716.688 252.641C717.557 252.641 718.266 252.289 718.812 251.586L719.836 252.562C719.497 253.068 719.044 253.461 718.477 253.742C717.914 254.018 717.281 254.156 716.578 254.156ZM716.352 246.914C715.831 246.914 715.409 247.096 715.086 247.461C714.768 247.826 714.565 248.333 714.477 248.984H718.094V248.844C718.052 248.208 717.883 247.729 717.586 247.406C717.289 247.078 716.878 246.914 716.352 246.914ZM725.875 247.281C725.625 247.24 725.367 247.219 725.102 247.219C724.232 247.219 723.646 247.552 723.344 248.219V254H721.445V245.547H723.258L723.305 246.492C723.763 245.758 724.398 245.391 725.211 245.391C725.482 245.391 725.706 245.427 725.883 245.5L725.875 247.281ZM731.891 254C731.807 253.839 731.734 253.576 731.672 253.211C731.068 253.841 730.328 254.156 729.453 254.156C728.604 254.156 727.911 253.914 727.375 253.43C726.839 252.945 726.57 252.346 726.57 251.633C726.57 250.732 726.904 250.042 727.57 249.562C728.242 249.078 729.201 248.836 730.445 248.836H731.609V248.281C731.609 247.844 731.487 247.495 731.242 247.234C730.997 246.969 730.625 246.836 730.125 246.836C729.693 246.836 729.339 246.945 729.062 247.164C728.786 247.378 728.648 247.651 728.648 247.984H726.75C726.75 247.521 726.904 247.089 727.211 246.688C727.518 246.281 727.935 245.964 728.461 245.734C728.992 245.505 729.583 245.391 730.234 245.391C731.224 245.391 732.013 245.641 732.602 246.141C733.19 246.635 733.492 247.333 733.508 248.234V252.047C733.508 252.807 733.615 253.414 733.828 253.867V254H731.891ZM729.805 252.633C730.18 252.633 730.531 252.542 730.859 252.359C731.193 252.177 731.443 251.932 731.609 251.625V250.031H730.586C729.883 250.031 729.354 250.154 729 250.398C728.646 250.643 728.469 250.99 728.469 251.438C728.469 251.802 728.589 252.094 728.828 252.312C729.073 252.526 729.398 252.633 729.805 252.633ZM737.875 243.492V245.547H739.367V246.953H737.875V251.672C737.875 251.995 737.938 252.229 738.062 252.375C738.193 252.516 738.422 252.586 738.75 252.586C738.969 252.586 739.19 252.56 739.414 252.508V253.977C738.982 254.096 738.565 254.156 738.164 254.156C736.706 254.156 735.977 253.352 735.977 251.742V246.953H734.586V245.547H735.977V243.492H737.875ZM742.844 254H740.945V245.547H742.844V254ZM740.828 243.352C740.828 243.06 740.919 242.818 741.102 242.625C741.289 242.432 741.555 242.336 741.898 242.336C742.242 242.336 742.508 242.432 742.695 242.625C742.883 242.818 742.977 243.06 742.977 243.352C742.977 243.638 742.883 243.878 742.695 244.07C742.508 244.258 742.242 244.352 741.898 244.352C741.555 244.352 741.289 244.258 741.102 244.07C740.919 243.878 740.828 243.638 740.828 243.352ZM744.562 249.695C744.562 248.867 744.727 248.122 745.055 247.461C745.383 246.794 745.844 246.284 746.438 245.93C747.031 245.57 747.714 245.391 748.484 245.391C749.625 245.391 750.549 245.758 751.258 246.492C751.971 247.227 752.357 248.201 752.414 249.414L752.422 249.859C752.422 250.693 752.26 251.438 751.938 252.094C751.62 252.75 751.161 253.258 750.562 253.617C749.969 253.977 749.281 254.156 748.5 254.156C747.307 254.156 746.352 253.76 745.633 252.969C744.919 252.172 744.562 251.112 744.562 249.789V249.695ZM746.461 249.859C746.461 250.729 746.641 251.411 747 251.906C747.359 252.396 747.859 252.641 748.5 252.641C749.141 252.641 749.638 252.391 749.992 251.891C750.352 251.391 750.531 250.659 750.531 249.695C750.531 248.841 750.346 248.164 749.977 247.664C749.612 247.164 749.115 246.914 748.484 246.914C747.865 246.914 747.372 247.161 747.008 247.656C746.643 248.146 746.461 248.88 746.461 249.859ZM755.789 245.547L755.844 246.523C756.469 245.768 757.289 245.391 758.305 245.391C760.065 245.391 760.961 246.398 760.992 248.414V254H759.094V248.523C759.094 247.987 758.977 247.591 758.742 247.336C758.513 247.076 758.135 246.945 757.609 246.945C756.844 246.945 756.273 247.292 755.898 247.984V254H754V245.547H755.789ZM767.898 245.367C768.253 245.367 768.526 245.469 768.719 245.672C768.911 245.87 769.008 246.12 769.008 246.422C769.008 246.719 768.911 246.966 768.719 247.164C768.526 247.357 768.253 247.453 767.898 247.453C767.56 247.453 767.292 247.357 767.094 247.164C766.896 246.971 766.797 246.724 766.797 246.422C766.797 246.12 766.893 245.87 767.086 245.672C767.279 245.469 767.549 245.367 767.898 245.367ZM767.328 256.562L766.305 255.953C766.607 255.479 766.812 255.065 766.922 254.711C767.036 254.362 767.096 254.005 767.102 253.641V252.164H768.812L768.805 253.531C768.799 254.083 768.659 254.635 768.383 255.188C768.112 255.745 767.76 256.203 767.328 256.562ZM703.633 268.773V273H701.656V261.625H706.008C707.279 261.625 708.286 261.956 709.031 262.617C709.781 263.279 710.156 264.154 710.156 265.242C710.156 266.357 709.789 267.224 709.055 267.844C708.326 268.464 707.302 268.773 705.984 268.773H703.633ZM703.633 267.188H706.008C706.711 267.188 707.247 267.023 707.617 266.695C707.987 266.362 708.172 265.883 708.172 265.258C708.172 264.643 707.984 264.154 707.609 263.789C707.234 263.419 706.719 263.229 706.062 263.219H703.633V267.188ZM716.867 270.352H712.461L711.539 273H709.484L713.781 261.625H715.555L719.859 273H717.797L716.867 270.352ZM713.016 268.758H716.312L714.664 264.039L713.016 268.758ZM723.242 273H721.273V261.625H723.242V273ZM729.852 268.617H727.648V273H725.672V261.625H729.672C730.984 261.625 731.997 261.919 732.711 262.508C733.424 263.096 733.781 263.948 733.781 265.062C733.781 265.823 733.596 266.461 733.227 266.977C732.862 267.487 732.352 267.88 731.695 268.156L734.25 272.898V273H732.133L729.852 268.617ZM727.648 267.031H729.68C730.346 267.031 730.867 266.865 731.242 266.531C731.617 266.193 731.805 265.732 731.805 265.148C731.805 264.539 731.63 264.068 731.281 263.734C730.938 263.401 730.422 263.229 729.734 263.219H727.648V267.031Z" fill="#65BF73"/>
<line x1="254" y1="117.5" x2="388" y2="117.5" stroke="#65BF73" stroke-width="2"/>
<path d="M378 108L388.5 117.5L378 126.5" stroke="#65BF73" stroke-width="2" stroke-linecap="round" stroke-linejoin="round"/>
<circle cx="249.5" cy="118" r="5.5" stroke="#65BF73" stroke-width="2"/>
<path d="M272.266 93V81.625H275.625C276.63 81.625 277.521 81.849 278.297 82.2969C279.078 82.7448 279.682 83.3802 280.109 84.2031C280.536 85.026 280.75 85.9688 280.75 87.0312V87.6016C280.75 88.6797 280.534 89.6276 280.102 90.4453C279.674 91.263 279.062 91.8932 278.266 92.3359C277.474 92.7786 276.565 93 275.539 93H272.266ZM274.242 83.2188V91.4219H275.531C276.568 91.4219 277.362 91.099 277.914 90.4531C278.471 89.8021 278.755 88.8698 278.766 87.6562V87.0234C278.766 85.7891 278.497 84.8464 277.961 84.1953C277.424 83.5443 276.646 83.2188 275.625 83.2188H274.242ZM291.039 81.625V89.2266C291.039 90.4349 290.651 91.3932 289.875 92.1016C289.104 92.8047 288.076 93.1562 286.789 93.1562C285.487 93.1562 284.453 92.8099 283.688 92.1172C282.922 91.4193 282.539 90.4531 282.539 89.2188V81.625H284.508V89.2344C284.508 89.9948 284.701 90.5755 285.086 90.9766C285.471 91.3776 286.039 91.5781 286.789 91.5781C288.31 91.5781 289.07 90.776 289.07 89.1719V81.625H291.039ZM295.133 88.7734V93H293.156V81.625H297.508C298.779 81.625 299.786 81.9557 300.531 82.6172C301.281 83.2786 301.656 84.1536 301.656 85.2422C301.656 86.3568 301.289 87.224 300.555 87.8438C299.826 88.4635 298.802 88.7734 297.484 88.7734H295.133ZM295.133 87.1875H297.508C298.211 87.1875 298.747 87.0234 299.117 86.6953C299.487 86.362 299.672 85.8828 299.672 85.2578C299.672 84.6432 299.484 84.1536 299.109 83.7891C298.734 83.4193 298.219 83.2292 297.562 83.2188H295.133V87.1875ZM308.172 84.3672C308.526 84.3672 308.799 84.4688 308.992 84.6719C309.185 84.8698 309.281 85.1198 309.281 85.4219C309.281 85.7188 309.185 85.9661 308.992 86.1641C308.799 86.3568 308.526 86.4531 308.172 86.4531C307.833 86.4531 307.565 86.3568 307.367 86.1641C307.169 85.9714 307.07 85.724 307.07 85.4219C307.07 85.1198 307.167 84.8698 307.359 84.6719C307.552 84.4688 307.823 84.3672 308.172 84.3672ZM307.602 95.5625L306.578 94.9531C306.88 94.4792 307.086 94.0651 307.195 93.7109C307.31 93.362 307.37 93.0052 307.375 92.6406V91.1641H309.086L309.078 92.5312C309.073 93.0833 308.932 93.6354 308.656 94.1875C308.385 94.7448 308.034 95.2031 307.602 95.5625ZM323.852 89.2969C323.737 90.5104 323.289 91.4583 322.508 92.1406C321.727 92.8177 320.688 93.1562 319.391 93.1562C318.484 93.1562 317.685 92.9427 316.992 92.5156C316.305 92.0833 315.773 91.4714 315.398 90.6797C315.023 89.888 314.828 88.9688 314.812 87.9219V86.8594C314.812 85.7865 315.003 84.8411 315.383 84.0234C315.763 83.2057 316.307 82.5755 317.016 82.1328C317.729 81.6901 318.552 81.4688 319.484 81.4688C320.74 81.4688 321.75 81.8099 322.516 82.4922C323.281 83.1745 323.727 84.138 323.852 85.3828H321.883C321.789 84.5651 321.549 83.9766 321.164 83.6172C320.784 83.2526 320.224 83.0703 319.484 83.0703C318.625 83.0703 317.964 83.3854 317.5 84.0156C317.042 84.6406 316.807 85.5599 316.797 86.7734V87.7812C316.797 89.0104 317.016 89.9479 317.453 90.5938C317.896 91.2396 318.542 91.5625 319.391 91.5625C320.167 91.5625 320.75 91.388 321.141 91.0391C321.531 90.6901 321.779 90.1094 321.883 89.2969H323.852ZM331.992 90.3516H327.586L326.664 93H324.609L328.906 81.625H330.68L334.984 93H332.922L331.992 90.3516ZM328.141 88.7578H331.438L329.789 84.0391L328.141 88.7578ZM340.461 88.6172H338.258V93H336.281V81.625H340.281C341.594 81.625 342.607 81.9193 343.32 82.5078C344.034 83.0964 344.391 83.9479 344.391 85.0625C344.391 85.8229 344.206 86.4609 343.836 86.9766C343.471 87.487 342.961 87.8802 342.305 88.1562L344.859 92.8984V93H342.742L340.461 88.6172ZM338.258 87.0312H340.289C340.956 87.0312 341.477 86.8646 341.852 86.5312C342.227 86.1927 342.414 85.7318 342.414 85.1484C342.414 84.5391 342.24 84.0677 341.891 83.7344C341.547 83.401 341.031 83.2292 340.344 83.2188H338.258V87.0312ZM351.047 84.3672C351.401 84.3672 351.674 84.4688 351.867 84.6719C352.06 84.8698 352.156 85.1198 352.156 85.4219C352.156 85.7188 352.06 85.9661 351.867 86.1641C351.674 86.3568 351.401 86.4531 351.047 86.4531C350.708 86.4531 350.44 86.3568 350.242 86.1641C350.044 85.9714 349.945 85.724 349.945 85.4219C349.945 85.1198 350.042 84.8698 350.234 84.6719C350.427 84.4688 350.698 84.3672 351.047 84.3672ZM350.477 95.5625L349.453 94.9531C349.755 94.4792 349.961 94.0651 350.07 93.7109C350.185 93.362 350.245 93.0052 350.25 92.6406V91.1641H351.961L351.953 92.5312C351.948 93.0833 351.807 93.6354 351.531 94.1875C351.26 94.7448 350.909 95.2031 350.477 95.5625ZM275.758 112V100.625H279.117C280.122 100.625 281.013 100.849 281.789 101.297C282.57 101.745 283.174 102.38 283.602 103.203C284.029 104.026 284.242 104.969 284.242 106.031V106.602C284.242 107.68 284.026 108.628 283.594 109.445C283.167 110.263 282.555 110.893 281.758 111.336C280.966 111.779 280.057 112 279.031 112H275.758ZM277.734 102.219V110.422H279.023C280.06 110.422 280.854 110.099 281.406 109.453C281.964 108.802 282.247 107.87 282.258 106.656V106.023C282.258 104.789 281.99 103.846 281.453 103.195C280.917 102.544 280.138 102.219 279.117 102.219H277.734ZM288.297 112H286.328V100.625H288.297V112ZM292.703 107.773V112H290.727V100.625H295.078C296.349 100.625 297.357 100.956 298.102 101.617C298.852 102.279 299.227 103.154 299.227 104.242C299.227 105.357 298.859 106.224 298.125 106.844C297.396 107.464 296.372 107.773 295.055 107.773H292.703ZM292.703 106.188H295.078C295.781 106.188 296.318 106.023 296.688 105.695C297.057 105.362 297.242 104.883 297.242 104.258C297.242 103.643 297.055 103.154 296.68 102.789C296.305 102.419 295.789 102.229 295.133 102.219H292.703V106.188ZM308.547 114.812C306.708 114.297 305.771 113.122 305.734 111.289V109.625C305.734 108.453 305.232 107.867 304.227 107.867V106.477C305.232 106.477 305.734 105.888 305.734 104.711V103.055C305.75 102.117 305.992 101.359 306.461 100.781C306.935 100.203 307.63 99.7839 308.547 99.5234L308.922 100.617C308.021 100.909 307.555 101.706 307.523 103.008V104.695C307.523 105.867 307.073 106.69 306.172 107.164C307.073 107.643 307.523 108.474 307.523 109.656V111.32C307.555 112.622 308.021 113.419 308.922 113.711L308.547 114.812ZM322.984 108.297C322.87 109.51 322.422 110.458 321.641 111.141C320.859 111.818 319.82 112.156 318.523 112.156C317.617 112.156 316.818 111.943 316.125 111.516C315.438 111.083 314.906 110.471 314.531 109.68C314.156 108.888 313.961 107.969 313.945 106.922V105.859C313.945 104.786 314.135 103.841 314.516 103.023C314.896 102.206 315.44 101.576 316.148 101.133C316.862 100.69 317.685 100.469 318.617 100.469C319.872 100.469 320.883 100.81 321.648 101.492C322.414 102.174 322.859 103.138 322.984 104.383H321.016C320.922 103.565 320.682 102.977 320.297 102.617C319.917 102.253 319.357 102.07 318.617 102.07C317.758 102.07 317.096 102.385 316.633 103.016C316.174 103.641 315.94 104.56 315.93 105.773V106.781C315.93 108.01 316.148 108.948 316.586 109.594C317.029 110.24 317.674 110.562 318.523 110.562C319.299 110.562 319.883 110.388 320.273 110.039C320.664 109.69 320.911 109.109 321.016 108.297H322.984ZM324.758 112V100.625H328.117C329.122 100.625 330.013 100.849 330.789 101.297C331.57 101.745 332.174 102.38 332.602 103.203C333.029 104.026 333.242 104.969 333.242 106.031V106.602C333.242 107.68 333.026 108.628 332.594 109.445C332.167 110.263 331.555 110.893 330.758 111.336C329.966 111.779 329.057 112 328.031 112H324.758ZM326.734 102.219V110.422H328.023C329.06 110.422 329.854 110.099 330.406 109.453C330.964 108.802 331.247 107.87 331.258 106.656V106.023C331.258 104.789 330.99 103.846 330.453 103.195C329.917 102.544 329.138 102.219 328.117 102.219H326.734ZM339.391 107.617H337.188V112H335.211V100.625H339.211C340.523 100.625 341.536 100.919 342.25 101.508C342.964 102.096 343.32 102.948 343.32 104.062C343.32 104.823 343.135 105.461 342.766 105.977C342.401 106.487 341.891 106.88 341.234 107.156L343.789 111.898V112H341.672L339.391 107.617ZM337.188 106.031H339.219C339.885 106.031 340.406 105.865 340.781 105.531C341.156 105.193 341.344 104.732 341.344 104.148C341.344 103.539 341.169 103.068 340.82 102.734C340.477 102.401 339.961 102.229 339.273 102.219H337.188V106.031ZM348.234 113.711C349.151 113.414 349.62 112.602 349.641 111.273V109.648C349.641 108.445 350.115 107.62 351.062 107.172C350.115 106.724 349.641 105.891 349.641 104.672V103.055C349.62 101.727 349.151 100.914 348.234 100.617L348.609 99.5234C349.557 99.7891 350.263 100.221 350.727 100.82C351.19 101.414 351.422 102.193 351.422 103.156V104.719C351.422 105.891 351.927 106.477 352.938 106.477V107.867C351.927 107.867 351.422 108.453 351.422 109.625V111.164C351.422 112.138 351.188 112.922 350.719 113.516C350.255 114.115 349.552 114.547 348.609 114.812L348.234 113.711Z" fill="#65BF73"/>
<line x1="254" y1="277.5" x2="388" y2="277.5" stroke="#65BF73" stroke-width="2"/>
<path d="M378 268L388.5 277.5L378 286.5" stroke="#65BF73" stroke-width="2" stroke-linecap="round" stroke-linejoin="round"/>
<circle cx="249.5" cy="278" r="5.5" stroke="#65BF73" stroke-width="2"/>
<path d="M305.742 260.352H301.336L300.414 263H298.359L302.656 251.625H304.43L308.734 263H306.672L305.742 260.352ZM301.891 258.758H305.188L303.539 254.039L301.891 258.758ZM310.031 263V251.625H313.391C314.396 251.625 315.286 251.849 316.062 252.297C316.844 252.745 317.448 253.38 317.875 254.203C318.302 255.026 318.516 255.969 318.516 257.031V257.602C318.516 258.68 318.299 259.628 317.867 260.445C317.44 261.263 316.828 261.893 316.031 262.336C315.24 262.779 314.331 263 313.305 263H310.031ZM312.008 253.219V261.422H313.297C314.333 261.422 315.128 261.099 315.68 260.453C316.237 259.802 316.521 258.87 316.531 257.656V257.023C316.531 255.789 316.263 254.846 315.727 254.195C315.19 253.544 314.411 253.219 313.391 253.219H312.008ZM320.484 263V251.625H323.844C324.849 251.625 325.74 251.849 326.516 252.297C327.297 252.745 327.901 253.38 328.328 254.203C328.755 255.026 328.969 255.969 328.969 257.031V257.602C328.969 258.68 328.753 259.628 328.32 260.445C327.893 261.263 327.281 261.893 326.484 262.336C325.693 262.779 324.784 263 323.758 263H320.484ZM322.461 253.219V261.422H323.75C324.786 261.422 325.581 261.099 326.133 260.453C326.69 259.802 326.974 258.87 326.984 257.656V257.023C326.984 255.789 326.716 254.846 326.18 254.195C325.643 253.544 324.865 253.219 323.844 253.219H322.461Z" fill="#65BF73"/>
<defs>
<filter id="filter0_d" x="0" y="77" width="233" height="44" filterUnits="userSpaceOnUse" color-interpolation-filters="sRGB">
<feFlood flood-opacity="0" result="BackgroundImageFix"/>
<feColorMatrix in="SourceAlpha" type="matrix" values="0 0 0 0 0 0 0 0 0 0 0 0 0 0 0 0 0 0 127 0"/>
<feOffset dx="4" dy="4"/>
<feColorMatrix type="matrix" values="0 0 0 0 0.674908 0 0 0 0 0.662083 0 0 0 0 0.945833 0 0 0 1 0"/>
<feBlend mode="normal" in2="BackgroundImageFix" result="effect1_dropShadow"/>
<feBlend mode="normal" in="SourceGraphic" in2="effect1_dropShadow" result="shape"/>
</filter>
<filter id="filter1_d" x="0" y="116" width="233" height="28" filterUnits="userSpaceOnUse" color-interpolation-filters="sRGB">
<feFlood flood-opacity="0" result="BackgroundImageFix"/>
<feColorMatrix in="SourceAlpha" type="matrix" values="0 0 0 0 0 0 0 0 0 0 0 0 0 0 0 0 0 0 127 0"/>
<feOffset dx="4" dy="4"/>
<feColorMatrix type="matrix" values="0 0 0 0 0.674908 0 0 0 0 0.662083 0 0 0 0 0.945833 0 0 0 1 0"/>
<feBlend mode="normal" in2="BackgroundImageFix" result="effect1_dropShadow"/>
<feBlend mode="normal" in="SourceGraphic" in2="effect1_dropShadow" result="shape"/>
</filter>
<filter id="filter2_d" x="800" y="37" width="233" height="84" filterUnits="userSpaceOnUse" color-interpolation-filters="sRGB">
<feFlood flood-opacity="0" result="BackgroundImageFix"/>
<feColorMatrix in="SourceAlpha" type="matrix" values="0 0 0 0 0 0 0 0 0 0 0 0 0 0 0 0 0 0 127 0"/>
<feOffset dx="4" dy="4"/>
<feColorMatrix type="matrix" values="0 0 0 0 0.674908 0 0 0 0 0.662083 0 0 0 0 0.945833 0 0 0 1 0"/>
<feBlend mode="normal" in2="BackgroundImageFix" result="effect1_dropShadow"/>
<feBlend mode="normal" in="SourceGraphic" in2="effect1_dropShadow" result="shape"/>
</filter>
<filter id="filter3_d" x="800" y="116" width="233" height="28" filterUnits="userSpaceOnUse" color-interpolation-filters="sRGB">
<feFlood flood-opacity="0" result="BackgroundImageFix"/>
<feColorMatrix in="SourceAlpha" type="matrix" values="0 0 0 0 0 0 0 0 0 0 0 0 0 0 0 0 0 0 127 0"/>
<feOffset dx="4" dy="4"/>
<feColorMatrix type="matrix" values="0 0 0 0 0.674908 0 0 0 0 0.662083 0 0 0 0 0.945833 0 0 0 1 0"/>
<feBlend mode="normal" in2="BackgroundImageFix" result="effect1_dropShadow"/>
<feBlend mode="normal" in="SourceGraphic" in2="effect1_dropShadow" result="shape"/>
</filter>
<filter id="filter4_d" x="400" y="37" width="233" height="84" filterUnits="userSpaceOnUse" color-interpolation-filters="sRGB">
<feFlood flood-opacity="0" result="BackgroundImageFix"/>
<feColorMatrix in="SourceAlpha" type="matrix" values="0 0 0 0 0 0 0 0 0 0 0 0 0 0 0 0 0 0 127 0"/>
<feOffset dx="4" dy="4"/>
<feColorMatrix type="matrix" values="0 0 0 0 0.674908 0 0 0 0 0.662083 0 0 0 0 0.945833 0 0 0 1 0"/>
<feBlend mode="normal" in2="BackgroundImageFix" result="effect1_dropShadow"/>
<feBlend mode="normal" in="SourceGraphic" in2="effect1_dropShadow" result="shape"/>
</filter>
<filter id="filter5_d" x="400" y="116" width="233" height="28" filterUnits="userSpaceOnUse" color-interpolation-filters="sRGB">
<feFlood flood-opacity="0" result="BackgroundImageFix"/>
<feColorMatrix in="SourceAlpha" type="matrix" values="0 0 0 0 0 0 0 0 0 0 0 0 0 0 0 0 0 0 127 0"/>
<feOffset dx="4" dy="4"/>
<feColorMatrix type="matrix" values="0 0 0 0 0.674908 0 0 0 0 0.662083 0 0 0 0 0.945833 0 0 0 1 0"/>
<feBlend mode="normal" in2="BackgroundImageFix" result="effect1_dropShadow"/>
<feBlend mode="normal" in="SourceGraphic" in2="effect1_dropShadow" result="shape"/>
</filter>
<filter id="filter6_d" x="400" y="239" width="233" height="44" filterUnits="userSpaceOnUse" color-interpolation-filters="sRGB">
<feFlood flood-opacity="0" result="BackgroundImageFix"/>
<feColorMatrix in="SourceAlpha" type="matrix" values="0 0 0 0 0 0 0 0 0 0 0 0 0 0 0 0 0 0 127 0"/>
<feOffset dx="4" dy="4"/>
<feColorMatrix type="matrix" values="0 0 0 0 0.674908 0 0 0 0 0.662083 0 0 0 0 0.945833 0 0 0 1 0"/>
<feBlend mode="normal" in2="BackgroundImageFix" result="effect1_dropShadow"/>
<feBlend mode="normal" in="SourceGraphic" in2="effect1_dropShadow" result="shape"/>
</filter>
<filter id="filter7_d" x="400" y="278" width="233" height="28" filterUnits="userSpaceOnUse" color-interpolation-filters="sRGB">
<feFlood flood-opacity="0" result="BackgroundImageFix"/>
<feColorMatrix in="SourceAlpha" type="matrix" values="0 0 0 0 0 0 0 0 0 0 0 0 0 0 0 0 0 0 127 0"/>
<feOffset dx="4" dy="4"/>
<feColorMatrix type="matrix" values="0 0 0 0 0.674908 0 0 0 0 0.662083 0 0 0 0 0.945833 0 0 0 1 0"/>
<feBlend mode="normal" in2="BackgroundImageFix" result="effect1_dropShadow"/>
<feBlend mode="normal" in="SourceGraphic" in2="effect1_dropShadow" result="shape"/>
</filter>
<filter id="filter8_d" x="0" y="199" width="233" height="84" filterUnits="userSpaceOnUse" color-interpolation-filters="sRGB">
<feFlood flood-opacity="0" result="BackgroundImageFix"/>
<feColorMatrix in="SourceAlpha" type="matrix" values="0 0 0 0 0 0 0 0 0 0 0 0 0 0 0 0 0 0 127 0"/>
<feOffset dx="4" dy="4"/>
<feColorMatrix type="matrix" values="0 0 0 0 0.674908 0 0 0 0 0.662083 0 0 0 0 0.945833 0 0 0 1 0"/>
<feBlend mode="normal" in2="BackgroundImageFix" result="effect1_dropShadow"/>
<feBlend mode="normal" in="SourceGraphic" in2="effect1_dropShadow" result="shape"/>
</filter>
<filter id="filter9_d" x="0" y="278" width="233" height="28" filterUnits="userSpaceOnUse" color-interpolation-filters="sRGB">
<feFlood flood-opacity="0" result="BackgroundImageFix"/>
<feColorMatrix in="SourceAlpha" type="matrix" values="0 0 0 0 0 0 0 0 0 0 0 0 0 0 0 0 0 0 127 0"/>
<feOffset dx="4" dy="4"/>
<feColorMatrix type="matrix" values="0 0 0 0 0.674908 0 0 0 0 0.662083 0 0 0 0 0.945833 0 0 0 1 0"/>
<feBlend mode="normal" in2="BackgroundImageFix" result="effect1_dropShadow"/>
<feBlend mode="normal" in="SourceGraphic" in2="effect1_dropShadow" result="shape"/>
</filter>
<filter id="filter10_d" x="800" y="239" width="233" height="44" filterUnits="userSpaceOnUse" color-interpolation-filters="sRGB">
<feFlood flood-opacity="0" result="BackgroundImageFix"/>
<feColorMatrix in="SourceAlpha" type="matrix" values="0 0 0 0 0 0 0 0 0 0 0 0 0 0 0 0 0 0 127 0"/>
<feOffset dx="4" dy="4"/>
<feColorMatrix type="matrix" values="0 0 0 0 0.674908 0 0 0 0 0.662083 0 0 0 0 0.945833 0 0 0 1 0"/>
<feBlend mode="normal" in2="BackgroundImageFix" result="effect1_dropShadow"/>
<feBlend mode="normal" in="SourceGraphic" in2="effect1_dropShadow" result="shape"/>
</filter>
<filter id="filter11_d" x="800" y="278" width="233" height="28" filterUnits="userSpaceOnUse" color-interpolation-filters="sRGB">
<feFlood flood-opacity="0" result="BackgroundImageFix"/>
<feColorMatrix in="SourceAlpha" type="matrix" values="0 0 0 0 0 0 0 0 0 0 0 0 0 0 0 0 0 0 127 0"/>
<feOffset dx="4" dy="4"/>
<feColorMatrix type="matrix" values="0 0 0 0 0.674908 0 0 0 0 0.662083 0 0 0 0 0.945833 0 0 0 1 0"/>
<feBlend mode="normal" in2="BackgroundImageFix" result="effect1_dropShadow"/>
<feBlend mode="normal" in="SourceGraphic" in2="effect1_dropShadow" result="shape"/>
</filter>
</defs>
</svg>
