<svg width="633" height="147" viewBox="0 0 633 147" fill="none" xmlns="http://www.w3.org/2000/svg">
<line x1="254" y1="119.5" x2="388" y2="119.5" stroke="#65BF73" stroke-width="2"/>
<path d="M378 110L388.5 119.5L378 128.5" stroke="#65BF73" stroke-width="2" stroke-linecap="round" stroke-linejoin="round"/>
<circle cx="249.5" cy="120" r="5.5" stroke="#65BF73" stroke-width="2"/>
<path d="M293.227 105V93.625H296.586C297.591 93.625 298.482 93.849 299.258 94.2969C300.039 94.7448 300.643 95.3802 301.07 96.2031C301.497 97.026 301.711 97.9688 301.711 99.0312V99.6016C301.711 100.68 301.495 101.628 301.062 102.445C300.635 103.263 300.023 103.893 299.227 104.336C298.435 104.779 297.526 105 296.5 105H293.227ZM295.203 95.2188V103.422H296.492C297.529 103.422 298.323 103.099 298.875 102.453C299.432 101.802 299.716 100.87 299.727 99.6562V99.0234C299.727 97.7891 299.458 96.8464 298.922 96.1953C298.385 95.5443 297.607 95.2188 296.586 95.2188H295.203ZM312 93.625V101.227C312 102.435 311.612 103.393 310.836 104.102C310.065 104.805 309.036 105.156 307.75 105.156C306.448 105.156 305.414 104.81 304.648 104.117C303.883 103.419 303.5 102.453 303.5 101.219V93.625H305.469V101.234C305.469 101.995 305.661 102.576 306.047 102.977C306.432 103.378 307 103.578 307.75 103.578C309.271 103.578 310.031 102.776 310.031 101.172V93.625H312ZM322.836 103.523C322.424 104.06 321.854 104.466 321.125 104.742C320.396 105.018 319.568 105.156 318.641 105.156C317.688 105.156 316.844 104.94 316.109 104.508C315.375 104.076 314.807 103.458 314.406 102.656C314.01 101.849 313.805 100.909 313.789 99.8359V98.9453C313.789 97.2266 314.201 95.8854 315.023 94.9219C315.846 93.9531 316.995 93.4688 318.469 93.4688C319.734 93.4688 320.74 93.7812 321.484 94.4062C322.229 95.0312 322.677 95.9323 322.828 97.1094H320.891C320.672 95.7396 319.878 95.0547 318.508 95.0547C317.622 95.0547 316.948 95.375 316.484 96.0156C316.026 96.651 315.789 97.5859 315.773 98.8203V99.6953C315.773 100.924 316.031 101.88 316.547 102.562C317.068 103.24 317.789 103.578 318.711 103.578C319.721 103.578 320.44 103.349 320.867 102.891V100.664H318.523V99.1641H322.836V103.523ZM336.336 105H328.688V103.695L332.477 99.5625C333.023 98.9531 333.411 98.4453 333.641 98.0391C333.875 97.6276 333.992 97.2161 333.992 96.8047C333.992 96.263 333.839 95.8255 333.531 95.4922C333.229 95.1589 332.82 94.9922 332.305 94.9922C331.69 94.9922 331.214 95.1797 330.875 95.5547C330.536 95.9297 330.367 96.4427 330.367 97.0938H328.469C328.469 96.401 328.625 95.7786 328.938 95.2266C329.255 94.6693 329.706 94.237 330.289 93.9297C330.878 93.6224 331.555 93.4688 332.32 93.4688C333.424 93.4688 334.294 93.7474 334.93 94.3047C335.57 94.8568 335.891 95.6224 335.891 96.6016C335.891 97.1693 335.729 97.7656 335.406 98.3906C335.089 99.0104 334.565 99.7161 333.836 100.508L331.055 103.484H336.336V105Z" fill="#65BF73"/>
<g filter="url(#filter0_d)">
<path d="M0 8C0 3.58172 3.58172 0 8 0H221C225.418 0 229 3.58172 229 8V120H0V8Z" fill="white"/>
<line x1="0.5" y1="79.5" x2="228.5" y2="79.5" stroke="#5452F6"/>
<line x1="0.5" y1="39.5" x2="228.5" y2="39.5" stroke="#5452F6"/>
<path d="M99.25 96.5469L99.3047 97.5234C99.9297 96.7682 100.75 96.3906 101.766 96.3906C103.526 96.3906 104.422 97.3984 104.453 99.4141V105H102.555V99.5234C102.555 98.987 102.438 98.5911 102.203 98.3359C101.974 98.0755 101.596 97.9453 101.07 97.9453C100.305 97.9453 99.7344 98.2917 99.3594 98.9844V105H97.4609V96.5469H99.25ZM111.445 105C111.362 104.839 111.289 104.576 111.227 104.211C110.622 104.841 109.883 105.156 109.008 105.156C108.159 105.156 107.466 104.914 106.93 104.43C106.393 103.945 106.125 103.346 106.125 102.633C106.125 101.732 106.458 101.042 107.125 100.562C107.797 100.078 108.755 99.8359 110 99.8359H111.164V99.2812C111.164 98.8438 111.042 98.4948 110.797 98.2344C110.552 97.9688 110.18 97.8359 109.68 97.8359C109.247 97.8359 108.893 97.9453 108.617 98.1641C108.341 98.3776 108.203 98.651 108.203 98.9844H106.305C106.305 98.5208 106.458 98.0885 106.766 97.6875C107.073 97.2812 107.49 96.9635 108.016 96.7344C108.547 96.5052 109.138 96.3906 109.789 96.3906C110.779 96.3906 111.568 96.6406 112.156 97.1406C112.745 97.6354 113.047 98.3333 113.062 99.2344V103.047C113.062 103.807 113.169 104.414 113.383 104.867V105H111.445ZM109.359 103.633C109.734 103.633 110.086 103.542 110.414 103.359C110.747 103.177 110.997 102.932 111.164 102.625V101.031H110.141C109.438 101.031 108.909 101.154 108.555 101.398C108.201 101.643 108.023 101.99 108.023 102.438C108.023 102.802 108.143 103.094 108.383 103.312C108.628 103.526 108.953 103.633 109.359 103.633ZM117.43 94.4922V96.5469H118.922V97.9531H117.43V102.672C117.43 102.995 117.492 103.229 117.617 103.375C117.747 103.516 117.977 103.586 118.305 103.586C118.523 103.586 118.745 103.56 118.969 103.508V104.977C118.536 105.096 118.12 105.156 117.719 105.156C116.26 105.156 115.531 104.352 115.531 102.742V97.9531H114.141V96.5469H115.531V94.4922H117.43ZM124.75 99.3594L125.367 93.625H131.477V95.2656H126.945L126.633 97.9844C127.159 97.6823 127.753 97.5312 128.414 97.5312C129.497 97.5312 130.339 97.8776 130.938 98.5703C131.542 99.263 131.844 100.195 131.844 101.367C131.844 102.523 131.51 103.445 130.844 104.133C130.177 104.815 129.263 105.156 128.102 105.156C127.06 105.156 126.195 104.862 125.508 104.273C124.826 103.68 124.456 102.898 124.398 101.93H126.234C126.307 102.482 126.505 102.906 126.828 103.203C127.151 103.495 127.573 103.641 128.094 103.641C128.677 103.641 129.13 103.432 129.453 103.016C129.781 102.599 129.945 102.031 129.945 101.312C129.945 100.62 129.766 100.073 129.406 99.6719C129.047 99.2656 128.552 99.0625 127.922 99.0625C127.578 99.0625 127.286 99.1094 127.047 99.2031C126.807 99.2917 126.547 99.4688 126.266 99.7344L124.75 99.3594Z" fill="#5452F6"/>
<path d="M94.7031 56.5469L94.7578 57.5234C95.3828 56.7682 96.2031 56.3906 97.2188 56.3906C98.9792 56.3906 99.875 57.3984 99.9062 59.4141V65H98.0078V59.5234C98.0078 58.987 97.8906 58.5911 97.6562 58.3359C97.4271 58.0755 97.0495 57.9453 96.5234 57.9453C95.7578 57.9453 95.1875 58.2917 94.8125 58.9844V65H92.9141V56.5469H94.7031ZM106.898 65C106.815 64.8385 106.742 64.5755 106.68 64.2109C106.076 64.8411 105.336 65.1562 104.461 65.1562C103.612 65.1562 102.919 64.9141 102.383 64.4297C101.846 63.9453 101.578 63.3464 101.578 62.6328C101.578 61.7318 101.911 61.0417 102.578 60.5625C103.25 60.0781 104.208 59.8359 105.453 59.8359H106.617V59.2812C106.617 58.8438 106.495 58.4948 106.25 58.2344C106.005 57.9688 105.633 57.8359 105.133 57.8359C104.701 57.8359 104.346 57.9453 104.07 58.1641C103.794 58.3776 103.656 58.651 103.656 58.9844H101.758C101.758 58.5208 101.911 58.0885 102.219 57.6875C102.526 57.2812 102.943 56.9635 103.469 56.7344C104 56.5052 104.591 56.3906 105.242 56.3906C106.232 56.3906 107.021 56.6406 107.609 57.1406C108.198 57.6354 108.5 58.3333 108.516 59.2344V63.0469C108.516 63.8073 108.622 64.4141 108.836 64.8672V65H106.898ZM104.812 63.6328C105.188 63.6328 105.539 63.5417 105.867 63.3594C106.201 63.1771 106.451 62.9323 106.617 62.625V61.0312H105.594C104.891 61.0312 104.362 61.1536 104.008 61.3984C103.654 61.6432 103.477 61.9896 103.477 62.4375C103.477 62.8021 103.596 63.0938 103.836 63.3125C104.081 63.526 104.406 63.6328 104.812 63.6328ZM112.883 54.4922V56.5469H114.375V57.9531H112.883V62.6719C112.883 62.9948 112.945 63.2292 113.07 63.375C113.201 63.5156 113.43 63.5859 113.758 63.5859C113.977 63.5859 114.198 63.5599 114.422 63.5078V64.9766C113.99 65.0964 113.573 65.1562 113.172 65.1562C111.714 65.1562 110.984 64.3516 110.984 62.7422V57.9531H109.594V56.5469H110.984V54.4922H112.883ZM126.117 60.9453H127.531V62.4688H126.117V65H124.219V62.4688H119.305L119.25 61.3125L124.156 53.625H126.117V60.9453ZM121.242 60.9453H124.219V56.1953L124.078 56.4453L121.242 60.9453ZM136.438 65H128.789V63.6953L132.578 59.5625C133.125 58.9531 133.513 58.4453 133.742 58.0391C133.977 57.6276 134.094 57.2161 134.094 56.8047C134.094 56.263 133.94 55.8255 133.633 55.4922C133.331 55.1589 132.922 54.9922 132.406 54.9922C131.792 54.9922 131.315 55.1797 130.977 55.5547C130.638 55.9297 130.469 56.4427 130.469 57.0938H128.57C128.57 56.401 128.727 55.7786 129.039 55.2266C129.357 54.6693 129.807 54.237 130.391 53.9297C130.979 53.6224 131.656 53.4688 132.422 53.4688C133.526 53.4688 134.396 53.7474 135.031 54.3047C135.672 54.8568 135.992 55.6224 135.992 56.6016C135.992 57.1693 135.831 57.7656 135.508 58.3906C135.19 59.0104 134.667 59.7161 133.938 60.5078L131.156 63.4844H136.438V65Z" fill="#5452F6"/>
<path d="M73.7891 22.0703C73.7891 21.5703 73.612 21.1849 73.2578 20.9141C72.9089 20.6432 72.276 20.3698 71.3594 20.0938C70.4427 19.8177 69.7135 19.5104 69.1719 19.1719C68.1354 18.5208 67.6172 17.6719 67.6172 16.625C67.6172 15.7083 67.9896 14.9531 68.7344 14.3594C69.4844 13.7656 70.4557 13.4688 71.6484 13.4688C72.4401 13.4688 73.1458 13.6146 73.7656 13.9062C74.3854 14.1979 74.8724 14.6146 75.2266 15.1562C75.5807 15.6927 75.7578 16.2891 75.7578 16.9453H73.7891C73.7891 16.3516 73.6016 15.888 73.2266 15.5547C72.8568 15.2161 72.3255 15.0469 71.6328 15.0469C70.987 15.0469 70.4844 15.1849 70.125 15.4609C69.7708 15.737 69.5938 16.1224 69.5938 16.6172C69.5938 17.0339 69.7865 17.3828 70.1719 17.6641C70.5573 17.9401 71.1927 18.2109 72.0781 18.4766C72.9635 18.737 73.6745 19.0365 74.2109 19.375C74.7474 19.7083 75.1406 20.0938 75.3906 20.5312C75.6406 20.9635 75.7656 21.4714 75.7656 22.0547C75.7656 23.0026 75.401 23.7578 74.6719 24.3203C73.9479 24.8776 72.9635 25.1562 71.7188 25.1562C70.8958 25.1562 70.138 25.0052 69.4453 24.7031C68.7578 24.3958 68.2214 23.974 67.8359 23.4375C67.4557 22.901 67.2656 22.276 67.2656 21.5625H69.2422C69.2422 22.2083 69.4557 22.7083 69.8828 23.0625C70.3099 23.4167 70.9219 23.5938 71.7188 23.5938C72.4062 23.5938 72.9219 23.4557 73.2656 23.1797C73.6146 22.8984 73.7891 22.5286 73.7891 22.0703ZM79.6953 14.4922V16.5469H81.1875V17.9531H79.6953V22.6719C79.6953 22.9948 79.7578 23.2292 79.8828 23.375C80.013 23.5156 80.2422 23.5859 80.5703 23.5859C80.7891 23.5859 81.0104 23.5599 81.2344 23.5078V24.9766C80.8021 25.0964 80.3854 25.1562 79.9844 25.1562C78.526 25.1562 77.7969 24.3516 77.7969 22.7422V17.9531H76.4062V16.5469H77.7969V14.4922H79.6953ZM87.0703 18.2812C86.8203 18.2396 86.5625 18.2188 86.2969 18.2188C85.4271 18.2188 84.8411 18.5521 84.5391 19.2188V25H82.6406V16.5469H84.4531L84.5 17.4922C84.9583 16.7578 85.5938 16.3906 86.4062 16.3906C86.6771 16.3906 86.901 16.4271 87.0781 16.5L87.0703 18.2812ZM90.2891 25H88.3906V16.5469H90.2891V25ZM88.2734 14.3516C88.2734 14.0599 88.3646 13.8177 88.5469 13.625C88.7344 13.4323 89 13.3359 89.3438 13.3359C89.6875 13.3359 89.9531 13.4323 90.1406 13.625C90.3281 13.8177 90.4219 14.0599 90.4219 14.3516C90.4219 14.638 90.3281 14.8776 90.1406 15.0703C89.9531 15.2578 89.6875 15.3516 89.3438 15.3516C89 15.3516 88.7344 15.2578 88.5469 15.0703C88.3646 14.8776 88.2734 14.638 88.2734 14.3516ZM94.125 16.5469L94.1797 17.5234C94.8047 16.7682 95.625 16.3906 96.6406 16.3906C98.401 16.3906 99.2969 17.3984 99.3281 19.4141V25H97.4297V19.5234C97.4297 18.987 97.3125 18.5911 97.0781 18.3359C96.849 18.0755 96.4714 17.9453 95.9453 17.9453C95.1797 17.9453 94.6094 18.2917 94.2344 18.9844V25H92.3359V16.5469H94.125ZM100.938 20.7109C100.938 19.3984 101.245 18.3516 101.859 17.5703C102.479 16.7839 103.299 16.3906 104.32 16.3906C105.284 16.3906 106.042 16.7266 106.594 17.3984L106.68 16.5469H108.391V24.7422C108.391 25.8516 108.044 26.7266 107.352 27.3672C106.664 28.0078 105.734 28.3281 104.562 28.3281C103.943 28.3281 103.336 28.1979 102.742 27.9375C102.154 27.6823 101.706 27.3464 101.398 26.9297L102.297 25.7891C102.88 26.4818 103.599 26.8281 104.453 26.8281C105.083 26.8281 105.581 26.6562 105.945 26.3125C106.31 25.974 106.492 25.474 106.492 24.8125V24.2422C105.945 24.8516 105.216 25.1562 104.305 25.1562C103.315 25.1562 102.505 24.763 101.875 23.9766C101.25 23.1901 100.938 22.1016 100.938 20.7109ZM102.828 20.875C102.828 21.724 103 22.3932 103.344 22.8828C103.693 23.3672 104.174 23.6094 104.789 23.6094C105.555 23.6094 106.122 23.2812 106.492 22.625V18.9062C106.133 18.2656 105.57 17.9453 104.805 17.9453C104.18 17.9453 103.693 18.1927 103.344 18.6875C103 19.1823 102.828 19.9115 102.828 20.875ZM115.633 12.7969L116.602 13.3984C116.128 14.0911 115.883 14.8125 115.867 15.5625V16.75H114.203V15.6719C114.208 15.1719 114.344 14.651 114.609 14.1094C114.88 13.5625 115.221 13.125 115.633 12.7969ZM118.258 12.7969L119.227 13.3984C118.753 14.0911 118.508 14.8125 118.492 15.5625V16.75H116.828V15.6719C116.833 15.1719 116.969 14.651 117.234 14.1094C117.505 13.5625 117.846 13.125 118.258 12.7969ZM129.703 25H127.734V19.9453H122.648V25H120.672V13.625H122.648V18.3594H127.734V13.625H129.703V25ZM135.586 25.1562C134.383 25.1562 133.406 24.7786 132.656 24.0234C131.911 23.263 131.539 22.2526 131.539 20.9922V20.7578C131.539 19.9141 131.701 19.1615 132.023 18.5C132.352 17.8333 132.81 17.3151 133.398 16.9453C133.987 16.5755 134.643 16.3906 135.367 16.3906C136.518 16.3906 137.406 16.7578 138.031 17.4922C138.661 18.2266 138.977 19.2656 138.977 20.6094V21.375H133.453C133.51 22.0729 133.742 22.625 134.148 23.0312C134.56 23.4375 135.076 23.6406 135.695 23.6406C136.565 23.6406 137.273 23.2891 137.82 22.5859L138.844 23.5625C138.505 24.0677 138.052 24.4609 137.484 24.7422C136.922 25.0182 136.289 25.1562 135.586 25.1562ZM135.359 17.9141C134.839 17.9141 134.417 18.0964 134.094 18.4609C133.776 18.8255 133.573 19.3333 133.484 19.9844H137.102V19.8438C137.06 19.2083 136.891 18.7292 136.594 18.4062C136.297 18.0781 135.885 17.9141 135.359 17.9141ZM142.477 25H140.578V13H142.477V25ZM146.57 25H144.672V13H146.57V25ZM148.289 20.6953C148.289 19.8672 148.453 19.1224 148.781 18.4609C149.109 17.7943 149.57 17.2839 150.164 16.9297C150.758 16.5703 151.44 16.3906 152.211 16.3906C153.352 16.3906 154.276 16.7578 154.984 17.4922C155.698 18.2266 156.083 19.2005 156.141 20.4141L156.148 20.8594C156.148 21.6927 155.987 22.4375 155.664 23.0938C155.346 23.75 154.888 24.2578 154.289 24.6172C153.695 24.9766 153.008 25.1562 152.227 25.1562C151.034 25.1562 150.078 24.7604 149.359 23.9688C148.646 23.1719 148.289 22.112 148.289 20.7891V20.6953ZM150.188 20.8594C150.188 21.7292 150.367 22.4115 150.727 22.9062C151.086 23.3958 151.586 23.6406 152.227 23.6406C152.867 23.6406 153.365 23.3906 153.719 22.8906C154.078 22.3906 154.258 21.6589 154.258 20.6953C154.258 19.8411 154.073 19.1641 153.703 18.6641C153.339 18.1641 152.841 17.9141 152.211 17.9141C151.591 17.9141 151.099 18.1615 150.734 18.6562C150.37 19.1458 150.188 19.8802 150.188 20.8594ZM157.562 17L156.594 16.3984C157.062 15.7161 157.305 14.9948 157.32 14.2344V13H158.984V14.0781C158.984 14.6146 158.846 15.1562 158.57 15.7031C158.299 16.2448 157.964 16.6771 157.562 17ZM160.172 17L159.203 16.3984C159.672 15.7161 159.914 14.9948 159.93 14.2344V13H161.594V14.0781C161.594 14.6146 161.456 15.1562 161.18 15.7031C160.909 16.2448 160.573 16.6771 160.172 17Z" fill="#FF5A43"/>
<path d="M8 0.5H221C225.142 0.5 228.5 3.85787 228.5 8V119.5H0.5V8C0.5 3.85786 3.85786 0.5 8 0.5Z" stroke="#5452F6"/>
</g>
<g filter="url(#filter1_d)">
<path d="M0 119H229V135C229 139.418 225.418 143 221 143H8.00001C3.58173 143 0 139.418 0 135V119Z" fill="#EEEEFF"/>
<path d="M0.5 119.5H228.5V135C228.5 139.142 225.142 142.5 221 142.5H8.00001C3.85787 142.5 0.5 139.142 0.5 135V119.5Z" stroke="#5452F6"/>
</g>
<g filter="url(#filter2_d)">
<path d="M400 8C400 3.58172 403.582 0 408 0H621C625.418 0 629 3.58172 629 8V120H400V8Z" fill="white"/>
<line x1="400.5" y1="79.5" x2="628.5" y2="79.5" stroke="#5452F6"/>
<line x1="400.5" y1="39.5" x2="628.5" y2="39.5" stroke="#5452F6"/>
<path d="M473.789 102.07C473.789 101.57 473.612 101.185 473.258 100.914C472.909 100.643 472.276 100.37 471.359 100.094C470.443 99.8177 469.714 99.5104 469.172 99.1719C468.135 98.5208 467.617 97.6719 467.617 96.625C467.617 95.7083 467.99 94.9531 468.734 94.3594C469.484 93.7656 470.456 93.4688 471.648 93.4688C472.44 93.4688 473.146 93.6146 473.766 93.9062C474.385 94.1979 474.872 94.6146 475.227 95.1562C475.581 95.6927 475.758 96.2891 475.758 96.9453H473.789C473.789 96.3516 473.602 95.888 473.227 95.5547C472.857 95.2161 472.326 95.0469 471.633 95.0469C470.987 95.0469 470.484 95.1849 470.125 95.4609C469.771 95.737 469.594 96.1224 469.594 96.6172C469.594 97.0339 469.786 97.3828 470.172 97.6641C470.557 97.9401 471.193 98.2109 472.078 98.4766C472.964 98.737 473.674 99.0365 474.211 99.375C474.747 99.7083 475.141 100.094 475.391 100.531C475.641 100.964 475.766 101.471 475.766 102.055C475.766 103.003 475.401 103.758 474.672 104.32C473.948 104.878 472.964 105.156 471.719 105.156C470.896 105.156 470.138 105.005 469.445 104.703C468.758 104.396 468.221 103.974 467.836 103.438C467.456 102.901 467.266 102.276 467.266 101.562H469.242C469.242 102.208 469.456 102.708 469.883 103.062C470.31 103.417 470.922 103.594 471.719 103.594C472.406 103.594 472.922 103.456 473.266 103.18C473.615 102.898 473.789 102.529 473.789 102.07ZM479.695 94.4922V96.5469H481.188V97.9531H479.695V102.672C479.695 102.995 479.758 103.229 479.883 103.375C480.013 103.516 480.242 103.586 480.57 103.586C480.789 103.586 481.01 103.56 481.234 103.508V104.977C480.802 105.096 480.385 105.156 479.984 105.156C478.526 105.156 477.797 104.352 477.797 102.742V97.9531H476.406V96.5469H477.797V94.4922H479.695ZM487.07 98.2812C486.82 98.2396 486.562 98.2188 486.297 98.2188C485.427 98.2188 484.841 98.5521 484.539 99.2188V105H482.641V96.5469H484.453L484.5 97.4922C484.958 96.7578 485.594 96.3906 486.406 96.3906C486.677 96.3906 486.901 96.4271 487.078 96.5L487.07 98.2812ZM490.289 105H488.391V96.5469H490.289V105ZM488.273 94.3516C488.273 94.0599 488.365 93.8177 488.547 93.625C488.734 93.4323 489 93.3359 489.344 93.3359C489.688 93.3359 489.953 93.4323 490.141 93.625C490.328 93.8177 490.422 94.0599 490.422 94.3516C490.422 94.638 490.328 94.8776 490.141 95.0703C489.953 95.2578 489.688 95.3516 489.344 95.3516C489 95.3516 488.734 95.2578 488.547 95.0703C488.365 94.8776 488.273 94.638 488.273 94.3516ZM494.125 96.5469L494.18 97.5234C494.805 96.7682 495.625 96.3906 496.641 96.3906C498.401 96.3906 499.297 97.3984 499.328 99.4141V105H497.43V99.5234C497.43 98.987 497.312 98.5911 497.078 98.3359C496.849 98.0755 496.471 97.9453 495.945 97.9453C495.18 97.9453 494.609 98.2917 494.234 98.9844V105H492.336V96.5469H494.125ZM500.938 100.711C500.938 99.3984 501.245 98.3516 501.859 97.5703C502.479 96.7839 503.299 96.3906 504.32 96.3906C505.284 96.3906 506.042 96.7266 506.594 97.3984L506.68 96.5469H508.391V104.742C508.391 105.852 508.044 106.727 507.352 107.367C506.664 108.008 505.734 108.328 504.562 108.328C503.943 108.328 503.336 108.198 502.742 107.938C502.154 107.682 501.706 107.346 501.398 106.93L502.297 105.789C502.88 106.482 503.599 106.828 504.453 106.828C505.083 106.828 505.581 106.656 505.945 106.312C506.31 105.974 506.492 105.474 506.492 104.812V104.242C505.945 104.852 505.216 105.156 504.305 105.156C503.315 105.156 502.505 104.763 501.875 103.977C501.25 103.19 500.938 102.102 500.938 100.711ZM502.828 100.875C502.828 101.724 503 102.393 503.344 102.883C503.693 103.367 504.174 103.609 504.789 103.609C505.555 103.609 506.122 103.281 506.492 102.625V98.9062C506.133 98.2656 505.57 97.9453 504.805 97.9453C504.18 97.9453 503.693 98.1927 503.344 98.6875C503 99.1823 502.828 99.9115 502.828 100.875ZM515.633 92.7969L516.602 93.3984C516.128 94.0911 515.883 94.8125 515.867 95.5625V96.75H514.203V95.6719C514.208 95.1719 514.344 94.651 514.609 94.1094C514.88 93.5625 515.221 93.125 515.633 92.7969ZM518.258 92.7969L519.227 93.3984C518.753 94.0911 518.508 94.8125 518.492 95.5625V96.75H516.828V95.6719C516.833 95.1719 516.969 94.651 517.234 94.1094C517.505 93.5625 517.846 93.125 518.258 92.7969ZM529.703 105H527.734V99.9453H522.648V105H520.672V93.625H522.648V98.3594H527.734V93.625H529.703V105ZM535.586 105.156C534.383 105.156 533.406 104.779 532.656 104.023C531.911 103.263 531.539 102.253 531.539 100.992V100.758C531.539 99.9141 531.701 99.1615 532.023 98.5C532.352 97.8333 532.81 97.3151 533.398 96.9453C533.987 96.5755 534.643 96.3906 535.367 96.3906C536.518 96.3906 537.406 96.7578 538.031 97.4922C538.661 98.2266 538.977 99.2656 538.977 100.609V101.375H533.453C533.51 102.073 533.742 102.625 534.148 103.031C534.56 103.438 535.076 103.641 535.695 103.641C536.565 103.641 537.273 103.289 537.82 102.586L538.844 103.562C538.505 104.068 538.052 104.461 537.484 104.742C536.922 105.018 536.289 105.156 535.586 105.156ZM535.359 97.9141C534.839 97.9141 534.417 98.0964 534.094 98.4609C533.776 98.8255 533.573 99.3333 533.484 99.9844H537.102V99.8438C537.06 99.2083 536.891 98.7292 536.594 98.4062C536.297 98.0781 535.885 97.9141 535.359 97.9141ZM542.477 105H540.578V93H542.477V105ZM546.57 105H544.672V93H546.57V105ZM548.289 100.695C548.289 99.8672 548.453 99.1224 548.781 98.4609C549.109 97.7943 549.57 97.2839 550.164 96.9297C550.758 96.5703 551.44 96.3906 552.211 96.3906C553.352 96.3906 554.276 96.7578 554.984 97.4922C555.698 98.2266 556.083 99.2005 556.141 100.414L556.148 100.859C556.148 101.693 555.987 102.438 555.664 103.094C555.346 103.75 554.888 104.258 554.289 104.617C553.695 104.977 553.008 105.156 552.227 105.156C551.034 105.156 550.078 104.76 549.359 103.969C548.646 103.172 548.289 102.112 548.289 100.789V100.695ZM550.188 100.859C550.188 101.729 550.367 102.411 550.727 102.906C551.086 103.396 551.586 103.641 552.227 103.641C552.867 103.641 553.365 103.391 553.719 102.891C554.078 102.391 554.258 101.659 554.258 100.695C554.258 99.8411 554.073 99.1641 553.703 98.6641C553.339 98.1641 552.841 97.9141 552.211 97.9141C551.591 97.9141 551.099 98.1615 550.734 98.6562C550.37 99.1458 550.188 99.8802 550.188 100.859ZM557.562 97L556.594 96.3984C557.062 95.7161 557.305 94.9948 557.32 94.2344V93H558.984V94.0781C558.984 94.6146 558.846 95.1562 558.57 95.7031C558.299 96.2448 557.964 96.6771 557.562 97ZM560.172 97L559.203 96.3984C559.672 95.7161 559.914 94.9948 559.93 94.2344V93H561.594V94.0781C561.594 94.6146 561.456 95.1562 561.18 95.7031C560.909 96.2448 560.573 96.6771 560.172 97Z" fill="#FF5A43"/>
<path d="M498.75 57.5469L498.805 58.5234C499.43 57.7682 500.25 57.3906 501.266 57.3906C503.026 57.3906 503.922 58.3984 503.953 60.4141V66H502.055V60.5234C502.055 59.987 501.938 59.5911 501.703 59.3359C501.474 59.0755 501.096 58.9453 500.57 58.9453C499.805 58.9453 499.234 59.2917 498.859 59.9844V66H496.961V57.5469H498.75ZM510.945 66C510.862 65.8385 510.789 65.5755 510.727 65.2109C510.122 65.8411 509.383 66.1562 508.508 66.1562C507.659 66.1562 506.966 65.9141 506.43 65.4297C505.893 64.9453 505.625 64.3464 505.625 63.6328C505.625 62.7318 505.958 62.0417 506.625 61.5625C507.297 61.0781 508.255 60.8359 509.5 60.8359H510.664V60.2812C510.664 59.8438 510.542 59.4948 510.297 59.2344C510.052 58.9688 509.68 58.8359 509.18 58.8359C508.747 58.8359 508.393 58.9453 508.117 59.1641C507.841 59.3776 507.703 59.651 507.703 59.9844H505.805C505.805 59.5208 505.958 59.0885 506.266 58.6875C506.573 58.2812 506.99 57.9635 507.516 57.7344C508.047 57.5052 508.638 57.3906 509.289 57.3906C510.279 57.3906 511.068 57.6406 511.656 58.1406C512.245 58.6354 512.547 59.3333 512.562 60.2344V64.0469C512.562 64.8073 512.669 65.4141 512.883 65.8672V66H510.945ZM508.859 64.6328C509.234 64.6328 509.586 64.5417 509.914 64.3594C510.247 64.1771 510.497 63.9323 510.664 63.625V62.0312H509.641C508.938 62.0312 508.409 62.1536 508.055 62.3984C507.701 62.6432 507.523 62.9896 507.523 63.4375C507.523 63.8021 507.643 64.0938 507.883 64.3125C508.128 64.526 508.453 64.6328 508.859 64.6328ZM516.93 55.4922V57.5469H518.422V58.9531H516.93V63.6719C516.93 63.9948 516.992 64.2292 517.117 64.375C517.247 64.5156 517.477 64.5859 517.805 64.5859C518.023 64.5859 518.245 64.5599 518.469 64.5078V65.9766C518.036 66.0964 517.62 66.1562 517.219 66.1562C515.76 66.1562 515.031 65.3516 515.031 63.7422V58.9531H513.641V57.5469H515.031V55.4922H516.93ZM524.25 60.3594L524.867 54.625H530.977V56.2656H526.445L526.133 58.9844C526.659 58.6823 527.253 58.5312 527.914 58.5312C528.997 58.5312 529.839 58.8776 530.438 59.5703C531.042 60.263 531.344 61.1953 531.344 62.3672C531.344 63.5234 531.01 64.4453 530.344 65.1328C529.677 65.8151 528.763 66.1562 527.602 66.1562C526.56 66.1562 525.695 65.862 525.008 65.2734C524.326 64.6797 523.956 63.8984 523.898 62.9297H525.734C525.807 63.4818 526.005 63.9062 526.328 64.2031C526.651 64.4948 527.073 64.6406 527.594 64.6406C528.177 64.6406 528.63 64.4323 528.953 64.0156C529.281 63.599 529.445 63.0312 529.445 62.3125C529.445 61.6198 529.266 61.0729 528.906 60.6719C528.547 60.2656 528.052 60.0625 527.422 60.0625C527.078 60.0625 526.786 60.1094 526.547 60.2031C526.307 60.2917 526.047 60.4688 525.766 60.7344L524.25 60.3594Z" fill="#5452F6"/>
<path d="M494.703 16.5469L494.758 17.5234C495.383 16.7682 496.203 16.3906 497.219 16.3906C498.979 16.3906 499.875 17.3984 499.906 19.4141V25H498.008V19.5234C498.008 18.987 497.891 18.5911 497.656 18.3359C497.427 18.0755 497.049 17.9453 496.523 17.9453C495.758 17.9453 495.188 18.2917 494.812 18.9844V25H492.914V16.5469H494.703ZM506.898 25C506.815 24.8385 506.742 24.5755 506.68 24.2109C506.076 24.8411 505.336 25.1562 504.461 25.1562C503.612 25.1562 502.919 24.9141 502.383 24.4297C501.846 23.9453 501.578 23.3464 501.578 22.6328C501.578 21.7318 501.911 21.0417 502.578 20.5625C503.25 20.0781 504.208 19.8359 505.453 19.8359H506.617V19.2812C506.617 18.8438 506.495 18.4948 506.25 18.2344C506.005 17.9688 505.633 17.8359 505.133 17.8359C504.701 17.8359 504.346 17.9453 504.07 18.1641C503.794 18.3776 503.656 18.651 503.656 18.9844H501.758C501.758 18.5208 501.911 18.0885 502.219 17.6875C502.526 17.2812 502.943 16.9635 503.469 16.7344C504 16.5052 504.591 16.3906 505.242 16.3906C506.232 16.3906 507.021 16.6406 507.609 17.1406C508.198 17.6354 508.5 18.3333 508.516 19.2344V23.0469C508.516 23.8073 508.622 24.4141 508.836 24.8672V25H506.898ZM504.812 23.6328C505.188 23.6328 505.539 23.5417 505.867 23.3594C506.201 23.1771 506.451 22.9323 506.617 22.625V21.0312H505.594C504.891 21.0312 504.362 21.1536 504.008 21.3984C503.654 21.6432 503.477 21.9896 503.477 22.4375C503.477 22.8021 503.596 23.0938 503.836 23.3125C504.081 23.526 504.406 23.6328 504.812 23.6328ZM512.883 14.4922V16.5469H514.375V17.9531H512.883V22.6719C512.883 22.9948 512.945 23.2292 513.07 23.375C513.201 23.5156 513.43 23.5859 513.758 23.5859C513.977 23.5859 514.198 23.5599 514.422 23.5078V24.9766C513.99 25.0964 513.573 25.1562 513.172 25.1562C511.714 25.1562 510.984 24.3516 510.984 22.7422V17.9531H509.594V16.5469H510.984V14.4922H512.883ZM526.117 20.9453H527.531V22.4688H526.117V25H524.219V22.4688H519.305L519.25 21.3125L524.156 13.625H526.117V20.9453ZM521.242 20.9453H524.219V16.1953L524.078 16.4453L521.242 20.9453ZM536.438 25H528.789V23.6953L532.578 19.5625C533.125 18.9531 533.513 18.4453 533.742 18.0391C533.977 17.6276 534.094 17.2161 534.094 16.8047C534.094 16.263 533.94 15.8255 533.633 15.4922C533.331 15.1589 532.922 14.9922 532.406 14.9922C531.792 14.9922 531.315 15.1797 530.977 15.5547C530.638 15.9297 530.469 16.4427 530.469 17.0938H528.57C528.57 16.401 528.727 15.7786 529.039 15.2266C529.357 14.6693 529.807 14.237 530.391 13.9297C530.979 13.6224 531.656 13.4688 532.422 13.4688C533.526 13.4688 534.396 13.7474 535.031 14.3047C535.672 14.8568 535.992 15.6224 535.992 16.6016C535.992 17.1693 535.831 17.7656 535.508 18.3906C535.19 19.0104 534.667 19.7161 533.938 20.5078L531.156 23.4844H536.438V25Z" fill="#5452F6"/>
<path d="M408 0.5H621C625.142 0.5 628.5 3.85787 628.5 8V119.5H400.5V8C400.5 3.85786 403.858 0.5 408 0.5Z" stroke="#5452F6"/>
</g>
<g filter="url(#filter3_d)">
<path d="M400 119H629V135C629 139.418 625.418 143 621 143H408C403.582 143 400 139.418 400 135V119Z" fill="#EEEEFF"/>
<path d="M400.5 119.5H628.5V135C628.5 139.142 625.142 142.5 621 142.5H408C403.858 142.5 400.5 139.142 400.5 135V119.5Z" stroke="#5452F6"/>
</g>
<defs>
<filter id="filter0_d" x="0" y="0" width="233" height="124" filterUnits="userSpaceOnUse" color-interpolation-filters="sRGB">
<feFlood flood-opacity="0" result="BackgroundImageFix"/>
<feColorMatrix in="SourceAlpha" type="matrix" values="0 0 0 0 0 0 0 0 0 0 0 0 0 0 0 0 0 0 127 0"/>
<feOffset dx="4" dy="4"/>
<feColorMatrix type="matrix" values="0 0 0 0 0.674908 0 0 0 0 0.662083 0 0 0 0 0.945833 0 0 0 1 0"/>
<feBlend mode="normal" in2="BackgroundImageFix" result="effect1_dropShadow"/>
<feBlend mode="normal" in="SourceGraphic" in2="effect1_dropShadow" result="shape"/>
</filter>
<filter id="filter1_d" x="0" y="119" width="233" height="28" filterUnits="userSpaceOnUse" color-interpolation-filters="sRGB">
<feFlood flood-opacity="0" result="BackgroundImageFix"/>
<feColorMatrix in="SourceAlpha" type="matrix" values="0 0 0 0 0 0 0 0 0 0 0 0 0 0 0 0 0 0 127 0"/>
<feOffset dx="4" dy="4"/>
<feColorMatrix type="matrix" values="0 0 0 0 0.674908 0 0 0 0 0.662083 0 0 0 0 0.945833 0 0 0 1 0"/>
<feBlend mode="normal" in2="BackgroundImageFix" result="effect1_dropShadow"/>
<feBlend mode="normal" in="SourceGraphic" in2="effect1_dropShadow" result="shape"/>
</filter>
<filter id="filter2_d" x="400" y="0" width="233" height="124" filterUnits="userSpaceOnUse" color-interpolation-filters="sRGB">
<feFlood flood-opacity="0" result="BackgroundImageFix"/>
<feColorMatrix in="SourceAlpha" type="matrix" values="0 0 0 0 0 0 0 0 0 0 0 0 0 0 0 0 0 0 127 0"/>
<feOffset dx="4" dy="4"/>
<feColorMatrix type="matrix" values="0 0 0 0 0.674908 0 0 0 0 0.662083 0 0 0 0 0.945833 0 0 0 1 0"/>
<feBlend mode="normal" in2="BackgroundImageFix" result="effect1_dropShadow"/>
<feBlend mode="normal" in="SourceGraphic" in2="effect1_dropShadow" result="shape"/>
</filter>
<filter id="filter3_d" x="400" y="119" width="233" height="28" filterUnits="userSpaceOnUse" color-interpolation-filters="sRGB">
<feFlood flood-opacity="0" result="BackgroundImageFix"/>
<feColorMatrix in="SourceAlpha" type="matrix" values="0 0 0 0 0 0 0 0 0 0 0 0 0 0 0 0 0 0 127 0"/>
<feOffset dx="4" dy="4"/>
<feColorMatrix type="matrix" values="0 0 0 0 0.674908 0 0 0 0 0.662083 0 0 0 0 0.945833 0 0 0 1 0"/>
<feBlend mode="normal" in2="BackgroundImageFix" result="effect1_dropShadow"/>
<feBlend mode="normal" in="SourceGraphic" in2="effect1_dropShadow" result="shape"/>
</filter>
</defs>
</svg>
