<svg width="1040" height="255" viewBox="0 0 1040 255" fill="none" xmlns="http://www.w3.org/2000/svg">
<g filter="url(#filter0_d)">
<path d="M400 192C400 187.582 403.582 184 408 184H621C625.418 184 629 187.582 629 192V224H400V192Z" fill="white"/>
<path d="M408 184.5H621C625.142 184.5 628.5 187.858 628.5 192V223.5H400.5V192C400.5 187.858 403.858 184.5 408 184.5Z" stroke="#5452F6"/>
</g>
<g filter="url(#filter1_d)">
<path d="M400 223H629V239C629 243.418 625.418 247 621 247H408C403.582 247 400 243.418 400 239V223Z" fill="#EEEEFF"/>
<path d="M400.5 223.5H628.5V239C628.5 243.142 625.142 246.5 621 246.5H408C403.858 246.5 400.5 243.142 400.5 239V223.5Z" stroke="#5452F6"/>
</g>
<path d="M501.789 209H499.891V200.547H501.789V209ZM499.773 198.352C499.773 198.06 499.865 197.818 500.047 197.625C500.234 197.432 500.5 197.336 500.844 197.336C501.188 197.336 501.453 197.432 501.641 197.625C501.828 197.818 501.922 198.06 501.922 198.352C501.922 198.638 501.828 198.878 501.641 199.07C501.453 199.258 501.188 199.352 500.844 199.352C500.5 199.352 500.234 199.258 500.047 199.07C499.865 198.878 499.773 198.638 499.773 198.352ZM505.625 200.547L505.68 201.523C506.305 200.768 507.125 200.391 508.141 200.391C509.901 200.391 510.797 201.398 510.828 203.414V209H508.93V203.523C508.93 202.987 508.812 202.591 508.578 202.336C508.349 202.076 507.971 201.945 507.445 201.945C506.68 201.945 506.109 202.292 505.734 202.984V209H503.836V200.547H505.625ZM515.148 198.492V200.547H516.641V201.953H515.148V206.672C515.148 206.995 515.211 207.229 515.336 207.375C515.466 207.516 515.695 207.586 516.023 207.586C516.242 207.586 516.464 207.56 516.688 207.508V208.977C516.255 209.096 515.839 209.156 515.438 209.156C513.979 209.156 513.25 208.352 513.25 206.742V201.953H511.859V200.547H513.25V198.492H515.148ZM522.469 203.359L523.086 197.625H529.195V199.266H524.664L524.352 201.984C524.878 201.682 525.471 201.531 526.133 201.531C527.216 201.531 528.057 201.878 528.656 202.57C529.26 203.263 529.562 204.195 529.562 205.367C529.562 206.523 529.229 207.445 528.562 208.133C527.896 208.815 526.982 209.156 525.82 209.156C524.779 209.156 523.914 208.862 523.227 208.273C522.544 207.68 522.174 206.898 522.117 205.93H523.953C524.026 206.482 524.224 206.906 524.547 207.203C524.87 207.495 525.292 207.641 525.812 207.641C526.396 207.641 526.849 207.432 527.172 207.016C527.5 206.599 527.664 206.031 527.664 205.312C527.664 204.62 527.484 204.073 527.125 203.672C526.766 203.266 526.271 203.062 525.641 203.062C525.297 203.062 525.005 203.109 524.766 203.203C524.526 203.292 524.266 203.469 523.984 203.734L522.469 203.359Z" fill="#5452F6"/>
<g filter="url(#filter2_d)">
<path d="M800 15C800 10.5817 803.582 7 808 7H1021C1025.42 7 1029 10.5817 1029 15V87H800V15Z" fill="white"/>
<path d="M808 7.5H1021C1025.14 7.5 1028.5 10.8579 1028.5 15V86.5H800.5V15C800.5 10.8579 803.858 7.5 808 7.5Z" stroke="#5452F6"/>
</g>
<g filter="url(#filter3_d)">
<path d="M800 86H1029V102C1029 106.418 1025.42 110 1021 110H808C803.582 110 800 106.418 800 102V86Z" fill="#EEEEFF"/>
<path d="M800.5 86.5H1028.5V102C1028.5 106.142 1025.14 109.5 1021 109.5H808C803.858 109.5 800.5 106.142 800.5 102V86.5Z" stroke="#5452F6"/>
</g>
<line x1="800.5" y1="46.5" x2="1028.5" y2="46.5" stroke="#5452F6"/>
<path d="M901.789 72H899.891V63.5469H901.789V72ZM899.773 61.3516C899.773 61.0599 899.865 60.8177 900.047 60.625C900.234 60.4323 900.5 60.3359 900.844 60.3359C901.188 60.3359 901.453 60.4323 901.641 60.625C901.828 60.8177 901.922 61.0599 901.922 61.3516C901.922 61.638 901.828 61.8776 901.641 62.0703C901.453 62.2578 901.188 62.3516 900.844 62.3516C900.5 62.3516 900.234 62.2578 900.047 62.0703C899.865 61.8776 899.773 61.638 899.773 61.3516ZM905.625 63.5469L905.68 64.5234C906.305 63.7682 907.125 63.3906 908.141 63.3906C909.901 63.3906 910.797 64.3984 910.828 66.4141V72H908.93V66.5234C908.93 65.987 908.812 65.5911 908.578 65.3359C908.349 65.0755 907.971 64.9453 907.445 64.9453C906.68 64.9453 906.109 65.2917 905.734 65.9844V72H903.836V63.5469H905.625ZM915.148 61.4922V63.5469H916.641V64.9531H915.148V69.6719C915.148 69.9948 915.211 70.2292 915.336 70.375C915.466 70.5156 915.695 70.5859 916.023 70.5859C916.242 70.5859 916.464 70.5599 916.688 70.5078V71.9766C916.255 72.0964 915.839 72.1562 915.438 72.1562C913.979 72.1562 913.25 71.3516 913.25 69.7422V64.9531H911.859V63.5469H913.25V61.4922H915.148ZM922.469 66.3594L923.086 60.625H929.195V62.2656H924.664L924.352 64.9844C924.878 64.6823 925.471 64.5312 926.133 64.5312C927.216 64.5312 928.057 64.8776 928.656 65.5703C929.26 66.263 929.562 67.1953 929.562 68.3672C929.562 69.5234 929.229 70.4453 928.562 71.1328C927.896 71.8151 926.982 72.1562 925.82 72.1562C924.779 72.1562 923.914 71.862 923.227 71.2734C922.544 70.6797 922.174 69.8984 922.117 68.9297H923.953C924.026 69.4818 924.224 69.9062 924.547 70.2031C924.87 70.4948 925.292 70.6406 925.812 70.6406C926.396 70.6406 926.849 70.4323 927.172 70.0156C927.5 69.599 927.664 69.0312 927.664 68.3125C927.664 67.6198 927.484 67.0729 927.125 66.6719C926.766 66.2656 926.271 66.0625 925.641 66.0625C925.297 66.0625 925.005 66.1094 924.766 66.2031C924.526 66.2917 924.266 66.4688 923.984 66.7344L922.469 66.3594Z" fill="#5452F6"/>
<path d="M873.094 29.7031C873.094 29.3646 872.953 29.1068 872.672 28.9297C872.396 28.7526 871.935 28.5964 871.289 28.4609C870.643 28.3255 870.104 28.1536 869.672 27.9453C868.724 27.487 868.25 26.8229 868.25 25.9531C868.25 25.224 868.557 24.6146 869.172 24.125C869.786 23.6354 870.568 23.3906 871.516 23.3906C872.526 23.3906 873.341 23.6406 873.961 24.1406C874.586 24.6406 874.898 25.2891 874.898 26.0859H873C873 25.7214 872.865 25.4193 872.594 25.1797C872.323 24.9349 871.964 24.8125 871.516 24.8125C871.099 24.8125 870.758 24.9089 870.492 25.1016C870.232 25.2943 870.102 25.5521 870.102 25.875C870.102 26.1667 870.224 26.3932 870.469 26.5547C870.714 26.7161 871.208 26.8802 871.953 27.0469C872.698 27.2083 873.281 27.4036 873.703 27.6328C874.13 27.8568 874.445 28.1276 874.648 28.4453C874.857 28.763 874.961 29.1484 874.961 29.6016C874.961 30.362 874.646 30.9792 874.016 31.4531C873.385 31.9219 872.56 32.1562 871.539 32.1562C870.846 32.1562 870.229 32.0312 869.688 31.7812C869.146 31.5312 868.724 31.1875 868.422 30.75C868.12 30.3125 867.969 29.8411 867.969 29.3359H869.812C869.839 29.7839 870.008 30.1302 870.32 30.375C870.633 30.6146 871.047 30.7344 871.562 30.7344C872.062 30.7344 872.443 30.6406 872.703 30.4531C872.964 30.2604 873.094 30.0104 873.094 29.7031ZM879 21.4922V23.5469H880.492V24.9531H879V29.6719C879 29.9948 879.062 30.2292 879.188 30.375C879.318 30.5156 879.547 30.5859 879.875 30.5859C880.094 30.5859 880.315 30.5599 880.539 30.5078V31.9766C880.107 32.0964 879.69 32.1562 879.289 32.1562C877.831 32.1562 877.102 31.3516 877.102 29.7422V24.9531H875.711V23.5469H877.102V21.4922H879ZM886.375 25.2812C886.125 25.2396 885.867 25.2188 885.602 25.2188C884.732 25.2188 884.146 25.5521 883.844 26.2188V32H881.945V23.5469H883.758L883.805 24.4922C884.263 23.7578 884.898 23.3906 885.711 23.3906C885.982 23.3906 886.206 23.4271 886.383 23.5L886.375 25.2812ZM889.594 32H887.695V23.5469H889.594V32ZM887.578 21.3516C887.578 21.0599 887.669 20.8177 887.852 20.625C888.039 20.4323 888.305 20.3359 888.648 20.3359C888.992 20.3359 889.258 20.4323 889.445 20.625C889.633 20.8177 889.727 21.0599 889.727 21.3516C889.727 21.638 889.633 21.8776 889.445 22.0703C889.258 22.2578 888.992 22.3516 888.648 22.3516C888.305 22.3516 888.039 22.2578 887.852 22.0703C887.669 21.8776 887.578 21.638 887.578 21.3516ZM893.43 23.5469L893.484 24.5234C894.109 23.7682 894.93 23.3906 895.945 23.3906C897.706 23.3906 898.602 24.3984 898.633 26.4141V32H896.734V26.5234C896.734 25.987 896.617 25.5911 896.383 25.3359C896.154 25.0755 895.776 24.9453 895.25 24.9453C894.484 24.9453 893.914 25.2917 893.539 25.9844V32H891.641V23.5469H893.43ZM900.242 27.7109C900.242 26.3984 900.549 25.3516 901.164 24.5703C901.784 23.7839 902.604 23.3906 903.625 23.3906C904.589 23.3906 905.346 23.7266 905.898 24.3984L905.984 23.5469H907.695V31.7422C907.695 32.8516 907.349 33.7266 906.656 34.3672C905.969 35.0078 905.039 35.3281 903.867 35.3281C903.247 35.3281 902.641 35.1979 902.047 34.9375C901.458 34.6823 901.01 34.3464 900.703 33.9297L901.602 32.7891C902.185 33.4818 902.904 33.8281 903.758 33.8281C904.388 33.8281 904.885 33.6562 905.25 33.3125C905.615 32.974 905.797 32.474 905.797 31.8125V31.2422C905.25 31.8516 904.521 32.1562 903.609 32.1562C902.62 32.1562 901.81 31.763 901.18 30.9766C900.555 30.1901 900.242 29.1016 900.242 27.7109ZM902.133 27.875C902.133 28.724 902.305 29.3932 902.648 29.8828C902.997 30.3672 903.479 30.6094 904.094 30.6094C904.859 30.6094 905.427 30.2812 905.797 29.625V25.9062C905.438 25.2656 904.875 24.9453 904.109 24.9453C903.484 24.9453 902.997 25.1927 902.648 25.6875C902.305 26.1823 902.133 26.9115 902.133 27.875ZM914.938 19.7969L915.906 20.3984C915.432 21.0911 915.188 21.8125 915.172 22.5625V23.75H913.508V22.6719C913.513 22.1719 913.648 21.651 913.914 21.1094C914.185 20.5625 914.526 20.125 914.938 19.7969ZM917.562 19.7969L918.531 20.3984C918.057 21.0911 917.812 21.8125 917.797 22.5625V23.75H916.133V22.6719C916.138 22.1719 916.273 21.651 916.539 21.1094C916.81 20.5625 917.151 20.125 917.562 19.7969ZM929.008 32H927.039V26.9453H921.953V32H919.977V20.625H921.953V25.3594H927.039V20.625H929.008V32ZM934.891 32.1562C933.688 32.1562 932.711 31.7786 931.961 31.0234C931.216 30.263 930.844 29.2526 930.844 27.9922V27.7578C930.844 26.9141 931.005 26.1615 931.328 25.5C931.656 24.8333 932.115 24.3151 932.703 23.9453C933.292 23.5755 933.948 23.3906 934.672 23.3906C935.823 23.3906 936.711 23.7578 937.336 24.4922C937.966 25.2266 938.281 26.2656 938.281 27.6094V28.375H932.758C932.815 29.0729 933.047 29.625 933.453 30.0312C933.865 30.4375 934.38 30.6406 935 30.6406C935.87 30.6406 936.578 30.2891 937.125 29.5859L938.148 30.5625C937.81 31.0677 937.357 31.4609 936.789 31.7422C936.227 32.0182 935.594 32.1562 934.891 32.1562ZM934.664 24.9141C934.143 24.9141 933.721 25.0964 933.398 25.4609C933.081 25.8255 932.878 26.3333 932.789 26.9844H936.406V26.8438C936.365 26.2083 936.195 25.7292 935.898 25.4062C935.602 25.0781 935.19 24.9141 934.664 24.9141ZM941.781 32H939.883V20H941.781V32ZM945.875 32H943.977V20H945.875V32ZM947.594 27.6953C947.594 26.8672 947.758 26.1224 948.086 25.4609C948.414 24.7943 948.875 24.2839 949.469 23.9297C950.062 23.5703 950.745 23.3906 951.516 23.3906C952.656 23.3906 953.581 23.7578 954.289 24.4922C955.003 25.2266 955.388 26.2005 955.445 27.4141L955.453 27.8594C955.453 28.6927 955.292 29.4375 954.969 30.0938C954.651 30.75 954.193 31.2578 953.594 31.6172C953 31.9766 952.312 32.1562 951.531 32.1562C950.339 32.1562 949.383 31.7604 948.664 30.9688C947.951 30.1719 947.594 29.112 947.594 27.7891V27.6953ZM949.492 27.8594C949.492 28.7292 949.672 29.4115 950.031 29.9062C950.391 30.3958 950.891 30.6406 951.531 30.6406C952.172 30.6406 952.669 30.3906 953.023 29.8906C953.383 29.3906 953.562 28.6589 953.562 27.6953C953.562 26.8411 953.378 26.1641 953.008 25.6641C952.643 25.1641 952.146 24.9141 951.516 24.9141C950.896 24.9141 950.404 25.1615 950.039 25.6562C949.674 26.1458 949.492 26.8802 949.492 27.8594ZM956.867 24L955.898 23.3984C956.367 22.7161 956.609 21.9948 956.625 21.2344V20H958.289V21.0781C958.289 21.6146 958.151 22.1562 957.875 22.7031C957.604 23.2448 957.268 23.6771 956.867 24ZM959.477 24L958.508 23.3984C958.977 22.7161 959.219 21.9948 959.234 21.2344V20H960.898V21.0781C960.898 21.6146 960.76 22.1562 960.484 22.7031C960.214 23.2448 959.878 23.6771 959.477 24Z" fill="#5452F6"/>
<g filter="url(#filter4_d)">
<path d="M0 152C0 147.582 3.58172 144 8 144H221C225.418 144 229 147.582 229 152V224H0V152Z" fill="white"/>
<path d="M8 144.5H221C225.142 144.5 228.5 147.858 228.5 152V223.5H0.5V152C0.5 147.858 3.85786 144.5 8 144.5Z" stroke="#5452F6"/>
</g>
<g filter="url(#filter5_d)">
<path d="M0 223H229V239C229 243.418 225.418 247 221 247H8.00001C3.58173 247 0 243.418 0 239V223Z" fill="#EEEEFF"/>
<path d="M0.5 223.5H228.5V239C228.5 243.142 225.142 246.5 221 246.5H8.00001C3.85787 246.5 0.5 243.142 0.5 239V223.5Z" stroke="#5452F6"/>
</g>
<line x1="0.5" y1="183.5" x2="228.5" y2="183.5" stroke="#5452F6"/>
<path d="M101.789 209H99.8906V200.547H101.789V209ZM99.7734 198.352C99.7734 198.06 99.8646 197.818 100.047 197.625C100.234 197.432 100.5 197.336 100.844 197.336C101.188 197.336 101.453 197.432 101.641 197.625C101.828 197.818 101.922 198.06 101.922 198.352C101.922 198.638 101.828 198.878 101.641 199.07C101.453 199.258 101.188 199.352 100.844 199.352C100.5 199.352 100.234 199.258 100.047 199.07C99.8646 198.878 99.7734 198.638 99.7734 198.352ZM105.625 200.547L105.68 201.523C106.305 200.768 107.125 200.391 108.141 200.391C109.901 200.391 110.797 201.398 110.828 203.414V209H108.93V203.523C108.93 202.987 108.812 202.591 108.578 202.336C108.349 202.076 107.971 201.945 107.445 201.945C106.68 201.945 106.109 202.292 105.734 202.984V209H103.836V200.547H105.625ZM115.148 198.492V200.547H116.641V201.953H115.148V206.672C115.148 206.995 115.211 207.229 115.336 207.375C115.466 207.516 115.695 207.586 116.023 207.586C116.242 207.586 116.464 207.56 116.688 207.508V208.977C116.255 209.096 115.839 209.156 115.438 209.156C113.979 209.156 113.25 208.352 113.25 206.742V201.953H111.859V200.547H113.25V198.492H115.148ZM122.469 203.359L123.086 197.625H129.195V199.266H124.664L124.352 201.984C124.878 201.682 125.471 201.531 126.133 201.531C127.216 201.531 128.057 201.878 128.656 202.57C129.26 203.263 129.562 204.195 129.562 205.367C129.562 206.523 129.229 207.445 128.562 208.133C127.896 208.815 126.982 209.156 125.82 209.156C124.779 209.156 123.914 208.862 123.227 208.273C122.544 207.68 122.174 206.898 122.117 205.93H123.953C124.026 206.482 124.224 206.906 124.547 207.203C124.87 207.495 125.292 207.641 125.812 207.641C126.396 207.641 126.849 207.432 127.172 207.016C127.5 206.599 127.664 206.031 127.664 205.312C127.664 204.62 127.484 204.073 127.125 203.672C126.766 203.266 126.271 203.062 125.641 203.062C125.297 203.062 125.005 203.109 124.766 203.203C124.526 203.292 124.266 203.469 123.984 203.734L122.469 203.359Z" fill="#5452F6"/>
<path d="M73.0938 166.703C73.0938 166.365 72.9531 166.107 72.6719 165.93C72.3958 165.753 71.9349 165.596 71.2891 165.461C70.6432 165.326 70.1042 165.154 69.6719 164.945C68.724 164.487 68.25 163.823 68.25 162.953C68.25 162.224 68.5573 161.615 69.1719 161.125C69.7865 160.635 70.5677 160.391 71.5156 160.391C72.526 160.391 73.3411 160.641 73.9609 161.141C74.5859 161.641 74.8984 162.289 74.8984 163.086H73C73 162.721 72.8646 162.419 72.5938 162.18C72.3229 161.935 71.9635 161.812 71.5156 161.812C71.099 161.812 70.7578 161.909 70.4922 162.102C70.2318 162.294 70.1016 162.552 70.1016 162.875C70.1016 163.167 70.224 163.393 70.4688 163.555C70.7135 163.716 71.2083 163.88 71.9531 164.047C72.6979 164.208 73.2812 164.404 73.7031 164.633C74.1302 164.857 74.4453 165.128 74.6484 165.445C74.8568 165.763 74.9609 166.148 74.9609 166.602C74.9609 167.362 74.6458 167.979 74.0156 168.453C73.3854 168.922 72.5599 169.156 71.5391 169.156C70.8464 169.156 70.2292 169.031 69.6875 168.781C69.1458 168.531 68.724 168.188 68.4219 167.75C68.1198 167.312 67.9688 166.841 67.9688 166.336H69.8125C69.8385 166.784 70.0078 167.13 70.3203 167.375C70.6328 167.615 71.0469 167.734 71.5625 167.734C72.0625 167.734 72.4427 167.641 72.7031 167.453C72.9635 167.26 73.0938 167.01 73.0938 166.703ZM79 158.492V160.547H80.4922V161.953H79V166.672C79 166.995 79.0625 167.229 79.1875 167.375C79.3177 167.516 79.5469 167.586 79.875 167.586C80.0938 167.586 80.3151 167.56 80.5391 167.508V168.977C80.1068 169.096 79.6901 169.156 79.2891 169.156C77.8307 169.156 77.1016 168.352 77.1016 166.742V161.953H75.7109V160.547H77.1016V158.492H79ZM86.375 162.281C86.125 162.24 85.8672 162.219 85.6016 162.219C84.7318 162.219 84.1458 162.552 83.8438 163.219V169H81.9453V160.547H83.7578L83.8047 161.492C84.263 160.758 84.8984 160.391 85.7109 160.391C85.9818 160.391 86.2057 160.427 86.3828 160.5L86.375 162.281ZM89.5938 169H87.6953V160.547H89.5938V169ZM87.5781 158.352C87.5781 158.06 87.6693 157.818 87.8516 157.625C88.0391 157.432 88.3047 157.336 88.6484 157.336C88.9922 157.336 89.2578 157.432 89.4453 157.625C89.6328 157.818 89.7266 158.06 89.7266 158.352C89.7266 158.638 89.6328 158.878 89.4453 159.07C89.2578 159.258 88.9922 159.352 88.6484 159.352C88.3047 159.352 88.0391 159.258 87.8516 159.07C87.6693 158.878 87.5781 158.638 87.5781 158.352ZM93.4297 160.547L93.4844 161.523C94.1094 160.768 94.9297 160.391 95.9453 160.391C97.7057 160.391 98.6016 161.398 98.6328 163.414V169H96.7344V163.523C96.7344 162.987 96.6172 162.591 96.3828 162.336C96.1536 162.076 95.776 161.945 95.25 161.945C94.4844 161.945 93.9141 162.292 93.5391 162.984V169H91.6406V160.547H93.4297ZM100.242 164.711C100.242 163.398 100.549 162.352 101.164 161.57C101.784 160.784 102.604 160.391 103.625 160.391C104.589 160.391 105.346 160.727 105.898 161.398L105.984 160.547H107.695V168.742C107.695 169.852 107.349 170.727 106.656 171.367C105.969 172.008 105.039 172.328 103.867 172.328C103.247 172.328 102.641 172.198 102.047 171.938C101.458 171.682 101.01 171.346 100.703 170.93L101.602 169.789C102.185 170.482 102.904 170.828 103.758 170.828C104.388 170.828 104.885 170.656 105.25 170.312C105.615 169.974 105.797 169.474 105.797 168.812V168.242C105.25 168.852 104.521 169.156 103.609 169.156C102.62 169.156 101.81 168.763 101.18 167.977C100.555 167.19 100.242 166.102 100.242 164.711ZM102.133 164.875C102.133 165.724 102.305 166.393 102.648 166.883C102.997 167.367 103.479 167.609 104.094 167.609C104.859 167.609 105.427 167.281 105.797 166.625V162.906C105.438 162.266 104.875 161.945 104.109 161.945C103.484 161.945 102.997 162.193 102.648 162.688C102.305 163.182 102.133 163.911 102.133 164.875ZM114.938 156.797L115.906 157.398C115.432 158.091 115.188 158.812 115.172 159.562V160.75H113.508V159.672C113.513 159.172 113.648 158.651 113.914 158.109C114.185 157.562 114.526 157.125 114.938 156.797ZM117.562 156.797L118.531 157.398C118.057 158.091 117.812 158.812 117.797 159.562V160.75H116.133V159.672C116.138 159.172 116.273 158.651 116.539 158.109C116.81 157.562 117.151 157.125 117.562 156.797ZM129.008 169H127.039V163.945H121.953V169H119.977V157.625H121.953V162.359H127.039V157.625H129.008V169ZM134.891 169.156C133.688 169.156 132.711 168.779 131.961 168.023C131.216 167.263 130.844 166.253 130.844 164.992V164.758C130.844 163.914 131.005 163.161 131.328 162.5C131.656 161.833 132.115 161.315 132.703 160.945C133.292 160.576 133.948 160.391 134.672 160.391C135.823 160.391 136.711 160.758 137.336 161.492C137.966 162.227 138.281 163.266 138.281 164.609V165.375H132.758C132.815 166.073 133.047 166.625 133.453 167.031C133.865 167.438 134.38 167.641 135 167.641C135.87 167.641 136.578 167.289 137.125 166.586L138.148 167.562C137.81 168.068 137.357 168.461 136.789 168.742C136.227 169.018 135.594 169.156 134.891 169.156ZM134.664 161.914C134.143 161.914 133.721 162.096 133.398 162.461C133.081 162.826 132.878 163.333 132.789 163.984H136.406V163.844C136.365 163.208 136.195 162.729 135.898 162.406C135.602 162.078 135.19 161.914 134.664 161.914ZM141.781 169H139.883V157H141.781V169ZM145.875 169H143.977V157H145.875V169ZM147.594 164.695C147.594 163.867 147.758 163.122 148.086 162.461C148.414 161.794 148.875 161.284 149.469 160.93C150.062 160.57 150.745 160.391 151.516 160.391C152.656 160.391 153.581 160.758 154.289 161.492C155.003 162.227 155.388 163.201 155.445 164.414L155.453 164.859C155.453 165.693 155.292 166.438 154.969 167.094C154.651 167.75 154.193 168.258 153.594 168.617C153 168.977 152.312 169.156 151.531 169.156C150.339 169.156 149.383 168.76 148.664 167.969C147.951 167.172 147.594 166.112 147.594 164.789V164.695ZM149.492 164.859C149.492 165.729 149.672 166.411 150.031 166.906C150.391 167.396 150.891 167.641 151.531 167.641C152.172 167.641 152.669 167.391 153.023 166.891C153.383 166.391 153.562 165.659 153.562 164.695C153.562 163.841 153.378 163.164 153.008 162.664C152.643 162.164 152.146 161.914 151.516 161.914C150.896 161.914 150.404 162.161 150.039 162.656C149.674 163.146 149.492 163.88 149.492 164.859ZM156.867 161L155.898 160.398C156.367 159.716 156.609 158.995 156.625 158.234V157H158.289V158.078C158.289 158.615 158.151 159.156 157.875 159.703C157.604 160.245 157.268 160.677 156.867 161ZM159.477 161L158.508 160.398C158.977 159.716 159.219 158.995 159.234 158.234V157H160.898V158.078C160.898 158.615 160.76 159.156 160.484 159.703C160.214 160.245 159.878 160.677 159.477 161Z" fill="#5452F6"/>
<g filter="url(#filter6_d)">
<path d="M0 48C0 43.5817 3.58172 40 8 40H221C225.418 40 229 43.5817 229 48V80H0V48Z" fill="white"/>
<path d="M8 40.5H221C225.142 40.5 228.5 43.8579 228.5 48V79.5H0.5V48C0.5 43.8579 3.85786 40.5 8 40.5Z" stroke="#5452F6"/>
</g>
<g filter="url(#filter7_d)">
<path d="M0 79H229V95C229 99.4183 225.418 103 221 103H8.00001C3.58173 103 0 99.4183 0 95V79Z" fill="#EEEEFF"/>
<path d="M0.5 79.5H228.5V95C228.5 99.1421 225.142 102.5 221 102.5H8.00001C3.85787 102.5 0.5 99.1421 0.5 95V79.5Z" stroke="#5452F6"/>
</g>
<path d="M6.51562 60.7734V65H4.53906V53.625H8.89062C10.1615 53.625 11.1693 53.9557 11.9141 54.6172C12.6641 55.2786 13.0391 56.1536 13.0391 57.2422C13.0391 58.3568 12.6719 59.224 11.9375 59.8438C11.2083 60.4635 10.1849 60.7734 8.86719 60.7734H6.51562ZM6.51562 59.1875H8.89062C9.59375 59.1875 10.1302 59.0234 10.5 58.6953C10.8698 58.362 11.0547 57.8828 11.0547 57.2578C11.0547 56.6432 10.8672 56.1536 10.4922 55.7891C10.1172 55.4193 9.60156 55.2292 8.94531 55.2188H6.51562V59.1875ZM19.75 62.3516H15.3438L14.4219 65H12.3672L16.6641 53.625H18.4375L22.7422 65H20.6797L19.75 62.3516ZM15.8984 60.7578H19.1953L17.5469 56.0391L15.8984 60.7578ZM26.125 65H24.1562V53.625H26.125V65ZM32.7344 60.6172H30.5312V65H28.5547V53.625H32.5547C33.8672 53.625 34.8802 53.9193 35.5938 54.5078C36.3073 55.0964 36.6641 55.9479 36.6641 57.0625C36.6641 57.8229 36.4792 58.4609 36.1094 58.9766C35.7448 59.487 35.2344 59.8802 34.5781 60.1562L37.1328 64.8984V65H35.0156L32.7344 60.6172ZM30.5312 59.0312H32.5625C33.2292 59.0312 33.75 58.8646 34.125 58.5312C34.5 58.1927 34.6875 57.7318 34.6875 57.1484C34.6875 56.5391 34.513 56.0677 34.1641 55.7344C33.8203 55.401 33.3047 55.2292 32.6172 55.2188H30.5312V59.0312ZM42.3672 60.375C42.3672 59.1719 42.5286 58.0312 42.8516 56.9531C43.1745 55.8698 43.6484 54.9036 44.2734 54.0547C44.8984 53.2005 45.5599 52.6016 46.2578 52.2578L46.6328 53.3672C45.8984 53.9245 45.3021 54.776 44.8438 55.9219C44.3906 57.0625 44.1432 58.3698 44.1016 59.8438L44.0938 60.5156C44.0938 62.0938 44.3151 63.5026 44.7578 64.7422C45.2057 65.9766 45.8307 66.9167 46.6328 67.5625L46.2578 68.6172C45.5599 68.2734 44.8958 67.6719 44.2656 66.8125C43.6406 65.9583 43.1667 64.9948 42.8438 63.9219C42.526 62.8438 42.3672 61.6615 42.3672 60.375ZM50.0781 63.4219H55.2422V65H48.1016V53.625H50.0781V63.4219ZM63.4062 59.9219H58.7344V63.4219H64.1953V65H56.7578V53.625H64.1406V55.2188H58.7344V58.3594H63.4062V59.9219ZM72.3594 60.1797H67.7812V65H65.8047V53.625H73.0312V55.2188H67.7812V58.6016H72.3594V60.1797ZM82.9766 55.2188H79.4297V65H77.4688V55.2188H73.9531V53.625H82.9766V55.2188ZM92.5469 62.7031C92.5469 62.3646 92.4062 62.1068 92.125 61.9297C91.849 61.7526 91.388 61.5964 90.7422 61.4609C90.0964 61.3255 89.5573 61.1536 89.125 60.9453C88.1771 60.487 87.7031 59.8229 87.7031 58.9531C87.7031 58.224 88.0104 57.6146 88.625 57.125C89.2396 56.6354 90.0208 56.3906 90.9688 56.3906C91.9792 56.3906 92.7943 56.6406 93.4141 57.1406C94.0391 57.6406 94.3516 58.2891 94.3516 59.0859H92.4531C92.4531 58.7214 92.3177 58.4193 92.0469 58.1797C91.776 57.9349 91.4167 57.8125 90.9688 57.8125C90.5521 57.8125 90.2109 57.9089 89.9453 58.1016C89.6849 58.2943 89.5547 58.5521 89.5547 58.875C89.5547 59.1667 89.6771 59.3932 89.9219 59.5547C90.1667 59.7161 90.6615 59.8802 91.4062 60.0469C92.151 60.2083 92.7344 60.4036 93.1562 60.6328C93.5833 60.8568 93.8984 61.1276 94.1016 61.4453C94.3099 61.763 94.4141 62.1484 94.4141 62.6016C94.4141 63.362 94.099 63.9792 93.4688 64.4531C92.8385 64.9219 92.013 65.1562 90.9922 65.1562C90.2995 65.1562 89.6823 65.0312 89.1406 64.7812C88.599 64.5312 88.1771 64.1875 87.875 63.75C87.5729 63.3125 87.4219 62.8411 87.4219 62.3359H89.2656C89.2917 62.7839 89.4609 63.1302 89.7734 63.375C90.0859 63.6146 90.5 63.7344 91.0156 63.7344C91.5156 63.7344 91.8958 63.6406 92.1562 63.4531C92.4167 63.2604 92.5469 63.0104 92.5469 62.7031ZM98.4531 54.4922V56.5469H99.9453V57.9531H98.4531V62.6719C98.4531 62.9948 98.5156 63.2292 98.6406 63.375C98.7708 63.5156 99 63.5859 99.3281 63.5859C99.5469 63.5859 99.7682 63.5599 99.9922 63.5078V64.9766C99.5599 65.0964 99.1432 65.1562 98.7422 65.1562C97.2839 65.1562 96.5547 64.3516 96.5547 62.7422V57.9531H95.1641V56.5469H96.5547V54.4922H98.4531ZM105.828 58.2812C105.578 58.2396 105.32 58.2188 105.055 58.2188C104.185 58.2188 103.599 58.5521 103.297 59.2188V65H101.398V56.5469H103.211L103.258 57.4922C103.716 56.7578 104.352 56.3906 105.164 56.3906C105.435 56.3906 105.659 56.4271 105.836 56.5L105.828 58.2812ZM109.047 65H107.148V56.5469H109.047V65ZM107.031 54.3516C107.031 54.0599 107.122 53.8177 107.305 53.625C107.492 53.4323 107.758 53.3359 108.102 53.3359C108.445 53.3359 108.711 53.4323 108.898 53.625C109.086 53.8177 109.18 54.0599 109.18 54.3516C109.18 54.638 109.086 54.8776 108.898 55.0703C108.711 55.2578 108.445 55.3516 108.102 55.3516C107.758 55.3516 107.492 55.2578 107.305 55.0703C107.122 54.8776 107.031 54.638 107.031 54.3516ZM112.883 56.5469L112.938 57.5234C113.562 56.7682 114.383 56.3906 115.398 56.3906C117.159 56.3906 118.055 57.3984 118.086 59.4141V65H116.188V59.5234C116.188 58.987 116.07 58.5911 115.836 58.3359C115.607 58.0755 115.229 57.9453 114.703 57.9453C113.938 57.9453 113.367 58.2917 112.992 58.9844V65H111.094V56.5469H112.883ZM119.695 60.7109C119.695 59.3984 120.003 58.3516 120.617 57.5703C121.237 56.7839 122.057 56.3906 123.078 56.3906C124.042 56.3906 124.799 56.7266 125.352 57.3984L125.438 56.5469H127.148V64.7422C127.148 65.8516 126.802 66.7266 126.109 67.3672C125.422 68.0078 124.492 68.3281 123.32 68.3281C122.701 68.3281 122.094 68.1979 121.5 67.9375C120.911 67.6823 120.464 67.3464 120.156 66.9297L121.055 65.7891C121.638 66.4818 122.357 66.8281 123.211 66.8281C123.841 66.8281 124.339 66.6562 124.703 66.3125C125.068 65.974 125.25 65.474 125.25 64.8125V64.2422C124.703 64.8516 123.974 65.1562 123.062 65.1562C122.073 65.1562 121.263 64.763 120.633 63.9766C120.008 63.1901 119.695 62.1016 119.695 60.7109ZM121.586 60.875C121.586 61.724 121.758 62.3932 122.102 62.8828C122.451 63.3672 122.932 63.6094 123.547 63.6094C124.312 63.6094 124.88 63.2812 125.25 62.625V58.9062C124.891 58.2656 124.328 57.9453 123.562 57.9453C122.938 57.9453 122.451 58.1927 122.102 58.6875C121.758 59.1823 121.586 59.9115 121.586 60.875ZM134.391 52.7969L135.359 53.3984C134.885 54.0911 134.641 54.8125 134.625 55.5625V56.75H132.961V55.6719C132.966 55.1719 133.102 54.651 133.367 54.1094C133.638 53.5625 133.979 53.125 134.391 52.7969ZM137.016 52.7969L137.984 53.3984C137.51 54.0911 137.266 54.8125 137.25 55.5625V56.75H135.586V55.6719C135.591 55.1719 135.727 54.651 135.992 54.1094C136.263 53.5625 136.604 53.125 137.016 52.7969ZM148.461 65H146.492V59.9453H141.406V65H139.43V53.625H141.406V58.3594H146.492V53.625H148.461V65ZM154.344 65.1562C153.141 65.1562 152.164 64.7786 151.414 64.0234C150.669 63.263 150.297 62.2526 150.297 60.9922V60.7578C150.297 59.9141 150.458 59.1615 150.781 58.5C151.109 57.8333 151.568 57.3151 152.156 56.9453C152.745 56.5755 153.401 56.3906 154.125 56.3906C155.276 56.3906 156.164 56.7578 156.789 57.4922C157.419 58.2266 157.734 59.2656 157.734 60.6094V61.375H152.211C152.268 62.0729 152.5 62.625 152.906 63.0312C153.318 63.4375 153.833 63.6406 154.453 63.6406C155.323 63.6406 156.031 63.2891 156.578 62.5859L157.602 63.5625C157.263 64.0677 156.81 64.4609 156.242 64.7422C155.68 65.0182 155.047 65.1562 154.344 65.1562ZM154.117 57.9141C153.596 57.9141 153.174 58.0964 152.852 58.4609C152.534 58.8255 152.331 59.3333 152.242 59.9844H155.859V59.8438C155.818 59.2083 155.648 58.7292 155.352 58.4062C155.055 58.0781 154.643 57.9141 154.117 57.9141ZM161.234 65H159.336V53H161.234V65ZM165.328 65H163.43V53H165.328V65ZM167.047 60.6953C167.047 59.8672 167.211 59.1224 167.539 58.4609C167.867 57.7943 168.328 57.2839 168.922 56.9297C169.516 56.5703 170.198 56.3906 170.969 56.3906C172.109 56.3906 173.034 56.7578 173.742 57.4922C174.456 58.2266 174.841 59.2005 174.898 60.4141L174.906 60.8594C174.906 61.6927 174.745 62.4375 174.422 63.0938C174.104 63.75 173.646 64.2578 173.047 64.6172C172.453 64.9766 171.766 65.1562 170.984 65.1562C169.792 65.1562 168.836 64.7604 168.117 63.9688C167.404 63.1719 167.047 62.112 167.047 60.7891V60.6953ZM168.945 60.8594C168.945 61.7292 169.125 62.4115 169.484 62.9062C169.844 63.3958 170.344 63.6406 170.984 63.6406C171.625 63.6406 172.122 63.3906 172.477 62.8906C172.836 62.3906 173.016 61.6589 173.016 60.6953C173.016 59.8411 172.831 59.1641 172.461 58.6641C172.096 58.1641 171.599 57.9141 170.969 57.9141C170.349 57.9141 169.857 58.1615 169.492 58.6562C169.128 59.1458 168.945 59.8802 168.945 60.8594ZM176.32 57L175.352 56.3984C175.82 55.7161 176.062 54.9948 176.078 54.2344V53H177.742V54.0781C177.742 54.6146 177.604 55.1562 177.328 55.7031C177.057 56.2448 176.721 56.6771 176.32 57ZM178.93 57L177.961 56.3984C178.43 55.7161 178.672 54.9948 178.688 54.2344V53H180.352V54.0781C180.352 54.6146 180.214 55.1562 179.938 55.7031C179.667 56.2448 179.331 56.6771 178.93 57ZM182.312 67.5625L181.289 66.9531C181.591 66.4792 181.797 66.0651 181.906 65.7109C182.021 65.362 182.081 65.0052 182.086 64.6406V63.1641H183.797L183.789 64.5312C183.784 65.0833 183.643 65.6354 183.367 66.1875C183.096 66.7448 182.745 67.2031 182.312 67.5625ZM191.562 65H189.664V56.5469H191.562V65ZM189.547 54.3516C189.547 54.0599 189.638 53.8177 189.82 53.625C190.008 53.4323 190.273 53.3359 190.617 53.3359C190.961 53.3359 191.227 53.4323 191.414 53.625C191.602 53.8177 191.695 54.0599 191.695 54.3516C191.695 54.638 191.602 54.8776 191.414 55.0703C191.227 55.2578 190.961 55.3516 190.617 55.3516C190.273 55.3516 190.008 55.2578 189.82 55.0703C189.638 54.8776 189.547 54.638 189.547 54.3516ZM195.398 56.5469L195.453 57.5234C196.078 56.7682 196.898 56.3906 197.914 56.3906C199.674 56.3906 200.57 57.3984 200.602 59.4141V65H198.703V59.5234C198.703 58.987 198.586 58.5911 198.352 58.3359C198.122 58.0755 197.745 57.9453 197.219 57.9453C196.453 57.9453 195.883 58.2917 195.508 58.9844V65H193.609V56.5469H195.398ZM204.922 54.4922V56.5469H206.414V57.9531H204.922V62.6719C204.922 62.9948 204.984 63.2292 205.109 63.375C205.24 63.5156 205.469 63.5859 205.797 63.5859C206.016 63.5859 206.237 63.5599 206.461 63.5078V64.9766C206.029 65.0964 205.612 65.1562 205.211 65.1562C203.753 65.1562 203.023 64.3516 203.023 62.7422V57.9531H201.633V56.5469H203.023V54.4922H204.922ZM212.242 59.3594L212.859 53.625H218.969V55.2656H214.438L214.125 57.9844C214.651 57.6823 215.245 57.5312 215.906 57.5312C216.99 57.5312 217.831 57.8776 218.43 58.5703C219.034 59.263 219.336 60.1953 219.336 61.3672C219.336 62.5234 219.003 63.4453 218.336 64.1328C217.669 64.8151 216.755 65.1562 215.594 65.1562C214.552 65.1562 213.688 64.862 213 64.2734C212.318 63.6797 211.948 62.8984 211.891 61.9297H213.727C213.799 62.4818 213.997 62.9062 214.32 63.2031C214.643 63.4948 215.065 63.6406 215.586 63.6406C216.169 63.6406 216.622 63.4323 216.945 63.0156C217.273 62.599 217.438 62.0312 217.438 61.3125C217.438 60.6198 217.258 60.0729 216.898 59.6719C216.539 59.2656 216.044 59.0625 215.414 59.0625C215.07 59.0625 214.779 59.1094 214.539 59.2031C214.299 59.2917 214.039 59.4688 213.758 59.7344L212.242 59.3594ZM224.609 60.5C224.609 61.6562 224.451 62.7734 224.133 63.8516C223.815 64.9245 223.333 65.901 222.688 66.7812C222.042 67.6667 221.367 68.2786 220.664 68.6172L220.289 67.5625C221.07 66.9583 221.688 66.0365 222.141 64.7969C222.599 63.5521 222.828 62.1328 222.828 60.5391V60.3594C222.828 58.9115 222.63 57.5938 222.234 56.4062C221.839 55.2135 221.271 54.2578 220.531 53.5391L220.289 53.3203L220.664 52.2578C221.331 52.5807 221.977 53.1536 222.602 53.9766C223.227 54.7995 223.706 55.7214 224.039 56.7422C224.372 57.7578 224.56 58.8073 224.602 59.8906L224.609 60.5Z" fill="#5452F6"/>
<g filter="url(#filter8_d)">
<path d="M400 8C400 3.58172 403.582 0 408 0H621C625.418 0 629 3.58172 629 8V80H400V8Z" fill="white"/>
<path d="M408 0.5H621C625.142 0.5 628.5 3.85787 628.5 8V79.5H400.5V8C400.5 3.85787 403.858 0.5 408 0.5Z" stroke="#5452F6"/>
</g>
<g filter="url(#filter9_d)">
<path d="M400 79H629V95C629 99.4183 625.418 103 621 103H408C403.582 103 400 99.4183 400 95V79Z" fill="#EEEEFF"/>
<path d="M400.5 79.5H628.5V95C628.5 99.1421 625.142 102.5 621 102.5H408C403.858 102.5 400.5 99.1421 400.5 95V79.5Z" stroke="#5452F6"/>
</g>
<line x1="400.5" y1="39.5" x2="628.5" y2="39.5" stroke="#5452F6"/>
<path d="M501.789 65H499.891V56.5469H501.789V65ZM499.773 54.3516C499.773 54.0599 499.865 53.8177 500.047 53.625C500.234 53.4323 500.5 53.3359 500.844 53.3359C501.188 53.3359 501.453 53.4323 501.641 53.625C501.828 53.8177 501.922 54.0599 501.922 54.3516C501.922 54.638 501.828 54.8776 501.641 55.0703C501.453 55.2578 501.188 55.3516 500.844 55.3516C500.5 55.3516 500.234 55.2578 500.047 55.0703C499.865 54.8776 499.773 54.638 499.773 54.3516ZM505.625 56.5469L505.68 57.5234C506.305 56.7682 507.125 56.3906 508.141 56.3906C509.901 56.3906 510.797 57.3984 510.828 59.4141V65H508.93V59.5234C508.93 58.987 508.812 58.5911 508.578 58.3359C508.349 58.0755 507.971 57.9453 507.445 57.9453C506.68 57.9453 506.109 58.2917 505.734 58.9844V65H503.836V56.5469H505.625ZM515.148 54.4922V56.5469H516.641V57.9531H515.148V62.6719C515.148 62.9948 515.211 63.2292 515.336 63.375C515.466 63.5156 515.695 63.5859 516.023 63.5859C516.242 63.5859 516.464 63.5599 516.688 63.5078V64.9766C516.255 65.0964 515.839 65.1562 515.438 65.1562C513.979 65.1562 513.25 64.3516 513.25 62.7422V57.9531H511.859V56.5469H513.25V54.4922H515.148ZM522.469 59.3594L523.086 53.625H529.195V55.2656H524.664L524.352 57.9844C524.878 57.6823 525.471 57.5312 526.133 57.5312C527.216 57.5312 528.057 57.8776 528.656 58.5703C529.26 59.263 529.562 60.1953 529.562 61.3672C529.562 62.5234 529.229 63.4453 528.562 64.1328C527.896 64.8151 526.982 65.1562 525.82 65.1562C524.779 65.1562 523.914 64.862 523.227 64.2734C522.544 63.6797 522.174 62.8984 522.117 61.9297H523.953C524.026 62.4818 524.224 62.9062 524.547 63.2031C524.87 63.4948 525.292 63.6406 525.812 63.6406C526.396 63.6406 526.849 63.4323 527.172 63.0156C527.5 62.599 527.664 62.0312 527.664 61.3125C527.664 60.6198 527.484 60.0729 527.125 59.6719C526.766 59.2656 526.271 59.0625 525.641 59.0625C525.297 59.0625 525.005 59.1094 524.766 59.2031C524.526 59.2917 524.266 59.4688 523.984 59.7344L522.469 59.3594Z" fill="#5452F6"/>
<path d="M450.57 23.4219H455.734V25H448.594V13.625H450.57V23.4219ZM463.898 19.9219H459.227V23.4219H464.688V25H457.25V13.625H464.633V15.2188H459.227V18.3594H463.898V19.9219ZM472.852 20.1797H468.273V25H466.297V13.625H473.523V15.2188H468.273V18.6016H472.852V20.1797ZM483.469 15.2188H479.922V25H477.961V15.2188H474.445V13.625H483.469V15.2188ZM493.039 22.7031C493.039 22.3646 492.898 22.1068 492.617 21.9297C492.341 21.7526 491.88 21.5964 491.234 21.4609C490.589 21.3255 490.049 21.1536 489.617 20.9453C488.669 20.487 488.195 19.8229 488.195 18.9531C488.195 18.224 488.503 17.6146 489.117 17.125C489.732 16.6354 490.513 16.3906 491.461 16.3906C492.471 16.3906 493.286 16.6406 493.906 17.1406C494.531 17.6406 494.844 18.2891 494.844 19.0859H492.945C492.945 18.7214 492.81 18.4193 492.539 18.1797C492.268 17.9349 491.909 17.8125 491.461 17.8125C491.044 17.8125 490.703 17.9089 490.438 18.1016C490.177 18.2943 490.047 18.5521 490.047 18.875C490.047 19.1667 490.169 19.3932 490.414 19.5547C490.659 19.7161 491.154 19.8802 491.898 20.0469C492.643 20.2083 493.227 20.4036 493.648 20.6328C494.076 20.8568 494.391 21.1276 494.594 21.4453C494.802 21.763 494.906 22.1484 494.906 22.6016C494.906 23.362 494.591 23.9792 493.961 24.4531C493.331 24.9219 492.505 25.1562 491.484 25.1562C490.792 25.1562 490.174 25.0312 489.633 24.7812C489.091 24.5312 488.669 24.1875 488.367 23.75C488.065 23.3125 487.914 22.8411 487.914 22.3359H489.758C489.784 22.7839 489.953 23.1302 490.266 23.375C490.578 23.6146 490.992 23.7344 491.508 23.7344C492.008 23.7344 492.388 23.6406 492.648 23.4531C492.909 23.2604 493.039 23.0104 493.039 22.7031ZM498.945 14.4922V16.5469H500.438V17.9531H498.945V22.6719C498.945 22.9948 499.008 23.2292 499.133 23.375C499.263 23.5156 499.492 23.5859 499.82 23.5859C500.039 23.5859 500.26 23.5599 500.484 23.5078V24.9766C500.052 25.0964 499.635 25.1562 499.234 25.1562C497.776 25.1562 497.047 24.3516 497.047 22.7422V17.9531H495.656V16.5469H497.047V14.4922H498.945ZM506.32 18.2812C506.07 18.2396 505.812 18.2188 505.547 18.2188C504.677 18.2188 504.091 18.5521 503.789 19.2188V25H501.891V16.5469H503.703L503.75 17.4922C504.208 16.7578 504.844 16.3906 505.656 16.3906C505.927 16.3906 506.151 16.4271 506.328 16.5L506.32 18.2812ZM509.539 25H507.641V16.5469H509.539V25ZM507.523 14.3516C507.523 14.0599 507.615 13.8177 507.797 13.625C507.984 13.4323 508.25 13.3359 508.594 13.3359C508.938 13.3359 509.203 13.4323 509.391 13.625C509.578 13.8177 509.672 14.0599 509.672 14.3516C509.672 14.638 509.578 14.8776 509.391 15.0703C509.203 15.2578 508.938 15.3516 508.594 15.3516C508.25 15.3516 507.984 15.2578 507.797 15.0703C507.615 14.8776 507.523 14.638 507.523 14.3516ZM513.375 16.5469L513.43 17.5234C514.055 16.7682 514.875 16.3906 515.891 16.3906C517.651 16.3906 518.547 17.3984 518.578 19.4141V25H516.68V19.5234C516.68 18.987 516.562 18.5911 516.328 18.3359C516.099 18.0755 515.721 17.9453 515.195 17.9453C514.43 17.9453 513.859 18.2917 513.484 18.9844V25H511.586V16.5469H513.375ZM520.188 20.7109C520.188 19.3984 520.495 18.3516 521.109 17.5703C521.729 16.7839 522.549 16.3906 523.57 16.3906C524.534 16.3906 525.292 16.7266 525.844 17.3984L525.93 16.5469H527.641V24.7422C527.641 25.8516 527.294 26.7266 526.602 27.3672C525.914 28.0078 524.984 28.3281 523.812 28.3281C523.193 28.3281 522.586 28.1979 521.992 27.9375C521.404 27.6823 520.956 27.3464 520.648 26.9297L521.547 25.7891C522.13 26.4818 522.849 26.8281 523.703 26.8281C524.333 26.8281 524.831 26.6562 525.195 26.3125C525.56 25.974 525.742 25.474 525.742 24.8125V24.2422C525.195 24.8516 524.466 25.1562 523.555 25.1562C522.565 25.1562 521.755 24.763 521.125 23.9766C520.5 23.1901 520.188 22.1016 520.188 20.7109ZM522.078 20.875C522.078 21.724 522.25 22.3932 522.594 22.8828C522.943 23.3672 523.424 23.6094 524.039 23.6094C524.805 23.6094 525.372 23.2812 525.742 22.625V18.9062C525.383 18.2656 524.82 17.9453 524.055 17.9453C523.43 17.9453 522.943 18.1927 522.594 18.6875C522.25 19.1823 522.078 19.9115 522.078 20.875ZM534.883 12.7969L535.852 13.3984C535.378 14.0911 535.133 14.8125 535.117 15.5625V16.75H533.453V15.6719C533.458 15.1719 533.594 14.651 533.859 14.1094C534.13 13.5625 534.471 13.125 534.883 12.7969ZM537.508 12.7969L538.477 13.3984C538.003 14.0911 537.758 14.8125 537.742 15.5625V16.75H536.078V15.6719C536.083 15.1719 536.219 14.651 536.484 14.1094C536.755 13.5625 537.096 13.125 537.508 12.7969ZM548.953 25H546.984V19.9453H541.898V25H539.922V13.625H541.898V18.3594H546.984V13.625H548.953V25ZM554.836 25.1562C553.633 25.1562 552.656 24.7786 551.906 24.0234C551.161 23.263 550.789 22.2526 550.789 20.9922V20.7578C550.789 19.9141 550.951 19.1615 551.273 18.5C551.602 17.8333 552.06 17.3151 552.648 16.9453C553.237 16.5755 553.893 16.3906 554.617 16.3906C555.768 16.3906 556.656 16.7578 557.281 17.4922C557.911 18.2266 558.227 19.2656 558.227 20.6094V21.375H552.703C552.76 22.0729 552.992 22.625 553.398 23.0312C553.81 23.4375 554.326 23.6406 554.945 23.6406C555.815 23.6406 556.523 23.2891 557.07 22.5859L558.094 23.5625C557.755 24.0677 557.302 24.4609 556.734 24.7422C556.172 25.0182 555.539 25.1562 554.836 25.1562ZM554.609 17.9141C554.089 17.9141 553.667 18.0964 553.344 18.4609C553.026 18.8255 552.823 19.3333 552.734 19.9844H556.352V19.8438C556.31 19.2083 556.141 18.7292 555.844 18.4062C555.547 18.0781 555.135 17.9141 554.609 17.9141ZM561.727 25H559.828V13H561.727V25ZM565.82 25H563.922V13H565.82V25ZM567.539 20.6953C567.539 19.8672 567.703 19.1224 568.031 18.4609C568.359 17.7943 568.82 17.2839 569.414 16.9297C570.008 16.5703 570.69 16.3906 571.461 16.3906C572.602 16.3906 573.526 16.7578 574.234 17.4922C574.948 18.2266 575.333 19.2005 575.391 20.4141L575.398 20.8594C575.398 21.6927 575.237 22.4375 574.914 23.0938C574.596 23.75 574.138 24.2578 573.539 24.6172C572.945 24.9766 572.258 25.1562 571.477 25.1562C570.284 25.1562 569.328 24.7604 568.609 23.9688C567.896 23.1719 567.539 22.112 567.539 20.7891V20.6953ZM569.438 20.8594C569.438 21.7292 569.617 22.4115 569.977 22.9062C570.336 23.3958 570.836 23.6406 571.477 23.6406C572.117 23.6406 572.615 23.3906 572.969 22.8906C573.328 22.3906 573.508 21.6589 573.508 20.6953C573.508 19.8411 573.323 19.1641 572.953 18.6641C572.589 18.1641 572.091 17.9141 571.461 17.9141C570.841 17.9141 570.349 18.1615 569.984 18.6562C569.62 19.1458 569.438 19.8802 569.438 20.8594ZM576.812 17L575.844 16.3984C576.312 15.7161 576.555 14.9948 576.57 14.2344V13H578.234V14.0781C578.234 14.6146 578.096 15.1562 577.82 15.7031C577.549 16.2448 577.214 16.6771 576.812 17ZM579.422 17L578.453 16.3984C578.922 15.7161 579.164 14.9948 579.18 14.2344V13H580.844V14.0781C580.844 14.6146 580.706 15.1562 580.43 15.7031C580.159 16.2448 579.823 16.6771 579.422 17Z" fill="#5452F6"/>
<g filter="url(#filter10_d)">
<path d="M800 196C800 191.582 803.582 188 808 188H1021C1025.42 188 1029 191.582 1029 196V228H800V196Z" fill="white"/>
<path d="M808 188.5H1021C1025.14 188.5 1028.5 191.858 1028.5 196V227.5H800.5V196C800.5 191.858 803.858 188.5 808 188.5Z" stroke="#5452F6"/>
</g>
<g filter="url(#filter11_d)">
<path d="M800 227H1029V243C1029 247.418 1025.42 251 1021 251H808C803.582 251 800 247.418 800 243V227Z" fill="#EEEEFF"/>
<path d="M800.5 227.5H1028.5V243C1028.5 247.142 1025.14 250.5 1021 250.5H808C803.858 250.5 800.5 247.142 800.5 243V227.5Z" stroke="#5452F6"/>
</g>
<path d="M819.227 208.773V213H817.25V201.625H821.602C822.872 201.625 823.88 201.956 824.625 202.617C825.375 203.279 825.75 204.154 825.75 205.242C825.75 206.357 825.383 207.224 824.648 207.844C823.919 208.464 822.896 208.773 821.578 208.773H819.227ZM819.227 207.188H821.602C822.305 207.188 822.841 207.023 823.211 206.695C823.581 206.362 823.766 205.883 823.766 205.258C823.766 204.643 823.578 204.154 823.203 203.789C822.828 203.419 822.312 203.229 821.656 203.219H819.227V207.188ZM832.461 210.352H828.055L827.133 213H825.078L829.375 201.625H831.148L835.453 213H833.391L832.461 210.352ZM828.609 208.758H831.906L830.258 204.039L828.609 208.758ZM838.836 213H836.867V201.625H838.836V213ZM845.445 208.617H843.242V213H841.266V201.625H845.266C846.578 201.625 847.591 201.919 848.305 202.508C849.018 203.096 849.375 203.948 849.375 205.062C849.375 205.823 849.19 206.461 848.82 206.977C848.456 207.487 847.945 207.88 847.289 208.156L849.844 212.898V213H847.727L845.445 208.617ZM843.242 207.031H845.273C845.94 207.031 846.461 206.865 846.836 206.531C847.211 206.193 847.398 205.732 847.398 205.148C847.398 204.539 847.224 204.068 846.875 203.734C846.531 203.401 846.016 203.229 845.328 203.219H843.242V207.031ZM855.078 208.375C855.078 207.172 855.24 206.031 855.562 204.953C855.885 203.87 856.359 202.904 856.984 202.055C857.609 201.201 858.271 200.602 858.969 200.258L859.344 201.367C858.609 201.924 858.013 202.776 857.555 203.922C857.102 205.062 856.854 206.37 856.812 207.844L856.805 208.516C856.805 210.094 857.026 211.503 857.469 212.742C857.917 213.977 858.542 214.917 859.344 215.562L858.969 216.617C858.271 216.273 857.607 215.672 856.977 214.812C856.352 213.958 855.878 212.995 855.555 211.922C855.237 210.844 855.078 209.661 855.078 208.375ZM862.648 213H860.75V201H862.648V213ZM866.742 213H864.844V204.547H866.742V213ZM864.727 202.352C864.727 202.06 864.818 201.818 865 201.625C865.188 201.432 865.453 201.336 865.797 201.336C866.141 201.336 866.406 201.432 866.594 201.625C866.781 201.818 866.875 202.06 866.875 202.352C866.875 202.638 866.781 202.878 866.594 203.07C866.406 203.258 866.141 203.352 865.797 203.352C865.453 203.352 865.188 203.258 865 203.07C864.818 202.878 864.727 202.638 864.727 202.352ZM873.555 210.703C873.555 210.365 873.414 210.107 873.133 209.93C872.857 209.753 872.396 209.596 871.75 209.461C871.104 209.326 870.565 209.154 870.133 208.945C869.185 208.487 868.711 207.823 868.711 206.953C868.711 206.224 869.018 205.615 869.633 205.125C870.247 204.635 871.029 204.391 871.977 204.391C872.987 204.391 873.802 204.641 874.422 205.141C875.047 205.641 875.359 206.289 875.359 207.086H873.461C873.461 206.721 873.326 206.419 873.055 206.18C872.784 205.935 872.424 205.812 871.977 205.812C871.56 205.812 871.219 205.909 870.953 206.102C870.693 206.294 870.562 206.552 870.562 206.875C870.562 207.167 870.685 207.393 870.93 207.555C871.174 207.716 871.669 207.88 872.414 208.047C873.159 208.208 873.742 208.404 874.164 208.633C874.591 208.857 874.906 209.128 875.109 209.445C875.318 209.763 875.422 210.148 875.422 210.602C875.422 211.362 875.107 211.979 874.477 212.453C873.846 212.922 873.021 213.156 872 213.156C871.307 213.156 870.69 213.031 870.148 212.781C869.607 212.531 869.185 212.188 868.883 211.75C868.581 211.312 868.43 210.841 868.43 210.336H870.273C870.299 210.784 870.469 211.13 870.781 211.375C871.094 211.615 871.508 211.734 872.023 211.734C872.523 211.734 872.904 211.641 873.164 211.453C873.424 211.26 873.555 211.01 873.555 210.703ZM879.461 202.492V204.547H880.953V205.953H879.461V210.672C879.461 210.995 879.523 211.229 879.648 211.375C879.779 211.516 880.008 211.586 880.336 211.586C880.555 211.586 880.776 211.56 881 211.508V212.977C880.568 213.096 880.151 213.156 879.75 213.156C878.292 213.156 877.562 212.352 877.562 210.742V205.953H876.172V204.547H877.562V202.492H879.461ZM886.039 208.695C886.039 207.867 886.203 207.122 886.531 206.461C886.859 205.794 887.32 205.284 887.914 204.93C888.508 204.57 889.19 204.391 889.961 204.391C891.102 204.391 892.026 204.758 892.734 205.492C893.448 206.227 893.833 207.201 893.891 208.414L893.898 208.859C893.898 209.693 893.737 210.438 893.414 211.094C893.096 211.75 892.638 212.258 892.039 212.617C891.445 212.977 890.758 213.156 889.977 213.156C888.784 213.156 887.828 212.76 887.109 211.969C886.396 211.172 886.039 210.112 886.039 208.789V208.695ZM887.938 208.859C887.938 209.729 888.117 210.411 888.477 210.906C888.836 211.396 889.336 211.641 889.977 211.641C890.617 211.641 891.115 211.391 891.469 210.891C891.828 210.391 892.008 209.659 892.008 208.695C892.008 207.841 891.823 207.164 891.453 206.664C891.089 206.164 890.591 205.914 889.961 205.914C889.341 205.914 888.849 206.161 888.484 206.656C888.12 207.146 887.938 207.88 887.938 208.859ZM902.906 208.859C902.906 210.167 902.609 211.211 902.016 211.992C901.422 212.768 900.625 213.156 899.625 213.156C898.698 213.156 897.956 212.852 897.398 212.242V216.25H895.5V204.547H897.25L897.328 205.406C897.885 204.729 898.643 204.391 899.602 204.391C900.633 204.391 901.44 204.776 902.023 205.547C902.612 206.312 902.906 207.378 902.906 208.742V208.859ZM901.016 208.695C901.016 207.852 900.846 207.182 900.508 206.688C900.174 206.193 899.695 205.945 899.07 205.945C898.294 205.945 897.737 206.266 897.398 206.906V210.656C897.742 211.312 898.305 211.641 899.086 211.641C899.69 211.641 900.161 211.398 900.5 210.914C900.844 210.424 901.016 209.685 901.016 208.695ZM908.242 213.156C907.039 213.156 906.062 212.779 905.312 212.023C904.568 211.263 904.195 210.253 904.195 208.992V208.758C904.195 207.914 904.357 207.161 904.68 206.5C905.008 205.833 905.466 205.315 906.055 204.945C906.643 204.576 907.299 204.391 908.023 204.391C909.174 204.391 910.062 204.758 910.688 205.492C911.318 206.227 911.633 207.266 911.633 208.609V209.375H906.109C906.167 210.073 906.398 210.625 906.805 211.031C907.216 211.438 907.732 211.641 908.352 211.641C909.221 211.641 909.93 211.289 910.477 210.586L911.5 211.562C911.161 212.068 910.708 212.461 910.141 212.742C909.578 213.018 908.945 213.156 908.242 213.156ZM908.016 205.914C907.495 205.914 907.073 206.096 906.75 206.461C906.432 206.826 906.229 207.333 906.141 207.984H909.758V207.844C909.716 207.208 909.547 206.729 909.25 206.406C908.953 206.078 908.542 205.914 908.016 205.914ZM917.539 206.281C917.289 206.24 917.031 206.219 916.766 206.219C915.896 206.219 915.31 206.552 915.008 207.219V213H913.109V204.547H914.922L914.969 205.492C915.427 204.758 916.062 204.391 916.875 204.391C917.146 204.391 917.37 204.427 917.547 204.5L917.539 206.281ZM923.555 213C923.471 212.839 923.398 212.576 923.336 212.211C922.732 212.841 921.992 213.156 921.117 213.156C920.268 213.156 919.576 212.914 919.039 212.43C918.503 211.945 918.234 211.346 918.234 210.633C918.234 209.732 918.568 209.042 919.234 208.562C919.906 208.078 920.865 207.836 922.109 207.836H923.273V207.281C923.273 206.844 923.151 206.495 922.906 206.234C922.661 205.969 922.289 205.836 921.789 205.836C921.357 205.836 921.003 205.945 920.727 206.164C920.451 206.378 920.312 206.651 920.312 206.984H918.414C918.414 206.521 918.568 206.089 918.875 205.688C919.182 205.281 919.599 204.964 920.125 204.734C920.656 204.505 921.247 204.391 921.898 204.391C922.888 204.391 923.677 204.641 924.266 205.141C924.854 205.635 925.156 206.333 925.172 207.234V211.047C925.172 211.807 925.279 212.414 925.492 212.867V213H923.555ZM921.469 211.633C921.844 211.633 922.195 211.542 922.523 211.359C922.857 211.177 923.107 210.932 923.273 210.625V209.031H922.25C921.547 209.031 921.018 209.154 920.664 209.398C920.31 209.643 920.133 209.99 920.133 210.438C920.133 210.802 920.253 211.094 920.492 211.312C920.737 211.526 921.062 211.633 921.469 211.633ZM929.539 202.492V204.547H931.031V205.953H929.539V210.672C929.539 210.995 929.602 211.229 929.727 211.375C929.857 211.516 930.086 211.586 930.414 211.586C930.633 211.586 930.854 211.56 931.078 211.508V212.977C930.646 213.096 930.229 213.156 929.828 213.156C928.37 213.156 927.641 212.352 927.641 210.742V205.953H926.25V204.547H927.641V202.492H929.539ZM934.508 213H932.609V204.547H934.508V213ZM932.492 202.352C932.492 202.06 932.583 201.818 932.766 201.625C932.953 201.432 933.219 201.336 933.562 201.336C933.906 201.336 934.172 201.432 934.359 201.625C934.547 201.818 934.641 202.06 934.641 202.352C934.641 202.638 934.547 202.878 934.359 203.07C934.172 203.258 933.906 203.352 933.562 203.352C933.219 203.352 932.953 203.258 932.766 203.07C932.583 202.878 932.492 202.638 932.492 202.352ZM936.227 208.695C936.227 207.867 936.391 207.122 936.719 206.461C937.047 205.794 937.508 205.284 938.102 204.93C938.695 204.57 939.378 204.391 940.148 204.391C941.289 204.391 942.214 204.758 942.922 205.492C943.635 206.227 944.021 207.201 944.078 208.414L944.086 208.859C944.086 209.693 943.924 210.438 943.602 211.094C943.284 211.75 942.826 212.258 942.227 212.617C941.633 212.977 940.945 213.156 940.164 213.156C938.971 213.156 938.016 212.76 937.297 211.969C936.583 211.172 936.227 210.112 936.227 208.789V208.695ZM938.125 208.859C938.125 209.729 938.305 210.411 938.664 210.906C939.023 211.396 939.523 211.641 940.164 211.641C940.805 211.641 941.302 211.391 941.656 210.891C942.016 210.391 942.195 209.659 942.195 208.695C942.195 207.841 942.01 207.164 941.641 206.664C941.276 206.164 940.779 205.914 940.148 205.914C939.529 205.914 939.036 206.161 938.672 206.656C938.307 207.146 938.125 207.88 938.125 208.859ZM947.453 204.547L947.508 205.523C948.133 204.768 948.953 204.391 949.969 204.391C951.729 204.391 952.625 205.398 952.656 207.414V213H950.758V207.523C950.758 206.987 950.641 206.591 950.406 206.336C950.177 206.076 949.799 205.945 949.273 205.945C948.508 205.945 947.938 206.292 947.562 206.984V213H945.664V204.547H947.453ZM962.367 215.812C960.529 215.297 959.591 214.122 959.555 212.289V210.625C959.555 209.453 959.052 208.867 958.047 208.867V207.477C959.052 207.477 959.555 206.888 959.555 205.711V204.055C959.57 203.117 959.812 202.359 960.281 201.781C960.755 201.203 961.451 200.784 962.367 200.523L962.742 201.617C961.841 201.909 961.375 202.706 961.344 204.008V205.695C961.344 206.867 960.893 207.69 959.992 208.164C960.893 208.643 961.344 209.474 961.344 210.656V212.32C961.375 213.622 961.841 214.419 962.742 214.711L962.367 215.812ZM963.195 214.711C964.112 214.414 964.581 213.602 964.602 212.273V210.648C964.602 209.445 965.076 208.62 966.023 208.172C965.076 207.724 964.602 206.891 964.602 205.672V204.055C964.581 202.727 964.112 201.914 963.195 201.617L963.57 200.523C964.518 200.789 965.224 201.221 965.688 201.82C966.151 202.414 966.383 203.193 966.383 204.156V205.719C966.383 206.891 966.888 207.477 967.898 207.477V208.867C966.888 208.867 966.383 209.453 966.383 210.625V212.164C966.383 213.138 966.148 213.922 965.68 214.516C965.216 215.115 964.513 215.547 963.57 215.812L963.195 214.711ZM969.602 215.562L968.578 214.953C968.88 214.479 969.086 214.065 969.195 213.711C969.31 213.362 969.37 213.005 969.375 212.641V211.164H971.086L971.078 212.531C971.073 213.083 970.932 213.635 970.656 214.188C970.385 214.745 970.034 215.203 969.602 215.562ZM978.852 213H976.953V204.547H978.852V213ZM976.836 202.352C976.836 202.06 976.927 201.818 977.109 201.625C977.297 201.432 977.562 201.336 977.906 201.336C978.25 201.336 978.516 201.432 978.703 201.625C978.891 201.818 978.984 202.06 978.984 202.352C978.984 202.638 978.891 202.878 978.703 203.07C978.516 203.258 978.25 203.352 977.906 203.352C977.562 203.352 977.297 203.258 977.109 203.07C976.927 202.878 976.836 202.638 976.836 202.352ZM982.688 204.547L982.742 205.523C983.367 204.768 984.188 204.391 985.203 204.391C986.964 204.391 987.859 205.398 987.891 207.414V213H985.992V207.523C985.992 206.987 985.875 206.591 985.641 206.336C985.411 206.076 985.034 205.945 984.508 205.945C983.742 205.945 983.172 206.292 982.797 206.984V213H980.898V204.547H982.688ZM992.211 202.492V204.547H993.703V205.953H992.211V210.672C992.211 210.995 992.273 211.229 992.398 211.375C992.529 211.516 992.758 211.586 993.086 211.586C993.305 211.586 993.526 211.56 993.75 211.508V212.977C993.318 213.096 992.901 213.156 992.5 213.156C991.042 213.156 990.312 212.352 990.312 210.742V205.953H988.922V204.547H990.312V202.492H992.211ZM999.531 207.359L1000.15 201.625H1006.26V203.266H1001.73L1001.41 205.984C1001.94 205.682 1002.53 205.531 1003.2 205.531C1004.28 205.531 1005.12 205.878 1005.72 206.57C1006.32 207.263 1006.62 208.195 1006.62 209.367C1006.62 210.523 1006.29 211.445 1005.62 212.133C1004.96 212.815 1004.04 213.156 1002.88 213.156C1001.84 213.156 1000.98 212.862 1000.29 212.273C999.607 211.68 999.237 210.898 999.18 209.93H1001.02C1001.09 210.482 1001.29 210.906 1001.61 211.203C1001.93 211.495 1002.35 211.641 1002.88 211.641C1003.46 211.641 1003.91 211.432 1004.23 211.016C1004.56 210.599 1004.73 210.031 1004.73 209.312C1004.73 208.62 1004.55 208.073 1004.19 207.672C1003.83 207.266 1003.33 207.062 1002.7 207.062C1002.36 207.062 1002.07 207.109 1001.83 207.203C1001.59 207.292 1001.33 207.469 1001.05 207.734L999.531 207.359ZM1011.9 208.5C1011.9 209.656 1011.74 210.773 1011.42 211.852C1011.1 212.924 1010.62 213.901 1009.98 214.781C1009.33 215.667 1008.66 216.279 1007.95 216.617L1007.58 215.562C1008.36 214.958 1008.98 214.036 1009.43 212.797C1009.89 211.552 1010.12 210.133 1010.12 208.539V208.359C1010.12 206.911 1009.92 205.594 1009.52 204.406C1009.13 203.214 1008.56 202.258 1007.82 201.539L1007.58 201.32L1007.95 200.258C1008.62 200.581 1009.27 201.154 1009.89 201.977C1010.52 202.799 1010.99 203.721 1011.33 204.742C1011.66 205.758 1011.85 206.807 1011.89 207.891L1011.9 208.5Z" fill="#5452F6"/>
<line x1="255" y1="80.5" x2="389" y2="80.5" stroke="#65BF73" stroke-width="2"/>
<path d="M379 71L389.5 80.5L379 89.5" stroke="#65BF73" stroke-width="2" stroke-linecap="round" stroke-linejoin="round"/>
<circle cx="250.5" cy="81" r="5.5" stroke="#65BF73" stroke-width="2"/>
<path d="M273.266 56V44.625H276.625C277.63 44.625 278.521 44.849 279.297 45.2969C280.078 45.7448 280.682 46.3802 281.109 47.2031C281.536 48.026 281.75 48.9688 281.75 50.0312V50.6016C281.75 51.6797 281.534 52.6276 281.102 53.4453C280.674 54.263 280.062 54.8932 279.266 55.3359C278.474 55.7786 277.565 56 276.539 56H273.266ZM275.242 46.2188V54.4219H276.531C277.568 54.4219 278.362 54.099 278.914 53.4531C279.471 52.8021 279.755 51.8698 279.766 50.6562V50.0234C279.766 48.7891 279.497 47.8464 278.961 47.1953C278.424 46.5443 277.646 46.2188 276.625 46.2188H275.242ZM292.039 44.625V52.2266C292.039 53.4349 291.651 54.3932 290.875 55.1016C290.104 55.8047 289.076 56.1562 287.789 56.1562C286.487 56.1562 285.453 55.8099 284.688 55.1172C283.922 54.4193 283.539 53.4531 283.539 52.2188V44.625H285.508V52.2344C285.508 52.9948 285.701 53.5755 286.086 53.9766C286.471 54.3776 287.039 54.5781 287.789 54.5781C289.31 54.5781 290.07 53.776 290.07 52.1719V44.625H292.039ZM296.133 51.7734V56H294.156V44.625H298.508C299.779 44.625 300.786 44.9557 301.531 45.6172C302.281 46.2786 302.656 47.1536 302.656 48.2422C302.656 49.3568 302.289 50.224 301.555 50.8438C300.826 51.4635 299.802 51.7734 298.484 51.7734H296.133ZM296.133 50.1875H298.508C299.211 50.1875 299.747 50.0234 300.117 49.6953C300.487 49.362 300.672 48.8828 300.672 48.2578C300.672 47.6432 300.484 47.1536 300.109 46.7891C299.734 46.4193 299.219 46.2292 298.562 46.2188H296.133V50.1875ZM309.172 47.3672C309.526 47.3672 309.799 47.4688 309.992 47.6719C310.185 47.8698 310.281 48.1198 310.281 48.4219C310.281 48.7188 310.185 48.9661 309.992 49.1641C309.799 49.3568 309.526 49.4531 309.172 49.4531C308.833 49.4531 308.565 49.3568 308.367 49.1641C308.169 48.9714 308.07 48.724 308.07 48.4219C308.07 48.1198 308.167 47.8698 308.359 47.6719C308.552 47.4688 308.823 47.3672 309.172 47.3672ZM308.602 58.5625L307.578 57.9531C307.88 57.4792 308.086 57.0651 308.195 56.7109C308.31 56.362 308.37 56.0052 308.375 55.6406V54.1641H310.086L310.078 55.5312C310.073 56.0833 309.932 56.6354 309.656 57.1875C309.385 57.7448 309.034 58.2031 308.602 58.5625ZM324.852 52.2969C324.737 53.5104 324.289 54.4583 323.508 55.1406C322.727 55.8177 321.688 56.1562 320.391 56.1562C319.484 56.1562 318.685 55.9427 317.992 55.5156C317.305 55.0833 316.773 54.4714 316.398 53.6797C316.023 52.888 315.828 51.9688 315.812 50.9219V49.8594C315.812 48.7865 316.003 47.8411 316.383 47.0234C316.763 46.2057 317.307 45.5755 318.016 45.1328C318.729 44.6901 319.552 44.4688 320.484 44.4688C321.74 44.4688 322.75 44.8099 323.516 45.4922C324.281 46.1745 324.727 47.138 324.852 48.3828H322.883C322.789 47.5651 322.549 46.9766 322.164 46.6172C321.784 46.2526 321.224 46.0703 320.484 46.0703C319.625 46.0703 318.964 46.3854 318.5 47.0156C318.042 47.6406 317.807 48.5599 317.797 49.7734V50.7812C317.797 52.0104 318.016 52.9479 318.453 53.5938C318.896 54.2396 319.542 54.5625 320.391 54.5625C321.167 54.5625 321.75 54.388 322.141 54.0391C322.531 53.6901 322.779 53.1094 322.883 52.2969H324.852ZM332.992 53.3516H328.586L327.664 56H325.609L329.906 44.625H331.68L335.984 56H333.922L332.992 53.3516ZM329.141 51.7578H332.438L330.789 47.0391L329.141 51.7578ZM341.461 51.6172H339.258V56H337.281V44.625H341.281C342.594 44.625 343.607 44.9193 344.32 45.5078C345.034 46.0964 345.391 46.9479 345.391 48.0625C345.391 48.8229 345.206 49.4609 344.836 49.9766C344.471 50.487 343.961 50.8802 343.305 51.1562L345.859 55.8984V56H343.742L341.461 51.6172ZM339.258 50.0312H341.289C341.956 50.0312 342.477 49.8646 342.852 49.5312C343.227 49.1927 343.414 48.7318 343.414 48.1484C343.414 47.5391 343.24 47.0677 342.891 46.7344C342.547 46.401 342.031 46.2292 341.344 46.2188H339.258V50.0312ZM352.047 47.3672C352.401 47.3672 352.674 47.4688 352.867 47.6719C353.06 47.8698 353.156 48.1198 353.156 48.4219C353.156 48.7188 353.06 48.9661 352.867 49.1641C352.674 49.3568 352.401 49.4531 352.047 49.4531C351.708 49.4531 351.44 49.3568 351.242 49.1641C351.044 48.9714 350.945 48.724 350.945 48.4219C350.945 48.1198 351.042 47.8698 351.234 47.6719C351.427 47.4688 351.698 47.3672 352.047 47.3672ZM351.477 58.5625L350.453 57.9531C350.755 57.4792 350.961 57.0651 351.07 56.7109C351.185 56.362 351.245 56.0052 351.25 55.6406V54.1641H352.961L352.953 55.5312C352.948 56.0833 352.807 56.6354 352.531 57.1875C352.26 57.7448 351.909 58.2031 351.477 58.5625ZM276.758 75V63.625H280.117C281.122 63.625 282.013 63.849 282.789 64.2969C283.57 64.7448 284.174 65.3802 284.602 66.2031C285.029 67.026 285.242 67.9688 285.242 69.0312V69.6016C285.242 70.6797 285.026 71.6276 284.594 72.4453C284.167 73.263 283.555 73.8932 282.758 74.3359C281.966 74.7786 281.057 75 280.031 75H276.758ZM278.734 65.2188V73.4219H280.023C281.06 73.4219 281.854 73.099 282.406 72.4531C282.964 71.8021 283.247 70.8698 283.258 69.6562V69.0234C283.258 67.7891 282.99 66.8464 282.453 66.1953C281.917 65.5443 281.138 65.2188 280.117 65.2188H278.734ZM289.297 75H287.328V63.625H289.297V75ZM293.703 70.7734V75H291.727V63.625H296.078C297.349 63.625 298.357 63.9557 299.102 64.6172C299.852 65.2786 300.227 66.1536 300.227 67.2422C300.227 68.3568 299.859 69.224 299.125 69.8438C298.396 70.4635 297.372 70.7734 296.055 70.7734H293.703ZM293.703 69.1875H296.078C296.781 69.1875 297.318 69.0234 297.688 68.6953C298.057 68.362 298.242 67.8828 298.242 67.2578C298.242 66.6432 298.055 66.1536 297.68 65.7891C297.305 65.4193 296.789 65.2292 296.133 65.2188H293.703V69.1875ZM309.547 77.8125C307.708 77.2969 306.771 76.1224 306.734 74.2891V72.625C306.734 71.4531 306.232 70.8672 305.227 70.8672V69.4766C306.232 69.4766 306.734 68.888 306.734 67.7109V66.0547C306.75 65.1172 306.992 64.3594 307.461 63.7812C307.935 63.2031 308.63 62.7839 309.547 62.5234L309.922 63.6172C309.021 63.9089 308.555 64.7057 308.523 66.0078V67.6953C308.523 68.8672 308.073 69.6901 307.172 70.1641C308.073 70.6432 308.523 71.474 308.523 72.6562V74.3203C308.555 75.6224 309.021 76.4193 309.922 76.7109L309.547 77.8125ZM323.984 71.2969C323.87 72.5104 323.422 73.4583 322.641 74.1406C321.859 74.8177 320.82 75.1562 319.523 75.1562C318.617 75.1562 317.818 74.9427 317.125 74.5156C316.438 74.0833 315.906 73.4714 315.531 72.6797C315.156 71.888 314.961 70.9688 314.945 69.9219V68.8594C314.945 67.7865 315.135 66.8411 315.516 66.0234C315.896 65.2057 316.44 64.5755 317.148 64.1328C317.862 63.6901 318.685 63.4688 319.617 63.4688C320.872 63.4688 321.883 63.8099 322.648 64.4922C323.414 65.1745 323.859 66.138 323.984 67.3828H322.016C321.922 66.5651 321.682 65.9766 321.297 65.6172C320.917 65.2526 320.357 65.0703 319.617 65.0703C318.758 65.0703 318.096 65.3854 317.633 66.0156C317.174 66.6406 316.94 67.5599 316.93 68.7734V69.7812C316.93 71.0104 317.148 71.9479 317.586 72.5938C318.029 73.2396 318.674 73.5625 319.523 73.5625C320.299 73.5625 320.883 73.388 321.273 73.0391C321.664 72.6901 321.911 72.1094 322.016 71.2969H323.984ZM325.758 75V63.625H329.117C330.122 63.625 331.013 63.849 331.789 64.2969C332.57 64.7448 333.174 65.3802 333.602 66.2031C334.029 67.026 334.242 67.9688 334.242 69.0312V69.6016C334.242 70.6797 334.026 71.6276 333.594 72.4453C333.167 73.263 332.555 73.8932 331.758 74.3359C330.966 74.7786 330.057 75 329.031 75H325.758ZM327.734 65.2188V73.4219H329.023C330.06 73.4219 330.854 73.099 331.406 72.4531C331.964 71.8021 332.247 70.8698 332.258 69.6562V69.0234C332.258 67.7891 331.99 66.8464 331.453 66.1953C330.917 65.5443 330.138 65.2188 329.117 65.2188H327.734ZM340.391 70.6172H338.188V75H336.211V63.625H340.211C341.523 63.625 342.536 63.9193 343.25 64.5078C343.964 65.0964 344.32 65.9479 344.32 67.0625C344.32 67.8229 344.135 68.4609 343.766 68.9766C343.401 69.487 342.891 69.8802 342.234 70.1562L344.789 74.8984V75H342.672L340.391 70.6172ZM338.188 69.0312H340.219C340.885 69.0312 341.406 68.8646 341.781 68.5312C342.156 68.1927 342.344 67.7318 342.344 67.1484C342.344 66.5391 342.169 66.0677 341.82 65.7344C341.477 65.401 340.961 65.2292 340.273 65.2188H338.188V69.0312ZM349.234 76.7109C350.151 76.4141 350.62 75.6016 350.641 74.2734V72.6484C350.641 71.4453 351.115 70.6198 352.062 70.1719C351.115 69.724 350.641 68.8906 350.641 67.6719V66.0547C350.62 64.7266 350.151 63.9141 349.234 63.6172L349.609 62.5234C350.557 62.7891 351.263 63.2214 351.727 63.8203C352.19 64.4141 352.422 65.1927 352.422 66.1562V67.7188C352.422 68.8906 352.927 69.4766 353.938 69.4766V70.8672C352.927 70.8672 352.422 71.4531 352.422 72.625V74.1641C352.422 75.138 352.188 75.9219 351.719 76.5156C351.255 77.1146 350.552 77.5469 349.609 77.8125L349.234 76.7109Z" fill="#65BF73"/>
<line x1="657" y1="80.5" x2="791" y2="80.5" stroke="#65BF73" stroke-width="2"/>
<path d="M781 71L791.5 80.5L781 89.5" stroke="#65BF73" stroke-width="2" stroke-linecap="round" stroke-linejoin="round"/>
<circle cx="652.5" cy="81" r="5.5" stroke="#65BF73" stroke-width="2"/>
<path d="M692.289 66H690.32V54.625H692.289V66ZM701.273 61.1797H696.695V66H694.719V54.625H701.945V56.2188H696.695V59.6016H701.273V61.1797ZM709.547 67.4922H702.383V66H709.547V67.4922ZM712.711 64.4219H717.875V66H710.734V54.625H712.711V64.4219ZM726.039 60.9219H721.367V64.4219H726.828V66H719.391V54.625H726.773V56.2188H721.367V59.3594H726.039V60.9219ZM734.992 61.1797H730.414V66H728.438V54.625H735.664V56.2188H730.414V59.6016H734.992V61.1797ZM745.609 56.2188H742.062V66H740.102V56.2188H736.586V54.625H745.609V56.2188Z" fill="#65BF73"/>
<line x1="657" y1="225.5" x2="791" y2="225.5" stroke="#65BF73" stroke-width="2"/>
<path d="M781 216L791.5 225.5L781 234.5" stroke="#65BF73" stroke-width="2" stroke-linecap="round" stroke-linejoin="round"/>
<circle cx="652.5" cy="226" r="5.5" stroke="#65BF73" stroke-width="2"/>
<path d="M675.422 201H673.445L668.375 192.93V201H666.398V189.625H668.375L673.461 197.727V189.625H675.422V201ZM679.844 201H677.875V189.625H679.844V201ZM684.25 199.422H689.414V201H682.273V189.625H684.25V199.422ZM694.375 196.695C694.375 195.867 694.539 195.122 694.867 194.461C695.195 193.794 695.656 193.284 696.25 192.93C696.844 192.57 697.526 192.391 698.297 192.391C699.438 192.391 700.362 192.758 701.07 193.492C701.784 194.227 702.169 195.201 702.227 196.414L702.234 196.859C702.234 197.693 702.073 198.438 701.75 199.094C701.432 199.75 700.974 200.258 700.375 200.617C699.781 200.977 699.094 201.156 698.312 201.156C697.12 201.156 696.164 200.76 695.445 199.969C694.732 199.172 694.375 198.112 694.375 196.789V196.695ZM696.273 196.859C696.273 197.729 696.453 198.411 696.812 198.906C697.172 199.396 697.672 199.641 698.312 199.641C698.953 199.641 699.451 199.391 699.805 198.891C700.164 198.391 700.344 197.659 700.344 196.695C700.344 195.841 700.159 195.164 699.789 194.664C699.424 194.164 698.927 193.914 698.297 193.914C697.677 193.914 697.185 194.161 696.82 194.656C696.456 195.146 696.273 195.88 696.273 196.859ZM711.242 196.859C711.242 198.167 710.945 199.211 710.352 199.992C709.758 200.768 708.961 201.156 707.961 201.156C707.034 201.156 706.292 200.852 705.734 200.242V204.25H703.836V192.547H705.586L705.664 193.406C706.221 192.729 706.979 192.391 707.938 192.391C708.969 192.391 709.776 192.776 710.359 193.547C710.948 194.312 711.242 195.378 711.242 196.742V196.859ZM709.352 196.695C709.352 195.852 709.182 195.182 708.844 194.688C708.51 194.193 708.031 193.945 707.406 193.945C706.63 193.945 706.073 194.266 705.734 194.906V198.656C706.078 199.312 706.641 199.641 707.422 199.641C708.026 199.641 708.497 199.398 708.836 198.914C709.18 198.424 709.352 197.685 709.352 196.695ZM716.578 201.156C715.375 201.156 714.398 200.779 713.648 200.023C712.904 199.263 712.531 198.253 712.531 196.992V196.758C712.531 195.914 712.693 195.161 713.016 194.5C713.344 193.833 713.802 193.315 714.391 192.945C714.979 192.576 715.635 192.391 716.359 192.391C717.51 192.391 718.398 192.758 719.023 193.492C719.654 194.227 719.969 195.266 719.969 196.609V197.375H714.445C714.503 198.073 714.734 198.625 715.141 199.031C715.552 199.438 716.068 199.641 716.688 199.641C717.557 199.641 718.266 199.289 718.812 198.586L719.836 199.562C719.497 200.068 719.044 200.461 718.477 200.742C717.914 201.018 717.281 201.156 716.578 201.156ZM716.352 193.914C715.831 193.914 715.409 194.096 715.086 194.461C714.768 194.826 714.565 195.333 714.477 195.984H718.094V195.844C718.052 195.208 717.883 194.729 717.586 194.406C717.289 194.078 716.878 193.914 716.352 193.914ZM725.875 194.281C725.625 194.24 725.367 194.219 725.102 194.219C724.232 194.219 723.646 194.552 723.344 195.219V201H721.445V192.547H723.258L723.305 193.492C723.763 192.758 724.398 192.391 725.211 192.391C725.482 192.391 725.706 192.427 725.883 192.5L725.875 194.281ZM731.891 201C731.807 200.839 731.734 200.576 731.672 200.211C731.068 200.841 730.328 201.156 729.453 201.156C728.604 201.156 727.911 200.914 727.375 200.43C726.839 199.945 726.57 199.346 726.57 198.633C726.57 197.732 726.904 197.042 727.57 196.562C728.242 196.078 729.201 195.836 730.445 195.836H731.609V195.281C731.609 194.844 731.487 194.495 731.242 194.234C730.997 193.969 730.625 193.836 730.125 193.836C729.693 193.836 729.339 193.945 729.062 194.164C728.786 194.378 728.648 194.651 728.648 194.984H726.75C726.75 194.521 726.904 194.089 727.211 193.688C727.518 193.281 727.935 192.964 728.461 192.734C728.992 192.505 729.583 192.391 730.234 192.391C731.224 192.391 732.013 192.641 732.602 193.141C733.19 193.635 733.492 194.333 733.508 195.234V199.047C733.508 199.807 733.615 200.414 733.828 200.867V201H731.891ZM729.805 199.633C730.18 199.633 730.531 199.542 730.859 199.359C731.193 199.177 731.443 198.932 731.609 198.625V197.031H730.586C729.883 197.031 729.354 197.154 729 197.398C728.646 197.643 728.469 197.99 728.469 198.438C728.469 198.802 728.589 199.094 728.828 199.312C729.073 199.526 729.398 199.633 729.805 199.633ZM737.875 190.492V192.547H739.367V193.953H737.875V198.672C737.875 198.995 737.938 199.229 738.062 199.375C738.193 199.516 738.422 199.586 738.75 199.586C738.969 199.586 739.19 199.56 739.414 199.508V200.977C738.982 201.096 738.565 201.156 738.164 201.156C736.706 201.156 735.977 200.352 735.977 198.742V193.953H734.586V192.547H735.977V190.492H737.875ZM742.844 201H740.945V192.547H742.844V201ZM740.828 190.352C740.828 190.06 740.919 189.818 741.102 189.625C741.289 189.432 741.555 189.336 741.898 189.336C742.242 189.336 742.508 189.432 742.695 189.625C742.883 189.818 742.977 190.06 742.977 190.352C742.977 190.638 742.883 190.878 742.695 191.07C742.508 191.258 742.242 191.352 741.898 191.352C741.555 191.352 741.289 191.258 741.102 191.07C740.919 190.878 740.828 190.638 740.828 190.352ZM744.562 196.695C744.562 195.867 744.727 195.122 745.055 194.461C745.383 193.794 745.844 193.284 746.438 192.93C747.031 192.57 747.714 192.391 748.484 192.391C749.625 192.391 750.549 192.758 751.258 193.492C751.971 194.227 752.357 195.201 752.414 196.414L752.422 196.859C752.422 197.693 752.26 198.438 751.938 199.094C751.62 199.75 751.161 200.258 750.562 200.617C749.969 200.977 749.281 201.156 748.5 201.156C747.307 201.156 746.352 200.76 745.633 199.969C744.919 199.172 744.562 198.112 744.562 196.789V196.695ZM746.461 196.859C746.461 197.729 746.641 198.411 747 198.906C747.359 199.396 747.859 199.641 748.5 199.641C749.141 199.641 749.638 199.391 749.992 198.891C750.352 198.391 750.531 197.659 750.531 196.695C750.531 195.841 750.346 195.164 749.977 194.664C749.612 194.164 749.115 193.914 748.484 193.914C747.865 193.914 747.372 194.161 747.008 194.656C746.643 195.146 746.461 195.88 746.461 196.859ZM755.789 192.547L755.844 193.523C756.469 192.768 757.289 192.391 758.305 192.391C760.065 192.391 760.961 193.398 760.992 195.414V201H759.094V195.523C759.094 194.987 758.977 194.591 758.742 194.336C758.513 194.076 758.135 193.945 757.609 193.945C756.844 193.945 756.273 194.292 755.898 194.984V201H754V192.547H755.789ZM767.898 192.367C768.253 192.367 768.526 192.469 768.719 192.672C768.911 192.87 769.008 193.12 769.008 193.422C769.008 193.719 768.911 193.966 768.719 194.164C768.526 194.357 768.253 194.453 767.898 194.453C767.56 194.453 767.292 194.357 767.094 194.164C766.896 193.971 766.797 193.724 766.797 193.422C766.797 193.12 766.893 192.87 767.086 192.672C767.279 192.469 767.549 192.367 767.898 192.367ZM767.328 203.562L766.305 202.953C766.607 202.479 766.812 202.065 766.922 201.711C767.036 201.362 767.096 201.005 767.102 200.641V199.164H768.812L768.805 200.531C768.799 201.083 768.659 201.635 768.383 202.188C768.112 202.745 767.76 203.203 767.328 203.562ZM703.633 215.773V220H701.656V208.625H706.008C707.279 208.625 708.286 208.956 709.031 209.617C709.781 210.279 710.156 211.154 710.156 212.242C710.156 213.357 709.789 214.224 709.055 214.844C708.326 215.464 707.302 215.773 705.984 215.773H703.633ZM703.633 214.188H706.008C706.711 214.188 707.247 214.023 707.617 213.695C707.987 213.362 708.172 212.883 708.172 212.258C708.172 211.643 707.984 211.154 707.609 210.789C707.234 210.419 706.719 210.229 706.062 210.219H703.633V214.188ZM716.867 217.352H712.461L711.539 220H709.484L713.781 208.625H715.555L719.859 220H717.797L716.867 217.352ZM713.016 215.758H716.312L714.664 211.039L713.016 215.758ZM723.242 220H721.273V208.625H723.242V220ZM729.852 215.617H727.648V220H725.672V208.625H729.672C730.984 208.625 731.997 208.919 732.711 209.508C733.424 210.096 733.781 210.948 733.781 212.062C733.781 212.823 733.596 213.461 733.227 213.977C732.862 214.487 732.352 214.88 731.695 215.156L734.25 219.898V220H732.133L729.852 215.617ZM727.648 214.031H729.68C730.346 214.031 730.867 213.865 731.242 213.531C731.617 213.193 731.805 212.732 731.805 212.148C731.805 211.539 731.63 211.068 731.281 210.734C730.938 210.401 730.422 210.229 729.734 210.219H727.648V214.031Z" fill="#65BF73"/>
<line x1="254" y1="224.5" x2="388" y2="224.5" stroke="#65BF73" stroke-width="2"/>
<path d="M378 215L388.5 224.5L378 233.5" stroke="#65BF73" stroke-width="2" stroke-linecap="round" stroke-linejoin="round"/>
<circle cx="249.5" cy="225" r="5.5" stroke="#65BF73" stroke-width="2"/>
<path d="M294.297 210V198.625H297.656C298.661 198.625 299.552 198.849 300.328 199.297C301.109 199.745 301.714 200.38 302.141 201.203C302.568 202.026 302.781 202.969 302.781 204.031V204.602C302.781 205.68 302.565 206.628 302.133 207.445C301.706 208.263 301.094 208.893 300.297 209.336C299.505 209.779 298.596 210 297.57 210H294.297ZM296.273 200.219V208.422H297.562C298.599 208.422 299.393 208.099 299.945 207.453C300.503 206.802 300.786 205.87 300.797 204.656V204.023C300.797 202.789 300.529 201.846 299.992 201.195C299.456 200.544 298.677 200.219 297.656 200.219H296.273ZM308.93 205.617H306.727V210H304.75V198.625H308.75C310.062 198.625 311.076 198.919 311.789 199.508C312.503 200.096 312.859 200.948 312.859 202.062C312.859 202.823 312.674 203.461 312.305 203.977C311.94 204.487 311.43 204.88 310.773 205.156L313.328 209.898V210H311.211L308.93 205.617ZM306.727 204.031H308.758C309.424 204.031 309.945 203.865 310.32 203.531C310.695 203.193 310.883 202.732 310.883 202.148C310.883 201.539 310.708 201.068 310.359 200.734C310.016 200.401 309.5 200.229 308.812 200.219H306.727V204.031ZM323.812 204.609C323.812 205.724 323.62 206.703 323.234 207.547C322.849 208.385 322.297 209.031 321.578 209.484C320.865 209.932 320.042 210.156 319.109 210.156C318.188 210.156 317.365 209.932 316.641 209.484C315.922 209.031 315.365 208.388 314.969 207.555C314.578 206.721 314.38 205.76 314.375 204.672V204.031C314.375 202.922 314.57 201.943 314.961 201.094C315.357 200.245 315.911 199.596 316.625 199.148C317.344 198.695 318.167 198.469 319.094 198.469C320.021 198.469 320.841 198.693 321.555 199.141C322.273 199.583 322.828 200.224 323.219 201.062C323.609 201.896 323.807 202.867 323.812 203.977V204.609ZM321.836 204.016C321.836 202.755 321.596 201.789 321.117 201.117C320.643 200.445 319.969 200.109 319.094 200.109C318.24 200.109 317.57 200.445 317.086 201.117C316.607 201.784 316.362 202.729 316.352 203.953V204.609C316.352 205.859 316.594 206.826 317.078 207.508C317.568 208.19 318.245 208.531 319.109 208.531C319.984 208.531 320.656 208.198 321.125 207.531C321.599 206.865 321.836 205.891 321.836 204.609V204.016ZM327.758 205.773V210H325.781V198.625H330.133C331.404 198.625 332.411 198.956 333.156 199.617C333.906 200.279 334.281 201.154 334.281 202.242C334.281 203.357 333.914 204.224 333.18 204.844C332.451 205.464 331.427 205.773 330.109 205.773H327.758ZM327.758 204.188H330.133C330.836 204.188 331.372 204.023 331.742 203.695C332.112 203.362 332.297 202.883 332.297 202.258C332.297 201.643 332.109 201.154 331.734 200.789C331.359 200.419 330.844 200.229 330.188 200.219H327.758V204.188Z" fill="#65BF73"/>
<defs>
<filter id="filter0_d" x="400" y="184" width="233" height="44" filterUnits="userSpaceOnUse" color-interpolation-filters="sRGB">
<feFlood flood-opacity="0" result="BackgroundImageFix"/>
<feColorMatrix in="SourceAlpha" type="matrix" values="0 0 0 0 0 0 0 0 0 0 0 0 0 0 0 0 0 0 127 0"/>
<feOffset dx="4" dy="4"/>
<feColorMatrix type="matrix" values="0 0 0 0 0.674908 0 0 0 0 0.662083 0 0 0 0 0.945833 0 0 0 1 0"/>
<feBlend mode="normal" in2="BackgroundImageFix" result="effect1_dropShadow"/>
<feBlend mode="normal" in="SourceGraphic" in2="effect1_dropShadow" result="shape"/>
</filter>
<filter id="filter1_d" x="400" y="223" width="233" height="28" filterUnits="userSpaceOnUse" color-interpolation-filters="sRGB">
<feFlood flood-opacity="0" result="BackgroundImageFix"/>
<feColorMatrix in="SourceAlpha" type="matrix" values="0 0 0 0 0 0 0 0 0 0 0 0 0 0 0 0 0 0 127 0"/>
<feOffset dx="4" dy="4"/>
<feColorMatrix type="matrix" values="0 0 0 0 0.674908 0 0 0 0 0.662083 0 0 0 0 0.945833 0 0 0 1 0"/>
<feBlend mode="normal" in2="BackgroundImageFix" result="effect1_dropShadow"/>
<feBlend mode="normal" in="SourceGraphic" in2="effect1_dropShadow" result="shape"/>
</filter>
<filter id="filter2_d" x="800" y="7" width="233" height="84" filterUnits="userSpaceOnUse" color-interpolation-filters="sRGB">
<feFlood flood-opacity="0" result="BackgroundImageFix"/>
<feColorMatrix in="SourceAlpha" type="matrix" values="0 0 0 0 0 0 0 0 0 0 0 0 0 0 0 0 0 0 127 0"/>
<feOffset dx="4" dy="4"/>
<feColorMatrix type="matrix" values="0 0 0 0 0.674908 0 0 0 0 0.662083 0 0 0 0 0.945833 0 0 0 1 0"/>
<feBlend mode="normal" in2="BackgroundImageFix" result="effect1_dropShadow"/>
<feBlend mode="normal" in="SourceGraphic" in2="effect1_dropShadow" result="shape"/>
</filter>
<filter id="filter3_d" x="800" y="86" width="233" height="28" filterUnits="userSpaceOnUse" color-interpolation-filters="sRGB">
<feFlood flood-opacity="0" result="BackgroundImageFix"/>
<feColorMatrix in="SourceAlpha" type="matrix" values="0 0 0 0 0 0 0 0 0 0 0 0 0 0 0 0 0 0 127 0"/>
<feOffset dx="4" dy="4"/>
<feColorMatrix type="matrix" values="0 0 0 0 0.674908 0 0 0 0 0.662083 0 0 0 0 0.945833 0 0 0 1 0"/>
<feBlend mode="normal" in2="BackgroundImageFix" result="effect1_dropShadow"/>
<feBlend mode="normal" in="SourceGraphic" in2="effect1_dropShadow" result="shape"/>
</filter>
<filter id="filter4_d" x="0" y="144" width="233" height="84" filterUnits="userSpaceOnUse" color-interpolation-filters="sRGB">
<feFlood flood-opacity="0" result="BackgroundImageFix"/>
<feColorMatrix in="SourceAlpha" type="matrix" values="0 0 0 0 0 0 0 0 0 0 0 0 0 0 0 0 0 0 127 0"/>
<feOffset dx="4" dy="4"/>
<feColorMatrix type="matrix" values="0 0 0 0 0.674908 0 0 0 0 0.662083 0 0 0 0 0.945833 0 0 0 1 0"/>
<feBlend mode="normal" in2="BackgroundImageFix" result="effect1_dropShadow"/>
<feBlend mode="normal" in="SourceGraphic" in2="effect1_dropShadow" result="shape"/>
</filter>
<filter id="filter5_d" x="0" y="223" width="233" height="28" filterUnits="userSpaceOnUse" color-interpolation-filters="sRGB">
<feFlood flood-opacity="0" result="BackgroundImageFix"/>
<feColorMatrix in="SourceAlpha" type="matrix" values="0 0 0 0 0 0 0 0 0 0 0 0 0 0 0 0 0 0 127 0"/>
<feOffset dx="4" dy="4"/>
<feColorMatrix type="matrix" values="0 0 0 0 0.674908 0 0 0 0 0.662083 0 0 0 0 0.945833 0 0 0 1 0"/>
<feBlend mode="normal" in2="BackgroundImageFix" result="effect1_dropShadow"/>
<feBlend mode="normal" in="SourceGraphic" in2="effect1_dropShadow" result="shape"/>
</filter>
<filter id="filter6_d" x="0" y="40" width="233" height="44" filterUnits="userSpaceOnUse" color-interpolation-filters="sRGB">
<feFlood flood-opacity="0" result="BackgroundImageFix"/>
<feColorMatrix in="SourceAlpha" type="matrix" values="0 0 0 0 0 0 0 0 0 0 0 0 0 0 0 0 0 0 127 0"/>
<feOffset dx="4" dy="4"/>
<feColorMatrix type="matrix" values="0 0 0 0 0.674908 0 0 0 0 0.662083 0 0 0 0 0.945833 0 0 0 1 0"/>
<feBlend mode="normal" in2="BackgroundImageFix" result="effect1_dropShadow"/>
<feBlend mode="normal" in="SourceGraphic" in2="effect1_dropShadow" result="shape"/>
</filter>
<filter id="filter7_d" x="0" y="79" width="233" height="28" filterUnits="userSpaceOnUse" color-interpolation-filters="sRGB">
<feFlood flood-opacity="0" result="BackgroundImageFix"/>
<feColorMatrix in="SourceAlpha" type="matrix" values="0 0 0 0 0 0 0 0 0 0 0 0 0 0 0 0 0 0 127 0"/>
<feOffset dx="4" dy="4"/>
<feColorMatrix type="matrix" values="0 0 0 0 0.674908 0 0 0 0 0.662083 0 0 0 0 0.945833 0 0 0 1 0"/>
<feBlend mode="normal" in2="BackgroundImageFix" result="effect1_dropShadow"/>
<feBlend mode="normal" in="SourceGraphic" in2="effect1_dropShadow" result="shape"/>
</filter>
<filter id="filter8_d" x="400" y="0" width="233" height="84" filterUnits="userSpaceOnUse" color-interpolation-filters="sRGB">
<feFlood flood-opacity="0" result="BackgroundImageFix"/>
<feColorMatrix in="SourceAlpha" type="matrix" values="0 0 0 0 0 0 0 0 0 0 0 0 0 0 0 0 0 0 127 0"/>
<feOffset dx="4" dy="4"/>
<feColorMatrix type="matrix" values="0 0 0 0 0.674908 0 0 0 0 0.662083 0 0 0 0 0.945833 0 0 0 1 0"/>
<feBlend mode="normal" in2="BackgroundImageFix" result="effect1_dropShadow"/>
<feBlend mode="normal" in="SourceGraphic" in2="effect1_dropShadow" result="shape"/>
</filter>
<filter id="filter9_d" x="400" y="79" width="233" height="28" filterUnits="userSpaceOnUse" color-interpolation-filters="sRGB">
<feFlood flood-opacity="0" result="BackgroundImageFix"/>
<feColorMatrix in="SourceAlpha" type="matrix" values="0 0 0 0 0 0 0 0 0 0 0 0 0 0 0 0 0 0 127 0"/>
<feOffset dx="4" dy="4"/>
<feColorMatrix type="matrix" values="0 0 0 0 0.674908 0 0 0 0 0.662083 0 0 0 0 0.945833 0 0 0 1 0"/>
<feBlend mode="normal" in2="BackgroundImageFix" result="effect1_dropShadow"/>
<feBlend mode="normal" in="SourceGraphic" in2="effect1_dropShadow" result="shape"/>
</filter>
<filter id="filter10_d" x="800" y="188" width="233" height="44" filterUnits="userSpaceOnUse" color-interpolation-filters="sRGB">
<feFlood flood-opacity="0" result="BackgroundImageFix"/>
<feColorMatrix in="SourceAlpha" type="matrix" values="0 0 0 0 0 0 0 0 0 0 0 0 0 0 0 0 0 0 127 0"/>
<feOffset dx="4" dy="4"/>
<feColorMatrix type="matrix" values="0 0 0 0 0.674908 0 0 0 0 0.662083 0 0 0 0 0.945833 0 0 0 1 0"/>
<feBlend mode="normal" in2="BackgroundImageFix" result="effect1_dropShadow"/>
<feBlend mode="normal" in="SourceGraphic" in2="effect1_dropShadow" result="shape"/>
</filter>
<filter id="filter11_d" x="800" y="227" width="233" height="28" filterUnits="userSpaceOnUse" color-interpolation-filters="sRGB">
<feFlood flood-opacity="0" result="BackgroundImageFix"/>
<feColorMatrix in="SourceAlpha" type="matrix" values="0 0 0 0 0 0 0 0 0 0 0 0 0 0 0 0 0 0 127 0"/>
<feOffset dx="4" dy="4"/>
<feColorMatrix type="matrix" values="0 0 0 0 0.674908 0 0 0 0 0.662083 0 0 0 0 0.945833 0 0 0 1 0"/>
<feBlend mode="normal" in2="BackgroundImageFix" result="effect1_dropShadow"/>
<feBlend mode="normal" in="SourceGraphic" in2="effect1_dropShadow" result="shape"/>
</filter>
</defs>
</svg>
