<svg width="633" height="147" viewBox="0 0 633 147" fill="none" xmlns="http://www.w3.org/2000/svg">
<line x1="255" y1="120.5" x2="389" y2="120.5" stroke="#65BF73" stroke-width="2"/>
<path d="M379 111L389.5 120.5L379 129.5" stroke="#65BF73" stroke-width="2" stroke-linecap="round" stroke-linejoin="round"/>
<circle cx="250.5" cy="121" r="5.5" stroke="#65BF73" stroke-width="2"/>
<path d="M294.758 94.625V102.227C294.758 103.435 294.37 104.393 293.594 105.102C292.823 105.805 291.794 106.156 290.508 106.156C289.206 106.156 288.172 105.81 287.406 105.117C286.641 104.419 286.258 103.453 286.258 102.219V94.625H288.227V102.234C288.227 102.995 288.419 103.576 288.805 103.977C289.19 104.378 289.758 104.578 290.508 104.578C292.029 104.578 292.789 103.776 292.789 102.172V94.625H294.758ZM298.852 101.773V106H296.875V94.625H301.227C302.497 94.625 303.505 94.9557 304.25 95.6172C305 96.2786 305.375 97.1536 305.375 98.2422C305.375 99.3568 305.008 100.224 304.273 100.844C303.544 101.464 302.521 101.773 301.203 101.773H298.852ZM298.852 100.188H301.227C301.93 100.188 302.466 100.023 302.836 99.6953C303.206 99.362 303.391 98.8828 303.391 98.2578C303.391 97.6432 303.203 97.1536 302.828 96.7891C302.453 96.4193 301.938 96.2292 301.281 96.2188H298.852V100.188ZM307.109 106V94.625H310.469C311.474 94.625 312.365 94.849 313.141 95.2969C313.922 95.7448 314.526 96.3802 314.953 97.2031C315.38 98.026 315.594 98.9688 315.594 100.031V100.602C315.594 101.68 315.378 102.628 314.945 103.445C314.518 104.263 313.906 104.893 313.109 105.336C312.318 105.779 311.409 106 310.383 106H307.109ZM309.086 96.2188V104.422H310.375C311.411 104.422 312.206 104.099 312.758 103.453C313.315 102.802 313.599 101.87 313.609 100.656V100.023C313.609 98.7891 313.341 97.8464 312.805 97.1953C312.268 96.5443 311.49 96.2188 310.469 96.2188H309.086ZM323.758 103.352H319.352L318.43 106H316.375L320.672 94.625H322.445L326.75 106H324.688L323.758 103.352ZM319.906 101.758H323.203L321.555 97.0391L319.906 101.758ZM335.328 96.2188H331.781V106H329.82V96.2188H326.305V94.625H335.328V96.2188ZM343.477 100.922H338.805V104.422H344.266V106H336.828V94.625H344.211V96.2188H338.805V99.3594H343.477V100.922Z" fill="#65BF73"/>
<g filter="url(#filter0_d)">
<path d="M400 87C400 82.5817 403.582 79 408 79H621C625.418 79 629 82.5817 629 87V120H400V87Z" fill="white"/>
<path d="M400.5 87C400.5 82.8579 403.858 79.5 408 79.5H621C625.142 79.5 628.5 82.8579 628.5 87V119.5H400.5V87Z" stroke="#5452F6"/>
</g>
<g filter="url(#filter1_d)">
<path d="M400 119H629V135C629 139.418 625.418 143 621 143H408C403.582 143 400 139.418 400 135V119Z" fill="#EEEEFF"/>
<path d="M400.5 119.5H628.5V135C628.5 139.142 625.142 142.5 621 142.5H408C403.858 142.5 400.5 139.142 400.5 135V119.5Z" stroke="#5452F6"/>
</g>
<path d="M458.305 97.5469L458.359 98.4297C458.953 97.737 459.766 97.3906 460.797 97.3906C461.927 97.3906 462.701 97.8229 463.117 98.6875C463.732 97.8229 464.596 97.3906 465.711 97.3906C466.643 97.3906 467.336 97.6484 467.789 98.1641C468.247 98.6797 468.482 99.4401 468.492 100.445V106H466.594V100.5C466.594 99.9635 466.477 99.5703 466.242 99.3203C466.008 99.0703 465.62 98.9453 465.078 98.9453C464.646 98.9453 464.292 99.0625 464.016 99.2969C463.745 99.526 463.555 99.8281 463.445 100.203L463.453 106H461.555V100.438C461.529 99.4427 461.021 98.9453 460.031 98.9453C459.271 98.9453 458.732 99.2552 458.414 99.875V106H456.516V97.5469H458.305ZM475.492 106C475.409 105.839 475.336 105.576 475.273 105.211C474.669 105.841 473.93 106.156 473.055 106.156C472.206 106.156 471.513 105.914 470.977 105.43C470.44 104.945 470.172 104.346 470.172 103.633C470.172 102.732 470.505 102.042 471.172 101.562C471.844 101.078 472.802 100.836 474.047 100.836H475.211V100.281C475.211 99.8438 475.089 99.4948 474.844 99.2344C474.599 98.9688 474.227 98.8359 473.727 98.8359C473.294 98.8359 472.94 98.9453 472.664 99.1641C472.388 99.3776 472.25 99.651 472.25 99.9844H470.352C470.352 99.5208 470.505 99.0885 470.812 98.6875C471.12 98.2812 471.536 97.9635 472.062 97.7344C472.594 97.5052 473.185 97.3906 473.836 97.3906C474.826 97.3906 475.615 97.6406 476.203 98.1406C476.792 98.6354 477.094 99.3333 477.109 100.234V104.047C477.109 104.807 477.216 105.414 477.43 105.867V106H475.492ZM473.406 104.633C473.781 104.633 474.133 104.542 474.461 104.359C474.794 104.177 475.044 103.932 475.211 103.625V102.031H474.188C473.484 102.031 472.956 102.154 472.602 102.398C472.247 102.643 472.07 102.99 472.07 103.438C472.07 103.802 472.19 104.094 472.43 104.312C472.674 104.526 473 104.633 473.406 104.633ZM486.5 101.859C486.5 103.167 486.203 104.211 485.609 104.992C485.016 105.768 484.219 106.156 483.219 106.156C482.292 106.156 481.549 105.852 480.992 105.242V109.25H479.094V97.5469H480.844L480.922 98.4062C481.479 97.7292 482.237 97.3906 483.195 97.3906C484.227 97.3906 485.034 97.776 485.617 98.5469C486.206 99.3125 486.5 100.378 486.5 101.742V101.859ZM484.609 101.695C484.609 100.852 484.44 100.182 484.102 99.6875C483.768 99.1927 483.289 98.9453 482.664 98.9453C481.888 98.9453 481.331 99.2656 480.992 99.9062V103.656C481.336 104.312 481.898 104.641 482.68 104.641C483.284 104.641 483.755 104.398 484.094 103.914C484.438 103.424 484.609 102.685 484.609 101.695ZM496.836 103.703C496.836 103.365 496.695 103.107 496.414 102.93C496.138 102.753 495.677 102.596 495.031 102.461C494.385 102.326 493.846 102.154 493.414 101.945C492.466 101.487 491.992 100.823 491.992 99.9531C491.992 99.224 492.299 98.6146 492.914 98.125C493.529 97.6354 494.31 97.3906 495.258 97.3906C496.268 97.3906 497.083 97.6406 497.703 98.1406C498.328 98.6406 498.641 99.2891 498.641 100.086H496.742C496.742 99.7214 496.607 99.4193 496.336 99.1797C496.065 98.9349 495.706 98.8125 495.258 98.8125C494.841 98.8125 494.5 98.9089 494.234 99.1016C493.974 99.2943 493.844 99.5521 493.844 99.875C493.844 100.167 493.966 100.393 494.211 100.555C494.456 100.716 494.951 100.88 495.695 101.047C496.44 101.208 497.023 101.404 497.445 101.633C497.872 101.857 498.188 102.128 498.391 102.445C498.599 102.763 498.703 103.148 498.703 103.602C498.703 104.362 498.388 104.979 497.758 105.453C497.128 105.922 496.302 106.156 495.281 106.156C494.589 106.156 493.971 106.031 493.43 105.781C492.888 105.531 492.466 105.188 492.164 104.75C491.862 104.312 491.711 103.841 491.711 103.336H493.555C493.581 103.784 493.75 104.13 494.062 104.375C494.375 104.615 494.789 104.734 495.305 104.734C495.805 104.734 496.185 104.641 496.445 104.453C496.706 104.26 496.836 104.01 496.836 103.703ZM502.742 95.4922V97.5469H504.234V98.9531H502.742V103.672C502.742 103.995 502.805 104.229 502.93 104.375C503.06 104.516 503.289 104.586 503.617 104.586C503.836 104.586 504.057 104.56 504.281 104.508V105.977C503.849 106.096 503.432 106.156 503.031 106.156C501.573 106.156 500.844 105.352 500.844 103.742V98.9531H499.453V97.5469H500.844V95.4922H502.742ZM510.117 99.2812C509.867 99.2396 509.609 99.2188 509.344 99.2188C508.474 99.2188 507.888 99.5521 507.586 100.219V106H505.688V97.5469H507.5L507.547 98.4922C508.005 97.7578 508.641 97.3906 509.453 97.3906C509.724 97.3906 509.948 97.4271 510.125 97.5L510.117 99.2812ZM513.336 106H511.438V97.5469H513.336V106ZM511.32 95.3516C511.32 95.0599 511.411 94.8177 511.594 94.625C511.781 94.4323 512.047 94.3359 512.391 94.3359C512.734 94.3359 513 94.4323 513.188 94.625C513.375 94.8177 513.469 95.0599 513.469 95.3516C513.469 95.638 513.375 95.8776 513.188 96.0703C513 96.2578 512.734 96.3516 512.391 96.3516C512.047 96.3516 511.781 96.2578 511.594 96.0703C511.411 95.8776 511.32 95.638 511.32 95.3516ZM517.172 97.5469L517.227 98.5234C517.852 97.7682 518.672 97.3906 519.688 97.3906C521.448 97.3906 522.344 98.3984 522.375 100.414V106H520.477V100.523C520.477 99.987 520.359 99.5911 520.125 99.3359C519.896 99.0755 519.518 98.9453 518.992 98.9453C518.227 98.9453 517.656 99.2917 517.281 99.9844V106H515.383V97.5469H517.172ZM523.984 101.711C523.984 100.398 524.292 99.3516 524.906 98.5703C525.526 97.7839 526.346 97.3906 527.367 97.3906C528.331 97.3906 529.089 97.7266 529.641 98.3984L529.727 97.5469H531.438V105.742C531.438 106.852 531.091 107.727 530.398 108.367C529.711 109.008 528.781 109.328 527.609 109.328C526.99 109.328 526.383 109.198 525.789 108.938C525.201 108.682 524.753 108.346 524.445 107.93L525.344 106.789C525.927 107.482 526.646 107.828 527.5 107.828C528.13 107.828 528.628 107.656 528.992 107.312C529.357 106.974 529.539 106.474 529.539 105.812V105.242C528.992 105.852 528.263 106.156 527.352 106.156C526.362 106.156 525.552 105.763 524.922 104.977C524.297 104.19 523.984 103.102 523.984 101.711ZM525.875 101.875C525.875 102.724 526.047 103.393 526.391 103.883C526.74 104.367 527.221 104.609 527.836 104.609C528.602 104.609 529.169 104.281 529.539 103.625V99.9062C529.18 99.2656 528.617 98.9453 527.852 98.9453C527.227 98.9453 526.74 99.1927 526.391 99.6875C526.047 100.182 525.875 100.911 525.875 101.875ZM539.398 106H537.5V97.5469H539.398V106ZM537.383 95.3516C537.383 95.0599 537.474 94.8177 537.656 94.625C537.844 94.4323 538.109 94.3359 538.453 94.3359C538.797 94.3359 539.062 94.4323 539.25 94.625C539.438 94.8177 539.531 95.0599 539.531 95.3516C539.531 95.638 539.438 95.8776 539.25 96.0703C539.062 96.2578 538.797 96.3516 538.453 96.3516C538.109 96.3516 537.844 96.2578 537.656 96.0703C537.474 95.8776 537.383 95.638 537.383 95.3516ZM543.234 97.5469L543.289 98.5234C543.914 97.7682 544.734 97.3906 545.75 97.3906C547.51 97.3906 548.406 98.3984 548.438 100.414V106H546.539V100.523C546.539 99.987 546.422 99.5911 546.188 99.3359C545.958 99.0755 545.581 98.9453 545.055 98.9453C544.289 98.9453 543.719 99.2917 543.344 99.9844V106H541.445V97.5469H543.234ZM552.758 95.4922V97.5469H554.25V98.9531H552.758V103.672C552.758 103.995 552.82 104.229 552.945 104.375C553.076 104.516 553.305 104.586 553.633 104.586C553.852 104.586 554.073 104.56 554.297 104.508V105.977C553.865 106.096 553.448 106.156 553.047 106.156C551.589 106.156 550.859 105.352 550.859 103.742V98.9531H549.469V97.5469H550.859V95.4922H552.758ZM563.477 108.812C561.638 108.297 560.701 107.122 560.664 105.289V103.625C560.664 102.453 560.161 101.867 559.156 101.867V100.477C560.161 100.477 560.664 99.888 560.664 98.7109V97.0547C560.68 96.1172 560.922 95.3594 561.391 94.7812C561.865 94.2031 562.56 93.7839 563.477 93.5234L563.852 94.6172C562.951 94.9089 562.484 95.7057 562.453 97.0078V98.6953C562.453 99.8672 562.003 100.69 561.102 101.164C562.003 101.643 562.453 102.474 562.453 103.656V105.32C562.484 106.622 562.951 107.419 563.852 107.711L563.477 108.812ZM568.289 107.711C569.206 107.414 569.674 106.602 569.695 105.273V103.648C569.695 102.445 570.169 101.62 571.117 101.172C570.169 100.724 569.695 99.8906 569.695 98.6719V97.0547C569.674 95.7266 569.206 94.9141 568.289 94.6172L568.664 93.5234C569.612 93.7891 570.318 94.2214 570.781 94.8203C571.245 95.4141 571.477 96.1927 571.477 97.1562V98.7188C571.477 99.8906 571.982 100.477 572.992 100.477V101.867C571.982 101.867 571.477 102.453 571.477 103.625V105.164C571.477 106.138 571.242 106.922 570.773 107.516C570.31 108.115 569.607 108.547 568.664 108.812L568.289 107.711Z" fill="#5452F6"/>
<g filter="url(#filter2_d)">
<path d="M400 87C400 82.5817 403.582 79 408 79H621C625.418 79 629 82.5817 629 87V120H400V87Z" fill="white"/>
<path d="M400.5 87C400.5 82.8579 403.858 79.5 408 79.5H621C625.142 79.5 628.5 82.8579 628.5 87V119.5H400.5V87Z" stroke="#5452F6"/>
</g>
<g filter="url(#filter3_d)">
<path d="M400 119H629V135C629 139.418 625.418 143 621 143H408C403.582 143 400 139.418 400 135V119Z" fill="#EEEEFF"/>
<path d="M400.5 119.5H628.5V135C628.5 139.142 625.142 142.5 621 142.5H408C403.858 142.5 400.5 139.142 400.5 135V119.5Z" stroke="#5452F6"/>
</g>
<path d="M410.047 88.5469L410.102 89.4297C410.695 88.737 411.508 88.3906 412.539 88.3906C413.669 88.3906 414.443 88.8229 414.859 89.6875C415.474 88.8229 416.339 88.3906 417.453 88.3906C418.385 88.3906 419.078 88.6484 419.531 89.1641C419.99 89.6797 420.224 90.4401 420.234 91.4453V97H418.336V91.5C418.336 90.9635 418.219 90.5703 417.984 90.3203C417.75 90.0703 417.362 89.9453 416.82 89.9453C416.388 89.9453 416.034 90.0625 415.758 90.2969C415.487 90.526 415.297 90.8281 415.188 91.2031L415.195 97H413.297V91.4375C413.271 90.4427 412.763 89.9453 411.773 89.9453C411.013 89.9453 410.474 90.2552 410.156 90.875V97H408.258V88.5469H410.047ZM427.234 97C427.151 96.8385 427.078 96.5755 427.016 96.2109C426.411 96.8411 425.672 97.1562 424.797 97.1562C423.948 97.1562 423.255 96.9141 422.719 96.4297C422.182 95.9453 421.914 95.3464 421.914 94.6328C421.914 93.7318 422.247 93.0417 422.914 92.5625C423.586 92.0781 424.544 91.8359 425.789 91.8359H426.953V91.2812C426.953 90.8438 426.831 90.4948 426.586 90.2344C426.341 89.9688 425.969 89.8359 425.469 89.8359C425.036 89.8359 424.682 89.9453 424.406 90.1641C424.13 90.3776 423.992 90.651 423.992 90.9844H422.094C422.094 90.5208 422.247 90.0885 422.555 89.6875C422.862 89.2812 423.279 88.9635 423.805 88.7344C424.336 88.5052 424.927 88.3906 425.578 88.3906C426.568 88.3906 427.357 88.6406 427.945 89.1406C428.534 89.6354 428.836 90.3333 428.852 91.2344V95.0469C428.852 95.8073 428.958 96.4141 429.172 96.8672V97H427.234ZM425.148 95.6328C425.523 95.6328 425.875 95.5417 426.203 95.3594C426.536 95.1771 426.786 94.9323 426.953 94.625V93.0312H425.93C425.227 93.0312 424.698 93.1536 424.344 93.3984C423.99 93.6432 423.812 93.9896 423.812 94.4375C423.812 94.8021 423.932 95.0938 424.172 95.3125C424.417 95.526 424.742 95.6328 425.148 95.6328ZM438.242 92.8594C438.242 94.1667 437.945 95.2109 437.352 95.9922C436.758 96.7682 435.961 97.1562 434.961 97.1562C434.034 97.1562 433.292 96.8516 432.734 96.2422V100.25H430.836V88.5469H432.586L432.664 89.4062C433.221 88.7292 433.979 88.3906 434.938 88.3906C435.969 88.3906 436.776 88.776 437.359 89.5469C437.948 90.3125 438.242 91.3776 438.242 92.7422V92.8594ZM436.352 92.6953C436.352 91.8516 436.182 91.1823 435.844 90.6875C435.51 90.1927 435.031 89.9453 434.406 89.9453C433.63 89.9453 433.073 90.2656 432.734 90.9062V94.6562C433.078 95.3125 433.641 95.6406 434.422 95.6406C435.026 95.6406 435.497 95.3984 435.836 94.9141C436.18 94.4245 436.352 93.6849 436.352 92.6953ZM448.578 94.7031C448.578 94.3646 448.438 94.1068 448.156 93.9297C447.88 93.7526 447.419 93.5964 446.773 93.4609C446.128 93.3255 445.589 93.1536 445.156 92.9453C444.208 92.487 443.734 91.8229 443.734 90.9531C443.734 90.224 444.042 89.6146 444.656 89.125C445.271 88.6354 446.052 88.3906 447 88.3906C448.01 88.3906 448.826 88.6406 449.445 89.1406C450.07 89.6406 450.383 90.2891 450.383 91.0859H448.484C448.484 90.7214 448.349 90.4193 448.078 90.1797C447.807 89.9349 447.448 89.8125 447 89.8125C446.583 89.8125 446.242 89.9089 445.977 90.1016C445.716 90.2943 445.586 90.5521 445.586 90.875C445.586 91.1667 445.708 91.3932 445.953 91.5547C446.198 91.7161 446.693 91.8802 447.438 92.0469C448.182 92.2083 448.766 92.4036 449.188 92.6328C449.615 92.8568 449.93 93.1276 450.133 93.4453C450.341 93.763 450.445 94.1484 450.445 94.6016C450.445 95.362 450.13 95.9792 449.5 96.4531C448.87 96.9219 448.044 97.1562 447.023 97.1562C446.331 97.1562 445.714 97.0312 445.172 96.7812C444.63 96.5312 444.208 96.1875 443.906 95.75C443.604 95.3125 443.453 94.8411 443.453 94.3359H445.297C445.323 94.7839 445.492 95.1302 445.805 95.375C446.117 95.6146 446.531 95.7344 447.047 95.7344C447.547 95.7344 447.927 95.6406 448.188 95.4531C448.448 95.2604 448.578 95.0104 448.578 94.7031ZM454.484 86.4922V88.5469H455.977V89.9531H454.484V94.6719C454.484 94.9948 454.547 95.2292 454.672 95.375C454.802 95.5156 455.031 95.5859 455.359 95.5859C455.578 95.5859 455.799 95.5599 456.023 95.5078V96.9766C455.591 97.0964 455.174 97.1562 454.773 97.1562C453.315 97.1562 452.586 96.3516 452.586 94.7422V89.9531H451.195V88.5469H452.586V86.4922H454.484ZM461.859 90.2812C461.609 90.2396 461.352 90.2188 461.086 90.2188C460.216 90.2188 459.63 90.5521 459.328 91.2188V97H457.43V88.5469H459.242L459.289 89.4922C459.747 88.7578 460.383 88.3906 461.195 88.3906C461.466 88.3906 461.69 88.4271 461.867 88.5L461.859 90.2812ZM465.078 97H463.18V88.5469H465.078V97ZM463.062 86.3516C463.062 86.0599 463.154 85.8177 463.336 85.625C463.523 85.4323 463.789 85.3359 464.133 85.3359C464.477 85.3359 464.742 85.4323 464.93 85.625C465.117 85.8177 465.211 86.0599 465.211 86.3516C465.211 86.638 465.117 86.8776 464.93 87.0703C464.742 87.2578 464.477 87.3516 464.133 87.3516C463.789 87.3516 463.523 87.2578 463.336 87.0703C463.154 86.8776 463.062 86.638 463.062 86.3516ZM468.914 88.5469L468.969 89.5234C469.594 88.7682 470.414 88.3906 471.43 88.3906C473.19 88.3906 474.086 89.3984 474.117 91.4141V97H472.219V91.5234C472.219 90.987 472.102 90.5911 471.867 90.3359C471.638 90.0755 471.26 89.9453 470.734 89.9453C469.969 89.9453 469.398 90.2917 469.023 90.9844V97H467.125V88.5469H468.914ZM475.727 92.7109C475.727 91.3984 476.034 90.3516 476.648 89.5703C477.268 88.7839 478.089 88.3906 479.109 88.3906C480.073 88.3906 480.831 88.7266 481.383 89.3984L481.469 88.5469H483.18V96.7422C483.18 97.8516 482.833 98.7266 482.141 99.3672C481.453 100.008 480.523 100.328 479.352 100.328C478.732 100.328 478.125 100.198 477.531 99.9375C476.943 99.6823 476.495 99.3464 476.188 98.9297L477.086 97.7891C477.669 98.4818 478.388 98.8281 479.242 98.8281C479.872 98.8281 480.37 98.6562 480.734 98.3125C481.099 97.974 481.281 97.474 481.281 96.8125V96.2422C480.734 96.8516 480.005 97.1562 479.094 97.1562C478.104 97.1562 477.294 96.763 476.664 95.9766C476.039 95.1901 475.727 94.1016 475.727 92.7109ZM477.617 92.875C477.617 93.724 477.789 94.3932 478.133 94.8828C478.482 95.3672 478.964 95.6094 479.578 95.6094C480.344 95.6094 480.911 95.2812 481.281 94.625V90.9062C480.922 90.2656 480.359 89.9453 479.594 89.9453C478.969 89.9453 478.482 90.1927 478.133 90.6875C477.789 91.1823 477.617 91.9115 477.617 92.875ZM491.141 97H489.242V88.5469H491.141V97ZM489.125 86.3516C489.125 86.0599 489.216 85.8177 489.398 85.625C489.586 85.4323 489.852 85.3359 490.195 85.3359C490.539 85.3359 490.805 85.4323 490.992 85.625C491.18 85.8177 491.273 86.0599 491.273 86.3516C491.273 86.638 491.18 86.8776 490.992 87.0703C490.805 87.2578 490.539 87.3516 490.195 87.3516C489.852 87.3516 489.586 87.2578 489.398 87.0703C489.216 86.8776 489.125 86.638 489.125 86.3516ZM494.977 88.5469L495.031 89.5234C495.656 88.7682 496.477 88.3906 497.492 88.3906C499.253 88.3906 500.148 89.3984 500.18 91.4141V97H498.281V91.5234C498.281 90.987 498.164 90.5911 497.93 90.3359C497.701 90.0755 497.323 89.9453 496.797 89.9453C496.031 89.9453 495.461 90.2917 495.086 90.9844V97H493.188V88.5469H494.977ZM504.5 86.4922V88.5469H505.992V89.9531H504.5V94.6719C504.5 94.9948 504.562 95.2292 504.688 95.375C504.818 95.5156 505.047 95.5859 505.375 95.5859C505.594 95.5859 505.815 95.5599 506.039 95.5078V96.9766C505.607 97.0964 505.19 97.1562 504.789 97.1562C503.331 97.1562 502.602 96.3516 502.602 94.7422V89.9531H501.211V88.5469H502.602V86.4922H504.5ZM515.219 99.8125C513.38 99.2969 512.443 98.1224 512.406 96.2891V94.625C512.406 93.4531 511.904 92.8672 510.898 92.8672V91.4766C511.904 91.4766 512.406 90.888 512.406 89.7109V88.0547C512.422 87.1172 512.664 86.3594 513.133 85.7812C513.607 85.2031 514.302 84.7839 515.219 84.5234L515.594 85.6172C514.693 85.9089 514.227 86.7057 514.195 88.0078V89.6953C514.195 90.8672 513.745 91.6901 512.844 92.1641C513.745 92.6432 514.195 93.474 514.195 94.6562V96.3203C514.227 97.6224 514.693 98.4193 515.594 98.7109L515.219 99.8125ZM527.625 91.9219H522.953V95.4219H528.414V97H520.977V85.625H528.359V87.2188H522.953V90.3594H527.625V91.9219ZM531.859 97H529.961V85H531.859V97ZM536.312 86.4922V88.5469H537.805V89.9531H536.312V94.6719C536.312 94.9948 536.375 95.2292 536.5 95.375C536.63 95.5156 536.859 95.5859 537.188 95.5859C537.406 95.5859 537.628 95.5599 537.852 95.5078V96.9766C537.419 97.0964 537.003 97.1562 536.602 97.1562C535.143 97.1562 534.414 96.3516 534.414 94.7422V89.9531H533.023V88.5469H534.414V86.4922H536.312ZM544.547 84.7969L545.516 85.3984C545.042 86.0911 544.797 86.8125 544.781 87.5625V88.75H543.117V87.6719C543.122 87.1719 543.258 86.651 543.523 86.1094C543.794 85.5625 544.135 85.125 544.547 84.7969ZM547.172 84.7969L548.141 85.3984C547.667 86.0911 547.422 86.8125 547.406 87.5625V88.75H545.742V87.6719C545.747 87.1719 545.883 86.651 546.148 86.1094C546.419 85.5625 546.76 85.125 547.172 84.7969ZM551.781 86.4922V88.5469H553.273V89.9531H551.781V94.6719C551.781 94.9948 551.844 95.2292 551.969 95.375C552.099 95.5156 552.328 95.5859 552.656 95.5859C552.875 95.5859 553.096 95.5599 553.32 95.5078V96.9766C552.888 97.0964 552.471 97.1562 552.07 97.1562C550.612 97.1562 549.883 96.3516 549.883 94.7422V89.9531H548.492V88.5469H549.883V86.4922H551.781ZM554.141 92.6953C554.141 91.8672 554.305 91.1224 554.633 90.4609C554.961 89.7943 555.422 89.2839 556.016 88.9297C556.609 88.5703 557.292 88.3906 558.062 88.3906C559.203 88.3906 560.128 88.7578 560.836 89.4922C561.549 90.2266 561.935 91.2005 561.992 92.4141L562 92.8594C562 93.6927 561.839 94.4375 561.516 95.0938C561.198 95.75 560.74 96.2578 560.141 96.6172C559.547 96.9766 558.859 97.1562 558.078 97.1562C556.885 97.1562 555.93 96.7604 555.211 95.9688C554.497 95.1719 554.141 94.112 554.141 92.7891V92.6953ZM556.039 92.8594C556.039 93.7292 556.219 94.4115 556.578 94.9062C556.938 95.3958 557.438 95.6406 558.078 95.6406C558.719 95.6406 559.216 95.3906 559.57 94.8906C559.93 94.3906 560.109 93.6589 560.109 92.6953C560.109 91.8411 559.924 91.1641 559.555 90.6641C559.19 90.1641 558.693 89.9141 558.062 89.9141C557.443 89.9141 556.951 90.1615 556.586 90.6562C556.221 91.1458 556.039 91.8802 556.039 92.8594ZM565.984 86.4922V88.5469H567.477V89.9531H565.984V94.6719C565.984 94.9948 566.047 95.2292 566.172 95.375C566.302 95.5156 566.531 95.5859 566.859 95.5859C567.078 95.5859 567.299 95.5599 567.523 95.5078V96.9766C567.091 97.0964 566.674 97.1562 566.273 97.1562C564.815 97.1562 564.086 96.3516 564.086 94.7422V89.9531H562.695V88.5469H564.086V86.4922H565.984ZM568.344 92.6953C568.344 91.8672 568.508 91.1224 568.836 90.4609C569.164 89.7943 569.625 89.2839 570.219 88.9297C570.812 88.5703 571.495 88.3906 572.266 88.3906C573.406 88.3906 574.331 88.7578 575.039 89.4922C575.753 90.2266 576.138 91.2005 576.195 92.4141L576.203 92.8594C576.203 93.6927 576.042 94.4375 575.719 95.0938C575.401 95.75 574.943 96.2578 574.344 96.6172C573.75 96.9766 573.062 97.1562 572.281 97.1562C571.089 97.1562 570.133 96.7604 569.414 95.9688C568.701 95.1719 568.344 94.112 568.344 92.7891V92.6953ZM570.242 92.8594C570.242 93.7292 570.422 94.4115 570.781 94.9062C571.141 95.3958 571.641 95.6406 572.281 95.6406C572.922 95.6406 573.419 95.3906 573.773 94.8906C574.133 94.3906 574.312 93.6589 574.312 92.6953C574.312 91.8411 574.128 91.1641 573.758 90.6641C573.393 90.1641 572.896 89.9141 572.266 89.9141C571.646 89.9141 571.154 90.1615 570.789 90.6562C570.424 91.1458 570.242 91.8802 570.242 92.8594ZM577.617 89L576.648 88.3984C577.117 87.7161 577.359 86.9948 577.375 86.2344V85H579.039V86.0781C579.039 86.6146 578.901 87.1562 578.625 87.7031C578.354 88.2448 578.018 88.6771 577.617 89ZM580.227 89L579.258 88.3984C579.727 87.7161 579.969 86.9948 579.984 86.2344V85H581.648V86.0781C581.648 86.6146 581.51 87.1562 581.234 87.7031C580.964 88.2448 580.628 88.6771 580.227 89ZM592.344 97H590.453V87.8672L587.664 88.8203V87.2188L592.102 85.5859H592.344V97ZM597.398 88.3672C597.753 88.3672 598.026 88.4688 598.219 88.6719C598.411 88.8698 598.508 89.1198 598.508 89.4219C598.508 89.7188 598.411 89.9661 598.219 90.1641C598.026 90.3568 597.753 90.4531 597.398 90.4531C597.06 90.4531 596.792 90.3568 596.594 90.1641C596.396 89.9714 596.297 89.724 596.297 89.4219C596.297 89.1198 596.393 88.8698 596.586 88.6719C596.779 88.4688 597.049 88.3672 597.398 88.3672ZM596.828 99.5625L595.805 98.9531C596.107 98.4792 596.312 98.0651 596.422 97.7109C596.536 97.362 596.596 97.0052 596.602 96.6406V95.1641H598.312L598.305 96.5312C598.299 97.0833 598.159 97.6354 597.883 98.1875C597.612 98.7448 597.26 99.2031 596.828 99.5625ZM611.047 91.9219H606.375V95.4219H611.836V97H604.398V85.625H611.781V87.2188H606.375V90.3594H611.047V91.9219ZM615.281 97H613.383V85H615.281V97ZM619.734 86.4922V88.5469H621.227V89.9531H619.734V94.6719C619.734 94.9948 619.797 95.2292 619.922 95.375C620.052 95.5156 620.281 95.5859 620.609 95.5859C620.828 95.5859 621.049 95.5599 621.273 95.5078V96.9766C620.841 97.0964 620.424 97.1562 620.023 97.1562C618.565 97.1562 617.836 96.3516 617.836 94.7422V89.9531H616.445V88.5469H617.836V86.4922H619.734ZM485.148 103.797L486.117 104.398C485.643 105.091 485.398 105.812 485.383 106.562V107.75H483.719V106.672C483.724 106.172 483.859 105.651 484.125 105.109C484.396 104.562 484.737 104.125 485.148 103.797ZM487.773 103.797L488.742 104.398C488.268 105.091 488.023 105.812 488.008 106.562V107.75H486.344V106.672C486.349 106.172 486.484 105.651 486.75 105.109C487.021 104.562 487.362 104.125 487.773 103.797ZM492.383 105.492V107.547H493.875V108.953H492.383V113.672C492.383 113.995 492.445 114.229 492.57 114.375C492.701 114.516 492.93 114.586 493.258 114.586C493.477 114.586 493.698 114.56 493.922 114.508V115.977C493.49 116.096 493.073 116.156 492.672 116.156C491.214 116.156 490.484 115.352 490.484 113.742V108.953H489.094V107.547H490.484V105.492H492.383ZM500.453 115.172C499.896 115.828 499.104 116.156 498.078 116.156C497.161 116.156 496.466 115.888 495.992 115.352C495.523 114.815 495.289 114.039 495.289 113.023V107.547H497.188V113C497.188 114.073 497.633 114.609 498.523 114.609C499.445 114.609 500.068 114.279 500.391 113.617V107.547H502.289V116H500.5L500.453 115.172ZM506.602 105.492V107.547H508.094V108.953H506.602V113.672C506.602 113.995 506.664 114.229 506.789 114.375C506.919 114.516 507.148 114.586 507.477 114.586C507.695 114.586 507.917 114.56 508.141 114.508V115.977C507.708 116.096 507.292 116.156 506.891 116.156C505.432 116.156 504.703 115.352 504.703 113.742V108.953H503.312V107.547H504.703V105.492H506.602ZM514.672 115.172C514.115 115.828 513.323 116.156 512.297 116.156C511.38 116.156 510.685 115.888 510.211 115.352C509.742 114.815 509.508 114.039 509.508 113.023V107.547H511.406V113C511.406 114.073 511.852 114.609 512.742 114.609C513.664 114.609 514.286 114.279 514.609 113.617V107.547H516.508V116H514.719L514.672 115.172ZM518.938 108L517.969 107.398C518.438 106.716 518.68 105.995 518.695 105.234V104H520.359V105.078C520.359 105.615 520.221 106.156 519.945 106.703C519.674 107.245 519.339 107.677 518.938 108ZM521.547 108L520.578 107.398C521.047 106.716 521.289 105.995 521.305 105.234V104H522.969V105.078C522.969 105.615 522.831 106.156 522.555 106.703C522.284 107.245 521.948 107.677 521.547 108ZM536.172 116H528.523V114.695L532.312 110.562C532.859 109.953 533.247 109.445 533.477 109.039C533.711 108.628 533.828 108.216 533.828 107.805C533.828 107.263 533.674 106.826 533.367 106.492C533.065 106.159 532.656 105.992 532.141 105.992C531.526 105.992 531.049 106.18 530.711 106.555C530.372 106.93 530.203 107.443 530.203 108.094H528.305C528.305 107.401 528.461 106.779 528.773 106.227C529.091 105.669 529.542 105.237 530.125 104.93C530.714 104.622 531.391 104.469 532.156 104.469C533.26 104.469 534.13 104.747 534.766 105.305C535.406 105.857 535.727 106.622 535.727 107.602C535.727 108.169 535.565 108.766 535.242 109.391C534.924 110.01 534.401 110.716 533.672 111.508L530.891 114.484H536.172V116ZM540.961 117.711C541.878 117.414 542.346 116.602 542.367 115.273V113.648C542.367 112.445 542.841 111.62 543.789 111.172C542.841 110.724 542.367 109.891 542.367 108.672V107.055C542.346 105.727 541.878 104.914 540.961 104.617L541.336 103.523C542.284 103.789 542.99 104.221 543.453 104.82C543.917 105.414 544.148 106.193 544.148 107.156V108.719C544.148 109.891 544.654 110.477 545.664 110.477V111.867C544.654 111.867 544.148 112.453 544.148 113.625V115.164C544.148 116.138 543.914 116.922 543.445 117.516C542.982 118.115 542.279 118.547 541.336 118.812L540.961 117.711Z" fill="#5452F6"/>
<g filter="url(#filter4_d)">
<path d="M0 8C0 3.58172 3.58172 0 8 0H221C225.418 0 229 3.58172 229 8V120H0V8Z" fill="white"/>
<line x1="0.5" y1="79.5" x2="228.5" y2="79.5" stroke="#5452F6"/>
<line x1="0.5" y1="39.5" x2="228.5" y2="39.5" stroke="#5452F6"/>
<path d="M18.5 96.5469L18.5547 97.4297C19.1484 96.737 19.9609 96.3906 20.9922 96.3906C22.1224 96.3906 22.8958 96.8229 23.3125 97.6875C23.9271 96.8229 24.7917 96.3906 25.9062 96.3906C26.8385 96.3906 27.5312 96.6484 27.9844 97.1641C28.4427 97.6797 28.6771 98.4401 28.6875 99.4453V105H26.7891V99.5C26.7891 98.9635 26.6719 98.5703 26.4375 98.3203C26.2031 98.0703 25.8151 97.9453 25.2734 97.9453C24.8411 97.9453 24.487 98.0625 24.2109 98.2969C23.9401 98.526 23.75 98.8281 23.6406 99.2031L23.6484 105H21.75V99.4375C21.724 98.4427 21.2161 97.9453 20.2266 97.9453C19.4661 97.9453 18.9271 98.2552 18.6094 98.875V105H16.7109V96.5469H18.5ZM35.6875 105C35.6042 104.839 35.5312 104.576 35.4688 104.211C34.8646 104.841 34.125 105.156 33.25 105.156C32.401 105.156 31.7083 104.914 31.1719 104.43C30.6354 103.945 30.3672 103.346 30.3672 102.633C30.3672 101.732 30.7005 101.042 31.3672 100.562C32.0391 100.078 32.9974 99.8359 34.2422 99.8359H35.4062V99.2812C35.4062 98.8438 35.2839 98.4948 35.0391 98.2344C34.7943 97.9688 34.4219 97.8359 33.9219 97.8359C33.4896 97.8359 33.1354 97.9453 32.8594 98.1641C32.5833 98.3776 32.4453 98.651 32.4453 98.9844H30.5469C30.5469 98.5208 30.7005 98.0885 31.0078 97.6875C31.3151 97.2812 31.7318 96.9635 32.2578 96.7344C32.7891 96.5052 33.3802 96.3906 34.0312 96.3906C35.0208 96.3906 35.8099 96.6406 36.3984 97.1406C36.987 97.6354 37.2891 98.3333 37.3047 99.2344V103.047C37.3047 103.807 37.4115 104.414 37.625 104.867V105H35.6875ZM33.6016 103.633C33.9766 103.633 34.3281 103.542 34.6562 103.359C34.9896 103.177 35.2396 102.932 35.4062 102.625V101.031H34.3828C33.6797 101.031 33.151 101.154 32.7969 101.398C32.4427 101.643 32.2656 101.99 32.2656 102.438C32.2656 102.802 32.3854 103.094 32.625 103.312C32.8698 103.526 33.1953 103.633 33.6016 103.633ZM46.6953 100.859C46.6953 102.167 46.3984 103.211 45.8047 103.992C45.2109 104.768 44.4141 105.156 43.4141 105.156C42.487 105.156 41.7448 104.852 41.1875 104.242V108.25H39.2891V96.5469H41.0391L41.1172 97.4062C41.6745 96.7292 42.4323 96.3906 43.3906 96.3906C44.4219 96.3906 45.2292 96.776 45.8125 97.5469C46.401 98.3125 46.6953 99.3776 46.6953 100.742V100.859ZM44.8047 100.695C44.8047 99.8516 44.6354 99.1823 44.2969 98.6875C43.9635 98.1927 43.4844 97.9453 42.8594 97.9453C42.0833 97.9453 41.526 98.2656 41.1875 98.9062V102.656C41.5312 103.312 42.0938 103.641 42.875 103.641C43.4792 103.641 43.9505 103.398 44.2891 102.914C44.6328 102.424 44.8047 101.685 44.8047 100.695ZM57.0312 102.703C57.0312 102.365 56.8906 102.107 56.6094 101.93C56.3333 101.753 55.8724 101.596 55.2266 101.461C54.5807 101.326 54.0417 101.154 53.6094 100.945C52.6615 100.487 52.1875 99.8229 52.1875 98.9531C52.1875 98.224 52.4948 97.6146 53.1094 97.125C53.724 96.6354 54.5052 96.3906 55.4531 96.3906C56.4635 96.3906 57.2786 96.6406 57.8984 97.1406C58.5234 97.6406 58.8359 98.2891 58.8359 99.0859H56.9375C56.9375 98.7214 56.8021 98.4193 56.5312 98.1797C56.2604 97.9349 55.901 97.8125 55.4531 97.8125C55.0365 97.8125 54.6953 97.9089 54.4297 98.1016C54.1693 98.2943 54.0391 98.5521 54.0391 98.875C54.0391 99.1667 54.1615 99.3932 54.4062 99.5547C54.651 99.7161 55.1458 99.8802 55.8906 100.047C56.6354 100.208 57.2188 100.404 57.6406 100.633C58.0677 100.857 58.3828 101.128 58.5859 101.445C58.7943 101.763 58.8984 102.148 58.8984 102.602C58.8984 103.362 58.5833 103.979 57.9531 104.453C57.3229 104.922 56.4974 105.156 55.4766 105.156C54.7839 105.156 54.1667 105.031 53.625 104.781C53.0833 104.531 52.6615 104.188 52.3594 103.75C52.0573 103.312 51.9062 102.841 51.9062 102.336H53.75C53.776 102.784 53.9453 103.13 54.2578 103.375C54.5703 103.615 54.9844 103.734 55.5 103.734C56 103.734 56.3802 103.641 56.6406 103.453C56.901 103.26 57.0312 103.01 57.0312 102.703ZM62.9375 94.4922V96.5469H64.4297V97.9531H62.9375V102.672C62.9375 102.995 63 103.229 63.125 103.375C63.2552 103.516 63.4844 103.586 63.8125 103.586C64.0312 103.586 64.2526 103.56 64.4766 103.508V104.977C64.0443 105.096 63.6276 105.156 63.2266 105.156C61.7682 105.156 61.0391 104.352 61.0391 102.742V97.9531H59.6484V96.5469H61.0391V94.4922H62.9375ZM70.3125 98.2812C70.0625 98.2396 69.8047 98.2188 69.5391 98.2188C68.6693 98.2188 68.0833 98.5521 67.7812 99.2188V105H65.8828V96.5469H67.6953L67.7422 97.4922C68.2005 96.7578 68.8359 96.3906 69.6484 96.3906C69.9193 96.3906 70.1432 96.4271 70.3203 96.5L70.3125 98.2812ZM73.5312 105H71.6328V96.5469H73.5312V105ZM71.5156 94.3516C71.5156 94.0599 71.6068 93.8177 71.7891 93.625C71.9766 93.4323 72.2422 93.3359 72.5859 93.3359C72.9297 93.3359 73.1953 93.4323 73.3828 93.625C73.5703 93.8177 73.6641 94.0599 73.6641 94.3516C73.6641 94.638 73.5703 94.8776 73.3828 95.0703C73.1953 95.2578 72.9297 95.3516 72.5859 95.3516C72.2422 95.3516 71.9766 95.2578 71.7891 95.0703C71.6068 94.8776 71.5156 94.638 71.5156 94.3516ZM77.3672 96.5469L77.4219 97.5234C78.0469 96.7682 78.8672 96.3906 79.8828 96.3906C81.6432 96.3906 82.5391 97.3984 82.5703 99.4141V105H80.6719V99.5234C80.6719 98.987 80.5547 98.5911 80.3203 98.3359C80.0911 98.0755 79.7135 97.9453 79.1875 97.9453C78.4219 97.9453 77.8516 98.2917 77.4766 98.9844V105H75.5781V96.5469H77.3672ZM84.1797 100.711C84.1797 99.3984 84.487 98.3516 85.1016 97.5703C85.7214 96.7839 86.5417 96.3906 87.5625 96.3906C88.526 96.3906 89.2839 96.7266 89.8359 97.3984L89.9219 96.5469H91.6328V104.742C91.6328 105.852 91.2865 106.727 90.5938 107.367C89.9062 108.008 88.9766 108.328 87.8047 108.328C87.1849 108.328 86.5781 108.198 85.9844 107.938C85.3958 107.682 84.9479 107.346 84.6406 106.93L85.5391 105.789C86.1224 106.482 86.8411 106.828 87.6953 106.828C88.3255 106.828 88.8229 106.656 89.1875 106.312C89.5521 105.974 89.7344 105.474 89.7344 104.812V104.242C89.1875 104.852 88.4583 105.156 87.5469 105.156C86.5573 105.156 85.7474 104.763 85.1172 103.977C84.4922 103.19 84.1797 102.102 84.1797 100.711ZM86.0703 100.875C86.0703 101.724 86.2422 102.393 86.5859 102.883C86.9349 103.367 87.4167 103.609 88.0312 103.609C88.7969 103.609 89.3646 103.281 89.7344 102.625V98.9062C89.375 98.2656 88.8125 97.9453 88.0469 97.9453C87.4219 97.9453 86.9349 98.1927 86.5859 98.6875C86.2422 99.1823 86.0703 99.9115 86.0703 100.875ZM99.5938 105H97.6953V96.5469H99.5938V105ZM97.5781 94.3516C97.5781 94.0599 97.6693 93.8177 97.8516 93.625C98.0391 93.4323 98.3047 93.3359 98.6484 93.3359C98.9922 93.3359 99.2578 93.4323 99.4453 93.625C99.6328 93.8177 99.7266 94.0599 99.7266 94.3516C99.7266 94.638 99.6328 94.8776 99.4453 95.0703C99.2578 95.2578 98.9922 95.3516 98.6484 95.3516C98.3047 95.3516 98.0391 95.2578 97.8516 95.0703C97.6693 94.8776 97.5781 94.638 97.5781 94.3516ZM103.43 96.5469L103.484 97.5234C104.109 96.7682 104.93 96.3906 105.945 96.3906C107.706 96.3906 108.602 97.3984 108.633 99.4141V105H106.734V99.5234C106.734 98.987 106.617 98.5911 106.383 98.3359C106.154 98.0755 105.776 97.9453 105.25 97.9453C104.484 97.9453 103.914 98.2917 103.539 98.9844V105H101.641V96.5469H103.43ZM112.953 94.4922V96.5469H114.445V97.9531H112.953V102.672C112.953 102.995 113.016 103.229 113.141 103.375C113.271 103.516 113.5 103.586 113.828 103.586C114.047 103.586 114.268 103.56 114.492 103.508V104.977C114.06 105.096 113.643 105.156 113.242 105.156C111.784 105.156 111.055 104.352 111.055 102.742V97.9531H109.664V96.5469H111.055V94.4922H112.953ZM123.672 107.812C121.833 107.297 120.896 106.122 120.859 104.289V102.625C120.859 101.453 120.357 100.867 119.352 100.867V99.4766C120.357 99.4766 120.859 98.888 120.859 97.7109V96.0547C120.875 95.1172 121.117 94.3594 121.586 93.7812C122.06 93.2031 122.755 92.7839 123.672 92.5234L124.047 93.6172C123.146 93.9089 122.68 94.7057 122.648 96.0078V97.6953C122.648 98.8672 122.198 99.6901 121.297 100.164C122.198 100.643 122.648 101.474 122.648 102.656V104.32C122.68 105.622 123.146 106.419 124.047 106.711L123.672 107.812ZM136.078 99.9219H131.406V103.422H136.867V105H129.43V93.625H136.812V95.2188H131.406V98.3594H136.078V99.9219ZM140.312 105H138.414V93H140.312V105ZM144.766 94.4922V96.5469H146.258V97.9531H144.766V102.672C144.766 102.995 144.828 103.229 144.953 103.375C145.083 103.516 145.312 103.586 145.641 103.586C145.859 103.586 146.081 103.56 146.305 103.508V104.977C145.872 105.096 145.456 105.156 145.055 105.156C143.596 105.156 142.867 104.352 142.867 102.742V97.9531H141.477V96.5469H142.867V94.4922H144.766ZM153 92.7969L153.969 93.3984C153.495 94.0911 153.25 94.8125 153.234 95.5625V96.75H151.57V95.6719C151.576 95.1719 151.711 94.651 151.977 94.1094C152.247 93.5625 152.589 93.125 153 92.7969ZM155.625 92.7969L156.594 93.3984C156.12 94.0911 155.875 94.8125 155.859 95.5625V96.75H154.195V95.6719C154.201 95.1719 154.336 94.651 154.602 94.1094C154.872 93.5625 155.214 93.125 155.625 92.7969ZM160.234 94.4922V96.5469H161.727V97.9531H160.234V102.672C160.234 102.995 160.297 103.229 160.422 103.375C160.552 103.516 160.781 103.586 161.109 103.586C161.328 103.586 161.549 103.56 161.773 103.508V104.977C161.341 105.096 160.924 105.156 160.523 105.156C159.065 105.156 158.336 104.352 158.336 102.742V97.9531H156.945V96.5469H158.336V94.4922H160.234ZM162.594 100.695C162.594 99.8672 162.758 99.1224 163.086 98.4609C163.414 97.7943 163.875 97.2839 164.469 96.9297C165.062 96.5703 165.745 96.3906 166.516 96.3906C167.656 96.3906 168.581 96.7578 169.289 97.4922C170.003 98.2266 170.388 99.2005 170.445 100.414L170.453 100.859C170.453 101.693 170.292 102.438 169.969 103.094C169.651 103.75 169.193 104.258 168.594 104.617C168 104.977 167.312 105.156 166.531 105.156C165.339 105.156 164.383 104.76 163.664 103.969C162.951 103.172 162.594 102.112 162.594 100.789V100.695ZM164.492 100.859C164.492 101.729 164.672 102.411 165.031 102.906C165.391 103.396 165.891 103.641 166.531 103.641C167.172 103.641 167.669 103.391 168.023 102.891C168.383 102.391 168.562 101.659 168.562 100.695C168.562 99.8411 168.378 99.1641 168.008 98.6641C167.643 98.1641 167.146 97.9141 166.516 97.9141C165.896 97.9141 165.404 98.1615 165.039 98.6562C164.674 99.1458 164.492 99.8802 164.492 100.859ZM174.438 94.4922V96.5469H175.93V97.9531H174.438V102.672C174.438 102.995 174.5 103.229 174.625 103.375C174.755 103.516 174.984 103.586 175.312 103.586C175.531 103.586 175.753 103.56 175.977 103.508V104.977C175.544 105.096 175.128 105.156 174.727 105.156C173.268 105.156 172.539 104.352 172.539 102.742V97.9531H171.148V96.5469H172.539V94.4922H174.438ZM176.797 100.695C176.797 99.8672 176.961 99.1224 177.289 98.4609C177.617 97.7943 178.078 97.2839 178.672 96.9297C179.266 96.5703 179.948 96.3906 180.719 96.3906C181.859 96.3906 182.784 96.7578 183.492 97.4922C184.206 98.2266 184.591 99.2005 184.648 100.414L184.656 100.859C184.656 101.693 184.495 102.438 184.172 103.094C183.854 103.75 183.396 104.258 182.797 104.617C182.203 104.977 181.516 105.156 180.734 105.156C179.542 105.156 178.586 104.76 177.867 103.969C177.154 103.172 176.797 102.112 176.797 100.789V100.695ZM178.695 100.859C178.695 101.729 178.875 102.411 179.234 102.906C179.594 103.396 180.094 103.641 180.734 103.641C181.375 103.641 181.872 103.391 182.227 102.891C182.586 102.391 182.766 101.659 182.766 100.695C182.766 99.8411 182.581 99.1641 182.211 98.6641C181.846 98.1641 181.349 97.9141 180.719 97.9141C180.099 97.9141 179.607 98.1615 179.242 98.6562C178.878 99.1458 178.695 99.8802 178.695 100.859ZM186.07 97L185.102 96.3984C185.57 95.7161 185.812 94.9948 185.828 94.2344V93H187.492V94.0781C187.492 94.6146 187.354 95.1562 187.078 95.7031C186.807 96.2448 186.471 96.6771 186.07 97ZM188.68 97L187.711 96.3984C188.18 95.7161 188.422 94.9948 188.438 94.2344V93H190.102V94.0781C190.102 94.6146 189.964 95.1562 189.688 95.7031C189.417 96.2448 189.081 96.6771 188.68 97ZM200.797 105H198.906V95.8672L196.117 96.8203V95.2188L200.555 93.5859H200.797V105ZM208.094 106.711C209.01 106.414 209.479 105.602 209.5 104.273V102.648C209.5 101.445 209.974 100.62 210.922 100.172C209.974 99.724 209.5 98.8906 209.5 97.6719V96.0547C209.479 94.7266 209.01 93.9141 208.094 93.6172L208.469 92.5234C209.417 92.7891 210.122 93.2214 210.586 93.8203C211.049 94.4141 211.281 95.1927 211.281 96.1562V97.7188C211.281 98.8906 211.786 99.4766 212.797 99.4766V100.867C211.786 100.867 211.281 101.453 211.281 102.625V104.164C211.281 105.138 211.047 105.922 210.578 106.516C210.115 107.115 209.411 107.547 208.469 107.812L208.094 106.711Z" fill="#5452F6"/>
<path d="M92.1172 65H90.1406L85.0703 56.9297V65H83.0938V53.625H85.0703L90.1562 61.7266V53.625H92.1172V65ZM103.531 59.6094C103.531 60.724 103.339 61.7031 102.953 62.5469C102.568 63.3854 102.016 64.0312 101.297 64.4844C100.583 64.9323 99.7604 65.1562 98.8281 65.1562C97.9062 65.1562 97.0833 64.9323 96.3594 64.4844C95.6406 64.0312 95.0833 63.388 94.6875 62.5547C94.2969 61.7214 94.099 60.7604 94.0938 59.6719V59.0312C94.0938 57.9219 94.2891 56.9427 94.6797 56.0938C95.0755 55.2448 95.6302 54.5964 96.3438 54.1484C97.0625 53.6953 97.8854 53.4688 98.8125 53.4688C99.7396 53.4688 100.56 53.6927 101.273 54.1406C101.992 54.5833 102.547 55.224 102.938 56.0625C103.328 56.8958 103.526 57.8672 103.531 58.9766V59.6094ZM101.555 59.0156C101.555 57.7552 101.315 56.7891 100.836 56.1172C100.362 55.4453 99.6875 55.1094 98.8125 55.1094C97.9583 55.1094 97.2891 55.4453 96.8047 56.1172C96.3255 56.7839 96.0807 57.7292 96.0703 58.9531V59.6094C96.0703 60.8594 96.3125 61.8255 96.7969 62.5078C97.2865 63.1901 97.9635 63.5312 98.8281 63.5312C99.7031 63.5312 100.375 63.1979 100.844 62.5312C101.318 61.8646 101.555 60.8906 101.555 59.6094V59.0156ZM114.523 65H112.547L107.477 56.9297V65H105.5V53.625H107.477L112.562 61.7266V53.625H114.523V65ZM123.508 59.9219H118.836V63.4219H124.297V65H116.859V53.625H124.242V55.2188H118.836V58.3594H123.508V59.9219ZM131.727 65H129.828V56.5469H131.727V65ZM129.711 54.3516C129.711 54.0599 129.802 53.8177 129.984 53.625C130.172 53.4323 130.438 53.3359 130.781 53.3359C131.125 53.3359 131.391 53.4323 131.578 53.625C131.766 53.8177 131.859 54.0599 131.859 54.3516C131.859 54.638 131.766 54.8776 131.578 55.0703C131.391 55.2578 131.125 55.3516 130.781 55.3516C130.438 55.3516 130.172 55.2578 129.984 55.0703C129.802 54.8776 129.711 54.638 129.711 54.3516ZM135.562 56.5469L135.617 57.5234C136.242 56.7682 137.062 56.3906 138.078 56.3906C139.839 56.3906 140.734 57.3984 140.766 59.4141V65H138.867V59.5234C138.867 58.987 138.75 58.5911 138.516 58.3359C138.286 58.0755 137.909 57.9453 137.383 57.9453C136.617 57.9453 136.047 58.2917 135.672 58.9844V65H133.773V56.5469H135.562ZM145.086 54.4922V56.5469H146.578V57.9531H145.086V62.6719C145.086 62.9948 145.148 63.2292 145.273 63.375C145.404 63.5156 145.633 63.5859 145.961 63.5859C146.18 63.5859 146.401 63.5599 146.625 63.5078V64.9766C146.193 65.0964 145.776 65.1562 145.375 65.1562C143.917 65.1562 143.188 64.3516 143.188 62.7422V57.9531H141.797V56.5469H143.188V54.4922H145.086Z" fill="#FF5A43"/>
<path d="M80.2891 22.7031C80.2891 22.3646 80.1484 22.1068 79.8672 21.9297C79.5911 21.7526 79.1302 21.5964 78.4844 21.4609C77.8385 21.3255 77.2995 21.1536 76.8672 20.9453C75.9193 20.487 75.4453 19.8229 75.4453 18.9531C75.4453 18.224 75.7526 17.6146 76.3672 17.125C76.9818 16.6354 77.763 16.3906 78.7109 16.3906C79.7214 16.3906 80.5365 16.6406 81.1562 17.1406C81.7812 17.6406 82.0938 18.2891 82.0938 19.0859H80.1953C80.1953 18.7214 80.0599 18.4193 79.7891 18.1797C79.5182 17.9349 79.1589 17.8125 78.7109 17.8125C78.2943 17.8125 77.9531 17.9089 77.6875 18.1016C77.4271 18.2943 77.2969 18.5521 77.2969 18.875C77.2969 19.1667 77.4193 19.3932 77.6641 19.5547C77.9089 19.7161 78.4036 19.8802 79.1484 20.0469C79.8932 20.2083 80.4766 20.4036 80.8984 20.6328C81.3255 20.8568 81.6406 21.1276 81.8438 21.4453C82.0521 21.763 82.1562 22.1484 82.1562 22.6016C82.1562 23.362 81.8411 23.9792 81.2109 24.4531C80.5807 24.9219 79.7552 25.1562 78.7344 25.1562C78.0417 25.1562 77.4245 25.0312 76.8828 24.7812C76.3411 24.5312 75.9193 24.1875 75.6172 23.75C75.3151 23.3125 75.1641 22.8411 75.1641 22.3359H77.0078C77.0339 22.7839 77.2031 23.1302 77.5156 23.375C77.8281 23.6146 78.2422 23.7344 78.7578 23.7344C79.2578 23.7344 79.638 23.6406 79.8984 23.4531C80.1589 23.2604 80.2891 23.0104 80.2891 22.7031ZM86.1953 14.4922V16.5469H87.6875V17.9531H86.1953V22.6719C86.1953 22.9948 86.2578 23.2292 86.3828 23.375C86.513 23.5156 86.7422 23.5859 87.0703 23.5859C87.2891 23.5859 87.5104 23.5599 87.7344 23.5078V24.9766C87.3021 25.0964 86.8854 25.1562 86.4844 25.1562C85.026 25.1562 84.2969 24.3516 84.2969 22.7422V17.9531H82.9062V16.5469H84.2969V14.4922H86.1953ZM93.5703 18.2812C93.3203 18.2396 93.0625 18.2188 92.7969 18.2188C91.9271 18.2188 91.3411 18.5521 91.0391 19.2188V25H89.1406V16.5469H90.9531L91 17.4922C91.4583 16.7578 92.0938 16.3906 92.9062 16.3906C93.1771 16.3906 93.401 16.4271 93.5781 16.5L93.5703 18.2812ZM96.7891 25H94.8906V16.5469H96.7891V25ZM94.7734 14.3516C94.7734 14.0599 94.8646 13.8177 95.0469 13.625C95.2344 13.4323 95.5 13.3359 95.8438 13.3359C96.1875 13.3359 96.4531 13.4323 96.6406 13.625C96.8281 13.8177 96.9219 14.0599 96.9219 14.3516C96.9219 14.638 96.8281 14.8776 96.6406 15.0703C96.4531 15.2578 96.1875 15.3516 95.8438 15.3516C95.5 15.3516 95.2344 15.2578 95.0469 15.0703C94.8646 14.8776 94.7734 14.638 94.7734 14.3516ZM100.625 16.5469L100.68 17.5234C101.305 16.7682 102.125 16.3906 103.141 16.3906C104.901 16.3906 105.797 17.3984 105.828 19.4141V25H103.93V19.5234C103.93 18.987 103.812 18.5911 103.578 18.3359C103.349 18.0755 102.971 17.9453 102.445 17.9453C101.68 17.9453 101.109 18.2917 100.734 18.9844V25H98.8359V16.5469H100.625ZM107.438 20.7109C107.438 19.3984 107.745 18.3516 108.359 17.5703C108.979 16.7839 109.799 16.3906 110.82 16.3906C111.784 16.3906 112.542 16.7266 113.094 17.3984L113.18 16.5469H114.891V24.7422C114.891 25.8516 114.544 26.7266 113.852 27.3672C113.164 28.0078 112.234 28.3281 111.062 28.3281C110.443 28.3281 109.836 28.1979 109.242 27.9375C108.654 27.6823 108.206 27.3464 107.898 26.9297L108.797 25.7891C109.38 26.4818 110.099 26.8281 110.953 26.8281C111.583 26.8281 112.081 26.6562 112.445 26.3125C112.81 25.974 112.992 25.474 112.992 24.8125V24.2422C112.445 24.8516 111.716 25.1562 110.805 25.1562C109.815 25.1562 109.005 24.763 108.375 23.9766C107.75 23.1901 107.438 22.1016 107.438 20.7109ZM109.328 20.875C109.328 21.724 109.5 22.3932 109.844 22.8828C110.193 23.3672 110.674 23.6094 111.289 23.6094C112.055 23.6094 112.622 23.2812 112.992 22.625V18.9062C112.633 18.2656 112.07 17.9453 111.305 17.9453C110.68 17.9453 110.193 18.1927 109.844 18.6875C109.5 19.1823 109.328 19.9115 109.328 20.875ZM122.133 12.7969L123.102 13.3984C122.628 14.0911 122.383 14.8125 122.367 15.5625V16.75H120.703V15.6719C120.708 15.1719 120.844 14.651 121.109 14.1094C121.38 13.5625 121.721 13.125 122.133 12.7969ZM124.758 12.7969L125.727 13.3984C125.253 14.0911 125.008 14.8125 124.992 15.5625V16.75H123.328V15.6719C123.333 15.1719 123.469 14.651 123.734 14.1094C124.005 13.5625 124.346 13.125 124.758 12.7969ZM129.367 14.4922V16.5469H130.859V17.9531H129.367V22.6719C129.367 22.9948 129.43 23.2292 129.555 23.375C129.685 23.5156 129.914 23.5859 130.242 23.5859C130.461 23.5859 130.682 23.5599 130.906 23.5078V24.9766C130.474 25.0964 130.057 25.1562 129.656 25.1562C128.198 25.1562 127.469 24.3516 127.469 22.7422V17.9531H126.078V16.5469H127.469V14.4922H129.367ZM131.727 20.6953C131.727 19.8672 131.891 19.1224 132.219 18.4609C132.547 17.7943 133.008 17.2839 133.602 16.9297C134.195 16.5703 134.878 16.3906 135.648 16.3906C136.789 16.3906 137.714 16.7578 138.422 17.4922C139.135 18.2266 139.521 19.2005 139.578 20.4141L139.586 20.8594C139.586 21.6927 139.424 22.4375 139.102 23.0938C138.784 23.75 138.326 24.2578 137.727 24.6172C137.133 24.9766 136.445 25.1562 135.664 25.1562C134.471 25.1562 133.516 24.7604 132.797 23.9688C132.083 23.1719 131.727 22.112 131.727 20.7891V20.6953ZM133.625 20.8594C133.625 21.7292 133.805 22.4115 134.164 22.9062C134.523 23.3958 135.023 23.6406 135.664 23.6406C136.305 23.6406 136.802 23.3906 137.156 22.8906C137.516 22.3906 137.695 21.6589 137.695 20.6953C137.695 19.8411 137.51 19.1641 137.141 18.6641C136.776 18.1641 136.279 17.9141 135.648 17.9141C135.029 17.9141 134.536 18.1615 134.172 18.6562C133.807 19.1458 133.625 19.8802 133.625 20.8594ZM143.57 14.4922V16.5469H145.062V17.9531H143.57V22.6719C143.57 22.9948 143.633 23.2292 143.758 23.375C143.888 23.5156 144.117 23.5859 144.445 23.5859C144.664 23.5859 144.885 23.5599 145.109 23.5078V24.9766C144.677 25.0964 144.26 25.1562 143.859 25.1562C142.401 25.1562 141.672 24.3516 141.672 22.7422V17.9531H140.281V16.5469H141.672V14.4922H143.57ZM145.93 20.6953C145.93 19.8672 146.094 19.1224 146.422 18.4609C146.75 17.7943 147.211 17.2839 147.805 16.9297C148.398 16.5703 149.081 16.3906 149.852 16.3906C150.992 16.3906 151.917 16.7578 152.625 17.4922C153.339 18.2266 153.724 19.2005 153.781 20.4141L153.789 20.8594C153.789 21.6927 153.628 22.4375 153.305 23.0938C152.987 23.75 152.529 24.2578 151.93 24.6172C151.336 24.9766 150.648 25.1562 149.867 25.1562C148.674 25.1562 147.719 24.7604 147 23.9688C146.286 23.1719 145.93 22.112 145.93 20.7891V20.6953ZM147.828 20.8594C147.828 21.7292 148.008 22.4115 148.367 22.9062C148.727 23.3958 149.227 23.6406 149.867 23.6406C150.508 23.6406 151.005 23.3906 151.359 22.8906C151.719 22.3906 151.898 21.6589 151.898 20.6953C151.898 19.8411 151.714 19.1641 151.344 18.6641C150.979 18.1641 150.482 17.9141 149.852 17.9141C149.232 17.9141 148.74 18.1615 148.375 18.6562C148.01 19.1458 147.828 19.8802 147.828 20.8594Z" fill="#FF5A43"/>
<path d="M0.5 8C0.5 3.85786 3.85786 0.5 8 0.5H221C225.142 0.5 228.5 3.85787 228.5 8V119.5H0.5V8Z" stroke="#5452F6"/>
</g>
<g filter="url(#filter5_d)">
<path d="M0 119H229V135C229 139.418 225.418 143 221 143H8.00001C3.58173 143 0 139.418 0 135V119Z" fill="#EEEEFF"/>
<path d="M0.5 119.5H228.5V135C228.5 139.142 225.142 142.5 221 142.5H8.00001C3.85787 142.5 0.5 139.142 0.5 135V119.5Z" stroke="#5452F6"/>
</g>
<g filter="url(#filter6_d)">
<path d="M0 8C0 3.58172 3.58172 0 8 0H221C225.418 0 229 3.58172 229 8V120H0V8Z" fill="white"/>
<line x1="0.5" y1="79.5" x2="228.5" y2="79.5" stroke="#5452F6"/>
<line x1="0.5" y1="39.5" x2="228.5" y2="39.5" stroke="#5452F6"/>
<path d="M18.5 96.5469L18.5547 97.4297C19.1484 96.737 19.9609 96.3906 20.9922 96.3906C22.1224 96.3906 22.8958 96.8229 23.3125 97.6875C23.9271 96.8229 24.7917 96.3906 25.9062 96.3906C26.8385 96.3906 27.5312 96.6484 27.9844 97.1641C28.4427 97.6797 28.6771 98.4401 28.6875 99.4453V105H26.7891V99.5C26.7891 98.9635 26.6719 98.5703 26.4375 98.3203C26.2031 98.0703 25.8151 97.9453 25.2734 97.9453C24.8411 97.9453 24.487 98.0625 24.2109 98.2969C23.9401 98.526 23.75 98.8281 23.6406 99.2031L23.6484 105H21.75V99.4375C21.724 98.4427 21.2161 97.9453 20.2266 97.9453C19.4661 97.9453 18.9271 98.2552 18.6094 98.875V105H16.7109V96.5469H18.5ZM35.6875 105C35.6042 104.839 35.5312 104.576 35.4688 104.211C34.8646 104.841 34.125 105.156 33.25 105.156C32.401 105.156 31.7083 104.914 31.1719 104.43C30.6354 103.945 30.3672 103.346 30.3672 102.633C30.3672 101.732 30.7005 101.042 31.3672 100.562C32.0391 100.078 32.9974 99.8359 34.2422 99.8359H35.4062V99.2812C35.4062 98.8438 35.2839 98.4948 35.0391 98.2344C34.7943 97.9688 34.4219 97.8359 33.9219 97.8359C33.4896 97.8359 33.1354 97.9453 32.8594 98.1641C32.5833 98.3776 32.4453 98.651 32.4453 98.9844H30.5469C30.5469 98.5208 30.7005 98.0885 31.0078 97.6875C31.3151 97.2812 31.7318 96.9635 32.2578 96.7344C32.7891 96.5052 33.3802 96.3906 34.0312 96.3906C35.0208 96.3906 35.8099 96.6406 36.3984 97.1406C36.987 97.6354 37.2891 98.3333 37.3047 99.2344V103.047C37.3047 103.807 37.4115 104.414 37.625 104.867V105H35.6875ZM33.6016 103.633C33.9766 103.633 34.3281 103.542 34.6562 103.359C34.9896 103.177 35.2396 102.932 35.4062 102.625V101.031H34.3828C33.6797 101.031 33.151 101.154 32.7969 101.398C32.4427 101.643 32.2656 101.99 32.2656 102.438C32.2656 102.802 32.3854 103.094 32.625 103.312C32.8698 103.526 33.1953 103.633 33.6016 103.633ZM46.6953 100.859C46.6953 102.167 46.3984 103.211 45.8047 103.992C45.2109 104.768 44.4141 105.156 43.4141 105.156C42.487 105.156 41.7448 104.852 41.1875 104.242V108.25H39.2891V96.5469H41.0391L41.1172 97.4062C41.6745 96.7292 42.4323 96.3906 43.3906 96.3906C44.4219 96.3906 45.2292 96.776 45.8125 97.5469C46.401 98.3125 46.6953 99.3776 46.6953 100.742V100.859ZM44.8047 100.695C44.8047 99.8516 44.6354 99.1823 44.2969 98.6875C43.9635 98.1927 43.4844 97.9453 42.8594 97.9453C42.0833 97.9453 41.526 98.2656 41.1875 98.9062V102.656C41.5312 103.312 42.0938 103.641 42.875 103.641C43.4792 103.641 43.9505 103.398 44.2891 102.914C44.6328 102.424 44.8047 101.685 44.8047 100.695ZM57.0312 102.703C57.0312 102.365 56.8906 102.107 56.6094 101.93C56.3333 101.753 55.8724 101.596 55.2266 101.461C54.5807 101.326 54.0417 101.154 53.6094 100.945C52.6615 100.487 52.1875 99.8229 52.1875 98.9531C52.1875 98.224 52.4948 97.6146 53.1094 97.125C53.724 96.6354 54.5052 96.3906 55.4531 96.3906C56.4635 96.3906 57.2786 96.6406 57.8984 97.1406C58.5234 97.6406 58.8359 98.2891 58.8359 99.0859H56.9375C56.9375 98.7214 56.8021 98.4193 56.5312 98.1797C56.2604 97.9349 55.901 97.8125 55.4531 97.8125C55.0365 97.8125 54.6953 97.9089 54.4297 98.1016C54.1693 98.2943 54.0391 98.5521 54.0391 98.875C54.0391 99.1667 54.1615 99.3932 54.4062 99.5547C54.651 99.7161 55.1458 99.8802 55.8906 100.047C56.6354 100.208 57.2188 100.404 57.6406 100.633C58.0677 100.857 58.3828 101.128 58.5859 101.445C58.7943 101.763 58.8984 102.148 58.8984 102.602C58.8984 103.362 58.5833 103.979 57.9531 104.453C57.3229 104.922 56.4974 105.156 55.4766 105.156C54.7839 105.156 54.1667 105.031 53.625 104.781C53.0833 104.531 52.6615 104.188 52.3594 103.75C52.0573 103.312 51.9062 102.841 51.9062 102.336H53.75C53.776 102.784 53.9453 103.13 54.2578 103.375C54.5703 103.615 54.9844 103.734 55.5 103.734C56 103.734 56.3802 103.641 56.6406 103.453C56.901 103.26 57.0312 103.01 57.0312 102.703ZM62.9375 94.4922V96.5469H64.4297V97.9531H62.9375V102.672C62.9375 102.995 63 103.229 63.125 103.375C63.2552 103.516 63.4844 103.586 63.8125 103.586C64.0312 103.586 64.2526 103.56 64.4766 103.508V104.977C64.0443 105.096 63.6276 105.156 63.2266 105.156C61.7682 105.156 61.0391 104.352 61.0391 102.742V97.9531H59.6484V96.5469H61.0391V94.4922H62.9375ZM70.3125 98.2812C70.0625 98.2396 69.8047 98.2188 69.5391 98.2188C68.6693 98.2188 68.0833 98.5521 67.7812 99.2188V105H65.8828V96.5469H67.6953L67.7422 97.4922C68.2005 96.7578 68.8359 96.3906 69.6484 96.3906C69.9193 96.3906 70.1432 96.4271 70.3203 96.5L70.3125 98.2812ZM73.5312 105H71.6328V96.5469H73.5312V105ZM71.5156 94.3516C71.5156 94.0599 71.6068 93.8177 71.7891 93.625C71.9766 93.4323 72.2422 93.3359 72.5859 93.3359C72.9297 93.3359 73.1953 93.4323 73.3828 93.625C73.5703 93.8177 73.6641 94.0599 73.6641 94.3516C73.6641 94.638 73.5703 94.8776 73.3828 95.0703C73.1953 95.2578 72.9297 95.3516 72.5859 95.3516C72.2422 95.3516 71.9766 95.2578 71.7891 95.0703C71.6068 94.8776 71.5156 94.638 71.5156 94.3516ZM77.3672 96.5469L77.4219 97.5234C78.0469 96.7682 78.8672 96.3906 79.8828 96.3906C81.6432 96.3906 82.5391 97.3984 82.5703 99.4141V105H80.6719V99.5234C80.6719 98.987 80.5547 98.5911 80.3203 98.3359C80.0911 98.0755 79.7135 97.9453 79.1875 97.9453C78.4219 97.9453 77.8516 98.2917 77.4766 98.9844V105H75.5781V96.5469H77.3672ZM84.1797 100.711C84.1797 99.3984 84.487 98.3516 85.1016 97.5703C85.7214 96.7839 86.5417 96.3906 87.5625 96.3906C88.526 96.3906 89.2839 96.7266 89.8359 97.3984L89.9219 96.5469H91.6328V104.742C91.6328 105.852 91.2865 106.727 90.5938 107.367C89.9062 108.008 88.9766 108.328 87.8047 108.328C87.1849 108.328 86.5781 108.198 85.9844 107.938C85.3958 107.682 84.9479 107.346 84.6406 106.93L85.5391 105.789C86.1224 106.482 86.8411 106.828 87.6953 106.828C88.3255 106.828 88.8229 106.656 89.1875 106.312C89.5521 105.974 89.7344 105.474 89.7344 104.812V104.242C89.1875 104.852 88.4583 105.156 87.5469 105.156C86.5573 105.156 85.7474 104.763 85.1172 103.977C84.4922 103.19 84.1797 102.102 84.1797 100.711ZM86.0703 100.875C86.0703 101.724 86.2422 102.393 86.5859 102.883C86.9349 103.367 87.4167 103.609 88.0312 103.609C88.7969 103.609 89.3646 103.281 89.7344 102.625V98.9062C89.375 98.2656 88.8125 97.9453 88.0469 97.9453C87.4219 97.9453 86.9349 98.1927 86.5859 98.6875C86.2422 99.1823 86.0703 99.9115 86.0703 100.875ZM99.5938 105H97.6953V96.5469H99.5938V105ZM97.5781 94.3516C97.5781 94.0599 97.6693 93.8177 97.8516 93.625C98.0391 93.4323 98.3047 93.3359 98.6484 93.3359C98.9922 93.3359 99.2578 93.4323 99.4453 93.625C99.6328 93.8177 99.7266 94.0599 99.7266 94.3516C99.7266 94.638 99.6328 94.8776 99.4453 95.0703C99.2578 95.2578 98.9922 95.3516 98.6484 95.3516C98.3047 95.3516 98.0391 95.2578 97.8516 95.0703C97.6693 94.8776 97.5781 94.638 97.5781 94.3516ZM103.43 96.5469L103.484 97.5234C104.109 96.7682 104.93 96.3906 105.945 96.3906C107.706 96.3906 108.602 97.3984 108.633 99.4141V105H106.734V99.5234C106.734 98.987 106.617 98.5911 106.383 98.3359C106.154 98.0755 105.776 97.9453 105.25 97.9453C104.484 97.9453 103.914 98.2917 103.539 98.9844V105H101.641V96.5469H103.43ZM112.953 94.4922V96.5469H114.445V97.9531H112.953V102.672C112.953 102.995 113.016 103.229 113.141 103.375C113.271 103.516 113.5 103.586 113.828 103.586C114.047 103.586 114.268 103.56 114.492 103.508V104.977C114.06 105.096 113.643 105.156 113.242 105.156C111.784 105.156 111.055 104.352 111.055 102.742V97.9531H109.664V96.5469H111.055V94.4922H112.953ZM123.672 107.812C121.833 107.297 120.896 106.122 120.859 104.289V102.625C120.859 101.453 120.357 100.867 119.352 100.867V99.4766C120.357 99.4766 120.859 98.888 120.859 97.7109V96.0547C120.875 95.1172 121.117 94.3594 121.586 93.7812C122.06 93.2031 122.755 92.7839 123.672 92.5234L124.047 93.6172C123.146 93.9089 122.68 94.7057 122.648 96.0078V97.6953C122.648 98.8672 122.198 99.6901 121.297 100.164C122.198 100.643 122.648 101.474 122.648 102.656V104.32C122.68 105.622 123.146 106.419 124.047 106.711L123.672 107.812ZM136.078 99.9219H131.406V103.422H136.867V105H129.43V93.625H136.812V95.2188H131.406V98.3594H136.078V99.9219ZM140.312 105H138.414V93H140.312V105ZM144.766 94.4922V96.5469H146.258V97.9531H144.766V102.672C144.766 102.995 144.828 103.229 144.953 103.375C145.083 103.516 145.312 103.586 145.641 103.586C145.859 103.586 146.081 103.56 146.305 103.508V104.977C145.872 105.096 145.456 105.156 145.055 105.156C143.596 105.156 142.867 104.352 142.867 102.742V97.9531H141.477V96.5469H142.867V94.4922H144.766ZM153 92.7969L153.969 93.3984C153.495 94.0911 153.25 94.8125 153.234 95.5625V96.75H151.57V95.6719C151.576 95.1719 151.711 94.651 151.977 94.1094C152.247 93.5625 152.589 93.125 153 92.7969ZM155.625 92.7969L156.594 93.3984C156.12 94.0911 155.875 94.8125 155.859 95.5625V96.75H154.195V95.6719C154.201 95.1719 154.336 94.651 154.602 94.1094C154.872 93.5625 155.214 93.125 155.625 92.7969ZM160.234 94.4922V96.5469H161.727V97.9531H160.234V102.672C160.234 102.995 160.297 103.229 160.422 103.375C160.552 103.516 160.781 103.586 161.109 103.586C161.328 103.586 161.549 103.56 161.773 103.508V104.977C161.341 105.096 160.924 105.156 160.523 105.156C159.065 105.156 158.336 104.352 158.336 102.742V97.9531H156.945V96.5469H158.336V94.4922H160.234ZM162.594 100.695C162.594 99.8672 162.758 99.1224 163.086 98.4609C163.414 97.7943 163.875 97.2839 164.469 96.9297C165.062 96.5703 165.745 96.3906 166.516 96.3906C167.656 96.3906 168.581 96.7578 169.289 97.4922C170.003 98.2266 170.388 99.2005 170.445 100.414L170.453 100.859C170.453 101.693 170.292 102.438 169.969 103.094C169.651 103.75 169.193 104.258 168.594 104.617C168 104.977 167.312 105.156 166.531 105.156C165.339 105.156 164.383 104.76 163.664 103.969C162.951 103.172 162.594 102.112 162.594 100.789V100.695ZM164.492 100.859C164.492 101.729 164.672 102.411 165.031 102.906C165.391 103.396 165.891 103.641 166.531 103.641C167.172 103.641 167.669 103.391 168.023 102.891C168.383 102.391 168.562 101.659 168.562 100.695C168.562 99.8411 168.378 99.1641 168.008 98.6641C167.643 98.1641 167.146 97.9141 166.516 97.9141C165.896 97.9141 165.404 98.1615 165.039 98.6562C164.674 99.1458 164.492 99.8802 164.492 100.859ZM174.438 94.4922V96.5469H175.93V97.9531H174.438V102.672C174.438 102.995 174.5 103.229 174.625 103.375C174.755 103.516 174.984 103.586 175.312 103.586C175.531 103.586 175.753 103.56 175.977 103.508V104.977C175.544 105.096 175.128 105.156 174.727 105.156C173.268 105.156 172.539 104.352 172.539 102.742V97.9531H171.148V96.5469H172.539V94.4922H174.438ZM176.797 100.695C176.797 99.8672 176.961 99.1224 177.289 98.4609C177.617 97.7943 178.078 97.2839 178.672 96.9297C179.266 96.5703 179.948 96.3906 180.719 96.3906C181.859 96.3906 182.784 96.7578 183.492 97.4922C184.206 98.2266 184.591 99.2005 184.648 100.414L184.656 100.859C184.656 101.693 184.495 102.438 184.172 103.094C183.854 103.75 183.396 104.258 182.797 104.617C182.203 104.977 181.516 105.156 180.734 105.156C179.542 105.156 178.586 104.76 177.867 103.969C177.154 103.172 176.797 102.112 176.797 100.789V100.695ZM178.695 100.859C178.695 101.729 178.875 102.411 179.234 102.906C179.594 103.396 180.094 103.641 180.734 103.641C181.375 103.641 181.872 103.391 182.227 102.891C182.586 102.391 182.766 101.659 182.766 100.695C182.766 99.8411 182.581 99.1641 182.211 98.6641C181.846 98.1641 181.349 97.9141 180.719 97.9141C180.099 97.9141 179.607 98.1615 179.242 98.6562C178.878 99.1458 178.695 99.8802 178.695 100.859ZM186.07 97L185.102 96.3984C185.57 95.7161 185.812 94.9948 185.828 94.2344V93H187.492V94.0781C187.492 94.6146 187.354 95.1562 187.078 95.7031C186.807 96.2448 186.471 96.6771 186.07 97ZM188.68 97L187.711 96.3984C188.18 95.7161 188.422 94.9948 188.438 94.2344V93H190.102V94.0781C190.102 94.6146 189.964 95.1562 189.688 95.7031C189.417 96.2448 189.081 96.6771 188.68 97ZM200.797 105H198.906V95.8672L196.117 96.8203V95.2188L200.555 93.5859H200.797V105ZM208.094 106.711C209.01 106.414 209.479 105.602 209.5 104.273V102.648C209.5 101.445 209.974 100.62 210.922 100.172C209.974 99.724 209.5 98.8906 209.5 97.6719V96.0547C209.479 94.7266 209.01 93.9141 208.094 93.6172L208.469 92.5234C209.417 92.7891 210.122 93.2214 210.586 93.8203C211.049 94.4141 211.281 95.1927 211.281 96.1562V97.7188C211.281 98.8906 211.786 99.4766 212.797 99.4766V100.867C211.786 100.867 211.281 101.453 211.281 102.625V104.164C211.281 105.138 211.047 105.922 210.578 106.516C210.115 107.115 209.411 107.547 208.469 107.812L208.094 106.711Z" fill="#5452F6"/>
<path d="M82.0234 62.0703C82.0234 61.5703 81.8464 61.1849 81.4922 60.9141C81.1432 60.6432 80.5104 60.3698 79.5938 60.0938C78.6771 59.8177 77.9479 59.5104 77.4062 59.1719C76.3698 58.5208 75.8516 57.6719 75.8516 56.625C75.8516 55.7083 76.224 54.9531 76.9688 54.3594C77.7188 53.7656 78.6901 53.4688 79.8828 53.4688C80.6745 53.4688 81.3802 53.6146 82 53.9062C82.6198 54.1979 83.1068 54.6146 83.4609 55.1562C83.8151 55.6927 83.9922 56.2891 83.9922 56.9453H82.0234C82.0234 56.3516 81.8359 55.888 81.4609 55.5547C81.0911 55.2161 80.5599 55.0469 79.8672 55.0469C79.2214 55.0469 78.7188 55.1849 78.3594 55.4609C78.0052 55.737 77.8281 56.1224 77.8281 56.6172C77.8281 57.0339 78.0208 57.3828 78.4062 57.6641C78.7917 57.9401 79.4271 58.2109 80.3125 58.4766C81.1979 58.737 81.9089 59.0365 82.4453 59.375C82.9818 59.7083 83.375 60.0938 83.625 60.5312C83.875 60.9635 84 61.4714 84 62.0547C84 63.0026 83.6354 63.7578 82.9062 64.3203C82.1823 64.8776 81.1979 65.1562 79.9531 65.1562C79.1302 65.1562 78.3724 65.0052 77.6797 64.7031C76.9922 64.3958 76.4557 63.974 76.0703 63.4375C75.6901 62.901 75.5 62.276 75.5 61.5625H77.4766C77.4766 62.2083 77.6901 62.7083 78.1172 63.0625C78.5443 63.4167 79.1562 63.5938 79.9531 63.5938C80.6406 63.5938 81.1562 63.4557 81.5 63.1797C81.849 62.8984 82.0234 62.5286 82.0234 62.0703ZM94.8125 59.6094C94.8125 60.724 94.6198 61.7031 94.2344 62.5469C93.849 63.3854 93.2969 64.0312 92.5781 64.4844C91.8646 64.9323 91.0417 65.1562 90.1094 65.1562C89.1875 65.1562 88.3646 64.9323 87.6406 64.4844C86.9219 64.0312 86.3646 63.388 85.9688 62.5547C85.5781 61.7214 85.3802 60.7604 85.375 59.6719V59.0312C85.375 57.9219 85.5703 56.9427 85.9609 56.0938C86.3568 55.2448 86.9115 54.5964 87.625 54.1484C88.3438 53.6953 89.1667 53.4688 90.0938 53.4688C91.0208 53.4688 91.8411 53.6927 92.5547 54.1406C93.2734 54.5833 93.8281 55.224 94.2188 56.0625C94.6094 56.8958 94.8073 57.8672 94.8125 58.9766V59.6094ZM92.8359 59.0156C92.8359 57.7552 92.5964 56.7891 92.1172 56.1172C91.6432 55.4453 90.9688 55.1094 90.0938 55.1094C89.2396 55.1094 88.5703 55.4453 88.0859 56.1172C87.6068 56.7839 87.362 57.7292 87.3516 58.9531V59.6094C87.3516 60.8594 87.5938 61.8255 88.0781 62.5078C88.5677 63.1901 89.2448 63.5312 90.1094 63.5312C90.9844 63.5312 91.6562 63.1979 92.125 62.5312C92.599 61.8646 92.8359 60.8906 92.8359 59.6094V59.0156ZM99.3438 53.625L102.625 62.3438L105.898 53.625H108.453V65H106.484V61.25L106.68 56.2344L103.32 65H101.906L98.5547 56.2422L98.75 61.25V65H96.7812V53.625H99.3438ZM117.445 59.9219H112.773V63.4219H118.234V65H110.797V53.625H118.18V55.2188H112.773V58.3594H117.445V59.9219ZM125.664 65H123.766V56.5469H125.664V65ZM123.648 54.3516C123.648 54.0599 123.74 53.8177 123.922 53.625C124.109 53.4323 124.375 53.3359 124.719 53.3359C125.062 53.3359 125.328 53.4323 125.516 53.625C125.703 53.8177 125.797 54.0599 125.797 54.3516C125.797 54.638 125.703 54.8776 125.516 55.0703C125.328 55.2578 125.062 55.3516 124.719 55.3516C124.375 55.3516 124.109 55.2578 123.922 55.0703C123.74 54.8776 123.648 54.638 123.648 54.3516ZM129.5 56.5469L129.555 57.5234C130.18 56.7682 131 56.3906 132.016 56.3906C133.776 56.3906 134.672 57.3984 134.703 59.4141V65H132.805V59.5234C132.805 58.987 132.688 58.5911 132.453 58.3359C132.224 58.0755 131.846 57.9453 131.32 57.9453C130.555 57.9453 129.984 58.2917 129.609 58.9844V65H127.711V56.5469H129.5ZM139.023 54.4922V56.5469H140.516V57.9531H139.023V62.6719C139.023 62.9948 139.086 63.2292 139.211 63.375C139.341 63.5156 139.57 63.5859 139.898 63.5859C140.117 63.5859 140.339 63.5599 140.562 63.5078V64.9766C140.13 65.0964 139.714 65.1562 139.312 65.1562C137.854 65.1562 137.125 64.3516 137.125 62.7422V57.9531H135.734V56.5469H137.125V54.4922H139.023ZM153.484 65H145.836V63.6953L149.625 59.5625C150.172 58.9531 150.56 58.4453 150.789 58.0391C151.023 57.6276 151.141 57.2161 151.141 56.8047C151.141 56.263 150.987 55.8255 150.68 55.4922C150.378 55.1589 149.969 54.9922 149.453 54.9922C148.839 54.9922 148.362 55.1797 148.023 55.5547C147.685 55.9297 147.516 56.4427 147.516 57.0938H145.617C145.617 56.401 145.773 55.7786 146.086 55.2266C146.404 54.6693 146.854 54.237 147.438 53.9297C148.026 53.6224 148.703 53.4688 149.469 53.4688C150.573 53.4688 151.443 53.7474 152.078 54.3047C152.719 54.8568 153.039 55.6224 153.039 56.6016C153.039 57.1693 152.878 57.7656 152.555 58.3906C152.237 59.0104 151.714 59.7161 150.984 60.5078L148.203 63.4844H153.484V65Z" fill="#FF5A43"/>
<path d="M77.1641 22.7031C77.1641 22.3646 77.0234 22.1068 76.7422 21.9297C76.4661 21.7526 76.0052 21.5964 75.3594 21.4609C74.7135 21.3255 74.1745 21.1536 73.7422 20.9453C72.7943 20.487 72.3203 19.8229 72.3203 18.9531C72.3203 18.224 72.6276 17.6146 73.2422 17.125C73.8568 16.6354 74.638 16.3906 75.5859 16.3906C76.5964 16.3906 77.4115 16.6406 78.0312 17.1406C78.6562 17.6406 78.9688 18.2891 78.9688 19.0859H77.0703C77.0703 18.7214 76.9349 18.4193 76.6641 18.1797C76.3932 17.9349 76.0339 17.8125 75.5859 17.8125C75.1693 17.8125 74.8281 17.9089 74.5625 18.1016C74.3021 18.2943 74.1719 18.5521 74.1719 18.875C74.1719 19.1667 74.2943 19.3932 74.5391 19.5547C74.7839 19.7161 75.2786 19.8802 76.0234 20.0469C76.7682 20.2083 77.3516 20.4036 77.7734 20.6328C78.2005 20.8568 78.5156 21.1276 78.7188 21.4453C78.9271 21.763 79.0312 22.1484 79.0312 22.6016C79.0312 23.362 78.7161 23.9792 78.0859 24.4531C77.4557 24.9219 76.6302 25.1562 75.6094 25.1562C74.9167 25.1562 74.2995 25.0312 73.7578 24.7812C73.2161 24.5312 72.7943 24.1875 72.4922 23.75C72.1901 23.3125 72.0391 22.8411 72.0391 22.3359H73.8828C73.9089 22.7839 74.0781 23.1302 74.3906 23.375C74.7031 23.6146 75.1172 23.7344 75.6328 23.7344C76.1328 23.7344 76.513 23.6406 76.7734 23.4531C77.0339 23.2604 77.1641 23.0104 77.1641 22.7031ZM83.0703 14.4922V16.5469H84.5625V17.9531H83.0703V22.6719C83.0703 22.9948 83.1328 23.2292 83.2578 23.375C83.388 23.5156 83.6172 23.5859 83.9453 23.5859C84.1641 23.5859 84.3854 23.5599 84.6094 23.5078V24.9766C84.1771 25.0964 83.7604 25.1562 83.3594 25.1562C81.901 25.1562 81.1719 24.3516 81.1719 22.7422V17.9531H79.7812V16.5469H81.1719V14.4922H83.0703ZM90.4453 18.2812C90.1953 18.2396 89.9375 18.2188 89.6719 18.2188C88.8021 18.2188 88.2161 18.5521 87.9141 19.2188V25H86.0156V16.5469H87.8281L87.875 17.4922C88.3333 16.7578 88.9688 16.3906 89.7812 16.3906C90.0521 16.3906 90.276 16.4271 90.4531 16.5L90.4453 18.2812ZM93.6641 25H91.7656V16.5469H93.6641V25ZM91.6484 14.3516C91.6484 14.0599 91.7396 13.8177 91.9219 13.625C92.1094 13.4323 92.375 13.3359 92.7188 13.3359C93.0625 13.3359 93.3281 13.4323 93.5156 13.625C93.7031 13.8177 93.7969 14.0599 93.7969 14.3516C93.7969 14.638 93.7031 14.8776 93.5156 15.0703C93.3281 15.2578 93.0625 15.3516 92.7188 15.3516C92.375 15.3516 92.1094 15.2578 91.9219 15.0703C91.7396 14.8776 91.6484 14.638 91.6484 14.3516ZM97.5 16.5469L97.5547 17.5234C98.1797 16.7682 99 16.3906 100.016 16.3906C101.776 16.3906 102.672 17.3984 102.703 19.4141V25H100.805V19.5234C100.805 18.987 100.688 18.5911 100.453 18.3359C100.224 18.0755 99.8464 17.9453 99.3203 17.9453C98.5547 17.9453 97.9844 18.2917 97.6094 18.9844V25H95.7109V16.5469H97.5ZM104.312 20.7109C104.312 19.3984 104.62 18.3516 105.234 17.5703C105.854 16.7839 106.674 16.3906 107.695 16.3906C108.659 16.3906 109.417 16.7266 109.969 17.3984L110.055 16.5469H111.766V24.7422C111.766 25.8516 111.419 26.7266 110.727 27.3672C110.039 28.0078 109.109 28.3281 107.938 28.3281C107.318 28.3281 106.711 28.1979 106.117 27.9375C105.529 27.6823 105.081 27.3464 104.773 26.9297L105.672 25.7891C106.255 26.4818 106.974 26.8281 107.828 26.8281C108.458 26.8281 108.956 26.6562 109.32 26.3125C109.685 25.974 109.867 25.474 109.867 24.8125V24.2422C109.32 24.8516 108.591 25.1562 107.68 25.1562C106.69 25.1562 105.88 24.763 105.25 23.9766C104.625 23.1901 104.312 22.1016 104.312 20.7109ZM106.203 20.875C106.203 21.724 106.375 22.3932 106.719 22.8828C107.068 23.3672 107.549 23.6094 108.164 23.6094C108.93 23.6094 109.497 23.2812 109.867 22.625V18.9062C109.508 18.2656 108.945 17.9453 108.18 17.9453C107.555 17.9453 107.068 18.1927 106.719 18.6875C106.375 19.1823 106.203 19.9115 106.203 20.875ZM119.008 12.7969L119.977 13.3984C119.503 14.0911 119.258 14.8125 119.242 15.5625V16.75H117.578V15.6719C117.583 15.1719 117.719 14.651 117.984 14.1094C118.255 13.5625 118.596 13.125 119.008 12.7969ZM121.633 12.7969L122.602 13.3984C122.128 14.0911 121.883 14.8125 121.867 15.5625V16.75H120.203V15.6719C120.208 15.1719 120.344 14.651 120.609 14.1094C120.88 13.5625 121.221 13.125 121.633 12.7969ZM126.242 14.4922V16.5469H127.734V17.9531H126.242V22.6719C126.242 22.9948 126.305 23.2292 126.43 23.375C126.56 23.5156 126.789 23.5859 127.117 23.5859C127.336 23.5859 127.557 23.5599 127.781 23.5078V24.9766C127.349 25.0964 126.932 25.1562 126.531 25.1562C125.073 25.1562 124.344 24.3516 124.344 22.7422V17.9531H122.953V16.5469H124.344V14.4922H126.242ZM134.312 24.1719C133.755 24.8281 132.964 25.1562 131.938 25.1562C131.021 25.1562 130.326 24.888 129.852 24.3516C129.383 23.8151 129.148 23.0391 129.148 22.0234V16.5469H131.047V22C131.047 23.0729 131.492 23.6094 132.383 23.6094C133.305 23.6094 133.927 23.2786 134.25 22.6172V16.5469H136.148V25H134.359L134.312 24.1719ZM140.461 14.4922V16.5469H141.953V17.9531H140.461V22.6719C140.461 22.9948 140.523 23.2292 140.648 23.375C140.779 23.5156 141.008 23.5859 141.336 23.5859C141.555 23.5859 141.776 23.5599 142 23.5078V24.9766C141.568 25.0964 141.151 25.1562 140.75 25.1562C139.292 25.1562 138.562 24.3516 138.562 22.7422V17.9531H137.172V16.5469H138.562V14.4922H140.461ZM148.531 24.1719C147.974 24.8281 147.182 25.1562 146.156 25.1562C145.24 25.1562 144.544 24.888 144.07 24.3516C143.602 23.8151 143.367 23.0391 143.367 22.0234V16.5469H145.266V22C145.266 23.0729 145.711 23.6094 146.602 23.6094C147.523 23.6094 148.146 23.2786 148.469 22.6172V16.5469H150.367V25H148.578L148.531 24.1719ZM152.797 17L151.828 16.3984C152.297 15.7161 152.539 14.9948 152.555 14.2344V13H154.219V14.0781C154.219 14.6146 154.081 15.1562 153.805 15.7031C153.534 16.2448 153.198 16.6771 152.797 17ZM155.406 17L154.438 16.3984C154.906 15.7161 155.148 14.9948 155.164 14.2344V13H156.828V14.0781C156.828 14.6146 156.69 15.1562 156.414 15.7031C156.143 16.2448 155.807 16.6771 155.406 17Z" fill="#FF5A43"/>
<path d="M0.5 8C0.5 3.85786 3.85786 0.5 8 0.5H221C225.142 0.5 228.5 3.85787 228.5 8V119.5H0.5V8Z" stroke="#5452F6"/>
</g>
<g filter="url(#filter7_d)">
<path d="M0 119H229V135C229 139.418 225.418 143 221 143H8.00001C3.58173 143 0 139.418 0 135V119Z" fill="#EEEEFF"/>
<path d="M0.5 119.5H228.5V135C228.5 139.142 225.142 142.5 221 142.5H8.00001C3.85787 142.5 0.5 139.142 0.5 135V119.5Z" stroke="#5452F6"/>
</g>
<defs>
<filter id="filter0_d" x="400" y="79" width="233" height="45" filterUnits="userSpaceOnUse" color-interpolation-filters="sRGB">
<feFlood flood-opacity="0" result="BackgroundImageFix"/>
<feColorMatrix in="SourceAlpha" type="matrix" values="0 0 0 0 0 0 0 0 0 0 0 0 0 0 0 0 0 0 127 0"/>
<feOffset dx="4" dy="4"/>
<feColorMatrix type="matrix" values="0 0 0 0 0.674908 0 0 0 0 0.662083 0 0 0 0 0.945833 0 0 0 1 0"/>
<feBlend mode="normal" in2="BackgroundImageFix" result="effect1_dropShadow"/>
<feBlend mode="normal" in="SourceGraphic" in2="effect1_dropShadow" result="shape"/>
</filter>
<filter id="filter1_d" x="400" y="119" width="233" height="28" filterUnits="userSpaceOnUse" color-interpolation-filters="sRGB">
<feFlood flood-opacity="0" result="BackgroundImageFix"/>
<feColorMatrix in="SourceAlpha" type="matrix" values="0 0 0 0 0 0 0 0 0 0 0 0 0 0 0 0 0 0 127 0"/>
<feOffset dx="4" dy="4"/>
<feColorMatrix type="matrix" values="0 0 0 0 0.674908 0 0 0 0 0.662083 0 0 0 0 0.945833 0 0 0 1 0"/>
<feBlend mode="normal" in2="BackgroundImageFix" result="effect1_dropShadow"/>
<feBlend mode="normal" in="SourceGraphic" in2="effect1_dropShadow" result="shape"/>
</filter>
<filter id="filter2_d" x="400" y="79" width="233" height="45" filterUnits="userSpaceOnUse" color-interpolation-filters="sRGB">
<feFlood flood-opacity="0" result="BackgroundImageFix"/>
<feColorMatrix in="SourceAlpha" type="matrix" values="0 0 0 0 0 0 0 0 0 0 0 0 0 0 0 0 0 0 127 0"/>
<feOffset dx="4" dy="4"/>
<feColorMatrix type="matrix" values="0 0 0 0 0.674908 0 0 0 0 0.662083 0 0 0 0 0.945833 0 0 0 1 0"/>
<feBlend mode="normal" in2="BackgroundImageFix" result="effect1_dropShadow"/>
<feBlend mode="normal" in="SourceGraphic" in2="effect1_dropShadow" result="shape"/>
</filter>
<filter id="filter3_d" x="400" y="119" width="233" height="28" filterUnits="userSpaceOnUse" color-interpolation-filters="sRGB">
<feFlood flood-opacity="0" result="BackgroundImageFix"/>
<feColorMatrix in="SourceAlpha" type="matrix" values="0 0 0 0 0 0 0 0 0 0 0 0 0 0 0 0 0 0 127 0"/>
<feOffset dx="4" dy="4"/>
<feColorMatrix type="matrix" values="0 0 0 0 0.674908 0 0 0 0 0.662083 0 0 0 0 0.945833 0 0 0 1 0"/>
<feBlend mode="normal" in2="BackgroundImageFix" result="effect1_dropShadow"/>
<feBlend mode="normal" in="SourceGraphic" in2="effect1_dropShadow" result="shape"/>
</filter>
<filter id="filter4_d" x="0" y="0" width="233" height="124" filterUnits="userSpaceOnUse" color-interpolation-filters="sRGB">
<feFlood flood-opacity="0" result="BackgroundImageFix"/>
<feColorMatrix in="SourceAlpha" type="matrix" values="0 0 0 0 0 0 0 0 0 0 0 0 0 0 0 0 0 0 127 0"/>
<feOffset dx="4" dy="4"/>
<feColorMatrix type="matrix" values="0 0 0 0 0.674908 0 0 0 0 0.662083 0 0 0 0 0.945833 0 0 0 1 0"/>
<feBlend mode="normal" in2="BackgroundImageFix" result="effect1_dropShadow"/>
<feBlend mode="normal" in="SourceGraphic" in2="effect1_dropShadow" result="shape"/>
</filter>
<filter id="filter5_d" x="0" y="119" width="233" height="28" filterUnits="userSpaceOnUse" color-interpolation-filters="sRGB">
<feFlood flood-opacity="0" result="BackgroundImageFix"/>
<feColorMatrix in="SourceAlpha" type="matrix" values="0 0 0 0 0 0 0 0 0 0 0 0 0 0 0 0 0 0 127 0"/>
<feOffset dx="4" dy="4"/>
<feColorMatrix type="matrix" values="0 0 0 0 0.674908 0 0 0 0 0.662083 0 0 0 0 0.945833 0 0 0 1 0"/>
<feBlend mode="normal" in2="BackgroundImageFix" result="effect1_dropShadow"/>
<feBlend mode="normal" in="SourceGraphic" in2="effect1_dropShadow" result="shape"/>
</filter>
<filter id="filter6_d" x="0" y="0" width="233" height="124" filterUnits="userSpaceOnUse" color-interpolation-filters="sRGB">
<feFlood flood-opacity="0" result="BackgroundImageFix"/>
<feColorMatrix in="SourceAlpha" type="matrix" values="0 0 0 0 0 0 0 0 0 0 0 0 0 0 0 0 0 0 127 0"/>
<feOffset dx="4" dy="4"/>
<feColorMatrix type="matrix" values="0 0 0 0 0.674908 0 0 0 0 0.662083 0 0 0 0 0.945833 0 0 0 1 0"/>
<feBlend mode="normal" in2="BackgroundImageFix" result="effect1_dropShadow"/>
<feBlend mode="normal" in="SourceGraphic" in2="effect1_dropShadow" result="shape"/>
</filter>
<filter id="filter7_d" x="0" y="119" width="233" height="28" filterUnits="userSpaceOnUse" color-interpolation-filters="sRGB">
<feFlood flood-opacity="0" result="BackgroundImageFix"/>
<feColorMatrix in="SourceAlpha" type="matrix" values="0 0 0 0 0 0 0 0 0 0 0 0 0 0 0 0 0 0 127 0"/>
<feOffset dx="4" dy="4"/>
<feColorMatrix type="matrix" values="0 0 0 0 0.674908 0 0 0 0 0.662083 0 0 0 0 0.945833 0 0 0 1 0"/>
<feBlend mode="normal" in2="BackgroundImageFix" result="effect1_dropShadow"/>
<feBlend mode="normal" in="SourceGraphic" in2="effect1_dropShadow" result="shape"/>
</filter>
</defs>
</svg>
