<svg width="633" height="147" viewBox="0 0 633 147" fill="none" xmlns="http://www.w3.org/2000/svg">
<line x1="252" y1="119.5" x2="386" y2="119.5" stroke="#65BF73" stroke-width="2"/>
<path d="M376 110L386.5 119.5L376 128.5" stroke="#65BF73" stroke-width="2" stroke-linecap="round" stroke-linejoin="round"/>
<circle cx="247.5" cy="120" r="5.5" stroke="#65BF73" stroke-width="2"/>
<path d="M246.227 100.773V105H244.25V93.625H248.602C249.872 93.625 250.88 93.9557 251.625 94.6172C252.375 95.2786 252.75 96.1536 252.75 97.2422C252.75 98.3568 252.383 99.224 251.648 99.8438C250.919 100.464 249.896 100.773 248.578 100.773H246.227ZM246.227 99.1875H248.602C249.305 99.1875 249.841 99.0234 250.211 98.6953C250.581 98.362 250.766 97.8828 250.766 97.2578C250.766 96.6432 250.578 96.1536 250.203 95.7891C249.828 95.4193 249.312 95.2292 248.656 95.2188H246.227V99.1875ZM262.805 93.625V101.227C262.805 102.435 262.417 103.393 261.641 104.102C260.87 104.805 259.841 105.156 258.555 105.156C257.253 105.156 256.219 104.81 255.453 104.117C254.688 103.419 254.305 102.453 254.305 101.219V93.625H256.273V101.234C256.273 101.995 256.466 102.576 256.852 102.977C257.237 103.378 257.805 103.578 258.555 103.578C260.076 103.578 260.836 102.776 260.836 101.172V93.625H262.805ZM270.867 102.07C270.867 101.57 270.69 101.185 270.336 100.914C269.987 100.643 269.354 100.37 268.438 100.094C267.521 99.8177 266.792 99.5104 266.25 99.1719C265.214 98.5208 264.695 97.6719 264.695 96.625C264.695 95.7083 265.068 94.9531 265.812 94.3594C266.562 93.7656 267.534 93.4688 268.727 93.4688C269.518 93.4688 270.224 93.6146 270.844 93.9062C271.464 94.1979 271.951 94.6146 272.305 95.1562C272.659 95.6927 272.836 96.2891 272.836 96.9453H270.867C270.867 96.3516 270.68 95.888 270.305 95.5547C269.935 95.2161 269.404 95.0469 268.711 95.0469C268.065 95.0469 267.562 95.1849 267.203 95.4609C266.849 95.737 266.672 96.1224 266.672 96.6172C266.672 97.0339 266.865 97.3828 267.25 97.6641C267.635 97.9401 268.271 98.2109 269.156 98.4766C270.042 98.737 270.753 99.0365 271.289 99.375C271.826 99.7083 272.219 100.094 272.469 100.531C272.719 100.964 272.844 101.471 272.844 102.055C272.844 103.003 272.479 103.758 271.75 104.32C271.026 104.878 270.042 105.156 268.797 105.156C267.974 105.156 267.216 105.005 266.523 104.703C265.836 104.396 265.299 103.974 264.914 103.438C264.534 102.901 264.344 102.276 264.344 101.562H266.32C266.32 102.208 266.534 102.708 266.961 103.062C267.388 103.417 268 103.594 268.797 103.594C269.484 103.594 270 103.456 270.344 103.18C270.693 102.898 270.867 102.529 270.867 102.07ZM283.609 105H281.641V99.9453H276.555V105H274.578V93.625H276.555V98.3594H281.641V93.625H283.609V105ZM294.492 102.703C294.492 102.365 294.352 102.107 294.07 101.93C293.794 101.753 293.333 101.596 292.688 101.461C292.042 101.326 291.503 101.154 291.07 100.945C290.122 100.487 289.648 99.8229 289.648 98.9531C289.648 98.224 289.956 97.6146 290.57 97.125C291.185 96.6354 291.966 96.3906 292.914 96.3906C293.924 96.3906 294.74 96.6406 295.359 97.1406C295.984 97.6406 296.297 98.2891 296.297 99.0859H294.398C294.398 98.7214 294.263 98.4193 293.992 98.1797C293.721 97.9349 293.362 97.8125 292.914 97.8125C292.497 97.8125 292.156 97.9089 291.891 98.1016C291.63 98.2943 291.5 98.5521 291.5 98.875C291.5 99.1667 291.622 99.3932 291.867 99.5547C292.112 99.7161 292.607 99.8802 293.352 100.047C294.096 100.208 294.68 100.404 295.102 100.633C295.529 100.857 295.844 101.128 296.047 101.445C296.255 101.763 296.359 102.148 296.359 102.602C296.359 103.362 296.044 103.979 295.414 104.453C294.784 104.922 293.958 105.156 292.938 105.156C292.245 105.156 291.628 105.031 291.086 104.781C290.544 104.531 290.122 104.188 289.82 103.75C289.518 103.312 289.367 102.841 289.367 102.336H291.211C291.237 102.784 291.406 103.13 291.719 103.375C292.031 103.615 292.445 103.734 292.961 103.734C293.461 103.734 293.841 103.641 294.102 103.453C294.362 103.26 294.492 103.01 294.492 102.703ZM300.398 94.4922V96.5469H301.891V97.9531H300.398V102.672C300.398 102.995 300.461 103.229 300.586 103.375C300.716 103.516 300.945 103.586 301.273 103.586C301.492 103.586 301.714 103.56 301.938 103.508V104.977C301.505 105.096 301.089 105.156 300.688 105.156C299.229 105.156 298.5 104.352 298.5 102.742V97.9531H297.109V96.5469H298.5V94.4922H300.398ZM307.773 98.2812C307.523 98.2396 307.266 98.2188 307 98.2188C306.13 98.2188 305.544 98.5521 305.242 99.2188V105H303.344V96.5469H305.156L305.203 97.4922C305.661 96.7578 306.297 96.3906 307.109 96.3906C307.38 96.3906 307.604 96.4271 307.781 96.5L307.773 98.2812ZM310.992 105H309.094V96.5469H310.992V105ZM308.977 94.3516C308.977 94.0599 309.068 93.8177 309.25 93.625C309.438 93.4323 309.703 93.3359 310.047 93.3359C310.391 93.3359 310.656 93.4323 310.844 93.625C311.031 93.8177 311.125 94.0599 311.125 94.3516C311.125 94.638 311.031 94.8776 310.844 95.0703C310.656 95.2578 310.391 95.3516 310.047 95.3516C309.703 95.3516 309.438 95.2578 309.25 95.0703C309.068 94.8776 308.977 94.638 308.977 94.3516ZM314.828 96.5469L314.883 97.5234C315.508 96.7682 316.328 96.3906 317.344 96.3906C319.104 96.3906 320 97.3984 320.031 99.4141V105H318.133V99.5234C318.133 98.987 318.016 98.5911 317.781 98.3359C317.552 98.0755 317.174 97.9453 316.648 97.9453C315.883 97.9453 315.312 98.2917 314.938 98.9844V105H313.039V96.5469H314.828ZM321.641 100.711C321.641 99.3984 321.948 98.3516 322.562 97.5703C323.182 96.7839 324.003 96.3906 325.023 96.3906C325.987 96.3906 326.745 96.7266 327.297 97.3984L327.383 96.5469H329.094V104.742C329.094 105.852 328.747 106.727 328.055 107.367C327.367 108.008 326.438 108.328 325.266 108.328C324.646 108.328 324.039 108.198 323.445 107.938C322.857 107.682 322.409 107.346 322.102 106.93L323 105.789C323.583 106.482 324.302 106.828 325.156 106.828C325.786 106.828 326.284 106.656 326.648 106.312C327.013 105.974 327.195 105.474 327.195 104.812V104.242C326.648 104.852 325.919 105.156 325.008 105.156C324.018 105.156 323.208 104.763 322.578 103.977C321.953 103.19 321.641 102.102 321.641 100.711ZM323.531 100.875C323.531 101.724 323.703 102.393 324.047 102.883C324.396 103.367 324.878 103.609 325.492 103.609C326.258 103.609 326.826 103.281 327.195 102.625V98.9062C326.836 98.2656 326.273 97.9453 325.508 97.9453C324.883 97.9453 324.396 98.1927 324.047 98.6875C323.703 99.1823 323.531 99.9115 323.531 100.875ZM336.336 92.7969L337.305 93.3984C336.831 94.0911 336.586 94.8125 336.57 95.5625V96.75H334.906V95.6719C334.911 95.1719 335.047 94.651 335.312 94.1094C335.583 93.5625 335.924 93.125 336.336 92.7969ZM338.961 92.7969L339.93 93.3984C339.456 94.0911 339.211 94.8125 339.195 95.5625V96.75H337.531V95.6719C337.536 95.1719 337.672 94.651 337.938 94.1094C338.208 93.5625 338.549 93.125 338.961 92.7969ZM350.297 102.188L352.047 93.625H354.008L351.383 105H349.492L347.328 96.6953L345.117 105H343.219L340.594 93.625H342.555L344.32 102.172L346.492 93.625H348.148L350.297 102.188ZM354.664 100.695C354.664 99.8672 354.828 99.1224 355.156 98.4609C355.484 97.7943 355.945 97.2839 356.539 96.9297C357.133 96.5703 357.815 96.3906 358.586 96.3906C359.727 96.3906 360.651 96.7578 361.359 97.4922C362.073 98.2266 362.458 99.2005 362.516 100.414L362.523 100.859C362.523 101.693 362.362 102.438 362.039 103.094C361.721 103.75 361.263 104.258 360.664 104.617C360.07 104.977 359.383 105.156 358.602 105.156C357.409 105.156 356.453 104.76 355.734 103.969C355.021 103.172 354.664 102.112 354.664 100.789V100.695ZM356.562 100.859C356.562 101.729 356.742 102.411 357.102 102.906C357.461 103.396 357.961 103.641 358.602 103.641C359.242 103.641 359.74 103.391 360.094 102.891C360.453 102.391 360.633 101.659 360.633 100.695C360.633 99.8411 360.448 99.1641 360.078 98.6641C359.714 98.1641 359.216 97.9141 358.586 97.9141C357.966 97.9141 357.474 98.1615 357.109 98.6562C356.745 99.1458 356.562 99.8802 356.562 100.859ZM368.555 98.2812C368.305 98.2396 368.047 98.2188 367.781 98.2188C366.911 98.2188 366.326 98.5521 366.023 99.2188V105H364.125V96.5469H365.938L365.984 97.4922C366.443 96.7578 367.078 96.3906 367.891 96.3906C368.161 96.3906 368.385 96.4271 368.562 96.5L368.555 98.2812ZM371.773 105H369.875V93H371.773V105ZM373.492 100.711C373.492 99.4089 373.794 98.3646 374.398 97.5781C375.003 96.7865 375.812 96.3906 376.828 96.3906C377.724 96.3906 378.448 96.7031 379 97.3281V93H380.898V105H379.18L379.086 104.125C378.518 104.812 377.76 105.156 376.812 105.156C375.823 105.156 375.021 104.758 374.406 103.961C373.797 103.164 373.492 102.081 373.492 100.711ZM375.391 100.875C375.391 101.734 375.555 102.406 375.883 102.891C376.216 103.37 376.688 103.609 377.297 103.609C378.073 103.609 378.641 103.263 379 102.57V98.9609C378.651 98.2839 378.089 97.9453 377.312 97.9453C376.698 97.9453 376.224 98.1901 375.891 98.6797C375.557 99.1641 375.391 99.8958 375.391 100.875Z" fill="#65BF73"/>
<g filter="url(#filter0_d)">
<path d="M400 8C400 3.58172 403.582 0 408 0H621C625.418 0 629 3.58172 629 8V120H400V8Z" fill="white"/>
<line x1="400.5" y1="79.5" x2="628.5" y2="79.5" stroke="#5452F6"/>
<line x1="400.5" y1="39.5" x2="628.5" y2="39.5" stroke="#5452F6"/>
<path d="M473.789 102.07C473.789 101.57 473.612 101.185 473.258 100.914C472.909 100.643 472.276 100.37 471.359 100.094C470.443 99.8177 469.714 99.5104 469.172 99.1719C468.135 98.5208 467.617 97.6719 467.617 96.625C467.617 95.7083 467.99 94.9531 468.734 94.3594C469.484 93.7656 470.456 93.4688 471.648 93.4688C472.44 93.4688 473.146 93.6146 473.766 93.9062C474.385 94.1979 474.872 94.6146 475.227 95.1562C475.581 95.6927 475.758 96.2891 475.758 96.9453H473.789C473.789 96.3516 473.602 95.888 473.227 95.5547C472.857 95.2161 472.326 95.0469 471.633 95.0469C470.987 95.0469 470.484 95.1849 470.125 95.4609C469.771 95.737 469.594 96.1224 469.594 96.6172C469.594 97.0339 469.786 97.3828 470.172 97.6641C470.557 97.9401 471.193 98.2109 472.078 98.4766C472.964 98.737 473.674 99.0365 474.211 99.375C474.747 99.7083 475.141 100.094 475.391 100.531C475.641 100.964 475.766 101.471 475.766 102.055C475.766 103.003 475.401 103.758 474.672 104.32C473.948 104.878 472.964 105.156 471.719 105.156C470.896 105.156 470.138 105.005 469.445 104.703C468.758 104.396 468.221 103.974 467.836 103.438C467.456 102.901 467.266 102.276 467.266 101.562H469.242C469.242 102.208 469.456 102.708 469.883 103.062C470.31 103.417 470.922 103.594 471.719 103.594C472.406 103.594 472.922 103.456 473.266 103.18C473.615 102.898 473.789 102.529 473.789 102.07ZM479.695 94.4922V96.5469H481.188V97.9531H479.695V102.672C479.695 102.995 479.758 103.229 479.883 103.375C480.013 103.516 480.242 103.586 480.57 103.586C480.789 103.586 481.01 103.56 481.234 103.508V104.977C480.802 105.096 480.385 105.156 479.984 105.156C478.526 105.156 477.797 104.352 477.797 102.742V97.9531H476.406V96.5469H477.797V94.4922H479.695ZM487.07 98.2812C486.82 98.2396 486.562 98.2188 486.297 98.2188C485.427 98.2188 484.841 98.5521 484.539 99.2188V105H482.641V96.5469H484.453L484.5 97.4922C484.958 96.7578 485.594 96.3906 486.406 96.3906C486.677 96.3906 486.901 96.4271 487.078 96.5L487.07 98.2812ZM490.289 105H488.391V96.5469H490.289V105ZM488.273 94.3516C488.273 94.0599 488.365 93.8177 488.547 93.625C488.734 93.4323 489 93.3359 489.344 93.3359C489.688 93.3359 489.953 93.4323 490.141 93.625C490.328 93.8177 490.422 94.0599 490.422 94.3516C490.422 94.638 490.328 94.8776 490.141 95.0703C489.953 95.2578 489.688 95.3516 489.344 95.3516C489 95.3516 488.734 95.2578 488.547 95.0703C488.365 94.8776 488.273 94.638 488.273 94.3516ZM494.125 96.5469L494.18 97.5234C494.805 96.7682 495.625 96.3906 496.641 96.3906C498.401 96.3906 499.297 97.3984 499.328 99.4141V105H497.43V99.5234C497.43 98.987 497.312 98.5911 497.078 98.3359C496.849 98.0755 496.471 97.9453 495.945 97.9453C495.18 97.9453 494.609 98.2917 494.234 98.9844V105H492.336V96.5469H494.125ZM500.938 100.711C500.938 99.3984 501.245 98.3516 501.859 97.5703C502.479 96.7839 503.299 96.3906 504.32 96.3906C505.284 96.3906 506.042 96.7266 506.594 97.3984L506.68 96.5469H508.391V104.742C508.391 105.852 508.044 106.727 507.352 107.367C506.664 108.008 505.734 108.328 504.562 108.328C503.943 108.328 503.336 108.198 502.742 107.938C502.154 107.682 501.706 107.346 501.398 106.93L502.297 105.789C502.88 106.482 503.599 106.828 504.453 106.828C505.083 106.828 505.581 106.656 505.945 106.312C506.31 105.974 506.492 105.474 506.492 104.812V104.242C505.945 104.852 505.216 105.156 504.305 105.156C503.315 105.156 502.505 104.763 501.875 103.977C501.25 103.19 500.938 102.102 500.938 100.711ZM502.828 100.875C502.828 101.724 503 102.393 503.344 102.883C503.693 103.367 504.174 103.609 504.789 103.609C505.555 103.609 506.122 103.281 506.492 102.625V98.9062C506.133 98.2656 505.57 97.9453 504.805 97.9453C504.18 97.9453 503.693 98.1927 503.344 98.6875C503 99.1823 502.828 99.9115 502.828 100.875ZM515.633 92.7969L516.602 93.3984C516.128 94.0911 515.883 94.8125 515.867 95.5625V96.75H514.203V95.6719C514.208 95.1719 514.344 94.651 514.609 94.1094C514.88 93.5625 515.221 93.125 515.633 92.7969ZM518.258 92.7969L519.227 93.3984C518.753 94.0911 518.508 94.8125 518.492 95.5625V96.75H516.828V95.6719C516.833 95.1719 516.969 94.651 517.234 94.1094C517.505 93.5625 517.846 93.125 518.258 92.7969ZM529.703 105H527.734V99.9453H522.648V105H520.672V93.625H522.648V98.3594H527.734V93.625H529.703V105ZM535.586 105.156C534.383 105.156 533.406 104.779 532.656 104.023C531.911 103.263 531.539 102.253 531.539 100.992V100.758C531.539 99.9141 531.701 99.1615 532.023 98.5C532.352 97.8333 532.81 97.3151 533.398 96.9453C533.987 96.5755 534.643 96.3906 535.367 96.3906C536.518 96.3906 537.406 96.7578 538.031 97.4922C538.661 98.2266 538.977 99.2656 538.977 100.609V101.375H533.453C533.51 102.073 533.742 102.625 534.148 103.031C534.56 103.438 535.076 103.641 535.695 103.641C536.565 103.641 537.273 103.289 537.82 102.586L538.844 103.562C538.505 104.068 538.052 104.461 537.484 104.742C536.922 105.018 536.289 105.156 535.586 105.156ZM535.359 97.9141C534.839 97.9141 534.417 98.0964 534.094 98.4609C533.776 98.8255 533.573 99.3333 533.484 99.9844H537.102V99.8438C537.06 99.2083 536.891 98.7292 536.594 98.4062C536.297 98.0781 535.885 97.9141 535.359 97.9141ZM542.477 105H540.578V93H542.477V105ZM546.57 105H544.672V93H546.57V105ZM548.289 100.695C548.289 99.8672 548.453 99.1224 548.781 98.4609C549.109 97.7943 549.57 97.2839 550.164 96.9297C550.758 96.5703 551.44 96.3906 552.211 96.3906C553.352 96.3906 554.276 96.7578 554.984 97.4922C555.698 98.2266 556.083 99.2005 556.141 100.414L556.148 100.859C556.148 101.693 555.987 102.438 555.664 103.094C555.346 103.75 554.888 104.258 554.289 104.617C553.695 104.977 553.008 105.156 552.227 105.156C551.034 105.156 550.078 104.76 549.359 103.969C548.646 103.172 548.289 102.112 548.289 100.789V100.695ZM550.188 100.859C550.188 101.729 550.367 102.411 550.727 102.906C551.086 103.396 551.586 103.641 552.227 103.641C552.867 103.641 553.365 103.391 553.719 102.891C554.078 102.391 554.258 101.659 554.258 100.695C554.258 99.8411 554.073 99.1641 553.703 98.6641C553.339 98.1641 552.841 97.9141 552.211 97.9141C551.591 97.9141 551.099 98.1615 550.734 98.6562C550.37 99.1458 550.188 99.8802 550.188 100.859ZM557.562 97L556.594 96.3984C557.062 95.7161 557.305 94.9948 557.32 94.2344V93H558.984V94.0781C558.984 94.6146 558.846 95.1562 558.57 95.7031C558.299 96.2448 557.964 96.6771 557.562 97ZM560.172 97L559.203 96.3984C559.672 95.7161 559.914 94.9948 559.93 94.2344V93H561.594V94.0781C561.594 94.6146 561.456 95.1562 561.18 95.7031C560.909 96.2448 560.573 96.6771 560.172 97Z" fill="#5452F6"/>
<path d="M494.703 56.5469L494.758 57.5234C495.383 56.7682 496.203 56.3906 497.219 56.3906C498.979 56.3906 499.875 57.3984 499.906 59.4141V65H498.008V59.5234C498.008 58.987 497.891 58.5911 497.656 58.3359C497.427 58.0755 497.049 57.9453 496.523 57.9453C495.758 57.9453 495.188 58.2917 494.812 58.9844V65H492.914V56.5469H494.703ZM506.898 65C506.815 64.8385 506.742 64.5755 506.68 64.2109C506.076 64.8411 505.336 65.1562 504.461 65.1562C503.612 65.1562 502.919 64.9141 502.383 64.4297C501.846 63.9453 501.578 63.3464 501.578 62.6328C501.578 61.7318 501.911 61.0417 502.578 60.5625C503.25 60.0781 504.208 59.8359 505.453 59.8359H506.617V59.2812C506.617 58.8438 506.495 58.4948 506.25 58.2344C506.005 57.9688 505.633 57.8359 505.133 57.8359C504.701 57.8359 504.346 57.9453 504.07 58.1641C503.794 58.3776 503.656 58.651 503.656 58.9844H501.758C501.758 58.5208 501.911 58.0885 502.219 57.6875C502.526 57.2812 502.943 56.9635 503.469 56.7344C504 56.5052 504.591 56.3906 505.242 56.3906C506.232 56.3906 507.021 56.6406 507.609 57.1406C508.198 57.6354 508.5 58.3333 508.516 59.2344V63.0469C508.516 63.8073 508.622 64.4141 508.836 64.8672V65H506.898ZM504.812 63.6328C505.188 63.6328 505.539 63.5417 505.867 63.3594C506.201 63.1771 506.451 62.9323 506.617 62.625V61.0312H505.594C504.891 61.0312 504.362 61.1536 504.008 61.3984C503.654 61.6432 503.477 61.9896 503.477 62.4375C503.477 62.8021 503.596 63.0938 503.836 63.3125C504.081 63.526 504.406 63.6328 504.812 63.6328ZM512.883 54.4922V56.5469H514.375V57.9531H512.883V62.6719C512.883 62.9948 512.945 63.2292 513.07 63.375C513.201 63.5156 513.43 63.5859 513.758 63.5859C513.977 63.5859 514.198 63.5599 514.422 63.5078V64.9766C513.99 65.0964 513.573 65.1562 513.172 65.1562C511.714 65.1562 510.984 64.3516 510.984 62.7422V57.9531H509.594V56.5469H510.984V54.4922H512.883ZM526.117 60.9453H527.531V62.4688H526.117V65H524.219V62.4688H519.305L519.25 61.3125L524.156 53.625H526.117V60.9453ZM521.242 60.9453H524.219V56.1953L524.078 56.4453L521.242 60.9453ZM536.438 65H528.789V63.6953L532.578 59.5625C533.125 58.9531 533.513 58.4453 533.742 58.0391C533.977 57.6276 534.094 57.2161 534.094 56.8047C534.094 56.263 533.94 55.8255 533.633 55.4922C533.331 55.1589 532.922 54.9922 532.406 54.9922C531.792 54.9922 531.315 55.1797 530.977 55.5547C530.638 55.9297 530.469 56.4427 530.469 57.0938H528.57C528.57 56.401 528.727 55.7786 529.039 55.2266C529.357 54.6693 529.807 54.237 530.391 53.9297C530.979 53.6224 531.656 53.4688 532.422 53.4688C533.526 53.4688 534.396 53.7474 535.031 54.3047C535.672 54.8568 535.992 55.6224 535.992 56.6016C535.992 57.1693 535.831 57.7656 535.508 58.3906C535.19 59.0104 534.667 59.7161 533.938 60.5078L531.156 63.4844H536.438V65Z" fill="#5452F6"/>
<path d="M473.648 22.7031C473.648 22.3646 473.508 22.1068 473.227 21.9297C472.951 21.7526 472.49 21.5964 471.844 21.4609C471.198 21.3255 470.659 21.1536 470.227 20.9453C469.279 20.487 468.805 19.8229 468.805 18.9531C468.805 18.224 469.112 17.6146 469.727 17.125C470.341 16.6354 471.122 16.3906 472.07 16.3906C473.081 16.3906 473.896 16.6406 474.516 17.1406C475.141 17.6406 475.453 18.2891 475.453 19.0859H473.555C473.555 18.7214 473.419 18.4193 473.148 18.1797C472.878 17.9349 472.518 17.8125 472.07 17.8125C471.654 17.8125 471.312 17.9089 471.047 18.1016C470.786 18.2943 470.656 18.5521 470.656 18.875C470.656 19.1667 470.779 19.3932 471.023 19.5547C471.268 19.7161 471.763 19.8802 472.508 20.0469C473.253 20.2083 473.836 20.4036 474.258 20.6328C474.685 20.8568 475 21.1276 475.203 21.4453C475.411 21.763 475.516 22.1484 475.516 22.6016C475.516 23.362 475.201 23.9792 474.57 24.4531C473.94 24.9219 473.115 25.1562 472.094 25.1562C471.401 25.1562 470.784 25.0312 470.242 24.7812C469.701 24.5312 469.279 24.1875 468.977 23.75C468.674 23.3125 468.523 22.8411 468.523 22.3359H470.367C470.393 22.7839 470.562 23.1302 470.875 23.375C471.188 23.6146 471.602 23.7344 472.117 23.7344C472.617 23.7344 472.997 23.6406 473.258 23.4531C473.518 23.2604 473.648 23.0104 473.648 22.7031ZM479.555 14.4922V16.5469H481.047V17.9531H479.555V22.6719C479.555 22.9948 479.617 23.2292 479.742 23.375C479.872 23.5156 480.102 23.5859 480.43 23.5859C480.648 23.5859 480.87 23.5599 481.094 23.5078V24.9766C480.661 25.0964 480.245 25.1562 479.844 25.1562C478.385 25.1562 477.656 24.3516 477.656 22.7422V17.9531H476.266V16.5469H477.656V14.4922H479.555ZM486.93 18.2812C486.68 18.2396 486.422 18.2188 486.156 18.2188C485.286 18.2188 484.701 18.5521 484.398 19.2188V25H482.5V16.5469H484.312L484.359 17.4922C484.818 16.7578 485.453 16.3906 486.266 16.3906C486.536 16.3906 486.76 16.4271 486.938 16.5L486.93 18.2812ZM490.148 25H488.25V16.5469H490.148V25ZM488.133 14.3516C488.133 14.0599 488.224 13.8177 488.406 13.625C488.594 13.4323 488.859 13.3359 489.203 13.3359C489.547 13.3359 489.812 13.4323 490 13.625C490.188 13.8177 490.281 14.0599 490.281 14.3516C490.281 14.638 490.188 14.8776 490 15.0703C489.812 15.2578 489.547 15.3516 489.203 15.3516C488.859 15.3516 488.594 15.2578 488.406 15.0703C488.224 14.8776 488.133 14.638 488.133 14.3516ZM493.984 16.5469L494.039 17.5234C494.664 16.7682 495.484 16.3906 496.5 16.3906C498.26 16.3906 499.156 17.3984 499.188 19.4141V25H497.289V19.5234C497.289 18.987 497.172 18.5911 496.938 18.3359C496.708 18.0755 496.331 17.9453 495.805 17.9453C495.039 17.9453 494.469 18.2917 494.094 18.9844V25H492.195V16.5469H493.984ZM500.797 20.7109C500.797 19.3984 501.104 18.3516 501.719 17.5703C502.339 16.7839 503.159 16.3906 504.18 16.3906C505.143 16.3906 505.901 16.7266 506.453 17.3984L506.539 16.5469H508.25V24.7422C508.25 25.8516 507.904 26.7266 507.211 27.3672C506.523 28.0078 505.594 28.3281 504.422 28.3281C503.802 28.3281 503.195 28.1979 502.602 27.9375C502.013 27.6823 501.565 27.3464 501.258 26.9297L502.156 25.7891C502.74 26.4818 503.458 26.8281 504.312 26.8281C504.943 26.8281 505.44 26.6562 505.805 26.3125C506.169 25.974 506.352 25.474 506.352 24.8125V24.2422C505.805 24.8516 505.076 25.1562 504.164 25.1562C503.174 25.1562 502.365 24.763 501.734 23.9766C501.109 23.1901 500.797 22.1016 500.797 20.7109ZM502.688 20.875C502.688 21.724 502.859 22.3932 503.203 22.8828C503.552 23.3672 504.034 23.6094 504.648 23.6094C505.414 23.6094 505.982 23.2812 506.352 22.625V18.9062C505.992 18.2656 505.43 17.9453 504.664 17.9453C504.039 17.9453 503.552 18.1927 503.203 18.6875C502.859 19.1823 502.688 19.9115 502.688 20.875ZM515.492 12.7969L516.461 13.3984C515.987 14.0911 515.742 14.8125 515.727 15.5625V16.75H514.062V15.6719C514.068 15.1719 514.203 14.651 514.469 14.1094C514.74 13.5625 515.081 13.125 515.492 12.7969ZM518.117 12.7969L519.086 13.3984C518.612 14.0911 518.367 14.8125 518.352 15.5625V16.75H516.688V15.6719C516.693 15.1719 516.828 14.651 517.094 14.1094C517.365 13.5625 517.706 13.125 518.117 12.7969ZM529.453 22.1875L531.203 13.625H533.164L530.539 25H528.648L526.484 16.6953L524.273 25H522.375L519.75 13.625H521.711L523.477 22.1719L525.648 13.625H527.305L529.453 22.1875ZM533.82 20.6953C533.82 19.8672 533.984 19.1224 534.312 18.4609C534.641 17.7943 535.102 17.2839 535.695 16.9297C536.289 16.5703 536.971 16.3906 537.742 16.3906C538.883 16.3906 539.807 16.7578 540.516 17.4922C541.229 18.2266 541.615 19.2005 541.672 20.4141L541.68 20.8594C541.68 21.6927 541.518 22.4375 541.195 23.0938C540.878 23.75 540.419 24.2578 539.82 24.6172C539.227 24.9766 538.539 25.1562 537.758 25.1562C536.565 25.1562 535.609 24.7604 534.891 23.9688C534.177 23.1719 533.82 22.112 533.82 20.7891V20.6953ZM535.719 20.8594C535.719 21.7292 535.898 22.4115 536.258 22.9062C536.617 23.3958 537.117 23.6406 537.758 23.6406C538.398 23.6406 538.896 23.3906 539.25 22.8906C539.609 22.3906 539.789 21.6589 539.789 20.6953C539.789 19.8411 539.604 19.1641 539.234 18.6641C538.87 18.1641 538.372 17.9141 537.742 17.9141C537.122 17.9141 536.63 18.1615 536.266 18.6562C535.901 19.1458 535.719 19.8802 535.719 20.8594ZM547.711 18.2812C547.461 18.2396 547.203 18.2188 546.938 18.2188C546.068 18.2188 545.482 18.5521 545.18 19.2188V25H543.281V16.5469H545.094L545.141 17.4922C545.599 16.7578 546.234 16.3906 547.047 16.3906C547.318 16.3906 547.542 16.4271 547.719 16.5L547.711 18.2812ZM550.93 25H549.031V13H550.93V25ZM552.648 20.7109C552.648 19.4089 552.951 18.3646 553.555 17.5781C554.159 16.7865 554.969 16.3906 555.984 16.3906C556.88 16.3906 557.604 16.7031 558.156 17.3281V13H560.055V25H558.336L558.242 24.125C557.674 24.8125 556.917 25.1562 555.969 25.1562C554.979 25.1562 554.177 24.7578 553.562 23.9609C552.953 23.1641 552.648 22.0807 552.648 20.7109ZM554.547 20.875C554.547 21.7344 554.711 22.4062 555.039 22.8906C555.372 23.3698 555.844 23.6094 556.453 23.6094C557.229 23.6094 557.797 23.263 558.156 22.5703V18.9609C557.807 18.2839 557.245 17.9453 556.469 17.9453C555.854 17.9453 555.38 18.1901 555.047 18.6797C554.714 19.1641 554.547 19.8958 554.547 20.875Z" fill="#FF5A43"/>
<path d="M400.5 8C400.5 3.85786 403.858 0.5 408 0.5H621C625.142 0.5 628.5 3.85787 628.5 8V119.5H400.5V8Z" stroke="#5452F6"/>
</g>
<g filter="url(#filter1_d)">
<path d="M400 119H629V135C629 139.418 625.418 143 621 143H408C403.582 143 400 139.418 400 135V119Z" fill="#EEEEFF"/>
<path d="M400.5 119.5H628.5V135C628.5 139.142 625.142 142.5 621 142.5H408C403.858 142.5 400.5 139.142 400.5 135V119.5Z" stroke="#5452F6"/>
</g>
<g filter="url(#filter2_d)">
<path d="M0 48C0 43.5817 3.58172 40 8 40H221C225.418 40 229 43.5817 229 48V120H0V48Z" fill="white"/>
<path d="M0.5 48C0.5 43.8579 3.85786 40.5 8 40.5H221C225.142 40.5 228.5 43.8579 228.5 48V119.5H0.5V48Z" stroke="#5452F6"/>
</g>
<g filter="url(#filter3_d)">
<path d="M0 119H229V135C229 139.418 225.418 143 221 143H8.00001C3.58173 143 0 139.418 0 135V119Z" fill="#EEEEFF"/>
<path d="M0.5 119.5H228.5V135C228.5 139.142 225.142 142.5 221 142.5H8.00001C3.85787 142.5 0.5 139.142 0.5 135V119.5Z" stroke="#5452F6"/>
</g>
<line x1="0.5" y1="79.5" x2="228.5" y2="79.5" stroke="#5452F6"/>
<path d="M73.7891 102.07C73.7891 101.57 73.612 101.185 73.2578 100.914C72.9089 100.643 72.276 100.37 71.3594 100.094C70.4427 99.8177 69.7135 99.5104 69.1719 99.1719C68.1354 98.5208 67.6172 97.6719 67.6172 96.625C67.6172 95.7083 67.9896 94.9531 68.7344 94.3594C69.4844 93.7656 70.4557 93.4688 71.6484 93.4688C72.4401 93.4688 73.1458 93.6146 73.7656 93.9062C74.3854 94.1979 74.8724 94.6146 75.2266 95.1562C75.5807 95.6927 75.7578 96.2891 75.7578 96.9453H73.7891C73.7891 96.3516 73.6016 95.888 73.2266 95.5547C72.8568 95.2161 72.3255 95.0469 71.6328 95.0469C70.987 95.0469 70.4844 95.1849 70.125 95.4609C69.7708 95.737 69.5938 96.1224 69.5938 96.6172C69.5938 97.0339 69.7865 97.3828 70.1719 97.6641C70.5573 97.9401 71.1927 98.2109 72.0781 98.4766C72.9635 98.737 73.6745 99.0365 74.2109 99.375C74.7474 99.7083 75.1406 100.094 75.3906 100.531C75.6406 100.964 75.7656 101.471 75.7656 102.055C75.7656 103.003 75.401 103.758 74.6719 104.32C73.9479 104.878 72.9635 105.156 71.7188 105.156C70.8958 105.156 70.138 105.005 69.4453 104.703C68.7578 104.396 68.2214 103.974 67.8359 103.438C67.4557 102.901 67.2656 102.276 67.2656 101.562H69.2422C69.2422 102.208 69.4557 102.708 69.8828 103.062C70.3099 103.417 70.9219 103.594 71.7188 103.594C72.4062 103.594 72.9219 103.456 73.2656 103.18C73.6146 102.898 73.7891 102.529 73.7891 102.07ZM79.6953 94.4922V96.5469H81.1875V97.9531H79.6953V102.672C79.6953 102.995 79.7578 103.229 79.8828 103.375C80.013 103.516 80.2422 103.586 80.5703 103.586C80.7891 103.586 81.0104 103.56 81.2344 103.508V104.977C80.8021 105.096 80.3854 105.156 79.9844 105.156C78.526 105.156 77.7969 104.352 77.7969 102.742V97.9531H76.4062V96.5469H77.7969V94.4922H79.6953ZM87.0703 98.2812C86.8203 98.2396 86.5625 98.2188 86.2969 98.2188C85.4271 98.2188 84.8411 98.5521 84.5391 99.2188V105H82.6406V96.5469H84.4531L84.5 97.4922C84.9583 96.7578 85.5938 96.3906 86.4062 96.3906C86.6771 96.3906 86.901 96.4271 87.0781 96.5L87.0703 98.2812ZM90.2891 105H88.3906V96.5469H90.2891V105ZM88.2734 94.3516C88.2734 94.0599 88.3646 93.8177 88.5469 93.625C88.7344 93.4323 89 93.3359 89.3438 93.3359C89.6875 93.3359 89.9531 93.4323 90.1406 93.625C90.3281 93.8177 90.4219 94.0599 90.4219 94.3516C90.4219 94.638 90.3281 94.8776 90.1406 95.0703C89.9531 95.2578 89.6875 95.3516 89.3438 95.3516C89 95.3516 88.7344 95.2578 88.5469 95.0703C88.3646 94.8776 88.2734 94.638 88.2734 94.3516ZM94.125 96.5469L94.1797 97.5234C94.8047 96.7682 95.625 96.3906 96.6406 96.3906C98.401 96.3906 99.2969 97.3984 99.3281 99.4141V105H97.4297V99.5234C97.4297 98.987 97.3125 98.5911 97.0781 98.3359C96.849 98.0755 96.4714 97.9453 95.9453 97.9453C95.1797 97.9453 94.6094 98.2917 94.2344 98.9844V105H92.3359V96.5469H94.125ZM100.938 100.711C100.938 99.3984 101.245 98.3516 101.859 97.5703C102.479 96.7839 103.299 96.3906 104.32 96.3906C105.284 96.3906 106.042 96.7266 106.594 97.3984L106.68 96.5469H108.391V104.742C108.391 105.852 108.044 106.727 107.352 107.367C106.664 108.008 105.734 108.328 104.562 108.328C103.943 108.328 103.336 108.198 102.742 107.938C102.154 107.682 101.706 107.346 101.398 106.93L102.297 105.789C102.88 106.482 103.599 106.828 104.453 106.828C105.083 106.828 105.581 106.656 105.945 106.312C106.31 105.974 106.492 105.474 106.492 104.812V104.242C105.945 104.852 105.216 105.156 104.305 105.156C103.315 105.156 102.505 104.763 101.875 103.977C101.25 103.19 100.938 102.102 100.938 100.711ZM102.828 100.875C102.828 101.724 103 102.393 103.344 102.883C103.693 103.367 104.174 103.609 104.789 103.609C105.555 103.609 106.122 103.281 106.492 102.625V98.9062C106.133 98.2656 105.57 97.9453 104.805 97.9453C104.18 97.9453 103.693 98.1927 103.344 98.6875C103 99.1823 102.828 99.9115 102.828 100.875ZM115.633 92.7969L116.602 93.3984C116.128 94.0911 115.883 94.8125 115.867 95.5625V96.75H114.203V95.6719C114.208 95.1719 114.344 94.651 114.609 94.1094C114.88 93.5625 115.221 93.125 115.633 92.7969ZM118.258 92.7969L119.227 93.3984C118.753 94.0911 118.508 94.8125 118.492 95.5625V96.75H116.828V95.6719C116.833 95.1719 116.969 94.651 117.234 94.1094C117.505 93.5625 117.846 93.125 118.258 92.7969ZM129.703 105H127.734V99.9453H122.648V105H120.672V93.625H122.648V98.3594H127.734V93.625H129.703V105ZM135.586 105.156C134.383 105.156 133.406 104.779 132.656 104.023C131.911 103.263 131.539 102.253 131.539 100.992V100.758C131.539 99.9141 131.701 99.1615 132.023 98.5C132.352 97.8333 132.81 97.3151 133.398 96.9453C133.987 96.5755 134.643 96.3906 135.367 96.3906C136.518 96.3906 137.406 96.7578 138.031 97.4922C138.661 98.2266 138.977 99.2656 138.977 100.609V101.375H133.453C133.51 102.073 133.742 102.625 134.148 103.031C134.56 103.438 135.076 103.641 135.695 103.641C136.565 103.641 137.273 103.289 137.82 102.586L138.844 103.562C138.505 104.068 138.052 104.461 137.484 104.742C136.922 105.018 136.289 105.156 135.586 105.156ZM135.359 97.9141C134.839 97.9141 134.417 98.0964 134.094 98.4609C133.776 98.8255 133.573 99.3333 133.484 99.9844H137.102V99.8438C137.06 99.2083 136.891 98.7292 136.594 98.4062C136.297 98.0781 135.885 97.9141 135.359 97.9141ZM142.477 105H140.578V93H142.477V105ZM146.57 105H144.672V93H146.57V105ZM148.289 100.695C148.289 99.8672 148.453 99.1224 148.781 98.4609C149.109 97.7943 149.57 97.2839 150.164 96.9297C150.758 96.5703 151.44 96.3906 152.211 96.3906C153.352 96.3906 154.276 96.7578 154.984 97.4922C155.698 98.2266 156.083 99.2005 156.141 100.414L156.148 100.859C156.148 101.693 155.987 102.438 155.664 103.094C155.346 103.75 154.888 104.258 154.289 104.617C153.695 104.977 153.008 105.156 152.227 105.156C151.034 105.156 150.078 104.76 149.359 103.969C148.646 103.172 148.289 102.112 148.289 100.789V100.695ZM150.188 100.859C150.188 101.729 150.367 102.411 150.727 102.906C151.086 103.396 151.586 103.641 152.227 103.641C152.867 103.641 153.365 103.391 153.719 102.891C154.078 102.391 154.258 101.659 154.258 100.695C154.258 99.8411 154.073 99.1641 153.703 98.6641C153.339 98.1641 152.841 97.9141 152.211 97.9141C151.591 97.9141 151.099 98.1615 150.734 98.6562C150.37 99.1458 150.188 99.8802 150.188 100.859ZM157.562 97L156.594 96.3984C157.062 95.7161 157.305 94.9948 157.32 94.2344V93H158.984V94.0781C158.984 94.6146 158.846 95.1562 158.57 95.7031C158.299 96.2448 157.964 96.6771 157.562 97ZM160.172 97L159.203 96.3984C159.672 95.7161 159.914 94.9948 159.93 94.2344V93H161.594V94.0781C161.594 94.6146 161.456 95.1562 161.18 95.7031C160.909 96.2448 160.573 96.6771 160.172 97Z" fill="#5452F6"/>
<path d="M94.7031 56.5469L94.7578 57.5234C95.3828 56.7682 96.2031 56.3906 97.2188 56.3906C98.9792 56.3906 99.875 57.3984 99.9062 59.4141V65H98.0078V59.5234C98.0078 58.987 97.8906 58.5911 97.6562 58.3359C97.4271 58.0755 97.0495 57.9453 96.5234 57.9453C95.7578 57.9453 95.1875 58.2917 94.8125 58.9844V65H92.9141V56.5469H94.7031ZM106.898 65C106.815 64.8385 106.742 64.5755 106.68 64.2109C106.076 64.8411 105.336 65.1562 104.461 65.1562C103.612 65.1562 102.919 64.9141 102.383 64.4297C101.846 63.9453 101.578 63.3464 101.578 62.6328C101.578 61.7318 101.911 61.0417 102.578 60.5625C103.25 60.0781 104.208 59.8359 105.453 59.8359H106.617V59.2812C106.617 58.8438 106.495 58.4948 106.25 58.2344C106.005 57.9688 105.633 57.8359 105.133 57.8359C104.701 57.8359 104.346 57.9453 104.07 58.1641C103.794 58.3776 103.656 58.651 103.656 58.9844H101.758C101.758 58.5208 101.911 58.0885 102.219 57.6875C102.526 57.2812 102.943 56.9635 103.469 56.7344C104 56.5052 104.591 56.3906 105.242 56.3906C106.232 56.3906 107.021 56.6406 107.609 57.1406C108.198 57.6354 108.5 58.3333 108.516 59.2344V63.0469C108.516 63.8073 108.622 64.4141 108.836 64.8672V65H106.898ZM104.812 63.6328C105.188 63.6328 105.539 63.5417 105.867 63.3594C106.201 63.1771 106.451 62.9323 106.617 62.625V61.0312H105.594C104.891 61.0312 104.362 61.1536 104.008 61.3984C103.654 61.6432 103.477 61.9896 103.477 62.4375C103.477 62.8021 103.596 63.0938 103.836 63.3125C104.081 63.526 104.406 63.6328 104.812 63.6328ZM112.883 54.4922V56.5469H114.375V57.9531H112.883V62.6719C112.883 62.9948 112.945 63.2292 113.07 63.375C113.201 63.5156 113.43 63.5859 113.758 63.5859C113.977 63.5859 114.198 63.5599 114.422 63.5078V64.9766C113.99 65.0964 113.573 65.1562 113.172 65.1562C111.714 65.1562 110.984 64.3516 110.984 62.7422V57.9531H109.594V56.5469H110.984V54.4922H112.883ZM126.117 60.9453H127.531V62.4688H126.117V65H124.219V62.4688H119.305L119.25 61.3125L124.156 53.625H126.117V60.9453ZM121.242 60.9453H124.219V56.1953L124.078 56.4453L121.242 60.9453ZM136.438 65H128.789V63.6953L132.578 59.5625C133.125 58.9531 133.513 58.4453 133.742 58.0391C133.977 57.6276 134.094 57.2161 134.094 56.8047C134.094 56.263 133.94 55.8255 133.633 55.4922C133.331 55.1589 132.922 54.9922 132.406 54.9922C131.792 54.9922 131.315 55.1797 130.977 55.5547C130.638 55.9297 130.469 56.4427 130.469 57.0938H128.57C128.57 56.401 128.727 55.7786 129.039 55.2266C129.357 54.6693 129.807 54.237 130.391 53.9297C130.979 53.6224 131.656 53.4688 132.422 53.4688C133.526 53.4688 134.396 53.7474 135.031 54.3047C135.672 54.8568 135.992 55.6224 135.992 56.6016C135.992 57.1693 135.831 57.7656 135.508 58.3906C135.19 59.0104 134.667 59.7161 133.938 60.5078L131.156 63.4844H136.438V65Z" fill="#5452F6"/>
<defs>
<filter id="filter0_d" x="400" y="0" width="233" height="124" filterUnits="userSpaceOnUse" color-interpolation-filters="sRGB">
<feFlood flood-opacity="0" result="BackgroundImageFix"/>
<feColorMatrix in="SourceAlpha" type="matrix" values="0 0 0 0 0 0 0 0 0 0 0 0 0 0 0 0 0 0 127 0"/>
<feOffset dx="4" dy="4"/>
<feColorMatrix type="matrix" values="0 0 0 0 0.674908 0 0 0 0 0.662083 0 0 0 0 0.945833 0 0 0 1 0"/>
<feBlend mode="normal" in2="BackgroundImageFix" result="effect1_dropShadow"/>
<feBlend mode="normal" in="SourceGraphic" in2="effect1_dropShadow" result="shape"/>
</filter>
<filter id="filter1_d" x="400" y="119" width="233" height="28" filterUnits="userSpaceOnUse" color-interpolation-filters="sRGB">
<feFlood flood-opacity="0" result="BackgroundImageFix"/>
<feColorMatrix in="SourceAlpha" type="matrix" values="0 0 0 0 0 0 0 0 0 0 0 0 0 0 0 0 0 0 127 0"/>
<feOffset dx="4" dy="4"/>
<feColorMatrix type="matrix" values="0 0 0 0 0.674908 0 0 0 0 0.662083 0 0 0 0 0.945833 0 0 0 1 0"/>
<feBlend mode="normal" in2="BackgroundImageFix" result="effect1_dropShadow"/>
<feBlend mode="normal" in="SourceGraphic" in2="effect1_dropShadow" result="shape"/>
</filter>
<filter id="filter2_d" x="0" y="40" width="233" height="84" filterUnits="userSpaceOnUse" color-interpolation-filters="sRGB">
<feFlood flood-opacity="0" result="BackgroundImageFix"/>
<feColorMatrix in="SourceAlpha" type="matrix" values="0 0 0 0 0 0 0 0 0 0 0 0 0 0 0 0 0 0 127 0"/>
<feOffset dx="4" dy="4"/>
<feColorMatrix type="matrix" values="0 0 0 0 0.674908 0 0 0 0 0.662083 0 0 0 0 0.945833 0 0 0 1 0"/>
<feBlend mode="normal" in2="BackgroundImageFix" result="effect1_dropShadow"/>
<feBlend mode="normal" in="SourceGraphic" in2="effect1_dropShadow" result="shape"/>
</filter>
<filter id="filter3_d" x="0" y="119" width="233" height="28" filterUnits="userSpaceOnUse" color-interpolation-filters="sRGB">
<feFlood flood-opacity="0" result="BackgroundImageFix"/>
<feColorMatrix in="SourceAlpha" type="matrix" values="0 0 0 0 0 0 0 0 0 0 0 0 0 0 0 0 0 0 127 0"/>
<feOffset dx="4" dy="4"/>
<feColorMatrix type="matrix" values="0 0 0 0 0.674908 0 0 0 0 0.662083 0 0 0 0 0.945833 0 0 0 1 0"/>
<feBlend mode="normal" in2="BackgroundImageFix" result="effect1_dropShadow"/>
<feBlend mode="normal" in="SourceGraphic" in2="effect1_dropShadow" result="shape"/>
</filter>
</defs>
</svg>
