<svg width="626" height="636" viewBox="0 0 626 636" fill="none" xmlns="http://www.w3.org/2000/svg">
<g filter="url(#filter0_d)">
<circle cx="305" cy="343" r="83" fill="white"/>
<circle cx="305" cy="343" r="82.5" stroke="#2097F6"/>
</g>
<path d="M292.289 294.68C292.289 295.794 292.102 296.768 291.727 297.602C291.352 298.43 290.82 299.062 290.133 299.5C289.445 299.938 288.643 300.156 287.727 300.156C286.831 300.156 286.036 299.938 285.344 299.5C284.651 299.057 284.112 298.43 283.727 297.617C283.346 296.799 283.151 295.854 283.141 294.781V293.961C283.141 292.867 283.331 291.901 283.711 291.062C284.091 290.224 284.628 289.583 285.32 289.141C286.018 288.693 286.815 288.469 287.711 288.469C288.622 288.469 289.424 288.69 290.117 289.133C290.815 289.57 291.352 290.208 291.727 291.047C292.102 291.88 292.289 292.852 292.289 293.961V294.68ZM290.797 293.945C290.797 292.596 290.526 291.562 289.984 290.844C289.443 290.12 288.685 289.758 287.711 289.758C286.763 289.758 286.016 290.12 285.469 290.844C284.927 291.562 284.648 292.562 284.633 293.844V294.68C284.633 295.987 284.906 297.016 285.453 297.766C286.005 298.51 286.763 298.883 287.727 298.883C288.695 298.883 289.445 298.531 289.977 297.828C290.508 297.12 290.781 296.107 290.797 294.789V293.945ZM298.398 292.844C298.18 292.807 297.943 292.789 297.688 292.789C296.74 292.789 296.096 293.193 295.758 294V300H294.312V291.547H295.719L295.742 292.523C296.216 291.768 296.888 291.391 297.758 291.391C298.039 291.391 298.253 291.427 298.398 291.5V292.844ZM304.641 300C304.557 299.833 304.49 299.536 304.438 299.109C303.766 299.807 302.964 300.156 302.031 300.156C301.198 300.156 300.513 299.922 299.977 299.453C299.445 298.979 299.18 298.38 299.18 297.656C299.18 296.776 299.513 296.094 300.18 295.609C300.852 295.12 301.794 294.875 303.008 294.875H304.414V294.211C304.414 293.706 304.263 293.305 303.961 293.008C303.659 292.706 303.214 292.555 302.625 292.555C302.109 292.555 301.677 292.685 301.328 292.945C300.979 293.206 300.805 293.521 300.805 293.891H299.352C299.352 293.469 299.5 293.062 299.797 292.672C300.099 292.276 300.505 291.964 301.016 291.734C301.531 291.505 302.096 291.391 302.711 291.391C303.685 291.391 304.448 291.635 305 292.125C305.552 292.609 305.839 293.279 305.859 294.133V298.023C305.859 298.799 305.958 299.417 306.156 299.875V300H304.641ZM302.242 298.898C302.695 298.898 303.125 298.781 303.531 298.547C303.938 298.312 304.232 298.008 304.414 297.633V295.898H303.281C301.51 295.898 300.625 296.417 300.625 297.453C300.625 297.906 300.776 298.26 301.078 298.516C301.38 298.771 301.768 298.898 302.242 298.898ZM311.516 298.977C312.031 298.977 312.482 298.82 312.867 298.508C313.253 298.195 313.466 297.805 313.508 297.336H314.875C314.849 297.82 314.682 298.281 314.375 298.719C314.068 299.156 313.656 299.505 313.141 299.766C312.63 300.026 312.089 300.156 311.516 300.156C310.365 300.156 309.448 299.773 308.766 299.008C308.089 298.237 307.75 297.185 307.75 295.852V295.609C307.75 294.786 307.901 294.055 308.203 293.414C308.505 292.773 308.938 292.276 309.5 291.922C310.068 291.568 310.737 291.391 311.508 291.391C312.456 291.391 313.242 291.674 313.867 292.242C314.497 292.81 314.833 293.547 314.875 294.453H313.508C313.466 293.906 313.258 293.458 312.883 293.109C312.513 292.755 312.055 292.578 311.508 292.578C310.773 292.578 310.203 292.844 309.797 293.375C309.396 293.901 309.195 294.664 309.195 295.664V295.938C309.195 296.911 309.396 297.661 309.797 298.188C310.198 298.714 310.771 298.977 311.516 298.977ZM318.07 300H316.625V288H318.07V300ZM323.898 300.156C322.753 300.156 321.82 299.781 321.102 299.031C320.383 298.276 320.023 297.268 320.023 296.008V295.742C320.023 294.904 320.182 294.156 320.5 293.5C320.823 292.839 321.271 292.323 321.844 291.953C322.422 291.578 323.047 291.391 323.719 291.391C324.818 291.391 325.672 291.753 326.281 292.477C326.891 293.201 327.195 294.237 327.195 295.586V296.188H321.469C321.49 297.021 321.732 297.695 322.195 298.211C322.664 298.721 323.258 298.977 323.977 298.977C324.487 298.977 324.919 298.872 325.273 298.664C325.628 298.456 325.938 298.18 326.203 297.836L327.086 298.523C326.378 299.612 325.315 300.156 323.898 300.156ZM323.719 292.578C323.135 292.578 322.646 292.792 322.25 293.219C321.854 293.641 321.609 294.234 321.516 295H325.75V294.891C325.708 294.156 325.51 293.589 325.156 293.188C324.802 292.781 324.323 292.578 323.719 292.578ZM263.25 308.5V310.547H264.828V311.664H263.25V316.906C263.25 317.245 263.32 317.5 263.461 317.672C263.602 317.839 263.841 317.922 264.18 317.922C264.346 317.922 264.576 317.891 264.867 317.828V319C264.487 319.104 264.117 319.156 263.758 319.156C263.112 319.156 262.625 318.961 262.297 318.57C261.969 318.18 261.805 317.625 261.805 316.906V311.664H260.266V310.547H261.805V308.5H263.25ZM270.609 311.844C270.391 311.807 270.154 311.789 269.898 311.789C268.951 311.789 268.307 312.193 267.969 313V319H266.523V310.547H267.93L267.953 311.523C268.427 310.768 269.099 310.391 269.969 310.391C270.25 310.391 270.464 310.427 270.609 310.5V311.844ZM277.164 318.164C276.602 318.826 275.776 319.156 274.688 319.156C273.786 319.156 273.099 318.896 272.625 318.375C272.156 317.849 271.919 317.073 271.914 316.047V310.547H273.359V316.008C273.359 317.289 273.88 317.93 274.922 317.93C276.026 317.93 276.76 317.518 277.125 316.695V310.547H278.57V319H277.195L277.164 318.164ZM285.695 316.758C285.695 316.367 285.547 316.065 285.25 315.852C284.958 315.633 284.445 315.445 283.711 315.289C282.982 315.133 282.401 314.945 281.969 314.727C281.542 314.508 281.224 314.247 281.016 313.945C280.812 313.643 280.711 313.284 280.711 312.867C280.711 312.174 281.003 311.589 281.586 311.109C282.174 310.63 282.924 310.391 283.836 310.391C284.794 310.391 285.57 310.638 286.164 311.133C286.763 311.628 287.062 312.26 287.062 313.031H285.609C285.609 312.635 285.44 312.294 285.102 312.008C284.768 311.721 284.346 311.578 283.836 311.578C283.31 311.578 282.898 311.693 282.602 311.922C282.305 312.151 282.156 312.451 282.156 312.82C282.156 313.169 282.294 313.432 282.57 313.609C282.846 313.786 283.344 313.956 284.062 314.117C284.786 314.279 285.372 314.471 285.82 314.695C286.268 314.919 286.599 315.19 286.812 315.508C287.031 315.82 287.141 316.203 287.141 316.656C287.141 317.411 286.839 318.018 286.234 318.477C285.63 318.93 284.846 319.156 283.883 319.156C283.206 319.156 282.607 319.036 282.086 318.797C281.565 318.557 281.156 318.224 280.859 317.797C280.568 317.365 280.422 316.898 280.422 316.398H281.867C281.893 316.883 282.086 317.268 282.445 317.555C282.81 317.836 283.289 317.977 283.883 317.977C284.43 317.977 284.867 317.867 285.195 317.648C285.529 317.424 285.695 317.128 285.695 316.758ZM290.984 308.5V310.547H292.562V311.664H290.984V316.906C290.984 317.245 291.055 317.5 291.195 317.672C291.336 317.839 291.576 317.922 291.914 317.922C292.081 317.922 292.31 317.891 292.602 317.828V319C292.221 319.104 291.852 319.156 291.492 319.156C290.846 319.156 290.359 318.961 290.031 318.57C289.703 318.18 289.539 317.625 289.539 316.906V311.664H288V310.547H289.539V308.5H290.984ZM297.766 319.156C296.62 319.156 295.688 318.781 294.969 318.031C294.25 317.276 293.891 316.268 293.891 315.008V314.742C293.891 313.904 294.049 313.156 294.367 312.5C294.69 311.839 295.138 311.323 295.711 310.953C296.289 310.578 296.914 310.391 297.586 310.391C298.685 310.391 299.539 310.753 300.148 311.477C300.758 312.201 301.062 313.237 301.062 314.586V315.188H295.336C295.357 316.021 295.599 316.695 296.062 317.211C296.531 317.721 297.125 317.977 297.844 317.977C298.354 317.977 298.786 317.872 299.141 317.664C299.495 317.456 299.805 317.18 300.07 316.836L300.953 317.523C300.245 318.612 299.182 319.156 297.766 319.156ZM297.586 311.578C297.003 311.578 296.513 311.792 296.117 312.219C295.721 312.641 295.477 313.234 295.383 314H299.617V313.891C299.576 313.156 299.378 312.589 299.023 312.188C298.669 311.781 298.19 311.578 297.586 311.578ZM302.391 314.703C302.391 313.406 302.698 312.365 303.312 311.578C303.927 310.786 304.732 310.391 305.727 310.391C306.716 310.391 307.5 310.729 308.078 311.406V307H309.523V319H308.195L308.125 318.094C307.547 318.802 306.742 319.156 305.711 319.156C304.732 319.156 303.932 318.755 303.312 317.953C302.698 317.151 302.391 316.104 302.391 314.812V314.703ZM303.836 314.867C303.836 315.826 304.034 316.576 304.43 317.117C304.826 317.659 305.372 317.93 306.07 317.93C306.987 317.93 307.656 317.518 308.078 316.695V312.812C307.646 312.016 306.982 311.617 306.086 311.617C305.378 311.617 304.826 311.891 304.43 312.438C304.034 312.984 303.836 313.794 303.836 314.867ZM322.883 314.867C322.883 316.154 322.589 317.19 322 317.977C321.411 318.763 320.615 319.156 319.609 319.156C318.583 319.156 317.776 318.831 317.188 318.18V322.25H315.742V310.547H317.062L317.133 311.484C317.721 310.755 318.539 310.391 319.586 310.391C320.602 310.391 321.404 310.773 321.992 311.539C322.586 312.305 322.883 313.37 322.883 314.734V314.867ZM321.438 314.703C321.438 313.75 321.234 312.997 320.828 312.445C320.422 311.893 319.865 311.617 319.156 311.617C318.281 311.617 317.625 312.005 317.188 312.781V316.82C317.62 317.591 318.281 317.977 319.172 317.977C319.865 317.977 320.414 317.703 320.82 317.156C321.232 316.604 321.438 315.786 321.438 314.703ZM328.812 311.844C328.594 311.807 328.357 311.789 328.102 311.789C327.154 311.789 326.51 312.193 326.172 313V319H324.727V310.547H326.133L326.156 311.523C326.63 310.768 327.302 310.391 328.172 310.391C328.453 310.391 328.667 310.427 328.812 310.5V311.844ZM331.719 319H330.273V310.547H331.719V319ZM330.156 308.305C330.156 308.07 330.227 307.872 330.367 307.711C330.513 307.549 330.727 307.469 331.008 307.469C331.289 307.469 331.503 307.549 331.648 307.711C331.794 307.872 331.867 308.07 331.867 308.305C331.867 308.539 331.794 308.734 331.648 308.891C331.503 309.047 331.289 309.125 331.008 309.125C330.727 309.125 330.513 309.047 330.367 308.891C330.227 308.734 330.156 308.539 330.156 308.305ZM337.43 317.977C337.945 317.977 338.396 317.82 338.781 317.508C339.167 317.195 339.38 316.805 339.422 316.336H340.789C340.763 316.82 340.596 317.281 340.289 317.719C339.982 318.156 339.57 318.505 339.055 318.766C338.544 319.026 338.003 319.156 337.43 319.156C336.279 319.156 335.362 318.773 334.68 318.008C334.003 317.237 333.664 316.185 333.664 314.852V314.609C333.664 313.786 333.815 313.055 334.117 312.414C334.419 311.773 334.852 311.276 335.414 310.922C335.982 310.568 336.651 310.391 337.422 310.391C338.37 310.391 339.156 310.674 339.781 311.242C340.411 311.81 340.747 312.547 340.789 313.453H339.422C339.38 312.906 339.172 312.458 338.797 312.109C338.427 311.755 337.969 311.578 337.422 311.578C336.688 311.578 336.117 311.844 335.711 312.375C335.31 312.901 335.109 313.664 335.109 314.664V314.938C335.109 315.911 335.31 316.661 335.711 317.188C336.112 317.714 336.685 317.977 337.43 317.977ZM345.922 319.156C344.776 319.156 343.844 318.781 343.125 318.031C342.406 317.276 342.047 316.268 342.047 315.008V314.742C342.047 313.904 342.206 313.156 342.523 312.5C342.846 311.839 343.294 311.323 343.867 310.953C344.445 310.578 345.07 310.391 345.742 310.391C346.841 310.391 347.695 310.753 348.305 311.477C348.914 312.201 349.219 313.237 349.219 314.586V315.188H343.492C343.513 316.021 343.755 316.695 344.219 317.211C344.688 317.721 345.281 317.977 346 317.977C346.51 317.977 346.943 317.872 347.297 317.664C347.651 317.456 347.961 317.18 348.227 316.836L349.109 317.523C348.401 318.612 347.339 319.156 345.922 319.156ZM345.742 311.578C345.159 311.578 344.669 311.792 344.273 312.219C343.878 312.641 343.633 313.234 343.539 314H347.773V313.891C347.732 313.156 347.534 312.589 347.18 312.188C346.826 311.781 346.346 311.578 345.742 311.578Z" fill="#2097F6"/>
<g filter="url(#filter1_d)">
<circle cx="306" cy="66" r="40" fill="#E7F4FF"/>
<circle cx="306" cy="66" r="39.5" stroke="#2097F6"/>
</g>
<path d="M291.125 68.0703C291.125 67.5911 290.956 67.1875 290.617 66.8594C290.284 66.5312 289.719 66.2344 288.922 65.9688C287.812 65.6302 287.003 65.1901 286.492 64.6484C285.987 64.1016 285.734 63.4089 285.734 62.5703C285.734 61.7161 285.982 61.0156 286.477 60.4688C286.977 59.9219 287.661 59.5964 288.531 59.4922V57.7812H289.695V59.5C290.57 59.6198 291.25 59.987 291.734 60.6016C292.224 61.2161 292.469 62.0573 292.469 63.125H291.031C291.031 62.3906 290.857 61.8073 290.508 61.375C290.159 60.9427 289.688 60.7266 289.094 60.7266C288.474 60.7266 288 60.888 287.672 61.2109C287.344 61.5286 287.18 61.974 287.18 62.5469C287.18 63.0781 287.352 63.5026 287.695 63.8203C288.044 64.1328 288.615 64.4193 289.406 64.6797C290.203 64.9349 290.823 65.2188 291.266 65.5312C291.714 65.8385 292.042 66.1979 292.25 66.6094C292.464 67.0208 292.57 67.5026 292.57 68.0547C292.57 68.9349 292.305 69.6432 291.773 70.1797C291.247 70.7161 290.508 71.0339 289.555 71.1328V72.625H288.398V71.1328C287.43 71.0443 286.669 70.7005 286.117 70.1016C285.57 69.4974 285.297 68.6797 285.297 67.6484H286.742C286.742 68.3724 286.932 68.9297 287.312 69.3203C287.693 69.7109 288.232 69.9062 288.93 69.9062C289.612 69.9062 290.148 69.7422 290.539 69.4141C290.93 69.0859 291.125 68.638 291.125 68.0703ZM304.438 67.1797H306.016V68.3594H304.438V71H302.984V68.3594H297.805V67.5078L302.898 59.625H304.438V67.1797ZM299.445 67.1797H302.984V61.6016L302.812 61.9141L299.445 67.1797ZM307.5 70.2422C307.5 69.9922 307.573 69.7839 307.719 69.6172C307.87 69.4505 308.094 69.3672 308.391 69.3672C308.688 69.3672 308.911 69.4505 309.062 69.6172C309.219 69.7839 309.297 69.9922 309.297 70.2422C309.297 70.4818 309.219 70.6823 309.062 70.8438C308.911 71.0052 308.688 71.0859 308.391 71.0859C308.094 71.0859 307.87 71.0052 307.719 70.8438C307.573 70.6823 307.5 70.4818 307.5 70.2422ZM318.438 62.5938C318.438 63.1615 318.286 63.6667 317.984 64.1094C317.688 64.5521 317.284 64.8984 316.773 65.1484C317.367 65.4036 317.836 65.776 318.18 66.2656C318.529 66.7552 318.703 67.3099 318.703 67.9297C318.703 68.9141 318.37 69.6979 317.703 70.2812C317.042 70.8646 316.169 71.1562 315.086 71.1562C313.992 71.1562 313.115 70.8646 312.453 70.2812C311.797 69.6927 311.469 68.9089 311.469 67.9297C311.469 67.3151 311.635 66.7604 311.969 66.2656C312.307 65.7708 312.773 65.3958 313.367 65.1406C312.862 64.8906 312.464 64.5443 312.172 64.1016C311.88 63.6589 311.734 63.1562 311.734 62.5938C311.734 61.6354 312.042 60.875 312.656 60.3125C313.271 59.75 314.081 59.4688 315.086 59.4688C316.086 59.4688 316.893 59.75 317.508 60.3125C318.128 60.875 318.438 61.6354 318.438 62.5938ZM317.258 67.8984C317.258 67.263 317.055 66.7448 316.648 66.3438C316.247 65.9427 315.721 65.7422 315.07 65.7422C314.419 65.7422 313.896 65.9401 313.5 66.3359C313.109 66.7318 312.914 67.2526 312.914 67.8984C312.914 68.5443 313.104 69.0521 313.484 69.4219C313.87 69.7917 314.404 69.9766 315.086 69.9766C315.763 69.9766 316.294 69.7917 316.68 69.4219C317.065 69.0469 317.258 68.5391 317.258 67.8984ZM315.086 60.6562C314.518 60.6562 314.057 60.8333 313.703 61.1875C313.354 61.5365 313.18 62.013 313.18 62.6172C313.18 63.1953 313.352 63.6641 313.695 64.0234C314.044 64.3776 314.508 64.5547 315.086 64.5547C315.664 64.5547 316.125 64.3776 316.469 64.0234C316.818 63.6641 316.992 63.1953 316.992 62.6172C316.992 62.0391 316.812 61.5677 316.453 61.2031C316.094 60.8385 315.638 60.6562 315.086 60.6562ZM327.977 71H320.523V69.9609L324.461 65.5859C325.044 64.9245 325.445 64.388 325.664 63.9766C325.888 63.5599 326 63.1302 326 62.6875C326 62.0938 325.82 61.6068 325.461 61.2266C325.102 60.8464 324.622 60.6562 324.023 60.6562C323.305 60.6562 322.745 60.862 322.344 61.2734C321.948 61.6797 321.75 62.2474 321.75 62.9766H320.305C320.305 61.9297 320.641 61.0833 321.312 60.4375C321.99 59.7917 322.893 59.4688 324.023 59.4688C325.081 59.4688 325.917 59.7474 326.531 60.3047C327.146 60.8568 327.453 61.5938 327.453 62.5156C327.453 63.6354 326.74 64.9688 325.312 66.5156L322.266 69.8203H327.977V71Z" fill="#2097F6"/>
<path d="M278.781 15V3.625H282.5C283.734 3.625 284.661 3.88021 285.281 4.39062C285.906 4.90104 286.219 5.65625 286.219 6.65625C286.219 7.1875 286.068 7.65885 285.766 8.07031C285.464 8.47656 285.052 8.79167 284.531 9.01562C285.146 9.1875 285.63 9.51562 285.984 10C286.344 10.4792 286.523 11.0521 286.523 11.7188C286.523 12.7396 286.193 13.5417 285.531 14.125C284.87 14.7083 283.935 15 282.727 15H278.781ZM280.281 9.67969V13.7734H282.758C283.456 13.7734 284.005 13.5938 284.406 13.2344C284.812 12.8698 285.016 12.3698 285.016 11.7344C285.016 10.3646 284.271 9.67969 282.781 9.67969H280.281ZM280.281 8.47656H282.547C283.203 8.47656 283.727 8.3125 284.117 7.98438C284.513 7.65625 284.711 7.21094 284.711 6.64844C284.711 6.02344 284.529 5.57031 284.164 5.28906C283.799 5.0026 283.245 4.85938 282.5 4.85938H280.281V8.47656ZM290.094 15H288.648V6.54688H290.094V15ZM288.531 4.30469C288.531 4.07031 288.602 3.8724 288.742 3.71094C288.888 3.54948 289.102 3.46875 289.383 3.46875C289.664 3.46875 289.878 3.54948 290.023 3.71094C290.169 3.8724 290.242 4.07031 290.242 4.30469C290.242 4.53906 290.169 4.73438 290.023 4.89062C289.878 5.04688 289.664 5.125 289.383 5.125C289.102 5.125 288.888 5.04688 288.742 4.89062C288.602 4.73438 288.531 4.53906 288.531 4.30469ZM293.781 6.54688L293.828 7.60938C294.474 6.79688 295.318 6.39062 296.359 6.39062C298.146 6.39062 299.047 7.39844 299.062 9.41406V15H297.617V9.40625C297.612 8.79688 297.471 8.34635 297.195 8.05469C296.924 7.76302 296.5 7.61719 295.922 7.61719C295.453 7.61719 295.042 7.74219 294.688 7.99219C294.333 8.24219 294.057 8.57031 293.859 8.97656V15H292.414V6.54688H293.781ZM306.461 15C306.378 14.8333 306.31 14.5365 306.258 14.1094C305.586 14.8073 304.784 15.1562 303.852 15.1562C303.018 15.1562 302.333 14.9219 301.797 14.4531C301.266 13.9792 301 13.3802 301 12.6562C301 11.776 301.333 11.0938 302 10.6094C302.672 10.1198 303.615 9.875 304.828 9.875H306.234V9.21094C306.234 8.70573 306.083 8.30469 305.781 8.00781C305.479 7.70573 305.034 7.55469 304.445 7.55469C303.93 7.55469 303.497 7.6849 303.148 7.94531C302.799 8.20573 302.625 8.52083 302.625 8.89062H301.172C301.172 8.46875 301.32 8.0625 301.617 7.67188C301.919 7.27604 302.326 6.96354 302.836 6.73438C303.352 6.50521 303.917 6.39062 304.531 6.39062C305.505 6.39062 306.268 6.63542 306.82 7.125C307.372 7.60938 307.659 8.27865 307.68 9.13281V13.0234C307.68 13.7995 307.779 14.4167 307.977 14.875V15H306.461ZM304.062 13.8984C304.516 13.8984 304.945 13.7812 305.352 13.5469C305.758 13.3125 306.052 13.0078 306.234 12.6328V10.8984H305.102C303.331 10.8984 302.445 11.4167 302.445 12.4531C302.445 12.9062 302.596 13.2604 302.898 13.5156C303.201 13.7708 303.589 13.8984 304.062 13.8984ZM311.312 6.54688L311.359 7.60938C312.005 6.79688 312.849 6.39062 313.891 6.39062C315.677 6.39062 316.578 7.39844 316.594 9.41406V15H315.148V9.40625C315.143 8.79688 315.003 8.34635 314.727 8.05469C314.456 7.76302 314.031 7.61719 313.453 7.61719C312.984 7.61719 312.573 7.74219 312.219 7.99219C311.865 8.24219 311.589 8.57031 311.391 8.97656V15H309.945V6.54688H311.312ZM322.164 13.9766C322.68 13.9766 323.13 13.8203 323.516 13.5078C323.901 13.1953 324.115 12.8047 324.156 12.3359H325.523C325.497 12.8203 325.331 13.2812 325.023 13.7188C324.716 14.1562 324.305 14.5052 323.789 14.7656C323.279 15.026 322.737 15.1562 322.164 15.1562C321.013 15.1562 320.096 14.7734 319.414 14.0078C318.737 13.237 318.398 12.1849 318.398 10.8516V10.6094C318.398 9.78646 318.549 9.05469 318.852 8.41406C319.154 7.77344 319.586 7.27604 320.148 6.92188C320.716 6.56771 321.385 6.39062 322.156 6.39062C323.104 6.39062 323.891 6.67448 324.516 7.24219C325.146 7.8099 325.482 8.54688 325.523 9.45312H324.156C324.115 8.90625 323.906 8.45833 323.531 8.10938C323.161 7.75521 322.703 7.57812 322.156 7.57812C321.422 7.57812 320.852 7.84375 320.445 8.375C320.044 8.90104 319.844 9.66406 319.844 10.6641V10.9375C319.844 11.9115 320.044 12.6615 320.445 13.1875C320.846 13.7135 321.419 13.9766 322.164 13.9766ZM330.656 15.1562C329.51 15.1562 328.578 14.7812 327.859 14.0312C327.141 13.276 326.781 12.2682 326.781 11.0078V10.7422C326.781 9.90365 326.94 9.15625 327.258 8.5C327.581 7.83854 328.029 7.32292 328.602 6.95312C329.18 6.57812 329.805 6.39062 330.477 6.39062C331.576 6.39062 332.43 6.7526 333.039 7.47656C333.648 8.20052 333.953 9.23698 333.953 10.5859V11.1875H328.227C328.247 12.0208 328.49 12.6953 328.953 13.2109C329.422 13.7214 330.016 13.9766 330.734 13.9766C331.245 13.9766 331.677 13.8724 332.031 13.6641C332.385 13.4557 332.695 13.1797 332.961 12.8359L333.844 13.5234C333.135 14.612 332.073 15.1562 330.656 15.1562ZM330.477 7.57812C329.893 7.57812 329.404 7.79167 329.008 8.21875C328.612 8.64062 328.367 9.23438 328.273 10H332.508V9.89062C332.466 9.15625 332.268 8.58854 331.914 8.1875C331.56 7.78125 331.081 7.57812 330.477 7.57812Z" fill="#2097F6"/>
<g filter="url(#filter2_d)">
<circle cx="569" cy="256" r="40" fill="#E7F4FF"/>
<circle cx="569" cy="256" r="39.5" stroke="#2097F6"/>
</g>
<path d="M554.125 258.07C554.125 257.591 553.956 257.188 553.617 256.859C553.284 256.531 552.719 256.234 551.922 255.969C550.812 255.63 550.003 255.19 549.492 254.648C548.987 254.102 548.734 253.409 548.734 252.57C548.734 251.716 548.982 251.016 549.477 250.469C549.977 249.922 550.661 249.596 551.531 249.492V247.781H552.695V249.5C553.57 249.62 554.25 249.987 554.734 250.602C555.224 251.216 555.469 252.057 555.469 253.125H554.031C554.031 252.391 553.857 251.807 553.508 251.375C553.159 250.943 552.688 250.727 552.094 250.727C551.474 250.727 551 250.888 550.672 251.211C550.344 251.529 550.18 251.974 550.18 252.547C550.18 253.078 550.352 253.503 550.695 253.82C551.044 254.133 551.615 254.419 552.406 254.68C553.203 254.935 553.823 255.219 554.266 255.531C554.714 255.839 555.042 256.198 555.25 256.609C555.464 257.021 555.57 257.503 555.57 258.055C555.57 258.935 555.305 259.643 554.773 260.18C554.247 260.716 553.508 261.034 552.555 261.133V262.625H551.398V261.133C550.43 261.044 549.669 260.701 549.117 260.102C548.57 259.497 548.297 258.68 548.297 257.648H549.742C549.742 258.372 549.932 258.93 550.312 259.32C550.693 259.711 551.232 259.906 551.93 259.906C552.612 259.906 553.148 259.742 553.539 259.414C553.93 259.086 554.125 258.638 554.125 258.07ZM567.438 257.18H569.016V258.359H567.438V261H565.984V258.359H560.805V257.508L565.898 249.625H567.438V257.18ZM562.445 257.18H565.984V251.602L565.812 251.914L562.445 257.18ZM570.5 260.242C570.5 259.992 570.573 259.784 570.719 259.617C570.87 259.451 571.094 259.367 571.391 259.367C571.688 259.367 571.911 259.451 572.062 259.617C572.219 259.784 572.297 259.992 572.297 260.242C572.297 260.482 572.219 260.682 572.062 260.844C571.911 261.005 571.688 261.086 571.391 261.086C571.094 261.086 570.87 261.005 570.719 260.844C570.573 260.682 570.5 260.482 570.5 260.242ZM580.078 256C579.776 256.359 579.414 256.648 578.992 256.867C578.576 257.086 578.117 257.195 577.617 257.195C576.961 257.195 576.388 257.034 575.898 256.711C575.414 256.388 575.039 255.935 574.773 255.352C574.508 254.763 574.375 254.115 574.375 253.406C574.375 252.646 574.518 251.961 574.805 251.352C575.096 250.742 575.508 250.276 576.039 249.953C576.57 249.63 577.19 249.469 577.898 249.469C579.023 249.469 579.909 249.891 580.555 250.734C581.206 251.573 581.531 252.719 581.531 254.172V254.594C581.531 256.807 581.094 258.424 580.219 259.445C579.344 260.461 578.023 260.982 576.258 261.008H575.977V259.789H576.281C577.474 259.768 578.391 259.458 579.031 258.859C579.672 258.255 580.021 257.302 580.078 256ZM577.852 256C578.336 256 578.781 255.852 579.188 255.555C579.599 255.258 579.898 254.891 580.086 254.453V253.875C580.086 252.927 579.88 252.156 579.469 251.562C579.057 250.969 578.536 250.672 577.906 250.672C577.271 250.672 576.76 250.917 576.375 251.406C575.99 251.891 575.797 252.531 575.797 253.328C575.797 254.104 575.982 254.745 576.352 255.25C576.727 255.75 577.227 256 577.852 256ZM585.625 254.609H586.711C587.393 254.599 587.93 254.419 588.32 254.07C588.711 253.721 588.906 253.25 588.906 252.656C588.906 251.323 588.242 250.656 586.914 250.656C586.289 250.656 585.789 250.836 585.414 251.195C585.044 251.549 584.859 252.021 584.859 252.609H583.414C583.414 251.708 583.742 250.961 584.398 250.367C585.06 249.768 585.898 249.469 586.914 249.469C587.987 249.469 588.828 249.753 589.438 250.32C590.047 250.888 590.352 251.677 590.352 252.688C590.352 253.182 590.19 253.661 589.867 254.125C589.549 254.589 589.115 254.935 588.562 255.164C589.188 255.362 589.669 255.69 590.008 256.148C590.352 256.607 590.523 257.167 590.523 257.828C590.523 258.849 590.19 259.659 589.523 260.258C588.857 260.857 587.99 261.156 586.922 261.156C585.854 261.156 584.984 260.867 584.312 260.289C583.646 259.711 583.312 258.948 583.312 258H584.766C584.766 258.599 584.961 259.078 585.352 259.438C585.742 259.797 586.266 259.977 586.922 259.977C587.62 259.977 588.154 259.794 588.523 259.43C588.893 259.065 589.078 258.542 589.078 257.859C589.078 257.198 588.875 256.69 588.469 256.336C588.062 255.982 587.477 255.799 586.711 255.789H585.625V254.609Z" fill="#2097F6"/>
<path d="M539.258 199.68C539.258 200.779 539.083 201.727 538.734 202.523C538.385 203.315 537.896 203.935 537.266 204.383L539.297 205.977L538.273 206.922L535.875 205.016C535.5 205.109 535.104 205.156 534.688 205.156C533.792 205.156 532.997 204.938 532.305 204.5C531.612 204.057 531.073 203.43 530.688 202.617C530.307 201.799 530.112 200.854 530.102 199.781V198.961C530.102 197.867 530.292 196.901 530.672 196.062C531.052 195.224 531.589 194.583 532.281 194.141C532.979 193.693 533.776 193.469 534.672 193.469C535.589 193.469 536.393 193.69 537.086 194.133C537.784 194.576 538.32 195.214 538.695 196.047C539.07 196.875 539.258 197.844 539.258 198.953V199.68ZM537.758 198.945C537.758 197.607 537.49 196.576 536.953 195.852C536.422 195.122 535.661 194.758 534.672 194.758C533.729 194.758 532.984 195.12 532.438 195.844C531.896 196.562 531.617 197.562 531.602 198.844V199.68C531.602 200.982 531.872 202.008 532.414 202.758C532.961 203.508 533.719 203.883 534.688 203.883C535.656 203.883 536.406 203.531 536.938 202.828C537.469 202.12 537.742 201.107 537.758 199.789V198.945ZM546.562 204.164C546 204.826 545.174 205.156 544.086 205.156C543.185 205.156 542.497 204.896 542.023 204.375C541.555 203.849 541.318 203.073 541.312 202.047V196.547H542.758V202.008C542.758 203.289 543.279 203.93 544.32 203.93C545.424 203.93 546.159 203.518 546.523 202.695V196.547H547.969V205H546.594L546.562 204.164ZM551.742 205H550.297V196.547H551.742V205ZM550.18 194.305C550.18 194.07 550.25 193.872 550.391 193.711C550.536 193.549 550.75 193.469 551.031 193.469C551.312 193.469 551.526 193.549 551.672 193.711C551.818 193.872 551.891 194.07 551.891 194.305C551.891 194.539 551.818 194.734 551.672 194.891C551.526 195.047 551.312 195.125 551.031 195.125C550.75 195.125 550.536 195.047 550.391 194.891C550.25 194.734 550.18 194.539 550.18 194.305ZM561.203 200.867C561.203 202.154 560.909 203.19 560.32 203.977C559.732 204.763 558.935 205.156 557.93 205.156C556.904 205.156 556.096 204.831 555.508 204.18V208.25H554.062V196.547H555.383L555.453 197.484C556.042 196.755 556.859 196.391 557.906 196.391C558.922 196.391 559.724 196.773 560.312 197.539C560.906 198.305 561.203 199.37 561.203 200.734V200.867ZM559.758 200.703C559.758 199.75 559.555 198.997 559.148 198.445C558.742 197.893 558.185 197.617 557.477 197.617C556.602 197.617 555.945 198.005 555.508 198.781V202.82C555.94 203.591 556.602 203.977 557.492 203.977C558.185 203.977 558.734 203.703 559.141 203.156C559.552 202.604 559.758 201.786 559.758 200.703ZM568.266 204.164C567.703 204.826 566.878 205.156 565.789 205.156C564.888 205.156 564.201 204.896 563.727 204.375C563.258 203.849 563.021 203.073 563.016 202.047V196.547H564.461V202.008C564.461 203.289 564.982 203.93 566.023 203.93C567.128 203.93 567.862 203.518 568.227 202.695V196.547H569.672V205H568.297L568.266 204.164ZM576.797 202.758C576.797 202.367 576.648 202.065 576.352 201.852C576.06 201.633 575.547 201.445 574.812 201.289C574.083 201.133 573.503 200.945 573.07 200.727C572.643 200.508 572.326 200.247 572.117 199.945C571.914 199.643 571.812 199.284 571.812 198.867C571.812 198.174 572.104 197.589 572.688 197.109C573.276 196.63 574.026 196.391 574.938 196.391C575.896 196.391 576.672 196.638 577.266 197.133C577.865 197.628 578.164 198.26 578.164 199.031H576.711C576.711 198.635 576.542 198.294 576.203 198.008C575.87 197.721 575.448 197.578 574.938 197.578C574.411 197.578 574 197.693 573.703 197.922C573.406 198.151 573.258 198.451 573.258 198.82C573.258 199.169 573.396 199.432 573.672 199.609C573.948 199.786 574.445 199.956 575.164 200.117C575.888 200.279 576.474 200.471 576.922 200.695C577.37 200.919 577.701 201.19 577.914 201.508C578.133 201.82 578.242 202.203 578.242 202.656C578.242 203.411 577.94 204.018 577.336 204.477C576.732 204.93 575.948 205.156 574.984 205.156C574.307 205.156 573.708 205.036 573.188 204.797C572.667 204.557 572.258 204.224 571.961 203.797C571.669 203.365 571.523 202.898 571.523 202.398H572.969C572.995 202.883 573.188 203.268 573.547 203.555C573.911 203.836 574.391 203.977 574.984 203.977C575.531 203.977 575.969 203.867 576.297 203.648C576.63 203.424 576.797 203.128 576.797 202.758ZM587.609 203.008L589.234 196.547H590.68L588.219 205H587.047L584.992 198.594L582.992 205H581.82L579.367 196.547H580.805L582.469 202.875L584.438 196.547H585.602L587.609 203.008ZM597.375 205C597.292 204.833 597.224 204.536 597.172 204.109C596.5 204.807 595.698 205.156 594.766 205.156C593.932 205.156 593.247 204.922 592.711 204.453C592.18 203.979 591.914 203.38 591.914 202.656C591.914 201.776 592.247 201.094 592.914 200.609C593.586 200.12 594.529 199.875 595.742 199.875H597.148V199.211C597.148 198.706 596.997 198.305 596.695 198.008C596.393 197.706 595.948 197.555 595.359 197.555C594.844 197.555 594.411 197.685 594.062 197.945C593.714 198.206 593.539 198.521 593.539 198.891H592.086C592.086 198.469 592.234 198.062 592.531 197.672C592.833 197.276 593.24 196.964 593.75 196.734C594.266 196.505 594.831 196.391 595.445 196.391C596.419 196.391 597.182 196.635 597.734 197.125C598.286 197.609 598.573 198.279 598.594 199.133V203.023C598.594 203.799 598.693 204.417 598.891 204.875V205H597.375ZM594.977 203.898C595.43 203.898 595.859 203.781 596.266 203.547C596.672 203.312 596.966 203.008 597.148 202.633V200.898H596.016C594.245 200.898 593.359 201.417 593.359 202.453C593.359 202.906 593.51 203.26 593.812 203.516C594.115 203.771 594.503 203.898 594.977 203.898ZM608 200.867C608 202.154 607.706 203.19 607.117 203.977C606.529 204.763 605.732 205.156 604.727 205.156C603.701 205.156 602.893 204.831 602.305 204.18V208.25H600.859V196.547H602.18L602.25 197.484C602.839 196.755 603.656 196.391 604.703 196.391C605.719 196.391 606.521 196.773 607.109 197.539C607.703 198.305 608 199.37 608 200.734V200.867ZM606.555 200.703C606.555 199.75 606.352 198.997 605.945 198.445C605.539 197.893 604.982 197.617 604.273 197.617C603.398 197.617 602.742 198.005 602.305 198.781V202.82C602.737 203.591 603.398 203.977 604.289 203.977C604.982 203.977 605.531 203.703 605.938 203.156C606.349 202.604 606.555 201.786 606.555 200.703Z" fill="#2097F6"/>
<g filter="url(#filter3_d)">
<circle cx="40" cy="269" r="40" fill="#E7F4FF"/>
<circle cx="40" cy="269" r="39.5" stroke="#2097F6"/>
</g>
<path d="M25.125 271.07C25.125 270.591 24.9557 270.188 24.6172 269.859C24.2839 269.531 23.7188 269.234 22.9219 268.969C21.8125 268.63 21.0026 268.19 20.4922 267.648C19.987 267.102 19.7344 266.409 19.7344 265.57C19.7344 264.716 19.9818 264.016 20.4766 263.469C20.9766 262.922 21.6615 262.596 22.5312 262.492V260.781H23.6953V262.5C24.5703 262.62 25.25 262.987 25.7344 263.602C26.224 264.216 26.4688 265.057 26.4688 266.125H25.0312C25.0312 265.391 24.8568 264.807 24.5078 264.375C24.1589 263.943 23.6875 263.727 23.0938 263.727C22.474 263.727 22 263.888 21.6719 264.211C21.3438 264.529 21.1797 264.974 21.1797 265.547C21.1797 266.078 21.3516 266.503 21.6953 266.82C22.0443 267.133 22.6146 267.419 23.4062 267.68C24.2031 267.935 24.8229 268.219 25.2656 268.531C25.7135 268.839 26.0417 269.198 26.25 269.609C26.4635 270.021 26.5703 270.503 26.5703 271.055C26.5703 271.935 26.3047 272.643 25.7734 273.18C25.2474 273.716 24.5078 274.034 23.5547 274.133V275.625H22.3984V274.133C21.4297 274.044 20.6693 273.701 20.1172 273.102C19.5703 272.497 19.2969 271.68 19.2969 270.648H20.7422C20.7422 271.372 20.9323 271.93 21.3125 272.32C21.6927 272.711 22.2318 272.906 22.9297 272.906C23.612 272.906 24.1484 272.742 24.5391 272.414C24.9297 272.086 25.125 271.638 25.125 271.07ZM38.4375 270.18H40.0156V271.359H38.4375V274H36.9844V271.359H31.8047V270.508L36.8984 262.625H38.4375V270.18ZM33.4453 270.18H36.9844V264.602L36.8125 264.914L33.4453 270.18ZM41.5 273.242C41.5 272.992 41.5729 272.784 41.7188 272.617C41.8698 272.451 42.0938 272.367 42.3906 272.367C42.6875 272.367 42.9115 272.451 43.0625 272.617C43.2188 272.784 43.2969 272.992 43.2969 273.242C43.2969 273.482 43.2188 273.682 43.0625 273.844C42.9115 274.005 42.6875 274.086 42.3906 274.086C42.0938 274.086 41.8698 274.005 41.7188 273.844C41.5729 273.682 41.5 273.482 41.5 273.242ZM52.4375 265.594C52.4375 266.161 52.2865 266.667 51.9844 267.109C51.6875 267.552 51.2839 267.898 50.7734 268.148C51.3672 268.404 51.8359 268.776 52.1797 269.266C52.5286 269.755 52.7031 270.31 52.7031 270.93C52.7031 271.914 52.3698 272.698 51.7031 273.281C51.0417 273.865 50.1693 274.156 49.0859 274.156C47.9922 274.156 47.1146 273.865 46.4531 273.281C45.7969 272.693 45.4688 271.909 45.4688 270.93C45.4688 270.315 45.6354 269.76 45.9688 269.266C46.3073 268.771 46.7734 268.396 47.3672 268.141C46.862 267.891 46.4635 267.544 46.1719 267.102C45.8802 266.659 45.7344 266.156 45.7344 265.594C45.7344 264.635 46.0417 263.875 46.6562 263.312C47.2708 262.75 48.0807 262.469 49.0859 262.469C50.0859 262.469 50.8932 262.75 51.5078 263.312C52.1276 263.875 52.4375 264.635 52.4375 265.594ZM51.2578 270.898C51.2578 270.263 51.0547 269.745 50.6484 269.344C50.2474 268.943 49.7214 268.742 49.0703 268.742C48.4193 268.742 47.8958 268.94 47.5 269.336C47.1094 269.732 46.9141 270.253 46.9141 270.898C46.9141 271.544 47.1042 272.052 47.4844 272.422C47.8698 272.792 48.4036 272.977 49.0859 272.977C49.763 272.977 50.2943 272.792 50.6797 272.422C51.0651 272.047 51.2578 271.539 51.2578 270.898ZM49.0859 263.656C48.5182 263.656 48.0573 263.833 47.7031 264.188C47.3542 264.536 47.1797 265.013 47.1797 265.617C47.1797 266.195 47.3516 266.664 47.6953 267.023C48.0443 267.378 48.5078 267.555 49.0859 267.555C49.6641 267.555 50.125 267.378 50.4688 267.023C50.8177 266.664 50.9922 266.195 50.9922 265.617C50.9922 265.039 50.8125 264.568 50.4531 264.203C50.0938 263.839 49.638 263.656 49.0859 263.656ZM60.1953 262.617V263.844H59.9297C58.8047 263.865 57.9089 264.198 57.2422 264.844C56.5755 265.49 56.1901 266.398 56.0859 267.57C56.6849 266.883 57.5026 266.539 58.5391 266.539C59.5286 266.539 60.3177 266.888 60.9062 267.586C61.5 268.284 61.7969 269.185 61.7969 270.289C61.7969 271.461 61.4766 272.398 60.8359 273.102C60.2005 273.805 59.3464 274.156 58.2734 274.156C57.1849 274.156 56.3021 273.74 55.625 272.906C54.9479 272.068 54.6094 270.99 54.6094 269.672V269.117C54.6094 267.023 55.0547 265.424 55.9453 264.32C56.8411 263.211 58.1719 262.643 59.9375 262.617H60.1953ZM58.2969 267.742C57.8021 267.742 57.3464 267.891 56.9297 268.188C56.513 268.484 56.224 268.857 56.0625 269.305V269.836C56.0625 270.773 56.2734 271.529 56.6953 272.102C57.1172 272.674 57.6432 272.961 58.2734 272.961C58.9245 272.961 59.4349 272.721 59.8047 272.242C60.1797 271.763 60.3672 271.135 60.3672 270.359C60.3672 269.578 60.1771 268.948 59.7969 268.469C59.4219 267.984 58.9219 267.742 58.2969 267.742Z" fill="#2097F6"/>
<path d="M16.7891 218V206.625H20C20.9896 206.625 21.8646 206.844 22.625 207.281C23.3854 207.719 23.9714 208.341 24.3828 209.148C24.7995 209.956 25.0104 210.883 25.0156 211.93V212.656C25.0156 213.729 24.8073 214.669 24.3906 215.477C23.9792 216.284 23.388 216.904 22.6172 217.336C21.8516 217.768 20.9583 217.99 19.9375 218H16.7891ZM18.2891 207.859V216.773H19.8672C21.0234 216.773 21.9219 216.414 22.5625 215.695C23.2083 214.977 23.5312 213.953 23.5312 212.625V211.961C23.5312 210.669 23.2266 209.667 22.6172 208.953C22.013 208.234 21.1536 207.87 20.0391 207.859H18.2891ZM30.5703 218.156C29.4245 218.156 28.4922 217.781 27.7734 217.031C27.0547 216.276 26.6953 215.268 26.6953 214.008V213.742C26.6953 212.904 26.8542 212.156 27.1719 211.5C27.4948 210.839 27.9427 210.323 28.5156 209.953C29.0938 209.578 29.7188 209.391 30.3906 209.391C31.4896 209.391 32.3438 209.753 32.9531 210.477C33.5625 211.201 33.8672 212.237 33.8672 213.586V214.188H28.1406C28.1615 215.021 28.4036 215.695 28.8672 216.211C29.3359 216.721 29.9297 216.977 30.6484 216.977C31.1589 216.977 31.5911 216.872 31.9453 216.664C32.2995 216.456 32.6094 216.18 32.875 215.836L33.7578 216.523C33.0495 217.612 31.987 218.156 30.5703 218.156ZM30.3906 210.578C29.8073 210.578 29.3177 210.792 28.9219 211.219C28.526 211.641 28.2812 212.234 28.1875 213H32.4219V212.891C32.3802 212.156 32.1823 211.589 31.8281 211.188C31.474 210.781 30.9948 210.578 30.3906 210.578ZM38.3828 212.633L40.2578 209.547H41.9453L39.1797 213.727L42.0312 218H40.3594L38.4062 214.836L36.4531 218H34.7734L37.625 213.727L34.8594 209.547H36.5312L38.3828 212.633ZM45.4453 207.5V209.547H47.0234V210.664H45.4453V215.906C45.4453 216.245 45.5156 216.5 45.6562 216.672C45.7969 216.839 46.0365 216.922 46.375 216.922C46.5417 216.922 46.7708 216.891 47.0625 216.828V218C46.6823 218.104 46.3125 218.156 45.9531 218.156C45.3073 218.156 44.8203 217.961 44.4922 217.57C44.1641 217.18 44 216.625 44 215.906V210.664H42.4609V209.547H44V207.5H45.4453ZM52.2266 218.156C51.0807 218.156 50.1484 217.781 49.4297 217.031C48.7109 216.276 48.3516 215.268 48.3516 214.008V213.742C48.3516 212.904 48.5104 212.156 48.8281 211.5C49.151 210.839 49.599 210.323 50.1719 209.953C50.75 209.578 51.375 209.391 52.0469 209.391C53.1458 209.391 54 209.753 54.6094 210.477C55.2188 211.201 55.5234 212.237 55.5234 213.586V214.188H49.7969C49.8177 215.021 50.0599 215.695 50.5234 216.211C50.9922 216.721 51.5859 216.977 52.3047 216.977C52.8151 216.977 53.2474 216.872 53.6016 216.664C53.9557 216.456 54.2656 216.18 54.5312 215.836L55.4141 216.523C54.7057 217.612 53.6432 218.156 52.2266 218.156ZM52.0469 210.578C51.4635 210.578 50.974 210.792 50.5781 211.219C50.1823 211.641 49.9375 212.234 49.8438 213H54.0781V212.891C54.0365 212.156 53.8385 211.589 53.4844 211.188C53.1302 210.781 52.651 210.578 52.0469 210.578ZM61.2891 210.844C61.0703 210.807 60.8333 210.789 60.5781 210.789C59.6302 210.789 58.987 211.193 58.6484 212V218H57.2031V209.547H58.6094L58.6328 210.523C59.1068 209.768 59.7786 209.391 60.6484 209.391C60.9297 209.391 61.1432 209.427 61.2891 209.5V210.844Z" fill="#2097F6"/>
<g filter="url(#filter4_d)">
<circle cx="137" cy="563" r="40" fill="#E7F4FF"/>
<circle cx="137" cy="563" r="39.5" stroke="#2097F6"/>
</g>
<path d="M122.125 565.07C122.125 564.591 121.956 564.188 121.617 563.859C121.284 563.531 120.719 563.234 119.922 562.969C118.812 562.63 118.003 562.19 117.492 561.648C116.987 561.102 116.734 560.409 116.734 559.57C116.734 558.716 116.982 558.016 117.477 557.469C117.977 556.922 118.661 556.596 119.531 556.492V554.781H120.695V556.5C121.57 556.62 122.25 556.987 122.734 557.602C123.224 558.216 123.469 559.057 123.469 560.125H122.031C122.031 559.391 121.857 558.807 121.508 558.375C121.159 557.943 120.688 557.727 120.094 557.727C119.474 557.727 119 557.888 118.672 558.211C118.344 558.529 118.18 558.974 118.18 559.547C118.18 560.078 118.352 560.503 118.695 560.82C119.044 561.133 119.615 561.419 120.406 561.68C121.203 561.935 121.823 562.219 122.266 562.531C122.714 562.839 123.042 563.198 123.25 563.609C123.464 564.021 123.57 564.503 123.57 565.055C123.57 565.935 123.305 566.643 122.773 567.18C122.247 567.716 121.508 568.034 120.555 568.133V569.625H119.398V568.133C118.43 568.044 117.669 567.701 117.117 567.102C116.57 566.497 116.297 565.68 116.297 564.648H117.742C117.742 565.372 117.932 565.93 118.312 566.32C118.693 566.711 119.232 566.906 119.93 566.906C120.612 566.906 121.148 566.742 121.539 566.414C121.93 566.086 122.125 565.638 122.125 565.07ZM135.438 564.18H137.016V565.359H135.438V568H133.984V565.359H128.805V564.508L133.898 556.625H135.438V564.18ZM130.445 564.18H133.984V558.602L133.812 558.914L130.445 564.18ZM138.5 567.242C138.5 566.992 138.573 566.784 138.719 566.617C138.87 566.451 139.094 566.367 139.391 566.367C139.688 566.367 139.911 566.451 140.062 566.617C140.219 566.784 140.297 566.992 140.297 567.242C140.297 567.482 140.219 567.682 140.062 567.844C139.911 568.005 139.688 568.086 139.391 568.086C139.094 568.086 138.87 568.005 138.719 567.844C138.573 567.682 138.5 567.482 138.5 567.242ZM149.438 559.594C149.438 560.161 149.286 560.667 148.984 561.109C148.688 561.552 148.284 561.898 147.773 562.148C148.367 562.404 148.836 562.776 149.18 563.266C149.529 563.755 149.703 564.31 149.703 564.93C149.703 565.914 149.37 566.698 148.703 567.281C148.042 567.865 147.169 568.156 146.086 568.156C144.992 568.156 144.115 567.865 143.453 567.281C142.797 566.693 142.469 565.909 142.469 564.93C142.469 564.315 142.635 563.76 142.969 563.266C143.307 562.771 143.773 562.396 144.367 562.141C143.862 561.891 143.464 561.544 143.172 561.102C142.88 560.659 142.734 560.156 142.734 559.594C142.734 558.635 143.042 557.875 143.656 557.312C144.271 556.75 145.081 556.469 146.086 556.469C147.086 556.469 147.893 556.75 148.508 557.312C149.128 557.875 149.438 558.635 149.438 559.594ZM148.258 564.898C148.258 564.263 148.055 563.745 147.648 563.344C147.247 562.943 146.721 562.742 146.07 562.742C145.419 562.742 144.896 562.94 144.5 563.336C144.109 563.732 143.914 564.253 143.914 564.898C143.914 565.544 144.104 566.052 144.484 566.422C144.87 566.792 145.404 566.977 146.086 566.977C146.763 566.977 147.294 566.792 147.68 566.422C148.065 566.047 148.258 565.539 148.258 564.898ZM146.086 557.656C145.518 557.656 145.057 557.833 144.703 558.188C144.354 558.536 144.18 559.013 144.18 559.617C144.18 560.195 144.352 560.664 144.695 561.023C145.044 561.378 145.508 561.555 146.086 561.555C146.664 561.555 147.125 561.378 147.469 561.023C147.818 560.664 147.992 560.195 147.992 559.617C147.992 559.039 147.812 558.568 147.453 558.203C147.094 557.839 146.638 557.656 146.086 557.656ZM157.062 563C156.76 563.359 156.398 563.648 155.977 563.867C155.56 564.086 155.102 564.195 154.602 564.195C153.945 564.195 153.372 564.034 152.883 563.711C152.398 563.388 152.023 562.935 151.758 562.352C151.492 561.763 151.359 561.115 151.359 560.406C151.359 559.646 151.503 558.961 151.789 558.352C152.081 557.742 152.492 557.276 153.023 556.953C153.555 556.63 154.174 556.469 154.883 556.469C156.008 556.469 156.893 556.891 157.539 557.734C158.19 558.573 158.516 559.719 158.516 561.172V561.594C158.516 563.807 158.078 565.424 157.203 566.445C156.328 567.461 155.008 567.982 153.242 568.008H152.961V566.789H153.266C154.458 566.768 155.375 566.458 156.016 565.859C156.656 565.255 157.005 564.302 157.062 563ZM154.836 563C155.32 563 155.766 562.852 156.172 562.555C156.583 562.258 156.883 561.891 157.07 561.453V560.875C157.07 559.927 156.865 559.156 156.453 558.562C156.042 557.969 155.521 557.672 154.891 557.672C154.255 557.672 153.745 557.917 153.359 558.406C152.974 558.891 152.781 559.531 152.781 560.328C152.781 561.104 152.966 561.745 153.336 562.25C153.711 562.75 154.211 563 154.836 563Z" fill="#2097F6"/>
<path d="M95.1172 628.391C94.9766 629.594 94.5312 630.523 93.7812 631.18C93.0365 631.831 92.0443 632.156 90.8047 632.156C89.4609 632.156 88.3828 631.674 87.5703 630.711C86.763 629.747 86.3594 628.458 86.3594 626.844V625.75C86.3594 624.693 86.5469 623.763 86.9219 622.961C87.3021 622.159 87.8385 621.544 88.5312 621.117C89.224 620.685 90.026 620.469 90.9375 620.469C92.1458 620.469 93.1146 620.807 93.8438 621.484C94.5729 622.156 94.9974 623.089 95.1172 624.281H93.6094C93.4792 623.375 93.1953 622.719 92.7578 622.312C92.3255 621.906 91.7188 621.703 90.9375 621.703C89.9792 621.703 89.2266 622.057 88.6797 622.766C88.138 623.474 87.8672 624.482 87.8672 625.789V626.891C87.8672 628.125 88.125 629.107 88.6406 629.836C89.1562 630.565 89.8776 630.93 90.8047 630.93C91.638 630.93 92.276 630.742 92.7188 630.367C93.1667 629.987 93.4635 629.328 93.6094 628.391H95.1172ZM96.5625 627.695C96.5625 626.867 96.724 626.122 97.0469 625.461C97.375 624.799 97.8281 624.289 98.4062 623.93C98.9896 623.57 99.6536 623.391 100.398 623.391C101.549 623.391 102.479 623.789 103.188 624.586C103.901 625.383 104.258 626.443 104.258 627.766V627.867C104.258 628.69 104.099 629.43 103.781 630.086C103.469 630.737 103.018 631.245 102.43 631.609C101.846 631.974 101.174 632.156 100.414 632.156C99.2682 632.156 98.3385 631.758 97.625 630.961C96.9167 630.164 96.5625 629.109 96.5625 627.797V627.695ZM98.0156 627.867C98.0156 628.805 98.2318 629.557 98.6641 630.125C99.1016 630.693 99.6849 630.977 100.414 630.977C101.148 630.977 101.732 630.69 102.164 630.117C102.596 629.539 102.812 628.732 102.812 627.695C102.812 626.768 102.591 626.018 102.148 625.445C101.711 624.867 101.128 624.578 100.398 624.578C99.6849 624.578 99.1094 624.862 98.6719 625.43C98.2344 625.997 98.0156 626.81 98.0156 627.867ZM107.641 632H106.195V623.547H107.641V632ZM106.078 621.305C106.078 621.07 106.148 620.872 106.289 620.711C106.435 620.549 106.648 620.469 106.93 620.469C107.211 620.469 107.424 620.549 107.57 620.711C107.716 620.872 107.789 621.07 107.789 621.305C107.789 621.539 107.716 621.734 107.57 621.891C107.424 622.047 107.211 622.125 106.93 622.125C106.648 622.125 106.435 622.047 106.289 621.891C106.148 621.734 106.078 621.539 106.078 621.305ZM111.328 623.547L111.375 624.609C112.021 623.797 112.865 623.391 113.906 623.391C115.693 623.391 116.594 624.398 116.609 626.414V632H115.164V626.406C115.159 625.797 115.018 625.346 114.742 625.055C114.471 624.763 114.047 624.617 113.469 624.617C113 624.617 112.589 624.742 112.234 624.992C111.88 625.242 111.604 625.57 111.406 625.977V632H109.961V623.547H111.328ZM120.953 620.625L124.672 629.906L128.391 620.625H130.336V632H128.836V627.57L128.977 622.789L125.242 632H124.094L120.367 622.812L120.516 627.57V632H119.016V620.625H120.953ZM137.977 632C137.893 631.833 137.826 631.536 137.773 631.109C137.102 631.807 136.299 632.156 135.367 632.156C134.534 632.156 133.849 631.922 133.312 631.453C132.781 630.979 132.516 630.38 132.516 629.656C132.516 628.776 132.849 628.094 133.516 627.609C134.188 627.12 135.13 626.875 136.344 626.875H137.75V626.211C137.75 625.706 137.599 625.305 137.297 625.008C136.995 624.706 136.549 624.555 135.961 624.555C135.445 624.555 135.013 624.685 134.664 624.945C134.315 625.206 134.141 625.521 134.141 625.891H132.688C132.688 625.469 132.836 625.062 133.133 624.672C133.435 624.276 133.841 623.964 134.352 623.734C134.867 623.505 135.432 623.391 136.047 623.391C137.021 623.391 137.784 623.635 138.336 624.125C138.888 624.609 139.174 625.279 139.195 626.133V630.023C139.195 630.799 139.294 631.417 139.492 631.875V632H137.977ZM135.578 630.898C136.031 630.898 136.461 630.781 136.867 630.547C137.273 630.312 137.568 630.008 137.75 629.633V627.898H136.617C134.846 627.898 133.961 628.417 133.961 629.453C133.961 629.906 134.112 630.26 134.414 630.516C134.716 630.771 135.104 630.898 135.578 630.898ZM145.547 624.844C145.328 624.807 145.091 624.789 144.836 624.789C143.888 624.789 143.245 625.193 142.906 626V632H141.461V623.547H142.867L142.891 624.523C143.365 623.768 144.036 623.391 144.906 623.391C145.188 623.391 145.401 623.427 145.547 623.5V624.844ZM149.242 628.086L148.336 629.031V632H146.891V620H148.336V627.258L149.109 626.328L151.742 623.547H153.5L150.211 627.078L153.883 632H152.188L149.242 628.086ZM158.344 632.156C157.198 632.156 156.266 631.781 155.547 631.031C154.828 630.276 154.469 629.268 154.469 628.008V627.742C154.469 626.904 154.628 626.156 154.945 625.5C155.268 624.839 155.716 624.323 156.289 623.953C156.867 623.578 157.492 623.391 158.164 623.391C159.263 623.391 160.117 623.753 160.727 624.477C161.336 625.201 161.641 626.237 161.641 627.586V628.188H155.914C155.935 629.021 156.177 629.695 156.641 630.211C157.109 630.721 157.703 630.977 158.422 630.977C158.932 630.977 159.365 630.872 159.719 630.664C160.073 630.456 160.383 630.18 160.648 629.836L161.531 630.523C160.823 631.612 159.76 632.156 158.344 632.156ZM158.164 624.578C157.581 624.578 157.091 624.792 156.695 625.219C156.299 625.641 156.055 626.234 155.961 627H160.195V626.891C160.154 626.156 159.956 625.589 159.602 625.188C159.247 624.781 158.768 624.578 158.164 624.578ZM165.281 621.5V623.547H166.859V624.664H165.281V629.906C165.281 630.245 165.352 630.5 165.492 630.672C165.633 630.839 165.872 630.922 166.211 630.922C166.378 630.922 166.607 630.891 166.898 630.828V632C166.518 632.104 166.148 632.156 165.789 632.156C165.143 632.156 164.656 631.961 164.328 631.57C164 631.18 163.836 630.625 163.836 629.906V624.664H162.297V623.547H163.836V621.5H165.281ZM177.148 628.391C177.008 629.594 176.562 630.523 175.812 631.18C175.068 631.831 174.076 632.156 172.836 632.156C171.492 632.156 170.414 631.674 169.602 630.711C168.794 629.747 168.391 628.458 168.391 626.844V625.75C168.391 624.693 168.578 623.763 168.953 622.961C169.333 622.159 169.87 621.544 170.562 621.117C171.255 620.685 172.057 620.469 172.969 620.469C174.177 620.469 175.146 620.807 175.875 621.484C176.604 622.156 177.029 623.089 177.148 624.281H175.641C175.51 623.375 175.227 622.719 174.789 622.312C174.357 621.906 173.75 621.703 172.969 621.703C172.01 621.703 171.258 622.057 170.711 622.766C170.169 623.474 169.898 624.482 169.898 625.789V626.891C169.898 628.125 170.156 629.107 170.672 629.836C171.188 630.565 171.909 630.93 172.836 630.93C173.669 630.93 174.307 630.742 174.75 630.367C175.198 629.987 175.495 629.328 175.641 628.391H177.148ZM184.195 632C184.112 631.833 184.044 631.536 183.992 631.109C183.32 631.807 182.518 632.156 181.586 632.156C180.753 632.156 180.068 631.922 179.531 631.453C179 630.979 178.734 630.38 178.734 629.656C178.734 628.776 179.068 628.094 179.734 627.609C180.406 627.12 181.349 626.875 182.562 626.875H183.969V626.211C183.969 625.706 183.818 625.305 183.516 625.008C183.214 624.706 182.768 624.555 182.18 624.555C181.664 624.555 181.232 624.685 180.883 624.945C180.534 625.206 180.359 625.521 180.359 625.891H178.906C178.906 625.469 179.055 625.062 179.352 624.672C179.654 624.276 180.06 623.964 180.57 623.734C181.086 623.505 181.651 623.391 182.266 623.391C183.24 623.391 184.003 623.635 184.555 624.125C185.107 624.609 185.393 625.279 185.414 626.133V630.023C185.414 630.799 185.513 631.417 185.711 631.875V632H184.195ZM181.797 630.898C182.25 630.898 182.68 630.781 183.086 630.547C183.492 630.312 183.786 630.008 183.969 629.633V627.898H182.836C181.065 627.898 180.18 628.417 180.18 629.453C180.18 629.906 180.331 630.26 180.633 630.516C180.935 630.771 181.323 630.898 181.797 630.898ZM194.82 627.867C194.82 629.154 194.526 630.19 193.938 630.977C193.349 631.763 192.552 632.156 191.547 632.156C190.521 632.156 189.714 631.831 189.125 631.18V635.25H187.68V623.547H189L189.07 624.484C189.659 623.755 190.477 623.391 191.523 623.391C192.539 623.391 193.341 623.773 193.93 624.539C194.523 625.305 194.82 626.37 194.82 627.734V627.867ZM193.375 627.703C193.375 626.75 193.172 625.997 192.766 625.445C192.359 624.893 191.802 624.617 191.094 624.617C190.219 624.617 189.562 625.005 189.125 625.781V629.82C189.557 630.591 190.219 630.977 191.109 630.977C191.802 630.977 192.352 630.703 192.758 630.156C193.169 629.604 193.375 628.786 193.375 627.703Z" fill="#2097F6"/>
<path d="M430.891 630.508C430.505 631.06 429.966 631.474 429.273 631.75C428.586 632.021 427.784 632.156 426.867 632.156C425.94 632.156 425.117 631.94 424.398 631.508C423.68 631.07 423.122 630.451 422.727 629.648C422.336 628.846 422.135 627.917 422.125 626.859V625.867C422.125 624.154 422.523 622.826 423.32 621.883C424.122 620.94 425.247 620.469 426.695 620.469C427.883 620.469 428.839 620.773 429.562 621.383C430.286 621.987 430.729 622.846 430.891 623.961H429.391C429.109 622.456 428.214 621.703 426.703 621.703C425.698 621.703 424.935 622.057 424.414 622.766C423.898 623.469 423.638 624.49 423.633 625.828V626.758C423.633 628.034 423.924 629.049 424.508 629.805C425.091 630.555 425.88 630.93 426.875 630.93C427.438 630.93 427.93 630.867 428.352 630.742C428.773 630.617 429.122 630.406 429.398 630.109V627.555H426.766V626.336H430.891V630.508ZM437.258 624.844C437.039 624.807 436.802 624.789 436.547 624.789C435.599 624.789 434.956 625.193 434.617 626V632H433.172V623.547H434.578L434.602 624.523C435.076 623.768 435.747 623.391 436.617 623.391C436.898 623.391 437.112 623.427 437.258 623.5V624.844ZM441.945 632.156C440.799 632.156 439.867 631.781 439.148 631.031C438.43 630.276 438.07 629.268 438.07 628.008V627.742C438.07 626.904 438.229 626.156 438.547 625.5C438.87 624.839 439.318 624.323 439.891 623.953C440.469 623.578 441.094 623.391 441.766 623.391C442.865 623.391 443.719 623.753 444.328 624.477C444.938 625.201 445.242 626.237 445.242 627.586V628.188H439.516C439.536 629.021 439.779 629.695 440.242 630.211C440.711 630.721 441.305 630.977 442.023 630.977C442.534 630.977 442.966 630.872 443.32 630.664C443.674 630.456 443.984 630.18 444.25 629.836L445.133 630.523C444.424 631.612 443.362 632.156 441.945 632.156ZM441.766 624.578C441.182 624.578 440.693 624.792 440.297 625.219C439.901 625.641 439.656 626.234 439.562 627H443.797V626.891C443.755 626.156 443.557 625.589 443.203 625.188C442.849 624.781 442.37 624.578 441.766 624.578ZM452.141 632C452.057 631.833 451.99 631.536 451.938 631.109C451.266 631.807 450.464 632.156 449.531 632.156C448.698 632.156 448.013 631.922 447.477 631.453C446.945 630.979 446.68 630.38 446.68 629.656C446.68 628.776 447.013 628.094 447.68 627.609C448.352 627.12 449.294 626.875 450.508 626.875H451.914V626.211C451.914 625.706 451.763 625.305 451.461 625.008C451.159 624.706 450.714 624.555 450.125 624.555C449.609 624.555 449.177 624.685 448.828 624.945C448.479 625.206 448.305 625.521 448.305 625.891H446.852C446.852 625.469 447 625.062 447.297 624.672C447.599 624.276 448.005 623.964 448.516 623.734C449.031 623.505 449.596 623.391 450.211 623.391C451.185 623.391 451.948 623.635 452.5 624.125C453.052 624.609 453.339 625.279 453.359 626.133V630.023C453.359 630.799 453.458 631.417 453.656 631.875V632H452.141ZM449.742 630.898C450.195 630.898 450.625 630.781 451.031 630.547C451.438 630.312 451.732 630.008 451.914 629.633V627.898H450.781C449.01 627.898 448.125 628.417 448.125 629.453C448.125 629.906 448.276 630.26 448.578 630.516C448.88 630.771 449.268 630.898 449.742 630.898ZM457.586 621.5V623.547H459.164V624.664H457.586V629.906C457.586 630.245 457.656 630.5 457.797 630.672C457.938 630.839 458.177 630.922 458.516 630.922C458.682 630.922 458.911 630.891 459.203 630.828V632C458.823 632.104 458.453 632.156 458.094 632.156C457.448 632.156 456.961 631.961 456.633 631.57C456.305 631.18 456.141 630.625 456.141 629.906V624.664H454.602V623.547H456.141V621.5H457.586ZM467.516 626.742H462.586V630.773H468.312V632H461.086V620.625H468.234V621.859H462.586V625.516H467.516V626.742ZM472.789 626.633L474.664 623.547H476.352L473.586 627.727L476.438 632H474.766L472.812 628.836L470.859 632H469.18L472.031 627.727L469.266 623.547H470.938L472.789 626.633ZM481.125 630.977C481.641 630.977 482.091 630.82 482.477 630.508C482.862 630.195 483.076 629.805 483.117 629.336H484.484C484.458 629.82 484.292 630.281 483.984 630.719C483.677 631.156 483.266 631.505 482.75 631.766C482.24 632.026 481.698 632.156 481.125 632.156C479.974 632.156 479.057 631.773 478.375 631.008C477.698 630.237 477.359 629.185 477.359 627.852V627.609C477.359 626.786 477.51 626.055 477.812 625.414C478.115 624.773 478.547 624.276 479.109 623.922C479.677 623.568 480.346 623.391 481.117 623.391C482.065 623.391 482.852 623.674 483.477 624.242C484.107 624.81 484.443 625.547 484.484 626.453H483.117C483.076 625.906 482.867 625.458 482.492 625.109C482.122 624.755 481.664 624.578 481.117 624.578C480.383 624.578 479.812 624.844 479.406 625.375C479.005 625.901 478.805 626.664 478.805 627.664V627.938C478.805 628.911 479.005 629.661 479.406 630.188C479.807 630.714 480.38 630.977 481.125 630.977ZM487.555 624.57C488.195 623.784 489.029 623.391 490.055 623.391C491.841 623.391 492.742 624.398 492.758 626.414V632H491.312V626.406C491.307 625.797 491.167 625.346 490.891 625.055C490.62 624.763 490.195 624.617 489.617 624.617C489.148 624.617 488.737 624.742 488.383 624.992C488.029 625.242 487.753 625.57 487.555 625.977V632H486.109V620H487.555V624.57ZM500.141 632C500.057 631.833 499.99 631.536 499.938 631.109C499.266 631.807 498.464 632.156 497.531 632.156C496.698 632.156 496.013 631.922 495.477 631.453C494.945 630.979 494.68 630.38 494.68 629.656C494.68 628.776 495.013 628.094 495.68 627.609C496.352 627.12 497.294 626.875 498.508 626.875H499.914V626.211C499.914 625.706 499.763 625.305 499.461 625.008C499.159 624.706 498.714 624.555 498.125 624.555C497.609 624.555 497.177 624.685 496.828 624.945C496.479 625.206 496.305 625.521 496.305 625.891H494.852C494.852 625.469 495 625.062 495.297 624.672C495.599 624.276 496.005 623.964 496.516 623.734C497.031 623.505 497.596 623.391 498.211 623.391C499.185 623.391 499.948 623.635 500.5 624.125C501.052 624.609 501.339 625.279 501.359 626.133V630.023C501.359 630.799 501.458 631.417 501.656 631.875V632H500.141ZM497.742 630.898C498.195 630.898 498.625 630.781 499.031 630.547C499.438 630.312 499.732 630.008 499.914 629.633V627.898H498.781C497.01 627.898 496.125 628.417 496.125 629.453C496.125 629.906 496.276 630.26 496.578 630.516C496.88 630.771 497.268 630.898 497.742 630.898ZM504.992 623.547L505.039 624.609C505.685 623.797 506.529 623.391 507.57 623.391C509.357 623.391 510.258 624.398 510.273 626.414V632H508.828V626.406C508.823 625.797 508.682 625.346 508.406 625.055C508.135 624.763 507.711 624.617 507.133 624.617C506.664 624.617 506.253 624.742 505.898 624.992C505.544 625.242 505.268 625.57 505.07 625.977V632H503.625V623.547H504.992ZM512.109 627.703C512.109 626.385 512.414 625.339 513.023 624.562C513.633 623.781 514.44 623.391 515.445 623.391C516.477 623.391 517.281 623.755 517.859 624.484L517.93 623.547H519.25V631.797C519.25 632.891 518.924 633.753 518.273 634.383C517.628 635.013 516.758 635.328 515.664 635.328C515.055 635.328 514.458 635.198 513.875 634.938C513.292 634.677 512.846 634.32 512.539 633.867L513.289 633C513.909 633.766 514.667 634.148 515.562 634.148C516.266 634.148 516.812 633.951 517.203 633.555C517.599 633.159 517.797 632.602 517.797 631.883V631.156C517.219 631.823 516.43 632.156 515.43 632.156C514.44 632.156 513.638 631.758 513.023 630.961C512.414 630.164 512.109 629.078 512.109 627.703ZM513.562 627.867C513.562 628.82 513.758 629.57 514.148 630.117C514.539 630.659 515.086 630.93 515.789 630.93C516.701 630.93 517.37 630.516 517.797 629.688V625.828C517.354 625.021 516.69 624.617 515.805 624.617C515.102 624.617 514.552 624.891 514.156 625.438C513.76 625.984 513.562 626.794 513.562 627.867ZM524.945 632.156C523.799 632.156 522.867 631.781 522.148 631.031C521.43 630.276 521.07 629.268 521.07 628.008V627.742C521.07 626.904 521.229 626.156 521.547 625.5C521.87 624.839 522.318 624.323 522.891 623.953C523.469 623.578 524.094 623.391 524.766 623.391C525.865 623.391 526.719 623.753 527.328 624.477C527.938 625.201 528.242 626.237 528.242 627.586V628.188H522.516C522.536 629.021 522.779 629.695 523.242 630.211C523.711 630.721 524.305 630.977 525.023 630.977C525.534 630.977 525.966 630.872 526.32 630.664C526.674 630.456 526.984 630.18 527.25 629.836L528.133 630.523C527.424 631.612 526.362 632.156 524.945 632.156ZM524.766 624.578C524.182 624.578 523.693 624.792 523.297 625.219C522.901 625.641 522.656 626.234 522.562 627H526.797V626.891C526.755 626.156 526.557 625.589 526.203 625.188C525.849 624.781 525.37 624.578 524.766 624.578Z" fill="#2097F6"/>
<path d="M429.242 465.008L432.492 455.625H434.133L429.914 467H428.586L424.375 455.625H426.008L429.242 465.008ZM440.297 467C440.214 466.833 440.146 466.536 440.094 466.109C439.422 466.807 438.62 467.156 437.688 467.156C436.854 467.156 436.169 466.922 435.633 466.453C435.102 465.979 434.836 465.38 434.836 464.656C434.836 463.776 435.169 463.094 435.836 462.609C436.508 462.12 437.451 461.875 438.664 461.875H440.07V461.211C440.07 460.706 439.919 460.305 439.617 460.008C439.315 459.706 438.87 459.555 438.281 459.555C437.766 459.555 437.333 459.685 436.984 459.945C436.635 460.206 436.461 460.521 436.461 460.891H435.008C435.008 460.469 435.156 460.062 435.453 459.672C435.755 459.276 436.161 458.964 436.672 458.734C437.188 458.505 437.753 458.391 438.367 458.391C439.341 458.391 440.104 458.635 440.656 459.125C441.208 459.609 441.495 460.279 441.516 461.133V465.023C441.516 465.799 441.615 466.417 441.812 466.875V467H440.297ZM437.898 465.898C438.352 465.898 438.781 465.781 439.188 465.547C439.594 465.312 439.888 465.008 440.07 464.633V462.898H438.938C437.167 462.898 436.281 463.417 436.281 464.453C436.281 464.906 436.432 465.26 436.734 465.516C437.036 465.771 437.424 465.898 437.898 465.898ZM445.352 467H443.906V455H445.352V467ZM452.891 466.164C452.328 466.826 451.503 467.156 450.414 467.156C449.513 467.156 448.826 466.896 448.352 466.375C447.883 465.849 447.646 465.073 447.641 464.047V458.547H449.086V464.008C449.086 465.289 449.607 465.93 450.648 465.93C451.753 465.93 452.487 465.518 452.852 464.695V458.547H454.297V467H452.922L452.891 466.164ZM460.008 467.156C458.862 467.156 457.93 466.781 457.211 466.031C456.492 465.276 456.133 464.268 456.133 463.008V462.742C456.133 461.904 456.292 461.156 456.609 460.5C456.932 459.839 457.38 459.323 457.953 458.953C458.531 458.578 459.156 458.391 459.828 458.391C460.927 458.391 461.781 458.753 462.391 459.477C463 460.201 463.305 461.237 463.305 462.586V463.188H457.578C457.599 464.021 457.841 464.695 458.305 465.211C458.773 465.721 459.367 465.977 460.086 465.977C460.596 465.977 461.029 465.872 461.383 465.664C461.737 465.456 462.047 465.18 462.312 464.836L463.195 465.523C462.487 466.612 461.424 467.156 460.008 467.156ZM459.828 459.578C459.245 459.578 458.755 459.792 458.359 460.219C457.964 460.641 457.719 461.234 457.625 462H461.859V461.891C461.818 461.156 461.62 460.589 461.266 460.188C460.911 459.781 460.432 459.578 459.828 459.578ZM470.523 467H469.078V458.547H470.523V467ZM468.961 456.305C468.961 456.07 469.031 455.872 469.172 455.711C469.318 455.549 469.531 455.469 469.812 455.469C470.094 455.469 470.307 455.549 470.453 455.711C470.599 455.872 470.672 456.07 470.672 456.305C470.672 456.539 470.599 456.734 470.453 456.891C470.307 457.047 470.094 457.125 469.812 457.125C469.531 457.125 469.318 457.047 469.172 456.891C469.031 456.734 468.961 456.539 468.961 456.305ZM477.766 464.758C477.766 464.367 477.617 464.065 477.32 463.852C477.029 463.633 476.516 463.445 475.781 463.289C475.052 463.133 474.471 462.945 474.039 462.727C473.612 462.508 473.294 462.247 473.086 461.945C472.883 461.643 472.781 461.284 472.781 460.867C472.781 460.174 473.073 459.589 473.656 459.109C474.245 458.63 474.995 458.391 475.906 458.391C476.865 458.391 477.641 458.638 478.234 459.133C478.833 459.628 479.133 460.26 479.133 461.031H477.68C477.68 460.635 477.51 460.294 477.172 460.008C476.839 459.721 476.417 459.578 475.906 459.578C475.38 459.578 474.969 459.693 474.672 459.922C474.375 460.151 474.227 460.451 474.227 460.82C474.227 461.169 474.365 461.432 474.641 461.609C474.917 461.786 475.414 461.956 476.133 462.117C476.857 462.279 477.443 462.471 477.891 462.695C478.339 462.919 478.669 463.19 478.883 463.508C479.102 463.82 479.211 464.203 479.211 464.656C479.211 465.411 478.909 466.018 478.305 466.477C477.701 466.93 476.917 467.156 475.953 467.156C475.276 467.156 474.677 467.036 474.156 466.797C473.635 466.557 473.227 466.224 472.93 465.797C472.638 465.365 472.492 464.898 472.492 464.398H473.938C473.964 464.883 474.156 465.268 474.516 465.555C474.88 465.836 475.359 465.977 475.953 465.977C476.5 465.977 476.938 465.867 477.266 465.648C477.599 465.424 477.766 465.128 477.766 464.758ZM487.023 456.5V458.547H488.602V459.664H487.023V464.906C487.023 465.245 487.094 465.5 487.234 465.672C487.375 465.839 487.615 465.922 487.953 465.922C488.12 465.922 488.349 465.891 488.641 465.828V467C488.26 467.104 487.891 467.156 487.531 467.156C486.885 467.156 486.398 466.961 486.07 466.57C485.742 466.18 485.578 465.625 485.578 464.906V459.664H484.039V458.547H485.578V456.5H487.023ZM489.758 462.695C489.758 461.867 489.919 461.122 490.242 460.461C490.57 459.799 491.023 459.289 491.602 458.93C492.185 458.57 492.849 458.391 493.594 458.391C494.745 458.391 495.674 458.789 496.383 459.586C497.096 460.383 497.453 461.443 497.453 462.766V462.867C497.453 463.69 497.294 464.43 496.977 465.086C496.664 465.737 496.214 466.245 495.625 466.609C495.042 466.974 494.37 467.156 493.609 467.156C492.464 467.156 491.534 466.758 490.82 465.961C490.112 465.164 489.758 464.109 489.758 462.797V462.695ZM491.211 462.867C491.211 463.805 491.427 464.557 491.859 465.125C492.297 465.693 492.88 465.977 493.609 465.977C494.344 465.977 494.927 465.69 495.359 465.117C495.792 464.539 496.008 463.732 496.008 462.695C496.008 461.768 495.786 461.018 495.344 460.445C494.906 459.867 494.323 459.578 493.594 459.578C492.88 459.578 492.305 459.862 491.867 460.43C491.43 460.997 491.211 461.81 491.211 462.867ZM498.883 462.695C498.883 461.867 499.044 461.122 499.367 460.461C499.695 459.799 500.148 459.289 500.727 458.93C501.31 458.57 501.974 458.391 502.719 458.391C503.87 458.391 504.799 458.789 505.508 459.586C506.221 460.383 506.578 461.443 506.578 462.766V462.867C506.578 463.69 506.419 464.43 506.102 465.086C505.789 465.737 505.339 466.245 504.75 466.609C504.167 466.974 503.495 467.156 502.734 467.156C501.589 467.156 500.659 466.758 499.945 465.961C499.237 465.164 498.883 464.109 498.883 462.797V462.695ZM500.336 462.867C500.336 463.805 500.552 464.557 500.984 465.125C501.422 465.693 502.005 465.977 502.734 465.977C503.469 465.977 504.052 465.69 504.484 465.117C504.917 464.539 505.133 463.732 505.133 462.695C505.133 461.768 504.911 461.018 504.469 460.445C504.031 459.867 503.448 459.578 502.719 459.578C502.005 459.578 501.43 459.862 500.992 460.43C500.555 460.997 500.336 461.81 500.336 462.867ZM513.07 467V459.664H511.734V458.547H513.07V457.68C513.07 456.773 513.312 456.073 513.797 455.578C514.281 455.083 514.966 454.836 515.852 454.836C516.185 454.836 516.516 454.88 516.844 454.969L516.766 456.141C516.521 456.094 516.26 456.07 515.984 456.07C515.516 456.07 515.154 456.208 514.898 456.484C514.643 456.755 514.516 457.146 514.516 457.656V458.547H516.32V459.664H514.516V467H513.07ZM523.141 467C523.057 466.833 522.99 466.536 522.938 466.109C522.266 466.807 521.464 467.156 520.531 467.156C519.698 467.156 519.013 466.922 518.477 466.453C517.945 465.979 517.68 465.38 517.68 464.656C517.68 463.776 518.013 463.094 518.68 462.609C519.352 462.12 520.294 461.875 521.508 461.875H522.914V461.211C522.914 460.706 522.763 460.305 522.461 460.008C522.159 459.706 521.714 459.555 521.125 459.555C520.609 459.555 520.177 459.685 519.828 459.945C519.479 460.206 519.305 460.521 519.305 460.891H517.852C517.852 460.469 518 460.062 518.297 459.672C518.599 459.276 519.005 458.964 519.516 458.734C520.031 458.505 520.596 458.391 521.211 458.391C522.185 458.391 522.948 458.635 523.5 459.125C524.052 459.609 524.339 460.279 524.359 461.133V465.023C524.359 465.799 524.458 466.417 524.656 466.875V467H523.141ZM520.742 465.898C521.195 465.898 521.625 465.781 522.031 465.547C522.438 465.312 522.732 465.008 522.914 464.633V462.898H521.781C520.01 462.898 519.125 463.417 519.125 464.453C519.125 464.906 519.276 465.26 519.578 465.516C519.88 465.771 520.268 465.898 520.742 465.898ZM530.711 459.844C530.492 459.807 530.255 459.789 530 459.789C529.052 459.789 528.409 460.193 528.07 461V467H526.625V458.547H528.031L528.055 459.523C528.529 458.768 529.201 458.391 530.07 458.391C530.352 458.391 530.565 458.427 530.711 458.5V459.844ZM536.727 467V459.664H535.391V458.547H536.727V457.68C536.727 456.773 536.969 456.073 537.453 455.578C537.938 455.083 538.622 454.836 539.508 454.836C539.841 454.836 540.172 454.88 540.5 454.969L540.422 456.141C540.177 456.094 539.917 456.07 539.641 456.07C539.172 456.07 538.81 456.208 538.555 456.484C538.299 456.755 538.172 457.146 538.172 457.656V458.547H539.977V459.664H538.172V467H536.727ZM545.664 459.844C545.445 459.807 545.208 459.789 544.953 459.789C544.005 459.789 543.362 460.193 543.023 461V467H541.578V458.547H542.984L543.008 459.523C543.482 458.768 544.154 458.391 545.023 458.391C545.305 458.391 545.518 458.427 545.664 458.5V459.844ZM546.461 462.695C546.461 461.867 546.622 461.122 546.945 460.461C547.273 459.799 547.727 459.289 548.305 458.93C548.888 458.57 549.552 458.391 550.297 458.391C551.448 458.391 552.378 458.789 553.086 459.586C553.799 460.383 554.156 461.443 554.156 462.766V462.867C554.156 463.69 553.997 464.43 553.68 465.086C553.367 465.737 552.917 466.245 552.328 466.609C551.745 466.974 551.073 467.156 550.312 467.156C549.167 467.156 548.237 466.758 547.523 465.961C546.815 465.164 546.461 464.109 546.461 462.797V462.695ZM547.914 462.867C547.914 463.805 548.13 464.557 548.562 465.125C549 465.693 549.583 465.977 550.312 465.977C551.047 465.977 551.63 465.69 552.062 465.117C552.495 464.539 552.711 463.732 552.711 462.695C552.711 461.768 552.49 461.018 552.047 460.445C551.609 459.867 551.026 459.578 550.297 459.578C549.583 459.578 549.008 459.862 548.57 460.43C548.133 460.997 547.914 461.81 547.914 462.867ZM557.328 458.547L557.367 459.484C557.987 458.755 558.823 458.391 559.875 458.391C561.057 458.391 561.862 458.844 562.289 459.75C562.57 459.344 562.935 459.016 563.383 458.766C563.836 458.516 564.37 458.391 564.984 458.391C566.839 458.391 567.781 459.372 567.812 461.336V467H566.367V461.422C566.367 460.818 566.229 460.367 565.953 460.07C565.677 459.768 565.214 459.617 564.562 459.617C564.026 459.617 563.581 459.779 563.227 460.102C562.872 460.419 562.667 460.849 562.609 461.391V467H561.156V461.461C561.156 460.232 560.555 459.617 559.352 459.617C558.404 459.617 557.755 460.021 557.406 460.828V467H555.961V458.547H557.328ZM575.328 458.547L575.367 459.484C575.987 458.755 576.823 458.391 577.875 458.391C579.057 458.391 579.862 458.844 580.289 459.75C580.57 459.344 580.935 459.016 581.383 458.766C581.836 458.516 582.37 458.391 582.984 458.391C584.839 458.391 585.781 459.372 585.812 461.336V467H584.367V461.422C584.367 460.818 584.229 460.367 583.953 460.07C583.677 459.768 583.214 459.617 582.562 459.617C582.026 459.617 581.581 459.779 581.227 460.102C580.872 460.419 580.667 460.849 580.609 461.391V467H579.156V461.461C579.156 460.232 578.555 459.617 577.352 459.617C576.404 459.617 575.755 460.021 575.406 460.828V467H573.961V458.547H575.328ZM591.508 467.156C590.362 467.156 589.43 466.781 588.711 466.031C587.992 465.276 587.633 464.268 587.633 463.008V462.742C587.633 461.904 587.792 461.156 588.109 460.5C588.432 459.839 588.88 459.323 589.453 458.953C590.031 458.578 590.656 458.391 591.328 458.391C592.427 458.391 593.281 458.753 593.891 459.477C594.5 460.201 594.805 461.237 594.805 462.586V463.188H589.078C589.099 464.021 589.341 464.695 589.805 465.211C590.273 465.721 590.867 465.977 591.586 465.977C592.096 465.977 592.529 465.872 592.883 465.664C593.237 465.456 593.547 465.18 593.812 464.836L594.695 465.523C593.987 466.612 592.924 467.156 591.508 467.156ZM591.328 459.578C590.745 459.578 590.255 459.792 589.859 460.219C589.464 460.641 589.219 461.234 589.125 462H593.359V461.891C593.318 461.156 593.12 460.589 592.766 460.188C592.411 459.781 591.932 459.578 591.328 459.578ZM596.133 462.703C596.133 461.406 596.44 460.365 597.055 459.578C597.669 458.786 598.474 458.391 599.469 458.391C600.458 458.391 601.242 458.729 601.82 459.406V455H603.266V467H601.938L601.867 466.094C601.289 466.802 600.484 467.156 599.453 467.156C598.474 467.156 597.674 466.755 597.055 465.953C596.44 465.151 596.133 464.104 596.133 462.812V462.703ZM597.578 462.867C597.578 463.826 597.776 464.576 598.172 465.117C598.568 465.659 599.115 465.93 599.812 465.93C600.729 465.93 601.398 465.518 601.82 464.695V460.812C601.388 460.016 600.724 459.617 599.828 459.617C599.12 459.617 598.568 459.891 598.172 460.438C597.776 460.984 597.578 461.794 597.578 462.867ZM607.086 467H605.641V458.547H607.086V467ZM605.523 456.305C605.523 456.07 605.594 455.872 605.734 455.711C605.88 455.549 606.094 455.469 606.375 455.469C606.656 455.469 606.87 455.549 607.016 455.711C607.161 455.872 607.234 456.07 607.234 456.305C607.234 456.539 607.161 456.734 607.016 456.891C606.87 457.047 606.656 457.125 606.375 457.125C606.094 457.125 605.88 457.047 605.734 456.891C605.594 456.734 605.523 456.539 605.523 456.305ZM614.625 467C614.542 466.833 614.474 466.536 614.422 466.109C613.75 466.807 612.948 467.156 612.016 467.156C611.182 467.156 610.497 466.922 609.961 466.453C609.43 465.979 609.164 465.38 609.164 464.656C609.164 463.776 609.497 463.094 610.164 462.609C610.836 462.12 611.779 461.875 612.992 461.875H614.398V461.211C614.398 460.706 614.247 460.305 613.945 460.008C613.643 459.706 613.198 459.555 612.609 459.555C612.094 459.555 611.661 459.685 611.312 459.945C610.964 460.206 610.789 460.521 610.789 460.891H609.336C609.336 460.469 609.484 460.062 609.781 459.672C610.083 459.276 610.49 458.964 611 458.734C611.516 458.505 612.081 458.391 612.695 458.391C613.669 458.391 614.432 458.635 614.984 459.125C615.536 459.609 615.823 460.279 615.844 461.133V465.023C615.844 465.799 615.943 466.417 616.141 466.875V467H614.625ZM612.227 465.898C612.68 465.898 613.109 465.781 613.516 465.547C613.922 465.312 614.216 465.008 614.398 464.633V462.898H613.266C611.495 462.898 610.609 463.417 610.609 464.453C610.609 464.906 610.76 465.26 611.062 465.516C611.365 465.771 611.753 465.898 612.227 465.898ZM619.477 458.547L619.523 459.609C620.169 458.797 621.013 458.391 622.055 458.391C623.841 458.391 624.742 459.398 624.758 461.414V467H623.312V461.406C623.307 460.797 623.167 460.346 622.891 460.055C622.62 459.763 622.195 459.617 621.617 459.617C621.148 459.617 620.737 459.742 620.383 459.992C620.029 460.242 619.753 460.57 619.555 460.977V467H618.109V458.547H619.477Z" fill="#DE1306"/>
<g filter="url(#filter5_d)">
<circle cx="472" cy="563" r="40" fill="#E7F4FF"/>
<circle cx="472" cy="563" r="39.5" stroke="#2097F6"/>
</g>
<path d="M457.125 565.07C457.125 564.591 456.956 564.188 456.617 563.859C456.284 563.531 455.719 563.234 454.922 562.969C453.812 562.63 453.003 562.19 452.492 561.648C451.987 561.102 451.734 560.409 451.734 559.57C451.734 558.716 451.982 558.016 452.477 557.469C452.977 556.922 453.661 556.596 454.531 556.492V554.781H455.695V556.5C456.57 556.62 457.25 556.987 457.734 557.602C458.224 558.216 458.469 559.057 458.469 560.125H457.031C457.031 559.391 456.857 558.807 456.508 558.375C456.159 557.943 455.688 557.727 455.094 557.727C454.474 557.727 454 557.888 453.672 558.211C453.344 558.529 453.18 558.974 453.18 559.547C453.18 560.078 453.352 560.503 453.695 560.82C454.044 561.133 454.615 561.419 455.406 561.68C456.203 561.935 456.823 562.219 457.266 562.531C457.714 562.839 458.042 563.198 458.25 563.609C458.464 564.021 458.57 564.503 458.57 565.055C458.57 565.935 458.305 566.643 457.773 567.18C457.247 567.716 456.508 568.034 455.555 568.133V569.625H454.398V568.133C453.43 568.044 452.669 567.701 452.117 567.102C451.57 566.497 451.297 565.68 451.297 564.648H452.742C452.742 565.372 452.932 565.93 453.312 566.32C453.693 566.711 454.232 566.906 454.93 566.906C455.612 566.906 456.148 566.742 456.539 566.414C456.93 566.086 457.125 565.638 457.125 565.07ZM471.68 557.438L466.969 568H465.453L470.148 557.812H463.992V556.625H471.68V557.438ZM473.5 567.242C473.5 566.992 473.573 566.784 473.719 566.617C473.87 566.451 474.094 566.367 474.391 566.367C474.688 566.367 474.911 566.451 475.062 566.617C475.219 566.784 475.297 566.992 475.297 567.242C475.297 567.482 475.219 567.682 475.062 567.844C474.911 568.005 474.688 568.086 474.391 568.086C474.094 568.086 473.87 568.005 473.719 567.844C473.573 567.682 473.5 567.482 473.5 567.242ZM483.641 564.18H485.219V565.359H483.641V568H482.188V565.359H477.008V564.508L482.102 556.625H483.641V564.18ZM478.648 564.18H482.188V558.602L482.016 558.914L478.648 564.18ZM493.977 568H486.523V566.961L490.461 562.586C491.044 561.924 491.445 561.388 491.664 560.977C491.888 560.56 492 560.13 492 559.688C492 559.094 491.82 558.607 491.461 558.227C491.102 557.846 490.622 557.656 490.023 557.656C489.305 557.656 488.745 557.862 488.344 558.273C487.948 558.68 487.75 559.247 487.75 559.977H486.305C486.305 558.93 486.641 558.083 487.312 557.438C487.99 556.792 488.893 556.469 490.023 556.469C491.081 556.469 491.917 556.747 492.531 557.305C493.146 557.857 493.453 558.594 493.453 559.516C493.453 560.635 492.74 561.969 491.312 563.516L488.266 566.82H493.977V568Z" fill="#2097F6"/>
<path d="M274.019 356.39C274.019 355.589 273.794 354.954 273.345 354.485C272.905 354.007 272.153 353.567 271.089 353.167C270.024 352.767 269.106 352.371 268.335 351.98C267.563 351.58 266.899 351.126 266.343 350.618C265.796 350.101 265.366 349.495 265.054 348.802C264.751 348.108 264.6 347.283 264.6 346.326C264.6 344.676 265.127 343.323 266.182 342.269C267.236 341.214 268.638 340.599 270.386 340.423V337.288H272.729V340.467C274.458 340.711 275.811 341.434 276.787 342.635C277.764 343.826 278.252 345.374 278.252 347.278H274.019C274.019 346.106 273.774 345.232 273.286 344.656C272.808 344.07 272.163 343.777 271.353 343.777C270.552 343.777 269.932 344.007 269.492 344.466C269.053 344.915 268.833 345.54 268.833 346.341C268.833 347.083 269.048 347.679 269.478 348.128C269.907 348.577 270.703 349.036 271.865 349.505C273.037 349.974 273.999 350.418 274.751 350.838C275.503 351.248 276.138 351.717 276.655 352.244C277.173 352.762 277.568 353.357 277.842 354.031C278.115 354.695 278.252 355.472 278.252 356.36C278.252 358.021 277.734 359.368 276.699 360.403C275.664 361.438 274.238 362.049 272.422 362.234V365.149H270.093V362.249C268.091 362.034 266.538 361.326 265.435 360.125C264.341 358.914 263.794 357.308 263.794 355.306H268.027C268.027 356.468 268.301 357.361 268.848 357.986C269.404 358.602 270.2 358.909 271.235 358.909C272.095 358.909 272.773 358.685 273.271 358.235C273.77 357.776 274.019 357.161 274.019 356.39ZM301.118 353.973H303.535V357.386H301.118V362H296.885V357.386H288.14L287.949 354.72L296.841 340.672H301.118V353.973ZM292.168 353.973H296.885V346.443L296.606 346.927L292.168 353.973ZM306.216 359.92C306.216 359.246 306.44 358.699 306.89 358.279C307.349 357.859 307.92 357.649 308.604 357.649C309.297 357.649 309.868 357.859 310.317 358.279C310.776 358.699 311.006 359.246 311.006 359.92C311.006 360.584 310.781 361.126 310.332 361.546C309.883 361.956 309.307 362.161 308.604 362.161C307.91 362.161 307.339 361.956 306.89 361.546C306.44 361.126 306.216 360.584 306.216 359.92ZM328.452 346.341C328.452 347.376 328.193 348.294 327.676 349.095C327.158 349.896 326.445 350.535 325.537 351.014C326.572 351.512 327.393 352.2 327.998 353.079C328.604 353.948 328.906 354.974 328.906 356.155C328.906 358.05 328.262 359.549 326.973 360.652C325.684 361.746 323.931 362.293 321.714 362.293C319.497 362.293 317.739 361.741 316.44 360.638C315.142 359.534 314.492 358.04 314.492 356.155C314.492 354.974 314.795 353.943 315.4 353.064C316.006 352.186 316.821 351.502 317.847 351.014C316.938 350.535 316.226 349.896 315.708 349.095C315.2 348.294 314.946 347.376 314.946 346.341C314.946 344.524 315.552 343.079 316.763 342.005C317.974 340.921 319.619 340.379 321.699 340.379C323.77 340.379 325.41 340.916 326.621 341.99C327.842 343.055 328.452 344.505 328.452 346.341ZM324.658 355.848C324.658 354.92 324.39 354.178 323.853 353.621C323.315 353.064 322.593 352.786 321.685 352.786C320.786 352.786 320.068 353.064 319.531 353.621C318.994 354.168 318.726 354.91 318.726 355.848C318.726 356.756 318.989 357.488 319.517 358.045C320.044 358.602 320.776 358.88 321.714 358.88C322.632 358.88 323.35 358.611 323.867 358.074C324.395 357.537 324.658 356.795 324.658 355.848ZM324.219 346.546C324.219 345.716 323.999 345.052 323.56 344.554C323.12 344.046 322.5 343.792 321.699 343.792C320.908 343.792 320.293 344.036 319.854 344.524C319.414 345.013 319.194 345.687 319.194 346.546C319.194 347.396 319.414 348.079 319.854 348.597C320.293 349.114 320.913 349.373 321.714 349.373C322.515 349.373 323.13 349.114 323.56 348.597C323.999 348.079 324.219 347.396 324.219 346.546ZM346.279 343.045L338.032 362H333.564L341.826 344.1H331.221V340.672H346.279V343.045Z" fill="#2097F6"/>
<path d="M299.75 395.053L302.2 398.534C302.293 398.673 302.418 398.787 302.564 398.868C302.71 398.949 302.873 398.993 303.04 398.998C303.207 399.003 303.373 398.968 303.524 398.896C303.674 398.825 303.806 398.718 303.907 398.585L311.75 388.658" stroke="#2097F6" stroke-width="1.5" stroke-linecap="round" stroke-linejoin="round"/>
<path d="M296 384.749C295.602 384.749 295.221 384.907 294.939 385.188C294.658 385.47 294.5 385.851 294.5 386.249V395.249C294.5 400.062 301.734 405.418 304.193 407.009C304.433 407.166 304.713 407.249 305 407.249C305.287 407.249 305.567 407.166 305.807 407.009C308.266 405.418 315.5 400.062 315.5 395.249V386.249C315.5 386.052 315.461 385.857 315.386 385.675C315.31 385.493 315.2 385.328 315.061 385.188C314.921 385.049 314.756 384.939 314.574 384.863C314.392 384.788 314.197 384.749 314 384.749H296Z" stroke="#2097F6" stroke-width="1.5" stroke-linecap="round" stroke-linejoin="round"/>
<path d="M306.5 106V261" stroke="#2097F6"/>
<path d="M530.652 269L385 322.013" stroke="#2097F6"/>
<path d="M79 269L224.652 322.013" stroke="#2097F6"/>
<path d="M166 534.969L254.904 408" stroke="#2097F6"/>
<path d="M444.904 534.969L356 408" stroke="#2097F6"/>
<line x1="392.004" y1="495.004" x2="408.763" y2="448.959" stroke="#DE1306" stroke-width="2"/>
<line x1="378.643" y1="463.005" x2="424.688" y2="479.764" stroke="#DE1306" stroke-width="2"/>
<defs>
<filter id="filter0_d" x="222" y="260" width="170" height="170" filterUnits="userSpaceOnUse" color-interpolation-filters="sRGB">
<feFlood flood-opacity="0" result="BackgroundImageFix"/>
<feColorMatrix in="SourceAlpha" type="matrix" values="0 0 0 0 0 0 0 0 0 0 0 0 0 0 0 0 0 0 127 0"/>
<feOffset dx="4" dy="4"/>
<feColorMatrix type="matrix" values="0 0 0 0 0.513733 0 0 0 0 0.767915 0 0 0 0 0.970833 0 0 0 1 0"/>
<feBlend mode="normal" in2="BackgroundImageFix" result="effect1_dropShadow"/>
<feBlend mode="normal" in="SourceGraphic" in2="effect1_dropShadow" result="shape"/>
</filter>
<filter id="filter1_d" x="266" y="26" width="84" height="84" filterUnits="userSpaceOnUse" color-interpolation-filters="sRGB">
<feFlood flood-opacity="0" result="BackgroundImageFix"/>
<feColorMatrix in="SourceAlpha" type="matrix" values="0 0 0 0 0 0 0 0 0 0 0 0 0 0 0 0 0 0 127 0"/>
<feOffset dx="4" dy="4"/>
<feColorMatrix type="matrix" values="0 0 0 0 0.513733 0 0 0 0 0.767915 0 0 0 0 0.970833 0 0 0 1 0"/>
<feBlend mode="normal" in2="BackgroundImageFix" result="effect1_dropShadow"/>
<feBlend mode="normal" in="SourceGraphic" in2="effect1_dropShadow" result="shape"/>
</filter>
<filter id="filter2_d" x="529" y="216" width="84" height="84" filterUnits="userSpaceOnUse" color-interpolation-filters="sRGB">
<feFlood flood-opacity="0" result="BackgroundImageFix"/>
<feColorMatrix in="SourceAlpha" type="matrix" values="0 0 0 0 0 0 0 0 0 0 0 0 0 0 0 0 0 0 127 0"/>
<feOffset dx="4" dy="4"/>
<feColorMatrix type="matrix" values="0 0 0 0 0.513733 0 0 0 0 0.767915 0 0 0 0 0.970833 0 0 0 1 0"/>
<feBlend mode="normal" in2="BackgroundImageFix" result="effect1_dropShadow"/>
<feBlend mode="normal" in="SourceGraphic" in2="effect1_dropShadow" result="shape"/>
</filter>
<filter id="filter3_d" x="0" y="229" width="84" height="84" filterUnits="userSpaceOnUse" color-interpolation-filters="sRGB">
<feFlood flood-opacity="0" result="BackgroundImageFix"/>
<feColorMatrix in="SourceAlpha" type="matrix" values="0 0 0 0 0 0 0 0 0 0 0 0 0 0 0 0 0 0 127 0"/>
<feOffset dx="4" dy="4"/>
<feColorMatrix type="matrix" values="0 0 0 0 0.513733 0 0 0 0 0.767915 0 0 0 0 0.970833 0 0 0 1 0"/>
<feBlend mode="normal" in2="BackgroundImageFix" result="effect1_dropShadow"/>
<feBlend mode="normal" in="SourceGraphic" in2="effect1_dropShadow" result="shape"/>
</filter>
<filter id="filter4_d" x="97" y="523" width="84" height="84" filterUnits="userSpaceOnUse" color-interpolation-filters="sRGB">
<feFlood flood-opacity="0" result="BackgroundImageFix"/>
<feColorMatrix in="SourceAlpha" type="matrix" values="0 0 0 0 0 0 0 0 0 0 0 0 0 0 0 0 0 0 127 0"/>
<feOffset dx="4" dy="4"/>
<feColorMatrix type="matrix" values="0 0 0 0 0.513733 0 0 0 0 0.767915 0 0 0 0 0.970833 0 0 0 1 0"/>
<feBlend mode="normal" in2="BackgroundImageFix" result="effect1_dropShadow"/>
<feBlend mode="normal" in="SourceGraphic" in2="effect1_dropShadow" result="shape"/>
</filter>
<filter id="filter5_d" x="432" y="523" width="84" height="84" filterUnits="userSpaceOnUse" color-interpolation-filters="sRGB">
<feFlood flood-opacity="0" result="BackgroundImageFix"/>
<feColorMatrix in="SourceAlpha" type="matrix" values="0 0 0 0 0 0 0 0 0 0 0 0 0 0 0 0 0 0 127 0"/>
<feOffset dx="4" dy="4"/>
<feColorMatrix type="matrix" values="0 0 0 0 0.513733 0 0 0 0 0.767915 0 0 0 0 0.970833 0 0 0 1 0"/>
<feBlend mode="normal" in2="BackgroundImageFix" result="effect1_dropShadow"/>
<feBlend mode="normal" in="SourceGraphic" in2="effect1_dropShadow" result="shape"/>
</filter>
</defs>
</svg>
