<svg width="999" height="407" viewBox="0 0 999 407" fill="none" xmlns="http://www.w3.org/2000/svg">
<g filter="url(#filter0_d)">
<rect x="483" y="29" width="200" height="374" rx="8" fill="white"/>
<rect x="483.5" y="29.5" width="199" height="373" rx="7.5" stroke="#5452F6"/>
</g>
<g filter="url(#filter1_d)">
<rect x="503" y="49" width="160" height="63" rx="8" fill="white"/>
<path d="M549.938 82.3906C549.797 83.5938 549.352 84.5234 548.602 85.1797C547.857 85.8307 546.865 86.1562 545.625 86.1562C544.281 86.1562 543.203 85.6745 542.391 84.7109C541.583 83.7474 541.18 82.4583 541.18 80.8438V79.75C541.18 78.6927 541.367 77.763 541.742 76.9609C542.122 76.1589 542.659 75.5443 543.352 75.1172C544.044 74.6849 544.846 74.4688 545.758 74.4688C546.966 74.4688 547.935 74.8073 548.664 75.4844C549.393 76.1562 549.818 77.0885 549.938 78.2812H548.43C548.299 77.375 548.016 76.7188 547.578 76.3125C547.146 75.9062 546.539 75.7031 545.758 75.7031C544.799 75.7031 544.047 76.0573 543.5 76.7656C542.958 77.474 542.688 78.4818 542.688 79.7891V80.8906C542.688 82.125 542.945 83.1068 543.461 83.8359C543.977 84.5651 544.698 84.9297 545.625 84.9297C546.458 84.9297 547.096 84.7422 547.539 84.3672C547.987 83.987 548.284 83.3281 548.43 82.3906H549.938ZM551.383 81.6953C551.383 80.8672 551.544 80.1224 551.867 79.4609C552.195 78.7995 552.648 78.2891 553.227 77.9297C553.81 77.5703 554.474 77.3906 555.219 77.3906C556.37 77.3906 557.299 77.7891 558.008 78.5859C558.721 79.3828 559.078 80.4427 559.078 81.7656V81.8672C559.078 82.6901 558.919 83.4297 558.602 84.0859C558.289 84.737 557.839 85.2448 557.25 85.6094C556.667 85.974 555.995 86.1562 555.234 86.1562C554.089 86.1562 553.159 85.7578 552.445 84.9609C551.737 84.1641 551.383 83.1094 551.383 81.7969V81.6953ZM552.836 81.8672C552.836 82.8047 553.052 83.5573 553.484 84.125C553.922 84.6927 554.505 84.9766 555.234 84.9766C555.969 84.9766 556.552 84.6901 556.984 84.1172C557.417 83.5391 557.633 82.7318 557.633 81.6953C557.633 80.7682 557.411 80.0182 556.969 79.4453C556.531 78.8672 555.948 78.5781 555.219 78.5781C554.505 78.5781 553.93 78.862 553.492 79.4297C553.055 79.9974 552.836 80.8099 552.836 81.8672ZM560.539 81.7031C560.539 80.375 560.844 79.3255 561.453 78.5547C562.062 77.7786 562.88 77.3906 563.906 77.3906C564.906 77.3906 565.695 77.7266 566.273 78.3984L566.336 77.5469H567.664V89.25H566.219V85.2188C565.635 85.8438 564.859 86.1562 563.891 86.1562C562.87 86.1562 562.055 85.7604 561.445 84.9688C560.841 84.1719 560.539 83.1172 560.539 81.8047V81.7031ZM561.984 81.8672C561.984 82.8359 562.188 83.5964 562.594 84.1484C563.005 84.7005 563.557 84.9766 564.25 84.9766C565.109 84.9766 565.766 84.5964 566.219 83.8359V79.6953C565.76 78.9505 565.109 78.5781 564.266 78.5781C563.568 78.5781 563.013 78.8568 562.602 79.4141C562.19 79.9661 561.984 80.7839 561.984 81.8672ZM582.188 74.625V82.3594C582.182 83.4323 581.844 84.3099 581.172 84.9922C580.505 85.6745 579.599 86.0573 578.453 86.1406L578.055 86.1562C576.81 86.1562 575.818 85.8203 575.078 85.1484C574.339 84.4766 573.964 83.5521 573.953 82.375V74.625H575.438V82.3281C575.438 83.151 575.664 83.7917 576.117 84.25C576.57 84.7031 577.216 84.9297 578.055 84.9297C578.904 84.9297 579.552 84.7031 580 84.25C580.453 83.7969 580.68 83.1589 580.68 82.3359V74.625H582.188ZM585.695 77.5469L585.742 78.6094C586.388 77.7969 587.232 77.3906 588.273 77.3906C590.06 77.3906 590.961 78.3984 590.977 80.4141V86H589.531V80.4062C589.526 79.7969 589.385 79.3464 589.109 79.0547C588.839 78.763 588.414 78.6172 587.836 78.6172C587.367 78.6172 586.956 78.7422 586.602 78.9922C586.247 79.2422 585.971 79.5703 585.773 79.9766V86H584.328V77.5469H585.695ZM594.727 86H593.281V77.5469H594.727V86ZM593.164 75.3047C593.164 75.0703 593.234 74.8724 593.375 74.7109C593.521 74.5495 593.734 74.4688 594.016 74.4688C594.297 74.4688 594.51 74.5495 594.656 74.7109C594.802 74.8724 594.875 75.0703 594.875 75.3047C594.875 75.5391 594.802 75.7344 594.656 75.8906C594.51 76.0469 594.297 76.125 594.016 76.125C593.734 76.125 593.521 76.0469 593.375 75.8906C593.234 75.7344 593.164 75.5391 593.164 75.3047ZM599.836 84.0391L601.93 77.5469H603.406L600.375 86H599.273L596.211 77.5469H597.688L599.836 84.0391ZM608.195 86.1562C607.049 86.1562 606.117 85.7812 605.398 85.0312C604.68 84.276 604.32 83.2682 604.32 82.0078V81.7422C604.32 80.9036 604.479 80.1562 604.797 79.5C605.12 78.8385 605.568 78.3229 606.141 77.9531C606.719 77.5781 607.344 77.3906 608.016 77.3906C609.115 77.3906 609.969 77.7526 610.578 78.4766C611.188 79.2005 611.492 80.237 611.492 81.5859V82.1875H605.766C605.786 83.0208 606.029 83.6953 606.492 84.2109C606.961 84.7214 607.555 84.9766 608.273 84.9766C608.784 84.9766 609.216 84.8724 609.57 84.6641C609.924 84.4557 610.234 84.1797 610.5 83.8359L611.383 84.5234C610.674 85.612 609.612 86.1562 608.195 86.1562ZM608.016 78.5781C607.432 78.5781 606.943 78.7917 606.547 79.2188C606.151 79.6406 605.906 80.2344 605.812 81H610.047V80.8906C610.005 80.1562 609.807 79.5885 609.453 79.1875C609.099 78.7812 608.62 78.5781 608.016 78.5781ZM617.258 78.8438C617.039 78.8073 616.802 78.7891 616.547 78.7891C615.599 78.7891 614.956 79.1927 614.617 80V86H613.172V77.5469H614.578L614.602 78.5234C615.076 77.7682 615.747 77.3906 616.617 77.3906C616.898 77.3906 617.112 77.4271 617.258 77.5V78.8438ZM623.516 83.7578C623.516 83.3672 623.367 83.0651 623.07 82.8516C622.779 82.6328 622.266 82.4453 621.531 82.2891C620.802 82.1328 620.221 81.9453 619.789 81.7266C619.362 81.5078 619.044 81.2474 618.836 80.9453C618.633 80.6432 618.531 80.2839 618.531 79.8672C618.531 79.1745 618.823 78.5885 619.406 78.1094C619.995 77.6302 620.745 77.3906 621.656 77.3906C622.615 77.3906 623.391 77.638 623.984 78.1328C624.583 78.6276 624.883 79.2604 624.883 80.0312H623.43C623.43 79.6354 623.26 79.2943 622.922 79.0078C622.589 78.7214 622.167 78.5781 621.656 78.5781C621.13 78.5781 620.719 78.6927 620.422 78.9219C620.125 79.151 619.977 79.4505 619.977 79.8203C619.977 80.1693 620.115 80.4323 620.391 80.6094C620.667 80.7865 621.164 80.9557 621.883 81.1172C622.607 81.2786 623.193 81.4714 623.641 81.6953C624.089 81.9193 624.419 82.1901 624.633 82.5078C624.852 82.8203 624.961 83.2031 624.961 83.6562C624.961 84.4115 624.659 85.0182 624.055 85.4766C623.451 85.9297 622.667 86.1562 621.703 86.1562C621.026 86.1562 620.427 86.0365 619.906 85.7969C619.385 85.5573 618.977 85.224 618.68 84.7969C618.388 84.3646 618.242 83.8984 618.242 83.3984H619.688C619.714 83.8828 619.906 84.2682 620.266 84.5547C620.63 84.8359 621.109 84.9766 621.703 84.9766C622.25 84.9766 622.688 84.8672 623.016 84.6484C623.349 84.4245 623.516 84.1276 623.516 83.7578Z" fill="#5452F6"/>
<rect x="503.5" y="49.5" width="159" height="62" rx="7.5" stroke="#5452F6"/>
</g>
<g filter="url(#filter2_d)">
<rect x="503" y="136" width="160" height="63" rx="8" fill="white"/>
<path d="M546.453 161.625L550.172 170.906L553.891 161.625H555.836V173H554.336V168.57L554.477 163.789L550.742 173H549.594L545.867 163.812L546.016 168.57V173H544.516V161.625H546.453ZM559.828 173H558.383V164.547H559.828V173ZM558.266 162.305C558.266 162.07 558.336 161.872 558.477 161.711C558.622 161.549 558.836 161.469 559.117 161.469C559.398 161.469 559.612 161.549 559.758 161.711C559.904 161.872 559.977 162.07 559.977 162.305C559.977 162.539 559.904 162.734 559.758 162.891C559.612 163.047 559.398 163.125 559.117 163.125C558.836 163.125 558.622 163.047 558.477 162.891C558.336 162.734 558.266 162.539 558.266 162.305ZM565.156 168.758H561.344V167.578H565.156V168.758ZM569.961 171.977C570.477 171.977 570.927 171.82 571.312 171.508C571.698 171.195 571.911 170.805 571.953 170.336H573.32C573.294 170.82 573.128 171.281 572.82 171.719C572.513 172.156 572.102 172.505 571.586 172.766C571.076 173.026 570.534 173.156 569.961 173.156C568.81 173.156 567.893 172.773 567.211 172.008C566.534 171.237 566.195 170.185 566.195 168.852V168.609C566.195 167.786 566.346 167.055 566.648 166.414C566.951 165.773 567.383 165.276 567.945 164.922C568.513 164.568 569.182 164.391 569.953 164.391C570.901 164.391 571.688 164.674 572.312 165.242C572.943 165.81 573.279 166.547 573.32 167.453H571.953C571.911 166.906 571.703 166.458 571.328 166.109C570.958 165.755 570.5 165.578 569.953 165.578C569.219 165.578 568.648 165.844 568.242 166.375C567.841 166.901 567.641 167.664 567.641 168.664V168.938C567.641 169.911 567.841 170.661 568.242 171.188C568.643 171.714 569.216 171.977 569.961 171.977ZM576.391 165.57C577.031 164.784 577.865 164.391 578.891 164.391C580.677 164.391 581.578 165.398 581.594 167.414V173H580.148V167.406C580.143 166.797 580.003 166.346 579.727 166.055C579.456 165.763 579.031 165.617 578.453 165.617C577.984 165.617 577.573 165.742 577.219 165.992C576.865 166.242 576.589 166.57 576.391 166.977V173H574.945V161H576.391V165.57ZM583.375 168.695C583.375 167.867 583.536 167.122 583.859 166.461C584.188 165.799 584.641 165.289 585.219 164.93C585.802 164.57 586.466 164.391 587.211 164.391C588.362 164.391 589.292 164.789 590 165.586C590.714 166.383 591.07 167.443 591.07 168.766V168.867C591.07 169.69 590.911 170.43 590.594 171.086C590.281 171.737 589.831 172.245 589.242 172.609C588.659 172.974 587.987 173.156 587.227 173.156C586.081 173.156 585.151 172.758 584.438 171.961C583.729 171.164 583.375 170.109 583.375 168.797V168.695ZM584.828 168.867C584.828 169.805 585.044 170.557 585.477 171.125C585.914 171.693 586.497 171.977 587.227 171.977C587.961 171.977 588.544 171.69 588.977 171.117C589.409 170.539 589.625 169.732 589.625 168.695C589.625 167.768 589.404 167.018 588.961 166.445C588.523 165.867 587.94 165.578 587.211 165.578C586.497 165.578 585.922 165.862 585.484 166.43C585.047 166.997 584.828 167.81 584.828 168.867ZM595.891 168.758H592.078V167.578H595.891V168.758ZM600.695 171.977C601.211 171.977 601.661 171.82 602.047 171.508C602.432 171.195 602.646 170.805 602.688 170.336H604.055C604.029 170.82 603.862 171.281 603.555 171.719C603.247 172.156 602.836 172.505 602.32 172.766C601.81 173.026 601.268 173.156 600.695 173.156C599.544 173.156 598.628 172.773 597.945 172.008C597.268 171.237 596.93 170.185 596.93 168.852V168.609C596.93 167.786 597.081 167.055 597.383 166.414C597.685 165.773 598.117 165.276 598.68 164.922C599.247 164.568 599.917 164.391 600.688 164.391C601.635 164.391 602.422 164.674 603.047 165.242C603.677 165.81 604.013 166.547 604.055 167.453H602.688C602.646 166.906 602.438 166.458 602.062 166.109C601.693 165.755 601.234 165.578 600.688 165.578C599.953 165.578 599.383 165.844 598.977 166.375C598.576 166.901 598.375 167.664 598.375 168.664V168.938C598.375 169.911 598.576 170.661 598.977 171.188C599.378 171.714 599.951 171.977 600.695 171.977ZM605.297 168.695C605.297 167.867 605.458 167.122 605.781 166.461C606.109 165.799 606.562 165.289 607.141 164.93C607.724 164.57 608.388 164.391 609.133 164.391C610.284 164.391 611.214 164.789 611.922 165.586C612.635 166.383 612.992 167.443 612.992 168.766V168.867C612.992 169.69 612.833 170.43 612.516 171.086C612.203 171.737 611.753 172.245 611.164 172.609C610.581 172.974 609.909 173.156 609.148 173.156C608.003 173.156 607.073 172.758 606.359 171.961C605.651 171.164 605.297 170.109 605.297 168.797V168.695ZM606.75 168.867C606.75 169.805 606.966 170.557 607.398 171.125C607.836 171.693 608.419 171.977 609.148 171.977C609.883 171.977 610.466 171.69 610.898 171.117C611.331 170.539 611.547 169.732 611.547 168.695C611.547 167.768 611.326 167.018 610.883 166.445C610.445 165.867 609.862 165.578 609.133 165.578C608.419 165.578 607.844 165.862 607.406 166.43C606.969 166.997 606.75 167.81 606.75 168.867ZM614.453 168.703C614.453 167.375 614.758 166.326 615.367 165.555C615.977 164.779 616.794 164.391 617.82 164.391C618.82 164.391 619.609 164.727 620.188 165.398L620.25 164.547H621.578V176.25H620.133V172.219C619.549 172.844 618.773 173.156 617.805 173.156C616.784 173.156 615.969 172.76 615.359 171.969C614.755 171.172 614.453 170.117 614.453 168.805V168.703ZM615.898 168.867C615.898 169.836 616.102 170.596 616.508 171.148C616.919 171.701 617.471 171.977 618.164 171.977C619.023 171.977 619.68 171.596 620.133 170.836V166.695C619.674 165.951 619.023 165.578 618.18 165.578C617.482 165.578 616.927 165.857 616.516 166.414C616.104 166.966 615.898 167.784 615.898 168.867Z" fill="#5452F6"/>
<rect x="503.5" y="136.5" width="159" height="62" rx="7.5" stroke="#5452F6"/>
</g>
<g filter="url(#filter3_d)">
<path d="M583.843 221.657C586.967 218.533 592.033 218.533 595.157 221.657L657.343 283.843C660.467 286.967 660.467 292.033 657.343 295.157L595.157 357.343C592.033 360.467 586.967 360.467 583.843 357.343L521.657 295.157C518.533 292.033 518.533 286.967 521.657 283.843L583.843 221.657Z" fill="#EEEEFF"/>
<path d="M594.803 222.01L656.99 284.197C659.919 287.126 659.919 291.874 656.99 294.803L594.803 356.99C591.874 359.919 587.126 359.919 584.197 356.99L522.01 294.803C519.081 291.874 519.081 287.126 522.01 284.197L584.197 222.01C587.126 219.081 591.874 219.081 594.803 222.01Z" stroke="#5452F6"/>
</g>
<path d="M560.361 287.218H558.861V275.843H560.361V287.218ZM564.252 278.765L564.299 279.827C564.945 279.015 565.788 278.609 566.83 278.609C568.616 278.609 569.517 279.616 569.533 281.632V287.218H568.088V281.624C568.083 281.015 567.942 280.564 567.666 280.273C567.395 279.981 566.971 279.835 566.392 279.835C565.924 279.835 565.512 279.96 565.158 280.21C564.804 280.46 564.528 280.788 564.33 281.195V287.218H562.885V278.765H564.252ZM572.424 287.218V279.882H571.088V278.765H572.424V277.898C572.424 276.991 572.666 276.291 573.15 275.796C573.635 275.301 574.32 275.054 575.205 275.054C575.538 275.054 575.869 275.098 576.197 275.187L576.119 276.359C575.874 276.312 575.614 276.288 575.338 276.288C574.869 276.288 574.507 276.426 574.252 276.702C573.997 276.973 573.869 277.364 573.869 277.874V278.765H575.674V279.882H573.869V287.218H572.424ZM580.596 287.374C579.45 287.374 578.517 286.999 577.799 286.249C577.08 285.494 576.721 284.486 576.721 283.226V282.96C576.721 282.122 576.879 281.374 577.197 280.718C577.52 280.056 577.968 279.541 578.541 279.171C579.119 278.796 579.744 278.609 580.416 278.609C581.515 278.609 582.369 278.971 582.978 279.695C583.588 280.418 583.892 281.455 583.892 282.804V283.405H578.166C578.187 284.239 578.429 284.913 578.892 285.429C579.361 285.939 579.955 286.195 580.674 286.195C581.184 286.195 581.616 286.09 581.971 285.882C582.325 285.674 582.635 285.398 582.9 285.054L583.783 285.741C583.075 286.83 582.012 287.374 580.596 287.374ZM580.416 279.796C579.833 279.796 579.343 280.01 578.947 280.437C578.551 280.859 578.307 281.452 578.213 282.218H582.447V282.109C582.405 281.374 582.208 280.806 581.853 280.405C581.499 279.999 581.02 279.796 580.416 279.796ZM589.658 280.062C589.439 280.025 589.202 280.007 588.947 280.007C587.999 280.007 587.356 280.411 587.017 281.218V287.218H585.572V278.765H586.978L587.002 279.741C587.476 278.986 588.148 278.609 589.017 278.609C589.299 278.609 589.512 278.645 589.658 278.718V280.062ZM594.346 287.374C593.2 287.374 592.267 286.999 591.549 286.249C590.83 285.494 590.471 284.486 590.471 283.226V282.96C590.471 282.122 590.629 281.374 590.947 280.718C591.27 280.056 591.718 279.541 592.291 279.171C592.869 278.796 593.494 278.609 594.166 278.609C595.265 278.609 596.119 278.971 596.728 279.695C597.338 280.418 597.642 281.455 597.642 282.804V283.405H591.916C591.937 284.239 592.179 284.913 592.642 285.429C593.111 285.939 593.705 286.195 594.424 286.195C594.934 286.195 595.366 286.09 595.721 285.882C596.075 285.674 596.385 285.398 596.65 285.054L597.533 285.741C596.825 286.83 595.762 287.374 594.346 287.374ZM594.166 279.796C593.583 279.796 593.093 280.01 592.697 280.437C592.301 280.859 592.057 281.452 591.963 282.218H596.197V282.109C596.155 281.374 595.958 280.806 595.603 280.405C595.249 279.999 594.77 279.796 594.166 279.796ZM600.689 278.765L600.736 279.827C601.382 279.015 602.226 278.609 603.267 278.609C605.054 278.609 605.955 279.616 605.971 281.632V287.218H604.525V281.624C604.52 281.015 604.379 280.564 604.103 280.273C603.833 279.981 603.408 279.835 602.83 279.835C602.361 279.835 601.95 279.96 601.596 280.21C601.241 280.46 600.965 280.788 600.767 281.195V287.218H599.322V278.765H600.689ZM611.541 286.195C612.057 286.195 612.507 286.038 612.892 285.726C613.278 285.413 613.491 285.023 613.533 284.554H614.9C614.874 285.038 614.708 285.499 614.4 285.937C614.093 286.374 613.682 286.723 613.166 286.984C612.655 287.244 612.114 287.374 611.541 287.374C610.39 287.374 609.473 286.991 608.791 286.226C608.114 285.455 607.775 284.403 607.775 283.07V282.827C607.775 282.004 607.926 281.273 608.228 280.632C608.53 279.991 608.963 279.494 609.525 279.14C610.093 278.786 610.762 278.609 611.533 278.609C612.481 278.609 613.267 278.892 613.892 279.46C614.523 280.028 614.859 280.765 614.9 281.671H613.533C613.491 281.124 613.283 280.676 612.908 280.327C612.538 279.973 612.08 279.796 611.533 279.796C610.799 279.796 610.228 280.062 609.822 280.593C609.421 281.119 609.221 281.882 609.221 282.882V283.155C609.221 284.129 609.421 284.879 609.822 285.405C610.223 285.931 610.796 286.195 611.541 286.195ZM620.033 287.374C618.887 287.374 617.955 286.999 617.236 286.249C616.517 285.494 616.158 284.486 616.158 283.226V282.96C616.158 282.122 616.317 281.374 616.635 280.718C616.958 280.056 617.405 279.541 617.978 279.171C618.557 278.796 619.182 278.609 619.853 278.609C620.952 278.609 621.807 278.971 622.416 279.695C623.025 280.418 623.33 281.455 623.33 282.804V283.405H617.603C617.624 284.239 617.866 284.913 618.33 285.429C618.799 285.939 619.392 286.195 620.111 286.195C620.622 286.195 621.054 286.09 621.408 285.882C621.762 285.674 622.072 285.398 622.338 285.054L623.221 285.741C622.512 286.83 621.45 287.374 620.033 287.374ZM619.853 279.796C619.27 279.796 618.78 280.01 618.385 280.437C617.989 280.859 617.744 281.452 617.65 282.218H621.885V282.109C621.843 281.374 621.645 280.806 621.291 280.405C620.937 279.999 620.458 279.796 619.853 279.796ZM574.369 300.96H569.439V304.991H575.166V306.218H567.939V294.843H575.088V296.077H569.439V299.734H574.369V300.96ZM578.174 297.765L578.221 298.827C578.866 298.015 579.71 297.609 580.752 297.609C582.538 297.609 583.439 298.616 583.455 300.632V306.218H582.01V300.624C582.004 300.015 581.864 299.564 581.588 299.273C581.317 298.981 580.892 298.835 580.314 298.835C579.846 298.835 579.434 298.96 579.08 299.21C578.726 299.46 578.45 299.788 578.252 300.195V306.218H576.807V297.765H578.174ZM585.291 301.921C585.291 300.603 585.596 299.556 586.205 298.78C586.814 297.999 587.622 297.609 588.627 297.609C589.658 297.609 590.463 297.973 591.041 298.702L591.111 297.765H592.432V306.015C592.432 307.109 592.106 307.971 591.455 308.601C590.809 309.231 589.939 309.546 588.846 309.546C588.236 309.546 587.64 309.416 587.057 309.155C586.473 308.895 586.028 308.538 585.721 308.085L586.471 307.218C587.09 307.984 587.848 308.366 588.744 308.366C589.447 308.366 589.994 308.168 590.385 307.773C590.78 307.377 590.978 306.82 590.978 306.101V305.374C590.4 306.041 589.611 306.374 588.611 306.374C587.622 306.374 586.82 305.976 586.205 305.179C585.596 304.382 585.291 303.296 585.291 301.921ZM586.744 302.085C586.744 303.038 586.939 303.788 587.33 304.335C587.721 304.877 588.267 305.148 588.971 305.148C589.882 305.148 590.551 304.734 590.978 303.905V300.046C590.536 299.239 589.872 298.835 588.986 298.835C588.283 298.835 587.734 299.109 587.338 299.655C586.942 300.202 586.744 301.012 586.744 302.085ZM596.189 306.218H594.744V297.765H596.189V306.218ZM594.627 295.523C594.627 295.288 594.697 295.09 594.838 294.929C594.984 294.767 595.197 294.687 595.478 294.687C595.76 294.687 595.973 294.767 596.119 294.929C596.265 295.09 596.338 295.288 596.338 295.523C596.338 295.757 596.265 295.952 596.119 296.109C595.973 296.265 595.76 296.343 595.478 296.343C595.197 296.343 594.984 296.265 594.838 296.109C594.697 295.952 594.627 295.757 594.627 295.523ZM599.877 297.765L599.924 298.827C600.57 298.015 601.413 297.609 602.455 297.609C604.241 297.609 605.142 298.616 605.158 300.632V306.218H603.713V300.624C603.708 300.015 603.567 299.564 603.291 299.273C603.02 298.981 602.596 298.835 602.017 298.835C601.549 298.835 601.137 298.96 600.783 299.21C600.429 299.46 600.153 299.788 599.955 300.195V306.218H598.51V297.765H599.877ZM610.846 306.374C609.7 306.374 608.767 305.999 608.049 305.249C607.33 304.494 606.971 303.486 606.971 302.226V301.96C606.971 301.122 607.129 300.374 607.447 299.718C607.77 299.056 608.218 298.541 608.791 298.171C609.369 297.796 609.994 297.609 610.666 297.609C611.765 297.609 612.619 297.971 613.228 298.695C613.838 299.418 614.142 300.455 614.142 301.804V302.405H608.416C608.437 303.239 608.679 303.913 609.142 304.429C609.611 304.939 610.205 305.195 610.924 305.195C611.434 305.195 611.866 305.09 612.221 304.882C612.575 304.674 612.885 304.398 613.15 304.054L614.033 304.741C613.325 305.83 612.262 306.374 610.846 306.374ZM610.666 298.796C610.083 298.796 609.593 299.01 609.197 299.437C608.801 299.859 608.557 300.452 608.463 301.218H612.697V301.109C612.655 300.374 612.458 299.806 612.103 299.405C611.749 298.999 611.27 298.796 610.666 298.796Z" fill="#5452F6"/>
<path d="M528.695 11.3906C528.555 12.5938 528.109 13.5234 527.359 14.1797C526.615 14.8307 525.622 15.1562 524.383 15.1562C523.039 15.1562 521.961 14.6745 521.148 13.7109C520.341 12.7474 519.938 11.4583 519.938 9.84375V8.75C519.938 7.69271 520.125 6.76302 520.5 5.96094C520.88 5.15885 521.417 4.54427 522.109 4.11719C522.802 3.6849 523.604 3.46875 524.516 3.46875C525.724 3.46875 526.693 3.80729 527.422 4.48438C528.151 5.15625 528.576 6.08854 528.695 7.28125H527.188C527.057 6.375 526.773 5.71875 526.336 5.3125C525.904 4.90625 525.297 4.70312 524.516 4.70312C523.557 4.70312 522.805 5.05729 522.258 5.76562C521.716 6.47396 521.445 7.48177 521.445 8.78906V9.89062C521.445 11.125 521.703 12.1068 522.219 12.8359C522.734 13.5651 523.456 13.9297 524.383 13.9297C525.216 13.9297 525.854 13.7422 526.297 13.3672C526.745 12.987 527.042 12.3281 527.188 11.3906H528.695ZM530.141 10.6953C530.141 9.86719 530.302 9.1224 530.625 8.46094C530.953 7.79948 531.406 7.28906 531.984 6.92969C532.568 6.57031 533.232 6.39062 533.977 6.39062C535.128 6.39062 536.057 6.78906 536.766 7.58594C537.479 8.38281 537.836 9.44271 537.836 10.7656V10.8672C537.836 11.6901 537.677 12.4297 537.359 13.0859C537.047 13.737 536.596 14.2448 536.008 14.6094C535.424 14.974 534.753 15.1562 533.992 15.1562C532.846 15.1562 531.917 14.7578 531.203 13.9609C530.495 13.1641 530.141 12.1094 530.141 10.7969V10.6953ZM531.594 10.8672C531.594 11.8047 531.81 12.5573 532.242 13.125C532.68 13.6927 533.263 13.9766 533.992 13.9766C534.727 13.9766 535.31 13.6901 535.742 13.1172C536.174 12.5391 536.391 11.7318 536.391 10.6953C536.391 9.76823 536.169 9.01823 535.727 8.44531C535.289 7.86719 534.706 7.57812 533.977 7.57812C533.263 7.57812 532.688 7.86198 532.25 8.42969C531.812 8.9974 531.594 9.8099 531.594 10.8672ZM539.297 10.7031C539.297 9.375 539.602 8.32552 540.211 7.55469C540.82 6.77865 541.638 6.39062 542.664 6.39062C543.664 6.39062 544.453 6.72656 545.031 7.39844L545.094 6.54688H546.422V18.25H544.977V14.2188C544.393 14.8438 543.617 15.1562 542.648 15.1562C541.628 15.1562 540.812 14.7604 540.203 13.9688C539.599 13.1719 539.297 12.1172 539.297 10.8047V10.7031ZM540.742 10.8672C540.742 11.8359 540.945 12.5964 541.352 13.1484C541.763 13.7005 542.315 13.9766 543.008 13.9766C543.867 13.9766 544.523 13.5964 544.977 12.8359V8.69531C544.518 7.95052 543.867 7.57812 543.023 7.57812C542.326 7.57812 541.771 7.85677 541.359 8.41406C540.948 8.96615 540.742 9.78385 540.742 10.8672ZM559.852 10.8672C559.852 12.1536 559.557 13.1901 558.969 13.9766C558.38 14.763 557.583 15.1562 556.578 15.1562C555.552 15.1562 554.745 14.8307 554.156 14.1797V18.25H552.711V6.54688H554.031L554.102 7.48438C554.69 6.75521 555.508 6.39062 556.555 6.39062C557.57 6.39062 558.372 6.77344 558.961 7.53906C559.555 8.30469 559.852 9.36979 559.852 10.7344V10.8672ZM558.406 10.7031C558.406 9.75 558.203 8.9974 557.797 8.44531C557.391 7.89323 556.833 7.61719 556.125 7.61719C555.25 7.61719 554.594 8.00521 554.156 8.78125V12.8203C554.589 13.5911 555.25 13.9766 556.141 13.9766C556.833 13.9766 557.383 13.7031 557.789 13.1562C558.201 12.6042 558.406 11.7865 558.406 10.7031ZM565.781 7.84375C565.562 7.80729 565.326 7.78906 565.07 7.78906C564.122 7.78906 563.479 8.19271 563.141 9V15H561.695V6.54688H563.102L563.125 7.52344C563.599 6.76823 564.271 6.39062 565.141 6.39062C565.422 6.39062 565.635 6.42708 565.781 6.5V7.84375ZM566.578 10.6953C566.578 9.86719 566.74 9.1224 567.062 8.46094C567.391 7.79948 567.844 7.28906 568.422 6.92969C569.005 6.57031 569.669 6.39062 570.414 6.39062C571.565 6.39062 572.495 6.78906 573.203 7.58594C573.917 8.38281 574.273 9.44271 574.273 10.7656V10.8672C574.273 11.6901 574.115 12.4297 573.797 13.0859C573.484 13.737 573.034 14.2448 572.445 14.6094C571.862 14.974 571.19 15.1562 570.43 15.1562C569.284 15.1562 568.354 14.7578 567.641 13.9609C566.932 13.1641 566.578 12.1094 566.578 10.7969V10.6953ZM568.031 10.8672C568.031 11.8047 568.247 12.5573 568.68 13.125C569.117 13.6927 569.701 13.9766 570.43 13.9766C571.164 13.9766 571.747 13.6901 572.18 13.1172C572.612 12.5391 572.828 11.7318 572.828 10.6953C572.828 9.76823 572.607 9.01823 572.164 8.44531C571.727 7.86719 571.143 7.57812 570.414 7.57812C569.701 7.57812 569.125 7.86198 568.688 8.42969C568.25 8.9974 568.031 9.8099 568.031 10.8672ZM575.703 10.6953C575.703 9.86719 575.865 9.1224 576.188 8.46094C576.516 7.79948 576.969 7.28906 577.547 6.92969C578.13 6.57031 578.794 6.39062 579.539 6.39062C580.69 6.39062 581.62 6.78906 582.328 7.58594C583.042 8.38281 583.398 9.44271 583.398 10.7656V10.8672C583.398 11.6901 583.24 12.4297 582.922 13.0859C582.609 13.737 582.159 14.2448 581.57 14.6094C580.987 14.974 580.315 15.1562 579.555 15.1562C578.409 15.1562 577.479 14.7578 576.766 13.9609C576.057 13.1641 575.703 12.1094 575.703 10.7969V10.6953ZM577.156 10.8672C577.156 11.8047 577.372 12.5573 577.805 13.125C578.242 13.6927 578.826 13.9766 579.555 13.9766C580.289 13.9766 580.872 13.6901 581.305 13.1172C581.737 12.5391 581.953 11.7318 581.953 10.6953C581.953 9.76823 581.732 9.01823 581.289 8.44531C580.852 7.86719 580.268 7.57812 579.539 7.57812C578.826 7.57812 578.25 7.86198 577.812 8.42969C577.375 8.9974 577.156 9.8099 577.156 10.8672ZM585.922 15V7.66406H584.586V6.54688H585.922V5.67969C585.922 4.77344 586.164 4.07292 586.648 3.57812C587.133 3.08333 587.818 2.83594 588.703 2.83594C589.036 2.83594 589.367 2.88021 589.695 2.96875L589.617 4.14062C589.372 4.09375 589.112 4.07031 588.836 4.07031C588.367 4.07031 588.005 4.20833 587.75 4.48438C587.495 4.75521 587.367 5.14583 587.367 5.65625V6.54688H589.172V7.66406H587.367V15H585.922ZM599.961 15C599.878 14.8333 599.81 14.5365 599.758 14.1094C599.086 14.8073 598.284 15.1562 597.352 15.1562C596.518 15.1562 595.833 14.9219 595.297 14.4531C594.766 13.9792 594.5 13.3802 594.5 12.6562C594.5 11.776 594.833 11.0938 595.5 10.6094C596.172 10.1198 597.115 9.875 598.328 9.875H599.734V9.21094C599.734 8.70573 599.583 8.30469 599.281 8.00781C598.979 7.70573 598.534 7.55469 597.945 7.55469C597.43 7.55469 596.997 7.6849 596.648 7.94531C596.299 8.20573 596.125 8.52083 596.125 8.89062H594.672C594.672 8.46875 594.82 8.0625 595.117 7.67188C595.419 7.27604 595.826 6.96354 596.336 6.73438C596.852 6.50521 597.417 6.39062 598.031 6.39062C599.005 6.39062 599.768 6.63542 600.32 7.125C600.872 7.60938 601.159 8.27865 601.18 9.13281V13.0234C601.18 13.7995 601.279 14.4167 601.477 14.875V15H599.961ZM597.562 13.8984C598.016 13.8984 598.445 13.7812 598.852 13.5469C599.258 13.3125 599.552 13.0078 599.734 12.6328V10.8984H598.602C596.831 10.8984 595.945 11.4167 595.945 12.4531C595.945 12.9062 596.096 13.2604 596.398 13.5156C596.701 13.7708 597.089 13.8984 597.562 13.8984ZM608.367 12.7578C608.367 12.3672 608.219 12.0651 607.922 11.8516C607.63 11.6328 607.117 11.4453 606.383 11.2891C605.654 11.1328 605.073 10.9453 604.641 10.7266C604.214 10.5078 603.896 10.2474 603.688 9.94531C603.484 9.64323 603.383 9.28385 603.383 8.86719C603.383 8.17448 603.674 7.58854 604.258 7.10938C604.846 6.63021 605.596 6.39062 606.508 6.39062C607.466 6.39062 608.242 6.63802 608.836 7.13281C609.435 7.6276 609.734 8.26042 609.734 9.03125H608.281C608.281 8.63542 608.112 8.29427 607.773 8.00781C607.44 7.72135 607.018 7.57812 606.508 7.57812C605.982 7.57812 605.57 7.69271 605.273 7.92188C604.977 8.15104 604.828 8.45052 604.828 8.82031C604.828 9.16927 604.966 9.43229 605.242 9.60938C605.518 9.78646 606.016 9.95573 606.734 10.1172C607.458 10.2786 608.044 10.4714 608.492 10.6953C608.94 10.9193 609.271 11.1901 609.484 11.5078C609.703 11.8203 609.812 12.2031 609.812 12.6562C609.812 13.4115 609.51 14.0182 608.906 14.4766C608.302 14.9297 607.518 15.1562 606.555 15.1562C605.878 15.1562 605.279 15.0365 604.758 14.7969C604.237 14.5573 603.828 14.224 603.531 13.7969C603.24 13.3646 603.094 12.8984 603.094 12.3984H604.539C604.565 12.8828 604.758 13.2682 605.117 13.5547C605.482 13.8359 605.961 13.9766 606.555 13.9766C607.102 13.9766 607.539 13.8672 607.867 13.6484C608.201 13.4245 608.367 13.1276 608.367 12.7578ZM616.617 12.7578C616.617 12.3672 616.469 12.0651 616.172 11.8516C615.88 11.6328 615.367 11.4453 614.633 11.2891C613.904 11.1328 613.323 10.9453 612.891 10.7266C612.464 10.5078 612.146 10.2474 611.938 9.94531C611.734 9.64323 611.633 9.28385 611.633 8.86719C611.633 8.17448 611.924 7.58854 612.508 7.10938C613.096 6.63021 613.846 6.39062 614.758 6.39062C615.716 6.39062 616.492 6.63802 617.086 7.13281C617.685 7.6276 617.984 8.26042 617.984 9.03125H616.531C616.531 8.63542 616.362 8.29427 616.023 8.00781C615.69 7.72135 615.268 7.57812 614.758 7.57812C614.232 7.57812 613.82 7.69271 613.523 7.92188C613.227 8.15104 613.078 8.45052 613.078 8.82031C613.078 9.16927 613.216 9.43229 613.492 9.60938C613.768 9.78646 614.266 9.95573 614.984 10.1172C615.708 10.2786 616.294 10.4714 616.742 10.6953C617.19 10.9193 617.521 11.1901 617.734 11.5078C617.953 11.8203 618.062 12.2031 618.062 12.6562C618.062 13.4115 617.76 14.0182 617.156 14.4766C616.552 14.9297 615.768 15.1562 614.805 15.1562C614.128 15.1562 613.529 15.0365 613.008 14.7969C612.487 14.5573 612.078 14.224 611.781 13.7969C611.49 13.3646 611.344 12.8984 611.344 12.3984H612.789C612.815 12.8828 613.008 13.2682 613.367 13.5547C613.732 13.8359 614.211 13.9766 614.805 13.9766C615.352 13.9766 615.789 13.8672 616.117 13.6484C616.451 13.4245 616.617 13.1276 616.617 12.7578ZM621.516 15H620.07V6.54688H621.516V15ZM619.953 4.30469C619.953 4.07031 620.023 3.8724 620.164 3.71094C620.31 3.54948 620.523 3.46875 620.805 3.46875C621.086 3.46875 621.299 3.54948 621.445 3.71094C621.591 3.8724 621.664 4.07031 621.664 4.30469C621.664 4.53906 621.591 4.73438 621.445 4.89062C621.299 5.04688 621.086 5.125 620.805 5.125C620.523 5.125 620.31 5.04688 620.164 4.89062C620.023 4.73438 619.953 4.53906 619.953 4.30469ZM628.758 12.7578C628.758 12.3672 628.609 12.0651 628.312 11.8516C628.021 11.6328 627.508 11.4453 626.773 11.2891C626.044 11.1328 625.464 10.9453 625.031 10.7266C624.604 10.5078 624.286 10.2474 624.078 9.94531C623.875 9.64323 623.773 9.28385 623.773 8.86719C623.773 8.17448 624.065 7.58854 624.648 7.10938C625.237 6.63021 625.987 6.39062 626.898 6.39062C627.857 6.39062 628.633 6.63802 629.227 7.13281C629.826 7.6276 630.125 8.26042 630.125 9.03125H628.672C628.672 8.63542 628.503 8.29427 628.164 8.00781C627.831 7.72135 627.409 7.57812 626.898 7.57812C626.372 7.57812 625.961 7.69271 625.664 7.92188C625.367 8.15104 625.219 8.45052 625.219 8.82031C625.219 9.16927 625.357 9.43229 625.633 9.60938C625.909 9.78646 626.406 9.95573 627.125 10.1172C627.849 10.2786 628.435 10.4714 628.883 10.6953C629.331 10.9193 629.661 11.1901 629.875 11.5078C630.094 11.8203 630.203 12.2031 630.203 12.6562C630.203 13.4115 629.901 14.0182 629.297 14.4766C628.693 14.9297 627.909 15.1562 626.945 15.1562C626.268 15.1562 625.669 15.0365 625.148 14.7969C624.628 14.5573 624.219 14.224 623.922 13.7969C623.63 13.3646 623.484 12.8984 623.484 12.3984H624.93C624.956 12.8828 625.148 13.2682 625.508 13.5547C625.872 13.8359 626.352 13.9766 626.945 13.9766C627.492 13.9766 627.93 13.8672 628.258 13.6484C628.591 13.4245 628.758 13.1276 628.758 12.7578ZM634.047 4.5V6.54688H635.625V7.66406H634.047V12.9062C634.047 13.2448 634.117 13.5 634.258 13.6719C634.398 13.8385 634.638 13.9219 634.977 13.9219C635.143 13.9219 635.372 13.8906 635.664 13.8281V15C635.284 15.1042 634.914 15.1562 634.555 15.1562C633.909 15.1562 633.422 14.9609 633.094 14.5703C632.766 14.1797 632.602 13.625 632.602 12.9062V7.66406H631.062V6.54688H632.602V4.5H634.047ZM642.539 15C642.456 14.8333 642.388 14.5365 642.336 14.1094C641.664 14.8073 640.862 15.1562 639.93 15.1562C639.096 15.1562 638.411 14.9219 637.875 14.4531C637.344 13.9792 637.078 13.3802 637.078 12.6562C637.078 11.776 637.411 11.0938 638.078 10.6094C638.75 10.1198 639.693 9.875 640.906 9.875H642.312V9.21094C642.312 8.70573 642.161 8.30469 641.859 8.00781C641.557 7.70573 641.112 7.55469 640.523 7.55469C640.008 7.55469 639.576 7.6849 639.227 7.94531C638.878 8.20573 638.703 8.52083 638.703 8.89062H637.25C637.25 8.46875 637.398 8.0625 637.695 7.67188C637.997 7.27604 638.404 6.96354 638.914 6.73438C639.43 6.50521 639.995 6.39062 640.609 6.39062C641.583 6.39062 642.346 6.63542 642.898 7.125C643.451 7.60938 643.737 8.27865 643.758 9.13281V13.0234C643.758 13.7995 643.857 14.4167 644.055 14.875V15H642.539ZM640.141 13.8984C640.594 13.8984 641.023 13.7812 641.43 13.5469C641.836 13.3125 642.13 13.0078 642.312 12.6328V10.8984H641.18C639.409 10.8984 638.523 11.4167 638.523 12.4531C638.523 12.9062 638.674 13.2604 638.977 13.5156C639.279 13.7708 639.667 13.8984 640.141 13.8984ZM647.391 6.54688L647.438 7.60938C648.083 6.79688 648.927 6.39062 649.969 6.39062C651.755 6.39062 652.656 7.39844 652.672 9.41406V15H651.227V9.40625C651.221 8.79688 651.081 8.34635 650.805 8.05469C650.534 7.76302 650.109 7.61719 649.531 7.61719C649.062 7.61719 648.651 7.74219 648.297 7.99219C647.943 8.24219 647.667 8.57031 647.469 8.97656V15H646.023V6.54688H647.391ZM656.812 4.5V6.54688H658.391V7.66406H656.812V12.9062C656.812 13.2448 656.883 13.5 657.023 13.6719C657.164 13.8385 657.404 13.9219 657.742 13.9219C657.909 13.9219 658.138 13.8906 658.43 13.8281V15C658.049 15.1042 657.68 15.1562 657.32 15.1562C656.674 15.1562 656.188 14.9609 655.859 14.5703C655.531 14.1797 655.367 13.625 655.367 12.9062V7.66406H653.828V6.54688H655.367V4.5H656.812Z" fill="#5452F6"/>
<g filter="url(#filter4_d)">
<rect x="200" y="178" width="200" height="225" rx="8" fill="white"/>
<g filter="url(#filter5_d)">
<rect x="220" y="200" width="160" height="63" rx="8" fill="white"/>
<path d="M277.305 226.859H273.648V237H272.156V226.859H268.508V225.625H277.305V226.859ZM280.211 229.57C280.852 228.784 281.685 228.391 282.711 228.391C284.497 228.391 285.398 229.398 285.414 231.414V237H283.969V231.406C283.964 230.797 283.823 230.346 283.547 230.055C283.276 229.763 282.852 229.617 282.273 229.617C281.805 229.617 281.393 229.742 281.039 229.992C280.685 230.242 280.409 230.57 280.211 230.977V237H278.766V225H280.211V229.57ZM291.086 237.156C289.94 237.156 289.008 236.781 288.289 236.031C287.57 235.276 287.211 234.268 287.211 233.008V232.742C287.211 231.904 287.37 231.156 287.688 230.5C288.01 229.839 288.458 229.323 289.031 228.953C289.609 228.578 290.234 228.391 290.906 228.391C292.005 228.391 292.859 228.753 293.469 229.477C294.078 230.201 294.383 231.237 294.383 232.586V233.188H288.656C288.677 234.021 288.919 234.695 289.383 235.211C289.852 235.721 290.445 235.977 291.164 235.977C291.674 235.977 292.107 235.872 292.461 235.664C292.815 235.456 293.125 235.18 293.391 234.836L294.273 235.523C293.565 236.612 292.503 237.156 291.086 237.156ZM290.906 229.578C290.323 229.578 289.833 229.792 289.438 230.219C289.042 230.641 288.797 231.234 288.703 232H292.938V231.891C292.896 231.156 292.698 230.589 292.344 230.188C291.99 229.781 291.51 229.578 290.906 229.578ZM295.68 232.695C295.68 231.867 295.841 231.122 296.164 230.461C296.492 229.799 296.945 229.289 297.523 228.93C298.107 228.57 298.771 228.391 299.516 228.391C300.667 228.391 301.596 228.789 302.305 229.586C303.018 230.383 303.375 231.443 303.375 232.766V232.867C303.375 233.69 303.216 234.43 302.898 235.086C302.586 235.737 302.135 236.245 301.547 236.609C300.964 236.974 300.292 237.156 299.531 237.156C298.385 237.156 297.456 236.758 296.742 235.961C296.034 235.164 295.68 234.109 295.68 232.797V232.695ZM297.133 232.867C297.133 233.805 297.349 234.557 297.781 235.125C298.219 235.693 298.802 235.977 299.531 235.977C300.266 235.977 300.849 235.69 301.281 235.117C301.714 234.539 301.93 233.732 301.93 232.695C301.93 231.768 301.708 231.018 301.266 230.445C300.828 229.867 300.245 229.578 299.516 229.578C298.802 229.578 298.227 229.862 297.789 230.43C297.352 230.997 297.133 231.81 297.133 232.867ZM309.273 229.844C309.055 229.807 308.818 229.789 308.562 229.789C307.615 229.789 306.971 230.193 306.633 231V237H305.188V228.547H306.594L306.617 229.523C307.091 228.768 307.763 228.391 308.633 228.391C308.914 228.391 309.128 228.427 309.273 228.5V229.844ZM313.961 237.156C312.815 237.156 311.883 236.781 311.164 236.031C310.445 235.276 310.086 234.268 310.086 233.008V232.742C310.086 231.904 310.245 231.156 310.562 230.5C310.885 229.839 311.333 229.323 311.906 228.953C312.484 228.578 313.109 228.391 313.781 228.391C314.88 228.391 315.734 228.753 316.344 229.477C316.953 230.201 317.258 231.237 317.258 232.586V233.188H311.531C311.552 234.021 311.794 234.695 312.258 235.211C312.727 235.721 313.32 235.977 314.039 235.977C314.549 235.977 314.982 235.872 315.336 235.664C315.69 235.456 316 235.18 316.266 234.836L317.148 235.523C316.44 236.612 315.378 237.156 313.961 237.156ZM313.781 229.578C313.198 229.578 312.708 229.792 312.312 230.219C311.917 230.641 311.672 231.234 311.578 232H315.812V231.891C315.771 231.156 315.573 230.589 315.219 230.188C314.865 229.781 314.385 229.578 313.781 229.578ZM320.297 228.547L320.336 229.484C320.956 228.755 321.792 228.391 322.844 228.391C324.026 228.391 324.831 228.844 325.258 229.75C325.539 229.344 325.904 229.016 326.352 228.766C326.805 228.516 327.339 228.391 327.953 228.391C329.807 228.391 330.75 229.372 330.781 231.336V237H329.336V231.422C329.336 230.818 329.198 230.367 328.922 230.07C328.646 229.768 328.182 229.617 327.531 229.617C326.995 229.617 326.549 229.779 326.195 230.102C325.841 230.419 325.635 230.849 325.578 231.391V237H324.125V231.461C324.125 230.232 323.523 229.617 322.32 229.617C321.372 229.617 320.724 230.021 320.375 230.828V237H318.93V228.547H320.297Z" fill="#5452F6"/>
<rect x="220.5" y="200.5" width="159" height="62" rx="7.5" stroke="#5452F6"/>
</g>
<g filter="url(#filter6_d)">
<rect x="220" y="320" width="160" height="63" rx="8" fill="white"/>
<path d="M283.234 352.547V357H281.734V345.625H285.93C287.174 345.625 288.148 345.943 288.852 346.578C289.56 347.214 289.914 348.055 289.914 349.102C289.914 350.206 289.568 351.057 288.875 351.656C288.188 352.25 287.201 352.547 285.914 352.547H283.234ZM283.234 351.32H285.93C286.732 351.32 287.346 351.133 287.773 350.758C288.201 350.378 288.414 349.831 288.414 349.117C288.414 348.44 288.201 347.898 287.773 347.492C287.346 347.086 286.76 346.875 286.016 346.859H283.234V351.32ZM295.688 349.844C295.469 349.807 295.232 349.789 294.977 349.789C294.029 349.789 293.385 350.193 293.047 351V357H291.602V348.547H293.008L293.031 349.523C293.505 348.768 294.177 348.391 295.047 348.391C295.328 348.391 295.542 348.427 295.688 348.5V349.844ZM296.484 352.695C296.484 351.867 296.646 351.122 296.969 350.461C297.297 349.799 297.75 349.289 298.328 348.93C298.911 348.57 299.576 348.391 300.32 348.391C301.471 348.391 302.401 348.789 303.109 349.586C303.823 350.383 304.18 351.443 304.18 352.766V352.867C304.18 353.69 304.021 354.43 303.703 355.086C303.391 355.737 302.94 356.245 302.352 356.609C301.768 356.974 301.096 357.156 300.336 357.156C299.19 357.156 298.26 356.758 297.547 355.961C296.839 355.164 296.484 354.109 296.484 352.797V352.695ZM297.938 352.867C297.938 353.805 298.154 354.557 298.586 355.125C299.023 355.693 299.607 355.977 300.336 355.977C301.07 355.977 301.654 355.69 302.086 355.117C302.518 354.539 302.734 353.732 302.734 352.695C302.734 351.768 302.513 351.018 302.07 350.445C301.633 349.867 301.049 349.578 300.32 349.578C299.607 349.578 299.031 349.862 298.594 350.43C298.156 350.997 297.938 351.81 297.938 352.867ZM305.609 352.695C305.609 351.867 305.771 351.122 306.094 350.461C306.422 349.799 306.875 349.289 307.453 348.93C308.036 348.57 308.701 348.391 309.445 348.391C310.596 348.391 311.526 348.789 312.234 349.586C312.948 350.383 313.305 351.443 313.305 352.766V352.867C313.305 353.69 313.146 354.43 312.828 355.086C312.516 355.737 312.065 356.245 311.477 356.609C310.893 356.974 310.221 357.156 309.461 357.156C308.315 357.156 307.385 356.758 306.672 355.961C305.964 355.164 305.609 354.109 305.609 352.797V352.695ZM307.062 352.867C307.062 353.805 307.279 354.557 307.711 355.125C308.148 355.693 308.732 355.977 309.461 355.977C310.195 355.977 310.779 355.69 311.211 355.117C311.643 354.539 311.859 353.732 311.859 352.695C311.859 351.768 311.638 351.018 311.195 350.445C310.758 349.867 310.174 349.578 309.445 349.578C308.732 349.578 308.156 349.862 307.719 350.43C307.281 350.997 307.062 351.81 307.062 352.867ZM315.828 357V349.664H314.492V348.547H315.828V347.68C315.828 346.773 316.07 346.073 316.555 345.578C317.039 345.083 317.724 344.836 318.609 344.836C318.943 344.836 319.273 344.88 319.602 344.969L319.523 346.141C319.279 346.094 319.018 346.07 318.742 346.07C318.273 346.07 317.911 346.208 317.656 346.484C317.401 346.755 317.273 347.146 317.273 347.656V348.547H319.078V349.664H317.273V357H315.828Z" fill="#5452F6"/>
<rect x="220.5" y="320.5" width="159" height="62" rx="7.5" stroke="#5452F6"/>
</g>
<rect x="200.5" y="178.5" width="199" height="224" rx="7.5" stroke="#5452F6"/>
</g>
<path d="M279.188 164H277.688V152.625H279.188V164ZM283.078 155.547L283.125 156.609C283.771 155.797 284.615 155.391 285.656 155.391C287.443 155.391 288.344 156.398 288.359 158.414V164H286.914V158.406C286.909 157.797 286.768 157.346 286.492 157.055C286.221 156.763 285.797 156.617 285.219 156.617C284.75 156.617 284.339 156.742 283.984 156.992C283.63 157.242 283.354 157.57 283.156 157.977V164H281.711V155.547H283.078ZM297.68 159.867C297.68 161.154 297.385 162.19 296.797 162.977C296.208 163.763 295.411 164.156 294.406 164.156C293.38 164.156 292.573 163.831 291.984 163.18V167.25H290.539V155.547H291.859L291.93 156.484C292.518 155.755 293.336 155.391 294.383 155.391C295.398 155.391 296.201 155.773 296.789 156.539C297.383 157.305 297.68 158.37 297.68 159.734V159.867ZM296.234 159.703C296.234 158.75 296.031 157.997 295.625 157.445C295.219 156.893 294.661 156.617 293.953 156.617C293.078 156.617 292.422 157.005 291.984 157.781V161.82C292.417 162.591 293.078 162.977 293.969 162.977C294.661 162.977 295.211 162.703 295.617 162.156C296.029 161.604 296.234 160.786 296.234 159.703ZM304.742 163.164C304.18 163.826 303.354 164.156 302.266 164.156C301.365 164.156 300.677 163.896 300.203 163.375C299.734 162.849 299.497 162.073 299.492 161.047V155.547H300.938V161.008C300.938 162.289 301.458 162.93 302.5 162.93C303.604 162.93 304.339 162.518 304.703 161.695V155.547H306.148V164H304.773L304.742 163.164ZM310.312 153.5V155.547H311.891V156.664H310.312V161.906C310.312 162.245 310.383 162.5 310.523 162.672C310.664 162.839 310.904 162.922 311.242 162.922C311.409 162.922 311.638 162.891 311.93 162.828V164C311.549 164.104 311.18 164.156 310.82 164.156C310.174 164.156 309.688 163.961 309.359 163.57C309.031 163.18 308.867 162.625 308.867 161.906V156.664H307.328V155.547H308.867V153.5H310.312ZM318.508 161.758C318.508 161.367 318.359 161.065 318.062 160.852C317.771 160.633 317.258 160.445 316.523 160.289C315.794 160.133 315.214 159.945 314.781 159.727C314.354 159.508 314.036 159.247 313.828 158.945C313.625 158.643 313.523 158.284 313.523 157.867C313.523 157.174 313.815 156.589 314.398 156.109C314.987 155.63 315.737 155.391 316.648 155.391C317.607 155.391 318.383 155.638 318.977 156.133C319.576 156.628 319.875 157.26 319.875 158.031H318.422C318.422 157.635 318.253 157.294 317.914 157.008C317.581 156.721 317.159 156.578 316.648 156.578C316.122 156.578 315.711 156.693 315.414 156.922C315.117 157.151 314.969 157.451 314.969 157.82C314.969 158.169 315.107 158.432 315.383 158.609C315.659 158.786 316.156 158.956 316.875 159.117C317.599 159.279 318.185 159.471 318.633 159.695C319.081 159.919 319.411 160.19 319.625 160.508C319.844 160.82 319.953 161.203 319.953 161.656C319.953 162.411 319.651 163.018 319.047 163.477C318.443 163.93 317.659 164.156 316.695 164.156C316.018 164.156 315.419 164.036 314.898 163.797C314.378 163.557 313.969 163.224 313.672 162.797C313.38 162.365 313.234 161.898 313.234 161.398H314.68C314.706 161.883 314.898 162.268 315.258 162.555C315.622 162.836 316.102 162.977 316.695 162.977C317.242 162.977 317.68 162.867 318.008 162.648C318.341 162.424 318.508 162.128 318.508 161.758Z" fill="#5452F6"/>
<g filter="url(#filter7_d)">
<rect x="795" y="174" width="200" height="229" rx="8" fill="white"/>
<g filter="url(#filter8_d)">
<rect x="815" y="196" width="160" height="63" rx="8" fill="white"/>
<path d="M886.875 227.336L889.844 221.625H891.547L887.625 228.758V233H886.125V228.758L882.203 221.625H883.922L886.875 227.336ZM895.781 233.156C894.635 233.156 893.703 232.781 892.984 232.031C892.266 231.276 891.906 230.268 891.906 229.008V228.742C891.906 227.904 892.065 227.156 892.383 226.5C892.706 225.839 893.154 225.323 893.727 224.953C894.305 224.578 894.93 224.391 895.602 224.391C896.701 224.391 897.555 224.753 898.164 225.477C898.773 226.201 899.078 227.237 899.078 228.586V229.188H893.352C893.372 230.021 893.615 230.695 894.078 231.211C894.547 231.721 895.141 231.977 895.859 231.977C896.37 231.977 896.802 231.872 897.156 231.664C897.51 231.456 897.82 231.18 898.086 230.836L898.969 231.523C898.26 232.612 897.198 233.156 895.781 233.156ZM895.602 225.578C895.018 225.578 894.529 225.792 894.133 226.219C893.737 226.641 893.492 227.234 893.398 228H897.633V227.891C897.591 227.156 897.393 226.589 897.039 226.188C896.685 225.781 896.206 225.578 895.602 225.578ZM905.68 230.758C905.68 230.367 905.531 230.065 905.234 229.852C904.943 229.633 904.43 229.445 903.695 229.289C902.966 229.133 902.385 228.945 901.953 228.727C901.526 228.508 901.208 228.247 901 227.945C900.797 227.643 900.695 227.284 900.695 226.867C900.695 226.174 900.987 225.589 901.57 225.109C902.159 224.63 902.909 224.391 903.82 224.391C904.779 224.391 905.555 224.638 906.148 225.133C906.747 225.628 907.047 226.26 907.047 227.031H905.594C905.594 226.635 905.424 226.294 905.086 226.008C904.753 225.721 904.331 225.578 903.82 225.578C903.294 225.578 902.883 225.693 902.586 225.922C902.289 226.151 902.141 226.451 902.141 226.82C902.141 227.169 902.279 227.432 902.555 227.609C902.831 227.786 903.328 227.956 904.047 228.117C904.771 228.279 905.357 228.471 905.805 228.695C906.253 228.919 906.583 229.19 906.797 229.508C907.016 229.82 907.125 230.203 907.125 230.656C907.125 231.411 906.823 232.018 906.219 232.477C905.615 232.93 904.831 233.156 903.867 233.156C903.19 233.156 902.591 233.036 902.07 232.797C901.549 232.557 901.141 232.224 900.844 231.797C900.552 231.365 900.406 230.898 900.406 230.398H901.852C901.878 230.883 902.07 231.268 902.43 231.555C902.794 231.836 903.273 231.977 903.867 231.977C904.414 231.977 904.852 231.867 905.18 231.648C905.513 231.424 905.68 231.128 905.68 230.758Z" fill="#5452F6"/>
<rect x="815.5" y="196.5" width="159" height="62" rx="7.5" stroke="#5452F6"/>
</g>
<g filter="url(#filter9_d)">
<rect x="815" y="316" width="160" height="63" rx="8" fill="white"/>
<path d="M894.797 353H893.289L887.562 344.234V353H886.055V341.625H887.562L893.305 350.43V341.625H894.797V353ZM896.852 348.695C896.852 347.867 897.013 347.122 897.336 346.461C897.664 345.799 898.117 345.289 898.695 344.93C899.279 344.57 899.943 344.391 900.688 344.391C901.839 344.391 902.768 344.789 903.477 345.586C904.19 346.383 904.547 347.443 904.547 348.766V348.867C904.547 349.69 904.388 350.43 904.07 351.086C903.758 351.737 903.307 352.245 902.719 352.609C902.135 352.974 901.464 353.156 900.703 353.156C899.557 353.156 898.628 352.758 897.914 351.961C897.206 351.164 896.852 350.109 896.852 348.797V348.695ZM898.305 348.867C898.305 349.805 898.521 350.557 898.953 351.125C899.391 351.693 899.974 351.977 900.703 351.977C901.438 351.977 902.021 351.69 902.453 351.117C902.885 350.539 903.102 349.732 903.102 348.695C903.102 347.768 902.88 347.018 902.438 346.445C902 345.867 901.417 345.578 900.688 345.578C899.974 345.578 899.398 345.862 898.961 346.43C898.523 346.997 898.305 347.81 898.305 348.867Z" fill="#5452F6"/>
<rect x="815.5" y="316.5" width="159" height="62" rx="7.5" stroke="#5452F6"/>
</g>
<rect x="795.5" y="174.5" width="199" height="228" rx="7.5" stroke="#5452F6"/>
</g>
<path d="M875.391 154.68C875.391 155.794 875.203 156.768 874.828 157.602C874.453 158.43 873.922 159.062 873.234 159.5C872.547 159.938 871.745 160.156 870.828 160.156C869.932 160.156 869.138 159.938 868.445 159.5C867.753 159.057 867.214 158.43 866.828 157.617C866.448 156.799 866.253 155.854 866.242 154.781V153.961C866.242 152.867 866.432 151.901 866.812 151.062C867.193 150.224 867.729 149.583 868.422 149.141C869.12 148.693 869.917 148.469 870.812 148.469C871.724 148.469 872.526 148.69 873.219 149.133C873.917 149.57 874.453 150.208 874.828 151.047C875.203 151.88 875.391 152.852 875.391 153.961V154.68ZM873.898 153.945C873.898 152.596 873.628 151.562 873.086 150.844C872.544 150.12 871.786 149.758 870.812 149.758C869.865 149.758 869.117 150.12 868.57 150.844C868.029 151.562 867.75 152.562 867.734 153.844V154.68C867.734 155.987 868.008 157.016 868.555 157.766C869.107 158.51 869.865 158.883 870.828 158.883C871.797 158.883 872.547 158.531 873.078 157.828C873.609 157.12 873.883 156.107 873.898 154.789V153.945ZM882.633 159.164C882.07 159.826 881.245 160.156 880.156 160.156C879.255 160.156 878.568 159.896 878.094 159.375C877.625 158.849 877.388 158.073 877.383 157.047V151.547H878.828V157.008C878.828 158.289 879.349 158.93 880.391 158.93C881.495 158.93 882.229 158.518 882.594 157.695V151.547H884.039V160H882.664L882.633 159.164ZM888.203 149.5V151.547H889.781V152.664H888.203V157.906C888.203 158.245 888.273 158.5 888.414 158.672C888.555 158.839 888.794 158.922 889.133 158.922C889.299 158.922 889.529 158.891 889.82 158.828V160C889.44 160.104 889.07 160.156 888.711 160.156C888.065 160.156 887.578 159.961 887.25 159.57C886.922 159.18 886.758 158.625 886.758 157.906V152.664H885.219V151.547H886.758V149.5H888.203ZM898.617 155.867C898.617 157.154 898.323 158.19 897.734 158.977C897.146 159.763 896.349 160.156 895.344 160.156C894.318 160.156 893.51 159.831 892.922 159.18V163.25H891.477V151.547H892.797L892.867 152.484C893.456 151.755 894.273 151.391 895.32 151.391C896.336 151.391 897.138 151.773 897.727 152.539C898.32 153.305 898.617 154.37 898.617 155.734V155.867ZM897.172 155.703C897.172 154.75 896.969 153.997 896.562 153.445C896.156 152.893 895.599 152.617 894.891 152.617C894.016 152.617 893.359 153.005 892.922 153.781V157.82C893.354 158.591 894.016 158.977 894.906 158.977C895.599 158.977 896.148 158.703 896.555 158.156C896.966 157.604 897.172 156.786 897.172 155.703ZM905.68 159.164C905.117 159.826 904.292 160.156 903.203 160.156C902.302 160.156 901.615 159.896 901.141 159.375C900.672 158.849 900.435 158.073 900.43 157.047V151.547H901.875V157.008C901.875 158.289 902.396 158.93 903.438 158.93C904.542 158.93 905.276 158.518 905.641 157.695V151.547H907.086V160H905.711L905.68 159.164ZM911.25 149.5V151.547H912.828V152.664H911.25V157.906C911.25 158.245 911.32 158.5 911.461 158.672C911.602 158.839 911.841 158.922 912.18 158.922C912.346 158.922 912.576 158.891 912.867 158.828V160C912.487 160.104 912.117 160.156 911.758 160.156C911.112 160.156 910.625 159.961 910.297 159.57C909.969 159.18 909.805 158.625 909.805 157.906V152.664H908.266V151.547H909.805V149.5H911.25ZM919.445 157.758C919.445 157.367 919.297 157.065 919 156.852C918.708 156.633 918.195 156.445 917.461 156.289C916.732 156.133 916.151 155.945 915.719 155.727C915.292 155.508 914.974 155.247 914.766 154.945C914.562 154.643 914.461 154.284 914.461 153.867C914.461 153.174 914.753 152.589 915.336 152.109C915.924 151.63 916.674 151.391 917.586 151.391C918.544 151.391 919.32 151.638 919.914 152.133C920.513 152.628 920.812 153.26 920.812 154.031H919.359C919.359 153.635 919.19 153.294 918.852 153.008C918.518 152.721 918.096 152.578 917.586 152.578C917.06 152.578 916.648 152.693 916.352 152.922C916.055 153.151 915.906 153.451 915.906 153.82C915.906 154.169 916.044 154.432 916.32 154.609C916.596 154.786 917.094 154.956 917.812 155.117C918.536 155.279 919.122 155.471 919.57 155.695C920.018 155.919 920.349 156.19 920.562 156.508C920.781 156.82 920.891 157.203 920.891 157.656C920.891 158.411 920.589 159.018 919.984 159.477C919.38 159.93 918.596 160.156 917.633 160.156C916.956 160.156 916.357 160.036 915.836 159.797C915.315 159.557 914.906 159.224 914.609 158.797C914.318 158.365 914.172 157.898 914.172 157.398H915.617C915.643 157.883 915.836 158.268 916.195 158.555C916.56 158.836 917.039 158.977 917.633 158.977C918.18 158.977 918.617 158.867 918.945 158.648C919.279 158.424 919.445 158.128 919.445 157.758Z" fill="#5452F6"/>
<path d="M662 289.5L721.213 289.5C732.258 289.5 741.213 280.546 741.213 269.5L741.213 246.5C741.213 235.454 750.167 226.5 761.213 226.5L815 226.5" stroke="#FF5A43" stroke-width="2" stroke-linecap="round" stroke-linejoin="round" stroke-dasharray="5 8"/>
<path d="M805 217.974L815 227.231L805 236" stroke="#FF5A43" stroke-width="2" stroke-linecap="round" stroke-linejoin="round"/>
<path d="M383 354.5L433.411 354.5C444.457 354.5 453.411 345.546 453.411 334.5L453.411 311.5C453.411 300.454 462.366 291.5 473.411 291.5L519 291.5" stroke="#FF5A43" stroke-width="2" stroke-linecap="round" stroke-linejoin="round" stroke-dasharray="5 8"/>
<path d="M509 282.974L519 292.231L509 301" stroke="#FF5A43" stroke-width="2" stroke-linecap="round" stroke-linejoin="round"/>
<path d="M662 289.5L721.213 289.5C732.258 289.5 741.213 298.454 741.213 309.5L741.213 331.5C741.213 342.546 750.167 351.5 761.213 351.5L815 351.5" stroke="#FF5A43" stroke-width="2" stroke-linecap="round" stroke-linejoin="round" stroke-dasharray="5 8"/>
<path d="M805 360.026L815 350.769L805 342" stroke="#FF5A43" stroke-width="2" stroke-linecap="round" stroke-linejoin="round"/>
<path d="M383 229.5L433.411 229.5C444.457 229.5 453.411 238.454 453.411 249.5L453.411 271.5C453.411 282.546 462.366 291.5 473.411 291.5L519 291.5" stroke="#FF5A43" stroke-width="2" stroke-linecap="round" stroke-linejoin="round" stroke-dasharray="5 8"/>
<g filter="url(#filter10_d)">
<path d="M177 328C177 323.582 173.418 320 169 320H8C3.58172 320 0 323.582 0 328V375C0 379.418 3.58172 383 8 383H88.5H169C173.418 383 177 379.418 177 375V328Z" fill="#E7F4FF"/>
<path d="M169 320.5H8C3.85786 320.5 0.5 323.858 0.5 328V375C0.5 379.142 3.85786 382.5 8 382.5H88.5H169C173.142 382.5 176.5 379.142 176.5 375V328C176.5 323.858 173.142 320.5 169 320.5Z" stroke="#2097F6"/>
</g>
<g filter="url(#filter11_d)">
<path d="M176 341L188.415 348.587C190.967 350.147 190.967 353.853 188.415 355.413L176 363V341Z" fill="#E7F4FF"/>
</g>
<path d="M176.5 341L188.612 348.613C191.107 350.182 191.107 353.818 188.612 355.387L176.5 363" stroke="#2097F6" stroke-linecap="round" stroke-linejoin="round"/>
<path d="M21.1328 343.773V348H19.1562V336.625H23.5078C24.7786 336.625 25.7865 336.956 26.5312 337.617C27.2812 338.279 27.6562 339.154 27.6562 340.242C27.6562 341.357 27.2891 342.224 26.5547 342.844C25.8255 343.464 24.8021 343.773 23.4844 343.773H21.1328ZM21.1328 342.188H23.5078C24.2109 342.188 24.7474 342.023 25.1172 341.695C25.487 341.362 25.6719 340.883 25.6719 340.258C25.6719 339.643 25.4844 339.154 25.1094 338.789C24.7344 338.419 24.2188 338.229 23.5625 338.219H21.1328V342.188ZM33.6328 341.281C33.3828 341.24 33.125 341.219 32.8594 341.219C31.9896 341.219 31.4036 341.552 31.1016 342.219V348H29.2031V339.547H31.0156L31.0625 340.492C31.5208 339.758 32.1562 339.391 32.9688 339.391C33.2396 339.391 33.4635 339.427 33.6406 339.5L33.6328 341.281ZM34.1953 343.695C34.1953 342.867 34.3594 342.122 34.6875 341.461C35.0156 340.794 35.4766 340.284 36.0703 339.93C36.6641 339.57 37.3464 339.391 38.1172 339.391C39.2578 339.391 40.1823 339.758 40.8906 340.492C41.6042 341.227 41.9896 342.201 42.0469 343.414L42.0547 343.859C42.0547 344.693 41.8932 345.438 41.5703 346.094C41.2526 346.75 40.7943 347.258 40.1953 347.617C39.6016 347.977 38.9141 348.156 38.1328 348.156C36.9401 348.156 35.9844 347.76 35.2656 346.969C34.5521 346.172 34.1953 345.112 34.1953 343.789V343.695ZM36.0938 343.859C36.0938 344.729 36.2734 345.411 36.6328 345.906C36.9922 346.396 37.4922 346.641 38.1328 346.641C38.7734 346.641 39.2708 346.391 39.625 345.891C39.9844 345.391 40.1641 344.659 40.1641 343.695C40.1641 342.841 39.9792 342.164 39.6094 341.664C39.2448 341.164 38.7474 340.914 38.1172 340.914C37.4974 340.914 37.0052 341.161 36.6406 341.656C36.276 342.146 36.0938 342.88 36.0938 343.859ZM43.3047 343.695C43.3047 342.867 43.4688 342.122 43.7969 341.461C44.125 340.794 44.5859 340.284 45.1797 339.93C45.7734 339.57 46.4557 339.391 47.2266 339.391C48.3672 339.391 49.2917 339.758 50 340.492C50.7135 341.227 51.099 342.201 51.1562 343.414L51.1641 343.859C51.1641 344.693 51.0026 345.438 50.6797 346.094C50.362 346.75 49.9036 347.258 49.3047 347.617C48.7109 347.977 48.0234 348.156 47.2422 348.156C46.0495 348.156 45.0938 347.76 44.375 346.969C43.6615 346.172 43.3047 345.112 43.3047 343.789V343.695ZM45.2031 343.859C45.2031 344.729 45.3828 345.411 45.7422 345.906C46.1016 346.396 46.6016 346.641 47.2422 346.641C47.8828 346.641 48.3802 346.391 48.7344 345.891C49.0938 345.391 49.2734 344.659 49.2734 343.695C49.2734 342.841 49.0885 342.164 48.7188 341.664C48.3542 341.164 47.8568 340.914 47.2266 340.914C46.6068 340.914 46.1146 341.161 45.75 341.656C45.3854 342.146 45.2031 342.88 45.2031 343.859ZM53.4375 348V340.953H52.1484V339.547H53.4375V338.773C53.4375 337.836 53.6979 337.112 54.2188 336.602C54.7396 336.091 55.4688 335.836 56.4062 335.836C56.7396 335.836 57.0938 335.883 57.4688 335.977L57.4219 337.461C57.2135 337.419 56.9714 337.398 56.6953 337.398C55.7891 337.398 55.3359 337.865 55.3359 338.797V339.547H57.0547V340.953H55.3359V348H53.4375ZM69.8516 345.383L71.1953 339.547H73.0469L70.7422 348H69.1797L67.3672 342.195L65.5859 348H64.0234L61.7109 339.547H63.5625L64.9297 345.32L66.6641 339.547H68.0938L69.8516 345.383ZM78.7422 341.281C78.4922 341.24 78.2344 341.219 77.9688 341.219C77.099 341.219 76.513 341.552 76.2109 342.219V348H74.3125V339.547H76.125L76.1719 340.492C76.6302 339.758 77.2656 339.391 78.0781 339.391C78.349 339.391 78.5729 339.427 78.75 339.5L78.7422 341.281ZM81.9609 348H80.0625V339.547H81.9609V348ZM79.9453 337.352C79.9453 337.06 80.0365 336.818 80.2188 336.625C80.4062 336.432 80.6719 336.336 81.0156 336.336C81.3594 336.336 81.625 336.432 81.8125 336.625C82 336.818 82.0938 337.06 82.0938 337.352C82.0938 337.638 82 337.878 81.8125 338.07C81.625 338.258 81.3594 338.352 81.0156 338.352C80.6719 338.352 80.4062 338.258 80.2188 338.07C80.0365 337.878 79.9453 337.638 79.9453 337.352ZM86.4141 337.492V339.547H87.9062V340.953H86.4141V345.672C86.4141 345.995 86.4766 346.229 86.6016 346.375C86.7318 346.516 86.9609 346.586 87.2891 346.586C87.5078 346.586 87.7292 346.56 87.9531 346.508V347.977C87.5208 348.096 87.1042 348.156 86.7031 348.156C85.2448 348.156 84.5156 347.352 84.5156 345.742V340.953H83.125V339.547H84.5156V337.492H86.4141ZM91.7422 337.492V339.547H93.2344V340.953H91.7422V345.672C91.7422 345.995 91.8047 346.229 91.9297 346.375C92.0599 346.516 92.2891 346.586 92.6172 346.586C92.8359 346.586 93.0573 346.56 93.2812 346.508V347.977C92.849 348.096 92.4323 348.156 92.0312 348.156C90.5729 348.156 89.8438 347.352 89.8438 345.742V340.953H88.4531V339.547H89.8438V337.492H91.7422ZM98.4141 348.156C97.2109 348.156 96.2344 347.779 95.4844 347.023C94.7396 346.263 94.3672 345.253 94.3672 343.992V343.758C94.3672 342.914 94.5286 342.161 94.8516 341.5C95.1797 340.833 95.638 340.315 96.2266 339.945C96.8151 339.576 97.4714 339.391 98.1953 339.391C99.3464 339.391 100.234 339.758 100.859 340.492C101.49 341.227 101.805 342.266 101.805 343.609V344.375H96.2812C96.3385 345.073 96.5703 345.625 96.9766 346.031C97.388 346.438 97.9036 346.641 98.5234 346.641C99.3932 346.641 100.102 346.289 100.648 345.586L101.672 346.562C101.333 347.068 100.88 347.461 100.312 347.742C99.75 348.018 99.1172 348.156 98.4141 348.156ZM98.1875 340.914C97.6667 340.914 97.2448 341.096 96.9219 341.461C96.6042 341.826 96.401 342.333 96.3125 342.984H99.9297V342.844C99.888 342.208 99.7188 341.729 99.4219 341.406C99.125 341.078 98.7135 340.914 98.1875 340.914ZM105.047 339.547L105.102 340.523C105.727 339.768 106.547 339.391 107.562 339.391C109.323 339.391 110.219 340.398 110.25 342.414V348H108.352V342.523C108.352 341.987 108.234 341.591 108 341.336C107.771 341.076 107.393 340.945 106.867 340.945C106.102 340.945 105.531 341.292 105.156 341.984V348H103.258V339.547H105.047ZM118.195 348H116.297V339.547H118.195V348ZM116.18 337.352C116.18 337.06 116.271 336.818 116.453 336.625C116.641 336.432 116.906 336.336 117.25 336.336C117.594 336.336 117.859 336.432 118.047 336.625C118.234 336.818 118.328 337.06 118.328 337.352C118.328 337.638 118.234 337.878 118.047 338.07C117.859 338.258 117.594 338.352 117.25 338.352C116.906 338.352 116.641 338.258 116.453 338.07C116.271 337.878 116.18 337.638 116.18 337.352ZM122.031 339.547L122.086 340.523C122.711 339.768 123.531 339.391 124.547 339.391C126.307 339.391 127.203 340.398 127.234 342.414V348H125.336V342.523C125.336 341.987 125.219 341.591 124.984 341.336C124.755 341.076 124.378 340.945 123.852 340.945C123.086 340.945 122.516 341.292 122.141 341.984V348H120.242V339.547H122.031ZM27.875 365.523C27.4635 366.06 26.8932 366.466 26.1641 366.742C25.4349 367.018 24.6068 367.156 23.6797 367.156C22.7266 367.156 21.8828 366.94 21.1484 366.508C20.4141 366.076 19.8464 365.458 19.4453 364.656C19.0495 363.849 18.8438 362.909 18.8281 361.836V360.945C18.8281 359.227 19.2396 357.885 20.0625 356.922C20.8854 355.953 22.0339 355.469 23.5078 355.469C24.7734 355.469 25.7786 355.781 26.5234 356.406C27.2682 357.031 27.7161 357.932 27.8672 359.109H25.9297C25.7109 357.74 24.9167 357.055 23.5469 357.055C22.6615 357.055 21.987 357.375 21.5234 358.016C21.0651 358.651 20.8281 359.586 20.8125 360.82V361.695C20.8125 362.924 21.0703 363.88 21.5859 364.562C22.1068 365.24 22.8281 365.578 23.75 365.578C24.7604 365.578 25.4792 365.349 25.9062 364.891V362.664H23.5625V361.164H27.875V365.523ZM34.9141 367C34.8307 366.839 34.7578 366.576 34.6953 366.211C34.0911 366.841 33.3516 367.156 32.4766 367.156C31.6276 367.156 30.9349 366.914 30.3984 366.43C29.862 365.945 29.5938 365.346 29.5938 364.633C29.5938 363.732 29.9271 363.042 30.5938 362.562C31.2656 362.078 32.224 361.836 33.4688 361.836H34.6328V361.281C34.6328 360.844 34.5104 360.495 34.2656 360.234C34.0208 359.969 33.6484 359.836 33.1484 359.836C32.7161 359.836 32.362 359.945 32.0859 360.164C31.8099 360.378 31.6719 360.651 31.6719 360.984H29.7734C29.7734 360.521 29.9271 360.089 30.2344 359.688C30.5417 359.281 30.9583 358.964 31.4844 358.734C32.0156 358.505 32.6068 358.391 33.2578 358.391C34.2474 358.391 35.0365 358.641 35.625 359.141C36.2135 359.635 36.5156 360.333 36.5312 361.234V365.047C36.5312 365.807 36.638 366.414 36.8516 366.867V367H34.9141ZM32.8281 365.633C33.2031 365.633 33.5547 365.542 33.8828 365.359C34.2161 365.177 34.4661 364.932 34.6328 364.625V363.031H33.6094C32.9062 363.031 32.3776 363.154 32.0234 363.398C31.6693 363.643 31.4922 363.99 31.4922 364.438C31.4922 364.802 31.612 365.094 31.8516 365.312C32.0964 365.526 32.4219 365.633 32.8281 365.633ZM40.5391 367H38.6406V355H40.5391V367ZM44.6328 367H42.7344V355H44.6328V367ZM48.7266 367H46.8281V358.547H48.7266V367ZM46.7109 356.352C46.7109 356.06 46.8021 355.818 46.9844 355.625C47.1719 355.432 47.4375 355.336 47.7812 355.336C48.125 355.336 48.3906 355.432 48.5781 355.625C48.7656 355.818 48.8594 356.06 48.8594 356.352C48.8594 356.638 48.7656 356.878 48.5781 357.07C48.3906 357.258 48.125 357.352 47.7812 357.352C47.4375 357.352 47.1719 357.258 46.9844 357.07C46.8021 356.878 46.7109 356.638 46.7109 356.352ZM52.5625 358.547L52.6172 359.523C53.2422 358.768 54.0625 358.391 55.0781 358.391C56.8385 358.391 57.7344 359.398 57.7656 361.414V367H55.8672V361.523C55.8672 360.987 55.75 360.591 55.5156 360.336C55.2865 360.076 54.9089 359.945 54.3828 359.945C53.6172 359.945 53.0469 360.292 52.6719 360.984V367H50.7734V358.547H52.5625ZM64.7578 367C64.6745 366.839 64.6016 366.576 64.5391 366.211C63.9349 366.841 63.1953 367.156 62.3203 367.156C61.4714 367.156 60.7786 366.914 60.2422 366.43C59.7057 365.945 59.4375 365.346 59.4375 364.633C59.4375 363.732 59.7708 363.042 60.4375 362.562C61.1094 362.078 62.0677 361.836 63.3125 361.836H64.4766V361.281C64.4766 360.844 64.3542 360.495 64.1094 360.234C63.8646 359.969 63.4922 359.836 62.9922 359.836C62.5599 359.836 62.2057 359.945 61.9297 360.164C61.6536 360.378 61.5156 360.651 61.5156 360.984H59.6172C59.6172 360.521 59.7708 360.089 60.0781 359.688C60.3854 359.281 60.8021 358.964 61.3281 358.734C61.8594 358.505 62.4505 358.391 63.1016 358.391C64.0911 358.391 64.8802 358.641 65.4688 359.141C66.0573 359.635 66.3594 360.333 66.375 361.234V365.047C66.375 365.807 66.4818 366.414 66.6953 366.867V367H64.7578ZM62.6719 365.633C63.0469 365.633 63.3984 365.542 63.7266 365.359C64.0599 365.177 64.3099 364.932 64.4766 364.625V363.031H63.4531C62.75 363.031 62.2214 363.154 61.8672 363.398C61.513 363.643 61.3359 363.99 61.3359 364.438C61.3359 364.802 61.4557 365.094 61.6953 365.312C61.9401 365.526 62.2656 365.633 62.6719 365.633ZM72.375 362.375C72.375 361.172 72.5365 360.031 72.8594 358.953C73.1823 357.87 73.6562 356.904 74.2812 356.055C74.9062 355.201 75.5677 354.602 76.2656 354.258L76.6406 355.367C75.9062 355.924 75.3099 356.776 74.8516 357.922C74.3984 359.062 74.151 360.37 74.1094 361.844L74.1016 362.516C74.1016 364.094 74.3229 365.503 74.7656 366.742C75.2135 367.977 75.8385 368.917 76.6406 369.562L76.2656 370.617C75.5677 370.273 74.9036 369.672 74.2734 368.812C73.6484 367.958 73.1745 366.995 72.8516 365.922C72.5339 364.844 72.375 363.661 72.375 362.375ZM82.2734 364.523L85.1641 355.625H87.3359L83.2422 367H81.3281L77.25 355.625H79.4141L82.2734 364.523ZM91.8203 367.156C90.6172 367.156 89.6406 366.779 88.8906 366.023C88.1458 365.263 87.7734 364.253 87.7734 362.992V362.758C87.7734 361.914 87.9349 361.161 88.2578 360.5C88.5859 359.833 89.0443 359.315 89.6328 358.945C90.2214 358.576 90.8776 358.391 91.6016 358.391C92.7526 358.391 93.6406 358.758 94.2656 359.492C94.8958 360.227 95.2109 361.266 95.2109 362.609V363.375H89.6875C89.7448 364.073 89.9766 364.625 90.3828 365.031C90.7943 365.438 91.3099 365.641 91.9297 365.641C92.7995 365.641 93.5078 365.289 94.0547 364.586L95.0781 365.562C94.7396 366.068 94.2865 366.461 93.7188 366.742C93.1562 367.018 92.5234 367.156 91.8203 367.156ZM91.5938 359.914C91.0729 359.914 90.651 360.096 90.3281 360.461C90.0104 360.826 89.8073 361.333 89.7188 361.984H93.3359V361.844C93.2943 361.208 93.125 360.729 92.8281 360.406C92.5312 360.078 92.1198 359.914 91.5938 359.914ZM101.117 360.281C100.867 360.24 100.609 360.219 100.344 360.219C99.474 360.219 98.888 360.552 98.5859 361.219V367H96.6875V358.547H98.5L98.5469 359.492C99.0052 358.758 99.6406 358.391 100.453 358.391C100.724 358.391 100.948 358.427 101.125 358.5L101.117 360.281ZM104.078 358.547L104.133 359.523C104.758 358.768 105.578 358.391 106.594 358.391C108.354 358.391 109.25 359.398 109.281 361.414V367H107.383V361.523C107.383 360.987 107.266 360.591 107.031 360.336C106.802 360.076 106.424 359.945 105.898 359.945C105.133 359.945 104.562 360.292 104.188 360.984V367H102.289V358.547H104.078ZM116.273 367C116.19 366.839 116.117 366.576 116.055 366.211C115.451 366.841 114.711 367.156 113.836 367.156C112.987 367.156 112.294 366.914 111.758 366.43C111.221 365.945 110.953 365.346 110.953 364.633C110.953 363.732 111.286 363.042 111.953 362.562C112.625 362.078 113.583 361.836 114.828 361.836H115.992V361.281C115.992 360.844 115.87 360.495 115.625 360.234C115.38 359.969 115.008 359.836 114.508 359.836C114.076 359.836 113.721 359.945 113.445 360.164C113.169 360.378 113.031 360.651 113.031 360.984H111.133C111.133 360.521 111.286 360.089 111.594 359.688C111.901 359.281 112.318 358.964 112.844 358.734C113.375 358.505 113.966 358.391 114.617 358.391C115.607 358.391 116.396 358.641 116.984 359.141C117.573 359.635 117.875 360.333 117.891 361.234V365.047C117.891 365.807 117.997 366.414 118.211 366.867V367H116.273ZM114.188 365.633C114.562 365.633 114.914 365.542 115.242 365.359C115.576 365.177 115.826 364.932 115.992 364.625V363.031H114.969C114.266 363.031 113.737 363.154 113.383 363.398C113.029 363.643 112.852 363.99 112.852 364.438C112.852 364.802 112.971 365.094 113.211 365.312C113.456 365.526 113.781 365.633 114.188 365.633ZM123.352 365.641C123.826 365.641 124.219 365.503 124.531 365.227C124.844 364.951 125.01 364.609 125.031 364.203H126.82C126.799 364.729 126.635 365.221 126.328 365.68C126.021 366.133 125.604 366.492 125.078 366.758C124.552 367.023 123.984 367.156 123.375 367.156C122.193 367.156 121.255 366.773 120.562 366.008C119.87 365.242 119.523 364.185 119.523 362.836V362.641C119.523 361.354 119.867 360.326 120.555 359.555C121.242 358.779 122.18 358.391 123.367 358.391C124.372 358.391 125.19 358.685 125.82 359.273C126.456 359.857 126.789 360.625 126.82 361.578H125.031C125.01 361.094 124.844 360.695 124.531 360.383C124.224 360.07 123.831 359.914 123.352 359.914C122.737 359.914 122.263 360.138 121.93 360.586C121.596 361.029 121.427 361.703 121.422 362.609V362.914C121.422 363.831 121.586 364.516 121.914 364.969C122.247 365.417 122.727 365.641 123.352 365.641ZM133.375 366.172C132.818 366.828 132.026 367.156 131 367.156C130.083 367.156 129.388 366.888 128.914 366.352C128.445 365.815 128.211 365.039 128.211 364.023V358.547H130.109V364C130.109 365.073 130.555 365.609 131.445 365.609C132.367 365.609 132.99 365.279 133.312 364.617V358.547H135.211V367H133.422L133.375 366.172ZM139.164 367H137.266V355H139.164V367ZM146.289 367C146.206 366.839 146.133 366.576 146.07 366.211C145.466 366.841 144.727 367.156 143.852 367.156C143.003 367.156 142.31 366.914 141.773 366.43C141.237 365.945 140.969 365.346 140.969 364.633C140.969 363.732 141.302 363.042 141.969 362.562C142.641 362.078 143.599 361.836 144.844 361.836H146.008V361.281C146.008 360.844 145.885 360.495 145.641 360.234C145.396 359.969 145.023 359.836 144.523 359.836C144.091 359.836 143.737 359.945 143.461 360.164C143.185 360.378 143.047 360.651 143.047 360.984H141.148C141.148 360.521 141.302 360.089 141.609 359.688C141.917 359.281 142.333 358.964 142.859 358.734C143.391 358.505 143.982 358.391 144.633 358.391C145.622 358.391 146.411 358.641 147 359.141C147.589 359.635 147.891 360.333 147.906 361.234V365.047C147.906 365.807 148.013 366.414 148.227 366.867V367H146.289ZM144.203 365.633C144.578 365.633 144.93 365.542 145.258 365.359C145.591 365.177 145.841 364.932 146.008 364.625V363.031H144.984C144.281 363.031 143.753 363.154 143.398 363.398C143.044 363.643 142.867 363.99 142.867 364.438C142.867 364.802 142.987 365.094 143.227 365.312C143.471 365.526 143.797 365.633 144.203 365.633ZM154.32 360.281C154.07 360.24 153.812 360.219 153.547 360.219C152.677 360.219 152.091 360.552 151.789 361.219V367H149.891V358.547H151.703L151.75 359.492C152.208 358.758 152.844 358.391 153.656 358.391C153.927 358.391 154.151 358.427 154.328 358.5L154.32 360.281ZM159.18 362.5C159.18 363.656 159.021 364.773 158.703 365.852C158.385 366.924 157.904 367.901 157.258 368.781C156.612 369.667 155.938 370.279 155.234 370.617L154.859 369.562C155.641 368.958 156.258 368.036 156.711 366.797C157.169 365.552 157.398 364.133 157.398 362.539V362.359C157.398 360.911 157.201 359.594 156.805 358.406C156.409 357.214 155.841 356.258 155.102 355.539L154.859 355.32L155.234 354.258C155.901 354.581 156.547 355.154 157.172 355.977C157.797 356.799 158.276 357.721 158.609 358.742C158.943 359.758 159.13 360.807 159.172 361.891L159.18 362.5Z" fill="#2097F6"/>
<g filter="url(#filter12_d)">
<path d="M177 208C177 203.582 173.418 200 169 200H8C3.58172 200 0 203.582 0 208V255C0 259.418 3.58172 263 8 263H88.5H169C173.418 263 177 259.418 177 255V208Z" fill="#E7F4FF"/>
<path d="M169 200.5H8C3.85786 200.5 0.5 203.858 0.5 208V255C0.5 259.142 3.85786 262.5 8 262.5H88.5H169C173.142 262.5 176.5 259.142 176.5 255V208C176.5 203.858 173.142 200.5 169 200.5Z" stroke="#2097F6"/>
</g>
<g filter="url(#filter13_d)">
<path d="M176 221L188.415 228.587C190.967 230.147 190.967 233.853 188.415 235.413L176 243V221Z" fill="#E7F4FF"/>
</g>
<path d="M176.5 221L188.612 228.613C191.107 230.182 191.107 233.818 188.612 235.387L176.5 243" stroke="#2097F6" stroke-linecap="round" stroke-linejoin="round"/>
<path d="M29.375 218.219H25.8281V228H23.8672V218.219H20.3516V216.625H29.375V218.219ZM32.5625 220.469C33.1823 219.75 33.9661 219.391 34.9141 219.391C36.7161 219.391 37.6302 220.419 37.6562 222.477V228H35.7578V222.547C35.7578 221.964 35.6302 221.552 35.375 221.312C35.125 221.068 34.7552 220.945 34.2656 220.945C33.5052 220.945 32.9375 221.284 32.5625 221.961V228H30.6641V216H32.5625V220.469ZM43.3047 228.156C42.1016 228.156 41.125 227.779 40.375 227.023C39.6302 226.263 39.2578 225.253 39.2578 223.992V223.758C39.2578 222.914 39.4193 222.161 39.7422 221.5C40.0703 220.833 40.5286 220.315 41.1172 219.945C41.7057 219.576 42.362 219.391 43.0859 219.391C44.237 219.391 45.125 219.758 45.75 220.492C46.3802 221.227 46.6953 222.266 46.6953 223.609V224.375H41.1719C41.2292 225.073 41.4609 225.625 41.8672 226.031C42.2786 226.438 42.7943 226.641 43.4141 226.641C44.2839 226.641 44.9922 226.289 45.5391 225.586L46.5625 226.562C46.224 227.068 45.7708 227.461 45.2031 227.742C44.6406 228.018 44.0078 228.156 43.3047 228.156ZM43.0781 220.914C42.5573 220.914 42.1354 221.096 41.8125 221.461C41.4948 221.826 41.2917 222.333 41.2031 222.984H44.8203V222.844C44.7786 222.208 44.6094 221.729 44.3125 221.406C44.0156 221.078 43.6042 220.914 43.0781 220.914ZM47.8203 223.695C47.8203 222.867 47.9844 222.122 48.3125 221.461C48.6406 220.794 49.1016 220.284 49.6953 219.93C50.2891 219.57 50.9714 219.391 51.7422 219.391C52.8828 219.391 53.8073 219.758 54.5156 220.492C55.2292 221.227 55.6146 222.201 55.6719 223.414L55.6797 223.859C55.6797 224.693 55.5182 225.438 55.1953 226.094C54.8776 226.75 54.4193 227.258 53.8203 227.617C53.2266 227.977 52.5391 228.156 51.7578 228.156C50.5651 228.156 49.6094 227.76 48.8906 226.969C48.1771 226.172 47.8203 225.112 47.8203 223.789V223.695ZM49.7188 223.859C49.7188 224.729 49.8984 225.411 50.2578 225.906C50.6172 226.396 51.1172 226.641 51.7578 226.641C52.3984 226.641 52.8958 226.391 53.25 225.891C53.6094 225.391 53.7891 224.659 53.7891 223.695C53.7891 222.841 53.6042 222.164 53.2344 221.664C52.8698 221.164 52.3724 220.914 51.7422 220.914C51.1224 220.914 50.6302 221.161 50.2656 221.656C49.901 222.146 49.7188 222.88 49.7188 223.859ZM61.7109 221.281C61.4609 221.24 61.2031 221.219 60.9375 221.219C60.0677 221.219 59.4818 221.552 59.1797 222.219V228H57.2812V219.547H59.0938L59.1406 220.492C59.599 219.758 60.2344 219.391 61.0469 219.391C61.3177 219.391 61.5417 219.427 61.7188 219.5L61.7109 221.281ZM66.4766 228.156C65.2734 228.156 64.2969 227.779 63.5469 227.023C62.8021 226.263 62.4297 225.253 62.4297 223.992V223.758C62.4297 222.914 62.5911 222.161 62.9141 221.5C63.2422 220.833 63.7005 220.315 64.2891 219.945C64.8776 219.576 65.5339 219.391 66.2578 219.391C67.4089 219.391 68.2969 219.758 68.9219 220.492C69.5521 221.227 69.8672 222.266 69.8672 223.609V224.375H64.3438C64.401 225.073 64.6328 225.625 65.0391 226.031C65.4505 226.438 65.9661 226.641 66.5859 226.641C67.4557 226.641 68.1641 226.289 68.7109 225.586L69.7344 226.562C69.3958 227.068 68.9427 227.461 68.375 227.742C67.8125 228.018 67.1797 228.156 66.4766 228.156ZM66.25 220.914C65.7292 220.914 65.3073 221.096 64.9844 221.461C64.6667 221.826 64.4635 222.333 64.375 222.984H67.9922V222.844C67.9505 222.208 67.7812 221.729 67.4844 221.406C67.1875 221.078 66.776 220.914 66.25 220.914ZM73.1328 219.547L73.1875 220.43C73.7812 219.737 74.5938 219.391 75.625 219.391C76.7552 219.391 77.5286 219.823 77.9453 220.688C78.5599 219.823 79.4245 219.391 80.5391 219.391C81.4714 219.391 82.1641 219.648 82.6172 220.164C83.0755 220.68 83.3099 221.44 83.3203 222.445V228H81.4219V222.5C81.4219 221.964 81.3047 221.57 81.0703 221.32C80.8359 221.07 80.4479 220.945 79.9062 220.945C79.474 220.945 79.1198 221.062 78.8438 221.297C78.5729 221.526 78.3828 221.828 78.2734 222.203L78.2812 228H76.3828V222.438C76.3568 221.443 75.849 220.945 74.8594 220.945C74.099 220.945 73.5599 221.255 73.2422 221.875V228H71.3438V219.547H73.1328ZM91.2734 228H89.375V219.547H91.2734V228ZM89.2578 217.352C89.2578 217.06 89.349 216.818 89.5312 216.625C89.7188 216.432 89.9844 216.336 90.3281 216.336C90.6719 216.336 90.9375 216.432 91.125 216.625C91.3125 216.818 91.4062 217.06 91.4062 217.352C91.4062 217.638 91.3125 217.878 91.125 218.07C90.9375 218.258 90.6719 218.352 90.3281 218.352C89.9844 218.352 89.7188 218.258 89.5312 218.07C89.349 217.878 89.2578 217.638 89.2578 217.352ZM95.1094 219.547L95.1641 220.523C95.7891 219.768 96.6094 219.391 97.625 219.391C99.3854 219.391 100.281 220.398 100.312 222.414V228H98.4141V222.523C98.4141 221.987 98.2969 221.591 98.0625 221.336C97.8333 221.076 97.4557 220.945 96.9297 220.945C96.1641 220.945 95.5938 221.292 95.2188 221.984V228H93.3203V219.547H95.1094ZM29.875 245.523C29.4635 246.06 28.8932 246.466 28.1641 246.742C27.4349 247.018 26.6068 247.156 25.6797 247.156C24.7266 247.156 23.8828 246.94 23.1484 246.508C22.4141 246.076 21.8464 245.458 21.4453 244.656C21.0495 243.849 20.8438 242.909 20.8281 241.836V240.945C20.8281 239.227 21.2396 237.885 22.0625 236.922C22.8854 235.953 24.0339 235.469 25.5078 235.469C26.7734 235.469 27.7786 235.781 28.5234 236.406C29.2682 237.031 29.7161 237.932 29.8672 239.109H27.9297C27.7109 237.74 26.9167 237.055 25.5469 237.055C24.6615 237.055 23.987 237.375 23.5234 238.016C23.0651 238.651 22.8281 239.586 22.8125 240.82V241.695C22.8125 242.924 23.0703 243.88 23.5859 244.562C24.1068 245.24 24.8281 245.578 25.75 245.578C26.7604 245.578 27.4792 245.349 27.9062 244.891V242.664H25.5625V241.164H29.875V245.523ZM36.9141 247C36.8307 246.839 36.7578 246.576 36.6953 246.211C36.0911 246.841 35.3516 247.156 34.4766 247.156C33.6276 247.156 32.9349 246.914 32.3984 246.43C31.862 245.945 31.5938 245.346 31.5938 244.633C31.5938 243.732 31.9271 243.042 32.5938 242.562C33.2656 242.078 34.224 241.836 35.4688 241.836H36.6328V241.281C36.6328 240.844 36.5104 240.495 36.2656 240.234C36.0208 239.969 35.6484 239.836 35.1484 239.836C34.7161 239.836 34.362 239.945 34.0859 240.164C33.8099 240.378 33.6719 240.651 33.6719 240.984H31.7734C31.7734 240.521 31.9271 240.089 32.2344 239.688C32.5417 239.281 32.9583 238.964 33.4844 238.734C34.0156 238.505 34.6068 238.391 35.2578 238.391C36.2474 238.391 37.0365 238.641 37.625 239.141C38.2135 239.635 38.5156 240.333 38.5312 241.234V245.047C38.5312 245.807 38.638 246.414 38.8516 246.867V247H36.9141ZM34.8281 245.633C35.2031 245.633 35.5547 245.542 35.8828 245.359C36.2161 245.177 36.4661 244.932 36.6328 244.625V243.031H35.6094C34.9062 243.031 34.3776 243.154 34.0234 243.398C33.6693 243.643 33.4922 243.99 33.4922 244.438C33.4922 244.802 33.612 245.094 33.8516 245.312C34.0964 245.526 34.4219 245.633 34.8281 245.633ZM42.5391 247H40.6406V235H42.5391V247ZM46.6328 247H44.7344V235H46.6328V247ZM50.7266 247H48.8281V238.547H50.7266V247ZM48.7109 236.352C48.7109 236.06 48.8021 235.818 48.9844 235.625C49.1719 235.432 49.4375 235.336 49.7812 235.336C50.125 235.336 50.3906 235.432 50.5781 235.625C50.7656 235.818 50.8594 236.06 50.8594 236.352C50.8594 236.638 50.7656 236.878 50.5781 237.07C50.3906 237.258 50.125 237.352 49.7812 237.352C49.4375 237.352 49.1719 237.258 48.9844 237.07C48.8021 236.878 48.7109 236.638 48.7109 236.352ZM54.5625 238.547L54.6172 239.523C55.2422 238.768 56.0625 238.391 57.0781 238.391C58.8385 238.391 59.7344 239.398 59.7656 241.414V247H57.8672V241.523C57.8672 240.987 57.75 240.591 57.5156 240.336C57.2865 240.076 56.9089 239.945 56.3828 239.945C55.6172 239.945 55.0469 240.292 54.6719 240.984V247H52.7734V238.547H54.5625ZM66.7578 247C66.6745 246.839 66.6016 246.576 66.5391 246.211C65.9349 246.841 65.1953 247.156 64.3203 247.156C63.4714 247.156 62.7786 246.914 62.2422 246.43C61.7057 245.945 61.4375 245.346 61.4375 244.633C61.4375 243.732 61.7708 243.042 62.4375 242.562C63.1094 242.078 64.0677 241.836 65.3125 241.836H66.4766V241.281C66.4766 240.844 66.3542 240.495 66.1094 240.234C65.8646 239.969 65.4922 239.836 64.9922 239.836C64.5599 239.836 64.2057 239.945 63.9297 240.164C63.6536 240.378 63.5156 240.651 63.5156 240.984H61.6172C61.6172 240.521 61.7708 240.089 62.0781 239.688C62.3854 239.281 62.8021 238.964 63.3281 238.734C63.8594 238.505 64.4505 238.391 65.1016 238.391C66.0911 238.391 66.8802 238.641 67.4688 239.141C68.0573 239.635 68.3594 240.333 68.375 241.234V245.047C68.375 245.807 68.4818 246.414 68.6953 246.867V247H66.7578ZM64.6719 245.633C65.0469 245.633 65.3984 245.542 65.7266 245.359C66.0599 245.177 66.3099 244.932 66.4766 244.625V243.031H65.4531C64.75 243.031 64.2214 243.154 63.8672 243.398C63.513 243.643 63.3359 243.99 63.3359 244.438C63.3359 244.802 63.4557 245.094 63.6953 245.312C63.9401 245.526 64.2656 245.633 64.6719 245.633ZM74.375 242.375C74.375 241.172 74.5365 240.031 74.8594 238.953C75.1823 237.87 75.6562 236.904 76.2812 236.055C76.9062 235.201 77.5677 234.602 78.2656 234.258L78.6406 235.367C77.9062 235.924 77.3099 236.776 76.8516 237.922C76.3984 239.062 76.151 240.37 76.1094 241.844L76.1016 242.516C76.1016 244.094 76.3229 245.503 76.7656 246.742C77.2135 247.977 77.8385 248.917 78.6406 249.562L78.2656 250.617C77.5677 250.273 76.9036 249.672 76.2734 248.812C75.6484 247.958 75.1745 246.995 74.8516 245.922C74.5339 244.844 74.375 243.661 74.375 242.375ZM88.3281 237.219H84.7812V247H82.8203V237.219H79.3047V235.625H88.3281V237.219ZM92.6641 247.156C91.4609 247.156 90.4844 246.779 89.7344 246.023C88.9896 245.263 88.6172 244.253 88.6172 242.992V242.758C88.6172 241.914 88.7786 241.161 89.1016 240.5C89.4297 239.833 89.888 239.315 90.4766 238.945C91.0651 238.576 91.7214 238.391 92.4453 238.391C93.5964 238.391 94.4844 238.758 95.1094 239.492C95.7396 240.227 96.0547 241.266 96.0547 242.609V243.375H90.5312C90.5885 244.073 90.8203 244.625 91.2266 245.031C91.638 245.438 92.1536 245.641 92.7734 245.641C93.6432 245.641 94.3516 245.289 94.8984 244.586L95.9219 245.562C95.5833 246.068 95.1302 246.461 94.5625 246.742C94 247.018 93.3672 247.156 92.6641 247.156ZM92.4375 239.914C91.9167 239.914 91.4948 240.096 91.1719 240.461C90.8542 240.826 90.651 241.333 90.5625 241.984H94.1797V241.844C94.138 241.208 93.9688 240.729 93.6719 240.406C93.375 240.078 92.9635 239.914 92.4375 239.914ZM101.961 240.281C101.711 240.24 101.453 240.219 101.188 240.219C100.318 240.219 99.7318 240.552 99.4297 241.219V247H97.5312V238.547H99.3438L99.3906 239.492C99.849 238.758 100.484 238.391 101.297 238.391C101.568 238.391 101.792 238.427 101.969 238.5L101.961 240.281ZM104.945 238.547L105 239.43C105.594 238.737 106.406 238.391 107.438 238.391C108.568 238.391 109.341 238.823 109.758 239.688C110.372 238.823 111.237 238.391 112.352 238.391C113.284 238.391 113.977 238.648 114.43 239.164C114.888 239.68 115.122 240.44 115.133 241.445V247H113.234V241.5C113.234 240.964 113.117 240.57 112.883 240.32C112.648 240.07 112.26 239.945 111.719 239.945C111.286 239.945 110.932 240.062 110.656 240.297C110.385 240.526 110.195 240.828 110.086 241.203L110.094 247H108.195V241.438C108.169 240.443 107.661 239.945 106.672 239.945C105.911 239.945 105.372 240.255 105.055 240.875V247H103.156V238.547H104.945ZM120.742 242.5C120.742 243.656 120.583 244.773 120.266 245.852C119.948 246.924 119.466 247.901 118.82 248.781C118.174 249.667 117.5 250.279 116.797 250.617L116.422 249.562C117.203 248.958 117.82 248.036 118.273 246.797C118.732 245.552 118.961 244.133 118.961 242.539V242.359C118.961 240.911 118.763 239.594 118.367 238.406C117.971 237.214 117.404 236.258 116.664 235.539L116.422 235.32L116.797 234.258C117.464 234.581 118.109 235.154 118.734 235.977C119.359 236.799 119.839 237.721 120.172 238.742C120.505 239.758 120.693 240.807 120.734 241.891L120.742 242.5Z" fill="#2097F6"/>
<defs>
<filter id="filter0_d" x="483" y="29" width="204" height="378" filterUnits="userSpaceOnUse" color-interpolation-filters="sRGB">
<feFlood flood-opacity="0" result="BackgroundImageFix"/>
<feColorMatrix in="SourceAlpha" type="matrix" values="0 0 0 0 0 0 0 0 0 0 0 0 0 0 0 0 0 0 127 0"/>
<feOffset dx="4" dy="4"/>
<feColorMatrix type="matrix" values="0 0 0 0 0.674908 0 0 0 0 0.662083 0 0 0 0 0.945833 0 0 0 1 0"/>
<feBlend mode="normal" in2="BackgroundImageFix" result="effect1_dropShadow"/>
<feBlend mode="normal" in="SourceGraphic" in2="effect1_dropShadow" result="shape"/>
</filter>
<filter id="filter1_d" x="503" y="49" width="164" height="67" filterUnits="userSpaceOnUse" color-interpolation-filters="sRGB">
<feFlood flood-opacity="0" result="BackgroundImageFix"/>
<feColorMatrix in="SourceAlpha" type="matrix" values="0 0 0 0 0 0 0 0 0 0 0 0 0 0 0 0 0 0 127 0"/>
<feOffset dx="4" dy="4"/>
<feColorMatrix type="matrix" values="0 0 0 0 0.674908 0 0 0 0 0.662083 0 0 0 0 0.945833 0 0 0 1 0"/>
<feBlend mode="normal" in2="BackgroundImageFix" result="effect1_dropShadow"/>
<feBlend mode="normal" in="SourceGraphic" in2="effect1_dropShadow" result="shape"/>
</filter>
<filter id="filter2_d" x="503" y="136" width="164" height="67" filterUnits="userSpaceOnUse" color-interpolation-filters="sRGB">
<feFlood flood-opacity="0" result="BackgroundImageFix"/>
<feColorMatrix in="SourceAlpha" type="matrix" values="0 0 0 0 0 0 0 0 0 0 0 0 0 0 0 0 0 0 127 0"/>
<feOffset dx="4" dy="4"/>
<feColorMatrix type="matrix" values="0 0 0 0 0.674908 0 0 0 0 0.662083 0 0 0 0 0.945833 0 0 0 1 0"/>
<feBlend mode="normal" in2="BackgroundImageFix" result="effect1_dropShadow"/>
<feBlend mode="normal" in="SourceGraphic" in2="effect1_dropShadow" result="shape"/>
</filter>
<filter id="filter3_d" x="519.314" y="219.314" width="144.373" height="144.373" filterUnits="userSpaceOnUse" color-interpolation-filters="sRGB">
<feFlood flood-opacity="0" result="BackgroundImageFix"/>
<feColorMatrix in="SourceAlpha" type="matrix" values="0 0 0 0 0 0 0 0 0 0 0 0 0 0 0 0 0 0 127 0"/>
<feOffset dx="4" dy="4"/>
<feColorMatrix type="matrix" values="0 0 0 0 0.674908 0 0 0 0 0.662083 0 0 0 0 0.945833 0 0 0 1 0"/>
<feBlend mode="normal" in2="BackgroundImageFix" result="effect1_dropShadow"/>
<feBlend mode="normal" in="SourceGraphic" in2="effect1_dropShadow" result="shape"/>
</filter>
<filter id="filter4_d" x="200" y="178" width="204" height="229" filterUnits="userSpaceOnUse" color-interpolation-filters="sRGB">
<feFlood flood-opacity="0" result="BackgroundImageFix"/>
<feColorMatrix in="SourceAlpha" type="matrix" values="0 0 0 0 0 0 0 0 0 0 0 0 0 0 0 0 0 0 127 0"/>
<feOffset dx="4" dy="4"/>
<feColorMatrix type="matrix" values="0 0 0 0 0.674908 0 0 0 0 0.662083 0 0 0 0 0.945833 0 0 0 1 0"/>
<feBlend mode="normal" in2="BackgroundImageFix" result="effect1_dropShadow"/>
<feBlend mode="normal" in="SourceGraphic" in2="effect1_dropShadow" result="shape"/>
</filter>
<filter id="filter5_d" x="220" y="200" width="164" height="67" filterUnits="userSpaceOnUse" color-interpolation-filters="sRGB">
<feFlood flood-opacity="0" result="BackgroundImageFix"/>
<feColorMatrix in="SourceAlpha" type="matrix" values="0 0 0 0 0 0 0 0 0 0 0 0 0 0 0 0 0 0 127 0"/>
<feOffset dx="4" dy="4"/>
<feColorMatrix type="matrix" values="0 0 0 0 0.674908 0 0 0 0 0.662083 0 0 0 0 0.945833 0 0 0 1 0"/>
<feBlend mode="normal" in2="BackgroundImageFix" result="effect1_dropShadow"/>
<feBlend mode="normal" in="SourceGraphic" in2="effect1_dropShadow" result="shape"/>
</filter>
<filter id="filter6_d" x="220" y="320" width="164" height="67" filterUnits="userSpaceOnUse" color-interpolation-filters="sRGB">
<feFlood flood-opacity="0" result="BackgroundImageFix"/>
<feColorMatrix in="SourceAlpha" type="matrix" values="0 0 0 0 0 0 0 0 0 0 0 0 0 0 0 0 0 0 127 0"/>
<feOffset dx="4" dy="4"/>
<feColorMatrix type="matrix" values="0 0 0 0 0.674908 0 0 0 0 0.662083 0 0 0 0 0.945833 0 0 0 1 0"/>
<feBlend mode="normal" in2="BackgroundImageFix" result="effect1_dropShadow"/>
<feBlend mode="normal" in="SourceGraphic" in2="effect1_dropShadow" result="shape"/>
</filter>
<filter id="filter7_d" x="795" y="174" width="204" height="233" filterUnits="userSpaceOnUse" color-interpolation-filters="sRGB">
<feFlood flood-opacity="0" result="BackgroundImageFix"/>
<feColorMatrix in="SourceAlpha" type="matrix" values="0 0 0 0 0 0 0 0 0 0 0 0 0 0 0 0 0 0 127 0"/>
<feOffset dx="4" dy="4"/>
<feColorMatrix type="matrix" values="0 0 0 0 0.674908 0 0 0 0 0.662083 0 0 0 0 0.945833 0 0 0 1 0"/>
<feBlend mode="normal" in2="BackgroundImageFix" result="effect1_dropShadow"/>
<feBlend mode="normal" in="SourceGraphic" in2="effect1_dropShadow" result="shape"/>
</filter>
<filter id="filter8_d" x="815" y="196" width="164" height="67" filterUnits="userSpaceOnUse" color-interpolation-filters="sRGB">
<feFlood flood-opacity="0" result="BackgroundImageFix"/>
<feColorMatrix in="SourceAlpha" type="matrix" values="0 0 0 0 0 0 0 0 0 0 0 0 0 0 0 0 0 0 127 0"/>
<feOffset dx="4" dy="4"/>
<feColorMatrix type="matrix" values="0 0 0 0 0.674908 0 0 0 0 0.662083 0 0 0 0 0.945833 0 0 0 1 0"/>
<feBlend mode="normal" in2="BackgroundImageFix" result="effect1_dropShadow"/>
<feBlend mode="normal" in="SourceGraphic" in2="effect1_dropShadow" result="shape"/>
</filter>
<filter id="filter9_d" x="815" y="316" width="164" height="67" filterUnits="userSpaceOnUse" color-interpolation-filters="sRGB">
<feFlood flood-opacity="0" result="BackgroundImageFix"/>
<feColorMatrix in="SourceAlpha" type="matrix" values="0 0 0 0 0 0 0 0 0 0 0 0 0 0 0 0 0 0 127 0"/>
<feOffset dx="4" dy="4"/>
<feColorMatrix type="matrix" values="0 0 0 0 0.674908 0 0 0 0 0.662083 0 0 0 0 0.945833 0 0 0 1 0"/>
<feBlend mode="normal" in2="BackgroundImageFix" result="effect1_dropShadow"/>
<feBlend mode="normal" in="SourceGraphic" in2="effect1_dropShadow" result="shape"/>
</filter>
<filter id="filter10_d" x="0" y="320" width="181" height="67" filterUnits="userSpaceOnUse" color-interpolation-filters="sRGB">
<feFlood flood-opacity="0" result="BackgroundImageFix"/>
<feColorMatrix in="SourceAlpha" type="matrix" values="0 0 0 0 0 0 0 0 0 0 0 0 0 0 0 0 0 0 127 0"/>
<feOffset dx="4" dy="4"/>
<feColorMatrix type="matrix" values="0 0 0 0 0.513733 0 0 0 0 0.767915 0 0 0 0 0.970833 0 0 0 1 0"/>
<feBlend mode="normal" in2="BackgroundImageFix" result="effect1_dropShadow"/>
<feBlend mode="normal" in="SourceGraphic" in2="effect1_dropShadow" result="shape"/>
</filter>
<filter id="filter11_d" x="176" y="341" width="18.3291" height="26" filterUnits="userSpaceOnUse" color-interpolation-filters="sRGB">
<feFlood flood-opacity="0" result="BackgroundImageFix"/>
<feColorMatrix in="SourceAlpha" type="matrix" values="0 0 0 0 0 0 0 0 0 0 0 0 0 0 0 0 0 0 127 0"/>
<feOffset dx="4" dy="4"/>
<feColorMatrix type="matrix" values="0 0 0 0 0.513733 0 0 0 0 0.767915 0 0 0 0 0.970833 0 0 0 1 0"/>
<feBlend mode="normal" in2="BackgroundImageFix" result="effect1_dropShadow"/>
<feBlend mode="normal" in="SourceGraphic" in2="effect1_dropShadow" result="shape"/>
</filter>
<filter id="filter12_d" x="0" y="200" width="181" height="67" filterUnits="userSpaceOnUse" color-interpolation-filters="sRGB">
<feFlood flood-opacity="0" result="BackgroundImageFix"/>
<feColorMatrix in="SourceAlpha" type="matrix" values="0 0 0 0 0 0 0 0 0 0 0 0 0 0 0 0 0 0 127 0"/>
<feOffset dx="4" dy="4"/>
<feColorMatrix type="matrix" values="0 0 0 0 0.513733 0 0 0 0 0.767915 0 0 0 0 0.970833 0 0 0 1 0"/>
<feBlend mode="normal" in2="BackgroundImageFix" result="effect1_dropShadow"/>
<feBlend mode="normal" in="SourceGraphic" in2="effect1_dropShadow" result="shape"/>
</filter>
<filter id="filter13_d" x="176" y="221" width="18.3291" height="26" filterUnits="userSpaceOnUse" color-interpolation-filters="sRGB">
<feFlood flood-opacity="0" result="BackgroundImageFix"/>
<feColorMatrix in="SourceAlpha" type="matrix" values="0 0 0 0 0 0 0 0 0 0 0 0 0 0 0 0 0 0 127 0"/>
<feOffset dx="4" dy="4"/>
<feColorMatrix type="matrix" values="0 0 0 0 0.513733 0 0 0 0 0.767915 0 0 0 0 0.970833 0 0 0 1 0"/>
<feBlend mode="normal" in2="BackgroundImageFix" result="effect1_dropShadow"/>
<feBlend mode="normal" in="SourceGraphic" in2="effect1_dropShadow" result="shape"/>
</filter>
</defs>
</svg>
