<svg width="1359" height="406" viewBox="0 0 1359 406" fill="none" xmlns="http://www.w3.org/2000/svg">
<g filter="url(#filter0_d)">
<rect y="37" width="603" height="365" rx="8" fill="white"/>
<g clip-path="url(#clip0)">
<path d="M188.921 61.438C189.105 61.6417 189.329 61.8046 189.579 61.9161C189.83 62.0276 190.101 62.0852 190.375 62.0852C190.649 62.0852 190.92 62.0276 191.171 61.9161C191.421 61.8046 191.645 61.6417 191.829 61.438L192.775 60.4C193.046 60.1 193.403 59.8912 193.798 59.8023C194.192 59.7134 194.605 59.7488 194.978 59.9036C195.352 60.0584 195.669 60.3251 195.885 60.6669C196.101 61.0088 196.206 61.4092 196.185 61.813L196.114 63.213C196.1 63.4861 196.144 63.7591 196.242 64.0143C196.34 64.2695 196.491 64.5014 196.684 64.6949C196.877 64.8884 197.109 65.0393 197.364 65.1378C197.619 65.2363 197.892 65.2804 198.165 65.267L199.565 65.196C199.969 65.1761 200.369 65.2815 200.71 65.4978C201.051 65.7141 201.317 66.0307 201.472 66.4041C201.626 66.7775 201.661 67.1896 201.572 67.5838C201.483 67.978 201.275 68.3351 200.975 68.606L199.933 69.546C199.73 69.7298 199.567 69.9542 199.456 70.2047C199.344 70.4553 199.287 70.7264 199.287 71.0005C199.287 71.2747 199.344 71.5458 199.456 71.7963C199.567 72.0469 199.73 72.2713 199.933 72.455L200.975 73.395C201.275 73.6662 201.484 74.0235 201.573 74.418C201.662 74.8125 201.626 75.2249 201.471 75.5985C201.317 75.9721 201.05 76.2886 200.708 76.5046C200.366 76.7207 199.966 76.8256 199.562 76.805L198.162 76.734C197.888 76.72 197.615 76.7635 197.359 76.8618C197.103 76.9602 196.871 77.1111 196.677 77.3049C196.483 77.4987 196.332 77.7311 196.234 77.9869C196.135 78.2427 196.092 78.5163 196.106 78.79L196.177 80.19C196.195 80.5919 196.089 80.9895 195.873 81.3289C195.657 81.6683 195.342 81.9329 194.97 82.0869C194.598 82.241 194.188 82.2768 193.796 82.1897C193.403 82.1026 193.047 81.8967 192.775 81.6L191.834 80.559C191.65 80.3556 191.426 80.193 191.176 80.0817C190.925 79.9704 190.654 79.9129 190.38 79.9129C190.106 79.9129 189.835 79.9704 189.584 80.0817C189.334 80.193 189.11 80.3556 188.926 80.559L187.981 81.6C187.71 81.8981 187.353 82.1053 186.96 82.1934C186.567 82.2814 186.156 82.2461 185.784 82.0921C185.411 81.9382 185.095 81.6731 184.879 81.3331C184.663 80.9931 184.557 80.5946 184.575 80.192L184.647 78.792C184.661 78.5183 184.618 78.2447 184.519 77.9889C184.421 77.7331 184.27 77.5007 184.076 77.3069C183.882 77.1131 183.65 76.9622 183.394 76.8638C183.138 76.7655 182.865 76.722 182.591 76.736L181.191 76.807C180.787 76.8281 180.387 76.7237 180.045 76.5081C179.703 76.2926 179.436 75.9765 179.281 75.6032C179.126 75.2298 179.09 74.8177 179.178 74.4232C179.267 74.0287 179.475 73.6713 179.775 73.4L180.816 72.46C181.019 72.2763 181.182 72.0519 181.293 71.8013C181.405 71.5508 181.462 71.2797 181.462 71.0055C181.462 70.7314 181.405 70.4603 181.293 70.2097C181.182 69.9592 181.019 69.7348 180.816 69.551L179.775 68.606C179.476 68.335 179.268 67.9784 179.18 67.5848C179.092 67.1913 179.127 66.78 179.281 66.4073C179.435 66.0346 179.701 65.7186 180.042 65.5025C180.382 65.2864 180.781 65.1808 181.184 65.2L182.584 65.271C182.858 65.2855 183.132 65.242 183.389 65.1436C183.645 65.0451 183.878 64.8938 184.072 64.6996C184.266 64.5053 184.417 64.2724 184.515 64.0159C184.614 63.7595 184.657 63.4852 184.642 63.211L184.575 61.81C184.556 61.4073 184.662 61.0085 184.878 60.6682C185.094 60.3278 185.41 60.0624 185.783 59.9082C186.155 59.754 186.566 59.7185 186.96 59.8065C187.353 59.8945 187.71 60.1018 187.981 60.4L188.921 61.438Z" stroke="#5452F6" stroke-width="1.5" stroke-linecap="round" stroke-linejoin="round"/>
<path d="M190.375 75.501C192.86 75.501 194.875 73.4863 194.875 71.001C194.875 68.5157 192.86 66.501 190.375 66.501C187.89 66.501 185.875 68.5157 185.875 71.001C185.875 73.4863 187.89 75.501 190.375 75.501Z" stroke="#5452F6" stroke-width="1.5" stroke-linecap="round" stroke-linejoin="round"/>
</g>
<path d="M222.414 72.2422H217.484V76.2734H223.211V77.5H215.984V66.125H223.133V67.3594H217.484V71.0156H222.414V72.2422ZM227.688 72.1328L229.562 69.0469H231.25L228.484 73.2266L231.336 77.5H229.664L227.711 74.3359L225.758 77.5H224.078L226.93 73.2266L224.164 69.0469H225.836L227.688 72.1328ZM236.141 77.6562C234.995 77.6562 234.062 77.2812 233.344 76.5312C232.625 75.776 232.266 74.7682 232.266 73.5078V73.2422C232.266 72.4036 232.424 71.6562 232.742 71C233.065 70.3385 233.513 69.8229 234.086 69.4531C234.664 69.0781 235.289 68.8906 235.961 68.8906C237.06 68.8906 237.914 69.2526 238.523 69.9766C239.133 70.7005 239.438 71.737 239.438 73.0859V73.6875H233.711C233.732 74.5208 233.974 75.1953 234.438 75.7109C234.906 76.2214 235.5 76.4766 236.219 76.4766C236.729 76.4766 237.161 76.3724 237.516 76.1641C237.87 75.9557 238.18 75.6797 238.445 75.3359L239.328 76.0234C238.62 77.112 237.557 77.6562 236.141 77.6562ZM235.961 70.0781C235.378 70.0781 234.888 70.2917 234.492 70.7188C234.096 71.1406 233.852 71.7344 233.758 72.5H237.992V72.3906C237.951 71.6562 237.753 71.0885 237.398 70.6875C237.044 70.2812 236.565 70.0781 235.961 70.0781ZM244.508 76.4766C245.023 76.4766 245.474 76.3203 245.859 76.0078C246.245 75.6953 246.458 75.3047 246.5 74.8359H247.867C247.841 75.3203 247.674 75.7812 247.367 76.2188C247.06 76.6562 246.648 77.0052 246.133 77.2656C245.622 77.526 245.081 77.6562 244.508 77.6562C243.357 77.6562 242.44 77.2734 241.758 76.5078C241.081 75.737 240.742 74.6849 240.742 73.3516V73.1094C240.742 72.2865 240.893 71.5547 241.195 70.9141C241.497 70.2734 241.93 69.776 242.492 69.4219C243.06 69.0677 243.729 68.8906 244.5 68.8906C245.448 68.8906 246.234 69.1745 246.859 69.7422C247.49 70.3099 247.826 71.0469 247.867 71.9531H246.5C246.458 71.4062 246.25 70.9583 245.875 70.6094C245.505 70.2552 245.047 70.0781 244.5 70.0781C243.766 70.0781 243.195 70.3438 242.789 70.875C242.388 71.401 242.188 72.1641 242.188 73.1641V73.4375C242.188 74.4115 242.388 75.1615 242.789 75.6875C243.19 76.2135 243.763 76.4766 244.508 76.4766ZM254.711 76.6641C254.148 77.3255 253.323 77.6562 252.234 77.6562C251.333 77.6562 250.646 77.3958 250.172 76.875C249.703 76.349 249.466 75.5729 249.461 74.5469V69.0469H250.906V74.5078C250.906 75.7891 251.427 76.4297 252.469 76.4297C253.573 76.4297 254.307 76.0182 254.672 75.1953V69.0469H256.117V77.5H254.742L254.711 76.6641ZM260.281 67V69.0469H261.859V70.1641H260.281V75.4062C260.281 75.7448 260.352 76 260.492 76.1719C260.633 76.3385 260.872 76.4219 261.211 76.4219C261.378 76.4219 261.607 76.3906 261.898 76.3281V77.5C261.518 77.6042 261.148 77.6562 260.789 77.6562C260.143 77.6562 259.656 77.4609 259.328 77.0703C259 76.6797 258.836 76.125 258.836 75.4062V70.1641H257.297V69.0469H258.836V67H260.281ZM265.125 77.5H263.68V69.0469H265.125V77.5ZM263.562 66.8047C263.562 66.5703 263.633 66.3724 263.773 66.2109C263.919 66.0495 264.133 65.9688 264.414 65.9688C264.695 65.9688 264.909 66.0495 265.055 66.2109C265.201 66.3724 265.273 66.5703 265.273 66.8047C265.273 67.0391 265.201 67.2344 265.055 67.3906C264.909 67.5469 264.695 67.625 264.414 67.625C264.133 67.625 263.919 67.5469 263.773 67.3906C263.633 67.2344 263.562 67.0391 263.562 66.8047ZM267.062 73.1953C267.062 72.3672 267.224 71.6224 267.547 70.9609C267.875 70.2995 268.328 69.7891 268.906 69.4297C269.49 69.0703 270.154 68.8906 270.898 68.8906C272.049 68.8906 272.979 69.2891 273.688 70.0859C274.401 70.8828 274.758 71.9427 274.758 73.2656V73.3672C274.758 74.1901 274.599 74.9297 274.281 75.5859C273.969 76.237 273.518 76.7448 272.93 77.1094C272.346 77.474 271.674 77.6562 270.914 77.6562C269.768 77.6562 268.839 77.2578 268.125 76.4609C267.417 75.6641 267.062 74.6094 267.062 73.2969V73.1953ZM268.516 73.3672C268.516 74.3047 268.732 75.0573 269.164 75.625C269.602 76.1927 270.185 76.4766 270.914 76.4766C271.648 76.4766 272.232 76.1901 272.664 75.6172C273.096 75.0391 273.312 74.2318 273.312 73.1953C273.312 72.2682 273.091 71.5182 272.648 70.9453C272.211 70.3672 271.628 70.0781 270.898 70.0781C270.185 70.0781 269.609 70.362 269.172 70.9297C268.734 71.4974 268.516 72.3099 268.516 73.3672ZM277.938 69.0469L277.984 70.1094C278.63 69.2969 279.474 68.8906 280.516 68.8906C282.302 68.8906 283.203 69.8984 283.219 71.9141V77.5H281.773V71.9062C281.768 71.2969 281.628 70.8464 281.352 70.5547C281.081 70.263 280.656 70.1172 280.078 70.1172C279.609 70.1172 279.198 70.2422 278.844 70.4922C278.49 70.7422 278.214 71.0703 278.016 71.4766V77.5H276.57V69.0469H277.938ZM288.984 73.1953C288.984 72.3672 289.146 71.6224 289.469 70.9609C289.797 70.2995 290.25 69.7891 290.828 69.4297C291.411 69.0703 292.076 68.8906 292.82 68.8906C293.971 68.8906 294.901 69.2891 295.609 70.0859C296.323 70.8828 296.68 71.9427 296.68 73.2656V73.3672C296.68 74.1901 296.521 74.9297 296.203 75.5859C295.891 76.237 295.44 76.7448 294.852 77.1094C294.268 77.474 293.596 77.6562 292.836 77.6562C291.69 77.6562 290.76 77.2578 290.047 76.4609C289.339 75.6641 288.984 74.6094 288.984 73.2969V73.1953ZM290.438 73.3672C290.438 74.3047 290.654 75.0573 291.086 75.625C291.523 76.1927 292.107 76.4766 292.836 76.4766C293.57 76.4766 294.154 76.1901 294.586 75.6172C295.018 75.0391 295.234 74.2318 295.234 73.1953C295.234 72.2682 295.013 71.5182 294.57 70.9453C294.133 70.3672 293.549 70.0781 292.82 70.0781C292.107 70.0781 291.531 70.362 291.094 70.9297C290.656 71.4974 290.438 72.3099 290.438 73.3672ZM299.203 77.5V70.1641H297.867V69.0469H299.203V68.1797C299.203 67.2734 299.445 66.5729 299.93 66.0781C300.414 65.5833 301.099 65.3359 301.984 65.3359C302.318 65.3359 302.648 65.3802 302.977 65.4688L302.898 66.6406C302.654 66.5938 302.393 66.5703 302.117 66.5703C301.648 66.5703 301.286 66.7083 301.031 66.9844C300.776 67.2552 300.648 67.6458 300.648 68.1562V69.0469H302.453V70.1641H300.648V77.5H299.203ZM313.242 77.5C313.159 77.3333 313.091 77.0365 313.039 76.6094C312.367 77.3073 311.565 77.6562 310.633 77.6562C309.799 77.6562 309.115 77.4219 308.578 76.9531C308.047 76.4792 307.781 75.8802 307.781 75.1562C307.781 74.276 308.115 73.5938 308.781 73.1094C309.453 72.6198 310.396 72.375 311.609 72.375H313.016V71.7109C313.016 71.2057 312.865 70.8047 312.562 70.5078C312.26 70.2057 311.815 70.0547 311.227 70.0547C310.711 70.0547 310.279 70.1849 309.93 70.4453C309.581 70.7057 309.406 71.0208 309.406 71.3906H307.953C307.953 70.9688 308.102 70.5625 308.398 70.1719C308.701 69.776 309.107 69.4635 309.617 69.2344C310.133 69.0052 310.698 68.8906 311.312 68.8906C312.286 68.8906 313.049 69.1354 313.602 69.625C314.154 70.1094 314.44 70.7786 314.461 71.6328V75.5234C314.461 76.2995 314.56 76.9167 314.758 77.375V77.5H313.242ZM310.844 76.3984C311.297 76.3984 311.727 76.2812 312.133 76.0469C312.539 75.8125 312.833 75.5078 313.016 75.1328V73.3984H311.883C310.112 73.3984 309.227 73.9167 309.227 74.9531C309.227 75.4062 309.378 75.7604 309.68 76.0156C309.982 76.2708 310.37 76.3984 310.844 76.3984ZM325.617 75.2578C325.617 74.8672 325.469 74.5651 325.172 74.3516C324.88 74.1328 324.367 73.9453 323.633 73.7891C322.904 73.6328 322.323 73.4453 321.891 73.2266C321.464 73.0078 321.146 72.7474 320.938 72.4453C320.734 72.1432 320.633 71.7839 320.633 71.3672C320.633 70.6745 320.924 70.0885 321.508 69.6094C322.096 69.1302 322.846 68.8906 323.758 68.8906C324.716 68.8906 325.492 69.138 326.086 69.6328C326.685 70.1276 326.984 70.7604 326.984 71.5312H325.531C325.531 71.1354 325.362 70.7943 325.023 70.5078C324.69 70.2214 324.268 70.0781 323.758 70.0781C323.232 70.0781 322.82 70.1927 322.523 70.4219C322.227 70.651 322.078 70.9505 322.078 71.3203C322.078 71.6693 322.216 71.9323 322.492 72.1094C322.768 72.2865 323.266 72.4557 323.984 72.6172C324.708 72.7786 325.294 72.9714 325.742 73.1953C326.19 73.4193 326.521 73.6901 326.734 74.0078C326.953 74.3203 327.062 74.7031 327.062 75.1562C327.062 75.9115 326.76 76.5182 326.156 76.9766C325.552 77.4297 324.768 77.6562 323.805 77.6562C323.128 77.6562 322.529 77.5365 322.008 77.2969C321.487 77.0573 321.078 76.724 320.781 76.2969C320.49 75.8646 320.344 75.3984 320.344 74.8984H321.789C321.815 75.3828 322.008 75.7682 322.367 76.0547C322.732 76.3359 323.211 76.4766 323.805 76.4766C324.352 76.4766 324.789 76.3672 325.117 76.1484C325.451 75.9245 325.617 75.6276 325.617 75.2578ZM330.305 69.0469L330.344 69.9844C330.964 69.2552 331.799 68.8906 332.852 68.8906C334.034 68.8906 334.839 69.3438 335.266 70.25C335.547 69.8438 335.911 69.5156 336.359 69.2656C336.812 69.0156 337.346 68.8906 337.961 68.8906C339.815 68.8906 340.758 69.8724 340.789 71.8359V77.5H339.344V71.9219C339.344 71.3177 339.206 70.8672 338.93 70.5703C338.654 70.2682 338.19 70.1172 337.539 70.1172C337.003 70.1172 336.557 70.2786 336.203 70.6016C335.849 70.9193 335.643 71.349 335.586 71.8906V77.5H334.133V71.9609C334.133 70.7318 333.531 70.1172 332.328 70.1172C331.38 70.1172 330.732 70.5208 330.383 71.3281V77.5H328.938V69.0469H330.305ZM348.195 77.5C348.112 77.3333 348.044 77.0365 347.992 76.6094C347.32 77.3073 346.518 77.6562 345.586 77.6562C344.753 77.6562 344.068 77.4219 343.531 76.9531C343 76.4792 342.734 75.8802 342.734 75.1562C342.734 74.276 343.068 73.5938 343.734 73.1094C344.406 72.6198 345.349 72.375 346.562 72.375H347.969V71.7109C347.969 71.2057 347.818 70.8047 347.516 70.5078C347.214 70.2057 346.768 70.0547 346.18 70.0547C345.664 70.0547 345.232 70.1849 344.883 70.4453C344.534 70.7057 344.359 71.0208 344.359 71.3906H342.906C342.906 70.9688 343.055 70.5625 343.352 70.1719C343.654 69.776 344.06 69.4635 344.57 69.2344C345.086 69.0052 345.651 68.8906 346.266 68.8906C347.24 68.8906 348.003 69.1354 348.555 69.625C349.107 70.1094 349.393 70.7786 349.414 71.6328V75.5234C349.414 76.2995 349.513 76.9167 349.711 77.375V77.5H348.195ZM345.797 76.3984C346.25 76.3984 346.68 76.2812 347.086 76.0469C347.492 75.8125 347.786 75.5078 347.969 75.1328V73.3984H346.836C345.065 73.3984 344.18 73.9167 344.18 74.9531C344.18 75.4062 344.331 75.7604 344.633 76.0156C344.935 76.2708 345.323 76.3984 345.797 76.3984ZM355.766 70.3438C355.547 70.3073 355.31 70.2891 355.055 70.2891C354.107 70.2891 353.464 70.6927 353.125 71.5V77.5H351.68V69.0469H353.086L353.109 70.0234C353.583 69.2682 354.255 68.8906 355.125 68.8906C355.406 68.8906 355.62 68.9271 355.766 69V70.3438ZM359.453 67V69.0469H361.031V70.1641H359.453V75.4062C359.453 75.7448 359.523 76 359.664 76.1719C359.805 76.3385 360.044 76.4219 360.383 76.4219C360.549 76.4219 360.779 76.3906 361.07 76.3281V77.5C360.69 77.6042 360.32 77.6562 359.961 77.6562C359.315 77.6562 358.828 77.4609 358.5 77.0703C358.172 76.6797 358.008 76.125 358.008 75.4062V70.1641H356.469V69.0469H358.008V67H359.453ZM370.086 76.4766C370.602 76.4766 371.052 76.3203 371.438 76.0078C371.823 75.6953 372.036 75.3047 372.078 74.8359H373.445C373.419 75.3203 373.253 75.7812 372.945 76.2188C372.638 76.6562 372.227 77.0052 371.711 77.2656C371.201 77.526 370.659 77.6562 370.086 77.6562C368.935 77.6562 368.018 77.2734 367.336 76.5078C366.659 75.737 366.32 74.6849 366.32 73.3516V73.1094C366.32 72.2865 366.471 71.5547 366.773 70.9141C367.076 70.2734 367.508 69.776 368.07 69.4219C368.638 69.0677 369.307 68.8906 370.078 68.8906C371.026 68.8906 371.812 69.1745 372.438 69.7422C373.068 70.3099 373.404 71.0469 373.445 71.9531H372.078C372.036 71.4062 371.828 70.9583 371.453 70.6094C371.083 70.2552 370.625 70.0781 370.078 70.0781C369.344 70.0781 368.773 70.3438 368.367 70.875C367.966 71.401 367.766 72.1641 367.766 73.1641V73.4375C367.766 74.4115 367.966 75.1615 368.367 75.6875C368.768 76.2135 369.341 76.4766 370.086 76.4766ZM374.688 73.1953C374.688 72.3672 374.849 71.6224 375.172 70.9609C375.5 70.2995 375.953 69.7891 376.531 69.4297C377.115 69.0703 377.779 68.8906 378.523 68.8906C379.674 68.8906 380.604 69.2891 381.312 70.0859C382.026 70.8828 382.383 71.9427 382.383 73.2656V73.3672C382.383 74.1901 382.224 74.9297 381.906 75.5859C381.594 76.237 381.143 76.7448 380.555 77.1094C379.971 77.474 379.299 77.6562 378.539 77.6562C377.393 77.6562 376.464 77.2578 375.75 76.4609C375.042 75.6641 374.688 74.6094 374.688 73.2969V73.1953ZM376.141 73.3672C376.141 74.3047 376.357 75.0573 376.789 75.625C377.227 76.1927 377.81 76.4766 378.539 76.4766C379.273 76.4766 379.857 76.1901 380.289 75.6172C380.721 75.0391 380.938 74.2318 380.938 73.1953C380.938 72.2682 380.716 71.5182 380.273 70.9453C379.836 70.3672 379.253 70.0781 378.523 70.0781C377.81 70.0781 377.234 70.362 376.797 70.9297C376.359 71.4974 376.141 72.3099 376.141 73.3672ZM385.562 69.0469L385.609 70.1094C386.255 69.2969 387.099 68.8906 388.141 68.8906C389.927 68.8906 390.828 69.8984 390.844 71.9141V77.5H389.398V71.9062C389.393 71.2969 389.253 70.8464 388.977 70.5547C388.706 70.263 388.281 70.1172 387.703 70.1172C387.234 70.1172 386.823 70.2422 386.469 70.4922C386.115 70.7422 385.839 71.0703 385.641 71.4766V77.5H384.195V69.0469H385.562ZM394.984 67V69.0469H396.562V70.1641H394.984V75.4062C394.984 75.7448 395.055 76 395.195 76.1719C395.336 76.3385 395.576 76.4219 395.914 76.4219C396.081 76.4219 396.31 76.3906 396.602 76.3281V77.5C396.221 77.6042 395.852 77.6562 395.492 77.6562C394.846 77.6562 394.359 77.4609 394.031 77.0703C393.703 76.6797 393.539 76.125 393.539 75.4062V70.1641H392V69.0469H393.539V67H394.984ZM402.344 70.3438C402.125 70.3073 401.888 70.2891 401.633 70.2891C400.685 70.2891 400.042 70.6927 399.703 71.5V77.5H398.258V69.0469H399.664L399.688 70.0234C400.161 69.2682 400.833 68.8906 401.703 68.8906C401.984 68.8906 402.198 68.9271 402.344 69V70.3438ZM408.586 77.5C408.503 77.3333 408.435 77.0365 408.383 76.6094C407.711 77.3073 406.909 77.6562 405.977 77.6562C405.143 77.6562 404.458 77.4219 403.922 76.9531C403.391 76.4792 403.125 75.8802 403.125 75.1562C403.125 74.276 403.458 73.5938 404.125 73.1094C404.797 72.6198 405.74 72.375 406.953 72.375H408.359V71.7109C408.359 71.2057 408.208 70.8047 407.906 70.5078C407.604 70.2057 407.159 70.0547 406.57 70.0547C406.055 70.0547 405.622 70.1849 405.273 70.4453C404.924 70.7057 404.75 71.0208 404.75 71.3906H403.297C403.297 70.9688 403.445 70.5625 403.742 70.1719C404.044 69.776 404.451 69.4635 404.961 69.2344C405.477 69.0052 406.042 68.8906 406.656 68.8906C407.63 68.8906 408.393 69.1354 408.945 69.625C409.497 70.1094 409.784 70.7786 409.805 71.6328V75.5234C409.805 76.2995 409.904 76.9167 410.102 77.375V77.5H408.586ZM406.188 76.3984C406.641 76.3984 407.07 76.2812 407.477 76.0469C407.883 75.8125 408.177 75.5078 408.359 75.1328V73.3984H407.227C405.456 73.3984 404.57 73.9167 404.57 74.9531C404.57 75.4062 404.721 75.7604 405.023 76.0156C405.326 76.2708 405.714 76.3984 406.188 76.3984ZM415.461 76.4766C415.977 76.4766 416.427 76.3203 416.812 76.0078C417.198 75.6953 417.411 75.3047 417.453 74.8359H418.82C418.794 75.3203 418.628 75.7812 418.32 76.2188C418.013 76.6562 417.602 77.0052 417.086 77.2656C416.576 77.526 416.034 77.6562 415.461 77.6562C414.31 77.6562 413.393 77.2734 412.711 76.5078C412.034 75.737 411.695 74.6849 411.695 73.3516V73.1094C411.695 72.2865 411.846 71.5547 412.148 70.9141C412.451 70.2734 412.883 69.776 413.445 69.4219C414.013 69.0677 414.682 68.8906 415.453 68.8906C416.401 68.8906 417.188 69.1745 417.812 69.7422C418.443 70.3099 418.779 71.0469 418.82 71.9531H417.453C417.411 71.4062 417.203 70.9583 416.828 70.6094C416.458 70.2552 416 70.0781 415.453 70.0781C414.719 70.0781 414.148 70.3438 413.742 70.875C413.341 71.401 413.141 72.1641 413.141 73.1641V73.4375C413.141 74.4115 413.341 75.1615 413.742 75.6875C414.143 76.2135 414.716 76.4766 415.461 76.4766ZM422.406 67V69.0469H423.984V70.1641H422.406V75.4062C422.406 75.7448 422.477 76 422.617 76.1719C422.758 76.3385 422.997 76.4219 423.336 76.4219C423.503 76.4219 423.732 76.3906 424.023 76.3281V77.5C423.643 77.6042 423.273 77.6562 422.914 77.6562C422.268 77.6562 421.781 77.4609 421.453 77.0703C421.125 76.6797 420.961 76.125 420.961 75.4062V70.1641H419.422V69.0469H420.961V67H422.406Z" fill="#5452F6"/>
<g filter="url(#filter1_d)">
<g filter="url(#filter2_d)">
<rect x="52.5" y="137" width="197" height="97" rx="8" fill="#E7F4FF"/>
<path d="M162.338 174.061L154.203 182.2L150.203 183L151.003 179L159.143 170.861C159.352 170.652 159.601 170.485 159.874 170.372C160.148 170.258 160.442 170.2 160.738 170.2C161.034 170.2 161.328 170.258 161.601 170.372C161.875 170.485 162.124 170.652 162.333 170.861L162.343 170.87C162.765 171.294 163.002 171.868 163.001 172.466C163.001 173.065 162.762 173.639 162.338 174.061Z" stroke="#2097F6" stroke-width="1.5" stroke-linecap="round" stroke-linejoin="round"/>
<path d="M146.999 179.8H140.599C140.174 179.8 139.767 179.631 139.467 179.331C139.167 179.031 138.999 178.624 138.999 178.2V160.6C138.999 160.176 139.167 159.769 139.467 159.469C139.767 159.169 140.174 159 140.599 159H156.599C157.023 159 157.43 159.169 157.73 159.469C158.03 159.769 158.199 160.176 158.199 160.6V167.8" stroke="#2097F6" stroke-width="1.5" stroke-linecap="round" stroke-linejoin="round"/>
<path d="M146.999 163.8H153.399" stroke="#2097F6" stroke-width="1.5" stroke-linecap="round" stroke-linejoin="round"/>
<path d="M143.799 168.6H153.399" stroke="#2097F6" stroke-width="1.5" stroke-linecap="round" stroke-linejoin="round"/>
<path d="M143.799 173.4H151.799" stroke="#2097F6" stroke-width="1.5" stroke-linecap="round" stroke-linejoin="round"/>
<path d="M121.82 203.07H117.32V206.117H122.602V208H114.977V196.625H122.586V198.523H117.32V201.234H121.82V203.07ZM125.906 199.547L125.977 200.523C126.581 199.768 127.391 199.391 128.406 199.391C129.302 199.391 129.969 199.654 130.406 200.18C130.844 200.706 131.068 201.492 131.078 202.539V208H128.82V202.594C128.82 202.115 128.716 201.768 128.508 201.555C128.299 201.336 127.953 201.227 127.469 201.227C126.833 201.227 126.357 201.497 126.039 202.039V208H123.781V199.547H125.906ZM135.5 197.469V199.547H136.945V201.203H135.5V205.422C135.5 205.734 135.56 205.958 135.68 206.094C135.799 206.229 136.029 206.297 136.367 206.297C136.617 206.297 136.839 206.279 137.031 206.242V207.953C136.589 208.089 136.133 208.156 135.664 208.156C134.081 208.156 133.273 207.357 133.242 205.758V201.203H132.008V199.547H133.242V197.469H135.5ZM142.953 201.664C142.646 201.622 142.375 201.602 142.141 201.602C141.286 201.602 140.727 201.891 140.461 202.469V208H138.203V199.547H140.336L140.398 200.555C140.852 199.779 141.479 199.391 142.281 199.391C142.531 199.391 142.766 199.424 142.984 199.492L142.953 201.664ZM147.344 204.805L148.906 199.547H151.328L147.93 209.312L147.742 209.758C147.237 210.862 146.404 211.414 145.242 211.414C144.914 211.414 144.581 211.365 144.242 211.266V209.555L144.586 209.562C145.013 209.562 145.331 209.497 145.539 209.367C145.753 209.237 145.919 209.021 146.039 208.719L146.305 208.023L143.344 199.547H145.773L147.344 204.805ZM159.828 203.852C159.828 205.154 159.531 206.198 158.938 206.984C158.349 207.766 157.552 208.156 156.547 208.156C155.693 208.156 155.003 207.859 154.477 207.266V211.25H152.219V199.547H154.312L154.391 200.375C154.938 199.719 155.651 199.391 156.531 199.391C157.573 199.391 158.383 199.776 158.961 200.547C159.539 201.318 159.828 202.38 159.828 203.734V203.852ZM157.57 203.688C157.57 202.901 157.43 202.294 157.148 201.867C156.872 201.44 156.469 201.227 155.938 201.227C155.229 201.227 154.742 201.497 154.477 202.039V205.5C154.753 206.057 155.245 206.336 155.953 206.336C157.031 206.336 157.57 205.453 157.57 203.688ZM160.883 203.695C160.883 202.857 161.044 202.109 161.367 201.453C161.69 200.797 162.154 200.289 162.758 199.93C163.367 199.57 164.073 199.391 164.875 199.391C166.016 199.391 166.945 199.74 167.664 200.438C168.388 201.135 168.792 202.083 168.875 203.281L168.891 203.859C168.891 205.156 168.529 206.198 167.805 206.984C167.081 207.766 166.109 208.156 164.891 208.156C163.672 208.156 162.698 207.766 161.969 206.984C161.245 206.203 160.883 205.141 160.883 203.797V203.695ZM163.141 203.859C163.141 204.661 163.292 205.276 163.594 205.703C163.896 206.125 164.328 206.336 164.891 206.336C165.438 206.336 165.865 206.128 166.172 205.711C166.479 205.289 166.633 204.617 166.633 203.695C166.633 202.909 166.479 202.299 166.172 201.867C165.865 201.435 165.432 201.219 164.875 201.219C164.323 201.219 163.896 201.435 163.594 201.867C163.292 202.294 163.141 202.958 163.141 203.859ZM172.664 208H170.398V199.547H172.664V208ZM170.266 197.359C170.266 197.021 170.378 196.742 170.602 196.523C170.831 196.305 171.141 196.195 171.531 196.195C171.917 196.195 172.224 196.305 172.453 196.523C172.682 196.742 172.797 197.021 172.797 197.359C172.797 197.703 172.68 197.984 172.445 198.203C172.216 198.422 171.911 198.531 171.531 198.531C171.151 198.531 170.844 198.422 170.609 198.203C170.38 197.984 170.266 197.703 170.266 197.359ZM176.609 199.547L176.68 200.523C177.284 199.768 178.094 199.391 179.109 199.391C180.005 199.391 180.672 199.654 181.109 200.18C181.547 200.706 181.771 201.492 181.781 202.539V208H179.523V202.594C179.523 202.115 179.419 201.768 179.211 201.555C179.003 201.336 178.656 201.227 178.172 201.227C177.536 201.227 177.06 201.497 176.742 202.039V208H174.484V199.547H176.609ZM186.203 197.469V199.547H187.648V201.203H186.203V205.422C186.203 205.734 186.263 205.958 186.383 206.094C186.503 206.229 186.732 206.297 187.07 206.297C187.32 206.297 187.542 206.279 187.734 206.242V207.953C187.292 208.089 186.836 208.156 186.367 208.156C184.784 208.156 183.977 207.357 183.945 205.758V201.203H182.711V199.547H183.945V197.469H186.203Z" fill="#2097F6"/>
<rect x="53" y="137.5" width="196" height="96" rx="7.5" stroke="#2097F6"/>
</g>
<g filter="url(#filter3_d)">
<rect x="52.5" y="244" width="197" height="92" rx="8" fill="#E5FDE8"/>
<path d="M151 279.001C159.284 279.001 166 276.315 166 273.001C166 269.688 159.284 267.001 151 267.001C142.716 267.001 136 269.688 136 273.001C136 276.315 142.716 279.001 151 279.001Z" stroke="#65BF73" stroke-width="2" stroke-linecap="round" stroke-linejoin="round"/>
<path d="M136 273.001V282C136 285.313 142.716 288 151 288C159.284 288 166 285.315 166 282V273.001" stroke="#65BF73" stroke-width="2" stroke-linecap="round" stroke-linejoin="round"/>
<path d="M136 282V291C136 294.313 142.716 297 151 297C159.284 297 166 294.313 166 291V282" stroke="#65BF73" stroke-width="2" stroke-linecap="round" stroke-linejoin="round"/>
<path d="M84.6094 319.211C84.5208 320.435 84.0677 321.398 83.25 322.102C82.4375 322.805 81.3646 323.156 80.0312 323.156C78.5729 323.156 77.4245 322.667 76.5859 321.688C75.7526 320.703 75.3359 319.354 75.3359 317.641V316.945C75.3359 315.852 75.5286 314.888 75.9141 314.055C76.2995 313.221 76.849 312.583 77.5625 312.141C78.2812 311.693 79.1146 311.469 80.0625 311.469C81.375 311.469 82.4323 311.82 83.2344 312.523C84.0365 313.227 84.5 314.214 84.625 315.484H82.2812C82.224 314.75 82.0182 314.219 81.6641 313.891C81.3151 313.557 80.7812 313.391 80.0625 313.391C79.2812 313.391 78.6953 313.672 78.3047 314.234C77.9193 314.792 77.7214 315.659 77.7109 316.836V317.695C77.7109 318.924 77.8958 319.823 78.2656 320.391C78.6406 320.958 79.2292 321.242 80.0312 321.242C80.7552 321.242 81.2943 321.078 81.6484 320.75C82.0078 320.417 82.2135 319.904 82.2656 319.211H84.6094ZM91.0625 322.141C90.5052 322.818 89.7344 323.156 88.75 323.156C87.8438 323.156 87.151 322.896 86.6719 322.375C86.1979 321.854 85.9557 321.091 85.9453 320.086V314.547H88.2031V320.008C88.2031 320.888 88.6042 321.328 89.4062 321.328C90.1719 321.328 90.6979 321.062 90.9844 320.531V314.547H93.25V323H91.125L91.0625 322.141ZM99.7031 316.664C99.3958 316.622 99.125 316.602 98.8906 316.602C98.0365 316.602 97.4766 316.891 97.2109 317.469V323H94.9531V314.547H97.0859L97.1484 315.555C97.6016 314.779 98.2292 314.391 99.0312 314.391C99.2812 314.391 99.5156 314.424 99.7344 314.492L99.7031 316.664ZM105.547 316.664C105.24 316.622 104.969 316.602 104.734 316.602C103.88 316.602 103.32 316.891 103.055 317.469V323H100.797V314.547H102.93L102.992 315.555C103.445 314.779 104.073 314.391 104.875 314.391C105.125 314.391 105.359 314.424 105.578 314.492L105.547 316.664ZM110.375 323.156C109.135 323.156 108.125 322.776 107.344 322.016C106.568 321.255 106.18 320.242 106.18 318.977V318.758C106.18 317.909 106.344 317.151 106.672 316.484C107 315.812 107.464 315.297 108.062 314.938C108.667 314.573 109.354 314.391 110.125 314.391C111.281 314.391 112.19 314.755 112.852 315.484C113.518 316.214 113.852 317.247 113.852 318.586V319.508H108.469C108.542 320.06 108.76 320.503 109.125 320.836C109.495 321.169 109.961 321.336 110.523 321.336C111.393 321.336 112.073 321.021 112.562 320.391L113.672 321.633C113.333 322.112 112.875 322.487 112.297 322.758C111.719 323.023 111.078 323.156 110.375 323.156ZM110.117 316.219C109.669 316.219 109.305 316.37 109.023 316.672C108.747 316.974 108.57 317.406 108.492 317.969H111.633V317.789C111.622 317.289 111.487 316.904 111.227 316.633C110.966 316.357 110.596 316.219 110.117 316.219ZM117.219 314.547L117.289 315.523C117.893 314.768 118.703 314.391 119.719 314.391C120.615 314.391 121.281 314.654 121.719 315.18C122.156 315.706 122.38 316.492 122.391 317.539V323H120.133V317.594C120.133 317.115 120.029 316.768 119.82 316.555C119.612 316.336 119.266 316.227 118.781 316.227C118.146 316.227 117.669 316.497 117.352 317.039V323H115.094V314.547H117.219ZM126.812 312.469V314.547H128.258V316.203H126.812V320.422C126.812 320.734 126.872 320.958 126.992 321.094C127.112 321.229 127.341 321.297 127.68 321.297C127.93 321.297 128.151 321.279 128.344 321.242V322.953C127.901 323.089 127.445 323.156 126.977 323.156C125.393 323.156 124.586 322.357 124.555 320.758V316.203H123.32V314.547H124.555V312.469H126.812ZM138.078 320.664C138.078 320.388 137.94 320.172 137.664 320.016C137.393 319.854 136.956 319.711 136.352 319.586C134.341 319.164 133.336 318.31 133.336 317.023C133.336 316.273 133.646 315.648 134.266 315.148C134.891 314.643 135.706 314.391 136.711 314.391C137.784 314.391 138.641 314.643 139.281 315.148C139.927 315.654 140.25 316.31 140.25 317.117H137.992C137.992 316.794 137.888 316.529 137.68 316.32C137.471 316.107 137.146 316 136.703 316C136.323 316 136.029 316.086 135.82 316.258C135.612 316.43 135.508 316.648 135.508 316.914C135.508 317.164 135.625 317.367 135.859 317.523C136.099 317.674 136.5 317.807 137.062 317.922C137.625 318.031 138.099 318.156 138.484 318.297C139.677 318.734 140.273 319.492 140.273 320.57C140.273 321.341 139.943 321.966 139.281 322.445C138.62 322.919 137.766 323.156 136.719 323.156C136.01 323.156 135.38 323.031 134.828 322.781C134.281 322.526 133.852 322.18 133.539 321.742C133.227 321.299 133.07 320.823 133.07 320.312H135.211C135.232 320.714 135.38 321.021 135.656 321.234C135.932 321.448 136.302 321.555 136.766 321.555C137.198 321.555 137.523 321.474 137.742 321.312C137.966 321.146 138.078 320.93 138.078 320.664ZM144.438 312.469V314.547H145.883V316.203H144.438V320.422C144.438 320.734 144.497 320.958 144.617 321.094C144.737 321.229 144.966 321.297 145.305 321.297C145.555 321.297 145.776 321.279 145.969 321.242V322.953C145.526 323.089 145.07 323.156 144.602 323.156C143.018 323.156 142.211 322.357 142.18 320.758V316.203H140.945V314.547H142.18V312.469H144.438ZM146.555 318.695C146.555 317.857 146.716 317.109 147.039 316.453C147.362 315.797 147.826 315.289 148.43 314.93C149.039 314.57 149.745 314.391 150.547 314.391C151.688 314.391 152.617 314.74 153.336 315.438C154.06 316.135 154.464 317.083 154.547 318.281L154.562 318.859C154.562 320.156 154.201 321.198 153.477 321.984C152.753 322.766 151.781 323.156 150.562 323.156C149.344 323.156 148.37 322.766 147.641 321.984C146.917 321.203 146.555 320.141 146.555 318.797V318.695ZM148.812 318.859C148.812 319.661 148.964 320.276 149.266 320.703C149.568 321.125 150 321.336 150.562 321.336C151.109 321.336 151.536 321.128 151.844 320.711C152.151 320.289 152.305 319.617 152.305 318.695C152.305 317.909 152.151 317.299 151.844 316.867C151.536 316.435 151.104 316.219 150.547 316.219C149.995 316.219 149.568 316.435 149.266 316.867C148.964 317.294 148.812 317.958 148.812 318.859ZM160.703 316.664C160.396 316.622 160.125 316.602 159.891 316.602C159.036 316.602 158.477 316.891 158.211 317.469V323H155.953V314.547H158.086L158.148 315.555C158.602 314.779 159.229 314.391 160.031 314.391C160.281 314.391 160.516 314.424 160.734 314.492L160.703 316.664ZM166.461 323C166.357 322.797 166.281 322.544 166.234 322.242C165.688 322.852 164.977 323.156 164.102 323.156C163.273 323.156 162.586 322.917 162.039 322.438C161.497 321.958 161.227 321.354 161.227 320.625C161.227 319.729 161.557 319.042 162.219 318.562C162.885 318.083 163.846 317.841 165.102 317.836H166.141V317.352C166.141 316.961 166.039 316.648 165.836 316.414C165.638 316.18 165.323 316.062 164.891 316.062C164.51 316.062 164.211 316.154 163.992 316.336C163.779 316.518 163.672 316.768 163.672 317.086H161.414C161.414 316.596 161.565 316.143 161.867 315.727C162.169 315.31 162.596 314.984 163.148 314.75C163.701 314.51 164.32 314.391 165.008 314.391C166.049 314.391 166.875 314.654 167.484 315.18C168.099 315.701 168.406 316.435 168.406 317.383V321.047C168.411 321.849 168.523 322.456 168.742 322.867V323H166.461ZM164.594 321.43C164.927 321.43 165.234 321.357 165.516 321.211C165.797 321.06 166.005 320.859 166.141 320.609V319.156H165.297C164.167 319.156 163.565 319.547 163.492 320.328L163.484 320.461C163.484 320.742 163.583 320.974 163.781 321.156C163.979 321.339 164.25 321.43 164.594 321.43ZM169.812 318.711C169.812 317.414 170.12 316.37 170.734 315.578C171.354 314.786 172.188 314.391 173.234 314.391C174.161 314.391 174.883 314.708 175.398 315.344L175.492 314.547H177.539V322.719C177.539 323.458 177.37 324.102 177.031 324.648C176.698 325.195 176.227 325.612 175.617 325.898C175.008 326.185 174.294 326.328 173.477 326.328C172.857 326.328 172.253 326.203 171.664 325.953C171.076 325.708 170.63 325.391 170.328 325L171.328 323.625C171.891 324.255 172.573 324.57 173.375 324.57C173.974 324.57 174.44 324.409 174.773 324.086C175.107 323.768 175.273 323.315 175.273 322.727V322.273C174.753 322.862 174.068 323.156 173.219 323.156C172.203 323.156 171.38 322.76 170.75 321.969C170.125 321.172 169.812 320.117 169.812 318.805V318.711ZM172.07 318.875C172.07 319.641 172.224 320.242 172.531 320.68C172.839 321.112 173.26 321.328 173.797 321.328C174.484 321.328 174.977 321.07 175.273 320.555V317C174.971 316.484 174.484 316.227 173.812 316.227C173.271 316.227 172.844 316.448 172.531 316.891C172.224 317.333 172.07 317.995 172.07 318.875ZM183.172 323.156C181.932 323.156 180.922 322.776 180.141 322.016C179.365 321.255 178.977 320.242 178.977 318.977V318.758C178.977 317.909 179.141 317.151 179.469 316.484C179.797 315.812 180.26 315.297 180.859 314.938C181.464 314.573 182.151 314.391 182.922 314.391C184.078 314.391 184.987 314.755 185.648 315.484C186.315 316.214 186.648 317.247 186.648 318.586V319.508H181.266C181.339 320.06 181.557 320.503 181.922 320.836C182.292 321.169 182.758 321.336 183.32 321.336C184.19 321.336 184.87 321.021 185.359 320.391L186.469 321.633C186.13 322.112 185.672 322.487 185.094 322.758C184.516 323.023 183.875 323.156 183.172 323.156ZM182.914 316.219C182.466 316.219 182.102 316.37 181.82 316.672C181.544 316.974 181.367 317.406 181.289 317.969H184.43V317.789C184.419 317.289 184.284 316.904 184.023 316.633C183.763 316.357 183.393 316.219 182.914 316.219ZM196.5 320.664C196.5 320.388 196.362 320.172 196.086 320.016C195.815 319.854 195.378 319.711 194.773 319.586C192.763 319.164 191.758 318.31 191.758 317.023C191.758 316.273 192.068 315.648 192.688 315.148C193.312 314.643 194.128 314.391 195.133 314.391C196.206 314.391 197.062 314.643 197.703 315.148C198.349 315.654 198.672 316.31 198.672 317.117H196.414C196.414 316.794 196.31 316.529 196.102 316.32C195.893 316.107 195.568 316 195.125 316C194.745 316 194.451 316.086 194.242 316.258C194.034 316.43 193.93 316.648 193.93 316.914C193.93 317.164 194.047 317.367 194.281 317.523C194.521 317.674 194.922 317.807 195.484 317.922C196.047 318.031 196.521 318.156 196.906 318.297C198.099 318.734 198.695 319.492 198.695 320.57C198.695 321.341 198.365 321.966 197.703 322.445C197.042 322.919 196.188 323.156 195.141 323.156C194.432 323.156 193.802 323.031 193.25 322.781C192.703 322.526 192.273 322.18 191.961 321.742C191.648 321.299 191.492 320.823 191.492 320.312H193.633C193.654 320.714 193.802 321.021 194.078 321.234C194.354 321.448 194.724 321.555 195.188 321.555C195.62 321.555 195.945 321.474 196.164 321.312C196.388 321.146 196.5 320.93 196.5 320.664ZM202.859 312.469V314.547H204.305V316.203H202.859V320.422C202.859 320.734 202.919 320.958 203.039 321.094C203.159 321.229 203.388 321.297 203.727 321.297C203.977 321.297 204.198 321.279 204.391 321.242V322.953C203.948 323.089 203.492 323.156 203.023 323.156C201.44 323.156 200.633 322.357 200.602 320.758V316.203H199.367V314.547H200.602V312.469H202.859ZM210.461 323C210.357 322.797 210.281 322.544 210.234 322.242C209.688 322.852 208.977 323.156 208.102 323.156C207.273 323.156 206.586 322.917 206.039 322.438C205.497 321.958 205.227 321.354 205.227 320.625C205.227 319.729 205.557 319.042 206.219 318.562C206.885 318.083 207.846 317.841 209.102 317.836H210.141V317.352C210.141 316.961 210.039 316.648 209.836 316.414C209.638 316.18 209.323 316.062 208.891 316.062C208.51 316.062 208.211 316.154 207.992 316.336C207.779 316.518 207.672 316.768 207.672 317.086H205.414C205.414 316.596 205.565 316.143 205.867 315.727C206.169 315.31 206.596 314.984 207.148 314.75C207.701 314.51 208.32 314.391 209.008 314.391C210.049 314.391 210.875 314.654 211.484 315.18C212.099 315.701 212.406 316.435 212.406 317.383V321.047C212.411 321.849 212.523 322.456 212.742 322.867V323H210.461ZM208.594 321.43C208.927 321.43 209.234 321.357 209.516 321.211C209.797 321.06 210.005 320.859 210.141 320.609V319.156H209.297C208.167 319.156 207.565 319.547 207.492 320.328L207.484 320.461C207.484 320.742 207.583 320.974 207.781 321.156C207.979 321.339 208.25 321.43 208.594 321.43ZM216.844 312.469V314.547H218.289V316.203H216.844V320.422C216.844 320.734 216.904 320.958 217.023 321.094C217.143 321.229 217.372 321.297 217.711 321.297C217.961 321.297 218.182 321.279 218.375 321.242V322.953C217.932 323.089 217.477 323.156 217.008 323.156C215.424 323.156 214.617 322.357 214.586 320.758V316.203H213.352V314.547H214.586V312.469H216.844ZM223.438 323.156C222.198 323.156 221.188 322.776 220.406 322.016C219.63 321.255 219.242 320.242 219.242 318.977V318.758C219.242 317.909 219.406 317.151 219.734 316.484C220.062 315.812 220.526 315.297 221.125 314.938C221.729 314.573 222.417 314.391 223.188 314.391C224.344 314.391 225.253 314.755 225.914 315.484C226.581 316.214 226.914 317.247 226.914 318.586V319.508H221.531C221.604 320.06 221.823 320.503 222.188 320.836C222.557 321.169 223.023 321.336 223.586 321.336C224.456 321.336 225.135 321.021 225.625 320.391L226.734 321.633C226.396 322.112 225.938 322.487 225.359 322.758C224.781 323.023 224.141 323.156 223.438 323.156ZM223.18 316.219C222.732 316.219 222.367 316.37 222.086 316.672C221.81 316.974 221.633 317.406 221.555 317.969H224.695V317.789C224.685 317.289 224.549 316.904 224.289 316.633C224.029 316.357 223.659 316.219 223.18 316.219Z" fill="#65BF73"/>
<rect x="53" y="244.5" width="196" height="91" rx="7.5" stroke="#65BF73"/>
</g>
</g>
<path d="M319.66 235.763L311.672 228.517C311.029 227.934 310 228.39 310 229.257V243.351C310 244.205 311.002 244.666 311.651 244.11L319.639 237.263C320.096 236.871 320.106 236.168 319.66 235.763Z" fill="#5452F6"/>
<line x1="265" y1="236" x2="310" y2="236" stroke="#5452F6" stroke-width="2"/>
<g filter="url(#filter4_d)">
<g clip-path="url(#clip1)">
<rect x="331" y="185.479" width="225" height="102.042" rx="8" fill="#FEEBEA"/>
<g clip-path="url(#clip2)">
<path d="M457.669 227.306L447.5 237.479L442.5 238.479L443.5 233.479L453.675 223.306C453.936 223.043 454.247 222.836 454.589 222.694C454.931 222.552 455.298 222.479 455.669 222.479C456.039 222.479 456.406 222.552 456.748 222.694C457.09 222.836 457.401 223.043 457.663 223.306L457.675 223.316C458.203 223.846 458.499 224.564 458.498 225.312C458.497 226.06 458.199 226.777 457.669 227.306Z" stroke="#FF5A43" stroke-width="2" stroke-linecap="round" stroke-linejoin="round"/>
<path d="M438.495 234.479H430.495C429.964 234.479 429.456 234.268 429.08 233.893C428.705 233.518 428.495 233.009 428.495 232.479V210.479C428.495 209.949 428.705 209.44 429.08 209.065C429.456 208.69 429.964 208.479 430.495 208.479H450.495C451.025 208.479 451.534 208.69 451.909 209.065C452.284 209.44 452.495 209.949 452.495 210.479V219.479" stroke="#FF5A43" stroke-width="2" stroke-linecap="round" stroke-linejoin="round"/>
<path d="M438.495 214.479H446.495" stroke="#FF5A43" stroke-width="2" stroke-linecap="round" stroke-linejoin="round"/>
<path d="M434.495 220.479H446.495" stroke="#FF5A43" stroke-width="2" stroke-linecap="round" stroke-linejoin="round"/>
<path d="M434.495 226.479H444.495" stroke="#FF5A43" stroke-width="2" stroke-linecap="round" stroke-linejoin="round"/>
</g>
<path d="M387.68 253.104L390.602 261.354L393.508 253.104H396.586V264.479H394.234V261.37L394.469 256.002L391.398 264.479H389.789L386.727 256.01L386.961 261.37V264.479H384.617V253.104H387.68ZM400.867 264.479H398.602V256.026H400.867V264.479ZM398.469 253.838C398.469 253.5 398.581 253.221 398.805 253.002C399.034 252.784 399.344 252.674 399.734 252.674C400.12 252.674 400.427 252.784 400.656 253.002C400.885 253.221 401 253.5 401 253.838C401 254.182 400.883 254.463 400.648 254.682C400.419 254.901 400.115 255.01 399.734 255.01C399.354 255.01 399.047 254.901 398.812 254.682C398.583 254.463 398.469 254.182 398.469 253.838ZM406.25 262.815C406.667 262.815 407.005 262.7 407.266 262.471C407.526 262.242 407.661 261.937 407.672 261.557H409.789C409.784 262.13 409.628 262.656 409.32 263.135C409.013 263.609 408.591 263.979 408.055 264.245C407.523 264.505 406.935 264.635 406.289 264.635C405.081 264.635 404.128 264.252 403.43 263.487C402.732 262.716 402.383 261.653 402.383 260.299V260.151C402.383 258.849 402.729 257.81 403.422 257.034C404.115 256.258 405.065 255.87 406.273 255.87C407.331 255.87 408.177 256.172 408.812 256.776C409.453 257.375 409.779 258.174 409.789 259.174H407.672C407.661 258.737 407.526 258.383 407.266 258.112C407.005 257.836 406.661 257.698 406.234 257.698C405.708 257.698 405.31 257.89 405.039 258.276C404.773 258.656 404.641 259.276 404.641 260.135V260.37C404.641 261.239 404.773 261.864 405.039 262.245C405.305 262.625 405.708 262.815 406.25 262.815ZM413.281 256.948C413.88 256.229 414.633 255.87 415.539 255.87C417.372 255.87 418.302 256.935 418.328 259.065V264.479H416.07V259.127C416.07 258.643 415.966 258.286 415.758 258.057C415.549 257.823 415.203 257.706 414.719 257.706C414.057 257.706 413.578 257.961 413.281 258.471V264.479H411.023V252.479H413.281V256.948ZM423.922 264.635C422.682 264.635 421.672 264.255 420.891 263.495C420.115 262.734 419.727 261.721 419.727 260.456V260.237C419.727 259.388 419.891 258.63 420.219 257.963C420.547 257.292 421.01 256.776 421.609 256.417C422.214 256.052 422.901 255.87 423.672 255.87C424.828 255.87 425.737 256.234 426.398 256.963C427.065 257.693 427.398 258.726 427.398 260.065V260.987H422.016C422.089 261.539 422.307 261.982 422.672 262.315C423.042 262.648 423.508 262.815 424.07 262.815C424.94 262.815 425.62 262.5 426.109 261.87L427.219 263.112C426.88 263.591 426.422 263.966 425.844 264.237C425.266 264.502 424.625 264.635 423.922 264.635ZM423.664 257.698C423.216 257.698 422.852 257.849 422.57 258.151C422.294 258.453 422.117 258.885 422.039 259.448H425.18V259.268C425.169 258.768 425.034 258.383 424.773 258.112C424.513 257.836 424.143 257.698 423.664 257.698ZM431.07 264.479H428.805V252.479H431.07V264.479ZM437.516 262.143C437.516 261.867 437.378 261.651 437.102 261.495C436.831 261.333 436.393 261.19 435.789 261.065C433.779 260.643 432.773 259.789 432.773 258.502C432.773 257.752 433.083 257.127 433.703 256.627C434.328 256.122 435.143 255.87 436.148 255.87C437.221 255.87 438.078 256.122 438.719 256.627C439.365 257.133 439.688 257.789 439.688 258.596H437.43C437.43 258.273 437.326 258.008 437.117 257.799C436.909 257.586 436.583 257.479 436.141 257.479C435.76 257.479 435.466 257.565 435.258 257.737C435.049 257.909 434.945 258.127 434.945 258.393C434.945 258.643 435.062 258.846 435.297 259.002C435.536 259.153 435.938 259.286 436.5 259.401C437.062 259.51 437.536 259.635 437.922 259.776C439.115 260.213 439.711 260.971 439.711 262.049C439.711 262.82 439.38 263.445 438.719 263.924C438.057 264.398 437.203 264.635 436.156 264.635C435.448 264.635 434.818 264.51 434.266 264.26C433.719 264.005 433.289 263.659 432.977 263.221C432.664 262.778 432.508 262.302 432.508 261.792H434.648C434.669 262.193 434.818 262.5 435.094 262.713C435.37 262.927 435.74 263.034 436.203 263.034C436.635 263.034 436.961 262.953 437.18 262.792C437.404 262.625 437.516 262.409 437.516 262.143ZM440.82 260.174C440.82 259.336 440.982 258.588 441.305 257.932C441.628 257.276 442.091 256.768 442.695 256.409C443.305 256.049 444.01 255.87 444.812 255.87C445.953 255.87 446.883 256.219 447.602 256.917C448.326 257.614 448.729 258.562 448.812 259.76L448.828 260.338C448.828 261.635 448.466 262.677 447.742 263.463C447.018 264.245 446.047 264.635 444.828 264.635C443.609 264.635 442.635 264.245 441.906 263.463C441.182 262.682 440.82 261.62 440.82 260.276V260.174ZM443.078 260.338C443.078 261.14 443.229 261.755 443.531 262.182C443.833 262.604 444.266 262.815 444.828 262.815C445.375 262.815 445.802 262.607 446.109 262.19C446.417 261.768 446.57 261.096 446.57 260.174C446.57 259.388 446.417 258.778 446.109 258.346C445.802 257.914 445.37 257.698 444.812 257.698C444.26 257.698 443.833 257.914 443.531 258.346C443.229 258.773 443.078 259.437 443.078 260.338ZM452.297 256.026L452.367 257.002C452.971 256.247 453.781 255.87 454.797 255.87C455.693 255.87 456.359 256.133 456.797 256.659C457.234 257.185 457.458 257.971 457.469 259.018V264.479H455.211V259.073C455.211 258.594 455.107 258.247 454.898 258.034C454.69 257.815 454.344 257.706 453.859 257.706C453.224 257.706 452.747 257.976 452.43 258.518V264.479H450.172V256.026H452.297ZM467.75 262.143C467.75 261.867 467.612 261.651 467.336 261.495C467.065 261.333 466.628 261.19 466.023 261.065C464.013 260.643 463.008 259.789 463.008 258.502C463.008 257.752 463.318 257.127 463.938 256.627C464.562 256.122 465.378 255.87 466.383 255.87C467.456 255.87 468.312 256.122 468.953 256.627C469.599 257.133 469.922 257.789 469.922 258.596H467.664C467.664 258.273 467.56 258.008 467.352 257.799C467.143 257.586 466.818 257.479 466.375 257.479C465.995 257.479 465.701 257.565 465.492 257.737C465.284 257.909 465.18 258.127 465.18 258.393C465.18 258.643 465.297 258.846 465.531 259.002C465.771 259.153 466.172 259.286 466.734 259.401C467.297 259.51 467.771 259.635 468.156 259.776C469.349 260.213 469.945 260.971 469.945 262.049C469.945 262.82 469.615 263.445 468.953 263.924C468.292 264.398 467.438 264.635 466.391 264.635C465.682 264.635 465.052 264.51 464.5 264.26C463.953 264.005 463.523 263.659 463.211 263.221C462.898 262.778 462.742 262.302 462.742 261.792H464.883C464.904 262.193 465.052 262.5 465.328 262.713C465.604 262.927 465.974 263.034 466.438 263.034C466.87 263.034 467.195 262.953 467.414 262.792C467.638 262.625 467.75 262.409 467.75 262.143ZM474.922 262.815C475.339 262.815 475.677 262.7 475.938 262.471C476.198 262.242 476.333 261.937 476.344 261.557H478.461C478.456 262.13 478.299 262.656 477.992 263.135C477.685 263.609 477.263 263.979 476.727 264.245C476.195 264.505 475.607 264.635 474.961 264.635C473.753 264.635 472.799 264.252 472.102 263.487C471.404 262.716 471.055 261.653 471.055 260.299V260.151C471.055 258.849 471.401 257.81 472.094 257.034C472.786 256.258 473.737 255.87 474.945 255.87C476.003 255.87 476.849 256.172 477.484 256.776C478.125 257.375 478.451 258.174 478.461 259.174H476.344C476.333 258.737 476.198 258.383 475.938 258.112C475.677 257.836 475.333 257.698 474.906 257.698C474.38 257.698 473.982 257.89 473.711 258.276C473.445 258.656 473.312 259.276 473.312 260.135V260.37C473.312 261.239 473.445 261.864 473.711 262.245C473.977 262.625 474.38 262.815 474.922 262.815ZM484.5 258.143C484.193 258.101 483.922 258.081 483.688 258.081C482.833 258.081 482.273 258.37 482.008 258.948V264.479H479.75V256.026H481.883L481.945 257.034C482.398 256.258 483.026 255.87 483.828 255.87C484.078 255.87 484.312 255.903 484.531 255.971L484.5 258.143ZM487.977 264.479H485.711V256.026H487.977V264.479ZM485.578 253.838C485.578 253.5 485.69 253.221 485.914 253.002C486.143 252.784 486.453 252.674 486.844 252.674C487.229 252.674 487.536 252.784 487.766 253.002C487.995 253.221 488.109 253.5 488.109 253.838C488.109 254.182 487.992 254.463 487.758 254.682C487.529 254.901 487.224 255.01 486.844 255.01C486.464 255.01 486.156 254.901 485.922 254.682C485.693 254.463 485.578 254.182 485.578 253.838ZM497.453 260.331C497.453 261.633 497.156 262.677 496.562 263.463C495.974 264.245 495.177 264.635 494.172 264.635C493.318 264.635 492.628 264.338 492.102 263.745V267.729H489.844V256.026H491.938L492.016 256.854C492.562 256.198 493.276 255.87 494.156 255.87C495.198 255.87 496.008 256.255 496.586 257.026C497.164 257.797 497.453 258.859 497.453 260.213V260.331ZM495.195 260.167C495.195 259.38 495.055 258.773 494.773 258.346C494.497 257.919 494.094 257.706 493.562 257.706C492.854 257.706 492.367 257.976 492.102 258.518V261.979C492.378 262.536 492.87 262.815 493.578 262.815C494.656 262.815 495.195 261.932 495.195 260.167ZM501.562 253.948V256.026H503.008V257.682H501.562V261.901C501.562 262.213 501.622 262.437 501.742 262.573C501.862 262.708 502.091 262.776 502.43 262.776C502.68 262.776 502.901 262.758 503.094 262.721V264.432C502.651 264.568 502.195 264.635 501.727 264.635C500.143 264.635 499.336 263.836 499.305 262.237V257.682H498.07V256.026H499.305V253.948H501.562Z" fill="#FF5A43"/>
</g>
<rect x="331.5" y="185.979" width="224" height="101.042" rx="7.5" stroke="#FF5A43"/>
</g>
<rect x="0.5" y="37.5" width="602" height="364" rx="7.5" stroke="#5452F6"/>
</g>
<g filter="url(#filter5_d)">
<rect x="752" y="37" width="603" height="365" rx="8" fill="white"/>
<g clip-path="url(#clip3)">
<path d="M990.421 61.438C990.604 61.6417 990.829 61.8046 991.079 61.9161C991.33 62.0276 991.601 62.0852 991.875 62.0852C992.149 62.0852 992.42 62.0276 992.671 61.9161C992.921 61.8046 993.145 61.6417 993.329 61.438L994.275 60.4C994.546 60.1 994.903 59.8912 995.298 59.8023C995.692 59.7134 996.105 59.7488 996.478 59.9036C996.852 60.0584 997.169 60.3251 997.385 60.6669C997.601 61.0088 997.706 61.4092 997.685 61.813L997.614 63.213C997.6 63.4861 997.644 63.7591 997.742 64.0143C997.84 64.2695 997.991 64.5014 998.184 64.6949C998.377 64.8884 998.609 65.0393 998.864 65.1378C999.119 65.2363 999.392 65.2804 999.665 65.267L1001.06 65.196C1001.47 65.1761 1001.87 65.2815 1002.21 65.4978C1002.55 65.7141 1002.82 66.0307 1002.97 66.4041C1003.13 66.7775 1003.16 67.1896 1003.07 67.5838C1002.98 67.978 1002.77 68.3351 1002.47 68.606L1001.43 69.546C1001.23 69.7298 1001.07 69.9542 1000.96 70.2047C1000.84 70.4553 1000.79 70.7264 1000.79 71.0005C1000.79 71.2747 1000.84 71.5458 1000.96 71.7963C1001.07 72.0469 1001.23 72.2713 1001.43 72.455L1002.47 73.395C1002.78 73.6662 1002.98 74.0235 1003.07 74.418C1003.16 74.8125 1003.13 75.2249 1002.97 75.5985C1002.82 75.9721 1002.55 76.2886 1002.21 76.5046C1001.87 76.7207 1001.47 76.8256 1001.06 76.805L999.662 76.734C999.388 76.72 999.115 76.7635 998.859 76.8618C998.603 76.9602 998.371 77.1111 998.177 77.3049C997.983 77.4987 997.832 77.7311 997.734 77.9869C997.635 78.2427 997.592 78.5163 997.606 78.79L997.677 80.19C997.695 80.5919 997.589 80.9895 997.373 81.3289C997.157 81.6683 996.842 81.9329 996.47 82.0869C996.098 82.241 995.688 82.2768 995.296 82.1897C994.903 82.1026 994.547 81.8967 994.275 81.6L993.334 80.559C993.15 80.3556 992.926 80.193 992.676 80.0817C992.425 79.9704 992.154 79.9129 991.88 79.9129C991.606 79.9129 991.335 79.9704 991.084 80.0817C990.834 80.193 990.61 80.3556 990.426 80.559L989.481 81.6C989.21 81.8981 988.853 82.1053 988.46 82.1934C988.067 82.2814 987.656 82.2461 987.284 82.0921C986.911 81.9382 986.595 81.6731 986.379 81.3331C986.163 80.9931 986.057 80.5946 986.075 80.192L986.147 78.792C986.161 78.5183 986.118 78.2447 986.019 77.9889C985.921 77.7331 985.77 77.5007 985.576 77.3069C985.382 77.1131 985.15 76.9622 984.894 76.8638C984.638 76.7655 984.365 76.722 984.091 76.736L982.691 76.807C982.287 76.8281 981.887 76.7237 981.545 76.5081C981.203 76.2926 980.936 75.9765 980.781 75.6032C980.626 75.2298 980.59 74.8177 980.678 74.4232C980.767 74.0287 980.975 73.6713 981.275 73.4L982.316 72.46C982.519 72.2763 982.682 72.0519 982.793 71.8013C982.905 71.5508 982.962 71.2797 982.962 71.0055C982.962 70.7314 982.905 70.4603 982.793 70.2097C982.682 69.9592 982.519 69.7348 982.316 69.551L981.275 68.606C980.976 68.335 980.768 67.9784 980.68 67.5848C980.592 67.1913 980.627 66.78 980.781 66.4073C980.935 66.0346 981.201 65.7186 981.542 65.5025C981.882 65.2864 982.281 65.1808 982.684 65.2L984.084 65.271C984.358 65.2855 984.632 65.242 984.889 65.1436C985.145 65.0451 985.378 64.8938 985.572 64.6996C985.766 64.5053 985.917 64.2724 986.015 64.0159C986.114 63.7595 986.157 63.4852 986.142 63.211L986.075 61.81C986.056 61.4073 986.162 61.0085 986.378 60.6682C986.594 60.3278 986.91 60.0624 987.283 59.9082C987.655 59.754 988.066 59.7185 988.46 59.8065C988.853 59.8945 989.21 60.1018 989.481 60.4L990.421 61.438Z" stroke="#5452F6" stroke-width="1.5" stroke-linecap="round" stroke-linejoin="round"/>
<path d="M991.875 75.501C994.36 75.501 996.375 73.4863 996.375 71.001C996.375 68.5157 994.36 66.501 991.875 66.501C989.39 66.501 987.375 68.5157 987.375 71.001C987.375 73.4863 989.39 75.501 991.875 75.501Z" stroke="#5452F6" stroke-width="1.5" stroke-linecap="round" stroke-linejoin="round"/>
</g>
<path d="M1018.38 73.0469V77.5H1016.88V66.125H1021.07C1022.32 66.125 1023.29 66.4427 1023.99 67.0781C1024.7 67.7135 1025.05 68.5547 1025.05 69.6016C1025.05 70.7057 1024.71 71.5573 1024.02 72.1562C1023.33 72.75 1022.34 73.0469 1021.05 73.0469H1018.38ZM1018.38 71.8203H1021.07C1021.87 71.8203 1022.49 71.6328 1022.91 71.2578C1023.34 70.8776 1023.55 70.3307 1023.55 69.6172C1023.55 68.9401 1023.34 68.3984 1022.91 67.9922C1022.49 67.5859 1021.9 67.375 1021.16 67.3594H1018.38V71.8203ZM1026.25 73.1953C1026.25 72.3672 1026.41 71.6224 1026.73 70.9609C1027.06 70.2995 1027.52 69.7891 1028.09 69.4297C1028.68 69.0703 1029.34 68.8906 1030.09 68.8906C1031.24 68.8906 1032.17 69.2891 1032.88 70.0859C1033.59 70.8828 1033.95 71.9427 1033.95 73.2656V73.3672C1033.95 74.1901 1033.79 74.9297 1033.47 75.5859C1033.16 76.237 1032.71 76.7448 1032.12 77.1094C1031.53 77.474 1030.86 77.6562 1030.1 77.6562C1028.96 77.6562 1028.03 77.2578 1027.31 76.4609C1026.6 75.6641 1026.25 74.6094 1026.25 73.2969V73.1953ZM1027.7 73.3672C1027.7 74.3047 1027.92 75.0573 1028.35 75.625C1028.79 76.1927 1029.37 76.4766 1030.1 76.4766C1030.84 76.4766 1031.42 76.1901 1031.85 75.6172C1032.28 75.0391 1032.5 74.2318 1032.5 73.1953C1032.5 72.2682 1032.28 71.5182 1031.84 70.9453C1031.4 70.3672 1030.82 70.0781 1030.09 70.0781C1029.37 70.0781 1028.8 70.362 1028.36 70.9297C1027.92 71.4974 1027.7 72.3099 1027.7 73.3672ZM1040.68 75.2578C1040.68 74.8672 1040.53 74.5651 1040.23 74.3516C1039.94 74.1328 1039.43 73.9453 1038.7 73.7891C1037.97 73.6328 1037.39 73.4453 1036.95 73.2266C1036.53 73.0078 1036.21 72.7474 1036 72.4453C1035.8 72.1432 1035.7 71.7839 1035.7 71.3672C1035.7 70.6745 1035.99 70.0885 1036.57 69.6094C1037.16 69.1302 1037.91 68.8906 1038.82 68.8906C1039.78 68.8906 1040.55 69.138 1041.15 69.6328C1041.75 70.1276 1042.05 70.7604 1042.05 71.5312H1040.59C1040.59 71.1354 1040.42 70.7943 1040.09 70.5078C1039.75 70.2214 1039.33 70.0781 1038.82 70.0781C1038.29 70.0781 1037.88 70.1927 1037.59 70.4219C1037.29 70.651 1037.14 70.9505 1037.14 71.3203C1037.14 71.6693 1037.28 71.9323 1037.55 72.1094C1037.83 72.2865 1038.33 72.4557 1039.05 72.6172C1039.77 72.7786 1040.36 72.9714 1040.8 73.1953C1041.25 73.4193 1041.58 73.6901 1041.8 74.0078C1042.02 74.3203 1042.12 74.7031 1042.12 75.1562C1042.12 75.9115 1041.82 76.5182 1041.22 76.9766C1040.61 77.4297 1039.83 77.6562 1038.87 77.6562C1038.19 77.6562 1037.59 77.5365 1037.07 77.2969C1036.55 77.0573 1036.14 76.724 1035.84 76.2969C1035.55 75.8646 1035.41 75.3984 1035.41 74.8984H1036.85C1036.88 75.3828 1037.07 75.7682 1037.43 76.0547C1037.79 76.3359 1038.27 76.4766 1038.87 76.4766C1039.41 76.4766 1039.85 76.3672 1040.18 76.1484C1040.51 75.9245 1040.68 75.6276 1040.68 75.2578ZM1045.97 67V69.0469H1047.55V70.1641H1045.97V75.4062C1045.97 75.7448 1046.04 76 1046.18 76.1719C1046.32 76.3385 1046.56 76.4219 1046.9 76.4219C1047.07 76.4219 1047.29 76.3906 1047.59 76.3281V77.5C1047.21 77.6042 1046.84 77.6562 1046.48 77.6562C1045.83 77.6562 1045.34 77.4609 1045.02 77.0703C1044.69 76.6797 1044.52 76.125 1044.52 75.4062V70.1641H1042.98V69.0469H1044.52V67H1045.97ZM1056.6 76.4766C1057.12 76.4766 1057.57 76.3203 1057.95 76.0078C1058.34 75.6953 1058.55 75.3047 1058.59 74.8359H1059.96C1059.93 75.3203 1059.77 75.7812 1059.46 76.2188C1059.15 76.6562 1058.74 77.0052 1058.23 77.2656C1057.72 77.526 1057.17 77.6562 1056.6 77.6562C1055.45 77.6562 1054.53 77.2734 1053.85 76.5078C1053.17 75.737 1052.84 74.6849 1052.84 73.3516V73.1094C1052.84 72.2865 1052.99 71.5547 1053.29 70.9141C1053.59 70.2734 1054.02 69.776 1054.59 69.4219C1055.15 69.0677 1055.82 68.8906 1056.59 68.8906C1057.54 68.8906 1058.33 69.1745 1058.95 69.7422C1059.58 70.3099 1059.92 71.0469 1059.96 71.9531H1058.59C1058.55 71.4062 1058.34 70.9583 1057.97 70.6094C1057.6 70.2552 1057.14 70.0781 1056.59 70.0781C1055.86 70.0781 1055.29 70.3438 1054.88 70.875C1054.48 71.401 1054.28 72.1641 1054.28 73.1641V73.4375C1054.28 74.4115 1054.48 75.1615 1054.88 75.6875C1055.28 76.2135 1055.86 76.4766 1056.6 76.4766ZM1061.2 73.1953C1061.2 72.3672 1061.36 71.6224 1061.69 70.9609C1062.02 70.2995 1062.47 69.7891 1063.05 69.4297C1063.63 69.0703 1064.29 68.8906 1065.04 68.8906C1066.19 68.8906 1067.12 69.2891 1067.83 70.0859C1068.54 70.8828 1068.9 71.9427 1068.9 73.2656V73.3672C1068.9 74.1901 1068.74 74.9297 1068.42 75.5859C1068.11 76.237 1067.66 76.7448 1067.07 77.1094C1066.49 77.474 1065.82 77.6562 1065.05 77.6562C1063.91 77.6562 1062.98 77.2578 1062.27 76.4609C1061.56 75.6641 1061.2 74.6094 1061.2 73.2969V73.1953ZM1062.66 73.3672C1062.66 74.3047 1062.87 75.0573 1063.3 75.625C1063.74 76.1927 1064.33 76.4766 1065.05 76.4766C1065.79 76.4766 1066.37 76.1901 1066.8 75.6172C1067.24 75.0391 1067.45 74.2318 1067.45 73.1953C1067.45 72.2682 1067.23 71.5182 1066.79 70.9453C1066.35 70.3672 1065.77 70.0781 1065.04 70.0781C1064.33 70.0781 1063.75 70.362 1063.31 70.9297C1062.88 71.4974 1062.66 72.3099 1062.66 73.3672ZM1072.08 69.0469L1072.12 70.1094C1072.77 69.2969 1073.61 68.8906 1074.66 68.8906C1076.44 68.8906 1077.34 69.8984 1077.36 71.9141V77.5H1075.91V71.9062C1075.91 71.2969 1075.77 70.8464 1075.49 70.5547C1075.22 70.263 1074.8 70.1172 1074.22 70.1172C1073.75 70.1172 1073.34 70.2422 1072.98 70.4922C1072.63 70.7422 1072.35 71.0703 1072.16 71.4766V77.5H1070.71V69.0469H1072.08ZM1079.19 73.2031C1079.19 71.9062 1079.49 70.8646 1080.11 70.0781C1080.72 69.2865 1081.53 68.8906 1082.52 68.8906C1083.51 68.8906 1084.3 69.2292 1084.88 69.9062V65.5H1086.32V77.5H1084.99L1084.92 76.5938C1084.34 77.3021 1083.54 77.6562 1082.51 77.6562C1081.53 77.6562 1080.73 77.2552 1080.11 76.4531C1079.49 75.651 1079.19 74.6042 1079.19 73.3125V73.2031ZM1080.63 73.3672C1080.63 74.3255 1080.83 75.0755 1081.23 75.6172C1081.62 76.1589 1082.17 76.4297 1082.87 76.4297C1083.78 76.4297 1084.45 76.0182 1084.88 75.1953V71.3125C1084.44 70.5156 1083.78 70.1172 1082.88 70.1172C1082.17 70.1172 1081.62 70.3906 1081.23 70.9375C1080.83 71.4844 1080.63 72.2943 1080.63 73.3672ZM1090.14 77.5H1088.7V69.0469H1090.14V77.5ZM1088.58 66.8047C1088.58 66.5703 1088.65 66.3724 1088.79 66.2109C1088.93 66.0495 1089.15 65.9688 1089.43 65.9688C1089.71 65.9688 1089.92 66.0495 1090.07 66.2109C1090.22 66.3724 1090.29 66.5703 1090.29 66.8047C1090.29 67.0391 1090.22 67.2344 1090.07 67.3906C1089.92 67.5469 1089.71 67.625 1089.43 67.625C1089.15 67.625 1088.93 67.5469 1088.79 67.3906C1088.65 67.2344 1088.58 67.0391 1088.58 66.8047ZM1094.42 67V69.0469H1096V70.1641H1094.42V75.4062C1094.42 75.7448 1094.49 76 1094.63 76.1719C1094.77 76.3385 1095.01 76.4219 1095.35 76.4219C1095.52 76.4219 1095.75 76.3906 1096.04 76.3281V77.5C1095.66 77.6042 1095.29 77.6562 1094.93 77.6562C1094.28 77.6562 1093.8 77.4609 1093.47 77.0703C1093.14 76.6797 1092.98 76.125 1092.98 75.4062V70.1641H1091.44V69.0469H1092.98V67H1094.42ZM1099.27 77.5H1097.82V69.0469H1099.27V77.5ZM1097.7 66.8047C1097.7 66.5703 1097.77 66.3724 1097.91 66.2109C1098.06 66.0495 1098.27 65.9688 1098.55 65.9688C1098.84 65.9688 1099.05 66.0495 1099.2 66.2109C1099.34 66.3724 1099.41 66.5703 1099.41 66.8047C1099.41 67.0391 1099.34 67.2344 1099.2 67.3906C1099.05 67.5469 1098.84 67.625 1098.55 67.625C1098.27 67.625 1098.06 67.5469 1097.91 67.3906C1097.77 67.2344 1097.7 67.0391 1097.7 66.8047ZM1101.2 73.1953C1101.2 72.3672 1101.36 71.6224 1101.69 70.9609C1102.02 70.2995 1102.47 69.7891 1103.05 69.4297C1103.63 69.0703 1104.29 68.8906 1105.04 68.8906C1106.19 68.8906 1107.12 69.2891 1107.83 70.0859C1108.54 70.8828 1108.9 71.9427 1108.9 73.2656V73.3672C1108.9 74.1901 1108.74 74.9297 1108.42 75.5859C1108.11 76.237 1107.66 76.7448 1107.07 77.1094C1106.49 77.474 1105.82 77.6562 1105.05 77.6562C1103.91 77.6562 1102.98 77.2578 1102.27 76.4609C1101.56 75.6641 1101.2 74.6094 1101.2 73.2969V73.1953ZM1102.66 73.3672C1102.66 74.3047 1102.87 75.0573 1103.3 75.625C1103.74 76.1927 1104.33 76.4766 1105.05 76.4766C1105.79 76.4766 1106.37 76.1901 1106.8 75.6172C1107.24 75.0391 1107.45 74.2318 1107.45 73.1953C1107.45 72.2682 1107.23 71.5182 1106.79 70.9453C1106.35 70.3672 1105.77 70.0781 1105.04 70.0781C1104.33 70.0781 1103.75 70.362 1103.31 70.9297C1102.88 71.4974 1102.66 72.3099 1102.66 73.3672ZM1112.08 69.0469L1112.12 70.1094C1112.77 69.2969 1113.61 68.8906 1114.66 68.8906C1116.44 68.8906 1117.34 69.8984 1117.36 71.9141V77.5H1115.91V71.9062C1115.91 71.2969 1115.77 70.8464 1115.49 70.5547C1115.22 70.263 1114.8 70.1172 1114.22 70.1172C1113.75 70.1172 1113.34 70.2422 1112.98 70.4922C1112.63 70.7422 1112.35 71.0703 1112.16 71.4766V77.5H1110.71V69.0469H1112.08ZM1124.46 75.2578C1124.46 74.8672 1124.31 74.5651 1124.02 74.3516C1123.72 74.1328 1123.21 73.9453 1122.48 73.7891C1121.75 73.6328 1121.17 73.4453 1120.73 73.2266C1120.31 73.0078 1119.99 72.7474 1119.78 72.4453C1119.58 72.1432 1119.48 71.7839 1119.48 71.3672C1119.48 70.6745 1119.77 70.0885 1120.35 69.6094C1120.94 69.1302 1121.69 68.8906 1122.6 68.8906C1123.56 68.8906 1124.34 69.138 1124.93 69.6328C1125.53 70.1276 1125.83 70.7604 1125.83 71.5312H1124.38C1124.38 71.1354 1124.21 70.7943 1123.87 70.5078C1123.53 70.2214 1123.11 70.0781 1122.6 70.0781C1122.08 70.0781 1121.66 70.1927 1121.37 70.4219C1121.07 70.651 1120.92 70.9505 1120.92 71.3203C1120.92 71.6693 1121.06 71.9323 1121.34 72.1094C1121.61 72.2865 1122.11 72.4557 1122.83 72.6172C1123.55 72.7786 1124.14 72.9714 1124.59 73.1953C1125.03 73.4193 1125.36 73.6901 1125.58 74.0078C1125.8 74.3203 1125.91 74.7031 1125.91 75.1562C1125.91 75.9115 1125.6 76.5182 1125 76.9766C1124.4 77.4297 1123.61 77.6562 1122.65 77.6562C1121.97 77.6562 1121.37 77.5365 1120.85 77.2969C1120.33 77.0573 1119.92 76.724 1119.62 76.2969C1119.33 75.8646 1119.19 75.3984 1119.19 74.8984H1120.63C1120.66 75.3828 1120.85 75.7682 1121.21 76.0547C1121.58 76.3359 1122.05 76.4766 1122.65 76.4766C1123.2 76.4766 1123.63 76.3672 1123.96 76.1484C1124.29 75.9245 1124.46 75.6276 1124.46 75.2578Z" fill="#5452F6"/>
<rect x="752.5" y="37.5" width="602" height="364" rx="7.5" stroke="#5452F6"/>
</g>
<g filter="url(#filter6_d)">
<rect x="870" y="185" width="47" height="63" rx="8" fill="white"/>
<path d="M895.883 219.031H891.117L890.047 222H888.5L892.844 210.625H894.156L898.508 222H896.969L895.883 219.031ZM891.57 217.797H895.438L893.5 212.477L891.57 217.797Z" fill="#5452F6"/>
<rect x="870.5" y="185.5" width="46" height="62" rx="7.5" stroke="#5452F6"/>
</g>
<g filter="url(#filter7_d)">
<rect x="977" y="185" width="47" height="63" rx="8" fill="white"/>
<path d="M996.836 222V210.625H1000.55C1001.79 210.625 1002.72 210.88 1003.34 211.391C1003.96 211.901 1004.27 212.656 1004.27 213.656C1004.27 214.188 1004.12 214.659 1003.82 215.07C1003.52 215.477 1003.11 215.792 1002.59 216.016C1003.2 216.188 1003.68 216.516 1004.04 217C1004.4 217.479 1004.58 218.052 1004.58 218.719C1004.58 219.74 1004.25 220.542 1003.59 221.125C1002.92 221.708 1001.99 222 1000.78 222H996.836ZM998.336 216.68V220.773H1000.81C1001.51 220.773 1002.06 220.594 1002.46 220.234C1002.87 219.87 1003.07 219.37 1003.07 218.734C1003.07 217.365 1002.33 216.68 1000.84 216.68H998.336ZM998.336 215.477H1000.6C1001.26 215.477 1001.78 215.312 1002.17 214.984C1002.57 214.656 1002.77 214.211 1002.77 213.648C1002.77 213.023 1002.58 212.57 1002.22 212.289C1001.85 212.003 1001.3 211.859 1000.55 211.859H998.336V215.477Z" fill="#5452F6"/>
<rect x="977.5" y="185.5" width="46" height="62" rx="7.5" stroke="#5452F6"/>
</g>
<path d="M941.023 222C940.94 221.839 940.867 221.576 940.805 221.211C940.201 221.841 939.461 222.156 938.586 222.156C937.737 222.156 937.044 221.914 936.508 221.43C935.971 220.945 935.703 220.346 935.703 219.633C935.703 218.732 936.036 218.042 936.703 217.562C937.375 217.078 938.333 216.836 939.578 216.836H940.742V216.281C940.742 215.844 940.62 215.495 940.375 215.234C940.13 214.969 939.758 214.836 939.258 214.836C938.826 214.836 938.471 214.945 938.195 215.164C937.919 215.378 937.781 215.651 937.781 215.984H935.883C935.883 215.521 936.036 215.089 936.344 214.688C936.651 214.281 937.068 213.964 937.594 213.734C938.125 213.505 938.716 213.391 939.367 213.391C940.357 213.391 941.146 213.641 941.734 214.141C942.323 214.635 942.625 215.333 942.641 216.234V220.047C942.641 220.807 942.747 221.414 942.961 221.867V222H941.023ZM938.938 220.633C939.312 220.633 939.664 220.542 939.992 220.359C940.326 220.177 940.576 219.932 940.742 219.625V218.031H939.719C939.016 218.031 938.487 218.154 938.133 218.398C937.779 218.643 937.602 218.99 937.602 219.438C937.602 219.802 937.721 220.094 937.961 220.312C938.206 220.526 938.531 220.633 938.938 220.633ZM946.391 213.547L946.445 214.523C947.07 213.768 947.891 213.391 948.906 213.391C950.667 213.391 951.562 214.398 951.594 216.414V222H949.695V216.523C949.695 215.987 949.578 215.591 949.344 215.336C949.115 215.076 948.737 214.945 948.211 214.945C947.445 214.945 946.875 215.292 946.5 215.984V222H944.602V213.547H946.391ZM953.18 217.711C953.18 216.409 953.482 215.365 954.086 214.578C954.69 213.786 955.5 213.391 956.516 213.391C957.411 213.391 958.135 213.703 958.688 214.328V210H960.586V222H958.867L958.773 221.125C958.206 221.812 957.448 222.156 956.5 222.156C955.51 222.156 954.708 221.758 954.094 220.961C953.484 220.164 953.18 219.081 953.18 217.711ZM955.078 217.875C955.078 218.734 955.242 219.406 955.57 219.891C955.904 220.37 956.375 220.609 956.984 220.609C957.76 220.609 958.328 220.263 958.688 219.57V215.961C958.339 215.284 957.776 214.945 957 214.945C956.385 214.945 955.911 215.19 955.578 215.68C955.245 216.164 955.078 216.896 955.078 217.875Z" fill="#5452F6"/>
<g filter="url(#filter8_d)">
<rect x="1084" y="185" width="47" height="63" rx="8" fill="white"/>
<path d="M1111.98 218.391C1111.84 219.594 1111.39 220.523 1110.64 221.18C1109.9 221.831 1108.9 222.156 1107.66 222.156C1106.32 222.156 1105.24 221.674 1104.43 220.711C1103.62 219.747 1103.22 218.458 1103.22 216.844V215.75C1103.22 214.693 1103.41 213.763 1103.78 212.961C1104.16 212.159 1104.7 211.544 1105.39 211.117C1106.08 210.685 1106.89 210.469 1107.8 210.469C1109.01 210.469 1109.97 210.807 1110.7 211.484C1111.43 212.156 1111.86 213.089 1111.98 214.281H1110.47C1110.34 213.375 1110.05 212.719 1109.62 212.312C1109.18 211.906 1108.58 211.703 1107.8 211.703C1106.84 211.703 1106.09 212.057 1105.54 212.766C1105 213.474 1104.73 214.482 1104.73 215.789V216.891C1104.73 218.125 1104.98 219.107 1105.5 219.836C1106.02 220.565 1106.74 220.93 1107.66 220.93C1108.5 220.93 1109.14 220.742 1109.58 220.367C1110.03 219.987 1110.32 219.328 1110.47 218.391H1111.98Z" fill="#5452F6"/>
<rect x="1084.5" y="185.5" width="46" height="62" rx="7.5" stroke="#5452F6"/>
</g>
<g filter="url(#filter9_d)">
<rect x="1191" y="185" width="47" height="63" rx="8" fill="white"/>
<path d="M1210.57 222V210.625H1213.78C1214.77 210.625 1215.65 210.844 1216.41 211.281C1217.17 211.719 1217.75 212.341 1218.16 213.148C1218.58 213.956 1218.79 214.883 1218.8 215.93V216.656C1218.8 217.729 1218.59 218.669 1218.17 219.477C1217.76 220.284 1217.17 220.904 1216.4 221.336C1215.63 221.768 1214.74 221.99 1213.72 222H1210.57ZM1212.07 211.859V220.773H1213.65C1214.8 220.773 1215.7 220.414 1216.34 219.695C1216.99 218.977 1217.31 217.953 1217.31 216.625V215.961C1217.31 214.669 1217.01 213.667 1216.4 212.953C1215.79 212.234 1214.93 211.87 1213.82 211.859H1212.07Z" fill="#5452F6"/>
<rect x="1191.5" y="185.5" width="46" height="62" rx="7.5" stroke="#5452F6"/>
</g>
<path d="M1155.02 222C1154.94 221.839 1154.87 221.576 1154.8 221.211C1154.2 221.841 1153.46 222.156 1152.59 222.156C1151.74 222.156 1151.04 221.914 1150.51 221.43C1149.97 220.945 1149.7 220.346 1149.7 219.633C1149.7 218.732 1150.04 218.042 1150.7 217.562C1151.38 217.078 1152.33 216.836 1153.58 216.836H1154.74V216.281C1154.74 215.844 1154.62 215.495 1154.38 215.234C1154.13 214.969 1153.76 214.836 1153.26 214.836C1152.83 214.836 1152.47 214.945 1152.2 215.164C1151.92 215.378 1151.78 215.651 1151.78 215.984H1149.88C1149.88 215.521 1150.04 215.089 1150.34 214.688C1150.65 214.281 1151.07 213.964 1151.59 213.734C1152.12 213.505 1152.72 213.391 1153.37 213.391C1154.36 213.391 1155.15 213.641 1155.73 214.141C1156.32 214.635 1156.62 215.333 1156.64 216.234V220.047C1156.64 220.807 1156.75 221.414 1156.96 221.867V222H1155.02ZM1152.94 220.633C1153.31 220.633 1153.66 220.542 1153.99 220.359C1154.33 220.177 1154.58 219.932 1154.74 219.625V218.031H1153.72C1153.02 218.031 1152.49 218.154 1152.13 218.398C1151.78 218.643 1151.6 218.99 1151.6 219.438C1151.6 219.802 1151.72 220.094 1151.96 220.312C1152.21 220.526 1152.53 220.633 1152.94 220.633ZM1160.39 213.547L1160.45 214.523C1161.07 213.768 1161.89 213.391 1162.91 213.391C1164.67 213.391 1165.56 214.398 1165.59 216.414V222H1163.7V216.523C1163.7 215.987 1163.58 215.591 1163.34 215.336C1163.11 215.076 1162.74 214.945 1162.21 214.945C1161.45 214.945 1160.88 215.292 1160.5 215.984V222H1158.6V213.547H1160.39ZM1167.18 217.711C1167.18 216.409 1167.48 215.365 1168.09 214.578C1168.69 213.786 1169.5 213.391 1170.52 213.391C1171.41 213.391 1172.14 213.703 1172.69 214.328V210H1174.59V222H1172.87L1172.77 221.125C1172.21 221.812 1171.45 222.156 1170.5 222.156C1169.51 222.156 1168.71 221.758 1168.09 220.961C1167.48 220.164 1167.18 219.081 1167.18 217.711ZM1169.08 217.875C1169.08 218.734 1169.24 219.406 1169.57 219.891C1169.9 220.37 1170.38 220.609 1170.98 220.609C1171.76 220.609 1172.33 220.263 1172.69 219.57V215.961C1172.34 215.284 1171.78 214.945 1171 214.945C1170.39 214.945 1169.91 215.19 1169.58 215.68C1169.24 216.164 1169.08 216.896 1169.08 217.875Z" fill="#5452F6"/>
<path d="M1049.02 222C1048.94 221.839 1048.87 221.576 1048.8 221.211C1048.2 221.841 1047.46 222.156 1046.59 222.156C1045.74 222.156 1045.04 221.914 1044.51 221.43C1043.97 220.945 1043.7 220.346 1043.7 219.633C1043.7 218.732 1044.04 218.042 1044.7 217.562C1045.38 217.078 1046.33 216.836 1047.58 216.836H1048.74V216.281C1048.74 215.844 1048.62 215.495 1048.38 215.234C1048.13 214.969 1047.76 214.836 1047.26 214.836C1046.83 214.836 1046.47 214.945 1046.2 215.164C1045.92 215.378 1045.78 215.651 1045.78 215.984H1043.88C1043.88 215.521 1044.04 215.089 1044.34 214.688C1044.65 214.281 1045.07 213.964 1045.59 213.734C1046.12 213.505 1046.72 213.391 1047.37 213.391C1048.36 213.391 1049.15 213.641 1049.73 214.141C1050.32 214.635 1050.62 215.333 1050.64 216.234V220.047C1050.64 220.807 1050.75 221.414 1050.96 221.867V222H1049.02ZM1046.94 220.633C1047.31 220.633 1047.66 220.542 1047.99 220.359C1048.33 220.177 1048.58 219.932 1048.74 219.625V218.031H1047.72C1047.02 218.031 1046.49 218.154 1046.13 218.398C1045.78 218.643 1045.6 218.99 1045.6 219.438C1045.6 219.802 1045.72 220.094 1045.96 220.312C1046.21 220.526 1046.53 220.633 1046.94 220.633ZM1054.39 213.547L1054.45 214.523C1055.07 213.768 1055.89 213.391 1056.91 213.391C1058.67 213.391 1059.56 214.398 1059.59 216.414V222H1057.7V216.523C1057.7 215.987 1057.58 215.591 1057.34 215.336C1057.11 215.076 1056.74 214.945 1056.21 214.945C1055.45 214.945 1054.88 215.292 1054.5 215.984V222H1052.6V213.547H1054.39ZM1061.18 217.711C1061.18 216.409 1061.48 215.365 1062.09 214.578C1062.69 213.786 1063.5 213.391 1064.52 213.391C1065.41 213.391 1066.14 213.703 1066.69 214.328V210H1068.59V222H1066.87L1066.77 221.125C1066.21 221.812 1065.45 222.156 1064.5 222.156C1063.51 222.156 1062.71 221.758 1062.09 220.961C1061.48 220.164 1061.18 219.081 1061.18 217.711ZM1063.08 217.875C1063.08 218.734 1063.24 219.406 1063.57 219.891C1063.9 220.37 1064.38 220.609 1064.98 220.609C1065.76 220.609 1066.33 220.263 1066.69 219.57V215.961C1066.34 215.284 1065.78 214.945 1065 214.945C1064.39 214.945 1063.91 215.19 1063.58 215.68C1063.24 216.164 1063.08 216.896 1063.08 217.875Z" fill="#5452F6"/>
<path d="M649.66 200.443L662.336 205.256V210.477L644.354 202.463V198.316L662.336 190.324V195.545L649.66 200.443ZM687.021 197.242H668.502V192.902H687.021V197.242ZM687.021 206.352H668.502V202.033H687.021V206.352ZM706.035 200.336L692.758 195.459V190.324L711.32 198.316V202.463L692.758 210.455V205.32L706.035 200.336Z" fill="#5452F6"/>
<path d="M34.375 5.21875H30.8281V15H28.8672V5.21875H25.3516V3.625H34.375V5.21875ZM37.5625 7.46875C38.1823 6.75 38.9661 6.39062 39.9141 6.39062C41.7161 6.39062 42.6302 7.41927 42.6562 9.47656V15H40.7578V9.54688C40.7578 8.96354 40.6302 8.55208 40.375 8.3125C40.125 8.06771 39.7552 7.94531 39.2656 7.94531C38.5052 7.94531 37.9375 8.28385 37.5625 8.96094V15H35.6641V3H37.5625V7.46875ZM48.3047 15.1562C47.1016 15.1562 46.125 14.7786 45.375 14.0234C44.6302 13.263 44.2578 12.2526 44.2578 10.9922V10.7578C44.2578 9.91406 44.4193 9.16146 44.7422 8.5C45.0703 7.83333 45.5286 7.3151 46.1172 6.94531C46.7057 6.57552 47.362 6.39062 48.0859 6.39062C49.237 6.39062 50.125 6.75781 50.75 7.49219C51.3802 8.22656 51.6953 9.26562 51.6953 10.6094V11.375H46.1719C46.2292 12.0729 46.4609 12.625 46.8672 13.0312C47.2786 13.4375 47.7943 13.6406 48.4141 13.6406C49.2839 13.6406 49.9922 13.2891 50.5391 12.5859L51.5625 13.5625C51.224 14.0677 50.7708 14.4609 50.2031 14.7422C49.6406 15.0182 49.0078 15.1562 48.3047 15.1562ZM48.0781 7.91406C47.5573 7.91406 47.1354 8.09635 46.8125 8.46094C46.4948 8.82552 46.2917 9.33333 46.2031 9.98438H49.8203V9.84375C49.7786 9.20833 49.6094 8.72917 49.3125 8.40625C49.0156 8.07812 48.6042 7.91406 48.0781 7.91406ZM52.8203 10.6953C52.8203 9.86719 52.9844 9.1224 53.3125 8.46094C53.6406 7.79427 54.1016 7.28385 54.6953 6.92969C55.2891 6.57031 55.9714 6.39062 56.7422 6.39062C57.8828 6.39062 58.8073 6.75781 59.5156 7.49219C60.2292 8.22656 60.6146 9.20052 60.6719 10.4141L60.6797 10.8594C60.6797 11.6927 60.5182 12.4375 60.1953 13.0938C59.8776 13.75 59.4193 14.2578 58.8203 14.6172C58.2266 14.9766 57.5391 15.1562 56.7578 15.1562C55.5651 15.1562 54.6094 14.7604 53.8906 13.9688C53.1771 13.1719 52.8203 12.112 52.8203 10.7891V10.6953ZM54.7188 10.8594C54.7188 11.7292 54.8984 12.4115 55.2578 12.9062C55.6172 13.3958 56.1172 13.6406 56.7578 13.6406C57.3984 13.6406 57.8958 13.3906 58.25 12.8906C58.6094 12.3906 58.7891 11.6589 58.7891 10.6953C58.7891 9.84115 58.6042 9.16406 58.2344 8.66406C57.8698 8.16406 57.3724 7.91406 56.7422 7.91406C56.1224 7.91406 55.6302 8.16146 55.2656 8.65625C54.901 9.14583 54.7188 9.88021 54.7188 10.8594ZM66.7109 8.28125C66.4609 8.23958 66.2031 8.21875 65.9375 8.21875C65.0677 8.21875 64.4818 8.55208 64.1797 9.21875V15H62.2812V6.54688H64.0938L64.1406 7.49219C64.599 6.75781 65.2344 6.39062 66.0469 6.39062C66.3177 6.39062 66.5417 6.42708 66.7188 6.5L66.7109 8.28125ZM71.4766 15.1562C70.2734 15.1562 69.2969 14.7786 68.5469 14.0234C67.8021 13.263 67.4297 12.2526 67.4297 10.9922V10.7578C67.4297 9.91406 67.5911 9.16146 67.9141 8.5C68.2422 7.83333 68.7005 7.3151 69.2891 6.94531C69.8776 6.57552 70.5339 6.39062 71.2578 6.39062C72.4089 6.39062 73.2969 6.75781 73.9219 7.49219C74.5521 8.22656 74.8672 9.26562 74.8672 10.6094V11.375H69.3438C69.401 12.0729 69.6328 12.625 70.0391 13.0312C70.4505 13.4375 70.9661 13.6406 71.5859 13.6406C72.4557 13.6406 73.1641 13.2891 73.7109 12.5859L74.7344 13.5625C74.3958 14.0677 73.9427 14.4609 73.375 14.7422C72.8125 15.0182 72.1797 15.1562 71.4766 15.1562ZM71.25 7.91406C70.7292 7.91406 70.3073 8.09635 69.9844 8.46094C69.6667 8.82552 69.4635 9.33333 69.375 9.98438H72.9922V9.84375C72.9505 9.20833 72.7812 8.72917 72.4844 8.40625C72.1875 8.07812 71.776 7.91406 71.25 7.91406ZM78.1328 6.54688L78.1875 7.42969C78.7812 6.73698 79.5938 6.39062 80.625 6.39062C81.7552 6.39062 82.5286 6.82292 82.9453 7.6875C83.5599 6.82292 84.4245 6.39062 85.5391 6.39062C86.4714 6.39062 87.1641 6.64844 87.6172 7.16406C88.0755 7.67969 88.3099 8.4401 88.3203 9.44531V15H86.4219V9.5C86.4219 8.96354 86.3047 8.57031 86.0703 8.32031C85.8359 8.07031 85.4479 7.94531 84.9062 7.94531C84.474 7.94531 84.1198 8.0625 83.8438 8.29688C83.5729 8.52604 83.3828 8.82812 83.2734 9.20312L83.2812 15H81.3828V9.4375C81.3568 8.44271 80.849 7.94531 79.8594 7.94531C79.099 7.94531 78.5599 8.25521 78.2422 8.875V15H76.3438V6.54688H78.1328Z" fill="#5452F6"/>
<path d="M641.109 239.742H636.18V243.773H641.906V245H634.68V233.625H641.828V234.859H636.18V238.516H641.109V239.742ZM652.461 239.68C652.461 240.779 652.286 241.727 651.938 242.523C651.589 243.315 651.099 243.935 650.469 244.383L652.5 245.977L651.477 246.922L649.078 245.016C648.703 245.109 648.307 245.156 647.891 245.156C646.995 245.156 646.201 244.938 645.508 244.5C644.815 244.057 644.276 243.43 643.891 242.617C643.51 241.799 643.315 240.854 643.305 239.781V238.961C643.305 237.867 643.495 236.901 643.875 236.062C644.255 235.224 644.792 234.583 645.484 234.141C646.182 233.693 646.979 233.469 647.875 233.469C648.792 233.469 649.596 233.69 650.289 234.133C650.987 234.576 651.523 235.214 651.898 236.047C652.273 236.875 652.461 237.844 652.461 238.953V239.68ZM650.961 238.945C650.961 237.607 650.693 236.576 650.156 235.852C649.625 235.122 648.865 234.758 647.875 234.758C646.932 234.758 646.188 235.12 645.641 235.844C645.099 236.562 644.82 237.562 644.805 238.844V239.68C644.805 240.982 645.076 242.008 645.617 242.758C646.164 243.508 646.922 243.883 647.891 243.883C648.859 243.883 649.609 243.531 650.141 242.828C650.672 242.12 650.945 241.107 650.961 239.789V238.945ZM662.781 233.625V241.359C662.776 242.432 662.438 243.31 661.766 243.992C661.099 244.674 660.193 245.057 659.047 245.141L658.648 245.156C657.404 245.156 656.411 244.82 655.672 244.148C654.932 243.477 654.557 242.552 654.547 241.375V233.625H656.031V241.328C656.031 242.151 656.258 242.792 656.711 243.25C657.164 243.703 657.81 243.93 658.648 243.93C659.497 243.93 660.146 243.703 660.594 243.25C661.047 242.797 661.273 242.159 661.273 241.336V233.625H662.781ZM666.758 245H665.258V233.625H666.758V245ZM673.273 243.008L676.523 233.625H678.164L673.945 245H672.617L668.406 233.625H670.039L673.273 243.008ZM685.383 242.031H680.617L679.547 245H678L682.344 233.625H683.656L688.008 245H686.469L685.383 242.031ZM681.07 240.797H684.938L683 235.477L681.07 240.797ZM691.047 243.773H696.438V245H689.539V233.625H691.047V243.773ZM704.578 239.742H699.648V243.773H705.375V245H698.148V233.625H705.297V234.859H699.648V238.516H704.578V239.742ZM715.984 245H714.477L708.75 236.234V245H707.242V233.625H708.75L714.492 242.43V233.625H715.984V245ZM726.273 234.859H722.617V245H721.125V234.859H717.477V233.625H726.273V234.859Z" fill="#5452F6"/>
<defs>
<filter id="filter0_d" x="0" y="37" width="607" height="369" filterUnits="userSpaceOnUse" color-interpolation-filters="sRGB">
<feFlood flood-opacity="0" result="BackgroundImageFix"/>
<feColorMatrix in="SourceAlpha" type="matrix" values="0 0 0 0 0 0 0 0 0 0 0 0 0 0 0 0 0 0 127 0"/>
<feOffset dx="4" dy="4"/>
<feColorMatrix type="matrix" values="0 0 0 0 0.674908 0 0 0 0 0.662083 0 0 0 0 0.945833 0 0 0 1 0"/>
<feBlend mode="normal" in2="BackgroundImageFix" result="effect1_dropShadow"/>
<feBlend mode="normal" in="SourceGraphic" in2="effect1_dropShadow" result="shape"/>
</filter>
<filter id="filter1_d" x="47" y="115" width="212" height="247" filterUnits="userSpaceOnUse" color-interpolation-filters="sRGB">
<feFlood flood-opacity="0" result="BackgroundImageFix"/>
<feColorMatrix in="SourceAlpha" type="matrix" values="0 0 0 0 0 0 0 0 0 0 0 0 0 0 0 0 0 0 127 0"/>
<feOffset dx="4" dy="4"/>
<feColorMatrix type="matrix" values="0 0 0 0 0.674908 0 0 0 0 0.662083 0 0 0 0 0.945833 0 0 0 1 0"/>
<feBlend mode="normal" in2="BackgroundImageFix" result="effect1_dropShadow"/>
<feBlend mode="normal" in="SourceGraphic" in2="effect1_dropShadow" result="shape"/>
</filter>
<filter id="filter2_d" x="52.5" y="137" width="201" height="101" filterUnits="userSpaceOnUse" color-interpolation-filters="sRGB">
<feFlood flood-opacity="0" result="BackgroundImageFix"/>
<feColorMatrix in="SourceAlpha" type="matrix" values="0 0 0 0 0 0 0 0 0 0 0 0 0 0 0 0 0 0 127 0"/>
<feOffset dx="4" dy="4"/>
<feColorMatrix type="matrix" values="0 0 0 0 0.513733 0 0 0 0 0.767915 0 0 0 0 0.970833 0 0 0 1 0"/>
<feBlend mode="normal" in2="BackgroundImageFix" result="effect1_dropShadow"/>
<feBlend mode="normal" in="SourceGraphic" in2="effect1_dropShadow" result="shape"/>
</filter>
<filter id="filter3_d" x="52.5" y="244" width="201" height="96" filterUnits="userSpaceOnUse" color-interpolation-filters="sRGB">
<feFlood flood-opacity="0" result="BackgroundImageFix"/>
<feColorMatrix in="SourceAlpha" type="matrix" values="0 0 0 0 0 0 0 0 0 0 0 0 0 0 0 0 0 0 127 0"/>
<feOffset dx="4" dy="4"/>
<feColorMatrix type="matrix" values="0 0 0 0 0.578021 0 0 0 0 0.775 0 0 0 0 0.608662 0 0 0 1 0"/>
<feBlend mode="normal" in2="BackgroundImageFix" result="effect1_dropShadow"/>
<feBlend mode="normal" in="SourceGraphic" in2="effect1_dropShadow" result="shape"/>
</filter>
<filter id="filter4_d" x="331" y="185.479" width="229" height="106.042" filterUnits="userSpaceOnUse" color-interpolation-filters="sRGB">
<feFlood flood-opacity="0" result="BackgroundImageFix"/>
<feColorMatrix in="SourceAlpha" type="matrix" values="0 0 0 0 0 0 0 0 0 0 0 0 0 0 0 0 0 0 127 0"/>
<feOffset dx="4" dy="4"/>
<feColorMatrix type="matrix" values="0 0 0 0 0.952941 0 0 0 0 0.639216 0 0 0 0 0.619608 0 0 0 1 0"/>
<feBlend mode="normal" in2="BackgroundImageFix" result="effect1_dropShadow"/>
<feBlend mode="normal" in="SourceGraphic" in2="effect1_dropShadow" result="shape"/>
</filter>
<filter id="filter5_d" x="752" y="37" width="607" height="369" filterUnits="userSpaceOnUse" color-interpolation-filters="sRGB">
<feFlood flood-opacity="0" result="BackgroundImageFix"/>
<feColorMatrix in="SourceAlpha" type="matrix" values="0 0 0 0 0 0 0 0 0 0 0 0 0 0 0 0 0 0 127 0"/>
<feOffset dx="4" dy="4"/>
<feColorMatrix type="matrix" values="0 0 0 0 0.674908 0 0 0 0 0.662083 0 0 0 0 0.945833 0 0 0 1 0"/>
<feBlend mode="normal" in2="BackgroundImageFix" result="effect1_dropShadow"/>
<feBlend mode="normal" in="SourceGraphic" in2="effect1_dropShadow" result="shape"/>
</filter>
<filter id="filter6_d" x="870" y="185" width="51" height="67" filterUnits="userSpaceOnUse" color-interpolation-filters="sRGB">
<feFlood flood-opacity="0" result="BackgroundImageFix"/>
<feColorMatrix in="SourceAlpha" type="matrix" values="0 0 0 0 0 0 0 0 0 0 0 0 0 0 0 0 0 0 127 0"/>
<feOffset dx="4" dy="4"/>
<feColorMatrix type="matrix" values="0 0 0 0 0.674908 0 0 0 0 0.662083 0 0 0 0 0.945833 0 0 0 1 0"/>
<feBlend mode="normal" in2="BackgroundImageFix" result="effect1_dropShadow"/>
<feBlend mode="normal" in="SourceGraphic" in2="effect1_dropShadow" result="shape"/>
</filter>
<filter id="filter7_d" x="977" y="185" width="51" height="67" filterUnits="userSpaceOnUse" color-interpolation-filters="sRGB">
<feFlood flood-opacity="0" result="BackgroundImageFix"/>
<feColorMatrix in="SourceAlpha" type="matrix" values="0 0 0 0 0 0 0 0 0 0 0 0 0 0 0 0 0 0 127 0"/>
<feOffset dx="4" dy="4"/>
<feColorMatrix type="matrix" values="0 0 0 0 0.674908 0 0 0 0 0.662083 0 0 0 0 0.945833 0 0 0 1 0"/>
<feBlend mode="normal" in2="BackgroundImageFix" result="effect1_dropShadow"/>
<feBlend mode="normal" in="SourceGraphic" in2="effect1_dropShadow" result="shape"/>
</filter>
<filter id="filter8_d" x="1084" y="185" width="51" height="67" filterUnits="userSpaceOnUse" color-interpolation-filters="sRGB">
<feFlood flood-opacity="0" result="BackgroundImageFix"/>
<feColorMatrix in="SourceAlpha" type="matrix" values="0 0 0 0 0 0 0 0 0 0 0 0 0 0 0 0 0 0 127 0"/>
<feOffset dx="4" dy="4"/>
<feColorMatrix type="matrix" values="0 0 0 0 0.674908 0 0 0 0 0.662083 0 0 0 0 0.945833 0 0 0 1 0"/>
<feBlend mode="normal" in2="BackgroundImageFix" result="effect1_dropShadow"/>
<feBlend mode="normal" in="SourceGraphic" in2="effect1_dropShadow" result="shape"/>
</filter>
<filter id="filter9_d" x="1191" y="185" width="51" height="67" filterUnits="userSpaceOnUse" color-interpolation-filters="sRGB">
<feFlood flood-opacity="0" result="BackgroundImageFix"/>
<feColorMatrix in="SourceAlpha" type="matrix" values="0 0 0 0 0 0 0 0 0 0 0 0 0 0 0 0 0 0 127 0"/>
<feOffset dx="4" dy="4"/>
<feColorMatrix type="matrix" values="0 0 0 0 0.674908 0 0 0 0 0.662083 0 0 0 0 0.945833 0 0 0 1 0"/>
<feBlend mode="normal" in2="BackgroundImageFix" result="effect1_dropShadow"/>
<feBlend mode="normal" in="SourceGraphic" in2="effect1_dropShadow" result="shape"/>
</filter>
<clipPath id="clip0">
<rect width="24" height="24" fill="white" transform="translate(178.375 59)"/>
</clipPath>
<clipPath id="clip1">
<rect x="331" y="185.479" width="225" height="102.042" rx="8" fill="white"/>
</clipPath>
<clipPath id="clip2">
<rect width="32" height="32" fill="white" transform="translate(427.5 207.479)"/>
</clipPath>
<clipPath id="clip3">
<rect width="24" height="24" fill="white" transform="translate(979.875 59)"/>
</clipPath>
</defs>
</svg>
