<svg width="468" height="194" viewBox="0 0 468 194" fill="none" xmlns="http://www.w3.org/2000/svg">
<path d="M35.5254 11L26.7623 1.33991C26.3579 0.894086 25.6541 0.903982 25.2624 1.361L17.0004 11" stroke="#5452F6" stroke-width="1.5"/>
<path d="M9.25684 65.3535L1.04687 62.5098L1.04687 61.0742L11 64.7656L11 65.9277L1.04687 69.6123L1.04687 68.1836L9.25684 65.3535ZM7.2334 60.582C6.50879 60.582 5.8571 60.4408 5.27832 60.1582C4.69954 59.8711 4.25293 59.4746 3.93848 58.9687C3.62402 58.4583 3.4668 57.8773 3.4668 57.2256C3.4668 56.2184 3.81543 55.4049 4.51269 54.7852C5.20996 54.1608 6.13737 53.8486 7.29492 53.8486L7.38379 53.8486C8.10384 53.8486 8.75098 53.9876 9.32519 54.2656C9.89486 54.5391 10.3392 54.9333 10.6582 55.4482C10.9772 55.9587 11.1367 56.5465 11.1367 57.2119C11.1367 58.2145 10.7881 59.028 10.0908 59.6523C9.39355 60.2721 8.4707 60.582 7.32226 60.582L7.2334 60.582ZM7.38379 59.3105C8.2041 59.3105 8.86263 59.1214 9.35937 58.7432C9.85612 58.3604 10.1045 57.8499 10.1045 57.2119C10.1045 56.5693 9.85384 56.0589 9.35254 55.6807C8.84668 55.3024 8.1403 55.1133 7.2334 55.1133C6.4222 55.1133 5.76595 55.307 5.26465 55.6943C4.75879 56.0771 4.50586 56.5876 4.50586 57.2256C4.50586 57.8499 4.75423 58.3535 5.25098 58.7363C5.74772 59.1191 6.45866 59.3105 7.38379 59.3105ZM11 50.8887L11 52.1533L0.499999 52.1533L0.499999 50.8887L11 50.8887ZM11 44.292C10.8542 44.3649 10.5944 44.4242 10.2207 44.4697C10.8314 45.0576 11.1367 45.7594 11.1367 46.5752C11.1367 47.3044 10.9316 47.9036 10.5215 48.373C10.1068 48.8379 9.58268 49.0703 8.94922 49.0703C8.17904 49.0703 7.58203 48.7786 7.1582 48.1953C6.72982 47.6074 6.51562 46.7826 6.51562 45.7207L6.51562 44.4902L5.93457 44.4902C5.49251 44.4902 5.1416 44.6224 4.88183 44.8867C4.61751 45.151 4.48535 45.5407 4.48535 46.0557C4.48535 46.5068 4.59928 46.8851 4.82715 47.1904C5.05501 47.4958 5.33073 47.6484 5.6543 47.6484L5.6543 48.9199C5.28515 48.9199 4.92969 48.79 4.58789 48.5303C4.24153 48.266 3.9681 47.9105 3.76758 47.4639C3.56706 47.0127 3.4668 46.5182 3.4668 45.9805C3.4668 45.1283 3.68099 44.4606 4.10937 43.9775C4.5332 43.4945 5.11881 43.2438 5.86621 43.2256L9.27051 43.2256C9.94954 43.2256 10.4896 43.139 10.8906 42.9658L11 42.9658L11 44.292ZM10.0361 46.3906C10.0361 45.9941 9.93359 45.6182 9.72851 45.2627C9.52344 44.9072 9.25683 44.6497 8.92871 44.4902L7.41113 44.4902L7.41113 45.4814C7.41113 47.0309 7.86458 47.8057 8.77148 47.8057C9.16797 47.8057 9.47786 47.6735 9.70117 47.4092C9.92448 47.1449 10.0361 46.8053 10.0361 46.3906ZM1.8125 39.5273L3.60351 39.5273L3.60351 38.1465L4.58105 38.1465L4.58105 39.5273L9.16797 39.5273C9.46419 39.5273 9.6875 39.4658 9.83789 39.3428C9.98372 39.2197 10.0566 39.0101 10.0566 38.7139C10.0566 38.568 10.0293 38.3675 9.97461 38.1123L11 38.1123C11.0911 38.445 11.1367 38.7686 11.1367 39.083C11.1367 39.6481 10.9658 40.0742 10.624 40.3613C10.2822 40.6484 9.79687 40.792 9.16797 40.792L4.58105 40.792L4.58105 42.1387L3.60351 42.1387L3.60351 40.792L1.8125 40.792L1.8125 39.5273ZM11 35.2891L11 36.5537L3.60351 36.5537L3.60351 35.2891L11 35.2891ZM1.6416 36.6562C1.43652 36.6562 1.26334 36.5947 1.12207 36.4717C0.980792 36.3441 0.910154 36.1572 0.910154 35.9111C0.910154 35.665 0.980792 35.4782 1.12207 35.3506C1.26334 35.223 1.43652 35.1592 1.6416 35.1592C1.84668 35.1592 2.01758 35.223 2.15429 35.3506C2.29101 35.4782 2.35937 35.665 2.35937 35.9111C2.35937 36.1572 2.29101 36.3441 2.15429 36.4717C2.01758 36.5947 1.84668 36.6562 1.6416 36.6562ZM11 31.8848L11 33.1494L0.499998 33.1494L0.499998 31.8848L11 31.8848ZM11 28.4805L11 29.7451L3.60351 29.7451L3.60351 28.4805L11 28.4805ZM1.6416 29.8477C1.43652 29.8477 1.26334 29.7861 1.12207 29.6631C0.980792 29.5355 0.910154 29.3486 0.910154 29.1025C0.910154 28.8564 0.980792 28.6696 1.12207 28.542C1.26334 28.4144 1.43652 28.3506 1.6416 28.3506C1.84668 28.3506 2.01758 28.4144 2.15429 28.542C2.29101 28.6696 2.35937 28.8564 2.35937 29.1025C2.35937 29.3486 2.29101 29.5355 2.15429 29.6631C2.01758 29.7861 1.84668 29.8477 1.6416 29.8477ZM1.8125 24.7344L3.60351 24.7344L3.60351 23.3535L4.58105 23.3535L4.58105 24.7344L9.16797 24.7344C9.46419 24.7344 9.6875 24.6729 9.83789 24.5498C9.98372 24.4268 10.0566 24.2171 10.0566 23.9209C10.0566 23.7751 10.0293 23.5745 9.97461 23.3193L11 23.3193C11.0911 23.652 11.1367 23.9756 11.1367 24.29C11.1367 24.8551 10.9658 25.2812 10.624 25.5684C10.2822 25.8555 9.79687 25.999 9.16797 25.999L4.58105 25.999L4.58105 27.3457L3.60351 27.3457L3.60351 25.999L1.8125 25.999L1.8125 24.7344ZM9.14746 19.4502L3.60351 17.7275L3.60351 16.374L12.1416 19.3477C13.3721 19.8079 13.9873 20.5394 13.9873 21.542L13.9668 21.7812L13.8779 22.2529L12.8525 22.2529L12.8799 21.9111C12.8799 21.4827 12.7933 21.1501 12.6201 20.9131C12.4469 20.6715 12.1302 20.4733 11.6699 20.3184L10.918 20.0381L3.60351 22.6768L3.60351 21.2959L9.14746 19.4502Z" fill="#5452F6"/>
<path d="M25.5 37C43.0736 29.58 51.4631 19.2181 70.5 18C106.722 15.6823 111.618 61.4688 146.5 71.5C175.962 79.9724 195.236 64.1596 225 71.5C263.664 81.0353 274.239 111.448 311.5 125.5C341.705 136.892 360.245 140.668 392.5 142" stroke="#2097F6"/>
<path d="M26 103.5C42.061 90.0108 51.673 83.0503 69.5 72C97.9346 54.3743 113.702 38.7304 147 35.5C178.305 32.463 196.325 41.7501 225.5 53.5C261.621 68.0474 272.714 93.8693 309 108C339.974 120.062 359.267 123.874 392.5 124.5" stroke="#FF5A43"/>
<path d="M26 71C43.1831 84.8636 52.4076 93.1596 70 106.5C99.5608 128.916 111.765 154.818 148.5 160C179.356 164.353 195.606 147.877 226 141C259.055 133.521 278.65 133.602 311 123.5C344.896 112.916 363.534 104.88 394.5 87.5" stroke="#65BF73"/>
<line x1="26" y1="108.5" x2="396" y2="108.5" stroke="#DE1306"/>
<path d="M26 173L26 2" stroke="#5452F6" stroke-width="1.5" stroke-linecap="round" stroke-linejoin="round"/>
<path d="M26 173H402" stroke="#5452F6" stroke-width="1.5" stroke-linecap="round" stroke-linejoin="round"/>
<path d="M393 182.525L402.66 173.762C403.106 173.357 403.096 172.654 402.639 172.262L393 164" stroke="#5452F6" stroke-width="1.5"/>
<path d="M406.088 107.563C404.962 107.24 404.142 106.843 403.627 106.374C403.117 105.9 402.861 105.317 402.861 104.624C402.861 103.84 403.174 103.193 403.798 102.683C404.427 102.168 405.243 101.91 406.245 101.91C406.929 101.91 407.537 102.042 408.07 102.307C408.608 102.571 409.023 102.936 409.314 103.4C409.611 103.865 409.759 104.373 409.759 104.925H408.439C408.439 104.323 408.248 103.852 407.865 103.51C407.482 103.163 406.942 102.99 406.245 102.99C405.598 102.99 405.092 103.134 404.728 103.421C404.368 103.703 404.188 104.098 404.188 104.604C404.188 105.009 404.358 105.353 404.7 105.636C405.047 105.914 405.632 106.169 406.457 106.401C407.286 106.634 407.934 106.891 408.398 107.174C408.868 107.452 409.214 107.778 409.438 108.151C409.665 108.525 409.779 108.965 409.779 109.471C409.779 110.277 409.465 110.924 408.836 111.412C408.207 111.895 407.366 112.137 406.313 112.137C405.63 112.137 404.992 112.007 404.399 111.747C403.807 111.483 403.349 111.123 403.025 110.667C402.706 110.211 402.547 109.694 402.547 109.115H403.866C403.866 109.717 404.087 110.193 404.529 110.544C404.976 110.89 405.571 111.063 406.313 111.063C407.006 111.063 407.537 110.922 407.906 110.64C408.275 110.357 408.46 109.972 408.46 109.484C408.46 108.997 408.289 108.621 407.947 108.356C407.605 108.088 406.986 107.823 406.088 107.563ZM412.985 102.812V104.604H414.366V105.581H412.985V110.168C412.985 110.464 413.047 110.688 413.17 110.838C413.293 110.984 413.503 111.057 413.799 111.057C413.945 111.057 414.145 111.029 414.4 110.975V112C414.068 112.091 413.744 112.137 413.43 112.137C412.865 112.137 412.438 111.966 412.151 111.624C411.864 111.282 411.721 110.797 411.721 110.168V105.581H410.374V104.604H411.721V102.812H412.985ZM420.416 112C420.343 111.854 420.284 111.594 420.238 111.221C419.65 111.831 418.949 112.137 418.133 112.137C417.404 112.137 416.804 111.932 416.335 111.521C415.87 111.107 415.638 110.583 415.638 109.949C415.638 109.179 415.929 108.582 416.513 108.158C417.101 107.73 417.925 107.516 418.987 107.516H420.218V106.935C420.218 106.493 420.086 106.142 419.821 105.882C419.557 105.618 419.167 105.485 418.652 105.485C418.201 105.485 417.823 105.599 417.518 105.827C417.212 106.055 417.06 106.331 417.06 106.654H415.788C415.788 106.285 415.918 105.93 416.178 105.588C416.442 105.242 416.798 104.968 417.244 104.768C417.695 104.567 418.19 104.467 418.728 104.467C419.58 104.467 420.247 104.681 420.73 105.109C421.214 105.533 421.464 106.119 421.482 106.866V110.271C421.482 110.95 421.569 111.49 421.742 111.891V112H420.416ZM418.317 111.036C418.714 111.036 419.09 110.934 419.445 110.729C419.801 110.523 420.058 110.257 420.218 109.929V108.411H419.227C417.677 108.411 416.902 108.865 416.902 109.771C416.902 110.168 417.035 110.478 417.299 110.701C417.563 110.924 417.903 111.036 418.317 111.036ZM429.727 108.384C429.727 109.514 429.467 110.423 428.947 111.111C428.428 111.795 427.73 112.137 426.855 112.137C425.921 112.137 425.199 111.806 424.688 111.146L424.627 112H423.465V101.5H424.729V105.417C425.24 104.784 425.944 104.467 426.842 104.467C427.74 104.467 428.444 104.806 428.954 105.485C429.469 106.164 429.727 107.094 429.727 108.274V108.384ZM428.462 108.24C428.462 107.379 428.296 106.714 427.963 106.244C427.63 105.775 427.152 105.54 426.527 105.54C425.693 105.54 425.094 105.927 424.729 106.702V109.901C425.117 110.676 425.721 111.063 426.541 111.063C427.147 111.063 427.619 110.829 427.956 110.359C428.293 109.89 428.462 109.184 428.462 108.24ZM432.7 112H431.436V101.5H432.7V112ZM437.8 112.137C436.797 112.137 435.981 111.809 435.353 111.152C434.724 110.492 434.409 109.61 434.409 108.507V108.274C434.409 107.541 434.548 106.887 434.826 106.312C435.109 105.734 435.501 105.283 436.002 104.959C436.508 104.631 437.055 104.467 437.643 104.467C438.604 104.467 439.352 104.784 439.885 105.417C440.418 106.05 440.685 106.957 440.685 108.138V108.664H435.674C435.692 109.393 435.904 109.983 436.31 110.435C436.72 110.881 437.239 111.104 437.868 111.104C438.315 111.104 438.693 111.013 439.003 110.831C439.313 110.649 439.584 110.407 439.816 110.106L440.589 110.708C439.969 111.66 439.039 112.137 437.8 112.137ZM437.643 105.506C437.132 105.506 436.704 105.693 436.357 106.066C436.011 106.436 435.797 106.955 435.715 107.625H439.42V107.529C439.383 106.887 439.21 106.39 438.9 106.039C438.59 105.684 438.171 105.506 437.643 105.506ZM445.121 111.104C445.572 111.104 445.966 110.968 446.304 110.694C446.641 110.421 446.828 110.079 446.864 109.669H448.061C448.038 110.093 447.892 110.496 447.623 110.879C447.354 111.262 446.994 111.567 446.543 111.795C446.096 112.023 445.622 112.137 445.121 112.137C444.114 112.137 443.312 111.802 442.715 111.132C442.122 110.457 441.826 109.537 441.826 108.37V108.158C441.826 107.438 441.958 106.798 442.223 106.237C442.487 105.677 442.865 105.242 443.357 104.932C443.854 104.622 444.44 104.467 445.114 104.467C445.944 104.467 446.632 104.715 447.179 105.212C447.73 105.709 448.024 106.354 448.061 107.146H446.864C446.828 106.668 446.646 106.276 446.317 105.971C445.994 105.661 445.593 105.506 445.114 105.506C444.472 105.506 443.973 105.738 443.617 106.203C443.266 106.663 443.091 107.331 443.091 108.206V108.445C443.091 109.298 443.266 109.954 443.617 110.414C443.968 110.874 444.469 111.104 445.121 111.104ZM449.147 108.233C449.147 107.509 449.289 106.857 449.571 106.278C449.858 105.7 450.255 105.253 450.761 104.938C451.271 104.624 451.852 104.467 452.504 104.467C453.511 104.467 454.325 104.815 454.944 105.513C455.569 106.21 455.881 107.137 455.881 108.295V108.384C455.881 109.104 455.742 109.751 455.464 110.325C455.19 110.895 454.796 111.339 454.281 111.658C453.771 111.977 453.183 112.137 452.518 112.137C451.515 112.137 450.701 111.788 450.077 111.091C449.457 110.394 449.147 109.471 449.147 108.322V108.233ZM450.419 108.384C450.419 109.204 450.608 109.863 450.986 110.359C451.369 110.856 451.88 111.104 452.518 111.104C453.16 111.104 453.671 110.854 454.049 110.353C454.427 109.847 454.616 109.14 454.616 108.233C454.616 107.422 454.423 106.766 454.035 106.265C453.652 105.759 453.142 105.506 452.504 105.506C451.88 105.506 451.376 105.754 450.993 106.251C450.61 106.748 450.419 107.459 450.419 108.384ZM458.841 112H457.576V104.604H458.841V112ZM457.474 102.642C457.474 102.437 457.535 102.263 457.658 102.122C457.786 101.981 457.973 101.91 458.219 101.91C458.465 101.91 458.652 101.981 458.779 102.122C458.907 102.263 458.971 102.437 458.971 102.642C458.971 102.847 458.907 103.018 458.779 103.154C458.652 103.291 458.465 103.359 458.219 103.359C457.973 103.359 457.786 103.291 457.658 103.154C457.535 103.018 457.474 102.847 457.474 102.642ZM462.067 104.604L462.108 105.533C462.674 104.822 463.412 104.467 464.323 104.467C465.886 104.467 466.675 105.349 466.688 107.112V112H465.424V107.105C465.419 106.572 465.296 106.178 465.055 105.923C464.818 105.668 464.446 105.54 463.94 105.54C463.53 105.54 463.17 105.649 462.86 105.868C462.55 106.087 462.309 106.374 462.136 106.729V112H460.871V104.604H462.067Z" fill="#DE1306"/>
<path d="M403.155 130V120.047H406.409C407.489 120.047 408.3 120.27 408.843 120.717C409.39 121.163 409.663 121.824 409.663 122.699C409.663 123.164 409.531 123.576 409.267 123.937C409.002 124.292 408.642 124.568 408.187 124.764C408.724 124.914 409.148 125.201 409.458 125.625C409.772 126.044 409.93 126.546 409.93 127.129C409.93 128.022 409.64 128.724 409.062 129.234C408.483 129.745 407.665 130 406.607 130H403.155ZM404.468 125.345V128.927H406.635C407.245 128.927 407.726 128.77 408.077 128.455C408.433 128.136 408.61 127.699 408.61 127.143C408.61 125.944 407.959 125.345 406.655 125.345H404.468ZM404.468 124.292H406.45C407.024 124.292 407.482 124.148 407.824 123.861C408.171 123.574 408.344 123.185 408.344 122.692C408.344 122.146 408.184 121.749 407.865 121.503C407.546 121.252 407.061 121.127 406.409 121.127H404.468V124.292ZM413.054 130H411.789V122.604H413.054V130ZM411.687 120.642C411.687 120.437 411.748 120.263 411.871 120.122C411.999 119.981 412.186 119.91 412.432 119.91C412.678 119.91 412.865 119.981 412.992 120.122C413.12 120.263 413.184 120.437 413.184 120.642C413.184 120.847 413.12 121.018 412.992 121.154C412.865 121.291 412.678 121.359 412.432 121.359C412.186 121.359 411.999 121.291 411.871 121.154C411.748 121.018 411.687 120.847 411.687 120.642ZM416.8 120.812V122.604H418.181V123.581H416.8V128.168C416.8 128.464 416.861 128.688 416.984 128.838C417.107 128.984 417.317 129.057 417.613 129.057C417.759 129.057 417.96 129.029 418.215 128.975V130C417.882 130.091 417.559 130.137 417.244 130.137C416.679 130.137 416.253 129.966 415.966 129.624C415.679 129.282 415.535 128.797 415.535 128.168V123.581H414.188V122.604H415.535V120.812H416.8ZM422.631 129.104C423.082 129.104 423.476 128.968 423.813 128.694C424.151 128.421 424.338 128.079 424.374 127.669H425.57C425.548 128.093 425.402 128.496 425.133 128.879C424.864 129.262 424.504 129.567 424.053 129.795C423.606 130.023 423.132 130.137 422.631 130.137C421.624 130.137 420.822 129.802 420.225 129.132C419.632 128.457 419.336 127.537 419.336 126.37V126.158C419.336 125.438 419.468 124.798 419.732 124.237C419.997 123.677 420.375 123.242 420.867 122.932C421.364 122.622 421.95 122.467 422.624 122.467C423.453 122.467 424.142 122.715 424.688 123.212C425.24 123.709 425.534 124.354 425.57 125.146H424.374C424.338 124.668 424.155 124.276 423.827 123.971C423.504 123.661 423.103 123.506 422.624 123.506C421.981 123.506 421.482 123.738 421.127 124.203C420.776 124.663 420.601 125.331 420.601 126.206V126.445C420.601 127.298 420.776 127.954 421.127 128.414C421.478 128.874 421.979 129.104 422.631 129.104ZM426.657 126.233C426.657 125.509 426.799 124.857 427.081 124.278C427.368 123.7 427.765 123.253 428.271 122.938C428.781 122.624 429.362 122.467 430.014 122.467C431.021 122.467 431.834 122.815 432.454 123.513C433.078 124.21 433.391 125.137 433.391 126.295V126.384C433.391 127.104 433.252 127.751 432.974 128.325C432.7 128.895 432.306 129.339 431.791 129.658C431.281 129.977 430.693 130.137 430.027 130.137C429.025 130.137 428.211 129.788 427.587 129.091C426.967 128.394 426.657 127.471 426.657 126.322V126.233ZM427.929 126.384C427.929 127.204 428.118 127.863 428.496 128.359C428.879 128.856 429.389 129.104 430.027 129.104C430.67 129.104 431.18 128.854 431.559 128.353C431.937 127.847 432.126 127.14 432.126 126.233C432.126 125.422 431.932 124.766 431.545 124.265C431.162 123.759 430.652 123.506 430.014 123.506C429.389 123.506 428.886 123.754 428.503 124.251C428.12 124.748 427.929 125.459 427.929 126.384ZM436.351 130H435.086V122.604H436.351V130ZM434.983 120.642C434.983 120.437 435.045 120.263 435.168 120.122C435.296 119.981 435.482 119.91 435.729 119.91C435.975 119.91 436.161 119.981 436.289 120.122C436.417 120.263 436.48 120.437 436.48 120.642C436.48 120.847 436.417 121.018 436.289 121.154C436.161 121.291 435.975 121.359 435.729 121.359C435.482 121.359 435.296 121.291 435.168 121.154C435.045 121.018 434.983 120.847 434.983 120.642ZM439.577 122.604L439.618 123.533C440.183 122.822 440.922 122.467 441.833 122.467C443.396 122.467 444.185 123.349 444.198 125.112V130H442.934V125.105C442.929 124.572 442.806 124.178 442.564 123.923C442.327 123.668 441.956 123.54 441.45 123.54C441.04 123.54 440.68 123.649 440.37 123.868C440.06 124.087 439.819 124.374 439.646 124.729V130H438.381V122.604H439.577Z" fill="#FF5A43"/>
<path d="M410.032 84.127H406.833V93H405.527V84.127H402.335V83.0469H410.032V84.127ZM413.696 93.1367C412.694 93.1367 411.878 92.8086 411.249 92.1523C410.62 91.4915 410.306 90.6097 410.306 89.5068V89.2744C410.306 88.5407 410.445 87.8867 410.723 87.3125C411.005 86.7337 411.397 86.2826 411.898 85.959C412.404 85.6309 412.951 85.4668 413.539 85.4668C414.501 85.4668 415.248 85.7835 415.781 86.417C416.314 87.0505 416.581 87.9574 416.581 89.1377V89.6641H411.57C411.589 90.3932 411.8 90.9834 412.206 91.4346C412.616 91.8812 413.136 92.1045 413.765 92.1045C414.211 92.1045 414.59 92.0133 414.899 91.8311C415.209 91.6488 415.48 91.4072 415.713 91.1064L416.485 91.708C415.866 92.6605 414.936 93.1367 413.696 93.1367ZM413.539 86.5059C413.029 86.5059 412.6 86.6927 412.254 87.0664C411.908 87.4355 411.693 87.9551 411.611 88.625H415.316V88.5293C415.28 87.8867 415.107 87.39 414.797 87.0391C414.487 86.6836 414.068 86.5059 413.539 86.5059ZM419.24 91.9678H423.567V93H417.695V92.0703L421.776 86.6494H417.757V85.6035H423.362V86.499L419.24 91.9678ZM424.552 89.2334C424.552 88.5088 424.693 87.8571 424.976 87.2783C425.263 86.6995 425.659 86.2529 426.165 85.9385C426.675 85.624 427.257 85.4668 427.908 85.4668C428.915 85.4668 429.729 85.8154 430.349 86.5127C430.973 87.21 431.285 88.1374 431.285 89.2949V89.3838C431.285 90.1038 431.146 90.751 430.868 91.3252C430.595 91.8949 430.201 92.3392 429.686 92.6582C429.175 92.9772 428.587 93.1367 427.922 93.1367C426.919 93.1367 426.106 92.7881 425.481 92.0908C424.862 91.3936 424.552 90.4707 424.552 89.3223V89.2334ZM425.823 89.3838C425.823 90.2041 426.012 90.8626 426.391 91.3594C426.773 91.8561 427.284 92.1045 427.922 92.1045C428.564 92.1045 429.075 91.8538 429.453 91.3525C429.831 90.8467 430.021 90.1403 430.021 89.2334C430.021 88.4222 429.827 87.766 429.439 87.2646C429.057 86.7588 428.546 86.5059 427.908 86.5059C427.284 86.5059 426.78 86.7542 426.397 87.251C426.015 87.7477 425.823 88.4587 425.823 89.3838ZM437.178 91.0381C437.178 90.6963 437.048 90.432 436.788 90.2451C436.533 90.0537 436.084 89.8896 435.441 89.7529C434.803 89.6162 434.295 89.4521 433.917 89.2607C433.543 89.0693 433.265 88.8415 433.083 88.5771C432.905 88.3128 432.816 87.9984 432.816 87.6338C432.816 87.0277 433.072 86.515 433.582 86.0957C434.097 85.6764 434.753 85.4668 435.551 85.4668C436.389 85.4668 437.068 85.6833 437.588 86.1162C438.112 86.5492 438.374 87.1029 438.374 87.7773H437.103C437.103 87.431 436.954 87.1325 436.658 86.8818C436.367 86.6312 435.997 86.5059 435.551 86.5059C435.09 86.5059 434.73 86.6061 434.471 86.8066C434.211 87.0072 434.081 87.2692 434.081 87.5928C434.081 87.8981 434.202 88.1283 434.443 88.2832C434.685 88.4382 435.12 88.5863 435.749 88.7275C436.382 88.8688 436.895 89.0374 437.287 89.2334C437.679 89.4294 437.968 89.6663 438.155 89.9443C438.347 90.2178 438.442 90.5527 438.442 90.9492C438.442 91.61 438.178 92.141 437.649 92.542C437.121 92.9385 436.435 93.1367 435.592 93.1367C434.999 93.1367 434.475 93.0319 434.02 92.8223C433.564 92.6126 433.206 92.321 432.946 91.9473C432.691 91.569 432.563 91.1611 432.563 90.7236H433.828C433.851 91.1475 434.02 91.4847 434.334 91.7354C434.653 91.9814 435.072 92.1045 435.592 92.1045C436.07 92.1045 436.453 92.0088 436.74 91.8174C437.032 91.6214 437.178 91.3617 437.178 91.0381Z" fill="#65BF73"/>
<path d="M408.781 141.399H404.468V144.927H409.479V146H403.155V136.047H409.41V137.127H404.468V140.326H408.781V141.399ZM412.63 136.812V138.604H414.011V139.581H412.63V144.168C412.63 144.464 412.691 144.688 412.814 144.838C412.938 144.984 413.147 145.057 413.443 145.057C413.589 145.057 413.79 145.029 414.045 144.975V146C413.712 146.091 413.389 146.137 413.074 146.137C412.509 146.137 412.083 145.966 411.796 145.624C411.509 145.282 411.365 144.797 411.365 144.168V139.581H410.019V138.604H411.365V136.812H412.63ZM416.759 139.499C417.319 138.811 418.049 138.467 418.946 138.467C420.509 138.467 421.298 139.349 421.312 141.112V146H420.047V141.105C420.042 140.572 419.919 140.178 419.678 139.923C419.441 139.668 419.069 139.54 418.563 139.54C418.153 139.54 417.793 139.649 417.483 139.868C417.174 140.087 416.932 140.374 416.759 140.729V146H415.494V135.5H416.759V139.499ZM426.274 146.137C425.272 146.137 424.456 145.809 423.827 145.152C423.198 144.492 422.884 143.61 422.884 142.507V142.274C422.884 141.541 423.023 140.887 423.301 140.312C423.583 139.734 423.975 139.283 424.477 138.959C424.982 138.631 425.529 138.467 426.117 138.467C427.079 138.467 427.826 138.784 428.359 139.417C428.893 140.05 429.159 140.957 429.159 142.138V142.664H424.148C424.167 143.393 424.379 143.983 424.784 144.435C425.194 144.881 425.714 145.104 426.343 145.104C426.789 145.104 427.168 145.013 427.478 144.831C427.787 144.649 428.059 144.407 428.291 144.106L429.063 144.708C428.444 145.66 427.514 146.137 426.274 146.137ZM426.117 139.506C425.607 139.506 425.178 139.693 424.832 140.066C424.486 140.436 424.271 140.955 424.189 141.625H427.895V141.529C427.858 140.887 427.685 140.39 427.375 140.039C427.065 139.684 426.646 139.506 426.117 139.506ZM434.204 139.738C434.013 139.706 433.805 139.69 433.582 139.69C432.753 139.69 432.19 140.044 431.894 140.75V146H430.629V138.604H431.859L431.88 139.458C432.295 138.797 432.882 138.467 433.644 138.467C433.89 138.467 434.076 138.499 434.204 138.562V139.738ZM438.306 146.137C437.303 146.137 436.487 145.809 435.858 145.152C435.229 144.492 434.915 143.61 434.915 142.507V142.274C434.915 141.541 435.054 140.887 435.332 140.312C435.615 139.734 436.007 139.283 436.508 138.959C437.014 138.631 437.561 138.467 438.148 138.467C439.11 138.467 439.857 138.784 440.391 139.417C440.924 140.05 441.19 140.957 441.19 142.138V142.664H436.18C436.198 143.393 436.41 143.983 436.815 144.435C437.226 144.881 437.745 145.104 438.374 145.104C438.821 145.104 439.199 145.013 439.509 144.831C439.819 144.649 440.09 144.407 440.322 144.106L441.095 144.708C440.475 145.66 439.545 146.137 438.306 146.137ZM438.148 139.506C437.638 139.506 437.21 139.693 436.863 140.066C436.517 140.436 436.303 140.955 436.221 141.625H439.926V141.529C439.889 140.887 439.716 140.39 439.406 140.039C439.096 139.684 438.677 139.506 438.148 139.506ZM447.227 145.269C446.734 145.847 446.012 146.137 445.06 146.137C444.271 146.137 443.67 145.909 443.255 145.453C442.845 144.993 442.637 144.314 442.633 143.416V138.604H443.897V143.382C443.897 144.503 444.353 145.063 445.265 145.063C446.231 145.063 446.873 144.703 447.192 143.983V138.604H448.457V146H447.254L447.227 145.269ZM451.574 138.604L451.608 139.424C452.151 138.786 452.882 138.467 453.803 138.467C454.837 138.467 455.541 138.863 455.915 139.656C456.161 139.301 456.48 139.014 456.872 138.795C457.269 138.576 457.736 138.467 458.273 138.467C459.896 138.467 460.721 139.326 460.748 141.044V146H459.483V141.119C459.483 140.59 459.363 140.196 459.121 139.937C458.88 139.672 458.474 139.54 457.904 139.54C457.435 139.54 457.045 139.681 456.735 139.964C456.425 140.242 456.245 140.618 456.195 141.092V146H454.924V141.153C454.924 140.078 454.397 139.54 453.345 139.54C452.515 139.54 451.948 139.893 451.643 140.6V146H450.378V138.604H451.574Z" fill="#2097F6"/>
<path d="M364.303 184.127H361.104V193H359.798V184.127H356.605V183.047H364.303V184.127ZM366.955 193H365.69V185.604H366.955V193ZM365.588 183.642C365.588 183.437 365.649 183.263 365.772 183.122C365.9 182.981 366.087 182.91 366.333 182.91C366.579 182.91 366.766 182.981 366.894 183.122C367.021 183.263 367.085 183.437 367.085 183.642C367.085 183.847 367.021 184.018 366.894 184.154C366.766 184.291 366.579 184.359 366.333 184.359C366.087 184.359 365.9 184.291 365.772 184.154C365.649 184.018 365.588 183.847 365.588 183.642ZM370.175 185.604L370.209 186.424C370.751 185.786 371.483 185.467 372.403 185.467C373.438 185.467 374.142 185.863 374.516 186.656C374.762 186.301 375.081 186.014 375.473 185.795C375.869 185.576 376.336 185.467 376.874 185.467C378.496 185.467 379.321 186.326 379.349 188.044V193H378.084V188.119C378.084 187.59 377.963 187.196 377.722 186.937C377.48 186.672 377.075 186.54 376.505 186.54C376.035 186.54 375.646 186.681 375.336 186.964C375.026 187.242 374.846 187.618 374.796 188.092V193H373.524V188.153C373.524 187.078 372.998 186.54 371.945 186.54C371.116 186.54 370.549 186.893 370.243 187.6V193H368.979V185.604H370.175ZM384.332 193.137C383.329 193.137 382.514 192.809 381.885 192.152C381.256 191.492 380.941 190.61 380.941 189.507V189.274C380.941 188.541 381.08 187.887 381.358 187.312C381.641 186.734 382.033 186.283 382.534 185.959C383.04 185.631 383.587 185.467 384.175 185.467C385.136 185.467 385.884 185.784 386.417 186.417C386.95 187.05 387.217 187.957 387.217 189.138V189.664H382.206C382.224 190.393 382.436 190.983 382.842 191.435C383.252 191.881 383.771 192.104 384.4 192.104C384.847 192.104 385.225 192.013 385.535 191.831C385.845 191.649 386.116 191.407 386.349 191.106L387.121 191.708C386.501 192.66 385.572 193.137 384.332 193.137ZM384.175 186.506C383.664 186.506 383.236 186.693 382.89 187.066C382.543 187.436 382.329 187.955 382.247 188.625H385.952V188.529C385.916 187.887 385.743 187.39 385.433 187.039C385.123 186.684 384.703 186.506 384.175 186.506Z" fill="#5452F6"/>
</svg>
