<svg width="892" height="312" viewBox="0 0 892 312" fill="none" xmlns="http://www.w3.org/2000/svg">
<line x1="856.797" y1="67.7053" x2="589.447" y2="292.038" stroke="#65BF73" stroke-width="2"/>
<path d="M603.214 292.888L589.064 292.36L591.323 278.716" stroke="#65BF73" stroke-width="2" stroke-linecap="round" stroke-linejoin="round"/>
<line x1="550.41" y1="296.591" x2="817.759" y2="72.2583" stroke="#DE1306" stroke-width="2"/>
<path d="M803.992 71.4089L818.142 71.9371L815.884 85.5808" stroke="#DE1306" stroke-width="2" stroke-linecap="round" stroke-linejoin="round"/>
<line x1="342.865" y1="296.253" x2="75.5153" y2="71.9201" stroke="#DE1306" stroke-width="2"/>
<path d="M77.0691 85.6255L75.1321 71.5988L88.9607 71.4537" stroke="#DE1306" stroke-width="2" stroke-linecap="round" stroke-linejoin="round"/>
<line x1="37.7668" y1="66.4713" x2="305.116" y2="290.804" stroke="#5452F6" stroke-width="2"/>
<path d="M303.562 277.099L305.499 291.126L291.671 291.271" stroke="#5452F6" stroke-width="2" stroke-linecap="round" stroke-linejoin="round"/>
<g filter="url(#filter0_d)">
<rect width="162" height="67" rx="8" fill="#EEEEFF"/>
<path d="M55.9052 21.5C55.9052 21.0858 55.5694 20.75 55.1552 20.75C54.741 20.75 54.4052 21.0858 54.4052 21.5H55.9052ZM61.45 37.3817C61.6798 37.0371 61.5866 36.5714 61.242 36.3416C60.8974 36.1119 60.4317 36.205 60.2019 36.5497L61.45 37.3817ZM50 26.4207C49.5858 26.4207 49.25 26.7565 49.25 27.1707C49.25 27.585 49.5858 27.9207 50 27.9207V26.4207ZM65.9812 27.1707L66.5456 27.6646C66.7394 27.4432 66.7858 27.1288 66.6642 26.8608C66.5426 26.5929 66.2755 26.4207 65.9812 26.4207V27.1707ZM58.7639 35.4191L58.1995 34.9252C57.9689 35.1888 57.9513 35.5768 58.1572 35.86C58.363 36.1433 58.7375 36.2464 59.0593 36.1085L58.7639 35.4191ZM59.7949 45.214L60.1303 44.5432L60.1303 44.5432L59.7949 45.214ZM58.4444 41.8426C58.5753 41.4496 58.363 41.0249 57.97 40.8939C57.5771 40.7629 57.1523 40.9753 57.0213 41.3682L58.4444 41.8426ZM54.4052 21.5V27.1707H55.9052V21.5H54.4052ZM54.4052 27.1707V37.4812H55.9052V27.1707H54.4052ZM54.4052 37.4812C54.4052 38.1272 54.7335 38.7073 55.183 39.1247C55.639 39.5481 56.2621 39.849 56.9675 39.9393C58.4244 40.1256 60.0954 39.4136 61.45 37.3817L60.2019 36.5497C59.082 38.2295 57.9176 38.5486 57.1578 38.4514C56.7548 38.3998 56.4243 38.2303 56.2036 38.0255C55.9764 37.8145 55.9052 37.6085 55.9052 37.4812H54.4052ZM50 27.9207H55.1552V26.4207H50V27.9207ZM55.1552 27.9207H65.9812V26.4207H55.1552V27.9207ZM65.4168 26.6769L58.1995 34.9252L59.3283 35.913L66.5456 27.6646L65.4168 26.6769ZM59.0593 36.1085C60.7521 35.383 62.3013 35.3263 63.3778 35.8902C64.4026 36.427 65.2312 37.6546 65.2312 40.0588H66.7312C66.7312 37.3078 65.7555 35.4423 64.0738 34.5614C62.4438 33.7076 60.3843 33.9087 58.4684 34.7298L59.0593 36.1085ZM65.2312 40.0588C65.2312 41.5024 64.9308 42.4858 64.5204 43.1543C64.1135 43.8172 63.5691 44.2188 62.9907 44.4554C62.403 44.6959 61.7732 44.7676 61.2253 44.7465C60.6591 44.7247 60.2595 44.6078 60.1303 44.5432L59.4595 45.8849C59.8459 46.078 60.4774 46.2189 61.1677 46.2454C61.8764 46.2727 62.7287 46.1833 63.5587 45.8438C64.398 45.5004 65.2069 44.9032 65.7988 43.939C66.3872 42.9804 66.7312 41.7084 66.7312 40.0588H65.2312ZM60.1303 44.5432C59.7234 44.3397 59.176 43.9057 58.7983 43.3663C58.4204 42.8263 58.2907 42.3035 58.4444 41.8426L57.0213 41.3682C56.6594 42.4539 57.0453 43.4776 57.5695 44.2264C58.094 44.9758 58.8354 45.5728 59.4595 45.8849L60.1303 44.5432Z" fill="#5452F6"/>
<path d="M88.0625 36.0312H83.2969L82.2266 39H80.6797L85.0234 27.625H86.3359L90.6875 39H89.1484L88.0625 36.0312ZM83.75 34.7969H87.6172L85.6797 29.4766L83.75 34.7969ZM93.5625 39H92.1172V27H93.5625V39ZM97.4531 39H96.0078V30.5469H97.4531V39ZM95.8906 28.3047C95.8906 28.0703 95.9609 27.8724 96.1016 27.7109C96.2474 27.5495 96.4609 27.4688 96.7422 27.4688C97.0234 27.4688 97.237 27.5495 97.3828 27.7109C97.5286 27.8724 97.6016 28.0703 97.6016 28.3047C97.6016 28.5391 97.5286 28.7344 97.3828 28.8906C97.237 29.0469 97.0234 29.125 96.7422 29.125C96.4609 29.125 96.2474 29.0469 96.1016 28.8906C95.9609 28.7344 95.8906 28.5391 95.8906 28.3047ZM103.164 37.9766C103.68 37.9766 104.13 37.8203 104.516 37.5078C104.901 37.1953 105.115 36.8047 105.156 36.3359H106.523C106.497 36.8203 106.331 37.2812 106.023 37.7188C105.716 38.1562 105.305 38.5052 104.789 38.7656C104.279 39.026 103.737 39.1562 103.164 39.1562C102.013 39.1562 101.096 38.7734 100.414 38.0078C99.737 37.237 99.3984 36.1849 99.3984 34.8516V34.6094C99.3984 33.7865 99.5495 33.0547 99.8516 32.4141C100.154 31.7734 100.586 31.276 101.148 30.9219C101.716 30.5677 102.385 30.3906 103.156 30.3906C104.104 30.3906 104.891 30.6745 105.516 31.2422C106.146 31.8099 106.482 32.5469 106.523 33.4531H105.156C105.115 32.9062 104.906 32.4583 104.531 32.1094C104.161 31.7552 103.703 31.5781 103.156 31.5781C102.422 31.5781 101.852 31.8438 101.445 32.375C101.044 32.901 100.844 33.6641 100.844 34.6641V34.9375C100.844 35.9115 101.044 36.6615 101.445 37.1875C101.846 37.7135 102.419 37.9766 103.164 37.9766ZM111.656 39.1562C110.51 39.1562 109.578 38.7812 108.859 38.0312C108.141 37.276 107.781 36.2682 107.781 35.0078V34.7422C107.781 33.9036 107.94 33.1562 108.258 32.5C108.581 31.8385 109.029 31.3229 109.602 30.9531C110.18 30.5781 110.805 30.3906 111.477 30.3906C112.576 30.3906 113.43 30.7526 114.039 31.4766C114.648 32.2005 114.953 33.237 114.953 34.5859V35.1875H109.227C109.247 36.0208 109.49 36.6953 109.953 37.2109C110.422 37.7214 111.016 37.9766 111.734 37.9766C112.245 37.9766 112.677 37.8724 113.031 37.6641C113.385 37.4557 113.695 37.1797 113.961 36.8359L114.844 37.5234C114.135 38.612 113.073 39.1562 111.656 39.1562ZM111.477 31.5781C110.893 31.5781 110.404 31.7917 110.008 32.2188C109.612 32.6406 109.367 33.2344 109.273 34H113.508V33.8906C113.466 33.1562 113.268 32.5885 112.914 32.1875C112.56 31.7812 112.081 31.5781 111.477 31.5781Z" fill="#5452F6"/>
<rect x="0.5" y="0.5" width="161" height="66" rx="7.5" stroke="#5452F6"/>
</g>
<g filter="url(#filter1_d)">
<rect x="306" y="239" width="279" height="67" rx="8" fill="#FEEBEA"/>
<g clip-path="url(#clip0)">
<path d="M369.254 263.5C369.254 263.086 368.918 262.75 368.504 262.75C368.089 262.75 367.754 263.086 367.754 263.5H369.254ZM370.782 268.427C371.011 268.082 370.918 267.617 370.574 267.387C370.229 267.157 369.763 267.25 369.534 267.595L370.782 268.427ZM367 264.404C366.586 264.404 366.25 264.74 366.25 265.154C366.25 265.568 366.586 265.904 367 265.904V264.404ZM371.661 265.154L372.226 265.648C372.419 265.426 372.466 265.112 372.344 264.844C372.223 264.576 371.955 264.404 371.661 264.404V265.154ZM369.556 267.56L368.992 267.066C368.761 267.329 368.744 267.717 368.949 268.001C369.155 268.284 369.53 268.387 369.852 268.249L369.556 267.56ZM369.857 270.417L370.192 269.746L370.192 269.746L369.857 270.417ZM369.967 269.601C370.098 269.208 369.886 268.784 369.493 268.653C369.1 268.522 368.675 268.734 368.544 269.127L369.967 269.601ZM367.754 263.5V265.154H369.254V263.5H367.754ZM367.754 265.154V268.161H369.254V265.154H367.754ZM367.754 268.161C367.754 268.533 367.94 268.835 368.15 269.03C368.367 269.231 368.652 269.365 368.965 269.405C369.637 269.491 370.303 269.144 370.782 268.427L369.534 267.595C369.408 267.783 369.302 267.861 369.244 267.892C369.188 267.921 369.159 267.918 369.155 267.917C369.145 267.916 369.152 267.913 369.171 267.931C369.183 267.942 369.254 268.015 369.254 268.161H367.754ZM367 265.904H368.504V264.404H367V265.904ZM368.504 265.904H371.661V264.404H368.504V265.904ZM371.097 264.66L368.992 267.066L370.121 268.054L372.226 265.648L371.097 264.66ZM369.852 268.249C370.266 268.071 370.537 268.106 370.655 268.168C370.722 268.202 370.911 268.335 370.911 268.913H372.411C372.411 267.988 372.075 267.218 371.351 266.839C370.68 266.487 369.898 266.597 369.261 266.87L369.852 268.249ZM370.911 268.913C370.911 269.261 370.839 269.446 370.782 269.538C370.729 269.625 370.664 269.672 370.588 269.704C370.502 269.739 370.397 269.753 370.294 269.749C370.173 269.745 370.139 269.719 370.192 269.746L369.521 271.087C369.725 271.189 369.992 271.239 370.237 271.248C370.5 271.258 370.828 271.226 371.156 271.092C371.493 270.954 371.823 270.711 372.061 270.323C372.295 269.94 372.411 269.467 372.411 268.913H370.911ZM370.192 269.746C370.179 269.739 370.145 269.719 370.103 269.683C370.062 269.647 370.026 269.608 370.001 269.573C369.976 269.537 369.972 269.519 369.973 269.523C369.976 269.533 369.979 269.565 369.967 269.601L368.544 269.127C368.365 269.665 368.568 270.141 368.773 270.433C368.978 270.726 369.263 270.958 369.521 271.087L370.192 269.746Z" fill="#DE1306"/>
<path d="M370.03 273.2C371.14 273.054 372.187 272.6 373.052 271.89C373.918 271.18 374.568 270.243 374.928 269.183C375.288 268.123 375.345 266.983 375.092 265.893C374.838 264.802 374.285 263.805 373.494 263.012C372.703 262.22 371.706 261.665 370.616 261.409C369.526 261.154 368.387 261.209 367.326 261.567C366.266 261.926 365.326 262.574 364.615 263.438C363.904 264.302 363.448 265.348 363.3 266.458" stroke="#DE1306" stroke-width="1.5" stroke-linecap="round" stroke-linejoin="round"/>
<path d="M367.75 276.25C367.75 274.261 366.96 272.353 365.553 270.947C364.147 269.54 362.239 268.75 360.25 268.75" stroke="#DE1306" stroke-width="1.5" stroke-linecap="round" stroke-linejoin="round"/>
<path d="M354.25 271.75C353.642 272.569 353.208 273.503 352.973 274.495C352.738 275.488 352.709 276.518 352.885 277.522C353.062 278.527 353.442 279.484 354.002 280.337C354.562 281.189 355.289 281.919 356.14 282.481C356.992 283.042 357.948 283.425 358.952 283.604C359.956 283.783 360.986 283.756 361.979 283.524C362.972 283.292 363.908 282.86 364.728 282.254C365.548 281.648 366.236 280.881 366.75 280" stroke="#DE1306" stroke-width="1.5" stroke-linecap="round" stroke-linejoin="round"/>
<path d="M358.75 279.25V273.25H361C361.398 273.25 361.779 273.408 362.061 273.689C362.342 273.971 362.5 274.352 362.5 274.75C362.5 275.148 362.342 275.529 362.061 275.811C361.779 276.092 361.398 276.25 361 276.25C361.398 276.25 361.779 276.408 362.061 276.689C362.342 276.971 362.5 277.352 362.5 277.75C362.5 278.148 362.342 278.529 362.061 278.811C361.779 279.092 361.398 279.25 361 279.25H358.75Z" stroke="#DE1306" stroke-width="1.5" stroke-linecap="round" stroke-linejoin="round"/>
<path d="M358.75 276.25H361" stroke="#DE1306" stroke-width="1.5" stroke-linecap="round" stroke-linejoin="round"/>
<path d="M360.25 273.25V271.75" stroke="#DE1306" stroke-width="1.5" stroke-linecap="round" stroke-linejoin="round"/>
<path d="M360.25 279.25V280.75" stroke="#DE1306" stroke-width="1.5" stroke-linecap="round" stroke-linejoin="round"/>
<path d="M352.75 265L355 268.75L358.75 266.5" stroke="#DE1306" stroke-width="1.5" stroke-linecap="round" stroke-linejoin="round"/>
<path d="M360.189 261.4C358.801 261.906 357.617 262.854 356.819 264.098C356.021 265.342 355.653 266.813 355.772 268.286" stroke="#DE1306" stroke-width="1.5" stroke-linecap="round" stroke-linejoin="round"/>
<path d="M375.25 280L373 276.25L369.25 278.5" stroke="#DE1306" stroke-width="1.5" stroke-linecap="round" stroke-linejoin="round"/>
<path d="M367.811 283.6C369.199 283.094 370.383 282.146 371.181 280.903C371.978 279.659 372.346 278.189 372.228 276.716" stroke="#DE1306" stroke-width="1.5" stroke-linecap="round" stroke-linejoin="round"/>
</g>
<path d="M395.727 274.391C395.586 275.594 395.141 276.523 394.391 277.18C393.646 277.831 392.654 278.156 391.414 278.156C390.07 278.156 388.992 277.674 388.18 276.711C387.372 275.747 386.969 274.458 386.969 272.844V271.75C386.969 270.693 387.156 269.763 387.531 268.961C387.911 268.159 388.448 267.544 389.141 267.117C389.833 266.685 390.635 266.469 391.547 266.469C392.755 266.469 393.724 266.807 394.453 267.484C395.182 268.156 395.607 269.089 395.727 270.281H394.219C394.089 269.375 393.805 268.719 393.367 268.312C392.935 267.906 392.328 267.703 391.547 267.703C390.589 267.703 389.836 268.057 389.289 268.766C388.747 269.474 388.477 270.482 388.477 271.789V272.891C388.477 274.125 388.734 275.107 389.25 275.836C389.766 276.565 390.487 276.93 391.414 276.93C392.247 276.93 392.885 276.742 393.328 276.367C393.776 275.987 394.073 275.328 394.219 274.391H395.727ZM401.062 278.156C399.917 278.156 398.984 277.781 398.266 277.031C397.547 276.276 397.188 275.268 397.188 274.008V273.742C397.188 272.904 397.346 272.156 397.664 271.5C397.987 270.839 398.435 270.323 399.008 269.953C399.586 269.578 400.211 269.391 400.883 269.391C401.982 269.391 402.836 269.753 403.445 270.477C404.055 271.201 404.359 272.237 404.359 273.586V274.188H398.633C398.654 275.021 398.896 275.695 399.359 276.211C399.828 276.721 400.422 276.977 401.141 276.977C401.651 276.977 402.083 276.872 402.438 276.664C402.792 276.456 403.102 276.18 403.367 275.836L404.25 276.523C403.542 277.612 402.479 278.156 401.062 278.156ZM400.883 270.578C400.299 270.578 399.81 270.792 399.414 271.219C399.018 271.641 398.773 272.234 398.68 273H402.914V272.891C402.872 272.156 402.674 271.589 402.32 271.188C401.966 270.781 401.487 270.578 400.883 270.578ZM407.406 269.547L407.453 270.609C408.099 269.797 408.943 269.391 409.984 269.391C411.771 269.391 412.672 270.398 412.688 272.414V278H411.242V272.406C411.237 271.797 411.096 271.346 410.82 271.055C410.549 270.763 410.125 270.617 409.547 270.617C409.078 270.617 408.667 270.742 408.312 270.992C407.958 271.242 407.682 271.57 407.484 271.977V278H406.039V269.547H407.406ZM416.828 267.5V269.547H418.406V270.664H416.828V275.906C416.828 276.245 416.898 276.5 417.039 276.672C417.18 276.839 417.419 276.922 417.758 276.922C417.924 276.922 418.154 276.891 418.445 276.828V278C418.065 278.104 417.695 278.156 417.336 278.156C416.69 278.156 416.203 277.961 415.875 277.57C415.547 277.18 415.383 276.625 415.383 275.906V270.664H413.844V269.547H415.383V267.5H416.828ZM424.188 270.844C423.969 270.807 423.732 270.789 423.477 270.789C422.529 270.789 421.885 271.193 421.547 272V278H420.102V269.547H421.508L421.531 270.523C422.005 269.768 422.677 269.391 423.547 269.391C423.828 269.391 424.042 269.427 424.188 269.5V270.844ZM430.43 278C430.346 277.833 430.279 277.536 430.227 277.109C429.555 277.807 428.753 278.156 427.82 278.156C426.987 278.156 426.302 277.922 425.766 277.453C425.234 276.979 424.969 276.38 424.969 275.656C424.969 274.776 425.302 274.094 425.969 273.609C426.641 273.12 427.583 272.875 428.797 272.875H430.203V272.211C430.203 271.706 430.052 271.305 429.75 271.008C429.448 270.706 429.003 270.555 428.414 270.555C427.898 270.555 427.466 270.685 427.117 270.945C426.768 271.206 426.594 271.521 426.594 271.891H425.141C425.141 271.469 425.289 271.062 425.586 270.672C425.888 270.276 426.294 269.964 426.805 269.734C427.32 269.505 427.885 269.391 428.5 269.391C429.474 269.391 430.237 269.635 430.789 270.125C431.341 270.609 431.628 271.279 431.648 272.133V276.023C431.648 276.799 431.747 277.417 431.945 277.875V278H430.43ZM428.031 276.898C428.484 276.898 428.914 276.781 429.32 276.547C429.727 276.312 430.021 276.008 430.203 275.633V273.898H429.07C427.299 273.898 426.414 274.417 426.414 275.453C426.414 275.906 426.565 276.26 426.867 276.516C427.169 276.771 427.557 276.898 428.031 276.898ZM435.484 278H434.039V266H435.484V278ZM439.375 278H437.93V269.547H439.375V278ZM437.812 267.305C437.812 267.07 437.883 266.872 438.023 266.711C438.169 266.549 438.383 266.469 438.664 266.469C438.945 266.469 439.159 266.549 439.305 266.711C439.451 266.872 439.523 267.07 439.523 267.305C439.523 267.539 439.451 267.734 439.305 267.891C439.159 268.047 438.945 268.125 438.664 268.125C438.383 268.125 438.169 268.047 438.023 267.891C437.883 267.734 437.812 267.539 437.812 267.305ZM443.055 276.82H448V278H441.289V276.938L445.953 270.742H441.359V269.547H447.766V270.57L443.055 276.82ZM453.016 278.156C451.87 278.156 450.938 277.781 450.219 277.031C449.5 276.276 449.141 275.268 449.141 274.008V273.742C449.141 272.904 449.299 272.156 449.617 271.5C449.94 270.839 450.388 270.323 450.961 269.953C451.539 269.578 452.164 269.391 452.836 269.391C453.935 269.391 454.789 269.753 455.398 270.477C456.008 271.201 456.312 272.237 456.312 273.586V274.188H450.586C450.607 275.021 450.849 275.695 451.312 276.211C451.781 276.721 452.375 276.977 453.094 276.977C453.604 276.977 454.036 276.872 454.391 276.664C454.745 276.456 455.055 276.18 455.32 275.836L456.203 276.523C455.495 277.612 454.432 278.156 453.016 278.156ZM452.836 270.578C452.253 270.578 451.763 270.792 451.367 271.219C450.971 271.641 450.727 272.234 450.633 273H454.867V272.891C454.826 272.156 454.628 271.589 454.273 271.188C453.919 270.781 453.44 270.578 452.836 270.578ZM457.641 273.703C457.641 272.406 457.948 271.365 458.562 270.578C459.177 269.786 459.982 269.391 460.977 269.391C461.966 269.391 462.75 269.729 463.328 270.406V266H464.773V278H463.445L463.375 277.094C462.797 277.802 461.992 278.156 460.961 278.156C459.982 278.156 459.182 277.755 458.562 276.953C457.948 276.151 457.641 275.104 457.641 273.812V273.703ZM459.086 273.867C459.086 274.826 459.284 275.576 459.68 276.117C460.076 276.659 460.622 276.93 461.32 276.93C462.237 276.93 462.906 276.518 463.328 275.695V271.812C462.896 271.016 462.232 270.617 461.336 270.617C460.628 270.617 460.076 270.891 459.68 271.438C459.284 271.984 459.086 272.794 459.086 273.867ZM477.648 272.742H472.719V276.773H478.445V278H471.219V266.625H478.367V267.859H472.719V271.516H477.648V272.742ZM482.922 272.633L484.797 269.547H486.484L483.719 273.727L486.57 278H484.898L482.945 274.836L480.992 278H479.312L482.164 273.727L479.398 269.547H481.07L482.922 272.633ZM491.258 276.977C491.773 276.977 492.224 276.82 492.609 276.508C492.995 276.195 493.208 275.805 493.25 275.336H494.617C494.591 275.82 494.424 276.281 494.117 276.719C493.81 277.156 493.398 277.505 492.883 277.766C492.372 278.026 491.831 278.156 491.258 278.156C490.107 278.156 489.19 277.773 488.508 277.008C487.831 276.237 487.492 275.185 487.492 273.852V273.609C487.492 272.786 487.643 272.055 487.945 271.414C488.247 270.773 488.68 270.276 489.242 269.922C489.81 269.568 490.479 269.391 491.25 269.391C492.198 269.391 492.984 269.674 493.609 270.242C494.24 270.81 494.576 271.547 494.617 272.453H493.25C493.208 271.906 493 271.458 492.625 271.109C492.255 270.755 491.797 270.578 491.25 270.578C490.516 270.578 489.945 270.844 489.539 271.375C489.138 271.901 488.938 272.664 488.938 273.664V273.938C488.938 274.911 489.138 275.661 489.539 276.188C489.94 276.714 490.513 276.977 491.258 276.977ZM497.688 270.57C498.328 269.784 499.161 269.391 500.188 269.391C501.974 269.391 502.875 270.398 502.891 272.414V278H501.445V272.406C501.44 271.797 501.299 271.346 501.023 271.055C500.753 270.763 500.328 270.617 499.75 270.617C499.281 270.617 498.87 270.742 498.516 270.992C498.161 271.242 497.885 271.57 497.688 271.977V278H496.242V266H497.688V270.57ZM510.273 278C510.19 277.833 510.122 277.536 510.07 277.109C509.398 277.807 508.596 278.156 507.664 278.156C506.831 278.156 506.146 277.922 505.609 277.453C505.078 276.979 504.812 276.38 504.812 275.656C504.812 274.776 505.146 274.094 505.812 273.609C506.484 273.12 507.427 272.875 508.641 272.875H510.047V272.211C510.047 271.706 509.896 271.305 509.594 271.008C509.292 270.706 508.846 270.555 508.258 270.555C507.742 270.555 507.31 270.685 506.961 270.945C506.612 271.206 506.438 271.521 506.438 271.891H504.984C504.984 271.469 505.133 271.062 505.43 270.672C505.732 270.276 506.138 269.964 506.648 269.734C507.164 269.505 507.729 269.391 508.344 269.391C509.318 269.391 510.081 269.635 510.633 270.125C511.185 270.609 511.471 271.279 511.492 272.133V276.023C511.492 276.799 511.591 277.417 511.789 277.875V278H510.273ZM507.875 276.898C508.328 276.898 508.758 276.781 509.164 276.547C509.57 276.312 509.865 276.008 510.047 275.633V273.898H508.914C507.143 273.898 506.258 274.417 506.258 275.453C506.258 275.906 506.409 276.26 506.711 276.516C507.013 276.771 507.401 276.898 507.875 276.898ZM515.125 269.547L515.172 270.609C515.818 269.797 516.661 269.391 517.703 269.391C519.49 269.391 520.391 270.398 520.406 272.414V278H518.961V272.406C518.956 271.797 518.815 271.346 518.539 271.055C518.268 270.763 517.844 270.617 517.266 270.617C516.797 270.617 516.385 270.742 516.031 270.992C515.677 271.242 515.401 271.57 515.203 271.977V278H513.758V269.547H515.125ZM522.242 273.703C522.242 272.385 522.547 271.339 523.156 270.562C523.766 269.781 524.573 269.391 525.578 269.391C526.609 269.391 527.414 269.755 527.992 270.484L528.062 269.547H529.383V277.797C529.383 278.891 529.057 279.753 528.406 280.383C527.76 281.013 526.891 281.328 525.797 281.328C525.188 281.328 524.591 281.198 524.008 280.938C523.424 280.677 522.979 280.32 522.672 279.867L523.422 279C524.042 279.766 524.799 280.148 525.695 280.148C526.398 280.148 526.945 279.951 527.336 279.555C527.732 279.159 527.93 278.602 527.93 277.883V277.156C527.352 277.823 526.562 278.156 525.562 278.156C524.573 278.156 523.771 277.758 523.156 276.961C522.547 276.164 522.242 275.078 522.242 273.703ZM523.695 273.867C523.695 274.82 523.891 275.57 524.281 276.117C524.672 276.659 525.219 276.93 525.922 276.93C526.833 276.93 527.503 276.516 527.93 275.688V271.828C527.487 271.021 526.823 270.617 525.938 270.617C525.234 270.617 524.685 270.891 524.289 271.438C523.893 271.984 523.695 272.794 523.695 273.867ZM535.078 278.156C533.932 278.156 533 277.781 532.281 277.031C531.562 276.276 531.203 275.268 531.203 274.008V273.742C531.203 272.904 531.362 272.156 531.68 271.5C532.003 270.839 532.451 270.323 533.023 269.953C533.602 269.578 534.227 269.391 534.898 269.391C535.997 269.391 536.852 269.753 537.461 270.477C538.07 271.201 538.375 272.237 538.375 273.586V274.188H532.648C532.669 275.021 532.911 275.695 533.375 276.211C533.844 276.721 534.438 276.977 535.156 276.977C535.667 276.977 536.099 276.872 536.453 276.664C536.807 276.456 537.117 276.18 537.383 275.836L538.266 276.523C537.557 277.612 536.495 278.156 535.078 278.156ZM534.898 270.578C534.315 270.578 533.826 270.792 533.43 271.219C533.034 271.641 532.789 272.234 532.695 273H536.93V272.891C536.888 272.156 536.69 271.589 536.336 271.188C535.982 270.781 535.503 270.578 534.898 270.578Z" fill="#DE1306"/>
<rect x="306.5" y="239.5" width="278" height="66" rx="7.5" stroke="#DE1306"/>
</g>
<g filter="url(#filter2_d)">
<rect x="733" width="155" height="67" rx="8" fill="#E5FDE8"/>
<g clip-path="url(#clip1)">
<path d="M792 42C793.193 42 794.338 41.5259 795.182 40.682C796.026 39.8381 796.5 38.6935 796.5 37.5C796.5 36.3065 796.026 35.1619 795.182 34.318C794.338 33.4741 793.193 33 792 33C793.193 33 794.338 32.5259 795.182 31.682C796.026 30.8381 796.5 29.6935 796.5 28.5C796.5 27.3065 796.026 26.1619 795.182 25.318C794.338 24.4741 793.193 24 792 24H786V42H792Z" stroke="#65BF73" stroke-width="1.5" stroke-linecap="round" stroke-linejoin="round"/>
<path d="M786 33H792.374" stroke="#65BF73" stroke-width="1.5" stroke-linecap="round" stroke-linejoin="round"/>
<path d="M790.5 24V21" stroke="#65BF73" stroke-width="1.5" stroke-linecap="round" stroke-linejoin="round"/>
<path d="M790.5 45V42" stroke="#65BF73" stroke-width="1.5" stroke-linecap="round" stroke-linejoin="round"/>
</g>
<path d="M814.781 39V27.625H818.5C819.734 27.625 820.661 27.8802 821.281 28.3906C821.906 28.901 822.219 29.6562 822.219 30.6562C822.219 31.1875 822.068 31.6589 821.766 32.0703C821.464 32.4766 821.052 32.7917 820.531 33.0156C821.146 33.1875 821.63 33.5156 821.984 34C822.344 34.4792 822.523 35.0521 822.523 35.7188C822.523 36.7396 822.193 37.5417 821.531 38.125C820.87 38.7083 819.935 39 818.727 39H814.781ZM816.281 33.6797V37.7734H818.758C819.456 37.7734 820.005 37.5938 820.406 37.2344C820.812 36.8698 821.016 36.3698 821.016 35.7344C821.016 34.3646 820.271 33.6797 818.781 33.6797H816.281ZM816.281 32.4766H818.547C819.203 32.4766 819.727 32.3125 820.117 31.9844C820.513 31.6562 820.711 31.2109 820.711 30.6484C820.711 30.0234 820.529 29.5703 820.164 29.2891C819.799 29.0026 819.245 28.8594 818.5 28.8594H816.281V32.4766ZM824.141 34.6953C824.141 33.8672 824.302 33.1224 824.625 32.4609C824.953 31.7995 825.406 31.2891 825.984 30.9297C826.568 30.5703 827.232 30.3906 827.977 30.3906C829.128 30.3906 830.057 30.7891 830.766 31.5859C831.479 32.3828 831.836 33.4427 831.836 34.7656V34.8672C831.836 35.6901 831.677 36.4297 831.359 37.0859C831.047 37.737 830.596 38.2448 830.008 38.6094C829.424 38.974 828.753 39.1562 827.992 39.1562C826.846 39.1562 825.917 38.7578 825.203 37.9609C824.495 37.1641 824.141 36.1094 824.141 34.7969V34.6953ZM825.594 34.8672C825.594 35.8047 825.81 36.5573 826.242 37.125C826.68 37.6927 827.263 37.9766 827.992 37.9766C828.727 37.9766 829.31 37.6901 829.742 37.1172C830.174 36.5391 830.391 35.7318 830.391 34.6953C830.391 33.7682 830.169 33.0182 829.727 32.4453C829.289 31.8672 828.706 31.5781 827.977 31.5781C827.263 31.5781 826.688 31.862 826.25 32.4297C825.812 32.9974 825.594 33.8099 825.594 34.8672ZM840.805 34.8672C840.805 36.1589 840.508 37.1979 839.914 37.9844C839.32 38.7656 838.523 39.1562 837.523 39.1562C836.456 39.1562 835.63 38.7786 835.047 38.0234L834.977 39H833.648V27H835.094V31.4766C835.677 30.7526 836.482 30.3906 837.508 30.3906C838.534 30.3906 839.339 30.7786 839.922 31.5547C840.51 32.3307 840.805 33.3932 840.805 34.7422V34.8672ZM839.359 34.7031C839.359 33.7188 839.169 32.9583 838.789 32.4219C838.409 31.8854 837.862 31.6172 837.148 31.6172C836.195 31.6172 835.51 32.0599 835.094 32.9453V36.6016C835.536 37.487 836.227 37.9297 837.164 37.9297C837.857 37.9297 838.396 37.6615 838.781 37.125C839.167 36.5885 839.359 35.7812 839.359 34.7031Z" fill="#65BF73"/>
<rect x="733.5" y="0.5" width="154" height="66" rx="7.5" stroke="#65BF73"/>
</g>
<path d="M137.453 191.984L140.18 187.625H141.945L138.352 193.266L142.031 199H140.25L137.453 194.562L134.641 199H132.867L136.555 193.266L132.953 187.625H134.711L137.453 191.984ZM151.633 188.859H147.977V199H146.484V188.859H142.836V187.625H151.633V188.859ZM154.445 197.773H160.953V199H152.672V197.875L158.906 188.859H152.773V187.625H160.703V188.727L154.445 197.773Z" fill="#5452F6"/>
<path d="M204.57 162V150.625H208.289C209.523 150.625 210.451 150.88 211.07 151.391C211.695 151.901 212.008 152.656 212.008 153.656C212.008 154.188 211.857 154.659 211.555 155.07C211.253 155.477 210.841 155.792 210.32 156.016C210.935 156.188 211.419 156.516 211.773 157C212.133 157.479 212.312 158.052 212.312 158.719C212.312 159.74 211.982 160.542 211.32 161.125C210.659 161.708 209.724 162 208.516 162H204.57ZM206.07 156.68V160.773H208.547C209.245 160.773 209.794 160.594 210.195 160.234C210.602 159.87 210.805 159.37 210.805 158.734C210.805 157.365 210.06 156.68 208.57 156.68H206.07ZM206.07 155.477H208.336C208.992 155.477 209.516 155.312 209.906 154.984C210.302 154.656 210.5 154.211 210.5 153.648C210.5 153.023 210.318 152.57 209.953 152.289C209.589 152.003 209.034 151.859 208.289 151.859H206.07V155.477ZM222.18 151.859H218.523V162H217.031V151.859H213.383V150.625H222.18V151.859ZM232.016 158.391C231.875 159.594 231.43 160.523 230.68 161.18C229.935 161.831 228.943 162.156 227.703 162.156C226.359 162.156 225.281 161.674 224.469 160.711C223.661 159.747 223.258 158.458 223.258 156.844V155.75C223.258 154.693 223.445 153.763 223.82 152.961C224.201 152.159 224.737 151.544 225.43 151.117C226.122 150.685 226.924 150.469 227.836 150.469C229.044 150.469 230.013 150.807 230.742 151.484C231.471 152.156 231.896 153.089 232.016 154.281H230.508C230.378 153.375 230.094 152.719 229.656 152.312C229.224 151.906 228.617 151.703 227.836 151.703C226.878 151.703 226.125 152.057 225.578 152.766C225.036 153.474 224.766 154.482 224.766 155.789V156.891C224.766 158.125 225.023 159.107 225.539 159.836C226.055 160.565 226.776 160.93 227.703 160.93C228.536 160.93 229.174 160.742 229.617 160.367C230.065 159.987 230.362 159.328 230.508 158.391H232.016Z" fill="#DE1306"/>
<path d="M660.453 154.984L663.18 150.625H664.945L661.352 156.266L665.031 162H663.25L660.453 157.562L657.641 162H655.867L659.555 156.266L655.953 150.625H657.711L660.453 154.984ZM674.633 151.859H670.977V162H669.484V151.859H665.836V150.625H674.633V151.859ZM677.445 160.773H683.953V162H675.672V160.875L681.906 151.859H675.773V150.625H683.703V151.727L677.445 160.773Z" fill="#DE1306"/>
<path d="M728.57 212V200.625H732.289C733.523 200.625 734.451 200.88 735.07 201.391C735.695 201.901 736.008 202.656 736.008 203.656C736.008 204.188 735.857 204.659 735.555 205.07C735.253 205.477 734.841 205.792 734.32 206.016C734.935 206.188 735.419 206.516 735.773 207C736.133 207.479 736.312 208.052 736.312 208.719C736.312 209.74 735.982 210.542 735.32 211.125C734.659 211.708 733.724 212 732.516 212H728.57ZM730.07 206.68V210.773H732.547C733.245 210.773 733.794 210.594 734.195 210.234C734.602 209.87 734.805 209.37 734.805 208.734C734.805 207.365 734.06 206.68 732.57 206.68H730.07ZM730.07 205.477H732.336C732.992 205.477 733.516 205.312 733.906 204.984C734.302 204.656 734.5 204.211 734.5 203.648C734.5 203.023 734.318 202.57 733.953 202.289C733.589 202.003 733.034 201.859 732.289 201.859H730.07V205.477ZM746.18 201.859H742.523V212H741.031V201.859H737.383V200.625H746.18V201.859ZM756.016 208.391C755.875 209.594 755.43 210.523 754.68 211.18C753.935 211.831 752.943 212.156 751.703 212.156C750.359 212.156 749.281 211.674 748.469 210.711C747.661 209.747 747.258 208.458 747.258 206.844V205.75C747.258 204.693 747.445 203.763 747.82 202.961C748.201 202.159 748.737 201.544 749.43 201.117C750.122 200.685 750.924 200.469 751.836 200.469C753.044 200.469 754.013 200.807 754.742 201.484C755.471 202.156 755.896 203.089 756.016 204.281H754.508C754.378 203.375 754.094 202.719 753.656 202.312C753.224 201.906 752.617 201.703 751.836 201.703C750.878 201.703 750.125 202.057 749.578 202.766C749.036 203.474 748.766 204.482 748.766 205.789V206.891C748.766 208.125 749.023 209.107 749.539 209.836C750.055 210.565 750.776 210.93 751.703 210.93C752.536 210.93 753.174 210.742 753.617 210.367C754.065 209.987 754.362 209.328 754.508 208.391H756.016Z" fill="#65BF73"/>
<defs>
<filter id="filter0_d" x="0" y="0" width="166" height="71" filterUnits="userSpaceOnUse" color-interpolation-filters="sRGB">
<feFlood flood-opacity="0" result="BackgroundImageFix"/>
<feColorMatrix in="SourceAlpha" type="matrix" values="0 0 0 0 0 0 0 0 0 0 0 0 0 0 0 0 0 0 127 0"/>
<feOffset dx="4" dy="4"/>
<feColorMatrix type="matrix" values="0 0 0 0 0.674908 0 0 0 0 0.662083 0 0 0 0 0.945833 0 0 0 1 0"/>
<feBlend mode="normal" in2="BackgroundImageFix" result="effect1_dropShadow"/>
<feBlend mode="normal" in="SourceGraphic" in2="effect1_dropShadow" result="shape"/>
</filter>
<filter id="filter1_d" x="306" y="239" width="283" height="71" filterUnits="userSpaceOnUse" color-interpolation-filters="sRGB">
<feFlood flood-opacity="0" result="BackgroundImageFix"/>
<feColorMatrix in="SourceAlpha" type="matrix" values="0 0 0 0 0 0 0 0 0 0 0 0 0 0 0 0 0 0 127 0"/>
<feOffset dx="4" dy="4"/>
<feColorMatrix type="matrix" values="0 0 0 0 0.952941 0 0 0 0 0.639216 0 0 0 0 0.619608 0 0 0 1 0"/>
<feBlend mode="normal" in2="BackgroundImageFix" result="effect1_dropShadow"/>
<feBlend mode="normal" in="SourceGraphic" in2="effect1_dropShadow" result="shape"/>
</filter>
<filter id="filter2_d" x="733" y="0" width="159" height="71" filterUnits="userSpaceOnUse" color-interpolation-filters="sRGB">
<feFlood flood-opacity="0" result="BackgroundImageFix"/>
<feColorMatrix in="SourceAlpha" type="matrix" values="0 0 0 0 0 0 0 0 0 0 0 0 0 0 0 0 0 0 127 0"/>
<feOffset dx="4" dy="4"/>
<feColorMatrix type="matrix" values="0 0 0 0 0.576471 0 0 0 0 0.776471 0 0 0 0 0.607843 0 0 0 1 0"/>
<feBlend mode="normal" in2="BackgroundImageFix" result="effect1_dropShadow"/>
<feBlend mode="normal" in="SourceGraphic" in2="effect1_dropShadow" result="shape"/>
</filter>
<clipPath id="clip0">
<rect width="24" height="24" fill="white" transform="translate(352 260.5)"/>
</clipPath>
<clipPath id="clip1">
<rect width="24" height="24" fill="white" transform="translate(779 21.5)"/>
</clipPath>
</defs>
</svg>
