<svg width="733" height="270" viewBox="0 0 733 270" fill="none" xmlns="http://www.w3.org/2000/svg">
<g filter="url(#filter0_d)">
<rect x="14" y="17" width="306" height="209" rx="8" fill="#FEEBEA"/>
<rect x="14.5" y="17.5" width="305" height="208" rx="7.5" stroke="#DE1306"/>
</g>
<path d="M64.0156 46V34.625H67.5156C68.5156 34.625 69.4089 34.8516 70.1953 35.3047C70.987 35.7526 71.6042 36.3932 72.0469 37.2266C72.4896 38.0547 72.7109 38.9974 72.7109 40.0547V40.5781C72.7109 41.6354 72.4922 42.5755 72.0547 43.3984C71.6224 44.2214 71.0104 44.8594 70.2188 45.3125C69.4271 45.7656 68.5339 45.9948 67.5391 46H64.0156ZM66.3594 36.5234V44.1172H67.4922C68.4089 44.1172 69.1094 43.8177 69.5938 43.2188C70.0781 42.6198 70.3255 41.763 70.3359 40.6484V40.0469C70.3359 38.8906 70.0964 38.0156 69.6172 37.4219C69.138 36.8229 68.4375 36.5234 67.5156 36.5234H66.3594ZM79.1719 46C79.0677 45.7969 78.9922 45.5443 78.9453 45.2422C78.3984 45.8516 77.6875 46.1562 76.8125 46.1562C75.9844 46.1562 75.2969 45.9167 74.75 45.4375C74.2083 44.9583 73.9375 44.3542 73.9375 43.625C73.9375 42.7292 74.2682 42.0417 74.9297 41.5625C75.5964 41.0833 76.5573 40.8411 77.8125 40.8359H78.8516V40.3516C78.8516 39.9609 78.75 39.6484 78.5469 39.4141C78.349 39.1797 78.0339 39.0625 77.6016 39.0625C77.2214 39.0625 76.9219 39.1536 76.7031 39.3359C76.4896 39.5182 76.3828 39.7682 76.3828 40.0859H74.125C74.125 39.5964 74.276 39.1432 74.5781 38.7266C74.8802 38.3099 75.3073 37.9844 75.8594 37.75C76.4115 37.5104 77.0312 37.3906 77.7188 37.3906C78.7604 37.3906 79.5859 37.6536 80.1953 38.1797C80.8099 38.7005 81.1172 39.4349 81.1172 40.3828V44.0469C81.1224 44.849 81.2344 45.4557 81.4531 45.8672V46H79.1719ZM77.3047 44.4297C77.638 44.4297 77.9453 44.3568 78.2266 44.2109C78.5078 44.0599 78.7161 43.8594 78.8516 43.6094V42.1562H78.0078C76.8776 42.1562 76.276 42.5469 76.2031 43.3281L76.1953 43.4609C76.1953 43.7422 76.2943 43.974 76.4922 44.1562C76.6901 44.3385 76.9609 44.4297 77.3047 44.4297ZM85.5547 35.4688V37.5469H87V39.2031H85.5547V43.4219C85.5547 43.7344 85.6146 43.9583 85.7344 44.0938C85.8542 44.2292 86.0833 44.2969 86.4219 44.2969C86.6719 44.2969 86.8932 44.2786 87.0859 44.2422V45.9531C86.6432 46.0885 86.1875 46.1562 85.7188 46.1562C84.1354 46.1562 83.3281 45.3568 83.2969 43.7578V39.2031H82.0625V37.5469H83.2969V35.4688H85.5547ZM93.1562 46C93.0521 45.7969 92.9766 45.5443 92.9297 45.2422C92.3828 45.8516 91.6719 46.1562 90.7969 46.1562C89.9688 46.1562 89.2812 45.9167 88.7344 45.4375C88.1927 44.9583 87.9219 44.3542 87.9219 43.625C87.9219 42.7292 88.2526 42.0417 88.9141 41.5625C89.5807 41.0833 90.5417 40.8411 91.7969 40.8359H92.8359V40.3516C92.8359 39.9609 92.7344 39.6484 92.5312 39.4141C92.3333 39.1797 92.0182 39.0625 91.5859 39.0625C91.2057 39.0625 90.9062 39.1536 90.6875 39.3359C90.474 39.5182 90.3672 39.7682 90.3672 40.0859H88.1094C88.1094 39.5964 88.2604 39.1432 88.5625 38.7266C88.8646 38.3099 89.2917 37.9844 89.8438 37.75C90.3958 37.5104 91.0156 37.3906 91.7031 37.3906C92.7448 37.3906 93.5703 37.6536 94.1797 38.1797C94.7943 38.7005 95.1016 39.4349 95.1016 40.3828V44.0469C95.1068 44.849 95.2188 45.4557 95.4375 45.8672V46H93.1562ZM91.2891 44.4297C91.6224 44.4297 91.9297 44.3568 92.2109 44.2109C92.4922 44.0599 92.7005 43.8594 92.8359 43.6094V42.1562H91.9922C90.862 42.1562 90.2604 42.5469 90.1875 43.3281L90.1797 43.4609C90.1797 43.7422 90.2786 43.974 90.4766 44.1562C90.6745 44.3385 90.9453 44.4297 91.2891 44.4297ZM107.055 43.0703C107.055 42.5703 106.878 42.1849 106.523 41.9141C106.174 41.6432 105.542 41.3698 104.625 41.0938C103.708 40.8177 102.979 40.5104 102.438 40.1719C101.401 39.5208 100.883 38.6719 100.883 37.625C100.883 36.7083 101.255 35.9531 102 35.3594C102.75 34.7656 103.721 34.4688 104.914 34.4688C105.706 34.4688 106.411 34.6146 107.031 34.9062C107.651 35.1979 108.138 35.6146 108.492 36.1562C108.846 36.6927 109.023 37.2891 109.023 37.9453H107.055C107.055 37.3516 106.867 36.888 106.492 36.5547C106.122 36.2161 105.591 36.0469 104.898 36.0469C104.253 36.0469 103.75 36.1849 103.391 36.4609C103.036 36.737 102.859 37.1224 102.859 37.6172C102.859 38.0339 103.052 38.3828 103.438 38.6641C103.823 38.9401 104.458 39.2109 105.344 39.4766C106.229 39.737 106.94 40.0365 107.477 40.375C108.013 40.7083 108.406 41.0938 108.656 41.5312C108.906 41.9635 109.031 42.4714 109.031 43.0547C109.031 44.0026 108.667 44.7578 107.938 45.3203C107.214 45.8776 106.229 46.1562 104.984 46.1562C104.161 46.1562 103.404 46.0052 102.711 45.7031C102.023 45.3958 101.487 44.974 101.102 44.4375C100.721 43.901 100.531 43.276 100.531 42.5625H102.508C102.508 43.2083 102.721 43.7083 103.148 44.0625C103.576 44.4167 104.188 44.5938 104.984 44.5938C105.672 44.5938 106.188 44.4557 106.531 44.1797C106.88 43.8984 107.055 43.5286 107.055 43.0703ZM112.367 37.5469L112.422 38.4297C113.016 37.737 113.828 37.3906 114.859 37.3906C115.99 37.3906 116.763 37.8229 117.18 38.6875C117.794 37.8229 118.659 37.3906 119.773 37.3906C120.706 37.3906 121.398 37.6484 121.852 38.1641C122.31 38.6797 122.544 39.4401 122.555 40.4453V46H120.656V40.5C120.656 39.9635 120.539 39.5703 120.305 39.3203C120.07 39.0703 119.682 38.9453 119.141 38.9453C118.708 38.9453 118.354 39.0625 118.078 39.2969C117.807 39.526 117.617 39.8281 117.508 40.2031L117.516 46H115.617V40.4375C115.591 39.4427 115.083 38.9453 114.094 38.9453C113.333 38.9453 112.794 39.2552 112.477 39.875V46H110.578V37.5469H112.367ZM129.555 46C129.471 45.8385 129.398 45.5755 129.336 45.2109C128.732 45.8411 127.992 46.1562 127.117 46.1562C126.268 46.1562 125.576 45.9141 125.039 45.4297C124.503 44.9453 124.234 44.3464 124.234 43.6328C124.234 42.7318 124.568 42.0417 125.234 41.5625C125.906 41.0781 126.865 40.8359 128.109 40.8359H129.273V40.2812C129.273 39.8438 129.151 39.4948 128.906 39.2344C128.661 38.9688 128.289 38.8359 127.789 38.8359C127.357 38.8359 127.003 38.9453 126.727 39.1641C126.451 39.3776 126.312 39.651 126.312 39.9844H124.414C124.414 39.5208 124.568 39.0885 124.875 38.6875C125.182 38.2812 125.599 37.9635 126.125 37.7344C126.656 37.5052 127.247 37.3906 127.898 37.3906C128.888 37.3906 129.677 37.6406 130.266 38.1406C130.854 38.6354 131.156 39.3333 131.172 40.2344V44.0469C131.172 44.8073 131.279 45.4141 131.492 45.8672V46H129.555ZM127.469 44.6328C127.844 44.6328 128.195 44.5417 128.523 44.3594C128.857 44.1771 129.107 43.9323 129.273 43.625V42.0312H128.25C127.547 42.0312 127.018 42.1536 126.664 42.3984C126.31 42.6432 126.133 42.9896 126.133 43.4375C126.133 43.8021 126.253 44.0938 126.492 44.3125C126.737 44.526 127.062 44.6328 127.469 44.6328ZM137.586 39.2812C137.336 39.2396 137.078 39.2188 136.812 39.2188C135.943 39.2188 135.357 39.5521 135.055 40.2188V46H133.156V37.5469H134.969L135.016 38.4922C135.474 37.7578 136.109 37.3906 136.922 37.3906C137.193 37.3906 137.417 37.4271 137.594 37.5L137.586 39.2812ZM141.555 35.4922V37.5469H143.047V38.9531H141.555V43.6719C141.555 43.9948 141.617 44.2292 141.742 44.375C141.872 44.5156 142.102 44.5859 142.43 44.5859C142.648 44.5859 142.87 44.5599 143.094 44.5078V45.9766C142.661 46.0964 142.245 46.1562 141.844 46.1562C140.385 46.1562 139.656 45.3516 139.656 43.7422V38.9531H138.266V37.5469H139.656V35.4922H141.555ZM151.961 44.6406C152.435 44.6406 152.828 44.5026 153.141 44.2266C153.453 43.9505 153.62 43.6094 153.641 43.2031H155.43C155.409 43.7292 155.245 44.2214 154.938 44.6797C154.63 45.1328 154.214 45.4922 153.688 45.7578C153.161 46.0234 152.594 46.1562 151.984 46.1562C150.802 46.1562 149.865 45.7734 149.172 45.0078C148.479 44.2422 148.133 43.1849 148.133 41.8359V41.6406C148.133 40.3542 148.477 39.3255 149.164 38.5547C149.852 37.7786 150.789 37.3906 151.977 37.3906C152.982 37.3906 153.799 37.6849 154.43 38.2734C155.065 38.8568 155.398 39.625 155.43 40.5781H153.641C153.62 40.0938 153.453 39.6953 153.141 39.3828C152.833 39.0703 152.44 38.9141 151.961 38.9141C151.346 38.9141 150.872 39.138 150.539 39.5859C150.206 40.0286 150.036 40.7031 150.031 41.6094V41.9141C150.031 42.8307 150.195 43.5156 150.523 43.9688C150.857 44.4167 151.336 44.6406 151.961 44.6406ZM156.508 41.6953C156.508 40.8672 156.672 40.1224 157 39.4609C157.328 38.7943 157.789 38.2839 158.383 37.9297C158.977 37.5703 159.659 37.3906 160.43 37.3906C161.57 37.3906 162.495 37.7578 163.203 38.4922C163.917 39.2266 164.302 40.2005 164.359 41.4141L164.367 41.8594C164.367 42.6927 164.206 43.4375 163.883 44.0938C163.565 44.75 163.107 45.2578 162.508 45.6172C161.914 45.9766 161.227 46.1562 160.445 46.1562C159.253 46.1562 158.297 45.7604 157.578 44.9688C156.865 44.1719 156.508 43.112 156.508 41.7891V41.6953ZM158.406 41.8594C158.406 42.7292 158.586 43.4115 158.945 43.9062C159.305 44.3958 159.805 44.6406 160.445 44.6406C161.086 44.6406 161.583 44.3906 161.938 43.8906C162.297 43.3906 162.477 42.6589 162.477 41.6953C162.477 40.8411 162.292 40.1641 161.922 39.6641C161.557 39.1641 161.06 38.9141 160.43 38.9141C159.81 38.9141 159.318 39.1615 158.953 39.6562C158.589 40.1458 158.406 40.8802 158.406 41.8594ZM167.734 37.5469L167.789 38.5234C168.414 37.7682 169.234 37.3906 170.25 37.3906C172.01 37.3906 172.906 38.3984 172.938 40.4141V46H171.039V40.5234C171.039 39.987 170.922 39.5911 170.688 39.3359C170.458 39.0755 170.081 38.9453 169.555 38.9453C168.789 38.9453 168.219 39.2917 167.844 39.9844V46H165.945V37.5469H167.734ZM177.258 35.4922V37.5469H178.75V38.9531H177.258V43.6719C177.258 43.9948 177.32 44.2292 177.445 44.375C177.576 44.5156 177.805 44.5859 178.133 44.5859C178.352 44.5859 178.573 44.5599 178.797 44.5078V45.9766C178.365 46.0964 177.948 46.1562 177.547 46.1562C176.089 46.1562 175.359 45.3516 175.359 43.7422V38.9531H173.969V37.5469H175.359V35.4922H177.258ZM184.633 39.2812C184.383 39.2396 184.125 39.2188 183.859 39.2188C182.99 39.2188 182.404 39.5521 182.102 40.2188V46H180.203V37.5469H182.016L182.062 38.4922C182.521 37.7578 183.156 37.3906 183.969 37.3906C184.24 37.3906 184.464 37.4271 184.641 37.5L184.633 39.2812ZM190.648 46C190.565 45.8385 190.492 45.5755 190.43 45.2109C189.826 45.8411 189.086 46.1562 188.211 46.1562C187.362 46.1562 186.669 45.9141 186.133 45.4297C185.596 44.9453 185.328 44.3464 185.328 43.6328C185.328 42.7318 185.661 42.0417 186.328 41.5625C187 41.0781 187.958 40.8359 189.203 40.8359H190.367V40.2812C190.367 39.8438 190.245 39.4948 190 39.2344C189.755 38.9688 189.383 38.8359 188.883 38.8359C188.451 38.8359 188.096 38.9453 187.82 39.1641C187.544 39.3776 187.406 39.651 187.406 39.9844H185.508C185.508 39.5208 185.661 39.0885 185.969 38.6875C186.276 38.2812 186.693 37.9635 187.219 37.7344C187.75 37.5052 188.341 37.3906 188.992 37.3906C189.982 37.3906 190.771 37.6406 191.359 38.1406C191.948 38.6354 192.25 39.3333 192.266 40.2344V44.0469C192.266 44.8073 192.372 45.4141 192.586 45.8672V46H190.648ZM188.562 44.6328C188.938 44.6328 189.289 44.5417 189.617 44.3594C189.951 44.1771 190.201 43.9323 190.367 43.625V42.0312H189.344C188.641 42.0312 188.112 42.1536 187.758 42.3984C187.404 42.6432 187.227 42.9896 187.227 43.4375C187.227 43.8021 187.346 44.0938 187.586 44.3125C187.831 44.526 188.156 44.6328 188.562 44.6328ZM197.727 44.6406C198.201 44.6406 198.594 44.5026 198.906 44.2266C199.219 43.9505 199.385 43.6094 199.406 43.2031H201.195C201.174 43.7292 201.01 44.2214 200.703 44.6797C200.396 45.1328 199.979 45.4922 199.453 45.7578C198.927 46.0234 198.359 46.1562 197.75 46.1562C196.568 46.1562 195.63 45.7734 194.938 45.0078C194.245 44.2422 193.898 43.1849 193.898 41.8359V41.6406C193.898 40.3542 194.242 39.3255 194.93 38.5547C195.617 37.7786 196.555 37.3906 197.742 37.3906C198.747 37.3906 199.565 37.6849 200.195 38.2734C200.831 38.8568 201.164 39.625 201.195 40.5781H199.406C199.385 40.0938 199.219 39.6953 198.906 39.3828C198.599 39.0703 198.206 38.9141 197.727 38.9141C197.112 38.9141 196.638 39.138 196.305 39.5859C195.971 40.0286 195.802 40.7031 195.797 41.6094V41.9141C195.797 42.8307 195.961 43.5156 196.289 43.9688C196.622 44.4167 197.102 44.6406 197.727 44.6406ZM205.008 35.4922V37.5469H206.5V38.9531H205.008V43.6719C205.008 43.9948 205.07 44.2292 205.195 44.375C205.326 44.5156 205.555 44.5859 205.883 44.5859C206.102 44.5859 206.323 44.5599 206.547 44.5078V45.9766C206.115 46.0964 205.698 46.1562 205.297 46.1562C203.839 46.1562 203.109 45.3516 203.109 43.7422V38.9531H201.719V37.5469H203.109V35.4922H205.008Z" fill="#DE1306"/>
<g filter="url(#filter1_d)">
<rect x="30" y="77" width="162" height="30" rx="10" fill="white"/>
<rect x="30.5" y="77.5" width="161" height="29" rx="9.5" stroke="#E12519"/>
</g>
<g filter="url(#filter2_d)">
<rect x="205" y="77" width="100" height="125" rx="10" fill="white"/>
<rect x="205.5" y="77.5" width="99" height="124" rx="9.5" stroke="#E12519"/>
</g>
<g filter="url(#filter3_d)">
<rect x="30" y="118" width="162" height="84" rx="10" fill="white"/>
<rect x="30.5" y="118.5" width="161" height="83" rx="9.5" stroke="#E12519"/>
</g>
<g filter="url(#filter4_d)">
<rect x="39" y="144" width="146" height="53" rx="10" fill="white"/>
<rect x="39.5" y="144.5" width="145" height="52" rx="9.5" stroke="black"/>
</g>
<path d="M46.9453 91.7422H42.0156V95.7734H47.7422V97H40.5156V85.625H47.6641V86.8594H42.0156V90.5156H46.9453V91.7422ZM50.75 88.5469L50.7969 89.6094C51.4427 88.7969 52.2865 88.3906 53.3281 88.3906C55.1146 88.3906 56.0156 89.3984 56.0312 91.4141V97H54.5859V91.4062C54.5807 90.7969 54.4401 90.3464 54.1641 90.0547C53.8932 89.763 53.4688 89.6172 52.8906 89.6172C52.4219 89.6172 52.0104 89.7422 51.6562 89.9922C51.3021 90.2422 51.026 90.5703 50.8281 90.9766V97H49.3828V88.5469H50.75ZM60.1719 86.5V88.5469H61.75V89.6641H60.1719V94.9062C60.1719 95.2448 60.2422 95.5 60.3828 95.6719C60.5234 95.8385 60.763 95.9219 61.1016 95.9219C61.2682 95.9219 61.4974 95.8906 61.7891 95.8281V97C61.4089 97.1042 61.0391 97.1562 60.6797 97.1562C60.0339 97.1562 59.5469 96.9609 59.2188 96.5703C58.8906 96.1797 58.7266 95.625 58.7266 94.9062V89.6641H57.1875V88.5469H58.7266V86.5H60.1719ZM67.5312 89.8438C67.3125 89.8073 67.0755 89.7891 66.8203 89.7891C65.8724 89.7891 65.2292 90.1927 64.8906 91V97H63.4453V88.5469H64.8516L64.875 89.5234C65.349 88.7682 66.0208 88.3906 66.8906 88.3906C67.1719 88.3906 67.3854 88.4271 67.5312 88.5V89.8438ZM71.7734 94.8828L73.7422 88.5469H75.2891L71.8906 98.3047C71.3646 99.7109 70.5286 100.414 69.3828 100.414L69.1094 100.391L68.5703 100.289V99.1172L68.9609 99.1484C69.4505 99.1484 69.8307 99.0495 70.1016 98.8516C70.3776 98.6536 70.6042 98.2917 70.7812 97.7656L71.1016 96.9062L68.0859 88.5469H69.6641L71.7734 94.8828ZM83.7266 92.8672C83.7266 94.1536 83.4323 95.1901 82.8438 95.9766C82.2552 96.763 81.4583 97.1562 80.4531 97.1562C79.4271 97.1562 78.6198 96.8307 78.0312 96.1797V100.25H76.5859V88.5469H77.9062L77.9766 89.4844C78.5651 88.7552 79.3828 88.3906 80.4297 88.3906C81.4453 88.3906 82.2474 88.7734 82.8359 89.5391C83.4297 90.3047 83.7266 91.3698 83.7266 92.7344V92.8672ZM82.2812 92.7031C82.2812 91.75 82.0781 90.9974 81.6719 90.4453C81.2656 89.8932 80.7083 89.6172 80 89.6172C79.125 89.6172 78.4688 90.0052 78.0312 90.7812V94.8203C78.4635 95.5911 79.125 95.9766 80.0156 95.9766C80.7083 95.9766 81.2578 95.7031 81.6641 95.1562C82.0755 94.6042 82.2812 93.7865 82.2812 92.7031ZM85.1875 92.6953C85.1875 91.8672 85.349 91.1224 85.6719 90.4609C86 89.7995 86.4531 89.2891 87.0312 88.9297C87.6146 88.5703 88.2786 88.3906 89.0234 88.3906C90.1745 88.3906 91.1042 88.7891 91.8125 89.5859C92.526 90.3828 92.8828 91.4427 92.8828 92.7656V92.8672C92.8828 93.6901 92.724 94.4297 92.4062 95.0859C92.0938 95.737 91.6432 96.2448 91.0547 96.6094C90.4714 96.974 89.7995 97.1562 89.0391 97.1562C87.8932 97.1562 86.9635 96.7578 86.25 95.9609C85.5417 95.1641 85.1875 94.1094 85.1875 92.7969V92.6953ZM86.6406 92.8672C86.6406 93.8047 86.8568 94.5573 87.2891 95.125C87.7266 95.6927 88.3099 95.9766 89.0391 95.9766C89.7734 95.9766 90.3568 95.6901 90.7891 95.1172C91.2214 94.5391 91.4375 93.7318 91.4375 92.6953C91.4375 91.7682 91.2161 91.0182 90.7734 90.4453C90.3359 89.8672 89.7526 89.5781 89.0234 89.5781C88.3099 89.5781 87.7344 89.862 87.2969 90.4297C86.8594 90.9974 86.6406 91.8099 86.6406 92.8672ZM96.2656 97H94.8203V88.5469H96.2656V97ZM94.7031 86.3047C94.7031 86.0703 94.7734 85.8724 94.9141 85.7109C95.0599 85.5495 95.2734 85.4688 95.5547 85.4688C95.8359 85.4688 96.0495 85.5495 96.1953 85.7109C96.3411 85.8724 96.4141 86.0703 96.4141 86.3047C96.4141 86.5391 96.3411 86.7344 96.1953 86.8906C96.0495 87.0469 95.8359 87.125 95.5547 87.125C95.2734 87.125 95.0599 87.0469 94.9141 86.8906C94.7734 86.7344 94.7031 86.5391 94.7031 86.3047ZM99.9531 88.5469L100 89.6094C100.646 88.7969 101.49 88.3906 102.531 88.3906C104.318 88.3906 105.219 89.3984 105.234 91.4141V97H103.789V91.4062C103.784 90.7969 103.643 90.3464 103.367 90.0547C103.096 89.763 102.672 89.6172 102.094 89.6172C101.625 89.6172 101.214 89.7422 100.859 89.9922C100.505 90.2422 100.229 90.5703 100.031 90.9766V97H98.5859V88.5469H99.9531ZM109.375 86.5V88.5469H110.953V89.6641H109.375V94.9062C109.375 95.2448 109.445 95.5 109.586 95.6719C109.727 95.8385 109.966 95.9219 110.305 95.9219C110.471 95.9219 110.701 95.8906 110.992 95.8281V97C110.612 97.1042 110.242 97.1562 109.883 97.1562C109.237 97.1562 108.75 96.9609 108.422 96.5703C108.094 96.1797 107.93 95.625 107.93 94.9062V89.6641H106.391V88.5469H107.93V86.5H109.375ZM117.57 94.7578C117.57 94.3672 117.422 94.0651 117.125 93.8516C116.833 93.6328 116.32 93.4453 115.586 93.2891C114.857 93.1328 114.276 92.9453 113.844 92.7266C113.417 92.5078 113.099 92.2474 112.891 91.9453C112.688 91.6432 112.586 91.2839 112.586 90.8672C112.586 90.1745 112.878 89.5885 113.461 89.1094C114.049 88.6302 114.799 88.3906 115.711 88.3906C116.669 88.3906 117.445 88.638 118.039 89.1328C118.638 89.6276 118.938 90.2604 118.938 91.0312H117.484C117.484 90.6354 117.315 90.2943 116.977 90.0078C116.643 89.7214 116.221 89.5781 115.711 89.5781C115.185 89.5781 114.773 89.6927 114.477 89.9219C114.18 90.151 114.031 90.4505 114.031 90.8203C114.031 91.1693 114.169 91.4323 114.445 91.6094C114.721 91.7865 115.219 91.9557 115.938 92.1172C116.661 92.2786 117.247 92.4714 117.695 92.6953C118.143 92.9193 118.474 93.1901 118.688 93.5078C118.906 93.8203 119.016 94.2031 119.016 94.6562C119.016 95.4115 118.714 96.0182 118.109 96.4766C117.505 96.9297 116.721 97.1562 115.758 97.1562C115.081 97.1562 114.482 97.0365 113.961 96.7969C113.44 96.5573 113.031 96.224 112.734 95.7969C112.443 95.3646 112.297 94.8984 112.297 94.3984H113.742C113.768 94.8828 113.961 95.2682 114.32 95.5547C114.685 95.8359 115.164 95.9766 115.758 95.9766C116.305 95.9766 116.742 95.8672 117.07 95.6484C117.404 95.4245 117.57 95.1276 117.57 94.7578Z" fill="#DE1306"/>
<path d="M56.6797 131.93C55.3932 131.56 54.4557 131.107 53.8672 130.57C53.2839 130.029 52.9922 129.362 52.9922 128.57C52.9922 127.674 53.349 126.935 54.0625 126.352C54.7812 125.763 55.7135 125.469 56.8594 125.469C57.6406 125.469 58.3359 125.62 58.9453 125.922C59.5599 126.224 60.0339 126.641 60.3672 127.172C60.7057 127.703 60.875 128.284 60.875 128.914H59.3672C59.3672 128.227 59.1484 127.688 58.7109 127.297C58.2734 126.901 57.6562 126.703 56.8594 126.703C56.1198 126.703 55.5417 126.867 55.125 127.195C54.7135 127.518 54.5078 127.969 54.5078 128.547C54.5078 129.01 54.7031 129.404 55.0938 129.727C55.4896 130.044 56.1589 130.336 57.1016 130.602C58.0495 130.867 58.7891 131.161 59.3203 131.484C59.8568 131.802 60.2526 132.174 60.5078 132.602C60.7682 133.029 60.8984 133.531 60.8984 134.109C60.8984 135.031 60.5391 135.771 59.8203 136.328C59.1016 136.88 58.1406 137.156 56.9375 137.156C56.1562 137.156 55.4271 137.008 54.75 136.711C54.0729 136.409 53.5495 135.997 53.1797 135.477C52.8151 134.956 52.6328 134.365 52.6328 133.703H54.1406C54.1406 134.391 54.3932 134.935 54.8984 135.336C55.4089 135.732 56.0885 135.93 56.9375 135.93C57.7292 135.93 58.3359 135.768 58.7578 135.445C59.1797 135.122 59.3906 134.682 59.3906 134.125C59.3906 133.568 59.1953 133.138 58.8047 132.836C58.4141 132.529 57.7057 132.227 56.6797 131.93ZM64.5625 126.5V128.547H66.1406V129.664H64.5625V134.906C64.5625 135.245 64.6328 135.5 64.7734 135.672C64.9141 135.839 65.1536 135.922 65.4922 135.922C65.6589 135.922 65.888 135.891 66.1797 135.828V137C65.7995 137.104 65.4297 137.156 65.0703 137.156C64.4245 137.156 63.9375 136.961 63.6094 136.57C63.2812 136.18 63.1172 135.625 63.1172 134.906V129.664H61.5781V128.547H63.1172V126.5H64.5625ZM67.2969 132.695C67.2969 131.867 67.4583 131.122 67.7812 130.461C68.1094 129.799 68.5625 129.289 69.1406 128.93C69.724 128.57 70.388 128.391 71.1328 128.391C72.2839 128.391 73.2135 128.789 73.9219 129.586C74.6354 130.383 74.9922 131.443 74.9922 132.766V132.867C74.9922 133.69 74.8333 134.43 74.5156 135.086C74.2031 135.737 73.7526 136.245 73.1641 136.609C72.5807 136.974 71.9089 137.156 71.1484 137.156C70.0026 137.156 69.0729 136.758 68.3594 135.961C67.651 135.164 67.2969 134.109 67.2969 132.797V132.695ZM68.75 132.867C68.75 133.805 68.9661 134.557 69.3984 135.125C69.8359 135.693 70.4193 135.977 71.1484 135.977C71.8828 135.977 72.4661 135.69 72.8984 135.117C73.3307 134.539 73.5469 133.732 73.5469 132.695C73.5469 131.768 73.3255 131.018 72.8828 130.445C72.4453 129.867 71.862 129.578 71.1328 129.578C70.4193 129.578 69.8438 129.862 69.4062 130.43C68.9688 130.997 68.75 131.81 68.75 132.867ZM80.8906 129.844C80.6719 129.807 80.4349 129.789 80.1797 129.789C79.2318 129.789 78.5885 130.193 78.25 131V137H76.8047V128.547H78.2109L78.2344 129.523C78.7083 128.768 79.3802 128.391 80.25 128.391C80.5312 128.391 80.7448 128.427 80.8906 128.5V129.844ZM87.1328 137C87.0495 136.833 86.9818 136.536 86.9297 136.109C86.2578 136.807 85.4557 137.156 84.5234 137.156C83.6901 137.156 83.0052 136.922 82.4688 136.453C81.9375 135.979 81.6719 135.38 81.6719 134.656C81.6719 133.776 82.0052 133.094 82.6719 132.609C83.3438 132.12 84.2865 131.875 85.5 131.875H86.9062V131.211C86.9062 130.706 86.7552 130.305 86.4531 130.008C86.151 129.706 85.7057 129.555 85.1172 129.555C84.6016 129.555 84.1693 129.685 83.8203 129.945C83.4714 130.206 83.2969 130.521 83.2969 130.891H81.8438C81.8438 130.469 81.9922 130.062 82.2891 129.672C82.5911 129.276 82.9974 128.964 83.5078 128.734C84.0234 128.505 84.5885 128.391 85.2031 128.391C86.1771 128.391 86.9401 128.635 87.4922 129.125C88.0443 129.609 88.3307 130.279 88.3516 131.133V135.023C88.3516 135.799 88.4505 136.417 88.6484 136.875V137H87.1328ZM84.7344 135.898C85.1875 135.898 85.6172 135.781 86.0234 135.547C86.4297 135.312 86.724 135.008 86.9062 134.633V132.898H85.7734C84.0026 132.898 83.1172 133.417 83.1172 134.453C83.1172 134.906 83.2682 135.26 83.5703 135.516C83.8724 135.771 84.2604 135.898 84.7344 135.898ZM90.2734 132.703C90.2734 131.385 90.5781 130.339 91.1875 129.562C91.7969 128.781 92.6042 128.391 93.6094 128.391C94.6406 128.391 95.4453 128.755 96.0234 129.484L96.0938 128.547H97.4141V136.797C97.4141 137.891 97.0885 138.753 96.4375 139.383C95.7917 140.013 94.9219 140.328 93.8281 140.328C93.2188 140.328 92.6224 140.198 92.0391 139.938C91.4557 139.677 91.0104 139.32 90.7031 138.867L91.4531 138C92.0729 138.766 92.8307 139.148 93.7266 139.148C94.4297 139.148 94.9766 138.951 95.3672 138.555C95.763 138.159 95.9609 137.602 95.9609 136.883V136.156C95.3828 136.823 94.5938 137.156 93.5938 137.156C92.6042 137.156 91.8021 136.758 91.1875 135.961C90.5781 135.164 90.2734 134.078 90.2734 132.703ZM91.7266 132.867C91.7266 133.82 91.9219 134.57 92.3125 135.117C92.7031 135.659 93.25 135.93 93.9531 135.93C94.8646 135.93 95.5339 135.516 95.9609 134.688V130.828C95.5182 130.021 94.8542 129.617 93.9688 129.617C93.2656 129.617 92.7161 129.891 92.3203 130.438C91.9245 130.984 91.7266 131.794 91.7266 132.867ZM103.109 137.156C101.964 137.156 101.031 136.781 100.312 136.031C99.5938 135.276 99.2344 134.268 99.2344 133.008V132.742C99.2344 131.904 99.3932 131.156 99.7109 130.5C100.034 129.839 100.482 129.323 101.055 128.953C101.633 128.578 102.258 128.391 102.93 128.391C104.029 128.391 104.883 128.753 105.492 129.477C106.102 130.201 106.406 131.237 106.406 132.586V133.188H100.68C100.701 134.021 100.943 134.695 101.406 135.211C101.875 135.721 102.469 135.977 103.188 135.977C103.698 135.977 104.13 135.872 104.484 135.664C104.839 135.456 105.148 135.18 105.414 134.836L106.297 135.523C105.589 136.612 104.526 137.156 103.109 137.156ZM102.93 129.578C102.346 129.578 101.857 129.792 101.461 130.219C101.065 130.641 100.82 131.234 100.727 132H104.961V131.891C104.919 131.156 104.721 130.589 104.367 130.188C104.013 129.781 103.534 129.578 102.93 129.578Z" fill="#DE1306"/>
<path d="M50.001 149.047L53.2549 157.168L56.5088 149.047H58.2109V159H56.8984V155.124L57.0215 150.94L53.7539 159H52.749L49.4883 150.961L49.6182 155.124V159H48.3057V149.047H50.001ZM64.8965 159C64.8236 158.854 64.7643 158.594 64.7188 158.221C64.1309 158.831 63.429 159.137 62.6133 159.137C61.8841 159.137 61.2848 158.932 60.8154 158.521C60.3506 158.107 60.1182 157.583 60.1182 156.949C60.1182 156.179 60.4098 155.582 60.9932 155.158C61.5811 154.73 62.4059 154.516 63.4678 154.516H64.6982V153.935C64.6982 153.493 64.5661 153.142 64.3018 152.882C64.0374 152.618 63.6478 152.485 63.1328 152.485C62.6816 152.485 62.3034 152.599 61.998 152.827C61.6927 153.055 61.54 153.331 61.54 153.654H60.2686C60.2686 153.285 60.3984 152.93 60.6582 152.588C60.9225 152.242 61.278 151.968 61.7246 151.768C62.1758 151.567 62.6702 151.467 63.208 151.467C64.0602 151.467 64.7279 151.681 65.2109 152.109C65.694 152.533 65.9447 153.119 65.9629 153.866V157.271C65.9629 157.95 66.0495 158.49 66.2227 158.891V159H64.8965ZM62.7979 158.036C63.1943 158.036 63.5703 157.934 63.9258 157.729C64.2812 157.523 64.5387 157.257 64.6982 156.929V155.411H63.707C62.1576 155.411 61.3828 155.865 61.3828 156.771C61.3828 157.168 61.515 157.478 61.7793 157.701C62.0436 157.924 62.3831 158.036 62.7979 158.036ZM74.1934 155.384C74.1934 156.509 73.9359 157.416 73.4209 158.104C72.9059 158.793 72.2087 159.137 71.3291 159.137C70.4313 159.137 69.7249 158.852 69.21 158.282V161.844H67.9453V151.604H69.1006L69.1621 152.424C69.6771 151.786 70.3926 151.467 71.3086 151.467C72.1973 151.467 72.8991 151.802 73.4141 152.472C73.9336 153.142 74.1934 154.074 74.1934 155.268V155.384ZM72.9287 155.24C72.9287 154.406 72.751 153.748 72.3955 153.265C72.04 152.782 71.5524 152.54 70.9326 152.54C70.167 152.54 69.5928 152.88 69.21 153.559V157.093C69.5882 157.767 70.167 158.104 70.9463 158.104C71.5524 158.104 72.0332 157.865 72.3887 157.387C72.7487 156.904 72.9287 156.188 72.9287 155.24Z" fill="black"/>
<path d="M246.156 103.391C246.016 104.594 245.57 105.523 244.82 106.18C244.076 106.831 243.083 107.156 241.844 107.156C240.5 107.156 239.422 106.674 238.609 105.711C237.802 104.747 237.398 103.458 237.398 101.844V100.75C237.398 99.6927 237.586 98.763 237.961 97.9609C238.341 97.1589 238.878 96.5443 239.57 96.1172C240.263 95.6849 241.065 95.4688 241.977 95.4688C243.185 95.4688 244.154 95.8073 244.883 96.4844C245.612 97.1562 246.036 98.0885 246.156 99.2812H244.648C244.518 98.375 244.234 97.7188 243.797 97.3125C243.365 96.9062 242.758 96.7031 241.977 96.7031C241.018 96.7031 240.266 97.0573 239.719 97.7656C239.177 98.474 238.906 99.4818 238.906 100.789V101.891C238.906 103.125 239.164 104.107 239.68 104.836C240.195 105.565 240.917 105.93 241.844 105.93C242.677 105.93 243.315 105.742 243.758 105.367C244.206 104.987 244.503 104.328 244.648 103.391H246.156ZM247.602 102.695C247.602 101.867 247.763 101.122 248.086 100.461C248.414 99.7995 248.867 99.2891 249.445 98.9297C250.029 98.5703 250.693 98.3906 251.438 98.3906C252.589 98.3906 253.518 98.7891 254.227 99.5859C254.94 100.383 255.297 101.443 255.297 102.766V102.867C255.297 103.69 255.138 104.43 254.82 105.086C254.508 105.737 254.057 106.245 253.469 106.609C252.885 106.974 252.214 107.156 251.453 107.156C250.307 107.156 249.378 106.758 248.664 105.961C247.956 105.164 247.602 104.109 247.602 102.797V102.695ZM249.055 102.867C249.055 103.805 249.271 104.557 249.703 105.125C250.141 105.693 250.724 105.977 251.453 105.977C252.188 105.977 252.771 105.69 253.203 105.117C253.635 104.539 253.852 103.732 253.852 102.695C253.852 101.768 253.63 101.018 253.188 100.445C252.75 99.8672 252.167 99.5781 251.438 99.5781C250.724 99.5781 250.148 99.862 249.711 100.43C249.273 100.997 249.055 101.81 249.055 102.867ZM256.758 102.703C256.758 101.406 257.065 100.365 257.68 99.5781C258.294 98.7865 259.099 98.3906 260.094 98.3906C261.083 98.3906 261.867 98.7292 262.445 99.4062V95H263.891V107H262.562L262.492 106.094C261.914 106.802 261.109 107.156 260.078 107.156C259.099 107.156 258.299 106.755 257.68 105.953C257.065 105.151 256.758 104.104 256.758 102.812V102.703ZM258.203 102.867C258.203 103.826 258.401 104.576 258.797 105.117C259.193 105.659 259.74 105.93 260.438 105.93C261.354 105.93 262.023 105.518 262.445 104.695V100.812C262.013 100.016 261.349 99.6172 260.453 99.6172C259.745 99.6172 259.193 99.8906 258.797 100.438C258.401 100.984 258.203 101.794 258.203 102.867ZM269.648 107.156C268.503 107.156 267.57 106.781 266.852 106.031C266.133 105.276 265.773 104.268 265.773 103.008V102.742C265.773 101.904 265.932 101.156 266.25 100.5C266.573 99.8385 267.021 99.3229 267.594 98.9531C268.172 98.5781 268.797 98.3906 269.469 98.3906C270.568 98.3906 271.422 98.7526 272.031 99.4766C272.641 100.201 272.945 101.237 272.945 102.586V103.188H267.219C267.24 104.021 267.482 104.695 267.945 105.211C268.414 105.721 269.008 105.977 269.727 105.977C270.237 105.977 270.669 105.872 271.023 105.664C271.378 105.456 271.688 105.18 271.953 104.836L272.836 105.523C272.128 106.612 271.065 107.156 269.648 107.156ZM269.469 99.5781C268.885 99.5781 268.396 99.7917 268 100.219C267.604 100.641 267.359 101.234 267.266 102H271.5V101.891C271.458 101.156 271.26 100.589 270.906 100.188C270.552 99.7812 270.073 99.5781 269.469 99.5781Z" fill="#DE1306"/>
<path d="M252.406 135.5C252.026 136.036 251.471 136.451 250.742 136.742C250.018 137.029 249.19 137.167 248.258 137.156C247.513 137.141 246.862 136.966 246.305 136.633C245.747 136.299 245.31 135.823 244.992 135.203C244.674 134.578 244.492 133.87 244.445 133.078C244.409 132.458 244.484 131.62 244.672 130.562C244.865 129.505 245.198 128.591 245.672 127.82C246.146 127.049 246.737 126.461 247.445 126.055C248.159 125.648 248.974 125.453 249.891 125.469C250.948 125.49 251.789 125.805 252.414 126.414C253.044 127.018 253.404 127.87 253.492 128.969H252.039C251.982 128.25 251.766 127.698 251.391 127.312C251.016 126.927 250.497 126.724 249.836 126.703C248.857 126.667 248.036 127.018 247.375 127.758C246.719 128.497 246.286 129.578 246.078 131L245.93 132.094L245.906 132.688C245.906 133.714 246.117 134.508 246.539 135.07C246.961 135.628 247.552 135.911 248.312 135.922C249.411 135.948 250.284 135.677 250.93 135.109L251.398 132.555H248.836L249.055 131.336H253.055L252.406 135.5ZM258 137.156C256.948 137.135 256.125 136.747 255.531 135.992C254.938 135.237 254.688 134.271 254.781 133.094L254.82 132.758C254.909 131.919 255.156 131.154 255.562 130.461C255.974 129.768 256.474 129.247 257.062 128.898C257.651 128.544 258.286 128.375 258.969 128.391C259.839 128.411 260.521 128.701 261.016 129.258C261.51 129.815 261.781 130.57 261.828 131.523C261.844 131.862 261.833 132.201 261.797 132.539L261.711 133.188H256.188C256.094 133.953 256.219 134.604 256.562 135.141C256.911 135.677 257.43 135.956 258.117 135.977C258.951 135.997 259.721 135.622 260.43 134.852L261.242 135.539C260.888 136.049 260.43 136.451 259.867 136.742C259.31 137.029 258.688 137.167 258 137.156ZM258.898 129.57C258.315 129.555 257.805 129.753 257.367 130.164C256.935 130.576 256.591 131.188 256.336 132L260.445 132.008L260.477 131.883C260.56 131.227 260.453 130.682 260.156 130.25C259.865 129.812 259.445 129.586 258.898 129.57ZM266.375 126.5L266.016 128.547H267.555L267.359 129.664H265.828L264.945 134.922C264.93 135.057 264.927 135.182 264.938 135.297C264.974 135.703 265.195 135.906 265.602 135.906C265.773 135.906 266.003 135.88 266.289 135.828L266.18 137.008C265.841 137.102 265.497 137.148 265.148 137.148C264.586 137.138 264.164 136.932 263.883 136.531C263.602 136.125 263.492 135.581 263.555 134.898L264.414 129.664H262.922L263.117 128.547H264.609L264.969 126.5H266.375Z" fill="#65BF73"/>
<path d="M51.7031 176.727L50.0391 178.219L49.3828 182H47.9141L49.8906 170.625H51.3594L50.3906 176.164L56.1875 170.625H58.0781L52.7891 175.719L56.3281 182H54.6953L51.7031 176.727ZM60.9609 182.156C59.9089 182.135 59.0859 181.747 58.4922 180.992C57.8984 180.237 57.6484 179.271 57.7422 178.094L57.7812 177.758C57.8698 176.919 58.1172 176.154 58.5234 175.461C58.9349 174.768 59.4349 174.247 60.0234 173.898C60.612 173.544 61.2474 173.375 61.9297 173.391C62.7995 173.411 63.4818 173.701 63.9766 174.258C64.4714 174.815 64.7422 175.57 64.7891 176.523C64.8047 176.862 64.7943 177.201 64.7578 177.539L64.6719 178.188H59.1484C59.0547 178.953 59.1797 179.604 59.5234 180.141C59.8724 180.677 60.3906 180.956 61.0781 180.977C61.9115 180.997 62.6823 180.622 63.3906 179.852L64.2031 180.539C63.849 181.049 63.3906 181.451 62.8281 181.742C62.2708 182.029 61.6484 182.167 60.9609 182.156ZM61.8594 174.57C61.276 174.555 60.7656 174.753 60.3281 175.164C59.8958 175.576 59.5521 176.188 59.2969 177L63.4062 177.008L63.4375 176.883C63.5208 176.227 63.4141 175.682 63.1172 175.25C62.8255 174.812 62.4062 174.586 61.8594 174.57ZM68.5234 179.867L71.5312 173.547H73.0938L68.0781 183.406C67.3802 184.776 66.4844 185.453 65.3906 185.438C65.1979 185.432 64.9141 185.385 64.5391 185.297L64.6641 184.125L65.0312 184.164C65.4792 184.185 65.8646 184.083 66.1875 183.859C66.5156 183.641 66.8047 183.284 67.0547 182.789L67.5625 181.82L66.1016 173.547H67.5781L68.5234 179.867Z" fill="#65BF73"/>
<path d="M73.7188 181.242C73.7188 180.992 73.7917 180.784 73.9375 180.617C74.0885 180.451 74.3125 180.367 74.6094 180.367C74.9062 180.367 75.1302 180.451 75.2812 180.617C75.4375 180.784 75.5156 180.992 75.5156 181.242C75.5156 181.482 75.4375 181.682 75.2812 181.844C75.1302 182.005 74.9062 182.086 74.6094 182.086C74.3125 182.086 74.0885 182.005 73.9375 181.844C73.7917 181.682 73.7188 181.482 73.7188 181.242ZM73.7266 174.344C73.7266 174.094 73.7995 173.885 73.9453 173.719C74.0964 173.552 74.3203 173.469 74.6172 173.469C74.9141 173.469 75.138 173.552 75.2891 173.719C75.4453 173.885 75.5234 174.094 75.5234 174.344C75.5234 174.583 75.4453 174.784 75.2891 174.945C75.138 175.107 74.9141 175.188 74.6172 175.188C74.3203 175.188 74.0964 175.107 73.9453 174.945C73.7995 174.784 73.7266 174.583 73.7266 174.344Z" fill="#1D1D1D"/>
<path d="M250.977 169.07C251.091 168.237 250.659 167.628 249.68 167.242L248.328 166.75L247.875 166.555C246.354 165.862 245.643 164.888 245.742 163.633C245.794 163.003 246.01 162.445 246.391 161.961C246.771 161.477 247.273 161.104 247.898 160.844C248.529 160.578 249.198 160.453 249.906 160.469C250.594 160.484 251.206 160.638 251.742 160.93C252.284 161.221 252.695 161.63 252.977 162.156C253.258 162.677 253.383 163.266 253.352 163.922L251.875 163.914C251.927 163.216 251.771 162.677 251.406 162.297C251.042 161.911 250.521 161.714 249.844 161.703C249.13 161.693 248.534 161.859 248.055 162.203C247.576 162.547 247.299 163.016 247.227 163.609C247.122 164.385 247.599 164.974 248.656 165.375L249.82 165.789L250.406 166.039C251.875 166.716 252.555 167.721 252.445 169.055C252.388 169.695 252.172 170.25 251.797 170.719C251.422 171.182 250.911 171.542 250.266 171.797C249.625 172.052 248.935 172.172 248.195 172.156C247.482 172.151 246.828 172 246.234 171.703C245.646 171.401 245.198 170.99 244.891 170.469C244.583 169.948 244.448 169.357 244.484 168.695L245.953 168.703C245.906 169.38 246.089 169.919 246.5 170.32C246.917 170.716 247.503 170.919 248.258 170.93C249.013 170.94 249.635 170.776 250.125 170.438C250.615 170.099 250.898 169.643 250.977 169.07ZM257.32 172.156C256.268 172.135 255.445 171.747 254.852 170.992C254.258 170.237 254.008 169.271 254.102 168.094L254.141 167.758C254.229 166.919 254.477 166.154 254.883 165.461C255.294 164.768 255.794 164.247 256.383 163.898C256.971 163.544 257.607 163.375 258.289 163.391C259.159 163.411 259.841 163.701 260.336 164.258C260.831 164.815 261.102 165.57 261.148 166.523C261.164 166.862 261.154 167.201 261.117 167.539L261.031 168.188H255.508C255.414 168.953 255.539 169.604 255.883 170.141C256.232 170.677 256.75 170.956 257.438 170.977C258.271 170.997 259.042 170.622 259.75 169.852L260.562 170.539C260.208 171.049 259.75 171.451 259.188 171.742C258.63 172.029 258.008 172.167 257.32 172.156ZM258.219 164.57C257.635 164.555 257.125 164.753 256.688 165.164C256.255 165.576 255.911 166.188 255.656 167L259.766 167.008L259.797 166.883C259.88 166.227 259.773 165.682 259.477 165.25C259.185 164.812 258.766 164.586 258.219 164.57ZM265.695 161.5L265.336 163.547H266.875L266.68 164.664H265.148L264.266 169.922C264.25 170.057 264.247 170.182 264.258 170.297C264.294 170.703 264.516 170.906 264.922 170.906C265.094 170.906 265.323 170.88 265.609 170.828L265.5 172.008C265.161 172.102 264.818 172.148 264.469 172.148C263.906 172.138 263.484 171.932 263.203 171.531C262.922 171.125 262.812 170.581 262.875 169.898L263.734 164.664H262.242L262.438 163.547H263.93L264.289 161.5H265.695Z" fill="#2097F6"/>
<path d="M82.2188 182L83.5 174.664H82.1953L82.3906 173.547H83.6875L83.8281 172.547C83.9635 171.698 84.2917 171.034 84.8125 170.555C85.3594 170.055 86.0573 169.81 86.9062 169.82C87.1719 169.82 87.5078 169.865 87.9141 169.953L87.7422 171.133C87.4922 171.081 87.2396 171.049 86.9844 171.039C86.4948 171.039 86.0964 171.193 85.7891 171.5C85.487 171.802 85.2995 172.206 85.2266 172.711L85.1016 173.547H86.8516L86.6562 174.664H84.9062L83.6328 182H82.2188ZM92.3672 181.164C91.7057 181.846 90.8646 182.177 89.8438 182.156C89.0365 182.135 88.4375 181.846 88.0469 181.289C87.6615 180.732 87.5182 179.971 87.6172 179.008L88.5234 173.547H89.9375L89.0234 179.031C88.9974 179.26 88.9922 179.484 89.0078 179.703C89.0339 180.078 89.1458 180.372 89.3438 180.586C89.5417 180.799 89.8177 180.914 90.1719 180.93C91.1823 180.961 91.9635 180.552 92.5156 179.703L93.5781 173.547H94.9922L93.5234 182H92.1875L92.3672 181.164ZM98.4453 173.539L98.2422 174.609C99.0026 173.776 99.8672 173.37 100.836 173.391C101.633 173.411 102.221 173.688 102.602 174.219C102.982 174.75 103.122 175.497 103.023 176.461L102.102 182H100.688L101.617 176.438C101.648 176.182 101.651 175.945 101.625 175.727C101.536 174.997 101.107 174.625 100.336 174.609C99.487 174.594 98.7422 175.047 98.1016 175.969L97.0547 182H95.6406L97.1094 173.547L98.4453 173.539ZM107.852 180.984C108.357 180.995 108.812 180.849 109.219 180.547C109.625 180.24 109.891 179.839 110.016 179.344L111.352 179.336C111.273 179.867 111.06 180.352 110.711 180.789C110.367 181.227 109.932 181.568 109.406 181.812C108.88 182.057 108.341 182.172 107.789 182.156C107.086 182.146 106.49 181.964 106 181.609C105.516 181.25 105.159 180.753 104.93 180.117C104.701 179.477 104.622 178.758 104.695 177.961L104.734 177.57C104.833 176.758 105.07 176.031 105.445 175.391C105.82 174.75 106.31 174.253 106.914 173.898C107.518 173.539 108.185 173.37 108.914 173.391C109.799 173.411 110.508 173.708 111.039 174.281C111.57 174.854 111.836 175.581 111.836 176.461L110.516 176.453C110.505 175.901 110.352 175.456 110.055 175.117C109.758 174.773 109.357 174.591 108.852 174.57C108.117 174.555 107.505 174.828 107.016 175.391C106.531 175.953 106.229 176.74 106.109 177.75L106.086 177.953C106.055 178.286 106.049 178.63 106.07 178.984C106.107 179.594 106.279 180.076 106.586 180.43C106.893 180.784 107.315 180.969 107.852 180.984ZM116.219 171.5L115.859 173.547H117.398L117.203 174.664H115.672L114.789 179.922C114.773 180.057 114.771 180.182 114.781 180.297C114.818 180.703 115.039 180.906 115.445 180.906C115.617 180.906 115.846 180.88 116.133 180.828L116.023 182.008C115.685 182.102 115.341 182.148 114.992 182.148C114.43 182.138 114.008 181.932 113.727 181.531C113.445 181.125 113.336 180.581 113.398 179.898L114.258 174.664H112.766L112.961 173.547H114.453L114.812 171.5H116.219ZM119.172 182H117.766L119.234 173.547H120.641L119.172 182ZM120.336 170.461C120.576 170.451 120.773 170.523 120.93 170.68C121.091 170.831 121.172 171.031 121.172 171.281C121.167 171.526 121.086 171.727 120.93 171.883C120.779 172.039 120.581 172.122 120.336 172.133C120.091 172.143 119.891 172.073 119.734 171.922C119.578 171.771 119.503 171.573 119.508 171.328C119.513 171.083 119.591 170.88 119.742 170.719C119.893 170.557 120.091 170.471 120.336 170.461ZM126.18 173.391C126.888 173.401 127.495 173.594 128 173.969C128.505 174.344 128.878 174.862 129.117 175.523C129.362 176.18 129.445 176.898 129.367 177.68L129.352 177.852C129.253 178.674 129.008 179.419 128.617 180.086C128.227 180.747 127.721 181.263 127.102 181.633C126.482 182.003 125.802 182.177 125.062 182.156C124.359 182.146 123.753 181.953 123.242 181.578C122.737 181.203 122.367 180.693 122.133 180.047C121.898 179.401 121.815 178.69 121.883 177.914C121.961 177.039 122.198 176.253 122.594 175.555C122.99 174.857 123.497 174.318 124.117 173.938C124.742 173.552 125.43 173.37 126.18 173.391ZM123.305 177.922C123.268 178.25 123.268 178.591 123.305 178.945C123.357 179.56 123.539 180.049 123.852 180.414C124.169 180.779 124.591 180.969 125.117 180.984C125.586 181 126.018 180.885 126.414 180.641C126.81 180.391 127.143 180.016 127.414 179.516C127.685 179.016 127.859 178.461 127.938 177.852C127.979 177.372 127.987 176.969 127.961 176.641C127.898 176.01 127.708 175.513 127.391 175.148C127.073 174.784 126.651 174.591 126.125 174.57C125.396 174.555 124.776 174.841 124.266 175.43C123.755 176.018 123.44 176.789 123.32 177.742L123.305 177.922ZM133.227 173.539L133.023 174.609C133.784 173.776 134.648 173.37 135.617 173.391C136.414 173.411 137.003 173.688 137.383 174.219C137.763 174.75 137.904 175.497 137.805 176.461L136.883 182H135.469L136.398 176.438C136.43 176.182 136.432 175.945 136.406 175.727C136.318 174.997 135.888 174.625 135.117 174.609C134.268 174.594 133.523 175.047 132.883 175.969L131.836 182H130.422L131.891 173.547L133.227 173.539ZM143.781 177.414C143.953 176.211 144.271 175.039 144.734 173.898C145.203 172.758 145.776 171.786 146.453 170.984C147.13 170.177 147.885 169.568 148.719 169.156L148.93 170.125C148.112 170.734 147.409 171.531 146.82 172.516C146.237 173.495 145.786 174.661 145.469 176.016C145.151 177.365 144.997 178.695 145.008 180.008C145.008 181.086 145.146 182.034 145.422 182.852C145.703 183.674 146.107 184.323 146.633 184.797L146.281 185.672C145.411 185.068 144.745 184.174 144.281 182.992C143.823 181.81 143.615 180.456 143.656 178.93C143.667 178.43 143.703 177.953 143.766 177.5L143.781 177.414ZM152.406 177.43C152.224 178.701 151.893 179.904 151.414 181.039C150.935 182.169 150.359 183.122 149.688 183.898C149.021 184.68 148.281 185.273 147.469 185.68L147.25 184.781C149.036 183.438 150.229 181.279 150.828 178.305C151.068 177.107 151.182 175.953 151.172 174.844C151.146 172.609 150.604 171.008 149.547 170.039L149.914 169.164C150.497 169.57 150.99 170.112 151.391 170.789C151.797 171.461 152.094 172.245 152.281 173.141C152.474 174.031 152.56 174.956 152.539 175.914C152.523 176.419 152.484 176.896 152.422 177.344L152.406 177.43ZM161.273 184.852C160.451 184.576 159.846 184.125 159.461 183.5C159.076 182.88 158.932 182.122 159.031 181.227L159.25 179.609C159.281 179.354 159.284 179.117 159.258 178.898C159.169 178.19 158.742 177.815 157.977 177.773L158.102 176.641C159.232 176.589 159.88 175.951 160.047 174.727L160.289 172.945C160.596 171.18 161.664 170.034 163.492 169.508L163.703 170.422C162.599 170.786 161.93 171.664 161.695 173.055L161.43 174.93C161.258 175.971 160.708 176.737 159.781 177.227C160.318 177.628 160.612 178.198 160.664 178.938C160.68 179.167 160.677 179.393 160.656 179.617L160.414 181.516L160.398 182.07L160.414 182.312C160.503 183.141 160.896 183.693 161.594 183.969L161.273 184.852ZM164.148 180.359C164.404 180.354 164.615 180.432 164.781 180.594C164.948 180.755 165.029 180.964 165.023 181.219C165.018 181.474 164.932 181.682 164.766 181.844C164.599 182 164.391 182.083 164.141 182.094C163.891 182.104 163.685 182.034 163.523 181.883C163.362 181.727 163.281 181.521 163.281 181.266C163.281 181.01 163.362 180.799 163.523 180.633C163.685 180.461 163.893 180.37 164.148 180.359ZM168.32 180.359C168.576 180.354 168.786 180.432 168.953 180.594C169.12 180.755 169.201 180.964 169.195 181.219C169.19 181.474 169.104 181.682 168.938 181.844C168.771 182 168.562 182.083 168.312 182.094C168.062 182.104 167.857 182.034 167.695 181.883C167.534 181.727 167.453 181.521 167.453 181.266C167.453 181.01 167.534 180.799 167.695 180.633C167.857 180.461 168.065 180.37 168.32 180.359ZM172.492 180.359C172.747 180.354 172.958 180.432 173.125 180.594C173.292 180.755 173.372 180.964 173.367 181.219C173.362 181.474 173.276 181.682 173.109 181.844C172.943 182 172.734 182.083 172.484 182.094C172.234 182.104 172.029 182.034 171.867 181.883C171.706 181.727 171.625 181.521 171.625 181.266C171.625 181.01 171.706 180.799 171.867 180.633C172.029 180.461 172.237 180.37 172.492 180.359ZM174.477 183.961C175.607 183.591 176.284 182.695 176.508 181.273L176.75 179.508C176.911 178.424 177.5 177.641 178.516 177.156C177.927 176.797 177.599 176.234 177.531 175.469C177.51 175.25 177.513 175.023 177.539 174.789L177.781 172.867L177.797 172.312C177.781 171.354 177.385 170.724 176.609 170.422L176.961 169.539C177.773 169.815 178.367 170.266 178.742 170.891C179.117 171.51 179.255 172.266 179.156 173.156L178.945 174.781C178.914 175.042 178.911 175.279 178.938 175.492C179.021 176.195 179.445 176.568 180.211 176.609L180.094 177.742C178.958 177.794 178.307 178.44 178.141 179.68L177.922 181.297C177.656 183.141 176.581 184.333 174.695 184.875L174.477 183.961Z" fill="#2097F6"/>
<g filter="url(#filter5_d)">
<rect x="394" y="17" width="319" height="209" rx="8" fill="#FEEBEA"/>
<rect x="394.5" y="17.5" width="318" height="208" rx="7.5" stroke="#DE1306"/>
</g>
<path d="M446.359 41.9922V46H444.016V34.625H448.453C449.307 34.625 450.057 34.7812 450.703 35.0938C451.354 35.4062 451.854 35.8516 452.203 36.4297C452.552 37.0026 452.727 37.6562 452.727 38.3906C452.727 39.5052 452.344 40.3854 451.578 41.0312C450.818 41.6719 449.763 41.9922 448.414 41.9922H446.359ZM446.359 40.0938H448.453C449.073 40.0938 449.544 39.9479 449.867 39.6562C450.195 39.3646 450.359 38.9479 450.359 38.4062C450.359 37.849 450.195 37.3984 449.867 37.0547C449.539 36.7109 449.086 36.5339 448.508 36.5234H446.359V40.0938ZM458.945 39.6641C458.638 39.6224 458.367 39.6016 458.133 39.6016C457.279 39.6016 456.719 39.8906 456.453 40.4688V46H454.195V37.5469H456.328L456.391 38.5547C456.844 37.7786 457.471 37.3906 458.273 37.3906C458.523 37.3906 458.758 37.4245 458.977 37.4922L458.945 39.6641ZM459.406 41.6953C459.406 40.8568 459.568 40.1094 459.891 39.4531C460.214 38.7969 460.677 38.2891 461.281 37.9297C461.891 37.5703 462.596 37.3906 463.398 37.3906C464.539 37.3906 465.469 37.7396 466.188 38.4375C466.911 39.1354 467.315 40.0833 467.398 41.2812L467.414 41.8594C467.414 43.1562 467.052 44.1979 466.328 44.9844C465.604 45.7656 464.633 46.1562 463.414 46.1562C462.195 46.1562 461.221 45.7656 460.492 44.9844C459.768 44.2031 459.406 43.1406 459.406 41.7969V41.6953ZM461.664 41.8594C461.664 42.6615 461.815 43.276 462.117 43.7031C462.419 44.125 462.852 44.3359 463.414 44.3359C463.961 44.3359 464.388 44.1276 464.695 43.7109C465.003 43.2891 465.156 42.6172 465.156 41.6953C465.156 40.9089 465.003 40.2995 464.695 39.8672C464.388 39.4349 463.956 39.2188 463.398 39.2188C462.846 39.2188 462.419 39.4349 462.117 39.8672C461.815 40.2943 461.664 40.9583 461.664 41.8594ZM471.852 40.0703L473.273 37.5469H475.688L473.281 41.6875L475.789 46H473.367L471.859 43.3438L470.359 46H467.93L470.438 41.6875L468.039 37.5469H470.461L471.852 40.0703ZM479.93 42.8047L481.492 37.5469H483.914L480.516 47.3125L480.328 47.7578C479.823 48.862 478.99 49.4141 477.828 49.4141C477.5 49.4141 477.167 49.3646 476.828 49.2656V47.5547L477.172 47.5625C477.599 47.5625 477.917 47.4974 478.125 47.3672C478.339 47.237 478.505 47.0208 478.625 46.7188L478.891 46.0234L475.93 37.5469H478.359L479.93 42.8047ZM495.023 43.0703C495.023 42.5703 494.846 42.1849 494.492 41.9141C494.143 41.6432 493.51 41.3698 492.594 41.0938C491.677 40.8177 490.948 40.5104 490.406 40.1719C489.37 39.5208 488.852 38.6719 488.852 37.625C488.852 36.7083 489.224 35.9531 489.969 35.3594C490.719 34.7656 491.69 34.4688 492.883 34.4688C493.674 34.4688 494.38 34.6146 495 34.9062C495.62 35.1979 496.107 35.6146 496.461 36.1562C496.815 36.6927 496.992 37.2891 496.992 37.9453H495.023C495.023 37.3516 494.836 36.888 494.461 36.5547C494.091 36.2161 493.56 36.0469 492.867 36.0469C492.221 36.0469 491.719 36.1849 491.359 36.4609C491.005 36.737 490.828 37.1224 490.828 37.6172C490.828 38.0339 491.021 38.3828 491.406 38.6641C491.792 38.9401 492.427 39.2109 493.312 39.4766C494.198 39.737 494.909 40.0365 495.445 40.375C495.982 40.7083 496.375 41.0938 496.625 41.5312C496.875 41.9635 497 42.4714 497 43.0547C497 44.0026 496.635 44.7578 495.906 45.3203C495.182 45.8776 494.198 46.1562 492.953 46.1562C492.13 46.1562 491.372 46.0052 490.68 45.7031C489.992 45.3958 489.456 44.974 489.07 44.4375C488.69 43.901 488.5 43.276 488.5 42.5625H490.477C490.477 43.2083 490.69 43.7083 491.117 44.0625C491.544 44.4167 492.156 44.5938 492.953 44.5938C493.641 44.5938 494.156 44.4557 494.5 44.1797C494.849 43.8984 495.023 43.5286 495.023 43.0703ZM500.336 37.5469L500.391 38.4297C500.984 37.737 501.797 37.3906 502.828 37.3906C503.958 37.3906 504.732 37.8229 505.148 38.6875C505.763 37.8229 506.628 37.3906 507.742 37.3906C508.674 37.3906 509.367 37.6484 509.82 38.1641C510.279 38.6797 510.513 39.4401 510.523 40.4453V46H508.625V40.5C508.625 39.9635 508.508 39.5703 508.273 39.3203C508.039 39.0703 507.651 38.9453 507.109 38.9453C506.677 38.9453 506.323 39.0625 506.047 39.2969C505.776 39.526 505.586 39.8281 505.477 40.2031L505.484 46H503.586V40.4375C503.56 39.4427 503.052 38.9453 502.062 38.9453C501.302 38.9453 500.763 39.2552 500.445 39.875V46H498.547V37.5469H500.336ZM517.523 46C517.44 45.8385 517.367 45.5755 517.305 45.2109C516.701 45.8411 515.961 46.1562 515.086 46.1562C514.237 46.1562 513.544 45.9141 513.008 45.4297C512.471 44.9453 512.203 44.3464 512.203 43.6328C512.203 42.7318 512.536 42.0417 513.203 41.5625C513.875 41.0781 514.833 40.8359 516.078 40.8359H517.242V40.2812C517.242 39.8438 517.12 39.4948 516.875 39.2344C516.63 38.9688 516.258 38.8359 515.758 38.8359C515.326 38.8359 514.971 38.9453 514.695 39.1641C514.419 39.3776 514.281 39.651 514.281 39.9844H512.383C512.383 39.5208 512.536 39.0885 512.844 38.6875C513.151 38.2812 513.568 37.9635 514.094 37.7344C514.625 37.5052 515.216 37.3906 515.867 37.3906C516.857 37.3906 517.646 37.6406 518.234 38.1406C518.823 38.6354 519.125 39.3333 519.141 40.2344V44.0469C519.141 44.8073 519.247 45.4141 519.461 45.8672V46H517.523ZM515.438 44.6328C515.812 44.6328 516.164 44.5417 516.492 44.3594C516.826 44.1771 517.076 43.9323 517.242 43.625V42.0312H516.219C515.516 42.0312 514.987 42.1536 514.633 42.3984C514.279 42.6432 514.102 42.9896 514.102 43.4375C514.102 43.8021 514.221 44.0938 514.461 44.3125C514.706 44.526 515.031 44.6328 515.438 44.6328ZM525.555 39.2812C525.305 39.2396 525.047 39.2188 524.781 39.2188C523.911 39.2188 523.326 39.5521 523.023 40.2188V46H521.125V37.5469H522.938L522.984 38.4922C523.443 37.7578 524.078 37.3906 524.891 37.3906C525.161 37.3906 525.385 37.4271 525.562 37.5L525.555 39.2812ZM529.523 35.4922V37.5469H531.016V38.9531H529.523V43.6719C529.523 43.9948 529.586 44.2292 529.711 44.375C529.841 44.5156 530.07 44.5859 530.398 44.5859C530.617 44.5859 530.839 44.5599 531.062 44.5078V45.9766C530.63 46.0964 530.214 46.1562 529.812 46.1562C528.354 46.1562 527.625 45.3516 527.625 43.7422V38.9531H526.234V37.5469H527.625V35.4922H529.523ZM539.93 44.6406C540.404 44.6406 540.797 44.5026 541.109 44.2266C541.422 43.9505 541.589 43.6094 541.609 43.2031H543.398C543.378 43.7292 543.214 44.2214 542.906 44.6797C542.599 45.1328 542.182 45.4922 541.656 45.7578C541.13 46.0234 540.562 46.1562 539.953 46.1562C538.771 46.1562 537.833 45.7734 537.141 45.0078C536.448 44.2422 536.102 43.1849 536.102 41.8359V41.6406C536.102 40.3542 536.445 39.3255 537.133 38.5547C537.82 37.7786 538.758 37.3906 539.945 37.3906C540.951 37.3906 541.768 37.6849 542.398 38.2734C543.034 38.8568 543.367 39.625 543.398 40.5781H541.609C541.589 40.0938 541.422 39.6953 541.109 39.3828C540.802 39.0703 540.409 38.9141 539.93 38.9141C539.315 38.9141 538.841 39.138 538.508 39.5859C538.174 40.0286 538.005 40.7031 538 41.6094V41.9141C538 42.8307 538.164 43.5156 538.492 43.9688C538.826 44.4167 539.305 44.6406 539.93 44.6406ZM544.477 41.6953C544.477 40.8672 544.641 40.1224 544.969 39.4609C545.297 38.7943 545.758 38.2839 546.352 37.9297C546.945 37.5703 547.628 37.3906 548.398 37.3906C549.539 37.3906 550.464 37.7578 551.172 38.4922C551.885 39.2266 552.271 40.2005 552.328 41.4141L552.336 41.8594C552.336 42.6927 552.174 43.4375 551.852 44.0938C551.534 44.75 551.076 45.2578 550.477 45.6172C549.883 45.9766 549.195 46.1562 548.414 46.1562C547.221 46.1562 546.266 45.7604 545.547 44.9688C544.833 44.1719 544.477 43.112 544.477 41.7891V41.6953ZM546.375 41.8594C546.375 42.7292 546.555 43.4115 546.914 43.9062C547.273 44.3958 547.773 44.6406 548.414 44.6406C549.055 44.6406 549.552 44.3906 549.906 43.8906C550.266 43.3906 550.445 42.6589 550.445 41.6953C550.445 40.8411 550.26 40.1641 549.891 39.6641C549.526 39.1641 549.029 38.9141 548.398 38.9141C547.779 38.9141 547.286 39.1615 546.922 39.6562C546.557 40.1458 546.375 40.8802 546.375 41.8594ZM555.703 37.5469L555.758 38.5234C556.383 37.7682 557.203 37.3906 558.219 37.3906C559.979 37.3906 560.875 38.3984 560.906 40.4141V46H559.008V40.5234C559.008 39.987 558.891 39.5911 558.656 39.3359C558.427 39.0755 558.049 38.9453 557.523 38.9453C556.758 38.9453 556.188 39.2917 555.812 39.9844V46H553.914V37.5469H555.703ZM565.227 35.4922V37.5469H566.719V38.9531H565.227V43.6719C565.227 43.9948 565.289 44.2292 565.414 44.375C565.544 44.5156 565.773 44.5859 566.102 44.5859C566.32 44.5859 566.542 44.5599 566.766 44.5078V45.9766C566.333 46.0964 565.917 46.1562 565.516 46.1562C564.057 46.1562 563.328 45.3516 563.328 43.7422V38.9531H561.938V37.5469H563.328V35.4922H565.227ZM572.602 39.2812C572.352 39.2396 572.094 39.2188 571.828 39.2188C570.958 39.2188 570.372 39.5521 570.07 40.2188V46H568.172V37.5469H569.984L570.031 38.4922C570.49 37.7578 571.125 37.3906 571.938 37.3906C572.208 37.3906 572.432 37.4271 572.609 37.5L572.602 39.2812ZM578.617 46C578.534 45.8385 578.461 45.5755 578.398 45.2109C577.794 45.8411 577.055 46.1562 576.18 46.1562C575.331 46.1562 574.638 45.9141 574.102 45.4297C573.565 44.9453 573.297 44.3464 573.297 43.6328C573.297 42.7318 573.63 42.0417 574.297 41.5625C574.969 41.0781 575.927 40.8359 577.172 40.8359H578.336V40.2812C578.336 39.8438 578.214 39.4948 577.969 39.2344C577.724 38.9688 577.352 38.8359 576.852 38.8359C576.419 38.8359 576.065 38.9453 575.789 39.1641C575.513 39.3776 575.375 39.651 575.375 39.9844H573.477C573.477 39.5208 573.63 39.0885 573.938 38.6875C574.245 38.2812 574.661 37.9635 575.188 37.7344C575.719 37.5052 576.31 37.3906 576.961 37.3906C577.951 37.3906 578.74 37.6406 579.328 38.1406C579.917 38.6354 580.219 39.3333 580.234 40.2344V44.0469C580.234 44.8073 580.341 45.4141 580.555 45.8672V46H578.617ZM576.531 44.6328C576.906 44.6328 577.258 44.5417 577.586 44.3594C577.919 44.1771 578.169 43.9323 578.336 43.625V42.0312H577.312C576.609 42.0312 576.081 42.1536 575.727 42.3984C575.372 42.6432 575.195 42.9896 575.195 43.4375C575.195 43.8021 575.315 44.0938 575.555 44.3125C575.799 44.526 576.125 44.6328 576.531 44.6328ZM585.695 44.6406C586.169 44.6406 586.562 44.5026 586.875 44.2266C587.188 43.9505 587.354 43.6094 587.375 43.2031H589.164C589.143 43.7292 588.979 44.2214 588.672 44.6797C588.365 45.1328 587.948 45.4922 587.422 45.7578C586.896 46.0234 586.328 46.1562 585.719 46.1562C584.536 46.1562 583.599 45.7734 582.906 45.0078C582.214 44.2422 581.867 43.1849 581.867 41.8359V41.6406C581.867 40.3542 582.211 39.3255 582.898 38.5547C583.586 37.7786 584.523 37.3906 585.711 37.3906C586.716 37.3906 587.534 37.6849 588.164 38.2734C588.799 38.8568 589.133 39.625 589.164 40.5781H587.375C587.354 40.0938 587.188 39.6953 586.875 39.3828C586.568 39.0703 586.174 38.9141 585.695 38.9141C585.081 38.9141 584.607 39.138 584.273 39.5859C583.94 40.0286 583.771 40.7031 583.766 41.6094V41.9141C583.766 42.8307 583.93 43.5156 584.258 43.9688C584.591 44.4167 585.07 44.6406 585.695 44.6406ZM592.977 35.4922V37.5469H594.469V38.9531H592.977V43.6719C592.977 43.9948 593.039 44.2292 593.164 44.375C593.294 44.5156 593.523 44.5859 593.852 44.5859C594.07 44.5859 594.292 44.5599 594.516 44.5078V45.9766C594.083 46.0964 593.667 46.1562 593.266 46.1562C591.807 46.1562 591.078 45.3516 591.078 43.7422V38.9531H589.688V37.5469H591.078V35.4922H592.977Z" fill="#DE1306"/>
<g filter="url(#filter6_d)">
<rect x="410" y="77" width="100" height="50" rx="10" fill="white"/>
<rect x="410.5" y="77.5" width="99" height="49" rx="9.5" stroke="#E12519"/>
</g>
<g filter="url(#filter7_d)">
<rect x="520" y="77" width="179" height="125" rx="10" fill="white"/>
<rect x="520.5" y="77.5" width="178" height="124" rx="9.5" stroke="#E12519"/>
</g>
<g filter="url(#filter8_d)">
<rect x="410" y="152" width="100" height="50" rx="10" fill="white"/>
<rect x="410.5" y="152.5" width="99" height="49" rx="9.5" stroke="#E12519"/>
</g>
<path d="M426.945 101.742H422.016V105.773H427.742V107H420.516V95.625H427.664V96.8594H422.016V100.516H426.945V101.742ZM430.75 98.5469L430.797 99.6094C431.443 98.7969 432.286 98.3906 433.328 98.3906C435.115 98.3906 436.016 99.3984 436.031 101.414V107H434.586V101.406C434.581 100.797 434.44 100.346 434.164 100.055C433.893 99.763 433.469 99.6172 432.891 99.6172C432.422 99.6172 432.01 99.7422 431.656 99.9922C431.302 100.242 431.026 100.57 430.828 100.977V107H429.383V98.5469H430.75ZM440.172 96.5V98.5469H441.75V99.6641H440.172V104.906C440.172 105.245 440.242 105.5 440.383 105.672C440.523 105.839 440.763 105.922 441.102 105.922C441.268 105.922 441.497 105.891 441.789 105.828V107C441.409 107.104 441.039 107.156 440.68 107.156C440.034 107.156 439.547 106.961 439.219 106.57C438.891 106.18 438.727 105.625 438.727 104.906V99.6641H437.188V98.5469H438.727V96.5H440.172ZM447.531 99.8438C447.312 99.8073 447.076 99.7891 446.82 99.7891C445.872 99.7891 445.229 100.193 444.891 101V107H443.445V98.5469H444.852L444.875 99.5234C445.349 98.7682 446.021 98.3906 446.891 98.3906C447.172 98.3906 447.385 98.4271 447.531 98.5V99.8438ZM451.773 104.883L453.742 98.5469H455.289L451.891 108.305C451.365 109.711 450.529 110.414 449.383 110.414L449.109 110.391L448.57 110.289V109.117L448.961 109.148C449.451 109.148 449.831 109.049 450.102 108.852C450.378 108.654 450.604 108.292 450.781 107.766L451.102 106.906L448.086 98.5469H449.664L451.773 104.883ZM463.727 102.867C463.727 104.154 463.432 105.19 462.844 105.977C462.255 106.763 461.458 107.156 460.453 107.156C459.427 107.156 458.62 106.831 458.031 106.18V110.25H456.586V98.5469H457.906L457.977 99.4844C458.565 98.7552 459.383 98.3906 460.43 98.3906C461.445 98.3906 462.247 98.7734 462.836 99.5391C463.43 100.305 463.727 101.37 463.727 102.734V102.867ZM462.281 102.703C462.281 101.75 462.078 100.997 461.672 100.445C461.266 99.8932 460.708 99.6172 460 99.6172C459.125 99.6172 458.469 100.005 458.031 100.781V104.82C458.464 105.591 459.125 105.977 460.016 105.977C460.708 105.977 461.258 105.703 461.664 105.156C462.076 104.604 462.281 103.786 462.281 102.703ZM465.188 102.695C465.188 101.867 465.349 101.122 465.672 100.461C466 99.7995 466.453 99.2891 467.031 98.9297C467.615 98.5703 468.279 98.3906 469.023 98.3906C470.174 98.3906 471.104 98.7891 471.812 99.5859C472.526 100.383 472.883 101.443 472.883 102.766V102.867C472.883 103.69 472.724 104.43 472.406 105.086C472.094 105.737 471.643 106.245 471.055 106.609C470.471 106.974 469.799 107.156 469.039 107.156C467.893 107.156 466.964 106.758 466.25 105.961C465.542 105.164 465.188 104.109 465.188 102.797V102.695ZM466.641 102.867C466.641 103.805 466.857 104.557 467.289 105.125C467.727 105.693 468.31 105.977 469.039 105.977C469.773 105.977 470.357 105.69 470.789 105.117C471.221 104.539 471.438 103.732 471.438 102.695C471.438 101.768 471.216 101.018 470.773 100.445C470.336 99.8672 469.753 99.5781 469.023 99.5781C468.31 99.5781 467.734 99.862 467.297 100.43C466.859 100.997 466.641 101.81 466.641 102.867ZM476.266 107H474.82V98.5469H476.266V107ZM474.703 96.3047C474.703 96.0703 474.773 95.8724 474.914 95.7109C475.06 95.5495 475.273 95.4688 475.555 95.4688C475.836 95.4688 476.049 95.5495 476.195 95.7109C476.341 95.8724 476.414 96.0703 476.414 96.3047C476.414 96.5391 476.341 96.7344 476.195 96.8906C476.049 97.0469 475.836 97.125 475.555 97.125C475.273 97.125 475.06 97.0469 474.914 96.8906C474.773 96.7344 474.703 96.5391 474.703 96.3047ZM479.953 98.5469L480 99.6094C480.646 98.7969 481.49 98.3906 482.531 98.3906C484.318 98.3906 485.219 99.3984 485.234 101.414V107H483.789V101.406C483.784 100.797 483.643 100.346 483.367 100.055C483.096 99.763 482.672 99.6172 482.094 99.6172C481.625 99.6172 481.214 99.7422 480.859 99.9922C480.505 100.242 480.229 100.57 480.031 100.977V107H478.586V98.5469H479.953ZM489.375 96.5V98.5469H490.953V99.6641H489.375V104.906C489.375 105.245 489.445 105.5 489.586 105.672C489.727 105.839 489.966 105.922 490.305 105.922C490.471 105.922 490.701 105.891 490.992 105.828V107C490.612 107.104 490.242 107.156 489.883 107.156C489.237 107.156 488.75 106.961 488.422 106.57C488.094 106.18 487.93 105.625 487.93 104.906V99.6641H486.391V98.5469H487.93V96.5H489.375ZM497.57 104.758C497.57 104.367 497.422 104.065 497.125 103.852C496.833 103.633 496.32 103.445 495.586 103.289C494.857 103.133 494.276 102.945 493.844 102.727C493.417 102.508 493.099 102.247 492.891 101.945C492.688 101.643 492.586 101.284 492.586 100.867C492.586 100.174 492.878 99.5885 493.461 99.1094C494.049 98.6302 494.799 98.3906 495.711 98.3906C496.669 98.3906 497.445 98.638 498.039 99.1328C498.638 99.6276 498.938 100.26 498.938 101.031H497.484C497.484 100.635 497.315 100.294 496.977 100.008C496.643 99.7214 496.221 99.5781 495.711 99.5781C495.185 99.5781 494.773 99.6927 494.477 99.9219C494.18 100.151 494.031 100.451 494.031 100.82C494.031 101.169 494.169 101.432 494.445 101.609C494.721 101.786 495.219 101.956 495.938 102.117C496.661 102.279 497.247 102.471 497.695 102.695C498.143 102.919 498.474 103.19 498.688 103.508C498.906 103.82 499.016 104.203 499.016 104.656C499.016 105.411 498.714 106.018 498.109 106.477C497.505 106.93 496.721 107.156 495.758 107.156C495.081 107.156 494.482 107.036 493.961 106.797C493.44 106.557 493.031 106.224 492.734 105.797C492.443 105.365 492.297 104.898 492.297 104.398H493.742C493.768 104.883 493.961 105.268 494.32 105.555C494.685 105.836 495.164 105.977 495.758 105.977C496.305 105.977 496.742 105.867 497.07 105.648C497.404 105.424 497.57 105.128 497.57 104.758Z" fill="#DE1306"/>
<path d="M436.68 176.93C435.393 176.56 434.456 176.107 433.867 175.57C433.284 175.029 432.992 174.362 432.992 173.57C432.992 172.674 433.349 171.935 434.062 171.352C434.781 170.763 435.714 170.469 436.859 170.469C437.641 170.469 438.336 170.62 438.945 170.922C439.56 171.224 440.034 171.641 440.367 172.172C440.706 172.703 440.875 173.284 440.875 173.914H439.367C439.367 173.227 439.148 172.688 438.711 172.297C438.273 171.901 437.656 171.703 436.859 171.703C436.12 171.703 435.542 171.867 435.125 172.195C434.714 172.518 434.508 172.969 434.508 173.547C434.508 174.01 434.703 174.404 435.094 174.727C435.49 175.044 436.159 175.336 437.102 175.602C438.049 175.867 438.789 176.161 439.32 176.484C439.857 176.802 440.253 177.174 440.508 177.602C440.768 178.029 440.898 178.531 440.898 179.109C440.898 180.031 440.539 180.771 439.82 181.328C439.102 181.88 438.141 182.156 436.938 182.156C436.156 182.156 435.427 182.008 434.75 181.711C434.073 181.409 433.549 180.997 433.18 180.477C432.815 179.956 432.633 179.365 432.633 178.703H434.141C434.141 179.391 434.393 179.935 434.898 180.336C435.409 180.732 436.089 180.93 436.938 180.93C437.729 180.93 438.336 180.768 438.758 180.445C439.18 180.122 439.391 179.682 439.391 179.125C439.391 178.568 439.195 178.138 438.805 177.836C438.414 177.529 437.706 177.227 436.68 176.93ZM444.562 171.5V173.547H446.141V174.664H444.562V179.906C444.562 180.245 444.633 180.5 444.773 180.672C444.914 180.839 445.154 180.922 445.492 180.922C445.659 180.922 445.888 180.891 446.18 180.828V182C445.799 182.104 445.43 182.156 445.07 182.156C444.424 182.156 443.938 181.961 443.609 181.57C443.281 181.18 443.117 180.625 443.117 179.906V174.664H441.578V173.547H443.117V171.5H444.562ZM447.297 177.695C447.297 176.867 447.458 176.122 447.781 175.461C448.109 174.799 448.562 174.289 449.141 173.93C449.724 173.57 450.388 173.391 451.133 173.391C452.284 173.391 453.214 173.789 453.922 174.586C454.635 175.383 454.992 176.443 454.992 177.766V177.867C454.992 178.69 454.833 179.43 454.516 180.086C454.203 180.737 453.753 181.245 453.164 181.609C452.581 181.974 451.909 182.156 451.148 182.156C450.003 182.156 449.073 181.758 448.359 180.961C447.651 180.164 447.297 179.109 447.297 177.797V177.695ZM448.75 177.867C448.75 178.805 448.966 179.557 449.398 180.125C449.836 180.693 450.419 180.977 451.148 180.977C451.883 180.977 452.466 180.69 452.898 180.117C453.331 179.539 453.547 178.732 453.547 177.695C453.547 176.768 453.326 176.018 452.883 175.445C452.445 174.867 451.862 174.578 451.133 174.578C450.419 174.578 449.844 174.862 449.406 175.43C448.969 175.997 448.75 176.81 448.75 177.867ZM460.891 174.844C460.672 174.807 460.435 174.789 460.18 174.789C459.232 174.789 458.589 175.193 458.25 176V182H456.805V173.547H458.211L458.234 174.523C458.708 173.768 459.38 173.391 460.25 173.391C460.531 173.391 460.745 173.427 460.891 173.5V174.844ZM467.133 182C467.049 181.833 466.982 181.536 466.93 181.109C466.258 181.807 465.456 182.156 464.523 182.156C463.69 182.156 463.005 181.922 462.469 181.453C461.938 180.979 461.672 180.38 461.672 179.656C461.672 178.776 462.005 178.094 462.672 177.609C463.344 177.12 464.286 176.875 465.5 176.875H466.906V176.211C466.906 175.706 466.755 175.305 466.453 175.008C466.151 174.706 465.706 174.555 465.117 174.555C464.602 174.555 464.169 174.685 463.82 174.945C463.471 175.206 463.297 175.521 463.297 175.891H461.844C461.844 175.469 461.992 175.062 462.289 174.672C462.591 174.276 462.997 173.964 463.508 173.734C464.023 173.505 464.589 173.391 465.203 173.391C466.177 173.391 466.94 173.635 467.492 174.125C468.044 174.609 468.331 175.279 468.352 176.133V180.023C468.352 180.799 468.451 181.417 468.648 181.875V182H467.133ZM464.734 180.898C465.188 180.898 465.617 180.781 466.023 180.547C466.43 180.312 466.724 180.008 466.906 179.633V177.898H465.773C464.003 177.898 463.117 178.417 463.117 179.453C463.117 179.906 463.268 180.26 463.57 180.516C463.872 180.771 464.26 180.898 464.734 180.898ZM470.273 177.703C470.273 176.385 470.578 175.339 471.188 174.562C471.797 173.781 472.604 173.391 473.609 173.391C474.641 173.391 475.445 173.755 476.023 174.484L476.094 173.547H477.414V181.797C477.414 182.891 477.089 183.753 476.438 184.383C475.792 185.013 474.922 185.328 473.828 185.328C473.219 185.328 472.622 185.198 472.039 184.938C471.456 184.677 471.01 184.32 470.703 183.867L471.453 183C472.073 183.766 472.831 184.148 473.727 184.148C474.43 184.148 474.977 183.951 475.367 183.555C475.763 183.159 475.961 182.602 475.961 181.883V181.156C475.383 181.823 474.594 182.156 473.594 182.156C472.604 182.156 471.802 181.758 471.188 180.961C470.578 180.164 470.273 179.078 470.273 177.703ZM471.727 177.867C471.727 178.82 471.922 179.57 472.312 180.117C472.703 180.659 473.25 180.93 473.953 180.93C474.865 180.93 475.534 180.516 475.961 179.688V175.828C475.518 175.021 474.854 174.617 473.969 174.617C473.266 174.617 472.716 174.891 472.32 175.438C471.924 175.984 471.727 176.794 471.727 177.867ZM483.109 182.156C481.964 182.156 481.031 181.781 480.312 181.031C479.594 180.276 479.234 179.268 479.234 178.008V177.742C479.234 176.904 479.393 176.156 479.711 175.5C480.034 174.839 480.482 174.323 481.055 173.953C481.633 173.578 482.258 173.391 482.93 173.391C484.029 173.391 484.883 173.753 485.492 174.477C486.102 175.201 486.406 176.237 486.406 177.586V178.188H480.68C480.701 179.021 480.943 179.695 481.406 180.211C481.875 180.721 482.469 180.977 483.188 180.977C483.698 180.977 484.13 180.872 484.484 180.664C484.839 180.456 485.148 180.18 485.414 179.836L486.297 180.523C485.589 181.612 484.526 182.156 483.109 182.156ZM482.93 174.578C482.346 174.578 481.857 174.792 481.461 175.219C481.065 175.641 480.82 176.234 480.727 177H484.961V176.891C484.919 176.156 484.721 175.589 484.367 175.188C484.013 174.781 483.534 174.578 482.93 174.578Z" fill="#DE1306"/>
<path d="M561.156 103.391C561.016 104.594 560.57 105.523 559.82 106.18C559.076 106.831 558.083 107.156 556.844 107.156C555.5 107.156 554.422 106.674 553.609 105.711C552.802 104.747 552.398 103.458 552.398 101.844V100.75C552.398 99.6927 552.586 98.763 552.961 97.9609C553.341 97.1589 553.878 96.5443 554.57 96.1172C555.263 95.6849 556.065 95.4688 556.977 95.4688C558.185 95.4688 559.154 95.8073 559.883 96.4844C560.612 97.1562 561.036 98.0885 561.156 99.2812H559.648C559.518 98.375 559.234 97.7188 558.797 97.3125C558.365 96.9062 557.758 96.7031 556.977 96.7031C556.018 96.7031 555.266 97.0573 554.719 97.7656C554.177 98.474 553.906 99.4818 553.906 100.789V101.891C553.906 103.125 554.164 104.107 554.68 104.836C555.195 105.565 555.917 105.93 556.844 105.93C557.677 105.93 558.315 105.742 558.758 105.367C559.206 104.987 559.503 104.328 559.648 103.391H561.156ZM562.602 102.695C562.602 101.867 562.763 101.122 563.086 100.461C563.414 99.7995 563.867 99.2891 564.445 98.9297C565.029 98.5703 565.693 98.3906 566.438 98.3906C567.589 98.3906 568.518 98.7891 569.227 99.5859C569.94 100.383 570.297 101.443 570.297 102.766V102.867C570.297 103.69 570.138 104.43 569.82 105.086C569.508 105.737 569.057 106.245 568.469 106.609C567.885 106.974 567.214 107.156 566.453 107.156C565.307 107.156 564.378 106.758 563.664 105.961C562.956 105.164 562.602 104.109 562.602 102.797V102.695ZM564.055 102.867C564.055 103.805 564.271 104.557 564.703 105.125C565.141 105.693 565.724 105.977 566.453 105.977C567.188 105.977 567.771 105.69 568.203 105.117C568.635 104.539 568.852 103.732 568.852 102.695C568.852 101.768 568.63 101.018 568.188 100.445C567.75 99.8672 567.167 99.5781 566.438 99.5781C565.724 99.5781 565.148 99.862 564.711 100.43C564.273 100.997 564.055 101.81 564.055 102.867ZM571.758 102.703C571.758 101.406 572.065 100.365 572.68 99.5781C573.294 98.7865 574.099 98.3906 575.094 98.3906C576.083 98.3906 576.867 98.7292 577.445 99.4062V95H578.891V107H577.562L577.492 106.094C576.914 106.802 576.109 107.156 575.078 107.156C574.099 107.156 573.299 106.755 572.68 105.953C572.065 105.151 571.758 104.104 571.758 102.812V102.703ZM573.203 102.867C573.203 103.826 573.401 104.576 573.797 105.117C574.193 105.659 574.74 105.93 575.438 105.93C576.354 105.93 577.023 105.518 577.445 104.695V100.812C577.013 100.016 576.349 99.6172 575.453 99.6172C574.745 99.6172 574.193 99.8906 573.797 100.438C573.401 100.984 573.203 101.794 573.203 102.867ZM584.648 107.156C583.503 107.156 582.57 106.781 581.852 106.031C581.133 105.276 580.773 104.268 580.773 103.008V102.742C580.773 101.904 580.932 101.156 581.25 100.5C581.573 99.8385 582.021 99.3229 582.594 98.9531C583.172 98.5781 583.797 98.3906 584.469 98.3906C585.568 98.3906 586.422 98.7526 587.031 99.4766C587.641 100.201 587.945 101.237 587.945 102.586V103.188H582.219C582.24 104.021 582.482 104.695 582.945 105.211C583.414 105.721 584.008 105.977 584.727 105.977C585.237 105.977 585.669 105.872 586.023 105.664C586.378 105.456 586.688 105.18 586.953 104.836L587.836 105.523C587.128 106.612 586.065 107.156 584.648 107.156ZM584.469 99.5781C583.885 99.5781 583.396 99.7917 583 100.219C582.604 100.641 582.359 101.234 582.266 102H586.5V101.891C586.458 101.156 586.26 100.589 585.906 100.188C585.552 99.7812 585.073 99.5781 584.469 99.5781Z" fill="#DE1306"/>
<path d="M533.579 146V139.581H532.41V138.604H533.579V137.845C533.579 137.052 533.791 136.439 534.215 136.006C534.639 135.573 535.238 135.356 536.013 135.356C536.304 135.356 536.594 135.395 536.881 135.473L536.812 136.498C536.598 136.457 536.37 136.437 536.129 136.437C535.719 136.437 535.402 136.557 535.179 136.799C534.955 137.036 534.844 137.378 534.844 137.824V138.604H536.423V139.581H534.844V146H533.579ZM542.391 145.269C541.898 145.847 541.176 146.137 540.224 146.137C539.435 146.137 538.834 145.909 538.419 145.453C538.009 144.993 537.801 144.314 537.797 143.416V138.604H539.062V143.382C539.062 144.503 539.517 145.063 540.429 145.063C541.395 145.063 542.037 144.703 542.356 143.983V138.604H543.621V146H542.418L542.391 145.269ZM546.745 138.604L546.786 139.533C547.351 138.822 548.09 138.467 549.001 138.467C550.564 138.467 551.353 139.349 551.366 141.112V146H550.102V141.105C550.097 140.572 549.974 140.178 549.732 139.923C549.495 139.668 549.124 139.54 548.618 139.54C548.208 139.54 547.848 139.649 547.538 139.868C547.228 140.087 546.987 140.374 546.813 140.729V146H545.549V138.604H546.745ZM556.24 145.104C556.691 145.104 557.086 144.968 557.423 144.694C557.76 144.421 557.947 144.079 557.983 143.669H559.18C559.157 144.093 559.011 144.496 558.742 144.879C558.473 145.262 558.113 145.567 557.662 145.795C557.215 146.023 556.742 146.137 556.24 146.137C555.233 146.137 554.431 145.802 553.834 145.132C553.242 144.457 552.945 143.537 552.945 142.37V142.158C552.945 141.438 553.077 140.798 553.342 140.237C553.606 139.677 553.984 139.242 554.477 138.932C554.973 138.622 555.559 138.467 556.233 138.467C557.063 138.467 557.751 138.715 558.298 139.212C558.849 139.709 559.143 140.354 559.18 141.146H557.983C557.947 140.668 557.765 140.276 557.437 139.971C557.113 139.661 556.712 139.506 556.233 139.506C555.591 139.506 555.092 139.738 554.736 140.203C554.385 140.663 554.21 141.331 554.21 142.206V142.445C554.21 143.298 554.385 143.954 554.736 144.414C555.087 144.874 555.589 145.104 556.24 145.104ZM562.317 136.812V138.604H563.698V139.581H562.317V144.168C562.317 144.464 562.379 144.688 562.502 144.838C562.625 144.984 562.835 145.057 563.131 145.057C563.277 145.057 563.477 145.029 563.732 144.975V146C563.4 146.091 563.076 146.137 562.762 146.137C562.197 146.137 561.771 145.966 561.483 145.624C561.196 145.282 561.053 144.797 561.053 144.168V139.581H559.706V138.604H561.053V136.812H562.317ZM566.556 146H565.291V138.604H566.556V146ZM565.188 136.642C565.188 136.437 565.25 136.263 565.373 136.122C565.501 135.981 565.688 135.91 565.934 135.91C566.18 135.91 566.367 135.981 566.494 136.122C566.622 136.263 566.686 136.437 566.686 136.642C566.686 136.847 566.622 137.018 566.494 137.154C566.367 137.291 566.18 137.359 565.934 137.359C565.688 137.359 565.501 137.291 565.373 137.154C565.25 137.018 565.188 136.847 565.188 136.642ZM568.251 142.233C568.251 141.509 568.392 140.857 568.675 140.278C568.962 139.7 569.358 139.253 569.864 138.938C570.375 138.624 570.956 138.467 571.607 138.467C572.615 138.467 573.428 138.815 574.048 139.513C574.672 140.21 574.984 141.137 574.984 142.295V142.384C574.984 143.104 574.845 143.751 574.567 144.325C574.294 144.895 573.9 145.339 573.385 145.658C572.874 145.977 572.286 146.137 571.621 146.137C570.618 146.137 569.805 145.788 569.181 145.091C568.561 144.394 568.251 143.471 568.251 142.322V142.233ZM569.522 142.384C569.522 143.204 569.712 143.863 570.09 144.359C570.473 144.856 570.983 145.104 571.621 145.104C572.264 145.104 572.774 144.854 573.152 144.353C573.531 143.847 573.72 143.14 573.72 142.233C573.72 141.422 573.526 140.766 573.139 140.265C572.756 139.759 572.245 139.506 571.607 139.506C570.983 139.506 570.479 139.754 570.097 140.251C569.714 140.748 569.522 141.459 569.522 142.384ZM577.767 138.604L577.808 139.533C578.373 138.822 579.111 138.467 580.022 138.467C581.586 138.467 582.374 139.349 582.388 141.112V146H581.123V141.105C581.118 140.572 580.995 140.178 580.754 139.923C580.517 139.668 580.146 139.54 579.64 139.54C579.229 139.54 578.869 139.649 578.56 139.868C578.25 140.087 578.008 140.374 577.835 140.729V146H576.57V138.604H577.767ZM587.46 142.24C587.46 141.105 587.729 140.194 588.267 139.506C588.804 138.813 589.508 138.467 590.379 138.467C591.245 138.467 591.931 138.763 592.437 139.355V135.5H593.701V146H592.539L592.478 145.207C591.972 145.827 591.268 146.137 590.365 146.137C589.508 146.137 588.809 145.786 588.267 145.084C587.729 144.382 587.46 143.466 587.46 142.336V142.24ZM588.725 142.384C588.725 143.222 588.898 143.879 589.244 144.353C589.59 144.826 590.069 145.063 590.68 145.063C591.482 145.063 592.067 144.703 592.437 143.983V140.586C592.058 139.889 591.477 139.54 590.693 139.54C590.074 139.54 589.59 139.779 589.244 140.258C588.898 140.736 588.725 141.445 588.725 142.384ZM595.335 142.233C595.335 141.509 595.476 140.857 595.759 140.278C596.046 139.7 596.442 139.253 596.948 138.938C597.459 138.624 598.04 138.467 598.691 138.467C599.699 138.467 600.512 138.815 601.132 139.513C601.756 140.21 602.068 141.137 602.068 142.295V142.384C602.068 143.104 601.929 143.751 601.651 144.325C601.378 144.895 600.984 145.339 600.469 145.658C599.958 145.977 599.37 146.137 598.705 146.137C597.702 146.137 596.889 145.788 596.265 145.091C595.645 144.394 595.335 143.471 595.335 142.322V142.233ZM596.606 142.384C596.606 143.204 596.796 143.863 597.174 144.359C597.557 144.856 598.067 145.104 598.705 145.104C599.348 145.104 599.858 144.854 600.236 144.353C600.615 143.847 600.804 143.14 600.804 142.233C600.804 141.422 600.61 140.766 600.223 140.265C599.84 139.759 599.329 139.506 598.691 139.506C598.067 139.506 597.563 139.754 597.181 140.251C596.798 140.748 596.606 141.459 596.606 142.384ZM606.785 141.563C605.66 141.24 604.839 140.843 604.324 140.374C603.814 139.9 603.559 139.317 603.559 138.624C603.559 137.84 603.871 137.193 604.495 136.683C605.124 136.168 605.94 135.91 606.942 135.91C607.626 135.91 608.234 136.042 608.768 136.307C609.305 136.571 609.72 136.936 610.012 137.4C610.308 137.865 610.456 138.373 610.456 138.925H609.137C609.137 138.323 608.945 137.852 608.562 137.51C608.18 137.163 607.64 136.99 606.942 136.99C606.295 136.99 605.789 137.134 605.425 137.421C605.065 137.703 604.885 138.098 604.885 138.604C604.885 139.009 605.056 139.353 605.397 139.636C605.744 139.914 606.329 140.169 607.154 140.401C607.984 140.634 608.631 140.891 609.096 141.174C609.565 141.452 609.911 141.778 610.135 142.151C610.363 142.525 610.477 142.965 610.477 143.471C610.477 144.277 610.162 144.924 609.533 145.412C608.904 145.895 608.063 146.137 607.011 146.137C606.327 146.137 605.689 146.007 605.097 145.747C604.504 145.483 604.046 145.123 603.723 144.667C603.404 144.211 603.244 143.694 603.244 143.115H604.563C604.563 143.717 604.785 144.193 605.227 144.544C605.673 144.89 606.268 145.063 607.011 145.063C607.703 145.063 608.234 144.922 608.604 144.64C608.973 144.357 609.157 143.972 609.157 143.484C609.157 142.997 608.986 142.621 608.645 142.356C608.303 142.088 607.683 141.823 606.785 141.563ZM611.632 142.233C611.632 141.509 611.773 140.857 612.056 140.278C612.343 139.7 612.739 139.253 613.245 138.938C613.756 138.624 614.337 138.467 614.988 138.467C615.995 138.467 616.809 138.815 617.429 139.513C618.053 140.21 618.365 141.137 618.365 142.295V142.384C618.365 143.104 618.226 143.751 617.948 144.325C617.675 144.895 617.281 145.339 616.766 145.658C616.255 145.977 615.667 146.137 615.002 146.137C613.999 146.137 613.186 145.788 612.562 145.091C611.942 144.394 611.632 143.471 611.632 142.322V142.233ZM612.903 142.384C612.903 143.204 613.092 143.863 613.471 144.359C613.854 144.856 614.364 145.104 615.002 145.104C615.645 145.104 616.155 144.854 616.533 144.353C616.911 143.847 617.101 143.14 617.101 142.233C617.101 141.422 616.907 140.766 616.52 140.265C616.137 139.759 615.626 139.506 614.988 139.506C614.364 139.506 613.86 139.754 613.478 140.251C613.095 140.748 612.903 141.459 612.903 142.384ZM621.141 138.604L621.175 139.424C621.717 138.786 622.449 138.467 623.369 138.467C624.404 138.467 625.108 138.863 625.481 139.656C625.728 139.301 626.047 139.014 626.438 138.795C626.835 138.576 627.302 138.467 627.84 138.467C629.462 138.467 630.287 139.326 630.314 141.044V146H629.05V141.119C629.05 140.59 628.929 140.196 628.688 139.937C628.446 139.672 628.04 139.54 627.471 139.54C627.001 139.54 626.612 139.681 626.302 139.964C625.992 140.242 625.812 140.618 625.762 141.092V146H624.49V141.153C624.49 140.078 623.964 139.54 622.911 139.54C622.082 139.54 621.514 139.893 621.209 140.6V146H619.944V138.604H621.141ZM635.298 146.137C634.295 146.137 633.479 145.809 632.851 145.152C632.222 144.492 631.907 143.61 631.907 142.507V142.274C631.907 141.541 632.046 140.887 632.324 140.312C632.607 139.734 632.999 139.283 633.5 138.959C634.006 138.631 634.553 138.467 635.141 138.467C636.102 138.467 636.85 138.784 637.383 139.417C637.916 140.05 638.183 140.957 638.183 142.138V142.664H633.172C633.19 143.393 633.402 143.983 633.808 144.435C634.218 144.881 634.737 145.104 635.366 145.104C635.813 145.104 636.191 145.013 636.501 144.831C636.811 144.649 637.082 144.407 637.314 144.106L638.087 144.708C637.467 145.66 636.537 146.137 635.298 146.137ZM635.141 139.506C634.63 139.506 634.202 139.693 633.855 140.066C633.509 140.436 633.295 140.955 633.213 141.625H636.918V141.529C636.882 140.887 636.708 140.39 636.398 140.039C636.089 139.684 635.669 139.506 635.141 139.506ZM641.368 136.812V138.604H642.749V139.581H641.368V144.168C641.368 144.464 641.43 144.688 641.553 144.838C641.676 144.984 641.885 145.057 642.182 145.057C642.327 145.057 642.528 145.029 642.783 144.975V146C642.451 146.091 642.127 146.137 641.812 146.137C641.247 146.137 640.821 145.966 640.534 145.624C640.247 145.282 640.104 144.797 640.104 144.168V139.581H638.757V138.604H640.104V136.812H641.368ZM645.497 139.499C646.058 138.811 646.787 138.467 647.685 138.467C649.248 138.467 650.036 139.349 650.05 141.112V146H648.785V141.105C648.781 140.572 648.658 140.178 648.416 139.923C648.179 139.668 647.808 139.54 647.302 139.54C646.892 139.54 646.532 139.649 646.222 139.868C645.912 140.087 645.67 140.374 645.497 140.729V146H644.232V135.5H645.497V139.499ZM653.317 146H652.053V138.604H653.317V146ZM651.95 136.642C651.95 136.437 652.012 136.263 652.135 136.122C652.262 135.981 652.449 135.91 652.695 135.91C652.941 135.91 653.128 135.981 653.256 136.122C653.383 136.263 653.447 136.437 653.447 136.642C653.447 136.847 653.383 137.018 653.256 137.154C653.128 137.291 652.941 137.359 652.695 137.359C652.449 137.359 652.262 137.291 652.135 137.154C652.012 137.018 651.95 136.847 651.95 136.642ZM656.544 138.604L656.585 139.533C657.15 138.822 657.888 138.467 658.8 138.467C660.363 138.467 661.151 139.349 661.165 141.112V146H659.9V141.105C659.896 140.572 659.773 140.178 659.531 139.923C659.294 139.668 658.923 139.54 658.417 139.54C658.007 139.54 657.647 139.649 657.337 139.868C657.027 140.087 656.785 140.374 656.612 140.729V146H655.348V138.604H656.544ZM662.771 142.24C662.771 141.087 663.038 140.171 663.571 139.492C664.104 138.809 664.811 138.467 665.69 138.467C666.593 138.467 667.297 138.786 667.803 139.424L667.864 138.604H669.02V145.822C669.02 146.779 668.735 147.534 668.165 148.085C667.6 148.636 666.839 148.912 665.882 148.912C665.349 148.912 664.827 148.798 664.316 148.57C663.806 148.342 663.416 148.03 663.147 147.634L663.804 146.875C664.346 147.545 665.009 147.88 665.793 147.88C666.408 147.88 666.887 147.707 667.229 147.36C667.575 147.014 667.748 146.526 667.748 145.897V145.262C667.242 145.845 666.552 146.137 665.677 146.137C664.811 146.137 664.109 145.788 663.571 145.091C663.038 144.394 662.771 143.443 662.771 142.24ZM664.043 142.384C664.043 143.218 664.214 143.874 664.556 144.353C664.897 144.826 665.376 145.063 665.991 145.063C666.789 145.063 667.374 144.701 667.748 143.977V140.6C667.361 139.893 666.78 139.54 666.005 139.54C665.39 139.54 664.909 139.779 664.562 140.258C664.216 140.736 664.043 141.445 664.043 142.384ZM670.886 141.96C670.886 140.93 671.022 139.941 671.296 138.993C671.574 138.045 671.986 137.184 672.533 136.409C673.08 135.634 673.647 135.088 674.235 134.769L674.495 135.603C673.83 136.113 673.283 136.892 672.854 137.94C672.431 138.989 672.198 140.162 672.157 141.461L672.15 142.042C672.15 143.801 672.472 145.328 673.114 146.622C673.502 147.397 673.962 148.003 674.495 148.44L674.235 149.213C673.629 148.876 673.05 148.311 672.499 147.518C671.424 145.968 670.886 144.116 670.886 141.96ZM678.638 142.028C678.638 143.045 678.503 144.02 678.234 144.954C677.97 145.884 677.562 146.743 677.011 147.531C676.464 148.32 675.89 148.88 675.288 149.213L675.021 148.44C675.723 147.903 676.286 147.069 676.71 145.938C677.138 144.804 677.357 143.546 677.366 142.165V141.946C677.366 140.989 677.266 140.101 677.065 139.28C676.865 138.455 676.585 137.717 676.225 137.065C675.869 136.414 675.468 135.906 675.021 135.541L675.288 134.769C675.89 135.101 676.462 135.657 677.004 136.437C677.551 137.216 677.959 138.075 678.228 139.014C678.501 139.952 678.638 140.957 678.638 142.028ZM687.422 148.502C686.615 148.274 686.007 147.898 685.597 147.374C685.191 146.854 684.988 146.166 684.988 145.31V143.949C684.988 142.842 684.505 142.288 683.539 142.288V141.297C684.505 141.297 684.988 140.745 684.988 139.643V138.221C684.997 137.387 685.2 136.715 685.597 136.204C685.998 135.689 686.606 135.315 687.422 135.083L687.682 135.869C686.729 136.174 686.253 136.97 686.253 138.255V139.636C686.253 140.67 685.872 141.39 685.111 141.796C685.872 142.206 686.253 142.933 686.253 143.977V145.385C686.267 146.638 686.743 147.415 687.682 147.716L687.422 148.502ZM532.13 179.716C533.055 179.42 533.534 178.665 533.565 177.453V175.949C533.565 174.896 533.978 174.179 534.803 173.796C533.978 173.422 533.565 172.704 533.565 171.643V170.255C533.565 168.97 533.089 168.174 532.137 167.869L532.396 167.083C533.203 167.311 533.809 167.682 534.215 168.197C534.62 168.708 534.826 169.384 534.83 170.228V171.663C534.83 172.752 535.313 173.297 536.279 173.297V174.288C535.313 174.288 534.83 174.842 534.83 175.949V177.33C534.83 178.187 534.623 178.873 534.208 179.388C533.798 179.903 533.194 180.274 532.396 180.502L532.13 179.716Z" fill="#1D1D1D"/>
<path d="M553.889 162.144C553.105 162.121 552.608 161.795 552.398 161.166C551.824 161.822 551.214 162.144 550.566 162.13C550.02 162.121 549.603 161.9 549.315 161.467C549.033 161.029 548.91 160.455 548.946 159.744C548.974 159.038 549.163 158.313 549.514 157.57C549.865 156.827 550.307 156.249 550.84 155.834C551.378 155.419 551.97 155.216 552.617 155.226C552.95 155.235 553.262 155.292 553.554 155.396C553.85 155.501 554.205 155.69 554.62 155.964L553.704 159.942L553.656 160.305C553.606 160.783 553.775 161.034 554.162 161.057C554.736 161.079 555.201 160.742 555.557 160.045C555.912 159.348 556.129 158.489 556.206 157.468L556.227 157.119C556.249 156.385 556.147 155.738 555.919 155.178C555.691 154.617 555.331 154.191 554.839 153.899C554.347 153.603 553.743 153.448 553.027 153.435C552.28 153.421 551.569 153.58 550.895 153.913C550.225 154.241 549.625 154.727 549.097 155.369C548.568 156.012 548.151 156.75 547.846 157.584C547.545 158.413 547.379 159.254 547.347 160.106C547.306 161.068 547.474 161.872 547.853 162.52C548.386 163.422 549.29 163.88 550.566 163.894C551.3 163.903 552.07 163.748 552.877 163.429L553.068 164.509C552.48 164.901 551.649 165.097 550.573 165.097C549.657 165.088 548.885 164.914 548.256 164.577C547.632 164.24 547.139 163.786 546.779 163.217C546.419 162.647 546.191 161.989 546.096 161.241C545.959 160.216 546.041 159.143 546.342 158.021C546.647 156.9 547.137 155.896 547.812 155.007C548.491 154.118 549.277 153.446 550.17 152.99C551.068 152.53 552.013 152.307 553.007 152.32C554.342 152.343 555.395 152.751 556.165 153.544C556.94 154.332 557.357 155.408 557.416 156.771C557.443 157.541 557.352 158.306 557.143 159.067C556.933 159.828 556.623 160.471 556.213 160.995C555.593 161.784 554.818 162.166 553.889 162.144ZM550.443 159.812C550.393 160.542 550.598 160.913 551.059 160.927C551.305 160.94 551.553 160.829 551.804 160.592C552.054 160.355 552.237 160.081 552.351 159.771L553.219 156.504C553.077 156.454 552.92 156.424 552.747 156.415C552.173 156.392 551.694 156.638 551.312 157.153C550.929 157.668 550.653 158.423 550.484 159.416L550.443 159.812ZM561.887 158.028L560.574 159.245L560.096 162H558.093L559.822 152.047H561.825L561.06 156.436L562.078 155.287L565.072 152.047H567.684L563.384 156.572L565.947 162H563.664L561.887 158.028ZM570.001 162.137C569.354 162.132 568.78 161.975 568.278 161.665C567.782 161.351 567.41 160.922 567.164 160.38C566.918 159.833 566.822 159.231 566.877 158.575L566.897 158.302C566.966 157.582 567.175 156.921 567.526 156.319C567.877 155.718 568.328 155.255 568.88 154.932C569.431 154.604 570.042 154.449 570.712 154.467C571.664 154.485 572.384 154.836 572.872 155.52C573.364 156.199 573.551 157.06 573.433 158.104L573.323 158.944H568.791C568.773 159.423 568.889 159.806 569.14 160.093C569.39 160.38 569.732 160.528 570.165 160.537C570.867 160.555 571.482 160.284 572.011 159.724L572.893 160.817C572.615 161.237 572.214 161.565 571.689 161.802C571.165 162.034 570.603 162.146 570.001 162.137ZM570.616 156.06C570.261 156.05 569.944 156.162 569.666 156.395C569.393 156.627 569.146 157.03 568.928 157.604H571.58L571.621 157.427C571.648 157.244 571.651 157.071 571.628 156.907C571.582 156.643 571.471 156.438 571.293 156.292C571.115 156.142 570.89 156.064 570.616 156.06ZM576.939 159.184L579.052 154.604H581.198L576.871 163.114C576.561 163.766 576.197 164.244 575.777 164.55C575.363 164.855 574.882 165.008 574.335 165.008C574.121 165.008 573.811 164.96 573.405 164.864L573.549 163.36L573.815 163.374C574.444 163.392 574.905 163.162 575.196 162.684L575.62 161.897L574.41 154.604H576.406L576.939 159.184Z" fill="#65BF73"/>
<path d="M100.54 258.439V258.439C78.5893 258.103 60.5969 240.133 60.6705 218.18L60.7669 189.451" stroke="#65BF73" stroke-width="2" stroke-linecap="round" stroke-linejoin="round" stroke-dasharray="5 8"/>
<path d="M70.2571 200.012L61.0344 189.953L52.2318 199.896" stroke="#65BF73" stroke-width="2" stroke-linecap="round" stroke-linejoin="round"/>
<path d="M100.454 258.538L524.862 261.313C547.178 261.459 565.24 243.317 564.994 221.002L564.418 168.754" stroke="#65BF73" stroke-width="2" stroke-linecap="round" stroke-linejoin="round" stroke-dasharray="5 8"/>
<defs>
<filter id="filter0_d" x="14" y="17" width="310" height="213" filterUnits="userSpaceOnUse" color-interpolation-filters="sRGB">
<feFlood flood-opacity="0" result="BackgroundImageFix"/>
<feColorMatrix in="SourceAlpha" type="matrix" values="0 0 0 0 0 0 0 0 0 0 0 0 0 0 0 0 0 0 127 0"/>
<feOffset dx="4" dy="4"/>
<feColorMatrix type="matrix" values="0 0 0 0 0.952941 0 0 0 0 0.639216 0 0 0 0 0.619608 0 0 0 1 0"/>
<feBlend mode="normal" in2="BackgroundImageFix" result="effect1_dropShadow"/>
<feBlend mode="normal" in="SourceGraphic" in2="effect1_dropShadow" result="shape"/>
</filter>
<filter id="filter1_d" x="30" y="77" width="171" height="39" filterUnits="userSpaceOnUse" color-interpolation-filters="sRGB">
<feFlood flood-opacity="0" result="BackgroundImageFix"/>
<feColorMatrix in="SourceAlpha" type="matrix" values="0 0 0 0 0 0 0 0 0 0 0 0 0 0 0 0 0 0 127 0"/>
<feOffset dx="5" dy="5"/>
<feGaussianBlur stdDeviation="2"/>
<feColorMatrix type="matrix" values="0 0 0 0 0.952941 0 0 0 0 0.639216 0 0 0 0 0.619608 0 0 0 1 0"/>
<feBlend mode="normal" in2="BackgroundImageFix" result="effect1_dropShadow"/>
<feBlend mode="normal" in="SourceGraphic" in2="effect1_dropShadow" result="shape"/>
</filter>
<filter id="filter2_d" x="205" y="77" width="109" height="134" filterUnits="userSpaceOnUse" color-interpolation-filters="sRGB">
<feFlood flood-opacity="0" result="BackgroundImageFix"/>
<feColorMatrix in="SourceAlpha" type="matrix" values="0 0 0 0 0 0 0 0 0 0 0 0 0 0 0 0 0 0 127 0"/>
<feOffset dx="5" dy="5"/>
<feGaussianBlur stdDeviation="2"/>
<feColorMatrix type="matrix" values="0 0 0 0 0.952941 0 0 0 0 0.639216 0 0 0 0 0.619608 0 0 0 1 0"/>
<feBlend mode="normal" in2="BackgroundImageFix" result="effect1_dropShadow"/>
<feBlend mode="normal" in="SourceGraphic" in2="effect1_dropShadow" result="shape"/>
</filter>
<filter id="filter3_d" x="30" y="118" width="171" height="93" filterUnits="userSpaceOnUse" color-interpolation-filters="sRGB">
<feFlood flood-opacity="0" result="BackgroundImageFix"/>
<feColorMatrix in="SourceAlpha" type="matrix" values="0 0 0 0 0 0 0 0 0 0 0 0 0 0 0 0 0 0 127 0"/>
<feOffset dx="5" dy="5"/>
<feGaussianBlur stdDeviation="2"/>
<feColorMatrix type="matrix" values="0 0 0 0 0.952941 0 0 0 0 0.639216 0 0 0 0 0.619608 0 0 0 1 0"/>
<feBlend mode="normal" in2="BackgroundImageFix" result="effect1_dropShadow"/>
<feBlend mode="normal" in="SourceGraphic" in2="effect1_dropShadow" result="shape"/>
</filter>
<filter id="filter4_d" x="36" y="141" width="154" height="61" filterUnits="userSpaceOnUse" color-interpolation-filters="sRGB">
<feFlood flood-opacity="0" result="BackgroundImageFix"/>
<feColorMatrix in="SourceAlpha" type="matrix" values="0 0 0 0 0 0 0 0 0 0 0 0 0 0 0 0 0 0 127 0"/>
<feOffset dx="1" dy="1"/>
<feGaussianBlur stdDeviation="2"/>
<feColorMatrix type="matrix" values="0 0 0 0 0 0 0 0 0 0 0 0 0 0 0 0 0 0 0.7 0"/>
<feBlend mode="normal" in2="BackgroundImageFix" result="effect1_dropShadow"/>
<feBlend mode="normal" in="SourceGraphic" in2="effect1_dropShadow" result="shape"/>
</filter>
<filter id="filter5_d" x="394" y="17" width="323" height="213" filterUnits="userSpaceOnUse" color-interpolation-filters="sRGB">
<feFlood flood-opacity="0" result="BackgroundImageFix"/>
<feColorMatrix in="SourceAlpha" type="matrix" values="0 0 0 0 0 0 0 0 0 0 0 0 0 0 0 0 0 0 127 0"/>
<feOffset dx="4" dy="4"/>
<feColorMatrix type="matrix" values="0 0 0 0 0.952941 0 0 0 0 0.639216 0 0 0 0 0.619608 0 0 0 1 0"/>
<feBlend mode="normal" in2="BackgroundImageFix" result="effect1_dropShadow"/>
<feBlend mode="normal" in="SourceGraphic" in2="effect1_dropShadow" result="shape"/>
</filter>
<filter id="filter6_d" x="410" y="77" width="109" height="59" filterUnits="userSpaceOnUse" color-interpolation-filters="sRGB">
<feFlood flood-opacity="0" result="BackgroundImageFix"/>
<feColorMatrix in="SourceAlpha" type="matrix" values="0 0 0 0 0 0 0 0 0 0 0 0 0 0 0 0 0 0 127 0"/>
<feOffset dx="5" dy="5"/>
<feGaussianBlur stdDeviation="2"/>
<feColorMatrix type="matrix" values="0 0 0 0 0.952941 0 0 0 0 0.639216 0 0 0 0 0.619608 0 0 0 1 0"/>
<feBlend mode="normal" in2="BackgroundImageFix" result="effect1_dropShadow"/>
<feBlend mode="normal" in="SourceGraphic" in2="effect1_dropShadow" result="shape"/>
</filter>
<filter id="filter7_d" x="520" y="77" width="188" height="134" filterUnits="userSpaceOnUse" color-interpolation-filters="sRGB">
<feFlood flood-opacity="0" result="BackgroundImageFix"/>
<feColorMatrix in="SourceAlpha" type="matrix" values="0 0 0 0 0 0 0 0 0 0 0 0 0 0 0 0 0 0 127 0"/>
<feOffset dx="5" dy="5"/>
<feGaussianBlur stdDeviation="2"/>
<feColorMatrix type="matrix" values="0 0 0 0 0.952941 0 0 0 0 0.639216 0 0 0 0 0.619608 0 0 0 1 0"/>
<feBlend mode="normal" in2="BackgroundImageFix" result="effect1_dropShadow"/>
<feBlend mode="normal" in="SourceGraphic" in2="effect1_dropShadow" result="shape"/>
</filter>
<filter id="filter8_d" x="410" y="152" width="109" height="59" filterUnits="userSpaceOnUse" color-interpolation-filters="sRGB">
<feFlood flood-opacity="0" result="BackgroundImageFix"/>
<feColorMatrix in="SourceAlpha" type="matrix" values="0 0 0 0 0 0 0 0 0 0 0 0 0 0 0 0 0 0 127 0"/>
<feOffset dx="5" dy="5"/>
<feGaussianBlur stdDeviation="2"/>
<feColorMatrix type="matrix" values="0 0 0 0 0.952941 0 0 0 0 0.639216 0 0 0 0 0.619608 0 0 0 1 0"/>
<feBlend mode="normal" in2="BackgroundImageFix" result="effect1_dropShadow"/>
<feBlend mode="normal" in="SourceGraphic" in2="effect1_dropShadow" result="shape"/>
</filter>
</defs>
</svg>
