<svg width="689" height="144" viewBox="0 0 689 144" fill="none" xmlns="http://www.w3.org/2000/svg">
<g filter="url(#filter0_d)">
<rect width="685" height="140" rx="8" fill="white"/>
<line x1="99" y1="20" x2="99" y2="120" stroke="#5452F6" stroke-width="2" stroke-linejoin="round" stroke-dasharray="5 8"/>
<line x1="392" y1="20" x2="392" y2="120" stroke="#5452F6" stroke-width="2" stroke-linejoin="round" stroke-dasharray="5 8"/>
<line x1="245" y1="20" x2="245" y2="120" stroke="#5452F6" stroke-width="2" stroke-linejoin="round" stroke-dasharray="5 8"/>
<path d="M172.75 65.62C177.928 65.62 182.125 61.4227 182.125 56.245C182.125 51.0673 177.928 46.87 172.75 46.87C167.572 46.87 163.375 51.0673 163.375 56.245C163.375 61.4227 167.572 65.62 172.75 65.62Z" stroke="#C4C4C4" stroke-width="2" stroke-linecap="round" stroke-linejoin="round"/>
<path d="M191.5 43.12C194.607 43.12 197.125 40.6016 197.125 37.495C197.125 34.3884 194.607 31.87 191.5 31.87C188.393 31.87 185.875 34.3884 185.875 37.495C185.875 40.6016 188.393 43.12 191.5 43.12Z" stroke="#C4C4C4" stroke-width="2" stroke-linecap="round" stroke-linejoin="round"/>
<path d="M191.5 74.995C194.607 74.995 197.125 72.4766 197.125 69.37C197.125 66.2634 194.607 63.745 191.5 63.745C188.393 63.745 185.875 66.2634 185.875 69.37C185.875 72.4766 188.393 74.995 191.5 74.995Z" stroke="#C4C4C4" stroke-width="2" stroke-linecap="round" stroke-linejoin="round"/>
<path d="M172.75 88.12C175.857 88.12 178.375 85.6016 178.375 82.495C178.375 79.3884 175.857 76.87 172.75 76.87C169.643 76.87 167.125 79.3884 167.125 82.495C167.125 85.6016 169.643 88.12 172.75 88.12Z" stroke="#C4C4C4" stroke-width="2" stroke-linecap="round" stroke-linejoin="round"/>
<path d="M146.5 88.12C149.607 88.12 152.125 85.6016 152.125 82.495C152.125 79.3884 149.607 76.87 146.5 76.87C143.393 76.87 140.875 79.3884 140.875 82.495C140.875 85.6016 143.393 88.12 146.5 88.12Z" stroke="#C4C4C4" stroke-width="2" stroke-linecap="round" stroke-linejoin="round"/>
<path d="M148.375 48.745C151.482 48.745 154 46.2266 154 43.12C154 40.0134 151.482 37.495 148.375 37.495C145.268 37.495 142.75 40.0134 142.75 43.12C142.75 46.2266 145.268 48.745 148.375 48.745Z" stroke="#C4C4C4" stroke-width="2" stroke-linecap="round" stroke-linejoin="round"/>
<path d="M179.378 49.62L187.527 41.47" stroke="#C4C4C4" stroke-width="2" stroke-linecap="round" stroke-linejoin="round"/>
<path d="M180.985 60.73L186.697 66.4425" stroke="#C4C4C4" stroke-width="2" stroke-linecap="round" stroke-linejoin="round"/>
<path d="M172.75 65.62V76.87" stroke="#C4C4C4" stroke-width="2" stroke-linecap="round" stroke-linejoin="round"/>
<path d="M166.127 62.8675L150.475 78.52" stroke="#C4C4C4" stroke-width="2" stroke-linecap="round" stroke-linejoin="round"/>
<path d="M164.002 52.8725L153.025 46.285" stroke="#C4C4C4" stroke-width="2" stroke-linecap="round" stroke-linejoin="round"/>
<path d="M144.922 106.842C144.799 107.895 144.409 108.708 143.753 109.282C143.101 109.852 142.233 110.137 141.148 110.137C139.973 110.137 139.029 109.715 138.318 108.872C137.612 108.029 137.259 106.901 137.259 105.488V104.531C137.259 103.606 137.423 102.793 137.751 102.091C138.084 101.389 138.553 100.851 139.159 100.478C139.765 100.099 140.467 99.9102 141.265 99.9102C142.322 99.9102 143.17 100.206 143.808 100.799C144.446 101.387 144.817 102.202 144.922 103.246H143.603C143.489 102.453 143.24 101.879 142.857 101.523C142.479 101.168 141.948 100.99 141.265 100.99C140.426 100.99 139.768 101.3 139.289 101.92C138.815 102.54 138.578 103.422 138.578 104.565V105.529C138.578 106.609 138.804 107.468 139.255 108.106C139.706 108.744 140.337 109.063 141.148 109.063C141.878 109.063 142.436 108.899 142.823 108.571C143.215 108.239 143.475 107.662 143.603 106.842H144.922ZM146.187 106.233C146.187 105.509 146.328 104.857 146.61 104.278C146.897 103.7 147.294 103.253 147.8 102.938C148.31 102.624 148.891 102.467 149.543 102.467C150.55 102.467 151.364 102.815 151.983 103.513C152.608 104.21 152.92 105.137 152.92 106.295V106.384C152.92 107.104 152.781 107.751 152.503 108.325C152.229 108.895 151.835 109.339 151.32 109.658C150.81 109.977 150.222 110.137 149.557 110.137C148.554 110.137 147.741 109.788 147.116 109.091C146.496 108.394 146.187 107.471 146.187 106.322V106.233ZM147.458 106.384C147.458 107.204 147.647 107.863 148.025 108.359C148.408 108.856 148.919 109.104 149.557 109.104C150.199 109.104 150.71 108.854 151.088 108.353C151.466 107.847 151.655 107.14 151.655 106.233C151.655 105.422 151.462 104.766 151.074 104.265C150.691 103.759 150.181 103.506 149.543 103.506C148.919 103.506 148.415 103.754 148.032 104.251C147.649 104.748 147.458 105.459 147.458 106.384ZM155.695 102.604L155.729 103.424C156.272 102.786 157.003 102.467 157.924 102.467C158.958 102.467 159.662 102.863 160.036 103.656C160.282 103.301 160.601 103.014 160.993 102.795C161.39 102.576 161.857 102.467 162.395 102.467C164.017 102.467 164.842 103.326 164.869 105.044V110H163.604V105.119C163.604 104.59 163.484 104.196 163.242 103.937C163.001 103.672 162.595 103.54 162.025 103.54C161.556 103.54 161.166 103.681 160.856 103.964C160.547 104.242 160.367 104.618 160.316 105.092V110H159.045V105.153C159.045 104.078 158.519 103.54 157.466 103.54C156.636 103.54 156.069 103.893 155.764 104.6V110H154.499V102.604H155.695ZM173.031 106.384C173.031 107.509 172.774 108.416 172.259 109.104C171.744 109.793 171.047 110.137 170.167 110.137C169.269 110.137 168.563 109.852 168.048 109.282V112.844H166.783V102.604H167.938L168 103.424C168.515 102.786 169.23 102.467 170.146 102.467C171.035 102.467 171.737 102.802 172.252 103.472C172.771 104.142 173.031 105.074 173.031 106.268V106.384ZM171.767 106.24C171.767 105.406 171.589 104.748 171.233 104.265C170.878 103.782 170.39 103.54 169.771 103.54C169.005 103.54 168.431 103.88 168.048 104.559V108.093C168.426 108.767 169.005 109.104 169.784 109.104C170.39 109.104 170.871 108.865 171.227 108.387C171.587 107.904 171.767 107.188 171.767 106.24ZM176.019 110H174.754V99.5H176.019V110ZM181.118 110.137C180.116 110.137 179.3 109.809 178.671 109.152C178.042 108.492 177.728 107.61 177.728 106.507V106.274C177.728 105.541 177.867 104.887 178.145 104.312C178.427 103.734 178.819 103.283 179.32 102.959C179.826 102.631 180.373 102.467 180.961 102.467C181.923 102.467 182.67 102.784 183.203 103.417C183.736 104.05 184.003 104.957 184.003 106.138V106.664H178.992C179.01 107.393 179.222 107.983 179.628 108.435C180.038 108.881 180.558 109.104 181.187 109.104C181.633 109.104 182.011 109.013 182.321 108.831C182.631 108.649 182.902 108.407 183.135 108.106L183.907 108.708C183.287 109.66 182.358 110.137 181.118 110.137ZM180.961 103.506C180.451 103.506 180.022 103.693 179.676 104.066C179.329 104.436 179.115 104.955 179.033 105.625H182.738V105.529C182.702 104.887 182.529 104.39 182.219 104.039C181.909 103.684 181.49 103.506 180.961 103.506ZM187.188 100.812V102.604H188.569V103.581H187.188V108.168C187.188 108.464 187.25 108.688 187.373 108.838C187.496 108.984 187.706 109.057 188.002 109.057C188.148 109.057 188.348 109.029 188.604 108.975V110C188.271 110.091 187.947 110.137 187.633 110.137C187.068 110.137 186.642 109.966 186.354 109.624C186.067 109.282 185.924 108.797 185.924 108.168V103.581H184.577V102.604H185.924V100.812H187.188ZM193.122 110.137C192.119 110.137 191.304 109.809 190.675 109.152C190.046 108.492 189.731 107.61 189.731 106.507V106.274C189.731 105.541 189.87 104.887 190.148 104.312C190.431 103.734 190.823 103.283 191.324 102.959C191.83 102.631 192.377 102.467 192.965 102.467C193.926 102.467 194.674 102.784 195.207 103.417C195.74 104.05 196.007 104.957 196.007 106.138V106.664H190.996C191.014 107.393 191.226 107.983 191.632 108.435C192.042 108.881 192.562 109.104 193.19 109.104C193.637 109.104 194.015 109.013 194.325 108.831C194.635 108.649 194.906 108.407 195.139 108.106L195.911 108.708C195.291 109.66 194.362 110.137 193.122 110.137ZM192.965 103.506C192.454 103.506 192.026 103.693 191.68 104.066C191.333 104.436 191.119 104.955 191.037 105.625H194.742V105.529C194.706 104.887 194.533 104.39 194.223 104.039C193.913 103.684 193.493 103.506 192.965 103.506ZM198.851 110H197.586V99.5H198.851V110ZM203.301 108.147L205.023 102.604H206.377L203.403 111.142C202.943 112.372 202.212 112.987 201.209 112.987L200.97 112.967L200.498 112.878V111.853L200.84 111.88C201.268 111.88 201.601 111.793 201.838 111.62C202.079 111.447 202.278 111.13 202.433 110.67L202.713 109.918L200.074 102.604H201.455L203.301 108.147ZM130.43 122.24C130.43 121.105 130.699 120.194 131.236 119.506C131.774 118.813 132.478 118.467 133.349 118.467C134.215 118.467 134.9 118.763 135.406 119.355V115.5H136.671V126H135.509L135.447 125.207C134.941 125.827 134.237 126.137 133.335 126.137C132.478 126.137 131.779 125.786 131.236 125.084C130.699 124.382 130.43 123.466 130.43 122.336V122.24ZM131.694 122.384C131.694 123.222 131.868 123.879 132.214 124.353C132.56 124.826 133.039 125.063 133.649 125.063C134.451 125.063 135.037 124.703 135.406 123.983V120.586C135.028 119.889 134.447 119.54 133.663 119.54C133.043 119.54 132.56 119.779 132.214 120.258C131.868 120.736 131.694 121.445 131.694 122.384ZM141.709 126.137C140.706 126.137 139.891 125.809 139.262 125.152C138.633 124.492 138.318 123.61 138.318 122.507V122.274C138.318 121.541 138.457 120.887 138.735 120.312C139.018 119.734 139.41 119.283 139.911 118.959C140.417 118.631 140.964 118.467 141.552 118.467C142.513 118.467 143.261 118.784 143.794 119.417C144.327 120.05 144.594 120.957 144.594 122.138V122.664H139.583C139.601 123.393 139.813 123.983 140.219 124.435C140.629 124.881 141.148 125.104 141.777 125.104C142.224 125.104 142.602 125.013 142.912 124.831C143.222 124.649 143.493 124.407 143.726 124.106L144.498 124.708C143.878 125.66 142.949 126.137 141.709 126.137ZM141.552 119.506C141.041 119.506 140.613 119.693 140.267 120.066C139.92 120.436 139.706 120.955 139.624 121.625H143.329V121.529C143.293 120.887 143.119 120.39 142.81 120.039C142.5 119.684 142.08 119.506 141.552 119.506ZM149.03 125.104C149.481 125.104 149.876 124.968 150.213 124.694C150.55 124.421 150.737 124.079 150.773 123.669H151.97C151.947 124.093 151.801 124.496 151.532 124.879C151.263 125.262 150.903 125.567 150.452 125.795C150.006 126.023 149.532 126.137 149.03 126.137C148.023 126.137 147.221 125.802 146.624 125.132C146.032 124.457 145.735 123.537 145.735 122.37V122.158C145.735 121.438 145.868 120.798 146.132 120.237C146.396 119.677 146.774 119.242 147.267 118.932C147.763 118.622 148.349 118.467 149.023 118.467C149.853 118.467 150.541 118.715 151.088 119.212C151.639 119.709 151.933 120.354 151.97 121.146H150.773C150.737 120.668 150.555 120.276 150.227 119.971C149.903 119.661 149.502 119.506 149.023 119.506C148.381 119.506 147.882 119.738 147.526 120.203C147.175 120.663 147 121.331 147 122.206V122.445C147 123.298 147.175 123.954 147.526 124.414C147.877 124.874 148.379 125.104 149.03 125.104ZM156.461 126.137C155.458 126.137 154.643 125.809 154.014 125.152C153.385 124.492 153.07 123.61 153.07 122.507V122.274C153.07 121.541 153.209 120.887 153.487 120.312C153.77 119.734 154.162 119.283 154.663 118.959C155.169 118.631 155.716 118.467 156.304 118.467C157.265 118.467 158.013 118.784 158.546 119.417C159.079 120.05 159.346 120.957 159.346 122.138V122.664H154.335C154.353 123.393 154.565 123.983 154.971 124.435C155.381 124.881 155.9 125.104 156.529 125.104C156.976 125.104 157.354 125.013 157.664 124.831C157.974 124.649 158.245 124.407 158.478 124.106L159.25 124.708C158.63 125.66 157.701 126.137 156.461 126.137ZM156.304 119.506C155.793 119.506 155.365 119.693 155.019 120.066C154.672 120.436 154.458 120.955 154.376 121.625H158.081V121.529C158.045 120.887 157.871 120.39 157.562 120.039C157.252 119.684 156.832 119.506 156.304 119.506ZM162.012 118.604L162.053 119.533C162.618 118.822 163.356 118.467 164.268 118.467C165.831 118.467 166.619 119.349 166.633 121.112V126H165.368V121.105C165.364 120.572 165.241 120.178 164.999 119.923C164.762 119.668 164.391 119.54 163.885 119.54C163.475 119.54 163.115 119.649 162.805 119.868C162.495 120.087 162.253 120.374 162.08 120.729V126H160.815V118.604H162.012ZM170.256 116.812V118.604H171.637V119.581H170.256V124.168C170.256 124.464 170.317 124.688 170.44 124.838C170.563 124.984 170.773 125.057 171.069 125.057C171.215 125.057 171.416 125.029 171.671 124.975V126C171.338 126.091 171.015 126.137 170.7 126.137C170.135 126.137 169.709 125.966 169.422 125.624C169.135 125.282 168.991 124.797 168.991 124.168V119.581H167.645V118.604H168.991V116.812H170.256ZM176.695 119.738C176.504 119.706 176.297 119.69 176.073 119.69C175.244 119.69 174.681 120.044 174.385 120.75V126H173.12V118.604H174.351L174.371 119.458C174.786 118.797 175.374 118.467 176.135 118.467C176.381 118.467 176.568 118.499 176.695 118.562V119.738ZM182.157 126C182.084 125.854 182.025 125.594 181.979 125.221C181.392 125.831 180.69 126.137 179.874 126.137C179.145 126.137 178.546 125.932 178.076 125.521C177.611 125.107 177.379 124.583 177.379 123.949C177.379 123.179 177.671 122.582 178.254 122.158C178.842 121.73 179.667 121.516 180.729 121.516H181.959V120.935C181.959 120.493 181.827 120.142 181.562 119.882C181.298 119.618 180.909 119.485 180.394 119.485C179.942 119.485 179.564 119.599 179.259 119.827C178.953 120.055 178.801 120.331 178.801 120.654H177.529C177.529 120.285 177.659 119.93 177.919 119.588C178.183 119.242 178.539 118.968 178.985 118.768C179.437 118.567 179.931 118.467 180.469 118.467C181.321 118.467 181.989 118.681 182.472 119.109C182.955 119.533 183.205 120.119 183.224 120.866V124.271C183.224 124.95 183.31 125.49 183.483 125.891V126H182.157ZM180.059 125.036C180.455 125.036 180.831 124.934 181.187 124.729C181.542 124.523 181.799 124.257 181.959 123.929V122.411H180.968C179.418 122.411 178.644 122.865 178.644 123.771C178.644 124.168 178.776 124.478 179.04 124.701C179.304 124.924 179.644 125.036 180.059 125.036ZM186.58 126H185.315V115.5H186.58V126ZM189.984 126H188.72V118.604H189.984V126ZM188.617 116.642C188.617 116.437 188.679 116.263 188.802 116.122C188.929 115.981 189.116 115.91 189.362 115.91C189.608 115.91 189.795 115.981 189.923 116.122C190.05 116.263 190.114 116.437 190.114 116.642C190.114 116.847 190.05 117.018 189.923 117.154C189.795 117.291 189.608 117.359 189.362 117.359C189.116 117.359 188.929 117.291 188.802 117.154C188.679 117.018 188.617 116.847 188.617 116.642ZM193.204 124.968H197.531V126H191.659V125.07L195.74 119.649H191.721V118.604H197.326V119.499L193.204 124.968ZM201.92 126.137C200.917 126.137 200.102 125.809 199.473 125.152C198.844 124.492 198.529 123.61 198.529 122.507V122.274C198.529 121.541 198.668 120.887 198.946 120.312C199.229 119.734 199.621 119.283 200.122 118.959C200.628 118.631 201.175 118.467 201.763 118.467C202.724 118.467 203.472 118.784 204.005 119.417C204.538 120.05 204.805 120.957 204.805 122.138V122.664H199.794C199.812 123.393 200.024 123.983 200.43 124.435C200.84 124.881 201.359 125.104 201.988 125.104C202.435 125.104 202.813 125.013 203.123 124.831C203.433 124.649 203.704 124.407 203.937 124.106L204.709 124.708C204.089 125.66 203.16 126.137 201.92 126.137ZM201.763 119.506C201.252 119.506 200.824 119.693 200.478 120.066C200.131 120.436 199.917 120.955 199.835 121.625H203.54V121.529C203.504 120.887 203.33 120.39 203.021 120.039C202.711 119.684 202.291 119.506 201.763 119.506ZM205.967 122.24C205.967 121.105 206.236 120.194 206.773 119.506C207.311 118.813 208.015 118.467 208.886 118.467C209.752 118.467 210.438 118.763 210.943 119.355V115.5H212.208V126H211.046L210.984 125.207C210.479 125.827 209.774 126.137 208.872 126.137C208.015 126.137 207.316 125.786 206.773 125.084C206.236 124.382 205.967 123.466 205.967 122.336V122.24ZM207.231 122.384C207.231 123.222 207.405 123.879 207.751 124.353C208.097 124.826 208.576 125.063 209.187 125.063C209.989 125.063 210.574 124.703 210.943 123.983V120.586C210.565 119.889 209.984 119.54 209.2 119.54C208.58 119.54 208.097 119.779 207.751 120.258C207.405 120.736 207.231 121.445 207.231 122.384Z" fill="#5452F6"/>
<path d="M430.38 108.927H435.097V110H429.061V100.047H430.38V108.927ZM436.061 106.233C436.061 105.509 436.202 104.857 436.484 104.278C436.771 103.7 437.168 103.253 437.674 102.938C438.184 102.624 438.765 102.467 439.417 102.467C440.424 102.467 441.238 102.815 441.857 103.513C442.482 104.21 442.794 105.137 442.794 106.295V106.384C442.794 107.104 442.655 107.751 442.377 108.325C442.104 108.895 441.709 109.339 441.194 109.658C440.684 109.977 440.096 110.137 439.431 110.137C438.428 110.137 437.615 109.788 436.99 109.091C436.37 108.394 436.061 107.471 436.061 106.322V106.233ZM437.332 106.384C437.332 107.204 437.521 107.863 437.899 108.359C438.282 108.856 438.793 109.104 439.431 109.104C440.073 109.104 440.584 108.854 440.962 108.353C441.34 107.847 441.529 107.14 441.529 106.233C441.529 105.422 441.336 104.766 440.948 104.265C440.565 103.759 440.055 103.506 439.417 103.506C438.793 103.506 438.289 103.754 437.906 104.251C437.523 104.748 437.332 105.459 437.332 106.384ZM450.929 108.257L452.351 102.604H453.615L451.462 110H450.437L448.639 104.395L446.889 110H445.863L443.717 102.604H444.975L446.431 108.141L448.153 102.604H449.172L450.929 108.257ZM461.449 110.137C460.447 110.137 459.631 109.809 459.002 109.152C458.373 108.492 458.059 107.61 458.059 106.507V106.274C458.059 105.541 458.198 104.887 458.476 104.312C458.758 103.734 459.15 103.283 459.651 102.959C460.157 102.631 460.704 102.467 461.292 102.467C462.254 102.467 463.001 102.784 463.534 103.417C464.067 104.05 464.334 104.957 464.334 106.138V106.664H459.323C459.341 107.393 459.553 107.983 459.959 108.435C460.369 108.881 460.889 109.104 461.518 109.104C461.964 109.104 462.342 109.013 462.652 108.831C462.962 108.649 463.233 108.407 463.466 108.106L464.238 108.708C463.618 109.66 462.689 110.137 461.449 110.137ZM461.292 103.506C460.782 103.506 460.353 103.693 460.007 104.066C459.66 104.436 459.446 104.955 459.364 105.625H463.069V105.529C463.033 104.887 462.86 104.39 462.55 104.039C462.24 103.684 461.821 103.506 461.292 103.506ZM467 102.604L467.041 103.533C467.606 102.822 468.344 102.467 469.256 102.467C470.819 102.467 471.607 103.349 471.621 105.112V110H470.356V105.105C470.352 104.572 470.229 104.178 469.987 103.923C469.75 103.668 469.379 103.54 468.873 103.54C468.463 103.54 468.103 103.649 467.793 103.868C467.483 104.087 467.242 104.374 467.068 104.729V110H465.804V102.604H467ZM476.598 110.137C475.595 110.137 474.779 109.809 474.15 109.152C473.521 108.492 473.207 107.61 473.207 106.507V106.274C473.207 105.541 473.346 104.887 473.624 104.312C473.907 103.734 474.299 103.283 474.8 102.959C475.306 102.631 475.853 102.467 476.44 102.467C477.402 102.467 478.149 102.784 478.683 103.417C479.216 104.05 479.482 104.957 479.482 106.138V106.664H474.472C474.49 107.393 474.702 107.983 475.107 108.435C475.518 108.881 476.037 109.104 476.666 109.104C477.113 109.104 477.491 109.013 477.801 108.831C478.111 108.649 478.382 108.407 478.614 108.106L479.387 108.708C478.767 109.66 477.837 110.137 476.598 110.137ZM476.44 103.506C475.93 103.506 475.502 103.693 475.155 104.066C474.809 104.436 474.595 104.955 474.513 105.625H478.218V105.529C478.181 104.887 478.008 104.39 477.698 104.039C477.388 103.684 476.969 103.506 476.44 103.506ZM484.527 103.738C484.336 103.706 484.129 103.69 483.905 103.69C483.076 103.69 482.513 104.044 482.217 104.75V110H480.952V102.604H482.183L482.203 103.458C482.618 102.797 483.206 102.467 483.967 102.467C484.213 102.467 484.4 102.499 484.527 102.562V103.738ZM485.259 106.24C485.259 105.087 485.525 104.171 486.059 103.492C486.592 102.809 487.298 102.467 488.178 102.467C489.08 102.467 489.784 102.786 490.29 103.424L490.352 102.604H491.507V109.822C491.507 110.779 491.222 111.534 490.652 112.085C490.087 112.636 489.326 112.912 488.369 112.912C487.836 112.912 487.314 112.798 486.804 112.57C486.293 112.342 485.904 112.03 485.635 111.634L486.291 110.875C486.833 111.545 487.496 111.88 488.28 111.88C488.896 111.88 489.374 111.707 489.716 111.36C490.062 111.014 490.235 110.526 490.235 109.897V109.262C489.729 109.845 489.039 110.137 488.164 110.137C487.298 110.137 486.596 109.788 486.059 109.091C485.525 108.394 485.259 107.443 485.259 106.24ZM486.53 106.384C486.53 107.218 486.701 107.874 487.043 108.353C487.385 108.826 487.863 109.063 488.479 109.063C489.276 109.063 489.862 108.701 490.235 107.977V104.6C489.848 103.893 489.267 103.54 488.492 103.54C487.877 103.54 487.396 103.779 487.05 104.258C486.703 104.736 486.53 105.445 486.53 106.384ZM495.841 108.147L497.563 102.604H498.917L495.943 111.142C495.483 112.372 494.752 112.987 493.749 112.987L493.51 112.967L493.038 112.878V111.853L493.38 111.88C493.808 111.88 494.141 111.793 494.378 111.62C494.619 111.447 494.818 111.13 494.973 110.67L495.253 109.918L492.614 102.604H493.995L495.841 108.147ZM426.518 125.104C426.969 125.104 427.363 124.968 427.7 124.694C428.037 124.421 428.224 124.079 428.261 123.669H429.457C429.434 124.093 429.288 124.496 429.02 124.879C428.751 125.262 428.391 125.567 427.939 125.795C427.493 126.023 427.019 126.137 426.518 126.137C425.51 126.137 424.708 125.802 424.111 125.132C423.519 124.457 423.223 123.537 423.223 122.37V122.158C423.223 121.438 423.355 120.798 423.619 120.237C423.883 119.677 424.262 119.242 424.754 118.932C425.251 118.622 425.836 118.467 426.511 118.467C427.34 118.467 428.028 118.715 428.575 119.212C429.127 119.709 429.421 120.354 429.457 121.146H428.261C428.224 120.668 428.042 120.276 427.714 119.971C427.39 119.661 426.989 119.506 426.511 119.506C425.868 119.506 425.369 119.738 425.014 120.203C424.663 120.663 424.487 121.331 424.487 122.206V122.445C424.487 123.298 424.663 123.954 425.014 124.414C425.365 124.874 425.866 125.104 426.518 125.104ZM430.544 122.233C430.544 121.509 430.685 120.857 430.968 120.278C431.255 119.7 431.651 119.253 432.157 118.938C432.668 118.624 433.249 118.467 433.9 118.467C434.908 118.467 435.721 118.815 436.341 119.513C436.965 120.21 437.277 121.137 437.277 122.295V122.384C437.277 123.104 437.138 123.751 436.86 124.325C436.587 124.895 436.193 125.339 435.678 125.658C435.167 125.977 434.579 126.137 433.914 126.137C432.911 126.137 432.098 125.788 431.474 125.091C430.854 124.394 430.544 123.471 430.544 122.322V122.233ZM431.815 122.384C431.815 123.204 432.005 123.863 432.383 124.359C432.766 124.856 433.276 125.104 433.914 125.104C434.557 125.104 435.067 124.854 435.445 124.353C435.824 123.847 436.013 123.14 436.013 122.233C436.013 121.422 435.819 120.766 435.432 120.265C435.049 119.759 434.538 119.506 433.9 119.506C433.276 119.506 432.772 119.754 432.39 120.251C432.007 120.748 431.815 121.459 431.815 122.384ZM440.06 118.604L440.101 119.533C440.666 118.822 441.404 118.467 442.315 118.467C443.879 118.467 444.667 119.349 444.681 121.112V126H443.416V121.105C443.411 120.572 443.288 120.178 443.047 119.923C442.81 119.668 442.438 119.54 441.933 119.54C441.522 119.54 441.162 119.649 440.853 119.868C440.543 120.087 440.301 120.374 440.128 120.729V126H438.863V118.604H440.06ZM450.895 124.038C450.895 123.696 450.765 123.432 450.505 123.245C450.25 123.054 449.801 122.89 449.158 122.753C448.52 122.616 448.012 122.452 447.634 122.261C447.26 122.069 446.982 121.841 446.8 121.577C446.622 121.313 446.533 120.998 446.533 120.634C446.533 120.028 446.788 119.515 447.299 119.096C447.814 118.676 448.47 118.467 449.268 118.467C450.106 118.467 450.785 118.683 451.305 119.116C451.829 119.549 452.091 120.103 452.091 120.777H450.819C450.819 120.431 450.671 120.132 450.375 119.882C450.083 119.631 449.714 119.506 449.268 119.506C448.807 119.506 448.447 119.606 448.188 119.807C447.928 120.007 447.798 120.269 447.798 120.593C447.798 120.898 447.919 121.128 448.16 121.283C448.402 121.438 448.837 121.586 449.466 121.728C450.099 121.869 450.612 122.037 451.004 122.233C451.396 122.429 451.685 122.666 451.872 122.944C452.063 123.218 452.159 123.553 452.159 123.949C452.159 124.61 451.895 125.141 451.366 125.542C450.838 125.938 450.152 126.137 449.309 126.137C448.716 126.137 448.192 126.032 447.736 125.822C447.281 125.613 446.923 125.321 446.663 124.947C446.408 124.569 446.28 124.161 446.28 123.724H447.545C447.568 124.147 447.736 124.485 448.051 124.735C448.37 124.981 448.789 125.104 449.309 125.104C449.787 125.104 450.17 125.009 450.457 124.817C450.749 124.621 450.895 124.362 450.895 124.038ZM458.373 125.269C457.881 125.847 457.159 126.137 456.206 126.137C455.418 126.137 454.816 125.909 454.401 125.453C453.991 124.993 453.784 124.314 453.779 123.416V118.604H455.044V123.382C455.044 124.503 455.5 125.063 456.411 125.063C457.377 125.063 458.02 124.703 458.339 123.983V118.604H459.604V126H458.4L458.373 125.269ZM462.721 118.604L462.755 119.424C463.297 118.786 464.029 118.467 464.949 118.467C465.984 118.467 466.688 118.863 467.062 119.656C467.308 119.301 467.627 119.014 468.019 118.795C468.415 118.576 468.882 118.467 469.42 118.467C471.042 118.467 471.867 119.326 471.895 121.044V126H470.63V121.119C470.63 120.59 470.509 120.196 470.268 119.937C470.026 119.672 469.62 119.54 469.051 119.54C468.581 119.54 468.192 119.681 467.882 119.964C467.572 120.242 467.392 120.618 467.342 121.092V126H466.07V121.153C466.07 120.078 465.544 119.54 464.491 119.54C463.662 119.54 463.094 119.893 462.789 120.6V126H461.524V118.604H462.721ZM480.057 122.384C480.057 123.509 479.799 124.416 479.284 125.104C478.769 125.793 478.072 126.137 477.192 126.137C476.295 126.137 475.588 125.852 475.073 125.282V128.844H473.809V118.604H474.964L475.025 119.424C475.54 118.786 476.256 118.467 477.172 118.467C478.061 118.467 478.762 118.802 479.277 119.472C479.797 120.142 480.057 121.074 480.057 122.268V122.384ZM478.792 122.24C478.792 121.406 478.614 120.748 478.259 120.265C477.903 119.782 477.416 119.54 476.796 119.54C476.03 119.54 475.456 119.88 475.073 120.559V124.093C475.451 124.767 476.03 125.104 476.81 125.104C477.416 125.104 477.896 124.865 478.252 124.387C478.612 123.904 478.792 123.188 478.792 122.24ZM483.386 116.812V118.604H484.767V119.581H483.386V124.168C483.386 124.464 483.447 124.688 483.57 124.838C483.693 124.984 483.903 125.057 484.199 125.057C484.345 125.057 484.546 125.029 484.801 124.975V126C484.468 126.091 484.145 126.137 483.83 126.137C483.265 126.137 482.839 125.966 482.552 125.624C482.265 125.282 482.121 124.797 482.121 124.168V119.581H480.774V118.604H482.121V116.812H483.386ZM487.624 126H486.359V118.604H487.624V126ZM486.257 116.642C486.257 116.437 486.318 116.263 486.441 116.122C486.569 115.981 486.756 115.91 487.002 115.91C487.248 115.91 487.435 115.981 487.562 116.122C487.69 116.263 487.754 116.437 487.754 116.642C487.754 116.847 487.69 117.018 487.562 117.154C487.435 117.291 487.248 117.359 487.002 117.359C486.756 117.359 486.569 117.291 486.441 117.154C486.318 117.018 486.257 116.847 486.257 116.642ZM489.319 122.233C489.319 121.509 489.461 120.857 489.743 120.278C490.03 119.7 490.427 119.253 490.933 118.938C491.443 118.624 492.024 118.467 492.676 118.467C493.683 118.467 494.496 118.815 495.116 119.513C495.741 120.21 496.053 121.137 496.053 122.295V122.384C496.053 123.104 495.914 123.751 495.636 124.325C495.362 124.895 494.968 125.339 494.453 125.658C493.943 125.977 493.355 126.137 492.689 126.137C491.687 126.137 490.873 125.788 490.249 125.091C489.629 124.394 489.319 123.471 489.319 122.322V122.233ZM490.591 122.384C490.591 123.204 490.78 123.863 491.158 124.359C491.541 124.856 492.051 125.104 492.689 125.104C493.332 125.104 493.842 124.854 494.221 124.353C494.599 123.847 494.788 123.14 494.788 122.233C494.788 121.422 494.594 120.766 494.207 120.265C493.824 119.759 493.314 119.506 492.676 119.506C492.051 119.506 491.548 119.754 491.165 120.251C490.782 120.748 490.591 121.459 490.591 122.384ZM498.835 118.604L498.876 119.533C499.441 118.822 500.179 118.467 501.091 118.467C502.654 118.467 503.442 119.349 503.456 121.112V126H502.191V121.105C502.187 120.572 502.064 120.178 501.822 119.923C501.585 119.668 501.214 119.54 500.708 119.54C500.298 119.54 499.938 119.649 499.628 119.868C499.318 120.087 499.076 120.374 498.903 120.729V126H497.639V118.604H498.835Z" fill="#5452F6"/>
<path d="M285.161 108.927H289.878V110H283.842V100.047H285.161V108.927ZM290.842 106.233C290.842 105.509 290.983 104.857 291.266 104.278C291.553 103.7 291.949 103.253 292.455 102.938C292.965 102.624 293.547 102.467 294.198 102.467C295.205 102.467 296.019 102.815 296.639 103.513C297.263 104.21 297.575 105.137 297.575 106.295V106.384C297.575 107.104 297.436 107.751 297.158 108.325C296.885 108.895 296.491 109.339 295.976 109.658C295.465 109.977 294.877 110.137 294.212 110.137C293.209 110.137 292.396 109.788 291.771 109.091C291.152 108.394 290.842 107.471 290.842 106.322V106.233ZM292.113 106.384C292.113 107.204 292.302 107.863 292.681 108.359C293.063 108.856 293.574 109.104 294.212 109.104C294.854 109.104 295.365 108.854 295.743 108.353C296.121 107.847 296.311 107.14 296.311 106.233C296.311 105.422 296.117 104.766 295.729 104.265C295.347 103.759 294.836 103.506 294.198 103.506C293.574 103.506 293.07 103.754 292.688 104.251C292.305 104.748 292.113 105.459 292.113 106.384ZM305.71 108.257L307.132 102.604H308.396L306.243 110H305.218L303.42 104.395L301.67 110H300.645L298.498 102.604H299.756L301.212 108.141L302.935 102.604H303.953L305.71 108.257ZM314.877 100.812V102.604H316.258V103.581H314.877V108.168C314.877 108.464 314.938 108.688 315.062 108.838C315.185 108.984 315.394 109.057 315.69 109.057C315.836 109.057 316.037 109.029 316.292 108.975V110C315.959 110.091 315.636 110.137 315.321 110.137C314.756 110.137 314.33 109.966 314.043 109.624C313.756 109.282 313.612 108.797 313.612 108.168V103.581H312.266V102.604H313.612V100.812H314.877ZM320.223 105.304L321.863 102.604H323.34L320.92 106.261L323.415 110H321.952L320.243 107.231L318.534 110H317.064L319.56 106.261L317.14 102.604H318.603L320.223 105.304ZM331.126 109.104C331.577 109.104 331.971 108.968 332.309 108.694C332.646 108.421 332.833 108.079 332.869 107.669H334.065C334.043 108.093 333.897 108.496 333.628 108.879C333.359 109.262 332.999 109.567 332.548 109.795C332.101 110.023 331.627 110.137 331.126 110.137C330.119 110.137 329.317 109.802 328.72 109.132C328.127 108.457 327.831 107.537 327.831 106.37V106.158C327.831 105.438 327.963 104.798 328.228 104.237C328.492 103.677 328.87 103.242 329.362 102.932C329.859 102.622 330.445 102.467 331.119 102.467C331.949 102.467 332.637 102.715 333.184 103.212C333.735 103.709 334.029 104.354 334.065 105.146H332.869C332.833 104.668 332.65 104.276 332.322 103.971C331.999 103.661 331.598 103.506 331.119 103.506C330.477 103.506 329.978 103.738 329.622 104.203C329.271 104.663 329.096 105.331 329.096 106.206V106.445C329.096 107.298 329.271 107.954 329.622 108.414C329.973 108.874 330.474 109.104 331.126 109.104ZM335.152 106.233C335.152 105.509 335.294 104.857 335.576 104.278C335.863 103.7 336.26 103.253 336.766 102.938C337.276 102.624 337.857 102.467 338.509 102.467C339.516 102.467 340.329 102.815 340.949 103.513C341.574 104.21 341.886 105.137 341.886 106.295V106.384C341.886 107.104 341.747 107.751 341.469 108.325C341.195 108.895 340.801 109.339 340.286 109.658C339.776 109.977 339.188 110.137 338.522 110.137C337.52 110.137 336.706 109.788 336.082 109.091C335.462 108.394 335.152 107.471 335.152 106.322V106.233ZM336.424 106.384C336.424 107.204 336.613 107.863 336.991 108.359C337.374 108.856 337.884 109.104 338.522 109.104C339.165 109.104 339.675 108.854 340.054 108.353C340.432 107.847 340.621 107.14 340.621 106.233C340.621 105.422 340.427 104.766 340.04 104.265C339.657 103.759 339.147 103.506 338.509 103.506C337.884 103.506 337.381 103.754 336.998 104.251C336.615 104.748 336.424 105.459 336.424 106.384ZM347.778 108.038C347.778 107.696 347.648 107.432 347.389 107.245C347.133 107.054 346.685 106.89 346.042 106.753C345.404 106.616 344.896 106.452 344.518 106.261C344.144 106.069 343.866 105.841 343.684 105.577C343.506 105.313 343.417 104.998 343.417 104.634C343.417 104.028 343.672 103.515 344.183 103.096C344.698 102.676 345.354 102.467 346.151 102.467C346.99 102.467 347.669 102.683 348.188 103.116C348.713 103.549 348.975 104.103 348.975 104.777H347.703C347.703 104.431 347.555 104.132 347.259 103.882C346.967 103.631 346.598 103.506 346.151 103.506C345.691 103.506 345.331 103.606 345.071 103.807C344.812 104.007 344.682 104.269 344.682 104.593C344.682 104.898 344.802 105.128 345.044 105.283C345.285 105.438 345.721 105.586 346.35 105.728C346.983 105.869 347.496 106.037 347.888 106.233C348.28 106.429 348.569 106.666 348.756 106.944C348.947 107.218 349.043 107.553 349.043 107.949C349.043 108.61 348.779 109.141 348.25 109.542C347.721 109.938 347.035 110.137 346.192 110.137C345.6 110.137 345.076 110.032 344.62 109.822C344.164 109.613 343.807 109.321 343.547 108.947C343.292 108.569 343.164 108.161 343.164 107.724H344.429C344.451 108.147 344.62 108.485 344.935 108.735C345.254 108.981 345.673 109.104 346.192 109.104C346.671 109.104 347.054 109.009 347.341 108.817C347.632 108.621 347.778 108.362 347.778 108.038ZM352.406 100.812V102.604H353.787V103.581H352.406V108.168C352.406 108.464 352.468 108.688 352.591 108.838C352.714 108.984 352.924 109.057 353.22 109.057C353.366 109.057 353.566 109.029 353.821 108.975V110C353.489 110.091 353.165 110.137 352.851 110.137C352.285 110.137 351.859 109.966 351.572 109.624C351.285 109.282 351.142 108.797 351.142 108.168V103.581H349.795V102.604H351.142V100.812H352.406Z" fill="#5452F6"/>
<path d="M324.385 60.0825L320.79 63.6775C320.239 64.229 319.897 64.9552 319.823 65.7312C319.75 66.5073 319.948 67.2848 320.386 67.9303C320.823 68.5757 321.471 69.0488 322.219 69.2682C322.967 69.4876 323.768 69.4396 324.485 69.1325L329.59 66.9425C330.306 66.6367 331.107 66.5897 331.854 66.8095C332.601 67.0294 333.249 67.5024 333.686 68.1475C334.122 68.7925 334.321 69.5694 334.247 70.3449C334.174 71.1203 333.833 71.846 333.282 72.3975L329.69 76" stroke="#C4C4C4" stroke-width="2" stroke-linecap="round" stroke-linejoin="round"/>
<path d="M321.735 62.735L320.407 61.4075" stroke="#C4C4C4" stroke-width="2" stroke-linecap="round" stroke-linejoin="round"/>
<path d="M333.668 74.665L332.34 73.34" stroke="#C4C4C4" stroke-width="2" stroke-linecap="round" stroke-linejoin="round"/>
<path d="M301.458 51.0125L300.093 60.7325C300.09 61.228 300.186 61.7191 300.374 62.1773C300.562 62.6356 300.84 63.052 301.19 63.4025L324.94 87.1525C325.288 87.501 325.702 87.7774 326.157 87.966C326.612 88.1546 327.1 88.2517 327.593 88.2517C328.085 88.2517 328.573 88.1546 329.028 87.966C329.483 87.7774 329.897 87.501 330.245 87.1525L346.153 71.25C346.856 70.5468 347.25 69.5931 347.25 68.5987C347.25 67.6044 346.856 66.6507 346.153 65.9475L322.095 41.8825C321.735 41.5225 321.306 41.2395 320.833 41.0508C320.36 40.8622 319.854 40.7717 319.345 40.785L309.75 42.305" stroke="#C4C4C4" stroke-width="2" stroke-linecap="round" stroke-linejoin="round"/>
<path d="M312.105 56.855C314.176 56.855 315.855 55.1761 315.855 53.105C315.855 51.0339 314.176 49.355 312.105 49.355C310.034 49.355 308.355 51.0339 308.355 53.105C308.355 55.1761 310.034 56.855 312.105 56.855Z" stroke="#C4C4C4" stroke-width="2" stroke-linecap="round" stroke-linejoin="round"/>
<path d="M309.455 50.455L294.75 35.75" stroke="#C4C4C4" stroke-width="2" stroke-linecap="round" stroke-linejoin="round"/>
<path d="M463.62 85.75C458.626 85.7493 453.838 83.7652 450.307 80.2339C446.776 76.7027 444.793 71.9136 444.793 66.92C444.793 39.6125 477.653 53.63 493.473 40.5C493.642 40.3729 493.844 40.2945 494.055 40.2734C494.266 40.2523 494.478 40.2891 494.67 40.38C494.865 40.4614 495.035 40.5908 495.167 40.756C495.298 40.9213 495.385 41.117 495.42 41.325C500.25 69.6075 479.43 85.75 463.62 85.75Z" stroke="#C4C4C4" stroke-width="2" stroke-linecap="round" stroke-linejoin="round"/>
<path d="M471.152 61.885C463.352 64.0292 456.043 67.6683 449.63 72.6L439.875 80.925" stroke="#C4C4C4" stroke-width="2" stroke-linecap="round" stroke-linejoin="round"/>
<line x1="537" y1="20" x2="537" y2="120" stroke="#5452F6" stroke-width="2" stroke-linejoin="round" stroke-dasharray="5 8"/>
<path d="M571.395 105.974H569.057V110H567.737V100.047H571.032C572.153 100.047 573.015 100.302 573.616 100.812C574.222 101.323 574.525 102.066 574.525 103.041C574.525 103.661 574.357 104.201 574.02 104.661C573.687 105.121 573.222 105.465 572.625 105.693L574.963 109.918V110H573.555L571.395 105.974ZM569.057 104.9H571.073C571.725 104.9 572.242 104.732 572.625 104.395C573.012 104.057 573.206 103.606 573.206 103.041C573.206 102.426 573.021 101.954 572.652 101.626C572.288 101.298 571.759 101.132 571.066 101.127H569.057V104.9ZM579.242 110.137C578.24 110.137 577.424 109.809 576.795 109.152C576.166 108.492 575.852 107.61 575.852 106.507V106.274C575.852 105.541 575.991 104.887 576.269 104.312C576.551 103.734 576.943 103.283 577.444 102.959C577.95 102.631 578.497 102.467 579.085 102.467C580.047 102.467 580.794 102.784 581.327 103.417C581.86 104.05 582.127 104.957 582.127 106.138V106.664H577.116C577.134 107.393 577.346 107.983 577.752 108.435C578.162 108.881 578.682 109.104 579.311 109.104C579.757 109.104 580.135 109.013 580.445 108.831C580.755 108.649 581.026 108.407 581.259 108.106L582.031 108.708C581.411 109.66 580.482 110.137 579.242 110.137ZM579.085 103.506C578.575 103.506 578.146 103.693 577.8 104.066C577.453 104.436 577.239 104.955 577.157 105.625H580.862V105.529C580.826 104.887 580.653 104.39 580.343 104.039C580.033 103.684 579.614 103.506 579.085 103.506ZM587.903 108.038C587.903 107.696 587.773 107.432 587.514 107.245C587.258 107.054 586.81 106.89 586.167 106.753C585.529 106.616 585.021 106.452 584.643 106.261C584.269 106.069 583.991 105.841 583.809 105.577C583.631 105.313 583.542 104.998 583.542 104.634C583.542 104.028 583.797 103.515 584.308 103.096C584.823 102.676 585.479 102.467 586.276 102.467C587.115 102.467 587.794 102.683 588.313 103.116C588.838 103.549 589.1 104.103 589.1 104.777H587.828C587.828 104.431 587.68 104.132 587.384 103.882C587.092 103.631 586.723 103.506 586.276 103.506C585.816 103.506 585.456 103.606 585.196 103.807C584.937 104.007 584.807 104.269 584.807 104.593C584.807 104.898 584.927 105.128 585.169 105.283C585.41 105.438 585.846 105.586 586.475 105.728C587.108 105.869 587.621 106.037 588.013 106.233C588.405 106.429 588.694 106.666 588.881 106.944C589.072 107.218 589.168 107.553 589.168 107.949C589.168 108.61 588.904 109.141 588.375 109.542C587.846 109.938 587.16 110.137 586.317 110.137C585.725 110.137 585.201 110.032 584.745 109.822C584.289 109.613 583.932 109.321 583.672 108.947C583.417 108.569 583.289 108.161 583.289 107.724H584.554C584.576 108.147 584.745 108.485 585.06 108.735C585.379 108.981 585.798 109.104 586.317 109.104C586.796 109.104 587.179 109.009 587.466 108.817C587.757 108.621 587.903 108.362 587.903 108.038ZM592.189 110H590.925V102.604H592.189V110ZM590.822 100.642C590.822 100.437 590.884 100.263 591.007 100.122C591.134 99.9808 591.321 99.9102 591.567 99.9102C591.813 99.9102 592 99.9808 592.128 100.122C592.256 100.263 592.319 100.437 592.319 100.642C592.319 100.847 592.256 101.018 592.128 101.154C592 101.291 591.813 101.359 591.567 101.359C591.321 101.359 591.134 101.291 591.007 101.154C590.884 101.018 590.822 100.847 590.822 100.642ZM598.526 108.038C598.526 107.696 598.396 107.432 598.137 107.245C597.882 107.054 597.433 106.89 596.79 106.753C596.152 106.616 595.644 106.452 595.266 106.261C594.892 106.069 594.614 105.841 594.432 105.577C594.254 105.313 594.165 104.998 594.165 104.634C594.165 104.028 594.42 103.515 594.931 103.096C595.446 102.676 596.102 102.467 596.899 102.467C597.738 102.467 598.417 102.683 598.937 103.116C599.461 103.549 599.723 104.103 599.723 104.777H598.451C598.451 104.431 598.303 104.132 598.007 103.882C597.715 103.631 597.346 103.506 596.899 103.506C596.439 103.506 596.079 103.606 595.819 103.807C595.56 104.007 595.43 104.269 595.43 104.593C595.43 104.898 595.55 105.128 595.792 105.283C596.034 105.438 596.469 105.586 597.098 105.728C597.731 105.869 598.244 106.037 598.636 106.233C599.028 106.429 599.317 106.666 599.504 106.944C599.695 107.218 599.791 107.553 599.791 107.949C599.791 108.61 599.527 109.141 598.998 109.542C598.469 109.938 597.784 110.137 596.94 110.137C596.348 110.137 595.824 110.032 595.368 109.822C594.912 109.613 594.555 109.321 594.295 108.947C594.04 108.569 593.912 108.161 593.912 107.724H595.177C595.2 108.147 595.368 108.485 595.683 108.735C596.002 108.981 596.421 109.104 596.94 109.104C597.419 109.104 597.802 109.009 598.089 108.817C598.381 108.621 598.526 108.362 598.526 108.038ZM603.154 100.812V102.604H604.535V103.581H603.154V108.168C603.154 108.464 603.216 108.688 603.339 108.838C603.462 108.984 603.672 109.057 603.968 109.057C604.114 109.057 604.314 109.029 604.569 108.975V110C604.237 110.091 603.913 110.137 603.599 110.137C603.034 110.137 602.607 109.966 602.32 109.624C602.033 109.282 601.89 108.797 601.89 108.168V103.581H600.543V102.604H601.89V100.812H603.154ZM611.207 100.812V102.604H612.588V103.581H611.207V108.168C611.207 108.464 611.269 108.688 611.392 108.838C611.515 108.984 611.724 109.057 612.021 109.057C612.166 109.057 612.367 109.029 612.622 108.975V110C612.289 110.091 611.966 110.137 611.651 110.137C611.086 110.137 610.66 109.966 610.373 109.624C610.086 109.282 609.942 108.797 609.942 108.168V103.581H608.596V102.604H609.942V100.812H611.207ZM613.6 106.233C613.6 105.509 613.741 104.857 614.023 104.278C614.311 103.7 614.707 103.253 615.213 102.938C615.723 102.624 616.304 102.467 616.956 102.467C617.963 102.467 618.777 102.815 619.396 103.513C620.021 104.21 620.333 105.137 620.333 106.295V106.384C620.333 107.104 620.194 107.751 619.916 108.325C619.643 108.895 619.248 109.339 618.733 109.658C618.223 109.977 617.635 110.137 616.97 110.137C615.967 110.137 615.154 109.788 614.529 109.091C613.91 108.394 613.6 107.471 613.6 106.322V106.233ZM614.871 106.384C614.871 107.204 615.06 107.863 615.438 108.359C615.821 108.856 616.332 109.104 616.97 109.104C617.612 109.104 618.123 108.854 618.501 108.353C618.879 107.847 619.068 107.14 619.068 106.233C619.068 105.422 618.875 104.766 618.487 104.265C618.104 103.759 617.594 103.506 616.956 103.506C616.332 103.506 615.828 103.754 615.445 104.251C615.062 104.748 614.871 105.459 614.871 106.384ZM625.843 105.01L626.349 100.047H631.448V101.216H627.422L627.121 103.93C627.609 103.643 628.162 103.499 628.782 103.499C629.689 103.499 630.409 103.8 630.942 104.401C631.476 104.998 631.742 105.807 631.742 106.828C631.742 107.854 631.464 108.662 630.908 109.255C630.357 109.843 629.584 110.137 628.591 110.137C627.711 110.137 626.993 109.893 626.438 109.405C625.882 108.918 625.565 108.243 625.487 107.382H626.684C626.761 107.951 626.964 108.382 627.292 108.674C627.62 108.961 628.053 109.104 628.591 109.104C629.179 109.104 629.639 108.904 629.972 108.503C630.309 108.102 630.478 107.548 630.478 106.842C630.478 106.176 630.295 105.643 629.931 105.242C629.571 104.837 629.09 104.634 628.488 104.634C627.937 104.634 627.504 104.755 627.189 104.996L626.854 105.27L625.843 105.01ZM637.279 110H636.008V101.571L633.458 102.508V101.359L637.081 99.999H637.279V110ZM640.875 101.961C640.875 101.364 641.064 100.872 641.442 100.484C641.825 100.097 642.315 99.9033 642.912 99.9033C643.518 99.9033 644.008 100.099 644.382 100.491C644.76 100.879 644.949 101.382 644.949 102.002V102.487C644.949 103.089 644.758 103.581 644.375 103.964C643.997 104.342 643.514 104.531 642.926 104.531C642.333 104.531 641.843 104.342 641.456 103.964C641.069 103.581 640.875 103.073 640.875 102.439V101.961ZM641.818 102.487C641.818 102.843 641.919 103.137 642.119 103.369C642.32 103.597 642.589 103.711 642.926 103.711C643.249 103.711 643.509 103.599 643.705 103.376C643.906 103.153 644.006 102.847 644.006 102.46V101.961C644.006 101.605 643.908 101.312 643.712 101.079C643.516 100.847 643.249 100.73 642.912 100.73C642.575 100.73 642.308 100.847 642.112 101.079C641.916 101.312 641.818 101.615 641.818 101.988V102.487ZM645.722 107.56C645.722 106.963 645.911 106.473 646.289 106.09C646.672 105.702 647.162 105.509 647.759 105.509C648.356 105.509 648.846 105.7 649.229 106.083C649.611 106.466 649.803 106.974 649.803 107.607V108.093C649.803 108.69 649.611 109.182 649.229 109.569C648.85 109.952 648.365 110.144 647.772 110.144C647.18 110.144 646.69 109.954 646.303 109.576C645.915 109.193 645.722 108.685 645.722 108.052V107.56ZM646.665 108.093C646.665 108.453 646.765 108.749 646.966 108.981C647.166 109.209 647.435 109.323 647.772 109.323C648.101 109.323 648.363 109.212 648.559 108.988C648.755 108.76 648.853 108.453 648.853 108.065V107.56C648.853 107.2 648.752 106.906 648.552 106.678C648.356 106.45 648.091 106.336 647.759 106.336C647.435 106.336 647.171 106.45 646.966 106.678C646.765 106.901 646.665 107.204 646.665 107.587V108.093ZM643.213 109.248L642.495 108.797L647.355 101.018L648.073 101.469L643.213 109.248ZM591.007 126C590.934 125.854 590.875 125.594 590.829 125.221C590.241 125.831 589.539 126.137 588.724 126.137C587.994 126.137 587.395 125.932 586.926 125.521C586.461 125.107 586.229 124.583 586.229 123.949C586.229 123.179 586.52 122.582 587.104 122.158C587.691 121.73 588.516 121.516 589.578 121.516H590.809V120.935C590.809 120.493 590.676 120.142 590.412 119.882C590.148 119.618 589.758 119.485 589.243 119.485C588.792 119.485 588.414 119.599 588.108 119.827C587.803 120.055 587.65 120.331 587.65 120.654H586.379C586.379 120.285 586.509 119.93 586.769 119.588C587.033 119.242 587.388 118.968 587.835 118.768C588.286 118.567 588.781 118.467 589.318 118.467C590.171 118.467 590.838 118.681 591.321 119.109C591.804 119.533 592.055 120.119 592.073 120.866V124.271C592.073 124.95 592.16 125.49 592.333 125.891V126H591.007ZM588.908 125.036C589.305 125.036 589.681 124.934 590.036 124.729C590.392 124.523 590.649 124.257 590.809 123.929V122.411H589.817C588.268 122.411 587.493 122.865 587.493 123.771C587.493 124.168 587.625 124.478 587.89 124.701C588.154 124.924 588.493 125.036 588.908 125.036ZM595.771 116.812V118.604H597.152V119.581H595.771V124.168C595.771 124.464 595.833 124.688 595.956 124.838C596.079 124.984 596.289 125.057 596.585 125.057C596.731 125.057 596.931 125.029 597.187 124.975V126C596.854 126.091 596.53 126.137 596.216 126.137C595.651 126.137 595.225 125.966 594.938 125.624C594.65 125.282 594.507 124.797 594.507 124.168V119.581H593.16V118.604H594.507V116.812H595.771ZM600.352 116.812V118.604H601.732V119.581H600.352V124.168C600.352 124.464 600.413 124.688 600.536 124.838C600.659 124.984 600.869 125.057 601.165 125.057C601.311 125.057 601.511 125.029 601.767 124.975V126C601.434 126.091 601.11 126.137 600.796 126.137C600.231 126.137 599.805 125.966 599.518 125.624C599.23 125.282 599.087 124.797 599.087 124.168V119.581H597.74V118.604H599.087V116.812H600.352ZM607.782 126C607.709 125.854 607.65 125.594 607.604 125.221C607.017 125.831 606.315 126.137 605.499 126.137C604.77 126.137 604.171 125.932 603.701 125.521C603.236 125.107 603.004 124.583 603.004 123.949C603.004 123.179 603.296 122.582 603.879 122.158C604.467 121.73 605.292 121.516 606.354 121.516H607.584V120.935C607.584 120.493 607.452 120.142 607.188 119.882C606.923 119.618 606.534 119.485 606.019 119.485C605.567 119.485 605.189 119.599 604.884 119.827C604.578 120.055 604.426 120.331 604.426 120.654H603.154C603.154 120.285 603.284 119.93 603.544 119.588C603.808 119.242 604.164 118.968 604.61 118.768C605.062 118.567 605.556 118.467 606.094 118.467C606.946 118.467 607.614 118.681 608.097 119.109C608.58 119.533 608.83 120.119 608.849 120.866V124.271C608.849 124.95 608.935 125.49 609.108 125.891V126H607.782ZM605.684 125.036C606.08 125.036 606.456 124.934 606.812 124.729C607.167 124.523 607.424 124.257 607.584 123.929V122.411H606.593C605.043 122.411 604.269 122.865 604.269 123.771C604.269 124.168 604.401 124.478 604.665 124.701C604.929 124.924 605.269 125.036 605.684 125.036ZM613.798 125.104C614.249 125.104 614.643 124.968 614.98 124.694C615.318 124.421 615.505 124.079 615.541 123.669H616.737C616.715 124.093 616.569 124.496 616.3 124.879C616.031 125.262 615.671 125.567 615.22 125.795C614.773 126.023 614.299 126.137 613.798 126.137C612.791 126.137 611.989 125.802 611.392 125.132C610.799 124.457 610.503 123.537 610.503 122.37V122.158C610.503 121.438 610.635 120.798 610.899 120.237C611.164 119.677 611.542 119.242 612.034 118.932C612.531 118.622 613.117 118.467 613.791 118.467C614.62 118.467 615.309 118.715 615.855 119.212C616.407 119.709 616.701 120.354 616.737 121.146H615.541C615.505 120.668 615.322 120.276 614.994 119.971C614.671 119.661 614.27 119.506 613.791 119.506C613.148 119.506 612.649 119.738 612.294 120.203C611.943 120.663 611.768 121.331 611.768 122.206V122.445C611.768 123.298 611.943 123.954 612.294 124.414C612.645 124.874 613.146 125.104 613.798 125.104ZM620.224 122.575L619.431 123.402V126H618.166V115.5H619.431V121.851L620.107 121.037L622.411 118.604H623.949L621.071 121.693L624.284 126H622.801L620.224 122.575ZM629.562 124.038C629.562 123.696 629.432 123.432 629.172 123.245C628.917 123.054 628.468 122.89 627.825 122.753C627.187 122.616 626.679 122.452 626.301 122.261C625.927 122.069 625.649 121.841 625.467 121.577C625.289 121.313 625.2 120.998 625.2 120.634C625.2 120.028 625.455 119.515 625.966 119.096C626.481 118.676 627.137 118.467 627.935 118.467C628.773 118.467 629.452 118.683 629.972 119.116C630.496 119.549 630.758 120.103 630.758 120.777H629.486C629.486 120.431 629.338 120.132 629.042 119.882C628.75 119.631 628.381 119.506 627.935 119.506C627.474 119.506 627.114 119.606 626.854 119.807C626.595 120.007 626.465 120.269 626.465 120.593C626.465 120.898 626.586 121.128 626.827 121.283C627.069 121.438 627.504 121.586 628.133 121.728C628.766 121.869 629.279 122.037 629.671 122.233C630.063 122.429 630.352 122.666 630.539 122.944C630.73 123.218 630.826 123.553 630.826 123.949C630.826 124.61 630.562 125.141 630.033 125.542C629.505 125.938 628.819 126.137 627.976 126.137C627.383 126.137 626.859 126.032 626.403 125.822C625.948 125.613 625.59 125.321 625.33 124.947C625.075 124.569 624.947 124.161 624.947 123.724H626.212C626.235 124.147 626.403 124.485 626.718 124.735C627.037 124.981 627.456 125.104 627.976 125.104C628.454 125.104 628.837 125.009 629.124 124.817C629.416 124.621 629.562 124.362 629.562 124.038Z" fill="#5452F6"/>
<path d="M613 66.6875C612.815 66.6875 612.633 66.7425 612.479 66.8455C612.325 66.9485 612.205 67.0949 612.134 67.2662C612.063 67.4375 612.044 67.626 612.081 67.8079C612.117 67.9898 612.206 68.1568 612.337 68.2879C612.468 68.419 612.635 68.5083 612.817 68.5445C612.999 68.5807 613.187 68.5621 613.359 68.4911C613.53 68.4202 613.676 68.3 613.78 68.1459C613.883 67.9917 613.938 67.8104 613.938 67.625C613.938 67.5018 613.914 67.3797 613.867 67.2658C613.82 67.152 613.751 67.0485 613.664 66.9614C613.577 66.8742 613.473 66.8052 613.359 66.7582C613.245 66.7112 613.123 66.6872 613 66.6875V66.6875Z" stroke="#C4C4C4" stroke-width="2" stroke-linecap="round" stroke-linejoin="round"/>
<path d="M622.375 56.375V50.75C622.368 48.2656 621.379 45.8849 619.622 44.1282C617.865 42.3714 615.484 41.3816 613 41.375V41.375C610.516 41.3823 608.135 42.3723 606.379 44.1289C604.622 45.8855 603.632 48.2658 603.625 50.75V56.375" stroke="#C4C4C4" stroke-width="2" stroke-linecap="round" stroke-linejoin="round"/>
<path d="M584.875 41.375V37.625C584.875 36.6304 585.27 35.6766 585.973 34.9733C586.677 34.2701 587.63 33.875 588.625 33.875H592.375" stroke="#C4C4C4" stroke-width="2" stroke-linecap="round" stroke-linejoin="round"/>
<path d="M641.125 41.375V37.625C641.125 36.6304 640.73 35.6766 640.027 34.9733C639.323 34.2701 638.37 33.875 637.375 33.875H633.625" stroke="#C4C4C4" stroke-width="2" stroke-linecap="round" stroke-linejoin="round"/>
<path d="M584.875 82.625V86.375C584.875 87.3696 585.27 88.3234 585.973 89.0266C586.677 89.7299 587.63 90.125 588.625 90.125H592.375" stroke="#C4C4C4" stroke-width="2" stroke-linecap="round" stroke-linejoin="round"/>
<path d="M641.125 82.625V86.375C641.125 87.3696 640.73 88.3234 640.027 89.0266C639.323 89.7299 638.37 90.125 637.375 90.125H633.625" stroke="#C4C4C4" stroke-width="2" stroke-linecap="round" stroke-linejoin="round"/>
<path d="M622.375 56.375H603.625C601.554 56.375 599.875 58.0539 599.875 60.125V75.125C599.875 77.1961 601.554 78.875 603.625 78.875H622.375C624.446 78.875 626.125 77.1961 626.125 75.125V60.125C626.125 58.0539 624.446 56.375 622.375 56.375Z" stroke="#C4C4C4" stroke-width="2" stroke-linecap="round" stroke-linejoin="round"/>
<g filter="url(#filter1_d)">
<circle cx="263.5" cy="17.5" r="10.5" fill="white"/>
<circle cx="263.5" cy="17.5" r="10" stroke="#5452F6"/>
</g>
<g filter="url(#filter2_d)">
<circle cx="263.5" cy="17.5" r="10.5" fill="#5452F6"/>
</g>
<path d="M258.5 17.5L261.75 21.25L269 14" stroke="white" stroke-width="2" stroke-linecap="round" stroke-linejoin="round"/>
<g filter="url(#filter3_d)">
<circle cx="263" cy="17" r="11" fill="#65BF73"/>
</g>
<path d="M257.762 17L261.167 20.9286L268.762 13.3333" stroke="white" stroke-width="2" stroke-linecap="round" stroke-linejoin="round"/>
<g filter="url(#filter4_d)">
<circle cx="410.5" cy="17.5" r="10.5" fill="#5452F6"/>
</g>
<path d="M405.5 17.5L408.75 21.25L416 14" stroke="white" stroke-width="2" stroke-linecap="round" stroke-linejoin="round"/>
<g filter="url(#filter5_d)">
<circle cx="410" cy="17" r="11" fill="#65BF73"/>
</g>
<path d="M404.762 17L408.167 20.9286L415.762 13.3333" stroke="white" stroke-width="2" stroke-linecap="round" stroke-linejoin="round"/>
<g filter="url(#filter6_d)">
<circle cx="555.5" cy="17.5" r="10.5" fill="#5452F6"/>
</g>
<path d="M550.5 17.5L553.75 21.25L561 14" stroke="white" stroke-width="2" stroke-linecap="round" stroke-linejoin="round"/>
<g filter="url(#filter7_d)">
<circle cx="555" cy="17" r="11" fill="#65BF73"/>
</g>
<path d="M549.762 17L553.167 20.9286L560.762 13.3333" stroke="white" stroke-width="2" stroke-linecap="round" stroke-linejoin="round"/>
<g filter="url(#filter8_d)">
<circle cx="117.5" cy="17.5" r="5.5" fill="white"/>
<circle cx="117.5" cy="17.5" r="5" stroke="#DE1306"/>
</g>
<g filter="url(#filter9_d)">
<ellipse cx="117.238" cy="17.2381" rx="11" ry="11" fill="white"/>
<path d="M127.738 17.2381C127.738 23.0371 123.037 27.7381 117.238 27.7381C111.439 27.7381 106.738 23.0371 106.738 17.2381C106.738 11.4391 111.439 6.7381 117.238 6.7381C123.037 6.7381 127.738 11.4391 127.738 17.2381Z" stroke="#DE1306"/>
</g>
<path d="M112.851 13.375L121.101 21.625" stroke="#DE1306" stroke-width="2" stroke-linecap="round" stroke-linejoin="round"/>
<path d="M121.101 13.375L112.851 21.625" stroke="#DE1306" stroke-width="2" stroke-linecap="round" stroke-linejoin="round"/>
<path d="M19.2578 75V63.625H22.7578C23.7578 63.625 24.651 63.8516 25.4375 64.3047C26.2292 64.7526 26.8464 65.3932 27.2891 66.2266C27.7318 67.0547 27.9531 67.9974 27.9531 69.0547V69.5781C27.9531 70.6354 27.7344 71.5755 27.2969 72.3984C26.8646 73.2214 26.2526 73.8594 25.4609 74.3125C24.6693 74.7656 23.776 74.9948 22.7812 75H19.2578ZM21.6016 65.5234V73.1172H22.7344C23.651 73.1172 24.3516 72.8177 24.8359 72.2188C25.3203 71.6198 25.5677 70.763 25.5781 69.6484V69.0469C25.5781 67.8906 25.3385 67.0156 24.8594 66.4219C24.3802 65.8229 23.6797 65.5234 22.7578 65.5234H21.6016ZM32.0078 70.9922V75H29.6641V63.625H34.1016C34.9557 63.625 35.7057 63.7812 36.3516 64.0938C37.0026 64.4062 37.5026 64.8516 37.8516 65.4297C38.2005 66.0026 38.375 66.6562 38.375 67.3906C38.375 68.5052 37.9922 69.3854 37.2266 70.0312C36.4661 70.6719 35.4115 70.9922 34.0625 70.9922H32.0078ZM32.0078 69.0938H34.1016C34.7214 69.0938 35.1927 68.9479 35.5156 68.6562C35.8438 68.3646 36.0078 67.9479 36.0078 67.4062C36.0078 66.849 35.8438 66.3984 35.5156 66.0547C35.1875 65.7109 34.7344 65.5339 34.1562 65.5234H32.0078V69.0938ZM39.3828 70.6953C39.3828 69.8568 39.5443 69.1094 39.8672 68.4531C40.1901 67.7969 40.6536 67.2891 41.2578 66.9297C41.8672 66.5703 42.5729 66.3906 43.375 66.3906C44.5156 66.3906 45.4453 66.7396 46.1641 67.4375C46.888 68.1354 47.2917 69.0833 47.375 70.2812L47.3906 70.8594C47.3906 72.1562 47.0286 73.1979 46.3047 73.9844C45.5807 74.7656 44.6094 75.1562 43.3906 75.1562C42.1719 75.1562 41.1979 74.7656 40.4688 73.9844C39.7448 73.2031 39.3828 72.1406 39.3828 70.7969V70.6953ZM41.6406 70.8594C41.6406 71.6615 41.7917 72.276 42.0938 72.7031C42.3958 73.125 42.8281 73.3359 43.3906 73.3359C43.9375 73.3359 44.3646 73.1276 44.6719 72.7109C44.9792 72.2891 45.1328 71.6172 45.1328 70.6953C45.1328 69.9089 44.9792 69.2995 44.6719 68.8672C44.3646 68.4349 43.9323 68.2188 43.375 68.2188C42.8229 68.2188 42.3958 68.4349 42.0938 68.8672C41.7917 69.2943 41.6406 69.9583 41.6406 70.8594ZM54.8281 72.0156C54.8281 71.5729 54.6719 71.2344 54.3594 71C54.0469 70.7604 53.4844 70.5104 52.6719 70.25C51.8594 69.9844 51.2161 69.724 50.7422 69.4688C49.4505 68.7708 48.8047 67.8307 48.8047 66.6484C48.8047 66.0339 48.9766 65.487 49.3203 65.0078C49.6693 64.5234 50.1667 64.1458 50.8125 63.875C51.4635 63.6042 52.1927 63.4688 53 63.4688C53.8125 63.4688 54.5365 63.6172 55.1719 63.9141C55.8073 64.2057 56.2995 64.6198 56.6484 65.1562C57.0026 65.6927 57.1797 66.3021 57.1797 66.9844H54.8359C54.8359 66.4635 54.6719 66.0599 54.3438 65.7734C54.0156 65.4818 53.5547 65.3359 52.9609 65.3359C52.388 65.3359 51.9427 65.4583 51.625 65.7031C51.3073 65.9427 51.1484 66.2604 51.1484 66.6562C51.1484 67.026 51.3333 67.3359 51.7031 67.5859C52.0781 67.8359 52.6276 68.0703 53.3516 68.2891C54.6849 68.6901 55.6562 69.1875 56.2656 69.7812C56.875 70.375 57.1797 71.1146 57.1797 72C57.1797 72.9844 56.8073 73.7578 56.0625 74.3203C55.3177 74.8776 54.3151 75.1562 53.0547 75.1562C52.1797 75.1562 51.3828 74.9974 50.6641 74.6797C49.9453 74.3568 49.3958 73.9167 49.0156 73.3594C48.6406 72.8021 48.4531 72.1562 48.4531 71.4219H50.8047C50.8047 72.6771 51.5547 73.3047 53.0547 73.3047C53.612 73.3047 54.0469 73.1927 54.3594 72.9688C54.6719 72.7396 54.8281 72.4219 54.8281 72.0156Z" fill="#5452F6"/>
<rect x="0.5" y="0.5" width="684" height="139" rx="7.5" stroke="#5452F6"/>
</g>
<defs>
<filter id="filter0_d" x="0" y="0" width="689" height="144" filterUnits="userSpaceOnUse" color-interpolation-filters="sRGB">
<feFlood flood-opacity="0" result="BackgroundImageFix"/>
<feColorMatrix in="SourceAlpha" type="matrix" values="0 0 0 0 0 0 0 0 0 0 0 0 0 0 0 0 0 0 127 0"/>
<feOffset dx="4" dy="4"/>
<feColorMatrix type="matrix" values="0 0 0 0 0.67451 0 0 0 0 0.662745 0 0 0 0 0.945098 0 0 0 1 0"/>
<feBlend mode="normal" in2="BackgroundImageFix" result="effect1_dropShadow"/>
<feBlend mode="normal" in="SourceGraphic" in2="effect1_dropShadow" result="shape"/>
</filter>
<filter id="filter1_d" x="253" y="7" width="25" height="25" filterUnits="userSpaceOnUse" color-interpolation-filters="sRGB">
<feFlood flood-opacity="0" result="BackgroundImageFix"/>
<feColorMatrix in="SourceAlpha" type="matrix" values="0 0 0 0 0 0 0 0 0 0 0 0 0 0 0 0 0 0 127 0"/>
<feOffset dx="4" dy="4"/>
<feColorMatrix type="matrix" values="0 0 0 0 0.513733 0 0 0 0 0.767915 0 0 0 0 0.970833 0 0 0 1 0"/>
<feBlend mode="normal" in2="BackgroundImageFix" result="effect1_dropShadow"/>
<feBlend mode="normal" in="SourceGraphic" in2="effect1_dropShadow" result="shape"/>
</filter>
<filter id="filter2_d" x="253" y="7" width="25" height="25" filterUnits="userSpaceOnUse" color-interpolation-filters="sRGB">
<feFlood flood-opacity="0" result="BackgroundImageFix"/>
<feColorMatrix in="SourceAlpha" type="matrix" values="0 0 0 0 0 0 0 0 0 0 0 0 0 0 0 0 0 0 127 0"/>
<feOffset dx="4" dy="4"/>
<feColorMatrix type="matrix" values="0 0 0 0 0.513733 0 0 0 0 0.767915 0 0 0 0 0.970833 0 0 0 1 0"/>
<feBlend mode="normal" in2="BackgroundImageFix" result="effect1_dropShadow"/>
<feBlend mode="normal" in="SourceGraphic" in2="effect1_dropShadow" result="shape"/>
</filter>
<filter id="filter3_d" x="252" y="6" width="26" height="26" filterUnits="userSpaceOnUse" color-interpolation-filters="sRGB">
<feFlood flood-opacity="0" result="BackgroundImageFix"/>
<feColorMatrix in="SourceAlpha" type="matrix" values="0 0 0 0 0 0 0 0 0 0 0 0 0 0 0 0 0 0 127 0"/>
<feOffset dx="4" dy="4"/>
<feColorMatrix type="matrix" values="0 0 0 0 0.578021 0 0 0 0 0.775 0 0 0 0 0.608662 0 0 0 1 0"/>
<feBlend mode="normal" in2="BackgroundImageFix" result="effect1_dropShadow"/>
<feBlend mode="normal" in="SourceGraphic" in2="effect1_dropShadow" result="shape"/>
</filter>
<filter id="filter4_d" x="400" y="7" width="25" height="25" filterUnits="userSpaceOnUse" color-interpolation-filters="sRGB">
<feFlood flood-opacity="0" result="BackgroundImageFix"/>
<feColorMatrix in="SourceAlpha" type="matrix" values="0 0 0 0 0 0 0 0 0 0 0 0 0 0 0 0 0 0 127 0"/>
<feOffset dx="4" dy="4"/>
<feColorMatrix type="matrix" values="0 0 0 0 0.513733 0 0 0 0 0.767915 0 0 0 0 0.970833 0 0 0 1 0"/>
<feBlend mode="normal" in2="BackgroundImageFix" result="effect1_dropShadow"/>
<feBlend mode="normal" in="SourceGraphic" in2="effect1_dropShadow" result="shape"/>
</filter>
<filter id="filter5_d" x="399" y="6" width="26" height="26" filterUnits="userSpaceOnUse" color-interpolation-filters="sRGB">
<feFlood flood-opacity="0" result="BackgroundImageFix"/>
<feColorMatrix in="SourceAlpha" type="matrix" values="0 0 0 0 0 0 0 0 0 0 0 0 0 0 0 0 0 0 127 0"/>
<feOffset dx="4" dy="4"/>
<feColorMatrix type="matrix" values="0 0 0 0 0.578021 0 0 0 0 0.775 0 0 0 0 0.608662 0 0 0 1 0"/>
<feBlend mode="normal" in2="BackgroundImageFix" result="effect1_dropShadow"/>
<feBlend mode="normal" in="SourceGraphic" in2="effect1_dropShadow" result="shape"/>
</filter>
<filter id="filter6_d" x="545" y="7" width="25" height="25" filterUnits="userSpaceOnUse" color-interpolation-filters="sRGB">
<feFlood flood-opacity="0" result="BackgroundImageFix"/>
<feColorMatrix in="SourceAlpha" type="matrix" values="0 0 0 0 0 0 0 0 0 0 0 0 0 0 0 0 0 0 127 0"/>
<feOffset dx="4" dy="4"/>
<feColorMatrix type="matrix" values="0 0 0 0 0.513733 0 0 0 0 0.767915 0 0 0 0 0.970833 0 0 0 1 0"/>
<feBlend mode="normal" in2="BackgroundImageFix" result="effect1_dropShadow"/>
<feBlend mode="normal" in="SourceGraphic" in2="effect1_dropShadow" result="shape"/>
</filter>
<filter id="filter7_d" x="544" y="6" width="26" height="26" filterUnits="userSpaceOnUse" color-interpolation-filters="sRGB">
<feFlood flood-opacity="0" result="BackgroundImageFix"/>
<feColorMatrix in="SourceAlpha" type="matrix" values="0 0 0 0 0 0 0 0 0 0 0 0 0 0 0 0 0 0 127 0"/>
<feOffset dx="4" dy="4"/>
<feColorMatrix type="matrix" values="0 0 0 0 0.578021 0 0 0 0 0.775 0 0 0 0 0.608662 0 0 0 1 0"/>
<feBlend mode="normal" in2="BackgroundImageFix" result="effect1_dropShadow"/>
<feBlend mode="normal" in="SourceGraphic" in2="effect1_dropShadow" result="shape"/>
</filter>
<filter id="filter8_d" x="112" y="12" width="15" height="15" filterUnits="userSpaceOnUse" color-interpolation-filters="sRGB">
<feFlood flood-opacity="0" result="BackgroundImageFix"/>
<feColorMatrix in="SourceAlpha" type="matrix" values="0 0 0 0 0 0 0 0 0 0 0 0 0 0 0 0 0 0 127 0"/>
<feOffset dx="4" dy="4"/>
<feColorMatrix type="matrix" values="0 0 0 0 0.513733 0 0 0 0 0.767915 0 0 0 0 0.970833 0 0 0 1 0"/>
<feBlend mode="normal" in2="BackgroundImageFix" result="effect1_dropShadow"/>
<feBlend mode="normal" in="SourceGraphic" in2="effect1_dropShadow" result="shape"/>
</filter>
<filter id="filter9_d" x="106.238" y="6.2381" width="26" height="26" filterUnits="userSpaceOnUse" color-interpolation-filters="sRGB">
<feFlood flood-opacity="0" result="BackgroundImageFix"/>
<feColorMatrix in="SourceAlpha" type="matrix" values="0 0 0 0 0 0 0 0 0 0 0 0 0 0 0 0 0 0 127 0"/>
<feOffset dx="4" dy="4"/>
<feColorMatrix type="matrix" values="0 0 0 0 0.952941 0 0 0 0 0.639216 0 0 0 0 0.619608 0 0 0 1 0"/>
<feBlend mode="normal" in2="BackgroundImageFix" result="effect1_dropShadow"/>
<feBlend mode="normal" in="SourceGraphic" in2="effect1_dropShadow" result="shape"/>
</filter>
</defs>
</svg>
