<svg version="1.1" xmlns="http://www.w3.org/2000/svg" viewBox="0 0 905.9265479409787 526.6397849462365" width="905.9265479409787" height="526.6397849462365">
  <!-- svg-source:excalidraw -->
  
  <defs>
    <style>
      @font-face {
        font-family: "Virgil";
        src: url("https://excalidraw.com/Virgil.woff2");
      }
      @font-face {
        font-family: "Cascadia";
        src: url("https://excalidraw.com/Cascadia.woff2");
      }
    </style>
  </defs>
  <rect x="0" y="0" width="905.9265479409787" height="526.6397849462365" fill="#ffffff"></rect><g transform="translate(20.926547940978764 212) rotate(0 15.5 10)"><path d="M10.581376594590022 0.0031660778679363233 C13.541903154485352 -0.8212704895674922, 17.082909976140726 -0.9951492526731123, 20.19993077939598 -0.04680047568683143 C23.316951582651235 0.9015483012994494, 27.646315244373568 3.7991189507924883, 29.28350141412154 5.693258739785621 C30.920687583869515 7.587398528778754, 30.748139416235958 9.29212984751982, 30.02304779788382 11.318038258271965 C29.29795617953168 13.34394666902411, 27.44646278586397 16.39833751533963, 24.93295170400871 17.848709204298487 C22.419440622153445 19.299080893257344, 18.11073331518216 20.179860684115464, 14.941981306752247 20.020268392025113 C11.773229298322336 19.86067609993476, 8.379696694936126 18.283166439673273, 5.920439653429243 16.891155451756376 C3.461182611922361 15.499144463839478, 0.8378588137674692 13.732205835570642, 0.18643905771095426 11.668202464523727 C-0.46498069834556066 9.604199093476812, 0.26357954323873956 6.383303147591622, 2.0119211170901536 4.507135225474884 C3.760262690941568 2.6309673033581458, 9.267797325596975 1.2248041913751306, 10.676488500819438 0.4111949318232977 C12.085179676041902 -0.40241432772853536, 10.415896390444917 -0.5388356738992686, 10.464068168424934 -0.37452033183611455 M7.647211586015149 -0.2819674375514545 C10.279735852769123 -1.5443054979960273, 15.328068756238912 -0.81658158927084, 18.892917314808273 0.087740098399685 C22.45776587337763 0.99206178607021, 26.824801526939485 3.2386588556473974, 29.036302937431316 5.143962688471696 C31.247804347923147 7.049266521295994, 32.54839467902819 9.6989208987105, 32.16192577775925 11.519563095345474 C31.775456876490306 13.340205291980448, 29.055861649421303 14.682483029632142, 26.717489529817648 16.067815868281542 C24.379117410213993 17.453148706930943, 21.276673566222943 19.685341210852872, 18.131693060137312 19.83156012724188 C14.98671255405168 19.977779043630886, 11.001347598193938 18.11243906032657, 7.847606493303857 16.945129366615575 C4.693865388413776 15.77781967290458, 0.48791034234439734 14.758845490424175, -0.7907535692031704 12.827701964975907 C-2.0694174807507384 10.896558439527638, -1.4423791473943668 7.29639810344193, 0.1756230240184511 5.358268213925969 C1.793625195431269 3.4201383244100088, 7.524119958292815 2.132914623522274, 8.917259459273737 1.1989226278801421 C10.310398960254659 0.2649306322380104, 8.35790366179207 -0.5203361564062117, 8.534460029903986 -0.24568375992682157" stroke="#000000" stroke-width="1" fill="none"></path></g><g><g transform="translate(37.926547940978764 232) rotate(0 -1.6284156091511193 6.814305449579848)"><path d="M0.46202646419405946 -0.7205468885600567 C0.03842824622988711 1.603207096209129, -3.2141231425106525 10.628454534957807, -3.718857682496309 13.220808220654726 M-0.754548371443525 1.5155620496068152 C-0.6860569426510483 4.038654624580716, -0.9926566612813621 12.446969954033072, -1.384303429434076 14.349157787719742" stroke="#000000" stroke-width="1" fill="none"></path></g></g><g><g transform="translate(32.926547940978764 246) rotate(0 -6.438667385266143 9.336645817072124)"><path d="M0.8335752256214619 -0.8902840264141559 C-1.1199326507747172 2.097681120286385, -10.399168752878904 15.158463115741808, -12.500239037722348 18.361410104483365 M-0.18793651026673608 1.2567129143793134 C-2.27505731058307 4.355227511298532, -11.672351217092945 16.557733039728674, -13.710909996153786 19.563575660558417" stroke="#000000" stroke-width="1" fill="none"></path></g></g><g><g transform="translate(36.926547940978764 246) rotate(0 8.590044342200258 10.242602378581637)"><path d="M0.4580944173038006 -0.9243823282420636 C3.5603003375232225 2.390925916781028, 15.029671251028777 16.527625076721115, 17.940633427351713 19.91617169454694 M-0.7605447429511696 1.2047130040917544 C2.2372979965712867 4.714925825952863, 13.981629788866265 18.20820503022211, 16.961420513084157 21.409587085405363" stroke="#000000" stroke-width="1" fill="none"></path></g></g><g><g transform="translate(15.926547940978764 237) rotate(0 22.779874639650814 0.30873058409429177)"><path d="M-0.056632149964571 -0.09051093980669966 C7.447127369294564 0.15190988456209512, 37.317478151371084 0.521178166816632, 44.946424590796234 0.8614223249256612 M-1.5455027580354364 -1.1836331285443158 C6.3247092200225845 -0.7845736231810103, 39.38053531188829 1.0633734926177807, 47.10525203733705 1.8010942967329173" stroke="#000000" stroke-width="1" fill="none"></path></g></g><g><g transform="translate(89.92654794097876 253) rotate(0 53.11175791039136 -0.4207821312500073)"><path d="M1.0306146495044233 -0.8002537719905376 C18.53881651088595 -1.221536357452472, 86.64852174445987 -2.173539844403664, 103.95017224475741 -2.2355733148753645 M0.11254861115477977 1.3940090523753317 C18.077035160949453 1.130920857746775, 88.79787679134868 -0.07607147449317075, 106.11096720962786 -0.8218240539636463" stroke="#c92a2a" stroke-width="1" fill="none"></path></g><g transform="translate(89.92654794097876 253) rotate(0 53.11175791039136 -0.4207821312500073)"><path d="M76.88383973332594 8.472006096852954 C83.61144293095113 7.4147315179783835, 91.19666043410862 6.786001831107799, 107.7047429998126 0.3293439534399658 M78.14477053786169 10.862871841875847 C85.77893531555705 5.776030161513645, 95.12325641098714 2.6263437478720206, 105.70277553803288 -0.6420036151167006" stroke="#c92a2a" stroke-width="1" fill="none"></path></g><g transform="translate(89.92654794097876 253) rotate(0 53.11175791039136 -0.4207821312500073)"><path d="M76.31099626685543 -12.04120556657902 C83.20792410283521 -8.828171325723947, 90.91252987370537 -5.181672352294743, 107.7047429998126 0.3293439534399658 M77.57192707139117 -9.650339821556127 C85.26274180910387 -8.555158873316959, 94.77980056887542 -5.519203871311378, 105.70277553803288 -0.6420036151167006" stroke="#c92a2a" stroke-width="1" fill="none"></path></g></g><g transform="translate(205.92654794097876 208) rotate(0 42 40.5)"><path d="M30.914853376133628 0.6982922597451307 C37.84297072039652 -1.8768398608950494, 47.29247899621525 -0.39381426925796825, 54.68074076759983 2.209677993679904 C62.06900253898441 4.813170256617775, 70.32860675931745 10.013977775196665, 75.24442400444107 16.319245837372364 C80.16024124956469 22.624513899548063, 83.96332906352279 32.36646410294191, 84.17564423834156 40.0412863667341 C84.38795941316033 47.716108630526286, 81.02020332303138 55.86860485106759, 76.5183150533537 62.368179420125486 C72.01642678367602 68.86775398918338, 64.71816467541362 76.2110700740983, 57.16431462027552 79.03873378108148 C49.61046456513742 81.86639748806465, 38.96498474146952 81.5457900627127, 31.1952147225251 79.33416166202457 C23.42544470358068 77.12253326133644, 15.752569791627902 71.66687514103117, 10.545694506608996 65.76896337695271 C5.33881922159009 59.871051612874254, 0.8075241403967084 51.488305567676775, -0.04603698758833019 43.94669107755384 C-0.8995981155733688 36.4050765874309, 1.3765847309380748 27.197113894467954, 5.424327738698764 20.5192764362151 C9.472070746459455 13.841438977962248, 19.146835851905728 7.235780436381949, 24.24042105897581 3.879666328036727 C29.33400626604589 0.523552219691505, 32.97650228719581 1.016536980520892, 35.985838981119244 0.3825917861437702 C38.99517567504268 -0.2513534082333516, 42.19685783433066 -0.4895837182581957, 42.29644122251645 0.07599516177399579 M29.94732087711519 1.2958895073727632 C36.93815991660671 -1.6252466610255856, 46.06492004447169 -1.0540969835414153, 53.85015804744056 1.2198279737292381 C61.635396050409426 3.4937529309998916, 71.87325242034241 8.452845497412856, 76.65874889492838 14.939439250996685 C81.44424536951435 21.426033004580514, 82.20000795116133 32.270156655137534, 82.56313689495636 40.13939049523221 C82.92626583875139 48.00862433532689, 83.00975485107395 56.01334124128029, 78.83752255769855 62.15484229156477 C74.66529026432315 68.29634334184925, 65.14924552055444 73.77846663482306, 57.529743134703985 76.9883967969391 C49.91024074885353 80.19832695905514, 41.13044002111082 82.90779593921359, 33.12050824259583 81.41442326426096 C25.110576464080843 79.92105058930834, 14.991121691750916 74.01697799197248, 9.470152463614056 68.02816074722335 C3.9491832354771965 62.03934350247422, 0.5240816396196356 53.35150161961013, -0.005307126225325476 45.481519795766154 C-0.5346958920702866 37.611537971922175, 2.5781410692242717 27.64893570397743, 6.29381986854429 20.80826980415947 C10.009498667864309 13.967603904341509, 18.303963373165452 7.655796133294826, 22.288765669694783 4.437524396858393 C26.273567966224114 1.2192526604219598, 28.968154086888372 1.9979999500635184, 30.202633647720265 1.4986393855408693 C31.43711320855216 0.9992788210182202, 29.471763624103662 0.48616328716998325, 29.69564303468615 1.441361009722499" stroke="#000000" stroke-width="1" fill="none"></path></g><g transform="translate(277.92654794097876 262) rotate(0 22.5 19.5)"><path d="M0.22480716183781624 -0.33349092677235603 C8.14427962061018 0.7775097985751926, 21.39568033255637 -0.5218613247387112, 44.2825751490891 1.1850216798484325 M-0.20284912921488285 0.2696836683899164 C9.308749767951667 0.20538430130109192, 18.33111183345318 0.11008905088528992, 44.517293175682425 -0.7411166336387396 M45.17476703599095 0.17959431931376457 C45.96686151286587 9.076597930677236, 44.033446457590905 19.17847748808563, 46.89734901860356 37.934477012604475 M44.89798708818853 -0.26526605151593685 C44.71817494975403 8.379710588790477, 46.32810242520645 15.261635242402555, 45.27983250282705 38.79474396444857 M43.803426403552294 39.19592587277293 C32.65121908579022 38.2108190680854, 17.743293536826965 37.10707324994728, 1.6020772643387318 40.871626894921064 M45.318866869434714 39.02265448309481 C28.12540281657129 38.432595731411126, 11.22675954923033 39.554612340126184, -0.05121986009180546 38.566133508458734 M1.6030948348343372 37.990772288292646 C-0.14070373287424442 25.446814748458564, 0.883210008237511 7.847723389044404, 1.2523507066071033 0.2209586314857006 M-0.8240598831325769 38.80538130737841 C-0.07282655658200382 22.90771567504853, 1.1485854464583098 8.29301856383681, 0.17739536426961422 -0.9483713414520025" stroke="#000000" stroke-width="1" fill="none"></path></g><g><g transform="translate(323.92654794097876 282) rotate(0 8.590842708079151 -0.1855427513411314)"><path d="M-0.11957178041338912 0.15058766528964052 C2.657196578135093 -0.06397684092322975, 13.660470597694317 -0.6237786975999673, 16.417191196233034 -0.9637666352093219 M-1.6414856944698841 -0.8159577557723969 C1.557564763504391 -0.8513008795461307, 15.991098792531218 0.6298142743824671, 18.823171110628174 0.5926811325270682" stroke="#000000" stroke-width="1" fill="none"></path></g></g><g transform="translate(292.92654794097876 275) rotate(0 9.5 9)"><path d="M0 0 C0 0, 0 0, 0 0 M0 0 C0 0, 0 0, 0 0 M-0.014108841833646024 6.932234135319583 C1.7689281593433732 3.798211605191964, 2.983245668700735 1.4244080861170199, 5.51751086819405 -0.09352696576740205 M-0.3043610974820206 6.565601732631318 C1.3375362830177482 4.268534478175585, 2.9209452572752257 2.2192683850089994, 4.598583461674399 -0.038367075860757216 M1.3702921548019753 11.952783039629042 C3.631455810807089 10.213520586257909, 4.264047858151352 6.295432708277213, 11.75952339614643 0.4524662817910077 M-0.21020830337892904 12.415166189193307 C1.975756424353181 8.447050197822982, 4.537287104709122 7.016061192648999, 10.737347990226876 -0.17655286089631306 M0.9355295607307692 19.107742915768796 C3.4230481865187414 13.678272877504908, 11.075199303547649 7.114336451546315, 17.193174387797196 -1.2411613048124144 M-0.9717449220409851 19.06118504041868 C4.105728439079867 14.006245158630986, 7.497895955374622 9.825962112618406, 15.686322776138265 -0.4753076930600235 M6.130790129061244 18.289893254289137 C10.426175307851233 11.668978758154122, 15.447368304361053 5.8574732040123205, 21.075847690382982 0.8012802339483951 M5.179365591834686 18.076056791120873 C8.943649888457118 14.292939421712049, 13.379008331145577 8.049193021131394, 19.08411306833663 1.7793394345183824 M11.987121663143782 17.40872939174011 C14.246786480747751 15.677365807180076, 16.590684555371407 11.578675916111003, 20.217181171935948 6.909808583305529 M10.060956828849314 18.506013163467344 C13.890236052358757 14.502002191183603, 17.64381630982648 10.181510354486228, 20.25004301703811 7.6839335097273205 M15.66234175273064 17.516930297328614 C17.671772779170563 16.76386227418271, 18.556987033394986 14.988577396837309, 20.392774598605907 13.560245656205758 M15.981961414859029 18.07764089678832 C17.63947498743454 16.43491814593774, 18.447370564991253 15.077998236624111, 20.234280651181912 13.498909552565262" stroke="#fa5252" stroke-width="0.5" fill="none"></path><path d="M1.6341807899996637 -0.6590859262272715 C5.0949368387460705 0.1698070787079634, 13.924277901835739 -0.6177500523440539, 19.49064137917012 -1.649986079148948 M0.6399146006442606 -0.8823123008944094 C7.524896927084774 -0.10215349085628983, 14.020772598404438 -0.2656687695533037, 18.130807812605052 0.9239222585223614 M17.660762648656963 -1.126186679676175 C20.364689382873475 4.399499311298132, 18.53411938842386 11.863101485744119, 19.53373772390187 16.853670467063786 M18.155188507400453 -0.8955592727288604 C18.278232382014394 6.351958812586964, 18.624865893796088 12.42532166261226, 19.704250419698656 18.072009273804724 M17.357798284105957 19.08097207862884 C14.766156300529836 17.670602913405745, 7.86335079614073 19.24419499805197, 1.6009711382910607 17.877816447801887 M18.536699698958547 18.93116842797026 C13.753434707503766 17.756231824047862, 8.483534984756261 17.88602194238454, -0.8621590956114232 18.318295740988106 M-0.30717632286250596 18.691719103977086 C-0.17712982814759004 14.918475615978242, -0.3135599605366587 9.903045772388577, -0.2775629114359617 0.9607020746916535 M0.08099511321634056 18.115110065974296 C-0.14058681204915052 14.02967104073614, -0.1819595105946064 8.878292112238706, 0.6101790195330977 0.5514518821612001" stroke="#c92a2a" stroke-width="1" fill="none"></path></g><g transform="translate(342.42654794097876 262.5) rotate(0 22.5 19.5)"><path d="M-1.4880415014922619 -1.251318532973528 C14.872605464421214 -1.382991776894778, 26.10814943350852 1.0123392482288183, 45.59304191544652 -1.2736994810402393 M-0.9386794362217188 -0.9950658585876226 C15.493729206733406 -0.620791293028742, 32.19666664302349 -1.124961055163294, 45.78250046633184 0.08001030422747135 M43.271366614848375 1.1378653459250927 C46.5282483269833 12.211712791211905, 45.61692799827084 26.25996743254364, 46.685232777148485 38.8713857345283 M44.51231547258794 0.9801772926002741 C44.76026462184265 10.83440934214741, 44.873793171513825 22.00957378000021, 44.09246410988271 39.33504814840853 M44.658692974597216 39.76857678219676 C35.478580192662776 39.46672622216865, 25.83571792952716 38.11237005246803, -0.30840323492884636 40.06744674965739 M45.08999457024038 39.12790007330477 C34.239819892682135 38.87438335577026, 23.56923162564635 37.87268170276657, 0.6779766883701086 39.612724313512444 M-1.958752851933241 40.041084330528975 C-1.4904160474799573 25.876301023177803, 1.875904920194298 10.675915146246552, -0.6572753004729748 0.6639708690345287 M0.9730077590793371 39.05753851868212 C-0.37660980166867375 30.98324687164277, -0.62425297440961 22.150908120721578, -0.7452025208622217 0.3291154596954584" stroke="#000000" stroke-width="1" fill="none"></path></g><g transform="translate(353.92654794097876 269) rotate(0 11 13)"><text x="11" y="18" font-family="Virgil, Segoe UI Emoji" font-size="20px" fill="#5f3dc4" text-anchor="middle" style="white-space: pre;" direction="ltr">tx</text></g><g transform="translate(105.92654794097876 215) rotate(0 41.5 13)"><text x="0" y="18" font-family="Virgil, Segoe UI Emoji" font-size="20px" fill="#c92a2a" text-anchor="start" style="white-space: pre;" direction="ltr">originate</text></g><g transform="translate(219.42654794097876 223) rotate(0 28.5 25.5)"><text x="28.5" y="17.5" font-family="Virgil, Segoe UI Emoji" font-size="20px" fill="#000000" text-anchor="middle" style="white-space: pre;" direction="ltr">Tezos</text><text x="28.5" y="43" font-family="Virgil, Segoe UI Emoji" font-size="20px" fill="#000000" text-anchor="middle" style="white-space: pre;" direction="ltr">node</text></g><g><g transform="translate(205.92654794097876 253) rotate(0 48.880283833295096 4.5667721955955045)"><path d="M-0.2178374044597149 -0.8293506748974323 C12.778203567614158 -2.2689210303127765, 61.44753161345919 -11.401486711452405, 77.81357202604413 -8.264730823785067 C94.17961243862906 -5.127974936117729, 94.8682848143081 13.642938132335743, 97.97840507104993 17.991184651106597" stroke="#c92a2a" stroke-width="1.5" fill="none" stroke-dasharray="12 8"></path></g><g transform="translate(205.92654794097876 253) rotate(0 48.880283833295096 4.5667721955955045)"><path d="M77.06049755325486 -3.420341615187148 C85.33477627237056 3.4114479437876666, 88.02383734958407 7.426199947802733, 96.0196522191167 19.03226898163557" stroke="#c92a2a" stroke-width="1.5" fill="none"></path></g><g transform="translate(205.92654794097876 253) rotate(0 48.880283833295096 4.5667721955955045)"><path d="M96.26562674204027 -10.651041113016 C99.06117115063681 -1.782925451335844, 96.24904109350855 4.303015951174549, 96.0196522191167 19.03226898163557" stroke="#c92a2a" stroke-width="1.5" fill="none"></path></g></g><g transform="translate(15.926547940978764 294) rotate(0 15.5 10)"><path d="M9.898605247501216 0.30198425407160023 C12.87933834497346 -0.5740462240575237, 17.00848647252626 0.20017024845786968, 20.129611873447608 0.9542842157921161 C23.250737274368955 1.7083981831263624, 26.715125683143402 3.0048936017162653, 28.625357653029297 4.826668058077079 C30.535589622915193 6.6484425144378925, 32.10596994435146 9.766713564114632, 31.591003692762975 11.884930953956996 C31.07603744117449 14.00314834379936, 27.949380111931855 16.221072545235366, 25.53556014349838 17.53597239713126 C23.121740175064904 18.850872249027155, 20.471062500739812 19.662901645849065, 17.108083882162127 19.77433006533237 C13.74510526358444 19.88575848481568, 8.057396091230716 19.44780688765531, 5.357688432032262 18.20454291403111 C2.6579807728338083 16.961278940406906, 1.626372721470235 14.560960340331901, 0.9098379269714076 12.31474622358716 C0.19330313247258013 10.06853210684242, -0.5256145306130089 6.533870293288902, 1.0584796650392967 4.7272582135626635 C2.642573860691602 2.920646133836425, 8.88854298402303 2.056587343748058, 10.414403100885242 1.4750737452297322 C11.940263217747454 0.8935601467114065, 10.312633717265642 1.1182751537817435, 10.213640366212573 1.238176622452709 M15.917754015237321 -0.26403129695428085 C19.05305273460519 -0.46419293709973974, 23.491928267890238 0.18994904693278247, 25.75501561006566 1.6944251910457728 C28.01810295224108 3.198901335158763, 29.150301709951467 6.536882261404758, 29.49627806828984 8.762825567723661 C29.842254426628212 10.988768874042565, 29.46449988370497 13.128817981396821, 27.8308737600959 15.050085028959192 C26.197247636486832 16.971352076521562, 23.14414324942539 19.757684980422486, 19.69452132663543 20.290427853097885 C16.244899403845473 20.823170725773284, 10.099945838656112 19.21155315166502, 7.1331422233561605 18.246542265011584 C4.1663386080562095 17.28153137835815, 2.8075567265392793 16.333646186398905, 1.8936996348357251 14.500362533177286 C0.979842543132171 12.667078879955666, 0.9752496162458092 9.634804116546258, 1.649999673134836 7.246840345681865 C2.324749730023863 4.858876574817472, 3.1213967219987615 1.3921510255190228, 5.942199976169887 0.1725799079909276 C8.763003230341011 -1.0469912095371676, 16.560505129994933 0.12040733667716985, 18.574819198161588 -0.07058635948670577 C20.589133266328243 -0.2615800556505814, 18.300335929182573 -1.230236242972462, 18.02808438516982 -0.9733822689923262" stroke="#000000" stroke-width="1" fill="none"></path></g><g><g transform="translate(32.926547940978764 314) rotate(0 -1.7499731518188355 6.692108844965674)"><path d="M-1.1249687187373638 -0.9650221712887287 C-1.8787352316081525 1.4049683762093386, -3.7656152240931986 11.95418446386854, -3.985230278223753 14.349239861220122 M0.4852839745860549 1.1427372434455902 C0.050268753645941855 3.126340576581036, -1.223682085694745 10.198708095621937, -1.7905216379184274 12.410016039581969" stroke="#000000" stroke-width="1" fill="none"></path></g></g><g><g transform="translate(27.926547940978764 328) rotate(0 -5.843126107910649 9.286055339127785)"><path d="M-0.9650221712887287 -0.985230278223753 C-2.928364957123995 2.4618213343123596, -9.712482202798128 16.204922064890464, -11.650760138779878 19.55734095647931 M0.7292024594452231 1.1119198803696784 C-1.3729165777657184 4.300541337688143, -10.015154228219762 14.493582937180374, -12.415454675266519 17.727370209852232" stroke="#000000" stroke-width="1" fill="none"></path></g></g><g><g transform="translate(31.926547940978764 328) rotate(0 8.786055339127785 10.05875508439729)"><path d="M-0.985230278223753 0.3492398612201213 C2.295154667645693 3.7442952585717046, 15.371588731557132 16.02632766092817, 18.55734095647931 19.40531021282077 M0.6983850963693112 -0.5130131569784135 C3.9679508500080556 3.1188140721836435, 15.113053946672009 17.443726471137875, 17.901899495003747 20.630523325772955" stroke="#000000" stroke-width="1" fill="none"></path></g></g><g><g transform="translate(10.926547940978764 319) rotate(0 23.43925233497285 1.769461474129912)"><path d="M0.3492398612201213 0.557340956479311 C8.077628591905038 1.0764265147348246, 37.69299432759483 1.8625206636885805, 45.405310212820766 2.1292830713093283 M-0.9265479409787805 -0.1956589867081493 C7.286223584503556 0.6253142378324023, 39.95319748062951 3.108920800347502, 47.80505261092447 3.7345819349680096" stroke="#000000" stroke-width="1" fill="none"></path></g></g><g><g transform="translate(101.93505765611741 313) rotate(0 51.11437373210461 -20.324860976991886)"><path d="M0.7705105550587177 0.5150032393634318 C17.851116009017034 -5.956632346848236, 85.46057627032303 -32.41037327815884, 102.51285759708408 -39.31595280357949 M-0.28411013287492093 -0.2602240053098648 C16.681536495673985 -7.049320929266722, 84.64248294366315 -34.513344476894595, 101.8385299723738 -41.16472519334718" stroke="#5f3dc4" stroke-width="1" fill="none"></path></g><g transform="translate(101.93505765611741 313) rotate(0 51.11437373210461 -20.324860976991886)"><path d="M80.27527730251445 -20.364090356817847 C87.1479819865608 -25.58387131903506, 91.25819657195515 -33.106054178756885, 100.67974655517872 -40.79905661713644 M79.25320439311459 -20.845499997800594 C85.94405637721451 -25.98817928389889, 90.6076826002701 -32.61959486461333, 101.37720738725301 -41.66723155934676" stroke="#5f3dc4" stroke-width="1" fill="none"></path></g><g transform="translate(101.93505765611741 313) rotate(0 51.11437373210461 -20.324860976991886)"><path d="M72.70909027261091 -39.43954097310366 C81.79280008752067 -38.93881217283145, 88.19129752001706 -40.69190337866309, 100.67974655517872 -40.79905661713644 M71.68701736321104 -39.92095061408641 C80.37234819553026 -40.16848733136198, 86.99858366284015 -41.851881462186924, 101.37720738725301 -41.66723155934676" stroke="#5f3dc4" stroke-width="1" fill="none"></path></g></g><g><g transform="translate(204.92654794097876 272) rotate(0 74.75704961940647 23.961632773143066)"><path d="M-0.5739074595272541 0.11302115991711625 C3.399795042723417 -0.3601593645910421, 14.941508892426887 -7.590920328348875, 24.444410359114407 -3.067555188387632 C33.947311825801926 1.4558099515736105, 46.418163604786 18.00869995827476, 56.44350134059787 27.253211999684574 C66.46883907640974 36.497724041094386, 68.98901921436192 54.44649646356702, 84.59643677398563 52.39951706007123 C100.20385433360934 50.35253765657544, 139.16412617688377 21.16801769013206, 150.08800669834017 14.97133557870984" stroke="#5f3dc4" stroke-width="1.5" fill="none" stroke-dasharray="12 8"></path></g><g transform="translate(204.92654794097876 272) rotate(0 74.75704961940647 23.961632773143066)"><path d="M132.25438379714618 39.69551013090582 C139.97674692583928 31.38157700667175, 145.15568630632353 21.571193340961578, 150.75386846512555 16.78468007594347" stroke="#5f3dc4" stroke-width="1.5" fill="none"></path></g><g transform="translate(204.92654794097876 272) rotate(0 74.75704961940647 23.961632773143066)"><path d="M121.05443824709374 22.500126388118915 C132.66609242736922 20.261287827190763, 141.7670617296468 16.472434288974217, 150.75386846512555 16.78468007594347" stroke="#5f3dc4" stroke-width="1.5" fill="none"></path></g></g><g transform="translate(75.92654794097876 325) rotate(0 50 13)"><text x="0" y="18" font-family="Virgil, Segoe UI Emoji" font-size="20px" fill="#5f3dc4" text-anchor="start" style="white-space: pre;" direction="ltr">Invocation</text></g><g transform="translate(281.92654794097876 407) rotate(0 28.5 22)"><path d="M28.88148919865489 -0.6348917298018932 C40.170172287467864 8.10073076415807, 48.31084921726957 15.527874764651061, 58.678901951760054 21.276113409548998 M57.8731695599854 23.767830055207014 C50.74745161788538 27.829310944415628, 44.35660163642839 34.145847932547326, 27.155188340693712 45.09639362618327 M30.103406231850386 42.52221764996648 C22.291242874395103 35.523744886498896, 12.995034793559462 32.59245456824079, 0.3080875091254711 22.692152995616198 M1.5011766143143177 22.296349566429853 C6.481126202549785 14.726787543725223, 15.218507827538996 8.189727438483388, 29.20704259350896 -1.8469687290489674" stroke="#000000" stroke-width="1.5" fill="none" stroke-dasharray="12 8"></path></g><g transform="translate(304.42654794097876 416) rotate(0 7.5 13)"><text x="7.5" y="18" font-family="Virgil, Segoe UI Emoji" font-size="20px" fill="#000000" text-anchor="middle" style="white-space: pre;" direction="ltr">0</text></g><g><g transform="translate(304.92654794097876 296) rotate(0 1.9939904339611871 54.71223773881795)"><path d="M0.02572834566235538 1.1329734675586225 C0.8195028789341449 19.290135696778695, 3.4509525068104265 90.26178957944116, 3.9622525222599503 108.29150201007724" stroke="#000000" stroke-width="1.5" fill="none" stroke-dasharray="12 8"></path></g></g><g transform="translate(96.92654794097876 345) rotate(0 61.5 13)"><text x="0" y="18" font-family="Virgil, Segoe UI Emoji" font-size="20px" fill="#000000" text-anchor="start" style="white-space: pre;" direction="ltr">Increment(5)</text></g><g transform="translate(344.42654794097876 403.5) rotate(0 28.5 22)"><path d="M27.926210779696703 -0.8794532604515553 C35.045379821714015 5.322847838513553, 39.67314872941002 9.830670226365328, 55.17950488999486 21.88054494187236 M58.86325029656291 23.95506538823247 C52.407698394786564 28.369188581965865, 44.35680534807965 32.67090182378888, 29.657325189560652 45.74422528222203 M27.742839355021715 43.59850625321269 C20.435147206354884 38.16550513239577, 13.839708451982585 31.07252921065316, 1.8045021481812 24.123194854706526 M1.3999141864478588 22.257694024592638 C11.468788275811823 14.809688143599777, 24.32898582307622 4.856888730432836, 30.514465611428022 0.7695292420685291" stroke="#000000" stroke-width="1.5" fill="none" stroke-dasharray="12 8"></path></g><g transform="translate(368.42654794097876 412.5) rotate(0 7 13)"><text x="7" y="18" font-family="Virgil, Segoe UI Emoji" font-size="20px" fill="#000000" text-anchor="middle" style="white-space: pre;" direction="ltr">5</text></g><g><g transform="translate(371.42654794097876 300.5) rotate(0 1.2268064863979475 53.97590491697193)"><path d="M-0.5276719562709331 -0.05300115421414375 C0.1568931348621846 18.05517959917585, 2.4548047073185444 90.01136030678947, 2.9812849290668963 108.00481098815798" stroke="#000000" stroke-width="1.5" fill="none" stroke-dasharray="12 8"></path></g></g><g transform="translate(426.92654794097876 486) rotate(0 69.5 15.319892473118273)"><text x="0" y="10.31989247311829" font-family="Virgil, Segoe UI Emoji" font-size="11.956989247311832px" fill="#000000" text-anchor="start" style="white-space: pre;" direction="ltr">Initial value</text><text x="0" y="25.63978494623658" font-family="Virgil, Segoe UI Emoji" font-size="11.956989247311832px" fill="#000000" text-anchor="start" style="white-space: pre;" direction="ltr">specified at deployment</text></g><g transform="translate(461.42654794097876 407.5) rotate(0 69.5 15.237967914438514)"><text x="0" y="10.23796791443851" font-family="Virgil, Segoe UI Emoji" font-size="11.893048128342246px" fill="#000000" text-anchor="start" style="white-space: pre;" direction="ltr">Updated value </text><text x="0" y="25.47593582887702" font-family="Virgil, Segoe UI Emoji" font-size="11.893048128342246px" fill="#000000" text-anchor="start" style="white-space: pre;" direction="ltr">(caused by increment 5)</text></g><g transform="translate(377.92654794097876 51) rotate(0 78.5 82.5)"><text x="0" y="14.625" font-family="Virgil, Segoe UI Emoji" font-size="16px" fill="#000000" text-anchor="start" style="white-space: pre;" direction="ltr">Entrypoints: </text><text x="0" y="35.25" font-family="Virgil, Segoe UI Emoji" font-size="16px" fill="#000000" text-anchor="start" style="white-space: pre;" direction="ltr">- Increment</text><text x="0" y="55.875" font-family="Virgil, Segoe UI Emoji" font-size="16px" fill="#000000" text-anchor="start" style="white-space: pre;" direction="ltr">- Decrement</text><text x="0" y="76.5" font-family="Virgil, Segoe UI Emoji" font-size="16px" fill="#000000" text-anchor="start" style="white-space: pre;" direction="ltr">Storage: </text><text x="0" y="97.125" font-family="Virgil, Segoe UI Emoji" font-size="16px" fill="#000000" text-anchor="start" style="white-space: pre;" direction="ltr">- integer</text><text x="0" y="117.75" font-family="Virgil, Segoe UI Emoji" font-size="16px" fill="#000000" text-anchor="start" style="white-space: pre;" direction="ltr">Code:</text><text x="0" y="138.375" font-family="Virgil, Segoe UI Emoji" font-size="16px" fill="#000000" text-anchor="start" style="white-space: pre;" direction="ltr">- Increment =&gt; add</text><text x="0" y="159" font-family="Virgil, Segoe UI Emoji" font-size="16px" fill="#000000" text-anchor="start" style="white-space: pre;" direction="ltr">- Decrement =&gt; sub</text></g><g transform="translate(362.92654794097876 42) rotate(0 87.5 95)"><path d="M0.31528152897953987 -1.0453146286308765 C58.33851008582861 0.8561124256812036, 112.1206688489765 -1.474226410035044, 173.89283253625035 -0.08064265921711922 M176.924660962075 1.309300322085619 C175.53667512182147 49.92247070558369, 175.87597968820484 98.82606543600559, 175.98810688778758 190.90758039429784 M174.32378174737096 188.26872734352946 C108.37198443990201 190.80955389374867, 38.836465971544385 190.40265026921406, -1.0771637968719006 190.22636119648814 M1.8367139510810375 190.0191326327622 C-2.1483726242557166 147.10521920584142, -3.666516635753214 100.30314125865698, -1.0745296068489552 -0.618652205914259" stroke="#c92a2a" stroke-width="1.5" fill="none" stroke-dasharray="12 8"></path></g><g transform="translate(353.92654794097876 19) rotate(0 95 10.5)"><text x="0" y="14" font-family="Virgil, Segoe UI Emoji" font-size="16px" fill="#c92a2a" text-anchor="start" style="white-space: pre;" direction="ltr">Counter smart contract</text></g><g><g transform="translate(366.25225177721114 224.8498787753284) rotate(0 -26.45081806145606 26.061355453357095)"><path d="M-0.6742961637675762 -0.15012122467160216 C-9.290973205740245 8.5990523789078, -43.78180168059961 43.68440910764039, -52.227339959144544 52.27283213138581" stroke="#c92a2a" stroke-width="1.5" fill="none" stroke-dasharray="12 8"></path></g></g><g transform="translate(179.92654794097876 77.5) rotate(0 24 23.14285714285714)"><path d="M23.170712366774374 -0.8203601320871954 C28.032638293662032 -0.8776496320914587, 35.5486712223436 2.7478721856375485, 39.46409837142457 5.996062324713726 C43.37952552050554 9.244252463789904, 45.92623298803173 13.94313899948974, 46.66327526126021 18.668780702369872 C47.40031753448869 23.394422405250005, 46.422405479592626 30.06469896123512, 43.88635201079548 34.34991254199451 C41.35029854199833 38.6351261227539, 36.170454156832506 42.540112442967725, 31.446954448477328 44.380062186926224 C26.723454740122154 46.22001193088472, 20.314953781325485 46.916923509704304, 15.545353760664431 45.389611005745486 C10.775753740003376 43.86229850178667, 5.401504820703099 39.68197444751501, 2.8293543245109944 35.216187163173295 C0.25720382831889 30.75039987883158, -0.9045047235252046 23.694255724263027, 0.11245078351180382 18.594887299695202 C1.1294062905488123 13.495518875127377, 4.4537455660681475 7.857547188668409, 8.931087366733045 4.619976615766344 C13.408429167397944 1.3824060428642788, 23.567143352188303 -0.14220530065029047, 26.976501587501193 -0.8305361377171891 C30.385859822814083 -1.5188669747840877, 29.526605305460627 -0.02987421102654564, 29.387236778610387 0.4899915933649517 M19.589809287154335 0.6665830489270732 C24.12417939826997 -0.6833228687700823, 29.632622304363892 0.35297805330275045, 34.19509087415836 2.358040608162927 C38.75755944395283 4.363103163023103, 44.60840981618682 8.033677048488663, 46.96462070592115 12.696958378088134 C49.32083159565548 17.360239707687604, 49.813726562932565 25.198387091666266, 48.332356212564335 30.337728585759745 C46.850985862196104 35.47707007985322, 42.45659351361492 40.66212566164655, 38.07639860371175 43.533007342649 C33.696203693808584 46.40388902365145, 27.302937743396768 48.0718875753738, 22.05118675314533 47.56301867177446 C16.799435762893893 47.054149768175115, 10.17169661007592 44.095686329643236, 6.565892662203133 40.47979392105296 C2.9600887143303463 36.86390151246268, 0.6426830979751266 30.906039725979525, 0.41636306590860883 25.867664220232786 C0.1900430338420911 20.829288714486047, 2.032260945136453 14.249138145384011, 5.207972469804027 10.249540886572527 C8.3836839944716 6.249943627761043, 16.999188838466278 3.2576978725841172, 19.47063221391405 1.8700806673638866 C21.942075589361824 0.48246346214365565, 20.190615814376528 1.6389931724471072, 20.036632722490666 1.9238376552511411" stroke="#000000" stroke-width="1" fill="none"></path></g><g transform="translate(187.64083365526477 86.0714285714285) rotate(0 16.285714285714278 14.57142857142857)"><text x="16.28571428571428" y="10.571428571428573" font-family="Virgil, Segoe UI Emoji" font-size="11.428571428571425px" fill="#000000" text-anchor="middle" style="white-space: pre;" direction="ltr">Tezos</text><text x="16.28571428571428" y="25.142857142857146" font-family="Virgil, Segoe UI Emoji" font-size="11.428571428571425px" fill="#000000" text-anchor="middle" style="white-space: pre;" direction="ltr">node</text></g><g transform="translate(272.92654794097876 73.85714285714286) rotate(0 24 23.14285714285714)"><path d="M31.478092939117246 1.6698779296976376 C36.49473925649944 2.7374509086143304, 42.000650892474965 7.1602823567807485, 44.88180749550643 11.236295437895903 C47.76296409853789 15.312308519011058, 49.367126653369034 21.26446787272869, 48.76503255730604 26.125956416388565 C48.16293846124305 30.98744496004844, 45.04978008576167 37.002113124541935, 41.26924291912849 40.40522669985514 C37.48870575249531 43.80834027516835, 31.276751662660676 46.24782060281353, 26.081809557506954 46.54463786826782 C20.886867452353233 46.84145513372211, 14.208999885764374 45.08228190332283, 10.099590288206167 42.18613029258087 C5.990180690647961 39.28997868183891, 2.5671746995317113 34.16875530096729, 1.4253519721577135 29.167728203816072 C0.28352924478371566 24.16670110666485, 0.9500652419400759 16.785167777178806, 3.2486539239621806 12.17996770967354 C5.547242605984286 7.574767642168276, 10.142467175579426 3.179717461060382, 15.21688406429034 1.536527798784487 C20.291300953001254 -0.10666186349140783, 30.425721639189092 1.8937810986255137, 33.695155256227665 2.3208297360181724 C36.96458887326624 2.747878373410831, 34.88051122805993 3.970516851772107, 34.83348576652178 4.0988196231404395 M15.847326889110791 2.9607622476691553 C20.51334602665495 0.629543618565441, 27.07381838627815 -0.6368022464417582, 31.95899304920418 0.7938886859568299 C36.844167712130215 2.224579618355418, 42.326512949597564 7.554252236729388, 45.158374866666996 11.544907842060685 C47.99023678373643 15.535563447391981, 49.68341703750829 19.969949476657373, 48.950164551620766 24.737822317944612 C48.21691206573324 29.505695159231852, 44.69913908167141 36.581836821945735, 40.75885995134183 40.152144889784125 C36.818580821012254 43.722452957622515, 30.50851175952123 45.71849599784626, 25.3084897696433 46.159670724974944 C20.108467779765373 46.60084545210363, 13.452846421850742 45.96983041716676, 9.558728012074258 42.7991932525562 C5.664609602297775 39.62855608794564, 3.127805787594455 32.22664521782087, 1.9437793109844037 27.135847737311593 C0.7597528343743527 22.045050256802323, 0.24885030346524362 16.386555637738216, 2.454569152413953 12.254408369500576 C4.660288001362662 8.122261101262936, 13.24803015960476 4.110396767538585, 15.178092404676658 2.342964127885754 C17.108154649748556 0.5755314882329226, 14.027554304770446 1.4333380855206552, 14.034942622845344 1.6498125315835885" stroke="#000000" stroke-width="1" fill="none"></path></g><g transform="translate(280.64083365526477 82.42857142857136) rotate(0 16.285714285714278 14.57142857142857)"><text x="16.28571428571428" y="10.571428571428573" font-family="Virgil, Segoe UI Emoji" font-size="11.428571428571425px" fill="#000000" text-anchor="middle" style="white-space: pre;" direction="ltr">Tezos</text><text x="16.28571428571428" y="25.142857142857146" font-family="Virgil, Segoe UI Emoji" font-size="11.428571428571425px" fill="#000000" text-anchor="middle" style="white-space: pre;" direction="ltr">node</text></g><g transform="translate(220.92654794097876 123.85714285714286) rotate(0 24 23.14285714285714)"><path d="M29.233321288994144 -0.5657533818865979 C34.10678811246203 -0.15028595641980314, 38.54119739091337 3.886826327846342, 41.76659537595083 8.054539318569754 C44.99199336098829 12.222252309293165, 48.404792880096565 19.272864124615833, 48.58570919921892 24.440524562453874 C48.76662551834127 29.608185000291915, 46.324251449067205 35.33831475152015, 42.852093290684934 39.060501945598006 C39.37993513230266 42.78268913967586, 32.805135190169594 45.99071221038583, 27.752760248925306 46.773647726921 C22.70038530768102 47.55658324345617, 17.04726123783096 46.405270097671746, 12.537843643219228 43.75811504480901 C8.028426048607496 41.110959991946274, 2.4963585388181357 35.71933591546973, 0.6962546812549206 30.890717409744568 C-1.1038491763082947 26.062098904019408, -0.1850504372169326 19.468066113774526, 1.7372204978399353 14.786404010458055 C3.659491432896803 10.104741907141584, 7.147123675030137 4.928357652699935, 12.229880291596128 2.8007447898457443 C17.31263690816212 0.673131926991553, 28.721412146737062 2.0341430342279394, 32.23376019723588 2.0207268333329083 C35.746108247734696 2.007310632437877, 33.611435482994395 2.405074281647003, 33.30396859458904 2.7202475844755583 M27.06815295539871 -0.21840024497083022 C31.83707255719038 0.3404406158070108, 36.991954866016656 4.51698648943899, 40.51525235308662 8.188726193757903 C44.03854984015659 11.860465898076816, 47.771127879008624 17.060825932619338, 48.207937877818495 21.812037980942648 C48.644747876628365 26.56325002926596, 46.1825441711661 32.93237780736726, 43.13611234594586 36.69599848369777 C40.08968052072562 40.45961916002828, 34.73527648649263 43.3031915327067, 29.929346926497075 44.39376203892573 C25.123417366501517 45.48433254514476, 18.865109207778403 45.1095054304098, 14.300534985972515 43.23942152101195 C9.735960764166629 41.3693376116141, 4.843058849832266 37.504608923926355, 2.541901595661759 33.17325858253865 C0.2407443414912529 28.841908241150946, -0.858065681451289 22.10450104710192, 0.49359146094947803 17.25131947268573 C1.845248603350245 12.398137898269537, 5.975685994081993 6.897276693959958, 10.651844450066362 4.054169136041498 C15.328002906050731 1.2110615781230378, 25.84659484643106 0.9262849328855948, 28.55054219685569 0.19267412517496751 C31.254489547280322 -0.5409366825356597, 27.393592118324708 -0.7706580858540051, 26.87552855261414 -0.34749571022226533" stroke="#000000" stroke-width="1" fill="none"></path></g><g transform="translate(228.64083365526477 132.42857142857136) rotate(0 16.285714285714278 14.57142857142857)"><text x="16.28571428571428" y="10.571428571428573" font-family="Virgil, Segoe UI Emoji" font-size="11.428571428571425px" fill="#000000" text-anchor="middle" style="white-space: pre;" direction="ltr">Tezos</text><text x="16.28571428571428" y="25.142857142857146" font-family="Virgil, Segoe UI Emoji" font-size="11.428571428571425px" fill="#000000" text-anchor="middle" style="white-space: pre;" direction="ltr">node</text></g><g transform="translate(175.92654794097876 157.85714285714286) rotate(0 24 23.14285714285714)"><path d="M32.29318323747826 2.1796762627829445 C37.280399202487516 3.8719290016331085, 43.37763104874601 8.494196589820065, 46.050708363672 12.733022761942811 C48.72378567859799 16.971848934065555, 49.378640339343065 22.727943663335402, 48.33164712703419 27.61263329551942 C47.28465391472531 32.497322927703436, 43.79803874746043 39.03709628538524, 39.76874908981872 42.04116055504691 C35.73945943217701 45.045224824708576, 29.406640535090837 45.862865283277245, 24.155909181183926 45.63701891348944 C18.905177827277015 45.41117254370164, 12.269664613227839 43.86539086443904, 8.264360966377254 40.68608233632011 C4.259057319526668 37.50677380820118, 0.9407815571964017 31.380292465350603, 0.12408730008040791 26.56116774477584 C-0.6926069570355858 21.742043024201077, 0.521807732426554 16.159518239269843, 3.3641954236812914 11.771334012871531 C6.206583114936029 7.38314978647322, 11.834389985060522 1.7950043583491848, 17.178413447608833 0.23206238638597654 C22.522436910157143 -1.3308795855772317, 31.917738116882873 1.6030265639517096, 35.42833619897117 2.393682181092281 C38.93893428105946 3.184337798232852, 38.48737020800705 4.648223776370633, 38.242001940138586 4.975996089229405 M23.7564527360923 0.24471138905111545 C28.636142574440235 -0.0027775519235474777, 34.5108521993452 1.8627175565184078, 38.36692667530279 4.998922719580062 C42.223001151260384 8.135127882641715, 45.97697089182942 13.99729145465316, 46.892899591837846 19.06194236742104 C47.808828291846275 24.12659328018892, 46.23970802512069 31.01143276323686, 43.86249887535338 35.38682819618734 C41.48528972558607 39.762223629137814, 36.96498329716849 43.78922454070104, 32.62964469323396 45.3143149651239 C28.29430608929944 46.839405389546755, 22.491027256393195 46.26353171071339, 17.850467251746245 44.53737074272446 C13.209907247099295 42.81120977473554, 7.647948233828654 38.822929300589294, 4.786284665352266 34.95734915719034 C1.9246210968758781 31.091769013791396, 0.16320113190398133 26.21371968073562, 0.6804858408879184 21.343889882330775 C1.1977705498718554 16.47406008392593, 4.32025695005324 9.529597136291134, 7.889992919255889 5.738370366761281 C11.459728888458537 1.9471435972314275, 19.52044162690158 -0.7570546734422745, 22.098901656103813 -1.4034707348483444 C24.677361685306046 -2.0498867962544143, 23.183053407317768 1.4244726793123572, 23.360753094469295 1.8598739983248613" stroke="#000000" stroke-width="1" fill="none"></path></g><g transform="translate(183.64083365526477 166.42857142857136) rotate(0 16.285714285714278 14.57142857142857)"><text x="16.28571428571428" y="10.571428571428573" font-family="Virgil, Segoe UI Emoji" font-size="11.428571428571425px" fill="#000000" text-anchor="middle" style="white-space: pre;" direction="ltr">Tezos</text><text x="16.28571428571428" y="25.142857142857146" font-family="Virgil, Segoe UI Emoji" font-size="11.428571428571425px" fill="#000000" text-anchor="middle" style="white-space: pre;" direction="ltr">node</text></g><g transform="translate(274.92654794097876 136.85714285714286) rotate(0 24 23.14285714285714)"><path d="M18.739558798004186 0.010100167799361515 C23.356772061130112 -1.3337104889334819, 30.810721984410485 -0.029634945315457628, 35.26680120566769 2.4652988804754052 C39.722880426924895 4.960232706266268, 43.52851829899605 10.36952092908784, 45.476034125547415 14.979703122544539 C47.42354995209878 19.589885316001237, 48.40955535500739 25.55122537378385, 46.95189616497587 30.126392041215603 C45.49423697494435 34.701558708647354, 41.03910231202924 39.92726917989762, 36.730078985358304 42.43070312713506 C32.421055658687365 44.9341370743725, 26.043047243640817 45.83629163453138, 21.097756204950254 45.14699572464025 C16.15246516625969 44.45769981474912, 10.491198052876937 41.70596700810213, 7.058332753214934 38.294927667788265 C3.6254674535529308 34.8838883274744, 0.8905637275377589 29.467909277513122, 0.5005644069782349 24.680759682757067 C0.11056508641871093 19.89361008800101, 1.3314437240791208 13.607732465194747, 4.71833682985779 9.572030099251926 C8.10522993563646 5.536327733309103, 17.581637818321845 1.984055682988717, 20.82192304165025 0.46654548710013444 C24.062208264978658 -1.0509647087884482, 24.084503331964875 0.24670950277480883, 24.160048169828226 0.46696892392042955 M13.030453931775751 1.422725940224563 C17.012624413323746 -0.9674876466308961, 23.03540999593907 0.8068989417900347, 28.227883816521363 2.0810487631984174 C33.420357637103656 3.3551985846068, 40.73659490148479 5.284727522005065, 44.185296855269506 9.067624868674859 C47.63399880905422 12.850522215344652, 49.28683093282241 19.648317377708146, 48.92009553922966 24.778432843217175 C48.553360145636915 29.908548308726203, 45.88929435685549 36.4789170344262, 41.98488449371301 39.848317661729034 C38.080474630570535 43.217718289031865, 30.709065285262596 44.51246888162059, 25.493636360374797 44.99483660703417 C20.278207435486998 45.477204332447755, 14.653228905937402 45.15274215631644, 10.692310944386213 42.74252401421052 C6.731392982835024 40.33230587210459, 2.9910856714189338 35.243014261869526, 1.7281285910676658 30.53352775439862 C0.46517151071639784 25.824041246927713, 1.1473338801392217 19.047977708199333, 3.114568462278605 14.485604969385081 C5.081803044417988 9.923232230570827, 12.066736348164152 5.073770706180875, 13.531536083903966 3.159291321513095 C14.996335819643779 1.2448119368453143, 11.960027001054979 2.710226024360351, 11.90336687671748 2.998728661378397" stroke="#000000" stroke-width="1" fill="none"></path></g><g transform="translate(282.64083365526477 145.42857142857136) rotate(0 16.285714285714278 14.57142857142857)"><text x="16.28571428571428" y="10.571428571428573" font-family="Virgil, Segoe UI Emoji" font-size="11.428571428571425px" fill="#000000" text-anchor="middle" style="white-space: pre;" direction="ltr">Tezos</text><text x="16.28571428571428" y="25.142857142857146" font-family="Virgil, Segoe UI Emoji" font-size="11.428571428571425px" fill="#000000" text-anchor="middle" style="white-space: pre;" direction="ltr">node</text></g><g transform="translate(155.92654794097876 19) rotate(0 91 137.5)"><path d="M54.49889827564634 10.997369554837803 C63.4302358274176 2.9249573040126435, 75.85954798702828 1.6733727183214313, 86.82646767333392 0.896514860368967 C97.79338735963957 0.11965700241650268, 109.9905227445206 1.189185249389709, 120.3004163934802 6.336222407123017 C130.6103100424398 11.483259564856326, 140.57698925728747 21.366216626412367, 148.6858295670915 31.778737806768817 C156.79466987689554 42.191258987125266, 163.55225386270513 54.73275587688481, 168.95345825230447 68.81134948926172 C174.35466264190381 82.88994310163862, 179.28605770596664 99.9709805598558, 181.0930559046875 116.25029948103027 C182.90005410340837 132.52961840220473, 181.9851737880884 150.5303663951649, 179.79544744462964 166.48726301630848 C177.6057211011709 182.44415963745206, 173.92636892128237 198.42927205448646, 167.95469784393495 211.99167920789185 C161.98302676658753 225.55408636129724, 152.821665983666 238.14195689412173, 143.96542098054505 247.8617059367408 C135.1091759774241 257.5814549793599, 124.97562994296979 265.79038027888186, 114.81722782520917 270.31017346360625 C104.65882570744856 274.82996664833064, 93.58843621310358 276.530555051508, 83.01500827398131 274.98046504508704 C72.44158033485904 273.4303750386661, 61.24982716352428 268.3748235461075, 51.3766601904756 261.0096334250808 C41.503493217426914 253.64444330405405, 31.354474201425216 243.05512242326176, 23.77600643568921 230.78932431892667 C16.197538669953207 218.52352621459158, 9.846272069764902 202.5707733928922, 5.905853596059572 187.4148447990702 C1.9654351223542412 172.25891620524823, 0.03300449821481048 156.10585139644604, 0.1334955934572264 139.85375275599475 C0.2339866886996423 123.60165411554345, 2.8702265618075296 105.37361031529284, 6.508800167514067 89.90225295636247 C10.147373773220606 74.43089559743211, 15.095327663084912 59.1436440680255, 21.964937227696453 47.02560860241253 C28.834546792307993 34.90757313679956, 40.324542831882844 24.099259946244832, 47.726457555183316 17.194040162684658 C55.12837227848379 10.288820379124484, 61.0453380809903 7.988115222843156, 66.37642556749928 5.594289901051496 C71.70751305400827 3.2004645792598367, 79.28696451801028 0.6959185528893337, 79.71298247423724 2.8310882319347" stroke="#087f5b" stroke-width="1.5" fill="none" stroke-dasharray="12 8"></path></g><g transform="translate(188.92654794097876 48) rotate(0 58.5 10.5)"><text x="0" y="14" font-family="Virgil, Segoe UI Emoji" font-size="16px" fill="#087f5b" text-anchor="start" style="white-space: pre;" direction="ltr">Tezos Network</text></g><g transform="translate(458.92654794097876 306) rotate(0 49 20.5)"><text x="0" y="14.5" font-family="Virgil, Segoe UI Emoji" font-size="16px" fill="#5f3dc4" text-anchor="start" style="white-space: pre;" direction="ltr">new storage</text><text x="0" y="35" font-family="Virgil, Segoe UI Emoji" font-size="16px" fill="#5f3dc4" text-anchor="start" style="white-space: pre;" direction="ltr">value</text></g><g transform="translate(574.9265479409787 316) rotate(0 5 10.5)"><text x="0" y="14" font-family="Virgil, Segoe UI Emoji" font-size="16px" fill="#5f3dc4" text-anchor="start" style="white-space: pre;" direction="ltr">=</text></g><g transform="translate(791.4265479409787 304) rotate(0 28.5 22)"><path d="M28.86734501644969 0.6112890429794788 C35.09860527301207 5.86227805543691, 42.03057682523504 11.352236518114806, 57.31532387062907 23.99855913594365 M55.00191106274724 21.24890987202525 C47.583181389737874 29.665958323813975, 37.181254051942375 40.87882861301303, 29.495302218943834 44.73341063782573 M28.871480982750654 44.25851835682988 C21.55844544125721 40.669212138038134, 16.193033494893463 33.59746980438009, 1.3446482829749584 22.517267484217882 M-0.8616514019668102 22.22517566010356 C4.494345391001553 17.22132560176775, 11.201429057139904 15.419787516389041, 28.660323280841112 -0.5349105186760426" stroke="#000000" stroke-width="1.5" fill="none" stroke-dasharray="12 8"></path></g><g transform="translate(811.9265479409787 316) rotate(0 7.5 13)"><text x="7.5" y="18" font-family="Virgil, Segoe UI Emoji" font-size="20px" fill="#000000" text-anchor="middle" style="white-space: pre;" direction="ltr">0</text></g><g transform="translate(645.4265479409787 314) rotate(0 47.5 10.040650406504056)"><text x="0" y="14.081300813008138" font-family="Virgil, Segoe UI Emoji" font-size="15.447154471544724px" fill="#000000" text-anchor="start" style="white-space: pre;" direction="ltr">Increment(5)</text></g><g transform="translate(762.9265479409787 316) rotate(0 8 10.5)"><text x="0" y="14" font-family="Virgil, Segoe UI Emoji" font-size="16px" fill="#5f3dc4" text-anchor="start" style="white-space: pre;" direction="ltr">on</text></g><g transform="translate(447.92654794097876 289) rotate(0 205.5 35.5)"><path d="M-0.06653950288908778 0.9877680408429889 C140.38228009829282 -2.393301291472003, 280.8030796172207 -1.6815430057749245, 410.95244096817373 0.4712643111178188 M412.83181848004466 -0.2901497669517994 C408.7689693154954 15.8306553022936, 409.9667684020661 30.90401698164642, 410.4363241381944 69.80247477814555 M411.34049568237737 71.84978483520763 C323.36382710395 73.07287799638164, 236.18202574356147 71.40543911348435, 0.9060382162055699 71.23550885907439 M0.642602939158678 70.08647612854838 C-1.1403534739278256 56.358049049787226, 1.5516739756800235 39.54397057332098, 1.1946374364197254 -1.6563065834343433" stroke="#5f3dc4" stroke-width="1.5" fill="none" stroke-dasharray="12 8"></path></g><g><g transform="translate(376.92654794097876 284) rotate(0 36.27459453418851 6.952759813517332)"><path d="M0.6174885280430316 1.1887371651828287 C12.697457671910525 3.379280792921781, 60.20024595335126 10.872414218634367, 71.93170054033399 12.716782461851835" stroke="#5f3dc4" stroke-width="1.5" fill="none" stroke-dasharray="12 8"></path></g></g><g transform="translate(452.92654794097876 268) rotate(0 164.5 10.5)"><text x="0" y="14" font-family="Virgil, Segoe UI Emoji" font-size="16px" fill="#5f3dc4" text-anchor="start" style="white-space: pre;" direction="ltr">Execution of invocation (triggers    code)</text></g><g><g transform="translate(471.7560317473206 339.81281592920425) rotate(0 -39.262281382828974 36.51536946371198)"><path d="M0.8294838063418866 0.8128159292042254 C-12.248411600540077 12.690296996384856, -65.78373554622131 60.53478168323634, -79.35404657199976 72.2179229982197" stroke="#5f3dc4" stroke-width="1.5" fill="none" stroke-dasharray="12 8"></path></g><g transform="translate(471.7560317473206 339.81281592920425) rotate(0 -39.262281382828974 36.51536946371198)"><path d="M-63.613448355419095 46.28835883757192 C-67.15291802696359 50.27643739338468, -72.5828206749093 57.50090982538709, -78.78199202567336 73.86292871981857" stroke="#5f3dc4" stroke-width="1.5" fill="none"></path></g><g transform="translate(471.7560317473206 339.81281592920425) rotate(0 -39.262281382828974 36.51536946371198)"><path d="M-50.057237234669586 61.69449860181874 C-56.78426355804945 62.29279284027666, -65.27936773295465 66.03377547492413, -78.78199202567336 73.86292871981857" stroke="#5f3dc4" stroke-width="1.5" fill="none"></path></g></g><g><g transform="translate(691.9265479409787 52) rotate(0 23.527606271952322 0.7511636434541984)"><path d="M-0.48384374454617496 1.1786070115864276 C7.551501722385486 1.3063079364597796, 39.45437839354078 0.13276794031262398, 47.53905628845096 -0.013900183886289552 M1.4629995602276176 0.7517717473302037 C9.44638010848624 1.150883405962959, 39.15180818119707 1.346047897199169, 46.8740153762605 1.5162274707946928" stroke="#5f3dc4" stroke-width="1" fill="none"></path></g><g transform="translate(691.9265479409787 52) rotate(0 23.527606271952322 0.7511636434541984)"><path d="M26.6446639638838 10.140574543898524 C30.120759172323023 9.154202444287648, 36.054971836784645 4.290888155668693, 47.579197373529894 1.3564176616165788 M24.65408814181356 9.055067391296447 C32.85598786155901 5.549579737442619, 42.4214695512259 3.375990547837371, 47.68416559166275 2.2772751525882633" stroke="#5f3dc4" stroke-width="1" fill="none"></path></g><g transform="translate(691.9265479409787 52) rotate(0 23.527606271952322 0.7511636434541984)"><path d="M26.870876970146547 -5.932780434166457 C30.187304397690717 -2.9995275817398683, 36.06634025099865 -3.9423048204212314, 47.579197373529894 1.3564176616165788 M24.880301148076306 -7.018287586768533 C32.91866917576422 -4.238831366768476, 42.39569364936991 -0.12717525764982796, 47.68416559166275 2.2772751525882633" stroke="#5f3dc4" stroke-width="1" fill="none"></path></g></g><g><g transform="translate(689.4265479409787 69) rotate(0 24.19491298124194 0.5551930859863745)"><path d="M0.4176457040011883 0.1757778413593769 C8.520795126010974 0.46819434240460395, 40.10192497099439 1.0536082036793233, 47.972180258482695 0.9132572181522847" stroke="#5f3dc4" stroke-width="1.5" fill="none" stroke-dasharray="12 8"></path></g><g transform="translate(689.4265479409787 69) rotate(0 24.19491298124194 0.5551930859863745)"><path d="M26.15476521826713 10.494787445320837 C32.881226827403594 7.90351599248164, 35.690102998713975 5.674982751617334, 47.389311604201794 1.2604464247822762" stroke="#5f3dc4" stroke-width="1.5" fill="none"></path></g><g transform="translate(689.4265479409787 69) rotate(0 24.19491298124194 0.5551930859863745)"><path d="M26.210231170672664 -5.580063599190038 C32.810351918288035 -4.215009009852775, 35.60557753171426 -2.4874092511801247, 47.389311604201794 1.2604464247822762" stroke="#5f3dc4" stroke-width="1.5" fill="none"></path></g></g><g><g transform="translate(692.4265479409787 92) rotate(0 23.36108984844293 -0.08688777570035455)"><path d="M0.1757778413593769 0.9721802584826944 C8.301527675737937 1.0091022126376625, 40.22027487034599 0.7215998046100138, 47.91325721815228 0.6391774289309977 M-1.1910775212664158 0.4369709488470108 C6.930169687348729 0.0876446771342308, 39.70980030832502 -0.8059835097473114, 47.44467179405503 -1.147829169658944" stroke="#c92a2a" stroke-width="1" fill="none"></path></g><g transform="translate(692.4265479409787 92) rotate(0 23.36108984844293 -0.08688777570035455)"><path d="M27.272373636588274 9.168164463210028 C31.696805331523695 4.481913591737091, 36.43762881678786 2.987905135058724, 47.791861000685024 -1.9776359333377331 M26.440856180488883 6.989041089507859 C33.14139761983011 4.224752022373921, 39.13233776324602 2.338987588086594, 47.62031841765158 -0.509661540640518" stroke="#c92a2a" stroke-width="1" fill="none"></path></g><g transform="translate(692.4265479409787 92) rotate(0 23.36108984844293 -0.08688777570035455)"><path d="M26.718264326853582 -6.897229258947986 C31.32599751142442 -7.890913726731805, 36.19420879739776 -5.691544111901535, 47.791861000685024 -1.9776359333377331 M25.88674687075419 -9.076352632650154 C32.915688792823396 -6.696418921941926, 39.083880482615356 -3.4430964822764114, 47.62031841765158 -0.509661540640518" stroke="#c92a2a" stroke-width="1" fill="none"></path></g></g><g><g transform="translate(693.4265479409787 112) rotate(0 24.3056788437068 0.12346457317471504)"><path d="M0.9721802584826944 0.9132572181522847 C8.842435545970996 0.772906232625246, 39.88826647127668 -0.4558316700160503, 47.639177428931 -0.6663280718028545" stroke="#c92a2a" stroke-width="1.5" fill="none" stroke-dasharray="12 8"></path></g><g transform="translate(693.4265479409787 112) rotate(0 24.3056788437068 0.12346457317471504)"><path d="M27.36372815032035 9.180598902215868 C32.01612349796726 5.794663414608938, 39.841702595816116 2.4056523553595026, 46.80937066525221 -0.2686176106333732" stroke="#c92a2a" stroke-width="1.5" fill="none"></path></g><g transform="translate(693.4265479409787 112) rotate(0 24.3056788437068 0.12346457317471504)"><path d="M26.818661079517508 -6.885104146932498 C31.677080246797203 -4.896596926823479, 39.685149875929696 -2.90674941630877, 46.80937066525221 -0.2686176106333732" stroke="#c92a2a" stroke-width="1.5" fill="none"></path></g></g><g transform="translate(754.9265479409787 92) rotate(0 64.5 10.5)"><text x="0" y="14" font-family="Virgil, Segoe UI Emoji" font-size="16px" fill="#c92a2a" text-anchor="start" style="white-space: pre;" direction="ltr">Deployment flow</text></g><g transform="translate(752.4265479409787 51.5) rotate(0 59 10.5)"><text x="0" y="14" font-family="Virgil, Segoe UI Emoji" font-size="16px" fill="#5f3dc4" text-anchor="start" style="white-space: pre;" direction="ltr">Invocation flow</text></g><g transform="translate(692.4265479409787 127) rotate(0 28.5 22)"><path d="M29.398872036486864 1.9520732574164867 C36.20364038055763 6.673217299096287, 44.18502547821031 10.094997056275606, 55.77888276055455 22.44973472878337 M57.67592458054423 22.555427450686693 C51.423200093042105 28.29210253145546, 45.42968071309849 30.37523887708783, 27.744039695709944 45.54015161469579 M29.978630799800158 43.48733715340495 C20.707887943554667 35.57343569846824, 10.182737859245385 31.627737716045228, 1.3830746598541737 21.396905820816755 M1.1636916808784008 23.561127681285143 C8.385570107791574 15.932133031953127, 21.342902066390963 7.479087153580039, 27.644812624901533 -0.24978337809443474" stroke="#000000" stroke-width="1.5" fill="none" stroke-dasharray="12 8"></path></g><g transform="translate(763.9265479409787 139) rotate(0 58 10.5)"><text x="0" y="14" font-family="Virgil, Segoe UI Emoji" font-size="16px" fill="#000000" text-anchor="start" style="white-space: pre;" direction="ltr">Storage state</text></g><g transform="translate(694.1765479409787 182.25) rotate(0 11.815068493150875 10.239726027397381)"><path d="M0.9423641376197338 0.859287042170763 C6.396829919570714 -0.39337483304233956, 14.210590592879116 0.021255460803790815, 24.95560723640154 1.7744425721466541 M-0.7568775918334723 0.7617646064609289 C4.0040548845539305 0.1908637743813245, 9.427655589090747 1.1292710166794508, 23.184312730134828 -0.3826694283634424 M22.389877141491873 -0.5829688124358654 C23.055930411388527 8.190627228455973, 25.45785704808439 14.071053866271642, 23.766189278141958 19.859631478633613 M23.83679905444513 -0.2153086457401514 C24.48414939690332 6.805032996677758, 24.41769135046701 13.608842885555628, 24.12930723935495 19.926737191002697 M24.943897903935415 21.03270715459797 C14.952406071828335 18.692289928669883, 11.724261865453679 21.923135737652732, 1.9614773206412792 18.951196729984016 M24.23307225018869 20.76757514647755 C14.655547863497786 20.04806434579396, 6.392180962768794 21.094294006304978, -0.7573180105537176 19.98176461629185 M0.7234449796378613 21.892064153995246 C0.07043139624141312 14.64598762087081, -0.8776709587619438 6.387845200295203, 0.8699826411902905 -1.0679271034896374 M0.9320030305534601 21.197739900868267 C0.4315481471038125 16.025112693198217, 0.7282759832358621 11.185636349175624, 0.5914126131683588 0.07825024984776974" stroke="#000000" stroke-width="1" fill="none"></path></g><g><g transform="translate(718.6152468291764 192.82345425932937) rotate(0 4.90101159200492 0.054387561452955424)"><path d="M0.5654184825718402 0.5155722253024577 C2.0982928534269596 0.28154238380684415, 6.8495855877400755 -0.5180211435907103, 8.113828214210429 -0.6749841821078083 M-0.5968755434174091 -0.2593563017528504 C1.4116292773884052 -0.3659365732482924, 8.526462622670588 0.5833319871689612, 10.398898727427207 0.7837593050137291" stroke="#000000" stroke-width="1" fill="none"></path></g></g><g transform="translate(728.046410954677 182.5125570776258) rotate(0 11.815068493150875 10.239726027397381)"><path d="M-1.3551873750984669 -0.24978337809443474 C7.2315116489102955 0.06332156316645021, 18.37538154083898 1.6729172195614086, 21.747537077443106 1.0197994895279408 M-0.8606815245002508 0.0421308483928442 C5.299894606988075 0.8005320706710913, 10.757599415844565 -0.5626754483833215, 23.79416045457254 -0.4231630954891443 M23.142591894642813 1.7108805365860462 C25.41751932120233 6.219581546989164, 23.639190068005615 9.59622155275361, 24.271105111615164 20.65182906373951 M24.466498463453156 0.00486358068883419 C24.442363676177738 6.98237060437829, 24.171630498515842 13.395018237808957, 23.53094687968622 20.473815621655316 M21.807059587017996 18.71031123384449 C18.524740851688556 22.006524511810937, 11.773958218654041 19.016564198967615, 1.5872160606086254 20.98591369375202 M23.619895606340272 20.117799939434857 C17.92919128897224 21.232113481199686, 10.089448656784878 20.049848497545664, 0.12965602613985538 21.10548985175404 M0.19864050671458244 21.055351674403877 C-0.8235406321626523 14.14713077712822, 0.7959038573164127 9.292639890838892, -1.9092125482857227 0.40108169987797737 M0.4726178143173456 20.213966967385144 C0.5784765366579652 12.790037677878647, 0.4005434993769288 7.011087865300864, -0.7821895983070135 0.9259001221507788" stroke="#000000" stroke-width="1" fill="none"></path></g><g transform="translate(765.9265479409787 180.5) rotate(0 37 10.5)"><text x="0" y="14" font-family="Virgil, Segoe UI Emoji" font-size="16px" fill="#000000" text-anchor="start" style="white-space: pre;" direction="ltr">blockchain</text></g><g transform="translate(681.9265479409787 34) rotate(0 107 90)"><path d="M-0.8066535093256726 -1.1826078595462306 C58.46873466784073 3.075795590623337, 113.93893513204173 2.613341214448363, 212.70601234196155 0.1895364259425178 M-0.2771660774577133 0.1776406387195699 C70.03910287520952 1.0248956862332774, 140.73457569447908 1.4698525730561924, 214.74071383771022 0.40756330975960414 M212.77087454125285 0.8849808163940907 C211.3914380017668 52.95793444663287, 214.11162483133376 108.28688859567048, 212.75040475651622 180.78800179436803 M213.66579938866198 -0.19770989753305912 C214.8369333051145 68.08857044763865, 214.9615038536489 137.9450622033328, 214.2696746084839 179.46302612684667 M212.56568160893406 180.94936885520644 C155.30288393508502 180.30213792504745, 98.5476789337198 180.79534370676737, -0.4034057935903802 179.0999631987549 M214.81826049462657 180.41456331918425 C142.65391547417366 180.1494157584016, 71.54262619087967 179.48330158739523, 0.2997384815489538 180.62948764954893 M-0.9519288130104542 181.44426717236638 C0.28427125625312333 127.45863053202629, 0.9820658128708601 73.84447292611003, 1.2807370834052563 -1.540246944874525 M0.13905752636492252 180.44585516117513 C-1.2193389728665351 136.61201209761202, -1.7196196511387825 94.90587556175886, -0.6042771842330694 0.9360398855060339" stroke="#000000" stroke-width="1" fill="none"></path></g><g transform="translate(687.9265479409787 10) rotate(0 26.5 10.5)"><text x="0" y="14" font-family="Virgil, Segoe UI Emoji" font-size="16px" fill="#000000" text-anchor="start" style="white-space: pre;" direction="ltr">Legend</text></g><g><g transform="translate(493.92654794097876 345) rotate(0 9.117928168843491 30.366271069650537)"><path d="M-1.1089733965694903 0.7451741941273211 C1.706229960173368 10.826407528668641, 14.089233075827359 50.76980326250195, 17.103524719923733 60.64175543859601 M0.5096768408920616 0.09078670070506623 C3.6798406711127614 9.809035284081475, 16.20746157168411 48.657526763537895, 19.344829734256493 58.8561022950802" stroke="#000000" stroke-width="1" fill="none"></path></g></g><g><g transform="translate(406.92654794097876 427) rotate(0 25.063642549081692 -4.87099198052195)"><path d="M0.045459247380495116 0.763330303877592 C8.627541987846296 -0.6540380048255128, 42.969394549479084 -7.2223687616487355, 51.51709847524762 -8.939501322060824 M-1.3898133770842105 0.1184747680742293 C6.989841513313974 -1.5736441544971118, 41.714707819002996 -8.545535573291904, 50.31552971112542 -10.505314264921472" stroke="#000000" stroke-width="1" fill="none"></path></g></g><g><g transform="translate(423.92654794097876 494) rotate(0 -50.77022283165252 -24.432472110865632)"><path d="M-0.19292690679430957 -0.7747178681194782 C-17.02333195929726 -8.790340571353832, -83.61603750313323 -40.6129804102083, -100.60621199533344 -48.45922674015164 M-1.7533522622007878 1.4329513057786971 C-18.740241256079948 -6.9090055684528, -85.00057606123077 -41.79371833734525, -101.3475187565107 -50.29789552750997" stroke="#000000" stroke-width="1" fill="none"></path></g></g><g><g transform="translate(565.9265479409787 506) rotate(0 101.04334126369565 -80.52386014872698)"><path d="M0.5901500947773457 -0.8647750027477741 C34.310772976030904 -28.111007345467808, 169.09392446751397 -135.53869530037048, 202.64584236219525 -162.34333447292448 M-0.5591598348040134 1.2956141754705461 C32.94426877029551 -25.26552239897661, 167.3821159440062 -134.06793354484253, 201.51186413872057 -160.98615981998853" stroke="#000000" stroke-width="1" fill="none"></path></g></g><g><g transform="translate(664.9265479409787 314) rotate(0 -64.72037863050588 -61.806392611279165)"><path d="M0.1698285587131978 -0.6056423552334308 C-21.189277198086494 -21.575918228303394, -107.07572003786919 -104.36339495914677, -128.36742238280365 -125.30357668548822 M-1.200150177301839 1.6907914629299192 C-22.74784461562057 -19.133730015310768, -108.4392762786383 -102.64669312452587, -129.61058581972497 -123.84584031420759" stroke="#000000" stroke-width="1" fill="none"></path></g></g><g transform="translate(717.4265479409787 266) rotate(0 9.5 9)"><path d="M0 0 C0 0, 0 0, 0 0 M0 0 C0 0, 0 0, 0 0 M0.295526138725703 6.122380715658061 C1.4044553716592905 5.131153429141992, 1.8773196706965813 3.8771030675892915, 5.367174897673077 0.638840016334992 M-0.3240049570472786 6.336856658061139 C1.3062229639465146 4.463721142741759, 3.3255995002571708 2.255964168481307, 4.9470270368778175 0.4814515683648401 M1.1024037220608105 11.910246190845548 C2.047242363677666 9.988256706012532, 5.69299266687926 6.213973768400638, 10.231672309291493 -0.04734729276152838 M0.545958479596268 12.541947184919893 C2.7844702777500006 7.656136488531978, 6.252600225908842 3.6899317504996394, 10.07123322184099 -0.6025376160547374 M1.0579670601943274 17.288279521186524 C1.744386531858483 16.066343487189236, 5.89669778511848 10.812984473525681, 16.885700989052136 0.7104078723979166 M-0.2869599843910198 18.31491034189301 C2.7252925978680307 14.89078452434158, 6.607640300951383 10.942347111212996, 15.698041693776329 1.208565613899844 M4.48160568600466 18.507642469951616 C7.114677576174607 14.71848174510992, 9.557211792370953 13.0404884777633, 18.797800627926375 1.1915283910323833 M5.818833952526949 17.85329576733123 C11.400748702295386 11.575193835999448, 16.124344220049895 6.303059485968802, 20.477689023518945 1.0842720399935697 M10.63978050005987 19.903446168275025 C13.975975611419921 14.567164583860503, 16.68618223336474 12.465575489701163, 19.367936772939714 8.033424636097006 M10.823998301843105 18.780956046757694 C12.51699360869061 16.690402529621785, 14.52651943494762 13.684653964821884, 19.62423460576028 7.786112717566392 M16.54204230093244 18.3420925463871 C17.6155989730059 15.760791354659842, 19.52902001739238 14.066578736976561, 20.082975601710356 13.65286651103054 M16.248948478967282 17.81021246624597 C17.417530823039026 16.88026559651166, 18.257874185044386 15.784740445124537, 19.9848905881196 13.59117547178869" stroke="#fa5252" stroke-width="0.5" fill="none"></path><path d="M-0.7085634319111704 0.7345782158896328 C6.334430846571922 0.9321406988613308, 11.251561668328941 -1.324305561352521, 18.11539160925895 -0.331629461236298 M-0.6490833670832217 -0.903212474193424 C7.344934871885926 -0.6381363891810179, 14.73709449497983 0.15024694867432112, 18.760642784740774 -0.11213777801021929 M19.88463795296848 -0.8413722585886717 C20.475298790968957 7.096605918556452, 18.063956515826288 9.978033879026771, 17.961512006446718 19.146063189581035 M18.937353529967368 -0.007754945196211338 C19.057195885702967 5.698998554237187, 19.593812515065075 10.736538758687676, 19.33931157235056 18.7089089339599 M20.613097050972282 18.007747483067213 C14.99876931644976 17.057599785719066, 6.877975097857415 18.495442542228847, -1.8543537763878701 19.288859981112182 M19.667407157924025 18.010920150671154 C13.166444781143216 18.326667391769586, 4.8678901459090405 18.312825044505296, -0.195758116338402 17.259966228995474 M-1.5549605358392 18.499974505975842 C-0.26305235881358374 11.455384361743926, -1.3496013905480506 9.758955914899706, -0.7904255021363498 1.7705863762646914 M-0.5849681591615081 17.60198911484331 C0.8852815671265126 12.118361824192105, 0.8251448853313923 6.885626219026744, -0.7111606752499938 -0.6369549924507738" stroke="#c92a2a" stroke-width="1" fill="none"></path></g><g transform="translate(595.9265479409787 312.5) rotate(0 19 10.5)"><text x="0" y="14" font-family="Virgil, Segoe UI Emoji" font-size="16px" fill="#5f3dc4" text-anchor="start" style="white-space: pre;" direction="ltr">apply</text></g></svg>