<svg width="676" height="306" viewBox="0 0 676 306" fill="none" xmlns="http://www.w3.org/2000/svg">
<g filter="url(#filter0_d)">
<rect width="672" height="302" rx="8" fill="#FEEBEA"/>
<rect x="0.5" y="0.5" width="671" height="301" rx="7.5" stroke="#DE1306"/>
</g>
<path d="M269.156 28V16.625H272.516C273.521 16.625 274.411 16.849 275.188 17.2969C275.969 17.7448 276.573 18.3802 277 19.2031C277.427 20.026 277.641 20.9688 277.641 22.0312V22.6016C277.641 23.6797 277.424 24.6276 276.992 25.4453C276.565 26.263 275.953 26.8932 275.156 27.3359C274.365 27.7786 273.456 28 272.43 28H269.156ZM271.133 18.2188V26.4219H272.422C273.458 26.4219 274.253 26.099 274.805 25.4531C275.362 24.8021 275.646 23.8698 275.656 22.6562V22.0234C275.656 20.7891 275.388 19.8464 274.852 19.1953C274.315 18.5443 273.536 18.2188 272.516 18.2188H271.133ZM284.477 28C284.393 27.8385 284.32 27.5755 284.258 27.2109C283.654 27.8411 282.914 28.1562 282.039 28.1562C281.19 28.1562 280.497 27.9141 279.961 27.4297C279.424 26.9453 279.156 26.3464 279.156 25.6328C279.156 24.7318 279.49 24.0417 280.156 23.5625C280.828 23.0781 281.786 22.8359 283.031 22.8359H284.195V22.2812C284.195 21.8438 284.073 21.4948 283.828 21.2344C283.583 20.9688 283.211 20.8359 282.711 20.8359C282.279 20.8359 281.924 20.9453 281.648 21.1641C281.372 21.3776 281.234 21.651 281.234 21.9844H279.336C279.336 21.5208 279.49 21.0885 279.797 20.6875C280.104 20.2812 280.521 19.9635 281.047 19.7344C281.578 19.5052 282.169 19.3906 282.82 19.3906C283.81 19.3906 284.599 19.6406 285.188 20.1406C285.776 20.6354 286.078 21.3333 286.094 22.2344V26.0469C286.094 26.8073 286.201 27.4141 286.414 27.8672V28H284.477ZM282.391 26.6328C282.766 26.6328 283.117 26.5417 283.445 26.3594C283.779 26.1771 284.029 25.9323 284.195 25.625V24.0312H283.172C282.469 24.0312 281.94 24.1536 281.586 24.3984C281.232 24.6432 281.055 24.9896 281.055 25.4375C281.055 25.8021 281.174 26.0938 281.414 26.3125C281.659 26.526 281.984 26.6328 282.391 26.6328ZM290.461 17.4922V19.5469H291.953V20.9531H290.461V25.6719C290.461 25.9948 290.523 26.2292 290.648 26.375C290.779 26.5156 291.008 26.5859 291.336 26.5859C291.555 26.5859 291.776 26.5599 292 26.5078V27.9766C291.568 28.0964 291.151 28.1562 290.75 28.1562C289.292 28.1562 288.562 27.3516 288.562 25.7422V20.9531H287.172V19.5469H288.562V17.4922H290.461ZM298.461 28C298.378 27.8385 298.305 27.5755 298.242 27.2109C297.638 27.8411 296.898 28.1562 296.023 28.1562C295.174 28.1562 294.482 27.9141 293.945 27.4297C293.409 26.9453 293.141 26.3464 293.141 25.6328C293.141 24.7318 293.474 24.0417 294.141 23.5625C294.812 23.0781 295.771 22.8359 297.016 22.8359H298.18V22.2812C298.18 21.8438 298.057 21.4948 297.812 21.2344C297.568 20.9688 297.195 20.8359 296.695 20.8359C296.263 20.8359 295.909 20.9453 295.633 21.1641C295.357 21.3776 295.219 21.651 295.219 21.9844H293.32C293.32 21.5208 293.474 21.0885 293.781 20.6875C294.089 20.2812 294.505 19.9635 295.031 19.7344C295.562 19.5052 296.154 19.3906 296.805 19.3906C297.794 19.3906 298.583 19.6406 299.172 20.1406C299.76 20.6354 300.062 21.3333 300.078 22.2344V26.0469C300.078 26.8073 300.185 27.4141 300.398 27.8672V28H298.461ZM296.375 26.6328C296.75 26.6328 297.102 26.5417 297.43 26.3594C297.763 26.1771 298.013 25.9323 298.18 25.625V24.0312H297.156C296.453 24.0312 295.924 24.1536 295.57 24.3984C295.216 24.6432 295.039 24.9896 295.039 25.4375C295.039 25.8021 295.159 26.0938 295.398 26.3125C295.643 26.526 295.969 26.6328 296.375 26.6328ZM310.789 25.7031C310.789 25.3646 310.648 25.1068 310.367 24.9297C310.091 24.7526 309.63 24.5964 308.984 24.4609C308.339 24.3255 307.799 24.1536 307.367 23.9453C306.419 23.487 305.945 22.8229 305.945 21.9531C305.945 21.224 306.253 20.6146 306.867 20.125C307.482 19.6354 308.263 19.3906 309.211 19.3906C310.221 19.3906 311.036 19.6406 311.656 20.1406C312.281 20.6406 312.594 21.2891 312.594 22.0859H310.695C310.695 21.7214 310.56 21.4193 310.289 21.1797C310.018 20.9349 309.659 20.8125 309.211 20.8125C308.794 20.8125 308.453 20.9089 308.188 21.1016C307.927 21.2943 307.797 21.5521 307.797 21.875C307.797 22.1667 307.919 22.3932 308.164 22.5547C308.409 22.7161 308.904 22.8802 309.648 23.0469C310.393 23.2083 310.977 23.4036 311.398 23.6328C311.826 23.8568 312.141 24.1276 312.344 24.4453C312.552 24.763 312.656 25.1484 312.656 25.6016C312.656 26.362 312.341 26.9792 311.711 27.4531C311.081 27.9219 310.255 28.1562 309.234 28.1562C308.542 28.1562 307.924 28.0312 307.383 27.7812C306.841 27.5312 306.419 27.1875 306.117 26.75C305.815 26.3125 305.664 25.8411 305.664 25.3359H307.508C307.534 25.7839 307.703 26.1302 308.016 26.375C308.328 26.6146 308.742 26.7344 309.258 26.7344C309.758 26.7344 310.138 26.6406 310.398 26.4531C310.659 26.2604 310.789 26.0104 310.789 25.7031ZM316.102 19.5469L316.156 20.4297C316.75 19.737 317.562 19.3906 318.594 19.3906C319.724 19.3906 320.497 19.8229 320.914 20.6875C321.529 19.8229 322.393 19.3906 323.508 19.3906C324.44 19.3906 325.133 19.6484 325.586 20.1641C326.044 20.6797 326.279 21.4401 326.289 22.4453V28H324.391V22.5C324.391 21.9635 324.273 21.5703 324.039 21.3203C323.805 21.0703 323.417 20.9453 322.875 20.9453C322.443 20.9453 322.089 21.0625 321.812 21.2969C321.542 21.526 321.352 21.8281 321.242 22.2031L321.25 28H319.352V22.4375C319.326 21.4427 318.818 20.9453 317.828 20.9453C317.068 20.9453 316.529 21.2552 316.211 21.875V28H314.312V19.5469H316.102ZM333.289 28C333.206 27.8385 333.133 27.5755 333.07 27.2109C332.466 27.8411 331.727 28.1562 330.852 28.1562C330.003 28.1562 329.31 27.9141 328.773 27.4297C328.237 26.9453 327.969 26.3464 327.969 25.6328C327.969 24.7318 328.302 24.0417 328.969 23.5625C329.641 23.0781 330.599 22.8359 331.844 22.8359H333.008V22.2812C333.008 21.8438 332.885 21.4948 332.641 21.2344C332.396 20.9688 332.023 20.8359 331.523 20.8359C331.091 20.8359 330.737 20.9453 330.461 21.1641C330.185 21.3776 330.047 21.651 330.047 21.9844H328.148C328.148 21.5208 328.302 21.0885 328.609 20.6875C328.917 20.2812 329.333 19.9635 329.859 19.7344C330.391 19.5052 330.982 19.3906 331.633 19.3906C332.622 19.3906 333.411 19.6406 334 20.1406C334.589 20.6354 334.891 21.3333 334.906 22.2344V26.0469C334.906 26.8073 335.013 27.4141 335.227 27.8672V28H333.289ZM331.203 26.6328C331.578 26.6328 331.93 26.5417 332.258 26.3594C332.591 26.1771 332.841 25.9323 333.008 25.625V24.0312H331.984C331.281 24.0312 330.753 24.1536 330.398 24.3984C330.044 24.6432 329.867 24.9896 329.867 25.4375C329.867 25.8021 329.987 26.0938 330.227 26.3125C330.471 26.526 330.797 26.6328 331.203 26.6328ZM341.32 21.2812C341.07 21.2396 340.812 21.2188 340.547 21.2188C339.677 21.2188 339.091 21.5521 338.789 22.2188V28H336.891V19.5469H338.703L338.75 20.4922C339.208 19.7578 339.844 19.3906 340.656 19.3906C340.927 19.3906 341.151 19.4271 341.328 19.5L341.32 21.2812ZM345.289 17.4922V19.5469H346.781V20.9531H345.289V25.6719C345.289 25.9948 345.352 26.2292 345.477 26.375C345.607 26.5156 345.836 26.5859 346.164 26.5859C346.383 26.5859 346.604 26.5599 346.828 26.5078V27.9766C346.396 28.0964 345.979 28.1562 345.578 28.1562C344.12 28.1562 343.391 27.3516 343.391 25.7422V20.9531H342V19.5469H343.391V17.4922H345.289ZM355.695 26.6406C356.169 26.6406 356.562 26.5026 356.875 26.2266C357.188 25.9505 357.354 25.6094 357.375 25.2031H359.164C359.143 25.7292 358.979 26.2214 358.672 26.6797C358.365 27.1328 357.948 27.4922 357.422 27.7578C356.896 28.0234 356.328 28.1562 355.719 28.1562C354.536 28.1562 353.599 27.7734 352.906 27.0078C352.214 26.2422 351.867 25.1849 351.867 23.8359V23.6406C351.867 22.3542 352.211 21.3255 352.898 20.5547C353.586 19.7786 354.523 19.3906 355.711 19.3906C356.716 19.3906 357.534 19.6849 358.164 20.2734C358.799 20.8568 359.133 21.625 359.164 22.5781H357.375C357.354 22.0938 357.188 21.6953 356.875 21.3828C356.568 21.0703 356.174 20.9141 355.695 20.9141C355.081 20.9141 354.607 21.138 354.273 21.5859C353.94 22.0286 353.771 22.7031 353.766 23.6094V23.9141C353.766 24.8307 353.93 25.5156 354.258 25.9688C354.591 26.4167 355.07 26.6406 355.695 26.6406ZM360.242 23.6953C360.242 22.8672 360.406 22.1224 360.734 21.4609C361.062 20.7943 361.523 20.2839 362.117 19.9297C362.711 19.5703 363.393 19.3906 364.164 19.3906C365.305 19.3906 366.229 19.7578 366.938 20.4922C367.651 21.2266 368.036 22.2005 368.094 23.4141L368.102 23.8594C368.102 24.6927 367.94 25.4375 367.617 26.0938C367.299 26.75 366.841 27.2578 366.242 27.6172C365.648 27.9766 364.961 28.1562 364.18 28.1562C362.987 28.1562 362.031 27.7604 361.312 26.9688C360.599 26.1719 360.242 25.112 360.242 23.7891V23.6953ZM362.141 23.8594C362.141 24.7292 362.32 25.4115 362.68 25.9062C363.039 26.3958 363.539 26.6406 364.18 26.6406C364.82 26.6406 365.318 26.3906 365.672 25.8906C366.031 25.3906 366.211 24.6589 366.211 23.6953C366.211 22.8411 366.026 22.1641 365.656 21.6641C365.292 21.1641 364.794 20.9141 364.164 20.9141C363.544 20.9141 363.052 21.1615 362.688 21.6562C362.323 22.1458 362.141 22.8802 362.141 23.8594ZM371.469 19.5469L371.523 20.5234C372.148 19.7682 372.969 19.3906 373.984 19.3906C375.745 19.3906 376.641 20.3984 376.672 22.4141V28H374.773V22.5234C374.773 21.987 374.656 21.5911 374.422 21.3359C374.193 21.0755 373.815 20.9453 373.289 20.9453C372.523 20.9453 371.953 21.2917 371.578 21.9844V28H369.68V19.5469H371.469ZM380.992 17.4922V19.5469H382.484V20.9531H380.992V25.6719C380.992 25.9948 381.055 26.2292 381.18 26.375C381.31 26.5156 381.539 26.5859 381.867 26.5859C382.086 26.5859 382.307 26.5599 382.531 26.5078V27.9766C382.099 28.0964 381.682 28.1562 381.281 28.1562C379.823 28.1562 379.094 27.3516 379.094 25.7422V20.9531H377.703V19.5469H379.094V17.4922H380.992ZM388.367 21.2812C388.117 21.2396 387.859 21.2188 387.594 21.2188C386.724 21.2188 386.138 21.5521 385.836 22.2188V28H383.938V19.5469H385.75L385.797 20.4922C386.255 19.7578 386.891 19.3906 387.703 19.3906C387.974 19.3906 388.198 19.4271 388.375 19.5L388.367 21.2812ZM394.383 28C394.299 27.8385 394.227 27.5755 394.164 27.2109C393.56 27.8411 392.82 28.1562 391.945 28.1562C391.096 28.1562 390.404 27.9141 389.867 27.4297C389.331 26.9453 389.062 26.3464 389.062 25.6328C389.062 24.7318 389.396 24.0417 390.062 23.5625C390.734 23.0781 391.693 22.8359 392.938 22.8359H394.102V22.2812C394.102 21.8438 393.979 21.4948 393.734 21.2344C393.49 20.9688 393.117 20.8359 392.617 20.8359C392.185 20.8359 391.831 20.9453 391.555 21.1641C391.279 21.3776 391.141 21.651 391.141 21.9844H389.242C389.242 21.5208 389.396 21.0885 389.703 20.6875C390.01 20.2812 390.427 19.9635 390.953 19.7344C391.484 19.5052 392.076 19.3906 392.727 19.3906C393.716 19.3906 394.505 19.6406 395.094 20.1406C395.682 20.6354 395.984 21.3333 396 22.2344V26.0469C396 26.8073 396.107 27.4141 396.32 27.8672V28H394.383ZM392.297 26.6328C392.672 26.6328 393.023 26.5417 393.352 26.3594C393.685 26.1771 393.935 25.9323 394.102 25.625V24.0312H393.078C392.375 24.0312 391.846 24.1536 391.492 24.3984C391.138 24.6432 390.961 24.9896 390.961 25.4375C390.961 25.8021 391.081 26.0938 391.32 26.3125C391.565 26.526 391.891 26.6328 392.297 26.6328ZM401.461 26.6406C401.935 26.6406 402.328 26.5026 402.641 26.2266C402.953 25.9505 403.12 25.6094 403.141 25.2031H404.93C404.909 25.7292 404.745 26.2214 404.438 26.6797C404.13 27.1328 403.714 27.4922 403.188 27.7578C402.661 28.0234 402.094 28.1562 401.484 28.1562C400.302 28.1562 399.365 27.7734 398.672 27.0078C397.979 26.2422 397.633 25.1849 397.633 23.8359V23.6406C397.633 22.3542 397.977 21.3255 398.664 20.5547C399.352 19.7786 400.289 19.3906 401.477 19.3906C402.482 19.3906 403.299 19.6849 403.93 20.2734C404.565 20.8568 404.898 21.625 404.93 22.5781H403.141C403.12 22.0938 402.953 21.6953 402.641 21.3828C402.333 21.0703 401.94 20.9141 401.461 20.9141C400.846 20.9141 400.372 21.138 400.039 21.5859C399.706 22.0286 399.536 22.7031 399.531 23.6094V23.9141C399.531 24.8307 399.695 25.5156 400.023 25.9688C400.357 26.4167 400.836 26.6406 401.461 26.6406ZM408.742 17.4922V19.5469H410.234V20.9531H408.742V25.6719C408.742 25.9948 408.805 26.2292 408.93 26.375C409.06 26.5156 409.289 26.5859 409.617 26.5859C409.836 26.5859 410.057 26.5599 410.281 26.5078V27.9766C409.849 28.0964 409.432 28.1562 409.031 28.1562C407.573 28.1562 406.844 27.3516 406.844 25.7422V20.9531H405.453V19.5469H406.844V17.4922H408.742Z" fill="#DE1306"/>
<path d="M226.242 81H224.273V69.625H226.242V81ZM230.273 72.5469L230.328 73.4297C230.922 72.737 231.734 72.3906 232.766 72.3906C233.896 72.3906 234.669 72.8229 235.086 73.6875C235.701 72.8229 236.565 72.3906 237.68 72.3906C238.612 72.3906 239.305 72.6484 239.758 73.1641C240.216 73.6797 240.451 74.4401 240.461 75.4453V81H238.562V75.5C238.562 74.9635 238.445 74.5703 238.211 74.3203C237.977 74.0703 237.589 73.9453 237.047 73.9453C236.615 73.9453 236.26 74.0625 235.984 74.2969C235.714 74.526 235.523 74.8281 235.414 75.2031L235.422 81H233.523V75.4375C233.497 74.4427 232.99 73.9453 232 73.9453C231.24 73.9453 230.701 74.2552 230.383 74.875V81H228.484V72.5469H230.273ZM244.195 72.5469L244.25 73.4297C244.844 72.737 245.656 72.3906 246.688 72.3906C247.818 72.3906 248.591 72.8229 249.008 73.6875C249.622 72.8229 250.487 72.3906 251.602 72.3906C252.534 72.3906 253.227 72.6484 253.68 73.1641C254.138 73.6797 254.372 74.4401 254.383 75.4453V81H252.484V75.5C252.484 74.9635 252.367 74.5703 252.133 74.3203C251.898 74.0703 251.51 73.9453 250.969 73.9453C250.536 73.9453 250.182 74.0625 249.906 74.2969C249.635 74.526 249.445 74.8281 249.336 75.2031L249.344 81H247.445V75.4375C247.419 74.4427 246.911 73.9453 245.922 73.9453C245.161 73.9453 244.622 74.2552 244.305 74.875V81H242.406V72.5469H244.195ZM261.453 80.1719C260.896 80.8281 260.104 81.1562 259.078 81.1562C258.161 81.1562 257.466 80.888 256.992 80.3516C256.523 79.8151 256.289 79.0391 256.289 78.0234V72.5469H258.188V78C258.188 79.0729 258.633 79.6094 259.523 79.6094C260.445 79.6094 261.068 79.2786 261.391 78.6172V72.5469H263.289V81H261.5L261.453 80.1719ZM267.602 70.4922V72.5469H269.094V73.9531H267.602V78.6719C267.602 78.9948 267.664 79.2292 267.789 79.375C267.919 79.5156 268.148 79.5859 268.477 79.5859C268.695 79.5859 268.917 79.5599 269.141 79.5078V80.9766C268.708 81.0964 268.292 81.1562 267.891 81.1562C266.432 81.1562 265.703 80.3516 265.703 78.7422V73.9531H264.312V72.5469H265.703V70.4922H267.602ZM275.602 81C275.518 80.8385 275.445 80.5755 275.383 80.2109C274.779 80.8411 274.039 81.1562 273.164 81.1562C272.315 81.1562 271.622 80.9141 271.086 80.4297C270.549 79.9453 270.281 79.3464 270.281 78.6328C270.281 77.7318 270.615 77.0417 271.281 76.5625C271.953 76.0781 272.911 75.8359 274.156 75.8359H275.32V75.2812C275.32 74.8438 275.198 74.4948 274.953 74.2344C274.708 73.9688 274.336 73.8359 273.836 73.8359C273.404 73.8359 273.049 73.9453 272.773 74.1641C272.497 74.3776 272.359 74.651 272.359 74.9844H270.461C270.461 74.5208 270.615 74.0885 270.922 73.6875C271.229 73.2812 271.646 72.9635 272.172 72.7344C272.703 72.5052 273.294 72.3906 273.945 72.3906C274.935 72.3906 275.724 72.6406 276.312 73.1406C276.901 73.6354 277.203 74.3333 277.219 75.2344V79.0469C277.219 79.8073 277.326 80.4141 277.539 80.8672V81H275.602ZM273.516 79.6328C273.891 79.6328 274.242 79.5417 274.57 79.3594C274.904 79.1771 275.154 78.9323 275.32 78.625V77.0312H274.297C273.594 77.0312 273.065 77.1536 272.711 77.3984C272.357 77.6432 272.18 77.9896 272.18 78.4375C272.18 78.8021 272.299 79.0938 272.539 79.3125C272.784 79.526 273.109 79.6328 273.516 79.6328ZM286.625 76.8594C286.625 78.1719 286.331 79.2161 285.742 79.9922C285.159 80.7682 284.354 81.1562 283.328 81.1562C282.339 81.1562 281.568 80.7995 281.016 80.0859L280.922 81H279.203V69H281.102V73.3594C281.648 72.7135 282.385 72.3906 283.312 72.3906C284.344 72.3906 285.154 72.7734 285.742 73.5391C286.331 74.3047 286.625 75.375 286.625 76.75V76.8594ZM284.727 76.6953C284.727 75.7786 284.565 75.0911 284.242 74.6328C283.919 74.1745 283.451 73.9453 282.836 73.9453C282.013 73.9453 281.435 74.3047 281.102 75.0234V78.5078C281.44 79.2422 282.023 79.6094 282.852 79.6094C283.445 79.6094 283.904 79.388 284.227 78.9453C284.549 78.5026 284.716 77.8333 284.727 76.9375V76.6953ZM290.242 81H288.344V69H290.242V81ZM296.039 81.1562C294.836 81.1562 293.859 80.7786 293.109 80.0234C292.365 79.263 291.992 78.2526 291.992 76.9922V76.7578C291.992 75.9141 292.154 75.1615 292.477 74.5C292.805 73.8333 293.263 73.3151 293.852 72.9453C294.44 72.5755 295.096 72.3906 295.82 72.3906C296.971 72.3906 297.859 72.7578 298.484 73.4922C299.115 74.2266 299.43 75.2656 299.43 76.6094V77.375H293.906C293.964 78.0729 294.195 78.625 294.602 79.0312C295.013 79.4375 295.529 79.6406 296.148 79.6406C297.018 79.6406 297.727 79.2891 298.273 78.5859L299.297 79.5625C298.958 80.0677 298.505 80.4609 297.938 80.7422C297.375 81.0182 296.742 81.1562 296.039 81.1562ZM295.812 73.9141C295.292 73.9141 294.87 74.0964 294.547 74.4609C294.229 74.8255 294.026 75.3333 293.938 75.9844H297.555V75.8438C297.513 75.2083 297.344 74.7292 297.047 74.4062C296.75 74.0781 296.339 73.9141 295.812 73.9141Z" fill="#DE1306"/>
<path d="M54.2422 81H52.2734V69.625H54.2422V81ZM58.2734 72.5469L58.3281 73.4297C58.9219 72.737 59.7344 72.3906 60.7656 72.3906C61.8958 72.3906 62.6693 72.8229 63.0859 73.6875C63.7005 72.8229 64.5651 72.3906 65.6797 72.3906C66.612 72.3906 67.3047 72.6484 67.7578 73.1641C68.2161 73.6797 68.4505 74.4401 68.4609 75.4453V81H66.5625V75.5C66.5625 74.9635 66.4453 74.5703 66.2109 74.3203C65.9766 74.0703 65.5885 73.9453 65.0469 73.9453C64.6146 73.9453 64.2604 74.0625 63.9844 74.2969C63.7135 74.526 63.5234 74.8281 63.4141 75.2031L63.4219 81H61.5234V75.4375C61.4974 74.4427 60.9896 73.9453 60 73.9453C59.2396 73.9453 58.7005 74.2552 58.3828 74.875V81H56.4844V72.5469H58.2734ZM72.1953 72.5469L72.25 73.4297C72.8438 72.737 73.6562 72.3906 74.6875 72.3906C75.8177 72.3906 76.5911 72.8229 77.0078 73.6875C77.6224 72.8229 78.487 72.3906 79.6016 72.3906C80.5339 72.3906 81.2266 72.6484 81.6797 73.1641C82.138 73.6797 82.3724 74.4401 82.3828 75.4453V81H80.4844V75.5C80.4844 74.9635 80.3672 74.5703 80.1328 74.3203C79.8984 74.0703 79.5104 73.9453 78.9688 73.9453C78.5365 73.9453 78.1823 74.0625 77.9062 74.2969C77.6354 74.526 77.4453 74.8281 77.3359 75.2031L77.3438 81H75.4453V75.4375C75.4193 74.4427 74.9115 73.9453 73.9219 73.9453C73.1615 73.9453 72.6224 74.2552 72.3047 74.875V81H70.4062V72.5469H72.1953ZM89.4531 80.1719C88.8958 80.8281 88.1042 81.1562 87.0781 81.1562C86.1615 81.1562 85.4661 80.888 84.9922 80.3516C84.5234 79.8151 84.2891 79.0391 84.2891 78.0234V72.5469H86.1875V78C86.1875 79.0729 86.6328 79.6094 87.5234 79.6094C88.4453 79.6094 89.0677 79.2786 89.3906 78.6172V72.5469H91.2891V81H89.5L89.4531 80.1719ZM95.6016 70.4922V72.5469H97.0938V73.9531H95.6016V78.6719C95.6016 78.9948 95.6641 79.2292 95.7891 79.375C95.9193 79.5156 96.1484 79.5859 96.4766 79.5859C96.6953 79.5859 96.9167 79.5599 97.1406 79.5078V80.9766C96.7083 81.0964 96.2917 81.1562 95.8906 81.1562C94.4323 81.1562 93.7031 80.3516 93.7031 78.7422V73.9531H92.3125V72.5469H93.7031V70.4922H95.6016ZM103.602 81C103.518 80.8385 103.445 80.5755 103.383 80.2109C102.779 80.8411 102.039 81.1562 101.164 81.1562C100.315 81.1562 99.6224 80.9141 99.0859 80.4297C98.5495 79.9453 98.2812 79.3464 98.2812 78.6328C98.2812 77.7318 98.6146 77.0417 99.2812 76.5625C99.9531 76.0781 100.911 75.8359 102.156 75.8359H103.32V75.2812C103.32 74.8438 103.198 74.4948 102.953 74.2344C102.708 73.9688 102.336 73.8359 101.836 73.8359C101.404 73.8359 101.049 73.9453 100.773 74.1641C100.497 74.3776 100.359 74.651 100.359 74.9844H98.4609C98.4609 74.5208 98.6146 74.0885 98.9219 73.6875C99.2292 73.2812 99.6458 72.9635 100.172 72.7344C100.703 72.5052 101.294 72.3906 101.945 72.3906C102.935 72.3906 103.724 72.6406 104.312 73.1406C104.901 73.6354 105.203 74.3333 105.219 75.2344V79.0469C105.219 79.8073 105.326 80.4141 105.539 80.8672V81H103.602ZM101.516 79.6328C101.891 79.6328 102.242 79.5417 102.57 79.3594C102.904 79.1771 103.154 78.9323 103.32 78.625V77.0312H102.297C101.594 77.0312 101.065 77.1536 100.711 77.3984C100.357 77.6432 100.18 77.9896 100.18 78.4375C100.18 78.8021 100.299 79.0938 100.539 79.3125C100.784 79.526 101.109 79.6328 101.516 79.6328ZM114.625 76.8594C114.625 78.1719 114.331 79.2161 113.742 79.9922C113.159 80.7682 112.354 81.1562 111.328 81.1562C110.339 81.1562 109.568 80.7995 109.016 80.0859L108.922 81H107.203V69H109.102V73.3594C109.648 72.7135 110.385 72.3906 111.312 72.3906C112.344 72.3906 113.154 72.7734 113.742 73.5391C114.331 74.3047 114.625 75.375 114.625 76.75V76.8594ZM112.727 76.6953C112.727 75.7786 112.565 75.0911 112.242 74.6328C111.919 74.1745 111.451 73.9453 110.836 73.9453C110.013 73.9453 109.435 74.3047 109.102 75.0234V78.5078C109.44 79.2422 110.023 79.6094 110.852 79.6094C111.445 79.6094 111.904 79.388 112.227 78.9453C112.549 78.5026 112.716 77.8333 112.727 76.9375V76.6953ZM118.242 81H116.344V69H118.242V81ZM124.039 81.1562C122.836 81.1562 121.859 80.7786 121.109 80.0234C120.365 79.263 119.992 78.2526 119.992 76.9922V76.7578C119.992 75.9141 120.154 75.1615 120.477 74.5C120.805 73.8333 121.263 73.3151 121.852 72.9453C122.44 72.5755 123.096 72.3906 123.82 72.3906C124.971 72.3906 125.859 72.7578 126.484 73.4922C127.115 74.2266 127.43 75.2656 127.43 76.6094V77.375H121.906C121.964 78.0729 122.195 78.625 122.602 79.0312C123.013 79.4375 123.529 79.6406 124.148 79.6406C125.018 79.6406 125.727 79.2891 126.273 78.5859L127.297 79.5625C126.958 80.0677 126.505 80.4609 125.938 80.7422C125.375 81.0182 124.742 81.1562 124.039 81.1562ZM123.812 73.9141C123.292 73.9141 122.87 74.0964 122.547 74.4609C122.229 74.8255 122.026 75.3333 121.938 75.9844H125.555V75.8438C125.513 75.2083 125.344 74.7292 125.047 74.4062C124.75 74.0781 124.339 73.9141 123.812 73.9141Z" fill="#DE1306"/>
<path d="M491.719 69.625L495 78.3438L498.273 69.625H500.828V81H498.859V77.25L499.055 72.2344L495.695 81H494.281L490.93 72.2422L491.125 77.25V81H489.156V69.625H491.719ZM508.109 80.1719C507.552 80.8281 506.76 81.1562 505.734 81.1562C504.818 81.1562 504.122 80.888 503.648 80.3516C503.18 79.8151 502.945 79.0391 502.945 78.0234V72.5469H504.844V78C504.844 79.0729 505.289 79.6094 506.18 79.6094C507.102 79.6094 507.724 79.2786 508.047 78.6172V72.5469H509.945V81H508.156L508.109 80.1719ZM514.258 70.4922V72.5469H515.75V73.9531H514.258V78.6719C514.258 78.9948 514.32 79.2292 514.445 79.375C514.576 79.5156 514.805 79.5859 515.133 79.5859C515.352 79.5859 515.573 79.5599 515.797 79.5078V80.9766C515.365 81.0964 514.948 81.1562 514.547 81.1562C513.089 81.1562 512.359 80.3516 512.359 78.7422V73.9531H510.969V72.5469H512.359V70.4922H514.258ZM522.258 81C522.174 80.8385 522.102 80.5755 522.039 80.2109C521.435 80.8411 520.695 81.1562 519.82 81.1562C518.971 81.1562 518.279 80.9141 517.742 80.4297C517.206 79.9453 516.938 79.3464 516.938 78.6328C516.938 77.7318 517.271 77.0417 517.938 76.5625C518.609 76.0781 519.568 75.8359 520.812 75.8359H521.977V75.2812C521.977 74.8438 521.854 74.4948 521.609 74.2344C521.365 73.9688 520.992 73.8359 520.492 73.8359C520.06 73.8359 519.706 73.9453 519.43 74.1641C519.154 74.3776 519.016 74.651 519.016 74.9844H517.117C517.117 74.5208 517.271 74.0885 517.578 73.6875C517.885 73.2812 518.302 72.9635 518.828 72.7344C519.359 72.5052 519.951 72.3906 520.602 72.3906C521.591 72.3906 522.38 72.6406 522.969 73.1406C523.557 73.6354 523.859 74.3333 523.875 75.2344V79.0469C523.875 79.8073 523.982 80.4141 524.195 80.8672V81H522.258ZM520.172 79.6328C520.547 79.6328 520.898 79.5417 521.227 79.3594C521.56 79.1771 521.81 78.9323 521.977 78.625V77.0312H520.953C520.25 77.0312 519.721 77.1536 519.367 77.3984C519.013 77.6432 518.836 77.9896 518.836 78.4375C518.836 78.8021 518.956 79.0938 519.195 79.3125C519.44 79.526 519.766 79.6328 520.172 79.6328ZM533.281 76.8594C533.281 78.1719 532.987 79.2161 532.398 79.9922C531.815 80.7682 531.01 81.1562 529.984 81.1562C528.995 81.1562 528.224 80.7995 527.672 80.0859L527.578 81H525.859V69H527.758V73.3594C528.305 72.7135 529.042 72.3906 529.969 72.3906C531 72.3906 531.81 72.7734 532.398 73.5391C532.987 74.3047 533.281 75.375 533.281 76.75V76.8594ZM531.383 76.6953C531.383 75.7786 531.221 75.0911 530.898 74.6328C530.576 74.1745 530.107 73.9453 529.492 73.9453C528.669 73.9453 528.091 74.3047 527.758 75.0234V78.5078C528.096 79.2422 528.68 79.6094 529.508 79.6094C530.102 79.6094 530.56 79.388 530.883 78.9453C531.206 78.5026 531.372 77.8333 531.383 76.9375V76.6953ZM536.898 81H535V69H536.898V81ZM542.695 81.1562C541.492 81.1562 540.516 80.7786 539.766 80.0234C539.021 79.263 538.648 78.2526 538.648 76.9922V76.7578C538.648 75.9141 538.81 75.1615 539.133 74.5C539.461 73.8333 539.919 73.3151 540.508 72.9453C541.096 72.5755 541.753 72.3906 542.477 72.3906C543.628 72.3906 544.516 72.7578 545.141 73.4922C545.771 74.2266 546.086 75.2656 546.086 76.6094V77.375H540.562C540.62 78.0729 540.852 78.625 541.258 79.0312C541.669 79.4375 542.185 79.6406 542.805 79.6406C543.674 79.6406 544.383 79.2891 544.93 78.5859L545.953 79.5625C545.615 80.0677 545.161 80.4609 544.594 80.7422C544.031 81.0182 543.398 81.1562 542.695 81.1562ZM542.469 73.9141C541.948 73.9141 541.526 74.0964 541.203 74.4609C540.885 74.8255 540.682 75.3333 540.594 75.9844H544.211V75.8438C544.169 75.2083 544 74.7292 543.703 74.4062C543.406 74.0781 542.995 73.9141 542.469 73.9141Z" fill="#2097F6"/>
<g filter="url(#filter1_d)">
<rect x="15" y="93" width="150" height="190" rx="10" fill="white"/>
<rect x="15.5" y="93.5" width="149" height="189" rx="9.5" stroke="#E12519"/>
</g>
<g filter="url(#filter2_d)">
<rect x="180" y="93" width="160" height="190" rx="10" fill="white"/>
<rect x="180.5" y="93.5" width="159" height="189" rx="9.5" stroke="#E12519"/>
</g>
<g filter="url(#filter3_d)">
<rect x="385" y="93" width="270" height="190" rx="10" fill="white"/>
<rect x="385.5" y="93.5" width="269" height="189" rx="9.5" stroke="#2097F6"/>
</g>
<path d="M56.9453 113.742H52.0156V117.773H57.7422V119H50.5156V107.625H57.6641V108.859H52.0156V112.516H56.9453V113.742ZM60.75 110.547L60.7969 111.609C61.4427 110.797 62.2865 110.391 63.3281 110.391C65.1146 110.391 66.0156 111.398 66.0312 113.414V119H64.5859V113.406C64.5807 112.797 64.4401 112.346 64.1641 112.055C63.8932 111.763 63.4688 111.617 62.8906 111.617C62.4219 111.617 62.0104 111.742 61.6562 111.992C61.3021 112.242 61.026 112.57 60.8281 112.977V119H59.3828V110.547H60.75ZM70.1719 108.5V110.547H71.75V111.664H70.1719V116.906C70.1719 117.245 70.2422 117.5 70.3828 117.672C70.5234 117.839 70.763 117.922 71.1016 117.922C71.2682 117.922 71.4974 117.891 71.7891 117.828V119C71.4089 119.104 71.0391 119.156 70.6797 119.156C70.0339 119.156 69.5469 118.961 69.2188 118.57C68.8906 118.18 68.7266 117.625 68.7266 116.906V111.664H67.1875V110.547H68.7266V108.5H70.1719ZM77.5312 111.844C77.3125 111.807 77.0755 111.789 76.8203 111.789C75.8724 111.789 75.2292 112.193 74.8906 113V119H73.4453V110.547H74.8516L74.875 111.523C75.349 110.768 76.0208 110.391 76.8906 110.391C77.1719 110.391 77.3854 110.427 77.5312 110.5V111.844ZM81.7734 116.883L83.7422 110.547H85.2891L81.8906 120.305C81.3646 121.711 80.5286 122.414 79.3828 122.414L79.1094 122.391L78.5703 122.289V121.117L78.9609 121.148C79.4505 121.148 79.8307 121.049 80.1016 120.852C80.3776 120.654 80.6042 120.292 80.7812 119.766L81.1016 118.906L78.0859 110.547H79.6641L81.7734 116.883ZM93.7266 114.867C93.7266 116.154 93.4323 117.19 92.8438 117.977C92.2552 118.763 91.4583 119.156 90.4531 119.156C89.4271 119.156 88.6198 118.831 88.0312 118.18V122.25H86.5859V110.547H87.9062L87.9766 111.484C88.5651 110.755 89.3828 110.391 90.4297 110.391C91.4453 110.391 92.2474 110.773 92.8359 111.539C93.4297 112.305 93.7266 113.37 93.7266 114.734V114.867ZM92.2812 114.703C92.2812 113.75 92.0781 112.997 91.6719 112.445C91.2656 111.893 90.7083 111.617 90 111.617C89.125 111.617 88.4688 112.005 88.0312 112.781V116.82C88.4635 117.591 89.125 117.977 90.0156 117.977C90.7083 117.977 91.2578 117.703 91.6641 117.156C92.0755 116.604 92.2812 115.786 92.2812 114.703ZM95.1875 114.695C95.1875 113.867 95.349 113.122 95.6719 112.461C96 111.799 96.4531 111.289 97.0312 110.93C97.6146 110.57 98.2786 110.391 99.0234 110.391C100.174 110.391 101.104 110.789 101.812 111.586C102.526 112.383 102.883 113.443 102.883 114.766V114.867C102.883 115.69 102.724 116.43 102.406 117.086C102.094 117.737 101.643 118.245 101.055 118.609C100.471 118.974 99.7995 119.156 99.0391 119.156C97.8932 119.156 96.9635 118.758 96.25 117.961C95.5417 117.164 95.1875 116.109 95.1875 114.797V114.695ZM96.6406 114.867C96.6406 115.805 96.8568 116.557 97.2891 117.125C97.7266 117.693 98.3099 117.977 99.0391 117.977C99.7734 117.977 100.357 117.69 100.789 117.117C101.221 116.539 101.438 115.732 101.438 114.695C101.438 113.768 101.216 113.018 100.773 112.445C100.336 111.867 99.7526 111.578 99.0234 111.578C98.3099 111.578 97.7344 111.862 97.2969 112.43C96.8594 112.997 96.6406 113.81 96.6406 114.867ZM106.266 119H104.82V110.547H106.266V119ZM104.703 108.305C104.703 108.07 104.773 107.872 104.914 107.711C105.06 107.549 105.273 107.469 105.555 107.469C105.836 107.469 106.049 107.549 106.195 107.711C106.341 107.872 106.414 108.07 106.414 108.305C106.414 108.539 106.341 108.734 106.195 108.891C106.049 109.047 105.836 109.125 105.555 109.125C105.273 109.125 105.06 109.047 104.914 108.891C104.773 108.734 104.703 108.539 104.703 108.305ZM109.953 110.547L110 111.609C110.646 110.797 111.49 110.391 112.531 110.391C114.318 110.391 115.219 111.398 115.234 113.414V119H113.789V113.406C113.784 112.797 113.643 112.346 113.367 112.055C113.096 111.763 112.672 111.617 112.094 111.617C111.625 111.617 111.214 111.742 110.859 111.992C110.505 112.242 110.229 112.57 110.031 112.977V119H108.586V110.547H109.953ZM119.375 108.5V110.547H120.953V111.664H119.375V116.906C119.375 117.245 119.445 117.5 119.586 117.672C119.727 117.839 119.966 117.922 120.305 117.922C120.471 117.922 120.701 117.891 120.992 117.828V119C120.612 119.104 120.242 119.156 119.883 119.156C119.237 119.156 118.75 118.961 118.422 118.57C118.094 118.18 117.93 117.625 117.93 116.906V111.664H116.391V110.547H117.93V108.5H119.375ZM127.57 116.758C127.57 116.367 127.422 116.065 127.125 115.852C126.833 115.633 126.32 115.445 125.586 115.289C124.857 115.133 124.276 114.945 123.844 114.727C123.417 114.508 123.099 114.247 122.891 113.945C122.688 113.643 122.586 113.284 122.586 112.867C122.586 112.174 122.878 111.589 123.461 111.109C124.049 110.63 124.799 110.391 125.711 110.391C126.669 110.391 127.445 110.638 128.039 111.133C128.638 111.628 128.938 112.26 128.938 113.031H127.484C127.484 112.635 127.315 112.294 126.977 112.008C126.643 111.721 126.221 111.578 125.711 111.578C125.185 111.578 124.773 111.693 124.477 111.922C124.18 112.151 124.031 112.451 124.031 112.82C124.031 113.169 124.169 113.432 124.445 113.609C124.721 113.786 125.219 113.956 125.938 114.117C126.661 114.279 127.247 114.471 127.695 114.695C128.143 114.919 128.474 115.19 128.688 115.508C128.906 115.82 129.016 116.203 129.016 116.656C129.016 117.411 128.714 118.018 128.109 118.477C127.505 118.93 126.721 119.156 125.758 119.156C125.081 119.156 124.482 119.036 123.961 118.797C123.44 118.557 123.031 118.224 122.734 117.797C122.443 117.365 122.297 116.898 122.297 116.398H123.742C123.768 116.883 123.961 117.268 124.32 117.555C124.685 117.836 125.164 117.977 125.758 117.977C126.305 117.977 126.742 117.867 127.07 117.648C127.404 117.424 127.57 117.128 127.57 116.758Z" fill="#DE1306"/>
<path d="M496.68 113.93C495.393 113.56 494.456 113.107 493.867 112.57C493.284 112.029 492.992 111.362 492.992 110.57C492.992 109.674 493.349 108.935 494.062 108.352C494.781 107.763 495.714 107.469 496.859 107.469C497.641 107.469 498.336 107.62 498.945 107.922C499.56 108.224 500.034 108.641 500.367 109.172C500.706 109.703 500.875 110.284 500.875 110.914H499.367C499.367 110.227 499.148 109.688 498.711 109.297C498.273 108.901 497.656 108.703 496.859 108.703C496.12 108.703 495.542 108.867 495.125 109.195C494.714 109.518 494.508 109.969 494.508 110.547C494.508 111.01 494.703 111.404 495.094 111.727C495.49 112.044 496.159 112.336 497.102 112.602C498.049 112.867 498.789 113.161 499.32 113.484C499.857 113.802 500.253 114.174 500.508 114.602C500.768 115.029 500.898 115.531 500.898 116.109C500.898 117.031 500.539 117.771 499.82 118.328C499.102 118.88 498.141 119.156 496.938 119.156C496.156 119.156 495.427 119.008 494.75 118.711C494.073 118.409 493.549 117.997 493.18 117.477C492.815 116.956 492.633 116.365 492.633 115.703H494.141C494.141 116.391 494.393 116.935 494.898 117.336C495.409 117.732 496.089 117.93 496.938 117.93C497.729 117.93 498.336 117.768 498.758 117.445C499.18 117.122 499.391 116.682 499.391 116.125C499.391 115.568 499.195 115.138 498.805 114.836C498.414 114.529 497.706 114.227 496.68 113.93ZM504.562 108.5V110.547H506.141V111.664H504.562V116.906C504.562 117.245 504.633 117.5 504.773 117.672C504.914 117.839 505.154 117.922 505.492 117.922C505.659 117.922 505.888 117.891 506.18 117.828V119C505.799 119.104 505.43 119.156 505.07 119.156C504.424 119.156 503.938 118.961 503.609 118.57C503.281 118.18 503.117 117.625 503.117 116.906V111.664H501.578V110.547H503.117V108.5H504.562ZM507.297 114.695C507.297 113.867 507.458 113.122 507.781 112.461C508.109 111.799 508.562 111.289 509.141 110.93C509.724 110.57 510.388 110.391 511.133 110.391C512.284 110.391 513.214 110.789 513.922 111.586C514.635 112.383 514.992 113.443 514.992 114.766V114.867C514.992 115.69 514.833 116.43 514.516 117.086C514.203 117.737 513.753 118.245 513.164 118.609C512.581 118.974 511.909 119.156 511.148 119.156C510.003 119.156 509.073 118.758 508.359 117.961C507.651 117.164 507.297 116.109 507.297 114.797V114.695ZM508.75 114.867C508.75 115.805 508.966 116.557 509.398 117.125C509.836 117.693 510.419 117.977 511.148 117.977C511.883 117.977 512.466 117.69 512.898 117.117C513.331 116.539 513.547 115.732 513.547 114.695C513.547 113.768 513.326 113.018 512.883 112.445C512.445 111.867 511.862 111.578 511.133 111.578C510.419 111.578 509.844 111.862 509.406 112.43C508.969 112.997 508.75 113.81 508.75 114.867ZM520.891 111.844C520.672 111.807 520.435 111.789 520.18 111.789C519.232 111.789 518.589 112.193 518.25 113V119H516.805V110.547H518.211L518.234 111.523C518.708 110.768 519.38 110.391 520.25 110.391C520.531 110.391 520.745 110.427 520.891 110.5V111.844ZM527.133 119C527.049 118.833 526.982 118.536 526.93 118.109C526.258 118.807 525.456 119.156 524.523 119.156C523.69 119.156 523.005 118.922 522.469 118.453C521.938 117.979 521.672 117.38 521.672 116.656C521.672 115.776 522.005 115.094 522.672 114.609C523.344 114.12 524.286 113.875 525.5 113.875H526.906V113.211C526.906 112.706 526.755 112.305 526.453 112.008C526.151 111.706 525.706 111.555 525.117 111.555C524.602 111.555 524.169 111.685 523.82 111.945C523.471 112.206 523.297 112.521 523.297 112.891H521.844C521.844 112.469 521.992 112.062 522.289 111.672C522.591 111.276 522.997 110.964 523.508 110.734C524.023 110.505 524.589 110.391 525.203 110.391C526.177 110.391 526.94 110.635 527.492 111.125C528.044 111.609 528.331 112.279 528.352 113.133V117.023C528.352 117.799 528.451 118.417 528.648 118.875V119H527.133ZM524.734 117.898C525.188 117.898 525.617 117.781 526.023 117.547C526.43 117.312 526.724 117.008 526.906 116.633V114.898H525.773C524.003 114.898 523.117 115.417 523.117 116.453C523.117 116.906 523.268 117.26 523.57 117.516C523.872 117.771 524.26 117.898 524.734 117.898ZM530.273 114.703C530.273 113.385 530.578 112.339 531.188 111.562C531.797 110.781 532.604 110.391 533.609 110.391C534.641 110.391 535.445 110.755 536.023 111.484L536.094 110.547H537.414V118.797C537.414 119.891 537.089 120.753 536.438 121.383C535.792 122.013 534.922 122.328 533.828 122.328C533.219 122.328 532.622 122.198 532.039 121.938C531.456 121.677 531.01 121.32 530.703 120.867L531.453 120C532.073 120.766 532.831 121.148 533.727 121.148C534.43 121.148 534.977 120.951 535.367 120.555C535.763 120.159 535.961 119.602 535.961 118.883V118.156C535.383 118.823 534.594 119.156 533.594 119.156C532.604 119.156 531.802 118.758 531.188 117.961C530.578 117.164 530.273 116.078 530.273 114.703ZM531.727 114.867C531.727 115.82 531.922 116.57 532.312 117.117C532.703 117.659 533.25 117.93 533.953 117.93C534.865 117.93 535.534 117.516 535.961 116.688V112.828C535.518 112.021 534.854 111.617 533.969 111.617C533.266 111.617 532.716 111.891 532.32 112.438C531.924 112.984 531.727 113.794 531.727 114.867ZM543.109 119.156C541.964 119.156 541.031 118.781 540.312 118.031C539.594 117.276 539.234 116.268 539.234 115.008V114.742C539.234 113.904 539.393 113.156 539.711 112.5C540.034 111.839 540.482 111.323 541.055 110.953C541.633 110.578 542.258 110.391 542.93 110.391C544.029 110.391 544.883 110.753 545.492 111.477C546.102 112.201 546.406 113.237 546.406 114.586V115.188H540.68C540.701 116.021 540.943 116.695 541.406 117.211C541.875 117.721 542.469 117.977 543.188 117.977C543.698 117.977 544.13 117.872 544.484 117.664C544.839 117.456 545.148 117.18 545.414 116.836L546.297 117.523C545.589 118.612 544.526 119.156 543.109 119.156ZM542.93 111.578C542.346 111.578 541.857 111.792 541.461 112.219C541.065 112.641 540.82 113.234 540.727 114H544.961V113.891C544.919 113.156 544.721 112.589 544.367 112.188C544.013 111.781 543.534 111.578 542.93 111.578Z" fill="#2097F6"/>
<path d="M412.43 132.625L416.148 141.906L419.867 132.625H421.812V144H420.312V139.57L420.453 134.789L416.719 144H415.57L411.844 134.812L411.992 139.57V144H410.492V132.625H412.43ZM429.453 144C429.37 143.833 429.302 143.536 429.25 143.109C428.578 143.807 427.776 144.156 426.844 144.156C426.01 144.156 425.326 143.922 424.789 143.453C424.258 142.979 423.992 142.38 423.992 141.656C423.992 140.776 424.326 140.094 424.992 139.609C425.664 139.12 426.607 138.875 427.82 138.875H429.227V138.211C429.227 137.706 429.076 137.305 428.773 137.008C428.471 136.706 428.026 136.555 427.438 136.555C426.922 136.555 426.49 136.685 426.141 136.945C425.792 137.206 425.617 137.521 425.617 137.891H424.164C424.164 137.469 424.312 137.062 424.609 136.672C424.911 136.276 425.318 135.964 425.828 135.734C426.344 135.505 426.909 135.391 427.523 135.391C428.497 135.391 429.26 135.635 429.812 136.125C430.365 136.609 430.651 137.279 430.672 138.133V142.023C430.672 142.799 430.771 143.417 430.969 143.875V144H429.453ZM427.055 142.898C427.508 142.898 427.938 142.781 428.344 142.547C428.75 142.312 429.044 142.008 429.227 141.633V139.898H428.094C426.323 139.898 425.438 140.417 425.438 141.453C425.438 141.906 425.589 142.26 425.891 142.516C426.193 142.771 426.581 142.898 427.055 142.898ZM440.078 139.867C440.078 141.154 439.784 142.19 439.195 142.977C438.607 143.763 437.81 144.156 436.805 144.156C435.779 144.156 434.971 143.831 434.383 143.18V147.25H432.938V135.547H434.258L434.328 136.484C434.917 135.755 435.734 135.391 436.781 135.391C437.797 135.391 438.599 135.773 439.188 136.539C439.781 137.305 440.078 138.37 440.078 139.734V139.867ZM438.633 139.703C438.633 138.75 438.43 137.997 438.023 137.445C437.617 136.893 437.06 136.617 436.352 136.617C435.477 136.617 434.82 137.005 434.383 137.781V141.82C434.815 142.591 435.477 142.977 436.367 142.977C437.06 142.977 437.609 142.703 438.016 142.156C438.427 141.604 438.633 140.786 438.633 139.703Z" fill="#2097F6"/>
<path d="M251.156 115.391C251.016 116.594 250.57 117.523 249.82 118.18C249.076 118.831 248.083 119.156 246.844 119.156C245.5 119.156 244.422 118.674 243.609 117.711C242.802 116.747 242.398 115.458 242.398 113.844V112.75C242.398 111.693 242.586 110.763 242.961 109.961C243.341 109.159 243.878 108.544 244.57 108.117C245.263 107.685 246.065 107.469 246.977 107.469C248.185 107.469 249.154 107.807 249.883 108.484C250.612 109.156 251.036 110.089 251.156 111.281H249.648C249.518 110.375 249.234 109.719 248.797 109.312C248.365 108.906 247.758 108.703 246.977 108.703C246.018 108.703 245.266 109.057 244.719 109.766C244.177 110.474 243.906 111.482 243.906 112.789V113.891C243.906 115.125 244.164 116.107 244.68 116.836C245.195 117.565 245.917 117.93 246.844 117.93C247.677 117.93 248.315 117.742 248.758 117.367C249.206 116.987 249.503 116.328 249.648 115.391H251.156ZM252.602 114.695C252.602 113.867 252.763 113.122 253.086 112.461C253.414 111.799 253.867 111.289 254.445 110.93C255.029 110.57 255.693 110.391 256.438 110.391C257.589 110.391 258.518 110.789 259.227 111.586C259.94 112.383 260.297 113.443 260.297 114.766V114.867C260.297 115.69 260.138 116.43 259.82 117.086C259.508 117.737 259.057 118.245 258.469 118.609C257.885 118.974 257.214 119.156 256.453 119.156C255.307 119.156 254.378 118.758 253.664 117.961C252.956 117.164 252.602 116.109 252.602 114.797V114.695ZM254.055 114.867C254.055 115.805 254.271 116.557 254.703 117.125C255.141 117.693 255.724 117.977 256.453 117.977C257.188 117.977 257.771 117.69 258.203 117.117C258.635 116.539 258.852 115.732 258.852 114.695C258.852 113.768 258.63 113.018 258.188 112.445C257.75 111.867 257.167 111.578 256.438 111.578C255.724 111.578 255.148 111.862 254.711 112.43C254.273 112.997 254.055 113.81 254.055 114.867ZM261.758 114.703C261.758 113.406 262.065 112.365 262.68 111.578C263.294 110.786 264.099 110.391 265.094 110.391C266.083 110.391 266.867 110.729 267.445 111.406V107H268.891V119H267.562L267.492 118.094C266.914 118.802 266.109 119.156 265.078 119.156C264.099 119.156 263.299 118.755 262.68 117.953C262.065 117.151 261.758 116.104 261.758 114.812V114.703ZM263.203 114.867C263.203 115.826 263.401 116.576 263.797 117.117C264.193 117.659 264.74 117.93 265.438 117.93C266.354 117.93 267.023 117.518 267.445 116.695V112.812C267.013 112.016 266.349 111.617 265.453 111.617C264.745 111.617 264.193 111.891 263.797 112.438C263.401 112.984 263.203 113.794 263.203 114.867ZM274.648 119.156C273.503 119.156 272.57 118.781 271.852 118.031C271.133 117.276 270.773 116.268 270.773 115.008V114.742C270.773 113.904 270.932 113.156 271.25 112.5C271.573 111.839 272.021 111.323 272.594 110.953C273.172 110.578 273.797 110.391 274.469 110.391C275.568 110.391 276.422 110.753 277.031 111.477C277.641 112.201 277.945 113.237 277.945 114.586V115.188H272.219C272.24 116.021 272.482 116.695 272.945 117.211C273.414 117.721 274.008 117.977 274.727 117.977C275.237 117.977 275.669 117.872 276.023 117.664C276.378 117.456 276.688 117.18 276.953 116.836L277.836 117.523C277.128 118.612 276.065 119.156 274.648 119.156ZM274.469 111.578C273.885 111.578 273.396 111.792 273 112.219C272.604 112.641 272.359 113.234 272.266 114H276.5V113.891C276.458 113.156 276.26 112.589 275.906 112.188C275.552 111.781 275.073 111.578 274.469 111.578Z" fill="#DE1306"/>
<g filter="url(#filter4_d)">
<rect x="25" y="147" width="130" height="31" rx="10" fill="white"/>
<rect x="25.5" y="147.5" width="129" height="30" rx="9.5" stroke="#E12519"/>
</g>
<path d="M55.0938 161.742H50.1641V165.773H55.8906V167H48.6641V155.625H55.8125V156.859H50.1641V160.516H55.0938V161.742ZM58.8984 158.547L58.9453 159.609C59.5911 158.797 60.4349 158.391 61.4766 158.391C63.263 158.391 64.1641 159.398 64.1797 161.414V167H62.7344V161.406C62.7292 160.797 62.5885 160.346 62.3125 160.055C62.0417 159.763 61.6172 159.617 61.0391 159.617C60.5703 159.617 60.1589 159.742 59.8047 159.992C59.4505 160.242 59.1745 160.57 58.9766 160.977V167H57.5312V158.547H58.8984ZM68.3203 156.5V158.547H69.8984V159.664H68.3203V164.906C68.3203 165.245 68.3906 165.5 68.5312 165.672C68.6719 165.839 68.9115 165.922 69.25 165.922C69.4167 165.922 69.6458 165.891 69.9375 165.828V167C69.5573 167.104 69.1875 167.156 68.8281 167.156C68.1823 167.156 67.6953 166.961 67.3672 166.57C67.0391 166.18 66.875 165.625 66.875 164.906V159.664H65.3359V158.547H66.875V156.5H68.3203ZM75.6797 159.844C75.4609 159.807 75.224 159.789 74.9688 159.789C74.0208 159.789 73.3776 160.193 73.0391 161V167H71.5938V158.547H73L73.0234 159.523C73.4974 158.768 74.1693 158.391 75.0391 158.391C75.3203 158.391 75.5339 158.427 75.6797 158.5V159.844ZM79.9219 164.883L81.8906 158.547H83.4375L80.0391 168.305C79.513 169.711 78.6771 170.414 77.5312 170.414L77.2578 170.391L76.7188 170.289V169.117L77.1094 169.148C77.599 169.148 77.9792 169.049 78.25 168.852C78.526 168.654 78.7526 168.292 78.9297 167.766L79.25 166.906L76.2344 158.547H77.8125L79.9219 164.883ZM91.875 162.867C91.875 164.154 91.5807 165.19 90.9922 165.977C90.4036 166.763 89.6068 167.156 88.6016 167.156C87.5755 167.156 86.7682 166.831 86.1797 166.18V170.25H84.7344V158.547H86.0547L86.125 159.484C86.7135 158.755 87.5312 158.391 88.5781 158.391C89.5938 158.391 90.3958 158.773 90.9844 159.539C91.5781 160.305 91.875 161.37 91.875 162.734V162.867ZM90.4297 162.703C90.4297 161.75 90.2266 160.997 89.8203 160.445C89.4141 159.893 88.8568 159.617 88.1484 159.617C87.2734 159.617 86.6172 160.005 86.1797 160.781V164.82C86.612 165.591 87.2734 165.977 88.1641 165.977C88.8568 165.977 89.4062 165.703 89.8125 165.156C90.224 164.604 90.4297 163.786 90.4297 162.703ZM93.3359 162.695C93.3359 161.867 93.4974 161.122 93.8203 160.461C94.1484 159.799 94.6016 159.289 95.1797 158.93C95.763 158.57 96.4271 158.391 97.1719 158.391C98.3229 158.391 99.2526 158.789 99.9609 159.586C100.674 160.383 101.031 161.443 101.031 162.766V162.867C101.031 163.69 100.872 164.43 100.555 165.086C100.242 165.737 99.7917 166.245 99.2031 166.609C98.6198 166.974 97.9479 167.156 97.1875 167.156C96.0417 167.156 95.112 166.758 94.3984 165.961C93.6901 165.164 93.3359 164.109 93.3359 162.797V162.695ZM94.7891 162.867C94.7891 163.805 95.0052 164.557 95.4375 165.125C95.875 165.693 96.4583 165.977 97.1875 165.977C97.9219 165.977 98.5052 165.69 98.9375 165.117C99.3698 164.539 99.5859 163.732 99.5859 162.695C99.5859 161.768 99.3646 161.018 98.9219 160.445C98.4844 159.867 97.901 159.578 97.1719 159.578C96.4583 159.578 95.8828 159.862 95.4453 160.43C95.0078 160.997 94.7891 161.81 94.7891 162.867ZM104.414 167H102.969V158.547H104.414V167ZM102.852 156.305C102.852 156.07 102.922 155.872 103.062 155.711C103.208 155.549 103.422 155.469 103.703 155.469C103.984 155.469 104.198 155.549 104.344 155.711C104.49 155.872 104.562 156.07 104.562 156.305C104.562 156.539 104.49 156.734 104.344 156.891C104.198 157.047 103.984 157.125 103.703 157.125C103.422 157.125 103.208 157.047 103.062 156.891C102.922 156.734 102.852 156.539 102.852 156.305ZM108.102 158.547L108.148 159.609C108.794 158.797 109.638 158.391 110.68 158.391C112.466 158.391 113.367 159.398 113.383 161.414V167H111.938V161.406C111.932 160.797 111.792 160.346 111.516 160.055C111.245 159.763 110.82 159.617 110.242 159.617C109.773 159.617 109.362 159.742 109.008 159.992C108.654 160.242 108.378 160.57 108.18 160.977V167H106.734V158.547H108.102ZM117.523 156.5V158.547H119.102V159.664H117.523V164.906C117.523 165.245 117.594 165.5 117.734 165.672C117.875 165.839 118.115 165.922 118.453 165.922C118.62 165.922 118.849 165.891 119.141 165.828V167C118.76 167.104 118.391 167.156 118.031 167.156C117.385 167.156 116.898 166.961 116.57 166.57C116.242 166.18 116.078 165.625 116.078 164.906V159.664H114.539V158.547H116.078V156.5H117.523ZM129.367 167H127.914V157.367L125 158.438V157.125L129.141 155.57H129.367V167Z" fill="#DE1306"/>
<g filter="url(#filter5_d)">
<rect x="190" y="167" width="140" height="31" rx="10" fill="white"/>
<rect x="190.5" y="167.5" width="139" height="30" rx="9.5" stroke="#E12519"/>
</g>
<path d="M220.477 185.008L223.727 175.625H225.367L221.148 187H219.82L215.609 175.625H217.242L220.477 185.008ZM229.836 187.156C228.69 187.156 227.758 186.781 227.039 186.031C226.32 185.276 225.961 184.268 225.961 183.008V182.742C225.961 181.904 226.12 181.156 226.438 180.5C226.76 179.839 227.208 179.323 227.781 178.953C228.359 178.578 228.984 178.391 229.656 178.391C230.755 178.391 231.609 178.753 232.219 179.477C232.828 180.201 233.133 181.237 233.133 182.586V183.188H227.406C227.427 184.021 227.669 184.695 228.133 185.211C228.602 185.721 229.195 185.977 229.914 185.977C230.424 185.977 230.857 185.872 231.211 185.664C231.565 185.456 231.875 185.18 232.141 184.836L233.023 185.523C232.315 186.612 231.253 187.156 229.836 187.156ZM229.656 179.578C229.073 179.578 228.583 179.792 228.188 180.219C227.792 180.641 227.547 181.234 227.453 182H231.688V181.891C231.646 181.156 231.448 180.589 231.094 180.188C230.74 179.781 230.26 179.578 229.656 179.578ZM238.898 179.844C238.68 179.807 238.443 179.789 238.188 179.789C237.24 179.789 236.596 180.193 236.258 181V187H234.812V178.547H236.219L236.242 179.523C236.716 178.768 237.388 178.391 238.258 178.391C238.539 178.391 238.753 178.427 238.898 178.5V179.844ZM245.156 184.758C245.156 184.367 245.008 184.065 244.711 183.852C244.419 183.633 243.906 183.445 243.172 183.289C242.443 183.133 241.862 182.945 241.43 182.727C241.003 182.508 240.685 182.247 240.477 181.945C240.273 181.643 240.172 181.284 240.172 180.867C240.172 180.174 240.464 179.589 241.047 179.109C241.635 178.63 242.385 178.391 243.297 178.391C244.255 178.391 245.031 178.638 245.625 179.133C246.224 179.628 246.523 180.26 246.523 181.031H245.07C245.07 180.635 244.901 180.294 244.562 180.008C244.229 179.721 243.807 179.578 243.297 179.578C242.771 179.578 242.359 179.693 242.062 179.922C241.766 180.151 241.617 180.451 241.617 180.82C241.617 181.169 241.755 181.432 242.031 181.609C242.307 181.786 242.805 181.956 243.523 182.117C244.247 182.279 244.833 182.471 245.281 182.695C245.729 182.919 246.06 183.19 246.273 183.508C246.492 183.82 246.602 184.203 246.602 184.656C246.602 185.411 246.299 186.018 245.695 186.477C245.091 186.93 244.307 187.156 243.344 187.156C242.667 187.156 242.068 187.036 241.547 186.797C241.026 186.557 240.617 186.224 240.32 185.797C240.029 185.365 239.883 184.898 239.883 184.398H241.328C241.354 184.883 241.547 185.268 241.906 185.555C242.271 185.836 242.75 185.977 243.344 185.977C243.891 185.977 244.328 185.867 244.656 185.648C244.99 185.424 245.156 185.128 245.156 184.758ZM250.055 187H248.609V178.547H250.055V187ZM248.492 176.305C248.492 176.07 248.562 175.872 248.703 175.711C248.849 175.549 249.062 175.469 249.344 175.469C249.625 175.469 249.839 175.549 249.984 175.711C250.13 175.872 250.203 176.07 250.203 176.305C250.203 176.539 250.13 176.734 249.984 176.891C249.839 177.047 249.625 177.125 249.344 177.125C249.062 177.125 248.849 177.047 248.703 176.891C248.562 176.734 248.492 176.539 248.492 176.305ZM251.992 182.695C251.992 181.867 252.154 181.122 252.477 180.461C252.805 179.799 253.258 179.289 253.836 178.93C254.419 178.57 255.083 178.391 255.828 178.391C256.979 178.391 257.909 178.789 258.617 179.586C259.331 180.383 259.688 181.443 259.688 182.766V182.867C259.688 183.69 259.529 184.43 259.211 185.086C258.898 185.737 258.448 186.245 257.859 186.609C257.276 186.974 256.604 187.156 255.844 187.156C254.698 187.156 253.768 186.758 253.055 185.961C252.346 185.164 251.992 184.109 251.992 182.797V182.695ZM253.445 182.867C253.445 183.805 253.661 184.557 254.094 185.125C254.531 185.693 255.115 185.977 255.844 185.977C256.578 185.977 257.161 185.69 257.594 185.117C258.026 184.539 258.242 183.732 258.242 182.695C258.242 181.768 258.021 181.018 257.578 180.445C257.141 179.867 256.557 179.578 255.828 179.578C255.115 179.578 254.539 179.862 254.102 180.43C253.664 180.997 253.445 181.81 253.445 182.867ZM262.867 178.547L262.914 179.609C263.56 178.797 264.404 178.391 265.445 178.391C267.232 178.391 268.133 179.398 268.148 181.414V187H266.703V181.406C266.698 180.797 266.557 180.346 266.281 180.055C266.01 179.763 265.586 179.617 265.008 179.617C264.539 179.617 264.128 179.742 263.773 179.992C263.419 180.242 263.143 180.57 262.945 180.977V187H261.5V178.547H262.867Z" fill="#DE1306"/>
<path d="M281.266 181.172H274.281V179.328H281.266V181.172ZM281.266 184.555H274.281V182.711H281.266V184.555Z" fill="#FF5A43"/>
<path d="M290.391 184.242L291.961 178.547H294.32L291.469 187H289.312L286.461 178.547H288.82L290.391 184.242ZM299.031 182.438L297.812 183.75V187H295.469V175.625H297.812V180.781L298.844 179.367L301.742 175.625H304.625L300.586 180.68L304.742 187H301.953L299.031 182.438Z" fill="#2097F6"/>
<g filter="url(#filter6_d)">
<rect x="25" y="183" width="130" height="31" rx="10" fill="white"/>
<rect x="25.5" y="183.5" width="129" height="30" rx="9.5" stroke="#E12519"/>
</g>
<path d="M55.0938 197.742H50.1641V201.773H55.8906V203H48.6641V191.625H55.8125V192.859H50.1641V196.516H55.0938V197.742ZM58.8984 194.547L58.9453 195.609C59.5911 194.797 60.4349 194.391 61.4766 194.391C63.263 194.391 64.1641 195.398 64.1797 197.414V203H62.7344V197.406C62.7292 196.797 62.5885 196.346 62.3125 196.055C62.0417 195.763 61.6172 195.617 61.0391 195.617C60.5703 195.617 60.1589 195.742 59.8047 195.992C59.4505 196.242 59.1745 196.57 58.9766 196.977V203H57.5312V194.547H58.8984ZM68.3203 192.5V194.547H69.8984V195.664H68.3203V200.906C68.3203 201.245 68.3906 201.5 68.5312 201.672C68.6719 201.839 68.9115 201.922 69.25 201.922C69.4167 201.922 69.6458 201.891 69.9375 201.828V203C69.5573 203.104 69.1875 203.156 68.8281 203.156C68.1823 203.156 67.6953 202.961 67.3672 202.57C67.0391 202.18 66.875 201.625 66.875 200.906V195.664H65.3359V194.547H66.875V192.5H68.3203ZM75.6797 195.844C75.4609 195.807 75.224 195.789 74.9688 195.789C74.0208 195.789 73.3776 196.193 73.0391 197V203H71.5938V194.547H73L73.0234 195.523C73.4974 194.768 74.1693 194.391 75.0391 194.391C75.3203 194.391 75.5339 194.427 75.6797 194.5V195.844ZM79.9219 200.883L81.8906 194.547H83.4375L80.0391 204.305C79.513 205.711 78.6771 206.414 77.5312 206.414L77.2578 206.391L76.7188 206.289V205.117L77.1094 205.148C77.599 205.148 77.9792 205.049 78.25 204.852C78.526 204.654 78.7526 204.292 78.9297 203.766L79.25 202.906L76.2344 194.547H77.8125L79.9219 200.883ZM91.875 198.867C91.875 200.154 91.5807 201.19 90.9922 201.977C90.4036 202.763 89.6068 203.156 88.6016 203.156C87.5755 203.156 86.7682 202.831 86.1797 202.18V206.25H84.7344V194.547H86.0547L86.125 195.484C86.7135 194.755 87.5312 194.391 88.5781 194.391C89.5938 194.391 90.3958 194.773 90.9844 195.539C91.5781 196.305 91.875 197.37 91.875 198.734V198.867ZM90.4297 198.703C90.4297 197.75 90.2266 196.997 89.8203 196.445C89.4141 195.893 88.8568 195.617 88.1484 195.617C87.2734 195.617 86.6172 196.005 86.1797 196.781V200.82C86.612 201.591 87.2734 201.977 88.1641 201.977C88.8568 201.977 89.4062 201.703 89.8125 201.156C90.224 200.604 90.4297 199.786 90.4297 198.703ZM93.3359 198.695C93.3359 197.867 93.4974 197.122 93.8203 196.461C94.1484 195.799 94.6016 195.289 95.1797 194.93C95.763 194.57 96.4271 194.391 97.1719 194.391C98.3229 194.391 99.2526 194.789 99.9609 195.586C100.674 196.383 101.031 197.443 101.031 198.766V198.867C101.031 199.69 100.872 200.43 100.555 201.086C100.242 201.737 99.7917 202.245 99.2031 202.609C98.6198 202.974 97.9479 203.156 97.1875 203.156C96.0417 203.156 95.112 202.758 94.3984 201.961C93.6901 201.164 93.3359 200.109 93.3359 198.797V198.695ZM94.7891 198.867C94.7891 199.805 95.0052 200.557 95.4375 201.125C95.875 201.693 96.4583 201.977 97.1875 201.977C97.9219 201.977 98.5052 201.69 98.9375 201.117C99.3698 200.539 99.5859 199.732 99.5859 198.695C99.5859 197.768 99.3646 197.018 98.9219 196.445C98.4844 195.867 97.901 195.578 97.1719 195.578C96.4583 195.578 95.8828 195.862 95.4453 196.43C95.0078 196.997 94.7891 197.81 94.7891 198.867ZM104.414 203H102.969V194.547H104.414V203ZM102.852 192.305C102.852 192.07 102.922 191.872 103.062 191.711C103.208 191.549 103.422 191.469 103.703 191.469C103.984 191.469 104.198 191.549 104.344 191.711C104.49 191.872 104.562 192.07 104.562 192.305C104.562 192.539 104.49 192.734 104.344 192.891C104.198 193.047 103.984 193.125 103.703 193.125C103.422 193.125 103.208 193.047 103.062 192.891C102.922 192.734 102.852 192.539 102.852 192.305ZM108.102 194.547L108.148 195.609C108.794 194.797 109.638 194.391 110.68 194.391C112.466 194.391 113.367 195.398 113.383 197.414V203H111.938V197.406C111.932 196.797 111.792 196.346 111.516 196.055C111.245 195.763 110.82 195.617 110.242 195.617C109.773 195.617 109.362 195.742 109.008 195.992C108.654 196.242 108.378 196.57 108.18 196.977V203H106.734V194.547H108.102ZM117.523 192.5V194.547H119.102V195.664H117.523V200.906C117.523 201.245 117.594 201.5 117.734 201.672C117.875 201.839 118.115 201.922 118.453 201.922C118.62 201.922 118.849 201.891 119.141 201.828V203C118.76 203.104 118.391 203.156 118.031 203.156C117.385 203.156 116.898 202.961 116.57 202.57C116.242 202.18 116.078 201.625 116.078 200.906V195.664H114.539V194.547H116.078V192.5H117.523ZM132.07 203H124.617V201.961L128.555 197.586C129.138 196.924 129.539 196.388 129.758 195.977C129.982 195.56 130.094 195.13 130.094 194.688C130.094 194.094 129.914 193.607 129.555 193.227C129.195 192.846 128.716 192.656 128.117 192.656C127.398 192.656 126.839 192.862 126.438 193.273C126.042 193.68 125.844 194.247 125.844 194.977H124.398C124.398 193.93 124.734 193.083 125.406 192.438C126.083 191.792 126.987 191.469 128.117 191.469C129.174 191.469 130.01 191.747 130.625 192.305C131.24 192.857 131.547 193.594 131.547 194.516C131.547 195.635 130.833 196.969 129.406 198.516L126.359 201.82H132.07V203Z" fill="#DE1306"/>
<path d="M84.2969 264.242C84.2969 263.992 84.3698 263.784 84.5156 263.617C84.6667 263.451 84.8906 263.367 85.1875 263.367C85.4844 263.367 85.7083 263.451 85.8594 263.617C86.0156 263.784 86.0938 263.992 86.0938 264.242C86.0938 264.482 86.0156 264.682 85.8594 264.844C85.7083 265.005 85.4844 265.086 85.1875 265.086C84.8906 265.086 84.6667 265.005 84.5156 264.844C84.3698 264.682 84.2969 264.482 84.2969 264.242ZM88.5156 264.242C88.5156 263.992 88.5885 263.784 88.7344 263.617C88.8854 263.451 89.1094 263.367 89.4062 263.367C89.7031 263.367 89.9271 263.451 90.0781 263.617C90.2344 263.784 90.3125 263.992 90.3125 264.242C90.3125 264.482 90.2344 264.682 90.0781 264.844C89.9271 265.005 89.7031 265.086 89.4062 265.086C89.1094 265.086 88.8854 265.005 88.7344 264.844C88.5885 264.682 88.5156 264.482 88.5156 264.242ZM92.7344 264.242C92.7344 263.992 92.8073 263.784 92.9531 263.617C93.1042 263.451 93.3281 263.367 93.625 263.367C93.9219 263.367 94.1458 263.451 94.2969 263.617C94.4531 263.784 94.5312 263.992 94.5312 264.242C94.5312 264.482 94.4531 264.682 94.2969 264.844C94.1458 265.005 93.9219 265.086 93.625 265.086C93.3281 265.086 93.1042 265.005 92.9531 264.844C92.8073 264.682 92.7344 264.482 92.7344 264.242Z" fill="#DE1306"/>
<path d="M84.2969 236.242C84.2969 235.992 84.3698 235.784 84.5156 235.617C84.6667 235.451 84.8906 235.367 85.1875 235.367C85.4844 235.367 85.7083 235.451 85.8594 235.617C86.0156 235.784 86.0938 235.992 86.0938 236.242C86.0938 236.482 86.0156 236.682 85.8594 236.844C85.7083 237.005 85.4844 237.086 85.1875 237.086C84.8906 237.086 84.6667 237.005 84.5156 236.844C84.3698 236.682 84.2969 236.482 84.2969 236.242ZM88.5156 236.242C88.5156 235.992 88.5885 235.784 88.7344 235.617C88.8854 235.451 89.1094 235.367 89.4062 235.367C89.7031 235.367 89.9271 235.451 90.0781 235.617C90.2344 235.784 90.3125 235.992 90.3125 236.242C90.3125 236.482 90.2344 236.682 90.0781 236.844C89.9271 237.005 89.7031 237.086 89.4062 237.086C89.1094 237.086 88.8854 237.005 88.7344 236.844C88.5885 236.682 88.5156 236.482 88.5156 236.242ZM92.7344 236.242C92.7344 235.992 92.8073 235.784 92.9531 235.617C93.1042 235.451 93.3281 235.367 93.625 235.367C93.9219 235.367 94.1458 235.451 94.2969 235.617C94.4531 235.784 94.5312 235.992 94.5312 236.242C94.5312 236.482 94.4531 236.682 94.2969 236.844C94.1458 237.005 93.9219 237.086 93.625 237.086C93.3281 237.086 93.1042 237.005 92.9531 236.844C92.8073 236.682 92.7344 236.482 92.7344 236.242Z" fill="#DE1306"/>
<path d="M249.297 264.242C249.297 263.992 249.37 263.784 249.516 263.617C249.667 263.451 249.891 263.367 250.188 263.367C250.484 263.367 250.708 263.451 250.859 263.617C251.016 263.784 251.094 263.992 251.094 264.242C251.094 264.482 251.016 264.682 250.859 264.844C250.708 265.005 250.484 265.086 250.188 265.086C249.891 265.086 249.667 265.005 249.516 264.844C249.37 264.682 249.297 264.482 249.297 264.242ZM253.516 264.242C253.516 263.992 253.589 263.784 253.734 263.617C253.885 263.451 254.109 263.367 254.406 263.367C254.703 263.367 254.927 263.451 255.078 263.617C255.234 263.784 255.312 263.992 255.312 264.242C255.312 264.482 255.234 264.682 255.078 264.844C254.927 265.005 254.703 265.086 254.406 265.086C254.109 265.086 253.885 265.005 253.734 264.844C253.589 264.682 253.516 264.482 253.516 264.242ZM257.734 264.242C257.734 263.992 257.807 263.784 257.953 263.617C258.104 263.451 258.328 263.367 258.625 263.367C258.922 263.367 259.146 263.451 259.297 263.617C259.453 263.784 259.531 263.992 259.531 264.242C259.531 264.482 259.453 264.682 259.297 264.844C259.146 265.005 258.922 265.086 258.625 265.086C258.328 265.086 258.104 265.005 257.953 264.844C257.807 264.682 257.734 264.482 257.734 264.242Z" fill="#DE1306"/>
<path d="M519.242 209.703C518.992 209.703 518.784 209.63 518.617 209.484C518.451 209.333 518.367 209.109 518.367 208.812C518.367 208.516 518.451 208.292 518.617 208.141C518.784 207.984 518.992 207.906 519.242 207.906C519.482 207.906 519.682 207.984 519.844 208.141C520.005 208.292 520.086 208.516 520.086 208.812C520.086 209.109 520.005 209.333 519.844 209.484C519.682 209.63 519.482 209.703 519.242 209.703ZM519.242 205.484C518.992 205.484 518.784 205.411 518.617 205.266C518.451 205.115 518.367 204.891 518.367 204.594C518.367 204.297 518.451 204.073 518.617 203.922C518.784 203.766 518.992 203.688 519.242 203.688C519.482 203.688 519.682 203.766 519.844 203.922C520.005 204.073 520.086 204.297 520.086 204.594C520.086 204.891 520.005 205.115 519.844 205.266C519.682 205.411 519.482 205.484 519.242 205.484ZM519.242 201.266C518.992 201.266 518.784 201.193 518.617 201.047C518.451 200.896 518.367 200.672 518.367 200.375C518.367 200.078 518.451 199.854 518.617 199.703C518.784 199.547 518.992 199.469 519.242 199.469C519.482 199.469 519.682 199.547 519.844 199.703C520.005 199.854 520.086 200.078 520.086 200.375C520.086 200.672 520.005 200.896 519.844 201.047C519.682 201.193 519.482 201.266 519.242 201.266Z" fill="#2097F6"/>
<path d="M519.242 249.703C518.992 249.703 518.784 249.63 518.617 249.484C518.451 249.333 518.367 249.109 518.367 248.812C518.367 248.516 518.451 248.292 518.617 248.141C518.784 247.984 518.992 247.906 519.242 247.906C519.482 247.906 519.682 247.984 519.844 248.141C520.005 248.292 520.086 248.516 520.086 248.812C520.086 249.109 520.005 249.333 519.844 249.484C519.682 249.63 519.482 249.703 519.242 249.703ZM519.242 245.484C518.992 245.484 518.784 245.411 518.617 245.266C518.451 245.115 518.367 244.891 518.367 244.594C518.367 244.297 518.451 244.073 518.617 243.922C518.784 243.766 518.992 243.688 519.242 243.688C519.482 243.688 519.682 243.766 519.844 243.922C520.005 244.073 520.086 244.297 520.086 244.594C520.086 244.891 520.005 245.115 519.844 245.266C519.682 245.411 519.482 245.484 519.242 245.484ZM519.242 241.266C518.992 241.266 518.784 241.193 518.617 241.047C518.451 240.896 518.367 240.672 518.367 240.375C518.367 240.078 518.451 239.854 518.617 239.703C518.784 239.547 518.992 239.469 519.242 239.469C519.482 239.469 519.682 239.547 519.844 239.703C520.005 239.854 520.086 240.078 520.086 240.375C520.086 240.672 520.005 240.896 519.844 241.047C519.682 241.193 519.482 241.266 519.242 241.266Z" fill="#2097F6"/>
<path d="M519.917 150.5H519.417V151V172V172.5H519.917H637C641.694 172.5 645.5 168.694 645.5 164V159C645.5 154.306 641.694 150.5 637 150.5H519.917Z" fill="white"/>
<path d="M519.917 150.5H519.417V151V172V172.5H519.917H637C641.694 172.5 645.5 168.694 645.5 164V159C645.5 154.306 641.694 150.5 637 150.5H519.917Z" stroke="#2097F6"/>
<path d="M519.083 172.5H519.583V172V151V150.5H519.083H402C397.306 150.5 393.5 154.306 393.5 159V164C393.5 168.694 397.306 172.5 402 172.5H519.083Z" fill="white"/>
<path d="M519.083 172.5H519.583V172V151V150.5H519.083H402C397.306 150.5 393.5 154.306 393.5 159V164C393.5 168.694 397.306 172.5 402 172.5H519.083Z" stroke="#2097F6"/>
<path d="M552.75 164.031H547.984L546.914 167H545.367L549.711 155.625H551.023L555.375 167H553.836L552.75 164.031ZM548.438 162.797H552.305L550.367 157.477L548.438 162.797ZM556.328 162.703C556.328 161.406 556.635 160.365 557.25 159.578C557.865 158.786 558.669 158.391 559.664 158.391C560.654 158.391 561.438 158.729 562.016 159.406V155H563.461V167H562.133L562.062 166.094C561.484 166.802 560.68 167.156 559.648 167.156C558.669 167.156 557.87 166.755 557.25 165.953C556.635 165.151 556.328 164.104 556.328 162.812V162.703ZM557.773 162.867C557.773 163.826 557.971 164.576 558.367 165.117C558.763 165.659 559.31 165.93 560.008 165.93C560.924 165.93 561.594 165.518 562.016 164.695V160.812C561.583 160.016 560.919 159.617 560.023 159.617C559.315 159.617 558.763 159.891 558.367 160.438C557.971 160.984 557.773 161.794 557.773 162.867ZM565.359 162.703C565.359 161.406 565.667 160.365 566.281 159.578C566.896 158.786 567.701 158.391 568.695 158.391C569.685 158.391 570.469 158.729 571.047 159.406V155H572.492V167H571.164L571.094 166.094C570.516 166.802 569.711 167.156 568.68 167.156C567.701 167.156 566.901 166.755 566.281 165.953C565.667 165.151 565.359 164.104 565.359 162.812V162.703ZM566.805 162.867C566.805 163.826 567.003 164.576 567.398 165.117C567.794 165.659 568.341 165.93 569.039 165.93C569.956 165.93 570.625 165.518 571.047 164.695V160.812C570.615 160.016 569.951 159.617 569.055 159.617C568.346 159.617 567.794 159.891 567.398 160.438C567.003 160.984 566.805 161.794 566.805 162.867ZM578.828 159.844C578.609 159.807 578.372 159.789 578.117 159.789C577.169 159.789 576.526 160.193 576.188 161V167H574.742V158.547H576.148L576.172 159.523C576.646 158.768 577.318 158.391 578.188 158.391C578.469 158.391 578.682 158.427 578.828 158.5V159.844ZM583.516 167.156C582.37 167.156 581.438 166.781 580.719 166.031C580 165.276 579.641 164.268 579.641 163.008V162.742C579.641 161.904 579.799 161.156 580.117 160.5C580.44 159.839 580.888 159.323 581.461 158.953C582.039 158.578 582.664 158.391 583.336 158.391C584.435 158.391 585.289 158.753 585.898 159.477C586.508 160.201 586.812 161.237 586.812 162.586V163.188H581.086C581.107 164.021 581.349 164.695 581.812 165.211C582.281 165.721 582.875 165.977 583.594 165.977C584.104 165.977 584.536 165.872 584.891 165.664C585.245 165.456 585.555 165.18 585.82 164.836L586.703 165.523C585.995 166.612 584.932 167.156 583.516 167.156ZM583.336 159.578C582.753 159.578 582.263 159.792 581.867 160.219C581.471 160.641 581.227 161.234 581.133 162H585.367V161.891C585.326 161.156 585.128 160.589 584.773 160.188C584.419 159.781 583.94 159.578 583.336 159.578ZM593.414 164.758C593.414 164.367 593.266 164.065 592.969 163.852C592.677 163.633 592.164 163.445 591.43 163.289C590.701 163.133 590.12 162.945 589.688 162.727C589.26 162.508 588.943 162.247 588.734 161.945C588.531 161.643 588.43 161.284 588.43 160.867C588.43 160.174 588.721 159.589 589.305 159.109C589.893 158.63 590.643 158.391 591.555 158.391C592.513 158.391 593.289 158.638 593.883 159.133C594.482 159.628 594.781 160.26 594.781 161.031H593.328C593.328 160.635 593.159 160.294 592.82 160.008C592.487 159.721 592.065 159.578 591.555 159.578C591.029 159.578 590.617 159.693 590.32 159.922C590.023 160.151 589.875 160.451 589.875 160.82C589.875 161.169 590.013 161.432 590.289 161.609C590.565 161.786 591.062 161.956 591.781 162.117C592.505 162.279 593.091 162.471 593.539 162.695C593.987 162.919 594.318 163.19 594.531 163.508C594.75 163.82 594.859 164.203 594.859 164.656C594.859 165.411 594.557 166.018 593.953 166.477C593.349 166.93 592.565 167.156 591.602 167.156C590.924 167.156 590.326 167.036 589.805 166.797C589.284 166.557 588.875 166.224 588.578 165.797C588.286 165.365 588.141 164.898 588.141 164.398H589.586C589.612 164.883 589.805 165.268 590.164 165.555C590.529 165.836 591.008 165.977 591.602 165.977C592.148 165.977 592.586 165.867 592.914 165.648C593.247 165.424 593.414 165.128 593.414 164.758ZM601.664 164.758C601.664 164.367 601.516 164.065 601.219 163.852C600.927 163.633 600.414 163.445 599.68 163.289C598.951 163.133 598.37 162.945 597.938 162.727C597.51 162.508 597.193 162.247 596.984 161.945C596.781 161.643 596.68 161.284 596.68 160.867C596.68 160.174 596.971 159.589 597.555 159.109C598.143 158.63 598.893 158.391 599.805 158.391C600.763 158.391 601.539 158.638 602.133 159.133C602.732 159.628 603.031 160.26 603.031 161.031H601.578C601.578 160.635 601.409 160.294 601.07 160.008C600.737 159.721 600.315 159.578 599.805 159.578C599.279 159.578 598.867 159.693 598.57 159.922C598.273 160.151 598.125 160.451 598.125 160.82C598.125 161.169 598.263 161.432 598.539 161.609C598.815 161.786 599.312 161.956 600.031 162.117C600.755 162.279 601.341 162.471 601.789 162.695C602.237 162.919 602.568 163.19 602.781 163.508C603 163.82 603.109 164.203 603.109 164.656C603.109 165.411 602.807 166.018 602.203 166.477C601.599 166.93 600.815 167.156 599.852 167.156C599.174 167.156 598.576 167.036 598.055 166.797C597.534 166.557 597.125 166.224 596.828 165.797C596.536 165.365 596.391 164.898 596.391 164.398H597.836C597.862 164.883 598.055 165.268 598.414 165.555C598.779 165.836 599.258 165.977 599.852 165.977C600.398 165.977 600.836 165.867 601.164 165.648C601.497 165.424 601.664 165.128 601.664 164.758ZM613.562 167H612.109V157.367L609.195 158.438V157.125L613.336 155.57H613.562V167Z" fill="#2097F6"/>
<path d="M456.016 165.039L458.109 158.547H459.586L456.555 167H455.453L452.391 158.547H453.867L456.016 165.039ZM465.578 167H464.125V157.367L461.211 158.438V157.125L465.352 155.57H465.578V167Z" fill="#2097F6"/>
<path d="M519.917 173.5H519.417V174V195V195.5H519.917H637C641.694 195.5 645.5 191.694 645.5 187V182C645.5 177.306 641.694 173.5 637 173.5H519.917Z" fill="white"/>
<path d="M519.917 173.5H519.417V174V195V195.5H519.917H637C641.694 195.5 645.5 191.694 645.5 187V182C645.5 177.306 641.694 173.5 637 173.5H519.917Z" stroke="#2097F6"/>
<path d="M519.083 195.5H519.583V195V174V173.5H519.083H402C397.306 173.5 393.5 177.306 393.5 182V187C393.5 191.694 397.306 195.5 402 195.5H519.083Z" fill="white"/>
<path d="M519.083 195.5H519.583V195V174V173.5H519.083H402C397.306 173.5 393.5 177.306 393.5 182V187C393.5 191.694 397.306 195.5 402 195.5H519.083Z" stroke="#2097F6"/>
<path d="M552.75 187.031H547.984L546.914 190H545.367L549.711 178.625H551.023L555.375 190H553.836L552.75 187.031ZM548.438 185.797H552.305L550.367 180.477L548.438 185.797ZM556.328 185.703C556.328 184.406 556.635 183.365 557.25 182.578C557.865 181.786 558.669 181.391 559.664 181.391C560.654 181.391 561.438 181.729 562.016 182.406V178H563.461V190H562.133L562.062 189.094C561.484 189.802 560.68 190.156 559.648 190.156C558.669 190.156 557.87 189.755 557.25 188.953C556.635 188.151 556.328 187.104 556.328 185.812V185.703ZM557.773 185.867C557.773 186.826 557.971 187.576 558.367 188.117C558.763 188.659 559.31 188.93 560.008 188.93C560.924 188.93 561.594 188.518 562.016 187.695V183.812C561.583 183.016 560.919 182.617 560.023 182.617C559.315 182.617 558.763 182.891 558.367 183.438C557.971 183.984 557.773 184.794 557.773 185.867ZM565.359 185.703C565.359 184.406 565.667 183.365 566.281 182.578C566.896 181.786 567.701 181.391 568.695 181.391C569.685 181.391 570.469 181.729 571.047 182.406V178H572.492V190H571.164L571.094 189.094C570.516 189.802 569.711 190.156 568.68 190.156C567.701 190.156 566.901 189.755 566.281 188.953C565.667 188.151 565.359 187.104 565.359 185.812V185.703ZM566.805 185.867C566.805 186.826 567.003 187.576 567.398 188.117C567.794 188.659 568.341 188.93 569.039 188.93C569.956 188.93 570.625 188.518 571.047 187.695V183.812C570.615 183.016 569.951 182.617 569.055 182.617C568.346 182.617 567.794 182.891 567.398 183.438C567.003 183.984 566.805 184.794 566.805 185.867ZM578.828 182.844C578.609 182.807 578.372 182.789 578.117 182.789C577.169 182.789 576.526 183.193 576.188 184V190H574.742V181.547H576.148L576.172 182.523C576.646 181.768 577.318 181.391 578.188 181.391C578.469 181.391 578.682 181.427 578.828 181.5V182.844ZM583.516 190.156C582.37 190.156 581.438 189.781 580.719 189.031C580 188.276 579.641 187.268 579.641 186.008V185.742C579.641 184.904 579.799 184.156 580.117 183.5C580.44 182.839 580.888 182.323 581.461 181.953C582.039 181.578 582.664 181.391 583.336 181.391C584.435 181.391 585.289 181.753 585.898 182.477C586.508 183.201 586.812 184.237 586.812 185.586V186.188H581.086C581.107 187.021 581.349 187.695 581.812 188.211C582.281 188.721 582.875 188.977 583.594 188.977C584.104 188.977 584.536 188.872 584.891 188.664C585.245 188.456 585.555 188.18 585.82 187.836L586.703 188.523C585.995 189.612 584.932 190.156 583.516 190.156ZM583.336 182.578C582.753 182.578 582.263 182.792 581.867 183.219C581.471 183.641 581.227 184.234 581.133 185H585.367V184.891C585.326 184.156 585.128 183.589 584.773 183.188C584.419 182.781 583.94 182.578 583.336 182.578ZM593.414 187.758C593.414 187.367 593.266 187.065 592.969 186.852C592.677 186.633 592.164 186.445 591.43 186.289C590.701 186.133 590.12 185.945 589.688 185.727C589.26 185.508 588.943 185.247 588.734 184.945C588.531 184.643 588.43 184.284 588.43 183.867C588.43 183.174 588.721 182.589 589.305 182.109C589.893 181.63 590.643 181.391 591.555 181.391C592.513 181.391 593.289 181.638 593.883 182.133C594.482 182.628 594.781 183.26 594.781 184.031H593.328C593.328 183.635 593.159 183.294 592.82 183.008C592.487 182.721 592.065 182.578 591.555 182.578C591.029 182.578 590.617 182.693 590.32 182.922C590.023 183.151 589.875 183.451 589.875 183.82C589.875 184.169 590.013 184.432 590.289 184.609C590.565 184.786 591.062 184.956 591.781 185.117C592.505 185.279 593.091 185.471 593.539 185.695C593.987 185.919 594.318 186.19 594.531 186.508C594.75 186.82 594.859 187.203 594.859 187.656C594.859 188.411 594.557 189.018 593.953 189.477C593.349 189.93 592.565 190.156 591.602 190.156C590.924 190.156 590.326 190.036 589.805 189.797C589.284 189.557 588.875 189.224 588.578 188.797C588.286 188.365 588.141 187.898 588.141 187.398H589.586C589.612 187.883 589.805 188.268 590.164 188.555C590.529 188.836 591.008 188.977 591.602 188.977C592.148 188.977 592.586 188.867 592.914 188.648C593.247 188.424 593.414 188.128 593.414 187.758ZM601.664 187.758C601.664 187.367 601.516 187.065 601.219 186.852C600.927 186.633 600.414 186.445 599.68 186.289C598.951 186.133 598.37 185.945 597.938 185.727C597.51 185.508 597.193 185.247 596.984 184.945C596.781 184.643 596.68 184.284 596.68 183.867C596.68 183.174 596.971 182.589 597.555 182.109C598.143 181.63 598.893 181.391 599.805 181.391C600.763 181.391 601.539 181.638 602.133 182.133C602.732 182.628 603.031 183.26 603.031 184.031H601.578C601.578 183.635 601.409 183.294 601.07 183.008C600.737 182.721 600.315 182.578 599.805 182.578C599.279 182.578 598.867 182.693 598.57 182.922C598.273 183.151 598.125 183.451 598.125 183.82C598.125 184.169 598.263 184.432 598.539 184.609C598.815 184.786 599.312 184.956 600.031 185.117C600.755 185.279 601.341 185.471 601.789 185.695C602.237 185.919 602.568 186.19 602.781 186.508C603 186.82 603.109 187.203 603.109 187.656C603.109 188.411 602.807 189.018 602.203 189.477C601.599 189.93 600.815 190.156 599.852 190.156C599.174 190.156 598.576 190.036 598.055 189.797C597.534 189.557 597.125 189.224 596.828 188.797C596.536 188.365 596.391 187.898 596.391 187.398H597.836C597.862 187.883 598.055 188.268 598.414 188.555C598.779 188.836 599.258 188.977 599.852 188.977C600.398 188.977 600.836 188.867 601.164 188.648C601.497 188.424 601.664 188.128 601.664 187.758ZM616.266 190H608.812V188.961L612.75 184.586C613.333 183.924 613.734 183.388 613.953 182.977C614.177 182.56 614.289 182.13 614.289 181.688C614.289 181.094 614.109 180.607 613.75 180.227C613.391 179.846 612.911 179.656 612.312 179.656C611.594 179.656 611.034 179.862 610.633 180.273C610.237 180.68 610.039 181.247 610.039 181.977H608.594C608.594 180.93 608.93 180.083 609.602 179.438C610.279 178.792 611.182 178.469 612.312 178.469C613.37 178.469 614.206 178.747 614.82 179.305C615.435 179.857 615.742 180.594 615.742 181.516C615.742 182.635 615.029 183.969 613.602 185.516L610.555 188.82H616.266V190Z" fill="#2097F6"/>
<path d="M456.016 188.039L458.109 181.547H459.586L456.555 190H455.453L452.391 181.547H453.867L456.016 188.039ZM468.281 190H460.828V188.961L464.766 184.586C465.349 183.924 465.75 183.388 465.969 182.977C466.193 182.56 466.305 182.13 466.305 181.688C466.305 181.094 466.125 180.607 465.766 180.227C465.406 179.846 464.927 179.656 464.328 179.656C463.609 179.656 463.049 179.862 462.648 180.273C462.253 180.68 462.055 181.247 462.055 181.977H460.609C460.609 180.93 460.945 180.083 461.617 179.438C462.294 178.792 463.198 178.469 464.328 178.469C465.385 178.469 466.221 178.747 466.836 179.305C467.451 179.857 467.758 180.594 467.758 181.516C467.758 182.635 467.044 183.969 465.617 185.516L462.57 188.82H468.281V190Z" fill="#2097F6"/>
<path d="M519.917 213.5H519.417V214V235V235.5H519.917H637C641.694 235.5 645.5 231.694 645.5 227V222C645.5 217.306 641.694 213.5 637 213.5H519.917Z" fill="white"/>
<path d="M519.917 213.5H519.417V214V235V235.5H519.917H637C641.694 235.5 645.5 231.694 645.5 227V222C645.5 217.306 641.694 213.5 637 213.5H519.917Z" stroke="#2097F6"/>
<path d="M519.083 235.5H519.583V235V214V213.5H519.083H402C397.306 213.5 393.5 217.306 393.5 222V227C393.5 231.694 397.306 235.5 402 235.5H519.083Z" fill="white"/>
<path d="M519.083 235.5H519.583V235V214V213.5H519.083H402C397.306 213.5 393.5 217.306 393.5 222V227C393.5 231.694 397.306 235.5 402 235.5H519.083Z" stroke="#2097F6"/>
<path d="M552.727 227.031H547.961L546.891 230H545.344L549.688 218.625H551L555.352 230H553.812L552.727 227.031ZM548.414 225.797H552.281L550.344 220.477L548.414 225.797ZM556.305 225.703C556.305 224.406 556.612 223.365 557.227 222.578C557.841 221.786 558.646 221.391 559.641 221.391C560.63 221.391 561.414 221.729 561.992 222.406V218H563.438V230H562.109L562.039 229.094C561.461 229.802 560.656 230.156 559.625 230.156C558.646 230.156 557.846 229.755 557.227 228.953C556.612 228.151 556.305 227.104 556.305 225.812V225.703ZM557.75 225.867C557.75 226.826 557.948 227.576 558.344 228.117C558.74 228.659 559.286 228.93 559.984 228.93C560.901 228.93 561.57 228.518 561.992 227.695V223.812C561.56 223.016 560.896 222.617 560 222.617C559.292 222.617 558.74 222.891 558.344 223.438C557.948 223.984 557.75 224.794 557.75 225.867ZM565.336 225.703C565.336 224.406 565.643 223.365 566.258 222.578C566.872 221.786 567.677 221.391 568.672 221.391C569.661 221.391 570.445 221.729 571.023 222.406V218H572.469V230H571.141L571.07 229.094C570.492 229.802 569.688 230.156 568.656 230.156C567.677 230.156 566.878 229.755 566.258 228.953C565.643 228.151 565.336 227.104 565.336 225.812V225.703ZM566.781 225.867C566.781 226.826 566.979 227.576 567.375 228.117C567.771 228.659 568.318 228.93 569.016 228.93C569.932 228.93 570.602 228.518 571.023 227.695V223.812C570.591 223.016 569.927 222.617 569.031 222.617C568.323 222.617 567.771 222.891 567.375 223.438C566.979 223.984 566.781 224.794 566.781 225.867ZM578.805 222.844C578.586 222.807 578.349 222.789 578.094 222.789C577.146 222.789 576.503 223.193 576.164 224V230H574.719V221.547H576.125L576.148 222.523C576.622 221.768 577.294 221.391 578.164 221.391C578.445 221.391 578.659 221.427 578.805 221.5V222.844ZM583.492 230.156C582.346 230.156 581.414 229.781 580.695 229.031C579.977 228.276 579.617 227.268 579.617 226.008V225.742C579.617 224.904 579.776 224.156 580.094 223.5C580.417 222.839 580.865 222.323 581.438 221.953C582.016 221.578 582.641 221.391 583.312 221.391C584.411 221.391 585.266 221.753 585.875 222.477C586.484 223.201 586.789 224.237 586.789 225.586V226.188H581.062C581.083 227.021 581.326 227.695 581.789 228.211C582.258 228.721 582.852 228.977 583.57 228.977C584.081 228.977 584.513 228.872 584.867 228.664C585.221 228.456 585.531 228.18 585.797 227.836L586.68 228.523C585.971 229.612 584.909 230.156 583.492 230.156ZM583.312 222.578C582.729 222.578 582.24 222.792 581.844 223.219C581.448 223.641 581.203 224.234 581.109 225H585.344V224.891C585.302 224.156 585.104 223.589 584.75 223.188C584.396 222.781 583.917 222.578 583.312 222.578ZM593.391 227.758C593.391 227.367 593.242 227.065 592.945 226.852C592.654 226.633 592.141 226.445 591.406 226.289C590.677 226.133 590.096 225.945 589.664 225.727C589.237 225.508 588.919 225.247 588.711 224.945C588.508 224.643 588.406 224.284 588.406 223.867C588.406 223.174 588.698 222.589 589.281 222.109C589.87 221.63 590.62 221.391 591.531 221.391C592.49 221.391 593.266 221.638 593.859 222.133C594.458 222.628 594.758 223.26 594.758 224.031H593.305C593.305 223.635 593.135 223.294 592.797 223.008C592.464 222.721 592.042 222.578 591.531 222.578C591.005 222.578 590.594 222.693 590.297 222.922C590 223.151 589.852 223.451 589.852 223.82C589.852 224.169 589.99 224.432 590.266 224.609C590.542 224.786 591.039 224.956 591.758 225.117C592.482 225.279 593.068 225.471 593.516 225.695C593.964 225.919 594.294 226.19 594.508 226.508C594.727 226.82 594.836 227.203 594.836 227.656C594.836 228.411 594.534 229.018 593.93 229.477C593.326 229.93 592.542 230.156 591.578 230.156C590.901 230.156 590.302 230.036 589.781 229.797C589.26 229.557 588.852 229.224 588.555 228.797C588.263 228.365 588.117 227.898 588.117 227.398H589.562C589.589 227.883 589.781 228.268 590.141 228.555C590.505 228.836 590.984 228.977 591.578 228.977C592.125 228.977 592.562 228.867 592.891 228.648C593.224 228.424 593.391 228.128 593.391 227.758ZM601.641 227.758C601.641 227.367 601.492 227.065 601.195 226.852C600.904 226.633 600.391 226.445 599.656 226.289C598.927 226.133 598.346 225.945 597.914 225.727C597.487 225.508 597.169 225.247 596.961 224.945C596.758 224.643 596.656 224.284 596.656 223.867C596.656 223.174 596.948 222.589 597.531 222.109C598.12 221.63 598.87 221.391 599.781 221.391C600.74 221.391 601.516 221.638 602.109 222.133C602.708 222.628 603.008 223.26 603.008 224.031H601.555C601.555 223.635 601.385 223.294 601.047 223.008C600.714 222.721 600.292 222.578 599.781 222.578C599.255 222.578 598.844 222.693 598.547 222.922C598.25 223.151 598.102 223.451 598.102 223.82C598.102 224.169 598.24 224.432 598.516 224.609C598.792 224.786 599.289 224.956 600.008 225.117C600.732 225.279 601.318 225.471 601.766 225.695C602.214 225.919 602.544 226.19 602.758 226.508C602.977 226.82 603.086 227.203 603.086 227.656C603.086 228.411 602.784 229.018 602.18 229.477C601.576 229.93 600.792 230.156 599.828 230.156C599.151 230.156 598.552 230.036 598.031 229.797C597.51 229.557 597.102 229.224 596.805 228.797C596.513 228.365 596.367 227.898 596.367 227.398H597.812C597.839 227.883 598.031 228.268 598.391 228.555C598.755 228.836 599.234 228.977 599.828 228.977C600.375 228.977 600.812 228.867 601.141 228.648C601.474 228.424 601.641 228.128 601.641 227.758ZM612.055 224.711L610.664 226.156V230H609.164V218.625H610.664V224.25L615.719 218.625H617.531L613.055 223.648L617.883 230H616.086L612.055 224.711Z" fill="#2097F6"/>
<path d="M455.406 227.242L456.977 221.547H459.336L456.484 230H454.328L451.477 221.547H453.836L455.406 227.242ZM464.047 225.438L462.828 226.75V230H460.484V218.625H462.828V223.781L463.859 222.367L466.758 218.625H469.641L465.602 223.68L469.758 230H466.969L464.047 225.438Z" fill="#2097F6"/>
<path d="M519.917 253.5H519.417V254V275V275.5H519.917H637C641.694 275.5 645.5 271.694 645.5 267V262C645.5 257.306 641.694 253.5 637 253.5H519.917Z" fill="white"/>
<path d="M519.917 253.5H519.417V254V275V275.5H519.917H637C641.694 275.5 645.5 271.694 645.5 267V262C645.5 257.306 641.694 253.5 637 253.5H519.917Z" stroke="#2097F6"/>
<path d="M519.083 275.5H519.583V275V254V253.5H519.083H402C397.306 253.5 393.5 257.306 393.5 262V267C393.5 271.694 397.306 275.5 402 275.5H519.083Z" fill="white"/>
<path d="M519.083 275.5H519.583V275V254V253.5H519.083H402C397.306 253.5 393.5 257.306 393.5 262V267C393.5 271.694 397.306 275.5 402 275.5H519.083Z" stroke="#2097F6"/>
<path d="M552.039 267.031H547.273L546.203 270H544.656L549 258.625H550.312L554.664 270H553.125L552.039 267.031ZM547.727 265.797H551.594L549.656 260.477L547.727 265.797ZM555.617 265.703C555.617 264.406 555.924 263.365 556.539 262.578C557.154 261.786 557.958 261.391 558.953 261.391C559.943 261.391 560.727 261.729 561.305 262.406V258H562.75V270H561.422L561.352 269.094C560.773 269.802 559.969 270.156 558.938 270.156C557.958 270.156 557.159 269.755 556.539 268.953C555.924 268.151 555.617 267.104 555.617 265.812V265.703ZM557.062 265.867C557.062 266.826 557.26 267.576 557.656 268.117C558.052 268.659 558.599 268.93 559.297 268.93C560.214 268.93 560.883 268.518 561.305 267.695V263.812C560.872 263.016 560.208 262.617 559.312 262.617C558.604 262.617 558.052 262.891 557.656 263.438C557.26 263.984 557.062 264.794 557.062 265.867ZM564.648 265.703C564.648 264.406 564.956 263.365 565.57 262.578C566.185 261.786 566.99 261.391 567.984 261.391C568.974 261.391 569.758 261.729 570.336 262.406V258H571.781V270H570.453L570.383 269.094C569.805 269.802 569 270.156 567.969 270.156C566.99 270.156 566.19 269.755 565.57 268.953C564.956 268.151 564.648 267.104 564.648 265.812V265.703ZM566.094 265.867C566.094 266.826 566.292 267.576 566.688 268.117C567.083 268.659 567.63 268.93 568.328 268.93C569.245 268.93 569.914 268.518 570.336 267.695V263.812C569.904 263.016 569.24 262.617 568.344 262.617C567.635 262.617 567.083 262.891 566.688 263.438C566.292 263.984 566.094 264.794 566.094 265.867ZM578.117 262.844C577.898 262.807 577.661 262.789 577.406 262.789C576.458 262.789 575.815 263.193 575.477 264V270H574.031V261.547H575.438L575.461 262.523C575.935 261.768 576.607 261.391 577.477 261.391C577.758 261.391 577.971 261.427 578.117 261.5V262.844ZM582.805 270.156C581.659 270.156 580.727 269.781 580.008 269.031C579.289 268.276 578.93 267.268 578.93 266.008V265.742C578.93 264.904 579.089 264.156 579.406 263.5C579.729 262.839 580.177 262.323 580.75 261.953C581.328 261.578 581.953 261.391 582.625 261.391C583.724 261.391 584.578 261.753 585.188 262.477C585.797 263.201 586.102 264.237 586.102 265.586V266.188H580.375C580.396 267.021 580.638 267.695 581.102 268.211C581.57 268.721 582.164 268.977 582.883 268.977C583.393 268.977 583.826 268.872 584.18 268.664C584.534 268.456 584.844 268.18 585.109 267.836L585.992 268.523C585.284 269.612 584.221 270.156 582.805 270.156ZM582.625 262.578C582.042 262.578 581.552 262.792 581.156 263.219C580.76 263.641 580.516 264.234 580.422 265H584.656V264.891C584.615 264.156 584.417 263.589 584.062 263.188C583.708 262.781 583.229 262.578 582.625 262.578ZM592.703 267.758C592.703 267.367 592.555 267.065 592.258 266.852C591.966 266.633 591.453 266.445 590.719 266.289C589.99 266.133 589.409 265.945 588.977 265.727C588.549 265.508 588.232 265.247 588.023 264.945C587.82 264.643 587.719 264.284 587.719 263.867C587.719 263.174 588.01 262.589 588.594 262.109C589.182 261.63 589.932 261.391 590.844 261.391C591.802 261.391 592.578 261.638 593.172 262.133C593.771 262.628 594.07 263.26 594.07 264.031H592.617C592.617 263.635 592.448 263.294 592.109 263.008C591.776 262.721 591.354 262.578 590.844 262.578C590.318 262.578 589.906 262.693 589.609 262.922C589.312 263.151 589.164 263.451 589.164 263.82C589.164 264.169 589.302 264.432 589.578 264.609C589.854 264.786 590.352 264.956 591.07 265.117C591.794 265.279 592.38 265.471 592.828 265.695C593.276 265.919 593.607 266.19 593.82 266.508C594.039 266.82 594.148 267.203 594.148 267.656C594.148 268.411 593.846 269.018 593.242 269.477C592.638 269.93 591.854 270.156 590.891 270.156C590.214 270.156 589.615 270.036 589.094 269.797C588.573 269.557 588.164 269.224 587.867 268.797C587.576 268.365 587.43 267.898 587.43 267.398H588.875C588.901 267.883 589.094 268.268 589.453 268.555C589.818 268.836 590.297 268.977 590.891 268.977C591.438 268.977 591.875 268.867 592.203 268.648C592.536 268.424 592.703 268.128 592.703 267.758ZM600.953 267.758C600.953 267.367 600.805 267.065 600.508 266.852C600.216 266.633 599.703 266.445 598.969 266.289C598.24 266.133 597.659 265.945 597.227 265.727C596.799 265.508 596.482 265.247 596.273 264.945C596.07 264.643 595.969 264.284 595.969 263.867C595.969 263.174 596.26 262.589 596.844 262.109C597.432 261.63 598.182 261.391 599.094 261.391C600.052 261.391 600.828 261.638 601.422 262.133C602.021 262.628 602.32 263.26 602.32 264.031H600.867C600.867 263.635 600.698 263.294 600.359 263.008C600.026 262.721 599.604 262.578 599.094 262.578C598.568 262.578 598.156 262.693 597.859 262.922C597.562 263.151 597.414 263.451 597.414 263.82C597.414 264.169 597.552 264.432 597.828 264.609C598.104 264.786 598.602 264.956 599.32 265.117C600.044 265.279 600.63 265.471 601.078 265.695C601.526 265.919 601.857 266.19 602.07 266.508C602.289 266.82 602.398 267.203 602.398 267.656C602.398 268.411 602.096 269.018 601.492 269.477C600.888 269.93 600.104 270.156 599.141 270.156C598.464 270.156 597.865 270.036 597.344 269.797C596.823 269.557 596.414 269.224 596.117 268.797C595.826 268.365 595.68 267.898 595.68 267.398H597.125C597.151 267.883 597.344 268.268 597.703 268.555C598.068 268.836 598.547 268.977 599.141 268.977C599.688 268.977 600.125 268.867 600.453 268.648C600.786 268.424 600.953 268.128 600.953 267.758ZM617.219 270H615.711L609.984 261.234V270H608.477V258.625H609.984L615.727 267.43V258.625H617.219V270Z" fill="#2097F6"/>
<path d="M454.305 268.039L456.398 261.547H457.875L454.844 270H453.742L450.68 261.547H452.156L454.305 268.039ZM468.234 270H466.727L461 261.234V270H459.492V258.625H461L466.742 267.43V258.625H468.234V270Z" fill="#2097F6"/>
<path d="M499.293 224.293C498.902 224.683 498.902 225.317 499.293 225.707L505.657 232.071C506.047 232.462 506.681 232.462 507.071 232.071C507.462 231.681 507.462 231.047 507.071 230.657L501.414 225L507.071 219.343C507.462 218.953 507.462 218.319 507.071 217.929C506.681 217.538 506.047 217.538 505.657 217.929L499.293 224.293ZM540.707 225.707C541.098 225.317 541.098 224.683 540.707 224.293L534.343 217.929C533.953 217.538 533.319 217.538 532.929 217.929C532.538 218.319 532.538 218.953 532.929 219.343L538.586 225L532.929 230.657C532.538 231.047 532.538 231.681 532.929 232.071C533.319 232.462 533.953 232.462 534.343 232.071L540.707 225.707ZM500 226H540V224H500V226Z" fill="#5452F6"/>
<path d="M387 223.5L376.454 223.5C365.408 223.5 356.454 214.546 356.454 203.5L356.454 201.5C356.454 190.454 347.5 181.5 336.454 181.5L328 181.5" stroke="#5452F6" stroke-width="2"/>
<path d="M338 172.974L328 182.231L338 191" stroke="#5452F6" stroke-width="2" stroke-linecap="round" stroke-linejoin="round"/>
<circle r="5.5" transform="matrix(-1 0 0 1 392.5 224)" fill="#5452F6"/>
<defs>
<filter id="filter0_d" x="0" y="0" width="676" height="306" filterUnits="userSpaceOnUse" color-interpolation-filters="sRGB">
<feFlood flood-opacity="0" result="BackgroundImageFix"/>
<feColorMatrix in="SourceAlpha" type="matrix" values="0 0 0 0 0 0 0 0 0 0 0 0 0 0 0 0 0 0 127 0"/>
<feOffset dx="4" dy="4"/>
<feColorMatrix type="matrix" values="0 0 0 0 0.952941 0 0 0 0 0.639216 0 0 0 0 0.619608 0 0 0 1 0"/>
<feBlend mode="normal" in2="BackgroundImageFix" result="effect1_dropShadow"/>
<feBlend mode="normal" in="SourceGraphic" in2="effect1_dropShadow" result="shape"/>
</filter>
<filter id="filter1_d" x="15" y="93" width="159" height="199" filterUnits="userSpaceOnUse" color-interpolation-filters="sRGB">
<feFlood flood-opacity="0" result="BackgroundImageFix"/>
<feColorMatrix in="SourceAlpha" type="matrix" values="0 0 0 0 0 0 0 0 0 0 0 0 0 0 0 0 0 0 127 0"/>
<feOffset dx="5" dy="5"/>
<feGaussianBlur stdDeviation="2"/>
<feColorMatrix type="matrix" values="0 0 0 0 0.952941 0 0 0 0 0.639216 0 0 0 0 0.619608 0 0 0 1 0"/>
<feBlend mode="normal" in2="BackgroundImageFix" result="effect1_dropShadow"/>
<feBlend mode="normal" in="SourceGraphic" in2="effect1_dropShadow" result="shape"/>
</filter>
<filter id="filter2_d" x="180" y="93" width="169" height="199" filterUnits="userSpaceOnUse" color-interpolation-filters="sRGB">
<feFlood flood-opacity="0" result="BackgroundImageFix"/>
<feColorMatrix in="SourceAlpha" type="matrix" values="0 0 0 0 0 0 0 0 0 0 0 0 0 0 0 0 0 0 127 0"/>
<feOffset dx="5" dy="5"/>
<feGaussianBlur stdDeviation="2"/>
<feColorMatrix type="matrix" values="0 0 0 0 0.952941 0 0 0 0 0.639216 0 0 0 0 0.619608 0 0 0 1 0"/>
<feBlend mode="normal" in2="BackgroundImageFix" result="effect1_dropShadow"/>
<feBlend mode="normal" in="SourceGraphic" in2="effect1_dropShadow" result="shape"/>
</filter>
<filter id="filter3_d" x="385" y="93" width="279" height="199" filterUnits="userSpaceOnUse" color-interpolation-filters="sRGB">
<feFlood flood-opacity="0" result="BackgroundImageFix"/>
<feColorMatrix in="SourceAlpha" type="matrix" values="0 0 0 0 0 0 0 0 0 0 0 0 0 0 0 0 0 0 127 0"/>
<feOffset dx="5" dy="5"/>
<feGaussianBlur stdDeviation="2"/>
<feColorMatrix type="matrix" values="0 0 0 0 0.952941 0 0 0 0 0.639216 0 0 0 0 0.619608 0 0 0 1 0"/>
<feBlend mode="normal" in2="BackgroundImageFix" result="effect1_dropShadow"/>
<feBlend mode="normal" in="SourceGraphic" in2="effect1_dropShadow" result="shape"/>
</filter>
<filter id="filter4_d" x="25" y="147" width="139" height="40" filterUnits="userSpaceOnUse" color-interpolation-filters="sRGB">
<feFlood flood-opacity="0" result="BackgroundImageFix"/>
<feColorMatrix in="SourceAlpha" type="matrix" values="0 0 0 0 0 0 0 0 0 0 0 0 0 0 0 0 0 0 127 0"/>
<feOffset dx="5" dy="5"/>
<feGaussianBlur stdDeviation="2"/>
<feColorMatrix type="matrix" values="0 0 0 0 0.952941 0 0 0 0 0.639216 0 0 0 0 0.619608 0 0 0 1 0"/>
<feBlend mode="normal" in2="BackgroundImageFix" result="effect1_dropShadow"/>
<feBlend mode="normal" in="SourceGraphic" in2="effect1_dropShadow" result="shape"/>
</filter>
<filter id="filter5_d" x="190" y="167" width="149" height="40" filterUnits="userSpaceOnUse" color-interpolation-filters="sRGB">
<feFlood flood-opacity="0" result="BackgroundImageFix"/>
<feColorMatrix in="SourceAlpha" type="matrix" values="0 0 0 0 0 0 0 0 0 0 0 0 0 0 0 0 0 0 127 0"/>
<feOffset dx="5" dy="5"/>
<feGaussianBlur stdDeviation="2"/>
<feColorMatrix type="matrix" values="0 0 0 0 0.952941 0 0 0 0 0.639216 0 0 0 0 0.619608 0 0 0 1 0"/>
<feBlend mode="normal" in2="BackgroundImageFix" result="effect1_dropShadow"/>
<feBlend mode="normal" in="SourceGraphic" in2="effect1_dropShadow" result="shape"/>
</filter>
<filter id="filter6_d" x="25" y="183" width="139" height="40" filterUnits="userSpaceOnUse" color-interpolation-filters="sRGB">
<feFlood flood-opacity="0" result="BackgroundImageFix"/>
<feColorMatrix in="SourceAlpha" type="matrix" values="0 0 0 0 0 0 0 0 0 0 0 0 0 0 0 0 0 0 127 0"/>
<feOffset dx="5" dy="5"/>
<feGaussianBlur stdDeviation="2"/>
<feColorMatrix type="matrix" values="0 0 0 0 0.952941 0 0 0 0 0.639216 0 0 0 0 0.619608 0 0 0 1 0"/>
<feBlend mode="normal" in2="BackgroundImageFix" result="effect1_dropShadow"/>
<feBlend mode="normal" in="SourceGraphic" in2="effect1_dropShadow" result="shape"/>
</filter>
</defs>
</svg>
