<svg width="1614" height="326" viewBox="0 0 1614 326" fill="none" xmlns="http://www.w3.org/2000/svg">
<g filter="url(#filter0_d)">
<rect y="120" width="173" height="63" rx="8" fill="white"/>
<path d="M49.4141 146.5V148.547H50.9922V149.664H49.4141V154.906C49.4141 155.245 49.4844 155.5 49.625 155.672C49.7656 155.839 50.0052 155.922 50.3438 155.922C50.5104 155.922 50.7396 155.891 51.0312 155.828V157C50.651 157.104 50.2812 157.156 49.9219 157.156C49.276 157.156 48.7891 156.961 48.4609 156.57C48.1328 156.18 47.9688 155.625 47.9688 154.906V149.664H46.4297V148.547H47.9688V146.5H49.4141ZM56.7734 149.844C56.5547 149.807 56.3177 149.789 56.0625 149.789C55.1146 149.789 54.4714 150.193 54.1328 151V157H52.6875V148.547H54.0938L54.1172 149.523C54.5911 148.768 55.263 148.391 56.1328 148.391C56.4141 148.391 56.6276 148.427 56.7734 148.5V149.844ZM63.0156 157C62.9323 156.833 62.8646 156.536 62.8125 156.109C62.1406 156.807 61.3385 157.156 60.4062 157.156C59.5729 157.156 58.888 156.922 58.3516 156.453C57.8203 155.979 57.5547 155.38 57.5547 154.656C57.5547 153.776 57.888 153.094 58.5547 152.609C59.2266 152.12 60.1693 151.875 61.3828 151.875H62.7891V151.211C62.7891 150.706 62.638 150.305 62.3359 150.008C62.0339 149.706 61.5885 149.555 61 149.555C60.4844 149.555 60.0521 149.685 59.7031 149.945C59.3542 150.206 59.1797 150.521 59.1797 150.891H57.7266C57.7266 150.469 57.875 150.062 58.1719 149.672C58.474 149.276 58.8802 148.964 59.3906 148.734C59.9062 148.505 60.4714 148.391 61.0859 148.391C62.0599 148.391 62.8229 148.635 63.375 149.125C63.9271 149.609 64.2135 150.279 64.2344 151.133V155.023C64.2344 155.799 64.3333 156.417 64.5312 156.875V157H63.0156ZM60.6172 155.898C61.0703 155.898 61.5 155.781 61.9062 155.547C62.3125 155.312 62.6068 155.008 62.7891 154.633V152.898H61.6562C59.8854 152.898 59 153.417 59 154.453C59 154.906 59.151 155.26 59.4531 155.516C59.7552 155.771 60.1432 155.898 60.6172 155.898ZM67.8672 148.547L67.9141 149.609C68.5599 148.797 69.4036 148.391 70.4453 148.391C72.2318 148.391 73.1328 149.398 73.1484 151.414V157H71.7031V151.406C71.6979 150.797 71.5573 150.346 71.2812 150.055C71.0104 149.763 70.5859 149.617 70.0078 149.617C69.5391 149.617 69.1276 149.742 68.7734 149.992C68.4193 150.242 68.1432 150.57 67.9453 150.977V157H66.5V148.547H67.8672ZM80.25 154.758C80.25 154.367 80.1016 154.065 79.8047 153.852C79.513 153.633 79 153.445 78.2656 153.289C77.5365 153.133 76.9557 152.945 76.5234 152.727C76.0964 152.508 75.7786 152.247 75.5703 151.945C75.3672 151.643 75.2656 151.284 75.2656 150.867C75.2656 150.174 75.5573 149.589 76.1406 149.109C76.7292 148.63 77.4792 148.391 78.3906 148.391C79.349 148.391 80.125 148.638 80.7188 149.133C81.3177 149.628 81.6172 150.26 81.6172 151.031H80.1641C80.1641 150.635 79.9948 150.294 79.6562 150.008C79.3229 149.721 78.901 149.578 78.3906 149.578C77.8646 149.578 77.4531 149.693 77.1562 149.922C76.8594 150.151 76.7109 150.451 76.7109 150.82C76.7109 151.169 76.849 151.432 77.125 151.609C77.401 151.786 77.8984 151.956 78.6172 152.117C79.3411 152.279 79.9271 152.471 80.375 152.695C80.8229 152.919 81.1536 153.19 81.3672 153.508C81.5859 153.82 81.6953 154.203 81.6953 154.656C81.6953 155.411 81.3932 156.018 80.7891 156.477C80.1849 156.93 79.401 157.156 78.4375 157.156C77.7604 157.156 77.1615 157.036 76.6406 156.797C76.1198 156.557 75.7109 156.224 75.4141 155.797C75.1224 155.365 74.9766 154.898 74.9766 154.398H76.4219C76.4479 154.883 76.6406 155.268 77 155.555C77.3646 155.836 77.8438 155.977 78.4375 155.977C78.9844 155.977 79.4219 155.867 79.75 155.648C80.0833 155.424 80.25 155.128 80.25 154.758ZM88.7969 157C88.7135 156.833 88.6458 156.536 88.5938 156.109C87.9219 156.807 87.1198 157.156 86.1875 157.156C85.3542 157.156 84.6693 156.922 84.1328 156.453C83.6016 155.979 83.3359 155.38 83.3359 154.656C83.3359 153.776 83.6693 153.094 84.3359 152.609C85.0078 152.12 85.9505 151.875 87.1641 151.875H88.5703V151.211C88.5703 150.706 88.4193 150.305 88.1172 150.008C87.8151 149.706 87.3698 149.555 86.7812 149.555C86.2656 149.555 85.8333 149.685 85.4844 149.945C85.1354 150.206 84.9609 150.521 84.9609 150.891H83.5078C83.5078 150.469 83.6562 150.062 83.9531 149.672C84.2552 149.276 84.6615 148.964 85.1719 148.734C85.6875 148.505 86.2526 148.391 86.8672 148.391C87.8411 148.391 88.6042 148.635 89.1562 149.125C89.7083 149.609 89.9948 150.279 90.0156 151.133V155.023C90.0156 155.799 90.1146 156.417 90.3125 156.875V157H88.7969ZM86.3984 155.898C86.8516 155.898 87.2812 155.781 87.6875 155.547C88.0938 155.312 88.388 155.008 88.5703 154.633V152.898H87.4375C85.6667 152.898 84.7812 153.417 84.7812 154.453C84.7812 154.906 84.9323 155.26 85.2344 155.516C85.5365 155.771 85.9245 155.898 86.3984 155.898ZM95.6719 155.977C96.1875 155.977 96.638 155.82 97.0234 155.508C97.4089 155.195 97.6224 154.805 97.6641 154.336H99.0312C99.0052 154.82 98.8385 155.281 98.5312 155.719C98.224 156.156 97.8125 156.505 97.2969 156.766C96.7865 157.026 96.2448 157.156 95.6719 157.156C94.5208 157.156 93.6042 156.773 92.9219 156.008C92.2448 155.237 91.9062 154.185 91.9062 152.852V152.609C91.9062 151.786 92.0573 151.055 92.3594 150.414C92.6615 149.773 93.0938 149.276 93.6562 148.922C94.224 148.568 94.8932 148.391 95.6641 148.391C96.612 148.391 97.3984 148.674 98.0234 149.242C98.6536 149.81 98.9896 150.547 99.0312 151.453H97.6641C97.6224 150.906 97.4141 150.458 97.0391 150.109C96.6693 149.755 96.2109 149.578 95.6641 149.578C94.9297 149.578 94.3594 149.844 93.9531 150.375C93.5521 150.901 93.3516 151.664 93.3516 152.664V152.938C93.3516 153.911 93.5521 154.661 93.9531 155.188C94.3542 155.714 94.9271 155.977 95.6719 155.977ZM102.617 146.5V148.547H104.195V149.664H102.617V154.906C102.617 155.245 102.688 155.5 102.828 155.672C102.969 155.839 103.208 155.922 103.547 155.922C103.714 155.922 103.943 155.891 104.234 155.828V157C103.854 157.104 103.484 157.156 103.125 157.156C102.479 157.156 101.992 156.961 101.664 156.57C101.336 156.18 101.172 155.625 101.172 154.906V149.664H99.6328V148.547H101.172V146.5H102.617ZM107.461 157H106.016V148.547H107.461V157ZM105.898 146.305C105.898 146.07 105.969 145.872 106.109 145.711C106.255 145.549 106.469 145.469 106.75 145.469C107.031 145.469 107.245 145.549 107.391 145.711C107.536 145.872 107.609 146.07 107.609 146.305C107.609 146.539 107.536 146.734 107.391 146.891C107.245 147.047 107.031 147.125 106.75 147.125C106.469 147.125 106.255 147.047 106.109 146.891C105.969 146.734 105.898 146.539 105.898 146.305ZM109.398 152.695C109.398 151.867 109.56 151.122 109.883 150.461C110.211 149.799 110.664 149.289 111.242 148.93C111.826 148.57 112.49 148.391 113.234 148.391C114.385 148.391 115.315 148.789 116.023 149.586C116.737 150.383 117.094 151.443 117.094 152.766V152.867C117.094 153.69 116.935 154.43 116.617 155.086C116.305 155.737 115.854 156.245 115.266 156.609C114.682 156.974 114.01 157.156 113.25 157.156C112.104 157.156 111.174 156.758 110.461 155.961C109.753 155.164 109.398 154.109 109.398 152.797V152.695ZM110.852 152.867C110.852 153.805 111.068 154.557 111.5 155.125C111.938 155.693 112.521 155.977 113.25 155.977C113.984 155.977 114.568 155.69 115 155.117C115.432 154.539 115.648 153.732 115.648 152.695C115.648 151.768 115.427 151.018 114.984 150.445C114.547 149.867 113.964 149.578 113.234 149.578C112.521 149.578 111.945 149.862 111.508 150.43C111.07 150.997 110.852 151.81 110.852 152.867ZM120.273 148.547L120.32 149.609C120.966 148.797 121.81 148.391 122.852 148.391C124.638 148.391 125.539 149.398 125.555 151.414V157H124.109V151.406C124.104 150.797 123.964 150.346 123.688 150.055C123.417 149.763 122.992 149.617 122.414 149.617C121.945 149.617 121.534 149.742 121.18 149.992C120.826 150.242 120.549 150.57 120.352 150.977V157H118.906V148.547H120.273Z" fill="#2097F6"/>
<rect x="0.5" y="120.5" width="172" height="62" rx="7.5" stroke="#2097F6"/>
</g>
<rect x="214" width="194" height="287" rx="10" fill="#E7F4FF"/>
<path d="M227.719 15.5469V20H226.219V8.625H230.414C231.659 8.625 232.633 8.94271 233.336 9.57812C234.044 10.2135 234.398 11.0547 234.398 12.1016C234.398 13.2057 234.052 14.0573 233.359 14.6562C232.672 15.25 231.685 15.5469 230.398 15.5469H227.719ZM227.719 14.3203H230.414C231.216 14.3203 231.831 14.1328 232.258 13.7578C232.685 13.3776 232.898 12.8307 232.898 12.1172C232.898 11.4401 232.685 10.8984 232.258 10.4922C231.831 10.0859 231.245 9.875 230.5 9.85938H227.719V14.3203ZM240.172 12.8438C239.953 12.8073 239.716 12.7891 239.461 12.7891C238.513 12.7891 237.87 13.1927 237.531 14V20H236.086V11.5469H237.492L237.516 12.5234C237.99 11.7682 238.661 11.3906 239.531 11.3906C239.812 11.3906 240.026 11.4271 240.172 11.5V12.8438ZM244.859 20.1562C243.714 20.1562 242.781 19.7812 242.062 19.0312C241.344 18.276 240.984 17.2682 240.984 16.0078V15.7422C240.984 14.9036 241.143 14.1562 241.461 13.5C241.784 12.8385 242.232 12.3229 242.805 11.9531C243.383 11.5781 244.008 11.3906 244.68 11.3906C245.779 11.3906 246.633 11.7526 247.242 12.4766C247.852 13.2005 248.156 14.237 248.156 15.5859V16.1875H242.43C242.451 17.0208 242.693 17.6953 243.156 18.2109C243.625 18.7214 244.219 18.9766 244.938 18.9766C245.448 18.9766 245.88 18.8724 246.234 18.6641C246.589 18.4557 246.898 18.1797 247.164 17.8359L248.047 18.5234C247.339 19.612 246.276 20.1562 244.859 20.1562ZM244.68 12.5781C244.096 12.5781 243.607 12.7917 243.211 13.2188C242.815 13.6406 242.57 14.2344 242.477 15H246.711V14.8906C246.669 14.1562 246.471 13.5885 246.117 13.1875C245.763 12.7812 245.284 12.5781 244.68 12.5781ZM252.516 18.0391L254.609 11.5469H256.086L253.055 20H251.953L248.891 11.5469H250.367L252.516 18.0391ZM262.57 20C262.487 19.8333 262.419 19.5365 262.367 19.1094C261.695 19.8073 260.893 20.1562 259.961 20.1562C259.128 20.1562 258.443 19.9219 257.906 19.4531C257.375 18.9792 257.109 18.3802 257.109 17.6562C257.109 16.776 257.443 16.0938 258.109 15.6094C258.781 15.1198 259.724 14.875 260.938 14.875H262.344V14.2109C262.344 13.7057 262.193 13.3047 261.891 13.0078C261.589 12.7057 261.143 12.5547 260.555 12.5547C260.039 12.5547 259.607 12.6849 259.258 12.9453C258.909 13.2057 258.734 13.5208 258.734 13.8906H257.281C257.281 13.4688 257.43 13.0625 257.727 12.6719C258.029 12.276 258.435 11.9635 258.945 11.7344C259.461 11.5052 260.026 11.3906 260.641 11.3906C261.615 11.3906 262.378 11.6354 262.93 12.125C263.482 12.6094 263.768 13.2786 263.789 14.1328V18.0234C263.789 18.7995 263.888 19.4167 264.086 19.875V20H262.57ZM260.172 18.8984C260.625 18.8984 261.055 18.7812 261.461 18.5469C261.867 18.3125 262.161 18.0078 262.344 17.6328V15.8984H261.211C259.44 15.8984 258.555 16.4167 258.555 17.4531C258.555 17.9062 258.706 18.2604 259.008 18.5156C259.31 18.7708 259.698 18.8984 260.172 18.8984ZM267.625 20H266.18V8H267.625V20ZM271.516 20H270.07V11.5469H271.516V20ZM269.953 9.30469C269.953 9.07031 270.023 8.8724 270.164 8.71094C270.31 8.54948 270.523 8.46875 270.805 8.46875C271.086 8.46875 271.299 8.54948 271.445 8.71094C271.591 8.8724 271.664 9.07031 271.664 9.30469C271.664 9.53906 271.591 9.73438 271.445 9.89062C271.299 10.0469 271.086 10.125 270.805 10.125C270.523 10.125 270.31 10.0469 270.164 9.89062C270.023 9.73438 269.953 9.53906 269.953 9.30469ZM273.484 15.7031C273.484 14.4062 273.792 13.3646 274.406 12.5781C275.021 11.7865 275.826 11.3906 276.82 11.3906C277.81 11.3906 278.594 11.7292 279.172 12.4062V8H280.617V20H279.289L279.219 19.0938C278.641 19.8021 277.836 20.1562 276.805 20.1562C275.826 20.1562 275.026 19.7552 274.406 18.9531C273.792 18.151 273.484 17.1042 273.484 15.8125V15.7031ZM274.93 15.8672C274.93 16.8255 275.128 17.5755 275.523 18.1172C275.919 18.6589 276.466 18.9297 277.164 18.9297C278.081 18.9297 278.75 18.5182 279.172 17.6953V13.8125C278.74 13.0156 278.076 12.6172 277.18 12.6172C276.471 12.6172 275.919 12.8906 275.523 13.4375C275.128 13.9844 274.93 14.7943 274.93 15.8672ZM288.086 20C288.003 19.8333 287.935 19.5365 287.883 19.1094C287.211 19.8073 286.409 20.1562 285.477 20.1562C284.643 20.1562 283.958 19.9219 283.422 19.4531C282.891 18.9792 282.625 18.3802 282.625 17.6562C282.625 16.776 282.958 16.0938 283.625 15.6094C284.297 15.1198 285.24 14.875 286.453 14.875H287.859V14.2109C287.859 13.7057 287.708 13.3047 287.406 13.0078C287.104 12.7057 286.659 12.5547 286.07 12.5547C285.555 12.5547 285.122 12.6849 284.773 12.9453C284.424 13.2057 284.25 13.5208 284.25 13.8906H282.797C282.797 13.4688 282.945 13.0625 283.242 12.6719C283.544 12.276 283.951 11.9635 284.461 11.7344C284.977 11.5052 285.542 11.3906 286.156 11.3906C287.13 11.3906 287.893 11.6354 288.445 12.125C288.997 12.6094 289.284 13.2786 289.305 14.1328V18.0234C289.305 18.7995 289.404 19.4167 289.602 19.875V20H288.086ZM285.688 18.8984C286.141 18.8984 286.57 18.7812 286.977 18.5469C287.383 18.3125 287.677 18.0078 287.859 17.6328V15.8984H286.727C284.956 15.8984 284.07 16.4167 284.07 17.4531C284.07 17.9062 284.221 18.2604 284.523 18.5156C284.826 18.7708 285.214 18.8984 285.688 18.8984ZM293.531 9.5V11.5469H295.109V12.6641H293.531V17.9062C293.531 18.2448 293.602 18.5 293.742 18.6719C293.883 18.8385 294.122 18.9219 294.461 18.9219C294.628 18.9219 294.857 18.8906 295.148 18.8281V20C294.768 20.1042 294.398 20.1562 294.039 20.1562C293.393 20.1562 292.906 19.9609 292.578 19.5703C292.25 19.1797 292.086 18.625 292.086 17.9062V12.6641H290.547V11.5469H292.086V9.5H293.531ZM296.266 15.6953C296.266 14.8672 296.427 14.1224 296.75 13.4609C297.078 12.7995 297.531 12.2891 298.109 11.9297C298.693 11.5703 299.357 11.3906 300.102 11.3906C301.253 11.3906 302.182 11.7891 302.891 12.5859C303.604 13.3828 303.961 14.4427 303.961 15.7656V15.8672C303.961 16.6901 303.802 17.4297 303.484 18.0859C303.172 18.737 302.721 19.2448 302.133 19.6094C301.549 19.974 300.878 20.1562 300.117 20.1562C298.971 20.1562 298.042 19.7578 297.328 18.9609C296.62 18.1641 296.266 17.1094 296.266 15.7969V15.6953ZM297.719 15.8672C297.719 16.8047 297.935 17.5573 298.367 18.125C298.805 18.6927 299.388 18.9766 300.117 18.9766C300.852 18.9766 301.435 18.6901 301.867 18.1172C302.299 17.5391 302.516 16.7318 302.516 15.6953C302.516 14.7682 302.294 14.0182 301.852 13.4453C301.414 12.8672 300.831 12.5781 300.102 12.5781C299.388 12.5781 298.812 12.862 298.375 13.4297C297.938 13.9974 297.719 14.8099 297.719 15.8672ZM309.859 12.8438C309.641 12.8073 309.404 12.7891 309.148 12.7891C308.201 12.7891 307.557 13.1927 307.219 14V20H305.773V11.5469H307.18L307.203 12.5234C307.677 11.7682 308.349 11.3906 309.219 11.3906C309.5 11.3906 309.714 11.4271 309.859 11.5V12.8438Z" fill="black"/>
<g filter="url(#filter1_d)">
<rect x="241" y="33" width="140" height="63" rx="8" fill="white"/>
<path d="M282.344 65.5469V70H280.844V58.625H285.039C286.284 58.625 287.258 58.9427 287.961 59.5781C288.669 60.2135 289.023 61.0547 289.023 62.1016C289.023 63.2057 288.677 64.0573 287.984 64.6562C287.297 65.25 286.31 65.5469 285.023 65.5469H282.344ZM282.344 64.3203H285.039C285.841 64.3203 286.456 64.1328 286.883 63.7578C287.31 63.3776 287.523 62.8307 287.523 62.1172C287.523 61.4401 287.31 60.8984 286.883 60.4922C286.456 60.0859 285.87 59.875 285.125 59.8594H282.344V64.3203ZM294.797 62.8438C294.578 62.8073 294.341 62.7891 294.086 62.7891C293.138 62.7891 292.495 63.1927 292.156 64V70H290.711V61.5469H292.117L292.141 62.5234C292.615 61.7682 293.286 61.3906 294.156 61.3906C294.438 61.3906 294.651 61.4271 294.797 61.5V62.8438ZM299.484 70.1562C298.339 70.1562 297.406 69.7812 296.688 69.0312C295.969 68.276 295.609 67.2682 295.609 66.0078V65.7422C295.609 64.9036 295.768 64.1562 296.086 63.5C296.409 62.8385 296.857 62.3229 297.43 61.9531C298.008 61.5781 298.633 61.3906 299.305 61.3906C300.404 61.3906 301.258 61.7526 301.867 62.4766C302.477 63.2005 302.781 64.237 302.781 65.5859V66.1875H297.055C297.076 67.0208 297.318 67.6953 297.781 68.2109C298.25 68.7214 298.844 68.9766 299.562 68.9766C300.073 68.9766 300.505 68.8724 300.859 68.6641C301.214 68.4557 301.523 68.1797 301.789 67.8359L302.672 68.5234C301.964 69.612 300.901 70.1562 299.484 70.1562ZM299.305 62.5781C298.721 62.5781 298.232 62.7917 297.836 63.2188C297.44 63.6406 297.195 64.2344 297.102 65H301.336V64.8906C301.294 64.1562 301.096 63.5885 300.742 63.1875C300.388 62.7812 299.909 62.5781 299.305 62.5781ZM310.555 71.1797H303.398V70H310.555V71.1797ZM312.164 70V62.6641H310.828V61.5469H312.164V60.8281C312.164 59.8854 312.432 59.151 312.969 58.625C313.51 58.099 314.273 57.8359 315.258 57.8359C315.841 57.8359 316.578 57.9948 317.469 58.3125L317.227 59.5312C316.576 59.2708 315.956 59.1406 315.367 59.1406C314.747 59.1406 314.299 59.2812 314.023 59.5625C313.753 59.8385 313.617 60.2552 313.617 60.8125V61.5469H315.344V62.6641H313.617V70H312.164ZM318.188 70H316.734V61.5469H318.188V70ZM322.109 70H320.664V58H322.109V70ZM326.391 59.5V61.5469H327.969V62.6641H326.391V67.9062C326.391 68.2448 326.461 68.5 326.602 68.6719C326.742 68.8385 326.982 68.9219 327.32 68.9219C327.487 68.9219 327.716 68.8906 328.008 68.8281V70C327.628 70.1042 327.258 70.1562 326.898 70.1562C326.253 70.1562 325.766 69.9609 325.438 69.5703C325.109 69.1797 324.945 68.625 324.945 67.9062V62.6641H323.406V61.5469H324.945V59.5H326.391ZM333.172 70.1562C332.026 70.1562 331.094 69.7812 330.375 69.0312C329.656 68.276 329.297 67.2682 329.297 66.0078V65.7422C329.297 64.9036 329.456 64.1562 329.773 63.5C330.096 62.8385 330.544 62.3229 331.117 61.9531C331.695 61.5781 332.32 61.3906 332.992 61.3906C334.091 61.3906 334.945 61.7526 335.555 62.4766C336.164 63.2005 336.469 64.237 336.469 65.5859V66.1875H330.742C330.763 67.0208 331.005 67.6953 331.469 68.2109C331.938 68.7214 332.531 68.9766 333.25 68.9766C333.76 68.9766 334.193 68.8724 334.547 68.6641C334.901 68.4557 335.211 68.1797 335.477 67.8359L336.359 68.5234C335.651 69.612 334.589 70.1562 333.172 70.1562ZM332.992 62.5781C332.409 62.5781 331.919 62.7917 331.523 63.2188C331.128 63.6406 330.883 64.2344 330.789 65H335.023V64.8906C334.982 64.1562 334.784 63.5885 334.43 63.1875C334.076 62.7812 333.596 62.5781 332.992 62.5781ZM342.234 62.8438C342.016 62.8073 341.779 62.7891 341.523 62.7891C340.576 62.7891 339.932 63.1927 339.594 64V70H338.148V61.5469H339.555L339.578 62.5234C340.052 61.7682 340.724 61.3906 341.594 61.3906C341.875 61.3906 342.089 61.4271 342.234 61.5V62.8438Z" fill="#2097F6"/>
<rect x="241.5" y="33.5" width="139" height="62" rx="7.5" stroke="#2097F6"/>
</g>
<g filter="url(#filter2_d)">
<rect x="241" y="120" width="140" height="63" rx="8" fill="white"/>
<path d="M298.242 157C298.159 156.833 298.091 156.536 298.039 156.109C297.367 156.807 296.565 157.156 295.633 157.156C294.799 157.156 294.115 156.922 293.578 156.453C293.047 155.979 292.781 155.38 292.781 154.656C292.781 153.776 293.115 153.094 293.781 152.609C294.453 152.12 295.396 151.875 296.609 151.875H298.016V151.211C298.016 150.706 297.865 150.305 297.562 150.008C297.26 149.706 296.815 149.555 296.227 149.555C295.711 149.555 295.279 149.685 294.93 149.945C294.581 150.206 294.406 150.521 294.406 150.891H292.953C292.953 150.469 293.102 150.062 293.398 149.672C293.701 149.276 294.107 148.964 294.617 148.734C295.133 148.505 295.698 148.391 296.312 148.391C297.286 148.391 298.049 148.635 298.602 149.125C299.154 149.609 299.44 150.279 299.461 151.133V155.023C299.461 155.799 299.56 156.417 299.758 156.875V157H298.242ZM295.844 155.898C296.297 155.898 296.727 155.781 297.133 155.547C297.539 155.312 297.833 155.008 298.016 154.633V152.898H296.883C295.112 152.898 294.227 153.417 294.227 154.453C294.227 154.906 294.378 155.26 294.68 155.516C294.982 155.771 295.37 155.898 295.844 155.898ZM308.867 152.867C308.867 154.154 308.573 155.19 307.984 155.977C307.396 156.763 306.599 157.156 305.594 157.156C304.568 157.156 303.76 156.831 303.172 156.18V160.25H301.727V148.547H303.047L303.117 149.484C303.706 148.755 304.523 148.391 305.57 148.391C306.586 148.391 307.388 148.773 307.977 149.539C308.57 150.305 308.867 151.37 308.867 152.734V152.867ZM307.422 152.703C307.422 151.75 307.219 150.997 306.812 150.445C306.406 149.893 305.849 149.617 305.141 149.617C304.266 149.617 303.609 150.005 303.172 150.781V154.82C303.604 155.591 304.266 155.977 305.156 155.977C305.849 155.977 306.398 155.703 306.805 155.156C307.216 154.604 307.422 153.786 307.422 152.703ZM317.852 152.867C317.852 154.154 317.557 155.19 316.969 155.977C316.38 156.763 315.583 157.156 314.578 157.156C313.552 157.156 312.745 156.831 312.156 156.18V160.25H310.711V148.547H312.031L312.102 149.484C312.69 148.755 313.508 148.391 314.555 148.391C315.57 148.391 316.372 148.773 316.961 149.539C317.555 150.305 317.852 151.37 317.852 152.734V152.867ZM316.406 152.703C316.406 151.75 316.203 150.997 315.797 150.445C315.391 149.893 314.833 149.617 314.125 149.617C313.25 149.617 312.594 150.005 312.156 150.781V154.82C312.589 155.591 313.25 155.977 314.141 155.977C314.833 155.977 315.383 155.703 315.789 155.156C316.201 154.604 316.406 153.786 316.406 152.703ZM321.266 157H319.82V145H321.266V157ZM326.352 154.883L328.32 148.547H329.867L326.469 158.305C325.943 159.711 325.107 160.414 323.961 160.414L323.688 160.391L323.148 160.289V159.117L323.539 159.148C324.029 159.148 324.409 159.049 324.68 158.852C324.956 158.654 325.182 158.292 325.359 157.766L325.68 156.906L322.664 148.547H324.242L326.352 154.883Z" fill="#2097F6"/>
<rect x="241.5" y="120.5" width="139" height="62" rx="7.5" stroke="#2097F6"/>
</g>
<g filter="url(#filter3_d)">
<rect x="241" y="207" width="140" height="63" rx="8" fill="white"/>
<path d="M277.969 239.547V244H276.469V232.625H280.664C281.909 232.625 282.883 232.943 283.586 233.578C284.294 234.214 284.648 235.055 284.648 236.102C284.648 237.206 284.302 238.057 283.609 238.656C282.922 239.25 281.935 239.547 280.648 239.547H277.969ZM277.969 238.32H280.664C281.466 238.32 282.081 238.133 282.508 237.758C282.935 237.378 283.148 236.831 283.148 236.117C283.148 235.44 282.935 234.898 282.508 234.492C282.081 234.086 281.495 233.875 280.75 233.859H277.969V238.32ZM285.844 239.695C285.844 238.867 286.005 238.122 286.328 237.461C286.656 236.799 287.109 236.289 287.688 235.93C288.271 235.57 288.935 235.391 289.68 235.391C290.831 235.391 291.76 235.789 292.469 236.586C293.182 237.383 293.539 238.443 293.539 239.766V239.867C293.539 240.69 293.38 241.43 293.062 242.086C292.75 242.737 292.299 243.245 291.711 243.609C291.128 243.974 290.456 244.156 289.695 244.156C288.549 244.156 287.62 243.758 286.906 242.961C286.198 242.164 285.844 241.109 285.844 239.797V239.695ZM287.297 239.867C287.297 240.805 287.513 241.557 287.945 242.125C288.383 242.693 288.966 242.977 289.695 242.977C290.43 242.977 291.013 242.69 291.445 242.117C291.878 241.539 292.094 240.732 292.094 239.695C292.094 238.768 291.872 238.018 291.43 237.445C290.992 236.867 290.409 236.578 289.68 236.578C288.966 236.578 288.391 236.862 287.953 237.43C287.516 237.997 287.297 238.81 287.297 239.867ZM300.273 241.758C300.273 241.367 300.125 241.065 299.828 240.852C299.536 240.633 299.023 240.445 298.289 240.289C297.56 240.133 296.979 239.945 296.547 239.727C296.12 239.508 295.802 239.247 295.594 238.945C295.391 238.643 295.289 238.284 295.289 237.867C295.289 237.174 295.581 236.589 296.164 236.109C296.753 235.63 297.503 235.391 298.414 235.391C299.372 235.391 300.148 235.638 300.742 236.133C301.341 236.628 301.641 237.26 301.641 238.031H300.188C300.188 237.635 300.018 237.294 299.68 237.008C299.346 236.721 298.924 236.578 298.414 236.578C297.888 236.578 297.477 236.693 297.18 236.922C296.883 237.151 296.734 237.451 296.734 237.82C296.734 238.169 296.872 238.432 297.148 238.609C297.424 238.786 297.922 238.956 298.641 239.117C299.365 239.279 299.951 239.471 300.398 239.695C300.846 239.919 301.177 240.19 301.391 240.508C301.609 240.82 301.719 241.203 301.719 241.656C301.719 242.411 301.417 243.018 300.812 243.477C300.208 243.93 299.424 244.156 298.461 244.156C297.784 244.156 297.185 244.036 296.664 243.797C296.143 243.557 295.734 243.224 295.438 242.797C295.146 242.365 295 241.898 295 241.398H296.445C296.471 241.883 296.664 242.268 297.023 242.555C297.388 242.836 297.867 242.977 298.461 242.977C299.008 242.977 299.445 242.867 299.773 242.648C300.107 242.424 300.273 242.128 300.273 241.758ZM305.562 233.5V235.547H307.141V236.664H305.562V241.906C305.562 242.245 305.633 242.5 305.773 242.672C305.914 242.839 306.154 242.922 306.492 242.922C306.659 242.922 306.888 242.891 307.18 242.828V244C306.799 244.104 306.43 244.156 306.07 244.156C305.424 244.156 304.938 243.961 304.609 243.57C304.281 243.18 304.117 242.625 304.117 241.906V236.664H302.578V235.547H304.117V233.5H305.562ZM314.93 245.18H307.773V244H314.93V245.18ZM316.539 244V236.664H315.203V235.547H316.539V234.828C316.539 233.885 316.807 233.151 317.344 232.625C317.885 232.099 318.648 231.836 319.633 231.836C320.216 231.836 320.953 231.995 321.844 232.312L321.602 233.531C320.951 233.271 320.331 233.141 319.742 233.141C319.122 233.141 318.674 233.281 318.398 233.562C318.128 233.839 317.992 234.255 317.992 234.812V235.547H319.719V236.664H317.992V244H316.539ZM322.562 244H321.109V235.547H322.562V244ZM326.484 244H325.039V232H326.484V244ZM330.766 233.5V235.547H332.344V236.664H330.766V241.906C330.766 242.245 330.836 242.5 330.977 242.672C331.117 242.839 331.357 242.922 331.695 242.922C331.862 242.922 332.091 242.891 332.383 242.828V244C332.003 244.104 331.633 244.156 331.273 244.156C330.628 244.156 330.141 243.961 329.812 243.57C329.484 243.18 329.32 242.625 329.32 241.906V236.664H327.781V235.547H329.32V233.5H330.766ZM337.547 244.156C336.401 244.156 335.469 243.781 334.75 243.031C334.031 242.276 333.672 241.268 333.672 240.008V239.742C333.672 238.904 333.831 238.156 334.148 237.5C334.471 236.839 334.919 236.323 335.492 235.953C336.07 235.578 336.695 235.391 337.367 235.391C338.466 235.391 339.32 235.753 339.93 236.477C340.539 237.201 340.844 238.237 340.844 239.586V240.188H335.117C335.138 241.021 335.38 241.695 335.844 242.211C336.312 242.721 336.906 242.977 337.625 242.977C338.135 242.977 338.568 242.872 338.922 242.664C339.276 242.456 339.586 242.18 339.852 241.836L340.734 242.523C340.026 243.612 338.964 244.156 337.547 244.156ZM337.367 236.578C336.784 236.578 336.294 236.792 335.898 237.219C335.503 237.641 335.258 238.234 335.164 239H339.398V238.891C339.357 238.156 339.159 237.589 338.805 237.188C338.451 236.781 337.971 236.578 337.367 236.578ZM346.609 236.844C346.391 236.807 346.154 236.789 345.898 236.789C344.951 236.789 344.307 237.193 343.969 238V244H342.523V235.547H343.93L343.953 236.523C344.427 235.768 345.099 235.391 345.969 235.391C346.25 235.391 346.464 235.427 346.609 235.5V236.844Z" fill="#2097F6"/>
<rect x="241.5" y="207.5" width="139" height="62" rx="7.5" stroke="#2097F6"/>
</g>
<path fill-rule="evenodd" clip-rule="evenodd" d="M311.669 120L311.503 120.179C311.311 120.387 311.039 120.504 310.756 120.5C310.473 120.496 310.204 120.372 310.017 120.159L301.248 110.159C300.884 109.744 300.925 109.112 301.341 108.748C301.756 108.384 302.388 108.425 302.752 108.841L310 117.106L310 96H312L312 116.698L319.292 108.821C319.667 108.415 320.3 108.391 320.705 108.766C321.11 109.141 321.135 109.774 320.76 110.179L312 119.643V120H311.669Z" fill="#2097F6"/>
<path fill-rule="evenodd" clip-rule="evenodd" d="M311.669 207L311.503 207.179C311.311 207.387 311.039 207.504 310.756 207.5C310.473 207.496 310.204 207.372 310.017 207.159L301.248 197.159C300.884 196.744 300.925 196.112 301.341 195.748C301.756 195.384 302.388 195.425 302.752 195.841L310 204.106L310 183H312L312 203.698L319.292 195.821C319.667 195.415 320.3 195.391 320.705 195.766C321.11 196.141 321.135 196.774 320.76 197.179L312 206.643V207H311.669Z" fill="#2097F6"/>
<path fill-rule="evenodd" clip-rule="evenodd" d="M448.5 152.357L448.679 152.523C448.887 152.715 449.004 152.987 449 153.27C448.996 153.553 448.872 153.821 448.659 154.008L438.659 162.778C438.244 163.142 437.612 163.1 437.248 162.685C436.884 162.27 436.925 161.638 437.341 161.274L445.606 154.026H408V152.026H445.198L437.321 144.734C436.915 144.359 436.891 143.726 437.266 143.321C437.641 142.915 438.274 142.891 438.679 143.266L448.142 152.026H448.5V152.357Z" fill="#2097F6"/>
<g filter="url(#filter4_d)">
<rect x="669" y="121" width="140" height="63" rx="8" fill="white"/>
<path d="M720.055 158V146.625H723.773C725.008 146.625 725.935 146.88 726.555 147.391C727.18 147.901 727.492 148.656 727.492 149.656C727.492 150.188 727.341 150.659 727.039 151.07C726.737 151.477 726.326 151.792 725.805 152.016C726.419 152.188 726.904 152.516 727.258 153C727.617 153.479 727.797 154.052 727.797 154.719C727.797 155.74 727.466 156.542 726.805 157.125C726.143 157.708 725.208 158 724 158H720.055ZM721.555 152.68V156.773H724.031C724.729 156.773 725.279 156.594 725.68 156.234C726.086 155.87 726.289 155.37 726.289 154.734C726.289 153.365 725.544 152.68 724.055 152.68H721.555ZM721.555 151.477H723.82C724.477 151.477 725 151.312 725.391 150.984C725.786 150.656 725.984 150.211 725.984 149.648C725.984 149.023 725.802 148.57 725.438 148.289C725.073 148.003 724.518 147.859 723.773 147.859H721.555V151.477ZM735.016 158C734.932 157.833 734.865 157.536 734.812 157.109C734.141 157.807 733.339 158.156 732.406 158.156C731.573 158.156 730.888 157.922 730.352 157.453C729.82 156.979 729.555 156.38 729.555 155.656C729.555 154.776 729.888 154.094 730.555 153.609C731.227 153.12 732.169 152.875 733.383 152.875H734.789V152.211C734.789 151.706 734.638 151.305 734.336 151.008C734.034 150.706 733.589 150.555 733 150.555C732.484 150.555 732.052 150.685 731.703 150.945C731.354 151.206 731.18 151.521 731.18 151.891H729.727C729.727 151.469 729.875 151.062 730.172 150.672C730.474 150.276 730.88 149.964 731.391 149.734C731.906 149.505 732.471 149.391 733.086 149.391C734.06 149.391 734.823 149.635 735.375 150.125C735.927 150.609 736.214 151.279 736.234 152.133V156.023C736.234 156.799 736.333 157.417 736.531 157.875V158H735.016ZM732.617 156.898C733.07 156.898 733.5 156.781 733.906 156.547C734.312 156.312 734.607 156.008 734.789 155.633V153.898H733.656C731.885 153.898 731 154.417 731 155.453C731 155.906 731.151 156.26 731.453 156.516C731.755 156.771 732.143 156.898 732.617 156.898ZM740.859 154.086L739.953 155.031V158H738.508V146H739.953V153.258L740.727 152.328L743.359 149.547H745.117L741.828 153.078L745.5 158H743.805L740.859 154.086ZM749.961 158.156C748.815 158.156 747.883 157.781 747.164 157.031C746.445 156.276 746.086 155.268 746.086 154.008V153.742C746.086 152.904 746.245 152.156 746.562 151.5C746.885 150.839 747.333 150.323 747.906 149.953C748.484 149.578 749.109 149.391 749.781 149.391C750.88 149.391 751.734 149.753 752.344 150.477C752.953 151.201 753.258 152.237 753.258 153.586V154.188H747.531C747.552 155.021 747.794 155.695 748.258 156.211C748.727 156.721 749.32 156.977 750.039 156.977C750.549 156.977 750.982 156.872 751.336 156.664C751.69 156.456 752 156.18 752.266 155.836L753.148 156.523C752.44 157.612 751.378 158.156 749.961 158.156ZM749.781 150.578C749.198 150.578 748.708 150.792 748.312 151.219C747.917 151.641 747.672 152.234 747.578 153H751.812V152.891C751.771 152.156 751.573 151.589 751.219 151.188C750.865 150.781 750.385 150.578 749.781 150.578ZM759.023 150.844C758.805 150.807 758.568 150.789 758.312 150.789C757.365 150.789 756.721 151.193 756.383 152V158H754.938V149.547H756.344L756.367 150.523C756.841 149.768 757.513 149.391 758.383 149.391C758.664 149.391 758.878 149.427 759.023 149.5V150.844Z" fill="#2097F6"/>
<rect x="669.5" y="121.5" width="139" height="62" rx="7.5" stroke="#2097F6"/>
</g>
<g filter="url(#filter5_d)">
<rect x="850" y="121" width="140" height="63" rx="8" fill="white"/>
<path d="M884.586 152.742H879.656V156.773H885.383V158H878.156V146.625H885.305V147.859H879.656V151.516H884.586V152.742ZM888.391 149.547L888.438 150.609C889.083 149.797 889.927 149.391 890.969 149.391C892.755 149.391 893.656 150.398 893.672 152.414V158H892.227V152.406C892.221 151.797 892.081 151.346 891.805 151.055C891.534 150.763 891.109 150.617 890.531 150.617C890.062 150.617 889.651 150.742 889.297 150.992C888.943 151.242 888.667 151.57 888.469 151.977V158H887.023V149.547H888.391ZM895.5 153.703C895.5 152.406 895.807 151.365 896.422 150.578C897.036 149.786 897.841 149.391 898.836 149.391C899.826 149.391 900.609 149.729 901.188 150.406V146H902.633V158H901.305L901.234 157.094C900.656 157.802 899.852 158.156 898.82 158.156C897.841 158.156 897.042 157.755 896.422 156.953C895.807 156.151 895.5 155.104 895.5 153.812V153.703ZM896.945 153.867C896.945 154.826 897.143 155.576 897.539 156.117C897.935 156.659 898.482 156.93 899.18 156.93C900.096 156.93 900.766 156.518 901.188 155.695V151.812C900.755 151.016 900.091 150.617 899.195 150.617C898.487 150.617 897.935 150.891 897.539 151.438C897.143 151.984 896.945 152.794 896.945 153.867ZM904.5 153.695C904.5 152.867 904.661 152.122 904.984 151.461C905.312 150.799 905.766 150.289 906.344 149.93C906.927 149.57 907.591 149.391 908.336 149.391C909.487 149.391 910.417 149.789 911.125 150.586C911.839 151.383 912.195 152.443 912.195 153.766V153.867C912.195 154.69 912.036 155.43 911.719 156.086C911.406 156.737 910.956 157.245 910.367 157.609C909.784 157.974 909.112 158.156 908.352 158.156C907.206 158.156 906.276 157.758 905.562 156.961C904.854 156.164 904.5 155.109 904.5 153.797V153.695ZM905.953 153.867C905.953 154.805 906.169 155.557 906.602 156.125C907.039 156.693 907.622 156.977 908.352 156.977C909.086 156.977 909.669 156.69 910.102 156.117C910.534 155.539 910.75 154.732 910.75 153.695C910.75 152.768 910.529 152.018 910.086 151.445C909.648 150.867 909.065 150.578 908.336 150.578C907.622 150.578 907.047 150.862 906.609 151.43C906.172 151.997 905.953 152.81 905.953 153.867ZM918.094 150.844C917.875 150.807 917.638 150.789 917.383 150.789C916.435 150.789 915.792 151.193 915.453 152V158H914.008V149.547H915.414L915.438 150.523C915.911 149.768 916.583 149.391 917.453 149.391C917.734 149.391 917.948 149.427 918.094 149.5V150.844ZM924.352 155.758C924.352 155.367 924.203 155.065 923.906 154.852C923.615 154.633 923.102 154.445 922.367 154.289C921.638 154.133 921.057 153.945 920.625 153.727C920.198 153.508 919.88 153.247 919.672 152.945C919.469 152.643 919.367 152.284 919.367 151.867C919.367 151.174 919.659 150.589 920.242 150.109C920.831 149.63 921.581 149.391 922.492 149.391C923.451 149.391 924.227 149.638 924.82 150.133C925.419 150.628 925.719 151.26 925.719 152.031H924.266C924.266 151.635 924.096 151.294 923.758 151.008C923.424 150.721 923.003 150.578 922.492 150.578C921.966 150.578 921.555 150.693 921.258 150.922C920.961 151.151 920.812 151.451 920.812 151.82C920.812 152.169 920.951 152.432 921.227 152.609C921.503 152.786 922 152.956 922.719 153.117C923.443 153.279 924.029 153.471 924.477 153.695C924.924 153.919 925.255 154.19 925.469 154.508C925.688 154.82 925.797 155.203 925.797 155.656C925.797 156.411 925.495 157.018 924.891 157.477C924.286 157.93 923.503 158.156 922.539 158.156C921.862 158.156 921.263 158.036 920.742 157.797C920.221 157.557 919.812 157.224 919.516 156.797C919.224 156.365 919.078 155.898 919.078 155.398H920.523C920.549 155.883 920.742 156.268 921.102 156.555C921.466 156.836 921.945 156.977 922.539 156.977C923.086 156.977 923.523 156.867 923.852 156.648C924.185 156.424 924.352 156.128 924.352 155.758ZM929.039 149.547L929.078 150.484C929.698 149.755 930.534 149.391 931.586 149.391C932.768 149.391 933.573 149.844 934 150.75C934.281 150.344 934.646 150.016 935.094 149.766C935.547 149.516 936.081 149.391 936.695 149.391C938.549 149.391 939.492 150.372 939.523 152.336V158H938.078V152.422C938.078 151.818 937.94 151.367 937.664 151.07C937.388 150.768 936.924 150.617 936.273 150.617C935.737 150.617 935.292 150.779 934.938 151.102C934.583 151.419 934.378 151.849 934.32 152.391V158H932.867V152.461C932.867 151.232 932.266 150.617 931.062 150.617C930.115 150.617 929.466 151.021 929.117 151.828V158H927.672V149.547H929.039ZM945.219 158.156C944.073 158.156 943.141 157.781 942.422 157.031C941.703 156.276 941.344 155.268 941.344 154.008V153.742C941.344 152.904 941.503 152.156 941.82 151.5C942.143 150.839 942.591 150.323 943.164 149.953C943.742 149.578 944.367 149.391 945.039 149.391C946.138 149.391 946.992 149.753 947.602 150.477C948.211 151.201 948.516 152.237 948.516 153.586V154.188H942.789C942.81 155.021 943.052 155.695 943.516 156.211C943.984 156.721 944.578 156.977 945.297 156.977C945.807 156.977 946.24 156.872 946.594 156.664C946.948 156.456 947.258 156.18 947.523 155.836L948.406 156.523C947.698 157.612 946.635 158.156 945.219 158.156ZM945.039 150.578C944.456 150.578 943.966 150.792 943.57 151.219C943.174 151.641 942.93 152.234 942.836 153H947.07V152.891C947.029 152.156 946.831 151.589 946.477 151.188C946.122 150.781 945.643 150.578 945.039 150.578ZM951.562 149.547L951.609 150.609C952.255 149.797 953.099 149.391 954.141 149.391C955.927 149.391 956.828 150.398 956.844 152.414V158H955.398V152.406C955.393 151.797 955.253 151.346 954.977 151.055C954.706 150.763 954.281 150.617 953.703 150.617C953.234 150.617 952.823 150.742 952.469 150.992C952.115 151.242 951.839 151.57 951.641 151.977V158H950.195V149.547H951.562ZM960.984 147.5V149.547H962.562V150.664H960.984V155.906C960.984 156.245 961.055 156.5 961.195 156.672C961.336 156.839 961.576 156.922 961.914 156.922C962.081 156.922 962.31 156.891 962.602 156.828V158C962.221 158.104 961.852 158.156 961.492 158.156C960.846 158.156 960.359 157.961 960.031 157.57C959.703 157.18 959.539 156.625 959.539 155.906V150.664H958V149.547H959.539V147.5H960.984Z" fill="#2097F6"/>
<rect x="850.5" y="121.5" width="139" height="62" rx="7.5" stroke="#2097F6"/>
</g>
<rect x="449" y="48" width="179" height="209" rx="10" fill="#E7F4FF"/>
<path d="M460.953 55.625L464.672 64.9062L468.391 55.625H470.336V67H468.836V62.5703L468.977 57.7891L465.242 67H464.094L460.367 57.8125L460.516 62.5703V67H459.016V55.625H460.953ZM476.266 67.1562C475.12 67.1562 474.188 66.7812 473.469 66.0312C472.75 65.276 472.391 64.2682 472.391 63.0078V62.7422C472.391 61.9036 472.549 61.1562 472.867 60.5C473.19 59.8385 473.638 59.3229 474.211 58.9531C474.789 58.5781 475.414 58.3906 476.086 58.3906C477.185 58.3906 478.039 58.7526 478.648 59.4766C479.258 60.2005 479.562 61.237 479.562 62.5859V63.1875H473.836C473.857 64.0208 474.099 64.6953 474.562 65.2109C475.031 65.7214 475.625 65.9766 476.344 65.9766C476.854 65.9766 477.286 65.8724 477.641 65.6641C477.995 65.4557 478.305 65.1797 478.57 64.8359L479.453 65.5234C478.745 66.612 477.682 67.1562 476.266 67.1562ZM476.086 59.5781C475.503 59.5781 475.013 59.7917 474.617 60.2188C474.221 60.6406 473.977 61.2344 473.883 62H478.117V61.8906C478.076 61.1562 477.878 60.5885 477.523 60.1875C477.169 59.7812 476.69 59.5781 476.086 59.5781ZM482.602 58.5469L482.641 59.4844C483.26 58.7552 484.096 58.3906 485.148 58.3906C486.331 58.3906 487.135 58.8438 487.562 59.75C487.844 59.3438 488.208 59.0156 488.656 58.7656C489.109 58.5156 489.643 58.3906 490.258 58.3906C492.112 58.3906 493.055 59.3724 493.086 61.3359V67H491.641V61.4219C491.641 60.8177 491.503 60.3672 491.227 60.0703C490.951 59.7682 490.487 59.6172 489.836 59.6172C489.299 59.6172 488.854 59.7786 488.5 60.1016C488.146 60.4193 487.94 60.849 487.883 61.3906V67H486.43V61.4609C486.43 60.2318 485.828 59.6172 484.625 59.6172C483.677 59.6172 483.029 60.0208 482.68 60.8281V67H481.234V58.5469H482.602ZM502.414 62.8672C502.414 64.1536 502.12 65.1901 501.531 65.9766C500.943 66.763 500.146 67.1562 499.141 67.1562C498.115 67.1562 497.307 66.8307 496.719 66.1797V70.25H495.273V58.5469H496.594L496.664 59.4844C497.253 58.7552 498.07 58.3906 499.117 58.3906C500.133 58.3906 500.935 58.7734 501.523 59.5391C502.117 60.3047 502.414 61.3698 502.414 62.7344V62.8672ZM500.969 62.7031C500.969 61.75 500.766 60.9974 500.359 60.4453C499.953 59.8932 499.396 59.6172 498.688 59.6172C497.812 59.6172 497.156 60.0052 496.719 60.7812V64.8203C497.151 65.5911 497.812 65.9766 498.703 65.9766C499.396 65.9766 499.945 65.7031 500.352 65.1562C500.763 64.6042 500.969 63.7865 500.969 62.7031ZM503.875 62.6953C503.875 61.8672 504.036 61.1224 504.359 60.4609C504.688 59.7995 505.141 59.2891 505.719 58.9297C506.302 58.5703 506.966 58.3906 507.711 58.3906C508.862 58.3906 509.792 58.7891 510.5 59.5859C511.214 60.3828 511.57 61.4427 511.57 62.7656V62.8672C511.57 63.6901 511.411 64.4297 511.094 65.0859C510.781 65.737 510.331 66.2448 509.742 66.6094C509.159 66.974 508.487 67.1562 507.727 67.1562C506.581 67.1562 505.651 66.7578 504.938 65.9609C504.229 65.1641 503.875 64.1094 503.875 62.7969V62.6953ZM505.328 62.8672C505.328 63.8047 505.544 64.5573 505.977 65.125C506.414 65.6927 506.997 65.9766 507.727 65.9766C508.461 65.9766 509.044 65.6901 509.477 65.1172C509.909 64.5391 510.125 63.7318 510.125 62.6953C510.125 61.7682 509.904 61.0182 509.461 60.4453C509.023 59.8672 508.44 59.5781 507.711 59.5781C506.997 59.5781 506.422 59.862 505.984 60.4297C505.547 60.9974 505.328 61.8099 505.328 62.8672ZM513 62.6953C513 61.8672 513.161 61.1224 513.484 60.4609C513.812 59.7995 514.266 59.2891 514.844 58.9297C515.427 58.5703 516.091 58.3906 516.836 58.3906C517.987 58.3906 518.917 58.7891 519.625 59.5859C520.339 60.3828 520.695 61.4427 520.695 62.7656V62.8672C520.695 63.6901 520.536 64.4297 520.219 65.0859C519.906 65.737 519.456 66.2448 518.867 66.6094C518.284 66.974 517.612 67.1562 516.852 67.1562C515.706 67.1562 514.776 66.7578 514.062 65.9609C513.354 65.1641 513 64.1094 513 62.7969V62.6953ZM514.453 62.8672C514.453 63.8047 514.669 64.5573 515.102 65.125C515.539 65.6927 516.122 65.9766 516.852 65.9766C517.586 65.9766 518.169 65.6901 518.602 65.1172C519.034 64.5391 519.25 63.7318 519.25 62.6953C519.25 61.7682 519.029 61.0182 518.586 60.4453C518.148 59.8672 517.565 59.5781 516.836 59.5781C516.122 59.5781 515.547 59.862 515.109 60.4297C514.672 60.9974 514.453 61.8099 514.453 62.8672ZM524.078 67H522.633V55H524.078V67Z" fill="black"/>
<path d="M540.141 160.68C540.141 161.794 539.953 162.768 539.578 163.602C539.203 164.43 538.672 165.062 537.984 165.5C537.297 165.938 536.495 166.156 535.578 166.156C534.682 166.156 533.888 165.938 533.195 165.5C532.503 165.057 531.964 164.43 531.578 163.617C531.198 162.799 531.003 161.854 530.992 160.781V159.961C530.992 158.867 531.182 157.901 531.562 157.062C531.943 156.224 532.479 155.583 533.172 155.141C533.87 154.693 534.667 154.469 535.562 154.469C536.474 154.469 537.276 154.69 537.969 155.133C538.667 155.57 539.203 156.208 539.578 157.047C539.953 157.88 540.141 158.852 540.141 159.961V160.68ZM538.648 159.945C538.648 158.596 538.378 157.562 537.836 156.844C537.294 156.12 536.536 155.758 535.562 155.758C534.615 155.758 533.867 156.12 533.32 156.844C532.779 157.562 532.5 158.562 532.484 159.844V160.68C532.484 161.987 532.758 163.016 533.305 163.766C533.857 164.51 534.615 164.883 535.578 164.883C536.547 164.883 537.297 164.531 537.828 163.828C538.359 163.12 538.633 162.107 538.648 160.789V159.945ZM546.562 161.398H543.891V166H542.383V154.625H546.148C547.43 154.625 548.414 154.917 549.102 155.5C549.794 156.083 550.141 156.932 550.141 158.047C550.141 158.755 549.948 159.372 549.562 159.898C549.182 160.424 548.651 160.818 547.969 161.078L550.641 165.906V166H549.031L546.562 161.398ZM543.891 160.172H546.195C546.94 160.172 547.531 159.979 547.969 159.594C548.411 159.208 548.633 158.693 548.633 158.047C548.633 157.344 548.422 156.805 548 156.43C547.583 156.055 546.979 155.865 546.188 155.859H543.891V160.172Z" fill="black"/>
<g filter="url(#filter6_d)">
<rect x="471" y="177" width="140" height="63" rx="8" fill="white"/>
<path d="M500.703 208.711L499.312 210.156V214H497.812V202.625H499.312V208.25L504.367 202.625H506.18L501.703 207.648L506.531 214H504.734L500.703 208.711ZM508.797 205.547L508.844 206.609C509.49 205.797 510.333 205.391 511.375 205.391C513.161 205.391 514.062 206.398 514.078 208.414V214H512.633V208.406C512.628 207.797 512.487 207.346 512.211 207.055C511.94 206.763 511.516 206.617 510.938 206.617C510.469 206.617 510.057 206.742 509.703 206.992C509.349 207.242 509.073 207.57 508.875 207.977V214H507.43V205.547H508.797ZM515.875 209.695C515.875 208.867 516.036 208.122 516.359 207.461C516.688 206.799 517.141 206.289 517.719 205.93C518.302 205.57 518.966 205.391 519.711 205.391C520.862 205.391 521.792 205.789 522.5 206.586C523.214 207.383 523.57 208.443 523.57 209.766V209.867C523.57 210.69 523.411 211.43 523.094 212.086C522.781 212.737 522.331 213.245 521.742 213.609C521.159 213.974 520.487 214.156 519.727 214.156C518.581 214.156 517.651 213.758 516.938 212.961C516.229 212.164 515.875 211.109 515.875 209.797V209.695ZM517.328 209.867C517.328 210.805 517.544 211.557 517.977 212.125C518.414 212.693 518.997 212.977 519.727 212.977C520.461 212.977 521.044 212.69 521.477 212.117C521.909 211.539 522.125 210.732 522.125 209.695C522.125 208.768 521.904 208.018 521.461 207.445C521.023 206.867 520.44 206.578 519.711 206.578C518.997 206.578 518.422 206.862 517.984 207.43C517.547 207.997 517.328 208.81 517.328 209.867ZM532.867 212.008L534.492 205.547H535.938L533.477 214H532.305L530.25 207.594L528.25 214H527.078L524.625 205.547H526.062L527.727 211.875L529.695 205.547H530.859L532.867 212.008ZM538.781 205.547L538.828 206.609C539.474 205.797 540.318 205.391 541.359 205.391C543.146 205.391 544.047 206.398 544.062 208.414V214H542.617V208.406C542.612 207.797 542.471 207.346 542.195 207.055C541.924 206.763 541.5 206.617 540.922 206.617C540.453 206.617 540.042 206.742 539.688 206.992C539.333 207.242 539.057 207.57 538.859 207.977V214H537.414V205.547H538.781ZM552.336 215.18H545.18V214H552.336V215.18ZM556.25 212.039L558.344 205.547H559.82L556.789 214H555.688L552.625 205.547H554.102L556.25 212.039ZM566.305 214C566.221 213.833 566.154 213.536 566.102 213.109C565.43 213.807 564.628 214.156 563.695 214.156C562.862 214.156 562.177 213.922 561.641 213.453C561.109 212.979 560.844 212.38 560.844 211.656C560.844 210.776 561.177 210.094 561.844 209.609C562.516 209.12 563.458 208.875 564.672 208.875H566.078V208.211C566.078 207.706 565.927 207.305 565.625 207.008C565.323 206.706 564.878 206.555 564.289 206.555C563.773 206.555 563.341 206.685 562.992 206.945C562.643 207.206 562.469 207.521 562.469 207.891H561.016C561.016 207.469 561.164 207.062 561.461 206.672C561.763 206.276 562.169 205.964 562.68 205.734C563.195 205.505 563.76 205.391 564.375 205.391C565.349 205.391 566.112 205.635 566.664 206.125C567.216 206.609 567.503 207.279 567.523 208.133V212.023C567.523 212.799 567.622 213.417 567.82 213.875V214H566.305ZM563.906 212.898C564.359 212.898 564.789 212.781 565.195 212.547C565.602 212.312 565.896 212.008 566.078 211.633V209.898H564.945C563.174 209.898 562.289 210.417 562.289 211.453C562.289 211.906 562.44 212.26 562.742 212.516C563.044 212.771 563.432 212.898 563.906 212.898ZM571.359 214H569.914V202H571.359V214ZM575.25 214H573.805V205.547H575.25V214ZM573.688 203.305C573.688 203.07 573.758 202.872 573.898 202.711C574.044 202.549 574.258 202.469 574.539 202.469C574.82 202.469 575.034 202.549 575.18 202.711C575.326 202.872 575.398 203.07 575.398 203.305C575.398 203.539 575.326 203.734 575.18 203.891C575.034 204.047 574.82 204.125 574.539 204.125C574.258 204.125 574.044 204.047 573.898 203.891C573.758 203.734 573.688 203.539 573.688 203.305ZM577.219 209.703C577.219 208.406 577.526 207.365 578.141 206.578C578.755 205.786 579.56 205.391 580.555 205.391C581.544 205.391 582.328 205.729 582.906 206.406V202H584.352V214H583.023L582.953 213.094C582.375 213.802 581.57 214.156 580.539 214.156C579.56 214.156 578.76 213.755 578.141 212.953C577.526 212.151 577.219 211.104 577.219 209.812V209.703ZM578.664 209.867C578.664 210.826 578.862 211.576 579.258 212.117C579.654 212.659 580.201 212.93 580.898 212.93C581.815 212.93 582.484 212.518 582.906 211.695V207.812C582.474 207.016 581.81 206.617 580.914 206.617C580.206 206.617 579.654 206.891 579.258 207.438C578.862 207.984 578.664 208.794 578.664 209.867Z" fill="#2097F6"/>
<rect x="471.5" y="177.5" width="139" height="62" rx="7.5" stroke="#2097F6"/>
</g>
<g filter="url(#filter7_d)">
<rect x="471" y="78" width="140" height="63" rx="8" fill="white"/>
<path d="M514.805 110.547V115H513.305V103.625H517.5C518.745 103.625 519.719 103.943 520.422 104.578C521.13 105.214 521.484 106.055 521.484 107.102C521.484 108.206 521.138 109.057 520.445 109.656C519.758 110.25 518.771 110.547 517.484 110.547H514.805ZM514.805 109.32H517.5C518.302 109.32 518.917 109.133 519.344 108.758C519.771 108.378 519.984 107.831 519.984 107.117C519.984 106.44 519.771 105.898 519.344 105.492C518.917 105.086 518.331 104.875 517.586 104.859H514.805V109.32ZM526.57 115.156C525.424 115.156 524.492 114.781 523.773 114.031C523.055 113.276 522.695 112.268 522.695 111.008V110.742C522.695 109.904 522.854 109.156 523.172 108.5C523.495 107.839 523.943 107.323 524.516 106.953C525.094 106.578 525.719 106.391 526.391 106.391C527.49 106.391 528.344 106.753 528.953 107.477C529.562 108.201 529.867 109.237 529.867 110.586V111.188H524.141C524.161 112.021 524.404 112.695 524.867 113.211C525.336 113.721 525.93 113.977 526.648 113.977C527.159 113.977 527.591 113.872 527.945 113.664C528.299 113.456 528.609 113.18 528.875 112.836L529.758 113.523C529.049 114.612 527.987 115.156 526.57 115.156ZM526.391 107.578C525.807 107.578 525.318 107.792 524.922 108.219C524.526 108.641 524.281 109.234 524.188 110H528.422V109.891C528.38 109.156 528.182 108.589 527.828 108.188C527.474 107.781 526.995 107.578 526.391 107.578ZM532.914 106.547L532.961 107.609C533.607 106.797 534.451 106.391 535.492 106.391C537.279 106.391 538.18 107.398 538.195 109.414V115H536.75V109.406C536.745 108.797 536.604 108.346 536.328 108.055C536.057 107.763 535.633 107.617 535.055 107.617C534.586 107.617 534.174 107.742 533.82 107.992C533.466 108.242 533.19 108.57 532.992 108.977V115H531.547V106.547H532.914ZM540.023 110.703C540.023 109.406 540.331 108.365 540.945 107.578C541.56 106.786 542.365 106.391 543.359 106.391C544.349 106.391 545.133 106.729 545.711 107.406V103H547.156V115H545.828L545.758 114.094C545.18 114.802 544.375 115.156 543.344 115.156C542.365 115.156 541.565 114.755 540.945 113.953C540.331 113.151 540.023 112.104 540.023 110.812V110.703ZM541.469 110.867C541.469 111.826 541.667 112.576 542.062 113.117C542.458 113.659 543.005 113.93 543.703 113.93C544.62 113.93 545.289 113.518 545.711 112.695V108.812C545.279 108.016 544.615 107.617 543.719 107.617C543.01 107.617 542.458 107.891 542.062 108.438C541.667 108.984 541.469 109.794 541.469 110.867ZM550.977 115H549.531V106.547H550.977V115ZM549.414 104.305C549.414 104.07 549.484 103.872 549.625 103.711C549.771 103.549 549.984 103.469 550.266 103.469C550.547 103.469 550.76 103.549 550.906 103.711C551.052 103.872 551.125 104.07 551.125 104.305C551.125 104.539 551.052 104.734 550.906 104.891C550.76 105.047 550.547 105.125 550.266 105.125C549.984 105.125 549.771 105.047 549.625 104.891C549.484 104.734 549.414 104.539 549.414 104.305ZM554.664 106.547L554.711 107.609C555.357 106.797 556.201 106.391 557.242 106.391C559.029 106.391 559.93 107.398 559.945 109.414V115H558.5V109.406C558.495 108.797 558.354 108.346 558.078 108.055C557.807 107.763 557.383 107.617 556.805 107.617C556.336 107.617 555.924 107.742 555.57 107.992C555.216 108.242 554.94 108.57 554.742 108.977V115H553.297V106.547H554.664ZM561.781 110.703C561.781 109.385 562.086 108.339 562.695 107.562C563.305 106.781 564.112 106.391 565.117 106.391C566.148 106.391 566.953 106.755 567.531 107.484L567.602 106.547H568.922V114.797C568.922 115.891 568.596 116.753 567.945 117.383C567.299 118.013 566.43 118.328 565.336 118.328C564.727 118.328 564.13 118.198 563.547 117.938C562.964 117.677 562.518 117.32 562.211 116.867L562.961 116C563.581 116.766 564.339 117.148 565.234 117.148C565.938 117.148 566.484 116.951 566.875 116.555C567.271 116.159 567.469 115.602 567.469 114.883V114.156C566.891 114.823 566.102 115.156 565.102 115.156C564.112 115.156 563.31 114.758 562.695 113.961C562.086 113.164 561.781 112.078 561.781 110.703ZM563.234 110.867C563.234 111.82 563.43 112.57 563.82 113.117C564.211 113.659 564.758 113.93 565.461 113.93C566.372 113.93 567.042 113.516 567.469 112.688V108.828C567.026 108.021 566.362 107.617 565.477 107.617C564.773 107.617 564.224 107.891 563.828 108.438C563.432 108.984 563.234 109.794 563.234 110.867Z" fill="#2097F6"/>
<rect x="471.5" y="78.5" width="139" height="62" rx="7.5" stroke="#2097F6"/>
</g>
<rect x="1031" y="47" width="179" height="209" rx="10" fill="#E7F4FF"/>
<path d="M1046.75 62.0078L1050 52.625H1051.64L1047.42 64H1046.09L1041.88 52.625H1043.52L1046.75 62.0078ZM1057.8 64C1057.72 63.8333 1057.65 63.5365 1057.6 63.1094C1056.93 63.8073 1056.13 64.1562 1055.2 64.1562C1054.36 64.1562 1053.68 63.9219 1053.14 63.4531C1052.61 62.9792 1052.34 62.3802 1052.34 61.6562C1052.34 60.776 1052.68 60.0938 1053.34 59.6094C1054.02 59.1198 1054.96 58.875 1056.17 58.875H1057.58V58.2109C1057.58 57.7057 1057.43 57.3047 1057.12 57.0078C1056.82 56.7057 1056.38 56.5547 1055.79 56.5547C1055.27 56.5547 1054.84 56.6849 1054.49 56.9453C1054.14 57.2057 1053.97 57.5208 1053.97 57.8906H1052.52C1052.52 57.4688 1052.66 57.0625 1052.96 56.6719C1053.26 56.276 1053.67 55.9635 1054.18 55.7344C1054.7 55.5052 1055.26 55.3906 1055.88 55.3906C1056.85 55.3906 1057.61 55.6354 1058.16 56.125C1058.72 56.6094 1059 57.2786 1059.02 58.1328V62.0234C1059.02 62.7995 1059.12 63.4167 1059.32 63.875V64H1057.8ZM1055.41 62.8984C1055.86 62.8984 1056.29 62.7812 1056.7 62.5469C1057.1 62.3125 1057.4 62.0078 1057.58 61.6328V59.8984H1056.45C1054.67 59.8984 1053.79 60.4167 1053.79 61.4531C1053.79 61.9062 1053.94 62.2604 1054.24 62.5156C1054.54 62.7708 1054.93 62.8984 1055.41 62.8984ZM1062.86 64H1061.41V52H1062.86V64ZM1066.75 64H1065.3V55.5469H1066.75V64ZM1065.19 53.3047C1065.19 53.0703 1065.26 52.8724 1065.4 52.7109C1065.54 52.5495 1065.76 52.4688 1066.04 52.4688C1066.32 52.4688 1066.53 52.5495 1066.68 52.7109C1066.83 52.8724 1066.9 53.0703 1066.9 53.3047C1066.9 53.5391 1066.83 53.7344 1066.68 53.8906C1066.53 54.0469 1066.32 54.125 1066.04 54.125C1065.76 54.125 1065.54 54.0469 1065.4 53.8906C1065.26 53.7344 1065.19 53.5391 1065.19 53.3047ZM1068.72 59.7031C1068.72 58.4062 1069.03 57.3646 1069.64 56.5781C1070.26 55.7865 1071.06 55.3906 1072.05 55.3906C1073.04 55.3906 1073.83 55.7292 1074.41 56.4062V52H1075.85V64H1074.52L1074.45 63.0938C1073.88 63.8021 1073.07 64.1562 1072.04 64.1562C1071.06 64.1562 1070.26 63.7552 1069.64 62.9531C1069.03 62.151 1068.72 61.1042 1068.72 59.8125V59.7031ZM1070.16 59.8672C1070.16 60.8255 1070.36 61.5755 1070.76 62.1172C1071.15 62.6589 1071.7 62.9297 1072.4 62.9297C1073.32 62.9297 1073.98 62.5182 1074.41 61.6953V57.8125C1073.97 57.0156 1073.31 56.6172 1072.41 56.6172C1071.71 56.6172 1071.15 56.8906 1070.76 57.4375C1070.36 57.9844 1070.16 58.7943 1070.16 59.8672ZM1083.32 64C1083.24 63.8333 1083.17 63.5365 1083.12 63.1094C1082.45 63.8073 1081.64 64.1562 1080.71 64.1562C1079.88 64.1562 1079.19 63.9219 1078.66 63.4531C1078.12 62.9792 1077.86 62.3802 1077.86 61.6562C1077.86 60.776 1078.19 60.0938 1078.86 59.6094C1079.53 59.1198 1080.47 58.875 1081.69 58.875H1083.09V58.2109C1083.09 57.7057 1082.94 57.3047 1082.64 57.0078C1082.34 56.7057 1081.89 56.5547 1081.3 56.5547C1080.79 56.5547 1080.36 56.6849 1080.01 56.9453C1079.66 57.2057 1079.48 57.5208 1079.48 57.8906H1078.03C1078.03 57.4688 1078.18 57.0625 1078.48 56.6719C1078.78 56.276 1079.18 55.9635 1079.7 55.7344C1080.21 55.5052 1080.78 55.3906 1081.39 55.3906C1082.36 55.3906 1083.13 55.6354 1083.68 56.125C1084.23 56.6094 1084.52 57.2786 1084.54 58.1328V62.0234C1084.54 62.7995 1084.64 63.4167 1084.84 63.875V64H1083.32ZM1080.92 62.8984C1081.38 62.8984 1081.8 62.7812 1082.21 62.5469C1082.62 62.3125 1082.91 62.0078 1083.09 61.6328V59.8984H1081.96C1080.19 59.8984 1079.3 60.4167 1079.3 61.4531C1079.3 61.9062 1079.46 62.2604 1079.76 62.5156C1080.06 62.7708 1080.45 62.8984 1080.92 62.8984ZM1088.77 53.5V55.5469H1090.34V56.6641H1088.77V61.9062C1088.77 62.2448 1088.84 62.5 1088.98 62.6719C1089.12 62.8385 1089.36 62.9219 1089.7 62.9219C1089.86 62.9219 1090.09 62.8906 1090.38 62.8281V64C1090 64.1042 1089.63 64.1562 1089.27 64.1562C1088.63 64.1562 1088.14 63.9609 1087.81 63.5703C1087.48 63.1797 1087.32 62.625 1087.32 61.9062V56.6641H1085.78V55.5469H1087.32V53.5H1088.77ZM1091.5 59.6953C1091.5 58.8672 1091.66 58.1224 1091.98 57.4609C1092.31 56.7995 1092.77 56.2891 1093.34 55.9297C1093.93 55.5703 1094.59 55.3906 1095.34 55.3906C1096.49 55.3906 1097.42 55.7891 1098.12 56.5859C1098.84 57.3828 1099.2 58.4427 1099.2 59.7656V59.8672C1099.2 60.6901 1099.04 61.4297 1098.72 62.0859C1098.41 62.737 1097.96 63.2448 1097.37 63.6094C1096.78 63.974 1096.11 64.1562 1095.35 64.1562C1094.21 64.1562 1093.28 63.7578 1092.56 62.9609C1091.85 62.1641 1091.5 61.1094 1091.5 59.7969V59.6953ZM1092.95 59.8672C1092.95 60.8047 1093.17 61.5573 1093.6 62.125C1094.04 62.6927 1094.62 62.9766 1095.35 62.9766C1096.09 62.9766 1096.67 62.6901 1097.1 62.1172C1097.53 61.5391 1097.75 60.7318 1097.75 59.6953C1097.75 58.7682 1097.53 58.0182 1097.09 57.4453C1096.65 56.8672 1096.07 56.5781 1095.34 56.5781C1094.62 56.5781 1094.05 56.862 1093.61 57.4297C1093.17 57.9974 1092.95 58.8099 1092.95 59.8672ZM1105.09 56.8438C1104.88 56.8073 1104.64 56.7891 1104.38 56.7891C1103.43 56.7891 1102.79 57.1927 1102.45 58V64H1101.01V55.5469H1102.41L1102.44 56.5234C1102.91 55.7682 1103.58 55.3906 1104.45 55.3906C1104.73 55.3906 1104.95 55.4271 1105.09 55.5V56.8438Z" fill="black"/>
<g filter="url(#filter8_d)">
<rect x="1051" y="75" width="140" height="63" rx="8" fill="white"/>
<path d="M1085.39 112C1085.31 111.833 1085.24 111.536 1085.19 111.109C1084.52 111.807 1083.71 112.156 1082.78 112.156C1081.95 112.156 1081.26 111.922 1080.73 111.453C1080.2 110.979 1079.93 110.38 1079.93 109.656C1079.93 108.776 1080.26 108.094 1080.93 107.609C1081.6 107.12 1082.54 106.875 1083.76 106.875H1085.16V106.211C1085.16 105.706 1085.01 105.305 1084.71 105.008C1084.41 104.706 1083.96 104.555 1083.38 104.555C1082.86 104.555 1082.43 104.685 1082.08 104.945C1081.73 105.206 1081.55 105.521 1081.55 105.891H1080.1C1080.1 105.469 1080.25 105.062 1080.55 104.672C1080.85 104.276 1081.26 103.964 1081.77 103.734C1082.28 103.505 1082.85 103.391 1083.46 103.391C1084.43 103.391 1085.2 103.635 1085.75 104.125C1086.3 104.609 1086.59 105.279 1086.61 106.133V110.023C1086.61 110.799 1086.71 111.417 1086.91 111.875V112H1085.39ZM1082.99 110.898C1083.45 110.898 1083.88 110.781 1084.28 110.547C1084.69 110.312 1084.98 110.008 1085.16 109.633V107.898H1084.03C1082.26 107.898 1081.38 108.417 1081.38 109.453C1081.38 109.906 1081.53 110.26 1081.83 110.516C1082.13 110.771 1082.52 110.898 1082.99 110.898ZM1096.02 107.867C1096.02 109.154 1095.72 110.19 1095.13 110.977C1094.54 111.763 1093.75 112.156 1092.74 112.156C1091.72 112.156 1090.91 111.831 1090.32 111.18V115.25H1088.88V103.547H1090.2L1090.27 104.484C1090.85 103.755 1091.67 103.391 1092.72 103.391C1093.73 103.391 1094.54 103.773 1095.12 104.539C1095.72 105.305 1096.02 106.37 1096.02 107.734V107.867ZM1094.57 107.703C1094.57 106.75 1094.37 105.997 1093.96 105.445C1093.55 104.893 1093 104.617 1092.29 104.617C1091.41 104.617 1090.76 105.005 1090.32 105.781V109.82C1090.75 110.591 1091.41 110.977 1092.3 110.977C1093 110.977 1093.55 110.703 1093.95 110.156C1094.36 109.604 1094.57 108.786 1094.57 107.703ZM1105 107.867C1105 109.154 1104.71 110.19 1104.12 110.977C1103.53 111.763 1102.73 112.156 1101.73 112.156C1100.7 112.156 1099.89 111.831 1099.3 111.18V115.25H1097.86V103.547H1099.18L1099.25 104.484C1099.84 103.755 1100.66 103.391 1101.7 103.391C1102.72 103.391 1103.52 103.773 1104.11 104.539C1104.7 105.305 1105 106.37 1105 107.734V107.867ZM1103.55 107.703C1103.55 106.75 1103.35 105.997 1102.95 105.445C1102.54 104.893 1101.98 104.617 1101.27 104.617C1100.4 104.617 1099.74 105.005 1099.3 105.781V109.82C1099.74 110.591 1100.4 110.977 1101.29 110.977C1101.98 110.977 1102.53 110.703 1102.94 110.156C1103.35 109.604 1103.55 108.786 1103.55 107.703ZM1108.41 112H1106.97V100H1108.41V112ZM1113.5 109.883L1115.47 103.547H1117.02L1113.62 113.305C1113.09 114.711 1112.26 115.414 1111.11 115.414L1110.84 115.391L1110.3 115.289V114.117L1110.69 114.148C1111.18 114.148 1111.56 114.049 1111.83 113.852C1112.1 113.654 1112.33 113.292 1112.51 112.766L1112.83 111.906L1109.81 103.547H1111.39L1113.5 109.883ZM1124.41 113.18H1117.25V112H1124.41V113.18ZM1132.69 107.867C1132.69 109.159 1132.39 110.198 1131.8 110.984C1131.2 111.766 1130.41 112.156 1129.41 112.156C1128.34 112.156 1127.51 111.779 1126.93 111.023L1126.86 112H1125.53V100H1126.98V104.477C1127.56 103.753 1128.36 103.391 1129.39 103.391C1130.42 103.391 1131.22 103.779 1131.8 104.555C1132.39 105.331 1132.69 106.393 1132.69 107.742V107.867ZM1131.24 107.703C1131.24 106.719 1131.05 105.958 1130.67 105.422C1130.29 104.885 1129.74 104.617 1129.03 104.617C1128.08 104.617 1127.39 105.06 1126.98 105.945V109.602C1127.42 110.487 1128.11 110.93 1129.05 110.93C1129.74 110.93 1130.28 110.661 1130.66 110.125C1131.05 109.589 1131.24 108.781 1131.24 107.703ZM1136.09 112H1134.64V100H1136.09V112ZM1138.02 107.695C1138.02 106.867 1138.18 106.122 1138.51 105.461C1138.84 104.799 1139.29 104.289 1139.87 103.93C1140.45 103.57 1141.11 103.391 1141.86 103.391C1143.01 103.391 1143.94 103.789 1144.65 104.586C1145.36 105.383 1145.72 106.443 1145.72 107.766V107.867C1145.72 108.69 1145.56 109.43 1145.24 110.086C1144.93 110.737 1144.48 111.245 1143.89 111.609C1143.31 111.974 1142.64 112.156 1141.88 112.156C1140.73 112.156 1139.8 111.758 1139.09 110.961C1138.38 110.164 1138.02 109.109 1138.02 107.797V107.695ZM1139.48 107.867C1139.48 108.805 1139.69 109.557 1140.12 110.125C1140.56 110.693 1141.15 110.977 1141.88 110.977C1142.61 110.977 1143.19 110.69 1143.62 110.117C1144.06 109.539 1144.27 108.732 1144.27 107.695C1144.27 106.768 1144.05 106.018 1143.61 105.445C1143.17 104.867 1142.59 104.578 1141.86 104.578C1141.15 104.578 1140.57 104.862 1140.13 105.43C1139.7 105.997 1139.48 106.81 1139.48 107.867ZM1150.92 110.977C1151.44 110.977 1151.89 110.82 1152.27 110.508C1152.66 110.195 1152.87 109.805 1152.91 109.336H1154.28C1154.26 109.82 1154.09 110.281 1153.78 110.719C1153.47 111.156 1153.06 111.505 1152.55 111.766C1152.04 112.026 1151.49 112.156 1150.92 112.156C1149.77 112.156 1148.85 111.773 1148.17 111.008C1147.49 110.237 1147.16 109.185 1147.16 107.852V107.609C1147.16 106.786 1147.31 106.055 1147.61 105.414C1147.91 104.773 1148.34 104.276 1148.91 103.922C1149.47 103.568 1150.14 103.391 1150.91 103.391C1151.86 103.391 1152.65 103.674 1153.27 104.242C1153.9 104.81 1154.24 105.547 1154.28 106.453H1152.91C1152.87 105.906 1152.66 105.458 1152.29 105.109C1151.92 104.755 1151.46 104.578 1150.91 104.578C1150.18 104.578 1149.61 104.844 1149.2 105.375C1148.8 105.901 1148.6 106.664 1148.6 107.664V107.938C1148.6 108.911 1148.8 109.661 1149.2 110.188C1149.6 110.714 1150.18 110.977 1150.92 110.977ZM1158.27 108.086L1157.36 109.031V112H1155.91V100H1157.36V107.258L1158.13 106.328L1160.77 103.547H1162.52L1159.23 107.078L1162.91 112H1161.21L1158.27 108.086Z" fill="#2097F6"/>
<rect x="1051.5" y="75.5" width="139" height="62" rx="7.5" stroke="#2097F6"/>
</g>
<g filter="url(#filter9_d)">
<rect x="1051" y="172" width="140" height="63" rx="8" fill="white"/>
<path d="M1077.64 205.391C1077.5 206.594 1077.05 207.523 1076.3 208.18C1075.56 208.831 1074.57 209.156 1073.33 209.156C1071.98 209.156 1070.91 208.674 1070.09 207.711C1069.29 206.747 1068.88 205.458 1068.88 203.844V202.75C1068.88 201.693 1069.07 200.763 1069.45 199.961C1069.83 199.159 1070.36 198.544 1071.05 198.117C1071.75 197.685 1072.55 197.469 1073.46 197.469C1074.67 197.469 1075.64 197.807 1076.37 198.484C1077.1 199.156 1077.52 200.089 1077.64 201.281H1076.13C1076 200.375 1075.72 199.719 1075.28 199.312C1074.85 198.906 1074.24 198.703 1073.46 198.703C1072.5 198.703 1071.75 199.057 1071.2 199.766C1070.66 200.474 1070.39 201.482 1070.39 202.789V203.891C1070.39 205.125 1070.65 206.107 1071.16 206.836C1071.68 207.565 1072.4 207.93 1073.33 207.93C1074.16 207.93 1074.8 207.742 1075.24 207.367C1075.69 206.987 1075.99 206.328 1076.13 205.391H1077.64ZM1080.91 201.57C1081.55 200.784 1082.39 200.391 1083.41 200.391C1085.2 200.391 1086.1 201.398 1086.12 203.414V209H1084.67V203.406C1084.67 202.797 1084.53 202.346 1084.25 202.055C1083.98 201.763 1083.55 201.617 1082.98 201.617C1082.51 201.617 1082.1 201.742 1081.74 201.992C1081.39 202.242 1081.11 202.57 1080.91 202.977V209H1079.47V197H1080.91V201.57ZM1093.5 209C1093.42 208.833 1093.35 208.536 1093.3 208.109C1092.62 208.807 1091.82 209.156 1090.89 209.156C1090.06 209.156 1089.37 208.922 1088.84 208.453C1088.3 207.979 1088.04 207.38 1088.04 206.656C1088.04 205.776 1088.37 205.094 1089.04 204.609C1089.71 204.12 1090.65 203.875 1091.87 203.875H1093.27V203.211C1093.27 202.706 1093.12 202.305 1092.82 202.008C1092.52 201.706 1092.07 201.555 1091.48 201.555C1090.97 201.555 1090.54 201.685 1090.19 201.945C1089.84 202.206 1089.66 202.521 1089.66 202.891H1088.21C1088.21 202.469 1088.36 202.062 1088.66 201.672C1088.96 201.276 1089.36 200.964 1089.88 200.734C1090.39 200.505 1090.96 200.391 1091.57 200.391C1092.54 200.391 1093.31 200.635 1093.86 201.125C1094.41 201.609 1094.7 202.279 1094.72 203.133V207.023C1094.72 207.799 1094.82 208.417 1095.02 208.875V209H1093.5ZM1091.1 207.898C1091.55 207.898 1091.98 207.781 1092.39 207.547C1092.8 207.312 1093.09 207.008 1093.27 206.633V204.898H1092.14C1090.37 204.898 1089.48 205.417 1089.48 206.453C1089.48 206.906 1089.64 207.26 1089.94 207.516C1090.24 207.771 1090.63 207.898 1091.1 207.898ZM1098.55 209H1097.11V200.547H1098.55V209ZM1096.99 198.305C1096.99 198.07 1097.06 197.872 1097.2 197.711C1097.35 197.549 1097.56 197.469 1097.84 197.469C1098.12 197.469 1098.34 197.549 1098.48 197.711C1098.63 197.872 1098.7 198.07 1098.7 198.305C1098.7 198.539 1098.63 198.734 1098.48 198.891C1098.34 199.047 1098.12 199.125 1097.84 199.125C1097.56 199.125 1097.35 199.047 1097.2 198.891C1097.06 198.734 1096.99 198.539 1096.99 198.305ZM1102.24 200.547L1102.29 201.609C1102.93 200.797 1103.78 200.391 1104.82 200.391C1106.61 200.391 1107.51 201.398 1107.52 203.414V209H1106.08V203.406C1106.07 202.797 1105.93 202.346 1105.66 202.055C1105.39 201.763 1104.96 201.617 1104.38 201.617C1103.91 201.617 1103.5 201.742 1103.15 201.992C1102.79 202.242 1102.52 202.57 1102.32 202.977V209H1100.88V200.547H1102.24ZM1116.46 207.039L1118.55 200.547H1120.03L1117 209H1115.9L1112.84 200.547H1114.31L1116.46 207.039ZM1126.52 209C1126.43 208.833 1126.36 208.536 1126.31 208.109C1125.64 208.807 1124.84 209.156 1123.91 209.156C1123.07 209.156 1122.39 208.922 1121.85 208.453C1121.32 207.979 1121.05 207.38 1121.05 206.656C1121.05 205.776 1121.39 205.094 1122.05 204.609C1122.73 204.12 1123.67 203.875 1124.88 203.875H1126.29V203.211C1126.29 202.706 1126.14 202.305 1125.84 202.008C1125.53 201.706 1125.09 201.555 1124.5 201.555C1123.98 201.555 1123.55 201.685 1123.2 201.945C1122.85 202.206 1122.68 202.521 1122.68 202.891H1121.23C1121.23 202.469 1121.38 202.062 1121.67 201.672C1121.97 201.276 1122.38 200.964 1122.89 200.734C1123.41 200.505 1123.97 200.391 1124.59 200.391C1125.56 200.391 1126.32 200.635 1126.88 201.125C1127.43 201.609 1127.71 202.279 1127.73 203.133V207.023C1127.73 207.799 1127.83 208.417 1128.03 208.875V209H1126.52ZM1124.12 207.898C1124.57 207.898 1125 207.781 1125.41 207.547C1125.81 207.312 1126.11 207.008 1126.29 206.633V204.898H1125.16C1123.39 204.898 1122.5 205.417 1122.5 206.453C1122.5 206.906 1122.65 207.26 1122.95 207.516C1123.26 207.771 1123.64 207.898 1124.12 207.898ZM1131.57 209H1130.12V197H1131.57V209ZM1135.46 209H1134.02V200.547H1135.46V209ZM1133.9 198.305C1133.9 198.07 1133.97 197.872 1134.11 197.711C1134.26 197.549 1134.47 197.469 1134.75 197.469C1135.03 197.469 1135.24 197.549 1135.39 197.711C1135.54 197.872 1135.61 198.07 1135.61 198.305C1135.61 198.539 1135.54 198.734 1135.39 198.891C1135.24 199.047 1135.03 199.125 1134.75 199.125C1134.47 199.125 1134.26 199.047 1134.11 198.891C1133.97 198.734 1133.9 198.539 1133.9 198.305ZM1137.43 204.703C1137.43 203.406 1137.74 202.365 1138.35 201.578C1138.97 200.786 1139.77 200.391 1140.77 200.391C1141.76 200.391 1142.54 200.729 1143.12 201.406V197H1144.56V209H1143.23L1143.16 208.094C1142.59 208.802 1141.78 209.156 1140.75 209.156C1139.77 209.156 1138.97 208.755 1138.35 207.953C1137.74 207.151 1137.43 206.104 1137.43 204.812V204.703ZM1138.88 204.867C1138.88 205.826 1139.07 206.576 1139.47 207.117C1139.86 207.659 1140.41 207.93 1141.11 207.93C1142.03 207.93 1142.7 207.518 1143.12 206.695V202.812C1142.68 202.016 1142.02 201.617 1141.12 201.617C1140.42 201.617 1139.86 201.891 1139.47 202.438C1139.07 202.984 1138.88 203.794 1138.88 204.867ZM1152.03 209C1151.95 208.833 1151.88 208.536 1151.83 208.109C1151.16 208.807 1150.35 209.156 1149.42 209.156C1148.59 209.156 1147.9 208.922 1147.37 208.453C1146.84 207.979 1146.57 207.38 1146.57 206.656C1146.57 205.776 1146.9 205.094 1147.57 204.609C1148.24 204.12 1149.18 203.875 1150.4 203.875H1151.8V203.211C1151.8 202.706 1151.65 202.305 1151.35 202.008C1151.05 201.706 1150.6 201.555 1150.02 201.555C1149.5 201.555 1149.07 201.685 1148.72 201.945C1148.37 202.206 1148.2 202.521 1148.2 202.891H1146.74C1146.74 202.469 1146.89 202.062 1147.19 201.672C1147.49 201.276 1147.9 200.964 1148.41 200.734C1148.92 200.505 1149.49 200.391 1150.1 200.391C1151.08 200.391 1151.84 200.635 1152.39 201.125C1152.94 201.609 1153.23 202.279 1153.25 203.133V207.023C1153.25 207.799 1153.35 208.417 1153.55 208.875V209H1152.03ZM1149.63 207.898C1150.09 207.898 1150.52 207.781 1150.92 207.547C1151.33 207.312 1151.62 207.008 1151.8 206.633V204.898H1150.67C1148.9 204.898 1148.02 205.417 1148.02 206.453C1148.02 206.906 1148.17 207.26 1148.47 207.516C1148.77 207.771 1149.16 207.898 1149.63 207.898ZM1157.48 198.5V200.547H1159.05V201.664H1157.48V206.906C1157.48 207.245 1157.55 207.5 1157.69 207.672C1157.83 207.839 1158.07 207.922 1158.41 207.922C1158.57 207.922 1158.8 207.891 1159.09 207.828V209C1158.71 209.104 1158.34 209.156 1157.98 209.156C1157.34 209.156 1156.85 208.961 1156.52 208.57C1156.2 208.18 1156.03 207.625 1156.03 206.906V201.664H1154.49V200.547H1156.03V198.5H1157.48ZM1160.21 204.695C1160.21 203.867 1160.37 203.122 1160.7 202.461C1161.02 201.799 1161.48 201.289 1162.05 200.93C1162.64 200.57 1163.3 200.391 1164.05 200.391C1165.2 200.391 1166.13 200.789 1166.84 201.586C1167.55 202.383 1167.91 203.443 1167.91 204.766V204.867C1167.91 205.69 1167.75 206.43 1167.43 207.086C1167.12 207.737 1166.67 208.245 1166.08 208.609C1165.49 208.974 1164.82 209.156 1164.06 209.156C1162.92 209.156 1161.99 208.758 1161.27 207.961C1160.57 207.164 1160.21 206.109 1160.21 204.797V204.695ZM1161.66 204.867C1161.66 205.805 1161.88 206.557 1162.31 207.125C1162.75 207.693 1163.33 207.977 1164.06 207.977C1164.8 207.977 1165.38 207.69 1165.81 207.117C1166.24 206.539 1166.46 205.732 1166.46 204.695C1166.46 203.768 1166.24 203.018 1165.8 202.445C1165.36 201.867 1164.78 201.578 1164.05 201.578C1163.33 201.578 1162.76 201.862 1162.32 202.43C1161.88 202.997 1161.66 203.81 1161.66 204.867ZM1173.8 201.844C1173.59 201.807 1173.35 201.789 1173.09 201.789C1172.15 201.789 1171.5 202.193 1171.16 203V209H1169.72V200.547H1171.12L1171.15 201.523C1171.62 200.768 1172.29 200.391 1173.16 200.391C1173.45 200.391 1173.66 200.427 1173.8 200.5V201.844Z" fill="#2097F6"/>
<rect x="1051.5" y="172.5" width="139" height="62" rx="7.5" stroke="#2097F6"/>
</g>
<path fill-rule="evenodd" clip-rule="evenodd" d="M1120 169.198L1127.29 161.321C1127.67 160.915 1128.3 160.891 1128.7 161.266C1129.11 161.641 1129.13 162.274 1128.76 162.679L1119.5 172.679C1119.31 172.887 1119.04 173.004 1118.76 173C1118.47 172.996 1118.2 172.872 1118.02 172.659L1109.25 162.659C1108.88 162.244 1108.93 161.612 1109.34 161.248C1109.76 160.884 1110.39 160.925 1110.75 161.341L1118 169.606V138H1120V169.198Z" fill="#2097F6"/>
<path fill-rule="evenodd" clip-rule="evenodd" d="M1030.5 151.357L1030.68 151.523C1030.89 151.715 1031 151.987 1031 152.27C1031 152.553 1030.87 152.821 1030.66 153.008L1020.66 161.778C1020.24 162.142 1019.61 162.1 1019.25 161.685C1018.88 161.27 1018.93 160.638 1019.34 160.274L1027.61 153.026H990V151.026H1027.2L1019.32 143.734C1018.92 143.359 1018.89 142.726 1019.27 142.321C1019.64 141.915 1020.27 141.891 1020.68 142.266L1030.14 151.026H1030.5V151.357Z" fill="#2097F6"/>
<path fill-rule="evenodd" clip-rule="evenodd" d="M849.5 151.357L849.679 151.523C849.887 151.715 850.004 151.987 850 152.27C849.996 152.553 849.872 152.821 849.659 153.008L839.659 161.778C839.244 162.142 838.612 162.1 838.248 161.685C837.884 161.27 837.925 160.638 838.341 160.274L846.606 153.026H809V151.026H846.198L838.321 143.734C837.915 143.359 837.891 142.726 838.266 142.321C838.641 141.915 839.274 141.891 839.679 142.266L849.142 151.026H849.5V151.357Z" fill="#2097F6"/>
<g filter="url(#filter10_d)">
<path d="M1294 168C1294 163.582 1297.58 160 1302 160H1602C1606.42 160 1610 163.582 1610 168V278C1610 282.418 1606.42 286 1602 286H1302C1297.58 286 1294 282.418 1294 278V168Z" fill="#E7F4FF"/>
<rect x="1317" y="187" width="56" height="51" fill="#C4C4C4"/>
<rect x="1388" y="187" width="56" height="51" fill="#C4C4C4"/>
<rect x="1459" y="187" width="56" height="51" fill="#C4C4C4"/>
<rect x="1530.5" y="187.5" width="55" height="50" fill="white" stroke="black"/>
<path d="M1388.35 212.354C1388.55 212.158 1388.55 211.842 1388.35 211.646L1385.17 208.464C1384.98 208.269 1384.66 208.269 1384.46 208.464C1384.27 208.66 1384.27 208.976 1384.46 209.172L1387.29 212L1384.46 214.828C1384.27 215.024 1384.27 215.34 1384.46 215.536C1384.66 215.731 1384.98 215.731 1385.17 215.536L1388.35 212.354ZM1373 212.5L1388 212.5L1388 211.5L1373 211.5L1373 212.5Z" fill="black"/>
<path d="M1459.35 212.354C1459.55 212.158 1459.55 211.842 1459.35 211.646L1456.17 208.464C1455.98 208.269 1455.66 208.269 1455.46 208.464C1455.27 208.66 1455.27 208.976 1455.46 209.172L1458.29 212L1455.46 214.828C1455.27 215.024 1455.27 215.34 1455.46 215.536C1455.66 215.731 1455.98 215.731 1456.17 215.536L1459.35 212.354ZM1444 212.5L1459 212.5L1459 211.5L1444 211.5L1444 212.5Z" fill="black"/>
<path d="M1530.35 212.354C1530.55 212.158 1530.55 211.842 1530.35 211.646L1527.17 208.464C1526.98 208.269 1526.66 208.269 1526.46 208.464C1526.27 208.66 1526.27 208.976 1526.46 209.172L1529.29 212L1526.46 214.828C1526.27 215.024 1526.27 215.34 1526.46 215.536C1526.66 215.731 1526.98 215.731 1527.17 215.536L1530.35 212.354ZM1515 212.5L1530 212.5L1530 211.5L1515 211.5L1515 212.5Z" fill="black"/>
<path d="M1407.05 273C1406.96 272.833 1406.9 272.536 1406.84 272.109C1406.17 272.807 1405.37 273.156 1404.44 273.156C1403.6 273.156 1402.92 272.922 1402.38 272.453C1401.85 271.979 1401.59 271.38 1401.59 270.656C1401.59 269.776 1401.92 269.094 1402.59 268.609C1403.26 268.12 1404.2 267.875 1405.41 267.875H1406.82V267.211C1406.82 266.706 1406.67 266.305 1406.37 266.008C1406.07 265.706 1405.62 265.555 1405.03 265.555C1404.52 265.555 1404.08 265.685 1403.73 265.945C1403.39 266.206 1403.21 266.521 1403.21 266.891H1401.76C1401.76 266.469 1401.91 266.062 1402.2 265.672C1402.51 265.276 1402.91 264.964 1403.42 264.734C1403.94 264.505 1404.5 264.391 1405.12 264.391C1406.09 264.391 1406.85 264.635 1407.41 265.125C1407.96 265.609 1408.24 266.279 1408.27 267.133V271.023C1408.27 271.799 1408.36 272.417 1408.56 272.875V273H1407.05ZM1404.65 271.898C1405.1 271.898 1405.53 271.781 1405.94 271.547C1406.34 271.312 1406.64 271.008 1406.82 270.633V268.898H1405.69C1403.92 268.898 1403.03 269.417 1403.03 270.453C1403.03 270.906 1403.18 271.26 1403.48 271.516C1403.79 271.771 1404.17 271.898 1404.65 271.898ZM1410.18 268.703C1410.18 267.406 1410.49 266.365 1411.1 265.578C1411.72 264.786 1412.52 264.391 1413.52 264.391C1414.51 264.391 1415.29 264.729 1415.87 265.406V261H1417.31V273H1415.98L1415.91 272.094C1415.34 272.802 1414.53 273.156 1413.5 273.156C1412.52 273.156 1411.72 272.755 1411.1 271.953C1410.49 271.151 1410.18 270.104 1410.18 268.812V268.703ZM1411.62 268.867C1411.62 269.826 1411.82 270.576 1412.22 271.117C1412.61 271.659 1413.16 271.93 1413.86 271.93C1414.78 271.93 1415.45 271.518 1415.87 270.695V266.812C1415.43 266.016 1414.77 265.617 1413.88 265.617C1413.17 265.617 1412.61 265.891 1412.22 266.438C1411.82 266.984 1411.62 267.794 1411.62 268.867ZM1419.21 268.703C1419.21 267.406 1419.52 266.365 1420.13 265.578C1420.75 264.786 1421.55 264.391 1422.55 264.391C1423.54 264.391 1424.32 264.729 1424.9 265.406V261H1426.34V273H1425.02L1424.95 272.094C1424.37 272.802 1423.56 273.156 1422.53 273.156C1421.55 273.156 1420.75 272.755 1420.13 271.953C1419.52 271.151 1419.21 270.104 1419.21 268.812V268.703ZM1420.66 268.867C1420.66 269.826 1420.85 270.576 1421.25 271.117C1421.65 271.659 1422.19 271.93 1422.89 271.93C1423.81 271.93 1424.48 271.518 1424.9 270.695V266.812C1424.47 266.016 1423.8 265.617 1422.91 265.617C1422.2 265.617 1421.65 265.891 1421.25 266.438C1420.85 266.984 1420.66 267.794 1420.66 268.867ZM1433.93 264.547L1433.98 265.609C1434.62 264.797 1435.47 264.391 1436.51 264.391C1438.29 264.391 1439.2 265.398 1439.21 267.414V273H1437.77V267.406C1437.76 266.797 1437.62 266.346 1437.34 266.055C1437.07 265.763 1436.65 265.617 1436.07 265.617C1435.6 265.617 1435.19 265.742 1434.84 265.992C1434.48 266.242 1434.21 266.57 1434.01 266.977V273H1432.56V264.547H1433.93ZM1444.9 273.156C1443.75 273.156 1442.82 272.781 1442.1 272.031C1441.38 271.276 1441.02 270.268 1441.02 269.008V268.742C1441.02 267.904 1441.18 267.156 1441.5 266.5C1441.82 265.839 1442.27 265.323 1442.84 264.953C1443.42 264.578 1444.05 264.391 1444.72 264.391C1445.82 264.391 1446.67 264.753 1447.28 265.477C1447.89 266.201 1448.2 267.237 1448.2 268.586V269.188H1442.47C1442.49 270.021 1442.73 270.695 1443.2 271.211C1443.66 271.721 1444.26 271.977 1444.98 271.977C1445.49 271.977 1445.92 271.872 1446.27 271.664C1446.63 271.456 1446.94 271.18 1447.2 270.836L1448.09 271.523C1447.38 272.612 1446.32 273.156 1444.9 273.156ZM1444.72 265.578C1444.14 265.578 1443.65 265.792 1443.25 266.219C1442.85 266.641 1442.61 267.234 1442.52 268H1446.75V267.891C1446.71 267.156 1446.51 266.589 1446.16 266.188C1445.8 265.781 1445.32 265.578 1444.72 265.578ZM1457.36 271.008L1458.98 264.547H1460.43L1457.97 273H1456.8L1454.74 266.594L1452.74 273H1451.57L1449.12 264.547H1450.55L1452.22 270.875L1454.19 264.547H1455.35L1457.36 271.008ZM1473.03 268.867C1473.03 270.159 1472.73 271.198 1472.14 271.984C1471.55 272.766 1470.75 273.156 1469.75 273.156C1468.68 273.156 1467.86 272.779 1467.27 272.023L1467.2 273H1465.88V261H1467.32V265.477C1467.9 264.753 1468.71 264.391 1469.73 264.391C1470.76 264.391 1471.57 264.779 1472.15 265.555C1472.74 266.331 1473.03 267.393 1473.03 268.742V268.867ZM1471.59 268.703C1471.59 267.719 1471.4 266.958 1471.02 266.422C1470.64 265.885 1470.09 265.617 1469.38 265.617C1468.42 265.617 1467.74 266.06 1467.32 266.945V270.602C1467.76 271.487 1468.45 271.93 1469.39 271.93C1470.08 271.93 1470.62 271.661 1471.01 271.125C1471.39 270.589 1471.59 269.781 1471.59 268.703ZM1476.43 273H1474.98V261H1476.43V273ZM1478.37 268.695C1478.37 267.867 1478.53 267.122 1478.85 266.461C1479.18 265.799 1479.63 265.289 1480.21 264.93C1480.79 264.57 1481.46 264.391 1482.2 264.391C1483.35 264.391 1484.28 264.789 1484.99 265.586C1485.71 266.383 1486.06 267.443 1486.06 268.766V268.867C1486.06 269.69 1485.9 270.43 1485.59 271.086C1485.27 271.737 1484.82 272.245 1484.23 272.609C1483.65 272.974 1482.98 273.156 1482.22 273.156C1481.07 273.156 1480.14 272.758 1479.43 271.961C1478.72 271.164 1478.37 270.109 1478.37 268.797V268.695ZM1479.82 268.867C1479.82 269.805 1480.04 270.557 1480.47 271.125C1480.91 271.693 1481.49 271.977 1482.22 271.977C1482.95 271.977 1483.54 271.69 1483.97 271.117C1484.4 270.539 1484.62 269.732 1484.62 268.695C1484.62 267.768 1484.4 267.018 1483.95 266.445C1483.52 265.867 1482.93 265.578 1482.2 265.578C1481.49 265.578 1480.91 265.862 1480.48 266.43C1480.04 266.997 1479.82 267.81 1479.82 268.867ZM1491.27 271.977C1491.78 271.977 1492.23 271.82 1492.62 271.508C1493 271.195 1493.22 270.805 1493.26 270.336H1494.62C1494.6 270.82 1494.43 271.281 1494.12 271.719C1493.82 272.156 1493.41 272.505 1492.89 272.766C1492.38 273.026 1491.84 273.156 1491.27 273.156C1490.11 273.156 1489.2 272.773 1488.52 272.008C1487.84 271.237 1487.5 270.185 1487.5 268.852V268.609C1487.5 267.786 1487.65 267.055 1487.95 266.414C1488.26 265.773 1488.69 265.276 1489.25 264.922C1489.82 264.568 1490.49 264.391 1491.26 264.391C1492.21 264.391 1492.99 264.674 1493.62 265.242C1494.25 265.81 1494.58 266.547 1494.62 267.453H1493.26C1493.22 266.906 1493.01 266.458 1492.63 266.109C1492.26 265.755 1491.8 265.578 1491.26 265.578C1490.52 265.578 1489.95 265.844 1489.55 266.375C1489.15 266.901 1488.95 267.664 1488.95 268.664V268.938C1488.95 269.911 1489.15 270.661 1489.55 271.188C1489.95 271.714 1490.52 271.977 1491.27 271.977ZM1498.61 269.086L1497.7 270.031V273H1496.26V261H1497.7V268.258L1498.48 267.328L1501.11 264.547H1502.87L1499.58 268.078L1503.25 273H1501.55L1498.61 269.086Z" fill="black"/>
<path d="M1302 161H1602V159H1302V161ZM1609 168V278H1611V168H1609ZM1602 285H1302V287H1602V285ZM1295 278V168H1293V278H1295ZM1302 285C1298.13 285 1295 281.866 1295 278H1293C1293 282.971 1297.03 287 1302 287V285ZM1609 278C1609 281.866 1605.87 285 1602 285V287C1606.97 287 1611 282.971 1611 278H1609ZM1602 161C1605.87 161 1609 164.134 1609 168H1611C1611 163.029 1606.97 159 1602 159V161ZM1302 159C1297.03 159 1293 163.029 1293 168H1295C1295 164.134 1298.13 161 1302 161V159Z" fill="#2097F6"/>
</g>
<path fill-rule="evenodd" clip-rule="evenodd" d="M213.5 152.357L213.679 152.523C213.887 152.715 214.004 152.987 214 153.27C213.996 153.553 213.872 153.821 213.659 154.008L203.659 162.778C203.244 163.142 202.612 163.1 202.248 162.685C201.884 162.27 201.925 161.638 202.341 161.274L210.606 154.026H173V152.026H210.198L202.321 144.734C201.915 144.359 201.891 143.726 202.266 143.321C202.641 142.915 203.274 142.891 203.679 143.266L213.142 152.026H213.5V152.357Z" fill="#2097F6"/>
<path d="M1211 151L1523.5 151C1542 151 1557 165.998 1557 184.5V184.5" stroke="#2097F7" stroke-width="2" stroke-linecap="round" stroke-linejoin="round"/>
<path d="M1556.24 185.66L1548.99 177.672C1548.41 177.029 1548.86 176 1549.73 176H1563.83C1564.68 176 1565.14 177.002 1564.59 177.651L1557.74 185.639C1557.35 186.096 1556.64 186.106 1556.24 185.66Z" fill="#2097F6"/>
<defs>
<filter id="filter0_d" x="0" y="120" width="177" height="67" filterUnits="userSpaceOnUse" color-interpolation-filters="sRGB">
<feFlood flood-opacity="0" result="BackgroundImageFix"/>
<feColorMatrix in="SourceAlpha" type="matrix" values="0 0 0 0 0 0 0 0 0 0 0 0 0 0 0 0 0 0 127 0"/>
<feOffset dx="4" dy="4"/>
<feColorMatrix type="matrix" values="0 0 0 0 0.513733 0 0 0 0 0.767915 0 0 0 0 0.970833 0 0 0 1 0"/>
<feBlend mode="normal" in2="BackgroundImageFix" result="effect1_dropShadow"/>
<feBlend mode="normal" in="SourceGraphic" in2="effect1_dropShadow" result="shape"/>
</filter>
<filter id="filter1_d" x="241" y="33" width="144" height="67" filterUnits="userSpaceOnUse" color-interpolation-filters="sRGB">
<feFlood flood-opacity="0" result="BackgroundImageFix"/>
<feColorMatrix in="SourceAlpha" type="matrix" values="0 0 0 0 0 0 0 0 0 0 0 0 0 0 0 0 0 0 127 0"/>
<feOffset dx="4" dy="4"/>
<feColorMatrix type="matrix" values="0 0 0 0 0.513733 0 0 0 0 0.767915 0 0 0 0 0.970833 0 0 0 1 0"/>
<feBlend mode="normal" in2="BackgroundImageFix" result="effect1_dropShadow"/>
<feBlend mode="normal" in="SourceGraphic" in2="effect1_dropShadow" result="shape"/>
</filter>
<filter id="filter2_d" x="241" y="120" width="144" height="67" filterUnits="userSpaceOnUse" color-interpolation-filters="sRGB">
<feFlood flood-opacity="0" result="BackgroundImageFix"/>
<feColorMatrix in="SourceAlpha" type="matrix" values="0 0 0 0 0 0 0 0 0 0 0 0 0 0 0 0 0 0 127 0"/>
<feOffset dx="4" dy="4"/>
<feColorMatrix type="matrix" values="0 0 0 0 0.513733 0 0 0 0 0.767915 0 0 0 0 0.970833 0 0 0 1 0"/>
<feBlend mode="normal" in2="BackgroundImageFix" result="effect1_dropShadow"/>
<feBlend mode="normal" in="SourceGraphic" in2="effect1_dropShadow" result="shape"/>
</filter>
<filter id="filter3_d" x="241" y="207" width="144" height="67" filterUnits="userSpaceOnUse" color-interpolation-filters="sRGB">
<feFlood flood-opacity="0" result="BackgroundImageFix"/>
<feColorMatrix in="SourceAlpha" type="matrix" values="0 0 0 0 0 0 0 0 0 0 0 0 0 0 0 0 0 0 127 0"/>
<feOffset dx="4" dy="4"/>
<feColorMatrix type="matrix" values="0 0 0 0 0.513733 0 0 0 0 0.767915 0 0 0 0 0.970833 0 0 0 1 0"/>
<feBlend mode="normal" in2="BackgroundImageFix" result="effect1_dropShadow"/>
<feBlend mode="normal" in="SourceGraphic" in2="effect1_dropShadow" result="shape"/>
</filter>
<filter id="filter4_d" x="669" y="121" width="144" height="67" filterUnits="userSpaceOnUse" color-interpolation-filters="sRGB">
<feFlood flood-opacity="0" result="BackgroundImageFix"/>
<feColorMatrix in="SourceAlpha" type="matrix" values="0 0 0 0 0 0 0 0 0 0 0 0 0 0 0 0 0 0 127 0"/>
<feOffset dx="4" dy="4"/>
<feColorMatrix type="matrix" values="0 0 0 0 0.513733 0 0 0 0 0.767915 0 0 0 0 0.970833 0 0 0 1 0"/>
<feBlend mode="normal" in2="BackgroundImageFix" result="effect1_dropShadow"/>
<feBlend mode="normal" in="SourceGraphic" in2="effect1_dropShadow" result="shape"/>
</filter>
<filter id="filter5_d" x="850" y="121" width="144" height="67" filterUnits="userSpaceOnUse" color-interpolation-filters="sRGB">
<feFlood flood-opacity="0" result="BackgroundImageFix"/>
<feColorMatrix in="SourceAlpha" type="matrix" values="0 0 0 0 0 0 0 0 0 0 0 0 0 0 0 0 0 0 127 0"/>
<feOffset dx="4" dy="4"/>
<feColorMatrix type="matrix" values="0 0 0 0 0.513733 0 0 0 0 0.767915 0 0 0 0 0.970833 0 0 0 1 0"/>
<feBlend mode="normal" in2="BackgroundImageFix" result="effect1_dropShadow"/>
<feBlend mode="normal" in="SourceGraphic" in2="effect1_dropShadow" result="shape"/>
</filter>
<filter id="filter6_d" x="471" y="177" width="144" height="67" filterUnits="userSpaceOnUse" color-interpolation-filters="sRGB">
<feFlood flood-opacity="0" result="BackgroundImageFix"/>
<feColorMatrix in="SourceAlpha" type="matrix" values="0 0 0 0 0 0 0 0 0 0 0 0 0 0 0 0 0 0 127 0"/>
<feOffset dx="4" dy="4"/>
<feColorMatrix type="matrix" values="0 0 0 0 0.513733 0 0 0 0 0.767915 0 0 0 0 0.970833 0 0 0 1 0"/>
<feBlend mode="normal" in2="BackgroundImageFix" result="effect1_dropShadow"/>
<feBlend mode="normal" in="SourceGraphic" in2="effect1_dropShadow" result="shape"/>
</filter>
<filter id="filter7_d" x="471" y="78" width="144" height="67" filterUnits="userSpaceOnUse" color-interpolation-filters="sRGB">
<feFlood flood-opacity="0" result="BackgroundImageFix"/>
<feColorMatrix in="SourceAlpha" type="matrix" values="0 0 0 0 0 0 0 0 0 0 0 0 0 0 0 0 0 0 127 0"/>
<feOffset dx="4" dy="4"/>
<feColorMatrix type="matrix" values="0 0 0 0 0.513733 0 0 0 0 0.767915 0 0 0 0 0.970833 0 0 0 1 0"/>
<feBlend mode="normal" in2="BackgroundImageFix" result="effect1_dropShadow"/>
<feBlend mode="normal" in="SourceGraphic" in2="effect1_dropShadow" result="shape"/>
</filter>
<filter id="filter8_d" x="1051" y="75" width="144" height="67" filterUnits="userSpaceOnUse" color-interpolation-filters="sRGB">
<feFlood flood-opacity="0" result="BackgroundImageFix"/>
<feColorMatrix in="SourceAlpha" type="matrix" values="0 0 0 0 0 0 0 0 0 0 0 0 0 0 0 0 0 0 127 0"/>
<feOffset dx="4" dy="4"/>
<feColorMatrix type="matrix" values="0 0 0 0 0.513733 0 0 0 0 0.767915 0 0 0 0 0.970833 0 0 0 1 0"/>
<feBlend mode="normal" in2="BackgroundImageFix" result="effect1_dropShadow"/>
<feBlend mode="normal" in="SourceGraphic" in2="effect1_dropShadow" result="shape"/>
</filter>
<filter id="filter9_d" x="1051" y="172" width="144" height="67" filterUnits="userSpaceOnUse" color-interpolation-filters="sRGB">
<feFlood flood-opacity="0" result="BackgroundImageFix"/>
<feColorMatrix in="SourceAlpha" type="matrix" values="0 0 0 0 0 0 0 0 0 0 0 0 0 0 0 0 0 0 127 0"/>
<feOffset dx="4" dy="4"/>
<feColorMatrix type="matrix" values="0 0 0 0 0.513733 0 0 0 0 0.767915 0 0 0 0 0.970833 0 0 0 1 0"/>
<feBlend mode="normal" in2="BackgroundImageFix" result="effect1_dropShadow"/>
<feBlend mode="normal" in="SourceGraphic" in2="effect1_dropShadow" result="shape"/>
</filter>
<filter id="filter10_d" x="1294" y="160" width="320" height="130" filterUnits="userSpaceOnUse" color-interpolation-filters="sRGB">
<feFlood flood-opacity="0" result="BackgroundImageFix"/>
<feColorMatrix in="SourceAlpha" type="matrix" values="0 0 0 0 0 0 0 0 0 0 0 0 0 0 0 0 0 0 127 0"/>
<feOffset dx="4" dy="4"/>
<feColorMatrix type="matrix" values="0 0 0 0 0.513733 0 0 0 0 0.767915 0 0 0 0 0.970833 0 0 0 1 0"/>
<feBlend mode="normal" in2="BackgroundImageFix" result="effect1_dropShadow"/>
<feBlend mode="normal" in="SourceGraphic" in2="effect1_dropShadow" result="shape"/>
</filter>
</defs>
</svg>
