<svg width="1614" height="326" viewBox="0 0 1614 326" fill="none" xmlns="http://www.w3.org/2000/svg">
<rect x="214" width="194" height="287" rx="10" fill="#E7F4FF"/>
<path d="M225.453 15.5469V20H223.953V8.625H228.148C229.393 8.625 230.367 8.94271 231.07 9.57812C231.779 10.2135 232.133 11.0547 232.133 12.1016C232.133 13.2057 231.786 14.0573 231.094 14.6562C230.406 15.25 229.419 15.5469 228.133 15.5469H225.453ZM225.453 14.3203H228.148C228.951 14.3203 229.565 14.1328 229.992 13.7578C230.419 13.3776 230.633 12.8307 230.633 12.1172C230.633 11.4401 230.419 10.8984 229.992 10.4922C229.565 10.0859 228.979 9.875 228.234 9.85938H225.453V14.3203ZM237.906 12.8438C237.688 12.8073 237.451 12.7891 237.195 12.7891C236.247 12.7891 235.604 13.1927 235.266 14V20H233.82V11.5469H235.227L235.25 12.5234C235.724 11.7682 236.396 11.3906 237.266 11.3906C237.547 11.3906 237.76 11.4271 237.906 11.5V12.8438ZM242.594 20.1562C241.448 20.1562 240.516 19.7812 239.797 19.0312C239.078 18.276 238.719 17.2682 238.719 16.0078V15.7422C238.719 14.9036 238.878 14.1562 239.195 13.5C239.518 12.8385 239.966 12.3229 240.539 11.9531C241.117 11.5781 241.742 11.3906 242.414 11.3906C243.513 11.3906 244.367 11.7526 244.977 12.4766C245.586 13.2005 245.891 14.237 245.891 15.5859V16.1875H240.164C240.185 17.0208 240.427 17.6953 240.891 18.2109C241.359 18.7214 241.953 18.9766 242.672 18.9766C243.182 18.9766 243.615 18.8724 243.969 18.6641C244.323 18.4557 244.633 18.1797 244.898 17.8359L245.781 18.5234C245.073 19.612 244.01 20.1562 242.594 20.1562ZM242.414 12.5781C241.831 12.5781 241.341 12.7917 240.945 13.2188C240.549 13.6406 240.305 14.2344 240.211 15H244.445V14.8906C244.404 14.1562 244.206 13.5885 243.852 13.1875C243.497 12.7812 243.018 12.5781 242.414 12.5781ZM250.578 15.7578H246.766V14.5781H250.578V15.7578ZM254.781 18.0391L256.875 11.5469H258.352L255.32 20H254.219L251.156 11.5469H252.633L254.781 18.0391ZM264.836 20C264.753 19.8333 264.685 19.5365 264.633 19.1094C263.961 19.8073 263.159 20.1562 262.227 20.1562C261.393 20.1562 260.708 19.9219 260.172 19.4531C259.641 18.9792 259.375 18.3802 259.375 17.6562C259.375 16.776 259.708 16.0938 260.375 15.6094C261.047 15.1198 261.99 14.875 263.203 14.875H264.609V14.2109C264.609 13.7057 264.458 13.3047 264.156 13.0078C263.854 12.7057 263.409 12.5547 262.82 12.5547C262.305 12.5547 261.872 12.6849 261.523 12.9453C261.174 13.2057 261 13.5208 261 13.8906H259.547C259.547 13.4688 259.695 13.0625 259.992 12.6719C260.294 12.276 260.701 11.9635 261.211 11.7344C261.727 11.5052 262.292 11.3906 262.906 11.3906C263.88 11.3906 264.643 11.6354 265.195 12.125C265.747 12.6094 266.034 13.2786 266.055 14.1328V18.0234C266.055 18.7995 266.154 19.4167 266.352 19.875V20H264.836ZM262.438 18.8984C262.891 18.8984 263.32 18.7812 263.727 18.5469C264.133 18.3125 264.427 18.0078 264.609 17.6328V15.8984H263.477C261.706 15.8984 260.82 16.4167 260.82 17.4531C260.82 17.9062 260.971 18.2604 261.273 18.5156C261.576 18.7708 261.964 18.8984 262.438 18.8984ZM269.891 20H268.445V8H269.891V20ZM273.781 20H272.336V11.5469H273.781V20ZM272.219 9.30469C272.219 9.07031 272.289 8.8724 272.43 8.71094C272.576 8.54948 272.789 8.46875 273.07 8.46875C273.352 8.46875 273.565 8.54948 273.711 8.71094C273.857 8.8724 273.93 9.07031 273.93 9.30469C273.93 9.53906 273.857 9.73438 273.711 9.89062C273.565 10.0469 273.352 10.125 273.07 10.125C272.789 10.125 272.576 10.0469 272.43 9.89062C272.289 9.73438 272.219 9.53906 272.219 9.30469ZM275.75 15.7031C275.75 14.4062 276.057 13.3646 276.672 12.5781C277.286 11.7865 278.091 11.3906 279.086 11.3906C280.076 11.3906 280.859 11.7292 281.438 12.4062V8H282.883V20H281.555L281.484 19.0938C280.906 19.8021 280.102 20.1562 279.07 20.1562C278.091 20.1562 277.292 19.7552 276.672 18.9531C276.057 18.151 275.75 17.1042 275.75 15.8125V15.7031ZM277.195 15.8672C277.195 16.8255 277.393 17.5755 277.789 18.1172C278.185 18.6589 278.732 18.9297 279.43 18.9297C280.346 18.9297 281.016 18.5182 281.438 17.6953V13.8125C281.005 13.0156 280.341 12.6172 279.445 12.6172C278.737 12.6172 278.185 12.8906 277.789 13.4375C277.393 13.9844 277.195 14.7943 277.195 15.8672ZM290.352 20C290.268 19.8333 290.201 19.5365 290.148 19.1094C289.477 19.8073 288.674 20.1562 287.742 20.1562C286.909 20.1562 286.224 19.9219 285.688 19.4531C285.156 18.9792 284.891 18.3802 284.891 17.6562C284.891 16.776 285.224 16.0938 285.891 15.6094C286.562 15.1198 287.505 14.875 288.719 14.875H290.125V14.2109C290.125 13.7057 289.974 13.3047 289.672 13.0078C289.37 12.7057 288.924 12.5547 288.336 12.5547C287.82 12.5547 287.388 12.6849 287.039 12.9453C286.69 13.2057 286.516 13.5208 286.516 13.8906H285.062C285.062 13.4688 285.211 13.0625 285.508 12.6719C285.81 12.276 286.216 11.9635 286.727 11.7344C287.242 11.5052 287.807 11.3906 288.422 11.3906C289.396 11.3906 290.159 11.6354 290.711 12.125C291.263 12.6094 291.549 13.2786 291.57 14.1328V18.0234C291.57 18.7995 291.669 19.4167 291.867 19.875V20H290.352ZM287.953 18.8984C288.406 18.8984 288.836 18.7812 289.242 18.5469C289.648 18.3125 289.943 18.0078 290.125 17.6328V15.8984H288.992C287.221 15.8984 286.336 16.4167 286.336 17.4531C286.336 17.9062 286.487 18.2604 286.789 18.5156C287.091 18.7708 287.479 18.8984 287.953 18.8984ZM295.797 9.5V11.5469H297.375V12.6641H295.797V17.9062C295.797 18.2448 295.867 18.5 296.008 18.6719C296.148 18.8385 296.388 18.9219 296.727 18.9219C296.893 18.9219 297.122 18.8906 297.414 18.8281V20C297.034 20.1042 296.664 20.1562 296.305 20.1562C295.659 20.1562 295.172 19.9609 294.844 19.5703C294.516 19.1797 294.352 18.625 294.352 17.9062V12.6641H292.812V11.5469H294.352V9.5H295.797ZM298.531 15.6953C298.531 14.8672 298.693 14.1224 299.016 13.4609C299.344 12.7995 299.797 12.2891 300.375 11.9297C300.958 11.5703 301.622 11.3906 302.367 11.3906C303.518 11.3906 304.448 11.7891 305.156 12.5859C305.87 13.3828 306.227 14.4427 306.227 15.7656V15.8672C306.227 16.6901 306.068 17.4297 305.75 18.0859C305.438 18.737 304.987 19.2448 304.398 19.6094C303.815 19.974 303.143 20.1562 302.383 20.1562C301.237 20.1562 300.307 19.7578 299.594 18.9609C298.885 18.1641 298.531 17.1094 298.531 15.7969V15.6953ZM299.984 15.8672C299.984 16.8047 300.201 17.5573 300.633 18.125C301.07 18.6927 301.654 18.9766 302.383 18.9766C303.117 18.9766 303.701 18.6901 304.133 18.1172C304.565 17.5391 304.781 16.7318 304.781 15.6953C304.781 14.7682 304.56 14.0182 304.117 13.4453C303.68 12.8672 303.096 12.5781 302.367 12.5781C301.654 12.5781 301.078 12.862 300.641 13.4297C300.203 13.9974 299.984 14.8099 299.984 15.8672ZM312.125 12.8438C311.906 12.8073 311.669 12.7891 311.414 12.7891C310.466 12.7891 309.823 13.1927 309.484 14V20H308.039V11.5469H309.445L309.469 12.5234C309.943 11.7682 310.615 11.3906 311.484 11.3906C311.766 11.3906 311.979 11.4271 312.125 11.5V12.8438Z" fill="#2097F6"/>
<g filter="url(#filter0_d)">
<rect x="241" y="33" width="140" height="63" rx="8" fill="white"/>
<path d="M282.344 65.5469V70H280.844V58.625H285.039C286.284 58.625 287.258 58.9427 287.961 59.5781C288.669 60.2135 289.023 61.0547 289.023 62.1016C289.023 63.2057 288.677 64.0573 287.984 64.6562C287.297 65.25 286.31 65.5469 285.023 65.5469H282.344ZM282.344 64.3203H285.039C285.841 64.3203 286.456 64.1328 286.883 63.7578C287.31 63.3776 287.523 62.8307 287.523 62.1172C287.523 61.4401 287.31 60.8984 286.883 60.4922C286.456 60.0859 285.87 59.875 285.125 59.8594H282.344V64.3203ZM294.797 62.8438C294.578 62.8073 294.341 62.7891 294.086 62.7891C293.138 62.7891 292.495 63.1927 292.156 64V70H290.711V61.5469H292.117L292.141 62.5234C292.615 61.7682 293.286 61.3906 294.156 61.3906C294.438 61.3906 294.651 61.4271 294.797 61.5V62.8438ZM299.484 70.1562C298.339 70.1562 297.406 69.7812 296.688 69.0312C295.969 68.276 295.609 67.2682 295.609 66.0078V65.7422C295.609 64.9036 295.768 64.1562 296.086 63.5C296.409 62.8385 296.857 62.3229 297.43 61.9531C298.008 61.5781 298.633 61.3906 299.305 61.3906C300.404 61.3906 301.258 61.7526 301.867 62.4766C302.477 63.2005 302.781 64.237 302.781 65.5859V66.1875H297.055C297.076 67.0208 297.318 67.6953 297.781 68.2109C298.25 68.7214 298.844 68.9766 299.562 68.9766C300.073 68.9766 300.505 68.8724 300.859 68.6641C301.214 68.4557 301.523 68.1797 301.789 67.8359L302.672 68.5234C301.964 69.612 300.901 70.1562 299.484 70.1562ZM299.305 62.5781C298.721 62.5781 298.232 62.7917 297.836 63.2188C297.44 63.6406 297.195 64.2344 297.102 65H301.336V64.8906C301.294 64.1562 301.096 63.5885 300.742 63.1875C300.388 62.7812 299.909 62.5781 299.305 62.5781ZM310.555 71.1797H303.398V70H310.555V71.1797ZM312.164 70V62.6641H310.828V61.5469H312.164V60.8281C312.164 59.8854 312.432 59.151 312.969 58.625C313.51 58.099 314.273 57.8359 315.258 57.8359C315.841 57.8359 316.578 57.9948 317.469 58.3125L317.227 59.5312C316.576 59.2708 315.956 59.1406 315.367 59.1406C314.747 59.1406 314.299 59.2812 314.023 59.5625C313.753 59.8385 313.617 60.2552 313.617 60.8125V61.5469H315.344V62.6641H313.617V70H312.164ZM318.188 70H316.734V61.5469H318.188V70ZM322.109 70H320.664V58H322.109V70ZM326.391 59.5V61.5469H327.969V62.6641H326.391V67.9062C326.391 68.2448 326.461 68.5 326.602 68.6719C326.742 68.8385 326.982 68.9219 327.32 68.9219C327.487 68.9219 327.716 68.8906 328.008 68.8281V70C327.628 70.1042 327.258 70.1562 326.898 70.1562C326.253 70.1562 325.766 69.9609 325.438 69.5703C325.109 69.1797 324.945 68.625 324.945 67.9062V62.6641H323.406V61.5469H324.945V59.5H326.391ZM333.172 70.1562C332.026 70.1562 331.094 69.7812 330.375 69.0312C329.656 68.276 329.297 67.2682 329.297 66.0078V65.7422C329.297 64.9036 329.456 64.1562 329.773 63.5C330.096 62.8385 330.544 62.3229 331.117 61.9531C331.695 61.5781 332.32 61.3906 332.992 61.3906C334.091 61.3906 334.945 61.7526 335.555 62.4766C336.164 63.2005 336.469 64.237 336.469 65.5859V66.1875H330.742C330.763 67.0208 331.005 67.6953 331.469 68.2109C331.938 68.7214 332.531 68.9766 333.25 68.9766C333.76 68.9766 334.193 68.8724 334.547 68.6641C334.901 68.4557 335.211 68.1797 335.477 67.8359L336.359 68.5234C335.651 69.612 334.589 70.1562 333.172 70.1562ZM332.992 62.5781C332.409 62.5781 331.919 62.7917 331.523 63.2188C331.128 63.6406 330.883 64.2344 330.789 65H335.023V64.8906C334.982 64.1562 334.784 63.5885 334.43 63.1875C334.076 62.7812 333.596 62.5781 332.992 62.5781ZM342.234 62.8438C342.016 62.8073 341.779 62.7891 341.523 62.7891C340.576 62.7891 339.932 63.1927 339.594 64V70H338.148V61.5469H339.555L339.578 62.5234C340.052 61.7682 340.724 61.3906 341.594 61.3906C341.875 61.3906 342.089 61.4271 342.234 61.5V62.8438Z" fill="#2097F6"/>
<rect x="241.5" y="33.5" width="139" height="62" rx="7.5" stroke="#2097F6"/>
</g>
<g filter="url(#filter1_d)">
<rect x="241" y="120" width="140" height="63" rx="8" fill="white"/>
<path d="M298.664 154.031H293.898L292.828 157H291.281L295.625 145.625H296.938L301.289 157H299.75L298.664 154.031ZM294.352 152.797H298.219L296.281 147.477L294.352 152.797ZM309.734 152.867C309.734 154.154 309.44 155.19 308.852 155.977C308.263 156.763 307.466 157.156 306.461 157.156C305.435 157.156 304.628 156.831 304.039 156.18V160.25H302.594V148.547H303.914L303.984 149.484C304.573 148.755 305.391 148.391 306.438 148.391C307.453 148.391 308.255 148.773 308.844 149.539C309.438 150.305 309.734 151.37 309.734 152.734V152.867ZM308.289 152.703C308.289 151.75 308.086 150.997 307.68 150.445C307.273 149.893 306.716 149.617 306.008 149.617C305.133 149.617 304.477 150.005 304.039 150.781V154.82C304.471 155.591 305.133 155.977 306.023 155.977C306.716 155.977 307.266 155.703 307.672 155.156C308.083 154.604 308.289 153.786 308.289 152.703ZM318.719 152.867C318.719 154.154 318.424 155.19 317.836 155.977C317.247 156.763 316.451 157.156 315.445 157.156C314.419 157.156 313.612 156.831 313.023 156.18V160.25H311.578V148.547H312.898L312.969 149.484C313.557 148.755 314.375 148.391 315.422 148.391C316.438 148.391 317.24 148.773 317.828 149.539C318.422 150.305 318.719 151.37 318.719 152.734V152.867ZM317.273 152.703C317.273 151.75 317.07 150.997 316.664 150.445C316.258 149.893 315.701 149.617 314.992 149.617C314.117 149.617 313.461 150.005 313.023 150.781V154.82C313.456 155.591 314.117 155.977 315.008 155.977C315.701 155.977 316.25 155.703 316.656 155.156C317.068 154.604 317.273 153.786 317.273 152.703ZM322.133 157H320.688V145H322.133V157ZM327.219 154.883L329.188 148.547H330.734L327.336 158.305C326.81 159.711 325.974 160.414 324.828 160.414L324.555 160.391L324.016 160.289V159.117L324.406 159.148C324.896 159.148 325.276 159.049 325.547 158.852C325.823 158.654 326.049 158.292 326.227 157.766L326.547 156.906L323.531 148.547H325.109L327.219 154.883Z" fill="#2097F6"/>
<rect x="241.5" y="120.5" width="139" height="62" rx="7.5" stroke="#2097F6"/>
</g>
<g filter="url(#filter2_d)">
<rect x="241" y="207" width="140" height="63" rx="8" fill="white"/>
<path d="M277.969 239.547V244H276.469V232.625H280.664C281.909 232.625 282.883 232.943 283.586 233.578C284.294 234.214 284.648 235.055 284.648 236.102C284.648 237.206 284.302 238.057 283.609 238.656C282.922 239.25 281.935 239.547 280.648 239.547H277.969ZM277.969 238.32H280.664C281.466 238.32 282.081 238.133 282.508 237.758C282.935 237.378 283.148 236.831 283.148 236.117C283.148 235.44 282.935 234.898 282.508 234.492C282.081 234.086 281.495 233.875 280.75 233.859H277.969V238.32ZM285.844 239.695C285.844 238.867 286.005 238.122 286.328 237.461C286.656 236.799 287.109 236.289 287.688 235.93C288.271 235.57 288.935 235.391 289.68 235.391C290.831 235.391 291.76 235.789 292.469 236.586C293.182 237.383 293.539 238.443 293.539 239.766V239.867C293.539 240.69 293.38 241.43 293.062 242.086C292.75 242.737 292.299 243.245 291.711 243.609C291.128 243.974 290.456 244.156 289.695 244.156C288.549 244.156 287.62 243.758 286.906 242.961C286.198 242.164 285.844 241.109 285.844 239.797V239.695ZM287.297 239.867C287.297 240.805 287.513 241.557 287.945 242.125C288.383 242.693 288.966 242.977 289.695 242.977C290.43 242.977 291.013 242.69 291.445 242.117C291.878 241.539 292.094 240.732 292.094 239.695C292.094 238.768 291.872 238.018 291.43 237.445C290.992 236.867 290.409 236.578 289.68 236.578C288.966 236.578 288.391 236.862 287.953 237.43C287.516 237.997 287.297 238.81 287.297 239.867ZM300.273 241.758C300.273 241.367 300.125 241.065 299.828 240.852C299.536 240.633 299.023 240.445 298.289 240.289C297.56 240.133 296.979 239.945 296.547 239.727C296.12 239.508 295.802 239.247 295.594 238.945C295.391 238.643 295.289 238.284 295.289 237.867C295.289 237.174 295.581 236.589 296.164 236.109C296.753 235.63 297.503 235.391 298.414 235.391C299.372 235.391 300.148 235.638 300.742 236.133C301.341 236.628 301.641 237.26 301.641 238.031H300.188C300.188 237.635 300.018 237.294 299.68 237.008C299.346 236.721 298.924 236.578 298.414 236.578C297.888 236.578 297.477 236.693 297.18 236.922C296.883 237.151 296.734 237.451 296.734 237.82C296.734 238.169 296.872 238.432 297.148 238.609C297.424 238.786 297.922 238.956 298.641 239.117C299.365 239.279 299.951 239.471 300.398 239.695C300.846 239.919 301.177 240.19 301.391 240.508C301.609 240.82 301.719 241.203 301.719 241.656C301.719 242.411 301.417 243.018 300.812 243.477C300.208 243.93 299.424 244.156 298.461 244.156C297.784 244.156 297.185 244.036 296.664 243.797C296.143 243.557 295.734 243.224 295.438 242.797C295.146 242.365 295 241.898 295 241.398H296.445C296.471 241.883 296.664 242.268 297.023 242.555C297.388 242.836 297.867 242.977 298.461 242.977C299.008 242.977 299.445 242.867 299.773 242.648C300.107 242.424 300.273 242.128 300.273 241.758ZM305.562 233.5V235.547H307.141V236.664H305.562V241.906C305.562 242.245 305.633 242.5 305.773 242.672C305.914 242.839 306.154 242.922 306.492 242.922C306.659 242.922 306.888 242.891 307.18 242.828V244C306.799 244.104 306.43 244.156 306.07 244.156C305.424 244.156 304.938 243.961 304.609 243.57C304.281 243.18 304.117 242.625 304.117 241.906V236.664H302.578V235.547H304.117V233.5H305.562ZM314.93 245.18H307.773V244H314.93V245.18ZM316.539 244V236.664H315.203V235.547H316.539V234.828C316.539 233.885 316.807 233.151 317.344 232.625C317.885 232.099 318.648 231.836 319.633 231.836C320.216 231.836 320.953 231.995 321.844 232.312L321.602 233.531C320.951 233.271 320.331 233.141 319.742 233.141C319.122 233.141 318.674 233.281 318.398 233.562C318.128 233.839 317.992 234.255 317.992 234.812V235.547H319.719V236.664H317.992V244H316.539ZM322.562 244H321.109V235.547H322.562V244ZM326.484 244H325.039V232H326.484V244ZM330.766 233.5V235.547H332.344V236.664H330.766V241.906C330.766 242.245 330.836 242.5 330.977 242.672C331.117 242.839 331.357 242.922 331.695 242.922C331.862 242.922 332.091 242.891 332.383 242.828V244C332.003 244.104 331.633 244.156 331.273 244.156C330.628 244.156 330.141 243.961 329.812 243.57C329.484 243.18 329.32 242.625 329.32 241.906V236.664H327.781V235.547H329.32V233.5H330.766ZM337.547 244.156C336.401 244.156 335.469 243.781 334.75 243.031C334.031 242.276 333.672 241.268 333.672 240.008V239.742C333.672 238.904 333.831 238.156 334.148 237.5C334.471 236.839 334.919 236.323 335.492 235.953C336.07 235.578 336.695 235.391 337.367 235.391C338.466 235.391 339.32 235.753 339.93 236.477C340.539 237.201 340.844 238.237 340.844 239.586V240.188H335.117C335.138 241.021 335.38 241.695 335.844 242.211C336.312 242.721 336.906 242.977 337.625 242.977C338.135 242.977 338.568 242.872 338.922 242.664C339.276 242.456 339.586 242.18 339.852 241.836L340.734 242.523C340.026 243.612 338.964 244.156 337.547 244.156ZM337.367 236.578C336.784 236.578 336.294 236.792 335.898 237.219C335.503 237.641 335.258 238.234 335.164 239H339.398V238.891C339.357 238.156 339.159 237.589 338.805 237.188C338.451 236.781 337.971 236.578 337.367 236.578ZM346.609 236.844C346.391 236.807 346.154 236.789 345.898 236.789C344.951 236.789 344.307 237.193 343.969 238V244H342.523V235.547H343.93L343.953 236.523C344.427 235.768 345.099 235.391 345.969 235.391C346.25 235.391 346.464 235.427 346.609 235.5V236.844Z" fill="#2097F6"/>
<rect x="241.5" y="207.5" width="139" height="62" rx="7.5" stroke="#2097F6"/>
</g>
<path fill-rule="evenodd" clip-rule="evenodd" d="M311.669 120L311.503 120.179C311.311 120.387 311.039 120.504 310.756 120.5C310.473 120.496 310.204 120.372 310.017 120.159L301.248 110.159C300.884 109.744 300.925 109.112 301.341 108.748C301.756 108.384 302.388 108.425 302.752 108.841L310 117.106L310 96H312L312 116.698L319.292 108.821C319.667 108.415 320.3 108.391 320.705 108.766C321.11 109.141 321.135 109.774 320.76 110.179L312 119.643V120H311.669Z" fill="#2097F6"/>
<path fill-rule="evenodd" clip-rule="evenodd" d="M311.669 207L311.503 207.179C311.311 207.387 311.039 207.504 310.756 207.5C310.473 207.496 310.204 207.372 310.017 207.159L301.248 197.159C300.884 196.744 300.925 196.112 301.341 195.748C301.756 195.384 302.388 195.425 302.752 195.841L310 204.106L310 183H312L312 203.698L319.292 195.821C319.667 195.415 320.3 195.391 320.705 195.766C321.11 196.141 321.135 196.774 320.76 197.179L312 206.643V207H311.669Z" fill="#2097F6"/>
<path fill-rule="evenodd" clip-rule="evenodd" d="M448.5 152.357L448.679 152.523C448.887 152.715 449.004 152.987 449 153.27C448.996 153.553 448.872 153.821 448.659 154.008L438.659 162.778C438.244 163.142 437.612 163.1 437.248 162.685C436.884 162.27 436.925 161.638 437.341 161.274L445.606 154.026H408V152.026H445.198L437.321 144.734C436.915 144.359 436.891 143.726 437.266 143.321C437.641 142.915 438.274 142.891 438.679 143.266L448.142 152.026H448.5V152.357Z" fill="#2097F6"/>
<g filter="url(#filter3_d)">
<rect x="669" y="121" width="140" height="63" rx="8" fill="white"/>
<path d="M720.055 158V146.625H723.773C725.008 146.625 725.935 146.88 726.555 147.391C727.18 147.901 727.492 148.656 727.492 149.656C727.492 150.188 727.341 150.659 727.039 151.07C726.737 151.477 726.326 151.792 725.805 152.016C726.419 152.188 726.904 152.516 727.258 153C727.617 153.479 727.797 154.052 727.797 154.719C727.797 155.74 727.466 156.542 726.805 157.125C726.143 157.708 725.208 158 724 158H720.055ZM721.555 152.68V156.773H724.031C724.729 156.773 725.279 156.594 725.68 156.234C726.086 155.87 726.289 155.37 726.289 154.734C726.289 153.365 725.544 152.68 724.055 152.68H721.555ZM721.555 151.477H723.82C724.477 151.477 725 151.312 725.391 150.984C725.786 150.656 725.984 150.211 725.984 149.648C725.984 149.023 725.802 148.57 725.438 148.289C725.073 148.003 724.518 147.859 723.773 147.859H721.555V151.477ZM735.016 158C734.932 157.833 734.865 157.536 734.812 157.109C734.141 157.807 733.339 158.156 732.406 158.156C731.573 158.156 730.888 157.922 730.352 157.453C729.82 156.979 729.555 156.38 729.555 155.656C729.555 154.776 729.888 154.094 730.555 153.609C731.227 153.12 732.169 152.875 733.383 152.875H734.789V152.211C734.789 151.706 734.638 151.305 734.336 151.008C734.034 150.706 733.589 150.555 733 150.555C732.484 150.555 732.052 150.685 731.703 150.945C731.354 151.206 731.18 151.521 731.18 151.891H729.727C729.727 151.469 729.875 151.062 730.172 150.672C730.474 150.276 730.88 149.964 731.391 149.734C731.906 149.505 732.471 149.391 733.086 149.391C734.06 149.391 734.823 149.635 735.375 150.125C735.927 150.609 736.214 151.279 736.234 152.133V156.023C736.234 156.799 736.333 157.417 736.531 157.875V158H735.016ZM732.617 156.898C733.07 156.898 733.5 156.781 733.906 156.547C734.312 156.312 734.607 156.008 734.789 155.633V153.898H733.656C731.885 153.898 731 154.417 731 155.453C731 155.906 731.151 156.26 731.453 156.516C731.755 156.771 732.143 156.898 732.617 156.898ZM740.859 154.086L739.953 155.031V158H738.508V146H739.953V153.258L740.727 152.328L743.359 149.547H745.117L741.828 153.078L745.5 158H743.805L740.859 154.086ZM749.961 158.156C748.815 158.156 747.883 157.781 747.164 157.031C746.445 156.276 746.086 155.268 746.086 154.008V153.742C746.086 152.904 746.245 152.156 746.562 151.5C746.885 150.839 747.333 150.323 747.906 149.953C748.484 149.578 749.109 149.391 749.781 149.391C750.88 149.391 751.734 149.753 752.344 150.477C752.953 151.201 753.258 152.237 753.258 153.586V154.188H747.531C747.552 155.021 747.794 155.695 748.258 156.211C748.727 156.721 749.32 156.977 750.039 156.977C750.549 156.977 750.982 156.872 751.336 156.664C751.69 156.456 752 156.18 752.266 155.836L753.148 156.523C752.44 157.612 751.378 158.156 749.961 158.156ZM749.781 150.578C749.198 150.578 748.708 150.792 748.312 151.219C747.917 151.641 747.672 152.234 747.578 153H751.812V152.891C751.771 152.156 751.573 151.589 751.219 151.188C750.865 150.781 750.385 150.578 749.781 150.578ZM759.023 150.844C758.805 150.807 758.568 150.789 758.312 150.789C757.365 150.789 756.721 151.193 756.383 152V158H754.938V149.547H756.344L756.367 150.523C756.841 149.768 757.513 149.391 758.383 149.391C758.664 149.391 758.878 149.427 759.023 149.5V150.844Z" fill="#2097F6"/>
<rect x="669.5" y="121.5" width="139" height="62" rx="7.5" stroke="#2097F6"/>
</g>
<g filter="url(#filter4_d)">
<rect x="850" y="121" width="140" height="63" rx="8" fill="white"/>
<path d="M880.344 152.742H875.414V156.773H881.141V158H873.914V146.625H881.062V147.859H875.414V151.516H880.344V152.742ZM884.148 149.547L884.195 150.609C884.841 149.797 885.685 149.391 886.727 149.391C888.513 149.391 889.414 150.398 889.43 152.414V158H887.984V152.406C887.979 151.797 887.839 151.346 887.562 151.055C887.292 150.763 886.867 150.617 886.289 150.617C885.82 150.617 885.409 150.742 885.055 150.992C884.701 151.242 884.424 151.57 884.227 151.977V158H882.781V149.547H884.148ZM891.258 153.703C891.258 152.406 891.565 151.365 892.18 150.578C892.794 149.786 893.599 149.391 894.594 149.391C895.583 149.391 896.367 149.729 896.945 150.406V146H898.391V158H897.062L896.992 157.094C896.414 157.802 895.609 158.156 894.578 158.156C893.599 158.156 892.799 157.755 892.18 156.953C891.565 156.151 891.258 155.104 891.258 153.812V153.703ZM892.703 153.867C892.703 154.826 892.901 155.576 893.297 156.117C893.693 156.659 894.24 156.93 894.938 156.93C895.854 156.93 896.523 156.518 896.945 155.695V151.812C896.513 151.016 895.849 150.617 894.953 150.617C894.245 150.617 893.693 150.891 893.297 151.438C892.901 151.984 892.703 152.794 892.703 153.867ZM900.258 153.695C900.258 152.867 900.419 152.122 900.742 151.461C901.07 150.799 901.523 150.289 902.102 149.93C902.685 149.57 903.349 149.391 904.094 149.391C905.245 149.391 906.174 149.789 906.883 150.586C907.596 151.383 907.953 152.443 907.953 153.766V153.867C907.953 154.69 907.794 155.43 907.477 156.086C907.164 156.737 906.714 157.245 906.125 157.609C905.542 157.974 904.87 158.156 904.109 158.156C902.964 158.156 902.034 157.758 901.32 156.961C900.612 156.164 900.258 155.109 900.258 153.797V153.695ZM901.711 153.867C901.711 154.805 901.927 155.557 902.359 156.125C902.797 156.693 903.38 156.977 904.109 156.977C904.844 156.977 905.427 156.69 905.859 156.117C906.292 155.539 906.508 154.732 906.508 153.695C906.508 152.768 906.286 152.018 905.844 151.445C905.406 150.867 904.823 150.578 904.094 150.578C903.38 150.578 902.805 150.862 902.367 151.43C901.93 151.997 901.711 152.81 901.711 153.867ZM913.852 150.844C913.633 150.807 913.396 150.789 913.141 150.789C912.193 150.789 911.549 151.193 911.211 152V158H909.766V149.547H911.172L911.195 150.523C911.669 149.768 912.341 149.391 913.211 149.391C913.492 149.391 913.706 149.427 913.852 149.5V150.844ZM920.109 155.758C920.109 155.367 919.961 155.065 919.664 154.852C919.372 154.633 918.859 154.445 918.125 154.289C917.396 154.133 916.815 153.945 916.383 153.727C915.956 153.508 915.638 153.247 915.43 152.945C915.227 152.643 915.125 152.284 915.125 151.867C915.125 151.174 915.417 150.589 916 150.109C916.589 149.63 917.339 149.391 918.25 149.391C919.208 149.391 919.984 149.638 920.578 150.133C921.177 150.628 921.477 151.26 921.477 152.031H920.023C920.023 151.635 919.854 151.294 919.516 151.008C919.182 150.721 918.76 150.578 918.25 150.578C917.724 150.578 917.312 150.693 917.016 150.922C916.719 151.151 916.57 151.451 916.57 151.82C916.57 152.169 916.708 152.432 916.984 152.609C917.26 152.786 917.758 152.956 918.477 153.117C919.201 153.279 919.786 153.471 920.234 153.695C920.682 153.919 921.013 154.19 921.227 154.508C921.445 154.82 921.555 155.203 921.555 155.656C921.555 156.411 921.253 157.018 920.648 157.477C920.044 157.93 919.26 158.156 918.297 158.156C917.62 158.156 917.021 158.036 916.5 157.797C915.979 157.557 915.57 157.224 915.273 156.797C914.982 156.365 914.836 155.898 914.836 155.398H916.281C916.307 155.883 916.5 156.268 916.859 156.555C917.224 156.836 917.703 156.977 918.297 156.977C918.844 156.977 919.281 156.867 919.609 156.648C919.943 156.424 920.109 156.128 920.109 155.758ZM926.945 158.156C925.799 158.156 924.867 157.781 924.148 157.031C923.43 156.276 923.07 155.268 923.07 154.008V153.742C923.07 152.904 923.229 152.156 923.547 151.5C923.87 150.839 924.318 150.323 924.891 149.953C925.469 149.578 926.094 149.391 926.766 149.391C927.865 149.391 928.719 149.753 929.328 150.477C929.938 151.201 930.242 152.237 930.242 153.586V154.188H924.516C924.536 155.021 924.779 155.695 925.242 156.211C925.711 156.721 926.305 156.977 927.023 156.977C927.534 156.977 927.966 156.872 928.32 156.664C928.674 156.456 928.984 156.18 929.25 155.836L930.133 156.523C929.424 157.612 928.362 158.156 926.945 158.156ZM926.766 150.578C926.182 150.578 925.693 150.792 925.297 151.219C924.901 151.641 924.656 152.234 924.562 153H928.797V152.891C928.755 152.156 928.557 151.589 928.203 151.188C927.849 150.781 927.37 150.578 926.766 150.578ZM933.281 149.547L933.32 150.484C933.94 149.755 934.776 149.391 935.828 149.391C937.01 149.391 937.815 149.844 938.242 150.75C938.523 150.344 938.888 150.016 939.336 149.766C939.789 149.516 940.323 149.391 940.938 149.391C942.792 149.391 943.734 150.372 943.766 152.336V158H942.32V152.422C942.32 151.818 942.182 151.367 941.906 151.07C941.63 150.768 941.167 150.617 940.516 150.617C939.979 150.617 939.534 150.779 939.18 151.102C938.826 151.419 938.62 151.849 938.562 152.391V158H937.109V152.461C937.109 151.232 936.508 150.617 935.305 150.617C934.357 150.617 933.708 151.021 933.359 151.828V158H931.914V149.547H933.281ZM949.461 158.156C948.315 158.156 947.383 157.781 946.664 157.031C945.945 156.276 945.586 155.268 945.586 154.008V153.742C945.586 152.904 945.745 152.156 946.062 151.5C946.385 150.839 946.833 150.323 947.406 149.953C947.984 149.578 948.609 149.391 949.281 149.391C950.38 149.391 951.234 149.753 951.844 150.477C952.453 151.201 952.758 152.237 952.758 153.586V154.188H947.031C947.052 155.021 947.294 155.695 947.758 156.211C948.227 156.721 948.82 156.977 949.539 156.977C950.049 156.977 950.482 156.872 950.836 156.664C951.19 156.456 951.5 156.18 951.766 155.836L952.648 156.523C951.94 157.612 950.878 158.156 949.461 158.156ZM949.281 150.578C948.698 150.578 948.208 150.792 947.812 151.219C947.417 151.641 947.172 152.234 947.078 153H951.312V152.891C951.271 152.156 951.073 151.589 950.719 151.188C950.365 150.781 949.885 150.578 949.281 150.578ZM955.805 149.547L955.852 150.609C956.497 149.797 957.341 149.391 958.383 149.391C960.169 149.391 961.07 150.398 961.086 152.414V158H959.641V152.406C959.635 151.797 959.495 151.346 959.219 151.055C958.948 150.763 958.523 150.617 957.945 150.617C957.477 150.617 957.065 150.742 956.711 150.992C956.357 151.242 956.081 151.57 955.883 151.977V158H954.438V149.547H955.805ZM965.227 147.5V149.547H966.805V150.664H965.227V155.906C965.227 156.245 965.297 156.5 965.438 156.672C965.578 156.839 965.818 156.922 966.156 156.922C966.323 156.922 966.552 156.891 966.844 156.828V158C966.464 158.104 966.094 158.156 965.734 158.156C965.089 158.156 964.602 157.961 964.273 157.57C963.945 157.18 963.781 156.625 963.781 155.906V150.664H962.242V149.547H963.781V147.5H965.227Z" fill="#2097F6"/>
<rect x="850.5" y="121.5" width="139" height="62" rx="7.5" stroke="#2097F6"/>
</g>
<rect x="449" y="48" width="179" height="209" rx="10" fill="#E7F4FF"/>
<path d="M460.953 55.625L464.672 64.9062L468.391 55.625H470.336V67H468.836V62.5703L468.977 57.7891L465.242 67H464.094L460.367 57.8125L460.516 62.5703V67H459.016V55.625H460.953ZM476.266 67.1562C475.12 67.1562 474.188 66.7812 473.469 66.0312C472.75 65.276 472.391 64.2682 472.391 63.0078V62.7422C472.391 61.9036 472.549 61.1562 472.867 60.5C473.19 59.8385 473.638 59.3229 474.211 58.9531C474.789 58.5781 475.414 58.3906 476.086 58.3906C477.185 58.3906 478.039 58.7526 478.648 59.4766C479.258 60.2005 479.562 61.237 479.562 62.5859V63.1875H473.836C473.857 64.0208 474.099 64.6953 474.562 65.2109C475.031 65.7214 475.625 65.9766 476.344 65.9766C476.854 65.9766 477.286 65.8724 477.641 65.6641C477.995 65.4557 478.305 65.1797 478.57 64.8359L479.453 65.5234C478.745 66.612 477.682 67.1562 476.266 67.1562ZM476.086 59.5781C475.503 59.5781 475.013 59.7917 474.617 60.2188C474.221 60.6406 473.977 61.2344 473.883 62H478.117V61.8906C478.076 61.1562 477.878 60.5885 477.523 60.1875C477.169 59.7812 476.69 59.5781 476.086 59.5781ZM482.602 58.5469L482.641 59.4844C483.26 58.7552 484.096 58.3906 485.148 58.3906C486.331 58.3906 487.135 58.8438 487.562 59.75C487.844 59.3438 488.208 59.0156 488.656 58.7656C489.109 58.5156 489.643 58.3906 490.258 58.3906C492.112 58.3906 493.055 59.3724 493.086 61.3359V67H491.641V61.4219C491.641 60.8177 491.503 60.3672 491.227 60.0703C490.951 59.7682 490.487 59.6172 489.836 59.6172C489.299 59.6172 488.854 59.7786 488.5 60.1016C488.146 60.4193 487.94 60.849 487.883 61.3906V67H486.43V61.4609C486.43 60.2318 485.828 59.6172 484.625 59.6172C483.677 59.6172 483.029 60.0208 482.68 60.8281V67H481.234V58.5469H482.602ZM502.414 62.8672C502.414 64.1536 502.12 65.1901 501.531 65.9766C500.943 66.763 500.146 67.1562 499.141 67.1562C498.115 67.1562 497.307 66.8307 496.719 66.1797V70.25H495.273V58.5469H496.594L496.664 59.4844C497.253 58.7552 498.07 58.3906 499.117 58.3906C500.133 58.3906 500.935 58.7734 501.523 59.5391C502.117 60.3047 502.414 61.3698 502.414 62.7344V62.8672ZM500.969 62.7031C500.969 61.75 500.766 60.9974 500.359 60.4453C499.953 59.8932 499.396 59.6172 498.688 59.6172C497.812 59.6172 497.156 60.0052 496.719 60.7812V64.8203C497.151 65.5911 497.812 65.9766 498.703 65.9766C499.396 65.9766 499.945 65.7031 500.352 65.1562C500.763 64.6042 500.969 63.7865 500.969 62.7031ZM503.875 62.6953C503.875 61.8672 504.036 61.1224 504.359 60.4609C504.688 59.7995 505.141 59.2891 505.719 58.9297C506.302 58.5703 506.966 58.3906 507.711 58.3906C508.862 58.3906 509.792 58.7891 510.5 59.5859C511.214 60.3828 511.57 61.4427 511.57 62.7656V62.8672C511.57 63.6901 511.411 64.4297 511.094 65.0859C510.781 65.737 510.331 66.2448 509.742 66.6094C509.159 66.974 508.487 67.1562 507.727 67.1562C506.581 67.1562 505.651 66.7578 504.938 65.9609C504.229 65.1641 503.875 64.1094 503.875 62.7969V62.6953ZM505.328 62.8672C505.328 63.8047 505.544 64.5573 505.977 65.125C506.414 65.6927 506.997 65.9766 507.727 65.9766C508.461 65.9766 509.044 65.6901 509.477 65.1172C509.909 64.5391 510.125 63.7318 510.125 62.6953C510.125 61.7682 509.904 61.0182 509.461 60.4453C509.023 59.8672 508.44 59.5781 507.711 59.5781C506.997 59.5781 506.422 59.862 505.984 60.4297C505.547 60.9974 505.328 61.8099 505.328 62.8672ZM513 62.6953C513 61.8672 513.161 61.1224 513.484 60.4609C513.812 59.7995 514.266 59.2891 514.844 58.9297C515.427 58.5703 516.091 58.3906 516.836 58.3906C517.987 58.3906 518.917 58.7891 519.625 59.5859C520.339 60.3828 520.695 61.4427 520.695 62.7656V62.8672C520.695 63.6901 520.536 64.4297 520.219 65.0859C519.906 65.737 519.456 66.2448 518.867 66.6094C518.284 66.974 517.612 67.1562 516.852 67.1562C515.706 67.1562 514.776 66.7578 514.062 65.9609C513.354 65.1641 513 64.1094 513 62.7969V62.6953ZM514.453 62.8672C514.453 63.8047 514.669 64.5573 515.102 65.125C515.539 65.6927 516.122 65.9766 516.852 65.9766C517.586 65.9766 518.169 65.6901 518.602 65.1172C519.034 64.5391 519.25 63.7318 519.25 62.6953C519.25 61.7682 519.029 61.0182 518.586 60.4453C518.148 59.8672 517.565 59.5781 516.836 59.5781C516.122 59.5781 515.547 59.862 515.109 60.4297C514.672 60.9974 514.453 61.8099 514.453 62.8672ZM524.078 67H522.633V55H524.078V67Z" fill="#2097F6"/>
<path d="M540.141 160.68C540.141 161.794 539.953 162.768 539.578 163.602C539.203 164.43 538.672 165.062 537.984 165.5C537.297 165.938 536.495 166.156 535.578 166.156C534.682 166.156 533.888 165.938 533.195 165.5C532.503 165.057 531.964 164.43 531.578 163.617C531.198 162.799 531.003 161.854 530.992 160.781V159.961C530.992 158.867 531.182 157.901 531.562 157.062C531.943 156.224 532.479 155.583 533.172 155.141C533.87 154.693 534.667 154.469 535.562 154.469C536.474 154.469 537.276 154.69 537.969 155.133C538.667 155.57 539.203 156.208 539.578 157.047C539.953 157.88 540.141 158.852 540.141 159.961V160.68ZM538.648 159.945C538.648 158.596 538.378 157.562 537.836 156.844C537.294 156.12 536.536 155.758 535.562 155.758C534.615 155.758 533.867 156.12 533.32 156.844C532.779 157.562 532.5 158.562 532.484 159.844V160.68C532.484 161.987 532.758 163.016 533.305 163.766C533.857 164.51 534.615 164.883 535.578 164.883C536.547 164.883 537.297 164.531 537.828 163.828C538.359 163.12 538.633 162.107 538.648 160.789V159.945ZM546.562 161.398H543.891V166H542.383V154.625H546.148C547.43 154.625 548.414 154.917 549.102 155.5C549.794 156.083 550.141 156.932 550.141 158.047C550.141 158.755 549.948 159.372 549.562 159.898C549.182 160.424 548.651 160.818 547.969 161.078L550.641 165.906V166H549.031L546.562 161.398ZM543.891 160.172H546.195C546.94 160.172 547.531 159.979 547.969 159.594C548.411 159.208 548.633 158.693 548.633 158.047C548.633 157.344 548.422 156.805 548 156.43C547.583 156.055 546.979 155.865 546.188 155.859H543.891V160.172Z" fill="#2097F6"/>
<g filter="url(#filter5_d)">
<rect x="471" y="177" width="140" height="63" rx="8" fill="white"/>
<path d="M500.703 208.711L499.312 210.156V214H497.812V202.625H499.312V208.25L504.367 202.625H506.18L501.703 207.648L506.531 214H504.734L500.703 208.711ZM508.797 205.547L508.844 206.609C509.49 205.797 510.333 205.391 511.375 205.391C513.161 205.391 514.062 206.398 514.078 208.414V214H512.633V208.406C512.628 207.797 512.487 207.346 512.211 207.055C511.94 206.763 511.516 206.617 510.938 206.617C510.469 206.617 510.057 206.742 509.703 206.992C509.349 207.242 509.073 207.57 508.875 207.977V214H507.43V205.547H508.797ZM515.875 209.695C515.875 208.867 516.036 208.122 516.359 207.461C516.688 206.799 517.141 206.289 517.719 205.93C518.302 205.57 518.966 205.391 519.711 205.391C520.862 205.391 521.792 205.789 522.5 206.586C523.214 207.383 523.57 208.443 523.57 209.766V209.867C523.57 210.69 523.411 211.43 523.094 212.086C522.781 212.737 522.331 213.245 521.742 213.609C521.159 213.974 520.487 214.156 519.727 214.156C518.581 214.156 517.651 213.758 516.938 212.961C516.229 212.164 515.875 211.109 515.875 209.797V209.695ZM517.328 209.867C517.328 210.805 517.544 211.557 517.977 212.125C518.414 212.693 518.997 212.977 519.727 212.977C520.461 212.977 521.044 212.69 521.477 212.117C521.909 211.539 522.125 210.732 522.125 209.695C522.125 208.768 521.904 208.018 521.461 207.445C521.023 206.867 520.44 206.578 519.711 206.578C518.997 206.578 518.422 206.862 517.984 207.43C517.547 207.997 517.328 208.81 517.328 209.867ZM532.867 212.008L534.492 205.547H535.938L533.477 214H532.305L530.25 207.594L528.25 214H527.078L524.625 205.547H526.062L527.727 211.875L529.695 205.547H530.859L532.867 212.008ZM538.781 205.547L538.828 206.609C539.474 205.797 540.318 205.391 541.359 205.391C543.146 205.391 544.047 206.398 544.062 208.414V214H542.617V208.406C542.612 207.797 542.471 207.346 542.195 207.055C541.924 206.763 541.5 206.617 540.922 206.617C540.453 206.617 540.042 206.742 539.688 206.992C539.333 207.242 539.057 207.57 538.859 207.977V214H537.414V205.547H538.781ZM552.336 215.18H545.18V214H552.336V215.18ZM556.25 212.039L558.344 205.547H559.82L556.789 214H555.688L552.625 205.547H554.102L556.25 212.039ZM566.305 214C566.221 213.833 566.154 213.536 566.102 213.109C565.43 213.807 564.628 214.156 563.695 214.156C562.862 214.156 562.177 213.922 561.641 213.453C561.109 212.979 560.844 212.38 560.844 211.656C560.844 210.776 561.177 210.094 561.844 209.609C562.516 209.12 563.458 208.875 564.672 208.875H566.078V208.211C566.078 207.706 565.927 207.305 565.625 207.008C565.323 206.706 564.878 206.555 564.289 206.555C563.773 206.555 563.341 206.685 562.992 206.945C562.643 207.206 562.469 207.521 562.469 207.891H561.016C561.016 207.469 561.164 207.062 561.461 206.672C561.763 206.276 562.169 205.964 562.68 205.734C563.195 205.505 563.76 205.391 564.375 205.391C565.349 205.391 566.112 205.635 566.664 206.125C567.216 206.609 567.503 207.279 567.523 208.133V212.023C567.523 212.799 567.622 213.417 567.82 213.875V214H566.305ZM563.906 212.898C564.359 212.898 564.789 212.781 565.195 212.547C565.602 212.312 565.896 212.008 566.078 211.633V209.898H564.945C563.174 209.898 562.289 210.417 562.289 211.453C562.289 211.906 562.44 212.26 562.742 212.516C563.044 212.771 563.432 212.898 563.906 212.898ZM571.359 214H569.914V202H571.359V214ZM575.25 214H573.805V205.547H575.25V214ZM573.688 203.305C573.688 203.07 573.758 202.872 573.898 202.711C574.044 202.549 574.258 202.469 574.539 202.469C574.82 202.469 575.034 202.549 575.18 202.711C575.326 202.872 575.398 203.07 575.398 203.305C575.398 203.539 575.326 203.734 575.18 203.891C575.034 204.047 574.82 204.125 574.539 204.125C574.258 204.125 574.044 204.047 573.898 203.891C573.758 203.734 573.688 203.539 573.688 203.305ZM577.219 209.703C577.219 208.406 577.526 207.365 578.141 206.578C578.755 205.786 579.56 205.391 580.555 205.391C581.544 205.391 582.328 205.729 582.906 206.406V202H584.352V214H583.023L582.953 213.094C582.375 213.802 581.57 214.156 580.539 214.156C579.56 214.156 578.76 213.755 578.141 212.953C577.526 212.151 577.219 211.104 577.219 209.812V209.703ZM578.664 209.867C578.664 210.826 578.862 211.576 579.258 212.117C579.654 212.659 580.201 212.93 580.898 212.93C581.815 212.93 582.484 212.518 582.906 211.695V207.812C582.474 207.016 581.81 206.617 580.914 206.617C580.206 206.617 579.654 206.891 579.258 207.438C578.862 207.984 578.664 208.794 578.664 209.867Z" fill="#2097F6"/>
<rect x="471.5" y="177.5" width="139" height="62" rx="7.5" stroke="#2097F6"/>
</g>
<g filter="url(#filter6_d)">
<rect x="471" y="78" width="140" height="63" rx="8" fill="white"/>
<path d="M514.805 110.547V115H513.305V103.625H517.5C518.745 103.625 519.719 103.943 520.422 104.578C521.13 105.214 521.484 106.055 521.484 107.102C521.484 108.206 521.138 109.057 520.445 109.656C519.758 110.25 518.771 110.547 517.484 110.547H514.805ZM514.805 109.32H517.5C518.302 109.32 518.917 109.133 519.344 108.758C519.771 108.378 519.984 107.831 519.984 107.117C519.984 106.44 519.771 105.898 519.344 105.492C518.917 105.086 518.331 104.875 517.586 104.859H514.805V109.32ZM526.57 115.156C525.424 115.156 524.492 114.781 523.773 114.031C523.055 113.276 522.695 112.268 522.695 111.008V110.742C522.695 109.904 522.854 109.156 523.172 108.5C523.495 107.839 523.943 107.323 524.516 106.953C525.094 106.578 525.719 106.391 526.391 106.391C527.49 106.391 528.344 106.753 528.953 107.477C529.562 108.201 529.867 109.237 529.867 110.586V111.188H524.141C524.161 112.021 524.404 112.695 524.867 113.211C525.336 113.721 525.93 113.977 526.648 113.977C527.159 113.977 527.591 113.872 527.945 113.664C528.299 113.456 528.609 113.18 528.875 112.836L529.758 113.523C529.049 114.612 527.987 115.156 526.57 115.156ZM526.391 107.578C525.807 107.578 525.318 107.792 524.922 108.219C524.526 108.641 524.281 109.234 524.188 110H528.422V109.891C528.38 109.156 528.182 108.589 527.828 108.188C527.474 107.781 526.995 107.578 526.391 107.578ZM532.914 106.547L532.961 107.609C533.607 106.797 534.451 106.391 535.492 106.391C537.279 106.391 538.18 107.398 538.195 109.414V115H536.75V109.406C536.745 108.797 536.604 108.346 536.328 108.055C536.057 107.763 535.633 107.617 535.055 107.617C534.586 107.617 534.174 107.742 533.82 107.992C533.466 108.242 533.19 108.57 532.992 108.977V115H531.547V106.547H532.914ZM540.023 110.703C540.023 109.406 540.331 108.365 540.945 107.578C541.56 106.786 542.365 106.391 543.359 106.391C544.349 106.391 545.133 106.729 545.711 107.406V103H547.156V115H545.828L545.758 114.094C545.18 114.802 544.375 115.156 543.344 115.156C542.365 115.156 541.565 114.755 540.945 113.953C540.331 113.151 540.023 112.104 540.023 110.812V110.703ZM541.469 110.867C541.469 111.826 541.667 112.576 542.062 113.117C542.458 113.659 543.005 113.93 543.703 113.93C544.62 113.93 545.289 113.518 545.711 112.695V108.812C545.279 108.016 544.615 107.617 543.719 107.617C543.01 107.617 542.458 107.891 542.062 108.438C541.667 108.984 541.469 109.794 541.469 110.867ZM550.977 115H549.531V106.547H550.977V115ZM549.414 104.305C549.414 104.07 549.484 103.872 549.625 103.711C549.771 103.549 549.984 103.469 550.266 103.469C550.547 103.469 550.76 103.549 550.906 103.711C551.052 103.872 551.125 104.07 551.125 104.305C551.125 104.539 551.052 104.734 550.906 104.891C550.76 105.047 550.547 105.125 550.266 105.125C549.984 105.125 549.771 105.047 549.625 104.891C549.484 104.734 549.414 104.539 549.414 104.305ZM554.664 106.547L554.711 107.609C555.357 106.797 556.201 106.391 557.242 106.391C559.029 106.391 559.93 107.398 559.945 109.414V115H558.5V109.406C558.495 108.797 558.354 108.346 558.078 108.055C557.807 107.763 557.383 107.617 556.805 107.617C556.336 107.617 555.924 107.742 555.57 107.992C555.216 108.242 554.94 108.57 554.742 108.977V115H553.297V106.547H554.664ZM561.781 110.703C561.781 109.385 562.086 108.339 562.695 107.562C563.305 106.781 564.112 106.391 565.117 106.391C566.148 106.391 566.953 106.755 567.531 107.484L567.602 106.547H568.922V114.797C568.922 115.891 568.596 116.753 567.945 117.383C567.299 118.013 566.43 118.328 565.336 118.328C564.727 118.328 564.13 118.198 563.547 117.938C562.964 117.677 562.518 117.32 562.211 116.867L562.961 116C563.581 116.766 564.339 117.148 565.234 117.148C565.938 117.148 566.484 116.951 566.875 116.555C567.271 116.159 567.469 115.602 567.469 114.883V114.156C566.891 114.823 566.102 115.156 565.102 115.156C564.112 115.156 563.31 114.758 562.695 113.961C562.086 113.164 561.781 112.078 561.781 110.703ZM563.234 110.867C563.234 111.82 563.43 112.57 563.82 113.117C564.211 113.659 564.758 113.93 565.461 113.93C566.372 113.93 567.042 113.516 567.469 112.688V108.828C567.026 108.021 566.362 107.617 565.477 107.617C564.773 107.617 564.224 107.891 563.828 108.438C563.432 108.984 563.234 109.794 563.234 110.867Z" fill="#2097F6"/>
<rect x="471.5" y="78.5" width="139" height="62" rx="7.5" stroke="#2097F6"/>
</g>
<rect x="1031" y="47" width="179" height="209" rx="10" fill="#E7F4FF"/>
<path d="M1046.75 62.0078L1050 52.625H1051.64L1047.42 64H1046.09L1041.88 52.625H1043.52L1046.75 62.0078ZM1057.8 64C1057.72 63.8333 1057.65 63.5365 1057.6 63.1094C1056.93 63.8073 1056.13 64.1562 1055.2 64.1562C1054.36 64.1562 1053.68 63.9219 1053.14 63.4531C1052.61 62.9792 1052.34 62.3802 1052.34 61.6562C1052.34 60.776 1052.68 60.0938 1053.34 59.6094C1054.02 59.1198 1054.96 58.875 1056.17 58.875H1057.58V58.2109C1057.58 57.7057 1057.43 57.3047 1057.12 57.0078C1056.82 56.7057 1056.38 56.5547 1055.79 56.5547C1055.27 56.5547 1054.84 56.6849 1054.49 56.9453C1054.14 57.2057 1053.97 57.5208 1053.97 57.8906H1052.52C1052.52 57.4688 1052.66 57.0625 1052.96 56.6719C1053.26 56.276 1053.67 55.9635 1054.18 55.7344C1054.7 55.5052 1055.26 55.3906 1055.88 55.3906C1056.85 55.3906 1057.61 55.6354 1058.16 56.125C1058.72 56.6094 1059 57.2786 1059.02 58.1328V62.0234C1059.02 62.7995 1059.12 63.4167 1059.32 63.875V64H1057.8ZM1055.41 62.8984C1055.86 62.8984 1056.29 62.7812 1056.7 62.5469C1057.1 62.3125 1057.4 62.0078 1057.58 61.6328V59.8984H1056.45C1054.67 59.8984 1053.79 60.4167 1053.79 61.4531C1053.79 61.9062 1053.94 62.2604 1054.24 62.5156C1054.54 62.7708 1054.93 62.8984 1055.41 62.8984ZM1062.86 64H1061.41V52H1062.86V64ZM1066.75 64H1065.3V55.5469H1066.75V64ZM1065.19 53.3047C1065.19 53.0703 1065.26 52.8724 1065.4 52.7109C1065.54 52.5495 1065.76 52.4688 1066.04 52.4688C1066.32 52.4688 1066.53 52.5495 1066.68 52.7109C1066.83 52.8724 1066.9 53.0703 1066.9 53.3047C1066.9 53.5391 1066.83 53.7344 1066.68 53.8906C1066.53 54.0469 1066.32 54.125 1066.04 54.125C1065.76 54.125 1065.54 54.0469 1065.4 53.8906C1065.26 53.7344 1065.19 53.5391 1065.19 53.3047ZM1068.72 59.7031C1068.72 58.4062 1069.03 57.3646 1069.64 56.5781C1070.26 55.7865 1071.06 55.3906 1072.05 55.3906C1073.04 55.3906 1073.83 55.7292 1074.41 56.4062V52H1075.85V64H1074.52L1074.45 63.0938C1073.88 63.8021 1073.07 64.1562 1072.04 64.1562C1071.06 64.1562 1070.26 63.7552 1069.64 62.9531C1069.03 62.151 1068.72 61.1042 1068.72 59.8125V59.7031ZM1070.16 59.8672C1070.16 60.8255 1070.36 61.5755 1070.76 62.1172C1071.15 62.6589 1071.7 62.9297 1072.4 62.9297C1073.32 62.9297 1073.98 62.5182 1074.41 61.6953V57.8125C1073.97 57.0156 1073.31 56.6172 1072.41 56.6172C1071.71 56.6172 1071.15 56.8906 1070.76 57.4375C1070.36 57.9844 1070.16 58.7943 1070.16 59.8672ZM1083.32 64C1083.24 63.8333 1083.17 63.5365 1083.12 63.1094C1082.45 63.8073 1081.64 64.1562 1080.71 64.1562C1079.88 64.1562 1079.19 63.9219 1078.66 63.4531C1078.12 62.9792 1077.86 62.3802 1077.86 61.6562C1077.86 60.776 1078.19 60.0938 1078.86 59.6094C1079.53 59.1198 1080.47 58.875 1081.69 58.875H1083.09V58.2109C1083.09 57.7057 1082.94 57.3047 1082.64 57.0078C1082.34 56.7057 1081.89 56.5547 1081.3 56.5547C1080.79 56.5547 1080.36 56.6849 1080.01 56.9453C1079.66 57.2057 1079.48 57.5208 1079.48 57.8906H1078.03C1078.03 57.4688 1078.18 57.0625 1078.48 56.6719C1078.78 56.276 1079.18 55.9635 1079.7 55.7344C1080.21 55.5052 1080.78 55.3906 1081.39 55.3906C1082.36 55.3906 1083.13 55.6354 1083.68 56.125C1084.23 56.6094 1084.52 57.2786 1084.54 58.1328V62.0234C1084.54 62.7995 1084.64 63.4167 1084.84 63.875V64H1083.32ZM1080.92 62.8984C1081.38 62.8984 1081.8 62.7812 1082.21 62.5469C1082.62 62.3125 1082.91 62.0078 1083.09 61.6328V59.8984H1081.96C1080.19 59.8984 1079.3 60.4167 1079.3 61.4531C1079.3 61.9062 1079.46 62.2604 1079.76 62.5156C1080.06 62.7708 1080.45 62.8984 1080.92 62.8984ZM1088.77 53.5V55.5469H1090.34V56.6641H1088.77V61.9062C1088.77 62.2448 1088.84 62.5 1088.98 62.6719C1089.12 62.8385 1089.36 62.9219 1089.7 62.9219C1089.86 62.9219 1090.09 62.8906 1090.38 62.8281V64C1090 64.1042 1089.63 64.1562 1089.27 64.1562C1088.63 64.1562 1088.14 63.9609 1087.81 63.5703C1087.48 63.1797 1087.32 62.625 1087.32 61.9062V56.6641H1085.78V55.5469H1087.32V53.5H1088.77ZM1091.5 59.6953C1091.5 58.8672 1091.66 58.1224 1091.98 57.4609C1092.31 56.7995 1092.77 56.2891 1093.34 55.9297C1093.93 55.5703 1094.59 55.3906 1095.34 55.3906C1096.49 55.3906 1097.42 55.7891 1098.12 56.5859C1098.84 57.3828 1099.2 58.4427 1099.2 59.7656V59.8672C1099.2 60.6901 1099.04 61.4297 1098.72 62.0859C1098.41 62.737 1097.96 63.2448 1097.37 63.6094C1096.78 63.974 1096.11 64.1562 1095.35 64.1562C1094.21 64.1562 1093.28 63.7578 1092.56 62.9609C1091.85 62.1641 1091.5 61.1094 1091.5 59.7969V59.6953ZM1092.95 59.8672C1092.95 60.8047 1093.17 61.5573 1093.6 62.125C1094.04 62.6927 1094.62 62.9766 1095.35 62.9766C1096.09 62.9766 1096.67 62.6901 1097.1 62.1172C1097.53 61.5391 1097.75 60.7318 1097.75 59.6953C1097.75 58.7682 1097.53 58.0182 1097.09 57.4453C1096.65 56.8672 1096.07 56.5781 1095.34 56.5781C1094.62 56.5781 1094.05 56.862 1093.61 57.4297C1093.17 57.9974 1092.95 58.8099 1092.95 59.8672ZM1105.09 56.8438C1104.88 56.8073 1104.64 56.7891 1104.38 56.7891C1103.43 56.7891 1102.79 57.1927 1102.45 58V64H1101.01V55.5469H1102.41L1102.44 56.5234C1102.91 55.7682 1103.58 55.3906 1104.45 55.3906C1104.73 55.3906 1104.95 55.4271 1105.09 55.5V56.8438Z" fill="#2097F6"/>
<g filter="url(#filter7_d)">
<rect x="1051" y="75" width="140" height="63" rx="8" fill="white"/>
<path d="M1085.81 109.031H1081.05L1079.98 112H1078.43L1082.77 100.625H1084.09L1088.44 112H1086.9L1085.81 109.031ZM1081.5 107.797H1085.37L1083.43 102.477L1081.5 107.797ZM1096.88 107.867C1096.88 109.154 1096.59 110.19 1096 110.977C1095.41 111.763 1094.61 112.156 1093.61 112.156C1092.58 112.156 1091.78 111.831 1091.19 111.18V115.25H1089.74V103.547H1091.06L1091.13 104.484C1091.72 103.755 1092.54 103.391 1093.59 103.391C1094.6 103.391 1095.4 103.773 1095.99 104.539C1096.59 105.305 1096.88 106.37 1096.88 107.734V107.867ZM1095.44 107.703C1095.44 106.75 1095.23 105.997 1094.83 105.445C1094.42 104.893 1093.86 104.617 1093.16 104.617C1092.28 104.617 1091.62 105.005 1091.19 105.781V109.82C1091.62 110.591 1092.28 110.977 1093.17 110.977C1093.86 110.977 1094.41 110.703 1094.82 110.156C1095.23 109.604 1095.44 108.786 1095.44 107.703ZM1105.87 107.867C1105.87 109.154 1105.57 110.19 1104.98 110.977C1104.4 111.763 1103.6 112.156 1102.59 112.156C1101.57 112.156 1100.76 111.831 1100.17 111.18V115.25H1098.73V103.547H1100.05L1100.12 104.484C1100.71 103.755 1101.52 103.391 1102.57 103.391C1103.59 103.391 1104.39 103.773 1104.98 104.539C1105.57 105.305 1105.87 106.37 1105.87 107.734V107.867ZM1104.42 107.703C1104.42 106.75 1104.22 105.997 1103.81 105.445C1103.41 104.893 1102.85 104.617 1102.14 104.617C1101.27 104.617 1100.61 105.005 1100.17 105.781V109.82C1100.6 110.591 1101.27 110.977 1102.16 110.977C1102.85 110.977 1103.4 110.703 1103.8 110.156C1104.22 109.604 1104.42 108.786 1104.42 107.703ZM1109.28 112H1107.84V100H1109.28V112ZM1114.37 109.883L1116.34 103.547H1117.88L1114.48 113.305C1113.96 114.711 1113.12 115.414 1111.98 115.414L1111.7 115.391L1111.16 115.289V114.117L1111.55 114.148C1112.04 114.148 1112.42 114.049 1112.7 113.852C1112.97 113.654 1113.2 113.292 1113.38 112.766L1113.7 111.906L1110.68 103.547H1112.26L1114.37 109.883ZM1125.27 113.18H1118.12V112H1125.27V113.18ZM1133.55 107.867C1133.55 109.159 1133.26 110.198 1132.66 110.984C1132.07 111.766 1131.27 112.156 1130.27 112.156C1129.21 112.156 1128.38 111.779 1127.8 111.023L1127.73 112H1126.4V100H1127.84V104.477C1128.43 103.753 1129.23 103.391 1130.26 103.391C1131.28 103.391 1132.09 103.779 1132.67 104.555C1133.26 105.331 1133.55 106.393 1133.55 107.742V107.867ZM1132.11 107.703C1132.11 106.719 1131.92 105.958 1131.54 105.422C1131.16 104.885 1130.61 104.617 1129.9 104.617C1128.95 104.617 1128.26 105.06 1127.84 105.945V109.602C1128.29 110.487 1128.98 110.93 1129.91 110.93C1130.61 110.93 1131.15 110.661 1131.53 110.125C1131.92 109.589 1132.11 108.781 1132.11 107.703ZM1136.95 112H1135.51V100H1136.95V112ZM1138.89 107.695C1138.89 106.867 1139.05 106.122 1139.38 105.461C1139.7 104.799 1140.16 104.289 1140.73 103.93C1141.32 103.57 1141.98 103.391 1142.73 103.391C1143.88 103.391 1144.81 103.789 1145.52 104.586C1146.23 105.383 1146.59 106.443 1146.59 107.766V107.867C1146.59 108.69 1146.43 109.43 1146.11 110.086C1145.8 110.737 1145.35 111.245 1144.76 111.609C1144.17 111.974 1143.5 112.156 1142.74 112.156C1141.6 112.156 1140.67 111.758 1139.95 110.961C1139.24 110.164 1138.89 109.109 1138.89 107.797V107.695ZM1140.34 107.867C1140.34 108.805 1140.56 109.557 1140.99 110.125C1141.43 110.693 1142.01 110.977 1142.74 110.977C1143.48 110.977 1144.06 110.69 1144.49 110.117C1144.92 109.539 1145.14 108.732 1145.14 107.695C1145.14 106.768 1144.92 106.018 1144.48 105.445C1144.04 104.867 1143.46 104.578 1142.73 104.578C1142.01 104.578 1141.44 104.862 1141 105.43C1140.56 105.997 1140.34 106.81 1140.34 107.867ZM1151.79 110.977C1152.3 110.977 1152.76 110.82 1153.14 110.508C1153.53 110.195 1153.74 109.805 1153.78 109.336H1155.15C1155.12 109.82 1154.96 110.281 1154.65 110.719C1154.34 111.156 1153.93 111.505 1153.41 111.766C1152.9 112.026 1152.36 112.156 1151.79 112.156C1150.64 112.156 1149.72 111.773 1149.04 111.008C1148.36 110.237 1148.02 109.185 1148.02 107.852V107.609C1148.02 106.786 1148.17 106.055 1148.48 105.414C1148.78 104.773 1149.21 104.276 1149.77 103.922C1150.34 103.568 1151.01 103.391 1151.78 103.391C1152.73 103.391 1153.52 103.674 1154.14 104.242C1154.77 104.81 1155.11 105.547 1155.15 106.453H1153.78C1153.74 105.906 1153.53 105.458 1153.16 105.109C1152.79 104.755 1152.33 104.578 1151.78 104.578C1151.05 104.578 1150.48 104.844 1150.07 105.375C1149.67 105.901 1149.47 106.664 1149.47 107.664V107.938C1149.47 108.911 1149.67 109.661 1150.07 110.188C1150.47 110.714 1151.04 110.977 1151.79 110.977ZM1159.13 108.086L1158.23 109.031V112H1156.78V100H1158.23V107.258L1159 106.328L1161.63 103.547H1163.39L1160.1 107.078L1163.77 112H1162.08L1159.13 108.086Z" fill="#2097F6"/>
<rect x="1051.5" y="75.5" width="139" height="62" rx="7.5" stroke="#2097F6"/>
</g>
<g filter="url(#filter8_d)">
<rect x="1051" y="172" width="140" height="63" rx="8" fill="white"/>
<path d="M1077.64 205.391C1077.5 206.594 1077.05 207.523 1076.3 208.18C1075.56 208.831 1074.57 209.156 1073.33 209.156C1071.98 209.156 1070.91 208.674 1070.09 207.711C1069.29 206.747 1068.88 205.458 1068.88 203.844V202.75C1068.88 201.693 1069.07 200.763 1069.45 199.961C1069.83 199.159 1070.36 198.544 1071.05 198.117C1071.75 197.685 1072.55 197.469 1073.46 197.469C1074.67 197.469 1075.64 197.807 1076.37 198.484C1077.1 199.156 1077.52 200.089 1077.64 201.281H1076.13C1076 200.375 1075.72 199.719 1075.28 199.312C1074.85 198.906 1074.24 198.703 1073.46 198.703C1072.5 198.703 1071.75 199.057 1071.2 199.766C1070.66 200.474 1070.39 201.482 1070.39 202.789V203.891C1070.39 205.125 1070.65 206.107 1071.16 206.836C1071.68 207.565 1072.4 207.93 1073.33 207.93C1074.16 207.93 1074.8 207.742 1075.24 207.367C1075.69 206.987 1075.99 206.328 1076.13 205.391H1077.64ZM1080.91 201.57C1081.55 200.784 1082.39 200.391 1083.41 200.391C1085.2 200.391 1086.1 201.398 1086.12 203.414V209H1084.67V203.406C1084.67 202.797 1084.53 202.346 1084.25 202.055C1083.98 201.763 1083.55 201.617 1082.98 201.617C1082.51 201.617 1082.1 201.742 1081.74 201.992C1081.39 202.242 1081.11 202.57 1080.91 202.977V209H1079.47V197H1080.91V201.57ZM1093.5 209C1093.42 208.833 1093.35 208.536 1093.3 208.109C1092.62 208.807 1091.82 209.156 1090.89 209.156C1090.06 209.156 1089.37 208.922 1088.84 208.453C1088.3 207.979 1088.04 207.38 1088.04 206.656C1088.04 205.776 1088.37 205.094 1089.04 204.609C1089.71 204.12 1090.65 203.875 1091.87 203.875H1093.27V203.211C1093.27 202.706 1093.12 202.305 1092.82 202.008C1092.52 201.706 1092.07 201.555 1091.48 201.555C1090.97 201.555 1090.54 201.685 1090.19 201.945C1089.84 202.206 1089.66 202.521 1089.66 202.891H1088.21C1088.21 202.469 1088.36 202.062 1088.66 201.672C1088.96 201.276 1089.36 200.964 1089.88 200.734C1090.39 200.505 1090.96 200.391 1091.57 200.391C1092.54 200.391 1093.31 200.635 1093.86 201.125C1094.41 201.609 1094.7 202.279 1094.72 203.133V207.023C1094.72 207.799 1094.82 208.417 1095.02 208.875V209H1093.5ZM1091.1 207.898C1091.55 207.898 1091.98 207.781 1092.39 207.547C1092.8 207.312 1093.09 207.008 1093.27 206.633V204.898H1092.14C1090.37 204.898 1089.48 205.417 1089.48 206.453C1089.48 206.906 1089.64 207.26 1089.94 207.516C1090.24 207.771 1090.63 207.898 1091.1 207.898ZM1098.55 209H1097.11V200.547H1098.55V209ZM1096.99 198.305C1096.99 198.07 1097.06 197.872 1097.2 197.711C1097.35 197.549 1097.56 197.469 1097.84 197.469C1098.12 197.469 1098.34 197.549 1098.48 197.711C1098.63 197.872 1098.7 198.07 1098.7 198.305C1098.7 198.539 1098.63 198.734 1098.48 198.891C1098.34 199.047 1098.12 199.125 1097.84 199.125C1097.56 199.125 1097.35 199.047 1097.2 198.891C1097.06 198.734 1096.99 198.539 1096.99 198.305ZM1102.24 200.547L1102.29 201.609C1102.93 200.797 1103.78 200.391 1104.82 200.391C1106.61 200.391 1107.51 201.398 1107.52 203.414V209H1106.08V203.406C1106.07 202.797 1105.93 202.346 1105.66 202.055C1105.39 201.763 1104.96 201.617 1104.38 201.617C1103.91 201.617 1103.5 201.742 1103.15 201.992C1102.79 202.242 1102.52 202.57 1102.32 202.977V209H1100.88V200.547H1102.24ZM1116.46 207.039L1118.55 200.547H1120.03L1117 209H1115.9L1112.84 200.547H1114.31L1116.46 207.039ZM1126.52 209C1126.43 208.833 1126.36 208.536 1126.31 208.109C1125.64 208.807 1124.84 209.156 1123.91 209.156C1123.07 209.156 1122.39 208.922 1121.85 208.453C1121.32 207.979 1121.05 207.38 1121.05 206.656C1121.05 205.776 1121.39 205.094 1122.05 204.609C1122.73 204.12 1123.67 203.875 1124.88 203.875H1126.29V203.211C1126.29 202.706 1126.14 202.305 1125.84 202.008C1125.53 201.706 1125.09 201.555 1124.5 201.555C1123.98 201.555 1123.55 201.685 1123.2 201.945C1122.85 202.206 1122.68 202.521 1122.68 202.891H1121.23C1121.23 202.469 1121.38 202.062 1121.67 201.672C1121.97 201.276 1122.38 200.964 1122.89 200.734C1123.41 200.505 1123.97 200.391 1124.59 200.391C1125.56 200.391 1126.32 200.635 1126.88 201.125C1127.43 201.609 1127.71 202.279 1127.73 203.133V207.023C1127.73 207.799 1127.83 208.417 1128.03 208.875V209H1126.52ZM1124.12 207.898C1124.57 207.898 1125 207.781 1125.41 207.547C1125.81 207.312 1126.11 207.008 1126.29 206.633V204.898H1125.16C1123.39 204.898 1122.5 205.417 1122.5 206.453C1122.5 206.906 1122.65 207.26 1122.95 207.516C1123.26 207.771 1123.64 207.898 1124.12 207.898ZM1131.57 209H1130.12V197H1131.57V209ZM1135.46 209H1134.02V200.547H1135.46V209ZM1133.9 198.305C1133.9 198.07 1133.97 197.872 1134.11 197.711C1134.26 197.549 1134.47 197.469 1134.75 197.469C1135.03 197.469 1135.24 197.549 1135.39 197.711C1135.54 197.872 1135.61 198.07 1135.61 198.305C1135.61 198.539 1135.54 198.734 1135.39 198.891C1135.24 199.047 1135.03 199.125 1134.75 199.125C1134.47 199.125 1134.26 199.047 1134.11 198.891C1133.97 198.734 1133.9 198.539 1133.9 198.305ZM1137.43 204.703C1137.43 203.406 1137.74 202.365 1138.35 201.578C1138.97 200.786 1139.77 200.391 1140.77 200.391C1141.76 200.391 1142.54 200.729 1143.12 201.406V197H1144.56V209H1143.23L1143.16 208.094C1142.59 208.802 1141.78 209.156 1140.75 209.156C1139.77 209.156 1138.97 208.755 1138.35 207.953C1137.74 207.151 1137.43 206.104 1137.43 204.812V204.703ZM1138.88 204.867C1138.88 205.826 1139.07 206.576 1139.47 207.117C1139.86 207.659 1140.41 207.93 1141.11 207.93C1142.03 207.93 1142.7 207.518 1143.12 206.695V202.812C1142.68 202.016 1142.02 201.617 1141.12 201.617C1140.42 201.617 1139.86 201.891 1139.47 202.438C1139.07 202.984 1138.88 203.794 1138.88 204.867ZM1152.03 209C1151.95 208.833 1151.88 208.536 1151.83 208.109C1151.16 208.807 1150.35 209.156 1149.42 209.156C1148.59 209.156 1147.9 208.922 1147.37 208.453C1146.84 207.979 1146.57 207.38 1146.57 206.656C1146.57 205.776 1146.9 205.094 1147.57 204.609C1148.24 204.12 1149.18 203.875 1150.4 203.875H1151.8V203.211C1151.8 202.706 1151.65 202.305 1151.35 202.008C1151.05 201.706 1150.6 201.555 1150.02 201.555C1149.5 201.555 1149.07 201.685 1148.72 201.945C1148.37 202.206 1148.2 202.521 1148.2 202.891H1146.74C1146.74 202.469 1146.89 202.062 1147.19 201.672C1147.49 201.276 1147.9 200.964 1148.41 200.734C1148.92 200.505 1149.49 200.391 1150.1 200.391C1151.08 200.391 1151.84 200.635 1152.39 201.125C1152.94 201.609 1153.23 202.279 1153.25 203.133V207.023C1153.25 207.799 1153.35 208.417 1153.55 208.875V209H1152.03ZM1149.63 207.898C1150.09 207.898 1150.52 207.781 1150.92 207.547C1151.33 207.312 1151.62 207.008 1151.8 206.633V204.898H1150.67C1148.9 204.898 1148.02 205.417 1148.02 206.453C1148.02 206.906 1148.17 207.26 1148.47 207.516C1148.77 207.771 1149.16 207.898 1149.63 207.898ZM1157.48 198.5V200.547H1159.05V201.664H1157.48V206.906C1157.48 207.245 1157.55 207.5 1157.69 207.672C1157.83 207.839 1158.07 207.922 1158.41 207.922C1158.57 207.922 1158.8 207.891 1159.09 207.828V209C1158.71 209.104 1158.34 209.156 1157.98 209.156C1157.34 209.156 1156.85 208.961 1156.52 208.57C1156.2 208.18 1156.03 207.625 1156.03 206.906V201.664H1154.49V200.547H1156.03V198.5H1157.48ZM1160.21 204.695C1160.21 203.867 1160.37 203.122 1160.7 202.461C1161.02 201.799 1161.48 201.289 1162.05 200.93C1162.64 200.57 1163.3 200.391 1164.05 200.391C1165.2 200.391 1166.13 200.789 1166.84 201.586C1167.55 202.383 1167.91 203.443 1167.91 204.766V204.867C1167.91 205.69 1167.75 206.43 1167.43 207.086C1167.12 207.737 1166.67 208.245 1166.08 208.609C1165.49 208.974 1164.82 209.156 1164.06 209.156C1162.92 209.156 1161.99 208.758 1161.27 207.961C1160.57 207.164 1160.21 206.109 1160.21 204.797V204.695ZM1161.66 204.867C1161.66 205.805 1161.88 206.557 1162.31 207.125C1162.75 207.693 1163.33 207.977 1164.06 207.977C1164.8 207.977 1165.38 207.69 1165.81 207.117C1166.24 206.539 1166.46 205.732 1166.46 204.695C1166.46 203.768 1166.24 203.018 1165.8 202.445C1165.36 201.867 1164.78 201.578 1164.05 201.578C1163.33 201.578 1162.76 201.862 1162.32 202.43C1161.88 202.997 1161.66 203.81 1161.66 204.867ZM1173.8 201.844C1173.59 201.807 1173.35 201.789 1173.09 201.789C1172.15 201.789 1171.5 202.193 1171.16 203V209H1169.72V200.547H1171.12L1171.15 201.523C1171.62 200.768 1172.29 200.391 1173.16 200.391C1173.45 200.391 1173.66 200.427 1173.8 200.5V201.844Z" fill="#2097F6"/>
<rect x="1051.5" y="172.5" width="139" height="62" rx="7.5" stroke="#2097F6"/>
</g>
<path fill-rule="evenodd" clip-rule="evenodd" d="M1120 169.198L1127.29 161.321C1127.67 160.915 1128.3 160.891 1128.7 161.266C1129.11 161.641 1129.13 162.274 1128.76 162.679L1119.5 172.679C1119.31 172.887 1119.04 173.004 1118.76 173C1118.47 172.996 1118.2 172.872 1118.02 172.659L1109.25 162.659C1108.88 162.244 1108.93 161.612 1109.34 161.248C1109.76 160.884 1110.39 160.925 1110.75 161.341L1118 169.606V138H1120V169.198Z" fill="#2097F6"/>
<path fill-rule="evenodd" clip-rule="evenodd" d="M1030.5 151.357L1030.68 151.523C1030.89 151.715 1031 151.987 1031 152.27C1031 152.553 1030.87 152.822 1030.66 153.008L1020.66 161.778C1020.24 162.142 1019.61 162.1 1019.25 161.685C1018.88 161.27 1018.93 160.638 1019.34 160.274L1027.61 153.026L990 153.026V151.026L1027.2 151.026L1019.32 143.734C1018.92 143.359 1018.89 142.726 1019.27 142.321C1019.64 141.915 1020.27 141.891 1020.68 142.266L1030.14 151.026H1030.5V151.357Z" fill="#2097F6"/>
<path fill-rule="evenodd" clip-rule="evenodd" d="M849.5 151.357L849.679 151.523C849.887 151.715 850.004 151.987 850 152.27C849.996 152.553 849.872 152.822 849.659 153.008L839.659 161.778C839.244 162.142 838.612 162.1 838.248 161.685C837.884 161.27 837.925 160.638 838.341 160.274L846.606 153.026H809V151.026H846.198L838.321 143.734C837.915 143.359 837.891 142.726 838.266 142.321C838.641 141.915 839.274 141.891 839.679 142.266L849.142 151.026H849.5V151.357Z" fill="#2097F6"/>
<g filter="url(#filter9_d)">
<rect x="1294" y="160" width="316" height="126" rx="8" fill="#E7F4FF"/>
<path d="M1407.47 270.031H1402.7L1401.63 273H1400.09L1404.43 261.625H1405.74L1410.09 273H1408.55L1407.47 270.031ZM1403.16 268.797H1407.02L1405.09 263.477L1403.16 268.797ZM1411.05 268.703C1411.05 267.406 1411.35 266.365 1411.97 265.578C1412.58 264.786 1413.39 264.391 1414.38 264.391C1415.37 264.391 1416.16 264.729 1416.73 265.406V261H1418.18V273H1416.85L1416.78 272.094C1416.2 272.802 1415.4 273.156 1414.37 273.156C1413.39 273.156 1412.59 272.755 1411.97 271.953C1411.35 271.151 1411.05 270.104 1411.05 268.812V268.703ZM1412.49 268.867C1412.49 269.826 1412.69 270.576 1413.09 271.117C1413.48 271.659 1414.03 271.93 1414.73 271.93C1415.64 271.93 1416.31 271.518 1416.73 270.695V266.812C1416.3 266.016 1415.64 265.617 1414.74 265.617C1414.03 265.617 1413.48 265.891 1413.09 266.438C1412.69 266.984 1412.49 267.794 1412.49 268.867ZM1420.08 268.703C1420.08 267.406 1420.39 266.365 1421 265.578C1421.61 264.786 1422.42 264.391 1423.41 264.391C1424.4 264.391 1425.19 264.729 1425.77 265.406V261H1427.21V273H1425.88L1425.81 272.094C1425.23 272.802 1424.43 273.156 1423.4 273.156C1422.42 273.156 1421.62 272.755 1421 271.953C1420.39 271.151 1420.08 270.104 1420.08 268.812V268.703ZM1421.52 268.867C1421.52 269.826 1421.72 270.576 1422.12 271.117C1422.51 271.659 1423.06 271.93 1423.76 271.93C1424.67 271.93 1425.34 271.518 1425.77 270.695V266.812C1425.33 266.016 1424.67 265.617 1423.77 265.617C1423.07 265.617 1422.51 265.891 1422.12 266.438C1421.72 266.984 1421.52 267.794 1421.52 268.867ZM1434.8 264.547L1434.84 265.609C1435.49 264.797 1436.33 264.391 1437.38 264.391C1439.16 264.391 1440.06 265.398 1440.08 267.414V273H1438.63V267.406C1438.63 266.797 1438.49 266.346 1438.21 266.055C1437.94 265.763 1437.52 265.617 1436.94 265.617C1436.47 265.617 1436.06 265.742 1435.7 265.992C1435.35 266.242 1435.07 266.57 1434.88 266.977V273H1433.43V264.547H1434.8ZM1445.77 273.156C1444.62 273.156 1443.69 272.781 1442.97 272.031C1442.25 271.276 1441.89 270.268 1441.89 269.008V268.742C1441.89 267.904 1442.05 267.156 1442.37 266.5C1442.69 265.839 1443.14 265.323 1443.71 264.953C1444.29 264.578 1444.91 264.391 1445.59 264.391C1446.68 264.391 1447.54 264.753 1448.15 265.477C1448.76 266.201 1449.06 267.237 1449.06 268.586V269.188H1443.34C1443.36 270.021 1443.6 270.695 1444.06 271.211C1444.53 271.721 1445.12 271.977 1445.84 271.977C1446.35 271.977 1446.79 271.872 1447.14 271.664C1447.49 271.456 1447.8 271.18 1448.07 270.836L1448.95 271.523C1448.24 272.612 1447.18 273.156 1445.77 273.156ZM1445.59 265.578C1445 265.578 1444.51 265.792 1444.12 266.219C1443.72 266.641 1443.48 267.234 1443.38 268H1447.62V267.891C1447.58 267.156 1447.38 266.589 1447.02 266.188C1446.67 265.781 1446.19 265.578 1445.59 265.578ZM1458.23 271.008L1459.85 264.547H1461.3L1458.84 273H1457.66L1455.61 266.594L1453.61 273H1452.44L1449.98 264.547H1451.42L1453.09 270.875L1455.05 264.547H1456.22L1458.23 271.008ZM1473.9 268.867C1473.9 270.159 1473.6 271.198 1473.01 271.984C1472.41 272.766 1471.62 273.156 1470.62 273.156C1469.55 273.156 1468.72 272.779 1468.14 272.023L1468.07 273H1466.74V261H1468.19V265.477C1468.77 264.753 1469.58 264.391 1470.6 264.391C1471.63 264.391 1472.43 264.779 1473.02 265.555C1473.6 266.331 1473.9 267.393 1473.9 268.742V268.867ZM1472.45 268.703C1472.45 267.719 1472.26 266.958 1471.88 266.422C1471.5 265.885 1470.96 265.617 1470.24 265.617C1469.29 265.617 1468.6 266.06 1468.19 266.945V270.602C1468.63 271.487 1469.32 271.93 1470.26 271.93C1470.95 271.93 1471.49 271.661 1471.88 271.125C1472.26 270.589 1472.45 269.781 1472.45 268.703ZM1477.3 273H1475.85V261H1477.3V273ZM1479.23 268.695C1479.23 267.867 1479.4 267.122 1479.72 266.461C1480.05 265.799 1480.5 265.289 1481.08 264.93C1481.66 264.57 1482.33 264.391 1483.07 264.391C1484.22 264.391 1485.15 264.789 1485.86 265.586C1486.57 266.383 1486.93 267.443 1486.93 268.766V268.867C1486.93 269.69 1486.77 270.43 1486.45 271.086C1486.14 271.737 1485.69 272.245 1485.1 272.609C1484.52 272.974 1483.85 273.156 1483.09 273.156C1481.94 273.156 1481.01 272.758 1480.3 271.961C1479.59 271.164 1479.23 270.109 1479.23 268.797V268.695ZM1480.69 268.867C1480.69 269.805 1480.9 270.557 1481.34 271.125C1481.77 271.693 1482.36 271.977 1483.09 271.977C1483.82 271.977 1484.4 271.69 1484.84 271.117C1485.27 270.539 1485.48 269.732 1485.48 268.695C1485.48 267.768 1485.26 267.018 1484.82 266.445C1484.38 265.867 1483.8 265.578 1483.07 265.578C1482.36 265.578 1481.78 265.862 1481.34 266.43C1480.91 266.997 1480.69 267.81 1480.69 268.867ZM1492.13 271.977C1492.65 271.977 1493.1 271.82 1493.48 271.508C1493.87 271.195 1494.08 270.805 1494.12 270.336H1495.49C1495.47 270.82 1495.3 271.281 1494.99 271.719C1494.68 272.156 1494.27 272.505 1493.76 272.766C1493.25 273.026 1492.71 273.156 1492.13 273.156C1490.98 273.156 1490.07 272.773 1489.38 272.008C1488.71 271.237 1488.37 270.185 1488.37 268.852V268.609C1488.37 267.786 1488.52 267.055 1488.82 266.414C1489.12 265.773 1489.55 265.276 1490.12 264.922C1490.68 264.568 1491.35 264.391 1492.12 264.391C1493.07 264.391 1493.86 264.674 1494.48 265.242C1495.11 265.81 1495.45 266.547 1495.49 267.453H1494.12C1494.08 266.906 1493.88 266.458 1493.5 266.109C1493.13 265.755 1492.67 265.578 1492.12 265.578C1491.39 265.578 1490.82 265.844 1490.41 266.375C1490.01 266.901 1489.81 267.664 1489.81 268.664V268.938C1489.81 269.911 1490.01 270.661 1490.41 271.188C1490.82 271.714 1491.39 271.977 1492.13 271.977ZM1499.48 269.086L1498.57 270.031V273H1497.12V261H1498.57V268.258L1499.34 267.328L1501.98 264.547H1503.73L1500.45 268.078L1504.12 273H1502.42L1499.48 269.086Z" fill="#2097F6"/>
<path d="M1566.03 176L1556.77 186L1548 176" stroke="#2097F6" stroke-width="2" stroke-linecap="round" stroke-linejoin="round"/>
<g filter="url(#filter10_d)">
<rect x="1532" y="187" width="50" height="50" rx="8" fill="#EEEEFF"/>
<rect x="1532.5" y="187.5" width="49" height="49" rx="7.5" stroke="#5452F6"/>
</g>
<g filter="url(#filter11_d)">
<rect x="1460" y="187" width="50" height="50" rx="8" fill="#EEEEFF"/>
<rect x="1460.5" y="187.5" width="49" height="49" rx="7.5" stroke="#5452F6"/>
</g>
<g filter="url(#filter12_d)">
<rect x="1388" y="187" width="50" height="50" rx="8" fill="#EEEEFF"/>
<rect x="1388.5" y="187.5" width="49" height="49" rx="7.5" stroke="#5452F6"/>
</g>
<g filter="url(#filter13_d)">
<rect x="1316" y="187" width="50" height="50" rx="8" fill="#EEEEFF"/>
<rect x="1316.5" y="187.5" width="49" height="49" rx="7.5" stroke="#5452F6"/>
</g>
<line x1="1514" y1="213.5" x2="1530" y2="213.5" stroke="#5452F6" stroke-width="2"/>
<path d="M1520 204L1530.5 213.5L1520 222.5" stroke="#5452F6" stroke-width="2" stroke-linecap="round" stroke-linejoin="round"/>
<line x1="1442" y1="213.5" x2="1458" y2="213.5" stroke="#5452F6" stroke-width="2"/>
<path d="M1448 204L1458.5 213.5L1448 222.5" stroke="#5452F6" stroke-width="2" stroke-linecap="round" stroke-linejoin="round"/>
<line x1="1370" y1="213.5" x2="1386" y2="213.5" stroke="#5452F6" stroke-width="2"/>
<path d="M1376 204L1386.5 213.5L1376 222.5" stroke="#5452F6" stroke-width="2" stroke-linecap="round" stroke-linejoin="round"/>
<rect x="1294.5" y="160.5" width="315" height="125" rx="7.5" stroke="#2097F6"/>
</g>
<path fill-rule="evenodd" clip-rule="evenodd" d="M213.5 152.357L213.679 152.523C213.887 152.715 214.004 152.987 214 153.27C213.996 153.553 213.872 153.822 213.659 154.008L203.659 162.778C203.244 163.142 202.612 163.1 202.248 162.685C201.884 162.27 201.925 161.638 202.341 161.274L210.606 154.026H173V152.026H210.198L202.321 144.734C201.915 144.359 201.891 143.726 202.266 143.321C202.641 142.915 203.274 142.891 203.679 143.266L213.142 152.026H213.5V152.357Z" fill="#2097F6"/>
<g filter="url(#filter14_d)">
<rect x="7.5" y="119" width="162" height="63" rx="8" fill="white"/>
<path d="M63.8906 150.68C63.8906 151.794 63.7031 152.768 63.3281 153.602C62.9531 154.43 62.4219 155.062 61.7344 155.5C61.0469 155.938 60.2448 156.156 59.3281 156.156C58.4323 156.156 57.638 155.938 56.9453 155.5C56.2526 155.057 55.7135 154.43 55.3281 153.617C54.9479 152.799 54.7526 151.854 54.7422 150.781V149.961C54.7422 148.867 54.9323 147.901 55.3125 147.062C55.6927 146.224 56.2292 145.583 56.9219 145.141C57.6198 144.693 58.4167 144.469 59.3125 144.469C60.224 144.469 61.026 144.69 61.7188 145.133C62.4167 145.57 62.9531 146.208 63.3281 147.047C63.7031 147.88 63.8906 148.852 63.8906 149.961V150.68ZM62.3984 149.945C62.3984 148.596 62.1276 147.562 61.5859 146.844C61.0443 146.12 60.2865 145.758 59.3125 145.758C58.3646 145.758 57.6172 146.12 57.0703 146.844C56.5286 147.562 56.25 148.562 56.2344 149.844V150.68C56.2344 151.987 56.5078 153.016 57.0547 153.766C57.6068 154.51 58.3646 154.883 59.3281 154.883C60.2969 154.883 61.0469 154.531 61.5781 153.828C62.1094 153.12 62.3828 152.107 62.3984 150.789V149.945ZM73.0547 151.867C73.0547 153.154 72.7604 154.19 72.1719 154.977C71.5833 155.763 70.7865 156.156 69.7812 156.156C68.7552 156.156 67.9479 155.831 67.3594 155.18V159.25H65.9141V147.547H67.2344L67.3047 148.484C67.8932 147.755 68.7109 147.391 69.7578 147.391C70.7734 147.391 71.5755 147.773 72.1641 148.539C72.7578 149.305 73.0547 150.37 73.0547 151.734V151.867ZM71.6094 151.703C71.6094 150.75 71.4062 149.997 71 149.445C70.5938 148.893 70.0365 148.617 69.3281 148.617C68.4531 148.617 67.7969 149.005 67.3594 149.781V153.82C67.7917 154.591 68.4531 154.977 69.3438 154.977C70.0365 154.977 70.5859 154.703 70.9922 154.156C71.4036 153.604 71.6094 152.786 71.6094 151.703ZM78.4062 156.156C77.2604 156.156 76.3281 155.781 75.6094 155.031C74.8906 154.276 74.5312 153.268 74.5312 152.008V151.742C74.5312 150.904 74.6901 150.156 75.0078 149.5C75.3307 148.839 75.7786 148.323 76.3516 147.953C76.9297 147.578 77.5547 147.391 78.2266 147.391C79.3255 147.391 80.1797 147.753 80.7891 148.477C81.3984 149.201 81.7031 150.237 81.7031 151.586V152.188H75.9766C75.9974 153.021 76.2396 153.695 76.7031 154.211C77.1719 154.721 77.7656 154.977 78.4844 154.977C78.9948 154.977 79.4271 154.872 79.7812 154.664C80.1354 154.456 80.4453 154.18 80.7109 153.836L81.5938 154.523C80.8854 155.612 79.8229 156.156 78.4062 156.156ZM78.2266 148.578C77.6432 148.578 77.1536 148.792 76.7578 149.219C76.362 149.641 76.1172 150.234 76.0234 151H80.2578V150.891C80.2161 150.156 80.0182 149.589 79.6641 149.188C79.3099 148.781 78.8307 148.578 78.2266 148.578ZM87.4688 148.844C87.25 148.807 87.013 148.789 86.7578 148.789C85.8099 148.789 85.1667 149.193 84.8281 150V156H83.3828V147.547H84.7891L84.8125 148.523C85.2865 147.768 85.9583 147.391 86.8281 147.391C87.1094 147.391 87.3229 147.427 87.4688 147.5V148.844ZM93.7109 156C93.6276 155.833 93.5599 155.536 93.5078 155.109C92.8359 155.807 92.0339 156.156 91.1016 156.156C90.2682 156.156 89.5833 155.922 89.0469 155.453C88.5156 154.979 88.25 154.38 88.25 153.656C88.25 152.776 88.5833 152.094 89.25 151.609C89.9219 151.12 90.8646 150.875 92.0781 150.875H93.4844V150.211C93.4844 149.706 93.3333 149.305 93.0312 149.008C92.7292 148.706 92.2839 148.555 91.6953 148.555C91.1797 148.555 90.7474 148.685 90.3984 148.945C90.0495 149.206 89.875 149.521 89.875 149.891H88.4219C88.4219 149.469 88.5703 149.062 88.8672 148.672C89.1693 148.276 89.5755 147.964 90.0859 147.734C90.6016 147.505 91.1667 147.391 91.7812 147.391C92.7552 147.391 93.5182 147.635 94.0703 148.125C94.6224 148.609 94.9089 149.279 94.9297 150.133V154.023C94.9297 154.799 95.0286 155.417 95.2266 155.875V156H93.7109ZM91.3125 154.898C91.7656 154.898 92.1953 154.781 92.6016 154.547C93.0078 154.312 93.3021 154.008 93.4844 153.633V151.898H92.3516C90.5807 151.898 89.6953 152.417 89.6953 153.453C89.6953 153.906 89.8464 154.26 90.1484 154.516C90.4505 154.771 90.8385 154.898 91.3125 154.898ZM99.1562 145.5V147.547H100.734V148.664H99.1562V153.906C99.1562 154.245 99.2266 154.5 99.3672 154.672C99.5078 154.839 99.7474 154.922 100.086 154.922C100.253 154.922 100.482 154.891 100.773 154.828V156C100.393 156.104 100.023 156.156 99.6641 156.156C99.0182 156.156 98.5312 155.961 98.2031 155.57C97.875 155.18 97.7109 154.625 97.7109 153.906V148.664H96.1719V147.547H97.7109V145.5H99.1562ZM104 156H102.555V147.547H104V156ZM102.438 145.305C102.438 145.07 102.508 144.872 102.648 144.711C102.794 144.549 103.008 144.469 103.289 144.469C103.57 144.469 103.784 144.549 103.93 144.711C104.076 144.872 104.148 145.07 104.148 145.305C104.148 145.539 104.076 145.734 103.93 145.891C103.784 146.047 103.57 146.125 103.289 146.125C103.008 146.125 102.794 146.047 102.648 145.891C102.508 145.734 102.438 145.539 102.438 145.305ZM105.938 151.695C105.938 150.867 106.099 150.122 106.422 149.461C106.75 148.799 107.203 148.289 107.781 147.93C108.365 147.57 109.029 147.391 109.773 147.391C110.924 147.391 111.854 147.789 112.562 148.586C113.276 149.383 113.633 150.443 113.633 151.766V151.867C113.633 152.69 113.474 153.43 113.156 154.086C112.844 154.737 112.393 155.245 111.805 155.609C111.221 155.974 110.549 156.156 109.789 156.156C108.643 156.156 107.714 155.758 107 154.961C106.292 154.164 105.938 153.109 105.938 151.797V151.695ZM107.391 151.867C107.391 152.805 107.607 153.557 108.039 154.125C108.477 154.693 109.06 154.977 109.789 154.977C110.523 154.977 111.107 154.69 111.539 154.117C111.971 153.539 112.188 152.732 112.188 151.695C112.188 150.768 111.966 150.018 111.523 149.445C111.086 148.867 110.503 148.578 109.773 148.578C109.06 148.578 108.484 148.862 108.047 149.43C107.609 149.997 107.391 150.81 107.391 151.867ZM116.812 147.547L116.859 148.609C117.505 147.797 118.349 147.391 119.391 147.391C121.177 147.391 122.078 148.398 122.094 150.414V156H120.648V150.406C120.643 149.797 120.503 149.346 120.227 149.055C119.956 148.763 119.531 148.617 118.953 148.617C118.484 148.617 118.073 148.742 117.719 148.992C117.365 149.242 117.089 149.57 116.891 149.977V156H115.445V147.547H116.812Z" fill="#2097F6"/>
<rect x="8" y="119.5" width="161" height="62" rx="7.5" stroke="#2097F6"/>
</g>
<path d="M1211 151L1523.5 151C1542 151 1557 165.998 1557 184.5V184.5" stroke="#2097F7" stroke-width="2" stroke-linecap="round" stroke-linejoin="round"/>
<path fill-rule="evenodd" clip-rule="evenodd" d="M668.5 152.357L668.679 152.523C668.887 152.715 669.004 152.987 669 153.27C668.996 153.553 668.872 153.821 668.659 154.008L658.659 162.777C658.244 163.142 657.612 163.1 657.248 162.685C656.884 162.27 656.925 161.638 657.341 161.274L665.606 154.026H628V152.026H665.198L657.321 144.734C656.915 144.359 656.891 143.726 657.266 143.321C657.641 142.915 658.274 142.891 658.679 143.266L668.142 152.026H668.5V152.357Z" fill="#2097F6"/>
<defs>
<filter id="filter0_d" x="241" y="33" width="144" height="67" filterUnits="userSpaceOnUse" color-interpolation-filters="sRGB">
<feFlood flood-opacity="0" result="BackgroundImageFix"/>
<feColorMatrix in="SourceAlpha" type="matrix" values="0 0 0 0 0 0 0 0 0 0 0 0 0 0 0 0 0 0 127 0"/>
<feOffset dx="4" dy="4"/>
<feColorMatrix type="matrix" values="0 0 0 0 0.513733 0 0 0 0 0.767915 0 0 0 0 0.970833 0 0 0 1 0"/>
<feBlend mode="normal" in2="BackgroundImageFix" result="effect1_dropShadow"/>
<feBlend mode="normal" in="SourceGraphic" in2="effect1_dropShadow" result="shape"/>
</filter>
<filter id="filter1_d" x="241" y="120" width="144" height="67" filterUnits="userSpaceOnUse" color-interpolation-filters="sRGB">
<feFlood flood-opacity="0" result="BackgroundImageFix"/>
<feColorMatrix in="SourceAlpha" type="matrix" values="0 0 0 0 0 0 0 0 0 0 0 0 0 0 0 0 0 0 127 0"/>
<feOffset dx="4" dy="4"/>
<feColorMatrix type="matrix" values="0 0 0 0 0.513733 0 0 0 0 0.767915 0 0 0 0 0.970833 0 0 0 1 0"/>
<feBlend mode="normal" in2="BackgroundImageFix" result="effect1_dropShadow"/>
<feBlend mode="normal" in="SourceGraphic" in2="effect1_dropShadow" result="shape"/>
</filter>
<filter id="filter2_d" x="241" y="207" width="144" height="67" filterUnits="userSpaceOnUse" color-interpolation-filters="sRGB">
<feFlood flood-opacity="0" result="BackgroundImageFix"/>
<feColorMatrix in="SourceAlpha" type="matrix" values="0 0 0 0 0 0 0 0 0 0 0 0 0 0 0 0 0 0 127 0"/>
<feOffset dx="4" dy="4"/>
<feColorMatrix type="matrix" values="0 0 0 0 0.513733 0 0 0 0 0.767915 0 0 0 0 0.970833 0 0 0 1 0"/>
<feBlend mode="normal" in2="BackgroundImageFix" result="effect1_dropShadow"/>
<feBlend mode="normal" in="SourceGraphic" in2="effect1_dropShadow" result="shape"/>
</filter>
<filter id="filter3_d" x="669" y="121" width="144" height="67" filterUnits="userSpaceOnUse" color-interpolation-filters="sRGB">
<feFlood flood-opacity="0" result="BackgroundImageFix"/>
<feColorMatrix in="SourceAlpha" type="matrix" values="0 0 0 0 0 0 0 0 0 0 0 0 0 0 0 0 0 0 127 0"/>
<feOffset dx="4" dy="4"/>
<feColorMatrix type="matrix" values="0 0 0 0 0.513733 0 0 0 0 0.767915 0 0 0 0 0.970833 0 0 0 1 0"/>
<feBlend mode="normal" in2="BackgroundImageFix" result="effect1_dropShadow"/>
<feBlend mode="normal" in="SourceGraphic" in2="effect1_dropShadow" result="shape"/>
</filter>
<filter id="filter4_d" x="850" y="121" width="144" height="67" filterUnits="userSpaceOnUse" color-interpolation-filters="sRGB">
<feFlood flood-opacity="0" result="BackgroundImageFix"/>
<feColorMatrix in="SourceAlpha" type="matrix" values="0 0 0 0 0 0 0 0 0 0 0 0 0 0 0 0 0 0 127 0"/>
<feOffset dx="4" dy="4"/>
<feColorMatrix type="matrix" values="0 0 0 0 0.513733 0 0 0 0 0.767915 0 0 0 0 0.970833 0 0 0 1 0"/>
<feBlend mode="normal" in2="BackgroundImageFix" result="effect1_dropShadow"/>
<feBlend mode="normal" in="SourceGraphic" in2="effect1_dropShadow" result="shape"/>
</filter>
<filter id="filter5_d" x="471" y="177" width="144" height="67" filterUnits="userSpaceOnUse" color-interpolation-filters="sRGB">
<feFlood flood-opacity="0" result="BackgroundImageFix"/>
<feColorMatrix in="SourceAlpha" type="matrix" values="0 0 0 0 0 0 0 0 0 0 0 0 0 0 0 0 0 0 127 0"/>
<feOffset dx="4" dy="4"/>
<feColorMatrix type="matrix" values="0 0 0 0 0.513733 0 0 0 0 0.767915 0 0 0 0 0.970833 0 0 0 1 0"/>
<feBlend mode="normal" in2="BackgroundImageFix" result="effect1_dropShadow"/>
<feBlend mode="normal" in="SourceGraphic" in2="effect1_dropShadow" result="shape"/>
</filter>
<filter id="filter6_d" x="471" y="78" width="144" height="67" filterUnits="userSpaceOnUse" color-interpolation-filters="sRGB">
<feFlood flood-opacity="0" result="BackgroundImageFix"/>
<feColorMatrix in="SourceAlpha" type="matrix" values="0 0 0 0 0 0 0 0 0 0 0 0 0 0 0 0 0 0 127 0"/>
<feOffset dx="4" dy="4"/>
<feColorMatrix type="matrix" values="0 0 0 0 0.513733 0 0 0 0 0.767915 0 0 0 0 0.970833 0 0 0 1 0"/>
<feBlend mode="normal" in2="BackgroundImageFix" result="effect1_dropShadow"/>
<feBlend mode="normal" in="SourceGraphic" in2="effect1_dropShadow" result="shape"/>
</filter>
<filter id="filter7_d" x="1051" y="75" width="144" height="67" filterUnits="userSpaceOnUse" color-interpolation-filters="sRGB">
<feFlood flood-opacity="0" result="BackgroundImageFix"/>
<feColorMatrix in="SourceAlpha" type="matrix" values="0 0 0 0 0 0 0 0 0 0 0 0 0 0 0 0 0 0 127 0"/>
<feOffset dx="4" dy="4"/>
<feColorMatrix type="matrix" values="0 0 0 0 0.513733 0 0 0 0 0.767915 0 0 0 0 0.970833 0 0 0 1 0"/>
<feBlend mode="normal" in2="BackgroundImageFix" result="effect1_dropShadow"/>
<feBlend mode="normal" in="SourceGraphic" in2="effect1_dropShadow" result="shape"/>
</filter>
<filter id="filter8_d" x="1051" y="172" width="144" height="67" filterUnits="userSpaceOnUse" color-interpolation-filters="sRGB">
<feFlood flood-opacity="0" result="BackgroundImageFix"/>
<feColorMatrix in="SourceAlpha" type="matrix" values="0 0 0 0 0 0 0 0 0 0 0 0 0 0 0 0 0 0 127 0"/>
<feOffset dx="4" dy="4"/>
<feColorMatrix type="matrix" values="0 0 0 0 0.513733 0 0 0 0 0.767915 0 0 0 0 0.970833 0 0 0 1 0"/>
<feBlend mode="normal" in2="BackgroundImageFix" result="effect1_dropShadow"/>
<feBlend mode="normal" in="SourceGraphic" in2="effect1_dropShadow" result="shape"/>
</filter>
<filter id="filter9_d" x="1294" y="160" width="320" height="130" filterUnits="userSpaceOnUse" color-interpolation-filters="sRGB">
<feFlood flood-opacity="0" result="BackgroundImageFix"/>
<feColorMatrix in="SourceAlpha" type="matrix" values="0 0 0 0 0 0 0 0 0 0 0 0 0 0 0 0 0 0 127 0"/>
<feOffset dx="4" dy="4"/>
<feColorMatrix type="matrix" values="0 0 0 0 0.513733 0 0 0 0 0.767915 0 0 0 0 0.970833 0 0 0 1 0"/>
<feBlend mode="normal" in2="BackgroundImageFix" result="effect1_dropShadow"/>
<feBlend mode="normal" in="SourceGraphic" in2="effect1_dropShadow" result="shape"/>
</filter>
<filter id="filter10_d" x="1532" y="187" width="54" height="54" filterUnits="userSpaceOnUse" color-interpolation-filters="sRGB">
<feFlood flood-opacity="0" result="BackgroundImageFix"/>
<feColorMatrix in="SourceAlpha" type="matrix" values="0 0 0 0 0 0 0 0 0 0 0 0 0 0 0 0 0 0 127 0"/>
<feOffset dx="4" dy="4"/>
<feColorMatrix type="matrix" values="0 0 0 0 0.674908 0 0 0 0 0.662083 0 0 0 0 0.945833 0 0 0 1 0"/>
<feBlend mode="normal" in2="BackgroundImageFix" result="effect1_dropShadow"/>
<feBlend mode="normal" in="SourceGraphic" in2="effect1_dropShadow" result="shape"/>
</filter>
<filter id="filter11_d" x="1460" y="187" width="54" height="54" filterUnits="userSpaceOnUse" color-interpolation-filters="sRGB">
<feFlood flood-opacity="0" result="BackgroundImageFix"/>
<feColorMatrix in="SourceAlpha" type="matrix" values="0 0 0 0 0 0 0 0 0 0 0 0 0 0 0 0 0 0 127 0"/>
<feOffset dx="4" dy="4"/>
<feColorMatrix type="matrix" values="0 0 0 0 0.674908 0 0 0 0 0.662083 0 0 0 0 0.945833 0 0 0 1 0"/>
<feBlend mode="normal" in2="BackgroundImageFix" result="effect1_dropShadow"/>
<feBlend mode="normal" in="SourceGraphic" in2="effect1_dropShadow" result="shape"/>
</filter>
<filter id="filter12_d" x="1388" y="187" width="54" height="54" filterUnits="userSpaceOnUse" color-interpolation-filters="sRGB">
<feFlood flood-opacity="0" result="BackgroundImageFix"/>
<feColorMatrix in="SourceAlpha" type="matrix" values="0 0 0 0 0 0 0 0 0 0 0 0 0 0 0 0 0 0 127 0"/>
<feOffset dx="4" dy="4"/>
<feColorMatrix type="matrix" values="0 0 0 0 0.674908 0 0 0 0 0.662083 0 0 0 0 0.945833 0 0 0 1 0"/>
<feBlend mode="normal" in2="BackgroundImageFix" result="effect1_dropShadow"/>
<feBlend mode="normal" in="SourceGraphic" in2="effect1_dropShadow" result="shape"/>
</filter>
<filter id="filter13_d" x="1316" y="187" width="54" height="54" filterUnits="userSpaceOnUse" color-interpolation-filters="sRGB">
<feFlood flood-opacity="0" result="BackgroundImageFix"/>
<feColorMatrix in="SourceAlpha" type="matrix" values="0 0 0 0 0 0 0 0 0 0 0 0 0 0 0 0 0 0 127 0"/>
<feOffset dx="4" dy="4"/>
<feColorMatrix type="matrix" values="0 0 0 0 0.674908 0 0 0 0 0.662083 0 0 0 0 0.945833 0 0 0 1 0"/>
<feBlend mode="normal" in2="BackgroundImageFix" result="effect1_dropShadow"/>
<feBlend mode="normal" in="SourceGraphic" in2="effect1_dropShadow" result="shape"/>
</filter>
<filter id="filter14_d" x="7.5" y="119" width="166" height="67" filterUnits="userSpaceOnUse" color-interpolation-filters="sRGB">
<feFlood flood-opacity="0" result="BackgroundImageFix"/>
<feColorMatrix in="SourceAlpha" type="matrix" values="0 0 0 0 0 0 0 0 0 0 0 0 0 0 0 0 0 0 127 0"/>
<feOffset dx="4" dy="4"/>
<feColorMatrix type="matrix" values="0 0 0 0 0.513733 0 0 0 0 0.767915 0 0 0 0 0.970833 0 0 0 1 0"/>
<feBlend mode="normal" in2="BackgroundImageFix" result="effect1_dropShadow"/>
<feBlend mode="normal" in="SourceGraphic" in2="effect1_dropShadow" result="shape"/>
</filter>
</defs>
</svg>
