<svg width="224" height="256" viewBox="0 0 224 256" fill="none" xmlns="http://www.w3.org/2000/svg">
<g filter="url(#filter0_d)">
<path d="M0 8C0 3.58172 3.58172 0 8 0H212C216.418 0 220 3.58172 220 8V244C220 248.418 216.418 252 212 252H8.00001C3.58173 252 0 248.418 0 244V8Z" fill="white"/>
<path d="M61.5547 31.9297C60.2682 31.5599 59.3307 31.1068 58.7422 30.5703C58.1589 30.0286 57.8672 29.362 57.8672 28.5703C57.8672 27.6745 58.224 26.9349 58.9375 26.3516C59.6562 25.763 60.5885 25.4688 61.7344 25.4688C62.5156 25.4688 63.2109 25.6198 63.8203 25.9219C64.4349 26.224 64.9089 26.6406 65.2422 27.1719C65.5807 27.7031 65.75 28.2839 65.75 28.9141H64.2422C64.2422 28.2266 64.0234 27.6875 63.5859 27.2969C63.1484 26.901 62.5312 26.7031 61.7344 26.7031C60.9948 26.7031 60.4167 26.8672 60 27.1953C59.5885 27.5182 59.3828 27.9688 59.3828 28.5469C59.3828 29.0104 59.5781 29.4036 59.9688 29.7266C60.3646 30.0443 61.0339 30.3359 61.9766 30.6016C62.9245 30.8672 63.6641 31.1615 64.1953 31.4844C64.7318 31.8021 65.1276 32.1745 65.3828 32.6016C65.6432 33.0286 65.7734 33.5312 65.7734 34.1094C65.7734 35.0312 65.4141 35.7708 64.6953 36.3281C63.9766 36.8802 63.0156 37.1562 61.8125 37.1562C61.0312 37.1562 60.3021 37.0078 59.625 36.7109C58.9479 36.4089 58.4245 35.9974 58.0547 35.4766C57.6901 34.9557 57.5078 34.3646 57.5078 33.7031H59.0156C59.0156 34.3906 59.2682 34.9349 59.7734 35.3359C60.2839 35.7318 60.9635 35.9297 61.8125 35.9297C62.6042 35.9297 63.2109 35.7682 63.6328 35.4453C64.0547 35.1224 64.2656 34.6823 64.2656 34.125C64.2656 33.5677 64.0703 33.138 63.6797 32.8359C63.2891 32.5286 62.5807 32.2266 61.5547 31.9297ZM68.8359 28.5469L68.875 29.4844C69.4948 28.7552 70.3307 28.3906 71.3828 28.3906C72.5651 28.3906 73.3698 28.8438 73.7969 29.75C74.0781 29.3438 74.4427 29.0156 74.8906 28.7656C75.3438 28.5156 75.8776 28.3906 76.4922 28.3906C78.3464 28.3906 79.2891 29.3724 79.3203 31.3359V37H77.875V31.4219C77.875 30.8177 77.737 30.3672 77.4609 30.0703C77.1849 29.7682 76.7214 29.6172 76.0703 29.6172C75.5339 29.6172 75.0885 29.7786 74.7344 30.1016C74.3802 30.4193 74.1745 30.849 74.1172 31.3906V37H72.6641V31.4609C72.6641 30.2318 72.0625 29.6172 70.8594 29.6172C69.9115 29.6172 69.263 30.0208 68.9141 30.8281V37H67.4688V28.5469H68.8359ZM86.7266 37C86.6432 36.8333 86.5755 36.5365 86.5234 36.1094C85.8516 36.8073 85.0495 37.1562 84.1172 37.1562C83.2839 37.1562 82.599 36.9219 82.0625 36.4531C81.5312 35.9792 81.2656 35.3802 81.2656 34.6562C81.2656 33.776 81.599 33.0938 82.2656 32.6094C82.9375 32.1198 83.8802 31.875 85.0938 31.875H86.5V31.2109C86.5 30.7057 86.349 30.3047 86.0469 30.0078C85.7448 29.7057 85.2995 29.5547 84.7109 29.5547C84.1953 29.5547 83.763 29.6849 83.4141 29.9453C83.0651 30.2057 82.8906 30.5208 82.8906 30.8906H81.4375C81.4375 30.4688 81.5859 30.0625 81.8828 29.6719C82.1849 29.276 82.5911 28.9635 83.1016 28.7344C83.6172 28.5052 84.1823 28.3906 84.7969 28.3906C85.7708 28.3906 86.5339 28.6354 87.0859 29.125C87.638 29.6094 87.9245 30.2786 87.9453 31.1328V35.0234C87.9453 35.7995 88.0443 36.4167 88.2422 36.875V37H86.7266ZM84.3281 35.8984C84.7812 35.8984 85.2109 35.7812 85.6172 35.5469C86.0234 35.3125 86.3177 35.0078 86.5 34.6328V32.8984H85.3672C83.5964 32.8984 82.7109 33.4167 82.7109 34.4531C82.7109 34.9062 82.862 35.2604 83.1641 35.5156C83.4661 35.7708 83.8542 35.8984 84.3281 35.8984ZM94.2969 29.8438C94.0781 29.8073 93.8411 29.7891 93.5859 29.7891C92.638 29.7891 91.9948 30.1927 91.6562 31V37H90.2109V28.5469H91.6172L91.6406 29.5234C92.1146 28.7682 92.7865 28.3906 93.6562 28.3906C93.9375 28.3906 94.151 28.4271 94.2969 28.5V29.8438ZM97.9844 26.5V28.5469H99.5625V29.6641H97.9844V34.9062C97.9844 35.2448 98.0547 35.5 98.1953 35.6719C98.3359 35.8385 98.5755 35.9219 98.9141 35.9219C99.0807 35.9219 99.3099 35.8906 99.6016 35.8281V37C99.2214 37.1042 98.8516 37.1562 98.4922 37.1562C97.8464 37.1562 97.3594 36.9609 97.0312 36.5703C96.7031 36.1797 96.5391 35.625 96.5391 34.9062V29.6641H95V28.5469H96.5391V26.5H97.9844ZM108.617 35.9766C109.133 35.9766 109.583 35.8203 109.969 35.5078C110.354 35.1953 110.568 34.8047 110.609 34.3359H111.977C111.951 34.8203 111.784 35.2812 111.477 35.7188C111.169 36.1562 110.758 36.5052 110.242 36.7656C109.732 37.026 109.19 37.1562 108.617 37.1562C107.466 37.1562 106.549 36.7734 105.867 36.0078C105.19 35.237 104.852 34.1849 104.852 32.8516V32.6094C104.852 31.7865 105.003 31.0547 105.305 30.4141C105.607 29.7734 106.039 29.276 106.602 28.9219C107.169 28.5677 107.839 28.3906 108.609 28.3906C109.557 28.3906 110.344 28.6745 110.969 29.2422C111.599 29.8099 111.935 30.5469 111.977 31.4531H110.609C110.568 30.9062 110.359 30.4583 109.984 30.1094C109.615 29.7552 109.156 29.5781 108.609 29.5781C107.875 29.5781 107.305 29.8438 106.898 30.375C106.497 30.901 106.297 31.6641 106.297 32.6641V32.9375C106.297 33.9115 106.497 34.6615 106.898 35.1875C107.299 35.7135 107.872 35.9766 108.617 35.9766ZM113.219 32.6953C113.219 31.8672 113.38 31.1224 113.703 30.4609C114.031 29.7995 114.484 29.2891 115.062 28.9297C115.646 28.5703 116.31 28.3906 117.055 28.3906C118.206 28.3906 119.135 28.7891 119.844 29.5859C120.557 30.3828 120.914 31.4427 120.914 32.7656V32.8672C120.914 33.6901 120.755 34.4297 120.438 35.0859C120.125 35.737 119.674 36.2448 119.086 36.6094C118.503 36.974 117.831 37.1562 117.07 37.1562C115.924 37.1562 114.995 36.7578 114.281 35.9609C113.573 35.1641 113.219 34.1094 113.219 32.7969V32.6953ZM114.672 32.8672C114.672 33.8047 114.888 34.5573 115.32 35.125C115.758 35.6927 116.341 35.9766 117.07 35.9766C117.805 35.9766 118.388 35.6901 118.82 35.1172C119.253 34.5391 119.469 33.7318 119.469 32.6953C119.469 31.7682 119.247 31.0182 118.805 30.4453C118.367 29.8672 117.784 29.5781 117.055 29.5781C116.341 29.5781 115.766 29.862 115.328 30.4297C114.891 30.9974 114.672 31.8099 114.672 32.8672ZM124.094 28.5469L124.141 29.6094C124.786 28.7969 125.63 28.3906 126.672 28.3906C128.458 28.3906 129.359 29.3984 129.375 31.4141V37H127.93V31.4062C127.924 30.7969 127.784 30.3464 127.508 30.0547C127.237 29.763 126.812 29.6172 126.234 29.6172C125.766 29.6172 125.354 29.7422 125 29.9922C124.646 30.2422 124.37 30.5703 124.172 30.9766V37H122.727V28.5469H124.094ZM133.516 26.5V28.5469H135.094V29.6641H133.516V34.9062C133.516 35.2448 133.586 35.5 133.727 35.6719C133.867 35.8385 134.107 35.9219 134.445 35.9219C134.612 35.9219 134.841 35.8906 135.133 35.8281V37C134.753 37.1042 134.383 37.1562 134.023 37.1562C133.378 37.1562 132.891 36.9609 132.562 36.5703C132.234 36.1797 132.07 35.625 132.07 34.9062V29.6641H130.531V28.5469H132.07V26.5H133.516ZM140.875 29.8438C140.656 29.8073 140.419 29.7891 140.164 29.7891C139.216 29.7891 138.573 30.1927 138.234 31V37H136.789V28.5469H138.195L138.219 29.5234C138.693 28.7682 139.365 28.3906 140.234 28.3906C140.516 28.3906 140.729 28.4271 140.875 28.5V29.8438ZM147.117 37C147.034 36.8333 146.966 36.5365 146.914 36.1094C146.242 36.8073 145.44 37.1562 144.508 37.1562C143.674 37.1562 142.99 36.9219 142.453 36.4531C141.922 35.9792 141.656 35.3802 141.656 34.6562C141.656 33.776 141.99 33.0938 142.656 32.6094C143.328 32.1198 144.271 31.875 145.484 31.875H146.891V31.2109C146.891 30.7057 146.74 30.3047 146.438 30.0078C146.135 29.7057 145.69 29.5547 145.102 29.5547C144.586 29.5547 144.154 29.6849 143.805 29.9453C143.456 30.2057 143.281 30.5208 143.281 30.8906H141.828C141.828 30.4688 141.977 30.0625 142.273 29.6719C142.576 29.276 142.982 28.9635 143.492 28.7344C144.008 28.5052 144.573 28.3906 145.188 28.3906C146.161 28.3906 146.924 28.6354 147.477 29.125C148.029 29.6094 148.315 30.2786 148.336 31.1328V35.0234C148.336 35.7995 148.435 36.4167 148.633 36.875V37H147.117ZM144.719 35.8984C145.172 35.8984 145.602 35.7812 146.008 35.5469C146.414 35.3125 146.708 35.0078 146.891 34.6328V32.8984H145.758C143.987 32.8984 143.102 33.4167 143.102 34.4531C143.102 34.9062 143.253 35.2604 143.555 35.5156C143.857 35.7708 144.245 35.8984 144.719 35.8984ZM153.992 35.9766C154.508 35.9766 154.958 35.8203 155.344 35.5078C155.729 35.1953 155.943 34.8047 155.984 34.3359H157.352C157.326 34.8203 157.159 35.2812 156.852 35.7188C156.544 36.1562 156.133 36.5052 155.617 36.7656C155.107 37.026 154.565 37.1562 153.992 37.1562C152.841 37.1562 151.924 36.7734 151.242 36.0078C150.565 35.237 150.227 34.1849 150.227 32.8516V32.6094C150.227 31.7865 150.378 31.0547 150.68 30.4141C150.982 29.7734 151.414 29.276 151.977 28.9219C152.544 28.5677 153.214 28.3906 153.984 28.3906C154.932 28.3906 155.719 28.6745 156.344 29.2422C156.974 29.8099 157.31 30.5469 157.352 31.4531H155.984C155.943 30.9062 155.734 30.4583 155.359 30.1094C154.99 29.7552 154.531 29.5781 153.984 29.5781C153.25 29.5781 152.68 29.8438 152.273 30.375C151.872 30.901 151.672 31.6641 151.672 32.6641V32.9375C151.672 33.9115 151.872 34.6615 152.273 35.1875C152.674 35.7135 153.247 35.9766 153.992 35.9766ZM160.938 26.5V28.5469H162.516V29.6641H160.938V34.9062C160.938 35.2448 161.008 35.5 161.148 35.6719C161.289 35.8385 161.529 35.9219 161.867 35.9219C162.034 35.9219 162.263 35.8906 162.555 35.8281V37C162.174 37.1042 161.805 37.1562 161.445 37.1562C160.799 37.1562 160.312 36.9609 159.984 36.5703C159.656 36.1797 159.492 35.625 159.492 34.9062V29.6641H157.953V28.5469H159.492V26.5H160.938Z" fill="#2097F6"/>
<g filter="url(#filter1_d)">
<rect x="9" y="71" width="202" height="40" rx="20" fill="#E7F4FF"/>
<path d="M49.9258 91.5566H45.8379V94.6191H50.6162V96H44.1084V86.0469H50.5684V87.4414H45.8379V90.1895H49.9258V91.5566ZM53.4053 88.6035L53.4531 89.458C54 88.7972 54.7178 88.4668 55.6064 88.4668C57.1468 88.4668 57.9307 89.3486 57.958 91.1123V96H56.2969V91.208C56.2969 90.7386 56.1943 90.3923 55.9893 90.1689C55.7887 89.9411 55.4583 89.8271 54.998 89.8271C54.3281 89.8271 53.8291 90.1302 53.501 90.7363V96H51.8398V88.6035H53.4053ZM61.7383 86.8057V88.6035H63.0439V89.834H61.7383V93.9629C61.7383 94.2454 61.793 94.4505 61.9023 94.5781C62.0163 94.7012 62.2168 94.7627 62.5039 94.7627C62.6953 94.7627 62.889 94.7399 63.085 94.6943V95.9795C62.7067 96.0843 62.3421 96.1367 61.9912 96.1367C60.7152 96.1367 60.0771 95.4326 60.0771 94.0244V89.834H58.8604V88.6035H60.0771V86.8057H61.7383ZM68.1914 90.1211C67.9727 90.0846 67.7471 90.0664 67.5146 90.0664C66.7536 90.0664 66.2409 90.3581 65.9766 90.9414V96H64.3154V88.6035H65.9014L65.9424 89.4307C66.3434 88.7881 66.8994 88.4668 67.6104 88.4668C67.8473 88.4668 68.0433 88.4987 68.1982 88.5625L68.1914 90.1211ZM71.9512 93.6211L73.4551 88.6035H75.2256L72.2861 97.1211C71.835 98.3652 71.0693 98.9873 69.9893 98.9873C69.7477 98.9873 69.4811 98.9463 69.1895 98.8643V97.5791L69.5039 97.5996C69.9232 97.5996 70.2376 97.5221 70.4473 97.3672C70.6615 97.2168 70.8301 96.9616 70.9531 96.6016L71.1924 95.9658L68.5947 88.6035H70.3857L71.9512 93.6211ZM82.6631 92.377C82.6631 93.5208 82.4033 94.4346 81.8838 95.1182C81.3643 95.7972 80.667 96.1367 79.792 96.1367C78.9808 96.1367 78.3314 95.8701 77.8438 95.3369V98.8438H76.1826V88.6035H77.7139L77.7822 89.3555C78.2699 88.763 78.9329 88.4668 79.7715 88.4668C80.6738 88.4668 81.3802 88.804 81.8906 89.4785C82.4056 90.1484 82.6631 91.0804 82.6631 92.2744V92.377ZM81.0088 92.2334C81.0088 91.4951 80.8607 90.9095 80.5645 90.4766C80.2728 90.0436 79.8535 89.8271 79.3066 89.8271C78.6276 89.8271 78.14 90.1074 77.8438 90.668V93.9492C78.1445 94.5234 78.6367 94.8105 79.3203 94.8105C79.849 94.8105 80.2614 94.5986 80.5576 94.1748C80.8584 93.7464 81.0088 93.0993 81.0088 92.2334ZM83.7637 92.2334C83.7637 91.5088 83.9072 90.8571 84.1943 90.2783C84.4814 89.695 84.8848 89.2484 85.4043 88.9385C85.9238 88.624 86.5208 88.4668 87.1953 88.4668C88.1934 88.4668 89.0023 88.7881 89.6221 89.4307C90.2464 90.0732 90.5837 90.9255 90.6338 91.9873L90.6406 92.377C90.6406 93.1061 90.4993 93.7578 90.2168 94.332C89.9388 94.9062 89.5378 95.3506 89.0137 95.665C88.4941 95.9795 87.8926 96.1367 87.209 96.1367C86.1654 96.1367 85.3291 95.7904 84.7002 95.0977C84.0758 94.4004 83.7637 93.473 83.7637 92.3154V92.2334ZM85.4248 92.377C85.4248 93.138 85.582 93.735 85.8965 94.168C86.2109 94.5964 86.6484 94.8105 87.209 94.8105C87.7695 94.8105 88.2048 94.5918 88.5146 94.1543C88.8291 93.7168 88.9863 93.0765 88.9863 92.2334C88.9863 91.486 88.8245 90.8936 88.501 90.4561C88.182 90.0186 87.7467 89.7998 87.1953 89.7998C86.653 89.7998 86.2223 90.0163 85.9033 90.4492C85.5843 90.8776 85.4248 91.5202 85.4248 92.377ZM93.8125 96H92.1514V88.6035H93.8125V96ZM92.0488 86.6826C92.0488 86.4274 92.1286 86.2155 92.2881 86.0469C92.4521 85.8783 92.6846 85.7939 92.9854 85.7939C93.2861 85.7939 93.5186 85.8783 93.6826 86.0469C93.8467 86.2155 93.9287 86.4274 93.9287 86.6826C93.9287 86.9333 93.8467 87.1429 93.6826 87.3115C93.5186 87.4756 93.2861 87.5576 92.9854 87.5576C92.6846 87.5576 92.4521 87.4756 92.2881 87.3115C92.1286 87.1429 92.0488 86.9333 92.0488 86.6826ZM97.1689 88.6035L97.2168 89.458C97.7637 88.7972 98.4814 88.4668 99.3701 88.4668C100.91 88.4668 101.694 89.3486 101.722 91.1123V96H100.061V91.208C100.061 90.7386 99.958 90.3923 99.7529 90.1689C99.5524 89.9411 99.222 89.8271 98.7617 89.8271C98.0918 89.8271 97.5928 90.1302 97.2646 90.7363V96H95.6035V88.6035H97.1689ZM105.502 86.8057V88.6035H106.808V89.834H105.502V93.9629C105.502 94.2454 105.557 94.4505 105.666 94.5781C105.78 94.7012 105.98 94.7627 106.268 94.7627C106.459 94.7627 106.653 94.7399 106.849 94.6943V95.9795C106.47 96.0843 106.106 96.1367 105.755 96.1367C104.479 96.1367 103.841 95.4326 103.841 94.0244V89.834H102.624V88.6035H103.841V86.8057H105.502ZM112.229 93.9902C112.229 93.694 112.105 93.4684 111.859 93.3135C111.618 93.1585 111.215 93.0218 110.649 92.9033C110.084 92.7848 109.613 92.6344 109.234 92.4521C108.405 92.0511 107.99 91.4701 107.99 90.709C107.99 90.071 108.259 89.5378 108.797 89.1094C109.335 88.681 110.018 88.4668 110.848 88.4668C111.732 88.4668 112.445 88.6855 112.987 89.123C113.534 89.5605 113.808 90.1279 113.808 90.8252H112.146C112.146 90.5062 112.028 90.2419 111.791 90.0322C111.554 89.818 111.24 89.7109 110.848 89.7109C110.483 89.7109 110.185 89.7952 109.952 89.9639C109.724 90.1325 109.61 90.3581 109.61 90.6406C109.61 90.8958 109.717 91.0941 109.932 91.2354C110.146 91.3766 110.579 91.5202 111.23 91.666C111.882 91.8073 112.393 91.9782 112.762 92.1787C113.135 92.3747 113.411 92.6117 113.589 92.8896C113.771 93.1676 113.862 93.5049 113.862 93.9014C113.862 94.5667 113.587 95.1068 113.035 95.5215C112.484 95.9316 111.761 96.1367 110.868 96.1367C110.262 96.1367 109.722 96.0273 109.248 95.8086C108.774 95.5898 108.405 95.2891 108.141 94.9062C107.876 94.5234 107.744 94.111 107.744 93.6689H109.357C109.38 94.0609 109.528 94.3639 109.802 94.5781C110.075 94.7878 110.438 94.8926 110.889 94.8926C111.326 94.8926 111.659 94.8105 111.887 94.6465C112.115 94.4779 112.229 94.2591 112.229 93.9902ZM118.49 92.2471C118.49 91.1077 118.755 90.194 119.283 89.5059C119.812 88.8132 120.521 88.4668 121.409 88.4668C122.193 88.4668 122.826 88.7402 123.31 89.2871V85.5H124.971V96H123.467L123.385 95.2344C122.888 95.8359 122.225 96.1367 121.396 96.1367C120.53 96.1367 119.828 95.7881 119.29 95.0908C118.757 94.3936 118.49 93.4456 118.49 92.2471ZM120.151 92.3906C120.151 93.1426 120.295 93.7305 120.582 94.1543C120.874 94.5736 121.286 94.7832 121.819 94.7832C122.498 94.7832 122.995 94.4801 123.31 93.874V90.7158C123.004 90.1234 122.512 89.8271 121.833 89.8271C121.295 89.8271 120.881 90.0413 120.589 90.4697C120.297 90.8936 120.151 91.5339 120.151 92.3906ZM129.961 96.1367C128.908 96.1367 128.054 95.8063 127.397 95.1455C126.746 94.4801 126.42 93.596 126.42 92.4932V92.2881C126.42 91.5498 126.561 90.8913 126.844 90.3125C127.131 89.7292 127.532 89.2757 128.047 88.9521C128.562 88.6286 129.136 88.4668 129.77 88.4668C130.777 88.4668 131.554 88.7881 132.101 89.4307C132.652 90.0732 132.928 90.9824 132.928 92.1582V92.8281H128.095C128.145 93.4388 128.348 93.9219 128.703 94.2773C129.063 94.6328 129.514 94.8105 130.057 94.8105C130.818 94.8105 131.438 94.5029 131.916 93.8877L132.812 94.7422C132.515 95.1842 132.119 95.5283 131.622 95.7744C131.13 96.016 130.576 96.1367 129.961 96.1367ZM129.763 89.7998C129.307 89.7998 128.938 89.9593 128.655 90.2783C128.377 90.5973 128.2 91.0417 128.122 91.6113H131.287V91.4883C131.251 90.9323 131.103 90.513 130.843 90.2305C130.583 89.9434 130.223 89.7998 129.763 89.7998ZM134.664 96V89.834H133.536V88.6035H134.664V88.0977C134.669 87.5189 134.792 87.0221 135.033 86.6074C135.275 86.1927 135.617 85.8805 136.059 85.6709C136.501 85.4613 137.032 85.3564 137.651 85.3564C138.016 85.3564 138.365 85.3952 138.697 85.4727C139.035 85.5501 139.383 85.6481 139.743 85.7666L139.49 87.1406C138.861 86.9219 138.287 86.8125 137.768 86.8125C137.262 86.8125 136.895 86.9242 136.667 87.1475C136.439 87.3662 136.325 87.6966 136.325 88.1387V88.6035H137.781V89.834H136.325V96H134.664ZM140.529 96H138.868V88.6035H140.529V96ZM143.913 88.6035L143.961 89.458C144.508 88.7972 145.226 88.4668 146.114 88.4668C147.655 88.4668 148.438 89.3486 148.466 91.1123V96H146.805V91.208C146.805 90.7386 146.702 90.3923 146.497 90.1689C146.297 89.9411 145.966 89.8271 145.506 89.8271C144.836 89.8271 144.337 90.1302 144.009 90.7363V96H142.348V88.6035H143.913ZM151.932 96H150.271V88.6035H151.932V96ZM150.168 86.6826C150.168 86.4274 150.248 86.2155 150.407 86.0469C150.571 85.8783 150.804 85.7939 151.104 85.7939C151.405 85.7939 151.638 85.8783 151.802 86.0469C151.966 86.2155 152.048 86.4274 152.048 86.6826C152.048 86.9333 151.966 87.1429 151.802 87.3115C151.638 87.4756 151.405 87.5576 151.104 87.5576C150.804 87.5576 150.571 87.4756 150.407 87.3115C150.248 87.1429 150.168 86.9333 150.168 86.6826ZM155.828 86.8057V88.6035H157.134V89.834H155.828V93.9629C155.828 94.2454 155.883 94.4505 155.992 94.5781C156.106 94.7012 156.307 94.7627 156.594 94.7627C156.785 94.7627 156.979 94.7399 157.175 94.6943V95.9795C156.797 96.0843 156.432 96.1367 156.081 96.1367C154.805 96.1367 154.167 95.4326 154.167 94.0244V89.834H152.95V88.6035H154.167V86.8057H155.828ZM160.176 96H158.515V88.6035H160.176V96ZM158.412 86.6826C158.412 86.4274 158.492 86.2155 158.651 86.0469C158.815 85.8783 159.048 85.7939 159.349 85.7939C159.649 85.7939 159.882 85.8783 160.046 86.0469C160.21 86.2155 160.292 86.4274 160.292 86.6826C160.292 86.9333 160.21 87.1429 160.046 87.3115C159.882 87.4756 159.649 87.5576 159.349 87.5576C159.048 87.5576 158.815 87.4756 158.651 87.3115C158.492 87.1429 158.412 86.9333 158.412 86.6826ZM161.68 92.2334C161.68 91.5088 161.823 90.8571 162.11 90.2783C162.397 89.695 162.801 89.2484 163.32 88.9385C163.84 88.624 164.437 88.4668 165.111 88.4668C166.109 88.4668 166.918 88.7881 167.538 89.4307C168.162 90.0732 168.5 90.9255 168.55 91.9873L168.557 92.377C168.557 93.1061 168.415 93.7578 168.133 94.332C167.855 94.9062 167.454 95.3506 166.93 95.665C166.41 95.9795 165.809 96.1367 165.125 96.1367C164.081 96.1367 163.245 95.7904 162.616 95.0977C161.992 94.4004 161.68 93.473 161.68 92.3154V92.2334ZM163.341 92.377C163.341 93.138 163.498 93.735 163.812 94.168C164.127 94.5964 164.564 94.8105 165.125 94.8105C165.686 94.8105 166.121 94.5918 166.431 94.1543C166.745 93.7168 166.902 93.0765 166.902 92.2334C166.902 91.486 166.741 90.8936 166.417 90.4561C166.098 90.0186 165.663 89.7998 165.111 89.7998C164.569 89.7998 164.138 90.0163 163.819 90.4492C163.5 90.8776 163.341 91.5202 163.341 92.377ZM171.503 88.6035L171.551 89.458C172.098 88.7972 172.815 88.4668 173.704 88.4668C175.244 88.4668 176.028 89.3486 176.056 91.1123V96H174.395V91.208C174.395 90.7386 174.292 90.3923 174.087 90.1689C173.886 89.9411 173.556 89.8271 173.096 89.8271C172.426 89.8271 171.927 90.1302 171.599 90.7363V96H169.938V88.6035H171.503Z" fill="#2097F6"/>
<rect x="9.5" y="71.5" width="201" height="39" rx="19.5" stroke="#2097F6"/>
</g>
<g filter="url(#filter2_d)">
<rect x="18" y="175" width="184" height="40" rx="20" fill="#E7F4FF"/>
<path d="M58.6758 197.437C58.6758 196.999 58.5208 196.662 58.2109 196.425C57.9056 196.188 57.3519 195.949 56.5498 195.707C55.7477 195.465 55.1097 195.197 54.6357 194.9C53.7288 194.331 53.2754 193.588 53.2754 192.672C53.2754 191.87 53.6012 191.209 54.2529 190.689C54.9092 190.17 55.7591 189.91 56.8027 189.91C57.4954 189.91 58.113 190.038 58.6553 190.293C59.1976 190.548 59.6237 190.913 59.9336 191.387C60.2435 191.856 60.3984 192.378 60.3984 192.952H58.6758C58.6758 192.433 58.5117 192.027 58.1836 191.735C57.86 191.439 57.3952 191.291 56.7891 191.291C56.224 191.291 55.7842 191.412 55.4697 191.653C55.1598 191.895 55.0049 192.232 55.0049 192.665C55.0049 193.03 55.1735 193.335 55.5107 193.581C55.848 193.823 56.404 194.06 57.1787 194.292C57.9535 194.52 58.5755 194.782 59.0449 195.078C59.5143 195.37 59.8584 195.707 60.0771 196.09C60.2959 196.468 60.4053 196.912 60.4053 197.423C60.4053 198.252 60.0863 198.913 59.4482 199.405C58.8148 199.893 57.9535 200.137 56.8643 200.137C56.1442 200.137 55.4811 200.005 54.875 199.74C54.2734 199.471 53.804 199.102 53.4668 198.633C53.1341 198.163 52.9678 197.617 52.9678 196.992H54.6973C54.6973 197.557 54.8841 197.995 55.2578 198.305C55.6315 198.615 56.167 198.77 56.8643 198.77C57.4658 198.77 57.917 198.649 58.2178 198.407C58.5231 198.161 58.6758 197.838 58.6758 197.437ZM65.0195 200.137C63.9668 200.137 63.1123 199.806 62.4561 199.146C61.8044 198.48 61.4785 197.596 61.4785 196.493V196.288C61.4785 195.55 61.6198 194.891 61.9023 194.312C62.1895 193.729 62.5905 193.276 63.1055 192.952C63.6204 192.629 64.1947 192.467 64.8281 192.467C65.8353 192.467 66.6123 192.788 67.1592 193.431C67.7106 194.073 67.9863 194.982 67.9863 196.158V196.828H63.1533C63.2035 197.439 63.4062 197.922 63.7617 198.277C64.1217 198.633 64.5729 198.811 65.1152 198.811C65.8763 198.811 66.4961 198.503 66.9746 197.888L67.8701 198.742C67.5739 199.184 67.1774 199.528 66.6807 199.774C66.1885 200.016 65.6348 200.137 65.0195 200.137ZM64.8213 193.8C64.3656 193.8 63.9964 193.959 63.7139 194.278C63.4359 194.597 63.2581 195.042 63.1807 195.611H66.3457V195.488C66.3092 194.932 66.1611 194.513 65.9014 194.23C65.6416 193.943 65.2816 193.8 64.8213 193.8ZM71.3633 190.806V192.604H72.6689V193.834H71.3633V197.963C71.3633 198.245 71.418 198.451 71.5273 198.578C71.6413 198.701 71.8418 198.763 72.1289 198.763C72.3203 198.763 72.514 198.74 72.71 198.694V199.979C72.3317 200.084 71.9671 200.137 71.6162 200.137C70.3402 200.137 69.7021 199.433 69.7021 198.024V193.834H68.4854V192.604H69.7021V190.806H71.3633ZM77.1191 196.233C77.1191 195.509 77.2627 194.857 77.5498 194.278C77.8369 193.695 78.2402 193.248 78.7598 192.938C79.2793 192.624 79.8763 192.467 80.5508 192.467C81.5488 192.467 82.3577 192.788 82.9775 193.431C83.6019 194.073 83.9391 194.925 83.9893 195.987L83.9961 196.377C83.9961 197.106 83.8548 197.758 83.5723 198.332C83.2943 198.906 82.8932 199.351 82.3691 199.665C81.8496 199.979 81.248 200.137 80.5645 200.137C79.5208 200.137 78.6846 199.79 78.0557 199.098C77.4313 198.4 77.1191 197.473 77.1191 196.315V196.233ZM78.7803 196.377C78.7803 197.138 78.9375 197.735 79.252 198.168C79.5664 198.596 80.0039 198.811 80.5645 198.811C81.125 198.811 81.5602 198.592 81.8701 198.154C82.1846 197.717 82.3418 197.076 82.3418 196.233C82.3418 195.486 82.18 194.894 81.8564 194.456C81.5374 194.019 81.1022 193.8 80.5508 193.8C80.0085 193.8 79.5778 194.016 79.2588 194.449C78.9398 194.878 78.7803 195.52 78.7803 196.377ZM85.9854 200V193.834H84.8574V192.604H85.9854V191.927C85.9854 191.106 86.2132 190.473 86.6689 190.026C87.1247 189.58 87.7627 189.356 88.583 189.356C88.8747 189.356 89.1846 189.397 89.5127 189.479L89.4717 190.778C89.2894 190.742 89.0775 190.724 88.8359 190.724C88.043 190.724 87.6465 191.132 87.6465 191.947V192.604H89.1504V193.834H87.6465V200H85.9854ZM95.6172 200H93.9561V192.604H95.6172V200ZM93.8535 190.683C93.8535 190.427 93.9333 190.215 94.0928 190.047C94.2568 189.878 94.4893 189.794 94.79 189.794C95.0908 189.794 95.3232 189.878 95.4873 190.047C95.6514 190.215 95.7334 190.427 95.7334 190.683C95.7334 190.933 95.6514 191.143 95.4873 191.312C95.3232 191.476 95.0908 191.558 94.79 191.558C94.4893 191.558 94.2568 191.476 94.0928 191.312C93.9333 191.143 93.8535 190.933 93.8535 190.683ZM98.9736 192.604L99.0215 193.458C99.5684 192.797 100.286 192.467 101.175 192.467C102.715 192.467 103.499 193.349 103.526 195.112V200H101.865V195.208C101.865 194.739 101.763 194.392 101.558 194.169C101.357 193.941 101.027 193.827 100.566 193.827C99.8965 193.827 99.3975 194.13 99.0693 194.736V200H97.4082V192.604H98.9736ZM109.371 197.99C109.371 197.694 109.248 197.468 109.002 197.313C108.76 197.159 108.357 197.022 107.792 196.903C107.227 196.785 106.755 196.634 106.377 196.452C105.548 196.051 105.133 195.47 105.133 194.709C105.133 194.071 105.402 193.538 105.939 193.109C106.477 192.681 107.161 192.467 107.99 192.467C108.874 192.467 109.588 192.686 110.13 193.123C110.677 193.561 110.95 194.128 110.95 194.825H109.289C109.289 194.506 109.171 194.242 108.934 194.032C108.697 193.818 108.382 193.711 107.99 193.711C107.626 193.711 107.327 193.795 107.095 193.964C106.867 194.132 106.753 194.358 106.753 194.641C106.753 194.896 106.86 195.094 107.074 195.235C107.288 195.377 107.721 195.52 108.373 195.666C109.025 195.807 109.535 195.978 109.904 196.179C110.278 196.375 110.554 196.612 110.731 196.89C110.914 197.168 111.005 197.505 111.005 197.901C111.005 198.567 110.729 199.107 110.178 199.521C109.626 199.932 108.904 200.137 108.011 200.137C107.405 200.137 106.865 200.027 106.391 199.809C105.917 199.59 105.548 199.289 105.283 198.906C105.019 198.523 104.887 198.111 104.887 197.669H106.5C106.523 198.061 106.671 198.364 106.944 198.578C107.218 198.788 107.58 198.893 108.031 198.893C108.469 198.893 108.801 198.811 109.029 198.646C109.257 198.478 109.371 198.259 109.371 197.99ZM114.539 190.806V192.604H115.845V193.834H114.539V197.963C114.539 198.245 114.594 198.451 114.703 198.578C114.817 198.701 115.018 198.763 115.305 198.763C115.496 198.763 115.69 198.74 115.886 198.694V199.979C115.507 200.084 115.143 200.137 114.792 200.137C113.516 200.137 112.878 199.433 112.878 198.024V193.834H111.661V192.604H112.878V190.806H114.539ZM120.992 194.121C120.773 194.085 120.548 194.066 120.315 194.066C119.554 194.066 119.042 194.358 118.777 194.941V200H117.116V192.604H118.702L118.743 193.431C119.144 192.788 119.7 192.467 120.411 192.467C120.648 192.467 120.844 192.499 120.999 192.562L120.992 194.121ZM126.522 199.275C126.035 199.85 125.342 200.137 124.444 200.137C123.642 200.137 123.034 199.902 122.619 199.433C122.209 198.963 122.004 198.284 122.004 197.396V192.604H123.665V197.375C123.665 198.314 124.055 198.783 124.834 198.783C125.641 198.783 126.185 198.494 126.468 197.915V192.604H128.129V200H126.563L126.522 199.275ZM132.859 198.811C133.274 198.811 133.618 198.69 133.892 198.448C134.165 198.207 134.311 197.908 134.329 197.553H135.895C135.876 198.013 135.733 198.444 135.464 198.845C135.195 199.241 134.83 199.556 134.37 199.788C133.91 200.021 133.413 200.137 132.88 200.137C131.845 200.137 131.025 199.802 130.419 199.132C129.813 198.462 129.51 197.537 129.51 196.356V196.186C129.51 195.06 129.811 194.16 130.412 193.485C131.014 192.806 131.834 192.467 132.873 192.467C133.753 192.467 134.468 192.724 135.02 193.239C135.576 193.75 135.867 194.422 135.895 195.256H134.329C134.311 194.832 134.165 194.483 133.892 194.21C133.623 193.937 133.279 193.8 132.859 193.8C132.322 193.8 131.907 193.996 131.615 194.388C131.324 194.775 131.175 195.365 131.171 196.158V196.425C131.171 197.227 131.314 197.826 131.602 198.223C131.893 198.615 132.312 198.811 132.859 198.811ZM139.23 190.806V192.604H140.536V193.834H139.23V197.963C139.23 198.245 139.285 198.451 139.395 198.578C139.508 198.701 139.709 198.763 139.996 198.763C140.188 198.763 140.381 198.74 140.577 198.694V199.979C140.199 200.084 139.834 200.137 139.483 200.137C138.207 200.137 137.569 199.433 137.569 198.024V193.834H136.353V192.604H137.569V190.806H139.23ZM143.578 200H141.917V192.604H143.578V200ZM141.814 190.683C141.814 190.427 141.894 190.215 142.054 190.047C142.218 189.878 142.45 189.794 142.751 189.794C143.052 189.794 143.284 189.878 143.448 190.047C143.612 190.215 143.694 190.427 143.694 190.683C143.694 190.933 143.612 191.143 143.448 191.312C143.284 191.476 143.052 191.558 142.751 191.558C142.45 191.558 142.218 191.476 142.054 191.312C141.894 191.143 141.814 190.933 141.814 190.683ZM145.082 196.233C145.082 195.509 145.226 194.857 145.513 194.278C145.8 193.695 146.203 193.248 146.723 192.938C147.242 192.624 147.839 192.467 148.514 192.467C149.512 192.467 150.321 192.788 150.94 193.431C151.565 194.073 151.902 194.925 151.952 195.987L151.959 196.377C151.959 197.106 151.818 197.758 151.535 198.332C151.257 198.906 150.856 199.351 150.332 199.665C149.812 199.979 149.211 200.137 148.527 200.137C147.484 200.137 146.647 199.79 146.019 199.098C145.394 198.4 145.082 197.473 145.082 196.315V196.233ZM146.743 196.377C146.743 197.138 146.9 197.735 147.215 198.168C147.529 198.596 147.967 198.811 148.527 198.811C149.088 198.811 149.523 198.592 149.833 198.154C150.147 197.717 150.305 197.076 150.305 196.233C150.305 195.486 150.143 194.894 149.819 194.456C149.5 194.019 149.065 193.8 148.514 193.8C147.971 193.8 147.541 194.016 147.222 194.449C146.903 194.878 146.743 195.52 146.743 196.377ZM154.905 192.604L154.953 193.458C155.5 192.797 156.218 192.467 157.106 192.467C158.647 192.467 159.431 193.349 159.458 195.112V200H157.797V195.208C157.797 194.739 157.694 194.392 157.489 194.169C157.289 193.941 156.958 193.827 156.498 193.827C155.828 193.827 155.329 194.13 155.001 194.736V200H153.34V192.604H154.905ZM165.303 197.99C165.303 197.694 165.18 197.468 164.934 197.313C164.692 197.159 164.289 197.022 163.724 196.903C163.159 196.785 162.687 196.634 162.309 196.452C161.479 196.051 161.064 195.47 161.064 194.709C161.064 194.071 161.333 193.538 161.871 193.109C162.409 192.681 163.092 192.467 163.922 192.467C164.806 192.467 165.519 192.686 166.062 193.123C166.608 193.561 166.882 194.128 166.882 194.825H165.221C165.221 194.506 165.102 194.242 164.865 194.032C164.628 193.818 164.314 193.711 163.922 193.711C163.557 193.711 163.259 193.795 163.026 193.964C162.799 194.132 162.685 194.358 162.685 194.641C162.685 194.896 162.792 195.094 163.006 195.235C163.22 195.377 163.653 195.52 164.305 195.666C164.956 195.807 165.467 195.978 165.836 196.179C166.21 196.375 166.485 196.612 166.663 196.89C166.845 197.168 166.937 197.505 166.937 197.901C166.937 198.567 166.661 199.107 166.109 199.521C165.558 199.932 164.836 200.137 163.942 200.137C163.336 200.137 162.796 200.027 162.322 199.809C161.848 199.59 161.479 199.289 161.215 198.906C160.951 198.523 160.818 198.111 160.818 197.669H162.432C162.454 198.061 162.603 198.364 162.876 198.578C163.149 198.788 163.512 198.893 163.963 198.893C164.4 198.893 164.733 198.811 164.961 198.646C165.189 198.478 165.303 198.259 165.303 197.99Z" fill="#2097F6"/>
<rect x="18.5" y="175.5" width="183" height="39" rx="19.5" stroke="#2097F6"/>
</g>
<g filter="url(#filter3_d)">
<rect x="20" y="123" width="180" height="40" rx="20" fill="#E7F4FF"/>
<path d="M60.6787 145.437C60.6787 144.999 60.5238 144.662 60.2139 144.425C59.9085 144.188 59.3548 143.949 58.5527 143.707C57.7507 143.465 57.1126 143.197 56.6387 142.9C55.7318 142.331 55.2783 141.588 55.2783 140.672C55.2783 139.87 55.6042 139.209 56.2559 138.689C56.9121 138.17 57.762 137.91 58.8057 137.91C59.4984 137.91 60.1159 138.038 60.6582 138.293C61.2005 138.548 61.6266 138.913 61.9365 139.387C62.2464 139.856 62.4014 140.378 62.4014 140.952H60.6787C60.6787 140.433 60.5146 140.027 60.1865 139.735C59.863 139.439 59.3981 139.291 58.792 139.291C58.2269 139.291 57.7871 139.412 57.4727 139.653C57.1628 139.895 57.0078 140.232 57.0078 140.665C57.0078 141.03 57.1764 141.335 57.5137 141.581C57.8509 141.823 58.4069 142.06 59.1816 142.292C59.9564 142.52 60.5785 142.782 61.0479 143.078C61.5173 143.37 61.8613 143.707 62.0801 144.09C62.2988 144.468 62.4082 144.912 62.4082 145.423C62.4082 146.252 62.0892 146.913 61.4512 147.405C60.8177 147.893 59.9564 148.137 58.8672 148.137C58.1471 148.137 57.484 148.005 56.8779 147.74C56.2764 147.471 55.807 147.102 55.4697 146.633C55.137 146.163 54.9707 145.617 54.9707 144.992H56.7002C56.7002 145.557 56.887 145.995 57.2607 146.305C57.6344 146.615 58.1699 146.77 58.8672 146.77C59.4688 146.77 59.9199 146.649 60.2207 146.407C60.526 146.161 60.6787 145.838 60.6787 145.437ZM65.8467 138.806V140.604H67.1523V141.834H65.8467V145.963C65.8467 146.245 65.9014 146.451 66.0107 146.578C66.1247 146.701 66.3252 146.763 66.6123 146.763C66.8037 146.763 66.9974 146.74 67.1934 146.694V147.979C66.8151 148.084 66.4505 148.137 66.0996 148.137C64.8236 148.137 64.1855 147.433 64.1855 146.024V141.834H62.9688V140.604H64.1855V138.806H65.8467ZM67.9111 144.233C67.9111 143.509 68.0547 142.857 68.3418 142.278C68.6289 141.695 69.0322 141.248 69.5518 140.938C70.0713 140.624 70.6683 140.467 71.3428 140.467C72.3408 140.467 73.1497 140.788 73.7695 141.431C74.3939 142.073 74.7311 142.925 74.7812 143.987L74.7881 144.377C74.7881 145.106 74.6468 145.758 74.3643 146.332C74.0863 146.906 73.6852 147.351 73.1611 147.665C72.6416 147.979 72.04 148.137 71.3564 148.137C70.3128 148.137 69.4766 147.79 68.8477 147.098C68.2233 146.4 67.9111 145.473 67.9111 144.315V144.233ZM69.5723 144.377C69.5723 145.138 69.7295 145.735 70.0439 146.168C70.3584 146.596 70.7959 146.811 71.3564 146.811C71.917 146.811 72.3522 146.592 72.6621 146.154C72.9766 145.717 73.1338 145.076 73.1338 144.233C73.1338 143.486 72.972 142.894 72.6484 142.456C72.3294 142.019 71.8942 141.8 71.3428 141.8C70.8005 141.8 70.3698 142.016 70.0508 142.449C69.7318 142.878 69.5723 143.52 69.5723 144.377ZM80.0654 142.121C79.8467 142.085 79.6211 142.066 79.3887 142.066C78.6276 142.066 78.1149 142.358 77.8506 142.941V148H76.1895V140.604H77.7754L77.8164 141.431C78.2174 140.788 78.7734 140.467 79.4844 140.467C79.7214 140.467 79.9173 140.499 80.0723 140.562L80.0654 142.121ZM85.3291 148C85.2562 147.859 85.1924 147.629 85.1377 147.31C84.609 147.861 83.9619 148.137 83.1963 148.137C82.4535 148.137 81.8473 147.925 81.3779 147.501C80.9085 147.077 80.6738 146.553 80.6738 145.929C80.6738 145.14 80.9655 144.536 81.5488 144.117C82.1367 143.693 82.9753 143.481 84.0645 143.481H85.083V142.996C85.083 142.613 84.9759 142.308 84.7617 142.08C84.5475 141.848 84.2217 141.731 83.7842 141.731C83.4059 141.731 83.096 141.827 82.8545 142.019C82.613 142.205 82.4922 142.445 82.4922 142.736H80.8311C80.8311 142.331 80.9655 141.952 81.2344 141.602C81.5033 141.246 81.8678 140.968 82.3281 140.768C82.793 140.567 83.3102 140.467 83.8799 140.467C84.7458 140.467 85.4362 140.686 85.9512 141.123C86.4661 141.556 86.7305 142.167 86.7441 142.955V146.291C86.7441 146.956 86.8376 147.487 87.0244 147.884V148H85.3291ZM83.5039 146.804C83.832 146.804 84.1396 146.724 84.4268 146.564C84.7184 146.405 84.9372 146.191 85.083 145.922V144.527H84.1875C83.5723 144.527 83.1097 144.634 82.7998 144.849C82.4899 145.063 82.335 145.366 82.335 145.758C82.335 146.077 82.4398 146.332 82.6494 146.523C82.8636 146.71 83.1484 146.804 83.5039 146.804ZM88.1934 144.247C88.1934 143.099 88.4622 142.183 89 141.499C89.5423 140.811 90.2601 140.467 91.1533 140.467C91.9964 140.467 92.6595 140.761 93.1426 141.349L93.2178 140.604H94.7148V147.774C94.7148 148.745 94.4118 149.511 93.8057 150.071C93.2041 150.632 92.3906 150.912 91.3652 150.912C90.8229 150.912 90.292 150.798 89.7725 150.57C89.2575 150.347 88.8656 150.053 88.5967 149.688L89.3828 148.69C89.8932 149.297 90.5221 149.6 91.2695 149.6C91.821 149.6 92.2562 149.449 92.5752 149.148C92.8942 148.852 93.0537 148.415 93.0537 147.836V147.337C92.5752 147.87 91.9372 148.137 91.1396 148.137C90.2738 148.137 89.5651 147.793 89.0137 147.104C88.4668 146.416 88.1934 145.464 88.1934 144.247ZM89.8477 144.391C89.8477 145.133 89.998 145.719 90.2988 146.147C90.6042 146.571 91.0257 146.783 91.5635 146.783C92.2334 146.783 92.7301 146.496 93.0537 145.922V142.668C92.7393 142.107 92.2471 141.827 91.5771 141.827C91.0303 141.827 90.6042 142.044 90.2988 142.477C89.998 142.91 89.8477 143.548 89.8477 144.391ZM99.6846 148.137C98.6318 148.137 97.7773 147.806 97.1211 147.146C96.4694 146.48 96.1436 145.596 96.1436 144.493V144.288C96.1436 143.55 96.2848 142.891 96.5674 142.312C96.8545 141.729 97.2555 141.276 97.7705 140.952C98.2855 140.629 98.8597 140.467 99.4932 140.467C100.5 140.467 101.277 140.788 101.824 141.431C102.376 142.073 102.651 142.982 102.651 144.158V144.828H97.8184C97.8685 145.439 98.0713 145.922 98.4268 146.277C98.7868 146.633 99.238 146.811 99.7803 146.811C100.541 146.811 101.161 146.503 101.64 145.888L102.535 146.742C102.239 147.184 101.842 147.528 101.346 147.774C100.854 148.016 100.3 148.137 99.6846 148.137ZM99.4863 141.8C99.0306 141.8 98.6615 141.959 98.3789 142.278C98.1009 142.597 97.9232 143.042 97.8457 143.611H101.011V143.488C100.974 142.932 100.826 142.513 100.566 142.23C100.307 141.943 99.9466 141.8 99.4863 141.8ZM107.122 144.247C107.122 143.108 107.386 142.194 107.915 141.506C108.444 140.813 109.152 140.467 110.041 140.467C110.825 140.467 111.458 140.74 111.941 141.287V137.5H113.603V148H112.099L112.017 147.234C111.52 147.836 110.857 148.137 110.027 148.137C109.161 148.137 108.46 147.788 107.922 147.091C107.389 146.394 107.122 145.446 107.122 144.247ZM108.783 144.391C108.783 145.143 108.927 145.73 109.214 146.154C109.506 146.574 109.918 146.783 110.451 146.783C111.13 146.783 111.627 146.48 111.941 145.874V142.716C111.636 142.123 111.144 141.827 110.465 141.827C109.927 141.827 109.512 142.041 109.221 142.47C108.929 142.894 108.783 143.534 108.783 144.391ZM118.593 148.137C117.54 148.137 116.686 147.806 116.029 147.146C115.378 146.48 115.052 145.596 115.052 144.493V144.288C115.052 143.55 115.193 142.891 115.476 142.312C115.763 141.729 116.164 141.276 116.679 140.952C117.194 140.629 117.768 140.467 118.401 140.467C119.409 140.467 120.186 140.788 120.732 141.431C121.284 142.073 121.56 142.982 121.56 144.158V144.828H116.727C116.777 145.439 116.979 145.922 117.335 146.277C117.695 146.633 118.146 146.811 118.688 146.811C119.45 146.811 120.069 146.503 120.548 145.888L121.443 146.742C121.147 147.184 120.751 147.528 120.254 147.774C119.762 148.016 119.208 148.137 118.593 148.137ZM118.395 141.8C117.939 141.8 117.57 141.959 117.287 142.278C117.009 142.597 116.831 143.042 116.754 143.611H119.919V143.488C119.882 142.932 119.734 142.513 119.475 142.23C119.215 141.943 118.855 141.8 118.395 141.8ZM123.296 148V141.834H122.168V140.604H123.296V140.098C123.3 139.519 123.424 139.022 123.665 138.607C123.907 138.193 124.248 137.881 124.69 137.671C125.132 137.461 125.663 137.356 126.283 137.356C126.648 137.356 126.996 137.395 127.329 137.473C127.666 137.55 128.015 137.648 128.375 137.767L128.122 139.141C127.493 138.922 126.919 138.812 126.399 138.812C125.894 138.812 125.527 138.924 125.299 139.147C125.071 139.366 124.957 139.697 124.957 140.139V140.604H126.413V141.834H124.957V148H123.296ZM129.161 148H127.5V140.604H129.161V148ZM132.545 140.604L132.593 141.458C133.14 140.797 133.857 140.467 134.746 140.467C136.286 140.467 137.07 141.349 137.098 143.112V148H135.437V143.208C135.437 142.739 135.334 142.392 135.129 142.169C134.928 141.941 134.598 141.827 134.138 141.827C133.468 141.827 132.969 142.13 132.641 142.736V148H130.979V140.604H132.545ZM140.563 148H138.902V140.604H140.563V148ZM138.8 138.683C138.8 138.427 138.88 138.215 139.039 138.047C139.203 137.878 139.436 137.794 139.736 137.794C140.037 137.794 140.27 137.878 140.434 138.047C140.598 138.215 140.68 138.427 140.68 138.683C140.68 138.933 140.598 139.143 140.434 139.312C140.27 139.476 140.037 139.558 139.736 139.558C139.436 139.558 139.203 139.476 139.039 139.312C138.88 139.143 138.8 138.933 138.8 138.683ZM144.46 138.806V140.604H145.766V141.834H144.46V145.963C144.46 146.245 144.515 146.451 144.624 146.578C144.738 146.701 144.938 146.763 145.226 146.763C145.417 146.763 145.611 146.74 145.807 146.694V147.979C145.428 148.084 145.064 148.137 144.713 148.137C143.437 148.137 142.799 147.433 142.799 146.024V141.834H141.582V140.604H142.799V138.806H144.46ZM148.808 148H147.146V140.604H148.808V148ZM147.044 138.683C147.044 138.427 147.124 138.215 147.283 138.047C147.447 137.878 147.68 137.794 147.98 137.794C148.281 137.794 148.514 137.878 148.678 138.047C148.842 138.215 148.924 138.427 148.924 138.683C148.924 138.933 148.842 139.143 148.678 139.312C148.514 139.476 148.281 139.558 147.98 139.558C147.68 139.558 147.447 139.476 147.283 139.312C147.124 139.143 147.044 138.933 147.044 138.683ZM150.312 144.233C150.312 143.509 150.455 142.857 150.742 142.278C151.029 141.695 151.433 141.248 151.952 140.938C152.472 140.624 153.069 140.467 153.743 140.467C154.741 140.467 155.55 140.788 156.17 141.431C156.794 142.073 157.132 142.925 157.182 143.987L157.188 144.377C157.188 145.106 157.047 145.758 156.765 146.332C156.487 146.906 156.086 147.351 155.562 147.665C155.042 147.979 154.44 148.137 153.757 148.137C152.713 148.137 151.877 147.79 151.248 147.098C150.624 146.4 150.312 145.473 150.312 144.315V144.233ZM151.973 144.377C151.973 145.138 152.13 145.735 152.444 146.168C152.759 146.596 153.196 146.811 153.757 146.811C154.317 146.811 154.753 146.592 155.062 146.154C155.377 145.717 155.534 145.076 155.534 144.233C155.534 143.486 155.372 142.894 155.049 142.456C154.73 142.019 154.295 141.8 153.743 141.8C153.201 141.8 152.77 142.016 152.451 142.449C152.132 142.878 151.973 143.52 151.973 144.377ZM160.135 140.604L160.183 141.458C160.729 140.797 161.447 140.467 162.336 140.467C163.876 140.467 164.66 141.349 164.688 143.112V148H163.026V143.208C163.026 142.739 162.924 142.392 162.719 142.169C162.518 141.941 162.188 141.827 161.728 141.827C161.058 141.827 160.559 142.13 160.23 142.736V148H158.569V140.604H160.135Z" fill="#2097F6"/>
<rect x="20.5" y="123.5" width="179" height="39" rx="19.5" stroke="#2097F6"/>
</g>
<path d="M8 1H212V-1H8V1ZM219 8V244H221V8H219ZM212 251H8.00001V253H212V251ZM1 244V8H-1V244H1ZM8.00001 251C4.13401 251 1 247.866 1 244H-1C-1 248.971 3.02944 253 8.00001 253V251ZM219 244C219 247.866 215.866 251 212 251V253C216.971 253 221 248.971 221 244H219ZM212 1C215.866 1 219 4.13401 219 8H221C221 3.02944 216.971 -1 212 -1V1ZM8 -1C3.02944 -1 -1 3.02944 -1 8H1C1 4.13401 4.13401 1 8 1V-1Z" fill="#2097F6"/>
</g>
<defs>
<filter id="filter0_d" x="0" y="0" width="224" height="256" filterUnits="userSpaceOnUse" color-interpolation-filters="sRGB">
<feFlood flood-opacity="0" result="BackgroundImageFix"/>
<feColorMatrix in="SourceAlpha" type="matrix" values="0 0 0 0 0 0 0 0 0 0 0 0 0 0 0 0 0 0 127 0"/>
<feOffset dx="4" dy="4"/>
<feColorMatrix type="matrix" values="0 0 0 0 0.513733 0 0 0 0 0.767915 0 0 0 0 0.970833 0 0 0 1 0"/>
<feBlend mode="normal" in2="BackgroundImageFix" result="effect1_dropShadow"/>
<feBlend mode="normal" in="SourceGraphic" in2="effect1_dropShadow" result="shape"/>
</filter>
<filter id="filter1_d" x="9" y="71" width="206" height="44" filterUnits="userSpaceOnUse" color-interpolation-filters="sRGB">
<feFlood flood-opacity="0" result="BackgroundImageFix"/>
<feColorMatrix in="SourceAlpha" type="matrix" values="0 0 0 0 0 0 0 0 0 0 0 0 0 0 0 0 0 0 127 0"/>
<feOffset dx="4" dy="4"/>
<feColorMatrix type="matrix" values="0 0 0 0 0.513733 0 0 0 0 0.767915 0 0 0 0 0.970833 0 0 0 1 0"/>
<feBlend mode="normal" in2="BackgroundImageFix" result="effect1_dropShadow"/>
<feBlend mode="normal" in="SourceGraphic" in2="effect1_dropShadow" result="shape"/>
</filter>
<filter id="filter2_d" x="18" y="175" width="188" height="44" filterUnits="userSpaceOnUse" color-interpolation-filters="sRGB">
<feFlood flood-opacity="0" result="BackgroundImageFix"/>
<feColorMatrix in="SourceAlpha" type="matrix" values="0 0 0 0 0 0 0 0 0 0 0 0 0 0 0 0 0 0 127 0"/>
<feOffset dx="4" dy="4"/>
<feColorMatrix type="matrix" values="0 0 0 0 0.513733 0 0 0 0 0.767915 0 0 0 0 0.970833 0 0 0 1 0"/>
<feBlend mode="normal" in2="BackgroundImageFix" result="effect1_dropShadow"/>
<feBlend mode="normal" in="SourceGraphic" in2="effect1_dropShadow" result="shape"/>
</filter>
<filter id="filter3_d" x="20" y="123" width="184" height="44" filterUnits="userSpaceOnUse" color-interpolation-filters="sRGB">
<feFlood flood-opacity="0" result="BackgroundImageFix"/>
<feColorMatrix in="SourceAlpha" type="matrix" values="0 0 0 0 0 0 0 0 0 0 0 0 0 0 0 0 0 0 127 0"/>
<feOffset dx="4" dy="4"/>
<feColorMatrix type="matrix" values="0 0 0 0 0.513733 0 0 0 0 0.767915 0 0 0 0 0.970833 0 0 0 1 0"/>
<feBlend mode="normal" in2="BackgroundImageFix" result="effect1_dropShadow"/>
<feBlend mode="normal" in="SourceGraphic" in2="effect1_dropShadow" result="shape"/>
</filter>
</defs>
</svg>
