<svg width="1142" height="467" viewBox="0 0 1142 467" fill="none" xmlns="http://www.w3.org/2000/svg">
<path d="M7.01562 22V10.625H11C12.3802 10.625 13.4271 10.8906 14.1406 11.4219C14.8542 11.9479 15.2109 12.7214 15.2109 13.7422C15.2109 14.2995 15.0677 14.7917 14.7812 15.2188C14.4948 15.6406 14.0964 15.9505 13.5859 16.1484C14.1693 16.2943 14.6276 16.5885 14.9609 17.0312C15.2995 17.474 15.4688 18.0156 15.4688 18.6562C15.4688 19.75 15.1198 20.5781 14.4219 21.1406C13.724 21.7031 12.7292 21.9896 11.4375 22H7.01562ZM9.35938 17.0469V20.1172H11.3672C11.9193 20.1172 12.349 19.987 12.6562 19.7266C12.9688 19.4609 13.125 19.0964 13.125 18.6328C13.125 17.5911 12.5859 17.0625 11.5078 17.0469H9.35938ZM9.35938 15.3906H11.0938C12.276 15.3698 12.8672 14.8984 12.8672 13.9766C12.8672 13.4609 12.7161 13.0911 12.4141 12.8672C12.1172 12.638 11.6458 12.5234 11 12.5234H9.35938V15.3906ZM19.4688 22H17.2031V13.5469H19.4688V22ZM17.0703 11.3594C17.0703 11.0208 17.1823 10.7422 17.4062 10.5234C17.6354 10.3047 17.9453 10.1953 18.3359 10.1953C18.7214 10.1953 19.0286 10.3047 19.2578 10.5234C19.487 10.7422 19.6016 11.0208 19.6016 11.3594C19.6016 11.7031 19.4844 11.9844 19.25 12.2031C19.0208 12.4219 18.7161 12.5312 18.3359 12.5312C17.9557 12.5312 17.6484 12.4219 17.4141 12.2031C17.1849 11.9844 17.0703 11.7031 17.0703 11.3594ZM24.0391 11.4688V13.5469H25.4844V15.2031H24.0391V19.4219C24.0391 19.7344 24.099 19.9583 24.2188 20.0938C24.3385 20.2292 24.5677 20.2969 24.9062 20.2969C25.1562 20.2969 25.3776 20.2786 25.5703 20.2422V21.9531C25.1276 22.0885 24.6719 22.1562 24.2031 22.1562C22.6198 22.1562 21.8125 21.3568 21.7812 19.7578V15.2031H20.5469V13.5469H21.7812V11.4688H24.0391ZM30.2578 20.3359C30.6745 20.3359 31.013 20.2214 31.2734 19.9922C31.5339 19.763 31.6693 19.4583 31.6797 19.0781H33.7969C33.7917 19.651 33.6354 20.1771 33.3281 20.6562C33.0208 21.1302 32.599 21.5 32.0625 21.7656C31.5312 22.026 30.9427 22.1562 30.2969 22.1562C29.0885 22.1562 28.1354 21.7734 27.4375 21.0078C26.7396 20.237 26.3906 19.1745 26.3906 17.8203V17.6719C26.3906 16.3698 26.737 15.3307 27.4297 14.5547C28.1224 13.7786 29.0729 13.3906 30.2812 13.3906C31.3385 13.3906 32.1849 13.6927 32.8203 14.2969C33.4609 14.8958 33.7865 15.6953 33.7969 16.6953H31.6797C31.6693 16.2578 31.5339 15.9036 31.2734 15.6328C31.013 15.3568 30.6693 15.2188 30.2422 15.2188C29.7161 15.2188 29.3177 15.4115 29.0469 15.7969C28.7812 16.1771 28.6484 16.7969 28.6484 17.6562V17.8906C28.6484 18.7604 28.7812 19.3854 29.0469 19.7656C29.3125 20.1458 29.7161 20.3359 30.2578 20.3359ZM34.7344 17.6953C34.7344 16.8568 34.8958 16.1094 35.2188 15.4531C35.5417 14.7969 36.0052 14.2891 36.6094 13.9297C37.2188 13.5703 37.9245 13.3906 38.7266 13.3906C39.8672 13.3906 40.7969 13.7396 41.5156 14.4375C42.2396 15.1354 42.6432 16.0833 42.7266 17.2812L42.7422 17.8594C42.7422 19.1562 42.3802 20.1979 41.6562 20.9844C40.9323 21.7656 39.9609 22.1562 38.7422 22.1562C37.5234 22.1562 36.5495 21.7656 35.8203 20.9844C35.0964 20.2031 34.7344 19.1406 34.7344 17.7969V17.6953ZM36.9922 17.8594C36.9922 18.6615 37.1432 19.276 37.4453 19.7031C37.7474 20.125 38.1797 20.3359 38.7422 20.3359C39.2891 20.3359 39.7161 20.1276 40.0234 19.7109C40.3307 19.2891 40.4844 18.6172 40.4844 17.6953C40.4844 16.9089 40.3307 16.2995 40.0234 15.8672C39.7161 15.4349 39.2839 15.2188 38.7266 15.2188C38.1745 15.2188 37.7474 15.4349 37.4453 15.8672C37.1432 16.2943 36.9922 16.9583 36.9922 17.8594ZM46.5156 22H44.25V13.5469H46.5156V22ZM44.1172 11.3594C44.1172 11.0208 44.2292 10.7422 44.4531 10.5234C44.6823 10.3047 44.9922 10.1953 45.3828 10.1953C45.7682 10.1953 46.0755 10.3047 46.3047 10.5234C46.5339 10.7422 46.6484 11.0208 46.6484 11.3594C46.6484 11.7031 46.5312 11.9844 46.2969 12.2031C46.0677 12.4219 45.763 12.5312 45.3828 12.5312C45.0026 12.5312 44.6953 12.4219 44.4609 12.2031C44.2318 11.9844 44.1172 11.7031 44.1172 11.3594ZM50.4609 13.5469L50.5312 14.5234C51.1354 13.7682 51.9453 13.3906 52.9609 13.3906C53.8568 13.3906 54.5234 13.6536 54.9609 14.1797C55.3984 14.7057 55.6224 15.4922 55.6328 16.5391V22H53.375V16.5938C53.375 16.1146 53.2708 15.7682 53.0625 15.5547C52.8542 15.3359 52.5078 15.2266 52.0234 15.2266C51.388 15.2266 50.9115 15.4974 50.5938 16.0391V22H48.3359V13.5469H50.4609ZM70.7422 22H68.3984V17.125H63.8281V22H61.4844V10.625H63.8281V15.2344H68.3984V10.625H70.7422V22ZM77.5469 22C77.4427 21.7969 77.3672 21.5443 77.3203 21.2422C76.7734 21.8516 76.0625 22.1562 75.1875 22.1562C74.3594 22.1562 73.6719 21.9167 73.125 21.4375C72.5833 20.9583 72.3125 20.3542 72.3125 19.625C72.3125 18.7292 72.6432 18.0417 73.3047 17.5625C73.9714 17.0833 74.9323 16.8411 76.1875 16.8359H77.2266V16.3516C77.2266 15.9609 77.125 15.6484 76.9219 15.4141C76.724 15.1797 76.4089 15.0625 75.9766 15.0625C75.5964 15.0625 75.2969 15.1536 75.0781 15.3359C74.8646 15.5182 74.7578 15.7682 74.7578 16.0859H72.5C72.5 15.5964 72.651 15.1432 72.9531 14.7266C73.2552 14.3099 73.6823 13.9844 74.2344 13.75C74.7865 13.5104 75.4062 13.3906 76.0938 13.3906C77.1354 13.3906 77.9609 13.6536 78.5703 14.1797C79.1849 14.7005 79.4922 15.4349 79.4922 16.3828V20.0469C79.4974 20.849 79.6094 21.4557 79.8281 21.8672V22H77.5469ZM75.6797 20.4297C76.013 20.4297 76.3203 20.3568 76.6016 20.2109C76.8828 20.0599 77.0911 19.8594 77.2266 19.6094V18.1562H76.3828C75.2526 18.1562 74.651 18.5469 74.5781 19.3281L74.5703 19.4609C74.5703 19.7422 74.6693 19.974 74.8672 20.1562C75.0651 20.3385 75.3359 20.4297 75.6797 20.4297ZM85.9766 15.6641C85.6693 15.6224 85.3984 15.6016 85.1641 15.6016C84.3099 15.6016 83.75 15.8906 83.4844 16.4688V22H81.2266V13.5469H83.3594L83.4219 14.5547C83.875 13.7786 84.5026 13.3906 85.3047 13.3906C85.5547 13.3906 85.7891 13.4245 86.0078 13.4922L85.9766 15.6641ZM86.5625 17.7109C86.5625 16.3932 86.8568 15.3438 87.4453 14.5625C88.0391 13.7812 88.849 13.3906 89.875 13.3906C90.6979 13.3906 91.3776 13.6979 91.9141 14.3125V10H94.1797V22H92.1406L92.0312 21.1016C91.4688 21.8047 90.7448 22.1562 89.8594 22.1562C88.8646 22.1562 88.0651 21.7656 87.4609 20.9844C86.862 20.1979 86.5625 19.1068 86.5625 17.7109ZM88.8203 17.875C88.8203 18.6667 88.9583 19.2734 89.2344 19.6953C89.5104 20.1172 89.9115 20.3281 90.4375 20.3281C91.1354 20.3281 91.6276 20.0339 91.9141 19.4453V16.1094C91.6328 15.5208 91.1458 15.2266 90.4531 15.2266C89.3646 15.2266 88.8203 16.1094 88.8203 17.875ZM100.32 18.0391H95.9219V16.2188H100.32V18.0391ZM109.125 17.3516H104.625V22H102.281V10.625H109.688V12.5234H104.625V15.4609H109.125V17.3516ZM110.375 17.6953C110.375 16.8568 110.536 16.1094 110.859 15.4531C111.182 14.7969 111.646 14.2891 112.25 13.9297C112.859 13.5703 113.565 13.3906 114.367 13.3906C115.508 13.3906 116.438 13.7396 117.156 14.4375C117.88 15.1354 118.284 16.0833 118.367 17.2812L118.383 17.8594C118.383 19.1562 118.021 20.1979 117.297 20.9844C116.573 21.7656 115.602 22.1562 114.383 22.1562C113.164 22.1562 112.19 21.7656 111.461 20.9844C110.737 20.2031 110.375 19.1406 110.375 17.7969V17.6953ZM112.633 17.8594C112.633 18.6615 112.784 19.276 113.086 19.7031C113.388 20.125 113.82 20.3359 114.383 20.3359C114.93 20.3359 115.357 20.1276 115.664 19.7109C115.971 19.2891 116.125 18.6172 116.125 17.6953C116.125 16.9089 115.971 16.2995 115.664 15.8672C115.357 15.4349 114.924 15.2188 114.367 15.2188C113.815 15.2188 113.388 15.4349 113.086 15.8672C112.784 16.2943 112.633 16.9583 112.633 17.8594ZM124.523 15.6641C124.216 15.6224 123.945 15.6016 123.711 15.6016C122.857 15.6016 122.297 15.8906 122.031 16.4688V22H119.773V13.5469H121.906L121.969 14.5547C122.422 13.7786 123.049 13.3906 123.852 13.3906C124.102 13.3906 124.336 13.4245 124.555 13.4922L124.523 15.6641ZM128.688 18.6094L127.875 19.4219V22H125.617V10H127.875V16.6484L128.312 16.0859L130.477 13.5469H133.188L130.133 17.0703L133.453 22H130.859L128.688 18.6094ZM138.742 19.6641C138.742 19.388 138.604 19.1719 138.328 19.0156C138.057 18.8542 137.62 18.7109 137.016 18.5859C135.005 18.1641 134 17.3099 134 16.0234C134 15.2734 134.31 14.6484 134.93 14.1484C135.555 13.6432 136.37 13.3906 137.375 13.3906C138.448 13.3906 139.305 13.6432 139.945 14.1484C140.591 14.6536 140.914 15.3099 140.914 16.1172H138.656C138.656 15.7943 138.552 15.5286 138.344 15.3203C138.135 15.1068 137.81 15 137.367 15C136.987 15 136.693 15.0859 136.484 15.2578C136.276 15.4297 136.172 15.6484 136.172 15.9141C136.172 16.1641 136.289 16.3672 136.523 16.5234C136.763 16.6745 137.164 16.8073 137.727 16.9219C138.289 17.0312 138.763 17.1562 139.148 17.2969C140.341 17.7344 140.938 18.4922 140.938 19.5703C140.938 20.3411 140.607 20.9661 139.945 21.4453C139.284 21.9193 138.43 22.1562 137.383 22.1562C136.674 22.1562 136.044 22.0312 135.492 21.7812C134.945 21.526 134.516 21.1797 134.203 20.7422C133.891 20.2995 133.734 19.8229 133.734 19.3125H135.875C135.896 19.7135 136.044 20.0208 136.32 20.2344C136.596 20.4479 136.966 20.5547 137.43 20.5547C137.862 20.5547 138.188 20.474 138.406 20.3125C138.63 20.1458 138.742 19.9297 138.742 19.6641ZM146.484 17.375C146.484 16.1823 146.643 15.0469 146.961 13.9688C147.279 12.8906 147.747 11.9375 148.367 11.1094C148.987 10.276 149.659 9.69792 150.383 9.375L150.82 10.5938C150.06 11.1562 149.466 12.026 149.039 13.2031C148.612 14.3802 148.398 15.7552 148.398 17.3281V17.5703C148.398 19.1484 148.609 20.5286 149.031 21.7109C149.453 22.8932 150.049 23.776 150.82 24.3594L150.383 25.5547C149.674 25.237 149.013 24.6745 148.398 23.8672C147.789 23.0651 147.323 22.138 147 21.0859C146.677 20.0339 146.505 18.9349 146.484 17.7891V17.375ZM157.398 22H155.141V13.2969L152.445 14.1328V12.2969L157.156 10.6094H157.398V22ZM168.758 17.2969C168.758 18.8698 168.432 20.0729 167.781 20.9062C167.13 21.7396 166.177 22.1562 164.922 22.1562C163.682 22.1562 162.734 21.7474 162.078 20.9297C161.422 20.112 161.086 18.9401 161.07 17.4141V15.3203C161.07 13.7318 161.398 12.526 162.055 11.7031C162.716 10.8802 163.667 10.4688 164.906 10.4688C166.146 10.4688 167.094 10.8776 167.75 11.6953C168.406 12.5078 168.742 13.6771 168.758 15.2031V17.2969ZM166.5 15C166.5 14.0573 166.37 13.3724 166.109 12.9453C165.854 12.513 165.453 12.2969 164.906 12.2969C164.375 12.2969 163.982 12.5026 163.727 12.9141C163.477 13.3203 163.344 13.9583 163.328 14.8281V17.5938C163.328 18.5208 163.453 19.2109 163.703 19.6641C163.958 20.112 164.365 20.3359 164.922 20.3359C165.474 20.3359 165.872 20.1198 166.117 19.6875C166.362 19.2552 166.49 18.5938 166.5 17.7031V15ZM177.945 17.2969C177.945 18.8698 177.62 20.0729 176.969 20.9062C176.318 21.7396 175.365 22.1562 174.109 22.1562C172.87 22.1562 171.922 21.7474 171.266 20.9297C170.609 20.112 170.273 18.9401 170.258 17.4141V15.3203C170.258 13.7318 170.586 12.526 171.242 11.7031C171.904 10.8802 172.854 10.4688 174.094 10.4688C175.333 10.4688 176.281 10.8776 176.938 11.6953C177.594 12.5078 177.93 13.6771 177.945 15.2031V17.2969ZM175.688 15C175.688 14.0573 175.557 13.3724 175.297 12.9453C175.042 12.513 174.641 12.2969 174.094 12.2969C173.562 12.2969 173.169 12.5026 172.914 12.9141C172.664 13.3203 172.531 13.9583 172.516 14.8281V17.5938C172.516 18.5208 172.641 19.2109 172.891 19.6641C173.146 20.112 173.552 20.3359 174.109 20.3359C174.661 20.3359 175.06 20.1198 175.305 19.6875C175.549 19.2552 175.677 18.5938 175.688 17.7031V15ZM184.125 15.6328H186.945V17.6719H184.125V20.8594H181.977V17.6719H179.148V15.6328H181.977V12.5781H184.125V15.6328ZM192.195 17.5547C192.195 18.7318 192.026 19.8646 191.688 20.9531C191.349 22.0417 190.862 23.0026 190.227 23.8359C189.591 24.6693 188.911 25.2422 188.188 25.5547L187.75 24.3594C188.49 23.8021 189.073 22.9427 189.5 21.7812C189.927 20.6198 190.148 19.2839 190.164 17.7734V17.3594C190.164 15.8021 189.951 14.4297 189.523 13.2422C189.102 12.0547 188.51 11.1641 187.75 10.5703L188.188 9.375C188.896 9.68229 189.562 10.2396 190.188 11.0469C190.818 11.8542 191.305 12.7943 191.648 13.8672C191.997 14.9401 192.18 16.0521 192.195 17.2031V17.5547Z" fill="#FF5A43"/>
<path d="M15.5781 395.523H12.0938V405H9.75V395.523H6.3125V393.625H15.5781V395.523ZM19.9609 405.156C18.7214 405.156 17.7109 404.776 16.9297 404.016C16.1536 403.255 15.7656 402.242 15.7656 400.977V400.758C15.7656 399.909 15.9297 399.151 16.2578 398.484C16.5859 397.812 17.0495 397.297 17.6484 396.938C18.2526 396.573 18.9401 396.391 19.7109 396.391C20.8672 396.391 21.776 396.755 22.4375 397.484C23.1042 398.214 23.4375 399.247 23.4375 400.586V401.508H18.0547C18.1276 402.06 18.3464 402.503 18.7109 402.836C19.0807 403.169 19.5469 403.336 20.1094 403.336C20.9792 403.336 21.6589 403.021 22.1484 402.391L23.2578 403.633C22.9193 404.112 22.4609 404.487 21.8828 404.758C21.3047 405.023 20.6641 405.156 19.9609 405.156ZM19.7031 398.219C19.2552 398.219 18.8906 398.37 18.6094 398.672C18.3333 398.974 18.1562 399.406 18.0781 399.969H21.2188V399.789C21.2083 399.289 21.0729 398.904 20.8125 398.633C20.5521 398.357 20.1823 398.219 19.7031 398.219ZM27.3203 403.18H31.4531V405H24.4375V403.625L28.4141 398.375H24.5547V396.547H31.3281V397.883L27.3203 403.18ZM32.3906 400.695C32.3906 399.857 32.5521 399.109 32.875 398.453C33.1979 397.797 33.6615 397.289 34.2656 396.93C34.875 396.57 35.5807 396.391 36.3828 396.391C37.5234 396.391 38.4531 396.74 39.1719 397.438C39.8958 398.135 40.2995 399.083 40.3828 400.281L40.3984 400.859C40.3984 402.156 40.0365 403.198 39.3125 403.984C38.5885 404.766 37.6172 405.156 36.3984 405.156C35.1797 405.156 34.2057 404.766 33.4766 403.984C32.7526 403.203 32.3906 402.141 32.3906 400.797V400.695ZM34.6484 400.859C34.6484 401.661 34.7995 402.276 35.1016 402.703C35.4036 403.125 35.8359 403.336 36.3984 403.336C36.9453 403.336 37.3724 403.128 37.6797 402.711C37.987 402.289 38.1406 401.617 38.1406 400.695C38.1406 399.909 37.987 399.299 37.6797 398.867C37.3724 398.435 36.9401 398.219 36.3828 398.219C35.8307 398.219 35.4036 398.435 35.1016 398.867C34.7995 399.294 34.6484 399.958 34.6484 400.859ZM46.3672 402.664C46.3672 402.388 46.2292 402.172 45.9531 402.016C45.6823 401.854 45.2448 401.711 44.6406 401.586C42.6302 401.164 41.625 400.31 41.625 399.023C41.625 398.273 41.9349 397.648 42.5547 397.148C43.1797 396.643 43.9948 396.391 45 396.391C46.0729 396.391 46.9297 396.643 47.5703 397.148C48.2161 397.654 48.5391 398.31 48.5391 399.117H46.2812C46.2812 398.794 46.1771 398.529 45.9688 398.32C45.7604 398.107 45.4349 398 44.9922 398C44.612 398 44.3177 398.086 44.1094 398.258C43.901 398.43 43.7969 398.648 43.7969 398.914C43.7969 399.164 43.9141 399.367 44.1484 399.523C44.388 399.674 44.7891 399.807 45.3516 399.922C45.9141 400.031 46.388 400.156 46.7734 400.297C47.9661 400.734 48.5625 401.492 48.5625 402.57C48.5625 403.341 48.2318 403.966 47.5703 404.445C46.9089 404.919 46.0547 405.156 45.0078 405.156C44.2995 405.156 43.6693 405.031 43.1172 404.781C42.5703 404.526 42.1406 404.18 41.8281 403.742C41.5156 403.299 41.3594 402.823 41.3594 402.312H43.5C43.5208 402.714 43.6693 403.021 43.9453 403.234C44.2214 403.448 44.5911 403.555 45.0547 403.555C45.487 403.555 45.8125 403.474 46.0312 403.312C46.2552 403.146 46.3672 402.93 46.3672 402.664ZM63.4141 405H61.0703V400.125H56.5V405H54.1562V393.625H56.5V398.234H61.0703V393.625H63.4141V405ZM70.2188 405C70.1146 404.797 70.0391 404.544 69.9922 404.242C69.4453 404.852 68.7344 405.156 67.8594 405.156C67.0312 405.156 66.3438 404.917 65.7969 404.438C65.2552 403.958 64.9844 403.354 64.9844 402.625C64.9844 401.729 65.3151 401.042 65.9766 400.562C66.6432 400.083 67.6042 399.841 68.8594 399.836H69.8984V399.352C69.8984 398.961 69.7969 398.648 69.5938 398.414C69.3958 398.18 69.0807 398.062 68.6484 398.062C68.2682 398.062 67.9688 398.154 67.75 398.336C67.5365 398.518 67.4297 398.768 67.4297 399.086H65.1719C65.1719 398.596 65.3229 398.143 65.625 397.727C65.9271 397.31 66.3542 396.984 66.9062 396.75C67.4583 396.51 68.0781 396.391 68.7656 396.391C69.8073 396.391 70.6328 396.654 71.2422 397.18C71.8568 397.701 72.1641 398.435 72.1641 399.383V403.047C72.1693 403.849 72.2812 404.456 72.5 404.867V405H70.2188ZM68.3516 403.43C68.6849 403.43 68.9922 403.357 69.2734 403.211C69.5547 403.06 69.763 402.859 69.8984 402.609V401.156H69.0547C67.9245 401.156 67.3229 401.547 67.25 402.328L67.2422 402.461C67.2422 402.742 67.3411 402.974 67.5391 403.156C67.737 403.339 68.0078 403.43 68.3516 403.43ZM78.6484 398.664C78.3411 398.622 78.0703 398.602 77.8359 398.602C76.9818 398.602 76.4219 398.891 76.1562 399.469V405H73.8984V396.547H76.0312L76.0938 397.555C76.5469 396.779 77.1745 396.391 77.9766 396.391C78.2266 396.391 78.4609 396.424 78.6797 396.492L78.6484 398.664ZM79.2344 400.711C79.2344 399.393 79.5286 398.344 80.1172 397.562C80.7109 396.781 81.5208 396.391 82.5469 396.391C83.3698 396.391 84.0495 396.698 84.5859 397.312V393H86.8516V405H84.8125L84.7031 404.102C84.1406 404.805 83.4167 405.156 82.5312 405.156C81.5365 405.156 80.737 404.766 80.1328 403.984C79.5339 403.198 79.2344 402.107 79.2344 400.711ZM81.4922 400.875C81.4922 401.667 81.6302 402.273 81.9062 402.695C82.1823 403.117 82.5833 403.328 83.1094 403.328C83.8073 403.328 84.2995 403.034 84.5859 402.445V399.109C84.3047 398.521 83.8177 398.227 83.125 398.227C82.0365 398.227 81.4922 399.109 81.4922 400.875ZM92.9922 401.039H88.5938V399.219H92.9922V401.039ZM101.797 400.352H97.2969V405H94.9531V393.625H102.359V395.523H97.2969V398.461H101.797V400.352ZM103.047 400.695C103.047 399.857 103.208 399.109 103.531 398.453C103.854 397.797 104.318 397.289 104.922 396.93C105.531 396.57 106.237 396.391 107.039 396.391C108.18 396.391 109.109 396.74 109.828 397.438C110.552 398.135 110.956 399.083 111.039 400.281L111.055 400.859C111.055 402.156 110.693 403.198 109.969 403.984C109.245 404.766 108.273 405.156 107.055 405.156C105.836 405.156 104.862 404.766 104.133 403.984C103.409 403.203 103.047 402.141 103.047 400.797V400.695ZM105.305 400.859C105.305 401.661 105.456 402.276 105.758 402.703C106.06 403.125 106.492 403.336 107.055 403.336C107.602 403.336 108.029 403.128 108.336 402.711C108.643 402.289 108.797 401.617 108.797 400.695C108.797 399.909 108.643 399.299 108.336 398.867C108.029 398.435 107.596 398.219 107.039 398.219C106.487 398.219 106.06 398.435 105.758 398.867C105.456 399.294 105.305 399.958 105.305 400.859ZM117.195 398.664C116.888 398.622 116.617 398.602 116.383 398.602C115.529 398.602 114.969 398.891 114.703 399.469V405H112.445V396.547H114.578L114.641 397.555C115.094 396.779 115.721 396.391 116.523 396.391C116.773 396.391 117.008 396.424 117.227 396.492L117.195 398.664ZM121.359 401.609L120.547 402.422V405H118.289V393H120.547V399.648L120.984 399.086L123.148 396.547H125.859L122.805 400.07L126.125 405H123.531L121.359 401.609ZM131.414 402.664C131.414 402.388 131.276 402.172 131 402.016C130.729 401.854 130.292 401.711 129.688 401.586C127.677 401.164 126.672 400.31 126.672 399.023C126.672 398.273 126.982 397.648 127.602 397.148C128.227 396.643 129.042 396.391 130.047 396.391C131.12 396.391 131.977 396.643 132.617 397.148C133.263 397.654 133.586 398.31 133.586 399.117H131.328C131.328 398.794 131.224 398.529 131.016 398.32C130.807 398.107 130.482 398 130.039 398C129.659 398 129.365 398.086 129.156 398.258C128.948 398.43 128.844 398.648 128.844 398.914C128.844 399.164 128.961 399.367 129.195 399.523C129.435 399.674 129.836 399.807 130.398 399.922C130.961 400.031 131.435 400.156 131.82 400.297C133.013 400.734 133.609 401.492 133.609 402.57C133.609 403.341 133.279 403.966 132.617 404.445C131.956 404.919 131.102 405.156 130.055 405.156C129.346 405.156 128.716 405.031 128.164 404.781C127.617 404.526 127.188 404.18 126.875 403.742C126.562 403.299 126.406 402.823 126.406 402.312H128.547C128.568 402.714 128.716 403.021 128.992 403.234C129.268 403.448 129.638 403.555 130.102 403.555C130.534 403.555 130.859 403.474 131.078 403.312C131.302 403.146 131.414 402.93 131.414 402.664ZM139.156 400.375C139.156 399.182 139.315 398.047 139.633 396.969C139.951 395.891 140.419 394.938 141.039 394.109C141.659 393.276 142.331 392.698 143.055 392.375L143.492 393.594C142.732 394.156 142.138 395.026 141.711 396.203C141.284 397.38 141.07 398.755 141.07 400.328V400.57C141.07 402.148 141.281 403.529 141.703 404.711C142.125 405.893 142.721 406.776 143.492 407.359L143.055 408.555C142.346 408.237 141.685 407.674 141.07 406.867C140.461 406.065 139.995 405.138 139.672 404.086C139.349 403.034 139.177 401.935 139.156 400.789V400.375ZM152.242 400.297C152.242 401.87 151.917 403.073 151.266 403.906C150.615 404.74 149.661 405.156 148.406 405.156C147.167 405.156 146.219 404.747 145.562 403.93C144.906 403.112 144.57 401.94 144.555 400.414V398.32C144.555 396.732 144.883 395.526 145.539 394.703C146.201 393.88 147.151 393.469 148.391 393.469C149.63 393.469 150.578 393.878 151.234 394.695C151.891 395.508 152.227 396.677 152.242 398.203V400.297ZM149.984 398C149.984 397.057 149.854 396.372 149.594 395.945C149.339 395.513 148.938 395.297 148.391 395.297C147.859 395.297 147.466 395.503 147.211 395.914C146.961 396.32 146.828 396.958 146.812 397.828V400.594C146.812 401.521 146.938 402.211 147.188 402.664C147.443 403.112 147.849 403.336 148.406 403.336C148.958 403.336 149.357 403.12 149.602 402.688C149.846 402.255 149.974 401.594 149.984 400.703V398ZM157.758 400.555C157.758 401.732 157.589 402.865 157.25 403.953C156.911 405.042 156.424 406.003 155.789 406.836C155.154 407.669 154.474 408.242 153.75 408.555L153.312 407.359C154.052 406.802 154.635 405.943 155.062 404.781C155.49 403.62 155.711 402.284 155.727 400.773V400.359C155.727 398.802 155.513 397.43 155.086 396.242C154.664 395.055 154.073 394.164 153.312 393.57L153.75 392.375C154.458 392.682 155.125 393.24 155.75 394.047C156.38 394.854 156.867 395.794 157.211 396.867C157.56 397.94 157.742 399.052 157.758 400.203V400.555Z" fill="#2097F6"/>
<line x1="16" y1="456.5" x2="1027" y2="456.5" stroke="#2097F6" stroke-width="2"/>
<path d="M1017 447L1027.5 456.5L1017 465.5" stroke="#2097F6" stroke-width="2" stroke-linecap="round" stroke-linejoin="round"/>
<circle cx="11.5" cy="457" r="5.5" stroke="#2097F6" stroke-width="2"/>
<path d="M1017 447L1027.5 456.5L1017 465.5" stroke="#2097F6" stroke-width="2" stroke-linecap="round" stroke-linejoin="round"/>
<path d="M1040.16 173V163.047H1043.41C1044.49 163.047 1045.3 163.27 1045.84 163.717C1046.39 164.163 1046.66 164.824 1046.66 165.699C1046.66 166.164 1046.53 166.576 1046.27 166.937C1046 167.292 1045.64 167.568 1045.19 167.764C1045.72 167.914 1046.15 168.201 1046.46 168.625C1046.77 169.044 1046.93 169.546 1046.93 170.129C1046.93 171.022 1046.64 171.724 1046.06 172.234C1045.48 172.745 1044.66 173 1043.61 173H1040.16ZM1041.47 168.345V171.927H1043.63C1044.25 171.927 1044.73 171.77 1045.08 171.455C1045.43 171.136 1045.61 170.699 1045.61 170.143C1045.61 168.944 1044.96 168.345 1043.66 168.345H1041.47ZM1041.47 167.292H1043.45C1044.02 167.292 1044.48 167.148 1044.82 166.861C1045.17 166.574 1045.34 166.185 1045.34 165.692C1045.34 165.146 1045.18 164.749 1044.87 164.503C1044.55 164.252 1044.06 164.127 1043.41 164.127H1041.47V167.292ZM1050.05 173H1048.79V165.604H1050.05V173ZM1048.69 163.642C1048.69 163.437 1048.75 163.263 1048.87 163.122C1049 162.981 1049.19 162.91 1049.43 162.91C1049.68 162.91 1049.86 162.981 1049.99 163.122C1050.12 163.263 1050.18 163.437 1050.18 163.642C1050.18 163.847 1050.12 164.018 1049.99 164.154C1049.86 164.291 1049.68 164.359 1049.43 164.359C1049.19 164.359 1049 164.291 1048.87 164.154C1048.75 164.018 1048.69 163.847 1048.69 163.642ZM1053.8 163.812V165.604H1055.18V166.581H1053.8V171.168C1053.8 171.464 1053.86 171.688 1053.98 171.838C1054.11 171.984 1054.32 172.057 1054.61 172.057C1054.76 172.057 1054.96 172.029 1055.21 171.975V173C1054.88 173.091 1054.56 173.137 1054.24 173.137C1053.68 173.137 1053.25 172.966 1052.97 172.624C1052.68 172.282 1052.54 171.797 1052.54 171.168V166.581H1051.19V165.604H1052.54V163.812H1053.8ZM1059.63 172.104C1060.08 172.104 1060.48 171.968 1060.81 171.694C1061.15 171.421 1061.34 171.079 1061.37 170.669H1062.57C1062.55 171.093 1062.4 171.496 1062.13 171.879C1061.86 172.262 1061.5 172.567 1061.05 172.795C1060.61 173.023 1060.13 173.137 1059.63 173.137C1058.62 173.137 1057.82 172.802 1057.22 172.132C1056.63 171.457 1056.34 170.537 1056.34 169.37V169.158C1056.34 168.438 1056.47 167.798 1056.73 167.237C1057 166.677 1057.38 166.242 1057.87 165.932C1058.36 165.622 1058.95 165.467 1059.62 165.467C1060.45 165.467 1061.14 165.715 1061.69 166.212C1062.24 166.709 1062.53 167.354 1062.57 168.146H1061.37C1061.34 167.668 1061.16 167.276 1060.83 166.971C1060.5 166.661 1060.1 166.506 1059.62 166.506C1058.98 166.506 1058.48 166.738 1058.13 167.203C1057.78 167.663 1057.6 168.331 1057.6 169.206V169.445C1057.6 170.298 1057.78 170.954 1058.13 171.414C1058.48 171.874 1058.98 172.104 1059.63 172.104ZM1063.66 169.233C1063.66 168.509 1063.8 167.857 1064.08 167.278C1064.37 166.7 1064.76 166.253 1065.27 165.938C1065.78 165.624 1066.36 165.467 1067.01 165.467C1068.02 165.467 1068.83 165.815 1069.45 166.513C1070.08 167.21 1070.39 168.137 1070.39 169.295V169.384C1070.39 170.104 1070.25 170.751 1069.97 171.325C1069.7 171.895 1069.31 172.339 1068.79 172.658C1068.28 172.977 1067.69 173.137 1067.03 173.137C1066.02 173.137 1065.21 172.788 1064.59 172.091C1063.97 171.394 1063.66 170.471 1063.66 169.322V169.233ZM1064.93 169.384C1064.93 170.204 1065.12 170.863 1065.5 171.359C1065.88 171.856 1066.39 172.104 1067.03 172.104C1067.67 172.104 1068.18 171.854 1068.56 171.353C1068.94 170.847 1069.13 170.14 1069.13 169.233C1069.13 168.422 1068.93 167.766 1068.54 167.265C1068.16 166.759 1067.65 166.506 1067.01 166.506C1066.39 166.506 1065.89 166.754 1065.5 167.251C1065.12 167.748 1064.93 168.459 1064.93 169.384ZM1073.35 173H1072.09V165.604H1073.35V173ZM1071.98 163.642C1071.98 163.437 1072.04 163.263 1072.17 163.122C1072.3 162.981 1072.48 162.91 1072.73 162.91C1072.97 162.91 1073.16 162.981 1073.29 163.122C1073.42 163.263 1073.48 163.437 1073.48 163.642C1073.48 163.847 1073.42 164.018 1073.29 164.154C1073.16 164.291 1072.97 164.359 1072.73 164.359C1072.48 164.359 1072.3 164.291 1072.17 164.154C1072.04 164.018 1071.98 163.847 1071.98 163.642ZM1076.58 165.604L1076.62 166.533C1077.18 165.822 1077.92 165.467 1078.83 165.467C1080.4 165.467 1081.18 166.349 1081.2 168.112V173H1079.93V168.105C1079.93 167.572 1079.81 167.178 1079.56 166.923C1079.33 166.668 1078.96 166.54 1078.45 166.54C1078.04 166.54 1077.68 166.649 1077.37 166.868C1077.06 167.087 1076.82 167.374 1076.65 167.729V173H1075.38V165.604H1076.58Z" fill="#FF5A43"/>
<path d="M1040.16 122V112.047H1043.41C1044.49 112.047 1045.3 112.27 1045.84 112.717C1046.39 113.163 1046.66 113.824 1046.66 114.699C1046.66 115.164 1046.53 115.576 1046.27 115.937C1046 116.292 1045.64 116.568 1045.19 116.764C1045.72 116.914 1046.15 117.201 1046.46 117.625C1046.77 118.044 1046.93 118.546 1046.93 119.129C1046.93 120.022 1046.64 120.724 1046.06 121.234C1045.48 121.745 1044.66 122 1043.61 122H1040.16ZM1041.47 117.345V120.927H1043.63C1044.25 120.927 1044.73 120.77 1045.08 120.455C1045.43 120.136 1045.61 119.699 1045.61 119.143C1045.61 117.944 1044.96 117.345 1043.66 117.345H1041.47ZM1041.47 116.292H1043.45C1044.02 116.292 1044.48 116.148 1044.82 115.861C1045.17 115.574 1045.34 115.185 1045.34 114.692C1045.34 114.146 1045.18 113.749 1044.87 113.503C1044.55 113.252 1044.06 113.127 1043.41 113.127H1041.47V116.292ZM1050.05 122H1048.79V114.604H1050.05V122ZM1048.69 112.642C1048.69 112.437 1048.75 112.263 1048.87 112.122C1049 111.981 1049.19 111.91 1049.43 111.91C1049.68 111.91 1049.86 111.981 1049.99 112.122C1050.12 112.263 1050.18 112.437 1050.18 112.642C1050.18 112.847 1050.12 113.018 1049.99 113.154C1049.86 113.291 1049.68 113.359 1049.43 113.359C1049.19 113.359 1049 113.291 1048.87 113.154C1048.75 113.018 1048.69 112.847 1048.69 112.642ZM1053.8 112.812V114.604H1055.18V115.581H1053.8V120.168C1053.8 120.464 1053.86 120.688 1053.98 120.838C1054.11 120.984 1054.32 121.057 1054.61 121.057C1054.76 121.057 1054.96 121.029 1055.21 120.975V122C1054.88 122.091 1054.56 122.137 1054.24 122.137C1053.68 122.137 1053.25 121.966 1052.97 121.624C1052.68 121.282 1052.54 120.797 1052.54 120.168V115.581H1051.19V114.604H1052.54V112.812H1053.8ZM1059.63 121.104C1060.08 121.104 1060.48 120.968 1060.81 120.694C1061.15 120.421 1061.34 120.079 1061.37 119.669H1062.57C1062.55 120.093 1062.4 120.496 1062.13 120.879C1061.86 121.262 1061.5 121.567 1061.05 121.795C1060.61 122.023 1060.13 122.137 1059.63 122.137C1058.62 122.137 1057.82 121.802 1057.22 121.132C1056.63 120.457 1056.34 119.537 1056.34 118.37V118.158C1056.34 117.438 1056.47 116.798 1056.73 116.237C1057 115.677 1057.38 115.242 1057.87 114.932C1058.36 114.622 1058.95 114.467 1059.62 114.467C1060.45 114.467 1061.14 114.715 1061.69 115.212C1062.24 115.709 1062.53 116.354 1062.57 117.146H1061.37C1061.34 116.668 1061.16 116.276 1060.83 115.971C1060.5 115.661 1060.1 115.506 1059.62 115.506C1058.98 115.506 1058.48 115.738 1058.13 116.203C1057.78 116.663 1057.6 117.331 1057.6 118.206V118.445C1057.6 119.298 1057.78 119.954 1058.13 120.414C1058.48 120.874 1058.98 121.104 1059.63 121.104ZM1063.66 118.233C1063.66 117.509 1063.8 116.857 1064.08 116.278C1064.37 115.7 1064.76 115.253 1065.27 114.938C1065.78 114.624 1066.36 114.467 1067.01 114.467C1068.02 114.467 1068.83 114.815 1069.45 115.513C1070.08 116.21 1070.39 117.137 1070.39 118.295V118.384C1070.39 119.104 1070.25 119.751 1069.97 120.325C1069.7 120.895 1069.31 121.339 1068.79 121.658C1068.28 121.977 1067.69 122.137 1067.03 122.137C1066.02 122.137 1065.21 121.788 1064.59 121.091C1063.97 120.394 1063.66 119.471 1063.66 118.322V118.233ZM1064.93 118.384C1064.93 119.204 1065.12 119.863 1065.5 120.359C1065.88 120.856 1066.39 121.104 1067.03 121.104C1067.67 121.104 1068.18 120.854 1068.56 120.353C1068.94 119.847 1069.13 119.14 1069.13 118.233C1069.13 117.422 1068.93 116.766 1068.54 116.265C1068.16 115.759 1067.65 115.506 1067.01 115.506C1066.39 115.506 1065.89 115.754 1065.5 116.251C1065.12 116.748 1064.93 117.459 1064.93 118.384ZM1073.35 122H1072.09V114.604H1073.35V122ZM1071.98 112.642C1071.98 112.437 1072.04 112.263 1072.17 112.122C1072.3 111.981 1072.48 111.91 1072.73 111.91C1072.97 111.91 1073.16 111.981 1073.29 112.122C1073.42 112.263 1073.48 112.437 1073.48 112.642C1073.48 112.847 1073.42 113.018 1073.29 113.154C1073.16 113.291 1072.97 113.359 1072.73 113.359C1072.48 113.359 1072.3 113.291 1072.17 113.154C1072.04 113.018 1071.98 112.847 1071.98 112.642ZM1076.58 114.604L1076.62 115.533C1077.18 114.822 1077.92 114.467 1078.83 114.467C1080.4 114.467 1081.18 115.349 1081.2 117.112V122H1079.93V117.105C1079.93 116.572 1079.81 116.178 1079.56 115.923C1079.33 115.668 1078.96 115.54 1078.45 115.54C1078.04 115.54 1077.68 115.649 1077.37 115.868C1077.06 116.087 1076.82 116.374 1076.65 116.729V122H1075.38V114.604H1076.58ZM1094.12 120.694C1093.79 121.177 1093.32 121.54 1092.71 121.781C1092.11 122.018 1091.41 122.137 1090.6 122.137C1089.79 122.137 1089.07 121.948 1088.44 121.569C1087.82 121.187 1087.33 120.644 1086.98 119.942C1086.64 119.241 1086.46 118.427 1086.46 117.502V116.634C1086.46 115.134 1086.8 113.972 1087.5 113.147C1088.2 112.323 1089.19 111.91 1090.45 111.91C1091.49 111.91 1092.33 112.177 1092.96 112.71C1093.6 113.239 1093.98 113.991 1094.12 114.966H1092.81C1092.57 113.649 1091.78 112.99 1090.46 112.99C1089.58 112.99 1088.91 113.3 1088.46 113.92C1088.01 114.535 1087.78 115.428 1087.77 116.6V117.413C1087.77 118.53 1088.03 119.418 1088.54 120.079C1089.05 120.735 1089.74 121.063 1090.61 121.063C1091.1 121.063 1091.53 121.009 1091.9 120.899C1092.27 120.79 1092.58 120.605 1092.82 120.346V118.11H1090.52V117.044H1094.12V120.694ZM1095.79 118.233C1095.79 117.509 1095.93 116.857 1096.21 116.278C1096.5 115.7 1096.89 115.253 1097.4 114.938C1097.91 114.624 1098.49 114.467 1099.14 114.467C1100.15 114.467 1100.96 114.815 1101.58 115.513C1102.21 116.21 1102.52 117.137 1102.52 118.295V118.384C1102.52 119.104 1102.38 119.751 1102.1 120.325C1101.83 120.895 1101.43 121.339 1100.92 121.658C1100.41 121.977 1099.82 122.137 1099.16 122.137C1098.15 122.137 1097.34 121.788 1096.72 121.091C1096.1 120.394 1095.79 119.471 1095.79 118.322V118.233ZM1097.06 118.384C1097.06 119.204 1097.25 119.863 1097.62 120.359C1098.01 120.856 1098.52 121.104 1099.16 121.104C1099.8 121.104 1100.31 120.854 1100.69 120.353C1101.07 119.847 1101.25 119.14 1101.25 118.233C1101.25 117.422 1101.06 116.766 1100.67 116.265C1100.29 115.759 1099.78 115.506 1099.14 115.506C1098.52 115.506 1098.01 115.754 1097.63 116.251C1097.25 116.748 1097.06 117.459 1097.06 118.384ZM1105.48 122H1104.21V111.5H1105.48V122ZM1107.2 118.24C1107.2 117.105 1107.47 116.194 1108.01 115.506C1108.55 114.813 1109.25 114.467 1110.12 114.467C1110.99 114.467 1111.67 114.763 1112.18 115.355V111.5H1113.44V122H1112.28L1112.22 121.207C1111.71 121.827 1111.01 122.137 1110.11 122.137C1109.25 122.137 1108.55 121.786 1108.01 121.084C1107.47 120.382 1107.2 119.466 1107.2 118.336V118.24ZM1108.47 118.384C1108.47 119.222 1108.64 119.879 1108.99 120.353C1109.33 120.826 1109.81 121.063 1110.42 121.063C1111.22 121.063 1111.81 120.703 1112.18 119.983V116.586C1111.8 115.889 1111.22 115.54 1110.44 115.54C1109.82 115.54 1109.33 115.779 1108.99 116.258C1108.64 116.736 1108.47 117.445 1108.47 118.384Z" fill="#FF5A43"/>
<path d="M1040.16 74V64.0469H1043.41C1044.49 64.0469 1045.3 64.2702 1045.84 64.7168C1046.39 65.1634 1046.66 65.8242 1046.66 66.6992C1046.66 67.1641 1046.53 67.5765 1046.27 67.9365C1046 68.292 1045.64 68.5677 1045.19 68.7637C1045.72 68.9141 1046.15 69.2012 1046.46 69.625C1046.77 70.0443 1046.93 70.5456 1046.93 71.1289C1046.93 72.0221 1046.64 72.724 1046.06 73.2344C1045.48 73.7448 1044.66 74 1043.61 74H1040.16ZM1041.47 69.3447V72.9268H1043.63C1044.25 72.9268 1044.73 72.7695 1045.08 72.4551C1045.43 72.1361 1045.61 71.6986 1045.61 71.1426C1045.61 69.944 1044.96 69.3447 1043.66 69.3447H1041.47ZM1041.47 68.292H1043.45C1044.02 68.292 1044.48 68.1484 1044.82 67.8613C1045.17 67.5742 1045.34 67.1846 1045.34 66.6924C1045.34 66.1455 1045.18 65.749 1044.87 65.5029C1044.55 65.2523 1044.06 65.127 1043.41 65.127H1041.47V68.292ZM1050.05 74H1048.79V66.6035H1050.05V74ZM1048.69 64.6416C1048.69 64.4365 1048.75 64.2633 1048.87 64.1221C1049 63.9808 1049.19 63.9102 1049.43 63.9102C1049.68 63.9102 1049.86 63.9808 1049.99 64.1221C1050.12 64.2633 1050.18 64.4365 1050.18 64.6416C1050.18 64.8467 1050.12 65.0176 1049.99 65.1543C1049.86 65.291 1049.68 65.3594 1049.43 65.3594C1049.19 65.3594 1049 65.291 1048.87 65.1543C1048.75 65.0176 1048.69 64.8467 1048.69 64.6416ZM1053.8 64.8125V66.6035H1055.18V67.5811H1053.8V72.168C1053.8 72.4642 1053.86 72.6875 1053.98 72.8379C1054.11 72.9837 1054.32 73.0566 1054.61 73.0566C1054.76 73.0566 1054.96 73.0293 1055.21 72.9746V74C1054.88 74.0911 1054.56 74.1367 1054.24 74.1367C1053.68 74.1367 1053.25 73.9658 1052.97 73.624C1052.68 73.2822 1052.54 72.7969 1052.54 72.168V67.5811H1051.19V66.6035H1052.54V64.8125H1053.8ZM1059.63 73.1045C1060.08 73.1045 1060.48 72.9678 1060.81 72.6943C1061.15 72.4209 1061.34 72.0791 1061.37 71.6689H1062.57C1062.55 72.0928 1062.4 72.4961 1062.13 72.8789C1061.86 73.2617 1061.5 73.5671 1061.05 73.7949C1060.61 74.0228 1060.13 74.1367 1059.63 74.1367C1058.62 74.1367 1057.82 73.8018 1057.22 73.1318C1056.63 72.4574 1056.34 71.5368 1056.34 70.3701V70.1582C1056.34 69.4382 1056.47 68.7979 1056.73 68.2373C1057 67.6768 1057.38 67.2415 1057.87 66.9316C1058.36 66.6217 1058.95 66.4668 1059.62 66.4668C1060.45 66.4668 1061.14 66.7152 1061.69 67.2119C1062.24 67.7087 1062.53 68.3535 1062.57 69.1465H1061.37C1061.34 68.668 1061.16 68.276 1060.83 67.9707C1060.5 67.6608 1060.1 67.5059 1059.62 67.5059C1058.98 67.5059 1058.48 67.7383 1058.13 68.2031C1057.78 68.6634 1057.6 69.3311 1057.6 70.2061V70.4453C1057.6 71.2975 1057.78 71.9538 1058.13 72.4141C1058.48 72.8743 1058.98 73.1045 1059.63 73.1045ZM1063.66 70.2334C1063.66 69.5088 1063.8 68.8571 1064.08 68.2783C1064.37 67.6995 1064.76 67.2529 1065.27 66.9385C1065.78 66.624 1066.36 66.4668 1067.01 66.4668C1068.02 66.4668 1068.83 66.8154 1069.45 67.5127C1070.08 68.21 1070.39 69.1374 1070.39 70.2949V70.3838C1070.39 71.1038 1070.25 71.751 1069.97 72.3252C1069.7 72.8949 1069.31 73.3392 1068.79 73.6582C1068.28 73.9772 1067.69 74.1367 1067.03 74.1367C1066.02 74.1367 1065.21 73.7881 1064.59 73.0908C1063.97 72.3936 1063.66 71.4707 1063.66 70.3223V70.2334ZM1064.93 70.3838C1064.93 71.2041 1065.12 71.8626 1065.5 72.3594C1065.88 72.8561 1066.39 73.1045 1067.03 73.1045C1067.67 73.1045 1068.18 72.8538 1068.56 72.3525C1068.94 71.8467 1069.13 71.1403 1069.13 70.2334C1069.13 69.4222 1068.93 68.766 1068.54 68.2646C1068.16 67.7588 1067.65 67.5059 1067.01 67.5059C1066.39 67.5059 1065.89 67.7542 1065.5 68.251C1065.12 68.7477 1064.93 69.4587 1064.93 70.3838ZM1073.35 74H1072.09V66.6035H1073.35V74ZM1071.98 64.6416C1071.98 64.4365 1072.04 64.2633 1072.17 64.1221C1072.3 63.9808 1072.48 63.9102 1072.73 63.9102C1072.97 63.9102 1073.16 63.9808 1073.29 64.1221C1073.42 64.2633 1073.48 64.4365 1073.48 64.6416C1073.48 64.8467 1073.42 65.0176 1073.29 65.1543C1073.16 65.291 1072.97 65.3594 1072.73 65.3594C1072.48 65.3594 1072.3 65.291 1072.17 65.1543C1072.04 65.0176 1071.98 64.8467 1071.98 64.6416ZM1076.58 66.6035L1076.62 67.5332C1077.18 66.8223 1077.92 66.4668 1078.83 66.4668C1080.4 66.4668 1081.18 67.3486 1081.2 69.1123V74H1079.93V69.1055C1079.93 68.5723 1079.81 68.1781 1079.56 67.9229C1079.33 67.6676 1078.96 67.54 1078.45 67.54C1078.04 67.54 1077.68 67.6494 1077.37 67.8682C1077.06 68.0869 1076.82 68.374 1076.65 68.7295V74H1075.38V66.6035H1076.58ZM1086.78 74V64.0469H1089.59C1090.45 64.0469 1091.22 64.2383 1091.88 64.6211C1092.55 65.0039 1093.06 65.5485 1093.42 66.2549C1093.79 66.9613 1093.97 67.7725 1093.97 68.6885V69.3242C1093.97 70.263 1093.79 71.0856 1093.43 71.792C1093.07 72.4984 1092.55 73.0407 1091.88 73.4189C1091.21 73.7972 1090.42 73.9909 1089.53 74H1086.78ZM1088.09 65.127V72.9268H1089.47C1090.48 72.9268 1091.27 72.6123 1091.83 71.9834C1092.39 71.3545 1092.68 70.459 1092.68 69.2969V68.7158C1092.68 67.5856 1092.41 66.7083 1091.88 66.084C1091.35 65.4551 1090.6 65.1361 1089.62 65.127H1088.09ZM1097.14 74H1095.88V66.6035H1097.14V74ZM1095.77 64.6416C1095.77 64.4365 1095.83 64.2633 1095.96 64.1221C1096.08 63.9808 1096.27 63.9102 1096.52 63.9102C1096.76 63.9102 1096.95 63.9808 1097.08 64.1221C1097.21 64.2633 1097.27 64.4365 1097.27 64.6416C1097.27 64.8467 1097.21 65.0176 1097.08 65.1543C1096.95 65.291 1096.76 65.3594 1096.52 65.3594C1096.27 65.3594 1096.08 65.291 1095.96 65.1543C1095.83 65.0176 1095.77 64.8467 1095.77 64.6416ZM1103.74 74C1103.66 73.8542 1103.6 73.5944 1103.56 73.2207C1102.97 73.8314 1102.27 74.1367 1101.45 74.1367C1100.72 74.1367 1100.12 73.9316 1099.66 73.5215C1099.19 73.1068 1098.96 72.5827 1098.96 71.9492C1098.96 71.179 1099.25 70.582 1099.83 70.1582C1100.42 69.7298 1101.25 69.5156 1102.31 69.5156H1103.54V68.9346C1103.54 68.4925 1103.41 68.1416 1103.14 67.8818C1102.88 67.6175 1102.49 67.4854 1101.97 67.4854C1101.52 67.4854 1101.14 67.5993 1100.84 67.8271C1100.53 68.055 1100.38 68.3307 1100.38 68.6543H1099.11C1099.11 68.2852 1099.24 67.9297 1099.5 67.5879C1099.76 67.2415 1100.12 66.9681 1100.56 66.7676C1101.02 66.5671 1101.51 66.4668 1102.05 66.4668C1102.9 66.4668 1103.57 66.681 1104.05 67.1094C1104.53 67.5332 1104.78 68.1188 1104.8 68.8662V72.2705C1104.8 72.9495 1104.89 73.4896 1105.06 73.8906V74H1103.74ZM1101.64 73.0361C1102.03 73.0361 1102.41 72.9336 1102.77 72.7285C1103.12 72.5234 1103.38 72.2568 1103.54 71.9287V70.4111H1102.55C1101 70.4111 1100.22 70.8646 1100.22 71.7715C1100.22 72.168 1100.35 72.4779 1100.62 72.7012C1100.88 72.9245 1101.22 73.0361 1101.64 73.0361ZM1107.97 66.6035L1108.01 67.4238C1108.55 66.7858 1109.28 66.4668 1110.2 66.4668C1111.24 66.4668 1111.94 66.8633 1112.32 67.6562C1112.56 67.3008 1112.88 67.0137 1113.27 66.7949C1113.67 66.5762 1114.14 66.4668 1114.67 66.4668C1116.3 66.4668 1117.12 67.3258 1117.15 69.0439V74H1115.88V69.1191C1115.88 68.5905 1115.76 68.1963 1115.52 67.9365C1115.28 67.6722 1114.87 67.54 1114.3 67.54C1113.84 67.54 1113.45 67.6813 1113.14 67.9639C1112.83 68.2419 1112.65 68.6178 1112.6 69.0918V74H1111.32V69.1533C1111.32 68.0778 1110.8 67.54 1109.75 67.54C1108.92 67.54 1108.35 67.8932 1108.04 68.5996V74H1106.78V66.6035H1107.97ZM1118.73 70.2334C1118.73 69.5088 1118.87 68.8571 1119.15 68.2783C1119.44 67.6995 1119.83 67.2529 1120.34 66.9385C1120.85 66.624 1121.43 66.4668 1122.08 66.4668C1123.09 66.4668 1123.9 66.8154 1124.52 67.5127C1125.15 68.21 1125.46 69.1374 1125.46 70.2949V70.3838C1125.46 71.1038 1125.32 71.751 1125.04 72.3252C1124.77 72.8949 1124.38 73.3392 1123.86 73.6582C1123.35 73.9772 1122.76 74.1367 1122.1 74.1367C1121.1 74.1367 1120.28 73.7881 1119.66 73.0908C1119.04 72.3936 1118.73 71.4707 1118.73 70.3223V70.2334ZM1120 70.3838C1120 71.2041 1120.19 71.8626 1120.57 72.3594C1120.95 72.8561 1121.46 73.1045 1122.1 73.1045C1122.74 73.1045 1123.25 72.8538 1123.63 72.3525C1124.01 71.8467 1124.2 71.1403 1124.2 70.2334C1124.2 69.4222 1124 68.766 1123.62 68.2646C1123.23 67.7588 1122.72 67.5059 1122.08 67.5059C1121.46 67.5059 1120.96 67.7542 1120.57 68.251C1120.19 68.7477 1120 69.4587 1120 70.3838ZM1128.24 66.6035L1128.28 67.5332C1128.85 66.8223 1129.59 66.4668 1130.5 66.4668C1132.06 66.4668 1132.85 67.3486 1132.86 69.1123V74H1131.6V69.1055C1131.6 68.5723 1131.47 68.1781 1131.23 67.9229C1130.99 67.6676 1130.62 67.54 1130.12 67.54C1129.71 67.54 1129.35 67.6494 1129.04 67.8682C1128.73 68.0869 1128.48 68.374 1128.31 68.7295V74H1127.05V66.6035H1128.24ZM1134.46 70.2402C1134.46 69.1055 1134.73 68.194 1135.27 67.5059C1135.81 66.8132 1136.51 66.4668 1137.38 66.4668C1138.25 66.4668 1138.93 66.763 1139.44 67.3555V63.5H1140.71V74H1139.54L1139.48 73.207C1138.98 73.8268 1138.27 74.1367 1137.37 74.1367C1136.51 74.1367 1135.81 73.7858 1135.27 73.084C1134.73 72.3822 1134.46 71.4661 1134.46 70.3359V70.2402ZM1135.73 70.3838C1135.73 71.2223 1135.9 71.8786 1136.25 72.3525C1136.59 72.8265 1137.07 73.0635 1137.68 73.0635C1138.49 73.0635 1139.07 72.7035 1139.44 71.9834V68.5859C1139.06 67.8887 1138.48 67.54 1137.7 67.54C1137.08 67.54 1136.59 67.7793 1136.25 68.2578C1135.9 68.7363 1135.73 69.445 1135.73 70.3838Z" fill="#FF5A43"/>
<path d="M1040.16 24V14.0469H1043.41C1044.49 14.0469 1045.3 14.2702 1045.84 14.7168C1046.39 15.1634 1046.66 15.8242 1046.66 16.6992C1046.66 17.1641 1046.53 17.5765 1046.27 17.9365C1046 18.292 1045.64 18.5677 1045.19 18.7637C1045.72 18.9141 1046.15 19.2012 1046.46 19.625C1046.77 20.0443 1046.93 20.5456 1046.93 21.1289C1046.93 22.0221 1046.64 22.724 1046.06 23.2344C1045.48 23.7448 1044.66 24 1043.61 24H1040.16ZM1041.47 19.3447V22.9268H1043.63C1044.25 22.9268 1044.73 22.7695 1045.08 22.4551C1045.43 22.1361 1045.61 21.6986 1045.61 21.1426C1045.61 19.944 1044.96 19.3447 1043.66 19.3447H1041.47ZM1041.47 18.292H1043.45C1044.02 18.292 1044.48 18.1484 1044.82 17.8613C1045.17 17.5742 1045.34 17.1846 1045.34 16.6924C1045.34 16.1455 1045.18 15.749 1044.87 15.5029C1044.55 15.2523 1044.06 15.127 1043.41 15.127H1041.47V18.292ZM1050.05 24H1048.79V16.6035H1050.05V24ZM1048.69 14.6416C1048.69 14.4365 1048.75 14.2633 1048.87 14.1221C1049 13.9808 1049.19 13.9102 1049.43 13.9102C1049.68 13.9102 1049.86 13.9808 1049.99 14.1221C1050.12 14.2633 1050.18 14.4365 1050.18 14.6416C1050.18 14.8467 1050.12 15.0176 1049.99 15.1543C1049.86 15.291 1049.68 15.3594 1049.43 15.3594C1049.19 15.3594 1049 15.291 1048.87 15.1543C1048.75 15.0176 1048.69 14.8467 1048.69 14.6416ZM1053.8 14.8125V16.6035H1055.18V17.5811H1053.8V22.168C1053.8 22.4642 1053.86 22.6875 1053.98 22.8379C1054.11 22.9837 1054.32 23.0566 1054.61 23.0566C1054.76 23.0566 1054.96 23.0293 1055.21 22.9746V24C1054.88 24.0911 1054.56 24.1367 1054.24 24.1367C1053.68 24.1367 1053.25 23.9658 1052.97 23.624C1052.68 23.2822 1052.54 22.7969 1052.54 22.168V17.5811H1051.19V16.6035H1052.54V14.8125H1053.8ZM1059.63 23.1045C1060.08 23.1045 1060.48 22.9678 1060.81 22.6943C1061.15 22.4209 1061.34 22.0791 1061.37 21.6689H1062.57C1062.55 22.0928 1062.4 22.4961 1062.13 22.8789C1061.86 23.2617 1061.5 23.5671 1061.05 23.7949C1060.61 24.0228 1060.13 24.1367 1059.63 24.1367C1058.62 24.1367 1057.82 23.8018 1057.22 23.1318C1056.63 22.4574 1056.34 21.5368 1056.34 20.3701V20.1582C1056.34 19.4382 1056.47 18.7979 1056.73 18.2373C1057 17.6768 1057.38 17.2415 1057.87 16.9316C1058.36 16.6217 1058.95 16.4668 1059.62 16.4668C1060.45 16.4668 1061.14 16.7152 1061.69 17.2119C1062.24 17.7087 1062.53 18.3535 1062.57 19.1465H1061.37C1061.34 18.668 1061.16 18.276 1060.83 17.9707C1060.5 17.6608 1060.1 17.5059 1059.62 17.5059C1058.98 17.5059 1058.48 17.7383 1058.13 18.2031C1057.78 18.6634 1057.6 19.3311 1057.6 20.2061V20.4453C1057.6 21.2975 1057.78 21.9538 1058.13 22.4141C1058.48 22.8743 1058.98 23.1045 1059.63 23.1045ZM1063.66 20.2334C1063.66 19.5088 1063.8 18.8571 1064.08 18.2783C1064.37 17.6995 1064.76 17.2529 1065.27 16.9385C1065.78 16.624 1066.36 16.4668 1067.01 16.4668C1068.02 16.4668 1068.83 16.8154 1069.45 17.5127C1070.08 18.21 1070.39 19.1374 1070.39 20.2949V20.3838C1070.39 21.1038 1070.25 21.751 1069.97 22.3252C1069.7 22.8949 1069.31 23.3392 1068.79 23.6582C1068.28 23.9772 1067.69 24.1367 1067.03 24.1367C1066.02 24.1367 1065.21 23.7881 1064.59 23.0908C1063.97 22.3936 1063.66 21.4707 1063.66 20.3223V20.2334ZM1064.93 20.3838C1064.93 21.2041 1065.12 21.8626 1065.5 22.3594C1065.88 22.8561 1066.39 23.1045 1067.03 23.1045C1067.67 23.1045 1068.18 22.8538 1068.56 22.3525C1068.94 21.8467 1069.13 21.1403 1069.13 20.2334C1069.13 19.4222 1068.93 18.766 1068.54 18.2646C1068.16 17.7588 1067.65 17.5059 1067.01 17.5059C1066.39 17.5059 1065.89 17.7542 1065.5 18.251C1065.12 18.7477 1064.93 19.4587 1064.93 20.3838ZM1073.35 24H1072.09V16.6035H1073.35V24ZM1071.98 14.6416C1071.98 14.4365 1072.04 14.2633 1072.17 14.1221C1072.3 13.9808 1072.48 13.9102 1072.73 13.9102C1072.97 13.9102 1073.16 13.9808 1073.29 14.1221C1073.42 14.2633 1073.48 14.4365 1073.48 14.6416C1073.48 14.8467 1073.42 15.0176 1073.29 15.1543C1073.16 15.291 1072.97 15.3594 1072.73 15.3594C1072.48 15.3594 1072.3 15.291 1072.17 15.1543C1072.04 15.0176 1071.98 14.8467 1071.98 14.6416ZM1076.58 16.6035L1076.62 17.5332C1077.18 16.8223 1077.92 16.4668 1078.83 16.4668C1080.4 16.4668 1081.18 17.3486 1081.2 19.1123V24H1079.93V19.1055C1079.93 18.5723 1079.81 18.1781 1079.56 17.9229C1079.33 17.6676 1078.96 17.54 1078.45 17.54C1078.04 17.54 1077.68 17.6494 1077.37 17.8682C1077.06 18.0869 1076.82 18.374 1076.65 18.7295V24H1075.38V16.6035H1076.58ZM1086.78 24V14.0469H1089.59C1090.45 14.0469 1091.22 14.2383 1091.88 14.6211C1092.55 15.0039 1093.06 15.5485 1093.42 16.2549C1093.79 16.9613 1093.97 17.7725 1093.97 18.6885V19.3242C1093.97 20.263 1093.79 21.0856 1093.43 21.792C1093.07 22.4984 1092.55 23.0407 1091.88 23.4189C1091.21 23.7972 1090.42 23.9909 1089.53 24H1086.78ZM1088.09 15.127V22.9268H1089.47C1090.48 22.9268 1091.27 22.6123 1091.83 21.9834C1092.39 21.3545 1092.68 20.459 1092.68 19.2969V18.7158C1092.68 17.5856 1092.41 16.7083 1091.88 16.084C1091.35 15.4551 1090.6 15.1361 1089.62 15.127H1088.09ZM1100.33 24C1100.26 23.8542 1100.2 23.5944 1100.15 23.2207C1099.57 23.8314 1098.86 24.1367 1098.05 24.1367C1097.32 24.1367 1096.72 23.9316 1096.25 23.5215C1095.79 23.1068 1095.55 22.5827 1095.55 21.9492C1095.55 21.179 1095.85 20.582 1096.43 20.1582C1097.02 19.7298 1097.84 19.5156 1098.9 19.5156H1100.13V18.9346C1100.13 18.4925 1100 18.1416 1099.74 17.8818C1099.47 17.6175 1099.08 17.4854 1098.57 17.4854C1098.12 17.4854 1097.74 17.5993 1097.43 17.8271C1097.13 18.055 1096.98 18.3307 1096.98 18.6543H1095.7C1095.7 18.2852 1095.83 17.9297 1096.09 17.5879C1096.36 17.2415 1096.71 16.9681 1097.16 16.7676C1097.61 16.5671 1098.11 16.4668 1098.64 16.4668C1099.5 16.4668 1100.16 16.681 1100.65 17.1094C1101.13 17.5332 1101.38 18.1188 1101.4 18.8662V22.2705C1101.4 22.9495 1101.49 23.4896 1101.66 23.8906V24H1100.33ZM1098.23 23.0361C1098.63 23.0361 1099.01 22.9336 1099.36 22.7285C1099.72 22.5234 1099.97 22.2568 1100.13 21.9287V20.4111H1099.14C1097.59 20.4111 1096.82 20.8646 1096.82 21.7715C1096.82 22.168 1096.95 22.4779 1097.21 22.7012C1097.48 22.9245 1097.82 23.0361 1098.23 23.0361ZM1106.96 17.7383C1106.76 17.7064 1106.56 17.6904 1106.33 17.6904C1105.5 17.6904 1104.94 18.0436 1104.65 18.75V24H1103.38V16.6035H1104.61L1104.63 17.458C1105.05 16.7972 1105.63 16.4668 1106.4 16.4668C1106.64 16.4668 1106.83 16.4987 1106.96 16.5625V17.7383ZM1110.19 20.5752L1109.4 21.4023V24H1108.13V13.5H1109.4V19.8506L1110.07 19.0371L1112.38 16.6035H1113.92L1111.04 19.6934L1114.25 24H1112.77L1110.19 20.5752Z" fill="#FF5A43"/>
<path d="M1040.16 226V216.047H1043.41C1044.49 216.047 1045.3 216.27 1045.84 216.717C1046.39 217.163 1046.66 217.824 1046.66 218.699C1046.66 219.164 1046.53 219.576 1046.27 219.937C1046 220.292 1045.64 220.568 1045.19 220.764C1045.72 220.914 1046.15 221.201 1046.46 221.625C1046.77 222.044 1046.93 222.546 1046.93 223.129C1046.93 224.022 1046.64 224.724 1046.06 225.234C1045.48 225.745 1044.66 226 1043.61 226H1040.16ZM1041.47 221.345V224.927H1043.63C1044.25 224.927 1044.73 224.77 1045.08 224.455C1045.43 224.136 1045.61 223.699 1045.61 223.143C1045.61 221.944 1044.96 221.345 1043.66 221.345H1041.47ZM1041.47 220.292H1043.45C1044.02 220.292 1044.48 220.148 1044.82 219.861C1045.17 219.574 1045.34 219.185 1045.34 218.692C1045.34 218.146 1045.18 217.749 1044.87 217.503C1044.55 217.252 1044.06 217.127 1043.41 217.127H1041.47V220.292ZM1050.05 226H1048.79V218.604H1050.05V226ZM1048.69 216.642C1048.69 216.437 1048.75 216.263 1048.87 216.122C1049 215.981 1049.19 215.91 1049.43 215.91C1049.68 215.91 1049.86 215.981 1049.99 216.122C1050.12 216.263 1050.18 216.437 1050.18 216.642C1050.18 216.847 1050.12 217.018 1049.99 217.154C1049.86 217.291 1049.68 217.359 1049.43 217.359C1049.19 217.359 1049 217.291 1048.87 217.154C1048.75 217.018 1048.69 216.847 1048.69 216.642ZM1053.8 216.812V218.604H1055.18V219.581H1053.8V224.168C1053.8 224.464 1053.86 224.688 1053.98 224.838C1054.11 224.984 1054.32 225.057 1054.61 225.057C1054.76 225.057 1054.96 225.029 1055.21 224.975V226C1054.88 226.091 1054.56 226.137 1054.24 226.137C1053.68 226.137 1053.25 225.966 1052.97 225.624C1052.68 225.282 1052.54 224.797 1052.54 224.168V219.581H1051.19V218.604H1052.54V216.812H1053.8ZM1059.63 225.104C1060.08 225.104 1060.48 224.968 1060.81 224.694C1061.15 224.421 1061.34 224.079 1061.37 223.669H1062.57C1062.55 224.093 1062.4 224.496 1062.13 224.879C1061.86 225.262 1061.5 225.567 1061.05 225.795C1060.61 226.023 1060.13 226.137 1059.63 226.137C1058.62 226.137 1057.82 225.802 1057.22 225.132C1056.63 224.457 1056.34 223.537 1056.34 222.37V222.158C1056.34 221.438 1056.47 220.798 1056.73 220.237C1057 219.677 1057.38 219.242 1057.87 218.932C1058.36 218.622 1058.95 218.467 1059.62 218.467C1060.45 218.467 1061.14 218.715 1061.69 219.212C1062.24 219.709 1062.53 220.354 1062.57 221.146H1061.37C1061.34 220.668 1061.16 220.276 1060.83 219.971C1060.5 219.661 1060.1 219.506 1059.62 219.506C1058.98 219.506 1058.48 219.738 1058.13 220.203C1057.78 220.663 1057.6 221.331 1057.6 222.206V222.445C1057.6 223.298 1057.78 223.954 1058.13 224.414C1058.48 224.874 1058.98 225.104 1059.63 225.104ZM1063.66 222.233C1063.66 221.509 1063.8 220.857 1064.08 220.278C1064.37 219.7 1064.76 219.253 1065.27 218.938C1065.78 218.624 1066.36 218.467 1067.01 218.467C1068.02 218.467 1068.83 218.815 1069.45 219.513C1070.08 220.21 1070.39 221.137 1070.39 222.295V222.384C1070.39 223.104 1070.25 223.751 1069.97 224.325C1069.7 224.895 1069.31 225.339 1068.79 225.658C1068.28 225.977 1067.69 226.137 1067.03 226.137C1066.02 226.137 1065.21 225.788 1064.59 225.091C1063.97 224.394 1063.66 223.471 1063.66 222.322V222.233ZM1064.93 222.384C1064.93 223.204 1065.12 223.863 1065.5 224.359C1065.88 224.856 1066.39 225.104 1067.03 225.104C1067.67 225.104 1068.18 224.854 1068.56 224.353C1068.94 223.847 1069.13 223.14 1069.13 222.233C1069.13 221.422 1068.93 220.766 1068.54 220.265C1068.16 219.759 1067.65 219.506 1067.01 219.506C1066.39 219.506 1065.89 219.754 1065.5 220.251C1065.12 220.748 1064.93 221.459 1064.93 222.384ZM1073.35 226H1072.09V218.604H1073.35V226ZM1071.98 216.642C1071.98 216.437 1072.04 216.263 1072.17 216.122C1072.3 215.981 1072.48 215.91 1072.73 215.91C1072.97 215.91 1073.16 215.981 1073.29 216.122C1073.42 216.263 1073.48 216.437 1073.48 216.642C1073.48 216.847 1073.42 217.018 1073.29 217.154C1073.16 217.291 1072.97 217.359 1072.73 217.359C1072.48 217.359 1072.3 217.291 1072.17 217.154C1072.04 217.018 1071.98 216.847 1071.98 216.642ZM1076.58 218.604L1076.62 219.533C1077.18 218.822 1077.92 218.467 1078.83 218.467C1080.4 218.467 1081.18 219.349 1081.2 221.112V226H1079.93V221.105C1079.93 220.572 1079.81 220.178 1079.56 219.923C1079.33 219.668 1078.96 219.54 1078.45 219.54C1078.04 219.54 1077.68 219.649 1077.37 219.868C1077.06 220.087 1076.82 220.374 1076.65 220.729V226H1075.38V218.604H1076.58ZM1094.1 222.842C1093.97 223.895 1093.58 224.708 1092.93 225.282C1092.28 225.852 1091.41 226.137 1090.32 226.137C1089.15 226.137 1088.21 225.715 1087.49 224.872C1086.79 224.029 1086.43 222.901 1086.43 221.488V220.531C1086.43 219.606 1086.6 218.793 1086.93 218.091C1087.26 217.389 1087.73 216.851 1088.33 216.478C1088.94 216.099 1089.64 215.91 1090.44 215.91C1091.5 215.91 1092.35 216.206 1092.98 216.799C1093.62 217.387 1093.99 218.202 1094.1 219.246H1092.78C1092.66 218.453 1092.42 217.879 1092.03 217.523C1091.65 217.168 1091.12 216.99 1090.44 216.99C1089.6 216.99 1088.94 217.3 1088.46 217.92C1087.99 218.54 1087.75 219.422 1087.75 220.565V221.529C1087.75 222.609 1087.98 223.468 1088.43 224.106C1088.88 224.744 1089.51 225.063 1090.32 225.063C1091.05 225.063 1091.61 224.899 1092 224.571C1092.39 224.239 1092.65 223.662 1092.78 222.842H1094.1ZM1100.26 226C1100.19 225.854 1100.13 225.594 1100.09 225.221C1099.5 225.831 1098.8 226.137 1097.98 226.137C1097.25 226.137 1096.65 225.932 1096.18 225.521C1095.72 225.107 1095.49 224.583 1095.49 223.949C1095.49 223.179 1095.78 222.582 1096.36 222.158C1096.95 221.73 1097.77 221.516 1098.83 221.516H1100.07V220.935C1100.07 220.493 1099.93 220.142 1099.67 219.882C1099.4 219.618 1099.01 219.485 1098.5 219.485C1098.05 219.485 1097.67 219.599 1097.37 219.827C1097.06 220.055 1096.91 220.331 1096.91 220.654H1095.64C1095.64 220.285 1095.77 219.93 1096.03 219.588C1096.29 219.242 1096.65 218.968 1097.09 218.768C1097.54 218.567 1098.04 218.467 1098.58 218.467C1099.43 218.467 1100.1 218.681 1100.58 219.109C1101.06 219.533 1101.31 220.119 1101.33 220.866V224.271C1101.33 224.95 1101.42 225.49 1101.59 225.891V226H1100.26ZM1098.17 225.036C1098.56 225.036 1098.94 224.934 1099.29 224.729C1099.65 224.523 1099.91 224.257 1100.07 223.929V222.411H1099.07C1097.52 222.411 1096.75 222.865 1096.75 223.771C1096.75 224.168 1096.88 224.478 1097.15 224.701C1097.41 224.924 1097.75 225.036 1098.17 225.036ZM1107.62 224.038C1107.62 223.696 1107.49 223.432 1107.23 223.245C1106.97 223.054 1106.53 222.89 1105.88 222.753C1105.24 222.616 1104.74 222.452 1104.36 222.261C1103.98 222.069 1103.71 221.841 1103.52 221.577C1103.35 221.313 1103.26 220.998 1103.26 220.634C1103.26 220.028 1103.51 219.515 1104.02 219.096C1104.54 218.676 1105.19 218.467 1105.99 218.467C1106.83 218.467 1107.51 218.683 1108.03 219.116C1108.55 219.549 1108.82 220.103 1108.82 220.777H1107.54C1107.54 220.431 1107.4 220.132 1107.1 219.882C1106.81 219.631 1106.44 219.506 1105.99 219.506C1105.53 219.506 1105.17 219.606 1104.91 219.807C1104.65 220.007 1104.52 220.269 1104.52 220.593C1104.52 220.898 1104.64 221.128 1104.88 221.283C1105.13 221.438 1105.56 221.586 1106.19 221.728C1106.82 221.869 1107.34 222.037 1107.73 222.233C1108.12 222.429 1108.41 222.666 1108.6 222.944C1108.79 223.218 1108.88 223.553 1108.88 223.949C1108.88 224.61 1108.62 225.141 1108.09 225.542C1107.56 225.938 1106.88 226.137 1106.03 226.137C1105.44 226.137 1104.92 226.032 1104.46 225.822C1104.01 225.613 1103.65 225.321 1103.39 224.947C1103.13 224.569 1103 224.161 1103 223.724H1104.27C1104.29 224.147 1104.46 224.485 1104.78 224.735C1105.09 224.981 1105.51 225.104 1106.03 225.104C1106.51 225.104 1106.89 225.009 1107.18 224.817C1107.47 224.621 1107.62 224.362 1107.62 224.038ZM1111.8 219.499C1112.36 218.811 1113.09 218.467 1113.98 218.467C1115.55 218.467 1116.33 219.349 1116.35 221.112V226H1115.08V221.105C1115.08 220.572 1114.96 220.178 1114.71 219.923C1114.48 219.668 1114.11 219.54 1113.6 219.54C1113.19 219.54 1112.83 219.649 1112.52 219.868C1112.21 220.087 1111.97 220.374 1111.8 220.729V226H1110.53V215.5H1111.8V219.499Z" fill="#FF5A43"/>
<path d="M1040.16 279V269.047H1043.41C1044.49 269.047 1045.3 269.27 1045.84 269.717C1046.39 270.163 1046.66 270.824 1046.66 271.699C1046.66 272.164 1046.53 272.576 1046.27 272.937C1046 273.292 1045.64 273.568 1045.19 273.764C1045.72 273.914 1046.15 274.201 1046.46 274.625C1046.77 275.044 1046.93 275.546 1046.93 276.129C1046.93 277.022 1046.64 277.724 1046.06 278.234C1045.48 278.745 1044.66 279 1043.61 279H1040.16ZM1041.47 274.345V277.927H1043.63C1044.25 277.927 1044.73 277.77 1045.08 277.455C1045.43 277.136 1045.61 276.699 1045.61 276.143C1045.61 274.944 1044.96 274.345 1043.66 274.345H1041.47ZM1041.47 273.292H1043.45C1044.02 273.292 1044.48 273.148 1044.82 272.861C1045.17 272.574 1045.34 272.185 1045.34 271.692C1045.34 271.146 1045.18 270.749 1044.87 270.503C1044.55 270.252 1044.06 270.127 1043.41 270.127H1041.47V273.292ZM1050.05 279H1048.79V271.604H1050.05V279ZM1048.69 269.642C1048.69 269.437 1048.75 269.263 1048.87 269.122C1049 268.981 1049.19 268.91 1049.43 268.91C1049.68 268.91 1049.86 268.981 1049.99 269.122C1050.12 269.263 1050.18 269.437 1050.18 269.642C1050.18 269.847 1050.12 270.018 1049.99 270.154C1049.86 270.291 1049.68 270.359 1049.43 270.359C1049.19 270.359 1049 270.291 1048.87 270.154C1048.75 270.018 1048.69 269.847 1048.69 269.642ZM1053.8 269.812V271.604H1055.18V272.581H1053.8V277.168C1053.8 277.464 1053.86 277.688 1053.98 277.838C1054.11 277.984 1054.32 278.057 1054.61 278.057C1054.76 278.057 1054.96 278.029 1055.21 277.975V279C1054.88 279.091 1054.56 279.137 1054.24 279.137C1053.68 279.137 1053.25 278.966 1052.97 278.624C1052.68 278.282 1052.54 277.797 1052.54 277.168V272.581H1051.19V271.604H1052.54V269.812H1053.8ZM1059.63 278.104C1060.08 278.104 1060.48 277.968 1060.81 277.694C1061.15 277.421 1061.34 277.079 1061.37 276.669H1062.57C1062.55 277.093 1062.4 277.496 1062.13 277.879C1061.86 278.262 1061.5 278.567 1061.05 278.795C1060.61 279.023 1060.13 279.137 1059.63 279.137C1058.62 279.137 1057.82 278.802 1057.22 278.132C1056.63 277.457 1056.34 276.537 1056.34 275.37V275.158C1056.34 274.438 1056.47 273.798 1056.73 273.237C1057 272.677 1057.38 272.242 1057.87 271.932C1058.36 271.622 1058.95 271.467 1059.62 271.467C1060.45 271.467 1061.14 271.715 1061.69 272.212C1062.24 272.709 1062.53 273.354 1062.57 274.146H1061.37C1061.34 273.668 1061.16 273.276 1060.83 272.971C1060.5 272.661 1060.1 272.506 1059.62 272.506C1058.98 272.506 1058.48 272.738 1058.13 273.203C1057.78 273.663 1057.6 274.331 1057.6 275.206V275.445C1057.6 276.298 1057.78 276.954 1058.13 277.414C1058.48 277.874 1058.98 278.104 1059.63 278.104ZM1063.66 275.233C1063.66 274.509 1063.8 273.857 1064.08 273.278C1064.37 272.7 1064.76 272.253 1065.27 271.938C1065.78 271.624 1066.36 271.467 1067.01 271.467C1068.02 271.467 1068.83 271.815 1069.45 272.513C1070.08 273.21 1070.39 274.137 1070.39 275.295V275.384C1070.39 276.104 1070.25 276.751 1069.97 277.325C1069.7 277.895 1069.31 278.339 1068.79 278.658C1068.28 278.977 1067.69 279.137 1067.03 279.137C1066.02 279.137 1065.21 278.788 1064.59 278.091C1063.97 277.394 1063.66 276.471 1063.66 275.322V275.233ZM1064.93 275.384C1064.93 276.204 1065.12 276.863 1065.5 277.359C1065.88 277.856 1066.39 278.104 1067.03 278.104C1067.67 278.104 1068.18 277.854 1068.56 277.353C1068.94 276.847 1069.13 276.14 1069.13 275.233C1069.13 274.422 1068.93 273.766 1068.54 273.265C1068.16 272.759 1067.65 272.506 1067.01 272.506C1066.39 272.506 1065.89 272.754 1065.5 273.251C1065.12 273.748 1064.93 274.459 1064.93 275.384ZM1073.35 279H1072.09V271.604H1073.35V279ZM1071.98 269.642C1071.98 269.437 1072.04 269.263 1072.17 269.122C1072.3 268.981 1072.48 268.91 1072.73 268.91C1072.97 268.91 1073.16 268.981 1073.29 269.122C1073.42 269.263 1073.48 269.437 1073.48 269.642C1073.48 269.847 1073.42 270.018 1073.29 270.154C1073.16 270.291 1072.97 270.359 1072.73 270.359C1072.48 270.359 1072.3 270.291 1072.17 270.154C1072.04 270.018 1071.98 269.847 1071.98 269.642ZM1076.58 271.604L1076.62 272.533C1077.18 271.822 1077.92 271.467 1078.83 271.467C1080.4 271.467 1081.18 272.349 1081.2 274.112V279H1079.93V274.105C1079.93 273.572 1079.81 273.178 1079.56 272.923C1079.33 272.668 1078.96 272.54 1078.45 272.54C1078.04 272.54 1077.68 272.649 1077.37 272.868C1077.06 273.087 1076.82 273.374 1076.65 273.729V279H1075.38V271.604H1076.58ZM1094.1 275.842C1093.97 276.895 1093.58 277.708 1092.93 278.282C1092.28 278.852 1091.41 279.137 1090.32 279.137C1089.15 279.137 1088.21 278.715 1087.49 277.872C1086.79 277.029 1086.43 275.901 1086.43 274.488V273.531C1086.43 272.606 1086.6 271.793 1086.93 271.091C1087.26 270.389 1087.73 269.851 1088.33 269.478C1088.94 269.099 1089.64 268.91 1090.44 268.91C1091.5 268.91 1092.35 269.206 1092.98 269.799C1093.62 270.387 1093.99 271.202 1094.1 272.246H1092.78C1092.66 271.453 1092.42 270.879 1092.03 270.523C1091.65 270.168 1091.12 269.99 1090.44 269.99C1089.6 269.99 1088.94 270.3 1088.46 270.92C1087.99 271.54 1087.75 272.422 1087.75 273.565V274.529C1087.75 275.609 1087.98 276.468 1088.43 277.106C1088.88 277.744 1089.51 278.063 1090.32 278.063C1091.05 278.063 1091.61 277.899 1092 277.571C1092.39 277.239 1092.65 276.662 1092.78 275.842H1094.1ZM1097.07 279H1095.81V268.5H1097.07V279ZM1103.67 279C1103.6 278.854 1103.54 278.594 1103.49 278.221C1102.9 278.831 1102.2 279.137 1101.38 279.137C1100.66 279.137 1100.06 278.932 1099.59 278.521C1099.12 278.107 1098.89 277.583 1098.89 276.949C1098.89 276.179 1099.18 275.582 1099.76 275.158C1100.35 274.73 1101.18 274.516 1102.24 274.516H1103.47V273.935C1103.47 273.493 1103.34 273.142 1103.07 272.882C1102.81 272.618 1102.42 272.485 1101.9 272.485C1101.45 272.485 1101.07 272.599 1100.77 272.827C1100.46 273.055 1100.31 273.331 1100.31 273.654H1099.04C1099.04 273.285 1099.17 272.93 1099.43 272.588C1099.69 272.242 1100.05 271.968 1100.5 271.768C1100.95 271.567 1101.44 271.467 1101.98 271.467C1102.83 271.467 1103.5 271.681 1103.98 272.109C1104.47 272.533 1104.72 273.119 1104.73 273.866V277.271C1104.73 277.95 1104.82 278.49 1104.99 278.891V279H1103.67ZM1101.57 278.036C1101.97 278.036 1102.34 277.934 1102.7 277.729C1103.05 277.523 1103.31 277.257 1103.47 276.929V275.411H1102.48C1100.93 275.411 1100.15 275.865 1100.15 276.771C1100.15 277.168 1100.29 277.478 1100.55 277.701C1100.82 277.924 1101.15 278.036 1101.57 278.036ZM1111.02 277.038C1111.02 276.696 1110.89 276.432 1110.63 276.245C1110.38 276.054 1109.93 275.89 1109.29 275.753C1108.65 275.616 1108.14 275.452 1107.76 275.261C1107.39 275.069 1107.11 274.841 1106.93 274.577C1106.75 274.313 1106.66 273.998 1106.66 273.634C1106.66 273.028 1106.92 272.515 1107.43 272.096C1107.94 271.676 1108.6 271.467 1109.4 271.467C1110.24 271.467 1110.91 271.683 1111.43 272.116C1111.96 272.549 1112.22 273.103 1112.22 273.777H1110.95C1110.95 273.431 1110.8 273.132 1110.5 272.882C1110.21 272.631 1109.84 272.506 1109.4 272.506C1108.94 272.506 1108.58 272.606 1108.32 272.807C1108.06 273.007 1107.93 273.269 1107.93 273.593C1107.93 273.898 1108.05 274.128 1108.29 274.283C1108.53 274.438 1108.97 274.586 1109.59 274.728C1110.23 274.869 1110.74 275.037 1111.13 275.233C1111.52 275.429 1111.81 275.666 1112 275.944C1112.19 276.218 1112.29 276.553 1112.29 276.949C1112.29 277.61 1112.02 278.141 1111.5 278.542C1110.97 278.938 1110.28 279.137 1109.44 279.137C1108.85 279.137 1108.32 279.032 1107.87 278.822C1107.41 278.613 1107.05 278.321 1106.79 277.947C1106.54 277.569 1106.41 277.161 1106.41 276.724H1107.67C1107.7 277.147 1107.87 277.485 1108.18 277.735C1108.5 277.981 1108.92 278.104 1109.44 278.104C1109.92 278.104 1110.3 278.009 1110.59 277.817C1110.88 277.621 1111.02 277.362 1111.02 277.038ZM1115.2 272.499C1115.76 271.811 1116.49 271.467 1117.39 271.467C1118.95 271.467 1119.74 272.349 1119.75 274.112V279H1118.49V274.105C1118.48 273.572 1118.36 273.178 1118.12 272.923C1117.88 272.668 1117.51 272.54 1117 272.54C1116.59 272.54 1116.23 272.649 1115.92 272.868C1115.61 273.087 1115.37 273.374 1115.2 273.729V279H1113.94V268.5H1115.2V272.499ZM1123.02 279H1121.76V271.604H1123.02V279ZM1121.65 269.642C1121.65 269.437 1121.71 269.263 1121.84 269.122C1121.97 268.981 1122.15 268.91 1122.4 268.91C1122.64 268.91 1122.83 268.981 1122.96 269.122C1123.09 269.263 1123.15 269.437 1123.15 269.642C1123.15 269.847 1123.09 270.018 1122.96 270.154C1122.83 270.291 1122.64 270.359 1122.4 270.359C1122.15 270.359 1121.97 270.291 1121.84 270.154C1121.71 270.018 1121.65 269.847 1121.65 269.642ZM1128.02 278.104C1128.47 278.104 1128.86 277.968 1129.2 277.694C1129.54 277.421 1129.72 277.079 1129.76 276.669H1130.96C1130.93 277.093 1130.79 277.496 1130.52 277.879C1130.25 278.262 1129.89 278.567 1129.44 278.795C1128.99 279.023 1128.52 279.137 1128.02 279.137C1127.01 279.137 1126.21 278.802 1125.61 278.132C1125.02 277.457 1124.72 276.537 1124.72 275.37V275.158C1124.72 274.438 1124.85 273.798 1125.12 273.237C1125.38 272.677 1125.76 272.242 1126.25 271.932C1126.75 271.622 1127.34 271.467 1128.01 271.467C1128.84 271.467 1129.53 271.715 1130.08 272.212C1130.63 272.709 1130.92 273.354 1130.96 274.146H1129.76C1129.72 273.668 1129.54 273.276 1129.21 272.971C1128.89 272.661 1128.49 272.506 1128.01 272.506C1127.37 272.506 1126.87 272.738 1126.51 273.203C1126.16 273.663 1125.99 274.331 1125.99 275.206V275.445C1125.99 276.298 1126.16 276.954 1126.51 277.414C1126.86 277.874 1127.37 278.104 1128.02 278.104Z" fill="#FF5A43"/>
<path d="M1040.16 331V321.047H1043.41C1044.49 321.047 1045.3 321.27 1045.84 321.717C1046.39 322.163 1046.66 322.824 1046.66 323.699C1046.66 324.164 1046.53 324.576 1046.27 324.937C1046 325.292 1045.64 325.568 1045.19 325.764C1045.72 325.914 1046.15 326.201 1046.46 326.625C1046.77 327.044 1046.93 327.546 1046.93 328.129C1046.93 329.022 1046.64 329.724 1046.06 330.234C1045.48 330.745 1044.66 331 1043.61 331H1040.16ZM1041.47 326.345V329.927H1043.63C1044.25 329.927 1044.73 329.77 1045.08 329.455C1045.43 329.136 1045.61 328.699 1045.61 328.143C1045.61 326.944 1044.96 326.345 1043.66 326.345H1041.47ZM1041.47 325.292H1043.45C1044.02 325.292 1044.48 325.148 1044.82 324.861C1045.17 324.574 1045.34 324.185 1045.34 323.692C1045.34 323.146 1045.18 322.749 1044.87 322.503C1044.55 322.252 1044.06 322.127 1043.41 322.127H1041.47V325.292ZM1050.05 331H1048.79V323.604H1050.05V331ZM1048.69 321.642C1048.69 321.437 1048.75 321.263 1048.87 321.122C1049 320.981 1049.19 320.91 1049.43 320.91C1049.68 320.91 1049.86 320.981 1049.99 321.122C1050.12 321.263 1050.18 321.437 1050.18 321.642C1050.18 321.847 1050.12 322.018 1049.99 322.154C1049.86 322.291 1049.68 322.359 1049.43 322.359C1049.19 322.359 1049 322.291 1048.87 322.154C1048.75 322.018 1048.69 321.847 1048.69 321.642ZM1053.8 321.812V323.604H1055.18V324.581H1053.8V329.168C1053.8 329.464 1053.86 329.688 1053.98 329.838C1054.11 329.984 1054.32 330.057 1054.61 330.057C1054.76 330.057 1054.96 330.029 1055.21 329.975V331C1054.88 331.091 1054.56 331.137 1054.24 331.137C1053.68 331.137 1053.25 330.966 1052.97 330.624C1052.68 330.282 1052.54 329.797 1052.54 329.168V324.581H1051.19V323.604H1052.54V321.812H1053.8ZM1059.63 330.104C1060.08 330.104 1060.48 329.968 1060.81 329.694C1061.15 329.421 1061.34 329.079 1061.37 328.669H1062.57C1062.55 329.093 1062.4 329.496 1062.13 329.879C1061.86 330.262 1061.5 330.567 1061.05 330.795C1060.61 331.023 1060.13 331.137 1059.63 331.137C1058.62 331.137 1057.82 330.802 1057.22 330.132C1056.63 329.457 1056.34 328.537 1056.34 327.37V327.158C1056.34 326.438 1056.47 325.798 1056.73 325.237C1057 324.677 1057.38 324.242 1057.87 323.932C1058.36 323.622 1058.95 323.467 1059.62 323.467C1060.45 323.467 1061.14 323.715 1061.69 324.212C1062.24 324.709 1062.53 325.354 1062.57 326.146H1061.37C1061.34 325.668 1061.16 325.276 1060.83 324.971C1060.5 324.661 1060.1 324.506 1059.62 324.506C1058.98 324.506 1058.48 324.738 1058.13 325.203C1057.78 325.663 1057.6 326.331 1057.6 327.206V327.445C1057.6 328.298 1057.78 328.954 1058.13 329.414C1058.48 329.874 1058.98 330.104 1059.63 330.104ZM1063.66 327.233C1063.66 326.509 1063.8 325.857 1064.08 325.278C1064.37 324.7 1064.76 324.253 1065.27 323.938C1065.78 323.624 1066.36 323.467 1067.01 323.467C1068.02 323.467 1068.83 323.815 1069.45 324.513C1070.08 325.21 1070.39 326.137 1070.39 327.295V327.384C1070.39 328.104 1070.25 328.751 1069.97 329.325C1069.7 329.895 1069.31 330.339 1068.79 330.658C1068.28 330.977 1067.69 331.137 1067.03 331.137C1066.02 331.137 1065.21 330.788 1064.59 330.091C1063.97 329.394 1063.66 328.471 1063.66 327.322V327.233ZM1064.93 327.384C1064.93 328.204 1065.12 328.863 1065.5 329.359C1065.88 329.856 1066.39 330.104 1067.03 330.104C1067.67 330.104 1068.18 329.854 1068.56 329.353C1068.94 328.847 1069.13 328.14 1069.13 327.233C1069.13 326.422 1068.93 325.766 1068.54 325.265C1068.16 324.759 1067.65 324.506 1067.01 324.506C1066.39 324.506 1065.89 324.754 1065.5 325.251C1065.12 325.748 1064.93 326.459 1064.93 327.384ZM1073.35 331H1072.09V323.604H1073.35V331ZM1071.98 321.642C1071.98 321.437 1072.04 321.263 1072.17 321.122C1072.3 320.981 1072.48 320.91 1072.73 320.91C1072.97 320.91 1073.16 320.981 1073.29 321.122C1073.42 321.263 1073.48 321.437 1073.48 321.642C1073.48 321.847 1073.42 322.018 1073.29 322.154C1073.16 322.291 1072.97 322.359 1072.73 322.359C1072.48 322.359 1072.3 322.291 1072.17 322.154C1072.04 322.018 1071.98 321.847 1071.98 321.642ZM1076.58 323.604L1076.62 324.533C1077.18 323.822 1077.92 323.467 1078.83 323.467C1080.4 323.467 1081.18 324.349 1081.2 326.112V331H1079.93V326.105C1079.93 325.572 1079.81 325.178 1079.56 324.923C1079.33 324.668 1078.96 324.54 1078.45 324.54C1078.04 324.54 1077.68 324.649 1077.37 324.868C1077.06 325.087 1076.82 325.374 1076.65 325.729V331H1075.38V323.604H1076.58ZM1089.71 326.563C1088.58 326.24 1087.76 325.843 1087.25 325.374C1086.74 324.9 1086.48 324.317 1086.48 323.624C1086.48 322.84 1086.79 322.193 1087.42 321.683C1088.05 321.168 1088.86 320.91 1089.87 320.91C1090.55 320.91 1091.16 321.042 1091.69 321.307C1092.23 321.571 1092.64 321.936 1092.94 322.4C1093.23 322.865 1093.38 323.373 1093.38 323.925H1092.06C1092.06 323.323 1091.87 322.852 1091.49 322.51C1091.1 322.163 1090.56 321.99 1089.87 321.99C1089.22 321.99 1088.71 322.134 1088.35 322.421C1087.99 322.703 1087.81 323.098 1087.81 323.604C1087.81 324.009 1087.98 324.353 1088.32 324.636C1088.67 324.914 1089.25 325.169 1090.08 325.401C1090.91 325.634 1091.55 325.891 1092.02 326.174C1092.49 326.452 1092.84 326.778 1093.06 327.151C1093.29 327.525 1093.4 327.965 1093.4 328.471C1093.4 329.277 1093.09 329.924 1092.46 330.412C1091.83 330.895 1090.99 331.137 1089.93 331.137C1089.25 331.137 1088.61 331.007 1088.02 330.747C1087.43 330.483 1086.97 330.123 1086.65 329.667C1086.33 329.211 1086.17 328.694 1086.17 328.115H1087.49C1087.49 328.717 1087.71 329.193 1088.15 329.544C1088.6 329.89 1089.19 330.063 1089.93 330.063C1090.63 330.063 1091.16 329.922 1091.53 329.64C1091.9 329.357 1092.08 328.972 1092.08 328.484C1092.08 327.997 1091.91 327.621 1091.57 327.356C1091.23 327.088 1090.61 326.823 1089.71 326.563ZM1098.38 329.257L1101.23 321.047H1102.66L1098.97 331H1097.81L1094.12 321.047H1095.55L1098.38 329.257Z" fill="#FF5A43"/>
<path d="M1040.16 173V163.047H1043.41C1044.49 163.047 1045.3 163.27 1045.84 163.717C1046.39 164.163 1046.66 164.824 1046.66 165.699C1046.66 166.164 1046.53 166.576 1046.27 166.937C1046 167.292 1045.64 167.568 1045.19 167.764C1045.72 167.914 1046.15 168.201 1046.46 168.625C1046.77 169.044 1046.93 169.546 1046.93 170.129C1046.93 171.022 1046.64 171.724 1046.06 172.234C1045.48 172.745 1044.66 173 1043.61 173H1040.16ZM1041.47 168.345V171.927H1043.63C1044.25 171.927 1044.73 171.77 1045.08 171.455C1045.43 171.136 1045.61 170.699 1045.61 170.143C1045.61 168.944 1044.96 168.345 1043.66 168.345H1041.47ZM1041.47 167.292H1043.45C1044.02 167.292 1044.48 167.148 1044.82 166.861C1045.17 166.574 1045.34 166.185 1045.34 165.692C1045.34 165.146 1045.18 164.749 1044.87 164.503C1044.55 164.252 1044.06 164.127 1043.41 164.127H1041.47V167.292ZM1050.05 173H1048.79V165.604H1050.05V173ZM1048.69 163.642C1048.69 163.437 1048.75 163.263 1048.87 163.122C1049 162.981 1049.19 162.91 1049.43 162.91C1049.68 162.91 1049.86 162.981 1049.99 163.122C1050.12 163.263 1050.18 163.437 1050.18 163.642C1050.18 163.847 1050.12 164.018 1049.99 164.154C1049.86 164.291 1049.68 164.359 1049.43 164.359C1049.19 164.359 1049 164.291 1048.87 164.154C1048.75 164.018 1048.69 163.847 1048.69 163.642ZM1053.8 163.812V165.604H1055.18V166.581H1053.8V171.168C1053.8 171.464 1053.86 171.688 1053.98 171.838C1054.11 171.984 1054.32 172.057 1054.61 172.057C1054.76 172.057 1054.96 172.029 1055.21 171.975V173C1054.88 173.091 1054.56 173.137 1054.24 173.137C1053.68 173.137 1053.25 172.966 1052.97 172.624C1052.68 172.282 1052.54 171.797 1052.54 171.168V166.581H1051.19V165.604H1052.54V163.812H1053.8ZM1059.63 172.104C1060.08 172.104 1060.48 171.968 1060.81 171.694C1061.15 171.421 1061.34 171.079 1061.37 170.669H1062.57C1062.55 171.093 1062.4 171.496 1062.13 171.879C1061.86 172.262 1061.5 172.567 1061.05 172.795C1060.61 173.023 1060.13 173.137 1059.63 173.137C1058.62 173.137 1057.82 172.802 1057.22 172.132C1056.63 171.457 1056.34 170.537 1056.34 169.37V169.158C1056.34 168.438 1056.47 167.798 1056.73 167.237C1057 166.677 1057.38 166.242 1057.87 165.932C1058.36 165.622 1058.95 165.467 1059.62 165.467C1060.45 165.467 1061.14 165.715 1061.69 166.212C1062.24 166.709 1062.53 167.354 1062.57 168.146H1061.37C1061.34 167.668 1061.16 167.276 1060.83 166.971C1060.5 166.661 1060.1 166.506 1059.62 166.506C1058.98 166.506 1058.48 166.738 1058.13 167.203C1057.78 167.663 1057.6 168.331 1057.6 169.206V169.445C1057.6 170.298 1057.78 170.954 1058.13 171.414C1058.48 171.874 1058.98 172.104 1059.63 172.104ZM1063.66 169.233C1063.66 168.509 1063.8 167.857 1064.08 167.278C1064.37 166.7 1064.76 166.253 1065.27 165.938C1065.78 165.624 1066.36 165.467 1067.01 165.467C1068.02 165.467 1068.83 165.815 1069.45 166.513C1070.08 167.21 1070.39 168.137 1070.39 169.295V169.384C1070.39 170.104 1070.25 170.751 1069.97 171.325C1069.7 171.895 1069.31 172.339 1068.79 172.658C1068.28 172.977 1067.69 173.137 1067.03 173.137C1066.02 173.137 1065.21 172.788 1064.59 172.091C1063.97 171.394 1063.66 170.471 1063.66 169.322V169.233ZM1064.93 169.384C1064.93 170.204 1065.12 170.863 1065.5 171.359C1065.88 171.856 1066.39 172.104 1067.03 172.104C1067.67 172.104 1068.18 171.854 1068.56 171.353C1068.94 170.847 1069.13 170.14 1069.13 169.233C1069.13 168.422 1068.93 167.766 1068.54 167.265C1068.16 166.759 1067.65 166.506 1067.01 166.506C1066.39 166.506 1065.89 166.754 1065.5 167.251C1065.12 167.748 1064.93 168.459 1064.93 169.384ZM1073.35 173H1072.09V165.604H1073.35V173ZM1071.98 163.642C1071.98 163.437 1072.04 163.263 1072.17 163.122C1072.3 162.981 1072.48 162.91 1072.73 162.91C1072.97 162.91 1073.16 162.981 1073.29 163.122C1073.42 163.263 1073.48 163.437 1073.48 163.642C1073.48 163.847 1073.42 164.018 1073.29 164.154C1073.16 164.291 1072.97 164.359 1072.73 164.359C1072.48 164.359 1072.3 164.291 1072.17 164.154C1072.04 164.018 1071.98 163.847 1071.98 163.642ZM1076.58 165.604L1076.62 166.533C1077.18 165.822 1077.92 165.467 1078.83 165.467C1080.4 165.467 1081.18 166.349 1081.2 168.112V173H1079.93V168.105C1079.93 167.572 1079.81 167.178 1079.56 166.923C1079.33 166.668 1078.96 166.54 1078.45 166.54C1078.04 166.54 1077.68 166.649 1077.37 166.868C1077.06 167.087 1076.82 167.374 1076.65 167.729V173H1075.38V165.604H1076.58Z" fill="#FF5A43"/>
<path d="M1047.03 452.127H1043.83V461H1042.53V452.127H1039.33V451.047H1047.03V452.127ZM1050.7 461.137C1049.69 461.137 1048.88 460.809 1048.25 460.152C1047.62 459.492 1047.31 458.61 1047.31 457.507V457.274C1047.31 456.541 1047.44 455.887 1047.72 455.312C1048.01 454.734 1048.4 454.283 1048.9 453.959C1049.4 453.631 1049.95 453.467 1050.54 453.467C1051.5 453.467 1052.25 453.784 1052.78 454.417C1053.31 455.05 1053.58 455.957 1053.58 457.138V457.664H1048.57C1048.59 458.393 1048.8 458.983 1049.21 459.435C1049.62 459.881 1050.14 460.104 1050.76 460.104C1051.21 460.104 1051.59 460.013 1051.9 459.831C1052.21 459.649 1052.48 459.407 1052.71 459.106L1053.49 459.708C1052.87 460.66 1051.94 461.137 1050.7 461.137ZM1050.54 454.506C1050.03 454.506 1049.6 454.693 1049.25 455.066C1048.91 455.436 1048.69 455.955 1048.61 456.625H1052.32V456.529C1052.28 455.887 1052.11 455.39 1051.8 455.039C1051.49 454.684 1051.07 454.506 1050.54 454.506ZM1056.24 459.968H1060.57V461H1054.7V460.07L1058.78 454.649H1054.76V453.604H1060.36V454.499L1056.24 459.968ZM1061.55 457.233C1061.55 456.509 1061.69 455.857 1061.98 455.278C1062.26 454.7 1062.66 454.253 1063.17 453.938C1063.68 453.624 1064.26 453.467 1064.91 453.467C1065.92 453.467 1066.73 453.815 1067.35 454.513C1067.97 455.21 1068.29 456.137 1068.29 457.295V457.384C1068.29 458.104 1068.15 458.751 1067.87 459.325C1067.59 459.895 1067.2 460.339 1066.69 460.658C1066.18 460.977 1065.59 461.137 1064.92 461.137C1063.92 461.137 1063.11 460.788 1062.48 460.091C1061.86 459.394 1061.55 458.471 1061.55 457.322V457.233ZM1062.82 457.384C1062.82 458.204 1063.01 458.863 1063.39 459.359C1063.77 459.856 1064.28 460.104 1064.92 460.104C1065.56 460.104 1066.07 459.854 1066.45 459.353C1066.83 458.847 1067.02 458.14 1067.02 457.233C1067.02 456.422 1066.83 455.766 1066.44 455.265C1066.06 454.759 1065.55 454.506 1064.91 454.506C1064.28 454.506 1063.78 454.754 1063.4 455.251C1063.01 455.748 1062.82 456.459 1062.82 457.384ZM1074.18 459.038C1074.18 458.696 1074.05 458.432 1073.79 458.245C1073.53 458.054 1073.08 457.89 1072.44 457.753C1071.8 457.616 1071.3 457.452 1070.92 457.261C1070.54 457.069 1070.27 456.841 1070.08 456.577C1069.91 456.313 1069.82 455.998 1069.82 455.634C1069.82 455.028 1070.07 454.515 1070.58 454.096C1071.1 453.676 1071.75 453.467 1072.55 453.467C1073.39 453.467 1074.07 453.683 1074.59 454.116C1075.11 454.549 1075.37 455.103 1075.37 455.777H1074.1C1074.1 455.431 1073.95 455.132 1073.66 454.882C1073.37 454.631 1073 454.506 1072.55 454.506C1072.09 454.506 1071.73 454.606 1071.47 454.807C1071.21 455.007 1071.08 455.269 1071.08 455.593C1071.08 455.898 1071.2 456.128 1071.44 456.283C1071.68 456.438 1072.12 456.586 1072.75 456.728C1073.38 456.869 1073.9 457.037 1074.29 457.233C1074.68 457.429 1074.97 457.666 1075.16 457.944C1075.35 458.218 1075.44 458.553 1075.44 458.949C1075.44 459.61 1075.18 460.141 1074.65 460.542C1074.12 460.938 1073.43 461.137 1072.59 461.137C1072 461.137 1071.48 461.032 1071.02 460.822C1070.56 460.613 1070.21 460.321 1069.95 459.947C1069.69 459.569 1069.56 459.161 1069.56 458.724H1070.83C1070.85 459.147 1071.02 459.485 1071.33 459.735C1071.65 459.981 1072.07 460.104 1072.59 460.104C1073.07 460.104 1073.45 460.009 1073.74 459.817C1074.03 459.621 1074.18 459.362 1074.18 459.038Z" fill="#2097F6"/>
<line x1="11" y1="170.5" x2="1022" y2="170.5" stroke="#FF5A43" stroke-width="2"/>
<path d="M1012 161L1022.5 170.5L1012 179.5" stroke="#FF5A43" stroke-width="2" stroke-linecap="round" stroke-linejoin="round"/>
<circle cx="6.5" cy="171" r="5.5" stroke="#FF5A43" stroke-width="2"/>
<path d="M1012 161L1022.5 170.5L1012 179.5" stroke="#FF5A43" stroke-width="2" stroke-linecap="round" stroke-linejoin="round"/>
<path d="M213 175V182C213 204.091 230.909 222 253 222H1019.5" stroke="#FF5A43" stroke-width="2" stroke-linecap="round" stroke-linejoin="round"/>
<path d="M1020.66 221.238L1012.67 213.992C1012.03 213.409 1011 213.865 1011 214.732V228.826C1011 229.68 1012 230.141 1012.65 229.585L1020.64 222.738C1021.1 222.346 1021.11 221.643 1020.66 221.238Z" fill="#FF5A43"/>
<circle cx="212.5" cy="170.5" r="5.5" fill="#FF5A43"/>
<path d="M366 227V234C366 256.091 383.909 274 406 274H1019.5" stroke="#FF5A43" stroke-width="2" stroke-linecap="round" stroke-linejoin="round"/>
<path d="M1020.66 273.238L1012.67 265.992C1012.03 265.409 1011 265.865 1011 266.732V280.826C1011 281.68 1012 282.141 1012.65 281.585L1020.64 274.738C1021.1 274.346 1021.11 273.643 1020.66 273.238Z" fill="#FF5A43"/>
<circle cx="365.5" cy="222.5" r="5.5" fill="#FF5A43"/>
<path d="M547 278V285C547 307.091 564.909 325 587 325H1018.5" stroke="#FF5A43" stroke-width="2" stroke-linecap="round" stroke-linejoin="round"/>
<path d="M1019.66 324.238L1011.67 316.992C1011.03 316.409 1010 316.865 1010 317.732V331.826C1010 332.68 1011 333.141 1011.65 332.585L1019.64 325.738C1020.1 325.346 1020.11 324.643 1019.66 324.238Z" fill="#FF5A43"/>
<circle cx="546.5" cy="273.5" r="5.5" fill="#FF5A43"/>
<path d="M632 165V158C632 135.909 649.909 118 672 118H1020.5" stroke="#FF5A43" stroke-width="2" stroke-linecap="round" stroke-linejoin="round"/>
<path d="M1021.66 118.762L1013.67 126.008C1013.03 126.591 1012 126.135 1012 125.268V111.174C1012 110.32 1013 109.859 1013.65 110.415L1021.64 117.262C1022.1 117.654 1022.11 118.357 1021.66 118.762Z" fill="#FF5A43"/>
<circle r="5.5" transform="matrix(1 0 0 -1 631.5 169.5)" fill="#FF5A43"/>
<path d="M465 165V109C465 86.9086 482.909 69 505 69H1020.5" stroke="#FF5A43" stroke-width="2" stroke-linecap="round" stroke-linejoin="round"/>
<path d="M1021.66 69.7619L1013.67 77.0084C1013.03 77.5913 1012 77.1353 1012 76.2677V62.1742C1012 61.3199 1013 60.859 1013.65 61.415L1021.64 68.262C1022.1 68.6537 1022.11 69.3575 1021.66 69.7619Z" fill="#FF5A43"/>
<circle r="5.5" transform="matrix(1 0 0 -1 464.5 169.5)" fill="#FF5A43"/>
<path d="M331 165V58C331 35.9086 348.909 18 371 18H1020.5" stroke="#FF5A43" stroke-width="2" stroke-linecap="round" stroke-linejoin="round"/>
<path d="M1021.66 18.7619L1013.67 26.0084C1013.03 26.5913 1012 26.1354 1012 25.2677V11.1742C1012 10.3199 1013 9.85898 1013.65 10.415L1021.64 17.262C1022.1 17.6538 1022.11 18.3575 1021.66 18.7619Z" fill="#FF5A43"/>
<circle r="5.5" transform="matrix(1 0 0 -1 330.5 169.5)" fill="#FF5A43"/>
<line x1="11" y1="170.5" x2="1022" y2="170.5" stroke="#FF5A43" stroke-width="2"/>
<path d="M1012 161L1022.5 170.5L1012 179.5" stroke="#FF5A43" stroke-width="2" stroke-linecap="round" stroke-linejoin="round"/>
<circle cx="6.5" cy="171" r="5.5" stroke="#FF5A43" stroke-width="2"/>
<path d="M1012 161L1022.5 170.5L1012 179.5" stroke="#FF5A43" stroke-width="2" stroke-linecap="round" stroke-linejoin="round"/>
<path d="M213 175V182C213 204.091 230.909 222 253 222H1019.5" stroke="#FF5A43" stroke-width="2" stroke-linecap="round" stroke-linejoin="round"/>
<path d="M1020.66 221.238L1012.67 213.992C1012.03 213.409 1011 213.865 1011 214.732V228.826C1011 229.68 1012 230.141 1012.65 229.585L1020.64 222.738C1021.1 222.346 1021.11 221.643 1020.66 221.238Z" fill="#FF5A43"/>
<circle cx="212.5" cy="170.5" r="5.5" fill="#FF5A43"/>
<path d="M366 227V234C366 256.091 383.909 274 406 274H1019.5" stroke="#FF5A43" stroke-width="2" stroke-linecap="round" stroke-linejoin="round"/>
<path d="M1020.66 273.238L1012.67 265.992C1012.03 265.409 1011 265.865 1011 266.732V280.826C1011 281.68 1012 282.141 1012.65 281.585L1020.64 274.738C1021.1 274.346 1021.11 273.643 1020.66 273.238Z" fill="#FF5A43"/>
<circle cx="365.5" cy="222.5" r="5.5" fill="#FF5A43"/>
<path d="M547 278V285C547 307.091 564.909 325 587 325H1018.5" stroke="#FF5A43" stroke-width="2" stroke-linecap="round" stroke-linejoin="round"/>
<path d="M1019.66 324.238L1011.67 316.992C1011.03 316.409 1010 316.865 1010 317.732V331.826C1010 332.68 1011 333.141 1011.65 332.585L1019.64 325.738C1020.1 325.346 1020.11 324.643 1019.66 324.238Z" fill="#FF5A43"/>
<circle cx="546.5" cy="273.5" r="5.5" fill="#FF5A43"/>
<path d="M632 165V158C632 135.909 649.909 118 672 118H1020.5" stroke="#FF5A43" stroke-width="2" stroke-linecap="round" stroke-linejoin="round"/>
<path d="M1021.66 118.762L1013.67 126.008C1013.03 126.591 1012 126.135 1012 125.268V111.174C1012 110.32 1013 109.859 1013.65 110.415L1021.64 117.262C1022.1 117.654 1022.11 118.357 1021.66 118.762Z" fill="#FF5A43"/>
<circle r="5.5" transform="matrix(1 0 0 -1 631.5 169.5)" fill="#FF5A43"/>
<path d="M465 165V109C465 86.9086 482.909 69 505 69H1020.5" stroke="#FF5A43" stroke-width="2" stroke-linecap="round" stroke-linejoin="round"/>
<path d="M1021.66 69.7619L1013.67 77.0084C1013.03 77.5913 1012 77.1353 1012 76.2677V62.1742C1012 61.3199 1013 60.859 1013.65 61.415L1021.64 68.262C1022.1 68.6537 1022.11 69.3575 1021.66 69.7619Z" fill="#FF5A43"/>
<circle r="5.5" transform="matrix(1 0 0 -1 464.5 169.5)" fill="#FF5A43"/>
<path d="M331 165V58C331 35.9086 348.909 18 371 18H1020.5" stroke="#FF5A43" stroke-width="2" stroke-linecap="round" stroke-linejoin="round"/>
<path d="M1021.66 18.7619L1013.67 26.0084C1013.03 26.5913 1012 26.1354 1012 25.2677V11.1742C1012 10.3199 1013 9.85898 1013.65 10.415L1021.64 17.262C1022.1 17.6538 1022.11 18.3575 1021.66 18.7619Z" fill="#FF5A43"/>
<circle r="5.5" transform="matrix(1 0 0 -1 330.5 169.5)" fill="#FF5A43"/>
</svg>
