<svg width="224" height="256" viewBox="0 0 224 256" fill="none" xmlns="http://www.w3.org/2000/svg">
<g filter="url(#filter0_d)">
<path d="M0 8C0 3.58172 3.58172 0 8 0H212C216.418 0 220 3.58172 220 8V244C220 248.418 216.418 252 212 252H8.00001C3.58173 252 0 248.418 0 244V8Z" fill="white"/>
<path d="M61.5547 31.9297C60.2682 31.5599 59.3307 31.1068 58.7422 30.5703C58.1589 30.0286 57.8672 29.362 57.8672 28.5703C57.8672 27.6745 58.224 26.9349 58.9375 26.3516C59.6562 25.763 60.5885 25.4688 61.7344 25.4688C62.5156 25.4688 63.2109 25.6198 63.8203 25.9219C64.4349 26.224 64.9089 26.6406 65.2422 27.1719C65.5807 27.7031 65.75 28.2839 65.75 28.9141H64.2422C64.2422 28.2266 64.0234 27.6875 63.5859 27.2969C63.1484 26.901 62.5312 26.7031 61.7344 26.7031C60.9948 26.7031 60.4167 26.8672 60 27.1953C59.5885 27.5182 59.3828 27.9688 59.3828 28.5469C59.3828 29.0104 59.5781 29.4036 59.9688 29.7266C60.3646 30.0443 61.0339 30.3359 61.9766 30.6016C62.9245 30.8672 63.6641 31.1615 64.1953 31.4844C64.7318 31.8021 65.1276 32.1745 65.3828 32.6016C65.6432 33.0286 65.7734 33.5312 65.7734 34.1094C65.7734 35.0312 65.4141 35.7708 64.6953 36.3281C63.9766 36.8802 63.0156 37.1562 61.8125 37.1562C61.0312 37.1562 60.3021 37.0078 59.625 36.7109C58.9479 36.4089 58.4245 35.9974 58.0547 35.4766C57.6901 34.9557 57.5078 34.3646 57.5078 33.7031H59.0156C59.0156 34.3906 59.2682 34.9349 59.7734 35.3359C60.2839 35.7318 60.9635 35.9297 61.8125 35.9297C62.6042 35.9297 63.2109 35.7682 63.6328 35.4453C64.0547 35.1224 64.2656 34.6823 64.2656 34.125C64.2656 33.5677 64.0703 33.138 63.6797 32.8359C63.2891 32.5286 62.5807 32.2266 61.5547 31.9297ZM68.8359 28.5469L68.875 29.4844C69.4948 28.7552 70.3307 28.3906 71.3828 28.3906C72.5651 28.3906 73.3698 28.8438 73.7969 29.75C74.0781 29.3438 74.4427 29.0156 74.8906 28.7656C75.3438 28.5156 75.8776 28.3906 76.4922 28.3906C78.3464 28.3906 79.2891 29.3724 79.3203 31.3359V37H77.875V31.4219C77.875 30.8177 77.737 30.3672 77.4609 30.0703C77.1849 29.7682 76.7214 29.6172 76.0703 29.6172C75.5339 29.6172 75.0885 29.7786 74.7344 30.1016C74.3802 30.4193 74.1745 30.849 74.1172 31.3906V37H72.6641V31.4609C72.6641 30.2318 72.0625 29.6172 70.8594 29.6172C69.9115 29.6172 69.263 30.0208 68.9141 30.8281V37H67.4688V28.5469H68.8359ZM86.7266 37C86.6432 36.8333 86.5755 36.5365 86.5234 36.1094C85.8516 36.8073 85.0495 37.1562 84.1172 37.1562C83.2839 37.1562 82.599 36.9219 82.0625 36.4531C81.5312 35.9792 81.2656 35.3802 81.2656 34.6562C81.2656 33.776 81.599 33.0938 82.2656 32.6094C82.9375 32.1198 83.8802 31.875 85.0938 31.875H86.5V31.2109C86.5 30.7057 86.349 30.3047 86.0469 30.0078C85.7448 29.7057 85.2995 29.5547 84.7109 29.5547C84.1953 29.5547 83.763 29.6849 83.4141 29.9453C83.0651 30.2057 82.8906 30.5208 82.8906 30.8906H81.4375C81.4375 30.4688 81.5859 30.0625 81.8828 29.6719C82.1849 29.276 82.5911 28.9635 83.1016 28.7344C83.6172 28.5052 84.1823 28.3906 84.7969 28.3906C85.7708 28.3906 86.5339 28.6354 87.0859 29.125C87.638 29.6094 87.9245 30.2786 87.9453 31.1328V35.0234C87.9453 35.7995 88.0443 36.4167 88.2422 36.875V37H86.7266ZM84.3281 35.8984C84.7812 35.8984 85.2109 35.7812 85.6172 35.5469C86.0234 35.3125 86.3177 35.0078 86.5 34.6328V32.8984H85.3672C83.5964 32.8984 82.7109 33.4167 82.7109 34.4531C82.7109 34.9062 82.862 35.2604 83.1641 35.5156C83.4661 35.7708 83.8542 35.8984 84.3281 35.8984ZM94.2969 29.8438C94.0781 29.8073 93.8411 29.7891 93.5859 29.7891C92.638 29.7891 91.9948 30.1927 91.6562 31V37H90.2109V28.5469H91.6172L91.6406 29.5234C92.1146 28.7682 92.7865 28.3906 93.6562 28.3906C93.9375 28.3906 94.151 28.4271 94.2969 28.5V29.8438ZM97.9844 26.5V28.5469H99.5625V29.6641H97.9844V34.9062C97.9844 35.2448 98.0547 35.5 98.1953 35.6719C98.3359 35.8385 98.5755 35.9219 98.9141 35.9219C99.0807 35.9219 99.3099 35.8906 99.6016 35.8281V37C99.2214 37.1042 98.8516 37.1562 98.4922 37.1562C97.8464 37.1562 97.3594 36.9609 97.0312 36.5703C96.7031 36.1797 96.5391 35.625 96.5391 34.9062V29.6641H95V28.5469H96.5391V26.5H97.9844ZM108.617 35.9766C109.133 35.9766 109.583 35.8203 109.969 35.5078C110.354 35.1953 110.568 34.8047 110.609 34.3359H111.977C111.951 34.8203 111.784 35.2812 111.477 35.7188C111.169 36.1562 110.758 36.5052 110.242 36.7656C109.732 37.026 109.19 37.1562 108.617 37.1562C107.466 37.1562 106.549 36.7734 105.867 36.0078C105.19 35.237 104.852 34.1849 104.852 32.8516V32.6094C104.852 31.7865 105.003 31.0547 105.305 30.4141C105.607 29.7734 106.039 29.276 106.602 28.9219C107.169 28.5677 107.839 28.3906 108.609 28.3906C109.557 28.3906 110.344 28.6745 110.969 29.2422C111.599 29.8099 111.935 30.5469 111.977 31.4531H110.609C110.568 30.9062 110.359 30.4583 109.984 30.1094C109.615 29.7552 109.156 29.5781 108.609 29.5781C107.875 29.5781 107.305 29.8438 106.898 30.375C106.497 30.901 106.297 31.6641 106.297 32.6641V32.9375C106.297 33.9115 106.497 34.6615 106.898 35.1875C107.299 35.7135 107.872 35.9766 108.617 35.9766ZM113.219 32.6953C113.219 31.8672 113.38 31.1224 113.703 30.4609C114.031 29.7995 114.484 29.2891 115.062 28.9297C115.646 28.5703 116.31 28.3906 117.055 28.3906C118.206 28.3906 119.135 28.7891 119.844 29.5859C120.557 30.3828 120.914 31.4427 120.914 32.7656V32.8672C120.914 33.6901 120.755 34.4297 120.438 35.0859C120.125 35.737 119.674 36.2448 119.086 36.6094C118.503 36.974 117.831 37.1562 117.07 37.1562C115.924 37.1562 114.995 36.7578 114.281 35.9609C113.573 35.1641 113.219 34.1094 113.219 32.7969V32.6953ZM114.672 32.8672C114.672 33.8047 114.888 34.5573 115.32 35.125C115.758 35.6927 116.341 35.9766 117.07 35.9766C117.805 35.9766 118.388 35.6901 118.82 35.1172C119.253 34.5391 119.469 33.7318 119.469 32.6953C119.469 31.7682 119.247 31.0182 118.805 30.4453C118.367 29.8672 117.784 29.5781 117.055 29.5781C116.341 29.5781 115.766 29.862 115.328 30.4297C114.891 30.9974 114.672 31.8099 114.672 32.8672ZM124.094 28.5469L124.141 29.6094C124.786 28.7969 125.63 28.3906 126.672 28.3906C128.458 28.3906 129.359 29.3984 129.375 31.4141V37H127.93V31.4062C127.924 30.7969 127.784 30.3464 127.508 30.0547C127.237 29.763 126.812 29.6172 126.234 29.6172C125.766 29.6172 125.354 29.7422 125 29.9922C124.646 30.2422 124.37 30.5703 124.172 30.9766V37H122.727V28.5469H124.094ZM133.516 26.5V28.5469H135.094V29.6641H133.516V34.9062C133.516 35.2448 133.586 35.5 133.727 35.6719C133.867 35.8385 134.107 35.9219 134.445 35.9219C134.612 35.9219 134.841 35.8906 135.133 35.8281V37C134.753 37.1042 134.383 37.1562 134.023 37.1562C133.378 37.1562 132.891 36.9609 132.562 36.5703C132.234 36.1797 132.07 35.625 132.07 34.9062V29.6641H130.531V28.5469H132.07V26.5H133.516ZM140.875 29.8438C140.656 29.8073 140.419 29.7891 140.164 29.7891C139.216 29.7891 138.573 30.1927 138.234 31V37H136.789V28.5469H138.195L138.219 29.5234C138.693 28.7682 139.365 28.3906 140.234 28.3906C140.516 28.3906 140.729 28.4271 140.875 28.5V29.8438ZM147.117 37C147.034 36.8333 146.966 36.5365 146.914 36.1094C146.242 36.8073 145.44 37.1562 144.508 37.1562C143.674 37.1562 142.99 36.9219 142.453 36.4531C141.922 35.9792 141.656 35.3802 141.656 34.6562C141.656 33.776 141.99 33.0938 142.656 32.6094C143.328 32.1198 144.271 31.875 145.484 31.875H146.891V31.2109C146.891 30.7057 146.74 30.3047 146.438 30.0078C146.135 29.7057 145.69 29.5547 145.102 29.5547C144.586 29.5547 144.154 29.6849 143.805 29.9453C143.456 30.2057 143.281 30.5208 143.281 30.8906H141.828C141.828 30.4688 141.977 30.0625 142.273 29.6719C142.576 29.276 142.982 28.9635 143.492 28.7344C144.008 28.5052 144.573 28.3906 145.188 28.3906C146.161 28.3906 146.924 28.6354 147.477 29.125C148.029 29.6094 148.315 30.2786 148.336 31.1328V35.0234C148.336 35.7995 148.435 36.4167 148.633 36.875V37H147.117ZM144.719 35.8984C145.172 35.8984 145.602 35.7812 146.008 35.5469C146.414 35.3125 146.708 35.0078 146.891 34.6328V32.8984H145.758C143.987 32.8984 143.102 33.4167 143.102 34.4531C143.102 34.9062 143.253 35.2604 143.555 35.5156C143.857 35.7708 144.245 35.8984 144.719 35.8984ZM153.992 35.9766C154.508 35.9766 154.958 35.8203 155.344 35.5078C155.729 35.1953 155.943 34.8047 155.984 34.3359H157.352C157.326 34.8203 157.159 35.2812 156.852 35.7188C156.544 36.1562 156.133 36.5052 155.617 36.7656C155.107 37.026 154.565 37.1562 153.992 37.1562C152.841 37.1562 151.924 36.7734 151.242 36.0078C150.565 35.237 150.227 34.1849 150.227 32.8516V32.6094C150.227 31.7865 150.378 31.0547 150.68 30.4141C150.982 29.7734 151.414 29.276 151.977 28.9219C152.544 28.5677 153.214 28.3906 153.984 28.3906C154.932 28.3906 155.719 28.6745 156.344 29.2422C156.974 29.8099 157.31 30.5469 157.352 31.4531H155.984C155.943 30.9062 155.734 30.4583 155.359 30.1094C154.99 29.7552 154.531 29.5781 153.984 29.5781C153.25 29.5781 152.68 29.8438 152.273 30.375C151.872 30.901 151.672 31.6641 151.672 32.6641V32.9375C151.672 33.9115 151.872 34.6615 152.273 35.1875C152.674 35.7135 153.247 35.9766 153.992 35.9766ZM160.938 26.5V28.5469H162.516V29.6641H160.938V34.9062C160.938 35.2448 161.008 35.5 161.148 35.6719C161.289 35.8385 161.529 35.9219 161.867 35.9219C162.034 35.9219 162.263 35.8906 162.555 35.8281V37C162.174 37.1042 161.805 37.1562 161.445 37.1562C160.799 37.1562 160.312 36.9609 159.984 36.5703C159.656 36.1797 159.492 35.625 159.492 34.9062V29.6641H157.953V28.5469H159.492V26.5H160.938Z" fill="#2097F6"/>
<g filter="url(#filter1_d)">
<rect x="20" y="71" width="180" height="40" rx="20" fill="#E7F4FF"/>
<rect x="20.5" y="71.5" width="179" height="39" rx="19.5" stroke="#2097F6"/>
</g>
<g filter="url(#filter2_d)">
<rect x="20" y="175" width="180" height="40" rx="20" fill="#E7F4FF"/>
<path d="M60.6758 197.437C60.6758 196.999 60.5208 196.662 60.2109 196.425C59.9056 196.188 59.3519 195.949 58.5498 195.707C57.7477 195.465 57.1097 195.197 56.6357 194.9C55.7288 194.331 55.2754 193.588 55.2754 192.672C55.2754 191.87 55.6012 191.209 56.2529 190.689C56.9092 190.17 57.7591 189.91 58.8027 189.91C59.4954 189.91 60.113 190.038 60.6553 190.293C61.1976 190.548 61.6237 190.913 61.9336 191.387C62.2435 191.856 62.3984 192.378 62.3984 192.952H60.6758C60.6758 192.433 60.5117 192.027 60.1836 191.735C59.86 191.439 59.3952 191.291 58.7891 191.291C58.224 191.291 57.7842 191.412 57.4697 191.653C57.1598 191.895 57.0049 192.232 57.0049 192.665C57.0049 193.03 57.1735 193.335 57.5107 193.581C57.848 193.823 58.404 194.06 59.1787 194.292C59.9535 194.52 60.5755 194.782 61.0449 195.078C61.5143 195.37 61.8584 195.707 62.0771 196.09C62.2959 196.468 62.4053 196.912 62.4053 197.423C62.4053 198.252 62.0863 198.913 61.4482 199.405C60.8148 199.893 59.9535 200.137 58.8643 200.137C58.1442 200.137 57.4811 200.005 56.875 199.74C56.2734 199.471 55.804 199.102 55.4668 198.633C55.1341 198.163 54.9678 197.617 54.9678 196.992H56.6973C56.6973 197.557 56.8841 197.995 57.2578 198.305C57.6315 198.615 58.167 198.77 58.8643 198.77C59.4658 198.77 59.917 198.649 60.2178 198.407C60.5231 198.161 60.6758 197.838 60.6758 197.437ZM67.0195 200.137C65.9668 200.137 65.1123 199.806 64.4561 199.146C63.8044 198.48 63.4785 197.596 63.4785 196.493V196.288C63.4785 195.55 63.6198 194.891 63.9023 194.312C64.1895 193.729 64.5905 193.276 65.1055 192.952C65.6204 192.629 66.1947 192.467 66.8281 192.467C67.8353 192.467 68.6123 192.788 69.1592 193.431C69.7106 194.073 69.9863 194.982 69.9863 196.158V196.828H65.1533C65.2035 197.439 65.4062 197.922 65.7617 198.277C66.1217 198.633 66.5729 198.811 67.1152 198.811C67.8763 198.811 68.4961 198.503 68.9746 197.888L69.8701 198.742C69.5739 199.184 69.1774 199.528 68.6807 199.774C68.1885 200.016 67.6348 200.137 67.0195 200.137ZM66.8213 193.8C66.3656 193.8 65.9964 193.959 65.7139 194.278C65.4359 194.597 65.2581 195.042 65.1807 195.611H68.3457V195.488C68.3092 194.932 68.1611 194.513 67.9014 194.23C67.6416 193.943 67.2816 193.8 66.8213 193.8ZM73.3633 190.806V192.604H74.6689V193.834H73.3633V197.963C73.3633 198.245 73.418 198.451 73.5273 198.578C73.6413 198.701 73.8418 198.763 74.1289 198.763C74.3203 198.763 74.514 198.74 74.71 198.694V199.979C74.3317 200.084 73.9671 200.137 73.6162 200.137C72.3402 200.137 71.7021 199.433 71.7021 198.024V193.834H70.4854V192.604H71.7021V190.806H73.3633ZM79.1191 196.233C79.1191 195.509 79.2627 194.857 79.5498 194.278C79.8369 193.695 80.2402 193.248 80.7598 192.938C81.2793 192.624 81.8763 192.467 82.5508 192.467C83.5488 192.467 84.3577 192.788 84.9775 193.431C85.6019 194.073 85.9391 194.925 85.9893 195.987L85.9961 196.377C85.9961 197.106 85.8548 197.758 85.5723 198.332C85.2943 198.906 84.8932 199.351 84.3691 199.665C83.8496 199.979 83.248 200.137 82.5645 200.137C81.5208 200.137 80.6846 199.79 80.0557 199.098C79.4313 198.4 79.1191 197.473 79.1191 196.315V196.233ZM80.7803 196.377C80.7803 197.138 80.9375 197.735 81.252 198.168C81.5664 198.596 82.0039 198.811 82.5645 198.811C83.125 198.811 83.5602 198.592 83.8701 198.154C84.1846 197.717 84.3418 197.076 84.3418 196.233C84.3418 195.486 84.18 194.894 83.8564 194.456C83.5374 194.019 83.1022 193.8 82.5508 193.8C82.0085 193.8 81.5778 194.016 81.2588 194.449C80.9398 194.878 80.7803 195.52 80.7803 196.377ZM87.9854 200V193.834H86.8574V192.604H87.9854V191.927C87.9854 191.106 88.2132 190.473 88.6689 190.026C89.1247 189.58 89.7627 189.356 90.583 189.356C90.8747 189.356 91.1846 189.397 91.5127 189.479L91.4717 190.778C91.2894 190.742 91.0775 190.724 90.8359 190.724C90.043 190.724 89.6465 191.132 89.6465 191.947V192.604H91.1504V193.834H89.6465V200H87.9854ZM97.6172 200H95.9561V192.604H97.6172V200ZM95.8535 190.683C95.8535 190.427 95.9333 190.215 96.0928 190.047C96.2568 189.878 96.4893 189.794 96.79 189.794C97.0908 189.794 97.3232 189.878 97.4873 190.047C97.6514 190.215 97.7334 190.427 97.7334 190.683C97.7334 190.933 97.6514 191.143 97.4873 191.312C97.3232 191.476 97.0908 191.558 96.79 191.558C96.4893 191.558 96.2568 191.476 96.0928 191.312C95.9333 191.143 95.8535 190.933 95.8535 190.683ZM100.974 192.604L101.021 193.458C101.568 192.797 102.286 192.467 103.175 192.467C104.715 192.467 105.499 193.349 105.526 195.112V200H103.865V195.208C103.865 194.739 103.763 194.392 103.558 194.169C103.357 193.941 103.027 193.827 102.566 193.827C101.896 193.827 101.397 194.13 101.069 194.736V200H99.4082V192.604H100.974ZM111.371 197.99C111.371 197.694 111.248 197.468 111.002 197.313C110.76 197.159 110.357 197.022 109.792 196.903C109.227 196.785 108.755 196.634 108.377 196.452C107.548 196.051 107.133 195.47 107.133 194.709C107.133 194.071 107.402 193.538 107.939 193.109C108.477 192.681 109.161 192.467 109.99 192.467C110.874 192.467 111.588 192.686 112.13 193.123C112.677 193.561 112.95 194.128 112.95 194.825H111.289C111.289 194.506 111.171 194.242 110.934 194.032C110.697 193.818 110.382 193.711 109.99 193.711C109.626 193.711 109.327 193.795 109.095 193.964C108.867 194.132 108.753 194.358 108.753 194.641C108.753 194.896 108.86 195.094 109.074 195.235C109.288 195.377 109.721 195.52 110.373 195.666C111.025 195.807 111.535 195.978 111.904 196.179C112.278 196.375 112.554 196.612 112.731 196.89C112.914 197.168 113.005 197.505 113.005 197.901C113.005 198.567 112.729 199.107 112.178 199.521C111.626 199.932 110.904 200.137 110.011 200.137C109.405 200.137 108.865 200.027 108.391 199.809C107.917 199.59 107.548 199.289 107.283 198.906C107.019 198.523 106.887 198.111 106.887 197.669H108.5C108.523 198.061 108.671 198.364 108.944 198.578C109.218 198.788 109.58 198.893 110.031 198.893C110.469 198.893 110.801 198.811 111.029 198.646C111.257 198.478 111.371 198.259 111.371 197.99ZM116.539 190.806V192.604H117.845V193.834H116.539V197.963C116.539 198.245 116.594 198.451 116.703 198.578C116.817 198.701 117.018 198.763 117.305 198.763C117.496 198.763 117.69 198.74 117.886 198.694V199.979C117.507 200.084 117.143 200.137 116.792 200.137C115.516 200.137 114.878 199.433 114.878 198.024V193.834H113.661V192.604H114.878V190.806H116.539ZM122.992 194.121C122.773 194.085 122.548 194.066 122.315 194.066C121.554 194.066 121.042 194.358 120.777 194.941V200H119.116V192.604H120.702L120.743 193.431C121.144 192.788 121.7 192.467 122.411 192.467C122.648 192.467 122.844 192.499 122.999 192.562L122.992 194.121ZM128.522 199.275C128.035 199.85 127.342 200.137 126.444 200.137C125.642 200.137 125.034 199.902 124.619 199.433C124.209 198.963 124.004 198.284 124.004 197.396V192.604H125.665V197.375C125.665 198.314 126.055 198.783 126.834 198.783C127.641 198.783 128.185 198.494 128.468 197.915V192.604H130.129V200H128.563L128.522 199.275ZM134.859 198.811C135.274 198.811 135.618 198.69 135.892 198.448C136.165 198.207 136.311 197.908 136.329 197.553H137.895C137.876 198.013 137.733 198.444 137.464 198.845C137.195 199.241 136.83 199.556 136.37 199.788C135.91 200.021 135.413 200.137 134.88 200.137C133.845 200.137 133.025 199.802 132.419 199.132C131.813 198.462 131.51 197.537 131.51 196.356V196.186C131.51 195.06 131.811 194.16 132.412 193.485C133.014 192.806 133.834 192.467 134.873 192.467C135.753 192.467 136.468 192.724 137.02 193.239C137.576 193.75 137.867 194.422 137.895 195.256H136.329C136.311 194.832 136.165 194.483 135.892 194.21C135.623 193.937 135.279 193.8 134.859 193.8C134.322 193.8 133.907 193.996 133.615 194.388C133.324 194.775 133.175 195.365 133.171 196.158V196.425C133.171 197.227 133.314 197.826 133.602 198.223C133.893 198.615 134.312 198.811 134.859 198.811ZM141.23 190.806V192.604H142.536V193.834H141.23V197.963C141.23 198.245 141.285 198.451 141.395 198.578C141.508 198.701 141.709 198.763 141.996 198.763C142.188 198.763 142.381 198.74 142.577 198.694V199.979C142.199 200.084 141.834 200.137 141.483 200.137C140.207 200.137 139.569 199.433 139.569 198.024V193.834H138.353V192.604H139.569V190.806H141.23ZM145.578 200H143.917V192.604H145.578V200ZM143.814 190.683C143.814 190.427 143.894 190.215 144.054 190.047C144.218 189.878 144.45 189.794 144.751 189.794C145.052 189.794 145.284 189.878 145.448 190.047C145.612 190.215 145.694 190.427 145.694 190.683C145.694 190.933 145.612 191.143 145.448 191.312C145.284 191.476 145.052 191.558 144.751 191.558C144.45 191.558 144.218 191.476 144.054 191.312C143.894 191.143 143.814 190.933 143.814 190.683ZM147.082 196.233C147.082 195.509 147.226 194.857 147.513 194.278C147.8 193.695 148.203 193.248 148.723 192.938C149.242 192.624 149.839 192.467 150.514 192.467C151.512 192.467 152.321 192.788 152.94 193.431C153.565 194.073 153.902 194.925 153.952 195.987L153.959 196.377C153.959 197.106 153.818 197.758 153.535 198.332C153.257 198.906 152.856 199.351 152.332 199.665C151.812 199.979 151.211 200.137 150.527 200.137C149.484 200.137 148.647 199.79 148.019 199.098C147.394 198.4 147.082 197.473 147.082 196.315V196.233ZM148.743 196.377C148.743 197.138 148.9 197.735 149.215 198.168C149.529 198.596 149.967 198.811 150.527 198.811C151.088 198.811 151.523 198.592 151.833 198.154C152.147 197.717 152.305 197.076 152.305 196.233C152.305 195.486 152.143 194.894 151.819 194.456C151.5 194.019 151.065 193.8 150.514 193.8C149.971 193.8 149.541 194.016 149.222 194.449C148.903 194.878 148.743 195.52 148.743 196.377ZM156.905 192.604L156.953 193.458C157.5 192.797 158.218 192.467 159.106 192.467C160.647 192.467 161.431 193.349 161.458 195.112V200H159.797V195.208C159.797 194.739 159.694 194.392 159.489 194.169C159.289 193.941 158.958 193.827 158.498 193.827C157.828 193.827 157.329 194.13 157.001 194.736V200H155.34V192.604H156.905ZM167.303 197.99C167.303 197.694 167.18 197.468 166.934 197.313C166.692 197.159 166.289 197.022 165.724 196.903C165.159 196.785 164.687 196.634 164.309 196.452C163.479 196.051 163.064 195.47 163.064 194.709C163.064 194.071 163.333 193.538 163.871 193.109C164.409 192.681 165.092 192.467 165.922 192.467C166.806 192.467 167.519 192.686 168.062 193.123C168.608 193.561 168.882 194.128 168.882 194.825H167.221C167.221 194.506 167.102 194.242 166.865 194.032C166.628 193.818 166.314 193.711 165.922 193.711C165.557 193.711 165.259 193.795 165.026 193.964C164.799 194.132 164.685 194.358 164.685 194.641C164.685 194.896 164.792 195.094 165.006 195.235C165.22 195.377 165.653 195.52 166.305 195.666C166.956 195.807 167.467 195.978 167.836 196.179C168.21 196.375 168.485 196.612 168.663 196.89C168.845 197.168 168.937 197.505 168.937 197.901C168.937 198.567 168.661 199.107 168.109 199.521C167.558 199.932 166.836 200.137 165.942 200.137C165.336 200.137 164.796 200.027 164.322 199.809C163.848 199.59 163.479 199.289 163.215 198.906C162.951 198.523 162.818 198.111 162.818 197.669H164.432C164.454 198.061 164.603 198.364 164.876 198.578C165.149 198.788 165.512 198.893 165.963 198.893C166.4 198.893 166.733 198.811 166.961 198.646C167.189 198.478 167.303 198.259 167.303 197.99Z" fill="#2097F6"/>
<rect x="20.5" y="175.5" width="179" height="39" rx="19.5" stroke="#2097F6"/>
</g>
<g filter="url(#filter3_d)">
<rect x="20" y="123" width="180" height="40" rx="20" fill="#E7F4FF"/>
<path d="M60.6787 145.437C60.6787 144.999 60.5238 144.662 60.2139 144.425C59.9085 144.188 59.3548 143.949 58.5527 143.707C57.7507 143.465 57.1126 143.197 56.6387 142.9C55.7318 142.331 55.2783 141.588 55.2783 140.672C55.2783 139.87 55.6042 139.209 56.2559 138.689C56.9121 138.17 57.762 137.91 58.8057 137.91C59.4984 137.91 60.1159 138.038 60.6582 138.293C61.2005 138.548 61.6266 138.913 61.9365 139.387C62.2464 139.856 62.4014 140.378 62.4014 140.952H60.6787C60.6787 140.433 60.5146 140.027 60.1865 139.735C59.863 139.439 59.3981 139.291 58.792 139.291C58.2269 139.291 57.7871 139.412 57.4727 139.653C57.1628 139.895 57.0078 140.232 57.0078 140.665C57.0078 141.03 57.1764 141.335 57.5137 141.581C57.8509 141.823 58.4069 142.06 59.1816 142.292C59.9564 142.52 60.5785 142.782 61.0479 143.078C61.5173 143.37 61.8613 143.707 62.0801 144.09C62.2988 144.468 62.4082 144.912 62.4082 145.423C62.4082 146.252 62.0892 146.913 61.4512 147.405C60.8177 147.893 59.9564 148.137 58.8672 148.137C58.1471 148.137 57.484 148.005 56.8779 147.74C56.2764 147.471 55.807 147.102 55.4697 146.633C55.137 146.163 54.9707 145.617 54.9707 144.992H56.7002C56.7002 145.557 56.887 145.995 57.2607 146.305C57.6344 146.615 58.1699 146.77 58.8672 146.77C59.4688 146.77 59.9199 146.649 60.2207 146.407C60.526 146.161 60.6787 145.838 60.6787 145.437ZM65.8467 138.806V140.604H67.1523V141.834H65.8467V145.963C65.8467 146.245 65.9014 146.451 66.0107 146.578C66.1247 146.701 66.3252 146.763 66.6123 146.763C66.8037 146.763 66.9974 146.74 67.1934 146.694V147.979C66.8151 148.084 66.4505 148.137 66.0996 148.137C64.8236 148.137 64.1855 147.433 64.1855 146.024V141.834H62.9688V140.604H64.1855V138.806H65.8467ZM67.9111 144.233C67.9111 143.509 68.0547 142.857 68.3418 142.278C68.6289 141.695 69.0322 141.248 69.5518 140.938C70.0713 140.624 70.6683 140.467 71.3428 140.467C72.3408 140.467 73.1497 140.788 73.7695 141.431C74.3939 142.073 74.7311 142.925 74.7812 143.987L74.7881 144.377C74.7881 145.106 74.6468 145.758 74.3643 146.332C74.0863 146.906 73.6852 147.351 73.1611 147.665C72.6416 147.979 72.04 148.137 71.3564 148.137C70.3128 148.137 69.4766 147.79 68.8477 147.098C68.2233 146.4 67.9111 145.473 67.9111 144.315V144.233ZM69.5723 144.377C69.5723 145.138 69.7295 145.735 70.0439 146.168C70.3584 146.596 70.7959 146.811 71.3564 146.811C71.917 146.811 72.3522 146.592 72.6621 146.154C72.9766 145.717 73.1338 145.076 73.1338 144.233C73.1338 143.486 72.972 142.894 72.6484 142.456C72.3294 142.019 71.8942 141.8 71.3428 141.8C70.8005 141.8 70.3698 142.016 70.0508 142.449C69.7318 142.878 69.5723 143.52 69.5723 144.377ZM80.0654 142.121C79.8467 142.085 79.6211 142.066 79.3887 142.066C78.6276 142.066 78.1149 142.358 77.8506 142.941V148H76.1895V140.604H77.7754L77.8164 141.431C78.2174 140.788 78.7734 140.467 79.4844 140.467C79.7214 140.467 79.9173 140.499 80.0723 140.562L80.0654 142.121ZM85.3291 148C85.2562 147.859 85.1924 147.629 85.1377 147.31C84.609 147.861 83.9619 148.137 83.1963 148.137C82.4535 148.137 81.8473 147.925 81.3779 147.501C80.9085 147.077 80.6738 146.553 80.6738 145.929C80.6738 145.14 80.9655 144.536 81.5488 144.117C82.1367 143.693 82.9753 143.481 84.0645 143.481H85.083V142.996C85.083 142.613 84.9759 142.308 84.7617 142.08C84.5475 141.848 84.2217 141.731 83.7842 141.731C83.4059 141.731 83.096 141.827 82.8545 142.019C82.613 142.205 82.4922 142.445 82.4922 142.736H80.8311C80.8311 142.331 80.9655 141.952 81.2344 141.602C81.5033 141.246 81.8678 140.968 82.3281 140.768C82.793 140.567 83.3102 140.467 83.8799 140.467C84.7458 140.467 85.4362 140.686 85.9512 141.123C86.4661 141.556 86.7305 142.167 86.7441 142.955V146.291C86.7441 146.956 86.8376 147.487 87.0244 147.884V148H85.3291ZM83.5039 146.804C83.832 146.804 84.1396 146.724 84.4268 146.564C84.7184 146.405 84.9372 146.191 85.083 145.922V144.527H84.1875C83.5723 144.527 83.1097 144.634 82.7998 144.849C82.4899 145.063 82.335 145.366 82.335 145.758C82.335 146.077 82.4398 146.332 82.6494 146.523C82.8636 146.71 83.1484 146.804 83.5039 146.804ZM88.1934 144.247C88.1934 143.099 88.4622 142.183 89 141.499C89.5423 140.811 90.2601 140.467 91.1533 140.467C91.9964 140.467 92.6595 140.761 93.1426 141.349L93.2178 140.604H94.7148V147.774C94.7148 148.745 94.4118 149.511 93.8057 150.071C93.2041 150.632 92.3906 150.912 91.3652 150.912C90.8229 150.912 90.292 150.798 89.7725 150.57C89.2575 150.347 88.8656 150.053 88.5967 149.688L89.3828 148.69C89.8932 149.297 90.5221 149.6 91.2695 149.6C91.821 149.6 92.2562 149.449 92.5752 149.148C92.8942 148.852 93.0537 148.415 93.0537 147.836V147.337C92.5752 147.87 91.9372 148.137 91.1396 148.137C90.2738 148.137 89.5651 147.793 89.0137 147.104C88.4668 146.416 88.1934 145.464 88.1934 144.247ZM89.8477 144.391C89.8477 145.133 89.998 145.719 90.2988 146.147C90.6042 146.571 91.0257 146.783 91.5635 146.783C92.2334 146.783 92.7301 146.496 93.0537 145.922V142.668C92.7393 142.107 92.2471 141.827 91.5771 141.827C91.0303 141.827 90.6042 142.044 90.2988 142.477C89.998 142.91 89.8477 143.548 89.8477 144.391ZM99.6846 148.137C98.6318 148.137 97.7773 147.806 97.1211 147.146C96.4694 146.48 96.1436 145.596 96.1436 144.493V144.288C96.1436 143.55 96.2848 142.891 96.5674 142.312C96.8545 141.729 97.2555 141.276 97.7705 140.952C98.2855 140.629 98.8597 140.467 99.4932 140.467C100.5 140.467 101.277 140.788 101.824 141.431C102.376 142.073 102.651 142.982 102.651 144.158V144.828H97.8184C97.8685 145.439 98.0713 145.922 98.4268 146.277C98.7868 146.633 99.238 146.811 99.7803 146.811C100.541 146.811 101.161 146.503 101.64 145.888L102.535 146.742C102.239 147.184 101.842 147.528 101.346 147.774C100.854 148.016 100.3 148.137 99.6846 148.137ZM99.4863 141.8C99.0306 141.8 98.6615 141.959 98.3789 142.278C98.1009 142.597 97.9232 143.042 97.8457 143.611H101.011V143.488C100.974 142.932 100.826 142.513 100.566 142.23C100.307 141.943 99.9466 141.8 99.4863 141.8ZM107.122 144.247C107.122 143.108 107.386 142.194 107.915 141.506C108.444 140.813 109.152 140.467 110.041 140.467C110.825 140.467 111.458 140.74 111.941 141.287V137.5H113.603V148H112.099L112.017 147.234C111.52 147.836 110.857 148.137 110.027 148.137C109.161 148.137 108.46 147.788 107.922 147.091C107.389 146.394 107.122 145.446 107.122 144.247ZM108.783 144.391C108.783 145.143 108.927 145.73 109.214 146.154C109.506 146.574 109.918 146.783 110.451 146.783C111.13 146.783 111.627 146.48 111.941 145.874V142.716C111.636 142.123 111.144 141.827 110.465 141.827C109.927 141.827 109.512 142.041 109.221 142.47C108.929 142.894 108.783 143.534 108.783 144.391ZM118.593 148.137C117.54 148.137 116.686 147.806 116.029 147.146C115.378 146.48 115.052 145.596 115.052 144.493V144.288C115.052 143.55 115.193 142.891 115.476 142.312C115.763 141.729 116.164 141.276 116.679 140.952C117.194 140.629 117.768 140.467 118.401 140.467C119.409 140.467 120.186 140.788 120.732 141.431C121.284 142.073 121.56 142.982 121.56 144.158V144.828H116.727C116.777 145.439 116.979 145.922 117.335 146.277C117.695 146.633 118.146 146.811 118.688 146.811C119.45 146.811 120.069 146.503 120.548 145.888L121.443 146.742C121.147 147.184 120.751 147.528 120.254 147.774C119.762 148.016 119.208 148.137 118.593 148.137ZM118.395 141.8C117.939 141.8 117.57 141.959 117.287 142.278C117.009 142.597 116.831 143.042 116.754 143.611H119.919V143.488C119.882 142.932 119.734 142.513 119.475 142.23C119.215 141.943 118.855 141.8 118.395 141.8ZM123.296 148V141.834H122.168V140.604H123.296V140.098C123.3 139.519 123.424 139.022 123.665 138.607C123.907 138.193 124.248 137.881 124.69 137.671C125.132 137.461 125.663 137.356 126.283 137.356C126.648 137.356 126.996 137.395 127.329 137.473C127.666 137.55 128.015 137.648 128.375 137.767L128.122 139.141C127.493 138.922 126.919 138.812 126.399 138.812C125.894 138.812 125.527 138.924 125.299 139.147C125.071 139.366 124.957 139.697 124.957 140.139V140.604H126.413V141.834H124.957V148H123.296ZM129.161 148H127.5V140.604H129.161V148ZM132.545 140.604L132.593 141.458C133.14 140.797 133.857 140.467 134.746 140.467C136.286 140.467 137.07 141.349 137.098 143.112V148H135.437V143.208C135.437 142.739 135.334 142.392 135.129 142.169C134.928 141.941 134.598 141.827 134.138 141.827C133.468 141.827 132.969 142.13 132.641 142.736V148H130.979V140.604H132.545ZM140.563 148H138.902V140.604H140.563V148ZM138.8 138.683C138.8 138.427 138.88 138.215 139.039 138.047C139.203 137.878 139.436 137.794 139.736 137.794C140.037 137.794 140.27 137.878 140.434 138.047C140.598 138.215 140.68 138.427 140.68 138.683C140.68 138.933 140.598 139.143 140.434 139.312C140.27 139.476 140.037 139.558 139.736 139.558C139.436 139.558 139.203 139.476 139.039 139.312C138.88 139.143 138.8 138.933 138.8 138.683ZM144.46 138.806V140.604H145.766V141.834H144.46V145.963C144.46 146.245 144.515 146.451 144.624 146.578C144.738 146.701 144.938 146.763 145.226 146.763C145.417 146.763 145.611 146.74 145.807 146.694V147.979C145.428 148.084 145.064 148.137 144.713 148.137C143.437 148.137 142.799 147.433 142.799 146.024V141.834H141.582V140.604H142.799V138.806H144.46ZM148.808 148H147.146V140.604H148.808V148ZM147.044 138.683C147.044 138.427 147.124 138.215 147.283 138.047C147.447 137.878 147.68 137.794 147.98 137.794C148.281 137.794 148.514 137.878 148.678 138.047C148.842 138.215 148.924 138.427 148.924 138.683C148.924 138.933 148.842 139.143 148.678 139.312C148.514 139.476 148.281 139.558 147.98 139.558C147.68 139.558 147.447 139.476 147.283 139.312C147.124 139.143 147.044 138.933 147.044 138.683ZM150.312 144.233C150.312 143.509 150.455 142.857 150.742 142.278C151.029 141.695 151.433 141.248 151.952 140.938C152.472 140.624 153.069 140.467 153.743 140.467C154.741 140.467 155.55 140.788 156.17 141.431C156.794 142.073 157.132 142.925 157.182 143.987L157.188 144.377C157.188 145.106 157.047 145.758 156.765 146.332C156.487 146.906 156.086 147.351 155.562 147.665C155.042 147.979 154.44 148.137 153.757 148.137C152.713 148.137 151.877 147.79 151.248 147.098C150.624 146.4 150.312 145.473 150.312 144.315V144.233ZM151.973 144.377C151.973 145.138 152.13 145.735 152.444 146.168C152.759 146.596 153.196 146.811 153.757 146.811C154.317 146.811 154.753 146.592 155.062 146.154C155.377 145.717 155.534 145.076 155.534 144.233C155.534 143.486 155.372 142.894 155.049 142.456C154.73 142.019 154.295 141.8 153.743 141.8C153.201 141.8 152.77 142.016 152.451 142.449C152.132 142.878 151.973 143.52 151.973 144.377ZM160.135 140.604L160.183 141.458C160.729 140.797 161.447 140.467 162.336 140.467C163.876 140.467 164.66 141.349 164.688 143.112V148H163.026V143.208C163.026 142.739 162.924 142.392 162.719 142.169C162.518 141.941 162.188 141.827 161.728 141.827C161.058 141.827 160.559 142.13 160.23 142.736V148H158.569V140.604H160.135Z" fill="#2097F6"/>
<rect x="20.5" y="123.5" width="179" height="39" rx="19.5" stroke="#2097F6"/>
</g>
<path d="M77.8164 92.7598C77.7161 93.8216 77.3242 94.651 76.6406 95.248C75.957 95.8405 75.0479 96.1367 73.9131 96.1367C73.1201 96.1367 72.4206 95.9499 71.8145 95.5762C71.2129 95.1979 70.748 94.6624 70.4199 93.9697C70.0918 93.277 69.9209 92.4727 69.9072 91.5566V90.627C69.9072 89.6882 70.0736 88.861 70.4062 88.1455C70.7389 87.43 71.2152 86.8786 71.835 86.4912C72.4593 86.1038 73.1794 85.9102 73.9951 85.9102C75.0934 85.9102 75.9775 86.2087 76.6475 86.8057C77.3174 87.4027 77.707 88.2458 77.8164 89.335H76.0938C76.0117 88.6195 75.8021 88.1045 75.4648 87.79C75.1322 87.471 74.6423 87.3115 73.9951 87.3115C73.2432 87.3115 72.6644 87.5872 72.2588 88.1387C71.8577 88.6855 71.6527 89.4899 71.6436 90.5518V91.4336C71.6436 92.5091 71.835 93.3294 72.2178 93.8945C72.6051 94.4596 73.1702 94.7422 73.9131 94.7422C74.5921 94.7422 75.1025 94.5895 75.4443 94.2842C75.7861 93.9788 76.0026 93.4707 76.0938 92.7598H77.8164ZM78.8965 92.2334C78.8965 91.5088 79.04 90.8571 79.3271 90.2783C79.6143 89.695 80.0176 89.2484 80.5371 88.9385C81.0566 88.624 81.6536 88.4668 82.3281 88.4668C83.3262 88.4668 84.1351 88.7881 84.7549 89.4307C85.3792 90.0732 85.7165 90.9255 85.7666 91.9873L85.7734 92.377C85.7734 93.1061 85.6322 93.7578 85.3496 94.332C85.0716 94.9062 84.6706 95.3506 84.1465 95.665C83.627 95.9795 83.0254 96.1367 82.3418 96.1367C81.2982 96.1367 80.4619 95.7904 79.833 95.0977C79.2087 94.4004 78.8965 93.473 78.8965 92.3154V92.2334ZM80.5576 92.377C80.5576 93.138 80.7148 93.735 81.0293 94.168C81.3438 94.5964 81.7812 94.8105 82.3418 94.8105C82.9023 94.8105 83.3376 94.5918 83.6475 94.1543C83.9619 93.7168 84.1191 93.0765 84.1191 92.2334C84.1191 91.486 83.9574 90.8936 83.6338 90.4561C83.3148 90.0186 82.8796 89.7998 82.3281 89.7998C81.7858 89.7998 81.3551 90.0163 81.0361 90.4492C80.7171 90.8776 80.5576 91.5202 80.5576 92.377ZM88.7402 88.6035L88.7881 89.376C89.3076 88.7699 90.0186 88.4668 90.9209 88.4668C91.9098 88.4668 92.5866 88.8451 92.9512 89.6016C93.4889 88.8451 94.2454 88.4668 95.2207 88.4668C96.0365 88.4668 96.6426 88.6924 97.0391 89.1436C97.4401 89.5947 97.6452 90.2601 97.6543 91.1396V96H95.9932V91.1875C95.9932 90.7181 95.8906 90.374 95.6855 90.1553C95.4805 89.9365 95.141 89.8271 94.667 89.8271C94.2887 89.8271 93.9788 89.9297 93.7373 90.1348C93.5003 90.3353 93.334 90.5996 93.2383 90.9277L93.2451 96H91.584V91.1328C91.5612 90.2624 91.1169 89.8271 90.251 89.8271C89.5856 89.8271 89.1139 90.0983 88.8359 90.6406V96H87.1748V88.6035H88.7402ZM105.837 92.377C105.837 93.5208 105.577 94.4346 105.058 95.1182C104.538 95.7972 103.841 96.1367 102.966 96.1367C102.155 96.1367 101.505 95.8701 101.018 95.3369V98.8438H99.3564V88.6035H100.888L100.956 89.3555C101.444 88.763 102.107 88.4668 102.945 88.4668C103.848 88.4668 104.554 88.804 105.064 89.4785C105.579 90.1484 105.837 91.0804 105.837 92.2744V92.377ZM104.183 92.2334C104.183 91.4951 104.035 90.9095 103.738 90.4766C103.447 90.0436 103.027 89.8271 102.48 89.8271C101.801 89.8271 101.314 90.1074 101.018 90.668V93.9492C101.318 94.5234 101.811 94.8105 102.494 94.8105C103.023 94.8105 103.435 94.5986 103.731 94.1748C104.032 93.7464 104.183 93.0993 104.183 92.2334ZM109.016 96H107.354V85.5H109.016V96ZM114.088 96.1367C113.035 96.1367 112.181 95.8063 111.524 95.1455C110.873 94.4801 110.547 93.596 110.547 92.4932V92.2881C110.547 91.5498 110.688 90.8913 110.971 90.3125C111.258 89.7292 111.659 89.2757 112.174 88.9521C112.689 88.6286 113.263 88.4668 113.896 88.4668C114.904 88.4668 115.681 88.7881 116.228 89.4307C116.779 90.0732 117.055 90.9824 117.055 92.1582V92.8281H112.222C112.272 93.4388 112.475 93.9219 112.83 94.2773C113.19 94.6328 113.641 94.8105 114.184 94.8105C114.945 94.8105 115.564 94.5029 116.043 93.8877L116.938 94.7422C116.642 95.1842 116.246 95.5283 115.749 95.7744C115.257 96.016 114.703 96.1367 114.088 96.1367ZM113.89 89.7998C113.434 89.7998 113.065 89.9593 112.782 90.2783C112.504 90.5973 112.326 91.0417 112.249 91.6113H115.414V91.4883C115.378 90.9323 115.229 90.513 114.97 90.2305C114.71 89.9434 114.35 89.7998 113.89 89.7998ZM121.006 91.0371L122.414 88.6035H124.26L121.997 92.2471L124.335 96H122.503L121.026 93.4707L119.557 96H117.711L120.049 92.2471L117.793 88.6035H119.625L121.006 91.0371ZM135.819 87.4414H132.716V96H131V87.4414H127.924V86.0469H135.819V87.4414ZM138.998 93.6211L140.502 88.6035H142.272L139.333 97.1211C138.882 98.3652 138.116 98.9873 137.036 98.9873C136.795 98.9873 136.528 98.9463 136.236 98.8643V97.5791L136.551 97.5996C136.97 97.5996 137.285 97.5221 137.494 97.3672C137.708 97.2168 137.877 96.9616 138 96.6016L138.239 95.9658L135.642 88.6035H137.433L138.998 93.6211ZM149.71 92.377C149.71 93.5208 149.45 94.4346 148.931 95.1182C148.411 95.7972 147.714 96.1367 146.839 96.1367C146.028 96.1367 145.378 95.8701 144.891 95.3369V98.8438H143.229V88.6035H144.761L144.829 89.3555C145.317 88.763 145.98 88.4668 146.818 88.4668C147.721 88.4668 148.427 88.804 148.938 89.4785C149.452 90.1484 149.71 91.0804 149.71 92.2744V92.377ZM148.056 92.2334C148.056 91.4951 147.908 90.9095 147.611 90.4766C147.32 90.0436 146.9 89.8271 146.354 89.8271C145.674 89.8271 145.187 90.1074 144.891 90.668V93.9492C145.191 94.5234 145.684 94.8105 146.367 94.8105C146.896 94.8105 147.308 94.5986 147.604 94.1748C147.905 93.7464 148.056 93.0993 148.056 92.2334ZM154.379 96.1367C153.326 96.1367 152.472 95.8063 151.815 95.1455C151.164 94.4801 150.838 93.596 150.838 92.4932V92.2881C150.838 91.5498 150.979 90.8913 151.262 90.3125C151.549 89.7292 151.95 89.2757 152.465 88.9521C152.98 88.6286 153.554 88.4668 154.188 88.4668C155.195 88.4668 155.972 88.7881 156.519 89.4307C157.07 90.0732 157.346 90.9824 157.346 92.1582V92.8281H152.513C152.563 93.4388 152.766 93.9219 153.121 94.2773C153.481 94.6328 153.932 94.8105 154.475 94.8105C155.236 94.8105 155.855 94.5029 156.334 93.8877L157.229 94.7422C156.933 95.1842 156.537 95.5283 156.04 95.7744C155.548 96.016 154.994 96.1367 154.379 96.1367ZM154.181 89.7998C153.725 89.7998 153.356 89.9593 153.073 90.2783C152.795 90.5973 152.618 91.0417 152.54 91.6113H155.705V91.4883C155.669 90.9323 155.521 90.513 155.261 90.2305C155.001 89.9434 154.641 89.7998 154.181 89.7998Z" fill="#2097F6"/>
<path d="M8 1H212V-1H8V1ZM219 8V244H221V8H219ZM212 251H8.00001V253H212V251ZM1 244V8H-1V244H1ZM8.00001 251C4.13401 251 1 247.866 1 244H-1C-1 248.971 3.02944 253 8.00001 253V251ZM219 244C219 247.866 215.866 251 212 251V253C216.971 253 221 248.971 221 244H219ZM212 1C215.866 1 219 4.13401 219 8H221C221 3.02944 216.971 -1 212 -1V1ZM8 -1C3.02944 -1 -1 3.02944 -1 8H1C1 4.13401 4.13401 1 8 1V-1Z" fill="#2097F6"/>
</g>
<defs>
<filter id="filter0_d" x="0" y="0" width="224" height="256" filterUnits="userSpaceOnUse" color-interpolation-filters="sRGB">
<feFlood flood-opacity="0" result="BackgroundImageFix"/>
<feColorMatrix in="SourceAlpha" type="matrix" values="0 0 0 0 0 0 0 0 0 0 0 0 0 0 0 0 0 0 127 0"/>
<feOffset dx="4" dy="4"/>
<feColorMatrix type="matrix" values="0 0 0 0 0.513733 0 0 0 0 0.767915 0 0 0 0 0.970833 0 0 0 1 0"/>
<feBlend mode="normal" in2="BackgroundImageFix" result="effect1_dropShadow"/>
<feBlend mode="normal" in="SourceGraphic" in2="effect1_dropShadow" result="shape"/>
</filter>
<filter id="filter1_d" x="20" y="71" width="184" height="44" filterUnits="userSpaceOnUse" color-interpolation-filters="sRGB">
<feFlood flood-opacity="0" result="BackgroundImageFix"/>
<feColorMatrix in="SourceAlpha" type="matrix" values="0 0 0 0 0 0 0 0 0 0 0 0 0 0 0 0 0 0 127 0"/>
<feOffset dx="4" dy="4"/>
<feColorMatrix type="matrix" values="0 0 0 0 0.513733 0 0 0 0 0.767915 0 0 0 0 0.970833 0 0 0 1 0"/>
<feBlend mode="normal" in2="BackgroundImageFix" result="effect1_dropShadow"/>
<feBlend mode="normal" in="SourceGraphic" in2="effect1_dropShadow" result="shape"/>
</filter>
<filter id="filter2_d" x="20" y="175" width="184" height="44" filterUnits="userSpaceOnUse" color-interpolation-filters="sRGB">
<feFlood flood-opacity="0" result="BackgroundImageFix"/>
<feColorMatrix in="SourceAlpha" type="matrix" values="0 0 0 0 0 0 0 0 0 0 0 0 0 0 0 0 0 0 127 0"/>
<feOffset dx="4" dy="4"/>
<feColorMatrix type="matrix" values="0 0 0 0 0.513733 0 0 0 0 0.767915 0 0 0 0 0.970833 0 0 0 1 0"/>
<feBlend mode="normal" in2="BackgroundImageFix" result="effect1_dropShadow"/>
<feBlend mode="normal" in="SourceGraphic" in2="effect1_dropShadow" result="shape"/>
</filter>
<filter id="filter3_d" x="20" y="123" width="184" height="44" filterUnits="userSpaceOnUse" color-interpolation-filters="sRGB">
<feFlood flood-opacity="0" result="BackgroundImageFix"/>
<feColorMatrix in="SourceAlpha" type="matrix" values="0 0 0 0 0 0 0 0 0 0 0 0 0 0 0 0 0 0 127 0"/>
<feOffset dx="4" dy="4"/>
<feColorMatrix type="matrix" values="0 0 0 0 0.513733 0 0 0 0 0.767915 0 0 0 0 0.970833 0 0 0 1 0"/>
<feBlend mode="normal" in2="BackgroundImageFix" result="effect1_dropShadow"/>
<feBlend mode="normal" in="SourceGraphic" in2="effect1_dropShadow" result="shape"/>
</filter>
</defs>
</svg>
