<svg width="224" height="256" viewBox="0 0 224 256" fill="none" xmlns="http://www.w3.org/2000/svg">
<g filter="url(#filter0_d)">
<path d="M0 8C0 3.58172 3.58172 0 8 0H212C216.418 0 220 3.58172 220 8V244C220 248.418 216.418 252 212 252H8.00001C3.58173 252 0 248.418 0 244V8Z" fill="white"/>
<path d="M61.5547 31.9297C60.2682 31.5599 59.3307 31.1068 58.7422 30.5703C58.1589 30.0286 57.8672 29.362 57.8672 28.5703C57.8672 27.6745 58.224 26.9349 58.9375 26.3516C59.6562 25.763 60.5885 25.4688 61.7344 25.4688C62.5156 25.4688 63.2109 25.6198 63.8203 25.9219C64.4349 26.224 64.9089 26.6406 65.2422 27.1719C65.5807 27.7031 65.75 28.2839 65.75 28.9141H64.2422C64.2422 28.2266 64.0234 27.6875 63.5859 27.2969C63.1484 26.901 62.5312 26.7031 61.7344 26.7031C60.9948 26.7031 60.4167 26.8672 60 27.1953C59.5885 27.5182 59.3828 27.9688 59.3828 28.5469C59.3828 29.0104 59.5781 29.4036 59.9688 29.7266C60.3646 30.0443 61.0339 30.3359 61.9766 30.6016C62.9245 30.8672 63.6641 31.1615 64.1953 31.4844C64.7318 31.8021 65.1276 32.1745 65.3828 32.6016C65.6432 33.0286 65.7734 33.5312 65.7734 34.1094C65.7734 35.0312 65.4141 35.7708 64.6953 36.3281C63.9766 36.8802 63.0156 37.1562 61.8125 37.1562C61.0312 37.1562 60.3021 37.0078 59.625 36.7109C58.9479 36.4089 58.4245 35.9974 58.0547 35.4766C57.6901 34.9557 57.5078 34.3646 57.5078 33.7031H59.0156C59.0156 34.3906 59.2682 34.9349 59.7734 35.3359C60.2839 35.7318 60.9635 35.9297 61.8125 35.9297C62.6042 35.9297 63.2109 35.7682 63.6328 35.4453C64.0547 35.1224 64.2656 34.6823 64.2656 34.125C64.2656 33.5677 64.0703 33.138 63.6797 32.8359C63.2891 32.5286 62.5807 32.2266 61.5547 31.9297ZM68.8359 28.5469L68.875 29.4844C69.4948 28.7552 70.3307 28.3906 71.3828 28.3906C72.5651 28.3906 73.3698 28.8438 73.7969 29.75C74.0781 29.3438 74.4427 29.0156 74.8906 28.7656C75.3438 28.5156 75.8776 28.3906 76.4922 28.3906C78.3464 28.3906 79.2891 29.3724 79.3203 31.3359V37H77.875V31.4219C77.875 30.8177 77.737 30.3672 77.4609 30.0703C77.1849 29.7682 76.7214 29.6172 76.0703 29.6172C75.5339 29.6172 75.0885 29.7786 74.7344 30.1016C74.3802 30.4193 74.1745 30.849 74.1172 31.3906V37H72.6641V31.4609C72.6641 30.2318 72.0625 29.6172 70.8594 29.6172C69.9115 29.6172 69.263 30.0208 68.9141 30.8281V37H67.4688V28.5469H68.8359ZM86.7266 37C86.6432 36.8333 86.5755 36.5365 86.5234 36.1094C85.8516 36.8073 85.0495 37.1562 84.1172 37.1562C83.2839 37.1562 82.599 36.9219 82.0625 36.4531C81.5312 35.9792 81.2656 35.3802 81.2656 34.6562C81.2656 33.776 81.599 33.0938 82.2656 32.6094C82.9375 32.1198 83.8802 31.875 85.0938 31.875H86.5V31.2109C86.5 30.7057 86.349 30.3047 86.0469 30.0078C85.7448 29.7057 85.2995 29.5547 84.7109 29.5547C84.1953 29.5547 83.763 29.6849 83.4141 29.9453C83.0651 30.2057 82.8906 30.5208 82.8906 30.8906H81.4375C81.4375 30.4688 81.5859 30.0625 81.8828 29.6719C82.1849 29.276 82.5911 28.9635 83.1016 28.7344C83.6172 28.5052 84.1823 28.3906 84.7969 28.3906C85.7708 28.3906 86.5339 28.6354 87.0859 29.125C87.638 29.6094 87.9245 30.2786 87.9453 31.1328V35.0234C87.9453 35.7995 88.0443 36.4167 88.2422 36.875V37H86.7266ZM84.3281 35.8984C84.7812 35.8984 85.2109 35.7812 85.6172 35.5469C86.0234 35.3125 86.3177 35.0078 86.5 34.6328V32.8984H85.3672C83.5964 32.8984 82.7109 33.4167 82.7109 34.4531C82.7109 34.9062 82.862 35.2604 83.1641 35.5156C83.4661 35.7708 83.8542 35.8984 84.3281 35.8984ZM94.2969 29.8438C94.0781 29.8073 93.8411 29.7891 93.5859 29.7891C92.638 29.7891 91.9948 30.1927 91.6562 31V37H90.2109V28.5469H91.6172L91.6406 29.5234C92.1146 28.7682 92.7865 28.3906 93.6562 28.3906C93.9375 28.3906 94.151 28.4271 94.2969 28.5V29.8438ZM97.9844 26.5V28.5469H99.5625V29.6641H97.9844V34.9062C97.9844 35.2448 98.0547 35.5 98.1953 35.6719C98.3359 35.8385 98.5755 35.9219 98.9141 35.9219C99.0807 35.9219 99.3099 35.8906 99.6016 35.8281V37C99.2214 37.1042 98.8516 37.1562 98.4922 37.1562C97.8464 37.1562 97.3594 36.9609 97.0312 36.5703C96.7031 36.1797 96.5391 35.625 96.5391 34.9062V29.6641H95V28.5469H96.5391V26.5H97.9844ZM108.617 35.9766C109.133 35.9766 109.583 35.8203 109.969 35.5078C110.354 35.1953 110.568 34.8047 110.609 34.3359H111.977C111.951 34.8203 111.784 35.2812 111.477 35.7188C111.169 36.1562 110.758 36.5052 110.242 36.7656C109.732 37.026 109.19 37.1562 108.617 37.1562C107.466 37.1562 106.549 36.7734 105.867 36.0078C105.19 35.237 104.852 34.1849 104.852 32.8516V32.6094C104.852 31.7865 105.003 31.0547 105.305 30.4141C105.607 29.7734 106.039 29.276 106.602 28.9219C107.169 28.5677 107.839 28.3906 108.609 28.3906C109.557 28.3906 110.344 28.6745 110.969 29.2422C111.599 29.8099 111.935 30.5469 111.977 31.4531H110.609C110.568 30.9062 110.359 30.4583 109.984 30.1094C109.615 29.7552 109.156 29.5781 108.609 29.5781C107.875 29.5781 107.305 29.8438 106.898 30.375C106.497 30.901 106.297 31.6641 106.297 32.6641V32.9375C106.297 33.9115 106.497 34.6615 106.898 35.1875C107.299 35.7135 107.872 35.9766 108.617 35.9766ZM113.219 32.6953C113.219 31.8672 113.38 31.1224 113.703 30.4609C114.031 29.7995 114.484 29.2891 115.062 28.9297C115.646 28.5703 116.31 28.3906 117.055 28.3906C118.206 28.3906 119.135 28.7891 119.844 29.5859C120.557 30.3828 120.914 31.4427 120.914 32.7656V32.8672C120.914 33.6901 120.755 34.4297 120.438 35.0859C120.125 35.737 119.674 36.2448 119.086 36.6094C118.503 36.974 117.831 37.1562 117.07 37.1562C115.924 37.1562 114.995 36.7578 114.281 35.9609C113.573 35.1641 113.219 34.1094 113.219 32.7969V32.6953ZM114.672 32.8672C114.672 33.8047 114.888 34.5573 115.32 35.125C115.758 35.6927 116.341 35.9766 117.07 35.9766C117.805 35.9766 118.388 35.6901 118.82 35.1172C119.253 34.5391 119.469 33.7318 119.469 32.6953C119.469 31.7682 119.247 31.0182 118.805 30.4453C118.367 29.8672 117.784 29.5781 117.055 29.5781C116.341 29.5781 115.766 29.862 115.328 30.4297C114.891 30.9974 114.672 31.8099 114.672 32.8672ZM124.094 28.5469L124.141 29.6094C124.786 28.7969 125.63 28.3906 126.672 28.3906C128.458 28.3906 129.359 29.3984 129.375 31.4141V37H127.93V31.4062C127.924 30.7969 127.784 30.3464 127.508 30.0547C127.237 29.763 126.812 29.6172 126.234 29.6172C125.766 29.6172 125.354 29.7422 125 29.9922C124.646 30.2422 124.37 30.5703 124.172 30.9766V37H122.727V28.5469H124.094ZM133.516 26.5V28.5469H135.094V29.6641H133.516V34.9062C133.516 35.2448 133.586 35.5 133.727 35.6719C133.867 35.8385 134.107 35.9219 134.445 35.9219C134.612 35.9219 134.841 35.8906 135.133 35.8281V37C134.753 37.1042 134.383 37.1562 134.023 37.1562C133.378 37.1562 132.891 36.9609 132.562 36.5703C132.234 36.1797 132.07 35.625 132.07 34.9062V29.6641H130.531V28.5469H132.07V26.5H133.516ZM140.875 29.8438C140.656 29.8073 140.419 29.7891 140.164 29.7891C139.216 29.7891 138.573 30.1927 138.234 31V37H136.789V28.5469H138.195L138.219 29.5234C138.693 28.7682 139.365 28.3906 140.234 28.3906C140.516 28.3906 140.729 28.4271 140.875 28.5V29.8438ZM147.117 37C147.034 36.8333 146.966 36.5365 146.914 36.1094C146.242 36.8073 145.44 37.1562 144.508 37.1562C143.674 37.1562 142.99 36.9219 142.453 36.4531C141.922 35.9792 141.656 35.3802 141.656 34.6562C141.656 33.776 141.99 33.0938 142.656 32.6094C143.328 32.1198 144.271 31.875 145.484 31.875H146.891V31.2109C146.891 30.7057 146.74 30.3047 146.438 30.0078C146.135 29.7057 145.69 29.5547 145.102 29.5547C144.586 29.5547 144.154 29.6849 143.805 29.9453C143.456 30.2057 143.281 30.5208 143.281 30.8906H141.828C141.828 30.4688 141.977 30.0625 142.273 29.6719C142.576 29.276 142.982 28.9635 143.492 28.7344C144.008 28.5052 144.573 28.3906 145.188 28.3906C146.161 28.3906 146.924 28.6354 147.477 29.125C148.029 29.6094 148.315 30.2786 148.336 31.1328V35.0234C148.336 35.7995 148.435 36.4167 148.633 36.875V37H147.117ZM144.719 35.8984C145.172 35.8984 145.602 35.7812 146.008 35.5469C146.414 35.3125 146.708 35.0078 146.891 34.6328V32.8984H145.758C143.987 32.8984 143.102 33.4167 143.102 34.4531C143.102 34.9062 143.253 35.2604 143.555 35.5156C143.857 35.7708 144.245 35.8984 144.719 35.8984ZM153.992 35.9766C154.508 35.9766 154.958 35.8203 155.344 35.5078C155.729 35.1953 155.943 34.8047 155.984 34.3359H157.352C157.326 34.8203 157.159 35.2812 156.852 35.7188C156.544 36.1562 156.133 36.5052 155.617 36.7656C155.107 37.026 154.565 37.1562 153.992 37.1562C152.841 37.1562 151.924 36.7734 151.242 36.0078C150.565 35.237 150.227 34.1849 150.227 32.8516V32.6094C150.227 31.7865 150.378 31.0547 150.68 30.4141C150.982 29.7734 151.414 29.276 151.977 28.9219C152.544 28.5677 153.214 28.3906 153.984 28.3906C154.932 28.3906 155.719 28.6745 156.344 29.2422C156.974 29.8099 157.31 30.5469 157.352 31.4531H155.984C155.943 30.9062 155.734 30.4583 155.359 30.1094C154.99 29.7552 154.531 29.5781 153.984 29.5781C153.25 29.5781 152.68 29.8438 152.273 30.375C151.872 30.901 151.672 31.6641 151.672 32.6641V32.9375C151.672 33.9115 151.872 34.6615 152.273 35.1875C152.674 35.7135 153.247 35.9766 153.992 35.9766ZM160.938 26.5V28.5469H162.516V29.6641H160.938V34.9062C160.938 35.2448 161.008 35.5 161.148 35.6719C161.289 35.8385 161.529 35.9219 161.867 35.9219C162.034 35.9219 162.263 35.8906 162.555 35.8281V37C162.174 37.1042 161.805 37.1562 161.445 37.1562C160.799 37.1562 160.312 36.9609 159.984 36.5703C159.656 36.1797 159.492 35.625 159.492 34.9062V29.6641H157.953V28.5469H159.492V26.5H160.938Z" fill="#2097F6"/>
<g filter="url(#filter1_d)">
<rect x="20" y="71" width="180" height="40" rx="20" fill="#E7F4FF"/>
<rect x="20.5" y="71.5" width="179" height="39" rx="19.5" stroke="#2097F6"/>
</g>
<g filter="url(#filter2_d)">
<rect x="20" y="175" width="180" height="40" rx="20" fill="#E7F4FF"/>
<path d="M60.6758 197.437C60.6758 196.999 60.5208 196.662 60.2109 196.425C59.9056 196.188 59.3519 195.949 58.5498 195.707C57.7477 195.465 57.1097 195.197 56.6357 194.9C55.7288 194.331 55.2754 193.588 55.2754 192.672C55.2754 191.87 55.6012 191.209 56.2529 190.689C56.9092 190.17 57.7591 189.91 58.8027 189.91C59.4954 189.91 60.113 190.038 60.6553 190.293C61.1976 190.548 61.6237 190.913 61.9336 191.387C62.2435 191.856 62.3984 192.378 62.3984 192.952H60.6758C60.6758 192.433 60.5117 192.027 60.1836 191.735C59.86 191.439 59.3952 191.291 58.7891 191.291C58.224 191.291 57.7842 191.412 57.4697 191.653C57.1598 191.895 57.0049 192.232 57.0049 192.665C57.0049 193.03 57.1735 193.335 57.5107 193.581C57.848 193.823 58.404 194.06 59.1787 194.292C59.9535 194.52 60.5755 194.782 61.0449 195.078C61.5143 195.37 61.8584 195.707 62.0771 196.09C62.2959 196.468 62.4053 196.912 62.4053 197.423C62.4053 198.252 62.0863 198.913 61.4482 199.405C60.8148 199.893 59.9535 200.137 58.8643 200.137C58.1442 200.137 57.4811 200.005 56.875 199.74C56.2734 199.471 55.804 199.102 55.4668 198.633C55.1341 198.163 54.9678 197.617 54.9678 196.992H56.6973C56.6973 197.557 56.8841 197.995 57.2578 198.305C57.6315 198.615 58.167 198.77 58.8643 198.77C59.4658 198.77 59.917 198.649 60.2178 198.407C60.5231 198.161 60.6758 197.838 60.6758 197.437ZM67.0195 200.137C65.9668 200.137 65.1123 199.806 64.4561 199.146C63.8044 198.48 63.4785 197.596 63.4785 196.493V196.288C63.4785 195.55 63.6198 194.891 63.9023 194.312C64.1895 193.729 64.5905 193.276 65.1055 192.952C65.6204 192.629 66.1947 192.467 66.8281 192.467C67.8353 192.467 68.6123 192.788 69.1592 193.431C69.7106 194.073 69.9863 194.982 69.9863 196.158V196.828H65.1533C65.2035 197.439 65.4062 197.922 65.7617 198.277C66.1217 198.633 66.5729 198.811 67.1152 198.811C67.8763 198.811 68.4961 198.503 68.9746 197.888L69.8701 198.742C69.5739 199.184 69.1774 199.528 68.6807 199.774C68.1885 200.016 67.6348 200.137 67.0195 200.137ZM66.8213 193.8C66.3656 193.8 65.9964 193.959 65.7139 194.278C65.4359 194.597 65.2581 195.042 65.1807 195.611H68.3457V195.488C68.3092 194.932 68.1611 194.513 67.9014 194.23C67.6416 193.943 67.2816 193.8 66.8213 193.8ZM73.3633 190.806V192.604H74.6689V193.834H73.3633V197.963C73.3633 198.245 73.418 198.451 73.5273 198.578C73.6413 198.701 73.8418 198.763 74.1289 198.763C74.3203 198.763 74.514 198.74 74.71 198.694V199.979C74.3317 200.084 73.9671 200.137 73.6162 200.137C72.3402 200.137 71.7021 199.433 71.7021 198.024V193.834H70.4854V192.604H71.7021V190.806H73.3633ZM79.1191 196.233C79.1191 195.509 79.2627 194.857 79.5498 194.278C79.8369 193.695 80.2402 193.248 80.7598 192.938C81.2793 192.624 81.8763 192.467 82.5508 192.467C83.5488 192.467 84.3577 192.788 84.9775 193.431C85.6019 194.073 85.9391 194.925 85.9893 195.987L85.9961 196.377C85.9961 197.106 85.8548 197.758 85.5723 198.332C85.2943 198.906 84.8932 199.351 84.3691 199.665C83.8496 199.979 83.248 200.137 82.5645 200.137C81.5208 200.137 80.6846 199.79 80.0557 199.098C79.4313 198.4 79.1191 197.473 79.1191 196.315V196.233ZM80.7803 196.377C80.7803 197.138 80.9375 197.735 81.252 198.168C81.5664 198.596 82.0039 198.811 82.5645 198.811C83.125 198.811 83.5602 198.592 83.8701 198.154C84.1846 197.717 84.3418 197.076 84.3418 196.233C84.3418 195.486 84.18 194.894 83.8564 194.456C83.5374 194.019 83.1022 193.8 82.5508 193.8C82.0085 193.8 81.5778 194.016 81.2588 194.449C80.9398 194.878 80.7803 195.52 80.7803 196.377ZM87.9854 200V193.834H86.8574V192.604H87.9854V191.927C87.9854 191.106 88.2132 190.473 88.6689 190.026C89.1247 189.58 89.7627 189.356 90.583 189.356C90.8747 189.356 91.1846 189.397 91.5127 189.479L91.4717 190.778C91.2894 190.742 91.0775 190.724 90.8359 190.724C90.043 190.724 89.6465 191.132 89.6465 191.947V192.604H91.1504V193.834H89.6465V200H87.9854ZM97.6172 200H95.9561V192.604H97.6172V200ZM95.8535 190.683C95.8535 190.427 95.9333 190.215 96.0928 190.047C96.2568 189.878 96.4893 189.794 96.79 189.794C97.0908 189.794 97.3232 189.878 97.4873 190.047C97.6514 190.215 97.7334 190.427 97.7334 190.683C97.7334 190.933 97.6514 191.143 97.4873 191.312C97.3232 191.476 97.0908 191.558 96.79 191.558C96.4893 191.558 96.2568 191.476 96.0928 191.312C95.9333 191.143 95.8535 190.933 95.8535 190.683ZM100.974 192.604L101.021 193.458C101.568 192.797 102.286 192.467 103.175 192.467C104.715 192.467 105.499 193.349 105.526 195.112V200H103.865V195.208C103.865 194.739 103.763 194.392 103.558 194.169C103.357 193.941 103.027 193.827 102.566 193.827C101.896 193.827 101.397 194.13 101.069 194.736V200H99.4082V192.604H100.974ZM111.371 197.99C111.371 197.694 111.248 197.468 111.002 197.313C110.76 197.159 110.357 197.022 109.792 196.903C109.227 196.785 108.755 196.634 108.377 196.452C107.548 196.051 107.133 195.47 107.133 194.709C107.133 194.071 107.402 193.538 107.939 193.109C108.477 192.681 109.161 192.467 109.99 192.467C110.874 192.467 111.588 192.686 112.13 193.123C112.677 193.561 112.95 194.128 112.95 194.825H111.289C111.289 194.506 111.171 194.242 110.934 194.032C110.697 193.818 110.382 193.711 109.99 193.711C109.626 193.711 109.327 193.795 109.095 193.964C108.867 194.132 108.753 194.358 108.753 194.641C108.753 194.896 108.86 195.094 109.074 195.235C109.288 195.377 109.721 195.52 110.373 195.666C111.025 195.807 111.535 195.978 111.904 196.179C112.278 196.375 112.554 196.612 112.731 196.89C112.914 197.168 113.005 197.505 113.005 197.901C113.005 198.567 112.729 199.107 112.178 199.521C111.626 199.932 110.904 200.137 110.011 200.137C109.405 200.137 108.865 200.027 108.391 199.809C107.917 199.59 107.548 199.289 107.283 198.906C107.019 198.523 106.887 198.111 106.887 197.669H108.5C108.523 198.061 108.671 198.364 108.944 198.578C109.218 198.788 109.58 198.893 110.031 198.893C110.469 198.893 110.801 198.811 111.029 198.646C111.257 198.478 111.371 198.259 111.371 197.99ZM116.539 190.806V192.604H117.845V193.834H116.539V197.963C116.539 198.245 116.594 198.451 116.703 198.578C116.817 198.701 117.018 198.763 117.305 198.763C117.496 198.763 117.69 198.74 117.886 198.694V199.979C117.507 200.084 117.143 200.137 116.792 200.137C115.516 200.137 114.878 199.433 114.878 198.024V193.834H113.661V192.604H114.878V190.806H116.539ZM122.992 194.121C122.773 194.085 122.548 194.066 122.315 194.066C121.554 194.066 121.042 194.358 120.777 194.941V200H119.116V192.604H120.702L120.743 193.431C121.144 192.788 121.7 192.467 122.411 192.467C122.648 192.467 122.844 192.499 122.999 192.562L122.992 194.121ZM128.522 199.275C128.035 199.85 127.342 200.137 126.444 200.137C125.642 200.137 125.034 199.902 124.619 199.433C124.209 198.963 124.004 198.284 124.004 197.396V192.604H125.665V197.375C125.665 198.314 126.055 198.783 126.834 198.783C127.641 198.783 128.185 198.494 128.468 197.915V192.604H130.129V200H128.563L128.522 199.275ZM134.859 198.811C135.274 198.811 135.618 198.69 135.892 198.448C136.165 198.207 136.311 197.908 136.329 197.553H137.895C137.876 198.013 137.733 198.444 137.464 198.845C137.195 199.241 136.83 199.556 136.37 199.788C135.91 200.021 135.413 200.137 134.88 200.137C133.845 200.137 133.025 199.802 132.419 199.132C131.813 198.462 131.51 197.537 131.51 196.356V196.186C131.51 195.06 131.811 194.16 132.412 193.485C133.014 192.806 133.834 192.467 134.873 192.467C135.753 192.467 136.468 192.724 137.02 193.239C137.576 193.75 137.867 194.422 137.895 195.256H136.329C136.311 194.832 136.165 194.483 135.892 194.21C135.623 193.937 135.279 193.8 134.859 193.8C134.322 193.8 133.907 193.996 133.615 194.388C133.324 194.775 133.175 195.365 133.171 196.158V196.425C133.171 197.227 133.314 197.826 133.602 198.223C133.893 198.615 134.312 198.811 134.859 198.811ZM141.23 190.806V192.604H142.536V193.834H141.23V197.963C141.23 198.245 141.285 198.451 141.395 198.578C141.508 198.701 141.709 198.763 141.996 198.763C142.188 198.763 142.381 198.74 142.577 198.694V199.979C142.199 200.084 141.834 200.137 141.483 200.137C140.207 200.137 139.569 199.433 139.569 198.024V193.834H138.353V192.604H139.569V190.806H141.23ZM145.578 200H143.917V192.604H145.578V200ZM143.814 190.683C143.814 190.427 143.894 190.215 144.054 190.047C144.218 189.878 144.45 189.794 144.751 189.794C145.052 189.794 145.284 189.878 145.448 190.047C145.612 190.215 145.694 190.427 145.694 190.683C145.694 190.933 145.612 191.143 145.448 191.312C145.284 191.476 145.052 191.558 144.751 191.558C144.45 191.558 144.218 191.476 144.054 191.312C143.894 191.143 143.814 190.933 143.814 190.683ZM147.082 196.233C147.082 195.509 147.226 194.857 147.513 194.278C147.8 193.695 148.203 193.248 148.723 192.938C149.242 192.624 149.839 192.467 150.514 192.467C151.512 192.467 152.321 192.788 152.94 193.431C153.565 194.073 153.902 194.925 153.952 195.987L153.959 196.377C153.959 197.106 153.818 197.758 153.535 198.332C153.257 198.906 152.856 199.351 152.332 199.665C151.812 199.979 151.211 200.137 150.527 200.137C149.484 200.137 148.647 199.79 148.019 199.098C147.394 198.4 147.082 197.473 147.082 196.315V196.233ZM148.743 196.377C148.743 197.138 148.9 197.735 149.215 198.168C149.529 198.596 149.967 198.811 150.527 198.811C151.088 198.811 151.523 198.592 151.833 198.154C152.147 197.717 152.305 197.076 152.305 196.233C152.305 195.486 152.143 194.894 151.819 194.456C151.5 194.019 151.065 193.8 150.514 193.8C149.971 193.8 149.541 194.016 149.222 194.449C148.903 194.878 148.743 195.52 148.743 196.377ZM156.905 192.604L156.953 193.458C157.5 192.797 158.218 192.467 159.106 192.467C160.647 192.467 161.431 193.349 161.458 195.112V200H159.797V195.208C159.797 194.739 159.694 194.392 159.489 194.169C159.289 193.941 158.958 193.827 158.498 193.827C157.828 193.827 157.329 194.13 157.001 194.736V200H155.34V192.604H156.905ZM167.303 197.99C167.303 197.694 167.18 197.468 166.934 197.313C166.692 197.159 166.289 197.022 165.724 196.903C165.159 196.785 164.687 196.634 164.309 196.452C163.479 196.051 163.064 195.47 163.064 194.709C163.064 194.071 163.333 193.538 163.871 193.109C164.409 192.681 165.092 192.467 165.922 192.467C166.806 192.467 167.519 192.686 168.062 193.123C168.608 193.561 168.882 194.128 168.882 194.825H167.221C167.221 194.506 167.102 194.242 166.865 194.032C166.628 193.818 166.314 193.711 165.922 193.711C165.557 193.711 165.259 193.795 165.026 193.964C164.799 194.132 164.685 194.358 164.685 194.641C164.685 194.896 164.792 195.094 165.006 195.235C165.22 195.377 165.653 195.52 166.305 195.666C166.956 195.807 167.467 195.978 167.836 196.179C168.21 196.375 168.485 196.612 168.663 196.89C168.845 197.168 168.937 197.505 168.937 197.901C168.937 198.567 168.661 199.107 168.109 199.521C167.558 199.932 166.836 200.137 165.942 200.137C165.336 200.137 164.796 200.027 164.322 199.809C163.848 199.59 163.479 199.289 163.215 198.906C162.951 198.523 162.818 198.111 162.818 197.669H164.432C164.454 198.061 164.603 198.364 164.876 198.578C165.149 198.788 165.512 198.893 165.963 198.893C166.4 198.893 166.733 198.811 166.961 198.646C167.189 198.478 167.303 198.259 167.303 197.99Z" fill="#2097F6"/>
<rect x="20.5" y="175.5" width="179" height="39" rx="19.5" stroke="#2097F6"/>
</g>
<g filter="url(#filter3_d)">
<rect x="35" y="123" width="150" height="40" rx="20" fill="#E7F4FF"/>
<path d="M75.2734 145.437C75.2734 144.999 75.1185 144.662 74.8086 144.425C74.5033 144.188 73.9495 143.949 73.1475 143.707C72.3454 143.465 71.7074 143.197 71.2334 142.9C70.3265 142.331 69.873 141.588 69.873 140.672C69.873 139.87 70.1989 139.209 70.8506 138.689C71.5068 138.17 72.3568 137.91 73.4004 137.91C74.0931 137.91 74.7106 138.038 75.2529 138.293C75.7952 138.548 76.2214 138.913 76.5312 139.387C76.8411 139.856 76.9961 140.378 76.9961 140.952H75.2734C75.2734 140.433 75.1094 140.027 74.7812 139.735C74.4577 139.439 73.9928 139.291 73.3867 139.291C72.8216 139.291 72.3818 139.412 72.0674 139.653C71.7575 139.895 71.6025 140.232 71.6025 140.665C71.6025 141.03 71.7712 141.335 72.1084 141.581C72.4456 141.823 73.0016 142.06 73.7764 142.292C74.5511 142.52 75.1732 142.782 75.6426 143.078C76.112 143.37 76.4561 143.707 76.6748 144.09C76.8936 144.468 77.0029 144.912 77.0029 145.423C77.0029 146.252 76.6839 146.913 76.0459 147.405C75.4124 147.893 74.5511 148.137 73.4619 148.137C72.7419 148.137 72.0788 148.005 71.4727 147.74C70.8711 147.471 70.4017 147.102 70.0645 146.633C69.7318 146.163 69.5654 145.617 69.5654 144.992H71.2949C71.2949 145.557 71.4818 145.995 71.8555 146.305C72.2292 146.615 72.7646 146.77 73.4619 146.77C74.0635 146.77 74.5146 146.649 74.8154 146.407C75.1208 146.161 75.2734 145.838 75.2734 145.437ZM80.4414 138.806V140.604H81.7471V141.834H80.4414V145.963C80.4414 146.245 80.4961 146.451 80.6055 146.578C80.7194 146.701 80.9199 146.763 81.207 146.763C81.3984 146.763 81.5921 146.74 81.7881 146.694V147.979C81.4098 148.084 81.0452 148.137 80.6943 148.137C79.4183 148.137 78.7803 147.433 78.7803 146.024V141.834H77.5635V140.604H78.7803V138.806H80.4414ZM82.5059 144.233C82.5059 143.509 82.6494 142.857 82.9365 142.278C83.2236 141.695 83.627 141.248 84.1465 140.938C84.666 140.624 85.263 140.467 85.9375 140.467C86.9355 140.467 87.7445 140.788 88.3643 141.431C88.9886 142.073 89.3258 142.925 89.376 143.987L89.3828 144.377C89.3828 145.106 89.2415 145.758 88.959 146.332C88.681 146.906 88.2799 147.351 87.7559 147.665C87.2363 147.979 86.6348 148.137 85.9512 148.137C84.9076 148.137 84.0713 147.79 83.4424 147.098C82.818 146.4 82.5059 145.473 82.5059 144.315V144.233ZM84.167 144.377C84.167 145.138 84.3242 145.735 84.6387 146.168C84.9531 146.596 85.3906 146.811 85.9512 146.811C86.5117 146.811 86.9469 146.592 87.2568 146.154C87.5713 145.717 87.7285 145.076 87.7285 144.233C87.7285 143.486 87.5667 142.894 87.2432 142.456C86.9242 142.019 86.4889 141.8 85.9375 141.8C85.3952 141.8 84.9645 142.016 84.6455 142.449C84.3265 142.878 84.167 143.52 84.167 144.377ZM94.6602 142.121C94.4414 142.085 94.2158 142.066 93.9834 142.066C93.2223 142.066 92.7096 142.358 92.4453 142.941V148H90.7842V140.604H92.3701L92.4111 141.431C92.8122 140.788 93.3682 140.467 94.0791 140.467C94.3161 140.467 94.512 140.499 94.667 140.562L94.6602 142.121ZM99.9238 148C99.8509 147.859 99.7871 147.629 99.7324 147.31C99.2038 147.861 98.5566 148.137 97.791 148.137C97.0482 148.137 96.4421 147.925 95.9727 147.501C95.5033 147.077 95.2686 146.553 95.2686 145.929C95.2686 145.14 95.5602 144.536 96.1436 144.117C96.7314 143.693 97.57 143.481 98.6592 143.481H99.6777V142.996C99.6777 142.613 99.5706 142.308 99.3564 142.08C99.1423 141.848 98.8164 141.731 98.3789 141.731C98.0007 141.731 97.6908 141.827 97.4492 142.019C97.2077 142.205 97.0869 142.445 97.0869 142.736H95.4258C95.4258 142.331 95.5602 141.952 95.8291 141.602C96.098 141.246 96.4626 140.968 96.9229 140.768C97.3877 140.567 97.9049 140.467 98.4746 140.467C99.3405 140.467 100.031 140.686 100.546 141.123C101.061 141.556 101.325 142.167 101.339 142.955V146.291C101.339 146.956 101.432 147.487 101.619 147.884V148H99.9238ZM98.0986 146.804C98.4268 146.804 98.7344 146.724 99.0215 146.564C99.3132 146.405 99.5319 146.191 99.6777 145.922V144.527H98.7822C98.167 144.527 97.7044 144.634 97.3945 144.849C97.0846 145.063 96.9297 145.366 96.9297 145.758C96.9297 146.077 97.0345 146.332 97.2441 146.523C97.4583 146.71 97.7432 146.804 98.0986 146.804ZM102.788 144.247C102.788 143.099 103.057 142.183 103.595 141.499C104.137 140.811 104.855 140.467 105.748 140.467C106.591 140.467 107.254 140.761 107.737 141.349L107.812 140.604H109.31V147.774C109.31 148.745 109.007 149.511 108.4 150.071C107.799 150.632 106.985 150.912 105.96 150.912C105.418 150.912 104.887 150.798 104.367 150.57C103.852 150.347 103.46 150.053 103.191 149.688L103.978 148.69C104.488 149.297 105.117 149.6 105.864 149.6C106.416 149.6 106.851 149.449 107.17 149.148C107.489 148.852 107.648 148.415 107.648 147.836V147.337C107.17 147.87 106.532 148.137 105.734 148.137C104.868 148.137 104.16 147.793 103.608 147.104C103.062 146.416 102.788 145.464 102.788 144.247ZM104.442 144.391C104.442 145.133 104.593 145.719 104.894 146.147C105.199 146.571 105.62 146.783 106.158 146.783C106.828 146.783 107.325 146.496 107.648 145.922V142.668C107.334 142.107 106.842 141.827 106.172 141.827C105.625 141.827 105.199 142.044 104.894 142.477C104.593 142.91 104.442 143.548 104.442 144.391ZM114.279 148.137C113.227 148.137 112.372 147.806 111.716 147.146C111.064 146.48 110.738 145.596 110.738 144.493V144.288C110.738 143.55 110.88 142.891 111.162 142.312C111.449 141.729 111.85 141.276 112.365 140.952C112.88 140.629 113.454 140.467 114.088 140.467C115.095 140.467 115.872 140.788 116.419 141.431C116.97 142.073 117.246 142.982 117.246 144.158V144.828H112.413C112.463 145.439 112.666 145.922 113.021 146.277C113.382 146.633 113.833 146.811 114.375 146.811C115.136 146.811 115.756 146.503 116.234 145.888L117.13 146.742C116.834 147.184 116.437 147.528 115.94 147.774C115.448 148.016 114.895 148.137 114.279 148.137ZM114.081 141.8C113.625 141.8 113.256 141.959 112.974 142.278C112.696 142.597 112.518 143.042 112.44 143.611H115.605V143.488C115.569 142.932 115.421 142.513 115.161 142.23C114.901 141.943 114.541 141.8 114.081 141.8ZM128.97 139.441H125.866V148H124.15V139.441H121.074V138.047H128.97V139.441ZM132.148 145.621L133.652 140.604H135.423L132.483 149.121C132.032 150.365 131.267 150.987 130.187 150.987C129.945 150.987 129.678 150.946 129.387 150.864V149.579L129.701 149.6C130.12 149.6 130.435 149.522 130.645 149.367C130.859 149.217 131.027 148.962 131.15 148.602L131.39 147.966L128.792 140.604H130.583L132.148 145.621ZM142.86 144.377C142.86 145.521 142.601 146.435 142.081 147.118C141.562 147.797 140.864 148.137 139.989 148.137C139.178 148.137 138.529 147.87 138.041 147.337V150.844H136.38V140.604H137.911L137.979 141.355C138.467 140.763 139.13 140.467 139.969 140.467C140.871 140.467 141.577 140.804 142.088 141.479C142.603 142.148 142.86 143.08 142.86 144.274V144.377ZM141.206 144.233C141.206 143.495 141.058 142.91 140.762 142.477C140.47 142.044 140.051 141.827 139.504 141.827C138.825 141.827 138.337 142.107 138.041 142.668V145.949C138.342 146.523 138.834 146.811 139.518 146.811C140.046 146.811 140.459 146.599 140.755 146.175C141.056 145.746 141.206 145.099 141.206 144.233ZM147.529 148.137C146.477 148.137 145.622 147.806 144.966 147.146C144.314 146.48 143.988 145.596 143.988 144.493V144.288C143.988 143.55 144.13 142.891 144.412 142.312C144.699 141.729 145.1 141.276 145.615 140.952C146.13 140.629 146.704 140.467 147.338 140.467C148.345 140.467 149.122 140.788 149.669 141.431C150.22 142.073 150.496 142.982 150.496 144.158V144.828H145.663C145.713 145.439 145.916 145.922 146.271 146.277C146.632 146.633 147.083 146.811 147.625 146.811C148.386 146.811 149.006 146.503 149.484 145.888L150.38 146.742C150.084 147.184 149.687 147.528 149.19 147.774C148.698 148.016 148.145 148.137 147.529 148.137ZM147.331 141.8C146.875 141.8 146.506 141.959 146.224 142.278C145.946 142.597 145.768 143.042 145.69 143.611H148.855V143.488C148.819 142.932 148.671 142.513 148.411 142.23C148.151 141.943 147.791 141.8 147.331 141.8Z" fill="#2097F6"/>
<rect x="35.5" y="123.5" width="149" height="39" rx="19.5" stroke="#2097F6"/>
</g>
<path d="M66.8447 92.3018V96H65.1152V86.0469H68.9229C70.0348 86.0469 70.9167 86.3363 71.5684 86.915C72.2246 87.4938 72.5527 88.2594 72.5527 89.2119C72.5527 90.1872 72.2314 90.946 71.5889 91.4883C70.9508 92.0306 70.0553 92.3018 68.9023 92.3018H66.8447ZM66.8447 90.9141H68.9229C69.5381 90.9141 70.0075 90.7705 70.3311 90.4834C70.6546 90.1917 70.8164 89.7725 70.8164 89.2256C70.8164 88.6878 70.6523 88.2594 70.3242 87.9404C69.9961 87.6169 69.5449 87.4505 68.9707 87.4414H66.8447V90.9141ZM78.2471 96C78.1742 95.8587 78.1104 95.6286 78.0557 95.3096C77.527 95.861 76.8799 96.1367 76.1143 96.1367C75.3714 96.1367 74.7653 95.9248 74.2959 95.501C73.8265 95.0771 73.5918 94.5531 73.5918 93.9287C73.5918 93.1403 73.8835 92.5365 74.4668 92.1172C75.0547 91.6934 75.8932 91.4814 76.9824 91.4814H78.001V90.9961C78.001 90.6133 77.8939 90.3079 77.6797 90.0801C77.4655 89.8477 77.1396 89.7314 76.7021 89.7314C76.3239 89.7314 76.014 89.8271 75.7725 90.0186C75.5309 90.2054 75.4102 90.4447 75.4102 90.7363H73.749C73.749 90.3307 73.8835 89.9525 74.1523 89.6016C74.4212 89.2461 74.7858 88.9681 75.2461 88.7676C75.7109 88.5671 76.2282 88.4668 76.7979 88.4668C77.6637 88.4668 78.3542 88.6855 78.8691 89.123C79.3841 89.556 79.6484 90.1667 79.6621 90.9551V94.291C79.6621 94.9564 79.7555 95.4873 79.9424 95.8838V96H78.2471ZM76.4219 94.8037C76.75 94.8037 77.0576 94.724 77.3447 94.5645C77.6364 94.4049 77.8551 94.1908 78.001 93.9219V92.5273H77.1055C76.4902 92.5273 76.0277 92.6344 75.7178 92.8486C75.4079 93.0628 75.2529 93.3659 75.2529 93.7578C75.2529 94.0768 75.3577 94.332 75.5674 94.5234C75.7816 94.7103 76.0664 94.8037 76.4219 94.8037ZM85.2744 90.1211C85.0557 90.0846 84.8301 90.0664 84.5977 90.0664C83.8366 90.0664 83.3239 90.3581 83.0596 90.9414V96H81.3984V88.6035H82.9844L83.0254 89.4307C83.4264 88.7881 83.9824 88.4668 84.6934 88.4668C84.9303 88.4668 85.1263 88.4987 85.2812 88.5625L85.2744 90.1211ZM90.5381 96C90.4652 95.8587 90.4014 95.6286 90.3467 95.3096C89.818 95.861 89.1709 96.1367 88.4053 96.1367C87.6624 96.1367 87.0563 95.9248 86.5869 95.501C86.1175 95.0771 85.8828 94.5531 85.8828 93.9287C85.8828 93.1403 86.1745 92.5365 86.7578 92.1172C87.3457 91.6934 88.1842 91.4814 89.2734 91.4814H90.292V90.9961C90.292 90.6133 90.1849 90.3079 89.9707 90.0801C89.7565 89.8477 89.4307 89.7314 88.9932 89.7314C88.6149 89.7314 88.305 89.8271 88.0635 90.0186C87.8219 90.2054 87.7012 90.4447 87.7012 90.7363H86.04C86.04 90.3307 86.1745 89.9525 86.4434 89.6016C86.7122 89.2461 87.0768 88.9681 87.5371 88.7676C88.002 88.5671 88.5192 88.4668 89.0889 88.4668C89.9548 88.4668 90.6452 88.6855 91.1602 89.123C91.6751 89.556 91.9395 90.1667 91.9531 90.9551V94.291C91.9531 94.9564 92.0465 95.4873 92.2334 95.8838V96H90.5381ZM88.7129 94.8037C89.041 94.8037 89.3486 94.724 89.6357 94.5645C89.9274 94.4049 90.1462 94.1908 90.292 93.9219V92.5273H89.3965C88.7812 92.5273 88.3187 92.6344 88.0088 92.8486C87.6989 93.0628 87.5439 93.3659 87.5439 93.7578C87.5439 94.0768 87.6488 94.332 87.8584 94.5234C88.0726 94.7103 88.3574 94.8037 88.7129 94.8037ZM95.2549 88.6035L95.3027 89.376C95.8223 88.7699 96.5332 88.4668 97.4355 88.4668C98.4245 88.4668 99.1012 88.8451 99.4658 89.6016C100.004 88.8451 100.76 88.4668 101.735 88.4668C102.551 88.4668 103.157 88.6924 103.554 89.1436C103.955 89.5947 104.16 90.2601 104.169 91.1396V96H102.508V91.1875C102.508 90.7181 102.405 90.374 102.2 90.1553C101.995 89.9365 101.656 89.8271 101.182 89.8271C100.803 89.8271 100.493 89.9297 100.252 90.1348C100.015 90.3353 99.8486 90.5996 99.7529 90.9277L99.7598 96H98.0986V91.1328C98.0758 90.2624 97.6315 89.8271 96.7656 89.8271C96.1003 89.8271 95.6286 90.0983 95.3506 90.6406V96H93.6895V88.6035H95.2549ZM109.132 96.1367C108.079 96.1367 107.225 95.8063 106.568 95.1455C105.917 94.4801 105.591 93.596 105.591 92.4932V92.2881C105.591 91.5498 105.732 90.8913 106.015 90.3125C106.302 89.7292 106.703 89.2757 107.218 88.9521C107.733 88.6286 108.307 88.4668 108.94 88.4668C109.948 88.4668 110.725 88.7881 111.271 89.4307C111.823 90.0732 112.099 90.9824 112.099 92.1582V92.8281H107.266C107.316 93.4388 107.519 93.9219 107.874 94.2773C108.234 94.6328 108.685 94.8105 109.228 94.8105C109.989 94.8105 110.608 94.5029 111.087 93.8877L111.982 94.7422C111.686 95.1842 111.29 95.5283 110.793 95.7744C110.301 96.016 109.747 96.1367 109.132 96.1367ZM108.934 89.7998C108.478 89.7998 108.109 89.9593 107.826 90.2783C107.548 90.5973 107.37 91.0417 107.293 91.6113H110.458V91.4883C110.422 90.9323 110.273 90.513 110.014 90.2305C109.754 89.9434 109.394 89.7998 108.934 89.7998ZM115.476 86.8057V88.6035H116.781V89.834H115.476V93.9629C115.476 94.2454 115.53 94.4505 115.64 94.5781C115.754 94.7012 115.954 94.7627 116.241 94.7627C116.433 94.7627 116.626 94.7399 116.822 94.6943V95.9795C116.444 96.0843 116.079 96.1367 115.729 96.1367C114.452 96.1367 113.814 95.4326 113.814 94.0244V89.834H112.598V88.6035H113.814V86.8057H115.476ZM121.313 96.1367C120.261 96.1367 119.406 95.8063 118.75 95.1455C118.098 94.4801 117.772 93.596 117.772 92.4932V92.2881C117.772 91.5498 117.914 90.8913 118.196 90.3125C118.483 89.7292 118.884 89.2757 119.399 88.9521C119.914 88.6286 120.489 88.4668 121.122 88.4668C122.129 88.4668 122.906 88.7881 123.453 89.4307C124.005 90.0732 124.28 90.9824 124.28 92.1582V92.8281H119.447C119.497 93.4388 119.7 93.9219 120.056 94.2773C120.416 94.6328 120.867 94.8105 121.409 94.8105C122.17 94.8105 122.79 94.5029 123.269 93.8877L124.164 94.7422C123.868 95.1842 123.471 95.5283 122.975 95.7744C122.482 96.016 121.929 96.1367 121.313 96.1367ZM121.115 89.7998C120.66 89.7998 120.29 89.9593 120.008 90.2783C119.73 90.5973 119.552 91.0417 119.475 91.6113H122.64V91.4883C122.603 90.9323 122.455 90.513 122.195 90.2305C121.936 89.9434 121.576 89.7998 121.115 89.7998ZM129.448 90.1211C129.229 90.0846 129.004 90.0664 128.771 90.0664C128.01 90.0664 127.498 90.3581 127.233 90.9414V96H125.572V88.6035H127.158L127.199 89.4307C127.6 88.7881 128.156 88.4668 128.867 88.4668C129.104 88.4668 129.3 88.4987 129.455 88.5625L129.448 90.1211ZM140.926 87.4414H137.822V96H136.106V87.4414H133.03V86.0469H140.926V87.4414ZM144.104 93.6211L145.608 88.6035H147.379L144.439 97.1211C143.988 98.3652 143.223 98.9873 142.143 98.9873C141.901 98.9873 141.634 98.9463 141.343 98.8643V97.5791L141.657 97.5996C142.076 97.5996 142.391 97.5221 142.601 97.3672C142.815 97.2168 142.983 96.9616 143.106 96.6016L143.346 95.9658L140.748 88.6035H142.539L144.104 93.6211ZM154.816 92.377C154.816 93.5208 154.557 94.4346 154.037 95.1182C153.518 95.7972 152.82 96.1367 151.945 96.1367C151.134 96.1367 150.485 95.8701 149.997 95.3369V98.8438H148.336V88.6035H149.867L149.936 89.3555C150.423 88.763 151.086 88.4668 151.925 88.4668C152.827 88.4668 153.534 88.804 154.044 89.4785C154.559 90.1484 154.816 91.0804 154.816 92.2744V92.377ZM153.162 92.2334C153.162 91.4951 153.014 90.9095 152.718 90.4766C152.426 90.0436 152.007 89.8271 151.46 89.8271C150.781 89.8271 150.293 90.1074 149.997 90.668V93.9492C150.298 94.5234 150.79 94.8105 151.474 94.8105C152.002 94.8105 152.415 94.5986 152.711 94.1748C153.012 93.7464 153.162 93.0993 153.162 92.2334ZM159.485 96.1367C158.433 96.1367 157.578 95.8063 156.922 95.1455C156.27 94.4801 155.944 93.596 155.944 92.4932V92.2881C155.944 91.5498 156.086 90.8913 156.368 90.3125C156.655 89.7292 157.056 89.2757 157.571 88.9521C158.086 88.6286 158.66 88.4668 159.294 88.4668C160.301 88.4668 161.078 88.7881 161.625 89.4307C162.176 90.0732 162.452 90.9824 162.452 92.1582V92.8281H157.619C157.669 93.4388 157.872 93.9219 158.228 94.2773C158.588 94.6328 159.039 94.8105 159.581 94.8105C160.342 94.8105 160.962 94.5029 161.44 93.8877L162.336 94.7422C162.04 95.1842 161.643 95.5283 161.146 95.7744C160.654 96.016 160.101 96.1367 159.485 96.1367ZM159.287 89.7998C158.831 89.7998 158.462 89.9593 158.18 90.2783C157.902 90.5973 157.724 91.0417 157.646 91.6113H160.812V91.4883C160.775 90.9323 160.627 90.513 160.367 90.2305C160.107 89.9434 159.747 89.7998 159.287 89.7998Z" fill="#2097F6"/>
<path d="M8 1H212V-1H8V1ZM219 8V244H221V8H219ZM212 251H8.00001V253H212V251ZM1 244V8H-1V244H1ZM8.00001 251C4.13401 251 1 247.866 1 244H-1C-1 248.971 3.02944 253 8.00001 253V251ZM219 244C219 247.866 215.866 251 212 251V253C216.971 253 221 248.971 221 244H219ZM212 1C215.866 1 219 4.13401 219 8H221C221 3.02944 216.971 -1 212 -1V1ZM8 -1C3.02944 -1 -1 3.02944 -1 8H1C1 4.13401 4.13401 1 8 1V-1Z" fill="#2097F6"/>
</g>
<defs>
<filter id="filter0_d" x="0" y="0" width="224" height="256" filterUnits="userSpaceOnUse" color-interpolation-filters="sRGB">
<feFlood flood-opacity="0" result="BackgroundImageFix"/>
<feColorMatrix in="SourceAlpha" type="matrix" values="0 0 0 0 0 0 0 0 0 0 0 0 0 0 0 0 0 0 127 0"/>
<feOffset dx="4" dy="4"/>
<feColorMatrix type="matrix" values="0 0 0 0 0.513733 0 0 0 0 0.767915 0 0 0 0 0.970833 0 0 0 1 0"/>
<feBlend mode="normal" in2="BackgroundImageFix" result="effect1_dropShadow"/>
<feBlend mode="normal" in="SourceGraphic" in2="effect1_dropShadow" result="shape"/>
</filter>
<filter id="filter1_d" x="20" y="71" width="184" height="44" filterUnits="userSpaceOnUse" color-interpolation-filters="sRGB">
<feFlood flood-opacity="0" result="BackgroundImageFix"/>
<feColorMatrix in="SourceAlpha" type="matrix" values="0 0 0 0 0 0 0 0 0 0 0 0 0 0 0 0 0 0 127 0"/>
<feOffset dx="4" dy="4"/>
<feColorMatrix type="matrix" values="0 0 0 0 0.513733 0 0 0 0 0.767915 0 0 0 0 0.970833 0 0 0 1 0"/>
<feBlend mode="normal" in2="BackgroundImageFix" result="effect1_dropShadow"/>
<feBlend mode="normal" in="SourceGraphic" in2="effect1_dropShadow" result="shape"/>
</filter>
<filter id="filter2_d" x="20" y="175" width="184" height="44" filterUnits="userSpaceOnUse" color-interpolation-filters="sRGB">
<feFlood flood-opacity="0" result="BackgroundImageFix"/>
<feColorMatrix in="SourceAlpha" type="matrix" values="0 0 0 0 0 0 0 0 0 0 0 0 0 0 0 0 0 0 127 0"/>
<feOffset dx="4" dy="4"/>
<feColorMatrix type="matrix" values="0 0 0 0 0.513733 0 0 0 0 0.767915 0 0 0 0 0.970833 0 0 0 1 0"/>
<feBlend mode="normal" in2="BackgroundImageFix" result="effect1_dropShadow"/>
<feBlend mode="normal" in="SourceGraphic" in2="effect1_dropShadow" result="shape"/>
</filter>
<filter id="filter3_d" x="35" y="123" width="154" height="44" filterUnits="userSpaceOnUse" color-interpolation-filters="sRGB">
<feFlood flood-opacity="0" result="BackgroundImageFix"/>
<feColorMatrix in="SourceAlpha" type="matrix" values="0 0 0 0 0 0 0 0 0 0 0 0 0 0 0 0 0 0 127 0"/>
<feOffset dx="4" dy="4"/>
<feColorMatrix type="matrix" values="0 0 0 0 0.513733 0 0 0 0 0.767915 0 0 0 0 0.970833 0 0 0 1 0"/>
<feBlend mode="normal" in2="BackgroundImageFix" result="effect1_dropShadow"/>
<feBlend mode="normal" in="SourceGraphic" in2="effect1_dropShadow" result="shape"/>
</filter>
</defs>
</svg>
