<svg width="490" height="359" viewBox="0 0 490 359" fill="none" xmlns="http://www.w3.org/2000/svg">
<g filter="url(#filter0_d)">
<rect width="486" height="355" rx="8" fill="white"/>
<rect x="0.5" y="0.5" width="485" height="354" rx="7.5" stroke="#5452F6"/>
</g>
<path d="M134.711 70.1797H130.133V75H128.156V63.625H135.383V65.2188H130.133V68.6016H134.711V70.1797ZM141.82 72.3516H137.414L136.492 75H134.438L138.734 63.625H140.508L144.812 75H142.75L141.82 72.3516ZM137.969 70.7578H141.266L139.617 66.0391L137.969 70.7578ZM152.289 64.4922V66.5469H153.781V67.9531H152.289V72.6719C152.289 72.9948 152.352 73.2292 152.477 73.375C152.607 73.5156 152.836 73.5859 153.164 73.5859C153.383 73.5859 153.604 73.5599 153.828 73.5078V74.9766C153.396 75.0964 152.979 75.1562 152.578 75.1562C151.12 75.1562 150.391 74.3516 150.391 72.7422V67.9531H149V66.5469H150.391V64.4922H152.289ZM154.648 70.6953C154.648 69.8672 154.812 69.1224 155.141 68.4609C155.469 67.7943 155.93 67.2839 156.523 66.9297C157.117 66.5703 157.799 66.3906 158.57 66.3906C159.711 66.3906 160.635 66.7578 161.344 67.4922C162.057 68.2266 162.443 69.2005 162.5 70.4141L162.508 70.8594C162.508 71.6927 162.346 72.4375 162.023 73.0938C161.706 73.75 161.247 74.2578 160.648 74.6172C160.055 74.9766 159.367 75.1562 158.586 75.1562C157.393 75.1562 156.438 74.7604 155.719 73.9688C155.005 73.1719 154.648 72.112 154.648 70.7891V70.6953ZM156.547 70.8594C156.547 71.7292 156.727 72.4115 157.086 72.9062C157.445 73.3958 157.945 73.6406 158.586 73.6406C159.227 73.6406 159.724 73.3906 160.078 72.8906C160.438 72.3906 160.617 71.6589 160.617 70.6953C160.617 69.8411 160.432 69.1641 160.062 68.6641C159.698 68.1641 159.201 67.9141 158.57 67.9141C157.951 67.9141 157.458 68.1615 157.094 68.6562C156.729 69.1458 156.547 69.8802 156.547 70.8594ZM166.859 71.375L166.016 72.2422V75H164.117V63H166.016V69.9219L166.609 69.1797L168.945 66.5469H171.227L168.086 70.0703L171.562 75H169.367L166.859 71.375ZM176.039 75.1562C174.836 75.1562 173.859 74.7786 173.109 74.0234C172.365 73.263 171.992 72.2526 171.992 70.9922V70.7578C171.992 69.9141 172.154 69.1615 172.477 68.5C172.805 67.8333 173.263 67.3151 173.852 66.9453C174.44 66.5755 175.096 66.3906 175.82 66.3906C176.971 66.3906 177.859 66.7578 178.484 67.4922C179.115 68.2266 179.43 69.2656 179.43 70.6094V71.375H173.906C173.964 72.0729 174.195 72.625 174.602 73.0312C175.013 73.4375 175.529 73.6406 176.148 73.6406C177.018 73.6406 177.727 73.2891 178.273 72.5859L179.297 73.5625C178.958 74.0677 178.505 74.4609 177.938 74.7422C177.375 75.0182 176.742 75.1562 176.039 75.1562ZM175.812 67.9141C175.292 67.9141 174.87 68.0964 174.547 68.4609C174.229 68.8255 174.026 69.3333 173.938 69.9844H177.555V69.8438C177.513 69.2083 177.344 68.7292 177.047 68.4062C176.75 68.0781 176.339 67.9141 175.812 67.9141ZM182.672 66.5469L182.727 67.5234C183.352 66.7682 184.172 66.3906 185.188 66.3906C186.948 66.3906 187.844 67.3984 187.875 69.4141V75H185.977V69.5234C185.977 68.987 185.859 68.5911 185.625 68.3359C185.396 68.0755 185.018 67.9453 184.492 67.9453C183.727 67.9453 183.156 68.2917 182.781 68.9844V75H180.883V66.5469H182.672ZM194.555 72.7031C194.555 72.3646 194.414 72.1068 194.133 71.9297C193.857 71.7526 193.396 71.5964 192.75 71.4609C192.104 71.3255 191.565 71.1536 191.133 70.9453C190.185 70.487 189.711 69.8229 189.711 68.9531C189.711 68.224 190.018 67.6146 190.633 67.125C191.247 66.6354 192.029 66.3906 192.977 66.3906C193.987 66.3906 194.802 66.6406 195.422 67.1406C196.047 67.6406 196.359 68.2891 196.359 69.0859H194.461C194.461 68.7214 194.326 68.4193 194.055 68.1797C193.784 67.9349 193.424 67.8125 192.977 67.8125C192.56 67.8125 192.219 67.9089 191.953 68.1016C191.693 68.2943 191.562 68.5521 191.562 68.875C191.562 69.1667 191.685 69.3932 191.93 69.5547C192.174 69.7161 192.669 69.8802 193.414 70.0469C194.159 70.2083 194.742 70.4036 195.164 70.6328C195.591 70.8568 195.906 71.1276 196.109 71.4453C196.318 71.763 196.422 72.1484 196.422 72.6016C196.422 73.362 196.107 73.9792 195.477 74.4531C194.846 74.9219 194.021 75.1562 193 75.1562C192.307 75.1562 191.69 75.0312 191.148 74.7812C190.607 74.5312 190.185 74.1875 189.883 73.75C189.581 73.3125 189.43 72.8411 189.43 72.3359H191.273C191.299 72.7839 191.469 73.1302 191.781 73.375C192.094 73.6146 192.508 73.7344 193.023 73.7344C193.523 73.7344 193.904 73.6406 194.164 73.4531C194.424 73.2604 194.555 73.0104 194.555 72.7031ZM205.539 73.6406C206.013 73.6406 206.406 73.5026 206.719 73.2266C207.031 72.9505 207.198 72.6094 207.219 72.2031H209.008C208.987 72.7292 208.823 73.2214 208.516 73.6797C208.208 74.1328 207.792 74.4922 207.266 74.7578C206.74 75.0234 206.172 75.1562 205.562 75.1562C204.38 75.1562 203.443 74.7734 202.75 74.0078C202.057 73.2422 201.711 72.1849 201.711 70.8359V70.6406C201.711 69.3542 202.055 68.3255 202.742 67.5547C203.43 66.7786 204.367 66.3906 205.555 66.3906C206.56 66.3906 207.378 66.6849 208.008 67.2734C208.643 67.8568 208.977 68.625 209.008 69.5781H207.219C207.198 69.0938 207.031 68.6953 206.719 68.3828C206.411 68.0703 206.018 67.9141 205.539 67.9141C204.924 67.9141 204.451 68.138 204.117 68.5859C203.784 69.0286 203.615 69.7031 203.609 70.6094V70.9141C203.609 71.8307 203.773 72.5156 204.102 72.9688C204.435 73.4167 204.914 73.6406 205.539 73.6406ZM215.492 75C215.409 74.8385 215.336 74.5755 215.273 74.2109C214.669 74.8411 213.93 75.1562 213.055 75.1562C212.206 75.1562 211.513 74.9141 210.977 74.4297C210.44 73.9453 210.172 73.3464 210.172 72.6328C210.172 71.7318 210.505 71.0417 211.172 70.5625C211.844 70.0781 212.802 69.8359 214.047 69.8359H215.211V69.2812C215.211 68.8438 215.089 68.4948 214.844 68.2344C214.599 67.9688 214.227 67.8359 213.727 67.8359C213.294 67.8359 212.94 67.9453 212.664 68.1641C212.388 68.3776 212.25 68.651 212.25 68.9844H210.352C210.352 68.5208 210.505 68.0885 210.812 67.6875C211.12 67.2812 211.536 66.9635 212.062 66.7344C212.594 66.5052 213.185 66.3906 213.836 66.3906C214.826 66.3906 215.615 66.6406 216.203 67.1406C216.792 67.6354 217.094 68.3333 217.109 69.2344V73.0469C217.109 73.8073 217.216 74.4141 217.43 74.8672V75H215.492ZM213.406 73.6328C213.781 73.6328 214.133 73.5417 214.461 73.3594C214.794 73.1771 215.044 72.9323 215.211 72.625V71.0312H214.188C213.484 71.0312 212.956 71.1536 212.602 71.3984C212.247 71.6432 212.07 71.9896 212.07 72.4375C212.07 72.8021 212.19 73.0938 212.43 73.3125C212.674 73.526 213 73.6328 213.406 73.6328ZM220.859 66.5469L220.914 67.5234C221.539 66.7682 222.359 66.3906 223.375 66.3906C225.135 66.3906 226.031 67.3984 226.062 69.4141V75H224.164V69.5234C224.164 68.987 224.047 68.5911 223.812 68.3359C223.583 68.0755 223.206 67.9453 222.68 67.9453C221.914 67.9453 221.344 68.2917 220.969 68.9844V75H219.07V66.5469H220.859ZM234.008 75H232.109V66.5469H234.008V75ZM231.992 64.3516C231.992 64.0599 232.083 63.8177 232.266 63.625C232.453 63.4323 232.719 63.3359 233.062 63.3359C233.406 63.3359 233.672 63.4323 233.859 63.625C234.047 63.8177 234.141 64.0599 234.141 64.3516C234.141 64.638 234.047 64.8776 233.859 65.0703C233.672 65.2578 233.406 65.3516 233.062 65.3516C232.719 65.3516 232.453 65.2578 232.266 65.0703C232.083 64.8776 231.992 64.638 231.992 64.3516ZM237.844 66.5469L237.898 67.5234C238.523 66.7682 239.344 66.3906 240.359 66.3906C242.12 66.3906 243.016 67.3984 243.047 69.4141V75H241.148V69.5234C241.148 68.987 241.031 68.5911 240.797 68.3359C240.568 68.0755 240.19 67.9453 239.664 67.9453C238.898 67.9453 238.328 68.2917 237.953 68.9844V75H236.055V66.5469H237.844ZM247.367 64.4922V66.5469H248.859V67.9531H247.367V72.6719C247.367 72.9948 247.43 73.2292 247.555 73.375C247.685 73.5156 247.914 73.5859 248.242 73.5859C248.461 73.5859 248.682 73.5599 248.906 73.5078V74.9766C248.474 75.0964 248.057 75.1562 247.656 75.1562C246.198 75.1562 245.469 74.3516 245.469 72.7422V67.9531H244.078V66.5469H245.469V64.4922H247.367ZM254.039 75.1562C252.836 75.1562 251.859 74.7786 251.109 74.0234C250.365 73.263 249.992 72.2526 249.992 70.9922V70.7578C249.992 69.9141 250.154 69.1615 250.477 68.5C250.805 67.8333 251.263 67.3151 251.852 66.9453C252.44 66.5755 253.096 66.3906 253.82 66.3906C254.971 66.3906 255.859 66.7578 256.484 67.4922C257.115 68.2266 257.43 69.2656 257.43 70.6094V71.375H251.906C251.964 72.0729 252.195 72.625 252.602 73.0312C253.013 73.4375 253.529 73.6406 254.148 73.6406C255.018 73.6406 255.727 73.2891 256.273 72.5859L257.297 73.5625C256.958 74.0677 256.505 74.4609 255.938 74.7422C255.375 75.0182 254.742 75.1562 254.039 75.1562ZM253.812 67.9141C253.292 67.9141 252.87 68.0964 252.547 68.4609C252.229 68.8255 252.026 69.3333 251.938 69.9844H255.555V69.8438C255.513 69.2083 255.344 68.7292 255.047 68.4062C254.75 68.0781 254.339 67.9141 253.812 67.9141ZM263.336 68.2812C263.086 68.2396 262.828 68.2188 262.562 68.2188C261.693 68.2188 261.107 68.5521 260.805 69.2188V75H258.906V66.5469H260.719L260.766 67.4922C261.224 66.7578 261.859 66.3906 262.672 66.3906C262.943 66.3906 263.167 66.4271 263.344 66.5L263.336 68.2812ZM269.352 75C269.268 74.8385 269.195 74.5755 269.133 74.2109C268.529 74.8411 267.789 75.1562 266.914 75.1562C266.065 75.1562 265.372 74.9141 264.836 74.4297C264.299 73.9453 264.031 73.3464 264.031 72.6328C264.031 71.7318 264.365 71.0417 265.031 70.5625C265.703 70.0781 266.661 69.8359 267.906 69.8359H269.07V69.2812C269.07 68.8438 268.948 68.4948 268.703 68.2344C268.458 67.9688 268.086 67.8359 267.586 67.8359C267.154 67.8359 266.799 67.9453 266.523 68.1641C266.247 68.3776 266.109 68.651 266.109 68.9844H264.211C264.211 68.5208 264.365 68.0885 264.672 67.6875C264.979 67.2812 265.396 66.9635 265.922 66.7344C266.453 66.5052 267.044 66.3906 267.695 66.3906C268.685 66.3906 269.474 66.6406 270.062 67.1406C270.651 67.6354 270.953 68.3333 270.969 69.2344V73.0469C270.969 73.8073 271.076 74.4141 271.289 74.8672V75H269.352ZM267.266 73.6328C267.641 73.6328 267.992 73.5417 268.32 73.3594C268.654 73.1771 268.904 72.9323 269.07 72.625V71.0312H268.047C267.344 71.0312 266.815 71.1536 266.461 71.3984C266.107 71.6432 265.93 71.9896 265.93 72.4375C265.93 72.8021 266.049 73.0938 266.289 73.3125C266.534 73.526 266.859 73.6328 267.266 73.6328ZM276.43 73.6406C276.904 73.6406 277.297 73.5026 277.609 73.2266C277.922 72.9505 278.089 72.6094 278.109 72.2031H279.898C279.878 72.7292 279.714 73.2214 279.406 73.6797C279.099 74.1328 278.682 74.4922 278.156 74.7578C277.63 75.0234 277.062 75.1562 276.453 75.1562C275.271 75.1562 274.333 74.7734 273.641 74.0078C272.948 73.2422 272.602 72.1849 272.602 70.8359V70.6406C272.602 69.3542 272.945 68.3255 273.633 67.5547C274.32 66.7786 275.258 66.3906 276.445 66.3906C277.451 66.3906 278.268 66.6849 278.898 67.2734C279.534 67.8568 279.867 68.625 279.898 69.5781H278.109C278.089 69.0938 277.922 68.6953 277.609 68.3828C277.302 68.0703 276.909 67.9141 276.43 67.9141C275.815 67.9141 275.341 68.138 275.008 68.5859C274.674 69.0286 274.505 69.7031 274.5 70.6094V70.9141C274.5 71.8307 274.664 72.5156 274.992 72.9688C275.326 73.4167 275.805 73.6406 276.43 73.6406ZM283.711 64.4922V66.5469H285.203V67.9531H283.711V72.6719C283.711 72.9948 283.773 73.2292 283.898 73.375C284.029 73.5156 284.258 73.5859 284.586 73.5859C284.805 73.5859 285.026 73.5599 285.25 73.5078V74.9766C284.818 75.0964 284.401 75.1562 284 75.1562C282.542 75.1562 281.812 74.3516 281.812 72.7422V67.9531H280.422V66.5469H281.812V64.4922H283.711ZM298.07 72.3828L299.414 66.5469H301.266L298.961 75H297.398L295.586 69.1953L293.805 75H292.242L289.93 66.5469H291.781L293.148 72.3203L294.883 66.5469H296.312L298.07 72.3828ZM304.555 75H302.656V66.5469H304.555V75ZM302.539 64.3516C302.539 64.0599 302.63 63.8177 302.812 63.625C303 63.4323 303.266 63.3359 303.609 63.3359C303.953 63.3359 304.219 63.4323 304.406 63.625C304.594 63.8177 304.688 64.0599 304.688 64.3516C304.688 64.638 304.594 64.8776 304.406 65.0703C304.219 65.2578 303.953 65.3516 303.609 65.3516C303.266 65.3516 303 65.2578 302.812 65.0703C302.63 64.8776 302.539 64.638 302.539 64.3516ZM309.008 64.4922V66.5469H310.5V67.9531H309.008V72.6719C309.008 72.9948 309.07 73.2292 309.195 73.375C309.326 73.5156 309.555 73.5859 309.883 73.5859C310.102 73.5859 310.323 73.5599 310.547 73.5078V74.9766C310.115 75.0964 309.698 75.1562 309.297 75.1562C307.839 75.1562 307.109 74.3516 307.109 72.7422V67.9531H305.719V66.5469H307.109V64.4922H309.008ZM313.828 67.4688C314.448 66.75 315.232 66.3906 316.18 66.3906C317.982 66.3906 318.896 67.4193 318.922 69.4766V75H317.023V69.5469C317.023 68.9635 316.896 68.5521 316.641 68.3125C316.391 68.0677 316.021 67.9453 315.531 67.9453C314.771 67.9453 314.203 68.2839 313.828 68.9609V75H311.93V63H313.828V67.4688ZM328.555 75.1562C327.352 75.1562 326.375 74.7786 325.625 74.0234C324.88 73.263 324.508 72.2526 324.508 70.9922V70.7578C324.508 69.9141 324.669 69.1615 324.992 68.5C325.32 67.8333 325.779 67.3151 326.367 66.9453C326.956 66.5755 327.612 66.3906 328.336 66.3906C329.487 66.3906 330.375 66.7578 331 67.4922C331.63 68.2266 331.945 69.2656 331.945 70.6094V71.375H326.422C326.479 72.0729 326.711 72.625 327.117 73.0312C327.529 73.4375 328.044 73.6406 328.664 73.6406C329.534 73.6406 330.242 73.2891 330.789 72.5859L331.812 73.5625C331.474 74.0677 331.021 74.4609 330.453 74.7422C329.891 75.0182 329.258 75.1562 328.555 75.1562ZM328.328 67.9141C327.807 67.9141 327.385 68.0964 327.062 68.4609C326.745 68.8255 326.542 69.3333 326.453 69.9844H330.07V69.8438C330.029 69.2083 329.859 68.7292 329.562 68.4062C329.266 68.0781 328.854 67.9141 328.328 67.9141ZM338.477 75C338.393 74.8385 338.32 74.5755 338.258 74.2109C337.654 74.8411 336.914 75.1562 336.039 75.1562C335.19 75.1562 334.497 74.9141 333.961 74.4297C333.424 73.9453 333.156 73.3464 333.156 72.6328C333.156 71.7318 333.49 71.0417 334.156 70.5625C334.828 70.0781 335.786 69.8359 337.031 69.8359H338.195V69.2812C338.195 68.8438 338.073 68.4948 337.828 68.2344C337.583 67.9688 337.211 67.8359 336.711 67.8359C336.279 67.8359 335.924 67.9453 335.648 68.1641C335.372 68.3776 335.234 68.651 335.234 68.9844H333.336C333.336 68.5208 333.49 68.0885 333.797 67.6875C334.104 67.2812 334.521 66.9635 335.047 66.7344C335.578 66.5052 336.169 66.3906 336.82 66.3906C337.81 66.3906 338.599 66.6406 339.188 67.1406C339.776 67.6354 340.078 68.3333 340.094 69.2344V73.0469C340.094 73.8073 340.201 74.4141 340.414 74.8672V75H338.477ZM336.391 73.6328C336.766 73.6328 337.117 73.5417 337.445 73.3594C337.779 73.1771 338.029 72.9323 338.195 72.625V71.0312H337.172C336.469 71.0312 335.94 71.1536 335.586 71.3984C335.232 71.6432 335.055 71.9896 335.055 72.4375C335.055 72.8021 335.174 73.0938 335.414 73.3125C335.659 73.526 335.984 73.6328 336.391 73.6328ZM345.555 73.6406C346.029 73.6406 346.422 73.5026 346.734 73.2266C347.047 72.9505 347.214 72.6094 347.234 72.2031H349.023C349.003 72.7292 348.839 73.2214 348.531 73.6797C348.224 74.1328 347.807 74.4922 347.281 74.7578C346.755 75.0234 346.188 75.1562 345.578 75.1562C344.396 75.1562 343.458 74.7734 342.766 74.0078C342.073 73.2422 341.727 72.1849 341.727 70.8359V70.6406C341.727 69.3542 342.07 68.3255 342.758 67.5547C343.445 66.7786 344.383 66.3906 345.57 66.3906C346.576 66.3906 347.393 66.6849 348.023 67.2734C348.659 67.8568 348.992 68.625 349.023 69.5781H347.234C347.214 69.0938 347.047 68.6953 346.734 68.3828C346.427 68.0703 346.034 67.9141 345.555 67.9141C344.94 67.9141 344.466 68.138 344.133 68.5859C343.799 69.0286 343.63 69.7031 343.625 70.6094V70.9141C343.625 71.8307 343.789 72.5156 344.117 72.9688C344.451 73.4167 344.93 73.6406 345.555 73.6406ZM352.328 67.4688C352.948 66.75 353.732 66.3906 354.68 66.3906C356.482 66.3906 357.396 67.4193 357.422 69.4766V75H355.523V69.5469C355.523 68.9635 355.396 68.5521 355.141 68.3125C354.891 68.0677 354.521 67.9453 354.031 67.9453C353.271 67.9453 352.703 68.2839 352.328 68.9609V75H350.43V63H352.328V67.4688ZM362.977 70.6953C362.977 69.8672 363.141 69.1224 363.469 68.4609C363.797 67.7943 364.258 67.2839 364.852 66.9297C365.445 66.5703 366.128 66.3906 366.898 66.3906C368.039 66.3906 368.964 66.7578 369.672 67.4922C370.385 68.2266 370.771 69.2005 370.828 70.4141L370.836 70.8594C370.836 71.6927 370.674 72.4375 370.352 73.0938C370.034 73.75 369.576 74.2578 368.977 74.6172C368.383 74.9766 367.695 75.1562 366.914 75.1562C365.721 75.1562 364.766 74.7604 364.047 73.9688C363.333 73.1719 362.977 72.112 362.977 70.7891V70.6953ZM364.875 70.8594C364.875 71.7292 365.055 72.4115 365.414 72.9062C365.773 73.3958 366.273 73.6406 366.914 73.6406C367.555 73.6406 368.052 73.3906 368.406 72.8906C368.766 72.3906 368.945 71.6589 368.945 70.6953C368.945 69.8411 368.76 69.1641 368.391 68.6641C368.026 68.1641 367.529 67.9141 366.898 67.9141C366.279 67.9141 365.786 68.1615 365.422 68.6562C365.057 69.1458 364.875 69.8802 364.875 70.8594ZM374.82 64.4922V66.5469H376.312V67.9531H374.82V72.6719C374.82 72.9948 374.883 73.2292 375.008 73.375C375.138 73.5156 375.367 73.5859 375.695 73.5859C375.914 73.5859 376.135 73.5599 376.359 73.5078V74.9766C375.927 75.0964 375.51 75.1562 375.109 75.1562C373.651 75.1562 372.922 74.3516 372.922 72.7422V67.9531H371.531V66.5469H372.922V64.4922H374.82ZM379.641 67.4688C380.26 66.75 381.044 66.3906 381.992 66.3906C383.794 66.3906 384.708 67.4193 384.734 69.4766V75H382.836V69.5469C382.836 68.9635 382.708 68.5521 382.453 68.3125C382.203 68.0677 381.833 67.9453 381.344 67.9453C380.583 67.9453 380.016 68.2839 379.641 68.9609V75H377.742V63H379.641V67.4688ZM390.383 75.1562C389.18 75.1562 388.203 74.7786 387.453 74.0234C386.708 73.263 386.336 72.2526 386.336 70.9922V70.7578C386.336 69.9141 386.497 69.1615 386.82 68.5C387.148 67.8333 387.607 67.3151 388.195 66.9453C388.784 66.5755 389.44 66.3906 390.164 66.3906C391.315 66.3906 392.203 66.7578 392.828 67.4922C393.458 68.2266 393.773 69.2656 393.773 70.6094V71.375H388.25C388.307 72.0729 388.539 72.625 388.945 73.0312C389.357 73.4375 389.872 73.6406 390.492 73.6406C391.362 73.6406 392.07 73.2891 392.617 72.5859L393.641 73.5625C393.302 74.0677 392.849 74.4609 392.281 74.7422C391.719 75.0182 391.086 75.1562 390.383 75.1562ZM390.156 67.9141C389.635 67.9141 389.214 68.0964 388.891 68.4609C388.573 68.8255 388.37 69.3333 388.281 69.9844H391.898V69.8438C391.857 69.2083 391.688 68.7292 391.391 68.4062C391.094 68.0781 390.682 67.9141 390.156 67.9141ZM399.68 68.2812C399.43 68.2396 399.172 68.2188 398.906 68.2188C398.036 68.2188 397.451 68.5521 397.148 69.2188V75H395.25V66.5469H397.062L397.109 67.4922C397.568 66.7578 398.203 66.3906 399.016 66.3906C399.286 66.3906 399.51 66.4271 399.688 66.5L399.68 68.2812Z" fill="#5452F6"/>
<path d="M103.25 74.5H102.5C102.102 74.5 101.721 74.342 101.439 74.0607C101.158 73.7794 101 73.3978 101 73V69.25C101 69.0511 100.921 68.8603 100.78 68.7197C100.64 68.579 100.449 68.5 100.25 68.5H99.5" stroke="#5452F6" stroke-width="1.5" stroke-linecap="round" stroke-linejoin="round"/>
<path d="M100.625 64.75C100.551 64.75 100.478 64.772 100.417 64.8132C100.355 64.8544 100.307 64.913 100.279 64.9815C100.25 65.05 100.243 65.1254 100.257 65.1982C100.272 65.2709 100.307 65.3377 100.36 65.3902C100.412 65.4426 100.479 65.4783 100.552 65.4928C100.625 65.5073 100.7 65.4998 100.769 65.4715C100.837 65.4431 100.896 65.395 100.937 65.3333C100.978 65.2717 101 65.1992 101 65.125C101 65.0255 100.96 64.9302 100.89 64.8598C100.82 64.7895 100.724 64.75 100.625 64.75Z" stroke="#5452F6" stroke-width="1.5" stroke-linecap="round" stroke-linejoin="round"/>
<path d="M101 81.25C107.213 81.25 112.25 76.2132 112.25 70C112.25 63.7868 107.213 58.75 101 58.75C94.7868 58.75 89.75 63.7868 89.75 70C89.75 76.2132 94.7868 81.25 101 81.25Z" stroke="#5452F6" stroke-width="1.5" stroke-linecap="round" stroke-linejoin="round"/>
<path d="M8 0.5H478C482.142 0.5 485.5 3.85786 485.5 8V23.5H0.5V8C0.5 3.85786 3.85786 0.5 8 0.5Z" fill="#EEEEFF"/>
<circle cx="12" cy="12" r="4" fill="#5452F6"/>
<circle cx="26" cy="12" r="4" fill="#5452F6"/>
<circle cx="40" cy="12" r="4" fill="#5452F6"/>
<path d="M169.907 12.687H165.901V16.9048H164.172V6.95166H170.495V8.34619H165.901V11.3062H169.907V12.687ZM176.128 14.5874H172.272L171.466 16.9048H169.668L173.428 6.95166H174.979L178.746 16.9048H176.941L176.128 14.5874ZM172.758 13.1929H175.643L174.2 9.06396L172.758 13.1929ZM186.245 15.7153C186.66 15.7153 187.004 15.5946 187.277 15.353C187.551 15.1115 187.697 14.813 187.715 14.4575H189.28C189.262 14.9178 189.118 15.3485 188.85 15.7495C188.581 16.146 188.216 16.4604 187.756 16.6929C187.296 16.9253 186.799 17.0415 186.266 17.0415C185.231 17.0415 184.411 16.7065 183.805 16.0366C183.199 15.3667 182.896 14.4416 182.896 13.2612V13.0903C182.896 11.9647 183.196 11.0646 183.798 10.3901C184.399 9.7111 185.22 9.37158 186.259 9.37158C187.138 9.37158 187.854 9.62907 188.405 10.144C188.961 10.6545 189.253 11.3267 189.28 12.1606H187.715C187.697 11.7368 187.551 11.3882 187.277 11.1147C187.008 10.8413 186.664 10.7046 186.245 10.7046C185.707 10.7046 185.293 10.9006 185.001 11.2925C184.709 11.6799 184.561 12.27 184.557 13.063V13.3296C184.557 14.1317 184.7 14.731 184.987 15.1274C185.279 15.5194 185.698 15.7153 186.245 15.7153ZM190.224 13.1382C190.224 12.4136 190.367 11.7619 190.654 11.1831C190.941 10.5998 191.345 10.1532 191.864 9.84326C192.384 9.52881 192.981 9.37158 193.655 9.37158C194.653 9.37158 195.462 9.69287 196.082 10.3354C196.706 10.978 197.044 11.8302 197.094 12.8921L197.101 13.2817C197.101 14.0109 196.959 14.6626 196.677 15.2368C196.399 15.811 195.998 16.2554 195.474 16.5698C194.954 16.8843 194.353 17.0415 193.669 17.0415C192.625 17.0415 191.789 16.6951 191.16 16.0024C190.536 15.3052 190.224 14.3778 190.224 13.2202V13.1382ZM191.885 13.2817C191.885 14.0428 192.042 14.6398 192.356 15.0728C192.671 15.5011 193.108 15.7153 193.669 15.7153C194.229 15.7153 194.665 15.4966 194.975 15.0591C195.289 14.6216 195.446 13.9813 195.446 13.1382C195.446 12.3908 195.285 11.7983 194.961 11.3608C194.642 10.9233 194.207 10.7046 193.655 10.7046C193.113 10.7046 192.682 10.9211 192.363 11.354C192.044 11.7824 191.885 12.425 191.885 13.2817ZM200.067 9.5083L200.115 10.2808C200.635 9.67464 201.346 9.37158 202.248 9.37158C203.237 9.37158 203.914 9.74984 204.278 10.5063C204.816 9.74984 205.573 9.37158 206.548 9.37158C207.364 9.37158 207.97 9.59717 208.366 10.0483C208.767 10.4995 208.972 11.1649 208.981 12.0444V16.9048H207.32V12.0923C207.32 11.6229 207.218 11.2788 207.013 11.0601C206.808 10.8413 206.468 10.7319 205.994 10.7319C205.616 10.7319 205.306 10.8345 205.064 11.0396C204.827 11.2401 204.661 11.5044 204.565 11.8325L204.572 16.9048H202.911V12.0376C202.888 11.1672 202.444 10.7319 201.578 10.7319C200.913 10.7319 200.441 11.0031 200.163 11.5454V16.9048H198.502V9.5083H200.067ZM217.164 13.2817C217.164 14.4256 216.904 15.3394 216.385 16.0229C215.865 16.702 215.168 17.0415 214.293 17.0415C213.482 17.0415 212.832 16.7749 212.345 16.2417V19.7485H210.684V9.5083H212.215L212.283 10.2603C212.771 9.66781 213.434 9.37158 214.272 9.37158C215.175 9.37158 215.881 9.70882 216.392 10.3833C216.907 11.0532 217.164 11.9852 217.164 13.1792V13.2817ZM215.51 13.1382C215.51 12.3999 215.362 11.8143 215.065 11.3813C214.774 10.9484 214.354 10.7319 213.808 10.7319C213.129 10.7319 212.641 11.0122 212.345 11.5728V14.854C212.646 15.4282 213.138 15.7153 213.821 15.7153C214.35 15.7153 214.762 15.5034 215.059 15.0796C215.359 14.6512 215.51 14.0041 215.51 13.1382ZM220.343 16.9048H218.682V6.40479H220.343V16.9048ZM223.925 16.9048H222.264V9.5083H223.925V16.9048ZM222.161 7.5874C222.161 7.33219 222.241 7.12028 222.4 6.95166C222.564 6.78304 222.797 6.69873 223.098 6.69873C223.398 6.69873 223.631 6.78304 223.795 6.95166C223.959 7.12028 224.041 7.33219 224.041 7.5874C224.041 7.83805 223.959 8.04769 223.795 8.21631C223.631 8.38037 223.398 8.4624 223.098 8.4624C222.797 8.4624 222.564 8.38037 222.4 8.21631C222.241 8.04769 222.161 7.83805 222.161 7.5874ZM230.159 16.9048C230.086 16.7635 230.022 16.5334 229.968 16.2144C229.439 16.7658 228.792 17.0415 228.026 17.0415C227.284 17.0415 226.677 16.8296 226.208 16.4058C225.739 15.9819 225.504 15.4578 225.504 14.8335C225.504 14.0451 225.796 13.4412 226.379 13.022C226.967 12.5981 227.805 12.3862 228.895 12.3862H229.913V11.9009C229.913 11.5181 229.806 11.2127 229.592 10.9849C229.378 10.7524 229.052 10.6362 228.614 10.6362C228.236 10.6362 227.926 10.7319 227.685 10.9233C227.443 11.1102 227.322 11.3494 227.322 11.6411H225.661C225.661 11.2355 225.796 10.8573 226.064 10.5063C226.333 10.1509 226.698 9.87288 227.158 9.67236C227.623 9.47184 228.14 9.37158 228.71 9.37158C229.576 9.37158 230.266 9.59033 230.781 10.0278C231.296 10.4608 231.561 11.0715 231.574 11.8599V15.1958C231.574 15.8612 231.668 16.3921 231.854 16.7886V16.9048H230.159ZM228.334 15.7085C228.662 15.7085 228.97 15.6287 229.257 15.4692C229.549 15.3097 229.767 15.0955 229.913 14.8267V13.4321H229.018C228.402 13.4321 227.94 13.5392 227.63 13.7534C227.32 13.9676 227.165 14.2707 227.165 14.6626C227.165 14.9816 227.27 15.2368 227.479 15.4282C227.694 15.6151 227.979 15.7085 228.334 15.7085ZM234.855 9.5083L234.903 10.3628C235.45 9.70199 236.168 9.37158 237.057 9.37158C238.597 9.37158 239.381 10.2534 239.408 12.0171V16.9048H237.747V12.1128C237.747 11.6434 237.645 11.297 237.439 11.0737C237.239 10.8459 236.909 10.7319 236.448 10.7319C235.778 10.7319 235.279 11.035 234.951 11.6411V16.9048H233.29V9.5083H234.855ZM243.188 7.71045V9.5083H244.494V10.7388H243.188V14.8677C243.188 15.1502 243.243 15.3553 243.353 15.4829C243.466 15.606 243.667 15.6675 243.954 15.6675C244.146 15.6675 244.339 15.6447 244.535 15.5991V16.8843C244.157 16.9891 243.792 17.0415 243.441 17.0415C242.165 17.0415 241.527 16.3374 241.527 14.9292V10.7388H240.311V9.5083H241.527V7.71045H243.188ZM253.401 14.895C253.401 14.5988 253.278 14.3732 253.032 14.2183C252.791 14.0633 252.387 13.9266 251.822 13.8081C251.257 13.6896 250.785 13.5392 250.407 13.3569C249.578 12.9559 249.163 12.3748 249.163 11.6138C249.163 10.9757 249.432 10.4425 249.97 10.0142C250.507 9.58577 251.191 9.37158 252.021 9.37158C252.905 9.37158 253.618 9.59033 254.16 10.0278C254.707 10.4653 254.98 11.0327 254.98 11.73H253.319C253.319 11.411 253.201 11.1466 252.964 10.937C252.727 10.7228 252.412 10.6157 252.021 10.6157C251.656 10.6157 251.357 10.7 251.125 10.8687C250.897 11.0373 250.783 11.2629 250.783 11.5454C250.783 11.8006 250.89 11.9989 251.104 12.1401C251.319 12.2814 251.752 12.425 252.403 12.5708C253.055 12.7121 253.565 12.883 253.935 13.0835C254.308 13.2795 254.584 13.5164 254.762 13.7944C254.944 14.0724 255.035 14.4097 255.035 14.8062C255.035 15.4715 254.759 16.0116 254.208 16.4263C253.657 16.8364 252.934 17.0415 252.041 17.0415C251.435 17.0415 250.895 16.9321 250.421 16.7134C249.947 16.4946 249.578 16.1938 249.313 15.811C249.049 15.4282 248.917 15.0158 248.917 14.5737H250.53C250.553 14.9657 250.701 15.2687 250.975 15.4829C251.248 15.6925 251.61 15.7974 252.062 15.7974C252.499 15.7974 252.832 15.7153 253.06 15.5513C253.287 15.3826 253.401 15.1639 253.401 14.895ZM258.05 9.5083L258.098 10.2808C258.617 9.67464 259.328 9.37158 260.23 9.37158C261.219 9.37158 261.896 9.74984 262.261 10.5063C262.799 9.74984 263.555 9.37158 264.53 9.37158C265.346 9.37158 265.952 9.59717 266.349 10.0483C266.75 10.4995 266.955 11.1649 266.964 12.0444V16.9048H265.303V12.0923C265.303 11.6229 265.2 11.2788 264.995 11.0601C264.79 10.8413 264.451 10.7319 263.977 10.7319C263.598 10.7319 263.288 10.8345 263.047 11.0396C262.81 11.2401 262.644 11.5044 262.548 11.8325L262.555 16.9048H260.894V12.0376C260.871 11.1672 260.426 10.7319 259.561 10.7319C258.895 10.7319 258.424 11.0031 258.146 11.5454V16.9048H256.484V9.5083H258.05ZM273.089 16.9048C273.016 16.7635 272.952 16.5334 272.897 16.2144C272.369 16.7658 271.722 17.0415 270.956 17.0415C270.213 17.0415 269.607 16.8296 269.138 16.4058C268.668 15.9819 268.434 15.4578 268.434 14.8335C268.434 14.0451 268.725 13.4412 269.309 13.022C269.896 12.5981 270.735 12.3862 271.824 12.3862H272.843V11.9009C272.843 11.5181 272.736 11.2127 272.521 10.9849C272.307 10.7524 271.981 10.6362 271.544 10.6362C271.166 10.6362 270.856 10.7319 270.614 10.9233C270.373 11.1102 270.252 11.3494 270.252 11.6411H268.591C268.591 11.2355 268.725 10.8573 268.994 10.5063C269.263 10.1509 269.628 9.87288 270.088 9.67236C270.553 9.47184 271.07 9.37158 271.64 9.37158C272.506 9.37158 273.196 9.59033 273.711 10.0278C274.226 10.4608 274.49 11.0715 274.504 11.8599V15.1958C274.504 15.8612 274.597 16.3921 274.784 16.7886V16.9048H273.089ZM271.264 15.7085C271.592 15.7085 271.899 15.6287 272.187 15.4692C272.478 15.3097 272.697 15.0955 272.843 14.8267V13.4321H271.947C271.332 13.4321 270.869 13.5392 270.56 13.7534C270.25 13.9676 270.095 14.2707 270.095 14.6626C270.095 14.9816 270.2 15.2368 270.409 15.4282C270.623 15.6151 270.908 15.7085 271.264 15.7085ZM280.116 11.0259C279.897 10.9894 279.672 10.9712 279.439 10.9712C278.678 10.9712 278.166 11.2629 277.901 11.8462V16.9048H276.24V9.5083H277.826L277.867 10.3354C278.268 9.69287 278.824 9.37158 279.535 9.37158C279.772 9.37158 279.968 9.40348 280.123 9.46729L280.116 11.0259ZM283.589 7.71045V9.5083H284.895V10.7388H283.589V14.8677C283.589 15.1502 283.644 15.3553 283.753 15.4829C283.867 15.606 284.067 15.6675 284.354 15.6675C284.546 15.6675 284.74 15.6447 284.936 15.5991V16.8843C284.557 16.9891 284.193 17.0415 283.842 17.0415C282.566 17.0415 281.928 16.3374 281.928 14.9292V10.7388H280.711V9.5083H281.928V7.71045H283.589ZM292.694 15.7153C293.109 15.7153 293.453 15.5946 293.727 15.353C294 15.1115 294.146 14.813 294.164 14.4575H295.729C295.711 14.9178 295.568 15.3485 295.299 15.7495C295.03 16.146 294.665 16.4604 294.205 16.6929C293.745 16.9253 293.248 17.0415 292.715 17.0415C291.68 17.0415 290.86 16.7065 290.254 16.0366C289.648 15.3667 289.345 14.4416 289.345 13.2612V13.0903C289.345 11.9647 289.646 11.0646 290.247 10.3901C290.849 9.7111 291.669 9.37158 292.708 9.37158C293.588 9.37158 294.303 9.62907 294.854 10.144C295.41 10.6545 295.702 11.3267 295.729 12.1606H294.164C294.146 11.7368 294 11.3882 293.727 11.1147C293.458 10.8413 293.114 10.7046 292.694 10.7046C292.157 10.7046 291.742 10.9006 291.45 11.2925C291.159 11.6799 291.01 12.27 291.006 13.063V13.3296C291.006 14.1317 291.149 14.731 291.437 15.1274C291.728 15.5194 292.147 15.7153 292.694 15.7153ZM296.673 13.1382C296.673 12.4136 296.816 11.7619 297.104 11.1831C297.391 10.5998 297.794 10.1532 298.313 9.84326C298.833 9.52881 299.43 9.37158 300.104 9.37158C301.103 9.37158 301.911 9.69287 302.531 10.3354C303.156 10.978 303.493 11.8302 303.543 12.8921L303.55 13.2817C303.55 14.0109 303.409 14.6626 303.126 15.2368C302.848 15.811 302.447 16.2554 301.923 16.5698C301.403 16.8843 300.802 17.0415 300.118 17.0415C299.075 17.0415 298.238 16.6951 297.609 16.0024C296.985 15.3052 296.673 14.3778 296.673 13.2202V13.1382ZM298.334 13.2817C298.334 14.0428 298.491 14.6398 298.806 15.0728C299.12 15.5011 299.558 15.7153 300.118 15.7153C300.679 15.7153 301.114 15.4966 301.424 15.0591C301.738 14.6216 301.896 13.9813 301.896 13.1382C301.896 12.3908 301.734 11.7983 301.41 11.3608C301.091 10.9233 300.656 10.7046 300.104 10.7046C299.562 10.7046 299.132 10.9211 298.812 11.354C298.493 11.7824 298.334 12.425 298.334 13.2817ZM306.496 9.5083L306.544 10.3628C307.091 9.70199 307.809 9.37158 308.697 9.37158C310.238 9.37158 311.021 10.2534 311.049 12.0171V16.9048H309.388V12.1128C309.388 11.6434 309.285 11.297 309.08 11.0737C308.88 10.8459 308.549 10.7319 308.089 10.7319C307.419 10.7319 306.92 11.035 306.592 11.6411V16.9048H304.931V9.5083H306.496ZM314.829 7.71045V9.5083H316.135V10.7388H314.829V14.8677C314.829 15.1502 314.884 15.3553 314.993 15.4829C315.107 15.606 315.308 15.6675 315.595 15.6675C315.786 15.6675 315.98 15.6447 316.176 15.5991V16.8843C315.798 16.9891 315.433 17.0415 315.082 17.0415C313.806 17.0415 313.168 16.3374 313.168 14.9292V10.7388H311.951V9.5083H313.168V7.71045H314.829ZM321.282 11.0259C321.063 10.9894 320.838 10.9712 320.605 10.9712C319.844 10.9712 319.332 11.2629 319.067 11.8462V16.9048H317.406V9.5083H318.992L319.033 10.3354C319.434 9.69287 319.99 9.37158 320.701 9.37158C320.938 9.37158 321.134 9.40348 321.289 9.46729L321.282 11.0259ZM326.546 16.9048C326.473 16.7635 326.409 16.5334 326.354 16.2144C325.826 16.7658 325.179 17.0415 324.413 17.0415C323.67 17.0415 323.064 16.8296 322.595 16.4058C322.125 15.9819 321.891 15.4578 321.891 14.8335C321.891 14.0451 322.182 13.4412 322.766 13.022C323.354 12.5981 324.192 12.3862 325.281 12.3862H326.3V11.9009C326.3 11.5181 326.193 11.2127 325.979 10.9849C325.764 10.7524 325.438 10.6362 325.001 10.6362C324.623 10.6362 324.313 10.7319 324.071 10.9233C323.83 11.1102 323.709 11.3494 323.709 11.6411H322.048C322.048 11.2355 322.182 10.8573 322.451 10.5063C322.72 10.1509 323.085 9.87288 323.545 9.67236C324.01 9.47184 324.527 9.37158 325.097 9.37158C325.963 9.37158 326.653 9.59033 327.168 10.0278C327.683 10.4608 327.947 11.0715 327.961 11.8599V15.1958C327.961 15.8612 328.054 16.3921 328.241 16.7886V16.9048H326.546ZM324.721 15.7085C325.049 15.7085 325.356 15.6287 325.644 15.4692C325.935 15.3097 326.154 15.0955 326.3 14.8267V13.4321H325.404C324.789 13.4321 324.326 13.5392 324.017 13.7534C323.707 13.9676 323.552 14.2707 323.552 14.6626C323.552 14.9816 323.657 15.2368 323.866 15.4282C324.08 15.6151 324.365 15.7085 324.721 15.7085ZM332.739 15.7153C333.154 15.7153 333.498 15.5946 333.771 15.353C334.045 15.1115 334.191 14.813 334.209 14.4575H335.774C335.756 14.9178 335.613 15.3485 335.344 15.7495C335.075 16.146 334.71 16.4604 334.25 16.6929C333.79 16.9253 333.293 17.0415 332.76 17.0415C331.725 17.0415 330.905 16.7065 330.299 16.0366C329.693 15.3667 329.39 14.4416 329.39 13.2612V13.0903C329.39 11.9647 329.69 11.0646 330.292 10.3901C330.894 9.7111 331.714 9.37158 332.753 9.37158C333.632 9.37158 334.348 9.62907 334.899 10.144C335.455 10.6545 335.747 11.3267 335.774 12.1606H334.209C334.191 11.7368 334.045 11.3882 333.771 11.1147C333.503 10.8413 333.159 10.7046 332.739 10.7046C332.201 10.7046 331.787 10.9006 331.495 11.2925C331.203 11.6799 331.055 12.27 331.051 13.063V13.3296C331.051 14.1317 331.194 14.731 331.481 15.1274C331.773 15.5194 332.192 15.7153 332.739 15.7153ZM339.11 7.71045V9.5083H340.416V10.7388H339.11V14.8677C339.11 15.1502 339.165 15.3553 339.274 15.4829C339.388 15.606 339.589 15.6675 339.876 15.6675C340.067 15.6675 340.261 15.6447 340.457 15.5991V16.8843C340.079 16.9891 339.714 17.0415 339.363 17.0415C338.087 17.0415 337.449 16.3374 337.449 14.9292V10.7388H336.232V9.5083H337.449V7.71045H339.11Z" fill="#5452F6"/>
<path d="M8 0.5H478C482.142 0.5 485.5 3.85786 485.5 8V23.5H0.5V8C0.5 3.85786 3.85786 0.5 8 0.5Z" stroke="#5452F6"/>
<path d="M87 173.5C99.4264 173.5 109.5 163.426 109.5 151C109.5 138.574 99.4264 128.5 87 128.5C74.5736 128.5 64.5 138.574 64.5 151C64.5 163.426 74.5736 173.5 87 173.5Z" stroke="#FF5A43" stroke-width="1.5" stroke-linecap="round" stroke-linejoin="round"/>
<path d="M74.5 146.5H77C77.663 146.5 78.2989 146.763 78.7678 147.232C79.2366 147.701 79.5 148.337 79.5 149V156C79.5 156.265 79.3946 156.52 79.2071 156.707C79.0196 156.895 78.7652 157 78.5 157H73C72.7348 157 72.4804 156.895 72.2929 156.707C72.1054 156.52 72 156.265 72 156V149C72 148.337 72.2634 147.701 72.7322 147.232C73.2011 146.763 73.837 146.5 74.5 146.5Z" stroke="#FF5A43" stroke-width="1.5" stroke-linecap="round" stroke-linejoin="round"/>
<path d="M86.5 146.5H89C89.663 146.5 90.2989 146.763 90.7678 147.232C91.2366 147.701 91.5 148.337 91.5 149V156C91.5 156.265 91.3946 156.52 91.2071 156.707C91.0196 156.895 90.7652 157 90.5 157H85C84.7348 157 84.4804 156.895 84.2929 156.707C84.1054 156.52 84 156.265 84 156V149C84 148.337 84.2634 147.701 84.7322 147.232C85.2011 146.763 85.837 146.5 86.5 146.5Z" stroke="#FF5A43" stroke-width="1.5" stroke-linecap="round" stroke-linejoin="round"/>
<path d="M98.5 146.5H101C101.663 146.5 102.299 146.763 102.768 147.232C103.237 147.701 103.5 148.337 103.5 149V156C103.5 156.265 103.395 156.52 103.207 156.707C103.02 156.895 102.765 157 102.5 157H97C96.7348 157 96.4804 156.895 96.2929 156.707C96.1054 156.52 96 156.265 96 156V149C96 148.337 96.2634 147.701 96.7322 147.232C97.2011 146.763 97.837 146.5 98.5 146.5Z" stroke="#FF5A43" stroke-width="1.5" stroke-linecap="round" stroke-linejoin="round"/>
<path d="M252 174.5C264.426 174.5 274.5 164.426 274.5 152C274.5 139.574 264.426 129.5 252 129.5C239.574 129.5 229.5 139.574 229.5 152C229.5 164.426 239.574 174.5 252 174.5Z" stroke="#DE1306" stroke-width="1.5" stroke-linecap="round" stroke-linejoin="round"/>
<path d="M238.703 162.5L246.885 143" stroke="#DE1306" stroke-width="1.5" stroke-linecap="round" stroke-linejoin="round"/>
<path d="M257.113 162.5L265.295 143" stroke="#DE1306" stroke-width="1.5" stroke-linecap="round" stroke-linejoin="round"/>
<path d="M246.887 143L259.529 156.744" stroke="#DE1306" stroke-width="1.5" stroke-linecap="round" stroke-linejoin="round"/>
<path d="M244.473 148.756L257.115 162.5" stroke="#DE1306" stroke-width="1.5" stroke-linecap="round" stroke-linejoin="round"/>
<path d="M416 174.5C428.426 174.5 438.5 164.426 438.5 152C438.5 139.574 428.426 129.5 416 129.5C403.574 129.5 393.5 139.574 393.5 152C393.5 164.426 403.574 174.5 416 174.5Z" stroke="#2097F6" stroke-width="1.5" stroke-linecap="round" stroke-linejoin="round"/>
<path d="M401.682 146H412.3C412.488 145.999 412.673 146.05 412.834 146.147C412.996 146.245 413.127 146.385 413.214 146.552L419.068 158H430.318" stroke="#2097F6" stroke-width="1.5" stroke-linecap="round" stroke-linejoin="round"/>
<path d="M420.09 146H430.708C430.897 145.999 431.083 146.051 431.245 146.15C431.407 146.249 431.538 146.391 431.624 146.56L437.586 158.36" stroke="#2097F6" stroke-width="1.5" stroke-linecap="round" stroke-linejoin="round"/>
<path d="M394.422 145.6L400.376 157.44C400.462 157.609 400.593 157.751 400.755 157.85C400.916 157.949 401.102 158.001 401.292 158H411.91" stroke="#2097F6" stroke-width="1.5" stroke-linecap="round" stroke-linejoin="round"/>
<line x1="131" y1="150.5" x2="218" y2="150.5" stroke="#5452F6" stroke-width="2"/>
<path d="M208 141L218.5 150.5L208 159.5" stroke="#5452F6" stroke-width="2" stroke-linecap="round" stroke-linejoin="round"/>
<circle cx="126.5" cy="151" r="5.5" stroke="#5452F6" stroke-width="2"/>
<path d="M79 287.5C91.4264 287.5 101.5 277.426 101.5 265C101.5 252.574 91.4264 242.5 79 242.5C66.5736 242.5 56.5 252.574 56.5 265C56.5 277.426 66.5736 287.5 79 287.5Z" stroke="#65BF73" stroke-width="1.5" stroke-linecap="round" stroke-linejoin="round"/>
<path d="M111 265C111 262.734 110.279 260.527 108.94 258.699C107.602 256.87 105.715 255.516 103.555 254.831C104.601 252.82 104.979 250.527 104.634 248.286C104.288 246.045 103.237 243.973 101.634 242.369C100.031 240.766 97.9581 239.715 95.717 239.37C93.4759 239.025 91.1831 239.402 89.1713 240.448C88.4876 238.288 87.1333 236.401 85.3048 235.061C83.4763 233.722 81.2686 233 79.002 233C76.7354 233 74.5278 233.722 72.6992 235.061C70.8707 236.401 69.5164 238.288 68.8328 240.448C66.821 239.402 64.5281 239.025 62.2871 239.37C60.046 239.715 57.9733 240.766 56.37 242.369C54.7666 243.973 53.7159 246.045 53.3705 248.286C53.025 250.527 53.4028 252.82 54.4489 254.831C52.2879 255.515 50.4008 256.869 49.0614 258.698C47.7221 260.526 47 262.734 47 265C47 267.266 47.7221 269.474 49.0614 271.302C50.4008 273.131 52.2879 274.485 54.4489 275.169C53.4028 277.18 53.025 279.473 53.3705 281.714C53.7159 283.955 54.7666 286.027 56.37 287.631C57.9733 289.234 60.046 290.285 62.2871 290.63C64.5281 290.975 66.821 290.598 68.8328 289.552C69.5164 291.712 70.8707 293.599 72.6992 294.939C74.5278 296.278 76.7354 297 79.002 297C81.2686 297 83.4763 296.278 85.3048 294.939C87.1333 293.599 88.4876 291.712 89.1713 289.552C91.1831 290.598 93.4759 290.975 95.717 290.63C97.9581 290.285 100.031 289.234 101.634 287.631C103.237 286.027 104.288 283.955 104.634 281.714C104.979 279.473 104.601 277.18 103.555 275.169C105.715 274.484 107.602 273.13 108.94 271.301C110.279 269.473 111 267.266 111 265Z" stroke="#65BF73" stroke-width="1.5" stroke-linecap="round" stroke-linejoin="round"/>
<path d="M75.7644 249C75.7644 248.586 75.4286 248.25 75.0144 248.25C74.6002 248.25 74.2644 248.586 74.2644 249H75.7644ZM82.2543 267.459C82.4841 267.115 82.391 266.649 82.0463 266.419C81.7017 266.189 81.236 266.283 81.0063 266.627L82.2543 267.459ZM69 254.866C68.5858 254.866 68.25 255.202 68.25 255.616C68.25 256.03 68.5858 256.366 69 256.366V254.866ZM87.6447 255.616L88.2092 256.11C88.403 255.888 88.4493 255.574 88.3277 255.306C88.2061 255.038 87.939 254.866 87.6447 254.866V255.616ZM79.2245 265.239L78.6601 264.745C78.4295 265.009 78.412 265.397 78.6178 265.68C78.8237 265.963 79.1981 266.066 79.52 265.928L79.2245 265.239ZM80.4274 276.666L80.7628 275.996L80.7628 275.996L80.4274 276.666ZM78.7332 272.693C78.8641 272.3 78.6518 271.876 78.2588 271.745C77.8659 271.614 77.4411 271.826 77.3101 272.219L78.7332 272.693ZM74.2644 249V255.616H75.7644V249H74.2644ZM74.2644 255.616V267.645H75.7644V255.616H74.2644ZM74.2644 267.645C74.2644 268.355 74.626 269.001 75.1318 269.471C75.6442 269.946 76.3469 270.286 77.1446 270.388C78.7863 270.598 80.6935 269.801 82.2543 267.459L81.0063 266.627C79.6802 268.616 78.2795 269.021 77.3349 268.901C76.8396 268.837 76.4295 268.629 76.1525 268.371C75.8689 268.108 75.7644 267.836 75.7644 267.645H74.2644ZM69 256.366H75.0144V254.866H69V256.366ZM75.0144 256.366H87.6447V254.866H75.0144V256.366ZM87.0803 255.122L78.6601 264.745L79.789 265.733L88.2092 256.11L87.0803 255.122ZM79.52 265.928C81.5135 265.074 83.3634 264.996 84.6654 265.678C85.9157 266.333 86.8947 267.818 86.8947 270.652H88.3947C88.3947 267.471 87.2687 265.348 85.3614 264.349C83.5059 263.377 81.1457 263.6 78.9291 264.55L79.52 265.928ZM86.8947 270.652C86.8947 272.353 86.5406 273.525 86.047 274.329C85.5568 275.127 84.8997 275.612 84.2032 275.897C83.4973 276.186 82.744 276.271 82.0914 276.246C81.4204 276.22 80.9349 276.082 80.7628 275.996L80.092 277.337C80.5213 277.552 81.2387 277.714 82.0338 277.745C82.8472 277.776 83.823 277.673 84.7711 277.285C85.7286 276.894 86.6502 276.213 87.3254 275.113C87.997 274.019 88.3947 272.559 88.3947 270.652H86.8947ZM80.7628 275.996C80.27 275.749 79.6152 275.229 79.1623 274.582C78.7092 273.935 78.5366 273.283 78.7332 272.693L77.3101 272.219C76.9053 273.434 77.3341 274.586 77.9335 275.443C78.5332 276.299 79.382 276.982 80.092 277.337L80.7628 275.996Z" fill="#65BF73"/>
<path d="M253 276.5C265.426 276.5 275.5 266.426 275.5 254C275.5 241.574 265.426 231.5 253 231.5C240.574 231.5 230.5 241.574 230.5 254C230.5 266.426 240.574 276.5 253 276.5Z" stroke="#FFEA31" stroke-width="1.5" stroke-linecap="round" stroke-linejoin="round"/>
<path d="M245 275L261.798 233.5" stroke="#FFEA31" stroke-width="1.5" stroke-linecap="round" stroke-linejoin="round"/>
<path d="M417 276.5C429.426 276.5 439.5 266.426 439.5 254C439.5 241.574 429.426 231.5 417 231.5C404.574 231.5 394.5 241.574 394.5 254C394.5 266.426 404.574 276.5 417 276.5Z" stroke="#5452F6" stroke-width="1.5" stroke-linecap="round" stroke-linejoin="round"/>
<path d="M397 245H412.141C412.409 244.998 412.673 245.073 412.903 245.215C413.133 245.357 413.32 245.561 413.444 245.805L421.791 262.5H437.833" stroke="#5452F6" stroke-width="1.5" stroke-linecap="round" stroke-linejoin="round"/>
<line x1="215.025" y1="230.067" x2="113.7" y2="171.567" stroke="#5452F6" stroke-width="2"/>
<path d="M117.61 184.794L113.267 171.317L126.86 168.773" stroke="#5452F6" stroke-width="2" stroke-linecap="round" stroke-linejoin="round"/>
<circle cx="219.172" cy="231.884" r="5.5" transform="rotate(-150 219.172 231.884)" stroke="#5452F6" stroke-width="2"/>
<line x1="297" y1="252.5" x2="384" y2="252.5" stroke="#5452F6" stroke-width="2"/>
<path d="M374 243L384.5 252.5L374 261.5" stroke="#5452F6" stroke-width="2" stroke-linecap="round" stroke-linejoin="round"/>
<circle cx="292.5" cy="253" r="5.5" stroke="#5452F6" stroke-width="2"/>
<line x1="209" y1="251.5" x2="122" y2="251.5" stroke="#5452F6" stroke-width="2"/>
<path d="M132 261L121.5 251.5L132 242.5" stroke="#5452F6" stroke-width="2" stroke-linecap="round" stroke-linejoin="round"/>
<circle cx="213.5" cy="251" r="5.5" transform="rotate(180 213.5 251)" stroke="#5452F6" stroke-width="2"/>
<line x1="375" y1="151.5" x2="288" y2="151.5" stroke="#5452F6" stroke-width="2"/>
<path d="M298 161L287.5 151.5L298 142.5" stroke="#5452F6" stroke-width="2" stroke-linecap="round" stroke-linejoin="round"/>
<circle cx="379.5" cy="151" r="5.5" transform="rotate(180 379.5 151)" stroke="#5452F6" stroke-width="2"/>
<line x1="252.5" y1="194" x2="252.5" y2="221" stroke="#5452F6" stroke-width="2"/>
<path d="M262 211L252.5 221.5L243.5 211" stroke="#5452F6" stroke-width="2" stroke-linecap="round" stroke-linejoin="round"/>
<circle cx="252" cy="189.5" r="5.5" transform="rotate(90 252 189.5)" stroke="#5452F6" stroke-width="2"/>
<line x1="89.5" y1="212" x2="89.5" y2="185" stroke="#5452F6" stroke-width="2"/>
<path d="M80 195L89.5 184.5L98.5 195" stroke="#5452F6" stroke-width="2" stroke-linecap="round" stroke-linejoin="round"/>
<circle cx="90" cy="216.5" r="5.5" transform="rotate(-90 90 216.5)" stroke="#5452F6" stroke-width="2"/>
<defs>
<filter id="filter0_d" x="0" y="0" width="490" height="359" filterUnits="userSpaceOnUse" color-interpolation-filters="sRGB">
<feFlood flood-opacity="0" result="BackgroundImageFix"/>
<feColorMatrix in="SourceAlpha" type="matrix" values="0 0 0 0 0 0 0 0 0 0 0 0 0 0 0 0 0 0 127 0"/>
<feOffset dx="4" dy="4"/>
<feColorMatrix type="matrix" values="0 0 0 0 0.674908 0 0 0 0 0.662083 0 0 0 0 0.945833 0 0 0 1 0"/>
<feBlend mode="normal" in2="BackgroundImageFix" result="effect1_dropShadow"/>
<feBlend mode="normal" in="SourceGraphic" in2="effect1_dropShadow" result="shape"/>
</filter>
</defs>
</svg>
