<svg width="728" height="359" viewBox="0 0 728 359" fill="none" xmlns="http://www.w3.org/2000/svg">
<g filter="url(#filter0_d)">
<rect x="238" width="486" height="355" rx="8" fill="white"/>
<rect x="238.5" y="0.5" width="485" height="354" rx="7.5" stroke="#5452F6"/>
</g>
<path d="M372.711 70.1797H368.133V75H366.156V63.625H373.383V65.2188H368.133V68.6016H372.711V70.1797ZM379.82 72.3516H375.414L374.492 75H372.438L376.734 63.625H378.508L382.812 75H380.75L379.82 72.3516ZM375.969 70.7578H379.266L377.617 66.0391L375.969 70.7578ZM390.289 64.4922V66.5469H391.781V67.9531H390.289V72.6719C390.289 72.9948 390.352 73.2292 390.477 73.375C390.607 73.5156 390.836 73.5859 391.164 73.5859C391.383 73.5859 391.604 73.5599 391.828 73.5078V74.9766C391.396 75.0964 390.979 75.1562 390.578 75.1562C389.12 75.1562 388.391 74.3516 388.391 72.7422V67.9531H387V66.5469H388.391V64.4922H390.289ZM392.648 70.6953C392.648 69.8672 392.812 69.1224 393.141 68.4609C393.469 67.7943 393.93 67.2839 394.523 66.9297C395.117 66.5703 395.799 66.3906 396.57 66.3906C397.711 66.3906 398.635 66.7578 399.344 67.4922C400.057 68.2266 400.443 69.2005 400.5 70.4141L400.508 70.8594C400.508 71.6927 400.346 72.4375 400.023 73.0938C399.706 73.75 399.247 74.2578 398.648 74.6172C398.055 74.9766 397.367 75.1562 396.586 75.1562C395.393 75.1562 394.438 74.7604 393.719 73.9688C393.005 73.1719 392.648 72.112 392.648 70.7891V70.6953ZM394.547 70.8594C394.547 71.7292 394.727 72.4115 395.086 72.9062C395.445 73.3958 395.945 73.6406 396.586 73.6406C397.227 73.6406 397.724 73.3906 398.078 72.8906C398.438 72.3906 398.617 71.6589 398.617 70.6953C398.617 69.8411 398.432 69.1641 398.062 68.6641C397.698 68.1641 397.201 67.9141 396.57 67.9141C395.951 67.9141 395.458 68.1615 395.094 68.6562C394.729 69.1458 394.547 69.8802 394.547 70.8594ZM404.859 71.375L404.016 72.2422V75H402.117V63H404.016V69.9219L404.609 69.1797L406.945 66.5469H409.227L406.086 70.0703L409.562 75H407.367L404.859 71.375ZM414.039 75.1562C412.836 75.1562 411.859 74.7786 411.109 74.0234C410.365 73.263 409.992 72.2526 409.992 70.9922V70.7578C409.992 69.9141 410.154 69.1615 410.477 68.5C410.805 67.8333 411.263 67.3151 411.852 66.9453C412.44 66.5755 413.096 66.3906 413.82 66.3906C414.971 66.3906 415.859 66.7578 416.484 67.4922C417.115 68.2266 417.43 69.2656 417.43 70.6094V71.375H411.906C411.964 72.0729 412.195 72.625 412.602 73.0312C413.013 73.4375 413.529 73.6406 414.148 73.6406C415.018 73.6406 415.727 73.2891 416.273 72.5859L417.297 73.5625C416.958 74.0677 416.505 74.4609 415.938 74.7422C415.375 75.0182 414.742 75.1562 414.039 75.1562ZM413.812 67.9141C413.292 67.9141 412.87 68.0964 412.547 68.4609C412.229 68.8255 412.026 69.3333 411.938 69.9844H415.555V69.8438C415.513 69.2083 415.344 68.7292 415.047 68.4062C414.75 68.0781 414.339 67.9141 413.812 67.9141ZM420.672 66.5469L420.727 67.5234C421.352 66.7682 422.172 66.3906 423.188 66.3906C424.948 66.3906 425.844 67.3984 425.875 69.4141V75H423.977V69.5234C423.977 68.987 423.859 68.5911 423.625 68.3359C423.396 68.0755 423.018 67.9453 422.492 67.9453C421.727 67.9453 421.156 68.2917 420.781 68.9844V75H418.883V66.5469H420.672ZM432.555 72.7031C432.555 72.3646 432.414 72.1068 432.133 71.9297C431.857 71.7526 431.396 71.5964 430.75 71.4609C430.104 71.3255 429.565 71.1536 429.133 70.9453C428.185 70.487 427.711 69.8229 427.711 68.9531C427.711 68.224 428.018 67.6146 428.633 67.125C429.247 66.6354 430.029 66.3906 430.977 66.3906C431.987 66.3906 432.802 66.6406 433.422 67.1406C434.047 67.6406 434.359 68.2891 434.359 69.0859H432.461C432.461 68.7214 432.326 68.4193 432.055 68.1797C431.784 67.9349 431.424 67.8125 430.977 67.8125C430.56 67.8125 430.219 67.9089 429.953 68.1016C429.693 68.2943 429.562 68.5521 429.562 68.875C429.562 69.1667 429.685 69.3932 429.93 69.5547C430.174 69.7161 430.669 69.8802 431.414 70.0469C432.159 70.2083 432.742 70.4036 433.164 70.6328C433.591 70.8568 433.906 71.1276 434.109 71.4453C434.318 71.763 434.422 72.1484 434.422 72.6016C434.422 73.362 434.107 73.9792 433.477 74.4531C432.846 74.9219 432.021 75.1562 431 75.1562C430.307 75.1562 429.69 75.0312 429.148 74.7812C428.607 74.5312 428.185 74.1875 427.883 73.75C427.581 73.3125 427.43 72.8411 427.43 72.3359H429.273C429.299 72.7839 429.469 73.1302 429.781 73.375C430.094 73.6146 430.508 73.7344 431.023 73.7344C431.523 73.7344 431.904 73.6406 432.164 73.4531C432.424 73.2604 432.555 73.0104 432.555 72.7031ZM443.539 73.6406C444.013 73.6406 444.406 73.5026 444.719 73.2266C445.031 72.9505 445.198 72.6094 445.219 72.2031H447.008C446.987 72.7292 446.823 73.2214 446.516 73.6797C446.208 74.1328 445.792 74.4922 445.266 74.7578C444.74 75.0234 444.172 75.1562 443.562 75.1562C442.38 75.1562 441.443 74.7734 440.75 74.0078C440.057 73.2422 439.711 72.1849 439.711 70.8359V70.6406C439.711 69.3542 440.055 68.3255 440.742 67.5547C441.43 66.7786 442.367 66.3906 443.555 66.3906C444.56 66.3906 445.378 66.6849 446.008 67.2734C446.643 67.8568 446.977 68.625 447.008 69.5781H445.219C445.198 69.0938 445.031 68.6953 444.719 68.3828C444.411 68.0703 444.018 67.9141 443.539 67.9141C442.924 67.9141 442.451 68.138 442.117 68.5859C441.784 69.0286 441.615 69.7031 441.609 70.6094V70.9141C441.609 71.8307 441.773 72.5156 442.102 72.9688C442.435 73.4167 442.914 73.6406 443.539 73.6406ZM453.492 75C453.409 74.8385 453.336 74.5755 453.273 74.2109C452.669 74.8411 451.93 75.1562 451.055 75.1562C450.206 75.1562 449.513 74.9141 448.977 74.4297C448.44 73.9453 448.172 73.3464 448.172 72.6328C448.172 71.7318 448.505 71.0417 449.172 70.5625C449.844 70.0781 450.802 69.8359 452.047 69.8359H453.211V69.2812C453.211 68.8438 453.089 68.4948 452.844 68.2344C452.599 67.9688 452.227 67.8359 451.727 67.8359C451.294 67.8359 450.94 67.9453 450.664 68.1641C450.388 68.3776 450.25 68.651 450.25 68.9844H448.352C448.352 68.5208 448.505 68.0885 448.812 67.6875C449.12 67.2812 449.536 66.9635 450.062 66.7344C450.594 66.5052 451.185 66.3906 451.836 66.3906C452.826 66.3906 453.615 66.6406 454.203 67.1406C454.792 67.6354 455.094 68.3333 455.109 69.2344V73.0469C455.109 73.8073 455.216 74.4141 455.43 74.8672V75H453.492ZM451.406 73.6328C451.781 73.6328 452.133 73.5417 452.461 73.3594C452.794 73.1771 453.044 72.9323 453.211 72.625V71.0312H452.188C451.484 71.0312 450.956 71.1536 450.602 71.3984C450.247 71.6432 450.07 71.9896 450.07 72.4375C450.07 72.8021 450.19 73.0938 450.43 73.3125C450.674 73.526 451 73.6328 451.406 73.6328ZM458.859 66.5469L458.914 67.5234C459.539 66.7682 460.359 66.3906 461.375 66.3906C463.135 66.3906 464.031 67.3984 464.062 69.4141V75H462.164V69.5234C462.164 68.987 462.047 68.5911 461.812 68.3359C461.583 68.0755 461.206 67.9453 460.68 67.9453C459.914 67.9453 459.344 68.2917 458.969 68.9844V75H457.07V66.5469H458.859ZM472.008 75H470.109V66.5469H472.008V75ZM469.992 64.3516C469.992 64.0599 470.083 63.8177 470.266 63.625C470.453 63.4323 470.719 63.3359 471.062 63.3359C471.406 63.3359 471.672 63.4323 471.859 63.625C472.047 63.8177 472.141 64.0599 472.141 64.3516C472.141 64.638 472.047 64.8776 471.859 65.0703C471.672 65.2578 471.406 65.3516 471.062 65.3516C470.719 65.3516 470.453 65.2578 470.266 65.0703C470.083 64.8776 469.992 64.638 469.992 64.3516ZM475.844 66.5469L475.898 67.5234C476.523 66.7682 477.344 66.3906 478.359 66.3906C480.12 66.3906 481.016 67.3984 481.047 69.4141V75H479.148V69.5234C479.148 68.987 479.031 68.5911 478.797 68.3359C478.568 68.0755 478.19 67.9453 477.664 67.9453C476.898 67.9453 476.328 68.2917 475.953 68.9844V75H474.055V66.5469H475.844ZM485.367 64.4922V66.5469H486.859V67.9531H485.367V72.6719C485.367 72.9948 485.43 73.2292 485.555 73.375C485.685 73.5156 485.914 73.5859 486.242 73.5859C486.461 73.5859 486.682 73.5599 486.906 73.5078V74.9766C486.474 75.0964 486.057 75.1562 485.656 75.1562C484.198 75.1562 483.469 74.3516 483.469 72.7422V67.9531H482.078V66.5469H483.469V64.4922H485.367ZM492.039 75.1562C490.836 75.1562 489.859 74.7786 489.109 74.0234C488.365 73.263 487.992 72.2526 487.992 70.9922V70.7578C487.992 69.9141 488.154 69.1615 488.477 68.5C488.805 67.8333 489.263 67.3151 489.852 66.9453C490.44 66.5755 491.096 66.3906 491.82 66.3906C492.971 66.3906 493.859 66.7578 494.484 67.4922C495.115 68.2266 495.43 69.2656 495.43 70.6094V71.375H489.906C489.964 72.0729 490.195 72.625 490.602 73.0312C491.013 73.4375 491.529 73.6406 492.148 73.6406C493.018 73.6406 493.727 73.2891 494.273 72.5859L495.297 73.5625C494.958 74.0677 494.505 74.4609 493.938 74.7422C493.375 75.0182 492.742 75.1562 492.039 75.1562ZM491.812 67.9141C491.292 67.9141 490.87 68.0964 490.547 68.4609C490.229 68.8255 490.026 69.3333 489.938 69.9844H493.555V69.8438C493.513 69.2083 493.344 68.7292 493.047 68.4062C492.75 68.0781 492.339 67.9141 491.812 67.9141ZM501.336 68.2812C501.086 68.2396 500.828 68.2188 500.562 68.2188C499.693 68.2188 499.107 68.5521 498.805 69.2188V75H496.906V66.5469H498.719L498.766 67.4922C499.224 66.7578 499.859 66.3906 500.672 66.3906C500.943 66.3906 501.167 66.4271 501.344 66.5L501.336 68.2812ZM507.352 75C507.268 74.8385 507.195 74.5755 507.133 74.2109C506.529 74.8411 505.789 75.1562 504.914 75.1562C504.065 75.1562 503.372 74.9141 502.836 74.4297C502.299 73.9453 502.031 73.3464 502.031 72.6328C502.031 71.7318 502.365 71.0417 503.031 70.5625C503.703 70.0781 504.661 69.8359 505.906 69.8359H507.07V69.2812C507.07 68.8438 506.948 68.4948 506.703 68.2344C506.458 67.9688 506.086 67.8359 505.586 67.8359C505.154 67.8359 504.799 67.9453 504.523 68.1641C504.247 68.3776 504.109 68.651 504.109 68.9844H502.211C502.211 68.5208 502.365 68.0885 502.672 67.6875C502.979 67.2812 503.396 66.9635 503.922 66.7344C504.453 66.5052 505.044 66.3906 505.695 66.3906C506.685 66.3906 507.474 66.6406 508.062 67.1406C508.651 67.6354 508.953 68.3333 508.969 69.2344V73.0469C508.969 73.8073 509.076 74.4141 509.289 74.8672V75H507.352ZM505.266 73.6328C505.641 73.6328 505.992 73.5417 506.32 73.3594C506.654 73.1771 506.904 72.9323 507.07 72.625V71.0312H506.047C505.344 71.0312 504.815 71.1536 504.461 71.3984C504.107 71.6432 503.93 71.9896 503.93 72.4375C503.93 72.8021 504.049 73.0938 504.289 73.3125C504.534 73.526 504.859 73.6328 505.266 73.6328ZM514.43 73.6406C514.904 73.6406 515.297 73.5026 515.609 73.2266C515.922 72.9505 516.089 72.6094 516.109 72.2031H517.898C517.878 72.7292 517.714 73.2214 517.406 73.6797C517.099 74.1328 516.682 74.4922 516.156 74.7578C515.63 75.0234 515.062 75.1562 514.453 75.1562C513.271 75.1562 512.333 74.7734 511.641 74.0078C510.948 73.2422 510.602 72.1849 510.602 70.8359V70.6406C510.602 69.3542 510.945 68.3255 511.633 67.5547C512.32 66.7786 513.258 66.3906 514.445 66.3906C515.451 66.3906 516.268 66.6849 516.898 67.2734C517.534 67.8568 517.867 68.625 517.898 69.5781H516.109C516.089 69.0938 515.922 68.6953 515.609 68.3828C515.302 68.0703 514.909 67.9141 514.43 67.9141C513.815 67.9141 513.341 68.138 513.008 68.5859C512.674 69.0286 512.505 69.7031 512.5 70.6094V70.9141C512.5 71.8307 512.664 72.5156 512.992 72.9688C513.326 73.4167 513.805 73.6406 514.43 73.6406ZM521.711 64.4922V66.5469H523.203V67.9531H521.711V72.6719C521.711 72.9948 521.773 73.2292 521.898 73.375C522.029 73.5156 522.258 73.5859 522.586 73.5859C522.805 73.5859 523.026 73.5599 523.25 73.5078V74.9766C522.818 75.0964 522.401 75.1562 522 75.1562C520.542 75.1562 519.812 74.3516 519.812 72.7422V67.9531H518.422V66.5469H519.812V64.4922H521.711ZM536.07 72.3828L537.414 66.5469H539.266L536.961 75H535.398L533.586 69.1953L531.805 75H530.242L527.93 66.5469H529.781L531.148 72.3203L532.883 66.5469H534.312L536.07 72.3828ZM542.555 75H540.656V66.5469H542.555V75ZM540.539 64.3516C540.539 64.0599 540.63 63.8177 540.812 63.625C541 63.4323 541.266 63.3359 541.609 63.3359C541.953 63.3359 542.219 63.4323 542.406 63.625C542.594 63.8177 542.688 64.0599 542.688 64.3516C542.688 64.638 542.594 64.8776 542.406 65.0703C542.219 65.2578 541.953 65.3516 541.609 65.3516C541.266 65.3516 541 65.2578 540.812 65.0703C540.63 64.8776 540.539 64.638 540.539 64.3516ZM547.008 64.4922V66.5469H548.5V67.9531H547.008V72.6719C547.008 72.9948 547.07 73.2292 547.195 73.375C547.326 73.5156 547.555 73.5859 547.883 73.5859C548.102 73.5859 548.323 73.5599 548.547 73.5078V74.9766C548.115 75.0964 547.698 75.1562 547.297 75.1562C545.839 75.1562 545.109 74.3516 545.109 72.7422V67.9531H543.719V66.5469H545.109V64.4922H547.008ZM551.828 67.4688C552.448 66.75 553.232 66.3906 554.18 66.3906C555.982 66.3906 556.896 67.4193 556.922 69.4766V75H555.023V69.5469C555.023 68.9635 554.896 68.5521 554.641 68.3125C554.391 68.0677 554.021 67.9453 553.531 67.9453C552.771 67.9453 552.203 68.2839 551.828 68.9609V75H549.93V63H551.828V67.4688ZM566.555 75.1562C565.352 75.1562 564.375 74.7786 563.625 74.0234C562.88 73.263 562.508 72.2526 562.508 70.9922V70.7578C562.508 69.9141 562.669 69.1615 562.992 68.5C563.32 67.8333 563.779 67.3151 564.367 66.9453C564.956 66.5755 565.612 66.3906 566.336 66.3906C567.487 66.3906 568.375 66.7578 569 67.4922C569.63 68.2266 569.945 69.2656 569.945 70.6094V71.375H564.422C564.479 72.0729 564.711 72.625 565.117 73.0312C565.529 73.4375 566.044 73.6406 566.664 73.6406C567.534 73.6406 568.242 73.2891 568.789 72.5859L569.812 73.5625C569.474 74.0677 569.021 74.4609 568.453 74.7422C567.891 75.0182 567.258 75.1562 566.555 75.1562ZM566.328 67.9141C565.807 67.9141 565.385 68.0964 565.062 68.4609C564.745 68.8255 564.542 69.3333 564.453 69.9844H568.07V69.8438C568.029 69.2083 567.859 68.7292 567.562 68.4062C567.266 68.0781 566.854 67.9141 566.328 67.9141ZM576.477 75C576.393 74.8385 576.32 74.5755 576.258 74.2109C575.654 74.8411 574.914 75.1562 574.039 75.1562C573.19 75.1562 572.497 74.9141 571.961 74.4297C571.424 73.9453 571.156 73.3464 571.156 72.6328C571.156 71.7318 571.49 71.0417 572.156 70.5625C572.828 70.0781 573.786 69.8359 575.031 69.8359H576.195V69.2812C576.195 68.8438 576.073 68.4948 575.828 68.2344C575.583 67.9688 575.211 67.8359 574.711 67.8359C574.279 67.8359 573.924 67.9453 573.648 68.1641C573.372 68.3776 573.234 68.651 573.234 68.9844H571.336C571.336 68.5208 571.49 68.0885 571.797 67.6875C572.104 67.2812 572.521 66.9635 573.047 66.7344C573.578 66.5052 574.169 66.3906 574.82 66.3906C575.81 66.3906 576.599 66.6406 577.188 67.1406C577.776 67.6354 578.078 68.3333 578.094 69.2344V73.0469C578.094 73.8073 578.201 74.4141 578.414 74.8672V75H576.477ZM574.391 73.6328C574.766 73.6328 575.117 73.5417 575.445 73.3594C575.779 73.1771 576.029 72.9323 576.195 72.625V71.0312H575.172C574.469 71.0312 573.94 71.1536 573.586 71.3984C573.232 71.6432 573.055 71.9896 573.055 72.4375C573.055 72.8021 573.174 73.0938 573.414 73.3125C573.659 73.526 573.984 73.6328 574.391 73.6328ZM583.555 73.6406C584.029 73.6406 584.422 73.5026 584.734 73.2266C585.047 72.9505 585.214 72.6094 585.234 72.2031H587.023C587.003 72.7292 586.839 73.2214 586.531 73.6797C586.224 74.1328 585.807 74.4922 585.281 74.7578C584.755 75.0234 584.188 75.1562 583.578 75.1562C582.396 75.1562 581.458 74.7734 580.766 74.0078C580.073 73.2422 579.727 72.1849 579.727 70.8359V70.6406C579.727 69.3542 580.07 68.3255 580.758 67.5547C581.445 66.7786 582.383 66.3906 583.57 66.3906C584.576 66.3906 585.393 66.6849 586.023 67.2734C586.659 67.8568 586.992 68.625 587.023 69.5781H585.234C585.214 69.0938 585.047 68.6953 584.734 68.3828C584.427 68.0703 584.034 67.9141 583.555 67.9141C582.94 67.9141 582.466 68.138 582.133 68.5859C581.799 69.0286 581.63 69.7031 581.625 70.6094V70.9141C581.625 71.8307 581.789 72.5156 582.117 72.9688C582.451 73.4167 582.93 73.6406 583.555 73.6406ZM590.328 67.4688C590.948 66.75 591.732 66.3906 592.68 66.3906C594.482 66.3906 595.396 67.4193 595.422 69.4766V75H593.523V69.5469C593.523 68.9635 593.396 68.5521 593.141 68.3125C592.891 68.0677 592.521 67.9453 592.031 67.9453C591.271 67.9453 590.703 68.2839 590.328 68.9609V75H588.43V63H590.328V67.4688ZM600.977 70.6953C600.977 69.8672 601.141 69.1224 601.469 68.4609C601.797 67.7943 602.258 67.2839 602.852 66.9297C603.445 66.5703 604.128 66.3906 604.898 66.3906C606.039 66.3906 606.964 66.7578 607.672 67.4922C608.385 68.2266 608.771 69.2005 608.828 70.4141L608.836 70.8594C608.836 71.6927 608.674 72.4375 608.352 73.0938C608.034 73.75 607.576 74.2578 606.977 74.6172C606.383 74.9766 605.695 75.1562 604.914 75.1562C603.721 75.1562 602.766 74.7604 602.047 73.9688C601.333 73.1719 600.977 72.112 600.977 70.7891V70.6953ZM602.875 70.8594C602.875 71.7292 603.055 72.4115 603.414 72.9062C603.773 73.3958 604.273 73.6406 604.914 73.6406C605.555 73.6406 606.052 73.3906 606.406 72.8906C606.766 72.3906 606.945 71.6589 606.945 70.6953C606.945 69.8411 606.76 69.1641 606.391 68.6641C606.026 68.1641 605.529 67.9141 604.898 67.9141C604.279 67.9141 603.786 68.1615 603.422 68.6562C603.057 69.1458 602.875 69.8802 602.875 70.8594ZM612.82 64.4922V66.5469H614.312V67.9531H612.82V72.6719C612.82 72.9948 612.883 73.2292 613.008 73.375C613.138 73.5156 613.367 73.5859 613.695 73.5859C613.914 73.5859 614.135 73.5599 614.359 73.5078V74.9766C613.927 75.0964 613.51 75.1562 613.109 75.1562C611.651 75.1562 610.922 74.3516 610.922 72.7422V67.9531H609.531V66.5469H610.922V64.4922H612.82ZM617.641 67.4688C618.26 66.75 619.044 66.3906 619.992 66.3906C621.794 66.3906 622.708 67.4193 622.734 69.4766V75H620.836V69.5469C620.836 68.9635 620.708 68.5521 620.453 68.3125C620.203 68.0677 619.833 67.9453 619.344 67.9453C618.583 67.9453 618.016 68.2839 617.641 68.9609V75H615.742V63H617.641V67.4688ZM628.383 75.1562C627.18 75.1562 626.203 74.7786 625.453 74.0234C624.708 73.263 624.336 72.2526 624.336 70.9922V70.7578C624.336 69.9141 624.497 69.1615 624.82 68.5C625.148 67.8333 625.607 67.3151 626.195 66.9453C626.784 66.5755 627.44 66.3906 628.164 66.3906C629.315 66.3906 630.203 66.7578 630.828 67.4922C631.458 68.2266 631.773 69.2656 631.773 70.6094V71.375H626.25C626.307 72.0729 626.539 72.625 626.945 73.0312C627.357 73.4375 627.872 73.6406 628.492 73.6406C629.362 73.6406 630.07 73.2891 630.617 72.5859L631.641 73.5625C631.302 74.0677 630.849 74.4609 630.281 74.7422C629.719 75.0182 629.086 75.1562 628.383 75.1562ZM628.156 67.9141C627.635 67.9141 627.214 68.0964 626.891 68.4609C626.573 68.8255 626.37 69.3333 626.281 69.9844H629.898V69.8438C629.857 69.2083 629.688 68.7292 629.391 68.4062C629.094 68.0781 628.682 67.9141 628.156 67.9141ZM637.68 68.2812C637.43 68.2396 637.172 68.2188 636.906 68.2188C636.036 68.2188 635.451 68.5521 635.148 69.2188V75H633.25V66.5469H635.062L635.109 67.4922C635.568 66.7578 636.203 66.3906 637.016 66.3906C637.286 66.3906 637.51 66.4271 637.688 66.5L637.68 68.2812Z" fill="#5452F6"/>
<path d="M341.25 74.5H340.5C340.102 74.5 339.721 74.342 339.439 74.0607C339.158 73.7794 339 73.3978 339 73V69.25C339 69.0511 338.921 68.8603 338.78 68.7197C338.64 68.579 338.449 68.5 338.25 68.5H337.5" stroke="#5452F6" stroke-width="1.5" stroke-linecap="round" stroke-linejoin="round"/>
<path d="M338.625 64.75C338.551 64.75 338.478 64.772 338.417 64.8132C338.355 64.8544 338.307 64.913 338.279 64.9815C338.25 65.05 338.243 65.1254 338.257 65.1982C338.272 65.2709 338.307 65.3377 338.36 65.3902C338.412 65.4426 338.479 65.4783 338.552 65.4928C338.625 65.5073 338.7 65.4998 338.769 65.4715C338.837 65.4431 338.896 65.395 338.937 65.3333C338.978 65.2717 339 65.1992 339 65.125C339 65.0255 338.96 64.9302 338.89 64.8598C338.82 64.7895 338.724 64.75 338.625 64.75Z" stroke="#5452F6" stroke-width="1.5" stroke-linecap="round" stroke-linejoin="round"/>
<path d="M339 81.25C345.213 81.25 350.25 76.2132 350.25 70C350.25 63.7868 345.213 58.75 339 58.75C332.787 58.75 327.75 63.7868 327.75 70C327.75 76.2132 332.787 81.25 339 81.25Z" stroke="#5452F6" stroke-width="1.5" stroke-linecap="round" stroke-linejoin="round"/>
<path d="M246 0.5H716C720.142 0.5 723.5 3.85786 723.5 8V23.5H238.5V8C238.5 3.85786 241.858 0.5 246 0.5Z" fill="#EEEEFF"/>
<circle cx="250" cy="12" r="4" fill="#5452F6"/>
<circle cx="264" cy="12" r="4" fill="#5452F6"/>
<circle cx="278" cy="12" r="4" fill="#5452F6"/>
<path d="M407.907 12.687H403.901V16.9048H402.172V6.95166H408.495V8.34619H403.901V11.3062H407.907V12.687ZM414.128 14.5874H410.272L409.466 16.9048H407.668L411.428 6.95166H412.979L416.746 16.9048H414.941L414.128 14.5874ZM410.758 13.1929H413.643L412.2 9.06396L410.758 13.1929ZM424.245 15.7153C424.66 15.7153 425.004 15.5946 425.277 15.353C425.551 15.1115 425.697 14.813 425.715 14.4575H427.28C427.262 14.9178 427.118 15.3485 426.85 15.7495C426.581 16.146 426.216 16.4604 425.756 16.6929C425.296 16.9253 424.799 17.0415 424.266 17.0415C423.231 17.0415 422.411 16.7065 421.805 16.0366C421.199 15.3667 420.896 14.4416 420.896 13.2612V13.0903C420.896 11.9647 421.196 11.0646 421.798 10.3901C422.399 9.7111 423.22 9.37158 424.259 9.37158C425.138 9.37158 425.854 9.62907 426.405 10.144C426.961 10.6545 427.253 11.3267 427.28 12.1606H425.715C425.697 11.7368 425.551 11.3882 425.277 11.1147C425.008 10.8413 424.664 10.7046 424.245 10.7046C423.707 10.7046 423.293 10.9006 423.001 11.2925C422.709 11.6799 422.561 12.27 422.557 13.063V13.3296C422.557 14.1317 422.7 14.731 422.987 15.1274C423.279 15.5194 423.698 15.7153 424.245 15.7153ZM428.224 13.1382C428.224 12.4136 428.367 11.7619 428.654 11.1831C428.941 10.5998 429.345 10.1532 429.864 9.84326C430.384 9.52881 430.981 9.37158 431.655 9.37158C432.653 9.37158 433.462 9.69287 434.082 10.3354C434.706 10.978 435.044 11.8302 435.094 12.8921L435.101 13.2817C435.101 14.0109 434.959 14.6626 434.677 15.2368C434.399 15.811 433.998 16.2554 433.474 16.5698C432.954 16.8843 432.353 17.0415 431.669 17.0415C430.625 17.0415 429.789 16.6951 429.16 16.0024C428.536 15.3052 428.224 14.3778 428.224 13.2202V13.1382ZM429.885 13.2817C429.885 14.0428 430.042 14.6398 430.356 15.0728C430.671 15.5011 431.108 15.7153 431.669 15.7153C432.229 15.7153 432.665 15.4966 432.975 15.0591C433.289 14.6216 433.446 13.9813 433.446 13.1382C433.446 12.3908 433.285 11.7983 432.961 11.3608C432.642 10.9233 432.207 10.7046 431.655 10.7046C431.113 10.7046 430.682 10.9211 430.363 11.354C430.044 11.7824 429.885 12.425 429.885 13.2817ZM438.067 9.5083L438.115 10.2808C438.635 9.67464 439.346 9.37158 440.248 9.37158C441.237 9.37158 441.914 9.74984 442.278 10.5063C442.816 9.74984 443.573 9.37158 444.548 9.37158C445.364 9.37158 445.97 9.59717 446.366 10.0483C446.767 10.4995 446.972 11.1649 446.981 12.0444V16.9048H445.32V12.0923C445.32 11.6229 445.218 11.2788 445.013 11.0601C444.808 10.8413 444.468 10.7319 443.994 10.7319C443.616 10.7319 443.306 10.8345 443.064 11.0396C442.827 11.2401 442.661 11.5044 442.565 11.8325L442.572 16.9048H440.911V12.0376C440.888 11.1672 440.444 10.7319 439.578 10.7319C438.913 10.7319 438.441 11.0031 438.163 11.5454V16.9048H436.502V9.5083H438.067ZM455.164 13.2817C455.164 14.4256 454.904 15.3394 454.385 16.0229C453.865 16.702 453.168 17.0415 452.293 17.0415C451.482 17.0415 450.832 16.7749 450.345 16.2417V19.7485H448.684V9.5083H450.215L450.283 10.2603C450.771 9.66781 451.434 9.37158 452.272 9.37158C453.175 9.37158 453.881 9.70882 454.392 10.3833C454.907 11.0532 455.164 11.9852 455.164 13.1792V13.2817ZM453.51 13.1382C453.51 12.3999 453.362 11.8143 453.065 11.3813C452.774 10.9484 452.354 10.7319 451.808 10.7319C451.129 10.7319 450.641 11.0122 450.345 11.5728V14.854C450.646 15.4282 451.138 15.7153 451.821 15.7153C452.35 15.7153 452.762 15.5034 453.059 15.0796C453.359 14.6512 453.51 14.0041 453.51 13.1382ZM458.343 16.9048H456.682V6.40479H458.343V16.9048ZM461.925 16.9048H460.264V9.5083H461.925V16.9048ZM460.161 7.5874C460.161 7.33219 460.241 7.12028 460.4 6.95166C460.564 6.78304 460.797 6.69873 461.098 6.69873C461.398 6.69873 461.631 6.78304 461.795 6.95166C461.959 7.12028 462.041 7.33219 462.041 7.5874C462.041 7.83805 461.959 8.04769 461.795 8.21631C461.631 8.38037 461.398 8.4624 461.098 8.4624C460.797 8.4624 460.564 8.38037 460.4 8.21631C460.241 8.04769 460.161 7.83805 460.161 7.5874ZM468.159 16.9048C468.086 16.7635 468.022 16.5334 467.968 16.2144C467.439 16.7658 466.792 17.0415 466.026 17.0415C465.284 17.0415 464.677 16.8296 464.208 16.4058C463.739 15.9819 463.504 15.4578 463.504 14.8335C463.504 14.0451 463.796 13.4412 464.379 13.022C464.967 12.5981 465.805 12.3862 466.895 12.3862H467.913V11.9009C467.913 11.5181 467.806 11.2127 467.592 10.9849C467.378 10.7524 467.052 10.6362 466.614 10.6362C466.236 10.6362 465.926 10.7319 465.685 10.9233C465.443 11.1102 465.322 11.3494 465.322 11.6411H463.661C463.661 11.2355 463.796 10.8573 464.064 10.5063C464.333 10.1509 464.698 9.87288 465.158 9.67236C465.623 9.47184 466.14 9.37158 466.71 9.37158C467.576 9.37158 468.266 9.59033 468.781 10.0278C469.296 10.4608 469.561 11.0715 469.574 11.8599V15.1958C469.574 15.8612 469.668 16.3921 469.854 16.7886V16.9048H468.159ZM466.334 15.7085C466.662 15.7085 466.97 15.6287 467.257 15.4692C467.549 15.3097 467.767 15.0955 467.913 14.8267V13.4321H467.018C466.402 13.4321 465.94 13.5392 465.63 13.7534C465.32 13.9676 465.165 14.2707 465.165 14.6626C465.165 14.9816 465.27 15.2368 465.479 15.4282C465.694 15.6151 465.979 15.7085 466.334 15.7085ZM472.855 9.5083L472.903 10.3628C473.45 9.70199 474.168 9.37158 475.057 9.37158C476.597 9.37158 477.381 10.2534 477.408 12.0171V16.9048H475.747V12.1128C475.747 11.6434 475.645 11.297 475.439 11.0737C475.239 10.8459 474.909 10.7319 474.448 10.7319C473.778 10.7319 473.279 11.035 472.951 11.6411V16.9048H471.29V9.5083H472.855ZM481.188 7.71045V9.5083H482.494V10.7388H481.188V14.8677C481.188 15.1502 481.243 15.3553 481.353 15.4829C481.466 15.606 481.667 15.6675 481.954 15.6675C482.146 15.6675 482.339 15.6447 482.535 15.5991V16.8843C482.157 16.9891 481.792 17.0415 481.441 17.0415C480.165 17.0415 479.527 16.3374 479.527 14.9292V10.7388H478.311V9.5083H479.527V7.71045H481.188ZM491.401 14.895C491.401 14.5988 491.278 14.3732 491.032 14.2183C490.791 14.0633 490.387 13.9266 489.822 13.8081C489.257 13.6896 488.785 13.5392 488.407 13.3569C487.578 12.9559 487.163 12.3748 487.163 11.6138C487.163 10.9757 487.432 10.4425 487.97 10.0142C488.507 9.58577 489.191 9.37158 490.021 9.37158C490.905 9.37158 491.618 9.59033 492.16 10.0278C492.707 10.4653 492.98 11.0327 492.98 11.73H491.319C491.319 11.411 491.201 11.1466 490.964 10.937C490.727 10.7228 490.412 10.6157 490.021 10.6157C489.656 10.6157 489.357 10.7 489.125 10.8687C488.897 11.0373 488.783 11.2629 488.783 11.5454C488.783 11.8006 488.89 11.9989 489.104 12.1401C489.319 12.2814 489.752 12.425 490.403 12.5708C491.055 12.7121 491.565 12.883 491.935 13.0835C492.308 13.2795 492.584 13.5164 492.762 13.7944C492.944 14.0724 493.035 14.4097 493.035 14.8062C493.035 15.4715 492.759 16.0116 492.208 16.4263C491.657 16.8364 490.934 17.0415 490.041 17.0415C489.435 17.0415 488.895 16.9321 488.421 16.7134C487.947 16.4946 487.578 16.1938 487.313 15.811C487.049 15.4282 486.917 15.0158 486.917 14.5737H488.53C488.553 14.9657 488.701 15.2687 488.975 15.4829C489.248 15.6925 489.61 15.7974 490.062 15.7974C490.499 15.7974 490.832 15.7153 491.06 15.5513C491.287 15.3826 491.401 15.1639 491.401 14.895ZM496.05 9.5083L496.098 10.2808C496.617 9.67464 497.328 9.37158 498.23 9.37158C499.219 9.37158 499.896 9.74984 500.261 10.5063C500.799 9.74984 501.555 9.37158 502.53 9.37158C503.346 9.37158 503.952 9.59717 504.349 10.0483C504.75 10.4995 504.955 11.1649 504.964 12.0444V16.9048H503.303V12.0923C503.303 11.6229 503.2 11.2788 502.995 11.0601C502.79 10.8413 502.451 10.7319 501.977 10.7319C501.598 10.7319 501.288 10.8345 501.047 11.0396C500.81 11.2401 500.644 11.5044 500.548 11.8325L500.555 16.9048H498.894V12.0376C498.871 11.1672 498.426 10.7319 497.561 10.7319C496.895 10.7319 496.424 11.0031 496.146 11.5454V16.9048H494.484V9.5083H496.05ZM511.089 16.9048C511.016 16.7635 510.952 16.5334 510.897 16.2144C510.369 16.7658 509.722 17.0415 508.956 17.0415C508.213 17.0415 507.607 16.8296 507.138 16.4058C506.668 15.9819 506.434 15.4578 506.434 14.8335C506.434 14.0451 506.725 13.4412 507.309 13.022C507.896 12.5981 508.735 12.3862 509.824 12.3862H510.843V11.9009C510.843 11.5181 510.736 11.2127 510.521 10.9849C510.307 10.7524 509.981 10.6362 509.544 10.6362C509.166 10.6362 508.856 10.7319 508.614 10.9233C508.373 11.1102 508.252 11.3494 508.252 11.6411H506.591C506.591 11.2355 506.725 10.8573 506.994 10.5063C507.263 10.1509 507.628 9.87288 508.088 9.67236C508.553 9.47184 509.07 9.37158 509.64 9.37158C510.506 9.37158 511.196 9.59033 511.711 10.0278C512.226 10.4608 512.49 11.0715 512.504 11.8599V15.1958C512.504 15.8612 512.597 16.3921 512.784 16.7886V16.9048H511.089ZM509.264 15.7085C509.592 15.7085 509.899 15.6287 510.187 15.4692C510.478 15.3097 510.697 15.0955 510.843 14.8267V13.4321H509.947C509.332 13.4321 508.869 13.5392 508.56 13.7534C508.25 13.9676 508.095 14.2707 508.095 14.6626C508.095 14.9816 508.2 15.2368 508.409 15.4282C508.623 15.6151 508.908 15.7085 509.264 15.7085ZM518.116 11.0259C517.897 10.9894 517.672 10.9712 517.439 10.9712C516.678 10.9712 516.166 11.2629 515.901 11.8462V16.9048H514.24V9.5083H515.826L515.867 10.3354C516.268 9.69287 516.824 9.37158 517.535 9.37158C517.772 9.37158 517.968 9.40348 518.123 9.46729L518.116 11.0259ZM521.589 7.71045V9.5083H522.895V10.7388H521.589V14.8677C521.589 15.1502 521.644 15.3553 521.753 15.4829C521.867 15.606 522.067 15.6675 522.354 15.6675C522.546 15.6675 522.74 15.6447 522.936 15.5991V16.8843C522.557 16.9891 522.193 17.0415 521.842 17.0415C520.566 17.0415 519.928 16.3374 519.928 14.9292V10.7388H518.711V9.5083H519.928V7.71045H521.589ZM530.694 15.7153C531.109 15.7153 531.453 15.5946 531.727 15.353C532 15.1115 532.146 14.813 532.164 14.4575H533.729C533.711 14.9178 533.568 15.3485 533.299 15.7495C533.03 16.146 532.665 16.4604 532.205 16.6929C531.745 16.9253 531.248 17.0415 530.715 17.0415C529.68 17.0415 528.86 16.7065 528.254 16.0366C527.648 15.3667 527.345 14.4416 527.345 13.2612V13.0903C527.345 11.9647 527.646 11.0646 528.247 10.3901C528.849 9.7111 529.669 9.37158 530.708 9.37158C531.588 9.37158 532.303 9.62907 532.854 10.144C533.41 10.6545 533.702 11.3267 533.729 12.1606H532.164C532.146 11.7368 532 11.3882 531.727 11.1147C531.458 10.8413 531.114 10.7046 530.694 10.7046C530.157 10.7046 529.742 10.9006 529.45 11.2925C529.159 11.6799 529.01 12.27 529.006 13.063V13.3296C529.006 14.1317 529.149 14.731 529.437 15.1274C529.728 15.5194 530.147 15.7153 530.694 15.7153ZM534.673 13.1382C534.673 12.4136 534.816 11.7619 535.104 11.1831C535.391 10.5998 535.794 10.1532 536.313 9.84326C536.833 9.52881 537.43 9.37158 538.104 9.37158C539.103 9.37158 539.911 9.69287 540.531 10.3354C541.156 10.978 541.493 11.8302 541.543 12.8921L541.55 13.2817C541.55 14.0109 541.409 14.6626 541.126 15.2368C540.848 15.811 540.447 16.2554 539.923 16.5698C539.403 16.8843 538.802 17.0415 538.118 17.0415C537.075 17.0415 536.238 16.6951 535.609 16.0024C534.985 15.3052 534.673 14.3778 534.673 13.2202V13.1382ZM536.334 13.2817C536.334 14.0428 536.491 14.6398 536.806 15.0728C537.12 15.5011 537.558 15.7153 538.118 15.7153C538.679 15.7153 539.114 15.4966 539.424 15.0591C539.738 14.6216 539.896 13.9813 539.896 13.1382C539.896 12.3908 539.734 11.7983 539.41 11.3608C539.091 10.9233 538.656 10.7046 538.104 10.7046C537.562 10.7046 537.132 10.9211 536.812 11.354C536.493 11.7824 536.334 12.425 536.334 13.2817ZM544.496 9.5083L544.544 10.3628C545.091 9.70199 545.809 9.37158 546.697 9.37158C548.238 9.37158 549.021 10.2534 549.049 12.0171V16.9048H547.388V12.1128C547.388 11.6434 547.285 11.297 547.08 11.0737C546.88 10.8459 546.549 10.7319 546.089 10.7319C545.419 10.7319 544.92 11.035 544.592 11.6411V16.9048H542.931V9.5083H544.496ZM552.829 7.71045V9.5083H554.135V10.7388H552.829V14.8677C552.829 15.1502 552.884 15.3553 552.993 15.4829C553.107 15.606 553.308 15.6675 553.595 15.6675C553.786 15.6675 553.98 15.6447 554.176 15.5991V16.8843C553.798 16.9891 553.433 17.0415 553.082 17.0415C551.806 17.0415 551.168 16.3374 551.168 14.9292V10.7388H549.951V9.5083H551.168V7.71045H552.829ZM559.282 11.0259C559.063 10.9894 558.838 10.9712 558.605 10.9712C557.844 10.9712 557.332 11.2629 557.067 11.8462V16.9048H555.406V9.5083H556.992L557.033 10.3354C557.434 9.69287 557.99 9.37158 558.701 9.37158C558.938 9.37158 559.134 9.40348 559.289 9.46729L559.282 11.0259ZM564.546 16.9048C564.473 16.7635 564.409 16.5334 564.354 16.2144C563.826 16.7658 563.179 17.0415 562.413 17.0415C561.67 17.0415 561.064 16.8296 560.595 16.4058C560.125 15.9819 559.891 15.4578 559.891 14.8335C559.891 14.0451 560.182 13.4412 560.766 13.022C561.354 12.5981 562.192 12.3862 563.281 12.3862H564.3V11.9009C564.3 11.5181 564.193 11.2127 563.979 10.9849C563.764 10.7524 563.438 10.6362 563.001 10.6362C562.623 10.6362 562.313 10.7319 562.071 10.9233C561.83 11.1102 561.709 11.3494 561.709 11.6411H560.048C560.048 11.2355 560.182 10.8573 560.451 10.5063C560.72 10.1509 561.085 9.87288 561.545 9.67236C562.01 9.47184 562.527 9.37158 563.097 9.37158C563.963 9.37158 564.653 9.59033 565.168 10.0278C565.683 10.4608 565.947 11.0715 565.961 11.8599V15.1958C565.961 15.8612 566.054 16.3921 566.241 16.7886V16.9048H564.546ZM562.721 15.7085C563.049 15.7085 563.356 15.6287 563.644 15.4692C563.935 15.3097 564.154 15.0955 564.3 14.8267V13.4321H563.404C562.789 13.4321 562.326 13.5392 562.017 13.7534C561.707 13.9676 561.552 14.2707 561.552 14.6626C561.552 14.9816 561.657 15.2368 561.866 15.4282C562.08 15.6151 562.365 15.7085 562.721 15.7085ZM570.739 15.7153C571.154 15.7153 571.498 15.5946 571.771 15.353C572.045 15.1115 572.191 14.813 572.209 14.4575H573.774C573.756 14.9178 573.613 15.3485 573.344 15.7495C573.075 16.146 572.71 16.4604 572.25 16.6929C571.79 16.9253 571.293 17.0415 570.76 17.0415C569.725 17.0415 568.905 16.7065 568.299 16.0366C567.693 15.3667 567.39 14.4416 567.39 13.2612V13.0903C567.39 11.9647 567.69 11.0646 568.292 10.3901C568.894 9.7111 569.714 9.37158 570.753 9.37158C571.632 9.37158 572.348 9.62907 572.899 10.144C573.455 10.6545 573.747 11.3267 573.774 12.1606H572.209C572.191 11.7368 572.045 11.3882 571.771 11.1147C571.503 10.8413 571.159 10.7046 570.739 10.7046C570.201 10.7046 569.787 10.9006 569.495 11.2925C569.203 11.6799 569.055 12.27 569.051 13.063V13.3296C569.051 14.1317 569.194 14.731 569.481 15.1274C569.773 15.5194 570.192 15.7153 570.739 15.7153ZM577.11 7.71045V9.5083H578.416V10.7388H577.11V14.8677C577.11 15.1502 577.165 15.3553 577.274 15.4829C577.388 15.606 577.589 15.6675 577.876 15.6675C578.067 15.6675 578.261 15.6447 578.457 15.5991V16.8843C578.079 16.9891 577.714 17.0415 577.363 17.0415C576.087 17.0415 575.449 16.3374 575.449 14.9292V10.7388H574.232V9.5083H575.449V7.71045H577.11Z" fill="#5452F6"/>
<path d="M246 0.5H716C720.142 0.5 723.5 3.85786 723.5 8V23.5H238.5V8C238.5 3.85786 241.858 0.5 246 0.5Z" stroke="#5452F6"/>
<path d="M24 204.5C36.4264 204.5 46.5 194.426 46.5 182C46.5 169.574 36.4264 159.5 24 159.5C11.5736 159.5 1.5 169.574 1.5 182C1.5 194.426 11.5736 204.5 24 204.5Z" stroke="#5452F6" stroke-width="1.5" stroke-linecap="round" stroke-linejoin="round"/>
<path d="M20.7644 166C20.7644 165.586 20.4286 165.25 20.0144 165.25C19.6002 165.25 19.2644 165.586 19.2644 166H20.7644ZM27.2543 184.459C27.4841 184.115 27.391 183.649 27.0463 183.419C26.7017 183.189 26.236 183.283 26.0063 183.627L27.2543 184.459ZM14 171.866C13.5858 171.866 13.25 172.202 13.25 172.616C13.25 173.03 13.5858 173.366 14 173.366V171.866ZM32.6447 172.616L33.2092 173.11C33.403 172.888 33.4493 172.574 33.3277 172.306C33.2061 172.038 32.939 171.866 32.6447 171.866V172.616ZM24.2245 182.239L23.6601 181.745C23.4295 182.009 23.412 182.397 23.6178 182.68C23.8237 182.963 24.1981 183.066 24.52 182.928L24.2245 182.239ZM25.4274 193.666L25.7628 192.996L25.7628 192.996L25.4274 193.666ZM23.7332 189.693C23.8641 189.3 23.6518 188.876 23.2588 188.745C22.8659 188.614 22.4411 188.826 22.3101 189.219L23.7332 189.693ZM19.2644 166V172.616H20.7644V166H19.2644ZM19.2644 172.616V184.645H20.7644V172.616H19.2644ZM19.2644 184.645C19.2644 185.355 19.626 186.001 20.1318 186.471C20.6442 186.946 21.3469 187.286 22.1446 187.388C23.7863 187.598 25.6935 186.801 27.2543 184.459L26.0063 183.627C24.6802 185.616 23.2795 186.021 22.3349 185.901C21.8396 185.837 21.4295 185.629 21.1525 185.371C20.8689 185.108 20.7644 184.836 20.7644 184.645H19.2644ZM14 173.366H20.0144V171.866H14V173.366ZM20.0144 173.366H32.6447V171.866H20.0144V173.366ZM32.0803 172.122L23.6601 181.745L24.789 182.733L33.2092 173.11L32.0803 172.122ZM24.52 182.928C26.5135 182.074 28.3634 181.996 29.6654 182.678C30.9157 183.333 31.8947 184.818 31.8947 187.652H33.3947C33.3947 184.471 32.2687 182.348 30.3614 181.349C28.5059 180.377 26.1457 180.6 23.9291 181.55L24.52 182.928ZM31.8947 187.652C31.8947 189.353 31.5406 190.525 31.047 191.329C30.5568 192.127 29.8997 192.612 29.2032 192.897C28.4973 193.186 27.744 193.271 27.0914 193.246C26.4204 193.22 25.9349 193.082 25.7628 192.996L25.092 194.337C25.5213 194.552 26.2387 194.714 27.0338 194.745C27.8472 194.776 28.823 194.673 29.7711 194.285C30.7286 193.894 31.6502 193.213 32.3254 192.113C32.997 191.019 33.3947 189.559 33.3947 187.652H31.8947ZM25.7628 192.996C25.27 192.749 24.6152 192.229 24.1623 191.582C23.7092 190.935 23.5366 190.283 23.7332 189.693L22.3101 189.219C21.9053 190.434 22.3341 191.586 22.9335 192.443C23.5332 193.299 24.382 193.982 25.092 194.337L25.7628 192.996Z" fill="#5452F6"/>
<line x1="71" y1="181.5" x2="220" y2="181.5" stroke="#5452F6" stroke-width="2"/>
<path d="M210 172L220.5 181.5L210 190.5" stroke="#5452F6" stroke-width="2" stroke-linecap="round" stroke-linejoin="round"/>
<circle cx="66.5" cy="182" r="5.5" stroke="#5452F6" stroke-width="2"/>
<path d="M5.43652 222.643L7.52832 219.047H9.52441L6.5166 223.982L9.59277 229H7.57617L5.43652 225.35L3.29004 229H1.28027L4.36328 223.982L1.34863 219.047H3.34473L5.43652 222.643ZM18.0625 220.441H14.959V229H13.2432V220.441H10.167V219.047H18.0625V220.441ZM21.002 227.619H26.3203V229H18.9102V227.879L24.0576 220.441H18.9443V219.047H26.1562V220.141L21.002 227.619ZM34.1748 227.811C34.5895 227.811 34.9336 227.69 35.207 227.448C35.4805 227.207 35.6263 226.908 35.6445 226.553H37.21C37.1917 227.013 37.0482 227.444 36.7793 227.845C36.5104 228.241 36.1458 228.556 35.6855 228.788C35.2253 229.021 34.7285 229.137 34.1953 229.137C33.1608 229.137 32.3405 228.802 31.7344 228.132C31.1283 227.462 30.8252 226.537 30.8252 225.356V225.186C30.8252 224.06 31.126 223.16 31.7275 222.485C32.3291 221.806 33.1494 221.467 34.1885 221.467C35.068 221.467 35.7835 221.724 36.335 222.239C36.891 222.75 37.1826 223.422 37.21 224.256H35.6445C35.6263 223.832 35.4805 223.483 35.207 223.21C34.9382 222.937 34.5941 222.8 34.1748 222.8C33.637 222.8 33.2223 222.996 32.9307 223.388C32.639 223.775 32.4909 224.365 32.4863 225.158V225.425C32.4863 226.227 32.6299 226.826 32.917 227.223C33.2087 227.615 33.6279 227.811 34.1748 227.811ZM42.8838 229C42.8109 228.859 42.7471 228.629 42.6924 228.31C42.1637 228.861 41.5166 229.137 40.751 229.137C40.0081 229.137 39.402 228.925 38.9326 228.501C38.4632 228.077 38.2285 227.553 38.2285 226.929C38.2285 226.14 38.5202 225.536 39.1035 225.117C39.6914 224.693 40.5299 224.481 41.6191 224.481H42.6377V223.996C42.6377 223.613 42.5306 223.308 42.3164 223.08C42.1022 222.848 41.7764 222.731 41.3389 222.731C40.9606 222.731 40.6507 222.827 40.4092 223.019C40.1676 223.205 40.0469 223.445 40.0469 223.736H38.3857C38.3857 223.331 38.5202 222.952 38.7891 222.602C39.0579 222.246 39.4225 221.968 39.8828 221.768C40.3477 221.567 40.8649 221.467 41.4346 221.467C42.3005 221.467 42.9909 221.686 43.5059 222.123C44.0208 222.556 44.2852 223.167 44.2988 223.955V227.291C44.2988 227.956 44.3923 228.487 44.5791 228.884V229H42.8838ZM41.0586 227.804C41.3867 227.804 41.6943 227.724 41.9814 227.564C42.2731 227.405 42.4919 227.191 42.6377 226.922V225.527H41.7422C41.127 225.527 40.6644 225.634 40.3545 225.849C40.0446 226.063 39.8896 226.366 39.8896 226.758C39.8896 227.077 39.9945 227.332 40.2041 227.523C40.4183 227.71 40.7031 227.804 41.0586 227.804ZM47.5801 221.604L47.6279 222.458C48.1748 221.797 48.8926 221.467 49.7812 221.467C51.3216 221.467 52.1055 222.349 52.1328 224.112V229H50.4717V224.208C50.4717 223.739 50.3691 223.392 50.1641 223.169C49.9635 222.941 49.6331 222.827 49.1729 222.827C48.5029 222.827 48.0039 223.13 47.6758 223.736V229H46.0146V221.604H47.5801ZM53.3564 222L52.5088 221.474C52.9189 220.877 53.1309 220.245 53.1445 219.58V218.5H54.6006V219.443C54.6006 219.913 54.4798 220.387 54.2383 220.865C54.0013 221.339 53.7074 221.717 53.3564 222ZM58.1279 219.806V221.604H59.4336V222.834H58.1279V226.963C58.1279 227.245 58.1826 227.451 58.292 227.578C58.4059 227.701 58.6064 227.763 58.8936 227.763C59.085 227.763 59.2786 227.74 59.4746 227.694V228.979C59.0964 229.084 58.7318 229.137 58.3809 229.137C57.1048 229.137 56.4668 228.433 56.4668 227.024V222.834H55.25V221.604H56.4668V219.806H58.1279ZM65.9619 229H64.3008V221.604H65.9619V229ZM64.1982 219.683C64.1982 219.427 64.278 219.215 64.4375 219.047C64.6016 218.878 64.834 218.794 65.1348 218.794C65.4355 218.794 65.668 218.878 65.832 219.047C65.9961 219.215 66.0781 219.427 66.0781 219.683C66.0781 219.933 65.9961 220.143 65.832 220.312C65.668 220.476 65.4355 220.558 65.1348 220.558C64.834 220.558 64.6016 220.476 64.4375 220.312C64.278 220.143 64.1982 219.933 64.1982 219.683ZM69.3184 221.604L69.3662 222.458C69.9131 221.797 70.6309 221.467 71.5195 221.467C73.0599 221.467 73.8438 222.349 73.8711 224.112V229H72.21V224.208C72.21 223.739 72.1074 223.392 71.9023 223.169C71.7018 222.941 71.3714 222.827 70.9111 222.827C70.2412 222.827 69.7422 223.13 69.4141 223.736V229H67.7529V221.604H69.3184ZM77.6514 219.806V221.604H78.957V222.834H77.6514V226.963C77.6514 227.245 77.7061 227.451 77.8154 227.578C77.9294 227.701 78.1299 227.763 78.417 227.763C78.6084 227.763 78.8021 227.74 78.998 227.694V228.979C78.6198 229.084 78.2552 229.137 77.9043 229.137C76.6283 229.137 75.9902 228.433 75.9902 227.024V222.834H74.7734V221.604H75.9902V219.806H77.6514ZM83.4893 229.137C82.4365 229.137 81.582 228.806 80.9258 228.146C80.2741 227.48 79.9482 226.596 79.9482 225.493V225.288C79.9482 224.55 80.0895 223.891 80.3721 223.312C80.6592 222.729 81.0602 222.276 81.5752 221.952C82.0902 221.629 82.6644 221.467 83.2979 221.467C84.305 221.467 85.082 221.788 85.6289 222.431C86.1803 223.073 86.4561 223.982 86.4561 225.158V225.828H81.623C81.6732 226.439 81.876 226.922 82.2314 227.277C82.5915 227.633 83.0426 227.811 83.585 227.811C84.346 227.811 84.9658 227.503 85.4443 226.888L86.3398 227.742C86.0436 228.184 85.6471 228.528 85.1504 228.774C84.6582 229.016 84.1045 229.137 83.4893 229.137ZM83.291 222.8C82.8353 222.8 82.4661 222.959 82.1836 223.278C81.9056 223.597 81.7279 224.042 81.6504 224.611H84.8154V224.488C84.779 223.932 84.6309 223.513 84.3711 223.23C84.1113 222.943 83.7513 222.8 83.291 222.8ZM91.624 223.121C91.4053 223.085 91.1797 223.066 90.9473 223.066C90.1862 223.066 89.6735 223.358 89.4092 223.941V229H87.748V221.604H89.334L89.375 222.431C89.776 221.788 90.332 221.467 91.043 221.467C91.2799 221.467 91.4759 221.499 91.6309 221.562L91.624 223.121ZM96.8877 229C96.8148 228.859 96.751 228.629 96.6963 228.31C96.1676 228.861 95.5205 229.137 94.7549 229.137C94.012 229.137 93.4059 228.925 92.9365 228.501C92.4671 228.077 92.2324 227.553 92.2324 226.929C92.2324 226.14 92.5241 225.536 93.1074 225.117C93.6953 224.693 94.5339 224.481 95.623 224.481H96.6416V223.996C96.6416 223.613 96.5345 223.308 96.3203 223.08C96.1061 222.848 95.7803 222.731 95.3428 222.731C94.9645 222.731 94.6546 222.827 94.4131 223.019C94.1715 223.205 94.0508 223.445 94.0508 223.736H92.3896C92.3896 223.331 92.5241 222.952 92.793 222.602C93.0618 222.246 93.4264 221.968 93.8867 221.768C94.3516 221.567 94.8688 221.467 95.4385 221.467C96.3044 221.467 96.9948 221.686 97.5098 222.123C98.0247 222.556 98.2891 223.167 98.3027 223.955V227.291C98.3027 227.956 98.3962 228.487 98.583 228.884V229H96.8877ZM95.0625 227.804C95.3906 227.804 95.6982 227.724 95.9854 227.564C96.277 227.405 96.4958 227.191 96.6416 226.922V225.527H95.7461C95.1309 225.527 94.6683 225.634 94.3584 225.849C94.0485 226.063 93.8936 226.366 93.8936 226.758C93.8936 227.077 93.9984 227.332 94.208 227.523C94.4222 227.71 94.707 227.804 95.0625 227.804ZM103.081 227.811C103.496 227.811 103.84 227.69 104.113 227.448C104.387 227.207 104.533 226.908 104.551 226.553H106.116C106.098 227.013 105.954 227.444 105.686 227.845C105.417 228.241 105.052 228.556 104.592 228.788C104.132 229.021 103.635 229.137 103.102 229.137C102.067 229.137 101.247 228.802 100.641 228.132C100.035 227.462 99.7314 226.537 99.7314 225.356V225.186C99.7314 224.06 100.032 223.16 100.634 222.485C101.235 221.806 102.056 221.467 103.095 221.467C103.974 221.467 104.69 221.724 105.241 222.239C105.797 222.75 106.089 223.422 106.116 224.256H104.551C104.533 223.832 104.387 223.483 104.113 223.21C103.844 222.937 103.5 222.8 103.081 222.8C102.543 222.8 102.129 222.996 101.837 223.388C101.545 223.775 101.397 224.365 101.393 225.158V225.425C101.393 226.227 101.536 226.826 101.823 227.223C102.115 227.615 102.534 227.811 103.081 227.811ZM109.452 219.806V221.604H110.758V222.834H109.452V226.963C109.452 227.245 109.507 227.451 109.616 227.578C109.73 227.701 109.931 227.763 110.218 227.763C110.409 227.763 110.603 227.74 110.799 227.694V228.979C110.421 229.084 110.056 229.137 109.705 229.137C108.429 229.137 107.791 228.433 107.791 227.024V222.834H106.574V221.604H107.791V219.806H109.452ZM122.017 226.71L123.192 221.604H124.812L122.796 229H121.429L119.843 223.921L118.284 229H116.917L114.894 221.604H116.514L117.71 226.655L119.228 221.604H120.479L122.017 226.71ZM127.69 229H126.029V221.604H127.69V229ZM125.927 219.683C125.927 219.427 126.007 219.215 126.166 219.047C126.33 218.878 126.562 218.794 126.863 218.794C127.164 218.794 127.396 218.878 127.561 219.047C127.725 219.215 127.807 219.427 127.807 219.683C127.807 219.933 127.725 220.143 127.561 220.312C127.396 220.476 127.164 220.558 126.863 220.558C126.562 220.558 126.33 220.476 126.166 220.312C126.007 220.143 125.927 219.933 125.927 219.683ZM131.587 219.806V221.604H132.893V222.834H131.587V226.963C131.587 227.245 131.642 227.451 131.751 227.578C131.865 227.701 132.065 227.763 132.353 227.763C132.544 227.763 132.738 227.74 132.934 227.694V228.979C132.555 229.084 132.191 229.137 131.84 229.137C130.564 229.137 129.926 228.433 129.926 227.024V222.834H128.709V221.604H129.926V219.806H131.587ZM135.805 222.41C136.347 221.781 137.033 221.467 137.862 221.467C139.439 221.467 140.239 222.367 140.262 224.167V229H138.601V224.229C138.601 223.718 138.489 223.358 138.266 223.148C138.047 222.934 137.723 222.827 137.295 222.827C136.63 222.827 136.133 223.123 135.805 223.716V229H134.144V218.5H135.805V222.41ZM147.515 219.806V221.604H148.82V222.834H147.515V226.963C147.515 227.245 147.569 227.451 147.679 227.578C147.793 227.701 147.993 227.763 148.28 227.763C148.472 227.763 148.665 227.74 148.861 227.694V228.979C148.483 229.084 148.118 229.137 147.768 229.137C146.492 229.137 145.854 228.433 145.854 227.024V222.834H144.637V221.604H145.854V219.806H147.515ZM151.732 222.41C152.275 221.781 152.961 221.467 153.79 221.467C155.367 221.467 156.167 222.367 156.189 224.167V229H154.528V224.229C154.528 223.718 154.417 223.358 154.193 223.148C153.975 222.934 153.651 222.827 153.223 222.827C152.557 222.827 152.061 223.123 151.732 223.716V229H150.071V218.5H151.732V222.41ZM161.132 229.137C160.079 229.137 159.225 228.806 158.568 228.146C157.917 227.48 157.591 226.596 157.591 225.493V225.288C157.591 224.55 157.732 223.891 158.015 223.312C158.302 222.729 158.703 222.276 159.218 221.952C159.733 221.629 160.307 221.467 160.94 221.467C161.948 221.467 162.725 221.788 163.271 222.431C163.823 223.073 164.099 223.982 164.099 225.158V225.828H159.266C159.316 226.439 159.519 226.922 159.874 227.277C160.234 227.633 160.685 227.811 161.228 227.811C161.989 227.811 162.608 227.503 163.087 226.888L163.982 227.742C163.686 228.184 163.29 228.528 162.793 228.774C162.301 229.016 161.747 229.137 161.132 229.137ZM160.934 222.8C160.478 222.8 160.109 222.959 159.826 223.278C159.548 223.597 159.37 224.042 159.293 224.611H162.458V224.488C162.422 223.932 162.273 223.513 162.014 223.23C161.754 222.943 161.394 222.8 160.934 222.8ZM174.776 224.782H170.771V229H169.041V219.047H175.364V220.441H170.771V223.401H174.776V224.782ZM180.997 226.683H177.142L176.335 229H174.537L178.297 219.047H179.849L183.615 229H181.811L180.997 226.683ZM177.627 225.288H180.512L179.069 221.159L177.627 225.288ZM190.157 219.806V221.604H191.463V222.834H190.157V226.963C190.157 227.245 190.212 227.451 190.321 227.578C190.435 227.701 190.636 227.763 190.923 227.763C191.114 227.763 191.308 227.74 191.504 227.694V228.979C191.126 229.084 190.761 229.137 190.41 229.137C189.134 229.137 188.496 228.433 188.496 227.024V222.834H187.279V221.604H188.496V219.806H190.157ZM192.222 225.233C192.222 224.509 192.365 223.857 192.652 223.278C192.939 222.695 193.343 222.248 193.862 221.938C194.382 221.624 194.979 221.467 195.653 221.467C196.651 221.467 197.46 221.788 198.08 222.431C198.704 223.073 199.042 223.925 199.092 224.987L199.099 225.377C199.099 226.106 198.957 226.758 198.675 227.332C198.397 227.906 197.996 228.351 197.472 228.665C196.952 228.979 196.351 229.137 195.667 229.137C194.623 229.137 193.787 228.79 193.158 228.098C192.534 227.4 192.222 226.473 192.222 225.315V225.233ZM193.883 225.377C193.883 226.138 194.04 226.735 194.354 227.168C194.669 227.596 195.106 227.811 195.667 227.811C196.228 227.811 196.663 227.592 196.973 227.154C197.287 226.717 197.444 226.076 197.444 225.233C197.444 224.486 197.283 223.894 196.959 223.456C196.64 223.019 196.205 222.8 195.653 222.8C195.111 222.8 194.68 223.016 194.361 223.449C194.042 223.878 193.883 224.52 193.883 225.377ZM202.906 225.828L202.168 226.587V229H200.507V218.5H202.168V224.557L202.688 223.907L204.731 221.604H206.728L203.979 224.687L207.021 229H205.101L202.906 225.828ZM210.938 229.137C209.886 229.137 209.031 228.806 208.375 228.146C207.723 227.48 207.397 226.596 207.397 225.493V225.288C207.397 224.55 207.539 223.891 207.821 223.312C208.108 222.729 208.509 222.276 209.024 221.952C209.539 221.629 210.114 221.467 210.747 221.467C211.754 221.467 212.531 221.788 213.078 222.431C213.63 223.073 213.905 223.982 213.905 225.158V225.828H209.072C209.122 226.439 209.325 226.922 209.681 227.277C210.041 227.633 210.492 227.811 211.034 227.811C211.795 227.811 212.415 227.503 212.894 226.888L213.789 227.742C213.493 228.184 213.096 228.528 212.6 228.774C212.107 229.016 211.554 229.137 210.938 229.137ZM210.74 222.8C210.285 222.8 209.915 222.959 209.633 223.278C209.355 223.597 209.177 224.042 209.1 224.611H212.265V224.488C212.228 223.932 212.08 223.513 211.82 223.23C211.561 222.943 211.201 222.8 210.74 222.8ZM216.742 221.604L216.79 222.458C217.337 221.797 218.055 221.467 218.943 221.467C220.484 221.467 221.268 222.349 221.295 224.112V229H219.634V224.208C219.634 223.739 219.531 223.392 219.326 223.169C219.126 222.941 218.795 222.827 218.335 222.827C217.665 222.827 217.166 223.13 216.838 223.736V229H215.177V221.604H216.742ZM227.14 226.99C227.14 226.694 227.017 226.468 226.771 226.313C226.529 226.159 226.126 226.022 225.561 225.903C224.995 225.785 224.524 225.634 224.146 225.452C223.316 225.051 222.901 224.47 222.901 223.709C222.901 223.071 223.17 222.538 223.708 222.109C224.246 221.681 224.929 221.467 225.759 221.467C226.643 221.467 227.356 221.686 227.898 222.123C228.445 222.561 228.719 223.128 228.719 223.825H227.058C227.058 223.506 226.939 223.242 226.702 223.032C226.465 222.818 226.151 222.711 225.759 222.711C225.394 222.711 225.096 222.795 224.863 222.964C224.635 223.132 224.521 223.358 224.521 223.641C224.521 223.896 224.629 224.094 224.843 224.235C225.057 224.377 225.49 224.52 226.142 224.666C226.793 224.807 227.304 224.978 227.673 225.179C228.047 225.375 228.322 225.612 228.5 225.89C228.682 226.168 228.773 226.505 228.773 226.901C228.773 227.567 228.498 228.107 227.946 228.521C227.395 228.932 226.673 229.137 225.779 229.137C225.173 229.137 224.633 229.027 224.159 228.809C223.685 228.59 223.316 228.289 223.052 227.906C222.787 227.523 222.655 227.111 222.655 226.669H224.269C224.291 227.061 224.439 227.364 224.713 227.578C224.986 227.788 225.349 227.893 225.8 227.893C226.237 227.893 226.57 227.811 226.798 227.646C227.026 227.478 227.14 227.259 227.14 226.99Z" fill="#DE1306"/>
<path d="M315 173.5C327.426 173.5 337.5 163.426 337.5 151C337.5 138.574 327.426 128.5 315 128.5C302.574 128.5 292.5 138.574 292.5 151C292.5 163.426 302.574 173.5 315 173.5Z" stroke="#FF5A43" stroke-width="1.5" stroke-linecap="round" stroke-linejoin="round"/>
<path d="M302.5 146.5H305C305.663 146.5 306.299 146.763 306.768 147.232C307.237 147.701 307.5 148.337 307.5 149V156C307.5 156.265 307.395 156.52 307.207 156.707C307.02 156.895 306.765 157 306.5 157H301C300.735 157 300.48 156.895 300.293 156.707C300.105 156.52 300 156.265 300 156V149C300 148.337 300.263 147.701 300.732 147.232C301.201 146.763 301.837 146.5 302.5 146.5Z" stroke="#FF5A43" stroke-width="1.5" stroke-linecap="round" stroke-linejoin="round"/>
<path d="M314.5 146.5H317C317.663 146.5 318.299 146.763 318.768 147.232C319.237 147.701 319.5 148.337 319.5 149V156C319.5 156.265 319.395 156.52 319.207 156.707C319.02 156.895 318.765 157 318.5 157H313C312.735 157 312.48 156.895 312.293 156.707C312.105 156.52 312 156.265 312 156V149C312 148.337 312.263 147.701 312.732 147.232C313.201 146.763 313.837 146.5 314.5 146.5Z" stroke="#FF5A43" stroke-width="1.5" stroke-linecap="round" stroke-linejoin="round"/>
<path d="M326.5 146.5H329C329.663 146.5 330.299 146.763 330.768 147.232C331.237 147.701 331.5 148.337 331.5 149V156C331.5 156.265 331.395 156.52 331.207 156.707C331.02 156.895 330.765 157 330.5 157H325C324.735 157 324.48 156.895 324.293 156.707C324.105 156.52 324 156.265 324 156V149C324 148.337 324.263 147.701 324.732 147.232C325.201 146.763 325.837 146.5 326.5 146.5Z" stroke="#FF5A43" stroke-width="1.5" stroke-linecap="round" stroke-linejoin="round"/>
<path d="M480 174.5C492.426 174.5 502.5 164.426 502.5 152C502.5 139.574 492.426 129.5 480 129.5C467.574 129.5 457.5 139.574 457.5 152C457.5 164.426 467.574 174.5 480 174.5Z" stroke="#DE1306" stroke-width="1.5" stroke-linecap="round" stroke-linejoin="round"/>
<path d="M466.703 162.5L474.885 143" stroke="#DE1306" stroke-width="1.5" stroke-linecap="round" stroke-linejoin="round"/>
<path d="M485.113 162.5L493.295 143" stroke="#DE1306" stroke-width="1.5" stroke-linecap="round" stroke-linejoin="round"/>
<path d="M474.887 143L487.529 156.744" stroke="#DE1306" stroke-width="1.5" stroke-linecap="round" stroke-linejoin="round"/>
<path d="M472.473 148.756L485.115 162.5" stroke="#DE1306" stroke-width="1.5" stroke-linecap="round" stroke-linejoin="round"/>
<path d="M644 174.5C656.426 174.5 666.5 164.426 666.5 152C666.5 139.574 656.426 129.5 644 129.5C631.574 129.5 621.5 139.574 621.5 152C621.5 164.426 631.574 174.5 644 174.5Z" stroke="#2097F6" stroke-width="1.5" stroke-linecap="round" stroke-linejoin="round"/>
<path d="M629.682 146H640.3C640.488 145.999 640.673 146.05 640.834 146.147C640.996 146.245 641.127 146.385 641.214 146.552L647.068 158H658.318" stroke="#2097F6" stroke-width="1.5" stroke-linecap="round" stroke-linejoin="round"/>
<path d="M648.09 146H658.708C658.897 145.999 659.083 146.051 659.245 146.15C659.407 146.249 659.538 146.391 659.624 146.56L665.586 158.36" stroke="#2097F6" stroke-width="1.5" stroke-linecap="round" stroke-linejoin="round"/>
<path d="M622.422 145.6L628.376 157.44C628.462 157.609 628.593 157.751 628.755 157.85C628.916 157.949 629.102 158.001 629.292 158H639.91" stroke="#2097F6" stroke-width="1.5" stroke-linecap="round" stroke-linejoin="round"/>
<line x1="359" y1="150.5" x2="446" y2="150.5" stroke="#5452F6" stroke-width="2"/>
<path d="M436 141L446.5 150.5L436 159.5" stroke="#5452F6" stroke-width="2" stroke-linecap="round" stroke-linejoin="round"/>
<circle cx="354.5" cy="151" r="5.5" stroke="#5452F6" stroke-width="2"/>
<path d="M481 276.5C493.426 276.5 503.5 266.426 503.5 254C503.5 241.574 493.426 231.5 481 231.5C468.574 231.5 458.5 241.574 458.5 254C458.5 266.426 468.574 276.5 481 276.5Z" stroke="#FFEA31" stroke-width="1.5" stroke-linecap="round" stroke-linejoin="round"/>
<path d="M473 275L489.798 233.5" stroke="#FFEA31" stroke-width="1.5" stroke-linecap="round" stroke-linejoin="round"/>
<path d="M645 276.5C657.426 276.5 667.5 266.426 667.5 254C667.5 241.574 657.426 231.5 645 231.5C632.574 231.5 622.5 241.574 622.5 254C622.5 266.426 632.574 276.5 645 276.5Z" stroke="#5452F6" stroke-width="1.5" stroke-linecap="round" stroke-linejoin="round"/>
<path d="M625 245H640.141C640.409 244.998 640.673 245.073 640.903 245.215C641.133 245.357 641.32 245.561 641.444 245.805L649.791 262.5H665.833" stroke="#5452F6" stroke-width="1.5" stroke-linecap="round" stroke-linejoin="round"/>
<line x1="123.293" y1="199.941" x2="157.941" y2="165.293" stroke="#DE1306" stroke-width="2"/>
<line x1="124.707" y1="165.293" x2="159.355" y2="199.941" stroke="#DE1306" stroke-width="2"/>
<line x1="442.025" y1="234.067" x2="340.7" y2="175.567" stroke="#5452F6" stroke-width="2"/>
<path d="M344.61 188.794L340.267 175.317L353.86 172.773" stroke="#5452F6" stroke-width="2" stroke-linecap="round" stroke-linejoin="round"/>
<circle cx="446.172" cy="235.884" r="5.5" transform="rotate(-150 446.172 235.884)" stroke="#5452F6" stroke-width="2"/>
<line x1="525" y1="252.5" x2="612" y2="252.5" stroke="#5452F6" stroke-width="2"/>
<path d="M602 243L612.5 252.5L602 261.5" stroke="#5452F6" stroke-width="2" stroke-linecap="round" stroke-linejoin="round"/>
<circle cx="520.5" cy="253" r="5.5" stroke="#5452F6" stroke-width="2"/>
<line x1="603" y1="151.5" x2="516" y2="151.5" stroke="#5452F6" stroke-width="2"/>
<path d="M526 161L515.5 151.5L526 142.5" stroke="#5452F6" stroke-width="2" stroke-linecap="round" stroke-linejoin="round"/>
<circle cx="607.5" cy="151" r="5.5" transform="rotate(180 607.5 151)" stroke="#5452F6" stroke-width="2"/>
<line x1="480.5" y1="194" x2="480.5" y2="221" stroke="#5452F6" stroke-width="2"/>
<path d="M490 211L480.5 221.5L471.5 211" stroke="#5452F6" stroke-width="2" stroke-linecap="round" stroke-linejoin="round"/>
<circle cx="480" cy="189.5" r="5.5" transform="rotate(90 480 189.5)" stroke="#5452F6" stroke-width="2"/>
<defs>
<filter id="filter0_d" x="238" y="0" width="490" height="359" filterUnits="userSpaceOnUse" color-interpolation-filters="sRGB">
<feFlood flood-opacity="0" result="BackgroundImageFix"/>
<feColorMatrix in="SourceAlpha" type="matrix" values="0 0 0 0 0 0 0 0 0 0 0 0 0 0 0 0 0 0 127 0"/>
<feOffset dx="4" dy="4"/>
<feColorMatrix type="matrix" values="0 0 0 0 0.674908 0 0 0 0 0.662083 0 0 0 0 0.945833 0 0 0 1 0"/>
<feBlend mode="normal" in2="BackgroundImageFix" result="effect1_dropShadow"/>
<feBlend mode="normal" in="SourceGraphic" in2="effect1_dropShadow" result="shape"/>
</filter>
</defs>
</svg>
