<svg width="782" height="535" viewBox="0 0 782 535" fill="none" xmlns="http://www.w3.org/2000/svg">
<path d="M270.5 464C270.5 483.327 255.54 500.945 231.081 513.762C206.645 526.566 172.853 534.5 135.5 534.5C98.1468 534.5 64.3547 526.566 39.9191 513.762C15.4598 500.945 0.5 483.327 0.5 464V205C0.5 185.673 15.4598 168.055 39.9191 155.238C64.3547 142.434 98.1468 134.5 135.5 134.5C172.853 134.5 206.645 142.434 231.081 155.238C255.54 168.055 270.5 185.673 270.5 205V464Z" fill="#FEEBEA" stroke="#DE1306"/>
<path d="M270.5 205C270.5 224.327 255.54 241.945 231.081 254.762C206.645 267.566 172.853 275.5 135.5 275.5C98.1468 275.5 64.3547 267.566 39.9191 254.762C15.4598 241.945 0.5 224.327 0.5 205C0.5 185.673 15.4598 168.055 39.9191 155.238C64.3547 142.434 98.1468 134.5 135.5 134.5C172.853 134.5 206.645 142.434 231.081 155.238C255.54 168.055 270.5 185.673 270.5 205Z" stroke="#DE1306"/>
<path d="M270.5 330C270.5 349.327 255.54 366.945 231.081 379.762C206.645 392.566 172.853 400.5 135.5 400.5C98.1468 400.5 64.3547 392.566 39.9191 379.762C15.4598 366.945 0.5 349.327 0.5 330V71C0.5 51.673 15.4598 34.0546 39.9191 21.2383C64.3547 8.4344 98.1468 0.5 135.5 0.5C172.853 0.5 206.645 8.4344 231.081 21.2383C255.54 34.0546 270.5 51.673 270.5 71V330Z" fill="#E5FDE8" stroke="#65BF73"/>
<path d="M270.5 71C270.5 90.327 255.54 107.945 231.081 120.762C206.645 133.566 172.853 141.5 135.5 141.5C98.1468 141.5 64.3547 133.566 39.9191 120.762C15.4598 107.945 0.5 90.327 0.5 71C0.5 51.673 15.4598 34.0546 39.9191 21.2383C64.3547 8.4344 98.1468 0.5 135.5 0.5C172.853 0.5 206.645 8.4344 231.081 21.2383C255.54 34.0546 270.5 51.673 270.5 71Z" stroke="#65BF73"/>
<path d="M122.555 224.625V232.359C122.549 233.432 122.211 234.31 121.539 234.992C120.872 235.674 119.966 236.057 118.82 236.141L118.422 236.156C117.177 236.156 116.185 235.82 115.445 235.148C114.706 234.477 114.331 233.552 114.32 232.375V224.625H115.805V232.328C115.805 233.151 116.031 233.792 116.484 234.25C116.938 234.703 117.583 234.93 118.422 234.93C119.271 234.93 119.919 234.703 120.367 234.25C120.82 233.797 121.047 233.159 121.047 232.336V224.625H122.555ZM128.273 230.93C126.987 230.56 126.049 230.107 125.461 229.57C124.878 229.029 124.586 228.362 124.586 227.57C124.586 226.674 124.943 225.935 125.656 225.352C126.375 224.763 127.307 224.469 128.453 224.469C129.234 224.469 129.93 224.62 130.539 224.922C131.154 225.224 131.628 225.641 131.961 226.172C132.299 226.703 132.469 227.284 132.469 227.914H130.961C130.961 227.227 130.742 226.688 130.305 226.297C129.867 225.901 129.25 225.703 128.453 225.703C127.714 225.703 127.135 225.867 126.719 226.195C126.307 226.518 126.102 226.969 126.102 227.547C126.102 228.01 126.297 228.404 126.688 228.727C127.083 229.044 127.753 229.336 128.695 229.602C129.643 229.867 130.383 230.161 130.914 230.484C131.451 230.802 131.846 231.174 132.102 231.602C132.362 232.029 132.492 232.531 132.492 233.109C132.492 234.031 132.133 234.771 131.414 235.328C130.695 235.88 129.734 236.156 128.531 236.156C127.75 236.156 127.021 236.008 126.344 235.711C125.667 235.409 125.143 234.997 124.773 234.477C124.409 233.956 124.227 233.365 124.227 232.703H125.734C125.734 233.391 125.987 233.935 126.492 234.336C127.003 234.732 127.682 234.93 128.531 234.93C129.323 234.93 129.93 234.768 130.352 234.445C130.773 234.122 130.984 233.682 130.984 233.125C130.984 232.568 130.789 232.138 130.398 231.836C130.008 231.529 129.299 231.227 128.273 230.93ZM134.422 236V224.625H137.633C138.622 224.625 139.497 224.844 140.258 225.281C141.018 225.719 141.604 226.341 142.016 227.148C142.432 227.956 142.643 228.883 142.648 229.93V230.656C142.648 231.729 142.44 232.669 142.023 233.477C141.612 234.284 141.021 234.904 140.25 235.336C139.484 235.768 138.591 235.99 137.57 236H134.422ZM135.922 225.859V234.773H137.5C138.656 234.773 139.555 234.414 140.195 233.695C140.841 232.977 141.164 231.953 141.164 230.625V229.961C141.164 228.669 140.859 227.667 140.25 226.953C139.646 226.234 138.786 225.87 137.672 225.859H135.922ZM146.656 225.5V227.547H148.234V228.664H146.656V233.906C146.656 234.245 146.727 234.5 146.867 234.672C147.008 234.839 147.247 234.922 147.586 234.922C147.753 234.922 147.982 234.891 148.273 234.828V236C147.893 236.104 147.523 236.156 147.164 236.156C146.518 236.156 146.031 235.961 145.703 235.57C145.375 235.18 145.211 234.625 145.211 233.906V228.664H143.672V227.547H145.211V225.5H146.656ZM151.289 234.82H156.234V236H149.523V234.938L154.188 228.742H149.594V227.547H156V228.57L151.289 234.82Z" fill="#65BF73"/>
<path d="M125.453 459.984L128.18 455.625H129.945L126.352 461.266L130.031 467H128.25L125.453 462.562L122.641 467H120.867L124.555 461.266L120.953 455.625H122.711L125.453 459.984ZM139.633 456.859H135.977V467H134.484V456.859H130.836V455.625H139.633V456.859ZM142.445 465.773H148.953V467H140.672V465.875L146.906 456.859H140.773V455.625H148.703V456.727L142.445 465.773Z" fill="#DE1306"/>
<rect x="496.5" y="146.5" width="285" height="242" rx="7.5" fill="white"/>
<rect x="496.5" y="146.5" width="285" height="242" rx="7.5" stroke="#5452F6"/>
<rect x="551" y="185" width="180" height="34" rx="17" fill="#E5FDE8"/>
<path d="M609.961 207.5H608.508V197.867L605.594 198.938V197.625L609.734 196.07H609.961V207.5ZM621.328 202.648C621.328 204.341 621.039 205.599 620.461 206.422C619.883 207.245 618.979 207.656 617.75 207.656C616.536 207.656 615.638 207.255 615.055 206.453C614.471 205.646 614.169 204.443 614.148 202.844V200.914C614.148 199.242 614.438 198 615.016 197.188C615.594 196.375 616.5 195.969 617.734 195.969C618.958 195.969 619.859 196.362 620.438 197.148C621.016 197.93 621.312 199.138 621.328 200.773V202.648ZM619.883 200.672C619.883 199.448 619.711 198.557 619.367 198C619.023 197.438 618.479 197.156 617.734 197.156C616.995 197.156 616.456 197.435 616.117 197.992C615.779 198.549 615.604 199.406 615.594 200.562V202.875C615.594 204.104 615.771 205.013 616.125 205.602C616.484 206.185 617.026 206.477 617.75 206.477C618.464 206.477 618.992 206.201 619.336 205.648C619.685 205.096 619.867 204.227 619.883 203.039V200.672ZM630.312 202.648C630.312 204.341 630.023 205.599 629.445 206.422C628.867 207.245 627.964 207.656 626.734 207.656C625.521 207.656 624.622 207.255 624.039 206.453C623.456 205.646 623.154 204.443 623.133 202.844V200.914C623.133 199.242 623.422 198 624 197.188C624.578 196.375 625.484 195.969 626.719 195.969C627.943 195.969 628.844 196.362 629.422 197.148C630 197.93 630.297 199.138 630.312 200.773V202.648ZM628.867 200.672C628.867 199.448 628.695 198.557 628.352 198C628.008 197.438 627.464 197.156 626.719 197.156C625.979 197.156 625.44 197.435 625.102 197.992C624.763 198.549 624.589 199.406 624.578 200.562V202.875C624.578 204.104 624.755 205.013 625.109 205.602C625.469 206.185 626.01 206.477 626.734 206.477C627.448 206.477 627.977 206.201 628.32 205.648C628.669 205.096 628.852 204.227 628.867 203.039V200.672ZM644.516 196.125V203.859C644.51 204.932 644.172 205.81 643.5 206.492C642.833 207.174 641.927 207.557 640.781 207.641L640.383 207.656C639.138 207.656 638.146 207.32 637.406 206.648C636.667 205.977 636.292 205.052 636.281 203.875V196.125H637.766V203.828C637.766 204.651 637.992 205.292 638.445 205.75C638.898 206.203 639.544 206.43 640.383 206.43C641.232 206.43 641.88 206.203 642.328 205.75C642.781 205.297 643.008 204.659 643.008 203.836V196.125H644.516ZM650.234 202.43C648.948 202.06 648.01 201.607 647.422 201.07C646.839 200.529 646.547 199.862 646.547 199.07C646.547 198.174 646.904 197.435 647.617 196.852C648.336 196.263 649.268 195.969 650.414 195.969C651.195 195.969 651.891 196.12 652.5 196.422C653.115 196.724 653.589 197.141 653.922 197.672C654.26 198.203 654.43 198.784 654.43 199.414H652.922C652.922 198.727 652.703 198.188 652.266 197.797C651.828 197.401 651.211 197.203 650.414 197.203C649.674 197.203 649.096 197.367 648.68 197.695C648.268 198.018 648.062 198.469 648.062 199.047C648.062 199.51 648.258 199.904 648.648 200.227C649.044 200.544 649.714 200.836 650.656 201.102C651.604 201.367 652.344 201.661 652.875 201.984C653.411 202.302 653.807 202.674 654.062 203.102C654.323 203.529 654.453 204.031 654.453 204.609C654.453 205.531 654.094 206.271 653.375 206.828C652.656 207.38 651.695 207.656 650.492 207.656C649.711 207.656 648.982 207.508 648.305 207.211C647.628 206.909 647.104 206.497 646.734 205.977C646.37 205.456 646.188 204.865 646.188 204.203H647.695C647.695 204.891 647.948 205.435 648.453 205.836C648.964 206.232 649.643 206.43 650.492 206.43C651.284 206.43 651.891 206.268 652.312 205.945C652.734 205.622 652.945 205.182 652.945 204.625C652.945 204.068 652.75 203.638 652.359 203.336C651.969 203.029 651.26 202.727 650.234 202.43ZM656.383 207.5V196.125H659.594C660.583 196.125 661.458 196.344 662.219 196.781C662.979 197.219 663.565 197.841 663.977 198.648C664.393 199.456 664.604 200.383 664.609 201.43V202.156C664.609 203.229 664.401 204.169 663.984 204.977C663.573 205.784 662.982 206.404 662.211 206.836C661.445 207.268 660.552 207.49 659.531 207.5H656.383ZM657.883 197.359V206.273H659.461C660.617 206.273 661.516 205.914 662.156 205.195C662.802 204.477 663.125 203.453 663.125 202.125V201.461C663.125 200.169 662.82 199.167 662.211 198.453C661.607 197.734 660.747 197.37 659.633 197.359H657.883ZM668.617 197V199.047H670.195V200.164H668.617V205.406C668.617 205.745 668.688 206 668.828 206.172C668.969 206.339 669.208 206.422 669.547 206.422C669.714 206.422 669.943 206.391 670.234 206.328V207.5C669.854 207.604 669.484 207.656 669.125 207.656C668.479 207.656 667.992 207.461 667.664 207.07C667.336 206.68 667.172 206.125 667.172 205.406V200.164H665.633V199.047H667.172V197H668.617ZM673.25 206.32H678.195V207.5H671.484V206.438L676.148 200.242H671.555V199.047H677.961V200.07L673.25 206.32Z" fill="#65BF73"/>
<rect x="551" y="225" width="180" height="34" rx="17" fill="#FEEBEA"/>
<path d="M617.062 241.797L617.641 236.125H623.469V237.461H618.867L618.523 240.562C619.081 240.234 619.714 240.07 620.422 240.07C621.458 240.07 622.281 240.414 622.891 241.102C623.5 241.784 623.805 242.708 623.805 243.875C623.805 245.047 623.487 245.971 622.852 246.648C622.221 247.32 621.339 247.656 620.203 247.656C619.198 247.656 618.378 247.378 617.742 246.82C617.107 246.263 616.745 245.492 616.656 244.508H618.023C618.112 245.159 618.344 245.651 618.719 245.984C619.094 246.312 619.589 246.477 620.203 246.477C620.875 246.477 621.401 246.247 621.781 245.789C622.167 245.331 622.359 244.698 622.359 243.891C622.359 243.13 622.151 242.521 621.734 242.062C621.323 241.599 620.773 241.367 620.086 241.367C619.456 241.367 618.961 241.505 618.602 241.781L618.219 242.094L617.062 241.797ZM632.516 242.648C632.516 244.341 632.227 245.599 631.648 246.422C631.07 247.245 630.167 247.656 628.938 247.656C627.724 247.656 626.826 247.255 626.242 246.453C625.659 245.646 625.357 244.443 625.336 242.844V240.914C625.336 239.242 625.625 238 626.203 237.188C626.781 236.375 627.688 235.969 628.922 235.969C630.146 235.969 631.047 236.362 631.625 237.148C632.203 237.93 632.5 239.138 632.516 240.773V242.648ZM631.07 240.672C631.07 239.448 630.898 238.557 630.555 238C630.211 237.438 629.667 237.156 628.922 237.156C628.182 237.156 627.643 237.435 627.305 237.992C626.966 238.549 626.792 239.406 626.781 240.562V242.875C626.781 244.104 626.958 245.013 627.312 245.602C627.672 246.185 628.214 246.477 628.938 246.477C629.651 246.477 630.18 246.201 630.523 245.648C630.872 245.096 631.055 244.227 631.07 243.039V240.672ZM642.422 240.484L645.148 236.125H646.914L643.32 241.766L647 247.5H645.219L642.422 243.062L639.609 247.5H637.836L641.523 241.766L637.922 236.125H639.68L642.422 240.484ZM656.602 237.359H652.945V247.5H651.453V237.359H647.805V236.125H656.602V237.359ZM659.414 246.273H665.922V247.5H657.641V246.375L663.875 237.359H657.742V236.125H665.672V237.227L659.414 246.273Z" fill="#DE1306"/>
<path d="M585 165.75C588.314 165.75 591 164.407 591 162.75C591 161.093 588.314 159.75 585 159.75C581.686 159.75 579 161.093 579 162.75C579 164.407 581.686 165.75 585 165.75Z" stroke="#5452F6" stroke-width="1.5" stroke-linecap="round" stroke-linejoin="round"/>
<path d="M579 162.75V168.75C579 170.407 581.686 171.75 585 171.75C588.314 171.75 591 170.407 591 168.75V162.75" stroke="#5452F6" stroke-width="1.5" stroke-linecap="round" stroke-linejoin="round"/>
<path d="M591 165.75C591 167.407 588.314 168.75 585 168.75C581.686 168.75 579 167.407 579 165.75" stroke="#5452F6" stroke-width="1.5" stroke-linecap="round" stroke-linejoin="round"/>
<path d="M602.89 169.619H607.408V171H601.16V161.047H602.89V169.619ZM610.341 171H608.68V163.604H610.341V171ZM608.577 161.683C608.577 161.427 608.657 161.215 608.816 161.047C608.98 160.878 609.213 160.794 609.514 160.794C609.814 160.794 610.047 160.878 610.211 161.047C610.375 161.215 610.457 161.427 610.457 161.683C610.457 161.933 610.375 162.143 610.211 162.312C610.047 162.476 609.814 162.558 609.514 162.558C609.213 162.558 608.98 162.476 608.816 162.312C608.657 162.143 608.577 161.933 608.577 161.683ZM611.845 167.24C611.845 166.083 612.109 165.164 612.638 164.485C613.166 163.806 613.882 163.467 614.784 163.467C615.609 163.467 616.263 163.756 616.746 164.335L616.842 163.604H618.318V173.844H616.657V170.371C616.174 170.882 615.545 171.137 614.771 171.137C613.886 171.137 613.178 170.793 612.645 170.104C612.111 169.412 611.845 168.457 611.845 167.24ZM613.506 167.384C613.506 168.14 613.654 168.735 613.95 169.168C614.251 169.596 614.666 169.811 615.194 169.811C615.851 169.811 616.338 169.53 616.657 168.97V165.606C616.338 165.069 615.855 164.8 615.208 164.8C614.679 164.8 614.262 165.012 613.957 165.436C613.656 165.859 613.506 166.509 613.506 167.384ZM624.594 170.275C624.106 170.85 623.413 171.137 622.516 171.137C621.714 171.137 621.105 170.902 620.69 170.433C620.28 169.963 620.075 169.284 620.075 168.396V163.604H621.736V168.375C621.736 169.314 622.126 169.783 622.905 169.783C623.712 169.783 624.257 169.494 624.539 168.915V163.604H626.2V171H624.635L624.594 170.275ZM629.659 171H627.998V163.604H629.659V171ZM627.896 161.683C627.896 161.427 627.975 161.215 628.135 161.047C628.299 160.878 628.531 160.794 628.832 160.794C629.133 160.794 629.365 160.878 629.529 161.047C629.693 161.215 629.775 161.427 629.775 161.683C629.775 161.933 629.693 162.143 629.529 162.312C629.365 162.476 629.133 162.558 628.832 162.558C628.531 162.558 628.299 162.476 628.135 162.312C627.975 162.143 627.896 161.933 627.896 161.683ZM631.163 167.247C631.163 166.108 631.427 165.194 631.956 164.506C632.485 163.813 633.193 163.467 634.082 163.467C634.866 163.467 635.499 163.74 635.982 164.287V160.5H637.644V171H636.14L636.058 170.234C635.561 170.836 634.898 171.137 634.068 171.137C633.202 171.137 632.501 170.788 631.963 170.091C631.43 169.394 631.163 168.446 631.163 167.247ZM632.824 167.391C632.824 168.143 632.968 168.73 633.255 169.154C633.547 169.574 633.959 169.783 634.492 169.783C635.171 169.783 635.668 169.48 635.982 168.874V165.716C635.677 165.123 635.185 164.827 634.506 164.827C633.968 164.827 633.553 165.041 633.262 165.47C632.97 165.894 632.824 166.534 632.824 167.391ZM641.144 171H639.482V163.604H641.144V171ZM639.38 161.683C639.38 161.427 639.46 161.215 639.619 161.047C639.783 160.878 640.016 160.794 640.316 160.794C640.617 160.794 640.85 160.878 641.014 161.047C641.178 161.215 641.26 161.427 641.26 161.683C641.26 161.933 641.178 162.143 641.014 162.312C640.85 162.476 640.617 162.558 640.316 162.558C640.016 162.558 639.783 162.476 639.619 162.312C639.46 162.143 639.38 161.933 639.38 161.683ZM645.04 161.806V163.604H646.346V164.834H645.04V168.963C645.04 169.245 645.095 169.451 645.204 169.578C645.318 169.701 645.519 169.763 645.806 169.763C645.997 169.763 646.191 169.74 646.387 169.694V170.979C646.008 171.084 645.644 171.137 645.293 171.137C644.017 171.137 643.379 170.433 643.379 169.024V164.834H642.162V163.604H643.379V161.806H645.04ZM650.208 168.621L651.712 163.604H653.482L650.543 172.121C650.092 173.365 649.326 173.987 648.246 173.987C648.005 173.987 647.738 173.946 647.446 173.864V172.579L647.761 172.6C648.18 172.6 648.494 172.522 648.704 172.367C648.918 172.217 649.087 171.962 649.21 171.602L649.449 170.966L646.852 163.604H648.643L650.208 168.621ZM659.696 171H658.035V163.604H659.696V171ZM657.933 161.683C657.933 161.427 658.012 161.215 658.172 161.047C658.336 160.878 658.568 160.794 658.869 160.794C659.17 160.794 659.402 160.878 659.566 161.047C659.73 161.215 659.812 161.427 659.812 161.683C659.812 161.933 659.73 162.143 659.566 162.312C659.402 162.476 659.17 162.558 658.869 162.558C658.568 162.558 658.336 162.476 658.172 162.312C658.012 162.143 657.933 161.933 657.933 161.683ZM663.053 163.604L663.101 164.458C663.647 163.797 664.365 163.467 665.254 163.467C666.794 163.467 667.578 164.349 667.605 166.112V171H665.944V166.208C665.944 165.739 665.842 165.392 665.637 165.169C665.436 164.941 665.106 164.827 664.646 164.827C663.976 164.827 663.477 165.13 663.148 165.736V171H661.487V163.604H663.053ZM679.268 167.377C679.268 168.521 679.008 169.435 678.488 170.118C677.969 170.797 677.271 171.137 676.396 171.137C675.585 171.137 674.936 170.87 674.448 170.337V173.844H672.787V163.604H674.318L674.387 164.355C674.874 163.763 675.537 163.467 676.376 163.467C677.278 163.467 677.985 163.804 678.495 164.479C679.01 165.148 679.268 166.08 679.268 167.274V167.377ZM677.613 167.233C677.613 166.495 677.465 165.91 677.169 165.477C676.877 165.044 676.458 164.827 675.911 164.827C675.232 164.827 674.744 165.107 674.448 165.668V168.949C674.749 169.523 675.241 169.811 675.925 169.811C676.453 169.811 676.866 169.599 677.162 169.175C677.463 168.746 677.613 168.099 677.613 167.233ZM680.368 167.233C680.368 166.509 680.512 165.857 680.799 165.278C681.086 164.695 681.489 164.248 682.009 163.938C682.528 163.624 683.125 163.467 683.8 163.467C684.798 163.467 685.607 163.788 686.227 164.431C686.851 165.073 687.188 165.925 687.238 166.987L687.245 167.377C687.245 168.106 687.104 168.758 686.821 169.332C686.543 169.906 686.142 170.351 685.618 170.665C685.099 170.979 684.497 171.137 683.813 171.137C682.77 171.137 681.934 170.79 681.305 170.098C680.68 169.4 680.368 168.473 680.368 167.315V167.233ZM682.029 167.377C682.029 168.138 682.187 168.735 682.501 169.168C682.815 169.596 683.253 169.811 683.813 169.811C684.374 169.811 684.809 169.592 685.119 169.154C685.434 168.717 685.591 168.076 685.591 167.233C685.591 166.486 685.429 165.894 685.105 165.456C684.786 165.019 684.351 164.8 683.8 164.8C683.257 164.8 682.827 165.016 682.508 165.449C682.189 165.878 682.029 166.52 682.029 167.377ZM688.339 167.233C688.339 166.509 688.482 165.857 688.77 165.278C689.057 164.695 689.46 164.248 689.979 163.938C690.499 163.624 691.096 163.467 691.771 163.467C692.769 163.467 693.577 163.788 694.197 164.431C694.822 165.073 695.159 165.925 695.209 166.987L695.216 167.377C695.216 168.106 695.075 168.758 694.792 169.332C694.514 169.906 694.113 170.351 693.589 170.665C693.069 170.979 692.468 171.137 691.784 171.137C690.741 171.137 689.904 170.79 689.275 170.098C688.651 169.4 688.339 168.473 688.339 167.315V167.233ZM690 167.377C690 168.138 690.157 168.735 690.472 169.168C690.786 169.596 691.224 169.811 691.784 169.811C692.345 169.811 692.78 169.592 693.09 169.154C693.404 168.717 693.562 168.076 693.562 167.233C693.562 166.486 693.4 165.894 693.076 165.456C692.757 165.019 692.322 164.8 691.771 164.8C691.228 164.8 690.798 165.016 690.479 165.449C690.16 165.878 690 166.52 690 167.377ZM698.388 171H696.727V160.5H698.388V171Z" fill="#5452F6"/>
<rect x="532" y="270" width="218" height="46" rx="8" fill="#EEEEFF"/>
<path d="M601.633 286.302V290H599.903V280.047H603.711C604.823 280.047 605.705 280.336 606.356 280.915C607.013 281.494 607.341 282.259 607.341 283.212C607.341 284.187 607.02 284.946 606.377 285.488C605.739 286.031 604.843 286.302 603.69 286.302H601.633ZM601.633 284.914H603.711C604.326 284.914 604.796 284.771 605.119 284.483C605.443 284.192 605.604 283.772 605.604 283.226C605.604 282.688 605.44 282.259 605.112 281.94C604.784 281.617 604.333 281.451 603.759 281.441H601.633V284.914ZM612.57 284.121C612.352 284.085 612.126 284.066 611.894 284.066C611.132 284.066 610.62 284.358 610.355 284.941V290H608.694V282.604H610.28L610.321 283.431C610.722 282.788 611.278 282.467 611.989 282.467C612.226 282.467 612.422 282.499 612.577 282.562L612.57 284.121ZM615.387 290H613.726V282.604H615.387V290ZM613.623 280.683C613.623 280.427 613.703 280.215 613.862 280.047C614.026 279.878 614.259 279.794 614.56 279.794C614.86 279.794 615.093 279.878 615.257 280.047C615.421 280.215 615.503 280.427 615.503 280.683C615.503 280.933 615.421 281.143 615.257 281.312C615.093 281.476 614.86 281.558 614.56 281.558C614.259 281.558 614.026 281.476 613.862 281.312C613.703 281.143 613.623 280.933 613.623 280.683ZM620.24 288.811C620.655 288.811 620.999 288.69 621.272 288.448C621.546 288.207 621.692 287.908 621.71 287.553H623.275C623.257 288.013 623.114 288.444 622.845 288.845C622.576 289.241 622.211 289.556 621.751 289.788C621.291 290.021 620.794 290.137 620.261 290.137C619.226 290.137 618.406 289.802 617.8 289.132C617.194 288.462 616.891 287.537 616.891 286.356V286.186C616.891 285.06 617.191 284.16 617.793 283.485C618.395 282.806 619.215 282.467 620.254 282.467C621.133 282.467 621.849 282.724 622.4 283.239C622.956 283.75 623.248 284.422 623.275 285.256H621.71C621.692 284.832 621.546 284.483 621.272 284.21C621.004 283.937 620.66 283.8 620.24 283.8C619.702 283.8 619.288 283.996 618.996 284.388C618.704 284.775 618.556 285.365 618.552 286.158V286.425C618.552 287.227 618.695 287.826 618.982 288.223C619.274 288.615 619.693 288.811 620.24 288.811ZM627.787 290.137C626.734 290.137 625.88 289.806 625.224 289.146C624.572 288.48 624.246 287.596 624.246 286.493V286.288C624.246 285.55 624.387 284.891 624.67 284.312C624.957 283.729 625.358 283.276 625.873 282.952C626.388 282.629 626.962 282.467 627.596 282.467C628.603 282.467 629.38 282.788 629.927 283.431C630.478 284.073 630.754 284.982 630.754 286.158V286.828H625.921C625.971 287.439 626.174 287.922 626.529 288.277C626.889 288.633 627.34 288.811 627.883 288.811C628.644 288.811 629.264 288.503 629.742 287.888L630.638 288.742C630.341 289.184 629.945 289.528 629.448 289.774C628.956 290.016 628.402 290.137 627.787 290.137ZM627.589 283.8C627.133 283.8 626.764 283.959 626.481 284.278C626.203 284.597 626.026 285.042 625.948 285.611H629.113V285.488C629.077 284.932 628.929 284.513 628.669 284.23C628.409 283.943 628.049 283.8 627.589 283.8ZM635.225 286.233C635.225 285.509 635.368 284.857 635.655 284.278C635.942 283.695 636.346 283.248 636.865 282.938C637.385 282.624 637.982 282.467 638.656 282.467C639.654 282.467 640.463 282.788 641.083 283.431C641.707 284.073 642.045 284.925 642.095 285.987L642.102 286.377C642.102 287.106 641.96 287.758 641.678 288.332C641.4 288.906 640.999 289.351 640.475 289.665C639.955 289.979 639.354 290.137 638.67 290.137C637.626 290.137 636.79 289.79 636.161 289.098C635.537 288.4 635.225 287.473 635.225 286.315V286.233ZM636.886 286.377C636.886 287.138 637.043 287.735 637.357 288.168C637.672 288.596 638.109 288.811 638.67 288.811C639.23 288.811 639.666 288.592 639.976 288.154C640.29 287.717 640.447 287.076 640.447 286.233C640.447 285.486 640.285 284.894 639.962 284.456C639.643 284.019 639.208 283.8 638.656 283.8C638.114 283.8 637.683 284.016 637.364 284.449C637.045 284.878 636.886 285.52 636.886 286.377ZM644.091 290V283.834H642.963V282.604H644.091V281.927C644.091 281.106 644.319 280.473 644.774 280.026C645.23 279.58 645.868 279.356 646.688 279.356C646.98 279.356 647.29 279.397 647.618 279.479L647.577 280.778C647.395 280.742 647.183 280.724 646.941 280.724C646.148 280.724 645.752 281.132 645.752 281.947V282.604H647.256V283.834H645.752V290H644.091ZM655.541 283.643L657.633 280.047H659.629L656.621 284.982L659.697 290H657.681L655.541 286.35L653.395 290H651.385L654.468 284.982L651.453 280.047H653.449L655.541 283.643ZM668.167 281.441H665.063V290H663.348V281.441H660.271V280.047H668.167V281.441ZM671.106 288.619H676.425V290H669.015V288.879L674.162 281.441H669.049V280.047H676.261V281.141L671.106 288.619ZM682.242 288.25C682.552 288.25 682.791 288.339 682.96 288.517C683.129 288.69 683.213 288.909 683.213 289.173C683.213 289.433 683.129 289.649 682.96 289.822C682.791 289.991 682.552 290.075 682.242 290.075C681.946 290.075 681.711 289.991 681.538 289.822C681.365 289.654 681.278 289.437 681.278 289.173C681.278 288.909 681.363 288.69 681.531 288.517C681.7 288.339 681.937 288.25 682.242 288.25ZM682.242 282.446C682.552 282.446 682.791 282.535 682.96 282.713C683.129 282.886 683.213 283.105 683.213 283.369C683.213 283.629 683.129 283.845 682.96 284.019C682.791 284.187 682.552 284.271 682.242 284.271C681.946 284.271 681.711 284.187 681.538 284.019C681.365 283.85 681.278 283.633 681.278 283.369C681.278 283.105 681.363 282.886 681.531 282.713C681.7 282.535 681.937 282.446 682.242 282.446ZM588.255 306H586.601V298.009L584.16 298.843V297.441L588.043 296.013H588.255V306ZM598.201 301.81C598.201 303.241 597.932 304.321 597.395 305.05C596.861 305.774 596.048 306.137 594.954 306.137C593.879 306.137 593.067 305.784 592.521 305.077C591.978 304.366 591.7 303.316 591.687 301.926V300.203C591.687 298.772 591.953 297.699 592.486 296.983C593.024 296.268 593.842 295.91 594.94 295.91C596.03 295.91 596.841 296.259 597.374 296.956C597.912 297.653 598.188 298.697 598.201 300.087V301.81ZM596.54 299.95C596.54 299.016 596.412 298.332 596.157 297.899C595.902 297.462 595.496 297.243 594.94 297.243C594.398 297.243 593.999 297.451 593.744 297.865C593.489 298.275 593.354 298.918 593.341 299.793V302.049C593.341 302.979 593.471 303.671 593.73 304.127C593.99 304.583 594.398 304.811 594.954 304.811C595.487 304.811 595.882 304.601 596.137 304.182C596.392 303.758 596.526 303.097 596.54 302.199V299.95ZM606.158 301.81C606.158 303.241 605.889 304.321 605.352 305.05C604.818 305.774 604.005 306.137 602.911 306.137C601.836 306.137 601.024 305.784 600.478 305.077C599.935 304.366 599.657 303.316 599.644 301.926V300.203C599.644 298.772 599.91 297.699 600.443 296.983C600.981 296.268 601.799 295.91 602.897 295.91C603.987 295.91 604.798 296.259 605.331 296.956C605.869 297.653 606.145 298.697 606.158 300.087V301.81ZM604.497 299.95C604.497 299.016 604.369 298.332 604.114 297.899C603.859 297.462 603.453 297.243 602.897 297.243C602.355 297.243 601.956 297.451 601.701 297.865C601.446 298.275 601.312 298.918 601.298 299.793V302.049C601.298 302.979 601.428 303.671 601.688 304.127C601.947 304.583 602.355 304.811 602.911 304.811C603.444 304.811 603.839 304.601 604.094 304.182C604.349 303.758 604.483 303.097 604.497 302.199V299.95ZM611.688 306.854H610.383L614.3 296.047H615.605L611.688 306.854ZM620.582 301.064L621.122 296.047H626.468V297.482H622.503L622.229 299.861C622.69 299.597 623.209 299.465 623.788 299.465C624.736 299.465 625.472 299.768 625.996 300.374C626.525 300.98 626.789 301.796 626.789 302.821C626.789 303.833 626.497 304.64 625.914 305.241C625.331 305.838 624.531 306.137 623.515 306.137C622.603 306.137 621.847 305.879 621.245 305.364C620.648 304.845 620.325 304.161 620.274 303.313H621.881C621.945 303.797 622.118 304.168 622.4 304.428C622.683 304.683 623.052 304.811 623.508 304.811C624.018 304.811 624.415 304.628 624.697 304.264C624.984 303.899 625.128 303.402 625.128 302.773C625.128 302.167 624.971 301.689 624.656 301.338C624.342 300.982 623.909 300.805 623.357 300.805C623.057 300.805 622.801 300.846 622.592 300.928C622.382 301.005 622.154 301.16 621.908 301.393L620.582 301.064ZM634.582 301.81C634.582 303.241 634.313 304.321 633.775 305.05C633.242 305.774 632.429 306.137 631.335 306.137C630.259 306.137 629.448 305.784 628.901 305.077C628.359 304.366 628.081 303.316 628.067 301.926V300.203C628.067 298.772 628.334 297.699 628.867 296.983C629.405 296.268 630.223 295.91 631.321 295.91C632.41 295.91 633.222 296.259 633.755 296.956C634.293 297.653 634.568 298.697 634.582 300.087V301.81ZM632.921 299.95C632.921 299.016 632.793 298.332 632.538 297.899C632.283 297.462 631.877 297.243 631.321 297.243C630.779 297.243 630.38 297.451 630.125 297.865C629.87 298.275 629.735 298.918 629.722 299.793V302.049C629.722 302.979 629.852 303.671 630.111 304.127C630.371 304.583 630.779 304.811 631.335 304.811C631.868 304.811 632.262 304.601 632.518 304.182C632.773 303.758 632.907 303.097 632.921 302.199V299.95ZM645.677 300.668H639.784V299.287H645.677V300.668ZM645.677 303.566H639.784V302.192H645.677V303.566ZM657.551 306H650.858V304.858L654.174 301.242C654.652 300.709 654.992 300.265 655.192 299.909C655.397 299.549 655.5 299.189 655.5 298.829C655.5 298.355 655.366 297.972 655.097 297.681C654.832 297.389 654.475 297.243 654.023 297.243C653.486 297.243 653.069 297.407 652.772 297.735C652.476 298.063 652.328 298.512 652.328 299.082H650.667C650.667 298.476 650.804 297.931 651.077 297.448C651.355 296.961 651.749 296.582 652.26 296.313C652.775 296.045 653.367 295.91 654.037 295.91C655.003 295.91 655.764 296.154 656.32 296.642C656.881 297.125 657.161 297.795 657.161 298.651C657.161 299.148 657.02 299.67 656.737 300.217C656.459 300.759 656.001 301.377 655.363 302.069L652.93 304.674H657.551V306ZM669.849 296.047V302.698C669.849 303.756 669.509 304.594 668.83 305.214C668.156 305.829 667.256 306.137 666.13 306.137C664.991 306.137 664.086 305.834 663.416 305.228C662.746 304.617 662.411 303.771 662.411 302.691V296.047H664.134V302.705C664.134 303.37 664.302 303.879 664.64 304.229C664.977 304.58 665.474 304.756 666.13 304.756C667.461 304.756 668.126 304.054 668.126 302.65V296.047H669.849ZM676.903 303.437C676.903 302.999 676.748 302.662 676.438 302.425C676.133 302.188 675.579 301.949 674.777 301.707C673.975 301.465 673.337 301.197 672.863 300.9C671.956 300.331 671.503 299.588 671.503 298.672C671.503 297.87 671.829 297.209 672.48 296.689C673.137 296.17 673.987 295.91 675.03 295.91C675.723 295.91 676.34 296.038 676.883 296.293C677.425 296.548 677.851 296.913 678.161 297.387C678.471 297.856 678.626 298.378 678.626 298.952H676.903C676.903 298.433 676.739 298.027 676.411 297.735C676.088 297.439 675.623 297.291 675.017 297.291C674.451 297.291 674.012 297.412 673.697 297.653C673.387 297.895 673.232 298.232 673.232 298.665C673.232 299.03 673.401 299.335 673.738 299.581C674.076 299.823 674.632 300.06 675.406 300.292C676.181 300.52 676.803 300.782 677.272 301.078C677.742 301.37 678.086 301.707 678.305 302.09C678.523 302.468 678.633 302.912 678.633 303.423C678.633 304.252 678.314 304.913 677.676 305.405C677.042 305.893 676.181 306.137 675.092 306.137C674.372 306.137 673.709 306.005 673.103 305.74C672.501 305.471 672.032 305.102 671.694 304.633C671.362 304.163 671.195 303.617 671.195 302.992H672.925C672.925 303.557 673.112 303.995 673.485 304.305C673.859 304.615 674.395 304.77 675.092 304.77C675.693 304.77 676.145 304.649 676.445 304.407C676.751 304.161 676.903 303.838 676.903 303.437ZM680.15 306V296.047H683.09C683.969 296.047 684.749 296.243 685.428 296.635C686.111 297.027 686.64 297.583 687.014 298.303C687.387 299.023 687.574 299.848 687.574 300.777V301.276C687.574 302.22 687.385 303.049 687.007 303.765C686.633 304.48 686.098 305.032 685.4 305.419C684.708 305.806 683.912 306 683.015 306H680.15ZM681.88 297.441V304.619H683.008C683.915 304.619 684.61 304.337 685.093 303.771C685.58 303.202 685.829 302.386 685.838 301.324V300.771C685.838 299.69 685.603 298.866 685.134 298.296C684.664 297.726 683.983 297.441 683.09 297.441H681.88ZM691.218 296.806V298.604H692.523V299.834H691.218V303.963C691.218 304.245 691.272 304.451 691.382 304.578C691.496 304.701 691.696 304.763 691.983 304.763C692.175 304.763 692.368 304.74 692.564 304.694V305.979C692.186 306.084 691.822 306.137 691.471 306.137C690.195 306.137 689.557 305.433 689.557 304.024V299.834H688.34V298.604H689.557V296.806H691.218ZM695.572 304.674H699.51V306H693.508V304.913L697.261 299.943H693.576V298.604H699.366V299.656L695.572 304.674Z" fill="#5452F6"/>
<rect x="532" y="326" width="218" height="46" rx="8" fill="#EEEEFF"/>
<path d="M595.316 342.302V346H593.587V336.047H597.395C598.507 336.047 599.388 336.336 600.04 336.915C600.696 337.494 601.024 338.259 601.024 339.212C601.024 340.187 600.703 340.946 600.061 341.488C599.423 342.031 598.527 342.302 597.374 342.302H595.316ZM595.316 340.914H597.395C598.01 340.914 598.479 340.771 598.803 340.483C599.126 340.192 599.288 339.772 599.288 339.226C599.288 338.688 599.124 338.259 598.796 337.94C598.468 337.617 598.017 337.451 597.442 337.441H595.316V340.914ZM606.254 340.121C606.035 340.085 605.81 340.066 605.577 340.066C604.816 340.066 604.303 340.358 604.039 340.941V346H602.378V338.604H603.964L604.005 339.431C604.406 338.788 604.962 338.467 605.673 338.467C605.91 338.467 606.106 338.499 606.261 338.562L606.254 340.121ZM609.07 346H607.409V338.604H609.07V346ZM607.307 336.683C607.307 336.427 607.386 336.215 607.546 336.047C607.71 335.878 607.942 335.794 608.243 335.794C608.544 335.794 608.776 335.878 608.94 336.047C609.104 336.215 609.187 336.427 609.187 336.683C609.187 336.933 609.104 337.143 608.94 337.312C608.776 337.476 608.544 337.558 608.243 337.558C607.942 337.558 607.71 337.476 607.546 337.312C607.386 337.143 607.307 336.933 607.307 336.683ZM613.924 344.811C614.339 344.811 614.683 344.69 614.956 344.448C615.229 344.207 615.375 343.908 615.394 343.553H616.959C616.941 344.013 616.797 344.444 616.528 344.845C616.259 345.241 615.895 345.556 615.435 345.788C614.974 346.021 614.478 346.137 613.944 346.137C612.91 346.137 612.09 345.802 611.483 345.132C610.877 344.462 610.574 343.537 610.574 342.356V342.186C610.574 341.06 610.875 340.16 611.477 339.485C612.078 338.806 612.898 338.467 613.938 338.467C614.817 338.467 615.533 338.724 616.084 339.239C616.64 339.75 616.932 340.422 616.959 341.256H615.394C615.375 340.832 615.229 340.483 614.956 340.21C614.687 339.937 614.343 339.8 613.924 339.8C613.386 339.8 612.971 339.996 612.68 340.388C612.388 340.775 612.24 341.365 612.235 342.158V342.425C612.235 343.227 612.379 343.826 612.666 344.223C612.958 344.615 613.377 344.811 613.924 344.811ZM621.471 346.137C620.418 346.137 619.563 345.806 618.907 345.146C618.256 344.48 617.93 343.596 617.93 342.493V342.288C617.93 341.55 618.071 340.891 618.354 340.312C618.641 339.729 619.042 339.276 619.557 338.952C620.072 338.629 620.646 338.467 621.279 338.467C622.286 338.467 623.063 338.788 623.61 339.431C624.162 340.073 624.438 340.982 624.438 342.158V342.828H619.604C619.655 343.439 619.857 343.922 620.213 344.277C620.573 344.633 621.024 344.811 621.566 344.811C622.327 344.811 622.947 344.503 623.426 343.888L624.321 344.742C624.025 345.184 623.629 345.528 623.132 345.774C622.64 346.016 622.086 346.137 621.471 346.137ZM621.272 339.8C620.817 339.8 620.448 339.959 620.165 340.278C619.887 340.597 619.709 341.042 619.632 341.611H622.797V341.488C622.76 340.932 622.612 340.513 622.353 340.23C622.093 339.943 621.733 339.8 621.272 339.8ZM628.908 342.233C628.908 341.509 629.052 340.857 629.339 340.278C629.626 339.695 630.029 339.248 630.549 338.938C631.068 338.624 631.665 338.467 632.34 338.467C633.338 338.467 634.147 338.788 634.767 339.431C635.391 340.073 635.728 340.925 635.778 341.987L635.785 342.377C635.785 343.106 635.644 343.758 635.361 344.332C635.083 344.906 634.682 345.351 634.158 345.665C633.639 345.979 633.037 346.137 632.354 346.137C631.31 346.137 630.474 345.79 629.845 345.098C629.22 344.4 628.908 343.473 628.908 342.315V342.233ZM630.569 342.377C630.569 343.138 630.727 343.735 631.041 344.168C631.355 344.596 631.793 344.811 632.354 344.811C632.914 344.811 633.349 344.592 633.659 344.154C633.974 343.717 634.131 343.076 634.131 342.233C634.131 341.486 633.969 340.894 633.646 340.456C633.326 340.019 632.891 339.8 632.34 339.8C631.798 339.8 631.367 340.016 631.048 340.449C630.729 340.878 630.569 341.52 630.569 342.377ZM637.774 346V339.834H636.646V338.604H637.774V337.927C637.774 337.106 638.002 336.473 638.458 336.026C638.914 335.58 639.552 335.356 640.372 335.356C640.664 335.356 640.974 335.397 641.302 335.479L641.261 336.778C641.078 336.742 640.867 336.724 640.625 336.724C639.832 336.724 639.436 337.132 639.436 337.947V338.604H640.939V339.834H639.436V346H637.774ZM653.08 336.047V342.698C653.08 343.756 652.741 344.594 652.062 345.214C651.387 345.829 650.487 346.137 649.361 346.137C648.222 346.137 647.317 345.834 646.647 345.228C645.978 344.617 645.643 343.771 645.643 342.691V336.047H647.365V342.705C647.365 343.37 647.534 343.879 647.871 344.229C648.208 344.58 648.705 344.756 649.361 344.756C650.692 344.756 651.357 344.054 651.357 342.65V336.047H653.08ZM660.135 343.437C660.135 342.999 659.98 342.662 659.67 342.425C659.365 342.188 658.811 341.949 658.009 341.707C657.207 341.465 656.569 341.197 656.095 340.9C655.188 340.331 654.734 339.588 654.734 338.672C654.734 337.87 655.06 337.209 655.712 336.689C656.368 336.17 657.218 335.91 658.262 335.91C658.954 335.91 659.572 336.038 660.114 336.293C660.657 336.548 661.083 336.913 661.393 337.387C661.702 337.856 661.857 338.378 661.857 338.952H660.135C660.135 338.433 659.971 338.027 659.643 337.735C659.319 337.439 658.854 337.291 658.248 337.291C657.683 337.291 657.243 337.412 656.929 337.653C656.619 337.895 656.464 338.232 656.464 338.665C656.464 339.03 656.632 339.335 656.97 339.581C657.307 339.823 657.863 340.06 658.638 340.292C659.412 340.52 660.035 340.782 660.504 341.078C660.973 341.37 661.317 341.707 661.536 342.09C661.755 342.468 661.864 342.912 661.864 343.423C661.864 344.252 661.545 344.913 660.907 345.405C660.274 345.893 659.412 346.137 658.323 346.137C657.603 346.137 656.94 346.005 656.334 345.74C655.732 345.471 655.263 345.102 654.926 344.633C654.593 344.163 654.427 343.617 654.427 342.992H656.156C656.156 343.557 656.343 343.995 656.717 344.305C657.09 344.615 657.626 344.77 658.323 344.77C658.925 344.77 659.376 344.649 659.677 344.407C659.982 344.161 660.135 343.838 660.135 343.437ZM663.382 346V336.047H666.321C667.201 336.047 667.98 336.243 668.659 336.635C669.343 337.027 669.871 337.583 670.245 338.303C670.619 339.023 670.806 339.848 670.806 340.777V341.276C670.806 342.22 670.617 343.049 670.238 343.765C669.865 344.48 669.329 345.032 668.632 345.419C667.939 345.806 667.144 346 666.246 346H663.382ZM665.111 337.441V344.619H666.239C667.146 344.619 667.841 344.337 668.324 343.771C668.812 343.202 669.06 342.386 669.069 341.324V340.771C669.069 339.69 668.835 338.866 668.365 338.296C667.896 337.726 667.215 337.441 666.321 337.441H665.111ZM674.449 336.806V338.604H675.755V339.834H674.449V343.963C674.449 344.245 674.504 344.451 674.613 344.578C674.727 344.701 674.928 344.763 675.215 344.763C675.406 344.763 675.6 344.74 675.796 344.694V345.979C675.418 346.084 675.053 346.137 674.702 346.137C673.426 346.137 672.788 345.433 672.788 344.024V339.834H671.571V338.604H672.788V336.806H674.449ZM678.804 344.674H682.741V346H676.739V344.913L680.492 339.943H676.808V338.604H682.598V339.656L678.804 344.674ZM688.559 344.25C688.868 344.25 689.108 344.339 689.276 344.517C689.445 344.69 689.529 344.909 689.529 345.173C689.529 345.433 689.445 345.649 689.276 345.822C689.108 345.991 688.868 346.075 688.559 346.075C688.262 346.075 688.028 345.991 687.854 345.822C687.681 345.654 687.595 345.437 687.595 345.173C687.595 344.909 687.679 344.69 687.848 344.517C688.016 344.339 688.253 344.25 688.559 344.25ZM688.559 338.446C688.868 338.446 689.108 338.535 689.276 338.713C689.445 338.886 689.529 339.105 689.529 339.369C689.529 339.629 689.445 339.845 689.276 340.019C689.108 340.187 688.868 340.271 688.559 340.271C688.262 340.271 688.028 340.187 687.854 340.019C687.681 339.85 687.595 339.633 687.595 339.369C687.595 339.105 687.679 338.886 687.848 338.713C688.016 338.535 688.253 338.446 688.559 338.446ZM584.584 357.064L585.124 352.047H590.47V353.482H586.505L586.231 355.861C586.692 355.597 587.211 355.465 587.79 355.465C588.738 355.465 589.474 355.768 589.998 356.374C590.527 356.98 590.791 357.796 590.791 358.821C590.791 359.833 590.499 360.64 589.916 361.241C589.333 361.838 588.533 362.137 587.517 362.137C586.605 362.137 585.849 361.879 585.247 361.364C584.65 360.845 584.326 360.161 584.276 359.313H585.883C585.947 359.797 586.12 360.168 586.402 360.428C586.685 360.683 587.054 360.811 587.51 360.811C588.02 360.811 588.417 360.628 588.699 360.264C588.986 359.899 589.13 359.402 589.13 358.773C589.13 358.167 588.973 357.689 588.658 357.338C588.344 356.982 587.911 356.805 587.359 356.805C587.059 356.805 586.803 356.846 586.594 356.928C586.384 357.005 586.156 357.16 585.91 357.393L584.584 357.064ZM598.584 357.81C598.584 359.241 598.315 360.321 597.777 361.05C597.244 361.774 596.431 362.137 595.337 362.137C594.261 362.137 593.45 361.784 592.903 361.077C592.361 360.366 592.083 359.316 592.069 357.926V356.203C592.069 354.772 592.336 353.699 592.869 352.983C593.407 352.268 594.225 351.91 595.323 351.91C596.412 351.91 597.224 352.259 597.757 352.956C598.295 353.653 598.57 354.697 598.584 356.087V357.81ZM596.923 355.95C596.923 355.016 596.795 354.332 596.54 353.899C596.285 353.462 595.879 353.243 595.323 353.243C594.781 353.243 594.382 353.451 594.127 353.865C593.872 354.275 593.737 354.918 593.724 355.793V358.049C593.724 358.979 593.854 359.671 594.113 360.127C594.373 360.583 594.781 360.811 595.337 360.811C595.87 360.811 596.264 360.601 596.52 360.182C596.775 359.758 596.909 359.097 596.923 358.199V355.95ZM604.114 362.854H602.809L606.726 352.047H608.031L604.114 362.854ZM617.062 362H615.407V354.009L612.967 354.843V353.441L616.85 352.013H617.062V362ZM627.008 357.81C627.008 359.241 626.739 360.321 626.201 361.05C625.668 361.774 624.854 362.137 623.761 362.137C622.685 362.137 621.874 361.784 621.327 361.077C620.785 360.366 620.507 359.316 620.493 357.926V356.203C620.493 354.772 620.76 353.699 621.293 352.983C621.831 352.268 622.649 351.91 623.747 351.91C624.836 351.91 625.647 352.259 626.181 352.956C626.718 353.653 626.994 354.697 627.008 356.087V357.81ZM625.347 355.95C625.347 355.016 625.219 354.332 624.964 353.899C624.709 353.462 624.303 353.243 623.747 353.243C623.205 353.243 622.806 353.451 622.551 353.865C622.296 354.275 622.161 354.918 622.147 355.793V358.049C622.147 358.979 622.277 359.671 622.537 360.127C622.797 360.583 623.205 360.811 623.761 360.811C624.294 360.811 624.688 360.601 624.943 360.182C625.199 359.758 625.333 359.097 625.347 358.199V355.95ZM634.965 357.81C634.965 359.241 634.696 360.321 634.158 361.05C633.625 361.774 632.812 362.137 631.718 362.137C630.642 362.137 629.831 361.784 629.284 361.077C628.742 360.366 628.464 359.316 628.45 357.926V356.203C628.45 354.772 628.717 353.699 629.25 352.983C629.788 352.268 630.606 351.91 631.704 351.91C632.793 351.91 633.604 352.259 634.138 352.956C634.675 353.653 634.951 354.697 634.965 356.087V357.81ZM633.304 355.95C633.304 355.016 633.176 354.332 632.921 353.899C632.666 353.462 632.26 353.243 631.704 353.243C631.162 353.243 630.763 353.451 630.508 353.865C630.253 354.275 630.118 354.918 630.104 355.793V358.049C630.104 358.979 630.234 359.671 630.494 360.127C630.754 360.583 631.162 360.811 631.718 360.811C632.251 360.811 632.645 360.601 632.9 360.182C633.156 359.758 633.29 359.097 633.304 358.199V355.95ZM646.06 356.668H640.167V355.287H646.06V356.668ZM646.06 359.566H640.167V358.192H646.06V359.566ZM657.729 357.81C657.729 359.241 657.46 360.321 656.922 361.05C656.389 361.774 655.575 362.137 654.481 362.137C653.406 362.137 652.595 361.784 652.048 361.077C651.506 360.366 651.228 359.316 651.214 357.926V356.203C651.214 354.772 651.48 353.699 652.014 352.983C652.551 352.268 653.369 351.91 654.468 351.91C655.557 351.91 656.368 352.259 656.901 352.956C657.439 353.653 657.715 354.697 657.729 356.087V357.81ZM656.067 355.95C656.067 355.016 655.94 354.332 655.685 353.899C655.429 353.462 655.024 353.243 654.468 353.243C653.925 353.243 653.527 353.451 653.271 353.865C653.016 354.275 652.882 354.918 652.868 355.793V358.049C652.868 358.979 652.998 359.671 653.258 360.127C653.518 360.583 653.925 360.811 654.481 360.811C655.015 360.811 655.409 360.601 655.664 360.182C655.919 359.758 656.054 359.097 656.067 358.199V355.95ZM660.34 360.25C660.65 360.25 660.889 360.339 661.058 360.517C661.226 360.69 661.311 360.909 661.311 361.173C661.311 361.433 661.226 361.649 661.058 361.822C660.889 361.991 660.65 362.075 660.34 362.075C660.044 362.075 659.809 361.991 659.636 361.822C659.463 361.654 659.376 361.437 659.376 361.173C659.376 360.909 659.46 360.69 659.629 360.517C659.798 360.339 660.035 360.25 660.34 360.25ZM663.553 357.064L664.093 352.047H669.438V353.482H665.474L665.2 355.861C665.66 355.597 666.18 355.465 666.759 355.465C667.707 355.465 668.443 355.768 668.967 356.374C669.495 356.98 669.76 357.796 669.76 358.821C669.76 359.833 669.468 360.64 668.885 361.241C668.301 361.838 667.502 362.137 666.485 362.137C665.574 362.137 664.817 361.879 664.216 361.364C663.619 360.845 663.295 360.161 663.245 359.313H664.852C664.915 359.797 665.089 360.168 665.371 360.428C665.654 360.683 666.023 360.811 666.479 360.811C666.989 360.811 667.385 360.628 667.668 360.264C667.955 359.899 668.099 359.402 668.099 358.773C668.099 358.167 667.941 357.689 667.627 357.338C667.312 356.982 666.88 356.805 666.328 356.805C666.027 356.805 665.772 356.846 665.562 356.928C665.353 357.005 665.125 357.16 664.879 357.393L663.553 357.064ZM678.243 355.643L680.335 352.047H682.331L679.323 356.982L682.399 362H680.383L678.243 358.35L676.097 362H674.087L677.17 356.982L674.155 352.047H676.151L678.243 355.643ZM690.869 353.441H687.766V362H686.05V353.441H682.974V352.047H690.869V353.441ZM693.809 360.619H699.127V362H691.717V360.879L696.864 353.441H691.751V352.047H698.963V353.141L693.809 360.619Z" fill="#5452F6"/>
<path d="M271 267L495.67 267" stroke="#5452F6"/>
</svg>
