<svg width="782" height="535" viewBox="0 0 782 535" fill="none" xmlns="http://www.w3.org/2000/svg">
<path d="M270.5 464C270.5 483.327 255.54 500.945 231.081 513.762C206.645 526.566 172.853 534.5 135.5 534.5C98.1468 534.5 64.3547 526.566 39.9191 513.762C15.4598 500.945 0.5 483.327 0.5 464V205C0.5 185.673 15.4598 168.055 39.9191 155.238C64.3547 142.434 98.1468 134.5 135.5 134.5C172.853 134.5 206.645 142.434 231.081 155.238C255.54 168.055 270.5 185.673 270.5 205V464Z" fill="#FEEBEA" stroke="#DE1306"/>
<path d="M270.5 205C270.5 224.327 255.54 241.945 231.081 254.762C206.645 267.566 172.853 275.5 135.5 275.5C98.1468 275.5 64.3547 267.566 39.9191 254.762C15.4598 241.945 0.5 224.327 0.5 205C0.5 185.673 15.4598 168.055 39.9191 155.238C64.3547 142.434 98.1468 134.5 135.5 134.5C172.853 134.5 206.645 142.434 231.081 155.238C255.54 168.055 270.5 185.673 270.5 205Z" stroke="#DE1306"/>
<path d="M270.5 330C270.5 349.327 255.54 366.945 231.081 379.762C206.645 392.566 172.853 400.5 135.5 400.5C98.1468 400.5 64.3547 392.566 39.9191 379.762C15.4598 366.945 0.5 349.327 0.5 330V71C0.5 51.673 15.4598 34.0546 39.9191 21.2383C64.3547 8.4344 98.1468 0.5 135.5 0.5C172.853 0.5 206.645 8.4344 231.081 21.2383C255.54 34.0546 270.5 51.673 270.5 71V330Z" fill="#E5FDE8" stroke="#65BF73"/>
<path d="M270.5 71C270.5 90.327 255.54 107.945 231.081 120.762C206.645 133.566 172.853 141.5 135.5 141.5C98.1468 141.5 64.3547 133.566 39.9191 120.762C15.4598 107.945 0.5 90.327 0.5 71C0.5 51.673 15.4598 34.0546 39.9191 21.2383C64.3547 8.4344 98.1468 0.5 135.5 0.5C172.853 0.5 206.645 8.4344 231.081 21.2383C255.54 34.0546 270.5 51.673 270.5 71Z" stroke="#65BF73"/>
<path d="M122.555 224.625V232.359C122.549 233.432 122.211 234.31 121.539 234.992C120.872 235.674 119.966 236.057 118.82 236.141L118.422 236.156C117.177 236.156 116.185 235.82 115.445 235.148C114.706 234.477 114.331 233.552 114.32 232.375V224.625H115.805V232.328C115.805 233.151 116.031 233.792 116.484 234.25C116.938 234.703 117.583 234.93 118.422 234.93C119.271 234.93 119.919 234.703 120.367 234.25C120.82 233.797 121.047 233.159 121.047 232.336V224.625H122.555ZM128.273 230.93C126.987 230.56 126.049 230.107 125.461 229.57C124.878 229.029 124.586 228.362 124.586 227.57C124.586 226.674 124.943 225.935 125.656 225.352C126.375 224.763 127.307 224.469 128.453 224.469C129.234 224.469 129.93 224.62 130.539 224.922C131.154 225.224 131.628 225.641 131.961 226.172C132.299 226.703 132.469 227.284 132.469 227.914H130.961C130.961 227.227 130.742 226.688 130.305 226.297C129.867 225.901 129.25 225.703 128.453 225.703C127.714 225.703 127.135 225.867 126.719 226.195C126.307 226.518 126.102 226.969 126.102 227.547C126.102 228.01 126.297 228.404 126.688 228.727C127.083 229.044 127.753 229.336 128.695 229.602C129.643 229.867 130.383 230.161 130.914 230.484C131.451 230.802 131.846 231.174 132.102 231.602C132.362 232.029 132.492 232.531 132.492 233.109C132.492 234.031 132.133 234.771 131.414 235.328C130.695 235.88 129.734 236.156 128.531 236.156C127.75 236.156 127.021 236.008 126.344 235.711C125.667 235.409 125.143 234.997 124.773 234.477C124.409 233.956 124.227 233.365 124.227 232.703H125.734C125.734 233.391 125.987 233.935 126.492 234.336C127.003 234.732 127.682 234.93 128.531 234.93C129.323 234.93 129.93 234.768 130.352 234.445C130.773 234.122 130.984 233.682 130.984 233.125C130.984 232.568 130.789 232.138 130.398 231.836C130.008 231.529 129.299 231.227 128.273 230.93ZM134.422 236V224.625H137.633C138.622 224.625 139.497 224.844 140.258 225.281C141.018 225.719 141.604 226.341 142.016 227.148C142.432 227.956 142.643 228.883 142.648 229.93V230.656C142.648 231.729 142.44 232.669 142.023 233.477C141.612 234.284 141.021 234.904 140.25 235.336C139.484 235.768 138.591 235.99 137.57 236H134.422ZM135.922 225.859V234.773H137.5C138.656 234.773 139.555 234.414 140.195 233.695C140.841 232.977 141.164 231.953 141.164 230.625V229.961C141.164 228.669 140.859 227.667 140.25 226.953C139.646 226.234 138.786 225.87 137.672 225.859H135.922ZM146.656 225.5V227.547H148.234V228.664H146.656V233.906C146.656 234.245 146.727 234.5 146.867 234.672C147.008 234.839 147.247 234.922 147.586 234.922C147.753 234.922 147.982 234.891 148.273 234.828V236C147.893 236.104 147.523 236.156 147.164 236.156C146.518 236.156 146.031 235.961 145.703 235.57C145.375 235.18 145.211 234.625 145.211 233.906V228.664H143.672V227.547H145.211V225.5H146.656ZM151.289 234.82H156.234V236H149.523V234.938L154.188 228.742H149.594V227.547H156V228.57L151.289 234.82Z" fill="#65BF73"/>
<path d="M125.453 459.984L128.18 455.625H129.945L126.352 461.266L130.031 467H128.25L125.453 462.562L122.641 467H120.867L124.555 461.266L120.953 455.625H122.711L125.453 459.984ZM139.633 456.859H135.977V467H134.484V456.859H130.836V455.625H139.633V456.859ZM142.445 465.773H148.953V467H140.672V465.875L146.906 456.859H140.773V455.625H148.703V456.727L142.445 465.773Z" fill="#DE1306"/>
<rect x="496.5" y="146.5" width="285" height="242" rx="7.5" fill="white"/>
<rect x="496.5" y="146.5" width="285" height="242" rx="7.5" stroke="#5452F6"/>
<rect x="551" y="185" width="180" height="34" rx="17" fill="#E5FDE8"/>
<path d="M609.961 207.5H608.508V197.867L605.594 198.938V197.625L609.734 196.07H609.961V207.5ZM621.328 202.648C621.328 204.341 621.039 205.599 620.461 206.422C619.883 207.245 618.979 207.656 617.75 207.656C616.536 207.656 615.638 207.255 615.055 206.453C614.471 205.646 614.169 204.443 614.148 202.844V200.914C614.148 199.242 614.438 198 615.016 197.188C615.594 196.375 616.5 195.969 617.734 195.969C618.958 195.969 619.859 196.362 620.438 197.148C621.016 197.93 621.312 199.138 621.328 200.773V202.648ZM619.883 200.672C619.883 199.448 619.711 198.557 619.367 198C619.023 197.438 618.479 197.156 617.734 197.156C616.995 197.156 616.456 197.435 616.117 197.992C615.779 198.549 615.604 199.406 615.594 200.562V202.875C615.594 204.104 615.771 205.013 616.125 205.602C616.484 206.185 617.026 206.477 617.75 206.477C618.464 206.477 618.992 206.201 619.336 205.648C619.685 205.096 619.867 204.227 619.883 203.039V200.672ZM630.312 202.648C630.312 204.341 630.023 205.599 629.445 206.422C628.867 207.245 627.964 207.656 626.734 207.656C625.521 207.656 624.622 207.255 624.039 206.453C623.456 205.646 623.154 204.443 623.133 202.844V200.914C623.133 199.242 623.422 198 624 197.188C624.578 196.375 625.484 195.969 626.719 195.969C627.943 195.969 628.844 196.362 629.422 197.148C630 197.93 630.297 199.138 630.312 200.773V202.648ZM628.867 200.672C628.867 199.448 628.695 198.557 628.352 198C628.008 197.438 627.464 197.156 626.719 197.156C625.979 197.156 625.44 197.435 625.102 197.992C624.763 198.549 624.589 199.406 624.578 200.562V202.875C624.578 204.104 624.755 205.013 625.109 205.602C625.469 206.185 626.01 206.477 626.734 206.477C627.448 206.477 627.977 206.201 628.32 205.648C628.669 205.096 628.852 204.227 628.867 203.039V200.672ZM644.516 196.125V203.859C644.51 204.932 644.172 205.81 643.5 206.492C642.833 207.174 641.927 207.557 640.781 207.641L640.383 207.656C639.138 207.656 638.146 207.32 637.406 206.648C636.667 205.977 636.292 205.052 636.281 203.875V196.125H637.766V203.828C637.766 204.651 637.992 205.292 638.445 205.75C638.898 206.203 639.544 206.43 640.383 206.43C641.232 206.43 641.88 206.203 642.328 205.75C642.781 205.297 643.008 204.659 643.008 203.836V196.125H644.516ZM650.234 202.43C648.948 202.06 648.01 201.607 647.422 201.07C646.839 200.529 646.547 199.862 646.547 199.07C646.547 198.174 646.904 197.435 647.617 196.852C648.336 196.263 649.268 195.969 650.414 195.969C651.195 195.969 651.891 196.12 652.5 196.422C653.115 196.724 653.589 197.141 653.922 197.672C654.26 198.203 654.43 198.784 654.43 199.414H652.922C652.922 198.727 652.703 198.188 652.266 197.797C651.828 197.401 651.211 197.203 650.414 197.203C649.674 197.203 649.096 197.367 648.68 197.695C648.268 198.018 648.062 198.469 648.062 199.047C648.062 199.51 648.258 199.904 648.648 200.227C649.044 200.544 649.714 200.836 650.656 201.102C651.604 201.367 652.344 201.661 652.875 201.984C653.411 202.302 653.807 202.674 654.062 203.102C654.323 203.529 654.453 204.031 654.453 204.609C654.453 205.531 654.094 206.271 653.375 206.828C652.656 207.38 651.695 207.656 650.492 207.656C649.711 207.656 648.982 207.508 648.305 207.211C647.628 206.909 647.104 206.497 646.734 205.977C646.37 205.456 646.188 204.865 646.188 204.203H647.695C647.695 204.891 647.948 205.435 648.453 205.836C648.964 206.232 649.643 206.43 650.492 206.43C651.284 206.43 651.891 206.268 652.312 205.945C652.734 205.622 652.945 205.182 652.945 204.625C652.945 204.068 652.75 203.638 652.359 203.336C651.969 203.029 651.26 202.727 650.234 202.43ZM656.383 207.5V196.125H659.594C660.583 196.125 661.458 196.344 662.219 196.781C662.979 197.219 663.565 197.841 663.977 198.648C664.393 199.456 664.604 200.383 664.609 201.43V202.156C664.609 203.229 664.401 204.169 663.984 204.977C663.573 205.784 662.982 206.404 662.211 206.836C661.445 207.268 660.552 207.49 659.531 207.5H656.383ZM657.883 197.359V206.273H659.461C660.617 206.273 661.516 205.914 662.156 205.195C662.802 204.477 663.125 203.453 663.125 202.125V201.461C663.125 200.169 662.82 199.167 662.211 198.453C661.607 197.734 660.747 197.37 659.633 197.359H657.883ZM668.617 197V199.047H670.195V200.164H668.617V205.406C668.617 205.745 668.688 206 668.828 206.172C668.969 206.339 669.208 206.422 669.547 206.422C669.714 206.422 669.943 206.391 670.234 206.328V207.5C669.854 207.604 669.484 207.656 669.125 207.656C668.479 207.656 667.992 207.461 667.664 207.07C667.336 206.68 667.172 206.125 667.172 205.406V200.164H665.633V199.047H667.172V197H668.617ZM673.25 206.32H678.195V207.5H671.484V206.438L676.148 200.242H671.555V199.047H677.961V200.07L673.25 206.32Z" fill="#65BF73"/>
<rect x="551" y="225" width="180" height="34" rx="17" fill="#FEEBEA"/>
<path d="M617.062 241.797L617.641 236.125H623.469V237.461H618.867L618.523 240.562C619.081 240.234 619.714 240.07 620.422 240.07C621.458 240.07 622.281 240.414 622.891 241.102C623.5 241.784 623.805 242.708 623.805 243.875C623.805 245.047 623.487 245.971 622.852 246.648C622.221 247.32 621.339 247.656 620.203 247.656C619.198 247.656 618.378 247.378 617.742 246.82C617.107 246.263 616.745 245.492 616.656 244.508H618.023C618.112 245.159 618.344 245.651 618.719 245.984C619.094 246.312 619.589 246.477 620.203 246.477C620.875 246.477 621.401 246.247 621.781 245.789C622.167 245.331 622.359 244.698 622.359 243.891C622.359 243.13 622.151 242.521 621.734 242.062C621.323 241.599 620.773 241.367 620.086 241.367C619.456 241.367 618.961 241.505 618.602 241.781L618.219 242.094L617.062 241.797ZM632.516 242.648C632.516 244.341 632.227 245.599 631.648 246.422C631.07 247.245 630.167 247.656 628.938 247.656C627.724 247.656 626.826 247.255 626.242 246.453C625.659 245.646 625.357 244.443 625.336 242.844V240.914C625.336 239.242 625.625 238 626.203 237.188C626.781 236.375 627.688 235.969 628.922 235.969C630.146 235.969 631.047 236.362 631.625 237.148C632.203 237.93 632.5 239.138 632.516 240.773V242.648ZM631.07 240.672C631.07 239.448 630.898 238.557 630.555 238C630.211 237.438 629.667 237.156 628.922 237.156C628.182 237.156 627.643 237.435 627.305 237.992C626.966 238.549 626.792 239.406 626.781 240.562V242.875C626.781 244.104 626.958 245.013 627.312 245.602C627.672 246.185 628.214 246.477 628.938 246.477C629.651 246.477 630.18 246.201 630.523 245.648C630.872 245.096 631.055 244.227 631.07 243.039V240.672ZM642.422 240.484L645.148 236.125H646.914L643.32 241.766L647 247.5H645.219L642.422 243.062L639.609 247.5H637.836L641.523 241.766L637.922 236.125H639.68L642.422 240.484ZM656.602 237.359H652.945V247.5H651.453V237.359H647.805V236.125H656.602V237.359ZM659.414 246.273H665.922V247.5H657.641V246.375L663.875 237.359H657.742V236.125H665.672V237.227L659.414 246.273Z" fill="#DE1306"/>
<path d="M585 165.75C588.314 165.75 591 164.407 591 162.75C591 161.093 588.314 159.75 585 159.75C581.686 159.75 579 161.093 579 162.75C579 164.407 581.686 165.75 585 165.75Z" stroke="#5452F6" stroke-width="1.5" stroke-linecap="round" stroke-linejoin="round"/>
<path d="M579 162.75V168.75C579 170.407 581.686 171.75 585 171.75C588.314 171.75 591 170.407 591 168.75V162.75" stroke="#5452F6" stroke-width="1.5" stroke-linecap="round" stroke-linejoin="round"/>
<path d="M591 165.75C591 167.407 588.314 168.75 585 168.75C581.686 168.75 579 167.407 579 165.75" stroke="#5452F6" stroke-width="1.5" stroke-linecap="round" stroke-linejoin="round"/>
<path d="M602.89 169.619H607.408V171H601.16V161.047H602.89V169.619ZM610.341 171H608.68V163.604H610.341V171ZM608.577 161.683C608.577 161.427 608.657 161.215 608.816 161.047C608.98 160.878 609.213 160.794 609.514 160.794C609.814 160.794 610.047 160.878 610.211 161.047C610.375 161.215 610.457 161.427 610.457 161.683C610.457 161.933 610.375 162.143 610.211 162.312C610.047 162.476 609.814 162.558 609.514 162.558C609.213 162.558 608.98 162.476 608.816 162.312C608.657 162.143 608.577 161.933 608.577 161.683ZM611.845 167.24C611.845 166.083 612.109 165.164 612.638 164.485C613.166 163.806 613.882 163.467 614.784 163.467C615.609 163.467 616.263 163.756 616.746 164.335L616.842 163.604H618.318V173.844H616.657V170.371C616.174 170.882 615.545 171.137 614.771 171.137C613.886 171.137 613.178 170.793 612.645 170.104C612.111 169.412 611.845 168.457 611.845 167.24ZM613.506 167.384C613.506 168.14 613.654 168.735 613.95 169.168C614.251 169.596 614.666 169.811 615.194 169.811C615.851 169.811 616.338 169.53 616.657 168.97V165.606C616.338 165.069 615.855 164.8 615.208 164.8C614.679 164.8 614.262 165.012 613.957 165.436C613.656 165.859 613.506 166.509 613.506 167.384ZM624.594 170.275C624.106 170.85 623.413 171.137 622.516 171.137C621.714 171.137 621.105 170.902 620.69 170.433C620.28 169.963 620.075 169.284 620.075 168.396V163.604H621.736V168.375C621.736 169.314 622.126 169.783 622.905 169.783C623.712 169.783 624.257 169.494 624.539 168.915V163.604H626.2V171H624.635L624.594 170.275ZM629.659 171H627.998V163.604H629.659V171ZM627.896 161.683C627.896 161.427 627.975 161.215 628.135 161.047C628.299 160.878 628.531 160.794 628.832 160.794C629.133 160.794 629.365 160.878 629.529 161.047C629.693 161.215 629.775 161.427 629.775 161.683C629.775 161.933 629.693 162.143 629.529 162.312C629.365 162.476 629.133 162.558 628.832 162.558C628.531 162.558 628.299 162.476 628.135 162.312C627.975 162.143 627.896 161.933 627.896 161.683ZM631.163 167.247C631.163 166.108 631.427 165.194 631.956 164.506C632.485 163.813 633.193 163.467 634.082 163.467C634.866 163.467 635.499 163.74 635.982 164.287V160.5H637.644V171H636.14L636.058 170.234C635.561 170.836 634.898 171.137 634.068 171.137C633.202 171.137 632.501 170.788 631.963 170.091C631.43 169.394 631.163 168.446 631.163 167.247ZM632.824 167.391C632.824 168.143 632.968 168.73 633.255 169.154C633.547 169.574 633.959 169.783 634.492 169.783C635.171 169.783 635.668 169.48 635.982 168.874V165.716C635.677 165.123 635.185 164.827 634.506 164.827C633.968 164.827 633.553 165.041 633.262 165.47C632.97 165.894 632.824 166.534 632.824 167.391ZM641.144 171H639.482V163.604H641.144V171ZM639.38 161.683C639.38 161.427 639.46 161.215 639.619 161.047C639.783 160.878 640.016 160.794 640.316 160.794C640.617 160.794 640.85 160.878 641.014 161.047C641.178 161.215 641.26 161.427 641.26 161.683C641.26 161.933 641.178 162.143 641.014 162.312C640.85 162.476 640.617 162.558 640.316 162.558C640.016 162.558 639.783 162.476 639.619 162.312C639.46 162.143 639.38 161.933 639.38 161.683ZM645.04 161.806V163.604H646.346V164.834H645.04V168.963C645.04 169.245 645.095 169.451 645.204 169.578C645.318 169.701 645.519 169.763 645.806 169.763C645.997 169.763 646.191 169.74 646.387 169.694V170.979C646.008 171.084 645.644 171.137 645.293 171.137C644.017 171.137 643.379 170.433 643.379 169.024V164.834H642.162V163.604H643.379V161.806H645.04ZM650.208 168.621L651.712 163.604H653.482L650.543 172.121C650.092 173.365 649.326 173.987 648.246 173.987C648.005 173.987 647.738 173.946 647.446 173.864V172.579L647.761 172.6C648.18 172.6 648.494 172.522 648.704 172.367C648.918 172.217 649.087 171.962 649.21 171.602L649.449 170.966L646.852 163.604H648.643L650.208 168.621ZM659.696 171H658.035V163.604H659.696V171ZM657.933 161.683C657.933 161.427 658.012 161.215 658.172 161.047C658.336 160.878 658.568 160.794 658.869 160.794C659.17 160.794 659.402 160.878 659.566 161.047C659.73 161.215 659.812 161.427 659.812 161.683C659.812 161.933 659.73 162.143 659.566 162.312C659.402 162.476 659.17 162.558 658.869 162.558C658.568 162.558 658.336 162.476 658.172 162.312C658.012 162.143 657.933 161.933 657.933 161.683ZM663.053 163.604L663.101 164.458C663.647 163.797 664.365 163.467 665.254 163.467C666.794 163.467 667.578 164.349 667.605 166.112V171H665.944V166.208C665.944 165.739 665.842 165.392 665.637 165.169C665.436 164.941 665.106 164.827 664.646 164.827C663.976 164.827 663.477 165.13 663.148 165.736V171H661.487V163.604H663.053ZM679.268 167.377C679.268 168.521 679.008 169.435 678.488 170.118C677.969 170.797 677.271 171.137 676.396 171.137C675.585 171.137 674.936 170.87 674.448 170.337V173.844H672.787V163.604H674.318L674.387 164.355C674.874 163.763 675.537 163.467 676.376 163.467C677.278 163.467 677.985 163.804 678.495 164.479C679.01 165.148 679.268 166.08 679.268 167.274V167.377ZM677.613 167.233C677.613 166.495 677.465 165.91 677.169 165.477C676.877 165.044 676.458 164.827 675.911 164.827C675.232 164.827 674.744 165.107 674.448 165.668V168.949C674.749 169.523 675.241 169.811 675.925 169.811C676.453 169.811 676.866 169.599 677.162 169.175C677.463 168.746 677.613 168.099 677.613 167.233ZM680.368 167.233C680.368 166.509 680.512 165.857 680.799 165.278C681.086 164.695 681.489 164.248 682.009 163.938C682.528 163.624 683.125 163.467 683.8 163.467C684.798 163.467 685.607 163.788 686.227 164.431C686.851 165.073 687.188 165.925 687.238 166.987L687.245 167.377C687.245 168.106 687.104 168.758 686.821 169.332C686.543 169.906 686.142 170.351 685.618 170.665C685.099 170.979 684.497 171.137 683.813 171.137C682.77 171.137 681.934 170.79 681.305 170.098C680.68 169.4 680.368 168.473 680.368 167.315V167.233ZM682.029 167.377C682.029 168.138 682.187 168.735 682.501 169.168C682.815 169.596 683.253 169.811 683.813 169.811C684.374 169.811 684.809 169.592 685.119 169.154C685.434 168.717 685.591 168.076 685.591 167.233C685.591 166.486 685.429 165.894 685.105 165.456C684.786 165.019 684.351 164.8 683.8 164.8C683.257 164.8 682.827 165.016 682.508 165.449C682.189 165.878 682.029 166.52 682.029 167.377ZM688.339 167.233C688.339 166.509 688.482 165.857 688.77 165.278C689.057 164.695 689.46 164.248 689.979 163.938C690.499 163.624 691.096 163.467 691.771 163.467C692.769 163.467 693.577 163.788 694.197 164.431C694.822 165.073 695.159 165.925 695.209 166.987L695.216 167.377C695.216 168.106 695.075 168.758 694.792 169.332C694.514 169.906 694.113 170.351 693.589 170.665C693.069 170.979 692.468 171.137 691.784 171.137C690.741 171.137 689.904 170.79 689.275 170.098C688.651 169.4 688.339 168.473 688.339 167.315V167.233ZM690 167.377C690 168.138 690.157 168.735 690.472 169.168C690.786 169.596 691.224 169.811 691.784 169.811C692.345 169.811 692.78 169.592 693.09 169.154C693.404 168.717 693.562 168.076 693.562 167.233C693.562 166.486 693.4 165.894 693.076 165.456C692.757 165.019 692.322 164.8 691.771 164.8C691.228 164.8 690.798 165.016 690.479 165.449C690.16 165.878 690 166.52 690 167.377ZM698.388 171H696.727V160.5H698.388V171Z" fill="#5452F6"/>
<rect x="532" y="270" width="218" height="46" rx="8" fill="#EEEEFF"/>
<path d="M573.387 280.047L576.258 287.676L579.122 280.047H581.357V290H579.635V286.719L579.806 282.33L576.866 290H575.629L572.696 282.337L572.867 286.719V290H571.145V280.047H573.387ZM587.667 290C587.594 289.859 587.53 289.629 587.476 289.31C586.947 289.861 586.3 290.137 585.534 290.137C584.791 290.137 584.185 289.925 583.716 289.501C583.246 289.077 583.012 288.553 583.012 287.929C583.012 287.14 583.303 286.536 583.887 286.117C584.475 285.693 585.313 285.481 586.402 285.481H587.421V284.996C587.421 284.613 587.314 284.308 587.1 284.08C586.885 283.848 586.56 283.731 586.122 283.731C585.744 283.731 585.434 283.827 585.192 284.019C584.951 284.205 584.83 284.445 584.83 284.736H583.169C583.169 284.331 583.303 283.952 583.572 283.602C583.841 283.246 584.206 282.968 584.666 282.768C585.131 282.567 585.648 282.467 586.218 282.467C587.084 282.467 587.774 282.686 588.289 283.123C588.804 283.556 589.068 284.167 589.082 284.955V288.291C589.082 288.956 589.175 289.487 589.362 289.884V290H587.667ZM585.842 288.804C586.17 288.804 586.478 288.724 586.765 288.564C587.056 288.405 587.275 288.191 587.421 287.922V286.527H586.525C585.91 286.527 585.448 286.634 585.138 286.849C584.828 287.063 584.673 287.366 584.673 287.758C584.673 288.077 584.778 288.332 584.987 288.523C585.201 288.71 585.486 288.804 585.842 288.804ZM594.694 284.121C594.476 284.085 594.25 284.066 594.018 284.066C593.257 284.066 592.744 284.358 592.479 284.941V290H590.818V282.604H592.404L592.445 283.431C592.846 282.788 593.402 282.467 594.113 282.467C594.35 282.467 594.546 282.499 594.701 282.562L594.694 284.121ZM595.316 286.247C595.316 285.099 595.585 284.183 596.123 283.499C596.665 282.811 597.383 282.467 598.276 282.467C599.119 282.467 599.783 282.761 600.266 283.349L600.341 282.604H601.838V289.774C601.838 290.745 601.535 291.511 600.929 292.071C600.327 292.632 599.514 292.912 598.488 292.912C597.946 292.912 597.415 292.798 596.896 292.57C596.381 292.347 595.989 292.053 595.72 291.688L596.506 290.69C597.016 291.297 597.645 291.6 598.393 291.6C598.944 291.6 599.379 291.449 599.698 291.148C600.017 290.852 600.177 290.415 600.177 289.836V289.337C599.698 289.87 599.06 290.137 598.263 290.137C597.397 290.137 596.688 289.793 596.137 289.104C595.59 288.416 595.316 287.464 595.316 286.247ZM596.971 286.391C596.971 287.133 597.121 287.719 597.422 288.147C597.727 288.571 598.149 288.783 598.687 288.783C599.356 288.783 599.853 288.496 600.177 287.922V284.668C599.862 284.107 599.37 283.827 598.7 283.827C598.153 283.827 597.727 284.044 597.422 284.477C597.121 284.91 596.971 285.548 596.971 286.391ZM605.317 290H603.656V282.604H605.317V290ZM603.554 280.683C603.554 280.427 603.633 280.215 603.793 280.047C603.957 279.878 604.189 279.794 604.49 279.794C604.791 279.794 605.023 279.878 605.188 280.047C605.352 280.215 605.434 280.427 605.434 280.683C605.434 280.933 605.352 281.143 605.188 281.312C605.023 281.476 604.791 281.558 604.49 281.558C604.189 281.558 603.957 281.476 603.793 281.312C603.633 281.143 603.554 280.933 603.554 280.683ZM608.674 282.604L608.722 283.458C609.269 282.797 609.986 282.467 610.875 282.467C612.415 282.467 613.199 283.349 613.227 285.112V290H611.565V285.208C611.565 284.739 611.463 284.392 611.258 284.169C611.057 283.941 610.727 283.827 610.267 283.827C609.597 283.827 609.098 284.13 608.77 284.736V290H607.108V282.604H608.674ZM619.345 290C619.272 289.859 619.208 289.629 619.153 289.31C618.625 289.861 617.978 290.137 617.212 290.137C616.469 290.137 615.863 289.925 615.394 289.501C614.924 289.077 614.689 288.553 614.689 287.929C614.689 287.14 614.981 286.536 615.564 286.117C616.152 285.693 616.991 285.481 618.08 285.481H619.099V284.996C619.099 284.613 618.992 284.308 618.777 284.08C618.563 283.848 618.237 283.731 617.8 283.731C617.422 283.731 617.112 283.827 616.87 284.019C616.629 284.205 616.508 284.445 616.508 284.736H614.847C614.847 284.331 614.981 283.952 615.25 283.602C615.519 283.246 615.883 282.968 616.344 282.768C616.809 282.567 617.326 282.467 617.896 282.467C618.761 282.467 619.452 282.686 619.967 283.123C620.482 283.556 620.746 284.167 620.76 284.955V288.291C620.76 288.956 620.853 289.487 621.04 289.884V290H619.345ZM617.52 288.804C617.848 288.804 618.155 288.724 618.442 288.564C618.734 288.405 618.953 288.191 619.099 287.922V286.527H618.203C617.588 286.527 617.125 286.634 616.815 286.849C616.506 287.063 616.351 287.366 616.351 287.758C616.351 288.077 616.455 288.332 616.665 288.523C616.879 288.71 617.164 288.804 617.52 288.804ZM624.267 290H622.605V279.5H624.267V290ZM636.045 286.377C636.045 287.521 635.785 288.435 635.266 289.118C634.746 289.797 634.049 290.137 633.174 290.137C632.363 290.137 631.713 289.87 631.226 289.337V292.844H629.564V282.604H631.096L631.164 283.355C631.652 282.763 632.315 282.467 633.153 282.467C634.056 282.467 634.762 282.804 635.272 283.479C635.787 284.148 636.045 285.08 636.045 286.274V286.377ZM634.391 286.233C634.391 285.495 634.243 284.91 633.946 284.477C633.655 284.044 633.235 283.827 632.688 283.827C632.009 283.827 631.522 284.107 631.226 284.668V287.949C631.526 288.523 632.019 288.811 632.702 288.811C633.231 288.811 633.643 288.599 633.939 288.175C634.24 287.746 634.391 287.099 634.391 286.233ZM641.329 284.121C641.11 284.085 640.885 284.066 640.652 284.066C639.891 284.066 639.379 284.358 639.114 284.941V290H637.453V282.604H639.039L639.08 283.431C639.481 282.788 640.037 282.467 640.748 282.467C640.985 282.467 641.181 282.499 641.336 282.562L641.329 284.121ZM644.146 290H642.484V282.604H644.146V290ZM642.382 280.683C642.382 280.427 642.462 280.215 642.621 280.047C642.785 279.878 643.018 279.794 643.318 279.794C643.619 279.794 643.852 279.878 644.016 280.047C644.18 280.215 644.262 280.427 644.262 280.683C644.262 280.933 644.18 281.143 644.016 281.312C643.852 281.476 643.619 281.558 643.318 281.558C643.018 281.558 642.785 281.476 642.621 281.312C642.462 281.143 642.382 280.933 642.382 280.683ZM648.999 288.811C649.414 288.811 649.758 288.69 650.031 288.448C650.305 288.207 650.451 287.908 650.469 287.553H652.034C652.016 288.013 651.872 288.444 651.604 288.845C651.335 289.241 650.97 289.556 650.51 289.788C650.049 290.021 649.553 290.137 649.02 290.137C647.985 290.137 647.165 289.802 646.559 289.132C645.952 288.462 645.649 287.537 645.649 286.356V286.186C645.649 285.06 645.95 284.16 646.552 283.485C647.153 282.806 647.974 282.467 649.013 282.467C649.892 282.467 650.608 282.724 651.159 283.239C651.715 283.75 652.007 284.422 652.034 285.256H650.469C650.451 284.832 650.305 284.483 650.031 284.21C649.762 283.937 649.418 283.8 648.999 283.8C648.461 283.8 648.047 283.996 647.755 284.388C647.463 284.775 647.315 285.365 647.311 286.158V286.425C647.311 287.227 647.454 287.826 647.741 288.223C648.033 288.615 648.452 288.811 648.999 288.811ZM656.546 290.137C655.493 290.137 654.639 289.806 653.982 289.146C653.331 288.48 653.005 287.596 653.005 286.493V286.288C653.005 285.55 653.146 284.891 653.429 284.312C653.716 283.729 654.117 283.276 654.632 282.952C655.147 282.629 655.721 282.467 656.354 282.467C657.362 282.467 658.139 282.788 658.686 283.431C659.237 284.073 659.513 284.982 659.513 286.158V286.828H654.68C654.73 287.439 654.933 287.922 655.288 288.277C655.648 288.633 656.099 288.811 656.642 288.811C657.403 288.811 658.022 288.503 658.501 287.888L659.396 288.742C659.1 289.184 658.704 289.528 658.207 289.774C657.715 290.016 657.161 290.137 656.546 290.137ZM656.348 283.8C655.892 283.8 655.523 283.959 655.24 284.278C654.962 284.597 654.785 285.042 654.707 285.611H657.872V285.488C657.836 284.932 657.688 284.513 657.428 284.23C657.168 283.943 656.808 283.8 656.348 283.8ZM663.983 286.233C663.983 285.509 664.127 284.857 664.414 284.278C664.701 283.695 665.104 283.248 665.624 282.938C666.144 282.624 666.741 282.467 667.415 282.467C668.413 282.467 669.222 282.788 669.842 283.431C670.466 284.073 670.803 284.925 670.854 285.987L670.86 286.377C670.86 287.106 670.719 287.758 670.437 288.332C670.159 288.906 669.757 289.351 669.233 289.665C668.714 289.979 668.112 290.137 667.429 290.137C666.385 290.137 665.549 289.79 664.92 289.098C664.296 288.4 663.983 287.473 663.983 286.315V286.233ZM665.645 286.377C665.645 287.138 665.802 287.735 666.116 288.168C666.431 288.596 666.868 288.811 667.429 288.811C667.989 288.811 668.424 288.592 668.734 288.154C669.049 287.717 669.206 287.076 669.206 286.233C669.206 285.486 669.044 284.894 668.721 284.456C668.402 284.019 667.966 283.8 667.415 283.8C666.873 283.8 666.442 284.016 666.123 284.449C665.804 284.878 665.645 285.52 665.645 286.377ZM672.85 290V283.834H671.722V282.604H672.85V281.927C672.85 281.106 673.077 280.473 673.533 280.026C673.989 279.58 674.627 279.356 675.447 279.356C675.739 279.356 676.049 279.397 676.377 279.479L676.336 280.778C676.154 280.742 675.942 280.724 675.7 280.724C674.907 280.724 674.511 281.132 674.511 281.947V282.604H676.015V283.834H674.511V290H672.85ZM684.3 283.643L686.392 280.047H688.388L685.38 284.982L688.456 290H686.439L684.3 286.35L682.153 290H680.144L683.227 284.982L680.212 280.047H682.208L684.3 283.643ZM696.926 281.441H693.822V290H692.106V281.441H689.03V280.047H696.926V281.441ZM699.865 288.619H705.184V290H697.773V288.879L702.921 281.441H697.808V280.047H705.02V281.141L699.865 288.619ZM711.001 288.25C711.311 288.25 711.55 288.339 711.719 288.517C711.887 288.69 711.972 288.909 711.972 289.173C711.972 289.433 711.887 289.649 711.719 289.822C711.55 289.991 711.311 290.075 711.001 290.075C710.705 290.075 710.47 289.991 710.297 289.822C710.124 289.654 710.037 289.437 710.037 289.173C710.037 288.909 710.121 288.69 710.29 288.517C710.459 288.339 710.696 288.25 711.001 288.25ZM711.001 282.446C711.311 282.446 711.55 282.535 711.719 282.713C711.887 282.886 711.972 283.105 711.972 283.369C711.972 283.629 711.887 283.845 711.719 284.019C711.55 284.187 711.311 284.271 711.001 284.271C710.705 284.271 710.47 284.187 710.297 284.019C710.124 283.85 710.037 283.633 710.037 283.369C710.037 283.105 710.121 282.886 710.29 282.713C710.459 282.535 710.696 282.446 711.001 282.446ZM588.255 306H586.601V298.009L584.16 298.843V297.441L588.043 296.013H588.255V306ZM598.201 301.81C598.201 303.241 597.932 304.321 597.395 305.05C596.861 305.774 596.048 306.137 594.954 306.137C593.879 306.137 593.067 305.784 592.521 305.077C591.978 304.366 591.7 303.316 591.687 301.926V300.203C591.687 298.772 591.953 297.699 592.486 296.983C593.024 296.268 593.842 295.91 594.94 295.91C596.03 295.91 596.841 296.259 597.374 296.956C597.912 297.653 598.188 298.697 598.201 300.087V301.81ZM596.54 299.95C596.54 299.016 596.412 298.332 596.157 297.899C595.902 297.462 595.496 297.243 594.94 297.243C594.398 297.243 593.999 297.451 593.744 297.865C593.489 298.275 593.354 298.918 593.341 299.793V302.049C593.341 302.979 593.471 303.671 593.73 304.127C593.99 304.583 594.398 304.811 594.954 304.811C595.487 304.811 595.882 304.601 596.137 304.182C596.392 303.758 596.526 303.097 596.54 302.199V299.95ZM606.158 301.81C606.158 303.241 605.889 304.321 605.352 305.05C604.818 305.774 604.005 306.137 602.911 306.137C601.836 306.137 601.024 305.784 600.478 305.077C599.935 304.366 599.657 303.316 599.644 301.926V300.203C599.644 298.772 599.91 297.699 600.443 296.983C600.981 296.268 601.799 295.91 602.897 295.91C603.987 295.91 604.798 296.259 605.331 296.956C605.869 297.653 606.145 298.697 606.158 300.087V301.81ZM604.497 299.95C604.497 299.016 604.369 298.332 604.114 297.899C603.859 297.462 603.453 297.243 602.897 297.243C602.355 297.243 601.956 297.451 601.701 297.865C601.446 298.275 601.312 298.918 601.298 299.793V302.049C601.298 302.979 601.428 303.671 601.688 304.127C601.947 304.583 602.355 304.811 602.911 304.811C603.444 304.811 603.839 304.601 604.094 304.182C604.349 303.758 604.483 303.097 604.497 302.199V299.95ZM611.688 306.854H610.383L614.3 296.047H615.605L611.688 306.854ZM620.582 301.064L621.122 296.047H626.468V297.482H622.503L622.229 299.861C622.69 299.597 623.209 299.465 623.788 299.465C624.736 299.465 625.472 299.768 625.996 300.374C626.525 300.98 626.789 301.796 626.789 302.821C626.789 303.833 626.497 304.64 625.914 305.241C625.331 305.838 624.531 306.137 623.515 306.137C622.603 306.137 621.847 305.879 621.245 305.364C620.648 304.845 620.325 304.161 620.274 303.313H621.881C621.945 303.797 622.118 304.168 622.4 304.428C622.683 304.683 623.052 304.811 623.508 304.811C624.018 304.811 624.415 304.628 624.697 304.264C624.984 303.899 625.128 303.402 625.128 302.773C625.128 302.167 624.971 301.689 624.656 301.338C624.342 300.982 623.909 300.805 623.357 300.805C623.057 300.805 622.801 300.846 622.592 300.928C622.382 301.005 622.154 301.16 621.908 301.393L620.582 301.064ZM634.582 301.81C634.582 303.241 634.313 304.321 633.775 305.05C633.242 305.774 632.429 306.137 631.335 306.137C630.259 306.137 629.448 305.784 628.901 305.077C628.359 304.366 628.081 303.316 628.067 301.926V300.203C628.067 298.772 628.334 297.699 628.867 296.983C629.405 296.268 630.223 295.91 631.321 295.91C632.41 295.91 633.222 296.259 633.755 296.956C634.293 297.653 634.568 298.697 634.582 300.087V301.81ZM632.921 299.95C632.921 299.016 632.793 298.332 632.538 297.899C632.283 297.462 631.877 297.243 631.321 297.243C630.779 297.243 630.38 297.451 630.125 297.865C629.87 298.275 629.735 298.918 629.722 299.793V302.049C629.722 302.979 629.852 303.671 630.111 304.127C630.371 304.583 630.779 304.811 631.335 304.811C631.868 304.811 632.262 304.601 632.518 304.182C632.773 303.758 632.907 303.097 632.921 302.199V299.95ZM645.677 300.668H639.784V299.287H645.677V300.668ZM645.677 303.566H639.784V302.192H645.677V303.566ZM657.551 306H650.858V304.858L654.174 301.242C654.652 300.709 654.992 300.265 655.192 299.909C655.397 299.549 655.5 299.189 655.5 298.829C655.5 298.355 655.366 297.972 655.097 297.681C654.832 297.389 654.475 297.243 654.023 297.243C653.486 297.243 653.069 297.407 652.772 297.735C652.476 298.063 652.328 298.512 652.328 299.082H650.667C650.667 298.476 650.804 297.931 651.077 297.448C651.355 296.961 651.749 296.582 652.26 296.313C652.775 296.045 653.367 295.91 654.037 295.91C655.003 295.91 655.764 296.154 656.32 296.642C656.881 297.125 657.161 297.795 657.161 298.651C657.161 299.148 657.02 299.67 656.737 300.217C656.459 300.759 656.001 301.377 655.363 302.069L652.93 304.674H657.551V306ZM669.849 296.047V302.698C669.849 303.756 669.509 304.594 668.83 305.214C668.156 305.829 667.256 306.137 666.13 306.137C664.991 306.137 664.086 305.834 663.416 305.228C662.746 304.617 662.411 303.771 662.411 302.691V296.047H664.134V302.705C664.134 303.37 664.302 303.879 664.64 304.229C664.977 304.58 665.474 304.756 666.13 304.756C667.461 304.756 668.126 304.054 668.126 302.65V296.047H669.849ZM676.903 303.437C676.903 302.999 676.748 302.662 676.438 302.425C676.133 302.188 675.579 301.949 674.777 301.707C673.975 301.465 673.337 301.197 672.863 300.9C671.956 300.331 671.503 299.588 671.503 298.672C671.503 297.87 671.829 297.209 672.48 296.689C673.137 296.17 673.987 295.91 675.03 295.91C675.723 295.91 676.34 296.038 676.883 296.293C677.425 296.548 677.851 296.913 678.161 297.387C678.471 297.856 678.626 298.378 678.626 298.952H676.903C676.903 298.433 676.739 298.027 676.411 297.735C676.088 297.439 675.623 297.291 675.017 297.291C674.451 297.291 674.012 297.412 673.697 297.653C673.387 297.895 673.232 298.232 673.232 298.665C673.232 299.03 673.401 299.335 673.738 299.581C674.076 299.823 674.632 300.06 675.406 300.292C676.181 300.52 676.803 300.782 677.272 301.078C677.742 301.37 678.086 301.707 678.305 302.09C678.523 302.468 678.633 302.912 678.633 303.423C678.633 304.252 678.314 304.913 677.676 305.405C677.042 305.893 676.181 306.137 675.092 306.137C674.372 306.137 673.709 306.005 673.103 305.74C672.501 305.471 672.032 305.102 671.694 304.633C671.362 304.163 671.195 303.617 671.195 302.992H672.925C672.925 303.557 673.112 303.995 673.485 304.305C673.859 304.615 674.395 304.77 675.092 304.77C675.693 304.77 676.145 304.649 676.445 304.407C676.751 304.161 676.903 303.838 676.903 303.437ZM680.15 306V296.047H683.09C683.969 296.047 684.749 296.243 685.428 296.635C686.111 297.027 686.64 297.583 687.014 298.303C687.387 299.023 687.574 299.848 687.574 300.777V301.276C687.574 302.22 687.385 303.049 687.007 303.765C686.633 304.48 686.098 305.032 685.4 305.419C684.708 305.806 683.912 306 683.015 306H680.15ZM681.88 297.441V304.619H683.008C683.915 304.619 684.61 304.337 685.093 303.771C685.58 303.202 685.829 302.386 685.838 301.324V300.771C685.838 299.69 685.603 298.866 685.134 298.296C684.664 297.726 683.983 297.441 683.09 297.441H681.88ZM691.218 296.806V298.604H692.523V299.834H691.218V303.963C691.218 304.245 691.272 304.451 691.382 304.578C691.496 304.701 691.696 304.763 691.983 304.763C692.175 304.763 692.368 304.74 692.564 304.694V305.979C692.186 306.084 691.822 306.137 691.471 306.137C690.195 306.137 689.557 305.433 689.557 304.024V299.834H688.34V298.604H689.557V296.806H691.218ZM695.572 304.674H699.51V306H693.508V304.913L697.261 299.943H693.576V298.604H699.366V299.656L695.572 304.674Z" fill="#5452F6"/>
<rect x="532" y="326" width="218" height="46" rx="8" fill="#EEEEFF"/>
<path d="M566.57 336.047L569.441 343.676L572.306 336.047H574.541V346H572.818V342.719L572.989 338.33L570.05 346H568.812L565.88 338.337L566.051 342.719V346H564.328V336.047H566.57ZM580.851 346C580.778 345.859 580.714 345.629 580.659 345.31C580.131 345.861 579.483 346.137 578.718 346.137C577.975 346.137 577.369 345.925 576.899 345.501C576.43 345.077 576.195 344.553 576.195 343.929C576.195 343.14 576.487 342.536 577.07 342.117C577.658 341.693 578.497 341.481 579.586 341.481H580.604V340.996C580.604 340.613 580.497 340.308 580.283 340.08C580.069 339.848 579.743 339.731 579.306 339.731C578.927 339.731 578.618 339.827 578.376 340.019C578.134 340.205 578.014 340.445 578.014 340.736H576.353C576.353 340.331 576.487 339.952 576.756 339.602C577.025 339.246 577.389 338.968 577.85 338.768C578.314 338.567 578.832 338.467 579.401 338.467C580.267 338.467 580.958 338.686 581.473 339.123C581.988 339.556 582.252 340.167 582.266 340.955V344.291C582.266 344.956 582.359 345.487 582.546 345.884V346H580.851ZM579.025 344.804C579.354 344.804 579.661 344.724 579.948 344.564C580.24 344.405 580.459 344.191 580.604 343.922V342.527H579.709C579.094 342.527 578.631 342.634 578.321 342.849C578.011 343.063 577.856 343.366 577.856 343.758C577.856 344.077 577.961 344.332 578.171 344.523C578.385 344.71 578.67 344.804 579.025 344.804ZM587.878 340.121C587.659 340.085 587.434 340.066 587.201 340.066C586.44 340.066 585.927 340.358 585.663 340.941V346H584.002V338.604H585.588L585.629 339.431C586.03 338.788 586.586 338.467 587.297 338.467C587.534 338.467 587.73 338.499 587.885 338.562L587.878 340.121ZM588.5 342.247C588.5 341.099 588.769 340.183 589.307 339.499C589.849 338.811 590.567 338.467 591.46 338.467C592.303 338.467 592.966 338.761 593.449 339.349L593.524 338.604H595.021V345.774C595.021 346.745 594.718 347.511 594.112 348.071C593.511 348.632 592.697 348.912 591.672 348.912C591.13 348.912 590.599 348.798 590.079 348.57C589.564 348.347 589.172 348.053 588.903 347.688L589.689 346.69C590.2 347.297 590.829 347.6 591.576 347.6C592.128 347.6 592.563 347.449 592.882 347.148C593.201 346.852 593.36 346.415 593.36 345.836V345.337C592.882 345.87 592.244 346.137 591.446 346.137C590.58 346.137 589.872 345.793 589.32 345.104C588.773 344.416 588.5 343.464 588.5 342.247ZM590.154 342.391C590.154 343.133 590.305 343.719 590.605 344.147C590.911 344.571 591.332 344.783 591.87 344.783C592.54 344.783 593.037 344.496 593.36 343.922V340.668C593.046 340.107 592.554 339.827 591.884 339.827C591.337 339.827 590.911 340.044 590.605 340.477C590.305 340.91 590.154 341.548 590.154 342.391ZM598.501 346H596.84V338.604H598.501V346ZM596.737 336.683C596.737 336.427 596.817 336.215 596.977 336.047C597.141 335.878 597.373 335.794 597.674 335.794C597.975 335.794 598.207 335.878 598.371 336.047C598.535 336.215 598.617 336.427 598.617 336.683C598.617 336.933 598.535 337.143 598.371 337.312C598.207 337.476 597.975 337.558 597.674 337.558C597.373 337.558 597.141 337.476 596.977 337.312C596.817 337.143 596.737 336.933 596.737 336.683ZM601.857 338.604L601.905 339.458C602.452 338.797 603.17 338.467 604.059 338.467C605.599 338.467 606.383 339.349 606.41 341.112V346H604.749V341.208C604.749 340.739 604.646 340.392 604.441 340.169C604.241 339.941 603.91 339.827 603.45 339.827C602.78 339.827 602.281 340.13 601.953 340.736V346H600.292V338.604H601.857ZM612.528 346C612.455 345.859 612.392 345.629 612.337 345.31C611.808 345.861 611.161 346.137 610.396 346.137C609.653 346.137 609.047 345.925 608.577 345.501C608.108 345.077 607.873 344.553 607.873 343.929C607.873 343.14 608.165 342.536 608.748 342.117C609.336 341.693 610.174 341.481 611.264 341.481H612.282V340.996C612.282 340.613 612.175 340.308 611.961 340.08C611.747 339.848 611.421 339.731 610.983 339.731C610.605 339.731 610.295 339.827 610.054 340.019C609.812 340.205 609.691 340.445 609.691 340.736H608.03C608.03 340.331 608.165 339.952 608.434 339.602C608.702 339.246 609.067 338.968 609.527 338.768C609.992 338.567 610.509 338.467 611.079 338.467C611.945 338.467 612.635 338.686 613.15 339.123C613.665 339.556 613.93 340.167 613.943 340.955V344.291C613.943 344.956 614.037 345.487 614.224 345.884V346H612.528ZM610.703 344.804C611.031 344.804 611.339 344.724 611.626 344.564C611.918 344.405 612.136 344.191 612.282 343.922V342.527H611.387C610.771 342.527 610.309 342.634 609.999 342.849C609.689 343.063 609.534 343.366 609.534 343.758C609.534 344.077 609.639 344.332 609.849 344.523C610.063 344.71 610.348 344.804 610.703 344.804ZM617.45 346H615.789V335.5H617.45V346ZM629.229 342.377C629.229 343.521 628.969 344.435 628.449 345.118C627.93 345.797 627.232 346.137 626.357 346.137C625.546 346.137 624.897 345.87 624.409 345.337V348.844H622.748V338.604H624.279L624.348 339.355C624.835 338.763 625.498 338.467 626.337 338.467C627.239 338.467 627.946 338.804 628.456 339.479C628.971 340.148 629.229 341.08 629.229 342.274V342.377ZM627.574 342.233C627.574 341.495 627.426 340.91 627.13 340.477C626.838 340.044 626.419 339.827 625.872 339.827C625.193 339.827 624.705 340.107 624.409 340.668V343.949C624.71 344.523 625.202 344.811 625.886 344.811C626.414 344.811 626.827 344.599 627.123 344.175C627.424 343.746 627.574 343.099 627.574 342.233ZM634.513 340.121C634.294 340.085 634.068 340.066 633.836 340.066C633.075 340.066 632.562 340.358 632.298 340.941V346H630.637V338.604H632.223L632.264 339.431C632.665 338.788 633.221 338.467 633.932 338.467C634.169 338.467 634.365 338.499 634.52 338.562L634.513 340.121ZM637.329 346H635.668V338.604H637.329V346ZM635.565 336.683C635.565 336.427 635.645 336.215 635.805 336.047C635.969 335.878 636.201 335.794 636.502 335.794C636.803 335.794 637.035 335.878 637.199 336.047C637.363 336.215 637.445 336.427 637.445 336.683C637.445 336.933 637.363 337.143 637.199 337.312C637.035 337.476 636.803 337.558 636.502 337.558C636.201 337.558 635.969 337.476 635.805 337.312C635.645 337.143 635.565 336.933 635.565 336.683ZM642.183 344.811C642.597 344.811 642.941 344.69 643.215 344.448C643.488 344.207 643.634 343.908 643.652 343.553H645.218C645.2 344.013 645.056 344.444 644.787 344.845C644.518 345.241 644.154 345.556 643.693 345.788C643.233 346.021 642.736 346.137 642.203 346.137C641.169 346.137 640.348 345.802 639.742 345.132C639.136 344.462 638.833 343.537 638.833 342.356V342.186C638.833 341.06 639.134 340.16 639.735 339.485C640.337 338.806 641.157 338.467 642.196 338.467C643.076 338.467 643.791 338.724 644.343 339.239C644.899 339.75 645.19 340.422 645.218 341.256H643.652C643.634 340.832 643.488 340.483 643.215 340.21C642.946 339.937 642.602 339.8 642.183 339.8C641.645 339.8 641.23 339.996 640.938 340.388C640.647 340.775 640.499 341.365 640.494 342.158V342.425C640.494 343.227 640.638 343.826 640.925 344.223C641.216 344.615 641.636 344.811 642.183 344.811ZM649.729 346.137C648.677 346.137 647.822 345.806 647.166 345.146C646.514 344.48 646.188 343.596 646.188 342.493V342.288C646.188 341.55 646.33 340.891 646.612 340.312C646.899 339.729 647.3 339.276 647.815 338.952C648.33 338.629 648.905 338.467 649.538 338.467C650.545 338.467 651.322 338.788 651.869 339.431C652.421 340.073 652.696 340.982 652.696 342.158V342.828H647.863C647.913 343.439 648.116 343.922 648.472 344.277C648.832 344.633 649.283 344.811 649.825 344.811C650.586 344.811 651.206 344.503 651.685 343.888L652.58 344.742C652.284 345.184 651.887 345.528 651.391 345.774C650.898 346.016 650.345 346.137 649.729 346.137ZM649.531 339.8C649.076 339.8 648.706 339.959 648.424 340.278C648.146 340.597 647.968 341.042 647.891 341.611H651.056V341.488C651.019 340.932 650.871 340.513 650.611 340.23C650.352 339.943 649.992 339.8 649.531 339.8ZM657.167 342.233C657.167 341.509 657.311 340.857 657.598 340.278C657.885 339.695 658.288 339.248 658.808 338.938C659.327 338.624 659.924 338.467 660.599 338.467C661.597 338.467 662.406 338.788 663.025 339.431C663.65 340.073 663.987 340.925 664.037 341.987L664.044 342.377C664.044 343.106 663.903 343.758 663.62 344.332C663.342 344.906 662.941 345.351 662.417 345.665C661.897 345.979 661.296 346.137 660.612 346.137C659.569 346.137 658.732 345.79 658.104 345.098C657.479 344.4 657.167 343.473 657.167 342.315V342.233ZM658.828 342.377C658.828 343.138 658.985 343.735 659.3 344.168C659.614 344.596 660.052 344.811 660.612 344.811C661.173 344.811 661.608 344.592 661.918 344.154C662.232 343.717 662.39 343.076 662.39 342.233C662.39 341.486 662.228 340.894 661.904 340.456C661.585 340.019 661.15 339.8 660.599 339.8C660.056 339.8 659.626 340.016 659.307 340.449C658.988 340.878 658.828 341.52 658.828 342.377ZM666.033 346V339.834H664.905V338.604H666.033V337.927C666.033 337.106 666.261 336.473 666.717 336.026C667.173 335.58 667.811 335.356 668.631 335.356C668.923 335.356 669.232 335.397 669.561 335.479L669.52 336.778C669.337 336.742 669.125 336.724 668.884 336.724C668.091 336.724 667.694 337.132 667.694 337.947V338.604H669.198V339.834H667.694V346H666.033ZM681.339 336.047V342.698C681.339 343.756 680.999 344.594 680.32 345.214C679.646 345.829 678.746 346.137 677.62 346.137C676.481 346.137 675.576 345.834 674.906 345.228C674.236 344.617 673.901 343.771 673.901 342.691V336.047H675.624V342.705C675.624 343.37 675.793 343.879 676.13 344.229C676.467 344.58 676.964 344.756 677.62 344.756C678.951 344.756 679.616 344.054 679.616 342.65V336.047H681.339ZM688.394 343.437C688.394 342.999 688.239 342.662 687.929 342.425C687.623 342.188 687.07 341.949 686.268 341.707C685.465 341.465 684.827 341.197 684.354 340.9C683.447 340.331 682.993 339.588 682.993 338.672C682.993 337.87 683.319 337.209 683.971 336.689C684.627 336.17 685.477 335.91 686.521 335.91C687.213 335.91 687.831 336.038 688.373 336.293C688.915 336.548 689.341 336.913 689.651 337.387C689.961 337.856 690.116 338.378 690.116 338.952H688.394C688.394 338.433 688.229 338.027 687.901 337.735C687.578 337.439 687.113 337.291 686.507 337.291C685.942 337.291 685.502 337.412 685.188 337.653C684.878 337.895 684.723 338.232 684.723 338.665C684.723 339.03 684.891 339.335 685.229 339.581C685.566 339.823 686.122 340.06 686.896 340.292C687.671 340.52 688.293 340.782 688.763 341.078C689.232 341.37 689.576 341.707 689.795 342.09C690.014 342.468 690.123 342.912 690.123 343.423C690.123 344.252 689.804 344.913 689.166 345.405C688.533 345.893 687.671 346.137 686.582 346.137C685.862 346.137 685.199 346.005 684.593 345.74C683.991 345.471 683.522 345.102 683.185 344.633C682.852 344.163 682.686 343.617 682.686 342.992H684.415C684.415 343.557 684.602 343.995 684.976 344.305C685.349 344.615 685.885 344.77 686.582 344.77C687.184 344.77 687.635 344.649 687.936 344.407C688.241 344.161 688.394 343.838 688.394 343.437ZM691.641 346V336.047H694.58C695.46 336.047 696.239 336.243 696.918 336.635C697.602 337.027 698.13 337.583 698.504 338.303C698.878 339.023 699.064 339.848 699.064 340.777V341.276C699.064 342.22 698.875 343.049 698.497 343.765C698.123 344.48 697.588 345.032 696.891 345.419C696.198 345.806 695.403 346 694.505 346H691.641ZM693.37 337.441V344.619H694.498C695.405 344.619 696.1 344.337 696.583 343.771C697.071 343.202 697.319 342.386 697.328 341.324V340.771C697.328 339.69 697.093 338.866 696.624 338.296C696.155 337.726 695.473 337.441 694.58 337.441H693.37ZM702.708 336.806V338.604H704.014V339.834H702.708V343.963C702.708 344.245 702.763 344.451 702.872 344.578C702.986 344.701 703.187 344.763 703.474 344.763C703.665 344.763 703.859 344.74 704.055 344.694V345.979C703.676 346.084 703.312 346.137 702.961 346.137C701.685 346.137 701.047 345.433 701.047 344.024V339.834H699.83V338.604H701.047V336.806H702.708ZM707.062 344.674H711V346H704.998V344.913L708.751 339.943H705.066V338.604H710.856V339.656L707.062 344.674ZM716.817 344.25C717.127 344.25 717.367 344.339 717.535 344.517C717.704 344.69 717.788 344.909 717.788 345.173C717.788 345.433 717.704 345.649 717.535 345.822C717.367 345.991 717.127 346.075 716.817 346.075C716.521 346.075 716.286 345.991 716.113 345.822C715.94 345.654 715.854 345.437 715.854 345.173C715.854 344.909 715.938 344.69 716.106 344.517C716.275 344.339 716.512 344.25 716.817 344.25ZM716.817 338.446C717.127 338.446 717.367 338.535 717.535 338.713C717.704 338.886 717.788 339.105 717.788 339.369C717.788 339.629 717.704 339.845 717.535 340.019C717.367 340.187 717.127 340.271 716.817 340.271C716.521 340.271 716.286 340.187 716.113 340.019C715.94 339.85 715.854 339.633 715.854 339.369C715.854 339.105 715.938 338.886 716.106 338.713C716.275 338.535 716.512 338.446 716.817 338.446ZM584.084 357.064L584.624 352.047H589.97V353.482H586.005L585.731 355.861C586.192 355.597 586.711 355.465 587.29 355.465C588.238 355.465 588.974 355.768 589.498 356.374C590.027 356.98 590.291 357.796 590.291 358.821C590.291 359.833 589.999 360.64 589.416 361.241C588.833 361.838 588.033 362.137 587.017 362.137C586.105 362.137 585.349 361.879 584.747 361.364C584.15 360.845 583.826 360.161 583.776 359.313H585.383C585.447 359.797 585.62 360.168 585.902 360.428C586.185 360.683 586.554 360.811 587.01 360.811C587.52 360.811 587.917 360.628 588.199 360.264C588.486 359.899 588.63 359.402 588.63 358.773C588.63 358.167 588.473 357.689 588.158 357.338C587.844 356.982 587.411 356.805 586.859 356.805C586.559 356.805 586.303 356.846 586.094 356.928C585.884 357.005 585.656 357.16 585.41 357.393L584.084 357.064ZM598.084 357.81C598.084 359.241 597.815 360.321 597.277 361.05C596.744 361.774 595.931 362.137 594.837 362.137C593.761 362.137 592.95 361.784 592.403 361.077C591.861 360.366 591.583 359.316 591.569 357.926V356.203C591.569 354.772 591.836 353.699 592.369 352.983C592.907 352.268 593.725 351.91 594.823 351.91C595.912 351.91 596.724 352.259 597.257 352.956C597.795 353.653 598.07 354.697 598.084 356.087V357.81ZM596.423 355.95C596.423 355.016 596.295 354.332 596.04 353.899C595.785 353.462 595.379 353.243 594.823 353.243C594.281 353.243 593.882 353.451 593.627 353.865C593.372 354.275 593.237 354.918 593.224 355.793V358.049C593.224 358.979 593.354 359.671 593.613 360.127C593.873 360.583 594.281 360.811 594.837 360.811C595.37 360.811 595.764 360.601 596.02 360.182C596.275 359.758 596.409 359.097 596.423 358.199V355.95ZM603.614 362.854H602.309L606.226 352.047H607.531L603.614 362.854ZM616.562 362H614.907V354.009L612.467 354.843V353.441L616.35 352.013H616.562V362ZM626.508 357.81C626.508 359.241 626.239 360.321 625.701 361.05C625.168 361.774 624.354 362.137 623.261 362.137C622.185 362.137 621.374 361.784 620.827 361.077C620.285 360.366 620.007 359.316 619.993 357.926V356.203C619.993 354.772 620.26 353.699 620.793 352.983C621.331 352.268 622.149 351.91 623.247 351.91C624.336 351.91 625.147 352.259 625.681 352.956C626.218 353.653 626.494 354.697 626.508 356.087V357.81ZM624.847 355.95C624.847 355.016 624.719 354.332 624.464 353.899C624.209 353.462 623.803 353.243 623.247 353.243C622.705 353.243 622.306 353.451 622.051 353.865C621.796 354.275 621.661 354.918 621.647 355.793V358.049C621.647 358.979 621.777 359.671 622.037 360.127C622.297 360.583 622.705 360.811 623.261 360.811C623.794 360.811 624.188 360.601 624.443 360.182C624.699 359.758 624.833 359.097 624.847 358.199V355.95ZM634.465 357.81C634.465 359.241 634.196 360.321 633.658 361.05C633.125 361.774 632.312 362.137 631.218 362.137C630.142 362.137 629.331 361.784 628.784 361.077C628.242 360.366 627.964 359.316 627.95 357.926V356.203C627.95 354.772 628.217 353.699 628.75 352.983C629.288 352.268 630.106 351.91 631.204 351.91C632.293 351.91 633.104 352.259 633.638 352.956C634.175 353.653 634.451 354.697 634.465 356.087V357.81ZM632.804 355.95C632.804 355.016 632.676 354.332 632.421 353.899C632.166 353.462 631.76 353.243 631.204 353.243C630.662 353.243 630.263 353.451 630.008 353.865C629.753 354.275 629.618 354.918 629.604 355.793V358.049C629.604 358.979 629.734 359.671 629.994 360.127C630.254 360.583 630.662 360.811 631.218 360.811C631.751 360.811 632.145 360.601 632.4 360.182C632.656 359.758 632.79 359.097 632.804 358.199V355.95ZM645.56 356.668H639.667V355.287H645.56V356.668ZM645.56 359.566H639.667V358.192H645.56V359.566ZM657.229 357.81C657.229 359.241 656.96 360.321 656.422 361.05C655.889 361.774 655.075 362.137 653.981 362.137C652.906 362.137 652.095 361.784 651.548 361.077C651.006 360.366 650.728 359.316 650.714 357.926V356.203C650.714 354.772 650.98 353.699 651.514 352.983C652.051 352.268 652.869 351.91 653.968 351.91C655.057 351.91 655.868 352.259 656.401 352.956C656.939 353.653 657.215 354.697 657.229 356.087V357.81ZM655.567 355.95C655.567 355.016 655.44 354.332 655.185 353.899C654.929 353.462 654.524 353.243 653.968 353.243C653.425 353.243 653.027 353.451 652.771 353.865C652.516 354.275 652.382 354.918 652.368 355.793V358.049C652.368 358.979 652.498 359.671 652.758 360.127C653.018 360.583 653.425 360.811 653.981 360.811C654.515 360.811 654.909 360.601 655.164 360.182C655.419 359.758 655.554 359.097 655.567 358.199V355.95ZM659.84 360.25C660.15 360.25 660.389 360.339 660.558 360.517C660.726 360.69 660.811 360.909 660.811 361.173C660.811 361.433 660.726 361.649 660.558 361.822C660.389 361.991 660.15 362.075 659.84 362.075C659.544 362.075 659.309 361.991 659.136 361.822C658.963 361.654 658.876 361.437 658.876 361.173C658.876 360.909 658.96 360.69 659.129 360.517C659.298 360.339 659.535 360.25 659.84 360.25ZM663.053 357.064L663.593 352.047H668.938V353.482H664.974L664.7 355.861C665.16 355.597 665.68 355.465 666.259 355.465C667.207 355.465 667.943 355.768 668.467 356.374C668.995 356.98 669.26 357.796 669.26 358.821C669.26 359.833 668.968 360.64 668.385 361.241C667.801 361.838 667.002 362.137 665.985 362.137C665.074 362.137 664.317 361.879 663.716 361.364C663.119 360.845 662.795 360.161 662.745 359.313H664.352C664.415 359.797 664.589 360.168 664.871 360.428C665.154 360.683 665.523 360.811 665.979 360.811C666.489 360.811 666.885 360.628 667.168 360.264C667.455 359.899 667.599 359.402 667.599 358.773C667.599 358.167 667.441 357.689 667.127 357.338C666.812 356.982 666.38 356.805 665.828 356.805C665.527 356.805 665.272 356.846 665.062 356.928C664.853 357.005 664.625 357.16 664.379 357.393L663.053 357.064ZM677.743 355.643L679.835 352.047H681.831L678.823 356.982L681.899 362H679.883L677.743 358.35L675.597 362H673.587L676.67 356.982L673.655 352.047H675.651L677.743 355.643ZM690.369 353.441H687.266V362H685.55V353.441H682.474V352.047H690.369V353.441ZM693.309 360.619H698.627V362H691.217V360.879L696.364 353.441H691.251V352.047H698.463V353.141L693.309 360.619Z" fill="#5452F6"/>
<path d="M271 267L495.67 267" stroke="#5452F6"/>
</svg>
