<svg width="394" height="371" viewBox="0 0 394 371" fill="none" xmlns="http://www.w3.org/2000/svg">
<g clip-path="url(#clip0)">
<g filter="url(#filter0_d)">
<path d="M201.428 359C198.349 364.333 190.651 364.333 187.572 359L0.943359 35.75C-2.13586 30.4167 1.71313 23.75 7.87155 23.75L381.128 23.75C387.287 23.75 391.136 30.4167 388.057 35.75L201.428 359Z" fill="white"/>
<path d="M200.995 358.75C198.108 363.75 190.892 363.75 188.005 358.75L1.37637 35.5C-1.51041 30.5 2.09802 24.25 7.87155 24.25L381.128 24.25C386.902 24.25 390.51 30.5 387.624 35.5L200.995 358.75Z" stroke="#5452F6"/>
</g>
</g>
<path d="M295.983 246.497L287.374 241.5L288.85 238.958C289.291 238.197 289.852 237.622 290.532 237.231C291.214 236.837 291.96 236.659 292.771 236.697C293.581 236.735 294.388 236.988 295.192 237.454L295.624 237.705C296.44 238.178 297.062 238.758 297.491 239.445C297.922 240.127 298.131 240.867 298.116 241.664C298.103 242.458 297.871 243.243 297.42 244.019L295.983 246.497ZM289.449 240.705L295.657 244.308L296.223 243.332C296.678 242.548 296.783 241.805 296.536 241.103C296.288 240.396 295.707 239.771 294.794 239.231L294.315 238.953C293.381 238.41 292.549 238.199 291.821 238.319C291.093 238.439 290.504 238.886 290.056 239.658L289.449 240.705ZM302.247 235.976C301.718 236.887 301.004 237.46 300.103 237.696C299.2 237.926 298.272 237.764 297.318 237.21L297.141 237.107C296.502 236.736 296.003 236.284 295.645 235.749C295.284 235.208 295.093 234.633 295.072 234.025C295.051 233.418 295.199 232.84 295.517 232.292C296.023 231.421 296.691 230.91 297.521 230.76C298.353 230.605 299.278 230.823 300.295 231.413L300.874 231.75L298.448 235.93C299.002 236.193 299.521 236.26 300.007 236.131C300.495 235.998 300.876 235.697 301.148 235.228C301.53 234.57 301.575 233.879 301.283 233.157L302.472 232.811C302.705 233.289 302.804 233.805 302.767 234.358C302.729 234.905 302.556 235.444 302.247 235.976ZM296.667 232.967C296.438 233.361 296.39 233.76 296.524 234.165C296.661 234.565 296.956 234.942 297.41 235.295L298.999 232.558L298.892 232.496C298.393 232.248 297.956 232.166 297.581 232.249C297.202 232.329 296.898 232.569 296.667 232.967ZM304.765 228.996C304.973 228.638 305.041 228.279 304.969 227.922C304.898 227.564 304.713 227.288 304.414 227.094L305.2 225.74C305.589 225.987 305.89 226.327 306.102 226.761C306.309 227.193 306.398 227.666 306.368 228.18C306.338 228.695 306.189 229.183 305.922 229.644C305.403 230.539 304.701 231.08 303.817 231.268C302.934 231.456 301.981 231.254 300.961 230.661L300.813 230.576C299.839 230.011 299.212 229.299 298.93 228.44C298.645 227.579 298.763 226.699 299.285 225.8C299.726 225.039 300.308 224.55 301.03 224.331C301.751 224.107 302.479 224.192 303.214 224.587L302.428 225.941C302.052 225.744 301.678 225.695 301.304 225.794C300.932 225.89 300.641 226.118 300.431 226.481C300.161 226.946 300.122 227.403 300.315 227.852C300.503 228.299 300.939 228.723 301.623 229.125L301.854 229.259C302.547 229.662 303.138 229.838 303.625 229.789C304.11 229.734 304.49 229.469 304.765 228.996ZM309.7 223.135C309.171 224.045 308.457 224.619 307.556 224.854C306.653 225.084 305.725 224.922 304.771 224.369L304.594 224.266C303.955 223.895 303.457 223.442 303.098 222.907C302.737 222.366 302.547 221.792 302.525 221.184C302.504 220.576 302.652 219.998 302.97 219.45C303.476 218.579 304.144 218.069 304.974 217.918C305.807 217.764 306.731 217.982 307.748 218.572L308.328 218.908L305.902 223.088C306.455 223.351 306.974 223.418 307.46 223.289C307.949 223.156 308.329 222.856 308.601 222.386C308.983 221.728 309.028 221.038 308.736 220.315L309.925 219.969C310.158 220.448 310.257 220.963 310.22 221.516C310.182 222.063 310.009 222.603 309.7 223.135ZM304.12 220.125C303.891 220.52 303.844 220.919 303.978 221.323C304.114 221.724 304.409 222.101 304.863 222.454L306.452 219.716L306.345 219.655C305.846 219.407 305.409 219.325 305.034 219.407C304.656 219.488 304.351 219.727 304.12 220.125ZM306.098 214.334L306.861 214.721C306.564 213.917 306.638 213.13 307.085 212.362C307.858 211.029 309.014 210.794 310.553 211.656L314.78 214.109L313.946 215.546L309.802 213.14C309.396 212.905 309.045 212.82 308.749 212.885C308.451 212.944 308.187 213.173 307.956 213.571C307.619 214.15 307.631 214.734 307.991 215.322L312.543 217.964L311.709 219.401L305.312 215.688L306.098 214.334ZM308.726 206.224L310.281 207.127L310.936 205.998L312 206.615L311.345 207.745L314.916 209.817C315.16 209.959 315.365 210.015 315.531 209.984C315.694 209.947 315.848 209.805 315.992 209.556C316.088 209.391 316.166 209.212 316.225 209.02L317.336 209.665C317.237 210.044 317.099 210.386 316.923 210.69C316.283 211.793 315.353 211.992 314.135 211.285L310.511 209.181L309.9 210.234L308.836 209.616L309.447 208.564L307.892 207.661L308.726 206.224ZM314.833 202.307C314.691 202.478 314.562 202.664 314.446 202.865C314.064 203.524 314.059 204.113 314.43 204.635L318.805 207.174L317.972 208.611L311.575 204.898L312.371 203.526L313.107 203.906C312.752 203.237 312.753 202.594 313.11 201.98C313.229 201.775 313.355 201.621 313.488 201.519L314.833 202.307ZM322.56 200.706C322.401 200.698 322.17 200.638 321.866 200.525C322.078 201.259 321.991 201.957 321.607 202.619C321.234 203.262 320.747 203.68 320.145 203.873C319.542 204.066 318.971 204.006 318.431 203.693C317.749 203.297 317.374 202.741 317.304 202.026C317.232 201.305 317.47 200.474 318.017 199.532L318.528 198.651L318.108 198.407C317.777 198.215 317.459 198.154 317.155 198.225C316.846 198.294 316.582 198.517 316.362 198.896C316.173 199.223 316.1 199.539 316.144 199.844C316.184 200.146 316.331 200.371 316.583 200.517L315.749 201.954C315.398 201.751 315.139 201.444 314.97 201.036C314.798 200.625 314.74 200.17 314.798 199.671C314.858 199.168 315.031 198.671 315.317 198.178C315.751 197.429 316.287 196.942 316.924 196.716C317.557 196.488 318.218 196.566 318.907 196.95L321.792 198.624C322.367 198.958 322.873 199.144 323.31 199.182L323.411 199.24L322.56 200.706ZM320.609 201.684C320.773 201.4 320.859 201.094 320.865 200.766C320.873 200.434 320.798 200.137 320.639 199.876L319.433 199.176L318.983 199.95C318.674 200.482 318.535 200.936 318.564 201.312C318.594 201.687 318.778 201.973 319.117 202.17C319.393 202.33 319.667 202.368 319.937 202.283C320.206 202.191 320.43 201.992 320.609 201.684ZM325.03 196.449L324.196 197.886L315.115 192.615L315.949 191.178L325.03 196.449ZM326.828 193.351L325.994 194.788L319.597 191.075L320.431 189.638L326.828 193.351ZM317.885 190.199C317.664 190.071 317.521 189.896 317.455 189.673C317.391 189.447 317.435 189.204 317.586 188.943C317.737 188.683 317.927 188.525 318.155 188.467C318.383 188.41 318.607 188.445 318.828 188.574C319.045 188.699 319.185 188.876 319.249 189.102C319.308 189.326 319.262 189.569 319.111 189.829C318.96 190.089 318.773 190.249 318.549 190.308C318.323 190.362 318.101 190.325 317.885 190.199ZM328.082 187.187C327.826 187.038 327.569 187.031 327.312 187.166C327.056 187.298 326.736 187.578 326.35 188.007C325.963 188.436 325.597 188.769 325.249 189.004C324.486 189.52 323.775 189.587 323.117 189.205C322.565 188.885 322.239 188.385 322.138 187.705C322.038 187.025 322.196 186.326 322.612 185.609C323.056 184.844 323.603 184.337 324.254 184.087C324.907 183.834 325.535 183.882 326.138 184.232L325.304 185.669C325.028 185.509 324.74 185.479 324.439 185.578C324.135 185.676 323.885 185.894 323.688 186.233C323.505 186.548 323.428 186.849 323.457 187.135C323.489 187.416 323.627 187.628 323.871 187.77C324.092 187.898 324.317 187.905 324.547 187.791C324.776 187.676 325.118 187.374 325.571 186.883C326.02 186.391 326.424 186.035 326.783 185.816C327.14 185.592 327.484 185.472 327.813 185.458C328.145 185.44 328.483 185.53 328.826 185.729C329.401 186.063 329.73 186.573 329.812 187.258C329.89 187.941 329.704 188.668 329.256 189.441C328.952 189.965 328.586 190.377 328.159 190.677C327.732 190.977 327.286 191.146 326.823 191.182C326.359 191.219 325.936 191.126 325.553 190.904L326.363 189.509C326.714 189.686 327.05 189.71 327.373 189.581C327.691 189.45 327.964 189.189 328.19 188.799C328.41 188.42 328.506 188.091 328.478 187.812C328.447 187.53 328.315 187.322 328.082 187.187ZM333.123 182.778C332.595 183.688 331.88 184.261 330.979 184.497C330.077 184.727 329.148 184.565 328.194 184.011L328.017 183.908C327.379 183.538 326.88 183.085 326.521 182.55C326.161 182.009 325.97 181.435 325.949 180.827C325.927 180.219 326.076 179.641 326.394 179.093C326.899 178.222 327.567 177.711 328.397 177.561C329.23 177.407 330.155 177.624 331.172 178.215L331.751 178.551L329.325 182.731C329.878 182.994 330.398 183.061 330.884 182.932C331.372 182.799 331.752 182.498 332.024 182.029C332.406 181.371 332.451 180.681 332.159 179.958L333.348 179.612C333.582 180.09 333.68 180.606 333.644 181.159C333.606 181.706 333.432 182.246 333.123 182.778ZM327.543 179.768C327.314 180.162 327.267 180.562 327.401 180.966C327.537 181.367 327.832 181.744 328.286 182.097L329.875 179.359L329.769 179.297C329.269 179.05 328.832 178.967 328.458 179.05C328.079 179.131 327.774 179.37 327.543 179.768ZM331.742 177.408C330.757 176.836 330.1 176.149 329.77 175.346C329.436 174.541 329.492 173.754 329.938 172.986C330.332 172.308 330.886 171.897 331.602 171.754L328.326 169.853L329.16 168.416L338.241 173.687L337.486 174.988L336.783 174.674C337.054 175.406 336.981 176.13 336.565 176.848C336.13 177.597 335.476 178.029 334.603 178.144C333.733 178.255 332.779 178.01 331.742 177.408ZM332.701 176.043C333.351 176.421 333.931 176.592 334.442 176.556C334.951 176.514 335.339 176.263 335.607 175.802C335.948 175.214 335.935 174.633 335.569 174.056L332.837 172.471C332.172 172.438 331.668 172.715 331.328 173.302C331.058 173.767 331.035 174.233 331.259 174.701C331.479 175.166 331.959 175.613 332.701 176.043Z" fill="#5452F6"/>
<path d="M162.684 9.75977C162.583 10.8216 162.191 11.651 161.508 12.248C160.824 12.8405 159.915 13.1367 158.78 13.1367C157.987 13.1367 157.288 12.9499 156.682 12.5762C156.08 12.1979 155.615 11.6624 155.287 10.9697C154.959 10.277 154.788 9.47266 154.774 8.55664V7.62695C154.774 6.68815 154.941 5.861 155.273 5.14551C155.606 4.43001 156.082 3.87858 156.702 3.49121C157.326 3.10384 158.047 2.91016 158.862 2.91016C159.961 2.91016 160.845 3.20866 161.515 3.80566C162.185 4.40267 162.574 5.24577 162.684 6.33496H160.961C160.879 5.61947 160.669 5.10449 160.332 4.79004C159.999 4.47103 159.509 4.31152 158.862 4.31152C158.11 4.31152 157.532 4.58724 157.126 5.13867C156.725 5.68555 156.52 6.48991 156.511 7.55176V8.43359C156.511 9.50911 156.702 10.3294 157.085 10.8945C157.472 11.4596 158.037 11.7422 158.78 11.7422C159.459 11.7422 159.97 11.5895 160.312 11.2842C160.653 10.9788 160.87 10.4707 160.961 9.75977H162.684ZM163.764 9.2334C163.764 8.50879 163.907 7.8571 164.194 7.27832C164.481 6.69499 164.885 6.24837 165.404 5.93848C165.924 5.62402 166.521 5.4668 167.195 5.4668C168.193 5.4668 169.002 5.78809 169.622 6.43066C170.246 7.07324 170.584 7.92546 170.634 8.9873L170.641 9.37695C170.641 10.1061 170.499 10.7578 170.217 11.332C169.939 11.9062 169.538 12.3506 169.014 12.665C168.494 12.9795 167.893 13.1367 167.209 13.1367C166.165 13.1367 165.329 12.7904 164.7 12.0977C164.076 11.4004 163.764 10.473 163.764 9.31543V9.2334ZM165.425 9.37695C165.425 10.138 165.582 10.735 165.896 11.168C166.211 11.5964 166.648 11.8105 167.209 11.8105C167.77 11.8105 168.205 11.5918 168.515 11.1543C168.829 10.7168 168.986 10.0765 168.986 9.2334C168.986 8.486 168.825 7.89355 168.501 7.45605C168.182 7.01855 167.747 6.7998 167.195 6.7998C166.653 6.7998 166.222 7.01628 165.903 7.44922C165.584 7.8776 165.425 8.52018 165.425 9.37695ZM173.812 13H172.151V2.5H173.812V13ZM177.395 13H175.733V2.5H177.395V13ZM183.629 13C183.556 12.8587 183.492 12.6286 183.438 12.3096C182.909 12.861 182.262 13.1367 181.496 13.1367C180.753 13.1367 180.147 12.9248 179.678 12.501C179.208 12.0771 178.974 11.5531 178.974 10.9287C178.974 10.1403 179.265 9.53646 179.849 9.11719C180.437 8.69336 181.275 8.48145 182.364 8.48145H183.383V7.99609C183.383 7.61328 183.276 7.30794 183.062 7.08008C182.847 6.84766 182.521 6.73145 182.084 6.73145C181.706 6.73145 181.396 6.82715 181.154 7.01855C180.913 7.2054 180.792 7.44466 180.792 7.73633H179.131C179.131 7.33073 179.265 6.95247 179.534 6.60156C179.803 6.24609 180.168 5.9681 180.628 5.76758C181.093 5.56706 181.61 5.4668 182.18 5.4668C183.046 5.4668 183.736 5.68555 184.251 6.12305C184.766 6.55599 185.03 7.16667 185.044 7.95508V11.291C185.044 11.9564 185.137 12.4873 185.324 12.8838V13H183.629ZM181.804 11.8037C182.132 11.8037 182.439 11.724 182.727 11.5645C183.018 11.4049 183.237 11.1908 183.383 10.9219V9.52734H182.487C181.872 9.52734 181.41 9.63444 181.1 9.84863C180.79 10.0628 180.635 10.3659 180.635 10.7578C180.635 11.0768 180.74 11.332 180.949 11.5234C181.163 11.7103 181.448 11.8037 181.804 11.8037ZM188.865 3.80566V5.60352H190.171V6.83398H188.865V10.9629C188.865 11.2454 188.92 11.4505 189.029 11.5781C189.143 11.7012 189.344 11.7627 189.631 11.7627C189.822 11.7627 190.016 11.7399 190.212 11.6943V12.9795C189.834 13.0843 189.469 13.1367 189.118 13.1367C187.842 13.1367 187.204 12.4326 187.204 11.0244V6.83398H185.987V5.60352H187.204V3.80566H188.865ZM194.703 13.1367C193.65 13.1367 192.796 12.8063 192.14 12.1455C191.488 11.4801 191.162 10.596 191.162 9.49316V9.28809C191.162 8.5498 191.303 7.89128 191.586 7.3125C191.873 6.72917 192.274 6.27572 192.789 5.95215C193.304 5.62858 193.878 5.4668 194.512 5.4668C195.519 5.4668 196.296 5.78809 196.843 6.43066C197.394 7.07324 197.67 7.98242 197.67 9.1582V9.82812H192.837C192.887 10.4388 193.09 10.9219 193.445 11.2773C193.805 11.6328 194.257 11.8105 194.799 11.8105C195.56 11.8105 196.18 11.5029 196.658 10.8877L197.554 11.7422C197.257 12.1842 196.861 12.5283 196.364 12.7744C195.872 13.016 195.318 13.1367 194.703 13.1367ZM194.505 6.7998C194.049 6.7998 193.68 6.95931 193.397 7.27832C193.119 7.59733 192.942 8.04167 192.864 8.61133H196.029V8.48828C195.993 7.93229 195.845 7.51302 195.585 7.23047C195.325 6.94336 194.965 6.7998 194.505 6.7998ZM202.838 7.12109C202.619 7.08464 202.394 7.06641 202.161 7.06641C201.4 7.06641 200.887 7.35807 200.623 7.94141V13H198.962V5.60352H200.548L200.589 6.43066C200.99 5.78809 201.546 5.4668 202.257 5.4668C202.494 5.4668 202.69 5.4987 202.845 5.5625L202.838 7.12109ZM208.102 13C208.029 12.8587 207.965 12.6286 207.91 12.3096C207.382 12.861 206.734 13.1367 205.969 13.1367C205.226 13.1367 204.62 12.9248 204.15 12.501C203.681 12.0771 203.446 11.5531 203.446 10.9287C203.446 10.1403 203.738 9.53646 204.321 9.11719C204.909 8.69336 205.748 8.48145 206.837 8.48145H207.855V7.99609C207.855 7.61328 207.748 7.30794 207.534 7.08008C207.32 6.84766 206.994 6.73145 206.557 6.73145C206.178 6.73145 205.868 6.82715 205.627 7.01855C205.385 7.2054 205.265 7.44466 205.265 7.73633H203.604C203.604 7.33073 203.738 6.95247 204.007 6.60156C204.276 6.24609 204.64 5.9681 205.101 5.76758C205.565 5.56706 206.083 5.4668 206.652 5.4668C207.518 5.4668 208.209 5.68555 208.724 6.12305C209.239 6.55599 209.503 7.16667 209.517 7.95508V11.291C209.517 11.9564 209.61 12.4873 209.797 12.8838V13H208.102ZM206.276 11.8037C206.604 11.8037 206.912 11.724 207.199 11.5645C207.491 11.4049 207.71 11.1908 207.855 10.9219V9.52734H206.96C206.345 9.52734 205.882 9.63444 205.572 9.84863C205.262 10.0628 205.107 10.3659 205.107 10.7578C205.107 11.0768 205.212 11.332 205.422 11.5234C205.636 11.7103 205.921 11.8037 206.276 11.8037ZM213.023 13H211.362V2.5H213.023V13ZM216.605 13H214.944V5.60352H216.605V13ZM214.842 3.68262C214.842 3.42741 214.922 3.21549 215.081 3.04688C215.245 2.87826 215.478 2.79395 215.778 2.79395C216.079 2.79395 216.312 2.87826 216.476 3.04688C216.64 3.21549 216.722 3.42741 216.722 3.68262C216.722 3.93327 216.64 4.1429 216.476 4.31152C216.312 4.47559 216.079 4.55762 215.778 4.55762C215.478 4.55762 215.245 4.47559 215.081 4.31152C214.922 4.1429 214.842 3.93327 214.842 3.68262ZM220.194 11.6738H224.132V13H218.13V11.9131L221.883 6.94336H218.198V5.60352H223.988V6.65625L220.194 11.6738ZM228.609 13.1367C227.557 13.1367 226.702 12.8063 226.046 12.1455C225.394 11.4801 225.068 10.596 225.068 9.49316V9.28809C225.068 8.5498 225.21 7.89128 225.492 7.3125C225.779 6.72917 226.18 6.27572 226.695 5.95215C227.21 5.62858 227.785 5.4668 228.418 5.4668C229.425 5.4668 230.202 5.78809 230.749 6.43066C231.3 7.07324 231.576 7.98242 231.576 9.1582V9.82812H226.743C226.793 10.4388 226.996 10.9219 227.352 11.2773C227.712 11.6328 228.163 11.8105 228.705 11.8105C229.466 11.8105 230.086 11.5029 230.564 10.8877L231.46 11.7422C231.164 12.1842 230.767 12.5283 230.271 12.7744C229.778 13.016 229.225 13.1367 228.609 13.1367ZM228.411 6.7998C227.955 6.7998 227.586 6.95931 227.304 7.27832C227.026 7.59733 226.848 8.04167 226.771 8.61133H229.936V8.48828C229.899 7.93229 229.751 7.51302 229.491 7.23047C229.231 6.94336 228.871 6.7998 228.411 6.7998ZM232.561 9.24707C232.561 8.10775 232.825 7.19401 233.354 6.50586C233.882 5.81315 234.591 5.4668 235.479 5.4668C236.263 5.4668 236.897 5.74023 237.38 6.28711V2.5H239.041V13H237.537L237.455 12.2344C236.958 12.8359 236.295 13.1367 235.466 13.1367C234.6 13.1367 233.898 12.7881 233.36 12.0908C232.827 11.3936 232.561 10.4456 232.561 9.24707ZM234.222 9.39062C234.222 10.1426 234.365 10.7305 234.652 11.1543C234.944 11.5736 235.356 11.7832 235.89 11.7832C236.569 11.7832 237.065 11.4801 237.38 10.874V7.71582C237.075 7.12337 236.582 6.82715 235.903 6.82715C235.366 6.82715 234.951 7.04134 234.659 7.46973C234.368 7.89355 234.222 8.53385 234.222 9.39062Z" fill="#5452F6"/>
<path d="M54.0929 166.801C53.1261 167.251 52.2123 167.332 51.3516 167.045C50.4948 166.754 49.7796 166.12 49.2058 165.141C48.8049 164.456 48.6124 163.758 48.6283 163.047C48.6505 162.336 48.8775 161.665 49.3092 161.031C49.741 160.398 50.3485 159.844 51.1319 159.369L51.934 158.899C52.744 158.424 53.5417 158.149 54.3272 158.075C55.1127 158 55.8293 158.132 56.4769 158.471C57.1267 158.814 57.6579 159.337 58.0704 160.041C58.6257 160.988 58.8152 161.902 58.6388 162.782C58.4625 163.662 57.9321 164.424 57.0477 165.069L56.1767 163.583C56.7525 163.15 57.0908 162.709 57.1916 162.259C57.2986 161.811 57.1885 161.308 56.8613 160.749C56.4811 160.101 55.9506 159.741 55.2698 159.669C54.5952 159.6 53.7975 159.83 52.8768 160.359L52.116 160.805C51.1881 161.348 50.5771 161.928 50.2831 162.544C49.9914 163.164 50.0334 163.795 50.409 164.436C50.7523 165.021 51.1421 165.385 51.5783 165.525C52.0146 165.666 52.5624 165.595 53.2219 165.315L54.0929 166.801ZM54.2352 173.452C54.3202 173.318 54.4865 173.146 54.7341 172.938C53.9911 172.761 53.426 172.342 53.0389 171.681C52.6633 171.04 52.5397 170.41 52.668 169.791C52.7963 169.172 53.1298 168.704 53.6685 168.389C54.3487 167.99 55.0171 167.936 55.6738 168.228C56.3367 168.52 56.9435 169.137 57.4942 170.077L58.0092 170.955L58.428 170.71C58.7582 170.516 58.9675 170.27 59.0558 169.97C59.148 169.667 59.0836 169.327 58.8623 168.95C58.6711 168.624 58.4318 168.405 58.1446 168.293C57.8613 168.179 57.5938 168.196 57.3421 168.343L56.5022 166.91C56.8522 166.705 57.2465 166.63 57.6852 166.684C58.1278 166.737 58.552 166.911 58.9577 167.206C59.3658 167.506 59.7138 167.902 60.0018 168.393C60.4396 169.14 60.6 169.846 60.4829 170.512C60.3698 171.175 59.9765 171.712 59.3032 172.122L56.4251 173.809C55.8511 174.145 55.4402 174.494 55.1926 174.856L55.0924 174.915L54.2352 173.452ZM54.3445 171.273C54.5104 171.556 54.7347 171.781 55.0175 171.948C55.3026 172.119 55.598 172.199 55.9037 172.189L57.1069 171.484L56.6541 170.711C56.343 170.181 56.0167 169.836 55.6752 169.677C55.3338 169.518 54.994 169.537 54.6558 169.735C54.3806 169.897 54.2134 170.116 54.1543 170.394C54.1013 170.673 54.1648 170.966 54.3445 171.273ZM62.231 179.93C61.2441 180.509 60.3244 180.747 59.472 180.644C58.6234 180.539 57.978 180.109 57.5356 179.354C57.1254 178.654 57.0271 177.959 57.2406 177.269L54.215 179.042L53.3751 177.609L62.21 172.431L62.9842 173.752L62.37 174.192C63.1277 174.313 63.7185 174.735 64.1425 175.459C64.5987 176.237 64.6649 177.017 64.3411 177.798C64.0235 178.581 63.3496 179.275 62.3195 179.879L62.231 179.93ZM61.5184 178.431C62.1554 178.057 62.5857 177.633 62.8095 177.159C63.0355 176.688 63.0103 176.217 62.7338 175.745C62.3905 175.159 61.9021 174.88 61.2687 174.908L58.4378 176.567C58.0945 177.117 58.0956 177.687 58.4412 178.277C58.7085 178.733 59.0999 178.982 59.6153 179.023C60.137 179.066 60.7714 178.868 61.5184 178.431ZM60.7124 184.505L59.8725 183.072L66.2539 179.332L67.0938 180.765L60.7124 184.505ZM67.8593 178.272C68.0795 178.143 68.3027 178.105 68.5288 178.157C68.7572 178.213 68.9475 178.371 69.0995 178.631C69.2516 178.89 69.2964 179.133 69.2339 179.36C69.1713 179.587 69.03 179.765 68.8098 179.894C68.5936 180.021 68.3712 180.056 68.1428 180C67.9183 179.941 67.73 179.782 67.5779 179.522C67.4258 179.263 67.3791 179.021 67.4377 178.796C67.5025 178.574 67.6431 178.399 67.8593 178.272ZM70.615 183.218L69.0639 184.127L69.724 185.253L68.6624 185.875L68.0023 184.749L64.44 186.836C64.1962 186.979 64.047 187.13 63.9922 187.289C63.9436 187.45 63.9919 187.654 64.1371 187.901C64.2339 188.067 64.3514 188.222 64.4898 188.368L63.3811 189.018C63.0994 188.745 62.8698 188.457 62.6924 188.154C62.0472 187.053 62.3321 186.146 63.547 185.434L67.1624 183.316L66.5472 182.266L67.6088 181.644L68.224 182.694L69.7751 181.785L70.615 183.218ZM66.2218 193.906C66.3068 193.771 66.4731 193.6 66.7207 193.392C65.9776 193.214 65.4125 192.795 65.0254 192.135C64.6498 191.494 64.5262 190.864 64.6545 190.245C64.7829 189.625 65.1164 189.158 65.655 188.842C66.3352 188.443 67.0037 188.39 67.6603 188.681C68.3233 188.974 68.9301 189.59 69.4808 190.53L69.9958 191.409L70.4145 191.163C70.7448 190.97 70.9541 190.723 71.0424 190.423C71.1346 190.121 71.0701 189.781 70.8489 189.403C70.6576 189.077 70.4184 188.858 70.1311 188.746C69.8478 188.633 69.5803 188.649 69.3287 188.797L68.4888 187.364C68.8387 187.159 69.233 187.083 69.6717 187.138C70.1144 187.19 70.5386 187.364 70.9443 187.66C71.3523 187.959 71.7003 188.355 71.9884 188.847C72.4262 189.594 72.5865 190.3 72.4695 190.965C72.3563 191.629 71.9631 192.165 71.2898 192.576L68.4117 194.263C67.8376 194.599 67.4268 194.948 67.1792 195.31L67.0789 195.368L66.2218 193.906ZM66.331 191.726C66.4969 192.009 66.7213 192.234 67.0041 192.401C67.2891 192.572 67.5845 192.653 67.8903 192.643L69.0934 191.938L68.6406 191.165C68.3296 190.634 68.0033 190.289 67.6618 190.13C67.3203 189.971 66.9805 189.991 66.6424 190.189C66.3671 190.35 66.1999 190.57 66.1408 190.847C66.0879 191.127 66.1513 191.42 66.331 191.726ZM68.7103 198.152L67.8704 196.719L76.9294 191.41L77.7693 192.843L68.7103 198.152ZM78.2468 205.637L76.1799 202.11L73.5377 203.658L75.9537 207.781L74.7623 208.479L71.4719 202.864L80.0591 197.832L83.3253 203.405L82.1222 204.111L79.7304 200.029L77.3595 201.419L79.4264 204.946L78.2468 205.637ZM75.6886 210.06L81.0084 206.942L80.4381 205.969L81.4997 205.347L82.07 206.32L82.6539 205.978C83.3617 205.563 84.0234 205.439 84.6391 205.607C85.2549 205.774 85.7701 206.212 86.1849 206.919C86.3324 207.171 86.4537 207.459 86.5488 207.784L85.4075 208.405C85.3468 208.229 85.2553 208.037 85.1332 207.829C84.7323 207.145 84.1799 207.009 83.4761 207.421L82.9099 207.753L84.1957 209.947L84.6321 209.691C85.1338 209.403 85.6246 209.258 86.1045 209.256C86.5844 209.255 87.0265 209.392 87.4309 209.668C87.8353 209.943 88.1942 210.348 88.5075 210.883C88.6919 211.197 88.8347 211.518 88.9361 211.844C89.0398 212.174 89.1315 212.524 89.2113 212.895L87.8945 213.365C87.7699 212.72 87.5751 212.171 87.3101 211.719C87.0543 211.283 86.7725 211.023 86.4646 210.939C86.1607 210.853 85.818 210.922 85.4366 211.145L85.0356 211.38L85.7718 212.637L84.7102 213.259L83.974 212.002L78.6542 215.12L77.8143 213.687L83.1341 210.569L81.8483 208.375L76.5285 211.493L75.6886 210.06ZM80.7798 218.747L79.9399 217.314L86.3213 213.574L87.1612 215.007L80.7798 218.747ZM84.2738 222.357C84.4835 222.715 84.7617 222.95 85.1083 223.064C85.455 223.178 85.7862 223.153 86.1021 222.989L86.8936 224.339C86.4873 224.556 86.0432 224.65 85.5612 224.621C85.0832 224.59 84.6276 224.434 84.1943 224.154C83.7611 223.875 83.4096 223.505 83.14 223.045C82.617 222.153 82.4912 221.275 82.7627 220.414C83.0343 219.552 83.6792 218.823 84.6975 218.226L84.845 218.14C85.8162 217.571 86.7448 217.375 87.6308 217.553C88.5209 217.729 89.2285 218.265 89.7539 219.161C90.1986 219.92 90.3382 220.667 90.1727 221.404C90.0135 222.141 89.581 222.733 88.8753 223.178L88.0838 221.828C88.4402 221.598 88.6673 221.295 88.765 220.921C88.8649 220.551 88.8089 220.185 88.5969 219.823C88.325 219.359 87.9463 219.101 87.4607 219.047C86.979 218.991 86.3949 219.162 85.7085 219.559L85.4785 219.694C84.7864 220.099 84.342 220.526 84.1451 220.974C83.9544 221.424 83.9973 221.885 84.2738 222.357ZM86.3099 228.184L85.47 226.751L91.8514 223.011L92.6913 224.444L86.3099 228.184ZM93.4569 221.951C93.6771 221.822 93.9002 221.784 94.1263 221.836C94.3548 221.892 94.545 222.05 94.6971 222.31C94.8492 222.569 94.894 222.812 94.8314 223.039C94.7689 223.266 94.6276 223.444 94.4074 223.573C94.1911 223.7 93.9688 223.735 93.7403 223.679C93.5158 223.62 93.3276 223.461 93.1755 223.201C93.0234 222.942 92.9767 222.7 93.0353 222.475C93.1001 222.253 93.2406 222.078 93.4569 221.951ZM88.7566 232.629C88.2243 231.721 88.0773 230.816 88.3156 229.916C88.5602 229.017 89.1582 228.289 90.1097 227.732L90.2866 227.628C90.9236 227.255 91.5632 227.044 92.2054 226.995C92.8538 226.948 93.4478 227.064 93.9874 227.345C94.5269 227.626 94.9568 228.039 95.2771 228.586C95.7863 229.455 95.902 230.288 95.6241 231.084C95.3485 231.885 94.7035 232.583 93.6891 233.177L93.1111 233.516L90.6675 229.346C90.166 229.698 89.8518 230.117 89.7248 230.604C89.6002 231.094 89.6749 231.573 89.9491 232.041C90.3339 232.698 90.9127 233.077 91.6855 233.179L91.401 234.383C90.8698 234.351 90.3725 234.183 89.909 233.879C89.4518 233.576 89.0676 233.16 88.7566 232.629ZM94.1236 229.254C93.8932 228.861 93.5689 228.623 93.1508 228.54C92.735 228.462 92.2618 228.533 91.7312 228.754L93.3314 231.485L93.4376 231.423C93.8988 231.11 94.1857 230.77 94.2981 230.403C94.4145 230.034 94.3563 229.651 94.1236 229.254ZM98.1903 233.827L97.4773 234.301C98.3239 234.438 98.9719 234.891 99.4212 235.657C100.2 236.986 99.8356 238.108 98.3278 239.024L94.1109 241.495L93.271 240.062L97.4053 237.639C97.8103 237.402 98.0573 237.138 98.1462 236.848C98.2415 236.56 98.1727 236.217 97.94 235.82C97.6013 235.242 97.0875 234.965 96.3986 234.988L91.8573 237.65L91.0174 236.216L97.3989 232.477L98.1903 233.827ZM103.955 240.108L102.404 241.017L103.064 242.143L102.002 242.765L101.342 241.639L97.7798 243.726C97.536 243.869 97.3867 244.02 97.3319 244.179C97.2833 244.34 97.3317 244.544 97.4768 244.791C97.5736 244.957 97.6912 245.112 97.8296 245.258L96.7208 245.908C96.4391 245.635 96.2096 245.347 96.0321 245.044C95.387 243.943 95.6718 243.036 96.8868 242.324L100.502 240.206L99.8869 239.156L100.948 238.534L101.564 239.584L103.115 238.675L103.955 240.108Z" fill="#5452F6"/>
<path d="M24.2422 45.3516H19.7422V50H17.3984V38.625H24.8047V40.5234H19.7422V43.4609H24.2422V45.3516ZM28.3984 50H26.1328V41.5469H28.3984V50ZM26 39.3594C26 39.0208 26.112 38.7422 26.3359 38.5234C26.5651 38.3047 26.875 38.1953 27.2656 38.1953C27.651 38.1953 27.9583 38.3047 28.1875 38.5234C28.4167 38.7422 28.5312 39.0208 28.5312 39.3594C28.5312 39.7031 28.4141 39.9844 28.1797 40.2031C27.9505 40.4219 27.6458 40.5312 27.2656 40.5312C26.8854 40.5312 26.5781 40.4219 26.3438 40.2031C26.1146 39.9844 26 39.7031 26 39.3594ZM35.1641 50C35.0599 49.7969 34.9844 49.5443 34.9375 49.2422C34.3906 49.8516 33.6797 50.1562 32.8047 50.1562C31.9766 50.1562 31.2891 49.9167 30.7422 49.4375C30.2005 48.9583 29.9297 48.3542 29.9297 47.625C29.9297 46.7292 30.2604 46.0417 30.9219 45.5625C31.5885 45.0833 32.5495 44.8411 33.8047 44.8359H34.8438V44.3516C34.8438 43.9609 34.7422 43.6484 34.5391 43.4141C34.3411 43.1797 34.026 43.0625 33.5938 43.0625C33.2135 43.0625 32.9141 43.1536 32.6953 43.3359C32.4818 43.5182 32.375 43.7682 32.375 44.0859H30.1172C30.1172 43.5964 30.2682 43.1432 30.5703 42.7266C30.8724 42.3099 31.2995 41.9844 31.8516 41.75C32.4036 41.5104 33.0234 41.3906 33.7109 41.3906C34.7526 41.3906 35.5781 41.6536 36.1875 42.1797C36.8021 42.7005 37.1094 43.4349 37.1094 44.3828V48.0469C37.1146 48.849 37.2266 49.4557 37.4453 49.8672V50H35.1641ZM33.2969 48.4297C33.6302 48.4297 33.9375 48.3568 34.2188 48.2109C34.5 48.0599 34.7083 47.8594 34.8438 47.6094V46.1562H34C32.8698 46.1562 32.2682 46.5469 32.1953 47.3281L32.1875 47.4609C32.1875 47.7422 32.2865 47.974 32.4844 48.1562C32.6823 48.3385 32.9531 48.4297 33.2969 48.4297ZM41.5469 39.4688V41.5469H42.9922V43.2031H41.5469V47.4219C41.5469 47.7344 41.6068 47.9583 41.7266 48.0938C41.8464 48.2292 42.0755 48.2969 42.4141 48.2969C42.6641 48.2969 42.8854 48.2786 43.0781 48.2422V49.9531C42.6354 50.0885 42.1797 50.1562 41.7109 50.1562C40.1276 50.1562 39.3203 49.3568 39.2891 47.7578V43.2031H38.0547V41.5469H39.2891V39.4688H41.5469ZM48.6406 46.0391H44.2422V44.2188H48.6406V46.0391ZM59.5312 46.2109C59.4427 47.4349 58.9896 48.3984 58.1719 49.1016C57.3594 49.8047 56.2865 50.1562 54.9531 50.1562C53.4948 50.1562 52.3464 49.6667 51.5078 48.6875C50.6745 47.7031 50.2578 46.3542 50.2578 44.6406V43.9453C50.2578 42.8516 50.4505 41.888 50.8359 41.0547C51.2214 40.2214 51.7708 39.5833 52.4844 39.1406C53.2031 38.6927 54.0365 38.4688 54.9844 38.4688C56.2969 38.4688 57.3542 38.8203 58.1562 39.5234C58.9583 40.2266 59.4219 41.2135 59.5469 42.4844H57.2031C57.1458 41.75 56.9401 41.2188 56.5859 40.8906C56.237 40.5573 55.7031 40.3906 54.9844 40.3906C54.2031 40.3906 53.6172 40.6719 53.2266 41.2344C52.8411 41.7917 52.6432 42.6589 52.6328 43.8359V44.6953C52.6328 45.9245 52.8177 46.8229 53.1875 47.3906C53.5625 47.9583 54.151 48.2422 54.9531 48.2422C55.6771 48.2422 56.2161 48.0781 56.5703 47.75C56.9297 47.4167 57.1354 46.9036 57.1875 46.2109H59.5312ZM60.5703 45.6953C60.5703 44.8568 60.7318 44.1094 61.0547 43.4531C61.3776 42.7969 61.8411 42.2891 62.4453 41.9297C63.0547 41.5703 63.7604 41.3906 64.5625 41.3906C65.7031 41.3906 66.6328 41.7396 67.3516 42.4375C68.0755 43.1354 68.4792 44.0833 68.5625 45.2812L68.5781 45.8594C68.5781 47.1562 68.2161 48.1979 67.4922 48.9844C66.7682 49.7656 65.7969 50.1562 64.5781 50.1562C63.3594 50.1562 62.3854 49.7656 61.6562 48.9844C60.9323 48.2031 60.5703 47.1406 60.5703 45.7969V45.6953ZM62.8281 45.8594C62.8281 46.6615 62.9792 47.276 63.2812 47.7031C63.5833 48.125 64.0156 48.3359 64.5781 48.3359C65.125 48.3359 65.5521 48.1276 65.8594 47.7109C66.1667 47.2891 66.3203 46.6172 66.3203 45.6953C66.3203 44.9089 66.1667 44.2995 65.8594 43.8672C65.5521 43.4349 65.1198 43.2188 64.5625 43.2188C64.0104 43.2188 63.5833 43.4349 63.2812 43.8672C62.9792 44.2943 62.8281 44.9583 62.8281 45.8594ZM72.3516 50H70.0859V38H72.3516V50ZM76.6016 50H74.3359V38H76.6016V50ZM83.3672 50C83.263 49.7969 83.1875 49.5443 83.1406 49.2422C82.5938 49.8516 81.8828 50.1562 81.0078 50.1562C80.1797 50.1562 79.4922 49.9167 78.9453 49.4375C78.4036 48.9583 78.1328 48.3542 78.1328 47.625C78.1328 46.7292 78.4635 46.0417 79.125 45.5625C79.7917 45.0833 80.7526 44.8411 82.0078 44.8359H83.0469V44.3516C83.0469 43.9609 82.9453 43.6484 82.7422 43.4141C82.5443 43.1797 82.2292 43.0625 81.7969 43.0625C81.4167 43.0625 81.1172 43.1536 80.8984 43.3359C80.6849 43.5182 80.5781 43.7682 80.5781 44.0859H78.3203C78.3203 43.5964 78.4714 43.1432 78.7734 42.7266C79.0755 42.3099 79.5026 41.9844 80.0547 41.75C80.6068 41.5104 81.2266 41.3906 81.9141 41.3906C82.9557 41.3906 83.7812 41.6536 84.3906 42.1797C85.0052 42.7005 85.3125 43.4349 85.3125 44.3828V48.0469C85.3177 48.849 85.4297 49.4557 85.6484 49.8672V50H83.3672ZM81.5 48.4297C81.8333 48.4297 82.1406 48.3568 82.4219 48.2109C82.7031 48.0599 82.9115 47.8594 83.0469 47.6094V46.1562H82.2031C81.0729 46.1562 80.4714 46.5469 80.3984 47.3281L80.3906 47.4609C80.3906 47.7422 80.4896 47.974 80.6875 48.1562C80.8854 48.3385 81.1562 48.4297 81.5 48.4297ZM89.75 39.4688V41.5469H91.1953V43.2031H89.75V47.4219C89.75 47.7344 89.8099 47.9583 89.9297 48.0938C90.0495 48.2292 90.2786 48.2969 90.6172 48.2969C90.8672 48.2969 91.0885 48.2786 91.2812 48.2422V49.9531C90.8385 50.0885 90.3828 50.1562 89.9141 50.1562C88.3307 50.1562 87.5234 49.3568 87.4922 47.7578V43.2031H86.2578V41.5469H87.4922V39.4688H89.75ZM96.3438 50.1562C95.1042 50.1562 94.0938 49.776 93.3125 49.0156C92.5365 48.2552 92.1484 47.2422 92.1484 45.9766V45.7578C92.1484 44.9089 92.3125 44.151 92.6406 43.4844C92.9688 42.8125 93.4323 42.2969 94.0312 41.9375C94.6354 41.5729 95.3229 41.3906 96.0938 41.3906C97.25 41.3906 98.1589 41.7552 98.8203 42.4844C99.487 43.2135 99.8203 44.2474 99.8203 45.5859V46.5078H94.4375C94.5104 47.0599 94.7292 47.5026 95.0938 47.8359C95.4635 48.1693 95.9297 48.3359 96.4922 48.3359C97.362 48.3359 98.0417 48.0208 98.5312 47.3906L99.6406 48.6328C99.3021 49.112 98.8438 49.487 98.2656 49.7578C97.6875 50.0234 97.0469 50.1562 96.3438 50.1562ZM96.0859 43.2188C95.638 43.2188 95.2734 43.3698 94.9922 43.6719C94.7161 43.974 94.5391 44.4062 94.4609 44.9688H97.6016V44.7891C97.5911 44.2891 97.4557 43.9036 97.1953 43.6328C96.9349 43.3568 96.5651 43.2188 96.0859 43.2188ZM105.859 43.6641C105.552 43.6224 105.281 43.6016 105.047 43.6016C104.193 43.6016 103.633 43.8906 103.367 44.4688V50H101.109V41.5469H103.242L103.305 42.5547C103.758 41.7786 104.385 41.3906 105.188 41.3906C105.438 41.3906 105.672 41.4245 105.891 41.4922L105.859 43.6641ZM111.617 50C111.513 49.7969 111.438 49.5443 111.391 49.2422C110.844 49.8516 110.133 50.1562 109.258 50.1562C108.43 50.1562 107.742 49.9167 107.195 49.4375C106.654 48.9583 106.383 48.3542 106.383 47.625C106.383 46.7292 106.714 46.0417 107.375 45.5625C108.042 45.0833 109.003 44.8411 110.258 44.8359H111.297V44.3516C111.297 43.9609 111.195 43.6484 110.992 43.4141C110.794 43.1797 110.479 43.0625 110.047 43.0625C109.667 43.0625 109.367 43.1536 109.148 43.3359C108.935 43.5182 108.828 43.7682 108.828 44.0859H106.57C106.57 43.5964 106.721 43.1432 107.023 42.7266C107.326 42.3099 107.753 41.9844 108.305 41.75C108.857 41.5104 109.477 41.3906 110.164 41.3906C111.206 41.3906 112.031 41.6536 112.641 42.1797C113.255 42.7005 113.562 43.4349 113.562 44.3828V48.0469C113.568 48.849 113.68 49.4557 113.898 49.8672V50H111.617ZM109.75 48.4297C110.083 48.4297 110.391 48.3568 110.672 48.2109C110.953 48.0599 111.161 47.8594 111.297 47.6094V46.1562H110.453C109.323 46.1562 108.721 46.5469 108.648 47.3281L108.641 47.4609C108.641 47.7422 108.74 47.974 108.938 48.1562C109.135 48.3385 109.406 48.4297 109.75 48.4297ZM117.68 50H115.414V38H117.68V50ZM121.93 50H119.664V41.5469H121.93V50ZM119.531 39.3594C119.531 39.0208 119.643 38.7422 119.867 38.5234C120.096 38.3047 120.406 38.1953 120.797 38.1953C121.182 38.1953 121.49 38.3047 121.719 38.5234C121.948 38.7422 122.062 39.0208 122.062 39.3594C122.062 39.7031 121.945 39.9844 121.711 40.2031C121.482 40.4219 121.177 40.5312 120.797 40.5312C120.417 40.5312 120.109 40.4219 119.875 40.2031C119.646 39.9844 119.531 39.7031 119.531 39.3594ZM126.391 48.1797H130.523V50H123.508V48.625L127.484 43.375H123.625V41.5469H130.398V42.8828L126.391 48.1797ZM135.703 50.1562C134.464 50.1562 133.453 49.776 132.672 49.0156C131.896 48.2552 131.508 47.2422 131.508 45.9766V45.7578C131.508 44.9089 131.672 44.151 132 43.4844C132.328 42.8125 132.792 42.2969 133.391 41.9375C133.995 41.5729 134.682 41.3906 135.453 41.3906C136.609 41.3906 137.518 41.7552 138.18 42.4844C138.846 43.2135 139.18 44.2474 139.18 45.5859V46.5078H133.797C133.87 47.0599 134.089 47.5026 134.453 47.8359C134.823 48.1693 135.289 48.3359 135.852 48.3359C136.721 48.3359 137.401 48.0208 137.891 47.3906L139 48.6328C138.661 49.112 138.203 49.487 137.625 49.7578C137.047 50.0234 136.406 50.1562 135.703 50.1562ZM135.445 43.2188C134.997 43.2188 134.633 43.3698 134.352 43.6719C134.076 43.974 133.898 44.4062 133.82 44.9688H136.961V44.7891C136.951 44.2891 136.815 43.9036 136.555 43.6328C136.294 43.3568 135.924 43.2188 135.445 43.2188ZM140.117 45.7109C140.117 44.3932 140.411 43.3438 141 42.5625C141.594 41.7812 142.404 41.3906 143.43 41.3906C144.253 41.3906 144.932 41.6979 145.469 42.3125V38H147.734V50H145.695L145.586 49.1016C145.023 49.8047 144.299 50.1562 143.414 50.1562C142.419 50.1562 141.62 49.7656 141.016 48.9844C140.417 48.1979 140.117 47.1068 140.117 45.7109ZM142.375 45.875C142.375 46.6667 142.513 47.2734 142.789 47.6953C143.065 48.1172 143.466 48.3281 143.992 48.3281C144.69 48.3281 145.182 48.0339 145.469 47.4453V44.1094C145.188 43.5208 144.701 43.2266 144.008 43.2266C142.919 43.2266 142.375 44.1094 142.375 45.875Z" fill="#5452F6"/>
<path d="M224.969 46.2109C224.88 47.4349 224.427 48.3984 223.609 49.1016C222.797 49.8047 221.724 50.1562 220.391 50.1562C218.932 50.1562 217.784 49.6667 216.945 48.6875C216.112 47.7031 215.695 46.3542 215.695 44.6406V43.9453C215.695 42.8516 215.888 41.888 216.273 41.0547C216.659 40.2214 217.208 39.5833 217.922 39.1406C218.641 38.6927 219.474 38.4688 220.422 38.4688C221.734 38.4688 222.792 38.8203 223.594 39.5234C224.396 40.2266 224.859 41.2135 224.984 42.4844H222.641C222.583 41.75 222.378 41.2188 222.023 40.8906C221.674 40.5573 221.141 40.3906 220.422 40.3906C219.641 40.3906 219.055 40.6719 218.664 41.2344C218.279 41.7917 218.081 42.6589 218.07 43.8359V44.6953C218.07 45.9245 218.255 46.8229 218.625 47.3906C219 47.9583 219.589 48.2422 220.391 48.2422C221.115 48.2422 221.654 48.0781 222.008 47.75C222.367 47.4167 222.573 46.9036 222.625 46.2109H224.969ZM231.109 43.6641C230.802 43.6224 230.531 43.6016 230.297 43.6016C229.443 43.6016 228.883 43.8906 228.617 44.4688V50H226.359V41.5469H228.492L228.555 42.5547C229.008 41.7786 229.635 41.3906 230.438 41.3906C230.688 41.3906 230.922 41.4245 231.141 41.4922L231.109 43.6641ZM235.5 46.8047L237.062 41.5469H239.484L236.086 51.3125L235.898 51.7578C235.393 52.862 234.56 53.4141 233.398 53.4141C233.07 53.4141 232.737 53.3646 232.398 53.2656V51.5547L232.742 51.5625C233.169 51.5625 233.487 51.4974 233.695 51.3672C233.909 51.237 234.076 51.0208 234.195 50.7188L234.461 50.0234L231.5 41.5469H233.93L235.5 46.8047ZM247.984 45.8516C247.984 47.1536 247.688 48.1979 247.094 48.9844C246.505 49.7656 245.708 50.1562 244.703 50.1562C243.849 50.1562 243.159 49.8594 242.633 49.2656V53.25H240.375V41.5469H242.469L242.547 42.375C243.094 41.7188 243.807 41.3906 244.688 41.3906C245.729 41.3906 246.539 41.776 247.117 42.5469C247.695 43.3177 247.984 44.3802 247.984 45.7344V45.8516ZM245.727 45.6875C245.727 44.901 245.586 44.2943 245.305 43.8672C245.029 43.4401 244.625 43.2266 244.094 43.2266C243.385 43.2266 242.898 43.4974 242.633 44.0391V47.5C242.909 48.0573 243.401 48.3359 244.109 48.3359C245.188 48.3359 245.727 47.4531 245.727 45.6875ZM252.094 39.4688V41.5469H253.539V43.2031H252.094V47.4219C252.094 47.7344 252.154 47.9583 252.273 48.0938C252.393 48.2292 252.622 48.2969 252.961 48.2969C253.211 48.2969 253.432 48.2786 253.625 48.2422V49.9531C253.182 50.0885 252.727 50.1562 252.258 50.1562C250.674 50.1562 249.867 49.3568 249.836 47.7578V43.2031H248.602V41.5469H249.836V39.4688H252.094ZM254.211 45.6953C254.211 44.8568 254.372 44.1094 254.695 43.4531C255.018 42.7969 255.482 42.2891 256.086 41.9297C256.695 41.5703 257.401 41.3906 258.203 41.3906C259.344 41.3906 260.273 41.7396 260.992 42.4375C261.716 43.1354 262.12 44.0833 262.203 45.2812L262.219 45.8594C262.219 47.1562 261.857 48.1979 261.133 48.9844C260.409 49.7656 259.438 50.1562 258.219 50.1562C257 50.1562 256.026 49.7656 255.297 48.9844C254.573 48.2031 254.211 47.1406 254.211 45.7969V45.6953ZM256.469 45.8594C256.469 46.6615 256.62 47.276 256.922 47.7031C257.224 48.125 257.656 48.3359 258.219 48.3359C258.766 48.3359 259.193 48.1276 259.5 47.7109C259.807 47.2891 259.961 46.6172 259.961 45.6953C259.961 44.9089 259.807 44.2995 259.5 43.8672C259.193 43.4349 258.76 43.2188 258.203 43.2188C257.651 43.2188 257.224 43.4349 256.922 43.8672C256.62 44.2943 256.469 44.9583 256.469 45.8594ZM268 46.0391H263.602V44.2188H268V46.0391ZM278.891 46.2109C278.802 47.4349 278.349 48.3984 277.531 49.1016C276.719 49.8047 275.646 50.1562 274.312 50.1562C272.854 50.1562 271.706 49.6667 270.867 48.6875C270.034 47.7031 269.617 46.3542 269.617 44.6406V43.9453C269.617 42.8516 269.81 41.888 270.195 41.0547C270.581 40.2214 271.13 39.5833 271.844 39.1406C272.562 38.6927 273.396 38.4688 274.344 38.4688C275.656 38.4688 276.714 38.8203 277.516 39.5234C278.318 40.2266 278.781 41.2135 278.906 42.4844H276.562C276.505 41.75 276.299 41.2188 275.945 40.8906C275.596 40.5573 275.062 40.3906 274.344 40.3906C273.562 40.3906 272.977 40.6719 272.586 41.2344C272.201 41.7917 272.003 42.6589 271.992 43.8359V44.6953C271.992 45.9245 272.177 46.8229 272.547 47.3906C272.922 47.9583 273.51 48.2422 274.312 48.2422C275.036 48.2422 275.576 48.0781 275.93 47.75C276.289 47.4167 276.495 46.9036 276.547 46.2109H278.891ZM279.93 45.6953C279.93 44.8568 280.091 44.1094 280.414 43.4531C280.737 42.7969 281.201 42.2891 281.805 41.9297C282.414 41.5703 283.12 41.3906 283.922 41.3906C285.062 41.3906 285.992 41.7396 286.711 42.4375C287.435 43.1354 287.839 44.0833 287.922 45.2812L287.938 45.8594C287.938 47.1562 287.576 48.1979 286.852 48.9844C286.128 49.7656 285.156 50.1562 283.938 50.1562C282.719 50.1562 281.745 49.7656 281.016 48.9844C280.292 48.2031 279.93 47.1406 279.93 45.7969V45.6953ZM282.188 45.8594C282.188 46.6615 282.339 47.276 282.641 47.7031C282.943 48.125 283.375 48.3359 283.938 48.3359C284.484 48.3359 284.911 48.1276 285.219 47.7109C285.526 47.2891 285.68 46.6172 285.68 45.6953C285.68 44.9089 285.526 44.2995 285.219 43.8672C284.911 43.4349 284.479 43.2188 283.922 43.2188C283.37 43.2188 282.943 43.4349 282.641 43.8672C282.339 44.2943 282.188 44.9583 282.188 45.8594ZM291.711 50H289.445V38H291.711V50ZM295.961 50H293.695V38H295.961V50ZM302.727 50C302.622 49.7969 302.547 49.5443 302.5 49.2422C301.953 49.8516 301.242 50.1562 300.367 50.1562C299.539 50.1562 298.852 49.9167 298.305 49.4375C297.763 48.9583 297.492 48.3542 297.492 47.625C297.492 46.7292 297.823 46.0417 298.484 45.5625C299.151 45.0833 300.112 44.8411 301.367 44.8359H302.406V44.3516C302.406 43.9609 302.305 43.6484 302.102 43.4141C301.904 43.1797 301.589 43.0625 301.156 43.0625C300.776 43.0625 300.477 43.1536 300.258 43.3359C300.044 43.5182 299.938 43.7682 299.938 44.0859H297.68C297.68 43.5964 297.831 43.1432 298.133 42.7266C298.435 42.3099 298.862 41.9844 299.414 41.75C299.966 41.5104 300.586 41.3906 301.273 41.3906C302.315 41.3906 303.141 41.6536 303.75 42.1797C304.365 42.7005 304.672 43.4349 304.672 44.3828V48.0469C304.677 48.849 304.789 49.4557 305.008 49.8672V50H302.727ZM300.859 48.4297C301.193 48.4297 301.5 48.3568 301.781 48.2109C302.062 48.0599 302.271 47.8594 302.406 47.6094V46.1562H301.562C300.432 46.1562 299.831 46.5469 299.758 47.3281L299.75 47.4609C299.75 47.7422 299.849 47.974 300.047 48.1562C300.245 48.3385 300.516 48.4297 300.859 48.4297ZM309.109 39.4688V41.5469H310.555V43.2031H309.109V47.4219C309.109 47.7344 309.169 47.9583 309.289 48.0938C309.409 48.2292 309.638 48.2969 309.977 48.2969C310.227 48.2969 310.448 48.2786 310.641 48.2422V49.9531C310.198 50.0885 309.742 50.1562 309.273 50.1562C307.69 50.1562 306.883 49.3568 306.852 47.7578V43.2031H305.617V41.5469H306.852V39.4688H309.109ZM315.703 50.1562C314.464 50.1562 313.453 49.776 312.672 49.0156C311.896 48.2552 311.508 47.2422 311.508 45.9766V45.7578C311.508 44.9089 311.672 44.151 312 43.4844C312.328 42.8125 312.792 42.2969 313.391 41.9375C313.995 41.5729 314.682 41.3906 315.453 41.3906C316.609 41.3906 317.518 41.7552 318.18 42.4844C318.846 43.2135 319.18 44.2474 319.18 45.5859V46.5078H313.797C313.87 47.0599 314.089 47.5026 314.453 47.8359C314.823 48.1693 315.289 48.3359 315.852 48.3359C316.721 48.3359 317.401 48.0208 317.891 47.3906L319 48.6328C318.661 49.112 318.203 49.487 317.625 49.7578C317.047 50.0234 316.406 50.1562 315.703 50.1562ZM315.445 43.2188C314.997 43.2188 314.633 43.3698 314.352 43.6719C314.076 43.974 313.898 44.4062 313.82 44.9688H316.961V44.7891C316.951 44.2891 316.815 43.9036 316.555 43.6328C316.294 43.3568 315.924 43.2188 315.445 43.2188ZM325.219 43.6641C324.911 43.6224 324.641 43.6016 324.406 43.6016C323.552 43.6016 322.992 43.8906 322.727 44.4688V50H320.469V41.5469H322.602L322.664 42.5547C323.117 41.7786 323.745 41.3906 324.547 41.3906C324.797 41.3906 325.031 41.4245 325.25 41.4922L325.219 43.6641ZM330.977 50C330.872 49.7969 330.797 49.5443 330.75 49.2422C330.203 49.8516 329.492 50.1562 328.617 50.1562C327.789 50.1562 327.102 49.9167 326.555 49.4375C326.013 48.9583 325.742 48.3542 325.742 47.625C325.742 46.7292 326.073 46.0417 326.734 45.5625C327.401 45.0833 328.362 44.8411 329.617 44.8359H330.656V44.3516C330.656 43.9609 330.555 43.6484 330.352 43.4141C330.154 43.1797 329.839 43.0625 329.406 43.0625C329.026 43.0625 328.727 43.1536 328.508 43.3359C328.294 43.5182 328.188 43.7682 328.188 44.0859H325.93C325.93 43.5964 326.081 43.1432 326.383 42.7266C326.685 42.3099 327.112 41.9844 327.664 41.75C328.216 41.5104 328.836 41.3906 329.523 41.3906C330.565 41.3906 331.391 41.6536 332 42.1797C332.615 42.7005 332.922 43.4349 332.922 44.3828V48.0469C332.927 48.849 333.039 49.4557 333.258 49.8672V50H330.977ZM329.109 48.4297C329.443 48.4297 329.75 48.3568 330.031 48.2109C330.312 48.0599 330.521 47.8594 330.656 47.6094V46.1562H329.812C328.682 46.1562 328.081 46.5469 328.008 47.3281L328 47.4609C328 47.7422 328.099 47.974 328.297 48.1562C328.495 48.3385 328.766 48.4297 329.109 48.4297ZM337.039 50H334.773V38H337.039V50ZM341.289 50H339.023V41.5469H341.289V50ZM338.891 39.3594C338.891 39.0208 339.003 38.7422 339.227 38.5234C339.456 38.3047 339.766 38.1953 340.156 38.1953C340.542 38.1953 340.849 38.3047 341.078 38.5234C341.307 38.7422 341.422 39.0208 341.422 39.3594C341.422 39.7031 341.305 39.9844 341.07 40.2031C340.841 40.4219 340.536 40.5312 340.156 40.5312C339.776 40.5312 339.469 40.4219 339.234 40.2031C339.005 39.9844 338.891 39.7031 338.891 39.3594ZM345.75 48.1797H349.883V50H342.867V48.625L346.844 43.375H342.984V41.5469H349.758V42.8828L345.75 48.1797ZM355.062 50.1562C353.823 50.1562 352.812 49.776 352.031 49.0156C351.255 48.2552 350.867 47.2422 350.867 45.9766V45.7578C350.867 44.9089 351.031 44.151 351.359 43.4844C351.688 42.8125 352.151 42.2969 352.75 41.9375C353.354 41.5729 354.042 41.3906 354.812 41.3906C355.969 41.3906 356.878 41.7552 357.539 42.4844C358.206 43.2135 358.539 44.2474 358.539 45.5859V46.5078H353.156C353.229 47.0599 353.448 47.5026 353.812 47.8359C354.182 48.1693 354.648 48.3359 355.211 48.3359C356.081 48.3359 356.76 48.0208 357.25 47.3906L358.359 48.6328C358.021 49.112 357.562 49.487 356.984 49.7578C356.406 50.0234 355.766 50.1562 355.062 50.1562ZM354.805 43.2188C354.357 43.2188 353.992 43.3698 353.711 43.6719C353.435 43.974 353.258 44.4062 353.18 44.9688H356.32V44.7891C356.31 44.2891 356.174 43.9036 355.914 43.6328C355.654 43.3568 355.284 43.2188 354.805 43.2188ZM359.477 45.7109C359.477 44.3932 359.771 43.3438 360.359 42.5625C360.953 41.7812 361.763 41.3906 362.789 41.3906C363.612 41.3906 364.292 41.6979 364.828 42.3125V38H367.094V50H365.055L364.945 49.1016C364.383 49.8047 363.659 50.1562 362.773 50.1562C361.779 50.1562 360.979 49.7656 360.375 48.9844C359.776 48.1979 359.477 47.1068 359.477 45.7109ZM361.734 45.875C361.734 46.6667 361.872 47.2734 362.148 47.6953C362.424 48.1172 362.826 48.3281 363.352 48.3281C364.049 48.3281 364.542 48.0339 364.828 47.4453V44.1094C364.547 43.5208 364.06 43.2266 363.367 43.2266C362.279 43.2266 361.734 44.1094 361.734 45.875Z" fill="#5452F6"/>
<path d="M161.883 281.656H157.773L156.992 284H154.5L158.734 272.625H160.906L165.164 284H162.672L161.883 281.656ZM158.406 279.758H161.25L159.82 275.5L158.406 279.758ZM168.461 284H166.195V272H168.461V284ZM170 279.711C170 278.414 170.307 277.37 170.922 276.578C171.542 275.786 172.375 275.391 173.422 275.391C174.349 275.391 175.07 275.708 175.586 276.344L175.68 275.547H177.727V283.719C177.727 284.458 177.557 285.102 177.219 285.648C176.885 286.195 176.414 286.612 175.805 286.898C175.195 287.185 174.482 287.328 173.664 287.328C173.044 287.328 172.44 287.203 171.852 286.953C171.263 286.708 170.818 286.391 170.516 286L171.516 284.625C172.078 285.255 172.76 285.57 173.562 285.57C174.161 285.57 174.628 285.409 174.961 285.086C175.294 284.768 175.461 284.315 175.461 283.727V283.273C174.94 283.862 174.255 284.156 173.406 284.156C172.391 284.156 171.568 283.76 170.938 282.969C170.312 282.172 170 281.117 170 279.805V279.711ZM172.258 279.875C172.258 280.641 172.411 281.242 172.719 281.68C173.026 282.112 173.448 282.328 173.984 282.328C174.672 282.328 175.164 282.07 175.461 281.555V278C175.159 277.484 174.672 277.227 174 277.227C173.458 277.227 173.031 277.448 172.719 277.891C172.411 278.333 172.258 278.995 172.258 279.875ZM179.117 279.695C179.117 278.857 179.279 278.109 179.602 277.453C179.924 276.797 180.388 276.289 180.992 275.93C181.602 275.57 182.307 275.391 183.109 275.391C184.25 275.391 185.18 275.74 185.898 276.438C186.622 277.135 187.026 278.083 187.109 279.281L187.125 279.859C187.125 281.156 186.763 282.198 186.039 282.984C185.315 283.766 184.344 284.156 183.125 284.156C181.906 284.156 180.932 283.766 180.203 282.984C179.479 282.203 179.117 281.141 179.117 279.797V279.695ZM181.375 279.859C181.375 280.661 181.526 281.276 181.828 281.703C182.13 282.125 182.562 282.336 183.125 282.336C183.672 282.336 184.099 282.128 184.406 281.711C184.714 281.289 184.867 280.617 184.867 279.695C184.867 278.909 184.714 278.299 184.406 277.867C184.099 277.435 183.667 277.219 183.109 277.219C182.557 277.219 182.13 277.435 181.828 277.867C181.526 278.294 181.375 278.958 181.375 279.859ZM193.266 277.664C192.958 277.622 192.688 277.602 192.453 277.602C191.599 277.602 191.039 277.891 190.773 278.469V284H188.516V275.547H190.648L190.711 276.555C191.164 275.779 191.792 275.391 192.594 275.391C192.844 275.391 193.078 275.424 193.297 275.492L193.266 277.664ZM196.742 284H194.477V275.547H196.742V284ZM194.344 273.359C194.344 273.021 194.456 272.742 194.68 272.523C194.909 272.305 195.219 272.195 195.609 272.195C195.995 272.195 196.302 272.305 196.531 272.523C196.76 272.742 196.875 273.021 196.875 273.359C196.875 273.703 196.758 273.984 196.523 274.203C196.294 274.422 195.99 274.531 195.609 274.531C195.229 274.531 194.922 274.422 194.688 274.203C194.458 273.984 194.344 273.703 194.344 273.359ZM201.312 273.469V275.547H202.758V277.203H201.312V281.422C201.312 281.734 201.372 281.958 201.492 282.094C201.612 282.229 201.841 282.297 202.18 282.297C202.43 282.297 202.651 282.279 202.844 282.242V283.953C202.401 284.089 201.945 284.156 201.477 284.156C199.893 284.156 199.086 283.357 199.055 281.758V277.203H197.82V275.547H199.055V273.469H201.312ZM206.219 276.469C206.818 275.75 207.57 275.391 208.477 275.391C210.31 275.391 211.24 276.456 211.266 278.586V284H209.008V278.648C209.008 278.164 208.904 277.807 208.695 277.578C208.487 277.344 208.141 277.227 207.656 277.227C206.995 277.227 206.516 277.482 206.219 277.992V284H203.961V272H206.219V276.469ZM215.086 275.547L215.156 276.492C215.755 275.758 216.565 275.391 217.586 275.391C218.674 275.391 219.422 275.82 219.828 276.68C220.422 275.82 221.268 275.391 222.367 275.391C223.284 275.391 223.966 275.659 224.414 276.195C224.862 276.727 225.086 277.529 225.086 278.602V284H222.82V278.609C222.82 278.13 222.727 277.781 222.539 277.562C222.352 277.339 222.021 277.227 221.547 277.227C220.87 277.227 220.401 277.549 220.141 278.195L220.148 284H217.891V278.617C217.891 278.128 217.794 277.773 217.602 277.555C217.409 277.336 217.081 277.227 216.617 277.227C215.977 277.227 215.513 277.492 215.227 278.023V284H212.969V275.547H215.086ZM229.211 284H226.945V275.547H229.211V284ZM226.812 273.359C226.812 273.021 226.924 272.742 227.148 272.523C227.378 272.305 227.688 272.195 228.078 272.195C228.464 272.195 228.771 272.305 229 272.523C229.229 272.742 229.344 273.021 229.344 273.359C229.344 273.703 229.227 273.984 228.992 274.203C228.763 274.422 228.458 274.531 228.078 274.531C227.698 274.531 227.391 274.422 227.156 274.203C226.927 273.984 226.812 273.703 226.812 273.359ZM234.594 282.336C235.01 282.336 235.349 282.221 235.609 281.992C235.87 281.763 236.005 281.458 236.016 281.078H238.133C238.128 281.651 237.971 282.177 237.664 282.656C237.357 283.13 236.935 283.5 236.398 283.766C235.867 284.026 235.279 284.156 234.633 284.156C233.424 284.156 232.471 283.773 231.773 283.008C231.076 282.237 230.727 281.174 230.727 279.82V279.672C230.727 278.37 231.073 277.331 231.766 276.555C232.458 275.779 233.409 275.391 234.617 275.391C235.674 275.391 236.521 275.693 237.156 276.297C237.797 276.896 238.122 277.695 238.133 278.695H236.016C236.005 278.258 235.87 277.904 235.609 277.633C235.349 277.357 235.005 277.219 234.578 277.219C234.052 277.219 233.654 277.411 233.383 277.797C233.117 278.177 232.984 278.797 232.984 279.656V279.891C232.984 280.76 233.117 281.385 233.383 281.766C233.648 282.146 234.052 282.336 234.594 282.336Z" fill="#5452F6"/>
<defs>
<filter id="filter0_d" x="-0.140625" y="23.75" width="393.281" height="343.25" filterUnits="userSpaceOnUse" color-interpolation-filters="sRGB">
<feFlood flood-opacity="0" result="BackgroundImageFix"/>
<feColorMatrix in="SourceAlpha" type="matrix" values="0 0 0 0 0 0 0 0 0 0 0 0 0 0 0 0 0 0 127 0"/>
<feOffset dx="4" dy="4"/>
<feColorMatrix type="matrix" values="0 0 0 0 0.67451 0 0 0 0 0.662745 0 0 0 0 0.945098 0 0 0 1 0"/>
<feBlend mode="normal" in2="BackgroundImageFix" result="effect1_dropShadow"/>
<feBlend mode="normal" in="SourceGraphic" in2="effect1_dropShadow" result="shape"/>
</filter>
<clipPath id="clip0">
<rect width="394" height="347" fill="white" transform="translate(0 24)"/>
</clipPath>
</defs>
</svg>
