<svg width="892" height="550" viewBox="0 0 892 550" fill="none" xmlns="http://www.w3.org/2000/svg">
<line x1="740.164" y1="282.801" x2="509.584" y2="476.28" stroke="#65BF73" stroke-width="2"/>
<path d="M523.351 477.13L509.201 476.601L511.46 462.958" stroke="#65BF73" stroke-width="2" stroke-linecap="round" stroke-linejoin="round"/>
<line x1="567.41" y1="535.591" x2="834.759" y2="311.258" stroke="#DE1306" stroke-width="2"/>
<path d="M820.992 310.409L835.142 310.937L832.884 324.581" stroke="#DE1306" stroke-width="2" stroke-linecap="round" stroke-linejoin="round"/>
<line x1="443.865" y1="535.253" x2="176.515" y2="310.92" stroke="#DE1306" stroke-width="2"/>
<path d="M178.069 324.625L176.132 310.599L189.961 310.454" stroke="#DE1306" stroke-width="2" stroke-linecap="round" stroke-linejoin="round"/>
<line x1="37.7668" y1="305.471" x2="305.116" y2="529.804" stroke="#5452F6" stroke-width="2"/>
<path d="M303.562 516.099L305.499 530.126L291.671 530.271" stroke="#5452F6" stroke-width="2" stroke-linecap="round" stroke-linejoin="round"/>
<line x1="60.5" y1="67" x2="60.5" y2="238" stroke="#5452F6" stroke-width="2"/>
<path d="M70 228L60.5 238.5L51.5 228" stroke="#5452F6" stroke-width="2" stroke-linecap="round" stroke-linejoin="round"/>
<line x1="178.5" y1="243" x2="178.5" y2="72" stroke="#5452F6" stroke-width="2"/>
<path d="M169 82L178.5 71.5L187.5 82" stroke="#5452F6" stroke-width="2" stroke-linecap="round" stroke-linejoin="round"/>
<line x1="709.5" y1="67" x2="709.5" y2="238" stroke="#65BF73" stroke-width="2"/>
<path d="M719 228L709.5 238.5L700.5 228" stroke="#65BF73" stroke-width="2" stroke-linecap="round" stroke-linejoin="round"/>
<line x1="833.5" y1="243" x2="833.5" y2="72" stroke="#65BF73" stroke-width="2"/>
<path d="M824 82L833.5 71.5L842.5 82" stroke="#65BF73" stroke-width="2" stroke-linecap="round" stroke-linejoin="round"/>
<g filter="url(#filter0_d)">
<rect y="239" width="110" height="67" rx="8" fill="#EEEEFF"/>
<path d="M23.7969 274.414L24.0156 275.914L24.3359 274.562L26.5859 266.625H27.8516L30.0469 274.562L30.3594 275.938L30.6016 274.406L32.3672 266.625H33.875L31.1172 278H29.75L27.4062 269.711L27.2266 268.844L27.0469 269.711L24.6172 278H23.25L20.5 266.625H22L23.7969 274.414ZM39.2344 270.844C39.0156 270.807 38.7786 270.789 38.5234 270.789C37.5755 270.789 36.9323 271.193 36.5938 272V278H35.1484V269.547H36.5547L36.5781 270.523C37.0521 269.768 37.724 269.391 38.5938 269.391C38.875 269.391 39.0885 269.427 39.2344 269.5V270.844ZM45.4766 278C45.3932 277.833 45.3255 277.536 45.2734 277.109C44.6016 277.807 43.7995 278.156 42.8672 278.156C42.0339 278.156 41.349 277.922 40.8125 277.453C40.2812 276.979 40.0156 276.38 40.0156 275.656C40.0156 274.776 40.349 274.094 41.0156 273.609C41.6875 273.12 42.6302 272.875 43.8438 272.875H45.25V272.211C45.25 271.706 45.099 271.305 44.7969 271.008C44.4948 270.706 44.0495 270.555 43.4609 270.555C42.9453 270.555 42.513 270.685 42.1641 270.945C41.8151 271.206 41.6406 271.521 41.6406 271.891H40.1875C40.1875 271.469 40.3359 271.062 40.6328 270.672C40.9349 270.276 41.3411 269.964 41.8516 269.734C42.3672 269.505 42.9323 269.391 43.5469 269.391C44.5208 269.391 45.2839 269.635 45.8359 270.125C46.388 270.609 46.6745 271.279 46.6953 272.133V276.023C46.6953 276.799 46.7943 277.417 46.9922 277.875V278H45.4766ZM43.0781 276.898C43.5312 276.898 43.9609 276.781 44.3672 276.547C44.7734 276.312 45.0677 276.008 45.25 275.633V273.898H44.1172C42.3464 273.898 41.4609 274.417 41.4609 275.453C41.4609 275.906 41.612 276.26 41.9141 276.516C42.2161 276.771 42.6042 276.898 43.0781 276.898ZM56.1016 273.867C56.1016 275.154 55.8073 276.19 55.2188 276.977C54.6302 277.763 53.8333 278.156 52.8281 278.156C51.8021 278.156 50.9948 277.831 50.4062 277.18V281.25H48.9609V269.547H50.2812L50.3516 270.484C50.9401 269.755 51.7578 269.391 52.8047 269.391C53.8203 269.391 54.6224 269.773 55.2109 270.539C55.8047 271.305 56.1016 272.37 56.1016 273.734V273.867ZM54.6562 273.703C54.6562 272.75 54.4531 271.997 54.0469 271.445C53.6406 270.893 53.0833 270.617 52.375 270.617C51.5 270.617 50.8438 271.005 50.4062 271.781V275.82C50.8385 276.591 51.5 276.977 52.3906 276.977C53.0833 276.977 53.6328 276.703 54.0391 276.156C54.4505 275.604 54.6562 274.786 54.6562 273.703ZM65.8516 270.984L68.5781 266.625H70.3438L66.75 272.266L70.4297 278H68.6484L65.8516 273.562L63.0391 278H61.2656L64.9531 272.266L61.3516 266.625H63.1094L65.8516 270.984ZM80.0312 267.859H76.375V278H74.8828V267.859H71.2344V266.625H80.0312V267.859ZM82.8438 276.773H89.3516V278H81.0703V276.875L87.3047 267.859H81.1719V266.625H89.1016V267.727L82.8438 276.773Z" fill="#5452F6"/>
<rect x="0.5" y="239.5" width="109" height="66" rx="7.5" stroke="#5452F6"/>
</g>
<g filter="url(#filter1_d)">
<rect x="120" y="239" width="110" height="67" rx="8" fill="#EEEEFF"/>
<path d="M140.578 266.625V274.359C140.573 275.432 140.234 276.31 139.562 276.992C138.896 277.674 137.99 278.057 136.844 278.141L136.445 278.156C135.201 278.156 134.208 277.82 133.469 277.148C132.729 276.477 132.354 275.552 132.344 274.375V266.625H133.828V274.328C133.828 275.151 134.055 275.792 134.508 276.25C134.961 276.703 135.607 276.93 136.445 276.93C137.294 276.93 137.943 276.703 138.391 276.25C138.844 275.797 139.07 275.159 139.07 274.336V266.625H140.578ZM144.086 269.547L144.133 270.609C144.779 269.797 145.622 269.391 146.664 269.391C148.451 269.391 149.352 270.398 149.367 272.414V278H147.922V272.406C147.917 271.797 147.776 271.346 147.5 271.055C147.229 270.763 146.805 270.617 146.227 270.617C145.758 270.617 145.346 270.742 144.992 270.992C144.638 271.242 144.362 271.57 144.164 271.977V278H142.719V269.547H144.086ZM159.031 276.008L160.656 269.547H162.102L159.641 278H158.469L156.414 271.594L154.414 278H153.242L150.789 269.547H152.227L153.891 275.875L155.859 269.547H157.023L159.031 276.008ZM167.664 270.844C167.445 270.807 167.208 270.789 166.953 270.789C166.005 270.789 165.362 271.193 165.023 272V278H163.578V269.547H164.984L165.008 270.523C165.482 269.768 166.154 269.391 167.023 269.391C167.305 269.391 167.518 269.427 167.664 269.5V270.844ZM173.906 278C173.823 277.833 173.755 277.536 173.703 277.109C173.031 277.807 172.229 278.156 171.297 278.156C170.464 278.156 169.779 277.922 169.242 277.453C168.711 276.979 168.445 276.38 168.445 275.656C168.445 274.776 168.779 274.094 169.445 273.609C170.117 273.12 171.06 272.875 172.273 272.875H173.68V272.211C173.68 271.706 173.529 271.305 173.227 271.008C172.924 270.706 172.479 270.555 171.891 270.555C171.375 270.555 170.943 270.685 170.594 270.945C170.245 271.206 170.07 271.521 170.07 271.891H168.617C168.617 271.469 168.766 271.062 169.062 270.672C169.365 270.276 169.771 269.964 170.281 269.734C170.797 269.505 171.362 269.391 171.977 269.391C172.951 269.391 173.714 269.635 174.266 270.125C174.818 270.609 175.104 271.279 175.125 272.133V276.023C175.125 276.799 175.224 277.417 175.422 277.875V278H173.906ZM171.508 276.898C171.961 276.898 172.391 276.781 172.797 276.547C173.203 276.312 173.497 276.008 173.68 275.633V273.898H172.547C170.776 273.898 169.891 274.417 169.891 275.453C169.891 275.906 170.042 276.26 170.344 276.516C170.646 276.771 171.034 276.898 171.508 276.898ZM184.531 273.867C184.531 275.154 184.237 276.19 183.648 276.977C183.06 277.763 182.263 278.156 181.258 278.156C180.232 278.156 179.424 277.831 178.836 277.18V281.25H177.391V269.547H178.711L178.781 270.484C179.37 269.755 180.188 269.391 181.234 269.391C182.25 269.391 183.052 269.773 183.641 270.539C184.234 271.305 184.531 272.37 184.531 273.734V273.867ZM183.086 273.703C183.086 272.75 182.883 271.997 182.477 271.445C182.07 270.893 181.513 270.617 180.805 270.617C179.93 270.617 179.273 271.005 178.836 271.781V275.82C179.268 276.591 179.93 276.977 180.82 276.977C181.513 276.977 182.062 276.703 182.469 276.156C182.88 275.604 183.086 274.786 183.086 273.703ZM190.57 278V266.625H194.289C195.523 266.625 196.451 266.88 197.07 267.391C197.695 267.901 198.008 268.656 198.008 269.656C198.008 270.188 197.857 270.659 197.555 271.07C197.253 271.477 196.841 271.792 196.32 272.016C196.935 272.188 197.419 272.516 197.773 273C198.133 273.479 198.312 274.052 198.312 274.719C198.312 275.74 197.982 276.542 197.32 277.125C196.659 277.708 195.724 278 194.516 278H190.57ZM192.07 272.68V276.773H194.547C195.245 276.773 195.794 276.594 196.195 276.234C196.602 275.87 196.805 275.37 196.805 274.734C196.805 273.365 196.06 272.68 194.57 272.68H192.07ZM192.07 271.477H194.336C194.992 271.477 195.516 271.312 195.906 270.984C196.302 270.656 196.5 270.211 196.5 269.648C196.5 269.023 196.318 268.57 195.953 268.289C195.589 268.003 195.034 267.859 194.289 267.859H192.07V271.477ZM208.18 267.859H204.523V278H203.031V267.859H199.383V266.625H208.18V267.859ZM218.016 274.391C217.875 275.594 217.43 276.523 216.68 277.18C215.935 277.831 214.943 278.156 213.703 278.156C212.359 278.156 211.281 277.674 210.469 276.711C209.661 275.747 209.258 274.458 209.258 272.844V271.75C209.258 270.693 209.445 269.763 209.82 268.961C210.201 268.159 210.737 267.544 211.43 267.117C212.122 266.685 212.924 266.469 213.836 266.469C215.044 266.469 216.013 266.807 216.742 267.484C217.471 268.156 217.896 269.089 218.016 270.281H216.508C216.378 269.375 216.094 268.719 215.656 268.312C215.224 267.906 214.617 267.703 213.836 267.703C212.878 267.703 212.125 268.057 211.578 268.766C211.036 269.474 210.766 270.482 210.766 271.789V272.891C210.766 274.125 211.023 275.107 211.539 275.836C212.055 276.565 212.776 276.93 213.703 276.93C214.536 276.93 215.174 276.742 215.617 276.367C216.065 275.987 216.362 275.328 216.508 274.391H218.016Z" fill="#5452F6"/>
<rect x="120.5" y="239.5" width="109" height="66" rx="7.5" stroke="#5452F6"/>
</g>
<g filter="url(#filter2_d)">
<rect width="230" height="67" rx="8" fill="#EEEEFF"/>
<path d="M89.9052 21.5C89.9052 21.0858 89.5694 20.75 89.1552 20.75C88.741 20.75 88.4052 21.0858 88.4052 21.5H89.9052ZM95.45 37.3817C95.6798 37.0371 95.5866 36.5714 95.242 36.3416C94.8974 36.1119 94.4317 36.205 94.2019 36.5497L95.45 37.3817ZM84 26.4207C83.5858 26.4207 83.25 26.7565 83.25 27.1707C83.25 27.585 83.5858 27.9207 84 27.9207V26.4207ZM99.9812 27.1707L100.546 27.6646C100.739 27.4432 100.786 27.1288 100.664 26.8608C100.543 26.5929 100.275 26.4207 99.9812 26.4207V27.1707ZM92.7639 35.4191L92.1995 34.9252C91.9689 35.1888 91.9513 35.5768 92.1572 35.86C92.363 36.1433 92.7375 36.2464 93.0593 36.1085L92.7639 35.4191ZM93.7949 45.214L94.1303 44.5432H94.1303L93.7949 45.214ZM92.4444 41.8426C92.5753 41.4496 92.363 41.0249 91.97 40.8939C91.5771 40.7629 91.1523 40.9753 91.0213 41.3682L92.4444 41.8426ZM88.4052 21.5V27.1707H89.9052V21.5H88.4052ZM88.4052 27.1707V37.4812H89.9052V27.1707H88.4052ZM88.4052 37.4812C88.4052 38.1272 88.7335 38.7073 89.183 39.1247C89.639 39.5481 90.2621 39.849 90.9675 39.9393C92.4244 40.1256 94.0954 39.4136 95.45 37.3817L94.2019 36.5497C93.0821 38.2295 91.9176 38.5486 91.1578 38.4514C90.7548 38.3998 90.4243 38.2303 90.2036 38.0255C89.9764 37.8145 89.9052 37.6085 89.9052 37.4812H88.4052ZM84 27.9207H89.1552V26.4207H84V27.9207ZM89.1552 27.9207H99.9812V26.4207H89.1552V27.9207ZM99.4168 26.6769L92.1995 34.9252L93.3283 35.913L100.546 27.6646L99.4168 26.6769ZM93.0593 36.1085C94.7521 35.383 96.3013 35.3263 97.3778 35.8902C98.4026 36.427 99.2312 37.6546 99.2312 40.0588H100.731C100.731 37.3078 99.7555 35.4423 98.0738 34.5614C96.4438 33.7076 94.3843 33.9087 92.4684 34.7298L93.0593 36.1085ZM99.2312 40.0588C99.2312 41.5024 98.9308 42.4858 98.5204 43.1543C98.1135 43.8172 97.5691 44.2188 96.9907 44.4554C96.403 44.6959 95.7732 44.7676 95.2253 44.7465C94.6591 44.7247 94.2595 44.6078 94.1303 44.5432L93.4595 45.8849C93.8459 46.078 94.4774 46.2189 95.1677 46.2454C95.8764 46.2727 96.7287 46.1833 97.5587 45.8438C98.398 45.5004 99.2069 44.9032 99.7988 43.939C100.387 42.9804 100.731 41.7084 100.731 40.0588H99.2312ZM94.1303 44.5432C93.7234 44.3397 93.176 43.9057 92.7983 43.3663C92.4204 42.8263 92.2907 42.3035 92.4444 41.8426L91.0213 41.3682C90.6594 42.4539 91.0453 43.4776 91.5695 44.2264C92.094 44.9758 92.8354 45.5728 93.4595 45.8849L94.1303 44.5432Z" fill="#5452F6"/>
<path d="M122.062 36.0312H117.297L116.227 39H114.68L119.023 27.625H120.336L124.688 39H123.148L122.062 36.0312ZM117.75 34.7969H121.617L119.68 29.4766L117.75 34.7969ZM127.562 39H126.117V27H127.562V39ZM131.453 39H130.008V30.5469H131.453V39ZM129.891 28.3047C129.891 28.0703 129.961 27.8724 130.102 27.7109C130.247 27.5495 130.461 27.4688 130.742 27.4688C131.023 27.4688 131.237 27.5495 131.383 27.7109C131.529 27.8724 131.602 28.0703 131.602 28.3047C131.602 28.5391 131.529 28.7344 131.383 28.8906C131.237 29.0469 131.023 29.125 130.742 29.125C130.461 29.125 130.247 29.0469 130.102 28.8906C129.961 28.7344 129.891 28.5391 129.891 28.3047ZM137.164 37.9766C137.68 37.9766 138.13 37.8203 138.516 37.5078C138.901 37.1953 139.115 36.8047 139.156 36.3359H140.523C140.497 36.8203 140.331 37.2812 140.023 37.7188C139.716 38.1562 139.305 38.5052 138.789 38.7656C138.279 39.026 137.737 39.1562 137.164 39.1562C136.013 39.1562 135.096 38.7734 134.414 38.0078C133.737 37.237 133.398 36.1849 133.398 34.8516V34.6094C133.398 33.7865 133.549 33.0547 133.852 32.4141C134.154 31.7734 134.586 31.276 135.148 30.9219C135.716 30.5677 136.385 30.3906 137.156 30.3906C138.104 30.3906 138.891 30.6745 139.516 31.2422C140.146 31.8099 140.482 32.5469 140.523 33.4531H139.156C139.115 32.9062 138.906 32.4583 138.531 32.1094C138.161 31.7552 137.703 31.5781 137.156 31.5781C136.422 31.5781 135.852 31.8438 135.445 32.375C135.044 32.901 134.844 33.6641 134.844 34.6641V34.9375C134.844 35.9115 135.044 36.6615 135.445 37.1875C135.846 37.7135 136.419 37.9766 137.164 37.9766ZM145.656 39.1562C144.51 39.1562 143.578 38.7812 142.859 38.0312C142.141 37.276 141.781 36.2682 141.781 35.0078V34.7422C141.781 33.9036 141.94 33.1562 142.258 32.5C142.581 31.8385 143.029 31.3229 143.602 30.9531C144.18 30.5781 144.805 30.3906 145.477 30.3906C146.576 30.3906 147.43 30.7526 148.039 31.4766C148.648 32.2005 148.953 33.237 148.953 34.5859V35.1875H143.227C143.247 36.0208 143.49 36.6953 143.953 37.2109C144.422 37.7214 145.016 37.9766 145.734 37.9766C146.245 37.9766 146.677 37.8724 147.031 37.6641C147.385 37.4557 147.695 37.1797 147.961 36.8359L148.844 37.5234C148.135 38.612 147.073 39.1562 145.656 39.1562ZM145.477 31.5781C144.893 31.5781 144.404 31.7917 144.008 32.2188C143.612 32.6406 143.367 33.2344 143.273 34H147.508V33.8906C147.466 33.1562 147.268 32.5885 146.914 32.1875C146.56 31.7812 146.081 31.5781 145.477 31.5781Z" fill="#5452F6"/>
<rect x="0.5" y="0.5" width="229" height="66" rx="7.5" stroke="#5452F6"/>
</g>
<g filter="url(#filter3_d)">
<rect x="306" y="478" width="279" height="68" rx="8" fill="#FEEBEA"/>
<g clip-path="url(#clip0)">
<path d="M430.754 503C430.754 502.586 430.418 502.25 430.004 502.25C429.589 502.25 429.254 502.586 429.254 503H430.754ZM432.282 507.927C432.511 507.582 432.418 507.117 432.074 506.887C431.729 506.657 431.263 506.75 431.034 507.095L432.282 507.927ZM428.5 503.904C428.086 503.904 427.75 504.24 427.75 504.654C427.75 505.068 428.086 505.404 428.5 505.404V503.904ZM433.161 504.654L433.726 505.148C433.919 504.926 433.966 504.612 433.844 504.344C433.723 504.076 433.455 503.904 433.161 503.904V504.654ZM431.056 507.06L430.492 506.566C430.261 506.829 430.244 507.217 430.449 507.501C430.655 507.784 431.03 507.887 431.352 507.749L431.056 507.06ZM431.357 509.917L431.692 509.246L431.692 509.246L431.357 509.917ZM431.467 509.101C431.598 508.708 431.386 508.284 430.993 508.153C430.6 508.022 430.175 508.234 430.044 508.627L431.467 509.101ZM429.254 503V504.654H430.754V503H429.254ZM429.254 504.654V507.661H430.754V504.654H429.254ZM429.254 507.661C429.254 508.033 429.44 508.335 429.65 508.53C429.867 508.731 430.152 508.865 430.465 508.905C431.137 508.991 431.803 508.644 432.282 507.927L431.034 507.095C430.908 507.283 430.802 507.361 430.744 507.392C430.688 507.421 430.659 507.418 430.655 507.417C430.645 507.416 430.652 507.413 430.671 507.431C430.683 507.442 430.754 507.515 430.754 507.661H429.254ZM428.5 505.404H430.004V503.904H428.5V505.404ZM430.004 505.404H433.161V503.904H430.004V505.404ZM432.597 504.16L430.492 506.566L431.621 507.554L433.726 505.148L432.597 504.16ZM431.352 507.749C431.766 507.571 432.037 507.606 432.155 507.668C432.222 507.702 432.411 507.835 432.411 508.413H433.911C433.911 507.488 433.575 506.718 432.851 506.339C432.18 505.987 431.398 506.097 430.761 506.37L431.352 507.749ZM432.411 508.413C432.411 508.761 432.339 508.946 432.282 509.038C432.229 509.125 432.164 509.172 432.088 509.204C432.002 509.239 431.897 509.253 431.794 509.249C431.673 509.245 431.639 509.219 431.692 509.246L431.021 510.587C431.225 510.689 431.492 510.739 431.737 510.748C432 510.758 432.328 510.726 432.656 510.592C432.993 510.454 433.323 510.211 433.561 509.823C433.795 509.44 433.911 508.967 433.911 508.413H432.411ZM431.692 509.246C431.679 509.239 431.645 509.219 431.603 509.183C431.562 509.147 431.526 509.108 431.501 509.073C431.476 509.037 431.472 509.019 431.473 509.023C431.476 509.033 431.479 509.065 431.467 509.101L430.044 508.627C429.865 509.165 430.068 509.641 430.273 509.933C430.478 510.226 430.763 510.458 431.021 510.587L431.692 509.246Z" fill="#DE1306"/>
<path d="M431.53 512.7C432.64 512.554 433.687 512.1 434.552 511.39C435.418 510.68 436.068 509.743 436.428 508.683C436.788 507.623 436.845 506.483 436.592 505.393C436.338 504.302 435.785 503.305 434.994 502.512C434.203 501.72 433.206 501.165 432.116 500.909C431.026 500.654 429.887 500.709 428.826 501.067C427.766 501.426 426.826 502.074 426.115 502.938C425.404 503.802 424.948 504.848 424.8 505.958" stroke="#DE1306" stroke-width="1.5" stroke-linecap="round" stroke-linejoin="round"/>
<path d="M429.25 515.75C429.25 513.761 428.46 511.853 427.053 510.447C425.647 509.04 423.739 508.25 421.75 508.25" stroke="#DE1306" stroke-width="1.5" stroke-linecap="round" stroke-linejoin="round"/>
<path d="M415.75 511.25C415.142 512.069 414.708 513.003 414.473 513.995C414.238 514.988 414.209 516.018 414.385 517.022C414.562 518.027 414.942 518.984 415.502 519.837C416.062 520.689 416.789 521.419 417.64 521.981C418.492 522.542 419.448 522.925 420.452 523.104C421.456 523.283 422.486 523.256 423.479 523.024C424.472 522.792 425.408 522.36 426.228 521.754C427.048 521.148 427.736 520.381 428.25 519.5" stroke="#DE1306" stroke-width="1.5" stroke-linecap="round" stroke-linejoin="round"/>
<path d="M420.25 518.75V512.75H422.5C422.898 512.75 423.279 512.908 423.561 513.189C423.842 513.471 424 513.852 424 514.25C424 514.648 423.842 515.029 423.561 515.311C423.279 515.592 422.898 515.75 422.5 515.75C422.898 515.75 423.279 515.908 423.561 516.189C423.842 516.471 424 516.852 424 517.25C424 517.648 423.842 518.029 423.561 518.311C423.279 518.592 422.898 518.75 422.5 518.75H420.25Z" stroke="#DE1306" stroke-width="1.5" stroke-linecap="round" stroke-linejoin="round"/>
<path d="M420.25 515.75H422.5" stroke="#DE1306" stroke-width="1.5" stroke-linecap="round" stroke-linejoin="round"/>
<path d="M421.75 512.75V511.25" stroke="#DE1306" stroke-width="1.5" stroke-linecap="round" stroke-linejoin="round"/>
<path d="M421.75 518.75V520.25" stroke="#DE1306" stroke-width="1.5" stroke-linecap="round" stroke-linejoin="round"/>
<path d="M414.25 504.5L416.5 508.25L420.25 506" stroke="#DE1306" stroke-width="1.5" stroke-linecap="round" stroke-linejoin="round"/>
<path d="M421.689 500.9C420.301 501.406 419.117 502.354 418.319 503.598C417.521 504.842 417.153 506.313 417.272 507.786" stroke="#DE1306" stroke-width="1.5" stroke-linecap="round" stroke-linejoin="round"/>
<path d="M436.75 519.5L434.5 515.75L430.75 518" stroke="#DE1306" stroke-width="1.5" stroke-linecap="round" stroke-linejoin="round"/>
<path d="M429.311 523.1C430.699 522.594 431.883 521.646 432.681 520.403C433.478 519.159 433.846 517.689 433.728 516.216" stroke="#DE1306" stroke-width="1.5" stroke-linecap="round" stroke-linejoin="round"/>
</g>
<path d="M449.008 517.5V506.125H452.219C453.208 506.125 454.083 506.344 454.844 506.781C455.604 507.219 456.19 507.841 456.602 508.648C457.018 509.456 457.229 510.383 457.234 511.43V512.156C457.234 513.229 457.026 514.169 456.609 514.977C456.198 515.784 455.607 516.404 454.836 516.836C454.07 517.268 453.177 517.49 452.156 517.5H449.008ZM450.508 507.359V516.273H452.086C453.242 516.273 454.141 515.914 454.781 515.195C455.427 514.477 455.75 513.453 455.75 512.125V511.461C455.75 510.169 455.445 509.167 454.836 508.453C454.232 507.734 453.372 507.37 452.258 507.359H450.508ZM465.938 512.242H461.008V516.273H466.734V517.5H459.508V506.125H466.656V507.359H461.008V511.016H465.938V512.242ZM472.312 510.484L475.039 506.125H476.805L473.211 511.766L476.891 517.5H475.109L472.312 513.062L469.5 517.5H467.727L471.414 511.766L467.812 506.125H469.57L472.312 510.484Z" fill="#DE1306"/>
<rect x="306.5" y="478.5" width="278" height="67" rx="7.5" stroke="#DE1306"/>
</g>
<g filter="url(#filter4_d)">
<rect x="778" y="239" width="110" height="67" rx="8" fill="#E5FDE8"/>
<path d="M798.75 266.625V274.359C798.745 275.432 798.406 276.31 797.734 276.992C797.068 277.674 796.161 278.057 795.016 278.141L794.617 278.156C793.372 278.156 792.38 277.82 791.641 277.148C790.901 276.477 790.526 275.552 790.516 274.375V266.625H792V274.328C792 275.151 792.227 275.792 792.68 276.25C793.133 276.703 793.779 276.93 794.617 276.93C795.466 276.93 796.115 276.703 796.562 276.25C797.016 275.797 797.242 275.159 797.242 274.336V266.625H798.75ZM802.258 269.547L802.305 270.609C802.951 269.797 803.794 269.391 804.836 269.391C806.622 269.391 807.523 270.398 807.539 272.414V278H806.094V272.406C806.089 271.797 805.948 271.346 805.672 271.055C805.401 270.763 804.977 270.617 804.398 270.617C803.93 270.617 803.518 270.742 803.164 270.992C802.81 271.242 802.534 271.57 802.336 271.977V278H800.891V269.547H802.258ZM817.203 276.008L818.828 269.547H820.273L817.812 278H816.641L814.586 271.594L812.586 278H811.414L808.961 269.547H810.398L812.062 275.875L814.031 269.547H815.195L817.203 276.008ZM825.836 270.844C825.617 270.807 825.38 270.789 825.125 270.789C824.177 270.789 823.534 271.193 823.195 272V278H821.75V269.547H823.156L823.18 270.523C823.654 269.768 824.326 269.391 825.195 269.391C825.477 269.391 825.69 269.427 825.836 269.5V270.844ZM832.078 278C831.995 277.833 831.927 277.536 831.875 277.109C831.203 277.807 830.401 278.156 829.469 278.156C828.635 278.156 827.951 277.922 827.414 277.453C826.883 276.979 826.617 276.38 826.617 275.656C826.617 274.776 826.951 274.094 827.617 273.609C828.289 273.12 829.232 272.875 830.445 272.875H831.852V272.211C831.852 271.706 831.701 271.305 831.398 271.008C831.096 270.706 830.651 270.555 830.062 270.555C829.547 270.555 829.115 270.685 828.766 270.945C828.417 271.206 828.242 271.521 828.242 271.891H826.789C826.789 271.469 826.938 271.062 827.234 270.672C827.536 270.276 827.943 269.964 828.453 269.734C828.969 269.505 829.534 269.391 830.148 269.391C831.122 269.391 831.885 269.635 832.438 270.125C832.99 270.609 833.276 271.279 833.297 272.133V276.023C833.297 276.799 833.396 277.417 833.594 277.875V278H832.078ZM829.68 276.898C830.133 276.898 830.562 276.781 830.969 276.547C831.375 276.312 831.669 276.008 831.852 275.633V273.898H830.719C828.948 273.898 828.062 274.417 828.062 275.453C828.062 275.906 828.214 276.26 828.516 276.516C828.818 276.771 829.206 276.898 829.68 276.898ZM842.703 273.867C842.703 275.154 842.409 276.19 841.82 276.977C841.232 277.763 840.435 278.156 839.43 278.156C838.404 278.156 837.596 277.831 837.008 277.18V281.25H835.562V269.547H836.883L836.953 270.484C837.542 269.755 838.359 269.391 839.406 269.391C840.422 269.391 841.224 269.773 841.812 270.539C842.406 271.305 842.703 272.37 842.703 273.734V273.867ZM841.258 273.703C841.258 272.75 841.055 271.997 840.648 271.445C840.242 270.893 839.685 270.617 838.977 270.617C838.102 270.617 837.445 271.005 837.008 271.781V275.82C837.44 276.591 838.102 276.977 838.992 276.977C839.685 276.977 840.234 276.703 840.641 276.156C841.052 275.604 841.258 274.786 841.258 273.703ZM852.453 270.984L855.18 266.625H856.945L853.352 272.266L857.031 278H855.25L852.453 273.562L849.641 278H847.867L851.555 272.266L847.953 266.625H849.711L852.453 270.984ZM866.633 267.859H862.977V278H861.484V267.859H857.836V266.625H866.633V267.859ZM869.445 276.773H875.953V278H867.672V276.875L873.906 267.859H867.773V266.625H875.703V267.727L869.445 276.773Z" fill="#65BF73"/>
<rect x="778.5" y="239.5" width="109" height="66" rx="7.5" stroke="#65BF73"/>
</g>
<g filter="url(#filter5_d)">
<rect x="656" y="239" width="110" height="67" rx="8" fill="#E5FDE8"/>
<path d="M679.625 274.414L679.844 275.914L680.164 274.562L682.414 266.625H683.68L685.875 274.562L686.188 275.938L686.43 274.406L688.195 266.625H689.703L686.945 278H685.578L683.234 269.711L683.055 268.844L682.875 269.711L680.445 278H679.078L676.328 266.625H677.828L679.625 274.414ZM695.062 270.844C694.844 270.807 694.607 270.789 694.352 270.789C693.404 270.789 692.76 271.193 692.422 272V278H690.977V269.547H692.383L692.406 270.523C692.88 269.768 693.552 269.391 694.422 269.391C694.703 269.391 694.917 269.427 695.062 269.5V270.844ZM701.305 278C701.221 277.833 701.154 277.536 701.102 277.109C700.43 277.807 699.628 278.156 698.695 278.156C697.862 278.156 697.177 277.922 696.641 277.453C696.109 276.979 695.844 276.38 695.844 275.656C695.844 274.776 696.177 274.094 696.844 273.609C697.516 273.12 698.458 272.875 699.672 272.875H701.078V272.211C701.078 271.706 700.927 271.305 700.625 271.008C700.323 270.706 699.878 270.555 699.289 270.555C698.773 270.555 698.341 270.685 697.992 270.945C697.643 271.206 697.469 271.521 697.469 271.891H696.016C696.016 271.469 696.164 271.062 696.461 270.672C696.763 270.276 697.169 269.964 697.68 269.734C698.195 269.505 698.76 269.391 699.375 269.391C700.349 269.391 701.112 269.635 701.664 270.125C702.216 270.609 702.503 271.279 702.523 272.133V276.023C702.523 276.799 702.622 277.417 702.82 277.875V278H701.305ZM698.906 276.898C699.359 276.898 699.789 276.781 700.195 276.547C700.602 276.312 700.896 276.008 701.078 275.633V273.898H699.945C698.174 273.898 697.289 274.417 697.289 275.453C697.289 275.906 697.44 276.26 697.742 276.516C698.044 276.771 698.432 276.898 698.906 276.898ZM711.93 273.867C711.93 275.154 711.635 276.19 711.047 276.977C710.458 277.763 709.661 278.156 708.656 278.156C707.63 278.156 706.823 277.831 706.234 277.18V281.25H704.789V269.547H706.109L706.18 270.484C706.768 269.755 707.586 269.391 708.633 269.391C709.648 269.391 710.451 269.773 711.039 270.539C711.633 271.305 711.93 272.37 711.93 273.734V273.867ZM710.484 273.703C710.484 272.75 710.281 271.997 709.875 271.445C709.469 270.893 708.911 270.617 708.203 270.617C707.328 270.617 706.672 271.005 706.234 271.781V275.82C706.667 276.591 707.328 276.977 708.219 276.977C708.911 276.977 709.461 276.703 709.867 276.156C710.279 275.604 710.484 274.786 710.484 273.703ZM717.969 278V266.625H721.688C722.922 266.625 723.849 266.88 724.469 267.391C725.094 267.901 725.406 268.656 725.406 269.656C725.406 270.188 725.255 270.659 724.953 271.07C724.651 271.477 724.24 271.792 723.719 272.016C724.333 272.188 724.818 272.516 725.172 273C725.531 273.479 725.711 274.052 725.711 274.719C725.711 275.74 725.38 276.542 724.719 277.125C724.057 277.708 723.122 278 721.914 278H717.969ZM719.469 272.68V276.773H721.945C722.643 276.773 723.193 276.594 723.594 276.234C724 275.87 724.203 275.37 724.203 274.734C724.203 273.365 723.458 272.68 721.969 272.68H719.469ZM719.469 271.477H721.734C722.391 271.477 722.914 271.312 723.305 270.984C723.701 270.656 723.898 270.211 723.898 269.648C723.898 269.023 723.716 268.57 723.352 268.289C722.987 268.003 722.432 267.859 721.688 267.859H719.469V271.477ZM735.578 267.859H731.922V278H730.43V267.859H726.781V266.625H735.578V267.859ZM745.414 274.391C745.273 275.594 744.828 276.523 744.078 277.18C743.333 277.831 742.341 278.156 741.102 278.156C739.758 278.156 738.68 277.674 737.867 276.711C737.06 275.747 736.656 274.458 736.656 272.844V271.75C736.656 270.693 736.844 269.763 737.219 268.961C737.599 268.159 738.135 267.544 738.828 267.117C739.521 266.685 740.323 266.469 741.234 266.469C742.443 266.469 743.411 266.807 744.141 267.484C744.87 268.156 745.294 269.089 745.414 270.281H743.906C743.776 269.375 743.492 268.719 743.055 268.312C742.622 267.906 742.016 267.703 741.234 267.703C740.276 267.703 739.523 268.057 738.977 268.766C738.435 269.474 738.164 270.482 738.164 271.789V272.891C738.164 274.125 738.422 275.107 738.938 275.836C739.453 276.565 740.174 276.93 741.102 276.93C741.935 276.93 742.573 276.742 743.016 276.367C743.464 275.987 743.76 275.328 743.906 274.391H745.414Z" fill="#65BF73"/>
<rect x="656.5" y="239.5" width="109" height="66" rx="7.5" stroke="#65BF73"/>
</g>
<g filter="url(#filter6_d)">
<rect x="656" width="232" height="67" rx="8" fill="#E5FDE8"/>
<g clip-path="url(#clip1)">
<path d="M753.5 42C754.693 42 755.838 41.5259 756.682 40.682C757.526 39.8381 758 38.6935 758 37.5C758 36.3065 757.526 35.1619 756.682 34.318C755.838 33.4741 754.693 33 753.5 33C754.693 33 755.838 32.5259 756.682 31.682C757.526 30.8381 758 29.6935 758 28.5C758 27.3065 757.526 26.1619 756.682 25.318C755.838 24.4741 754.693 24 753.5 24H747.5V42H753.5Z" stroke="#65BF73" stroke-width="1.5" stroke-linecap="round" stroke-linejoin="round"/>
<path d="M747.5 33H753.874" stroke="#65BF73" stroke-width="1.5" stroke-linecap="round" stroke-linejoin="round"/>
<path d="M752 24V21" stroke="#65BF73" stroke-width="1.5" stroke-linecap="round" stroke-linejoin="round"/>
<path d="M752 45V42" stroke="#65BF73" stroke-width="1.5" stroke-linecap="round" stroke-linejoin="round"/>
</g>
<path d="M776.281 39V27.625H780C781.234 27.625 782.161 27.8802 782.781 28.3906C783.406 28.901 783.719 29.6562 783.719 30.6562C783.719 31.1875 783.568 31.6589 783.266 32.0703C782.964 32.4766 782.552 32.7917 782.031 33.0156C782.646 33.1875 783.13 33.5156 783.484 34C783.844 34.4792 784.023 35.0521 784.023 35.7188C784.023 36.7396 783.693 37.5417 783.031 38.125C782.37 38.7083 781.435 39 780.227 39H776.281ZM777.781 33.6797V37.7734H780.258C780.956 37.7734 781.505 37.5938 781.906 37.2344C782.312 36.8698 782.516 36.3698 782.516 35.7344C782.516 34.3646 781.771 33.6797 780.281 33.6797H777.781ZM777.781 32.4766H780.047C780.703 32.4766 781.227 32.3125 781.617 31.9844C782.013 31.6562 782.211 31.2109 782.211 30.6484C782.211 30.0234 782.029 29.5703 781.664 29.2891C781.299 29.0026 780.745 28.8594 780 28.8594H777.781V32.4766ZM785.641 34.6953C785.641 33.8672 785.802 33.1224 786.125 32.4609C786.453 31.7995 786.906 31.2891 787.484 30.9297C788.068 30.5703 788.732 30.3906 789.477 30.3906C790.628 30.3906 791.557 30.7891 792.266 31.5859C792.979 32.3828 793.336 33.4427 793.336 34.7656V34.8672C793.336 35.6901 793.177 36.4297 792.859 37.0859C792.547 37.737 792.096 38.2448 791.508 38.6094C790.924 38.974 790.253 39.1562 789.492 39.1562C788.346 39.1562 787.417 38.7578 786.703 37.9609C785.995 37.1641 785.641 36.1094 785.641 34.7969V34.6953ZM787.094 34.8672C787.094 35.8047 787.31 36.5573 787.742 37.125C788.18 37.6927 788.763 37.9766 789.492 37.9766C790.227 37.9766 790.81 37.6901 791.242 37.1172C791.674 36.5391 791.891 35.7318 791.891 34.6953C791.891 33.7682 791.669 33.0182 791.227 32.4453C790.789 31.8672 790.206 31.5781 789.477 31.5781C788.763 31.5781 788.188 31.862 787.75 32.4297C787.312 32.9974 787.094 33.8099 787.094 34.8672ZM802.305 34.8672C802.305 36.1589 802.008 37.1979 801.414 37.9844C800.82 38.7656 800.023 39.1562 799.023 39.1562C797.956 39.1562 797.13 38.7786 796.547 38.0234L796.477 39H795.148V27H796.594V31.4766C797.177 30.7526 797.982 30.3906 799.008 30.3906C800.034 30.3906 800.839 30.7786 801.422 31.5547C802.01 32.3307 802.305 33.3932 802.305 34.7422V34.8672ZM800.859 34.7031C800.859 33.7188 800.669 32.9583 800.289 32.4219C799.909 31.8854 799.362 31.6172 798.648 31.6172C797.695 31.6172 797.01 32.0599 796.594 32.9453V36.6016C797.036 37.487 797.727 37.9297 798.664 37.9297C799.357 37.9297 799.896 37.6615 800.281 37.125C800.667 36.5885 800.859 35.7812 800.859 34.7031Z" fill="#65BF73"/>
<rect x="656.5" y="0.5" width="231" height="66" rx="7.5" stroke="#65BF73"/>
</g>
<path d="M124.984 436.008L126.609 429.547H128.055L125.594 438H124.422L122.367 431.594L120.367 438H119.195L116.742 429.547H118.18L119.844 435.875L121.812 429.547H122.977L124.984 436.008ZM133.469 430.984L136.195 426.625H137.961L134.367 432.266L138.047 438H136.266L133.469 433.562L130.656 438H128.883L132.57 432.266L128.969 426.625H130.727L133.469 430.984ZM147.648 427.859H143.992V438H142.5V427.859H138.852V426.625H147.648V427.859ZM150.461 436.773H156.969V438H148.688V436.875L154.922 427.859H148.789V426.625H156.719V427.727L150.461 436.773Z" fill="#5452F6"/>
<path d="M309.219 390.5V392.547H310.797V393.664H309.219V398.906C309.219 399.245 309.289 399.5 309.43 399.672C309.57 399.839 309.81 399.922 310.148 399.922C310.315 399.922 310.544 399.891 310.836 399.828V401C310.456 401.104 310.086 401.156 309.727 401.156C309.081 401.156 308.594 400.961 308.266 400.57C307.938 400.18 307.773 399.625 307.773 398.906V393.664H306.234V392.547H307.773V390.5H309.219ZM313.852 399.82H318.797V401H312.086V399.938L316.75 393.742H312.156V392.547H318.562V393.57L313.852 399.82ZM320.656 401V389.625H324.375C325.609 389.625 326.536 389.88 327.156 390.391C327.781 390.901 328.094 391.656 328.094 392.656C328.094 393.188 327.943 393.659 327.641 394.07C327.339 394.477 326.927 394.792 326.406 395.016C327.021 395.188 327.505 395.516 327.859 396C328.219 396.479 328.398 397.052 328.398 397.719C328.398 398.74 328.068 399.542 327.406 400.125C326.745 400.708 325.81 401 324.602 401H320.656ZM322.156 395.68V399.773H324.633C325.331 399.773 325.88 399.594 326.281 399.234C326.688 398.87 326.891 398.37 326.891 397.734C326.891 396.365 326.146 395.68 324.656 395.68H322.156ZM322.156 394.477H324.422C325.078 394.477 325.602 394.312 325.992 393.984C326.388 393.656 326.586 393.211 326.586 392.648C326.586 392.023 326.404 391.57 326.039 391.289C325.674 391.003 325.12 390.859 324.375 390.859H322.156V394.477ZM338.266 390.859H334.609V401H333.117V390.859H329.469V389.625H338.266V390.859ZM348.102 397.391C347.961 398.594 347.516 399.523 346.766 400.18C346.021 400.831 345.029 401.156 343.789 401.156C342.445 401.156 341.367 400.674 340.555 399.711C339.747 398.747 339.344 397.458 339.344 395.844V394.75C339.344 393.693 339.531 392.763 339.906 391.961C340.286 391.159 340.823 390.544 341.516 390.117C342.208 389.685 343.01 389.469 343.922 389.469C345.13 389.469 346.099 389.807 346.828 390.484C347.557 391.156 347.982 392.089 348.102 393.281H346.594C346.464 392.375 346.18 391.719 345.742 391.312C345.31 390.906 344.703 390.703 343.922 390.703C342.964 390.703 342.211 391.057 341.664 391.766C341.122 392.474 340.852 393.482 340.852 394.789V395.891C340.852 397.125 341.109 398.107 341.625 398.836C342.141 399.565 342.862 399.93 343.789 399.93C344.622 399.93 345.26 399.742 345.703 399.367C346.151 398.987 346.448 398.328 346.594 397.391H348.102Z" fill="#DE1306"/>
<path d="M188.57 162V150.625H192.289C193.523 150.625 194.451 150.88 195.07 151.391C195.695 151.901 196.008 152.656 196.008 153.656C196.008 154.188 195.857 154.659 195.555 155.07C195.253 155.477 194.841 155.792 194.32 156.016C194.935 156.188 195.419 156.516 195.773 157C196.133 157.479 196.312 158.052 196.312 158.719C196.312 159.74 195.982 160.542 195.32 161.125C194.659 161.708 193.724 162 192.516 162H188.57ZM190.07 156.68V160.773H192.547C193.245 160.773 193.794 160.594 194.195 160.234C194.602 159.87 194.805 159.37 194.805 158.734C194.805 157.365 194.06 156.68 192.57 156.68H190.07ZM190.07 155.477H192.336C192.992 155.477 193.516 155.312 193.906 154.984C194.302 154.656 194.5 154.211 194.5 153.648C194.5 153.023 194.318 152.57 193.953 152.289C193.589 152.003 193.034 151.859 192.289 151.859H190.07V155.477ZM206.18 151.859H202.523V162H201.031V151.859H197.383V150.625H206.18V151.859ZM216.016 158.391C215.875 159.594 215.43 160.523 214.68 161.18C213.935 161.831 212.943 162.156 211.703 162.156C210.359 162.156 209.281 161.674 208.469 160.711C207.661 159.747 207.258 158.458 207.258 156.844V155.75C207.258 154.693 207.445 153.763 207.82 152.961C208.201 152.159 208.737 151.544 209.43 151.117C210.122 150.685 210.924 150.469 211.836 150.469C213.044 150.469 214.013 150.807 214.742 151.484C215.471 152.156 215.896 153.089 216.016 154.281H214.508C214.378 153.375 214.094 152.719 213.656 152.312C213.224 151.906 212.617 151.703 211.836 151.703C210.878 151.703 210.125 152.057 209.578 152.766C209.036 153.474 208.766 154.482 208.766 155.789V156.891C208.766 158.125 209.023 159.107 209.539 159.836C210.055 160.565 210.776 160.93 211.703 160.93C212.536 160.93 213.174 160.742 213.617 160.367C214.065 159.987 214.362 159.328 214.508 158.391H216.016Z" fill="#5452F6"/>
<path d="M20.4531 154.984L23.1797 150.625H24.9453L21.3516 156.266L25.0312 162H23.25L20.4531 157.562L17.6406 162H15.8672L19.5547 156.266L15.9531 150.625H17.7109L20.4531 154.984ZM34.6328 151.859H30.9766V162H29.4844V151.859H25.8359V150.625H34.6328V151.859ZM37.4453 160.773H43.9531V162H35.6719V160.875L41.9062 151.859H35.7734V150.625H43.7031V151.727L37.4453 160.773Z" fill="#5452F6"/>
<path d="M665.57 162V150.625H669.289C670.523 150.625 671.451 150.88 672.07 151.391C672.695 151.901 673.008 152.656 673.008 153.656C673.008 154.188 672.857 154.659 672.555 155.07C672.253 155.477 671.841 155.792 671.32 156.016C671.935 156.188 672.419 156.516 672.773 157C673.133 157.479 673.312 158.052 673.312 158.719C673.312 159.74 672.982 160.542 672.32 161.125C671.659 161.708 670.724 162 669.516 162H665.57ZM667.07 156.68V160.773H669.547C670.245 160.773 670.794 160.594 671.195 160.234C671.602 159.87 671.805 159.37 671.805 158.734C671.805 157.365 671.06 156.68 669.57 156.68H667.07ZM667.07 155.477H669.336C669.992 155.477 670.516 155.312 670.906 154.984C671.302 154.656 671.5 154.211 671.5 153.648C671.5 153.023 671.318 152.57 670.953 152.289C670.589 152.003 670.034 151.859 669.289 151.859H667.07V155.477ZM683.18 151.859H679.523V162H678.031V151.859H674.383V150.625H683.18V151.859ZM693.016 158.391C692.875 159.594 692.43 160.523 691.68 161.18C690.935 161.831 689.943 162.156 688.703 162.156C687.359 162.156 686.281 161.674 685.469 160.711C684.661 159.747 684.258 158.458 684.258 156.844V155.75C684.258 154.693 684.445 153.763 684.82 152.961C685.201 152.159 685.737 151.544 686.43 151.117C687.122 150.685 687.924 150.469 688.836 150.469C690.044 150.469 691.013 150.807 691.742 151.484C692.471 152.156 692.896 153.089 693.016 154.281H691.508C691.378 153.375 691.094 152.719 690.656 152.312C690.224 151.906 689.617 151.703 688.836 151.703C687.878 151.703 687.125 152.057 686.578 152.766C686.036 153.474 685.766 154.482 685.766 155.789V156.891C685.766 158.125 686.023 159.107 686.539 159.836C687.055 160.565 687.776 160.93 688.703 160.93C689.536 160.93 690.174 160.742 690.617 160.367C691.065 159.987 691.362 159.328 691.508 158.391H693.016Z" fill="#65BF73"/>
<path d="M854.453 154.984L857.18 150.625H858.945L855.352 156.266L859.031 162H857.25L854.453 157.562L851.641 162H849.867L853.555 156.266L849.953 150.625H851.711L854.453 154.984ZM868.633 151.859H864.977V162H863.484V151.859H859.836V150.625H868.633V151.859ZM871.445 160.773H877.953V162H869.672V160.875L875.906 151.859H869.773V150.625H877.703V151.727L871.445 160.773Z" fill="#65BF73"/>
<path d="M724.984 446.008L726.609 439.547H728.055L725.594 448H724.422L722.367 441.594L720.367 448H719.195L716.742 439.547H718.18L719.844 445.875L721.812 439.547H722.977L724.984 446.008ZM733.469 440.984L736.195 436.625H737.961L734.367 442.266L738.047 448H736.266L733.469 443.562L730.656 448H728.883L732.57 442.266L728.969 436.625H730.727L733.469 440.984ZM747.648 437.859H743.992V448H742.5V437.859H738.852V436.625H747.648V437.859ZM750.461 446.773H756.969V448H748.688V446.875L754.922 437.859H748.789V436.625H756.719V437.727L750.461 446.773Z" fill="#DE1306"/>
<path d="M556.219 371.5V373.547H557.797V374.664H556.219V379.906C556.219 380.245 556.289 380.5 556.43 380.672C556.57 380.839 556.81 380.922 557.148 380.922C557.315 380.922 557.544 380.891 557.836 380.828V382C557.456 382.104 557.086 382.156 556.727 382.156C556.081 382.156 555.594 381.961 555.266 381.57C554.938 381.18 554.773 380.625 554.773 379.906V374.664H553.234V373.547H554.773V371.5H556.219ZM560.852 380.82H565.797V382H559.086V380.938L563.75 374.742H559.156V373.547H565.562V374.57L560.852 380.82ZM567.656 382V370.625H571.375C572.609 370.625 573.536 370.88 574.156 371.391C574.781 371.901 575.094 372.656 575.094 373.656C575.094 374.188 574.943 374.659 574.641 375.07C574.339 375.477 573.927 375.792 573.406 376.016C574.021 376.188 574.505 376.516 574.859 377C575.219 377.479 575.398 378.052 575.398 378.719C575.398 379.74 575.068 380.542 574.406 381.125C573.745 381.708 572.81 382 571.602 382H567.656ZM569.156 376.68V380.773H571.633C572.331 380.773 572.88 380.594 573.281 380.234C573.688 379.87 573.891 379.37 573.891 378.734C573.891 377.365 573.146 376.68 571.656 376.68H569.156ZM569.156 375.477H571.422C572.078 375.477 572.602 375.312 572.992 374.984C573.388 374.656 573.586 374.211 573.586 373.648C573.586 373.023 573.404 372.57 573.039 372.289C572.674 372.003 572.12 371.859 571.375 371.859H569.156V375.477ZM585.266 371.859H581.609V382H580.117V371.859H576.469V370.625H585.266V371.859ZM595.102 378.391C594.961 379.594 594.516 380.523 593.766 381.18C593.021 381.831 592.029 382.156 590.789 382.156C589.445 382.156 588.367 381.674 587.555 380.711C586.747 379.747 586.344 378.458 586.344 376.844V375.75C586.344 374.693 586.531 373.763 586.906 372.961C587.286 372.159 587.823 371.544 588.516 371.117C589.208 370.685 590.01 370.469 590.922 370.469C592.13 370.469 593.099 370.807 593.828 371.484C594.557 372.156 594.982 373.089 595.102 374.281H593.594C593.464 373.375 593.18 372.719 592.742 372.312C592.31 371.906 591.703 371.703 590.922 371.703C589.964 371.703 589.211 372.057 588.664 372.766C588.122 373.474 587.852 374.482 587.852 375.789V376.891C587.852 378.125 588.109 379.107 588.625 379.836C589.141 380.565 589.862 380.93 590.789 380.93C591.622 380.93 592.26 380.742 592.703 380.367C593.151 379.987 593.448 379.328 593.594 378.391H595.102Z" fill="#65BF73"/>
<defs>
<filter id="filter0_d" x="0" y="239" width="114" height="71" filterUnits="userSpaceOnUse" color-interpolation-filters="sRGB">
<feFlood flood-opacity="0" result="BackgroundImageFix"/>
<feColorMatrix in="SourceAlpha" type="matrix" values="0 0 0 0 0 0 0 0 0 0 0 0 0 0 0 0 0 0 127 0"/>
<feOffset dx="4" dy="4"/>
<feColorMatrix type="matrix" values="0 0 0 0 0.674908 0 0 0 0 0.662083 0 0 0 0 0.945833 0 0 0 1 0"/>
<feBlend mode="normal" in2="BackgroundImageFix" result="effect1_dropShadow"/>
<feBlend mode="normal" in="SourceGraphic" in2="effect1_dropShadow" result="shape"/>
</filter>
<filter id="filter1_d" x="120" y="239" width="114" height="71" filterUnits="userSpaceOnUse" color-interpolation-filters="sRGB">
<feFlood flood-opacity="0" result="BackgroundImageFix"/>
<feColorMatrix in="SourceAlpha" type="matrix" values="0 0 0 0 0 0 0 0 0 0 0 0 0 0 0 0 0 0 127 0"/>
<feOffset dx="4" dy="4"/>
<feColorMatrix type="matrix" values="0 0 0 0 0.674908 0 0 0 0 0.662083 0 0 0 0 0.945833 0 0 0 1 0"/>
<feBlend mode="normal" in2="BackgroundImageFix" result="effect1_dropShadow"/>
<feBlend mode="normal" in="SourceGraphic" in2="effect1_dropShadow" result="shape"/>
</filter>
<filter id="filter2_d" x="0" y="0" width="234" height="71" filterUnits="userSpaceOnUse" color-interpolation-filters="sRGB">
<feFlood flood-opacity="0" result="BackgroundImageFix"/>
<feColorMatrix in="SourceAlpha" type="matrix" values="0 0 0 0 0 0 0 0 0 0 0 0 0 0 0 0 0 0 127 0"/>
<feOffset dx="4" dy="4"/>
<feColorMatrix type="matrix" values="0 0 0 0 0.674908 0 0 0 0 0.662083 0 0 0 0 0.945833 0 0 0 1 0"/>
<feBlend mode="normal" in2="BackgroundImageFix" result="effect1_dropShadow"/>
<feBlend mode="normal" in="SourceGraphic" in2="effect1_dropShadow" result="shape"/>
</filter>
<filter id="filter3_d" x="306" y="478" width="283" height="72" filterUnits="userSpaceOnUse" color-interpolation-filters="sRGB">
<feFlood flood-opacity="0" result="BackgroundImageFix"/>
<feColorMatrix in="SourceAlpha" type="matrix" values="0 0 0 0 0 0 0 0 0 0 0 0 0 0 0 0 0 0 127 0"/>
<feOffset dx="4" dy="4"/>
<feColorMatrix type="matrix" values="0 0 0 0 0.952941 0 0 0 0 0.639216 0 0 0 0 0.619608 0 0 0 1 0"/>
<feBlend mode="normal" in2="BackgroundImageFix" result="effect1_dropShadow"/>
<feBlend mode="normal" in="SourceGraphic" in2="effect1_dropShadow" result="shape"/>
</filter>
<filter id="filter4_d" x="778" y="239" width="114" height="71" filterUnits="userSpaceOnUse" color-interpolation-filters="sRGB">
<feFlood flood-opacity="0" result="BackgroundImageFix"/>
<feColorMatrix in="SourceAlpha" type="matrix" values="0 0 0 0 0 0 0 0 0 0 0 0 0 0 0 0 0 0 127 0"/>
<feOffset dx="4" dy="4"/>
<feColorMatrix type="matrix" values="0 0 0 0 0.576471 0 0 0 0 0.776471 0 0 0 0 0.607843 0 0 0 1 0"/>
<feBlend mode="normal" in2="BackgroundImageFix" result="effect1_dropShadow"/>
<feBlend mode="normal" in="SourceGraphic" in2="effect1_dropShadow" result="shape"/>
</filter>
<filter id="filter5_d" x="656" y="239" width="114" height="71" filterUnits="userSpaceOnUse" color-interpolation-filters="sRGB">
<feFlood flood-opacity="0" result="BackgroundImageFix"/>
<feColorMatrix in="SourceAlpha" type="matrix" values="0 0 0 0 0 0 0 0 0 0 0 0 0 0 0 0 0 0 127 0"/>
<feOffset dx="4" dy="4"/>
<feColorMatrix type="matrix" values="0 0 0 0 0.576471 0 0 0 0 0.776471 0 0 0 0 0.607843 0 0 0 1 0"/>
<feBlend mode="normal" in2="BackgroundImageFix" result="effect1_dropShadow"/>
<feBlend mode="normal" in="SourceGraphic" in2="effect1_dropShadow" result="shape"/>
</filter>
<filter id="filter6_d" x="656" y="0" width="236" height="71" filterUnits="userSpaceOnUse" color-interpolation-filters="sRGB">
<feFlood flood-opacity="0" result="BackgroundImageFix"/>
<feColorMatrix in="SourceAlpha" type="matrix" values="0 0 0 0 0 0 0 0 0 0 0 0 0 0 0 0 0 0 127 0"/>
<feOffset dx="4" dy="4"/>
<feColorMatrix type="matrix" values="0 0 0 0 0.576471 0 0 0 0 0.776471 0 0 0 0 0.607843 0 0 0 1 0"/>
<feBlend mode="normal" in2="BackgroundImageFix" result="effect1_dropShadow"/>
<feBlend mode="normal" in="SourceGraphic" in2="effect1_dropShadow" result="shape"/>
</filter>
<clipPath id="clip0">
<rect width="24" height="24" fill="white" transform="translate(413.5 500)"/>
</clipPath>
<clipPath id="clip1">
<rect width="24" height="24" fill="white" transform="translate(740.5 21.5)"/>
</clipPath>
</defs>
</svg>
