<svg width="177" height="106" viewBox="0 0 177 106" fill="none" xmlns="http://www.w3.org/2000/svg">
<g filter="url(#filter0_d)">
<rect y="0.121094" width="173" height="101" rx="8" fill="white"/>
<path d="M54.5703 31.8633H49.6406V35.8945H55.3672V37.1211H48.1406V25.7461H55.2891V26.9805H49.6406V30.6367H54.5703V31.8633ZM58.5781 37.1211H57.1328V25.1211H58.5781V37.1211ZM62.8594 26.6211V28.668H64.4375V29.7852H62.8594V35.0273C62.8594 35.3659 62.9297 35.6211 63.0703 35.793C63.2109 35.9596 63.4505 36.043 63.7891 36.043C63.9557 36.043 64.1849 36.0117 64.4766 35.9492V37.1211C64.0964 37.2253 63.7266 37.2773 63.3672 37.2773C62.7214 37.2773 62.2344 37.082 61.9062 36.6914C61.5781 36.3008 61.4141 35.7461 61.4141 35.0273V29.7852H59.875V28.668H61.4141V26.6211H62.8594ZM71.1797 24.9727L72.0078 25.5352C71.5234 26.1966 71.2734 26.9102 71.2578 27.6758V28.7383H69.8203V27.832C69.8203 27.3008 69.9453 26.7747 70.1953 26.2539C70.4505 25.7331 70.7786 25.306 71.1797 24.9727ZM73.6406 24.9727L74.4688 25.5352C73.9844 26.1966 73.7344 26.9102 73.7188 27.6758V28.7383H72.2812V27.832C72.2812 27.3008 72.4062 26.7747 72.6562 26.2539C72.9115 25.7331 73.2396 25.306 73.6406 24.9727ZM80.5859 37.1211C80.5026 36.9544 80.4349 36.6576 80.3828 36.2305C79.7109 36.9284 78.9089 37.2773 77.9766 37.2773C77.1432 37.2773 76.4583 37.043 75.9219 36.5742C75.3906 36.1003 75.125 35.5013 75.125 34.7773C75.125 33.8971 75.4583 33.2148 76.125 32.7305C76.7969 32.2409 77.7396 31.9961 78.9531 31.9961H80.3594V31.332C80.3594 30.8268 80.2083 30.4258 79.9062 30.1289C79.6042 29.8268 79.1589 29.6758 78.5703 29.6758C78.0547 29.6758 77.6224 29.806 77.2734 30.0664C76.9245 30.3268 76.75 30.6419 76.75 31.0117H75.2969C75.2969 30.5898 75.4453 30.1836 75.7422 29.793C76.0443 29.3971 76.4505 29.0846 76.9609 28.8555C77.4766 28.6263 78.0417 28.5117 78.6562 28.5117C79.6302 28.5117 80.3932 28.7565 80.9453 29.2461C81.4974 29.7305 81.7839 30.3997 81.8047 31.2539V35.1445C81.8047 35.9206 81.9036 36.5378 82.1016 36.9961V37.1211H80.5859ZM78.1875 36.0195C78.6406 36.0195 79.0703 35.9023 79.4766 35.668C79.8828 35.4336 80.1771 35.1289 80.3594 34.7539V33.0195H79.2266C77.4557 33.0195 76.5703 33.5378 76.5703 34.5742C76.5703 35.0273 76.7214 35.3815 77.0234 35.6367C77.3255 35.8919 77.7135 36.0195 78.1875 36.0195ZM85.6406 37.1211H84.1953V25.1211H85.6406V37.1211ZM89.5312 37.1211H88.0859V28.668H89.5312V37.1211ZM87.9688 26.4258C87.9688 26.1914 88.0391 25.9935 88.1797 25.832C88.3255 25.6706 88.5391 25.5898 88.8203 25.5898C89.1016 25.5898 89.3151 25.6706 89.4609 25.832C89.6068 25.9935 89.6797 26.1914 89.6797 26.4258C89.6797 26.6602 89.6068 26.8555 89.4609 27.0117C89.3151 27.168 89.1016 27.2461 88.8203 27.2461C88.5391 27.2461 88.3255 27.168 88.1797 27.0117C88.0391 26.8555 87.9688 26.6602 87.9688 26.4258ZM95.2422 36.0977C95.7578 36.0977 96.2083 35.9414 96.5938 35.6289C96.9792 35.3164 97.1927 34.9258 97.2344 34.457H98.6016C98.5755 34.9414 98.4089 35.4023 98.1016 35.8398C97.7943 36.2773 97.3828 36.6263 96.8672 36.8867C96.3568 37.1471 95.8151 37.2773 95.2422 37.2773C94.0911 37.2773 93.1745 36.8945 92.4922 36.1289C91.8151 35.3581 91.4766 34.306 91.4766 32.9727V32.7305C91.4766 31.9076 91.6276 31.1758 91.9297 30.5352C92.2318 29.8945 92.6641 29.3971 93.2266 29.043C93.7943 28.6888 94.4635 28.5117 95.2344 28.5117C96.1823 28.5117 96.9688 28.7956 97.5938 29.3633C98.224 29.931 98.5599 30.668 98.6016 31.5742H97.2344C97.1927 31.0273 96.9844 30.5794 96.6094 30.2305C96.2396 29.8763 95.7812 29.6992 95.2344 29.6992C94.5 29.6992 93.9297 29.9648 93.5234 30.4961C93.1224 31.0221 92.9219 31.7852 92.9219 32.7852V33.0586C92.9219 34.0326 93.1224 34.7826 93.5234 35.3086C93.9245 35.8346 94.4974 36.0977 95.2422 36.0977ZM103.734 37.2773C102.589 37.2773 101.656 36.9023 100.938 36.1523C100.219 35.3971 99.8594 34.3893 99.8594 33.1289V32.8633C99.8594 32.0247 100.018 31.2773 100.336 30.6211C100.659 29.9596 101.107 29.444 101.68 29.0742C102.258 28.6992 102.883 28.5117 103.555 28.5117C104.654 28.5117 105.508 28.8737 106.117 29.5977C106.727 30.3216 107.031 31.3581 107.031 32.707V33.3086H101.305C101.326 34.1419 101.568 34.8164 102.031 35.332C102.5 35.8424 103.094 36.0977 103.812 36.0977C104.323 36.0977 104.755 35.9935 105.109 35.7852C105.464 35.5768 105.773 35.3008 106.039 34.957L106.922 35.6445C106.214 36.7331 105.151 37.2773 103.734 37.2773ZM103.555 29.6992C102.971 29.6992 102.482 29.9128 102.086 30.3398C101.69 30.7617 101.445 31.3555 101.352 32.1211H105.586V32.0117C105.544 31.2773 105.346 30.7096 104.992 30.3086C104.638 29.9023 104.159 29.6992 103.555 29.6992ZM108.797 28.9492L107.977 28.3867C108.461 27.7096 108.711 26.9961 108.727 26.2461V25.1211H110.156V26.1367C110.151 26.6576 110.021 27.1784 109.766 27.6992C109.516 28.2148 109.193 28.6315 108.797 28.9492ZM111.195 28.9492L110.375 28.3867C110.859 27.7096 111.109 26.9961 111.125 26.2461V25.1211H112.555V26.1367C112.549 26.6576 112.419 27.1784 112.164 27.6992C111.914 28.2148 111.591 28.6315 111.195 28.9492ZM125.594 37.1211H118.141V36.082L122.078 31.707C122.661 31.0456 123.062 30.5091 123.281 30.0977C123.505 29.681 123.617 29.2513 123.617 28.8086C123.617 28.2148 123.438 27.7279 123.078 27.3477C122.719 26.9674 122.24 26.7773 121.641 26.7773C120.922 26.7773 120.362 26.9831 119.961 27.3945C119.565 27.8008 119.367 28.3685 119.367 29.0977H117.922C117.922 28.0508 118.258 27.2044 118.93 26.5586C119.607 25.9128 120.51 25.5898 121.641 25.5898C122.698 25.5898 123.534 25.8685 124.148 26.4258C124.763 26.9779 125.07 27.7148 125.07 28.6367C125.07 29.7565 124.357 31.0898 122.93 32.6367L119.883 35.9414H125.594V37.1211ZM55.5781 50.8633H50.6484V54.8945H56.375V56.1211H49.1484V44.7461H56.2969V45.9805H50.6484V49.6367H55.5781V50.8633ZM59.5859 56.1211H58.1406V44.1211H59.5859V56.1211ZM63.8672 45.6211V47.668H65.4453V48.7852H63.8672V54.0273C63.8672 54.3659 63.9375 54.6211 64.0781 54.793C64.2188 54.9596 64.4583 55.043 64.7969 55.043C64.9635 55.043 65.1927 55.0117 65.4844 54.9492V56.1211C65.1042 56.2253 64.7344 56.2773 64.375 56.2773C63.7292 56.2773 63.2422 56.082 62.9141 55.6914C62.5859 55.3008 62.4219 54.7461 62.4219 54.0273V48.7852H60.8828V47.668H62.4219V45.6211H63.8672ZM72.1875 43.9727L73.0156 44.5352C72.5312 45.1966 72.2812 45.9102 72.2656 46.6758V47.7383H70.8281V46.832C70.8281 46.3008 70.9531 45.7747 71.2031 45.2539C71.4583 44.7331 71.7865 44.306 72.1875 43.9727ZM74.6484 43.9727L75.4766 44.5352C74.9922 45.1966 74.7422 45.9102 74.7266 46.6758V47.7383H73.2891V46.832C73.2891 46.3008 73.4141 45.7747 73.6641 45.2539C73.9193 44.7331 74.2474 44.306 74.6484 43.9727ZM83.9219 51.9883C83.9219 53.2799 83.625 54.319 83.0312 55.1055C82.4375 55.8867 81.6406 56.2773 80.6406 56.2773C79.5729 56.2773 78.7474 55.8997 78.1641 55.1445L78.0938 56.1211H76.7656V44.1211H78.2109V48.5977C78.7943 47.8737 79.599 47.5117 80.625 47.5117C81.651 47.5117 82.4557 47.8997 83.0391 48.6758C83.6276 49.4518 83.9219 50.5143 83.9219 51.8633V51.9883ZM82.4766 51.8242C82.4766 50.8398 82.2865 50.0794 81.9062 49.543C81.526 49.0065 80.9792 48.7383 80.2656 48.7383C79.3125 48.7383 78.6276 49.181 78.2109 50.0664V53.7227C78.6536 54.6081 79.3438 55.0508 80.2812 55.0508C80.974 55.0508 81.513 54.7826 81.8984 54.2461C82.2839 53.7096 82.4766 52.9023 82.4766 51.8242ZM85.3672 51.8164C85.3672 50.9883 85.5286 50.2435 85.8516 49.582C86.1797 48.9206 86.6328 48.4102 87.2109 48.0508C87.7943 47.6914 88.4583 47.5117 89.2031 47.5117C90.3542 47.5117 91.2839 47.9102 91.9922 48.707C92.7057 49.5039 93.0625 50.5638 93.0625 51.8867V51.9883C93.0625 52.8112 92.9036 53.5508 92.5859 54.207C92.2734 54.8581 91.8229 55.3659 91.2344 55.7305C90.651 56.0951 89.9792 56.2773 89.2188 56.2773C88.0729 56.2773 87.1432 55.8789 86.4297 55.082C85.7214 54.2852 85.3672 53.2305 85.3672 51.918V51.8164ZM86.8203 51.9883C86.8203 52.9258 87.0365 53.6784 87.4688 54.2461C87.9062 54.8138 88.4896 55.0977 89.2188 55.0977C89.9531 55.0977 90.5365 54.8112 90.9688 54.2383C91.401 53.6602 91.6172 52.8529 91.6172 51.8164C91.6172 50.8893 91.3958 50.1393 90.9531 49.5664C90.5156 48.9883 89.9323 48.6992 89.2031 48.6992C88.4896 48.6992 87.9141 48.9831 87.4766 49.5508C87.0391 50.1185 86.8203 50.931 86.8203 51.9883ZM102.031 51.9883C102.031 53.2799 101.734 54.319 101.141 55.1055C100.547 55.8867 99.75 56.2773 98.75 56.2773C97.6823 56.2773 96.8568 55.8997 96.2734 55.1445L96.2031 56.1211H94.875V44.1211H96.3203V48.5977C96.9036 47.8737 97.7083 47.5117 98.7344 47.5117C99.7604 47.5117 100.565 47.8997 101.148 48.6758C101.737 49.4518 102.031 50.5143 102.031 51.8633V51.9883ZM100.586 51.8242C100.586 50.8398 100.396 50.0794 100.016 49.543C99.6354 49.0065 99.0885 48.7383 98.375 48.7383C97.4219 48.7383 96.737 49.181 96.3203 50.0664V53.7227C96.763 54.6081 97.4531 55.0508 98.3906 55.0508C99.0833 55.0508 99.6224 54.7826 100.008 54.2461C100.393 53.7096 100.586 52.9023 100.586 51.8242ZM103.82 47.9492L103 47.3867C103.484 46.7096 103.734 45.9961 103.75 45.2461V44.1211H105.18V45.1367C105.174 45.6576 105.044 46.1784 104.789 46.6992C104.539 47.2148 104.216 47.6315 103.82 47.9492ZM106.219 47.9492L105.398 47.3867C105.883 46.7096 106.133 45.9961 106.148 45.2461V44.1211H107.578V45.1367C107.573 45.6576 107.443 46.1784 107.188 46.6992C106.938 47.2148 106.615 47.6315 106.219 47.9492ZM123.234 52.3008H124.812V53.4805H123.234V56.1211H121.781V53.4805H116.602V52.6289L121.695 44.7461H123.234V52.3008ZM118.242 52.3008H121.781V46.7227L121.609 47.0352L118.242 52.3008ZM54.0234 69.8633H49.0938V73.8945H54.8203V75.1211H47.5938V63.7461H54.7422V64.9805H49.0938V68.6367H54.0234V69.8633ZM58.0312 75.1211H56.5859V63.1211H58.0312V75.1211ZM62.3125 64.6211V66.668H63.8906V67.7852H62.3125V73.0273C62.3125 73.3659 62.3828 73.6211 62.5234 73.793C62.6641 73.9596 62.9036 74.043 63.2422 74.043C63.4089 74.043 63.638 74.0117 63.9297 73.9492V75.1211C63.5495 75.2253 63.1797 75.2773 62.8203 75.2773C62.1745 75.2773 61.6875 75.082 61.3594 74.6914C61.0312 74.3008 60.8672 73.7461 60.8672 73.0273V67.7852H59.3281V66.668H60.8672V64.6211H62.3125ZM70.6328 62.9727L71.4609 63.5352C70.9766 64.1966 70.7266 64.9102 70.7109 65.6758V66.7383H69.2734V65.832C69.2734 65.3008 69.3984 64.7747 69.6484 64.2539C69.9036 63.7331 70.2318 63.306 70.6328 62.9727ZM73.0938 62.9727L73.9219 63.5352C73.4375 64.1966 73.1875 64.9102 73.1719 65.6758V66.7383H71.7344V65.832C71.7344 65.3008 71.8594 64.7747 72.1094 64.2539C72.3646 63.7331 72.6927 63.306 73.0938 62.9727ZM78.1328 74.0977C78.6484 74.0977 79.099 73.9414 79.4844 73.6289C79.8698 73.3164 80.0833 72.9258 80.125 72.457H81.4922C81.4661 72.9414 81.2995 73.4023 80.9922 73.8398C80.6849 74.2773 80.2734 74.6263 79.7578 74.8867C79.2474 75.1471 78.7057 75.2773 78.1328 75.2773C76.9818 75.2773 76.0651 74.8945 75.3828 74.1289C74.7057 73.3581 74.3672 72.306 74.3672 70.9727V70.7305C74.3672 69.9076 74.5182 69.1758 74.8203 68.5352C75.1224 67.8945 75.5547 67.3971 76.1172 67.043C76.6849 66.6888 77.3542 66.5117 78.125 66.5117C79.0729 66.5117 79.8594 66.7956 80.4844 67.3633C81.1146 67.931 81.4505 68.668 81.4922 69.5742H80.125C80.0833 69.0273 79.875 68.5794 79.5 68.2305C79.1302 67.8763 78.6719 67.6992 78.125 67.6992C77.3906 67.6992 76.8203 67.9648 76.4141 68.4961C76.013 69.0221 75.8125 69.7852 75.8125 70.7852V71.0586C75.8125 72.0326 76.013 72.7826 76.4141 73.3086C76.8151 73.8346 77.388 74.0977 78.1328 74.0977ZM88.3359 75.1211C88.2526 74.9544 88.1849 74.6576 88.1328 74.2305C87.4609 74.9284 86.6589 75.2773 85.7266 75.2773C84.8932 75.2773 84.2083 75.043 83.6719 74.5742C83.1406 74.1003 82.875 73.5013 82.875 72.7773C82.875 71.8971 83.2083 71.2148 83.875 70.7305C84.5469 70.2409 85.4896 69.9961 86.7031 69.9961H88.1094V69.332C88.1094 68.8268 87.9583 68.4258 87.6562 68.1289C87.3542 67.8268 86.9089 67.6758 86.3203 67.6758C85.8047 67.6758 85.3724 67.806 85.0234 68.0664C84.6745 68.3268 84.5 68.6419 84.5 69.0117H83.0469C83.0469 68.5898 83.1953 68.1836 83.4922 67.793C83.7943 67.3971 84.2005 67.0846 84.7109 66.8555C85.2266 66.6263 85.7917 66.5117 86.4062 66.5117C87.3802 66.5117 88.1432 66.7565 88.6953 67.2461C89.2474 67.7305 89.5339 68.3997 89.5547 69.2539V73.1445C89.5547 73.9206 89.6536 74.5378 89.8516 74.9961V75.1211H88.3359ZM85.9375 74.0195C86.3906 74.0195 86.8203 73.9023 87.2266 73.668C87.6328 73.4336 87.9271 73.1289 88.1094 72.7539V71.0195H86.9766C85.2057 71.0195 84.3203 71.5378 84.3203 72.5742C84.3203 73.0273 84.4714 73.3815 84.7734 73.6367C85.0755 73.8919 85.4635 74.0195 85.9375 74.0195ZM95.9062 67.9648C95.6875 67.9284 95.4505 67.9102 95.1953 67.9102C94.2474 67.9102 93.6042 68.3138 93.2656 69.1211V75.1211H91.8203V66.668H93.2266L93.25 67.6445C93.724 66.8893 94.3958 66.5117 95.2656 66.5117C95.5469 66.5117 95.7604 66.5482 95.9062 66.6211V67.9648ZM98.8125 75.1211H97.3672V66.668H98.8125V75.1211ZM97.25 64.4258C97.25 64.1914 97.3203 63.9935 97.4609 63.832C97.6068 63.6706 97.8203 63.5898 98.1016 63.5898C98.3828 63.5898 98.5964 63.6706 98.7422 63.832C98.888 63.9935 98.9609 64.1914 98.9609 64.4258C98.9609 64.6602 98.888 64.8555 98.7422 65.0117C98.5964 65.168 98.3828 65.2461 98.1016 65.2461C97.8203 65.2461 97.6068 65.168 97.4609 65.0117C97.3203 64.8555 97.25 64.6602 97.25 64.4258ZM102.5 66.668L102.547 67.7305C103.193 66.918 104.036 66.5117 105.078 66.5117C106.865 66.5117 107.766 67.5195 107.781 69.5352V75.1211H106.336V69.5273C106.331 68.918 106.19 68.4674 105.914 68.1758C105.643 67.8841 105.219 67.7383 104.641 67.7383C104.172 67.7383 103.76 67.8633 103.406 68.1133C103.052 68.3633 102.776 68.6914 102.578 69.0977V75.1211H101.133V66.668H102.5ZM109.344 66.9492L108.523 66.3867C109.008 65.7096 109.258 64.9961 109.273 64.2461V63.1211H110.703V64.1367C110.698 64.6576 110.568 65.1784 110.312 65.6992C110.062 66.2148 109.74 66.6315 109.344 66.9492ZM111.742 66.9492L110.922 66.3867C111.406 65.7096 111.656 64.9961 111.672 64.2461V63.1211H113.102V64.1367C113.096 64.6576 112.966 65.1784 112.711 65.6992C112.461 66.2148 112.138 66.6315 111.742 66.9492ZM120.789 68.7305H121.875C122.557 68.7201 123.094 68.5404 123.484 68.1914C123.875 67.8424 124.07 67.3711 124.07 66.7773C124.07 65.444 123.406 64.7773 122.078 64.7773C121.453 64.7773 120.953 64.957 120.578 65.3164C120.208 65.6706 120.023 66.1419 120.023 66.7305H118.578C118.578 65.8294 118.906 65.082 119.562 64.4883C120.224 63.8893 121.062 63.5898 122.078 63.5898C123.151 63.5898 123.992 63.8737 124.602 64.4414C125.211 65.0091 125.516 65.7982 125.516 66.8086C125.516 67.3034 125.354 67.7826 125.031 68.2461C124.714 68.7096 124.279 69.056 123.727 69.2852C124.352 69.4831 124.833 69.8112 125.172 70.2695C125.516 70.7279 125.688 71.2878 125.688 71.9492C125.688 72.9701 125.354 73.7799 124.688 74.3789C124.021 74.9779 123.154 75.2773 122.086 75.2773C121.018 75.2773 120.148 74.9883 119.477 74.4102C118.81 73.832 118.477 73.069 118.477 72.1211H119.93C119.93 72.7201 120.125 73.1992 120.516 73.5586C120.906 73.918 121.43 74.0977 122.086 74.0977C122.784 74.0977 123.318 73.9154 123.688 73.5508C124.057 73.1862 124.242 72.6628 124.242 71.9805C124.242 71.319 124.039 70.8112 123.633 70.457C123.227 70.1029 122.641 69.9206 121.875 69.9102H120.789V68.7305Z" fill="#65BF73"/>
<rect x="0.5" y="0.621094" width="172" height="100" rx="7.5" stroke="#65BF73"/>
</g>
<defs>
<filter id="filter0_d" x="0" y="0.121094" width="177" height="105" filterUnits="userSpaceOnUse" color-interpolation-filters="sRGB">
<feFlood flood-opacity="0" result="BackgroundImageFix"/>
<feColorMatrix in="SourceAlpha" type="matrix" values="0 0 0 0 0 0 0 0 0 0 0 0 0 0 0 0 0 0 127 0"/>
<feOffset dx="4" dy="4"/>
<feColorMatrix type="matrix" values="0 0 0 0 0.576471 0 0 0 0 0.776471 0 0 0 0 0.607843 0 0 0 1 0"/>
<feBlend mode="normal" in2="BackgroundImageFix" result="effect1_dropShadow"/>
<feBlend mode="normal" in="SourceGraphic" in2="effect1_dropShadow" result="shape"/>
</filter>
</defs>
</svg>
