<svg width="24" height="24" viewBox="0 0 24 24" fill="none" xmlns="http://www.w3.org/2000/svg">
<path d="M4.5 12C4.5 12 7.5 7.5 12 7.5C16.5 7.5 19.5 12 19.5 12C19.5 12 16.5 16.5 12 16.5C7.5 16.5 4.5 12 4.5 12Z" stroke="white" stroke-width="1.5" stroke-linecap="round" stroke-linejoin="round"/>
<path d="M13.875 12C13.875 10.9645 13.0355 10.125 12 10.125C10.9645 10.125 10.125 10.9645 10.125 12C10.125 13.0355 10.9645 13.875 12 13.875C13.0355 13.875 13.875 13.0355 13.875 12Z" stroke="white" stroke-width="1.5" stroke-linecap="round" stroke-linejoin="round"/>
<path d="M0.75 4.5V2.25C0.75 1.85218 0.908035 1.47064 1.18934 1.18934C1.47064 0.908035 1.85218 0.75 2.25 0.75H4.5" stroke="white" stroke-width="1.5" stroke-linecap="round" stroke-linejoin="round"/>
<path d="M23.25 4.5V2.25C23.25 1.85218 23.092 1.47064 22.8107 1.18934C22.5294 0.908035 22.1478 0.75 21.75 0.75H19.5" stroke="white" stroke-width="1.5" stroke-linecap="round" stroke-linejoin="round"/>
<path d="M0.75 19.5V21.75C0.75 22.1478 0.908035 22.5294 1.18934 22.8107C1.47064 23.092 1.85218 23.25 2.25 23.25H4.5" stroke="white" stroke-width="1.5" stroke-linecap="round" stroke-linejoin="round"/>
<path d="M23.25 19.5V21.75C23.25 22.1478 23.092 22.5294 22.8107 22.8107C22.5294 23.092 22.1478 23.25 21.75 23.25H19.5" stroke="white" stroke-width="1.5" stroke-linecap="round" stroke-linejoin="round"/>
</svg>
