<svg width="24" height="24" viewBox="0 0 24 24" fill="none" xmlns="http://www.w3.org/2000/svg">
<path d="M19.4831 20.2L18.0531 22.531C17.919 22.7498 17.731 22.9305 17.5071 23.0559C17.2831 23.1812 17.0308 23.247 16.7741 23.247H7.41114C7.15451 23.247 6.90216 23.1812 6.67823 23.0559C6.4543 22.9305 6.26628 22.7498 6.13214 22.531L4.72314 20.231" stroke="white" stroke-width="1.5" stroke-linecap="round" stroke-linejoin="round"/>
<path d="M21.9502 18.684C22.1287 18.5477 22.2704 18.3691 22.3624 18.1643C22.4544 17.9595 22.4939 17.7349 22.4772 17.511C22.0192 13.2 17.5002 9.821 12.0002 9.821C6.50024 9.821 1.98124 13.2 1.52324 17.511C1.5066 17.7349 1.54608 17.9595 1.6381 18.1643C1.73012 18.3691 1.87178 18.5477 2.05024 18.684L3.23924 19.636C3.73586 20.0336 4.35307 20.2502 4.98924 20.2502C5.62542 20.2502 6.24263 20.0336 6.73924 19.636C7.23631 19.2394 7.85335 19.0234 8.48924 19.0234C9.12514 19.0234 9.74217 19.2394 10.2392 19.636V19.636C10.7363 20.0326 11.3534 20.2486 11.9892 20.2486C12.6251 20.2486 13.2422 20.0326 13.7392 19.636V19.636C14.2363 19.2394 14.8534 19.0234 15.4892 19.0234C16.1251 19.0234 16.7422 19.2394 17.2392 19.636C17.7359 20.0336 18.3531 20.2502 18.9892 20.2502C19.6254 20.2502 20.2426 20.0336 20.7392 19.636L21.9502 18.684Z" stroke="white" stroke-width="1.5" stroke-linecap="round" stroke-linejoin="round"/>
<path d="M12.017 14.25L12 12.714" stroke="white" stroke-width="1.5" stroke-linecap="round" stroke-linejoin="round"/>
<path d="M15.7329 14.25L14.9829 12.75" stroke="white" stroke-width="1.5" stroke-linecap="round" stroke-linejoin="round"/>
<path d="M8.23291 14.25L8.98291 12.75" stroke="white" stroke-width="1.5" stroke-linecap="round" stroke-linejoin="round"/>
<path d="M12.7332 0.75L12.1162 1.573C11.8683 1.89718 11.7551 2.3045 11.8002 2.71007C11.8453 3.11564 12.0452 3.48817 12.3582 3.75V3.75C12.6709 4.01198 12.8706 4.38447 12.9157 4.78997C12.9608 5.19547 12.8478 5.60273 12.6002 5.927L11.9822 6.75" stroke="white" stroke-width="1.5" stroke-linecap="round" stroke-linejoin="round"/>
<path d="M6.20984 2.25L5.59284 3.073C5.34524 3.39727 5.23221 3.80453 5.27729 4.21003C5.32236 4.61553 5.52207 4.98802 5.83484 5.25V5.25C6.14798 5.51169 6.34804 5.88415 6.39331 6.28972C6.43858 6.6953 6.32557 7.1027 6.07784 7.427L5.45984 8.25" stroke="white" stroke-width="1.5" stroke-linecap="round" stroke-linejoin="round"/>
<path d="M18.7332 2.25L19.3512 3.073C19.5987 3.39739 19.7115 3.80473 19.6663 4.21023C19.621 4.61574 19.4211 4.98816 19.1082 5.25V5.25C18.7952 5.51183 18.5953 5.88436 18.5502 6.28993C18.5051 6.6955 18.6183 7.10282 18.8662 7.427L19.4832 8.25" stroke="white" stroke-width="1.5" stroke-linecap="round" stroke-linejoin="round"/>
</svg>
