<svg width="48" height="48" viewBox="0 0 48 48" fill="none" xmlns="http://www.w3.org/2000/svg">
<path d="M38.9658 40.4L36.1058 45.062C35.8375 45.4996 35.4615 45.861 35.0136 46.1117C34.5658 46.3624 34.0611 46.4941 33.5478 46.494H14.8218C14.3085 46.4941 13.8038 46.3624 13.356 46.1117C12.9081 45.861 12.5321 45.4996 12.2638 45.062L9.4458 40.462" stroke="#2B7DF7" stroke-width="1.5" stroke-linecap="round" stroke-linejoin="round"/>
<path d="M43.9 37.368C44.2569 37.0955 44.5402 36.7382 44.7243 36.3286C44.9083 35.9189 44.9873 35.4698 44.954 35.022C44.038 26.4 35 19.642 24 19.642C13 19.642 3.962 26.4 3.046 35.022C3.01272 35.4698 3.09168 35.9189 3.27572 36.3286C3.45976 36.7382 3.74307 37.0955 4.1 37.368L6.478 39.272C7.47123 40.0672 8.70565 40.5005 9.978 40.5005C11.2503 40.5005 12.4848 40.0672 13.478 39.272C14.4721 38.4788 15.7062 38.0469 16.978 38.0469C18.2498 38.0469 19.4839 38.4788 20.478 39.272V39.272C21.4721 40.0652 22.7062 40.4971 23.978 40.4971C25.2498 40.4971 26.4839 40.0652 27.478 39.272V39.272C28.4721 38.4788 29.7062 38.0469 30.978 38.0469C32.2498 38.0469 33.4839 38.4788 34.478 39.272C35.4712 40.0672 36.7056 40.5005 37.978 40.5005C39.2503 40.5005 40.4848 40.0672 41.478 39.272L43.9 37.368Z" stroke="#2B7DF7" stroke-width="1.5" stroke-linecap="round" stroke-linejoin="round"/>
<path d="M24.034 28.5L24 25.428" stroke="#2B7DF7" stroke-width="1.5" stroke-linecap="round" stroke-linejoin="round"/>
<path d="M31.4658 28.5L29.9658 25.5" stroke="#2B7DF7" stroke-width="1.5" stroke-linecap="round" stroke-linejoin="round"/>
<path d="M16.4658 28.5L17.9658 25.5" stroke="#2B7DF7" stroke-width="1.5" stroke-linecap="round" stroke-linejoin="round"/>
<path d="M25.4658 1.5L24.2318 3.146C23.7362 3.79436 23.5098 4.609 23.6 5.42014C23.6901 6.23128 24.0899 6.97633 24.7158 7.5V7.5C25.3414 8.02395 25.7408 8.76895 25.831 9.57994C25.9211 10.3909 25.6951 11.2055 25.1998 11.854L23.9638 13.5" stroke="#2B7DF7" stroke-width="1.5" stroke-linecap="round" stroke-linejoin="round"/>
<path d="M12.4202 4.5L11.1862 6.146C10.691 6.79454 10.4649 7.60906 10.5551 8.42006C10.6452 9.23105 11.0446 9.97605 11.6702 10.5V10.5C12.2965 11.0234 12.6966 11.7683 12.7871 12.5794C12.8777 13.3906 12.6516 14.2054 12.1562 14.854L10.9202 16.5" stroke="#2B7DF7" stroke-width="1.5" stroke-linecap="round" stroke-linejoin="round"/>
<path d="M37.4658 4.5L38.7018 6.146C39.1968 6.79478 39.4225 7.60946 39.332 8.42047C39.2415 9.23147 38.8417 9.97633 38.2158 10.5V10.5C37.5899 11.0237 37.1901 11.7687 37.1 12.5799C37.0098 13.391 37.2362 14.2056 37.7318 14.854L38.9658 16.5" stroke="#2B7DF7" stroke-width="1.5" stroke-linecap="round" stroke-linejoin="round"/>
</svg>
