<svg width="51" height="51" viewBox="0 0 51 51" fill="none" xmlns="http://www.w3.org/2000/svg">
<path d="M28.7 30.296C33.1183 30.296 36.7 26.7143 36.7 22.296C36.7 17.8777 33.1183 14.296 28.7 14.296C24.2817 14.296 20.7 17.8777 20.7 22.296C20.7 26.7143 24.2817 30.296 28.7 30.296ZM28.7 30.296V39.896M28.7 39.896C26.049 39.896 23.9 42.045 23.9 44.696C23.9 47.3469 26.049 49.496 28.7 49.496C31.351 49.496 33.5 47.3469 33.5 44.696C33.5 42.045 31.351 39.896 28.7 39.896ZM34.3553 16.6427L41.31 9.688M35.7271 26.1232L40.6018 30.9978M23.0489 27.9472L9.69209 41.304M21.2356 19.4181L11.8681 13.7968M49.5 6.29597C49.5 8.94694 47.351 11.096 44.7 11.096C42.049 11.096 39.9 8.94694 39.9 6.29597C39.9 3.645 42.049 1.49597 44.7 1.49597C47.351 1.49597 49.5 3.645 49.5 6.29597ZM49.5 33.496C49.5 36.1469 47.351 38.296 44.7 38.296C42.049 38.296 39.9 36.1469 39.9 33.496C39.9 30.845 42.049 28.696 44.7 28.696C47.351 28.696 49.5 30.845 49.5 33.496ZM11.1 44.696C11.1 47.3469 8.95097 49.496 6.3 49.496C3.64903 49.496 1.5 47.3469 1.5 44.696C1.5 42.045 3.64903 39.896 6.3 39.896C8.95097 39.896 11.1 42.045 11.1 44.696ZM12.7 11.096C12.7 13.7469 10.551 15.896 7.9 15.896C5.24903 15.896 3.1 13.7469 3.1 11.096C3.1 8.44501 5.24903 6.29597 7.9 6.29597C10.551 6.29597 12.7 8.44501 12.7 11.096Z" stroke="#2B7DF7" stroke-width="1.5" stroke-linecap="round" stroke-linejoin="round"/>
</svg>
