<svg width="48" height="48" viewBox="0 0 48 48" fill="none" xmlns="http://www.w3.org/2000/svg">
<path d="M27 28.496C31.1421 28.496 34.5 25.1381 34.5 20.996C34.5 16.8538 31.1421 13.496 27 13.496C22.8579 13.496 19.5 16.8538 19.5 20.996C19.5 25.1381 22.8579 28.496 27 28.496Z" stroke="white" stroke-width="1.5" stroke-linecap="round" stroke-linejoin="round"/>
<path d="M42 10.496C44.4853 10.496 46.5 8.48125 46.5 5.99597C46.5 3.51069 44.4853 1.49597 42 1.49597C39.5147 1.49597 37.5 3.51069 37.5 5.99597C37.5 8.48125 39.5147 10.496 42 10.496Z" stroke="white" stroke-width="1.5" stroke-linecap="round" stroke-linejoin="round"/>
<path d="M42 35.996C44.4853 35.996 46.5 33.9813 46.5 31.496C46.5 29.0107 44.4853 26.996 42 26.996C39.5147 26.996 37.5 29.0107 37.5 31.496C37.5 33.9813 39.5147 35.996 42 35.996Z" stroke="white" stroke-width="1.5" stroke-linecap="round" stroke-linejoin="round"/>
<path d="M27 46.496C29.4853 46.496 31.5 44.4813 31.5 41.996C31.5 39.5107 29.4853 37.496 27 37.496C24.5147 37.496 22.5 39.5107 22.5 41.996C22.5 44.4813 24.5147 46.496 27 46.496Z" stroke="white" stroke-width="1.5" stroke-linecap="round" stroke-linejoin="round"/>
<path d="M6 46.496C8.48528 46.496 10.5 44.4813 10.5 41.996C10.5 39.5107 8.48528 37.496 6 37.496C3.51472 37.496 1.5 39.5107 1.5 41.996C1.5 44.4813 3.51472 46.496 6 46.496Z" stroke="white" stroke-width="1.5" stroke-linecap="round" stroke-linejoin="round"/>
<path d="M7.5 14.996C9.98528 14.996 12 12.9813 12 10.496C12 8.01069 9.98528 5.99597 7.5 5.99597C5.01472 5.99597 3 8.01069 3 10.496C3 12.9813 5.01472 14.996 7.5 14.996Z" stroke="white" stroke-width="1.5" stroke-linecap="round" stroke-linejoin="round"/>
<path d="M32.3018 15.696L38.8218 9.17603" stroke="white" stroke-width="1.5" stroke-linecap="round" stroke-linejoin="round"/>
<path d="M33.5879 24.584L38.1579 29.154" stroke="white" stroke-width="1.5" stroke-linecap="round" stroke-linejoin="round"/>
<path d="M27 28.496V37.496" stroke="white" stroke-width="1.5" stroke-linecap="round" stroke-linejoin="round"/>
<path d="M21.7022 26.294L9.18018 38.816" stroke="white" stroke-width="1.5" stroke-linecap="round" stroke-linejoin="round"/>
<path d="M20.0022 18.298L11.2202 13.028" stroke="white" stroke-width="1.5" stroke-linecap="round" stroke-linejoin="round"/>
</svg>
