<svg width="24" height="24" viewBox="0 0 24 24" fill="none" xmlns="http://www.w3.org/2000/svg">
<path d="M2.31201 23.2501C2.67046 20.952 3.8385 18.8576 5.60537 17.345C7.37225 15.8323 9.62158 15.001 11.9475 15.001C14.2734 15.001 16.5228 15.8323 18.2896 17.345C20.0565 18.8576 21.2246 20.952 21.583 23.2501" stroke="white" stroke-width="1.5" stroke-linecap="round" stroke-linejoin="round"/>
<path d="M14.1982 23.25L11.9482 15L9.69824 23.25" stroke="white" stroke-width="1.5" stroke-linecap="round" stroke-linejoin="round"/>
<path d="M11.9482 12.75C15.262 12.75 17.9482 10.0637 17.9482 6.75C17.9482 3.43629 15.262 0.75 11.9482 0.75C8.63453 0.75 5.94824 3.43629 5.94824 6.75C5.94824 10.0637 8.63453 12.75 11.9482 12.75Z" stroke="white" stroke-width="1.5" stroke-linecap="round" stroke-linejoin="round"/>
<path d="M9.69824 8.25C10.5267 8.25 11.1982 7.57843 11.1982 6.75C11.1982 5.92157 10.5267 5.25 9.69824 5.25C8.86982 5.25 8.19824 5.92157 8.19824 6.75C8.19824 7.57843 8.86982 8.25 9.69824 8.25Z" stroke="white" stroke-width="1.5" stroke-linecap="round" stroke-linejoin="round"/>
<path d="M14.1982 8.25C15.0267 8.25 15.6982 7.57843 15.6982 6.75C15.6982 5.92157 15.0267 5.25 14.1982 5.25C13.3698 5.25 12.6982 5.92157 12.6982 6.75C12.6982 7.57843 13.3698 8.25 14.1982 8.25Z" stroke="white" stroke-width="1.5" stroke-linecap="round" stroke-linejoin="round"/>
<path d="M4.44824 6.75H8.19824" stroke="white" stroke-width="1.5" stroke-linecap="round" stroke-linejoin="round"/>
<path d="M15.6982 6.75H19.4482" stroke="white" stroke-width="1.5" stroke-linecap="round" stroke-linejoin="round"/>
</svg>
