<svg width="48" height="48" viewBox="0 0 48 48" fill="none" xmlns="http://www.w3.org/2000/svg">
<path d="M6 10.5C8.48528 10.5 10.5 8.48528 10.5 6C10.5 3.51472 8.48528 1.5 6 1.5C3.51472 1.5 1.5 3.51472 1.5 6C1.5 8.48528 3.51472 10.5 6 10.5Z" stroke="#2B7DF7" stroke-width="1.5" stroke-linecap="round" stroke-linejoin="round"/>
<path d="M9.64404 8.642L13.5 11.438" stroke="#2B7DF7" stroke-width="1.5" stroke-linecap="round" stroke-linejoin="round"/>
<path d="M6 46.5C8.48528 46.5 10.5 44.4853 10.5 42C10.5 39.5147 8.48528 37.5 6 37.5C3.51472 37.5 1.5 39.5147 1.5 42C1.5 44.4853 3.51472 46.5 6 46.5Z" stroke="#2B7DF7" stroke-width="1.5" stroke-linecap="round" stroke-linejoin="round"/>
<path d="M9.64404 39.358L13.5 36.56" stroke="#2B7DF7" stroke-width="1.5" stroke-linecap="round" stroke-linejoin="round"/>
<path d="M42 10.5C44.4853 10.5 46.5 8.48528 46.5 6C46.5 3.51472 44.4853 1.5 42 1.5C39.5147 1.5 37.5 3.51472 37.5 6C37.5 8.48528 39.5147 10.5 42 10.5Z" stroke="#2B7DF7" stroke-width="1.5" stroke-linecap="round" stroke-linejoin="round"/>
<path d="M38.356 8.642L34.5 11.438" stroke="#2B7DF7" stroke-width="1.5" stroke-linecap="round" stroke-linejoin="round"/>
<path d="M42 46.5C44.4853 46.5 46.5 44.4853 46.5 42C46.5 39.5147 44.4853 37.5 42 37.5C39.5147 37.5 37.5 39.5147 37.5 42C37.5 44.4853 39.5147 46.5 42 46.5Z" stroke="#2B7DF7" stroke-width="1.5" stroke-linecap="round" stroke-linejoin="round"/>
<path d="M38.356 39.358L34.5 36.56" stroke="#2B7DF7" stroke-width="1.5" stroke-linecap="round" stroke-linejoin="round"/>
<path d="M19.5 28.5C19.5 29.39 19.7639 30.26 20.2584 31.0001C20.7529 31.7401 21.4557 32.3169 22.2779 32.6575C23.1002 32.9981 24.005 33.0872 24.8779 32.9135C25.7508 32.7399 26.5526 32.3113 27.182 31.682C27.8113 31.0526 28.2399 30.2508 28.4135 29.3779C28.5872 28.505 28.4981 27.6002 28.1575 26.7779C27.8169 25.9557 27.2401 25.2529 26.5001 24.7584C25.76 24.2639 24.89 24 24 24C23.11 24 22.24 23.7361 21.4999 23.2416C20.7599 22.7471 20.1831 22.0443 19.8425 21.2221C19.502 20.3998 19.4128 19.495 19.5865 18.6221C19.7601 17.7492 20.1887 16.9474 20.818 16.318C21.4474 15.6887 22.2492 15.2601 23.1221 15.0865C23.995 14.9128 24.8998 15.0019 25.7221 15.3425C26.5443 15.6831 27.2471 16.2599 27.7416 16.9999C28.2361 17.74 28.5 18.61 28.5 19.5" stroke="#2B7DF7" stroke-width="1.5" stroke-linecap="round" stroke-linejoin="round"/>
<path d="M24 12V15" stroke="#2B7DF7" stroke-width="1.5" stroke-linecap="round" stroke-linejoin="round"/>
<path d="M24 33V36" stroke="#2B7DF7" stroke-width="1.5" stroke-linecap="round" stroke-linejoin="round"/>
</svg>
