<svg width="48" height="48" viewBox="0 0 48 48" fill="none" xmlns="http://www.w3.org/2000/svg">
<path d="M24 46.5C36.4264 46.5 46.5 36.4264 46.5 24C46.5 11.5736 36.4264 1.5 24 1.5C11.5736 1.5 1.5 11.5736 1.5 24C1.5 36.4264 11.5736 46.5 24 46.5Z" stroke="#2B7DF7" stroke-width="1.5" stroke-linecap="round" stroke-linejoin="round"/>
<path d="M33.2959 14.704C33.0988 14.5069 32.8507 14.3687 32.5794 14.3047C32.3081 14.2408 32.0243 14.2537 31.7599 14.342L18.6959 18.696L14.3419 31.76C14.2536 32.0244 14.2407 32.3082 14.3047 32.5795C14.3686 32.8508 14.5069 33.0989 14.704 33.296C14.9011 33.4931 15.1492 33.6314 15.4205 33.6953C15.6918 33.7593 15.9756 33.7463 16.2399 33.658L29.3039 29.304L33.6579 16.24C33.7463 15.9756 33.7592 15.6919 33.6953 15.4206C33.6313 15.1493 33.493 14.9011 33.2959 14.704Z" stroke="#2B7DF7" stroke-width="1.5" stroke-linecap="round" stroke-linejoin="round"/>
<path d="M24 1.5V6" stroke="#2B7DF7" stroke-width="1.5" stroke-linecap="round" stroke-linejoin="round"/>
<path d="M39.91 8.09003L36.728 11.272" stroke="#2B7DF7" stroke-width="1.5" stroke-linecap="round" stroke-linejoin="round"/>
<path d="M46.5 24H42" stroke="#2B7DF7" stroke-width="1.5" stroke-linecap="round" stroke-linejoin="round"/>
<path d="M39.91 39.91L36.728 36.728" stroke="#2B7DF7" stroke-width="1.5" stroke-linecap="round" stroke-linejoin="round"/>
<path d="M24 46.5V42" stroke="#2B7DF7" stroke-width="1.5" stroke-linecap="round" stroke-linejoin="round"/>
<path d="M8.08984 39.91L11.2718 36.728" stroke="#2B7DF7" stroke-width="1.5" stroke-linecap="round" stroke-linejoin="round"/>
<path d="M1.5 24H6" stroke="#2B7DF7" stroke-width="1.5" stroke-linecap="round" stroke-linejoin="round"/>
<path d="M8.08984 8.09003L11.2718 11.272" stroke="#2B7DF7" stroke-width="1.5" stroke-linecap="round" stroke-linejoin="round"/>
<path d="M24 23.25C24.1989 23.25 24.3897 23.329 24.5303 23.4697C24.671 23.6103 24.75 23.8011 24.75 24" stroke="#2B7DF7" stroke-width="1.5" stroke-linecap="round" stroke-linejoin="round"/>
<path d="M23.25 24C23.25 23.8011 23.329 23.6103 23.4697 23.4697C23.6103 23.329 23.8011 23.25 24 23.25" stroke="#2B7DF7" stroke-width="1.5" stroke-linecap="round" stroke-linejoin="round"/>
<path d="M24 24.75C23.8011 24.75 23.6103 24.671 23.4697 24.5303C23.329 24.3897 23.25 24.1989 23.25 24" stroke="#2B7DF7" stroke-width="1.5" stroke-linecap="round" stroke-linejoin="round"/>
<path d="M24.75 24C24.75 24.1989 24.671 24.3897 24.5303 24.5303C24.3897 24.671 24.1989 24.75 24 24.75" stroke="#2B7DF7" stroke-width="1.5" stroke-linecap="round" stroke-linejoin="round"/>
</svg>
