<svg width="825" height="312" viewBox="0 0 825 312" fill="none" xmlns="http://www.w3.org/2000/svg">
<line x1="53.5" y1="67" x2="53.5" y2="238" stroke="#5452F6" stroke-width="2"/>
<path d="M63 228L53.5 238.5L44.5 228" stroke="#5452F6" stroke-width="2" stroke-linecap="round" stroke-linejoin="round"/>
<g filter="url(#filter0_d)">
<rect x="1" width="166" height="67" rx="8" fill="#EEEEFF"/>
<path d="M58.9052 21.5C58.9052 21.0858 58.5694 20.75 58.1552 20.75C57.741 20.75 57.4052 21.0858 57.4052 21.5H58.9052ZM64.45 37.3817C64.6798 37.0371 64.5866 36.5714 64.242 36.3416C63.8974 36.1119 63.4317 36.205 63.2019 36.5497L64.45 37.3817ZM53 26.4207C52.5858 26.4207 52.25 26.7565 52.25 27.1707C52.25 27.585 52.5858 27.9207 53 27.9207V26.4207ZM68.9812 27.1707L69.5456 27.6646C69.7394 27.4432 69.7858 27.1288 69.6642 26.8608C69.5426 26.5929 69.2755 26.4207 68.9812 26.4207V27.1707ZM61.7639 35.4191L61.1995 34.9252C60.9689 35.1888 60.9513 35.5768 61.1572 35.86C61.363 36.1433 61.7375 36.2464 62.0593 36.1085L61.7639 35.4191ZM62.7949 45.214L63.1303 44.5432L63.1303 44.5432L62.7949 45.214ZM61.4444 41.8426C61.5753 41.4496 61.363 41.0249 60.97 40.8939C60.5771 40.7629 60.1523 40.9753 60.0213 41.3682L61.4444 41.8426ZM57.4052 21.5V27.1707H58.9052V21.5H57.4052ZM57.4052 27.1707V37.4812H58.9052V27.1707H57.4052ZM57.4052 37.4812C57.4052 38.1272 57.7335 38.7073 58.183 39.1247C58.639 39.5481 59.2621 39.849 59.9675 39.9393C61.4244 40.1256 63.0954 39.4136 64.45 37.3817L63.2019 36.5497C62.082 38.2295 60.9176 38.5486 60.1578 38.4514C59.7548 38.3998 59.4243 38.2303 59.2036 38.0255C58.9764 37.8145 58.9052 37.6085 58.9052 37.4812H57.4052ZM53 27.9207H58.1552V26.4207H53V27.9207ZM58.1552 27.9207H68.9812V26.4207H58.1552V27.9207ZM68.4168 26.6769L61.1995 34.9252L62.3283 35.913L69.5456 27.6646L68.4168 26.6769ZM62.0593 36.1085C63.7521 35.383 65.3013 35.3263 66.3778 35.8902C67.4026 36.427 68.2312 37.6546 68.2312 40.0588H69.7312C69.7312 37.3078 68.7555 35.4423 67.0738 34.5614C65.4438 33.7076 63.3843 33.9087 61.4684 34.7298L62.0593 36.1085ZM68.2312 40.0588C68.2312 41.5024 67.9308 42.4858 67.5204 43.1543C67.1135 43.8172 66.5691 44.2188 65.9907 44.4554C65.403 44.6959 64.7732 44.7676 64.2253 44.7465C63.6591 44.7247 63.2595 44.6078 63.1303 44.5432L62.4595 45.8849C62.8459 46.078 63.4774 46.2189 64.1677 46.2454C64.8764 46.2727 65.7287 46.1833 66.5587 45.8438C67.398 45.5004 68.2069 44.9032 68.7988 43.939C69.3872 42.9804 69.7312 41.7084 69.7312 40.0588H68.2312ZM63.1303 44.5432C62.7234 44.3397 62.176 43.9057 61.7983 43.3663C61.4204 42.8263 61.2907 42.3035 61.4444 41.8426L60.0213 41.3682C59.6594 42.4539 60.0453 43.4776 60.5695 44.2264C61.094 44.9758 61.8354 45.5728 62.4595 45.8849L63.1303 44.5432Z" fill="#5452F6"/>
<path d="M91.0625 36.0312H86.2969L85.2266 39H83.6797L88.0234 27.625H89.3359L93.6875 39H92.1484L91.0625 36.0312ZM86.75 34.7969H90.6172L88.6797 29.4766L86.75 34.7969ZM96.5625 39H95.1172V27H96.5625V39ZM100.453 39H99.0078V30.5469H100.453V39ZM98.8906 28.3047C98.8906 28.0703 98.9609 27.8724 99.1016 27.7109C99.2474 27.5495 99.4609 27.4688 99.7422 27.4688C100.023 27.4688 100.237 27.5495 100.383 27.7109C100.529 27.8724 100.602 28.0703 100.602 28.3047C100.602 28.5391 100.529 28.7344 100.383 28.8906C100.237 29.0469 100.023 29.125 99.7422 29.125C99.4609 29.125 99.2474 29.0469 99.1016 28.8906C98.9609 28.7344 98.8906 28.5391 98.8906 28.3047ZM106.164 37.9766C106.68 37.9766 107.13 37.8203 107.516 37.5078C107.901 37.1953 108.115 36.8047 108.156 36.3359H109.523C109.497 36.8203 109.331 37.2812 109.023 37.7188C108.716 38.1562 108.305 38.5052 107.789 38.7656C107.279 39.026 106.737 39.1562 106.164 39.1562C105.013 39.1562 104.096 38.7734 103.414 38.0078C102.737 37.237 102.398 36.1849 102.398 34.8516V34.6094C102.398 33.7865 102.549 33.0547 102.852 32.4141C103.154 31.7734 103.586 31.276 104.148 30.9219C104.716 30.5677 105.385 30.3906 106.156 30.3906C107.104 30.3906 107.891 30.6745 108.516 31.2422C109.146 31.8099 109.482 32.5469 109.523 33.4531H108.156C108.115 32.9062 107.906 32.4583 107.531 32.1094C107.161 31.7552 106.703 31.5781 106.156 31.5781C105.422 31.5781 104.852 31.8438 104.445 32.375C104.044 32.901 103.844 33.6641 103.844 34.6641V34.9375C103.844 35.9115 104.044 36.6615 104.445 37.1875C104.846 37.7135 105.419 37.9766 106.164 37.9766ZM114.656 39.1562C113.51 39.1562 112.578 38.7812 111.859 38.0312C111.141 37.276 110.781 36.2682 110.781 35.0078V34.7422C110.781 33.9036 110.94 33.1562 111.258 32.5C111.581 31.8385 112.029 31.3229 112.602 30.9531C113.18 30.5781 113.805 30.3906 114.477 30.3906C115.576 30.3906 116.43 30.7526 117.039 31.4766C117.648 32.2005 117.953 33.237 117.953 34.5859V35.1875H112.227C112.247 36.0208 112.49 36.6953 112.953 37.2109C113.422 37.7214 114.016 37.9766 114.734 37.9766C115.245 37.9766 115.677 37.8724 116.031 37.6641C116.385 37.4557 116.695 37.1797 116.961 36.8359L117.844 37.5234C117.135 38.612 116.073 39.1562 114.656 39.1562ZM114.477 31.5781C113.893 31.5781 113.404 31.7917 113.008 32.2188C112.612 32.6406 112.367 33.2344 112.273 34H116.508V33.8906C116.466 33.1562 116.268 32.5885 115.914 32.1875C115.56 31.7812 115.081 31.5781 114.477 31.5781Z" fill="#5452F6"/>
<rect x="1.5" y="0.5" width="165" height="66" rx="7.5" stroke="#5452F6"/>
</g>
<g filter="url(#filter1_d)">
<rect x="1" y="240" width="166" height="68" rx="8" fill="#EEEEFF"/>
<path d="M65.75 271.75H52.25C51.4216 271.75 50.75 272.422 50.75 273.25V283.75C50.75 284.578 51.4216 285.25 52.25 285.25H65.75C66.5784 285.25 67.25 284.578 67.25 283.75V273.25C67.25 272.422 66.5784 271.75 65.75 271.75Z" stroke="#5452F6" stroke-width="1.5" stroke-linecap="round" stroke-linejoin="round"/>
<path d="M53.75 271.75V268C53.75 266.608 54.3031 265.272 55.2877 264.288C56.2723 263.303 57.6076 262.75 59 262.75C60.3924 262.75 61.7277 263.303 62.7123 264.288C63.6969 265.272 64.25 266.608 64.25 268V271.75" stroke="#5452F6" stroke-width="1.5" stroke-linecap="round" stroke-linejoin="round"/>
<path d="M59 277V280" stroke="#5452F6" stroke-width="1.5" stroke-linecap="round" stroke-linejoin="round"/>
<path d="M91.4453 279.5H89.9375V274.242H84.2031V279.5H82.7031V268.125H84.2031V273.016H89.9375V268.125H91.4453V279.5ZM101.734 269.359H98.0781V279.5H96.5859V269.359H92.9375V268.125H101.734V269.359ZM104.93 278.273H110.32V279.5H103.422V268.125H104.93V278.273ZM119.883 275.891C119.742 277.094 119.297 278.023 118.547 278.68C117.802 279.331 116.81 279.656 115.57 279.656C114.227 279.656 113.148 279.174 112.336 278.211C111.529 277.247 111.125 275.958 111.125 274.344V273.25C111.125 272.193 111.312 271.263 111.688 270.461C112.068 269.659 112.604 269.044 113.297 268.617C113.99 268.185 114.792 267.969 115.703 267.969C116.911 267.969 117.88 268.307 118.609 268.984C119.339 269.656 119.763 270.589 119.883 271.781H118.375C118.245 270.875 117.961 270.219 117.523 269.812C117.091 269.406 116.484 269.203 115.703 269.203C114.745 269.203 113.992 269.557 113.445 270.266C112.904 270.974 112.633 271.982 112.633 273.289V274.391C112.633 275.625 112.891 276.607 113.406 277.336C113.922 278.065 114.643 278.43 115.57 278.43C116.404 278.43 117.042 278.242 117.484 277.867C117.932 277.487 118.229 276.828 118.375 275.891H119.883Z" fill="#5452F6"/>
<rect x="1.5" y="240.5" width="165" height="67" rx="7.5" stroke="#5452F6"/>
</g>
<g filter="url(#filter2_d)">
<rect x="655" width="166" height="67" rx="8" fill="#E5FDE8"/>
<g clip-path="url(#clip0)">
<path d="M719.5 42C720.693 42 721.838 41.5259 722.682 40.682C723.526 39.8381 724 38.6935 724 37.5C724 36.3065 723.526 35.1619 722.682 34.318C721.838 33.4741 720.693 33 719.5 33C720.693 33 721.838 32.5259 722.682 31.682C723.526 30.8381 724 29.6935 724 28.5C724 27.3065 723.526 26.1619 722.682 25.318C721.838 24.4741 720.693 24 719.5 24H713.5V42H719.5Z" stroke="#65BF73" stroke-width="1.5" stroke-linecap="round" stroke-linejoin="round"/>
<path d="M713.5 33H719.874" stroke="#65BF73" stroke-width="1.5" stroke-linecap="round" stroke-linejoin="round"/>
<path d="M718 24V21" stroke="#65BF73" stroke-width="1.5" stroke-linecap="round" stroke-linejoin="round"/>
<path d="M718 45V42" stroke="#65BF73" stroke-width="1.5" stroke-linecap="round" stroke-linejoin="round"/>
</g>
<path d="M742.281 39V27.625H746C747.234 27.625 748.161 27.8802 748.781 28.3906C749.406 28.901 749.719 29.6562 749.719 30.6562C749.719 31.1875 749.568 31.6589 749.266 32.0703C748.964 32.4766 748.552 32.7917 748.031 33.0156C748.646 33.1875 749.13 33.5156 749.484 34C749.844 34.4792 750.023 35.0521 750.023 35.7188C750.023 36.7396 749.693 37.5417 749.031 38.125C748.37 38.7083 747.435 39 746.227 39H742.281ZM743.781 33.6797V37.7734H746.258C746.956 37.7734 747.505 37.5938 747.906 37.2344C748.312 36.8698 748.516 36.3698 748.516 35.7344C748.516 34.3646 747.771 33.6797 746.281 33.6797H743.781ZM743.781 32.4766H746.047C746.703 32.4766 747.227 32.3125 747.617 31.9844C748.013 31.6562 748.211 31.2109 748.211 30.6484C748.211 30.0234 748.029 29.5703 747.664 29.2891C747.299 29.0026 746.745 28.8594 746 28.8594H743.781V32.4766ZM751.641 34.6953C751.641 33.8672 751.802 33.1224 752.125 32.4609C752.453 31.7995 752.906 31.2891 753.484 30.9297C754.068 30.5703 754.732 30.3906 755.477 30.3906C756.628 30.3906 757.557 30.7891 758.266 31.5859C758.979 32.3828 759.336 33.4427 759.336 34.7656V34.8672C759.336 35.6901 759.177 36.4297 758.859 37.0859C758.547 37.737 758.096 38.2448 757.508 38.6094C756.924 38.974 756.253 39.1562 755.492 39.1562C754.346 39.1562 753.417 38.7578 752.703 37.9609C751.995 37.1641 751.641 36.1094 751.641 34.7969V34.6953ZM753.094 34.8672C753.094 35.8047 753.31 36.5573 753.742 37.125C754.18 37.6927 754.763 37.9766 755.492 37.9766C756.227 37.9766 756.81 37.6901 757.242 37.1172C757.674 36.5391 757.891 35.7318 757.891 34.6953C757.891 33.7682 757.669 33.0182 757.227 32.4453C756.789 31.8672 756.206 31.5781 755.477 31.5781C754.763 31.5781 754.188 31.862 753.75 32.4297C753.312 32.9974 753.094 33.8099 753.094 34.8672ZM768.305 34.8672C768.305 36.1589 768.008 37.1979 767.414 37.9844C766.82 38.7656 766.023 39.1562 765.023 39.1562C763.956 39.1562 763.13 38.7786 762.547 38.0234L762.477 39H761.148V27H762.594V31.4766C763.177 30.7526 763.982 30.3906 765.008 30.3906C766.034 30.3906 766.839 30.7786 767.422 31.5547C768.01 32.3307 768.305 33.3932 768.305 34.7422V34.8672ZM766.859 34.7031C766.859 33.7188 766.669 32.9583 766.289 32.4219C765.909 31.8854 765.362 31.6172 764.648 31.6172C763.695 31.6172 763.01 32.0599 762.594 32.9453V36.6016C763.036 37.487 763.727 37.9297 764.664 37.9297C765.357 37.9297 765.896 37.6615 766.281 37.125C766.667 36.5885 766.859 35.7812 766.859 34.7031Z" fill="#65BF73"/>
<rect x="655.5" y="0.5" width="165" height="66" rx="7.5" stroke="#65BF73"/>
</g>
<g filter="url(#filter3_d)">
<rect x="655" y="240" width="166" height="67" rx="8" fill="white"/>
<g clip-path="url(#clip1)">
<path d="M719.75 271.25H706.25C705.422 271.25 704.75 271.922 704.75 272.75V283.25C704.75 284.078 705.422 284.75 706.25 284.75H719.75C720.578 284.75 721.25 284.078 721.25 283.25V272.75C721.25 271.922 720.578 271.25 719.75 271.25Z" stroke="#65BF73" stroke-width="1.5" stroke-linecap="round" stroke-linejoin="round"/>
<path d="M707.75 271.25V267.5C707.75 266.108 708.303 264.772 709.288 263.788C710.272 262.803 711.608 262.25 713 262.25C714.392 262.25 715.728 262.803 716.712 263.788C717.697 264.772 718.25 266.108 718.25 267.5V271.25" stroke="#65BF73" stroke-width="1.5" stroke-linecap="round" stroke-linejoin="round"/>
<path d="M713 276.5V279.5" stroke="#65BF73" stroke-width="1.5" stroke-linecap="round" stroke-linejoin="round"/>
</g>
<path d="M745.445 279H743.938V273.742H738.203V279H736.703V267.625H738.203V272.516H743.938V267.625H745.445V279ZM755.734 268.859H752.078V279H750.586V268.859H746.938V267.625H755.734V268.859ZM758.93 277.773H764.32V279H757.422V267.625H758.93V277.773ZM773.883 275.391C773.742 276.594 773.297 277.523 772.547 278.18C771.802 278.831 770.81 279.156 769.57 279.156C768.227 279.156 767.148 278.674 766.336 277.711C765.529 276.747 765.125 275.458 765.125 273.844V272.75C765.125 271.693 765.312 270.763 765.688 269.961C766.068 269.159 766.604 268.544 767.297 268.117C767.99 267.685 768.792 267.469 769.703 267.469C770.911 267.469 771.88 267.807 772.609 268.484C773.339 269.156 773.763 270.089 773.883 271.281H772.375C772.245 270.375 771.961 269.719 771.523 269.312C771.091 268.906 770.484 268.703 769.703 268.703C768.745 268.703 767.992 269.057 767.445 269.766C766.904 270.474 766.633 271.482 766.633 272.789V273.891C766.633 275.125 766.891 276.107 767.406 276.836C767.922 277.565 768.643 277.93 769.57 277.93C770.404 277.93 771.042 277.742 771.484 277.367C771.932 276.987 772.229 276.328 772.375 275.391H773.883Z" fill="#65BF73"/>
<rect x="655.5" y="240.5" width="165" height="66" rx="7.5" stroke="#65BF73"/>
</g>
<path d="M5.45312 154.984L8.17969 150.625H9.94531L6.35156 156.266L10.0312 162H8.25L5.45312 157.562L2.64062 162H0.867188L4.55469 156.266L0.953125 150.625H2.71094L5.45312 154.984ZM19.6328 151.859H15.9766V162H14.4844V151.859H10.8359V150.625H19.6328V151.859ZM22.4453 160.773H28.9531V162H20.6719V160.875L26.9062 151.859H20.7734V150.625H28.7031V151.727L22.4453 160.773Z" fill="#5452F6"/>
<path d="M147.453 154.984L150.18 150.625H151.945L148.352 156.266L152.031 162H150.25L147.453 157.562L144.641 162H142.867L146.555 156.266L142.953 150.625H144.711L147.453 154.984ZM161.633 151.859H157.977V162H156.484V151.859H152.836V150.625H161.633V151.859ZM164.445 160.773H170.953V162H162.672V160.875L168.906 151.859H162.773V150.625H170.703V151.727L164.445 160.773Z" fill="#5452F6"/>
<line x1="114.5" y1="241" x2="114.5" y2="70" stroke="#5452F6" stroke-width="2"/>
<path d="M105 80L114.5 69.5L123.5 80" stroke="#5452F6" stroke-width="2" stroke-linecap="round" stroke-linejoin="round"/>
<defs>
<filter id="filter0_d" x="1" y="0" width="170" height="71" filterUnits="userSpaceOnUse" color-interpolation-filters="sRGB">
<feFlood flood-opacity="0" result="BackgroundImageFix"/>
<feColorMatrix in="SourceAlpha" type="matrix" values="0 0 0 0 0 0 0 0 0 0 0 0 0 0 0 0 0 0 127 0"/>
<feOffset dx="4" dy="4"/>
<feColorMatrix type="matrix" values="0 0 0 0 0.674908 0 0 0 0 0.662083 0 0 0 0 0.945833 0 0 0 1 0"/>
<feBlend mode="normal" in2="BackgroundImageFix" result="effect1_dropShadow"/>
<feBlend mode="normal" in="SourceGraphic" in2="effect1_dropShadow" result="shape"/>
</filter>
<filter id="filter1_d" x="1" y="240" width="170" height="72" filterUnits="userSpaceOnUse" color-interpolation-filters="sRGB">
<feFlood flood-opacity="0" result="BackgroundImageFix"/>
<feColorMatrix in="SourceAlpha" type="matrix" values="0 0 0 0 0 0 0 0 0 0 0 0 0 0 0 0 0 0 127 0"/>
<feOffset dx="4" dy="4"/>
<feColorMatrix type="matrix" values="0 0 0 0 0.674908 0 0 0 0 0.662083 0 0 0 0 0.945833 0 0 0 1 0"/>
<feBlend mode="normal" in2="BackgroundImageFix" result="effect1_dropShadow"/>
<feBlend mode="normal" in="SourceGraphic" in2="effect1_dropShadow" result="shape"/>
</filter>
<filter id="filter2_d" x="655" y="0" width="170" height="71" filterUnits="userSpaceOnUse" color-interpolation-filters="sRGB">
<feFlood flood-opacity="0" result="BackgroundImageFix"/>
<feColorMatrix in="SourceAlpha" type="matrix" values="0 0 0 0 0 0 0 0 0 0 0 0 0 0 0 0 0 0 127 0"/>
<feOffset dx="4" dy="4"/>
<feColorMatrix type="matrix" values="0 0 0 0 0.576471 0 0 0 0 0.776471 0 0 0 0 0.607843 0 0 0 1 0"/>
<feBlend mode="normal" in2="BackgroundImageFix" result="effect1_dropShadow"/>
<feBlend mode="normal" in="SourceGraphic" in2="effect1_dropShadow" result="shape"/>
</filter>
<filter id="filter3_d" x="655" y="240" width="170" height="71" filterUnits="userSpaceOnUse" color-interpolation-filters="sRGB">
<feFlood flood-opacity="0" result="BackgroundImageFix"/>
<feColorMatrix in="SourceAlpha" type="matrix" values="0 0 0 0 0 0 0 0 0 0 0 0 0 0 0 0 0 0 127 0"/>
<feOffset dx="4" dy="4"/>
<feColorMatrix type="matrix" values="0 0 0 0 0.576471 0 0 0 0 0.776471 0 0 0 0 0.607843 0 0 0 1 0"/>
<feBlend mode="normal" in2="BackgroundImageFix" result="effect1_dropShadow"/>
<feBlend mode="normal" in="SourceGraphic" in2="effect1_dropShadow" result="shape"/>
</filter>
<clipPath id="clip0">
<rect width="24" height="24" fill="white" transform="translate(706.5 21.5)"/>
</clipPath>
<clipPath id="clip1">
<rect width="24" height="24" fill="white" transform="translate(701 261.5)"/>
</clipPath>
</defs>
</svg>
