<svg width="824" height="318" viewBox="0 0 824 318" fill="none" xmlns="http://www.w3.org/2000/svg">
<line x1="82.5" y1="67" x2="82.5" y2="238" stroke="#5452F6" stroke-width="2"/>
<path d="M92 228L82.5 238.5L73.5 228" stroke="#5452F6" stroke-width="2" stroke-linecap="round" stroke-linejoin="round"/>
<line x1="736.5" y1="67" x2="736.5" y2="238" stroke="#65BF73" stroke-width="2"/>
<path d="M746 228L736.5 238.5L727.5 228" stroke="#65BF73" stroke-width="2" stroke-linecap="round" stroke-linejoin="round"/>
<g clip-path="url(#clip0)">
<line x1="154.677" y1="285.59" x2="652.75" y2="31.8096" stroke="#5452F6" stroke-width="2"/>
<path d="M639.527 27.8849L653.195 31.5826L647.925 44.3686" stroke="#5452F6" stroke-width="2" stroke-linecap="round" stroke-linejoin="round"/>
</g>
<g clip-path="url(#clip1)">
<line x1="666.731" y1="284.699" x2="168.658" y2="30.9186" stroke="#65BF73" stroke-width="2"/>
<path d="M173.255 43.9231L168.213 30.6916L181.654 27.4395" stroke="#65BF73" stroke-width="2" stroke-linecap="round" stroke-linejoin="round"/>
</g>
<line x1="165" y1="282.5" x2="656" y2="282.5" stroke="url(#paint0_linear)" stroke-width="2" stroke-dasharray="5 10"/>
<g filter="url(#filter0_d)">
<rect width="166" height="67" rx="8" fill="#EEEEFF"/>
<path d="M57.9052 21.5C57.9052 21.0858 57.5694 20.75 57.1552 20.75C56.741 20.75 56.4052 21.0858 56.4052 21.5H57.9052ZM63.45 37.3817C63.6798 37.0371 63.5866 36.5714 63.242 36.3416C62.8974 36.1119 62.4317 36.205 62.2019 36.5497L63.45 37.3817ZM52 26.4207C51.5858 26.4207 51.25 26.7565 51.25 27.1707C51.25 27.585 51.5858 27.9207 52 27.9207V26.4207ZM67.9812 27.1707L68.5456 27.6646C68.7394 27.4432 68.7858 27.1288 68.6642 26.8608C68.5426 26.5929 68.2755 26.4207 67.9812 26.4207V27.1707ZM60.7639 35.4191L60.1995 34.9252C59.9689 35.1888 59.9513 35.5768 60.1572 35.86C60.363 36.1433 60.7375 36.2464 61.0593 36.1085L60.7639 35.4191ZM61.7949 45.214L62.1303 44.5432L62.1303 44.5432L61.7949 45.214ZM60.4444 41.8426C60.5753 41.4496 60.363 41.0249 59.97 40.8939C59.5771 40.7629 59.1523 40.9753 59.0213 41.3682L60.4444 41.8426ZM56.4052 21.5V27.1707H57.9052V21.5H56.4052ZM56.4052 27.1707V37.4812H57.9052V27.1707H56.4052ZM56.4052 37.4812C56.4052 38.1272 56.7335 38.7073 57.183 39.1247C57.639 39.5481 58.2621 39.849 58.9675 39.9393C60.4244 40.1256 62.0954 39.4136 63.45 37.3817L62.2019 36.5497C61.082 38.2295 59.9176 38.5486 59.1578 38.4514C58.7548 38.3998 58.4243 38.2303 58.2036 38.0255C57.9764 37.8145 57.9052 37.6085 57.9052 37.4812H56.4052ZM52 27.9207H57.1552V26.4207H52V27.9207ZM57.1552 27.9207H67.9812V26.4207H57.1552V27.9207ZM67.4168 26.6769L60.1995 34.9252L61.3283 35.913L68.5456 27.6646L67.4168 26.6769ZM61.0593 36.1085C62.7521 35.383 64.3013 35.3263 65.3778 35.8902C66.4026 36.427 67.2312 37.6546 67.2312 40.0588H68.7312C68.7312 37.3078 67.7555 35.4423 66.0738 34.5614C64.4438 33.7076 62.3843 33.9087 60.4684 34.7298L61.0593 36.1085ZM67.2312 40.0588C67.2312 41.5024 66.9308 42.4858 66.5204 43.1543C66.1135 43.8172 65.5691 44.2188 64.9907 44.4554C64.403 44.6959 63.7732 44.7676 63.2253 44.7465C62.6591 44.7247 62.2595 44.6078 62.1303 44.5432L61.4595 45.8849C61.8459 46.078 62.4774 46.2189 63.1677 46.2454C63.8764 46.2727 64.7287 46.1833 65.5587 45.8438C66.398 45.5004 67.2069 44.9032 67.7988 43.939C68.3872 42.9804 68.7312 41.7084 68.7312 40.0588H67.2312ZM62.1303 44.5432C61.7234 44.3397 61.176 43.9057 60.7983 43.3663C60.4204 42.8263 60.2907 42.3035 60.4444 41.8426L59.0213 41.3682C58.6594 42.4539 59.0453 43.4776 59.5695 44.2264C60.094 44.9758 60.8354 45.5728 61.4595 45.8849L62.1303 44.5432Z" fill="#5452F6"/>
<path d="M90.0625 36.0312H85.2969L84.2266 39H82.6797L87.0234 27.625H88.3359L92.6875 39H91.1484L90.0625 36.0312ZM85.75 34.7969H89.6172L87.6797 29.4766L85.75 34.7969ZM95.5625 39H94.1172V27H95.5625V39ZM99.4531 39H98.0078V30.5469H99.4531V39ZM97.8906 28.3047C97.8906 28.0703 97.9609 27.8724 98.1016 27.7109C98.2474 27.5495 98.4609 27.4688 98.7422 27.4688C99.0234 27.4688 99.237 27.5495 99.3828 27.7109C99.5286 27.8724 99.6016 28.0703 99.6016 28.3047C99.6016 28.5391 99.5286 28.7344 99.3828 28.8906C99.237 29.0469 99.0234 29.125 98.7422 29.125C98.4609 29.125 98.2474 29.0469 98.1016 28.8906C97.9609 28.7344 97.8906 28.5391 97.8906 28.3047ZM105.164 37.9766C105.68 37.9766 106.13 37.8203 106.516 37.5078C106.901 37.1953 107.115 36.8047 107.156 36.3359H108.523C108.497 36.8203 108.331 37.2812 108.023 37.7188C107.716 38.1562 107.305 38.5052 106.789 38.7656C106.279 39.026 105.737 39.1562 105.164 39.1562C104.013 39.1562 103.096 38.7734 102.414 38.0078C101.737 37.237 101.398 36.1849 101.398 34.8516V34.6094C101.398 33.7865 101.549 33.0547 101.852 32.4141C102.154 31.7734 102.586 31.276 103.148 30.9219C103.716 30.5677 104.385 30.3906 105.156 30.3906C106.104 30.3906 106.891 30.6745 107.516 31.2422C108.146 31.8099 108.482 32.5469 108.523 33.4531H107.156C107.115 32.9062 106.906 32.4583 106.531 32.1094C106.161 31.7552 105.703 31.5781 105.156 31.5781C104.422 31.5781 103.852 31.8438 103.445 32.375C103.044 32.901 102.844 33.6641 102.844 34.6641V34.9375C102.844 35.9115 103.044 36.6615 103.445 37.1875C103.846 37.7135 104.419 37.9766 105.164 37.9766ZM113.656 39.1562C112.51 39.1562 111.578 38.7812 110.859 38.0312C110.141 37.276 109.781 36.2682 109.781 35.0078V34.7422C109.781 33.9036 109.94 33.1562 110.258 32.5C110.581 31.8385 111.029 31.3229 111.602 30.9531C112.18 30.5781 112.805 30.3906 113.477 30.3906C114.576 30.3906 115.43 30.7526 116.039 31.4766C116.648 32.2005 116.953 33.237 116.953 34.5859V35.1875H111.227C111.247 36.0208 111.49 36.6953 111.953 37.2109C112.422 37.7214 113.016 37.9766 113.734 37.9766C114.245 37.9766 114.677 37.8724 115.031 37.6641C115.385 37.4557 115.695 37.1797 115.961 36.8359L116.844 37.5234C116.135 38.612 115.073 39.1562 113.656 39.1562ZM113.477 31.5781C112.893 31.5781 112.404 31.7917 112.008 32.2188C111.612 32.6406 111.367 33.2344 111.273 34H115.508V33.8906C115.466 33.1562 115.268 32.5885 114.914 32.1875C114.56 31.7812 114.081 31.5781 113.477 31.5781Z" fill="#5452F6"/>
<rect x="0.5" y="0.5" width="165" height="66" rx="7.5" stroke="#5452F6"/>
</g>
<g filter="url(#filter1_d)">
<rect y="240" width="166" height="68" rx="8" fill="#EEEEFF"/>
<path d="M64.75 271.75H51.25C50.4216 271.75 49.75 272.422 49.75 273.25V283.75C49.75 284.578 50.4216 285.25 51.25 285.25H64.75C65.5784 285.25 66.25 284.578 66.25 283.75V273.25C66.25 272.422 65.5784 271.75 64.75 271.75Z" stroke="#5452F6" stroke-width="1.5" stroke-linecap="round" stroke-linejoin="round"/>
<path d="M52.75 271.75V268C52.75 266.608 53.3031 265.272 54.2877 264.288C55.2723 263.303 56.6076 262.75 58 262.75C59.3924 262.75 60.7277 263.303 61.7123 264.288C62.6969 265.272 63.25 266.608 63.25 268V271.75" stroke="#5452F6" stroke-width="1.5" stroke-linecap="round" stroke-linejoin="round"/>
<path d="M58 277V280" stroke="#5452F6" stroke-width="1.5" stroke-linecap="round" stroke-linejoin="round"/>
<path d="M90.4453 279.5H88.9375V274.242H83.2031V279.5H81.7031V268.125H83.2031V273.016H88.9375V268.125H90.4453V279.5ZM100.734 269.359H97.0781V279.5H95.5859V269.359H91.9375V268.125H100.734V269.359ZM103.93 278.273H109.32V279.5H102.422V268.125H103.93V278.273ZM118.883 275.891C118.742 277.094 118.297 278.023 117.547 278.68C116.802 279.331 115.81 279.656 114.57 279.656C113.227 279.656 112.148 279.174 111.336 278.211C110.529 277.247 110.125 275.958 110.125 274.344V273.25C110.125 272.193 110.312 271.263 110.688 270.461C111.068 269.659 111.604 269.044 112.297 268.617C112.99 268.185 113.792 267.969 114.703 267.969C115.911 267.969 116.88 268.307 117.609 268.984C118.339 269.656 118.763 270.589 118.883 271.781H117.375C117.245 270.875 116.961 270.219 116.523 269.812C116.091 269.406 115.484 269.203 114.703 269.203C113.745 269.203 112.992 269.557 112.445 270.266C111.904 270.974 111.633 271.982 111.633 273.289V274.391C111.633 275.625 111.891 276.607 112.406 277.336C112.922 278.065 113.643 278.43 114.57 278.43C115.404 278.43 116.042 278.242 116.484 277.867C116.932 277.487 117.229 276.828 117.375 275.891H118.883Z" fill="#5452F6"/>
<rect x="0.5" y="240.5" width="165" height="67" rx="7.5" stroke="#5452F6"/>
</g>
<g filter="url(#filter2_d)">
<rect x="654" width="166" height="67" rx="8" fill="#E5FDE8"/>
<g clip-path="url(#clip2)">
<path d="M718.5 42C719.693 42 720.838 41.5259 721.682 40.682C722.526 39.8381 723 38.6935 723 37.5C723 36.3065 722.526 35.1619 721.682 34.318C720.838 33.4741 719.693 33 718.5 33C719.693 33 720.838 32.5259 721.682 31.682C722.526 30.8381 723 29.6935 723 28.5C723 27.3065 722.526 26.1619 721.682 25.318C720.838 24.4741 719.693 24 718.5 24H712.5V42H718.5Z" stroke="#65BF73" stroke-width="1.5" stroke-linecap="round" stroke-linejoin="round"/>
<path d="M712.5 33H718.874" stroke="#65BF73" stroke-width="1.5" stroke-linecap="round" stroke-linejoin="round"/>
<path d="M717 24V21" stroke="#65BF73" stroke-width="1.5" stroke-linecap="round" stroke-linejoin="round"/>
<path d="M717 45V42" stroke="#65BF73" stroke-width="1.5" stroke-linecap="round" stroke-linejoin="round"/>
</g>
<path d="M741.281 39V27.625H745C746.234 27.625 747.161 27.8802 747.781 28.3906C748.406 28.901 748.719 29.6562 748.719 30.6562C748.719 31.1875 748.568 31.6589 748.266 32.0703C747.964 32.4766 747.552 32.7917 747.031 33.0156C747.646 33.1875 748.13 33.5156 748.484 34C748.844 34.4792 749.023 35.0521 749.023 35.7188C749.023 36.7396 748.693 37.5417 748.031 38.125C747.37 38.7083 746.435 39 745.227 39H741.281ZM742.781 33.6797V37.7734H745.258C745.956 37.7734 746.505 37.5938 746.906 37.2344C747.312 36.8698 747.516 36.3698 747.516 35.7344C747.516 34.3646 746.771 33.6797 745.281 33.6797H742.781ZM742.781 32.4766H745.047C745.703 32.4766 746.227 32.3125 746.617 31.9844C747.013 31.6562 747.211 31.2109 747.211 30.6484C747.211 30.0234 747.029 29.5703 746.664 29.2891C746.299 29.0026 745.745 28.8594 745 28.8594H742.781V32.4766ZM750.641 34.6953C750.641 33.8672 750.802 33.1224 751.125 32.4609C751.453 31.7995 751.906 31.2891 752.484 30.9297C753.068 30.5703 753.732 30.3906 754.477 30.3906C755.628 30.3906 756.557 30.7891 757.266 31.5859C757.979 32.3828 758.336 33.4427 758.336 34.7656V34.8672C758.336 35.6901 758.177 36.4297 757.859 37.0859C757.547 37.737 757.096 38.2448 756.508 38.6094C755.924 38.974 755.253 39.1562 754.492 39.1562C753.346 39.1562 752.417 38.7578 751.703 37.9609C750.995 37.1641 750.641 36.1094 750.641 34.7969V34.6953ZM752.094 34.8672C752.094 35.8047 752.31 36.5573 752.742 37.125C753.18 37.6927 753.763 37.9766 754.492 37.9766C755.227 37.9766 755.81 37.6901 756.242 37.1172C756.674 36.5391 756.891 35.7318 756.891 34.6953C756.891 33.7682 756.669 33.0182 756.227 32.4453C755.789 31.8672 755.206 31.5781 754.477 31.5781C753.763 31.5781 753.188 31.862 752.75 32.4297C752.312 32.9974 752.094 33.8099 752.094 34.8672ZM767.305 34.8672C767.305 36.1589 767.008 37.1979 766.414 37.9844C765.82 38.7656 765.023 39.1562 764.023 39.1562C762.956 39.1562 762.13 38.7786 761.547 38.0234L761.477 39H760.148V27H761.594V31.4766C762.177 30.7526 762.982 30.3906 764.008 30.3906C765.034 30.3906 765.839 30.7786 766.422 31.5547C767.01 32.3307 767.305 33.3932 767.305 34.7422V34.8672ZM765.859 34.7031C765.859 33.7188 765.669 32.9583 765.289 32.4219C764.909 31.8854 764.362 31.6172 763.648 31.6172C762.695 31.6172 762.01 32.0599 761.594 32.9453V36.6016C762.036 37.487 762.727 37.9297 763.664 37.9297C764.357 37.9297 764.896 37.6615 765.281 37.125C765.667 36.5885 765.859 35.7812 765.859 34.7031Z" fill="#65BF73"/>
<rect x="654.5" y="0.5" width="165" height="66" rx="7.5" stroke="#65BF73"/>
</g>
<g filter="url(#filter3_d)">
<rect x="654" y="240" width="166" height="67" rx="8" fill="#E5FDE8"/>
<g clip-path="url(#clip3)">
<path d="M718.75 271.25H705.25C704.422 271.25 703.75 271.922 703.75 272.75V283.25C703.75 284.078 704.422 284.75 705.25 284.75H718.75C719.578 284.75 720.25 284.078 720.25 283.25V272.75C720.25 271.922 719.578 271.25 718.75 271.25Z" stroke="#65BF73" stroke-width="1.5" stroke-linecap="round" stroke-linejoin="round"/>
<path d="M706.75 271.25V267.5C706.75 266.108 707.303 264.772 708.288 263.788C709.272 262.803 710.608 262.25 712 262.25C713.392 262.25 714.728 262.803 715.712 263.788C716.697 264.772 717.25 266.108 717.25 267.5V271.25" stroke="#65BF73" stroke-width="1.5" stroke-linecap="round" stroke-linejoin="round"/>
<path d="M712 276.5V279.5" stroke="#65BF73" stroke-width="1.5" stroke-linecap="round" stroke-linejoin="round"/>
</g>
<path d="M744.445 279H742.938V273.742H737.203V279H735.703V267.625H737.203V272.516H742.938V267.625H744.445V279ZM754.734 268.859H751.078V279H749.586V268.859H745.938V267.625H754.734V268.859ZM757.93 277.773H763.32V279H756.422V267.625H757.93V277.773ZM772.883 275.391C772.742 276.594 772.297 277.523 771.547 278.18C770.802 278.831 769.81 279.156 768.57 279.156C767.227 279.156 766.148 278.674 765.336 277.711C764.529 276.747 764.125 275.458 764.125 273.844V272.75C764.125 271.693 764.312 270.763 764.688 269.961C765.068 269.159 765.604 268.544 766.297 268.117C766.99 267.685 767.792 267.469 768.703 267.469C769.911 267.469 770.88 267.807 771.609 268.484C772.339 269.156 772.763 270.089 772.883 271.281H771.375C771.245 270.375 770.961 269.719 770.523 269.312C770.091 268.906 769.484 268.703 768.703 268.703C767.745 268.703 766.992 269.057 766.445 269.766C765.904 270.474 765.633 271.482 765.633 272.789V273.891C765.633 275.125 765.891 276.107 766.406 276.836C766.922 277.565 767.643 277.93 768.57 277.93C769.404 277.93 770.042 277.742 770.484 277.367C770.932 276.987 771.229 276.328 771.375 275.391H772.883Z" fill="#65BF73"/>
<rect x="654.5" y="240.5" width="165" height="66" rx="7.5" stroke="#65BF73"/>
</g>
<path d="M38.4531 154.984L41.1797 150.625H42.9453L39.3516 156.266L43.0312 162H41.25L38.4531 157.562L35.6406 162H33.8672L37.5547 156.266L33.9531 150.625H35.7109L38.4531 154.984ZM52.6328 151.859H48.9766V162H47.4844V151.859H43.8359V150.625H52.6328V151.859ZM55.4453 160.773H61.9531V162H53.6719V160.875L59.9062 151.859H53.7734V150.625H61.7031V151.727L55.4453 160.773Z" fill="#5452F6"/>
<path d="M329.453 154.984L332.18 150.625H333.945L330.352 156.266L334.031 162H332.25L329.453 157.562L326.641 162H324.867L328.555 156.266L324.953 150.625H326.711L329.453 154.984ZM343.633 151.859H339.977V162H338.484V151.859H334.836V150.625H343.633V151.859ZM346.445 160.773H352.953V162H344.672V160.875L350.906 151.859H344.773V150.625H352.703V151.727L346.445 160.773Z" fill="#5452F6"/>
<path d="M755.57 162V150.625H759.289C760.523 150.625 761.451 150.88 762.07 151.391C762.695 151.901 763.008 152.656 763.008 153.656C763.008 154.188 762.857 154.659 762.555 155.07C762.253 155.477 761.841 155.792 761.32 156.016C761.935 156.188 762.419 156.516 762.773 157C763.133 157.479 763.312 158.052 763.312 158.719C763.312 159.74 762.982 160.542 762.32 161.125C761.659 161.708 760.724 162 759.516 162H755.57ZM757.07 156.68V160.773H759.547C760.245 160.773 760.794 160.594 761.195 160.234C761.602 159.87 761.805 159.37 761.805 158.734C761.805 157.365 761.06 156.68 759.57 156.68H757.07ZM757.07 155.477H759.336C759.992 155.477 760.516 155.312 760.906 154.984C761.302 154.656 761.5 154.211 761.5 153.648C761.5 153.023 761.318 152.57 760.953 152.289C760.589 152.003 760.034 151.859 759.289 151.859H757.07V155.477ZM773.18 151.859H769.523V162H768.031V151.859H764.383V150.625H773.18V151.859ZM783.016 158.391C782.875 159.594 782.43 160.523 781.68 161.18C780.935 161.831 779.943 162.156 778.703 162.156C777.359 162.156 776.281 161.674 775.469 160.711C774.661 159.747 774.258 158.458 774.258 156.844V155.75C774.258 154.693 774.445 153.763 774.82 152.961C775.201 152.159 775.737 151.544 776.43 151.117C777.122 150.685 777.924 150.469 778.836 150.469C780.044 150.469 781.013 150.807 781.742 151.484C782.471 152.156 782.896 153.089 783.016 154.281H781.508C781.378 153.375 781.094 152.719 780.656 152.312C780.224 151.906 779.617 151.703 778.836 151.703C777.878 151.703 777.125 152.057 776.578 152.766C776.036 153.474 775.766 154.482 775.766 155.789V156.891C775.766 158.125 776.023 159.107 776.539 159.836C777.055 160.565 777.776 160.93 778.703 160.93C779.536 160.93 780.174 160.742 780.617 160.367C781.065 159.987 781.362 159.328 781.508 158.391H783.016Z" fill="#65BF73"/>
<path d="M459.57 162V150.625H463.289C464.523 150.625 465.451 150.88 466.07 151.391C466.695 151.901 467.008 152.656 467.008 153.656C467.008 154.188 466.857 154.659 466.555 155.07C466.253 155.477 465.841 155.792 465.32 156.016C465.935 156.188 466.419 156.516 466.773 157C467.133 157.479 467.312 158.052 467.312 158.719C467.312 159.74 466.982 160.542 466.32 161.125C465.659 161.708 464.724 162 463.516 162H459.57ZM461.07 156.68V160.773H463.547C464.245 160.773 464.794 160.594 465.195 160.234C465.602 159.87 465.805 159.37 465.805 158.734C465.805 157.365 465.06 156.68 463.57 156.68H461.07ZM461.07 155.477H463.336C463.992 155.477 464.516 155.312 464.906 154.984C465.302 154.656 465.5 154.211 465.5 153.648C465.5 153.023 465.318 152.57 464.953 152.289C464.589 152.003 464.034 151.859 463.289 151.859H461.07V155.477ZM477.18 151.859H473.523V162H472.031V151.859H468.383V150.625H477.18V151.859ZM487.016 158.391C486.875 159.594 486.43 160.523 485.68 161.18C484.935 161.831 483.943 162.156 482.703 162.156C481.359 162.156 480.281 161.674 479.469 160.711C478.661 159.747 478.258 158.458 478.258 156.844V155.75C478.258 154.693 478.445 153.763 478.82 152.961C479.201 152.159 479.737 151.544 480.43 151.117C481.122 150.685 481.924 150.469 482.836 150.469C484.044 150.469 485.013 150.807 485.742 151.484C486.471 152.156 486.896 153.089 487.016 154.281H485.508C485.378 153.375 485.094 152.719 484.656 152.312C484.224 151.906 483.617 151.703 482.836 151.703C481.878 151.703 481.125 152.057 480.578 152.766C480.036 153.474 479.766 154.482 479.766 155.789V156.891C479.766 158.125 480.023 159.107 480.539 159.836C481.055 160.565 481.776 160.93 482.703 160.93C483.536 160.93 484.174 160.742 484.617 160.367C485.065 159.987 485.362 159.328 485.508 158.391H487.016Z" fill="#65BF73"/>
<path d="M392.773 308.93C391.487 308.56 390.549 308.107 389.961 307.57C389.378 307.029 389.086 306.362 389.086 305.57C389.086 304.674 389.443 303.935 390.156 303.352C390.875 302.763 391.807 302.469 392.953 302.469C393.734 302.469 394.43 302.62 395.039 302.922C395.654 303.224 396.128 303.641 396.461 304.172C396.799 304.703 396.969 305.284 396.969 305.914H395.461C395.461 305.227 395.242 304.688 394.805 304.297C394.367 303.901 393.75 303.703 392.953 303.703C392.214 303.703 391.635 303.867 391.219 304.195C390.807 304.518 390.602 304.969 390.602 305.547C390.602 306.01 390.797 306.404 391.188 306.727C391.583 307.044 392.253 307.336 393.195 307.602C394.143 307.867 394.883 308.161 395.414 308.484C395.951 308.802 396.346 309.174 396.602 309.602C396.862 310.029 396.992 310.531 396.992 311.109C396.992 312.031 396.633 312.771 395.914 313.328C395.195 313.88 394.234 314.156 393.031 314.156C392.25 314.156 391.521 314.008 390.844 313.711C390.167 313.409 389.643 312.997 389.273 312.477C388.909 311.956 388.727 311.365 388.727 310.703H390.234C390.234 311.391 390.487 311.935 390.992 312.336C391.503 312.732 392.182 312.93 393.031 312.93C393.823 312.93 394.43 312.768 394.852 312.445C395.273 312.122 395.484 311.682 395.484 311.125C395.484 310.568 395.289 310.138 394.898 309.836C394.508 309.529 393.799 309.227 392.773 308.93ZM400.266 314H398.82V305.547H400.266V314ZM398.703 303.305C398.703 303.07 398.773 302.872 398.914 302.711C399.06 302.549 399.273 302.469 399.555 302.469C399.836 302.469 400.049 302.549 400.195 302.711C400.341 302.872 400.414 303.07 400.414 303.305C400.414 303.539 400.341 303.734 400.195 303.891C400.049 304.047 399.836 304.125 399.555 304.125C399.273 304.125 399.06 304.047 398.914 303.891C398.773 303.734 398.703 303.539 398.703 303.305ZM402.242 309.703C402.242 308.385 402.547 307.339 403.156 306.562C403.766 305.781 404.573 305.391 405.578 305.391C406.609 305.391 407.414 305.755 407.992 306.484L408.062 305.547H409.383V313.797C409.383 314.891 409.057 315.753 408.406 316.383C407.76 317.013 406.891 317.328 405.797 317.328C405.188 317.328 404.591 317.198 404.008 316.938C403.424 316.677 402.979 316.32 402.672 315.867L403.422 315C404.042 315.766 404.799 316.148 405.695 316.148C406.398 316.148 406.945 315.951 407.336 315.555C407.732 315.159 407.93 314.602 407.93 313.883V313.156C407.352 313.823 406.562 314.156 405.562 314.156C404.573 314.156 403.771 313.758 403.156 312.961C402.547 312.164 402.242 311.078 402.242 309.703ZM403.695 309.867C403.695 310.82 403.891 311.57 404.281 312.117C404.672 312.659 405.219 312.93 405.922 312.93C406.833 312.93 407.503 312.516 407.93 311.688V307.828C407.487 307.021 406.823 306.617 405.938 306.617C405.234 306.617 404.685 306.891 404.289 307.438C403.893 307.984 403.695 308.794 403.695 309.867ZM412.938 305.547L412.984 306.609C413.63 305.797 414.474 305.391 415.516 305.391C417.302 305.391 418.203 306.398 418.219 308.414V314H416.773V308.406C416.768 307.797 416.628 307.346 416.352 307.055C416.081 306.763 415.656 306.617 415.078 306.617C414.609 306.617 414.198 306.742 413.844 306.992C413.49 307.242 413.214 307.57 413.016 307.977V314H411.57V305.547H412.938ZM425.617 314C425.534 313.833 425.466 313.536 425.414 313.109C424.742 313.807 423.94 314.156 423.008 314.156C422.174 314.156 421.49 313.922 420.953 313.453C420.422 312.979 420.156 312.38 420.156 311.656C420.156 310.776 420.49 310.094 421.156 309.609C421.828 309.12 422.771 308.875 423.984 308.875H425.391V308.211C425.391 307.706 425.24 307.305 424.938 307.008C424.635 306.706 424.19 306.555 423.602 306.555C423.086 306.555 422.654 306.685 422.305 306.945C421.956 307.206 421.781 307.521 421.781 307.891H420.328C420.328 307.469 420.477 307.062 420.773 306.672C421.076 306.276 421.482 305.964 421.992 305.734C422.508 305.505 423.073 305.391 423.688 305.391C424.661 305.391 425.424 305.635 425.977 306.125C426.529 306.609 426.815 307.279 426.836 308.133V312.023C426.836 312.799 426.935 313.417 427.133 313.875V314H425.617ZM423.219 312.898C423.672 312.898 424.102 312.781 424.508 312.547C424.914 312.312 425.208 312.008 425.391 311.633V309.898H424.258C422.487 309.898 421.602 310.417 421.602 311.453C421.602 311.906 421.753 312.26 422.055 312.516C422.357 312.771 422.745 312.898 423.219 312.898ZM430.672 314H429.227V302H430.672V314Z" fill="url(#paint1_linear)"/>
<defs>
<filter id="filter0_d" x="0" y="0" width="170" height="71" filterUnits="userSpaceOnUse" color-interpolation-filters="sRGB">
<feFlood flood-opacity="0" result="BackgroundImageFix"/>
<feColorMatrix in="SourceAlpha" type="matrix" values="0 0 0 0 0 0 0 0 0 0 0 0 0 0 0 0 0 0 127 0"/>
<feOffset dx="4" dy="4"/>
<feColorMatrix type="matrix" values="0 0 0 0 0.674908 0 0 0 0 0.662083 0 0 0 0 0.945833 0 0 0 1 0"/>
<feBlend mode="normal" in2="BackgroundImageFix" result="effect1_dropShadow"/>
<feBlend mode="normal" in="SourceGraphic" in2="effect1_dropShadow" result="shape"/>
</filter>
<filter id="filter1_d" x="0" y="240" width="170" height="72" filterUnits="userSpaceOnUse" color-interpolation-filters="sRGB">
<feFlood flood-opacity="0" result="BackgroundImageFix"/>
<feColorMatrix in="SourceAlpha" type="matrix" values="0 0 0 0 0 0 0 0 0 0 0 0 0 0 0 0 0 0 127 0"/>
<feOffset dx="4" dy="4"/>
<feColorMatrix type="matrix" values="0 0 0 0 0.674908 0 0 0 0 0.662083 0 0 0 0 0.945833 0 0 0 1 0"/>
<feBlend mode="normal" in2="BackgroundImageFix" result="effect1_dropShadow"/>
<feBlend mode="normal" in="SourceGraphic" in2="effect1_dropShadow" result="shape"/>
</filter>
<filter id="filter2_d" x="654" y="0" width="170" height="71" filterUnits="userSpaceOnUse" color-interpolation-filters="sRGB">
<feFlood flood-opacity="0" result="BackgroundImageFix"/>
<feColorMatrix in="SourceAlpha" type="matrix" values="0 0 0 0 0 0 0 0 0 0 0 0 0 0 0 0 0 0 127 0"/>
<feOffset dx="4" dy="4"/>
<feColorMatrix type="matrix" values="0 0 0 0 0.576471 0 0 0 0 0.776471 0 0 0 0 0.607843 0 0 0 1 0"/>
<feBlend mode="normal" in2="BackgroundImageFix" result="effect1_dropShadow"/>
<feBlend mode="normal" in="SourceGraphic" in2="effect1_dropShadow" result="shape"/>
</filter>
<filter id="filter3_d" x="654" y="240" width="170" height="71" filterUnits="userSpaceOnUse" color-interpolation-filters="sRGB">
<feFlood flood-opacity="0" result="BackgroundImageFix"/>
<feColorMatrix in="SourceAlpha" type="matrix" values="0 0 0 0 0 0 0 0 0 0 0 0 0 0 0 0 0 0 127 0"/>
<feOffset dx="4" dy="4"/>
<feColorMatrix type="matrix" values="0 0 0 0 0.576471 0 0 0 0 0.776471 0 0 0 0 0.607843 0 0 0 1 0"/>
<feBlend mode="normal" in2="BackgroundImageFix" result="effect1_dropShadow"/>
<feBlend mode="normal" in="SourceGraphic" in2="effect1_dropShadow" result="shape"/>
</filter>
<linearGradient id="paint0_linear" x1="165" y1="282.997" x2="656" y2="283" gradientUnits="userSpaceOnUse">
<stop stop-color="#5452F6"/>
<stop offset="1" stop-color="#65BF73"/>
</linearGradient>
<linearGradient id="paint1_linear" x1="432" y1="308" x2="388" y2="308" gradientUnits="userSpaceOnUse">
<stop stop-color="#65BF73"/>
<stop offset="1" stop-color="#5452F6"/>
</linearGradient>
<clipPath id="clip0">
<rect width="570" height="20" fill="white" transform="translate(141 280.775) rotate(-27)"/>
</clipPath>
<clipPath id="clip1">
<rect width="570" height="20" fill="white" transform="translate(670.874 298.595) rotate(-153)"/>
</clipPath>
<clipPath id="clip2">
<rect width="24" height="24" fill="white" transform="translate(705.5 21.5)"/>
</clipPath>
<clipPath id="clip3">
<rect width="24" height="24" fill="white" transform="translate(700 261.5)"/>
</clipPath>
</defs>
</svg>
