<svg width="732" height="359" viewBox="0 0 732 359" fill="none" xmlns="http://www.w3.org/2000/svg">
<g filter="url(#filter0_d)">
<rect x="242" width="486" height="355" rx="8" fill="white"/>
<rect x="242.5" y="0.5" width="485" height="354" rx="7.5" stroke="#5452F6"/>
</g>
<path d="M376.711 70.1797H372.133V75H370.156V63.625H377.383V65.2188H372.133V68.6016H376.711V70.1797ZM383.82 72.3516H379.414L378.492 75H376.438L380.734 63.625H382.508L386.812 75H384.75L383.82 72.3516ZM379.969 70.7578H383.266L381.617 66.0391L379.969 70.7578ZM394.289 64.4922V66.5469H395.781V67.9531H394.289V72.6719C394.289 72.9948 394.352 73.2292 394.477 73.375C394.607 73.5156 394.836 73.5859 395.164 73.5859C395.383 73.5859 395.604 73.5599 395.828 73.5078V74.9766C395.396 75.0964 394.979 75.1562 394.578 75.1562C393.12 75.1562 392.391 74.3516 392.391 72.7422V67.9531H391V66.5469H392.391V64.4922H394.289ZM396.648 70.6953C396.648 69.8672 396.812 69.1224 397.141 68.4609C397.469 67.7943 397.93 67.2839 398.523 66.9297C399.117 66.5703 399.799 66.3906 400.57 66.3906C401.711 66.3906 402.635 66.7578 403.344 67.4922C404.057 68.2266 404.443 69.2005 404.5 70.4141L404.508 70.8594C404.508 71.6927 404.346 72.4375 404.023 73.0938C403.706 73.75 403.247 74.2578 402.648 74.6172C402.055 74.9766 401.367 75.1562 400.586 75.1562C399.393 75.1562 398.438 74.7604 397.719 73.9688C397.005 73.1719 396.648 72.112 396.648 70.7891V70.6953ZM398.547 70.8594C398.547 71.7292 398.727 72.4115 399.086 72.9062C399.445 73.3958 399.945 73.6406 400.586 73.6406C401.227 73.6406 401.724 73.3906 402.078 72.8906C402.438 72.3906 402.617 71.6589 402.617 70.6953C402.617 69.8411 402.432 69.1641 402.062 68.6641C401.698 68.1641 401.201 67.9141 400.57 67.9141C399.951 67.9141 399.458 68.1615 399.094 68.6562C398.729 69.1458 398.547 69.8802 398.547 70.8594ZM408.859 71.375L408.016 72.2422V75H406.117V63H408.016V69.9219L408.609 69.1797L410.945 66.5469H413.227L410.086 70.0703L413.562 75H411.367L408.859 71.375ZM418.039 75.1562C416.836 75.1562 415.859 74.7786 415.109 74.0234C414.365 73.263 413.992 72.2526 413.992 70.9922V70.7578C413.992 69.9141 414.154 69.1615 414.477 68.5C414.805 67.8333 415.263 67.3151 415.852 66.9453C416.44 66.5755 417.096 66.3906 417.82 66.3906C418.971 66.3906 419.859 66.7578 420.484 67.4922C421.115 68.2266 421.43 69.2656 421.43 70.6094V71.375H415.906C415.964 72.0729 416.195 72.625 416.602 73.0312C417.013 73.4375 417.529 73.6406 418.148 73.6406C419.018 73.6406 419.727 73.2891 420.273 72.5859L421.297 73.5625C420.958 74.0677 420.505 74.4609 419.938 74.7422C419.375 75.0182 418.742 75.1562 418.039 75.1562ZM417.812 67.9141C417.292 67.9141 416.87 68.0964 416.547 68.4609C416.229 68.8255 416.026 69.3333 415.938 69.9844H419.555V69.8438C419.513 69.2083 419.344 68.7292 419.047 68.4062C418.75 68.0781 418.339 67.9141 417.812 67.9141ZM424.672 66.5469L424.727 67.5234C425.352 66.7682 426.172 66.3906 427.188 66.3906C428.948 66.3906 429.844 67.3984 429.875 69.4141V75H427.977V69.5234C427.977 68.987 427.859 68.5911 427.625 68.3359C427.396 68.0755 427.018 67.9453 426.492 67.9453C425.727 67.9453 425.156 68.2917 424.781 68.9844V75H422.883V66.5469H424.672ZM436.555 72.7031C436.555 72.3646 436.414 72.1068 436.133 71.9297C435.857 71.7526 435.396 71.5964 434.75 71.4609C434.104 71.3255 433.565 71.1536 433.133 70.9453C432.185 70.487 431.711 69.8229 431.711 68.9531C431.711 68.224 432.018 67.6146 432.633 67.125C433.247 66.6354 434.029 66.3906 434.977 66.3906C435.987 66.3906 436.802 66.6406 437.422 67.1406C438.047 67.6406 438.359 68.2891 438.359 69.0859H436.461C436.461 68.7214 436.326 68.4193 436.055 68.1797C435.784 67.9349 435.424 67.8125 434.977 67.8125C434.56 67.8125 434.219 67.9089 433.953 68.1016C433.693 68.2943 433.562 68.5521 433.562 68.875C433.562 69.1667 433.685 69.3932 433.93 69.5547C434.174 69.7161 434.669 69.8802 435.414 70.0469C436.159 70.2083 436.742 70.4036 437.164 70.6328C437.591 70.8568 437.906 71.1276 438.109 71.4453C438.318 71.763 438.422 72.1484 438.422 72.6016C438.422 73.362 438.107 73.9792 437.477 74.4531C436.846 74.9219 436.021 75.1562 435 75.1562C434.307 75.1562 433.69 75.0312 433.148 74.7812C432.607 74.5312 432.185 74.1875 431.883 73.75C431.581 73.3125 431.43 72.8411 431.43 72.3359H433.273C433.299 72.7839 433.469 73.1302 433.781 73.375C434.094 73.6146 434.508 73.7344 435.023 73.7344C435.523 73.7344 435.904 73.6406 436.164 73.4531C436.424 73.2604 436.555 73.0104 436.555 72.7031ZM447.539 73.6406C448.013 73.6406 448.406 73.5026 448.719 73.2266C449.031 72.9505 449.198 72.6094 449.219 72.2031H451.008C450.987 72.7292 450.823 73.2214 450.516 73.6797C450.208 74.1328 449.792 74.4922 449.266 74.7578C448.74 75.0234 448.172 75.1562 447.562 75.1562C446.38 75.1562 445.443 74.7734 444.75 74.0078C444.057 73.2422 443.711 72.1849 443.711 70.8359V70.6406C443.711 69.3542 444.055 68.3255 444.742 67.5547C445.43 66.7786 446.367 66.3906 447.555 66.3906C448.56 66.3906 449.378 66.6849 450.008 67.2734C450.643 67.8568 450.977 68.625 451.008 69.5781H449.219C449.198 69.0938 449.031 68.6953 448.719 68.3828C448.411 68.0703 448.018 67.9141 447.539 67.9141C446.924 67.9141 446.451 68.138 446.117 68.5859C445.784 69.0286 445.615 69.7031 445.609 70.6094V70.9141C445.609 71.8307 445.773 72.5156 446.102 72.9688C446.435 73.4167 446.914 73.6406 447.539 73.6406ZM457.492 75C457.409 74.8385 457.336 74.5755 457.273 74.2109C456.669 74.8411 455.93 75.1562 455.055 75.1562C454.206 75.1562 453.513 74.9141 452.977 74.4297C452.44 73.9453 452.172 73.3464 452.172 72.6328C452.172 71.7318 452.505 71.0417 453.172 70.5625C453.844 70.0781 454.802 69.8359 456.047 69.8359H457.211V69.2812C457.211 68.8438 457.089 68.4948 456.844 68.2344C456.599 67.9688 456.227 67.8359 455.727 67.8359C455.294 67.8359 454.94 67.9453 454.664 68.1641C454.388 68.3776 454.25 68.651 454.25 68.9844H452.352C452.352 68.5208 452.505 68.0885 452.812 67.6875C453.12 67.2812 453.536 66.9635 454.062 66.7344C454.594 66.5052 455.185 66.3906 455.836 66.3906C456.826 66.3906 457.615 66.6406 458.203 67.1406C458.792 67.6354 459.094 68.3333 459.109 69.2344V73.0469C459.109 73.8073 459.216 74.4141 459.43 74.8672V75H457.492ZM455.406 73.6328C455.781 73.6328 456.133 73.5417 456.461 73.3594C456.794 73.1771 457.044 72.9323 457.211 72.625V71.0312H456.188C455.484 71.0312 454.956 71.1536 454.602 71.3984C454.247 71.6432 454.07 71.9896 454.07 72.4375C454.07 72.8021 454.19 73.0938 454.43 73.3125C454.674 73.526 455 73.6328 455.406 73.6328ZM462.859 66.5469L462.914 67.5234C463.539 66.7682 464.359 66.3906 465.375 66.3906C467.135 66.3906 468.031 67.3984 468.062 69.4141V75H466.164V69.5234C466.164 68.987 466.047 68.5911 465.812 68.3359C465.583 68.0755 465.206 67.9453 464.68 67.9453C463.914 67.9453 463.344 68.2917 462.969 68.9844V75H461.07V66.5469H462.859ZM476.008 75H474.109V66.5469H476.008V75ZM473.992 64.3516C473.992 64.0599 474.083 63.8177 474.266 63.625C474.453 63.4323 474.719 63.3359 475.062 63.3359C475.406 63.3359 475.672 63.4323 475.859 63.625C476.047 63.8177 476.141 64.0599 476.141 64.3516C476.141 64.638 476.047 64.8776 475.859 65.0703C475.672 65.2578 475.406 65.3516 475.062 65.3516C474.719 65.3516 474.453 65.2578 474.266 65.0703C474.083 64.8776 473.992 64.638 473.992 64.3516ZM479.844 66.5469L479.898 67.5234C480.523 66.7682 481.344 66.3906 482.359 66.3906C484.12 66.3906 485.016 67.3984 485.047 69.4141V75H483.148V69.5234C483.148 68.987 483.031 68.5911 482.797 68.3359C482.568 68.0755 482.19 67.9453 481.664 67.9453C480.898 67.9453 480.328 68.2917 479.953 68.9844V75H478.055V66.5469H479.844ZM489.367 64.4922V66.5469H490.859V67.9531H489.367V72.6719C489.367 72.9948 489.43 73.2292 489.555 73.375C489.685 73.5156 489.914 73.5859 490.242 73.5859C490.461 73.5859 490.682 73.5599 490.906 73.5078V74.9766C490.474 75.0964 490.057 75.1562 489.656 75.1562C488.198 75.1562 487.469 74.3516 487.469 72.7422V67.9531H486.078V66.5469H487.469V64.4922H489.367ZM496.039 75.1562C494.836 75.1562 493.859 74.7786 493.109 74.0234C492.365 73.263 491.992 72.2526 491.992 70.9922V70.7578C491.992 69.9141 492.154 69.1615 492.477 68.5C492.805 67.8333 493.263 67.3151 493.852 66.9453C494.44 66.5755 495.096 66.3906 495.82 66.3906C496.971 66.3906 497.859 66.7578 498.484 67.4922C499.115 68.2266 499.43 69.2656 499.43 70.6094V71.375H493.906C493.964 72.0729 494.195 72.625 494.602 73.0312C495.013 73.4375 495.529 73.6406 496.148 73.6406C497.018 73.6406 497.727 73.2891 498.273 72.5859L499.297 73.5625C498.958 74.0677 498.505 74.4609 497.938 74.7422C497.375 75.0182 496.742 75.1562 496.039 75.1562ZM495.812 67.9141C495.292 67.9141 494.87 68.0964 494.547 68.4609C494.229 68.8255 494.026 69.3333 493.938 69.9844H497.555V69.8438C497.513 69.2083 497.344 68.7292 497.047 68.4062C496.75 68.0781 496.339 67.9141 495.812 67.9141ZM505.336 68.2812C505.086 68.2396 504.828 68.2188 504.562 68.2188C503.693 68.2188 503.107 68.5521 502.805 69.2188V75H500.906V66.5469H502.719L502.766 67.4922C503.224 66.7578 503.859 66.3906 504.672 66.3906C504.943 66.3906 505.167 66.4271 505.344 66.5L505.336 68.2812ZM511.352 75C511.268 74.8385 511.195 74.5755 511.133 74.2109C510.529 74.8411 509.789 75.1562 508.914 75.1562C508.065 75.1562 507.372 74.9141 506.836 74.4297C506.299 73.9453 506.031 73.3464 506.031 72.6328C506.031 71.7318 506.365 71.0417 507.031 70.5625C507.703 70.0781 508.661 69.8359 509.906 69.8359H511.07V69.2812C511.07 68.8438 510.948 68.4948 510.703 68.2344C510.458 67.9688 510.086 67.8359 509.586 67.8359C509.154 67.8359 508.799 67.9453 508.523 68.1641C508.247 68.3776 508.109 68.651 508.109 68.9844H506.211C506.211 68.5208 506.365 68.0885 506.672 67.6875C506.979 67.2812 507.396 66.9635 507.922 66.7344C508.453 66.5052 509.044 66.3906 509.695 66.3906C510.685 66.3906 511.474 66.6406 512.062 67.1406C512.651 67.6354 512.953 68.3333 512.969 69.2344V73.0469C512.969 73.8073 513.076 74.4141 513.289 74.8672V75H511.352ZM509.266 73.6328C509.641 73.6328 509.992 73.5417 510.32 73.3594C510.654 73.1771 510.904 72.9323 511.07 72.625V71.0312H510.047C509.344 71.0312 508.815 71.1536 508.461 71.3984C508.107 71.6432 507.93 71.9896 507.93 72.4375C507.93 72.8021 508.049 73.0938 508.289 73.3125C508.534 73.526 508.859 73.6328 509.266 73.6328ZM518.43 73.6406C518.904 73.6406 519.297 73.5026 519.609 73.2266C519.922 72.9505 520.089 72.6094 520.109 72.2031H521.898C521.878 72.7292 521.714 73.2214 521.406 73.6797C521.099 74.1328 520.682 74.4922 520.156 74.7578C519.63 75.0234 519.062 75.1562 518.453 75.1562C517.271 75.1562 516.333 74.7734 515.641 74.0078C514.948 73.2422 514.602 72.1849 514.602 70.8359V70.6406C514.602 69.3542 514.945 68.3255 515.633 67.5547C516.32 66.7786 517.258 66.3906 518.445 66.3906C519.451 66.3906 520.268 66.6849 520.898 67.2734C521.534 67.8568 521.867 68.625 521.898 69.5781H520.109C520.089 69.0938 519.922 68.6953 519.609 68.3828C519.302 68.0703 518.909 67.9141 518.43 67.9141C517.815 67.9141 517.341 68.138 517.008 68.5859C516.674 69.0286 516.505 69.7031 516.5 70.6094V70.9141C516.5 71.8307 516.664 72.5156 516.992 72.9688C517.326 73.4167 517.805 73.6406 518.43 73.6406ZM525.711 64.4922V66.5469H527.203V67.9531H525.711V72.6719C525.711 72.9948 525.773 73.2292 525.898 73.375C526.029 73.5156 526.258 73.5859 526.586 73.5859C526.805 73.5859 527.026 73.5599 527.25 73.5078V74.9766C526.818 75.0964 526.401 75.1562 526 75.1562C524.542 75.1562 523.812 74.3516 523.812 72.7422V67.9531H522.422V66.5469H523.812V64.4922H525.711ZM540.07 72.3828L541.414 66.5469H543.266L540.961 75H539.398L537.586 69.1953L535.805 75H534.242L531.93 66.5469H533.781L535.148 72.3203L536.883 66.5469H538.312L540.07 72.3828ZM546.555 75H544.656V66.5469H546.555V75ZM544.539 64.3516C544.539 64.0599 544.63 63.8177 544.812 63.625C545 63.4323 545.266 63.3359 545.609 63.3359C545.953 63.3359 546.219 63.4323 546.406 63.625C546.594 63.8177 546.688 64.0599 546.688 64.3516C546.688 64.638 546.594 64.8776 546.406 65.0703C546.219 65.2578 545.953 65.3516 545.609 65.3516C545.266 65.3516 545 65.2578 544.812 65.0703C544.63 64.8776 544.539 64.638 544.539 64.3516ZM551.008 64.4922V66.5469H552.5V67.9531H551.008V72.6719C551.008 72.9948 551.07 73.2292 551.195 73.375C551.326 73.5156 551.555 73.5859 551.883 73.5859C552.102 73.5859 552.323 73.5599 552.547 73.5078V74.9766C552.115 75.0964 551.698 75.1562 551.297 75.1562C549.839 75.1562 549.109 74.3516 549.109 72.7422V67.9531H547.719V66.5469H549.109V64.4922H551.008ZM555.828 67.4688C556.448 66.75 557.232 66.3906 558.18 66.3906C559.982 66.3906 560.896 67.4193 560.922 69.4766V75H559.023V69.5469C559.023 68.9635 558.896 68.5521 558.641 68.3125C558.391 68.0677 558.021 67.9453 557.531 67.9453C556.771 67.9453 556.203 68.2839 555.828 68.9609V75H553.93V63H555.828V67.4688ZM570.555 75.1562C569.352 75.1562 568.375 74.7786 567.625 74.0234C566.88 73.263 566.508 72.2526 566.508 70.9922V70.7578C566.508 69.9141 566.669 69.1615 566.992 68.5C567.32 67.8333 567.779 67.3151 568.367 66.9453C568.956 66.5755 569.612 66.3906 570.336 66.3906C571.487 66.3906 572.375 66.7578 573 67.4922C573.63 68.2266 573.945 69.2656 573.945 70.6094V71.375H568.422C568.479 72.0729 568.711 72.625 569.117 73.0312C569.529 73.4375 570.044 73.6406 570.664 73.6406C571.534 73.6406 572.242 73.2891 572.789 72.5859L573.812 73.5625C573.474 74.0677 573.021 74.4609 572.453 74.7422C571.891 75.0182 571.258 75.1562 570.555 75.1562ZM570.328 67.9141C569.807 67.9141 569.385 68.0964 569.062 68.4609C568.745 68.8255 568.542 69.3333 568.453 69.9844H572.07V69.8438C572.029 69.2083 571.859 68.7292 571.562 68.4062C571.266 68.0781 570.854 67.9141 570.328 67.9141ZM580.477 75C580.393 74.8385 580.32 74.5755 580.258 74.2109C579.654 74.8411 578.914 75.1562 578.039 75.1562C577.19 75.1562 576.497 74.9141 575.961 74.4297C575.424 73.9453 575.156 73.3464 575.156 72.6328C575.156 71.7318 575.49 71.0417 576.156 70.5625C576.828 70.0781 577.786 69.8359 579.031 69.8359H580.195V69.2812C580.195 68.8438 580.073 68.4948 579.828 68.2344C579.583 67.9688 579.211 67.8359 578.711 67.8359C578.279 67.8359 577.924 67.9453 577.648 68.1641C577.372 68.3776 577.234 68.651 577.234 68.9844H575.336C575.336 68.5208 575.49 68.0885 575.797 67.6875C576.104 67.2812 576.521 66.9635 577.047 66.7344C577.578 66.5052 578.169 66.3906 578.82 66.3906C579.81 66.3906 580.599 66.6406 581.188 67.1406C581.776 67.6354 582.078 68.3333 582.094 69.2344V73.0469C582.094 73.8073 582.201 74.4141 582.414 74.8672V75H580.477ZM578.391 73.6328C578.766 73.6328 579.117 73.5417 579.445 73.3594C579.779 73.1771 580.029 72.9323 580.195 72.625V71.0312H579.172C578.469 71.0312 577.94 71.1536 577.586 71.3984C577.232 71.6432 577.055 71.9896 577.055 72.4375C577.055 72.8021 577.174 73.0938 577.414 73.3125C577.659 73.526 577.984 73.6328 578.391 73.6328ZM587.555 73.6406C588.029 73.6406 588.422 73.5026 588.734 73.2266C589.047 72.9505 589.214 72.6094 589.234 72.2031H591.023C591.003 72.7292 590.839 73.2214 590.531 73.6797C590.224 74.1328 589.807 74.4922 589.281 74.7578C588.755 75.0234 588.188 75.1562 587.578 75.1562C586.396 75.1562 585.458 74.7734 584.766 74.0078C584.073 73.2422 583.727 72.1849 583.727 70.8359V70.6406C583.727 69.3542 584.07 68.3255 584.758 67.5547C585.445 66.7786 586.383 66.3906 587.57 66.3906C588.576 66.3906 589.393 66.6849 590.023 67.2734C590.659 67.8568 590.992 68.625 591.023 69.5781H589.234C589.214 69.0938 589.047 68.6953 588.734 68.3828C588.427 68.0703 588.034 67.9141 587.555 67.9141C586.94 67.9141 586.466 68.138 586.133 68.5859C585.799 69.0286 585.63 69.7031 585.625 70.6094V70.9141C585.625 71.8307 585.789 72.5156 586.117 72.9688C586.451 73.4167 586.93 73.6406 587.555 73.6406ZM594.328 67.4688C594.948 66.75 595.732 66.3906 596.68 66.3906C598.482 66.3906 599.396 67.4193 599.422 69.4766V75H597.523V69.5469C597.523 68.9635 597.396 68.5521 597.141 68.3125C596.891 68.0677 596.521 67.9453 596.031 67.9453C595.271 67.9453 594.703 68.2839 594.328 68.9609V75H592.43V63H594.328V67.4688ZM604.977 70.6953C604.977 69.8672 605.141 69.1224 605.469 68.4609C605.797 67.7943 606.258 67.2839 606.852 66.9297C607.445 66.5703 608.128 66.3906 608.898 66.3906C610.039 66.3906 610.964 66.7578 611.672 67.4922C612.385 68.2266 612.771 69.2005 612.828 70.4141L612.836 70.8594C612.836 71.6927 612.674 72.4375 612.352 73.0938C612.034 73.75 611.576 74.2578 610.977 74.6172C610.383 74.9766 609.695 75.1562 608.914 75.1562C607.721 75.1562 606.766 74.7604 606.047 73.9688C605.333 73.1719 604.977 72.112 604.977 70.7891V70.6953ZM606.875 70.8594C606.875 71.7292 607.055 72.4115 607.414 72.9062C607.773 73.3958 608.273 73.6406 608.914 73.6406C609.555 73.6406 610.052 73.3906 610.406 72.8906C610.766 72.3906 610.945 71.6589 610.945 70.6953C610.945 69.8411 610.76 69.1641 610.391 68.6641C610.026 68.1641 609.529 67.9141 608.898 67.9141C608.279 67.9141 607.786 68.1615 607.422 68.6562C607.057 69.1458 606.875 69.8802 606.875 70.8594ZM616.82 64.4922V66.5469H618.312V67.9531H616.82V72.6719C616.82 72.9948 616.883 73.2292 617.008 73.375C617.138 73.5156 617.367 73.5859 617.695 73.5859C617.914 73.5859 618.135 73.5599 618.359 73.5078V74.9766C617.927 75.0964 617.51 75.1562 617.109 75.1562C615.651 75.1562 614.922 74.3516 614.922 72.7422V67.9531H613.531V66.5469H614.922V64.4922H616.82ZM621.641 67.4688C622.26 66.75 623.044 66.3906 623.992 66.3906C625.794 66.3906 626.708 67.4193 626.734 69.4766V75H624.836V69.5469C624.836 68.9635 624.708 68.5521 624.453 68.3125C624.203 68.0677 623.833 67.9453 623.344 67.9453C622.583 67.9453 622.016 68.2839 621.641 68.9609V75H619.742V63H621.641V67.4688ZM632.383 75.1562C631.18 75.1562 630.203 74.7786 629.453 74.0234C628.708 73.263 628.336 72.2526 628.336 70.9922V70.7578C628.336 69.9141 628.497 69.1615 628.82 68.5C629.148 67.8333 629.607 67.3151 630.195 66.9453C630.784 66.5755 631.44 66.3906 632.164 66.3906C633.315 66.3906 634.203 66.7578 634.828 67.4922C635.458 68.2266 635.773 69.2656 635.773 70.6094V71.375H630.25C630.307 72.0729 630.539 72.625 630.945 73.0312C631.357 73.4375 631.872 73.6406 632.492 73.6406C633.362 73.6406 634.07 73.2891 634.617 72.5859L635.641 73.5625C635.302 74.0677 634.849 74.4609 634.281 74.7422C633.719 75.0182 633.086 75.1562 632.383 75.1562ZM632.156 67.9141C631.635 67.9141 631.214 68.0964 630.891 68.4609C630.573 68.8255 630.37 69.3333 630.281 69.9844H633.898V69.8438C633.857 69.2083 633.688 68.7292 633.391 68.4062C633.094 68.0781 632.682 67.9141 632.156 67.9141ZM641.68 68.2812C641.43 68.2396 641.172 68.2188 640.906 68.2188C640.036 68.2188 639.451 68.5521 639.148 69.2188V75H637.25V66.5469H639.062L639.109 67.4922C639.568 66.7578 640.203 66.3906 641.016 66.3906C641.286 66.3906 641.51 66.4271 641.688 66.5L641.68 68.2812Z" fill="#5452F6"/>
<path d="M345.25 74.5H344.5C344.102 74.5 343.721 74.342 343.439 74.0607C343.158 73.7794 343 73.3978 343 73V69.25C343 69.0511 342.921 68.8603 342.78 68.7197C342.64 68.579 342.449 68.5 342.25 68.5H341.5" stroke="#5452F6" stroke-width="1.5" stroke-linecap="round" stroke-linejoin="round"/>
<path d="M342.625 64.75C342.551 64.75 342.478 64.772 342.417 64.8132C342.355 64.8544 342.307 64.913 342.279 64.9815C342.25 65.05 342.243 65.1254 342.257 65.1982C342.272 65.2709 342.307 65.3377 342.36 65.3902C342.412 65.4426 342.479 65.4783 342.552 65.4928C342.625 65.5073 342.7 65.4998 342.769 65.4715C342.837 65.4431 342.896 65.395 342.937 65.3333C342.978 65.2717 343 65.1992 343 65.125C343 65.0255 342.96 64.9302 342.89 64.8598C342.82 64.7895 342.724 64.75 342.625 64.75Z" stroke="#5452F6" stroke-width="1.5" stroke-linecap="round" stroke-linejoin="round"/>
<path d="M343 81.25C349.213 81.25 354.25 76.2132 354.25 70C354.25 63.7868 349.213 58.75 343 58.75C336.787 58.75 331.75 63.7868 331.75 70C331.75 76.2132 336.787 81.25 343 81.25Z" stroke="#5452F6" stroke-width="1.5" stroke-linecap="round" stroke-linejoin="round"/>
<path d="M250 0.5H720C724.142 0.5 727.5 3.85786 727.5 8V23.5H242.5V8C242.5 3.85786 245.858 0.5 250 0.5Z" fill="#EEEEFF"/>
<circle cx="254" cy="12" r="4" fill="#5452F6"/>
<circle cx="268" cy="12" r="4" fill="#5452F6"/>
<circle cx="282" cy="12" r="4" fill="#5452F6"/>
<path d="M411.907 12.687H407.901V16.9048H406.172V6.95166H412.495V8.34619H407.901V11.3062H411.907V12.687ZM418.128 14.5874H414.272L413.466 16.9048H411.668L415.428 6.95166H416.979L420.746 16.9048H418.941L418.128 14.5874ZM414.758 13.1929H417.643L416.2 9.06396L414.758 13.1929ZM428.245 15.7153C428.66 15.7153 429.004 15.5946 429.277 15.353C429.551 15.1115 429.697 14.813 429.715 14.4575H431.28C431.262 14.9178 431.118 15.3485 430.85 15.7495C430.581 16.146 430.216 16.4604 429.756 16.6929C429.296 16.9253 428.799 17.0415 428.266 17.0415C427.231 17.0415 426.411 16.7065 425.805 16.0366C425.199 15.3667 424.896 14.4416 424.896 13.2612V13.0903C424.896 11.9647 425.196 11.0646 425.798 10.3901C426.399 9.7111 427.22 9.37158 428.259 9.37158C429.138 9.37158 429.854 9.62907 430.405 10.144C430.961 10.6545 431.253 11.3267 431.28 12.1606H429.715C429.697 11.7368 429.551 11.3882 429.277 11.1147C429.008 10.8413 428.664 10.7046 428.245 10.7046C427.707 10.7046 427.293 10.9006 427.001 11.2925C426.709 11.6799 426.561 12.27 426.557 13.063V13.3296C426.557 14.1317 426.7 14.731 426.987 15.1274C427.279 15.5194 427.698 15.7153 428.245 15.7153ZM432.224 13.1382C432.224 12.4136 432.367 11.7619 432.654 11.1831C432.941 10.5998 433.345 10.1532 433.864 9.84326C434.384 9.52881 434.981 9.37158 435.655 9.37158C436.653 9.37158 437.462 9.69287 438.082 10.3354C438.706 10.978 439.044 11.8302 439.094 12.8921L439.101 13.2817C439.101 14.0109 438.959 14.6626 438.677 15.2368C438.399 15.811 437.998 16.2554 437.474 16.5698C436.954 16.8843 436.353 17.0415 435.669 17.0415C434.625 17.0415 433.789 16.6951 433.16 16.0024C432.536 15.3052 432.224 14.3778 432.224 13.2202V13.1382ZM433.885 13.2817C433.885 14.0428 434.042 14.6398 434.356 15.0728C434.671 15.5011 435.108 15.7153 435.669 15.7153C436.229 15.7153 436.665 15.4966 436.975 15.0591C437.289 14.6216 437.446 13.9813 437.446 13.1382C437.446 12.3908 437.285 11.7983 436.961 11.3608C436.642 10.9233 436.207 10.7046 435.655 10.7046C435.113 10.7046 434.682 10.9211 434.363 11.354C434.044 11.7824 433.885 12.425 433.885 13.2817ZM442.067 9.5083L442.115 10.2808C442.635 9.67464 443.346 9.37158 444.248 9.37158C445.237 9.37158 445.914 9.74984 446.278 10.5063C446.816 9.74984 447.573 9.37158 448.548 9.37158C449.364 9.37158 449.97 9.59717 450.366 10.0483C450.767 10.4995 450.972 11.1649 450.981 12.0444V16.9048H449.32V12.0923C449.32 11.6229 449.218 11.2788 449.013 11.0601C448.808 10.8413 448.468 10.7319 447.994 10.7319C447.616 10.7319 447.306 10.8345 447.064 11.0396C446.827 11.2401 446.661 11.5044 446.565 11.8325L446.572 16.9048H444.911V12.0376C444.888 11.1672 444.444 10.7319 443.578 10.7319C442.913 10.7319 442.441 11.0031 442.163 11.5454V16.9048H440.502V9.5083H442.067ZM459.164 13.2817C459.164 14.4256 458.904 15.3394 458.385 16.0229C457.865 16.702 457.168 17.0415 456.293 17.0415C455.482 17.0415 454.832 16.7749 454.345 16.2417V19.7485H452.684V9.5083H454.215L454.283 10.2603C454.771 9.66781 455.434 9.37158 456.272 9.37158C457.175 9.37158 457.881 9.70882 458.392 10.3833C458.907 11.0532 459.164 11.9852 459.164 13.1792V13.2817ZM457.51 13.1382C457.51 12.3999 457.362 11.8143 457.065 11.3813C456.774 10.9484 456.354 10.7319 455.808 10.7319C455.129 10.7319 454.641 11.0122 454.345 11.5728V14.854C454.646 15.4282 455.138 15.7153 455.821 15.7153C456.35 15.7153 456.762 15.5034 457.059 15.0796C457.359 14.6512 457.51 14.0041 457.51 13.1382ZM462.343 16.9048H460.682V6.40479H462.343V16.9048ZM465.925 16.9048H464.264V9.5083H465.925V16.9048ZM464.161 7.5874C464.161 7.33219 464.241 7.12028 464.4 6.95166C464.564 6.78304 464.797 6.69873 465.098 6.69873C465.398 6.69873 465.631 6.78304 465.795 6.95166C465.959 7.12028 466.041 7.33219 466.041 7.5874C466.041 7.83805 465.959 8.04769 465.795 8.21631C465.631 8.38037 465.398 8.4624 465.098 8.4624C464.797 8.4624 464.564 8.38037 464.4 8.21631C464.241 8.04769 464.161 7.83805 464.161 7.5874ZM472.159 16.9048C472.086 16.7635 472.022 16.5334 471.968 16.2144C471.439 16.7658 470.792 17.0415 470.026 17.0415C469.284 17.0415 468.677 16.8296 468.208 16.4058C467.739 15.9819 467.504 15.4578 467.504 14.8335C467.504 14.0451 467.796 13.4412 468.379 13.022C468.967 12.5981 469.805 12.3862 470.895 12.3862H471.913V11.9009C471.913 11.5181 471.806 11.2127 471.592 10.9849C471.378 10.7524 471.052 10.6362 470.614 10.6362C470.236 10.6362 469.926 10.7319 469.685 10.9233C469.443 11.1102 469.322 11.3494 469.322 11.6411H467.661C467.661 11.2355 467.796 10.8573 468.064 10.5063C468.333 10.1509 468.698 9.87288 469.158 9.67236C469.623 9.47184 470.14 9.37158 470.71 9.37158C471.576 9.37158 472.266 9.59033 472.781 10.0278C473.296 10.4608 473.561 11.0715 473.574 11.8599V15.1958C473.574 15.8612 473.668 16.3921 473.854 16.7886V16.9048H472.159ZM470.334 15.7085C470.662 15.7085 470.97 15.6287 471.257 15.4692C471.549 15.3097 471.767 15.0955 471.913 14.8267V13.4321H471.018C470.402 13.4321 469.94 13.5392 469.63 13.7534C469.32 13.9676 469.165 14.2707 469.165 14.6626C469.165 14.9816 469.27 15.2368 469.479 15.4282C469.694 15.6151 469.979 15.7085 470.334 15.7085ZM476.855 9.5083L476.903 10.3628C477.45 9.70199 478.168 9.37158 479.057 9.37158C480.597 9.37158 481.381 10.2534 481.408 12.0171V16.9048H479.747V12.1128C479.747 11.6434 479.645 11.297 479.439 11.0737C479.239 10.8459 478.909 10.7319 478.448 10.7319C477.778 10.7319 477.279 11.035 476.951 11.6411V16.9048H475.29V9.5083H476.855ZM485.188 7.71045V9.5083H486.494V10.7388H485.188V14.8677C485.188 15.1502 485.243 15.3553 485.353 15.4829C485.466 15.606 485.667 15.6675 485.954 15.6675C486.146 15.6675 486.339 15.6447 486.535 15.5991V16.8843C486.157 16.9891 485.792 17.0415 485.441 17.0415C484.165 17.0415 483.527 16.3374 483.527 14.9292V10.7388H482.311V9.5083H483.527V7.71045H485.188ZM495.401 14.895C495.401 14.5988 495.278 14.3732 495.032 14.2183C494.791 14.0633 494.387 13.9266 493.822 13.8081C493.257 13.6896 492.785 13.5392 492.407 13.3569C491.578 12.9559 491.163 12.3748 491.163 11.6138C491.163 10.9757 491.432 10.4425 491.97 10.0142C492.507 9.58577 493.191 9.37158 494.021 9.37158C494.905 9.37158 495.618 9.59033 496.16 10.0278C496.707 10.4653 496.98 11.0327 496.98 11.73H495.319C495.319 11.411 495.201 11.1466 494.964 10.937C494.727 10.7228 494.412 10.6157 494.021 10.6157C493.656 10.6157 493.357 10.7 493.125 10.8687C492.897 11.0373 492.783 11.2629 492.783 11.5454C492.783 11.8006 492.89 11.9989 493.104 12.1401C493.319 12.2814 493.752 12.425 494.403 12.5708C495.055 12.7121 495.565 12.883 495.935 13.0835C496.308 13.2795 496.584 13.5164 496.762 13.7944C496.944 14.0724 497.035 14.4097 497.035 14.8062C497.035 15.4715 496.759 16.0116 496.208 16.4263C495.657 16.8364 494.934 17.0415 494.041 17.0415C493.435 17.0415 492.895 16.9321 492.421 16.7134C491.947 16.4946 491.578 16.1938 491.313 15.811C491.049 15.4282 490.917 15.0158 490.917 14.5737H492.53C492.553 14.9657 492.701 15.2687 492.975 15.4829C493.248 15.6925 493.61 15.7974 494.062 15.7974C494.499 15.7974 494.832 15.7153 495.06 15.5513C495.287 15.3826 495.401 15.1639 495.401 14.895ZM500.05 9.5083L500.098 10.2808C500.617 9.67464 501.328 9.37158 502.23 9.37158C503.219 9.37158 503.896 9.74984 504.261 10.5063C504.799 9.74984 505.555 9.37158 506.53 9.37158C507.346 9.37158 507.952 9.59717 508.349 10.0483C508.75 10.4995 508.955 11.1649 508.964 12.0444V16.9048H507.303V12.0923C507.303 11.6229 507.2 11.2788 506.995 11.0601C506.79 10.8413 506.451 10.7319 505.977 10.7319C505.598 10.7319 505.288 10.8345 505.047 11.0396C504.81 11.2401 504.644 11.5044 504.548 11.8325L504.555 16.9048H502.894V12.0376C502.871 11.1672 502.426 10.7319 501.561 10.7319C500.895 10.7319 500.424 11.0031 500.146 11.5454V16.9048H498.484V9.5083H500.05ZM515.089 16.9048C515.016 16.7635 514.952 16.5334 514.897 16.2144C514.369 16.7658 513.722 17.0415 512.956 17.0415C512.213 17.0415 511.607 16.8296 511.138 16.4058C510.668 15.9819 510.434 15.4578 510.434 14.8335C510.434 14.0451 510.725 13.4412 511.309 13.022C511.896 12.5981 512.735 12.3862 513.824 12.3862H514.843V11.9009C514.843 11.5181 514.736 11.2127 514.521 10.9849C514.307 10.7524 513.981 10.6362 513.544 10.6362C513.166 10.6362 512.856 10.7319 512.614 10.9233C512.373 11.1102 512.252 11.3494 512.252 11.6411H510.591C510.591 11.2355 510.725 10.8573 510.994 10.5063C511.263 10.1509 511.628 9.87288 512.088 9.67236C512.553 9.47184 513.07 9.37158 513.64 9.37158C514.506 9.37158 515.196 9.59033 515.711 10.0278C516.226 10.4608 516.49 11.0715 516.504 11.8599V15.1958C516.504 15.8612 516.597 16.3921 516.784 16.7886V16.9048H515.089ZM513.264 15.7085C513.592 15.7085 513.899 15.6287 514.187 15.4692C514.478 15.3097 514.697 15.0955 514.843 14.8267V13.4321H513.947C513.332 13.4321 512.869 13.5392 512.56 13.7534C512.25 13.9676 512.095 14.2707 512.095 14.6626C512.095 14.9816 512.2 15.2368 512.409 15.4282C512.623 15.6151 512.908 15.7085 513.264 15.7085ZM522.116 11.0259C521.897 10.9894 521.672 10.9712 521.439 10.9712C520.678 10.9712 520.166 11.2629 519.901 11.8462V16.9048H518.24V9.5083H519.826L519.867 10.3354C520.268 9.69287 520.824 9.37158 521.535 9.37158C521.772 9.37158 521.968 9.40348 522.123 9.46729L522.116 11.0259ZM525.589 7.71045V9.5083H526.895V10.7388H525.589V14.8677C525.589 15.1502 525.644 15.3553 525.753 15.4829C525.867 15.606 526.067 15.6675 526.354 15.6675C526.546 15.6675 526.74 15.6447 526.936 15.5991V16.8843C526.557 16.9891 526.193 17.0415 525.842 17.0415C524.566 17.0415 523.928 16.3374 523.928 14.9292V10.7388H522.711V9.5083H523.928V7.71045H525.589ZM534.694 15.7153C535.109 15.7153 535.453 15.5946 535.727 15.353C536 15.1115 536.146 14.813 536.164 14.4575H537.729C537.711 14.9178 537.568 15.3485 537.299 15.7495C537.03 16.146 536.665 16.4604 536.205 16.6929C535.745 16.9253 535.248 17.0415 534.715 17.0415C533.68 17.0415 532.86 16.7065 532.254 16.0366C531.648 15.3667 531.345 14.4416 531.345 13.2612V13.0903C531.345 11.9647 531.646 11.0646 532.247 10.3901C532.849 9.7111 533.669 9.37158 534.708 9.37158C535.588 9.37158 536.303 9.62907 536.854 10.144C537.41 10.6545 537.702 11.3267 537.729 12.1606H536.164C536.146 11.7368 536 11.3882 535.727 11.1147C535.458 10.8413 535.114 10.7046 534.694 10.7046C534.157 10.7046 533.742 10.9006 533.45 11.2925C533.159 11.6799 533.01 12.27 533.006 13.063V13.3296C533.006 14.1317 533.149 14.731 533.437 15.1274C533.728 15.5194 534.147 15.7153 534.694 15.7153ZM538.673 13.1382C538.673 12.4136 538.816 11.7619 539.104 11.1831C539.391 10.5998 539.794 10.1532 540.313 9.84326C540.833 9.52881 541.43 9.37158 542.104 9.37158C543.103 9.37158 543.911 9.69287 544.531 10.3354C545.156 10.978 545.493 11.8302 545.543 12.8921L545.55 13.2817C545.55 14.0109 545.409 14.6626 545.126 15.2368C544.848 15.811 544.447 16.2554 543.923 16.5698C543.403 16.8843 542.802 17.0415 542.118 17.0415C541.075 17.0415 540.238 16.6951 539.609 16.0024C538.985 15.3052 538.673 14.3778 538.673 13.2202V13.1382ZM540.334 13.2817C540.334 14.0428 540.491 14.6398 540.806 15.0728C541.12 15.5011 541.558 15.7153 542.118 15.7153C542.679 15.7153 543.114 15.4966 543.424 15.0591C543.738 14.6216 543.896 13.9813 543.896 13.1382C543.896 12.3908 543.734 11.7983 543.41 11.3608C543.091 10.9233 542.656 10.7046 542.104 10.7046C541.562 10.7046 541.132 10.9211 540.812 11.354C540.493 11.7824 540.334 12.425 540.334 13.2817ZM548.496 9.5083L548.544 10.3628C549.091 9.70199 549.809 9.37158 550.697 9.37158C552.238 9.37158 553.021 10.2534 553.049 12.0171V16.9048H551.388V12.1128C551.388 11.6434 551.285 11.297 551.08 11.0737C550.88 10.8459 550.549 10.7319 550.089 10.7319C549.419 10.7319 548.92 11.035 548.592 11.6411V16.9048H546.931V9.5083H548.496ZM556.829 7.71045V9.5083H558.135V10.7388H556.829V14.8677C556.829 15.1502 556.884 15.3553 556.993 15.4829C557.107 15.606 557.308 15.6675 557.595 15.6675C557.786 15.6675 557.98 15.6447 558.176 15.5991V16.8843C557.798 16.9891 557.433 17.0415 557.082 17.0415C555.806 17.0415 555.168 16.3374 555.168 14.9292V10.7388H553.951V9.5083H555.168V7.71045H556.829ZM563.282 11.0259C563.063 10.9894 562.838 10.9712 562.605 10.9712C561.844 10.9712 561.332 11.2629 561.067 11.8462V16.9048H559.406V9.5083H560.992L561.033 10.3354C561.434 9.69287 561.99 9.37158 562.701 9.37158C562.938 9.37158 563.134 9.40348 563.289 9.46729L563.282 11.0259ZM568.546 16.9048C568.473 16.7635 568.409 16.5334 568.354 16.2144C567.826 16.7658 567.179 17.0415 566.413 17.0415C565.67 17.0415 565.064 16.8296 564.595 16.4058C564.125 15.9819 563.891 15.4578 563.891 14.8335C563.891 14.0451 564.182 13.4412 564.766 13.022C565.354 12.5981 566.192 12.3862 567.281 12.3862H568.3V11.9009C568.3 11.5181 568.193 11.2127 567.979 10.9849C567.764 10.7524 567.438 10.6362 567.001 10.6362C566.623 10.6362 566.313 10.7319 566.071 10.9233C565.83 11.1102 565.709 11.3494 565.709 11.6411H564.048C564.048 11.2355 564.182 10.8573 564.451 10.5063C564.72 10.1509 565.085 9.87288 565.545 9.67236C566.01 9.47184 566.527 9.37158 567.097 9.37158C567.963 9.37158 568.653 9.59033 569.168 10.0278C569.683 10.4608 569.947 11.0715 569.961 11.8599V15.1958C569.961 15.8612 570.054 16.3921 570.241 16.7886V16.9048H568.546ZM566.721 15.7085C567.049 15.7085 567.356 15.6287 567.644 15.4692C567.935 15.3097 568.154 15.0955 568.3 14.8267V13.4321H567.404C566.789 13.4321 566.326 13.5392 566.017 13.7534C565.707 13.9676 565.552 14.2707 565.552 14.6626C565.552 14.9816 565.657 15.2368 565.866 15.4282C566.08 15.6151 566.365 15.7085 566.721 15.7085ZM574.739 15.7153C575.154 15.7153 575.498 15.5946 575.771 15.353C576.045 15.1115 576.191 14.813 576.209 14.4575H577.774C577.756 14.9178 577.613 15.3485 577.344 15.7495C577.075 16.146 576.71 16.4604 576.25 16.6929C575.79 16.9253 575.293 17.0415 574.76 17.0415C573.725 17.0415 572.905 16.7065 572.299 16.0366C571.693 15.3667 571.39 14.4416 571.39 13.2612V13.0903C571.39 11.9647 571.69 11.0646 572.292 10.3901C572.894 9.7111 573.714 9.37158 574.753 9.37158C575.632 9.37158 576.348 9.62907 576.899 10.144C577.455 10.6545 577.747 11.3267 577.774 12.1606H576.209C576.191 11.7368 576.045 11.3882 575.771 11.1147C575.503 10.8413 575.159 10.7046 574.739 10.7046C574.201 10.7046 573.787 10.9006 573.495 11.2925C573.203 11.6799 573.055 12.27 573.051 13.063V13.3296C573.051 14.1317 573.194 14.731 573.481 15.1274C573.773 15.5194 574.192 15.7153 574.739 15.7153ZM581.11 7.71045V9.5083H582.416V10.7388H581.11V14.8677C581.11 15.1502 581.165 15.3553 581.274 15.4829C581.388 15.606 581.589 15.6675 581.876 15.6675C582.067 15.6675 582.261 15.6447 582.457 15.5991V16.8843C582.079 16.9891 581.714 17.0415 581.363 17.0415C580.087 17.0415 579.449 16.3374 579.449 14.9292V10.7388H578.232V9.5083H579.449V7.71045H581.11Z" fill="#5452F6"/>
<path d="M250 0.5H720C724.142 0.5 727.5 3.85786 727.5 8V23.5H242.5V8C242.5 3.85786 245.858 0.5 250 0.5Z" stroke="#5452F6"/>
<path d="M329 173.5C341.426 173.5 351.5 163.426 351.5 151C351.5 138.574 341.426 128.5 329 128.5C316.574 128.5 306.5 138.574 306.5 151C306.5 163.426 316.574 173.5 329 173.5Z" stroke="#FF5A43" stroke-width="1.5" stroke-linecap="round" stroke-linejoin="round"/>
<path d="M316.5 146.5H319C319.663 146.5 320.299 146.763 320.768 147.232C321.237 147.701 321.5 148.337 321.5 149V156C321.5 156.265 321.395 156.52 321.207 156.707C321.02 156.895 320.765 157 320.5 157H315C314.735 157 314.48 156.895 314.293 156.707C314.105 156.52 314 156.265 314 156V149C314 148.337 314.263 147.701 314.732 147.232C315.201 146.763 315.837 146.5 316.5 146.5Z" stroke="#FF5A43" stroke-width="1.5" stroke-linecap="round" stroke-linejoin="round"/>
<path d="M328.5 146.5H331C331.663 146.5 332.299 146.763 332.768 147.232C333.237 147.701 333.5 148.337 333.5 149V156C333.5 156.265 333.395 156.52 333.207 156.707C333.02 156.895 332.765 157 332.5 157H327C326.735 157 326.48 156.895 326.293 156.707C326.105 156.52 326 156.265 326 156V149C326 148.337 326.263 147.701 326.732 147.232C327.201 146.763 327.837 146.5 328.5 146.5Z" stroke="#FF5A43" stroke-width="1.5" stroke-linecap="round" stroke-linejoin="round"/>
<path d="M340.5 146.5H343C343.663 146.5 344.299 146.763 344.768 147.232C345.237 147.701 345.5 148.337 345.5 149V156C345.5 156.265 345.395 156.52 345.207 156.707C345.02 156.895 344.765 157 344.5 157H339C338.735 157 338.48 156.895 338.293 156.707C338.105 156.52 338 156.265 338 156V149C338 148.337 338.263 147.701 338.732 147.232C339.201 146.763 339.837 146.5 340.5 146.5Z" stroke="#FF5A43" stroke-width="1.5" stroke-linecap="round" stroke-linejoin="round"/>
<path d="M494 174.5C506.426 174.5 516.5 164.426 516.5 152C516.5 139.574 506.426 129.5 494 129.5C481.574 129.5 471.5 139.574 471.5 152C471.5 164.426 481.574 174.5 494 174.5Z" stroke="#DE1306" stroke-width="1.5" stroke-linecap="round" stroke-linejoin="round"/>
<path d="M480.704 162.5L488.886 143" stroke="#DE1306" stroke-width="1.5" stroke-linecap="round" stroke-linejoin="round"/>
<path d="M499.114 162.5L507.296 143" stroke="#DE1306" stroke-width="1.5" stroke-linecap="round" stroke-linejoin="round"/>
<path d="M488.886 143L501.528 156.744" stroke="#DE1306" stroke-width="1.5" stroke-linecap="round" stroke-linejoin="round"/>
<path d="M486.472 148.756L499.114 162.5" stroke="#DE1306" stroke-width="1.5" stroke-linecap="round" stroke-linejoin="round"/>
<path d="M658 174.5C670.426 174.5 680.5 164.426 680.5 152C680.5 139.574 670.426 129.5 658 129.5C645.574 129.5 635.5 139.574 635.5 152C635.5 164.426 645.574 174.5 658 174.5Z" stroke="#2097F6" stroke-width="1.5" stroke-linecap="round" stroke-linejoin="round"/>
<path d="M643.682 146H654.3C654.488 145.999 654.673 146.05 654.834 146.147C654.996 146.245 655.127 146.385 655.214 146.552L661.068 158H672.318" stroke="#2097F6" stroke-width="1.5" stroke-linecap="round" stroke-linejoin="round"/>
<path d="M662.09 146H672.708C672.897 145.999 673.083 146.051 673.245 146.15C673.407 146.249 673.538 146.391 673.624 146.56L679.586 158.36" stroke="#2097F6" stroke-width="1.5" stroke-linecap="round" stroke-linejoin="round"/>
<path d="M636.422 145.6L642.376 157.44C642.462 157.609 642.593 157.751 642.755 157.85C642.916 157.949 643.102 158.001 643.292 158H653.91" stroke="#2097F6" stroke-width="1.5" stroke-linecap="round" stroke-linejoin="round"/>
<line x1="373" y1="150.5" x2="460" y2="150.5" stroke="#5452F6" stroke-width="2"/>
<path d="M450 141L460.5 150.5L450 159.5" stroke="#5452F6" stroke-width="2" stroke-linecap="round" stroke-linejoin="round"/>
<circle cx="368.5" cy="151" r="5.5" stroke="#5452F6" stroke-width="2"/>
<path d="M321 287.5C333.426 287.5 343.5 277.426 343.5 265C343.5 252.574 333.426 242.5 321 242.5C308.574 242.5 298.5 252.574 298.5 265C298.5 277.426 308.574 287.5 321 287.5Z" stroke="#65BF73" stroke-width="1.5" stroke-linecap="round" stroke-linejoin="round"/>
<path d="M353 265C353 262.734 352.279 260.527 350.94 258.699C349.602 256.87 347.715 255.516 345.555 254.831C346.601 252.82 346.979 250.527 346.634 248.286C346.288 246.045 345.237 243.973 343.634 242.369C342.031 240.766 339.958 239.715 337.717 239.37C335.476 239.025 333.183 239.402 331.171 240.448C330.488 238.288 329.133 236.401 327.305 235.061C325.476 233.722 323.269 233 321.002 233C318.735 233 316.528 233.722 314.699 235.061C312.871 236.401 311.516 238.288 310.833 240.448C308.821 239.402 306.528 239.025 304.287 239.37C302.046 239.715 299.973 240.766 298.37 242.369C296.767 243.973 295.716 246.045 295.37 248.286C295.025 250.527 295.403 252.82 296.449 254.831C294.288 255.515 292.401 256.869 291.061 258.698C289.722 260.526 289 262.734 289 265C289 267.266 289.722 269.474 291.061 271.302C292.401 273.131 294.288 274.485 296.449 275.169C295.403 277.18 295.025 279.473 295.37 281.714C295.716 283.955 296.767 286.027 298.37 287.631C299.973 289.234 302.046 290.285 304.287 290.63C306.528 290.975 308.821 290.598 310.833 289.552C311.516 291.712 312.871 293.599 314.699 294.939C316.528 296.278 318.735 297 321.002 297C323.269 297 325.476 296.278 327.305 294.939C329.133 293.599 330.488 291.712 331.171 289.552C333.183 290.598 335.476 290.975 337.717 290.63C339.958 290.285 342.031 289.234 343.634 287.631C345.237 286.027 346.288 283.955 346.634 281.714C346.979 279.473 346.601 277.18 345.555 275.169C347.715 274.484 349.602 273.13 350.94 271.301C352.279 269.473 353 267.266 353 265Z" stroke="#65BF73" stroke-width="1.5" stroke-linecap="round" stroke-linejoin="round"/>
<path d="M317.764 249C317.764 248.586 317.429 248.25 317.014 248.25C316.6 248.25 316.264 248.586 316.264 249H317.764ZM324.254 267.459C324.484 267.115 324.391 266.649 324.046 266.419C323.702 266.189 323.236 266.283 323.006 266.627L324.254 267.459ZM311 254.866C310.586 254.866 310.25 255.202 310.25 255.616C310.25 256.03 310.586 256.366 311 256.366V254.866ZM329.645 255.616L330.209 256.11C330.403 255.888 330.449 255.574 330.328 255.306C330.206 255.038 329.939 254.866 329.645 254.866V255.616ZM321.225 265.239L320.66 264.745C320.43 265.009 320.412 265.397 320.618 265.68C320.824 265.963 321.198 266.066 321.52 265.928L321.225 265.239ZM322.427 276.666L322.763 275.996H322.763L322.427 276.666ZM320.733 272.693C320.864 272.3 320.652 271.876 320.259 271.745C319.866 271.614 319.441 271.826 319.31 272.219L320.733 272.693ZM316.264 249V255.616H317.764V249H316.264ZM316.264 255.616V267.645H317.764V255.616H316.264ZM316.264 267.645C316.264 268.355 316.626 269.001 317.132 269.471C317.644 269.946 318.347 270.286 319.145 270.388C320.786 270.598 322.694 269.801 324.254 267.459L323.006 266.627C321.68 268.616 320.279 269.021 319.335 268.901C318.84 268.837 318.43 268.629 318.153 268.371C317.869 268.108 317.764 267.836 317.764 267.645H316.264ZM311 256.366H317.014V254.866H311V256.366ZM317.014 256.366H329.645V254.866H317.014V256.366ZM329.08 255.122L320.66 264.745L321.789 265.733L330.209 256.11L329.08 255.122ZM321.52 265.928C323.513 265.074 325.363 264.996 326.665 265.678C327.916 266.333 328.895 267.818 328.895 270.652H330.395C330.395 267.471 329.269 265.348 327.361 264.349C325.506 263.377 323.146 263.6 320.929 264.55L321.52 265.928ZM328.895 270.652C328.895 272.353 328.541 273.525 328.047 274.329C327.557 275.127 326.9 275.612 326.203 275.897C325.497 276.186 324.744 276.271 324.091 276.246C323.42 276.22 322.935 276.082 322.763 275.996L322.092 277.337C322.521 277.552 323.239 277.714 324.034 277.745C324.847 277.776 325.823 277.673 326.771 277.285C327.729 276.894 328.65 276.213 329.325 275.113C329.997 274.019 330.395 272.559 330.395 270.652H328.895ZM322.763 275.996C322.27 275.749 321.615 275.229 321.162 274.582C320.709 273.935 320.537 273.283 320.733 272.693L319.31 272.219C318.905 273.434 319.334 274.586 319.933 275.443C320.533 276.299 321.382 276.982 322.092 277.337L322.763 275.996Z" fill="#65BF73"/>
<path d="M495 276.5C507.426 276.5 517.5 266.426 517.5 254C517.5 241.574 507.426 231.5 495 231.5C482.574 231.5 472.5 241.574 472.5 254C472.5 266.426 482.574 276.5 495 276.5Z" stroke="#FFEA31" stroke-width="1.5" stroke-linecap="round" stroke-linejoin="round"/>
<path d="M487 275L503.798 233.5" stroke="#FFEA31" stroke-width="1.5" stroke-linecap="round" stroke-linejoin="round"/>
<path d="M659 276.5C671.426 276.5 681.5 266.426 681.5 254C681.5 241.574 671.426 231.5 659 231.5C646.574 231.5 636.5 241.574 636.5 254C636.5 266.426 646.574 276.5 659 276.5Z" stroke="#5452F6" stroke-width="1.5" stroke-linecap="round" stroke-linejoin="round"/>
<path d="M639 245H654.141C654.409 244.998 654.673 245.073 654.903 245.215C655.133 245.357 655.32 245.561 655.444 245.805L663.791 262.5H679.833" stroke="#5452F6" stroke-width="1.5" stroke-linecap="round" stroke-linejoin="round"/>
<line x1="457.025" y1="230.067" x2="355.7" y2="171.567" stroke="#5452F6" stroke-width="2"/>
<path d="M359.61 184.794L355.267 171.317L368.86 168.773" stroke="#5452F6" stroke-width="2" stroke-linecap="round" stroke-linejoin="round"/>
<circle cx="461.172" cy="231.884" r="5.5" transform="rotate(-150 461.172 231.884)" stroke="#5452F6" stroke-width="2"/>
<line x1="539" y1="252.5" x2="626" y2="252.5" stroke="#5452F6" stroke-width="2"/>
<path d="M616 243L626.5 252.5L616 261.5" stroke="#5452F6" stroke-width="2" stroke-linecap="round" stroke-linejoin="round"/>
<circle cx="534.5" cy="253" r="5.5" stroke="#5452F6" stroke-width="2"/>
<line x1="451" y1="251.5" x2="364" y2="251.5" stroke="#5452F6" stroke-width="2"/>
<path d="M374 261L363.5 251.5L374 242.5" stroke="#5452F6" stroke-width="2" stroke-linecap="round" stroke-linejoin="round"/>
<circle cx="455.5" cy="251" r="5.5" transform="rotate(180 455.5 251)" stroke="#5452F6" stroke-width="2"/>
<line x1="617" y1="151.5" x2="530" y2="151.5" stroke="#5452F6" stroke-width="2"/>
<path d="M540 161L529.5 151.5L540 142.5" stroke="#5452F6" stroke-width="2" stroke-linecap="round" stroke-linejoin="round"/>
<circle cx="621.5" cy="151" r="5.5" transform="rotate(180 621.5 151)" stroke="#5452F6" stroke-width="2"/>
<line x1="494.5" y1="194" x2="494.5" y2="221" stroke="#5452F6" stroke-width="2"/>
<path d="M504 211L494.5 221.5L485.5 211" stroke="#5452F6" stroke-width="2" stroke-linecap="round" stroke-linejoin="round"/>
<circle cx="494" cy="189.5" r="5.5" transform="rotate(90 494 189.5)" stroke="#5452F6" stroke-width="2"/>
<line x1="331.5" y1="212" x2="331.5" y2="185" stroke="#5452F6" stroke-width="2"/>
<path d="M322 195L331.5 184.5L340.5 195" stroke="#5452F6" stroke-width="2" stroke-linecap="round" stroke-linejoin="round"/>
<circle cx="332" cy="216.5" r="5.5" transform="rotate(-90 332 216.5)" stroke="#5452F6" stroke-width="2"/>
<path d="M24 288.5C36.4264 288.5 46.5 278.426 46.5 266C46.5 253.574 36.4264 243.5 24 243.5C11.5736 243.5 1.5 253.574 1.5 266C1.5 278.426 11.5736 288.5 24 288.5Z" stroke="#65BF73" stroke-width="1.5" stroke-linecap="round" stroke-linejoin="round"/>
<path d="M20.7644 250C20.7644 249.586 20.4286 249.25 20.0144 249.25C19.6002 249.25 19.2644 249.586 19.2644 250H20.7644ZM27.2543 268.459C27.4841 268.115 27.391 267.649 27.0463 267.419C26.7017 267.189 26.236 267.283 26.0063 267.627L27.2543 268.459ZM14 255.866C13.5858 255.866 13.25 256.202 13.25 256.616C13.25 257.03 13.5858 257.366 14 257.366V255.866ZM32.6447 256.616L33.2092 257.11C33.403 256.888 33.4493 256.574 33.3277 256.306C33.2061 256.038 32.939 255.866 32.6447 255.866V256.616ZM24.2245 266.239L23.6601 265.745C23.4295 266.009 23.412 266.397 23.6178 266.68C23.8237 266.963 24.1981 267.066 24.52 266.928L24.2245 266.239ZM25.4274 277.666L25.7628 276.996L25.7628 276.996L25.4274 277.666ZM23.7332 273.693C23.8641 273.3 23.6518 272.876 23.2588 272.745C22.8659 272.614 22.4411 272.826 22.3101 273.219L23.7332 273.693ZM19.2644 250V256.616H20.7644V250H19.2644ZM19.2644 256.616V268.645H20.7644V256.616H19.2644ZM19.2644 268.645C19.2644 269.355 19.626 270.001 20.1318 270.471C20.6442 270.946 21.3469 271.286 22.1446 271.388C23.7863 271.598 25.6935 270.801 27.2543 268.459L26.0063 267.627C24.6802 269.616 23.2795 270.021 22.3349 269.901C21.8396 269.837 21.4295 269.629 21.1525 269.371C20.8689 269.108 20.7644 268.836 20.7644 268.645H19.2644ZM14 257.366H20.0144V255.866H14V257.366ZM20.0144 257.366H32.6447V255.866H20.0144V257.366ZM32.0803 256.122L23.6601 265.745L24.789 266.733L33.2092 257.11L32.0803 256.122ZM24.52 266.928C26.5135 266.074 28.3634 265.996 29.6654 266.678C30.9157 267.333 31.8947 268.818 31.8947 271.652H33.3947C33.3947 268.471 32.2687 266.348 30.3614 265.349C28.5059 264.377 26.1457 264.6 23.9291 265.55L24.52 266.928ZM31.8947 271.652C31.8947 273.353 31.5406 274.525 31.047 275.329C30.5568 276.127 29.8997 276.612 29.2032 276.897C28.4973 277.186 27.744 277.271 27.0914 277.246C26.4204 277.22 25.9349 277.082 25.7628 276.996L25.092 278.337C25.5213 278.552 26.2387 278.714 27.0338 278.745C27.8472 278.776 28.823 278.673 29.7711 278.285C30.7286 277.894 31.6502 277.213 32.3254 276.113C32.997 275.019 33.3947 273.559 33.3947 271.652H31.8947ZM25.7628 276.996C25.27 276.749 24.6152 276.229 24.1623 275.582C23.7092 274.935 23.5366 274.283 23.7332 273.693L22.3101 273.219C21.9053 274.434 22.3341 275.586 22.9335 276.443C23.5332 277.299 24.382 277.982 25.092 278.337L25.7628 276.996Z" fill="#65BF73"/>
<line x1="71" y1="265.5" x2="277" y2="265.5" stroke="#65BF73" stroke-width="2"/>
<path d="M267 256L277.5 265.5L267 274.5" stroke="#65BF73" stroke-width="2" stroke-linecap="round" stroke-linejoin="round"/>
<circle cx="66.5" cy="266" r="5.5" stroke="#65BF73" stroke-width="2"/>
<path d="M83.4365 293.643L85.5283 290.047H87.5244L84.5166 294.982L87.5928 300H85.5762L83.4365 296.35L81.29 300H79.2803L82.3633 294.982L79.3486 290.047H81.3447L83.4365 293.643ZM96.0625 291.441H92.959V300H91.2432V291.441H88.167V290.047H96.0625V291.441ZM99.002 298.619H104.32V300H96.9102V298.879L102.058 291.441H96.9443V290.047H104.156V291.141L99.002 298.619ZM110.903 300H109.242V292.604H110.903V300ZM109.14 290.683C109.14 290.427 109.219 290.215 109.379 290.047C109.543 289.878 109.775 289.794 110.076 289.794C110.377 289.794 110.609 289.878 110.773 290.047C110.938 290.215 111.02 290.427 111.02 290.683C111.02 290.933 110.938 291.143 110.773 291.312C110.609 291.476 110.377 291.558 110.076 291.558C109.775 291.558 109.543 291.476 109.379 291.312C109.219 291.143 109.14 290.933 109.14 290.683ZM116.864 297.99C116.864 297.694 116.741 297.468 116.495 297.313C116.254 297.159 115.85 297.022 115.285 296.903C114.72 296.785 114.248 296.634 113.87 296.452C113.041 296.051 112.626 295.47 112.626 294.709C112.626 294.071 112.895 293.538 113.433 293.109C113.97 292.681 114.654 292.467 115.483 292.467C116.368 292.467 117.081 292.686 117.623 293.123C118.17 293.561 118.443 294.128 118.443 294.825H116.782C116.782 294.506 116.664 294.242 116.427 294.032C116.19 293.818 115.875 293.711 115.483 293.711C115.119 293.711 114.82 293.795 114.588 293.964C114.36 294.132 114.246 294.358 114.246 294.641C114.246 294.896 114.353 295.094 114.567 295.235C114.782 295.377 115.215 295.52 115.866 295.666C116.518 295.807 117.028 295.978 117.397 296.179C117.771 296.375 118.047 296.612 118.225 296.89C118.407 297.168 118.498 297.505 118.498 297.901C118.498 298.567 118.222 299.107 117.671 299.521C117.119 299.932 116.397 300.137 115.504 300.137C114.898 300.137 114.358 300.027 113.884 299.809C113.41 299.59 113.041 299.289 112.776 298.906C112.512 298.523 112.38 298.111 112.38 297.669H113.993C114.016 298.061 114.164 298.364 114.438 298.578C114.711 298.788 115.073 298.893 115.524 298.893C115.962 298.893 116.295 298.811 116.522 298.646C116.75 298.478 116.864 298.259 116.864 297.99ZM129.935 297.71L131.11 292.604H132.73L130.714 300H129.347L127.761 294.921L126.202 300H124.835L122.812 292.604H124.432L125.628 297.655L127.146 292.604H128.396L129.935 297.71ZM137.714 294.121C137.495 294.085 137.27 294.066 137.037 294.066C136.276 294.066 135.763 294.358 135.499 294.941V300H133.838V292.604H135.424L135.465 293.431C135.866 292.788 136.422 292.467 137.133 292.467C137.37 292.467 137.566 292.499 137.721 292.562L137.714 294.121ZM142.978 300C142.905 299.859 142.841 299.629 142.786 299.31C142.257 299.861 141.61 300.137 140.845 300.137C140.102 300.137 139.496 299.925 139.026 299.501C138.557 299.077 138.322 298.553 138.322 297.929C138.322 297.14 138.614 296.536 139.197 296.117C139.785 295.693 140.624 295.481 141.713 295.481H142.731V294.996C142.731 294.613 142.624 294.308 142.41 294.08C142.196 293.848 141.87 293.731 141.433 293.731C141.054 293.731 140.744 293.827 140.503 294.019C140.261 294.205 140.141 294.445 140.141 294.736H138.479C138.479 294.331 138.614 293.952 138.883 293.602C139.152 293.246 139.516 292.968 139.977 292.768C140.441 292.567 140.959 292.467 141.528 292.467C142.394 292.467 143.085 292.686 143.6 293.123C144.115 293.556 144.379 294.167 144.393 294.955V298.291C144.393 298.956 144.486 299.487 144.673 299.884V300H142.978ZM141.152 298.804C141.48 298.804 141.788 298.724 142.075 298.564C142.367 298.405 142.586 298.191 142.731 297.922V296.527H141.836C141.221 296.527 140.758 296.634 140.448 296.849C140.138 297.063 139.983 297.366 139.983 297.758C139.983 298.077 140.088 298.332 140.298 298.523C140.512 298.71 140.797 298.804 141.152 298.804ZM152.609 296.377C152.609 297.521 152.35 298.435 151.83 299.118C151.311 299.797 150.613 300.137 149.738 300.137C148.927 300.137 148.278 299.87 147.79 299.337V302.844H146.129V292.604H147.66L147.729 293.355C148.216 292.763 148.879 292.467 149.718 292.467C150.62 292.467 151.326 292.804 151.837 293.479C152.352 294.148 152.609 295.08 152.609 296.274V296.377ZM150.955 296.233C150.955 295.495 150.807 294.91 150.511 294.477C150.219 294.044 149.8 293.827 149.253 293.827C148.574 293.827 148.086 294.107 147.79 294.668V297.949C148.091 298.523 148.583 298.811 149.267 298.811C149.795 298.811 150.208 298.599 150.504 298.175C150.805 297.746 150.955 297.099 150.955 296.233ZM160.498 296.377C160.498 297.521 160.238 298.435 159.719 299.118C159.199 299.797 158.502 300.137 157.627 300.137C156.816 300.137 156.166 299.87 155.679 299.337V302.844H154.018V292.604H155.549L155.617 293.355C156.105 292.763 156.768 292.467 157.606 292.467C158.509 292.467 159.215 292.804 159.726 293.479C160.241 294.148 160.498 295.08 160.498 296.274V296.377ZM158.844 296.233C158.844 295.495 158.696 294.91 158.399 294.477C158.108 294.044 157.688 293.827 157.142 293.827C156.463 293.827 155.975 294.107 155.679 294.668V297.949C155.979 298.523 156.472 298.811 157.155 298.811C157.684 298.811 158.096 298.599 158.393 298.175C158.693 297.746 158.844 297.099 158.844 296.233ZM165.167 300.137C164.114 300.137 163.26 299.806 162.604 299.146C161.952 298.48 161.626 297.596 161.626 296.493V296.288C161.626 295.55 161.767 294.891 162.05 294.312C162.337 293.729 162.738 293.276 163.253 292.952C163.768 292.629 164.342 292.467 164.976 292.467C165.983 292.467 166.76 292.788 167.307 293.431C167.858 294.073 168.134 294.982 168.134 296.158V296.828H163.301C163.351 297.439 163.554 297.922 163.909 298.277C164.269 298.633 164.72 298.811 165.263 298.811C166.024 298.811 166.644 298.503 167.122 297.888L168.018 298.742C167.721 299.184 167.325 299.528 166.828 299.774C166.336 300.016 165.782 300.137 165.167 300.137ZM164.969 293.8C164.513 293.8 164.144 293.959 163.861 294.278C163.583 294.597 163.406 295.042 163.328 295.611H166.493V295.488C166.457 294.932 166.309 294.513 166.049 294.23C165.789 293.943 165.429 293.8 164.969 293.8ZM169.118 296.247C169.118 295.108 169.382 294.194 169.911 293.506C170.44 292.813 171.148 292.467 172.037 292.467C172.821 292.467 173.454 292.74 173.938 293.287V289.5H175.599V300H174.095L174.013 299.234C173.516 299.836 172.853 300.137 172.023 300.137C171.158 300.137 170.456 299.788 169.918 299.091C169.385 298.394 169.118 297.446 169.118 296.247ZM170.779 296.391C170.779 297.143 170.923 297.73 171.21 298.154C171.502 298.574 171.914 298.783 172.447 298.783C173.126 298.783 173.623 298.48 173.938 297.874V294.716C173.632 294.123 173.14 293.827 172.461 293.827C171.923 293.827 171.508 294.041 171.217 294.47C170.925 294.894 170.779 295.534 170.779 296.391ZM182.585 300H180.924V292.604H182.585V300ZM180.821 290.683C180.821 290.427 180.901 290.215 181.061 290.047C181.225 289.878 181.457 289.794 181.758 289.794C182.059 289.794 182.291 289.878 182.455 290.047C182.619 290.215 182.701 290.427 182.701 290.683C182.701 290.933 182.619 291.143 182.455 291.312C182.291 291.476 182.059 291.558 181.758 291.558C181.457 291.558 181.225 291.476 181.061 291.312C180.901 291.143 180.821 290.933 180.821 290.683ZM185.941 292.604L185.989 293.458C186.536 292.797 187.254 292.467 188.143 292.467C189.683 292.467 190.467 293.349 190.494 295.112V300H188.833V295.208C188.833 294.739 188.73 294.392 188.525 294.169C188.325 293.941 187.994 293.827 187.534 293.827C186.864 293.827 186.365 294.13 186.037 294.736V300H184.376V292.604H185.941ZM194.274 290.806V292.604H195.58V293.834H194.274V297.963C194.274 298.245 194.329 298.451 194.438 298.578C194.552 298.701 194.753 298.763 195.04 298.763C195.231 298.763 195.425 298.74 195.621 298.694V299.979C195.243 300.084 194.878 300.137 194.527 300.137C193.251 300.137 192.613 299.433 192.613 298.024V293.834H191.396V292.604H192.613V290.806H194.274ZM196.339 296.233C196.339 295.509 196.482 294.857 196.77 294.278C197.057 293.695 197.46 293.248 197.979 292.938C198.499 292.624 199.096 292.467 199.771 292.467C200.769 292.467 201.577 292.788 202.197 293.431C202.822 294.073 203.159 294.925 203.209 295.987L203.216 296.377C203.216 297.106 203.075 297.758 202.792 298.332C202.514 298.906 202.113 299.351 201.589 299.665C201.069 299.979 200.468 300.137 199.784 300.137C198.741 300.137 197.904 299.79 197.275 299.098C196.651 298.4 196.339 297.473 196.339 296.315V296.233ZM198 296.377C198 297.138 198.157 297.735 198.472 298.168C198.786 298.596 199.224 298.811 199.784 298.811C200.345 298.811 200.78 298.592 201.09 298.154C201.404 297.717 201.562 297.076 201.562 296.233C201.562 295.486 201.4 294.894 201.076 294.456C200.757 294.019 200.322 293.8 199.771 293.8C199.228 293.8 198.798 294.016 198.479 294.449C198.16 294.878 198 295.52 198 296.377ZM86.3486 313.71L87.5244 308.604H89.1445L87.1279 316H85.7607L84.1748 310.921L82.6162 316H81.249L79.2256 308.604H80.8457L82.042 313.655L83.5596 308.604H84.8105L86.3486 313.71ZM93.8408 309.643L95.9326 306.047H97.9287L94.9209 310.982L97.9971 316H95.9805L93.8408 312.35L91.6943 316H89.6846L92.7676 310.982L89.7529 306.047H91.749L93.8408 309.643ZM106.467 307.441H103.363V316H101.647V307.441H98.5713V306.047H106.467V307.441ZM109.406 314.619H114.725V316H107.314V314.879L112.462 307.441H107.349V306.047H114.561V307.141L109.406 314.619ZM121.308 316H119.646V308.604H121.308V316ZM119.544 306.683C119.544 306.427 119.624 306.215 119.783 306.047C119.947 305.878 120.18 305.794 120.48 305.794C120.781 305.794 121.014 305.878 121.178 306.047C121.342 306.215 121.424 306.427 121.424 306.683C121.424 306.933 121.342 307.143 121.178 307.312C121.014 307.476 120.781 307.558 120.48 307.558C120.18 307.558 119.947 307.476 119.783 307.312C119.624 307.143 119.544 306.933 119.544 306.683ZM124.664 308.604L124.712 309.458C125.259 308.797 125.977 308.467 126.865 308.467C128.406 308.467 129.189 309.349 129.217 311.112V316H127.556V311.208C127.556 310.739 127.453 310.392 127.248 310.169C127.048 309.941 126.717 309.827 126.257 309.827C125.587 309.827 125.088 310.13 124.76 310.736V316H123.099V308.604H124.664ZM134.091 312.233C134.091 311.509 134.234 310.857 134.521 310.278C134.809 309.695 135.212 309.248 135.731 308.938C136.251 308.624 136.848 308.467 137.522 308.467C138.521 308.467 139.329 308.788 139.949 309.431C140.574 310.073 140.911 310.925 140.961 311.987L140.968 312.377C140.968 313.106 140.826 313.758 140.544 314.332C140.266 314.906 139.865 315.351 139.341 315.665C138.821 315.979 138.22 316.137 137.536 316.137C136.493 316.137 135.656 315.79 135.027 315.098C134.403 314.4 134.091 313.473 134.091 312.315V312.233ZM135.752 312.377C135.752 313.138 135.909 313.735 136.224 314.168C136.538 314.596 136.976 314.811 137.536 314.811C138.097 314.811 138.532 314.592 138.842 314.154C139.156 313.717 139.313 313.076 139.313 312.233C139.313 311.486 139.152 310.894 138.828 310.456C138.509 310.019 138.074 309.8 137.522 309.8C136.98 309.8 136.549 310.016 136.23 310.449C135.911 310.878 135.752 311.52 135.752 312.377ZM146.245 310.121C146.026 310.085 145.801 310.066 145.568 310.066C144.807 310.066 144.295 310.358 144.03 310.941V316H142.369V308.604H143.955L143.996 309.431C144.397 308.788 144.953 308.467 145.664 308.467C145.901 308.467 146.097 308.499 146.252 308.562L146.245 310.121ZM146.847 312.247C146.847 311.108 147.111 310.194 147.64 309.506C148.168 308.813 148.877 308.467 149.766 308.467C150.549 308.467 151.183 308.74 151.666 309.287V305.5H153.327V316H151.823L151.741 315.234C151.244 315.836 150.581 316.137 149.752 316.137C148.886 316.137 148.184 315.788 147.646 315.091C147.113 314.394 146.847 313.446 146.847 312.247ZM148.508 312.391C148.508 313.143 148.651 313.73 148.938 314.154C149.23 314.574 149.643 314.783 150.176 314.783C150.855 314.783 151.352 314.48 151.666 313.874V310.716C151.361 310.123 150.868 309.827 150.189 309.827C149.652 309.827 149.237 310.041 148.945 310.47C148.654 310.894 148.508 311.534 148.508 312.391ZM158.317 316.137C157.265 316.137 156.41 315.806 155.754 315.146C155.102 314.48 154.776 313.596 154.776 312.493V312.288C154.776 311.55 154.918 310.891 155.2 310.312C155.487 309.729 155.888 309.276 156.403 308.952C156.918 308.629 157.493 308.467 158.126 308.467C159.133 308.467 159.91 308.788 160.457 309.431C161.008 310.073 161.284 310.982 161.284 312.158V312.828H156.451C156.501 313.439 156.704 313.922 157.06 314.277C157.42 314.633 157.871 314.811 158.413 314.811C159.174 314.811 159.794 314.503 160.272 313.888L161.168 314.742C160.872 315.184 160.475 315.528 159.979 315.774C159.486 316.016 158.933 316.137 158.317 316.137ZM158.119 309.8C157.663 309.8 157.294 309.959 157.012 310.278C156.734 310.597 156.556 311.042 156.479 311.611H159.644V311.488C159.607 310.932 159.459 310.513 159.199 310.23C158.939 309.943 158.579 309.8 158.119 309.8ZM166.452 310.121C166.233 310.085 166.008 310.066 165.775 310.066C165.014 310.066 164.502 310.358 164.237 310.941V316H162.576V308.604H164.162L164.203 309.431C164.604 308.788 165.16 308.467 165.871 308.467C166.108 308.467 166.304 308.499 166.459 308.562L166.452 310.121ZM173.069 306.806V308.604H174.375V309.834H173.069V313.963C173.069 314.245 173.124 314.451 173.233 314.578C173.347 314.701 173.548 314.763 173.835 314.763C174.026 314.763 174.22 314.74 174.416 314.694V315.979C174.038 316.084 173.673 316.137 173.322 316.137C172.046 316.137 171.408 315.433 171.408 314.024V309.834H170.191V308.604H171.408V306.806H173.069ZM175.134 312.233C175.134 311.509 175.277 310.857 175.564 310.278C175.852 309.695 176.255 309.248 176.774 308.938C177.294 308.624 177.891 308.467 178.565 308.467C179.563 308.467 180.372 308.788 180.992 309.431C181.617 310.073 181.954 310.925 182.004 311.987L182.011 312.377C182.011 313.106 181.869 313.758 181.587 314.332C181.309 314.906 180.908 315.351 180.384 315.665C179.864 315.979 179.263 316.137 178.579 316.137C177.535 316.137 176.699 315.79 176.07 315.098C175.446 314.4 175.134 313.473 175.134 312.315V312.233ZM176.795 312.377C176.795 313.138 176.952 313.735 177.267 314.168C177.581 314.596 178.019 314.811 178.579 314.811C179.14 314.811 179.575 314.592 179.885 314.154C180.199 313.717 180.356 313.076 180.356 312.233C180.356 311.486 180.195 310.894 179.871 310.456C179.552 310.019 179.117 309.8 178.565 309.8C178.023 309.8 177.592 310.016 177.273 310.449C176.954 310.878 176.795 311.52 176.795 312.377ZM188.669 316H187.008V308.604H188.669V316ZM186.905 306.683C186.905 306.427 186.985 306.215 187.145 306.047C187.309 305.878 187.541 305.794 187.842 305.794C188.143 305.794 188.375 305.878 188.539 306.047C188.703 306.215 188.785 306.427 188.785 306.683C188.785 306.933 188.703 307.143 188.539 307.312C188.375 307.476 188.143 307.558 187.842 307.558C187.541 307.558 187.309 307.476 187.145 307.312C186.985 307.143 186.905 306.933 186.905 306.683ZM192.025 308.604L192.073 309.458C192.62 308.797 193.338 308.467 194.227 308.467C195.767 308.467 196.551 309.349 196.578 311.112V316H194.917V311.208C194.917 310.739 194.814 310.392 194.609 310.169C194.409 309.941 194.078 309.827 193.618 309.827C192.948 309.827 192.449 310.13 192.121 310.736V316H190.46V308.604H192.025ZM200.358 306.806V308.604H201.664V309.834H200.358V313.963C200.358 314.245 200.413 314.451 200.522 314.578C200.636 314.701 200.837 314.763 201.124 314.763C201.315 314.763 201.509 314.74 201.705 314.694V315.979C201.327 316.084 200.962 316.137 200.611 316.137C199.335 316.137 198.697 315.433 198.697 314.024V309.834H197.48V308.604H198.697V306.806H200.358ZM206.196 316.137C205.144 316.137 204.289 315.806 203.633 315.146C202.981 314.48 202.655 313.596 202.655 312.493V312.288C202.655 311.55 202.797 310.891 203.079 310.312C203.366 309.729 203.767 309.276 204.282 308.952C204.797 308.629 205.371 308.467 206.005 308.467C207.012 308.467 207.789 308.788 208.336 309.431C208.887 310.073 209.163 310.982 209.163 312.158V312.828H204.33C204.38 313.439 204.583 313.922 204.938 314.277C205.299 314.633 205.75 314.811 206.292 314.811C207.053 314.811 207.673 314.503 208.151 313.888L209.047 314.742C208.751 315.184 208.354 315.528 207.857 315.774C207.365 316.016 206.812 316.137 206.196 316.137ZM205.998 309.8C205.542 309.8 205.173 309.959 204.891 310.278C204.613 310.597 204.435 311.042 204.357 311.611H207.522V311.488C207.486 310.932 207.338 310.513 207.078 310.23C206.818 309.943 206.458 309.8 205.998 309.8ZM214.331 310.121C214.112 310.085 213.887 310.066 213.654 310.066C212.893 310.066 212.381 310.358 212.116 310.941V316H210.455V308.604H212.041L212.082 309.431C212.483 308.788 213.039 308.467 213.75 308.467C213.987 308.467 214.183 308.499 214.338 308.562L214.331 310.121ZM219.595 316C219.522 315.859 219.458 315.629 219.403 315.31C218.875 315.861 218.228 316.137 217.462 316.137C216.719 316.137 216.113 315.925 215.644 315.501C215.174 315.077 214.939 314.553 214.939 313.929C214.939 313.14 215.231 312.536 215.814 312.117C216.402 311.693 217.241 311.481 218.33 311.481H219.349V310.996C219.349 310.613 219.242 310.308 219.027 310.08C218.813 309.848 218.487 309.731 218.05 309.731C217.672 309.731 217.362 309.827 217.12 310.019C216.879 310.205 216.758 310.445 216.758 310.736H215.097C215.097 310.331 215.231 309.952 215.5 309.602C215.769 309.246 216.133 308.968 216.594 308.768C217.059 308.567 217.576 308.467 218.146 308.467C219.011 308.467 219.702 308.686 220.217 309.123C220.732 309.556 220.996 310.167 221.01 310.955V314.291C221.01 314.956 221.103 315.487 221.29 315.884V316H219.595ZM217.77 314.804C218.098 314.804 218.405 314.724 218.692 314.564C218.984 314.405 219.203 314.191 219.349 313.922V312.527H218.453C217.838 312.527 217.375 312.634 217.065 312.849C216.756 313.063 216.601 313.366 216.601 313.758C216.601 314.077 216.705 314.332 216.915 314.523C217.129 314.71 217.414 314.804 217.77 314.804ZM225.788 314.811C226.203 314.811 226.547 314.69 226.82 314.448C227.094 314.207 227.24 313.908 227.258 313.553H228.823C228.805 314.013 228.661 314.444 228.393 314.845C228.124 315.241 227.759 315.556 227.299 315.788C226.839 316.021 226.342 316.137 225.809 316.137C224.774 316.137 223.954 315.802 223.348 315.132C222.742 314.462 222.438 313.537 222.438 312.356V312.186C222.438 311.06 222.739 310.16 223.341 309.485C223.942 308.806 224.763 308.467 225.802 308.467C226.681 308.467 227.397 308.724 227.948 309.239C228.504 309.75 228.796 310.422 228.823 311.256H227.258C227.24 310.832 227.094 310.483 226.82 310.21C226.551 309.937 226.207 309.8 225.788 309.8C225.25 309.8 224.836 309.996 224.544 310.388C224.252 310.775 224.104 311.365 224.1 312.158V312.425C224.1 313.227 224.243 313.826 224.53 314.223C224.822 314.615 225.241 314.811 225.788 314.811ZM232.159 306.806V308.604H233.465V309.834H232.159V313.963C232.159 314.245 232.214 314.451 232.323 314.578C232.437 314.701 232.638 314.763 232.925 314.763C233.116 314.763 233.31 314.74 233.506 314.694V315.979C233.128 316.084 232.763 316.137 232.412 316.137C231.136 316.137 230.498 315.433 230.498 314.024V309.834H229.281V308.604H230.498V306.806H232.159ZM86.3486 329.71L87.5244 324.604H89.1445L87.1279 332H85.7607L84.1748 326.921L82.6162 332H81.249L79.2256 324.604H80.8457L82.042 329.655L83.5596 324.604H84.8105L86.3486 329.71ZM92.0225 332H90.3613V324.604H92.0225V332ZM90.2588 322.683C90.2588 322.427 90.3385 322.215 90.498 322.047C90.6621 321.878 90.8945 321.794 91.1953 321.794C91.4961 321.794 91.7285 321.878 91.8926 322.047C92.0566 322.215 92.1387 322.427 92.1387 322.683C92.1387 322.933 92.0566 323.143 91.8926 323.312C91.7285 323.476 91.4961 323.558 91.1953 323.558C90.8945 323.558 90.6621 323.476 90.498 323.312C90.3385 323.143 90.2588 322.933 90.2588 322.683ZM95.9189 322.806V324.604H97.2246V325.834H95.9189V329.963C95.9189 330.245 95.9736 330.451 96.083 330.578C96.1969 330.701 96.3975 330.763 96.6846 330.763C96.876 330.763 97.0697 330.74 97.2656 330.694V331.979C96.8874 332.084 96.5228 332.137 96.1719 332.137C94.8958 332.137 94.2578 331.433 94.2578 330.024V325.834H93.041V324.604H94.2578V322.806H95.9189ZM100.137 325.41C100.679 324.781 101.365 324.467 102.194 324.467C103.771 324.467 104.571 325.367 104.594 327.167V332H102.933V327.229C102.933 326.718 102.821 326.358 102.598 326.148C102.379 325.934 102.055 325.827 101.627 325.827C100.962 325.827 100.465 326.123 100.137 326.716V332H98.4756V321.5H100.137V325.41ZM111.847 322.806V324.604H113.152V325.834H111.847V329.963C111.847 330.245 111.901 330.451 112.011 330.578C112.125 330.701 112.325 330.763 112.612 330.763C112.804 330.763 112.997 330.74 113.193 330.694V331.979C112.815 332.084 112.451 332.137 112.1 332.137C110.824 332.137 110.186 331.433 110.186 330.024V325.834H108.969V324.604H110.186V322.806H111.847ZM116.064 325.41C116.607 324.781 117.293 324.467 118.122 324.467C119.699 324.467 120.499 325.367 120.521 327.167V332H118.86V327.229C118.86 326.718 118.749 326.358 118.525 326.148C118.307 325.934 117.983 325.827 117.555 325.827C116.889 325.827 116.393 326.123 116.064 326.716V332H114.403V321.5H116.064V325.41ZM125.464 332.137C124.411 332.137 123.557 331.806 122.9 331.146C122.249 330.48 121.923 329.596 121.923 328.493V328.288C121.923 327.55 122.064 326.891 122.347 326.312C122.634 325.729 123.035 325.276 123.55 324.952C124.065 324.629 124.639 324.467 125.272 324.467C126.28 324.467 127.057 324.788 127.604 325.431C128.155 326.073 128.431 326.982 128.431 328.158V328.828H123.598C123.648 329.439 123.851 329.922 124.206 330.277C124.566 330.633 125.017 330.811 125.56 330.811C126.321 330.811 126.94 330.503 127.419 329.888L128.314 330.742C128.018 331.184 127.622 331.528 127.125 331.774C126.633 332.016 126.079 332.137 125.464 332.137ZM125.266 325.8C124.81 325.8 124.441 325.959 124.158 326.278C123.88 326.597 123.702 327.042 123.625 327.611H126.79V327.488C126.754 326.932 126.605 326.513 126.346 326.23C126.086 325.943 125.726 325.8 125.266 325.8ZM139.108 327.782H135.103V332H133.373V322.047H139.696V323.441H135.103V326.401H139.108V327.782ZM145.329 329.683H141.474L140.667 332H138.869L142.629 322.047H144.181L147.947 332H146.143L145.329 329.683ZM141.959 328.288H144.844L143.401 324.159L141.959 328.288ZM154.489 322.806V324.604H155.795V325.834H154.489V329.963C154.489 330.245 154.544 330.451 154.653 330.578C154.767 330.701 154.968 330.763 155.255 330.763C155.446 330.763 155.64 330.74 155.836 330.694V331.979C155.458 332.084 155.093 332.137 154.742 332.137C153.466 332.137 152.828 331.433 152.828 330.024V325.834H151.611V324.604H152.828V322.806H154.489ZM156.554 328.233C156.554 327.509 156.697 326.857 156.984 326.278C157.271 325.695 157.675 325.248 158.194 324.938C158.714 324.624 159.311 324.467 159.985 324.467C160.983 324.467 161.792 324.788 162.412 325.431C163.036 326.073 163.374 326.925 163.424 327.987L163.431 328.377C163.431 329.106 163.289 329.758 163.007 330.332C162.729 330.906 162.328 331.351 161.804 331.665C161.284 331.979 160.683 332.137 159.999 332.137C158.955 332.137 158.119 331.79 157.49 331.098C156.866 330.4 156.554 329.473 156.554 328.315V328.233ZM158.215 328.377C158.215 329.138 158.372 329.735 158.687 330.168C159.001 330.596 159.438 330.811 159.999 330.811C160.56 330.811 160.995 330.592 161.305 330.154C161.619 329.717 161.776 329.076 161.776 328.233C161.776 327.486 161.615 326.894 161.291 326.456C160.972 326.019 160.537 325.8 159.985 325.8C159.443 325.8 159.012 326.016 158.693 326.449C158.374 326.878 158.215 327.52 158.215 328.377ZM167.238 328.828L166.5 329.587V332H164.839V321.5H166.5V327.557L167.02 326.907L169.063 324.604H171.06L168.312 327.687L171.354 332H169.433L167.238 328.828ZM175.271 332.137C174.218 332.137 173.363 331.806 172.707 331.146C172.055 330.48 171.729 329.596 171.729 328.493V328.288C171.729 327.55 171.871 326.891 172.153 326.312C172.44 325.729 172.841 325.276 173.356 324.952C173.871 324.629 174.446 324.467 175.079 324.467C176.086 324.467 176.863 324.788 177.41 325.431C177.962 326.073 178.237 326.982 178.237 328.158V328.828H173.404C173.454 329.439 173.657 329.922 174.013 330.277C174.373 330.633 174.824 330.811 175.366 330.811C176.127 330.811 176.747 330.503 177.226 329.888L178.121 330.742C177.825 331.184 177.428 331.528 176.932 331.774C176.439 332.016 175.886 332.137 175.271 332.137ZM175.072 325.8C174.617 325.8 174.247 325.959 173.965 326.278C173.687 326.597 173.509 327.042 173.432 327.611H176.597V327.488C176.56 326.932 176.412 326.513 176.152 326.23C175.893 325.943 175.533 325.8 175.072 325.8ZM181.074 324.604L181.122 325.458C181.669 324.797 182.387 324.467 183.275 324.467C184.816 324.467 185.6 325.349 185.627 327.112V332H183.966V327.208C183.966 326.739 183.863 326.392 183.658 326.169C183.458 325.941 183.127 325.827 182.667 325.827C181.997 325.827 181.498 326.13 181.17 326.736V332H179.509V324.604H181.074ZM191.472 329.99C191.472 329.694 191.349 329.468 191.103 329.313C190.861 329.159 190.458 329.022 189.893 328.903C189.327 328.785 188.856 328.634 188.478 328.452C187.648 328.051 187.233 327.47 187.233 326.709C187.233 326.071 187.502 325.538 188.04 325.109C188.578 324.681 189.261 324.467 190.091 324.467C190.975 324.467 191.688 324.686 192.23 325.123C192.777 325.561 193.051 326.128 193.051 326.825H191.39C191.39 326.506 191.271 326.242 191.034 326.032C190.797 325.818 190.483 325.711 190.091 325.711C189.726 325.711 189.428 325.795 189.195 325.964C188.967 326.132 188.854 326.358 188.854 326.641C188.854 326.896 188.961 327.094 189.175 327.235C189.389 327.377 189.822 327.52 190.474 327.666C191.125 327.807 191.636 327.978 192.005 328.179C192.379 328.375 192.654 328.612 192.832 328.89C193.014 329.168 193.105 329.505 193.105 329.901C193.105 330.567 192.83 331.107 192.278 331.521C191.727 331.932 191.005 332.137 190.111 332.137C189.505 332.137 188.965 332.027 188.491 331.809C188.017 331.59 187.648 331.289 187.384 330.906C187.119 330.523 186.987 330.111 186.987 329.669H188.601C188.623 330.061 188.771 330.364 189.045 330.578C189.318 330.788 189.681 330.893 190.132 330.893C190.569 330.893 190.902 330.811 191.13 330.646C191.358 330.478 191.472 330.259 191.472 329.99Z" fill="#65BF73"/>
<defs>
<filter id="filter0_d" x="242" y="0" width="490" height="359" filterUnits="userSpaceOnUse" color-interpolation-filters="sRGB">
<feFlood flood-opacity="0" result="BackgroundImageFix"/>
<feColorMatrix in="SourceAlpha" type="matrix" values="0 0 0 0 0 0 0 0 0 0 0 0 0 0 0 0 0 0 127 0"/>
<feOffset dx="4" dy="4"/>
<feColorMatrix type="matrix" values="0 0 0 0 0.674908 0 0 0 0 0.662083 0 0 0 0 0.945833 0 0 0 1 0"/>
<feBlend mode="normal" in2="BackgroundImageFix" result="effect1_dropShadow"/>
<feBlend mode="normal" in="SourceGraphic" in2="effect1_dropShadow" result="shape"/>
</filter>
</defs>
</svg>
