<svg width="452" height="118" viewBox="0 0 452 118" fill="none" xmlns="http://www.w3.org/2000/svg">
<g clip-path="url(#clip0)">
<path d="M79 101.5C91.4264 101.5 101.5 91.4264 101.5 79C101.5 66.5736 91.4264 56.5 79 56.5C66.5736 56.5 56.5 66.5736 56.5 79C56.5 91.4264 66.5736 101.5 79 101.5Z" stroke="#5452F6" stroke-width="1.5" stroke-linecap="round" stroke-linejoin="round"/>
<path d="M75.7644 63C75.7644 62.5858 75.4286 62.25 75.0144 62.25C74.6002 62.25 74.2644 62.5858 74.2644 63H75.7644ZM82.2543 81.4593C82.4841 81.1147 82.391 80.649 82.0463 80.4193C81.7017 80.1895 81.236 80.2826 81.0063 80.6273L82.2543 81.4593ZM69 68.8659C68.5858 68.8659 68.25 69.2017 68.25 69.6159C68.25 70.0301 68.5858 70.3659 69 70.3659V68.8659ZM87.6447 69.6159L88.2092 70.1098C88.403 69.8883 88.4493 69.5739 88.3277 69.306C88.2061 69.038 87.939 68.8659 87.6447 68.8659V69.6159ZM79.2245 79.239L78.6601 78.7451C78.4295 79.0086 78.412 79.3966 78.6178 79.6799C78.8237 79.9631 79.1981 80.0663 79.52 79.9283L79.2245 79.239ZM80.4274 90.6664L80.7628 89.9956L80.7628 89.9956L80.4274 90.6664ZM78.7332 86.6935C78.8641 86.3005 78.6518 85.8758 78.2588 85.7448C77.8659 85.6138 77.4411 85.8262 77.3101 86.2191L78.7332 86.6935ZM74.2644 63V69.6159H75.7644V63H74.2644ZM74.2644 69.6159V81.6447H75.7644V69.6159H74.2644ZM74.2644 81.6447C74.2644 82.3552 74.626 83.0008 75.1318 83.4705C75.6442 83.9463 76.3469 84.2864 77.1446 84.3885C78.7863 84.5985 80.6935 83.8006 82.2543 81.4593L81.0063 80.6273C79.6802 82.6164 78.2795 83.0214 77.3349 82.9006C76.8396 82.8372 76.4295 82.6285 76.1525 82.3713C75.8689 82.108 75.7644 81.8364 75.7644 81.6447H74.2644ZM69 70.3659H75.0144V68.8659H69V70.3659ZM75.0144 70.3659H87.6447V68.8659H75.0144V70.3659ZM87.0803 69.122L78.6601 78.7451L79.789 79.7328L88.2092 70.1098L87.0803 69.122ZM79.52 79.9283C81.5135 79.074 83.3634 78.9958 84.6654 79.6778C85.9157 80.3327 86.8947 81.8181 86.8947 84.652H88.3947C88.3947 81.4713 87.2687 79.3481 85.3614 78.349C83.5059 77.3771 81.1457 77.5996 78.9291 78.5496L79.52 79.9283ZM86.8947 84.652C86.8947 86.3533 86.5406 87.5246 86.047 88.3287C85.5568 89.1272 84.8997 89.6121 84.2032 89.897C83.4973 90.1858 82.744 90.2709 82.0914 90.2458C81.4204 90.22 80.9349 90.0816 80.7628 89.9956L80.092 91.3372C80.5213 91.5519 81.2387 91.7142 82.0338 91.7447C82.8472 91.776 83.823 91.6732 84.7711 91.2854C85.7286 90.8937 86.6502 90.2132 87.3254 89.1135C87.997 88.0193 88.3947 86.5593 88.3947 84.652H86.8947ZM80.7628 89.9956C80.27 89.7491 79.6152 89.2292 79.1623 88.5823C78.7092 87.935 78.5366 87.2832 78.7332 86.6935L77.3101 86.2191C76.9053 87.4336 77.3341 88.5862 77.9335 89.4425C78.5332 90.2992 79.382 90.9822 80.092 91.3372L80.7628 89.9956Z" fill="#5452F6"/>
</g>
<path d="M8.90723 32H7.17773L2.74121 24.9385V32H1.01172V22.0469H2.74121L7.19141 29.1357V22.0469H8.90723V32ZM10.4795 28.2334C10.4795 27.5088 10.623 26.8571 10.9102 26.2783C11.1973 25.695 11.6006 25.2484 12.1201 24.9385C12.6396 24.624 13.2367 24.4668 13.9111 24.4668C14.9092 24.4668 15.7181 24.7881 16.3379 25.4307C16.9622 26.0732 17.2995 26.9255 17.3496 27.9873L17.3564 28.377C17.3564 29.1061 17.2152 29.7578 16.9326 30.332C16.6546 30.9062 16.2536 31.3506 15.7295 31.665C15.21 31.9795 14.6084 32.1367 13.9248 32.1367C12.8812 32.1367 12.0449 31.7904 11.416 31.0977C10.7917 30.4004 10.4795 29.473 10.4795 28.3154V28.2334ZM12.1406 28.377C12.1406 29.138 12.2979 29.735 12.6123 30.168C12.9268 30.5964 13.3643 30.8105 13.9248 30.8105C14.4854 30.8105 14.9206 30.5918 15.2305 30.1543C15.5449 29.7168 15.7021 29.0765 15.7021 28.2334C15.7021 27.486 15.5404 26.8936 15.2168 26.4561C14.8978 26.0186 14.4626 25.7998 13.9111 25.7998C13.3688 25.7998 12.9382 26.0163 12.6191 26.4492C12.3001 26.8776 12.1406 27.5202 12.1406 28.377ZM20.8428 22.8057V24.6035H22.1484V25.834H20.8428V29.9629C20.8428 30.2454 20.8975 30.4505 21.0068 30.5781C21.1208 30.7012 21.3213 30.7627 21.6084 30.7627C21.7998 30.7627 21.9935 30.7399 22.1895 30.6943V31.9795C21.8112 32.0843 21.4466 32.1367 21.0957 32.1367C19.8197 32.1367 19.1816 31.4326 19.1816 30.0244V25.834H17.9648V24.6035H19.1816V22.8057H20.8428ZM29.9482 30.8105C30.363 30.8105 30.707 30.6898 30.9805 30.4482C31.2539 30.2067 31.3997 29.9082 31.418 29.5527H32.9834C32.9652 30.013 32.8216 30.4437 32.5527 30.8447C32.2839 31.2412 31.9193 31.5557 31.459 31.7881C30.9987 32.0205 30.502 32.1367 29.9688 32.1367C28.9342 32.1367 28.1139 31.8018 27.5078 31.1318C26.9017 30.4619 26.5986 29.5368 26.5986 28.3564V28.1855C26.5986 27.0599 26.8994 26.1598 27.501 25.4854C28.1025 24.8063 28.9229 24.4668 29.9619 24.4668C30.8415 24.4668 31.557 24.7243 32.1084 25.2393C32.6644 25.7497 32.9561 26.4219 32.9834 27.2559H31.418C31.3997 26.832 31.2539 26.4834 30.9805 26.21C30.7116 25.9365 30.3675 25.7998 29.9482 25.7998C29.4105 25.7998 28.9958 25.9958 28.7041 26.3877C28.4124 26.7751 28.2643 27.3652 28.2598 28.1582V28.4248C28.2598 29.2269 28.4033 29.8262 28.6904 30.2227C28.9821 30.6146 29.4014 30.8105 29.9482 30.8105ZM33.9268 28.2334C33.9268 27.5088 34.0703 26.8571 34.3574 26.2783C34.6445 25.695 35.0479 25.2484 35.5674 24.9385C36.0869 24.624 36.6839 24.4668 37.3584 24.4668C38.3564 24.4668 39.1654 24.7881 39.7852 25.4307C40.4095 26.0732 40.7467 26.9255 40.7969 27.9873L40.8037 28.377C40.8037 29.1061 40.6624 29.7578 40.3799 30.332C40.1019 30.9062 39.7008 31.3506 39.1768 31.665C38.6572 31.9795 38.0557 32.1367 37.3721 32.1367C36.3285 32.1367 35.4922 31.7904 34.8633 31.0977C34.2389 30.4004 33.9268 29.473 33.9268 28.3154V28.2334ZM35.5879 28.377C35.5879 29.138 35.7451 29.735 36.0596 30.168C36.374 30.5964 36.8115 30.8105 37.3721 30.8105C37.9326 30.8105 38.3678 30.5918 38.6777 30.1543C38.9922 29.7168 39.1494 29.0765 39.1494 28.2334C39.1494 27.486 38.9876 26.8936 38.6641 26.4561C38.3451 26.0186 37.9098 25.7998 37.3584 25.7998C36.8161 25.7998 36.3854 26.0163 36.0664 26.4492C35.7474 26.8776 35.5879 27.5202 35.5879 28.377ZM43.7705 24.6035L43.8184 25.376C44.3379 24.7699 45.0488 24.4668 45.9512 24.4668C46.9401 24.4668 47.6169 24.8451 47.9814 25.6016C48.5192 24.8451 49.2757 24.4668 50.251 24.4668C51.0667 24.4668 51.6729 24.6924 52.0693 25.1436C52.4704 25.5947 52.6755 26.2601 52.6846 27.1396V32H51.0234V27.1875C51.0234 26.7181 50.9209 26.374 50.7158 26.1553C50.5107 25.9365 50.1712 25.8271 49.6973 25.8271C49.319 25.8271 49.0091 25.9297 48.7676 26.1348C48.5306 26.3353 48.3643 26.5996 48.2686 26.9277L48.2754 32H46.6143V27.1328C46.5915 26.2624 46.1471 25.8271 45.2812 25.8271C44.6159 25.8271 44.1442 26.0983 43.8662 26.6406V32H42.2051V24.6035H43.7705ZM60.8672 28.377C60.8672 29.5208 60.6074 30.4346 60.0879 31.1182C59.5684 31.7972 58.8711 32.1367 57.9961 32.1367C57.1849 32.1367 56.5355 31.8701 56.0479 31.3369V34.8438H54.3867V24.6035H55.918L55.9863 25.3555C56.474 24.763 57.137 24.4668 57.9756 24.4668C58.8779 24.4668 59.5843 24.804 60.0947 25.4785C60.6097 26.1484 60.8672 27.0804 60.8672 28.2744V28.377ZM59.2129 28.2334C59.2129 27.4951 59.0648 26.9095 58.7686 26.4766C58.4769 26.0436 58.0576 25.8271 57.5107 25.8271C56.8317 25.8271 56.3441 26.1074 56.0479 26.668V29.9492C56.3486 30.5234 56.8408 30.8105 57.5244 30.8105C58.0531 30.8105 58.4655 30.5986 58.7617 30.1748C59.0625 29.7464 59.2129 29.0993 59.2129 28.2334ZM64.0459 32H62.3848V21.5H64.0459V32ZM67.6279 32H65.9668V24.6035H67.6279V32ZM65.8643 22.6826C65.8643 22.4274 65.944 22.2155 66.1035 22.0469C66.2676 21.8783 66.5 21.7939 66.8008 21.7939C67.1016 21.7939 67.334 21.8783 67.498 22.0469C67.6621 22.2155 67.7441 22.4274 67.7441 22.6826C67.7441 22.9333 67.6621 23.1429 67.498 23.3115C67.334 23.4756 67.1016 23.5576 66.8008 23.5576C66.5 23.5576 66.2676 23.4756 66.1035 23.3115C65.944 23.1429 65.8643 22.9333 65.8643 22.6826ZM73.8623 32C73.7894 31.8587 73.7256 31.6286 73.6709 31.3096C73.1423 31.861 72.4951 32.1367 71.7295 32.1367C70.9867 32.1367 70.3805 31.9248 69.9111 31.501C69.4417 31.0771 69.207 30.5531 69.207 29.9287C69.207 29.1403 69.4987 28.5365 70.082 28.1172C70.6699 27.6934 71.5085 27.4814 72.5977 27.4814H73.6162V26.9961C73.6162 26.6133 73.5091 26.3079 73.2949 26.0801C73.0807 25.8477 72.7549 25.7314 72.3174 25.7314C71.9391 25.7314 71.6292 25.8271 71.3877 26.0186C71.1462 26.2054 71.0254 26.4447 71.0254 26.7363H69.3643C69.3643 26.3307 69.4987 25.9525 69.7676 25.6016C70.0365 25.2461 70.401 24.9681 70.8613 24.7676C71.3262 24.5671 71.8434 24.4668 72.4131 24.4668C73.279 24.4668 73.9694 24.6855 74.4844 25.123C74.9993 25.556 75.2637 26.1667 75.2773 26.9551V30.291C75.2773 30.9564 75.3708 31.4873 75.5576 31.8838V32H73.8623ZM72.0371 30.8037C72.3652 30.8037 72.6729 30.724 72.96 30.5645C73.2516 30.4049 73.4704 30.1908 73.6162 29.9219V28.5273H72.7207C72.1055 28.5273 71.6429 28.6344 71.333 28.8486C71.0231 29.0628 70.8682 29.3659 70.8682 29.7578C70.8682 30.0768 70.973 30.332 71.1826 30.5234C71.3968 30.7103 71.6816 30.8037 72.0371 30.8037ZM78.5586 24.6035L78.6064 25.458C79.1533 24.7972 79.8711 24.4668 80.7598 24.4668C82.3001 24.4668 83.084 25.3486 83.1113 27.1123V32H81.4502V27.208C81.4502 26.7386 81.3477 26.3923 81.1426 26.1689C80.9421 25.9411 80.6117 25.8271 80.1514 25.8271C79.4814 25.8271 78.9824 26.1302 78.6543 26.7363V32H76.9932V24.6035H78.5586ZM86.8916 22.8057V24.6035H88.1973V25.834H86.8916V29.9629C86.8916 30.2454 86.9463 30.4505 87.0557 30.5781C87.1696 30.7012 87.3701 30.7627 87.6572 30.7627C87.8486 30.7627 88.0423 30.7399 88.2383 30.6943V31.9795C87.86 32.0843 87.4954 32.1367 87.1445 32.1367C85.8685 32.1367 85.2305 31.4326 85.2305 30.0244V25.834H84.0137V24.6035H85.2305V22.8057H86.8916ZM99.4561 29.71L100.632 24.6035H102.252L100.235 32H98.8682L97.2822 26.9209L95.7236 32H94.3564L92.333 24.6035H93.9531L95.1494 29.6553L96.667 24.6035H97.918L99.4561 29.71ZM105.13 32H103.469V24.6035H105.13V32ZM103.366 22.6826C103.366 22.4274 103.446 22.2155 103.605 22.0469C103.77 21.8783 104.002 21.7939 104.303 21.7939C104.604 21.7939 104.836 21.8783 105 22.0469C105.164 22.2155 105.246 22.4274 105.246 22.6826C105.246 22.9333 105.164 23.1429 105 23.3115C104.836 23.4756 104.604 23.5576 104.303 23.5576C104.002 23.5576 103.77 23.4756 103.605 23.3115C103.446 23.1429 103.366 22.9333 103.366 22.6826ZM109.026 22.8057V24.6035H110.332V25.834H109.026V29.9629C109.026 30.2454 109.081 30.4505 109.19 30.5781C109.304 30.7012 109.505 30.7627 109.792 30.7627C109.983 30.7627 110.177 30.7399 110.373 30.6943V31.9795C109.995 32.0843 109.63 32.1367 109.279 32.1367C108.003 32.1367 107.365 31.4326 107.365 30.0244V25.834H106.148V24.6035H107.365V22.8057H109.026ZM113.244 25.4102C113.786 24.7812 114.472 24.4668 115.302 24.4668C116.879 24.4668 117.678 25.3669 117.701 27.167V32H116.04V27.2285C116.04 26.7181 115.928 26.3581 115.705 26.1484C115.486 25.9342 115.163 25.8271 114.734 25.8271C114.069 25.8271 113.572 26.1234 113.244 26.7158V32H111.583V21.5H113.244V25.4102ZM128.769 27.7822H124.763V32H123.033V22.0469H129.356V23.4414H124.763V26.4014H128.769V27.7822ZM134.989 29.6826H131.134L130.327 32H128.529L132.289 22.0469H133.841L137.607 32H135.803L134.989 29.6826ZM131.619 28.2881H134.504L133.062 24.1592L131.619 28.2881ZM142.974 32H141.319V24.0088L138.879 24.8428V23.4414L142.762 22.0127H142.974V32ZM147.574 30.25C147.884 30.25 148.123 30.3389 148.292 30.5166C148.461 30.6898 148.545 30.9085 148.545 31.1729C148.545 31.4326 148.461 31.6491 148.292 31.8223C148.123 31.9909 147.884 32.0752 147.574 32.0752C147.278 32.0752 147.043 31.9909 146.87 31.8223C146.697 31.6536 146.61 31.4372 146.61 31.1729C146.61 30.9085 146.695 30.6898 146.863 30.5166C147.032 30.3389 147.269 30.25 147.574 30.25ZM157.035 32H150.343V30.8584L153.658 27.2422C154.137 26.709 154.476 26.2646 154.677 25.9092C154.882 25.5492 154.984 25.1891 154.984 24.8291C154.984 24.3551 154.85 23.9723 154.581 23.6807C154.317 23.389 153.959 23.2432 153.508 23.2432C152.97 23.2432 152.553 23.4072 152.257 23.7354C151.961 24.0635 151.812 24.5124 151.812 25.082H150.151C150.151 24.4759 150.288 23.9313 150.562 23.4482C150.84 22.9606 151.234 22.5824 151.744 22.3135C152.259 22.0446 152.852 21.9102 153.521 21.9102C154.488 21.9102 155.249 22.154 155.805 22.6416C156.365 23.1247 156.646 23.7946 156.646 24.6514C156.646 25.1481 156.504 25.6699 156.222 26.2168C155.944 26.7591 155.486 27.3766 154.848 28.0693L152.414 30.6738H157.035V32Z" fill="#5452F6"/>
<path d="M69.0703 7.73438L71.4609 3.625H73.7422L70.3047 9.26562L73.8203 15H71.5156L69.0703 10.8281L66.6172 15H64.3203L67.8438 9.26562L64.3984 3.625H66.6797L69.0703 7.73438ZM83.5 5.21875H79.9531V15H77.9922V5.21875H74.4766V3.625H83.5V5.21875ZM86.8594 13.4219H92.9375V15H84.4688V13.7188L90.3516 5.21875H84.5078V3.625H92.75V4.875L86.8594 13.4219Z" fill="#5452F6"/>
<path d="M369 101.5C381.426 101.5 391.5 91.4264 391.5 79C391.5 66.5736 381.426 56.5 369 56.5C356.574 56.5 346.5 66.5736 346.5 79C346.5 91.4264 356.574 101.5 369 101.5Z" stroke="#2097F6" stroke-width="1.5" stroke-linecap="round" stroke-linejoin="round"/>
<path d="M401 79C401 76.7341 400.279 74.5269 398.94 72.6986C397.602 70.8702 395.715 69.5157 393.555 68.8314C394.601 66.8197 394.979 64.527 394.634 62.2861C394.288 60.0452 393.237 57.9726 391.634 56.3694C390.031 54.7661 387.958 53.7155 385.717 53.37C383.476 53.0246 381.183 53.4024 379.171 54.4485C378.488 52.2876 377.133 50.4006 375.305 49.0613C373.476 47.722 371.269 47 369.002 47C366.735 47 364.528 47.722 362.699 49.0613C360.871 50.4006 359.516 52.2876 358.833 54.4485C356.821 53.4024 354.528 53.0246 352.287 53.37C350.046 53.7155 347.973 54.7661 346.37 56.3694C344.767 57.9726 343.716 60.0452 343.37 62.2861C343.025 64.527 343.403 66.8197 344.449 68.8314C342.288 69.515 340.401 70.8692 339.061 72.6976C337.722 74.526 337 76.7336 337 79C337 81.2665 337.722 83.474 339.061 85.3024C340.401 87.1308 342.288 88.485 344.449 89.1686C343.403 91.1803 343.025 93.473 343.37 95.7139C343.716 97.9548 344.767 100.027 346.37 101.631C347.973 103.234 350.046 104.285 352.287 104.63C354.528 104.975 356.821 104.598 358.833 103.552C359.516 105.712 360.871 107.599 362.699 108.939C364.528 110.278 366.735 111 369.002 111C371.269 111 373.476 110.278 375.305 108.939C377.133 107.599 378.488 105.712 379.171 103.552C381.183 104.598 383.476 104.975 385.717 104.63C387.958 104.285 390.031 103.234 391.634 101.631C393.237 100.027 394.288 97.9548 394.634 95.7139C394.979 93.473 394.601 91.1803 393.555 89.1686C395.715 88.4843 397.602 87.1298 398.94 85.3014C400.279 83.4731 401 81.2659 401 79Z" stroke="#2097F6" stroke-width="1.5" stroke-linecap="round" stroke-linejoin="round"/>
<path d="M365.764 63C365.764 62.5858 365.429 62.25 365.014 62.25C364.6 62.25 364.264 62.5858 364.264 63H365.764ZM372.254 81.4593C372.484 81.1147 372.391 80.649 372.046 80.4193C371.702 80.1895 371.236 80.2826 371.006 80.6273L372.254 81.4593ZM359 68.8659C358.586 68.8659 358.25 69.2017 358.25 69.6159C358.25 70.0301 358.586 70.3659 359 70.3659V68.8659ZM377.645 69.6159L378.209 70.1098C378.403 69.8883 378.449 69.5739 378.328 69.306C378.206 69.038 377.939 68.8659 377.645 68.8659V69.6159ZM369.225 79.239L368.66 78.7451C368.43 79.0086 368.412 79.3966 368.618 79.6799C368.824 79.9631 369.198 80.0663 369.52 79.9283L369.225 79.239ZM370.427 90.6664L370.763 89.9956L370.763 89.9956L370.427 90.6664ZM368.733 86.6935C368.864 86.3005 368.652 85.8758 368.259 85.7448C367.866 85.6138 367.441 85.8262 367.31 86.2191L368.733 86.6935ZM364.264 63V69.6159H365.764V63H364.264ZM364.264 69.6159V81.6447H365.764V69.6159H364.264ZM364.264 81.6447C364.264 82.3552 364.626 83.0008 365.132 83.4705C365.644 83.9463 366.347 84.2864 367.145 84.3885C368.786 84.5985 370.694 83.8006 372.254 81.4593L371.006 80.6273C369.68 82.6164 368.279 83.0214 367.335 82.9006C366.84 82.8372 366.43 82.6285 366.153 82.3713C365.869 82.108 365.764 81.8364 365.764 81.6447H364.264ZM359 70.3659H365.014V68.8659H359V70.3659ZM365.014 70.3659H377.645V68.8659H365.014V70.3659ZM377.08 69.122L368.66 78.7451L369.789 79.7328L378.209 70.1098L377.08 69.122ZM369.52 79.9283C371.513 79.074 373.363 78.9958 374.665 79.6778C375.916 80.3327 376.895 81.8181 376.895 84.652H378.395C378.395 81.4713 377.269 79.3481 375.361 78.349C373.506 77.3771 371.146 77.5996 368.929 78.5496L369.52 79.9283ZM376.895 84.652C376.895 86.3533 376.541 87.5246 376.047 88.3287C375.557 89.1272 374.9 89.6121 374.203 89.897C373.497 90.1858 372.744 90.2709 372.091 90.2458C371.42 90.22 370.935 90.0816 370.763 89.9956L370.092 91.3372C370.521 91.5519 371.239 91.7142 372.034 91.7447C372.847 91.776 373.823 91.6732 374.771 91.2854C375.729 90.8937 376.65 90.2132 377.325 89.1135C377.997 88.0193 378.395 86.5593 378.395 84.652H376.895ZM370.763 89.9956C370.27 89.7491 369.615 89.2292 369.162 88.5823C368.709 87.935 368.537 87.2832 368.733 86.6935L367.31 86.2191C366.905 87.4336 367.334 88.5862 367.933 89.4425C368.533 90.2992 369.382 90.9822 370.092 91.3372L370.763 89.9956Z" fill="#2097F6"/>
<path d="M293.747 27.7822H289.741V32H288.012V22.0469H294.335V23.4414H289.741V26.4014H293.747V27.7822ZM299.879 31.2754C299.391 31.8496 298.699 32.1367 297.801 32.1367C296.999 32.1367 296.39 31.902 295.976 31.4326C295.565 30.9632 295.36 30.2842 295.36 29.3955V24.6035H297.021V29.375C297.021 30.3138 297.411 30.7832 298.19 30.7832C298.997 30.7832 299.542 30.4938 299.824 29.915V24.6035H301.485V32H299.92L299.879 31.2754ZM304.944 32H303.283V21.5H304.944V32ZM308.526 32H306.865V21.5H308.526V32ZM312.929 29.6211L314.433 24.6035H316.203L313.264 33.1211C312.812 34.3652 312.047 34.9873 310.967 34.9873C310.725 34.9873 310.459 34.9463 310.167 34.8643V33.5791L310.481 33.5996C310.901 33.5996 311.215 33.5221 311.425 33.3672C311.639 33.2168 311.808 32.9616 311.931 32.6016L312.17 31.9658L309.572 24.6035H311.363L312.929 29.6211ZM323.688 30.8105C324.103 30.8105 324.447 30.6898 324.721 30.4482C324.994 30.2067 325.14 29.9082 325.158 29.5527H326.724C326.705 30.013 326.562 30.4437 326.293 30.8447C326.024 31.2412 325.66 31.5557 325.199 31.7881C324.739 32.0205 324.242 32.1367 323.709 32.1367C322.674 32.1367 321.854 31.8018 321.248 31.1318C320.642 30.4619 320.339 29.5368 320.339 28.3564V28.1855C320.339 27.0599 320.64 26.1598 321.241 25.4854C321.843 24.8063 322.663 24.4668 323.702 24.4668C324.582 24.4668 325.297 24.7243 325.849 25.2393C326.405 25.7497 326.696 26.4219 326.724 27.2559H325.158C325.14 26.832 324.994 26.4834 324.721 26.21C324.452 25.9365 324.108 25.7998 323.688 25.7998C323.151 25.7998 322.736 25.9958 322.444 26.3877C322.153 26.7751 322.005 27.3652 322 28.1582V28.4248C322 29.2269 322.144 29.8262 322.431 30.2227C322.722 30.6146 323.142 30.8105 323.688 30.8105ZM327.667 28.2334C327.667 27.5088 327.811 26.8571 328.098 26.2783C328.385 25.695 328.788 25.2484 329.308 24.9385C329.827 24.624 330.424 24.4668 331.099 24.4668C332.097 24.4668 332.906 24.7881 333.525 25.4307C334.15 26.0732 334.487 26.9255 334.537 27.9873L334.544 28.377C334.544 29.1061 334.403 29.7578 334.12 30.332C333.842 30.9062 333.441 31.3506 332.917 31.665C332.397 31.9795 331.796 32.1367 331.112 32.1367C330.069 32.1367 329.232 31.7904 328.604 31.0977C327.979 30.4004 327.667 29.473 327.667 28.3154V28.2334ZM329.328 28.377C329.328 29.138 329.485 29.735 329.8 30.168C330.114 30.5964 330.552 30.8105 331.112 30.8105C331.673 30.8105 332.108 30.5918 332.418 30.1543C332.732 29.7168 332.89 29.0765 332.89 28.2334C332.89 27.486 332.728 26.8936 332.404 26.4561C332.085 26.0186 331.65 25.7998 331.099 25.7998C330.556 25.7998 330.126 26.0163 329.807 26.4492C329.488 26.8776 329.328 27.5202 329.328 28.377ZM337.511 24.6035L337.559 25.376C338.078 24.7699 338.789 24.4668 339.691 24.4668C340.68 24.4668 341.357 24.8451 341.722 25.6016C342.259 24.8451 343.016 24.4668 343.991 24.4668C344.807 24.4668 345.413 24.6924 345.81 25.1436C346.211 25.5947 346.416 26.2601 346.425 27.1396V32H344.764V27.1875C344.764 26.7181 344.661 26.374 344.456 26.1553C344.251 25.9365 343.911 25.8271 343.438 25.8271C343.059 25.8271 342.749 25.9297 342.508 26.1348C342.271 26.3353 342.104 26.5996 342.009 26.9277L342.016 32H340.354V27.1328C340.332 26.2624 339.887 25.8271 339.021 25.8271C338.356 25.8271 337.884 26.0983 337.606 26.6406V32H335.945V24.6035H337.511ZM354.607 28.377C354.607 29.5208 354.348 30.4346 353.828 31.1182C353.309 31.7972 352.611 32.1367 351.736 32.1367C350.925 32.1367 350.276 31.8701 349.788 31.3369V34.8438H348.127V24.6035H349.658L349.727 25.3555C350.214 24.763 350.877 24.4668 351.716 24.4668C352.618 24.4668 353.325 24.804 353.835 25.4785C354.35 26.1484 354.607 27.0804 354.607 28.2744V28.377ZM352.953 28.2334C352.953 27.4951 352.805 26.9095 352.509 26.4766C352.217 26.0436 351.798 25.8271 351.251 25.8271C350.572 25.8271 350.084 26.1074 349.788 26.668V29.9492C350.089 30.5234 350.581 30.8105 351.265 30.8105C351.793 30.8105 352.206 30.5986 352.502 30.1748C352.803 29.7464 352.953 29.0993 352.953 28.2334ZM357.786 32H356.125V21.5H357.786V32ZM361.368 32H359.707V24.6035H361.368V32ZM359.604 22.6826C359.604 22.4274 359.684 22.2155 359.844 22.0469C360.008 21.8783 360.24 21.7939 360.541 21.7939C360.842 21.7939 361.074 21.8783 361.238 22.0469C361.402 22.2155 361.484 22.4274 361.484 22.6826C361.484 22.9333 361.402 23.1429 361.238 23.3115C361.074 23.4756 360.842 23.5576 360.541 23.5576C360.24 23.5576 360.008 23.4756 359.844 23.3115C359.684 23.1429 359.604 22.9333 359.604 22.6826ZM367.603 32C367.53 31.8587 367.466 31.6286 367.411 31.3096C366.882 31.861 366.235 32.1367 365.47 32.1367C364.727 32.1367 364.121 31.9248 363.651 31.501C363.182 31.0771 362.947 30.5531 362.947 29.9287C362.947 29.1403 363.239 28.5365 363.822 28.1172C364.41 27.6934 365.249 27.4814 366.338 27.4814H367.356V26.9961C367.356 26.6133 367.249 26.3079 367.035 26.0801C366.821 25.8477 366.495 25.7314 366.058 25.7314C365.679 25.7314 365.369 25.8271 365.128 26.0186C364.886 26.2054 364.766 26.4447 364.766 26.7363H363.104C363.104 26.3307 363.239 25.9525 363.508 25.6016C363.777 25.2461 364.141 24.9681 364.602 24.7676C365.066 24.5671 365.584 24.4668 366.153 24.4668C367.019 24.4668 367.71 24.6855 368.225 25.123C368.74 25.556 369.004 26.1667 369.018 26.9551V30.291C369.018 30.9564 369.111 31.4873 369.298 31.8838V32H367.603ZM365.777 30.8037C366.105 30.8037 366.413 30.724 366.7 30.5645C366.992 30.4049 367.211 30.1908 367.356 29.9219V28.5273H366.461C365.846 28.5273 365.383 28.6344 365.073 28.8486C364.763 29.0628 364.608 29.3659 364.608 29.7578C364.608 30.0768 364.713 30.332 364.923 30.5234C365.137 30.7103 365.422 30.8037 365.777 30.8037ZM372.299 24.6035L372.347 25.458C372.894 24.7972 373.611 24.4668 374.5 24.4668C376.04 24.4668 376.824 25.3486 376.852 27.1123V32H375.19V27.208C375.19 26.7386 375.088 26.3923 374.883 26.1689C374.682 25.9411 374.352 25.8271 373.892 25.8271C373.222 25.8271 372.723 26.1302 372.395 26.7363V32H370.733V24.6035H372.299ZM380.632 22.8057V24.6035H381.938V25.834H380.632V29.9629C380.632 30.2454 380.687 30.4505 380.796 30.5781C380.91 30.7012 381.11 30.7627 381.397 30.7627C381.589 30.7627 381.783 30.7399 381.979 30.6943V31.9795C381.6 32.0843 381.236 32.1367 380.885 32.1367C379.609 32.1367 378.971 31.4326 378.971 30.0244V25.834H377.754V24.6035H378.971V22.8057H380.632ZM393.196 29.71L394.372 24.6035H395.992L393.976 32H392.608L391.022 26.9209L389.464 32H388.097L386.073 24.6035H387.693L388.89 29.6553L390.407 24.6035H391.658L393.196 29.71ZM398.87 32H397.209V24.6035H398.87V32ZM397.106 22.6826C397.106 22.4274 397.186 22.2155 397.346 22.0469C397.51 21.8783 397.742 21.7939 398.043 21.7939C398.344 21.7939 398.576 21.8783 398.74 22.0469C398.904 22.2155 398.986 22.4274 398.986 22.6826C398.986 22.9333 398.904 23.1429 398.74 23.3115C398.576 23.4756 398.344 23.5576 398.043 23.5576C397.742 23.5576 397.51 23.4756 397.346 23.3115C397.186 23.1429 397.106 22.9333 397.106 22.6826ZM402.767 22.8057V24.6035H404.072V25.834H402.767V29.9629C402.767 30.2454 402.821 30.4505 402.931 30.5781C403.045 30.7012 403.245 30.7627 403.532 30.7627C403.724 30.7627 403.917 30.7399 404.113 30.6943V31.9795C403.735 32.0843 403.37 32.1367 403.02 32.1367C401.743 32.1367 401.105 31.4326 401.105 30.0244V25.834H399.889V24.6035H401.105V22.8057H402.767ZM406.984 25.4102C407.527 24.7812 408.213 24.4668 409.042 24.4668C410.619 24.4668 411.419 25.3669 411.441 27.167V32H409.78V27.2285C409.78 26.7181 409.669 26.3581 409.445 26.1484C409.227 25.9342 408.903 25.8271 408.475 25.8271C407.809 25.8271 407.312 26.1234 406.984 26.7158V32H405.323V21.5H406.984V25.4102ZM422.509 27.7822H418.503V32H416.773V22.0469H423.097V23.4414H418.503V26.4014H422.509V27.7822ZM428.729 29.6826H424.874L424.067 32H422.27L426.029 22.0469H427.581L431.348 32H429.543L428.729 29.6826ZM425.359 28.2881H428.244L426.802 24.1592L425.359 28.2881ZM436.714 32H435.06V24.0088L432.619 24.8428V23.4414L436.502 22.0127H436.714V32ZM441.314 30.25C441.624 30.25 441.864 30.3389 442.032 30.5166C442.201 30.6898 442.285 30.9085 442.285 31.1729C442.285 31.4326 442.201 31.6491 442.032 31.8223C441.864 31.9909 441.624 32.0752 441.314 32.0752C441.018 32.0752 440.784 31.9909 440.61 31.8223C440.437 31.6536 440.351 31.4372 440.351 31.1729C440.351 30.9085 440.435 30.6898 440.604 30.5166C440.772 30.3389 441.009 30.25 441.314 30.25ZM450.775 32H444.083V30.8584L447.398 27.2422C447.877 26.709 448.216 26.2646 448.417 25.9092C448.622 25.5492 448.725 25.1891 448.725 24.8291C448.725 24.3551 448.59 23.9723 448.321 23.6807C448.057 23.389 447.699 23.2432 447.248 23.2432C446.71 23.2432 446.293 23.4072 445.997 23.7354C445.701 24.0635 445.553 24.5124 445.553 25.082H443.892C443.892 24.4759 444.028 23.9313 444.302 23.4482C444.58 22.9606 444.974 22.5824 445.484 22.3135C445.999 22.0446 446.592 21.9102 447.262 21.9102C448.228 21.9102 448.989 22.154 449.545 22.6416C450.105 23.1247 450.386 23.7946 450.386 24.6514C450.386 25.1481 450.244 25.6699 449.962 26.2168C449.684 26.7591 449.226 27.3766 448.588 28.0693L446.154 30.6738H450.775V32Z" fill="#2097F6"/>
<path d="M207.332 114.275C206.844 114.85 206.152 115.137 205.254 115.137C204.452 115.137 203.843 114.902 203.429 114.433C203.019 113.963 202.813 113.284 202.813 112.396V107.604H204.475V112.375C204.475 113.314 204.864 113.783 205.644 113.783C206.45 113.783 206.995 113.494 207.277 112.915V107.604H208.938V115H207.373L207.332 114.275ZM212.172 107.604L212.22 108.458C212.767 107.797 213.484 107.467 214.373 107.467C215.913 107.467 216.697 108.349 216.725 110.112V115H215.063V110.208C215.063 109.739 214.961 109.392 214.756 109.169C214.555 108.941 214.225 108.827 213.765 108.827C213.095 108.827 212.596 109.13 212.268 109.736V115H210.606V107.604H212.172ZM224.921 112.71L226.097 107.604H227.717L225.7 115H224.333L222.747 109.921L221.188 115H219.821L217.798 107.604H219.418L220.614 112.655L222.132 107.604H223.383L224.921 112.71ZM232.7 109.121C232.481 109.085 232.256 109.066 232.023 109.066C231.262 109.066 230.75 109.358 230.485 109.941V115H228.824V107.604H230.41L230.451 108.431C230.852 107.788 231.408 107.467 232.119 107.467C232.356 107.467 232.552 107.499 232.707 107.562L232.7 109.121ZM237.964 115C237.891 114.859 237.827 114.629 237.772 114.31C237.244 114.861 236.597 115.137 235.831 115.137C235.088 115.137 234.482 114.925 234.013 114.501C233.543 114.077 233.309 113.553 233.309 112.929C233.309 112.14 233.6 111.536 234.184 111.117C234.771 110.693 235.61 110.481 236.699 110.481H237.718V109.996C237.718 109.613 237.611 109.308 237.396 109.08C237.182 108.848 236.856 108.731 236.419 108.731C236.041 108.731 235.731 108.827 235.489 109.019C235.248 109.205 235.127 109.445 235.127 109.736H233.466C233.466 109.331 233.6 108.952 233.869 108.602C234.138 108.246 234.503 107.968 234.963 107.768C235.428 107.567 235.945 107.467 236.515 107.467C237.381 107.467 238.071 107.686 238.586 108.123C239.101 108.556 239.365 109.167 239.379 109.955V113.291C239.379 113.956 239.472 114.487 239.659 114.884V115H237.964ZM236.139 113.804C236.467 113.804 236.774 113.724 237.062 113.564C237.353 113.405 237.572 113.191 237.718 112.922V111.527H236.822C236.207 111.527 235.744 111.634 235.435 111.849C235.125 112.063 234.97 112.366 234.97 112.758C234.97 113.077 235.075 113.332 235.284 113.523C235.498 113.71 235.783 113.804 236.139 113.804ZM247.596 111.377C247.596 112.521 247.336 113.435 246.816 114.118C246.297 114.797 245.6 115.137 244.725 115.137C243.913 115.137 243.264 114.87 242.776 114.337V117.844H241.115V107.604H242.646L242.715 108.355C243.202 107.763 243.866 107.467 244.704 107.467C245.606 107.467 246.313 107.804 246.823 108.479C247.338 109.148 247.596 110.08 247.596 111.274V111.377ZM245.941 111.233C245.941 110.495 245.793 109.91 245.497 109.477C245.205 109.044 244.786 108.827 244.239 108.827C243.56 108.827 243.073 109.107 242.776 109.668V112.949C243.077 113.523 243.569 113.811 244.253 113.811C244.782 113.811 245.194 113.599 245.49 113.175C245.791 112.746 245.941 112.099 245.941 111.233Z" fill="#65BF73"/>
<path d="M217.349 49.71L218.524 44.6035H220.145L218.128 52H216.761L215.175 46.9209L213.616 52H212.249L210.226 44.6035H211.846L213.042 49.6553L214.56 44.6035H215.811L217.349 49.71ZM225.128 46.1211C224.909 46.0846 224.684 46.0664 224.451 46.0664C223.69 46.0664 223.177 46.3581 222.913 46.9414V52H221.252V44.6035H222.838L222.879 45.4307C223.28 44.7881 223.836 44.4668 224.547 44.4668C224.784 44.4668 224.98 44.4987 225.135 44.5625L225.128 46.1211ZM230.392 52C230.319 51.8587 230.255 51.6286 230.2 51.3096C229.672 51.861 229.024 52.1367 228.259 52.1367C227.516 52.1367 226.91 51.9248 226.44 51.501C225.971 51.0771 225.736 50.5531 225.736 49.9287C225.736 49.1403 226.028 48.5365 226.611 48.1172C227.199 47.6934 228.038 47.4814 229.127 47.4814H230.146V46.9961C230.146 46.6133 230.038 46.3079 229.824 46.0801C229.61 45.8477 229.284 45.7314 228.847 45.7314C228.468 45.7314 228.159 45.8271 227.917 46.0186C227.675 46.2054 227.555 46.4447 227.555 46.7363H225.894C225.894 46.3307 226.028 45.9525 226.297 45.6016C226.566 45.2461 226.93 44.9681 227.391 44.7676C227.855 44.5671 228.373 44.4668 228.942 44.4668C229.808 44.4668 230.499 44.6855 231.014 45.123C231.529 45.556 231.793 46.1667 231.807 46.9551V50.291C231.807 50.9564 231.9 51.4873 232.087 51.8838V52H230.392ZM228.566 50.8037C228.895 50.8037 229.202 50.724 229.489 50.5645C229.781 50.4049 230 50.1908 230.146 49.9219V48.5273H229.25C228.635 48.5273 228.172 48.6344 227.862 48.8486C227.552 49.0628 227.397 49.3659 227.397 49.7578C227.397 50.0768 227.502 50.332 227.712 50.5234C227.926 50.7103 228.211 50.8037 228.566 50.8037ZM240.023 48.377C240.023 49.5208 239.764 50.4346 239.244 51.1182C238.725 51.7972 238.027 52.1367 237.152 52.1367C236.341 52.1367 235.692 51.8701 235.204 51.3369V54.8438H233.543V44.6035H235.074L235.143 45.3555C235.63 44.763 236.293 44.4668 237.132 44.4668C238.034 44.4668 238.741 44.804 239.251 45.4785C239.766 46.1484 240.023 47.0804 240.023 48.2744V48.377ZM238.369 48.2334C238.369 47.4951 238.221 46.9095 237.925 46.4766C237.633 46.0436 237.214 45.8271 236.667 45.8271C235.988 45.8271 235.5 46.1074 235.204 46.668V49.9492C235.505 50.5234 235.997 50.8105 236.681 50.8105C237.209 50.8105 237.622 50.5986 237.918 50.1748C238.219 49.7464 238.369 49.0993 238.369 48.2334Z" fill="#65BF73"/>
<path d="M356.398 12.3828L357.742 6.54688H359.594L357.289 15H355.727L353.914 9.19531L352.133 15H350.57L348.258 6.54688H350.109L351.477 12.3203L353.211 6.54688H354.641L356.398 12.3828ZM364.961 7.73438L367.352 3.625H369.633L366.195 9.26562L369.711 15H367.406L364.961 10.8281L362.508 15H360.211L363.734 9.26562L360.289 3.625H362.57L364.961 7.73438ZM379.391 5.21875H375.844V15H373.883V5.21875H370.367V3.625H379.391V5.21875ZM382.75 13.4219H388.828V15H380.359V13.7188L386.242 5.21875H380.398V3.625H388.641V4.875L382.75 13.4219Z" fill="#2097F6"/>
<line x1="151" y1="65.5" x2="300" y2="65.5" stroke="#65BF73" stroke-width="2"/>
<path d="M290 56L300.5 65.5L290 74.5" stroke="#65BF73" stroke-width="2" stroke-linecap="round" stroke-linejoin="round"/>
<circle cx="146.5" cy="66" r="5.5" stroke="#65BF73" stroke-width="2"/>
<line x1="291" y1="94.5" x2="142" y2="94.5" stroke="#65BF73" stroke-width="2"/>
<path d="M152 104L141.5 94.5L152 85.5" stroke="#65BF73" stroke-width="2" stroke-linecap="round" stroke-linejoin="round"/>
<circle cx="295.5" cy="94" r="5.5" transform="rotate(180 295.5 94)" stroke="#65BF73" stroke-width="2"/>
<defs>
<clipPath id="clip0">
<rect width="48" height="48" fill="white" transform="translate(55 55)"/>
</clipPath>
</defs>
</svg>
