<svg width="231" height="641" viewBox="0 0 231 641" fill="none" xmlns="http://www.w3.org/2000/svg">
<g filter="url(#filter0_d)">
<rect x="2" y="171" width="225" height="124" rx="8" fill="#FEEBEA"/>
<path d="M68.8516 202.93C67.5651 202.56 66.6276 202.107 66.0391 201.57C65.4557 201.029 65.1641 200.362 65.1641 199.57C65.1641 198.674 65.5208 197.935 66.2344 197.352C66.9531 196.763 67.8854 196.469 69.0312 196.469C69.8125 196.469 70.5078 196.62 71.1172 196.922C71.7318 197.224 72.2057 197.641 72.5391 198.172C72.8776 198.703 73.0469 199.284 73.0469 199.914H71.5391C71.5391 199.227 71.3203 198.688 70.8828 198.297C70.4453 197.901 69.8281 197.703 69.0312 197.703C68.2917 197.703 67.7135 197.867 67.2969 198.195C66.8854 198.518 66.6797 198.969 66.6797 199.547C66.6797 200.01 66.875 200.404 67.2656 200.727C67.6615 201.044 68.3307 201.336 69.2734 201.602C70.2214 201.867 70.9609 202.161 71.4922 202.484C72.0286 202.802 72.4245 203.174 72.6797 203.602C72.9401 204.029 73.0703 204.531 73.0703 205.109C73.0703 206.031 72.7109 206.771 71.9922 207.328C71.2734 207.88 70.3125 208.156 69.1094 208.156C68.3281 208.156 67.599 208.008 66.9219 207.711C66.2448 207.409 65.7214 206.997 65.3516 206.477C64.987 205.956 64.8047 205.365 64.8047 204.703H66.3125C66.3125 205.391 66.5651 205.935 67.0703 206.336C67.5807 206.732 68.2604 206.93 69.1094 206.93C69.901 206.93 70.5078 206.768 70.9297 206.445C71.3516 206.122 71.5625 205.682 71.5625 205.125C71.5625 204.568 71.3672 204.138 70.9766 203.836C70.5859 203.529 69.8776 203.227 68.8516 202.93ZM83.6875 202.68C83.6875 203.779 83.513 204.727 83.1641 205.523C82.8151 206.315 82.3255 206.935 81.6953 207.383L83.7266 208.977L82.7031 209.922L80.3047 208.016C79.9297 208.109 79.5339 208.156 79.1172 208.156C78.2214 208.156 77.4271 207.938 76.7344 207.5C76.0417 207.057 75.5026 206.43 75.1172 205.617C74.737 204.799 74.5417 203.854 74.5312 202.781V201.961C74.5312 200.867 74.7214 199.901 75.1016 199.062C75.4818 198.224 76.0182 197.583 76.7109 197.141C77.4089 196.693 78.2057 196.469 79.1016 196.469C80.0182 196.469 80.8229 196.69 81.5156 197.133C82.2135 197.576 82.75 198.214 83.125 199.047C83.5 199.875 83.6875 200.844 83.6875 201.953V202.68ZM82.1875 201.945C82.1875 200.607 81.9193 199.576 81.3828 198.852C80.8516 198.122 80.0911 197.758 79.1016 197.758C78.1589 197.758 77.4141 198.12 76.8672 198.844C76.3255 199.562 76.0469 200.562 76.0312 201.844V202.68C76.0312 203.982 76.3021 205.008 76.8438 205.758C77.3906 206.508 78.1484 206.883 79.1172 206.883C80.0859 206.883 80.8359 206.531 81.3672 205.828C81.8984 205.12 82.1719 204.107 82.1875 202.789V201.945ZM87.5078 206.773H92.8984V208H86V196.625H87.5078V206.773ZM98.5781 208V196.625H101.789C102.779 196.625 103.654 196.844 104.414 197.281C105.174 197.719 105.76 198.341 106.172 199.148C106.589 199.956 106.799 200.883 106.805 201.93V202.656C106.805 203.729 106.596 204.669 106.18 205.477C105.768 206.284 105.177 206.904 104.406 207.336C103.641 207.768 102.747 207.99 101.727 208H98.5781ZM100.078 197.859V206.773H101.656C102.812 206.773 103.711 206.414 104.352 205.695C104.997 204.977 105.32 203.953 105.32 202.625V201.961C105.32 200.669 105.016 199.667 104.406 198.953C103.802 198.234 102.943 197.87 101.828 197.859H100.078ZM114.07 208C113.987 207.833 113.919 207.536 113.867 207.109C113.195 207.807 112.393 208.156 111.461 208.156C110.628 208.156 109.943 207.922 109.406 207.453C108.875 206.979 108.609 206.38 108.609 205.656C108.609 204.776 108.943 204.094 109.609 203.609C110.281 203.12 111.224 202.875 112.438 202.875H113.844V202.211C113.844 201.706 113.693 201.305 113.391 201.008C113.089 200.706 112.643 200.555 112.055 200.555C111.539 200.555 111.107 200.685 110.758 200.945C110.409 201.206 110.234 201.521 110.234 201.891H108.781C108.781 201.469 108.93 201.062 109.227 200.672C109.529 200.276 109.935 199.964 110.445 199.734C110.961 199.505 111.526 199.391 112.141 199.391C113.115 199.391 113.878 199.635 114.43 200.125C114.982 200.609 115.268 201.279 115.289 202.133V206.023C115.289 206.799 115.388 207.417 115.586 207.875V208H114.07ZM111.672 206.898C112.125 206.898 112.555 206.781 112.961 206.547C113.367 206.312 113.661 206.008 113.844 205.633V203.898H112.711C110.94 203.898 110.055 204.417 110.055 205.453C110.055 205.906 110.206 206.26 110.508 206.516C110.81 206.771 111.198 206.898 111.672 206.898ZM119.516 197.5V199.547H121.094V200.664H119.516V205.906C119.516 206.245 119.586 206.5 119.727 206.672C119.867 206.839 120.107 206.922 120.445 206.922C120.612 206.922 120.841 206.891 121.133 206.828V208C120.753 208.104 120.383 208.156 120.023 208.156C119.378 208.156 118.891 207.961 118.562 207.57C118.234 207.18 118.07 206.625 118.07 205.906V200.664H116.531V199.547H118.07V197.5H119.516ZM128.008 208C127.924 207.833 127.857 207.536 127.805 207.109C127.133 207.807 126.331 208.156 125.398 208.156C124.565 208.156 123.88 207.922 123.344 207.453C122.812 206.979 122.547 206.38 122.547 205.656C122.547 204.776 122.88 204.094 123.547 203.609C124.219 203.12 125.161 202.875 126.375 202.875H127.781V202.211C127.781 201.706 127.63 201.305 127.328 201.008C127.026 200.706 126.581 200.555 125.992 200.555C125.477 200.555 125.044 200.685 124.695 200.945C124.346 201.206 124.172 201.521 124.172 201.891H122.719C122.719 201.469 122.867 201.062 123.164 200.672C123.466 200.276 123.872 199.964 124.383 199.734C124.898 199.505 125.464 199.391 126.078 199.391C127.052 199.391 127.815 199.635 128.367 200.125C128.919 200.609 129.206 201.279 129.227 202.133V206.023C129.227 206.799 129.326 207.417 129.523 207.875V208H128.008ZM125.609 206.898C126.062 206.898 126.492 206.781 126.898 206.547C127.305 206.312 127.599 206.008 127.781 205.633V203.898H126.648C124.878 203.898 123.992 204.417 123.992 205.453C123.992 205.906 124.143 206.26 124.445 206.516C124.747 206.771 125.135 206.898 125.609 206.898ZM138.648 203.867C138.648 205.159 138.352 206.198 137.758 206.984C137.164 207.766 136.367 208.156 135.367 208.156C134.299 208.156 133.474 207.779 132.891 207.023L132.82 208H131.492V196H132.938V200.477C133.521 199.753 134.326 199.391 135.352 199.391C136.378 199.391 137.182 199.779 137.766 200.555C138.354 201.331 138.648 202.393 138.648 203.742V203.867ZM137.203 203.703C137.203 202.719 137.013 201.958 136.633 201.422C136.253 200.885 135.706 200.617 134.992 200.617C134.039 200.617 133.354 201.06 132.938 201.945V205.602C133.38 206.487 134.07 206.93 135.008 206.93C135.701 206.93 136.24 206.661 136.625 206.125C137.01 205.589 137.203 204.781 137.203 203.703ZM145.695 208C145.612 207.833 145.544 207.536 145.492 207.109C144.82 207.807 144.018 208.156 143.086 208.156C142.253 208.156 141.568 207.922 141.031 207.453C140.5 206.979 140.234 206.38 140.234 205.656C140.234 204.776 140.568 204.094 141.234 203.609C141.906 203.12 142.849 202.875 144.062 202.875H145.469V202.211C145.469 201.706 145.318 201.305 145.016 201.008C144.714 200.706 144.268 200.555 143.68 200.555C143.164 200.555 142.732 200.685 142.383 200.945C142.034 201.206 141.859 201.521 141.859 201.891H140.406C140.406 201.469 140.555 201.062 140.852 200.672C141.154 200.276 141.56 199.964 142.07 199.734C142.586 199.505 143.151 199.391 143.766 199.391C144.74 199.391 145.503 199.635 146.055 200.125C146.607 200.609 146.893 201.279 146.914 202.133V206.023C146.914 206.799 147.013 207.417 147.211 207.875V208H145.695ZM143.297 206.898C143.75 206.898 144.18 206.781 144.586 206.547C144.992 206.312 145.286 206.008 145.469 205.633V203.898H144.336C142.565 203.898 141.68 204.417 141.68 205.453C141.68 205.906 141.831 206.26 142.133 206.516C142.435 206.771 142.823 206.898 143.297 206.898ZM154.102 205.758C154.102 205.367 153.953 205.065 153.656 204.852C153.365 204.633 152.852 204.445 152.117 204.289C151.388 204.133 150.807 203.945 150.375 203.727C149.948 203.508 149.63 203.247 149.422 202.945C149.219 202.643 149.117 202.284 149.117 201.867C149.117 201.174 149.409 200.589 149.992 200.109C150.581 199.63 151.331 199.391 152.242 199.391C153.201 199.391 153.977 199.638 154.57 200.133C155.169 200.628 155.469 201.26 155.469 202.031H154.016C154.016 201.635 153.846 201.294 153.508 201.008C153.174 200.721 152.753 200.578 152.242 200.578C151.716 200.578 151.305 200.693 151.008 200.922C150.711 201.151 150.562 201.451 150.562 201.82C150.562 202.169 150.701 202.432 150.977 202.609C151.253 202.786 151.75 202.956 152.469 203.117C153.193 203.279 153.779 203.471 154.227 203.695C154.674 203.919 155.005 204.19 155.219 204.508C155.438 204.82 155.547 205.203 155.547 205.656C155.547 206.411 155.245 207.018 154.641 207.477C154.036 207.93 153.253 208.156 152.289 208.156C151.612 208.156 151.013 208.036 150.492 207.797C149.971 207.557 149.562 207.224 149.266 206.797C148.974 206.365 148.828 205.898 148.828 205.398H150.273C150.299 205.883 150.492 206.268 150.852 206.555C151.216 206.836 151.695 206.977 152.289 206.977C152.836 206.977 153.273 206.867 153.602 206.648C153.935 206.424 154.102 206.128 154.102 205.758ZM160.938 208.156C159.792 208.156 158.859 207.781 158.141 207.031C157.422 206.276 157.062 205.268 157.062 204.008V203.742C157.062 202.904 157.221 202.156 157.539 201.5C157.862 200.839 158.31 200.323 158.883 199.953C159.461 199.578 160.086 199.391 160.758 199.391C161.857 199.391 162.711 199.753 163.32 200.477C163.93 201.201 164.234 202.237 164.234 203.586V204.188H158.508C158.529 205.021 158.771 205.695 159.234 206.211C159.703 206.721 160.297 206.977 161.016 206.977C161.526 206.977 161.958 206.872 162.312 206.664C162.667 206.456 162.977 206.18 163.242 205.836L164.125 206.523C163.417 207.612 162.354 208.156 160.938 208.156ZM160.758 200.578C160.174 200.578 159.685 200.792 159.289 201.219C158.893 201.641 158.648 202.234 158.555 203H162.789V202.891C162.747 202.156 162.549 201.589 162.195 201.188C161.841 200.781 161.362 200.578 160.758 200.578ZM73.8047 222.383C73.8047 221.206 73.9609 220.076 74.2734 218.992C74.5911 217.909 75.0625 216.924 75.6875 216.039C76.3125 215.154 76.9609 214.529 77.6328 214.164L77.9297 215.117C77.1693 215.701 76.5443 216.591 76.0547 217.789C75.5703 218.987 75.3047 220.328 75.2578 221.812L75.25 222.477C75.25 224.487 75.6172 226.232 76.3516 227.711C76.7943 228.596 77.3203 229.289 77.9297 229.789L77.6328 230.672C76.9401 230.286 76.2786 229.641 75.6484 228.734C74.4193 226.964 73.8047 224.846 73.8047 222.383ZM83.7266 222.398H81.0547V227H79.5469V215.625H83.3125C84.5938 215.625 85.5781 215.917 86.2656 216.5C86.9583 217.083 87.3047 217.932 87.3047 219.047C87.3047 219.755 87.112 220.372 86.7266 220.898C86.3464 221.424 85.8151 221.818 85.1328 222.078L87.8047 226.906V227H86.1953L83.7266 222.398ZM81.0547 221.172H83.3594C84.1042 221.172 84.6953 220.979 85.1328 220.594C85.5755 220.208 85.7969 219.693 85.7969 219.047C85.7969 218.344 85.5859 217.805 85.1641 217.43C84.7474 217.055 84.1432 216.865 83.3516 216.859H81.0547V221.172ZM88.8047 222.695C88.8047 221.867 88.9661 221.122 89.2891 220.461C89.6172 219.799 90.0703 219.289 90.6484 218.93C91.2318 218.57 91.8958 218.391 92.6406 218.391C93.7917 218.391 94.7214 218.789 95.4297 219.586C96.1432 220.383 96.5 221.443 96.5 222.766V222.867C96.5 223.69 96.3411 224.43 96.0234 225.086C95.7109 225.737 95.2604 226.245 94.6719 226.609C94.0885 226.974 93.4167 227.156 92.6562 227.156C91.5104 227.156 90.5807 226.758 89.8672 225.961C89.1589 225.164 88.8047 224.109 88.8047 222.797V222.695ZM90.2578 222.867C90.2578 223.805 90.474 224.557 90.9062 225.125C91.3438 225.693 91.9271 225.977 92.6562 225.977C93.3906 225.977 93.974 225.69 94.4062 225.117C94.8385 224.539 95.0547 223.732 95.0547 222.695C95.0547 221.768 94.8333 221.018 94.3906 220.445C93.9531 219.867 93.3698 219.578 92.6406 219.578C91.9271 219.578 91.3516 219.862 90.9141 220.43C90.4766 220.997 90.2578 221.81 90.2578 222.867ZM105.797 225.008L107.422 218.547H108.867L106.406 227H105.234L103.18 220.594L101.18 227H100.008L97.5547 218.547H98.9922L100.656 224.875L102.625 218.547H103.789L105.797 225.008ZM117.891 221.93C116.604 221.56 115.667 221.107 115.078 220.57C114.495 220.029 114.203 219.362 114.203 218.57C114.203 217.674 114.56 216.935 115.273 216.352C115.992 215.763 116.924 215.469 118.07 215.469C118.852 215.469 119.547 215.62 120.156 215.922C120.771 216.224 121.245 216.641 121.578 217.172C121.917 217.703 122.086 218.284 122.086 218.914H120.578C120.578 218.227 120.359 217.688 119.922 217.297C119.484 216.901 118.867 216.703 118.07 216.703C117.331 216.703 116.753 216.867 116.336 217.195C115.924 217.518 115.719 217.969 115.719 218.547C115.719 219.01 115.914 219.404 116.305 219.727C116.701 220.044 117.37 220.336 118.312 220.602C119.26 220.867 120 221.161 120.531 221.484C121.068 221.802 121.464 222.174 121.719 222.602C121.979 223.029 122.109 223.531 122.109 224.109C122.109 225.031 121.75 225.771 121.031 226.328C120.312 226.88 119.352 227.156 118.148 227.156C117.367 227.156 116.638 227.008 115.961 226.711C115.284 226.409 114.76 225.997 114.391 225.477C114.026 224.956 113.844 224.365 113.844 223.703H115.352C115.352 224.391 115.604 224.935 116.109 225.336C116.62 225.732 117.299 225.93 118.148 225.93C118.94 225.93 119.547 225.768 119.969 225.445C120.391 225.122 120.602 224.682 120.602 224.125C120.602 223.568 120.406 223.138 120.016 222.836C119.625 222.529 118.917 222.227 117.891 221.93ZM125.773 216.5V218.547H127.352V219.664H125.773V224.906C125.773 225.245 125.844 225.5 125.984 225.672C126.125 225.839 126.365 225.922 126.703 225.922C126.87 225.922 127.099 225.891 127.391 225.828V227C127.01 227.104 126.641 227.156 126.281 227.156C125.635 227.156 125.148 226.961 124.82 226.57C124.492 226.18 124.328 225.625 124.328 224.906V219.664H122.789V218.547H124.328V216.5H125.773ZM128.508 222.695C128.508 221.867 128.669 221.122 128.992 220.461C129.32 219.799 129.773 219.289 130.352 218.93C130.935 218.57 131.599 218.391 132.344 218.391C133.495 218.391 134.424 218.789 135.133 219.586C135.846 220.383 136.203 221.443 136.203 222.766V222.867C136.203 223.69 136.044 224.43 135.727 225.086C135.414 225.737 134.964 226.245 134.375 226.609C133.792 226.974 133.12 227.156 132.359 227.156C131.214 227.156 130.284 226.758 129.57 225.961C128.862 225.164 128.508 224.109 128.508 222.797V222.695ZM129.961 222.867C129.961 223.805 130.177 224.557 130.609 225.125C131.047 225.693 131.63 225.977 132.359 225.977C133.094 225.977 133.677 225.69 134.109 225.117C134.542 224.539 134.758 223.732 134.758 222.695C134.758 221.768 134.536 221.018 134.094 220.445C133.656 219.867 133.073 219.578 132.344 219.578C131.63 219.578 131.055 219.862 130.617 220.43C130.18 220.997 129.961 221.81 129.961 222.867ZM142.102 219.844C141.883 219.807 141.646 219.789 141.391 219.789C140.443 219.789 139.799 220.193 139.461 221V227H138.016V218.547H139.422L139.445 219.523C139.919 218.768 140.591 218.391 141.461 218.391C141.742 218.391 141.956 218.427 142.102 218.5V219.844ZM146.789 227.156C145.643 227.156 144.711 226.781 143.992 226.031C143.273 225.276 142.914 224.268 142.914 223.008V222.742C142.914 221.904 143.073 221.156 143.391 220.5C143.714 219.839 144.161 219.323 144.734 218.953C145.312 218.578 145.938 218.391 146.609 218.391C147.708 218.391 148.562 218.753 149.172 219.477C149.781 220.201 150.086 221.237 150.086 222.586V223.188H144.359C144.38 224.021 144.622 224.695 145.086 225.211C145.555 225.721 146.148 225.977 146.867 225.977C147.378 225.977 147.81 225.872 148.164 225.664C148.518 225.456 148.828 225.18 149.094 224.836L149.977 225.523C149.268 226.612 148.206 227.156 146.789 227.156ZM146.609 219.578C146.026 219.578 145.536 219.792 145.141 220.219C144.745 220.641 144.5 221.234 144.406 222H148.641V221.891C148.599 221.156 148.401 220.589 148.047 220.188C147.693 219.781 147.214 219.578 146.609 219.578ZM155.102 222.461C155.102 223.622 154.948 224.737 154.641 225.805C154.339 226.867 153.872 227.849 153.242 228.75C152.617 229.651 151.961 230.292 151.273 230.672L150.969 229.789C151.771 229.174 152.414 228.221 152.898 226.93C153.388 225.633 153.638 224.195 153.648 222.617V222.367C153.648 221.273 153.534 220.258 153.305 219.32C153.076 218.378 152.755 217.534 152.344 216.789C151.938 216.044 151.479 215.464 150.969 215.047L151.273 214.164C151.961 214.544 152.615 215.18 153.234 216.07C153.859 216.961 154.326 217.943 154.633 219.016C154.945 220.089 155.102 221.237 155.102 222.461Z" fill="#FF5A43"/>
<g clip-path="url(#clip0)">
<path d="M114.5 254.001C122.784 254.001 129.5 251.315 129.5 248.001C129.5 244.688 122.784 242.001 114.5 242.001C106.216 242.001 99.5 244.688 99.5 248.001C99.5 251.315 106.216 254.001 114.5 254.001Z" stroke="#FF5A43" stroke-width="2" stroke-linecap="round" stroke-linejoin="round"/>
<path d="M99.5 248.001V257C99.5 260.313 106.216 263 114.5 263C122.784 263 129.5 260.315 129.5 257V248.001" stroke="#FF5A43" stroke-width="2" stroke-linecap="round" stroke-linejoin="round"/>
<path d="M99.5 257V266C99.5 269.313 106.216 272 114.5 272C122.784 272 129.5 269.313 129.5 266V257" stroke="#FF5A43" stroke-width="2" stroke-linecap="round" stroke-linejoin="round"/>
</g>
<rect x="2.5" y="171.5" width="224" height="123" rx="7.5" stroke="#DE1306"/>
</g>
<g filter="url(#filter1_d)">
<rect width="225" height="105" rx="8" fill="#EEEEFF"/>
<path d="M86.3906 34.0312H81.625L80.5547 37H79.0078L83.3516 25.625H84.6641L89.0156 37H87.4766L86.3906 34.0312ZM82.0781 32.7969H85.9453L84.0078 27.4766L82.0781 32.7969ZM92.0469 32.5469V37H90.5469V25.625H94.7422C95.987 25.625 96.9609 25.9427 97.6641 26.5781C98.3724 27.2135 98.7266 28.0547 98.7266 29.1016C98.7266 30.2057 98.3802 31.0573 97.6875 31.6562C97 32.25 96.013 32.5469 94.7266 32.5469H92.0469ZM92.0469 31.3203H94.7422C95.5443 31.3203 96.1589 31.1328 96.5859 30.7578C97.013 30.3776 97.2266 29.8307 97.2266 29.1172C97.2266 28.4401 97.013 27.8984 96.5859 27.4922C96.1589 27.0859 95.5729 26.875 94.8281 26.8594H92.0469V31.3203ZM102.25 37H100.75V25.625H102.25V37ZM110.477 35.7734H115.867V37H108.969V25.625H110.477V35.7734ZM122.57 37C122.487 36.8333 122.419 36.5365 122.367 36.1094C121.695 36.8073 120.893 37.1562 119.961 37.1562C119.128 37.1562 118.443 36.9219 117.906 36.4531C117.375 35.9792 117.109 35.3802 117.109 34.6562C117.109 33.776 117.443 33.0938 118.109 32.6094C118.781 32.1198 119.724 31.875 120.938 31.875H122.344V31.2109C122.344 30.7057 122.193 30.3047 121.891 30.0078C121.589 29.7057 121.143 29.5547 120.555 29.5547C120.039 29.5547 119.607 29.6849 119.258 29.9453C118.909 30.2057 118.734 30.5208 118.734 30.8906H117.281C117.281 30.4688 117.43 30.0625 117.727 29.6719C118.029 29.276 118.435 28.9635 118.945 28.7344C119.461 28.5052 120.026 28.3906 120.641 28.3906C121.615 28.3906 122.378 28.6354 122.93 29.125C123.482 29.6094 123.768 30.2786 123.789 31.1328V35.0234C123.789 35.7995 123.888 36.4167 124.086 36.875V37H122.57ZM120.172 35.8984C120.625 35.8984 121.055 35.7812 121.461 35.5469C121.867 35.3125 122.161 35.0078 122.344 34.6328V32.8984H121.211C119.44 32.8984 118.555 33.4167 118.555 34.4531C118.555 34.9062 118.706 35.2604 119.008 35.5156C119.31 35.7708 119.698 35.8984 120.172 35.8984ZM128.695 34.8828L130.664 28.5469H132.211L128.812 38.3047C128.286 39.7109 127.451 40.4141 126.305 40.4141L126.031 40.3906L125.492 40.2891V39.1172L125.883 39.1484C126.372 39.1484 126.753 39.0495 127.023 38.8516C127.299 38.6536 127.526 38.2917 127.703 37.7656L128.023 36.9062L125.008 28.5469H126.586L128.695 34.8828ZM136.906 37.1562C135.76 37.1562 134.828 36.7812 134.109 36.0312C133.391 35.276 133.031 34.2682 133.031 33.0078V32.7422C133.031 31.9036 133.19 31.1562 133.508 30.5C133.831 29.8385 134.279 29.3229 134.852 28.9531C135.43 28.5781 136.055 28.3906 136.727 28.3906C137.826 28.3906 138.68 28.7526 139.289 29.4766C139.898 30.2005 140.203 31.237 140.203 32.5859V33.1875H134.477C134.497 34.0208 134.74 34.6953 135.203 35.2109C135.672 35.7214 136.266 35.9766 136.984 35.9766C137.495 35.9766 137.927 35.8724 138.281 35.6641C138.635 35.4557 138.945 35.1797 139.211 34.8359L140.094 35.5234C139.385 36.612 138.323 37.1562 136.906 37.1562ZM136.727 29.5781C136.143 29.5781 135.654 29.7917 135.258 30.2188C134.862 30.6406 134.617 31.2344 134.523 32H138.758V31.8906C138.716 31.1562 138.518 30.5885 138.164 30.1875C137.81 29.7812 137.331 29.5781 136.727 29.5781ZM145.969 29.8438C145.75 29.8073 145.513 29.7891 145.258 29.7891C144.31 29.7891 143.667 30.1927 143.328 31V37H141.883V28.5469H143.289L143.312 29.5234C143.786 28.7682 144.458 28.3906 145.328 28.3906C145.609 28.3906 145.823 28.4271 145.969 28.5V29.8438Z" fill="#5452F6"/>
<g clip-path="url(#clip1)">
<path d="M125.5 52.0053H99.5C98.3954 52.0053 97.5 52.9007 97.5 54.0053V80.0053C97.5 81.1099 98.3954 82.0053 99.5 82.0053H125.5C126.605 82.0053 127.5 81.1099 127.5 80.0053V54.0053C127.5 52.9007 126.605 52.0053 125.5 52.0053Z" stroke="#5452F6" stroke-width="2" stroke-linecap="round" stroke-linejoin="round"/>
<path d="M104.5 75V67C104.5 66.4696 104.711 65.9609 105.086 65.5858C105.461 65.2107 105.97 65 106.5 65C107.03 65 107.539 65.2107 107.914 65.5858C108.289 65.9609 108.5 66.4696 108.5 67V75" stroke="#5452F6" stroke-width="2" stroke-linecap="round" stroke-linejoin="round"/>
<path d="M112.5 65H113.5C114.296 65 115.059 65.3161 115.621 65.8787C116.184 66.4413 116.5 67.2044 116.5 68C116.5 68.7956 116.184 69.5587 115.621 70.1213C115.059 70.6839 114.296 71 113.5 71H112.5" stroke="#5452F6" stroke-width="2" stroke-linecap="round" stroke-linejoin="round"/>
<path d="M104.5 71.0053H108.5" stroke="#5452F6" stroke-width="2" stroke-linecap="round" stroke-linejoin="round"/>
<path d="M120.5 75.0053V65.0053" stroke="#5452F6" stroke-width="2" stroke-linecap="round" stroke-linejoin="round"/>
<path d="M112.5 75.0053V65.0053" stroke="#5452F6" stroke-width="2" stroke-linecap="round" stroke-linejoin="round"/>
</g>
<rect x="0.5" y="0.5" width="224" height="104" rx="7.5" stroke="#5452F6"/>
</g>
<path d="M51 532V532C51.5523 532 52 531.552 52 531L52 472.5" stroke="#FF460F" stroke-width="2" stroke-linecap="round" stroke-linejoin="round"/>
<path d="M52.8441 469.449L58.1855 475.337C58.7685 475.98 58.3125 477.009 57.4449 477.009H47.0564C46.202 477.009 45.7411 476.007 46.2971 475.358L51.3441 469.47C51.7359 469.013 52.4396 469.003 52.8441 469.449Z" fill="#FF460F"/>
<path d="M112 170V170C112.552 170 113 169.552 113 169L113 110.5" stroke="#FF460F" stroke-width="2" stroke-linecap="round" stroke-linejoin="round"/>
<path d="M113.844 107.449L119.186 113.337C119.768 113.98 119.312 115.009 118.445 115.009H108.056C107.202 115.009 106.741 114.007 107.297 113.358L112.344 107.47C112.736 107.013 113.44 107.003 113.844 107.449Z" fill="#FF460F"/>
<path d="M51 360V360C51.5523 360 52 359.552 52 359L52 300.5" stroke="#FF460F" stroke-width="2" stroke-linecap="round" stroke-linejoin="round"/>
<path d="M52.8441 297.449L58.1855 303.337C58.7685 303.98 58.3125 305.009 57.4449 305.009H47.0564C46.202 305.009 45.7411 304.007 46.2971 303.358L51.3441 297.47C51.7359 297.013 52.4396 297.003 52.8441 297.449Z" fill="#FF460F"/>
<path d="M175 357V357C175.552 357 176 356.552 176 356V299.5" stroke="#FF460F" stroke-width="2" stroke-linecap="round" stroke-linejoin="round"/>
<path d="M176.844 296.449L182.186 302.337C182.768 302.98 182.312 304.009 181.445 304.009H171.056C170.202 304.009 169.741 303.007 170.297 302.358L175.344 296.47C175.736 296.013 176.44 296.003 176.844 296.449Z" fill="#FF460F"/>
<path d="M175.638 360.56L170.296 354.672C169.713 354.029 170.169 353 171.037 353H181.426C182.28 353 182.741 354.002 182.185 354.651L177.138 360.539C176.746 360.996 176.042 361.006 175.638 360.56Z" fill="#FF460F"/>
<g filter="url(#filter2_d)">
<rect y="532" width="225" height="105" rx="8" fill="#E7F4FF"/>
<path d="M51.0156 558.859H47.3594V569H45.8672V558.859H42.2188V557.625H51.0156V558.859ZM55.2031 569.156C54.0573 569.156 53.125 568.781 52.4062 568.031C51.6875 567.276 51.3281 566.268 51.3281 565.008V564.742C51.3281 563.904 51.487 563.156 51.8047 562.5C52.1276 561.839 52.5755 561.323 53.1484 560.953C53.7266 560.578 54.3516 560.391 55.0234 560.391C56.1224 560.391 56.9766 560.753 57.5859 561.477C58.1953 562.201 58.5 563.237 58.5 564.586V565.188H52.7734C52.7943 566.021 53.0365 566.695 53.5 567.211C53.9688 567.721 54.5625 567.977 55.2812 567.977C55.7917 567.977 56.224 567.872 56.5781 567.664C56.9323 567.456 57.2422 567.18 57.5078 566.836L58.3906 567.523C57.6823 568.612 56.6198 569.156 55.2031 569.156ZM55.0234 561.578C54.4401 561.578 53.9505 561.792 53.5547 562.219C53.1589 562.641 52.9141 563.234 52.8203 564H57.0547V563.891C57.013 563.156 56.8151 562.589 56.4609 562.188C56.1068 561.781 55.6276 561.578 55.0234 561.578ZM61.5391 567.82H66.4844V569H59.7734V567.938L64.4375 561.742H59.8438V560.547H66.25V561.57L61.5391 567.82ZM67.6094 564.695C67.6094 563.867 67.7708 563.122 68.0938 562.461C68.4219 561.799 68.875 561.289 69.4531 560.93C70.0365 560.57 70.7005 560.391 71.4453 560.391C72.5964 560.391 73.526 560.789 74.2344 561.586C74.9479 562.383 75.3047 563.443 75.3047 564.766V564.867C75.3047 565.69 75.1458 566.43 74.8281 567.086C74.5156 567.737 74.0651 568.245 73.4766 568.609C72.8932 568.974 72.2214 569.156 71.4609 569.156C70.3151 569.156 69.3854 568.758 68.6719 567.961C67.9635 567.164 67.6094 566.109 67.6094 564.797V564.695ZM69.0625 564.867C69.0625 565.805 69.2786 566.557 69.7109 567.125C70.1484 567.693 70.7318 567.977 71.4609 567.977C72.1953 567.977 72.7786 567.69 73.2109 567.117C73.6432 566.539 73.8594 565.732 73.8594 564.695C73.8594 563.768 73.638 563.018 73.1953 562.445C72.7578 561.867 72.1745 561.578 71.4453 561.578C70.7318 561.578 70.1562 561.862 69.7188 562.43C69.2812 562.997 69.0625 563.81 69.0625 564.867ZM82.0391 566.758C82.0391 566.367 81.8906 566.065 81.5938 565.852C81.3021 565.633 80.7891 565.445 80.0547 565.289C79.3255 565.133 78.7448 564.945 78.3125 564.727C77.8854 564.508 77.5677 564.247 77.3594 563.945C77.1562 563.643 77.0547 563.284 77.0547 562.867C77.0547 562.174 77.3464 561.589 77.9297 561.109C78.5182 560.63 79.2682 560.391 80.1797 560.391C81.138 560.391 81.9141 560.638 82.5078 561.133C83.1068 561.628 83.4062 562.26 83.4062 563.031H81.9531C81.9531 562.635 81.7839 562.294 81.4453 562.008C81.112 561.721 80.6901 561.578 80.1797 561.578C79.6536 561.578 79.2422 561.693 78.9453 561.922C78.6484 562.151 78.5 562.451 78.5 562.82C78.5 563.169 78.638 563.432 78.9141 563.609C79.1901 563.786 79.6875 563.956 80.4062 564.117C81.1302 564.279 81.7161 564.471 82.1641 564.695C82.612 564.919 82.9427 565.19 83.1562 565.508C83.375 565.82 83.4844 566.203 83.4844 566.656C83.4844 567.411 83.1823 568.018 82.5781 568.477C81.974 568.93 81.1901 569.156 80.2266 569.156C79.5495 569.156 78.9505 569.036 78.4297 568.797C77.9089 568.557 77.5 568.224 77.2031 567.797C76.9115 567.365 76.7656 566.898 76.7656 566.398H78.2109C78.237 566.883 78.4297 567.268 78.7891 567.555C79.1536 567.836 79.6328 567.977 80.2266 567.977C80.7734 567.977 81.2109 567.867 81.5391 567.648C81.8724 567.424 82.0391 567.128 82.0391 566.758ZM95.8438 566.031H91.0781L90.0078 569H88.4609L92.8047 557.625H94.1172L98.4688 569H96.9297L95.8438 566.031ZM91.5312 564.797H95.3984L93.4609 559.477L91.5312 564.797ZM103.859 561.844C103.641 561.807 103.404 561.789 103.148 561.789C102.201 561.789 101.557 562.193 101.219 563V569H99.7734V560.547H101.18L101.203 561.523C101.677 560.768 102.349 560.391 103.219 560.391C103.5 560.391 103.714 560.427 103.859 560.5V561.844ZM108.43 567.977C108.945 567.977 109.396 567.82 109.781 567.508C110.167 567.195 110.38 566.805 110.422 566.336H111.789C111.763 566.82 111.596 567.281 111.289 567.719C110.982 568.156 110.57 568.505 110.055 568.766C109.544 569.026 109.003 569.156 108.43 569.156C107.279 569.156 106.362 568.773 105.68 568.008C105.003 567.237 104.664 566.185 104.664 564.852V564.609C104.664 563.786 104.815 563.055 105.117 562.414C105.419 561.773 105.852 561.276 106.414 560.922C106.982 560.568 107.651 560.391 108.422 560.391C109.37 560.391 110.156 560.674 110.781 561.242C111.411 561.81 111.747 562.547 111.789 563.453H110.422C110.38 562.906 110.172 562.458 109.797 562.109C109.427 561.755 108.969 561.578 108.422 561.578C107.688 561.578 107.117 561.844 106.711 562.375C106.31 562.901 106.109 563.664 106.109 564.664V564.938C106.109 565.911 106.31 566.661 106.711 567.188C107.112 567.714 107.685 567.977 108.43 567.977ZM114.859 561.57C115.5 560.784 116.333 560.391 117.359 560.391C119.146 560.391 120.047 561.398 120.062 563.414V569H118.617V563.406C118.612 562.797 118.471 562.346 118.195 562.055C117.924 561.763 117.5 561.617 116.922 561.617C116.453 561.617 116.042 561.742 115.688 561.992C115.333 562.242 115.057 562.57 114.859 562.977V569H113.414V557H114.859V561.57ZM123.797 569H122.352V560.547H123.797V569ZM122.234 558.305C122.234 558.07 122.305 557.872 122.445 557.711C122.591 557.549 122.805 557.469 123.086 557.469C123.367 557.469 123.581 557.549 123.727 557.711C123.872 557.872 123.945 558.07 123.945 558.305C123.945 558.539 123.872 558.734 123.727 558.891C123.581 559.047 123.367 559.125 123.086 559.125C122.805 559.125 122.591 559.047 122.445 558.891C122.305 558.734 122.234 558.539 122.234 558.305ZM128.906 567.039L131 560.547H132.477L129.445 569H128.344L125.281 560.547H126.758L128.906 567.039ZM137.266 569.156C136.12 569.156 135.188 568.781 134.469 568.031C133.75 567.276 133.391 566.268 133.391 565.008V564.742C133.391 563.904 133.549 563.156 133.867 562.5C134.19 561.839 134.638 561.323 135.211 560.953C135.789 560.578 136.414 560.391 137.086 560.391C138.185 560.391 139.039 560.753 139.648 561.477C140.258 562.201 140.562 563.237 140.562 564.586V565.188H134.836C134.857 566.021 135.099 566.695 135.562 567.211C136.031 567.721 136.625 567.977 137.344 567.977C137.854 567.977 138.286 567.872 138.641 567.664C138.995 567.456 139.305 567.18 139.57 566.836L140.453 567.523C139.745 568.612 138.682 569.156 137.266 569.156ZM137.086 561.578C136.503 561.578 136.013 561.792 135.617 562.219C135.221 562.641 134.977 563.234 134.883 564H139.117V563.891C139.076 563.156 138.878 562.589 138.523 562.188C138.169 561.781 137.69 561.578 137.086 561.578ZM155.18 569H153.672L147.945 560.234V569H146.438V557.625H147.945L153.688 566.43V557.625H155.18V569ZM157.234 564.695C157.234 563.867 157.396 563.122 157.719 562.461C158.047 561.799 158.5 561.289 159.078 560.93C159.661 560.57 160.326 560.391 161.07 560.391C162.221 560.391 163.151 560.789 163.859 561.586C164.573 562.383 164.93 563.443 164.93 564.766V564.867C164.93 565.69 164.771 566.43 164.453 567.086C164.141 567.737 163.69 568.245 163.102 568.609C162.518 568.974 161.846 569.156 161.086 569.156C159.94 569.156 159.01 568.758 158.297 567.961C157.589 567.164 157.234 566.109 157.234 564.797V564.695ZM158.688 564.867C158.688 565.805 158.904 566.557 159.336 567.125C159.773 567.693 160.357 567.977 161.086 567.977C161.82 567.977 162.404 567.69 162.836 567.117C163.268 566.539 163.484 565.732 163.484 564.695C163.484 563.768 163.263 563.018 162.82 562.445C162.383 561.867 161.799 561.578 161.07 561.578C160.357 561.578 159.781 561.862 159.344 562.43C158.906 562.997 158.688 563.81 158.688 564.867ZM166.391 564.703C166.391 563.406 166.698 562.365 167.312 561.578C167.927 560.786 168.732 560.391 169.727 560.391C170.716 560.391 171.5 560.729 172.078 561.406V557H173.523V569H172.195L172.125 568.094C171.547 568.802 170.742 569.156 169.711 569.156C168.732 569.156 167.932 568.755 167.312 567.953C166.698 567.151 166.391 566.104 166.391 564.812V564.703ZM167.836 564.867C167.836 565.826 168.034 566.576 168.43 567.117C168.826 567.659 169.372 567.93 170.07 567.93C170.987 567.93 171.656 567.518 172.078 566.695V562.812C171.646 562.016 170.982 561.617 170.086 561.617C169.378 561.617 168.826 561.891 168.43 562.438C168.034 562.984 167.836 563.794 167.836 564.867ZM179.281 569.156C178.135 569.156 177.203 568.781 176.484 568.031C175.766 567.276 175.406 566.268 175.406 565.008V564.742C175.406 563.904 175.565 563.156 175.883 562.5C176.206 561.839 176.654 561.323 177.227 560.953C177.805 560.578 178.43 560.391 179.102 560.391C180.201 560.391 181.055 560.753 181.664 561.477C182.273 562.201 182.578 563.237 182.578 564.586V565.188H176.852C176.872 566.021 177.115 566.695 177.578 567.211C178.047 567.721 178.641 567.977 179.359 567.977C179.87 567.977 180.302 567.872 180.656 567.664C181.01 567.456 181.32 567.18 181.586 566.836L182.469 567.523C181.76 568.612 180.698 569.156 179.281 569.156ZM179.102 561.578C178.518 561.578 178.029 561.792 177.633 562.219C177.237 562.641 176.992 563.234 176.898 564H181.133V563.891C181.091 563.156 180.893 562.589 180.539 562.188C180.185 561.781 179.706 561.578 179.102 561.578Z" fill="#2097F6"/>
<g clip-path="url(#clip2)">
<path d="M112.5 600.453L101.5 595.453V607.453L112.5 612.453V600.453Z" stroke="#2097F6" stroke-width="2" stroke-linecap="round" stroke-linejoin="round"/>
<path d="M112.5 600.453L123.5 595.453V607.453L112.5 612.453V600.453Z" stroke="#2097F6" stroke-width="2" stroke-linecap="round" stroke-linejoin="round"/>
<path d="M123.5 595.453L112.5 590.453L101.5 595.453" stroke="#2097F6" stroke-width="2" stroke-linecap="round" stroke-linejoin="round"/>
<path d="M112.5 590.453V585.453" stroke="#2097F6" stroke-width="2" stroke-linecap="round" stroke-linejoin="round"/>
<path d="M101.5 607.453L97.5 609.453" stroke="#2097F6" stroke-width="2" stroke-linecap="round" stroke-linejoin="round"/>
<path d="M123.5 607.453L127.5 609.453" stroke="#2097F6" stroke-width="2" stroke-linecap="round" stroke-linejoin="round"/>
</g>
<rect x="0.5" y="532.5" width="224" height="104" rx="7.5" stroke="#2097F6"/>
</g>
<g filter="url(#filter3_d)">
<rect x="2" y="361" width="99" height="105" rx="8" fill="#E5FDE8"/>
<path d="M45.5469 392.742H40.6172V396.773H46.3438V398H39.1172V386.625H46.2656V387.859H40.6172V391.516H45.5469V392.742ZM56.2266 387.859H52.5703V398H51.0781V387.859H47.4297V386.625H56.2266V387.859ZM59.4219 396.773H64.8125V398H57.9141V386.625H59.4219V396.773Z" fill="#65BF73"/>
<path d="M61.4065 429.307C61.4598 428.88 61.4998 428.453 61.4998 428C61.4998 427.547 61.4598 427.12 61.4065 426.693L64.2198 424.493C64.4731 424.293 64.5398 423.933 64.3798 423.64L61.7131 419.027C61.6345 418.889 61.5095 418.784 61.3605 418.73C61.2114 418.677 61.0481 418.678 60.8998 418.733L57.5798 420.067C56.8865 419.533 56.1398 419.093 55.3265 418.76L54.8198 415.227C54.7977 415.07 54.7192 414.926 54.5989 414.823C54.4786 414.72 54.3249 414.664 54.1665 414.667H48.8331C48.4998 414.667 48.2198 414.907 48.1798 415.227L47.6731 418.76C46.8598 419.093 46.1131 419.547 45.4198 420.067L42.0998 418.733C42.0225 418.707 41.9414 418.694 41.8598 418.693C41.6331 418.693 41.4065 418.813 41.2865 419.027L38.6198 423.64C38.4465 423.933 38.5265 424.293 38.7798 424.493L41.5931 426.693C41.5398 427.12 41.4998 427.56 41.4998 428C41.4998 428.44 41.5398 428.88 41.5931 429.307L38.7798 431.507C38.5265 431.707 38.4598 432.067 38.6198 432.36L41.2865 436.973C41.3651 437.111 41.4901 437.216 41.6391 437.27C41.7882 437.324 41.9515 437.322 42.0998 437.267L45.4198 435.933C46.1131 436.467 46.8598 436.907 47.6731 437.24L48.1798 440.773C48.2198 441.093 48.4998 441.333 48.8331 441.333H54.1665C54.4998 441.333 54.7798 441.093 54.8198 440.773L55.3265 437.24C56.1398 436.907 56.8865 436.453 57.5798 435.933L60.8998 437.267C60.9798 437.293 61.0598 437.307 61.1398 437.307C61.3665 437.307 61.5931 437.187 61.7131 436.973L64.3798 432.36C64.5398 432.067 64.4731 431.707 64.2198 431.507L61.4065 429.307V429.307ZM58.7665 427.027C58.8198 427.44 58.8331 427.72 58.8331 428C58.8331 428.28 58.8065 428.573 58.7665 428.973L58.5798 430.48L59.7665 431.413L61.2065 432.533L60.2731 434.147L58.5798 433.467L57.1931 432.907L55.9931 433.813C55.4198 434.24 54.8731 434.56 54.3265 434.787L52.9131 435.36L52.6998 436.867L52.4331 438.667H50.5665L50.3131 436.867L50.0998 435.36L48.6865 434.787C48.1131 434.547 47.5798 434.24 47.0465 433.84L45.8331 432.907L44.4198 433.48L42.7265 434.16L41.7931 432.547L43.2331 431.427L44.4198 430.493L44.2331 428.987C44.1931 428.573 44.1665 428.267 44.1665 428C44.1665 427.733 44.1931 427.427 44.2331 427.027L44.4198 425.52L43.2331 424.587L41.7931 423.467L42.7265 421.853L44.4198 422.533L45.8065 423.093L47.0065 422.187C47.5798 421.76 48.1265 421.44 48.6731 421.213L50.0865 420.64L50.2998 419.133L50.5665 417.333H52.4198L52.6731 419.133L52.8865 420.64L54.2998 421.213C54.8731 421.453 55.4065 421.76 55.9398 422.16L57.1531 423.093L58.5665 422.52L60.2598 421.84L61.1931 423.453L59.7665 424.587L58.5798 425.52L58.7665 427.027ZM51.4998 422.667C48.5531 422.667 46.1665 425.053 46.1665 428C46.1665 430.947 48.5531 433.333 51.4998 433.333C54.4465 433.333 56.8331 430.947 56.8331 428C56.8331 425.053 54.4465 422.667 51.4998 422.667ZM51.4998 430.667C50.0331 430.667 48.8331 429.467 48.8331 428C48.8331 426.533 50.0331 425.333 51.4998 425.333C52.9665 425.333 54.1665 426.533 54.1665 428C54.1665 429.467 52.9665 430.667 51.4998 430.667Z" fill="#65BF73"/>
<rect x="2.5" y="361.5" width="98" height="104" rx="7.5" stroke="#65BF73"/>
</g>
<g filter="url(#filter4_d)">
<rect x="126" y="361" width="99" height="105" rx="8" fill="#E5FDE8"/>
<path d="M162.641 392.68C162.641 393.794 162.453 394.768 162.078 395.602C161.703 396.43 161.172 397.062 160.484 397.5C159.797 397.938 158.995 398.156 158.078 398.156C157.182 398.156 156.388 397.938 155.695 397.5C155.003 397.057 154.464 396.43 154.078 395.617C153.698 394.799 153.503 393.854 153.492 392.781V391.961C153.492 390.867 153.682 389.901 154.062 389.062C154.443 388.224 154.979 387.583 155.672 387.141C156.37 386.693 157.167 386.469 158.062 386.469C158.974 386.469 159.776 386.69 160.469 387.133C161.167 387.57 161.703 388.208 162.078 389.047C162.453 389.88 162.641 390.852 162.641 391.961V392.68ZM161.148 391.945C161.148 390.596 160.878 389.562 160.336 388.844C159.794 388.12 159.036 387.758 158.062 387.758C157.115 387.758 156.367 388.12 155.82 388.844C155.279 389.562 155 390.562 154.984 391.844V392.68C154.984 393.987 155.258 395.016 155.805 395.766C156.357 396.51 157.115 396.883 158.078 396.883C159.047 396.883 159.797 396.531 160.328 395.828C160.859 395.12 161.133 394.107 161.148 392.789V391.945ZM165.375 398V390.664H164.039V389.547H165.375V388.68C165.375 387.773 165.617 387.073 166.102 386.578C166.586 386.083 167.271 385.836 168.156 385.836C168.49 385.836 168.82 385.88 169.148 385.969L169.07 387.141C168.826 387.094 168.565 387.07 168.289 387.07C167.82 387.07 167.458 387.208 167.203 387.484C166.948 387.755 166.82 388.146 166.82 388.656V389.547H169.945V388.625C169.951 387.724 170.203 387.034 170.703 386.555C171.203 386.076 171.914 385.836 172.836 385.836C173.362 385.836 174.404 385.995 175.961 386.312V398H174.516V387.227C173.87 387.122 173.349 387.07 172.953 387.07C171.911 387.07 171.391 387.617 171.391 388.711V389.547H173.195V390.664H171.391V398H169.945V390.664H166.82V398H165.375ZM179.891 398H178.445V389.547H179.891V398ZM178.328 387.305C178.328 387.07 178.398 386.872 178.539 386.711C178.685 386.549 178.898 386.469 179.18 386.469C179.461 386.469 179.674 386.549 179.82 386.711C179.966 386.872 180.039 387.07 180.039 387.305C180.039 387.539 179.966 387.734 179.82 387.891C179.674 388.047 179.461 388.125 179.18 388.125C178.898 388.125 178.685 388.047 178.539 387.891C178.398 387.734 178.328 387.539 178.328 387.305ZM183.578 389.547L183.625 390.609C184.271 389.797 185.115 389.391 186.156 389.391C187.943 389.391 188.844 390.398 188.859 392.414V398H187.414V392.406C187.409 391.797 187.268 391.346 186.992 391.055C186.721 390.763 186.297 390.617 185.719 390.617C185.25 390.617 184.839 390.742 184.484 390.992C184.13 391.242 183.854 391.57 183.656 391.977V398H182.211V389.547H183.578ZM194.547 398.156C193.401 398.156 192.469 397.781 191.75 397.031C191.031 396.276 190.672 395.268 190.672 394.008V393.742C190.672 392.904 190.831 392.156 191.148 391.5C191.471 390.839 191.919 390.323 192.492 389.953C193.07 389.578 193.695 389.391 194.367 389.391C195.466 389.391 196.32 389.753 196.93 390.477C197.539 391.201 197.844 392.237 197.844 393.586V394.188H192.117C192.138 395.021 192.38 395.695 192.844 396.211C193.312 396.721 193.906 396.977 194.625 396.977C195.135 396.977 195.568 396.872 195.922 396.664C196.276 396.456 196.586 396.18 196.852 395.836L197.734 396.523C197.026 397.612 195.964 398.156 194.547 398.156ZM194.367 390.578C193.784 390.578 193.294 390.792 192.898 391.219C192.503 391.641 192.258 392.234 192.164 393H196.398V392.891C196.357 392.156 196.159 391.589 195.805 391.188C195.451 390.781 194.971 390.578 194.367 390.578ZM158.328 411.68C158.328 412.779 158.154 413.727 157.805 414.523C157.456 415.315 156.966 415.935 156.336 416.383L158.367 417.977L157.344 418.922L154.945 417.016C154.57 417.109 154.174 417.156 153.758 417.156C152.862 417.156 152.068 416.938 151.375 416.5C150.682 416.057 150.143 415.43 149.758 414.617C149.378 413.799 149.182 412.854 149.172 411.781V410.961C149.172 409.867 149.362 408.901 149.742 408.062C150.122 407.224 150.659 406.583 151.352 406.141C152.049 405.693 152.846 405.469 153.742 405.469C154.659 405.469 155.464 405.69 156.156 406.133C156.854 406.576 157.391 407.214 157.766 408.047C158.141 408.875 158.328 409.844 158.328 410.953V411.68ZM156.828 410.945C156.828 409.607 156.56 408.576 156.023 407.852C155.492 407.122 154.732 406.758 153.742 406.758C152.799 406.758 152.055 407.12 151.508 407.844C150.966 408.562 150.688 409.562 150.672 410.844V411.68C150.672 412.982 150.943 414.008 151.484 414.758C152.031 415.508 152.789 415.883 153.758 415.883C154.727 415.883 155.477 415.531 156.008 414.828C156.539 414.12 156.812 413.107 156.828 411.789V410.945ZM165.633 416.164C165.07 416.826 164.245 417.156 163.156 417.156C162.255 417.156 161.568 416.896 161.094 416.375C160.625 415.849 160.388 415.073 160.383 414.047V408.547H161.828V414.008C161.828 415.289 162.349 415.93 163.391 415.93C164.495 415.93 165.229 415.518 165.594 414.695V408.547H167.039V417H165.664L165.633 416.164ZM172.75 417.156C171.604 417.156 170.672 416.781 169.953 416.031C169.234 415.276 168.875 414.268 168.875 413.008V412.742C168.875 411.904 169.034 411.156 169.352 410.5C169.674 409.839 170.122 409.323 170.695 408.953C171.273 408.578 171.898 408.391 172.57 408.391C173.669 408.391 174.523 408.753 175.133 409.477C175.742 410.201 176.047 411.237 176.047 412.586V413.188H170.32C170.341 414.021 170.583 414.695 171.047 415.211C171.516 415.721 172.109 415.977 172.828 415.977C173.339 415.977 173.771 415.872 174.125 415.664C174.479 415.456 174.789 415.18 175.055 414.836L175.938 415.523C175.229 416.612 174.167 417.156 172.75 417.156ZM172.57 409.578C171.987 409.578 171.497 409.792 171.102 410.219C170.706 410.641 170.461 411.234 170.367 412H174.602V411.891C174.56 411.156 174.362 410.589 174.008 410.188C173.654 409.781 173.174 409.578 172.57 409.578ZM181.812 409.844C181.594 409.807 181.357 409.789 181.102 409.789C180.154 409.789 179.51 410.193 179.172 411V417H177.727V408.547H179.133L179.156 409.523C179.63 408.768 180.302 408.391 181.172 408.391C181.453 408.391 181.667 408.427 181.812 408.5V409.844ZM184.719 417H183.273V408.547H184.719V417ZM183.156 406.305C183.156 406.07 183.227 405.872 183.367 405.711C183.513 405.549 183.727 405.469 184.008 405.469C184.289 405.469 184.503 405.549 184.648 405.711C184.794 405.872 184.867 406.07 184.867 406.305C184.867 406.539 184.794 406.734 184.648 406.891C184.503 407.047 184.289 407.125 184.008 407.125C183.727 407.125 183.513 407.047 183.367 406.891C183.227 406.734 183.156 406.539 183.156 406.305ZM190.547 417.156C189.401 417.156 188.469 416.781 187.75 416.031C187.031 415.276 186.672 414.268 186.672 413.008V412.742C186.672 411.904 186.831 411.156 187.148 410.5C187.471 409.839 187.919 409.323 188.492 408.953C189.07 408.578 189.695 408.391 190.367 408.391C191.466 408.391 192.32 408.753 192.93 409.477C193.539 410.201 193.844 411.237 193.844 412.586V413.188H188.117C188.138 414.021 188.38 414.695 188.844 415.211C189.312 415.721 189.906 415.977 190.625 415.977C191.135 415.977 191.568 415.872 191.922 415.664C192.276 415.456 192.586 415.18 192.852 414.836L193.734 415.523C193.026 416.612 191.964 417.156 190.547 417.156ZM190.367 409.578C189.784 409.578 189.294 409.792 188.898 410.219C188.503 410.641 188.258 411.234 188.164 412H192.398V411.891C192.357 411.156 192.159 410.589 191.805 410.188C191.451 409.781 190.971 409.578 190.367 409.578ZM200.445 414.758C200.445 414.367 200.297 414.065 200 413.852C199.708 413.633 199.195 413.445 198.461 413.289C197.732 413.133 197.151 412.945 196.719 412.727C196.292 412.508 195.974 412.247 195.766 411.945C195.562 411.643 195.461 411.284 195.461 410.867C195.461 410.174 195.753 409.589 196.336 409.109C196.924 408.63 197.674 408.391 198.586 408.391C199.544 408.391 200.32 408.638 200.914 409.133C201.513 409.628 201.812 410.26 201.812 411.031H200.359C200.359 410.635 200.19 410.294 199.852 410.008C199.518 409.721 199.096 409.578 198.586 409.578C198.06 409.578 197.648 409.693 197.352 409.922C197.055 410.151 196.906 410.451 196.906 410.82C196.906 411.169 197.044 411.432 197.32 411.609C197.596 411.786 198.094 411.956 198.812 412.117C199.536 412.279 200.122 412.471 200.57 412.695C201.018 412.919 201.349 413.19 201.562 413.508C201.781 413.82 201.891 414.203 201.891 414.656C201.891 415.411 201.589 416.018 200.984 416.477C200.38 416.93 199.596 417.156 198.633 417.156C197.956 417.156 197.357 417.036 196.836 416.797C196.315 416.557 195.906 416.224 195.609 415.797C195.318 415.365 195.172 414.898 195.172 414.398H196.617C196.643 414.883 196.836 415.268 197.195 415.555C197.56 415.836 198.039 415.977 198.633 415.977C199.18 415.977 199.617 415.867 199.945 415.648C200.279 415.424 200.445 415.128 200.445 414.758Z" fill="#65BF73"/>
<rect x="126.5" y="361.5" width="98" height="104" rx="7.5" stroke="#65BF73"/>
</g>
<defs>
<filter id="filter0_d" x="2" y="171" width="229" height="128" filterUnits="userSpaceOnUse" color-interpolation-filters="sRGB">
<feFlood flood-opacity="0" result="BackgroundImageFix"/>
<feColorMatrix in="SourceAlpha" type="matrix" values="0 0 0 0 0 0 0 0 0 0 0 0 0 0 0 0 0 0 127 0"/>
<feOffset dx="4" dy="4"/>
<feColorMatrix type="matrix" values="0 0 0 0 0.952941 0 0 0 0 0.639216 0 0 0 0 0.619608 0 0 0 1 0"/>
<feBlend mode="normal" in2="BackgroundImageFix" result="effect1_dropShadow"/>
<feBlend mode="normal" in="SourceGraphic" in2="effect1_dropShadow" result="shape"/>
</filter>
<filter id="filter1_d" x="0" y="0" width="229" height="109" filterUnits="userSpaceOnUse" color-interpolation-filters="sRGB">
<feFlood flood-opacity="0" result="BackgroundImageFix"/>
<feColorMatrix in="SourceAlpha" type="matrix" values="0 0 0 0 0 0 0 0 0 0 0 0 0 0 0 0 0 0 127 0"/>
<feOffset dx="4" dy="4"/>
<feColorMatrix type="matrix" values="0 0 0 0 0.674908 0 0 0 0 0.662083 0 0 0 0 0.945833 0 0 0 1 0"/>
<feBlend mode="normal" in2="BackgroundImageFix" result="effect1_dropShadow"/>
<feBlend mode="normal" in="SourceGraphic" in2="effect1_dropShadow" result="shape"/>
</filter>
<filter id="filter2_d" x="0" y="532" width="229" height="109" filterUnits="userSpaceOnUse" color-interpolation-filters="sRGB">
<feFlood flood-opacity="0" result="BackgroundImageFix"/>
<feColorMatrix in="SourceAlpha" type="matrix" values="0 0 0 0 0 0 0 0 0 0 0 0 0 0 0 0 0 0 127 0"/>
<feOffset dx="4" dy="4"/>
<feColorMatrix type="matrix" values="0 0 0 0 0.513733 0 0 0 0 0.767915 0 0 0 0 0.970833 0 0 0 1 0"/>
<feBlend mode="normal" in2="BackgroundImageFix" result="effect1_dropShadow"/>
<feBlend mode="normal" in="SourceGraphic" in2="effect1_dropShadow" result="shape"/>
</filter>
<filter id="filter3_d" x="2" y="361" width="103" height="109" filterUnits="userSpaceOnUse" color-interpolation-filters="sRGB">
<feFlood flood-opacity="0" result="BackgroundImageFix"/>
<feColorMatrix in="SourceAlpha" type="matrix" values="0 0 0 0 0 0 0 0 0 0 0 0 0 0 0 0 0 0 127 0"/>
<feOffset dx="4" dy="4"/>
<feColorMatrix type="matrix" values="0 0 0 0 0.578021 0 0 0 0 0.775 0 0 0 0 0.608662 0 0 0 1 0"/>
<feBlend mode="normal" in2="BackgroundImageFix" result="effect1_dropShadow"/>
<feBlend mode="normal" in="SourceGraphic" in2="effect1_dropShadow" result="shape"/>
</filter>
<filter id="filter4_d" x="126" y="361" width="103" height="109" filterUnits="userSpaceOnUse" color-interpolation-filters="sRGB">
<feFlood flood-opacity="0" result="BackgroundImageFix"/>
<feColorMatrix in="SourceAlpha" type="matrix" values="0 0 0 0 0 0 0 0 0 0 0 0 0 0 0 0 0 0 127 0"/>
<feOffset dx="4" dy="4"/>
<feColorMatrix type="matrix" values="0 0 0 0 0.578021 0 0 0 0 0.775 0 0 0 0 0.608662 0 0 0 1 0"/>
<feBlend mode="normal" in2="BackgroundImageFix" result="effect1_dropShadow"/>
<feBlend mode="normal" in="SourceGraphic" in2="effect1_dropShadow" result="shape"/>
</filter>
<clipPath id="clip0">
<rect width="32" height="32" fill="white" transform="translate(98.5 241)"/>
</clipPath>
<clipPath id="clip1">
<rect width="32" height="32" fill="white" transform="translate(96.5 51)"/>
</clipPath>
<clipPath id="clip2">
<rect width="32" height="32" fill="white" transform="translate(96.5 583)"/>
</clipPath>
</defs>
</svg>
