<svg width="279" height="641" viewBox="0 0 279 641" fill="none" xmlns="http://www.w3.org/2000/svg">
<g filter="url(#filter0_d)">
<rect y="171" width="275" height="124" rx="8" fill="#FEEBEA"/>
<path d="M91.8516 202.93C90.5651 202.56 89.6276 202.107 89.0391 201.57C88.4557 201.029 88.1641 200.362 88.1641 199.57C88.1641 198.674 88.5208 197.935 89.2344 197.352C89.9531 196.763 90.8854 196.469 92.0312 196.469C92.8125 196.469 93.5078 196.62 94.1172 196.922C94.7318 197.224 95.2057 197.641 95.5391 198.172C95.8776 198.703 96.0469 199.284 96.0469 199.914H94.5391C94.5391 199.227 94.3203 198.688 93.8828 198.297C93.4453 197.901 92.8281 197.703 92.0312 197.703C91.2917 197.703 90.7135 197.867 90.2969 198.195C89.8854 198.518 89.6797 198.969 89.6797 199.547C89.6797 200.01 89.875 200.404 90.2656 200.727C90.6615 201.044 91.3307 201.336 92.2734 201.602C93.2214 201.867 93.9609 202.161 94.4922 202.484C95.0286 202.802 95.4245 203.174 95.6797 203.602C95.9401 204.029 96.0703 204.531 96.0703 205.109C96.0703 206.031 95.7109 206.771 94.9922 207.328C94.2734 207.88 93.3125 208.156 92.1094 208.156C91.3281 208.156 90.599 208.008 89.9219 207.711C89.2448 207.409 88.7214 206.997 88.3516 206.477C87.987 205.956 87.8047 205.365 87.8047 204.703H89.3125C89.3125 205.391 89.5651 205.935 90.0703 206.336C90.5807 206.732 91.2604 206.93 92.1094 206.93C92.901 206.93 93.5078 206.768 93.9297 206.445C94.3516 206.122 94.5625 205.682 94.5625 205.125C94.5625 204.568 94.3672 204.138 93.9766 203.836C93.5859 203.529 92.8776 203.227 91.8516 202.93ZM106.688 202.68C106.688 203.779 106.513 204.727 106.164 205.523C105.815 206.315 105.326 206.935 104.695 207.383L106.727 208.977L105.703 209.922L103.305 208.016C102.93 208.109 102.534 208.156 102.117 208.156C101.221 208.156 100.427 207.938 99.7344 207.5C99.0417 207.057 98.5026 206.43 98.1172 205.617C97.737 204.799 97.5417 203.854 97.5312 202.781V201.961C97.5312 200.867 97.7214 199.901 98.1016 199.062C98.4818 198.224 99.0182 197.583 99.7109 197.141C100.409 196.693 101.206 196.469 102.102 196.469C103.018 196.469 103.823 196.69 104.516 197.133C105.214 197.576 105.75 198.214 106.125 199.047C106.5 199.875 106.688 200.844 106.688 201.953V202.68ZM105.188 201.945C105.188 200.607 104.919 199.576 104.383 198.852C103.852 198.122 103.091 197.758 102.102 197.758C101.159 197.758 100.414 198.12 99.8672 198.844C99.3255 199.562 99.0469 200.562 99.0312 201.844V202.68C99.0312 203.982 99.3021 205.008 99.8438 205.758C100.391 206.508 101.148 206.883 102.117 206.883C103.086 206.883 103.836 206.531 104.367 205.828C104.898 205.12 105.172 204.107 105.188 202.789V201.945ZM110.508 206.773H115.898V208H109V196.625H110.508V206.773ZM121.578 208V196.625H124.789C125.779 196.625 126.654 196.844 127.414 197.281C128.174 197.719 128.76 198.341 129.172 199.148C129.589 199.956 129.799 200.883 129.805 201.93V202.656C129.805 203.729 129.596 204.669 129.18 205.477C128.768 206.284 128.177 206.904 127.406 207.336C126.641 207.768 125.747 207.99 124.727 208H121.578ZM123.078 197.859V206.773H124.656C125.812 206.773 126.711 206.414 127.352 205.695C127.997 204.977 128.32 203.953 128.32 202.625V201.961C128.32 200.669 128.016 199.667 127.406 198.953C126.802 198.234 125.943 197.87 124.828 197.859H123.078ZM137.07 208C136.987 207.833 136.919 207.536 136.867 207.109C136.195 207.807 135.393 208.156 134.461 208.156C133.628 208.156 132.943 207.922 132.406 207.453C131.875 206.979 131.609 206.38 131.609 205.656C131.609 204.776 131.943 204.094 132.609 203.609C133.281 203.12 134.224 202.875 135.438 202.875H136.844V202.211C136.844 201.706 136.693 201.305 136.391 201.008C136.089 200.706 135.643 200.555 135.055 200.555C134.539 200.555 134.107 200.685 133.758 200.945C133.409 201.206 133.234 201.521 133.234 201.891H131.781C131.781 201.469 131.93 201.062 132.227 200.672C132.529 200.276 132.935 199.964 133.445 199.734C133.961 199.505 134.526 199.391 135.141 199.391C136.115 199.391 136.878 199.635 137.43 200.125C137.982 200.609 138.268 201.279 138.289 202.133V206.023C138.289 206.799 138.388 207.417 138.586 207.875V208H137.07ZM134.672 206.898C135.125 206.898 135.555 206.781 135.961 206.547C136.367 206.312 136.661 206.008 136.844 205.633V203.898H135.711C133.94 203.898 133.055 204.417 133.055 205.453C133.055 205.906 133.206 206.26 133.508 206.516C133.81 206.771 134.198 206.898 134.672 206.898ZM142.516 197.5V199.547H144.094V200.664H142.516V205.906C142.516 206.245 142.586 206.5 142.727 206.672C142.867 206.839 143.107 206.922 143.445 206.922C143.612 206.922 143.841 206.891 144.133 206.828V208C143.753 208.104 143.383 208.156 143.023 208.156C142.378 208.156 141.891 207.961 141.562 207.57C141.234 207.18 141.07 206.625 141.07 205.906V200.664H139.531V199.547H141.07V197.5H142.516ZM151.008 208C150.924 207.833 150.857 207.536 150.805 207.109C150.133 207.807 149.331 208.156 148.398 208.156C147.565 208.156 146.88 207.922 146.344 207.453C145.812 206.979 145.547 206.38 145.547 205.656C145.547 204.776 145.88 204.094 146.547 203.609C147.219 203.12 148.161 202.875 149.375 202.875H150.781V202.211C150.781 201.706 150.63 201.305 150.328 201.008C150.026 200.706 149.581 200.555 148.992 200.555C148.477 200.555 148.044 200.685 147.695 200.945C147.346 201.206 147.172 201.521 147.172 201.891H145.719C145.719 201.469 145.867 201.062 146.164 200.672C146.466 200.276 146.872 199.964 147.383 199.734C147.898 199.505 148.464 199.391 149.078 199.391C150.052 199.391 150.815 199.635 151.367 200.125C151.919 200.609 152.206 201.279 152.227 202.133V206.023C152.227 206.799 152.326 207.417 152.523 207.875V208H151.008ZM148.609 206.898C149.062 206.898 149.492 206.781 149.898 206.547C150.305 206.312 150.599 206.008 150.781 205.633V203.898H149.648C147.878 203.898 146.992 204.417 146.992 205.453C146.992 205.906 147.143 206.26 147.445 206.516C147.747 206.771 148.135 206.898 148.609 206.898ZM161.648 203.867C161.648 205.159 161.352 206.198 160.758 206.984C160.164 207.766 159.367 208.156 158.367 208.156C157.299 208.156 156.474 207.779 155.891 207.023L155.82 208H154.492V196H155.938V200.477C156.521 199.753 157.326 199.391 158.352 199.391C159.378 199.391 160.182 199.779 160.766 200.555C161.354 201.331 161.648 202.393 161.648 203.742V203.867ZM160.203 203.703C160.203 202.719 160.013 201.958 159.633 201.422C159.253 200.885 158.706 200.617 157.992 200.617C157.039 200.617 156.354 201.06 155.938 201.945V205.602C156.38 206.487 157.07 206.93 158.008 206.93C158.701 206.93 159.24 206.661 159.625 206.125C160.01 205.589 160.203 204.781 160.203 203.703ZM168.695 208C168.612 207.833 168.544 207.536 168.492 207.109C167.82 207.807 167.018 208.156 166.086 208.156C165.253 208.156 164.568 207.922 164.031 207.453C163.5 206.979 163.234 206.38 163.234 205.656C163.234 204.776 163.568 204.094 164.234 203.609C164.906 203.12 165.849 202.875 167.062 202.875H168.469V202.211C168.469 201.706 168.318 201.305 168.016 201.008C167.714 200.706 167.268 200.555 166.68 200.555C166.164 200.555 165.732 200.685 165.383 200.945C165.034 201.206 164.859 201.521 164.859 201.891H163.406C163.406 201.469 163.555 201.062 163.852 200.672C164.154 200.276 164.56 199.964 165.07 199.734C165.586 199.505 166.151 199.391 166.766 199.391C167.74 199.391 168.503 199.635 169.055 200.125C169.607 200.609 169.893 201.279 169.914 202.133V206.023C169.914 206.799 170.013 207.417 170.211 207.875V208H168.695ZM166.297 206.898C166.75 206.898 167.18 206.781 167.586 206.547C167.992 206.312 168.286 206.008 168.469 205.633V203.898H167.336C165.565 203.898 164.68 204.417 164.68 205.453C164.68 205.906 164.831 206.26 165.133 206.516C165.435 206.771 165.823 206.898 166.297 206.898ZM177.102 205.758C177.102 205.367 176.953 205.065 176.656 204.852C176.365 204.633 175.852 204.445 175.117 204.289C174.388 204.133 173.807 203.945 173.375 203.727C172.948 203.508 172.63 203.247 172.422 202.945C172.219 202.643 172.117 202.284 172.117 201.867C172.117 201.174 172.409 200.589 172.992 200.109C173.581 199.63 174.331 199.391 175.242 199.391C176.201 199.391 176.977 199.638 177.57 200.133C178.169 200.628 178.469 201.26 178.469 202.031H177.016C177.016 201.635 176.846 201.294 176.508 201.008C176.174 200.721 175.753 200.578 175.242 200.578C174.716 200.578 174.305 200.693 174.008 200.922C173.711 201.151 173.562 201.451 173.562 201.82C173.562 202.169 173.701 202.432 173.977 202.609C174.253 202.786 174.75 202.956 175.469 203.117C176.193 203.279 176.779 203.471 177.227 203.695C177.674 203.919 178.005 204.19 178.219 204.508C178.438 204.82 178.547 205.203 178.547 205.656C178.547 206.411 178.245 207.018 177.641 207.477C177.036 207.93 176.253 208.156 175.289 208.156C174.612 208.156 174.013 208.036 173.492 207.797C172.971 207.557 172.562 207.224 172.266 206.797C171.974 206.365 171.828 205.898 171.828 205.398H173.273C173.299 205.883 173.492 206.268 173.852 206.555C174.216 206.836 174.695 206.977 175.289 206.977C175.836 206.977 176.273 206.867 176.602 206.648C176.935 206.424 177.102 206.128 177.102 205.758ZM183.938 208.156C182.792 208.156 181.859 207.781 181.141 207.031C180.422 206.276 180.062 205.268 180.062 204.008V203.742C180.062 202.904 180.221 202.156 180.539 201.5C180.862 200.839 181.31 200.323 181.883 199.953C182.461 199.578 183.086 199.391 183.758 199.391C184.857 199.391 185.711 199.753 186.32 200.477C186.93 201.201 187.234 202.237 187.234 203.586V204.188H181.508C181.529 205.021 181.771 205.695 182.234 206.211C182.703 206.721 183.297 206.977 184.016 206.977C184.526 206.977 184.958 206.872 185.312 206.664C185.667 206.456 185.977 206.18 186.242 205.836L187.125 206.523C186.417 207.612 185.354 208.156 183.938 208.156ZM183.758 200.578C183.174 200.578 182.685 200.792 182.289 201.219C181.893 201.641 181.648 202.234 181.555 203H185.789V202.891C185.747 202.156 185.549 201.589 185.195 201.188C184.841 200.781 184.362 200.578 183.758 200.578ZM96.8047 222.383C96.8047 221.206 96.9609 220.076 97.2734 218.992C97.5911 217.909 98.0625 216.924 98.6875 216.039C99.3125 215.154 99.9609 214.529 100.633 214.164L100.93 215.117C100.169 215.701 99.5443 216.591 99.0547 217.789C98.5703 218.987 98.3047 220.328 98.2578 221.812L98.25 222.477C98.25 224.487 98.6172 226.232 99.3516 227.711C99.7943 228.596 100.32 229.289 100.93 229.789L100.633 230.672C99.9401 230.286 99.2786 229.641 98.6484 228.734C97.4193 226.964 96.8047 224.846 96.8047 222.383ZM106.727 222.398H104.055V227H102.547V215.625H106.312C107.594 215.625 108.578 215.917 109.266 216.5C109.958 217.083 110.305 217.932 110.305 219.047C110.305 219.755 110.112 220.372 109.727 220.898C109.346 221.424 108.815 221.818 108.133 222.078L110.805 226.906V227H109.195L106.727 222.398ZM104.055 221.172H106.359C107.104 221.172 107.695 220.979 108.133 220.594C108.576 220.208 108.797 219.693 108.797 219.047C108.797 218.344 108.586 217.805 108.164 217.43C107.747 217.055 107.143 216.865 106.352 216.859H104.055V221.172ZM111.805 222.695C111.805 221.867 111.966 221.122 112.289 220.461C112.617 219.799 113.07 219.289 113.648 218.93C114.232 218.57 114.896 218.391 115.641 218.391C116.792 218.391 117.721 218.789 118.43 219.586C119.143 220.383 119.5 221.443 119.5 222.766V222.867C119.5 223.69 119.341 224.43 119.023 225.086C118.711 225.737 118.26 226.245 117.672 226.609C117.089 226.974 116.417 227.156 115.656 227.156C114.51 227.156 113.581 226.758 112.867 225.961C112.159 225.164 111.805 224.109 111.805 222.797V222.695ZM113.258 222.867C113.258 223.805 113.474 224.557 113.906 225.125C114.344 225.693 114.927 225.977 115.656 225.977C116.391 225.977 116.974 225.69 117.406 225.117C117.839 224.539 118.055 223.732 118.055 222.695C118.055 221.768 117.833 221.018 117.391 220.445C116.953 219.867 116.37 219.578 115.641 219.578C114.927 219.578 114.352 219.862 113.914 220.43C113.477 220.997 113.258 221.81 113.258 222.867ZM128.797 225.008L130.422 218.547H131.867L129.406 227H128.234L126.18 220.594L124.18 227H123.008L120.555 218.547H121.992L123.656 224.875L125.625 218.547H126.789L128.797 225.008ZM140.891 221.93C139.604 221.56 138.667 221.107 138.078 220.57C137.495 220.029 137.203 219.362 137.203 218.57C137.203 217.674 137.56 216.935 138.273 216.352C138.992 215.763 139.924 215.469 141.07 215.469C141.852 215.469 142.547 215.62 143.156 215.922C143.771 216.224 144.245 216.641 144.578 217.172C144.917 217.703 145.086 218.284 145.086 218.914H143.578C143.578 218.227 143.359 217.688 142.922 217.297C142.484 216.901 141.867 216.703 141.07 216.703C140.331 216.703 139.753 216.867 139.336 217.195C138.924 217.518 138.719 217.969 138.719 218.547C138.719 219.01 138.914 219.404 139.305 219.727C139.701 220.044 140.37 220.336 141.312 220.602C142.26 220.867 143 221.161 143.531 221.484C144.068 221.802 144.464 222.174 144.719 222.602C144.979 223.029 145.109 223.531 145.109 224.109C145.109 225.031 144.75 225.771 144.031 226.328C143.312 226.88 142.352 227.156 141.148 227.156C140.367 227.156 139.638 227.008 138.961 226.711C138.284 226.409 137.76 225.997 137.391 225.477C137.026 224.956 136.844 224.365 136.844 223.703H138.352C138.352 224.391 138.604 224.935 139.109 225.336C139.62 225.732 140.299 225.93 141.148 225.93C141.94 225.93 142.547 225.768 142.969 225.445C143.391 225.122 143.602 224.682 143.602 224.125C143.602 223.568 143.406 223.138 143.016 222.836C142.625 222.529 141.917 222.227 140.891 221.93ZM148.773 216.5V218.547H150.352V219.664H148.773V224.906C148.773 225.245 148.844 225.5 148.984 225.672C149.125 225.839 149.365 225.922 149.703 225.922C149.87 225.922 150.099 225.891 150.391 225.828V227C150.01 227.104 149.641 227.156 149.281 227.156C148.635 227.156 148.148 226.961 147.82 226.57C147.492 226.18 147.328 225.625 147.328 224.906V219.664H145.789V218.547H147.328V216.5H148.773ZM151.508 222.695C151.508 221.867 151.669 221.122 151.992 220.461C152.32 219.799 152.773 219.289 153.352 218.93C153.935 218.57 154.599 218.391 155.344 218.391C156.495 218.391 157.424 218.789 158.133 219.586C158.846 220.383 159.203 221.443 159.203 222.766V222.867C159.203 223.69 159.044 224.43 158.727 225.086C158.414 225.737 157.964 226.245 157.375 226.609C156.792 226.974 156.12 227.156 155.359 227.156C154.214 227.156 153.284 226.758 152.57 225.961C151.862 225.164 151.508 224.109 151.508 222.797V222.695ZM152.961 222.867C152.961 223.805 153.177 224.557 153.609 225.125C154.047 225.693 154.63 225.977 155.359 225.977C156.094 225.977 156.677 225.69 157.109 225.117C157.542 224.539 157.758 223.732 157.758 222.695C157.758 221.768 157.536 221.018 157.094 220.445C156.656 219.867 156.073 219.578 155.344 219.578C154.63 219.578 154.055 219.862 153.617 220.43C153.18 220.997 152.961 221.81 152.961 222.867ZM165.102 219.844C164.883 219.807 164.646 219.789 164.391 219.789C163.443 219.789 162.799 220.193 162.461 221V227H161.016V218.547H162.422L162.445 219.523C162.919 218.768 163.591 218.391 164.461 218.391C164.742 218.391 164.956 218.427 165.102 218.5V219.844ZM169.789 227.156C168.643 227.156 167.711 226.781 166.992 226.031C166.273 225.276 165.914 224.268 165.914 223.008V222.742C165.914 221.904 166.073 221.156 166.391 220.5C166.714 219.839 167.161 219.323 167.734 218.953C168.312 218.578 168.938 218.391 169.609 218.391C170.708 218.391 171.562 218.753 172.172 219.477C172.781 220.201 173.086 221.237 173.086 222.586V223.188H167.359C167.38 224.021 167.622 224.695 168.086 225.211C168.555 225.721 169.148 225.977 169.867 225.977C170.378 225.977 170.81 225.872 171.164 225.664C171.518 225.456 171.828 225.18 172.094 224.836L172.977 225.523C172.268 226.612 171.206 227.156 169.789 227.156ZM169.609 219.578C169.026 219.578 168.536 219.792 168.141 220.219C167.745 220.641 167.5 221.234 167.406 222H171.641V221.891C171.599 221.156 171.401 220.589 171.047 220.188C170.693 219.781 170.214 219.578 169.609 219.578ZM178.102 222.461C178.102 223.622 177.948 224.737 177.641 225.805C177.339 226.867 176.872 227.849 176.242 228.75C175.617 229.651 174.961 230.292 174.273 230.672L173.969 229.789C174.771 229.174 175.414 228.221 175.898 226.93C176.388 225.633 176.638 224.195 176.648 222.617V222.367C176.648 221.273 176.534 220.258 176.305 219.32C176.076 218.378 175.755 217.534 175.344 216.789C174.938 216.044 174.479 215.464 173.969 215.047L174.273 214.164C174.961 214.544 175.615 215.18 176.234 216.07C176.859 216.961 177.326 217.943 177.633 219.016C177.945 220.089 178.102 221.237 178.102 222.461Z" fill="#DE1306"/>
<g clip-path="url(#clip0)">
<path d="M137.5 254.001C145.784 254.001 152.5 251.315 152.5 248.001C152.5 244.688 145.784 242.001 137.5 242.001C129.216 242.001 122.5 244.688 122.5 248.001C122.5 251.315 129.216 254.001 137.5 254.001Z" stroke="#DE1306" stroke-width="1.5" stroke-linecap="round" stroke-linejoin="round"/>
<path d="M122.5 248.001V257C122.5 260.313 129.216 263 137.5 263C145.784 263 152.5 260.315 152.5 257V248.001" stroke="#DE1306" stroke-width="1.5" stroke-linecap="round" stroke-linejoin="round"/>
<path d="M122.5 257V266C122.5 269.313 129.216 272 137.5 272C145.784 272 152.5 269.313 152.5 266V257" stroke="#DE1306" stroke-width="1.5" stroke-linecap="round" stroke-linejoin="round"/>
</g>
<rect x="0.5" y="171.5" width="274" height="123" rx="7.5" stroke="#DE1306"/>
</g>
<g filter="url(#filter1_d)">
<rect width="275" height="105" rx="8" fill="#EEEEFF"/>
<path d="M111.391 34.0312H106.625L105.555 37H104.008L108.352 25.625H109.664L114.016 37H112.477L111.391 34.0312ZM107.078 32.7969H110.945L109.008 27.4766L107.078 32.7969ZM117.047 32.5469V37H115.547V25.625H119.742C120.987 25.625 121.961 25.9427 122.664 26.5781C123.372 27.2135 123.727 28.0547 123.727 29.1016C123.727 30.2057 123.38 31.0573 122.688 31.6562C122 32.25 121.013 32.5469 119.727 32.5469H117.047ZM117.047 31.3203H119.742C120.544 31.3203 121.159 31.1328 121.586 30.7578C122.013 30.3776 122.227 29.8307 122.227 29.1172C122.227 28.4401 122.013 27.8984 121.586 27.4922C121.159 27.0859 120.573 26.875 119.828 26.8594H117.047V31.3203ZM127.25 37H125.75V25.625H127.25V37ZM135.477 35.7734H140.867V37H133.969V25.625H135.477V35.7734ZM147.57 37C147.487 36.8333 147.419 36.5365 147.367 36.1094C146.695 36.8073 145.893 37.1562 144.961 37.1562C144.128 37.1562 143.443 36.9219 142.906 36.4531C142.375 35.9792 142.109 35.3802 142.109 34.6562C142.109 33.776 142.443 33.0938 143.109 32.6094C143.781 32.1198 144.724 31.875 145.938 31.875H147.344V31.2109C147.344 30.7057 147.193 30.3047 146.891 30.0078C146.589 29.7057 146.143 29.5547 145.555 29.5547C145.039 29.5547 144.607 29.6849 144.258 29.9453C143.909 30.2057 143.734 30.5208 143.734 30.8906H142.281C142.281 30.4688 142.43 30.0625 142.727 29.6719C143.029 29.276 143.435 28.9635 143.945 28.7344C144.461 28.5052 145.026 28.3906 145.641 28.3906C146.615 28.3906 147.378 28.6354 147.93 29.125C148.482 29.6094 148.768 30.2786 148.789 31.1328V35.0234C148.789 35.7995 148.888 36.4167 149.086 36.875V37H147.57ZM145.172 35.8984C145.625 35.8984 146.055 35.7812 146.461 35.5469C146.867 35.3125 147.161 35.0078 147.344 34.6328V32.8984H146.211C144.44 32.8984 143.555 33.4167 143.555 34.4531C143.555 34.9062 143.706 35.2604 144.008 35.5156C144.31 35.7708 144.698 35.8984 145.172 35.8984ZM153.695 34.8828L155.664 28.5469H157.211L153.812 38.3047C153.286 39.7109 152.451 40.4141 151.305 40.4141L151.031 40.3906L150.492 40.2891V39.1172L150.883 39.1484C151.372 39.1484 151.753 39.0495 152.023 38.8516C152.299 38.6536 152.526 38.2917 152.703 37.7656L153.023 36.9062L150.008 28.5469H151.586L153.695 34.8828ZM161.906 37.1562C160.76 37.1562 159.828 36.7812 159.109 36.0312C158.391 35.276 158.031 34.2682 158.031 33.0078V32.7422C158.031 31.9036 158.19 31.1562 158.508 30.5C158.831 29.8385 159.279 29.3229 159.852 28.9531C160.43 28.5781 161.055 28.3906 161.727 28.3906C162.826 28.3906 163.68 28.7526 164.289 29.4766C164.898 30.2005 165.203 31.237 165.203 32.5859V33.1875H159.477C159.497 34.0208 159.74 34.6953 160.203 35.2109C160.672 35.7214 161.266 35.9766 161.984 35.9766C162.495 35.9766 162.927 35.8724 163.281 35.6641C163.635 35.4557 163.945 35.1797 164.211 34.8359L165.094 35.5234C164.385 36.612 163.323 37.1562 161.906 37.1562ZM161.727 29.5781C161.143 29.5781 160.654 29.7917 160.258 30.2188C159.862 30.6406 159.617 31.2344 159.523 32H163.758V31.8906C163.716 31.1562 163.518 30.5885 163.164 30.1875C162.81 29.7812 162.331 29.5781 161.727 29.5781ZM170.969 29.8438C170.75 29.8073 170.513 29.7891 170.258 29.7891C169.31 29.7891 168.667 30.1927 168.328 31V37H166.883V28.5469H168.289L168.312 29.5234C168.786 28.7682 169.458 28.3906 170.328 28.3906C170.609 28.3906 170.823 28.4271 170.969 28.5V29.8438Z" fill="#5452F6"/>
<g clip-path="url(#clip1)">
<path d="M150.5 52.0054H124.5C123.395 52.0054 122.5 52.9008 122.5 54.0054V80.0054C122.5 81.1099 123.395 82.0054 124.5 82.0054H150.5C151.605 82.0054 152.5 81.1099 152.5 80.0054V54.0054C152.5 52.9008 151.605 52.0054 150.5 52.0054Z" stroke="#5452F6" stroke-width="1.5" stroke-linecap="round" stroke-linejoin="round"/>
<path d="M129.5 75V67C129.5 66.4696 129.711 65.9609 130.086 65.5858C130.461 65.2107 130.97 65 131.5 65C132.03 65 132.539 65.2107 132.914 65.5858C133.289 65.9609 133.5 66.4696 133.5 67V75" stroke="#5452F6" stroke-width="1.5" stroke-linecap="round" stroke-linejoin="round"/>
<path d="M137.5 65H138.5C139.296 65 140.059 65.3161 140.621 65.8787C141.184 66.4413 141.5 67.2044 141.5 68C141.5 68.7956 141.184 69.5587 140.621 70.1213C140.059 70.6839 139.296 71 138.5 71H137.5" stroke="#5452F6" stroke-width="1.5" stroke-linecap="round" stroke-linejoin="round"/>
<path d="M129.5 71.0054H133.5" stroke="#5452F6" stroke-width="1.5" stroke-linecap="round" stroke-linejoin="round"/>
<path d="M145.5 75.0054V65.0054" stroke="#5452F6" stroke-width="1.5" stroke-linecap="round" stroke-linejoin="round"/>
<path d="M137.5 75.0054V65.0054" stroke="#5452F6" stroke-width="1.5" stroke-linecap="round" stroke-linejoin="round"/>
</g>
<rect x="0.5" y="0.5" width="274" height="104" rx="7.5" stroke="#5452F6"/>
</g>
<path d="M62 533V533C62.5523 533 63 532.552 63 532L63 473.5" stroke="#2097F6" stroke-width="2" stroke-linecap="round" stroke-linejoin="round"/>
<path d="M53.9868 480.988L63.2432 470.988L72.0125 480.988" stroke="#2097F6" stroke-width="2" stroke-linecap="round" stroke-linejoin="round"/>
<path d="M62 363V363C62.5523 363 63 362.552 63 362L63 303.5" stroke="#65BF73" stroke-width="2" stroke-linecap="round" stroke-linejoin="round"/>
<path d="M53.9868 310.988L63.2432 300.988L72.0125 310.988" stroke="#65BF73" stroke-width="2" stroke-linecap="round" stroke-linejoin="round"/>
<path d="M212 362V362C212.552 362 213 361.552 213 361V302.5" stroke="#65BF73" stroke-width="2" stroke-linecap="round" stroke-linejoin="round"/>
<path d="M203.987 309.988L213.243 299.988L222.012 309.988" stroke="#65BF73" stroke-width="2" stroke-linecap="round" stroke-linejoin="round"/>
<path d="M222.013 350.988L212.756 360.988L203.987 350.988" stroke="#65BF73" stroke-width="2" stroke-linecap="round" stroke-linejoin="round"/>
<g filter="url(#filter2_d)">
<rect y="532" width="275" height="105" rx="8" fill="#E7F4FF"/>
<path d="M76.0156 558.859H72.3594V569H70.8672V558.859H67.2188V557.625H76.0156V558.859ZM80.2031 569.156C79.0573 569.156 78.125 568.781 77.4062 568.031C76.6875 567.276 76.3281 566.268 76.3281 565.008V564.742C76.3281 563.904 76.487 563.156 76.8047 562.5C77.1276 561.839 77.5755 561.323 78.1484 560.953C78.7266 560.578 79.3516 560.391 80.0234 560.391C81.1224 560.391 81.9766 560.753 82.5859 561.477C83.1953 562.201 83.5 563.237 83.5 564.586V565.188H77.7734C77.7943 566.021 78.0365 566.695 78.5 567.211C78.9688 567.721 79.5625 567.977 80.2812 567.977C80.7917 567.977 81.224 567.872 81.5781 567.664C81.9323 567.456 82.2422 567.18 82.5078 566.836L83.3906 567.523C82.6823 568.612 81.6198 569.156 80.2031 569.156ZM80.0234 561.578C79.4401 561.578 78.9505 561.792 78.5547 562.219C78.1589 562.641 77.9141 563.234 77.8203 564H82.0547V563.891C82.013 563.156 81.8151 562.589 81.4609 562.188C81.1068 561.781 80.6276 561.578 80.0234 561.578ZM86.5391 567.82H91.4844V569H84.7734V567.938L89.4375 561.742H84.8438V560.547H91.25V561.57L86.5391 567.82ZM92.6094 564.695C92.6094 563.867 92.7708 563.122 93.0938 562.461C93.4219 561.799 93.875 561.289 94.4531 560.93C95.0365 560.57 95.7005 560.391 96.4453 560.391C97.5964 560.391 98.526 560.789 99.2344 561.586C99.9479 562.383 100.305 563.443 100.305 564.766V564.867C100.305 565.69 100.146 566.43 99.8281 567.086C99.5156 567.737 99.0651 568.245 98.4766 568.609C97.8932 568.974 97.2214 569.156 96.4609 569.156C95.3151 569.156 94.3854 568.758 93.6719 567.961C92.9635 567.164 92.6094 566.109 92.6094 564.797V564.695ZM94.0625 564.867C94.0625 565.805 94.2786 566.557 94.7109 567.125C95.1484 567.693 95.7318 567.977 96.4609 567.977C97.1953 567.977 97.7786 567.69 98.2109 567.117C98.6432 566.539 98.8594 565.732 98.8594 564.695C98.8594 563.768 98.638 563.018 98.1953 562.445C97.7578 561.867 97.1745 561.578 96.4453 561.578C95.7318 561.578 95.1562 561.862 94.7188 562.43C94.2812 562.997 94.0625 563.81 94.0625 564.867ZM107.039 566.758C107.039 566.367 106.891 566.065 106.594 565.852C106.302 565.633 105.789 565.445 105.055 565.289C104.326 565.133 103.745 564.945 103.312 564.727C102.885 564.508 102.568 564.247 102.359 563.945C102.156 563.643 102.055 563.284 102.055 562.867C102.055 562.174 102.346 561.589 102.93 561.109C103.518 560.63 104.268 560.391 105.18 560.391C106.138 560.391 106.914 560.638 107.508 561.133C108.107 561.628 108.406 562.26 108.406 563.031H106.953C106.953 562.635 106.784 562.294 106.445 562.008C106.112 561.721 105.69 561.578 105.18 561.578C104.654 561.578 104.242 561.693 103.945 561.922C103.648 562.151 103.5 562.451 103.5 562.82C103.5 563.169 103.638 563.432 103.914 563.609C104.19 563.786 104.688 563.956 105.406 564.117C106.13 564.279 106.716 564.471 107.164 564.695C107.612 564.919 107.943 565.19 108.156 565.508C108.375 565.82 108.484 566.203 108.484 566.656C108.484 567.411 108.182 568.018 107.578 568.477C106.974 568.93 106.19 569.156 105.227 569.156C104.549 569.156 103.951 569.036 103.43 568.797C102.909 568.557 102.5 568.224 102.203 567.797C101.911 567.365 101.766 566.898 101.766 566.398H103.211C103.237 566.883 103.43 567.268 103.789 567.555C104.154 567.836 104.633 567.977 105.227 567.977C105.773 567.977 106.211 567.867 106.539 567.648C106.872 567.424 107.039 567.128 107.039 566.758ZM120.844 566.031H116.078L115.008 569H113.461L117.805 557.625H119.117L123.469 569H121.93L120.844 566.031ZM116.531 564.797H120.398L118.461 559.477L116.531 564.797ZM128.859 561.844C128.641 561.807 128.404 561.789 128.148 561.789C127.201 561.789 126.557 562.193 126.219 563V569H124.773V560.547H126.18L126.203 561.523C126.677 560.768 127.349 560.391 128.219 560.391C128.5 560.391 128.714 560.427 128.859 560.5V561.844ZM133.43 567.977C133.945 567.977 134.396 567.82 134.781 567.508C135.167 567.195 135.38 566.805 135.422 566.336H136.789C136.763 566.82 136.596 567.281 136.289 567.719C135.982 568.156 135.57 568.505 135.055 568.766C134.544 569.026 134.003 569.156 133.43 569.156C132.279 569.156 131.362 568.773 130.68 568.008C130.003 567.237 129.664 566.185 129.664 564.852V564.609C129.664 563.786 129.815 563.055 130.117 562.414C130.419 561.773 130.852 561.276 131.414 560.922C131.982 560.568 132.651 560.391 133.422 560.391C134.37 560.391 135.156 560.674 135.781 561.242C136.411 561.81 136.747 562.547 136.789 563.453H135.422C135.38 562.906 135.172 562.458 134.797 562.109C134.427 561.755 133.969 561.578 133.422 561.578C132.688 561.578 132.117 561.844 131.711 562.375C131.31 562.901 131.109 563.664 131.109 564.664V564.938C131.109 565.911 131.31 566.661 131.711 567.188C132.112 567.714 132.685 567.977 133.43 567.977ZM139.859 561.57C140.5 560.784 141.333 560.391 142.359 560.391C144.146 560.391 145.047 561.398 145.062 563.414V569H143.617V563.406C143.612 562.797 143.471 562.346 143.195 562.055C142.924 561.763 142.5 561.617 141.922 561.617C141.453 561.617 141.042 561.742 140.688 561.992C140.333 562.242 140.057 562.57 139.859 562.977V569H138.414V557H139.859V561.57ZM148.797 569H147.352V560.547H148.797V569ZM147.234 558.305C147.234 558.07 147.305 557.872 147.445 557.711C147.591 557.549 147.805 557.469 148.086 557.469C148.367 557.469 148.581 557.549 148.727 557.711C148.872 557.872 148.945 558.07 148.945 558.305C148.945 558.539 148.872 558.734 148.727 558.891C148.581 559.047 148.367 559.125 148.086 559.125C147.805 559.125 147.591 559.047 147.445 558.891C147.305 558.734 147.234 558.539 147.234 558.305ZM153.906 567.039L156 560.547H157.477L154.445 569H153.344L150.281 560.547H151.758L153.906 567.039ZM162.266 569.156C161.12 569.156 160.188 568.781 159.469 568.031C158.75 567.276 158.391 566.268 158.391 565.008V564.742C158.391 563.904 158.549 563.156 158.867 562.5C159.19 561.839 159.638 561.323 160.211 560.953C160.789 560.578 161.414 560.391 162.086 560.391C163.185 560.391 164.039 560.753 164.648 561.477C165.258 562.201 165.562 563.237 165.562 564.586V565.188H159.836C159.857 566.021 160.099 566.695 160.562 567.211C161.031 567.721 161.625 567.977 162.344 567.977C162.854 567.977 163.286 567.872 163.641 567.664C163.995 567.456 164.305 567.18 164.57 566.836L165.453 567.523C164.745 568.612 163.682 569.156 162.266 569.156ZM162.086 561.578C161.503 561.578 161.013 561.792 160.617 562.219C160.221 562.641 159.977 563.234 159.883 564H164.117V563.891C164.076 563.156 163.878 562.589 163.523 562.188C163.169 561.781 162.69 561.578 162.086 561.578ZM180.18 569H178.672L172.945 560.234V569H171.438V557.625H172.945L178.688 566.43V557.625H180.18V569ZM182.234 564.695C182.234 563.867 182.396 563.122 182.719 562.461C183.047 561.799 183.5 561.289 184.078 560.93C184.661 560.57 185.326 560.391 186.07 560.391C187.221 560.391 188.151 560.789 188.859 561.586C189.573 562.383 189.93 563.443 189.93 564.766V564.867C189.93 565.69 189.771 566.43 189.453 567.086C189.141 567.737 188.69 568.245 188.102 568.609C187.518 568.974 186.846 569.156 186.086 569.156C184.94 569.156 184.01 568.758 183.297 567.961C182.589 567.164 182.234 566.109 182.234 564.797V564.695ZM183.688 564.867C183.688 565.805 183.904 566.557 184.336 567.125C184.773 567.693 185.357 567.977 186.086 567.977C186.82 567.977 187.404 567.69 187.836 567.117C188.268 566.539 188.484 565.732 188.484 564.695C188.484 563.768 188.263 563.018 187.82 562.445C187.383 561.867 186.799 561.578 186.07 561.578C185.357 561.578 184.781 561.862 184.344 562.43C183.906 562.997 183.688 563.81 183.688 564.867ZM191.391 564.703C191.391 563.406 191.698 562.365 192.312 561.578C192.927 560.786 193.732 560.391 194.727 560.391C195.716 560.391 196.5 560.729 197.078 561.406V557H198.523V569H197.195L197.125 568.094C196.547 568.802 195.742 569.156 194.711 569.156C193.732 569.156 192.932 568.755 192.312 567.953C191.698 567.151 191.391 566.104 191.391 564.812V564.703ZM192.836 564.867C192.836 565.826 193.034 566.576 193.43 567.117C193.826 567.659 194.372 567.93 195.07 567.93C195.987 567.93 196.656 567.518 197.078 566.695V562.812C196.646 562.016 195.982 561.617 195.086 561.617C194.378 561.617 193.826 561.891 193.43 562.438C193.034 562.984 192.836 563.794 192.836 564.867ZM204.281 569.156C203.135 569.156 202.203 568.781 201.484 568.031C200.766 567.276 200.406 566.268 200.406 565.008V564.742C200.406 563.904 200.565 563.156 200.883 562.5C201.206 561.839 201.654 561.323 202.227 560.953C202.805 560.578 203.43 560.391 204.102 560.391C205.201 560.391 206.055 560.753 206.664 561.477C207.273 562.201 207.578 563.237 207.578 564.586V565.188H201.852C201.872 566.021 202.115 566.695 202.578 567.211C203.047 567.721 203.641 567.977 204.359 567.977C204.87 567.977 205.302 567.872 205.656 567.664C206.01 567.456 206.32 567.18 206.586 566.836L207.469 567.523C206.76 568.612 205.698 569.156 204.281 569.156ZM204.102 561.578C203.518 561.578 203.029 561.792 202.633 562.219C202.237 562.641 201.992 563.234 201.898 564H206.133V563.891C206.091 563.156 205.893 562.589 205.539 562.188C205.185 561.781 204.706 561.578 204.102 561.578Z" fill="#2097F6"/>
<g clip-path="url(#clip2)">
<path d="M137.5 600.453L126.5 595.453V607.453L137.5 612.453V600.453Z" stroke="#2097F6" stroke-width="1.5" stroke-linecap="round" stroke-linejoin="round"/>
<path d="M137.5 600.453L148.5 595.453V607.453L137.5 612.453V600.453Z" stroke="#2097F6" stroke-width="1.5" stroke-linecap="round" stroke-linejoin="round"/>
<path d="M148.5 595.453L137.5 590.453L126.5 595.453" stroke="#2097F6" stroke-width="1.5" stroke-linecap="round" stroke-linejoin="round"/>
<path d="M137.5 590.453V585.453" stroke="#2097F6" stroke-width="1.5" stroke-linecap="round" stroke-linejoin="round"/>
<path d="M126.5 607.453L122.5 609.453" stroke="#2097F6" stroke-width="1.5" stroke-linecap="round" stroke-linejoin="round"/>
<path d="M148.5 607.453L152.5 609.453" stroke="#2097F6" stroke-width="1.5" stroke-linecap="round" stroke-linejoin="round"/>
</g>
<rect x="0.5" y="532.5" width="274" height="104" rx="7.5" stroke="#2097F6"/>
</g>
<g filter="url(#filter3_d)">
<rect y="361" width="125" height="105" rx="8" fill="#E5FDE8"/>
<path d="M56.5469 392.742H51.6172V396.773H57.3438V398H50.1172V386.625H57.2656V387.859H51.6172V391.516H56.5469V392.742ZM67.2266 387.859H63.5703V398H62.0781V387.859H58.4297V386.625H67.2266V387.859ZM70.4219 396.773H75.8125V398H68.9141V386.625H70.4219V396.773Z" fill="#65BF73"/>
<g clip-path="url(#clip3)">
<path d="M60.5612 415.251C60.8059 415.522 61.1049 415.739 61.4389 415.888C61.7729 416.037 62.1343 416.114 62.4999 416.114C62.8654 416.114 63.2269 416.037 63.5609 415.888C63.8949 415.739 64.1939 415.522 64.4386 415.251L65.6999 413.867C66.0614 413.467 66.5378 413.188 67.0639 413.07C67.5899 412.951 68.1397 412.998 68.6378 413.205C69.136 413.411 69.558 413.767 69.846 414.223C70.1341 414.678 70.274 415.212 70.2466 415.751L70.1519 417.617C70.1336 417.982 70.1917 418.345 70.3226 418.686C70.4535 419.026 70.6543 419.335 70.9119 419.593C71.1695 419.851 71.4783 420.052 71.8184 420.184C72.1585 420.315 72.5224 420.374 72.8866 420.356L74.7532 420.261C75.2914 420.235 75.8246 420.375 76.2797 420.664C76.7349 420.952 77.0897 421.374 77.2956 421.872C77.5015 422.37 77.5484 422.919 77.4298 423.445C77.3112 423.971 77.033 424.447 76.6332 424.808L75.2439 426.061C74.9726 426.306 74.7558 426.606 74.6074 426.94C74.459 427.274 74.3823 427.635 74.3823 428.001C74.3823 428.366 74.459 428.728 74.6074 429.062C74.7558 429.396 74.9726 429.695 75.2439 429.94L76.6332 431.193C77.0333 431.555 77.3117 432.031 77.4302 432.557C77.5487 433.083 77.5015 433.633 77.2951 434.131C77.0887 434.629 76.7332 435.051 76.2774 435.34C75.8215 435.628 75.2877 435.767 74.7492 435.74L72.8826 435.645C72.5176 435.627 72.1528 435.685 71.8117 435.816C71.4706 435.947 71.1608 436.148 70.9024 436.407C70.644 436.665 70.4428 436.975 70.3116 437.316C70.1805 437.657 70.1225 438.022 70.1412 438.387L70.2359 440.253C70.2598 440.789 70.1181 441.319 69.8302 441.772C69.5423 442.224 69.122 442.577 68.6266 442.783C68.1311 442.988 67.5844 443.036 67.0608 442.92C66.5372 442.803 66.0621 442.529 65.6999 442.133L64.4452 440.745C64.2003 440.474 63.9012 440.257 63.5673 440.109C63.2334 439.961 62.872 439.884 62.5066 439.884C62.1411 439.884 61.7798 439.961 61.4458 440.109C61.1119 440.257 60.8128 440.474 60.5679 440.745L59.3079 442.133C58.9463 442.531 58.4709 442.807 57.9466 442.925C57.4223 443.042 56.8745 442.995 56.378 442.79C55.8814 442.584 55.4602 442.231 55.1719 441.777C54.8835 441.324 54.742 440.793 54.7666 440.256L54.8626 438.389C54.8813 438.024 54.8233 437.66 54.6922 437.319C54.561 436.977 54.3598 436.668 54.1014 436.409C53.843 436.151 53.5332 435.95 53.1921 435.818C52.851 435.687 52.4862 435.629 52.1212 435.648L50.2546 435.743C49.7163 435.771 49.1825 435.632 48.7265 435.344C48.2705 435.057 47.9146 434.635 47.7077 434.138C47.5009 433.64 47.4531 433.09 47.5711 432.564C47.6891 432.038 47.9669 431.562 48.3666 431.2L49.7546 429.947C50.0258 429.702 50.2427 429.402 50.3911 429.068C50.5395 428.734 50.6162 428.373 50.6162 428.007C50.6162 427.642 50.5395 427.28 50.3911 426.946C50.2427 426.612 50.0258 426.313 49.7546 426.068L48.3666 424.808C47.9682 424.447 47.6912 423.971 47.5734 423.446C47.4555 422.922 47.5026 422.373 47.7082 421.876C47.9138 421.379 48.2678 420.958 48.7219 420.67C49.176 420.382 49.708 420.241 50.2452 420.267L52.1119 420.361C52.4775 420.381 52.8431 420.323 53.1849 420.191C53.5267 420.06 53.8371 419.858 54.0959 419.599C54.3547 419.34 54.5561 419.03 54.687 418.688C54.8179 418.346 54.8755 417.98 54.8559 417.615L54.7666 415.747C54.7414 415.21 54.8825 414.678 55.1706 414.224C55.4588 413.77 55.8799 413.417 56.3766 413.211C56.8733 413.005 57.4213 412.958 57.9459 413.075C58.4705 413.193 58.9462 413.469 59.3079 413.867L60.5612 415.251Z" stroke="#65BF73" stroke-width="1.5" stroke-linecap="round" stroke-linejoin="round"/>
<path d="M62.5 434.001C65.8137 434.001 68.5 431.315 68.5 428.001C68.5 424.688 65.8137 422.001 62.5 422.001C59.1863 422.001 56.5 424.688 56.5 428.001C56.5 431.315 59.1863 434.001 62.5 434.001Z" stroke="#65BF73" stroke-width="1.5" stroke-linecap="round" stroke-linejoin="round"/>
</g>
<rect x="0.5" y="361.5" width="124" height="104" rx="7.5" stroke="#65BF73"/>
</g>
<g filter="url(#filter4_d)">
<rect x="150" y="361" width="125" height="105" rx="8" fill="#E5FDE8"/>
<path d="M170.477 392.68C170.477 393.794 170.289 394.768 169.914 395.602C169.539 396.43 169.008 397.062 168.32 397.5C167.633 397.938 166.831 398.156 165.914 398.156C165.018 398.156 164.224 397.938 163.531 397.5C162.839 397.057 162.299 396.43 161.914 395.617C161.534 394.799 161.339 393.854 161.328 392.781V391.961C161.328 390.867 161.518 389.901 161.898 389.062C162.279 388.224 162.815 387.583 163.508 387.141C164.206 386.693 165.003 386.469 165.898 386.469C166.81 386.469 167.612 386.69 168.305 387.133C169.003 387.57 169.539 388.208 169.914 389.047C170.289 389.88 170.477 390.852 170.477 391.961V392.68ZM168.984 391.945C168.984 390.596 168.714 389.562 168.172 388.844C167.63 388.12 166.872 387.758 165.898 387.758C164.951 387.758 164.203 388.12 163.656 388.844C163.115 389.562 162.836 390.562 162.82 391.844V392.68C162.82 393.987 163.094 395.016 163.641 395.766C164.193 396.51 164.951 396.883 165.914 396.883C166.883 396.883 167.633 396.531 168.164 395.828C168.695 395.12 168.969 394.107 168.984 392.789V391.945ZM173.211 398V390.664H171.875V389.547H173.211V388.68C173.211 387.773 173.453 387.073 173.938 386.578C174.422 386.083 175.107 385.836 175.992 385.836C176.326 385.836 176.656 385.88 176.984 385.969L176.906 387.141C176.661 387.094 176.401 387.07 176.125 387.07C175.656 387.07 175.294 387.208 175.039 387.484C174.784 387.755 174.656 388.146 174.656 388.656V389.547H177.781V388.625C177.786 387.724 178.039 387.034 178.539 386.555C179.039 386.076 179.75 385.836 180.672 385.836C181.198 385.836 182.24 385.995 183.797 386.312V398H182.352V387.227C181.706 387.122 181.185 387.07 180.789 387.07C179.747 387.07 179.227 387.617 179.227 388.711V389.547H181.031V390.664H179.227V398H177.781V390.664H174.656V398H173.211ZM187.727 398H186.281V389.547H187.727V398ZM186.164 387.305C186.164 387.07 186.234 386.872 186.375 386.711C186.521 386.549 186.734 386.469 187.016 386.469C187.297 386.469 187.51 386.549 187.656 386.711C187.802 386.872 187.875 387.07 187.875 387.305C187.875 387.539 187.802 387.734 187.656 387.891C187.51 388.047 187.297 388.125 187.016 388.125C186.734 388.125 186.521 388.047 186.375 387.891C186.234 387.734 186.164 387.539 186.164 387.305ZM191.414 389.547L191.461 390.609C192.107 389.797 192.951 389.391 193.992 389.391C195.779 389.391 196.68 390.398 196.695 392.414V398H195.25V392.406C195.245 391.797 195.104 391.346 194.828 391.055C194.557 390.763 194.133 390.617 193.555 390.617C193.086 390.617 192.674 390.742 192.32 390.992C191.966 391.242 191.69 391.57 191.492 391.977V398H190.047V389.547H191.414ZM202.383 398.156C201.237 398.156 200.305 397.781 199.586 397.031C198.867 396.276 198.508 395.268 198.508 394.008V393.742C198.508 392.904 198.667 392.156 198.984 391.5C199.307 390.839 199.755 390.323 200.328 389.953C200.906 389.578 201.531 389.391 202.203 389.391C203.302 389.391 204.156 389.753 204.766 390.477C205.375 391.201 205.68 392.237 205.68 393.586V394.188H199.953C199.974 395.021 200.216 395.695 200.68 396.211C201.148 396.721 201.742 396.977 202.461 396.977C202.971 396.977 203.404 396.872 203.758 396.664C204.112 396.456 204.422 396.18 204.688 395.836L205.57 396.523C204.862 397.612 203.799 398.156 202.383 398.156ZM202.203 390.578C201.62 390.578 201.13 390.792 200.734 391.219C200.339 391.641 200.094 392.234 200 393H204.234V392.891C204.193 392.156 203.995 391.589 203.641 391.188C203.286 390.781 202.807 390.578 202.203 390.578ZM220.242 392.68C220.242 393.779 220.068 394.727 219.719 395.523C219.37 396.315 218.88 396.935 218.25 397.383L220.281 398.977L219.258 399.922L216.859 398.016C216.484 398.109 216.089 398.156 215.672 398.156C214.776 398.156 213.982 397.938 213.289 397.5C212.596 397.057 212.057 396.43 211.672 395.617C211.292 394.799 211.096 393.854 211.086 392.781V391.961C211.086 390.867 211.276 389.901 211.656 389.062C212.036 388.224 212.573 387.583 213.266 387.141C213.964 386.693 214.76 386.469 215.656 386.469C216.573 386.469 217.378 386.69 218.07 387.133C218.768 387.576 219.305 388.214 219.68 389.047C220.055 389.875 220.242 390.844 220.242 391.953V392.68ZM218.742 391.945C218.742 390.607 218.474 389.576 217.938 388.852C217.406 388.122 216.646 387.758 215.656 387.758C214.714 387.758 213.969 388.12 213.422 388.844C212.88 389.562 212.602 390.562 212.586 391.844V392.68C212.586 393.982 212.857 395.008 213.398 395.758C213.945 396.508 214.703 396.883 215.672 396.883C216.641 396.883 217.391 396.531 217.922 395.828C218.453 395.12 218.727 394.107 218.742 392.789V391.945ZM227.547 397.164C226.984 397.826 226.159 398.156 225.07 398.156C224.169 398.156 223.482 397.896 223.008 397.375C222.539 396.849 222.302 396.073 222.297 395.047V389.547H223.742V395.008C223.742 396.289 224.263 396.93 225.305 396.93C226.409 396.93 227.143 396.518 227.508 395.695V389.547H228.953V398H227.578L227.547 397.164ZM234.664 398.156C233.518 398.156 232.586 397.781 231.867 397.031C231.148 396.276 230.789 395.268 230.789 394.008V393.742C230.789 392.904 230.948 392.156 231.266 391.5C231.589 390.839 232.036 390.323 232.609 389.953C233.188 389.578 233.812 389.391 234.484 389.391C235.583 389.391 236.438 389.753 237.047 390.477C237.656 391.201 237.961 392.237 237.961 393.586V394.188H232.234C232.255 395.021 232.497 395.695 232.961 396.211C233.43 396.721 234.023 396.977 234.742 396.977C235.253 396.977 235.685 396.872 236.039 396.664C236.393 396.456 236.703 396.18 236.969 395.836L237.852 396.523C237.143 397.612 236.081 398.156 234.664 398.156ZM234.484 390.578C233.901 390.578 233.411 390.792 233.016 391.219C232.62 391.641 232.375 392.234 232.281 393H236.516V392.891C236.474 392.156 236.276 391.589 235.922 391.188C235.568 390.781 235.089 390.578 234.484 390.578ZM243.727 390.844C243.508 390.807 243.271 390.789 243.016 390.789C242.068 390.789 241.424 391.193 241.086 392V398H239.641V389.547H241.047L241.07 390.523C241.544 389.768 242.216 389.391 243.086 389.391C243.367 389.391 243.581 389.427 243.727 389.5V390.844ZM246.633 398H245.188V389.547H246.633V398ZM245.07 387.305C245.07 387.07 245.141 386.872 245.281 386.711C245.427 386.549 245.641 386.469 245.922 386.469C246.203 386.469 246.417 386.549 246.562 386.711C246.708 386.872 246.781 387.07 246.781 387.305C246.781 387.539 246.708 387.734 246.562 387.891C246.417 388.047 246.203 388.125 245.922 388.125C245.641 388.125 245.427 388.047 245.281 387.891C245.141 387.734 245.07 387.539 245.07 387.305ZM252.461 398.156C251.315 398.156 250.383 397.781 249.664 397.031C248.945 396.276 248.586 395.268 248.586 394.008V393.742C248.586 392.904 248.745 392.156 249.062 391.5C249.385 390.839 249.833 390.323 250.406 389.953C250.984 389.578 251.609 389.391 252.281 389.391C253.38 389.391 254.234 389.753 254.844 390.477C255.453 391.201 255.758 392.237 255.758 393.586V394.188H250.031C250.052 395.021 250.294 395.695 250.758 396.211C251.227 396.721 251.82 396.977 252.539 396.977C253.049 396.977 253.482 396.872 253.836 396.664C254.19 396.456 254.5 396.18 254.766 395.836L255.648 396.523C254.94 397.612 253.878 398.156 252.461 398.156ZM252.281 390.578C251.698 390.578 251.208 390.792 250.812 391.219C250.417 391.641 250.172 392.234 250.078 393H254.312V392.891C254.271 392.156 254.073 391.589 253.719 391.188C253.365 390.781 252.885 390.578 252.281 390.578ZM262.359 395.758C262.359 395.367 262.211 395.065 261.914 394.852C261.622 394.633 261.109 394.445 260.375 394.289C259.646 394.133 259.065 393.945 258.633 393.727C258.206 393.508 257.888 393.247 257.68 392.945C257.477 392.643 257.375 392.284 257.375 391.867C257.375 391.174 257.667 390.589 258.25 390.109C258.839 389.63 259.589 389.391 260.5 389.391C261.458 389.391 262.234 389.638 262.828 390.133C263.427 390.628 263.727 391.26 263.727 392.031H262.273C262.273 391.635 262.104 391.294 261.766 391.008C261.432 390.721 261.01 390.578 260.5 390.578C259.974 390.578 259.562 390.693 259.266 390.922C258.969 391.151 258.82 391.451 258.82 391.82C258.82 392.169 258.958 392.432 259.234 392.609C259.51 392.786 260.008 392.956 260.727 393.117C261.451 393.279 262.036 393.471 262.484 393.695C262.932 393.919 263.263 394.19 263.477 394.508C263.695 394.82 263.805 395.203 263.805 395.656C263.805 396.411 263.503 397.018 262.898 397.477C262.294 397.93 261.51 398.156 260.547 398.156C259.87 398.156 259.271 398.036 258.75 397.797C258.229 397.557 257.82 397.224 257.523 396.797C257.232 396.365 257.086 395.898 257.086 395.398H258.531C258.557 395.883 258.75 396.268 259.109 396.555C259.474 396.836 259.953 396.977 260.547 396.977C261.094 396.977 261.531 396.867 261.859 396.648C262.193 396.424 262.359 396.128 262.359 395.758Z" fill="#65BF73"/>
<path d="M208.5 433C206.378 433 204.343 432.157 202.843 430.657C201.343 429.157 200.5 427.122 200.5 425V421C200.5 420.47 200.711 419.961 201.086 419.586C201.461 419.211 201.97 419 202.5 419H214.5C215.03 419 215.539 419.211 215.914 419.586C216.289 419.961 216.5 420.47 216.5 421V425C216.5 427.122 215.657 429.157 214.157 430.657C212.657 432.157 210.622 433 208.5 433Z" stroke="#65BF73" stroke-width="1.5" stroke-linecap="round" stroke-linejoin="round"/>
<path d="M204.5 419V413" stroke="#65BF73" stroke-width="1.5" stroke-linecap="round" stroke-linejoin="round"/>
<path d="M212.5 419V413" stroke="#65BF73" stroke-width="1.5" stroke-linecap="round" stroke-linejoin="round"/>
<path d="M208.5 433V437C208.5 438.061 208.921 439.078 209.672 439.828C210.422 440.579 211.439 441 212.5 441C213.561 441 214.578 440.579 215.328 439.828C216.079 439.078 216.5 438.061 216.5 437C216.5 435.939 216.921 434.922 217.672 434.172C218.422 433.421 219.439 433 220.5 433V433C221.561 433 222.578 433.421 223.328 434.172C224.079 434.922 224.5 435.939 224.5 437V443" stroke="#65BF73" stroke-width="1.5" stroke-linecap="round" stroke-linejoin="round"/>
<path d="M206.5 423H210.5" stroke="#65BF73" stroke-width="1.5" stroke-linecap="round" stroke-linejoin="round"/>
<rect x="150.5" y="361.5" width="124" height="104" rx="7.5" stroke="#65BF73"/>
</g>
<path d="M137 171V171C137.552 171 138 170.552 138 170V111.5" stroke="#DE1306" stroke-width="2" stroke-linecap="round" stroke-linejoin="round"/>
<path d="M128.987 118.988L138.243 108.988L147.012 118.988" stroke="#DE1306" stroke-width="2" stroke-linecap="round" stroke-linejoin="round"/>
<defs>
<filter id="filter0_d" x="0" y="171" width="279" height="128" filterUnits="userSpaceOnUse" color-interpolation-filters="sRGB">
<feFlood flood-opacity="0" result="BackgroundImageFix"/>
<feColorMatrix in="SourceAlpha" type="matrix" values="0 0 0 0 0 0 0 0 0 0 0 0 0 0 0 0 0 0 127 0"/>
<feOffset dx="4" dy="4"/>
<feColorMatrix type="matrix" values="0 0 0 0 0.952941 0 0 0 0 0.639216 0 0 0 0 0.619608 0 0 0 1 0"/>
<feBlend mode="normal" in2="BackgroundImageFix" result="effect1_dropShadow"/>
<feBlend mode="normal" in="SourceGraphic" in2="effect1_dropShadow" result="shape"/>
</filter>
<filter id="filter1_d" x="0" y="0" width="279" height="109" filterUnits="userSpaceOnUse" color-interpolation-filters="sRGB">
<feFlood flood-opacity="0" result="BackgroundImageFix"/>
<feColorMatrix in="SourceAlpha" type="matrix" values="0 0 0 0 0 0 0 0 0 0 0 0 0 0 0 0 0 0 127 0"/>
<feOffset dx="4" dy="4"/>
<feColorMatrix type="matrix" values="0 0 0 0 0.674908 0 0 0 0 0.662083 0 0 0 0 0.945833 0 0 0 1 0"/>
<feBlend mode="normal" in2="BackgroundImageFix" result="effect1_dropShadow"/>
<feBlend mode="normal" in="SourceGraphic" in2="effect1_dropShadow" result="shape"/>
</filter>
<filter id="filter2_d" x="0" y="532" width="279" height="109" filterUnits="userSpaceOnUse" color-interpolation-filters="sRGB">
<feFlood flood-opacity="0" result="BackgroundImageFix"/>
<feColorMatrix in="SourceAlpha" type="matrix" values="0 0 0 0 0 0 0 0 0 0 0 0 0 0 0 0 0 0 127 0"/>
<feOffset dx="4" dy="4"/>
<feColorMatrix type="matrix" values="0 0 0 0 0.513733 0 0 0 0 0.767915 0 0 0 0 0.970833 0 0 0 1 0"/>
<feBlend mode="normal" in2="BackgroundImageFix" result="effect1_dropShadow"/>
<feBlend mode="normal" in="SourceGraphic" in2="effect1_dropShadow" result="shape"/>
</filter>
<filter id="filter3_d" x="0" y="361" width="129" height="109" filterUnits="userSpaceOnUse" color-interpolation-filters="sRGB">
<feFlood flood-opacity="0" result="BackgroundImageFix"/>
<feColorMatrix in="SourceAlpha" type="matrix" values="0 0 0 0 0 0 0 0 0 0 0 0 0 0 0 0 0 0 127 0"/>
<feOffset dx="4" dy="4"/>
<feColorMatrix type="matrix" values="0 0 0 0 0.578021 0 0 0 0 0.775 0 0 0 0 0.608662 0 0 0 1 0"/>
<feBlend mode="normal" in2="BackgroundImageFix" result="effect1_dropShadow"/>
<feBlend mode="normal" in="SourceGraphic" in2="effect1_dropShadow" result="shape"/>
</filter>
<filter id="filter4_d" x="150" y="361" width="129" height="109" filterUnits="userSpaceOnUse" color-interpolation-filters="sRGB">
<feFlood flood-opacity="0" result="BackgroundImageFix"/>
<feColorMatrix in="SourceAlpha" type="matrix" values="0 0 0 0 0 0 0 0 0 0 0 0 0 0 0 0 0 0 127 0"/>
<feOffset dx="4" dy="4"/>
<feColorMatrix type="matrix" values="0 0 0 0 0.578021 0 0 0 0 0.775 0 0 0 0 0.608662 0 0 0 1 0"/>
<feBlend mode="normal" in2="BackgroundImageFix" result="effect1_dropShadow"/>
<feBlend mode="normal" in="SourceGraphic" in2="effect1_dropShadow" result="shape"/>
</filter>
<clipPath id="clip0">
<rect width="32" height="32" fill="white" transform="translate(121.5 241)"/>
</clipPath>
<clipPath id="clip1">
<rect width="32" height="32" fill="white" transform="translate(121.5 51)"/>
</clipPath>
<clipPath id="clip2">
<rect width="32" height="32" fill="white" transform="translate(121.5 583)"/>
</clipPath>
<clipPath id="clip3">
<rect width="32" height="32" fill="white" transform="translate(46.5 412)"/>
</clipPath>
</defs>
</svg>
