<svg width="997" height="147" viewBox="0 0 997 147" fill="none" xmlns="http://www.w3.org/2000/svg">
<g filter="url(#filter0_d)">
<rect x="768" width="225" height="143" rx="8" fill="#FEEBEA"/>
<path d="M813.445 34.0312H808.68L807.609 37H806.062L810.406 25.625H811.719L816.07 37H814.531L813.445 34.0312ZM809.133 32.7969H813L811.062 27.4766L809.133 32.7969ZM818.742 28.5469L818.789 29.6094C819.435 28.7969 820.279 28.3906 821.32 28.3906C823.107 28.3906 824.008 29.3984 824.023 31.4141V37H822.578V31.4062C822.573 30.7969 822.432 30.3464 822.156 30.0547C821.885 29.763 821.461 29.6172 820.883 29.6172C820.414 29.6172 820.003 29.7422 819.648 29.9922C819.294 30.2422 819.018 30.5703 818.82 30.9766V37H817.375V28.5469H818.742ZM831.422 37C831.339 36.8333 831.271 36.5365 831.219 36.1094C830.547 36.8073 829.745 37.1562 828.812 37.1562C827.979 37.1562 827.294 36.9219 826.758 36.4531C826.227 35.9792 825.961 35.3802 825.961 34.6562C825.961 33.776 826.294 33.0938 826.961 32.6094C827.633 32.1198 828.576 31.875 829.789 31.875H831.195V31.2109C831.195 30.7057 831.044 30.3047 830.742 30.0078C830.44 29.7057 829.995 29.5547 829.406 29.5547C828.891 29.5547 828.458 29.6849 828.109 29.9453C827.76 30.2057 827.586 30.5208 827.586 30.8906H826.133C826.133 30.4688 826.281 30.0625 826.578 29.6719C826.88 29.276 827.286 28.9635 827.797 28.7344C828.312 28.5052 828.878 28.3906 829.492 28.3906C830.466 28.3906 831.229 28.6354 831.781 29.125C832.333 29.6094 832.62 30.2786 832.641 31.1328V35.0234C832.641 35.7995 832.74 36.4167 832.938 36.875V37H831.422ZM829.023 35.8984C829.477 35.8984 829.906 35.7812 830.312 35.5469C830.719 35.3125 831.013 35.0078 831.195 34.6328V32.8984H830.062C828.292 32.8984 827.406 33.4167 827.406 34.4531C827.406 34.9062 827.557 35.2604 827.859 35.5156C828.161 35.7708 828.549 35.8984 829.023 35.8984ZM836.477 37H835.031V25H836.477V37ZM841.562 34.8828L843.531 28.5469H845.078L841.68 38.3047C841.154 39.7109 840.318 40.4141 839.172 40.4141L838.898 40.3906L838.359 40.2891V39.1172L838.75 39.1484C839.24 39.1484 839.62 39.0495 839.891 38.8516C840.167 38.6536 840.393 38.2917 840.57 37.7656L840.891 36.9062L837.875 28.5469H839.453L841.562 34.8828ZM848.336 26.5V28.5469H849.914V29.6641H848.336V34.9062C848.336 35.2448 848.406 35.5 848.547 35.6719C848.688 35.8385 848.927 35.9219 849.266 35.9219C849.432 35.9219 849.661 35.8906 849.953 35.8281V37C849.573 37.1042 849.203 37.1562 848.844 37.1562C848.198 37.1562 847.711 36.9609 847.383 36.5703C847.055 36.1797 846.891 35.625 846.891 34.9062V29.6641H845.352V28.5469H846.891V26.5H848.336ZM853.18 37H851.734V28.5469H853.18V37ZM851.617 26.3047C851.617 26.0703 851.688 25.8724 851.828 25.7109C851.974 25.5495 852.188 25.4688 852.469 25.4688C852.75 25.4688 852.964 25.5495 853.109 25.7109C853.255 25.8724 853.328 26.0703 853.328 26.3047C853.328 26.5391 853.255 26.7344 853.109 26.8906C852.964 27.0469 852.75 27.125 852.469 27.125C852.188 27.125 851.974 27.0469 851.828 26.8906C851.688 26.7344 851.617 26.5391 851.617 26.3047ZM858.891 35.9766C859.406 35.9766 859.857 35.8203 860.242 35.5078C860.628 35.1953 860.841 34.8047 860.883 34.3359H862.25C862.224 34.8203 862.057 35.2812 861.75 35.7188C861.443 36.1562 861.031 36.5052 860.516 36.7656C860.005 37.026 859.464 37.1562 858.891 37.1562C857.74 37.1562 856.823 36.7734 856.141 36.0078C855.464 35.237 855.125 34.1849 855.125 32.8516V32.6094C855.125 31.7865 855.276 31.0547 855.578 30.4141C855.88 29.7734 856.312 29.276 856.875 28.9219C857.443 28.5677 858.112 28.3906 858.883 28.3906C859.831 28.3906 860.617 28.6745 861.242 29.2422C861.872 29.8099 862.208 30.5469 862.25 31.4531H860.883C860.841 30.9062 860.633 30.4583 860.258 30.1094C859.888 29.7552 859.43 29.5781 858.883 29.5781C858.148 29.5781 857.578 29.8438 857.172 30.375C856.771 30.901 856.57 31.6641 856.57 32.6641V32.9375C856.57 33.9115 856.771 34.6615 857.172 35.1875C857.573 35.7135 858.146 35.9766 858.891 35.9766ZM868.797 34.7578C868.797 34.3672 868.648 34.0651 868.352 33.8516C868.06 33.6328 867.547 33.4453 866.812 33.2891C866.083 33.1328 865.503 32.9453 865.07 32.7266C864.643 32.5078 864.326 32.2474 864.117 31.9453C863.914 31.6432 863.812 31.2839 863.812 30.8672C863.812 30.1745 864.104 29.5885 864.688 29.1094C865.276 28.6302 866.026 28.3906 866.938 28.3906C867.896 28.3906 868.672 28.638 869.266 29.1328C869.865 29.6276 870.164 30.2604 870.164 31.0312H868.711C868.711 30.6354 868.542 30.2943 868.203 30.0078C867.87 29.7214 867.448 29.5781 866.938 29.5781C866.411 29.5781 866 29.6927 865.703 29.9219C865.406 30.151 865.258 30.4505 865.258 30.8203C865.258 31.1693 865.396 31.4323 865.672 31.6094C865.948 31.7865 866.445 31.9557 867.164 32.1172C867.888 32.2786 868.474 32.4714 868.922 32.6953C869.37 32.9193 869.701 33.1901 869.914 33.5078C870.133 33.8203 870.242 34.2031 870.242 34.6562C870.242 35.4115 869.94 36.0182 869.336 36.4766C868.732 36.9297 867.948 37.1562 866.984 37.1562C866.307 37.1562 865.708 37.0365 865.188 36.7969C864.667 36.5573 864.258 36.224 863.961 35.7969C863.669 35.3646 863.523 34.8984 863.523 34.3984H864.969C864.995 34.8828 865.188 35.2682 865.547 35.5547C865.911 35.8359 866.391 35.9766 866.984 35.9766C867.531 35.9766 867.969 35.8672 868.297 35.6484C868.63 35.4245 868.797 35.1276 868.797 34.7578ZM875.789 33.9453C875.789 33.3984 875.94 32.8958 876.242 32.4375C876.549 31.9792 877.133 31.4453 877.992 30.8359C877.487 30.2214 877.148 29.7266 876.977 29.3516C876.805 28.9766 876.719 28.6042 876.719 28.2344C876.719 27.3698 876.974 26.6927 877.484 26.2031C877.995 25.7135 878.688 25.4688 879.562 25.4688C880.344 25.4688 880.99 25.6979 881.5 26.1562C882.01 26.6094 882.266 27.1823 882.266 27.875C882.266 28.3333 882.148 28.7578 881.914 29.1484C881.685 29.5339 881.281 29.9401 880.703 30.3672L879.867 30.9844L882.398 34.0078C882.753 33.3307 882.93 32.5781 882.93 31.75H884.234C884.234 33.0781 883.914 34.1797 883.273 35.0547L884.898 37H883.164L882.406 36.1016C882.021 36.4453 881.568 36.7083 881.047 36.8906C880.531 37.0677 880.005 37.1562 879.469 37.1562C878.359 37.1562 877.469 36.862 876.797 36.2734C876.125 35.6849 875.789 34.9089 875.789 33.9453ZM879.469 35.9766C880.234 35.9766 880.935 35.6849 881.57 35.1016L878.797 31.7812L878.539 31.9688C877.669 32.6094 877.234 33.2682 877.234 33.9453C877.234 34.5599 877.432 35.0521 877.828 35.4219C878.229 35.7917 878.776 35.9766 879.469 35.9766ZM878.164 28.1875C878.164 28.6875 878.471 29.3125 879.086 30.0625L880.008 29.4141C880.362 29.1641 880.604 28.9271 880.734 28.7031C880.865 28.474 880.93 28.1979 880.93 27.875C880.93 27.526 880.799 27.237 880.539 27.0078C880.279 26.7734 879.951 26.6562 879.555 26.6562C879.128 26.6562 878.789 26.8021 878.539 27.0938C878.289 27.3802 878.164 27.7448 878.164 28.1875ZM894.414 32.3984H891.742V37H890.234V25.625H894C895.281 25.625 896.266 25.9167 896.953 26.5C897.646 27.0833 897.992 27.9323 897.992 29.0469C897.992 29.7552 897.799 30.3724 897.414 30.8984C897.034 31.4245 896.503 31.8177 895.82 32.0781L898.492 36.9062V37H896.883L894.414 32.3984ZM891.742 31.1719H894.047C894.792 31.1719 895.383 30.9792 895.82 30.5938C896.263 30.2083 896.484 29.6927 896.484 29.0469C896.484 28.3438 896.273 27.8047 895.852 27.4297C895.435 27.0547 894.831 26.8646 894.039 26.8594H891.742V31.1719ZM903.383 37.1562C902.237 37.1562 901.305 36.7812 900.586 36.0312C899.867 35.276 899.508 34.2682 899.508 33.0078V32.7422C899.508 31.9036 899.667 31.1562 899.984 30.5C900.307 29.8385 900.755 29.3229 901.328 28.9531C901.906 28.5781 902.531 28.3906 903.203 28.3906C904.302 28.3906 905.156 28.7526 905.766 29.4766C906.375 30.2005 906.68 31.237 906.68 32.5859V33.1875H900.953C900.974 34.0208 901.216 34.6953 901.68 35.2109C902.148 35.7214 902.742 35.9766 903.461 35.9766C903.971 35.9766 904.404 35.8724 904.758 35.6641C905.112 35.4557 905.422 35.1797 905.688 34.8359L906.57 35.5234C905.862 36.612 904.799 37.1562 903.383 37.1562ZM903.203 29.5781C902.62 29.5781 902.13 29.7917 901.734 30.2188C901.339 30.6406 901.094 31.2344 901 32H905.234V31.8906C905.193 31.1562 904.995 30.5885 904.641 30.1875C904.286 29.7812 903.807 29.5781 903.203 29.5781ZM913.281 34.7578C913.281 34.3672 913.133 34.0651 912.836 33.8516C912.544 33.6328 912.031 33.4453 911.297 33.2891C910.568 33.1328 909.987 32.9453 909.555 32.7266C909.128 32.5078 908.81 32.2474 908.602 31.9453C908.398 31.6432 908.297 31.2839 908.297 30.8672C908.297 30.1745 908.589 29.5885 909.172 29.1094C909.76 28.6302 910.51 28.3906 911.422 28.3906C912.38 28.3906 913.156 28.638 913.75 29.1328C914.349 29.6276 914.648 30.2604 914.648 31.0312H913.195C913.195 30.6354 913.026 30.2943 912.688 30.0078C912.354 29.7214 911.932 29.5781 911.422 29.5781C910.896 29.5781 910.484 29.6927 910.188 29.9219C909.891 30.151 909.742 30.4505 909.742 30.8203C909.742 31.1693 909.88 31.4323 910.156 31.6094C910.432 31.7865 910.93 31.9557 911.648 32.1172C912.372 32.2786 912.958 32.4714 913.406 32.6953C913.854 32.9193 914.185 33.1901 914.398 33.5078C914.617 33.8203 914.727 34.2031 914.727 34.6562C914.727 35.4115 914.424 36.0182 913.82 36.4766C913.216 36.9297 912.432 37.1562 911.469 37.1562C910.792 37.1562 910.193 37.0365 909.672 36.7969C909.151 36.5573 908.742 36.224 908.445 35.7969C908.154 35.3646 908.008 34.8984 908.008 34.3984H909.453C909.479 34.8828 909.672 35.2682 910.031 35.5547C910.396 35.8359 910.875 35.9766 911.469 35.9766C912.016 35.9766 912.453 35.8672 912.781 35.6484C913.115 35.4245 913.281 35.1276 913.281 34.7578ZM920.117 37.1562C918.971 37.1562 918.039 36.7812 917.32 36.0312C916.602 35.276 916.242 34.2682 916.242 33.0078V32.7422C916.242 31.9036 916.401 31.1562 916.719 30.5C917.042 29.8385 917.49 29.3229 918.062 28.9531C918.641 28.5781 919.266 28.3906 919.938 28.3906C921.036 28.3906 921.891 28.7526 922.5 29.4766C923.109 30.2005 923.414 31.237 923.414 32.5859V33.1875H917.688C917.708 34.0208 917.951 34.6953 918.414 35.2109C918.883 35.7214 919.477 35.9766 920.195 35.9766C920.706 35.9766 921.138 35.8724 921.492 35.6641C921.846 35.4557 922.156 35.1797 922.422 34.8359L923.305 35.5234C922.596 36.612 921.534 37.1562 920.117 37.1562ZM919.938 29.5781C919.354 29.5781 918.865 29.7917 918.469 30.2188C918.073 30.6406 917.828 31.2344 917.734 32H921.969V31.8906C921.927 31.1562 921.729 30.5885 921.375 30.1875C921.021 29.7812 920.542 29.5781 919.938 29.5781ZM930.312 37C930.229 36.8333 930.161 36.5365 930.109 36.1094C929.438 36.8073 928.635 37.1562 927.703 37.1562C926.87 37.1562 926.185 36.9219 925.648 36.4531C925.117 35.9792 924.852 35.3802 924.852 34.6562C924.852 33.776 925.185 33.0938 925.852 32.6094C926.523 32.1198 927.466 31.875 928.68 31.875H930.086V31.2109C930.086 30.7057 929.935 30.3047 929.633 30.0078C929.331 29.7057 928.885 29.5547 928.297 29.5547C927.781 29.5547 927.349 29.6849 927 29.9453C926.651 30.2057 926.477 30.5208 926.477 30.8906H925.023C925.023 30.4688 925.172 30.0625 925.469 29.6719C925.771 29.276 926.177 28.9635 926.688 28.7344C927.203 28.5052 927.768 28.3906 928.383 28.3906C929.357 28.3906 930.12 28.6354 930.672 29.125C931.224 29.6094 931.51 30.2786 931.531 31.1328V35.0234C931.531 35.7995 931.63 36.4167 931.828 36.875V37H930.312ZM927.914 35.8984C928.367 35.8984 928.797 35.7812 929.203 35.5469C929.609 35.3125 929.904 35.0078 930.086 34.6328V32.8984H928.953C927.182 32.8984 926.297 33.4167 926.297 34.4531C926.297 34.9062 926.448 35.2604 926.75 35.5156C927.052 35.7708 927.44 35.8984 927.914 35.8984ZM937.883 29.8438C937.664 29.8073 937.427 29.7891 937.172 29.7891C936.224 29.7891 935.581 30.1927 935.242 31V37H933.797V28.5469H935.203L935.227 29.5234C935.701 28.7682 936.372 28.3906 937.242 28.3906C937.523 28.3906 937.737 28.4271 937.883 28.5V29.8438ZM942.453 35.9766C942.969 35.9766 943.419 35.8203 943.805 35.5078C944.19 35.1953 944.404 34.8047 944.445 34.3359H945.812C945.786 34.8203 945.62 35.2812 945.312 35.7188C945.005 36.1562 944.594 36.5052 944.078 36.7656C943.568 37.026 943.026 37.1562 942.453 37.1562C941.302 37.1562 940.385 36.7734 939.703 36.0078C939.026 35.237 938.688 34.1849 938.688 32.8516V32.6094C938.688 31.7865 938.839 31.0547 939.141 30.4141C939.443 29.7734 939.875 29.276 940.438 28.9219C941.005 28.5677 941.674 28.3906 942.445 28.3906C943.393 28.3906 944.18 28.6745 944.805 29.2422C945.435 29.8099 945.771 30.5469 945.812 31.4531H944.445C944.404 30.9062 944.195 30.4583 943.82 30.1094C943.451 29.7552 942.992 29.5781 942.445 29.5781C941.711 29.5781 941.141 29.8438 940.734 30.375C940.333 30.901 940.133 31.6641 940.133 32.6641V32.9375C940.133 33.9115 940.333 34.6615 940.734 35.1875C941.135 35.7135 941.708 35.9766 942.453 35.9766ZM948.883 29.5703C949.523 28.7839 950.357 28.3906 951.383 28.3906C953.169 28.3906 954.07 29.3984 954.086 31.4141V37H952.641V31.4062C952.635 30.7969 952.495 30.3464 952.219 30.0547C951.948 29.763 951.523 29.6172 950.945 29.6172C950.477 29.6172 950.065 29.7422 949.711 29.9922C949.357 30.2422 949.081 30.5703 948.883 30.9766V37H947.438V25H948.883V29.5703Z" fill="#DE1306"/>
<g clip-path="url(#clip0)">
<path d="M865.5 80H895.5" stroke="#DE1306" stroke-width="2" stroke-linecap="round" stroke-linejoin="round"/>
<path d="M872.5 66H868.5C868.235 66 867.98 66.1054 867.793 66.2929C867.605 66.4804 867.5 66.7348 867.5 67V80H873.5V67C873.5 66.7348 873.395 66.4804 873.207 66.2929C873.02 66.1054 872.765 66 872.5 66Z" stroke="#DE1306" stroke-width="2" stroke-linecap="round" stroke-linejoin="round"/>
<path d="M882.5 54H878.5C878.235 54 877.98 54.1054 877.793 54.2929C877.605 54.4804 877.5 54.7348 877.5 55V80H883.5V55C883.5 54.7348 883.395 54.4804 883.207 54.2929C883.02 54.1054 882.765 54 882.5 54Z" stroke="#DE1306" stroke-width="2" stroke-linecap="round" stroke-linejoin="round"/>
<path d="M892.5 60H888.5C888.235 60 887.98 60.1054 887.793 60.2929C887.605 60.4804 887.5 60.7348 887.5 61V80H893.5V61C893.5 60.7348 893.395 60.4804 893.207 60.2929C893.02 60.1054 892.765 60 892.5 60Z" stroke="#DE1306" stroke-width="2" stroke-linecap="round" stroke-linejoin="round"/>
</g>
<rect x="768.5" y="0.5" width="224" height="142" rx="7.5" stroke="#DE1306"/>
</g>
<g filter="url(#filter1_d)">
<rect x="256" width="225" height="143" rx="8" fill="#FFECEA"/>
<path d="M305.695 31.9297C304.409 31.5599 303.471 31.1068 302.883 30.5703C302.299 30.0286 302.008 29.362 302.008 28.5703C302.008 27.6745 302.365 26.9349 303.078 26.3516C303.797 25.763 304.729 25.4688 305.875 25.4688C306.656 25.4688 307.352 25.6198 307.961 25.9219C308.576 26.224 309.049 26.6406 309.383 27.1719C309.721 27.7031 309.891 28.2839 309.891 28.9141H308.383C308.383 28.2266 308.164 27.6875 307.727 27.2969C307.289 26.901 306.672 26.7031 305.875 26.7031C305.135 26.7031 304.557 26.8672 304.141 27.1953C303.729 27.5182 303.523 27.9688 303.523 28.5469C303.523 29.0104 303.719 29.4036 304.109 29.7266C304.505 30.0443 305.174 30.3359 306.117 30.6016C307.065 30.8672 307.805 31.1615 308.336 31.4844C308.872 31.8021 309.268 32.1745 309.523 32.6016C309.784 33.0286 309.914 33.5312 309.914 34.1094C309.914 35.0312 309.555 35.7708 308.836 36.3281C308.117 36.8802 307.156 37.1562 305.953 37.1562C305.172 37.1562 304.443 37.0078 303.766 36.7109C303.089 36.4089 302.565 35.9974 302.195 35.4766C301.831 34.9557 301.648 34.3646 301.648 33.7031H303.156C303.156 34.3906 303.409 34.9349 303.914 35.3359C304.424 35.7318 305.104 35.9297 305.953 35.9297C306.745 35.9297 307.352 35.7682 307.773 35.4453C308.195 35.1224 308.406 34.6823 308.406 34.125C308.406 33.5677 308.211 33.138 307.82 32.8359C307.43 32.5286 306.721 32.2266 305.695 31.9297ZM316.836 37C316.753 36.8333 316.685 36.5365 316.633 36.1094C315.961 36.8073 315.159 37.1562 314.227 37.1562C313.393 37.1562 312.708 36.9219 312.172 36.4531C311.641 35.9792 311.375 35.3802 311.375 34.6562C311.375 33.776 311.708 33.0938 312.375 32.6094C313.047 32.1198 313.99 31.875 315.203 31.875H316.609V31.2109C316.609 30.7057 316.458 30.3047 316.156 30.0078C315.854 29.7057 315.409 29.5547 314.82 29.5547C314.305 29.5547 313.872 29.6849 313.523 29.9453C313.174 30.2057 313 30.5208 313 30.8906H311.547C311.547 30.4688 311.695 30.0625 311.992 29.6719C312.294 29.276 312.701 28.9635 313.211 28.7344C313.727 28.5052 314.292 28.3906 314.906 28.3906C315.88 28.3906 316.643 28.6354 317.195 29.125C317.747 29.6094 318.034 30.2786 318.055 31.1328V35.0234C318.055 35.7995 318.154 36.4167 318.352 36.875V37H316.836ZM314.438 35.8984C314.891 35.8984 315.32 35.7812 315.727 35.5469C316.133 35.3125 316.427 35.0078 316.609 34.6328V32.8984H315.477C313.706 32.8984 312.82 33.4167 312.82 34.4531C312.82 34.9062 312.971 35.2604 313.273 35.5156C313.576 35.7708 313.964 35.8984 314.438 35.8984ZM321.688 28.5469L321.734 29.6094C322.38 28.7969 323.224 28.3906 324.266 28.3906C326.052 28.3906 326.953 29.3984 326.969 31.4141V37H325.523V31.4062C325.518 30.7969 325.378 30.3464 325.102 30.0547C324.831 29.763 324.406 29.6172 323.828 29.6172C323.359 29.6172 322.948 29.7422 322.594 29.9922C322.24 30.2422 321.964 30.5703 321.766 30.9766V37H320.32V28.5469H321.688ZM328.797 32.7031C328.797 31.4062 329.104 30.3646 329.719 29.5781C330.333 28.7865 331.138 28.3906 332.133 28.3906C333.122 28.3906 333.906 28.7292 334.484 29.4062V25H335.93V37H334.602L334.531 36.0938C333.953 36.8021 333.148 37.1562 332.117 37.1562C331.138 37.1562 330.339 36.7552 329.719 35.9531C329.104 35.151 328.797 34.1042 328.797 32.8125V32.7031ZM330.242 32.8672C330.242 33.8255 330.44 34.5755 330.836 35.1172C331.232 35.6589 331.779 35.9297 332.477 35.9297C333.393 35.9297 334.062 35.5182 334.484 34.6953V30.8125C334.052 30.0156 333.388 29.6172 332.492 29.6172C331.784 29.6172 331.232 29.8906 330.836 30.4375C330.44 30.9844 330.242 31.7943 330.242 32.8672ZM338.406 37V25.625H342.125C343.359 25.625 344.286 25.8802 344.906 26.3906C345.531 26.901 345.844 27.6562 345.844 28.6562C345.844 29.1875 345.693 29.6589 345.391 30.0703C345.089 30.4766 344.677 30.7917 344.156 31.0156C344.771 31.1875 345.255 31.5156 345.609 32C345.969 32.4792 346.148 33.0521 346.148 33.7188C346.148 34.7396 345.818 35.5417 345.156 36.125C344.495 36.7083 343.56 37 342.352 37H338.406ZM339.906 31.6797V35.7734H342.383C343.081 35.7734 343.63 35.5938 344.031 35.2344C344.438 34.8698 344.641 34.3698 344.641 33.7344C344.641 32.3646 343.896 31.6797 342.406 31.6797H339.906ZM339.906 30.4766H342.172C342.828 30.4766 343.352 30.3125 343.742 29.9844C344.138 29.6562 344.336 29.2109 344.336 28.6484C344.336 28.0234 344.154 27.5703 343.789 27.2891C343.424 27.0026 342.87 26.8594 342.125 26.8594H339.906V30.4766ZM347.766 32.6953C347.766 31.8672 347.927 31.1224 348.25 30.4609C348.578 29.7995 349.031 29.2891 349.609 28.9297C350.193 28.5703 350.857 28.3906 351.602 28.3906C352.753 28.3906 353.682 28.7891 354.391 29.5859C355.104 30.3828 355.461 31.4427 355.461 32.7656V32.8672C355.461 33.6901 355.302 34.4297 354.984 35.0859C354.672 35.737 354.221 36.2448 353.633 36.6094C353.049 36.974 352.378 37.1562 351.617 37.1562C350.471 37.1562 349.542 36.7578 348.828 35.9609C348.12 35.1641 347.766 34.1094 347.766 32.7969V32.6953ZM349.219 32.8672C349.219 33.8047 349.435 34.5573 349.867 35.125C350.305 35.6927 350.888 35.9766 351.617 35.9766C352.352 35.9766 352.935 35.6901 353.367 35.1172C353.799 34.5391 354.016 33.7318 354.016 32.6953C354.016 31.7682 353.794 31.0182 353.352 30.4453C352.914 29.8672 352.331 29.5781 351.602 29.5781C350.888 29.5781 350.312 29.862 349.875 30.4297C349.438 30.9974 349.219 31.8099 349.219 32.8672ZM359.938 31.6328L361.812 28.5469H363.5L360.734 32.7266L363.586 37H361.914L359.961 33.8359L358.008 37H356.328L359.18 32.7266L356.414 28.5469H358.086L359.938 31.6328ZM377.977 37H376.469L370.742 28.2344V37H369.234V25.625H370.742L376.484 34.4297V25.625H377.977V37ZM383.922 37.1562C382.776 37.1562 381.844 36.7812 381.125 36.0312C380.406 35.276 380.047 34.2682 380.047 33.0078V32.7422C380.047 31.9036 380.206 31.1562 380.523 30.5C380.846 29.8385 381.294 29.3229 381.867 28.9531C382.445 28.5781 383.07 28.3906 383.742 28.3906C384.841 28.3906 385.695 28.7526 386.305 29.4766C386.914 30.2005 387.219 31.237 387.219 32.5859V33.1875H381.492C381.513 34.0208 381.755 34.6953 382.219 35.2109C382.688 35.7214 383.281 35.9766 384 35.9766C384.51 35.9766 384.943 35.8724 385.297 35.6641C385.651 35.4557 385.961 35.1797 386.227 34.8359L387.109 35.5234C386.401 36.612 385.339 37.1562 383.922 37.1562ZM383.742 29.5781C383.159 29.5781 382.669 29.7917 382.273 30.2188C381.878 30.6406 381.633 31.2344 381.539 32H385.773V31.8906C385.732 31.1562 385.534 30.5885 385.18 30.1875C384.826 29.7812 384.346 29.5781 383.742 29.5781ZM390.859 26.5V28.5469H392.438V29.6641H390.859V34.9062C390.859 35.2448 390.93 35.5 391.07 35.6719C391.211 35.8385 391.451 35.9219 391.789 35.9219C391.956 35.9219 392.185 35.8906 392.477 35.8281V37C392.096 37.1042 391.727 37.1562 391.367 37.1562C390.721 37.1562 390.234 36.9609 389.906 36.5703C389.578 36.1797 389.414 35.625 389.414 34.9062V29.6641H387.875V28.5469H389.414V26.5H390.859ZM401.617 35.0078L403.242 28.5469H404.688L402.227 37H401.055L399 30.5938L397 37H395.828L393.375 28.5469H394.812L396.477 34.875L398.445 28.5469H399.609L401.617 35.0078ZM405.781 32.6953C405.781 31.8672 405.943 31.1224 406.266 30.4609C406.594 29.7995 407.047 29.2891 407.625 28.9297C408.208 28.5703 408.872 28.3906 409.617 28.3906C410.768 28.3906 411.698 28.7891 412.406 29.5859C413.12 30.3828 413.477 31.4427 413.477 32.7656V32.8672C413.477 33.6901 413.318 34.4297 413 35.0859C412.688 35.737 412.237 36.2448 411.648 36.6094C411.065 36.974 410.393 37.1562 409.633 37.1562C408.487 37.1562 407.557 36.7578 406.844 35.9609C406.135 35.1641 405.781 34.1094 405.781 32.7969V32.6953ZM407.234 32.8672C407.234 33.8047 407.451 34.5573 407.883 35.125C408.32 35.6927 408.904 35.9766 409.633 35.9766C410.367 35.9766 410.951 35.6901 411.383 35.1172C411.815 34.5391 412.031 33.7318 412.031 32.6953C412.031 31.7682 411.81 31.0182 411.367 30.4453C410.93 29.8672 410.346 29.5781 409.617 29.5781C408.904 29.5781 408.328 29.862 407.891 30.4297C407.453 30.9974 407.234 31.8099 407.234 32.8672ZM419.375 29.8438C419.156 29.8073 418.919 29.7891 418.664 29.7891C417.716 29.7891 417.073 30.1927 416.734 31V37H415.289V28.5469H416.695L416.719 29.5234C417.193 28.7682 417.865 28.3906 418.734 28.3906C419.016 28.3906 419.229 28.4271 419.375 28.5V29.8438ZM423.07 33.0859L422.164 34.0312V37H420.719V25H422.164V32.2578L422.938 31.3281L425.57 28.5469H427.328L424.039 32.0781L427.711 37H426.016L423.07 33.0859ZM433.742 34.7578C433.742 34.3672 433.594 34.0651 433.297 33.8516C433.005 33.6328 432.492 33.4453 431.758 33.2891C431.029 33.1328 430.448 32.9453 430.016 32.7266C429.589 32.5078 429.271 32.2474 429.062 31.9453C428.859 31.6432 428.758 31.2839 428.758 30.8672C428.758 30.1745 429.049 29.5885 429.633 29.1094C430.221 28.6302 430.971 28.3906 431.883 28.3906C432.841 28.3906 433.617 28.638 434.211 29.1328C434.81 29.6276 435.109 30.2604 435.109 31.0312H433.656C433.656 30.6354 433.487 30.2943 433.148 30.0078C432.815 29.7214 432.393 29.5781 431.883 29.5781C431.357 29.5781 430.945 29.6927 430.648 29.9219C430.352 30.151 430.203 30.4505 430.203 30.8203C430.203 31.1693 430.341 31.4323 430.617 31.6094C430.893 31.7865 431.391 31.9557 432.109 32.1172C432.833 32.2786 433.419 32.4714 433.867 32.6953C434.315 32.9193 434.646 33.1901 434.859 33.5078C435.078 33.8203 435.188 34.2031 435.188 34.6562C435.188 35.4115 434.885 36.0182 434.281 36.4766C433.677 36.9297 432.893 37.1562 431.93 37.1562C431.253 37.1562 430.654 37.0365 430.133 36.7969C429.612 36.5573 429.203 36.224 428.906 35.7969C428.615 35.3646 428.469 34.8984 428.469 34.3984H429.914C429.94 34.8828 430.133 35.2682 430.492 35.5547C430.857 35.8359 431.336 35.9766 431.93 35.9766C432.477 35.9766 432.914 35.8672 433.242 35.6484C433.576 35.4245 433.742 35.1276 433.742 34.7578Z" fill="#FF5A43"/>
<g clip-path="url(#clip1)">
<path d="M362.868 72.632L377.011 58.4894" stroke="#FF5A43" stroke-width="2" stroke-linecap="round" stroke-linejoin="round"/>
<path d="M366.404 69.0959L361.455 64.1466L355.797 69.7999C354.484 71.1131 353.746 72.8942 353.746 74.7513C353.746 76.6084 354.484 78.3894 355.797 79.7026C357.11 81.0158 358.891 81.7535 360.749 81.7535C362.606 81.7535 364.387 81.0158 365.7 79.7026L371.356 74.0453L369.235 71.9253" stroke="#FF5A43" stroke-width="2" stroke-linecap="round" stroke-linejoin="round"/>
<path d="M382.667 58.4894C382.298 58.8714 381.856 59.1761 381.368 59.3858C380.88 59.5954 380.355 59.7058 379.824 59.7104C379.293 59.715 378.766 59.6138 378.275 59.4127C377.783 59.2115 377.337 58.9145 376.961 58.539C376.586 58.1634 376.289 57.7168 376.087 57.2252C375.886 56.7336 375.785 56.2069 375.79 55.6758C375.794 55.1447 375.905 54.6198 376.114 54.1318C376.324 53.6437 376.629 53.2024 377.011 52.8334C377.386 52.4584 377.894 52.2478 378.425 52.2478C378.955 52.2478 379.464 52.4584 379.839 52.8334L382.667 55.6667C383.04 56.0415 383.25 56.549 383.25 57.078C383.25 57.6071 383.04 58.1145 382.667 58.4894Z" stroke="#FF5A43" stroke-width="2" stroke-linecap="round" stroke-linejoin="round"/>
</g>
<rect x="256.5" y="0.5" width="224" height="142" rx="7.5" stroke="#FF5A43"/>
</g>
<g filter="url(#filter2_d)">
<rect x="512" width="225" height="143" rx="8" fill="#EEEEFF"/>
<path d="M573.82 37V25.625H577.031C578.021 25.625 578.896 25.8438 579.656 26.2812C580.417 26.7188 581.003 27.3411 581.414 28.1484C581.831 28.9557 582.042 29.8828 582.047 30.9297V31.6562C582.047 32.7292 581.839 33.6693 581.422 34.4766C581.01 35.2839 580.419 35.9036 579.648 36.3359C578.883 36.7682 577.99 36.9896 576.969 37H573.82ZM575.32 26.8594V35.7734H576.898C578.055 35.7734 578.953 35.4141 579.594 34.6953C580.24 33.9766 580.562 32.9531 580.562 31.625V30.9609C580.562 29.6693 580.258 28.6667 579.648 27.9531C579.044 27.2344 578.185 26.8698 577.07 26.8594H575.32ZM590.43 34.0312H585.664L584.594 37H583.047L587.391 25.625H588.703L593.055 37H591.516L590.43 34.0312ZM586.117 32.7969H589.984L588.047 27.4766L586.117 32.7969ZM601.5 32.8672C601.5 34.1536 601.206 35.1901 600.617 35.9766C600.029 36.763 599.232 37.1562 598.227 37.1562C597.201 37.1562 596.393 36.8307 595.805 36.1797V40.25H594.359V28.5469H595.68L595.75 29.4844C596.339 28.7552 597.156 28.3906 598.203 28.3906C599.219 28.3906 600.021 28.7734 600.609 29.5391C601.203 30.3047 601.5 31.3698 601.5 32.7344V32.8672ZM600.055 32.7031C600.055 31.75 599.852 30.9974 599.445 30.4453C599.039 29.8932 598.482 29.6172 597.773 29.6172C596.898 29.6172 596.242 30.0052 595.805 30.7812V34.8203C596.237 35.5911 596.898 35.9766 597.789 35.9766C598.482 35.9766 599.031 35.7031 599.438 35.1562C599.849 34.6042 600.055 33.7865 600.055 32.7031ZM610.484 32.8672C610.484 34.1536 610.19 35.1901 609.602 35.9766C609.013 36.763 608.216 37.1562 607.211 37.1562C606.185 37.1562 605.378 36.8307 604.789 36.1797V40.25H603.344V28.5469H604.664L604.734 29.4844C605.323 28.7552 606.141 28.3906 607.188 28.3906C608.203 28.3906 609.005 28.7734 609.594 29.5391C610.188 30.3047 610.484 31.3698 610.484 32.7344V32.8672ZM609.039 32.7031C609.039 31.75 608.836 30.9974 608.43 30.4453C608.023 29.8932 607.466 29.6172 606.758 29.6172C605.883 29.6172 605.227 30.0052 604.789 30.7812V34.8203C605.221 35.5911 605.883 35.9766 606.773 35.9766C607.466 35.9766 608.016 35.7031 608.422 35.1562C608.833 34.6042 609.039 33.7865 609.039 32.7031ZM617.25 34.7578C617.25 34.3672 617.102 34.0651 616.805 33.8516C616.513 33.6328 616 33.4453 615.266 33.2891C614.536 33.1328 613.956 32.9453 613.523 32.7266C613.096 32.5078 612.779 32.2474 612.57 31.9453C612.367 31.6432 612.266 31.2839 612.266 30.8672C612.266 30.1745 612.557 29.5885 613.141 29.1094C613.729 28.6302 614.479 28.3906 615.391 28.3906C616.349 28.3906 617.125 28.638 617.719 29.1328C618.318 29.6276 618.617 30.2604 618.617 31.0312H617.164C617.164 30.6354 616.995 30.2943 616.656 30.0078C616.323 29.7214 615.901 29.5781 615.391 29.5781C614.865 29.5781 614.453 29.6927 614.156 29.9219C613.859 30.151 613.711 30.4505 613.711 30.8203C613.711 31.1693 613.849 31.4323 614.125 31.6094C614.401 31.7865 614.898 31.9557 615.617 32.1172C616.341 32.2786 616.927 32.4714 617.375 32.6953C617.823 32.9193 618.154 33.1901 618.367 33.5078C618.586 33.8203 618.695 34.2031 618.695 34.6562C618.695 35.4115 618.393 36.0182 617.789 36.4766C617.185 36.9297 616.401 37.1562 615.438 37.1562C614.76 37.1562 614.161 37.0365 613.641 36.7969C613.12 36.5573 612.711 36.224 612.414 35.7969C612.122 35.3646 611.977 34.8984 611.977 34.3984H613.422C613.448 34.8828 613.641 35.2682 614 35.5547C614.365 35.8359 614.844 35.9766 615.438 35.9766C615.984 35.9766 616.422 35.8672 616.75 35.6484C617.083 35.4245 617.25 35.1276 617.25 34.7578ZM633.141 33.3906C633 34.5938 632.555 35.5234 631.805 36.1797C631.06 36.8307 630.068 37.1562 628.828 37.1562C627.484 37.1562 626.406 36.6745 625.594 35.7109C624.786 34.7474 624.383 33.4583 624.383 31.8438V30.75C624.383 29.6927 624.57 28.763 624.945 27.9609C625.326 27.1589 625.862 26.5443 626.555 26.1172C627.247 25.6849 628.049 25.4688 628.961 25.4688C630.169 25.4688 631.138 25.8073 631.867 26.4844C632.596 27.1562 633.021 28.0885 633.141 29.2812H631.633C631.503 28.375 631.219 27.7188 630.781 27.3125C630.349 26.9062 629.742 26.7031 628.961 26.7031C628.003 26.7031 627.25 27.0573 626.703 27.7656C626.161 28.474 625.891 29.4818 625.891 30.7891V31.8906C625.891 33.125 626.148 34.1068 626.664 34.8359C627.18 35.5651 627.901 35.9297 628.828 35.9297C629.661 35.9297 630.299 35.7422 630.742 35.3672C631.19 34.987 631.487 34.3281 631.633 33.3906H633.141ZM640.188 37C640.104 36.8333 640.036 36.5365 639.984 36.1094C639.312 36.8073 638.51 37.1562 637.578 37.1562C636.745 37.1562 636.06 36.9219 635.523 36.4531C634.992 35.9792 634.727 35.3802 634.727 34.6562C634.727 33.776 635.06 33.0938 635.727 32.6094C636.398 32.1198 637.341 31.875 638.555 31.875H639.961V31.2109C639.961 30.7057 639.81 30.3047 639.508 30.0078C639.206 29.7057 638.76 29.5547 638.172 29.5547C637.656 29.5547 637.224 29.6849 636.875 29.9453C636.526 30.2057 636.352 30.5208 636.352 30.8906H634.898C634.898 30.4688 635.047 30.0625 635.344 29.6719C635.646 29.276 636.052 28.9635 636.562 28.7344C637.078 28.5052 637.643 28.3906 638.258 28.3906C639.232 28.3906 639.995 28.6354 640.547 29.125C641.099 29.6094 641.385 30.2786 641.406 31.1328V35.0234C641.406 35.7995 641.505 36.4167 641.703 36.875V37H640.188ZM637.789 35.8984C638.242 35.8984 638.672 35.7812 639.078 35.5469C639.484 35.3125 639.779 35.0078 639.961 34.6328V32.8984H638.828C637.057 32.8984 636.172 33.4167 636.172 34.4531C636.172 34.9062 636.323 35.2604 636.625 35.5156C636.927 35.7708 637.315 35.8984 637.789 35.8984ZM647.062 35.9766C647.578 35.9766 648.029 35.8203 648.414 35.5078C648.799 35.1953 649.013 34.8047 649.055 34.3359H650.422C650.396 34.8203 650.229 35.2812 649.922 35.7188C649.615 36.1562 649.203 36.5052 648.688 36.7656C648.177 37.026 647.635 37.1562 647.062 37.1562C645.911 37.1562 644.995 36.7734 644.312 36.0078C643.635 35.237 643.297 34.1849 643.297 32.8516V32.6094C643.297 31.7865 643.448 31.0547 643.75 30.4141C644.052 29.7734 644.484 29.276 645.047 28.9219C645.615 28.5677 646.284 28.3906 647.055 28.3906C648.003 28.3906 648.789 28.6745 649.414 29.2422C650.044 29.8099 650.38 30.5469 650.422 31.4531H649.055C649.013 30.9062 648.805 30.4583 648.43 30.1094C648.06 29.7552 647.602 29.5781 647.055 29.5781C646.32 29.5781 645.75 29.8438 645.344 30.375C644.943 30.901 644.742 31.6641 644.742 32.6641V32.9375C644.742 33.9115 644.943 34.6615 645.344 35.1875C645.745 35.7135 646.318 35.9766 647.062 35.9766ZM653.492 29.5703C654.133 28.7839 654.966 28.3906 655.992 28.3906C657.779 28.3906 658.68 29.3984 658.695 31.4141V37H657.25V31.4062C657.245 30.7969 657.104 30.3464 656.828 30.0547C656.557 29.763 656.133 29.6172 655.555 29.6172C655.086 29.6172 654.674 29.7422 654.32 29.9922C653.966 30.2422 653.69 30.5703 653.492 30.9766V37H652.047V25H653.492V29.5703ZM664.367 37.1562C663.221 37.1562 662.289 36.7812 661.57 36.0312C660.852 35.276 660.492 34.2682 660.492 33.0078V32.7422C660.492 31.9036 660.651 31.1562 660.969 30.5C661.292 29.8385 661.74 29.3229 662.312 28.9531C662.891 28.5781 663.516 28.3906 664.188 28.3906C665.286 28.3906 666.141 28.7526 666.75 29.4766C667.359 30.2005 667.664 31.237 667.664 32.5859V33.1875H661.938C661.958 34.0208 662.201 34.6953 662.664 35.2109C663.133 35.7214 663.727 35.9766 664.445 35.9766C664.956 35.9766 665.388 35.8724 665.742 35.6641C666.096 35.4557 666.406 35.1797 666.672 34.8359L667.555 35.5234C666.846 36.612 665.784 37.1562 664.367 37.1562ZM664.188 29.5781C663.604 29.5781 663.115 29.7917 662.719 30.2188C662.323 30.6406 662.078 31.2344 661.984 32H666.219V31.8906C666.177 31.1562 665.979 30.5885 665.625 30.1875C665.271 29.7812 664.792 29.5781 664.188 29.5781ZM674.266 34.7578C674.266 34.3672 674.117 34.0651 673.82 33.8516C673.529 33.6328 673.016 33.4453 672.281 33.2891C671.552 33.1328 670.971 32.9453 670.539 32.7266C670.112 32.5078 669.794 32.2474 669.586 31.9453C669.383 31.6432 669.281 31.2839 669.281 30.8672C669.281 30.1745 669.573 29.5885 670.156 29.1094C670.745 28.6302 671.495 28.3906 672.406 28.3906C673.365 28.3906 674.141 28.638 674.734 29.1328C675.333 29.6276 675.633 30.2604 675.633 31.0312H674.18C674.18 30.6354 674.01 30.2943 673.672 30.0078C673.339 29.7214 672.917 29.5781 672.406 29.5781C671.88 29.5781 671.469 29.6927 671.172 29.9219C670.875 30.151 670.727 30.4505 670.727 30.8203C670.727 31.1693 670.865 31.4323 671.141 31.6094C671.417 31.7865 671.914 31.9557 672.633 32.1172C673.357 32.2786 673.943 32.4714 674.391 32.6953C674.839 32.9193 675.169 33.1901 675.383 33.5078C675.602 33.8203 675.711 34.2031 675.711 34.6562C675.711 35.4115 675.409 36.0182 674.805 36.4766C674.201 36.9297 673.417 37.1562 672.453 37.1562C671.776 37.1562 671.177 37.0365 670.656 36.7969C670.135 36.5573 669.727 36.224 669.43 35.7969C669.138 35.3646 668.992 34.8984 668.992 34.3984H670.438C670.464 34.8828 670.656 35.2682 671.016 35.5547C671.38 35.8359 671.859 35.9766 672.453 35.9766C673 35.9766 673.438 35.8672 673.766 35.6484C674.099 35.4245 674.266 35.1276 674.266 34.7578ZM602.352 53.0312H597.586L596.516 56H594.969L599.312 44.625H600.625L604.977 56H603.438L602.352 53.0312ZM598.039 51.7969H601.906L599.969 46.4766L598.039 51.7969ZM611.406 55.1641C610.844 55.8255 610.018 56.1562 608.93 56.1562C608.029 56.1562 607.341 55.8958 606.867 55.375C606.398 54.849 606.161 54.0729 606.156 53.0469V47.5469H607.602V53.0078C607.602 54.2891 608.122 54.9297 609.164 54.9297C610.268 54.9297 611.003 54.5182 611.367 53.6953V47.5469H612.812V56H611.438L611.406 55.1641ZM614.664 51.7031C614.664 50.4062 614.971 49.3646 615.586 48.5781C616.201 47.7865 617.005 47.3906 618 47.3906C618.99 47.3906 619.773 47.7292 620.352 48.4062V44H621.797V56H620.469L620.398 55.0938C619.82 55.8021 619.016 56.1562 617.984 56.1562C617.005 56.1562 616.206 55.7552 615.586 54.9531C614.971 54.151 614.664 53.1042 614.664 51.8125V51.7031ZM616.109 51.8672C616.109 52.8255 616.307 53.5755 616.703 54.1172C617.099 54.6589 617.646 54.9297 618.344 54.9297C619.26 54.9297 619.93 54.5182 620.352 53.6953V49.8125C619.919 49.0156 619.255 48.6172 618.359 48.6172C617.651 48.6172 617.099 48.8906 616.703 49.4375C616.307 49.9844 616.109 50.7943 616.109 51.8672ZM625.617 56H624.172V47.5469H625.617V56ZM624.055 45.3047C624.055 45.0703 624.125 44.8724 624.266 44.7109C624.411 44.5495 624.625 44.4688 624.906 44.4688C625.188 44.4688 625.401 44.5495 625.547 44.7109C625.693 44.8724 625.766 45.0703 625.766 45.3047C625.766 45.5391 625.693 45.7344 625.547 45.8906C625.401 46.0469 625.188 46.125 624.906 46.125C624.625 46.125 624.411 46.0469 624.266 45.8906C624.125 45.7344 624.055 45.5391 624.055 45.3047ZM629.898 45.5V47.5469H631.477V48.6641H629.898V53.9062C629.898 54.2448 629.969 54.5 630.109 54.6719C630.25 54.8385 630.49 54.9219 630.828 54.9219C630.995 54.9219 631.224 54.8906 631.516 54.8281V56C631.135 56.1042 630.766 56.1562 630.406 56.1562C629.76 56.1562 629.273 55.9609 628.945 55.5703C628.617 55.1797 628.453 54.625 628.453 53.9062V48.6641H626.914V47.5469H628.453V45.5H629.898ZM638.094 53.7578C638.094 53.3672 637.945 53.0651 637.648 52.8516C637.357 52.6328 636.844 52.4453 636.109 52.2891C635.38 52.1328 634.799 51.9453 634.367 51.7266C633.94 51.5078 633.622 51.2474 633.414 50.9453C633.211 50.6432 633.109 50.2839 633.109 49.8672C633.109 49.1745 633.401 48.5885 633.984 48.1094C634.573 47.6302 635.323 47.3906 636.234 47.3906C637.193 47.3906 637.969 47.638 638.562 48.1328C639.161 48.6276 639.461 49.2604 639.461 50.0312H638.008C638.008 49.6354 637.839 49.2943 637.5 49.0078C637.167 48.7214 636.745 48.5781 636.234 48.5781C635.708 48.5781 635.297 48.6927 635 48.9219C634.703 49.151 634.555 49.4505 634.555 49.8203C634.555 50.1693 634.693 50.4323 634.969 50.6094C635.245 50.7865 635.742 50.9557 636.461 51.1172C637.185 51.2786 637.771 51.4714 638.219 51.6953C638.667 51.9193 638.997 52.1901 639.211 52.5078C639.43 52.8203 639.539 53.2031 639.539 53.6562C639.539 54.4115 639.237 55.0182 638.633 55.4766C638.029 55.9297 637.245 56.1562 636.281 56.1562C635.604 56.1562 635.005 56.0365 634.484 55.7969C633.964 55.5573 633.555 55.224 633.258 54.7969C632.966 54.3646 632.82 53.8984 632.82 53.3984H634.266C634.292 53.8828 634.484 54.2682 634.844 54.5547C635.208 54.8359 635.688 54.9766 636.281 54.9766C636.828 54.9766 637.266 54.8672 637.594 54.6484C637.927 54.4245 638.094 54.1276 638.094 53.7578ZM645.086 52.9453C645.086 52.3984 645.237 51.8958 645.539 51.4375C645.846 50.9792 646.43 50.4453 647.289 49.8359C646.784 49.2214 646.445 48.7266 646.273 48.3516C646.102 47.9766 646.016 47.6042 646.016 47.2344C646.016 46.3698 646.271 45.6927 646.781 45.2031C647.292 44.7135 647.984 44.4688 648.859 44.4688C649.641 44.4688 650.286 44.6979 650.797 45.1562C651.307 45.6094 651.562 46.1823 651.562 46.875C651.562 47.3333 651.445 47.7578 651.211 48.1484C650.982 48.5339 650.578 48.9401 650 49.3672L649.164 49.9844L651.695 53.0078C652.049 52.3307 652.227 51.5781 652.227 50.75H653.531C653.531 52.0781 653.211 53.1797 652.57 54.0547L654.195 56H652.461L651.703 55.1016C651.318 55.4453 650.865 55.7083 650.344 55.8906C649.828 56.0677 649.302 56.1562 648.766 56.1562C647.656 56.1562 646.766 55.862 646.094 55.2734C645.422 54.6849 645.086 53.9089 645.086 52.9453ZM648.766 54.9766C649.531 54.9766 650.232 54.6849 650.867 54.1016L648.094 50.7812L647.836 50.9688C646.966 51.6094 646.531 52.2682 646.531 52.9453C646.531 53.5599 646.729 54.0521 647.125 54.4219C647.526 54.7917 648.073 54.9766 648.766 54.9766ZM647.461 47.1875C647.461 47.6875 647.768 48.3125 648.383 49.0625L649.305 48.4141C649.659 48.1641 649.901 47.9271 650.031 47.7031C650.161 47.474 650.227 47.1979 650.227 46.875C650.227 46.526 650.096 46.237 649.836 46.0078C649.576 45.7734 649.247 45.6562 648.852 45.6562C648.424 45.6562 648.086 45.8021 647.836 46.0938C647.586 46.3802 647.461 46.7448 647.461 47.1875ZM591.82 71.3906C591.68 72.5938 591.234 73.5234 590.484 74.1797C589.74 74.8307 588.747 75.1562 587.508 75.1562C586.164 75.1562 585.086 74.6745 584.273 73.7109C583.466 72.7474 583.062 71.4583 583.062 69.8438V68.75C583.062 67.6927 583.25 66.763 583.625 65.9609C584.005 65.1589 584.542 64.5443 585.234 64.1172C585.927 63.6849 586.729 63.4688 587.641 63.4688C588.849 63.4688 589.818 63.8073 590.547 64.4844C591.276 65.1562 591.701 66.0885 591.82 67.2812H590.312C590.182 66.375 589.898 65.7188 589.461 65.3125C589.029 64.9062 588.422 64.7031 587.641 64.7031C586.682 64.7031 585.93 65.0573 585.383 65.7656C584.841 66.474 584.57 67.4818 584.57 68.7891V69.8906C584.57 71.125 584.828 72.1068 585.344 72.8359C585.859 73.5651 586.581 73.9297 587.508 73.9297C588.341 73.9297 588.979 73.7422 589.422 73.3672C589.87 72.987 590.167 72.3281 590.312 71.3906H591.82ZM593.266 70.6953C593.266 69.8672 593.427 69.1224 593.75 68.4609C594.078 67.7995 594.531 67.2891 595.109 66.9297C595.693 66.5703 596.357 66.3906 597.102 66.3906C598.253 66.3906 599.182 66.7891 599.891 67.5859C600.604 68.3828 600.961 69.4427 600.961 70.7656V70.8672C600.961 71.6901 600.802 72.4297 600.484 73.0859C600.172 73.737 599.721 74.2448 599.133 74.6094C598.549 74.974 597.878 75.1562 597.117 75.1562C595.971 75.1562 595.042 74.7578 594.328 73.9609C593.62 73.1641 593.266 72.1094 593.266 70.7969V70.6953ZM594.719 70.8672C594.719 71.8047 594.935 72.5573 595.367 73.125C595.805 73.6927 596.388 73.9766 597.117 73.9766C597.852 73.9766 598.435 73.6901 598.867 73.1172C599.299 72.5391 599.516 71.7318 599.516 70.6953C599.516 69.7682 599.294 69.0182 598.852 68.4453C598.414 67.8672 597.831 67.5781 597.102 67.5781C596.388 67.5781 595.812 67.862 595.375 68.4297C594.938 68.9974 594.719 69.8099 594.719 70.8672ZM604.133 66.5469L604.172 67.4844C604.792 66.7552 605.628 66.3906 606.68 66.3906C607.862 66.3906 608.667 66.8438 609.094 67.75C609.375 67.3438 609.74 67.0156 610.188 66.7656C610.641 66.5156 611.174 66.3906 611.789 66.3906C613.643 66.3906 614.586 67.3724 614.617 69.3359V75H613.172V69.4219C613.172 68.8177 613.034 68.3672 612.758 68.0703C612.482 67.7682 612.018 67.6172 611.367 67.6172C610.831 67.6172 610.385 67.7786 610.031 68.1016C609.677 68.4193 609.471 68.849 609.414 69.3906V75H607.961V69.4609C607.961 68.2318 607.359 67.6172 606.156 67.6172C605.208 67.6172 604.56 68.0208 604.211 68.8281V75H602.766V66.5469H604.133ZM623.945 70.8672C623.945 72.1536 623.651 73.1901 623.062 73.9766C622.474 74.763 621.677 75.1562 620.672 75.1562C619.646 75.1562 618.839 74.8307 618.25 74.1797V78.25H616.805V66.5469H618.125L618.195 67.4844C618.784 66.7552 619.602 66.3906 620.648 66.3906C621.664 66.3906 622.466 66.7734 623.055 67.5391C623.648 68.3047 623.945 69.3698 623.945 70.7344V70.8672ZM622.5 70.7031C622.5 69.75 622.297 68.9974 621.891 68.4453C621.484 67.8932 620.927 67.6172 620.219 67.6172C619.344 67.6172 618.688 68.0052 618.25 68.7812V72.8203C618.682 73.5911 619.344 73.9766 620.234 73.9766C620.927 73.9766 621.477 73.7031 621.883 73.1562C622.294 72.6042 622.5 71.7865 622.5 70.7031ZM627.359 75H625.914V63H627.359V75ZM631.25 75H629.805V66.5469H631.25V75ZM629.688 64.3047C629.688 64.0703 629.758 63.8724 629.898 63.7109C630.044 63.5495 630.258 63.4688 630.539 63.4688C630.82 63.4688 631.034 63.5495 631.18 63.7109C631.326 63.8724 631.398 64.0703 631.398 64.3047C631.398 64.5391 631.326 64.7344 631.18 64.8906C631.034 65.0469 630.82 65.125 630.539 65.125C630.258 65.125 630.044 65.0469 629.898 64.8906C629.758 64.7344 629.688 64.5391 629.688 64.3047ZM638.789 75C638.706 74.8333 638.638 74.5365 638.586 74.1094C637.914 74.8073 637.112 75.1562 636.18 75.1562C635.346 75.1562 634.661 74.9219 634.125 74.4531C633.594 73.9792 633.328 73.3802 633.328 72.6562C633.328 71.776 633.661 71.0938 634.328 70.6094C635 70.1198 635.943 69.875 637.156 69.875H638.562V69.2109C638.562 68.7057 638.411 68.3047 638.109 68.0078C637.807 67.7057 637.362 67.5547 636.773 67.5547C636.258 67.5547 635.826 67.6849 635.477 67.9453C635.128 68.2057 634.953 68.5208 634.953 68.8906H633.5C633.5 68.4688 633.648 68.0625 633.945 67.6719C634.247 67.276 634.654 66.9635 635.164 66.7344C635.68 66.5052 636.245 66.3906 636.859 66.3906C637.833 66.3906 638.596 66.6354 639.148 67.125C639.701 67.6094 639.987 68.2786 640.008 69.1328V73.0234C640.008 73.7995 640.107 74.4167 640.305 74.875V75H638.789ZM636.391 73.8984C636.844 73.8984 637.273 73.7812 637.68 73.5469C638.086 73.3125 638.38 73.0078 638.562 72.6328V70.8984H637.43C635.659 70.8984 634.773 71.4167 634.773 72.4531C634.773 72.9062 634.924 73.2604 635.227 73.5156C635.529 73.7708 635.917 73.8984 636.391 73.8984ZM643.641 66.5469L643.688 67.6094C644.333 66.7969 645.177 66.3906 646.219 66.3906C648.005 66.3906 648.906 67.3984 648.922 69.4141V75H647.477V69.4062C647.471 68.7969 647.331 68.3464 647.055 68.0547C646.784 67.763 646.359 67.6172 645.781 67.6172C645.312 67.6172 644.901 67.7422 644.547 67.9922C644.193 68.2422 643.917 68.5703 643.719 68.9766V75H642.273V66.5469H643.641ZM654.492 73.9766C655.008 73.9766 655.458 73.8203 655.844 73.5078C656.229 73.1953 656.443 72.8047 656.484 72.3359H657.852C657.826 72.8203 657.659 73.2812 657.352 73.7188C657.044 74.1562 656.633 74.5052 656.117 74.7656C655.607 75.026 655.065 75.1562 654.492 75.1562C653.341 75.1562 652.424 74.7734 651.742 74.0078C651.065 73.237 650.727 72.1849 650.727 70.8516V70.6094C650.727 69.7865 650.878 69.0547 651.18 68.4141C651.482 67.7734 651.914 67.276 652.477 66.9219C653.044 66.5677 653.714 66.3906 654.484 66.3906C655.432 66.3906 656.219 66.6745 656.844 67.2422C657.474 67.8099 657.81 68.5469 657.852 69.4531H656.484C656.443 68.9062 656.234 68.4583 655.859 68.1094C655.49 67.7552 655.031 67.5781 654.484 67.5781C653.75 67.5781 653.18 67.8438 652.773 68.375C652.372 68.901 652.172 69.6641 652.172 70.6641V70.9375C652.172 71.9115 652.372 72.6615 652.773 73.1875C653.174 73.7135 653.747 73.9766 654.492 73.9766ZM662.984 75.1562C661.839 75.1562 660.906 74.7812 660.188 74.0312C659.469 73.276 659.109 72.2682 659.109 71.0078V70.7422C659.109 69.9036 659.268 69.1562 659.586 68.5C659.909 67.8385 660.357 67.3229 660.93 66.9531C661.508 66.5781 662.133 66.3906 662.805 66.3906C663.904 66.3906 664.758 66.7526 665.367 67.4766C665.977 68.2005 666.281 69.237 666.281 70.5859V71.1875H660.555C660.576 72.0208 660.818 72.6953 661.281 73.2109C661.75 73.7214 662.344 73.9766 663.062 73.9766C663.573 73.9766 664.005 73.8724 664.359 73.6641C664.714 73.4557 665.023 73.1797 665.289 72.8359L666.172 73.5234C665.464 74.612 664.401 75.1562 662.984 75.1562ZM662.805 67.5781C662.221 67.5781 661.732 67.7917 661.336 68.2188C660.94 68.6406 660.695 69.2344 660.602 70H664.836V69.8906C664.794 69.1562 664.596 68.5885 664.242 68.1875C663.888 67.7812 663.409 67.5781 662.805 67.5781Z" fill="#5452F6"/>
<g clip-path="url(#clip2)">
<path d="M637.5 90.0054H611.5C610.395 90.0054 609.5 90.9008 609.5 92.0054V118.005C609.5 119.11 610.395 120.005 611.5 120.005H637.5C638.605 120.005 639.5 119.11 639.5 118.005V92.0054C639.5 90.9008 638.605 90.0054 637.5 90.0054Z" stroke="#5452F6" stroke-width="2" stroke-linecap="round" stroke-linejoin="round"/>
<path d="M614.5 113V105C614.5 104.47 614.711 103.961 615.086 103.586C615.461 103.211 615.97 103 616.5 103C617.03 103 617.539 103.211 617.914 103.586C618.289 103.961 618.5 104.47 618.5 105V113" stroke="#5452F6" stroke-width="2" stroke-linecap="round" stroke-linejoin="round"/>
<path d="M630.5 103H631.5C632.296 103 633.059 103.316 633.621 103.879C634.184 104.441 634.5 105.204 634.5 106C634.5 106.796 634.184 107.559 633.621 108.121C633.059 108.684 632.296 109 631.5 109H630.5" stroke="#5452F6" stroke-width="2" stroke-linecap="round" stroke-linejoin="round"/>
<path d="M622.5 103H623.5C624.296 103 625.059 103.316 625.621 103.879C626.184 104.441 626.5 105.204 626.5 106C626.5 106.796 626.184 107.559 625.621 108.121C625.059 108.684 624.296 109 623.5 109H622.5" stroke="#5452F6" stroke-width="2" stroke-linecap="round" stroke-linejoin="round"/>
<path d="M614.5 109.005H618.5" stroke="#5452F6" stroke-width="2" stroke-linecap="round" stroke-linejoin="round"/>
<path d="M630.5 113.005V103.005" stroke="#5452F6" stroke-width="2" stroke-linecap="round" stroke-linejoin="round"/>
<path d="M622.5 113.005V103.005" stroke="#5452F6" stroke-width="2" stroke-linecap="round" stroke-linejoin="round"/>
</g>
<rect x="512.5" y="0.5" width="224" height="142" rx="7.5" stroke="#5452F6"/>
</g>
<g filter="url(#filter3_d)">
<rect width="225" height="143" rx="8" fill="#E5FDE8"/>
<path d="M57.2734 32.5469V37H55.7734V25.625H59.9688C61.2135 25.625 62.1875 25.9427 62.8906 26.5781C63.599 27.2135 63.9531 28.0547 63.9531 29.1016C63.9531 30.2057 63.6068 31.0573 62.9141 31.6562C62.2266 32.25 61.2396 32.5469 59.9531 32.5469H57.2734ZM57.2734 31.3203H59.9688C60.7708 31.3203 61.3854 31.1328 61.8125 30.7578C62.2396 30.3776 62.4531 29.8307 62.4531 29.1172C62.4531 28.4401 62.2396 27.8984 61.8125 27.4922C61.3854 27.0859 60.7995 26.875 60.0547 26.8594H57.2734V31.3203ZM70.8594 36.1641C70.2969 36.8255 69.4714 37.1562 68.3828 37.1562C67.4818 37.1562 66.7943 36.8958 66.3203 36.375C65.8516 35.849 65.6146 35.0729 65.6094 34.0469V28.5469H67.0547V34.0078C67.0547 35.2891 67.5755 35.9297 68.6172 35.9297C69.7214 35.9297 70.4557 35.5182 70.8203 34.6953V28.5469H72.2656V37H70.8906L70.8594 36.1641ZM81.625 32.8672C81.625 34.1589 81.3281 35.1979 80.7344 35.9844C80.1406 36.7656 79.3438 37.1562 78.3438 37.1562C77.276 37.1562 76.4505 36.7786 75.8672 36.0234L75.7969 37H74.4688V25H75.9141V29.4766C76.4974 28.7526 77.3021 28.3906 78.3281 28.3906C79.3542 28.3906 80.1589 28.7786 80.7422 29.5547C81.3307 30.3307 81.625 31.3932 81.625 32.7422V32.8672ZM80.1797 32.7031C80.1797 31.7188 79.9896 30.9583 79.6094 30.4219C79.2292 29.8854 78.6823 29.6172 77.9688 29.6172C77.0156 29.6172 76.3307 30.0599 75.9141 30.9453V34.6016C76.3568 35.487 77.0469 35.9297 77.9844 35.9297C78.6771 35.9297 79.2161 35.6615 79.6016 35.125C79.987 34.5885 80.1797 33.7812 80.1797 32.7031ZM85.0234 37H83.5781V25H85.0234V37ZM88.9141 37H87.4688V28.5469H88.9141V37ZM87.3516 26.3047C87.3516 26.0703 87.4219 25.8724 87.5625 25.7109C87.7083 25.5495 87.9219 25.4688 88.2031 25.4688C88.4844 25.4688 88.6979 25.5495 88.8438 25.7109C88.9896 25.8724 89.0625 26.0703 89.0625 26.3047C89.0625 26.5391 88.9896 26.7344 88.8438 26.8906C88.6979 27.0469 88.4844 27.125 88.2031 27.125C87.9219 27.125 87.7083 27.0469 87.5625 26.8906C87.4219 26.7344 87.3516 26.5391 87.3516 26.3047ZM94.625 35.9766C95.1406 35.9766 95.5911 35.8203 95.9766 35.5078C96.362 35.1953 96.5755 34.8047 96.6172 34.3359H97.9844C97.9583 34.8203 97.7917 35.2812 97.4844 35.7188C97.1771 36.1562 96.7656 36.5052 96.25 36.7656C95.7396 37.026 95.1979 37.1562 94.625 37.1562C93.474 37.1562 92.5573 36.7734 91.875 36.0078C91.1979 35.237 90.8594 34.1849 90.8594 32.8516V32.6094C90.8594 31.7865 91.0104 31.0547 91.3125 30.4141C91.6146 29.7734 92.0469 29.276 92.6094 28.9219C93.1771 28.5677 93.8464 28.3906 94.6172 28.3906C95.5651 28.3906 96.3516 28.6745 96.9766 29.2422C97.6068 29.8099 97.9427 30.5469 97.9844 31.4531H96.6172C96.5755 30.9062 96.3672 30.4583 95.9922 30.1094C95.6224 29.7552 95.1641 29.5781 94.6172 29.5781C93.8828 29.5781 93.3125 29.8438 92.9062 30.375C92.5052 30.901 92.3047 31.6641 92.3047 32.6641V32.9375C92.3047 33.9115 92.5052 34.6615 92.9062 35.1875C93.3073 35.7135 93.8802 35.9766 94.625 35.9766ZM112.547 37H111.039L105.312 28.2344V37H103.805V25.625H105.312L111.055 34.4297V25.625H112.547V37ZM118.492 37.1562C117.346 37.1562 116.414 36.7812 115.695 36.0312C114.977 35.276 114.617 34.2682 114.617 33.0078V32.7422C114.617 31.9036 114.776 31.1562 115.094 30.5C115.417 29.8385 115.865 29.3229 116.438 28.9531C117.016 28.5781 117.641 28.3906 118.312 28.3906C119.411 28.3906 120.266 28.7526 120.875 29.4766C121.484 30.2005 121.789 31.237 121.789 32.5859V33.1875H116.062C116.083 34.0208 116.326 34.6953 116.789 35.2109C117.258 35.7214 117.852 35.9766 118.57 35.9766C119.081 35.9766 119.513 35.8724 119.867 35.6641C120.221 35.4557 120.531 35.1797 120.797 34.8359L121.68 35.5234C120.971 36.612 119.909 37.1562 118.492 37.1562ZM118.312 29.5781C117.729 29.5781 117.24 29.7917 116.844 30.2188C116.448 30.6406 116.203 31.2344 116.109 32H120.344V31.8906C120.302 31.1562 120.104 30.5885 119.75 30.1875C119.396 29.7812 118.917 29.5781 118.312 29.5781ZM125.43 26.5V28.5469H127.008V29.6641H125.43V34.9062C125.43 35.2448 125.5 35.5 125.641 35.6719C125.781 35.8385 126.021 35.9219 126.359 35.9219C126.526 35.9219 126.755 35.8906 127.047 35.8281V37C126.667 37.1042 126.297 37.1562 125.938 37.1562C125.292 37.1562 124.805 36.9609 124.477 36.5703C124.148 36.1797 123.984 35.625 123.984 34.9062V29.6641H122.445V28.5469H123.984V26.5H125.43ZM136.188 35.0078L137.812 28.5469H139.258L136.797 37H135.625L133.57 30.5938L131.57 37H130.398L127.945 28.5469H129.383L131.047 34.875L133.016 28.5469H134.18L136.188 35.0078ZM140.352 32.6953C140.352 31.8672 140.513 31.1224 140.836 30.4609C141.164 29.7995 141.617 29.2891 142.195 28.9297C142.779 28.5703 143.443 28.3906 144.188 28.3906C145.339 28.3906 146.268 28.7891 146.977 29.5859C147.69 30.3828 148.047 31.4427 148.047 32.7656V32.8672C148.047 33.6901 147.888 34.4297 147.57 35.0859C147.258 35.737 146.807 36.2448 146.219 36.6094C145.635 36.974 144.964 37.1562 144.203 37.1562C143.057 37.1562 142.128 36.7578 141.414 35.9609C140.706 35.1641 140.352 34.1094 140.352 32.7969V32.6953ZM141.805 32.8672C141.805 33.8047 142.021 34.5573 142.453 35.125C142.891 35.6927 143.474 35.9766 144.203 35.9766C144.938 35.9766 145.521 35.6901 145.953 35.1172C146.385 34.5391 146.602 33.7318 146.602 32.6953C146.602 31.7682 146.38 31.0182 145.938 30.4453C145.5 29.8672 144.917 29.5781 144.188 29.5781C143.474 29.5781 142.898 29.862 142.461 30.4297C142.023 30.9974 141.805 31.8099 141.805 32.8672ZM153.945 29.8438C153.727 29.8073 153.49 29.7891 153.234 29.7891C152.286 29.7891 151.643 30.1927 151.305 31V37H149.859V28.5469H151.266L151.289 29.5234C151.763 28.7682 152.435 28.3906 153.305 28.3906C153.586 28.3906 153.799 28.4271 153.945 28.5V29.8438ZM157.641 33.0859L156.734 34.0312V37H155.289V25H156.734V32.2578L157.508 31.3281L160.141 28.5469H161.898L158.609 32.0781L162.281 37H160.586L157.641 33.0859ZM168.312 34.7578C168.312 34.3672 168.164 34.0651 167.867 33.8516C167.576 33.6328 167.062 33.4453 166.328 33.2891C165.599 33.1328 165.018 32.9453 164.586 32.7266C164.159 32.5078 163.841 32.2474 163.633 31.9453C163.43 31.6432 163.328 31.2839 163.328 30.8672C163.328 30.1745 163.62 29.5885 164.203 29.1094C164.792 28.6302 165.542 28.3906 166.453 28.3906C167.411 28.3906 168.188 28.638 168.781 29.1328C169.38 29.6276 169.68 30.2604 169.68 31.0312H168.227C168.227 30.6354 168.057 30.2943 167.719 30.0078C167.385 29.7214 166.964 29.5781 166.453 29.5781C165.927 29.5781 165.516 29.6927 165.219 29.9219C164.922 30.151 164.773 30.4505 164.773 30.8203C164.773 31.1693 164.911 31.4323 165.188 31.6094C165.464 31.7865 165.961 31.9557 166.68 32.1172C167.404 32.2786 167.99 32.4714 168.438 32.6953C168.885 32.9193 169.216 33.1901 169.43 33.5078C169.648 33.8203 169.758 34.2031 169.758 34.6562C169.758 35.4115 169.456 36.0182 168.852 36.4766C168.247 36.9297 167.464 37.1562 166.5 37.1562C165.823 37.1562 165.224 37.0365 164.703 36.7969C164.182 36.5573 163.773 36.224 163.477 35.7969C163.185 35.3646 163.039 34.8984 163.039 34.3984H164.484C164.51 34.8828 164.703 35.2682 165.062 35.5547C165.427 35.8359 165.906 35.9766 166.5 35.9766C167.047 35.9766 167.484 35.8672 167.812 35.6484C168.146 35.4245 168.312 35.1276 168.312 34.7578Z" fill="#65BF73"/>
<g clip-path="url(#clip3)">
<path d="M112.5 68C116.918 68 120.5 64.4183 120.5 60C120.5 55.5817 116.918 52 112.5 52C108.082 52 104.5 55.5817 104.5 60C104.5 64.4183 108.082 68 112.5 68Z" stroke="#65BF73" stroke-width="2" stroke-linecap="round" stroke-linejoin="round"/>
<path d="M103.132 77C105.065 77 106.632 75.433 106.632 73.5C106.632 71.567 105.065 70 103.132 70C101.199 70 99.6321 71.567 99.6321 73.5C99.6321 75.433 101.199 77 103.132 77Z" stroke="#65BF73" stroke-width="2" stroke-linecap="round" stroke-linejoin="round"/>
<path d="M121.868 77C123.801 77 125.368 75.433 125.368 73.5C125.368 71.567 123.801 70 121.868 70C119.935 70 118.368 71.567 118.368 73.5C118.368 75.433 119.935 77 121.868 77Z" stroke="#65BF73" stroke-width="2" stroke-linecap="round" stroke-linejoin="round"/>
<path d="M104.5 60H120.5" stroke="#65BF73" stroke-width="2" stroke-linecap="round" stroke-linejoin="round"/>
<path d="M112.5 68C114.157 68 115.5 64.4183 115.5 60C115.5 55.5817 114.157 52 112.5 52C110.843 52 109.5 55.5817 109.5 60C109.5 64.4183 110.843 68 112.5 68Z" stroke="#65BF73" stroke-width="2" stroke-linecap="round" stroke-linejoin="round"/>
<path d="M108.767 82C108.359 80.831 107.598 79.8179 106.588 79.101C105.579 78.3841 104.372 77.9989 103.134 77.9989C101.896 77.9989 100.689 78.3841 99.6793 79.101C98.6701 79.8179 97.9089 80.831 97.5012 82" stroke="#65BF73" stroke-width="2" stroke-linecap="round" stroke-linejoin="round"/>
<path d="M127.5 82C127.092 80.831 126.331 79.8179 125.322 79.101C124.313 78.3841 123.105 77.9989 121.867 77.9989C120.629 77.9989 119.422 78.3841 118.413 79.101C117.403 79.8179 116.642 80.831 116.235 82" stroke="#65BF73" stroke-width="2" stroke-linecap="round" stroke-linejoin="round"/>
</g>
<rect x="0.5" y="0.5" width="224" height="142" rx="7.5" stroke="#65BF73"/>
</g>
<defs>
<filter id="filter0_d" x="768" y="0" width="229" height="147" filterUnits="userSpaceOnUse" color-interpolation-filters="sRGB">
<feFlood flood-opacity="0" result="BackgroundImageFix"/>
<feColorMatrix in="SourceAlpha" type="matrix" values="0 0 0 0 0 0 0 0 0 0 0 0 0 0 0 0 0 0 127 0"/>
<feOffset dx="4" dy="4"/>
<feColorMatrix type="matrix" values="0 0 0 0 0.952941 0 0 0 0 0.639216 0 0 0 0 0.619608 0 0 0 1 0"/>
<feBlend mode="normal" in2="BackgroundImageFix" result="effect1_dropShadow"/>
<feBlend mode="normal" in="SourceGraphic" in2="effect1_dropShadow" result="shape"/>
</filter>
<filter id="filter1_d" x="256" y="0" width="229" height="147" filterUnits="userSpaceOnUse" color-interpolation-filters="sRGB">
<feFlood flood-opacity="0" result="BackgroundImageFix"/>
<feColorMatrix in="SourceAlpha" type="matrix" values="0 0 0 0 0 0 0 0 0 0 0 0 0 0 0 0 0 0 127 0"/>
<feOffset dx="4" dy="4"/>
<feColorMatrix type="matrix" values="0 0 0 0 0.9875 0 0 0 0 0.738327 0 0 0 0 0.703594 0 0 0 1 0"/>
<feBlend mode="normal" in2="BackgroundImageFix" result="effect1_dropShadow"/>
<feBlend mode="normal" in="SourceGraphic" in2="effect1_dropShadow" result="shape"/>
</filter>
<filter id="filter2_d" x="512" y="0" width="229" height="147" filterUnits="userSpaceOnUse" color-interpolation-filters="sRGB">
<feFlood flood-opacity="0" result="BackgroundImageFix"/>
<feColorMatrix in="SourceAlpha" type="matrix" values="0 0 0 0 0 0 0 0 0 0 0 0 0 0 0 0 0 0 127 0"/>
<feOffset dx="4" dy="4"/>
<feColorMatrix type="matrix" values="0 0 0 0 0.674908 0 0 0 0 0.662083 0 0 0 0 0.945833 0 0 0 1 0"/>
<feBlend mode="normal" in2="BackgroundImageFix" result="effect1_dropShadow"/>
<feBlend mode="normal" in="SourceGraphic" in2="effect1_dropShadow" result="shape"/>
</filter>
<filter id="filter3_d" x="0" y="0" width="229" height="147" filterUnits="userSpaceOnUse" color-interpolation-filters="sRGB">
<feFlood flood-opacity="0" result="BackgroundImageFix"/>
<feColorMatrix in="SourceAlpha" type="matrix" values="0 0 0 0 0 0 0 0 0 0 0 0 0 0 0 0 0 0 127 0"/>
<feOffset dx="4" dy="4"/>
<feColorMatrix type="matrix" values="0 0 0 0 0.578021 0 0 0 0 0.775 0 0 0 0 0.608662 0 0 0 1 0"/>
<feBlend mode="normal" in2="BackgroundImageFix" result="effect1_dropShadow"/>
<feBlend mode="normal" in="SourceGraphic" in2="effect1_dropShadow" result="shape"/>
</filter>
<clipPath id="clip0">
<rect width="32" height="32" fill="white" transform="translate(864.5 51)"/>
</clipPath>
<clipPath id="clip1">
<rect width="32" height="32" fill="white" transform="translate(352.5 51)"/>
</clipPath>
<clipPath id="clip2">
<rect width="32" height="32" fill="white" transform="translate(608.5 89)"/>
</clipPath>
<clipPath id="clip3">
<rect width="32" height="32" fill="white" transform="translate(96.5 51)"/>
</clipPath>
</defs>
</svg>
