<svg width="997" height="147" viewBox="0 0 997 147" fill="none" xmlns="http://www.w3.org/2000/svg">
<g filter="url(#filter0_d)">
<rect x="768" width="225" height="143" rx="8" fill="#E7F4FF"/>
<path d="M851 81H911" stroke="#2097F6" stroke-width="2" stroke-linecap="round" stroke-linejoin="round"/>
<path d="M865 53H857C856.47 53 855.961 53.2107 855.586 53.5858C855.211 53.9609 855 54.4696 855 55V81H867V55C867 54.4696 866.789 53.9609 866.414 53.5858C866.039 53.2107 865.53 53 865 53Z" stroke="#2097F6" stroke-width="2" stroke-linecap="round" stroke-linejoin="round"/>
<path d="M885 29H877C876.47 29 875.961 29.2107 875.586 29.5858C875.211 29.9609 875 30.4696 875 31V81H887V31C887 30.4696 886.789 29.9609 886.414 29.5858C886.039 29.2107 885.53 29 885 29Z" stroke="#2097F6" stroke-width="2" stroke-linecap="round" stroke-linejoin="round"/>
<path d="M905 41H897C896.47 41 895.961 41.2107 895.586 41.5858C895.211 41.9609 895 42.4696 895 43V81H907V43C907 42.4696 906.789 41.9609 906.414 41.5858C906.039 41.2107 905.53 41 905 41Z" stroke="#2097F6" stroke-width="2" stroke-linecap="round" stroke-linejoin="round"/>
<path d="M813.445 116.031H808.68L807.609 119H806.062L810.406 107.625H811.719L816.07 119H814.531L813.445 116.031ZM809.133 114.797H813L811.062 109.477L809.133 114.797ZM818.742 110.547L818.789 111.609C819.435 110.797 820.279 110.391 821.32 110.391C823.107 110.391 824.008 111.398 824.023 113.414V119H822.578V113.406C822.573 112.797 822.432 112.346 822.156 112.055C821.885 111.763 821.461 111.617 820.883 111.617C820.414 111.617 820.003 111.742 819.648 111.992C819.294 112.242 819.018 112.57 818.82 112.977V119H817.375V110.547H818.742ZM831.422 119C831.339 118.833 831.271 118.536 831.219 118.109C830.547 118.807 829.745 119.156 828.812 119.156C827.979 119.156 827.294 118.922 826.758 118.453C826.227 117.979 825.961 117.38 825.961 116.656C825.961 115.776 826.294 115.094 826.961 114.609C827.633 114.12 828.576 113.875 829.789 113.875H831.195V113.211C831.195 112.706 831.044 112.305 830.742 112.008C830.44 111.706 829.995 111.555 829.406 111.555C828.891 111.555 828.458 111.685 828.109 111.945C827.76 112.206 827.586 112.521 827.586 112.891H826.133C826.133 112.469 826.281 112.062 826.578 111.672C826.88 111.276 827.286 110.964 827.797 110.734C828.312 110.505 828.878 110.391 829.492 110.391C830.466 110.391 831.229 110.635 831.781 111.125C832.333 111.609 832.62 112.279 832.641 113.133V117.023C832.641 117.799 832.74 118.417 832.938 118.875V119H831.422ZM829.023 117.898C829.477 117.898 829.906 117.781 830.312 117.547C830.719 117.312 831.013 117.008 831.195 116.633V114.898H830.062C828.292 114.898 827.406 115.417 827.406 116.453C827.406 116.906 827.557 117.26 827.859 117.516C828.161 117.771 828.549 117.898 829.023 117.898ZM836.477 119H835.031V107H836.477V119ZM841.562 116.883L843.531 110.547H845.078L841.68 120.305C841.154 121.711 840.318 122.414 839.172 122.414L838.898 122.391L838.359 122.289V121.117L838.75 121.148C839.24 121.148 839.62 121.049 839.891 120.852C840.167 120.654 840.393 120.292 840.57 119.766L840.891 118.906L837.875 110.547H839.453L841.562 116.883ZM848.336 108.5V110.547H849.914V111.664H848.336V116.906C848.336 117.245 848.406 117.5 848.547 117.672C848.688 117.839 848.927 117.922 849.266 117.922C849.432 117.922 849.661 117.891 849.953 117.828V119C849.573 119.104 849.203 119.156 848.844 119.156C848.198 119.156 847.711 118.961 847.383 118.57C847.055 118.18 846.891 117.625 846.891 116.906V111.664H845.352V110.547H846.891V108.5H848.336ZM853.18 119H851.734V110.547H853.18V119ZM851.617 108.305C851.617 108.07 851.688 107.872 851.828 107.711C851.974 107.549 852.188 107.469 852.469 107.469C852.75 107.469 852.964 107.549 853.109 107.711C853.255 107.872 853.328 108.07 853.328 108.305C853.328 108.539 853.255 108.734 853.109 108.891C852.964 109.047 852.75 109.125 852.469 109.125C852.188 109.125 851.974 109.047 851.828 108.891C851.688 108.734 851.617 108.539 851.617 108.305ZM858.891 117.977C859.406 117.977 859.857 117.82 860.242 117.508C860.628 117.195 860.841 116.805 860.883 116.336H862.25C862.224 116.82 862.057 117.281 861.75 117.719C861.443 118.156 861.031 118.505 860.516 118.766C860.005 119.026 859.464 119.156 858.891 119.156C857.74 119.156 856.823 118.773 856.141 118.008C855.464 117.237 855.125 116.185 855.125 114.852V114.609C855.125 113.786 855.276 113.055 855.578 112.414C855.88 111.773 856.312 111.276 856.875 110.922C857.443 110.568 858.112 110.391 858.883 110.391C859.831 110.391 860.617 110.674 861.242 111.242C861.872 111.81 862.208 112.547 862.25 113.453H860.883C860.841 112.906 860.633 112.458 860.258 112.109C859.888 111.755 859.43 111.578 858.883 111.578C858.148 111.578 857.578 111.844 857.172 112.375C856.771 112.901 856.57 113.664 856.57 114.664V114.938C856.57 115.911 856.771 116.661 857.172 117.188C857.573 117.714 858.146 117.977 858.891 117.977ZM868.797 116.758C868.797 116.367 868.648 116.065 868.352 115.852C868.06 115.633 867.547 115.445 866.812 115.289C866.083 115.133 865.503 114.945 865.07 114.727C864.643 114.508 864.326 114.247 864.117 113.945C863.914 113.643 863.812 113.284 863.812 112.867C863.812 112.174 864.104 111.589 864.688 111.109C865.276 110.63 866.026 110.391 866.938 110.391C867.896 110.391 868.672 110.638 869.266 111.133C869.865 111.628 870.164 112.26 870.164 113.031H868.711C868.711 112.635 868.542 112.294 868.203 112.008C867.87 111.721 867.448 111.578 866.938 111.578C866.411 111.578 866 111.693 865.703 111.922C865.406 112.151 865.258 112.451 865.258 112.82C865.258 113.169 865.396 113.432 865.672 113.609C865.948 113.786 866.445 113.956 867.164 114.117C867.888 114.279 868.474 114.471 868.922 114.695C869.37 114.919 869.701 115.19 869.914 115.508C870.133 115.82 870.242 116.203 870.242 116.656C870.242 117.411 869.94 118.018 869.336 118.477C868.732 118.93 867.948 119.156 866.984 119.156C866.307 119.156 865.708 119.036 865.188 118.797C864.667 118.557 864.258 118.224 863.961 117.797C863.669 117.365 863.523 116.898 863.523 116.398H864.969C864.995 116.883 865.188 117.268 865.547 117.555C865.911 117.836 866.391 117.977 866.984 117.977C867.531 117.977 867.969 117.867 868.297 117.648C868.63 117.424 868.797 117.128 868.797 116.758ZM875.789 115.945C875.789 115.398 875.94 114.896 876.242 114.438C876.549 113.979 877.133 113.445 877.992 112.836C877.487 112.221 877.148 111.727 876.977 111.352C876.805 110.977 876.719 110.604 876.719 110.234C876.719 109.37 876.974 108.693 877.484 108.203C877.995 107.714 878.688 107.469 879.562 107.469C880.344 107.469 880.99 107.698 881.5 108.156C882.01 108.609 882.266 109.182 882.266 109.875C882.266 110.333 882.148 110.758 881.914 111.148C881.685 111.534 881.281 111.94 880.703 112.367L879.867 112.984L882.398 116.008C882.753 115.331 882.93 114.578 882.93 113.75H884.234C884.234 115.078 883.914 116.18 883.273 117.055L884.898 119H883.164L882.406 118.102C882.021 118.445 881.568 118.708 881.047 118.891C880.531 119.068 880.005 119.156 879.469 119.156C878.359 119.156 877.469 118.862 876.797 118.273C876.125 117.685 875.789 116.909 875.789 115.945ZM879.469 117.977C880.234 117.977 880.935 117.685 881.57 117.102L878.797 113.781L878.539 113.969C877.669 114.609 877.234 115.268 877.234 115.945C877.234 116.56 877.432 117.052 877.828 117.422C878.229 117.792 878.776 117.977 879.469 117.977ZM878.164 110.188C878.164 110.688 878.471 111.312 879.086 112.062L880.008 111.414C880.362 111.164 880.604 110.927 880.734 110.703C880.865 110.474 880.93 110.198 880.93 109.875C880.93 109.526 880.799 109.237 880.539 109.008C880.279 108.773 879.951 108.656 879.555 108.656C879.128 108.656 878.789 108.802 878.539 109.094C878.289 109.38 878.164 109.745 878.164 110.188ZM894.414 114.398H891.742V119H890.234V107.625H894C895.281 107.625 896.266 107.917 896.953 108.5C897.646 109.083 897.992 109.932 897.992 111.047C897.992 111.755 897.799 112.372 897.414 112.898C897.034 113.424 896.503 113.818 895.82 114.078L898.492 118.906V119H896.883L894.414 114.398ZM891.742 113.172H894.047C894.792 113.172 895.383 112.979 895.82 112.594C896.263 112.208 896.484 111.693 896.484 111.047C896.484 110.344 896.273 109.805 895.852 109.43C895.435 109.055 894.831 108.865 894.039 108.859H891.742V113.172ZM903.383 119.156C902.237 119.156 901.305 118.781 900.586 118.031C899.867 117.276 899.508 116.268 899.508 115.008V114.742C899.508 113.904 899.667 113.156 899.984 112.5C900.307 111.839 900.755 111.323 901.328 110.953C901.906 110.578 902.531 110.391 903.203 110.391C904.302 110.391 905.156 110.753 905.766 111.477C906.375 112.201 906.68 113.237 906.68 114.586V115.188H900.953C900.974 116.021 901.216 116.695 901.68 117.211C902.148 117.721 902.742 117.977 903.461 117.977C903.971 117.977 904.404 117.872 904.758 117.664C905.112 117.456 905.422 117.18 905.688 116.836L906.57 117.523C905.862 118.612 904.799 119.156 903.383 119.156ZM903.203 111.578C902.62 111.578 902.13 111.792 901.734 112.219C901.339 112.641 901.094 113.234 901 114H905.234V113.891C905.193 113.156 904.995 112.589 904.641 112.188C904.286 111.781 903.807 111.578 903.203 111.578ZM913.281 116.758C913.281 116.367 913.133 116.065 912.836 115.852C912.544 115.633 912.031 115.445 911.297 115.289C910.568 115.133 909.987 114.945 909.555 114.727C909.128 114.508 908.81 114.247 908.602 113.945C908.398 113.643 908.297 113.284 908.297 112.867C908.297 112.174 908.589 111.589 909.172 111.109C909.76 110.63 910.51 110.391 911.422 110.391C912.38 110.391 913.156 110.638 913.75 111.133C914.349 111.628 914.648 112.26 914.648 113.031H913.195C913.195 112.635 913.026 112.294 912.688 112.008C912.354 111.721 911.932 111.578 911.422 111.578C910.896 111.578 910.484 111.693 910.188 111.922C909.891 112.151 909.742 112.451 909.742 112.82C909.742 113.169 909.88 113.432 910.156 113.609C910.432 113.786 910.93 113.956 911.648 114.117C912.372 114.279 912.958 114.471 913.406 114.695C913.854 114.919 914.185 115.19 914.398 115.508C914.617 115.82 914.727 116.203 914.727 116.656C914.727 117.411 914.424 118.018 913.82 118.477C913.216 118.93 912.432 119.156 911.469 119.156C910.792 119.156 910.193 119.036 909.672 118.797C909.151 118.557 908.742 118.224 908.445 117.797C908.154 117.365 908.008 116.898 908.008 116.398H909.453C909.479 116.883 909.672 117.268 910.031 117.555C910.396 117.836 910.875 117.977 911.469 117.977C912.016 117.977 912.453 117.867 912.781 117.648C913.115 117.424 913.281 117.128 913.281 116.758ZM920.117 119.156C918.971 119.156 918.039 118.781 917.32 118.031C916.602 117.276 916.242 116.268 916.242 115.008V114.742C916.242 113.904 916.401 113.156 916.719 112.5C917.042 111.839 917.49 111.323 918.062 110.953C918.641 110.578 919.266 110.391 919.938 110.391C921.036 110.391 921.891 110.753 922.5 111.477C923.109 112.201 923.414 113.237 923.414 114.586V115.188H917.688C917.708 116.021 917.951 116.695 918.414 117.211C918.883 117.721 919.477 117.977 920.195 117.977C920.706 117.977 921.138 117.872 921.492 117.664C921.846 117.456 922.156 117.18 922.422 116.836L923.305 117.523C922.596 118.612 921.534 119.156 920.117 119.156ZM919.938 111.578C919.354 111.578 918.865 111.792 918.469 112.219C918.073 112.641 917.828 113.234 917.734 114H921.969V113.891C921.927 113.156 921.729 112.589 921.375 112.188C921.021 111.781 920.542 111.578 919.938 111.578ZM930.312 119C930.229 118.833 930.161 118.536 930.109 118.109C929.438 118.807 928.635 119.156 927.703 119.156C926.87 119.156 926.185 118.922 925.648 118.453C925.117 117.979 924.852 117.38 924.852 116.656C924.852 115.776 925.185 115.094 925.852 114.609C926.523 114.12 927.466 113.875 928.68 113.875H930.086V113.211C930.086 112.706 929.935 112.305 929.633 112.008C929.331 111.706 928.885 111.555 928.297 111.555C927.781 111.555 927.349 111.685 927 111.945C926.651 112.206 926.477 112.521 926.477 112.891H925.023C925.023 112.469 925.172 112.062 925.469 111.672C925.771 111.276 926.177 110.964 926.688 110.734C927.203 110.505 927.768 110.391 928.383 110.391C929.357 110.391 930.12 110.635 930.672 111.125C931.224 111.609 931.51 112.279 931.531 113.133V117.023C931.531 117.799 931.63 118.417 931.828 118.875V119H930.312ZM927.914 117.898C928.367 117.898 928.797 117.781 929.203 117.547C929.609 117.312 929.904 117.008 930.086 116.633V114.898H928.953C927.182 114.898 926.297 115.417 926.297 116.453C926.297 116.906 926.448 117.26 926.75 117.516C927.052 117.771 927.44 117.898 927.914 117.898ZM937.883 111.844C937.664 111.807 937.427 111.789 937.172 111.789C936.224 111.789 935.581 112.193 935.242 113V119H933.797V110.547H935.203L935.227 111.523C935.701 110.768 936.372 110.391 937.242 110.391C937.523 110.391 937.737 110.427 937.883 110.5V111.844ZM942.453 117.977C942.969 117.977 943.419 117.82 943.805 117.508C944.19 117.195 944.404 116.805 944.445 116.336H945.812C945.786 116.82 945.62 117.281 945.312 117.719C945.005 118.156 944.594 118.505 944.078 118.766C943.568 119.026 943.026 119.156 942.453 119.156C941.302 119.156 940.385 118.773 939.703 118.008C939.026 117.237 938.688 116.185 938.688 114.852V114.609C938.688 113.786 938.839 113.055 939.141 112.414C939.443 111.773 939.875 111.276 940.438 110.922C941.005 110.568 941.674 110.391 942.445 110.391C943.393 110.391 944.18 110.674 944.805 111.242C945.435 111.81 945.771 112.547 945.812 113.453H944.445C944.404 112.906 944.195 112.458 943.82 112.109C943.451 111.755 942.992 111.578 942.445 111.578C941.711 111.578 941.141 111.844 940.734 112.375C940.333 112.901 940.133 113.664 940.133 114.664V114.938C940.133 115.911 940.333 116.661 940.734 117.188C941.135 117.714 941.708 117.977 942.453 117.977ZM948.883 111.57C949.523 110.784 950.357 110.391 951.383 110.391C953.169 110.391 954.07 111.398 954.086 113.414V119H952.641V113.406C952.635 112.797 952.495 112.346 952.219 112.055C951.948 111.763 951.523 111.617 950.945 111.617C950.477 111.617 950.065 111.742 949.711 111.992C949.357 112.242 949.081 112.57 948.883 112.977V119H947.438V107H948.883V111.57Z" fill="#2097F6"/>
<rect x="768.5" y="0.5" width="224" height="142" rx="7.5" stroke="#2097F6"/>
</g>
<g filter="url(#filter1_d)">
<rect x="256" width="225" height="143" rx="8" fill="#FFECEA"/>
<path d="M357.736 66.2641L386.021 37.9788" stroke="#FF5A43" stroke-width="2" stroke-linecap="round" stroke-linejoin="round"/>
<path d="M364.808 59.1919L354.909 49.2932L343.595 60.5999C340.968 63.2262 339.493 66.7883 339.493 70.5025C339.493 74.2168 340.968 77.7789 343.595 80.4052C346.221 83.0316 349.783 84.507 353.497 84.507C357.212 84.507 360.774 83.0316 363.4 80.4052L374.712 69.0905L370.469 64.8505" stroke="#FF5A43" stroke-width="2" stroke-linecap="round" stroke-linejoin="round"/>
<path d="M397.333 37.9788C396.595 38.7428 395.713 39.3523 394.737 39.7716C393.761 40.1908 392.711 40.4115 391.649 40.4208C390.586 40.43 389.533 40.2276 388.55 39.8253C387.567 39.4231 386.673 38.8291 385.922 38.0779C385.171 37.3268 384.577 36.4336 384.175 35.4504C383.773 34.4672 383.57 33.4138 383.579 32.3515C383.589 31.2893 383.809 30.2395 384.229 29.2635C384.648 28.2875 385.257 27.4047 386.021 26.6668C386.772 25.9169 387.789 25.4956 388.849 25.4956C389.91 25.4956 390.927 25.9169 391.677 26.6668L397.333 32.3334C398.08 33.0831 398.499 34.098 398.499 35.1561C398.499 36.2141 398.08 37.2291 397.333 37.9788Z" stroke="#FF5A43" stroke-width="2" stroke-linecap="round" stroke-linejoin="round"/>
<path d="M326.297 108.859H322.641V119H321.148V108.859H317.5V107.625H326.297V108.859ZM330.484 119.156C329.339 119.156 328.406 118.781 327.688 118.031C326.969 117.276 326.609 116.268 326.609 115.008V114.742C326.609 113.904 326.768 113.156 327.086 112.5C327.409 111.839 327.857 111.323 328.43 110.953C329.008 110.578 329.633 110.391 330.305 110.391C331.404 110.391 332.258 110.753 332.867 111.477C333.477 112.201 333.781 113.237 333.781 114.586V115.188H328.055C328.076 116.021 328.318 116.695 328.781 117.211C329.25 117.721 329.844 117.977 330.562 117.977C331.073 117.977 331.505 117.872 331.859 117.664C332.214 117.456 332.523 117.18 332.789 116.836L333.672 117.523C332.964 118.612 331.901 119.156 330.484 119.156ZM330.305 111.578C329.721 111.578 329.232 111.792 328.836 112.219C328.44 112.641 328.195 113.234 328.102 114H332.336V113.891C332.294 113.156 332.096 112.589 331.742 112.188C331.388 111.781 330.909 111.578 330.305 111.578ZM340.383 116.758C340.383 116.367 340.234 116.065 339.938 115.852C339.646 115.633 339.133 115.445 338.398 115.289C337.669 115.133 337.089 114.945 336.656 114.727C336.229 114.508 335.911 114.247 335.703 113.945C335.5 113.643 335.398 113.284 335.398 112.867C335.398 112.174 335.69 111.589 336.273 111.109C336.862 110.63 337.612 110.391 338.523 110.391C339.482 110.391 340.258 110.638 340.852 111.133C341.451 111.628 341.75 112.26 341.75 113.031H340.297C340.297 112.635 340.128 112.294 339.789 112.008C339.456 111.721 339.034 111.578 338.523 111.578C337.997 111.578 337.586 111.693 337.289 111.922C336.992 112.151 336.844 112.451 336.844 112.82C336.844 113.169 336.982 113.432 337.258 113.609C337.534 113.786 338.031 113.956 338.75 114.117C339.474 114.279 340.06 114.471 340.508 114.695C340.956 114.919 341.286 115.19 341.5 115.508C341.719 115.82 341.828 116.203 341.828 116.656C341.828 117.411 341.526 118.018 340.922 118.477C340.318 118.93 339.534 119.156 338.57 119.156C337.893 119.156 337.294 119.036 336.773 118.797C336.253 118.557 335.844 118.224 335.547 117.797C335.255 117.365 335.109 116.898 335.109 116.398H336.555C336.581 116.883 336.773 117.268 337.133 117.555C337.497 117.836 337.977 117.977 338.57 117.977C339.117 117.977 339.555 117.867 339.883 117.648C340.216 117.424 340.383 117.128 340.383 116.758ZM345.672 108.5V110.547H347.25V111.664H345.672V116.906C345.672 117.245 345.742 117.5 345.883 117.672C346.023 117.839 346.263 117.922 346.602 117.922C346.768 117.922 346.997 117.891 347.289 117.828V119C346.909 119.104 346.539 119.156 346.18 119.156C345.534 119.156 345.047 118.961 344.719 118.57C344.391 118.18 344.227 117.625 344.227 116.906V111.664H342.688V110.547H344.227V108.5H345.672ZM361.883 119H360.375L354.648 110.234V119H353.141V107.625H354.648L360.391 116.43V107.625H361.883V119ZM367.828 119.156C366.682 119.156 365.75 118.781 365.031 118.031C364.312 117.276 363.953 116.268 363.953 115.008V114.742C363.953 113.904 364.112 113.156 364.43 112.5C364.753 111.839 365.201 111.323 365.773 110.953C366.352 110.578 366.977 110.391 367.648 110.391C368.747 110.391 369.602 110.753 370.211 111.477C370.82 112.201 371.125 113.237 371.125 114.586V115.188H365.398C365.419 116.021 365.661 116.695 366.125 117.211C366.594 117.721 367.188 117.977 367.906 117.977C368.417 117.977 368.849 117.872 369.203 117.664C369.557 117.456 369.867 117.18 370.133 116.836L371.016 117.523C370.307 118.612 369.245 119.156 367.828 119.156ZM367.648 111.578C367.065 111.578 366.576 111.792 366.18 112.219C365.784 112.641 365.539 113.234 365.445 114H369.68V113.891C369.638 113.156 369.44 112.589 369.086 112.188C368.732 111.781 368.253 111.578 367.648 111.578ZM374.766 108.5V110.547H376.344V111.664H374.766V116.906C374.766 117.245 374.836 117.5 374.977 117.672C375.117 117.839 375.357 117.922 375.695 117.922C375.862 117.922 376.091 117.891 376.383 117.828V119C376.003 119.104 375.633 119.156 375.273 119.156C374.628 119.156 374.141 118.961 373.812 118.57C373.484 118.18 373.32 117.625 373.32 116.906V111.664H371.781V110.547H373.32V108.5H374.766ZM385.523 117.008L387.148 110.547H388.594L386.133 119H384.961L382.906 112.594L380.906 119H379.734L377.281 110.547H378.719L380.383 116.875L382.352 110.547H383.516L385.523 117.008ZM389.688 114.695C389.688 113.867 389.849 113.122 390.172 112.461C390.5 111.799 390.953 111.289 391.531 110.93C392.115 110.57 392.779 110.391 393.523 110.391C394.674 110.391 395.604 110.789 396.312 111.586C397.026 112.383 397.383 113.443 397.383 114.766V114.867C397.383 115.69 397.224 116.43 396.906 117.086C396.594 117.737 396.143 118.245 395.555 118.609C394.971 118.974 394.299 119.156 393.539 119.156C392.393 119.156 391.464 118.758 390.75 117.961C390.042 117.164 389.688 116.109 389.688 114.797V114.695ZM391.141 114.867C391.141 115.805 391.357 116.557 391.789 117.125C392.227 117.693 392.81 117.977 393.539 117.977C394.273 117.977 394.857 117.69 395.289 117.117C395.721 116.539 395.938 115.732 395.938 114.695C395.938 113.768 395.716 113.018 395.273 112.445C394.836 111.867 394.253 111.578 393.523 111.578C392.81 111.578 392.234 111.862 391.797 112.43C391.359 112.997 391.141 113.81 391.141 114.867ZM403.281 111.844C403.062 111.807 402.826 111.789 402.57 111.789C401.622 111.789 400.979 112.193 400.641 113V119H399.195V110.547H400.602L400.625 111.523C401.099 110.768 401.771 110.391 402.641 110.391C402.922 110.391 403.135 110.427 403.281 110.5V111.844ZM406.977 115.086L406.07 116.031V119H404.625V107H406.07V114.258L406.844 113.328L409.477 110.547H411.234L407.945 114.078L411.617 119H409.922L406.977 115.086ZM417.648 116.758C417.648 116.367 417.5 116.065 417.203 115.852C416.911 115.633 416.398 115.445 415.664 115.289C414.935 115.133 414.354 114.945 413.922 114.727C413.495 114.508 413.177 114.247 412.969 113.945C412.766 113.643 412.664 113.284 412.664 112.867C412.664 112.174 412.956 111.589 413.539 111.109C414.128 110.63 414.878 110.391 415.789 110.391C416.747 110.391 417.523 110.638 418.117 111.133C418.716 111.628 419.016 112.26 419.016 113.031H417.562C417.562 112.635 417.393 112.294 417.055 112.008C416.721 111.721 416.299 111.578 415.789 111.578C415.263 111.578 414.852 111.693 414.555 111.922C414.258 112.151 414.109 112.451 414.109 112.82C414.109 113.169 414.247 113.432 414.523 113.609C414.799 113.786 415.297 113.956 416.016 114.117C416.74 114.279 417.326 114.471 417.773 114.695C418.221 114.919 418.552 115.19 418.766 115.508C418.984 115.82 419.094 116.203 419.094 116.656C419.094 117.411 418.792 118.018 418.188 118.477C417.583 118.93 416.799 119.156 415.836 119.156C415.159 119.156 414.56 119.036 414.039 118.797C413.518 118.557 413.109 118.224 412.812 117.797C412.521 117.365 412.375 116.898 412.375 116.398H413.82C413.846 116.883 414.039 117.268 414.398 117.555C414.763 117.836 415.242 117.977 415.836 117.977C416.383 117.977 416.82 117.867 417.148 117.648C417.482 117.424 417.648 117.128 417.648 116.758Z" fill="#FF5A43"/>
<rect x="256.5" y="0.5" width="224" height="142" rx="7.5" stroke="#FF5A43"/>
</g>
<g filter="url(#filter2_d)">
<g clip-path="url(#clip0)">
<rect x="512" width="225" height="143" rx="8" fill="#EEEEFF"/>
<path d="M651 25.0107H599C596.791 25.0107 595 26.8016 595 29.0107V81.0107C595 83.2199 596.791 85.0107 599 85.0107H651C653.209 85.0107 655 83.2199 655 81.0107V29.0107C655 26.8016 653.209 25.0107 651 25.0107Z" stroke="#5452F6" stroke-width="2" stroke-linecap="round" stroke-linejoin="round"/>
<path d="M605 71V55C605 53.9391 605.421 52.9217 606.172 52.1716C606.922 51.4214 607.939 51 609 51C610.061 51 611.078 51.4214 611.828 52.1716C612.579 52.9217 613 53.9391 613 55V71" stroke="#5452F6" stroke-width="2" stroke-linecap="round" stroke-linejoin="round"/>
<path d="M637 51H639C640.591 51 642.117 51.6321 643.243 52.7574C644.368 53.8826 645 55.4087 645 57C645 58.5913 644.368 60.1174 643.243 61.2426C642.117 62.3679 640.591 63 639 63H637" stroke="#5452F6" stroke-width="2" stroke-linecap="round" stroke-linejoin="round"/>
<path d="M621 51H623C624.591 51 626.117 51.6321 627.243 52.7574C628.368 53.8826 629 55.4087 629 57C629 58.5913 628.368 60.1174 627.243 61.2426C626.117 62.3679 624.591 63 623 63H621" stroke="#5452F6" stroke-width="2" stroke-linecap="round" stroke-linejoin="round"/>
<path d="M605 63.0107H613" stroke="#5452F6" stroke-width="2" stroke-linecap="round" stroke-linejoin="round"/>
<path d="M637 71.0107V51.0107" stroke="#5452F6" stroke-width="2" stroke-linecap="round" stroke-linejoin="round"/>
<path d="M621 71.0107V51.0107" stroke="#5452F6" stroke-width="2" stroke-linecap="round" stroke-linejoin="round"/>
<path d="M540.516 111V99.625H543.727C544.716 99.625 545.591 99.8438 546.352 100.281C547.112 100.719 547.698 101.341 548.109 102.148C548.526 102.956 548.737 103.883 548.742 104.93V105.656C548.742 106.729 548.534 107.669 548.117 108.477C547.706 109.284 547.115 109.904 546.344 110.336C545.578 110.768 544.685 110.99 543.664 111H540.516ZM542.016 100.859V109.773H543.594C544.75 109.773 545.648 109.414 546.289 108.695C546.935 107.977 547.258 106.953 547.258 105.625V104.961C547.258 103.669 546.953 102.667 546.344 101.953C545.74 101.234 544.88 100.87 543.766 100.859H542.016ZM557.125 108.031H552.359L551.289 111H549.742L554.086 99.625H555.398L559.75 111H558.211L557.125 108.031ZM552.812 106.797H556.68L554.742 101.477L552.812 106.797ZM568.195 106.867C568.195 108.154 567.901 109.19 567.312 109.977C566.724 110.763 565.927 111.156 564.922 111.156C563.896 111.156 563.089 110.831 562.5 110.18V114.25H561.055V102.547H562.375L562.445 103.484C563.034 102.755 563.852 102.391 564.898 102.391C565.914 102.391 566.716 102.773 567.305 103.539C567.898 104.305 568.195 105.37 568.195 106.734V106.867ZM566.75 106.703C566.75 105.75 566.547 104.997 566.141 104.445C565.734 103.893 565.177 103.617 564.469 103.617C563.594 103.617 562.938 104.005 562.5 104.781V108.82C562.932 109.591 563.594 109.977 564.484 109.977C565.177 109.977 565.727 109.703 566.133 109.156C566.544 108.604 566.75 107.786 566.75 106.703ZM577.18 106.867C577.18 108.154 576.885 109.19 576.297 109.977C575.708 110.763 574.911 111.156 573.906 111.156C572.88 111.156 572.073 110.831 571.484 110.18V114.25H570.039V102.547H571.359L571.43 103.484C572.018 102.755 572.836 102.391 573.883 102.391C574.898 102.391 575.701 102.773 576.289 103.539C576.883 104.305 577.18 105.37 577.18 106.734V106.867ZM575.734 106.703C575.734 105.75 575.531 104.997 575.125 104.445C574.719 103.893 574.161 103.617 573.453 103.617C572.578 103.617 571.922 104.005 571.484 104.781V108.82C571.917 109.591 572.578 109.977 573.469 109.977C574.161 109.977 574.711 109.703 575.117 109.156C575.529 108.604 575.734 107.786 575.734 106.703ZM583.945 108.758C583.945 108.367 583.797 108.065 583.5 107.852C583.208 107.633 582.695 107.445 581.961 107.289C581.232 107.133 580.651 106.945 580.219 106.727C579.792 106.508 579.474 106.247 579.266 105.945C579.062 105.643 578.961 105.284 578.961 104.867C578.961 104.174 579.253 103.589 579.836 103.109C580.424 102.63 581.174 102.391 582.086 102.391C583.044 102.391 583.82 102.638 584.414 103.133C585.013 103.628 585.312 104.26 585.312 105.031H583.859C583.859 104.635 583.69 104.294 583.352 104.008C583.018 103.721 582.596 103.578 582.086 103.578C581.56 103.578 581.148 103.693 580.852 103.922C580.555 104.151 580.406 104.451 580.406 104.82C580.406 105.169 580.544 105.432 580.82 105.609C581.096 105.786 581.594 105.956 582.312 106.117C583.036 106.279 583.622 106.471 584.07 106.695C584.518 106.919 584.849 107.19 585.062 107.508C585.281 107.82 585.391 108.203 585.391 108.656C585.391 109.411 585.089 110.018 584.484 110.477C583.88 110.93 583.096 111.156 582.133 111.156C581.456 111.156 580.857 111.036 580.336 110.797C579.815 110.557 579.406 110.224 579.109 109.797C578.818 109.365 578.672 108.898 578.672 108.398H580.117C580.143 108.883 580.336 109.268 580.695 109.555C581.06 109.836 581.539 109.977 582.133 109.977C582.68 109.977 583.117 109.867 583.445 109.648C583.779 109.424 583.945 109.128 583.945 108.758ZM599.836 107.391C599.695 108.594 599.25 109.523 598.5 110.18C597.755 110.831 596.763 111.156 595.523 111.156C594.18 111.156 593.102 110.674 592.289 109.711C591.482 108.747 591.078 107.458 591.078 105.844V104.75C591.078 103.693 591.266 102.763 591.641 101.961C592.021 101.159 592.557 100.544 593.25 100.117C593.943 99.6849 594.745 99.4688 595.656 99.4688C596.865 99.4688 597.833 99.8073 598.562 100.484C599.292 101.156 599.716 102.089 599.836 103.281H598.328C598.198 102.375 597.914 101.719 597.477 101.312C597.044 100.906 596.438 100.703 595.656 100.703C594.698 100.703 593.945 101.057 593.398 101.766C592.857 102.474 592.586 103.482 592.586 104.789V105.891C592.586 107.125 592.844 108.107 593.359 108.836C593.875 109.565 594.596 109.93 595.523 109.93C596.357 109.93 596.995 109.742 597.438 109.367C597.885 108.987 598.182 108.328 598.328 107.391H599.836ZM606.883 111C606.799 110.833 606.732 110.536 606.68 110.109C606.008 110.807 605.206 111.156 604.273 111.156C603.44 111.156 602.755 110.922 602.219 110.453C601.688 109.979 601.422 109.38 601.422 108.656C601.422 107.776 601.755 107.094 602.422 106.609C603.094 106.12 604.036 105.875 605.25 105.875H606.656V105.211C606.656 104.706 606.505 104.305 606.203 104.008C605.901 103.706 605.456 103.555 604.867 103.555C604.352 103.555 603.919 103.685 603.57 103.945C603.221 104.206 603.047 104.521 603.047 104.891H601.594C601.594 104.469 601.742 104.062 602.039 103.672C602.341 103.276 602.747 102.964 603.258 102.734C603.773 102.505 604.339 102.391 604.953 102.391C605.927 102.391 606.69 102.635 607.242 103.125C607.794 103.609 608.081 104.279 608.102 105.133V109.023C608.102 109.799 608.201 110.417 608.398 110.875V111H606.883ZM604.484 109.898C604.938 109.898 605.367 109.781 605.773 109.547C606.18 109.312 606.474 109.008 606.656 108.633V106.898H605.523C603.753 106.898 602.867 107.417 602.867 108.453C602.867 108.906 603.018 109.26 603.32 109.516C603.622 109.771 604.01 109.898 604.484 109.898ZM613.758 109.977C614.273 109.977 614.724 109.82 615.109 109.508C615.495 109.195 615.708 108.805 615.75 108.336H617.117C617.091 108.82 616.924 109.281 616.617 109.719C616.31 110.156 615.898 110.505 615.383 110.766C614.872 111.026 614.331 111.156 613.758 111.156C612.607 111.156 611.69 110.773 611.008 110.008C610.331 109.237 609.992 108.185 609.992 106.852V106.609C609.992 105.786 610.143 105.055 610.445 104.414C610.747 103.773 611.18 103.276 611.742 102.922C612.31 102.568 612.979 102.391 613.75 102.391C614.698 102.391 615.484 102.674 616.109 103.242C616.74 103.81 617.076 104.547 617.117 105.453H615.75C615.708 104.906 615.5 104.458 615.125 104.109C614.755 103.755 614.297 103.578 613.75 103.578C613.016 103.578 612.445 103.844 612.039 104.375C611.638 104.901 611.438 105.664 611.438 106.664V106.938C611.438 107.911 611.638 108.661 612.039 109.188C612.44 109.714 613.013 109.977 613.758 109.977ZM620.188 103.57C620.828 102.784 621.661 102.391 622.688 102.391C624.474 102.391 625.375 103.398 625.391 105.414V111H623.945V105.406C623.94 104.797 623.799 104.346 623.523 104.055C623.253 103.763 622.828 103.617 622.25 103.617C621.781 103.617 621.37 103.742 621.016 103.992C620.661 104.242 620.385 104.57 620.188 104.977V111H618.742V99H620.188V103.57ZM631.062 111.156C629.917 111.156 628.984 110.781 628.266 110.031C627.547 109.276 627.188 108.268 627.188 107.008V106.742C627.188 105.904 627.346 105.156 627.664 104.5C627.987 103.839 628.435 103.323 629.008 102.953C629.586 102.578 630.211 102.391 630.883 102.391C631.982 102.391 632.836 102.753 633.445 103.477C634.055 104.201 634.359 105.237 634.359 106.586V107.188H628.633C628.654 108.021 628.896 108.695 629.359 109.211C629.828 109.721 630.422 109.977 631.141 109.977C631.651 109.977 632.083 109.872 632.438 109.664C632.792 109.456 633.102 109.18 633.367 108.836L634.25 109.523C633.542 110.612 632.479 111.156 631.062 111.156ZM630.883 103.578C630.299 103.578 629.81 103.792 629.414 104.219C629.018 104.641 628.773 105.234 628.68 106H632.914V105.891C632.872 105.156 632.674 104.589 632.32 104.188C631.966 103.781 631.487 103.578 630.883 103.578ZM640.961 108.758C640.961 108.367 640.812 108.065 640.516 107.852C640.224 107.633 639.711 107.445 638.977 107.289C638.247 107.133 637.667 106.945 637.234 106.727C636.807 106.508 636.49 106.247 636.281 105.945C636.078 105.643 635.977 105.284 635.977 104.867C635.977 104.174 636.268 103.589 636.852 103.109C637.44 102.63 638.19 102.391 639.102 102.391C640.06 102.391 640.836 102.638 641.43 103.133C642.029 103.628 642.328 104.26 642.328 105.031H640.875C640.875 104.635 640.706 104.294 640.367 104.008C640.034 103.721 639.612 103.578 639.102 103.578C638.576 103.578 638.164 103.693 637.867 103.922C637.57 104.151 637.422 104.451 637.422 104.82C637.422 105.169 637.56 105.432 637.836 105.609C638.112 105.786 638.609 105.956 639.328 106.117C640.052 106.279 640.638 106.471 641.086 106.695C641.534 106.919 641.865 107.19 642.078 107.508C642.297 107.82 642.406 108.203 642.406 108.656C642.406 109.411 642.104 110.018 641.5 110.477C640.896 110.93 640.112 111.156 639.148 111.156C638.471 111.156 637.872 111.036 637.352 110.797C636.831 110.557 636.422 110.224 636.125 109.797C635.833 109.365 635.688 108.898 635.688 108.398H637.133C637.159 108.883 637.352 109.268 637.711 109.555C638.076 109.836 638.555 109.977 639.148 109.977C639.695 109.977 640.133 109.867 640.461 109.648C640.794 109.424 640.961 109.128 640.961 108.758ZM644.242 113.266L643.422 112.703C643.911 112.021 644.167 111.318 644.188 110.594V109.289H645.602V110.422C645.602 110.948 645.471 111.474 645.211 112C644.956 112.526 644.633 112.948 644.242 113.266ZM657.906 108.031H653.141L652.07 111H650.523L654.867 99.625H656.18L660.531 111H658.992L657.906 108.031ZM653.594 106.797H657.461L655.523 101.477L653.594 106.797ZM666.961 110.164C666.398 110.826 665.573 111.156 664.484 111.156C663.583 111.156 662.896 110.896 662.422 110.375C661.953 109.849 661.716 109.073 661.711 108.047V102.547H663.156V108.008C663.156 109.289 663.677 109.93 664.719 109.93C665.823 109.93 666.557 109.518 666.922 108.695V102.547H668.367V111H666.992L666.961 110.164ZM670.219 106.703C670.219 105.406 670.526 104.365 671.141 103.578C671.755 102.786 672.56 102.391 673.555 102.391C674.544 102.391 675.328 102.729 675.906 103.406V99H677.352V111H676.023L675.953 110.094C675.375 110.802 674.57 111.156 673.539 111.156C672.56 111.156 671.76 110.755 671.141 109.953C670.526 109.151 670.219 108.104 670.219 106.812V106.703ZM671.664 106.867C671.664 107.826 671.862 108.576 672.258 109.117C672.654 109.659 673.201 109.93 673.898 109.93C674.815 109.93 675.484 109.518 675.906 108.695V104.812C675.474 104.016 674.81 103.617 673.914 103.617C673.206 103.617 672.654 103.891 672.258 104.438C671.862 104.984 671.664 105.794 671.664 106.867ZM681.172 111H679.727V102.547H681.172V111ZM679.609 100.305C679.609 100.07 679.68 99.8724 679.82 99.7109C679.966 99.5495 680.18 99.4688 680.461 99.4688C680.742 99.4688 680.956 99.5495 681.102 99.7109C681.247 99.8724 681.32 100.07 681.32 100.305C681.32 100.539 681.247 100.734 681.102 100.891C680.956 101.047 680.742 101.125 680.461 101.125C680.18 101.125 679.966 101.047 679.82 100.891C679.68 100.734 679.609 100.539 679.609 100.305ZM685.453 100.5V102.547H687.031V103.664H685.453V108.906C685.453 109.245 685.523 109.5 685.664 109.672C685.805 109.839 686.044 109.922 686.383 109.922C686.549 109.922 686.779 109.891 687.07 109.828V111C686.69 111.104 686.32 111.156 685.961 111.156C685.315 111.156 684.828 110.961 684.5 110.57C684.172 110.18 684.008 109.625 684.008 108.906V103.664H682.469V102.547H684.008V100.5H685.453ZM693.648 108.758C693.648 108.367 693.5 108.065 693.203 107.852C692.911 107.633 692.398 107.445 691.664 107.289C690.935 107.133 690.354 106.945 689.922 106.727C689.495 106.508 689.177 106.247 688.969 105.945C688.766 105.643 688.664 105.284 688.664 104.867C688.664 104.174 688.956 103.589 689.539 103.109C690.128 102.63 690.878 102.391 691.789 102.391C692.747 102.391 693.523 102.638 694.117 103.133C694.716 103.628 695.016 104.26 695.016 105.031H693.562C693.562 104.635 693.393 104.294 693.055 104.008C692.721 103.721 692.299 103.578 691.789 103.578C691.263 103.578 690.852 103.693 690.555 103.922C690.258 104.151 690.109 104.451 690.109 104.82C690.109 105.169 690.247 105.432 690.523 105.609C690.799 105.786 691.297 105.956 692.016 106.117C692.74 106.279 693.326 106.471 693.773 106.695C694.221 106.919 694.552 107.19 694.766 107.508C694.984 107.82 695.094 108.203 695.094 108.656C695.094 109.411 694.792 110.018 694.188 110.477C693.583 110.93 692.799 111.156 691.836 111.156C691.159 111.156 690.56 111.036 690.039 110.797C689.518 110.557 689.109 110.224 688.812 109.797C688.521 109.365 688.375 108.898 688.375 108.398H689.82C689.846 108.883 690.039 109.268 690.398 109.555C690.763 109.836 691.242 109.977 691.836 109.977C692.383 109.977 692.82 109.867 693.148 109.648C693.482 109.424 693.648 109.128 693.648 108.758ZM700.641 107.945C700.641 107.398 700.792 106.896 701.094 106.438C701.401 105.979 701.984 105.445 702.844 104.836C702.339 104.221 702 103.727 701.828 103.352C701.656 102.977 701.57 102.604 701.57 102.234C701.57 101.37 701.826 100.693 702.336 100.203C702.846 99.7135 703.539 99.4688 704.414 99.4688C705.195 99.4688 705.841 99.6979 706.352 100.156C706.862 100.609 707.117 101.182 707.117 101.875C707.117 102.333 707 102.758 706.766 103.148C706.536 103.534 706.133 103.94 705.555 104.367L704.719 104.984L707.25 108.008C707.604 107.331 707.781 106.578 707.781 105.75H709.086C709.086 107.078 708.766 108.18 708.125 109.055L709.75 111H708.016L707.258 110.102C706.872 110.445 706.419 110.708 705.898 110.891C705.383 111.068 704.857 111.156 704.32 111.156C703.211 111.156 702.32 110.862 701.648 110.273C700.977 109.685 700.641 108.909 700.641 107.945ZM704.32 109.977C705.086 109.977 705.786 109.685 706.422 109.102L703.648 105.781L703.391 105.969C702.521 106.609 702.086 107.268 702.086 107.945C702.086 108.56 702.284 109.052 702.68 109.422C703.081 109.792 703.628 109.977 704.32 109.977ZM703.016 102.188C703.016 102.688 703.323 103.312 703.938 104.062L704.859 103.414C705.214 103.164 705.456 102.927 705.586 102.703C705.716 102.474 705.781 102.198 705.781 101.875C705.781 101.526 705.651 101.237 705.391 101.008C705.13 100.773 704.802 100.656 704.406 100.656C703.979 100.656 703.641 100.802 703.391 101.094C703.141 101.38 703.016 101.745 703.016 102.188ZM591.82 126.391C591.68 127.594 591.234 128.523 590.484 129.18C589.74 129.831 588.747 130.156 587.508 130.156C586.164 130.156 585.086 129.674 584.273 128.711C583.466 127.747 583.062 126.458 583.062 124.844V123.75C583.062 122.693 583.25 121.763 583.625 120.961C584.005 120.159 584.542 119.544 585.234 119.117C585.927 118.685 586.729 118.469 587.641 118.469C588.849 118.469 589.818 118.807 590.547 119.484C591.276 120.156 591.701 121.089 591.82 122.281H590.312C590.182 121.375 589.898 120.719 589.461 120.312C589.029 119.906 588.422 119.703 587.641 119.703C586.682 119.703 585.93 120.057 585.383 120.766C584.841 121.474 584.57 122.482 584.57 123.789V124.891C584.57 126.125 584.828 127.107 585.344 127.836C585.859 128.565 586.581 128.93 587.508 128.93C588.341 128.93 588.979 128.742 589.422 128.367C589.87 127.987 590.167 127.328 590.312 126.391H591.82ZM593.266 125.695C593.266 124.867 593.427 124.122 593.75 123.461C594.078 122.799 594.531 122.289 595.109 121.93C595.693 121.57 596.357 121.391 597.102 121.391C598.253 121.391 599.182 121.789 599.891 122.586C600.604 123.383 600.961 124.443 600.961 125.766V125.867C600.961 126.69 600.802 127.43 600.484 128.086C600.172 128.737 599.721 129.245 599.133 129.609C598.549 129.974 597.878 130.156 597.117 130.156C595.971 130.156 595.042 129.758 594.328 128.961C593.62 128.164 593.266 127.109 593.266 125.797V125.695ZM594.719 125.867C594.719 126.805 594.935 127.557 595.367 128.125C595.805 128.693 596.388 128.977 597.117 128.977C597.852 128.977 598.435 128.69 598.867 128.117C599.299 127.539 599.516 126.732 599.516 125.695C599.516 124.768 599.294 124.018 598.852 123.445C598.414 122.867 597.831 122.578 597.102 122.578C596.388 122.578 595.812 122.862 595.375 123.43C594.938 123.997 594.719 124.81 594.719 125.867ZM604.133 121.547L604.172 122.484C604.792 121.755 605.628 121.391 606.68 121.391C607.862 121.391 608.667 121.844 609.094 122.75C609.375 122.344 609.74 122.016 610.188 121.766C610.641 121.516 611.174 121.391 611.789 121.391C613.643 121.391 614.586 122.372 614.617 124.336V130H613.172V124.422C613.172 123.818 613.034 123.367 612.758 123.07C612.482 122.768 612.018 122.617 611.367 122.617C610.831 122.617 610.385 122.779 610.031 123.102C609.677 123.419 609.471 123.849 609.414 124.391V130H607.961V124.461C607.961 123.232 607.359 122.617 606.156 122.617C605.208 122.617 604.56 123.021 604.211 123.828V130H602.766V121.547H604.133ZM623.945 125.867C623.945 127.154 623.651 128.19 623.062 128.977C622.474 129.763 621.677 130.156 620.672 130.156C619.646 130.156 618.839 129.831 618.25 129.18V133.25H616.805V121.547H618.125L618.195 122.484C618.784 121.755 619.602 121.391 620.648 121.391C621.664 121.391 622.466 121.773 623.055 122.539C623.648 123.305 623.945 124.37 623.945 125.734V125.867ZM622.5 125.703C622.5 124.75 622.297 123.997 621.891 123.445C621.484 122.893 620.927 122.617 620.219 122.617C619.344 122.617 618.688 123.005 618.25 123.781V127.82C618.682 128.591 619.344 128.977 620.234 128.977C620.927 128.977 621.477 128.703 621.883 128.156C622.294 127.604 622.5 126.786 622.5 125.703ZM627.359 130H625.914V118H627.359V130ZM631.25 130H629.805V121.547H631.25V130ZM629.688 119.305C629.688 119.07 629.758 118.872 629.898 118.711C630.044 118.549 630.258 118.469 630.539 118.469C630.82 118.469 631.034 118.549 631.18 118.711C631.326 118.872 631.398 119.07 631.398 119.305C631.398 119.539 631.326 119.734 631.18 119.891C631.034 120.047 630.82 120.125 630.539 120.125C630.258 120.125 630.044 120.047 629.898 119.891C629.758 119.734 629.688 119.539 629.688 119.305ZM638.789 130C638.706 129.833 638.638 129.536 638.586 129.109C637.914 129.807 637.112 130.156 636.18 130.156C635.346 130.156 634.661 129.922 634.125 129.453C633.594 128.979 633.328 128.38 633.328 127.656C633.328 126.776 633.661 126.094 634.328 125.609C635 125.12 635.943 124.875 637.156 124.875H638.562V124.211C638.562 123.706 638.411 123.305 638.109 123.008C637.807 122.706 637.362 122.555 636.773 122.555C636.258 122.555 635.826 122.685 635.477 122.945C635.128 123.206 634.953 123.521 634.953 123.891H633.5C633.5 123.469 633.648 123.062 633.945 122.672C634.247 122.276 634.654 121.964 635.164 121.734C635.68 121.505 636.245 121.391 636.859 121.391C637.833 121.391 638.596 121.635 639.148 122.125C639.701 122.609 639.987 123.279 640.008 124.133V128.023C640.008 128.799 640.107 129.417 640.305 129.875V130H638.789ZM636.391 128.898C636.844 128.898 637.273 128.781 637.68 128.547C638.086 128.312 638.38 128.008 638.562 127.633V125.898H637.43C635.659 125.898 634.773 126.417 634.773 127.453C634.773 127.906 634.924 128.26 635.227 128.516C635.529 128.771 635.917 128.898 636.391 128.898ZM643.641 121.547L643.688 122.609C644.333 121.797 645.177 121.391 646.219 121.391C648.005 121.391 648.906 122.398 648.922 124.414V130H647.477V124.406C647.471 123.797 647.331 123.346 647.055 123.055C646.784 122.763 646.359 122.617 645.781 122.617C645.312 122.617 644.901 122.742 644.547 122.992C644.193 123.242 643.917 123.57 643.719 123.977V130H642.273V121.547H643.641ZM654.492 128.977C655.008 128.977 655.458 128.82 655.844 128.508C656.229 128.195 656.443 127.805 656.484 127.336H657.852C657.826 127.82 657.659 128.281 657.352 128.719C657.044 129.156 656.633 129.505 656.117 129.766C655.607 130.026 655.065 130.156 654.492 130.156C653.341 130.156 652.424 129.773 651.742 129.008C651.065 128.237 650.727 127.185 650.727 125.852V125.609C650.727 124.786 650.878 124.055 651.18 123.414C651.482 122.773 651.914 122.276 652.477 121.922C653.044 121.568 653.714 121.391 654.484 121.391C655.432 121.391 656.219 121.674 656.844 122.242C657.474 122.81 657.81 123.547 657.852 124.453H656.484C656.443 123.906 656.234 123.458 655.859 123.109C655.49 122.755 655.031 122.578 654.484 122.578C653.75 122.578 653.18 122.844 652.773 123.375C652.372 123.901 652.172 124.664 652.172 125.664V125.938C652.172 126.911 652.372 127.661 652.773 128.188C653.174 128.714 653.747 128.977 654.492 128.977ZM662.984 130.156C661.839 130.156 660.906 129.781 660.188 129.031C659.469 128.276 659.109 127.268 659.109 126.008V125.742C659.109 124.904 659.268 124.156 659.586 123.5C659.909 122.839 660.357 122.323 660.93 121.953C661.508 121.578 662.133 121.391 662.805 121.391C663.904 121.391 664.758 121.753 665.367 122.477C665.977 123.201 666.281 124.237 666.281 125.586V126.188H660.555C660.576 127.021 660.818 127.695 661.281 128.211C661.75 128.721 662.344 128.977 663.062 128.977C663.573 128.977 664.005 128.872 664.359 128.664C664.714 128.456 665.023 128.18 665.289 127.836L666.172 128.523C665.464 129.612 664.401 130.156 662.984 130.156ZM662.805 122.578C662.221 122.578 661.732 122.792 661.336 123.219C660.94 123.641 660.695 124.234 660.602 125H664.836V124.891C664.794 124.156 664.596 123.589 664.242 123.188C663.888 122.781 663.409 122.578 662.805 122.578Z" fill="#5452F6"/>
</g>
<rect x="512.5" y="0.5" width="224" height="142" rx="7.5" stroke="#5452F6"/>
</g>
<g filter="url(#filter3_d)">
<rect width="225" height="143" rx="8" fill="#E5FDE8"/>
<path d="M113 57C121.837 57 129 49.8366 129 41C129 32.1634 121.837 25 113 25C104.163 25 97 32.1634 97 41C97 49.8366 104.163 57 113 57Z" stroke="#65BF73" stroke-width="2" stroke-linecap="round" stroke-linejoin="round"/>
<path d="M94.2642 75C98.1302 75 101.264 71.866 101.264 68C101.264 64.134 98.1302 61 94.2642 61C90.3982 61 87.2642 64.134 87.2642 68C87.2642 71.866 90.3982 75 94.2642 75Z" stroke="#65BF73" stroke-width="2" stroke-linecap="round" stroke-linejoin="round"/>
<path d="M131.736 75C135.602 75 138.736 71.866 138.736 68C138.736 64.134 135.602 61 131.736 61C127.87 61 124.736 64.134 124.736 68C124.736 71.866 127.87 75 131.736 75Z" stroke="#65BF73" stroke-width="2" stroke-linecap="round" stroke-linejoin="round"/>
<path d="M97 41H129" stroke="#65BF73" stroke-width="2" stroke-linecap="round" stroke-linejoin="round"/>
<path d="M113 57C116.314 57 119 49.8366 119 41C119 32.1634 116.314 25 113 25C109.686 25 107 32.1634 107 41C107 49.8366 109.686 57 113 57Z" stroke="#65BF73" stroke-width="2" stroke-linecap="round" stroke-linejoin="round"/>
<path d="M105.533 85C104.718 82.6621 103.196 80.6358 101.177 79.2019C99.1586 77.7681 96.744 76.9978 94.268 76.9978C91.7921 76.9978 89.3775 77.7681 87.3589 79.2019C85.3404 80.6358 83.818 82.6621 83.0027 85" stroke="#65BF73" stroke-width="2" stroke-linecap="round" stroke-linejoin="round"/>
<path d="M143 85C142.185 82.6621 140.662 80.6358 138.644 79.2019C136.625 77.7681 134.211 76.9978 131.735 76.9978C129.259 76.9978 126.844 77.7681 124.825 79.2019C122.807 80.6358 121.285 82.6621 120.469 85" stroke="#65BF73" stroke-width="2" stroke-linecap="round" stroke-linejoin="round"/>
<path d="M57.2734 114.547V119H55.7734V107.625H59.9688C61.2135 107.625 62.1875 107.943 62.8906 108.578C63.599 109.214 63.9531 110.055 63.9531 111.102C63.9531 112.206 63.6068 113.057 62.9141 113.656C62.2266 114.25 61.2396 114.547 59.9531 114.547H57.2734ZM57.2734 113.32H59.9688C60.7708 113.32 61.3854 113.133 61.8125 112.758C62.2396 112.378 62.4531 111.831 62.4531 111.117C62.4531 110.44 62.2396 109.898 61.8125 109.492C61.3854 109.086 60.7995 108.875 60.0547 108.859H57.2734V113.32ZM70.8594 118.164C70.2969 118.826 69.4714 119.156 68.3828 119.156C67.4818 119.156 66.7943 118.896 66.3203 118.375C65.8516 117.849 65.6146 117.073 65.6094 116.047V110.547H67.0547V116.008C67.0547 117.289 67.5755 117.93 68.6172 117.93C69.7214 117.93 70.4557 117.518 70.8203 116.695V110.547H72.2656V119H70.8906L70.8594 118.164ZM81.625 114.867C81.625 116.159 81.3281 117.198 80.7344 117.984C80.1406 118.766 79.3438 119.156 78.3438 119.156C77.276 119.156 76.4505 118.779 75.8672 118.023L75.7969 119H74.4688V107H75.9141V111.477C76.4974 110.753 77.3021 110.391 78.3281 110.391C79.3542 110.391 80.1589 110.779 80.7422 111.555C81.3307 112.331 81.625 113.393 81.625 114.742V114.867ZM80.1797 114.703C80.1797 113.719 79.9896 112.958 79.6094 112.422C79.2292 111.885 78.6823 111.617 77.9688 111.617C77.0156 111.617 76.3307 112.06 75.9141 112.945V116.602C76.3568 117.487 77.0469 117.93 77.9844 117.93C78.6771 117.93 79.2161 117.661 79.6016 117.125C79.987 116.589 80.1797 115.781 80.1797 114.703ZM85.0234 119H83.5781V107H85.0234V119ZM88.9141 119H87.4688V110.547H88.9141V119ZM87.3516 108.305C87.3516 108.07 87.4219 107.872 87.5625 107.711C87.7083 107.549 87.9219 107.469 88.2031 107.469C88.4844 107.469 88.6979 107.549 88.8438 107.711C88.9896 107.872 89.0625 108.07 89.0625 108.305C89.0625 108.539 88.9896 108.734 88.8438 108.891C88.6979 109.047 88.4844 109.125 88.2031 109.125C87.9219 109.125 87.7083 109.047 87.5625 108.891C87.4219 108.734 87.3516 108.539 87.3516 108.305ZM94.625 117.977C95.1406 117.977 95.5911 117.82 95.9766 117.508C96.362 117.195 96.5755 116.805 96.6172 116.336H97.9844C97.9583 116.82 97.7917 117.281 97.4844 117.719C97.1771 118.156 96.7656 118.505 96.25 118.766C95.7396 119.026 95.1979 119.156 94.625 119.156C93.474 119.156 92.5573 118.773 91.875 118.008C91.1979 117.237 90.8594 116.185 90.8594 114.852V114.609C90.8594 113.786 91.0104 113.055 91.3125 112.414C91.6146 111.773 92.0469 111.276 92.6094 110.922C93.1771 110.568 93.8464 110.391 94.6172 110.391C95.5651 110.391 96.3516 110.674 96.9766 111.242C97.6068 111.81 97.9427 112.547 97.9844 113.453H96.6172C96.5755 112.906 96.3672 112.458 95.9922 112.109C95.6224 111.755 95.1641 111.578 94.6172 111.578C93.8828 111.578 93.3125 111.844 92.9062 112.375C92.5052 112.901 92.3047 113.664 92.3047 114.664V114.938C92.3047 115.911 92.5052 116.661 92.9062 117.188C93.3073 117.714 93.8802 117.977 94.625 117.977ZM112.547 119H111.039L105.312 110.234V119H103.805V107.625H105.312L111.055 116.43V107.625H112.547V119ZM118.492 119.156C117.346 119.156 116.414 118.781 115.695 118.031C114.977 117.276 114.617 116.268 114.617 115.008V114.742C114.617 113.904 114.776 113.156 115.094 112.5C115.417 111.839 115.865 111.323 116.438 110.953C117.016 110.578 117.641 110.391 118.312 110.391C119.411 110.391 120.266 110.753 120.875 111.477C121.484 112.201 121.789 113.237 121.789 114.586V115.188H116.062C116.083 116.021 116.326 116.695 116.789 117.211C117.258 117.721 117.852 117.977 118.57 117.977C119.081 117.977 119.513 117.872 119.867 117.664C120.221 117.456 120.531 117.18 120.797 116.836L121.68 117.523C120.971 118.612 119.909 119.156 118.492 119.156ZM118.312 111.578C117.729 111.578 117.24 111.792 116.844 112.219C116.448 112.641 116.203 113.234 116.109 114H120.344V113.891C120.302 113.156 120.104 112.589 119.75 112.188C119.396 111.781 118.917 111.578 118.312 111.578ZM125.43 108.5V110.547H127.008V111.664H125.43V116.906C125.43 117.245 125.5 117.5 125.641 117.672C125.781 117.839 126.021 117.922 126.359 117.922C126.526 117.922 126.755 117.891 127.047 117.828V119C126.667 119.104 126.297 119.156 125.938 119.156C125.292 119.156 124.805 118.961 124.477 118.57C124.148 118.18 123.984 117.625 123.984 116.906V111.664H122.445V110.547H123.984V108.5H125.43ZM136.188 117.008L137.812 110.547H139.258L136.797 119H135.625L133.57 112.594L131.57 119H130.398L127.945 110.547H129.383L131.047 116.875L133.016 110.547H134.18L136.188 117.008ZM140.352 114.695C140.352 113.867 140.513 113.122 140.836 112.461C141.164 111.799 141.617 111.289 142.195 110.93C142.779 110.57 143.443 110.391 144.188 110.391C145.339 110.391 146.268 110.789 146.977 111.586C147.69 112.383 148.047 113.443 148.047 114.766V114.867C148.047 115.69 147.888 116.43 147.57 117.086C147.258 117.737 146.807 118.245 146.219 118.609C145.635 118.974 144.964 119.156 144.203 119.156C143.057 119.156 142.128 118.758 141.414 117.961C140.706 117.164 140.352 116.109 140.352 114.797V114.695ZM141.805 114.867C141.805 115.805 142.021 116.557 142.453 117.125C142.891 117.693 143.474 117.977 144.203 117.977C144.938 117.977 145.521 117.69 145.953 117.117C146.385 116.539 146.602 115.732 146.602 114.695C146.602 113.768 146.38 113.018 145.938 112.445C145.5 111.867 144.917 111.578 144.188 111.578C143.474 111.578 142.898 111.862 142.461 112.43C142.023 112.997 141.805 113.81 141.805 114.867ZM153.945 111.844C153.727 111.807 153.49 111.789 153.234 111.789C152.286 111.789 151.643 112.193 151.305 113V119H149.859V110.547H151.266L151.289 111.523C151.763 110.768 152.435 110.391 153.305 110.391C153.586 110.391 153.799 110.427 153.945 110.5V111.844ZM157.641 115.086L156.734 116.031V119H155.289V107H156.734V114.258L157.508 113.328L160.141 110.547H161.898L158.609 114.078L162.281 119H160.586L157.641 115.086ZM168.312 116.758C168.312 116.367 168.164 116.065 167.867 115.852C167.576 115.633 167.062 115.445 166.328 115.289C165.599 115.133 165.018 114.945 164.586 114.727C164.159 114.508 163.841 114.247 163.633 113.945C163.43 113.643 163.328 113.284 163.328 112.867C163.328 112.174 163.62 111.589 164.203 111.109C164.792 110.63 165.542 110.391 166.453 110.391C167.411 110.391 168.188 110.638 168.781 111.133C169.38 111.628 169.68 112.26 169.68 113.031H168.227C168.227 112.635 168.057 112.294 167.719 112.008C167.385 111.721 166.964 111.578 166.453 111.578C165.927 111.578 165.516 111.693 165.219 111.922C164.922 112.151 164.773 112.451 164.773 112.82C164.773 113.169 164.911 113.432 165.188 113.609C165.464 113.786 165.961 113.956 166.68 114.117C167.404 114.279 167.99 114.471 168.438 114.695C168.885 114.919 169.216 115.19 169.43 115.508C169.648 115.82 169.758 116.203 169.758 116.656C169.758 117.411 169.456 118.018 168.852 118.477C168.247 118.93 167.464 119.156 166.5 119.156C165.823 119.156 165.224 119.036 164.703 118.797C164.182 118.557 163.773 118.224 163.477 117.797C163.185 117.365 163.039 116.898 163.039 116.398H164.484C164.51 116.883 164.703 117.268 165.062 117.555C165.427 117.836 165.906 117.977 166.5 117.977C167.047 117.977 167.484 117.867 167.812 117.648C168.146 117.424 168.312 117.128 168.312 116.758Z" fill="#65BF73"/>
<rect x="0.5" y="0.5" width="224" height="142" rx="7.5" stroke="#65BF73"/>
</g>
<defs>
<filter id="filter0_d" x="768" y="0" width="229" height="147" filterUnits="userSpaceOnUse" color-interpolation-filters="sRGB">
<feFlood flood-opacity="0" result="BackgroundImageFix"/>
<feColorMatrix in="SourceAlpha" type="matrix" values="0 0 0 0 0 0 0 0 0 0 0 0 0 0 0 0 0 0 127 0"/>
<feOffset dx="4" dy="4"/>
<feColorMatrix type="matrix" values="0 0 0 0 0.513733 0 0 0 0 0.767915 0 0 0 0 0.970833 0 0 0 1 0"/>
<feBlend mode="normal" in2="BackgroundImageFix" result="effect1_dropShadow"/>
<feBlend mode="normal" in="SourceGraphic" in2="effect1_dropShadow" result="shape"/>
</filter>
<filter id="filter1_d" x="256" y="0" width="229" height="147" filterUnits="userSpaceOnUse" color-interpolation-filters="sRGB">
<feFlood flood-opacity="0" result="BackgroundImageFix"/>
<feColorMatrix in="SourceAlpha" type="matrix" values="0 0 0 0 0 0 0 0 0 0 0 0 0 0 0 0 0 0 127 0"/>
<feOffset dx="4" dy="4"/>
<feColorMatrix type="matrix" values="0 0 0 0 0.9875 0 0 0 0 0.738327 0 0 0 0 0.703594 0 0 0 1 0"/>
<feBlend mode="normal" in2="BackgroundImageFix" result="effect1_dropShadow"/>
<feBlend mode="normal" in="SourceGraphic" in2="effect1_dropShadow" result="shape"/>
</filter>
<filter id="filter2_d" x="512" y="0" width="229" height="147" filterUnits="userSpaceOnUse" color-interpolation-filters="sRGB">
<feFlood flood-opacity="0" result="BackgroundImageFix"/>
<feColorMatrix in="SourceAlpha" type="matrix" values="0 0 0 0 0 0 0 0 0 0 0 0 0 0 0 0 0 0 127 0"/>
<feOffset dx="4" dy="4"/>
<feColorMatrix type="matrix" values="0 0 0 0 0.674908 0 0 0 0 0.662083 0 0 0 0 0.945833 0 0 0 1 0"/>
<feBlend mode="normal" in2="BackgroundImageFix" result="effect1_dropShadow"/>
<feBlend mode="normal" in="SourceGraphic" in2="effect1_dropShadow" result="shape"/>
</filter>
<filter id="filter3_d" x="0" y="0" width="229" height="147" filterUnits="userSpaceOnUse" color-interpolation-filters="sRGB">
<feFlood flood-opacity="0" result="BackgroundImageFix"/>
<feColorMatrix in="SourceAlpha" type="matrix" values="0 0 0 0 0 0 0 0 0 0 0 0 0 0 0 0 0 0 127 0"/>
<feOffset dx="4" dy="4"/>
<feColorMatrix type="matrix" values="0 0 0 0 0.578021 0 0 0 0 0.775 0 0 0 0 0.608662 0 0 0 1 0"/>
<feBlend mode="normal" in2="BackgroundImageFix" result="effect1_dropShadow"/>
<feBlend mode="normal" in="SourceGraphic" in2="effect1_dropShadow" result="shape"/>
</filter>
<clipPath id="clip0">
<rect x="512" width="225" height="143" rx="8" fill="white"/>
</clipPath>
</defs>
</svg>
