<svg width="404" height="134" viewBox="0 0 404 134" fill="none" xmlns="http://www.w3.org/2000/svg">
<g filter="url(#filter0_d)">
<rect width="400" height="130" rx="8" fill="#E7F4FF"/>
<path d="M28 20.5H108.5V59.5H28C23.8579 59.5 20.5 56.1421 20.5 52V28C20.5 23.8579 23.8579 20.5 28 20.5Z" fill="#E7F4FF"/>
<path d="M41.7656 45.5V34.125H44.9766C45.9661 34.125 46.8411 34.3438 47.6016 34.7812C48.362 35.2188 48.9479 35.8411 49.3594 36.6484C49.776 37.4557 49.987 38.3828 49.9922 39.4297V40.1562C49.9922 41.2292 49.7839 42.1693 49.3672 42.9766C48.9557 43.7839 48.3646 44.4036 47.5938 44.8359C46.8281 45.2682 45.9349 45.4896 44.9141 45.5H41.7656ZM43.2656 35.3594V44.2734H44.8438C46 44.2734 46.8984 43.9141 47.5391 43.1953C48.1849 42.4766 48.5078 41.4531 48.5078 40.125V39.4609C48.5078 38.1693 48.2031 37.1667 47.5938 36.4531C46.9896 35.7344 46.1302 35.3698 45.0156 35.3594H43.2656ZM58.375 42.5312H53.6094L52.5391 45.5H50.9922L55.3359 34.125H56.6484L61 45.5H59.4609L58.375 42.5312ZM54.0625 41.2969H57.9297L55.9922 35.9766L54.0625 41.2969ZM69.375 35.3594H65.7188V45.5H64.2266V35.3594H60.5781V34.125H69.375V35.3594ZM76.7188 42.5312H71.9531L70.8828 45.5H69.3359L73.6797 34.125H74.9922L79.3438 45.5H77.8047L76.7188 42.5312ZM72.4062 41.2969H76.2734L74.3359 35.9766L72.4062 41.2969Z" fill="#2097F6"/>
<path d="M28 20.5H108.5V59.5H28C23.8579 59.5 20.5 56.1421 20.5 52V28C20.5 23.8579 23.8579 20.5 28 20.5Z" stroke="#2097F6"/>
<path d="M109 20.5H108.5V21V59V59.5H109H375C379.694 59.5 383.5 55.6944 383.5 51V29C383.5 24.3056 379.694 20.5 375 20.5H109Z" fill="white"/>
<path d="M138.508 35.3594H134.852V45.5H133.359V35.3594H129.711V34.125H138.508V35.3594ZM141.414 38.0703C142.055 37.2839 142.888 36.8906 143.914 36.8906C145.701 36.8906 146.602 37.8984 146.617 39.9141V45.5H145.172V39.9062C145.167 39.2969 145.026 38.8464 144.75 38.5547C144.479 38.263 144.055 38.1172 143.477 38.1172C143.008 38.1172 142.596 38.2422 142.242 38.4922C141.888 38.7422 141.612 39.0703 141.414 39.4766V45.5H139.969V33.5H141.414V38.0703ZM152.289 45.6562C151.143 45.6562 150.211 45.2812 149.492 44.5312C148.773 43.776 148.414 42.7682 148.414 41.5078V41.2422C148.414 40.4036 148.573 39.6562 148.891 39C149.214 38.3385 149.661 37.8229 150.234 37.4531C150.812 37.0781 151.438 36.8906 152.109 36.8906C153.208 36.8906 154.062 37.2526 154.672 37.9766C155.281 38.7005 155.586 39.737 155.586 41.0859V41.6875H149.859C149.88 42.5208 150.122 43.1953 150.586 43.7109C151.055 44.2214 151.648 44.4766 152.367 44.4766C152.878 44.4766 153.31 44.3724 153.664 44.1641C154.018 43.9557 154.328 43.6797 154.594 43.3359L155.477 44.0234C154.768 45.112 153.706 45.6562 152.289 45.6562ZM152.109 38.0781C151.526 38.0781 151.036 38.2917 150.641 38.7188C150.245 39.1406 150 39.7344 149.906 40.5H154.141V40.3906C154.099 39.6562 153.901 39.0885 153.547 38.6875C153.193 38.2812 152.714 38.0781 152.109 38.0781ZM164.625 44.4766C165.141 44.4766 165.591 44.3203 165.977 44.0078C166.362 43.6953 166.576 43.3047 166.617 42.8359H167.984C167.958 43.3203 167.792 43.7812 167.484 44.2188C167.177 44.6562 166.766 45.0052 166.25 45.2656C165.74 45.526 165.198 45.6562 164.625 45.6562C163.474 45.6562 162.557 45.2734 161.875 44.5078C161.198 43.737 160.859 42.6849 160.859 41.3516V41.1094C160.859 40.2865 161.01 39.5547 161.312 38.9141C161.615 38.2734 162.047 37.776 162.609 37.4219C163.177 37.0677 163.846 36.8906 164.617 36.8906C165.565 36.8906 166.352 37.1745 166.977 37.7422C167.607 38.3099 167.943 39.0469 167.984 39.9531H166.617C166.576 39.4062 166.367 38.9583 165.992 38.6094C165.622 38.2552 165.164 38.0781 164.617 38.0781C163.883 38.0781 163.312 38.3438 162.906 38.875C162.505 39.401 162.305 40.1641 162.305 41.1641V41.4375C162.305 42.4115 162.505 43.1615 162.906 43.6875C163.307 44.2135 163.88 44.4766 164.625 44.4766ZM174.828 45.5C174.745 45.3333 174.677 45.0365 174.625 44.6094C173.953 45.3073 173.151 45.6562 172.219 45.6562C171.385 45.6562 170.701 45.4219 170.164 44.9531C169.633 44.4792 169.367 43.8802 169.367 43.1562C169.367 42.276 169.701 41.5938 170.367 41.1094C171.039 40.6198 171.982 40.375 173.195 40.375H174.602V39.7109C174.602 39.2057 174.451 38.8047 174.148 38.5078C173.846 38.2057 173.401 38.0547 172.812 38.0547C172.297 38.0547 171.865 38.1849 171.516 38.4453C171.167 38.7057 170.992 39.0208 170.992 39.3906H169.539C169.539 38.9688 169.688 38.5625 169.984 38.1719C170.286 37.776 170.693 37.4635 171.203 37.2344C171.719 37.0052 172.284 36.8906 172.898 36.8906C173.872 36.8906 174.635 37.1354 175.188 37.625C175.74 38.1094 176.026 38.7786 176.047 39.6328V43.5234C176.047 44.2995 176.146 44.9167 176.344 45.375V45.5H174.828ZM172.43 44.3984C172.883 44.3984 173.312 44.2812 173.719 44.0469C174.125 43.8125 174.419 43.5078 174.602 43.1328V41.3984H173.469C171.698 41.3984 170.812 41.9167 170.812 42.9531C170.812 43.4062 170.964 43.7604 171.266 44.0156C171.568 44.2708 171.956 44.3984 172.43 44.3984ZM180.672 41.5859L179.766 42.5312V45.5H178.32V33.5H179.766V40.7578L180.539 39.8281L183.172 37.0469H184.93L181.641 40.5781L185.312 45.5H183.617L180.672 41.5859ZM189.773 45.6562C188.628 45.6562 187.695 45.2812 186.977 44.5312C186.258 43.776 185.898 42.7682 185.898 41.5078V41.2422C185.898 40.4036 186.057 39.6562 186.375 39C186.698 38.3385 187.146 37.8229 187.719 37.4531C188.297 37.0781 188.922 36.8906 189.594 36.8906C190.693 36.8906 191.547 37.2526 192.156 37.9766C192.766 38.7005 193.07 39.737 193.07 41.0859V41.6875H187.344C187.365 42.5208 187.607 43.1953 188.07 43.7109C188.539 44.2214 189.133 44.4766 189.852 44.4766C190.362 44.4766 190.794 44.3724 191.148 44.1641C191.503 43.9557 191.812 43.6797 192.078 43.3359L192.961 44.0234C192.253 45.112 191.19 45.6562 189.773 45.6562ZM189.594 38.0781C189.01 38.0781 188.521 38.2917 188.125 38.7188C187.729 39.1406 187.484 39.7344 187.391 40.5H191.625V40.3906C191.583 39.6562 191.385 39.0885 191.031 38.6875C190.677 38.2812 190.198 38.0781 189.594 38.0781ZM200.289 45.5H198.844V37.0469H200.289V45.5ZM198.727 34.8047C198.727 34.5703 198.797 34.3724 198.938 34.2109C199.083 34.0495 199.297 33.9688 199.578 33.9688C199.859 33.9688 200.073 34.0495 200.219 34.2109C200.365 34.3724 200.438 34.5703 200.438 34.8047C200.438 35.0391 200.365 35.2344 200.219 35.3906C200.073 35.5469 199.859 35.625 199.578 35.625C199.297 35.625 199.083 35.5469 198.938 35.3906C198.797 35.2344 198.727 35.0391 198.727 34.8047ZM207.531 43.2578C207.531 42.8672 207.383 42.5651 207.086 42.3516C206.794 42.1328 206.281 41.9453 205.547 41.7891C204.818 41.6328 204.237 41.4453 203.805 41.2266C203.378 41.0078 203.06 40.7474 202.852 40.4453C202.648 40.1432 202.547 39.7839 202.547 39.3672C202.547 38.6745 202.839 38.0885 203.422 37.6094C204.01 37.1302 204.76 36.8906 205.672 36.8906C206.63 36.8906 207.406 37.138 208 37.6328C208.599 38.1276 208.898 38.7604 208.898 39.5312H207.445C207.445 39.1354 207.276 38.7943 206.938 38.5078C206.604 38.2214 206.182 38.0781 205.672 38.0781C205.146 38.0781 204.734 38.1927 204.438 38.4219C204.141 38.651 203.992 38.9505 203.992 39.3203C203.992 39.6693 204.13 39.9323 204.406 40.1094C204.682 40.2865 205.18 40.4557 205.898 40.6172C206.622 40.7786 207.208 40.9714 207.656 41.1953C208.104 41.4193 208.435 41.6901 208.648 42.0078C208.867 42.3203 208.977 42.7031 208.977 43.1562C208.977 43.9115 208.674 44.5182 208.07 44.9766C207.466 45.4297 206.682 45.6562 205.719 45.6562C205.042 45.6562 204.443 45.5365 203.922 45.2969C203.401 45.0573 202.992 44.724 202.695 44.2969C202.404 43.8646 202.258 43.3984 202.258 42.8984H203.703C203.729 43.3828 203.922 43.7682 204.281 44.0547C204.646 44.3359 205.125 44.4766 205.719 44.4766C206.266 44.4766 206.703 44.3672 207.031 44.1484C207.365 43.9245 207.531 43.6276 207.531 43.2578ZM220.047 45.5C219.964 45.3333 219.896 45.0365 219.844 44.6094C219.172 45.3073 218.37 45.6562 217.438 45.6562C216.604 45.6562 215.919 45.4219 215.383 44.9531C214.852 44.4792 214.586 43.8802 214.586 43.1562C214.586 42.276 214.919 41.5938 215.586 41.1094C216.258 40.6198 217.201 40.375 218.414 40.375H219.82V39.7109C219.82 39.2057 219.669 38.8047 219.367 38.5078C219.065 38.2057 218.62 38.0547 218.031 38.0547C217.516 38.0547 217.083 38.1849 216.734 38.4453C216.385 38.7057 216.211 39.0208 216.211 39.3906H214.758C214.758 38.9688 214.906 38.5625 215.203 38.1719C215.505 37.776 215.911 37.4635 216.422 37.2344C216.938 37.0052 217.503 36.8906 218.117 36.8906C219.091 36.8906 219.854 37.1354 220.406 37.625C220.958 38.1094 221.245 38.7786 221.266 39.6328V43.5234C221.266 44.2995 221.365 44.9167 221.562 45.375V45.5H220.047ZM217.648 44.3984C218.102 44.3984 218.531 44.2812 218.938 44.0469C219.344 43.8125 219.638 43.5078 219.82 43.1328V41.3984H218.688C216.917 41.3984 216.031 41.9167 216.031 42.9531C216.031 43.4062 216.182 43.7604 216.484 44.0156C216.786 44.2708 217.174 44.3984 217.648 44.3984ZM229.07 45.5H227.625V33.5H229.07V45.5ZM232.961 45.5H231.516V37.0469H232.961V45.5ZM231.398 34.8047C231.398 34.5703 231.469 34.3724 231.609 34.2109C231.755 34.0495 231.969 33.9688 232.25 33.9688C232.531 33.9688 232.745 34.0495 232.891 34.2109C233.036 34.3724 233.109 34.5703 233.109 34.8047C233.109 35.0391 233.036 35.2344 232.891 35.3906C232.745 35.5469 232.531 35.625 232.25 35.625C231.969 35.625 231.755 35.5469 231.609 35.3906C231.469 35.2344 231.398 35.0391 231.398 34.8047ZM238.789 45.6562C237.643 45.6562 236.711 45.2812 235.992 44.5312C235.273 43.776 234.914 42.7682 234.914 41.5078V41.2422C234.914 40.4036 235.073 39.6562 235.391 39C235.714 38.3385 236.161 37.8229 236.734 37.4531C237.312 37.0781 237.938 36.8906 238.609 36.8906C239.708 36.8906 240.562 37.2526 241.172 37.9766C241.781 38.7005 242.086 39.737 242.086 41.0859V41.6875H236.359C236.38 42.5208 236.622 43.1953 237.086 43.7109C237.555 44.2214 238.148 44.4766 238.867 44.4766C239.378 44.4766 239.81 44.3724 240.164 44.1641C240.518 43.9557 240.828 43.6797 241.094 43.3359L241.977 44.0234C241.268 45.112 240.206 45.6562 238.789 45.6562ZM238.609 38.0781C238.026 38.0781 237.536 38.2917 237.141 38.7188C236.745 39.1406 236.5 39.7344 236.406 40.5H240.641V40.3906C240.599 39.6562 240.401 39.0885 240.047 38.6875C239.693 38.2812 239.214 38.0781 238.609 38.0781Z" fill="#2097F6"/>
<path d="M109 20.5H108.5V21V59V59.5H109H375C379.694 59.5 383.5 55.6944 383.5 51V29C383.5 24.3056 379.694 20.5 375 20.5H109Z" stroke="#2097F6"/>
<path d="M50.1172 95.5H48.6094V90.2422H42.875V95.5H41.375V84.125H42.875V89.0156H48.6094V84.125H50.1172V95.5ZM59.2031 92.5312H54.4375L53.3672 95.5H51.8203L56.1641 84.125H57.4766L61.8281 95.5H60.2891L59.2031 92.5312ZM54.8906 91.2969H58.7578L56.8203 85.9766L54.8906 91.2969ZM66.7109 90.4297C65.4245 90.0599 64.487 89.6068 63.8984 89.0703C63.3151 88.5286 63.0234 87.862 63.0234 87.0703C63.0234 86.1745 63.3802 85.4349 64.0938 84.8516C64.8125 84.263 65.7448 83.9688 66.8906 83.9688C67.6719 83.9688 68.3672 84.1198 68.9766 84.4219C69.5911 84.724 70.0651 85.1406 70.3984 85.6719C70.737 86.2031 70.9062 86.7839 70.9062 87.4141H69.3984C69.3984 86.7266 69.1797 86.1875 68.7422 85.7969C68.3047 85.401 67.6875 85.2031 66.8906 85.2031C66.151 85.2031 65.5729 85.3672 65.1562 85.6953C64.7448 86.0182 64.5391 86.4688 64.5391 87.0469C64.5391 87.5104 64.7344 87.9036 65.125 88.2266C65.5208 88.5443 66.1901 88.8359 67.1328 89.1016C68.0807 89.3672 68.8203 89.6615 69.3516 89.9844C69.888 90.3021 70.2839 90.6745 70.5391 91.1016C70.7995 91.5286 70.9297 92.0312 70.9297 92.6094C70.9297 93.5312 70.5703 94.2708 69.8516 94.8281C69.1328 95.3802 68.1719 95.6562 66.9688 95.6562C66.1875 95.6562 65.4583 95.5078 64.7812 95.2109C64.1042 94.9089 63.5807 94.4974 63.2109 93.9766C62.8464 93.4557 62.6641 92.8646 62.6641 92.2031H64.1719C64.1719 92.8906 64.4245 93.4349 64.9297 93.8359C65.4401 94.2318 66.1198 94.4297 66.9688 94.4297C67.7604 94.4297 68.3672 94.2682 68.7891 93.9453C69.2109 93.6224 69.4219 93.1823 69.4219 92.625C69.4219 92.0677 69.2266 91.638 68.8359 91.3359C68.4453 91.0286 67.737 90.7266 66.7109 90.4297ZM81.6016 95.5H80.0938V90.2422H74.3594V95.5H72.8594V84.125H74.3594V89.0156H80.0938V84.125H81.6016V95.5Z" fill="#2097F6"/>
<path d="M133.641 95.6562C132.495 95.6562 131.562 95.2812 130.844 94.5312C130.125 93.776 129.766 92.7682 129.766 91.5078V91.2422C129.766 90.4036 129.924 89.6562 130.242 89C130.565 88.3385 131.013 87.8229 131.586 87.4531C132.164 87.0781 132.789 86.8906 133.461 86.8906C134.56 86.8906 135.414 87.2526 136.023 87.9766C136.633 88.7005 136.938 89.737 136.938 91.0859V91.6875H131.211C131.232 92.5208 131.474 93.1953 131.938 93.7109C132.406 94.2214 133 94.4766 133.719 94.4766C134.229 94.4766 134.661 94.3724 135.016 94.1641C135.37 93.9557 135.68 93.6797 135.945 93.3359L136.828 94.0234C136.12 95.112 135.057 95.6562 133.641 95.6562ZM133.461 88.0781C132.878 88.0781 132.388 88.2917 131.992 88.7188C131.596 89.1406 131.352 89.7344 131.258 90.5H135.492V90.3906C135.451 89.6562 135.253 89.0885 134.898 88.6875C134.544 88.2812 134.065 88.0781 133.461 88.0781ZM143.836 95.5C143.753 95.3333 143.685 95.0365 143.633 94.6094C142.961 95.3073 142.159 95.6562 141.227 95.6562C140.393 95.6562 139.708 95.4219 139.172 94.9531C138.641 94.4792 138.375 93.8802 138.375 93.1562C138.375 92.276 138.708 91.5938 139.375 91.1094C140.047 90.6198 140.99 90.375 142.203 90.375H143.609V89.7109C143.609 89.2057 143.458 88.8047 143.156 88.5078C142.854 88.2057 142.409 88.0547 141.82 88.0547C141.305 88.0547 140.872 88.1849 140.523 88.4453C140.174 88.7057 140 89.0208 140 89.3906H138.547C138.547 88.9688 138.695 88.5625 138.992 88.1719C139.294 87.776 139.701 87.4635 140.211 87.2344C140.727 87.0052 141.292 86.8906 141.906 86.8906C142.88 86.8906 143.643 87.1354 144.195 87.625C144.747 88.1094 145.034 88.7786 145.055 89.6328V93.5234C145.055 94.2995 145.154 94.9167 145.352 95.375V95.5H143.836ZM141.438 94.3984C141.891 94.3984 142.32 94.2812 142.727 94.0469C143.133 93.8125 143.427 93.5078 143.609 93.1328V91.3984H142.477C140.706 91.3984 139.82 91.9167 139.82 92.9531C139.82 93.4062 139.971 93.7604 140.273 94.0156C140.576 94.2708 140.964 94.3984 141.438 94.3984ZM151.922 95.5H150.469V85.8672L147.555 86.9375V85.625L151.695 84.0703H151.922V95.5ZM160.906 95.5H159.453V85.8672L156.539 86.9375V85.625L160.68 84.0703H160.906V95.5ZM166 95.5V88.1641H164.664V87.0469H166V86.1797C166 85.2734 166.242 84.5729 166.727 84.0781C167.211 83.5833 167.896 83.3359 168.781 83.3359C169.115 83.3359 169.445 83.3802 169.773 83.4688L169.695 84.6406C169.451 84.5938 169.19 84.5703 168.914 84.5703C168.445 84.5703 168.083 84.7083 167.828 84.9844C167.573 85.2552 167.445 85.6458 167.445 86.1562V87.0469H169.25V88.1641H167.445V95.5H166ZM176.242 90.5C175.94 90.8594 175.578 91.1484 175.156 91.3672C174.74 91.5859 174.281 91.6953 173.781 91.6953C173.125 91.6953 172.552 91.5339 172.062 91.2109C171.578 90.888 171.203 90.4349 170.938 89.8516C170.672 89.263 170.539 88.6146 170.539 87.9062C170.539 87.1458 170.682 86.4609 170.969 85.8516C171.26 85.2422 171.672 84.776 172.203 84.4531C172.734 84.1302 173.354 83.9688 174.062 83.9688C175.188 83.9688 176.073 84.3906 176.719 85.2344C177.37 86.0729 177.695 87.2188 177.695 88.6719V89.0938C177.695 91.3073 177.258 92.9245 176.383 93.9453C175.508 94.9609 174.188 95.4818 172.422 95.5078H172.141V94.2891H172.445C173.638 94.2682 174.555 93.9583 175.195 93.3594C175.836 92.7552 176.185 91.8021 176.242 90.5ZM174.016 90.5C174.5 90.5 174.945 90.3516 175.352 90.0547C175.763 89.7578 176.062 89.3906 176.25 88.9531V88.375C176.25 87.4271 176.044 86.6562 175.633 86.0625C175.221 85.4688 174.701 85.1719 174.07 85.1719C173.435 85.1719 172.924 85.4167 172.539 85.9062C172.154 86.3906 171.961 87.0312 171.961 87.8281C171.961 88.6042 172.146 89.2448 172.516 89.75C172.891 90.25 173.391 90.5 174.016 90.5ZM187.141 95.5H179.688V94.4609L183.625 90.0859C184.208 89.4245 184.609 88.888 184.828 88.4766C185.052 88.0599 185.164 87.6302 185.164 87.1875C185.164 86.5938 184.984 86.1068 184.625 85.7266C184.266 85.3464 183.786 85.1562 183.188 85.1562C182.469 85.1562 181.909 85.362 181.508 85.7734C181.112 86.1797 180.914 86.7474 180.914 87.4766H179.469C179.469 86.4297 179.805 85.5833 180.477 84.9375C181.154 84.2917 182.057 83.9688 183.188 83.9688C184.245 83.9688 185.081 84.2474 185.695 84.8047C186.31 85.3568 186.617 86.0938 186.617 87.0156C186.617 88.1354 185.904 89.4688 184.477 91.0156L181.43 94.3203H187.141V95.5ZM194.039 95.5C193.956 95.3333 193.888 95.0365 193.836 94.6094C193.164 95.3073 192.362 95.6562 191.43 95.6562C190.596 95.6562 189.911 95.4219 189.375 94.9531C188.844 94.4792 188.578 93.8802 188.578 93.1562C188.578 92.276 188.911 91.5938 189.578 91.1094C190.25 90.6198 191.193 90.375 192.406 90.375H193.812V89.7109C193.812 89.2057 193.661 88.8047 193.359 88.5078C193.057 88.2057 192.612 88.0547 192.023 88.0547C191.508 88.0547 191.076 88.1849 190.727 88.4453C190.378 88.7057 190.203 89.0208 190.203 89.3906H188.75C188.75 88.9688 188.898 88.5625 189.195 88.1719C189.497 87.776 189.904 87.4635 190.414 87.2344C190.93 87.0052 191.495 86.8906 192.109 86.8906C193.083 86.8906 193.846 87.1354 194.398 87.625C194.951 88.1094 195.237 88.7786 195.258 89.6328V93.5234C195.258 94.2995 195.357 94.9167 195.555 95.375V95.5H194.039ZM191.641 94.3984C192.094 94.3984 192.523 94.2812 192.93 94.0469C193.336 93.8125 193.63 93.5078 193.812 93.1328V91.3984H192.68C190.909 91.3984 190.023 91.9167 190.023 92.9531C190.023 93.4062 190.174 93.7604 190.477 94.0156C190.779 94.2708 191.167 94.3984 191.641 94.3984ZM204.719 84.9375L200.008 95.5H198.492L203.188 85.3125H197.031V84.125H204.719V84.9375ZM213.812 95.5H206.359V94.4609L210.297 90.0859C210.88 89.4245 211.281 88.888 211.5 88.4766C211.724 88.0599 211.836 87.6302 211.836 87.1875C211.836 86.5938 211.656 86.1068 211.297 85.7266C210.938 85.3464 210.458 85.1562 209.859 85.1562C209.141 85.1562 208.581 85.362 208.18 85.7734C207.784 86.1797 207.586 86.7474 207.586 87.4766H206.141C206.141 86.4297 206.477 85.5833 207.148 84.9375C207.826 84.2917 208.729 83.9688 209.859 83.9688C210.917 83.9688 211.753 84.2474 212.367 84.8047C212.982 85.3568 213.289 86.0938 213.289 87.0156C213.289 88.1354 212.576 89.4688 211.148 91.0156L208.102 94.3203H213.812V95.5ZM222.797 95.5H215.344V94.4609L219.281 90.0859C219.865 89.4245 220.266 88.888 220.484 88.4766C220.708 88.0599 220.82 87.6302 220.82 87.1875C220.82 86.5938 220.641 86.1068 220.281 85.7266C219.922 85.3464 219.443 85.1562 218.844 85.1562C218.125 85.1562 217.565 85.362 217.164 85.7734C216.768 86.1797 216.57 86.7474 216.57 87.4766H215.125C215.125 86.4297 215.461 85.5833 216.133 84.9375C216.81 84.2917 217.714 83.9688 218.844 83.9688C219.901 83.9688 220.737 84.2474 221.352 84.8047C221.966 85.3568 222.273 86.0938 222.273 87.0156C222.273 88.1354 221.56 89.4688 220.133 91.0156L217.086 94.3203H222.797V95.5ZM229.867 90.5C229.565 90.8594 229.203 91.1484 228.781 91.3672C228.365 91.5859 227.906 91.6953 227.406 91.6953C226.75 91.6953 226.177 91.5339 225.688 91.2109C225.203 90.888 224.828 90.4349 224.562 89.8516C224.297 89.263 224.164 88.6146 224.164 87.9062C224.164 87.1458 224.307 86.4609 224.594 85.8516C224.885 85.2422 225.297 84.776 225.828 84.4531C226.359 84.1302 226.979 83.9688 227.688 83.9688C228.812 83.9688 229.698 84.3906 230.344 85.2344C230.995 86.0729 231.32 87.2188 231.32 88.6719V89.0938C231.32 91.3073 230.883 92.9245 230.008 93.9453C229.133 94.9609 227.812 95.4818 226.047 95.5078H225.766V94.2891H226.07C227.263 94.2682 228.18 93.9583 228.82 93.3594C229.461 92.7552 229.81 91.8021 229.867 90.5ZM227.641 90.5C228.125 90.5 228.57 90.3516 228.977 90.0547C229.388 89.7578 229.688 89.3906 229.875 88.9531V88.375C229.875 87.4271 229.669 86.6562 229.258 86.0625C228.846 85.4688 228.326 85.1719 227.695 85.1719C227.06 85.1719 226.549 85.4167 226.164 85.9062C225.779 86.3906 225.586 87.0312 225.586 87.8281C225.586 88.6042 225.771 89.2448 226.141 89.75C226.516 90.25 227.016 90.5 227.641 90.5ZM238.984 84.1172V85.3438H238.719C237.594 85.3646 236.698 85.6979 236.031 86.3438C235.365 86.9896 234.979 87.8984 234.875 89.0703C235.474 88.3828 236.292 88.0391 237.328 88.0391C238.318 88.0391 239.107 88.388 239.695 89.0859C240.289 89.7839 240.586 90.6849 240.586 91.7891C240.586 92.9609 240.266 93.8984 239.625 94.6016C238.99 95.3047 238.135 95.6562 237.062 95.6562C235.974 95.6562 235.091 95.2396 234.414 94.4062C233.737 93.5677 233.398 92.4896 233.398 91.1719V90.6172C233.398 88.5234 233.844 86.9245 234.734 85.8203C235.63 84.7109 236.961 84.1432 238.727 84.1172H238.984ZM237.086 89.2422C236.591 89.2422 236.135 89.3906 235.719 89.6875C235.302 89.9844 235.013 90.3568 234.852 90.8047V91.3359C234.852 92.2734 235.062 93.0286 235.484 93.6016C235.906 94.1745 236.432 94.4609 237.062 94.4609C237.714 94.4609 238.224 94.2214 238.594 93.7422C238.969 93.263 239.156 92.6354 239.156 91.8594C239.156 91.0781 238.966 90.4479 238.586 89.9688C238.211 89.4844 237.711 89.2422 237.086 89.2422ZM247.836 90.5C247.534 90.8594 247.172 91.1484 246.75 91.3672C246.333 91.5859 245.875 91.6953 245.375 91.6953C244.719 91.6953 244.146 91.5339 243.656 91.2109C243.172 90.888 242.797 90.4349 242.531 89.8516C242.266 89.263 242.133 88.6146 242.133 87.9062C242.133 87.1458 242.276 86.4609 242.562 85.8516C242.854 85.2422 243.266 84.776 243.797 84.4531C244.328 84.1302 244.948 83.9688 245.656 83.9688C246.781 83.9688 247.667 84.3906 248.312 85.2344C248.964 86.0729 249.289 87.2188 249.289 88.6719V89.0938C249.289 91.3073 248.852 92.9245 247.977 93.9453C247.102 94.9609 245.781 95.4818 244.016 95.5078H243.734V94.2891H244.039C245.232 94.2682 246.148 93.9583 246.789 93.3594C247.43 92.7552 247.779 91.8021 247.836 90.5ZM245.609 90.5C246.094 90.5 246.539 90.3516 246.945 90.0547C247.357 89.7578 247.656 89.3906 247.844 88.9531V88.375C247.844 87.4271 247.638 86.6562 247.227 86.0625C246.815 85.4688 246.294 85.1719 245.664 85.1719C245.029 85.1719 244.518 85.4167 244.133 85.9062C243.747 86.3906 243.555 87.0312 243.555 87.8281C243.555 88.6042 243.74 89.2448 244.109 89.75C244.484 90.25 244.984 90.5 245.609 90.5ZM257.383 91.6797H258.961V92.8594H257.383V95.5H255.93V92.8594H250.75V92.0078L255.844 84.125H257.383V91.6797ZM252.391 91.6797H255.93V86.1016L255.758 86.4141L252.391 91.6797ZM265.938 84.1172V85.3438H265.672C264.547 85.3646 263.651 85.6979 262.984 86.3438C262.318 86.9896 261.932 87.8984 261.828 89.0703C262.427 88.3828 263.245 88.0391 264.281 88.0391C265.271 88.0391 266.06 88.388 266.648 89.0859C267.242 89.7839 267.539 90.6849 267.539 91.7891C267.539 92.9609 267.219 93.8984 266.578 94.6016C265.943 95.3047 265.089 95.6562 264.016 95.6562C262.927 95.6562 262.044 95.2396 261.367 94.4062C260.69 93.5677 260.352 92.4896 260.352 91.1719V90.6172C260.352 88.5234 260.797 86.9245 261.688 85.8203C262.583 84.7109 263.914 84.1432 265.68 84.1172H265.938ZM264.039 89.2422C263.544 89.2422 263.089 89.3906 262.672 89.6875C262.255 89.9844 261.966 90.3568 261.805 90.8047V91.3359C261.805 92.2734 262.016 93.0286 262.438 93.6016C262.859 94.1745 263.385 94.4609 264.016 94.4609C264.667 94.4609 265.177 94.2214 265.547 93.7422C265.922 93.263 266.109 92.6354 266.109 91.8594C266.109 91.0781 265.919 90.4479 265.539 89.9688C265.164 89.4844 264.664 89.2422 264.039 89.2422ZM276.703 95.5H269.25V94.4609L273.188 90.0859C273.771 89.4245 274.172 88.888 274.391 88.4766C274.615 88.0599 274.727 87.6302 274.727 87.1875C274.727 86.5938 274.547 86.1068 274.188 85.7266C273.828 85.3464 273.349 85.1562 272.75 85.1562C272.031 85.1562 271.471 85.362 271.07 85.7734C270.674 86.1797 270.477 86.7474 270.477 87.4766H269.031C269.031 86.4297 269.367 85.5833 270.039 84.9375C270.716 84.2917 271.62 83.9688 272.75 83.9688C273.807 83.9688 274.643 84.2474 275.258 84.8047C275.872 85.3568 276.18 86.0938 276.18 87.0156C276.18 88.1354 275.466 89.4688 274.039 91.0156L270.992 94.3203H276.703V95.5ZM285.578 84.9375L280.867 95.5H279.352L284.047 85.3125H277.891V84.125H285.578V84.9375ZM294.672 95.5H287.219V94.4609L291.156 90.0859C291.74 89.4245 292.141 88.888 292.359 88.4766C292.583 88.0599 292.695 87.6302 292.695 87.1875C292.695 86.5938 292.516 86.1068 292.156 85.7266C291.797 85.3464 291.318 85.1562 290.719 85.1562C290 85.1562 289.44 85.362 289.039 85.7734C288.643 86.1797 288.445 86.7474 288.445 87.4766H287C287 86.4297 287.336 85.5833 288.008 84.9375C288.685 84.2917 289.589 83.9688 290.719 83.9688C291.776 83.9688 292.612 84.2474 293.227 84.8047C293.841 85.3568 294.148 86.0938 294.148 87.0156C294.148 88.1354 293.435 89.4688 292.008 91.0156L288.961 94.3203H294.672V95.5ZM303.336 90.6484C303.336 92.3411 303.047 93.599 302.469 94.4219C301.891 95.2448 300.987 95.6562 299.758 95.6562C298.544 95.6562 297.646 95.2552 297.062 94.4531C296.479 93.6458 296.177 92.4427 296.156 90.8438V88.9141C296.156 87.2422 296.445 86 297.023 85.1875C297.602 84.375 298.508 83.9688 299.742 83.9688C300.966 83.9688 301.867 84.362 302.445 85.1484C303.023 85.9297 303.32 87.138 303.336 88.7734V90.6484ZM301.891 88.6719C301.891 87.4479 301.719 86.5573 301.375 86C301.031 85.4375 300.487 85.1562 299.742 85.1562C299.003 85.1562 298.464 85.4349 298.125 85.9922C297.786 86.5495 297.612 87.4062 297.602 88.5625V90.875C297.602 92.1042 297.779 93.013 298.133 93.6016C298.492 94.1849 299.034 94.4766 299.758 94.4766C300.471 94.4766 301 94.2005 301.344 93.6484C301.693 93.0964 301.875 92.2266 301.891 91.0391V88.6719ZM306.047 95.5V88.1641H304.711V87.0469H306.047V86.1797C306.047 85.2734 306.289 84.5729 306.773 84.0781C307.258 83.5833 307.943 83.3359 308.828 83.3359C309.161 83.3359 309.492 83.3802 309.82 83.4688L309.742 84.6406C309.497 84.5938 309.237 84.5703 308.961 84.5703C308.492 84.5703 308.13 84.7083 307.875 84.9844C307.62 85.2552 307.492 85.6458 307.492 86.1562V87.0469H309.297V88.1641H307.492V95.5H306.047ZM316.289 90.5C315.987 90.8594 315.625 91.1484 315.203 91.3672C314.786 91.5859 314.328 91.6953 313.828 91.6953C313.172 91.6953 312.599 91.5339 312.109 91.2109C311.625 90.888 311.25 90.4349 310.984 89.8516C310.719 89.263 310.586 88.6146 310.586 87.9062C310.586 87.1458 310.729 86.4609 311.016 85.8516C311.307 85.2422 311.719 84.776 312.25 84.4531C312.781 84.1302 313.401 83.9688 314.109 83.9688C315.234 83.9688 316.12 84.3906 316.766 85.2344C317.417 86.0729 317.742 87.2188 317.742 88.6719V89.0938C317.742 91.3073 317.305 92.9245 316.43 93.9453C315.555 94.9609 314.234 95.4818 312.469 95.5078H312.188V94.2891H312.492C313.685 94.2682 314.602 93.9583 315.242 93.3594C315.883 92.7552 316.232 91.8021 316.289 90.5ZM314.062 90.5C314.547 90.5 314.992 90.3516 315.398 90.0547C315.81 89.7578 316.109 89.3906 316.297 88.9531V88.375C316.297 87.4271 316.091 86.6562 315.68 86.0625C315.268 85.4688 314.747 85.1719 314.117 85.1719C313.482 85.1719 312.971 85.4167 312.586 85.9062C312.201 86.3906 312.008 87.0312 312.008 87.8281C312.008 88.6042 312.193 89.2448 312.562 89.75C312.938 90.25 313.438 90.5 314.062 90.5ZM325.273 90.5C324.971 90.8594 324.609 91.1484 324.188 91.3672C323.771 91.5859 323.312 91.6953 322.812 91.6953C322.156 91.6953 321.583 91.5339 321.094 91.2109C320.609 90.888 320.234 90.4349 319.969 89.8516C319.703 89.263 319.57 88.6146 319.57 87.9062C319.57 87.1458 319.714 86.4609 320 85.8516C320.292 85.2422 320.703 84.776 321.234 84.4531C321.766 84.1302 322.385 83.9688 323.094 83.9688C324.219 83.9688 325.104 84.3906 325.75 85.2344C326.401 86.0729 326.727 87.2188 326.727 88.6719V89.0938C326.727 91.3073 326.289 92.9245 325.414 93.9453C324.539 94.9609 323.219 95.4818 321.453 95.5078H321.172V94.2891H321.477C322.669 94.2682 323.586 93.9583 324.227 93.3594C324.867 92.7552 325.216 91.8021 325.273 90.5ZM323.047 90.5C323.531 90.5 323.977 90.3516 324.383 90.0547C324.794 89.7578 325.094 89.3906 325.281 88.9531V88.375C325.281 87.4271 325.076 86.6562 324.664 86.0625C324.253 85.4688 323.732 85.1719 323.102 85.1719C322.466 85.1719 321.956 85.4167 321.57 85.9062C321.185 86.3906 320.992 87.0312 320.992 87.8281C320.992 88.6042 321.177 89.2448 321.547 89.75C321.922 90.25 322.422 90.5 323.047 90.5ZM329.578 95.5V88.1641H328.242V87.0469H329.578V86.1797C329.578 85.2734 329.82 84.5729 330.305 84.0781C330.789 83.5833 331.474 83.3359 332.359 83.3359C332.693 83.3359 333.023 83.3802 333.352 83.4688L333.273 84.6406C333.029 84.5938 332.768 84.5703 332.492 84.5703C332.023 84.5703 331.661 84.7083 331.406 84.9844C331.151 85.2552 331.023 85.6458 331.023 86.1562V87.0469H332.828V88.1641H331.023V95.5H329.578ZM341.18 87.0938C341.18 87.6615 341.029 88.1667 340.727 88.6094C340.43 89.0521 340.026 89.3984 339.516 89.6484C340.109 89.9036 340.578 90.276 340.922 90.7656C341.271 91.2552 341.445 91.8099 341.445 92.4297C341.445 93.4141 341.112 94.1979 340.445 94.7812C339.784 95.3646 338.911 95.6562 337.828 95.6562C336.734 95.6562 335.857 95.3646 335.195 94.7812C334.539 94.1927 334.211 93.4089 334.211 92.4297C334.211 91.8151 334.378 91.2604 334.711 90.7656C335.049 90.2708 335.516 89.8958 336.109 89.6406C335.604 89.3906 335.206 89.0443 334.914 88.6016C334.622 88.1589 334.477 87.6562 334.477 87.0938C334.477 86.1354 334.784 85.375 335.398 84.8125C336.013 84.25 336.823 83.9688 337.828 83.9688C338.828 83.9688 339.635 84.25 340.25 84.8125C340.87 85.375 341.18 86.1354 341.18 87.0938ZM340 92.3984C340 91.763 339.797 91.2448 339.391 90.8438C338.99 90.4427 338.464 90.2422 337.812 90.2422C337.161 90.2422 336.638 90.4401 336.242 90.8359C335.852 91.2318 335.656 91.7526 335.656 92.3984C335.656 93.0443 335.846 93.5521 336.227 93.9219C336.612 94.2917 337.146 94.4766 337.828 94.4766C338.505 94.4766 339.036 94.2917 339.422 93.9219C339.807 93.5469 340 93.0391 340 92.3984ZM337.828 85.1562C337.26 85.1562 336.799 85.3333 336.445 85.6875C336.096 86.0365 335.922 86.513 335.922 87.1172C335.922 87.6953 336.094 88.1641 336.438 88.5234C336.786 88.8776 337.25 89.0547 337.828 89.0547C338.406 89.0547 338.867 88.8776 339.211 88.5234C339.56 88.1641 339.734 87.6953 339.734 87.1172C339.734 86.5391 339.555 86.0677 339.195 85.7031C338.836 85.3385 338.38 85.1562 337.828 85.1562ZM350.609 84.9375L345.898 95.5H344.383L349.078 85.3125H342.922V84.125H350.609V84.9375ZM352.43 94.7422C352.43 94.4922 352.503 94.2839 352.648 94.1172C352.799 93.9505 353.023 93.8672 353.32 93.8672C353.617 93.8672 353.841 93.9505 353.992 94.1172C354.148 94.2839 354.227 94.4922 354.227 94.7422C354.227 94.9818 354.148 95.1823 353.992 95.3438C353.841 95.5052 353.617 95.5859 353.32 95.5859C353.023 95.5859 352.799 95.5052 352.648 95.3438C352.503 95.1823 352.43 94.9818 352.43 94.7422ZM356.648 94.7422C356.648 94.4922 356.721 94.2839 356.867 94.1172C357.018 93.9505 357.242 93.8672 357.539 93.8672C357.836 93.8672 358.06 93.9505 358.211 94.1172C358.367 94.2839 358.445 94.4922 358.445 94.7422C358.445 94.9818 358.367 95.1823 358.211 95.3438C358.06 95.5052 357.836 95.5859 357.539 95.5859C357.242 95.5859 357.018 95.5052 356.867 95.3438C356.721 95.1823 356.648 94.9818 356.648 94.7422ZM360.867 94.7422C360.867 94.4922 360.94 94.2839 361.086 94.1172C361.237 93.9505 361.461 93.8672 361.758 93.8672C362.055 93.8672 362.279 93.9505 362.43 94.1172C362.586 94.2839 362.664 94.4922 362.664 94.7422C362.664 94.9818 362.586 95.1823 362.43 95.3438C362.279 95.5052 362.055 95.5859 361.758 95.5859C361.461 95.5859 361.237 95.5052 361.086 95.3438C360.94 95.1823 360.867 94.9818 360.867 94.7422Z" fill="#2097F6"/>
<rect x="0.5" y="0.5" width="399" height="129" rx="7.5" stroke="#2097F6"/>
</g>
<defs>
<filter id="filter0_d" x="0" y="0" width="404" height="134" filterUnits="userSpaceOnUse" color-interpolation-filters="sRGB">
<feFlood flood-opacity="0" result="BackgroundImageFix"/>
<feColorMatrix in="SourceAlpha" type="matrix" values="0 0 0 0 0 0 0 0 0 0 0 0 0 0 0 0 0 0 127 0"/>
<feOffset dx="4" dy="4"/>
<feColorMatrix type="matrix" values="0 0 0 0 0.513733 0 0 0 0 0.767915 0 0 0 0 0.970833 0 0 0 1 0"/>
<feBlend mode="normal" in2="BackgroundImageFix" result="effect1_dropShadow"/>
<feBlend mode="normal" in="SourceGraphic" in2="effect1_dropShadow" result="shape"/>
</filter>
</defs>
</svg>
