<svg width="404" height="218" viewBox="0 0 404 218" fill="none" xmlns="http://www.w3.org/2000/svg">
<g filter="url(#filter0_d)">
<rect width="400" height="214" rx="8" fill="#E7F4FF"/>
<g clip-path="url(#clip0)">
<path d="M163.5 27.09L155.25 23.34V32.34L163.5 36.09V27.09Z" stroke="#2097F6" stroke-width="1.5" stroke-linecap="round" stroke-linejoin="round"/>
<path d="M163.5 27.09L171.75 23.34V32.34L163.5 36.09V27.09Z" stroke="#2097F6" stroke-width="1.5" stroke-linecap="round" stroke-linejoin="round"/>
<path d="M171.75 23.34L163.5 19.59L155.25 23.34" stroke="#2097F6" stroke-width="1.5" stroke-linecap="round" stroke-linejoin="round"/>
<path d="M163.5 19.59V15.84" stroke="#2097F6" stroke-width="1.5" stroke-linecap="round" stroke-linejoin="round"/>
<path d="M155.25 32.34L152.25 33.84" stroke="#2097F6" stroke-width="1.5" stroke-linecap="round" stroke-linejoin="round"/>
<path d="M171.75 32.34L174.75 33.84" stroke="#2097F6" stroke-width="1.5" stroke-linecap="round" stroke-linejoin="round"/>
</g>
<path d="M187.32 31V19.625H191.039C192.273 19.625 193.201 19.8802 193.82 20.3906C194.445 20.901 194.758 21.6562 194.758 22.6562C194.758 23.1875 194.607 23.6589 194.305 24.0703C194.003 24.4766 193.591 24.7917 193.07 25.0156C193.685 25.1875 194.169 25.5156 194.523 26C194.883 26.4792 195.062 27.0521 195.062 27.7188C195.062 28.7396 194.732 29.5417 194.07 30.125C193.409 30.7083 192.474 31 191.266 31H187.32ZM188.82 25.6797V29.7734H191.297C191.995 29.7734 192.544 29.5938 192.945 29.2344C193.352 28.8698 193.555 28.3698 193.555 27.7344C193.555 26.3646 192.81 25.6797 191.32 25.6797H188.82ZM188.82 24.4766H191.086C191.742 24.4766 192.266 24.3125 192.656 23.9844C193.052 23.6562 193.25 23.2109 193.25 22.6484C193.25 22.0234 193.068 21.5703 192.703 21.2891C192.339 21.0026 191.784 20.8594 191.039 20.8594H188.82V24.4766ZM198.633 31H197.188V19H198.633V31ZM200.57 26.6953C200.57 25.8672 200.732 25.1224 201.055 24.4609C201.383 23.7995 201.836 23.2891 202.414 22.9297C202.997 22.5703 203.661 22.3906 204.406 22.3906C205.557 22.3906 206.487 22.7891 207.195 23.5859C207.909 24.3828 208.266 25.4427 208.266 26.7656V26.8672C208.266 27.6901 208.107 28.4297 207.789 29.0859C207.477 29.737 207.026 30.2448 206.438 30.6094C205.854 30.974 205.182 31.1562 204.422 31.1562C203.276 31.1562 202.346 30.7578 201.633 29.9609C200.924 29.1641 200.57 28.1094 200.57 26.7969V26.6953ZM202.023 26.8672C202.023 27.8047 202.24 28.5573 202.672 29.125C203.109 29.6927 203.693 29.9766 204.422 29.9766C205.156 29.9766 205.74 29.6901 206.172 29.1172C206.604 28.5391 206.82 27.7318 206.82 26.6953C206.82 25.7682 206.599 25.0182 206.156 24.4453C205.719 23.8672 205.135 23.5781 204.406 23.5781C203.693 23.5781 203.117 23.862 202.68 24.4297C202.242 24.9974 202.023 25.8099 202.023 26.8672ZM213.469 29.9766C213.984 29.9766 214.435 29.8203 214.82 29.5078C215.206 29.1953 215.419 28.8047 215.461 28.3359H216.828C216.802 28.8203 216.635 29.2812 216.328 29.7188C216.021 30.1562 215.609 30.5052 215.094 30.7656C214.583 31.026 214.042 31.1562 213.469 31.1562C212.318 31.1562 211.401 30.7734 210.719 30.0078C210.042 29.237 209.703 28.1849 209.703 26.8516V26.6094C209.703 25.7865 209.854 25.0547 210.156 24.4141C210.458 23.7734 210.891 23.276 211.453 22.9219C212.021 22.5677 212.69 22.3906 213.461 22.3906C214.409 22.3906 215.195 22.6745 215.82 23.2422C216.451 23.8099 216.786 24.5469 216.828 25.4531H215.461C215.419 24.9062 215.211 24.4583 214.836 24.1094C214.466 23.7552 214.008 23.5781 213.461 23.5781C212.727 23.5781 212.156 23.8438 211.75 24.375C211.349 24.901 211.148 25.6641 211.148 26.6641V26.9375C211.148 27.9115 211.349 28.6615 211.75 29.1875C212.151 29.7135 212.724 29.9766 213.469 29.9766ZM220.812 27.0859L219.906 28.0312V31H218.461V19H219.906V26.2578L220.68 25.3281L223.312 22.5469H225.07L221.781 26.0781L225.453 31H223.758L220.812 27.0859ZM234.219 27.7969H232.961L232.438 31H230.883L231.406 27.7969H229.672V26.3672H231.641L231.984 24.3047H230.258V22.875H232.219L232.758 19.625H234.305L233.773 22.875H235.031L235.57 19.625H237.125L236.586 22.875H238.391V24.3047H236.352L236.008 26.3672H237.797V27.7969H235.773L235.25 31H233.695L234.219 27.7969ZM233.195 26.3672H234.453L234.797 24.3047H233.539L233.195 26.3672ZM245.266 31H242.625V22.5938L240.031 23.3516V21.3516L245.023 19.625H245.266V31Z" fill="#2097F6"/>
<path d="M28 54.5H108.5V93.5H28C23.8579 93.5 20.5 90.1421 20.5 86V62C20.5 57.8579 23.8579 54.5 28 54.5Z" fill="#E7F4FF"/>
<path d="M41.7656 79.5V68.125H44.9766C45.9661 68.125 46.8411 68.3438 47.6016 68.7812C48.362 69.2188 48.9479 69.8411 49.3594 70.6484C49.776 71.4557 49.987 72.3828 49.9922 73.4297V74.1562C49.9922 75.2292 49.7839 76.1693 49.3672 76.9766C48.9557 77.7839 48.3646 78.4036 47.5938 78.8359C46.8281 79.2682 45.9349 79.4896 44.9141 79.5H41.7656ZM43.2656 69.3594V78.2734H44.8438C46 78.2734 46.8984 77.9141 47.5391 77.1953C48.1849 76.4766 48.5078 75.4531 48.5078 74.125V73.4609C48.5078 72.1693 48.2031 71.1667 47.5938 70.4531C46.9896 69.7344 46.1302 69.3698 45.0156 69.3594H43.2656ZM58.375 76.5312H53.6094L52.5391 79.5H50.9922L55.3359 68.125H56.6484L61 79.5H59.4609L58.375 76.5312ZM54.0625 75.2969H57.9297L55.9922 69.9766L54.0625 75.2969ZM69.375 69.3594H65.7188V79.5H64.2266V69.3594H60.5781V68.125H69.375V69.3594ZM76.7188 76.5312H71.9531L70.8828 79.5H69.3359L73.6797 68.125H74.9922L79.3438 79.5H77.8047L76.7188 76.5312ZM72.4062 75.2969H76.2734L74.3359 69.9766L72.4062 75.2969Z" fill="#2097F6"/>
<path d="M28 54.5H108.5V93.5H28C23.8579 93.5 20.5 90.1421 20.5 86V62C20.5 57.8579 23.8579 54.5 28 54.5Z" stroke="#2097F6"/>
<path d="M109 54.5H108.5V55V93V93.5H109H375C379.694 93.5 383.5 89.6944 383.5 85V63C383.5 58.3056 379.694 54.5 375 54.5H109Z" fill="white"/>
<path d="M138.906 75.8906C138.766 77.0938 138.32 78.0234 137.57 78.6797C136.826 79.3307 135.833 79.6562 134.594 79.6562C133.25 79.6562 132.172 79.1745 131.359 78.2109C130.552 77.2474 130.148 75.9583 130.148 74.3438V73.25C130.148 72.1927 130.336 71.263 130.711 70.4609C131.091 69.6589 131.628 69.0443 132.32 68.6172C133.013 68.1849 133.815 67.9688 134.727 67.9688C135.935 67.9688 136.904 68.3073 137.633 68.9844C138.362 69.6562 138.786 70.5885 138.906 71.7812H137.398C137.268 70.875 136.984 70.2188 136.547 69.8125C136.115 69.4062 135.508 69.2031 134.727 69.2031C133.768 69.2031 133.016 69.5573 132.469 70.2656C131.927 70.974 131.656 71.9818 131.656 73.2891V74.3906C131.656 75.625 131.914 76.6068 132.43 77.3359C132.945 78.0651 133.667 78.4297 134.594 78.4297C135.427 78.4297 136.065 78.2422 136.508 77.8672C136.956 77.487 137.253 76.8281 137.398 75.8906H138.906ZM145.953 79.5C145.87 79.3333 145.802 79.0365 145.75 78.6094C145.078 79.3073 144.276 79.6562 143.344 79.6562C142.51 79.6562 141.826 79.4219 141.289 78.9531C140.758 78.4792 140.492 77.8802 140.492 77.1562C140.492 76.276 140.826 75.5938 141.492 75.1094C142.164 74.6198 143.107 74.375 144.32 74.375H145.727V73.7109C145.727 73.2057 145.576 72.8047 145.273 72.5078C144.971 72.2057 144.526 72.0547 143.938 72.0547C143.422 72.0547 142.99 72.1849 142.641 72.4453C142.292 72.7057 142.117 73.0208 142.117 73.3906H140.664C140.664 72.9688 140.812 72.5625 141.109 72.1719C141.411 71.776 141.818 71.4635 142.328 71.2344C142.844 71.0052 143.409 70.8906 144.023 70.8906C144.997 70.8906 145.76 71.1354 146.312 71.625C146.865 72.1094 147.151 72.7786 147.172 73.6328V77.5234C147.172 78.2995 147.271 78.9167 147.469 79.375V79.5H145.953ZM143.555 78.3984C144.008 78.3984 144.438 78.2812 144.844 78.0469C145.25 77.8125 145.544 77.5078 145.727 77.1328V75.3984H144.594C142.823 75.3984 141.938 75.9167 141.938 76.9531C141.938 77.4062 142.089 77.7604 142.391 78.0156C142.693 78.2708 143.081 78.3984 143.555 78.3984ZM151.797 75.5859L150.891 76.5312V79.5H149.445V67.5H150.891V74.7578L151.664 73.8281L154.297 71.0469H156.055L152.766 74.5781L156.438 79.5H154.742L151.797 75.5859ZM160.898 79.6562C159.753 79.6562 158.82 79.2812 158.102 78.5312C157.383 77.776 157.023 76.7682 157.023 75.5078V75.2422C157.023 74.4036 157.182 73.6562 157.5 73C157.823 72.3385 158.271 71.8229 158.844 71.4531C159.422 71.0781 160.047 70.8906 160.719 70.8906C161.818 70.8906 162.672 71.2526 163.281 71.9766C163.891 72.7005 164.195 73.737 164.195 75.0859V75.6875H158.469C158.49 76.5208 158.732 77.1953 159.195 77.7109C159.664 78.2214 160.258 78.4766 160.977 78.4766C161.487 78.4766 161.919 78.3724 162.273 78.1641C162.628 77.9557 162.938 77.6797 163.203 77.3359L164.086 78.0234C163.378 79.112 162.315 79.6562 160.898 79.6562ZM160.719 72.0781C160.135 72.0781 159.646 72.2917 159.25 72.7188C158.854 73.1406 158.609 73.7344 158.516 74.5H162.75V74.3906C162.708 73.6562 162.51 73.0885 162.156 72.6875C161.802 72.2812 161.323 72.0781 160.719 72.0781Z" fill="#2097F6"/>
<path d="M109 54.5H108.5V55V93V93.5H109H375C379.694 93.5 383.5 89.6944 383.5 85V63C383.5 58.3056 379.694 54.5 375 54.5H109Z" stroke="#2097F6"/>
<path d="M28 104.5H108.5V143.5H28C23.8579 143.5 20.5 140.142 20.5 136V112C20.5 107.858 23.8579 104.5 28 104.5Z" fill="#E7F4FF"/>
<path d="M50.3984 129.5H48.8906L43.1641 120.734V129.5H41.6562V118.125H43.1641L48.9062 126.93V118.125H50.3984V129.5ZM61.8125 124.18C61.8125 125.294 61.625 126.268 61.25 127.102C60.875 127.93 60.3438 128.562 59.6562 129C58.9688 129.438 58.1667 129.656 57.25 129.656C56.3542 129.656 55.5599 129.438 54.8672 129C54.1745 128.557 53.6354 127.93 53.25 127.117C52.8698 126.299 52.6745 125.354 52.6641 124.281V123.461C52.6641 122.367 52.8542 121.401 53.2344 120.562C53.6146 119.724 54.151 119.083 54.8438 118.641C55.5417 118.193 56.3385 117.969 57.2344 117.969C58.1458 117.969 58.9479 118.19 59.6406 118.633C60.3385 119.07 60.875 119.708 61.25 120.547C61.625 121.38 61.8125 122.352 61.8125 123.461V124.18ZM60.3203 123.445C60.3203 122.096 60.0495 121.062 59.5078 120.344C58.9661 119.62 58.2083 119.258 57.2344 119.258C56.2865 119.258 55.5391 119.62 54.9922 120.344C54.4505 121.062 54.1719 122.062 54.1562 123.344V124.18C54.1562 125.487 54.4297 126.516 54.9766 127.266C55.5286 128.01 56.2865 128.383 57.25 128.383C58.2188 128.383 58.9688 128.031 59.5 127.328C60.0312 126.62 60.3047 125.607 60.3203 124.289V123.445ZM72.8047 129.5H71.2969L65.5703 120.734V129.5H64.0625V118.125H65.5703L71.3125 126.93V118.125H72.8047V129.5ZM83.8359 125.891C83.6953 127.094 83.25 128.023 82.5 128.68C81.7552 129.331 80.763 129.656 79.5234 129.656C78.1797 129.656 77.1016 129.174 76.2891 128.211C75.4818 127.247 75.0781 125.958 75.0781 124.344V123.25C75.0781 122.193 75.2656 121.263 75.6406 120.461C76.0208 119.659 76.5573 119.044 77.25 118.617C77.9427 118.185 78.7448 117.969 79.6562 117.969C80.8646 117.969 81.8333 118.307 82.5625 118.984C83.2917 119.656 83.7161 120.589 83.8359 121.781H82.3281C82.1979 120.875 81.9141 120.219 81.4766 119.812C81.0443 119.406 80.4375 119.203 79.6562 119.203C78.6979 119.203 77.9453 119.557 77.3984 120.266C76.8568 120.974 76.5859 121.982 76.5859 123.289V124.391C76.5859 125.625 76.8438 126.607 77.3594 127.336C77.875 128.065 78.5964 128.43 79.5234 128.43C80.3568 128.43 80.9948 128.242 81.4375 127.867C81.8854 127.487 82.1823 126.828 82.3281 125.891H83.8359ZM92.3203 124.242H87.3906V128.273H93.1172V129.5H85.8906V118.125H93.0391V119.359H87.3906V123.016H92.3203V124.242Z" fill="#2097F6"/>
<path d="M28 104.5H108.5V143.5H28C23.8579 143.5 20.5 140.142 20.5 136V112C20.5 107.858 23.8579 104.5 28 104.5Z" stroke="#2097F6"/>
<path d="M109 104.5H108.5V105V143V143.5H109H375C379.694 143.5 383.5 139.694 383.5 135V113C383.5 108.306 379.694 104.5 375 104.5H109Z" fill="white"/>
<path d="M137.086 124.648C137.086 126.341 136.797 127.599 136.219 128.422C135.641 129.245 134.737 129.656 133.508 129.656C132.294 129.656 131.396 129.255 130.812 128.453C130.229 127.646 129.927 126.443 129.906 124.844V122.914C129.906 121.242 130.195 120 130.773 119.188C131.352 118.375 132.258 117.969 133.492 117.969C134.716 117.969 135.617 118.362 136.195 119.148C136.773 119.93 137.07 121.138 137.086 122.773V124.648ZM135.641 122.672C135.641 121.448 135.469 120.557 135.125 120C134.781 119.438 134.237 119.156 133.492 119.156C132.753 119.156 132.214 119.435 131.875 119.992C131.536 120.549 131.362 121.406 131.352 122.562V124.875C131.352 126.104 131.529 127.013 131.883 127.602C132.242 128.185 132.784 128.477 133.508 128.477C134.221 128.477 134.75 128.201 135.094 127.648C135.443 127.096 135.625 126.227 135.641 125.039V122.672Z" fill="#2097F6"/>
<path d="M109 104.5H108.5V105V143V143.5H109H375C379.694 143.5 383.5 139.694 383.5 135V113C383.5 108.306 379.694 104.5 375 104.5H109Z" stroke="#2097F6"/>
<path d="M50.1172 179.5H48.6094V174.242H42.875V179.5H41.375V168.125H42.875V173.016H48.6094V168.125H50.1172V179.5ZM59.2031 176.531H54.4375L53.3672 179.5H51.8203L56.1641 168.125H57.4766L61.8281 179.5H60.2891L59.2031 176.531ZM54.8906 175.297H58.7578L56.8203 169.977L54.8906 175.297ZM66.7109 174.43C65.4245 174.06 64.487 173.607 63.8984 173.07C63.3151 172.529 63.0234 171.862 63.0234 171.07C63.0234 170.174 63.3802 169.435 64.0938 168.852C64.8125 168.263 65.7448 167.969 66.8906 167.969C67.6719 167.969 68.3672 168.12 68.9766 168.422C69.5911 168.724 70.0651 169.141 70.3984 169.672C70.737 170.203 70.9062 170.784 70.9062 171.414H69.3984C69.3984 170.727 69.1797 170.188 68.7422 169.797C68.3047 169.401 67.6875 169.203 66.8906 169.203C66.151 169.203 65.5729 169.367 65.1562 169.695C64.7448 170.018 64.5391 170.469 64.5391 171.047C64.5391 171.51 64.7344 171.904 65.125 172.227C65.5208 172.544 66.1901 172.836 67.1328 173.102C68.0807 173.367 68.8203 173.661 69.3516 173.984C69.888 174.302 70.2839 174.674 70.5391 175.102C70.7995 175.529 70.9297 176.031 70.9297 176.609C70.9297 177.531 70.5703 178.271 69.8516 178.828C69.1328 179.38 68.1719 179.656 66.9688 179.656C66.1875 179.656 65.4583 179.508 64.7812 179.211C64.1042 178.909 63.5807 178.497 63.2109 177.977C62.8464 177.456 62.6641 176.865 62.6641 176.203H64.1719C64.1719 176.891 64.4245 177.435 64.9297 177.836C65.4401 178.232 66.1198 178.43 66.9688 178.43C67.7604 178.43 68.3672 178.268 68.7891 177.945C69.2109 177.622 69.4219 177.182 69.4219 176.625C69.4219 176.068 69.2266 175.638 68.8359 175.336C68.4453 175.029 67.737 174.727 66.7109 174.43ZM81.6016 179.5H80.0938V174.242H74.3594V179.5H72.8594V168.125H74.3594V173.016H80.0938V168.125H81.6016V179.5Z" fill="#2097F6"/>
<path d="M130.016 175.203C130.016 173.906 130.323 172.865 130.938 172.078C131.552 171.286 132.357 170.891 133.352 170.891C134.341 170.891 135.125 171.229 135.703 171.906V167.5H137.148V179.5H135.82L135.75 178.594C135.172 179.302 134.367 179.656 133.336 179.656C132.357 179.656 131.557 179.255 130.938 178.453C130.323 177.651 130.016 176.604 130.016 175.312V175.203ZM131.461 175.367C131.461 176.326 131.659 177.076 132.055 177.617C132.451 178.159 132.997 178.43 133.695 178.43C134.612 178.43 135.281 178.018 135.703 177.195V173.312C135.271 172.516 134.607 172.117 133.711 172.117C133.003 172.117 132.451 172.391 132.055 172.938C131.659 173.484 131.461 174.294 131.461 175.367ZM146.148 171.094C146.148 171.661 145.997 172.167 145.695 172.609C145.398 173.052 144.995 173.398 144.484 173.648C145.078 173.904 145.547 174.276 145.891 174.766C146.24 175.255 146.414 175.81 146.414 176.43C146.414 177.414 146.081 178.198 145.414 178.781C144.753 179.365 143.88 179.656 142.797 179.656C141.703 179.656 140.826 179.365 140.164 178.781C139.508 178.193 139.18 177.409 139.18 176.43C139.18 175.815 139.346 175.26 139.68 174.766C140.018 174.271 140.484 173.896 141.078 173.641C140.573 173.391 140.174 173.044 139.883 172.602C139.591 172.159 139.445 171.656 139.445 171.094C139.445 170.135 139.753 169.375 140.367 168.812C140.982 168.25 141.792 167.969 142.797 167.969C143.797 167.969 144.604 168.25 145.219 168.812C145.839 169.375 146.148 170.135 146.148 171.094ZM144.969 176.398C144.969 175.763 144.766 175.245 144.359 174.844C143.958 174.443 143.432 174.242 142.781 174.242C142.13 174.242 141.607 174.44 141.211 174.836C140.82 175.232 140.625 175.753 140.625 176.398C140.625 177.044 140.815 177.552 141.195 177.922C141.581 178.292 142.115 178.477 142.797 178.477C143.474 178.477 144.005 178.292 144.391 177.922C144.776 177.547 144.969 177.039 144.969 176.398ZM142.797 169.156C142.229 169.156 141.768 169.333 141.414 169.688C141.065 170.036 140.891 170.513 140.891 171.117C140.891 171.695 141.062 172.164 141.406 172.523C141.755 172.878 142.219 173.055 142.797 173.055C143.375 173.055 143.836 172.878 144.18 172.523C144.529 172.164 144.703 171.695 144.703 171.117C144.703 170.539 144.523 170.068 144.164 169.703C143.805 169.339 143.349 169.156 142.797 169.156ZM151.773 178.477C152.289 178.477 152.74 178.32 153.125 178.008C153.51 177.695 153.724 177.305 153.766 176.836H155.133C155.107 177.32 154.94 177.781 154.633 178.219C154.326 178.656 153.914 179.005 153.398 179.266C152.888 179.526 152.346 179.656 151.773 179.656C150.622 179.656 149.706 179.273 149.023 178.508C148.346 177.737 148.008 176.685 148.008 175.352V175.109C148.008 174.286 148.159 173.555 148.461 172.914C148.763 172.273 149.195 171.776 149.758 171.422C150.326 171.068 150.995 170.891 151.766 170.891C152.714 170.891 153.5 171.174 154.125 171.742C154.755 172.31 155.091 173.047 155.133 173.953H153.766C153.724 173.406 153.516 172.958 153.141 172.609C152.771 172.255 152.312 172.078 151.766 172.078C151.031 172.078 150.461 172.344 150.055 172.875C149.654 173.401 149.453 174.164 149.453 175.164V175.438C149.453 176.411 149.654 177.161 150.055 177.688C150.456 178.214 151.029 178.477 151.773 178.477ZM161.977 179.5C161.893 179.333 161.826 179.036 161.773 178.609C161.102 179.307 160.299 179.656 159.367 179.656C158.534 179.656 157.849 179.422 157.312 178.953C156.781 178.479 156.516 177.88 156.516 177.156C156.516 176.276 156.849 175.594 157.516 175.109C158.188 174.62 159.13 174.375 160.344 174.375H161.75V173.711C161.75 173.206 161.599 172.805 161.297 172.508C160.995 172.206 160.549 172.055 159.961 172.055C159.445 172.055 159.013 172.185 158.664 172.445C158.315 172.706 158.141 173.021 158.141 173.391H156.688C156.688 172.969 156.836 172.562 157.133 172.172C157.435 171.776 157.841 171.464 158.352 171.234C158.867 171.005 159.432 170.891 160.047 170.891C161.021 170.891 161.784 171.135 162.336 171.625C162.888 172.109 163.174 172.779 163.195 173.633V177.523C163.195 178.299 163.294 178.917 163.492 179.375V179.5H161.977ZM159.578 178.398C160.031 178.398 160.461 178.281 160.867 178.047C161.273 177.812 161.568 177.508 161.75 177.133V175.398H160.617C158.846 175.398 157.961 175.917 157.961 176.953C157.961 177.406 158.112 177.76 158.414 178.016C158.716 178.271 159.104 178.398 159.578 178.398ZM172.656 168.938L167.945 179.5H166.43L171.125 169.312H164.969V168.125H172.656V168.938ZM176.398 173.109H177.484C178.167 173.099 178.703 172.919 179.094 172.57C179.484 172.221 179.68 171.75 179.68 171.156C179.68 169.823 179.016 169.156 177.688 169.156C177.062 169.156 176.562 169.336 176.188 169.695C175.818 170.049 175.633 170.521 175.633 171.109H174.188C174.188 170.208 174.516 169.461 175.172 168.867C175.833 168.268 176.672 167.969 177.688 167.969C178.76 167.969 179.602 168.253 180.211 168.82C180.82 169.388 181.125 170.177 181.125 171.188C181.125 171.682 180.964 172.161 180.641 172.625C180.323 173.089 179.888 173.435 179.336 173.664C179.961 173.862 180.443 174.19 180.781 174.648C181.125 175.107 181.297 175.667 181.297 176.328C181.297 177.349 180.964 178.159 180.297 178.758C179.63 179.357 178.763 179.656 177.695 179.656C176.628 179.656 175.758 179.367 175.086 178.789C174.419 178.211 174.086 177.448 174.086 176.5H175.539C175.539 177.099 175.734 177.578 176.125 177.938C176.516 178.297 177.039 178.477 177.695 178.477C178.393 178.477 178.927 178.294 179.297 177.93C179.667 177.565 179.852 177.042 179.852 176.359C179.852 175.698 179.648 175.19 179.242 174.836C178.836 174.482 178.25 174.299 177.484 174.289H176.398V173.109ZM190.625 168.938L185.914 179.5H184.398L189.094 169.312H182.938V168.125H190.625V168.938ZM192.93 173.797L193.508 168.125H199.336V169.461H194.734L194.391 172.562C194.948 172.234 195.581 172.07 196.289 172.07C197.326 172.07 198.148 172.414 198.758 173.102C199.367 173.784 199.672 174.708 199.672 175.875C199.672 177.047 199.354 177.971 198.719 178.648C198.089 179.32 197.206 179.656 196.07 179.656C195.065 179.656 194.245 179.378 193.609 178.82C192.974 178.263 192.612 177.492 192.523 176.508H193.891C193.979 177.159 194.211 177.651 194.586 177.984C194.961 178.312 195.456 178.477 196.07 178.477C196.742 178.477 197.268 178.247 197.648 177.789C198.034 177.331 198.227 176.698 198.227 175.891C198.227 175.13 198.018 174.521 197.602 174.062C197.19 173.599 196.641 173.367 195.953 173.367C195.323 173.367 194.828 173.505 194.469 173.781L194.086 174.094L192.93 173.797ZM204.906 179.656C203.76 179.656 202.828 179.281 202.109 178.531C201.391 177.776 201.031 176.768 201.031 175.508V175.242C201.031 174.404 201.19 173.656 201.508 173C201.831 172.339 202.279 171.823 202.852 171.453C203.43 171.078 204.055 170.891 204.727 170.891C205.826 170.891 206.68 171.253 207.289 171.977C207.898 172.701 208.203 173.737 208.203 175.086V175.688H202.477C202.497 176.521 202.74 177.195 203.203 177.711C203.672 178.221 204.266 178.477 204.984 178.477C205.495 178.477 205.927 178.372 206.281 178.164C206.635 177.956 206.945 177.68 207.211 177.336L208.094 178.023C207.385 179.112 206.323 179.656 204.906 179.656ZM204.727 172.078C204.143 172.078 203.654 172.292 203.258 172.719C202.862 173.141 202.617 173.734 202.523 174.5H206.758V174.391C206.716 173.656 206.518 173.089 206.164 172.688C205.81 172.281 205.331 172.078 204.727 172.078ZM210.398 173.797L210.977 168.125H216.805V169.461H212.203L211.859 172.562C212.417 172.234 213.049 172.07 213.758 172.07C214.794 172.07 215.617 172.414 216.227 173.102C216.836 173.784 217.141 174.708 217.141 175.875C217.141 177.047 216.823 177.971 216.188 178.648C215.557 179.32 214.674 179.656 213.539 179.656C212.534 179.656 211.714 179.378 211.078 178.82C210.443 178.263 210.081 177.492 209.992 176.508H211.359C211.448 177.159 211.68 177.651 212.055 177.984C212.43 178.312 212.924 178.477 213.539 178.477C214.211 178.477 214.737 178.247 215.117 177.789C215.503 177.331 215.695 176.698 215.695 175.891C215.695 175.13 215.487 174.521 215.07 174.062C214.659 173.599 214.109 173.367 213.422 173.367C212.792 173.367 212.297 173.505 211.938 173.781L211.555 174.094L210.398 173.797ZM223.469 179.5H222.016V169.867L219.102 170.938V169.625L223.242 168.07H223.469V179.5ZM233.805 175.68H235.383V176.859H233.805V179.5H232.352V176.859H227.172V176.008L232.266 168.125H233.805V175.68ZM228.812 175.68H232.352V170.102L232.18 170.414L228.812 175.68ZM241.438 179.5H239.984V169.867L237.07 170.938V169.625L241.211 168.07H241.438V179.5ZM250.422 179.5H248.969V169.867L246.055 170.938V169.625L250.195 168.07H250.422V179.5ZM260.195 174.5C259.893 174.859 259.531 175.148 259.109 175.367C258.693 175.586 258.234 175.695 257.734 175.695C257.078 175.695 256.505 175.534 256.016 175.211C255.531 174.888 255.156 174.435 254.891 173.852C254.625 173.263 254.492 172.615 254.492 171.906C254.492 171.146 254.635 170.461 254.922 169.852C255.214 169.242 255.625 168.776 256.156 168.453C256.688 168.13 257.307 167.969 258.016 167.969C259.141 167.969 260.026 168.391 260.672 169.234C261.323 170.073 261.648 171.219 261.648 172.672V173.094C261.648 175.307 261.211 176.924 260.336 177.945C259.461 178.961 258.141 179.482 256.375 179.508H256.094V178.289H256.398C257.591 178.268 258.508 177.958 259.148 177.359C259.789 176.755 260.138 175.802 260.195 174.5ZM257.969 174.5C258.453 174.5 258.898 174.352 259.305 174.055C259.716 173.758 260.016 173.391 260.203 172.953V172.375C260.203 171.427 259.997 170.656 259.586 170.062C259.174 169.469 258.654 169.172 258.023 169.172C257.388 169.172 256.878 169.417 256.492 169.906C256.107 170.391 255.914 171.031 255.914 171.828C255.914 172.604 256.099 173.245 256.469 173.75C256.844 174.25 257.344 174.5 257.969 174.5ZM263.438 175.203C263.438 173.906 263.745 172.865 264.359 172.078C264.974 171.286 265.779 170.891 266.773 170.891C267.763 170.891 268.547 171.229 269.125 171.906V167.5H270.57V179.5H269.242L269.172 178.594C268.594 179.302 267.789 179.656 266.758 179.656C265.779 179.656 264.979 179.255 264.359 178.453C263.745 177.651 263.438 176.604 263.438 175.312V175.203ZM264.883 175.367C264.883 176.326 265.081 177.076 265.477 177.617C265.872 178.159 266.419 178.43 267.117 178.43C268.034 178.43 268.703 178.018 269.125 177.195V173.312C268.693 172.516 268.029 172.117 267.133 172.117C266.424 172.117 265.872 172.391 265.477 172.938C265.081 173.484 264.883 174.294 264.883 175.367ZM278.211 174.5C277.909 174.859 277.547 175.148 277.125 175.367C276.708 175.586 276.25 175.695 275.75 175.695C275.094 175.695 274.521 175.534 274.031 175.211C273.547 174.888 273.172 174.435 272.906 173.852C272.641 173.263 272.508 172.615 272.508 171.906C272.508 171.146 272.651 170.461 272.938 169.852C273.229 169.242 273.641 168.776 274.172 168.453C274.703 168.13 275.323 167.969 276.031 167.969C277.156 167.969 278.042 168.391 278.688 169.234C279.339 170.073 279.664 171.219 279.664 172.672V173.094C279.664 175.307 279.227 176.924 278.352 177.945C277.477 178.961 276.156 179.482 274.391 179.508H274.109V178.289H274.414C275.607 178.268 276.523 177.958 277.164 177.359C277.805 176.755 278.154 175.802 278.211 174.5ZM275.984 174.5C276.469 174.5 276.914 174.352 277.32 174.055C277.732 173.758 278.031 173.391 278.219 172.953V172.375C278.219 171.427 278.013 170.656 277.602 170.062C277.19 169.469 276.669 169.172 276.039 169.172C275.404 169.172 274.893 169.417 274.508 169.906C274.122 170.391 273.93 171.031 273.93 171.828C273.93 172.604 274.115 173.245 274.484 173.75C274.859 174.25 275.359 174.5 275.984 174.5ZM288.961 175.367C288.961 176.659 288.664 177.698 288.07 178.484C287.477 179.266 286.68 179.656 285.68 179.656C284.612 179.656 283.786 179.279 283.203 178.523L283.133 179.5H281.805V167.5H283.25V171.977C283.833 171.253 284.638 170.891 285.664 170.891C286.69 170.891 287.495 171.279 288.078 172.055C288.667 172.831 288.961 173.893 288.961 175.242V175.367ZM287.516 175.203C287.516 174.219 287.326 173.458 286.945 172.922C286.565 172.385 286.018 172.117 285.305 172.117C284.352 172.117 283.667 172.56 283.25 173.445V177.102C283.693 177.987 284.383 178.43 285.32 178.43C286.013 178.43 286.552 178.161 286.938 177.625C287.323 177.089 287.516 176.281 287.516 175.203ZM297.773 174.648C297.773 176.341 297.484 177.599 296.906 178.422C296.328 179.245 295.424 179.656 294.195 179.656C292.982 179.656 292.083 179.255 291.5 178.453C290.917 177.646 290.615 176.443 290.594 174.844V172.914C290.594 171.242 290.883 170 291.461 169.188C292.039 168.375 292.945 167.969 294.18 167.969C295.404 167.969 296.305 168.362 296.883 169.148C297.461 169.93 297.758 171.138 297.773 172.773V174.648ZM296.328 172.672C296.328 171.448 296.156 170.557 295.812 170C295.469 169.438 294.924 169.156 294.18 169.156C293.44 169.156 292.901 169.435 292.562 169.992C292.224 170.549 292.049 171.406 292.039 172.562V174.875C292.039 176.104 292.216 177.013 292.57 177.602C292.93 178.185 293.471 178.477 294.195 178.477C294.909 178.477 295.438 178.201 295.781 177.648C296.13 177.096 296.312 176.227 296.328 175.039V172.672ZM306.969 168.938L302.258 179.5H300.742L305.438 169.312H299.281V168.125H306.969V168.938ZM316.062 179.5H308.609V178.461L312.547 174.086C313.13 173.424 313.531 172.888 313.75 172.477C313.974 172.06 314.086 171.63 314.086 171.188C314.086 170.594 313.906 170.107 313.547 169.727C313.188 169.346 312.708 169.156 312.109 169.156C311.391 169.156 310.831 169.362 310.43 169.773C310.034 170.18 309.836 170.747 309.836 171.477H308.391C308.391 170.43 308.727 169.583 309.398 168.938C310.076 168.292 310.979 167.969 312.109 167.969C313.167 167.969 314.003 168.247 314.617 168.805C315.232 169.357 315.539 170.094 315.539 171.016C315.539 172.135 314.826 173.469 313.398 175.016L310.352 178.32H316.062V179.5ZM317.391 175.203C317.391 173.906 317.698 172.865 318.312 172.078C318.927 171.286 319.732 170.891 320.727 170.891C321.716 170.891 322.5 171.229 323.078 171.906V167.5H324.523V179.5H323.195L323.125 178.594C322.547 179.302 321.742 179.656 320.711 179.656C319.732 179.656 318.932 179.255 318.312 178.453C317.698 177.651 317.391 176.604 317.391 175.312V175.203ZM318.836 175.367C318.836 176.326 319.034 177.076 319.43 177.617C319.826 178.159 320.372 178.43 321.07 178.43C321.987 178.43 322.656 178.018 323.078 177.195V173.312C322.646 172.516 321.982 172.117 321.086 172.117C320.378 172.117 319.826 172.391 319.43 172.938C319.034 173.484 318.836 174.294 318.836 175.367ZM331.992 179.5C331.909 179.333 331.841 179.036 331.789 178.609C331.117 179.307 330.315 179.656 329.383 179.656C328.549 179.656 327.865 179.422 327.328 178.953C326.797 178.479 326.531 177.88 326.531 177.156C326.531 176.276 326.865 175.594 327.531 175.109C328.203 174.62 329.146 174.375 330.359 174.375H331.766V173.711C331.766 173.206 331.615 172.805 331.312 172.508C331.01 172.206 330.565 172.055 329.977 172.055C329.461 172.055 329.029 172.185 328.68 172.445C328.331 172.706 328.156 173.021 328.156 173.391H326.703C326.703 172.969 326.852 172.562 327.148 172.172C327.451 171.776 327.857 171.464 328.367 171.234C328.883 171.005 329.448 170.891 330.062 170.891C331.036 170.891 331.799 171.135 332.352 171.625C332.904 172.109 333.19 172.779 333.211 173.633V177.523C333.211 178.299 333.31 178.917 333.508 179.375V179.5H331.992ZM329.594 178.398C330.047 178.398 330.477 178.281 330.883 178.047C331.289 177.812 331.583 177.508 331.766 177.133V175.398H330.633C328.862 175.398 327.977 175.917 327.977 176.953C327.977 177.406 328.128 177.76 328.43 178.016C328.732 178.271 329.12 178.398 329.594 178.398ZM341.43 175.68H343.008V176.859H341.43V179.5H339.977V176.859H334.797V176.008L339.891 168.125H341.43V175.68ZM336.438 175.68H339.977V170.102L339.805 170.414L336.438 175.68ZM349.68 179.5C349.596 179.333 349.529 179.036 349.477 178.609C348.805 179.307 348.003 179.656 347.07 179.656C346.237 179.656 345.552 179.422 345.016 178.953C344.484 178.479 344.219 177.88 344.219 177.156C344.219 176.276 344.552 175.594 345.219 175.109C345.891 174.62 346.833 174.375 348.047 174.375H349.453V173.711C349.453 173.206 349.302 172.805 349 172.508C348.698 172.206 348.253 172.055 347.664 172.055C347.148 172.055 346.716 172.185 346.367 172.445C346.018 172.706 345.844 173.021 345.844 173.391H344.391C344.391 172.969 344.539 172.562 344.836 172.172C345.138 171.776 345.544 171.464 346.055 171.234C346.57 171.005 347.135 170.891 347.75 170.891C348.724 170.891 349.487 171.135 350.039 171.625C350.591 172.109 350.878 172.779 350.898 173.633V177.523C350.898 178.299 350.997 178.917 351.195 179.375V179.5H349.68ZM347.281 178.398C347.734 178.398 348.164 178.281 348.57 178.047C348.977 177.812 349.271 177.508 349.453 177.133V175.398H348.32C346.549 175.398 345.664 175.917 345.664 176.953C345.664 177.406 345.815 177.76 346.117 178.016C346.419 178.271 346.807 178.398 347.281 178.398ZM353.195 178.742C353.195 178.492 353.268 178.284 353.414 178.117C353.565 177.951 353.789 177.867 354.086 177.867C354.383 177.867 354.607 177.951 354.758 178.117C354.914 178.284 354.992 178.492 354.992 178.742C354.992 178.982 354.914 179.182 354.758 179.344C354.607 179.505 354.383 179.586 354.086 179.586C353.789 179.586 353.565 179.505 353.414 179.344C353.268 179.182 353.195 178.982 353.195 178.742ZM357.414 178.742C357.414 178.492 357.487 178.284 357.633 178.117C357.784 177.951 358.008 177.867 358.305 177.867C358.602 177.867 358.826 177.951 358.977 178.117C359.133 178.284 359.211 178.492 359.211 178.742C359.211 178.982 359.133 179.182 358.977 179.344C358.826 179.505 358.602 179.586 358.305 179.586C358.008 179.586 357.784 179.505 357.633 179.344C357.487 179.182 357.414 178.982 357.414 178.742ZM361.633 178.742C361.633 178.492 361.706 178.284 361.852 178.117C362.003 177.951 362.227 177.867 362.523 177.867C362.82 177.867 363.044 177.951 363.195 178.117C363.352 178.284 363.43 178.492 363.43 178.742C363.43 178.982 363.352 179.182 363.195 179.344C363.044 179.505 362.82 179.586 362.523 179.586C362.227 179.586 362.003 179.505 361.852 179.344C361.706 179.182 361.633 178.982 361.633 178.742Z" fill="#DE1306"/>
<rect x="0.5" y="0.5" width="399" height="213" rx="7.5" stroke="#2097F6"/>
</g>
<defs>
<filter id="filter0_d" x="0" y="0" width="404" height="218" filterUnits="userSpaceOnUse" color-interpolation-filters="sRGB">
<feFlood flood-opacity="0" result="BackgroundImageFix"/>
<feColorMatrix in="SourceAlpha" type="matrix" values="0 0 0 0 0 0 0 0 0 0 0 0 0 0 0 0 0 0 127 0"/>
<feOffset dx="4" dy="4"/>
<feColorMatrix type="matrix" values="0 0 0 0 0.513733 0 0 0 0 0.767915 0 0 0 0 0.970833 0 0 0 1 0"/>
<feBlend mode="normal" in2="BackgroundImageFix" result="effect1_dropShadow"/>
<feBlend mode="normal" in="SourceGraphic" in2="effect1_dropShadow" result="shape"/>
</filter>
<clipPath id="clip0">
<rect width="24" height="24" fill="white" transform="translate(151.5 14)"/>
</clipPath>
</defs>
</svg>
