<svg width="404" height="184" viewBox="0 0 404 184" fill="none" xmlns="http://www.w3.org/2000/svg">
<g filter="url(#filter0_d)">
<rect width="400" height="180" rx="8" fill="#E7F4FF"/>
<path d="M28 20.5H128.5V59.5H28C23.8579 59.5 20.5 56.1421 20.5 52V28C20.5 23.8579 23.8579 20.5 28 20.5Z" fill="#E7F4FF"/>
<path d="M41.7656 45.5V34.125H44.9766C45.9661 34.125 46.8411 34.3438 47.6016 34.7812C48.362 35.2188 48.9479 35.8411 49.3594 36.6484C49.776 37.4557 49.987 38.3828 49.9922 39.4297V40.1562C49.9922 41.2292 49.7839 42.1693 49.3672 42.9766C48.9557 43.7839 48.3646 44.4036 47.5938 44.8359C46.8281 45.2682 45.9349 45.4896 44.9141 45.5H41.7656ZM43.2656 35.3594V44.2734H44.8438C46 44.2734 46.8984 43.9141 47.5391 43.1953C48.1849 42.4766 48.5078 41.4531 48.5078 40.125V39.4609C48.5078 38.1693 48.2031 37.1667 47.5938 36.4531C46.9896 35.7344 46.1302 35.3698 45.0156 35.3594H43.2656ZM58.375 42.5312H53.6094L52.5391 45.5H50.9922L55.3359 34.125H56.6484L61 45.5H59.4609L58.375 42.5312ZM54.0625 41.2969H57.9297L55.9922 35.9766L54.0625 41.2969ZM69.375 35.3594H65.7188V45.5H64.2266V35.3594H60.5781V34.125H69.375V35.3594ZM76.7188 42.5312H71.9531L70.8828 45.5H69.3359L73.6797 34.125H74.9922L79.3438 45.5H77.8047L76.7188 42.5312ZM72.4062 41.2969H76.2734L74.3359 35.9766L72.4062 41.2969Z" fill="#2097F6"/>
<path d="M28 20.5H128.5V59.5H28C23.8579 59.5 20.5 56.1421 20.5 52V28C20.5 23.8579 23.8579 20.5 28 20.5Z" stroke="#2097F6"/>
<path d="M129 20.5H128.5V21V59V59.5H129H375C379.694 59.5 383.5 55.6944 383.5 51V29C383.5 24.3056 379.694 20.5 375 20.5H129Z" fill="white"/>
<path d="M152.352 45.5H150.852V34.125H152.352V45.5ZM160.414 45.5H158.969V33.5H160.414V45.5ZM164.305 45.5H162.859V37.0469H164.305V45.5ZM162.742 34.8047C162.742 34.5703 162.812 34.3724 162.953 34.2109C163.099 34.0495 163.312 33.9688 163.594 33.9688C163.875 33.9688 164.089 34.0495 164.234 34.2109C164.38 34.3724 164.453 34.5703 164.453 34.8047C164.453 35.0391 164.38 35.2344 164.234 35.3906C164.089 35.5469 163.875 35.625 163.594 35.625C163.312 35.625 163.099 35.5469 162.953 35.3906C162.812 35.2344 162.742 35.0391 162.742 34.8047ZM168.984 41.5859L168.078 42.5312V45.5H166.633V33.5H168.078V40.7578L168.852 39.8281L171.484 37.0469H173.242L169.953 40.5781L173.625 45.5H171.93L168.984 41.5859ZM178.086 45.6562C176.94 45.6562 176.008 45.2812 175.289 44.5312C174.57 43.776 174.211 42.7682 174.211 41.5078V41.2422C174.211 40.4036 174.37 39.6562 174.688 39C175.01 38.3385 175.458 37.8229 176.031 37.4531C176.609 37.0781 177.234 36.8906 177.906 36.8906C179.005 36.8906 179.859 37.2526 180.469 37.9766C181.078 38.7005 181.383 39.737 181.383 41.0859V41.6875H175.656C175.677 42.5208 175.919 43.1953 176.383 43.7109C176.852 44.2214 177.445 44.4766 178.164 44.4766C178.674 44.4766 179.107 44.3724 179.461 44.1641C179.815 43.9557 180.125 43.6797 180.391 43.3359L181.273 44.0234C180.565 45.112 179.503 45.6562 178.086 45.6562ZM177.906 38.0781C177.323 38.0781 176.833 38.2917 176.438 38.7188C176.042 39.1406 175.797 39.7344 175.703 40.5H179.938V40.3906C179.896 39.6562 179.698 39.0885 179.344 38.6875C178.99 38.2812 178.51 38.0781 177.906 38.0781ZM190.422 44.4766C190.938 44.4766 191.388 44.3203 191.773 44.0078C192.159 43.6953 192.372 43.3047 192.414 42.8359H193.781C193.755 43.3203 193.589 43.7812 193.281 44.2188C192.974 44.6562 192.562 45.0052 192.047 45.2656C191.536 45.526 190.995 45.6562 190.422 45.6562C189.271 45.6562 188.354 45.2734 187.672 44.5078C186.995 43.737 186.656 42.6849 186.656 41.3516V41.1094C186.656 40.2865 186.807 39.5547 187.109 38.9141C187.411 38.2734 187.844 37.776 188.406 37.4219C188.974 37.0677 189.643 36.8906 190.414 36.8906C191.362 36.8906 192.148 37.1745 192.773 37.7422C193.404 38.3099 193.74 39.0469 193.781 39.9531H192.414C192.372 39.4062 192.164 38.9583 191.789 38.6094C191.419 38.2552 190.961 38.0781 190.414 38.0781C189.68 38.0781 189.109 38.3438 188.703 38.875C188.302 39.401 188.102 40.1641 188.102 41.1641V41.4375C188.102 42.4115 188.302 43.1615 188.703 43.6875C189.104 44.2135 189.677 44.4766 190.422 44.4766ZM200.625 45.5C200.542 45.3333 200.474 45.0365 200.422 44.6094C199.75 45.3073 198.948 45.6562 198.016 45.6562C197.182 45.6562 196.497 45.4219 195.961 44.9531C195.43 44.4792 195.164 43.8802 195.164 43.1562C195.164 42.276 195.497 41.5938 196.164 41.1094C196.836 40.6198 197.779 40.375 198.992 40.375H200.398V39.7109C200.398 39.2057 200.247 38.8047 199.945 38.5078C199.643 38.2057 199.198 38.0547 198.609 38.0547C198.094 38.0547 197.661 38.1849 197.312 38.4453C196.964 38.7057 196.789 39.0208 196.789 39.3906H195.336C195.336 38.9688 195.484 38.5625 195.781 38.1719C196.083 37.776 196.49 37.4635 197 37.2344C197.516 37.0052 198.081 36.8906 198.695 36.8906C199.669 36.8906 200.432 37.1354 200.984 37.625C201.536 38.1094 201.823 38.7786 201.844 39.6328V43.5234C201.844 44.2995 201.943 44.9167 202.141 45.375V45.5H200.625ZM198.227 44.3984C198.68 44.3984 199.109 44.2812 199.516 44.0469C199.922 43.8125 200.216 43.5078 200.398 43.1328V41.3984H199.266C197.495 41.3984 196.609 41.9167 196.609 42.9531C196.609 43.4062 196.76 43.7604 197.062 44.0156C197.365 44.2708 197.753 44.3984 198.227 44.3984ZM206.469 41.5859L205.562 42.5312V45.5H204.117V33.5H205.562V40.7578L206.336 39.8281L208.969 37.0469H210.727L207.438 40.5781L211.109 45.5H209.414L206.469 41.5859ZM215.57 45.6562C214.424 45.6562 213.492 45.2812 212.773 44.5312C212.055 43.776 211.695 42.7682 211.695 41.5078V41.2422C211.695 40.4036 211.854 39.6562 212.172 39C212.495 38.3385 212.943 37.8229 213.516 37.4531C214.094 37.0781 214.719 36.8906 215.391 36.8906C216.49 36.8906 217.344 37.2526 217.953 37.9766C218.562 38.7005 218.867 39.737 218.867 41.0859V41.6875H213.141C213.161 42.5208 213.404 43.1953 213.867 43.7109C214.336 44.2214 214.93 44.4766 215.648 44.4766C216.159 44.4766 216.591 44.3724 216.945 44.1641C217.299 43.9557 217.609 43.6797 217.875 43.3359L218.758 44.0234C218.049 45.112 216.987 45.6562 215.57 45.6562ZM215.391 38.0781C214.807 38.0781 214.318 38.2917 213.922 38.7188C213.526 39.1406 213.281 39.7344 213.188 40.5H217.422V40.3906C217.38 39.6562 217.182 39.0885 216.828 38.6875C216.474 38.2812 215.995 38.0781 215.391 38.0781ZM222.164 42.2891H220.859L220.758 34.125H222.273L222.164 42.2891ZM220.703 44.7734C220.703 44.5391 220.773 44.3438 220.914 44.1875C221.06 44.026 221.273 43.9453 221.555 43.9453C221.836 43.9453 222.049 44.026 222.195 44.1875C222.341 44.3438 222.414 44.5391 222.414 44.7734C222.414 45.0078 222.341 45.2031 222.195 45.3594C222.049 45.5104 221.836 45.5859 221.555 45.5859C221.273 45.5859 221.06 45.5104 220.914 45.3594C220.773 45.2031 220.703 45.0078 220.703 44.7734Z" fill="#2097F6"/>
<path d="M129 20.5H128.5V21V59V59.5H129H375C379.694 59.5 383.5 55.6944 383.5 51V29C383.5 24.3056 379.694 20.5 375 20.5H129Z" stroke="#2097F6"/>
<path d="M28 70.5H128.5V109.5H28C23.8579 109.5 20.5 106.142 20.5 102V78C20.5 73.8579 23.8579 70.5 28 70.5Z" fill="#E7F4FF"/>
<path d="M43.0938 91.0469V95.5H41.5938V84.125H45.7891C47.0339 84.125 48.0078 84.4427 48.7109 85.0781C49.4193 85.7135 49.7734 86.5547 49.7734 87.6016C49.7734 88.7057 49.4271 89.5573 48.7344 90.1562C48.0469 90.75 47.0599 91.0469 45.7734 91.0469H43.0938ZM43.0938 89.8203H45.7891C46.5911 89.8203 47.2057 89.6328 47.6328 89.2578C48.0599 88.8776 48.2734 88.3307 48.2734 87.6172C48.2734 86.9401 48.0599 86.3984 47.6328 85.9922C47.2057 85.5859 46.6198 85.375 45.875 85.3594H43.0938V89.8203ZM55.8594 90.8984H53.1875V95.5H51.6797V84.125H55.4453C56.7266 84.125 57.7109 84.4167 58.3984 85C59.0911 85.5833 59.4375 86.4323 59.4375 87.5469C59.4375 88.2552 59.2448 88.8724 58.8594 89.3984C58.4792 89.9245 57.9479 90.3177 57.2656 90.5781L59.9375 95.4062V95.5H58.3281L55.8594 90.8984ZM53.1875 89.6719H55.4922C56.237 89.6719 56.8281 89.4792 57.2656 89.0938C57.7083 88.7083 57.9297 88.1927 57.9297 87.5469C57.9297 86.8438 57.7188 86.3047 57.2969 85.9297C56.8802 85.5547 56.276 85.3646 55.4844 85.3594H53.1875V89.6719ZM63.1562 95.5H61.6562V84.125H63.1562V95.5ZM69.6719 93.5078L72.9219 84.125H74.5625L70.3438 95.5H69.0156L64.8047 84.125H66.4375L69.6719 93.5078ZM81.9609 96.6797H74.8047V95.5H81.9609V96.6797ZM86.2031 90.2109L84.8125 91.6562V95.5H83.3125V84.125H84.8125V89.75L89.8672 84.125H91.6797L87.2031 89.1484L92.0312 95.5H90.2344L86.2031 90.2109ZM99.7734 90.2422H94.8438V94.2734H100.57V95.5H93.3438V84.125H100.492V85.3594H94.8438V89.0156H99.7734V90.2422ZM105.906 89.8359L108.875 84.125H110.578L106.656 91.2578V95.5H105.156V91.2578L101.234 84.125H102.953L105.906 89.8359Z" fill="#2097F6"/>
<path d="M28 70.5H128.5V109.5H28C23.8579 109.5 20.5 106.142 20.5 102V78C20.5 73.8579 23.8579 70.5 28 70.5Z" stroke="#2097F6"/>
<path d="M129 70.5H128.5V71V109V109.5H129H375C379.694 109.5 383.5 105.694 383.5 101V79C383.5 74.3056 379.694 70.5 375 70.5H129Z" fill="white"/>
<path d="M150.961 89.7969L151.539 84.125H157.367V85.4609H152.766L152.422 88.5625C152.979 88.2344 153.612 88.0703 154.32 88.0703C155.357 88.0703 156.18 88.4141 156.789 89.1016C157.398 89.7839 157.703 90.7083 157.703 91.875C157.703 93.0469 157.385 93.9714 156.75 94.6484C156.12 95.3203 155.237 95.6562 154.102 95.6562C153.096 95.6562 152.276 95.3776 151.641 94.8203C151.005 94.263 150.643 93.4922 150.555 92.5078H151.922C152.01 93.1589 152.242 93.651 152.617 93.9844C152.992 94.3125 153.487 94.4766 154.102 94.4766C154.773 94.4766 155.299 94.2474 155.68 93.7891C156.065 93.3307 156.258 92.6979 156.258 91.8906C156.258 91.1302 156.049 90.5208 155.633 90.0625C155.221 89.599 154.672 89.3672 153.984 89.3672C153.354 89.3672 152.859 89.5052 152.5 89.7812L152.117 90.0938L150.961 89.7969ZM166.18 87.0938C166.18 87.6615 166.029 88.1667 165.727 88.6094C165.43 89.0521 165.026 89.3984 164.516 89.6484C165.109 89.9036 165.578 90.276 165.922 90.7656C166.271 91.2552 166.445 91.8099 166.445 92.4297C166.445 93.4141 166.112 94.1979 165.445 94.7812C164.784 95.3646 163.911 95.6562 162.828 95.6562C161.734 95.6562 160.857 95.3646 160.195 94.7812C159.539 94.1927 159.211 93.4089 159.211 92.4297C159.211 91.8151 159.378 91.2604 159.711 90.7656C160.049 90.2708 160.516 89.8958 161.109 89.6406C160.604 89.3906 160.206 89.0443 159.914 88.6016C159.622 88.1589 159.477 87.6562 159.477 87.0938C159.477 86.1354 159.784 85.375 160.398 84.8125C161.013 84.25 161.823 83.9688 162.828 83.9688C163.828 83.9688 164.635 84.25 165.25 84.8125C165.87 85.375 166.18 86.1354 166.18 87.0938ZM165 92.3984C165 91.763 164.797 91.2448 164.391 90.8438C163.99 90.4427 163.464 90.2422 162.812 90.2422C162.161 90.2422 161.638 90.4401 161.242 90.8359C160.852 91.2318 160.656 91.7526 160.656 92.3984C160.656 93.0443 160.846 93.5521 161.227 93.9219C161.612 94.2917 162.146 94.4766 162.828 94.4766C163.505 94.4766 164.036 94.2917 164.422 93.9219C164.807 93.5469 165 93.0391 165 92.3984ZM162.828 85.1562C162.26 85.1562 161.799 85.3333 161.445 85.6875C161.096 86.0365 160.922 86.513 160.922 87.1172C160.922 87.6953 161.094 88.1641 161.438 88.5234C161.786 88.8776 162.25 89.0547 162.828 89.0547C163.406 89.0547 163.867 88.8776 164.211 88.5234C164.56 88.1641 164.734 87.6953 164.734 87.1172C164.734 86.5391 164.555 86.0677 164.195 85.7031C163.836 85.3385 163.38 85.1562 162.828 85.1562ZM173.016 95.5H171.562V85.8672L168.648 86.9375V85.625L172.789 84.0703H173.016V95.5ZM183.352 91.6797H184.93V92.8594H183.352V95.5H181.898V92.8594H176.719V92.0078L181.812 84.125H183.352V91.6797ZM178.359 91.6797H181.898V86.1016L181.727 86.4141L178.359 91.6797ZM191.773 90.5C191.471 90.8594 191.109 91.1484 190.688 91.3672C190.271 91.5859 189.812 91.6953 189.312 91.6953C188.656 91.6953 188.083 91.5339 187.594 91.2109C187.109 90.888 186.734 90.4349 186.469 89.8516C186.203 89.263 186.07 88.6146 186.07 87.9062C186.07 87.1458 186.214 86.4609 186.5 85.8516C186.792 85.2422 187.203 84.776 187.734 84.4531C188.266 84.1302 188.885 83.9688 189.594 83.9688C190.719 83.9688 191.604 84.3906 192.25 85.2344C192.901 86.0729 193.227 87.2188 193.227 88.6719V89.0938C193.227 91.3073 192.789 92.9245 191.914 93.9453C191.039 94.9609 189.719 95.4818 187.953 95.5078H187.672V94.2891H187.977C189.169 94.2682 190.086 93.9583 190.727 93.3594C191.367 92.7552 191.716 91.8021 191.773 90.5ZM189.547 90.5C190.031 90.5 190.477 90.3516 190.883 90.0547C191.294 89.7578 191.594 89.3906 191.781 88.9531V88.375C191.781 87.4271 191.576 86.6562 191.164 86.0625C190.753 85.4688 190.232 85.1719 189.602 85.1719C188.966 85.1719 188.456 85.4167 188.07 85.9062C187.685 86.3906 187.492 87.0312 187.492 87.8281C187.492 88.6042 187.677 89.2448 188.047 89.75C188.422 90.25 188.922 90.5 189.547 90.5ZM200.758 90.5C200.456 90.8594 200.094 91.1484 199.672 91.3672C199.255 91.5859 198.797 91.6953 198.297 91.6953C197.641 91.6953 197.068 91.5339 196.578 91.2109C196.094 90.888 195.719 90.4349 195.453 89.8516C195.188 89.263 195.055 88.6146 195.055 87.9062C195.055 87.1458 195.198 86.4609 195.484 85.8516C195.776 85.2422 196.188 84.776 196.719 84.4531C197.25 84.1302 197.87 83.9688 198.578 83.9688C199.703 83.9688 200.589 84.3906 201.234 85.2344C201.885 86.0729 202.211 87.2188 202.211 88.6719V89.0938C202.211 91.3073 201.773 92.9245 200.898 93.9453C200.023 94.9609 198.703 95.4818 196.938 95.5078H196.656V94.2891H196.961C198.154 94.2682 199.07 93.9583 199.711 93.3594C200.352 92.7552 200.701 91.8021 200.758 90.5ZM198.531 90.5C199.016 90.5 199.461 90.3516 199.867 90.0547C200.279 89.7578 200.578 89.3906 200.766 88.9531V88.375C200.766 87.4271 200.56 86.6562 200.148 86.0625C199.737 85.4688 199.216 85.1719 198.586 85.1719C197.951 85.1719 197.44 85.4167 197.055 85.9062C196.669 86.3906 196.477 87.0312 196.477 87.8281C196.477 88.6042 196.661 89.2448 197.031 89.75C197.406 90.25 197.906 90.5 198.531 90.5ZM211.547 84.9375L206.836 95.5H205.32L210.016 85.3125H203.859V84.125H211.547V84.9375ZM220.32 90.6484C220.32 92.3411 220.031 93.599 219.453 94.4219C218.875 95.2448 217.971 95.6562 216.742 95.6562C215.529 95.6562 214.63 95.2552 214.047 94.4531C213.464 93.6458 213.161 92.4427 213.141 90.8438V88.9141C213.141 87.2422 213.43 86 214.008 85.1875C214.586 84.375 215.492 83.9688 216.727 83.9688C217.951 83.9688 218.852 84.362 219.43 85.1484C220.008 85.9297 220.305 87.138 220.32 88.7734V90.6484ZM218.875 88.6719C218.875 87.4479 218.703 86.5573 218.359 86C218.016 85.4375 217.471 85.1562 216.727 85.1562C215.987 85.1562 215.448 85.4349 215.109 85.9922C214.771 86.5495 214.596 87.4062 214.586 88.5625V90.875C214.586 92.1042 214.763 93.013 215.117 93.6016C215.477 94.1849 216.018 94.4766 216.742 94.4766C217.456 94.4766 217.984 94.2005 218.328 93.6484C218.677 93.0964 218.859 92.2266 218.875 91.0391V88.6719ZM229.305 90.6484C229.305 92.3411 229.016 93.599 228.438 94.4219C227.859 95.2448 226.956 95.6562 225.727 95.6562C224.513 95.6562 223.615 95.2552 223.031 94.4531C222.448 93.6458 222.146 92.4427 222.125 90.8438V88.9141C222.125 87.2422 222.414 86 222.992 85.1875C223.57 84.375 224.477 83.9688 225.711 83.9688C226.935 83.9688 227.836 84.362 228.414 85.1484C228.992 85.9297 229.289 87.138 229.305 88.7734V90.6484ZM227.859 88.6719C227.859 87.4479 227.688 86.5573 227.344 86C227 85.4375 226.456 85.1562 225.711 85.1562C224.971 85.1562 224.432 85.4349 224.094 85.9922C223.755 86.5495 223.581 87.4062 223.57 88.5625V90.875C223.57 92.1042 223.747 93.013 224.102 93.6016C224.461 94.1849 225.003 94.4766 225.727 94.4766C226.44 94.4766 226.969 94.2005 227.312 93.6484C227.661 93.0964 227.844 92.2266 227.859 91.0391V88.6719ZM236.828 84.1172V85.3438H236.562C235.438 85.3646 234.542 85.6979 233.875 86.3438C233.208 86.9896 232.823 87.8984 232.719 89.0703C233.318 88.3828 234.135 88.0391 235.172 88.0391C236.161 88.0391 236.951 88.388 237.539 89.0859C238.133 89.7839 238.43 90.6849 238.43 91.7891C238.43 92.9609 238.109 93.8984 237.469 94.6016C236.833 95.3047 235.979 95.6562 234.906 95.6562C233.818 95.6562 232.935 95.2396 232.258 94.4062C231.581 93.5677 231.242 92.4896 231.242 91.1719V90.6172C231.242 88.5234 231.688 86.9245 232.578 85.8203C233.474 84.7109 234.805 84.1432 236.57 84.1172H236.828ZM234.93 89.2422C234.435 89.2422 233.979 89.3906 233.562 89.6875C233.146 89.9844 232.857 90.3568 232.695 90.8047V91.3359C232.695 92.2734 232.906 93.0286 233.328 93.6016C233.75 94.1745 234.276 94.4609 234.906 94.4609C235.557 94.4609 236.068 94.2214 236.438 93.7422C236.812 93.263 237 92.6354 237 91.8594C237 91.0781 236.81 90.4479 236.43 89.9688C236.055 89.4844 235.555 89.2422 234.93 89.2422ZM246.242 91.6797H247.82V92.8594H246.242V95.5H244.789V92.8594H239.609V92.0078L244.703 84.125H246.242V91.6797ZM241.25 91.6797H244.789V86.1016L244.617 86.4141L241.25 91.6797ZM256.469 84.9375L251.758 95.5H250.242L254.938 85.3125H248.781V84.125H256.469V84.9375ZM265.008 87.0938C265.008 87.6615 264.857 88.1667 264.555 88.6094C264.258 89.0521 263.854 89.3984 263.344 89.6484C263.938 89.9036 264.406 90.276 264.75 90.7656C265.099 91.2552 265.273 91.8099 265.273 92.4297C265.273 93.4141 264.94 94.1979 264.273 94.7812C263.612 95.3646 262.74 95.6562 261.656 95.6562C260.562 95.6562 259.685 95.3646 259.023 94.7812C258.367 94.1927 258.039 93.4089 258.039 92.4297C258.039 91.8151 258.206 91.2604 258.539 90.7656C258.878 90.2708 259.344 89.8958 259.938 89.6406C259.432 89.3906 259.034 89.0443 258.742 88.6016C258.451 88.1589 258.305 87.6562 258.305 87.0938C258.305 86.1354 258.612 85.375 259.227 84.8125C259.841 84.25 260.651 83.9688 261.656 83.9688C262.656 83.9688 263.464 84.25 264.078 84.8125C264.698 85.375 265.008 86.1354 265.008 87.0938ZM263.828 92.3984C263.828 91.763 263.625 91.2448 263.219 90.8438C262.818 90.4427 262.292 90.2422 261.641 90.2422C260.99 90.2422 260.466 90.4401 260.07 90.8359C259.68 91.2318 259.484 91.7526 259.484 92.3984C259.484 93.0443 259.674 93.5521 260.055 93.9219C260.44 94.2917 260.974 94.4766 261.656 94.4766C262.333 94.4766 262.865 94.2917 263.25 93.9219C263.635 93.5469 263.828 93.0391 263.828 92.3984ZM261.656 85.1562C261.089 85.1562 260.628 85.3333 260.273 85.6875C259.924 86.0365 259.75 86.513 259.75 87.1172C259.75 87.6953 259.922 88.1641 260.266 88.5234C260.615 88.8776 261.078 89.0547 261.656 89.0547C262.234 89.0547 262.695 88.8776 263.039 88.5234C263.388 88.1641 263.562 87.6953 263.562 87.1172C263.562 86.5391 263.383 86.0677 263.023 85.7031C262.664 85.3385 262.208 85.1562 261.656 85.1562ZM272.633 90.5C272.331 90.8594 271.969 91.1484 271.547 91.3672C271.13 91.5859 270.672 91.6953 270.172 91.6953C269.516 91.6953 268.943 91.5339 268.453 91.2109C267.969 90.888 267.594 90.4349 267.328 89.8516C267.062 89.263 266.93 88.6146 266.93 87.9062C266.93 87.1458 267.073 86.4609 267.359 85.8516C267.651 85.2422 268.062 84.776 268.594 84.4531C269.125 84.1302 269.745 83.9688 270.453 83.9688C271.578 83.9688 272.464 84.3906 273.109 85.2344C273.76 86.0729 274.086 87.2188 274.086 88.6719V89.0938C274.086 91.3073 273.648 92.9245 272.773 93.9453C271.898 94.9609 270.578 95.4818 268.812 95.5078H268.531V94.2891H268.836C270.029 94.2682 270.945 93.9583 271.586 93.3594C272.227 92.7552 272.576 91.8021 272.633 90.5ZM270.406 90.5C270.891 90.5 271.336 90.3516 271.742 90.0547C272.154 89.7578 272.453 89.3906 272.641 88.9531V88.375C272.641 87.4271 272.435 86.6562 272.023 86.0625C271.612 85.4688 271.091 85.1719 270.461 85.1719C269.826 85.1719 269.315 85.4167 268.93 85.9062C268.544 86.3906 268.352 87.0312 268.352 87.8281C268.352 88.6042 268.536 89.2448 268.906 89.75C269.281 90.25 269.781 90.5 270.406 90.5ZM283.531 95.5H276.078V94.4609L280.016 90.0859C280.599 89.4245 281 88.888 281.219 88.4766C281.443 88.0599 281.555 87.6302 281.555 87.1875C281.555 86.5938 281.375 86.1068 281.016 85.7266C280.656 85.3464 280.177 85.1562 279.578 85.1562C278.859 85.1562 278.299 85.362 277.898 85.7734C277.503 86.1797 277.305 86.7474 277.305 87.4766H275.859C275.859 86.4297 276.195 85.5833 276.867 84.9375C277.544 84.2917 278.448 83.9688 279.578 83.9688C280.635 83.9688 281.471 84.2474 282.086 84.8047C282.701 85.3568 283.008 86.0938 283.008 87.0156C283.008 88.1354 282.294 89.4688 280.867 91.0156L277.82 94.3203H283.531V95.5ZM290.734 84.1172V85.3438H290.469C289.344 85.3646 288.448 85.6979 287.781 86.3438C287.115 86.9896 286.729 87.8984 286.625 89.0703C287.224 88.3828 288.042 88.0391 289.078 88.0391C290.068 88.0391 290.857 88.388 291.445 89.0859C292.039 89.7839 292.336 90.6849 292.336 91.7891C292.336 92.9609 292.016 93.8984 291.375 94.6016C290.74 95.3047 289.885 95.6562 288.812 95.6562C287.724 95.6562 286.841 95.2396 286.164 94.4062C285.487 93.5677 285.148 92.4896 285.148 91.1719V90.6172C285.148 88.5234 285.594 86.9245 286.484 85.8203C287.38 84.7109 288.711 84.1432 290.477 84.1172H290.734ZM288.836 89.2422C288.341 89.2422 287.885 89.3906 287.469 89.6875C287.052 89.9844 286.763 90.3568 286.602 90.8047V91.3359C286.602 92.2734 286.812 93.0286 287.234 93.6016C287.656 94.1745 288.182 94.4609 288.812 94.4609C289.464 94.4609 289.974 94.2214 290.344 93.7422C290.719 93.263 290.906 92.6354 290.906 91.8594C290.906 91.0781 290.716 90.4479 290.336 89.9688C289.961 89.4844 289.461 89.2422 288.836 89.2422ZM301.391 84.9375L296.68 95.5H295.164L299.859 85.3125H293.703V84.125H301.391V84.9375ZM310.164 90.6484C310.164 92.3411 309.875 93.599 309.297 94.4219C308.719 95.2448 307.815 95.6562 306.586 95.6562C305.372 95.6562 304.474 95.2552 303.891 94.4531C303.307 93.6458 303.005 92.4427 302.984 90.8438V88.9141C302.984 87.2422 303.273 86 303.852 85.1875C304.43 84.375 305.336 83.9688 306.57 83.9688C307.794 83.9688 308.695 84.362 309.273 85.1484C309.852 85.9297 310.148 87.138 310.164 88.7734V90.6484ZM308.719 88.6719C308.719 87.4479 308.547 86.5573 308.203 86C307.859 85.4375 307.315 85.1562 306.57 85.1562C305.831 85.1562 305.292 85.4349 304.953 85.9922C304.615 86.5495 304.44 87.4062 304.43 88.5625V90.875C304.43 92.1042 304.607 93.013 304.961 93.6016C305.32 94.1849 305.862 94.4766 306.586 94.4766C307.299 94.4766 307.828 94.2005 308.172 93.6484C308.521 93.0964 308.703 92.2266 308.719 91.0391V88.6719ZM318.117 91.6797H319.695V92.8594H318.117V95.5H316.664V92.8594H311.484V92.0078L316.578 84.125H318.117V91.6797ZM313.125 91.6797H316.664V86.1016L316.492 86.4141L313.125 91.6797ZM326.539 90.5C326.237 90.8594 325.875 91.1484 325.453 91.3672C325.036 91.5859 324.578 91.6953 324.078 91.6953C323.422 91.6953 322.849 91.5339 322.359 91.2109C321.875 90.888 321.5 90.4349 321.234 89.8516C320.969 89.263 320.836 88.6146 320.836 87.9062C320.836 87.1458 320.979 86.4609 321.266 85.8516C321.557 85.2422 321.969 84.776 322.5 84.4531C323.031 84.1302 323.651 83.9688 324.359 83.9688C325.484 83.9688 326.37 84.3906 327.016 85.2344C327.667 86.0729 327.992 87.2188 327.992 88.6719V89.0938C327.992 91.3073 327.555 92.9245 326.68 93.9453C325.805 94.9609 324.484 95.4818 322.719 95.5078H322.438V94.2891H322.742C323.935 94.2682 324.852 93.9583 325.492 93.3594C326.133 92.7552 326.482 91.8021 326.539 90.5ZM324.312 90.5C324.797 90.5 325.242 90.3516 325.648 90.0547C326.06 89.7578 326.359 89.3906 326.547 88.9531V88.375C326.547 87.4271 326.341 86.6562 325.93 86.0625C325.518 85.4688 324.997 85.1719 324.367 85.1719C323.732 85.1719 323.221 85.4167 322.836 85.9062C322.451 86.3906 322.258 87.0312 322.258 87.8281C322.258 88.6042 322.443 89.2448 322.812 89.75C323.188 90.25 323.688 90.5 324.312 90.5ZM336.883 87.0938C336.883 87.6615 336.732 88.1667 336.43 88.6094C336.133 89.0521 335.729 89.3984 335.219 89.6484C335.812 89.9036 336.281 90.276 336.625 90.7656C336.974 91.2552 337.148 91.8099 337.148 92.4297C337.148 93.4141 336.815 94.1979 336.148 94.7812C335.487 95.3646 334.615 95.6562 333.531 95.6562C332.438 95.6562 331.56 95.3646 330.898 94.7812C330.242 94.1927 329.914 93.4089 329.914 92.4297C329.914 91.8151 330.081 91.2604 330.414 90.7656C330.753 90.2708 331.219 89.8958 331.812 89.6406C331.307 89.3906 330.909 89.0443 330.617 88.6016C330.326 88.1589 330.18 87.6562 330.18 87.0938C330.18 86.1354 330.487 85.375 331.102 84.8125C331.716 84.25 332.526 83.9688 333.531 83.9688C334.531 83.9688 335.339 84.25 335.953 84.8125C336.573 85.375 336.883 86.1354 336.883 87.0938ZM335.703 92.3984C335.703 91.763 335.5 91.2448 335.094 90.8438C334.693 90.4427 334.167 90.2422 333.516 90.2422C332.865 90.2422 332.341 90.4401 331.945 90.8359C331.555 91.2318 331.359 91.7526 331.359 92.3984C331.359 93.0443 331.549 93.5521 331.93 93.9219C332.315 94.2917 332.849 94.4766 333.531 94.4766C334.208 94.4766 334.74 94.2917 335.125 93.9219C335.51 93.5469 335.703 93.0391 335.703 92.3984ZM333.531 85.1562C332.964 85.1562 332.503 85.3333 332.148 85.6875C331.799 86.0365 331.625 86.513 331.625 87.1172C331.625 87.6953 331.797 88.1641 332.141 88.5234C332.49 88.8776 332.953 89.0547 333.531 89.0547C334.109 89.0547 334.57 88.8776 334.914 88.5234C335.263 88.1641 335.438 87.6953 335.438 87.1172C335.438 86.5391 335.258 86.0677 334.898 85.7031C334.539 85.3385 334.083 85.1562 333.531 85.1562ZM345.867 87.0938C345.867 87.6615 345.716 88.1667 345.414 88.6094C345.117 89.0521 344.714 89.3984 344.203 89.6484C344.797 89.9036 345.266 90.276 345.609 90.7656C345.958 91.2552 346.133 91.8099 346.133 92.4297C346.133 93.4141 345.799 94.1979 345.133 94.7812C344.471 95.3646 343.599 95.6562 342.516 95.6562C341.422 95.6562 340.544 95.3646 339.883 94.7812C339.227 94.1927 338.898 93.4089 338.898 92.4297C338.898 91.8151 339.065 91.2604 339.398 90.7656C339.737 90.2708 340.203 89.8958 340.797 89.6406C340.292 89.3906 339.893 89.0443 339.602 88.6016C339.31 88.1589 339.164 87.6562 339.164 87.0938C339.164 86.1354 339.471 85.375 340.086 84.8125C340.701 84.25 341.51 83.9688 342.516 83.9688C343.516 83.9688 344.323 84.25 344.938 84.8125C345.557 85.375 345.867 86.1354 345.867 87.0938ZM344.688 92.3984C344.688 91.763 344.484 91.2448 344.078 90.8438C343.677 90.4427 343.151 90.2422 342.5 90.2422C341.849 90.2422 341.326 90.4401 340.93 90.8359C340.539 91.2318 340.344 91.7526 340.344 92.3984C340.344 93.0443 340.534 93.5521 340.914 93.9219C341.299 94.2917 341.833 94.4766 342.516 94.4766C343.193 94.4766 343.724 94.2917 344.109 93.9219C344.495 93.5469 344.688 93.0391 344.688 92.3984ZM342.516 85.1562C341.948 85.1562 341.487 85.3333 341.133 85.6875C340.784 86.0365 340.609 86.513 340.609 87.1172C340.609 87.6953 340.781 88.1641 341.125 88.5234C341.474 88.8776 341.938 89.0547 342.516 89.0547C343.094 89.0547 343.555 88.8776 343.898 88.5234C344.247 88.1641 344.422 87.6953 344.422 87.1172C344.422 86.5391 344.242 86.0677 343.883 85.7031C343.523 85.3385 343.068 85.1562 342.516 85.1562ZM350.055 89.1094H351.141C351.823 89.099 352.359 88.9193 352.75 88.5703C353.141 88.2214 353.336 87.75 353.336 87.1562C353.336 85.8229 352.672 85.1562 351.344 85.1562C350.719 85.1562 350.219 85.3359 349.844 85.6953C349.474 86.0495 349.289 86.5208 349.289 87.1094H347.844C347.844 86.2083 348.172 85.4609 348.828 84.8672C349.49 84.2682 350.328 83.9688 351.344 83.9688C352.417 83.9688 353.258 84.2526 353.867 84.8203C354.477 85.388 354.781 86.1771 354.781 87.1875C354.781 87.6823 354.62 88.1615 354.297 88.625C353.979 89.0885 353.544 89.4349 352.992 89.6641C353.617 89.862 354.099 90.1901 354.438 90.6484C354.781 91.1068 354.953 91.6667 354.953 92.3281C354.953 93.349 354.62 94.1589 353.953 94.7578C353.286 95.3568 352.419 95.6562 351.352 95.6562C350.284 95.6562 349.414 95.3672 348.742 94.7891C348.076 94.2109 347.742 93.4479 347.742 92.5H349.195C349.195 93.099 349.391 93.5781 349.781 93.9375C350.172 94.2969 350.695 94.4766 351.352 94.4766C352.049 94.4766 352.583 94.2943 352.953 93.9297C353.323 93.5651 353.508 93.0417 353.508 92.3594C353.508 91.6979 353.305 91.1901 352.898 90.8359C352.492 90.4818 351.906 90.2995 351.141 90.2891H350.055V89.1094ZM357.117 94.7422C357.117 94.4922 357.19 94.2839 357.336 94.1172C357.487 93.9505 357.711 93.8672 358.008 93.8672C358.305 93.8672 358.529 93.9505 358.68 94.1172C358.836 94.2839 358.914 94.4922 358.914 94.7422C358.914 94.9818 358.836 95.1823 358.68 95.3438C358.529 95.5052 358.305 95.5859 358.008 95.5859C357.711 95.5859 357.487 95.5052 357.336 95.3438C357.19 95.1823 357.117 94.9818 357.117 94.7422ZM361.336 94.7422C361.336 94.4922 361.409 94.2839 361.555 94.1172C361.706 93.9505 361.93 93.8672 362.227 93.8672C362.523 93.8672 362.747 93.9505 362.898 94.1172C363.055 94.2839 363.133 94.4922 363.133 94.7422C363.133 94.9818 363.055 95.1823 362.898 95.3438C362.747 95.5052 362.523 95.5859 362.227 95.5859C361.93 95.5859 361.706 95.5052 361.555 95.3438C361.409 95.1823 361.336 94.9818 361.336 94.7422ZM365.555 94.7422C365.555 94.4922 365.628 94.2839 365.773 94.1172C365.924 93.9505 366.148 93.8672 366.445 93.8672C366.742 93.8672 366.966 93.9505 367.117 94.1172C367.273 94.2839 367.352 94.4922 367.352 94.7422C367.352 94.9818 367.273 95.1823 367.117 95.3438C366.966 95.5052 366.742 95.5859 366.445 95.5859C366.148 95.5859 365.924 95.5052 365.773 95.3438C365.628 95.1823 365.555 94.9818 365.555 94.7422Z" fill="#2097F6"/>
<path d="M129 70.5H128.5V71V109V109.5H129H375C379.694 109.5 383.5 105.694 383.5 101V79C383.5 74.3056 379.694 70.5 375 70.5H129Z" stroke="#2097F6"/>
<path d="M44.8672 140.43C43.5807 140.06 42.6432 139.607 42.0547 139.07C41.4714 138.529 41.1797 137.862 41.1797 137.07C41.1797 136.174 41.5365 135.435 42.25 134.852C42.9688 134.263 43.901 133.969 45.0469 133.969C45.8281 133.969 46.5234 134.12 47.1328 134.422C47.7474 134.724 48.2214 135.141 48.5547 135.672C48.8932 136.203 49.0625 136.784 49.0625 137.414H47.5547C47.5547 136.727 47.3359 136.188 46.8984 135.797C46.4609 135.401 45.8438 135.203 45.0469 135.203C44.3073 135.203 43.7292 135.367 43.3125 135.695C42.901 136.018 42.6953 136.469 42.6953 137.047C42.6953 137.51 42.8906 137.904 43.2812 138.227C43.6771 138.544 44.3464 138.836 45.2891 139.102C46.237 139.367 46.9766 139.661 47.5078 139.984C48.0443 140.302 48.4401 140.674 48.6953 141.102C48.9557 141.529 49.0859 142.031 49.0859 142.609C49.0859 143.531 48.7266 144.271 48.0078 144.828C47.2891 145.38 46.3281 145.656 45.125 145.656C44.3438 145.656 43.6146 145.508 42.9375 145.211C42.2604 144.909 41.737 144.497 41.3672 143.977C41.0026 143.456 40.8203 142.865 40.8203 142.203H42.3281C42.3281 142.891 42.5807 143.435 43.0859 143.836C43.5964 144.232 44.276 144.43 45.125 144.43C45.9167 144.43 46.5234 144.268 46.9453 143.945C47.3672 143.622 47.5781 143.182 47.5781 142.625C47.5781 142.068 47.3828 141.638 46.9922 141.336C46.6016 141.029 45.8932 140.727 44.8672 140.43ZM52.625 145.5H51.125V134.125H52.625V145.5ZM63.7734 144.008C63.388 144.56 62.849 144.974 62.1562 145.25C61.4688 145.521 60.6667 145.656 59.75 145.656C58.8229 145.656 58 145.44 57.2812 145.008C56.5625 144.57 56.0052 143.951 55.6094 143.148C55.2188 142.346 55.0182 141.417 55.0078 140.359V139.367C55.0078 137.654 55.4062 136.326 56.2031 135.383C57.0052 134.44 58.1302 133.969 59.5781 133.969C60.7656 133.969 61.7214 134.273 62.4453 134.883C63.1693 135.487 63.612 136.346 63.7734 137.461H62.2734C61.9922 135.956 61.0964 135.203 59.5859 135.203C58.5807 135.203 57.8177 135.557 57.2969 136.266C56.7812 136.969 56.5208 137.99 56.5156 139.328V140.258C56.5156 141.534 56.8073 142.549 57.3906 143.305C57.974 144.055 58.763 144.43 59.7578 144.43C60.3203 144.43 60.8125 144.367 61.2344 144.242C61.6562 144.117 62.0052 143.906 62.2812 143.609V141.055H59.6484V139.836H63.7734V144.008ZM75.0234 145.5H73.5156L67.7891 136.734V145.5H66.2812V134.125H67.7891L73.5312 142.93V134.125H75.0234V145.5ZM84.1094 142.531H79.3438L78.2734 145.5H76.7266L81.0703 134.125H82.3828L86.7344 145.5H85.1953L84.1094 142.531ZM79.7969 141.297H83.6641L81.7266 135.977L79.7969 141.297ZM95.1094 135.359H91.4531V145.5H89.9609V135.359H86.3125V134.125H95.1094V135.359ZM104.805 134.125V141.859C104.799 142.932 104.461 143.81 103.789 144.492C103.122 145.174 102.216 145.557 101.07 145.641L100.672 145.656C99.4271 145.656 98.4349 145.32 97.6953 144.648C96.9557 143.977 96.5807 143.052 96.5703 141.875V134.125H98.0547V141.828C98.0547 142.651 98.2812 143.292 98.7344 143.75C99.1875 144.203 99.8333 144.43 100.672 144.43C101.521 144.43 102.169 144.203 102.617 143.75C103.07 143.297 103.297 142.659 103.297 141.836V134.125H104.805ZM111.344 140.898H108.672V145.5H107.164V134.125H110.93C112.211 134.125 113.195 134.417 113.883 135C114.576 135.583 114.922 136.432 114.922 137.547C114.922 138.255 114.729 138.872 114.344 139.398C113.964 139.924 113.432 140.318 112.75 140.578L115.422 145.406V145.5H113.812L111.344 140.898ZM108.672 139.672H110.977C111.721 139.672 112.312 139.479 112.75 139.094C113.193 138.708 113.414 138.193 113.414 137.547C113.414 136.844 113.203 136.305 112.781 135.93C112.365 135.555 111.76 135.365 110.969 135.359H108.672V139.672ZM123.461 140.242H118.531V144.273H124.258V145.5H117.031V134.125H124.18V135.359H118.531V139.016H123.461V140.242Z" fill="#2097F6"/>
<path d="M162.414 139.109H163.5C164.182 139.099 164.719 138.919 165.109 138.57C165.5 138.221 165.695 137.75 165.695 137.156C165.695 135.823 165.031 135.156 163.703 135.156C163.078 135.156 162.578 135.336 162.203 135.695C161.833 136.049 161.648 136.521 161.648 137.109H160.203C160.203 136.208 160.531 135.461 161.188 134.867C161.849 134.268 162.688 133.969 163.703 133.969C164.776 133.969 165.617 134.253 166.227 134.82C166.836 135.388 167.141 136.177 167.141 137.188C167.141 137.682 166.979 138.161 166.656 138.625C166.339 139.089 165.904 139.435 165.352 139.664C165.977 139.862 166.458 140.19 166.797 140.648C167.141 141.107 167.312 141.667 167.312 142.328C167.312 143.349 166.979 144.159 166.312 144.758C165.646 145.357 164.779 145.656 163.711 145.656C162.643 145.656 161.773 145.367 161.102 144.789C160.435 144.211 160.102 143.448 160.102 142.5H161.555C161.555 143.099 161.75 143.578 162.141 143.938C162.531 144.297 163.055 144.477 163.711 144.477C164.409 144.477 164.943 144.294 165.312 143.93C165.682 143.565 165.867 143.042 165.867 142.359C165.867 141.698 165.664 141.19 165.258 140.836C164.852 140.482 164.266 140.299 163.5 140.289H162.414V139.109ZM176.43 140.648C176.43 142.341 176.141 143.599 175.562 144.422C174.984 145.245 174.081 145.656 172.852 145.656C171.638 145.656 170.74 145.255 170.156 144.453C169.573 143.646 169.271 142.443 169.25 140.844V138.914C169.25 137.242 169.539 136 170.117 135.188C170.695 134.375 171.602 133.969 172.836 133.969C174.06 133.969 174.961 134.362 175.539 135.148C176.117 135.93 176.414 137.138 176.43 138.773V140.648ZM174.984 138.672C174.984 137.448 174.812 136.557 174.469 136C174.125 135.438 173.581 135.156 172.836 135.156C172.096 135.156 171.557 135.435 171.219 135.992C170.88 136.549 170.706 137.406 170.695 138.562V140.875C170.695 142.104 170.872 143.013 171.227 143.602C171.586 144.185 172.128 144.477 172.852 144.477C173.565 144.477 174.094 144.201 174.438 143.648C174.786 143.096 174.969 142.227 174.984 141.039V138.672ZM184.383 141.68H185.961V142.859H184.383V145.5H182.93V142.859H177.75V142.008L182.844 134.125H184.383V141.68ZM179.391 141.68H182.93V136.102L182.758 136.414L179.391 141.68ZM192.938 134.117V135.344H192.672C191.547 135.365 190.651 135.698 189.984 136.344C189.318 136.99 188.932 137.898 188.828 139.07C189.427 138.383 190.245 138.039 191.281 138.039C192.271 138.039 193.06 138.388 193.648 139.086C194.242 139.784 194.539 140.685 194.539 141.789C194.539 142.961 194.219 143.898 193.578 144.602C192.943 145.305 192.089 145.656 191.016 145.656C189.927 145.656 189.044 145.24 188.367 144.406C187.69 143.568 187.352 142.49 187.352 141.172V140.617C187.352 138.523 187.797 136.924 188.688 135.82C189.583 134.711 190.914 134.143 192.68 134.117H192.938ZM191.039 139.242C190.544 139.242 190.089 139.391 189.672 139.688C189.255 139.984 188.966 140.357 188.805 140.805V141.336C188.805 142.273 189.016 143.029 189.438 143.602C189.859 144.174 190.385 144.461 191.016 144.461C191.667 144.461 192.177 144.221 192.547 143.742C192.922 143.263 193.109 142.635 193.109 141.859C193.109 141.078 192.919 140.448 192.539 139.969C192.164 139.484 191.664 139.242 191.039 139.242ZM203.383 140.648C203.383 142.341 203.094 143.599 202.516 144.422C201.938 145.245 201.034 145.656 199.805 145.656C198.591 145.656 197.693 145.255 197.109 144.453C196.526 143.646 196.224 142.443 196.203 140.844V138.914C196.203 137.242 196.492 136 197.07 135.188C197.648 134.375 198.555 133.969 199.789 133.969C201.013 133.969 201.914 134.362 202.492 135.148C203.07 135.93 203.367 137.138 203.383 138.773V140.648ZM201.938 138.672C201.938 137.448 201.766 136.557 201.422 136C201.078 135.438 200.534 135.156 199.789 135.156C199.049 135.156 198.51 135.435 198.172 135.992C197.833 136.549 197.659 137.406 197.648 138.562V140.875C197.648 142.104 197.826 143.013 198.18 143.602C198.539 144.185 199.081 144.477 199.805 144.477C200.518 144.477 201.047 144.201 201.391 143.648C201.74 143.096 201.922 142.227 201.938 141.039V138.672ZM212.688 145.5H205.234V144.461L209.172 140.086C209.755 139.424 210.156 138.888 210.375 138.477C210.599 138.06 210.711 137.63 210.711 137.188C210.711 136.594 210.531 136.107 210.172 135.727C209.812 135.346 209.333 135.156 208.734 135.156C208.016 135.156 207.456 135.362 207.055 135.773C206.659 136.18 206.461 136.747 206.461 137.477H205.016C205.016 136.43 205.352 135.583 206.023 134.938C206.701 134.292 207.604 133.969 208.734 133.969C209.792 133.969 210.628 134.247 211.242 134.805C211.857 135.357 212.164 136.094 212.164 137.016C212.164 138.135 211.451 139.469 210.023 141.016L206.977 144.32H212.688V145.5ZM221.672 145.5H214.219V144.461L218.156 140.086C218.74 139.424 219.141 138.888 219.359 138.477C219.583 138.06 219.695 137.63 219.695 137.188C219.695 136.594 219.516 136.107 219.156 135.727C218.797 135.346 218.318 135.156 217.719 135.156C217 135.156 216.44 135.362 216.039 135.773C215.643 136.18 215.445 136.747 215.445 137.477H214C214 136.43 214.336 135.583 215.008 134.938C215.685 134.292 216.589 133.969 217.719 133.969C218.776 133.969 219.612 134.247 220.227 134.805C220.841 135.357 221.148 136.094 221.148 137.016C221.148 138.135 220.435 139.469 219.008 141.016L215.961 144.32H221.672V145.5ZM227.953 145.5H226.5V135.867L223.586 136.938V135.625L227.727 134.07H227.953V145.5ZM239.32 140.648C239.32 142.341 239.031 143.599 238.453 144.422C237.875 145.245 236.971 145.656 235.742 145.656C234.529 145.656 233.63 145.255 233.047 144.453C232.464 143.646 232.161 142.443 232.141 140.844V138.914C232.141 137.242 232.43 136 233.008 135.188C233.586 134.375 234.492 133.969 235.727 133.969C236.951 133.969 237.852 134.362 238.43 135.148C239.008 135.93 239.305 137.138 239.32 138.773V140.648ZM237.875 138.672C237.875 137.448 237.703 136.557 237.359 136C237.016 135.438 236.471 135.156 235.727 135.156C234.987 135.156 234.448 135.435 234.109 135.992C233.771 136.549 233.596 137.406 233.586 138.562V140.875C233.586 142.104 233.763 143.013 234.117 143.602C234.477 144.185 235.018 144.477 235.742 144.477C236.456 144.477 236.984 144.201 237.328 143.648C237.677 143.096 237.859 142.227 237.875 141.039V138.672ZM248.305 140.648C248.305 142.341 248.016 143.599 247.438 144.422C246.859 145.245 245.956 145.656 244.727 145.656C243.513 145.656 242.615 145.255 242.031 144.453C241.448 143.646 241.146 142.443 241.125 140.844V138.914C241.125 137.242 241.414 136 241.992 135.188C242.57 134.375 243.477 133.969 244.711 133.969C245.935 133.969 246.836 134.362 247.414 135.148C247.992 135.93 248.289 137.138 248.305 138.773V140.648ZM246.859 138.672C246.859 137.448 246.688 136.557 246.344 136C246 135.438 245.456 135.156 244.711 135.156C243.971 135.156 243.432 135.435 243.094 135.992C242.755 136.549 242.581 137.406 242.57 138.562V140.875C242.57 142.104 242.747 143.013 243.102 143.602C243.461 144.185 244.003 144.477 244.727 144.477C245.44 144.477 245.969 144.201 246.312 143.648C246.661 143.096 246.844 142.227 246.859 141.039V138.672ZM253.812 145.656C252.667 145.656 251.734 145.281 251.016 144.531C250.297 143.776 249.938 142.768 249.938 141.508V141.242C249.938 140.404 250.096 139.656 250.414 139C250.737 138.339 251.185 137.823 251.758 137.453C252.336 137.078 252.961 136.891 253.633 136.891C254.732 136.891 255.586 137.253 256.195 137.977C256.805 138.701 257.109 139.737 257.109 141.086V141.688H251.383C251.404 142.521 251.646 143.195 252.109 143.711C252.578 144.221 253.172 144.477 253.891 144.477C254.401 144.477 254.833 144.372 255.188 144.164C255.542 143.956 255.852 143.68 256.117 143.336L257 144.023C256.292 145.112 255.229 145.656 253.812 145.656ZM253.633 138.078C253.049 138.078 252.56 138.292 252.164 138.719C251.768 139.141 251.523 139.734 251.43 140.5H255.664V140.391C255.622 139.656 255.424 139.089 255.07 138.688C254.716 138.281 254.237 138.078 253.633 138.078ZM266.094 145.5H258.641V144.461L262.578 140.086C263.161 139.424 263.562 138.888 263.781 138.477C264.005 138.06 264.117 137.63 264.117 137.188C264.117 136.594 263.938 136.107 263.578 135.727C263.219 135.346 262.74 135.156 262.141 135.156C261.422 135.156 260.862 135.362 260.461 135.773C260.065 136.18 259.867 136.747 259.867 137.477H258.422C258.422 136.43 258.758 135.583 259.43 134.938C260.107 134.292 261.01 133.969 262.141 133.969C263.198 133.969 264.034 134.247 264.648 134.805C265.263 135.357 265.57 136.094 265.57 137.016C265.57 138.135 264.857 139.469 263.43 141.016L260.383 144.32H266.094V145.5ZM268.484 145.5V138.164H267.148V137.047H268.484V136.18C268.484 135.273 268.727 134.573 269.211 134.078C269.695 133.583 270.38 133.336 271.266 133.336C271.599 133.336 271.93 133.38 272.258 133.469L272.18 134.641C271.935 134.594 271.674 134.57 271.398 134.57C270.93 134.57 270.568 134.708 270.312 134.984C270.057 135.255 269.93 135.646 269.93 136.156V137.047H271.734V138.164H269.93V145.5H268.484ZM278.727 140.5C278.424 140.859 278.062 141.148 277.641 141.367C277.224 141.586 276.766 141.695 276.266 141.695C275.609 141.695 275.036 141.534 274.547 141.211C274.062 140.888 273.688 140.435 273.422 139.852C273.156 139.263 273.023 138.615 273.023 137.906C273.023 137.146 273.167 136.461 273.453 135.852C273.745 135.242 274.156 134.776 274.688 134.453C275.219 134.13 275.839 133.969 276.547 133.969C277.672 133.969 278.557 134.391 279.203 135.234C279.854 136.073 280.18 137.219 280.18 138.672V139.094C280.18 141.307 279.742 142.924 278.867 143.945C277.992 144.961 276.672 145.482 274.906 145.508H274.625V144.289H274.93C276.122 144.268 277.039 143.958 277.68 143.359C278.32 142.755 278.669 141.802 278.727 140.5ZM276.5 140.5C276.984 140.5 277.43 140.352 277.836 140.055C278.247 139.758 278.547 139.391 278.734 138.953V138.375C278.734 137.427 278.529 136.656 278.117 136.062C277.706 135.469 277.185 135.172 276.555 135.172C275.919 135.172 275.409 135.417 275.023 135.906C274.638 136.391 274.445 137.031 274.445 137.828C274.445 138.604 274.63 139.245 275 139.75C275.375 140.25 275.875 140.5 276.5 140.5ZM281.969 141.203C281.969 139.906 282.276 138.865 282.891 138.078C283.505 137.286 284.31 136.891 285.305 136.891C286.294 136.891 287.078 137.229 287.656 137.906V133.5H289.102V145.5H287.773L287.703 144.594C287.125 145.302 286.32 145.656 285.289 145.656C284.31 145.656 283.51 145.255 282.891 144.453C282.276 143.651 281.969 142.604 281.969 141.312V141.203ZM283.414 141.367C283.414 142.326 283.612 143.076 284.008 143.617C284.404 144.159 284.951 144.43 285.648 144.43C286.565 144.43 287.234 144.018 287.656 143.195V139.312C287.224 138.516 286.56 138.117 285.664 138.117C284.956 138.117 284.404 138.391 284.008 138.938C283.612 139.484 283.414 140.294 283.414 141.367ZM298.102 137.094C298.102 137.661 297.951 138.167 297.648 138.609C297.352 139.052 296.948 139.398 296.438 139.648C297.031 139.904 297.5 140.276 297.844 140.766C298.193 141.255 298.367 141.81 298.367 142.43C298.367 143.414 298.034 144.198 297.367 144.781C296.706 145.365 295.833 145.656 294.75 145.656C293.656 145.656 292.779 145.365 292.117 144.781C291.461 144.193 291.133 143.409 291.133 142.43C291.133 141.815 291.299 141.26 291.633 140.766C291.971 140.271 292.438 139.896 293.031 139.641C292.526 139.391 292.128 139.044 291.836 138.602C291.544 138.159 291.398 137.656 291.398 137.094C291.398 136.135 291.706 135.375 292.32 134.812C292.935 134.25 293.745 133.969 294.75 133.969C295.75 133.969 296.557 134.25 297.172 134.812C297.792 135.375 298.102 136.135 298.102 137.094ZM296.922 142.398C296.922 141.763 296.719 141.245 296.312 140.844C295.911 140.443 295.385 140.242 294.734 140.242C294.083 140.242 293.56 140.44 293.164 140.836C292.773 141.232 292.578 141.753 292.578 142.398C292.578 143.044 292.768 143.552 293.148 143.922C293.534 144.292 294.068 144.477 294.75 144.477C295.427 144.477 295.958 144.292 296.344 143.922C296.729 143.547 296.922 143.039 296.922 142.398ZM294.75 135.156C294.182 135.156 293.721 135.333 293.367 135.688C293.018 136.036 292.844 136.513 292.844 137.117C292.844 137.695 293.016 138.164 293.359 138.523C293.708 138.878 294.172 139.055 294.75 139.055C295.328 139.055 295.789 138.878 296.133 138.523C296.482 138.164 296.656 137.695 296.656 137.117C296.656 136.539 296.477 136.068 296.117 135.703C295.758 135.339 295.302 135.156 294.75 135.156ZM302.289 139.109H303.375C304.057 139.099 304.594 138.919 304.984 138.57C305.375 138.221 305.57 137.75 305.57 137.156C305.57 135.823 304.906 135.156 303.578 135.156C302.953 135.156 302.453 135.336 302.078 135.695C301.708 136.049 301.523 136.521 301.523 137.109H300.078C300.078 136.208 300.406 135.461 301.062 134.867C301.724 134.268 302.562 133.969 303.578 133.969C304.651 133.969 305.492 134.253 306.102 134.82C306.711 135.388 307.016 136.177 307.016 137.188C307.016 137.682 306.854 138.161 306.531 138.625C306.214 139.089 305.779 139.435 305.227 139.664C305.852 139.862 306.333 140.19 306.672 140.648C307.016 141.107 307.188 141.667 307.188 142.328C307.188 143.349 306.854 144.159 306.188 144.758C305.521 145.357 304.654 145.656 303.586 145.656C302.518 145.656 301.648 145.367 300.977 144.789C300.31 144.211 299.977 143.448 299.977 142.5H301.43C301.43 143.099 301.625 143.578 302.016 143.938C302.406 144.297 302.93 144.477 303.586 144.477C304.284 144.477 304.818 144.294 305.188 143.93C305.557 143.565 305.742 143.042 305.742 142.359C305.742 141.698 305.539 141.19 305.133 140.836C304.727 140.482 304.141 140.299 303.375 140.289H302.289V139.109ZM314.539 145.5C314.456 145.333 314.388 145.036 314.336 144.609C313.664 145.307 312.862 145.656 311.93 145.656C311.096 145.656 310.411 145.422 309.875 144.953C309.344 144.479 309.078 143.88 309.078 143.156C309.078 142.276 309.411 141.594 310.078 141.109C310.75 140.62 311.693 140.375 312.906 140.375H314.312V139.711C314.312 139.206 314.161 138.805 313.859 138.508C313.557 138.206 313.112 138.055 312.523 138.055C312.008 138.055 311.576 138.185 311.227 138.445C310.878 138.706 310.703 139.021 310.703 139.391H309.25C309.25 138.969 309.398 138.562 309.695 138.172C309.997 137.776 310.404 137.464 310.914 137.234C311.43 137.005 311.995 136.891 312.609 136.891C313.583 136.891 314.346 137.135 314.898 137.625C315.451 138.109 315.737 138.779 315.758 139.633V143.523C315.758 144.299 315.857 144.917 316.055 145.375V145.5H314.539ZM312.141 144.398C312.594 144.398 313.023 144.281 313.43 144.047C313.836 143.812 314.13 143.508 314.312 143.133V141.398H313.18C311.409 141.398 310.523 141.917 310.523 142.953C310.523 143.406 310.674 143.76 310.977 144.016C311.279 144.271 311.667 144.398 312.141 144.398ZM317.672 141.203C317.672 139.906 317.979 138.865 318.594 138.078C319.208 137.286 320.013 136.891 321.008 136.891C321.997 136.891 322.781 137.229 323.359 137.906V133.5H324.805V145.5H323.477L323.406 144.594C322.828 145.302 322.023 145.656 320.992 145.656C320.013 145.656 319.214 145.255 318.594 144.453C317.979 143.651 317.672 142.604 317.672 141.312V141.203ZM319.117 141.367C319.117 142.326 319.315 143.076 319.711 143.617C320.107 144.159 320.654 144.43 321.352 144.43C322.268 144.43 322.938 144.018 323.359 143.195V139.312C322.927 138.516 322.263 138.117 321.367 138.117C320.659 138.117 320.107 138.391 319.711 138.938C319.315 139.484 319.117 140.294 319.117 141.367ZM334.359 145.5H326.906V144.461L330.844 140.086C331.427 139.424 331.828 138.888 332.047 138.477C332.271 138.06 332.383 137.63 332.383 137.188C332.383 136.594 332.203 136.107 331.844 135.727C331.484 135.346 331.005 135.156 330.406 135.156C329.688 135.156 329.128 135.362 328.727 135.773C328.331 136.18 328.133 136.747 328.133 137.477H326.688C326.688 136.43 327.023 135.583 327.695 134.938C328.372 134.292 329.276 133.969 330.406 133.969C331.464 133.969 332.299 134.247 332.914 134.805C333.529 135.357 333.836 136.094 333.836 137.016C333.836 138.135 333.122 139.469 331.695 141.016L328.648 144.32H334.359V145.5ZM337.992 139.109H339.078C339.76 139.099 340.297 138.919 340.688 138.57C341.078 138.221 341.273 137.75 341.273 137.156C341.273 135.823 340.609 135.156 339.281 135.156C338.656 135.156 338.156 135.336 337.781 135.695C337.411 136.049 337.227 136.521 337.227 137.109H335.781C335.781 136.208 336.109 135.461 336.766 134.867C337.427 134.268 338.266 133.969 339.281 133.969C340.354 133.969 341.195 134.253 341.805 134.82C342.414 135.388 342.719 136.177 342.719 137.188C342.719 137.682 342.557 138.161 342.234 138.625C341.917 139.089 341.482 139.435 340.93 139.664C341.555 139.862 342.036 140.19 342.375 140.648C342.719 141.107 342.891 141.667 342.891 142.328C342.891 143.349 342.557 144.159 341.891 144.758C341.224 145.357 340.357 145.656 339.289 145.656C338.221 145.656 337.352 145.367 336.68 144.789C336.013 144.211 335.68 143.448 335.68 142.5H337.133C337.133 143.099 337.328 143.578 337.719 143.938C338.109 144.297 338.633 144.477 339.289 144.477C339.987 144.477 340.521 144.294 340.891 143.93C341.26 143.565 341.445 143.042 341.445 142.359C341.445 141.698 341.242 141.19 340.836 140.836C340.43 140.482 339.844 140.299 339.078 140.289H337.992V139.109ZM348.531 145.656C347.385 145.656 346.453 145.281 345.734 144.531C345.016 143.776 344.656 142.768 344.656 141.508V141.242C344.656 140.404 344.815 139.656 345.133 139C345.456 138.339 345.904 137.823 346.477 137.453C347.055 137.078 347.68 136.891 348.352 136.891C349.451 136.891 350.305 137.253 350.914 137.977C351.523 138.701 351.828 139.737 351.828 141.086V141.688H346.102C346.122 142.521 346.365 143.195 346.828 143.711C347.297 144.221 347.891 144.477 348.609 144.477C349.12 144.477 349.552 144.372 349.906 144.164C350.26 143.956 350.57 143.68 350.836 143.336L351.719 144.023C351.01 145.112 349.948 145.656 348.531 145.656ZM348.352 138.078C347.768 138.078 347.279 138.292 346.883 138.719C346.487 139.141 346.242 139.734 346.148 140.5H350.383V140.391C350.341 139.656 350.143 139.089 349.789 138.688C349.435 138.281 348.956 138.078 348.352 138.078ZM354.219 145.5V138.164H352.883V137.047H354.219V136.18C354.219 135.273 354.461 134.573 354.945 134.078C355.43 133.583 356.115 133.336 357 133.336C357.333 133.336 357.664 133.38 357.992 133.469L357.914 134.641C357.669 134.594 357.409 134.57 357.133 134.57C356.664 134.57 356.302 134.708 356.047 134.984C355.792 135.255 355.664 135.646 355.664 136.156V137.047H357.469V138.164H355.664V145.5H354.219ZM359.102 144.742C359.102 144.492 359.174 144.284 359.32 144.117C359.471 143.951 359.695 143.867 359.992 143.867C360.289 143.867 360.513 143.951 360.664 144.117C360.82 144.284 360.898 144.492 360.898 144.742C360.898 144.982 360.82 145.182 360.664 145.344C360.513 145.505 360.289 145.586 359.992 145.586C359.695 145.586 359.471 145.505 359.32 145.344C359.174 145.182 359.102 144.982 359.102 144.742ZM363.32 144.742C363.32 144.492 363.393 144.284 363.539 144.117C363.69 143.951 363.914 143.867 364.211 143.867C364.508 143.867 364.732 143.951 364.883 144.117C365.039 144.284 365.117 144.492 365.117 144.742C365.117 144.982 365.039 145.182 364.883 145.344C364.732 145.505 364.508 145.586 364.211 145.586C363.914 145.586 363.69 145.505 363.539 145.344C363.393 145.182 363.32 144.982 363.32 144.742ZM367.539 144.742C367.539 144.492 367.612 144.284 367.758 144.117C367.909 143.951 368.133 143.867 368.43 143.867C368.727 143.867 368.951 143.951 369.102 144.117C369.258 144.284 369.336 144.492 369.336 144.742C369.336 144.982 369.258 145.182 369.102 145.344C368.951 145.505 368.727 145.586 368.43 145.586C368.133 145.586 367.909 145.505 367.758 145.344C367.612 145.182 367.539 144.982 367.539 144.742Z" fill="#2097F6"/>
<rect x="0.5" y="0.5" width="399" height="179" rx="7.5" stroke="#2097F6"/>
</g>
<defs>
<filter id="filter0_d" x="0" y="0" width="404" height="184" filterUnits="userSpaceOnUse" color-interpolation-filters="sRGB">
<feFlood flood-opacity="0" result="BackgroundImageFix"/>
<feColorMatrix in="SourceAlpha" type="matrix" values="0 0 0 0 0 0 0 0 0 0 0 0 0 0 0 0 0 0 127 0"/>
<feOffset dx="4" dy="4"/>
<feColorMatrix type="matrix" values="0 0 0 0 0.513733 0 0 0 0 0.767915 0 0 0 0 0.970833 0 0 0 1 0"/>
<feBlend mode="normal" in2="BackgroundImageFix" result="effect1_dropShadow"/>
<feBlend mode="normal" in="SourceGraphic" in2="effect1_dropShadow" result="shape"/>
</filter>
</defs>
</svg>
