<svg width="404" height="134" viewBox="0 0 404 134" fill="none" xmlns="http://www.w3.org/2000/svg">
<g filter="url(#filter0_d)">
<rect width="400" height="130" rx="8" fill="#E7F4FF"/>
<path d="M28 20.5H108.5V59.5H28C23.8579 59.5 20.5 56.1421 20.5 52V28C20.5 23.8579 23.8579 20.5 28 20.5Z" fill="#E7F4FF"/>
<path d="M41.7656 45.5V34.125H44.9766C45.9661 34.125 46.8411 34.3438 47.6016 34.7812C48.362 35.2188 48.9479 35.8411 49.3594 36.6484C49.776 37.4557 49.987 38.3828 49.9922 39.4297V40.1562C49.9922 41.2292 49.7839 42.1693 49.3672 42.9766C48.9557 43.7839 48.3646 44.4036 47.5938 44.8359C46.8281 45.2682 45.9349 45.4896 44.9141 45.5H41.7656ZM43.2656 35.3594V44.2734H44.8438C46 44.2734 46.8984 43.9141 47.5391 43.1953C48.1849 42.4766 48.5078 41.4531 48.5078 40.125V39.4609C48.5078 38.1693 48.2031 37.1667 47.5938 36.4531C46.9896 35.7344 46.1302 35.3698 45.0156 35.3594H43.2656ZM58.375 42.5312H53.6094L52.5391 45.5H50.9922L55.3359 34.125H56.6484L61 45.5H59.4609L58.375 42.5312ZM54.0625 41.2969H57.9297L55.9922 35.9766L54.0625 41.2969ZM69.375 35.3594H65.7188V45.5H64.2266V35.3594H60.5781V34.125H69.375V35.3594ZM76.7188 42.5312H71.9531L70.8828 45.5H69.3359L73.6797 34.125H74.9922L79.3438 45.5H77.8047L76.7188 42.5312ZM72.4062 41.2969H76.2734L74.3359 35.9766L72.4062 41.2969Z" fill="#2097F6"/>
<path d="M28 20.5H108.5V59.5H28C23.8579 59.5 20.5 56.1421 20.5 52V28C20.5 23.8579 23.8579 20.5 28 20.5Z" stroke="#2097F6"/>
<path d="M109 20.5H108.5V21V59V59.5H109H375C379.694 59.5 383.5 55.6944 383.5 51V29C383.5 24.3056 379.694 20.5 375 20.5H109Z" fill="white"/>
<path d="M138.508 35.3594H134.852V45.5H133.359V35.3594H129.711V34.125H138.508V35.3594ZM141.414 38.0703C142.055 37.2839 142.888 36.8906 143.914 36.8906C145.701 36.8906 146.602 37.8984 146.617 39.9141V45.5H145.172V39.9062C145.167 39.2969 145.026 38.8464 144.75 38.5547C144.479 38.263 144.055 38.1172 143.477 38.1172C143.008 38.1172 142.596 38.2422 142.242 38.4922C141.888 38.7422 141.612 39.0703 141.414 39.4766V45.5H139.969V33.5H141.414V38.0703ZM152.289 45.6562C151.143 45.6562 150.211 45.2812 149.492 44.5312C148.773 43.776 148.414 42.7682 148.414 41.5078V41.2422C148.414 40.4036 148.573 39.6562 148.891 39C149.214 38.3385 149.661 37.8229 150.234 37.4531C150.812 37.0781 151.438 36.8906 152.109 36.8906C153.208 36.8906 154.062 37.2526 154.672 37.9766C155.281 38.7005 155.586 39.737 155.586 41.0859V41.6875H149.859C149.88 42.5208 150.122 43.1953 150.586 43.7109C151.055 44.2214 151.648 44.4766 152.367 44.4766C152.878 44.4766 153.31 44.3724 153.664 44.1641C154.018 43.9557 154.328 43.6797 154.594 43.3359L155.477 44.0234C154.768 45.112 153.706 45.6562 152.289 45.6562ZM152.109 38.0781C151.526 38.0781 151.036 38.2917 150.641 38.7188C150.245 39.1406 150 39.7344 149.906 40.5H154.141V40.3906C154.099 39.6562 153.901 39.0885 153.547 38.6875C153.193 38.2812 152.714 38.0781 152.109 38.0781ZM164.625 44.4766C165.141 44.4766 165.591 44.3203 165.977 44.0078C166.362 43.6953 166.576 43.3047 166.617 42.8359H167.984C167.958 43.3203 167.792 43.7812 167.484 44.2188C167.177 44.6562 166.766 45.0052 166.25 45.2656C165.74 45.526 165.198 45.6562 164.625 45.6562C163.474 45.6562 162.557 45.2734 161.875 44.5078C161.198 43.737 160.859 42.6849 160.859 41.3516V41.1094C160.859 40.2865 161.01 39.5547 161.312 38.9141C161.615 38.2734 162.047 37.776 162.609 37.4219C163.177 37.0677 163.846 36.8906 164.617 36.8906C165.565 36.8906 166.352 37.1745 166.977 37.7422C167.607 38.3099 167.943 39.0469 167.984 39.9531H166.617C166.576 39.4062 166.367 38.9583 165.992 38.6094C165.622 38.2552 165.164 38.0781 164.617 38.0781C163.883 38.0781 163.312 38.3438 162.906 38.875C162.505 39.401 162.305 40.1641 162.305 41.1641V41.4375C162.305 42.4115 162.505 43.1615 162.906 43.6875C163.307 44.2135 163.88 44.4766 164.625 44.4766ZM174.828 45.5C174.745 45.3333 174.677 45.0365 174.625 44.6094C173.953 45.3073 173.151 45.6562 172.219 45.6562C171.385 45.6562 170.701 45.4219 170.164 44.9531C169.633 44.4792 169.367 43.8802 169.367 43.1562C169.367 42.276 169.701 41.5938 170.367 41.1094C171.039 40.6198 171.982 40.375 173.195 40.375H174.602V39.7109C174.602 39.2057 174.451 38.8047 174.148 38.5078C173.846 38.2057 173.401 38.0547 172.812 38.0547C172.297 38.0547 171.865 38.1849 171.516 38.4453C171.167 38.7057 170.992 39.0208 170.992 39.3906H169.539C169.539 38.9688 169.688 38.5625 169.984 38.1719C170.286 37.776 170.693 37.4635 171.203 37.2344C171.719 37.0052 172.284 36.8906 172.898 36.8906C173.872 36.8906 174.635 37.1354 175.188 37.625C175.74 38.1094 176.026 38.7786 176.047 39.6328V43.5234C176.047 44.2995 176.146 44.9167 176.344 45.375V45.5H174.828ZM172.43 44.3984C172.883 44.3984 173.312 44.2812 173.719 44.0469C174.125 43.8125 174.419 43.5078 174.602 43.1328V41.3984H173.469C171.698 41.3984 170.812 41.9167 170.812 42.9531C170.812 43.4062 170.964 43.7604 171.266 44.0156C171.568 44.2708 171.956 44.3984 172.43 44.3984ZM180.672 41.5859L179.766 42.5312V45.5H178.32V33.5H179.766V40.7578L180.539 39.8281L183.172 37.0469H184.93L181.641 40.5781L185.312 45.5H183.617L180.672 41.5859ZM189.773 45.6562C188.628 45.6562 187.695 45.2812 186.977 44.5312C186.258 43.776 185.898 42.7682 185.898 41.5078V41.2422C185.898 40.4036 186.057 39.6562 186.375 39C186.698 38.3385 187.146 37.8229 187.719 37.4531C188.297 37.0781 188.922 36.8906 189.594 36.8906C190.693 36.8906 191.547 37.2526 192.156 37.9766C192.766 38.7005 193.07 39.737 193.07 41.0859V41.6875H187.344C187.365 42.5208 187.607 43.1953 188.07 43.7109C188.539 44.2214 189.133 44.4766 189.852 44.4766C190.362 44.4766 190.794 44.3724 191.148 44.1641C191.503 43.9557 191.812 43.6797 192.078 43.3359L192.961 44.0234C192.253 45.112 191.19 45.6562 189.773 45.6562ZM189.594 38.0781C189.01 38.0781 188.521 38.2917 188.125 38.7188C187.729 39.1406 187.484 39.7344 187.391 40.5H191.625V40.3906C191.583 39.6562 191.385 39.0885 191.031 38.6875C190.677 38.2812 190.198 38.0781 189.594 38.0781ZM200.289 45.5H198.844V37.0469H200.289V45.5ZM198.727 34.8047C198.727 34.5703 198.797 34.3724 198.938 34.2109C199.083 34.0495 199.297 33.9688 199.578 33.9688C199.859 33.9688 200.073 34.0495 200.219 34.2109C200.365 34.3724 200.438 34.5703 200.438 34.8047C200.438 35.0391 200.365 35.2344 200.219 35.3906C200.073 35.5469 199.859 35.625 199.578 35.625C199.297 35.625 199.083 35.5469 198.938 35.3906C198.797 35.2344 198.727 35.0391 198.727 34.8047ZM207.531 43.2578C207.531 42.8672 207.383 42.5651 207.086 42.3516C206.794 42.1328 206.281 41.9453 205.547 41.7891C204.818 41.6328 204.237 41.4453 203.805 41.2266C203.378 41.0078 203.06 40.7474 202.852 40.4453C202.648 40.1432 202.547 39.7839 202.547 39.3672C202.547 38.6745 202.839 38.0885 203.422 37.6094C204.01 37.1302 204.76 36.8906 205.672 36.8906C206.63 36.8906 207.406 37.138 208 37.6328C208.599 38.1276 208.898 38.7604 208.898 39.5312H207.445C207.445 39.1354 207.276 38.7943 206.938 38.5078C206.604 38.2214 206.182 38.0781 205.672 38.0781C205.146 38.0781 204.734 38.1927 204.438 38.4219C204.141 38.651 203.992 38.9505 203.992 39.3203C203.992 39.6693 204.13 39.9323 204.406 40.1094C204.682 40.2865 205.18 40.4557 205.898 40.6172C206.622 40.7786 207.208 40.9714 207.656 41.1953C208.104 41.4193 208.435 41.6901 208.648 42.0078C208.867 42.3203 208.977 42.7031 208.977 43.1562C208.977 43.9115 208.674 44.5182 208.07 44.9766C207.466 45.4297 206.682 45.6562 205.719 45.6562C205.042 45.6562 204.443 45.5365 203.922 45.2969C203.401 45.0573 202.992 44.724 202.695 44.2969C202.404 43.8646 202.258 43.3984 202.258 42.8984H203.703C203.729 43.3828 203.922 43.7682 204.281 44.0547C204.646 44.3359 205.125 44.4766 205.719 44.4766C206.266 44.4766 206.703 44.3672 207.031 44.1484C207.365 43.9245 207.531 43.6276 207.531 43.2578ZM220.047 45.5C219.964 45.3333 219.896 45.0365 219.844 44.6094C219.172 45.3073 218.37 45.6562 217.438 45.6562C216.604 45.6562 215.919 45.4219 215.383 44.9531C214.852 44.4792 214.586 43.8802 214.586 43.1562C214.586 42.276 214.919 41.5938 215.586 41.1094C216.258 40.6198 217.201 40.375 218.414 40.375H219.82V39.7109C219.82 39.2057 219.669 38.8047 219.367 38.5078C219.065 38.2057 218.62 38.0547 218.031 38.0547C217.516 38.0547 217.083 38.1849 216.734 38.4453C216.385 38.7057 216.211 39.0208 216.211 39.3906H214.758C214.758 38.9688 214.906 38.5625 215.203 38.1719C215.505 37.776 215.911 37.4635 216.422 37.2344C216.938 37.0052 217.503 36.8906 218.117 36.8906C219.091 36.8906 219.854 37.1354 220.406 37.625C220.958 38.1094 221.245 38.7786 221.266 39.6328V43.5234C221.266 44.2995 221.365 44.9167 221.562 45.375V45.5H220.047ZM217.648 44.3984C218.102 44.3984 218.531 44.2812 218.938 44.0469C219.344 43.8125 219.638 43.5078 219.82 43.1328V41.3984H218.688C216.917 41.3984 216.031 41.9167 216.031 42.9531C216.031 43.4062 216.182 43.7604 216.484 44.0156C216.786 44.2708 217.174 44.3984 217.648 44.3984ZM229.07 45.5H227.625V33.5H229.07V45.5ZM232.961 45.5H231.516V37.0469H232.961V45.5ZM231.398 34.8047C231.398 34.5703 231.469 34.3724 231.609 34.2109C231.755 34.0495 231.969 33.9688 232.25 33.9688C232.531 33.9688 232.745 34.0495 232.891 34.2109C233.036 34.3724 233.109 34.5703 233.109 34.8047C233.109 35.0391 233.036 35.2344 232.891 35.3906C232.745 35.5469 232.531 35.625 232.25 35.625C231.969 35.625 231.755 35.5469 231.609 35.3906C231.469 35.2344 231.398 35.0391 231.398 34.8047ZM238.789 45.6562C237.643 45.6562 236.711 45.2812 235.992 44.5312C235.273 43.776 234.914 42.7682 234.914 41.5078V41.2422C234.914 40.4036 235.073 39.6562 235.391 39C235.714 38.3385 236.161 37.8229 236.734 37.4531C237.312 37.0781 237.938 36.8906 238.609 36.8906C239.708 36.8906 240.562 37.2526 241.172 37.9766C241.781 38.7005 242.086 39.737 242.086 41.0859V41.6875H236.359C236.38 42.5208 236.622 43.1953 237.086 43.7109C237.555 44.2214 238.148 44.4766 238.867 44.4766C239.378 44.4766 239.81 44.3724 240.164 44.1641C240.518 43.9557 240.828 43.6797 241.094 43.3359L241.977 44.0234C241.268 45.112 240.206 45.6562 238.789 45.6562ZM238.609 38.0781C238.026 38.0781 237.536 38.2917 237.141 38.7188C236.745 39.1406 236.5 39.7344 236.406 40.5H240.641V40.3906C240.599 39.6562 240.401 39.0885 240.047 38.6875C239.693 38.2812 239.214 38.0781 238.609 38.0781Z" fill="#2097F6"/>
<path d="M109 20.5H108.5V21V59V59.5H109H375C379.694 59.5 383.5 55.6944 383.5 51V29C383.5 24.3056 379.694 20.5 375 20.5H109Z" stroke="#2097F6"/>
<path d="M50.1172 95.5H48.6094V90.2422H42.875V95.5H41.375V84.125H42.875V89.0156H48.6094V84.125H50.1172V95.5ZM59.2031 92.5312H54.4375L53.3672 95.5H51.8203L56.1641 84.125H57.4766L61.8281 95.5H60.2891L59.2031 92.5312ZM54.8906 91.2969H58.7578L56.8203 85.9766L54.8906 91.2969ZM66.7109 90.4297C65.4245 90.0599 64.487 89.6068 63.8984 89.0703C63.3151 88.5286 63.0234 87.862 63.0234 87.0703C63.0234 86.1745 63.3802 85.4349 64.0938 84.8516C64.8125 84.263 65.7448 83.9688 66.8906 83.9688C67.6719 83.9688 68.3672 84.1198 68.9766 84.4219C69.5911 84.724 70.0651 85.1406 70.3984 85.6719C70.737 86.2031 70.9062 86.7839 70.9062 87.4141H69.3984C69.3984 86.7266 69.1797 86.1875 68.7422 85.7969C68.3047 85.401 67.6875 85.2031 66.8906 85.2031C66.151 85.2031 65.5729 85.3672 65.1562 85.6953C64.7448 86.0182 64.5391 86.4688 64.5391 87.0469C64.5391 87.5104 64.7344 87.9036 65.125 88.2266C65.5208 88.5443 66.1901 88.8359 67.1328 89.1016C68.0807 89.3672 68.8203 89.6615 69.3516 89.9844C69.888 90.3021 70.2839 90.6745 70.5391 91.1016C70.7995 91.5286 70.9297 92.0312 70.9297 92.6094C70.9297 93.5312 70.5703 94.2708 69.8516 94.8281C69.1328 95.3802 68.1719 95.6562 66.9688 95.6562C66.1875 95.6562 65.4583 95.5078 64.7812 95.2109C64.1042 94.9089 63.5807 94.4974 63.2109 93.9766C62.8464 93.4557 62.6641 92.8646 62.6641 92.2031H64.1719C64.1719 92.8906 64.4245 93.4349 64.9297 93.8359C65.4401 94.2318 66.1198 94.4297 66.9688 94.4297C67.7604 94.4297 68.3672 94.2682 68.7891 93.9453C69.2109 93.6224 69.4219 93.1823 69.4219 92.625C69.4219 92.0677 69.2266 91.638 68.8359 91.3359C68.4453 91.0286 67.737 90.7266 66.7109 90.4297ZM81.6016 95.5H80.0938V90.2422H74.3594V95.5H72.8594V84.125H74.3594V89.0156H80.0938V84.125H81.6016V95.5Z" fill="#2097F6"/>
<path d="M132.188 89.1094H133.273C133.956 89.099 134.492 88.9193 134.883 88.5703C135.273 88.2214 135.469 87.75 135.469 87.1562C135.469 85.8229 134.805 85.1562 133.477 85.1562C132.852 85.1562 132.352 85.3359 131.977 85.6953C131.607 86.0495 131.422 86.5208 131.422 87.1094H129.977C129.977 86.2083 130.305 85.4609 130.961 84.8672C131.622 84.2682 132.461 83.9688 133.477 83.9688C134.549 83.9688 135.391 84.2526 136 84.8203C136.609 85.388 136.914 86.1771 136.914 87.1875C136.914 87.6823 136.753 88.1615 136.43 88.625C136.112 89.0885 135.677 89.4349 135.125 89.6641C135.75 89.862 136.232 90.1901 136.57 90.6484C136.914 91.1068 137.086 91.6667 137.086 92.3281C137.086 93.349 136.753 94.1589 136.086 94.7578C135.419 95.3568 134.552 95.6562 133.484 95.6562C132.417 95.6562 131.547 95.3672 130.875 94.7891C130.208 94.2109 129.875 93.4479 129.875 92.5H131.328C131.328 93.099 131.523 93.5781 131.914 93.9375C132.305 94.2969 132.828 94.4766 133.484 94.4766C134.182 94.4766 134.716 94.2943 135.086 93.9297C135.456 93.5651 135.641 93.0417 135.641 92.3594C135.641 91.6979 135.438 91.1901 135.031 90.8359C134.625 90.4818 134.039 90.2995 133.273 90.2891H132.188V89.1094ZM146.523 95.5H139.07V94.4609L143.008 90.0859C143.591 89.4245 143.992 88.888 144.211 88.4766C144.435 88.0599 144.547 87.6302 144.547 87.1875C144.547 86.5938 144.367 86.1068 144.008 85.7266C143.648 85.3464 143.169 85.1562 142.57 85.1562C141.852 85.1562 141.292 85.362 140.891 85.7734C140.495 86.1797 140.297 86.7474 140.297 87.4766H138.852C138.852 86.4297 139.188 85.5833 139.859 84.9375C140.536 84.2917 141.44 83.9688 142.57 83.9688C143.628 83.9688 144.464 84.2474 145.078 84.8047C145.693 85.3568 146 86.0938 146 87.0156C146 88.1354 145.286 89.4688 143.859 91.0156L140.812 94.3203H146.523V95.5ZM151.594 94.4766C152.109 94.4766 152.56 94.3203 152.945 94.0078C153.331 93.6953 153.544 93.3047 153.586 92.8359H154.953C154.927 93.3203 154.76 93.7812 154.453 94.2188C154.146 94.6562 153.734 95.0052 153.219 95.2656C152.708 95.526 152.167 95.6562 151.594 95.6562C150.443 95.6562 149.526 95.2734 148.844 94.5078C148.167 93.737 147.828 92.6849 147.828 91.3516V91.1094C147.828 90.2865 147.979 89.5547 148.281 88.9141C148.583 88.2734 149.016 87.776 149.578 87.4219C150.146 87.0677 150.815 86.8906 151.586 86.8906C152.534 86.8906 153.32 87.1745 153.945 87.7422C154.576 88.3099 154.911 89.0469 154.953 89.9531H153.586C153.544 89.4062 153.336 88.9583 152.961 88.6094C152.591 88.2552 152.133 88.0781 151.586 88.0781C150.852 88.0781 150.281 88.3438 149.875 88.875C149.474 89.401 149.273 90.1641 149.273 91.1641V91.4375C149.273 92.4115 149.474 93.1615 149.875 93.6875C150.276 94.2135 150.849 94.4766 151.594 94.4766ZM156.227 91.2031C156.227 89.9062 156.534 88.8646 157.148 88.0781C157.763 87.2865 158.568 86.8906 159.562 86.8906C160.552 86.8906 161.336 87.2292 161.914 87.9062V83.5H163.359V95.5H162.031L161.961 94.5938C161.383 95.3021 160.578 95.6562 159.547 95.6562C158.568 95.6562 157.768 95.2552 157.148 94.4531C156.534 93.651 156.227 92.6042 156.227 91.3125V91.2031ZM157.672 91.3672C157.672 92.3255 157.87 93.0755 158.266 93.6172C158.661 94.1589 159.208 94.4297 159.906 94.4297C160.823 94.4297 161.492 94.0182 161.914 93.1953V89.3125C161.482 88.5156 160.818 88.1172 159.922 88.1172C159.214 88.1172 158.661 88.3906 158.266 88.9375C157.87 89.4844 157.672 90.2943 157.672 91.3672ZM172.766 91.3672C172.766 92.6589 172.469 93.6979 171.875 94.4844C171.281 95.2656 170.484 95.6562 169.484 95.6562C168.417 95.6562 167.591 95.2786 167.008 94.5234L166.938 95.5H165.609V83.5H167.055V87.9766C167.638 87.2526 168.443 86.8906 169.469 86.8906C170.495 86.8906 171.299 87.2786 171.883 88.0547C172.471 88.8307 172.766 89.8932 172.766 91.2422V91.3672ZM171.32 91.2031C171.32 90.2188 171.13 89.4583 170.75 88.9219C170.37 88.3854 169.823 88.1172 169.109 88.1172C168.156 88.1172 167.471 88.5599 167.055 89.4453V93.1016C167.497 93.987 168.188 94.4297 169.125 94.4297C169.818 94.4297 170.357 94.1615 170.742 93.625C171.128 93.0885 171.32 92.2812 171.32 91.2031ZM180.117 84.1172V85.3438H179.852C178.727 85.3646 177.831 85.6979 177.164 86.3438C176.497 86.9896 176.112 87.8984 176.008 89.0703C176.607 88.3828 177.424 88.0391 178.461 88.0391C179.451 88.0391 180.24 88.388 180.828 89.0859C181.422 89.7839 181.719 90.6849 181.719 91.7891C181.719 92.9609 181.398 93.8984 180.758 94.6016C180.122 95.3047 179.268 95.6562 178.195 95.6562C177.107 95.6562 176.224 95.2396 175.547 94.4062C174.87 93.5677 174.531 92.4896 174.531 91.1719V90.6172C174.531 88.5234 174.977 86.9245 175.867 85.8203C176.763 84.7109 178.094 84.1432 179.859 84.1172H180.117ZM178.219 89.2422C177.724 89.2422 177.268 89.3906 176.852 89.6875C176.435 89.9844 176.146 90.3568 175.984 90.8047V91.3359C175.984 92.2734 176.195 93.0286 176.617 93.6016C177.039 94.1745 177.565 94.4609 178.195 94.4609C178.846 94.4609 179.357 94.2214 179.727 93.7422C180.102 93.263 180.289 92.6354 180.289 91.8594C180.289 91.0781 180.099 90.4479 179.719 89.9688C179.344 89.4844 178.844 89.2422 178.219 89.2422ZM188.18 95.5H186.727V85.8672L183.812 86.9375V85.625L187.953 84.0703H188.18V95.5ZM197.953 90.5C197.651 90.8594 197.289 91.1484 196.867 91.3672C196.451 91.5859 195.992 91.6953 195.492 91.6953C194.836 91.6953 194.263 91.5339 193.773 91.2109C193.289 90.888 192.914 90.4349 192.648 89.8516C192.383 89.263 192.25 88.6146 192.25 87.9062C192.25 87.1458 192.393 86.4609 192.68 85.8516C192.971 85.2422 193.383 84.776 193.914 84.4531C194.445 84.1302 195.065 83.9688 195.773 83.9688C196.898 83.9688 197.784 84.3906 198.43 85.2344C199.081 86.0729 199.406 87.2188 199.406 88.6719V89.0938C199.406 91.3073 198.969 92.9245 198.094 93.9453C197.219 94.9609 195.898 95.4818 194.133 95.5078H193.852V94.2891H194.156C195.349 94.2682 196.266 93.9583 196.906 93.3594C197.547 92.7552 197.896 91.8021 197.953 90.5ZM195.727 90.5C196.211 90.5 196.656 90.3516 197.062 90.0547C197.474 89.7578 197.773 89.3906 197.961 88.9531V88.375C197.961 87.4271 197.755 86.6562 197.344 86.0625C196.932 85.4688 196.411 85.1719 195.781 85.1719C195.146 85.1719 194.635 85.4167 194.25 85.9062C193.865 86.3906 193.672 87.0312 193.672 87.8281C193.672 88.6042 193.857 89.2448 194.227 89.75C194.602 90.25 195.102 90.5 195.727 90.5ZM206.148 95.5H204.695V85.8672L201.781 86.9375V85.625L205.922 84.0703H206.148V95.5ZM215.922 90.5C215.62 90.8594 215.258 91.1484 214.836 91.3672C214.419 91.5859 213.961 91.6953 213.461 91.6953C212.805 91.6953 212.232 91.5339 211.742 91.2109C211.258 90.888 210.883 90.4349 210.617 89.8516C210.352 89.263 210.219 88.6146 210.219 87.9062C210.219 87.1458 210.362 86.4609 210.648 85.8516C210.94 85.2422 211.352 84.776 211.883 84.4531C212.414 84.1302 213.034 83.9688 213.742 83.9688C214.867 83.9688 215.753 84.3906 216.398 85.2344C217.049 86.0729 217.375 87.2188 217.375 88.6719V89.0938C217.375 91.3073 216.938 92.9245 216.062 93.9453C215.188 94.9609 213.867 95.4818 212.102 95.5078H211.82V94.2891H212.125C213.318 94.2682 214.234 93.9583 214.875 93.3594C215.516 92.7552 215.865 91.8021 215.922 90.5ZM213.695 90.5C214.18 90.5 214.625 90.3516 215.031 90.0547C215.443 89.7578 215.742 89.3906 215.93 88.9531V88.375C215.93 87.4271 215.724 86.6562 215.312 86.0625C214.901 85.4688 214.38 85.1719 213.75 85.1719C213.115 85.1719 212.604 85.4167 212.219 85.9062C211.833 86.3906 211.641 87.0312 211.641 87.8281C211.641 88.6042 211.826 89.2448 212.195 89.75C212.57 90.25 213.07 90.5 213.695 90.5ZM225.039 84.1172V85.3438H224.773C223.648 85.3646 222.753 85.6979 222.086 86.3438C221.419 86.9896 221.034 87.8984 220.93 89.0703C221.529 88.3828 222.346 88.0391 223.383 88.0391C224.372 88.0391 225.161 88.388 225.75 89.0859C226.344 89.7839 226.641 90.6849 226.641 91.7891C226.641 92.9609 226.32 93.8984 225.68 94.6016C225.044 95.3047 224.19 95.6562 223.117 95.6562C222.029 95.6562 221.146 95.2396 220.469 94.4062C219.792 93.5677 219.453 92.4896 219.453 91.1719V90.6172C219.453 88.5234 219.898 86.9245 220.789 85.8203C221.685 84.7109 223.016 84.1432 224.781 84.1172H225.039ZM223.141 89.2422C222.646 89.2422 222.19 89.3906 221.773 89.6875C221.357 89.9844 221.068 90.3568 220.906 90.8047V91.3359C220.906 92.2734 221.117 93.0286 221.539 93.6016C221.961 94.1745 222.487 94.4609 223.117 94.4609C223.768 94.4609 224.279 94.2214 224.648 93.7422C225.023 93.263 225.211 92.6354 225.211 91.8594C225.211 91.0781 225.021 90.4479 224.641 89.9688C224.266 89.4844 223.766 89.2422 223.141 89.2422ZM235.805 95.5H228.352V94.4609L232.289 90.0859C232.872 89.4245 233.273 88.888 233.492 88.4766C233.716 88.0599 233.828 87.6302 233.828 87.1875C233.828 86.5938 233.648 86.1068 233.289 85.7266C232.93 85.3464 232.451 85.1562 231.852 85.1562C231.133 85.1562 230.573 85.362 230.172 85.7734C229.776 86.1797 229.578 86.7474 229.578 87.4766H228.133C228.133 86.4297 228.469 85.5833 229.141 84.9375C229.818 84.2917 230.721 83.9688 231.852 83.9688C232.909 83.9688 233.745 84.2474 234.359 84.8047C234.974 85.3568 235.281 86.0938 235.281 87.0156C235.281 88.1354 234.568 89.4688 233.141 91.0156L230.094 94.3203H235.805V95.5ZM244.469 90.6484C244.469 92.3411 244.18 93.599 243.602 94.4219C243.023 95.2448 242.12 95.6562 240.891 95.6562C239.677 95.6562 238.779 95.2552 238.195 94.4531C237.612 93.6458 237.31 92.4427 237.289 90.8438V88.9141C237.289 87.2422 237.578 86 238.156 85.1875C238.734 84.375 239.641 83.9688 240.875 83.9688C242.099 83.9688 243 84.362 243.578 85.1484C244.156 85.9297 244.453 87.138 244.469 88.7734V90.6484ZM243.023 88.6719C243.023 87.4479 242.852 86.5573 242.508 86C242.164 85.4375 241.62 85.1562 240.875 85.1562C240.135 85.1562 239.596 85.4349 239.258 85.9922C238.919 86.5495 238.745 87.4062 238.734 88.5625V90.875C238.734 92.1042 238.911 93.013 239.266 93.6016C239.625 94.1849 240.167 94.4766 240.891 94.4766C241.604 94.4766 242.133 94.2005 242.477 93.6484C242.826 93.0964 243.008 92.2266 243.023 91.0391V88.6719ZM253.453 90.6484C253.453 92.3411 253.164 93.599 252.586 94.4219C252.008 95.2448 251.104 95.6562 249.875 95.6562C248.661 95.6562 247.763 95.2552 247.18 94.4531C246.596 93.6458 246.294 92.4427 246.273 90.8438V88.9141C246.273 87.2422 246.562 86 247.141 85.1875C247.719 84.375 248.625 83.9688 249.859 83.9688C251.083 83.9688 251.984 84.362 252.562 85.1484C253.141 85.9297 253.438 87.138 253.453 88.7734V90.6484ZM252.008 88.6719C252.008 87.4479 251.836 86.5573 251.492 86C251.148 85.4375 250.604 85.1562 249.859 85.1562C249.12 85.1562 248.581 85.4349 248.242 85.9922C247.904 86.5495 247.729 87.4062 247.719 88.5625V90.875C247.719 92.1042 247.896 93.013 248.25 93.6016C248.609 94.1849 249.151 94.4766 249.875 94.4766C250.589 94.4766 251.117 94.2005 251.461 93.6484C251.81 93.0964 251.992 92.2266 252.008 91.0391V88.6719ZM262.438 90.6484C262.438 92.3411 262.148 93.599 261.57 94.4219C260.992 95.2448 260.089 95.6562 258.859 95.6562C257.646 95.6562 256.747 95.2552 256.164 94.4531C255.581 93.6458 255.279 92.4427 255.258 90.8438V88.9141C255.258 87.2422 255.547 86 256.125 85.1875C256.703 84.375 257.609 83.9688 258.844 83.9688C260.068 83.9688 260.969 84.362 261.547 85.1484C262.125 85.9297 262.422 87.138 262.438 88.7734V90.6484ZM260.992 88.6719C260.992 87.4479 260.82 86.5573 260.477 86C260.133 85.4375 259.589 85.1562 258.844 85.1562C258.104 85.1562 257.565 85.4349 257.227 85.9922C256.888 86.5495 256.714 87.4062 256.703 88.5625V90.875C256.703 92.1042 256.88 93.013 257.234 93.6016C257.594 94.1849 258.135 94.4766 258.859 94.4766C259.573 94.4766 260.102 94.2005 260.445 93.6484C260.794 93.0964 260.977 92.2266 260.992 91.0391V88.6719ZM264.953 89.7969L265.531 84.125H271.359V85.4609H266.758L266.414 88.5625C266.971 88.2344 267.604 88.0703 268.312 88.0703C269.349 88.0703 270.172 88.4141 270.781 89.1016C271.391 89.7839 271.695 90.7083 271.695 91.875C271.695 93.0469 271.378 93.9714 270.742 94.6484C270.112 95.3203 269.229 95.6562 268.094 95.6562C267.089 95.6562 266.268 95.3776 265.633 94.8203C264.997 94.263 264.635 93.4922 264.547 92.5078H265.914C266.003 93.1589 266.234 93.651 266.609 93.9844C266.984 94.3125 267.479 94.4766 268.094 94.4766C268.766 94.4766 269.292 94.2474 269.672 93.7891C270.057 93.3307 270.25 92.6979 270.25 91.8906C270.25 91.1302 270.042 90.5208 269.625 90.0625C269.214 89.599 268.664 89.3672 267.977 89.3672C267.346 89.3672 266.852 89.5052 266.492 89.7812L266.109 90.0938L264.953 89.7969ZM280.406 90.6484C280.406 92.3411 280.117 93.599 279.539 94.4219C278.961 95.2448 278.057 95.6562 276.828 95.6562C275.615 95.6562 274.716 95.2552 274.133 94.4531C273.549 93.6458 273.247 92.4427 273.227 90.8438V88.9141C273.227 87.2422 273.516 86 274.094 85.1875C274.672 84.375 275.578 83.9688 276.812 83.9688C278.036 83.9688 278.938 84.362 279.516 85.1484C280.094 85.9297 280.391 87.138 280.406 88.7734V90.6484ZM278.961 88.6719C278.961 87.4479 278.789 86.5573 278.445 86C278.102 85.4375 277.557 85.1562 276.812 85.1562C276.073 85.1562 275.534 85.4349 275.195 85.9922C274.857 86.5495 274.682 87.4062 274.672 88.5625V90.875C274.672 92.1042 274.849 93.013 275.203 93.6016C275.562 94.1849 276.104 94.4766 276.828 94.4766C277.542 94.4766 278.07 94.2005 278.414 93.6484C278.763 93.0964 278.945 92.2266 278.961 91.0391V88.6719ZM287.625 95.5C287.542 95.3333 287.474 95.0365 287.422 94.6094C286.75 95.3073 285.948 95.6562 285.016 95.6562C284.182 95.6562 283.497 95.4219 282.961 94.9531C282.43 94.4792 282.164 93.8802 282.164 93.1562C282.164 92.276 282.497 91.5938 283.164 91.1094C283.836 90.6198 284.779 90.375 285.992 90.375H287.398V89.7109C287.398 89.2057 287.247 88.8047 286.945 88.5078C286.643 88.2057 286.198 88.0547 285.609 88.0547C285.094 88.0547 284.661 88.1849 284.312 88.4453C283.964 88.7057 283.789 89.0208 283.789 89.3906H282.336C282.336 88.9688 282.484 88.5625 282.781 88.1719C283.083 87.776 283.49 87.4635 284 87.2344C284.516 87.0052 285.081 86.8906 285.695 86.8906C286.669 86.8906 287.432 87.1354 287.984 87.625C288.536 88.1094 288.823 88.7786 288.844 89.6328V93.5234C288.844 94.2995 288.943 94.9167 289.141 95.375V95.5H287.625ZM285.227 94.3984C285.68 94.3984 286.109 94.2812 286.516 94.0469C286.922 93.8125 287.216 93.5078 287.398 93.1328V91.3984H286.266C284.495 91.3984 283.609 91.9167 283.609 92.9531C283.609 93.4062 283.76 93.7604 284.062 94.0156C284.365 94.2708 284.753 94.3984 285.227 94.3984ZM298.266 91.3672C298.266 92.6589 297.969 93.6979 297.375 94.4844C296.781 95.2656 295.984 95.6562 294.984 95.6562C293.917 95.6562 293.091 95.2786 292.508 94.5234L292.438 95.5H291.109V83.5H292.555V87.9766C293.138 87.2526 293.943 86.8906 294.969 86.8906C295.995 86.8906 296.799 87.2786 297.383 88.0547C297.971 88.8307 298.266 89.8932 298.266 91.2422V91.3672ZM296.82 91.2031C296.82 90.2188 296.63 89.4583 296.25 88.9219C295.87 88.3854 295.323 88.1172 294.609 88.1172C293.656 88.1172 292.971 88.5599 292.555 89.4453V93.1016C292.997 93.987 293.688 94.4297 294.625 94.4297C295.318 94.4297 295.857 94.1615 296.242 93.625C296.628 93.0885 296.82 92.2812 296.82 91.2031ZM307.078 90.6484C307.078 92.3411 306.789 93.599 306.211 94.4219C305.633 95.2448 304.729 95.6562 303.5 95.6562C302.286 95.6562 301.388 95.2552 300.805 94.4531C300.221 93.6458 299.919 92.4427 299.898 90.8438V88.9141C299.898 87.2422 300.188 86 300.766 85.1875C301.344 84.375 302.25 83.9688 303.484 83.9688C304.708 83.9688 305.609 84.362 306.188 85.1484C306.766 85.9297 307.062 87.138 307.078 88.7734V90.6484ZM305.633 88.6719C305.633 87.4479 305.461 86.5573 305.117 86C304.773 85.4375 304.229 85.1562 303.484 85.1562C302.745 85.1562 302.206 85.4349 301.867 85.9922C301.529 86.5495 301.354 87.4062 301.344 88.5625V90.875C301.344 92.1042 301.521 93.013 301.875 93.6016C302.234 94.1849 302.776 94.4766 303.5 94.4766C304.214 94.4766 304.742 94.2005 305.086 93.6484C305.435 93.0964 305.617 92.2266 305.633 91.0391V88.6719ZM314.297 95.5C314.214 95.3333 314.146 95.0365 314.094 94.6094C313.422 95.3073 312.62 95.6562 311.688 95.6562C310.854 95.6562 310.169 95.4219 309.633 94.9531C309.102 94.4792 308.836 93.8802 308.836 93.1562C308.836 92.276 309.169 91.5938 309.836 91.1094C310.508 90.6198 311.451 90.375 312.664 90.375H314.07V89.7109C314.07 89.2057 313.919 88.8047 313.617 88.5078C313.315 88.2057 312.87 88.0547 312.281 88.0547C311.766 88.0547 311.333 88.1849 310.984 88.4453C310.635 88.7057 310.461 89.0208 310.461 89.3906H309.008C309.008 88.9688 309.156 88.5625 309.453 88.1719C309.755 87.776 310.161 87.4635 310.672 87.2344C311.188 87.0052 311.753 86.8906 312.367 86.8906C313.341 86.8906 314.104 87.1354 314.656 87.625C315.208 88.1094 315.495 88.7786 315.516 89.6328V93.5234C315.516 94.2995 315.615 94.9167 315.812 95.375V95.5H314.297ZM311.898 94.3984C312.352 94.3984 312.781 94.2812 313.188 94.0469C313.594 93.8125 313.888 93.5078 314.07 93.1328V91.3984H312.938C311.167 91.3984 310.281 91.9167 310.281 92.9531C310.281 93.4062 310.432 93.7604 310.734 94.0156C311.036 94.2708 311.424 94.3984 311.898 94.3984ZM318.492 95.5V88.1641H317.156V87.0469H318.492V86.1797C318.492 85.2734 318.734 84.5729 319.219 84.0781C319.703 83.5833 320.388 83.3359 321.273 83.3359C321.607 83.3359 321.938 83.3802 322.266 83.4688L322.188 84.6406C321.943 84.5938 321.682 84.5703 321.406 84.5703C320.938 84.5703 320.576 84.7083 320.32 84.9844C320.065 85.2552 319.938 85.6458 319.938 86.1562V87.0469H321.742V88.1641H319.938V95.5H318.492ZM323.859 89.7969L324.438 84.125H330.266V85.4609H325.664L325.32 88.5625C325.878 88.2344 326.51 88.0703 327.219 88.0703C328.255 88.0703 329.078 88.4141 329.688 89.1016C330.297 89.7839 330.602 90.7083 330.602 91.875C330.602 93.0469 330.284 93.9714 329.648 94.6484C329.018 95.3203 328.135 95.6562 327 95.6562C325.995 95.6562 325.174 95.3776 324.539 94.8203C323.904 94.263 323.542 93.4922 323.453 92.5078H324.82C324.909 93.1589 325.141 93.651 325.516 93.9844C325.891 94.3125 326.385 94.4766 327 94.4766C327.672 94.4766 328.198 94.2474 328.578 93.7891C328.964 93.3307 329.156 92.6979 329.156 91.8906C329.156 91.1302 328.948 90.5208 328.531 90.0625C328.12 89.599 327.57 89.3672 326.883 89.3672C326.253 89.3672 325.758 89.5052 325.398 89.7812L325.016 90.0938L323.859 89.7969ZM339.078 87.0938C339.078 87.6615 338.927 88.1667 338.625 88.6094C338.328 89.0521 337.924 89.3984 337.414 89.6484C338.008 89.9036 338.477 90.276 338.82 90.7656C339.169 91.2552 339.344 91.8099 339.344 92.4297C339.344 93.4141 339.01 94.1979 338.344 94.7812C337.682 95.3646 336.81 95.6562 335.727 95.6562C334.633 95.6562 333.755 95.3646 333.094 94.7812C332.438 94.1927 332.109 93.4089 332.109 92.4297C332.109 91.8151 332.276 91.2604 332.609 90.7656C332.948 90.2708 333.414 89.8958 334.008 89.6406C333.503 89.3906 333.104 89.0443 332.812 88.6016C332.521 88.1589 332.375 87.6562 332.375 87.0938C332.375 86.1354 332.682 85.375 333.297 84.8125C333.911 84.25 334.721 83.9688 335.727 83.9688C336.727 83.9688 337.534 84.25 338.148 84.8125C338.768 85.375 339.078 86.1354 339.078 87.0938ZM337.898 92.3984C337.898 91.763 337.695 91.2448 337.289 90.8438C336.888 90.4427 336.362 90.2422 335.711 90.2422C335.06 90.2422 334.536 90.4401 334.141 90.8359C333.75 91.2318 333.555 91.7526 333.555 92.3984C333.555 93.0443 333.745 93.5521 334.125 93.9219C334.51 94.2917 335.044 94.4766 335.727 94.4766C336.404 94.4766 336.935 94.2917 337.32 93.9219C337.706 93.5469 337.898 93.0391 337.898 92.3984ZM335.727 85.1562C335.159 85.1562 334.698 85.3333 334.344 85.6875C333.995 86.0365 333.82 86.513 333.82 87.1172C333.82 87.6953 333.992 88.1641 334.336 88.5234C334.685 88.8776 335.148 89.0547 335.727 89.0547C336.305 89.0547 336.766 88.8776 337.109 88.5234C337.458 88.1641 337.633 87.6953 337.633 87.1172C337.633 86.5391 337.453 86.0677 337.094 85.7031C336.734 85.3385 336.279 85.1562 335.727 85.1562ZM345.914 95.5H344.461V85.8672L341.547 86.9375V85.625L345.688 84.0703H345.914V95.5ZM350.328 94.7422C350.328 94.4922 350.401 94.2839 350.547 94.1172C350.698 93.9505 350.922 93.8672 351.219 93.8672C351.516 93.8672 351.74 93.9505 351.891 94.1172C352.047 94.2839 352.125 94.4922 352.125 94.7422C352.125 94.9818 352.047 95.1823 351.891 95.3438C351.74 95.5052 351.516 95.5859 351.219 95.5859C350.922 95.5859 350.698 95.5052 350.547 95.3438C350.401 95.1823 350.328 94.9818 350.328 94.7422ZM354.547 94.7422C354.547 94.4922 354.62 94.2839 354.766 94.1172C354.917 93.9505 355.141 93.8672 355.438 93.8672C355.734 93.8672 355.958 93.9505 356.109 94.1172C356.266 94.2839 356.344 94.4922 356.344 94.7422C356.344 94.9818 356.266 95.1823 356.109 95.3438C355.958 95.5052 355.734 95.5859 355.438 95.5859C355.141 95.5859 354.917 95.5052 354.766 95.3438C354.62 95.1823 354.547 94.9818 354.547 94.7422ZM358.766 94.7422C358.766 94.4922 358.839 94.2839 358.984 94.1172C359.135 93.9505 359.359 93.8672 359.656 93.8672C359.953 93.8672 360.177 93.9505 360.328 94.1172C360.484 94.2839 360.562 94.4922 360.562 94.7422C360.562 94.9818 360.484 95.1823 360.328 95.3438C360.177 95.5052 359.953 95.5859 359.656 95.5859C359.359 95.5859 359.135 95.5052 358.984 95.3438C358.839 95.1823 358.766 94.9818 358.766 94.7422Z" fill="#2097F6"/>
<rect x="0.5" y="0.5" width="399" height="129" rx="7.5" stroke="#2097F6"/>
</g>
<defs>
<filter id="filter0_d" x="0" y="0" width="404" height="134" filterUnits="userSpaceOnUse" color-interpolation-filters="sRGB">
<feFlood flood-opacity="0" result="BackgroundImageFix"/>
<feColorMatrix in="SourceAlpha" type="matrix" values="0 0 0 0 0 0 0 0 0 0 0 0 0 0 0 0 0 0 127 0"/>
<feOffset dx="4" dy="4"/>
<feColorMatrix type="matrix" values="0 0 0 0 0.513733 0 0 0 0 0.767915 0 0 0 0 0.970833 0 0 0 1 0"/>
<feBlend mode="normal" in2="BackgroundImageFix" result="effect1_dropShadow"/>
<feBlend mode="normal" in="SourceGraphic" in2="effect1_dropShadow" result="shape"/>
</filter>
</defs>
</svg>
