<svg width="404" height="204" viewBox="0 0 404 204" fill="none" xmlns="http://www.w3.org/2000/svg">
<g filter="url(#filter0_d)">
<rect width="400" height="200" rx="8" fill="#E7F4FF"/>
<path d="M28 20.5H78.5V79.5H28C23.8579 79.5 20.5 76.1421 20.5 72V28C20.5 23.8579 23.8579 20.5 28 20.5Z" fill="#E7F4FF"/>
<path d="M49.3906 45.3594H45.7344V55.5H44.2422V45.3594H40.5938V44.125H49.3906V45.3594ZM54.7891 48.4844L57.5156 44.125H59.2812L55.6875 49.7656L59.3672 55.5H57.5859L54.7891 51.0625L51.9766 55.5H50.2031L53.8906 49.7656L50.2891 44.125H52.0469L54.7891 48.4844Z" fill="#2097F6"/>
<path d="M28 20.5H78.5V79.5H28C23.8579 79.5 20.5 76.1421 20.5 72V28C20.5 23.8579 23.8579 20.5 28 20.5Z" stroke="#2097F6"/>
<path d="M79 20.5H78.5V21V79V79.5H79H375C379.694 79.5 383.5 75.6944 383.5 71V29C383.5 24.3056 379.694 20.5 375 20.5H79Z" fill="white"/>
<path d="M97 30.5H112.5V69.5H97C92.8579 69.5 89.5 66.1421 89.5 62V38C89.5 33.8579 92.8579 30.5 97 30.5Z" fill="#E7F4FF"/>
<path d="M103.695 52.5703C103.695 52.0911 103.526 51.6875 103.188 51.3594C102.854 51.0312 102.289 50.7344 101.492 50.4688C100.383 50.1302 99.5729 49.6901 99.0625 49.1484C98.5573 48.6016 98.3047 47.9089 98.3047 47.0703C98.3047 46.2161 98.5521 45.5156 99.0469 44.9688C99.5469 44.4219 100.232 44.0964 101.102 43.9922V42.2812H102.266V44C103.141 44.1198 103.82 44.487 104.305 45.1016C104.794 45.7161 105.039 46.5573 105.039 47.625H103.602C103.602 46.8906 103.427 46.3073 103.078 45.875C102.729 45.4427 102.258 45.2266 101.664 45.2266C101.044 45.2266 100.57 45.388 100.242 45.7109C99.9141 46.0286 99.75 46.474 99.75 47.0469C99.75 47.5781 99.9219 48.0026 100.266 48.3203C100.615 48.6328 101.185 48.9193 101.977 49.1797C102.773 49.4349 103.393 49.7188 103.836 50.0312C104.284 50.3385 104.612 50.6979 104.82 51.1094C105.034 51.5208 105.141 52.0026 105.141 52.5547C105.141 53.4349 104.875 54.1432 104.344 54.6797C103.818 55.2161 103.078 55.5339 102.125 55.6328V57.125H100.969V55.6328C100 55.5443 99.2396 55.2005 98.6875 54.6016C98.1406 53.9974 97.8672 53.1797 97.8672 52.1484H99.3125C99.3125 52.8724 99.5026 53.4297 99.8828 53.8203C100.263 54.2109 100.802 54.4062 101.5 54.4062C102.182 54.4062 102.719 54.2422 103.109 53.9141C103.5 53.5859 103.695 53.138 103.695 52.5703Z" fill="#2097F6"/>
<path d="M97 30.5H112.5V69.5H97C92.8579 69.5 89.5 66.1421 89.5 62V38C89.5 33.8579 92.8579 30.5 97 30.5Z" stroke="#2097F6"/>
<path d="M113 30.5H112.5V31V69V69.5H113H146H146.5V69V31V30.5H146H113Z" fill="white"/>
<path d="M122.625 49.7969L123.203 44.125H129.031V45.4609H124.43L124.086 48.5625C124.643 48.2344 125.276 48.0703 125.984 48.0703C127.021 48.0703 127.844 48.4141 128.453 49.1016C129.062 49.7839 129.367 50.7083 129.367 51.875C129.367 53.0469 129.049 53.9714 128.414 54.6484C127.784 55.3203 126.901 55.6562 125.766 55.6562C124.76 55.6562 123.94 55.3776 123.305 54.8203C122.669 54.263 122.307 53.4922 122.219 52.5078H123.586C123.674 53.1589 123.906 53.651 124.281 53.9844C124.656 54.3125 125.151 54.4766 125.766 54.4766C126.438 54.4766 126.964 54.2474 127.344 53.7891C127.729 53.3307 127.922 52.6979 127.922 51.8906C127.922 51.1302 127.714 50.5208 127.297 50.0625C126.885 49.599 126.336 49.3672 125.648 49.3672C125.018 49.3672 124.523 49.5052 124.164 49.7812L123.781 50.0938L122.625 49.7969ZM138.078 50.6484C138.078 52.3411 137.789 53.599 137.211 54.4219C136.633 55.2448 135.729 55.6562 134.5 55.6562C133.286 55.6562 132.388 55.2552 131.805 54.4531C131.221 53.6458 130.919 52.4427 130.898 50.8438V48.9141C130.898 47.2422 131.188 46 131.766 45.1875C132.344 44.375 133.25 43.9688 134.484 43.9688C135.708 43.9688 136.609 44.362 137.188 45.1484C137.766 45.9297 138.062 47.138 138.078 48.7734V50.6484ZM136.633 48.6719C136.633 47.4479 136.461 46.5573 136.117 46C135.773 45.4375 135.229 45.1562 134.484 45.1562C133.745 45.1562 133.206 45.4349 132.867 45.9922C132.529 46.5495 132.354 47.4062 132.344 48.5625V50.875C132.344 52.1042 132.521 53.013 132.875 53.6016C133.234 54.1849 133.776 54.4766 134.5 54.4766C135.214 54.4766 135.742 54.2005 136.086 53.6484C136.435 53.0964 136.617 52.2266 136.633 51.0391V48.6719Z" fill="#2097F6"/>
<path d="M113 30.5H112.5V31V69V69.5H113H146H146.5V69V31V30.5H146H113Z" stroke="#2097F6"/>
<path d="M146.5 30.5H196.5V69.5H146.5V30.5Z" fill="#E7F4FF"/>
<path d="M162.062 50.4766H157.289V55.5H155.789V44.125H162.836V45.3594H157.289V49.25H162.062V50.4766ZM168.289 48.3438C168.07 48.3073 167.833 48.2891 167.578 48.2891C166.63 48.2891 165.987 48.6927 165.648 49.5V55.5H164.203V47.0469H165.609L165.633 48.0234C166.107 47.2682 166.779 46.8906 167.648 46.8906C167.93 46.8906 168.143 46.9271 168.289 47V48.3438ZM169.086 51.1953C169.086 50.3672 169.247 49.6224 169.57 48.9609C169.898 48.2995 170.352 47.7891 170.93 47.4297C171.513 47.0703 172.177 46.8906 172.922 46.8906C174.073 46.8906 175.003 47.2891 175.711 48.0859C176.424 48.8828 176.781 49.9427 176.781 51.2656V51.3672C176.781 52.1901 176.622 52.9297 176.305 53.5859C175.992 54.237 175.542 54.7448 174.953 55.1094C174.37 55.474 173.698 55.6562 172.938 55.6562C171.792 55.6562 170.862 55.2578 170.148 54.4609C169.44 53.6641 169.086 52.6094 169.086 51.2969V51.1953ZM170.539 51.3672C170.539 52.3047 170.755 53.0573 171.188 53.625C171.625 54.1927 172.208 54.4766 172.938 54.4766C173.672 54.4766 174.255 54.1901 174.688 53.6172C175.12 53.0391 175.336 52.2318 175.336 51.1953C175.336 50.2682 175.115 49.5182 174.672 48.9453C174.234 48.3672 173.651 48.0781 172.922 48.0781C172.208 48.0781 171.633 48.362 171.195 48.9297C170.758 49.4974 170.539 50.3099 170.539 51.3672ZM179.953 47.0469L179.992 47.9844C180.612 47.2552 181.448 46.8906 182.5 46.8906C183.682 46.8906 184.487 47.3438 184.914 48.25C185.195 47.8438 185.56 47.5156 186.008 47.2656C186.461 47.0156 186.995 46.8906 187.609 46.8906C189.464 46.8906 190.406 47.8724 190.438 49.8359V55.5H188.992V49.9219C188.992 49.3177 188.854 48.8672 188.578 48.5703C188.302 48.2682 187.839 48.1172 187.188 48.1172C186.651 48.1172 186.206 48.2786 185.852 48.6016C185.497 48.9193 185.292 49.349 185.234 49.8906V55.5H183.781V49.9609C183.781 48.7318 183.18 48.1172 181.977 48.1172C181.029 48.1172 180.38 48.5208 180.031 49.3281V55.5H178.586V47.0469H179.953Z" fill="#2097F6"/>
<path d="M146.5 30.5H196.5V69.5H146.5V30.5Z" stroke="#2097F6"/>
<path d="M197 30.5H196.5V31V69V69.5H197H269H269.5V69V31V30.5H269H197Z" fill="white"/>
<path d="M213.336 50.6484C213.336 52.3411 213.047 53.599 212.469 54.4219C211.891 55.2448 210.987 55.6562 209.758 55.6562C208.544 55.6562 207.646 55.2552 207.062 54.4531C206.479 53.6458 206.177 52.4427 206.156 50.8438V48.9141C206.156 47.2422 206.445 46 207.023 45.1875C207.602 44.375 208.508 43.9688 209.742 43.9688C210.966 43.9688 211.867 44.362 212.445 45.1484C213.023 45.9297 213.32 47.138 213.336 48.7734V50.6484ZM211.891 48.6719C211.891 47.4479 211.719 46.5573 211.375 46C211.031 45.4375 210.487 45.1562 209.742 45.1562C209.003 45.1562 208.464 45.4349 208.125 45.9922C207.786 46.5495 207.612 47.4062 207.602 48.5625V50.875C207.602 52.1042 207.779 53.013 208.133 53.6016C208.492 54.1849 209.034 54.4766 209.758 54.4766C210.471 54.4766 211 54.2005 211.344 53.6484C211.693 53.0964 211.875 52.2266 211.891 51.0391V48.6719ZM218.172 50.1328L220.047 47.0469H221.734L218.969 51.2266L221.82 55.5H220.148L218.195 52.3359L216.242 55.5H214.562L217.414 51.2266L214.648 47.0469H216.32L218.172 50.1328ZM229.227 51.6797H230.805V52.8594H229.227V55.5H227.773V52.8594H222.594V52.0078L227.688 44.125H229.227V51.6797ZM224.234 51.6797H227.773V46.1016L227.602 46.4141L224.234 51.6797ZM235.648 54.4766C236.164 54.4766 236.615 54.3203 237 54.0078C237.385 53.6953 237.599 53.3047 237.641 52.8359H239.008C238.982 53.3203 238.815 53.7812 238.508 54.2188C238.201 54.6562 237.789 55.0052 237.273 55.2656C236.763 55.526 236.221 55.6562 235.648 55.6562C234.497 55.6562 233.581 55.2734 232.898 54.5078C232.221 53.737 231.883 52.6849 231.883 51.3516V51.1094C231.883 50.2865 232.034 49.5547 232.336 48.9141C232.638 48.2734 233.07 47.776 233.633 47.4219C234.201 47.0677 234.87 46.8906 235.641 46.8906C236.589 46.8906 237.375 47.1745 238 47.7422C238.63 48.3099 238.966 49.0469 239.008 49.9531H237.641C237.599 49.4062 237.391 48.9583 237.016 48.6094C236.646 48.2552 236.188 48.0781 235.641 48.0781C234.906 48.0781 234.336 48.3438 233.93 48.875C233.529 49.401 233.328 50.1641 233.328 51.1641V51.4375C233.328 52.4115 233.529 53.1615 233.93 53.6875C234.331 54.2135 234.904 54.4766 235.648 54.4766ZM241.344 55.5V48.1641H240.008V47.0469H241.344V46.1797C241.344 45.2734 241.586 44.5729 242.07 44.0781C242.555 43.5833 243.24 43.3359 244.125 43.3359C244.458 43.3359 244.789 43.3802 245.117 43.4688L245.039 44.6406C244.794 44.5938 244.534 44.5703 244.258 44.5703C243.789 44.5703 243.427 44.7083 243.172 44.9844C242.917 45.2552 242.789 45.6458 242.789 46.1562V47.0469H244.594V48.1641H242.789V55.5H241.344ZM251.719 44.1172V45.3438H251.453C250.328 45.3646 249.432 45.6979 248.766 46.3438C248.099 46.9896 247.714 47.8984 247.609 49.0703C248.208 48.3828 249.026 48.0391 250.062 48.0391C251.052 48.0391 251.841 48.388 252.43 49.0859C253.023 49.7839 253.32 50.6849 253.32 51.7891C253.32 52.9609 253 53.8984 252.359 54.6016C251.724 55.3047 250.87 55.6562 249.797 55.6562C248.708 55.6562 247.826 55.2396 247.148 54.4062C246.471 53.5677 246.133 52.4896 246.133 51.1719V50.6172C246.133 48.5234 246.578 46.9245 247.469 45.8203C248.365 44.7109 249.695 44.1432 251.461 44.1172H251.719ZM249.82 49.2422C249.326 49.2422 248.87 49.3906 248.453 49.6875C248.036 49.9844 247.747 50.3568 247.586 50.8047V51.3359C247.586 52.2734 247.797 53.0286 248.219 53.6016C248.641 54.1745 249.167 54.4609 249.797 54.4609C250.448 54.4609 250.958 54.2214 251.328 53.7422C251.703 53.263 251.891 52.6354 251.891 51.8594C251.891 51.0781 251.701 50.4479 251.32 49.9688C250.945 49.4844 250.445 49.2422 249.82 49.2422ZM255.211 54.7422C255.211 54.4922 255.284 54.2839 255.43 54.1172C255.581 53.9505 255.805 53.8672 256.102 53.8672C256.398 53.8672 256.622 53.9505 256.773 54.1172C256.93 54.2839 257.008 54.4922 257.008 54.7422C257.008 54.9818 256.93 55.1823 256.773 55.3438C256.622 55.5052 256.398 55.5859 256.102 55.5859C255.805 55.5859 255.581 55.5052 255.43 55.3438C255.284 55.1823 255.211 54.9818 255.211 54.7422ZM259.43 54.7422C259.43 54.4922 259.503 54.2839 259.648 54.1172C259.799 53.9505 260.023 53.8672 260.32 53.8672C260.617 53.8672 260.841 53.9505 260.992 54.1172C261.148 54.2839 261.227 54.4922 261.227 54.7422C261.227 54.9818 261.148 55.1823 260.992 55.3438C260.841 55.5052 260.617 55.5859 260.32 55.5859C260.023 55.5859 259.799 55.5052 259.648 55.3438C259.503 55.1823 259.43 54.9818 259.43 54.7422ZM263.648 54.7422C263.648 54.4922 263.721 54.2839 263.867 54.1172C264.018 53.9505 264.242 53.8672 264.539 53.8672C264.836 53.8672 265.06 53.9505 265.211 54.1172C265.367 54.2839 265.445 54.4922 265.445 54.7422C265.445 54.9818 265.367 55.1823 265.211 55.3438C265.06 55.5052 264.836 55.5859 264.539 55.5859C264.242 55.5859 264.018 55.5052 263.867 55.3438C263.721 55.1823 263.648 54.9818 263.648 54.7422Z" fill="#2097F6"/>
<path d="M197 30.5H196.5V31V69V69.5H197H269H269.5V69V31V30.5H269H197Z" stroke="#2097F6"/>
<path d="M269.5 30.5H301.5V69.5H269.5V30.5Z" fill="#E7F4FF"/>
<path d="M286.234 45.3594H282.578V55.5H281.086V45.3594H277.438V44.125H286.234V45.3594ZM286.531 51.1953C286.531 50.3672 286.693 49.6224 287.016 48.9609C287.344 48.2995 287.797 47.7891 288.375 47.4297C288.958 47.0703 289.622 46.8906 290.367 46.8906C291.518 46.8906 292.448 47.2891 293.156 48.0859C293.87 48.8828 294.227 49.9427 294.227 51.2656V51.3672C294.227 52.1901 294.068 52.9297 293.75 53.5859C293.438 54.237 292.987 54.7448 292.398 55.1094C291.815 55.474 291.143 55.6562 290.383 55.6562C289.237 55.6562 288.307 55.2578 287.594 54.4609C286.885 53.6641 286.531 52.6094 286.531 51.2969V51.1953ZM287.984 51.3672C287.984 52.3047 288.201 53.0573 288.633 53.625C289.07 54.1927 289.654 54.4766 290.383 54.4766C291.117 54.4766 291.701 54.1901 292.133 53.6172C292.565 53.0391 292.781 52.2318 292.781 51.1953C292.781 50.2682 292.56 49.5182 292.117 48.9453C291.68 48.3672 291.096 48.0781 290.367 48.0781C289.654 48.0781 289.078 48.362 288.641 48.9297C288.203 49.4974 287.984 50.3099 287.984 51.3672Z" fill="#2097F6"/>
<path d="M269.5 30.5H301.5V69.5H269.5V30.5Z" stroke="#2097F6"/>
<path d="M302 30.5H301.5V31V69V69.5H302H365C369.694 69.5 373.5 65.6944 373.5 61V39C373.5 34.3056 369.694 30.5 365 30.5H302Z" fill="white"/>
<path d="M320.242 50.6484C320.242 52.3411 319.953 53.599 319.375 54.4219C318.797 55.2448 317.893 55.6562 316.664 55.6562C315.451 55.6562 314.552 55.2552 313.969 54.4531C313.385 53.6458 313.083 52.4427 313.062 50.8438V48.9141C313.062 47.2422 313.352 46 313.93 45.1875C314.508 44.375 315.414 43.9688 316.648 43.9688C317.872 43.9688 318.773 44.362 319.352 45.1484C319.93 45.9297 320.227 47.138 320.242 48.7734V50.6484ZM318.797 48.6719C318.797 47.4479 318.625 46.5573 318.281 46C317.938 45.4375 317.393 45.1562 316.648 45.1562C315.909 45.1562 315.37 45.4349 315.031 45.9922C314.693 46.5495 314.518 47.4062 314.508 48.5625V50.875C314.508 52.1042 314.685 53.013 315.039 53.6016C315.398 54.1849 315.94 54.4766 316.664 54.4766C317.378 54.4766 317.906 54.2005 318.25 53.6484C318.599 53.0964 318.781 52.2266 318.797 51.0391V48.6719ZM325.078 50.1328L326.953 47.0469H328.641L325.875 51.2266L328.727 55.5H327.055L325.102 52.3359L323.148 55.5H321.469L324.32 51.2266L321.555 47.0469H323.227L325.078 50.1328ZM337.484 55.5H330.031V54.4609L333.969 50.0859C334.552 49.4245 334.953 48.888 335.172 48.4766C335.396 48.0599 335.508 47.6302 335.508 47.1875C335.508 46.5938 335.328 46.1068 334.969 45.7266C334.609 45.3464 334.13 45.1562 333.531 45.1562C332.812 45.1562 332.253 45.362 331.852 45.7734C331.456 46.1797 331.258 46.7474 331.258 47.4766H329.812C329.812 46.4297 330.148 45.5833 330.82 44.9375C331.497 44.2917 332.401 43.9688 333.531 43.9688C334.589 43.9688 335.424 44.2474 336.039 44.8047C336.654 45.3568 336.961 46.0938 336.961 47.0156C336.961 48.1354 336.247 49.4688 334.82 51.0156L331.773 54.3203H337.484V55.5ZM339.875 55.5V48.1641H338.539V47.0469H339.875V46.1797C339.875 45.2734 340.117 44.5729 340.602 44.0781C341.086 43.5833 341.771 43.3359 342.656 43.3359C342.99 43.3359 343.32 43.3802 343.648 43.4688L343.57 44.6406C343.326 44.5938 343.065 44.5703 342.789 44.5703C342.32 44.5703 341.958 44.7083 341.703 44.9844C341.448 45.2552 341.32 45.6458 341.32 46.1562V47.0469H343.125V48.1641H341.32V55.5H339.875ZM349.328 55.5H347.875V45.8672L344.961 46.9375V45.625L349.102 44.0703H349.328V55.5ZM354.422 55.5V48.1641H353.086V47.0469H354.422V46.1797C354.422 45.2734 354.664 44.5729 355.148 44.0781C355.633 43.5833 356.318 43.3359 357.203 43.3359C357.536 43.3359 357.867 43.3802 358.195 43.4688L358.117 44.6406C357.872 44.5938 357.612 44.5703 357.336 44.5703C356.867 44.5703 356.505 44.7083 356.25 44.9844C355.995 45.2552 355.867 45.6458 355.867 46.1562V47.0469H357.672V48.1641H355.867V55.5H354.422ZM359.305 54.7422C359.305 54.4922 359.378 54.2839 359.523 54.1172C359.674 53.9505 359.898 53.8672 360.195 53.8672C360.492 53.8672 360.716 53.9505 360.867 54.1172C361.023 54.2839 361.102 54.4922 361.102 54.7422C361.102 54.9818 361.023 55.1823 360.867 55.3438C360.716 55.5052 360.492 55.5859 360.195 55.5859C359.898 55.5859 359.674 55.5052 359.523 55.3438C359.378 55.1823 359.305 54.9818 359.305 54.7422ZM363.523 54.7422C363.523 54.4922 363.596 54.2839 363.742 54.1172C363.893 53.9505 364.117 53.8672 364.414 53.8672C364.711 53.8672 364.935 53.9505 365.086 54.1172C365.242 54.2839 365.32 54.4922 365.32 54.7422C365.32 54.9818 365.242 55.1823 365.086 55.3438C364.935 55.5052 364.711 55.5859 364.414 55.5859C364.117 55.5859 363.893 55.5052 363.742 55.3438C363.596 55.1823 363.523 54.9818 363.523 54.7422ZM367.742 54.7422C367.742 54.4922 367.815 54.2839 367.961 54.1172C368.112 53.9505 368.336 53.8672 368.633 53.8672C368.93 53.8672 369.154 53.9505 369.305 54.1172C369.461 54.2839 369.539 54.4922 369.539 54.7422C369.539 54.9818 369.461 55.1823 369.305 55.3438C369.154 55.5052 368.93 55.5859 368.633 55.5859C368.336 55.5859 368.112 55.5052 367.961 55.3438C367.815 55.1823 367.742 54.9818 367.742 54.7422Z" fill="#2097F6"/>
<path d="M302 30.5H301.5V31V69V69.5H302H365C369.694 69.5 373.5 65.6944 373.5 61V39C373.5 34.3056 369.694 30.5 365 30.5H302Z" stroke="#2097F6"/>
<path d="M79 20.5H78.5V21V79V79.5H79H375C379.694 79.5 383.5 75.6944 383.5 71V29C383.5 24.3056 379.694 20.5 375 20.5H79Z" stroke="#2097F6"/>
<path d="M28 90.5H138.5V129.5H28C23.8579 129.5 20.5 126.142 20.5 122V98C20.5 93.8579 23.8579 90.5 28 90.5Z" fill="#E7F4FF"/>
<path d="M44.8672 110.43C43.5807 110.06 42.6432 109.607 42.0547 109.07C41.4714 108.529 41.1797 107.862 41.1797 107.07C41.1797 106.174 41.5365 105.435 42.25 104.852C42.9688 104.263 43.901 103.969 45.0469 103.969C45.8281 103.969 46.5234 104.12 47.1328 104.422C47.7474 104.724 48.2214 105.141 48.5547 105.672C48.8932 106.203 49.0625 106.784 49.0625 107.414H47.5547C47.5547 106.727 47.3359 106.188 46.8984 105.797C46.4609 105.401 45.8438 105.203 45.0469 105.203C44.3073 105.203 43.7292 105.367 43.3125 105.695C42.901 106.018 42.6953 106.469 42.6953 107.047C42.6953 107.51 42.8906 107.904 43.2812 108.227C43.6771 108.544 44.3464 108.836 45.2891 109.102C46.237 109.367 46.9766 109.661 47.5078 109.984C48.0443 110.302 48.4401 110.674 48.6953 111.102C48.9557 111.529 49.0859 112.031 49.0859 112.609C49.0859 113.531 48.7266 114.271 48.0078 114.828C47.2891 115.38 46.3281 115.656 45.125 115.656C44.3438 115.656 43.6146 115.508 42.9375 115.211C42.2604 114.909 41.737 114.497 41.3672 113.977C41.0026 113.456 40.8203 112.865 40.8203 112.203H42.3281C42.3281 112.891 42.5807 113.435 43.0859 113.836C43.5964 114.232 44.276 114.43 45.125 114.43C45.9167 114.43 46.5234 114.268 46.9453 113.945C47.3672 113.622 47.5781 113.182 47.5781 112.625C47.5781 112.068 47.3828 111.638 46.9922 111.336C46.6016 111.029 45.8932 110.727 44.8672 110.43ZM52.625 115.5H51.125V104.125H52.625V115.5ZM63.7734 114.008C63.388 114.56 62.849 114.974 62.1562 115.25C61.4688 115.521 60.6667 115.656 59.75 115.656C58.8229 115.656 58 115.44 57.2812 115.008C56.5625 114.57 56.0052 113.951 55.6094 113.148C55.2188 112.346 55.0182 111.417 55.0078 110.359V109.367C55.0078 107.654 55.4062 106.326 56.2031 105.383C57.0052 104.44 58.1302 103.969 59.5781 103.969C60.7656 103.969 61.7214 104.273 62.4453 104.883C63.1693 105.487 63.612 106.346 63.7734 107.461H62.2734C61.9922 105.956 61.0964 105.203 59.5859 105.203C58.5807 105.203 57.8177 105.557 57.2969 106.266C56.7812 106.969 56.5208 107.99 56.5156 109.328V110.258C56.5156 111.534 56.8073 112.549 57.3906 113.305C57.974 114.055 58.763 114.43 59.7578 114.43C60.3203 114.43 60.8125 114.367 61.2344 114.242C61.6562 114.117 62.0052 113.906 62.2812 113.609V111.055H59.6484V109.836H63.7734V114.008ZM75.0234 115.5H73.5156L67.7891 106.734V115.5H66.2812V104.125H67.7891L73.5312 112.93V104.125H75.0234V115.5ZM84.1094 112.531H79.3438L78.2734 115.5H76.7266L81.0703 104.125H82.3828L86.7344 115.5H85.1953L84.1094 112.531ZM79.7969 111.297H83.6641L81.7266 105.977L79.7969 111.297ZM95.1094 105.359H91.4531V115.5H89.9609V105.359H86.3125V104.125H95.1094V105.359ZM104.805 104.125V111.859C104.799 112.932 104.461 113.81 103.789 114.492C103.122 115.174 102.216 115.557 101.07 115.641L100.672 115.656C99.4271 115.656 98.4349 115.32 97.6953 114.648C96.9557 113.977 96.5807 113.052 96.5703 111.875V104.125H98.0547V111.828C98.0547 112.651 98.2812 113.292 98.7344 113.75C99.1875 114.203 99.8333 114.43 100.672 114.43C101.521 114.43 102.169 114.203 102.617 113.75C103.07 113.297 103.297 112.659 103.297 111.836V104.125H104.805ZM111.344 110.898H108.672V115.5H107.164V104.125H110.93C112.211 104.125 113.195 104.417 113.883 105C114.576 105.583 114.922 106.432 114.922 107.547C114.922 108.255 114.729 108.872 114.344 109.398C113.964 109.924 113.432 110.318 112.75 110.578L115.422 115.406V115.5H113.812L111.344 110.898ZM108.672 109.672H110.977C111.721 109.672 112.312 109.479 112.75 109.094C113.193 108.708 113.414 108.193 113.414 107.547C113.414 106.844 113.203 106.305 112.781 105.93C112.365 105.555 111.76 105.365 110.969 105.359H108.672V109.672ZM123.461 110.242H118.531V114.273H124.258V115.5H117.031V104.125H124.18V105.359H118.531V109.016H123.461V110.242Z" fill="#2097F6"/>
<path d="M28 90.5H138.5V129.5H28C23.8579 129.5 20.5 126.142 20.5 122V98C20.5 93.8579 23.8579 90.5 28 90.5Z" stroke="#2097F6"/>
<path d="M139 90.5H138.5V91V129V129.5H139H375C379.694 129.5 383.5 125.694 383.5 121V99C383.5 94.3056 379.694 90.5 375 90.5H139Z" fill="white"/>
<path d="M162.5 109.109H163.586C164.268 109.099 164.805 108.919 165.195 108.57C165.586 108.221 165.781 107.75 165.781 107.156C165.781 105.823 165.117 105.156 163.789 105.156C163.164 105.156 162.664 105.336 162.289 105.695C161.919 106.049 161.734 106.521 161.734 107.109H160.289C160.289 106.208 160.617 105.461 161.273 104.867C161.935 104.268 162.773 103.969 163.789 103.969C164.862 103.969 165.703 104.253 166.312 104.82C166.922 105.388 167.227 106.177 167.227 107.188C167.227 107.682 167.065 108.161 166.742 108.625C166.424 109.089 165.99 109.435 165.438 109.664C166.062 109.862 166.544 110.19 166.883 110.648C167.227 111.107 167.398 111.667 167.398 112.328C167.398 113.349 167.065 114.159 166.398 114.758C165.732 115.357 164.865 115.656 163.797 115.656C162.729 115.656 161.859 115.367 161.188 114.789C160.521 114.211 160.188 113.448 160.188 112.5H161.641C161.641 113.099 161.836 113.578 162.227 113.938C162.617 114.297 163.141 114.477 163.797 114.477C164.495 114.477 165.029 114.294 165.398 113.93C165.768 113.565 165.953 113.042 165.953 112.359C165.953 111.698 165.75 111.19 165.344 110.836C164.938 110.482 164.352 110.299 163.586 110.289H162.5V109.109ZM176.516 110.648C176.516 112.341 176.227 113.599 175.648 114.422C175.07 115.245 174.167 115.656 172.938 115.656C171.724 115.656 170.826 115.255 170.242 114.453C169.659 113.646 169.357 112.443 169.336 110.844V108.914C169.336 107.242 169.625 106 170.203 105.188C170.781 104.375 171.688 103.969 172.922 103.969C174.146 103.969 175.047 104.362 175.625 105.148C176.203 105.93 176.5 107.138 176.516 108.773V110.648ZM175.07 108.672C175.07 107.448 174.898 106.557 174.555 106C174.211 105.438 173.667 105.156 172.922 105.156C172.182 105.156 171.643 105.435 171.305 105.992C170.966 106.549 170.792 107.406 170.781 108.562V110.875C170.781 112.104 170.958 113.013 171.312 113.602C171.672 114.185 172.214 114.477 172.938 114.477C173.651 114.477 174.18 114.201 174.523 113.648C174.872 113.096 175.055 112.227 175.07 111.039V108.672ZM184.469 111.68H186.047V112.859H184.469V115.5H183.016V112.859H177.836V112.008L182.93 104.125H184.469V111.68ZM179.477 111.68H183.016V106.102L182.844 106.414L179.477 111.68ZM193.023 104.117V105.344H192.758C191.633 105.365 190.737 105.698 190.07 106.344C189.404 106.99 189.018 107.898 188.914 109.07C189.513 108.383 190.331 108.039 191.367 108.039C192.357 108.039 193.146 108.388 193.734 109.086C194.328 109.784 194.625 110.685 194.625 111.789C194.625 112.961 194.305 113.898 193.664 114.602C193.029 115.305 192.174 115.656 191.102 115.656C190.013 115.656 189.13 115.24 188.453 114.406C187.776 113.568 187.438 112.49 187.438 111.172V110.617C187.438 108.523 187.883 106.924 188.773 105.82C189.669 104.711 191 104.143 192.766 104.117H193.023ZM191.125 109.242C190.63 109.242 190.174 109.391 189.758 109.688C189.341 109.984 189.052 110.357 188.891 110.805V111.336C188.891 112.273 189.102 113.029 189.523 113.602C189.945 114.174 190.471 114.461 191.102 114.461C191.753 114.461 192.263 114.221 192.633 113.742C193.008 113.263 193.195 112.635 193.195 111.859C193.195 111.078 193.005 110.448 192.625 109.969C192.25 109.484 191.75 109.242 191.125 109.242ZM203.469 110.648C203.469 112.341 203.18 113.599 202.602 114.422C202.023 115.245 201.12 115.656 199.891 115.656C198.677 115.656 197.779 115.255 197.195 114.453C196.612 113.646 196.31 112.443 196.289 110.844V108.914C196.289 107.242 196.578 106 197.156 105.188C197.734 104.375 198.641 103.969 199.875 103.969C201.099 103.969 202 104.362 202.578 105.148C203.156 105.93 203.453 107.138 203.469 108.773V110.648ZM202.023 108.672C202.023 107.448 201.852 106.557 201.508 106C201.164 105.438 200.62 105.156 199.875 105.156C199.135 105.156 198.596 105.435 198.258 105.992C197.919 106.549 197.745 107.406 197.734 108.562V110.875C197.734 112.104 197.911 113.013 198.266 113.602C198.625 114.185 199.167 114.477 199.891 114.477C200.604 114.477 201.133 114.201 201.477 113.648C201.826 113.096 202.008 112.227 202.023 111.039V108.672ZM212.773 115.5H205.32V114.461L209.258 110.086C209.841 109.424 210.242 108.888 210.461 108.477C210.685 108.06 210.797 107.63 210.797 107.188C210.797 106.594 210.617 106.107 210.258 105.727C209.898 105.346 209.419 105.156 208.82 105.156C208.102 105.156 207.542 105.362 207.141 105.773C206.745 106.18 206.547 106.747 206.547 107.477H205.102C205.102 106.43 205.438 105.583 206.109 104.938C206.786 104.292 207.69 103.969 208.82 103.969C209.878 103.969 210.714 104.247 211.328 104.805C211.943 105.357 212.25 106.094 212.25 107.016C212.25 108.135 211.536 109.469 210.109 111.016L207.062 114.32H212.773V115.5ZM221.758 115.5H214.305V114.461L218.242 110.086C218.826 109.424 219.227 108.888 219.445 108.477C219.669 108.06 219.781 107.63 219.781 107.188C219.781 106.594 219.602 106.107 219.242 105.727C218.883 105.346 218.404 105.156 217.805 105.156C217.086 105.156 216.526 105.362 216.125 105.773C215.729 106.18 215.531 106.747 215.531 107.477H214.086C214.086 106.43 214.422 105.583 215.094 104.938C215.771 104.292 216.674 103.969 217.805 103.969C218.862 103.969 219.698 104.247 220.312 104.805C220.927 105.357 221.234 106.094 221.234 107.016C221.234 108.135 220.521 109.469 219.094 111.016L216.047 114.32H221.758V115.5ZM228.039 115.5H226.586V105.867L223.672 106.938V105.625L227.812 104.07H228.039V115.5ZM239.406 110.648C239.406 112.341 239.117 113.599 238.539 114.422C237.961 115.245 237.057 115.656 235.828 115.656C234.615 115.656 233.716 115.255 233.133 114.453C232.549 113.646 232.247 112.443 232.227 110.844V108.914C232.227 107.242 232.516 106 233.094 105.188C233.672 104.375 234.578 103.969 235.812 103.969C237.036 103.969 237.938 104.362 238.516 105.148C239.094 105.93 239.391 107.138 239.406 108.773V110.648ZM237.961 108.672C237.961 107.448 237.789 106.557 237.445 106C237.102 105.438 236.557 105.156 235.812 105.156C235.073 105.156 234.534 105.435 234.195 105.992C233.857 106.549 233.682 107.406 233.672 108.562V110.875C233.672 112.104 233.849 113.013 234.203 113.602C234.562 114.185 235.104 114.477 235.828 114.477C236.542 114.477 237.07 114.201 237.414 113.648C237.763 113.096 237.945 112.227 237.961 111.039V108.672ZM248.391 110.648C248.391 112.341 248.102 113.599 247.523 114.422C246.945 115.245 246.042 115.656 244.812 115.656C243.599 115.656 242.701 115.255 242.117 114.453C241.534 113.646 241.232 112.443 241.211 110.844V108.914C241.211 107.242 241.5 106 242.078 105.188C242.656 104.375 243.562 103.969 244.797 103.969C246.021 103.969 246.922 104.362 247.5 105.148C248.078 105.93 248.375 107.138 248.391 108.773V110.648ZM246.945 108.672C246.945 107.448 246.773 106.557 246.43 106C246.086 105.438 245.542 105.156 244.797 105.156C244.057 105.156 243.518 105.435 243.18 105.992C242.841 106.549 242.667 107.406 242.656 108.562V110.875C242.656 112.104 242.833 113.013 243.188 113.602C243.547 114.185 244.089 114.477 244.812 114.477C245.526 114.477 246.055 114.201 246.398 113.648C246.747 113.096 246.93 112.227 246.945 111.039V108.672ZM253.898 115.656C252.753 115.656 251.82 115.281 251.102 114.531C250.383 113.776 250.023 112.768 250.023 111.508V111.242C250.023 110.404 250.182 109.656 250.5 109C250.823 108.339 251.271 107.823 251.844 107.453C252.422 107.078 253.047 106.891 253.719 106.891C254.818 106.891 255.672 107.253 256.281 107.977C256.891 108.701 257.195 109.737 257.195 111.086V111.688H251.469C251.49 112.521 251.732 113.195 252.195 113.711C252.664 114.221 253.258 114.477 253.977 114.477C254.487 114.477 254.919 114.372 255.273 114.164C255.628 113.956 255.938 113.68 256.203 113.336L257.086 114.023C256.378 115.112 255.315 115.656 253.898 115.656ZM253.719 108.078C253.135 108.078 252.646 108.292 252.25 108.719C251.854 109.141 251.609 109.734 251.516 110.5H255.75V110.391C255.708 109.656 255.51 109.089 255.156 108.688C254.802 108.281 254.323 108.078 253.719 108.078ZM266.18 115.5H258.727V114.461L262.664 110.086C263.247 109.424 263.648 108.888 263.867 108.477C264.091 108.06 264.203 107.63 264.203 107.188C264.203 106.594 264.023 106.107 263.664 105.727C263.305 105.346 262.826 105.156 262.227 105.156C261.508 105.156 260.948 105.362 260.547 105.773C260.151 106.18 259.953 106.747 259.953 107.477H258.508C258.508 106.43 258.844 105.583 259.516 104.938C260.193 104.292 261.096 103.969 262.227 103.969C263.284 103.969 264.12 104.247 264.734 104.805C265.349 105.357 265.656 106.094 265.656 107.016C265.656 108.135 264.943 109.469 263.516 111.016L260.469 114.32H266.18V115.5ZM268.57 115.5V108.164H267.234V107.047H268.57V106.18C268.57 105.273 268.812 104.573 269.297 104.078C269.781 103.583 270.466 103.336 271.352 103.336C271.685 103.336 272.016 103.38 272.344 103.469L272.266 104.641C272.021 104.594 271.76 104.57 271.484 104.57C271.016 104.57 270.654 104.708 270.398 104.984C270.143 105.255 270.016 105.646 270.016 106.156V107.047H271.82V108.164H270.016V115.5H268.57ZM278.812 110.5C278.51 110.859 278.148 111.148 277.727 111.367C277.31 111.586 276.852 111.695 276.352 111.695C275.695 111.695 275.122 111.534 274.633 111.211C274.148 110.888 273.773 110.435 273.508 109.852C273.242 109.263 273.109 108.615 273.109 107.906C273.109 107.146 273.253 106.461 273.539 105.852C273.831 105.242 274.242 104.776 274.773 104.453C275.305 104.13 275.924 103.969 276.633 103.969C277.758 103.969 278.643 104.391 279.289 105.234C279.94 106.073 280.266 107.219 280.266 108.672V109.094C280.266 111.307 279.828 112.924 278.953 113.945C278.078 114.961 276.758 115.482 274.992 115.508H274.711V114.289H275.016C276.208 114.268 277.125 113.958 277.766 113.359C278.406 112.755 278.755 111.802 278.812 110.5ZM276.586 110.5C277.07 110.5 277.516 110.352 277.922 110.055C278.333 109.758 278.633 109.391 278.82 108.953V108.375C278.82 107.427 278.615 106.656 278.203 106.062C277.792 105.469 277.271 105.172 276.641 105.172C276.005 105.172 275.495 105.417 275.109 105.906C274.724 106.391 274.531 107.031 274.531 107.828C274.531 108.604 274.716 109.245 275.086 109.75C275.461 110.25 275.961 110.5 276.586 110.5ZM282.055 111.203C282.055 109.906 282.362 108.865 282.977 108.078C283.591 107.286 284.396 106.891 285.391 106.891C286.38 106.891 287.164 107.229 287.742 107.906V103.5H289.188V115.5H287.859L287.789 114.594C287.211 115.302 286.406 115.656 285.375 115.656C284.396 115.656 283.596 115.255 282.977 114.453C282.362 113.651 282.055 112.604 282.055 111.312V111.203ZM283.5 111.367C283.5 112.326 283.698 113.076 284.094 113.617C284.49 114.159 285.036 114.43 285.734 114.43C286.651 114.43 287.32 114.018 287.742 113.195V109.312C287.31 108.516 286.646 108.117 285.75 108.117C285.042 108.117 284.49 108.391 284.094 108.938C283.698 109.484 283.5 110.294 283.5 111.367ZM298.188 107.094C298.188 107.661 298.036 108.167 297.734 108.609C297.438 109.052 297.034 109.398 296.523 109.648C297.117 109.904 297.586 110.276 297.93 110.766C298.279 111.255 298.453 111.81 298.453 112.43C298.453 113.414 298.12 114.198 297.453 114.781C296.792 115.365 295.919 115.656 294.836 115.656C293.742 115.656 292.865 115.365 292.203 114.781C291.547 114.193 291.219 113.409 291.219 112.43C291.219 111.815 291.385 111.26 291.719 110.766C292.057 110.271 292.523 109.896 293.117 109.641C292.612 109.391 292.214 109.044 291.922 108.602C291.63 108.159 291.484 107.656 291.484 107.094C291.484 106.135 291.792 105.375 292.406 104.812C293.021 104.25 293.831 103.969 294.836 103.969C295.836 103.969 296.643 104.25 297.258 104.812C297.878 105.375 298.188 106.135 298.188 107.094ZM297.008 112.398C297.008 111.763 296.805 111.245 296.398 110.844C295.997 110.443 295.471 110.242 294.82 110.242C294.169 110.242 293.646 110.44 293.25 110.836C292.859 111.232 292.664 111.753 292.664 112.398C292.664 113.044 292.854 113.552 293.234 113.922C293.62 114.292 294.154 114.477 294.836 114.477C295.513 114.477 296.044 114.292 296.43 113.922C296.815 113.547 297.008 113.039 297.008 112.398ZM294.836 105.156C294.268 105.156 293.807 105.333 293.453 105.688C293.104 106.036 292.93 106.513 292.93 107.117C292.93 107.695 293.102 108.164 293.445 108.523C293.794 108.878 294.258 109.055 294.836 109.055C295.414 109.055 295.875 108.878 296.219 108.523C296.568 108.164 296.742 107.695 296.742 107.117C296.742 106.539 296.562 106.068 296.203 105.703C295.844 105.339 295.388 105.156 294.836 105.156ZM302.375 109.109H303.461C304.143 109.099 304.68 108.919 305.07 108.57C305.461 108.221 305.656 107.75 305.656 107.156C305.656 105.823 304.992 105.156 303.664 105.156C303.039 105.156 302.539 105.336 302.164 105.695C301.794 106.049 301.609 106.521 301.609 107.109H300.164C300.164 106.208 300.492 105.461 301.148 104.867C301.81 104.268 302.648 103.969 303.664 103.969C304.737 103.969 305.578 104.253 306.188 104.82C306.797 105.388 307.102 106.177 307.102 107.188C307.102 107.682 306.94 108.161 306.617 108.625C306.299 109.089 305.865 109.435 305.312 109.664C305.938 109.862 306.419 110.19 306.758 110.648C307.102 111.107 307.273 111.667 307.273 112.328C307.273 113.349 306.94 114.159 306.273 114.758C305.607 115.357 304.74 115.656 303.672 115.656C302.604 115.656 301.734 115.367 301.062 114.789C300.396 114.211 300.062 113.448 300.062 112.5H301.516C301.516 113.099 301.711 113.578 302.102 113.938C302.492 114.297 303.016 114.477 303.672 114.477C304.37 114.477 304.904 114.294 305.273 113.93C305.643 113.565 305.828 113.042 305.828 112.359C305.828 111.698 305.625 111.19 305.219 110.836C304.812 110.482 304.227 110.299 303.461 110.289H302.375V109.109ZM314.625 115.5C314.542 115.333 314.474 115.036 314.422 114.609C313.75 115.307 312.948 115.656 312.016 115.656C311.182 115.656 310.497 115.422 309.961 114.953C309.43 114.479 309.164 113.88 309.164 113.156C309.164 112.276 309.497 111.594 310.164 111.109C310.836 110.62 311.779 110.375 312.992 110.375H314.398V109.711C314.398 109.206 314.247 108.805 313.945 108.508C313.643 108.206 313.198 108.055 312.609 108.055C312.094 108.055 311.661 108.185 311.312 108.445C310.964 108.706 310.789 109.021 310.789 109.391H309.336C309.336 108.969 309.484 108.562 309.781 108.172C310.083 107.776 310.49 107.464 311 107.234C311.516 107.005 312.081 106.891 312.695 106.891C313.669 106.891 314.432 107.135 314.984 107.625C315.536 108.109 315.823 108.779 315.844 109.633V113.523C315.844 114.299 315.943 114.917 316.141 115.375V115.5H314.625ZM312.227 114.398C312.68 114.398 313.109 114.281 313.516 114.047C313.922 113.812 314.216 113.508 314.398 113.133V111.398H313.266C311.495 111.398 310.609 111.917 310.609 112.953C310.609 113.406 310.76 113.76 311.062 114.016C311.365 114.271 311.753 114.398 312.227 114.398ZM321.617 115.656C320.471 115.656 319.539 115.281 318.82 114.531C318.102 113.776 317.742 112.768 317.742 111.508V111.242C317.742 110.404 317.901 109.656 318.219 109C318.542 108.339 318.99 107.823 319.562 107.453C320.141 107.078 320.766 106.891 321.438 106.891C322.536 106.891 323.391 107.253 324 107.977C324.609 108.701 324.914 109.737 324.914 111.086V111.688H319.188C319.208 112.521 319.451 113.195 319.914 113.711C320.383 114.221 320.977 114.477 321.695 114.477C322.206 114.477 322.638 114.372 322.992 114.164C323.346 113.956 323.656 113.68 323.922 113.336L324.805 114.023C324.096 115.112 323.034 115.656 321.617 115.656ZM321.438 108.078C320.854 108.078 320.365 108.292 319.969 108.719C319.573 109.141 319.328 109.734 319.234 110.5H323.469V110.391C323.427 109.656 323.229 109.089 322.875 108.688C322.521 108.281 322.042 108.078 321.438 108.078ZM327.109 109.797L327.688 104.125H333.516V105.461H328.914L328.57 108.562C329.128 108.234 329.76 108.07 330.469 108.07C331.505 108.07 332.328 108.414 332.938 109.102C333.547 109.784 333.852 110.708 333.852 111.875C333.852 113.047 333.534 113.971 332.898 114.648C332.268 115.32 331.385 115.656 330.25 115.656C329.245 115.656 328.424 115.378 327.789 114.82C327.154 114.263 326.792 113.492 326.703 112.508H328.07C328.159 113.159 328.391 113.651 328.766 113.984C329.141 114.312 329.635 114.477 330.25 114.477C330.922 114.477 331.448 114.247 331.828 113.789C332.214 113.331 332.406 112.698 332.406 111.891C332.406 111.13 332.198 110.521 331.781 110.062C331.37 109.599 330.82 109.367 330.133 109.367C329.503 109.367 329.008 109.505 328.648 109.781L328.266 110.094L327.109 109.797ZM335.227 111.203C335.227 109.906 335.534 108.865 336.148 108.078C336.763 107.286 337.568 106.891 338.562 106.891C339.552 106.891 340.336 107.229 340.914 107.906V103.5H342.359V115.5H341.031L340.961 114.594C340.383 115.302 339.578 115.656 338.547 115.656C337.568 115.656 336.768 115.255 336.148 114.453C335.534 113.651 335.227 112.604 335.227 111.312V111.203ZM336.672 111.367C336.672 112.326 336.87 113.076 337.266 113.617C337.661 114.159 338.208 114.43 338.906 114.43C339.823 114.43 340.492 114.018 340.914 113.195V109.312C340.482 108.516 339.818 108.117 338.922 108.117C338.214 108.117 337.661 108.391 337.266 108.938C336.87 109.484 336.672 110.294 336.672 111.367ZM348 114.477C348.516 114.477 348.966 114.32 349.352 114.008C349.737 113.695 349.951 113.305 349.992 112.836H351.359C351.333 113.32 351.167 113.781 350.859 114.219C350.552 114.656 350.141 115.005 349.625 115.266C349.115 115.526 348.573 115.656 348 115.656C346.849 115.656 345.932 115.273 345.25 114.508C344.573 113.737 344.234 112.685 344.234 111.352V111.109C344.234 110.286 344.385 109.555 344.688 108.914C344.99 108.273 345.422 107.776 345.984 107.422C346.552 107.068 347.221 106.891 347.992 106.891C348.94 106.891 349.727 107.174 350.352 107.742C350.982 108.31 351.318 109.047 351.359 109.953H349.992C349.951 109.406 349.742 108.958 349.367 108.609C348.997 108.255 348.539 108.078 347.992 108.078C347.258 108.078 346.688 108.344 346.281 108.875C345.88 109.401 345.68 110.164 345.68 111.164V111.438C345.68 112.411 345.88 113.161 346.281 113.688C346.682 114.214 347.255 114.477 348 114.477ZM353.016 114.742C353.016 114.492 353.089 114.284 353.234 114.117C353.385 113.951 353.609 113.867 353.906 113.867C354.203 113.867 354.427 113.951 354.578 114.117C354.734 114.284 354.812 114.492 354.812 114.742C354.812 114.982 354.734 115.182 354.578 115.344C354.427 115.505 354.203 115.586 353.906 115.586C353.609 115.586 353.385 115.505 353.234 115.344C353.089 115.182 353.016 114.982 353.016 114.742ZM357.234 114.742C357.234 114.492 357.307 114.284 357.453 114.117C357.604 113.951 357.828 113.867 358.125 113.867C358.422 113.867 358.646 113.951 358.797 114.117C358.953 114.284 359.031 114.492 359.031 114.742C359.031 114.982 358.953 115.182 358.797 115.344C358.646 115.505 358.422 115.586 358.125 115.586C357.828 115.586 357.604 115.505 357.453 115.344C357.307 115.182 357.234 114.982 357.234 114.742ZM361.453 114.742C361.453 114.492 361.526 114.284 361.672 114.117C361.823 113.951 362.047 113.867 362.344 113.867C362.641 113.867 362.865 113.951 363.016 114.117C363.172 114.284 363.25 114.492 363.25 114.742C363.25 114.982 363.172 115.182 363.016 115.344C362.865 115.505 362.641 115.586 362.344 115.586C362.047 115.586 361.823 115.505 361.672 115.344C361.526 115.182 361.453 114.982 361.453 114.742Z" fill="#2097F6"/>
<path d="M139 90.5H138.5V91V129V129.5H139H375C379.694 129.5 383.5 125.694 383.5 121V99C383.5 94.3056 379.694 90.5 375 90.5H139Z" stroke="#2097F6"/>
<path d="M44.9141 160.43C43.6276 160.06 42.6901 159.607 42.1016 159.07C41.5182 158.529 41.2266 157.862 41.2266 157.07C41.2266 156.174 41.5833 155.435 42.2969 154.852C43.0156 154.263 43.9479 153.969 45.0938 153.969C45.875 153.969 46.5703 154.12 47.1797 154.422C47.7943 154.724 48.2682 155.141 48.6016 155.672C48.9401 156.203 49.1094 156.784 49.1094 157.414H47.6016C47.6016 156.727 47.3828 156.188 46.9453 155.797C46.5078 155.401 45.8906 155.203 45.0938 155.203C44.3542 155.203 43.776 155.367 43.3594 155.695C42.9479 156.018 42.7422 156.469 42.7422 157.047C42.7422 157.51 42.9375 157.904 43.3281 158.227C43.724 158.544 44.3932 158.836 45.3359 159.102C46.2839 159.367 47.0234 159.661 47.5547 159.984C48.0911 160.302 48.487 160.674 48.7422 161.102C49.0026 161.529 49.1328 162.031 49.1328 162.609C49.1328 163.531 48.7734 164.271 48.0547 164.828C47.3359 165.38 46.375 165.656 45.1719 165.656C44.3906 165.656 43.6615 165.508 42.9844 165.211C42.3073 164.909 41.7839 164.497 41.4141 163.977C41.0495 163.456 40.8672 162.865 40.8672 162.203H42.375C42.375 162.891 42.6276 163.435 43.1328 163.836C43.6432 164.232 44.3229 164.43 45.1719 164.43C45.9635 164.43 46.5703 164.268 46.9922 163.945C47.4141 163.622 47.625 163.182 47.625 162.625C47.625 162.068 47.4297 161.638 47.0391 161.336C46.6484 161.029 45.9401 160.727 44.9141 160.43ZM52.6719 165.5H51.1719V154.125H52.6719V165.5ZM63.8203 164.008C63.4349 164.56 62.8958 164.974 62.2031 165.25C61.5156 165.521 60.7135 165.656 59.7969 165.656C58.8698 165.656 58.0469 165.44 57.3281 165.008C56.6094 164.57 56.0521 163.951 55.6562 163.148C55.2656 162.346 55.0651 161.417 55.0547 160.359V159.367C55.0547 157.654 55.4531 156.326 56.25 155.383C57.0521 154.44 58.1771 153.969 59.625 153.969C60.8125 153.969 61.7682 154.273 62.4922 154.883C63.2161 155.487 63.6589 156.346 63.8203 157.461H62.3203C62.0391 155.956 61.1432 155.203 59.6328 155.203C58.6276 155.203 57.8646 155.557 57.3438 156.266C56.8281 156.969 56.5677 157.99 56.5625 159.328V160.258C56.5625 161.534 56.8542 162.549 57.4375 163.305C58.0208 164.055 58.8099 164.43 59.8047 164.43C60.3672 164.43 60.8594 164.367 61.2812 164.242C61.7031 164.117 62.0521 163.906 62.3281 163.609V161.055H59.6953V159.836H63.8203V164.008ZM75.0703 165.5H73.5625L67.8359 156.734V165.5H66.3281V154.125H67.8359L73.5781 162.93V154.125H75.0703V165.5ZM84.1641 160.242H79.2344V164.273H84.9609V165.5H77.7344V154.125H84.8828V155.359H79.2344V159.016H84.1641V160.242ZM86.8281 165.5V154.125H90.0391C91.0286 154.125 91.9036 154.344 92.6641 154.781C93.4245 155.219 94.0104 155.841 94.4219 156.648C94.8385 157.456 95.0495 158.383 95.0547 159.43V160.156C95.0547 161.229 94.8464 162.169 94.4297 162.977C94.0182 163.784 93.4271 164.404 92.6562 164.836C91.8906 165.268 90.9974 165.49 89.9766 165.5H86.8281ZM88.3281 155.359V164.273H89.9062C91.0625 164.273 91.9609 163.914 92.6016 163.195C93.2474 162.477 93.5703 161.453 93.5703 160.125V159.461C93.5703 158.169 93.2656 157.167 92.6562 156.453C92.0521 155.734 91.1927 155.37 90.0781 155.359H88.3281ZM101.297 165.5V154.125H105.016C106.25 154.125 107.177 154.38 107.797 154.891C108.422 155.401 108.734 156.156 108.734 157.156C108.734 157.688 108.583 158.159 108.281 158.57C107.979 158.977 107.568 159.292 107.047 159.516C107.661 159.688 108.146 160.016 108.5 160.5C108.859 160.979 109.039 161.552 109.039 162.219C109.039 163.24 108.708 164.042 108.047 164.625C107.385 165.208 106.451 165.5 105.242 165.5H101.297ZM102.797 160.18V164.273H105.273C105.971 164.273 106.521 164.094 106.922 163.734C107.328 163.37 107.531 162.87 107.531 162.234C107.531 160.865 106.786 160.18 105.297 160.18H102.797ZM102.797 158.977H105.062C105.719 158.977 106.242 158.812 106.633 158.484C107.029 158.156 107.227 157.711 107.227 157.148C107.227 156.523 107.044 156.07 106.68 155.789C106.315 155.503 105.76 155.359 105.016 155.359H102.797V158.977ZM114.297 159.836L117.266 154.125H118.969L115.047 161.258V165.5H113.547V161.258L109.625 154.125H111.344L114.297 159.836ZM125.906 161.047V165.5H124.406V154.125H128.602C129.846 154.125 130.82 154.443 131.523 155.078C132.232 155.714 132.586 156.555 132.586 157.602C132.586 158.706 132.24 159.557 131.547 160.156C130.859 160.75 129.872 161.047 128.586 161.047H125.906ZM125.906 159.82H128.602C129.404 159.82 130.018 159.633 130.445 159.258C130.872 158.878 131.086 158.331 131.086 157.617C131.086 156.94 130.872 156.398 130.445 155.992C130.018 155.586 129.432 155.375 128.688 155.359H125.906V159.82ZM138.672 160.898H136V165.5H134.492V154.125H138.258C139.539 154.125 140.523 154.417 141.211 155C141.904 155.583 142.25 156.432 142.25 157.547C142.25 158.255 142.057 158.872 141.672 159.398C141.292 159.924 140.76 160.318 140.078 160.578L142.75 165.406V165.5H141.141L138.672 160.898ZM136 159.672H138.305C139.049 159.672 139.641 159.479 140.078 159.094C140.521 158.708 140.742 158.193 140.742 157.547C140.742 156.844 140.531 156.305 140.109 155.93C139.693 155.555 139.089 155.365 138.297 155.359H136V159.672ZM145.969 165.5H144.469V154.125H145.969V165.5ZM152.484 163.508L155.734 154.125H157.375L153.156 165.5H151.828L147.617 154.125H149.25L152.484 163.508ZM164.594 162.531H159.828L158.758 165.5H157.211L161.555 154.125H162.867L167.219 165.5H165.68L164.594 162.531ZM160.281 161.297H164.148L162.211 155.977L160.281 161.297ZM175.594 155.359H171.938V165.5H170.445V155.359H166.797V154.125H175.594V155.359ZM183.711 160.242H178.781V164.273H184.508V165.5H177.281V154.125H184.43V155.359H178.781V159.016H183.711V160.242ZM193.234 160.211L191.844 161.656V165.5H190.344V154.125H191.844V159.75L196.898 154.125H198.711L194.234 159.148L199.062 165.5H197.266L193.234 160.211ZM206.805 160.242H201.875V164.273H207.602V165.5H200.375V154.125H207.523V155.359H201.875V159.016H206.805V160.242ZM212.938 159.836L215.906 154.125H217.609L213.688 161.258V165.5H212.188V161.258L208.266 154.125H209.984L212.938 159.836Z" fill="#2097F6"/>
<path d="M375 140.5H306C301.306 140.5 297.5 144.306 297.5 149V171C297.5 175.694 301.306 179.5 306 179.5H375C379.694 179.5 383.5 175.694 383.5 171V149C383.5 144.306 379.694 140.5 375 140.5Z" fill="#E5FDE8"/>
<path d="M329.242 155.359H325.586V165.5H324.094V155.359H320.445V154.125H329.242V155.359ZM335.102 160.898H332.43V165.5H330.922V154.125H334.688C335.969 154.125 336.953 154.417 337.641 155C338.333 155.583 338.68 156.432 338.68 157.547C338.68 158.255 338.487 158.872 338.102 159.398C337.721 159.924 337.19 160.318 336.508 160.578L339.18 165.406V165.5H337.57L335.102 160.898ZM332.43 159.672H334.734C335.479 159.672 336.07 159.479 336.508 159.094C336.951 158.708 337.172 158.193 337.172 157.547C337.172 156.844 336.961 156.305 336.539 155.93C336.122 155.555 335.518 155.365 334.727 155.359H332.43V159.672ZM348.797 154.125V161.859C348.792 162.932 348.453 163.81 347.781 164.492C347.115 165.174 346.208 165.557 345.062 165.641L344.664 165.656C343.419 165.656 342.427 165.32 341.688 164.648C340.948 163.977 340.573 163.052 340.562 161.875V154.125H342.047V161.828C342.047 162.651 342.273 163.292 342.727 163.75C343.18 164.203 343.826 164.43 344.664 164.43C345.513 164.43 346.161 164.203 346.609 163.75C347.062 163.297 347.289 162.659 347.289 161.836V154.125H348.797ZM357.594 160.242H352.664V164.273H358.391V165.5H351.164V154.125H358.312V155.359H352.664V159.016H357.594V160.242Z" fill="#65BF73"/>
<path d="M375 140.5H306C301.306 140.5 297.5 144.306 297.5 149V171C297.5 175.694 301.306 179.5 306 179.5H375C379.694 179.5 383.5 175.694 383.5 171V149C383.5 144.306 379.694 140.5 375 140.5Z" stroke="#65BF73"/>
<rect x="0.5" y="0.5" width="399" height="199" rx="7.5" stroke="#2097F6"/>
</g>
<defs>
<filter id="filter0_d" x="0" y="0" width="404" height="204" filterUnits="userSpaceOnUse" color-interpolation-filters="sRGB">
<feFlood flood-opacity="0" result="BackgroundImageFix"/>
<feColorMatrix in="SourceAlpha" type="matrix" values="0 0 0 0 0 0 0 0 0 0 0 0 0 0 0 0 0 0 127 0"/>
<feOffset dx="4" dy="4"/>
<feColorMatrix type="matrix" values="0 0 0 0 0.513733 0 0 0 0 0.767915 0 0 0 0 0.970833 0 0 0 1 0"/>
<feBlend mode="normal" in2="BackgroundImageFix" result="effect1_dropShadow"/>
<feBlend mode="normal" in="SourceGraphic" in2="effect1_dropShadow" result="shape"/>
</filter>
</defs>
</svg>
