<svg width="404" height="218" viewBox="0 0 404 218" fill="none" xmlns="http://www.w3.org/2000/svg">
<g filter="url(#filter0_d)">
<rect width="400" height="214" rx="8" fill="#E7F4FF"/>
<g clip-path="url(#clip0)">
<path d="M163.5 27.09L155.25 23.34V32.34L163.5 36.09V27.09Z" stroke="#2097F6" stroke-width="1.5" stroke-linecap="round" stroke-linejoin="round"/>
<path d="M163.5 27.09L171.75 23.34V32.34L163.5 36.09V27.09Z" stroke="#2097F6" stroke-width="1.5" stroke-linecap="round" stroke-linejoin="round"/>
<path d="M171.75 23.34L163.5 19.59L155.25 23.34" stroke="#2097F6" stroke-width="1.5" stroke-linecap="round" stroke-linejoin="round"/>
<path d="M163.5 19.59V15.84" stroke="#2097F6" stroke-width="1.5" stroke-linecap="round" stroke-linejoin="round"/>
<path d="M155.25 32.34L152.25 33.84" stroke="#2097F6" stroke-width="1.5" stroke-linecap="round" stroke-linejoin="round"/>
<path d="M171.75 32.34L174.75 33.84" stroke="#2097F6" stroke-width="1.5" stroke-linecap="round" stroke-linejoin="round"/>
</g>
<path d="M187.32 31V19.625H191.039C192.273 19.625 193.201 19.8802 193.82 20.3906C194.445 20.901 194.758 21.6562 194.758 22.6562C194.758 23.1875 194.607 23.6589 194.305 24.0703C194.003 24.4766 193.591 24.7917 193.07 25.0156C193.685 25.1875 194.169 25.5156 194.523 26C194.883 26.4792 195.062 27.0521 195.062 27.7188C195.062 28.7396 194.732 29.5417 194.07 30.125C193.409 30.7083 192.474 31 191.266 31H187.32ZM188.82 25.6797V29.7734H191.297C191.995 29.7734 192.544 29.5938 192.945 29.2344C193.352 28.8698 193.555 28.3698 193.555 27.7344C193.555 26.3646 192.81 25.6797 191.32 25.6797H188.82ZM188.82 24.4766H191.086C191.742 24.4766 192.266 24.3125 192.656 23.9844C193.052 23.6562 193.25 23.2109 193.25 22.6484C193.25 22.0234 193.068 21.5703 192.703 21.2891C192.339 21.0026 191.784 20.8594 191.039 20.8594H188.82V24.4766ZM198.633 31H197.188V19H198.633V31ZM200.57 26.6953C200.57 25.8672 200.732 25.1224 201.055 24.4609C201.383 23.7995 201.836 23.2891 202.414 22.9297C202.997 22.5703 203.661 22.3906 204.406 22.3906C205.557 22.3906 206.487 22.7891 207.195 23.5859C207.909 24.3828 208.266 25.4427 208.266 26.7656V26.8672C208.266 27.6901 208.107 28.4297 207.789 29.0859C207.477 29.737 207.026 30.2448 206.438 30.6094C205.854 30.974 205.182 31.1562 204.422 31.1562C203.276 31.1562 202.346 30.7578 201.633 29.9609C200.924 29.1641 200.57 28.1094 200.57 26.7969V26.6953ZM202.023 26.8672C202.023 27.8047 202.24 28.5573 202.672 29.125C203.109 29.6927 203.693 29.9766 204.422 29.9766C205.156 29.9766 205.74 29.6901 206.172 29.1172C206.604 28.5391 206.82 27.7318 206.82 26.6953C206.82 25.7682 206.599 25.0182 206.156 24.4453C205.719 23.8672 205.135 23.5781 204.406 23.5781C203.693 23.5781 203.117 23.862 202.68 24.4297C202.242 24.9974 202.023 25.8099 202.023 26.8672ZM213.469 29.9766C213.984 29.9766 214.435 29.8203 214.82 29.5078C215.206 29.1953 215.419 28.8047 215.461 28.3359H216.828C216.802 28.8203 216.635 29.2812 216.328 29.7188C216.021 30.1562 215.609 30.5052 215.094 30.7656C214.583 31.026 214.042 31.1562 213.469 31.1562C212.318 31.1562 211.401 30.7734 210.719 30.0078C210.042 29.237 209.703 28.1849 209.703 26.8516V26.6094C209.703 25.7865 209.854 25.0547 210.156 24.4141C210.458 23.7734 210.891 23.276 211.453 22.9219C212.021 22.5677 212.69 22.3906 213.461 22.3906C214.409 22.3906 215.195 22.6745 215.82 23.2422C216.451 23.8099 216.786 24.5469 216.828 25.4531H215.461C215.419 24.9062 215.211 24.4583 214.836 24.1094C214.466 23.7552 214.008 23.5781 213.461 23.5781C212.727 23.5781 212.156 23.8438 211.75 24.375C211.349 24.901 211.148 25.6641 211.148 26.6641V26.9375C211.148 27.9115 211.349 28.6615 211.75 29.1875C212.151 29.7135 212.724 29.9766 213.469 29.9766ZM220.812 27.0859L219.906 28.0312V31H218.461V19H219.906V26.2578L220.68 25.3281L223.312 22.5469H225.07L221.781 26.0781L225.453 31H223.758L220.812 27.0859ZM234.219 27.7969H232.961L232.438 31H230.883L231.406 27.7969H229.672V26.3672H231.641L231.984 24.3047H230.258V22.875H232.219L232.758 19.625H234.305L233.773 22.875H235.031L235.57 19.625H237.125L236.586 22.875H238.391V24.3047H236.352L236.008 26.3672H237.797V27.7969H235.773L235.25 31H233.695L234.219 27.7969ZM233.195 26.3672H234.453L234.797 24.3047H233.539L233.195 26.3672ZM245.266 31H242.625V22.5938L240.031 23.3516V21.3516L245.023 19.625H245.266V31Z" fill="#2097F6"/>
<path d="M28 54.5H108.5V93.5H28C23.8579 93.5 20.5 90.1421 20.5 86V62C20.5 57.8579 23.8579 54.5 28 54.5Z" fill="#E7F4FF"/>
<path d="M41.7656 79.5V68.125H44.9766C45.9661 68.125 46.8411 68.3438 47.6016 68.7812C48.362 69.2188 48.9479 69.8411 49.3594 70.6484C49.776 71.4557 49.987 72.3828 49.9922 73.4297V74.1562C49.9922 75.2292 49.7839 76.1693 49.3672 76.9766C48.9557 77.7839 48.3646 78.4036 47.5938 78.8359C46.8281 79.2682 45.9349 79.4896 44.9141 79.5H41.7656ZM43.2656 69.3594V78.2734H44.8438C46 78.2734 46.8984 77.9141 47.5391 77.1953C48.1849 76.4766 48.5078 75.4531 48.5078 74.125V73.4609C48.5078 72.1693 48.2031 71.1667 47.5938 70.4531C46.9896 69.7344 46.1302 69.3698 45.0156 69.3594H43.2656ZM58.375 76.5312H53.6094L52.5391 79.5H50.9922L55.3359 68.125H56.6484L61 79.5H59.4609L58.375 76.5312ZM54.0625 75.2969H57.9297L55.9922 69.9766L54.0625 75.2969ZM69.375 69.3594H65.7188V79.5H64.2266V69.3594H60.5781V68.125H69.375V69.3594ZM76.7188 76.5312H71.9531L70.8828 79.5H69.3359L73.6797 68.125H74.9922L79.3438 79.5H77.8047L76.7188 76.5312ZM72.4062 75.2969H76.2734L74.3359 69.9766L72.4062 75.2969Z" fill="#2097F6"/>
<path d="M28 54.5H108.5V93.5H28C23.8579 93.5 20.5 90.1421 20.5 86V62C20.5 57.8579 23.8579 54.5 28 54.5Z" stroke="#2097F6"/>
<path d="M109 54.5H108.5V55V93V93.5H109H375C379.694 93.5 383.5 89.6944 383.5 85V63C383.5 58.3056 379.694 54.5 375 54.5H109Z" fill="white"/>
<path d="M138.906 75.8906C138.766 77.0938 138.32 78.0234 137.57 78.6797C136.826 79.3307 135.833 79.6562 134.594 79.6562C133.25 79.6562 132.172 79.1745 131.359 78.2109C130.552 77.2474 130.148 75.9583 130.148 74.3438V73.25C130.148 72.1927 130.336 71.263 130.711 70.4609C131.091 69.6589 131.628 69.0443 132.32 68.6172C133.013 68.1849 133.815 67.9688 134.727 67.9688C135.935 67.9688 136.904 68.3073 137.633 68.9844C138.362 69.6562 138.786 70.5885 138.906 71.7812H137.398C137.268 70.875 136.984 70.2188 136.547 69.8125C136.115 69.4062 135.508 69.2031 134.727 69.2031C133.768 69.2031 133.016 69.5573 132.469 70.2656C131.927 70.974 131.656 71.9818 131.656 73.2891V74.3906C131.656 75.625 131.914 76.6068 132.43 77.3359C132.945 78.0651 133.667 78.4297 134.594 78.4297C135.427 78.4297 136.065 78.2422 136.508 77.8672C136.956 77.487 137.253 76.8281 137.398 75.8906H138.906ZM145.953 79.5C145.87 79.3333 145.802 79.0365 145.75 78.6094C145.078 79.3073 144.276 79.6562 143.344 79.6562C142.51 79.6562 141.826 79.4219 141.289 78.9531C140.758 78.4792 140.492 77.8802 140.492 77.1562C140.492 76.276 140.826 75.5938 141.492 75.1094C142.164 74.6198 143.107 74.375 144.32 74.375H145.727V73.7109C145.727 73.2057 145.576 72.8047 145.273 72.5078C144.971 72.2057 144.526 72.0547 143.938 72.0547C143.422 72.0547 142.99 72.1849 142.641 72.4453C142.292 72.7057 142.117 73.0208 142.117 73.3906H140.664C140.664 72.9688 140.812 72.5625 141.109 72.1719C141.411 71.776 141.818 71.4635 142.328 71.2344C142.844 71.0052 143.409 70.8906 144.023 70.8906C144.997 70.8906 145.76 71.1354 146.312 71.625C146.865 72.1094 147.151 72.7786 147.172 73.6328V77.5234C147.172 78.2995 147.271 78.9167 147.469 79.375V79.5H145.953ZM143.555 78.3984C144.008 78.3984 144.438 78.2812 144.844 78.0469C145.25 77.8125 145.544 77.5078 145.727 77.1328V75.3984H144.594C142.823 75.3984 141.938 75.9167 141.938 76.9531C141.938 77.4062 142.089 77.7604 142.391 78.0156C142.693 78.2708 143.081 78.3984 143.555 78.3984ZM151.797 75.5859L150.891 76.5312V79.5H149.445V67.5H150.891V74.7578L151.664 73.8281L154.297 71.0469H156.055L152.766 74.5781L156.438 79.5H154.742L151.797 75.5859ZM160.898 79.6562C159.753 79.6562 158.82 79.2812 158.102 78.5312C157.383 77.776 157.023 76.7682 157.023 75.5078V75.2422C157.023 74.4036 157.182 73.6562 157.5 73C157.823 72.3385 158.271 71.8229 158.844 71.4531C159.422 71.0781 160.047 70.8906 160.719 70.8906C161.818 70.8906 162.672 71.2526 163.281 71.9766C163.891 72.7005 164.195 73.737 164.195 75.0859V75.6875H158.469C158.49 76.5208 158.732 77.1953 159.195 77.7109C159.664 78.2214 160.258 78.4766 160.977 78.4766C161.487 78.4766 161.919 78.3724 162.273 78.1641C162.628 77.9557 162.938 77.6797 163.203 77.3359L164.086 78.0234C163.378 79.112 162.315 79.6562 160.898 79.6562ZM160.719 72.0781C160.135 72.0781 159.646 72.2917 159.25 72.7188C158.854 73.1406 158.609 73.7344 158.516 74.5H162.75V74.3906C162.708 73.6562 162.51 73.0885 162.156 72.6875C161.802 72.2812 161.323 72.0781 160.719 72.0781Z" fill="#2097F6"/>
<path d="M109 54.5H108.5V55V93V93.5H109H375C379.694 93.5 383.5 89.6944 383.5 85V63C383.5 58.3056 379.694 54.5 375 54.5H109Z" stroke="#2097F6"/>
<path d="M28 104.5H108.5V143.5H28C23.8579 143.5 20.5 140.142 20.5 136V112C20.5 107.858 23.8579 104.5 28 104.5Z" fill="#E7F4FF"/>
<path d="M50.3984 129.5H48.8906L43.1641 120.734V129.5H41.6562V118.125H43.1641L48.9062 126.93V118.125H50.3984V129.5ZM61.8125 124.18C61.8125 125.294 61.625 126.268 61.25 127.102C60.875 127.93 60.3438 128.562 59.6562 129C58.9688 129.438 58.1667 129.656 57.25 129.656C56.3542 129.656 55.5599 129.438 54.8672 129C54.1745 128.557 53.6354 127.93 53.25 127.117C52.8698 126.299 52.6745 125.354 52.6641 124.281V123.461C52.6641 122.367 52.8542 121.401 53.2344 120.562C53.6146 119.724 54.151 119.083 54.8438 118.641C55.5417 118.193 56.3385 117.969 57.2344 117.969C58.1458 117.969 58.9479 118.19 59.6406 118.633C60.3385 119.07 60.875 119.708 61.25 120.547C61.625 121.38 61.8125 122.352 61.8125 123.461V124.18ZM60.3203 123.445C60.3203 122.096 60.0495 121.062 59.5078 120.344C58.9661 119.62 58.2083 119.258 57.2344 119.258C56.2865 119.258 55.5391 119.62 54.9922 120.344C54.4505 121.062 54.1719 122.062 54.1562 123.344V124.18C54.1562 125.487 54.4297 126.516 54.9766 127.266C55.5286 128.01 56.2865 128.383 57.25 128.383C58.2188 128.383 58.9688 128.031 59.5 127.328C60.0312 126.62 60.3047 125.607 60.3203 124.289V123.445ZM72.8047 129.5H71.2969L65.5703 120.734V129.5H64.0625V118.125H65.5703L71.3125 126.93V118.125H72.8047V129.5ZM83.8359 125.891C83.6953 127.094 83.25 128.023 82.5 128.68C81.7552 129.331 80.763 129.656 79.5234 129.656C78.1797 129.656 77.1016 129.174 76.2891 128.211C75.4818 127.247 75.0781 125.958 75.0781 124.344V123.25C75.0781 122.193 75.2656 121.263 75.6406 120.461C76.0208 119.659 76.5573 119.044 77.25 118.617C77.9427 118.185 78.7448 117.969 79.6562 117.969C80.8646 117.969 81.8333 118.307 82.5625 118.984C83.2917 119.656 83.7161 120.589 83.8359 121.781H82.3281C82.1979 120.875 81.9141 120.219 81.4766 119.812C81.0443 119.406 80.4375 119.203 79.6562 119.203C78.6979 119.203 77.9453 119.557 77.3984 120.266C76.8568 120.974 76.5859 121.982 76.5859 123.289V124.391C76.5859 125.625 76.8438 126.607 77.3594 127.336C77.875 128.065 78.5964 128.43 79.5234 128.43C80.3568 128.43 80.9948 128.242 81.4375 127.867C81.8854 127.487 82.1823 126.828 82.3281 125.891H83.8359ZM92.3203 124.242H87.3906V128.273H93.1172V129.5H85.8906V118.125H93.0391V119.359H87.3906V123.016H92.3203V124.242Z" fill="#2097F6"/>
<path d="M28 104.5H108.5V143.5H28C23.8579 143.5 20.5 140.142 20.5 136V112C20.5 107.858 23.8579 104.5 28 104.5Z" stroke="#2097F6"/>
<path d="M109 104.5H108.5V105V143V143.5H109H375C379.694 143.5 383.5 139.694 383.5 135V113C383.5 108.306 379.694 104.5 375 104.5H109Z" fill="white"/>
<path d="M137.086 124.648C137.086 126.341 136.797 127.599 136.219 128.422C135.641 129.245 134.737 129.656 133.508 129.656C132.294 129.656 131.396 129.255 130.812 128.453C130.229 127.646 129.927 126.443 129.906 124.844V122.914C129.906 121.242 130.195 120 130.773 119.188C131.352 118.375 132.258 117.969 133.492 117.969C134.716 117.969 135.617 118.362 136.195 119.148C136.773 119.93 137.07 121.138 137.086 122.773V124.648ZM135.641 122.672C135.641 121.448 135.469 120.557 135.125 120C134.781 119.438 134.237 119.156 133.492 119.156C132.753 119.156 132.214 119.435 131.875 119.992C131.536 120.549 131.362 121.406 131.352 122.562V124.875C131.352 126.104 131.529 127.013 131.883 127.602C132.242 128.185 132.784 128.477 133.508 128.477C134.221 128.477 134.75 128.201 135.094 127.648C135.443 127.096 135.625 126.227 135.641 125.039V122.672Z" fill="#2097F6"/>
<path d="M109 104.5H108.5V105V143V143.5H109H375C379.694 143.5 383.5 139.694 383.5 135V113C383.5 108.306 379.694 104.5 375 104.5H109Z" stroke="#2097F6"/>
<path d="M50.1172 179.5H48.6094V174.242H42.875V179.5H41.375V168.125H42.875V173.016H48.6094V168.125H50.1172V179.5ZM59.2031 176.531H54.4375L53.3672 179.5H51.8203L56.1641 168.125H57.4766L61.8281 179.5H60.2891L59.2031 176.531ZM54.8906 175.297H58.7578L56.8203 169.977L54.8906 175.297ZM66.7109 174.43C65.4245 174.06 64.487 173.607 63.8984 173.07C63.3151 172.529 63.0234 171.862 63.0234 171.07C63.0234 170.174 63.3802 169.435 64.0938 168.852C64.8125 168.263 65.7448 167.969 66.8906 167.969C67.6719 167.969 68.3672 168.12 68.9766 168.422C69.5911 168.724 70.0651 169.141 70.3984 169.672C70.737 170.203 70.9062 170.784 70.9062 171.414H69.3984C69.3984 170.727 69.1797 170.188 68.7422 169.797C68.3047 169.401 67.6875 169.203 66.8906 169.203C66.151 169.203 65.5729 169.367 65.1562 169.695C64.7448 170.018 64.5391 170.469 64.5391 171.047C64.5391 171.51 64.7344 171.904 65.125 172.227C65.5208 172.544 66.1901 172.836 67.1328 173.102C68.0807 173.367 68.8203 173.661 69.3516 173.984C69.888 174.302 70.2839 174.674 70.5391 175.102C70.7995 175.529 70.9297 176.031 70.9297 176.609C70.9297 177.531 70.5703 178.271 69.8516 178.828C69.1328 179.38 68.1719 179.656 66.9688 179.656C66.1875 179.656 65.4583 179.508 64.7812 179.211C64.1042 178.909 63.5807 178.497 63.2109 177.977C62.8464 177.456 62.6641 176.865 62.6641 176.203H64.1719C64.1719 176.891 64.4245 177.435 64.9297 177.836C65.4401 178.232 66.1198 178.43 66.9688 178.43C67.7604 178.43 68.3672 178.268 68.7891 177.945C69.2109 177.622 69.4219 177.182 69.4219 176.625C69.4219 176.068 69.2266 175.638 68.8359 175.336C68.4453 175.029 67.737 174.727 66.7109 174.43ZM81.6016 179.5H80.0938V174.242H74.3594V179.5H72.8594V168.125H74.3594V173.016H80.0938V168.125H81.6016V179.5Z" fill="#2097F6"/>
<path d="M132.188 173.109H133.273C133.956 173.099 134.492 172.919 134.883 172.57C135.273 172.221 135.469 171.75 135.469 171.156C135.469 169.823 134.805 169.156 133.477 169.156C132.852 169.156 132.352 169.336 131.977 169.695C131.607 170.049 131.422 170.521 131.422 171.109H129.977C129.977 170.208 130.305 169.461 130.961 168.867C131.622 168.268 132.461 167.969 133.477 167.969C134.549 167.969 135.391 168.253 136 168.82C136.609 169.388 136.914 170.177 136.914 171.188C136.914 171.682 136.753 172.161 136.43 172.625C136.112 173.089 135.677 173.435 135.125 173.664C135.75 173.862 136.232 174.19 136.57 174.648C136.914 175.107 137.086 175.667 137.086 176.328C137.086 177.349 136.753 178.159 136.086 178.758C135.419 179.357 134.552 179.656 133.484 179.656C132.417 179.656 131.547 179.367 130.875 178.789C130.208 178.211 129.875 177.448 129.875 176.5H131.328C131.328 177.099 131.523 177.578 131.914 177.938C132.305 178.297 132.828 178.477 133.484 178.477C134.182 178.477 134.716 178.294 135.086 177.93C135.456 177.565 135.641 177.042 135.641 176.359C135.641 175.698 135.438 175.19 135.031 174.836C134.625 174.482 134.039 174.299 133.273 174.289H132.188V173.109ZM146.523 179.5H139.07V178.461L143.008 174.086C143.591 173.424 143.992 172.888 144.211 172.477C144.435 172.06 144.547 171.63 144.547 171.188C144.547 170.594 144.367 170.107 144.008 169.727C143.648 169.346 143.169 169.156 142.57 169.156C141.852 169.156 141.292 169.362 140.891 169.773C140.495 170.18 140.297 170.747 140.297 171.477H138.852C138.852 170.43 139.188 169.583 139.859 168.938C140.536 168.292 141.44 167.969 142.57 167.969C143.628 167.969 144.464 168.247 145.078 168.805C145.693 169.357 146 170.094 146 171.016C146 172.135 145.286 173.469 143.859 175.016L140.812 178.32H146.523V179.5ZM151.594 178.477C152.109 178.477 152.56 178.32 152.945 178.008C153.331 177.695 153.544 177.305 153.586 176.836H154.953C154.927 177.32 154.76 177.781 154.453 178.219C154.146 178.656 153.734 179.005 153.219 179.266C152.708 179.526 152.167 179.656 151.594 179.656C150.443 179.656 149.526 179.273 148.844 178.508C148.167 177.737 147.828 176.685 147.828 175.352V175.109C147.828 174.286 147.979 173.555 148.281 172.914C148.583 172.273 149.016 171.776 149.578 171.422C150.146 171.068 150.815 170.891 151.586 170.891C152.534 170.891 153.32 171.174 153.945 171.742C154.576 172.31 154.911 173.047 154.953 173.953H153.586C153.544 173.406 153.336 172.958 152.961 172.609C152.591 172.255 152.133 172.078 151.586 172.078C150.852 172.078 150.281 172.344 149.875 172.875C149.474 173.401 149.273 174.164 149.273 175.164V175.438C149.273 176.411 149.474 177.161 149.875 177.688C150.276 178.214 150.849 178.477 151.594 178.477ZM156.227 175.203C156.227 173.906 156.534 172.865 157.148 172.078C157.763 171.286 158.568 170.891 159.562 170.891C160.552 170.891 161.336 171.229 161.914 171.906V167.5H163.359V179.5H162.031L161.961 178.594C161.383 179.302 160.578 179.656 159.547 179.656C158.568 179.656 157.768 179.255 157.148 178.453C156.534 177.651 156.227 176.604 156.227 175.312V175.203ZM157.672 175.367C157.672 176.326 157.87 177.076 158.266 177.617C158.661 178.159 159.208 178.43 159.906 178.43C160.823 178.43 161.492 178.018 161.914 177.195V173.312C161.482 172.516 160.818 172.117 159.922 172.117C159.214 172.117 158.661 172.391 158.266 172.938C157.87 173.484 157.672 174.294 157.672 175.367ZM172.766 175.367C172.766 176.659 172.469 177.698 171.875 178.484C171.281 179.266 170.484 179.656 169.484 179.656C168.417 179.656 167.591 179.279 167.008 178.523L166.938 179.5H165.609V167.5H167.055V171.977C167.638 171.253 168.443 170.891 169.469 170.891C170.495 170.891 171.299 171.279 171.883 172.055C172.471 172.831 172.766 173.893 172.766 175.242V175.367ZM171.32 175.203C171.32 174.219 171.13 173.458 170.75 172.922C170.37 172.385 169.823 172.117 169.109 172.117C168.156 172.117 167.471 172.56 167.055 173.445V177.102C167.497 177.987 168.188 178.43 169.125 178.43C169.818 178.43 170.357 178.161 170.742 177.625C171.128 177.089 171.32 176.281 171.32 175.203ZM180.117 168.117V169.344H179.852C178.727 169.365 177.831 169.698 177.164 170.344C176.497 170.99 176.112 171.898 176.008 173.07C176.607 172.383 177.424 172.039 178.461 172.039C179.451 172.039 180.24 172.388 180.828 173.086C181.422 173.784 181.719 174.685 181.719 175.789C181.719 176.961 181.398 177.898 180.758 178.602C180.122 179.305 179.268 179.656 178.195 179.656C177.107 179.656 176.224 179.24 175.547 178.406C174.87 177.568 174.531 176.49 174.531 175.172V174.617C174.531 172.523 174.977 170.924 175.867 169.82C176.763 168.711 178.094 168.143 179.859 168.117H180.117ZM178.219 173.242C177.724 173.242 177.268 173.391 176.852 173.688C176.435 173.984 176.146 174.357 175.984 174.805V175.336C175.984 176.273 176.195 177.029 176.617 177.602C177.039 178.174 177.565 178.461 178.195 178.461C178.846 178.461 179.357 178.221 179.727 177.742C180.102 177.263 180.289 176.635 180.289 175.859C180.289 175.078 180.099 174.448 179.719 173.969C179.344 173.484 178.844 173.242 178.219 173.242ZM188.18 179.5H186.727V169.867L183.812 170.938V169.625L187.953 168.07H188.18V179.5ZM197.953 174.5C197.651 174.859 197.289 175.148 196.867 175.367C196.451 175.586 195.992 175.695 195.492 175.695C194.836 175.695 194.263 175.534 193.773 175.211C193.289 174.888 192.914 174.435 192.648 173.852C192.383 173.263 192.25 172.615 192.25 171.906C192.25 171.146 192.393 170.461 192.68 169.852C192.971 169.242 193.383 168.776 193.914 168.453C194.445 168.13 195.065 167.969 195.773 167.969C196.898 167.969 197.784 168.391 198.43 169.234C199.081 170.073 199.406 171.219 199.406 172.672V173.094C199.406 175.307 198.969 176.924 198.094 177.945C197.219 178.961 195.898 179.482 194.133 179.508H193.852V178.289H194.156C195.349 178.268 196.266 177.958 196.906 177.359C197.547 176.755 197.896 175.802 197.953 174.5ZM195.727 174.5C196.211 174.5 196.656 174.352 197.062 174.055C197.474 173.758 197.773 173.391 197.961 172.953V172.375C197.961 171.427 197.755 170.656 197.344 170.062C196.932 169.469 196.411 169.172 195.781 169.172C195.146 169.172 194.635 169.417 194.25 169.906C193.865 170.391 193.672 171.031 193.672 171.828C193.672 172.604 193.857 173.245 194.227 173.75C194.602 174.25 195.102 174.5 195.727 174.5ZM206.148 179.5H204.695V169.867L201.781 170.938V169.625L205.922 168.07H206.148V179.5ZM215.922 174.5C215.62 174.859 215.258 175.148 214.836 175.367C214.419 175.586 213.961 175.695 213.461 175.695C212.805 175.695 212.232 175.534 211.742 175.211C211.258 174.888 210.883 174.435 210.617 173.852C210.352 173.263 210.219 172.615 210.219 171.906C210.219 171.146 210.362 170.461 210.648 169.852C210.94 169.242 211.352 168.776 211.883 168.453C212.414 168.13 213.034 167.969 213.742 167.969C214.867 167.969 215.753 168.391 216.398 169.234C217.049 170.073 217.375 171.219 217.375 172.672V173.094C217.375 175.307 216.938 176.924 216.062 177.945C215.188 178.961 213.867 179.482 212.102 179.508H211.82V178.289H212.125C213.318 178.268 214.234 177.958 214.875 177.359C215.516 176.755 215.865 175.802 215.922 174.5ZM213.695 174.5C214.18 174.5 214.625 174.352 215.031 174.055C215.443 173.758 215.742 173.391 215.93 172.953V172.375C215.93 171.427 215.724 170.656 215.312 170.062C214.901 169.469 214.38 169.172 213.75 169.172C213.115 169.172 212.604 169.417 212.219 169.906C211.833 170.391 211.641 171.031 211.641 171.828C211.641 172.604 211.826 173.245 212.195 173.75C212.57 174.25 213.07 174.5 213.695 174.5ZM225.039 168.117V169.344H224.773C223.648 169.365 222.753 169.698 222.086 170.344C221.419 170.99 221.034 171.898 220.93 173.07C221.529 172.383 222.346 172.039 223.383 172.039C224.372 172.039 225.161 172.388 225.75 173.086C226.344 173.784 226.641 174.685 226.641 175.789C226.641 176.961 226.32 177.898 225.68 178.602C225.044 179.305 224.19 179.656 223.117 179.656C222.029 179.656 221.146 179.24 220.469 178.406C219.792 177.568 219.453 176.49 219.453 175.172V174.617C219.453 172.523 219.898 170.924 220.789 169.82C221.685 168.711 223.016 168.143 224.781 168.117H225.039ZM223.141 173.242C222.646 173.242 222.19 173.391 221.773 173.688C221.357 173.984 221.068 174.357 220.906 174.805V175.336C220.906 176.273 221.117 177.029 221.539 177.602C221.961 178.174 222.487 178.461 223.117 178.461C223.768 178.461 224.279 178.221 224.648 177.742C225.023 177.263 225.211 176.635 225.211 175.859C225.211 175.078 225.021 174.448 224.641 173.969C224.266 173.484 223.766 173.242 223.141 173.242ZM235.805 179.5H228.352V178.461L232.289 174.086C232.872 173.424 233.273 172.888 233.492 172.477C233.716 172.06 233.828 171.63 233.828 171.188C233.828 170.594 233.648 170.107 233.289 169.727C232.93 169.346 232.451 169.156 231.852 169.156C231.133 169.156 230.573 169.362 230.172 169.773C229.776 170.18 229.578 170.747 229.578 171.477H228.133C228.133 170.43 228.469 169.583 229.141 168.938C229.818 168.292 230.721 167.969 231.852 167.969C232.909 167.969 233.745 168.247 234.359 168.805C234.974 169.357 235.281 170.094 235.281 171.016C235.281 172.135 234.568 173.469 233.141 175.016L230.094 178.32H235.805V179.5ZM244.469 174.648C244.469 176.341 244.18 177.599 243.602 178.422C243.023 179.245 242.12 179.656 240.891 179.656C239.677 179.656 238.779 179.255 238.195 178.453C237.612 177.646 237.31 176.443 237.289 174.844V172.914C237.289 171.242 237.578 170 238.156 169.188C238.734 168.375 239.641 167.969 240.875 167.969C242.099 167.969 243 168.362 243.578 169.148C244.156 169.93 244.453 171.138 244.469 172.773V174.648ZM243.023 172.672C243.023 171.448 242.852 170.557 242.508 170C242.164 169.438 241.62 169.156 240.875 169.156C240.135 169.156 239.596 169.435 239.258 169.992C238.919 170.549 238.745 171.406 238.734 172.562V174.875C238.734 176.104 238.911 177.013 239.266 177.602C239.625 178.185 240.167 178.477 240.891 178.477C241.604 178.477 242.133 178.201 242.477 177.648C242.826 177.096 243.008 176.227 243.023 175.039V172.672ZM253.453 174.648C253.453 176.341 253.164 177.599 252.586 178.422C252.008 179.245 251.104 179.656 249.875 179.656C248.661 179.656 247.763 179.255 247.18 178.453C246.596 177.646 246.294 176.443 246.273 174.844V172.914C246.273 171.242 246.562 170 247.141 169.188C247.719 168.375 248.625 167.969 249.859 167.969C251.083 167.969 251.984 168.362 252.562 169.148C253.141 169.93 253.438 171.138 253.453 172.773V174.648ZM252.008 172.672C252.008 171.448 251.836 170.557 251.492 170C251.148 169.438 250.604 169.156 249.859 169.156C249.12 169.156 248.581 169.435 248.242 169.992C247.904 170.549 247.729 171.406 247.719 172.562V174.875C247.719 176.104 247.896 177.013 248.25 177.602C248.609 178.185 249.151 178.477 249.875 178.477C250.589 178.477 251.117 178.201 251.461 177.648C251.81 177.096 251.992 176.227 252.008 175.039V172.672ZM262.438 174.648C262.438 176.341 262.148 177.599 261.57 178.422C260.992 179.245 260.089 179.656 258.859 179.656C257.646 179.656 256.747 179.255 256.164 178.453C255.581 177.646 255.279 176.443 255.258 174.844V172.914C255.258 171.242 255.547 170 256.125 169.188C256.703 168.375 257.609 167.969 258.844 167.969C260.068 167.969 260.969 168.362 261.547 169.148C262.125 169.93 262.422 171.138 262.438 172.773V174.648ZM260.992 172.672C260.992 171.448 260.82 170.557 260.477 170C260.133 169.438 259.589 169.156 258.844 169.156C258.104 169.156 257.565 169.435 257.227 169.992C256.888 170.549 256.714 171.406 256.703 172.562V174.875C256.703 176.104 256.88 177.013 257.234 177.602C257.594 178.185 258.135 178.477 258.859 178.477C259.573 178.477 260.102 178.201 260.445 177.648C260.794 177.096 260.977 176.227 260.992 175.039V172.672ZM264.953 173.797L265.531 168.125H271.359V169.461H266.758L266.414 172.562C266.971 172.234 267.604 172.07 268.312 172.07C269.349 172.07 270.172 172.414 270.781 173.102C271.391 173.784 271.695 174.708 271.695 175.875C271.695 177.047 271.378 177.971 270.742 178.648C270.112 179.32 269.229 179.656 268.094 179.656C267.089 179.656 266.268 179.378 265.633 178.82C264.997 178.263 264.635 177.492 264.547 176.508H265.914C266.003 177.159 266.234 177.651 266.609 177.984C266.984 178.312 267.479 178.477 268.094 178.477C268.766 178.477 269.292 178.247 269.672 177.789C270.057 177.331 270.25 176.698 270.25 175.891C270.25 175.13 270.042 174.521 269.625 174.062C269.214 173.599 268.664 173.367 267.977 173.367C267.346 173.367 266.852 173.505 266.492 173.781L266.109 174.094L264.953 173.797ZM280.406 174.648C280.406 176.341 280.117 177.599 279.539 178.422C278.961 179.245 278.057 179.656 276.828 179.656C275.615 179.656 274.716 179.255 274.133 178.453C273.549 177.646 273.247 176.443 273.227 174.844V172.914C273.227 171.242 273.516 170 274.094 169.188C274.672 168.375 275.578 167.969 276.812 167.969C278.036 167.969 278.938 168.362 279.516 169.148C280.094 169.93 280.391 171.138 280.406 172.773V174.648ZM278.961 172.672C278.961 171.448 278.789 170.557 278.445 170C278.102 169.438 277.557 169.156 276.812 169.156C276.073 169.156 275.534 169.435 275.195 169.992C274.857 170.549 274.682 171.406 274.672 172.562V174.875C274.672 176.104 274.849 177.013 275.203 177.602C275.562 178.185 276.104 178.477 276.828 178.477C277.542 178.477 278.07 178.201 278.414 177.648C278.763 177.096 278.945 176.227 278.961 175.039V172.672ZM287.625 179.5C287.542 179.333 287.474 179.036 287.422 178.609C286.75 179.307 285.948 179.656 285.016 179.656C284.182 179.656 283.497 179.422 282.961 178.953C282.43 178.479 282.164 177.88 282.164 177.156C282.164 176.276 282.497 175.594 283.164 175.109C283.836 174.62 284.779 174.375 285.992 174.375H287.398V173.711C287.398 173.206 287.247 172.805 286.945 172.508C286.643 172.206 286.198 172.055 285.609 172.055C285.094 172.055 284.661 172.185 284.312 172.445C283.964 172.706 283.789 173.021 283.789 173.391H282.336C282.336 172.969 282.484 172.562 282.781 172.172C283.083 171.776 283.49 171.464 284 171.234C284.516 171.005 285.081 170.891 285.695 170.891C286.669 170.891 287.432 171.135 287.984 171.625C288.536 172.109 288.823 172.779 288.844 173.633V177.523C288.844 178.299 288.943 178.917 289.141 179.375V179.5H287.625ZM285.227 178.398C285.68 178.398 286.109 178.281 286.516 178.047C286.922 177.812 287.216 177.508 287.398 177.133V175.398H286.266C284.495 175.398 283.609 175.917 283.609 176.953C283.609 177.406 283.76 177.76 284.062 178.016C284.365 178.271 284.753 178.398 285.227 178.398ZM298.266 175.367C298.266 176.659 297.969 177.698 297.375 178.484C296.781 179.266 295.984 179.656 294.984 179.656C293.917 179.656 293.091 179.279 292.508 178.523L292.438 179.5H291.109V167.5H292.555V171.977C293.138 171.253 293.943 170.891 294.969 170.891C295.995 170.891 296.799 171.279 297.383 172.055C297.971 172.831 298.266 173.893 298.266 175.242V175.367ZM296.82 175.203C296.82 174.219 296.63 173.458 296.25 172.922C295.87 172.385 295.323 172.117 294.609 172.117C293.656 172.117 292.971 172.56 292.555 173.445V177.102C292.997 177.987 293.688 178.43 294.625 178.43C295.318 178.43 295.857 178.161 296.242 177.625C296.628 177.089 296.82 176.281 296.82 175.203ZM307.078 174.648C307.078 176.341 306.789 177.599 306.211 178.422C305.633 179.245 304.729 179.656 303.5 179.656C302.286 179.656 301.388 179.255 300.805 178.453C300.221 177.646 299.919 176.443 299.898 174.844V172.914C299.898 171.242 300.188 170 300.766 169.188C301.344 168.375 302.25 167.969 303.484 167.969C304.708 167.969 305.609 168.362 306.188 169.148C306.766 169.93 307.062 171.138 307.078 172.773V174.648ZM305.633 172.672C305.633 171.448 305.461 170.557 305.117 170C304.773 169.438 304.229 169.156 303.484 169.156C302.745 169.156 302.206 169.435 301.867 169.992C301.529 170.549 301.354 171.406 301.344 172.562V174.875C301.344 176.104 301.521 177.013 301.875 177.602C302.234 178.185 302.776 178.477 303.5 178.477C304.214 178.477 304.742 178.201 305.086 177.648C305.435 177.096 305.617 176.227 305.633 175.039V172.672ZM314.297 179.5C314.214 179.333 314.146 179.036 314.094 178.609C313.422 179.307 312.62 179.656 311.688 179.656C310.854 179.656 310.169 179.422 309.633 178.953C309.102 178.479 308.836 177.88 308.836 177.156C308.836 176.276 309.169 175.594 309.836 175.109C310.508 174.62 311.451 174.375 312.664 174.375H314.07V173.711C314.07 173.206 313.919 172.805 313.617 172.508C313.315 172.206 312.87 172.055 312.281 172.055C311.766 172.055 311.333 172.185 310.984 172.445C310.635 172.706 310.461 173.021 310.461 173.391H309.008C309.008 172.969 309.156 172.562 309.453 172.172C309.755 171.776 310.161 171.464 310.672 171.234C311.188 171.005 311.753 170.891 312.367 170.891C313.341 170.891 314.104 171.135 314.656 171.625C315.208 172.109 315.495 172.779 315.516 173.633V177.523C315.516 178.299 315.615 178.917 315.812 179.375V179.5H314.297ZM311.898 178.398C312.352 178.398 312.781 178.281 313.188 178.047C313.594 177.812 313.888 177.508 314.07 177.133V175.398H312.938C311.167 175.398 310.281 175.917 310.281 176.953C310.281 177.406 310.432 177.76 310.734 178.016C311.036 178.271 311.424 178.398 311.898 178.398ZM318.492 179.5V172.164H317.156V171.047H318.492V170.18C318.492 169.273 318.734 168.573 319.219 168.078C319.703 167.583 320.388 167.336 321.273 167.336C321.607 167.336 321.938 167.38 322.266 167.469L322.188 168.641C321.943 168.594 321.682 168.57 321.406 168.57C320.938 168.57 320.576 168.708 320.32 168.984C320.065 169.255 319.938 169.646 319.938 170.156V171.047H321.742V172.164H319.938V179.5H318.492ZM323.859 173.797L324.438 168.125H330.266V169.461H325.664L325.32 172.562C325.878 172.234 326.51 172.07 327.219 172.07C328.255 172.07 329.078 172.414 329.688 173.102C330.297 173.784 330.602 174.708 330.602 175.875C330.602 177.047 330.284 177.971 329.648 178.648C329.018 179.32 328.135 179.656 327 179.656C325.995 179.656 325.174 179.378 324.539 178.82C323.904 178.263 323.542 177.492 323.453 176.508H324.82C324.909 177.159 325.141 177.651 325.516 177.984C325.891 178.312 326.385 178.477 327 178.477C327.672 178.477 328.198 178.247 328.578 177.789C328.964 177.331 329.156 176.698 329.156 175.891C329.156 175.13 328.948 174.521 328.531 174.062C328.12 173.599 327.57 173.367 326.883 173.367C326.253 173.367 325.758 173.505 325.398 173.781L325.016 174.094L323.859 173.797ZM339.078 171.094C339.078 171.661 338.927 172.167 338.625 172.609C338.328 173.052 337.924 173.398 337.414 173.648C338.008 173.904 338.477 174.276 338.82 174.766C339.169 175.255 339.344 175.81 339.344 176.43C339.344 177.414 339.01 178.198 338.344 178.781C337.682 179.365 336.81 179.656 335.727 179.656C334.633 179.656 333.755 179.365 333.094 178.781C332.438 178.193 332.109 177.409 332.109 176.43C332.109 175.815 332.276 175.26 332.609 174.766C332.948 174.271 333.414 173.896 334.008 173.641C333.503 173.391 333.104 173.044 332.812 172.602C332.521 172.159 332.375 171.656 332.375 171.094C332.375 170.135 332.682 169.375 333.297 168.812C333.911 168.25 334.721 167.969 335.727 167.969C336.727 167.969 337.534 168.25 338.148 168.812C338.768 169.375 339.078 170.135 339.078 171.094ZM337.898 176.398C337.898 175.763 337.695 175.245 337.289 174.844C336.888 174.443 336.362 174.242 335.711 174.242C335.06 174.242 334.536 174.44 334.141 174.836C333.75 175.232 333.555 175.753 333.555 176.398C333.555 177.044 333.745 177.552 334.125 177.922C334.51 178.292 335.044 178.477 335.727 178.477C336.404 178.477 336.935 178.292 337.32 177.922C337.706 177.547 337.898 177.039 337.898 176.398ZM335.727 169.156C335.159 169.156 334.698 169.333 334.344 169.688C333.995 170.036 333.82 170.513 333.82 171.117C333.82 171.695 333.992 172.164 334.336 172.523C334.685 172.878 335.148 173.055 335.727 173.055C336.305 173.055 336.766 172.878 337.109 172.523C337.458 172.164 337.633 171.695 337.633 171.117C337.633 170.539 337.453 170.068 337.094 169.703C336.734 169.339 336.279 169.156 335.727 169.156ZM345.914 179.5H344.461V169.867L341.547 170.938V169.625L345.688 168.07H345.914V179.5ZM350.328 178.742C350.328 178.492 350.401 178.284 350.547 178.117C350.698 177.951 350.922 177.867 351.219 177.867C351.516 177.867 351.74 177.951 351.891 178.117C352.047 178.284 352.125 178.492 352.125 178.742C352.125 178.982 352.047 179.182 351.891 179.344C351.74 179.505 351.516 179.586 351.219 179.586C350.922 179.586 350.698 179.505 350.547 179.344C350.401 179.182 350.328 178.982 350.328 178.742ZM354.547 178.742C354.547 178.492 354.62 178.284 354.766 178.117C354.917 177.951 355.141 177.867 355.438 177.867C355.734 177.867 355.958 177.951 356.109 178.117C356.266 178.284 356.344 178.492 356.344 178.742C356.344 178.982 356.266 179.182 356.109 179.344C355.958 179.505 355.734 179.586 355.438 179.586C355.141 179.586 354.917 179.505 354.766 179.344C354.62 179.182 354.547 178.982 354.547 178.742ZM358.766 178.742C358.766 178.492 358.839 178.284 358.984 178.117C359.135 177.951 359.359 177.867 359.656 177.867C359.953 177.867 360.177 177.951 360.328 178.117C360.484 178.284 360.562 178.492 360.562 178.742C360.562 178.982 360.484 179.182 360.328 179.344C360.177 179.505 359.953 179.586 359.656 179.586C359.359 179.586 359.135 179.505 358.984 179.344C358.839 179.182 358.766 178.982 358.766 178.742Z" fill="#DE1306"/>
<rect x="0.5" y="0.5" width="399" height="213" rx="7.5" stroke="#2097F6"/>
</g>
<defs>
<filter id="filter0_d" x="0" y="0" width="404" height="218" filterUnits="userSpaceOnUse" color-interpolation-filters="sRGB">
<feFlood flood-opacity="0" result="BackgroundImageFix"/>
<feColorMatrix in="SourceAlpha" type="matrix" values="0 0 0 0 0 0 0 0 0 0 0 0 0 0 0 0 0 0 127 0"/>
<feOffset dx="4" dy="4"/>
<feColorMatrix type="matrix" values="0 0 0 0 0.513733 0 0 0 0 0.767915 0 0 0 0 0.970833 0 0 0 1 0"/>
<feBlend mode="normal" in2="BackgroundImageFix" result="effect1_dropShadow"/>
<feBlend mode="normal" in="SourceGraphic" in2="effect1_dropShadow" result="shape"/>
</filter>
<clipPath id="clip0">
<rect width="24" height="24" fill="white" transform="translate(151.5 14)"/>
</clipPath>
</defs>
</svg>
