<svg width="404" height="390" viewBox="0 0 404 390" fill="none" xmlns="http://www.w3.org/2000/svg">
<g filter="url(#filter0_d)">
<rect width="400" height="386" rx="8" fill="#E7F4FF"/>
<g clip-path="url(#clip0)">
<path d="M163.5 27.0901L155.25 23.3401V32.3401L163.5 36.0901V27.0901Z" stroke="#2097F6" stroke-width="1.5" stroke-linecap="round" stroke-linejoin="round"/>
<path d="M163.5 27.0901L171.75 23.3401V32.3401L163.5 36.0901V27.0901Z" stroke="#2097F6" stroke-width="1.5" stroke-linecap="round" stroke-linejoin="round"/>
<path d="M171.75 23.3401L163.5 19.5901L155.25 23.3401" stroke="#2097F6" stroke-width="1.5" stroke-linecap="round" stroke-linejoin="round"/>
<path d="M163.5 19.5901V15.8401" stroke="#2097F6" stroke-width="1.5" stroke-linecap="round" stroke-linejoin="round"/>
<path d="M155.25 32.3401L152.25 33.8401" stroke="#2097F6" stroke-width="1.5" stroke-linecap="round" stroke-linejoin="round"/>
<path d="M171.75 32.3401L174.75 33.8401" stroke="#2097F6" stroke-width="1.5" stroke-linecap="round" stroke-linejoin="round"/>
</g>
<path d="M187.312 31V19.625H191.031C192.266 19.625 193.193 19.8802 193.812 20.3906C194.438 20.901 194.75 21.6562 194.75 22.6562C194.75 23.1875 194.599 23.6589 194.297 24.0703C193.995 24.4766 193.583 24.7917 193.062 25.0156C193.677 25.1875 194.161 25.5156 194.516 26C194.875 26.4792 195.055 27.0521 195.055 27.7188C195.055 28.7396 194.724 29.5417 194.062 30.125C193.401 30.7083 192.466 31 191.258 31H187.312ZM188.812 25.6797V29.7734H191.289C191.987 29.7734 192.536 29.5938 192.938 29.2344C193.344 28.8698 193.547 28.3698 193.547 27.7344C193.547 26.3646 192.802 25.6797 191.312 25.6797H188.812ZM188.812 24.4766H191.078C191.734 24.4766 192.258 24.3125 192.648 23.9844C193.044 23.6562 193.242 23.2109 193.242 22.6484C193.242 22.0234 193.06 21.5703 192.695 21.2891C192.331 21.0026 191.776 20.8594 191.031 20.8594H188.812V24.4766ZM198.625 31H197.18V19H198.625V31ZM200.562 26.6953C200.562 25.8672 200.724 25.1224 201.047 24.4609C201.375 23.7995 201.828 23.2891 202.406 22.9297C202.99 22.5703 203.654 22.3906 204.398 22.3906C205.549 22.3906 206.479 22.7891 207.188 23.5859C207.901 24.3828 208.258 25.4427 208.258 26.7656V26.8672C208.258 27.6901 208.099 28.4297 207.781 29.0859C207.469 29.737 207.018 30.2448 206.43 30.6094C205.846 30.974 205.174 31.1562 204.414 31.1562C203.268 31.1562 202.339 30.7578 201.625 29.9609C200.917 29.1641 200.562 28.1094 200.562 26.7969V26.6953ZM202.016 26.8672C202.016 27.8047 202.232 28.5573 202.664 29.125C203.102 29.6927 203.685 29.9766 204.414 29.9766C205.148 29.9766 205.732 29.6901 206.164 29.1172C206.596 28.5391 206.812 27.7318 206.812 26.6953C206.812 25.7682 206.591 25.0182 206.148 24.4453C205.711 23.8672 205.128 23.5781 204.398 23.5781C203.685 23.5781 203.109 23.862 202.672 24.4297C202.234 24.9974 202.016 25.8099 202.016 26.8672ZM213.461 29.9766C213.977 29.9766 214.427 29.8203 214.812 29.5078C215.198 29.1953 215.411 28.8047 215.453 28.3359H216.82C216.794 28.8203 216.628 29.2812 216.32 29.7188C216.013 30.1562 215.602 30.5052 215.086 30.7656C214.576 31.026 214.034 31.1562 213.461 31.1562C212.31 31.1562 211.393 30.7734 210.711 30.0078C210.034 29.237 209.695 28.1849 209.695 26.8516V26.6094C209.695 25.7865 209.846 25.0547 210.148 24.4141C210.451 23.7734 210.883 23.276 211.445 22.9219C212.013 22.5677 212.682 22.3906 213.453 22.3906C214.401 22.3906 215.188 22.6745 215.812 23.2422C216.443 23.8099 216.779 24.5469 216.82 25.4531H215.453C215.411 24.9062 215.203 24.4583 214.828 24.1094C214.458 23.7552 214 23.5781 213.453 23.5781C212.719 23.5781 212.148 23.8438 211.742 24.375C211.341 24.901 211.141 25.6641 211.141 26.6641V26.9375C211.141 27.9115 211.341 28.6615 211.742 29.1875C212.143 29.7135 212.716 29.9766 213.461 29.9766ZM220.805 27.0859L219.898 28.0312V31H218.453V19H219.898V26.2578L220.672 25.3281L223.305 22.5469H225.062L221.773 26.0781L225.445 31H223.75L220.805 27.0859ZM234.227 27.7969H232.969L232.445 31H230.891L231.414 27.7969H229.68V26.3672H231.648L231.992 24.3047H230.266V22.875H232.227L232.766 19.625H234.312L233.781 22.875H235.039L235.578 19.625H237.133L236.594 22.875H238.398V24.3047H236.359L236.016 26.3672H237.805V27.7969H235.781L235.258 31H233.703L234.227 27.7969ZM233.203 26.3672H234.461L234.805 24.3047H233.547L233.203 26.3672ZM247.375 31H239.438V29.2812L243.094 25.4375C243.995 24.4115 244.445 23.5964 244.445 22.9922C244.445 22.5026 244.339 22.1302 244.125 21.875C243.911 21.6198 243.602 21.4922 243.195 21.4922C242.794 21.4922 242.469 21.6641 242.219 22.0078C241.969 22.3464 241.844 22.7708 241.844 23.2812H239.203C239.203 22.5833 239.378 21.9401 239.727 21.3516C240.076 20.7578 240.56 20.2943 241.18 19.9609C241.799 19.6276 242.492 19.4609 243.258 19.4609C244.487 19.4609 245.432 19.7448 246.094 20.3125C246.76 20.8802 247.094 21.6953 247.094 22.7578C247.094 23.2057 247.01 23.6432 246.844 24.0703C246.677 24.4922 246.417 24.9375 246.062 25.4062C245.714 25.8698 245.148 26.4922 244.367 27.2734L242.898 28.9688H247.375V31Z" fill="#2097F6"/>
<path d="M28 54.5H77.5V215.5H28C23.8579 215.5 20.5 212.142 20.5 208V62C20.5 57.8579 23.8579 54.5 28 54.5Z" fill="#E7F4FF"/>
<path d="M49.3906 130.359H45.7344V140.5H44.2422V130.359H40.5938V129.125H49.3906V130.359ZM54.7891 133.484L57.5156 129.125H59.2812L55.6875 134.766L59.3672 140.5H57.5859L54.7891 136.062L51.9766 140.5H50.2031L53.8906 134.766L50.2891 129.125H52.0469L54.7891 133.484Z" fill="#2097F6"/>
<path d="M28 54.5H77.5V215.5H28C23.8579 215.5 20.5 212.142 20.5 208V62C20.5 57.8579 23.8579 54.5 28 54.5Z" stroke="#2097F6"/>
<path d="M78 54.5H77.5V55V215V215.5H78H375C379.694 215.5 383.5 211.694 383.5 207V63C383.5 58.3056 379.694 54.5 375 54.5H78Z" fill="white"/>
<path d="M94 65.5H113.5V104.5H94C89.8579 104.5 86.5 101.142 86.5 97V73C86.5 68.8579 89.8579 65.5 94 65.5Z" fill="#E7F4FF"/>
<path d="M102.695 87.5703C102.695 87.0911 102.526 86.6875 102.188 86.3594C101.854 86.0312 101.289 85.7344 100.492 85.4688C99.3828 85.1302 98.5729 84.6901 98.0625 84.1484C97.5573 83.6016 97.3047 82.9089 97.3047 82.0703C97.3047 81.2161 97.5521 80.5156 98.0469 79.9688C98.5469 79.4219 99.2318 79.0964 100.102 78.9922V77.2812H101.266V79C102.141 79.1198 102.82 79.487 103.305 80.1016C103.794 80.7161 104.039 81.5573 104.039 82.625H102.602C102.602 81.8906 102.427 81.3073 102.078 80.875C101.729 80.4427 101.258 80.2266 100.664 80.2266C100.044 80.2266 99.5703 80.388 99.2422 80.7109C98.9141 81.0286 98.75 81.474 98.75 82.0469C98.75 82.5781 98.9219 83.0026 99.2656 83.3203C99.6146 83.6328 100.185 83.9193 100.977 84.1797C101.773 84.4349 102.393 84.7188 102.836 85.0312C103.284 85.3385 103.612 85.6979 103.82 86.1094C104.034 86.5208 104.141 87.0026 104.141 87.5547C104.141 88.4349 103.875 89.1432 103.344 89.6797C102.818 90.2161 102.078 90.5339 101.125 90.6328V92.125H99.9688V90.6328C99 90.5443 98.2396 90.2005 97.6875 89.6016C97.1406 88.9974 96.8672 88.1797 96.8672 87.1484H98.3125C98.3125 87.8724 98.5026 88.4297 98.8828 88.8203C99.263 89.2109 99.8021 89.4062 100.5 89.4062C101.182 89.4062 101.719 89.2422 102.109 88.9141C102.5 88.5859 102.695 88.138 102.695 87.5703Z" fill="#2097F6"/>
<path d="M94 65.5H113.5V104.5H94C89.8579 104.5 86.5 101.142 86.5 97V73C86.5 68.8579 89.8579 65.5 94 65.5Z" stroke="#2097F6"/>
<path d="M114 65.5H113.5V66V104V104.5H114H152H152.5V104V66V65.5H152H114Z" fill="white"/>
<path d="M129.711 90.5H128.258V80.8672L125.344 81.9375V80.625L129.484 79.0703H129.711V90.5ZM136.047 84.1094H137.133C137.815 84.099 138.352 83.9193 138.742 83.5703C139.133 83.2214 139.328 82.75 139.328 82.1562C139.328 80.8229 138.664 80.1562 137.336 80.1562C136.711 80.1562 136.211 80.3359 135.836 80.6953C135.466 81.0495 135.281 81.5208 135.281 82.1094H133.836C133.836 81.2083 134.164 80.4609 134.82 79.8672C135.482 79.2682 136.32 78.9688 137.336 78.9688C138.409 78.9688 139.25 79.2526 139.859 79.8203C140.469 80.388 140.773 81.1771 140.773 82.1875C140.773 82.6823 140.612 83.1615 140.289 83.625C139.971 84.0885 139.536 84.4349 138.984 84.6641C139.609 84.862 140.091 85.1901 140.43 85.6484C140.773 86.1068 140.945 86.6667 140.945 87.3281C140.945 88.349 140.612 89.1589 139.945 89.7578C139.279 90.3568 138.411 90.6562 137.344 90.6562C136.276 90.6562 135.406 90.3672 134.734 89.7891C134.068 89.2109 133.734 88.4479 133.734 87.5H135.188C135.188 88.099 135.383 88.5781 135.773 88.9375C136.164 89.2969 136.688 89.4766 137.344 89.4766C138.042 89.4766 138.576 89.2943 138.945 88.9297C139.315 88.5651 139.5 88.0417 139.5 87.3594C139.5 86.6979 139.297 86.1901 138.891 85.8359C138.484 85.4818 137.898 85.2995 137.133 85.2891H136.047V84.1094Z" fill="#2097F6"/>
<path d="M114 65.5H113.5V66V104V104.5H114H152H152.5V104V66V65.5H152H114Z" stroke="#2097F6"/>
<path d="M152.5 65.5H208.5V104.5H152.5V65.5Z" fill="#E7F4FF"/>
<path d="M170.062 85.4766H165.289V90.5H163.789V79.125H170.836V80.3594H165.289V84.25H170.062V85.4766ZM176.289 83.3438C176.07 83.3073 175.833 83.2891 175.578 83.2891C174.63 83.2891 173.987 83.6927 173.648 84.5V90.5H172.203V82.0469H173.609L173.633 83.0234C174.107 82.2682 174.779 81.8906 175.648 81.8906C175.93 81.8906 176.143 81.9271 176.289 82V83.3438ZM177.086 86.1953C177.086 85.3672 177.247 84.6224 177.57 83.9609C177.898 83.2995 178.352 82.7891 178.93 82.4297C179.513 82.0703 180.177 81.8906 180.922 81.8906C182.073 81.8906 183.003 82.2891 183.711 83.0859C184.424 83.8828 184.781 84.9427 184.781 86.2656V86.3672C184.781 87.1901 184.622 87.9297 184.305 88.5859C183.992 89.237 183.542 89.7448 182.953 90.1094C182.37 90.474 181.698 90.6562 180.938 90.6562C179.792 90.6562 178.862 90.2578 178.148 89.4609C177.44 88.6641 177.086 87.6094 177.086 86.2969V86.1953ZM178.539 86.3672C178.539 87.3047 178.755 88.0573 179.188 88.625C179.625 89.1927 180.208 89.4766 180.938 89.4766C181.672 89.4766 182.255 89.1901 182.688 88.6172C183.12 88.0391 183.336 87.2318 183.336 86.1953C183.336 85.2682 183.115 84.5182 182.672 83.9453C182.234 83.3672 181.651 83.0781 180.922 83.0781C180.208 83.0781 179.633 83.362 179.195 83.9297C178.758 84.4974 178.539 85.3099 178.539 86.3672ZM187.953 82.0469L187.992 82.9844C188.612 82.2552 189.448 81.8906 190.5 81.8906C191.682 81.8906 192.487 82.3438 192.914 83.25C193.195 82.8438 193.56 82.5156 194.008 82.2656C194.461 82.0156 194.995 81.8906 195.609 81.8906C197.464 81.8906 198.406 82.8724 198.438 84.8359V90.5H196.992V84.9219C196.992 84.3177 196.854 83.8672 196.578 83.5703C196.302 83.2682 195.839 83.1172 195.188 83.1172C194.651 83.1172 194.206 83.2786 193.852 83.6016C193.497 83.9193 193.292 84.349 193.234 84.8906V90.5H191.781V84.9609C191.781 83.7318 191.18 83.1172 189.977 83.1172C189.029 83.1172 188.38 83.5208 188.031 84.3281V90.5H186.586V82.0469H187.953Z" fill="#2097F6"/>
<path d="M152.5 65.5H208.5V104.5H152.5V65.5Z" stroke="#2097F6"/>
<path d="M209 65.5H208.5V66V104V104.5H209H267H267.5V104V66V65.5H267H209Z" fill="white"/>
<path d="M225.289 79.125H226.797V87.1797C226.797 88.2682 226.469 89.1198 225.812 89.7344C225.161 90.349 224.292 90.6562 223.203 90.6562C222.073 90.6562 221.193 90.3672 220.562 89.7891C219.932 89.2109 219.617 88.401 219.617 87.3594H221.117C221.117 88.0104 221.294 88.5182 221.648 88.8828C222.008 89.2474 222.526 89.4297 223.203 89.4297C223.823 89.4297 224.323 89.2344 224.703 88.8438C225.089 88.4531 225.284 87.9062 225.289 87.2031V79.125ZM228.742 86.1953C228.742 85.3672 228.904 84.6224 229.227 83.9609C229.555 83.2995 230.008 82.7891 230.586 82.4297C231.169 82.0703 231.833 81.8906 232.578 81.8906C233.729 81.8906 234.659 82.2891 235.367 83.0859C236.081 83.8828 236.438 84.9427 236.438 86.2656V86.3672C236.438 87.1901 236.279 87.9297 235.961 88.5859C235.648 89.237 235.198 89.7448 234.609 90.1094C234.026 90.474 233.354 90.6562 232.594 90.6562C231.448 90.6562 230.518 90.2578 229.805 89.4609C229.096 88.6641 228.742 87.6094 228.742 86.2969V86.1953ZM230.195 86.3672C230.195 87.3047 230.411 88.0573 230.844 88.625C231.281 89.1927 231.865 89.4766 232.594 89.4766C233.328 89.4766 233.911 89.1901 234.344 88.6172C234.776 88.0391 234.992 87.2318 234.992 86.1953C234.992 85.2682 234.771 84.5182 234.328 83.9453C233.891 83.3672 233.307 83.0781 232.578 83.0781C231.865 83.0781 231.289 83.362 230.852 83.9297C230.414 84.4974 230.195 85.3099 230.195 86.3672ZM239.695 83.0703C240.336 82.2839 241.169 81.8906 242.195 81.8906C243.982 81.8906 244.883 82.8984 244.898 84.9141V90.5H243.453V84.9062C243.448 84.2969 243.307 83.8464 243.031 83.5547C242.76 83.263 242.336 83.1172 241.758 83.1172C241.289 83.1172 240.878 83.2422 240.523 83.4922C240.169 83.7422 239.893 84.0703 239.695 84.4766V90.5H238.25V78.5H239.695V83.0703ZM248.43 82.0469L248.477 83.1094C249.122 82.2969 249.966 81.8906 251.008 81.8906C252.794 81.8906 253.695 82.8984 253.711 84.9141V90.5H252.266V84.9062C252.26 84.2969 252.12 83.8464 251.844 83.5547C251.573 83.263 251.148 83.1172 250.57 83.1172C250.102 83.1172 249.69 83.2422 249.336 83.4922C248.982 83.7422 248.706 84.0703 248.508 84.4766V90.5H247.062V82.0469H248.43Z" fill="#2097F6"/>
<path d="M209 65.5H208.5V66V104V104.5H209H267H267.5V104V66V65.5H267H209Z" stroke="#2097F6"/>
<path d="M267.5 65.5H302.5V104.5H267.5V65.5Z" fill="#E7F4FF"/>
<path d="M286.234 80.3594H282.578V90.5H281.086V80.3594H277.438V79.125H286.234V80.3594ZM286.531 86.1953C286.531 85.3672 286.693 84.6224 287.016 83.9609C287.344 83.2995 287.797 82.7891 288.375 82.4297C288.958 82.0703 289.622 81.8906 290.367 81.8906C291.518 81.8906 292.448 82.2891 293.156 83.0859C293.87 83.8828 294.227 84.9427 294.227 86.2656V86.3672C294.227 87.1901 294.068 87.9297 293.75 88.5859C293.438 89.237 292.987 89.7448 292.398 90.1094C291.815 90.474 291.143 90.6562 290.383 90.6562C289.237 90.6562 288.307 90.2578 287.594 89.4609C286.885 88.6641 286.531 87.6094 286.531 86.2969V86.1953ZM287.984 86.3672C287.984 87.3047 288.201 88.0573 288.633 88.625C289.07 89.1927 289.654 89.4766 290.383 89.4766C291.117 89.4766 291.701 89.1901 292.133 88.6172C292.565 88.0391 292.781 87.2318 292.781 86.1953C292.781 85.2682 292.56 84.5182 292.117 83.9453C291.68 83.3672 291.096 83.0781 290.367 83.0781C289.654 83.0781 289.078 83.362 288.641 83.9297C288.203 84.4974 287.984 85.3099 287.984 86.3672Z" fill="#2097F6"/>
<path d="M267.5 65.5H302.5V104.5H267.5V65.5Z" stroke="#2097F6"/>
<path d="M303 65.5H302.5V66V104V104.5H303H366C370.694 104.5 374.5 100.694 374.5 96V74C374.5 69.3056 370.694 65.5 366 65.5H303Z" fill="white"/>
<path d="M322.789 86.8906C322.648 88.0938 322.203 89.0234 321.453 89.6797C320.708 90.3307 319.716 90.6562 318.477 90.6562C317.133 90.6562 316.055 90.1745 315.242 89.2109C314.435 88.2474 314.031 86.9583 314.031 85.3438V84.25C314.031 83.1927 314.219 82.263 314.594 81.4609C314.974 80.6589 315.51 80.0443 316.203 79.6172C316.896 79.1849 317.698 78.9688 318.609 78.9688C319.818 78.9688 320.786 79.3073 321.516 79.9844C322.245 80.6562 322.669 81.5885 322.789 82.7812H321.281C321.151 81.875 320.867 81.2188 320.43 80.8125C319.997 80.4062 319.391 80.2031 318.609 80.2031C317.651 80.2031 316.898 80.5573 316.352 81.2656C315.81 81.974 315.539 82.9818 315.539 84.2891V85.3906C315.539 86.625 315.797 87.6068 316.312 88.3359C316.828 89.0651 317.549 89.4297 318.477 89.4297C319.31 89.4297 319.948 89.2422 320.391 88.8672C320.839 88.487 321.135 87.8281 321.281 86.8906H322.789ZM326.062 83.0703C326.703 82.2839 327.536 81.8906 328.562 81.8906C330.349 81.8906 331.25 82.8984 331.266 84.9141V90.5H329.82V84.9062C329.815 84.2969 329.674 83.8464 329.398 83.5547C329.128 83.263 328.703 83.1172 328.125 83.1172C327.656 83.1172 327.245 83.2422 326.891 83.4922C326.536 83.7422 326.26 84.0703 326.062 84.4766V90.5H324.617V78.5H326.062V83.0703ZM337.516 83.3438C337.297 83.3073 337.06 83.2891 336.805 83.2891C335.857 83.2891 335.214 83.6927 334.875 84.5V90.5H333.43V82.0469H334.836L334.859 83.0234C335.333 82.2682 336.005 81.8906 336.875 81.8906C337.156 81.8906 337.37 81.9271 337.516 82V83.3438ZM340.422 90.5H338.977V82.0469H340.422V90.5ZM338.859 79.8047C338.859 79.5703 338.93 79.3724 339.07 79.2109C339.216 79.0495 339.43 78.9688 339.711 78.9688C339.992 78.9688 340.206 79.0495 340.352 79.2109C340.497 79.3724 340.57 79.5703 340.57 79.8047C340.57 80.0391 340.497 80.2344 340.352 80.3906C340.206 80.5469 339.992 80.625 339.711 80.625C339.43 80.625 339.216 80.5469 339.07 80.3906C338.93 80.2344 338.859 80.0391 338.859 79.8047ZM347.664 88.2578C347.664 87.8672 347.516 87.5651 347.219 87.3516C346.927 87.1328 346.414 86.9453 345.68 86.7891C344.951 86.6328 344.37 86.4453 343.938 86.2266C343.51 86.0078 343.193 85.7474 342.984 85.4453C342.781 85.1432 342.68 84.7839 342.68 84.3672C342.68 83.6745 342.971 83.0885 343.555 82.6094C344.143 82.1302 344.893 81.8906 345.805 81.8906C346.763 81.8906 347.539 82.138 348.133 82.6328C348.732 83.1276 349.031 83.7604 349.031 84.5312H347.578C347.578 84.1354 347.409 83.7943 347.07 83.5078C346.737 83.2214 346.315 83.0781 345.805 83.0781C345.279 83.0781 344.867 83.1927 344.57 83.4219C344.273 83.651 344.125 83.9505 344.125 84.3203C344.125 84.6693 344.263 84.9323 344.539 85.1094C344.815 85.2865 345.312 85.4557 346.031 85.6172C346.755 85.7786 347.341 85.9714 347.789 86.1953C348.237 86.4193 348.568 86.6901 348.781 87.0078C349 87.3203 349.109 87.7031 349.109 88.1562C349.109 88.9115 348.807 89.5182 348.203 89.9766C347.599 90.4297 346.815 90.6562 345.852 90.6562C345.174 90.6562 344.576 90.5365 344.055 90.2969C343.534 90.0573 343.125 89.724 342.828 89.2969C342.536 88.8646 342.391 88.3984 342.391 87.8984H343.836C343.862 88.3828 344.055 88.7682 344.414 89.0547C344.779 89.3359 345.258 89.4766 345.852 89.4766C346.398 89.4766 346.836 89.3672 347.164 89.1484C347.497 88.9245 347.664 88.6276 347.664 88.2578Z" fill="#2097F6"/>
<path d="M303 65.5H302.5V66V104V104.5H303H366C370.694 104.5 374.5 100.694 374.5 96V74C374.5 69.3056 370.694 65.5 366 65.5H303Z" stroke="#2097F6"/>
<path d="M94 115.5H113.5V154.5H94C89.8579 154.5 86.5 151.142 86.5 147V123C86.5 118.858 89.8579 115.5 94 115.5Z" fill="#E7F4FF"/>
<path d="M102.695 137.57C102.695 137.091 102.526 136.688 102.188 136.359C101.854 136.031 101.289 135.734 100.492 135.469C99.3828 135.13 98.5729 134.69 98.0625 134.148C97.5573 133.602 97.3047 132.909 97.3047 132.07C97.3047 131.216 97.5521 130.516 98.0469 129.969C98.5469 129.422 99.2318 129.096 100.102 128.992V127.281H101.266V129C102.141 129.12 102.82 129.487 103.305 130.102C103.794 130.716 104.039 131.557 104.039 132.625H102.602C102.602 131.891 102.427 131.307 102.078 130.875C101.729 130.443 101.258 130.227 100.664 130.227C100.044 130.227 99.5703 130.388 99.2422 130.711C98.9141 131.029 98.75 131.474 98.75 132.047C98.75 132.578 98.9219 133.003 99.2656 133.32C99.6146 133.633 100.185 133.919 100.977 134.18C101.773 134.435 102.393 134.719 102.836 135.031C103.284 135.339 103.612 135.698 103.82 136.109C104.034 136.521 104.141 137.003 104.141 137.555C104.141 138.435 103.875 139.143 103.344 139.68C102.818 140.216 102.078 140.534 101.125 140.633V142.125H99.9688V140.633C99 140.544 98.2396 140.201 97.6875 139.602C97.1406 138.997 96.8672 138.18 96.8672 137.148H98.3125C98.3125 137.872 98.5026 138.43 98.8828 138.82C99.263 139.211 99.8021 139.406 100.5 139.406C101.182 139.406 101.719 139.242 102.109 138.914C102.5 138.586 102.695 138.138 102.695 137.57Z" fill="#2097F6"/>
<path d="M94 115.5H113.5V154.5H94C89.8579 154.5 86.5 151.142 86.5 147V123C86.5 118.858 89.8579 115.5 94 115.5Z" stroke="#2097F6"/>
<path d="M114 115.5H113.5V116V154V154.5H114H152H152.5V154V116V115.5H152H114Z" fill="white"/>
<path d="M131.062 136.68H132.641V137.859H131.062V140.5H129.609V137.859H124.43V137.008L129.523 129.125H131.062V136.68ZM126.07 136.68H129.609V131.102L129.438 131.414L126.07 136.68ZM141.289 129.938L136.578 140.5H135.062L139.758 130.312H133.602V129.125H141.289V129.938Z" fill="#2097F6"/>
<path d="M114 115.5H113.5V116V154V154.5H114H152H152.5V154V116V115.5H152H114Z" stroke="#2097F6"/>
<path d="M152.5 115.5H208.5V154.5H152.5V115.5Z" fill="#E7F4FF"/>
<path d="M170.062 135.477H165.289V140.5H163.789V129.125H170.836V130.359H165.289V134.25H170.062V135.477ZM176.289 133.344C176.07 133.307 175.833 133.289 175.578 133.289C174.63 133.289 173.987 133.693 173.648 134.5V140.5H172.203V132.047H173.609L173.633 133.023C174.107 132.268 174.779 131.891 175.648 131.891C175.93 131.891 176.143 131.927 176.289 132V133.344ZM177.086 136.195C177.086 135.367 177.247 134.622 177.57 133.961C177.898 133.299 178.352 132.789 178.93 132.43C179.513 132.07 180.177 131.891 180.922 131.891C182.073 131.891 183.003 132.289 183.711 133.086C184.424 133.883 184.781 134.943 184.781 136.266V136.367C184.781 137.19 184.622 137.93 184.305 138.586C183.992 139.237 183.542 139.745 182.953 140.109C182.37 140.474 181.698 140.656 180.938 140.656C179.792 140.656 178.862 140.258 178.148 139.461C177.44 138.664 177.086 137.609 177.086 136.297V136.195ZM178.539 136.367C178.539 137.305 178.755 138.057 179.188 138.625C179.625 139.193 180.208 139.477 180.938 139.477C181.672 139.477 182.255 139.19 182.688 138.617C183.12 138.039 183.336 137.232 183.336 136.195C183.336 135.268 183.115 134.518 182.672 133.945C182.234 133.367 181.651 133.078 180.922 133.078C180.208 133.078 179.633 133.362 179.195 133.93C178.758 134.497 178.539 135.31 178.539 136.367ZM187.953 132.047L187.992 132.984C188.612 132.255 189.448 131.891 190.5 131.891C191.682 131.891 192.487 132.344 192.914 133.25C193.195 132.844 193.56 132.516 194.008 132.266C194.461 132.016 194.995 131.891 195.609 131.891C197.464 131.891 198.406 132.872 198.438 134.836V140.5H196.992V134.922C196.992 134.318 196.854 133.867 196.578 133.57C196.302 133.268 195.839 133.117 195.188 133.117C194.651 133.117 194.206 133.279 193.852 133.602C193.497 133.919 193.292 134.349 193.234 134.891V140.5H191.781V134.961C191.781 133.732 191.18 133.117 189.977 133.117C189.029 133.117 188.38 133.521 188.031 134.328V140.5H186.586V132.047H187.953Z" fill="#2097F6"/>
<path d="M152.5 115.5H208.5V154.5H152.5V115.5Z" stroke="#2097F6"/>
<path d="M209 115.5H208.5V116V154V154.5H209H267H267.5V154V116V115.5H267H209Z" fill="white"/>
<path d="M228.969 136.891C228.828 138.094 228.383 139.023 227.633 139.68C226.888 140.331 225.896 140.656 224.656 140.656C223.312 140.656 222.234 140.174 221.422 139.211C220.615 138.247 220.211 136.958 220.211 135.344V134.25C220.211 133.193 220.398 132.263 220.773 131.461C221.154 130.659 221.69 130.044 222.383 129.617C223.076 129.185 223.878 128.969 224.789 128.969C225.997 128.969 226.966 129.307 227.695 129.984C228.424 130.656 228.849 131.589 228.969 132.781H227.461C227.331 131.875 227.047 131.219 226.609 130.812C226.177 130.406 225.57 130.203 224.789 130.203C223.831 130.203 223.078 130.557 222.531 131.266C221.99 131.974 221.719 132.982 221.719 134.289V135.391C221.719 136.625 221.977 137.607 222.492 138.336C223.008 139.065 223.729 139.43 224.656 139.43C225.49 139.43 226.128 139.242 226.57 138.867C227.018 138.487 227.315 137.828 227.461 136.891H228.969ZM236.016 140.5C235.932 140.333 235.865 140.036 235.812 139.609C235.141 140.307 234.339 140.656 233.406 140.656C232.573 140.656 231.888 140.422 231.352 139.953C230.82 139.479 230.555 138.88 230.555 138.156C230.555 137.276 230.888 136.594 231.555 136.109C232.227 135.62 233.169 135.375 234.383 135.375H235.789V134.711C235.789 134.206 235.638 133.805 235.336 133.508C235.034 133.206 234.589 133.055 234 133.055C233.484 133.055 233.052 133.185 232.703 133.445C232.354 133.706 232.18 134.021 232.18 134.391H230.727C230.727 133.969 230.875 133.562 231.172 133.172C231.474 132.776 231.88 132.464 232.391 132.234C232.906 132.005 233.471 131.891 234.086 131.891C235.06 131.891 235.823 132.135 236.375 132.625C236.927 133.109 237.214 133.779 237.234 134.633V138.523C237.234 139.299 237.333 139.917 237.531 140.375V140.5H236.016ZM233.617 139.398C234.07 139.398 234.5 139.281 234.906 139.047C235.312 138.812 235.607 138.508 235.789 138.133V136.398H234.656C232.885 136.398 232 136.917 232 137.953C232 138.406 232.151 138.76 232.453 139.016C232.755 139.271 233.143 139.398 233.617 139.398ZM243.586 133.344C243.367 133.307 243.13 133.289 242.875 133.289C241.927 133.289 241.284 133.693 240.945 134.5V140.5H239.5V132.047H240.906L240.93 133.023C241.404 132.268 242.076 131.891 242.945 131.891C243.227 131.891 243.44 131.927 243.586 132V133.344ZM246.492 140.5H245.047V128.5H246.492V140.5Z" fill="#2097F6"/>
<path d="M209 115.5H208.5V116V154V154.5H209H267H267.5V154V116V115.5H267H209Z" stroke="#2097F6"/>
<path d="M267.5 115.5H302.5V154.5H267.5V115.5Z" fill="#E7F4FF"/>
<path d="M286.234 130.359H282.578V140.5H281.086V130.359H277.438V129.125H286.234V130.359ZM286.531 136.195C286.531 135.367 286.693 134.622 287.016 133.961C287.344 133.299 287.797 132.789 288.375 132.43C288.958 132.07 289.622 131.891 290.367 131.891C291.518 131.891 292.448 132.289 293.156 133.086C293.87 133.883 294.227 134.943 294.227 136.266V136.367C294.227 137.19 294.068 137.93 293.75 138.586C293.438 139.237 292.987 139.745 292.398 140.109C291.815 140.474 291.143 140.656 290.383 140.656C289.237 140.656 288.307 140.258 287.594 139.461C286.885 138.664 286.531 137.609 286.531 136.297V136.195ZM287.984 136.367C287.984 137.305 288.201 138.057 288.633 138.625C289.07 139.193 289.654 139.477 290.383 139.477C291.117 139.477 291.701 139.19 292.133 138.617C292.565 138.039 292.781 137.232 292.781 136.195C292.781 135.268 292.56 134.518 292.117 133.945C291.68 133.367 291.096 133.078 290.367 133.078C289.654 133.078 289.078 133.362 288.641 133.93C288.203 134.497 287.984 135.31 287.984 136.367Z" fill="#2097F6"/>
<path d="M267.5 115.5H302.5V154.5H267.5V115.5Z" stroke="#2097F6"/>
<path d="M303 115.5H302.5V116V154V154.5H303H366C370.694 154.5 374.5 150.694 374.5 146V124C374.5 119.306 370.694 115.5 366 115.5H303Z" fill="white"/>
<path d="M315.938 139.273H322.445V140.5H314.164V139.375L320.398 130.359H314.266V129.125H322.195V130.227L315.938 139.273ZM323.609 136.195C323.609 135.367 323.771 134.622 324.094 133.961C324.422 133.299 324.875 132.789 325.453 132.43C326.036 132.07 326.701 131.891 327.445 131.891C328.596 131.891 329.526 132.289 330.234 133.086C330.948 133.883 331.305 134.943 331.305 136.266V136.367C331.305 137.19 331.146 137.93 330.828 138.586C330.516 139.237 330.065 139.745 329.477 140.109C328.893 140.474 328.221 140.656 327.461 140.656C326.315 140.656 325.385 140.258 324.672 139.461C323.964 138.664 323.609 137.609 323.609 136.297V136.195ZM325.062 136.367C325.062 137.305 325.279 138.057 325.711 138.625C326.148 139.193 326.732 139.477 327.461 139.477C328.195 139.477 328.779 139.19 329.211 138.617C329.643 138.039 329.859 137.232 329.859 136.195C329.859 135.268 329.638 134.518 329.195 133.945C328.758 133.367 328.174 133.078 327.445 133.078C326.732 133.078 326.156 133.362 325.719 133.93C325.281 134.497 325.062 135.31 325.062 136.367ZM336.625 140.656C335.479 140.656 334.547 140.281 333.828 139.531C333.109 138.776 332.75 137.768 332.75 136.508V136.242C332.75 135.404 332.909 134.656 333.227 134C333.549 133.339 333.997 132.823 334.57 132.453C335.148 132.078 335.773 131.891 336.445 131.891C337.544 131.891 338.398 132.253 339.008 132.977C339.617 133.701 339.922 134.737 339.922 136.086V136.688H334.195C334.216 137.521 334.458 138.195 334.922 138.711C335.391 139.221 335.984 139.477 336.703 139.477C337.214 139.477 337.646 139.372 338 139.164C338.354 138.956 338.664 138.68 338.93 138.336L339.812 139.023C339.104 140.112 338.042 140.656 336.625 140.656ZM336.445 133.078C335.862 133.078 335.372 133.292 334.977 133.719C334.581 134.141 334.336 134.734 334.242 135.5H338.477V135.391C338.435 134.656 338.237 134.089 337.883 133.688C337.529 133.281 337.049 133.078 336.445 133.078Z" fill="#2097F6"/>
<path d="M303 115.5H302.5V116V154V154.5H303H366C370.694 154.5 374.5 150.694 374.5 146V124C374.5 119.306 370.694 115.5 366 115.5H303Z" stroke="#2097F6"/>
<path d="M94 165.5H113.5V204.5H94C89.8579 204.5 86.5 201.142 86.5 197V173C86.5 168.858 89.8579 165.5 94 165.5Z" fill="#E7F4FF"/>
<path d="M102.695 187.57C102.695 187.091 102.526 186.688 102.188 186.359C101.854 186.031 101.289 185.734 100.492 185.469C99.3828 185.13 98.5729 184.69 98.0625 184.148C97.5573 183.602 97.3047 182.909 97.3047 182.07C97.3047 181.216 97.5521 180.516 98.0469 179.969C98.5469 179.422 99.2318 179.096 100.102 178.992V177.281H101.266V179C102.141 179.12 102.82 179.487 103.305 180.102C103.794 180.716 104.039 181.557 104.039 182.625H102.602C102.602 181.891 102.427 181.307 102.078 180.875C101.729 180.443 101.258 180.227 100.664 180.227C100.044 180.227 99.5703 180.388 99.2422 180.711C98.9141 181.029 98.75 181.474 98.75 182.047C98.75 182.578 98.9219 183.003 99.2656 183.32C99.6146 183.633 100.185 183.919 100.977 184.18C101.773 184.435 102.393 184.719 102.836 185.031C103.284 185.339 103.612 185.698 103.82 186.109C104.034 186.521 104.141 187.003 104.141 187.555C104.141 188.435 103.875 189.143 103.344 189.68C102.818 190.216 102.078 190.534 101.125 190.633V192.125H99.9688V190.633C99 190.544 98.2396 190.201 97.6875 189.602C97.1406 188.997 96.8672 188.18 96.8672 187.148H98.3125C98.3125 187.872 98.5026 188.43 98.8828 188.82C99.263 189.211 99.8021 189.406 100.5 189.406C101.182 189.406 101.719 189.242 102.109 188.914C102.5 188.586 102.695 188.138 102.695 187.57Z" fill="#2097F6"/>
<path d="M94 165.5H113.5V204.5H94C89.8579 204.5 86.5 201.142 86.5 197V173C86.5 168.858 89.8579 165.5 94 165.5Z" stroke="#2097F6"/>
<path d="M114 165.5H113.5V166V204V204.5H114H152H152.5V204V166V165.5H152H114Z" fill="white"/>
<path d="M131.852 182.094C131.852 182.661 131.701 183.167 131.398 183.609C131.102 184.052 130.698 184.398 130.188 184.648C130.781 184.904 131.25 185.276 131.594 185.766C131.943 186.255 132.117 186.81 132.117 187.43C132.117 188.414 131.784 189.198 131.117 189.781C130.456 190.365 129.583 190.656 128.5 190.656C127.406 190.656 126.529 190.365 125.867 189.781C125.211 189.193 124.883 188.409 124.883 187.43C124.883 186.815 125.049 186.26 125.383 185.766C125.721 185.271 126.188 184.896 126.781 184.641C126.276 184.391 125.878 184.044 125.586 183.602C125.294 183.159 125.148 182.656 125.148 182.094C125.148 181.135 125.456 180.375 126.07 179.812C126.685 179.25 127.495 178.969 128.5 178.969C129.5 178.969 130.307 179.25 130.922 179.812C131.542 180.375 131.852 181.135 131.852 182.094ZM130.672 187.398C130.672 186.763 130.469 186.245 130.062 185.844C129.661 185.443 129.135 185.242 128.484 185.242C127.833 185.242 127.31 185.44 126.914 185.836C126.523 186.232 126.328 186.753 126.328 187.398C126.328 188.044 126.518 188.552 126.898 188.922C127.284 189.292 127.818 189.477 128.5 189.477C129.177 189.477 129.708 189.292 130.094 188.922C130.479 188.547 130.672 188.039 130.672 187.398ZM128.5 180.156C127.932 180.156 127.471 180.333 127.117 180.688C126.768 181.036 126.594 181.513 126.594 182.117C126.594 182.695 126.766 183.164 127.109 183.523C127.458 183.878 127.922 184.055 128.5 184.055C129.078 184.055 129.539 183.878 129.883 183.523C130.232 183.164 130.406 182.695 130.406 182.117C130.406 181.539 130.227 181.068 129.867 180.703C129.508 180.339 129.052 180.156 128.5 180.156Z" fill="#2097F6"/>
<path d="M114 165.5H113.5V166V204V204.5H114H152H152.5V204V166V165.5H152H114Z" stroke="#2097F6"/>
<path d="M152.5 165.5H208.5V204.5H152.5V165.5Z" fill="#E7F4FF"/>
<path d="M170.062 185.477H165.289V190.5H163.789V179.125H170.836V180.359H165.289V184.25H170.062V185.477ZM176.289 183.344C176.07 183.307 175.833 183.289 175.578 183.289C174.63 183.289 173.987 183.693 173.648 184.5V190.5H172.203V182.047H173.609L173.633 183.023C174.107 182.268 174.779 181.891 175.648 181.891C175.93 181.891 176.143 181.927 176.289 182V183.344ZM177.086 186.195C177.086 185.367 177.247 184.622 177.57 183.961C177.898 183.299 178.352 182.789 178.93 182.43C179.513 182.07 180.177 181.891 180.922 181.891C182.073 181.891 183.003 182.289 183.711 183.086C184.424 183.883 184.781 184.943 184.781 186.266V186.367C184.781 187.19 184.622 187.93 184.305 188.586C183.992 189.237 183.542 189.745 182.953 190.109C182.37 190.474 181.698 190.656 180.938 190.656C179.792 190.656 178.862 190.258 178.148 189.461C177.44 188.664 177.086 187.609 177.086 186.297V186.195ZM178.539 186.367C178.539 187.305 178.755 188.057 179.188 188.625C179.625 189.193 180.208 189.477 180.938 189.477C181.672 189.477 182.255 189.19 182.688 188.617C183.12 188.039 183.336 187.232 183.336 186.195C183.336 185.268 183.115 184.518 182.672 183.945C182.234 183.367 181.651 183.078 180.922 183.078C180.208 183.078 179.633 183.362 179.195 183.93C178.758 184.497 178.539 185.31 178.539 186.367ZM187.953 182.047L187.992 182.984C188.612 182.255 189.448 181.891 190.5 181.891C191.682 181.891 192.487 182.344 192.914 183.25C193.195 182.844 193.56 182.516 194.008 182.266C194.461 182.016 194.995 181.891 195.609 181.891C197.464 181.891 198.406 182.872 198.438 184.836V190.5H196.992V184.922C196.992 184.318 196.854 183.867 196.578 183.57C196.302 183.268 195.839 183.117 195.188 183.117C194.651 183.117 194.206 183.279 193.852 183.602C193.497 183.919 193.292 184.349 193.234 184.891V190.5H191.781V184.961C191.781 183.732 191.18 183.117 189.977 183.117C189.029 183.117 188.38 183.521 188.031 184.328V190.5H186.586V182.047H187.953Z" fill="#2097F6"/>
<path d="M152.5 165.5H208.5V204.5H152.5V165.5Z" stroke="#2097F6"/>
<path d="M209 165.5H208.5V166V204V204.5H209H267H267.5V204V166V165.5H267H209Z" fill="white"/>
<path d="M226.617 187.531H221.852L220.781 190.5H219.234L223.578 179.125H224.891L229.242 190.5H227.703L226.617 187.531ZM222.305 186.297H226.172L224.234 180.977L222.305 186.297ZM231.914 182.047L231.961 183.109C232.607 182.297 233.451 181.891 234.492 181.891C236.279 181.891 237.18 182.898 237.195 184.914V190.5H235.75V184.906C235.745 184.297 235.604 183.846 235.328 183.555C235.057 183.263 234.633 183.117 234.055 183.117C233.586 183.117 233.174 183.242 232.82 183.492C232.466 183.742 232.19 184.07 231.992 184.477V190.5H230.547V182.047H231.914ZM244.594 190.5C244.51 190.333 244.443 190.036 244.391 189.609C243.719 190.307 242.917 190.656 241.984 190.656C241.151 190.656 240.466 190.422 239.93 189.953C239.398 189.479 239.133 188.88 239.133 188.156C239.133 187.276 239.466 186.594 240.133 186.109C240.805 185.62 241.747 185.375 242.961 185.375H244.367V184.711C244.367 184.206 244.216 183.805 243.914 183.508C243.612 183.206 243.167 183.055 242.578 183.055C242.062 183.055 241.63 183.185 241.281 183.445C240.932 183.706 240.758 184.021 240.758 184.391H239.305C239.305 183.969 239.453 183.562 239.75 183.172C240.052 182.776 240.458 182.464 240.969 182.234C241.484 182.005 242.049 181.891 242.664 181.891C243.638 181.891 244.401 182.135 244.953 182.625C245.505 183.109 245.792 183.779 245.812 184.633V188.523C245.812 189.299 245.911 189.917 246.109 190.375V190.5H244.594ZM242.195 189.398C242.648 189.398 243.078 189.281 243.484 189.047C243.891 188.812 244.185 188.508 244.367 188.133V186.398H243.234C241.464 186.398 240.578 186.917 240.578 187.953C240.578 188.406 240.729 188.76 241.031 189.016C241.333 189.271 241.721 189.398 242.195 189.398Z" fill="#2097F6"/>
<path d="M209 165.5H208.5V166V204V204.5H209H267H267.5V204V166V165.5H267H209Z" stroke="#2097F6"/>
<path d="M267.5 165.5H302.5V204.5H267.5V165.5Z" fill="#E7F4FF"/>
<path d="M286.234 180.359H282.578V190.5H281.086V180.359H277.438V179.125H286.234V180.359ZM286.531 186.195C286.531 185.367 286.693 184.622 287.016 183.961C287.344 183.299 287.797 182.789 288.375 182.43C288.958 182.07 289.622 181.891 290.367 181.891C291.518 181.891 292.448 182.289 293.156 183.086C293.87 183.883 294.227 184.943 294.227 186.266V186.367C294.227 187.19 294.068 187.93 293.75 188.586C293.438 189.237 292.987 189.745 292.398 190.109C291.815 190.474 291.143 190.656 290.383 190.656C289.237 190.656 288.307 190.258 287.594 189.461C286.885 188.664 286.531 187.609 286.531 186.297V186.195ZM287.984 186.367C287.984 187.305 288.201 188.057 288.633 188.625C289.07 189.193 289.654 189.477 290.383 189.477C291.117 189.477 291.701 189.19 292.133 188.617C292.565 188.039 292.781 187.232 292.781 186.195C292.781 185.268 292.56 184.518 292.117 183.945C291.68 183.367 291.096 183.078 290.367 183.078C289.654 183.078 289.078 183.362 288.641 183.93C288.203 184.497 287.984 185.31 287.984 186.367Z" fill="#2097F6"/>
<path d="M267.5 165.5H302.5V204.5H267.5V165.5Z" stroke="#2097F6"/>
<path d="M303 165.5H302.5V166V204V204.5H303H366C370.694 204.5 374.5 200.694 374.5 196V174C374.5 169.306 370.694 165.5 366 165.5H303Z" fill="white"/>
<path d="M316.602 179.125L320.32 188.406L324.039 179.125H325.984V190.5H324.484V186.07L324.625 181.289L320.891 190.5H319.742L316.016 181.312L316.164 186.07V190.5H314.664V179.125H316.602ZM333.625 190.5C333.542 190.333 333.474 190.036 333.422 189.609C332.75 190.307 331.948 190.656 331.016 190.656C330.182 190.656 329.497 190.422 328.961 189.953C328.43 189.479 328.164 188.88 328.164 188.156C328.164 187.276 328.497 186.594 329.164 186.109C329.836 185.62 330.779 185.375 331.992 185.375H333.398V184.711C333.398 184.206 333.247 183.805 332.945 183.508C332.643 183.206 332.198 183.055 331.609 183.055C331.094 183.055 330.661 183.185 330.312 183.445C329.964 183.706 329.789 184.021 329.789 184.391H328.336C328.336 183.969 328.484 183.562 328.781 183.172C329.083 182.776 329.49 182.464 330 182.234C330.516 182.005 331.081 181.891 331.695 181.891C332.669 181.891 333.432 182.135 333.984 182.625C334.536 183.109 334.823 183.779 334.844 184.633V188.523C334.844 189.299 334.943 189.917 335.141 190.375V190.5H333.625ZM331.227 189.398C331.68 189.398 332.109 189.281 332.516 189.047C332.922 188.812 333.216 188.508 333.398 188.133V186.398H332.266C330.495 186.398 329.609 186.917 329.609 187.953C329.609 188.406 329.76 188.76 330.062 189.016C330.365 189.271 330.753 189.398 331.227 189.398ZM341.195 183.344C340.977 183.307 340.74 183.289 340.484 183.289C339.536 183.289 338.893 183.693 338.555 184.5V190.5H337.109V182.047H338.516L338.539 183.023C339.013 182.268 339.685 181.891 340.555 181.891C340.836 181.891 341.049 181.927 341.195 182V183.344ZM345.766 189.477C346.281 189.477 346.732 189.32 347.117 189.008C347.503 188.695 347.716 188.305 347.758 187.836H349.125C349.099 188.32 348.932 188.781 348.625 189.219C348.318 189.656 347.906 190.005 347.391 190.266C346.88 190.526 346.339 190.656 345.766 190.656C344.615 190.656 343.698 190.273 343.016 189.508C342.339 188.737 342 187.685 342 186.352V186.109C342 185.286 342.151 184.555 342.453 183.914C342.755 183.273 343.188 182.776 343.75 182.422C344.318 182.068 344.987 181.891 345.758 181.891C346.706 181.891 347.492 182.174 348.117 182.742C348.747 183.31 349.083 184.047 349.125 184.953H347.758C347.716 184.406 347.508 183.958 347.133 183.609C346.763 183.255 346.305 183.078 345.758 183.078C345.023 183.078 344.453 183.344 344.047 183.875C343.646 184.401 343.445 185.164 343.445 186.164V186.438C343.445 187.411 343.646 188.161 344.047 188.688C344.448 189.214 345.021 189.477 345.766 189.477Z" fill="#2097F6"/>
<path d="M303 165.5H302.5V166V204V204.5H303H366C370.694 204.5 374.5 200.694 374.5 196V174C374.5 169.306 370.694 165.5 366 165.5H303Z" stroke="#2097F6"/>
<path d="M78 54.5H77.5V55V215V215.5H78H375C379.694 215.5 383.5 211.694 383.5 207V63C383.5 58.3056 379.694 54.5 375 54.5H78Z" stroke="#2097F6"/>
<path d="M28 226.5H108.5V265.5H28C23.8579 265.5 20.5 262.142 20.5 258V234C20.5 229.858 23.8579 226.5 28 226.5Z" fill="#E7F4FF"/>
<path d="M50.3984 251.5H48.8906L43.1641 242.734V251.5H41.6562V240.125H43.1641L48.9062 248.93V240.125H50.3984V251.5ZM61.8125 246.18C61.8125 247.294 61.625 248.268 61.25 249.102C60.875 249.93 60.3438 250.562 59.6562 251C58.9688 251.438 58.1667 251.656 57.25 251.656C56.3542 251.656 55.5599 251.438 54.8672 251C54.1745 250.557 53.6354 249.93 53.25 249.117C52.8698 248.299 52.6745 247.354 52.6641 246.281V245.461C52.6641 244.367 52.8542 243.401 53.2344 242.562C53.6146 241.724 54.151 241.083 54.8438 240.641C55.5417 240.193 56.3385 239.969 57.2344 239.969C58.1458 239.969 58.9479 240.19 59.6406 240.633C60.3385 241.07 60.875 241.708 61.25 242.547C61.625 243.38 61.8125 244.352 61.8125 245.461V246.18ZM60.3203 245.445C60.3203 244.096 60.0495 243.062 59.5078 242.344C58.9661 241.62 58.2083 241.258 57.2344 241.258C56.2865 241.258 55.5391 241.62 54.9922 242.344C54.4505 243.062 54.1719 244.062 54.1562 245.344V246.18C54.1562 247.487 54.4297 248.516 54.9766 249.266C55.5286 250.01 56.2865 250.383 57.25 250.383C58.2188 250.383 58.9688 250.031 59.5 249.328C60.0312 248.62 60.3047 247.607 60.3203 246.289V245.445ZM72.8047 251.5H71.2969L65.5703 242.734V251.5H64.0625V240.125H65.5703L71.3125 248.93V240.125H72.8047V251.5ZM83.8359 247.891C83.6953 249.094 83.25 250.023 82.5 250.68C81.7552 251.331 80.763 251.656 79.5234 251.656C78.1797 251.656 77.1016 251.174 76.2891 250.211C75.4818 249.247 75.0781 247.958 75.0781 246.344V245.25C75.0781 244.193 75.2656 243.263 75.6406 242.461C76.0208 241.659 76.5573 241.044 77.25 240.617C77.9427 240.185 78.7448 239.969 79.6562 239.969C80.8646 239.969 81.8333 240.307 82.5625 240.984C83.2917 241.656 83.7161 242.589 83.8359 243.781H82.3281C82.1979 242.875 81.9141 242.219 81.4766 241.812C81.0443 241.406 80.4375 241.203 79.6562 241.203C78.6979 241.203 77.9453 241.557 77.3984 242.266C76.8568 242.974 76.5859 243.982 76.5859 245.289V246.391C76.5859 247.625 76.8438 248.607 77.3594 249.336C77.875 250.065 78.5964 250.43 79.5234 250.43C80.3568 250.43 80.9948 250.242 81.4375 249.867C81.8854 249.487 82.1823 248.828 82.3281 247.891H83.8359ZM92.3203 246.242H87.3906V250.273H93.1172V251.5H85.8906V240.125H93.0391V241.359H87.3906V245.016H92.3203V246.242Z" fill="#2097F6"/>
<path d="M28 226.5H108.5V265.5H28C23.8579 265.5 20.5 262.142 20.5 258V234C20.5 229.858 23.8579 226.5 28 226.5Z" stroke="#2097F6"/>
<path d="M109 226.5H108.5V227V265V265.5H109H375C379.694 265.5 383.5 261.694 383.5 257V235C383.5 230.306 379.694 226.5 375 226.5H109Z" fill="white"/>
<path d="M137.43 251.5H129.977V250.461L133.914 246.086C134.497 245.424 134.898 244.888 135.117 244.477C135.341 244.06 135.453 243.63 135.453 243.188C135.453 242.594 135.273 242.107 134.914 241.727C134.555 241.346 134.076 241.156 133.477 241.156C132.758 241.156 132.198 241.362 131.797 241.773C131.401 242.18 131.203 242.747 131.203 243.477H129.758C129.758 242.43 130.094 241.583 130.766 240.938C131.443 240.292 132.346 239.969 133.477 239.969C134.534 239.969 135.37 240.247 135.984 240.805C136.599 241.357 136.906 242.094 136.906 243.016C136.906 244.135 136.193 245.469 134.766 247.016L131.719 250.32H137.43V251.5ZM145.062 247.68H146.641V248.859H145.062V251.5H143.609V248.859H138.43V248.008L143.523 240.125H145.062V247.68ZM140.07 247.68H143.609V242.102L143.438 242.414L140.07 247.68ZM150.047 245.109H151.133C151.815 245.099 152.352 244.919 152.742 244.57C153.133 244.221 153.328 243.75 153.328 243.156C153.328 241.823 152.664 241.156 151.336 241.156C150.711 241.156 150.211 241.336 149.836 241.695C149.466 242.049 149.281 242.521 149.281 243.109H147.836C147.836 242.208 148.164 241.461 148.82 240.867C149.482 240.268 150.32 239.969 151.336 239.969C152.409 239.969 153.25 240.253 153.859 240.82C154.469 241.388 154.773 242.177 154.773 243.188C154.773 243.682 154.612 244.161 154.289 244.625C153.971 245.089 153.536 245.435 152.984 245.664C153.609 245.862 154.091 246.19 154.43 246.648C154.773 247.107 154.945 247.667 154.945 248.328C154.945 249.349 154.612 250.159 153.945 250.758C153.279 251.357 152.411 251.656 151.344 251.656C150.276 251.656 149.406 251.367 148.734 250.789C148.068 250.211 147.734 249.448 147.734 248.5H149.188C149.188 249.099 149.383 249.578 149.773 249.938C150.164 250.297 150.688 250.477 151.344 250.477C152.042 250.477 152.576 250.294 152.945 249.93C153.315 249.565 153.5 249.042 153.5 248.359C153.5 247.698 153.297 247.19 152.891 246.836C152.484 246.482 151.898 246.299 151.133 246.289H150.047V245.109ZM164.383 251.5H156.93V250.461L160.867 246.086C161.451 245.424 161.852 244.888 162.07 244.477C162.294 244.06 162.406 243.63 162.406 243.188C162.406 242.594 162.227 242.107 161.867 241.727C161.508 241.346 161.029 241.156 160.43 241.156C159.711 241.156 159.151 241.362 158.75 241.773C158.354 242.18 158.156 242.747 158.156 243.477H156.711C156.711 242.43 157.047 241.583 157.719 240.938C158.396 240.292 159.299 239.969 160.43 239.969C161.487 239.969 162.323 240.247 162.938 240.805C163.552 241.357 163.859 242.094 163.859 243.016C163.859 244.135 163.146 245.469 161.719 247.016L158.672 250.32H164.383V251.5Z" fill="#2097F6"/>
<path d="M109 226.5H108.5V227V265V265.5H109H375C379.694 265.5 383.5 261.694 383.5 257V235C383.5 230.306 379.694 226.5 375 226.5H109Z" stroke="#2097F6"/>
<path d="M28 276.5H108.5V315.5H28C23.8579 315.5 20.5 312.142 20.5 308V284C20.5 279.858 23.8579 276.5 28 276.5Z" fill="#E7F4FF"/>
<path d="M43 297.047V301.5H41.5V290.125H45.6953C46.9401 290.125 47.9141 290.443 48.6172 291.078C49.3255 291.714 49.6797 292.555 49.6797 293.602C49.6797 294.706 49.3333 295.557 48.6406 296.156C47.9531 296.75 46.9661 297.047 45.6797 297.047H43ZM43 295.82H45.6953C46.4974 295.82 47.112 295.633 47.5391 295.258C47.9661 294.878 48.1797 294.331 48.1797 293.617C48.1797 292.94 47.9661 292.398 47.5391 291.992C47.112 291.586 46.526 291.375 45.7812 291.359H43V295.82ZM55.7656 296.898H53.0938V301.5H51.5859V290.125H55.3516C56.6328 290.125 57.6172 290.417 58.3047 291C58.9974 291.583 59.3438 292.432 59.3438 293.547C59.3438 294.255 59.151 294.872 58.7656 295.398C58.3854 295.924 57.8542 296.318 57.1719 296.578L59.8438 301.406V301.5H58.2344L55.7656 296.898ZM53.0938 295.672H55.3984C56.1432 295.672 56.7344 295.479 57.1719 295.094C57.6146 294.708 57.8359 294.193 57.8359 293.547C57.8359 292.844 57.625 292.305 57.2031 291.93C56.7865 291.555 56.1823 291.365 55.3906 291.359H53.0938V295.672ZM67.8828 296.242H62.9531V300.273H68.6797V301.5H61.4531V290.125H68.6016V291.359H62.9531V295.016H67.8828V296.242ZM74.3125 299.508L77.5625 290.125H79.2031L74.9844 301.5H73.6562L69.4453 290.125H71.0781L74.3125 299.508ZM89.4766 301.5H87.9688V296.242H82.2344V301.5H80.7344V290.125H82.2344V295.016H87.9688V290.125H89.4766V301.5Z" fill="#2097F6"/>
<path d="M28 276.5H108.5V315.5H28C23.8579 315.5 20.5 312.142 20.5 308V284C20.5 279.858 23.8579 276.5 28 276.5Z" stroke="#2097F6"/>
<path d="M109 276.5H108.5V277V315V315.5H109H375C379.694 315.5 383.5 311.694 383.5 307V285C383.5 280.306 379.694 276.5 375 276.5H109Z" fill="white"/>
<path d="M137.844 296.852C137.844 298.388 137.497 299.573 136.805 300.406C136.117 301.24 135.146 301.656 133.891 301.656C132.625 301.656 131.646 301.237 130.953 300.398C130.26 299.56 129.914 298.378 129.914 296.852V294.773C129.914 293.237 130.258 292.052 130.945 291.219C131.638 290.385 132.615 289.969 133.875 289.969C135.135 289.969 136.112 290.388 136.805 291.227C137.497 292.065 137.844 293.25 137.844 294.781V296.852ZM135.211 294.438C135.211 293.62 135.104 293.01 134.891 292.609C134.677 292.203 134.339 292 133.875 292C133.422 292 133.091 292.188 132.883 292.562C132.68 292.938 132.57 293.505 132.555 294.266V297.172C132.555 298.021 132.661 298.643 132.875 299.039C133.089 299.43 133.427 299.625 133.891 299.625C134.339 299.625 134.669 299.435 134.883 299.055C135.096 298.669 135.206 298.068 135.211 297.25V294.438ZM147.109 296.852C147.109 298.388 146.763 299.573 146.07 300.406C145.383 301.24 144.411 301.656 143.156 301.656C141.891 301.656 140.911 301.237 140.219 300.398C139.526 299.56 139.18 298.378 139.18 296.852V294.773C139.18 293.237 139.523 292.052 140.211 291.219C140.904 290.385 141.88 289.969 143.141 289.969C144.401 289.969 145.378 290.388 146.07 291.227C146.763 292.065 147.109 293.25 147.109 294.781V296.852ZM144.477 294.438C144.477 293.62 144.37 293.01 144.156 292.609C143.943 292.203 143.604 292 143.141 292C142.688 292 142.357 292.188 142.148 292.562C141.945 292.938 141.836 293.505 141.82 294.266V297.172C141.82 298.021 141.927 298.643 142.141 299.039C142.354 299.43 142.693 299.625 143.156 299.625C143.604 299.625 143.935 299.435 144.148 299.055C144.362 298.669 144.471 298.068 144.477 297.25V294.438ZM156.375 296.852C156.375 298.388 156.029 299.573 155.336 300.406C154.648 301.24 153.677 301.656 152.422 301.656C151.156 301.656 150.177 301.237 149.484 300.398C148.792 299.56 148.445 298.378 148.445 296.852V294.773C148.445 293.237 148.789 292.052 149.477 291.219C150.169 290.385 151.146 289.969 152.406 289.969C153.667 289.969 154.643 290.388 155.336 291.227C156.029 292.065 156.375 293.25 156.375 294.781V296.852ZM153.742 294.438C153.742 293.62 153.635 293.01 153.422 292.609C153.208 292.203 152.87 292 152.406 292C151.953 292 151.622 292.188 151.414 292.562C151.211 292.938 151.102 293.505 151.086 294.266V297.172C151.086 298.021 151.193 298.643 151.406 299.039C151.62 299.43 151.958 299.625 152.422 299.625C152.87 299.625 153.201 299.435 153.414 299.055C153.628 298.669 153.737 298.068 153.742 297.25V294.438ZM157.789 297.203C157.789 295.906 158.096 294.865 158.711 294.078C159.326 293.286 160.13 292.891 161.125 292.891C162.115 292.891 162.898 293.229 163.477 293.906V289.5H164.922V301.5H163.594L163.523 300.594C162.945 301.302 162.141 301.656 161.109 301.656C160.13 301.656 159.331 301.255 158.711 300.453C158.096 299.651 157.789 298.604 157.789 297.312V297.203ZM159.234 297.367C159.234 298.326 159.432 299.076 159.828 299.617C160.224 300.159 160.771 300.43 161.469 300.43C162.385 300.43 163.055 300.018 163.477 299.195V295.312C163.044 294.516 162.38 294.117 161.484 294.117C160.776 294.117 160.224 294.391 159.828 294.938C159.432 295.484 159.234 296.294 159.234 297.367ZM171.773 301.5H170.32V291.867L167.406 292.938V291.625L171.547 290.07H171.773V301.5ZM183.352 290.938L178.641 301.5H177.125L181.82 291.312H175.664V290.125H183.352V290.938ZM184.789 297.203C184.789 295.906 185.096 294.865 185.711 294.078C186.326 293.286 187.13 292.891 188.125 292.891C189.115 292.891 189.898 293.229 190.477 293.906V289.5H191.922V301.5H190.594L190.523 300.594C189.945 301.302 189.141 301.656 188.109 301.656C187.13 301.656 186.331 301.255 185.711 300.453C185.096 299.651 184.789 298.604 184.789 297.312V297.203ZM186.234 297.367C186.234 298.326 186.432 299.076 186.828 299.617C187.224 300.159 187.771 300.43 188.469 300.43C189.385 300.43 190.055 300.018 190.477 299.195V295.312C190.044 294.516 189.38 294.117 188.484 294.117C187.776 294.117 187.224 294.391 186.828 294.938C186.432 295.484 186.234 296.294 186.234 297.367ZM201.328 297.367C201.328 298.659 201.031 299.698 200.438 300.484C199.844 301.266 199.047 301.656 198.047 301.656C196.979 301.656 196.154 301.279 195.57 300.523L195.5 301.5H194.172V289.5H195.617V293.977C196.201 293.253 197.005 292.891 198.031 292.891C199.057 292.891 199.862 293.279 200.445 294.055C201.034 294.831 201.328 295.893 201.328 297.242V297.367ZM199.883 297.203C199.883 296.219 199.693 295.458 199.312 294.922C198.932 294.385 198.385 294.117 197.672 294.117C196.719 294.117 196.034 294.56 195.617 295.445V299.102C196.06 299.987 196.75 300.43 197.688 300.43C198.38 300.43 198.919 300.161 199.305 299.625C199.69 299.089 199.883 298.281 199.883 297.203ZM209.906 293.094C209.906 293.661 209.755 294.167 209.453 294.609C209.156 295.052 208.753 295.398 208.242 295.648C208.836 295.904 209.305 296.276 209.648 296.766C209.997 297.255 210.172 297.81 210.172 298.43C210.172 299.414 209.839 300.198 209.172 300.781C208.51 301.365 207.638 301.656 206.555 301.656C205.461 301.656 204.583 301.365 203.922 300.781C203.266 300.193 202.938 299.409 202.938 298.43C202.938 297.815 203.104 297.26 203.438 296.766C203.776 296.271 204.242 295.896 204.836 295.641C204.331 295.391 203.932 295.044 203.641 294.602C203.349 294.159 203.203 293.656 203.203 293.094C203.203 292.135 203.51 291.375 204.125 290.812C204.74 290.25 205.549 289.969 206.555 289.969C207.555 289.969 208.362 290.25 208.977 290.812C209.596 291.375 209.906 292.135 209.906 293.094ZM208.727 298.398C208.727 297.763 208.523 297.245 208.117 296.844C207.716 296.443 207.19 296.242 206.539 296.242C205.888 296.242 205.365 296.44 204.969 296.836C204.578 297.232 204.383 297.753 204.383 298.398C204.383 299.044 204.573 299.552 204.953 299.922C205.339 300.292 205.872 300.477 206.555 300.477C207.232 300.477 207.763 300.292 208.148 299.922C208.534 299.547 208.727 299.039 208.727 298.398ZM206.555 291.156C205.987 291.156 205.526 291.333 205.172 291.688C204.823 292.036 204.648 292.513 204.648 293.117C204.648 293.695 204.82 294.164 205.164 294.523C205.513 294.878 205.977 295.055 206.555 295.055C207.133 295.055 207.594 294.878 207.938 294.523C208.286 294.164 208.461 293.695 208.461 293.117C208.461 292.539 208.281 292.068 207.922 291.703C207.562 291.339 207.107 291.156 206.555 291.156ZM219.336 290.938L214.625 301.5H213.109L217.805 291.312H211.648V290.125H219.336V290.938ZM228.109 296.648C228.109 298.341 227.82 299.599 227.242 300.422C226.664 301.245 225.76 301.656 224.531 301.656C223.318 301.656 222.419 301.255 221.836 300.453C221.253 299.646 220.951 298.443 220.93 296.844V294.914C220.93 293.242 221.219 292 221.797 291.188C222.375 290.375 223.281 289.969 224.516 289.969C225.74 289.969 226.641 290.362 227.219 291.148C227.797 291.93 228.094 293.138 228.109 294.773V296.648ZM226.664 294.672C226.664 293.448 226.492 292.557 226.148 292C225.805 291.438 225.26 291.156 224.516 291.156C223.776 291.156 223.237 291.435 222.898 291.992C222.56 292.549 222.385 293.406 222.375 294.562V296.875C222.375 298.104 222.552 299.013 222.906 299.602C223.266 300.185 223.807 300.477 224.531 300.477C225.245 300.477 225.773 300.201 226.117 299.648C226.466 299.096 226.648 298.227 226.664 297.039V294.672ZM236.859 293.094C236.859 293.661 236.708 294.167 236.406 294.609C236.109 295.052 235.706 295.398 235.195 295.648C235.789 295.904 236.258 296.276 236.602 296.766C236.951 297.255 237.125 297.81 237.125 298.43C237.125 299.414 236.792 300.198 236.125 300.781C235.464 301.365 234.591 301.656 233.508 301.656C232.414 301.656 231.536 301.365 230.875 300.781C230.219 300.193 229.891 299.409 229.891 298.43C229.891 297.815 230.057 297.26 230.391 296.766C230.729 296.271 231.195 295.896 231.789 295.641C231.284 295.391 230.885 295.044 230.594 294.602C230.302 294.159 230.156 293.656 230.156 293.094C230.156 292.135 230.464 291.375 231.078 290.812C231.693 290.25 232.503 289.969 233.508 289.969C234.508 289.969 235.315 290.25 235.93 290.812C236.549 291.375 236.859 292.135 236.859 293.094ZM235.68 298.398C235.68 297.763 235.477 297.245 235.07 296.844C234.669 296.443 234.143 296.242 233.492 296.242C232.841 296.242 232.318 296.44 231.922 296.836C231.531 297.232 231.336 297.753 231.336 298.398C231.336 299.044 231.526 299.552 231.906 299.922C232.292 300.292 232.826 300.477 233.508 300.477C234.185 300.477 234.716 300.292 235.102 299.922C235.487 299.547 235.68 299.039 235.68 298.398ZM233.508 291.156C232.94 291.156 232.479 291.333 232.125 291.688C231.776 292.036 231.602 292.513 231.602 293.117C231.602 293.695 231.773 294.164 232.117 294.523C232.466 294.878 232.93 295.055 233.508 295.055C234.086 295.055 234.547 294.878 234.891 294.523C235.24 294.164 235.414 293.695 235.414 293.117C235.414 292.539 235.234 292.068 234.875 291.703C234.516 291.339 234.06 291.156 233.508 291.156ZM246.289 290.938L241.578 301.5H240.062L244.758 291.312H238.602V290.125H246.289V290.938ZM254.031 297.68H255.609V298.859H254.031V301.5H252.578V298.859H247.398V298.008L252.492 290.125H254.031V297.68ZM249.039 297.68H252.578V292.102L252.406 292.414L249.039 297.68ZM261.664 301.5H260.211V291.867L257.297 292.938V291.625L261.438 290.07H261.664V301.5ZM266.562 295.797L267.141 290.125H272.969V291.461H268.367L268.023 294.562C268.581 294.234 269.214 294.07 269.922 294.07C270.958 294.07 271.781 294.414 272.391 295.102C273 295.784 273.305 296.708 273.305 297.875C273.305 299.047 272.987 299.971 272.352 300.648C271.721 301.32 270.839 301.656 269.703 301.656C268.698 301.656 267.878 301.378 267.242 300.82C266.607 300.263 266.245 299.492 266.156 298.508H267.523C267.612 299.159 267.844 299.651 268.219 299.984C268.594 300.312 269.089 300.477 269.703 300.477C270.375 300.477 270.901 300.247 271.281 299.789C271.667 299.331 271.859 298.698 271.859 297.891C271.859 297.13 271.651 296.521 271.234 296.062C270.823 295.599 270.273 295.367 269.586 295.367C268.956 295.367 268.461 295.505 268.102 295.781L267.719 296.094L266.562 295.797ZM281.781 293.094C281.781 293.661 281.63 294.167 281.328 294.609C281.031 295.052 280.628 295.398 280.117 295.648C280.711 295.904 281.18 296.276 281.523 296.766C281.872 297.255 282.047 297.81 282.047 298.43C282.047 299.414 281.714 300.198 281.047 300.781C280.385 301.365 279.513 301.656 278.43 301.656C277.336 301.656 276.458 301.365 275.797 300.781C275.141 300.193 274.812 299.409 274.812 298.43C274.812 297.815 274.979 297.26 275.312 296.766C275.651 296.271 276.117 295.896 276.711 295.641C276.206 295.391 275.807 295.044 275.516 294.602C275.224 294.159 275.078 293.656 275.078 293.094C275.078 292.135 275.385 291.375 276 290.812C276.615 290.25 277.424 289.969 278.43 289.969C279.43 289.969 280.237 290.25 280.852 290.812C281.471 291.375 281.781 292.135 281.781 293.094ZM280.602 298.398C280.602 297.763 280.398 297.245 279.992 296.844C279.591 296.443 279.065 296.242 278.414 296.242C277.763 296.242 277.24 296.44 276.844 296.836C276.453 297.232 276.258 297.753 276.258 298.398C276.258 299.044 276.448 299.552 276.828 299.922C277.214 300.292 277.747 300.477 278.43 300.477C279.107 300.477 279.638 300.292 280.023 299.922C280.409 299.547 280.602 299.039 280.602 298.398ZM278.43 291.156C277.862 291.156 277.401 291.333 277.047 291.688C276.698 292.036 276.523 292.513 276.523 293.117C276.523 293.695 276.695 294.164 277.039 294.523C277.388 294.878 277.852 295.055 278.43 295.055C279.008 295.055 279.469 294.878 279.812 294.523C280.161 294.164 280.336 293.695 280.336 293.117C280.336 292.539 280.156 292.068 279.797 291.703C279.438 291.339 278.982 291.156 278.43 291.156ZM284.727 301.5V294.164H283.391V293.047H284.727V292.18C284.727 291.273 284.969 290.573 285.453 290.078C285.938 289.583 286.622 289.336 287.508 289.336C287.841 289.336 288.172 289.38 288.5 289.469L288.422 290.641C288.177 290.594 287.917 290.57 287.641 290.57C287.172 290.57 286.81 290.708 286.555 290.984C286.299 291.255 286.172 291.646 286.172 292.156V293.047H287.977V294.164H286.172V301.5H284.727ZM294.969 296.5C294.667 296.859 294.305 297.148 293.883 297.367C293.466 297.586 293.008 297.695 292.508 297.695C291.852 297.695 291.279 297.534 290.789 297.211C290.305 296.888 289.93 296.435 289.664 295.852C289.398 295.263 289.266 294.615 289.266 293.906C289.266 293.146 289.409 292.461 289.695 291.852C289.987 291.242 290.398 290.776 290.93 290.453C291.461 290.13 292.081 289.969 292.789 289.969C293.914 289.969 294.799 290.391 295.445 291.234C296.096 292.073 296.422 293.219 296.422 294.672V295.094C296.422 297.307 295.984 298.924 295.109 299.945C294.234 300.961 292.914 301.482 291.148 301.508H290.867V300.289H291.172C292.365 300.268 293.281 299.958 293.922 299.359C294.562 298.755 294.911 297.802 294.969 296.5ZM292.742 296.5C293.227 296.5 293.672 296.352 294.078 296.055C294.49 295.758 294.789 295.391 294.977 294.953V294.375C294.977 293.427 294.771 292.656 294.359 292.062C293.948 291.469 293.427 291.172 292.797 291.172C292.161 291.172 291.651 291.417 291.266 291.906C290.88 292.391 290.688 293.031 290.688 293.828C290.688 294.604 290.872 295.245 291.242 295.75C291.617 296.25 292.117 296.5 292.742 296.5ZM304.516 297.68H306.094V298.859H304.516V301.5H303.062V298.859H297.883V298.008L302.977 290.125H304.516V297.68ZM299.523 297.68H303.062V292.102L302.891 292.414L299.523 297.68ZM308.062 295.797L308.641 290.125H314.469V291.461H309.867L309.523 294.562C310.081 294.234 310.714 294.07 311.422 294.07C312.458 294.07 313.281 294.414 313.891 295.102C314.5 295.784 314.805 296.708 314.805 297.875C314.805 299.047 314.487 299.971 313.852 300.648C313.221 301.32 312.339 301.656 311.203 301.656C310.198 301.656 309.378 301.378 308.742 300.82C308.107 300.263 307.745 299.492 307.656 298.508H309.023C309.112 299.159 309.344 299.651 309.719 299.984C310.094 300.312 310.589 300.477 311.203 300.477C311.875 300.477 312.401 300.247 312.781 299.789C313.167 299.331 313.359 298.698 313.359 297.891C313.359 297.13 313.151 296.521 312.734 296.062C312.323 295.599 311.773 295.367 311.086 295.367C310.456 295.367 309.961 295.505 309.602 295.781L309.219 296.094L308.062 295.797ZM323.688 297.367C323.688 298.659 323.391 299.698 322.797 300.484C322.203 301.266 321.406 301.656 320.406 301.656C319.339 301.656 318.513 301.279 317.93 300.523L317.859 301.5H316.531V289.5H317.977V293.977C318.56 293.253 319.365 292.891 320.391 292.891C321.417 292.891 322.221 293.279 322.805 294.055C323.393 294.831 323.688 295.893 323.688 297.242V297.367ZM322.242 297.203C322.242 296.219 322.052 295.458 321.672 294.922C321.292 294.385 320.745 294.117 320.031 294.117C319.078 294.117 318.393 294.56 317.977 295.445V299.102C318.419 299.987 319.109 300.43 320.047 300.43C320.74 300.43 321.279 300.161 321.664 299.625C322.049 299.089 322.242 298.281 322.242 297.203ZM330.906 296.5C330.604 296.859 330.242 297.148 329.82 297.367C329.404 297.586 328.945 297.695 328.445 297.695C327.789 297.695 327.216 297.534 326.727 297.211C326.242 296.888 325.867 296.435 325.602 295.852C325.336 295.263 325.203 294.615 325.203 293.906C325.203 293.146 325.346 292.461 325.633 291.852C325.924 291.242 326.336 290.776 326.867 290.453C327.398 290.13 328.018 289.969 328.727 289.969C329.852 289.969 330.737 290.391 331.383 291.234C332.034 292.073 332.359 293.219 332.359 294.672V295.094C332.359 297.307 331.922 298.924 331.047 299.945C330.172 300.961 328.852 301.482 327.086 301.508H326.805V300.289H327.109C328.302 300.268 329.219 299.958 329.859 299.359C330.5 298.755 330.849 297.802 330.906 296.5ZM328.68 296.5C329.164 296.5 329.609 296.352 330.016 296.055C330.427 295.758 330.727 295.391 330.914 294.953V294.375C330.914 293.427 330.708 292.656 330.297 292.062C329.885 291.469 329.365 291.172 328.734 291.172C328.099 291.172 327.589 291.417 327.203 291.906C326.818 292.391 326.625 293.031 326.625 293.828C326.625 294.604 326.81 295.245 327.18 295.75C327.555 296.25 328.055 296.5 328.68 296.5ZM339.719 301.5C339.635 301.333 339.568 301.036 339.516 300.609C338.844 301.307 338.042 301.656 337.109 301.656C336.276 301.656 335.591 301.422 335.055 300.953C334.523 300.479 334.258 299.88 334.258 299.156C334.258 298.276 334.591 297.594 335.258 297.109C335.93 296.62 336.872 296.375 338.086 296.375H339.492V295.711C339.492 295.206 339.341 294.805 339.039 294.508C338.737 294.206 338.292 294.055 337.703 294.055C337.188 294.055 336.755 294.185 336.406 294.445C336.057 294.706 335.883 295.021 335.883 295.391H334.43C334.43 294.969 334.578 294.562 334.875 294.172C335.177 293.776 335.583 293.464 336.094 293.234C336.609 293.005 337.174 292.891 337.789 292.891C338.763 292.891 339.526 293.135 340.078 293.625C340.63 294.109 340.917 294.779 340.938 295.633V299.523C340.938 300.299 341.036 300.917 341.234 301.375V301.5H339.719ZM337.32 300.398C337.773 300.398 338.203 300.281 338.609 300.047C339.016 299.812 339.31 299.508 339.492 299.133V297.398H338.359C336.589 297.398 335.703 297.917 335.703 298.953C335.703 299.406 335.854 299.76 336.156 300.016C336.458 300.271 336.846 300.398 337.32 300.398ZM347.805 301.5H346.352V291.867L343.438 292.938V291.625L347.578 290.07H347.805V301.5ZM352.219 300.742C352.219 300.492 352.292 300.284 352.438 300.117C352.589 299.951 352.812 299.867 353.109 299.867C353.406 299.867 353.63 299.951 353.781 300.117C353.938 300.284 354.016 300.492 354.016 300.742C354.016 300.982 353.938 301.182 353.781 301.344C353.63 301.505 353.406 301.586 353.109 301.586C352.812 301.586 352.589 301.505 352.438 301.344C352.292 301.182 352.219 300.982 352.219 300.742ZM356.438 300.742C356.438 300.492 356.51 300.284 356.656 300.117C356.807 299.951 357.031 299.867 357.328 299.867C357.625 299.867 357.849 299.951 358 300.117C358.156 300.284 358.234 300.492 358.234 300.742C358.234 300.982 358.156 301.182 358 301.344C357.849 301.505 357.625 301.586 357.328 301.586C357.031 301.586 356.807 301.505 356.656 301.344C356.51 301.182 356.438 300.982 356.438 300.742ZM360.656 300.742C360.656 300.492 360.729 300.284 360.875 300.117C361.026 299.951 361.25 299.867 361.547 299.867C361.844 299.867 362.068 299.951 362.219 300.117C362.375 300.284 362.453 300.492 362.453 300.742C362.453 300.982 362.375 301.182 362.219 301.344C362.068 301.505 361.844 301.586 361.547 301.586C361.25 301.586 361.026 301.505 360.875 301.344C360.729 301.182 360.656 300.982 360.656 300.742Z" fill="#65BF73"/>
<path d="M109 276.5H108.5V277V315V315.5H109H375C379.694 315.5 383.5 311.694 383.5 307V285C383.5 280.306 379.694 276.5 375 276.5H109Z" stroke="#2097F6"/>
<path d="M50.1172 351.5H48.6094V346.242H42.875V351.5H41.375V340.125H42.875V345.016H48.6094V340.125H50.1172V351.5ZM59.2031 348.531H54.4375L53.3672 351.5H51.8203L56.1641 340.125H57.4766L61.8281 351.5H60.2891L59.2031 348.531ZM54.8906 347.297H58.7578L56.8203 341.977L54.8906 347.297ZM66.7109 346.43C65.4245 346.06 64.487 345.607 63.8984 345.07C63.3151 344.529 63.0234 343.862 63.0234 343.07C63.0234 342.174 63.3802 341.435 64.0938 340.852C64.8125 340.263 65.7448 339.969 66.8906 339.969C67.6719 339.969 68.3672 340.12 68.9766 340.422C69.5911 340.724 70.0651 341.141 70.3984 341.672C70.737 342.203 70.9062 342.784 70.9062 343.414H69.3984C69.3984 342.727 69.1797 342.188 68.7422 341.797C68.3047 341.401 67.6875 341.203 66.8906 341.203C66.151 341.203 65.5729 341.367 65.1562 341.695C64.7448 342.018 64.5391 342.469 64.5391 343.047C64.5391 343.51 64.7344 343.904 65.125 344.227C65.5208 344.544 66.1901 344.836 67.1328 345.102C68.0807 345.367 68.8203 345.661 69.3516 345.984C69.888 346.302 70.2839 346.674 70.5391 347.102C70.7995 347.529 70.9297 348.031 70.9297 348.609C70.9297 349.531 70.5703 350.271 69.8516 350.828C69.1328 351.38 68.1719 351.656 66.9688 351.656C66.1875 351.656 65.4583 351.508 64.7812 351.211C64.1042 350.909 63.5807 350.497 63.2109 349.977C62.8464 349.456 62.6641 348.865 62.6641 348.203H64.1719C64.1719 348.891 64.4245 349.435 64.9297 349.836C65.4401 350.232 66.1198 350.43 66.9688 350.43C67.7604 350.43 68.3672 350.268 68.7891 349.945C69.2109 349.622 69.4219 349.182 69.4219 348.625C69.4219 348.068 69.2266 347.638 68.8359 347.336C68.4453 347.029 67.737 346.727 66.7109 346.43ZM81.6016 351.5H80.0938V346.242H74.3594V351.5H72.8594V340.125H74.3594V345.016H80.0938V340.125H81.6016V351.5Z" fill="#2097F6"/>
<path d="M137.883 346.852C137.883 348.388 137.536 349.573 136.844 350.406C136.156 351.24 135.185 351.656 133.93 351.656C132.664 351.656 131.685 351.237 130.992 350.398C130.299 349.56 129.953 348.378 129.953 346.852V344.773C129.953 343.237 130.297 342.052 130.984 341.219C131.677 340.385 132.654 339.969 133.914 339.969C135.174 339.969 136.151 340.388 136.844 341.227C137.536 342.065 137.883 343.25 137.883 344.781V346.852ZM135.25 344.438C135.25 343.62 135.143 343.01 134.93 342.609C134.716 342.203 134.378 342 133.914 342C133.461 342 133.13 342.188 132.922 342.562C132.719 342.938 132.609 343.505 132.594 344.266V347.172C132.594 348.021 132.701 348.643 132.914 349.039C133.128 349.43 133.466 349.625 133.93 349.625C134.378 349.625 134.708 349.435 134.922 349.055C135.135 348.669 135.245 348.068 135.25 347.25V344.438ZM147.148 346.852C147.148 348.388 146.802 349.573 146.109 350.406C145.422 351.24 144.451 351.656 143.195 351.656C141.93 351.656 140.951 351.237 140.258 350.398C139.565 349.56 139.219 348.378 139.219 346.852V344.773C139.219 343.237 139.562 342.052 140.25 341.219C140.943 340.385 141.919 339.969 143.18 339.969C144.44 339.969 145.417 340.388 146.109 341.227C146.802 342.065 147.148 343.25 147.148 344.781V346.852ZM144.516 344.438C144.516 343.62 144.409 343.01 144.195 342.609C143.982 342.203 143.643 342 143.18 342C142.727 342 142.396 342.188 142.188 342.562C141.984 342.938 141.875 343.505 141.859 344.266V347.172C141.859 348.021 141.966 348.643 142.18 349.039C142.393 349.43 142.732 349.625 143.195 349.625C143.643 349.625 143.974 349.435 144.188 349.055C144.401 348.669 144.51 348.068 144.516 347.25V344.438ZM156.414 346.852C156.414 348.388 156.068 349.573 155.375 350.406C154.688 351.24 153.716 351.656 152.461 351.656C151.195 351.656 150.216 351.237 149.523 350.398C148.831 349.56 148.484 348.378 148.484 346.852V344.773C148.484 343.237 148.828 342.052 149.516 341.219C150.208 340.385 151.185 339.969 152.445 339.969C153.706 339.969 154.682 340.388 155.375 341.227C156.068 342.065 156.414 343.25 156.414 344.781V346.852ZM153.781 344.438C153.781 343.62 153.674 343.01 153.461 342.609C153.247 342.203 152.909 342 152.445 342C151.992 342 151.661 342.188 151.453 342.562C151.25 342.938 151.141 343.505 151.125 344.266V347.172C151.125 348.021 151.232 348.643 151.445 349.039C151.659 349.43 151.997 349.625 152.461 349.625C152.909 349.625 153.24 349.435 153.453 349.055C153.667 348.669 153.776 348.068 153.781 347.25V344.438ZM157.828 347.203C157.828 345.906 158.135 344.865 158.75 344.078C159.365 343.286 160.169 342.891 161.164 342.891C162.154 342.891 162.938 343.229 163.516 343.906V339.5H164.961V351.5H163.633L163.562 350.594C162.984 351.302 162.18 351.656 161.148 351.656C160.169 351.656 159.37 351.255 158.75 350.453C158.135 349.651 157.828 348.604 157.828 347.312V347.203ZM159.273 347.367C159.273 348.326 159.471 349.076 159.867 349.617C160.263 350.159 160.81 350.43 161.508 350.43C162.424 350.43 163.094 350.018 163.516 349.195V345.312C163.083 344.516 162.419 344.117 161.523 344.117C160.815 344.117 160.263 344.391 159.867 344.938C159.471 345.484 159.273 346.294 159.273 347.367ZM172.43 351.5C172.346 351.333 172.279 351.036 172.227 350.609C171.555 351.307 170.753 351.656 169.82 351.656C168.987 351.656 168.302 351.422 167.766 350.953C167.234 350.479 166.969 349.88 166.969 349.156C166.969 348.276 167.302 347.594 167.969 347.109C168.641 346.62 169.583 346.375 170.797 346.375H172.203V345.711C172.203 345.206 172.052 344.805 171.75 344.508C171.448 344.206 171.003 344.055 170.414 344.055C169.898 344.055 169.466 344.185 169.117 344.445C168.768 344.706 168.594 345.021 168.594 345.391H167.141C167.141 344.969 167.289 344.562 167.586 344.172C167.888 343.776 168.294 343.464 168.805 343.234C169.32 343.005 169.885 342.891 170.5 342.891C171.474 342.891 172.237 343.135 172.789 343.625C173.341 344.109 173.628 344.779 173.648 345.633V349.523C173.648 350.299 173.747 350.917 173.945 351.375V351.5H172.43ZM170.031 350.398C170.484 350.398 170.914 350.281 171.32 350.047C171.727 349.812 172.021 349.508 172.203 349.133V347.398H171.07C169.299 347.398 168.414 347.917 168.414 348.953C168.414 349.406 168.565 349.76 168.867 350.016C169.169 350.271 169.557 350.398 170.031 350.398ZM176.625 351.5V344.164H175.289V343.047H176.625V342.18C176.625 341.273 176.867 340.573 177.352 340.078C177.836 339.583 178.521 339.336 179.406 339.336C179.74 339.336 180.07 339.38 180.398 339.469L180.32 340.641C180.076 340.594 179.815 340.57 179.539 340.57C179.07 340.57 178.708 340.708 178.453 340.984C178.198 341.255 178.07 341.646 178.07 342.156V343.047H179.875V344.164H178.07V351.5H176.625ZM188.781 351.5H181.328V350.461L185.266 346.086C185.849 345.424 186.25 344.888 186.469 344.477C186.693 344.06 186.805 343.63 186.805 343.188C186.805 342.594 186.625 342.107 186.266 341.727C185.906 341.346 185.427 341.156 184.828 341.156C184.109 341.156 183.549 341.362 183.148 341.773C182.753 342.18 182.555 342.747 182.555 343.477H181.109C181.109 342.43 181.445 341.583 182.117 340.938C182.794 340.292 183.698 339.969 184.828 339.969C185.885 339.969 186.721 340.247 187.336 340.805C187.951 341.357 188.258 342.094 188.258 343.016C188.258 344.135 187.544 345.469 186.117 347.016L183.07 350.32H188.781V351.5ZM197.211 343.094C197.211 343.661 197.06 344.167 196.758 344.609C196.461 345.052 196.057 345.398 195.547 345.648C196.141 345.904 196.609 346.276 196.953 346.766C197.302 347.255 197.477 347.81 197.477 348.43C197.477 349.414 197.143 350.198 196.477 350.781C195.815 351.365 194.943 351.656 193.859 351.656C192.766 351.656 191.888 351.365 191.227 350.781C190.57 350.193 190.242 349.409 190.242 348.43C190.242 347.815 190.409 347.26 190.742 346.766C191.081 346.271 191.547 345.896 192.141 345.641C191.635 345.391 191.237 345.044 190.945 344.602C190.654 344.159 190.508 343.656 190.508 343.094C190.508 342.135 190.815 341.375 191.43 340.812C192.044 340.25 192.854 339.969 193.859 339.969C194.859 339.969 195.667 340.25 196.281 340.812C196.901 341.375 197.211 342.135 197.211 343.094ZM196.031 348.398C196.031 347.763 195.828 347.245 195.422 346.844C195.021 346.443 194.495 346.242 193.844 346.242C193.193 346.242 192.669 346.44 192.273 346.836C191.883 347.232 191.688 347.753 191.688 348.398C191.688 349.044 191.878 349.552 192.258 349.922C192.643 350.292 193.177 350.477 193.859 350.477C194.536 350.477 195.068 350.292 195.453 349.922C195.839 349.547 196.031 349.039 196.031 348.398ZM193.859 341.156C193.292 341.156 192.831 341.333 192.477 341.688C192.128 342.036 191.953 342.513 191.953 343.117C191.953 343.695 192.125 344.164 192.469 344.523C192.818 344.878 193.281 345.055 193.859 345.055C194.438 345.055 194.898 344.878 195.242 344.523C195.591 344.164 195.766 343.695 195.766 343.117C195.766 342.539 195.586 342.068 195.227 341.703C194.867 341.339 194.411 341.156 193.859 341.156ZM199.094 347.203C199.094 345.906 199.401 344.865 200.016 344.078C200.63 343.286 201.435 342.891 202.43 342.891C203.419 342.891 204.203 343.229 204.781 343.906V339.5H206.227V351.5H204.898L204.828 350.594C204.25 351.302 203.445 351.656 202.414 351.656C201.435 351.656 200.635 351.255 200.016 350.453C199.401 349.651 199.094 348.604 199.094 347.312V347.203ZM200.539 347.367C200.539 348.326 200.737 349.076 201.133 349.617C201.529 350.159 202.076 350.43 202.773 350.43C203.69 350.43 204.359 350.018 204.781 349.195V345.312C204.349 344.516 203.685 344.117 202.789 344.117C202.081 344.117 201.529 344.391 201.133 344.938C200.737 345.484 200.539 346.294 200.539 347.367ZM215.633 347.367C215.633 348.659 215.336 349.698 214.742 350.484C214.148 351.266 213.352 351.656 212.352 351.656C211.284 351.656 210.458 351.279 209.875 350.523L209.805 351.5H208.477V339.5H209.922V343.977C210.505 343.253 211.31 342.891 212.336 342.891C213.362 342.891 214.167 343.279 214.75 344.055C215.339 344.831 215.633 345.893 215.633 347.242V347.367ZM214.188 347.203C214.188 346.219 213.997 345.458 213.617 344.922C213.237 344.385 212.69 344.117 211.977 344.117C211.023 344.117 210.339 344.56 209.922 345.445V349.102C210.365 349.987 211.055 350.43 211.992 350.43C212.685 350.43 213.224 350.161 213.609 349.625C213.995 349.089 214.188 348.281 214.188 347.203ZM222.852 346.5C222.549 346.859 222.188 347.148 221.766 347.367C221.349 347.586 220.891 347.695 220.391 347.695C219.734 347.695 219.161 347.534 218.672 347.211C218.188 346.888 217.812 346.435 217.547 345.852C217.281 345.263 217.148 344.615 217.148 343.906C217.148 343.146 217.292 342.461 217.578 341.852C217.87 341.242 218.281 340.776 218.812 340.453C219.344 340.13 219.964 339.969 220.672 339.969C221.797 339.969 222.682 340.391 223.328 341.234C223.979 342.073 224.305 343.219 224.305 344.672V345.094C224.305 347.307 223.867 348.924 222.992 349.945C222.117 350.961 220.797 351.482 219.031 351.508H218.75V350.289H219.055C220.247 350.268 221.164 349.958 221.805 349.359C222.445 348.755 222.794 347.802 222.852 346.5ZM220.625 346.5C221.109 346.5 221.555 346.352 221.961 346.055C222.372 345.758 222.672 345.391 222.859 344.953V344.375C222.859 343.427 222.654 342.656 222.242 342.062C221.831 341.469 221.31 341.172 220.68 341.172C220.044 341.172 219.534 341.417 219.148 341.906C218.763 342.391 218.57 343.031 218.57 343.828C218.57 344.604 218.755 345.245 219.125 345.75C219.5 346.25 220 346.5 220.625 346.5ZM233.641 340.938L228.93 351.5H227.414L232.109 341.312H225.953V340.125H233.641V340.938ZM235.078 347.203C235.078 345.906 235.385 344.865 236 344.078C236.615 343.286 237.419 342.891 238.414 342.891C239.404 342.891 240.188 343.229 240.766 343.906V339.5H242.211V351.5H240.883L240.812 350.594C240.234 351.302 239.43 351.656 238.398 351.656C237.419 351.656 236.62 351.255 236 350.453C235.385 349.651 235.078 348.604 235.078 347.312V347.203ZM236.523 347.367C236.523 348.326 236.721 349.076 237.117 349.617C237.513 350.159 238.06 350.43 238.758 350.43C239.674 350.43 240.344 350.018 240.766 349.195V345.312C240.333 344.516 239.669 344.117 238.773 344.117C238.065 344.117 237.513 344.391 237.117 344.938C236.721 345.484 236.523 346.294 236.523 347.367ZM245.172 351.5V344.164H243.836V343.047H245.172V342.18C245.172 341.273 245.414 340.573 245.898 340.078C246.383 339.583 247.068 339.336 247.953 339.336C248.286 339.336 248.617 339.38 248.945 339.469L248.867 340.641C248.622 340.594 248.362 340.57 248.086 340.57C247.617 340.57 247.255 340.708 247 340.984C246.745 341.255 246.617 341.646 246.617 342.156V343.047H248.422V344.164H246.617V351.5H245.172ZM257.008 346.648C257.008 348.341 256.719 349.599 256.141 350.422C255.562 351.245 254.659 351.656 253.43 351.656C252.216 351.656 251.318 351.255 250.734 350.453C250.151 349.646 249.849 348.443 249.828 346.844V344.914C249.828 343.242 250.117 342 250.695 341.188C251.273 340.375 252.18 339.969 253.414 339.969C254.638 339.969 255.539 340.362 256.117 341.148C256.695 341.93 256.992 343.138 257.008 344.773V346.648ZM255.562 344.672C255.562 343.448 255.391 342.557 255.047 342C254.703 341.438 254.159 341.156 253.414 341.156C252.674 341.156 252.135 341.435 251.797 341.992C251.458 342.549 251.284 343.406 251.273 344.562V346.875C251.273 348.104 251.451 349.013 251.805 349.602C252.164 350.185 252.706 350.477 253.43 350.477C254.143 350.477 254.672 350.201 255.016 349.648C255.365 349.096 255.547 348.227 255.562 347.039V344.672ZM258.656 347.203C258.656 345.906 258.964 344.865 259.578 344.078C260.193 343.286 260.997 342.891 261.992 342.891C262.982 342.891 263.766 343.229 264.344 343.906V339.5H265.789V351.5H264.461L264.391 350.594C263.812 351.302 263.008 351.656 261.977 351.656C260.997 351.656 260.198 351.255 259.578 350.453C258.964 349.651 258.656 348.604 258.656 347.312V347.203ZM260.102 347.367C260.102 348.326 260.299 349.076 260.695 349.617C261.091 350.159 261.638 350.43 262.336 350.43C263.253 350.43 263.922 350.018 264.344 349.195V345.312C263.911 344.516 263.247 344.117 262.352 344.117C261.643 344.117 261.091 344.391 260.695 344.938C260.299 345.484 260.102 346.294 260.102 347.367ZM275.195 347.367C275.195 348.659 274.898 349.698 274.305 350.484C273.711 351.266 272.914 351.656 271.914 351.656C270.846 351.656 270.021 351.279 269.438 350.523L269.367 351.5H268.039V339.5H269.484V343.977C270.068 343.253 270.872 342.891 271.898 342.891C272.924 342.891 273.729 343.279 274.312 344.055C274.901 344.831 275.195 345.893 275.195 347.242V347.367ZM273.75 347.203C273.75 346.219 273.56 345.458 273.18 344.922C272.799 344.385 272.253 344.117 271.539 344.117C270.586 344.117 269.901 344.56 269.484 345.445V349.102C269.927 349.987 270.617 350.43 271.555 350.43C272.247 350.43 272.786 350.161 273.172 349.625C273.557 349.089 273.75 348.281 273.75 347.203ZM284.18 347.367C284.18 348.659 283.883 349.698 283.289 350.484C282.695 351.266 281.898 351.656 280.898 351.656C279.831 351.656 279.005 351.279 278.422 350.523L278.352 351.5H277.023V339.5H278.469V343.977C279.052 343.253 279.857 342.891 280.883 342.891C281.909 342.891 282.714 343.279 283.297 344.055C283.885 344.831 284.18 345.893 284.18 347.242V347.367ZM282.734 347.203C282.734 346.219 282.544 345.458 282.164 344.922C281.784 344.385 281.237 344.117 280.523 344.117C279.57 344.117 278.885 344.56 278.469 345.445V349.102C278.911 349.987 279.602 350.43 280.539 350.43C281.232 350.43 281.771 350.161 282.156 349.625C282.542 349.089 282.734 348.281 282.734 347.203ZM285.656 347.203C285.656 345.906 285.964 344.865 286.578 344.078C287.193 343.286 287.997 342.891 288.992 342.891C289.982 342.891 290.766 343.229 291.344 343.906V339.5H292.789V351.5H291.461L291.391 350.594C290.812 351.302 290.008 351.656 288.977 351.656C287.997 351.656 287.198 351.255 286.578 350.453C285.964 349.651 285.656 348.604 285.656 347.312V347.203ZM287.102 347.367C287.102 348.326 287.299 349.076 287.695 349.617C288.091 350.159 288.638 350.43 289.336 350.43C290.253 350.43 290.922 350.018 291.344 349.195V345.312C290.911 344.516 290.247 344.117 289.352 344.117C288.643 344.117 288.091 344.391 287.695 344.938C287.299 345.484 287.102 346.294 287.102 347.367ZM299.641 351.5H298.188V341.867L295.273 342.938V341.625L299.414 340.07H299.641V351.5ZM303.672 347.203C303.672 345.906 303.979 344.865 304.594 344.078C305.208 343.286 306.013 342.891 307.008 342.891C307.997 342.891 308.781 343.229 309.359 343.906V339.5H310.805V351.5H309.477L309.406 350.594C308.828 351.302 308.023 351.656 306.992 351.656C306.013 351.656 305.214 351.255 304.594 350.453C303.979 349.651 303.672 348.604 303.672 347.312V347.203ZM305.117 347.367C305.117 348.326 305.315 349.076 305.711 349.617C306.107 350.159 306.654 350.43 307.352 350.43C308.268 350.43 308.938 350.018 309.359 349.195V345.312C308.927 344.516 308.263 344.117 307.367 344.117C306.659 344.117 306.107 344.391 305.711 344.938C305.315 345.484 305.117 346.294 305.117 347.367ZM315.008 345.109H316.094C316.776 345.099 317.312 344.919 317.703 344.57C318.094 344.221 318.289 343.75 318.289 343.156C318.289 341.823 317.625 341.156 316.297 341.156C315.672 341.156 315.172 341.336 314.797 341.695C314.427 342.049 314.242 342.521 314.242 343.109H312.797C312.797 342.208 313.125 341.461 313.781 340.867C314.443 340.268 315.281 339.969 316.297 339.969C317.37 339.969 318.211 340.253 318.82 340.82C319.43 341.388 319.734 342.177 319.734 343.188C319.734 343.682 319.573 344.161 319.25 344.625C318.932 345.089 318.497 345.435 317.945 345.664C318.57 345.862 319.052 346.19 319.391 346.648C319.734 347.107 319.906 347.667 319.906 348.328C319.906 349.349 319.573 350.159 318.906 350.758C318.24 351.357 317.372 351.656 316.305 351.656C315.237 351.656 314.367 351.367 313.695 350.789C313.029 350.211 312.695 349.448 312.695 348.5H314.148C314.148 349.099 314.344 349.578 314.734 349.938C315.125 350.297 315.648 350.477 316.305 350.477C317.003 350.477 317.536 350.294 317.906 349.93C318.276 349.565 318.461 349.042 318.461 348.359C318.461 347.698 318.258 347.19 317.852 346.836C317.445 346.482 316.859 346.299 316.094 346.289H315.008V345.109ZM321.688 347.203C321.688 345.906 321.995 344.865 322.609 344.078C323.224 343.286 324.029 342.891 325.023 342.891C326.013 342.891 326.797 343.229 327.375 343.906V339.5H328.82V351.5H327.492L327.422 350.594C326.844 351.302 326.039 351.656 325.008 351.656C324.029 351.656 323.229 351.255 322.609 350.453C321.995 349.651 321.688 348.604 321.688 347.312V347.203ZM323.133 347.367C323.133 348.326 323.331 349.076 323.727 349.617C324.122 350.159 324.669 350.43 325.367 350.43C326.284 350.43 326.953 350.018 327.375 349.195V345.312C326.943 344.516 326.279 344.117 325.383 344.117C324.674 344.117 324.122 344.391 323.727 344.938C323.331 345.484 323.133 346.294 323.133 347.367ZM334.461 350.477C334.977 350.477 335.427 350.32 335.812 350.008C336.198 349.695 336.411 349.305 336.453 348.836H337.82C337.794 349.32 337.628 349.781 337.32 350.219C337.013 350.656 336.602 351.005 336.086 351.266C335.576 351.526 335.034 351.656 334.461 351.656C333.31 351.656 332.393 351.273 331.711 350.508C331.034 349.737 330.695 348.685 330.695 347.352V347.109C330.695 346.286 330.846 345.555 331.148 344.914C331.451 344.273 331.883 343.776 332.445 343.422C333.013 343.068 333.682 342.891 334.453 342.891C335.401 342.891 336.188 343.174 336.812 343.742C337.443 344.31 337.779 345.047 337.82 345.953H336.453C336.411 345.406 336.203 344.958 335.828 344.609C335.458 344.255 335 344.078 334.453 344.078C333.719 344.078 333.148 344.344 332.742 344.875C332.341 345.401 332.141 346.164 332.141 347.164V347.438C332.141 348.411 332.341 349.161 332.742 349.688C333.143 350.214 333.716 350.477 334.461 350.477ZM344.664 351.5C344.581 351.333 344.513 351.036 344.461 350.609C343.789 351.307 342.987 351.656 342.055 351.656C341.221 351.656 340.536 351.422 340 350.953C339.469 350.479 339.203 349.88 339.203 349.156C339.203 348.276 339.536 347.594 340.203 347.109C340.875 346.62 341.818 346.375 343.031 346.375H344.438V345.711C344.438 345.206 344.286 344.805 343.984 344.508C343.682 344.206 343.237 344.055 342.648 344.055C342.133 344.055 341.701 344.185 341.352 344.445C341.003 344.706 340.828 345.021 340.828 345.391H339.375C339.375 344.969 339.523 344.562 339.82 344.172C340.122 343.776 340.529 343.464 341.039 343.234C341.555 343.005 342.12 342.891 342.734 342.891C343.708 342.891 344.471 343.135 345.023 343.625C345.576 344.109 345.862 344.779 345.883 345.633V349.523C345.883 350.299 345.982 350.917 346.18 351.375V351.5H344.664ZM342.266 350.398C342.719 350.398 343.148 350.281 343.555 350.047C343.961 349.812 344.255 349.508 344.438 349.133V347.398H343.305C341.534 347.398 340.648 347.917 340.648 348.953C340.648 349.406 340.799 349.76 341.102 350.016C341.404 350.271 341.792 350.398 342.266 350.398ZM348.18 350.742C348.18 350.492 348.253 350.284 348.398 350.117C348.549 349.951 348.773 349.867 349.07 349.867C349.367 349.867 349.591 349.951 349.742 350.117C349.898 350.284 349.977 350.492 349.977 350.742C349.977 350.982 349.898 351.182 349.742 351.344C349.591 351.505 349.367 351.586 349.07 351.586C348.773 351.586 348.549 351.505 348.398 351.344C348.253 351.182 348.18 350.982 348.18 350.742ZM352.398 350.742C352.398 350.492 352.471 350.284 352.617 350.117C352.768 349.951 352.992 349.867 353.289 349.867C353.586 349.867 353.81 349.951 353.961 350.117C354.117 350.284 354.195 350.492 354.195 350.742C354.195 350.982 354.117 351.182 353.961 351.344C353.81 351.505 353.586 351.586 353.289 351.586C352.992 351.586 352.768 351.505 352.617 351.344C352.471 351.182 352.398 350.982 352.398 350.742ZM356.617 350.742C356.617 350.492 356.69 350.284 356.836 350.117C356.987 349.951 357.211 349.867 357.508 349.867C357.805 349.867 358.029 349.951 358.18 350.117C358.336 350.284 358.414 350.492 358.414 350.742C358.414 350.982 358.336 351.182 358.18 351.344C358.029 351.505 357.805 351.586 357.508 351.586C357.211 351.586 356.987 351.505 356.836 351.344C356.69 351.182 356.617 350.982 356.617 350.742Z" fill="#65BF73"/>
<rect x="0.5" y="0.5" width="399" height="385" rx="7.5" stroke="#2097F6"/>
</g>
<defs>
<filter id="filter0_d" x="0" y="0" width="404" height="390" filterUnits="userSpaceOnUse" color-interpolation-filters="sRGB">
<feFlood flood-opacity="0" result="BackgroundImageFix"/>
<feColorMatrix in="SourceAlpha" type="matrix" values="0 0 0 0 0 0 0 0 0 0 0 0 0 0 0 0 0 0 127 0"/>
<feOffset dx="4" dy="4"/>
<feColorMatrix type="matrix" values="0 0 0 0 0.513733 0 0 0 0 0.767915 0 0 0 0 0.970833 0 0 0 1 0"/>
<feBlend mode="normal" in2="BackgroundImageFix" result="effect1_dropShadow"/>
<feBlend mode="normal" in="SourceGraphic" in2="effect1_dropShadow" result="shape"/>
</filter>
<clipPath id="clip0">
<rect width="24" height="24" fill="white" transform="translate(151.5 14)"/>
</clipPath>
</defs>
</svg>
