<svg width="404" height="204" viewBox="0 0 404 204" fill="none" xmlns="http://www.w3.org/2000/svg">
<g filter="url(#filter0_d)">
<rect width="400" height="200" rx="8" fill="#E7F4FF"/>
<path d="M28 20.5H78.5V79.5H28C23.8579 79.5 20.5 76.1421 20.5 72V28C20.5 23.8579 23.8579 20.5 28 20.5Z" fill="#E7F4FF"/>
<path d="M49.3906 45.3594H45.7344V55.5H44.2422V45.3594H40.5938V44.125H49.3906V45.3594ZM54.7891 48.4844L57.5156 44.125H59.2812L55.6875 49.7656L59.3672 55.5H57.5859L54.7891 51.0625L51.9766 55.5H50.2031L53.8906 49.7656L50.2891 44.125H52.0469L54.7891 48.4844Z" fill="#2097F6"/>
<path d="M28 20.5H78.5V79.5H28C23.8579 79.5 20.5 76.1421 20.5 72V28C20.5 23.8579 23.8579 20.5 28 20.5Z" stroke="#2097F6"/>
<path d="M79 20.5H78.5V21V79V79.5H79H375C379.694 79.5 383.5 75.6944 383.5 71V29C383.5 24.3056 379.694 20.5 375 20.5H79Z" fill="white"/>
<path d="M97 30.5H112.5V69.5H97C92.8579 69.5 89.5 66.1421 89.5 62V38C89.5 33.8579 92.8579 30.5 97 30.5Z" fill="#E7F4FF"/>
<path d="M103.695 52.5703C103.695 52.0911 103.526 51.6875 103.188 51.3594C102.854 51.0312 102.289 50.7344 101.492 50.4688C100.383 50.1302 99.5729 49.6901 99.0625 49.1484C98.5573 48.6016 98.3047 47.9089 98.3047 47.0703C98.3047 46.2161 98.5521 45.5156 99.0469 44.9688C99.5469 44.4219 100.232 44.0964 101.102 43.9922V42.2812H102.266V44C103.141 44.1198 103.82 44.487 104.305 45.1016C104.794 45.7161 105.039 46.5573 105.039 47.625H103.602C103.602 46.8906 103.427 46.3073 103.078 45.875C102.729 45.4427 102.258 45.2266 101.664 45.2266C101.044 45.2266 100.57 45.388 100.242 45.7109C99.9141 46.0286 99.75 46.474 99.75 47.0469C99.75 47.5781 99.9219 48.0026 100.266 48.3203C100.615 48.6328 101.185 48.9193 101.977 49.1797C102.773 49.4349 103.393 49.7188 103.836 50.0312C104.284 50.3385 104.612 50.6979 104.82 51.1094C105.034 51.5208 105.141 52.0026 105.141 52.5547C105.141 53.4349 104.875 54.1432 104.344 54.6797C103.818 55.2161 103.078 55.5339 102.125 55.6328V57.125H100.969V55.6328C100 55.5443 99.2396 55.2005 98.6875 54.6016C98.1406 53.9974 97.8672 53.1797 97.8672 52.1484H99.3125C99.3125 52.8724 99.5026 53.4297 99.8828 53.8203C100.263 54.2109 100.802 54.4062 101.5 54.4062C102.182 54.4062 102.719 54.2422 103.109 53.9141C103.5 53.5859 103.695 53.138 103.695 52.5703Z" fill="#2097F6"/>
<path d="M97 30.5H112.5V69.5H97C92.8579 69.5 89.5 66.1421 89.5 62V38C89.5 33.8579 92.8579 30.5 97 30.5Z" stroke="#2097F6"/>
<path d="M113 30.5H112.5V31V69V69.5H113H146H146.5V69V31V30.5H146H113Z" fill="white"/>
<path d="M122.625 49.7969L123.203 44.125H129.031V45.4609H124.43L124.086 48.5625C124.643 48.2344 125.276 48.0703 125.984 48.0703C127.021 48.0703 127.844 48.4141 128.453 49.1016C129.062 49.7839 129.367 50.7083 129.367 51.875C129.367 53.0469 129.049 53.9714 128.414 54.6484C127.784 55.3203 126.901 55.6562 125.766 55.6562C124.76 55.6562 123.94 55.3776 123.305 54.8203C122.669 54.263 122.307 53.4922 122.219 52.5078H123.586C123.674 53.1589 123.906 53.651 124.281 53.9844C124.656 54.3125 125.151 54.4766 125.766 54.4766C126.438 54.4766 126.964 54.2474 127.344 53.7891C127.729 53.3307 127.922 52.6979 127.922 51.8906C127.922 51.1302 127.714 50.5208 127.297 50.0625C126.885 49.599 126.336 49.3672 125.648 49.3672C125.018 49.3672 124.523 49.5052 124.164 49.7812L123.781 50.0938L122.625 49.7969ZM138.078 50.6484C138.078 52.3411 137.789 53.599 137.211 54.4219C136.633 55.2448 135.729 55.6562 134.5 55.6562C133.286 55.6562 132.388 55.2552 131.805 54.4531C131.221 53.6458 130.919 52.4427 130.898 50.8438V48.9141C130.898 47.2422 131.188 46 131.766 45.1875C132.344 44.375 133.25 43.9688 134.484 43.9688C135.708 43.9688 136.609 44.362 137.188 45.1484C137.766 45.9297 138.062 47.138 138.078 48.7734V50.6484ZM136.633 48.6719C136.633 47.4479 136.461 46.5573 136.117 46C135.773 45.4375 135.229 45.1562 134.484 45.1562C133.745 45.1562 133.206 45.4349 132.867 45.9922C132.529 46.5495 132.354 47.4062 132.344 48.5625V50.875C132.344 52.1042 132.521 53.013 132.875 53.6016C133.234 54.1849 133.776 54.4766 134.5 54.4766C135.214 54.4766 135.742 54.2005 136.086 53.6484C136.435 53.0964 136.617 52.2266 136.633 51.0391V48.6719Z" fill="#2097F6"/>
<path d="M113 30.5H112.5V31V69V69.5H113H146H146.5V69V31V30.5H146H113Z" stroke="#2097F6"/>
<path d="M146.5 30.5H196.5V69.5H146.5V30.5Z" fill="#E7F4FF"/>
<path d="M162.062 50.4766H157.289V55.5H155.789V44.125H162.836V45.3594H157.289V49.25H162.062V50.4766ZM168.289 48.3438C168.07 48.3073 167.833 48.2891 167.578 48.2891C166.63 48.2891 165.987 48.6927 165.648 49.5V55.5H164.203V47.0469H165.609L165.633 48.0234C166.107 47.2682 166.779 46.8906 167.648 46.8906C167.93 46.8906 168.143 46.9271 168.289 47V48.3438ZM169.086 51.1953C169.086 50.3672 169.247 49.6224 169.57 48.9609C169.898 48.2995 170.352 47.7891 170.93 47.4297C171.513 47.0703 172.177 46.8906 172.922 46.8906C174.073 46.8906 175.003 47.2891 175.711 48.0859C176.424 48.8828 176.781 49.9427 176.781 51.2656V51.3672C176.781 52.1901 176.622 52.9297 176.305 53.5859C175.992 54.237 175.542 54.7448 174.953 55.1094C174.37 55.474 173.698 55.6562 172.938 55.6562C171.792 55.6562 170.862 55.2578 170.148 54.4609C169.44 53.6641 169.086 52.6094 169.086 51.2969V51.1953ZM170.539 51.3672C170.539 52.3047 170.755 53.0573 171.188 53.625C171.625 54.1927 172.208 54.4766 172.938 54.4766C173.672 54.4766 174.255 54.1901 174.688 53.6172C175.12 53.0391 175.336 52.2318 175.336 51.1953C175.336 50.2682 175.115 49.5182 174.672 48.9453C174.234 48.3672 173.651 48.0781 172.922 48.0781C172.208 48.0781 171.633 48.362 171.195 48.9297C170.758 49.4974 170.539 50.3099 170.539 51.3672ZM179.953 47.0469L179.992 47.9844C180.612 47.2552 181.448 46.8906 182.5 46.8906C183.682 46.8906 184.487 47.3438 184.914 48.25C185.195 47.8438 185.56 47.5156 186.008 47.2656C186.461 47.0156 186.995 46.8906 187.609 46.8906C189.464 46.8906 190.406 47.8724 190.438 49.8359V55.5H188.992V49.9219C188.992 49.3177 188.854 48.8672 188.578 48.5703C188.302 48.2682 187.839 48.1172 187.188 48.1172C186.651 48.1172 186.206 48.2786 185.852 48.6016C185.497 48.9193 185.292 49.349 185.234 49.8906V55.5H183.781V49.9609C183.781 48.7318 183.18 48.1172 181.977 48.1172C181.029 48.1172 180.38 48.5208 180.031 49.3281V55.5H178.586V47.0469H179.953Z" fill="#2097F6"/>
<path d="M146.5 30.5H196.5V69.5H146.5V30.5Z" stroke="#2097F6"/>
<path d="M197 30.5H196.5V31V69V69.5H197H269H269.5V69V31V30.5H269H197Z" fill="white"/>
<path d="M213.336 50.6484C213.336 52.3411 213.047 53.599 212.469 54.4219C211.891 55.2448 210.987 55.6562 209.758 55.6562C208.544 55.6562 207.646 55.2552 207.062 54.4531C206.479 53.6458 206.177 52.4427 206.156 50.8438V48.9141C206.156 47.2422 206.445 46 207.023 45.1875C207.602 44.375 208.508 43.9688 209.742 43.9688C210.966 43.9688 211.867 44.362 212.445 45.1484C213.023 45.9297 213.32 47.138 213.336 48.7734V50.6484ZM211.891 48.6719C211.891 47.4479 211.719 46.5573 211.375 46C211.031 45.4375 210.487 45.1562 209.742 45.1562C209.003 45.1562 208.464 45.4349 208.125 45.9922C207.786 46.5495 207.612 47.4062 207.602 48.5625V50.875C207.602 52.1042 207.779 53.013 208.133 53.6016C208.492 54.1849 209.034 54.4766 209.758 54.4766C210.471 54.4766 211 54.2005 211.344 53.6484C211.693 53.0964 211.875 52.2266 211.891 51.0391V48.6719ZM218.172 50.1328L220.047 47.0469H221.734L218.969 51.2266L221.82 55.5H220.148L218.195 52.3359L216.242 55.5H214.562L217.414 51.2266L214.648 47.0469H216.32L218.172 50.1328ZM229.227 51.6797H230.805V52.8594H229.227V55.5H227.773V52.8594H222.594V52.0078L227.688 44.125H229.227V51.6797ZM224.234 51.6797H227.773V46.1016L227.602 46.4141L224.234 51.6797ZM235.648 54.4766C236.164 54.4766 236.615 54.3203 237 54.0078C237.385 53.6953 237.599 53.3047 237.641 52.8359H239.008C238.982 53.3203 238.815 53.7812 238.508 54.2188C238.201 54.6562 237.789 55.0052 237.273 55.2656C236.763 55.526 236.221 55.6562 235.648 55.6562C234.497 55.6562 233.581 55.2734 232.898 54.5078C232.221 53.737 231.883 52.6849 231.883 51.3516V51.1094C231.883 50.2865 232.034 49.5547 232.336 48.9141C232.638 48.2734 233.07 47.776 233.633 47.4219C234.201 47.0677 234.87 46.8906 235.641 46.8906C236.589 46.8906 237.375 47.1745 238 47.7422C238.63 48.3099 238.966 49.0469 239.008 49.9531H237.641C237.599 49.4062 237.391 48.9583 237.016 48.6094C236.646 48.2552 236.188 48.0781 235.641 48.0781C234.906 48.0781 234.336 48.3438 233.93 48.875C233.529 49.401 233.328 50.1641 233.328 51.1641V51.4375C233.328 52.4115 233.529 53.1615 233.93 53.6875C234.331 54.2135 234.904 54.4766 235.648 54.4766ZM241.344 55.5V48.1641H240.008V47.0469H241.344V46.1797C241.344 45.2734 241.586 44.5729 242.07 44.0781C242.555 43.5833 243.24 43.3359 244.125 43.3359C244.458 43.3359 244.789 43.3802 245.117 43.4688L245.039 44.6406C244.794 44.5938 244.534 44.5703 244.258 44.5703C243.789 44.5703 243.427 44.7083 243.172 44.9844C242.917 45.2552 242.789 45.6458 242.789 46.1562V47.0469H244.594V48.1641H242.789V55.5H241.344ZM251.719 44.1172V45.3438H251.453C250.328 45.3646 249.432 45.6979 248.766 46.3438C248.099 46.9896 247.714 47.8984 247.609 49.0703C248.208 48.3828 249.026 48.0391 250.062 48.0391C251.052 48.0391 251.841 48.388 252.43 49.0859C253.023 49.7839 253.32 50.6849 253.32 51.7891C253.32 52.9609 253 53.8984 252.359 54.6016C251.724 55.3047 250.87 55.6562 249.797 55.6562C248.708 55.6562 247.826 55.2396 247.148 54.4062C246.471 53.5677 246.133 52.4896 246.133 51.1719V50.6172C246.133 48.5234 246.578 46.9245 247.469 45.8203C248.365 44.7109 249.695 44.1432 251.461 44.1172H251.719ZM249.82 49.2422C249.326 49.2422 248.87 49.3906 248.453 49.6875C248.036 49.9844 247.747 50.3568 247.586 50.8047V51.3359C247.586 52.2734 247.797 53.0286 248.219 53.6016C248.641 54.1745 249.167 54.4609 249.797 54.4609C250.448 54.4609 250.958 54.2214 251.328 53.7422C251.703 53.263 251.891 52.6354 251.891 51.8594C251.891 51.0781 251.701 50.4479 251.32 49.9688C250.945 49.4844 250.445 49.2422 249.82 49.2422ZM255.211 54.7422C255.211 54.4922 255.284 54.2839 255.43 54.1172C255.581 53.9505 255.805 53.8672 256.102 53.8672C256.398 53.8672 256.622 53.9505 256.773 54.1172C256.93 54.2839 257.008 54.4922 257.008 54.7422C257.008 54.9818 256.93 55.1823 256.773 55.3438C256.622 55.5052 256.398 55.5859 256.102 55.5859C255.805 55.5859 255.581 55.5052 255.43 55.3438C255.284 55.1823 255.211 54.9818 255.211 54.7422ZM259.43 54.7422C259.43 54.4922 259.503 54.2839 259.648 54.1172C259.799 53.9505 260.023 53.8672 260.32 53.8672C260.617 53.8672 260.841 53.9505 260.992 54.1172C261.148 54.2839 261.227 54.4922 261.227 54.7422C261.227 54.9818 261.148 55.1823 260.992 55.3438C260.841 55.5052 260.617 55.5859 260.32 55.5859C260.023 55.5859 259.799 55.5052 259.648 55.3438C259.503 55.1823 259.43 54.9818 259.43 54.7422ZM263.648 54.7422C263.648 54.4922 263.721 54.2839 263.867 54.1172C264.018 53.9505 264.242 53.8672 264.539 53.8672C264.836 53.8672 265.06 53.9505 265.211 54.1172C265.367 54.2839 265.445 54.4922 265.445 54.7422C265.445 54.9818 265.367 55.1823 265.211 55.3438C265.06 55.5052 264.836 55.5859 264.539 55.5859C264.242 55.5859 264.018 55.5052 263.867 55.3438C263.721 55.1823 263.648 54.9818 263.648 54.7422Z" fill="#2097F6"/>
<path d="M197 30.5H196.5V31V69V69.5H197H269H269.5V69V31V30.5H269H197Z" stroke="#2097F6"/>
<path d="M269.5 30.5H301.5V69.5H269.5V30.5Z" fill="#E7F4FF"/>
<path d="M286.234 45.3594H282.578V55.5H281.086V45.3594H277.438V44.125H286.234V45.3594ZM286.531 51.1953C286.531 50.3672 286.693 49.6224 287.016 48.9609C287.344 48.2995 287.797 47.7891 288.375 47.4297C288.958 47.0703 289.622 46.8906 290.367 46.8906C291.518 46.8906 292.448 47.2891 293.156 48.0859C293.87 48.8828 294.227 49.9427 294.227 51.2656V51.3672C294.227 52.1901 294.068 52.9297 293.75 53.5859C293.438 54.237 292.987 54.7448 292.398 55.1094C291.815 55.474 291.143 55.6562 290.383 55.6562C289.237 55.6562 288.307 55.2578 287.594 54.4609C286.885 53.6641 286.531 52.6094 286.531 51.2969V51.1953ZM287.984 51.3672C287.984 52.3047 288.201 53.0573 288.633 53.625C289.07 54.1927 289.654 54.4766 290.383 54.4766C291.117 54.4766 291.701 54.1901 292.133 53.6172C292.565 53.0391 292.781 52.2318 292.781 51.1953C292.781 50.2682 292.56 49.5182 292.117 48.9453C291.68 48.3672 291.096 48.0781 290.367 48.0781C289.654 48.0781 289.078 48.362 288.641 48.9297C288.203 49.4974 287.984 50.3099 287.984 51.3672Z" fill="#2097F6"/>
<path d="M269.5 30.5H301.5V69.5H269.5V30.5Z" stroke="#2097F6"/>
<path d="M302 30.5H301.5V31V69V69.5H302H365C369.694 69.5 373.5 65.6944 373.5 61V39C373.5 34.3056 369.694 30.5 365 30.5H302Z" fill="white"/>
<path d="M320.242 50.6484C320.242 52.3411 319.953 53.599 319.375 54.4219C318.797 55.2448 317.893 55.6562 316.664 55.6562C315.451 55.6562 314.552 55.2552 313.969 54.4531C313.385 53.6458 313.083 52.4427 313.062 50.8438V48.9141C313.062 47.2422 313.352 46 313.93 45.1875C314.508 44.375 315.414 43.9688 316.648 43.9688C317.872 43.9688 318.773 44.362 319.352 45.1484C319.93 45.9297 320.227 47.138 320.242 48.7734V50.6484ZM318.797 48.6719C318.797 47.4479 318.625 46.5573 318.281 46C317.938 45.4375 317.393 45.1562 316.648 45.1562C315.909 45.1562 315.37 45.4349 315.031 45.9922C314.693 46.5495 314.518 47.4062 314.508 48.5625V50.875C314.508 52.1042 314.685 53.013 315.039 53.6016C315.398 54.1849 315.94 54.4766 316.664 54.4766C317.378 54.4766 317.906 54.2005 318.25 53.6484C318.599 53.0964 318.781 52.2266 318.797 51.0391V48.6719ZM325.078 50.1328L326.953 47.0469H328.641L325.875 51.2266L328.727 55.5H327.055L325.102 52.3359L323.148 55.5H321.469L324.32 51.2266L321.555 47.0469H323.227L325.078 50.1328ZM337.484 55.5H330.031V54.4609L333.969 50.0859C334.552 49.4245 334.953 48.888 335.172 48.4766C335.396 48.0599 335.508 47.6302 335.508 47.1875C335.508 46.5938 335.328 46.1068 334.969 45.7266C334.609 45.3464 334.13 45.1562 333.531 45.1562C332.812 45.1562 332.253 45.362 331.852 45.7734C331.456 46.1797 331.258 46.7474 331.258 47.4766H329.812C329.812 46.4297 330.148 45.5833 330.82 44.9375C331.497 44.2917 332.401 43.9688 333.531 43.9688C334.589 43.9688 335.424 44.2474 336.039 44.8047C336.654 45.3568 336.961 46.0938 336.961 47.0156C336.961 48.1354 336.247 49.4688 334.82 51.0156L331.773 54.3203H337.484V55.5ZM339.875 55.5V48.1641H338.539V47.0469H339.875V46.1797C339.875 45.2734 340.117 44.5729 340.602 44.0781C341.086 43.5833 341.771 43.3359 342.656 43.3359C342.99 43.3359 343.32 43.3802 343.648 43.4688L343.57 44.6406C343.326 44.5938 343.065 44.5703 342.789 44.5703C342.32 44.5703 341.958 44.7083 341.703 44.9844C341.448 45.2552 341.32 45.6458 341.32 46.1562V47.0469H343.125V48.1641H341.32V55.5H339.875ZM349.328 55.5H347.875V45.8672L344.961 46.9375V45.625L349.102 44.0703H349.328V55.5ZM354.422 55.5V48.1641H353.086V47.0469H354.422V46.1797C354.422 45.2734 354.664 44.5729 355.148 44.0781C355.633 43.5833 356.318 43.3359 357.203 43.3359C357.536 43.3359 357.867 43.3802 358.195 43.4688L358.117 44.6406C357.872 44.5938 357.612 44.5703 357.336 44.5703C356.867 44.5703 356.505 44.7083 356.25 44.9844C355.995 45.2552 355.867 45.6458 355.867 46.1562V47.0469H357.672V48.1641H355.867V55.5H354.422ZM359.305 54.7422C359.305 54.4922 359.378 54.2839 359.523 54.1172C359.674 53.9505 359.898 53.8672 360.195 53.8672C360.492 53.8672 360.716 53.9505 360.867 54.1172C361.023 54.2839 361.102 54.4922 361.102 54.7422C361.102 54.9818 361.023 55.1823 360.867 55.3438C360.716 55.5052 360.492 55.5859 360.195 55.5859C359.898 55.5859 359.674 55.5052 359.523 55.3438C359.378 55.1823 359.305 54.9818 359.305 54.7422ZM363.523 54.7422C363.523 54.4922 363.596 54.2839 363.742 54.1172C363.893 53.9505 364.117 53.8672 364.414 53.8672C364.711 53.8672 364.935 53.9505 365.086 54.1172C365.242 54.2839 365.32 54.4922 365.32 54.7422C365.32 54.9818 365.242 55.1823 365.086 55.3438C364.935 55.5052 364.711 55.5859 364.414 55.5859C364.117 55.5859 363.893 55.5052 363.742 55.3438C363.596 55.1823 363.523 54.9818 363.523 54.7422ZM367.742 54.7422C367.742 54.4922 367.815 54.2839 367.961 54.1172C368.112 53.9505 368.336 53.8672 368.633 53.8672C368.93 53.8672 369.154 53.9505 369.305 54.1172C369.461 54.2839 369.539 54.4922 369.539 54.7422C369.539 54.9818 369.461 55.1823 369.305 55.3438C369.154 55.5052 368.93 55.5859 368.633 55.5859C368.336 55.5859 368.112 55.5052 367.961 55.3438C367.815 55.1823 367.742 54.9818 367.742 54.7422Z" fill="#2097F6"/>
<path d="M302 30.5H301.5V31V69V69.5H302H365C369.694 69.5 373.5 65.6944 373.5 61V39C373.5 34.3056 369.694 30.5 365 30.5H302Z" stroke="#2097F6"/>
<path d="M79 20.5H78.5V21V79V79.5H79H375C379.694 79.5 383.5 75.6944 383.5 71V29C383.5 24.3056 379.694 20.5 375 20.5H79Z" stroke="#2097F6"/>
<path d="M28 90.5H128.5V129.5H28C23.8579 129.5 20.5 126.142 20.5 122V98C20.5 93.8579 23.8579 90.5 28 90.5Z" fill="#E7F4FF"/>
<path d="M43.0938 111.047V115.5H41.5938V104.125H45.7891C47.0339 104.125 48.0078 104.443 48.7109 105.078C49.4193 105.714 49.7734 106.555 49.7734 107.602C49.7734 108.706 49.4271 109.557 48.7344 110.156C48.0469 110.75 47.0599 111.047 45.7734 111.047H43.0938ZM43.0938 109.82H45.7891C46.5911 109.82 47.2057 109.633 47.6328 109.258C48.0599 108.878 48.2734 108.331 48.2734 107.617C48.2734 106.94 48.0599 106.398 47.6328 105.992C47.2057 105.586 46.6198 105.375 45.875 105.359H43.0938V109.82ZM55.8594 110.898H53.1875V115.5H51.6797V104.125H55.4453C56.7266 104.125 57.7109 104.417 58.3984 105C59.0911 105.583 59.4375 106.432 59.4375 107.547C59.4375 108.255 59.2448 108.872 58.8594 109.398C58.4792 109.924 57.9479 110.318 57.2656 110.578L59.9375 115.406V115.5H58.3281L55.8594 110.898ZM53.1875 109.672H55.4922C56.237 109.672 56.8281 109.479 57.2656 109.094C57.7083 108.708 57.9297 108.193 57.9297 107.547C57.9297 106.844 57.7188 106.305 57.2969 105.93C56.8802 105.555 56.276 105.365 55.4844 105.359H53.1875V109.672ZM63.1562 115.5H61.6562V104.125H63.1562V115.5ZM69.6719 113.508L72.9219 104.125H74.5625L70.3438 115.5H69.0156L64.8047 104.125H66.4375L69.6719 113.508ZM81.9609 116.68H74.8047V115.5H81.9609V116.68ZM86.2031 110.211L84.8125 111.656V115.5H83.3125V104.125H84.8125V109.75L89.8672 104.125H91.6797L87.2031 109.148L92.0312 115.5H90.2344L86.2031 110.211ZM99.7734 110.242H94.8438V114.273H100.57V115.5H93.3438V104.125H100.492V105.359H94.8438V109.016H99.7734V110.242ZM105.906 109.836L108.875 104.125H110.578L106.656 111.258V115.5H105.156V111.258L101.234 104.125H102.953L105.906 109.836Z" fill="#2097F6"/>
<path d="M28 90.5H128.5V129.5H28C23.8579 129.5 20.5 126.142 20.5 122V98C20.5 93.8579 23.8579 90.5 28 90.5Z" stroke="#2097F6"/>
<path d="M129 90.5H128.5V91V129V129.5H129H375C379.694 129.5 383.5 125.694 383.5 121V99C383.5 94.3056 379.694 90.5 375 90.5H129Z" fill="white"/>
<path d="M150.961 109.797L151.539 104.125H157.367V105.461H152.766L152.422 108.562C152.979 108.234 153.612 108.07 154.32 108.07C155.357 108.07 156.18 108.414 156.789 109.102C157.398 109.784 157.703 110.708 157.703 111.875C157.703 113.047 157.385 113.971 156.75 114.648C156.12 115.32 155.237 115.656 154.102 115.656C153.096 115.656 152.276 115.378 151.641 114.82C151.005 114.263 150.643 113.492 150.555 112.508H151.922C152.01 113.159 152.242 113.651 152.617 113.984C152.992 114.312 153.487 114.477 154.102 114.477C154.773 114.477 155.299 114.247 155.68 113.789C156.065 113.331 156.258 112.698 156.258 111.891C156.258 111.13 156.049 110.521 155.633 110.062C155.221 109.599 154.672 109.367 153.984 109.367C153.354 109.367 152.859 109.505 152.5 109.781L152.117 110.094L150.961 109.797ZM166.18 107.094C166.18 107.661 166.029 108.167 165.727 108.609C165.43 109.052 165.026 109.398 164.516 109.648C165.109 109.904 165.578 110.276 165.922 110.766C166.271 111.255 166.445 111.81 166.445 112.43C166.445 113.414 166.112 114.198 165.445 114.781C164.784 115.365 163.911 115.656 162.828 115.656C161.734 115.656 160.857 115.365 160.195 114.781C159.539 114.193 159.211 113.409 159.211 112.43C159.211 111.815 159.378 111.26 159.711 110.766C160.049 110.271 160.516 109.896 161.109 109.641C160.604 109.391 160.206 109.044 159.914 108.602C159.622 108.159 159.477 107.656 159.477 107.094C159.477 106.135 159.784 105.375 160.398 104.812C161.013 104.25 161.823 103.969 162.828 103.969C163.828 103.969 164.635 104.25 165.25 104.812C165.87 105.375 166.18 106.135 166.18 107.094ZM165 112.398C165 111.763 164.797 111.245 164.391 110.844C163.99 110.443 163.464 110.242 162.812 110.242C162.161 110.242 161.638 110.44 161.242 110.836C160.852 111.232 160.656 111.753 160.656 112.398C160.656 113.044 160.846 113.552 161.227 113.922C161.612 114.292 162.146 114.477 162.828 114.477C163.505 114.477 164.036 114.292 164.422 113.922C164.807 113.547 165 113.039 165 112.398ZM162.828 105.156C162.26 105.156 161.799 105.333 161.445 105.688C161.096 106.036 160.922 106.513 160.922 107.117C160.922 107.695 161.094 108.164 161.438 108.523C161.786 108.878 162.25 109.055 162.828 109.055C163.406 109.055 163.867 108.878 164.211 108.523C164.56 108.164 164.734 107.695 164.734 107.117C164.734 106.539 164.555 106.068 164.195 105.703C163.836 105.339 163.38 105.156 162.828 105.156ZM173.016 115.5H171.562V105.867L168.648 106.938V105.625L172.789 104.07H173.016V115.5ZM183.352 111.68H184.93V112.859H183.352V115.5H181.898V112.859H176.719V112.008L181.812 104.125H183.352V111.68ZM178.359 111.68H181.898V106.102L181.727 106.414L178.359 111.68ZM191.773 110.5C191.471 110.859 191.109 111.148 190.688 111.367C190.271 111.586 189.812 111.695 189.312 111.695C188.656 111.695 188.083 111.534 187.594 111.211C187.109 110.888 186.734 110.435 186.469 109.852C186.203 109.263 186.07 108.615 186.07 107.906C186.07 107.146 186.214 106.461 186.5 105.852C186.792 105.242 187.203 104.776 187.734 104.453C188.266 104.13 188.885 103.969 189.594 103.969C190.719 103.969 191.604 104.391 192.25 105.234C192.901 106.073 193.227 107.219 193.227 108.672V109.094C193.227 111.307 192.789 112.924 191.914 113.945C191.039 114.961 189.719 115.482 187.953 115.508H187.672V114.289H187.977C189.169 114.268 190.086 113.958 190.727 113.359C191.367 112.755 191.716 111.802 191.773 110.5ZM189.547 110.5C190.031 110.5 190.477 110.352 190.883 110.055C191.294 109.758 191.594 109.391 191.781 108.953V108.375C191.781 107.427 191.576 106.656 191.164 106.062C190.753 105.469 190.232 105.172 189.602 105.172C188.966 105.172 188.456 105.417 188.07 105.906C187.685 106.391 187.492 107.031 187.492 107.828C187.492 108.604 187.677 109.245 188.047 109.75C188.422 110.25 188.922 110.5 189.547 110.5ZM200.758 110.5C200.456 110.859 200.094 111.148 199.672 111.367C199.255 111.586 198.797 111.695 198.297 111.695C197.641 111.695 197.068 111.534 196.578 111.211C196.094 110.888 195.719 110.435 195.453 109.852C195.188 109.263 195.055 108.615 195.055 107.906C195.055 107.146 195.198 106.461 195.484 105.852C195.776 105.242 196.188 104.776 196.719 104.453C197.25 104.13 197.87 103.969 198.578 103.969C199.703 103.969 200.589 104.391 201.234 105.234C201.885 106.073 202.211 107.219 202.211 108.672V109.094C202.211 111.307 201.773 112.924 200.898 113.945C200.023 114.961 198.703 115.482 196.938 115.508H196.656V114.289H196.961C198.154 114.268 199.07 113.958 199.711 113.359C200.352 112.755 200.701 111.802 200.758 110.5ZM198.531 110.5C199.016 110.5 199.461 110.352 199.867 110.055C200.279 109.758 200.578 109.391 200.766 108.953V108.375C200.766 107.427 200.56 106.656 200.148 106.062C199.737 105.469 199.216 105.172 198.586 105.172C197.951 105.172 197.44 105.417 197.055 105.906C196.669 106.391 196.477 107.031 196.477 107.828C196.477 108.604 196.661 109.245 197.031 109.75C197.406 110.25 197.906 110.5 198.531 110.5ZM211.547 104.938L206.836 115.5H205.32L210.016 105.312H203.859V104.125H211.547V104.938ZM220.32 110.648C220.32 112.341 220.031 113.599 219.453 114.422C218.875 115.245 217.971 115.656 216.742 115.656C215.529 115.656 214.63 115.255 214.047 114.453C213.464 113.646 213.161 112.443 213.141 110.844V108.914C213.141 107.242 213.43 106 214.008 105.188C214.586 104.375 215.492 103.969 216.727 103.969C217.951 103.969 218.852 104.362 219.43 105.148C220.008 105.93 220.305 107.138 220.32 108.773V110.648ZM218.875 108.672C218.875 107.448 218.703 106.557 218.359 106C218.016 105.438 217.471 105.156 216.727 105.156C215.987 105.156 215.448 105.435 215.109 105.992C214.771 106.549 214.596 107.406 214.586 108.562V110.875C214.586 112.104 214.763 113.013 215.117 113.602C215.477 114.185 216.018 114.477 216.742 114.477C217.456 114.477 217.984 114.201 218.328 113.648C218.677 113.096 218.859 112.227 218.875 111.039V108.672ZM229.305 110.648C229.305 112.341 229.016 113.599 228.438 114.422C227.859 115.245 226.956 115.656 225.727 115.656C224.513 115.656 223.615 115.255 223.031 114.453C222.448 113.646 222.146 112.443 222.125 110.844V108.914C222.125 107.242 222.414 106 222.992 105.188C223.57 104.375 224.477 103.969 225.711 103.969C226.935 103.969 227.836 104.362 228.414 105.148C228.992 105.93 229.289 107.138 229.305 108.773V110.648ZM227.859 108.672C227.859 107.448 227.688 106.557 227.344 106C227 105.438 226.456 105.156 225.711 105.156C224.971 105.156 224.432 105.435 224.094 105.992C223.755 106.549 223.581 107.406 223.57 108.562V110.875C223.57 112.104 223.747 113.013 224.102 113.602C224.461 114.185 225.003 114.477 225.727 114.477C226.44 114.477 226.969 114.201 227.312 113.648C227.661 113.096 227.844 112.227 227.859 111.039V108.672ZM236.828 104.117V105.344H236.562C235.438 105.365 234.542 105.698 233.875 106.344C233.208 106.99 232.823 107.898 232.719 109.07C233.318 108.383 234.135 108.039 235.172 108.039C236.161 108.039 236.951 108.388 237.539 109.086C238.133 109.784 238.43 110.685 238.43 111.789C238.43 112.961 238.109 113.898 237.469 114.602C236.833 115.305 235.979 115.656 234.906 115.656C233.818 115.656 232.935 115.24 232.258 114.406C231.581 113.568 231.242 112.49 231.242 111.172V110.617C231.242 108.523 231.688 106.924 232.578 105.82C233.474 104.711 234.805 104.143 236.57 104.117H236.828ZM234.93 109.242C234.435 109.242 233.979 109.391 233.562 109.688C233.146 109.984 232.857 110.357 232.695 110.805V111.336C232.695 112.273 232.906 113.029 233.328 113.602C233.75 114.174 234.276 114.461 234.906 114.461C235.557 114.461 236.068 114.221 236.438 113.742C236.812 113.263 237 112.635 237 111.859C237 111.078 236.81 110.448 236.43 109.969C236.055 109.484 235.555 109.242 234.93 109.242ZM246.242 111.68H247.82V112.859H246.242V115.5H244.789V112.859H239.609V112.008L244.703 104.125H246.242V111.68ZM241.25 111.68H244.789V106.102L244.617 106.414L241.25 111.68ZM256.469 104.938L251.758 115.5H250.242L254.938 105.312H248.781V104.125H256.469V104.938ZM265.008 107.094C265.008 107.661 264.857 108.167 264.555 108.609C264.258 109.052 263.854 109.398 263.344 109.648C263.938 109.904 264.406 110.276 264.75 110.766C265.099 111.255 265.273 111.81 265.273 112.43C265.273 113.414 264.94 114.198 264.273 114.781C263.612 115.365 262.74 115.656 261.656 115.656C260.562 115.656 259.685 115.365 259.023 114.781C258.367 114.193 258.039 113.409 258.039 112.43C258.039 111.815 258.206 111.26 258.539 110.766C258.878 110.271 259.344 109.896 259.938 109.641C259.432 109.391 259.034 109.044 258.742 108.602C258.451 108.159 258.305 107.656 258.305 107.094C258.305 106.135 258.612 105.375 259.227 104.812C259.841 104.25 260.651 103.969 261.656 103.969C262.656 103.969 263.464 104.25 264.078 104.812C264.698 105.375 265.008 106.135 265.008 107.094ZM263.828 112.398C263.828 111.763 263.625 111.245 263.219 110.844C262.818 110.443 262.292 110.242 261.641 110.242C260.99 110.242 260.466 110.44 260.07 110.836C259.68 111.232 259.484 111.753 259.484 112.398C259.484 113.044 259.674 113.552 260.055 113.922C260.44 114.292 260.974 114.477 261.656 114.477C262.333 114.477 262.865 114.292 263.25 113.922C263.635 113.547 263.828 113.039 263.828 112.398ZM261.656 105.156C261.089 105.156 260.628 105.333 260.273 105.688C259.924 106.036 259.75 106.513 259.75 107.117C259.75 107.695 259.922 108.164 260.266 108.523C260.615 108.878 261.078 109.055 261.656 109.055C262.234 109.055 262.695 108.878 263.039 108.523C263.388 108.164 263.562 107.695 263.562 107.117C263.562 106.539 263.383 106.068 263.023 105.703C262.664 105.339 262.208 105.156 261.656 105.156ZM272.633 110.5C272.331 110.859 271.969 111.148 271.547 111.367C271.13 111.586 270.672 111.695 270.172 111.695C269.516 111.695 268.943 111.534 268.453 111.211C267.969 110.888 267.594 110.435 267.328 109.852C267.062 109.263 266.93 108.615 266.93 107.906C266.93 107.146 267.073 106.461 267.359 105.852C267.651 105.242 268.062 104.776 268.594 104.453C269.125 104.13 269.745 103.969 270.453 103.969C271.578 103.969 272.464 104.391 273.109 105.234C273.76 106.073 274.086 107.219 274.086 108.672V109.094C274.086 111.307 273.648 112.924 272.773 113.945C271.898 114.961 270.578 115.482 268.812 115.508H268.531V114.289H268.836C270.029 114.268 270.945 113.958 271.586 113.359C272.227 112.755 272.576 111.802 272.633 110.5ZM270.406 110.5C270.891 110.5 271.336 110.352 271.742 110.055C272.154 109.758 272.453 109.391 272.641 108.953V108.375C272.641 107.427 272.435 106.656 272.023 106.062C271.612 105.469 271.091 105.172 270.461 105.172C269.826 105.172 269.315 105.417 268.93 105.906C268.544 106.391 268.352 107.031 268.352 107.828C268.352 108.604 268.536 109.245 268.906 109.75C269.281 110.25 269.781 110.5 270.406 110.5ZM283.531 115.5H276.078V114.461L280.016 110.086C280.599 109.424 281 108.888 281.219 108.477C281.443 108.06 281.555 107.63 281.555 107.188C281.555 106.594 281.375 106.107 281.016 105.727C280.656 105.346 280.177 105.156 279.578 105.156C278.859 105.156 278.299 105.362 277.898 105.773C277.503 106.18 277.305 106.747 277.305 107.477H275.859C275.859 106.43 276.195 105.583 276.867 104.938C277.544 104.292 278.448 103.969 279.578 103.969C280.635 103.969 281.471 104.247 282.086 104.805C282.701 105.357 283.008 106.094 283.008 107.016C283.008 108.135 282.294 109.469 280.867 111.016L277.82 114.32H283.531V115.5ZM290.734 104.117V105.344H290.469C289.344 105.365 288.448 105.698 287.781 106.344C287.115 106.99 286.729 107.898 286.625 109.07C287.224 108.383 288.042 108.039 289.078 108.039C290.068 108.039 290.857 108.388 291.445 109.086C292.039 109.784 292.336 110.685 292.336 111.789C292.336 112.961 292.016 113.898 291.375 114.602C290.74 115.305 289.885 115.656 288.812 115.656C287.724 115.656 286.841 115.24 286.164 114.406C285.487 113.568 285.148 112.49 285.148 111.172V110.617C285.148 108.523 285.594 106.924 286.484 105.82C287.38 104.711 288.711 104.143 290.477 104.117H290.734ZM288.836 109.242C288.341 109.242 287.885 109.391 287.469 109.688C287.052 109.984 286.763 110.357 286.602 110.805V111.336C286.602 112.273 286.812 113.029 287.234 113.602C287.656 114.174 288.182 114.461 288.812 114.461C289.464 114.461 289.974 114.221 290.344 113.742C290.719 113.263 290.906 112.635 290.906 111.859C290.906 111.078 290.716 110.448 290.336 109.969C289.961 109.484 289.461 109.242 288.836 109.242ZM301.391 104.938L296.68 115.5H295.164L299.859 105.312H293.703V104.125H301.391V104.938ZM310.164 110.648C310.164 112.341 309.875 113.599 309.297 114.422C308.719 115.245 307.815 115.656 306.586 115.656C305.372 115.656 304.474 115.255 303.891 114.453C303.307 113.646 303.005 112.443 302.984 110.844V108.914C302.984 107.242 303.273 106 303.852 105.188C304.43 104.375 305.336 103.969 306.57 103.969C307.794 103.969 308.695 104.362 309.273 105.148C309.852 105.93 310.148 107.138 310.164 108.773V110.648ZM308.719 108.672C308.719 107.448 308.547 106.557 308.203 106C307.859 105.438 307.315 105.156 306.57 105.156C305.831 105.156 305.292 105.435 304.953 105.992C304.615 106.549 304.44 107.406 304.43 108.562V110.875C304.43 112.104 304.607 113.013 304.961 113.602C305.32 114.185 305.862 114.477 306.586 114.477C307.299 114.477 307.828 114.201 308.172 113.648C308.521 113.096 308.703 112.227 308.719 111.039V108.672ZM318.117 111.68H319.695V112.859H318.117V115.5H316.664V112.859H311.484V112.008L316.578 104.125H318.117V111.68ZM313.125 111.68H316.664V106.102L316.492 106.414L313.125 111.68ZM326.539 110.5C326.237 110.859 325.875 111.148 325.453 111.367C325.036 111.586 324.578 111.695 324.078 111.695C323.422 111.695 322.849 111.534 322.359 111.211C321.875 110.888 321.5 110.435 321.234 109.852C320.969 109.263 320.836 108.615 320.836 107.906C320.836 107.146 320.979 106.461 321.266 105.852C321.557 105.242 321.969 104.776 322.5 104.453C323.031 104.13 323.651 103.969 324.359 103.969C325.484 103.969 326.37 104.391 327.016 105.234C327.667 106.073 327.992 107.219 327.992 108.672V109.094C327.992 111.307 327.555 112.924 326.68 113.945C325.805 114.961 324.484 115.482 322.719 115.508H322.438V114.289H322.742C323.935 114.268 324.852 113.958 325.492 113.359C326.133 112.755 326.482 111.802 326.539 110.5ZM324.312 110.5C324.797 110.5 325.242 110.352 325.648 110.055C326.06 109.758 326.359 109.391 326.547 108.953V108.375C326.547 107.427 326.341 106.656 325.93 106.062C325.518 105.469 324.997 105.172 324.367 105.172C323.732 105.172 323.221 105.417 322.836 105.906C322.451 106.391 322.258 107.031 322.258 107.828C322.258 108.604 322.443 109.245 322.812 109.75C323.188 110.25 323.688 110.5 324.312 110.5ZM336.883 107.094C336.883 107.661 336.732 108.167 336.43 108.609C336.133 109.052 335.729 109.398 335.219 109.648C335.812 109.904 336.281 110.276 336.625 110.766C336.974 111.255 337.148 111.81 337.148 112.43C337.148 113.414 336.815 114.198 336.148 114.781C335.487 115.365 334.615 115.656 333.531 115.656C332.438 115.656 331.56 115.365 330.898 114.781C330.242 114.193 329.914 113.409 329.914 112.43C329.914 111.815 330.081 111.26 330.414 110.766C330.753 110.271 331.219 109.896 331.812 109.641C331.307 109.391 330.909 109.044 330.617 108.602C330.326 108.159 330.18 107.656 330.18 107.094C330.18 106.135 330.487 105.375 331.102 104.812C331.716 104.25 332.526 103.969 333.531 103.969C334.531 103.969 335.339 104.25 335.953 104.812C336.573 105.375 336.883 106.135 336.883 107.094ZM335.703 112.398C335.703 111.763 335.5 111.245 335.094 110.844C334.693 110.443 334.167 110.242 333.516 110.242C332.865 110.242 332.341 110.44 331.945 110.836C331.555 111.232 331.359 111.753 331.359 112.398C331.359 113.044 331.549 113.552 331.93 113.922C332.315 114.292 332.849 114.477 333.531 114.477C334.208 114.477 334.74 114.292 335.125 113.922C335.51 113.547 335.703 113.039 335.703 112.398ZM333.531 105.156C332.964 105.156 332.503 105.333 332.148 105.688C331.799 106.036 331.625 106.513 331.625 107.117C331.625 107.695 331.797 108.164 332.141 108.523C332.49 108.878 332.953 109.055 333.531 109.055C334.109 109.055 334.57 108.878 334.914 108.523C335.263 108.164 335.438 107.695 335.438 107.117C335.438 106.539 335.258 106.068 334.898 105.703C334.539 105.339 334.083 105.156 333.531 105.156ZM343.719 115.5H342.266V105.867L339.352 106.938V105.625L343.492 104.07H343.719V115.5ZM354.852 107.094C354.852 107.661 354.701 108.167 354.398 108.609C354.102 109.052 353.698 109.398 353.188 109.648C353.781 109.904 354.25 110.276 354.594 110.766C354.943 111.255 355.117 111.81 355.117 112.43C355.117 113.414 354.784 114.198 354.117 114.781C353.456 115.365 352.583 115.656 351.5 115.656C350.406 115.656 349.529 115.365 348.867 114.781C348.211 114.193 347.883 113.409 347.883 112.43C347.883 111.815 348.049 111.26 348.383 110.766C348.721 110.271 349.188 109.896 349.781 109.641C349.276 109.391 348.878 109.044 348.586 108.602C348.294 108.159 348.148 107.656 348.148 107.094C348.148 106.135 348.456 105.375 349.07 104.812C349.685 104.25 350.495 103.969 351.5 103.969C352.5 103.969 353.307 104.25 353.922 104.812C354.542 105.375 354.852 106.135 354.852 107.094ZM353.672 112.398C353.672 111.763 353.469 111.245 353.062 110.844C352.661 110.443 352.135 110.242 351.484 110.242C350.833 110.242 350.31 110.44 349.914 110.836C349.523 111.232 349.328 111.753 349.328 112.398C349.328 113.044 349.518 113.552 349.898 113.922C350.284 114.292 350.818 114.477 351.5 114.477C352.177 114.477 352.708 114.292 353.094 113.922C353.479 113.547 353.672 113.039 353.672 112.398ZM351.5 105.156C350.932 105.156 350.471 105.333 350.117 105.688C349.768 106.036 349.594 106.513 349.594 107.117C349.594 107.695 349.766 108.164 350.109 108.523C350.458 108.878 350.922 109.055 351.5 109.055C352.078 109.055 352.539 108.878 352.883 108.523C353.232 108.164 353.406 107.695 353.406 107.117C353.406 106.539 353.227 106.068 352.867 105.703C352.508 105.339 352.052 105.156 351.5 105.156ZM357.117 114.742C357.117 114.492 357.19 114.284 357.336 114.117C357.487 113.951 357.711 113.867 358.008 113.867C358.305 113.867 358.529 113.951 358.68 114.117C358.836 114.284 358.914 114.492 358.914 114.742C358.914 114.982 358.836 115.182 358.68 115.344C358.529 115.505 358.305 115.586 358.008 115.586C357.711 115.586 357.487 115.505 357.336 115.344C357.19 115.182 357.117 114.982 357.117 114.742ZM361.336 114.742C361.336 114.492 361.409 114.284 361.555 114.117C361.706 113.951 361.93 113.867 362.227 113.867C362.523 113.867 362.747 113.951 362.898 114.117C363.055 114.284 363.133 114.492 363.133 114.742C363.133 114.982 363.055 115.182 362.898 115.344C362.747 115.505 362.523 115.586 362.227 115.586C361.93 115.586 361.706 115.505 361.555 115.344C361.409 115.182 361.336 114.982 361.336 114.742ZM365.555 114.742C365.555 114.492 365.628 114.284 365.773 114.117C365.924 113.951 366.148 113.867 366.445 113.867C366.742 113.867 366.966 113.951 367.117 114.117C367.273 114.284 367.352 114.492 367.352 114.742C367.352 114.982 367.273 115.182 367.117 115.344C366.966 115.505 366.742 115.586 366.445 115.586C366.148 115.586 365.924 115.505 365.773 115.344C365.628 115.182 365.555 114.982 365.555 114.742Z" fill="#2097F6"/>
<path d="M129 90.5H128.5V91V129V129.5H129H375C379.694 129.5 383.5 125.694 383.5 121V99C383.5 94.3056 379.694 90.5 375 90.5H129Z" stroke="#2097F6"/>
<path d="M44.8672 160.43C43.5807 160.06 42.6432 159.607 42.0547 159.07C41.4714 158.529 41.1797 157.862 41.1797 157.07C41.1797 156.174 41.5365 155.435 42.25 154.852C42.9688 154.263 43.901 153.969 45.0469 153.969C45.8281 153.969 46.5234 154.12 47.1328 154.422C47.7474 154.724 48.2214 155.141 48.5547 155.672C48.8932 156.203 49.0625 156.784 49.0625 157.414H47.5547C47.5547 156.727 47.3359 156.188 46.8984 155.797C46.4609 155.401 45.8438 155.203 45.0469 155.203C44.3073 155.203 43.7292 155.367 43.3125 155.695C42.901 156.018 42.6953 156.469 42.6953 157.047C42.6953 157.51 42.8906 157.904 43.2812 158.227C43.6771 158.544 44.3464 158.836 45.2891 159.102C46.237 159.367 46.9766 159.661 47.5078 159.984C48.0443 160.302 48.4401 160.674 48.6953 161.102C48.9557 161.529 49.0859 162.031 49.0859 162.609C49.0859 163.531 48.7266 164.271 48.0078 164.828C47.2891 165.38 46.3281 165.656 45.125 165.656C44.3438 165.656 43.6146 165.508 42.9375 165.211C42.2604 164.909 41.737 164.497 41.3672 163.977C41.0026 163.456 40.8203 162.865 40.8203 162.203H42.3281C42.3281 162.891 42.5807 163.435 43.0859 163.836C43.5964 164.232 44.276 164.43 45.125 164.43C45.9167 164.43 46.5234 164.268 46.9453 163.945C47.3672 163.622 47.5781 163.182 47.5781 162.625C47.5781 162.068 47.3828 161.638 46.9922 161.336C46.6016 161.029 45.8932 160.727 44.8672 160.43ZM52.625 165.5H51.125V154.125H52.625V165.5ZM63.7734 164.008C63.388 164.56 62.849 164.974 62.1562 165.25C61.4688 165.521 60.6667 165.656 59.75 165.656C58.8229 165.656 58 165.44 57.2812 165.008C56.5625 164.57 56.0052 163.951 55.6094 163.148C55.2188 162.346 55.0182 161.417 55.0078 160.359V159.367C55.0078 157.654 55.4062 156.326 56.2031 155.383C57.0052 154.44 58.1302 153.969 59.5781 153.969C60.7656 153.969 61.7214 154.273 62.4453 154.883C63.1693 155.487 63.612 156.346 63.7734 157.461H62.2734C61.9922 155.956 61.0964 155.203 59.5859 155.203C58.5807 155.203 57.8177 155.557 57.2969 156.266C56.7812 156.969 56.5208 157.99 56.5156 159.328V160.258C56.5156 161.534 56.8073 162.549 57.3906 163.305C57.974 164.055 58.763 164.43 59.7578 164.43C60.3203 164.43 60.8125 164.367 61.2344 164.242C61.6562 164.117 62.0052 163.906 62.2812 163.609V161.055H59.6484V159.836H63.7734V164.008ZM75.0234 165.5H73.5156L67.7891 156.734V165.5H66.2812V154.125H67.7891L73.5312 162.93V154.125H75.0234V165.5ZM84.1094 162.531H79.3438L78.2734 165.5H76.7266L81.0703 154.125H82.3828L86.7344 165.5H85.1953L84.1094 162.531ZM79.7969 161.297H83.6641L81.7266 155.977L79.7969 161.297ZM95.1094 155.359H91.4531V165.5H89.9609V155.359H86.3125V154.125H95.1094V155.359ZM104.805 154.125V161.859C104.799 162.932 104.461 163.81 103.789 164.492C103.122 165.174 102.216 165.557 101.07 165.641L100.672 165.656C99.4271 165.656 98.4349 165.32 97.6953 164.648C96.9557 163.977 96.5807 163.052 96.5703 161.875V154.125H98.0547V161.828C98.0547 162.651 98.2812 163.292 98.7344 163.75C99.1875 164.203 99.8333 164.43 100.672 164.43C101.521 164.43 102.169 164.203 102.617 163.75C103.07 163.297 103.297 162.659 103.297 161.836V154.125H104.805ZM111.344 160.898H108.672V165.5H107.164V154.125H110.93C112.211 154.125 113.195 154.417 113.883 155C114.576 155.583 114.922 156.432 114.922 157.547C114.922 158.255 114.729 158.872 114.344 159.398C113.964 159.924 113.432 160.318 112.75 160.578L115.422 165.406V165.5H113.812L111.344 160.898ZM108.672 159.672H110.977C111.721 159.672 112.312 159.479 112.75 159.094C113.193 158.708 113.414 158.193 113.414 157.547C113.414 156.844 113.203 156.305 112.781 155.93C112.365 155.555 111.76 155.365 110.969 155.359H108.672V159.672ZM123.461 160.242H118.531V164.273H124.258V165.5H117.031V154.125H124.18V155.359H118.531V159.016H123.461V160.242Z" fill="#2097F6"/>
<path d="M162.203 159.109H163.289C163.971 159.099 164.508 158.919 164.898 158.57C165.289 158.221 165.484 157.75 165.484 157.156C165.484 155.823 164.82 155.156 163.492 155.156C162.867 155.156 162.367 155.336 161.992 155.695C161.622 156.049 161.438 156.521 161.438 157.109H159.992C159.992 156.208 160.32 155.461 160.977 154.867C161.638 154.268 162.477 153.969 163.492 153.969C164.565 153.969 165.406 154.253 166.016 154.82C166.625 155.388 166.93 156.177 166.93 157.188C166.93 157.682 166.768 158.161 166.445 158.625C166.128 159.089 165.693 159.435 165.141 159.664C165.766 159.862 166.247 160.19 166.586 160.648C166.93 161.107 167.102 161.667 167.102 162.328C167.102 163.349 166.768 164.159 166.102 164.758C165.435 165.357 164.568 165.656 163.5 165.656C162.432 165.656 161.562 165.367 160.891 164.789C160.224 164.211 159.891 163.448 159.891 162.5H161.344C161.344 163.099 161.539 163.578 161.93 163.938C162.32 164.297 162.844 164.477 163.5 164.477C164.198 164.477 164.732 164.294 165.102 163.93C165.471 163.565 165.656 163.042 165.656 162.359C165.656 161.698 165.453 161.19 165.047 160.836C164.641 160.482 164.055 160.299 163.289 160.289H162.203V159.109ZM176.219 160.648C176.219 162.341 175.93 163.599 175.352 164.422C174.773 165.245 173.87 165.656 172.641 165.656C171.427 165.656 170.529 165.255 169.945 164.453C169.362 163.646 169.06 162.443 169.039 160.844V158.914C169.039 157.242 169.328 156 169.906 155.188C170.484 154.375 171.391 153.969 172.625 153.969C173.849 153.969 174.75 154.362 175.328 155.148C175.906 155.93 176.203 157.138 176.219 158.773V160.648ZM174.773 158.672C174.773 157.448 174.602 156.557 174.258 156C173.914 155.438 173.37 155.156 172.625 155.156C171.885 155.156 171.346 155.435 171.008 155.992C170.669 156.549 170.495 157.406 170.484 158.562V160.875C170.484 162.104 170.661 163.013 171.016 163.602C171.375 164.185 171.917 164.477 172.641 164.477C173.354 164.477 173.883 164.201 174.227 163.648C174.576 163.096 174.758 162.227 174.773 161.039V158.672ZM184.172 161.68H185.75V162.859H184.172V165.5H182.719V162.859H177.539V162.008L182.633 154.125H184.172V161.68ZM179.18 161.68H182.719V156.102L182.547 156.414L179.18 161.68ZM192.727 154.117V155.344H192.461C191.336 155.365 190.44 155.698 189.773 156.344C189.107 156.99 188.721 157.898 188.617 159.07C189.216 158.383 190.034 158.039 191.07 158.039C192.06 158.039 192.849 158.388 193.438 159.086C194.031 159.784 194.328 160.685 194.328 161.789C194.328 162.961 194.008 163.898 193.367 164.602C192.732 165.305 191.878 165.656 190.805 165.656C189.716 165.656 188.833 165.24 188.156 164.406C187.479 163.568 187.141 162.49 187.141 161.172V160.617C187.141 158.523 187.586 156.924 188.477 155.82C189.372 154.711 190.703 154.143 192.469 154.117H192.727ZM190.828 159.242C190.333 159.242 189.878 159.391 189.461 159.688C189.044 159.984 188.755 160.357 188.594 160.805V161.336C188.594 162.273 188.805 163.029 189.227 163.602C189.648 164.174 190.174 164.461 190.805 164.461C191.456 164.461 191.966 164.221 192.336 163.742C192.711 163.263 192.898 162.635 192.898 161.859C192.898 161.078 192.708 160.448 192.328 159.969C191.953 159.484 191.453 159.242 190.828 159.242ZM203.172 160.648C203.172 162.341 202.883 163.599 202.305 164.422C201.727 165.245 200.823 165.656 199.594 165.656C198.38 165.656 197.482 165.255 196.898 164.453C196.315 163.646 196.013 162.443 195.992 160.844V158.914C195.992 157.242 196.281 156 196.859 155.188C197.438 154.375 198.344 153.969 199.578 153.969C200.802 153.969 201.703 154.362 202.281 155.148C202.859 155.93 203.156 157.138 203.172 158.773V160.648ZM201.727 158.672C201.727 157.448 201.555 156.557 201.211 156C200.867 155.438 200.323 155.156 199.578 155.156C198.839 155.156 198.299 155.435 197.961 155.992C197.622 156.549 197.448 157.406 197.438 158.562V160.875C197.438 162.104 197.615 163.013 197.969 163.602C198.328 164.185 198.87 164.477 199.594 164.477C200.307 164.477 200.836 164.201 201.18 163.648C201.529 163.096 201.711 162.227 201.727 161.039V158.672ZM212.477 165.5H205.023V164.461L208.961 160.086C209.544 159.424 209.945 158.888 210.164 158.477C210.388 158.06 210.5 157.63 210.5 157.188C210.5 156.594 210.32 156.107 209.961 155.727C209.602 155.346 209.122 155.156 208.523 155.156C207.805 155.156 207.245 155.362 206.844 155.773C206.448 156.18 206.25 156.747 206.25 157.477H204.805C204.805 156.43 205.141 155.583 205.812 154.938C206.49 154.292 207.393 153.969 208.523 153.969C209.581 153.969 210.417 154.247 211.031 154.805C211.646 155.357 211.953 156.094 211.953 157.016C211.953 158.135 211.24 159.469 209.812 161.016L206.766 164.32H212.477V165.5ZM221.461 165.5H214.008V164.461L217.945 160.086C218.529 159.424 218.93 158.888 219.148 158.477C219.372 158.06 219.484 157.63 219.484 157.188C219.484 156.594 219.305 156.107 218.945 155.727C218.586 155.346 218.107 155.156 217.508 155.156C216.789 155.156 216.229 155.362 215.828 155.773C215.432 156.18 215.234 156.747 215.234 157.477H213.789C213.789 156.43 214.125 155.583 214.797 154.938C215.474 154.292 216.378 153.969 217.508 153.969C218.565 153.969 219.401 154.247 220.016 154.805C220.63 155.357 220.938 156.094 220.938 157.016C220.938 158.135 220.224 159.469 218.797 161.016L215.75 164.32H221.461V165.5ZM227.742 165.5H226.289V155.867L223.375 156.938V155.625L227.516 154.07H227.742V165.5ZM239.109 160.648C239.109 162.341 238.82 163.599 238.242 164.422C237.664 165.245 236.76 165.656 235.531 165.656C234.318 165.656 233.419 165.255 232.836 164.453C232.253 163.646 231.951 162.443 231.93 160.844V158.914C231.93 157.242 232.219 156 232.797 155.188C233.375 154.375 234.281 153.969 235.516 153.969C236.74 153.969 237.641 154.362 238.219 155.148C238.797 155.93 239.094 157.138 239.109 158.773V160.648ZM237.664 158.672C237.664 157.448 237.492 156.557 237.148 156C236.805 155.438 236.26 155.156 235.516 155.156C234.776 155.156 234.237 155.435 233.898 155.992C233.56 156.549 233.385 157.406 233.375 158.562V160.875C233.375 162.104 233.552 163.013 233.906 163.602C234.266 164.185 234.807 164.477 235.531 164.477C236.245 164.477 236.773 164.201 237.117 163.648C237.466 163.096 237.648 162.227 237.664 161.039V158.672ZM248.094 160.648C248.094 162.341 247.805 163.599 247.227 164.422C246.648 165.245 245.745 165.656 244.516 165.656C243.302 165.656 242.404 165.255 241.82 164.453C241.237 163.646 240.935 162.443 240.914 160.844V158.914C240.914 157.242 241.203 156 241.781 155.188C242.359 154.375 243.266 153.969 244.5 153.969C245.724 153.969 246.625 154.362 247.203 155.148C247.781 155.93 248.078 157.138 248.094 158.773V160.648ZM246.648 158.672C246.648 157.448 246.477 156.557 246.133 156C245.789 155.438 245.245 155.156 244.5 155.156C243.76 155.156 243.221 155.435 242.883 155.992C242.544 156.549 242.37 157.406 242.359 158.562V160.875C242.359 162.104 242.536 163.013 242.891 163.602C243.25 164.185 243.792 164.477 244.516 164.477C245.229 164.477 245.758 164.201 246.102 163.648C246.451 163.096 246.633 162.227 246.648 161.039V158.672ZM253.602 165.656C252.456 165.656 251.523 165.281 250.805 164.531C250.086 163.776 249.727 162.768 249.727 161.508V161.242C249.727 160.404 249.885 159.656 250.203 159C250.526 158.339 250.974 157.823 251.547 157.453C252.125 157.078 252.75 156.891 253.422 156.891C254.521 156.891 255.375 157.253 255.984 157.977C256.594 158.701 256.898 159.737 256.898 161.086V161.688H251.172C251.193 162.521 251.435 163.195 251.898 163.711C252.367 164.221 252.961 164.477 253.68 164.477C254.19 164.477 254.622 164.372 254.977 164.164C255.331 163.956 255.641 163.68 255.906 163.336L256.789 164.023C256.081 165.112 255.018 165.656 253.602 165.656ZM253.422 158.078C252.839 158.078 252.349 158.292 251.953 158.719C251.557 159.141 251.312 159.734 251.219 160.5H255.453V160.391C255.411 159.656 255.214 159.089 254.859 158.688C254.505 158.281 254.026 158.078 253.422 158.078ZM265.883 165.5H258.43V164.461L262.367 160.086C262.951 159.424 263.352 158.888 263.57 158.477C263.794 158.06 263.906 157.63 263.906 157.188C263.906 156.594 263.727 156.107 263.367 155.727C263.008 155.346 262.529 155.156 261.93 155.156C261.211 155.156 260.651 155.362 260.25 155.773C259.854 156.18 259.656 156.747 259.656 157.477H258.211C258.211 156.43 258.547 155.583 259.219 154.938C259.896 154.292 260.799 153.969 261.93 153.969C262.987 153.969 263.823 154.247 264.438 154.805C265.052 155.357 265.359 156.094 265.359 157.016C265.359 158.135 264.646 159.469 263.219 161.016L260.172 164.32H265.883V165.5ZM268.273 165.5V158.164H266.938V157.047H268.273V156.18C268.273 155.273 268.516 154.573 269 154.078C269.484 153.583 270.169 153.336 271.055 153.336C271.388 153.336 271.719 153.38 272.047 153.469L271.969 154.641C271.724 154.594 271.464 154.57 271.188 154.57C270.719 154.57 270.357 154.708 270.102 154.984C269.846 155.255 269.719 155.646 269.719 156.156V157.047H271.523V158.164H269.719V165.5H268.273ZM278.516 160.5C278.214 160.859 277.852 161.148 277.43 161.367C277.013 161.586 276.555 161.695 276.055 161.695C275.398 161.695 274.826 161.534 274.336 161.211C273.852 160.888 273.477 160.435 273.211 159.852C272.945 159.263 272.812 158.615 272.812 157.906C272.812 157.146 272.956 156.461 273.242 155.852C273.534 155.242 273.945 154.776 274.477 154.453C275.008 154.13 275.628 153.969 276.336 153.969C277.461 153.969 278.346 154.391 278.992 155.234C279.643 156.073 279.969 157.219 279.969 158.672V159.094C279.969 161.307 279.531 162.924 278.656 163.945C277.781 164.961 276.461 165.482 274.695 165.508H274.414V164.289H274.719C275.911 164.268 276.828 163.958 277.469 163.359C278.109 162.755 278.458 161.802 278.516 160.5ZM276.289 160.5C276.773 160.5 277.219 160.352 277.625 160.055C278.036 159.758 278.336 159.391 278.523 158.953V158.375C278.523 157.427 278.318 156.656 277.906 156.062C277.495 155.469 276.974 155.172 276.344 155.172C275.708 155.172 275.198 155.417 274.812 155.906C274.427 156.391 274.234 157.031 274.234 157.828C274.234 158.604 274.419 159.245 274.789 159.75C275.164 160.25 275.664 160.5 276.289 160.5ZM281.758 161.203C281.758 159.906 282.065 158.865 282.68 158.078C283.294 157.286 284.099 156.891 285.094 156.891C286.083 156.891 286.867 157.229 287.445 157.906V153.5H288.891V165.5H287.562L287.492 164.594C286.914 165.302 286.109 165.656 285.078 165.656C284.099 165.656 283.299 165.255 282.68 164.453C282.065 163.651 281.758 162.604 281.758 161.312V161.203ZM283.203 161.367C283.203 162.326 283.401 163.076 283.797 163.617C284.193 164.159 284.74 164.43 285.438 164.43C286.354 164.43 287.023 164.018 287.445 163.195V159.312C287.013 158.516 286.349 158.117 285.453 158.117C284.745 158.117 284.193 158.391 283.797 158.938C283.401 159.484 283.203 160.294 283.203 161.367ZM297.891 157.094C297.891 157.661 297.74 158.167 297.438 158.609C297.141 159.052 296.737 159.398 296.227 159.648C296.82 159.904 297.289 160.276 297.633 160.766C297.982 161.255 298.156 161.81 298.156 162.43C298.156 163.414 297.823 164.198 297.156 164.781C296.495 165.365 295.622 165.656 294.539 165.656C293.445 165.656 292.568 165.365 291.906 164.781C291.25 164.193 290.922 163.409 290.922 162.43C290.922 161.815 291.089 161.26 291.422 160.766C291.76 160.271 292.227 159.896 292.82 159.641C292.315 159.391 291.917 159.044 291.625 158.602C291.333 158.159 291.188 157.656 291.188 157.094C291.188 156.135 291.495 155.375 292.109 154.812C292.724 154.25 293.534 153.969 294.539 153.969C295.539 153.969 296.346 154.25 296.961 154.812C297.581 155.375 297.891 156.135 297.891 157.094ZM296.711 162.398C296.711 161.763 296.508 161.245 296.102 160.844C295.701 160.443 295.174 160.242 294.523 160.242C293.872 160.242 293.349 160.44 292.953 160.836C292.562 161.232 292.367 161.753 292.367 162.398C292.367 163.044 292.557 163.552 292.938 163.922C293.323 164.292 293.857 164.477 294.539 164.477C295.216 164.477 295.747 164.292 296.133 163.922C296.518 163.547 296.711 163.039 296.711 162.398ZM294.539 155.156C293.971 155.156 293.51 155.333 293.156 155.688C292.807 156.036 292.633 156.513 292.633 157.117C292.633 157.695 292.805 158.164 293.148 158.523C293.497 158.878 293.961 159.055 294.539 159.055C295.117 159.055 295.578 158.878 295.922 158.523C296.271 158.164 296.445 157.695 296.445 157.117C296.445 156.539 296.266 156.068 295.906 155.703C295.547 155.339 295.091 155.156 294.539 155.156ZM302.078 159.109H303.164C303.846 159.099 304.383 158.919 304.773 158.57C305.164 158.221 305.359 157.75 305.359 157.156C305.359 155.823 304.695 155.156 303.367 155.156C302.742 155.156 302.242 155.336 301.867 155.695C301.497 156.049 301.312 156.521 301.312 157.109H299.867C299.867 156.208 300.195 155.461 300.852 154.867C301.513 154.268 302.352 153.969 303.367 153.969C304.44 153.969 305.281 154.253 305.891 154.82C306.5 155.388 306.805 156.177 306.805 157.188C306.805 157.682 306.643 158.161 306.32 158.625C306.003 159.089 305.568 159.435 305.016 159.664C305.641 159.862 306.122 160.19 306.461 160.648C306.805 161.107 306.977 161.667 306.977 162.328C306.977 163.349 306.643 164.159 305.977 164.758C305.31 165.357 304.443 165.656 303.375 165.656C302.307 165.656 301.438 165.367 300.766 164.789C300.099 164.211 299.766 163.448 299.766 162.5H301.219C301.219 163.099 301.414 163.578 301.805 163.938C302.195 164.297 302.719 164.477 303.375 164.477C304.073 164.477 304.607 164.294 304.977 163.93C305.346 163.565 305.531 163.042 305.531 162.359C305.531 161.698 305.328 161.19 304.922 160.836C304.516 160.482 303.93 160.299 303.164 160.289H302.078V159.109ZM314.328 165.5C314.245 165.333 314.177 165.036 314.125 164.609C313.453 165.307 312.651 165.656 311.719 165.656C310.885 165.656 310.201 165.422 309.664 164.953C309.133 164.479 308.867 163.88 308.867 163.156C308.867 162.276 309.201 161.594 309.867 161.109C310.539 160.62 311.482 160.375 312.695 160.375H314.102V159.711C314.102 159.206 313.951 158.805 313.648 158.508C313.346 158.206 312.901 158.055 312.312 158.055C311.797 158.055 311.365 158.185 311.016 158.445C310.667 158.706 310.492 159.021 310.492 159.391H309.039C309.039 158.969 309.188 158.562 309.484 158.172C309.786 157.776 310.193 157.464 310.703 157.234C311.219 157.005 311.784 156.891 312.398 156.891C313.372 156.891 314.135 157.135 314.688 157.625C315.24 158.109 315.526 158.779 315.547 159.633V163.523C315.547 164.299 315.646 164.917 315.844 165.375V165.5H314.328ZM311.93 164.398C312.383 164.398 312.812 164.281 313.219 164.047C313.625 163.812 313.919 163.508 314.102 163.133V161.398H312.969C311.198 161.398 310.312 161.917 310.312 162.953C310.312 163.406 310.464 163.76 310.766 164.016C311.068 164.271 311.456 164.398 311.93 164.398ZM317.461 161.203C317.461 159.906 317.768 158.865 318.383 158.078C318.997 157.286 319.802 156.891 320.797 156.891C321.786 156.891 322.57 157.229 323.148 157.906V153.5H324.594V165.5H323.266L323.195 164.594C322.617 165.302 321.812 165.656 320.781 165.656C319.802 165.656 319.003 165.255 318.383 164.453C317.768 163.651 317.461 162.604 317.461 161.312V161.203ZM318.906 161.367C318.906 162.326 319.104 163.076 319.5 163.617C319.896 164.159 320.443 164.43 321.141 164.43C322.057 164.43 322.727 164.018 323.148 163.195V159.312C322.716 158.516 322.052 158.117 321.156 158.117C320.448 158.117 319.896 158.391 319.5 158.938C319.104 159.484 318.906 160.294 318.906 161.367ZM334.148 165.5H326.695V164.461L330.633 160.086C331.216 159.424 331.617 158.888 331.836 158.477C332.06 158.06 332.172 157.63 332.172 157.188C332.172 156.594 331.992 156.107 331.633 155.727C331.273 155.346 330.794 155.156 330.195 155.156C329.477 155.156 328.917 155.362 328.516 155.773C328.12 156.18 327.922 156.747 327.922 157.477H326.477C326.477 156.43 326.812 155.583 327.484 154.938C328.161 154.292 329.065 153.969 330.195 153.969C331.253 153.969 332.089 154.247 332.703 154.805C333.318 155.357 333.625 156.094 333.625 157.016C333.625 158.135 332.911 159.469 331.484 161.016L328.438 164.32H334.148V165.5ZM337.781 159.109H338.867C339.549 159.099 340.086 158.919 340.477 158.57C340.867 158.221 341.062 157.75 341.062 157.156C341.062 155.823 340.398 155.156 339.07 155.156C338.445 155.156 337.945 155.336 337.57 155.695C337.201 156.049 337.016 156.521 337.016 157.109H335.57C335.57 156.208 335.898 155.461 336.555 154.867C337.216 154.268 338.055 153.969 339.07 153.969C340.143 153.969 340.984 154.253 341.594 154.82C342.203 155.388 342.508 156.177 342.508 157.188C342.508 157.682 342.346 158.161 342.023 158.625C341.706 159.089 341.271 159.435 340.719 159.664C341.344 159.862 341.826 160.19 342.164 160.648C342.508 161.107 342.68 161.667 342.68 162.328C342.68 163.349 342.346 164.159 341.68 164.758C341.013 165.357 340.146 165.656 339.078 165.656C338.01 165.656 337.141 165.367 336.469 164.789C335.802 164.211 335.469 163.448 335.469 162.5H336.922C336.922 163.099 337.117 163.578 337.508 163.938C337.898 164.297 338.422 164.477 339.078 164.477C339.776 164.477 340.31 164.294 340.68 163.93C341.049 163.565 341.234 163.042 341.234 162.359C341.234 161.698 341.031 161.19 340.625 160.836C340.219 160.482 339.633 160.299 338.867 160.289H337.781V159.109ZM348.32 165.656C347.174 165.656 346.242 165.281 345.523 164.531C344.805 163.776 344.445 162.768 344.445 161.508V161.242C344.445 160.404 344.604 159.656 344.922 159C345.245 158.339 345.693 157.823 346.266 157.453C346.844 157.078 347.469 156.891 348.141 156.891C349.24 156.891 350.094 157.253 350.703 157.977C351.312 158.701 351.617 159.737 351.617 161.086V161.688H345.891C345.911 162.521 346.154 163.195 346.617 163.711C347.086 164.221 347.68 164.477 348.398 164.477C348.909 164.477 349.341 164.372 349.695 164.164C350.049 163.956 350.359 163.68 350.625 163.336L351.508 164.023C350.799 165.112 349.737 165.656 348.32 165.656ZM348.141 158.078C347.557 158.078 347.068 158.292 346.672 158.719C346.276 159.141 346.031 159.734 345.938 160.5H350.172V160.391C350.13 159.656 349.932 159.089 349.578 158.688C349.224 158.281 348.745 158.078 348.141 158.078ZM353.812 159.797L354.391 154.125H360.219V155.461H355.617L355.273 158.562C355.831 158.234 356.464 158.07 357.172 158.07C358.208 158.07 359.031 158.414 359.641 159.102C360.25 159.784 360.555 160.708 360.555 161.875C360.555 163.047 360.237 163.971 359.602 164.648C358.971 165.32 358.089 165.656 356.953 165.656C355.948 165.656 355.128 165.378 354.492 164.82C353.857 164.263 353.495 163.492 353.406 162.508H354.773C354.862 163.159 355.094 163.651 355.469 163.984C355.844 164.312 356.339 164.477 356.953 164.477C357.625 164.477 358.151 164.247 358.531 163.789C358.917 163.331 359.109 162.698 359.109 161.891C359.109 161.13 358.901 160.521 358.484 160.062C358.073 159.599 357.523 159.367 356.836 159.367C356.206 159.367 355.711 159.505 355.352 159.781L354.969 160.094L353.812 159.797ZM362.312 164.742C362.312 164.492 362.385 164.284 362.531 164.117C362.682 163.951 362.906 163.867 363.203 163.867C363.5 163.867 363.724 163.951 363.875 164.117C364.031 164.284 364.109 164.492 364.109 164.742C364.109 164.982 364.031 165.182 363.875 165.344C363.724 165.505 363.5 165.586 363.203 165.586C362.906 165.586 362.682 165.505 362.531 165.344C362.385 165.182 362.312 164.982 362.312 164.742ZM366.531 164.742C366.531 164.492 366.604 164.284 366.75 164.117C366.901 163.951 367.125 163.867 367.422 163.867C367.719 163.867 367.943 163.951 368.094 164.117C368.25 164.284 368.328 164.492 368.328 164.742C368.328 164.982 368.25 165.182 368.094 165.344C367.943 165.505 367.719 165.586 367.422 165.586C367.125 165.586 366.901 165.505 366.75 165.344C366.604 165.182 366.531 164.982 366.531 164.742ZM370.75 164.742C370.75 164.492 370.823 164.284 370.969 164.117C371.12 163.951 371.344 163.867 371.641 163.867C371.938 163.867 372.161 163.951 372.312 164.117C372.469 164.284 372.547 164.492 372.547 164.742C372.547 164.982 372.469 165.182 372.312 165.344C372.161 165.505 371.938 165.586 371.641 165.586C371.344 165.586 371.12 165.505 370.969 165.344C370.823 165.182 370.75 164.982 370.75 164.742Z" fill="#2097F6"/>
<rect x="0.5" y="0.5" width="399" height="199" rx="7.5" stroke="#2097F6"/>
</g>
<defs>
<filter id="filter0_d" x="0" y="0" width="404" height="204" filterUnits="userSpaceOnUse" color-interpolation-filters="sRGB">
<feFlood flood-opacity="0" result="BackgroundImageFix"/>
<feColorMatrix in="SourceAlpha" type="matrix" values="0 0 0 0 0 0 0 0 0 0 0 0 0 0 0 0 0 0 127 0"/>
<feOffset dx="4" dy="4"/>
<feColorMatrix type="matrix" values="0 0 0 0 0.513733 0 0 0 0 0.767915 0 0 0 0 0.970833 0 0 0 1 0"/>
<feBlend mode="normal" in2="BackgroundImageFix" result="effect1_dropShadow"/>
<feBlend mode="normal" in="SourceGraphic" in2="effect1_dropShadow" result="shape"/>
</filter>
</defs>
</svg>
