<svg width="673" height="121" viewBox="0 0 673 121" fill="none" xmlns="http://www.w3.org/2000/svg">
<g filter="url(#filter0_d)">
<rect x="226" y="29" width="225" height="88" rx="8" fill="#EEEEFF"/>
<path d="M292.844 54.625L295.766 62.875L298.672 54.625H301.75V66H299.398V62.8906L299.633 57.5234L296.562 66H294.953L291.891 57.5312L292.125 62.8906V66H289.781V54.625H292.844ZM308.547 66C308.443 65.7969 308.367 65.5443 308.32 65.2422C307.773 65.8516 307.062 66.1562 306.188 66.1562C305.359 66.1562 304.672 65.9167 304.125 65.4375C303.583 64.9583 303.312 64.3542 303.312 63.625C303.312 62.7292 303.643 62.0417 304.305 61.5625C304.971 61.0833 305.932 60.8411 307.188 60.8359H308.227V60.3516C308.227 59.9609 308.125 59.6484 307.922 59.4141C307.724 59.1797 307.409 59.0625 306.977 59.0625C306.596 59.0625 306.297 59.1536 306.078 59.3359C305.865 59.5182 305.758 59.7682 305.758 60.0859H303.5C303.5 59.5964 303.651 59.1432 303.953 58.7266C304.255 58.3099 304.682 57.9844 305.234 57.75C305.786 57.5104 306.406 57.3906 307.094 57.3906C308.135 57.3906 308.961 57.6536 309.57 58.1797C310.185 58.7005 310.492 59.4349 310.492 60.3828V64.0469C310.497 64.849 310.609 65.4557 310.828 65.8672V66H308.547ZM306.68 64.4297C307.013 64.4297 307.32 64.3568 307.602 64.2109C307.883 64.0599 308.091 63.8594 308.227 63.6094V62.1562H307.383C306.253 62.1562 305.651 62.5469 305.578 63.3281L305.57 63.4609C305.57 63.7422 305.669 63.974 305.867 64.1562C306.065 64.3385 306.336 64.4297 306.68 64.4297ZM314.609 66H312.344V57.5469H314.609V66ZM312.211 55.3594C312.211 55.0208 312.323 54.7422 312.547 54.5234C312.776 54.3047 313.086 54.1953 313.477 54.1953C313.862 54.1953 314.169 54.3047 314.398 54.5234C314.628 54.7422 314.742 55.0208 314.742 55.3594C314.742 55.7031 314.625 55.9844 314.391 56.2031C314.161 56.4219 313.857 56.5312 313.477 56.5312C313.096 56.5312 312.789 56.4219 312.555 56.2031C312.326 55.9844 312.211 55.7031 312.211 55.3594ZM318.555 57.5469L318.625 58.5234C319.229 57.7682 320.039 57.3906 321.055 57.3906C321.951 57.3906 322.617 57.6536 323.055 58.1797C323.492 58.7057 323.716 59.4922 323.727 60.5391V66H321.469V60.5938C321.469 60.1146 321.365 59.7682 321.156 59.5547C320.948 59.3359 320.602 59.2266 320.117 59.2266C319.482 59.2266 319.005 59.4974 318.688 60.0391V66H316.43V57.5469H318.555ZM330.047 66V59.2031H328.789V57.5469H330.047V56.8281C330.047 55.8802 330.318 55.1458 330.859 54.625C331.406 54.099 332.169 53.8359 333.148 53.8359C333.461 53.8359 333.844 53.888 334.297 53.9922L334.273 55.7422C334.086 55.6953 333.857 55.6719 333.586 55.6719C332.737 55.6719 332.312 56.0703 332.312 56.8672V57.5469H333.992V59.2031H332.312V66H330.047ZM340.227 65.1406C339.669 65.8177 338.898 66.1562 337.914 66.1562C337.008 66.1562 336.315 65.8958 335.836 65.375C335.362 64.8542 335.12 64.0911 335.109 63.0859V57.5469H337.367V63.0078C337.367 63.888 337.768 64.3281 338.57 64.3281C339.336 64.3281 339.862 64.0625 340.148 63.5312V57.5469H342.414V66H340.289L340.227 65.1406ZM346.195 57.5469L346.266 58.5234C346.87 57.7682 347.68 57.3906 348.695 57.3906C349.591 57.3906 350.258 57.6536 350.695 58.1797C351.133 58.7057 351.357 59.4922 351.367 60.5391V66H349.109V60.5938C349.109 60.1146 349.005 59.7682 348.797 59.5547C348.589 59.3359 348.242 59.2266 347.758 59.2266C347.122 59.2266 346.646 59.4974 346.328 60.0391V66H344.07V57.5469H346.195ZM356.602 64.3359C357.018 64.3359 357.357 64.2214 357.617 63.9922C357.878 63.763 358.013 63.4583 358.023 63.0781H360.141C360.135 63.651 359.979 64.1771 359.672 64.6562C359.365 65.1302 358.943 65.5 358.406 65.7656C357.875 66.026 357.286 66.1562 356.641 66.1562C355.432 66.1562 354.479 65.7734 353.781 65.0078C353.083 64.237 352.734 63.1745 352.734 61.8203V61.6719C352.734 60.3698 353.081 59.3307 353.773 58.5547C354.466 57.7786 355.417 57.3906 356.625 57.3906C357.682 57.3906 358.529 57.6927 359.164 58.2969C359.805 58.8958 360.13 59.6953 360.141 60.6953H358.023C358.013 60.2578 357.878 59.9036 357.617 59.6328C357.357 59.3568 357.013 59.2188 356.586 59.2188C356.06 59.2188 355.661 59.4115 355.391 59.7969C355.125 60.1771 354.992 60.7969 354.992 61.6562V61.8906C354.992 62.7604 355.125 63.3854 355.391 63.7656C355.656 64.1458 356.06 64.3359 356.602 64.3359ZM364.133 55.4688V57.5469H365.578V59.2031H364.133V63.4219C364.133 63.7344 364.193 63.9583 364.312 64.0938C364.432 64.2292 364.661 64.2969 365 64.2969C365.25 64.2969 365.471 64.2786 365.664 64.2422V65.9531C365.221 66.0885 364.766 66.1562 364.297 66.1562C362.714 66.1562 361.906 65.3568 361.875 63.7578V59.2031H360.641V57.5469H361.875V55.4688H364.133ZM369.219 66H366.953V57.5469H369.219V66ZM366.82 55.3594C366.82 55.0208 366.932 54.7422 367.156 54.5234C367.385 54.3047 367.695 54.1953 368.086 54.1953C368.471 54.1953 368.779 54.3047 369.008 54.5234C369.237 54.7422 369.352 55.0208 369.352 55.3594C369.352 55.7031 369.234 55.9844 369 56.2031C368.771 56.4219 368.466 56.5312 368.086 56.5312C367.706 56.5312 367.398 56.4219 367.164 56.2031C366.935 55.9844 366.82 55.7031 366.82 55.3594ZM370.734 61.6953C370.734 60.8568 370.896 60.1094 371.219 59.4531C371.542 58.7969 372.005 58.2891 372.609 57.9297C373.219 57.5703 373.924 57.3906 374.727 57.3906C375.867 57.3906 376.797 57.7396 377.516 58.4375C378.24 59.1354 378.643 60.0833 378.727 61.2812L378.742 61.8594C378.742 63.1562 378.38 64.1979 377.656 64.9844C376.932 65.7656 375.961 66.1562 374.742 66.1562C373.523 66.1562 372.549 65.7656 371.82 64.9844C371.096 64.2031 370.734 63.1406 370.734 61.7969V61.6953ZM372.992 61.8594C372.992 62.6615 373.143 63.276 373.445 63.7031C373.747 64.125 374.18 64.3359 374.742 64.3359C375.289 64.3359 375.716 64.1276 376.023 63.7109C376.331 63.2891 376.484 62.6172 376.484 61.6953C376.484 60.9089 376.331 60.2995 376.023 59.8672C375.716 59.4349 375.284 59.2188 374.727 59.2188C374.174 59.2188 373.747 59.4349 373.445 59.8672C373.143 60.2943 372.992 60.9583 372.992 61.8594ZM382.211 57.5469L382.281 58.5234C382.885 57.7682 383.695 57.3906 384.711 57.3906C385.607 57.3906 386.273 57.6536 386.711 58.1797C387.148 58.7057 387.372 59.4922 387.383 60.5391V66H385.125V60.5938C385.125 60.1146 385.021 59.7682 384.812 59.5547C384.604 59.3359 384.258 59.2266 383.773 59.2266C383.138 59.2266 382.661 59.4974 382.344 60.0391V66H380.086V57.5469H382.211Z" fill="#5452F6"/>
<path d="M325.5 109C324.97 109 324.461 108.789 324.086 108.414C323.711 108.039 323.5 107.53 323.5 107V85.1533C323.502 84.5828 323.729 84.0361 324.133 83.6326C324.536 83.2292 325.083 83.0018 325.653 83H351.357C351.925 83.0018 352.469 83.2281 352.87 83.6295C353.272 84.031 353.498 84.5749 353.5 85.1427V106.847C353.498 107.417 353.271 107.964 352.867 108.367C352.464 108.771 351.917 108.998 351.347 109H325.5Z" stroke="#5452F6" stroke-width="2" stroke-linecap="round" stroke-linejoin="round"/>
<path d="M328.967 105C328.589 105.01 328.222 104.871 327.947 104.611C327.672 104.352 327.512 103.994 327.5 103.616V88.4907C327.513 88.084 327.687 87.699 327.983 87.4197C328.279 87.1405 328.673 86.9896 329.08 87H347.928C348.333 86.99 348.725 87.1403 349.02 87.4183C349.314 87.6962 349.487 88.0793 349.5 88.484V103.509C349.487 103.916 349.313 104.301 349.017 104.58C348.721 104.86 348.327 105.01 347.92 105H328.967Z" stroke="#5452F6" stroke-width="2" stroke-linecap="round" stroke-linejoin="round"/>
<path d="M328.967 105C328.589 105.01 328.222 104.871 327.947 104.611C327.672 104.352 327.512 103.994 327.5 103.616V88.4907C327.513 88.084 327.687 87.699 327.983 87.4197C328.279 87.1405 328.673 86.9896 329.08 87H347.928C348.333 86.99 348.725 87.1403 349.02 87.4183C349.314 87.6962 349.487 88.0793 349.5 88.484V103.509C349.487 103.916 349.313 104.301 349.017 104.58C348.721 104.86 348.327 105.01 347.92 105H328.967Z" stroke="#5452F6" stroke-width="2" stroke-linecap="round" stroke-linejoin="round"/>
<path d="M340.5 96H344.5" stroke="#5452F6" stroke-width="2" stroke-linecap="round" stroke-linejoin="round"/>
<path d="M333.5 93L336.5 96L333.5 99" stroke="#5452F6" stroke-width="2" stroke-linecap="round" stroke-linejoin="round"/>
<rect x="226.5" y="29.5" width="224" height="87" rx="7.5" stroke="#5452F6"/>
</g>
<path d="M592.852 9.57031C592.852 10.6901 592.654 11.6719 592.258 12.5156C591.862 13.3594 591.294 14.0104 590.555 14.4688C589.82 14.9271 588.977 15.1562 588.023 15.1562C587.081 15.1562 586.24 14.9297 585.5 14.4766C584.76 14.0234 584.188 13.3776 583.781 12.5391C583.375 11.6953 583.169 10.7266 583.164 9.63281V9.07031C583.164 7.95052 583.365 6.96615 583.766 6.11719C584.172 5.26302 584.742 4.60938 585.477 4.15625C586.216 3.69792 587.06 3.46875 588.008 3.46875C588.956 3.46875 589.797 3.69792 590.531 4.15625C591.271 4.60938 591.841 5.26302 592.242 6.11719C592.648 6.96615 592.852 7.94792 592.852 9.0625V9.57031ZM590.477 9.05469C590.477 7.86198 590.263 6.95573 589.836 6.33594C589.409 5.71615 588.799 5.40625 588.008 5.40625C587.221 5.40625 586.615 5.71354 586.188 6.32812C585.76 6.9375 585.544 7.83333 585.539 9.01562V9.57031C585.539 10.7318 585.753 11.6328 586.18 12.2734C586.607 12.9141 587.221 13.2344 588.023 13.2344C588.81 13.2344 589.414 12.9271 589.836 12.3125C590.258 11.6927 590.471 10.7917 590.477 9.60938V9.05469ZM599.469 14.1406C598.911 14.8177 598.141 15.1562 597.156 15.1562C596.25 15.1562 595.557 14.8958 595.078 14.375C594.604 13.8542 594.362 13.0911 594.352 12.0859V6.54688H596.609V12.0078C596.609 12.888 597.01 13.3281 597.812 13.3281C598.578 13.3281 599.104 13.0625 599.391 12.5312V6.54688H601.656V15H599.531L599.469 14.1406ZM606.062 4.46875V6.54688H607.508V8.20312H606.062V12.4219C606.062 12.7344 606.122 12.9583 606.242 13.0938C606.362 13.2292 606.591 13.2969 606.93 13.2969C607.18 13.2969 607.401 13.2786 607.594 13.2422V14.9531C607.151 15.0885 606.695 15.1562 606.227 15.1562C604.643 15.1562 603.836 14.3568 603.805 12.7578V8.20312H602.57V6.54688H603.805V4.46875H606.062ZM616.375 10.8516C616.375 12.1536 616.078 13.1979 615.484 13.9844C614.896 14.7656 614.099 15.1562 613.094 15.1562C612.24 15.1562 611.549 14.8594 611.023 14.2656V18.25H608.766V6.54688H610.859L610.938 7.375C611.484 6.71875 612.198 6.39062 613.078 6.39062C614.12 6.39062 614.93 6.77604 615.508 7.54688C616.086 8.31771 616.375 9.38021 616.375 10.7344V10.8516ZM614.117 10.6875C614.117 9.90104 613.977 9.29427 613.695 8.86719C613.419 8.4401 613.016 8.22656 612.484 8.22656C611.776 8.22656 611.289 8.4974 611.023 9.03906V12.5C611.299 13.0573 611.792 13.3359 612.5 13.3359C613.578 13.3359 614.117 12.4531 614.117 10.6875ZM622.844 14.1406C622.286 14.8177 621.516 15.1562 620.531 15.1562C619.625 15.1562 618.932 14.8958 618.453 14.375C617.979 13.8542 617.737 13.0911 617.727 12.0859V6.54688H619.984V12.0078C619.984 12.888 620.385 13.3281 621.188 13.3281C621.953 13.3281 622.479 13.0625 622.766 12.5312V6.54688H625.031V15H622.906L622.844 14.1406ZM629.438 4.46875V6.54688H630.883V8.20312H629.438V12.4219C629.438 12.7344 629.497 12.9583 629.617 13.0938C629.737 13.2292 629.966 13.2969 630.305 13.2969C630.555 13.2969 630.776 13.2786 630.969 13.2422V14.9531C630.526 15.0885 630.07 15.1562 629.602 15.1562C628.018 15.1562 627.211 14.3568 627.18 12.7578V8.20312H625.945V6.54688H627.18V4.46875H629.438ZM636.719 12.6641C636.719 12.388 636.581 12.1719 636.305 12.0156C636.034 11.8542 635.596 11.7109 634.992 11.5859C632.982 11.1641 631.977 10.3099 631.977 9.02344C631.977 8.27344 632.286 7.64844 632.906 7.14844C633.531 6.64323 634.346 6.39062 635.352 6.39062C636.424 6.39062 637.281 6.64323 637.922 7.14844C638.568 7.65365 638.891 8.3099 638.891 9.11719H636.633C636.633 8.79427 636.529 8.52865 636.32 8.32031C636.112 8.10677 635.786 8 635.344 8C634.964 8 634.669 8.08594 634.461 8.25781C634.253 8.42969 634.148 8.64844 634.148 8.91406C634.148 9.16406 634.266 9.36719 634.5 9.52344C634.74 9.67448 635.141 9.80729 635.703 9.92188C636.266 10.0312 636.74 10.1562 637.125 10.2969C638.318 10.7344 638.914 11.4922 638.914 12.5703C638.914 13.3411 638.583 13.9661 637.922 14.4453C637.26 14.9193 636.406 15.1562 635.359 15.1562C634.651 15.1562 634.021 15.0312 633.469 14.7812C632.922 14.526 632.492 14.1797 632.18 13.7422C631.867 13.2995 631.711 12.8229 631.711 12.3125H633.852C633.872 12.7135 634.021 13.0208 634.297 13.2344C634.573 13.4479 634.943 13.5547 635.406 13.5547C635.839 13.5547 636.164 13.474 636.383 13.3125C636.607 13.1458 636.719 12.9297 636.719 12.6641Z" fill="#5452F6"/>
<path d="M551.156 60.7734H556.547V62H549.648V50.625H551.156V60.7734ZM559.602 62H558.156V53.5469H559.602V62ZM558.039 51.3047C558.039 51.0703 558.109 50.8724 558.25 50.7109C558.396 50.5495 558.609 50.4688 558.891 50.4688C559.172 50.4688 559.385 50.5495 559.531 50.7109C559.677 50.8724 559.75 51.0703 559.75 51.3047C559.75 51.5391 559.677 51.7344 559.531 51.8906C559.385 52.0469 559.172 52.125 558.891 52.125C558.609 52.125 558.396 52.0469 558.25 51.8906C558.109 51.7344 558.039 51.5391 558.039 51.3047ZM566.844 59.7578C566.844 59.3672 566.695 59.0651 566.398 58.8516C566.107 58.6328 565.594 58.4453 564.859 58.2891C564.13 58.1328 563.549 57.9453 563.117 57.7266C562.69 57.5078 562.372 57.2474 562.164 56.9453C561.961 56.6432 561.859 56.2839 561.859 55.8672C561.859 55.1745 562.151 54.5885 562.734 54.1094C563.323 53.6302 564.073 53.3906 564.984 53.3906C565.943 53.3906 566.719 53.638 567.312 54.1328C567.911 54.6276 568.211 55.2604 568.211 56.0312H566.758C566.758 55.6354 566.589 55.2943 566.25 55.0078C565.917 54.7214 565.495 54.5781 564.984 54.5781C564.458 54.5781 564.047 54.6927 563.75 54.9219C563.453 55.151 563.305 55.4505 563.305 55.8203C563.305 56.1693 563.443 56.4323 563.719 56.6094C563.995 56.7865 564.492 56.9557 565.211 57.1172C565.935 57.2786 566.521 57.4714 566.969 57.6953C567.417 57.9193 567.747 58.1901 567.961 58.5078C568.18 58.8203 568.289 59.2031 568.289 59.6562C568.289 60.4115 567.987 61.0182 567.383 61.4766C566.779 61.9297 565.995 62.1562 565.031 62.1562C564.354 62.1562 563.755 62.0365 563.234 61.7969C562.714 61.5573 562.305 61.224 562.008 60.7969C561.716 60.3646 561.57 59.8984 561.57 59.3984H563.016C563.042 59.8828 563.234 60.2682 563.594 60.5547C563.958 60.8359 564.438 60.9766 565.031 60.9766C565.578 60.9766 566.016 60.8672 566.344 60.6484C566.677 60.4245 566.844 60.1276 566.844 59.7578ZM572.133 51.5V53.5469H573.711V54.6641H572.133V59.9062C572.133 60.2448 572.203 60.5 572.344 60.6719C572.484 60.8385 572.724 60.9219 573.062 60.9219C573.229 60.9219 573.458 60.8906 573.75 60.8281V62C573.37 62.1042 573 62.1562 572.641 62.1562C571.995 62.1562 571.508 61.9609 571.18 61.5703C570.852 61.1797 570.688 60.625 570.688 59.9062V54.6641H569.148V53.5469H570.688V51.5H572.133ZM578.992 57.6953C578.992 56.8672 579.154 56.1224 579.477 55.4609C579.805 54.7995 580.258 54.2891 580.836 53.9297C581.419 53.5703 582.083 53.3906 582.828 53.3906C583.979 53.3906 584.909 53.7891 585.617 54.5859C586.331 55.3828 586.688 56.4427 586.688 57.7656V57.8672C586.688 58.6901 586.529 59.4297 586.211 60.0859C585.898 60.737 585.448 61.2448 584.859 61.6094C584.276 61.974 583.604 62.1562 582.844 62.1562C581.698 62.1562 580.768 61.7578 580.055 60.9609C579.346 60.1641 578.992 59.1094 578.992 57.7969V57.6953ZM580.445 57.8672C580.445 58.8047 580.661 59.5573 581.094 60.125C581.531 60.6927 582.115 60.9766 582.844 60.9766C583.578 60.9766 584.161 60.6901 584.594 60.1172C585.026 59.5391 585.242 58.7318 585.242 57.6953C585.242 56.7682 585.021 56.0182 584.578 55.4453C584.141 54.8672 583.557 54.5781 582.828 54.5781C582.115 54.5781 581.539 54.862 581.102 55.4297C580.664 55.9974 580.445 56.8099 580.445 57.8672ZM589.211 62V54.6641H587.875V53.5469H589.211V52.6797C589.211 51.7734 589.453 51.0729 589.938 50.5781C590.422 50.0833 591.107 49.8359 591.992 49.8359C592.326 49.8359 592.656 49.8802 592.984 49.9688L592.906 51.1406C592.661 51.0938 592.401 51.0703 592.125 51.0703C591.656 51.0703 591.294 51.2083 591.039 51.4844C590.784 51.7552 590.656 52.1458 590.656 52.6562V53.5469H592.461V54.6641H590.656V62H589.211ZM597.648 57.6953C597.648 56.8672 597.81 56.1224 598.133 55.4609C598.461 54.7995 598.914 54.2891 599.492 53.9297C600.076 53.5703 600.74 53.3906 601.484 53.3906C602.635 53.3906 603.565 53.7891 604.273 54.5859C604.987 55.3828 605.344 56.4427 605.344 57.7656V57.8672C605.344 58.6901 605.185 59.4297 604.867 60.0859C604.555 60.737 604.104 61.2448 603.516 61.6094C602.932 61.974 602.26 62.1562 601.5 62.1562C600.354 62.1562 599.424 61.7578 598.711 60.9609C598.003 60.1641 597.648 59.1094 597.648 57.7969V57.6953ZM599.102 57.8672C599.102 58.8047 599.318 59.5573 599.75 60.125C600.188 60.6927 600.771 60.9766 601.5 60.9766C602.234 60.9766 602.818 60.6901 603.25 60.1172C603.682 59.5391 603.898 58.7318 603.898 57.6953C603.898 56.7682 603.677 56.0182 603.234 55.4453C602.797 54.8672 602.214 54.5781 601.484 54.5781C600.771 54.5781 600.195 54.862 599.758 55.4297C599.32 55.9974 599.102 56.8099 599.102 57.8672ZM614.297 57.8672C614.297 59.1536 614.003 60.1901 613.414 60.9766C612.826 61.763 612.029 62.1562 611.023 62.1562C609.997 62.1562 609.19 61.8307 608.602 61.1797V65.25H607.156V53.5469H608.477L608.547 54.4844C609.135 53.7552 609.953 53.3906 611 53.3906C612.016 53.3906 612.818 53.7734 613.406 54.5391C614 55.3047 614.297 56.3698 614.297 57.7344V57.8672ZM612.852 57.7031C612.852 56.75 612.648 55.9974 612.242 55.4453C611.836 54.8932 611.279 54.6172 610.57 54.6172C609.695 54.6172 609.039 55.0052 608.602 55.7812V59.8203C609.034 60.5911 609.695 60.9766 610.586 60.9766C611.279 60.9766 611.828 60.7031 612.234 60.1562C612.646 59.6042 612.852 58.7865 612.852 57.7031ZM619.648 62.1562C618.503 62.1562 617.57 61.7812 616.852 61.0312C616.133 60.276 615.773 59.2682 615.773 58.0078V57.7422C615.773 56.9036 615.932 56.1562 616.25 55.5C616.573 54.8385 617.021 54.3229 617.594 53.9531C618.172 53.5781 618.797 53.3906 619.469 53.3906C620.568 53.3906 621.422 53.7526 622.031 54.4766C622.641 55.2005 622.945 56.237 622.945 57.5859V58.1875H617.219C617.24 59.0208 617.482 59.6953 617.945 60.2109C618.414 60.7214 619.008 60.9766 619.727 60.9766C620.237 60.9766 620.669 60.8724 621.023 60.6641C621.378 60.4557 621.688 60.1797 621.953 59.8359L622.836 60.5234C622.128 61.612 621.065 62.1562 619.648 62.1562ZM619.469 54.5781C618.885 54.5781 618.396 54.7917 618 55.2188C617.604 55.6406 617.359 56.2344 617.266 57H621.5V56.8906C621.458 56.1562 621.26 55.5885 620.906 55.1875C620.552 54.7812 620.073 54.5781 619.469 54.5781ZM628.711 54.8438C628.492 54.8073 628.255 54.7891 628 54.7891C627.052 54.7891 626.409 55.1927 626.07 56V62H624.625V53.5469H626.031L626.055 54.5234C626.529 53.7682 627.201 53.3906 628.07 53.3906C628.352 53.3906 628.565 53.4271 628.711 53.5V54.8438ZM634.953 62C634.87 61.8333 634.802 61.5365 634.75 61.1094C634.078 61.8073 633.276 62.1562 632.344 62.1562C631.51 62.1562 630.826 61.9219 630.289 61.4531C629.758 60.9792 629.492 60.3802 629.492 59.6562C629.492 58.776 629.826 58.0938 630.492 57.6094C631.164 57.1198 632.107 56.875 633.32 56.875H634.727V56.2109C634.727 55.7057 634.576 55.3047 634.273 55.0078C633.971 54.7057 633.526 54.5547 632.938 54.5547C632.422 54.5547 631.99 54.6849 631.641 54.9453C631.292 55.2057 631.117 55.5208 631.117 55.8906H629.664C629.664 55.4688 629.812 55.0625 630.109 54.6719C630.411 54.276 630.818 53.9635 631.328 53.7344C631.844 53.5052 632.409 53.3906 633.023 53.3906C633.997 53.3906 634.76 53.6354 635.312 54.125C635.865 54.6094 636.151 55.2786 636.172 56.1328V60.0234C636.172 60.7995 636.271 61.4167 636.469 61.875V62H634.953ZM632.555 60.8984C633.008 60.8984 633.438 60.7812 633.844 60.5469C634.25 60.3125 634.544 60.0078 634.727 59.6328V57.8984H633.594C631.823 57.8984 630.938 58.4167 630.938 59.4531C630.938 59.9062 631.089 60.2604 631.391 60.5156C631.693 60.7708 632.081 60.8984 632.555 60.8984ZM640.398 51.5V53.5469H641.977V54.6641H640.398V59.9062C640.398 60.2448 640.469 60.5 640.609 60.6719C640.75 60.8385 640.99 60.9219 641.328 60.9219C641.495 60.9219 641.724 60.8906 642.016 60.8281V62C641.635 62.1042 641.266 62.1562 640.906 62.1562C640.26 62.1562 639.773 61.9609 639.445 61.5703C639.117 61.1797 638.953 60.625 638.953 59.9062V54.6641H637.414V53.5469H638.953V51.5H640.398ZM645.242 62H643.797V53.5469H645.242V62ZM643.68 51.3047C643.68 51.0703 643.75 50.8724 643.891 50.7109C644.036 50.5495 644.25 50.4688 644.531 50.4688C644.812 50.4688 645.026 50.5495 645.172 50.7109C645.318 50.8724 645.391 51.0703 645.391 51.3047C645.391 51.5391 645.318 51.7344 645.172 51.8906C645.026 52.0469 644.812 52.125 644.531 52.125C644.25 52.125 644.036 52.0469 643.891 51.8906C643.75 51.7344 643.68 51.5391 643.68 51.3047ZM647.18 57.6953C647.18 56.8672 647.341 56.1224 647.664 55.4609C647.992 54.7995 648.445 54.2891 649.023 53.9297C649.607 53.5703 650.271 53.3906 651.016 53.3906C652.167 53.3906 653.096 53.7891 653.805 54.5859C654.518 55.3828 654.875 56.4427 654.875 57.7656V57.8672C654.875 58.6901 654.716 59.4297 654.398 60.0859C654.086 60.737 653.635 61.2448 653.047 61.6094C652.464 61.974 651.792 62.1562 651.031 62.1562C649.885 62.1562 648.956 61.7578 648.242 60.9609C647.534 60.1641 647.18 59.1094 647.18 57.7969V57.6953ZM648.633 57.8672C648.633 58.8047 648.849 59.5573 649.281 60.125C649.719 60.6927 650.302 60.9766 651.031 60.9766C651.766 60.9766 652.349 60.6901 652.781 60.1172C653.214 59.5391 653.43 58.7318 653.43 57.6953C653.43 56.7682 653.208 56.0182 652.766 55.4453C652.328 54.8672 651.745 54.5781 651.016 54.5781C650.302 54.5781 649.727 54.862 649.289 55.4297C648.852 55.9974 648.633 56.8099 648.633 57.8672ZM658.055 53.5469L658.102 54.6094C658.747 53.7969 659.591 53.3906 660.633 53.3906C662.419 53.3906 663.32 54.3984 663.336 56.4141V62H661.891V56.4062C661.885 55.7969 661.745 55.3464 661.469 55.0547C661.198 54.763 660.773 54.6172 660.195 54.6172C659.727 54.6172 659.315 54.7422 658.961 54.9922C658.607 55.2422 658.331 55.5703 658.133 55.9766V62H656.688V53.5469H658.055ZM670.438 59.7578C670.438 59.3672 670.289 59.0651 669.992 58.8516C669.701 58.6328 669.188 58.4453 668.453 58.2891C667.724 58.1328 667.143 57.9453 666.711 57.7266C666.284 57.5078 665.966 57.2474 665.758 56.9453C665.555 56.6432 665.453 56.2839 665.453 55.8672C665.453 55.1745 665.745 54.5885 666.328 54.1094C666.917 53.6302 667.667 53.3906 668.578 53.3906C669.536 53.3906 670.312 53.638 670.906 54.1328C671.505 54.6276 671.805 55.2604 671.805 56.0312H670.352C670.352 55.6354 670.182 55.2943 669.844 55.0078C669.51 54.7214 669.089 54.5781 668.578 54.5781C668.052 54.5781 667.641 54.6927 667.344 54.9219C667.047 55.151 666.898 55.4505 666.898 55.8203C666.898 56.1693 667.036 56.4323 667.312 56.6094C667.589 56.7865 668.086 56.9557 668.805 57.1172C669.529 57.2786 670.115 57.4714 670.562 57.6953C671.01 57.9193 671.341 58.1901 671.555 58.5078C671.773 58.8203 671.883 59.2031 671.883 59.6562C671.883 60.4115 671.581 61.0182 670.977 61.4766C670.372 61.9297 669.589 62.1562 668.625 62.1562C667.948 62.1562 667.349 62.0365 666.828 61.7969C666.307 61.5573 665.898 61.224 665.602 60.7969C665.31 60.3646 665.164 59.8984 665.164 59.3984H666.609C666.635 59.8828 666.828 60.2682 667.188 60.5547C667.552 60.8359 668.031 60.9766 668.625 60.9766C669.172 60.9766 669.609 60.8672 669.938 60.6484C670.271 60.4245 670.438 60.1276 670.438 59.7578Z" fill="#5452F6"/>
<path d="M62 15H59.6562V3.625H62V15ZM66.1094 6.54688L66.1797 7.52344C66.7839 6.76823 67.5938 6.39062 68.6094 6.39062C69.5052 6.39062 70.1719 6.65365 70.6094 7.17969C71.0469 7.70573 71.2708 8.49219 71.2812 9.53906V15H69.0234V9.59375C69.0234 9.11458 68.9193 8.76823 68.7109 8.55469C68.5026 8.33594 68.1562 8.22656 67.6719 8.22656C67.0365 8.22656 66.5599 8.4974 66.2422 9.03906V15H63.9844V6.54688H66.1094ZM80.6094 10.8516C80.6094 12.1536 80.3125 13.1979 79.7188 13.9844C79.1302 14.7656 78.3333 15.1562 77.3281 15.1562C76.474 15.1562 75.7839 14.8594 75.2578 14.2656V18.25H73V6.54688H75.0938L75.1719 7.375C75.7188 6.71875 76.4323 6.39062 77.3125 6.39062C78.3542 6.39062 79.1641 6.77604 79.7422 7.54688C80.3203 8.31771 80.6094 9.38021 80.6094 10.7344V10.8516ZM78.3516 10.6875C78.3516 9.90104 78.2109 9.29427 77.9297 8.86719C77.6536 8.4401 77.25 8.22656 76.7188 8.22656C76.0104 8.22656 75.5234 8.4974 75.2578 9.03906V12.5C75.5339 13.0573 76.026 13.3359 76.7344 13.3359C77.8125 13.3359 78.3516 12.4531 78.3516 10.6875ZM87.0781 14.1406C86.5208 14.8177 85.75 15.1562 84.7656 15.1562C83.8594 15.1562 83.1667 14.8958 82.6875 14.375C82.2135 13.8542 81.9714 13.0911 81.9609 12.0859V6.54688H84.2188V12.0078C84.2188 12.888 84.6198 13.3281 85.4219 13.3281C86.1875 13.3281 86.7135 13.0625 87 12.5312V6.54688H89.2656V15H87.1406L87.0781 14.1406ZM93.6719 4.46875V6.54688H95.1172V8.20312H93.6719V12.4219C93.6719 12.7344 93.7318 12.9583 93.8516 13.0938C93.9714 13.2292 94.2005 13.2969 94.5391 13.2969C94.7891 13.2969 95.0104 13.2786 95.2031 13.2422V14.9531C94.7604 15.0885 94.3047 15.1562 93.8359 15.1562C92.2526 15.1562 91.4453 14.3568 91.4141 12.7578V8.20312H90.1797V6.54688H91.4141V4.46875H93.6719Z" fill="#5452F6"/>
<path d="M10.1094 55.3906C9.96875 56.5938 9.52344 57.5234 8.77344 58.1797C8.02865 58.8307 7.03646 59.1562 5.79688 59.1562C4.45312 59.1562 3.375 58.6745 2.5625 57.7109C1.75521 56.7474 1.35156 55.4583 1.35156 53.8438V52.75C1.35156 51.6927 1.53906 50.763 1.91406 49.9609C2.29427 49.1589 2.83073 48.5443 3.52344 48.1172C4.21615 47.6849 5.01823 47.4688 5.92969 47.4688C7.13802 47.4688 8.10677 47.8073 8.83594 48.4844C9.5651 49.1562 9.98958 50.0885 10.1094 51.2812H8.60156C8.47135 50.375 8.1875 49.7188 7.75 49.3125C7.31771 48.9062 6.71094 48.7031 5.92969 48.7031C4.97135 48.7031 4.21875 49.0573 3.67188 49.7656C3.13021 50.474 2.85938 51.4818 2.85938 52.7891V53.8906C2.85938 55.125 3.11719 56.1068 3.63281 56.8359C4.14844 57.5651 4.86979 57.9297 5.79688 57.9297C6.63021 57.9297 7.26823 57.7422 7.71094 57.3672C8.15885 56.987 8.45573 56.3281 8.60156 55.3906H10.1094ZM11.5547 54.6953C11.5547 53.8672 11.7161 53.1224 12.0391 52.4609C12.3672 51.7995 12.8203 51.2891 13.3984 50.9297C13.9818 50.5703 14.6458 50.3906 15.3906 50.3906C16.5417 50.3906 17.4714 50.7891 18.1797 51.5859C18.8932 52.3828 19.25 53.4427 19.25 54.7656V54.8672C19.25 55.6901 19.0911 56.4297 18.7734 57.0859C18.4609 57.737 18.0104 58.2448 17.4219 58.6094C16.8385 58.974 16.1667 59.1562 15.4062 59.1562C14.2604 59.1562 13.3307 58.7578 12.6172 57.9609C11.9089 57.1641 11.5547 56.1094 11.5547 54.7969V54.6953ZM13.0078 54.8672C13.0078 55.8047 13.224 56.5573 13.6562 57.125C14.0938 57.6927 14.6771 57.9766 15.4062 57.9766C16.1406 57.9766 16.724 57.6901 17.1562 57.1172C17.5885 56.5391 17.8047 55.7318 17.8047 54.6953C17.8047 53.7682 17.5833 53.0182 17.1406 52.4453C16.7031 51.8672 16.1198 51.5781 15.3906 51.5781C14.6771 51.5781 14.1016 51.862 13.6641 52.4297C13.2266 52.9974 13.0078 53.8099 13.0078 54.8672ZM22.4297 50.5469L22.4766 51.6094C23.1224 50.7969 23.9661 50.3906 25.0078 50.3906C26.7943 50.3906 27.6953 51.3984 27.7109 53.4141V59H26.2656V53.4062C26.2604 52.7969 26.1198 52.3464 25.8438 52.0547C25.5729 51.763 25.1484 51.6172 24.5703 51.6172C24.1016 51.6172 23.6901 51.7422 23.3359 51.9922C22.9818 52.2422 22.7057 52.5703 22.5078 52.9766V59H21.0625V50.5469H22.4297ZM31.8516 48.5V50.5469H33.4297V51.6641H31.8516V56.9062C31.8516 57.2448 31.9219 57.5 32.0625 57.6719C32.2031 57.8385 32.4427 57.9219 32.7812 57.9219C32.9479 57.9219 33.1771 57.8906 33.4688 57.8281V59C33.0885 59.1042 32.7188 59.1562 32.3594 59.1562C31.7135 59.1562 31.2266 58.9609 30.8984 58.5703C30.5703 58.1797 30.4062 57.625 30.4062 56.9062V51.6641H28.8672V50.5469H30.4062V48.5H31.8516ZM39.2109 51.8438C38.9922 51.8073 38.7552 51.7891 38.5 51.7891C37.5521 51.7891 36.9089 52.1927 36.5703 53V59H35.125V50.5469H36.5312L36.5547 51.5234C37.0286 50.7682 37.7005 50.3906 38.5703 50.3906C38.8516 50.3906 39.0651 50.4271 39.2109 50.5V51.8438ZM45.4531 59C45.3698 58.8333 45.3021 58.5365 45.25 58.1094C44.5781 58.8073 43.776 59.1562 42.8438 59.1562C42.0104 59.1562 41.3255 58.9219 40.7891 58.4531C40.2578 57.9792 39.9922 57.3802 39.9922 56.6562C39.9922 55.776 40.3255 55.0938 40.9922 54.6094C41.6641 54.1198 42.6068 53.875 43.8203 53.875H45.2266V53.2109C45.2266 52.7057 45.0755 52.3047 44.7734 52.0078C44.4714 51.7057 44.026 51.5547 43.4375 51.5547C42.9219 51.5547 42.4896 51.6849 42.1406 51.9453C41.7917 52.2057 41.6172 52.5208 41.6172 52.8906H40.1641C40.1641 52.4688 40.3125 52.0625 40.6094 51.6719C40.9115 51.276 41.3177 50.9635 41.8281 50.7344C42.3438 50.5052 42.9089 50.3906 43.5234 50.3906C44.4974 50.3906 45.2604 50.6354 45.8125 51.125C46.3646 51.6094 46.651 52.2786 46.6719 53.1328V57.0234C46.6719 57.7995 46.7708 58.4167 46.9688 58.875V59H45.4531ZM43.0547 57.8984C43.5078 57.8984 43.9375 57.7812 44.3438 57.5469C44.75 57.3125 45.0443 57.0078 45.2266 56.6328V54.8984H44.0938C42.3229 54.8984 41.4375 55.4167 41.4375 56.4531C41.4375 56.9062 41.5885 57.2604 41.8906 57.5156C42.1927 57.7708 42.5807 57.8984 43.0547 57.8984ZM52.3281 57.9766C52.8438 57.9766 53.2943 57.8203 53.6797 57.5078C54.0651 57.1953 54.2786 56.8047 54.3203 56.3359H55.6875C55.6615 56.8203 55.4948 57.2812 55.1875 57.7188C54.8802 58.1562 54.4688 58.5052 53.9531 58.7656C53.4427 59.026 52.901 59.1562 52.3281 59.1562C51.1771 59.1562 50.2604 58.7734 49.5781 58.0078C48.901 57.237 48.5625 56.1849 48.5625 54.8516V54.6094C48.5625 53.7865 48.7135 53.0547 49.0156 52.4141C49.3177 51.7734 49.75 51.276 50.3125 50.9219C50.8802 50.5677 51.5495 50.3906 52.3203 50.3906C53.2682 50.3906 54.0547 50.6745 54.6797 51.2422C55.3099 51.8099 55.6458 52.5469 55.6875 53.4531H54.3203C54.2786 52.9062 54.0703 52.4583 53.6953 52.1094C53.3255 51.7552 52.8672 51.5781 52.3203 51.5781C51.5859 51.5781 51.0156 51.8438 50.6094 52.375C50.2083 52.901 50.0078 53.6641 50.0078 54.6641V54.9375C50.0078 55.9115 50.2083 56.6615 50.6094 57.1875C51.0104 57.7135 51.5833 57.9766 52.3281 57.9766ZM59.2734 48.5V50.5469H60.8516V51.6641H59.2734V56.9062C59.2734 57.2448 59.3438 57.5 59.4844 57.6719C59.625 57.8385 59.8646 57.9219 60.2031 57.9219C60.3698 57.9219 60.599 57.8906 60.8906 57.8281V59C60.5104 59.1042 60.1406 59.1562 59.7812 59.1562C59.1354 59.1562 58.6484 58.9609 58.3203 58.5703C57.9922 58.1797 57.8281 57.625 57.8281 56.9062V51.6641H56.2891V50.5469H57.8281V48.5H59.2734ZM73.6562 54.8672C73.6562 56.1536 73.362 57.1901 72.7734 57.9766C72.1849 58.763 71.388 59.1562 70.3828 59.1562C69.3568 59.1562 68.5495 58.8307 67.9609 58.1797V62.25H66.5156V50.5469H67.8359L67.9062 51.4844C68.4948 50.7552 69.3125 50.3906 70.3594 50.3906C71.375 50.3906 72.1771 50.7734 72.7656 51.5391C73.3594 52.3047 73.6562 53.3698 73.6562 54.7344V54.8672ZM72.2109 54.7031C72.2109 53.75 72.0078 52.9974 71.6016 52.4453C71.1953 51.8932 70.638 51.6172 69.9297 51.6172C69.0547 51.6172 68.3984 52.0052 67.9609 52.7812V56.8203C68.3932 57.5911 69.0547 57.9766 69.9453 57.9766C70.638 57.9766 71.1875 57.7031 71.5938 57.1562C72.0052 56.6042 72.2109 55.7865 72.2109 54.7031ZM80.7188 59C80.6354 58.8333 80.5677 58.5365 80.5156 58.1094C79.8438 58.8073 79.0417 59.1562 78.1094 59.1562C77.276 59.1562 76.5911 58.9219 76.0547 58.4531C75.5234 57.9792 75.2578 57.3802 75.2578 56.6562C75.2578 55.776 75.5911 55.0938 76.2578 54.6094C76.9297 54.1198 77.8724 53.875 79.0859 53.875H80.4922V53.2109C80.4922 52.7057 80.3411 52.3047 80.0391 52.0078C79.737 51.7057 79.2917 51.5547 78.7031 51.5547C78.1875 51.5547 77.7552 51.6849 77.4062 51.9453C77.0573 52.2057 76.8828 52.5208 76.8828 52.8906H75.4297C75.4297 52.4688 75.5781 52.0625 75.875 51.6719C76.1771 51.276 76.5833 50.9635 77.0938 50.7344C77.6094 50.5052 78.1745 50.3906 78.7891 50.3906C79.763 50.3906 80.526 50.6354 81.0781 51.125C81.6302 51.6094 81.9167 52.2786 81.9375 53.1328V57.0234C81.9375 57.7995 82.0365 58.4167 82.2344 58.875V59H80.7188ZM78.3203 57.8984C78.7734 57.8984 79.2031 57.7812 79.6094 57.5469C80.0156 57.3125 80.3099 57.0078 80.4922 56.6328V54.8984H79.3594C77.5885 54.8984 76.7031 55.4167 76.7031 56.4531C76.7031 56.9062 76.8542 57.2604 77.1562 57.5156C77.4583 57.7708 77.8464 57.8984 78.3203 57.8984ZM88.2891 51.8438C88.0703 51.8073 87.8333 51.7891 87.5781 51.7891C86.6302 51.7891 85.987 52.1927 85.6484 53V59H84.2031V50.5469H85.6094L85.6328 51.5234C86.1068 50.7682 86.7786 50.3906 87.6484 50.3906C87.9297 50.3906 88.1432 50.4271 88.2891 50.5V51.8438ZM94.5312 59C94.4479 58.8333 94.3802 58.5365 94.3281 58.1094C93.6562 58.8073 92.8542 59.1562 91.9219 59.1562C91.0885 59.1562 90.4036 58.9219 89.8672 58.4531C89.3359 57.9792 89.0703 57.3802 89.0703 56.6562C89.0703 55.776 89.4036 55.0938 90.0703 54.6094C90.7422 54.1198 91.6849 53.875 92.8984 53.875H94.3047V53.2109C94.3047 52.7057 94.1536 52.3047 93.8516 52.0078C93.5495 51.7057 93.1042 51.5547 92.5156 51.5547C92 51.5547 91.5677 51.6849 91.2188 51.9453C90.8698 52.2057 90.6953 52.5208 90.6953 52.8906H89.2422C89.2422 52.4688 89.3906 52.0625 89.6875 51.6719C89.9896 51.276 90.3958 50.9635 90.9062 50.7344C91.4219 50.5052 91.987 50.3906 92.6016 50.3906C93.5755 50.3906 94.3385 50.6354 94.8906 51.125C95.4427 51.6094 95.7292 52.2786 95.75 53.1328V57.0234C95.75 57.7995 95.849 58.4167 96.0469 58.875V59H94.5312ZM92.1328 57.8984C92.5859 57.8984 93.0156 57.7812 93.4219 57.5469C93.8281 57.3125 94.1224 57.0078 94.3047 56.6328V54.8984H93.1719C91.401 54.8984 90.5156 55.4167 90.5156 56.4531C90.5156 56.9062 90.6667 57.2604 90.9688 57.5156C91.2708 57.7708 91.6589 57.8984 92.1328 57.8984ZM99.375 50.5469L99.4141 51.4844C100.034 50.7552 100.87 50.3906 101.922 50.3906C103.104 50.3906 103.909 50.8438 104.336 51.75C104.617 51.3438 104.982 51.0156 105.43 50.7656C105.883 50.5156 106.417 50.3906 107.031 50.3906C108.885 50.3906 109.828 51.3724 109.859 53.3359V59H108.414V53.4219C108.414 52.8177 108.276 52.3672 108 52.0703C107.724 51.7682 107.26 51.6172 106.609 51.6172C106.073 51.6172 105.628 51.7786 105.273 52.1016C104.919 52.4193 104.714 52.849 104.656 53.3906V59H103.203V53.4609C103.203 52.2318 102.602 51.6172 101.398 51.6172C100.451 51.6172 99.8021 52.0208 99.4531 52.8281V59H98.0078V50.5469H99.375ZM115.555 59.1562C114.409 59.1562 113.477 58.7812 112.758 58.0312C112.039 57.276 111.68 56.2682 111.68 55.0078V54.7422C111.68 53.9036 111.839 53.1562 112.156 52.5C112.479 51.8385 112.927 51.3229 113.5 50.9531C114.078 50.5781 114.703 50.3906 115.375 50.3906C116.474 50.3906 117.328 50.7526 117.938 51.4766C118.547 52.2005 118.852 53.237 118.852 54.5859V55.1875H113.125C113.146 56.0208 113.388 56.6953 113.852 57.2109C114.32 57.7214 114.914 57.9766 115.633 57.9766C116.143 57.9766 116.576 57.8724 116.93 57.6641C117.284 57.4557 117.594 57.1797 117.859 56.8359L118.742 57.5234C118.034 58.612 116.971 59.1562 115.555 59.1562ZM115.375 51.5781C114.792 51.5781 114.302 51.7917 113.906 52.2188C113.51 52.6406 113.266 53.2344 113.172 54H117.406V53.8906C117.365 53.1562 117.167 52.5885 116.812 52.1875C116.458 51.7812 115.979 51.5781 115.375 51.5781ZM122.492 48.5V50.5469H124.07V51.6641H122.492V56.9062C122.492 57.2448 122.562 57.5 122.703 57.6719C122.844 57.8385 123.083 57.9219 123.422 57.9219C123.589 57.9219 123.818 57.8906 124.109 57.8281V59C123.729 59.1042 123.359 59.1562 123 59.1562C122.354 59.1562 121.867 58.9609 121.539 58.5703C121.211 58.1797 121.047 57.625 121.047 56.9062V51.6641H119.508V50.5469H121.047V48.5H122.492ZM129.273 59.1562C128.128 59.1562 127.195 58.7812 126.477 58.0312C125.758 57.276 125.398 56.2682 125.398 55.0078V54.7422C125.398 53.9036 125.557 53.1562 125.875 52.5C126.198 51.8385 126.646 51.3229 127.219 50.9531C127.797 50.5781 128.422 50.3906 129.094 50.3906C130.193 50.3906 131.047 50.7526 131.656 51.4766C132.266 52.2005 132.57 53.237 132.57 54.5859V55.1875H126.844C126.865 56.0208 127.107 56.6953 127.57 57.2109C128.039 57.7214 128.633 57.9766 129.352 57.9766C129.862 57.9766 130.294 57.8724 130.648 57.6641C131.003 57.4557 131.312 57.1797 131.578 56.8359L132.461 57.5234C131.753 58.612 130.69 59.1562 129.273 59.1562ZM129.094 51.5781C128.51 51.5781 128.021 51.7917 127.625 52.2188C127.229 52.6406 126.984 53.2344 126.891 54H131.125V53.8906C131.083 53.1562 130.885 52.5885 130.531 52.1875C130.177 51.7812 129.698 51.5781 129.094 51.5781ZM138.336 51.8438C138.117 51.8073 137.88 51.7891 137.625 51.7891C136.677 51.7891 136.034 52.1927 135.695 53V59H134.25V50.5469H135.656L135.68 51.5234C136.154 50.7682 136.826 50.3906 137.695 50.3906C137.977 50.3906 138.19 50.4271 138.336 50.5V51.8438Z" fill="#5452F6"/>
<path d="M20.2891 95.6797C20.2891 96.7943 20.1016 97.7682 19.7266 98.6016C19.3516 99.4297 18.8203 100.062 18.1328 100.5C17.4453 100.938 16.6432 101.156 15.7266 101.156C14.8307 101.156 14.0365 100.938 13.3438 100.5C12.651 100.057 12.112 99.4297 11.7266 98.6172C11.3464 97.7995 11.151 96.8542 11.1406 95.7812V94.9609C11.1406 93.8672 11.3307 92.901 11.7109 92.0625C12.0911 91.224 12.6276 90.5833 13.3203 90.1406C14.0182 89.6927 14.8151 89.4688 15.7109 89.4688C16.6224 89.4688 17.4245 89.6901 18.1172 90.1328C18.8151 90.5703 19.3516 91.2083 19.7266 92.0469C20.1016 92.8802 20.2891 93.8516 20.2891 94.9609V95.6797ZM18.7969 94.9453C18.7969 93.5964 18.526 92.5625 17.9844 91.8438C17.4427 91.1198 16.6849 90.7578 15.7109 90.7578C14.763 90.7578 14.0156 91.1198 13.4688 91.8438C12.9271 92.5625 12.6484 93.5625 12.6328 94.8438V95.6797C12.6328 96.987 12.9062 98.0156 13.4531 98.7656C14.0052 99.5104 14.763 99.8828 15.7266 99.8828C16.6953 99.8828 17.4453 99.5312 17.9766 98.8281C18.5078 98.1198 18.7812 97.1068 18.7969 95.7891V94.9453ZM23.6797 92.5469L23.7266 93.6094C24.3724 92.7969 25.2161 92.3906 26.2578 92.3906C28.0443 92.3906 28.9453 93.3984 28.9609 95.4141V101H27.5156V95.4062C27.5104 94.7969 27.3698 94.3464 27.0938 94.0547C26.8229 93.763 26.3984 93.6172 25.8203 93.6172C25.3516 93.6172 24.9401 93.7422 24.5859 93.9922C24.2318 94.2422 23.9557 94.5703 23.7578 94.9766V101H22.3125V92.5469H23.6797ZM34.1484 96.7578H30.3359V95.5781H34.1484V96.7578ZM38.9531 99.9766C39.4688 99.9766 39.9193 99.8203 40.3047 99.5078C40.6901 99.1953 40.9036 98.8047 40.9453 98.3359H42.3125C42.2865 98.8203 42.1198 99.2812 41.8125 99.7188C41.5052 100.156 41.0938 100.505 40.5781 100.766C40.0677 101.026 39.526 101.156 38.9531 101.156C37.8021 101.156 36.8854 100.773 36.2031 100.008C35.526 99.237 35.1875 98.1849 35.1875 96.8516V96.6094C35.1875 95.7865 35.3385 95.0547 35.6406 94.4141C35.9427 93.7734 36.375 93.276 36.9375 92.9219C37.5052 92.5677 38.1745 92.3906 38.9453 92.3906C39.8932 92.3906 40.6797 92.6745 41.3047 93.2422C41.9349 93.8099 42.2708 94.5469 42.3125 95.4531H40.9453C40.9036 94.9062 40.6953 94.4583 40.3203 94.1094C39.9505 93.7552 39.4922 93.5781 38.9453 93.5781C38.2109 93.5781 37.6406 93.8438 37.2344 94.375C36.8333 94.901 36.6328 95.6641 36.6328 96.6641V96.9375C36.6328 97.9115 36.8333 98.6615 37.2344 99.1875C37.6354 99.7135 38.2083 99.9766 38.9531 99.9766ZM45.3828 93.5703C46.0234 92.7839 46.8568 92.3906 47.8828 92.3906C49.6693 92.3906 50.5703 93.3984 50.5859 95.4141V101H49.1406V95.4062C49.1354 94.7969 48.9948 94.3464 48.7188 94.0547C48.4479 93.763 48.0234 93.6172 47.4453 93.6172C46.9766 93.6172 46.5651 93.7422 46.2109 93.9922C45.8568 94.2422 45.5807 94.5703 45.3828 94.9766V101H43.9375V89H45.3828V93.5703ZM57.9688 101C57.8854 100.833 57.8177 100.536 57.7656 100.109C57.0938 100.807 56.2917 101.156 55.3594 101.156C54.526 101.156 53.8411 100.922 53.3047 100.453C52.7734 99.9792 52.5078 99.3802 52.5078 98.6562C52.5078 97.776 52.8411 97.0938 53.5078 96.6094C54.1797 96.1198 55.1224 95.875 56.3359 95.875H57.7422V95.2109C57.7422 94.7057 57.5911 94.3047 57.2891 94.0078C56.987 93.7057 56.5417 93.5547 55.9531 93.5547C55.4375 93.5547 55.0052 93.6849 54.6562 93.9453C54.3073 94.2057 54.1328 94.5208 54.1328 94.8906H52.6797C52.6797 94.4688 52.8281 94.0625 53.125 93.6719C53.4271 93.276 53.8333 92.9635 54.3438 92.7344C54.8594 92.5052 55.4245 92.3906 56.0391 92.3906C57.013 92.3906 57.776 92.6354 58.3281 93.125C58.8802 93.6094 59.1667 94.2786 59.1875 95.1328V99.0234C59.1875 99.7995 59.2865 100.417 59.4844 100.875V101H57.9688ZM55.5703 99.8984C56.0234 99.8984 56.4531 99.7812 56.8594 99.5469C57.2656 99.3125 57.5599 99.0078 57.7422 98.6328V96.8984H56.6094C54.8385 96.8984 53.9531 97.4167 53.9531 98.4531C53.9531 98.9062 54.1042 99.2604 54.4062 99.5156C54.7083 99.7708 55.0964 99.8984 55.5703 99.8984ZM63.0234 101H61.5781V92.5469H63.0234V101ZM61.4609 90.3047C61.4609 90.0703 61.5312 89.8724 61.6719 89.7109C61.8177 89.5495 62.0312 89.4688 62.3125 89.4688C62.5938 89.4688 62.8073 89.5495 62.9531 89.7109C63.099 89.8724 63.1719 90.0703 63.1719 90.3047C63.1719 90.5391 63.099 90.7344 62.9531 90.8906C62.8073 91.0469 62.5938 91.125 62.3125 91.125C62.0312 91.125 61.8177 91.0469 61.6719 90.8906C61.5312 90.7344 61.4609 90.5391 61.4609 90.3047ZM66.7109 92.5469L66.7578 93.6094C67.4036 92.7969 68.2474 92.3906 69.2891 92.3906C71.0755 92.3906 71.9766 93.3984 71.9922 95.4141V101H70.5469V95.4062C70.5417 94.7969 70.401 94.3464 70.125 94.0547C69.8542 93.763 69.4297 93.6172 68.8516 93.6172C68.3828 93.6172 67.9714 93.7422 67.6172 93.9922C67.263 94.2422 66.987 94.5703 66.7891 94.9766V101H65.3438V92.5469H66.7109ZM83.0625 98.7578C83.0625 98.3672 82.9141 98.0651 82.6172 97.8516C82.3255 97.6328 81.8125 97.4453 81.0781 97.2891C80.349 97.1328 79.7682 96.9453 79.3359 96.7266C78.9089 96.5078 78.5911 96.2474 78.3828 95.9453C78.1797 95.6432 78.0781 95.2839 78.0781 94.8672C78.0781 94.1745 78.3698 93.5885 78.9531 93.1094C79.5417 92.6302 80.2917 92.3906 81.2031 92.3906C82.1615 92.3906 82.9375 92.638 83.5312 93.1328C84.1302 93.6276 84.4297 94.2604 84.4297 95.0312H82.9766C82.9766 94.6354 82.8073 94.2943 82.4688 94.0078C82.1354 93.7214 81.7135 93.5781 81.2031 93.5781C80.6771 93.5781 80.2656 93.6927 79.9688 93.9219C79.6719 94.151 79.5234 94.4505 79.5234 94.8203C79.5234 95.1693 79.6615 95.4323 79.9375 95.6094C80.2135 95.7865 80.7109 95.9557 81.4297 96.1172C82.1536 96.2786 82.7396 96.4714 83.1875 96.6953C83.6354 96.9193 83.9661 97.1901 84.1797 97.5078C84.3984 97.8203 84.5078 98.2031 84.5078 98.6562C84.5078 99.4115 84.2057 100.018 83.6016 100.477C82.9974 100.93 82.2135 101.156 81.25 101.156C80.5729 101.156 79.974 101.036 79.4531 100.797C78.9323 100.557 78.5234 100.224 78.2266 99.7969C77.9349 99.3646 77.7891 98.8984 77.7891 98.3984H79.2344C79.2604 98.8828 79.4531 99.2682 79.8125 99.5547C80.1771 99.8359 80.6562 99.9766 81.25 99.9766C81.7969 99.9766 82.2344 99.8672 82.5625 99.6484C82.8958 99.4245 83.0625 99.1276 83.0625 98.7578ZM88.3516 90.5V92.5469H89.9297V93.6641H88.3516V98.9062C88.3516 99.2448 88.4219 99.5 88.5625 99.6719C88.7031 99.8385 88.9427 99.9219 89.2812 99.9219C89.4479 99.9219 89.6771 99.8906 89.9688 99.8281V101C89.5885 101.104 89.2188 101.156 88.8594 101.156C88.2135 101.156 87.7266 100.961 87.3984 100.57C87.0703 100.18 86.9062 99.625 86.9062 98.9062V93.6641H85.3672V92.5469H86.9062V90.5H88.3516ZM91.0859 96.6953C91.0859 95.8672 91.2474 95.1224 91.5703 94.4609C91.8984 93.7995 92.3516 93.2891 92.9297 92.9297C93.513 92.5703 94.1771 92.3906 94.9219 92.3906C96.0729 92.3906 97.0026 92.7891 97.7109 93.5859C98.4245 94.3828 98.7812 95.4427 98.7812 96.7656V96.8672C98.7812 97.6901 98.6224 98.4297 98.3047 99.0859C97.9922 99.737 97.5417 100.245 96.9531 100.609C96.3698 100.974 95.6979 101.156 94.9375 101.156C93.7917 101.156 92.862 100.758 92.1484 99.9609C91.4401 99.1641 91.0859 98.1094 91.0859 96.7969V96.6953ZM92.5391 96.8672C92.5391 97.8047 92.7552 98.5573 93.1875 99.125C93.625 99.6927 94.2083 99.9766 94.9375 99.9766C95.6719 99.9766 96.2552 99.6901 96.6875 99.1172C97.1198 98.5391 97.3359 97.7318 97.3359 96.6953C97.3359 95.7682 97.1146 95.0182 96.6719 94.4453C96.2344 93.8672 95.651 93.5781 94.9219 93.5781C94.2083 93.5781 93.6328 93.862 93.1953 94.4297C92.7578 94.9974 92.5391 95.8099 92.5391 96.8672ZM104.68 93.8438C104.461 93.8073 104.224 93.7891 103.969 93.7891C103.021 93.7891 102.378 94.1927 102.039 95V101H100.594V92.5469H102L102.023 93.5234C102.497 92.7682 103.169 92.3906 104.039 92.3906C104.32 92.3906 104.534 92.4271 104.68 92.5V93.8438ZM110.922 101C110.839 100.833 110.771 100.536 110.719 100.109C110.047 100.807 109.245 101.156 108.312 101.156C107.479 101.156 106.794 100.922 106.258 100.453C105.727 99.9792 105.461 99.3802 105.461 98.6562C105.461 97.776 105.794 97.0938 106.461 96.6094C107.133 96.1198 108.076 95.875 109.289 95.875H110.695V95.2109C110.695 94.7057 110.544 94.3047 110.242 94.0078C109.94 93.7057 109.495 93.5547 108.906 93.5547C108.391 93.5547 107.958 93.6849 107.609 93.9453C107.26 94.2057 107.086 94.5208 107.086 94.8906H105.633C105.633 94.4688 105.781 94.0625 106.078 93.6719C106.38 93.276 106.786 92.9635 107.297 92.7344C107.812 92.5052 108.378 92.3906 108.992 92.3906C109.966 92.3906 110.729 92.6354 111.281 93.125C111.833 93.6094 112.12 94.2786 112.141 95.1328V99.0234C112.141 99.7995 112.24 100.417 112.438 100.875V101H110.922ZM108.523 99.8984C108.977 99.8984 109.406 99.7812 109.812 99.5469C110.219 99.3125 110.513 99.0078 110.695 98.6328V96.8984H109.562C107.792 96.8984 106.906 97.4167 106.906 98.4531C106.906 98.9062 107.057 99.2604 107.359 99.5156C107.661 99.7708 108.049 99.8984 108.523 99.8984ZM114.062 96.7031C114.062 95.3854 114.367 94.3385 114.977 93.5625C115.586 92.7812 116.393 92.3906 117.398 92.3906C118.43 92.3906 119.234 92.7552 119.812 93.4844L119.883 92.5469H121.203V100.797C121.203 101.891 120.878 102.753 120.227 103.383C119.581 104.013 118.711 104.328 117.617 104.328C117.008 104.328 116.411 104.198 115.828 103.938C115.245 103.677 114.799 103.32 114.492 102.867L115.242 102C115.862 102.766 116.62 103.148 117.516 103.148C118.219 103.148 118.766 102.951 119.156 102.555C119.552 102.159 119.75 101.602 119.75 100.883V100.156C119.172 100.823 118.383 101.156 117.383 101.156C116.393 101.156 115.591 100.758 114.977 99.9609C114.367 99.1641 114.062 98.0781 114.062 96.7031ZM115.516 96.8672C115.516 97.8203 115.711 98.5703 116.102 99.1172C116.492 99.6589 117.039 99.9297 117.742 99.9297C118.654 99.9297 119.323 99.5156 119.75 98.6875V94.8281C119.307 94.0208 118.643 93.6172 117.758 93.6172C117.055 93.6172 116.505 93.8906 116.109 94.4375C115.714 94.9844 115.516 95.7943 115.516 96.8672ZM126.898 101.156C125.753 101.156 124.82 100.781 124.102 100.031C123.383 99.276 123.023 98.2682 123.023 97.0078V96.7422C123.023 95.9036 123.182 95.1562 123.5 94.5C123.823 93.8385 124.271 93.3229 124.844 92.9531C125.422 92.5781 126.047 92.3906 126.719 92.3906C127.818 92.3906 128.672 92.7526 129.281 93.4766C129.891 94.2005 130.195 95.237 130.195 96.5859V97.1875H124.469C124.49 98.0208 124.732 98.6953 125.195 99.2109C125.664 99.7214 126.258 99.9766 126.977 99.9766C127.487 99.9766 127.919 99.8724 128.273 99.6641C128.628 99.4557 128.938 99.1797 129.203 98.8359L130.086 99.5234C129.378 100.612 128.315 101.156 126.898 101.156ZM126.719 93.5781C126.135 93.5781 125.646 93.7917 125.25 94.2188C124.854 94.6406 124.609 95.2344 124.516 96H128.75V95.8906C128.708 95.1562 128.51 94.5885 128.156 94.1875C127.802 93.7812 127.323 93.5781 126.719 93.5781Z" fill="#5452F6"/>
<path d="M143.045 55.902V55.902C143.043 56.4543 143.488 56.904 144.041 56.9065L223.54 57.2664" stroke="#5452F6" stroke-width="2" stroke-linecap="round" stroke-linejoin="round"/>
<path d="M226.587 58.124L220.675 63.4388C220.029 64.0188 219.002 63.5582 219.006 62.6905L219.053 52.3022C219.057 51.4478 220.061 50.9915 220.707 51.5504L226.573 56.624C227.028 57.0178 227.035 57.7216 226.587 58.124Z" fill="#595DFF"/>
<path d="M457.045 93.902V93.902C457.043 94.4543 457.488 94.904 458.041 94.9065L537.54 95.2664" stroke="#5452F6" stroke-width="2" stroke-linecap="round" stroke-linejoin="round"/>
<path d="M540.587 96.124L534.675 101.439C534.029 102.019 533.002 101.558 533.006 100.691L533.053 90.3022C533.057 89.4478 534.061 88.9915 534.707 89.5504L540.573 94.624C541.028 95.0178 541.035 95.7216 540.587 96.124Z" fill="#595DFF"/>
<path d="M457.045 53.902V53.902C457.043 54.4543 457.488 54.904 458.041 54.9065L537.54 55.2664" stroke="#5452F6" stroke-width="2" stroke-linecap="round" stroke-linejoin="round"/>
<path d="M540.587 56.124L534.675 61.4388C534.029 62.0188 533.002 61.5582 533.006 60.6905L533.053 50.3022C533.057 49.4478 534.061 48.9915 534.707 49.5504L540.573 54.624C541.028 55.0178 541.035 55.7216 540.587 56.124Z" fill="#595DFF"/>
<path d="M143.045 94.902V94.902C143.043 95.4543 143.488 95.904 144.041 95.9065L223.54 96.2664" stroke="#5452F6" stroke-width="2" stroke-linecap="round" stroke-linejoin="round"/>
<path d="M226.587 97.124L220.675 102.439C220.029 103.019 219.002 102.558 219.006 101.691L219.053 91.3022C219.057 90.4478 220.061 89.9915 220.707 90.5504L226.573 95.624C227.028 96.0178 227.035 96.7216 226.587 97.124Z" fill="#595DFF"/>
<path d="M553.711 87.625L557.43 96.9062L561.148 87.625H563.094V99H561.594V94.5703L561.734 89.7891L558 99H556.852L553.125 89.8125L553.273 94.5703V99H551.773V87.625H553.711ZM565.133 94.6953C565.133 93.8672 565.294 93.1224 565.617 92.4609C565.945 91.7995 566.398 91.2891 566.977 90.9297C567.56 90.5703 568.224 90.3906 568.969 90.3906C570.12 90.3906 571.049 90.7891 571.758 91.5859C572.471 92.3828 572.828 93.4427 572.828 94.7656V94.8672C572.828 95.6901 572.669 96.4297 572.352 97.0859C572.039 97.737 571.589 98.2448 571 98.6094C570.417 98.974 569.745 99.1562 568.984 99.1562C567.839 99.1562 566.909 98.7578 566.195 97.9609C565.487 97.1641 565.133 96.1094 565.133 94.7969V94.6953ZM566.586 94.8672C566.586 95.8047 566.802 96.5573 567.234 97.125C567.672 97.6927 568.255 97.9766 568.984 97.9766C569.719 97.9766 570.302 97.6901 570.734 97.1172C571.167 96.5391 571.383 95.7318 571.383 94.6953C571.383 93.7682 571.161 93.0182 570.719 92.4453C570.281 91.8672 569.698 91.5781 568.969 91.5781C568.255 91.5781 567.68 91.862 567.242 92.4297C566.805 92.9974 566.586 93.8099 566.586 94.8672ZM574.289 94.7031C574.289 93.4062 574.596 92.3646 575.211 91.5781C575.826 90.7865 576.63 90.3906 577.625 90.3906C578.615 90.3906 579.398 90.7292 579.977 91.4062V87H581.422V99H580.094L580.023 98.0938C579.445 98.8021 578.641 99.1562 577.609 99.1562C576.63 99.1562 575.831 98.7552 575.211 97.9531C574.596 97.151 574.289 96.1042 574.289 94.8125V94.7031ZM575.734 94.8672C575.734 95.8255 575.932 96.5755 576.328 97.1172C576.724 97.6589 577.271 97.9297 577.969 97.9297C578.885 97.9297 579.555 97.5182 579.977 96.6953V92.8125C579.544 92.0156 578.88 91.6172 577.984 91.6172C577.276 91.6172 576.724 91.8906 576.328 92.4375C575.932 92.9844 575.734 93.7943 575.734 94.8672ZM585.242 99H583.797V90.5469H585.242V99ZM583.68 88.3047C583.68 88.0703 583.75 87.8724 583.891 87.7109C584.036 87.5495 584.25 87.4688 584.531 87.4688C584.812 87.4688 585.026 87.5495 585.172 87.7109C585.318 87.8724 585.391 88.0703 585.391 88.3047C585.391 88.5391 585.318 88.7344 585.172 88.8906C585.026 89.0469 584.812 89.125 584.531 89.125C584.25 89.125 584.036 89.0469 583.891 88.8906C583.75 88.7344 583.68 88.5391 583.68 88.3047ZM588.047 99V91.6641H586.711V90.5469H588.047V89.8281C588.047 88.8854 588.315 88.151 588.852 87.625C589.393 87.099 590.156 86.8359 591.141 86.8359C591.724 86.8359 592.461 86.9948 593.352 87.3125L593.109 88.5312C592.458 88.2708 591.839 88.1406 591.25 88.1406C590.63 88.1406 590.182 88.2812 589.906 88.5625C589.635 88.8385 589.5 89.2552 589.5 89.8125V90.5469H591.227V91.6641H589.5V99H588.047ZM594.07 99H592.617V90.5469H594.07V99ZM599.93 99.1562C598.784 99.1562 597.852 98.7812 597.133 98.0312C596.414 97.276 596.055 96.2682 596.055 95.0078V94.7422C596.055 93.9036 596.214 93.1562 596.531 92.5C596.854 91.8385 597.302 91.3229 597.875 90.9531C598.453 90.5781 599.078 90.3906 599.75 90.3906C600.849 90.3906 601.703 90.7526 602.312 91.4766C602.922 92.2005 603.227 93.237 603.227 94.5859V95.1875H597.5C597.521 96.0208 597.763 96.6953 598.227 97.2109C598.695 97.7214 599.289 97.9766 600.008 97.9766C600.518 97.9766 600.951 97.8724 601.305 97.6641C601.659 97.4557 601.969 97.1797 602.234 96.8359L603.117 97.5234C602.409 98.612 601.346 99.1562 599.93 99.1562ZM599.75 91.5781C599.167 91.5781 598.677 91.7917 598.281 92.2188C597.885 92.6406 597.641 93.2344 597.547 94H601.781V93.8906C601.74 93.1562 601.542 92.5885 601.188 92.1875C600.833 91.7812 600.354 91.5781 599.75 91.5781ZM604.555 94.7031C604.555 93.4062 604.862 92.3646 605.477 91.5781C606.091 90.7865 606.896 90.3906 607.891 90.3906C608.88 90.3906 609.664 90.7292 610.242 91.4062V87H611.688V99H610.359L610.289 98.0938C609.711 98.8021 608.906 99.1562 607.875 99.1562C606.896 99.1562 606.096 98.7552 605.477 97.9531C604.862 97.151 604.555 96.1042 604.555 94.8125V94.7031ZM606 94.8672C606 95.8255 606.198 96.5755 606.594 97.1172C606.99 97.6589 607.536 97.9297 608.234 97.9297C609.151 97.9297 609.82 97.5182 610.242 96.6953V92.8125C609.81 92.0156 609.146 91.6172 608.25 91.6172C607.542 91.6172 606.99 91.8906 606.594 92.4375C606.198 92.9844 606 93.7943 606 94.8672ZM622.828 96.7578C622.828 96.3672 622.68 96.0651 622.383 95.8516C622.091 95.6328 621.578 95.4453 620.844 95.2891C620.115 95.1328 619.534 94.9453 619.102 94.7266C618.674 94.5078 618.357 94.2474 618.148 93.9453C617.945 93.6432 617.844 93.2839 617.844 92.8672C617.844 92.1745 618.135 91.5885 618.719 91.1094C619.307 90.6302 620.057 90.3906 620.969 90.3906C621.927 90.3906 622.703 90.638 623.297 91.1328C623.896 91.6276 624.195 92.2604 624.195 93.0312H622.742C622.742 92.6354 622.573 92.2943 622.234 92.0078C621.901 91.7214 621.479 91.5781 620.969 91.5781C620.443 91.5781 620.031 91.6927 619.734 91.9219C619.438 92.151 619.289 92.4505 619.289 92.8203C619.289 93.1693 619.427 93.4323 619.703 93.6094C619.979 93.7865 620.477 93.9557 621.195 94.1172C621.919 94.2786 622.505 94.4714 622.953 94.6953C623.401 94.9193 623.732 95.1901 623.945 95.5078C624.164 95.8203 624.273 96.2031 624.273 96.6562C624.273 97.4115 623.971 98.0182 623.367 98.4766C622.763 98.9297 621.979 99.1562 621.016 99.1562C620.339 99.1562 619.74 99.0365 619.219 98.7969C618.698 98.5573 618.289 98.224 617.992 97.7969C617.701 97.3646 617.555 96.8984 617.555 96.3984H619C619.026 96.8828 619.219 97.2682 619.578 97.5547C619.943 97.8359 620.422 97.9766 621.016 97.9766C621.562 97.9766 622 97.8672 622.328 97.6484C622.661 97.4245 622.828 97.1276 622.828 96.7578ZM628.117 88.5V90.5469H629.695V91.6641H628.117V96.9062C628.117 97.2448 628.188 97.5 628.328 97.6719C628.469 97.8385 628.708 97.9219 629.047 97.9219C629.214 97.9219 629.443 97.8906 629.734 97.8281V99C629.354 99.1042 628.984 99.1562 628.625 99.1562C627.979 99.1562 627.492 98.9609 627.164 98.5703C626.836 98.1797 626.672 97.625 626.672 96.9062V91.6641H625.133V90.5469H626.672V88.5H628.117ZM630.852 94.6953C630.852 93.8672 631.013 93.1224 631.336 92.4609C631.664 91.7995 632.117 91.2891 632.695 90.9297C633.279 90.5703 633.943 90.3906 634.688 90.3906C635.839 90.3906 636.768 90.7891 637.477 91.5859C638.19 92.3828 638.547 93.4427 638.547 94.7656V94.8672C638.547 95.6901 638.388 96.4297 638.07 97.0859C637.758 97.737 637.307 98.2448 636.719 98.6094C636.135 98.974 635.464 99.1562 634.703 99.1562C633.557 99.1562 632.628 98.7578 631.914 97.9609C631.206 97.1641 630.852 96.1094 630.852 94.7969V94.6953ZM632.305 94.8672C632.305 95.8047 632.521 96.5573 632.953 97.125C633.391 97.6927 633.974 97.9766 634.703 97.9766C635.438 97.9766 636.021 97.6901 636.453 97.1172C636.885 96.5391 637.102 95.7318 637.102 94.6953C637.102 93.7682 636.88 93.0182 636.438 92.4453C636 91.8672 635.417 91.5781 634.688 91.5781C633.974 91.5781 633.398 91.862 632.961 92.4297C632.523 92.9974 632.305 93.8099 632.305 94.8672ZM644.445 91.8438C644.227 91.8073 643.99 91.7891 643.734 91.7891C642.786 91.7891 642.143 92.1927 641.805 93V99H640.359V90.5469H641.766L641.789 91.5234C642.263 90.7682 642.935 90.3906 643.805 90.3906C644.086 90.3906 644.299 90.4271 644.445 90.5V91.8438ZM650.688 99C650.604 98.8333 650.536 98.5365 650.484 98.1094C649.812 98.8073 649.01 99.1562 648.078 99.1562C647.245 99.1562 646.56 98.9219 646.023 98.4531C645.492 97.9792 645.227 97.3802 645.227 96.6562C645.227 95.776 645.56 95.0938 646.227 94.6094C646.898 94.1198 647.841 93.875 649.055 93.875H650.461V93.2109C650.461 92.7057 650.31 92.3047 650.008 92.0078C649.706 91.7057 649.26 91.5547 648.672 91.5547C648.156 91.5547 647.724 91.6849 647.375 91.9453C647.026 92.2057 646.852 92.5208 646.852 92.8906H645.398C645.398 92.4688 645.547 92.0625 645.844 91.6719C646.146 91.276 646.552 90.9635 647.062 90.7344C647.578 90.5052 648.143 90.3906 648.758 90.3906C649.732 90.3906 650.495 90.6354 651.047 91.125C651.599 91.6094 651.885 92.2786 651.906 93.1328V97.0234C651.906 97.7995 652.005 98.4167 652.203 98.875V99H650.688ZM648.289 97.8984C648.742 97.8984 649.172 97.7812 649.578 97.5469C649.984 97.3125 650.279 97.0078 650.461 96.6328V94.8984H649.328C647.557 94.8984 646.672 95.4167 646.672 96.4531C646.672 96.9062 646.823 97.2604 647.125 97.5156C647.427 97.7708 647.815 97.8984 648.289 97.8984ZM653.828 94.7031C653.828 93.3854 654.133 92.3385 654.742 91.5625C655.352 90.7812 656.159 90.3906 657.164 90.3906C658.195 90.3906 659 90.7552 659.578 91.4844L659.648 90.5469H660.969V98.7969C660.969 99.8906 660.643 100.753 659.992 101.383C659.346 102.013 658.477 102.328 657.383 102.328C656.773 102.328 656.177 102.198 655.594 101.938C655.01 101.677 654.565 101.32 654.258 100.867L655.008 100C655.628 100.766 656.385 101.148 657.281 101.148C657.984 101.148 658.531 100.951 658.922 100.555C659.318 100.159 659.516 99.6016 659.516 98.8828V98.1562C658.938 98.8229 658.148 99.1562 657.148 99.1562C656.159 99.1562 655.357 98.7578 654.742 97.9609C654.133 97.1641 653.828 96.0781 653.828 94.7031ZM655.281 94.8672C655.281 95.8203 655.477 96.5703 655.867 97.1172C656.258 97.6589 656.805 97.9297 657.508 97.9297C658.419 97.9297 659.089 97.5156 659.516 96.6875V92.8281C659.073 92.0208 658.409 91.6172 657.523 91.6172C656.82 91.6172 656.271 91.8906 655.875 92.4375C655.479 92.9844 655.281 93.7943 655.281 94.8672ZM666.664 99.1562C665.518 99.1562 664.586 98.7812 663.867 98.0312C663.148 97.276 662.789 96.2682 662.789 95.0078V94.7422C662.789 93.9036 662.948 93.1562 663.266 92.5C663.589 91.8385 664.036 91.3229 664.609 90.9531C665.188 90.5781 665.812 90.3906 666.484 90.3906C667.583 90.3906 668.438 90.7526 669.047 91.4766C669.656 92.2005 669.961 93.237 669.961 94.5859V95.1875H664.234C664.255 96.0208 664.497 96.6953 664.961 97.2109C665.43 97.7214 666.023 97.9766 666.742 97.9766C667.253 97.9766 667.685 97.8724 668.039 97.6641C668.393 97.4557 668.703 97.1797 668.969 96.8359L669.852 97.5234C669.143 98.612 668.081 99.1562 666.664 99.1562ZM666.484 91.5781C665.901 91.5781 665.411 91.7917 665.016 92.2188C664.62 92.6406 664.375 93.2344 664.281 94H668.516V93.8906C668.474 93.1562 668.276 92.5885 667.922 92.1875C667.568 91.7812 667.089 91.5781 666.484 91.5781Z" fill="#5452F6"/>
<defs>
<filter id="filter0_d" x="226" y="29" width="229" height="92" filterUnits="userSpaceOnUse" color-interpolation-filters="sRGB">
<feFlood flood-opacity="0" result="BackgroundImageFix"/>
<feColorMatrix in="SourceAlpha" type="matrix" values="0 0 0 0 0 0 0 0 0 0 0 0 0 0 0 0 0 0 127 0"/>
<feOffset dx="4" dy="4"/>
<feColorMatrix type="matrix" values="0 0 0 0 0.674908 0 0 0 0 0.662083 0 0 0 0 0.945833 0 0 0 1 0"/>
<feBlend mode="normal" in2="BackgroundImageFix" result="effect1_dropShadow"/>
<feBlend mode="normal" in="SourceGraphic" in2="effect1_dropShadow" result="shape"/>
</filter>
</defs>
</svg>
