<svg width="674" height="121" viewBox="0 0 674 121" fill="none" xmlns="http://www.w3.org/2000/svg">
<g filter="url(#filter0_d)">
<rect x="227" y="29" width="225" height="88" rx="8" fill="#EEEEFF"/>
<path d="M293.844 54.625L296.766 62.875L299.672 54.625H302.75V66H300.398V62.8906L300.633 57.5234L297.562 66H295.953L292.891 57.5312L293.125 62.8906V66H290.781V54.625H293.844ZM309.547 66C309.443 65.7969 309.367 65.5443 309.32 65.2422C308.773 65.8516 308.062 66.1562 307.188 66.1562C306.359 66.1562 305.672 65.9167 305.125 65.4375C304.583 64.9583 304.312 64.3542 304.312 63.625C304.312 62.7292 304.643 62.0417 305.305 61.5625C305.971 61.0833 306.932 60.8411 308.188 60.8359H309.227V60.3516C309.227 59.9609 309.125 59.6484 308.922 59.4141C308.724 59.1797 308.409 59.0625 307.977 59.0625C307.596 59.0625 307.297 59.1536 307.078 59.3359C306.865 59.5182 306.758 59.7682 306.758 60.0859H304.5C304.5 59.5964 304.651 59.1432 304.953 58.7266C305.255 58.3099 305.682 57.9844 306.234 57.75C306.786 57.5104 307.406 57.3906 308.094 57.3906C309.135 57.3906 309.961 57.6536 310.57 58.1797C311.185 58.7005 311.492 59.4349 311.492 60.3828V64.0469C311.497 64.849 311.609 65.4557 311.828 65.8672V66H309.547ZM307.68 64.4297C308.013 64.4297 308.32 64.3568 308.602 64.2109C308.883 64.0599 309.091 63.8594 309.227 63.6094V62.1562H308.383C307.253 62.1562 306.651 62.5469 306.578 63.3281L306.57 63.4609C306.57 63.7422 306.669 63.974 306.867 64.1562C307.065 64.3385 307.336 64.4297 307.68 64.4297ZM315.609 66H313.344V57.5469H315.609V66ZM313.211 55.3594C313.211 55.0208 313.323 54.7422 313.547 54.5234C313.776 54.3047 314.086 54.1953 314.477 54.1953C314.862 54.1953 315.169 54.3047 315.398 54.5234C315.628 54.7422 315.742 55.0208 315.742 55.3594C315.742 55.7031 315.625 55.9844 315.391 56.2031C315.161 56.4219 314.857 56.5312 314.477 56.5312C314.096 56.5312 313.789 56.4219 313.555 56.2031C313.326 55.9844 313.211 55.7031 313.211 55.3594ZM319.555 57.5469L319.625 58.5234C320.229 57.7682 321.039 57.3906 322.055 57.3906C322.951 57.3906 323.617 57.6536 324.055 58.1797C324.492 58.7057 324.716 59.4922 324.727 60.5391V66H322.469V60.5938C322.469 60.1146 322.365 59.7682 322.156 59.5547C321.948 59.3359 321.602 59.2266 321.117 59.2266C320.482 59.2266 320.005 59.4974 319.688 60.0391V66H317.43V57.5469H319.555ZM331.047 66V59.2031H329.789V57.5469H331.047V56.8281C331.047 55.8802 331.318 55.1458 331.859 54.625C332.406 54.099 333.169 53.8359 334.148 53.8359C334.461 53.8359 334.844 53.888 335.297 53.9922L335.273 55.7422C335.086 55.6953 334.857 55.6719 334.586 55.6719C333.737 55.6719 333.312 56.0703 333.312 56.8672V57.5469H334.992V59.2031H333.312V66H331.047ZM341.227 65.1406C340.669 65.8177 339.898 66.1562 338.914 66.1562C338.008 66.1562 337.315 65.8958 336.836 65.375C336.362 64.8542 336.12 64.0911 336.109 63.0859V57.5469H338.367V63.0078C338.367 63.888 338.768 64.3281 339.57 64.3281C340.336 64.3281 340.862 64.0625 341.148 63.5312V57.5469H343.414V66H341.289L341.227 65.1406ZM347.195 57.5469L347.266 58.5234C347.87 57.7682 348.68 57.3906 349.695 57.3906C350.591 57.3906 351.258 57.6536 351.695 58.1797C352.133 58.7057 352.357 59.4922 352.367 60.5391V66H350.109V60.5938C350.109 60.1146 350.005 59.7682 349.797 59.5547C349.589 59.3359 349.242 59.2266 348.758 59.2266C348.122 59.2266 347.646 59.4974 347.328 60.0391V66H345.07V57.5469H347.195ZM357.602 64.3359C358.018 64.3359 358.357 64.2214 358.617 63.9922C358.878 63.763 359.013 63.4583 359.023 63.0781H361.141C361.135 63.651 360.979 64.1771 360.672 64.6562C360.365 65.1302 359.943 65.5 359.406 65.7656C358.875 66.026 358.286 66.1562 357.641 66.1562C356.432 66.1562 355.479 65.7734 354.781 65.0078C354.083 64.237 353.734 63.1745 353.734 61.8203V61.6719C353.734 60.3698 354.081 59.3307 354.773 58.5547C355.466 57.7786 356.417 57.3906 357.625 57.3906C358.682 57.3906 359.529 57.6927 360.164 58.2969C360.805 58.8958 361.13 59.6953 361.141 60.6953H359.023C359.013 60.2578 358.878 59.9036 358.617 59.6328C358.357 59.3568 358.013 59.2188 357.586 59.2188C357.06 59.2188 356.661 59.4115 356.391 59.7969C356.125 60.1771 355.992 60.7969 355.992 61.6562V61.8906C355.992 62.7604 356.125 63.3854 356.391 63.7656C356.656 64.1458 357.06 64.3359 357.602 64.3359ZM365.133 55.4688V57.5469H366.578V59.2031H365.133V63.4219C365.133 63.7344 365.193 63.9583 365.312 64.0938C365.432 64.2292 365.661 64.2969 366 64.2969C366.25 64.2969 366.471 64.2786 366.664 64.2422V65.9531C366.221 66.0885 365.766 66.1562 365.297 66.1562C363.714 66.1562 362.906 65.3568 362.875 63.7578V59.2031H361.641V57.5469H362.875V55.4688H365.133ZM370.219 66H367.953V57.5469H370.219V66ZM367.82 55.3594C367.82 55.0208 367.932 54.7422 368.156 54.5234C368.385 54.3047 368.695 54.1953 369.086 54.1953C369.471 54.1953 369.779 54.3047 370.008 54.5234C370.237 54.7422 370.352 55.0208 370.352 55.3594C370.352 55.7031 370.234 55.9844 370 56.2031C369.771 56.4219 369.466 56.5312 369.086 56.5312C368.706 56.5312 368.398 56.4219 368.164 56.2031C367.935 55.9844 367.82 55.7031 367.82 55.3594ZM371.734 61.6953C371.734 60.8568 371.896 60.1094 372.219 59.4531C372.542 58.7969 373.005 58.2891 373.609 57.9297C374.219 57.5703 374.924 57.3906 375.727 57.3906C376.867 57.3906 377.797 57.7396 378.516 58.4375C379.24 59.1354 379.643 60.0833 379.727 61.2812L379.742 61.8594C379.742 63.1562 379.38 64.1979 378.656 64.9844C377.932 65.7656 376.961 66.1562 375.742 66.1562C374.523 66.1562 373.549 65.7656 372.82 64.9844C372.096 64.2031 371.734 63.1406 371.734 61.7969V61.6953ZM373.992 61.8594C373.992 62.6615 374.143 63.276 374.445 63.7031C374.747 64.125 375.18 64.3359 375.742 64.3359C376.289 64.3359 376.716 64.1276 377.023 63.7109C377.331 63.2891 377.484 62.6172 377.484 61.6953C377.484 60.9089 377.331 60.2995 377.023 59.8672C376.716 59.4349 376.284 59.2188 375.727 59.2188C375.174 59.2188 374.747 59.4349 374.445 59.8672C374.143 60.2943 373.992 60.9583 373.992 61.8594ZM383.211 57.5469L383.281 58.5234C383.885 57.7682 384.695 57.3906 385.711 57.3906C386.607 57.3906 387.273 57.6536 387.711 58.1797C388.148 58.7057 388.372 59.4922 388.383 60.5391V66H386.125V60.5938C386.125 60.1146 386.021 59.7682 385.812 59.5547C385.604 59.3359 385.258 59.2266 384.773 59.2266C384.138 59.2266 383.661 59.4974 383.344 60.0391V66H381.086V57.5469H383.211Z" fill="#5452F6"/>
<path d="M326.5 109C325.97 109 325.461 108.789 325.086 108.414C324.711 108.039 324.5 107.53 324.5 107V85.1533C324.502 84.5828 324.729 84.0361 325.133 83.6326C325.536 83.2292 326.083 83.0018 326.653 83H352.357C352.925 83.0018 353.469 83.2281 353.87 83.6295C354.272 84.031 354.498 84.5749 354.5 85.1427V106.847C354.498 107.417 354.271 107.964 353.867 108.367C353.464 108.771 352.917 108.998 352.347 109H326.5Z" stroke="#5452F6" stroke-width="2" stroke-linecap="round" stroke-linejoin="round"/>
<path d="M329.967 105C329.589 105.01 329.222 104.871 328.947 104.611C328.672 104.352 328.512 103.994 328.5 103.616V88.4907C328.513 88.084 328.687 87.699 328.983 87.4197C329.279 87.1405 329.673 86.9896 330.08 87H348.928C349.333 86.99 349.725 87.1403 350.02 87.4183C350.314 87.6962 350.487 88.0793 350.5 88.484V103.509C350.487 103.916 350.313 104.301 350.017 104.58C349.721 104.86 349.327 105.01 348.92 105H329.967Z" stroke="#5452F6" stroke-width="2" stroke-linecap="round" stroke-linejoin="round"/>
<path d="M329.967 105C329.589 105.01 329.222 104.871 328.947 104.611C328.672 104.352 328.512 103.994 328.5 103.616V88.4907C328.513 88.084 328.687 87.699 328.983 87.4197C329.279 87.1405 329.673 86.9896 330.08 87H348.928C349.333 86.99 349.725 87.1403 350.02 87.4183C350.314 87.6962 350.487 88.0793 350.5 88.484V103.509C350.487 103.916 350.313 104.301 350.017 104.58C349.721 104.86 349.327 105.01 348.92 105H329.967Z" stroke="#5452F6" stroke-width="2" stroke-linecap="round" stroke-linejoin="round"/>
<path d="M341.5 96H345.5" stroke="#5452F6" stroke-width="2" stroke-linecap="round" stroke-linejoin="round"/>
<path d="M334.5 93L337.5 96L334.5 99" stroke="#5452F6" stroke-width="2" stroke-linecap="round" stroke-linejoin="round"/>
<rect x="227.5" y="29.5" width="224" height="87" rx="7.5" stroke="#5452F6"/>
</g>
<path d="M593.852 9.57031C593.852 10.6901 593.654 11.6719 593.258 12.5156C592.862 13.3594 592.294 14.0104 591.555 14.4688C590.82 14.9271 589.977 15.1562 589.023 15.1562C588.081 15.1562 587.24 14.9297 586.5 14.4766C585.76 14.0234 585.188 13.3776 584.781 12.5391C584.375 11.6953 584.169 10.7266 584.164 9.63281V9.07031C584.164 7.95052 584.365 6.96615 584.766 6.11719C585.172 5.26302 585.742 4.60938 586.477 4.15625C587.216 3.69792 588.06 3.46875 589.008 3.46875C589.956 3.46875 590.797 3.69792 591.531 4.15625C592.271 4.60938 592.841 5.26302 593.242 6.11719C593.648 6.96615 593.852 7.94792 593.852 9.0625V9.57031ZM591.477 9.05469C591.477 7.86198 591.263 6.95573 590.836 6.33594C590.409 5.71615 589.799 5.40625 589.008 5.40625C588.221 5.40625 587.615 5.71354 587.188 6.32812C586.76 6.9375 586.544 7.83333 586.539 9.01562V9.57031C586.539 10.7318 586.753 11.6328 587.18 12.2734C587.607 12.9141 588.221 13.2344 589.023 13.2344C589.81 13.2344 590.414 12.9271 590.836 12.3125C591.258 11.6927 591.471 10.7917 591.477 9.60938V9.05469ZM600.469 14.1406C599.911 14.8177 599.141 15.1562 598.156 15.1562C597.25 15.1562 596.557 14.8958 596.078 14.375C595.604 13.8542 595.362 13.0911 595.352 12.0859V6.54688H597.609V12.0078C597.609 12.888 598.01 13.3281 598.812 13.3281C599.578 13.3281 600.104 13.0625 600.391 12.5312V6.54688H602.656V15H600.531L600.469 14.1406ZM607.062 4.46875V6.54688H608.508V8.20312H607.062V12.4219C607.062 12.7344 607.122 12.9583 607.242 13.0938C607.362 13.2292 607.591 13.2969 607.93 13.2969C608.18 13.2969 608.401 13.2786 608.594 13.2422V14.9531C608.151 15.0885 607.695 15.1562 607.227 15.1562C605.643 15.1562 604.836 14.3568 604.805 12.7578V8.20312H603.57V6.54688H604.805V4.46875H607.062ZM617.375 10.8516C617.375 12.1536 617.078 13.1979 616.484 13.9844C615.896 14.7656 615.099 15.1562 614.094 15.1562C613.24 15.1562 612.549 14.8594 612.023 14.2656V18.25H609.766V6.54688H611.859L611.938 7.375C612.484 6.71875 613.198 6.39062 614.078 6.39062C615.12 6.39062 615.93 6.77604 616.508 7.54688C617.086 8.31771 617.375 9.38021 617.375 10.7344V10.8516ZM615.117 10.6875C615.117 9.90104 614.977 9.29427 614.695 8.86719C614.419 8.4401 614.016 8.22656 613.484 8.22656C612.776 8.22656 612.289 8.4974 612.023 9.03906V12.5C612.299 13.0573 612.792 13.3359 613.5 13.3359C614.578 13.3359 615.117 12.4531 615.117 10.6875ZM623.844 14.1406C623.286 14.8177 622.516 15.1562 621.531 15.1562C620.625 15.1562 619.932 14.8958 619.453 14.375C618.979 13.8542 618.737 13.0911 618.727 12.0859V6.54688H620.984V12.0078C620.984 12.888 621.385 13.3281 622.188 13.3281C622.953 13.3281 623.479 13.0625 623.766 12.5312V6.54688H626.031V15H623.906L623.844 14.1406ZM630.438 4.46875V6.54688H631.883V8.20312H630.438V12.4219C630.438 12.7344 630.497 12.9583 630.617 13.0938C630.737 13.2292 630.966 13.2969 631.305 13.2969C631.555 13.2969 631.776 13.2786 631.969 13.2422V14.9531C631.526 15.0885 631.07 15.1562 630.602 15.1562C629.018 15.1562 628.211 14.3568 628.18 12.7578V8.20312H626.945V6.54688H628.18V4.46875H630.438ZM637.719 12.6641C637.719 12.388 637.581 12.1719 637.305 12.0156C637.034 11.8542 636.596 11.7109 635.992 11.5859C633.982 11.1641 632.977 10.3099 632.977 9.02344C632.977 8.27344 633.286 7.64844 633.906 7.14844C634.531 6.64323 635.346 6.39062 636.352 6.39062C637.424 6.39062 638.281 6.64323 638.922 7.14844C639.568 7.65365 639.891 8.3099 639.891 9.11719H637.633C637.633 8.79427 637.529 8.52865 637.32 8.32031C637.112 8.10677 636.786 8 636.344 8C635.964 8 635.669 8.08594 635.461 8.25781C635.253 8.42969 635.148 8.64844 635.148 8.91406C635.148 9.16406 635.266 9.36719 635.5 9.52344C635.74 9.67448 636.141 9.80729 636.703 9.92188C637.266 10.0312 637.74 10.1562 638.125 10.2969C639.318 10.7344 639.914 11.4922 639.914 12.5703C639.914 13.3411 639.583 13.9661 638.922 14.4453C638.26 14.9193 637.406 15.1562 636.359 15.1562C635.651 15.1562 635.021 15.0312 634.469 14.7812C633.922 14.526 633.492 14.1797 633.18 13.7422C632.867 13.2995 632.711 12.8229 632.711 12.3125H634.852C634.872 12.7135 635.021 13.0208 635.297 13.2344C635.573 13.4479 635.943 13.5547 636.406 13.5547C636.839 13.5547 637.164 13.474 637.383 13.3125C637.607 13.1458 637.719 12.9297 637.719 12.6641Z" fill="#5452F6"/>
<path d="M552.156 60.7734H557.547V62H550.648V50.625H552.156V60.7734ZM560.602 62H559.156V53.5469H560.602V62ZM559.039 51.3047C559.039 51.0703 559.109 50.8724 559.25 50.7109C559.396 50.5495 559.609 50.4688 559.891 50.4688C560.172 50.4688 560.385 50.5495 560.531 50.7109C560.677 50.8724 560.75 51.0703 560.75 51.3047C560.75 51.5391 560.677 51.7344 560.531 51.8906C560.385 52.0469 560.172 52.125 559.891 52.125C559.609 52.125 559.396 52.0469 559.25 51.8906C559.109 51.7344 559.039 51.5391 559.039 51.3047ZM567.844 59.7578C567.844 59.3672 567.695 59.0651 567.398 58.8516C567.107 58.6328 566.594 58.4453 565.859 58.2891C565.13 58.1328 564.549 57.9453 564.117 57.7266C563.69 57.5078 563.372 57.2474 563.164 56.9453C562.961 56.6432 562.859 56.2839 562.859 55.8672C562.859 55.1745 563.151 54.5885 563.734 54.1094C564.323 53.6302 565.073 53.3906 565.984 53.3906C566.943 53.3906 567.719 53.638 568.312 54.1328C568.911 54.6276 569.211 55.2604 569.211 56.0312H567.758C567.758 55.6354 567.589 55.2943 567.25 55.0078C566.917 54.7214 566.495 54.5781 565.984 54.5781C565.458 54.5781 565.047 54.6927 564.75 54.9219C564.453 55.151 564.305 55.4505 564.305 55.8203C564.305 56.1693 564.443 56.4323 564.719 56.6094C564.995 56.7865 565.492 56.9557 566.211 57.1172C566.935 57.2786 567.521 57.4714 567.969 57.6953C568.417 57.9193 568.747 58.1901 568.961 58.5078C569.18 58.8203 569.289 59.2031 569.289 59.6562C569.289 60.4115 568.987 61.0182 568.383 61.4766C567.779 61.9297 566.995 62.1562 566.031 62.1562C565.354 62.1562 564.755 62.0365 564.234 61.7969C563.714 61.5573 563.305 61.224 563.008 60.7969C562.716 60.3646 562.57 59.8984 562.57 59.3984H564.016C564.042 59.8828 564.234 60.2682 564.594 60.5547C564.958 60.8359 565.438 60.9766 566.031 60.9766C566.578 60.9766 567.016 60.8672 567.344 60.6484C567.677 60.4245 567.844 60.1276 567.844 59.7578ZM573.133 51.5V53.5469H574.711V54.6641H573.133V59.9062C573.133 60.2448 573.203 60.5 573.344 60.6719C573.484 60.8385 573.724 60.9219 574.062 60.9219C574.229 60.9219 574.458 60.8906 574.75 60.8281V62C574.37 62.1042 574 62.1562 573.641 62.1562C572.995 62.1562 572.508 61.9609 572.18 61.5703C571.852 61.1797 571.688 60.625 571.688 59.9062V54.6641H570.148V53.5469H571.688V51.5H573.133ZM579.992 57.6953C579.992 56.8672 580.154 56.1224 580.477 55.4609C580.805 54.7995 581.258 54.2891 581.836 53.9297C582.419 53.5703 583.083 53.3906 583.828 53.3906C584.979 53.3906 585.909 53.7891 586.617 54.5859C587.331 55.3828 587.688 56.4427 587.688 57.7656V57.8672C587.688 58.6901 587.529 59.4297 587.211 60.0859C586.898 60.737 586.448 61.2448 585.859 61.6094C585.276 61.974 584.604 62.1562 583.844 62.1562C582.698 62.1562 581.768 61.7578 581.055 60.9609C580.346 60.1641 579.992 59.1094 579.992 57.7969V57.6953ZM581.445 57.8672C581.445 58.8047 581.661 59.5573 582.094 60.125C582.531 60.6927 583.115 60.9766 583.844 60.9766C584.578 60.9766 585.161 60.6901 585.594 60.1172C586.026 59.5391 586.242 58.7318 586.242 57.6953C586.242 56.7682 586.021 56.0182 585.578 55.4453C585.141 54.8672 584.557 54.5781 583.828 54.5781C583.115 54.5781 582.539 54.862 582.102 55.4297C581.664 55.9974 581.445 56.8099 581.445 57.8672ZM590.211 62V54.6641H588.875V53.5469H590.211V52.6797C590.211 51.7734 590.453 51.0729 590.938 50.5781C591.422 50.0833 592.107 49.8359 592.992 49.8359C593.326 49.8359 593.656 49.8802 593.984 49.9688L593.906 51.1406C593.661 51.0938 593.401 51.0703 593.125 51.0703C592.656 51.0703 592.294 51.2083 592.039 51.4844C591.784 51.7552 591.656 52.1458 591.656 52.6562V53.5469H593.461V54.6641H591.656V62H590.211ZM598.648 57.6953C598.648 56.8672 598.81 56.1224 599.133 55.4609C599.461 54.7995 599.914 54.2891 600.492 53.9297C601.076 53.5703 601.74 53.3906 602.484 53.3906C603.635 53.3906 604.565 53.7891 605.273 54.5859C605.987 55.3828 606.344 56.4427 606.344 57.7656V57.8672C606.344 58.6901 606.185 59.4297 605.867 60.0859C605.555 60.737 605.104 61.2448 604.516 61.6094C603.932 61.974 603.26 62.1562 602.5 62.1562C601.354 62.1562 600.424 61.7578 599.711 60.9609C599.003 60.1641 598.648 59.1094 598.648 57.7969V57.6953ZM600.102 57.8672C600.102 58.8047 600.318 59.5573 600.75 60.125C601.188 60.6927 601.771 60.9766 602.5 60.9766C603.234 60.9766 603.818 60.6901 604.25 60.1172C604.682 59.5391 604.898 58.7318 604.898 57.6953C604.898 56.7682 604.677 56.0182 604.234 55.4453C603.797 54.8672 603.214 54.5781 602.484 54.5781C601.771 54.5781 601.195 54.862 600.758 55.4297C600.32 55.9974 600.102 56.8099 600.102 57.8672ZM615.297 57.8672C615.297 59.1536 615.003 60.1901 614.414 60.9766C613.826 61.763 613.029 62.1562 612.023 62.1562C610.997 62.1562 610.19 61.8307 609.602 61.1797V65.25H608.156V53.5469H609.477L609.547 54.4844C610.135 53.7552 610.953 53.3906 612 53.3906C613.016 53.3906 613.818 53.7734 614.406 54.5391C615 55.3047 615.297 56.3698 615.297 57.7344V57.8672ZM613.852 57.7031C613.852 56.75 613.648 55.9974 613.242 55.4453C612.836 54.8932 612.279 54.6172 611.57 54.6172C610.695 54.6172 610.039 55.0052 609.602 55.7812V59.8203C610.034 60.5911 610.695 60.9766 611.586 60.9766C612.279 60.9766 612.828 60.7031 613.234 60.1562C613.646 59.6042 613.852 58.7865 613.852 57.7031ZM620.648 62.1562C619.503 62.1562 618.57 61.7812 617.852 61.0312C617.133 60.276 616.773 59.2682 616.773 58.0078V57.7422C616.773 56.9036 616.932 56.1562 617.25 55.5C617.573 54.8385 618.021 54.3229 618.594 53.9531C619.172 53.5781 619.797 53.3906 620.469 53.3906C621.568 53.3906 622.422 53.7526 623.031 54.4766C623.641 55.2005 623.945 56.237 623.945 57.5859V58.1875H618.219C618.24 59.0208 618.482 59.6953 618.945 60.2109C619.414 60.7214 620.008 60.9766 620.727 60.9766C621.237 60.9766 621.669 60.8724 622.023 60.6641C622.378 60.4557 622.688 60.1797 622.953 59.8359L623.836 60.5234C623.128 61.612 622.065 62.1562 620.648 62.1562ZM620.469 54.5781C619.885 54.5781 619.396 54.7917 619 55.2188C618.604 55.6406 618.359 56.2344 618.266 57H622.5V56.8906C622.458 56.1562 622.26 55.5885 621.906 55.1875C621.552 54.7812 621.073 54.5781 620.469 54.5781ZM629.711 54.8438C629.492 54.8073 629.255 54.7891 629 54.7891C628.052 54.7891 627.409 55.1927 627.07 56V62H625.625V53.5469H627.031L627.055 54.5234C627.529 53.7682 628.201 53.3906 629.07 53.3906C629.352 53.3906 629.565 53.4271 629.711 53.5V54.8438ZM635.953 62C635.87 61.8333 635.802 61.5365 635.75 61.1094C635.078 61.8073 634.276 62.1562 633.344 62.1562C632.51 62.1562 631.826 61.9219 631.289 61.4531C630.758 60.9792 630.492 60.3802 630.492 59.6562C630.492 58.776 630.826 58.0938 631.492 57.6094C632.164 57.1198 633.107 56.875 634.32 56.875H635.727V56.2109C635.727 55.7057 635.576 55.3047 635.273 55.0078C634.971 54.7057 634.526 54.5547 633.938 54.5547C633.422 54.5547 632.99 54.6849 632.641 54.9453C632.292 55.2057 632.117 55.5208 632.117 55.8906H630.664C630.664 55.4688 630.812 55.0625 631.109 54.6719C631.411 54.276 631.818 53.9635 632.328 53.7344C632.844 53.5052 633.409 53.3906 634.023 53.3906C634.997 53.3906 635.76 53.6354 636.312 54.125C636.865 54.6094 637.151 55.2786 637.172 56.1328V60.0234C637.172 60.7995 637.271 61.4167 637.469 61.875V62H635.953ZM633.555 60.8984C634.008 60.8984 634.438 60.7812 634.844 60.5469C635.25 60.3125 635.544 60.0078 635.727 59.6328V57.8984H634.594C632.823 57.8984 631.938 58.4167 631.938 59.4531C631.938 59.9062 632.089 60.2604 632.391 60.5156C632.693 60.7708 633.081 60.8984 633.555 60.8984ZM641.398 51.5V53.5469H642.977V54.6641H641.398V59.9062C641.398 60.2448 641.469 60.5 641.609 60.6719C641.75 60.8385 641.99 60.9219 642.328 60.9219C642.495 60.9219 642.724 60.8906 643.016 60.8281V62C642.635 62.1042 642.266 62.1562 641.906 62.1562C641.26 62.1562 640.773 61.9609 640.445 61.5703C640.117 61.1797 639.953 60.625 639.953 59.9062V54.6641H638.414V53.5469H639.953V51.5H641.398ZM646.242 62H644.797V53.5469H646.242V62ZM644.68 51.3047C644.68 51.0703 644.75 50.8724 644.891 50.7109C645.036 50.5495 645.25 50.4688 645.531 50.4688C645.812 50.4688 646.026 50.5495 646.172 50.7109C646.318 50.8724 646.391 51.0703 646.391 51.3047C646.391 51.5391 646.318 51.7344 646.172 51.8906C646.026 52.0469 645.812 52.125 645.531 52.125C645.25 52.125 645.036 52.0469 644.891 51.8906C644.75 51.7344 644.68 51.5391 644.68 51.3047ZM648.18 57.6953C648.18 56.8672 648.341 56.1224 648.664 55.4609C648.992 54.7995 649.445 54.2891 650.023 53.9297C650.607 53.5703 651.271 53.3906 652.016 53.3906C653.167 53.3906 654.096 53.7891 654.805 54.5859C655.518 55.3828 655.875 56.4427 655.875 57.7656V57.8672C655.875 58.6901 655.716 59.4297 655.398 60.0859C655.086 60.737 654.635 61.2448 654.047 61.6094C653.464 61.974 652.792 62.1562 652.031 62.1562C650.885 62.1562 649.956 61.7578 649.242 60.9609C648.534 60.1641 648.18 59.1094 648.18 57.7969V57.6953ZM649.633 57.8672C649.633 58.8047 649.849 59.5573 650.281 60.125C650.719 60.6927 651.302 60.9766 652.031 60.9766C652.766 60.9766 653.349 60.6901 653.781 60.1172C654.214 59.5391 654.43 58.7318 654.43 57.6953C654.43 56.7682 654.208 56.0182 653.766 55.4453C653.328 54.8672 652.745 54.5781 652.016 54.5781C651.302 54.5781 650.727 54.862 650.289 55.4297C649.852 55.9974 649.633 56.8099 649.633 57.8672ZM659.055 53.5469L659.102 54.6094C659.747 53.7969 660.591 53.3906 661.633 53.3906C663.419 53.3906 664.32 54.3984 664.336 56.4141V62H662.891V56.4062C662.885 55.7969 662.745 55.3464 662.469 55.0547C662.198 54.763 661.773 54.6172 661.195 54.6172C660.727 54.6172 660.315 54.7422 659.961 54.9922C659.607 55.2422 659.331 55.5703 659.133 55.9766V62H657.688V53.5469H659.055ZM671.438 59.7578C671.438 59.3672 671.289 59.0651 670.992 58.8516C670.701 58.6328 670.188 58.4453 669.453 58.2891C668.724 58.1328 668.143 57.9453 667.711 57.7266C667.284 57.5078 666.966 57.2474 666.758 56.9453C666.555 56.6432 666.453 56.2839 666.453 55.8672C666.453 55.1745 666.745 54.5885 667.328 54.1094C667.917 53.6302 668.667 53.3906 669.578 53.3906C670.536 53.3906 671.312 53.638 671.906 54.1328C672.505 54.6276 672.805 55.2604 672.805 56.0312H671.352C671.352 55.6354 671.182 55.2943 670.844 55.0078C670.51 54.7214 670.089 54.5781 669.578 54.5781C669.052 54.5781 668.641 54.6927 668.344 54.9219C668.047 55.151 667.898 55.4505 667.898 55.8203C667.898 56.1693 668.036 56.4323 668.312 56.6094C668.589 56.7865 669.086 56.9557 669.805 57.1172C670.529 57.2786 671.115 57.4714 671.562 57.6953C672.01 57.9193 672.341 58.1901 672.555 58.5078C672.773 58.8203 672.883 59.2031 672.883 59.6562C672.883 60.4115 672.581 61.0182 671.977 61.4766C671.372 61.9297 670.589 62.1562 669.625 62.1562C668.948 62.1562 668.349 62.0365 667.828 61.7969C667.307 61.5573 666.898 61.224 666.602 60.7969C666.31 60.3646 666.164 59.8984 666.164 59.3984H667.609C667.635 59.8828 667.828 60.2682 668.188 60.5547C668.552 60.8359 669.031 60.9766 669.625 60.9766C670.172 60.9766 670.609 60.8672 670.938 60.6484C671.271 60.4245 671.438 60.1276 671.438 59.7578Z" fill="#5452F6"/>
<path d="M63 15H60.6562V3.625H63V15ZM67.1094 6.54688L67.1797 7.52344C67.7839 6.76823 68.5938 6.39062 69.6094 6.39062C70.5052 6.39062 71.1719 6.65365 71.6094 7.17969C72.0469 7.70573 72.2708 8.49219 72.2812 9.53906V15H70.0234V9.59375C70.0234 9.11458 69.9193 8.76823 69.7109 8.55469C69.5026 8.33594 69.1562 8.22656 68.6719 8.22656C68.0365 8.22656 67.5599 8.4974 67.2422 9.03906V15H64.9844V6.54688H67.1094ZM81.6094 10.8516C81.6094 12.1536 81.3125 13.1979 80.7188 13.9844C80.1302 14.7656 79.3333 15.1562 78.3281 15.1562C77.474 15.1562 76.7839 14.8594 76.2578 14.2656V18.25H74V6.54688H76.0938L76.1719 7.375C76.7188 6.71875 77.4323 6.39062 78.3125 6.39062C79.3542 6.39062 80.1641 6.77604 80.7422 7.54688C81.3203 8.31771 81.6094 9.38021 81.6094 10.7344V10.8516ZM79.3516 10.6875C79.3516 9.90104 79.2109 9.29427 78.9297 8.86719C78.6536 8.4401 78.25 8.22656 77.7188 8.22656C77.0104 8.22656 76.5234 8.4974 76.2578 9.03906V12.5C76.5339 13.0573 77.026 13.3359 77.7344 13.3359C78.8125 13.3359 79.3516 12.4531 79.3516 10.6875ZM88.0781 14.1406C87.5208 14.8177 86.75 15.1562 85.7656 15.1562C84.8594 15.1562 84.1667 14.8958 83.6875 14.375C83.2135 13.8542 82.9714 13.0911 82.9609 12.0859V6.54688H85.2188V12.0078C85.2188 12.888 85.6198 13.3281 86.4219 13.3281C87.1875 13.3281 87.7135 13.0625 88 12.5312V6.54688H90.2656V15H88.1406L88.0781 14.1406ZM94.6719 4.46875V6.54688H96.1172V8.20312H94.6719V12.4219C94.6719 12.7344 94.7318 12.9583 94.8516 13.0938C94.9714 13.2292 95.2005 13.2969 95.5391 13.2969C95.7891 13.2969 96.0104 13.2786 96.2031 13.2422V14.9531C95.7604 15.0885 95.3047 15.1562 94.8359 15.1562C93.2526 15.1562 92.4453 14.3568 92.4141 12.7578V8.20312H91.1797V6.54688H92.4141V4.46875H94.6719Z" fill="#5452F6"/>
<path d="M10.125 40.3906C9.98438 41.5938 9.53906 42.5234 8.78906 43.1797C8.04427 43.8307 7.05208 44.1562 5.8125 44.1562C4.46875 44.1562 3.39062 43.6745 2.57812 42.7109C1.77083 41.7474 1.36719 40.4583 1.36719 38.8438V37.75C1.36719 36.6927 1.55469 35.763 1.92969 34.9609C2.3099 34.1589 2.84635 33.5443 3.53906 33.1172C4.23177 32.6849 5.03385 32.4688 5.94531 32.4688C7.15365 32.4688 8.1224 32.8073 8.85156 33.4844C9.58073 34.1562 10.0052 35.0885 10.125 36.2812H8.61719C8.48698 35.375 8.20312 34.7188 7.76562 34.3125C7.33333 33.9062 6.72656 33.7031 5.94531 33.7031C4.98698 33.7031 4.23438 34.0573 3.6875 34.7656C3.14583 35.474 2.875 36.4818 2.875 37.7891V38.8906C2.875 40.125 3.13281 41.1068 3.64844 41.8359C4.16406 42.5651 4.88542 42.9297 5.8125 42.9297C6.64583 42.9297 7.28385 42.7422 7.72656 42.3672C8.17448 41.987 8.47135 41.3281 8.61719 40.3906H10.125ZM11.5703 39.6953C11.5703 38.8672 11.7318 38.1224 12.0547 37.4609C12.3828 36.7995 12.8359 36.2891 13.4141 35.9297C13.9974 35.5703 14.6615 35.3906 15.4062 35.3906C16.5573 35.3906 17.487 35.7891 18.1953 36.5859C18.9089 37.3828 19.2656 38.4427 19.2656 39.7656V39.8672C19.2656 40.6901 19.1068 41.4297 18.7891 42.0859C18.4766 42.737 18.026 43.2448 17.4375 43.6094C16.8542 43.974 16.1823 44.1562 15.4219 44.1562C14.276 44.1562 13.3464 43.7578 12.6328 42.9609C11.9245 42.1641 11.5703 41.1094 11.5703 39.7969V39.6953ZM13.0234 39.8672C13.0234 40.8047 13.2396 41.5573 13.6719 42.125C14.1094 42.6927 14.6927 42.9766 15.4219 42.9766C16.1562 42.9766 16.7396 42.6901 17.1719 42.1172C17.6042 41.5391 17.8203 40.7318 17.8203 39.6953C17.8203 38.7682 17.599 38.0182 17.1562 37.4453C16.7188 36.8672 16.1354 36.5781 15.4062 36.5781C14.6927 36.5781 14.1172 36.862 13.6797 37.4297C13.2422 37.9974 13.0234 38.8099 13.0234 39.8672ZM22.4453 35.5469L22.4922 36.6094C23.138 35.7969 23.9818 35.3906 25.0234 35.3906C26.8099 35.3906 27.7109 36.3984 27.7266 38.4141V44H26.2812V38.4062C26.276 37.7969 26.1354 37.3464 25.8594 37.0547C25.5885 36.763 25.1641 36.6172 24.5859 36.6172C24.1172 36.6172 23.7057 36.7422 23.3516 36.9922C22.9974 37.2422 22.7214 37.5703 22.5234 37.9766V44H21.0781V35.5469H22.4453ZM31.8672 33.5V35.5469H33.4453V36.6641H31.8672V41.9062C31.8672 42.2448 31.9375 42.5 32.0781 42.6719C32.2188 42.8385 32.4583 42.9219 32.7969 42.9219C32.9635 42.9219 33.1927 42.8906 33.4844 42.8281V44C33.1042 44.1042 32.7344 44.1562 32.375 44.1562C31.7292 44.1562 31.2422 43.9609 30.9141 43.5703C30.5859 43.1797 30.4219 42.625 30.4219 41.9062V36.6641H28.8828V35.5469H30.4219V33.5H31.8672ZM39.2266 36.8438C39.0078 36.8073 38.7708 36.7891 38.5156 36.7891C37.5677 36.7891 36.9245 37.1927 36.5859 38V44H35.1406V35.5469H36.5469L36.5703 36.5234C37.0443 35.7682 37.7161 35.3906 38.5859 35.3906C38.8672 35.3906 39.0807 35.4271 39.2266 35.5V36.8438ZM45.4688 44C45.3854 43.8333 45.3177 43.5365 45.2656 43.1094C44.5938 43.8073 43.7917 44.1562 42.8594 44.1562C42.026 44.1562 41.3411 43.9219 40.8047 43.4531C40.2734 42.9792 40.0078 42.3802 40.0078 41.6562C40.0078 40.776 40.3411 40.0938 41.0078 39.6094C41.6797 39.1198 42.6224 38.875 43.8359 38.875H45.2422V38.2109C45.2422 37.7057 45.0911 37.3047 44.7891 37.0078C44.487 36.7057 44.0417 36.5547 43.4531 36.5547C42.9375 36.5547 42.5052 36.6849 42.1562 36.9453C41.8073 37.2057 41.6328 37.5208 41.6328 37.8906H40.1797C40.1797 37.4688 40.3281 37.0625 40.625 36.6719C40.9271 36.276 41.3333 35.9635 41.8438 35.7344C42.3594 35.5052 42.9245 35.3906 43.5391 35.3906C44.513 35.3906 45.276 35.6354 45.8281 36.125C46.3802 36.6094 46.6667 37.2786 46.6875 38.1328V42.0234C46.6875 42.7995 46.7865 43.4167 46.9844 43.875V44H45.4688ZM43.0703 42.8984C43.5234 42.8984 43.9531 42.7812 44.3594 42.5469C44.7656 42.3125 45.0599 42.0078 45.2422 41.6328V39.8984H44.1094C42.3385 39.8984 41.4531 40.4167 41.4531 41.4531C41.4531 41.9062 41.6042 42.2604 41.9062 42.5156C42.2083 42.7708 42.5964 42.8984 43.0703 42.8984ZM52.3438 42.9766C52.8594 42.9766 53.3099 42.8203 53.6953 42.5078C54.0807 42.1953 54.2943 41.8047 54.3359 41.3359H55.7031C55.6771 41.8203 55.5104 42.2812 55.2031 42.7188C54.8958 43.1562 54.4844 43.5052 53.9688 43.7656C53.4583 44.026 52.9167 44.1562 52.3438 44.1562C51.1927 44.1562 50.276 43.7734 49.5938 43.0078C48.9167 42.237 48.5781 41.1849 48.5781 39.8516V39.6094C48.5781 38.7865 48.7292 38.0547 49.0312 37.4141C49.3333 36.7734 49.7656 36.276 50.3281 35.9219C50.8958 35.5677 51.5651 35.3906 52.3359 35.3906C53.2839 35.3906 54.0703 35.6745 54.6953 36.2422C55.3255 36.8099 55.6615 37.5469 55.7031 38.4531H54.3359C54.2943 37.9062 54.0859 37.4583 53.7109 37.1094C53.3411 36.7552 52.8828 36.5781 52.3359 36.5781C51.6016 36.5781 51.0312 36.8438 50.625 37.375C50.224 37.901 50.0234 38.6641 50.0234 39.6641V39.9375C50.0234 40.9115 50.224 41.6615 50.625 42.1875C51.026 42.7135 51.599 42.9766 52.3438 42.9766ZM59.2891 33.5V35.5469H60.8672V36.6641H59.2891V41.9062C59.2891 42.2448 59.3594 42.5 59.5 42.6719C59.6406 42.8385 59.8802 42.9219 60.2188 42.9219C60.3854 42.9219 60.6146 42.8906 60.9062 42.8281V44C60.526 44.1042 60.1562 44.1562 59.7969 44.1562C59.151 44.1562 58.6641 43.9609 58.3359 43.5703C58.0078 43.1797 57.8438 42.625 57.8438 41.9062V36.6641H56.3047V35.5469H57.8438V33.5H59.2891ZM73.6719 39.8672C73.6719 41.1536 73.3776 42.1901 72.7891 42.9766C72.2005 43.763 71.4036 44.1562 70.3984 44.1562C69.3724 44.1562 68.5651 43.8307 67.9766 43.1797V47.25H66.5312V35.5469H67.8516L67.9219 36.4844C68.5104 35.7552 69.3281 35.3906 70.375 35.3906C71.3906 35.3906 72.1927 35.7734 72.7812 36.5391C73.375 37.3047 73.6719 38.3698 73.6719 39.7344V39.8672ZM72.2266 39.7031C72.2266 38.75 72.0234 37.9974 71.6172 37.4453C71.2109 36.8932 70.6536 36.6172 69.9453 36.6172C69.0703 36.6172 68.4141 37.0052 67.9766 37.7812V41.8203C68.4089 42.5911 69.0703 42.9766 69.9609 42.9766C70.6536 42.9766 71.2031 42.7031 71.6094 42.1562C72.0208 41.6042 72.2266 40.7865 72.2266 39.7031ZM80.7344 44C80.651 43.8333 80.5833 43.5365 80.5312 43.1094C79.8594 43.8073 79.0573 44.1562 78.125 44.1562C77.2917 44.1562 76.6068 43.9219 76.0703 43.4531C75.5391 42.9792 75.2734 42.3802 75.2734 41.6562C75.2734 40.776 75.6068 40.0938 76.2734 39.6094C76.9453 39.1198 77.888 38.875 79.1016 38.875H80.5078V38.2109C80.5078 37.7057 80.3568 37.3047 80.0547 37.0078C79.7526 36.7057 79.3073 36.5547 78.7188 36.5547C78.2031 36.5547 77.7708 36.6849 77.4219 36.9453C77.0729 37.2057 76.8984 37.5208 76.8984 37.8906H75.4453C75.4453 37.4688 75.5938 37.0625 75.8906 36.6719C76.1927 36.276 76.599 35.9635 77.1094 35.7344C77.625 35.5052 78.1901 35.3906 78.8047 35.3906C79.7786 35.3906 80.5417 35.6354 81.0938 36.125C81.6458 36.6094 81.9323 37.2786 81.9531 38.1328V42.0234C81.9531 42.7995 82.0521 43.4167 82.25 43.875V44H80.7344ZM78.3359 42.8984C78.7891 42.8984 79.2188 42.7812 79.625 42.5469C80.0312 42.3125 80.3255 42.0078 80.5078 41.6328V39.8984H79.375C77.6042 39.8984 76.7188 40.4167 76.7188 41.4531C76.7188 41.9062 76.8698 42.2604 77.1719 42.5156C77.474 42.7708 77.862 42.8984 78.3359 42.8984ZM88.3047 36.8438C88.0859 36.8073 87.849 36.7891 87.5938 36.7891C86.6458 36.7891 86.0026 37.1927 85.6641 38V44H84.2188V35.5469H85.625L85.6484 36.5234C86.1224 35.7682 86.7943 35.3906 87.6641 35.3906C87.9453 35.3906 88.1589 35.4271 88.3047 35.5V36.8438ZM94.5469 44C94.4635 43.8333 94.3958 43.5365 94.3438 43.1094C93.6719 43.8073 92.8698 44.1562 91.9375 44.1562C91.1042 44.1562 90.4193 43.9219 89.8828 43.4531C89.3516 42.9792 89.0859 42.3802 89.0859 41.6562C89.0859 40.776 89.4193 40.0938 90.0859 39.6094C90.7578 39.1198 91.7005 38.875 92.9141 38.875H94.3203V38.2109C94.3203 37.7057 94.1693 37.3047 93.8672 37.0078C93.5651 36.7057 93.1198 36.5547 92.5312 36.5547C92.0156 36.5547 91.5833 36.6849 91.2344 36.9453C90.8854 37.2057 90.7109 37.5208 90.7109 37.8906H89.2578C89.2578 37.4688 89.4062 37.0625 89.7031 36.6719C90.0052 36.276 90.4115 35.9635 90.9219 35.7344C91.4375 35.5052 92.0026 35.3906 92.6172 35.3906C93.5911 35.3906 94.3542 35.6354 94.9062 36.125C95.4583 36.6094 95.7448 37.2786 95.7656 38.1328V42.0234C95.7656 42.7995 95.8646 43.4167 96.0625 43.875V44H94.5469ZM92.1484 42.8984C92.6016 42.8984 93.0312 42.7812 93.4375 42.5469C93.8438 42.3125 94.138 42.0078 94.3203 41.6328V39.8984H93.1875C91.4167 39.8984 90.5312 40.4167 90.5312 41.4531C90.5312 41.9062 90.6823 42.2604 90.9844 42.5156C91.2865 42.7708 91.6745 42.8984 92.1484 42.8984ZM99.3906 35.5469L99.4297 36.4844C100.049 35.7552 100.885 35.3906 101.938 35.3906C103.12 35.3906 103.924 35.8438 104.352 36.75C104.633 36.3438 104.997 36.0156 105.445 35.7656C105.898 35.5156 106.432 35.3906 107.047 35.3906C108.901 35.3906 109.844 36.3724 109.875 38.3359V44H108.43V38.4219C108.43 37.8177 108.292 37.3672 108.016 37.0703C107.74 36.7682 107.276 36.6172 106.625 36.6172C106.089 36.6172 105.643 36.7786 105.289 37.1016C104.935 37.4193 104.729 37.849 104.672 38.3906V44H103.219V38.4609C103.219 37.2318 102.617 36.6172 101.414 36.6172C100.466 36.6172 99.8177 37.0208 99.4688 37.8281V44H98.0234V35.5469H99.3906ZM115.57 44.1562C114.424 44.1562 113.492 43.7812 112.773 43.0312C112.055 42.276 111.695 41.2682 111.695 40.0078V39.7422C111.695 38.9036 111.854 38.1562 112.172 37.5C112.495 36.8385 112.943 36.3229 113.516 35.9531C114.094 35.5781 114.719 35.3906 115.391 35.3906C116.49 35.3906 117.344 35.7526 117.953 36.4766C118.562 37.2005 118.867 38.237 118.867 39.5859V40.1875H113.141C113.161 41.0208 113.404 41.6953 113.867 42.2109C114.336 42.7214 114.93 42.9766 115.648 42.9766C116.159 42.9766 116.591 42.8724 116.945 42.6641C117.299 42.4557 117.609 42.1797 117.875 41.8359L118.758 42.5234C118.049 43.612 116.987 44.1562 115.57 44.1562ZM115.391 36.5781C114.807 36.5781 114.318 36.7917 113.922 37.2188C113.526 37.6406 113.281 38.2344 113.188 39H117.422V38.8906C117.38 38.1562 117.182 37.5885 116.828 37.1875C116.474 36.7812 115.995 36.5781 115.391 36.5781ZM122.508 33.5V35.5469H124.086V36.6641H122.508V41.9062C122.508 42.2448 122.578 42.5 122.719 42.6719C122.859 42.8385 123.099 42.9219 123.438 42.9219C123.604 42.9219 123.833 42.8906 124.125 42.8281V44C123.745 44.1042 123.375 44.1562 123.016 44.1562C122.37 44.1562 121.883 43.9609 121.555 43.5703C121.227 43.1797 121.062 42.625 121.062 41.9062V36.6641H119.523V35.5469H121.062V33.5H122.508ZM129.289 44.1562C128.143 44.1562 127.211 43.7812 126.492 43.0312C125.773 42.276 125.414 41.2682 125.414 40.0078V39.7422C125.414 38.9036 125.573 38.1562 125.891 37.5C126.214 36.8385 126.661 36.3229 127.234 35.9531C127.812 35.5781 128.438 35.3906 129.109 35.3906C130.208 35.3906 131.062 35.7526 131.672 36.4766C132.281 37.2005 132.586 38.237 132.586 39.5859V40.1875H126.859C126.88 41.0208 127.122 41.6953 127.586 42.2109C128.055 42.7214 128.648 42.9766 129.367 42.9766C129.878 42.9766 130.31 42.8724 130.664 42.6641C131.018 42.4557 131.328 42.1797 131.594 41.8359L132.477 42.5234C131.768 43.612 130.706 44.1562 129.289 44.1562ZM129.109 36.5781C128.526 36.5781 128.036 36.7917 127.641 37.2188C127.245 37.6406 127 38.2344 126.906 39H131.141V38.8906C131.099 38.1562 130.901 37.5885 130.547 37.1875C130.193 36.7812 129.714 36.5781 129.109 36.5781ZM138.352 36.8438C138.133 36.8073 137.896 36.7891 137.641 36.7891C136.693 36.7891 136.049 37.1927 135.711 38V44H134.266V35.5469H135.672L135.695 36.5234C136.169 35.7682 136.841 35.3906 137.711 35.3906C137.992 35.3906 138.206 35.4271 138.352 35.5V36.8438ZM31.1484 58.3828C31.1484 57.2057 31.3047 56.0755 31.6172 54.9922C31.9349 53.9089 32.4062 52.9245 33.0312 52.0391C33.6562 51.1536 34.3047 50.5286 34.9766 50.1641L35.2734 51.1172C34.513 51.7005 33.888 52.5911 33.3984 53.7891C32.9141 54.987 32.6484 56.3281 32.6016 57.8125L32.5938 58.4766C32.5938 60.487 32.9609 62.2318 33.6953 63.7109C34.138 64.5964 34.6641 65.2891 35.2734 65.7891L34.9766 66.6719C34.2839 66.2865 33.6224 65.6406 32.9922 64.7344C31.763 62.9635 31.1484 60.8464 31.1484 58.3828ZM40.1797 63.1562C39.0339 63.1562 38.1016 62.7812 37.3828 62.0312C36.6641 61.276 36.3047 60.2682 36.3047 59.0078V58.7422C36.3047 57.9036 36.4635 57.1562 36.7812 56.5C37.1042 55.8385 37.5521 55.3229 38.125 54.9531C38.7031 54.5781 39.3281 54.3906 40 54.3906C41.099 54.3906 41.9531 54.7526 42.5625 55.4766C43.1719 56.2005 43.4766 57.237 43.4766 58.5859V59.1875H37.75C37.7708 60.0208 38.013 60.6953 38.4766 61.2109C38.9453 61.7214 39.5391 61.9766 40.2578 61.9766C40.7682 61.9766 41.2005 61.8724 41.5547 61.6641C41.9089 61.4557 42.2188 61.1797 42.4844 60.8359L43.3672 61.5234C42.6589 62.612 41.5964 63.1562 40.1797 63.1562ZM40 55.5781C39.4167 55.5781 38.9271 55.7917 38.5312 56.2188C38.1354 56.6406 37.8906 57.2344 37.7969 58H42.0312V57.8906C41.9896 57.1562 41.7917 56.5885 41.4375 56.1875C41.0833 55.7812 40.6042 55.5781 40 55.5781ZM46.5234 54.5469L46.5703 55.6094C47.2161 54.7969 48.0599 54.3906 49.1016 54.3906C50.888 54.3906 51.7891 55.3984 51.8047 57.4141V63H50.3594V57.4062C50.3542 56.7969 50.2135 56.3464 49.9375 56.0547C49.6667 55.763 49.2422 55.6172 48.6641 55.6172C48.1953 55.6172 47.7839 55.7422 47.4297 55.9922C47.0755 56.2422 46.7995 56.5703 46.6016 56.9766V63H45.1562V54.5469H46.5234ZM55.9453 52.5V54.5469H57.5234V55.6641H55.9453V60.9062C55.9453 61.2448 56.0156 61.5 56.1562 61.6719C56.2969 61.8385 56.5365 61.9219 56.875 61.9219C57.0417 61.9219 57.2708 61.8906 57.5625 61.8281V63C57.1823 63.1042 56.8125 63.1562 56.4531 63.1562C55.8073 63.1562 55.3203 62.9609 54.9922 62.5703C54.6641 62.1797 54.5 61.625 54.5 60.9062V55.6641H52.9609V54.5469H54.5V52.5H55.9453ZM63.3047 55.8438C63.0859 55.8073 62.849 55.7891 62.5938 55.7891C61.6458 55.7891 61.0026 56.1927 60.6641 57V63H59.2188V54.5469H60.625L60.6484 55.5234C61.1224 54.7682 61.7943 54.3906 62.6641 54.3906C62.9453 54.3906 63.1589 54.4271 63.3047 54.5V55.8438ZM67.5469 60.8828L69.5156 54.5469H71.0625L67.6641 64.3047C67.138 65.7109 66.3021 66.4141 65.1562 66.4141L64.8828 66.3906L64.3438 66.2891V65.1172L64.7344 65.1484C65.224 65.1484 65.6042 65.0495 65.875 64.8516C66.151 64.6536 66.3776 64.2917 66.5547 63.7656L66.875 62.9062L63.8594 54.5469H65.4375L67.5469 60.8828ZM79.5 58.8672C79.5 60.1536 79.2057 61.1901 78.6172 61.9766C78.0286 62.763 77.2318 63.1562 76.2266 63.1562C75.2005 63.1562 74.3932 62.8307 73.8047 62.1797V66.25H72.3594V54.5469H73.6797L73.75 55.4844C74.3385 54.7552 75.1562 54.3906 76.2031 54.3906C77.2188 54.3906 78.0208 54.7734 78.6094 55.5391C79.2031 56.3047 79.5 57.3698 79.5 58.7344V58.8672ZM78.0547 58.7031C78.0547 57.75 77.8516 56.9974 77.4453 56.4453C77.0391 55.8932 76.4818 55.6172 75.7734 55.6172C74.8984 55.6172 74.2422 56.0052 73.8047 56.7812V60.8203C74.237 61.5911 74.8984 61.9766 75.7891 61.9766C76.4818 61.9766 77.0312 61.7031 77.4375 61.1562C77.849 60.6042 78.0547 59.7865 78.0547 58.7031ZM80.9609 58.6953C80.9609 57.8672 81.1224 57.1224 81.4453 56.4609C81.7734 55.7995 82.2266 55.2891 82.8047 54.9297C83.388 54.5703 84.0521 54.3906 84.7969 54.3906C85.9479 54.3906 86.8776 54.7891 87.5859 55.5859C88.2995 56.3828 88.6562 57.4427 88.6562 58.7656V58.8672C88.6562 59.6901 88.4974 60.4297 88.1797 61.0859C87.8672 61.737 87.4167 62.2448 86.8281 62.6094C86.2448 62.974 85.5729 63.1562 84.8125 63.1562C83.6667 63.1562 82.737 62.7578 82.0234 61.9609C81.3151 61.1641 80.9609 60.1094 80.9609 58.7969V58.6953ZM82.4141 58.8672C82.4141 59.8047 82.6302 60.5573 83.0625 61.125C83.5 61.6927 84.0833 61.9766 84.8125 61.9766C85.5469 61.9766 86.1302 61.6901 86.5625 61.1172C86.9948 60.5391 87.2109 59.7318 87.2109 58.6953C87.2109 57.7682 86.9896 57.0182 86.5469 56.4453C86.1094 55.8672 85.526 55.5781 84.7969 55.5781C84.0833 55.5781 83.5078 55.862 83.0703 56.4297C82.6328 56.9974 82.4141 57.8099 82.4141 58.8672ZM92.0391 63H90.5938V54.5469H92.0391V63ZM90.4766 52.3047C90.4766 52.0703 90.5469 51.8724 90.6875 51.7109C90.8333 51.5495 91.0469 51.4688 91.3281 51.4688C91.6094 51.4688 91.8229 51.5495 91.9688 51.7109C92.1146 51.8724 92.1875 52.0703 92.1875 52.3047C92.1875 52.5391 92.1146 52.7344 91.9688 52.8906C91.8229 53.0469 91.6094 53.125 91.3281 53.125C91.0469 53.125 90.8333 53.0469 90.6875 52.8906C90.5469 52.7344 90.4766 52.5391 90.4766 52.3047ZM95.7266 54.5469L95.7734 55.6094C96.4193 54.7969 97.263 54.3906 98.3047 54.3906C100.091 54.3906 100.992 55.3984 101.008 57.4141V63H99.5625V57.4062C99.5573 56.7969 99.4167 56.3464 99.1406 56.0547C98.8698 55.763 98.4453 55.6172 97.8672 55.6172C97.3984 55.6172 96.987 55.7422 96.6328 55.9922C96.2786 56.2422 96.0026 56.5703 95.8047 56.9766V63H94.3594V54.5469H95.7266ZM105.148 52.5V54.5469H106.727V55.6641H105.148V60.9062C105.148 61.2448 105.219 61.5 105.359 61.6719C105.5 61.8385 105.74 61.9219 106.078 61.9219C106.245 61.9219 106.474 61.8906 106.766 61.8281V63C106.385 63.1042 106.016 63.1562 105.656 63.1562C105.01 63.1562 104.523 62.9609 104.195 62.5703C103.867 62.1797 103.703 61.625 103.703 60.9062V55.6641H102.164V54.5469H103.703V52.5H105.148ZM111.758 58.4609C111.758 59.6224 111.604 60.737 111.297 61.8047C110.995 62.8672 110.529 63.849 109.898 64.75C109.273 65.651 108.617 66.2917 107.93 66.6719L107.625 65.7891C108.427 65.1745 109.07 64.2214 109.555 62.9297C110.044 61.6328 110.294 60.1953 110.305 58.6172V58.3672C110.305 57.2734 110.19 56.2578 109.961 55.3203C109.732 54.3776 109.411 53.5339 109 52.7891C108.594 52.0443 108.135 51.4635 107.625 51.0469L107.93 50.1641C108.617 50.5443 109.271 51.1797 109.891 52.0703C110.516 52.9609 110.982 53.9427 111.289 55.0156C111.602 56.0885 111.758 57.237 111.758 58.4609Z" fill="#5452F6"/>
<path d="M21.2891 95.6797C21.2891 96.7943 21.1016 97.7682 20.7266 98.6016C20.3516 99.4297 19.8203 100.062 19.1328 100.5C18.4453 100.938 17.6432 101.156 16.7266 101.156C15.8307 101.156 15.0365 100.938 14.3438 100.5C13.651 100.057 13.112 99.4297 12.7266 98.6172C12.3464 97.7995 12.151 96.8542 12.1406 95.7812V94.9609C12.1406 93.8672 12.3307 92.901 12.7109 92.0625C13.0911 91.224 13.6276 90.5833 14.3203 90.1406C15.0182 89.6927 15.8151 89.4688 16.7109 89.4688C17.6224 89.4688 18.4245 89.6901 19.1172 90.1328C19.8151 90.5703 20.3516 91.2083 20.7266 92.0469C21.1016 92.8802 21.2891 93.8516 21.2891 94.9609V95.6797ZM19.7969 94.9453C19.7969 93.5964 19.526 92.5625 18.9844 91.8438C18.4427 91.1198 17.6849 90.7578 16.7109 90.7578C15.763 90.7578 15.0156 91.1198 14.4688 91.8438C13.9271 92.5625 13.6484 93.5625 13.6328 94.8438V95.6797C13.6328 96.987 13.9062 98.0156 14.4531 98.7656C15.0052 99.5104 15.763 99.8828 16.7266 99.8828C17.6953 99.8828 18.4453 99.5312 18.9766 98.8281C19.5078 98.1198 19.7812 97.1068 19.7969 95.7891V94.9453ZM24.6797 92.5469L24.7266 93.6094C25.3724 92.7969 26.2161 92.3906 27.2578 92.3906C29.0443 92.3906 29.9453 93.3984 29.9609 95.4141V101H28.5156V95.4062C28.5104 94.7969 28.3698 94.3464 28.0938 94.0547C27.8229 93.763 27.3984 93.6172 26.8203 93.6172C26.3516 93.6172 25.9401 93.7422 25.5859 93.9922C25.2318 94.2422 24.9557 94.5703 24.7578 94.9766V101H23.3125V92.5469H24.6797ZM35.1484 96.7578H31.3359V95.5781H35.1484V96.7578ZM39.9531 99.9766C40.4688 99.9766 40.9193 99.8203 41.3047 99.5078C41.6901 99.1953 41.9036 98.8047 41.9453 98.3359H43.3125C43.2865 98.8203 43.1198 99.2812 42.8125 99.7188C42.5052 100.156 42.0938 100.505 41.5781 100.766C41.0677 101.026 40.526 101.156 39.9531 101.156C38.8021 101.156 37.8854 100.773 37.2031 100.008C36.526 99.237 36.1875 98.1849 36.1875 96.8516V96.6094C36.1875 95.7865 36.3385 95.0547 36.6406 94.4141C36.9427 93.7734 37.375 93.276 37.9375 92.9219C38.5052 92.5677 39.1745 92.3906 39.9453 92.3906C40.8932 92.3906 41.6797 92.6745 42.3047 93.2422C42.9349 93.8099 43.2708 94.5469 43.3125 95.4531H41.9453C41.9036 94.9062 41.6953 94.4583 41.3203 94.1094C40.9505 93.7552 40.4922 93.5781 39.9453 93.5781C39.2109 93.5781 38.6406 93.8438 38.2344 94.375C37.8333 94.901 37.6328 95.6641 37.6328 96.6641V96.9375C37.6328 97.9115 37.8333 98.6615 38.2344 99.1875C38.6354 99.7135 39.2083 99.9766 39.9531 99.9766ZM46.3828 93.5703C47.0234 92.7839 47.8568 92.3906 48.8828 92.3906C50.6693 92.3906 51.5703 93.3984 51.5859 95.4141V101H50.1406V95.4062C50.1354 94.7969 49.9948 94.3464 49.7188 94.0547C49.4479 93.763 49.0234 93.6172 48.4453 93.6172C47.9766 93.6172 47.5651 93.7422 47.2109 93.9922C46.8568 94.2422 46.5807 94.5703 46.3828 94.9766V101H44.9375V89H46.3828V93.5703ZM58.9688 101C58.8854 100.833 58.8177 100.536 58.7656 100.109C58.0938 100.807 57.2917 101.156 56.3594 101.156C55.526 101.156 54.8411 100.922 54.3047 100.453C53.7734 99.9792 53.5078 99.3802 53.5078 98.6562C53.5078 97.776 53.8411 97.0938 54.5078 96.6094C55.1797 96.1198 56.1224 95.875 57.3359 95.875H58.7422V95.2109C58.7422 94.7057 58.5911 94.3047 58.2891 94.0078C57.987 93.7057 57.5417 93.5547 56.9531 93.5547C56.4375 93.5547 56.0052 93.6849 55.6562 93.9453C55.3073 94.2057 55.1328 94.5208 55.1328 94.8906H53.6797C53.6797 94.4688 53.8281 94.0625 54.125 93.6719C54.4271 93.276 54.8333 92.9635 55.3438 92.7344C55.8594 92.5052 56.4245 92.3906 57.0391 92.3906C58.013 92.3906 58.776 92.6354 59.3281 93.125C59.8802 93.6094 60.1667 94.2786 60.1875 95.1328V99.0234C60.1875 99.7995 60.2865 100.417 60.4844 100.875V101H58.9688ZM56.5703 99.8984C57.0234 99.8984 57.4531 99.7812 57.8594 99.5469C58.2656 99.3125 58.5599 99.0078 58.7422 98.6328V96.8984H57.6094C55.8385 96.8984 54.9531 97.4167 54.9531 98.4531C54.9531 98.9062 55.1042 99.2604 55.4062 99.5156C55.7083 99.7708 56.0964 99.8984 56.5703 99.8984ZM64.0234 101H62.5781V92.5469H64.0234V101ZM62.4609 90.3047C62.4609 90.0703 62.5312 89.8724 62.6719 89.7109C62.8177 89.5495 63.0312 89.4688 63.3125 89.4688C63.5938 89.4688 63.8073 89.5495 63.9531 89.7109C64.099 89.8724 64.1719 90.0703 64.1719 90.3047C64.1719 90.5391 64.099 90.7344 63.9531 90.8906C63.8073 91.0469 63.5938 91.125 63.3125 91.125C63.0312 91.125 62.8177 91.0469 62.6719 90.8906C62.5312 90.7344 62.4609 90.5391 62.4609 90.3047ZM67.7109 92.5469L67.7578 93.6094C68.4036 92.7969 69.2474 92.3906 70.2891 92.3906C72.0755 92.3906 72.9766 93.3984 72.9922 95.4141V101H71.5469V95.4062C71.5417 94.7969 71.401 94.3464 71.125 94.0547C70.8542 93.763 70.4297 93.6172 69.8516 93.6172C69.3828 93.6172 68.9714 93.7422 68.6172 93.9922C68.263 94.2422 67.987 94.5703 67.7891 94.9766V101H66.3438V92.5469H67.7109ZM84.0625 98.7578C84.0625 98.3672 83.9141 98.0651 83.6172 97.8516C83.3255 97.6328 82.8125 97.4453 82.0781 97.2891C81.349 97.1328 80.7682 96.9453 80.3359 96.7266C79.9089 96.5078 79.5911 96.2474 79.3828 95.9453C79.1797 95.6432 79.0781 95.2839 79.0781 94.8672C79.0781 94.1745 79.3698 93.5885 79.9531 93.1094C80.5417 92.6302 81.2917 92.3906 82.2031 92.3906C83.1615 92.3906 83.9375 92.638 84.5312 93.1328C85.1302 93.6276 85.4297 94.2604 85.4297 95.0312H83.9766C83.9766 94.6354 83.8073 94.2943 83.4688 94.0078C83.1354 93.7214 82.7135 93.5781 82.2031 93.5781C81.6771 93.5781 81.2656 93.6927 80.9688 93.9219C80.6719 94.151 80.5234 94.4505 80.5234 94.8203C80.5234 95.1693 80.6615 95.4323 80.9375 95.6094C81.2135 95.7865 81.7109 95.9557 82.4297 96.1172C83.1536 96.2786 83.7396 96.4714 84.1875 96.6953C84.6354 96.9193 84.9661 97.1901 85.1797 97.5078C85.3984 97.8203 85.5078 98.2031 85.5078 98.6562C85.5078 99.4115 85.2057 100.018 84.6016 100.477C83.9974 100.93 83.2135 101.156 82.25 101.156C81.5729 101.156 80.974 101.036 80.4531 100.797C79.9323 100.557 79.5234 100.224 79.2266 99.7969C78.9349 99.3646 78.7891 98.8984 78.7891 98.3984H80.2344C80.2604 98.8828 80.4531 99.2682 80.8125 99.5547C81.1771 99.8359 81.6562 99.9766 82.25 99.9766C82.7969 99.9766 83.2344 99.8672 83.5625 99.6484C83.8958 99.4245 84.0625 99.1276 84.0625 98.7578ZM89.3516 90.5V92.5469H90.9297V93.6641H89.3516V98.9062C89.3516 99.2448 89.4219 99.5 89.5625 99.6719C89.7031 99.8385 89.9427 99.9219 90.2812 99.9219C90.4479 99.9219 90.6771 99.8906 90.9688 99.8281V101C90.5885 101.104 90.2188 101.156 89.8594 101.156C89.2135 101.156 88.7266 100.961 88.3984 100.57C88.0703 100.18 87.9062 99.625 87.9062 98.9062V93.6641H86.3672V92.5469H87.9062V90.5H89.3516ZM92.0859 96.6953C92.0859 95.8672 92.2474 95.1224 92.5703 94.4609C92.8984 93.7995 93.3516 93.2891 93.9297 92.9297C94.513 92.5703 95.1771 92.3906 95.9219 92.3906C97.0729 92.3906 98.0026 92.7891 98.7109 93.5859C99.4245 94.3828 99.7812 95.4427 99.7812 96.7656V96.8672C99.7812 97.6901 99.6224 98.4297 99.3047 99.0859C98.9922 99.737 98.5417 100.245 97.9531 100.609C97.3698 100.974 96.6979 101.156 95.9375 101.156C94.7917 101.156 93.862 100.758 93.1484 99.9609C92.4401 99.1641 92.0859 98.1094 92.0859 96.7969V96.6953ZM93.5391 96.8672C93.5391 97.8047 93.7552 98.5573 94.1875 99.125C94.625 99.6927 95.2083 99.9766 95.9375 99.9766C96.6719 99.9766 97.2552 99.6901 97.6875 99.1172C98.1198 98.5391 98.3359 97.7318 98.3359 96.6953C98.3359 95.7682 98.1146 95.0182 97.6719 94.4453C97.2344 93.8672 96.651 93.5781 95.9219 93.5781C95.2083 93.5781 94.6328 93.862 94.1953 94.4297C93.7578 94.9974 93.5391 95.8099 93.5391 96.8672ZM105.68 93.8438C105.461 93.8073 105.224 93.7891 104.969 93.7891C104.021 93.7891 103.378 94.1927 103.039 95V101H101.594V92.5469H103L103.023 93.5234C103.497 92.7682 104.169 92.3906 105.039 92.3906C105.32 92.3906 105.534 92.4271 105.68 92.5V93.8438ZM111.922 101C111.839 100.833 111.771 100.536 111.719 100.109C111.047 100.807 110.245 101.156 109.312 101.156C108.479 101.156 107.794 100.922 107.258 100.453C106.727 99.9792 106.461 99.3802 106.461 98.6562C106.461 97.776 106.794 97.0938 107.461 96.6094C108.133 96.1198 109.076 95.875 110.289 95.875H111.695V95.2109C111.695 94.7057 111.544 94.3047 111.242 94.0078C110.94 93.7057 110.495 93.5547 109.906 93.5547C109.391 93.5547 108.958 93.6849 108.609 93.9453C108.26 94.2057 108.086 94.5208 108.086 94.8906H106.633C106.633 94.4688 106.781 94.0625 107.078 93.6719C107.38 93.276 107.786 92.9635 108.297 92.7344C108.812 92.5052 109.378 92.3906 109.992 92.3906C110.966 92.3906 111.729 92.6354 112.281 93.125C112.833 93.6094 113.12 94.2786 113.141 95.1328V99.0234C113.141 99.7995 113.24 100.417 113.438 100.875V101H111.922ZM109.523 99.8984C109.977 99.8984 110.406 99.7812 110.812 99.5469C111.219 99.3125 111.513 99.0078 111.695 98.6328V96.8984H110.562C108.792 96.8984 107.906 97.4167 107.906 98.4531C107.906 98.9062 108.057 99.2604 108.359 99.5156C108.661 99.7708 109.049 99.8984 109.523 99.8984ZM115.062 96.7031C115.062 95.3854 115.367 94.3385 115.977 93.5625C116.586 92.7812 117.393 92.3906 118.398 92.3906C119.43 92.3906 120.234 92.7552 120.812 93.4844L120.883 92.5469H122.203V100.797C122.203 101.891 121.878 102.753 121.227 103.383C120.581 104.013 119.711 104.328 118.617 104.328C118.008 104.328 117.411 104.198 116.828 103.938C116.245 103.677 115.799 103.32 115.492 102.867L116.242 102C116.862 102.766 117.62 103.148 118.516 103.148C119.219 103.148 119.766 102.951 120.156 102.555C120.552 102.159 120.75 101.602 120.75 100.883V100.156C120.172 100.823 119.383 101.156 118.383 101.156C117.393 101.156 116.591 100.758 115.977 99.9609C115.367 99.1641 115.062 98.0781 115.062 96.7031ZM116.516 96.8672C116.516 97.8203 116.711 98.5703 117.102 99.1172C117.492 99.6589 118.039 99.9297 118.742 99.9297C119.654 99.9297 120.323 99.5156 120.75 98.6875V94.8281C120.307 94.0208 119.643 93.6172 118.758 93.6172C118.055 93.6172 117.505 93.8906 117.109 94.4375C116.714 94.9844 116.516 95.7943 116.516 96.8672ZM127.898 101.156C126.753 101.156 125.82 100.781 125.102 100.031C124.383 99.276 124.023 98.2682 124.023 97.0078V96.7422C124.023 95.9036 124.182 95.1562 124.5 94.5C124.823 93.8385 125.271 93.3229 125.844 92.9531C126.422 92.5781 127.047 92.3906 127.719 92.3906C128.818 92.3906 129.672 92.7526 130.281 93.4766C130.891 94.2005 131.195 95.237 131.195 96.5859V97.1875H125.469C125.49 98.0208 125.732 98.6953 126.195 99.2109C126.664 99.7214 127.258 99.9766 127.977 99.9766C128.487 99.9766 128.919 99.8724 129.273 99.6641C129.628 99.4557 129.938 99.1797 130.203 98.8359L131.086 99.5234C130.378 100.612 129.315 101.156 127.898 101.156ZM127.719 93.5781C127.135 93.5781 126.646 93.7917 126.25 94.2188C125.854 94.6406 125.609 95.2344 125.516 96H129.75V95.8906C129.708 95.1562 129.51 94.5885 129.156 94.1875C128.802 93.7812 128.323 93.5781 127.719 93.5781Z" fill="#5452F6"/>
<path d="M144.045 55.902V55.902C144.043 56.4543 144.488 56.904 145.041 56.9065L224.54 57.2664" stroke="#5452F6" stroke-width="2" stroke-linecap="round" stroke-linejoin="round"/>
<path d="M227.587 58.124L221.675 63.4388C221.029 64.0188 220.002 63.5582 220.006 62.6905L220.053 52.3022C220.057 51.4478 221.061 50.9915 221.707 51.5504L227.573 56.624C228.028 57.0178 228.035 57.7216 227.587 58.124Z" fill="#595DFF"/>
<path d="M458.045 93.902V93.902C458.043 94.4543 458.488 94.904 459.041 94.9065L538.54 95.2664" stroke="#5452F6" stroke-width="2" stroke-linecap="round" stroke-linejoin="round"/>
<path d="M541.587 96.124L535.675 101.439C535.029 102.019 534.002 101.558 534.006 100.691L534.053 90.3022C534.057 89.4478 535.061 88.9915 535.707 89.5504L541.573 94.624C542.028 95.0178 542.035 95.7216 541.587 96.124Z" fill="#595DFF"/>
<path d="M458.045 53.902V53.902C458.043 54.4543 458.488 54.904 459.041 54.9065L538.54 55.2664" stroke="#5452F6" stroke-width="2" stroke-linecap="round" stroke-linejoin="round"/>
<path d="M541.587 56.124L535.675 61.4388C535.029 62.0188 534.002 61.5582 534.006 60.6905L534.053 50.3022C534.057 49.4478 535.061 48.9915 535.707 49.5504L541.573 54.624C542.028 55.0178 542.035 55.7216 541.587 56.124Z" fill="#595DFF"/>
<path d="M144.045 94.902V94.902C144.043 95.4543 144.488 95.904 145.041 95.9065L224.54 96.2664" stroke="#5452F6" stroke-width="2" stroke-linecap="round" stroke-linejoin="round"/>
<path d="M227.587 97.124L221.675 102.439C221.029 103.019 220.002 102.558 220.006 101.691L220.053 91.3022C220.057 90.4478 221.061 89.9915 221.707 90.5504L227.573 95.624C228.028 96.0178 228.035 96.7216 227.587 97.124Z" fill="#595DFF"/>
<path d="M554.711 87.625L558.43 96.9062L562.148 87.625H564.094V99H562.594V94.5703L562.734 89.7891L559 99H557.852L554.125 89.8125L554.273 94.5703V99H552.773V87.625H554.711ZM566.133 94.6953C566.133 93.8672 566.294 93.1224 566.617 92.4609C566.945 91.7995 567.398 91.2891 567.977 90.9297C568.56 90.5703 569.224 90.3906 569.969 90.3906C571.12 90.3906 572.049 90.7891 572.758 91.5859C573.471 92.3828 573.828 93.4427 573.828 94.7656V94.8672C573.828 95.6901 573.669 96.4297 573.352 97.0859C573.039 97.737 572.589 98.2448 572 98.6094C571.417 98.974 570.745 99.1562 569.984 99.1562C568.839 99.1562 567.909 98.7578 567.195 97.9609C566.487 97.1641 566.133 96.1094 566.133 94.7969V94.6953ZM567.586 94.8672C567.586 95.8047 567.802 96.5573 568.234 97.125C568.672 97.6927 569.255 97.9766 569.984 97.9766C570.719 97.9766 571.302 97.6901 571.734 97.1172C572.167 96.5391 572.383 95.7318 572.383 94.6953C572.383 93.7682 572.161 93.0182 571.719 92.4453C571.281 91.8672 570.698 91.5781 569.969 91.5781C569.255 91.5781 568.68 91.862 568.242 92.4297C567.805 92.9974 567.586 93.8099 567.586 94.8672ZM575.289 94.7031C575.289 93.4062 575.596 92.3646 576.211 91.5781C576.826 90.7865 577.63 90.3906 578.625 90.3906C579.615 90.3906 580.398 90.7292 580.977 91.4062V87H582.422V99H581.094L581.023 98.0938C580.445 98.8021 579.641 99.1562 578.609 99.1562C577.63 99.1562 576.831 98.7552 576.211 97.9531C575.596 97.151 575.289 96.1042 575.289 94.8125V94.7031ZM576.734 94.8672C576.734 95.8255 576.932 96.5755 577.328 97.1172C577.724 97.6589 578.271 97.9297 578.969 97.9297C579.885 97.9297 580.555 97.5182 580.977 96.6953V92.8125C580.544 92.0156 579.88 91.6172 578.984 91.6172C578.276 91.6172 577.724 91.8906 577.328 92.4375C576.932 92.9844 576.734 93.7943 576.734 94.8672ZM586.242 99H584.797V90.5469H586.242V99ZM584.68 88.3047C584.68 88.0703 584.75 87.8724 584.891 87.7109C585.036 87.5495 585.25 87.4688 585.531 87.4688C585.812 87.4688 586.026 87.5495 586.172 87.7109C586.318 87.8724 586.391 88.0703 586.391 88.3047C586.391 88.5391 586.318 88.7344 586.172 88.8906C586.026 89.0469 585.812 89.125 585.531 89.125C585.25 89.125 585.036 89.0469 584.891 88.8906C584.75 88.7344 584.68 88.5391 584.68 88.3047ZM589.047 99V91.6641H587.711V90.5469H589.047V89.8281C589.047 88.8854 589.315 88.151 589.852 87.625C590.393 87.099 591.156 86.8359 592.141 86.8359C592.724 86.8359 593.461 86.9948 594.352 87.3125L594.109 88.5312C593.458 88.2708 592.839 88.1406 592.25 88.1406C591.63 88.1406 591.182 88.2812 590.906 88.5625C590.635 88.8385 590.5 89.2552 590.5 89.8125V90.5469H592.227V91.6641H590.5V99H589.047ZM595.07 99H593.617V90.5469H595.07V99ZM600.93 99.1562C599.784 99.1562 598.852 98.7812 598.133 98.0312C597.414 97.276 597.055 96.2682 597.055 95.0078V94.7422C597.055 93.9036 597.214 93.1562 597.531 92.5C597.854 91.8385 598.302 91.3229 598.875 90.9531C599.453 90.5781 600.078 90.3906 600.75 90.3906C601.849 90.3906 602.703 90.7526 603.312 91.4766C603.922 92.2005 604.227 93.237 604.227 94.5859V95.1875H598.5C598.521 96.0208 598.763 96.6953 599.227 97.2109C599.695 97.7214 600.289 97.9766 601.008 97.9766C601.518 97.9766 601.951 97.8724 602.305 97.6641C602.659 97.4557 602.969 97.1797 603.234 96.8359L604.117 97.5234C603.409 98.612 602.346 99.1562 600.93 99.1562ZM600.75 91.5781C600.167 91.5781 599.677 91.7917 599.281 92.2188C598.885 92.6406 598.641 93.2344 598.547 94H602.781V93.8906C602.74 93.1562 602.542 92.5885 602.188 92.1875C601.833 91.7812 601.354 91.5781 600.75 91.5781ZM605.555 94.7031C605.555 93.4062 605.862 92.3646 606.477 91.5781C607.091 90.7865 607.896 90.3906 608.891 90.3906C609.88 90.3906 610.664 90.7292 611.242 91.4062V87H612.688V99H611.359L611.289 98.0938C610.711 98.8021 609.906 99.1562 608.875 99.1562C607.896 99.1562 607.096 98.7552 606.477 97.9531C605.862 97.151 605.555 96.1042 605.555 94.8125V94.7031ZM607 94.8672C607 95.8255 607.198 96.5755 607.594 97.1172C607.99 97.6589 608.536 97.9297 609.234 97.9297C610.151 97.9297 610.82 97.5182 611.242 96.6953V92.8125C610.81 92.0156 610.146 91.6172 609.25 91.6172C608.542 91.6172 607.99 91.8906 607.594 92.4375C607.198 92.9844 607 93.7943 607 94.8672ZM623.828 96.7578C623.828 96.3672 623.68 96.0651 623.383 95.8516C623.091 95.6328 622.578 95.4453 621.844 95.2891C621.115 95.1328 620.534 94.9453 620.102 94.7266C619.674 94.5078 619.357 94.2474 619.148 93.9453C618.945 93.6432 618.844 93.2839 618.844 92.8672C618.844 92.1745 619.135 91.5885 619.719 91.1094C620.307 90.6302 621.057 90.3906 621.969 90.3906C622.927 90.3906 623.703 90.638 624.297 91.1328C624.896 91.6276 625.195 92.2604 625.195 93.0312H623.742C623.742 92.6354 623.573 92.2943 623.234 92.0078C622.901 91.7214 622.479 91.5781 621.969 91.5781C621.443 91.5781 621.031 91.6927 620.734 91.9219C620.438 92.151 620.289 92.4505 620.289 92.8203C620.289 93.1693 620.427 93.4323 620.703 93.6094C620.979 93.7865 621.477 93.9557 622.195 94.1172C622.919 94.2786 623.505 94.4714 623.953 94.6953C624.401 94.9193 624.732 95.1901 624.945 95.5078C625.164 95.8203 625.273 96.2031 625.273 96.6562C625.273 97.4115 624.971 98.0182 624.367 98.4766C623.763 98.9297 622.979 99.1562 622.016 99.1562C621.339 99.1562 620.74 99.0365 620.219 98.7969C619.698 98.5573 619.289 98.224 618.992 97.7969C618.701 97.3646 618.555 96.8984 618.555 96.3984H620C620.026 96.8828 620.219 97.2682 620.578 97.5547C620.943 97.8359 621.422 97.9766 622.016 97.9766C622.562 97.9766 623 97.8672 623.328 97.6484C623.661 97.4245 623.828 97.1276 623.828 96.7578ZM629.117 88.5V90.5469H630.695V91.6641H629.117V96.9062C629.117 97.2448 629.188 97.5 629.328 97.6719C629.469 97.8385 629.708 97.9219 630.047 97.9219C630.214 97.9219 630.443 97.8906 630.734 97.8281V99C630.354 99.1042 629.984 99.1562 629.625 99.1562C628.979 99.1562 628.492 98.9609 628.164 98.5703C627.836 98.1797 627.672 97.625 627.672 96.9062V91.6641H626.133V90.5469H627.672V88.5H629.117ZM631.852 94.6953C631.852 93.8672 632.013 93.1224 632.336 92.4609C632.664 91.7995 633.117 91.2891 633.695 90.9297C634.279 90.5703 634.943 90.3906 635.688 90.3906C636.839 90.3906 637.768 90.7891 638.477 91.5859C639.19 92.3828 639.547 93.4427 639.547 94.7656V94.8672C639.547 95.6901 639.388 96.4297 639.07 97.0859C638.758 97.737 638.307 98.2448 637.719 98.6094C637.135 98.974 636.464 99.1562 635.703 99.1562C634.557 99.1562 633.628 98.7578 632.914 97.9609C632.206 97.1641 631.852 96.1094 631.852 94.7969V94.6953ZM633.305 94.8672C633.305 95.8047 633.521 96.5573 633.953 97.125C634.391 97.6927 634.974 97.9766 635.703 97.9766C636.438 97.9766 637.021 97.6901 637.453 97.1172C637.885 96.5391 638.102 95.7318 638.102 94.6953C638.102 93.7682 637.88 93.0182 637.438 92.4453C637 91.8672 636.417 91.5781 635.688 91.5781C634.974 91.5781 634.398 91.862 633.961 92.4297C633.523 92.9974 633.305 93.8099 633.305 94.8672ZM645.445 91.8438C645.227 91.8073 644.99 91.7891 644.734 91.7891C643.786 91.7891 643.143 92.1927 642.805 93V99H641.359V90.5469H642.766L642.789 91.5234C643.263 90.7682 643.935 90.3906 644.805 90.3906C645.086 90.3906 645.299 90.4271 645.445 90.5V91.8438ZM651.688 99C651.604 98.8333 651.536 98.5365 651.484 98.1094C650.812 98.8073 650.01 99.1562 649.078 99.1562C648.245 99.1562 647.56 98.9219 647.023 98.4531C646.492 97.9792 646.227 97.3802 646.227 96.6562C646.227 95.776 646.56 95.0938 647.227 94.6094C647.898 94.1198 648.841 93.875 650.055 93.875H651.461V93.2109C651.461 92.7057 651.31 92.3047 651.008 92.0078C650.706 91.7057 650.26 91.5547 649.672 91.5547C649.156 91.5547 648.724 91.6849 648.375 91.9453C648.026 92.2057 647.852 92.5208 647.852 92.8906H646.398C646.398 92.4688 646.547 92.0625 646.844 91.6719C647.146 91.276 647.552 90.9635 648.062 90.7344C648.578 90.5052 649.143 90.3906 649.758 90.3906C650.732 90.3906 651.495 90.6354 652.047 91.125C652.599 91.6094 652.885 92.2786 652.906 93.1328V97.0234C652.906 97.7995 653.005 98.4167 653.203 98.875V99H651.688ZM649.289 97.8984C649.742 97.8984 650.172 97.7812 650.578 97.5469C650.984 97.3125 651.279 97.0078 651.461 96.6328V94.8984H650.328C648.557 94.8984 647.672 95.4167 647.672 96.4531C647.672 96.9062 647.823 97.2604 648.125 97.5156C648.427 97.7708 648.815 97.8984 649.289 97.8984ZM654.828 94.7031C654.828 93.3854 655.133 92.3385 655.742 91.5625C656.352 90.7812 657.159 90.3906 658.164 90.3906C659.195 90.3906 660 90.7552 660.578 91.4844L660.648 90.5469H661.969V98.7969C661.969 99.8906 661.643 100.753 660.992 101.383C660.346 102.013 659.477 102.328 658.383 102.328C657.773 102.328 657.177 102.198 656.594 101.938C656.01 101.677 655.565 101.32 655.258 100.867L656.008 100C656.628 100.766 657.385 101.148 658.281 101.148C658.984 101.148 659.531 100.951 659.922 100.555C660.318 100.159 660.516 99.6016 660.516 98.8828V98.1562C659.938 98.8229 659.148 99.1562 658.148 99.1562C657.159 99.1562 656.357 98.7578 655.742 97.9609C655.133 97.1641 654.828 96.0781 654.828 94.7031ZM656.281 94.8672C656.281 95.8203 656.477 96.5703 656.867 97.1172C657.258 97.6589 657.805 97.9297 658.508 97.9297C659.419 97.9297 660.089 97.5156 660.516 96.6875V92.8281C660.073 92.0208 659.409 91.6172 658.523 91.6172C657.82 91.6172 657.271 91.8906 656.875 92.4375C656.479 92.9844 656.281 93.7943 656.281 94.8672ZM667.664 99.1562C666.518 99.1562 665.586 98.7812 664.867 98.0312C664.148 97.276 663.789 96.2682 663.789 95.0078V94.7422C663.789 93.9036 663.948 93.1562 664.266 92.5C664.589 91.8385 665.036 91.3229 665.609 90.9531C666.188 90.5781 666.812 90.3906 667.484 90.3906C668.583 90.3906 669.438 90.7526 670.047 91.4766C670.656 92.2005 670.961 93.237 670.961 94.5859V95.1875H665.234C665.255 96.0208 665.497 96.6953 665.961 97.2109C666.43 97.7214 667.023 97.9766 667.742 97.9766C668.253 97.9766 668.685 97.8724 669.039 97.6641C669.393 97.4557 669.703 97.1797 669.969 96.8359L670.852 97.5234C670.143 98.612 669.081 99.1562 667.664 99.1562ZM667.484 91.5781C666.901 91.5781 666.411 91.7917 666.016 92.2188C665.62 92.6406 665.375 93.2344 665.281 94H669.516V93.8906C669.474 93.1562 669.276 92.5885 668.922 92.1875C668.568 91.7812 668.089 91.5781 667.484 91.5781Z" fill="#5452F6"/>
<defs>
<filter id="filter0_d" x="227" y="29" width="229" height="92" filterUnits="userSpaceOnUse" color-interpolation-filters="sRGB">
<feFlood flood-opacity="0" result="BackgroundImageFix"/>
<feColorMatrix in="SourceAlpha" type="matrix" values="0 0 0 0 0 0 0 0 0 0 0 0 0 0 0 0 0 0 127 0"/>
<feOffset dx="4" dy="4"/>
<feColorMatrix type="matrix" values="0 0 0 0 0.674908 0 0 0 0 0.662083 0 0 0 0 0.945833 0 0 0 1 0"/>
<feBlend mode="normal" in2="BackgroundImageFix" result="effect1_dropShadow"/>
<feBlend mode="normal" in="SourceGraphic" in2="effect1_dropShadow" result="shape"/>
</filter>
</defs>
</svg>
