<svg width="673" height="132" viewBox="0 0 673 132" fill="none" xmlns="http://www.w3.org/2000/svg">
<g filter="url(#filter0_d)">
<g clip-path="url(#clip0)">
<rect x="226" y="25.9581" width="225" height="102.042" rx="8" fill="#FEEBEA"/>
<g clip-path="url(#clip1)">
<path d="M352.669 67.7847L342.5 77.9581L337.5 78.9581L338.5 73.9581L348.675 63.7847C348.936 63.5226 349.247 63.3146 349.589 63.1727C349.931 63.0307 350.298 62.9577 350.669 62.9577C351.039 62.9577 351.406 63.0307 351.748 63.1727C352.09 63.3146 352.401 63.5226 352.663 63.7847L352.675 63.7954C353.203 64.3252 353.499 65.0431 353.498 65.7912C353.497 66.5393 353.199 67.2564 352.669 67.7847Z" stroke="#FF5A43" stroke-width="2" stroke-linecap="round" stroke-linejoin="round"/>
<path d="M333.495 74.9581H325.495C324.964 74.9581 324.455 74.7474 324.08 74.3723C323.705 73.9972 323.495 73.4885 323.495 72.9581V50.9581C323.495 50.4276 323.705 49.9189 324.08 49.5439C324.455 49.1688 324.964 48.9581 325.495 48.9581H345.495C346.025 48.9581 346.534 49.1688 346.909 49.5439C347.284 49.9189 347.495 50.4276 347.495 50.9581V59.9581" stroke="#FF5A43" stroke-width="2" stroke-linecap="round" stroke-linejoin="round"/>
<path d="M333.495 54.9581H341.495" stroke="#FF5A43" stroke-width="2" stroke-linecap="round" stroke-linejoin="round"/>
<path d="M329.495 60.9581H341.495" stroke="#FF5A43" stroke-width="2" stroke-linecap="round" stroke-linejoin="round"/>
<path d="M329.495 66.9581H339.495" stroke="#FF5A43" stroke-width="2" stroke-linecap="round" stroke-linejoin="round"/>
</g>
<path d="M291.609 101.974C291.609 101.531 291.453 101.192 291.141 100.958C290.828 100.718 290.266 100.468 289.453 100.208C288.641 99.9424 287.997 99.682 287.523 99.4268C286.232 98.7289 285.586 97.7888 285.586 96.6065C285.586 95.9919 285.758 95.445 286.102 94.9659C286.451 94.4815 286.948 94.1039 287.594 93.8331C288.245 93.5622 288.974 93.4268 289.781 93.4268C290.594 93.4268 291.318 93.5753 291.953 93.8721C292.589 94.1638 293.081 94.5779 293.43 95.1143C293.784 95.6508 293.961 96.2602 293.961 96.9424H291.617C291.617 96.4216 291.453 96.018 291.125 95.7315C290.797 95.4398 290.336 95.294 289.742 95.294C289.169 95.294 288.724 95.4164 288.406 95.6612C288.089 95.9008 287.93 96.2185 287.93 96.6143C287.93 96.9841 288.115 97.294 288.484 97.544C288.859 97.794 289.409 98.0284 290.133 98.2471C291.466 98.6482 292.438 99.1456 293.047 99.7393C293.656 100.333 293.961 101.073 293.961 101.958C293.961 102.942 293.589 103.716 292.844 104.278C292.099 104.836 291.096 105.114 289.836 105.114C288.961 105.114 288.164 104.955 287.445 104.638C286.727 104.315 286.177 103.875 285.797 103.317C285.422 102.76 285.234 102.114 285.234 101.38H287.586C287.586 102.635 288.336 103.263 289.836 103.263C290.393 103.263 290.828 103.151 291.141 102.927C291.453 102.698 291.609 102.38 291.609 101.974ZM297.523 96.5049L297.594 97.4503C298.193 96.7159 299.003 96.3487 300.023 96.3487C301.112 96.3487 301.859 96.7784 302.266 97.6378C302.859 96.7784 303.706 96.3487 304.805 96.3487C305.721 96.3487 306.404 96.6169 306.852 97.1534C307.299 97.6846 307.523 98.4867 307.523 99.5596V104.958H305.258V99.5674C305.258 99.0883 305.164 98.7393 304.977 98.5206C304.789 98.2966 304.458 98.1846 303.984 98.1846C303.307 98.1846 302.839 98.5075 302.578 99.1534L302.586 104.958H300.328V99.5753C300.328 99.0857 300.232 98.7315 300.039 98.5128C299.846 98.294 299.518 98.1846 299.055 98.1846C298.414 98.1846 297.951 98.4503 297.664 98.9815V104.958H295.406V96.5049H297.523ZM314.164 104.958C314.06 104.755 313.984 104.502 313.938 104.2C313.391 104.81 312.68 105.114 311.805 105.114C310.977 105.114 310.289 104.875 309.742 104.396C309.201 103.916 308.93 103.312 308.93 102.583C308.93 101.687 309.26 101 309.922 100.521C310.589 100.041 311.549 99.7992 312.805 99.794H313.844V99.3096C313.844 98.919 313.742 98.6065 313.539 98.3721C313.341 98.1378 313.026 98.0206 312.594 98.0206C312.214 98.0206 311.914 98.1117 311.695 98.294C311.482 98.4763 311.375 98.7263 311.375 99.044H309.117C309.117 98.5544 309.268 98.1013 309.57 97.6846C309.872 97.268 310.299 96.9424 310.852 96.7081C311.404 96.4685 312.023 96.3487 312.711 96.3487C313.753 96.3487 314.578 96.6117 315.188 97.1378C315.802 97.6586 316.109 98.393 316.109 99.3409V103.005C316.115 103.807 316.227 104.414 316.445 104.825V104.958H314.164ZM312.297 103.388C312.63 103.388 312.938 103.315 313.219 103.169C313.5 103.018 313.708 102.817 313.844 102.567V101.114H313C311.87 101.114 311.268 101.505 311.195 102.286L311.188 102.419C311.188 102.7 311.286 102.932 311.484 103.114C311.682 103.297 311.953 103.388 312.297 103.388ZM322.594 98.6221C322.286 98.5805 322.016 98.5596 321.781 98.5596C320.927 98.5596 320.367 98.8487 320.102 99.4268V104.958H317.844V96.5049H319.977L320.039 97.5128C320.492 96.7367 321.12 96.3487 321.922 96.3487C322.172 96.3487 322.406 96.3825 322.625 96.4503L322.594 98.6221ZM326.781 94.4268V96.5049H328.227V98.1612H326.781V102.38C326.781 102.692 326.841 102.916 326.961 103.052C327.081 103.187 327.31 103.255 327.648 103.255C327.898 103.255 328.12 103.237 328.312 103.2V104.911C327.87 105.047 327.414 105.114 326.945 105.114C325.362 105.114 324.555 104.315 324.523 102.716V98.1612H323.289V96.5049H324.523V94.4268H326.781ZM336.984 103.294C337.401 103.294 337.74 103.179 338 102.95C338.26 102.721 338.396 102.416 338.406 102.036H340.523C340.518 102.609 340.362 103.135 340.055 103.614C339.747 104.088 339.326 104.458 338.789 104.724C338.258 104.984 337.669 105.114 337.023 105.114C335.815 105.114 334.862 104.732 334.164 103.966C333.466 103.195 333.117 102.133 333.117 100.778V100.63C333.117 99.3279 333.464 98.2888 334.156 97.5128C334.849 96.7367 335.799 96.3487 337.008 96.3487C338.065 96.3487 338.911 96.6508 339.547 97.2549C340.188 97.8539 340.513 98.6534 340.523 99.6534H338.406C338.396 99.2159 338.26 98.8617 338 98.5909C337.74 98.3148 337.396 98.1768 336.969 98.1768C336.443 98.1768 336.044 98.3695 335.773 98.7549C335.508 99.1352 335.375 99.7549 335.375 100.614V100.849C335.375 101.718 335.508 102.343 335.773 102.724C336.039 103.104 336.443 103.294 336.984 103.294ZM341.461 100.653C341.461 99.8148 341.622 99.0674 341.945 98.4112C342.268 97.7549 342.732 97.2471 343.336 96.8878C343.945 96.5284 344.651 96.3487 345.453 96.3487C346.594 96.3487 347.523 96.6977 348.242 97.3956C348.966 98.0935 349.37 99.0414 349.453 100.239L349.469 100.817C349.469 102.114 349.107 103.156 348.383 103.942C347.659 104.724 346.688 105.114 345.469 105.114C344.25 105.114 343.276 104.724 342.547 103.942C341.823 103.161 341.461 102.099 341.461 100.755V100.653ZM343.719 100.817C343.719 101.62 343.87 102.234 344.172 102.661C344.474 103.083 344.906 103.294 345.469 103.294C346.016 103.294 346.443 103.086 346.75 102.669C347.057 102.247 347.211 101.575 347.211 100.653C347.211 99.8669 347.057 99.2575 346.75 98.8253C346.443 98.393 346.01 98.1768 345.453 98.1768C344.901 98.1768 344.474 98.393 344.172 98.8253C343.87 99.2523 343.719 99.9164 343.719 100.817ZM352.938 96.5049L353.008 97.4815C353.612 96.7263 354.422 96.3487 355.438 96.3487C356.333 96.3487 357 96.6117 357.438 97.1378C357.875 97.6638 358.099 98.4503 358.109 99.4971V104.958H355.852V99.5518C355.852 99.0727 355.747 98.7263 355.539 98.5128C355.331 98.294 354.984 98.1846 354.5 98.1846C353.865 98.1846 353.388 98.4555 353.07 98.9971V104.958H350.812V96.5049H352.938ZM362.531 94.4268V96.5049H363.977V98.1612H362.531V102.38C362.531 102.692 362.591 102.916 362.711 103.052C362.831 103.187 363.06 103.255 363.398 103.255C363.648 103.255 363.87 103.237 364.062 103.2V104.911C363.62 105.047 363.164 105.114 362.695 105.114C361.112 105.114 360.305 104.315 360.273 102.716V98.1612H359.039V96.5049H360.273V94.4268H362.531ZM369.984 98.6221C369.677 98.5805 369.406 98.5596 369.172 98.5596C368.318 98.5596 367.758 98.8487 367.492 99.4268V104.958H365.234V96.5049H367.367L367.43 97.5128C367.883 96.7367 368.51 96.3487 369.312 96.3487C369.562 96.3487 369.797 96.3825 370.016 96.4503L369.984 98.6221ZM375.742 104.958C375.638 104.755 375.562 104.502 375.516 104.2C374.969 104.81 374.258 105.114 373.383 105.114C372.555 105.114 371.867 104.875 371.32 104.396C370.779 103.916 370.508 103.312 370.508 102.583C370.508 101.687 370.839 101 371.5 100.521C372.167 100.041 373.128 99.7992 374.383 99.794H375.422V99.3096C375.422 98.919 375.32 98.6065 375.117 98.3721C374.919 98.1378 374.604 98.0206 374.172 98.0206C373.792 98.0206 373.492 98.1117 373.273 98.294C373.06 98.4763 372.953 98.7263 372.953 99.044H370.695C370.695 98.5544 370.846 98.1013 371.148 97.6846C371.451 97.268 371.878 96.9424 372.43 96.7081C372.982 96.4685 373.602 96.3487 374.289 96.3487C375.331 96.3487 376.156 96.6117 376.766 97.1378C377.38 97.6586 377.688 98.393 377.688 99.3409V103.005C377.693 103.807 377.805 104.414 378.023 104.825V104.958H375.742ZM373.875 103.388C374.208 103.388 374.516 103.315 374.797 103.169C375.078 103.018 375.286 102.817 375.422 102.567V101.114H374.578C373.448 101.114 372.846 101.505 372.773 102.286L372.766 102.419C372.766 102.7 372.865 102.932 373.062 103.114C373.26 103.297 373.531 103.388 373.875 103.388ZM382.938 103.294C383.354 103.294 383.693 103.179 383.953 102.95C384.214 102.721 384.349 102.416 384.359 102.036H386.477C386.471 102.609 386.315 103.135 386.008 103.614C385.701 104.088 385.279 104.458 384.742 104.724C384.211 104.984 383.622 105.114 382.977 105.114C381.768 105.114 380.815 104.732 380.117 103.966C379.419 103.195 379.07 102.133 379.07 100.778V100.63C379.07 99.3279 379.417 98.2888 380.109 97.5128C380.802 96.7367 381.753 96.3487 382.961 96.3487C384.018 96.3487 384.865 96.6508 385.5 97.2549C386.141 97.8539 386.466 98.6534 386.477 99.6534H384.359C384.349 99.2159 384.214 98.8617 383.953 98.5909C383.693 98.3148 383.349 98.1768 382.922 98.1768C382.396 98.1768 381.997 98.3695 381.727 98.7549C381.461 99.1352 381.328 99.7549 381.328 100.614V100.849C381.328 101.718 381.461 102.343 381.727 102.724C381.992 103.104 382.396 103.294 382.938 103.294ZM390.469 94.4268V96.5049H391.914V98.1612H390.469V102.38C390.469 102.692 390.529 102.916 390.648 103.052C390.768 103.187 390.997 103.255 391.336 103.255C391.586 103.255 391.807 103.237 392 103.2V104.911C391.557 105.047 391.102 105.114 390.633 105.114C389.049 105.114 388.242 104.315 388.211 102.716V98.1612H386.977V96.5049H388.211V94.4268H390.469Z" fill="#FF5A43"/>
</g>
<rect x="226.5" y="26.4581" width="224" height="101.042" rx="7.5" stroke="#FF5A43"/>
</g>
<path d="M592.852 9.57031C592.852 10.6901 592.654 11.6719 592.258 12.5156C591.862 13.3594 591.294 14.0104 590.555 14.4688C589.82 14.9271 588.977 15.1562 588.023 15.1562C587.081 15.1562 586.24 14.9297 585.5 14.4766C584.76 14.0234 584.188 13.3776 583.781 12.5391C583.375 11.6953 583.169 10.7266 583.164 9.63281V9.07031C583.164 7.95052 583.365 6.96615 583.766 6.11719C584.172 5.26302 584.742 4.60938 585.477 4.15625C586.216 3.69792 587.06 3.46875 588.008 3.46875C588.956 3.46875 589.797 3.69792 590.531 4.15625C591.271 4.60938 591.841 5.26302 592.242 6.11719C592.648 6.96615 592.852 7.94792 592.852 9.0625V9.57031ZM590.477 9.05469C590.477 7.86198 590.263 6.95573 589.836 6.33594C589.409 5.71615 588.799 5.40625 588.008 5.40625C587.221 5.40625 586.615 5.71354 586.188 6.32812C585.76 6.9375 585.544 7.83333 585.539 9.01562V9.57031C585.539 10.7318 585.753 11.6328 586.18 12.2734C586.607 12.9141 587.221 13.2344 588.023 13.2344C588.81 13.2344 589.414 12.9271 589.836 12.3125C590.258 11.6927 590.471 10.7917 590.477 9.60938V9.05469ZM599.469 14.1406C598.911 14.8177 598.141 15.1562 597.156 15.1562C596.25 15.1562 595.557 14.8958 595.078 14.375C594.604 13.8542 594.362 13.0911 594.352 12.0859V6.54688H596.609V12.0078C596.609 12.888 597.01 13.3281 597.812 13.3281C598.578 13.3281 599.104 13.0625 599.391 12.5312V6.54688H601.656V15H599.531L599.469 14.1406ZM606.062 4.46875V6.54688H607.508V8.20312H606.062V12.4219C606.062 12.7344 606.122 12.9583 606.242 13.0938C606.362 13.2292 606.591 13.2969 606.93 13.2969C607.18 13.2969 607.401 13.2786 607.594 13.2422V14.9531C607.151 15.0885 606.695 15.1562 606.227 15.1562C604.643 15.1562 603.836 14.3568 603.805 12.7578V8.20312H602.57V6.54688H603.805V4.46875H606.062ZM616.375 10.8516C616.375 12.1536 616.078 13.1979 615.484 13.9844C614.896 14.7656 614.099 15.1562 613.094 15.1562C612.24 15.1562 611.549 14.8594 611.023 14.2656V18.25H608.766V6.54688H610.859L610.938 7.375C611.484 6.71875 612.198 6.39062 613.078 6.39062C614.12 6.39062 614.93 6.77604 615.508 7.54688C616.086 8.31771 616.375 9.38021 616.375 10.7344V10.8516ZM614.117 10.6875C614.117 9.90104 613.977 9.29427 613.695 8.86719C613.419 8.4401 613.016 8.22656 612.484 8.22656C611.776 8.22656 611.289 8.4974 611.023 9.03906V12.5C611.299 13.0573 611.792 13.3359 612.5 13.3359C613.578 13.3359 614.117 12.4531 614.117 10.6875ZM622.844 14.1406C622.286 14.8177 621.516 15.1562 620.531 15.1562C619.625 15.1562 618.932 14.8958 618.453 14.375C617.979 13.8542 617.737 13.0911 617.727 12.0859V6.54688H619.984V12.0078C619.984 12.888 620.385 13.3281 621.188 13.3281C621.953 13.3281 622.479 13.0625 622.766 12.5312V6.54688H625.031V15H622.906L622.844 14.1406ZM629.438 4.46875V6.54688H630.883V8.20312H629.438V12.4219C629.438 12.7344 629.497 12.9583 629.617 13.0938C629.737 13.2292 629.966 13.2969 630.305 13.2969C630.555 13.2969 630.776 13.2786 630.969 13.2422V14.9531C630.526 15.0885 630.07 15.1562 629.602 15.1562C628.018 15.1562 627.211 14.3568 627.18 12.7578V8.20312H625.945V6.54688H627.18V4.46875H629.438ZM636.719 12.6641C636.719 12.388 636.581 12.1719 636.305 12.0156C636.034 11.8542 635.596 11.7109 634.992 11.5859C632.982 11.1641 631.977 10.3099 631.977 9.02344C631.977 8.27344 632.286 7.64844 632.906 7.14844C633.531 6.64323 634.346 6.39062 635.352 6.39062C636.424 6.39062 637.281 6.64323 637.922 7.14844C638.568 7.65365 638.891 8.3099 638.891 9.11719H636.633C636.633 8.79427 636.529 8.52865 636.32 8.32031C636.112 8.10677 635.786 8 635.344 8C634.964 8 634.669 8.08594 634.461 8.25781C634.253 8.42969 634.148 8.64844 634.148 8.91406C634.148 9.16406 634.266 9.36719 634.5 9.52344C634.74 9.67448 635.141 9.80729 635.703 9.92188C636.266 10.0312 636.74 10.1562 637.125 10.2969C638.318 10.7344 638.914 11.4922 638.914 12.5703C638.914 13.3411 638.583 13.9661 637.922 14.4453C637.26 14.9193 636.406 15.1562 635.359 15.1562C634.651 15.1562 634.021 15.0312 633.469 14.7812C632.922 14.526 632.492 14.1797 632.18 13.7422C631.867 13.2995 631.711 12.8229 631.711 12.3125H633.852C633.872 12.7135 634.021 13.0208 634.297 13.2344C634.573 13.4479 634.943 13.5547 635.406 13.5547C635.839 13.5547 636.164 13.474 636.383 13.3125C636.607 13.1458 636.719 12.9297 636.719 12.6641Z" fill="#FF5A43"/>
<path d="M581.766 61.7496C581.766 62.8642 581.578 63.8382 581.203 64.6715C580.828 65.4996 580.297 66.1324 579.609 66.5699C578.922 67.0074 578.12 67.2262 577.203 67.2262C576.307 67.2262 575.513 67.0074 574.82 66.5699C574.128 66.1272 573.589 65.4996 573.203 64.6871C572.823 63.8694 572.628 62.9241 572.617 61.8512V61.0309C572.617 59.9371 572.807 58.971 573.188 58.1324C573.568 57.2939 574.104 56.6533 574.797 56.2106C575.495 55.7627 576.292 55.5387 577.188 55.5387C578.099 55.5387 578.901 55.7601 579.594 56.2028C580.292 56.6403 580.828 57.2783 581.203 58.1168C581.578 58.9502 581.766 59.9215 581.766 61.0309V61.7496ZM580.273 61.0153C580.273 59.6663 580.003 58.6324 579.461 57.9137C578.919 57.1897 578.161 56.8278 577.188 56.8278C576.24 56.8278 575.492 57.1897 574.945 57.9137C574.404 58.6324 574.125 59.6324 574.109 60.9137V61.7496C574.109 63.0569 574.383 64.0856 574.93 64.8356C575.482 65.5804 576.24 65.9528 577.203 65.9528C578.172 65.9528 578.922 65.6012 579.453 64.8981C579.984 64.1897 580.258 63.1767 580.273 61.859V61.0153ZM590.93 62.9371C590.93 64.2236 590.635 65.2601 590.047 66.0465C589.458 66.833 588.661 67.2262 587.656 67.2262C586.63 67.2262 585.823 66.9007 585.234 66.2496V70.3199H583.789V58.6168H585.109L585.18 59.5543C585.768 58.8252 586.586 58.4606 587.633 58.4606C588.648 58.4606 589.451 58.8434 590.039 59.609C590.633 60.3746 590.93 61.4397 590.93 62.8043V62.9371ZM589.484 62.7731C589.484 61.8199 589.281 61.0673 588.875 60.5153C588.469 59.9632 587.911 59.6871 587.203 59.6871C586.328 59.6871 585.672 60.0752 585.234 60.8512V64.8903C585.667 65.6611 586.328 66.0465 587.219 66.0465C587.911 66.0465 588.461 65.7731 588.867 65.2262C589.279 64.6741 589.484 63.8564 589.484 62.7731ZM596.281 67.2262C595.135 67.2262 594.203 66.8512 593.484 66.1012C592.766 65.346 592.406 64.3382 592.406 63.0778V62.8121C592.406 61.9736 592.565 61.2262 592.883 60.5699C593.206 59.9085 593.654 59.3929 594.227 59.0231C594.805 58.6481 595.43 58.4606 596.102 58.4606C597.201 58.4606 598.055 58.8226 598.664 59.5465C599.273 60.2705 599.578 61.3069 599.578 62.6559V63.2574H593.852C593.872 64.0908 594.115 64.7653 594.578 65.2809C595.047 65.7913 595.641 66.0465 596.359 66.0465C596.87 66.0465 597.302 65.9423 597.656 65.734C598.01 65.5257 598.32 65.2496 598.586 64.9059L599.469 65.5934C598.76 66.6819 597.698 67.2262 596.281 67.2262ZM596.102 59.6481C595.518 59.6481 595.029 59.8616 594.633 60.2887C594.237 60.7106 593.992 61.3043 593.898 62.0699H598.133V61.9606C598.091 61.2262 597.893 60.6585 597.539 60.2574C597.185 59.8512 596.706 59.6481 596.102 59.6481ZM605.344 59.9137C605.125 59.8772 604.888 59.859 604.633 59.859C603.685 59.859 603.042 60.2627 602.703 61.0699V67.0699H601.258V58.6168H602.664L602.688 59.5934C603.161 58.8382 603.833 58.4606 604.703 58.4606C604.984 58.4606 605.198 58.497 605.344 58.5699V59.9137ZM611.586 67.0699C611.503 66.9033 611.435 66.6064 611.383 66.1793C610.711 66.8772 609.909 67.2262 608.977 67.2262C608.143 67.2262 607.458 66.9918 606.922 66.5231C606.391 66.0491 606.125 65.4502 606.125 64.7262C606.125 63.846 606.458 63.1637 607.125 62.6793C607.797 62.1897 608.74 61.9449 609.953 61.9449H611.359V61.2809C611.359 60.7757 611.208 60.3746 610.906 60.0778C610.604 59.7757 610.159 59.6246 609.57 59.6246C609.055 59.6246 608.622 59.7548 608.273 60.0153C607.924 60.2757 607.75 60.5908 607.75 60.9606H606.297C606.297 60.5387 606.445 60.1324 606.742 59.7418C607.044 59.346 607.451 59.0335 607.961 58.8043C608.477 58.5752 609.042 58.4606 609.656 58.4606C610.63 58.4606 611.393 58.7054 611.945 59.1949C612.497 59.6793 612.784 60.3486 612.805 61.2028V65.0934C612.805 65.8694 612.904 66.4866 613.102 66.9449V67.0699H611.586ZM609.188 65.9684C609.641 65.9684 610.07 65.8512 610.477 65.6168C610.883 65.3824 611.177 65.0778 611.359 64.7028V62.9684H610.227C608.456 62.9684 607.57 63.4866 607.57 64.5231C607.57 64.9762 607.721 65.3304 608.023 65.5856C608.326 65.8408 608.714 65.9684 609.188 65.9684ZM617.031 56.5699V58.6168H618.609V59.734H617.031V64.9762C617.031 65.3147 617.102 65.5699 617.242 65.7418C617.383 65.9085 617.622 65.9918 617.961 65.9918C618.128 65.9918 618.357 65.9606 618.648 65.8981V67.0699C618.268 67.1741 617.898 67.2262 617.539 67.2262C616.893 67.2262 616.406 67.0309 616.078 66.6403C615.75 66.2496 615.586 65.6949 615.586 64.9762V59.734H614.047V58.6168H615.586V56.5699H617.031ZM621.875 67.0699H620.43V58.6168H621.875V67.0699ZM620.312 56.3746C620.312 56.1403 620.383 55.9423 620.523 55.7809C620.669 55.6194 620.883 55.5387 621.164 55.5387C621.445 55.5387 621.659 55.6194 621.805 55.7809C621.951 55.9423 622.023 56.1403 622.023 56.3746C622.023 56.609 621.951 56.8043 621.805 56.9606C621.659 57.1168 621.445 57.1949 621.164 57.1949C620.883 57.1949 620.669 57.1168 620.523 56.9606C620.383 56.8043 620.312 56.609 620.312 56.3746ZM623.812 62.7653C623.812 61.9371 623.974 61.1923 624.297 60.5309C624.625 59.8694 625.078 59.359 625.656 58.9996C626.24 58.6403 626.904 58.4606 627.648 58.4606C628.799 58.4606 629.729 58.859 630.438 59.6559C631.151 60.4528 631.508 61.5127 631.508 62.8356V62.9371C631.508 63.7601 631.349 64.4996 631.031 65.1559C630.719 65.8069 630.268 66.3147 629.68 66.6793C629.096 67.0439 628.424 67.2262 627.664 67.2262C626.518 67.2262 625.589 66.8278 624.875 66.0309C624.167 65.234 623.812 64.1793 623.812 62.8668V62.7653ZM625.266 62.9371C625.266 63.8746 625.482 64.6272 625.914 65.1949C626.352 65.7627 626.935 66.0465 627.664 66.0465C628.398 66.0465 628.982 65.7601 629.414 65.1871C629.846 64.609 630.062 63.8017 630.062 62.7653C630.062 61.8382 629.841 61.0882 629.398 60.5153C628.961 59.9371 628.378 59.6481 627.648 59.6481C626.935 59.6481 626.359 59.9319 625.922 60.4996C625.484 61.0673 625.266 61.8798 625.266 62.9371ZM634.688 58.6168L634.734 59.6793C635.38 58.8668 636.224 58.4606 637.266 58.4606C639.052 58.4606 639.953 59.4684 639.969 61.484V67.0699H638.523V61.4762C638.518 60.8668 638.378 60.4163 638.102 60.1246C637.831 59.833 637.406 59.6871 636.828 59.6871C636.359 59.6871 635.948 59.8121 635.594 60.0621C635.24 60.3121 634.964 60.6403 634.766 61.0465V67.0699H633.32V58.6168H634.688ZM647.07 64.8278C647.07 64.4371 646.922 64.1351 646.625 63.9215C646.333 63.7028 645.82 63.5153 645.086 63.359C644.357 63.2028 643.776 63.0153 643.344 62.7965C642.917 62.5778 642.599 62.3173 642.391 62.0153C642.188 61.7132 642.086 61.3538 642.086 60.9371C642.086 60.2444 642.378 59.6585 642.961 59.1793C643.549 58.7002 644.299 58.4606 645.211 58.4606C646.169 58.4606 646.945 58.708 647.539 59.2028C648.138 59.6976 648.438 60.3304 648.438 61.1012H646.984C646.984 60.7054 646.815 60.3642 646.477 60.0778C646.143 59.7913 645.721 59.6481 645.211 59.6481C644.685 59.6481 644.273 59.7627 643.977 59.9918C643.68 60.221 643.531 60.5205 643.531 60.8903C643.531 61.2392 643.669 61.5022 643.945 61.6793C644.221 61.8564 644.719 62.0257 645.438 62.1871C646.161 62.3486 646.747 62.5413 647.195 62.7653C647.643 62.9892 647.974 63.2601 648.188 63.5778C648.406 63.8903 648.516 64.2731 648.516 64.7262C648.516 65.4814 648.214 66.0882 647.609 66.5465C647.005 66.9996 646.221 67.2262 645.258 67.2262C644.581 67.2262 643.982 67.1064 643.461 66.8668C642.94 66.6272 642.531 66.2939 642.234 65.8668C641.943 65.4345 641.797 64.9684 641.797 64.4684H643.242C643.268 64.9528 643.461 65.3382 643.82 65.6246C644.185 65.9059 644.664 66.0465 645.258 66.0465C645.805 66.0465 646.242 65.9371 646.57 65.7184C646.904 65.4944 647.07 65.1976 647.07 64.8278Z" fill="#FF5A43"/>
<path d="M52.8828 16H50.5391V4.625H52.8828V16ZM56.9922 7.54688L57.0625 8.52344C57.6667 7.76823 58.4766 7.39062 59.4922 7.39062C60.388 7.39062 61.0547 7.65365 61.4922 8.17969C61.9297 8.70573 62.1536 9.49219 62.1641 10.5391V16H59.9062V10.5938C59.9062 10.1146 59.8021 9.76823 59.5938 9.55469C59.3854 9.33594 59.0391 9.22656 58.5547 9.22656C57.9193 9.22656 57.4427 9.4974 57.125 10.0391V16H54.8672V7.54688H56.9922ZM71.4922 11.8516C71.4922 13.1536 71.1953 14.1979 70.6016 14.9844C70.013 15.7656 69.2161 16.1562 68.2109 16.1562C67.3568 16.1562 66.6667 15.8594 66.1406 15.2656V19.25H63.8828V7.54688H65.9766L66.0547 8.375C66.6016 7.71875 67.3151 7.39062 68.1953 7.39062C69.237 7.39062 70.0469 7.77604 70.625 8.54688C71.2031 9.31771 71.4922 10.3802 71.4922 11.7344V11.8516ZM69.2344 11.6875C69.2344 10.901 69.0938 10.2943 68.8125 9.86719C68.5365 9.4401 68.1328 9.22656 67.6016 9.22656C66.8932 9.22656 66.4062 9.4974 66.1406 10.0391V13.5C66.4167 14.0573 66.9089 14.3359 67.6172 14.3359C68.6953 14.3359 69.2344 13.4531 69.2344 11.6875ZM77.9609 15.1406C77.4036 15.8177 76.6328 16.1562 75.6484 16.1562C74.7422 16.1562 74.0495 15.8958 73.5703 15.375C73.0964 14.8542 72.8542 14.0911 72.8438 13.0859V7.54688H75.1016V13.0078C75.1016 13.888 75.5026 14.3281 76.3047 14.3281C77.0703 14.3281 77.5964 14.0625 77.8828 13.5312V7.54688H80.1484V16H78.0234L77.9609 15.1406ZM84.5547 5.46875V7.54688H86V9.20312H84.5547V13.4219C84.5547 13.7344 84.6146 13.9583 84.7344 14.0938C84.8542 14.2292 85.0833 14.2969 85.4219 14.2969C85.6719 14.2969 85.8932 14.2786 86.0859 14.2422V15.9531C85.6432 16.0885 85.1875 16.1562 84.7188 16.1562C83.1354 16.1562 82.3281 15.3568 82.2969 13.7578V9.20312H81.0625V7.54688H82.2969V5.46875H84.5547ZM91.8359 13.6641C91.8359 13.388 91.6979 13.1719 91.4219 13.0156C91.151 12.8542 90.7135 12.7109 90.1094 12.5859C88.099 12.1641 87.0938 11.3099 87.0938 10.0234C87.0938 9.27344 87.4036 8.64844 88.0234 8.14844C88.6484 7.64323 89.4635 7.39062 90.4688 7.39062C91.5417 7.39062 92.3984 7.64323 93.0391 8.14844C93.6849 8.65365 94.0078 9.3099 94.0078 10.1172H91.75C91.75 9.79427 91.6458 9.52865 91.4375 9.32031C91.2292 9.10677 90.9036 9 90.4609 9C90.0807 9 89.7865 9.08594 89.5781 9.25781C89.3698 9.42969 89.2656 9.64844 89.2656 9.91406C89.2656 10.1641 89.3828 10.3672 89.6172 10.5234C89.8568 10.6745 90.2578 10.8073 90.8203 10.9219C91.3828 11.0312 91.8568 11.1562 92.2422 11.2969C93.4349 11.7344 94.0312 12.4922 94.0312 13.5703C94.0312 14.3411 93.7005 14.9661 93.0391 15.4453C92.3776 15.9193 91.5234 16.1562 90.4766 16.1562C89.7682 16.1562 89.138 16.0312 88.5859 15.7812C88.0391 15.526 87.6094 15.1797 87.2969 14.7422C86.9844 14.2995 86.8281 13.8229 86.8281 13.3125H88.9688C88.9896 13.7135 89.138 14.0208 89.4141 14.2344C89.6901 14.4479 90.0599 14.5547 90.5234 14.5547C90.9557 14.5547 91.2812 14.474 91.5 14.3125C91.724 14.1458 91.8359 13.9297 91.8359 13.6641Z" fill="#FF5A43"/>
<path d="M41.0703 43.1268H36.1406V47.1581H41.8672V48.3846H34.6406V37.0096H41.7891V38.244H36.1406V41.9003H41.0703V43.1268ZM44.875 39.9315L44.9219 40.994C45.5677 40.1815 46.4115 39.7753 47.4531 39.7753C49.2396 39.7753 50.1406 40.7831 50.1562 42.7987V48.3846H48.7109V42.7909C48.7057 42.1815 48.5651 41.731 48.2891 41.4393C48.0182 41.1477 47.5938 41.0018 47.0156 41.0018C46.5469 41.0018 46.1354 41.1268 45.7812 41.3768C45.4271 41.6268 45.151 41.955 44.9531 42.3612V48.3846H43.5078V39.9315H44.875ZM54.2969 37.8846V39.9315H55.875V41.0487H54.2969V46.2909C54.2969 46.6294 54.3672 46.8846 54.5078 47.0565C54.6484 47.2232 54.888 47.3065 55.2266 47.3065C55.3932 47.3065 55.6224 47.2753 55.9141 47.2128V48.3846C55.5339 48.4888 55.1641 48.5409 54.8047 48.5409C54.1589 48.5409 53.6719 48.3456 53.3438 47.955C53.0156 47.5643 52.8516 47.0096 52.8516 46.2909V41.0487H51.3125V39.9315H52.8516V37.8846H54.2969ZM61.6562 41.2284C61.4375 41.1919 61.2005 41.1737 60.9453 41.1737C59.9974 41.1737 59.3542 41.5774 59.0156 42.3846V48.3846H57.5703V39.9315H58.9766L59 40.9081C59.474 40.1529 60.1458 39.7753 61.0156 39.7753C61.2969 39.7753 61.5104 39.8117 61.6562 39.8846V41.2284ZM65.8984 46.2675L67.8672 39.9315H69.4141L66.0156 49.6893C65.4896 51.0956 64.6536 51.7987 63.5078 51.7987L63.2344 51.7753L62.6953 51.6737V50.5018L63.0859 50.5331C63.5755 50.5331 63.9557 50.4341 64.2266 50.2362C64.5026 50.0383 64.7292 49.6763 64.9062 49.1503L65.2266 48.2909L62.2109 39.9315H63.7891L65.8984 46.2675ZM77.8516 44.2518C77.8516 45.5383 77.5573 46.5747 76.9688 47.3612C76.3802 48.1477 75.5833 48.5409 74.5781 48.5409C73.5521 48.5409 72.7448 48.2154 72.1562 47.5643V51.6346H70.7109V39.9315H72.0312L72.1016 40.869C72.6901 40.1399 73.5078 39.7753 74.5547 39.7753C75.5703 39.7753 76.3724 40.1581 76.9609 40.9237C77.5547 41.6893 77.8516 42.7544 77.8516 44.119V44.2518ZM76.4062 44.0878C76.4062 43.1346 76.2031 42.382 75.7969 41.83C75.3906 41.2779 74.8333 41.0018 74.125 41.0018C73.25 41.0018 72.5938 41.3899 72.1562 42.1659V46.205C72.5885 46.9758 73.25 47.3612 74.1406 47.3612C74.8333 47.3612 75.3828 47.0878 75.7891 46.5409C76.2005 45.9888 76.4062 45.1711 76.4062 44.0878ZM79.3125 44.08C79.3125 43.2518 79.474 42.507 79.7969 41.8456C80.125 41.1841 80.5781 40.6737 81.1562 40.3143C81.7396 39.955 82.4036 39.7753 83.1484 39.7753C84.2995 39.7753 85.2292 40.1737 85.9375 40.9706C86.651 41.7675 87.0078 42.8274 87.0078 44.1503V44.2518C87.0078 45.0747 86.849 45.8143 86.5312 46.4706C86.2188 47.1216 85.7682 47.6294 85.1797 47.994C84.5964 48.3586 83.9245 48.5409 83.1641 48.5409C82.0182 48.5409 81.0885 48.1425 80.375 47.3456C79.6667 46.5487 79.3125 45.494 79.3125 44.1815V44.08ZM80.7656 44.2518C80.7656 45.1893 80.9818 45.9419 81.4141 46.5096C81.8516 47.0774 82.4349 47.3612 83.1641 47.3612C83.8984 47.3612 84.4818 47.0747 84.9141 46.5018C85.3464 45.9237 85.5625 45.1164 85.5625 44.08C85.5625 43.1529 85.3411 42.4029 84.8984 41.83C84.4609 41.2518 83.8776 40.9628 83.1484 40.9628C82.4349 40.9628 81.8594 41.2466 81.4219 41.8143C80.9844 42.382 80.7656 43.1945 80.7656 44.2518ZM90.3906 48.3846H88.9453V39.9315H90.3906V48.3846ZM88.8281 37.6893C88.8281 37.455 88.8984 37.257 89.0391 37.0956C89.1849 36.9341 89.3984 36.8534 89.6797 36.8534C89.9609 36.8534 90.1745 36.9341 90.3203 37.0956C90.4661 37.257 90.5391 37.455 90.5391 37.6893C90.5391 37.9237 90.4661 38.119 90.3203 38.2753C90.1745 38.4315 89.9609 38.5096 89.6797 38.5096C89.3984 38.5096 89.1849 38.4315 89.0391 38.2753C88.8984 38.119 88.8281 37.9237 88.8281 37.6893ZM94.0781 39.9315L94.125 40.994C94.7708 40.1815 95.6146 39.7753 96.6562 39.7753C98.4427 39.7753 99.3438 40.7831 99.3594 42.7987V48.3846H97.9141V42.7909C97.9089 42.1815 97.7682 41.731 97.4922 41.4393C97.2214 41.1477 96.7969 41.0018 96.2188 41.0018C95.75 41.0018 95.3385 41.1268 94.9844 41.3768C94.6302 41.6268 94.3542 41.955 94.1562 42.3612V48.3846H92.7109V39.9315H94.0781ZM103.5 37.8846V39.9315H105.078V41.0487H103.5V46.2909C103.5 46.6294 103.57 46.8846 103.711 47.0565C103.852 47.2232 104.091 47.3065 104.43 47.3065C104.596 47.3065 104.826 47.2753 105.117 47.2128V48.3846C104.737 48.4888 104.367 48.5409 104.008 48.5409C103.362 48.5409 102.875 48.3456 102.547 47.955C102.219 47.5643 102.055 47.0096 102.055 46.2909V41.0487H100.516V39.9315H102.055V37.8846H103.5Z" fill="#FF5A43"/>
<path d="M37.2344 78.5469V83H35.7344V71.625H39.9297C41.1745 71.625 42.1484 71.9427 42.8516 72.5781C43.5599 73.2135 43.9141 74.0547 43.9141 75.1016C43.9141 76.2057 43.5677 77.0573 42.875 77.6562C42.1875 78.25 41.2005 78.5469 39.9141 78.5469H37.2344ZM37.2344 77.3203H39.9297C40.7318 77.3203 41.3464 77.1328 41.7734 76.7578C42.2005 76.3776 42.4141 75.8307 42.4141 75.1172C42.4141 74.4401 42.2005 73.8984 41.7734 73.4922C41.3464 73.0859 40.7604 72.875 40.0156 72.8594H37.2344V77.3203ZM50.7266 83C50.6432 82.8333 50.5755 82.5365 50.5234 82.1094C49.8516 82.8073 49.0495 83.1562 48.1172 83.1562C47.2839 83.1562 46.599 82.9219 46.0625 82.4531C45.5312 81.9792 45.2656 81.3802 45.2656 80.6562C45.2656 79.776 45.599 79.0938 46.2656 78.6094C46.9375 78.1198 47.8802 77.875 49.0938 77.875H50.5V77.2109C50.5 76.7057 50.349 76.3047 50.0469 76.0078C49.7448 75.7057 49.2995 75.5547 48.7109 75.5547C48.1953 75.5547 47.763 75.6849 47.4141 75.9453C47.0651 76.2057 46.8906 76.5208 46.8906 76.8906H45.4375C45.4375 76.4688 45.5859 76.0625 45.8828 75.6719C46.1849 75.276 46.5911 74.9635 47.1016 74.7344C47.6172 74.5052 48.1823 74.3906 48.7969 74.3906C49.7708 74.3906 50.5339 74.6354 51.0859 75.125C51.638 75.6094 51.9245 76.2786 51.9453 77.1328V81.0234C51.9453 81.7995 52.0443 82.4167 52.2422 82.875V83H50.7266ZM48.3281 81.8984C48.7812 81.8984 49.2109 81.7812 49.6172 81.5469C50.0234 81.3125 50.3177 81.0078 50.5 80.6328V78.8984H49.3672C47.5964 78.8984 46.7109 79.4167 46.7109 80.4531C46.7109 80.9062 46.862 81.2604 47.1641 81.5156C47.4661 81.7708 47.8542 81.8984 48.3281 81.8984ZM58.2969 75.8438C58.0781 75.8073 57.8411 75.7891 57.5859 75.7891C56.638 75.7891 55.9948 76.1927 55.6562 77V83H54.2109V74.5469H55.6172L55.6406 75.5234C56.1146 74.7682 56.7865 74.3906 57.6562 74.3906C57.9375 74.3906 58.151 74.4271 58.2969 74.5V75.8438ZM64.5391 83C64.4557 82.8333 64.388 82.5365 64.3359 82.1094C63.6641 82.8073 62.862 83.1562 61.9297 83.1562C61.0964 83.1562 60.4115 82.9219 59.875 82.4531C59.3438 81.9792 59.0781 81.3802 59.0781 80.6562C59.0781 79.776 59.4115 79.0938 60.0781 78.6094C60.75 78.1198 61.6927 77.875 62.9062 77.875H64.3125V77.2109C64.3125 76.7057 64.1615 76.3047 63.8594 76.0078C63.5573 75.7057 63.112 75.5547 62.5234 75.5547C62.0078 75.5547 61.5755 75.6849 61.2266 75.9453C60.8776 76.2057 60.7031 76.5208 60.7031 76.8906H59.25C59.25 76.4688 59.3984 76.0625 59.6953 75.6719C59.9974 75.276 60.4036 74.9635 60.9141 74.7344C61.4297 74.5052 61.9948 74.3906 62.6094 74.3906C63.5833 74.3906 64.3464 74.6354 64.8984 75.125C65.4505 75.6094 65.737 76.2786 65.7578 77.1328V81.0234C65.7578 81.7995 65.8568 82.4167 66.0547 82.875V83H64.5391ZM62.1406 81.8984C62.5938 81.8984 63.0234 81.7812 63.4297 81.5469C63.8359 81.3125 64.1302 81.0078 64.3125 80.6328V78.8984H63.1797C61.4089 78.8984 60.5234 79.4167 60.5234 80.4531C60.5234 80.9062 60.6745 81.2604 60.9766 81.5156C61.2786 81.7708 61.6667 81.8984 62.1406 81.8984ZM69.3828 74.5469L69.4219 75.4844C70.0417 74.7552 70.8776 74.3906 71.9297 74.3906C73.112 74.3906 73.9167 74.8438 74.3438 75.75C74.625 75.3438 74.9896 75.0156 75.4375 74.7656C75.8906 74.5156 76.4245 74.3906 77.0391 74.3906C78.8932 74.3906 79.8359 75.3724 79.8672 77.3359V83H78.4219V77.4219C78.4219 76.8177 78.2839 76.3672 78.0078 76.0703C77.7318 75.7682 77.2682 75.6172 76.6172 75.6172C76.0807 75.6172 75.6354 75.7786 75.2812 76.1016C74.9271 76.4193 74.7214 76.849 74.6641 77.3906V83H73.2109V77.4609C73.2109 76.2318 72.6094 75.6172 71.4062 75.6172C70.4583 75.6172 69.8099 76.0208 69.4609 76.8281V83H68.0156V74.5469H69.3828ZM85.5625 83.1562C84.4167 83.1562 83.4844 82.7812 82.7656 82.0312C82.0469 81.276 81.6875 80.2682 81.6875 79.0078V78.7422C81.6875 77.9036 81.8464 77.1562 82.1641 76.5C82.487 75.8385 82.9349 75.3229 83.5078 74.9531C84.0859 74.5781 84.7109 74.3906 85.3828 74.3906C86.4818 74.3906 87.3359 74.7526 87.9453 75.4766C88.5547 76.2005 88.8594 77.237 88.8594 78.5859V79.1875H83.1328C83.1536 80.0208 83.3958 80.6953 83.8594 81.2109C84.3281 81.7214 84.9219 81.9766 85.6406 81.9766C86.151 81.9766 86.5833 81.8724 86.9375 81.6641C87.2917 81.4557 87.6016 81.1797 87.8672 80.8359L88.75 81.5234C88.0417 82.612 86.9792 83.1562 85.5625 83.1562ZM85.3828 75.5781C84.7995 75.5781 84.3099 75.7917 83.9141 76.2188C83.5182 76.6406 83.2734 77.2344 83.1797 78H87.4141V77.8906C87.3724 77.1562 87.1745 76.5885 86.8203 76.1875C86.4661 75.7812 85.987 75.5781 85.3828 75.5781ZM92.5 72.5V74.5469H94.0781V75.6641H92.5V80.9062C92.5 81.2448 92.5703 81.5 92.7109 81.6719C92.8516 81.8385 93.0911 81.9219 93.4297 81.9219C93.5964 81.9219 93.8255 81.8906 94.1172 81.8281V83C93.737 83.1042 93.3672 83.1562 93.0078 83.1562C92.362 83.1562 91.875 82.9609 91.5469 82.5703C91.2188 82.1797 91.0547 81.625 91.0547 80.9062V75.6641H89.5156V74.5469H91.0547V72.5H92.5ZM99.2812 83.1562C98.1354 83.1562 97.2031 82.7812 96.4844 82.0312C95.7656 81.276 95.4062 80.2682 95.4062 79.0078V78.7422C95.4062 77.9036 95.5651 77.1562 95.8828 76.5C96.2057 75.8385 96.6536 75.3229 97.2266 74.9531C97.8047 74.5781 98.4297 74.3906 99.1016 74.3906C100.201 74.3906 101.055 74.7526 101.664 75.4766C102.273 76.2005 102.578 77.237 102.578 78.5859V79.1875H96.8516C96.8724 80.0208 97.1146 80.6953 97.5781 81.2109C98.0469 81.7214 98.6406 81.9766 99.3594 81.9766C99.8698 81.9766 100.302 81.8724 100.656 81.6641C101.01 81.4557 101.32 81.1797 101.586 80.8359L102.469 81.5234C101.76 82.612 100.698 83.1562 99.2812 83.1562ZM99.1016 75.5781C98.5182 75.5781 98.0286 75.7917 97.6328 76.2188C97.237 76.6406 96.9922 77.2344 96.8984 78H101.133V77.8906C101.091 77.1562 100.893 76.5885 100.539 76.1875C100.185 75.7812 99.7057 75.5781 99.1016 75.5781ZM108.344 75.8438C108.125 75.8073 107.888 75.7891 107.633 75.7891C106.685 75.7891 106.042 76.1927 105.703 77V83H104.258V74.5469H105.664L105.688 75.5234C106.161 74.7682 106.833 74.3906 107.703 74.3906C107.984 74.3906 108.198 74.4271 108.344 74.5V75.8438Z" fill="#FF5A43"/>
<path d="M143.041 44.9893V44.9893C143.043 44.437 143.493 43.9911 144.046 43.9933L223.545 44.3155" stroke="#FF5A43" stroke-width="2" stroke-linecap="round" stroke-linejoin="round"/>
<path d="M226.582 46.1716L220.666 51.4891C220.021 52.0695 218.994 51.6093 218.998 50.7417L219.051 40.3533C219.055 39.499 220.06 39.0422 220.705 39.6008L226.568 44.6716C227.023 45.0652 227.029 45.769 226.582 46.1716Z" fill="#FF6A3E"/>
<path d="M457.041 101.003V101.003C457.043 100.451 457.493 100.005 458.046 100.007L537.545 100.329" stroke="#FF5A43" stroke-width="2" stroke-linecap="round" stroke-linejoin="round"/>
<path d="M540.582 101.186L534.666 106.503C534.021 107.083 532.994 106.623 532.998 105.756L533.051 95.3673C533.055 94.513 534.06 94.0561 534.705 94.6148L540.568 99.6856C541.023 100.079 541.029 100.783 540.582 101.186Z" fill="#FF6A3E"/>
<path d="M457.041 59.199V59.199C457.043 58.6468 457.493 58.2009 458.046 58.2031L537.545 58.5252" stroke="#FF5A43" stroke-width="2" stroke-linecap="round" stroke-linejoin="round"/>
<path d="M540.582 59.3814L534.666 64.6989C534.021 65.2792 532.994 64.8191 532.998 63.9515L533.051 53.5631C533.055 52.7088 534.06 52.2519 534.705 52.8106L540.568 57.8814C541.023 58.275 541.029 58.9788 540.582 59.3814Z" fill="#FF6A3E"/>
<path d="M144.041 76.9193V76.9193C144.043 76.367 144.493 75.9211 145.046 75.9234L224.545 76.2455" stroke="#FF5A43" stroke-width="2" stroke-linecap="round" stroke-linejoin="round"/>
<path d="M227.582 78.1017L221.666 83.4192C221.021 83.9995 219.994 83.5394 219.998 82.6718L220.051 72.2834C220.055 71.4291 221.06 70.9722 221.705 71.5308L227.568 76.6017C228.023 76.9952 228.029 77.699 227.582 78.1017Z" fill="#FF6A3E"/>
<path d="M553.711 94.8138L557.43 104.095L561.148 94.8138H563.094V106.189H561.594V101.759L561.734 96.9779L558 106.189H556.852L553.125 97.0013L553.273 101.759V106.189H551.773V94.8138H553.711ZM565.133 101.884C565.133 101.056 565.294 100.311 565.617 99.6498C565.945 98.9883 566.398 98.4779 566.977 98.1185C567.56 97.7592 568.224 97.5795 568.969 97.5795C570.12 97.5795 571.049 97.9779 571.758 98.7748C572.471 99.5717 572.828 100.632 572.828 101.954V102.056C572.828 102.879 572.669 103.619 572.352 104.275C572.039 104.926 571.589 105.434 571 105.798C570.417 106.163 569.745 106.345 568.984 106.345C567.839 106.345 566.909 105.947 566.195 105.15C565.487 104.353 565.133 103.298 565.133 101.986V101.884ZM566.586 102.056C566.586 102.994 566.802 103.746 567.234 104.314C567.672 104.882 568.255 105.165 568.984 105.165C569.719 105.165 570.302 104.879 570.734 104.306C571.167 103.728 571.383 102.921 571.383 101.884C571.383 100.957 571.161 100.207 570.719 99.6342C570.281 99.056 569.698 98.767 568.969 98.767C568.255 98.767 567.68 99.0508 567.242 99.6185C566.805 100.186 566.586 100.999 566.586 102.056ZM574.289 101.892C574.289 100.595 574.596 99.5534 575.211 98.767C575.826 97.9753 576.63 97.5795 577.625 97.5795C578.615 97.5795 579.398 97.918 579.977 98.5951V94.1888H581.422V106.189H580.094L580.023 105.283C579.445 105.991 578.641 106.345 577.609 106.345C576.63 106.345 575.831 105.944 575.211 105.142C574.596 104.34 574.289 103.293 574.289 102.001V101.892ZM575.734 102.056C575.734 103.014 575.932 103.764 576.328 104.306C576.724 104.848 577.271 105.119 577.969 105.119C578.885 105.119 579.555 104.707 579.977 103.884V100.001C579.544 99.2045 578.88 98.806 577.984 98.806C577.276 98.806 576.724 99.0795 576.328 99.6263C575.932 100.173 575.734 100.983 575.734 102.056ZM585.242 106.189H583.797V97.7357H585.242V106.189ZM583.68 95.4935C583.68 95.2592 583.75 95.0612 583.891 94.8998C584.036 94.7383 584.25 94.6576 584.531 94.6576C584.812 94.6576 585.026 94.7383 585.172 94.8998C585.318 95.0612 585.391 95.2592 585.391 95.4935C585.391 95.7279 585.318 95.9232 585.172 96.0795C585.026 96.2357 584.812 96.3138 584.531 96.3138C584.25 96.3138 584.036 96.2357 583.891 96.0795C583.75 95.9232 583.68 95.7279 583.68 95.4935ZM588.047 106.189V98.8529H586.711V97.7357H588.047V97.017C588.047 96.0743 588.315 95.3399 588.852 94.8138C589.393 94.2878 590.156 94.0248 591.141 94.0248C591.724 94.0248 592.461 94.1836 593.352 94.5013L593.109 95.7201C592.458 95.4597 591.839 95.3295 591.25 95.3295C590.63 95.3295 590.182 95.4701 589.906 95.7513C589.635 96.0274 589.5 96.4441 589.5 97.0013V97.7357H591.227V98.8529H589.5V106.189H588.047ZM594.07 106.189H592.617V97.7357H594.07V106.189ZM599.93 106.345C598.784 106.345 597.852 105.97 597.133 105.22C596.414 104.465 596.055 103.457 596.055 102.197V101.931C596.055 101.092 596.214 100.345 596.531 99.6888C596.854 99.0274 597.302 98.5118 597.875 98.142C598.453 97.767 599.078 97.5795 599.75 97.5795C600.849 97.5795 601.703 97.9414 602.312 98.6654C602.922 99.3894 603.227 100.426 603.227 101.775V102.376H597.5C597.521 103.21 597.763 103.884 598.227 104.4C598.695 104.91 599.289 105.165 600.008 105.165C600.518 105.165 600.951 105.061 601.305 104.853C601.659 104.645 601.969 104.369 602.234 104.025L603.117 104.712C602.409 105.801 601.346 106.345 599.93 106.345ZM599.75 98.767C599.167 98.767 598.677 98.9805 598.281 99.4076C597.885 99.8295 597.641 100.423 597.547 101.189H601.781V101.079C601.74 100.345 601.542 99.7774 601.188 99.3763C600.833 98.9701 600.354 98.767 599.75 98.767ZM604.555 101.892C604.555 100.595 604.862 99.5534 605.477 98.767C606.091 97.9753 606.896 97.5795 607.891 97.5795C608.88 97.5795 609.664 97.918 610.242 98.5951V94.1888H611.688V106.189H610.359L610.289 105.283C609.711 105.991 608.906 106.345 607.875 106.345C606.896 106.345 606.096 105.944 605.477 105.142C604.862 104.34 604.555 103.293 604.555 102.001V101.892ZM606 102.056C606 103.014 606.198 103.764 606.594 104.306C606.99 104.848 607.536 105.119 608.234 105.119C609.151 105.119 609.82 104.707 610.242 103.884V100.001C609.81 99.2045 609.146 98.806 608.25 98.806C607.542 98.806 606.99 99.0795 606.594 99.6263C606.198 100.173 606 100.983 606 102.056ZM622.828 103.947C622.828 103.556 622.68 103.254 622.383 103.04C622.091 102.822 621.578 102.634 620.844 102.478C620.115 102.322 619.534 102.134 619.102 101.915C618.674 101.697 618.357 101.436 618.148 101.134C617.945 100.832 617.844 100.473 617.844 100.056C617.844 99.3633 618.135 98.7774 618.719 98.2982C619.307 97.8191 620.057 97.5795 620.969 97.5795C621.927 97.5795 622.703 97.8269 623.297 98.3217C623.896 98.8164 624.195 99.4493 624.195 100.22H622.742C622.742 99.8243 622.573 99.4831 622.234 99.1967C621.901 98.9102 621.479 98.767 620.969 98.767C620.443 98.767 620.031 98.8816 619.734 99.1107C619.438 99.3399 619.289 99.6394 619.289 100.009C619.289 100.358 619.427 100.621 619.703 100.798C619.979 100.975 620.477 101.145 621.195 101.306C621.919 101.467 622.505 101.66 622.953 101.884C623.401 102.108 623.732 102.379 623.945 102.697C624.164 103.009 624.273 103.392 624.273 103.845C624.273 104.6 623.971 105.207 623.367 105.665C622.763 106.119 621.979 106.345 621.016 106.345C620.339 106.345 619.74 106.225 619.219 105.986C618.698 105.746 618.289 105.413 617.992 104.986C617.701 104.553 617.555 104.087 617.555 103.587H619C619.026 104.072 619.219 104.457 619.578 104.744C619.943 105.025 620.422 105.165 621.016 105.165C621.562 105.165 622 105.056 622.328 104.837C622.661 104.613 622.828 104.316 622.828 103.947ZM628.117 95.6888V97.7357H629.695V98.8529H628.117V104.095C628.117 104.434 628.188 104.689 628.328 104.861C628.469 105.027 628.708 105.111 629.047 105.111C629.214 105.111 629.443 105.079 629.734 105.017V106.189C629.354 106.293 628.984 106.345 628.625 106.345C627.979 106.345 627.492 106.15 627.164 105.759C626.836 105.369 626.672 104.814 626.672 104.095V98.8529H625.133V97.7357H626.672V95.6888H628.117ZM630.852 101.884C630.852 101.056 631.013 100.311 631.336 99.6498C631.664 98.9883 632.117 98.4779 632.695 98.1185C633.279 97.7592 633.943 97.5795 634.688 97.5795C635.839 97.5795 636.768 97.9779 637.477 98.7748C638.19 99.5717 638.547 100.632 638.547 101.954V102.056C638.547 102.879 638.388 103.619 638.07 104.275C637.758 104.926 637.307 105.434 636.719 105.798C636.135 106.163 635.464 106.345 634.703 106.345C633.557 106.345 632.628 105.947 631.914 105.15C631.206 104.353 630.852 103.298 630.852 101.986V101.884ZM632.305 102.056C632.305 102.994 632.521 103.746 632.953 104.314C633.391 104.882 633.974 105.165 634.703 105.165C635.438 105.165 636.021 104.879 636.453 104.306C636.885 103.728 637.102 102.921 637.102 101.884C637.102 100.957 636.88 100.207 636.438 99.6342C636 99.056 635.417 98.767 634.688 98.767C633.974 98.767 633.398 99.0508 632.961 99.6185C632.523 100.186 632.305 100.999 632.305 102.056ZM644.445 99.0326C644.227 98.9961 643.99 98.9779 643.734 98.9779C642.786 98.9779 642.143 99.3816 641.805 100.189V106.189H640.359V97.7357H641.766L641.789 98.7123C642.263 97.9571 642.935 97.5795 643.805 97.5795C644.086 97.5795 644.299 97.6159 644.445 97.6888V99.0326ZM650.688 106.189C650.604 106.022 650.536 105.725 650.484 105.298C649.812 105.996 649.01 106.345 648.078 106.345C647.245 106.345 646.56 106.111 646.023 105.642C645.492 105.168 645.227 104.569 645.227 103.845C645.227 102.965 645.56 102.283 646.227 101.798C646.898 101.309 647.841 101.064 649.055 101.064H650.461V100.4C650.461 99.8946 650.31 99.4935 650.008 99.1967C649.706 98.8946 649.26 98.7435 648.672 98.7435C648.156 98.7435 647.724 98.8737 647.375 99.1342C647.026 99.3946 646.852 99.7097 646.852 100.079H645.398C645.398 99.6576 645.547 99.2513 645.844 98.8607C646.146 98.4649 646.552 98.1524 647.062 97.9232C647.578 97.6941 648.143 97.5795 648.758 97.5795C649.732 97.5795 650.495 97.8243 651.047 98.3138C651.599 98.7982 651.885 99.4675 651.906 100.322V104.212C651.906 104.988 652.005 105.606 652.203 106.064V106.189H650.688ZM648.289 105.087C648.742 105.087 649.172 104.97 649.578 104.736C649.984 104.501 650.279 104.197 650.461 103.822V102.087H649.328C647.557 102.087 646.672 102.606 646.672 103.642C646.672 104.095 646.823 104.449 647.125 104.704C647.427 104.96 647.815 105.087 648.289 105.087ZM653.828 101.892C653.828 100.574 654.133 99.5274 654.742 98.7513C655.352 97.9701 656.159 97.5795 657.164 97.5795C658.195 97.5795 659 97.9441 659.578 98.6732L659.648 97.7357H660.969V105.986C660.969 107.079 660.643 107.941 659.992 108.572C659.346 109.202 658.477 109.517 657.383 109.517C656.773 109.517 656.177 109.387 655.594 109.126C655.01 108.866 654.565 108.509 654.258 108.056L655.008 107.189C655.628 107.954 656.385 108.337 657.281 108.337C657.984 108.337 658.531 108.139 658.922 107.744C659.318 107.348 659.516 106.79 659.516 106.072V105.345C658.938 106.012 658.148 106.345 657.148 106.345C656.159 106.345 655.357 105.947 654.742 105.15C654.133 104.353 653.828 103.267 653.828 101.892ZM655.281 102.056C655.281 103.009 655.477 103.759 655.867 104.306C656.258 104.848 656.805 105.119 657.508 105.119C658.419 105.119 659.089 104.704 659.516 103.876V100.017C659.073 99.2097 658.409 98.806 657.523 98.806C656.82 98.806 656.271 99.0795 655.875 99.6263C655.479 100.173 655.281 100.983 655.281 102.056ZM666.664 106.345C665.518 106.345 664.586 105.97 663.867 105.22C663.148 104.465 662.789 103.457 662.789 102.197V101.931C662.789 101.092 662.948 100.345 663.266 99.6888C663.589 99.0274 664.036 98.5118 664.609 98.142C665.188 97.767 665.812 97.5795 666.484 97.5795C667.583 97.5795 668.438 97.9414 669.047 98.6654C669.656 99.3894 669.961 100.426 669.961 101.775V102.376H664.234C664.255 103.21 664.497 103.884 664.961 104.4C665.43 104.91 666.023 105.165 666.742 105.165C667.253 105.165 667.685 105.061 668.039 104.853C668.393 104.645 668.703 104.369 668.969 104.025L669.852 104.712C669.143 105.801 668.081 106.345 666.664 106.345ZM666.484 98.767C665.901 98.767 665.411 98.9805 665.016 99.4076C664.62 99.8295 664.375 100.423 664.281 101.189H668.516V101.079C668.474 100.345 668.276 99.7774 667.922 99.3763C667.568 98.9701 667.089 98.767 666.484 98.767Z" fill="#FF5A43"/>
<path d="M47.6797 109.93C46.3932 109.56 45.4557 109.107 44.8672 108.57C44.2839 108.029 43.9922 107.362 43.9922 106.57C43.9922 105.674 44.349 104.935 45.0625 104.352C45.7812 103.763 46.7135 103.469 47.8594 103.469C48.6406 103.469 49.3359 103.62 49.9453 103.922C50.5599 104.224 51.0339 104.641 51.3672 105.172C51.7057 105.703 51.875 106.284 51.875 106.914H50.3672C50.3672 106.227 50.1484 105.688 49.7109 105.297C49.2734 104.901 48.6562 104.703 47.8594 104.703C47.1198 104.703 46.5417 104.867 46.125 105.195C45.7135 105.518 45.5078 105.969 45.5078 106.547C45.5078 107.01 45.7031 107.404 46.0938 107.727C46.4896 108.044 47.1589 108.336 48.1016 108.602C49.0495 108.867 49.7891 109.161 50.3203 109.484C50.8568 109.802 51.2526 110.174 51.5078 110.602C51.7682 111.029 51.8984 111.531 51.8984 112.109C51.8984 113.031 51.5391 113.771 50.8203 114.328C50.1016 114.88 49.1406 115.156 47.9375 115.156C47.1562 115.156 46.4271 115.008 45.75 114.711C45.0729 114.409 44.5495 113.997 44.1797 113.477C43.8151 112.956 43.6328 112.365 43.6328 111.703H45.1406C45.1406 112.391 45.3932 112.935 45.8984 113.336C46.4089 113.732 47.0885 113.93 47.9375 113.93C48.7292 113.93 49.3359 113.768 49.7578 113.445C50.1797 113.122 50.3906 112.682 50.3906 112.125C50.3906 111.568 50.1953 111.138 49.8047 110.836C49.4141 110.529 48.7057 110.227 47.6797 109.93ZM55.5625 104.5V106.547H57.1406V107.664H55.5625V112.906C55.5625 113.245 55.6328 113.5 55.7734 113.672C55.9141 113.839 56.1536 113.922 56.4922 113.922C56.6589 113.922 56.888 113.891 57.1797 113.828V115C56.7995 115.104 56.4297 115.156 56.0703 115.156C55.4245 115.156 54.9375 114.961 54.6094 114.57C54.2812 114.18 54.1172 113.625 54.1172 112.906V107.664H52.5781V106.547H54.1172V104.5H55.5625ZM58.2969 110.695C58.2969 109.867 58.4583 109.122 58.7812 108.461C59.1094 107.799 59.5625 107.289 60.1406 106.93C60.724 106.57 61.388 106.391 62.1328 106.391C63.2839 106.391 64.2135 106.789 64.9219 107.586C65.6354 108.383 65.9922 109.443 65.9922 110.766V110.867C65.9922 111.69 65.8333 112.43 65.5156 113.086C65.2031 113.737 64.7526 114.245 64.1641 114.609C63.5807 114.974 62.9089 115.156 62.1484 115.156C61.0026 115.156 60.0729 114.758 59.3594 113.961C58.651 113.164 58.2969 112.109 58.2969 110.797V110.695ZM59.75 110.867C59.75 111.805 59.9661 112.557 60.3984 113.125C60.8359 113.693 61.4193 113.977 62.1484 113.977C62.8828 113.977 63.4661 113.69 63.8984 113.117C64.3307 112.539 64.5469 111.732 64.5469 110.695C64.5469 109.768 64.3255 109.018 63.8828 108.445C63.4453 107.867 62.862 107.578 62.1328 107.578C61.4193 107.578 60.8438 107.862 60.4062 108.43C59.9688 108.997 59.75 109.81 59.75 110.867ZM71.8906 107.844C71.6719 107.807 71.4349 107.789 71.1797 107.789C70.2318 107.789 69.5885 108.193 69.25 109V115H67.8047V106.547H69.2109L69.2344 107.523C69.7083 106.768 70.3802 106.391 71.25 106.391C71.5312 106.391 71.7448 106.427 71.8906 106.5V107.844ZM78.1328 115C78.0495 114.833 77.9818 114.536 77.9297 114.109C77.2578 114.807 76.4557 115.156 75.5234 115.156C74.6901 115.156 74.0052 114.922 73.4688 114.453C72.9375 113.979 72.6719 113.38 72.6719 112.656C72.6719 111.776 73.0052 111.094 73.6719 110.609C74.3438 110.12 75.2865 109.875 76.5 109.875H77.9062V109.211C77.9062 108.706 77.7552 108.305 77.4531 108.008C77.151 107.706 76.7057 107.555 76.1172 107.555C75.6016 107.555 75.1693 107.685 74.8203 107.945C74.4714 108.206 74.2969 108.521 74.2969 108.891H72.8438C72.8438 108.469 72.9922 108.062 73.2891 107.672C73.5911 107.276 73.9974 106.964 74.5078 106.734C75.0234 106.505 75.5885 106.391 76.2031 106.391C77.1771 106.391 77.9401 106.635 78.4922 107.125C79.0443 107.609 79.3307 108.279 79.3516 109.133V113.023C79.3516 113.799 79.4505 114.417 79.6484 114.875V115H78.1328ZM75.7344 113.898C76.1875 113.898 76.6172 113.781 77.0234 113.547C77.4297 113.312 77.724 113.008 77.9062 112.633V110.898H76.7734C75.0026 110.898 74.1172 111.417 74.1172 112.453C74.1172 112.906 74.2682 113.26 74.5703 113.516C74.8724 113.771 75.2604 113.898 75.7344 113.898ZM81.2734 110.703C81.2734 109.385 81.5781 108.339 82.1875 107.562C82.7969 106.781 83.6042 106.391 84.6094 106.391C85.6406 106.391 86.4453 106.755 87.0234 107.484L87.0938 106.547H88.4141V114.797C88.4141 115.891 88.0885 116.753 87.4375 117.383C86.7917 118.013 85.9219 118.328 84.8281 118.328C84.2188 118.328 83.6224 118.198 83.0391 117.938C82.4557 117.677 82.0104 117.32 81.7031 116.867L82.4531 116C83.0729 116.766 83.8307 117.148 84.7266 117.148C85.4297 117.148 85.9766 116.951 86.3672 116.555C86.763 116.159 86.9609 115.602 86.9609 114.883V114.156C86.3828 114.823 85.5938 115.156 84.5938 115.156C83.6042 115.156 82.8021 114.758 82.1875 113.961C81.5781 113.164 81.2734 112.078 81.2734 110.703ZM82.7266 110.867C82.7266 111.82 82.9219 112.57 83.3125 113.117C83.7031 113.659 84.25 113.93 84.9531 113.93C85.8646 113.93 86.5339 113.516 86.9609 112.688V108.828C86.5182 108.021 85.8542 107.617 84.9688 107.617C84.2656 107.617 83.7161 107.891 83.3203 108.438C82.9245 108.984 82.7266 109.794 82.7266 110.867ZM94.1094 115.156C92.9635 115.156 92.0312 114.781 91.3125 114.031C90.5938 113.276 90.2344 112.268 90.2344 111.008V110.742C90.2344 109.904 90.3932 109.156 90.7109 108.5C91.0339 107.839 91.4818 107.323 92.0547 106.953C92.6328 106.578 93.2578 106.391 93.9297 106.391C95.0286 106.391 95.8828 106.753 96.4922 107.477C97.1016 108.201 97.4062 109.237 97.4062 110.586V111.188H91.6797C91.7005 112.021 91.9427 112.695 92.4062 113.211C92.875 113.721 93.4688 113.977 94.1875 113.977C94.6979 113.977 95.1302 113.872 95.4844 113.664C95.8385 113.456 96.1484 113.18 96.4141 112.836L97.2969 113.523C96.5885 114.612 95.526 115.156 94.1094 115.156ZM93.9297 107.578C93.3464 107.578 92.8568 107.792 92.4609 108.219C92.0651 108.641 91.8203 109.234 91.7266 110H95.9609V109.891C95.9193 109.156 95.7214 108.589 95.3672 108.188C95.013 107.781 94.5339 107.578 93.9297 107.578Z" fill="#FF5A43"/>
<path d="M143.041 108.919V108.919C143.043 108.367 143.493 107.921 144.046 107.923L223.545 108.246" stroke="#FF5A43" stroke-width="2" stroke-linecap="round" stroke-linejoin="round"/>
<path d="M226.581 110.102L220.666 115.419C220.02 116 218.993 115.539 218.998 114.672L219.05 104.283C219.055 103.429 220.059 102.972 220.705 103.531L226.568 108.602C227.023 108.995 227.029 109.699 226.581 110.102Z" fill="#FF6A3E"/>
<defs>
<filter id="filter0_d" x="226" y="25.9581" width="229" height="106.042" filterUnits="userSpaceOnUse" color-interpolation-filters="sRGB">
<feFlood flood-opacity="0" result="BackgroundImageFix"/>
<feColorMatrix in="SourceAlpha" type="matrix" values="0 0 0 0 0 0 0 0 0 0 0 0 0 0 0 0 0 0 127 0"/>
<feOffset dx="4" dy="4"/>
<feColorMatrix type="matrix" values="0 0 0 0 0.952941 0 0 0 0 0.639216 0 0 0 0 0.619608 0 0 0 1 0"/>
<feBlend mode="normal" in2="BackgroundImageFix" result="effect1_dropShadow"/>
<feBlend mode="normal" in="SourceGraphic" in2="effect1_dropShadow" result="shape"/>
</filter>
<clipPath id="clip0">
<rect x="226" y="25.9581" width="225" height="102.042" rx="8" fill="white"/>
</clipPath>
<clipPath id="clip1">
<rect width="32" height="32" fill="white" transform="translate(322.5 47.9581)"/>
</clipPath>
</defs>
</svg>
