<svg width="48" height="48" viewBox="0 0 48 48" fill="none" xmlns="http://www.w3.org/2000/svg">
<path d="M34.3999 22.5C34.3999 25.2848 33.2937 27.9555 31.3245 29.9246C29.3554 31.8938 26.6847 33 23.8999 33C21.1151 33 18.4444 31.8938 16.4753 29.9246C14.5061 27.9555 13.3999 25.2848 13.3999 22.5H34.3999Z" stroke="white" stroke-width="1.5" stroke-linecap="round" stroke-linejoin="round"/>
<path d="M34.3999 13.5C35.1956 13.5 35.9586 13.1839 36.5212 12.6213C37.0838 12.0587 37.3999 11.2956 37.3999 10.5C37.4003 9.53075 37.1658 8.57584 36.7166 7.71697C36.2674 6.8581 35.6168 6.12085 34.8205 5.56828C34.0242 5.01571 33.1058 4.66429 32.1441 4.54408C31.1823 4.42386 30.2057 4.53844 29.2979 4.878C28.8066 3.86357 28.0395 3.00805 27.0844 2.40944C26.1294 1.81083 25.025 1.49334 23.8979 1.49334C22.7708 1.49334 21.6664 1.81083 20.7114 2.40944C19.7563 3.00805 18.9892 3.86357 18.4979 4.878C17.5903 4.53926 16.6142 4.42532 15.6529 4.54592C14.6917 4.66653 13.774 5.01809 12.9782 5.57057C12.1824 6.12304 11.5322 6.85999 11.0832 7.71842C10.6342 8.57685 10.3998 9.53124 10.3999 10.5C10.3999 11.2956 10.716 12.0587 11.2786 12.6213C11.8412 13.1839 12.6043 13.5 13.3999 13.5V22.5H34.3999V13.5Z" stroke="white" stroke-width="1.5" stroke-linecap="round" stroke-linejoin="round"/>
<path d="M39.21 46.5C37.3981 44.1651 35.0763 42.2754 32.4221 40.9754C29.7679 39.6755 26.8515 38.9996 23.896 38.9996C20.9406 38.9996 18.0242 39.6755 15.37 40.9754C12.7158 42.2754 10.3939 44.1651 8.58203 46.5" stroke="white" stroke-width="1.5" stroke-linecap="round" stroke-linejoin="round"/>
<path d="M23.896 39V46.5" stroke="white" stroke-width="1.5" stroke-linecap="round" stroke-linejoin="round"/>
</svg>
