<svg width="24" height="24" viewBox="0 0 24 24" fill="none" xmlns="http://www.w3.org/2000/svg">
<g clip-path="url(#clip0)">
<path d="M17.2002 11.25C17.2002 12.6424 16.6471 13.9777 15.6625 14.9623C14.6779 15.9469 13.3426 16.5 11.9502 16.5C10.5578 16.5 9.22245 15.9469 8.23788 14.9623C7.25332 13.9777 6.7002 12.6424 6.7002 11.25H17.2002Z" stroke="#2B7DF7" stroke-width="1.5" stroke-linecap="round" stroke-linejoin="round"/>
<path d="M17.2002 6.75C17.598 6.75 17.9796 6.59197 18.2609 6.31066C18.5422 6.02936 18.7002 5.64783 18.7002 5.25C18.7004 4.76538 18.5832 4.28792 18.3585 3.85849C18.1339 3.42905 17.8086 3.06043 17.4105 2.78414C17.0123 2.50786 16.5532 2.33215 16.0723 2.27204C15.5914 2.21194 15.1031 2.26922 14.6492 2.439C14.4035 1.93179 14.02 1.50403 13.5425 1.20472C13.0649 0.905419 12.5128 0.746674 11.9492 0.746674C11.3856 0.746674 10.8335 0.905419 10.3559 1.20472C9.87841 1.50403 9.49485 1.93179 9.2492 2.439C8.79539 2.26963 8.30732 2.21266 7.82671 2.27297C7.3461 2.33327 6.88723 2.50905 6.48934 2.78529C6.09145 3.06152 5.76636 3.43 5.54186 3.85921C5.31736 4.28843 5.20013 4.76562 5.2002 5.25C5.2002 5.64783 5.35823 6.02936 5.63954 6.31066C5.92084 6.59197 6.30237 6.75 6.7002 6.75V11.25H17.2002V6.75Z" stroke="#2B7DF7" stroke-width="1.5" stroke-linecap="round" stroke-linejoin="round"/>
<path d="M19.605 23.25C18.6991 22.0825 17.5382 21.1377 16.211 20.4877C14.8839 19.8377 13.4258 19.4998 11.948 19.4998C10.4703 19.4998 9.01211 19.8377 7.68499 20.4877C6.35788 21.1377 5.19696 22.0825 4.29102 23.25" stroke="#2B7DF7" stroke-width="1.5" stroke-linecap="round" stroke-linejoin="round"/>
<path d="M11.9482 19.5V23.25" stroke="#2B7DF7" stroke-width="1.5" stroke-linecap="round" stroke-linejoin="round"/>
</g>
<defs>
<clipPath id="clip0">
<rect width="24" height="24" fill="white"/>
</clipPath>
</defs>
</svg>
