<svg width="24" height="24" viewBox="0 0 24 24" fill="none" xmlns="http://www.w3.org/2000/svg">
<path d="M2.31201 23.2501C2.67046 20.952 3.8385 18.8576 5.60537 17.345C7.37225 15.8323 9.62158 15.001 11.9475 15.001C14.2734 15.001 16.5228 15.8323 18.2896 17.345C20.0565 18.8576 21.2246 20.952 21.583 23.2501" stroke="#2097F6" stroke-width="1.5" stroke-linecap="round" stroke-linejoin="round"/>
<path d="M14.198 23.25L11.948 15L9.698 23.25" stroke="#2097F6" stroke-width="1.5" stroke-linecap="round" stroke-linejoin="round"/>
<path d="M11.948 12.75C15.2617 12.75 17.948 10.0637 17.948 6.75C17.948 3.43629 15.2617 0.75 11.948 0.75C8.63429 0.75 5.948 3.43629 5.948 6.75C5.948 10.0637 8.63429 12.75 11.948 12.75Z" stroke="#2097F6" stroke-width="1.5" stroke-linecap="round" stroke-linejoin="round"/>
<path d="M9.698 8.25C10.5264 8.25 11.198 7.57843 11.198 6.75C11.198 5.92157 10.5264 5.25 9.698 5.25C8.86957 5.25 8.198 5.92157 8.198 6.75C8.198 7.57843 8.86957 8.25 9.698 8.25Z" stroke="#2097F6" stroke-width="1.5" stroke-linecap="round" stroke-linejoin="round"/>
<path d="M14.198 8.25C15.0264 8.25 15.698 7.57843 15.698 6.75C15.698 5.92157 15.0264 5.25 14.198 5.25C13.3696 5.25 12.698 5.92157 12.698 6.75C12.698 7.57843 13.3696 8.25 14.198 8.25Z" stroke="#2097F6" stroke-width="1.5" stroke-linecap="round" stroke-linejoin="round"/>
<path d="M4.448 6.75H8.198" stroke="#2097F6" stroke-width="1.5" stroke-linecap="round" stroke-linejoin="round"/>
<path d="M15.698 6.75H19.448" stroke="#2097F6" stroke-width="1.5" stroke-linecap="round" stroke-linejoin="round"/>
</svg>
