<svg width="24" height="24" viewBox="0 0 24 24" fill="none" xmlns="http://www.w3.org/2000/svg">
<path d="M4.9751 19.5C6.42485 19.5 7.6001 18.3247 7.6001 16.875C7.6001 15.4253 6.42485 14.25 4.9751 14.25C3.52535 14.25 2.3501 15.4253 2.3501 16.875C2.3501 18.3247 3.52535 19.5 4.9751 19.5Z" stroke="#2B7DF7" stroke-width="1.5" stroke-linecap="round" stroke-linejoin="round"/>
<path d="M9.19998 23.25C8.89425 22.3733 8.32334 21.6134 7.56639 21.0757C6.80944 20.5381 5.90396 20.2492 4.97548 20.2492C4.047 20.2492 3.14151 20.5381 2.38457 21.0757C1.62762 21.6134 1.0567 22.3733 0.750977 23.25H9.19998Z" stroke="#2B7DF7" stroke-width="1.5" stroke-linecap="round" stroke-linejoin="round"/>
<path d="M19.0259 19.5C20.4756 19.5 21.6509 18.3247 21.6509 16.875C21.6509 15.4253 20.4756 14.25 19.0259 14.25C17.5761 14.25 16.4009 15.4253 16.4009 16.875C16.4009 18.3247 17.5761 19.5 19.0259 19.5Z" stroke="#2B7DF7" stroke-width="1.5" stroke-linecap="round" stroke-linejoin="round"/>
<path d="M23.2498 23.25C22.9441 22.3733 22.3731 21.6134 21.6162 21.0757C20.8592 20.5381 19.9538 20.2492 19.0253 20.2492C18.0968 20.2492 17.1913 20.5381 16.4344 21.0757C15.6774 21.6134 15.1065 22.3733 14.8008 23.25H23.2498Z" stroke="#2B7DF7" stroke-width="1.5" stroke-linecap="round" stroke-linejoin="round"/>
<path d="M12 14.25C15.7279 14.25 18.75 11.2279 18.75 7.5C18.75 3.77208 15.7279 0.75 12 0.75C8.27208 0.75 5.25 3.77208 5.25 7.5C5.25 11.2279 8.27208 14.25 12 14.25Z" stroke="#2B7DF7" stroke-width="1.5" stroke-linecap="round" stroke-linejoin="round"/>
<path d="M5.63379 9.75H18.3658" stroke="#2B7DF7" stroke-width="1.5" stroke-linecap="round" stroke-linejoin="round"/>
<path d="M5.63379 5.25H18.3658" stroke="#2B7DF7" stroke-width="1.5" stroke-linecap="round" stroke-linejoin="round"/>
<path d="M10.544 0.908C9.33271 5.27909 9.51094 9.91871 11.054 14.184" stroke="#2B7DF7" stroke-width="1.5" stroke-linecap="round" stroke-linejoin="round"/>
<path d="M13.4562 0.908C13.985 2.81023 14.2521 4.77564 14.2502 6.75C14.2544 9.28491 13.8144 11.801 12.9502 14.184" stroke="#2B7DF7" stroke-width="1.5" stroke-linecap="round" stroke-linejoin="round"/>
</svg>
