<svg width="24" height="24" viewBox="0 0 24 24" fill="none" xmlns="http://www.w3.org/2000/svg">
<path fill-rule="evenodd" clip-rule="evenodd" d="M21.6131 16.23C19.9861 19.9224 16.2941 22.5 12 22.5C9.37048 22.5 6.96672 21.5334 5.12464 19.9362L8.83077 16.23H21.6131ZM22.1416 14.73H10.3308L16.9908 8.07H21.7398C22.2301 9.2839 22.5 10.6104 22.5 12C22.5 12.9443 22.3753 13.8595 22.1416 14.73ZM23.2332 16.23H23.4286V15.6693C23.7997 14.5128 24 13.2798 24 12C24 10.1695 23.5902 8.43477 22.8572 6.8825V6.57H22.7041C21.5511 4.30173 19.6984 2.44897 17.4301 1.296V1.20108H17.2392C15.6561 0.431614 13.8785 0 12 0C10.7202 0 9.4871 0.200361 8.3305 0.571426H7.77011V0.766745C3.22982 2.47724 0 6.86144 0 12C0 18.6274 5.37258 24 12 24C17.1385 24 21.5227 20.7702 23.2332 16.23ZM7.77011 2.38681C4.07768 4.01387 1.5 7.70591 1.5 12C1.5 14.6296 2.46664 17.0334 4.06397 18.8755L7.77011 15.1693V2.38681ZM9.27011 1.85838V13.6693L15.9301 7.00934V2.26025C14.7162 1.76994 13.3896 1.5 12 1.5C11.0557 1.5 10.1406 1.62464 9.27011 1.85838ZM17.4301 3.01131V6.57H20.9888C20.1082 5.11549 18.8846 3.89186 17.4301 3.01131Z" fill="#2B7DF7"/>
</svg>
