<svg width="24" height="24" viewBox="0 0 24 24" fill="none" xmlns="http://www.w3.org/2000/svg">
<path d="M21 5.25C22.2426 5.25 23.25 4.24264 23.25 3C23.25 1.75736 22.2426 0.75 21 0.75C19.7574 0.75 18.75 1.75736 18.75 3C18.75 4.24264 19.7574 5.25 21 5.25Z" stroke="#2B7DF7" stroke-width="1.5" stroke-linecap="round" stroke-linejoin="round"/>
<path d="M21 14.25C22.2426 14.25 23.25 13.2426 23.25 12C23.25 10.7574 22.2426 9.75 21 9.75C19.7574 9.75 18.75 10.7574 18.75 12C18.75 13.2426 19.7574 14.25 21 14.25Z" stroke="#2B7DF7" stroke-width="1.5" stroke-linecap="round" stroke-linejoin="round"/>
<path d="M14.25 12H18.75" stroke="#2B7DF7" stroke-width="1.5" stroke-linecap="round" stroke-linejoin="round"/>
<path d="M14.25 7.5L19.132 4.253" stroke="#2B7DF7" stroke-width="1.5" stroke-linecap="round" stroke-linejoin="round"/>
<path d="M21 23.25C22.2426 23.25 23.25 22.2426 23.25 21C23.25 19.7574 22.2426 18.75 21 18.75C19.7574 18.75 18.75 19.7574 18.75 21C18.75 22.2426 19.7574 23.25 21 23.25Z" stroke="#2B7DF7" stroke-width="1.5" stroke-linecap="round" stroke-linejoin="round"/>
<path d="M14.25 16.5L19.132 19.746" stroke="#2B7DF7" stroke-width="1.5" stroke-linecap="round" stroke-linejoin="round"/>
<path d="M9.75 9.75H2.25C1.42157 9.75 0.75 10.4216 0.75 11.25V15.75C0.75 16.5784 1.42157 17.25 2.25 17.25H9.75C10.5784 17.25 11.25 16.5784 11.25 15.75V11.25C11.25 10.4216 10.5784 9.75 9.75 9.75Z" stroke="#2B7DF7" stroke-width="1.5" stroke-linecap="round" stroke-linejoin="round"/>
<path d="M6 13.125C5.92583 13.125 5.85333 13.147 5.79166 13.1882C5.72999 13.2294 5.68193 13.288 5.65355 13.3565C5.62516 13.425 5.61774 13.5004 5.63221 13.5732C5.64668 13.6459 5.68239 13.7127 5.73484 13.7652C5.78728 13.8176 5.8541 13.8533 5.92684 13.8678C5.99958 13.8823 6.07498 13.8748 6.14351 13.8465C6.21203 13.8181 6.2706 13.77 6.3118 13.7083C6.35301 13.6467 6.375 13.5742 6.375 13.5C6.37513 13.4507 6.36552 13.4019 6.34672 13.3563C6.32792 13.3108 6.30031 13.2694 6.26546 13.2345C6.23061 13.1997 6.18922 13.1721 6.14366 13.1533C6.09811 13.1345 6.04928 13.1249 6 13.125V13.125Z" stroke="#2B7DF7" stroke-width="1.5" stroke-linecap="round" stroke-linejoin="round"/>
<path d="M2.25 9.75V7.5C2.25 6.50544 2.64509 5.55161 3.34835 4.84835C4.05161 4.14509 5.00544 3.75 6 3.75C6.99456 3.75 7.94839 4.14509 8.65165 4.84835C9.35491 5.55161 9.75 6.50544 9.75 7.5V9.75" stroke="#2B7DF7" stroke-width="1.5" stroke-linecap="round" stroke-linejoin="round"/>
</svg>
