<svg width="24" height="24" viewBox="0 0 24 24" fill="none" xmlns="http://www.w3.org/2000/svg">
<path d="M6.72607 0.75H17.2261" stroke="#2097F6" stroke-width="1.5" stroke-linecap="round" stroke-linejoin="round"/>
<path d="M15.7261 8.25V0.75H8.22609V8.25L1.48909 18.615C1.19496 19.0675 1.02834 19.5909 1.00679 20.1302C0.985233 20.6694 1.10954 21.2045 1.36661 21.679C1.62368 22.1535 2.00399 22.5499 2.46746 22.8264C2.93094 23.1029 3.46041 23.2492 4.00009 23.25H19.9481C20.4881 23.2499 21.0181 23.1041 21.4821 22.8279C21.9462 22.5517 22.3271 22.1554 22.5846 21.6808C22.8422 21.2061 22.9668 20.6708 22.9454 20.1312C22.924 19.5916 22.7574 19.0678 22.4631 18.615L15.7261 8.25Z" stroke="#2097F6" stroke-width="1.5" stroke-linecap="round" stroke-linejoin="round"/>
<path d="M5.30103 12.75H18.651" stroke="#2097F6" stroke-width="1.5" stroke-linecap="round" stroke-linejoin="round"/>
<path d="M14.2261 17.25H17.2261" stroke="#2097F6" stroke-width="1.5" stroke-linecap="round" stroke-linejoin="round"/>
<path d="M15.7261 15.75V18.75" stroke="#2097F6" stroke-width="1.5" stroke-linecap="round" stroke-linejoin="round"/>
<path d="M6.72607 19.125C6.82536 19.1253 6.92048 19.1649 6.99059 19.2352C7.0607 19.3055 7.10007 19.4007 7.10007 19.5" stroke="#2097F6" stroke-width="1.5" stroke-linecap="round" stroke-linejoin="round"/>
<path d="M6.35107 19.5C6.35107 19.4005 6.39058 19.3052 6.46091 19.2348C6.53124 19.1645 6.62662 19.125 6.72607 19.125" stroke="#2097F6" stroke-width="1.5" stroke-linecap="round" stroke-linejoin="round"/>
<path d="M6.72607 19.875C6.62662 19.875 6.53124 19.8355 6.46091 19.7652C6.39058 19.6948 6.35107 19.5995 6.35107 19.5" stroke="#2097F6" stroke-width="1.5" stroke-linecap="round" stroke-linejoin="round"/>
<path d="M7.1001 19.5C7.1001 19.5995 7.06059 19.6948 6.99026 19.7652C6.91994 19.8355 6.82455 19.875 6.7251 19.875" stroke="#2097F6" stroke-width="1.5" stroke-linecap="round" stroke-linejoin="round"/>
<path d="M9.72607 16.125C9.82553 16.125 9.92091 16.1645 9.99124 16.2348C10.0616 16.3052 10.1011 16.4005 10.1011 16.5" stroke="#2097F6" stroke-width="1.5" stroke-linecap="round" stroke-linejoin="round"/>
<path d="M9.35107 16.5C9.35107 16.4005 9.39058 16.3052 9.46091 16.2348C9.53124 16.1645 9.62662 16.125 9.72607 16.125" stroke="#2097F6" stroke-width="1.5" stroke-linecap="round" stroke-linejoin="round"/>
<path d="M9.72607 16.875C9.62662 16.875 9.53124 16.8355 9.46091 16.7652C9.39058 16.6948 9.35107 16.5995 9.35107 16.5" stroke="#2097F6" stroke-width="1.5" stroke-linecap="round" stroke-linejoin="round"/>
<path d="M10.1001 16.5C10.1001 16.5995 10.0606 16.6948 9.99026 16.7652C9.91994 16.8355 9.82455 16.875 9.7251 16.875" stroke="#2097F6" stroke-width="1.5" stroke-linecap="round" stroke-linejoin="round"/>
<path d="M15.7261 3.75H12.7261" stroke="#2097F6" stroke-width="1.5" stroke-linecap="round" stroke-linejoin="round"/>
<path d="M15.7261 6.75H12.7261" stroke="#2097F6" stroke-width="1.5" stroke-linecap="round" stroke-linejoin="round"/>
</svg>
