<svg width="24" height="24" viewBox="0 0 24 24" fill="none" xmlns="http://www.w3.org/2000/svg">
<path d="M10.4756 1C10.4756 0.585786 10.1398 0.25 9.72562 0.25C9.31141 0.25 8.97562 0.585786 8.97562 1H10.4756ZM15.5478 15.5929C15.7776 15.2483 15.6845 14.7826 15.3398 14.5528C14.9952 14.3231 14.5295 14.4162 14.2998 14.7608L15.5478 15.5929ZM5 5.44819C4.58579 5.44819 4.25 5.78397 4.25 6.19819C4.25 6.6124 4.58579 6.94819 5 6.94819V5.44819ZM19.6494 6.19819L20.2139 6.69206C20.4077 6.47059 20.454 6.15626 20.3324 5.88827C20.2108 5.62029 19.9437 5.44819 19.6494 5.44819V6.19819ZM13.0336 13.7592L12.4691 13.2653C12.2385 13.5288 12.221 13.9168 12.4268 14.2001C12.6327 14.4834 13.0072 14.5865 13.329 14.4485L13.0336 13.7592ZM13.9787 22.7379L13.6433 23.4087L13.6433 23.4087L13.9787 22.7379ZM12.7999 19.6671C12.9309 19.2741 12.7186 18.8494 12.3256 18.7184C11.9326 18.5874 11.5079 18.7998 11.3769 19.1928L12.7999 19.6671ZM8.97562 1V6.19819H10.4756V1H8.97562ZM8.97562 6.19819V15.6494H10.4756V6.19819H8.97562ZM8.97562 15.6494C8.97562 16.2632 9.28729 16.8106 9.70852 17.2017C10.1363 17.599 10.7197 17.8803 11.3789 17.9646C12.7435 18.1392 14.2963 17.4702 15.5478 15.5929L14.2998 14.7608C13.283 16.286 12.2367 16.5621 11.5693 16.4768C11.2125 16.4311 10.9216 16.2812 10.7292 16.1026C10.5302 15.9178 10.4756 15.7445 10.4756 15.6494H8.97562ZM5 6.94819H9.72562V5.44819H5V6.94819ZM9.72562 6.94819H19.6494V5.44819H9.72562V6.94819ZM19.085 5.70431L12.4691 13.2653L13.598 14.2531L20.2139 6.69206L19.085 5.70431ZM13.329 14.4485C14.8714 13.7875 16.2702 13.7415 17.234 14.2463C18.146 14.7241 18.8994 15.8228 18.8994 18.0122H20.3994C20.3994 15.476 19.4989 13.7394 17.93 12.9176C16.4128 12.1229 14.5036 12.3132 12.7381 13.0698L13.329 14.4485ZM18.8994 18.0122C18.8994 19.327 18.6259 20.2163 18.2571 20.8171C17.8918 21.4122 17.4038 21.7722 16.8845 21.9846C16.3559 22.2009 15.7878 22.2659 15.2923 22.2469C14.7784 22.2271 14.4218 22.1209 14.3141 22.0671L13.6433 23.4087C14.0082 23.5911 14.5967 23.7212 15.2346 23.7457C15.891 23.771 16.6815 23.6883 17.4525 23.373C18.2327 23.0538 18.9852 22.4982 19.5355 21.6018C20.0823 20.711 20.3994 19.5329 20.3994 18.0122H18.8994ZM14.3141 22.0671C13.9501 21.8851 13.4564 21.494 13.1164 21.0082C12.776 20.522 12.6678 20.0636 12.7999 19.6671L11.3769 19.1928C11.0365 20.214 11.4009 21.1733 11.8875 21.8684C12.3744 22.564 13.0621 23.1181 13.6433 23.4087L14.3141 22.0671Z" fill="white"/>
</svg>
