<svg width="48" height="50" viewBox="0 0 48 50" fill="none" xmlns="http://www.w3.org/2000/svg">
<path d="M19.0605 1C19.0605 0.585786 18.7247 0.25 18.3105 0.25C17.8962 0.25 17.5605 0.585786 17.5605 1H19.0605ZM30.276 32.3474C30.5058 32.0027 30.4126 31.5371 30.068 31.3073C29.7233 31.0776 29.2577 31.1707 29.0279 31.5153L30.276 32.3474ZM8 11.5915C7.58579 11.5915 7.25 11.9273 7.25 12.3415C7.25 12.7557 7.58579 13.0915 8 13.0915V11.5915ZM39.9624 12.3415L40.5268 12.8354C40.7206 12.6139 40.767 12.2996 40.6454 12.0316C40.5238 11.7636 40.2567 11.5915 39.9624 11.5915V12.3415ZM25.5278 28.8382L24.9633 28.3443C24.7328 28.6079 24.7152 28.9959 24.9211 29.2791C25.1269 29.5624 25.5014 29.6655 25.8232 29.5276L25.5278 28.8382ZM27.5899 48.4281L27.9253 47.7573L27.9253 47.7573L27.5899 48.4281ZM24.1772 41.4479C24.3082 41.055 24.0958 40.6302 23.7028 40.4992C23.3099 40.3683 22.8852 40.5806 22.7542 40.9736L24.1772 41.4479ZM17.5605 1V12.3415H19.0605V1H17.5605ZM17.5605 12.3415V32.9624H19.0605V12.3415H17.5605ZM17.5605 32.9624C17.5605 33.9951 18.0885 34.9683 18.8763 35.6997C19.6706 36.4373 20.7706 36.9735 22.0302 37.1346C24.5955 37.4627 27.6841 36.2352 30.276 32.3474L29.0279 31.5153C26.6708 35.051 24.0886 35.8856 22.2205 35.6467C21.2633 35.5243 20.4559 35.1196 19.8969 34.6006C19.3314 34.0754 19.0605 33.4763 19.0605 32.9624H17.5605ZM8 13.0915H18.3105V11.5915H8V13.0915ZM18.3105 13.0915H39.9624V11.5915H18.3105V13.0915ZM39.398 11.8476L24.9633 28.3443L26.0922 29.3321L40.5268 12.8354L39.398 11.8476ZM25.8232 29.5276C29.3203 28.0288 32.6738 27.8432 35.1036 29.116C37.4816 30.3616 39.2124 33.1358 39.2124 38.1176H40.7124C40.7124 32.789 38.8345 29.3769 35.7996 27.7872C32.8163 26.2246 28.9525 26.5545 25.2323 28.1489L25.8232 29.5276ZM39.2124 38.1176C39.2124 41.1078 38.5898 43.2189 37.68 44.7009C36.7736 46.1774 35.5527 47.0784 34.2654 47.605C32.9689 48.1354 31.598 48.2877 30.4218 48.2425C29.2273 48.1965 28.3122 47.9507 27.9253 47.7573L27.2544 49.0989C27.8986 49.421 29.0456 49.6907 30.3642 49.7414C31.7012 49.7928 33.2946 49.6229 34.8334 48.9934C36.3815 48.36 37.8671 47.2634 38.9584 45.4857C40.0462 43.7135 40.7124 41.3137 40.7124 38.1176H39.2124ZM27.9253 47.7573C27.0028 47.296 25.811 46.3465 24.9823 45.1626C24.1532 43.9783 23.7658 42.6821 24.1772 41.4479L22.7542 40.9736C22.1345 42.8325 22.7781 44.6295 23.7534 46.0228C24.729 47.4165 26.1148 48.5291 27.2544 49.0989L27.9253 47.7573Z" fill="white"/>
</svg>
