<svg width="404" height="234" viewBox="0 0 404 234" fill="none" xmlns="http://www.w3.org/2000/svg">
<g filter="url(#filter0_d)">
<rect width="400" height="230" rx="8" fill="#E7F4FF"/>
<path d="M28 20.5H138.5V59.5H28C23.8579 59.5 20.5 56.1421 20.5 52V28C20.5 23.8579 23.8579 20.5 28 20.5Z" fill="#E7F4FF"/>
<path d="M41.7656 45.5V34.125H44.9766C45.9661 34.125 46.8411 34.3438 47.6016 34.7812C48.362 35.2188 48.9479 35.8411 49.3594 36.6484C49.776 37.4557 49.987 38.3828 49.9922 39.4297V40.1562C49.9922 41.2292 49.7839 42.1693 49.3672 42.9766C48.9557 43.7839 48.3646 44.4036 47.5938 44.8359C46.8281 45.2682 45.9349 45.4896 44.9141 45.5H41.7656ZM43.2656 35.3594V44.2734H44.8438C46 44.2734 46.8984 43.9141 47.5391 43.1953C48.1849 42.4766 48.5078 41.4531 48.5078 40.125V39.4609C48.5078 38.1693 48.2031 37.1667 47.5938 36.4531C46.9896 35.7344 46.1302 35.3698 45.0156 35.3594H43.2656ZM58.375 42.5312H53.6094L52.5391 45.5H50.9922L55.3359 34.125H56.6484L61 45.5H59.4609L58.375 42.5312ZM54.0625 41.2969H57.9297L55.9922 35.9766L54.0625 41.2969ZM69.375 35.3594H65.7188V45.5H64.2266V35.3594H60.5781V34.125H69.375V35.3594ZM76.7188 42.5312H71.9531L70.8828 45.5H69.3359L73.6797 34.125H74.9922L79.3438 45.5H77.8047L76.7188 42.5312ZM72.4062 41.2969H76.2734L74.3359 35.9766L72.4062 41.2969Z" fill="#2097F6"/>
<path d="M28 20.5H138.5V59.5H28C23.8579 59.5 20.5 56.1421 20.5 52V28C20.5 23.8579 23.8579 20.5 28 20.5Z" stroke="#2097F6"/>
<path d="M139 20.5H138.5V21V59V59.5H139H375C379.694 59.5 383.5 55.6944 383.5 51V29C383.5 24.3056 379.694 20.5 375 20.5H139Z" fill="white"/>
<path d="M162.344 45.5H160.844V34.125H162.344V45.5ZM170.281 38.0703C170.922 37.2839 171.755 36.8906 172.781 36.8906C174.568 36.8906 175.469 37.8984 175.484 39.9141V45.5H174.039V39.9062C174.034 39.2969 173.893 38.8464 173.617 38.5547C173.346 38.263 172.922 38.1172 172.344 38.1172C171.875 38.1172 171.464 38.2422 171.109 38.4922C170.755 38.7422 170.479 39.0703 170.281 39.4766V45.5H168.836V33.5H170.281V38.0703ZM182.867 45.5C182.784 45.3333 182.716 45.0365 182.664 44.6094C181.992 45.3073 181.19 45.6562 180.258 45.6562C179.424 45.6562 178.74 45.4219 178.203 44.9531C177.672 44.4792 177.406 43.8802 177.406 43.1562C177.406 42.276 177.74 41.5938 178.406 41.1094C179.078 40.6198 180.021 40.375 181.234 40.375H182.641V39.7109C182.641 39.2057 182.49 38.8047 182.188 38.5078C181.885 38.2057 181.44 38.0547 180.852 38.0547C180.336 38.0547 179.904 38.1849 179.555 38.4453C179.206 38.7057 179.031 39.0208 179.031 39.3906H177.578C177.578 38.9688 177.727 38.5625 178.023 38.1719C178.326 37.776 178.732 37.4635 179.242 37.2344C179.758 37.0052 180.323 36.8906 180.938 36.8906C181.911 36.8906 182.674 37.1354 183.227 37.625C183.779 38.1094 184.065 38.7786 184.086 39.6328V43.5234C184.086 44.2995 184.185 44.9167 184.383 45.375V45.5H182.867ZM180.469 44.3984C180.922 44.3984 181.352 44.2812 181.758 44.0469C182.164 43.8125 182.458 43.5078 182.641 43.1328V41.3984H181.508C179.737 41.3984 178.852 41.9167 178.852 42.9531C178.852 43.4062 179.003 43.7604 179.305 44.0156C179.607 44.2708 179.995 44.3984 180.469 44.3984ZM188.312 35V37.0469H189.891V38.1641H188.312V43.4062C188.312 43.7448 188.383 44 188.523 44.1719C188.664 44.3385 188.904 44.4219 189.242 44.4219C189.409 44.4219 189.638 44.3906 189.93 44.3281V45.5C189.549 45.6042 189.18 45.6562 188.82 45.6562C188.174 45.6562 187.688 45.4609 187.359 45.0703C187.031 44.6797 186.867 44.125 186.867 43.4062V38.1641H185.328V37.0469H186.867V35H188.312ZM195.094 45.6562C193.948 45.6562 193.016 45.2812 192.297 44.5312C191.578 43.776 191.219 42.7682 191.219 41.5078V41.2422C191.219 40.4036 191.378 39.6562 191.695 39C192.018 38.3385 192.466 37.8229 193.039 37.4531C193.617 37.0781 194.242 36.8906 194.914 36.8906C196.013 36.8906 196.867 37.2526 197.477 37.9766C198.086 38.7005 198.391 39.737 198.391 41.0859V41.6875H192.664C192.685 42.5208 192.927 43.1953 193.391 43.7109C193.859 44.2214 194.453 44.4766 195.172 44.4766C195.682 44.4766 196.115 44.3724 196.469 44.1641C196.823 43.9557 197.133 43.6797 197.398 43.3359L198.281 44.0234C197.573 45.112 196.51 45.6562 195.094 45.6562ZM194.914 38.0781C194.331 38.0781 193.841 38.2917 193.445 38.7188C193.049 39.1406 192.805 39.7344 192.711 40.5H196.945V40.3906C196.904 39.6562 196.706 39.0885 196.352 38.6875C195.997 38.2812 195.518 38.0781 194.914 38.0781ZM207.43 44.4766C207.945 44.4766 208.396 44.3203 208.781 44.0078C209.167 43.6953 209.38 43.3047 209.422 42.8359H210.789C210.763 43.3203 210.596 43.7812 210.289 44.2188C209.982 44.6562 209.57 45.0052 209.055 45.2656C208.544 45.526 208.003 45.6562 207.43 45.6562C206.279 45.6562 205.362 45.2734 204.68 44.5078C204.003 43.737 203.664 42.6849 203.664 41.3516V41.1094C203.664 40.2865 203.815 39.5547 204.117 38.9141C204.419 38.2734 204.852 37.776 205.414 37.4219C205.982 37.0677 206.651 36.8906 207.422 36.8906C208.37 36.8906 209.156 37.1745 209.781 37.7422C210.411 38.3099 210.747 39.0469 210.789 39.9531H209.422C209.38 39.4062 209.172 38.9583 208.797 38.6094C208.427 38.2552 207.969 38.0781 207.422 38.0781C206.688 38.0781 206.117 38.3438 205.711 38.875C205.31 39.401 205.109 40.1641 205.109 41.1641V41.4375C205.109 42.4115 205.31 43.1615 205.711 43.6875C206.112 44.2135 206.685 44.4766 207.43 44.4766ZM217.633 45.5C217.549 45.3333 217.482 45.0365 217.43 44.6094C216.758 45.3073 215.956 45.6562 215.023 45.6562C214.19 45.6562 213.505 45.4219 212.969 44.9531C212.438 44.4792 212.172 43.8802 212.172 43.1562C212.172 42.276 212.505 41.5938 213.172 41.1094C213.844 40.6198 214.786 40.375 216 40.375H217.406V39.7109C217.406 39.2057 217.255 38.8047 216.953 38.5078C216.651 38.2057 216.206 38.0547 215.617 38.0547C215.102 38.0547 214.669 38.1849 214.32 38.4453C213.971 38.7057 213.797 39.0208 213.797 39.3906H212.344C212.344 38.9688 212.492 38.5625 212.789 38.1719C213.091 37.776 213.497 37.4635 214.008 37.2344C214.523 37.0052 215.089 36.8906 215.703 36.8906C216.677 36.8906 217.44 37.1354 217.992 37.625C218.544 38.1094 218.831 38.7786 218.852 39.6328V43.5234C218.852 44.2995 218.951 44.9167 219.148 45.375V45.5H217.633ZM215.234 44.3984C215.688 44.3984 216.117 44.2812 216.523 44.0469C216.93 43.8125 217.224 43.5078 217.406 43.1328V41.3984H216.273C214.503 41.3984 213.617 41.9167 213.617 42.9531C213.617 43.4062 213.768 43.7604 214.07 44.0156C214.372 44.2708 214.76 44.3984 215.234 44.3984ZM223.477 41.5859L222.57 42.5312V45.5H221.125V33.5H222.57V40.7578L223.344 39.8281L225.977 37.0469H227.734L224.445 40.5781L228.117 45.5H226.422L223.477 41.5859ZM232.578 45.6562C231.432 45.6562 230.5 45.2812 229.781 44.5312C229.062 43.776 228.703 42.7682 228.703 41.5078V41.2422C228.703 40.4036 228.862 39.6562 229.18 39C229.503 38.3385 229.951 37.8229 230.523 37.4531C231.102 37.0781 231.727 36.8906 232.398 36.8906C233.497 36.8906 234.352 37.2526 234.961 37.9766C235.57 38.7005 235.875 39.737 235.875 41.0859V41.6875H230.148C230.169 42.5208 230.411 43.1953 230.875 43.7109C231.344 44.2214 231.938 44.4766 232.656 44.4766C233.167 44.4766 233.599 44.3724 233.953 44.1641C234.307 43.9557 234.617 43.6797 234.883 43.3359L235.766 44.0234C235.057 45.112 233.995 45.6562 232.578 45.6562ZM232.398 38.0781C231.815 38.0781 231.326 38.2917 230.93 38.7188C230.534 39.1406 230.289 39.7344 230.195 40.5H234.43V40.3906C234.388 39.6562 234.19 39.0885 233.836 38.6875C233.482 38.2812 233.003 38.0781 232.398 38.0781ZM239.172 42.2891H237.867L237.766 34.125H239.281L239.172 42.2891ZM237.711 44.7734C237.711 44.5391 237.781 44.3438 237.922 44.1875C238.068 44.026 238.281 43.9453 238.562 43.9453C238.844 43.9453 239.057 44.026 239.203 44.1875C239.349 44.3438 239.422 44.5391 239.422 44.7734C239.422 45.0078 239.349 45.2031 239.203 45.3594C239.057 45.5104 238.844 45.5859 238.562 45.5859C238.281 45.5859 238.068 45.5104 237.922 45.3594C237.781 45.2031 237.711 45.0078 237.711 44.7734Z" fill="#2097F6"/>
<path d="M139 20.5H138.5V21V59V59.5H139H375C379.694 59.5 383.5 55.6944 383.5 51V29C383.5 24.3056 379.694 20.5 375 20.5H139Z" stroke="#2097F6"/>
<path d="M28 70.5H138.5V109.5H28C23.8579 109.5 20.5 106.142 20.5 102V78C20.5 73.8579 23.8579 70.5 28 70.5Z" fill="#E7F4FF"/>
<path d="M43.125 91.0469V95.5H41.625V84.125H45.8203C47.0651 84.125 48.0391 84.4427 48.7422 85.0781C49.4505 85.7135 49.8047 86.5547 49.8047 87.6016C49.8047 88.7057 49.4583 89.5573 48.7656 90.1562C48.0781 90.75 47.0911 91.0469 45.8047 91.0469H43.125ZM43.125 89.8203H45.8203C46.6224 89.8203 47.237 89.6328 47.6641 89.2578C48.0911 88.8776 48.3047 88.3307 48.3047 87.6172C48.3047 86.9401 48.0911 86.3984 47.6641 85.9922C47.237 85.5859 46.651 85.375 45.9062 85.3594H43.125V89.8203ZM59.7266 84.125V91.8594C59.7214 92.9323 59.3828 93.8099 58.7109 94.4922C58.0443 95.1745 57.138 95.5573 55.9922 95.6406L55.5938 95.6562C54.349 95.6562 53.3568 95.3203 52.6172 94.6484C51.8776 93.9766 51.5026 93.0521 51.4922 91.875V84.125H52.9766V91.8281C52.9766 92.651 53.2031 93.2917 53.6562 93.75C54.1094 94.2031 54.7552 94.4297 55.5938 94.4297C56.4427 94.4297 57.0911 94.2031 57.5391 93.75C57.9922 93.2969 58.2188 92.6589 58.2188 91.8359V84.125H59.7266ZM62.0938 95.5V84.125H65.8125C67.0469 84.125 67.974 84.3802 68.5938 84.8906C69.2188 85.401 69.5312 86.1562 69.5312 87.1562C69.5312 87.6875 69.3802 88.1589 69.0781 88.5703C68.776 88.9766 68.3646 89.2917 67.8438 89.5156C68.4583 89.6875 68.9427 90.0156 69.2969 90.5C69.6562 90.9792 69.8359 91.5521 69.8359 92.2188C69.8359 93.2396 69.5052 94.0417 68.8438 94.625C68.1823 95.2083 67.2474 95.5 66.0391 95.5H62.0938ZM63.5938 90.1797V94.2734H66.0703C66.7682 94.2734 67.3177 94.0938 67.7188 93.7344C68.125 93.3698 68.3281 92.8698 68.3281 92.2344C68.3281 90.8646 67.5833 90.1797 66.0938 90.1797H63.5938ZM63.5938 88.9766H65.8594C66.5156 88.9766 67.0391 88.8125 67.4297 88.4844C67.8255 88.1562 68.0234 87.7109 68.0234 87.1484C68.0234 86.5234 67.8411 86.0703 67.4766 85.7891C67.112 85.5026 66.5573 85.3594 65.8125 85.3594H63.5938V88.9766ZM77.9297 96.6797H70.7734V95.5H77.9297V96.6797ZM82.1719 90.2109L80.7812 91.6562V95.5H79.2812V84.125H80.7812V89.75L85.8359 84.125H87.6484L83.1719 89.1484L88 95.5H86.2031L82.1719 90.2109ZM95.7422 90.2422H90.8125V94.2734H96.5391V95.5H89.3125V84.125H96.4609V85.3594H90.8125V89.0156H95.7422V90.2422ZM101.875 89.8359L104.844 84.125H106.547L102.625 91.2578V95.5H101.125V91.2578L97.2031 84.125H98.9219L101.875 89.8359Z" fill="#2097F6"/>
<path d="M28 70.5H138.5V109.5H28C23.8579 109.5 20.5 106.142 20.5 102V78C20.5 73.8579 23.8579 70.5 28 70.5Z" stroke="#2097F6"/>
<path d="M139 70.5H138.5V71V109V109.5H139H375C379.694 109.5 383.5 105.694 383.5 101V79C383.5 74.3056 379.694 70.5 375 70.5H139Z" fill="white"/>
<path d="M167.492 90.6484C167.492 92.3411 167.203 93.599 166.625 94.4219C166.047 95.2448 165.143 95.6562 163.914 95.6562C162.701 95.6562 161.802 95.2552 161.219 94.4531C160.635 93.6458 160.333 92.4427 160.312 90.8438V88.9141C160.312 87.2422 160.602 86 161.18 85.1875C161.758 84.375 162.664 83.9688 163.898 83.9688C165.122 83.9688 166.023 84.362 166.602 85.1484C167.18 85.9297 167.477 87.138 167.492 88.7734V90.6484ZM166.047 88.6719C166.047 87.4479 165.875 86.5573 165.531 86C165.188 85.4375 164.643 85.1562 163.898 85.1562C163.159 85.1562 162.62 85.4349 162.281 85.9922C161.943 86.5495 161.768 87.4062 161.758 88.5625V90.875C161.758 92.1042 161.935 93.013 162.289 93.6016C162.648 94.1849 163.19 94.4766 163.914 94.4766C164.628 94.4766 165.156 94.2005 165.5 93.6484C165.849 93.0964 166.031 92.2266 166.047 91.0391V88.6719ZM172.328 90.1328L174.203 87.0469H175.891L173.125 91.2266L175.977 95.5H174.305L172.352 92.3359L170.398 95.5H168.719L171.57 91.2266L168.805 87.0469H170.477L172.328 90.1328ZM183.383 91.6797H184.961V92.8594H183.383V95.5H181.93V92.8594H176.75V92.0078L181.844 84.125H183.383V91.6797ZM178.391 91.6797H181.93V86.1016L181.758 86.4141L178.391 91.6797ZM189.805 94.4766C190.32 94.4766 190.771 94.3203 191.156 94.0078C191.542 93.6953 191.755 93.3047 191.797 92.8359H193.164C193.138 93.3203 192.971 93.7812 192.664 94.2188C192.357 94.6562 191.945 95.0052 191.43 95.2656C190.919 95.526 190.378 95.6562 189.805 95.6562C188.654 95.6562 187.737 95.2734 187.055 94.5078C186.378 93.737 186.039 92.6849 186.039 91.3516V91.1094C186.039 90.2865 186.19 89.5547 186.492 88.9141C186.794 88.2734 187.227 87.776 187.789 87.4219C188.357 87.0677 189.026 86.8906 189.797 86.8906C190.745 86.8906 191.531 87.1745 192.156 87.7422C192.786 88.3099 193.122 89.0469 193.164 89.9531H191.797C191.755 89.4062 191.547 88.9583 191.172 88.6094C190.802 88.2552 190.344 88.0781 189.797 88.0781C189.062 88.0781 188.492 88.3438 188.086 88.875C187.685 89.401 187.484 90.1641 187.484 91.1641V91.4375C187.484 92.4115 187.685 93.1615 188.086 93.6875C188.487 94.2135 189.06 94.4766 189.805 94.4766ZM195.5 95.5V88.1641H194.164V87.0469H195.5V86.1797C195.5 85.2734 195.742 84.5729 196.227 84.0781C196.711 83.5833 197.396 83.3359 198.281 83.3359C198.615 83.3359 198.945 83.3802 199.273 83.4688L199.195 84.6406C198.951 84.5938 198.69 84.5703 198.414 84.5703C197.945 84.5703 197.583 84.7083 197.328 84.9844C197.073 85.2552 196.945 85.6458 196.945 86.1562V87.0469H198.75V88.1641H196.945V95.5H195.5ZM205.875 84.1172V85.3438H205.609C204.484 85.3646 203.589 85.6979 202.922 86.3438C202.255 86.9896 201.87 87.8984 201.766 89.0703C202.365 88.3828 203.182 88.0391 204.219 88.0391C205.208 88.0391 205.997 88.388 206.586 89.0859C207.18 89.7839 207.477 90.6849 207.477 91.7891C207.477 92.9609 207.156 93.8984 206.516 94.6016C205.88 95.3047 205.026 95.6562 203.953 95.6562C202.865 95.6562 201.982 95.2396 201.305 94.4062C200.628 93.5677 200.289 92.4896 200.289 91.1719V90.6172C200.289 88.5234 200.734 86.9245 201.625 85.8203C202.521 84.7109 203.852 84.1432 205.617 84.1172H205.875ZM203.977 89.2422C203.482 89.2422 203.026 89.3906 202.609 89.6875C202.193 89.9844 201.904 90.3568 201.742 90.8047V91.3359C201.742 92.2734 201.953 93.0286 202.375 93.6016C202.797 94.1745 203.323 94.4609 203.953 94.4609C204.604 94.4609 205.115 94.2214 205.484 93.7422C205.859 93.263 206.047 92.6354 206.047 91.8594C206.047 91.0781 205.857 90.4479 205.477 89.9688C205.102 89.4844 204.602 89.2422 203.977 89.2422ZM216.492 91.3672C216.492 92.6589 216.195 93.6979 215.602 94.4844C215.008 95.2656 214.211 95.6562 213.211 95.6562C212.143 95.6562 211.318 95.2786 210.734 94.5234L210.664 95.5H209.336V83.5H210.781V87.9766C211.365 87.2526 212.169 86.8906 213.195 86.8906C214.221 86.8906 215.026 87.2786 215.609 88.0547C216.198 88.8307 216.492 89.8932 216.492 91.2422V91.3672ZM215.047 91.2031C215.047 90.2188 214.857 89.4583 214.477 88.9219C214.096 88.3854 213.549 88.1172 212.836 88.1172C211.883 88.1172 211.198 88.5599 210.781 89.4453V93.1016C211.224 93.987 211.914 94.4297 212.852 94.4297C213.544 94.4297 214.083 94.1615 214.469 93.625C214.854 93.0885 215.047 92.2812 215.047 91.2031ZM225.625 95.5H218.172V94.4609L222.109 90.0859C222.693 89.4245 223.094 88.888 223.312 88.4766C223.536 88.0599 223.648 87.6302 223.648 87.1875C223.648 86.5938 223.469 86.1068 223.109 85.7266C222.75 85.3464 222.271 85.1562 221.672 85.1562C220.953 85.1562 220.393 85.362 219.992 85.7734C219.596 86.1797 219.398 86.7474 219.398 87.4766H217.953C217.953 86.4297 218.289 85.5833 218.961 84.9375C219.638 84.2917 220.542 83.9688 221.672 83.9688C222.729 83.9688 223.565 84.2474 224.18 84.8047C224.794 85.3568 225.102 86.0938 225.102 87.0156C225.102 88.1354 224.388 89.4688 222.961 91.0156L219.914 94.3203H225.625V95.5ZM230.695 94.4766C231.211 94.4766 231.661 94.3203 232.047 94.0078C232.432 93.6953 232.646 93.3047 232.688 92.8359H234.055C234.029 93.3203 233.862 93.7812 233.555 94.2188C233.247 94.6562 232.836 95.0052 232.32 95.2656C231.81 95.526 231.268 95.6562 230.695 95.6562C229.544 95.6562 228.628 95.2734 227.945 94.5078C227.268 93.737 226.93 92.6849 226.93 91.3516V91.1094C226.93 90.2865 227.081 89.5547 227.383 88.9141C227.685 88.2734 228.117 87.776 228.68 87.4219C229.247 87.0677 229.917 86.8906 230.688 86.8906C231.635 86.8906 232.422 87.1745 233.047 87.7422C233.677 88.3099 234.013 89.0469 234.055 89.9531H232.688C232.646 89.4062 232.438 88.9583 232.062 88.6094C231.693 88.2552 231.234 88.0781 230.688 88.0781C229.953 88.0781 229.383 88.3438 228.977 88.875C228.576 89.401 228.375 90.1641 228.375 91.1641V91.4375C228.375 92.4115 228.576 93.1615 228.977 93.6875C229.378 94.2135 229.951 94.4766 230.695 94.4766ZM242.664 90.6484C242.664 92.3411 242.375 93.599 241.797 94.4219C241.219 95.2448 240.315 95.6562 239.086 95.6562C237.872 95.6562 236.974 95.2552 236.391 94.4531C235.807 93.6458 235.505 92.4427 235.484 90.8438V88.9141C235.484 87.2422 235.773 86 236.352 85.1875C236.93 84.375 237.836 83.9688 239.07 83.9688C240.294 83.9688 241.195 84.362 241.773 85.1484C242.352 85.9297 242.648 87.138 242.664 88.7734V90.6484ZM241.219 88.6719C241.219 87.4479 241.047 86.5573 240.703 86C240.359 85.4375 239.815 85.1562 239.07 85.1562C238.331 85.1562 237.792 85.4349 237.453 85.9922C237.115 86.5495 236.94 87.4062 236.93 88.5625V90.875C236.93 92.1042 237.107 93.013 237.461 93.6016C237.82 94.1849 238.362 94.4766 239.086 94.4766C239.799 94.4766 240.328 94.2005 240.672 93.6484C241.021 93.0964 241.203 92.2266 241.219 91.0391V88.6719ZM251.414 87.0938C251.414 87.6615 251.263 88.1667 250.961 88.6094C250.664 89.0521 250.26 89.3984 249.75 89.6484C250.344 89.9036 250.812 90.276 251.156 90.7656C251.505 91.2552 251.68 91.8099 251.68 92.4297C251.68 93.4141 251.346 94.1979 250.68 94.7812C250.018 95.3646 249.146 95.6562 248.062 95.6562C246.969 95.6562 246.091 95.3646 245.43 94.7812C244.773 94.1927 244.445 93.4089 244.445 92.4297C244.445 91.8151 244.612 91.2604 244.945 90.7656C245.284 90.2708 245.75 89.8958 246.344 89.6406C245.839 89.3906 245.44 89.0443 245.148 88.6016C244.857 88.1589 244.711 87.6562 244.711 87.0938C244.711 86.1354 245.018 85.375 245.633 84.8125C246.247 84.25 247.057 83.9688 248.062 83.9688C249.062 83.9688 249.87 84.25 250.484 84.8125C251.104 85.375 251.414 86.1354 251.414 87.0938ZM250.234 92.3984C250.234 91.763 250.031 91.2448 249.625 90.8438C249.224 90.4427 248.698 90.2422 248.047 90.2422C247.396 90.2422 246.872 90.4401 246.477 90.8359C246.086 91.2318 245.891 91.7526 245.891 92.3984C245.891 93.0443 246.081 93.5521 246.461 93.9219C246.846 94.2917 247.38 94.4766 248.062 94.4766C248.74 94.4766 249.271 94.2917 249.656 93.9219C250.042 93.5469 250.234 93.0391 250.234 92.3984ZM248.062 85.1562C247.495 85.1562 247.034 85.3333 246.68 85.6875C246.331 86.0365 246.156 86.513 246.156 87.1172C246.156 87.6953 246.328 88.1641 246.672 88.5234C247.021 88.8776 247.484 89.0547 248.062 89.0547C248.641 89.0547 249.102 88.8776 249.445 88.5234C249.794 88.1641 249.969 87.6953 249.969 87.1172C249.969 86.5391 249.789 86.0677 249.43 85.7031C249.07 85.3385 248.615 85.1562 248.062 85.1562ZM258.867 95.5C258.784 95.3333 258.716 95.0365 258.664 94.6094C257.992 95.3073 257.19 95.6562 256.258 95.6562C255.424 95.6562 254.74 95.4219 254.203 94.9531C253.672 94.4792 253.406 93.8802 253.406 93.1562C253.406 92.276 253.74 91.5938 254.406 91.1094C255.078 90.6198 256.021 90.375 257.234 90.375H258.641V89.7109C258.641 89.2057 258.49 88.8047 258.188 88.5078C257.885 88.2057 257.44 88.0547 256.852 88.0547C256.336 88.0547 255.904 88.1849 255.555 88.4453C255.206 88.7057 255.031 89.0208 255.031 89.3906H253.578C253.578 88.9688 253.727 88.5625 254.023 88.1719C254.326 87.776 254.732 87.4635 255.242 87.2344C255.758 87.0052 256.323 86.8906 256.938 86.8906C257.911 86.8906 258.674 87.1354 259.227 87.625C259.779 88.1094 260.065 88.7786 260.086 89.6328V93.5234C260.086 94.2995 260.185 94.9167 260.383 95.375V95.5H258.867ZM256.469 94.3984C256.922 94.3984 257.352 94.2812 257.758 94.0469C258.164 93.8125 258.458 93.5078 258.641 93.1328V91.3984H257.508C255.737 91.3984 254.852 91.9167 254.852 92.9531C254.852 93.4062 255.003 93.7604 255.305 94.0156C255.607 94.2708 255.995 94.3984 256.469 94.3984ZM264.305 89.1094H265.391C266.073 89.099 266.609 88.9193 267 88.5703C267.391 88.2214 267.586 87.75 267.586 87.1562C267.586 85.8229 266.922 85.1562 265.594 85.1562C264.969 85.1562 264.469 85.3359 264.094 85.6953C263.724 86.0495 263.539 86.5208 263.539 87.1094H262.094C262.094 86.2083 262.422 85.4609 263.078 84.8672C263.74 84.2682 264.578 83.9688 265.594 83.9688C266.667 83.9688 267.508 84.2526 268.117 84.8203C268.727 85.388 269.031 86.1771 269.031 87.1875C269.031 87.6823 268.87 88.1615 268.547 88.625C268.229 89.0885 267.794 89.4349 267.242 89.6641C267.867 89.862 268.349 90.1901 268.688 90.6484C269.031 91.1068 269.203 91.6667 269.203 92.3281C269.203 93.349 268.87 94.1589 268.203 94.7578C267.536 95.3568 266.669 95.6562 265.602 95.6562C264.534 95.6562 263.664 95.3672 262.992 94.7891C262.326 94.2109 261.992 93.4479 261.992 92.5H263.445C263.445 93.099 263.641 93.5781 264.031 93.9375C264.422 94.2969 264.945 94.4766 265.602 94.4766C266.299 94.4766 266.833 94.2943 267.203 93.9297C267.573 93.5651 267.758 93.0417 267.758 92.3594C267.758 91.6979 267.555 91.1901 267.148 90.8359C266.742 90.4818 266.156 90.2995 265.391 90.2891H264.305V89.1094ZM276.859 84.1172V85.3438H276.594C275.469 85.3646 274.573 85.6979 273.906 86.3438C273.24 86.9896 272.854 87.8984 272.75 89.0703C273.349 88.3828 274.167 88.0391 275.203 88.0391C276.193 88.0391 276.982 88.388 277.57 89.0859C278.164 89.7839 278.461 90.6849 278.461 91.7891C278.461 92.9609 278.141 93.8984 277.5 94.6016C276.865 95.3047 276.01 95.6562 274.938 95.6562C273.849 95.6562 272.966 95.2396 272.289 94.4062C271.612 93.5677 271.273 92.4896 271.273 91.1719V90.6172C271.273 88.5234 271.719 86.9245 272.609 85.8203C273.505 84.7109 274.836 84.1432 276.602 84.1172H276.859ZM274.961 89.2422C274.466 89.2422 274.01 89.3906 273.594 89.6875C273.177 89.9844 272.888 90.3568 272.727 90.8047V91.3359C272.727 92.2734 272.938 93.0286 273.359 93.6016C273.781 94.1745 274.307 94.4609 274.938 94.4609C275.589 94.4609 276.099 94.2214 276.469 93.7422C276.844 93.263 277.031 92.6354 277.031 91.8594C277.031 91.0781 276.841 90.4479 276.461 89.9688C276.086 89.4844 275.586 89.2422 274.961 89.2422ZM287.305 90.6484C287.305 92.3411 287.016 93.599 286.438 94.4219C285.859 95.2448 284.956 95.6562 283.727 95.6562C282.513 95.6562 281.615 95.2552 281.031 94.4531C280.448 93.6458 280.146 92.4427 280.125 90.8438V88.9141C280.125 87.2422 280.414 86 280.992 85.1875C281.57 84.375 282.477 83.9688 283.711 83.9688C284.935 83.9688 285.836 84.362 286.414 85.1484C286.992 85.9297 287.289 87.138 287.305 88.7734V90.6484ZM285.859 88.6719C285.859 87.4479 285.688 86.5573 285.344 86C285 85.4375 284.456 85.1562 283.711 85.1562C282.971 85.1562 282.432 85.4349 282.094 85.9922C281.755 86.5495 281.581 87.4062 281.57 88.5625V90.875C281.57 92.1042 281.747 93.013 282.102 93.6016C282.461 94.1849 283.003 94.4766 283.727 94.4766C284.44 94.4766 284.969 94.2005 285.312 93.6484C285.661 93.0964 285.844 92.2266 285.859 91.0391V88.6719ZM296.5 84.9375L291.789 95.5H290.273L294.969 85.3125H288.812V84.125H296.5V84.9375ZM302.891 95.5H301.438V85.8672L298.523 86.9375V85.625L302.664 84.0703H302.891V95.5ZM310.664 94.4766C311.18 94.4766 311.63 94.3203 312.016 94.0078C312.401 93.6953 312.615 93.3047 312.656 92.8359H314.023C313.997 93.3203 313.831 93.7812 313.523 94.2188C313.216 94.6562 312.805 95.0052 312.289 95.2656C311.779 95.526 311.237 95.6562 310.664 95.6562C309.513 95.6562 308.596 95.2734 307.914 94.5078C307.237 93.737 306.898 92.6849 306.898 91.3516V91.1094C306.898 90.2865 307.049 89.5547 307.352 88.9141C307.654 88.2734 308.086 87.776 308.648 87.4219C309.216 87.0677 309.885 86.8906 310.656 86.8906C311.604 86.8906 312.391 87.1745 313.016 87.7422C313.646 88.3099 313.982 89.0469 314.023 89.9531H312.656C312.615 89.4062 312.406 88.9583 312.031 88.6094C311.661 88.2552 311.203 88.0781 310.656 88.0781C309.922 88.0781 309.352 88.3438 308.945 88.875C308.544 89.401 308.344 90.1641 308.344 91.1641V91.4375C308.344 92.4115 308.544 93.1615 308.945 93.6875C309.346 94.2135 309.919 94.4766 310.664 94.4766ZM321.602 91.6797H323.18V92.8594H321.602V95.5H320.148V92.8594H314.969V92.0078L320.062 84.125H321.602V91.6797ZM316.609 91.6797H320.148V86.1016L319.977 86.4141L316.609 91.6797ZM325.148 89.7969L325.727 84.125H331.555V85.4609H326.953L326.609 88.5625C327.167 88.2344 327.799 88.0703 328.508 88.0703C329.544 88.0703 330.367 88.4141 330.977 89.1016C331.586 89.7839 331.891 90.7083 331.891 91.875C331.891 93.0469 331.573 93.9714 330.938 94.6484C330.307 95.3203 329.424 95.6562 328.289 95.6562C327.284 95.6562 326.464 95.3776 325.828 94.8203C325.193 94.263 324.831 93.4922 324.742 92.5078H326.109C326.198 93.1589 326.43 93.651 326.805 93.9844C327.18 94.3125 327.674 94.4766 328.289 94.4766C328.961 94.4766 329.487 94.2474 329.867 93.7891C330.253 93.3307 330.445 92.6979 330.445 91.8906C330.445 91.1302 330.237 90.5208 329.82 90.0625C329.409 89.599 328.859 89.3672 328.172 89.3672C327.542 89.3672 327.047 89.5052 326.688 89.7812L326.305 90.0938L325.148 89.7969ZM338.836 95.5C338.753 95.3333 338.685 95.0365 338.633 94.6094C337.961 95.3073 337.159 95.6562 336.227 95.6562C335.393 95.6562 334.708 95.4219 334.172 94.9531C333.641 94.4792 333.375 93.8802 333.375 93.1562C333.375 92.276 333.708 91.5938 334.375 91.1094C335.047 90.6198 335.99 90.375 337.203 90.375H338.609V89.7109C338.609 89.2057 338.458 88.8047 338.156 88.5078C337.854 88.2057 337.409 88.0547 336.82 88.0547C336.305 88.0547 335.872 88.1849 335.523 88.4453C335.174 88.7057 335 89.0208 335 89.3906H333.547C333.547 88.9688 333.695 88.5625 333.992 88.1719C334.294 87.776 334.701 87.4635 335.211 87.2344C335.727 87.0052 336.292 86.8906 336.906 86.8906C337.88 86.8906 338.643 87.1354 339.195 87.625C339.747 88.1094 340.034 88.7786 340.055 89.6328V93.5234C340.055 94.2995 340.154 94.9167 340.352 95.375V95.5H338.836ZM336.438 94.3984C336.891 94.3984 337.32 94.2812 337.727 94.0469C338.133 93.8125 338.427 93.5078 338.609 93.1328V91.3984H337.477C335.706 91.3984 334.82 91.9167 334.82 92.9531C334.82 93.4062 334.971 93.7604 335.273 94.0156C335.576 94.2708 335.964 94.3984 336.438 94.3984ZM347.539 95.5C347.456 95.3333 347.388 95.0365 347.336 94.6094C346.664 95.3073 345.862 95.6562 344.93 95.6562C344.096 95.6562 343.411 95.4219 342.875 94.9531C342.344 94.4792 342.078 93.8802 342.078 93.1562C342.078 92.276 342.411 91.5938 343.078 91.1094C343.75 90.6198 344.693 90.375 345.906 90.375H347.312V89.7109C347.312 89.2057 347.161 88.8047 346.859 88.5078C346.557 88.2057 346.112 88.0547 345.523 88.0547C345.008 88.0547 344.576 88.1849 344.227 88.4453C343.878 88.7057 343.703 89.0208 343.703 89.3906H342.25C342.25 88.9688 342.398 88.5625 342.695 88.1719C342.997 87.776 343.404 87.4635 343.914 87.2344C344.43 87.0052 344.995 86.8906 345.609 86.8906C346.583 86.8906 347.346 87.1354 347.898 87.625C348.451 88.1094 348.737 88.7786 348.758 89.6328V93.5234C348.758 94.2995 348.857 94.9167 349.055 95.375V95.5H347.539ZM345.141 94.3984C345.594 94.3984 346.023 94.2812 346.43 94.0469C346.836 93.8125 347.13 93.5078 347.312 93.1328V91.3984H346.18C344.409 91.3984 343.523 91.9167 343.523 92.9531C343.523 93.4062 343.674 93.7604 343.977 94.0156C344.279 94.2708 344.667 94.3984 345.141 94.3984ZM351.055 94.7422C351.055 94.4922 351.128 94.2839 351.273 94.1172C351.424 93.9505 351.648 93.8672 351.945 93.8672C352.242 93.8672 352.466 93.9505 352.617 94.1172C352.773 94.2839 352.852 94.4922 352.852 94.7422C352.852 94.9818 352.773 95.1823 352.617 95.3438C352.466 95.5052 352.242 95.5859 351.945 95.5859C351.648 95.5859 351.424 95.5052 351.273 95.3438C351.128 95.1823 351.055 94.9818 351.055 94.7422ZM355.273 94.7422C355.273 94.4922 355.346 94.2839 355.492 94.1172C355.643 93.9505 355.867 93.8672 356.164 93.8672C356.461 93.8672 356.685 93.9505 356.836 94.1172C356.992 94.2839 357.07 94.4922 357.07 94.7422C357.07 94.9818 356.992 95.1823 356.836 95.3438C356.685 95.5052 356.461 95.5859 356.164 95.5859C355.867 95.5859 355.643 95.5052 355.492 95.3438C355.346 95.1823 355.273 94.9818 355.273 94.7422ZM359.492 94.7422C359.492 94.4922 359.565 94.2839 359.711 94.1172C359.862 93.9505 360.086 93.8672 360.383 93.8672C360.68 93.8672 360.904 93.9505 361.055 94.1172C361.211 94.2839 361.289 94.4922 361.289 94.7422C361.289 94.9818 361.211 95.1823 361.055 95.3438C360.904 95.5052 360.68 95.5859 360.383 95.5859C360.086 95.5859 359.862 95.5052 359.711 95.3438C359.565 95.1823 359.492 94.9818 359.492 94.7422Z" fill="#2097F6"/>
<path d="M139 70.5H138.5V71V109V109.5H139H375C379.694 109.5 383.5 105.694 383.5 101V79C383.5 74.3056 379.694 70.5 375 70.5H139Z" stroke="#2097F6"/>
<path d="M28 120.5H138.5V159.5H28C23.8579 159.5 20.5 156.142 20.5 152V128C20.5 123.858 23.8579 120.5 28 120.5Z" fill="#E7F4FF"/>
<path d="M44.8672 140.43C43.5807 140.06 42.6432 139.607 42.0547 139.07C41.4714 138.529 41.1797 137.862 41.1797 137.07C41.1797 136.174 41.5365 135.435 42.25 134.852C42.9688 134.263 43.901 133.969 45.0469 133.969C45.8281 133.969 46.5234 134.12 47.1328 134.422C47.7474 134.724 48.2214 135.141 48.5547 135.672C48.8932 136.203 49.0625 136.784 49.0625 137.414H47.5547C47.5547 136.727 47.3359 136.188 46.8984 135.797C46.4609 135.401 45.8438 135.203 45.0469 135.203C44.3073 135.203 43.7292 135.367 43.3125 135.695C42.901 136.018 42.6953 136.469 42.6953 137.047C42.6953 137.51 42.8906 137.904 43.2812 138.227C43.6771 138.544 44.3464 138.836 45.2891 139.102C46.237 139.367 46.9766 139.661 47.5078 139.984C48.0443 140.302 48.4401 140.674 48.6953 141.102C48.9557 141.529 49.0859 142.031 49.0859 142.609C49.0859 143.531 48.7266 144.271 48.0078 144.828C47.2891 145.38 46.3281 145.656 45.125 145.656C44.3438 145.656 43.6146 145.508 42.9375 145.211C42.2604 144.909 41.737 144.497 41.3672 143.977C41.0026 143.456 40.8203 142.865 40.8203 142.203H42.3281C42.3281 142.891 42.5807 143.435 43.0859 143.836C43.5964 144.232 44.276 144.43 45.125 144.43C45.9167 144.43 46.5234 144.268 46.9453 143.945C47.3672 143.622 47.5781 143.182 47.5781 142.625C47.5781 142.068 47.3828 141.638 46.9922 141.336C46.6016 141.029 45.8932 140.727 44.8672 140.43ZM52.625 145.5H51.125V134.125H52.625V145.5ZM63.7734 144.008C63.388 144.56 62.849 144.974 62.1562 145.25C61.4688 145.521 60.6667 145.656 59.75 145.656C58.8229 145.656 58 145.44 57.2812 145.008C56.5625 144.57 56.0052 143.951 55.6094 143.148C55.2188 142.346 55.0182 141.417 55.0078 140.359V139.367C55.0078 137.654 55.4062 136.326 56.2031 135.383C57.0052 134.44 58.1302 133.969 59.5781 133.969C60.7656 133.969 61.7214 134.273 62.4453 134.883C63.1693 135.487 63.612 136.346 63.7734 137.461H62.2734C61.9922 135.956 61.0964 135.203 59.5859 135.203C58.5807 135.203 57.8177 135.557 57.2969 136.266C56.7812 136.969 56.5208 137.99 56.5156 139.328V140.258C56.5156 141.534 56.8073 142.549 57.3906 143.305C57.974 144.055 58.763 144.43 59.7578 144.43C60.3203 144.43 60.8125 144.367 61.2344 144.242C61.6562 144.117 62.0052 143.906 62.2812 143.609V141.055H59.6484V139.836H63.7734V144.008ZM75.0234 145.5H73.5156L67.7891 136.734V145.5H66.2812V134.125H67.7891L73.5312 142.93V134.125H75.0234V145.5ZM84.1094 142.531H79.3438L78.2734 145.5H76.7266L81.0703 134.125H82.3828L86.7344 145.5H85.1953L84.1094 142.531ZM79.7969 141.297H83.6641L81.7266 135.977L79.7969 141.297ZM95.1094 135.359H91.4531V145.5H89.9609V135.359H86.3125V134.125H95.1094V135.359ZM104.805 134.125V141.859C104.799 142.932 104.461 143.81 103.789 144.492C103.122 145.174 102.216 145.557 101.07 145.641L100.672 145.656C99.4271 145.656 98.4349 145.32 97.6953 144.648C96.9557 143.977 96.5807 143.052 96.5703 141.875V134.125H98.0547V141.828C98.0547 142.651 98.2812 143.292 98.7344 143.75C99.1875 144.203 99.8333 144.43 100.672 144.43C101.521 144.43 102.169 144.203 102.617 143.75C103.07 143.297 103.297 142.659 103.297 141.836V134.125H104.805ZM111.344 140.898H108.672V145.5H107.164V134.125H110.93C112.211 134.125 113.195 134.417 113.883 135C114.576 135.583 114.922 136.432 114.922 137.547C114.922 138.255 114.729 138.872 114.344 139.398C113.964 139.924 113.432 140.318 112.75 140.578L115.422 145.406V145.5H113.812L111.344 140.898ZM108.672 139.672H110.977C111.721 139.672 112.312 139.479 112.75 139.094C113.193 138.708 113.414 138.193 113.414 137.547C113.414 136.844 113.203 136.305 112.781 135.93C112.365 135.555 111.76 135.365 110.969 135.359H108.672V139.672ZM123.461 140.242H118.531V144.273H124.258V145.5H117.031V134.125H124.18V135.359H118.531V139.016H123.461V140.242Z" fill="#2097F6"/>
<path d="M28 120.5H138.5V159.5H28C23.8579 159.5 20.5 156.142 20.5 152V128C20.5 123.858 23.8579 120.5 28 120.5Z" stroke="#2097F6"/>
<path d="M139 120.5H138.5V121V159V159.5H139H375C379.694 159.5 383.5 155.694 383.5 151V129C383.5 124.306 379.694 120.5 375 120.5H139Z" fill="white"/>
<path d="M162.195 139.109H163.281C163.964 139.099 164.5 138.919 164.891 138.57C165.281 138.221 165.477 137.75 165.477 137.156C165.477 135.823 164.812 135.156 163.484 135.156C162.859 135.156 162.359 135.336 161.984 135.695C161.615 136.049 161.43 136.521 161.43 137.109H159.984C159.984 136.208 160.312 135.461 160.969 134.867C161.63 134.268 162.469 133.969 163.484 133.969C164.557 133.969 165.398 134.253 166.008 134.82C166.617 135.388 166.922 136.177 166.922 137.188C166.922 137.682 166.76 138.161 166.438 138.625C166.12 139.089 165.685 139.435 165.133 139.664C165.758 139.862 166.24 140.19 166.578 140.648C166.922 141.107 167.094 141.667 167.094 142.328C167.094 143.349 166.76 144.159 166.094 144.758C165.427 145.357 164.56 145.656 163.492 145.656C162.424 145.656 161.555 145.367 160.883 144.789C160.216 144.211 159.883 143.448 159.883 142.5H161.336C161.336 143.099 161.531 143.578 161.922 143.938C162.312 144.297 162.836 144.477 163.492 144.477C164.19 144.477 164.724 144.294 165.094 143.93C165.464 143.565 165.648 143.042 165.648 142.359C165.648 141.698 165.445 141.19 165.039 140.836C164.633 140.482 164.047 140.299 163.281 140.289H162.195V139.109ZM176.211 140.648C176.211 142.341 175.922 143.599 175.344 144.422C174.766 145.245 173.862 145.656 172.633 145.656C171.419 145.656 170.521 145.255 169.938 144.453C169.354 143.646 169.052 142.443 169.031 140.844V138.914C169.031 137.242 169.32 136 169.898 135.188C170.477 134.375 171.383 133.969 172.617 133.969C173.841 133.969 174.742 134.362 175.32 135.148C175.898 135.93 176.195 137.138 176.211 138.773V140.648ZM174.766 138.672C174.766 137.448 174.594 136.557 174.25 136C173.906 135.438 173.362 135.156 172.617 135.156C171.878 135.156 171.339 135.435 171 135.992C170.661 136.549 170.487 137.406 170.477 138.562V140.875C170.477 142.104 170.654 143.013 171.008 143.602C171.367 144.185 171.909 144.477 172.633 144.477C173.346 144.477 173.875 144.201 174.219 143.648C174.568 143.096 174.75 142.227 174.766 141.039V138.672ZM184.164 141.68H185.742V142.859H184.164V145.5H182.711V142.859H177.531V142.008L182.625 134.125H184.164V141.68ZM179.172 141.68H182.711V136.102L182.539 136.414L179.172 141.68ZM192.719 134.117V135.344H192.453C191.328 135.365 190.432 135.698 189.766 136.344C189.099 136.99 188.714 137.898 188.609 139.07C189.208 138.383 190.026 138.039 191.062 138.039C192.052 138.039 192.841 138.388 193.43 139.086C194.023 139.784 194.32 140.685 194.32 141.789C194.32 142.961 194 143.898 193.359 144.602C192.724 145.305 191.87 145.656 190.797 145.656C189.708 145.656 188.826 145.24 188.148 144.406C187.471 143.568 187.133 142.49 187.133 141.172V140.617C187.133 138.523 187.578 136.924 188.469 135.82C189.365 134.711 190.695 134.143 192.461 134.117H192.719ZM190.82 139.242C190.326 139.242 189.87 139.391 189.453 139.688C189.036 139.984 188.747 140.357 188.586 140.805V141.336C188.586 142.273 188.797 143.029 189.219 143.602C189.641 144.174 190.167 144.461 190.797 144.461C191.448 144.461 191.958 144.221 192.328 143.742C192.703 143.263 192.891 142.635 192.891 141.859C192.891 141.078 192.701 140.448 192.32 139.969C191.945 139.484 191.445 139.242 190.82 139.242ZM203.164 140.648C203.164 142.341 202.875 143.599 202.297 144.422C201.719 145.245 200.815 145.656 199.586 145.656C198.372 145.656 197.474 145.255 196.891 144.453C196.307 143.646 196.005 142.443 195.984 140.844V138.914C195.984 137.242 196.273 136 196.852 135.188C197.43 134.375 198.336 133.969 199.57 133.969C200.794 133.969 201.695 134.362 202.273 135.148C202.852 135.93 203.148 137.138 203.164 138.773V140.648ZM201.719 138.672C201.719 137.448 201.547 136.557 201.203 136C200.859 135.438 200.315 135.156 199.57 135.156C198.831 135.156 198.292 135.435 197.953 135.992C197.615 136.549 197.44 137.406 197.43 138.562V140.875C197.43 142.104 197.607 143.013 197.961 143.602C198.32 144.185 198.862 144.477 199.586 144.477C200.299 144.477 200.828 144.201 201.172 143.648C201.521 143.096 201.703 142.227 201.719 141.039V138.672ZM212.469 145.5H205.016V144.461L208.953 140.086C209.536 139.424 209.938 138.888 210.156 138.477C210.38 138.06 210.492 137.63 210.492 137.188C210.492 136.594 210.312 136.107 209.953 135.727C209.594 135.346 209.115 135.156 208.516 135.156C207.797 135.156 207.237 135.362 206.836 135.773C206.44 136.18 206.242 136.747 206.242 137.477H204.797C204.797 136.43 205.133 135.583 205.805 134.938C206.482 134.292 207.385 133.969 208.516 133.969C209.573 133.969 210.409 134.247 211.023 134.805C211.638 135.357 211.945 136.094 211.945 137.016C211.945 138.135 211.232 139.469 209.805 141.016L206.758 144.32H212.469V145.5ZM221.453 145.5H214V144.461L217.938 140.086C218.521 139.424 218.922 138.888 219.141 138.477C219.365 138.06 219.477 137.63 219.477 137.188C219.477 136.594 219.297 136.107 218.938 135.727C218.578 135.346 218.099 135.156 217.5 135.156C216.781 135.156 216.221 135.362 215.82 135.773C215.424 136.18 215.227 136.747 215.227 137.477H213.781C213.781 136.43 214.117 135.583 214.789 134.938C215.466 134.292 216.37 133.969 217.5 133.969C218.557 133.969 219.393 134.247 220.008 134.805C220.622 135.357 220.93 136.094 220.93 137.016C220.93 138.135 220.216 139.469 218.789 141.016L215.742 144.32H221.453V145.5ZM227.734 145.5H226.281V135.867L223.367 136.938V135.625L227.508 134.07H227.734V145.5ZM239.102 140.648C239.102 142.341 238.812 143.599 238.234 144.422C237.656 145.245 236.753 145.656 235.523 145.656C234.31 145.656 233.411 145.255 232.828 144.453C232.245 143.646 231.943 142.443 231.922 140.844V138.914C231.922 137.242 232.211 136 232.789 135.188C233.367 134.375 234.273 133.969 235.508 133.969C236.732 133.969 237.633 134.362 238.211 135.148C238.789 135.93 239.086 137.138 239.102 138.773V140.648ZM237.656 138.672C237.656 137.448 237.484 136.557 237.141 136C236.797 135.438 236.253 135.156 235.508 135.156C234.768 135.156 234.229 135.435 233.891 135.992C233.552 136.549 233.378 137.406 233.367 138.562V140.875C233.367 142.104 233.544 143.013 233.898 143.602C234.258 144.185 234.799 144.477 235.523 144.477C236.237 144.477 236.766 144.201 237.109 143.648C237.458 143.096 237.641 142.227 237.656 141.039V138.672ZM248.086 140.648C248.086 142.341 247.797 143.599 247.219 144.422C246.641 145.245 245.737 145.656 244.508 145.656C243.294 145.656 242.396 145.255 241.812 144.453C241.229 143.646 240.927 142.443 240.906 140.844V138.914C240.906 137.242 241.195 136 241.773 135.188C242.352 134.375 243.258 133.969 244.492 133.969C245.716 133.969 246.617 134.362 247.195 135.148C247.773 135.93 248.07 137.138 248.086 138.773V140.648ZM246.641 138.672C246.641 137.448 246.469 136.557 246.125 136C245.781 135.438 245.237 135.156 244.492 135.156C243.753 135.156 243.214 135.435 242.875 135.992C242.536 136.549 242.362 137.406 242.352 138.562V140.875C242.352 142.104 242.529 143.013 242.883 143.602C243.242 144.185 243.784 144.477 244.508 144.477C245.221 144.477 245.75 144.201 246.094 143.648C246.443 143.096 246.625 142.227 246.641 141.039V138.672ZM253.594 145.656C252.448 145.656 251.516 145.281 250.797 144.531C250.078 143.776 249.719 142.768 249.719 141.508V141.242C249.719 140.404 249.878 139.656 250.195 139C250.518 138.339 250.966 137.823 251.539 137.453C252.117 137.078 252.742 136.891 253.414 136.891C254.513 136.891 255.367 137.253 255.977 137.977C256.586 138.701 256.891 139.737 256.891 141.086V141.688H251.164C251.185 142.521 251.427 143.195 251.891 143.711C252.359 144.221 252.953 144.477 253.672 144.477C254.182 144.477 254.615 144.372 254.969 144.164C255.323 143.956 255.633 143.68 255.898 143.336L256.781 144.023C256.073 145.112 255.01 145.656 253.594 145.656ZM253.414 138.078C252.831 138.078 252.341 138.292 251.945 138.719C251.549 139.141 251.305 139.734 251.211 140.5H255.445V140.391C255.404 139.656 255.206 139.089 254.852 138.688C254.497 138.281 254.018 138.078 253.414 138.078ZM265.875 145.5H258.422V144.461L262.359 140.086C262.943 139.424 263.344 138.888 263.562 138.477C263.786 138.06 263.898 137.63 263.898 137.188C263.898 136.594 263.719 136.107 263.359 135.727C263 135.346 262.521 135.156 261.922 135.156C261.203 135.156 260.643 135.362 260.242 135.773C259.846 136.18 259.648 136.747 259.648 137.477H258.203C258.203 136.43 258.539 135.583 259.211 134.938C259.888 134.292 260.792 133.969 261.922 133.969C262.979 133.969 263.815 134.247 264.43 134.805C265.044 135.357 265.352 136.094 265.352 137.016C265.352 138.135 264.638 139.469 263.211 141.016L260.164 144.32H265.875V145.5ZM268.266 145.5V138.164H266.93V137.047H268.266V136.18C268.266 135.273 268.508 134.573 268.992 134.078C269.477 133.583 270.161 133.336 271.047 133.336C271.38 133.336 271.711 133.38 272.039 133.469L271.961 134.641C271.716 134.594 271.456 134.57 271.18 134.57C270.711 134.57 270.349 134.708 270.094 134.984C269.839 135.255 269.711 135.646 269.711 136.156V137.047H271.516V138.164H269.711V145.5H268.266ZM278.508 140.5C278.206 140.859 277.844 141.148 277.422 141.367C277.005 141.586 276.547 141.695 276.047 141.695C275.391 141.695 274.818 141.534 274.328 141.211C273.844 140.888 273.469 140.435 273.203 139.852C272.938 139.263 272.805 138.615 272.805 137.906C272.805 137.146 272.948 136.461 273.234 135.852C273.526 135.242 273.938 134.776 274.469 134.453C275 134.13 275.62 133.969 276.328 133.969C277.453 133.969 278.339 134.391 278.984 135.234C279.635 136.073 279.961 137.219 279.961 138.672V139.094C279.961 141.307 279.523 142.924 278.648 143.945C277.773 144.961 276.453 145.482 274.688 145.508H274.406V144.289H274.711C275.904 144.268 276.82 143.958 277.461 143.359C278.102 142.755 278.451 141.802 278.508 140.5ZM276.281 140.5C276.766 140.5 277.211 140.352 277.617 140.055C278.029 139.758 278.328 139.391 278.516 138.953V138.375C278.516 137.427 278.31 136.656 277.898 136.062C277.487 135.469 276.966 135.172 276.336 135.172C275.701 135.172 275.19 135.417 274.805 135.906C274.419 136.391 274.227 137.031 274.227 137.828C274.227 138.604 274.411 139.245 274.781 139.75C275.156 140.25 275.656 140.5 276.281 140.5ZM281.75 141.203C281.75 139.906 282.057 138.865 282.672 138.078C283.286 137.286 284.091 136.891 285.086 136.891C286.076 136.891 286.859 137.229 287.438 137.906V133.5H288.883V145.5H287.555L287.484 144.594C286.906 145.302 286.102 145.656 285.07 145.656C284.091 145.656 283.292 145.255 282.672 144.453C282.057 143.651 281.75 142.604 281.75 141.312V141.203ZM283.195 141.367C283.195 142.326 283.393 143.076 283.789 143.617C284.185 144.159 284.732 144.43 285.43 144.43C286.346 144.43 287.016 144.018 287.438 143.195V139.312C287.005 138.516 286.341 138.117 285.445 138.117C284.737 138.117 284.185 138.391 283.789 138.938C283.393 139.484 283.195 140.294 283.195 141.367ZM297.883 137.094C297.883 137.661 297.732 138.167 297.43 138.609C297.133 139.052 296.729 139.398 296.219 139.648C296.812 139.904 297.281 140.276 297.625 140.766C297.974 141.255 298.148 141.81 298.148 142.43C298.148 143.414 297.815 144.198 297.148 144.781C296.487 145.365 295.615 145.656 294.531 145.656C293.438 145.656 292.56 145.365 291.898 144.781C291.242 144.193 290.914 143.409 290.914 142.43C290.914 141.815 291.081 141.26 291.414 140.766C291.753 140.271 292.219 139.896 292.812 139.641C292.307 139.391 291.909 139.044 291.617 138.602C291.326 138.159 291.18 137.656 291.18 137.094C291.18 136.135 291.487 135.375 292.102 134.812C292.716 134.25 293.526 133.969 294.531 133.969C295.531 133.969 296.339 134.25 296.953 134.812C297.573 135.375 297.883 136.135 297.883 137.094ZM296.703 142.398C296.703 141.763 296.5 141.245 296.094 140.844C295.693 140.443 295.167 140.242 294.516 140.242C293.865 140.242 293.341 140.44 292.945 140.836C292.555 141.232 292.359 141.753 292.359 142.398C292.359 143.044 292.549 143.552 292.93 143.922C293.315 144.292 293.849 144.477 294.531 144.477C295.208 144.477 295.74 144.292 296.125 143.922C296.51 143.547 296.703 143.039 296.703 142.398ZM294.531 135.156C293.964 135.156 293.503 135.333 293.148 135.688C292.799 136.036 292.625 136.513 292.625 137.117C292.625 137.695 292.797 138.164 293.141 138.523C293.49 138.878 293.953 139.055 294.531 139.055C295.109 139.055 295.57 138.878 295.914 138.523C296.263 138.164 296.438 137.695 296.438 137.117C296.438 136.539 296.258 136.068 295.898 135.703C295.539 135.339 295.083 135.156 294.531 135.156ZM302.07 139.109H303.156C303.839 139.099 304.375 138.919 304.766 138.57C305.156 138.221 305.352 137.75 305.352 137.156C305.352 135.823 304.688 135.156 303.359 135.156C302.734 135.156 302.234 135.336 301.859 135.695C301.49 136.049 301.305 136.521 301.305 137.109H299.859C299.859 136.208 300.188 135.461 300.844 134.867C301.505 134.268 302.344 133.969 303.359 133.969C304.432 133.969 305.273 134.253 305.883 134.82C306.492 135.388 306.797 136.177 306.797 137.188C306.797 137.682 306.635 138.161 306.312 138.625C305.995 139.089 305.56 139.435 305.008 139.664C305.633 139.862 306.115 140.19 306.453 140.648C306.797 141.107 306.969 141.667 306.969 142.328C306.969 143.349 306.635 144.159 305.969 144.758C305.302 145.357 304.435 145.656 303.367 145.656C302.299 145.656 301.43 145.367 300.758 144.789C300.091 144.211 299.758 143.448 299.758 142.5H301.211C301.211 143.099 301.406 143.578 301.797 143.938C302.188 144.297 302.711 144.477 303.367 144.477C304.065 144.477 304.599 144.294 304.969 143.93C305.339 143.565 305.523 143.042 305.523 142.359C305.523 141.698 305.32 141.19 304.914 140.836C304.508 140.482 303.922 140.299 303.156 140.289H302.07V139.109ZM314.32 145.5C314.237 145.333 314.169 145.036 314.117 144.609C313.445 145.307 312.643 145.656 311.711 145.656C310.878 145.656 310.193 145.422 309.656 144.953C309.125 144.479 308.859 143.88 308.859 143.156C308.859 142.276 309.193 141.594 309.859 141.109C310.531 140.62 311.474 140.375 312.688 140.375H314.094V139.711C314.094 139.206 313.943 138.805 313.641 138.508C313.339 138.206 312.893 138.055 312.305 138.055C311.789 138.055 311.357 138.185 311.008 138.445C310.659 138.706 310.484 139.021 310.484 139.391H309.031C309.031 138.969 309.18 138.562 309.477 138.172C309.779 137.776 310.185 137.464 310.695 137.234C311.211 137.005 311.776 136.891 312.391 136.891C313.365 136.891 314.128 137.135 314.68 137.625C315.232 138.109 315.518 138.779 315.539 139.633V143.523C315.539 144.299 315.638 144.917 315.836 145.375V145.5H314.32ZM311.922 144.398C312.375 144.398 312.805 144.281 313.211 144.047C313.617 143.812 313.911 143.508 314.094 143.133V141.398H312.961C311.19 141.398 310.305 141.917 310.305 142.953C310.305 143.406 310.456 143.76 310.758 144.016C311.06 144.271 311.448 144.398 311.922 144.398ZM317.453 141.203C317.453 139.906 317.76 138.865 318.375 138.078C318.99 137.286 319.794 136.891 320.789 136.891C321.779 136.891 322.562 137.229 323.141 137.906V133.5H324.586V145.5H323.258L323.188 144.594C322.609 145.302 321.805 145.656 320.773 145.656C319.794 145.656 318.995 145.255 318.375 144.453C317.76 143.651 317.453 142.604 317.453 141.312V141.203ZM318.898 141.367C318.898 142.326 319.096 143.076 319.492 143.617C319.888 144.159 320.435 144.43 321.133 144.43C322.049 144.43 322.719 144.018 323.141 143.195V139.312C322.708 138.516 322.044 138.117 321.148 138.117C320.44 138.117 319.888 138.391 319.492 138.938C319.096 139.484 318.898 140.294 318.898 141.367ZM334.141 145.5H326.688V144.461L330.625 140.086C331.208 139.424 331.609 138.888 331.828 138.477C332.052 138.06 332.164 137.63 332.164 137.188C332.164 136.594 331.984 136.107 331.625 135.727C331.266 135.346 330.786 135.156 330.188 135.156C329.469 135.156 328.909 135.362 328.508 135.773C328.112 136.18 327.914 136.747 327.914 137.477H326.469C326.469 136.43 326.805 135.583 327.477 134.938C328.154 134.292 329.057 133.969 330.188 133.969C331.245 133.969 332.081 134.247 332.695 134.805C333.31 135.357 333.617 136.094 333.617 137.016C333.617 138.135 332.904 139.469 331.477 141.016L328.43 144.32H334.141V145.5ZM337.773 139.109H338.859C339.542 139.099 340.078 138.919 340.469 138.57C340.859 138.221 341.055 137.75 341.055 137.156C341.055 135.823 340.391 135.156 339.062 135.156C338.438 135.156 337.938 135.336 337.562 135.695C337.193 136.049 337.008 136.521 337.008 137.109H335.562C335.562 136.208 335.891 135.461 336.547 134.867C337.208 134.268 338.047 133.969 339.062 133.969C340.135 133.969 340.977 134.253 341.586 134.82C342.195 135.388 342.5 136.177 342.5 137.188C342.5 137.682 342.339 138.161 342.016 138.625C341.698 139.089 341.263 139.435 340.711 139.664C341.336 139.862 341.818 140.19 342.156 140.648C342.5 141.107 342.672 141.667 342.672 142.328C342.672 143.349 342.339 144.159 341.672 144.758C341.005 145.357 340.138 145.656 339.07 145.656C338.003 145.656 337.133 145.367 336.461 144.789C335.794 144.211 335.461 143.448 335.461 142.5H336.914C336.914 143.099 337.109 143.578 337.5 143.938C337.891 144.297 338.414 144.477 339.07 144.477C339.768 144.477 340.302 144.294 340.672 143.93C341.042 143.565 341.227 143.042 341.227 142.359C341.227 141.698 341.023 141.19 340.617 140.836C340.211 140.482 339.625 140.299 338.859 140.289H337.773V139.109ZM348.312 145.656C347.167 145.656 346.234 145.281 345.516 144.531C344.797 143.776 344.438 142.768 344.438 141.508V141.242C344.438 140.404 344.596 139.656 344.914 139C345.237 138.339 345.685 137.823 346.258 137.453C346.836 137.078 347.461 136.891 348.133 136.891C349.232 136.891 350.086 137.253 350.695 137.977C351.305 138.701 351.609 139.737 351.609 141.086V141.688H345.883C345.904 142.521 346.146 143.195 346.609 143.711C347.078 144.221 347.672 144.477 348.391 144.477C348.901 144.477 349.333 144.372 349.688 144.164C350.042 143.956 350.352 143.68 350.617 143.336L351.5 144.023C350.792 145.112 349.729 145.656 348.312 145.656ZM348.133 138.078C347.549 138.078 347.06 138.292 346.664 138.719C346.268 139.141 346.023 139.734 345.93 140.5H350.164V140.391C350.122 139.656 349.924 139.089 349.57 138.688C349.216 138.281 348.737 138.078 348.133 138.078ZM353.32 144.742C353.32 144.492 353.393 144.284 353.539 144.117C353.69 143.951 353.914 143.867 354.211 143.867C354.508 143.867 354.732 143.951 354.883 144.117C355.039 144.284 355.117 144.492 355.117 144.742C355.117 144.982 355.039 145.182 354.883 145.344C354.732 145.505 354.508 145.586 354.211 145.586C353.914 145.586 353.69 145.505 353.539 145.344C353.393 145.182 353.32 144.982 353.32 144.742ZM357.539 144.742C357.539 144.492 357.612 144.284 357.758 144.117C357.909 143.951 358.133 143.867 358.43 143.867C358.727 143.867 358.951 143.951 359.102 144.117C359.258 144.284 359.336 144.492 359.336 144.742C359.336 144.982 359.258 145.182 359.102 145.344C358.951 145.505 358.727 145.586 358.43 145.586C358.133 145.586 357.909 145.505 357.758 145.344C357.612 145.182 357.539 144.982 357.539 144.742ZM361.758 144.742C361.758 144.492 361.831 144.284 361.977 144.117C362.128 143.951 362.352 143.867 362.648 143.867C362.945 143.867 363.169 143.951 363.32 144.117C363.477 144.284 363.555 144.492 363.555 144.742C363.555 144.982 363.477 145.182 363.32 145.344C363.169 145.505 362.945 145.586 362.648 145.586C362.352 145.586 362.128 145.505 361.977 145.344C361.831 145.182 361.758 144.982 361.758 144.742Z" fill="#2097F6"/>
<path d="M139 120.5H138.5V121V159V159.5H139H375C379.694 159.5 383.5 155.694 383.5 151V129C383.5 124.306 379.694 120.5 375 120.5H139Z" stroke="#2097F6"/>
<path d="M44.9141 190.43C43.6276 190.06 42.6901 189.607 42.1016 189.07C41.5182 188.529 41.2266 187.862 41.2266 187.07C41.2266 186.174 41.5833 185.435 42.2969 184.852C43.0156 184.263 43.9479 183.969 45.0938 183.969C45.875 183.969 46.5703 184.12 47.1797 184.422C47.7943 184.724 48.2682 185.141 48.6016 185.672C48.9401 186.203 49.1094 186.784 49.1094 187.414H47.6016C47.6016 186.727 47.3828 186.188 46.9453 185.797C46.5078 185.401 45.8906 185.203 45.0938 185.203C44.3542 185.203 43.776 185.367 43.3594 185.695C42.9479 186.018 42.7422 186.469 42.7422 187.047C42.7422 187.51 42.9375 187.904 43.3281 188.227C43.724 188.544 44.3932 188.836 45.3359 189.102C46.2839 189.367 47.0234 189.661 47.5547 189.984C48.0911 190.302 48.487 190.674 48.7422 191.102C49.0026 191.529 49.1328 192.031 49.1328 192.609C49.1328 193.531 48.7734 194.271 48.0547 194.828C47.3359 195.38 46.375 195.656 45.1719 195.656C44.3906 195.656 43.6615 195.508 42.9844 195.211C42.3073 194.909 41.7839 194.497 41.4141 193.977C41.0495 193.456 40.8672 192.865 40.8672 192.203H42.375C42.375 192.891 42.6276 193.435 43.1328 193.836C43.6432 194.232 44.3229 194.43 45.1719 194.43C45.9635 194.43 46.5703 194.268 46.9922 193.945C47.4141 193.622 47.625 193.182 47.625 192.625C47.625 192.068 47.4297 191.638 47.0391 191.336C46.6484 191.029 45.9401 190.727 44.9141 190.43ZM52.6719 195.5H51.1719V184.125H52.6719V195.5ZM63.8203 194.008C63.4349 194.56 62.8958 194.974 62.2031 195.25C61.5156 195.521 60.7135 195.656 59.7969 195.656C58.8698 195.656 58.0469 195.44 57.3281 195.008C56.6094 194.57 56.0521 193.951 55.6562 193.148C55.2656 192.346 55.0651 191.417 55.0547 190.359V189.367C55.0547 187.654 55.4531 186.326 56.25 185.383C57.0521 184.44 58.1771 183.969 59.625 183.969C60.8125 183.969 61.7682 184.273 62.4922 184.883C63.2161 185.487 63.6589 186.346 63.8203 187.461H62.3203C62.0391 185.956 61.1432 185.203 59.6328 185.203C58.6276 185.203 57.8646 185.557 57.3438 186.266C56.8281 186.969 56.5677 187.99 56.5625 189.328V190.258C56.5625 191.534 56.8542 192.549 57.4375 193.305C58.0208 194.055 58.8099 194.43 59.8047 194.43C60.3672 194.43 60.8594 194.367 61.2812 194.242C61.7031 194.117 62.0521 193.906 62.3281 193.609V191.055H59.6953V189.836H63.8203V194.008ZM75.0703 195.5H73.5625L67.8359 186.734V195.5H66.3281V184.125H67.8359L73.5781 192.93V184.125H75.0703V195.5ZM84.1641 190.242H79.2344V194.273H84.9609V195.5H77.7344V184.125H84.8828V185.359H79.2344V189.016H84.1641V190.242ZM86.8281 195.5V184.125H90.0391C91.0286 184.125 91.9036 184.344 92.6641 184.781C93.4245 185.219 94.0104 185.841 94.4219 186.648C94.8385 187.456 95.0495 188.383 95.0547 189.43V190.156C95.0547 191.229 94.8464 192.169 94.4297 192.977C94.0182 193.784 93.4271 194.404 92.6562 194.836C91.8906 195.268 90.9974 195.49 89.9766 195.5H86.8281ZM88.3281 185.359V194.273H89.9062C91.0625 194.273 91.9609 193.914 92.6016 193.195C93.2474 192.477 93.5703 191.453 93.5703 190.125V189.461C93.5703 188.169 93.2656 187.167 92.6562 186.453C92.0521 185.734 91.1927 185.37 90.0781 185.359H88.3281ZM101.297 195.5V184.125H105.016C106.25 184.125 107.177 184.38 107.797 184.891C108.422 185.401 108.734 186.156 108.734 187.156C108.734 187.688 108.583 188.159 108.281 188.57C107.979 188.977 107.568 189.292 107.047 189.516C107.661 189.688 108.146 190.016 108.5 190.5C108.859 190.979 109.039 191.552 109.039 192.219C109.039 193.24 108.708 194.042 108.047 194.625C107.385 195.208 106.451 195.5 105.242 195.5H101.297ZM102.797 190.18V194.273H105.273C105.971 194.273 106.521 194.094 106.922 193.734C107.328 193.37 107.531 192.87 107.531 192.234C107.531 190.865 106.786 190.18 105.297 190.18H102.797ZM102.797 188.977H105.062C105.719 188.977 106.242 188.812 106.633 188.484C107.029 188.156 107.227 187.711 107.227 187.148C107.227 186.523 107.044 186.07 106.68 185.789C106.315 185.503 105.76 185.359 105.016 185.359H102.797V188.977ZM114.297 189.836L117.266 184.125H118.969L115.047 191.258V195.5H113.547V191.258L109.625 184.125H111.344L114.297 189.836ZM125.906 191.047V195.5H124.406V184.125H128.602C129.846 184.125 130.82 184.443 131.523 185.078C132.232 185.714 132.586 186.555 132.586 187.602C132.586 188.706 132.24 189.557 131.547 190.156C130.859 190.75 129.872 191.047 128.586 191.047H125.906ZM125.906 189.82H128.602C129.404 189.82 130.018 189.633 130.445 189.258C130.872 188.878 131.086 188.331 131.086 187.617C131.086 186.94 130.872 186.398 130.445 185.992C130.018 185.586 129.432 185.375 128.688 185.359H125.906V189.82ZM138.672 190.898H136V195.5H134.492V184.125H138.258C139.539 184.125 140.523 184.417 141.211 185C141.904 185.583 142.25 186.432 142.25 187.547C142.25 188.255 142.057 188.872 141.672 189.398C141.292 189.924 140.76 190.318 140.078 190.578L142.75 195.406V195.5H141.141L138.672 190.898ZM136 189.672H138.305C139.049 189.672 139.641 189.479 140.078 189.094C140.521 188.708 140.742 188.193 140.742 187.547C140.742 186.844 140.531 186.305 140.109 185.93C139.693 185.555 139.089 185.365 138.297 185.359H136V189.672ZM145.969 195.5H144.469V184.125H145.969V195.5ZM152.484 193.508L155.734 184.125H157.375L153.156 195.5H151.828L147.617 184.125H149.25L152.484 193.508ZM164.594 192.531H159.828L158.758 195.5H157.211L161.555 184.125H162.867L167.219 195.5H165.68L164.594 192.531ZM160.281 191.297H164.148L162.211 185.977L160.281 191.297ZM175.594 185.359H171.938V195.5H170.445V185.359H166.797V184.125H175.594V185.359ZM183.711 190.242H178.781V194.273H184.508V195.5H177.281V184.125H184.43V185.359H178.781V189.016H183.711V190.242ZM193.234 190.211L191.844 191.656V195.5H190.344V184.125H191.844V189.75L196.898 184.125H198.711L194.234 189.148L199.062 195.5H197.266L193.234 190.211ZM206.805 190.242H201.875V194.273H207.602V195.5H200.375V184.125H207.523V185.359H201.875V189.016H206.805V190.242ZM212.938 189.836L215.906 184.125H217.609L213.688 191.258V195.5H212.188V191.258L208.266 184.125H209.984L212.938 189.836Z" fill="#2097F6"/>
<path d="M375 170.5H306C301.306 170.5 297.5 174.306 297.5 179V201C297.5 205.694 301.306 209.5 306 209.5H375C379.694 209.5 383.5 205.694 383.5 201V179C383.5 174.306 379.694 170.5 375 170.5Z" fill="#FEEBEA"/>
<path d="M326.016 190.477H321.242V195.5H319.742V184.125H326.789V185.359H321.242V189.25H326.016V190.477ZM333.539 192.531H328.773L327.703 195.5H326.156L330.5 184.125H331.812L336.164 195.5H334.625L333.539 192.531ZM329.227 191.297H333.094L331.156 185.977L329.227 191.297ZM339.203 194.273H344.594V195.5H337.695V184.125H339.203V194.273ZM349.656 190.43C348.37 190.06 347.432 189.607 346.844 189.07C346.26 188.529 345.969 187.862 345.969 187.07C345.969 186.174 346.326 185.435 347.039 184.852C347.758 184.263 348.69 183.969 349.836 183.969C350.617 183.969 351.312 184.12 351.922 184.422C352.536 184.724 353.01 185.141 353.344 185.672C353.682 186.203 353.852 186.784 353.852 187.414H352.344C352.344 186.727 352.125 186.188 351.688 185.797C351.25 185.401 350.633 185.203 349.836 185.203C349.096 185.203 348.518 185.367 348.102 185.695C347.69 186.018 347.484 186.469 347.484 187.047C347.484 187.51 347.68 187.904 348.07 188.227C348.466 188.544 349.135 188.836 350.078 189.102C351.026 189.367 351.766 189.661 352.297 189.984C352.833 190.302 353.229 190.674 353.484 191.102C353.745 191.529 353.875 192.031 353.875 192.609C353.875 193.531 353.516 194.271 352.797 194.828C352.078 195.38 351.117 195.656 349.914 195.656C349.133 195.656 348.404 195.508 347.727 195.211C347.049 194.909 346.526 194.497 346.156 193.977C345.792 193.456 345.609 192.865 345.609 192.203H347.117C347.117 192.891 347.37 193.435 347.875 193.836C348.385 194.232 349.065 194.43 349.914 194.43C350.706 194.43 351.312 194.268 351.734 193.945C352.156 193.622 352.367 193.182 352.367 192.625C352.367 192.068 352.172 191.638 351.781 191.336C351.391 191.029 350.682 190.727 349.656 190.43ZM362.234 190.242H357.305V194.273H363.031V195.5H355.805V184.125H362.953V185.359H357.305V189.016H362.234V190.242Z" fill="#DE1306"/>
<path d="M375 170.5H306C301.306 170.5 297.5 174.306 297.5 179V201C297.5 205.694 301.306 209.5 306 209.5H375C379.694 209.5 383.5 205.694 383.5 201V179C383.5 174.306 379.694 170.5 375 170.5Z" stroke="#DE1306"/>
<rect x="0.5" y="0.5" width="399" height="229" rx="7.5" stroke="#2097F6"/>
</g>
<defs>
<filter id="filter0_d" x="0" y="0" width="404" height="234" filterUnits="userSpaceOnUse" color-interpolation-filters="sRGB">
<feFlood flood-opacity="0" result="BackgroundImageFix"/>
<feColorMatrix in="SourceAlpha" type="matrix" values="0 0 0 0 0 0 0 0 0 0 0 0 0 0 0 0 0 0 127 0"/>
<feOffset dx="4" dy="4"/>
<feColorMatrix type="matrix" values="0 0 0 0 0.513733 0 0 0 0 0.767915 0 0 0 0 0.970833 0 0 0 1 0"/>
<feBlend mode="normal" in2="BackgroundImageFix" result="effect1_dropShadow"/>
<feBlend mode="normal" in="SourceGraphic" in2="effect1_dropShadow" result="shape"/>
</filter>
</defs>
</svg>
