<svg width="634" height="67" viewBox="0 0 634 67" fill="none" xmlns="http://www.w3.org/2000/svg">
<line x1="255" y1="39.5" x2="389" y2="39.5" stroke="#65BF73" stroke-width="2"/>
<path d="M379 30L389.5 39.5L379 48.5" stroke="#65BF73" stroke-width="2" stroke-linecap="round" stroke-linejoin="round"/>
<circle cx="250.5" cy="40" r="5.5" stroke="#65BF73" stroke-width="2"/>
<path d="M289.523 23.4219H294.688V25H287.547V13.625H289.523V23.4219ZM302.852 19.9219H298.18V23.4219H303.641V25H296.203V13.625H303.586V15.2188H298.18V18.3594H302.852V19.9219ZM311.805 20.1797H307.227V25H305.25V13.625H312.477V15.2188H307.227V18.6016H311.805V20.1797ZM322.422 15.2188H318.875V25H316.914V15.2188H313.398V13.625H322.422V15.2188ZM329.273 25H327.375V16.5469H329.273V25ZM327.258 14.3516C327.258 14.0599 327.349 13.8177 327.531 13.625C327.719 13.4323 327.984 13.3359 328.328 13.3359C328.672 13.3359 328.938 13.4323 329.125 13.625C329.312 13.8177 329.406 14.0599 329.406 14.3516C329.406 14.638 329.312 14.8776 329.125 15.0703C328.938 15.2578 328.672 15.3516 328.328 15.3516C327.984 15.3516 327.719 15.2578 327.531 15.0703C327.349 14.8776 327.258 14.638 327.258 14.3516ZM333.109 16.5469L333.164 17.5234C333.789 16.7682 334.609 16.3906 335.625 16.3906C337.385 16.3906 338.281 17.3984 338.312 19.4141V25H336.414V19.5234C336.414 18.987 336.297 18.5911 336.062 18.3359C335.833 18.0755 335.456 17.9453 334.93 17.9453C334.164 17.9453 333.594 18.2917 333.219 18.9844V25H331.32V16.5469H333.109ZM342.633 14.4922V16.5469H344.125V17.9531H342.633V22.6719C342.633 22.9948 342.695 23.2292 342.82 23.375C342.951 23.5156 343.18 23.5859 343.508 23.5859C343.727 23.5859 343.948 23.5599 344.172 23.5078V24.9766C343.74 25.0964 343.323 25.1562 342.922 25.1562C341.464 25.1562 340.734 24.3516 340.734 22.7422V17.9531H339.344V16.5469H340.734V14.4922H342.633Z" fill="#65BF73"/>
<g filter="url(#filter0_d)">
<path d="M401 8C401 3.58172 404.582 0 409 0H622C626.418 0 630 3.58172 630 8V40H401V8Z" fill="white"/>
<path d="M409 0.5H622C626.142 0.5 629.5 3.85787 629.5 8V39.5H401.5V8C401.5 3.85786 404.858 0.5 409 0.5Z" stroke="#5452F6"/>
</g>
<g filter="url(#filter1_d)">
<path d="M401 39H630V55C630 59.4183 626.418 63 622 63H409C404.582 63 401 59.4183 401 55V39Z" fill="#EEEEFF"/>
<path d="M401.5 39.5H629.5V55C629.5 59.1421 626.142 62.5 622 62.5H409C404.858 62.5 401.5 59.1421 401.5 55V39.5Z" stroke="#5452F6"/>
</g>
<path d="M468.32 19.6094C468.32 20.724 468.128 21.7031 467.742 22.5469C467.357 23.3854 466.805 24.0312 466.086 24.4844C465.372 24.9323 464.549 25.1562 463.617 25.1562C462.695 25.1562 461.872 24.9323 461.148 24.4844C460.43 24.0312 459.872 23.388 459.477 22.5547C459.086 21.7214 458.888 20.7604 458.883 19.6719V19.0312C458.883 17.9219 459.078 16.9427 459.469 16.0938C459.865 15.2448 460.419 14.5964 461.133 14.1484C461.852 13.6953 462.674 13.4688 463.602 13.4688C464.529 13.4688 465.349 13.6927 466.062 14.1406C466.781 14.5833 467.336 15.224 467.727 16.0625C468.117 16.8958 468.315 17.8672 468.32 18.9766V19.6094ZM466.344 19.0156C466.344 17.7552 466.104 16.7891 465.625 16.1172C465.151 15.4453 464.477 15.1094 463.602 15.1094C462.747 15.1094 462.078 15.4453 461.594 16.1172C461.115 16.7839 460.87 17.7292 460.859 18.9531V19.6094C460.859 20.8594 461.102 21.8255 461.586 22.5078C462.076 23.1901 462.753 23.5312 463.617 23.5312C464.492 23.5312 465.164 23.1979 465.633 22.5312C466.107 21.8646 466.344 20.8906 466.344 19.6094V19.0156ZM474.469 20.6172H472.266V25H470.289V13.625H474.289C475.602 13.625 476.615 13.9193 477.328 14.5078C478.042 15.0964 478.398 15.9479 478.398 17.0625C478.398 17.8229 478.214 18.4609 477.844 18.9766C477.479 19.487 476.969 19.8802 476.312 20.1562L478.867 24.8984V25H476.75L474.469 20.6172ZM472.266 19.0312H474.297C474.964 19.0312 475.484 18.8646 475.859 18.5312C476.234 18.1927 476.422 17.7318 476.422 17.1484C476.422 16.5391 476.247 16.0677 475.898 15.7344C475.555 15.401 475.039 15.2292 474.352 15.2188H472.266V19.0312ZM484.102 20.375C484.102 19.1719 484.263 18.0312 484.586 16.9531C484.909 15.8698 485.383 14.9036 486.008 14.0547C486.633 13.2005 487.294 12.6016 487.992 12.2578L488.367 13.3672C487.633 13.9245 487.036 14.776 486.578 15.9219C486.125 17.0625 485.878 18.3698 485.836 19.8438L485.828 20.5156C485.828 22.0938 486.049 23.5026 486.492 24.7422C486.94 25.9766 487.565 26.9167 488.367 27.5625L487.992 28.6172C487.294 28.2734 486.63 27.6719 486 26.8125C485.375 25.9583 484.901 24.9948 484.578 23.9219C484.26 22.8438 484.102 21.6615 484.102 20.375ZM491.672 25H489.773V16.5469H491.672V25ZM489.656 14.3516C489.656 14.0599 489.747 13.8177 489.93 13.625C490.117 13.4323 490.383 13.3359 490.727 13.3359C491.07 13.3359 491.336 13.4323 491.523 13.625C491.711 13.8177 491.805 14.0599 491.805 14.3516C491.805 14.638 491.711 14.8776 491.523 15.0703C491.336 15.2578 491.07 15.3516 490.727 15.3516C490.383 15.3516 490.117 15.2578 489.93 15.0703C489.747 14.8776 489.656 14.638 489.656 14.3516ZM495.508 16.5469L495.562 17.5234C496.188 16.7682 497.008 16.3906 498.023 16.3906C499.784 16.3906 500.68 17.3984 500.711 19.4141V25H498.812V19.5234C498.812 18.987 498.695 18.5911 498.461 18.3359C498.232 18.0755 497.854 17.9453 497.328 17.9453C496.562 17.9453 495.992 18.2917 495.617 18.9844V25H493.719V16.5469H495.508ZM505.031 14.4922V16.5469H506.523V17.9531H505.031V22.6719C505.031 22.9948 505.094 23.2292 505.219 23.375C505.349 23.5156 505.578 23.5859 505.906 23.5859C506.125 23.5859 506.346 23.5599 506.57 23.5078V24.9766C506.138 25.0964 505.721 25.1562 505.32 25.1562C503.862 25.1562 503.133 24.3516 503.133 22.7422V17.9531H501.742V16.5469H503.133V14.4922H505.031ZM511.641 20.5C511.641 21.6562 511.482 22.7734 511.164 23.8516C510.846 24.9245 510.365 25.901 509.719 26.7812C509.073 27.6667 508.398 28.2786 507.695 28.6172L507.32 27.5625C508.102 26.9583 508.719 26.0365 509.172 24.7969C509.63 23.5521 509.859 22.1328 509.859 20.5391V20.3594C509.859 18.9115 509.661 17.5938 509.266 16.4062C508.87 15.2135 508.302 14.2578 507.562 13.5391L507.32 13.3203L507.695 12.2578C508.362 12.5807 509.008 13.1536 509.633 13.9766C510.258 14.7995 510.737 15.7214 511.07 16.7422C511.404 17.7578 511.591 18.8073 511.633 19.8906L511.641 20.5ZM517.633 20.375C517.633 19.1719 517.794 18.0312 518.117 16.9531C518.44 15.8698 518.914 14.9036 519.539 14.0547C520.164 13.2005 520.826 12.6016 521.523 12.2578L521.898 13.3672C521.164 13.9245 520.568 14.776 520.109 15.9219C519.656 17.0625 519.409 18.3698 519.367 19.8438L519.359 20.5156C519.359 22.0938 519.581 23.5026 520.023 24.7422C520.471 25.9766 521.096 26.9167 521.898 27.5625L521.523 28.6172C520.826 28.2734 520.161 27.6719 519.531 26.8125C518.906 25.9583 518.432 24.9948 518.109 23.9219C517.792 22.8438 517.633 21.6615 517.633 20.375ZM524.945 16.5469L525 17.5234C525.625 16.7682 526.445 16.3906 527.461 16.3906C529.221 16.3906 530.117 17.3984 530.148 19.4141V25H528.25V19.5234C528.25 18.987 528.133 18.5911 527.898 18.3359C527.669 18.0755 527.292 17.9453 526.766 17.9453C526 17.9453 525.43 18.2917 525.055 18.9844V25H523.156V16.5469H524.945ZM537.141 25C537.057 24.8385 536.984 24.5755 536.922 24.2109C536.318 24.8411 535.578 25.1562 534.703 25.1562C533.854 25.1562 533.161 24.9141 532.625 24.4297C532.089 23.9453 531.82 23.3464 531.82 22.6328C531.82 21.7318 532.154 21.0417 532.82 20.5625C533.492 20.0781 534.451 19.8359 535.695 19.8359H536.859V19.2812C536.859 18.8438 536.737 18.4948 536.492 18.2344C536.247 17.9688 535.875 17.8359 535.375 17.8359C534.943 17.8359 534.589 17.9453 534.312 18.1641C534.036 18.3776 533.898 18.651 533.898 18.9844H532C532 18.5208 532.154 18.0885 532.461 17.6875C532.768 17.2812 533.185 16.9635 533.711 16.7344C534.242 16.5052 534.833 16.3906 535.484 16.3906C536.474 16.3906 537.263 16.6406 537.852 17.1406C538.44 17.6354 538.742 18.3333 538.758 19.2344V23.0469C538.758 23.8073 538.865 24.4141 539.078 24.8672V25H537.141ZM535.055 23.6328C535.43 23.6328 535.781 23.5417 536.109 23.3594C536.443 23.1771 536.693 22.9323 536.859 22.625V21.0312H535.836C535.133 21.0312 534.604 21.1536 534.25 21.3984C533.896 21.6432 533.719 21.9896 533.719 22.4375C533.719 22.8021 533.839 23.0938 534.078 23.3125C534.323 23.526 534.648 23.6328 535.055 23.6328ZM543.125 14.4922V16.5469H544.617V17.9531H543.125V22.6719C543.125 22.9948 543.188 23.2292 543.312 23.375C543.443 23.5156 543.672 23.5859 544 23.5859C544.219 23.5859 544.44 23.5599 544.664 23.5078V24.9766C544.232 25.0964 543.815 25.1562 543.414 25.1562C541.956 25.1562 541.227 24.3516 541.227 22.7422V17.9531H539.836V16.5469H541.227V14.4922H543.125ZM556.359 20.9453H557.773V22.4688H556.359V25H554.461V22.4688H549.547L549.492 21.3125L554.398 13.625H556.359V20.9453ZM551.484 20.9453H554.461V16.1953L554.32 16.4453L551.484 20.9453ZM566.68 25H559.031V23.6953L562.82 19.5625C563.367 18.9531 563.755 18.4453 563.984 18.0391C564.219 17.6276 564.336 17.2161 564.336 16.8047C564.336 16.263 564.182 15.8255 563.875 15.4922C563.573 15.1589 563.164 14.9922 562.648 14.9922C562.034 14.9922 561.557 15.1797 561.219 15.5547C560.88 15.9297 560.711 16.4427 560.711 17.0938H558.812C558.812 16.401 558.969 15.7786 559.281 15.2266C559.599 14.6693 560.049 14.237 560.633 13.9297C561.221 13.6224 561.898 13.4688 562.664 13.4688C563.768 13.4688 564.638 13.7474 565.273 14.3047C565.914 14.8568 566.234 15.6224 566.234 16.6016C566.234 17.1693 566.073 17.7656 565.75 18.3906C565.432 19.0104 564.909 19.7161 564.18 20.5078L561.398 23.4844H566.68V25ZM571.906 20.5C571.906 21.6562 571.747 22.7734 571.43 23.8516C571.112 24.9245 570.63 25.901 569.984 26.7812C569.339 27.6667 568.664 28.2786 567.961 28.6172L567.586 27.5625C568.367 26.9583 568.984 26.0365 569.438 24.7969C569.896 23.5521 570.125 22.1328 570.125 20.5391V20.3594C570.125 18.9115 569.927 17.5938 569.531 16.4062C569.135 15.2135 568.568 14.2578 567.828 13.5391L567.586 13.3203L567.961 12.2578C568.628 12.5807 569.273 13.1536 569.898 13.9766C570.523 14.7995 571.003 15.7214 571.336 16.7422C571.669 17.7578 571.857 18.8073 571.898 19.8906L571.906 20.5Z" fill="#5452F6"/>
<g filter="url(#filter2_d)">
<path d="M0 8C0 3.58172 3.58172 0 8 0H221C225.418 0 229 3.58172 229 8V40H0V8Z" fill="white"/>
<path d="M8 0.5H221C225.142 0.5 228.5 3.85787 228.5 8V39.5H0.5V8C0.5 3.85786 3.85786 0.5 8 0.5Z" stroke="#5452F6"/>
</g>
<g filter="url(#filter3_d)">
<path d="M0 39H229V55C229 59.4183 225.418 63 221 63H8.00001C3.58173 63 0 59.4183 0 55V39Z" fill="#EEEEFF"/>
<path d="M0.5 39.5H228.5V55C228.5 59.1421 225.142 62.5 221 62.5H8.00001C3.85787 62.5 0.5 59.1421 0.5 55V39.5Z" stroke="#5452F6"/>
</g>
<path d="M94.7031 16.5469L94.7578 17.5234C95.3828 16.7682 96.2031 16.3906 97.2188 16.3906C98.9792 16.3906 99.875 17.3984 99.9062 19.4141V25H98.0078V19.5234C98.0078 18.987 97.8906 18.5911 97.6562 18.3359C97.4271 18.0755 97.0495 17.9453 96.5234 17.9453C95.7578 17.9453 95.1875 18.2917 94.8125 18.9844V25H92.9141V16.5469H94.7031ZM106.898 25C106.815 24.8385 106.742 24.5755 106.68 24.2109C106.076 24.8411 105.336 25.1562 104.461 25.1562C103.612 25.1562 102.919 24.9141 102.383 24.4297C101.846 23.9453 101.578 23.3464 101.578 22.6328C101.578 21.7318 101.911 21.0417 102.578 20.5625C103.25 20.0781 104.208 19.8359 105.453 19.8359H106.617V19.2812C106.617 18.8438 106.495 18.4948 106.25 18.2344C106.005 17.9688 105.633 17.8359 105.133 17.8359C104.701 17.8359 104.346 17.9453 104.07 18.1641C103.794 18.3776 103.656 18.651 103.656 18.9844H101.758C101.758 18.5208 101.911 18.0885 102.219 17.6875C102.526 17.2812 102.943 16.9635 103.469 16.7344C104 16.5052 104.591 16.3906 105.242 16.3906C106.232 16.3906 107.021 16.6406 107.609 17.1406C108.198 17.6354 108.5 18.3333 108.516 19.2344V23.0469C108.516 23.8073 108.622 24.4141 108.836 24.8672V25H106.898ZM104.812 23.6328C105.188 23.6328 105.539 23.5417 105.867 23.3594C106.201 23.1771 106.451 22.9323 106.617 22.625V21.0312H105.594C104.891 21.0312 104.362 21.1536 104.008 21.3984C103.654 21.6432 103.477 21.9896 103.477 22.4375C103.477 22.8021 103.596 23.0938 103.836 23.3125C104.081 23.526 104.406 23.6328 104.812 23.6328ZM112.883 14.4922V16.5469H114.375V17.9531H112.883V22.6719C112.883 22.9948 112.945 23.2292 113.07 23.375C113.201 23.5156 113.43 23.5859 113.758 23.5859C113.977 23.5859 114.198 23.5599 114.422 23.5078V24.9766C113.99 25.0964 113.573 25.1562 113.172 25.1562C111.714 25.1562 110.984 24.3516 110.984 22.7422V17.9531H109.594V16.5469H110.984V14.4922H112.883ZM126.117 20.9453H127.531V22.4688H126.117V25H124.219V22.4688H119.305L119.25 21.3125L124.156 13.625H126.117V20.9453ZM121.242 20.9453H124.219V16.1953L124.078 16.4453L121.242 20.9453ZM136.438 25H128.789V23.6953L132.578 19.5625C133.125 18.9531 133.513 18.4453 133.742 18.0391C133.977 17.6276 134.094 17.2161 134.094 16.8047C134.094 16.263 133.94 15.8255 133.633 15.4922C133.331 15.1589 132.922 14.9922 132.406 14.9922C131.792 14.9922 131.315 15.1797 130.977 15.5547C130.638 15.9297 130.469 16.4427 130.469 17.0938H128.57C128.57 16.401 128.727 15.7786 129.039 15.2266C129.357 14.6693 129.807 14.237 130.391 13.9297C130.979 13.6224 131.656 13.4688 132.422 13.4688C133.526 13.4688 134.396 13.7474 135.031 14.3047C135.672 14.8568 135.992 15.6224 135.992 16.6016C135.992 17.1693 135.831 17.7656 135.508 18.3906C135.19 19.0104 134.667 19.7161 133.938 20.5078L131.156 23.4844H136.438V25Z" fill="#5452F6"/>
<defs>
<filter id="filter0_d" x="401" y="0" width="233" height="44" filterUnits="userSpaceOnUse" color-interpolation-filters="sRGB">
<feFlood flood-opacity="0" result="BackgroundImageFix"/>
<feColorMatrix in="SourceAlpha" type="matrix" values="0 0 0 0 0 0 0 0 0 0 0 0 0 0 0 0 0 0 127 0"/>
<feOffset dx="4" dy="4"/>
<feColorMatrix type="matrix" values="0 0 0 0 0.674908 0 0 0 0 0.662083 0 0 0 0 0.945833 0 0 0 1 0"/>
<feBlend mode="normal" in2="BackgroundImageFix" result="effect1_dropShadow"/>
<feBlend mode="normal" in="SourceGraphic" in2="effect1_dropShadow" result="shape"/>
</filter>
<filter id="filter1_d" x="401" y="39" width="233" height="28" filterUnits="userSpaceOnUse" color-interpolation-filters="sRGB">
<feFlood flood-opacity="0" result="BackgroundImageFix"/>
<feColorMatrix in="SourceAlpha" type="matrix" values="0 0 0 0 0 0 0 0 0 0 0 0 0 0 0 0 0 0 127 0"/>
<feOffset dx="4" dy="4"/>
<feColorMatrix type="matrix" values="0 0 0 0 0.674908 0 0 0 0 0.662083 0 0 0 0 0.945833 0 0 0 1 0"/>
<feBlend mode="normal" in2="BackgroundImageFix" result="effect1_dropShadow"/>
<feBlend mode="normal" in="SourceGraphic" in2="effect1_dropShadow" result="shape"/>
</filter>
<filter id="filter2_d" x="0" y="0" width="233" height="44" filterUnits="userSpaceOnUse" color-interpolation-filters="sRGB">
<feFlood flood-opacity="0" result="BackgroundImageFix"/>
<feColorMatrix in="SourceAlpha" type="matrix" values="0 0 0 0 0 0 0 0 0 0 0 0 0 0 0 0 0 0 127 0"/>
<feOffset dx="4" dy="4"/>
<feColorMatrix type="matrix" values="0 0 0 0 0.674908 0 0 0 0 0.662083 0 0 0 0 0.945833 0 0 0 1 0"/>
<feBlend mode="normal" in2="BackgroundImageFix" result="effect1_dropShadow"/>
<feBlend mode="normal" in="SourceGraphic" in2="effect1_dropShadow" result="shape"/>
</filter>
<filter id="filter3_d" x="0" y="39" width="233" height="28" filterUnits="userSpaceOnUse" color-interpolation-filters="sRGB">
<feFlood flood-opacity="0" result="BackgroundImageFix"/>
<feColorMatrix in="SourceAlpha" type="matrix" values="0 0 0 0 0 0 0 0 0 0 0 0 0 0 0 0 0 0 127 0"/>
<feOffset dx="4" dy="4"/>
<feColorMatrix type="matrix" values="0 0 0 0 0.674908 0 0 0 0 0.662083 0 0 0 0 0.945833 0 0 0 1 0"/>
<feBlend mode="normal" in2="BackgroundImageFix" result="effect1_dropShadow"/>
<feBlend mode="normal" in="SourceGraphic" in2="effect1_dropShadow" result="shape"/>
</filter>
</defs>
</svg>
