<svg width="161" height="358" viewBox="0 0 161 358" fill="none" xmlns="http://www.w3.org/2000/svg">
<g filter="url(#filter0_d)">
<g clip-path="url(#clip0)">
<path d="M7 81C7 76.5817 10.5817 73 15 73H149C153.418 73 157 76.5817 157 81V331H7V81Z" fill="white"/>
<line x1="7.5" y1="290.5" x2="235.5" y2="290.5" stroke="#5452F6"/>
<line x1="7.5" y1="250.5" x2="235.5" y2="250.5" stroke="#5452F6"/>
<line x1="7.5" y1="170.5" x2="235.5" y2="170.5" stroke="#5452F6"/>
<line x1="7.5" y1="210.5" x2="235.5" y2="210.5" stroke="#5452F6"/>
<path d="M51.1406 316.156C49.9375 316.156 48.9609 315.779 48.2109 315.023C47.4661 314.263 47.0938 313.253 47.0938 311.992V311.758C47.0938 310.914 47.2552 310.161 47.5781 309.5C47.9062 308.833 48.3646 308.315 48.9531 307.945C49.5417 307.576 50.1979 307.391 50.9219 307.391C52.0729 307.391 52.9609 307.758 53.5859 308.492C54.2161 309.227 54.5312 310.266 54.5312 311.609V312.375H49.0078C49.0651 313.073 49.2969 313.625 49.7031 314.031C50.1146 314.438 50.6302 314.641 51.25 314.641C52.1198 314.641 52.8281 314.289 53.375 313.586L54.3984 314.562C54.0599 315.068 53.6068 315.461 53.0391 315.742C52.4766 316.018 51.8438 316.156 51.1406 316.156ZM50.9141 308.914C50.3932 308.914 49.9714 309.096 49.6484 309.461C49.3307 309.826 49.1276 310.333 49.0391 310.984H52.6562V310.844C52.6146 310.208 52.4453 309.729 52.1484 309.406C51.8516 309.078 51.4401 308.914 50.9141 308.914ZM58.0312 316H56.1328V304H58.0312V316ZM63.8281 316.156C62.625 316.156 61.6484 315.779 60.8984 315.023C60.1536 314.263 59.7812 313.253 59.7812 311.992V311.758C59.7812 310.914 59.9427 310.161 60.2656 309.5C60.5938 308.833 61.0521 308.315 61.6406 307.945C62.2292 307.576 62.8854 307.391 63.6094 307.391C64.7604 307.391 65.6484 307.758 66.2734 308.492C66.9036 309.227 67.2188 310.266 67.2188 311.609V312.375H61.6953C61.7526 313.073 61.9844 313.625 62.3906 314.031C62.8021 314.438 63.3177 314.641 63.9375 314.641C64.8073 314.641 65.5156 314.289 66.0625 313.586L67.0859 314.562C66.7474 315.068 66.2943 315.461 65.7266 315.742C65.1641 316.018 64.5312 316.156 63.8281 316.156ZM63.6016 308.914C63.0807 308.914 62.6589 309.096 62.3359 309.461C62.0182 309.826 61.8151 310.333 61.7266 310.984H65.3438V310.844C65.3021 310.208 65.1328 309.729 64.8359 309.406C64.5391 309.078 64.1276 308.914 63.6016 308.914ZM70.4844 307.547L70.5391 308.43C71.1328 307.737 71.9453 307.391 72.9766 307.391C74.1068 307.391 74.8802 307.823 75.2969 308.688C75.9115 307.823 76.776 307.391 77.8906 307.391C78.8229 307.391 79.5156 307.648 79.9688 308.164C80.4271 308.68 80.6615 309.44 80.6719 310.445V316H78.7734V310.5C78.7734 309.964 78.6562 309.57 78.4219 309.32C78.1875 309.07 77.7995 308.945 77.2578 308.945C76.8255 308.945 76.4714 309.062 76.1953 309.297C75.9245 309.526 75.7344 309.828 75.625 310.203L75.6328 316H73.7344V310.438C73.7083 309.443 73.2005 308.945 72.2109 308.945C71.4505 308.945 70.9115 309.255 70.5938 309.875V316H68.6953V307.547H70.4844ZM86.3438 316.156C85.1406 316.156 84.1641 315.779 83.4141 315.023C82.6693 314.263 82.2969 313.253 82.2969 311.992V311.758C82.2969 310.914 82.4583 310.161 82.7812 309.5C83.1094 308.833 83.5677 308.315 84.1562 307.945C84.7448 307.576 85.401 307.391 86.125 307.391C87.276 307.391 88.1641 307.758 88.7891 308.492C89.4193 309.227 89.7344 310.266 89.7344 311.609V312.375H84.2109C84.2682 313.073 84.5 313.625 84.9062 314.031C85.3177 314.438 85.8333 314.641 86.4531 314.641C87.3229 314.641 88.0312 314.289 88.5781 313.586L89.6016 314.562C89.263 315.068 88.8099 315.461 88.2422 315.742C87.6797 316.018 87.0469 316.156 86.3438 316.156ZM86.1172 308.914C85.5964 308.914 85.1745 309.096 84.8516 309.461C84.5339 309.826 84.3307 310.333 84.2422 310.984H87.8594V310.844C87.8177 310.208 87.6484 309.729 87.3516 309.406C87.0547 309.078 86.6432 308.914 86.1172 308.914ZM92.9766 307.547L93.0312 308.523C93.6562 307.768 94.4766 307.391 95.4922 307.391C97.2526 307.391 98.1484 308.398 98.1797 310.414V316H96.2812V310.523C96.2812 309.987 96.1641 309.591 95.9297 309.336C95.7005 309.076 95.3229 308.945 94.7969 308.945C94.0312 308.945 93.4609 309.292 93.0859 309.984V316H91.1875V307.547H92.9766ZM102.5 305.492V307.547H103.992V308.953H102.5V313.672C102.5 313.995 102.562 314.229 102.688 314.375C102.818 314.516 103.047 314.586 103.375 314.586C103.594 314.586 103.815 314.56 104.039 314.508V315.977C103.607 316.096 103.19 316.156 102.789 316.156C101.331 316.156 100.602 315.352 100.602 313.742V308.953H99.2109V307.547H100.602V305.492H102.5ZM114.453 316H112.562V306.867L109.773 307.82V306.219L114.211 304.586H114.453V316Z" fill="#5452F6"/>
<path d="M51.1406 276.156C49.9375 276.156 48.9609 275.779 48.2109 275.023C47.4661 274.263 47.0938 273.253 47.0938 271.992V271.758C47.0938 270.914 47.2552 270.161 47.5781 269.5C47.9062 268.833 48.3646 268.315 48.9531 267.945C49.5417 267.576 50.1979 267.391 50.9219 267.391C52.0729 267.391 52.9609 267.758 53.5859 268.492C54.2161 269.227 54.5312 270.266 54.5312 271.609V272.375H49.0078C49.0651 273.073 49.2969 273.625 49.7031 274.031C50.1146 274.438 50.6302 274.641 51.25 274.641C52.1198 274.641 52.8281 274.289 53.375 273.586L54.3984 274.562C54.0599 275.068 53.6068 275.461 53.0391 275.742C52.4766 276.018 51.8438 276.156 51.1406 276.156ZM50.9141 268.914C50.3932 268.914 49.9714 269.096 49.6484 269.461C49.3307 269.826 49.1276 270.333 49.0391 270.984H52.6562V270.844C52.6146 270.208 52.4453 269.729 52.1484 269.406C51.8516 269.078 51.4401 268.914 50.9141 268.914ZM58.0312 276H56.1328V264H58.0312V276ZM63.8281 276.156C62.625 276.156 61.6484 275.779 60.8984 275.023C60.1536 274.263 59.7812 273.253 59.7812 271.992V271.758C59.7812 270.914 59.9427 270.161 60.2656 269.5C60.5938 268.833 61.0521 268.315 61.6406 267.945C62.2292 267.576 62.8854 267.391 63.6094 267.391C64.7604 267.391 65.6484 267.758 66.2734 268.492C66.9036 269.227 67.2188 270.266 67.2188 271.609V272.375H61.6953C61.7526 273.073 61.9844 273.625 62.3906 274.031C62.8021 274.438 63.3177 274.641 63.9375 274.641C64.8073 274.641 65.5156 274.289 66.0625 273.586L67.0859 274.562C66.7474 275.068 66.2943 275.461 65.7266 275.742C65.1641 276.018 64.5312 276.156 63.8281 276.156ZM63.6016 268.914C63.0807 268.914 62.6589 269.096 62.3359 269.461C62.0182 269.826 61.8151 270.333 61.7266 270.984H65.3438V270.844C65.3021 270.208 65.1328 269.729 64.8359 269.406C64.5391 269.078 64.1276 268.914 63.6016 268.914ZM70.4844 267.547L70.5391 268.43C71.1328 267.737 71.9453 267.391 72.9766 267.391C74.1068 267.391 74.8802 267.823 75.2969 268.688C75.9115 267.823 76.776 267.391 77.8906 267.391C78.8229 267.391 79.5156 267.648 79.9688 268.164C80.4271 268.68 80.6615 269.44 80.6719 270.445V276H78.7734V270.5C78.7734 269.964 78.6562 269.57 78.4219 269.32C78.1875 269.07 77.7995 268.945 77.2578 268.945C76.8255 268.945 76.4714 269.062 76.1953 269.297C75.9245 269.526 75.7344 269.828 75.625 270.203L75.6328 276H73.7344V270.438C73.7083 269.443 73.2005 268.945 72.2109 268.945C71.4505 268.945 70.9115 269.255 70.5938 269.875V276H68.6953V267.547H70.4844ZM86.3438 276.156C85.1406 276.156 84.1641 275.779 83.4141 275.023C82.6693 274.263 82.2969 273.253 82.2969 271.992V271.758C82.2969 270.914 82.4583 270.161 82.7812 269.5C83.1094 268.833 83.5677 268.315 84.1562 267.945C84.7448 267.576 85.401 267.391 86.125 267.391C87.276 267.391 88.1641 267.758 88.7891 268.492C89.4193 269.227 89.7344 270.266 89.7344 271.609V272.375H84.2109C84.2682 273.073 84.5 273.625 84.9062 274.031C85.3177 274.438 85.8333 274.641 86.4531 274.641C87.3229 274.641 88.0312 274.289 88.5781 273.586L89.6016 274.562C89.263 275.068 88.8099 275.461 88.2422 275.742C87.6797 276.018 87.0469 276.156 86.3438 276.156ZM86.1172 268.914C85.5964 268.914 85.1745 269.096 84.8516 269.461C84.5339 269.826 84.3307 270.333 84.2422 270.984H87.8594V270.844C87.8177 270.208 87.6484 269.729 87.3516 269.406C87.0547 269.078 86.6432 268.914 86.1172 268.914ZM92.9766 267.547L93.0312 268.523C93.6562 267.768 94.4766 267.391 95.4922 267.391C97.2526 267.391 98.1484 268.398 98.1797 270.414V276H96.2812V270.523C96.2812 269.987 96.1641 269.591 95.9297 269.336C95.7005 269.076 95.3229 268.945 94.7969 268.945C94.0312 268.945 93.4609 269.292 93.0859 269.984V276H91.1875V267.547H92.9766ZM102.5 265.492V267.547H103.992V268.953H102.5V273.672C102.5 273.995 102.562 274.229 102.688 274.375C102.818 274.516 103.047 274.586 103.375 274.586C103.594 274.586 103.815 274.56 104.039 274.508V275.977C103.607 276.096 103.19 276.156 102.789 276.156C101.331 276.156 100.602 275.352 100.602 273.742V268.953H99.2109V267.547H100.602V265.492H102.5ZM116.961 276H109.312V274.695L113.102 270.562C113.648 269.953 114.036 269.445 114.266 269.039C114.5 268.628 114.617 268.216 114.617 267.805C114.617 267.263 114.464 266.826 114.156 266.492C113.854 266.159 113.445 265.992 112.93 265.992C112.315 265.992 111.839 266.18 111.5 266.555C111.161 266.93 110.992 267.443 110.992 268.094H109.094C109.094 267.401 109.25 266.779 109.562 266.227C109.88 265.669 110.331 265.237 110.914 264.93C111.503 264.622 112.18 264.469 112.945 264.469C114.049 264.469 114.919 264.747 115.555 265.305C116.195 265.857 116.516 266.622 116.516 267.602C116.516 268.169 116.354 268.766 116.031 269.391C115.714 270.01 115.19 270.716 114.461 271.508L111.68 274.484H116.961V276Z" fill="#5452F6"/>
<path d="M51.2344 196.156C50.0312 196.156 49.0547 195.779 48.3047 195.023C47.5599 194.263 47.1875 193.253 47.1875 191.992V191.758C47.1875 190.914 47.349 190.161 47.6719 189.5C48 188.833 48.4583 188.315 49.0469 187.945C49.6354 187.576 50.2917 187.391 51.0156 187.391C52.1667 187.391 53.0547 187.758 53.6797 188.492C54.3099 189.227 54.625 190.266 54.625 191.609V192.375H49.1016C49.1589 193.073 49.3906 193.625 49.7969 194.031C50.2083 194.438 50.724 194.641 51.3438 194.641C52.2135 194.641 52.9219 194.289 53.4688 193.586L54.4922 194.562C54.1536 195.068 53.7005 195.461 53.1328 195.742C52.5703 196.018 51.9375 196.156 51.2344 196.156ZM51.0078 188.914C50.487 188.914 50.0651 189.096 49.7422 189.461C49.4245 189.826 49.2214 190.333 49.1328 190.984H52.75V190.844C52.7083 190.208 52.5391 189.729 52.2422 189.406C51.9453 189.078 51.5339 188.914 51.0078 188.914ZM58.125 196H56.2266V184H58.125V196ZM63.9219 196.156C62.7188 196.156 61.7422 195.779 60.9922 195.023C60.2474 194.263 59.875 193.253 59.875 191.992V191.758C59.875 190.914 60.0365 190.161 60.3594 189.5C60.6875 188.833 61.1458 188.315 61.7344 187.945C62.3229 187.576 62.9792 187.391 63.7031 187.391C64.8542 187.391 65.7422 187.758 66.3672 188.492C66.9974 189.227 67.3125 190.266 67.3125 191.609V192.375H61.7891C61.8464 193.073 62.0781 193.625 62.4844 194.031C62.8958 194.438 63.4115 194.641 64.0312 194.641C64.901 194.641 65.6094 194.289 66.1562 193.586L67.1797 194.562C66.8411 195.068 66.388 195.461 65.8203 195.742C65.2578 196.018 64.625 196.156 63.9219 196.156ZM63.6953 188.914C63.1745 188.914 62.7526 189.096 62.4297 189.461C62.112 189.826 61.9089 190.333 61.8203 190.984H65.4375V190.844C65.3958 190.208 65.2266 189.729 64.9297 189.406C64.6328 189.078 64.2214 188.914 63.6953 188.914ZM70.5781 187.547L70.6328 188.43C71.2266 187.737 72.0391 187.391 73.0703 187.391C74.2005 187.391 74.974 187.823 75.3906 188.688C76.0052 187.823 76.8698 187.391 77.9844 187.391C78.9167 187.391 79.6094 187.648 80.0625 188.164C80.5208 188.68 80.7552 189.44 80.7656 190.445V196H78.8672V190.5C78.8672 189.964 78.75 189.57 78.5156 189.32C78.2812 189.07 77.8932 188.945 77.3516 188.945C76.9193 188.945 76.5651 189.062 76.2891 189.297C76.0182 189.526 75.8281 189.828 75.7188 190.203L75.7266 196H73.8281V190.438C73.8021 189.443 73.2943 188.945 72.3047 188.945C71.5443 188.945 71.0052 189.255 70.6875 189.875V196H68.7891V187.547H70.5781ZM86.4375 196.156C85.2344 196.156 84.2578 195.779 83.5078 195.023C82.763 194.263 82.3906 193.253 82.3906 191.992V191.758C82.3906 190.914 82.5521 190.161 82.875 189.5C83.2031 188.833 83.6615 188.315 84.25 187.945C84.8385 187.576 85.4948 187.391 86.2188 187.391C87.3698 187.391 88.2578 187.758 88.8828 188.492C89.513 189.227 89.8281 190.266 89.8281 191.609V192.375H84.3047C84.362 193.073 84.5938 193.625 85 194.031C85.4115 194.438 85.9271 194.641 86.5469 194.641C87.4167 194.641 88.125 194.289 88.6719 193.586L89.6953 194.562C89.3568 195.068 88.9036 195.461 88.3359 195.742C87.7734 196.018 87.1406 196.156 86.4375 196.156ZM86.2109 188.914C85.6901 188.914 85.2682 189.096 84.9453 189.461C84.6276 189.826 84.4245 190.333 84.3359 190.984H87.9531V190.844C87.9115 190.208 87.7422 189.729 87.4453 189.406C87.1484 189.078 86.737 188.914 86.2109 188.914ZM93.0703 187.547L93.125 188.523C93.75 187.768 94.5703 187.391 95.5859 187.391C97.3464 187.391 98.2422 188.398 98.2734 190.414V196H96.375V190.523C96.375 189.987 96.2578 189.591 96.0234 189.336C95.7943 189.076 95.4167 188.945 94.8906 188.945C94.125 188.945 93.5547 189.292 93.1797 189.984V196H91.2812V187.547H93.0703ZM102.594 185.492V187.547H104.086V188.953H102.594V193.672C102.594 193.995 102.656 194.229 102.781 194.375C102.911 194.516 103.141 194.586 103.469 194.586C103.688 194.586 103.909 194.56 104.133 194.508V195.977C103.701 196.096 103.284 196.156 102.883 196.156C101.424 196.156 100.695 195.352 100.695 193.742V188.953H99.3047V187.547H100.695V185.492H102.594ZM111.289 187.547L111.344 188.523C111.969 187.768 112.789 187.391 113.805 187.391C115.565 187.391 116.461 188.398 116.492 190.414V196H114.594V190.523C114.594 189.987 114.477 189.591 114.242 189.336C114.013 189.076 113.635 188.945 113.109 188.945C112.344 188.945 111.773 189.292 111.398 189.984V196H109.5V187.547H111.289Z" fill="#5452F6"/>
<path d="M77.4531 234C77.8073 234 78.0807 234.102 78.2734 234.305C78.4661 234.503 78.5625 234.753 78.5625 235.055C78.5625 235.352 78.4661 235.599 78.2734 235.797C78.0807 235.99 77.8073 236.086 77.4531 236.086C77.1146 236.086 76.8464 235.99 76.6484 235.797C76.4505 235.604 76.3516 235.357 76.3516 235.055C76.3516 234.753 76.4479 234.503 76.6406 234.305C76.8333 234.102 77.1042 234 77.4531 234ZM81.9219 234C82.276 234 82.5495 234.102 82.7422 234.305C82.9349 234.503 83.0312 234.753 83.0312 235.055C83.0312 235.352 82.9349 235.599 82.7422 235.797C82.5495 235.99 82.276 236.086 81.9219 236.086C81.5833 236.086 81.3151 235.99 81.1172 235.797C80.9193 235.604 80.8203 235.357 80.8203 235.055C80.8203 234.753 80.9167 234.503 81.1094 234.305C81.3021 234.102 81.5729 234 81.9219 234ZM86.3906 234C86.7448 234 87.0182 234.102 87.2109 234.305C87.4036 234.503 87.5 234.753 87.5 235.055C87.5 235.352 87.4036 235.599 87.2109 235.797C87.0182 235.99 86.7448 236.086 86.3906 236.086C86.0521 236.086 85.7839 235.99 85.5859 235.797C85.388 235.604 85.2891 235.357 85.2891 235.055C85.2891 234.753 85.3854 234.503 85.5781 234.305C85.7708 234.102 86.0417 234 86.3906 234Z" fill="#5452F6"/>
<circle cx="108" cy="149.5" r="5.5" transform="rotate(90 108 149.5)" stroke="#65BF73" stroke-width="2"/>
</g>
<path d="M15 73.5H149C153.142 73.5 156.5 76.8579 156.5 81V330.5H7.5V81C7.5 76.8579 10.8579 73.5 15 73.5Z" stroke="#5452F6"/>
</g>
<g filter="url(#filter1_d)">
<path d="M7 330H157V346C157 350.418 153.418 354 149 354H15C10.5817 354 7 350.418 7 346V330Z" fill="#EEEEFF"/>
<path d="M7.5 330.5H156.5V346C156.5 350.142 153.142 353.5 149 353.5H15C10.8579 353.5 7.5 350.142 7.5 346V330.5Z" stroke="#5452F6"/>
</g>
<rect x="7" width="154" height="108" fill="white"/>
<line x1="43" y1="21" x2="43" y2="155" stroke="#65BF73" stroke-width="2"/>
<path d="M58.4258 82.8945C58.4258 83.875 58.2031 84.6582 57.7578 85.2441C57.3125 85.8262 56.7148 86.1172 55.9648 86.1172C55.2695 86.1172 54.7129 85.8887 54.2949 85.4316V88.4375H52.8711V79.6602H54.1836L54.2422 80.3047C54.6602 79.7969 55.2285 79.543 55.9473 79.543C56.7207 79.543 57.3262 79.832 57.7637 80.4102C58.2051 80.9844 58.4258 81.7832 58.4258 82.8066V82.8945ZM57.0078 82.7715C57.0078 82.1387 56.8809 81.6367 56.627 81.2656C56.377 80.8945 56.0176 80.709 55.5488 80.709C54.9668 80.709 54.5488 80.9492 54.2949 81.4297V84.2422C54.5527 84.7344 54.9746 84.9805 55.5605 84.9805C56.0137 84.9805 56.3672 84.7988 56.6211 84.4355C56.8789 84.0684 57.0078 83.5137 57.0078 82.7715ZM63.4766 85.3789C63.0586 85.8711 62.4648 86.1172 61.6953 86.1172C61.0078 86.1172 60.4863 85.916 60.1309 85.5137C59.7793 85.1113 59.6035 84.5293 59.6035 83.7676V79.6602H61.0273V83.75C61.0273 84.5547 61.3613 84.957 62.0293 84.957C62.7207 84.957 63.1875 84.709 63.4297 84.2129V79.6602H64.8535V86H63.5117L63.4766 85.3789ZM69.8574 84.2773C69.8574 84.0234 69.752 83.8301 69.541 83.6973C69.334 83.5645 68.9883 83.4473 68.5039 83.3457C68.0195 83.2441 67.6152 83.1152 67.291 82.959C66.5801 82.6152 66.2246 82.1172 66.2246 81.4648C66.2246 80.918 66.4551 80.4609 66.916 80.0938C67.377 79.7266 67.9629 79.543 68.6738 79.543C69.4316 79.543 70.043 79.7305 70.5078 80.1055C70.9766 80.4805 71.2109 80.9668 71.2109 81.5645H69.7871C69.7871 81.291 69.6855 81.0645 69.4824 80.8848C69.2793 80.7012 69.0098 80.6094 68.6738 80.6094C68.3613 80.6094 68.1055 80.6816 67.9062 80.8262C67.7109 80.9707 67.6133 81.1641 67.6133 81.4062C67.6133 81.625 67.7051 81.7949 67.8887 81.916C68.0723 82.0371 68.4434 82.1602 69.002 82.2852C69.5605 82.4062 69.998 82.5527 70.3145 82.7246C70.6348 82.8926 70.8711 83.0957 71.0234 83.334C71.1797 83.5723 71.2578 83.8613 71.2578 84.2012C71.2578 84.7715 71.0215 85.2344 70.5488 85.5898C70.0762 85.9414 69.457 86.1172 68.6914 86.1172C68.1719 86.1172 67.709 86.0234 67.3027 85.8359C66.8965 85.6484 66.5801 85.3906 66.3535 85.0625C66.127 84.7344 66.0137 84.3809 66.0137 84.002H67.3965C67.416 84.3379 67.543 84.5977 67.7773 84.7812C68.0117 84.9609 68.3223 85.0508 68.709 85.0508C69.084 85.0508 69.3691 84.9805 69.5645 84.8398C69.7598 84.6953 69.8574 84.5078 69.8574 84.2773ZM73.9062 80.3516C74.3711 79.8125 74.959 79.543 75.6699 79.543C77.0215 79.543 77.707 80.3145 77.7266 81.8574V86H76.3027V81.9102C76.3027 81.4727 76.207 81.1641 76.0156 80.9844C75.8281 80.8008 75.5508 80.709 75.1836 80.709C74.6133 80.709 74.1875 80.9629 73.9062 81.4707V86H72.4824V77H73.9062V80.3516ZM79.1914 82.5312C79.1914 81.6289 79.3125 80.7734 79.5547 79.9648C79.7969 79.1523 80.1523 78.4277 80.6211 77.791C81.0898 77.1504 81.5859 76.7012 82.1094 76.4434L82.3906 77.2754C81.8398 77.6934 81.3926 78.332 81.0488 79.1914C80.709 80.0469 80.5234 81.0273 80.4922 82.1328L80.4863 82.6367C80.4863 83.8203 80.6523 84.877 80.9844 85.8066C81.3203 86.7324 81.7891 87.4375 82.3906 87.9219L82.1094 88.7129C81.5859 88.4551 81.0879 88.0039 80.6152 87.3594C80.1465 86.7188 79.791 85.9961 79.5488 85.1914C79.3105 84.3828 79.1914 83.4961 79.1914 82.5312ZM86.0996 82.625C86.0996 83.4922 85.9805 84.3301 85.7422 85.1387C85.5039 85.9434 85.1426 86.6758 84.6582 87.3359C84.1738 88 83.668 88.459 83.1406 88.7129L82.8594 87.9219C83.4453 87.4688 83.9082 86.7773 84.248 85.8477C84.5918 84.9141 84.7637 83.8496 84.7637 82.6543V82.5195C84.7637 81.4336 84.6152 80.4453 84.3184 79.5547C84.0215 78.6602 83.5957 77.9434 83.041 77.4043L82.8594 77.2402L83.1406 76.4434C83.6406 76.6855 84.125 77.1152 84.5938 77.7324C85.0625 78.3496 85.4219 79.041 85.6719 79.8066C85.9219 80.5684 86.0625 81.3555 86.0938 82.168L86.0996 82.625Z" fill="#65BF73"/>
<path d="M52.5 145L43 155.5L34 145" stroke="#65BF73" stroke-width="2" stroke-linecap="round" stroke-linejoin="round"/>
<circle cx="43" cy="15.5" r="5.5" transform="rotate(90 43 15.5)" stroke="#65BF73" stroke-width="2"/>
<line x1="108" y1="11" x2="108" y2="145" stroke="#65BF73" stroke-width="2"/>
<path d="M126.396 82.8945C126.396 83.875 126.174 84.6582 125.729 85.2441C125.283 85.8262 124.686 86.1172 123.936 86.1172C123.24 86.1172 122.684 85.8887 122.266 85.4316V88.4375H120.842V79.6602H122.154L122.213 80.3047C122.631 79.7969 123.199 79.543 123.918 79.543C124.691 79.543 125.297 79.832 125.734 80.4102C126.176 80.9844 126.396 81.7832 126.396 82.8066V82.8945ZM124.979 82.7715C124.979 82.1387 124.852 81.6367 124.598 81.2656C124.348 80.8945 123.988 80.709 123.52 80.709C122.938 80.709 122.52 80.9492 122.266 81.4297V84.2422C122.523 84.7344 122.945 84.9805 123.531 84.9805C123.984 84.9805 124.338 84.7988 124.592 84.4355C124.85 84.0684 124.979 83.5137 124.979 82.7715ZM127.34 82.7715C127.34 82.1504 127.463 81.5918 127.709 81.0957C127.955 80.5957 128.301 80.2129 128.746 79.9473C129.191 79.6777 129.703 79.543 130.281 79.543C131.137 79.543 131.83 79.8184 132.361 80.3691C132.896 80.9199 133.186 81.6504 133.229 82.5605L133.234 82.8945C133.234 83.5195 133.113 84.0781 132.871 84.5703C132.633 85.0625 132.289 85.4434 131.84 85.7129C131.395 85.9824 130.879 86.1172 130.293 86.1172C129.398 86.1172 128.682 85.8203 128.143 85.2266C127.607 84.6289 127.34 83.834 127.34 82.8418V82.7715ZM128.764 82.8945C128.764 83.5469 128.898 84.0586 129.168 84.4297C129.438 84.7969 129.812 84.9805 130.293 84.9805C130.773 84.9805 131.146 84.793 131.412 84.418C131.682 84.043 131.816 83.4941 131.816 82.7715C131.816 82.1309 131.678 81.623 131.4 81.248C131.127 80.873 130.754 80.6855 130.281 80.6855C129.816 80.6855 129.447 80.8711 129.174 81.2422C128.9 81.6094 128.764 82.1602 128.764 82.8945ZM139.99 82.8945C139.99 83.875 139.768 84.6582 139.322 85.2441C138.877 85.8262 138.279 86.1172 137.529 86.1172C136.834 86.1172 136.277 85.8887 135.859 85.4316V88.4375H134.436V79.6602H135.748L135.807 80.3047C136.225 79.7969 136.793 79.543 137.512 79.543C138.285 79.543 138.891 79.832 139.328 80.4102C139.77 80.9844 139.99 81.7832 139.99 82.8066V82.8945ZM138.572 82.7715C138.572 82.1387 138.445 81.6367 138.191 81.2656C137.941 80.8945 137.582 80.709 137.113 80.709C136.531 80.709 136.113 80.9492 135.859 81.4297V84.2422C136.117 84.7344 136.539 84.9805 137.125 84.9805C137.578 84.9805 137.932 84.7988 138.186 84.4355C138.443 84.0684 138.572 83.5137 138.572 82.7715ZM141.221 82.5312C141.221 81.6289 141.342 80.7734 141.584 79.9648C141.826 79.1523 142.182 78.4277 142.65 77.791C143.119 77.1504 143.615 76.7012 144.139 76.4434L144.42 77.2754C143.869 77.6934 143.422 78.332 143.078 79.1914C142.738 80.0469 142.553 81.0273 142.521 82.1328L142.516 82.6367C142.516 83.8203 142.682 84.877 143.014 85.8066C143.35 86.7324 143.818 87.4375 144.42 87.9219L144.139 88.7129C143.615 88.4551 143.117 88.0039 142.645 87.3594C142.176 86.7188 141.82 85.9961 141.578 85.1914C141.34 84.3828 141.221 83.4961 141.221 82.5312ZM148.129 82.625C148.129 83.4922 148.01 84.3301 147.771 85.1387C147.533 85.9434 147.172 86.6758 146.688 87.3359C146.203 88 145.697 88.459 145.17 88.7129L144.889 87.9219C145.475 87.4688 145.938 86.7773 146.277 85.8477C146.621 84.9141 146.793 83.8496 146.793 82.6543V82.5195C146.793 81.4336 146.645 80.4453 146.348 79.5547C146.051 78.6602 145.625 77.9434 145.07 77.4043L144.889 77.2402L145.17 76.4434C145.67 76.6855 146.154 77.1152 146.623 77.7324C147.092 78.3496 147.451 79.041 147.701 79.8066C147.951 80.5684 148.092 81.3555 148.123 82.168L148.129 82.625Z" fill="#65BF73"/>
<path d="M98.5 20.5L108 10L117 20.5" stroke="#65BF73" stroke-width="2" stroke-linecap="round" stroke-linejoin="round"/>
<defs>
<filter id="filter0_d" x="7" y="73" width="154" height="262" filterUnits="userSpaceOnUse" color-interpolation-filters="sRGB">
<feFlood flood-opacity="0" result="BackgroundImageFix"/>
<feColorMatrix in="SourceAlpha" type="matrix" values="0 0 0 0 0 0 0 0 0 0 0 0 0 0 0 0 0 0 127 0"/>
<feOffset dx="4" dy="4"/>
<feColorMatrix type="matrix" values="0 0 0 0 0.674908 0 0 0 0 0.662083 0 0 0 0 0.945833 0 0 0 1 0"/>
<feBlend mode="normal" in2="BackgroundImageFix" result="effect1_dropShadow"/>
<feBlend mode="normal" in="SourceGraphic" in2="effect1_dropShadow" result="shape"/>
</filter>
<filter id="filter1_d" x="7" y="330" width="154" height="28" filterUnits="userSpaceOnUse" color-interpolation-filters="sRGB">
<feFlood flood-opacity="0" result="BackgroundImageFix"/>
<feColorMatrix in="SourceAlpha" type="matrix" values="0 0 0 0 0 0 0 0 0 0 0 0 0 0 0 0 0 0 127 0"/>
<feOffset dx="4" dy="4"/>
<feColorMatrix type="matrix" values="0 0 0 0 0.674908 0 0 0 0 0.662083 0 0 0 0 0.945833 0 0 0 1 0"/>
<feBlend mode="normal" in2="BackgroundImageFix" result="effect1_dropShadow"/>
<feBlend mode="normal" in="SourceGraphic" in2="effect1_dropShadow" result="shape"/>
</filter>
<clipPath id="clip0">
<path d="M7 81C7 76.5817 10.5817 73 15 73H149C153.418 73 157 76.5817 157 81V331H7V81Z" fill="white"/>
</clipPath>
</defs>
</svg>
