<svg width="633" height="147" viewBox="0 0 633 147" fill="none" xmlns="http://www.w3.org/2000/svg">
<line x1="252" y1="120.5" x2="386" y2="120.5" stroke="#65BF73" stroke-width="2"/>
<path d="M376 111L386.5 120.5L376 129.5" stroke="#65BF73" stroke-width="2" stroke-linecap="round" stroke-linejoin="round"/>
<circle cx="247.5" cy="121" r="5.5" stroke="#65BF73" stroke-width="2"/>
<path d="M291.758 94.625V102.227C291.758 103.435 291.37 104.393 290.594 105.102C289.823 105.805 288.794 106.156 287.508 106.156C286.206 106.156 285.172 105.81 284.406 105.117C283.641 104.419 283.258 103.453 283.258 102.219V94.625H285.227V102.234C285.227 102.995 285.419 103.576 285.805 103.977C286.19 104.378 286.758 104.578 287.508 104.578C289.029 104.578 289.789 103.776 289.789 102.172V94.625H291.758ZM295.852 101.773V106H293.875V94.625H298.227C299.497 94.625 300.505 94.9557 301.25 95.6172C302 96.2786 302.375 97.1536 302.375 98.2422C302.375 99.3568 302.008 100.224 301.273 100.844C300.544 101.464 299.521 101.773 298.203 101.773H295.852ZM295.852 100.188H298.227C298.93 100.188 299.466 100.023 299.836 99.6953C300.206 99.362 300.391 98.8828 300.391 98.2578C300.391 97.6432 300.203 97.1536 299.828 96.7891C299.453 96.4193 298.938 96.2292 298.281 96.2188H295.852V100.188ZM304.109 106V94.625H307.469C308.474 94.625 309.365 94.849 310.141 95.2969C310.922 95.7448 311.526 96.3802 311.953 97.2031C312.38 98.026 312.594 98.9688 312.594 100.031V100.602C312.594 101.68 312.378 102.628 311.945 103.445C311.518 104.263 310.906 104.893 310.109 105.336C309.318 105.779 308.409 106 307.383 106H304.109ZM306.086 96.2188V104.422H307.375C308.411 104.422 309.206 104.099 309.758 103.453C310.315 102.802 310.599 101.87 310.609 100.656V100.023C310.609 98.7891 310.341 97.8464 309.805 97.1953C309.268 96.5443 308.49 96.2188 307.469 96.2188H306.086ZM320.758 103.352H316.352L315.43 106H313.375L317.672 94.625H319.445L323.75 106H321.688L320.758 103.352ZM316.906 101.758H320.203L318.555 97.0391L316.906 101.758ZM332.328 96.2188H328.781V106H326.82V96.2188H323.305V94.625H332.328V96.2188ZM340.477 100.922H335.805V104.422H341.266V106H333.828V94.625H341.211V96.2188H335.805V99.3594H340.477V100.922Z" fill="#65BF73"/>
<g filter="url(#filter0_d)">
<path d="M400 87C400 82.5817 403.582 79 408 79H621C625.418 79 629 82.5817 629 87V120H400V87Z" fill="white"/>
<path d="M400.5 87C400.5 82.8579 403.858 79.5 408 79.5H621C625.142 79.5 628.5 82.8579 628.5 87V119.5H400.5V87Z" stroke="#5452F6"/>
</g>
<g filter="url(#filter1_d)">
<path d="M400 119H629V135C629 139.418 625.418 143 621 143H408C403.582 143 400 139.418 400 135V119Z" fill="#EEEEFF"/>
<path d="M400.5 119.5H628.5V135C628.5 139.142 625.142 142.5 621 142.5H408C403.858 142.5 400.5 139.142 400.5 135V119.5Z" stroke="#5452F6"/>
</g>
<path d="M458.719 103.703C458.719 103.365 458.578 103.107 458.297 102.93C458.021 102.753 457.56 102.596 456.914 102.461C456.268 102.326 455.729 102.154 455.297 101.945C454.349 101.487 453.875 100.823 453.875 99.9531C453.875 99.224 454.182 98.6146 454.797 98.125C455.411 97.6354 456.193 97.3906 457.141 97.3906C458.151 97.3906 458.966 97.6406 459.586 98.1406C460.211 98.6406 460.523 99.2891 460.523 100.086H458.625C458.625 99.7214 458.49 99.4193 458.219 99.1797C457.948 98.9349 457.589 98.8125 457.141 98.8125C456.724 98.8125 456.383 98.9089 456.117 99.1016C455.857 99.2943 455.727 99.5521 455.727 99.875C455.727 100.167 455.849 100.393 456.094 100.555C456.339 100.716 456.833 100.88 457.578 101.047C458.323 101.208 458.906 101.404 459.328 101.633C459.755 101.857 460.07 102.128 460.273 102.445C460.482 102.763 460.586 103.148 460.586 103.602C460.586 104.362 460.271 104.979 459.641 105.453C459.01 105.922 458.185 106.156 457.164 106.156C456.471 106.156 455.854 106.031 455.312 105.781C454.771 105.531 454.349 105.188 454.047 104.75C453.745 104.312 453.594 103.841 453.594 103.336H455.438C455.464 103.784 455.633 104.13 455.945 104.375C456.258 104.615 456.672 104.734 457.188 104.734C457.688 104.734 458.068 104.641 458.328 104.453C458.589 104.26 458.719 104.01 458.719 103.703ZM465.969 106.156C464.766 106.156 463.789 105.779 463.039 105.023C462.294 104.263 461.922 103.253 461.922 101.992V101.758C461.922 100.914 462.083 100.161 462.406 99.5C462.734 98.8333 463.193 98.3151 463.781 97.9453C464.37 97.5755 465.026 97.3906 465.75 97.3906C466.901 97.3906 467.789 97.7578 468.414 98.4922C469.044 99.2266 469.359 100.266 469.359 101.609V102.375H463.836C463.893 103.073 464.125 103.625 464.531 104.031C464.943 104.438 465.458 104.641 466.078 104.641C466.948 104.641 467.656 104.289 468.203 103.586L469.227 104.562C468.888 105.068 468.435 105.461 467.867 105.742C467.305 106.018 466.672 106.156 465.969 106.156ZM465.742 98.9141C465.221 98.9141 464.799 99.0964 464.477 99.4609C464.159 99.8255 463.956 100.333 463.867 100.984H467.484V100.844C467.443 100.208 467.273 99.7292 466.977 99.4062C466.68 99.0781 466.268 98.9141 465.742 98.9141ZM473.219 95.4922V97.5469H474.711V98.9531H473.219V103.672C473.219 103.995 473.281 104.229 473.406 104.375C473.536 104.516 473.766 104.586 474.094 104.586C474.312 104.586 474.534 104.56 474.758 104.508V105.977C474.326 106.096 473.909 106.156 473.508 106.156C472.049 106.156 471.32 105.352 471.32 103.742V98.9531H469.93V97.5469H471.32V95.4922H473.219ZM482.172 106H480.273V97.5469H482.172V106ZM480.156 95.3516C480.156 95.0599 480.247 94.8177 480.43 94.625C480.617 94.4323 480.883 94.3359 481.227 94.3359C481.57 94.3359 481.836 94.4323 482.023 94.625C482.211 94.8177 482.305 95.0599 482.305 95.3516C482.305 95.638 482.211 95.8776 482.023 96.0703C481.836 96.2578 481.57 96.3516 481.227 96.3516C480.883 96.3516 480.617 96.2578 480.43 96.0703C480.247 95.8776 480.156 95.638 480.156 95.3516ZM486.008 97.5469L486.062 98.5234C486.688 97.7682 487.508 97.3906 488.523 97.3906C490.284 97.3906 491.18 98.3984 491.211 100.414V106H489.312V100.523C489.312 99.987 489.195 99.5911 488.961 99.3359C488.732 99.0755 488.354 98.9453 487.828 98.9453C487.062 98.9453 486.492 99.2917 486.117 99.9844V106H484.219V97.5469H486.008ZM495.531 95.4922V97.5469H497.023V98.9531H495.531V103.672C495.531 103.995 495.594 104.229 495.719 104.375C495.849 104.516 496.078 104.586 496.406 104.586C496.625 104.586 496.846 104.56 497.07 104.508V105.977C496.638 106.096 496.221 106.156 495.82 106.156C494.362 106.156 493.633 105.352 493.633 103.742V98.9531H492.242V97.5469H493.633V95.4922H495.531ZM506.25 108.812C504.411 108.297 503.474 107.122 503.438 105.289V103.625C503.438 102.453 502.935 101.867 501.93 101.867V100.477C502.935 100.477 503.438 99.888 503.438 98.7109V97.0547C503.453 96.1172 503.695 95.3594 504.164 94.7812C504.638 94.2031 505.333 93.7839 506.25 93.5234L506.625 94.6172C505.724 94.9089 505.258 95.7057 505.227 97.0078V98.6953C505.227 99.8672 504.776 100.69 503.875 101.164C504.776 101.643 505.227 102.474 505.227 103.656V105.32C505.258 106.622 505.724 107.419 506.625 107.711L506.25 108.812ZM512.859 106H510.969V96.8672L508.18 97.8203V96.2188L512.617 94.5859H512.859V106ZM517.914 97.3672C518.268 97.3672 518.542 97.4688 518.734 97.6719C518.927 97.8698 519.023 98.1198 519.023 98.4219C519.023 98.7188 518.927 98.9661 518.734 99.1641C518.542 99.3568 518.268 99.4531 517.914 99.4531C517.576 99.4531 517.307 99.3568 517.109 99.1641C516.911 98.9714 516.812 98.724 516.812 98.4219C516.812 98.1198 516.909 97.8698 517.102 97.6719C517.294 97.4688 517.565 97.3672 517.914 97.3672ZM517.344 108.562L516.32 107.953C516.622 107.479 516.828 107.065 516.938 106.711C517.052 106.362 517.112 106.005 517.117 105.641V104.164H518.828L518.82 105.531C518.815 106.083 518.674 106.635 518.398 107.188C518.128 107.745 517.776 108.203 517.344 108.562ZM526.805 99.4453H527.961C528.544 99.4401 529.005 99.2891 529.344 98.9922C529.688 98.6953 529.859 98.2656 529.859 97.7031C529.859 97.1615 529.716 96.7422 529.43 96.4453C529.148 96.1432 528.716 95.9922 528.133 95.9922C527.622 95.9922 527.203 96.1406 526.875 96.4375C526.547 96.7292 526.383 97.112 526.383 97.5859H524.484C524.484 97.0026 524.638 96.4714 524.945 95.9922C525.258 95.513 525.69 95.1406 526.242 94.875C526.799 94.6042 527.422 94.4688 528.109 94.4688C529.245 94.4688 530.135 94.7552 530.781 95.3281C531.432 95.8958 531.758 96.6875 531.758 97.7031C531.758 98.2135 531.594 98.6953 531.266 99.1484C530.943 99.5964 530.523 99.9349 530.008 100.164C530.633 100.378 531.107 100.714 531.43 101.172C531.758 101.63 531.922 102.177 531.922 102.812C531.922 103.833 531.57 104.646 530.867 105.25C530.169 105.854 529.25 106.156 528.109 106.156C527.016 106.156 526.12 105.865 525.422 105.281C524.724 104.698 524.375 103.922 524.375 102.953H526.273C526.273 103.453 526.44 103.859 526.773 104.172C527.112 104.484 527.565 104.641 528.133 104.641C528.721 104.641 529.185 104.484 529.523 104.172C529.862 103.859 530.031 103.406 530.031 102.812C530.031 102.214 529.854 101.753 529.5 101.43C529.146 101.107 528.62 100.945 527.922 100.945H526.805V99.4453ZM534.805 97.3672C535.159 97.3672 535.432 97.4688 535.625 97.6719C535.818 97.8698 535.914 98.1198 535.914 98.4219C535.914 98.7188 535.818 98.9661 535.625 99.1641C535.432 99.3568 535.159 99.4531 534.805 99.4531C534.466 99.4531 534.198 99.3568 534 99.1641C533.802 98.9714 533.703 98.724 533.703 98.4219C533.703 98.1198 533.799 97.8698 533.992 97.6719C534.185 97.4688 534.456 97.3672 534.805 97.3672ZM534.234 108.562L533.211 107.953C533.513 107.479 533.719 107.065 533.828 106.711C533.943 106.362 534.003 106.005 534.008 105.641V104.164H535.719L535.711 105.531C535.706 106.083 535.565 106.635 535.289 107.188C535.018 107.745 534.667 108.203 534.234 108.562ZM549.07 95.6797L544.523 106H542.531L547.07 96.1484H541.188V94.625H549.07V95.6797ZM551.695 97.3672C552.049 97.3672 552.323 97.4688 552.516 97.6719C552.708 97.8698 552.805 98.1198 552.805 98.4219C552.805 98.7188 552.708 98.9661 552.516 99.1641C552.323 99.3568 552.049 99.4531 551.695 99.4531C551.357 99.4531 551.089 99.3568 550.891 99.1641C550.693 98.9714 550.594 98.724 550.594 98.4219C550.594 98.1198 550.69 97.8698 550.883 97.6719C551.076 97.4688 551.346 97.3672 551.695 97.3672ZM551.125 108.562L550.102 107.953C550.404 107.479 550.609 107.065 550.719 106.711C550.833 106.362 550.893 106.005 550.898 105.641V104.164H552.609L552.602 105.531C552.596 106.083 552.456 106.635 552.18 107.188C551.909 107.745 551.557 108.203 551.125 108.562ZM563.773 101.242C563.138 101.914 562.396 102.25 561.547 102.25C560.547 102.25 559.75 101.901 559.156 101.203C558.562 100.5 558.266 99.5781 558.266 98.4375C558.266 97.6875 558.417 97.0078 558.719 96.3984C559.021 95.7891 559.451 95.3151 560.008 94.9766C560.565 94.638 561.211 94.4688 561.945 94.4688C563.091 94.4688 564 94.8958 564.672 95.75C565.344 96.6042 565.68 97.7474 565.68 99.1797V99.7109C565.68 101.763 565.216 103.328 564.289 104.406C563.362 105.484 561.979 106.031 560.141 106.047H559.914V104.477H560.188C561.307 104.461 562.167 104.193 562.766 103.672C563.365 103.146 563.701 102.336 563.773 101.242ZM561.945 100.766C562.326 100.766 562.682 100.656 563.016 100.438C563.349 100.219 563.607 99.9167 563.789 99.5312V98.7891C563.789 97.9505 563.617 97.276 563.273 96.7656C562.93 96.2552 562.484 96 561.938 96C561.391 96 560.953 96.2266 560.625 96.6797C560.302 97.1276 560.141 97.6953 560.141 98.3828C560.141 99.0964 560.305 99.6719 560.633 100.109C560.961 100.547 561.398 100.766 561.945 100.766ZM570.828 107.711C571.745 107.414 572.214 106.602 572.234 105.273V103.648C572.234 102.445 572.708 101.62 573.656 101.172C572.708 100.724 572.234 99.8906 572.234 98.6719V97.0547C572.214 95.7266 571.745 94.9141 570.828 94.6172L571.203 93.5234C572.151 93.7891 572.857 94.2214 573.32 94.8203C573.784 95.4141 574.016 96.1927 574.016 97.1562V98.7188C574.016 99.8906 574.521 100.477 575.531 100.477V101.867C574.521 101.867 574.016 102.453 574.016 103.625V105.164C574.016 106.138 573.781 106.922 573.312 107.516C572.849 108.115 572.146 108.547 571.203 108.812L570.828 107.711Z" fill="#FF5A43"/>
<g filter="url(#filter2_d)">
<path d="M0 8C0 3.58172 3.58172 0 8 0H221C225.418 0 229 3.58172 229 8V120H0V8Z" fill="white"/>
<line x1="0.5" y1="79.5" x2="228.5" y2="79.5" stroke="#5452F6"/>
<line x1="0.5" y1="39.5" x2="228.5" y2="39.5" stroke="#5452F6"/>
<path d="M65.1719 102.703C65.1719 102.365 65.0312 102.107 64.75 101.93C64.474 101.753 64.013 101.596 63.3672 101.461C62.7214 101.326 62.1823 101.154 61.75 100.945C60.8021 100.487 60.3281 99.8229 60.3281 98.9531C60.3281 98.224 60.6354 97.6146 61.25 97.125C61.8646 96.6354 62.6458 96.3906 63.5938 96.3906C64.6042 96.3906 65.4193 96.6406 66.0391 97.1406C66.6641 97.6406 66.9766 98.2891 66.9766 99.0859H65.0781C65.0781 98.7214 64.9427 98.4193 64.6719 98.1797C64.401 97.9349 64.0417 97.8125 63.5938 97.8125C63.1771 97.8125 62.8359 97.9089 62.5703 98.1016C62.3099 98.2943 62.1797 98.5521 62.1797 98.875C62.1797 99.1667 62.3021 99.3932 62.5469 99.5547C62.7917 99.7161 63.2865 99.8802 64.0312 100.047C64.776 100.208 65.3594 100.404 65.7812 100.633C66.2083 100.857 66.5234 101.128 66.7266 101.445C66.9349 101.763 67.0391 102.148 67.0391 102.602C67.0391 103.362 66.724 103.979 66.0938 104.453C65.4635 104.922 64.638 105.156 63.6172 105.156C62.9245 105.156 62.3073 105.031 61.7656 104.781C61.224 104.531 60.8021 104.188 60.5 103.75C60.1979 103.312 60.0469 102.841 60.0469 102.336H61.8906C61.9167 102.784 62.0859 103.13 62.3984 103.375C62.7109 103.615 63.125 103.734 63.6406 103.734C64.1406 103.734 64.5208 103.641 64.7812 103.453C65.0417 103.26 65.1719 103.01 65.1719 102.703ZM72.4219 105.156C71.2188 105.156 70.2422 104.779 69.4922 104.023C68.7474 103.263 68.375 102.253 68.375 100.992V100.758C68.375 99.9141 68.5365 99.1615 68.8594 98.5C69.1875 97.8333 69.6458 97.3151 70.2344 96.9453C70.8229 96.5755 71.4792 96.3906 72.2031 96.3906C73.3542 96.3906 74.2422 96.7578 74.8672 97.4922C75.4974 98.2266 75.8125 99.2656 75.8125 100.609V101.375H70.2891C70.3464 102.073 70.5781 102.625 70.9844 103.031C71.3958 103.438 71.9115 103.641 72.5312 103.641C73.401 103.641 74.1094 103.289 74.6562 102.586L75.6797 103.562C75.3411 104.068 74.888 104.461 74.3203 104.742C73.7578 105.018 73.125 105.156 72.4219 105.156ZM72.1953 97.9141C71.6745 97.9141 71.2526 98.0964 70.9297 98.4609C70.612 98.8255 70.4089 99.3333 70.3203 99.9844H73.9375V99.8438C73.8958 99.2083 73.7266 98.7292 73.4297 98.4062C73.1328 98.0781 72.7214 97.9141 72.1953 97.9141ZM79.6719 94.4922V96.5469H81.1641V97.9531H79.6719V102.672C79.6719 102.995 79.7344 103.229 79.8594 103.375C79.9896 103.516 80.2188 103.586 80.5469 103.586C80.7656 103.586 80.987 103.56 81.2109 103.508V104.977C80.7786 105.096 80.362 105.156 79.9609 105.156C78.5026 105.156 77.7734 104.352 77.7734 102.742V97.9531H76.3828V96.5469H77.7734V94.4922H79.6719ZM88.625 105H86.7266V96.5469H88.625V105ZM86.6094 94.3516C86.6094 94.0599 86.7005 93.8177 86.8828 93.625C87.0703 93.4323 87.3359 93.3359 87.6797 93.3359C88.0234 93.3359 88.2891 93.4323 88.4766 93.625C88.6641 93.8177 88.7578 94.0599 88.7578 94.3516C88.7578 94.638 88.6641 94.8776 88.4766 95.0703C88.2891 95.2578 88.0234 95.3516 87.6797 95.3516C87.3359 95.3516 87.0703 95.2578 86.8828 95.0703C86.7005 94.8776 86.6094 94.638 86.6094 94.3516ZM92.4609 96.5469L92.5156 97.5234C93.1406 96.7682 93.9609 96.3906 94.9766 96.3906C96.737 96.3906 97.6328 97.3984 97.6641 99.4141V105H95.7656V99.5234C95.7656 98.987 95.6484 98.5911 95.4141 98.3359C95.1849 98.0755 94.8073 97.9453 94.2812 97.9453C93.5156 97.9453 92.9453 98.2917 92.5703 98.9844V105H90.6719V96.5469H92.4609ZM101.984 94.4922V96.5469H103.477V97.9531H101.984V102.672C101.984 102.995 102.047 103.229 102.172 103.375C102.302 103.516 102.531 103.586 102.859 103.586C103.078 103.586 103.299 103.56 103.523 103.508V104.977C103.091 105.096 102.674 105.156 102.273 105.156C100.815 105.156 100.086 104.352 100.086 102.742V97.9531H98.6953V96.5469H100.086V94.4922H101.984ZM112.703 107.812C110.865 107.297 109.927 106.122 109.891 104.289V102.625C109.891 101.453 109.388 100.867 108.383 100.867V99.4766C109.388 99.4766 109.891 98.888 109.891 97.7109V96.0547C109.906 95.1172 110.148 94.3594 110.617 93.7812C111.091 93.2031 111.786 92.7839 112.703 92.5234L113.078 93.6172C112.177 93.9089 111.711 94.7057 111.68 96.0078V97.6953C111.68 98.8672 111.229 99.6901 110.328 100.164C111.229 100.643 111.68 101.474 111.68 102.656V104.32C111.711 105.622 112.177 106.419 113.078 106.711L112.703 107.812ZM123.297 105H121.406V95.8672L118.617 96.8203V95.2188L123.055 93.5859H123.297V105ZM128.352 96.3672C128.706 96.3672 128.979 96.4688 129.172 96.6719C129.365 96.8698 129.461 97.1198 129.461 97.4219C129.461 97.7188 129.365 97.9661 129.172 98.1641C128.979 98.3568 128.706 98.4531 128.352 98.4531C128.013 98.4531 127.745 98.3568 127.547 98.1641C127.349 97.9714 127.25 97.724 127.25 97.4219C127.25 97.1198 127.346 96.8698 127.539 96.6719C127.732 96.4688 128.003 96.3672 128.352 96.3672ZM127.781 107.562L126.758 106.953C127.06 106.479 127.266 106.065 127.375 105.711C127.49 105.362 127.549 105.005 127.555 104.641V103.164H129.266L129.258 104.531C129.253 105.083 129.112 105.635 128.836 106.188C128.565 106.745 128.214 107.203 127.781 107.562ZM137.242 98.4453H138.398C138.982 98.4401 139.443 98.2891 139.781 97.9922C140.125 97.6953 140.297 97.2656 140.297 96.7031C140.297 96.1615 140.154 95.7422 139.867 95.4453C139.586 95.1432 139.154 94.9922 138.57 94.9922C138.06 94.9922 137.641 95.1406 137.312 95.4375C136.984 95.7292 136.82 96.112 136.82 96.5859H134.922C134.922 96.0026 135.076 95.4714 135.383 94.9922C135.695 94.513 136.128 94.1406 136.68 93.875C137.237 93.6042 137.859 93.4688 138.547 93.4688C139.682 93.4688 140.573 93.7552 141.219 94.3281C141.87 94.8958 142.195 95.6875 142.195 96.7031C142.195 97.2135 142.031 97.6953 141.703 98.1484C141.38 98.5964 140.961 98.9349 140.445 99.1641C141.07 99.3776 141.544 99.7135 141.867 100.172C142.195 100.63 142.359 101.177 142.359 101.812C142.359 102.833 142.008 103.646 141.305 104.25C140.607 104.854 139.688 105.156 138.547 105.156C137.453 105.156 136.557 104.865 135.859 104.281C135.161 103.698 134.812 102.922 134.812 101.953H136.711C136.711 102.453 136.878 102.859 137.211 103.172C137.549 103.484 138.003 103.641 138.57 103.641C139.159 103.641 139.622 103.484 139.961 103.172C140.299 102.859 140.469 102.406 140.469 101.812C140.469 101.214 140.292 100.753 139.938 100.43C139.583 100.107 139.057 99.9453 138.359 99.9453H137.242V98.4453ZM145.242 96.3672C145.596 96.3672 145.87 96.4688 146.062 96.6719C146.255 96.8698 146.352 97.1198 146.352 97.4219C146.352 97.7188 146.255 97.9661 146.062 98.1641C145.87 98.3568 145.596 98.4531 145.242 98.4531C144.904 98.4531 144.635 98.3568 144.438 98.1641C144.24 97.9714 144.141 97.724 144.141 97.4219C144.141 97.1198 144.237 96.8698 144.43 96.6719C144.622 96.4688 144.893 96.3672 145.242 96.3672ZM144.672 107.562L143.648 106.953C143.951 106.479 144.156 106.065 144.266 105.711C144.38 105.362 144.44 105.005 144.445 104.641V103.164H146.156L146.148 104.531C146.143 105.083 146.003 105.635 145.727 106.188C145.456 106.745 145.104 107.203 144.672 107.562ZM157.32 100.242C156.685 100.914 155.943 101.25 155.094 101.25C154.094 101.25 153.297 100.901 152.703 100.203C152.109 99.5 151.812 98.5781 151.812 97.4375C151.812 96.6875 151.964 96.0078 152.266 95.3984C152.568 94.7891 152.997 94.3151 153.555 93.9766C154.112 93.638 154.758 93.4688 155.492 93.4688C156.638 93.4688 157.547 93.8958 158.219 94.75C158.891 95.6042 159.227 96.7474 159.227 98.1797V98.7109C159.227 100.763 158.763 102.328 157.836 103.406C156.909 104.484 155.526 105.031 153.688 105.047H153.461V103.477H153.734C154.854 103.461 155.714 103.193 156.312 102.672C156.911 102.146 157.247 101.336 157.32 100.242ZM155.492 99.7656C155.872 99.7656 156.229 99.6562 156.562 99.4375C156.896 99.2188 157.154 98.9167 157.336 98.5312V97.7891C157.336 96.9505 157.164 96.276 156.82 95.7656C156.477 95.2552 156.031 95 155.484 95C154.938 95 154.5 95.2266 154.172 95.6797C153.849 96.1276 153.688 96.6953 153.688 97.3828C153.688 98.0964 153.852 98.6719 154.18 99.1094C154.508 99.5469 154.945 99.7656 155.492 99.7656ZM164.375 106.711C165.292 106.414 165.76 105.602 165.781 104.273V102.648C165.781 101.445 166.255 100.62 167.203 100.172C166.255 99.724 165.781 98.8906 165.781 97.6719V96.0547C165.76 94.7266 165.292 93.9141 164.375 93.6172L164.75 92.5234C165.698 92.7891 166.404 93.2214 166.867 93.8203C167.331 94.4141 167.562 95.1927 167.562 96.1562V97.7188C167.562 98.8906 168.068 99.4766 169.078 99.4766V100.867C168.068 100.867 167.562 101.453 167.562 102.625V104.164C167.562 105.138 167.328 105.922 166.859 106.516C166.396 107.115 165.693 107.547 164.75 107.812L164.375 106.711Z" fill="#5452F6"/>
<path d="M107.719 55.2188H104.172V65H102.211V55.2188H98.6953V53.625H107.719V55.2188ZM112.945 58.2812C112.695 58.2396 112.438 58.2188 112.172 58.2188C111.302 58.2188 110.716 58.5521 110.414 59.2188V65H108.516V56.5469H110.328L110.375 57.4922C110.833 56.7578 111.469 56.3906 112.281 56.3906C112.552 56.3906 112.776 56.4271 112.953 56.5L112.945 58.2812ZM119.266 64.1719C118.708 64.8281 117.917 65.1562 116.891 65.1562C115.974 65.1562 115.279 64.888 114.805 64.3516C114.336 63.8151 114.102 63.0391 114.102 62.0234V56.5469H116V62C116 63.0729 116.445 63.6094 117.336 63.6094C118.258 63.6094 118.88 63.2786 119.203 62.6172V56.5469H121.102V65H119.312L119.266 64.1719ZM126.758 65.1562C125.555 65.1562 124.578 64.7786 123.828 64.0234C123.083 63.263 122.711 62.2526 122.711 60.9922V60.7578C122.711 59.9141 122.872 59.1615 123.195 58.5C123.523 57.8333 123.982 57.3151 124.57 56.9453C125.159 56.5755 125.815 56.3906 126.539 56.3906C127.69 56.3906 128.578 56.7578 129.203 57.4922C129.833 58.2266 130.148 59.2656 130.148 60.6094V61.375H124.625C124.682 62.0729 124.914 62.625 125.32 63.0312C125.732 63.4375 126.247 63.6406 126.867 63.6406C127.737 63.6406 128.445 63.2891 128.992 62.5859L130.016 63.5625C129.677 64.0677 129.224 64.4609 128.656 64.7422C128.094 65.0182 127.461 65.1562 126.758 65.1562ZM126.531 57.9141C126.01 57.9141 125.589 58.0964 125.266 58.4609C124.948 58.8255 124.745 59.3333 124.656 59.9844H128.273V59.8438C128.232 59.2083 128.062 58.7292 127.766 58.4062C127.469 58.0781 127.057 57.9141 126.531 57.9141Z" fill="#FF5A43"/>
<path d="M101.789 25H99.8906V16.5469H101.789V25ZM99.7734 14.3516C99.7734 14.0599 99.8646 13.8177 100.047 13.625C100.234 13.4323 100.5 13.3359 100.844 13.3359C101.188 13.3359 101.453 13.4323 101.641 13.625C101.828 13.8177 101.922 14.0599 101.922 14.3516C101.922 14.638 101.828 14.8776 101.641 15.0703C101.453 15.2578 101.188 15.3516 100.844 15.3516C100.5 15.3516 100.234 15.2578 100.047 15.0703C99.8646 14.8776 99.7734 14.638 99.7734 14.3516ZM105.625 16.5469L105.68 17.5234C106.305 16.7682 107.125 16.3906 108.141 16.3906C109.901 16.3906 110.797 17.3984 110.828 19.4141V25H108.93V19.5234C108.93 18.987 108.812 18.5911 108.578 18.3359C108.349 18.0755 107.971 17.9453 107.445 17.9453C106.68 17.9453 106.109 18.2917 105.734 18.9844V25H103.836V16.5469H105.625ZM115.148 14.4922V16.5469H116.641V17.9531H115.148V22.6719C115.148 22.9948 115.211 23.2292 115.336 23.375C115.466 23.5156 115.695 23.5859 116.023 23.5859C116.242 23.5859 116.464 23.5599 116.688 23.5078V24.9766C116.255 25.0964 115.839 25.1562 115.438 25.1562C113.979 25.1562 113.25 24.3516 113.25 22.7422V17.9531H111.859V16.5469H113.25V14.4922H115.148ZM129.531 14.6797L124.984 25H122.992L127.531 15.1484H121.648V13.625H129.531V14.6797Z" fill="#FF5A43"/>
<path d="M0.5 8C0.5 3.85786 3.85786 0.5 8 0.5H221C225.142 0.5 228.5 3.85787 228.5 8V119.5H0.5V8Z" stroke="#5452F6"/>
</g>
<g filter="url(#filter3_d)">
<path d="M0 119H229V135C229 139.418 225.418 143 221 143H8.00001C3.58173 143 0 139.418 0 135V119Z" fill="#EEEEFF"/>
<path d="M0.5 119.5H228.5V135C228.5 139.142 225.142 142.5 221 142.5H8.00001C3.85787 142.5 0.5 139.142 0.5 135V119.5Z" stroke="#5452F6"/>
</g>
<defs>
<filter id="filter0_d" x="400" y="79" width="233" height="45" filterUnits="userSpaceOnUse" color-interpolation-filters="sRGB">
<feFlood flood-opacity="0" result="BackgroundImageFix"/>
<feColorMatrix in="SourceAlpha" type="matrix" values="0 0 0 0 0 0 0 0 0 0 0 0 0 0 0 0 0 0 127 0"/>
<feOffset dx="4" dy="4"/>
<feColorMatrix type="matrix" values="0 0 0 0 0.674908 0 0 0 0 0.662083 0 0 0 0 0.945833 0 0 0 1 0"/>
<feBlend mode="normal" in2="BackgroundImageFix" result="effect1_dropShadow"/>
<feBlend mode="normal" in="SourceGraphic" in2="effect1_dropShadow" result="shape"/>
</filter>
<filter id="filter1_d" x="400" y="119" width="233" height="28" filterUnits="userSpaceOnUse" color-interpolation-filters="sRGB">
<feFlood flood-opacity="0" result="BackgroundImageFix"/>
<feColorMatrix in="SourceAlpha" type="matrix" values="0 0 0 0 0 0 0 0 0 0 0 0 0 0 0 0 0 0 127 0"/>
<feOffset dx="4" dy="4"/>
<feColorMatrix type="matrix" values="0 0 0 0 0.674908 0 0 0 0 0.662083 0 0 0 0 0.945833 0 0 0 1 0"/>
<feBlend mode="normal" in2="BackgroundImageFix" result="effect1_dropShadow"/>
<feBlend mode="normal" in="SourceGraphic" in2="effect1_dropShadow" result="shape"/>
</filter>
<filter id="filter2_d" x="0" y="0" width="233" height="124" filterUnits="userSpaceOnUse" color-interpolation-filters="sRGB">
<feFlood flood-opacity="0" result="BackgroundImageFix"/>
<feColorMatrix in="SourceAlpha" type="matrix" values="0 0 0 0 0 0 0 0 0 0 0 0 0 0 0 0 0 0 127 0"/>
<feOffset dx="4" dy="4"/>
<feColorMatrix type="matrix" values="0 0 0 0 0.674908 0 0 0 0 0.662083 0 0 0 0 0.945833 0 0 0 1 0"/>
<feBlend mode="normal" in2="BackgroundImageFix" result="effect1_dropShadow"/>
<feBlend mode="normal" in="SourceGraphic" in2="effect1_dropShadow" result="shape"/>
</filter>
<filter id="filter3_d" x="0" y="119" width="233" height="28" filterUnits="userSpaceOnUse" color-interpolation-filters="sRGB">
<feFlood flood-opacity="0" result="BackgroundImageFix"/>
<feColorMatrix in="SourceAlpha" type="matrix" values="0 0 0 0 0 0 0 0 0 0 0 0 0 0 0 0 0 0 127 0"/>
<feOffset dx="4" dy="4"/>
<feColorMatrix type="matrix" values="0 0 0 0 0.674908 0 0 0 0 0.662083 0 0 0 0 0.945833 0 0 0 1 0"/>
<feBlend mode="normal" in2="BackgroundImageFix" result="effect1_dropShadow"/>
<feBlend mode="normal" in="SourceGraphic" in2="effect1_dropShadow" result="shape"/>
</filter>
</defs>
</svg>
