<svg width="633" height="337" viewBox="0 0 633 337" fill="none" xmlns="http://www.w3.org/2000/svg">
<line x1="252" y1="120.5" x2="386" y2="120.5" stroke="#65BF73" stroke-width="2"/>
<path d="M376 111L386.5 120.5L376 129.5" stroke="#65BF73" stroke-width="2" stroke-linecap="round" stroke-linejoin="round"/>
<circle cx="247.5" cy="121" r="5.5" stroke="#65BF73" stroke-width="2"/>
<path d="M302.094 98.7344L304.484 94.625H306.766L303.328 100.266L306.844 106H304.539L302.094 101.828L299.641 106H297.344L300.867 100.266L297.422 94.625H299.703L302.094 98.7344ZM317.18 100.609C317.18 101.724 316.987 102.703 316.602 103.547C316.216 104.385 315.664 105.031 314.945 105.484C314.232 105.932 313.409 106.156 312.477 106.156C311.555 106.156 310.732 105.932 310.008 105.484C309.289 105.031 308.732 104.388 308.336 103.555C307.945 102.721 307.747 101.76 307.742 100.672V100.031C307.742 98.9219 307.938 97.9427 308.328 97.0938C308.724 96.2448 309.279 95.5964 309.992 95.1484C310.711 94.6953 311.534 94.4688 312.461 94.4688C313.388 94.4688 314.208 94.6927 314.922 95.1406C315.641 95.5833 316.195 96.224 316.586 97.0625C316.977 97.8958 317.174 98.8672 317.18 99.9766V100.609ZM315.203 100.016C315.203 98.7552 314.964 97.7891 314.484 97.1172C314.01 96.4453 313.336 96.1094 312.461 96.1094C311.607 96.1094 310.938 96.4453 310.453 97.1172C309.974 97.7839 309.729 98.7292 309.719 99.9531V100.609C309.719 101.859 309.961 102.826 310.445 103.508C310.935 104.19 311.612 104.531 312.477 104.531C313.352 104.531 314.023 104.198 314.492 103.531C314.966 102.865 315.203 101.891 315.203 100.609V100.016ZM323.328 101.617H321.125V106H319.148V94.625H323.148C324.461 94.625 325.474 94.9193 326.188 95.5078C326.901 96.0964 327.258 96.9479 327.258 98.0625C327.258 98.8229 327.073 99.4609 326.703 99.9766C326.339 100.487 325.828 100.88 325.172 101.156L327.727 105.898V106H325.609L323.328 101.617ZM321.125 100.031H323.156C323.823 100.031 324.344 99.8646 324.719 99.5312C325.094 99.1927 325.281 98.7318 325.281 98.1484C325.281 97.5391 325.107 97.0677 324.758 96.7344C324.414 96.401 323.898 96.2292 323.211 96.2188H321.125V100.031Z" fill="#65BF73"/>
<line x1="252" y1="310.5" x2="386" y2="310.5" stroke="#65BF73" stroke-width="2"/>
<path d="M376 301L386.5 310.5L376 319.5" stroke="#65BF73" stroke-width="2" stroke-linecap="round" stroke-linejoin="round"/>
<circle cx="247.5" cy="311" r="5.5" stroke="#65BF73" stroke-width="2"/>
<path d="M302.094 288.734L304.484 284.625H306.766L303.328 290.266L306.844 296H304.539L302.094 291.828L299.641 296H297.344L300.867 290.266L297.422 284.625H299.703L302.094 288.734ZM317.18 290.609C317.18 291.724 316.987 292.703 316.602 293.547C316.216 294.385 315.664 295.031 314.945 295.484C314.232 295.932 313.409 296.156 312.477 296.156C311.555 296.156 310.732 295.932 310.008 295.484C309.289 295.031 308.732 294.388 308.336 293.555C307.945 292.721 307.747 291.76 307.742 290.672V290.031C307.742 288.922 307.938 287.943 308.328 287.094C308.724 286.245 309.279 285.596 309.992 285.148C310.711 284.695 311.534 284.469 312.461 284.469C313.388 284.469 314.208 284.693 314.922 285.141C315.641 285.583 316.195 286.224 316.586 287.062C316.977 287.896 317.174 288.867 317.18 289.977V290.609ZM315.203 290.016C315.203 288.755 314.964 287.789 314.484 287.117C314.01 286.445 313.336 286.109 312.461 286.109C311.607 286.109 310.938 286.445 310.453 287.117C309.974 287.784 309.729 288.729 309.719 289.953V290.609C309.719 291.859 309.961 292.826 310.445 293.508C310.935 294.19 311.612 294.531 312.477 294.531C313.352 294.531 314.023 294.198 314.492 293.531C314.966 292.865 315.203 291.891 315.203 290.609V290.016ZM323.328 291.617H321.125V296H319.148V284.625H323.148C324.461 284.625 325.474 284.919 326.188 285.508C326.901 286.096 327.258 286.948 327.258 288.062C327.258 288.823 327.073 289.461 326.703 289.977C326.339 290.487 325.828 290.88 325.172 291.156L327.727 295.898V296H325.609L323.328 291.617ZM321.125 290.031H323.156C323.823 290.031 324.344 289.865 324.719 289.531C325.094 289.193 325.281 288.732 325.281 288.148C325.281 287.539 325.107 287.068 324.758 286.734C324.414 286.401 323.898 286.229 323.211 286.219H321.125V290.031Z" fill="#65BF73"/>
<g filter="url(#filter0_d)">
<path d="M0 8C0 3.58172 3.58172 0 8 0H221C225.418 0 229 3.58172 229 8V120H0V8Z" fill="white"/>
<line x1="0.5" y1="79.5" x2="228.5" y2="79.5" stroke="#5452F6"/>
<line x1="0.5" y1="39.5" x2="228.5" y2="39.5" stroke="#5452F6"/>
<path d="M73.7891 102.07C73.7891 101.57 73.612 101.185 73.2578 100.914C72.9089 100.643 72.276 100.37 71.3594 100.094C70.4427 99.8177 69.7135 99.5104 69.1719 99.1719C68.1354 98.5208 67.6172 97.6719 67.6172 96.625C67.6172 95.7083 67.9896 94.9531 68.7344 94.3594C69.4844 93.7656 70.4557 93.4688 71.6484 93.4688C72.4401 93.4688 73.1458 93.6146 73.7656 93.9062C74.3854 94.1979 74.8724 94.6146 75.2266 95.1562C75.5807 95.6927 75.7578 96.2891 75.7578 96.9453H73.7891C73.7891 96.3516 73.6016 95.888 73.2266 95.5547C72.8568 95.2161 72.3255 95.0469 71.6328 95.0469C70.987 95.0469 70.4844 95.1849 70.125 95.4609C69.7708 95.737 69.5938 96.1224 69.5938 96.6172C69.5938 97.0339 69.7865 97.3828 70.1719 97.6641C70.5573 97.9401 71.1927 98.2109 72.0781 98.4766C72.9635 98.737 73.6745 99.0365 74.2109 99.375C74.7474 99.7083 75.1406 100.094 75.3906 100.531C75.6406 100.964 75.7656 101.471 75.7656 102.055C75.7656 103.003 75.401 103.758 74.6719 104.32C73.9479 104.878 72.9635 105.156 71.7188 105.156C70.8958 105.156 70.138 105.005 69.4453 104.703C68.7578 104.396 68.2214 103.974 67.8359 103.438C67.4557 102.901 67.2656 102.276 67.2656 101.562H69.2422C69.2422 102.208 69.4557 102.708 69.8828 103.062C70.3099 103.417 70.9219 103.594 71.7188 103.594C72.4062 103.594 72.9219 103.456 73.2656 103.18C73.6146 102.898 73.7891 102.529 73.7891 102.07ZM79.6953 94.4922V96.5469H81.1875V97.9531H79.6953V102.672C79.6953 102.995 79.7578 103.229 79.8828 103.375C80.013 103.516 80.2422 103.586 80.5703 103.586C80.7891 103.586 81.0104 103.56 81.2344 103.508V104.977C80.8021 105.096 80.3854 105.156 79.9844 105.156C78.526 105.156 77.7969 104.352 77.7969 102.742V97.9531H76.4062V96.5469H77.7969V94.4922H79.6953ZM87.0703 98.2812C86.8203 98.2396 86.5625 98.2188 86.2969 98.2188C85.4271 98.2188 84.8411 98.5521 84.5391 99.2188V105H82.6406V96.5469H84.4531L84.5 97.4922C84.9583 96.7578 85.5938 96.3906 86.4062 96.3906C86.6771 96.3906 86.901 96.4271 87.0781 96.5L87.0703 98.2812ZM90.2891 105H88.3906V96.5469H90.2891V105ZM88.2734 94.3516C88.2734 94.0599 88.3646 93.8177 88.5469 93.625C88.7344 93.4323 89 93.3359 89.3438 93.3359C89.6875 93.3359 89.9531 93.4323 90.1406 93.625C90.3281 93.8177 90.4219 94.0599 90.4219 94.3516C90.4219 94.638 90.3281 94.8776 90.1406 95.0703C89.9531 95.2578 89.6875 95.3516 89.3438 95.3516C89 95.3516 88.7344 95.2578 88.5469 95.0703C88.3646 94.8776 88.2734 94.638 88.2734 94.3516ZM94.125 96.5469L94.1797 97.5234C94.8047 96.7682 95.625 96.3906 96.6406 96.3906C98.401 96.3906 99.2969 97.3984 99.3281 99.4141V105H97.4297V99.5234C97.4297 98.987 97.3125 98.5911 97.0781 98.3359C96.849 98.0755 96.4714 97.9453 95.9453 97.9453C95.1797 97.9453 94.6094 98.2917 94.2344 98.9844V105H92.3359V96.5469H94.125ZM100.938 100.711C100.938 99.3984 101.245 98.3516 101.859 97.5703C102.479 96.7839 103.299 96.3906 104.32 96.3906C105.284 96.3906 106.042 96.7266 106.594 97.3984L106.68 96.5469H108.391V104.742C108.391 105.852 108.044 106.727 107.352 107.367C106.664 108.008 105.734 108.328 104.562 108.328C103.943 108.328 103.336 108.198 102.742 107.938C102.154 107.682 101.706 107.346 101.398 106.93L102.297 105.789C102.88 106.482 103.599 106.828 104.453 106.828C105.083 106.828 105.581 106.656 105.945 106.312C106.31 105.974 106.492 105.474 106.492 104.812V104.242C105.945 104.852 105.216 105.156 104.305 105.156C103.315 105.156 102.505 104.763 101.875 103.977C101.25 103.19 100.938 102.102 100.938 100.711ZM102.828 100.875C102.828 101.724 103 102.393 103.344 102.883C103.693 103.367 104.174 103.609 104.789 103.609C105.555 103.609 106.122 103.281 106.492 102.625V98.9062C106.133 98.2656 105.57 97.9453 104.805 97.9453C104.18 97.9453 103.693 98.1927 103.344 98.6875C103 99.1823 102.828 99.9115 102.828 100.875ZM115.633 92.7969L116.602 93.3984C116.128 94.0911 115.883 94.8125 115.867 95.5625V96.75H114.203V95.6719C114.208 95.1719 114.344 94.651 114.609 94.1094C114.88 93.5625 115.221 93.125 115.633 92.7969ZM118.258 92.7969L119.227 93.3984C118.753 94.0911 118.508 94.8125 118.492 95.5625V96.75H116.828V95.6719C116.833 95.1719 116.969 94.651 117.234 94.1094C117.505 93.5625 117.846 93.125 118.258 92.7969ZM129.703 105H127.734V99.9453H122.648V105H120.672V93.625H122.648V98.3594H127.734V93.625H129.703V105ZM135.586 105.156C134.383 105.156 133.406 104.779 132.656 104.023C131.911 103.263 131.539 102.253 131.539 100.992V100.758C131.539 99.9141 131.701 99.1615 132.023 98.5C132.352 97.8333 132.81 97.3151 133.398 96.9453C133.987 96.5755 134.643 96.3906 135.367 96.3906C136.518 96.3906 137.406 96.7578 138.031 97.4922C138.661 98.2266 138.977 99.2656 138.977 100.609V101.375H133.453C133.51 102.073 133.742 102.625 134.148 103.031C134.56 103.438 135.076 103.641 135.695 103.641C136.565 103.641 137.273 103.289 137.82 102.586L138.844 103.562C138.505 104.068 138.052 104.461 137.484 104.742C136.922 105.018 136.289 105.156 135.586 105.156ZM135.359 97.9141C134.839 97.9141 134.417 98.0964 134.094 98.4609C133.776 98.8255 133.573 99.3333 133.484 99.9844H137.102V99.8438C137.06 99.2083 136.891 98.7292 136.594 98.4062C136.297 98.0781 135.885 97.9141 135.359 97.9141ZM142.477 105H140.578V93H142.477V105ZM146.57 105H144.672V93H146.57V105ZM148.289 100.695C148.289 99.8672 148.453 99.1224 148.781 98.4609C149.109 97.7943 149.57 97.2839 150.164 96.9297C150.758 96.5703 151.44 96.3906 152.211 96.3906C153.352 96.3906 154.276 96.7578 154.984 97.4922C155.698 98.2266 156.083 99.2005 156.141 100.414L156.148 100.859C156.148 101.693 155.987 102.438 155.664 103.094C155.346 103.75 154.888 104.258 154.289 104.617C153.695 104.977 153.008 105.156 152.227 105.156C151.034 105.156 150.078 104.76 149.359 103.969C148.646 103.172 148.289 102.112 148.289 100.789V100.695ZM150.188 100.859C150.188 101.729 150.367 102.411 150.727 102.906C151.086 103.396 151.586 103.641 152.227 103.641C152.867 103.641 153.365 103.391 153.719 102.891C154.078 102.391 154.258 101.659 154.258 100.695C154.258 99.8411 154.073 99.1641 153.703 98.6641C153.339 98.1641 152.841 97.9141 152.211 97.9141C151.591 97.9141 151.099 98.1615 150.734 98.6562C150.37 99.1458 150.188 99.8802 150.188 100.859ZM157.562 97L156.594 96.3984C157.062 95.7161 157.305 94.9948 157.32 94.2344V93H158.984V94.0781C158.984 94.6146 158.846 95.1562 158.57 95.7031C158.299 96.2448 157.964 96.6771 157.562 97ZM160.172 97L159.203 96.3984C159.672 95.7161 159.914 94.9948 159.93 94.2344V93H161.594V94.0781C161.594 94.6146 161.456 95.1562 161.18 95.7031C160.909 96.2448 160.573 96.6771 160.172 97Z" fill="#5452F6"/>
<path d="M107.719 55.2188H104.172V65H102.211V55.2188H98.6953V53.625H107.719V55.2188ZM112.945 58.2812C112.695 58.2396 112.438 58.2188 112.172 58.2188C111.302 58.2188 110.716 58.5521 110.414 59.2188V65H108.516V56.5469H110.328L110.375 57.4922C110.833 56.7578 111.469 56.3906 112.281 56.3906C112.552 56.3906 112.776 56.4271 112.953 56.5L112.945 58.2812ZM119.266 64.1719C118.708 64.8281 117.917 65.1562 116.891 65.1562C115.974 65.1562 115.279 64.888 114.805 64.3516C114.336 63.8151 114.102 63.0391 114.102 62.0234V56.5469H116V62C116 63.0729 116.445 63.6094 117.336 63.6094C118.258 63.6094 118.88 63.2786 119.203 62.6172V56.5469H121.102V65H119.312L119.266 64.1719ZM126.758 65.1562C125.555 65.1562 124.578 64.7786 123.828 64.0234C123.083 63.263 122.711 62.2526 122.711 60.9922V60.7578C122.711 59.9141 122.872 59.1615 123.195 58.5C123.523 57.8333 123.982 57.3151 124.57 56.9453C125.159 56.5755 125.815 56.3906 126.539 56.3906C127.69 56.3906 128.578 56.7578 129.203 57.4922C129.833 58.2266 130.148 59.2656 130.148 60.6094V61.375H124.625C124.682 62.0729 124.914 62.625 125.32 63.0312C125.732 63.4375 126.247 63.6406 126.867 63.6406C127.737 63.6406 128.445 63.2891 128.992 62.5859L130.016 63.5625C129.677 64.0677 129.224 64.4609 128.656 64.7422C128.094 65.0182 127.461 65.1562 126.758 65.1562ZM126.531 57.9141C126.01 57.9141 125.589 58.0964 125.266 58.4609C124.948 58.8255 124.745 59.3333 124.656 59.9844H128.273V59.8438C128.232 59.2083 128.062 58.7292 127.766 58.4062C127.469 58.0781 127.057 57.9141 126.531 57.9141Z" fill="#FF5A43"/>
<path d="M103.141 20.1797H98.5625V25H96.5859V13.625H103.812V15.2188H98.5625V18.6016H103.141V20.1797ZM109.984 25C109.901 24.8385 109.828 24.5755 109.766 24.2109C109.161 24.8411 108.422 25.1562 107.547 25.1562C106.698 25.1562 106.005 24.9141 105.469 24.4297C104.932 23.9453 104.664 23.3464 104.664 22.6328C104.664 21.7318 104.997 21.0417 105.664 20.5625C106.336 20.0781 107.294 19.8359 108.539 19.8359H109.703V19.2812C109.703 18.8438 109.581 18.4948 109.336 18.2344C109.091 17.9688 108.719 17.8359 108.219 17.8359C107.786 17.8359 107.432 17.9453 107.156 18.1641C106.88 18.3776 106.742 18.651 106.742 18.9844H104.844C104.844 18.5208 104.997 18.0885 105.305 17.6875C105.612 17.2812 106.029 16.9635 106.555 16.7344C107.086 16.5052 107.677 16.3906 108.328 16.3906C109.318 16.3906 110.107 16.6406 110.695 17.1406C111.284 17.6354 111.586 18.3333 111.602 19.2344V23.0469C111.602 23.8073 111.708 24.4141 111.922 24.8672V25H109.984ZM107.898 23.6328C108.273 23.6328 108.625 23.5417 108.953 23.3594C109.286 23.1771 109.536 22.9323 109.703 22.625V21.0312H108.68C107.977 21.0312 107.448 21.1536 107.094 21.3984C106.74 21.6432 106.562 21.9896 106.562 22.4375C106.562 22.8021 106.682 23.0938 106.922 23.3125C107.167 23.526 107.492 23.6328 107.898 23.6328ZM115.609 25H113.711V13H115.609V25ZM122.422 22.7031C122.422 22.3646 122.281 22.1068 122 21.9297C121.724 21.7526 121.263 21.5964 120.617 21.4609C119.971 21.3255 119.432 21.1536 119 20.9453C118.052 20.487 117.578 19.8229 117.578 18.9531C117.578 18.224 117.885 17.6146 118.5 17.125C119.115 16.6354 119.896 16.3906 120.844 16.3906C121.854 16.3906 122.669 16.6406 123.289 17.1406C123.914 17.6406 124.227 18.2891 124.227 19.0859H122.328C122.328 18.7214 122.193 18.4193 121.922 18.1797C121.651 17.9349 121.292 17.8125 120.844 17.8125C120.427 17.8125 120.086 17.9089 119.82 18.1016C119.56 18.2943 119.43 18.5521 119.43 18.875C119.43 19.1667 119.552 19.3932 119.797 19.5547C120.042 19.7161 120.536 19.8802 121.281 20.0469C122.026 20.2083 122.609 20.4036 123.031 20.6328C123.458 20.8568 123.773 21.1276 123.977 21.4453C124.185 21.763 124.289 22.1484 124.289 22.6016C124.289 23.362 123.974 23.9792 123.344 24.4531C122.714 24.9219 121.888 25.1562 120.867 25.1562C120.174 25.1562 119.557 25.0312 119.016 24.7812C118.474 24.5312 118.052 24.1875 117.75 23.75C117.448 23.3125 117.297 22.8411 117.297 22.3359H119.141C119.167 22.7839 119.336 23.1302 119.648 23.375C119.961 23.6146 120.375 23.7344 120.891 23.7344C121.391 23.7344 121.771 23.6406 122.031 23.4531C122.292 23.2604 122.422 23.0104 122.422 22.7031ZM129.672 25.1562C128.469 25.1562 127.492 24.7786 126.742 24.0234C125.997 23.263 125.625 22.2526 125.625 20.9922V20.7578C125.625 19.9141 125.786 19.1615 126.109 18.5C126.438 17.8333 126.896 17.3151 127.484 16.9453C128.073 16.5755 128.729 16.3906 129.453 16.3906C130.604 16.3906 131.492 16.7578 132.117 17.4922C132.747 18.2266 133.062 19.2656 133.062 20.6094V21.375H127.539C127.596 22.0729 127.828 22.625 128.234 23.0312C128.646 23.4375 129.161 23.6406 129.781 23.6406C130.651 23.6406 131.359 23.2891 131.906 22.5859L132.93 23.5625C132.591 24.0677 132.138 24.4609 131.57 24.7422C131.008 25.0182 130.375 25.1562 129.672 25.1562ZM129.445 17.9141C128.924 17.9141 128.503 18.0964 128.18 18.4609C127.862 18.8255 127.659 19.3333 127.57 19.9844H131.188V19.8438C131.146 19.2083 130.977 18.7292 130.68 18.4062C130.383 18.0781 129.971 17.9141 129.445 17.9141Z" fill="#FF5A43"/>
<path d="M0.5 8C0.5 3.85786 3.85786 0.5 8 0.5H221C225.142 0.5 228.5 3.85787 228.5 8V119.5H0.5V8Z" stroke="#5452F6"/>
</g>
<g filter="url(#filter1_d)">
<path d="M0 119H229V135C229 139.418 225.418 143 221 143H8.00001C3.58173 143 0 139.418 0 135V119Z" fill="#EEEEFF"/>
<path d="M0.5 119.5H228.5V135C228.5 139.142 225.142 142.5 221 142.5H8.00001C3.85787 142.5 0.5 139.142 0.5 135V119.5Z" stroke="#5452F6"/>
</g>
<g filter="url(#filter2_d)">
<path d="M400 48C400 43.5817 403.582 40 408 40H621C625.418 40 629 43.5817 629 48V120H400V48Z" fill="white"/>
<path d="M400.5 48C400.5 43.8579 403.858 40.5 408 40.5H621C625.142 40.5 628.5 43.8579 628.5 48V119.5H400.5V48Z" stroke="#5452F6"/>
</g>
<g filter="url(#filter3_d)">
<path d="M400 119H629V135C629 139.418 625.418 143 621 143H408C403.582 143 400 139.418 400 135V119Z" fill="#EEEEFF"/>
<path d="M400.5 119.5H628.5V135C628.5 139.142 625.142 142.5 621 142.5H408C403.858 142.5 400.5 139.142 400.5 135V119.5Z" stroke="#5452F6"/>
</g>
<line x1="400.5" y1="79.5" x2="628.5" y2="79.5" stroke="#5452F6"/>
<path d="M473.789 102.07C473.789 101.57 473.612 101.185 473.258 100.914C472.909 100.643 472.276 100.37 471.359 100.094C470.443 99.8177 469.714 99.5104 469.172 99.1719C468.135 98.5208 467.617 97.6719 467.617 96.625C467.617 95.7083 467.99 94.9531 468.734 94.3594C469.484 93.7656 470.456 93.4688 471.648 93.4688C472.44 93.4688 473.146 93.6146 473.766 93.9062C474.385 94.1979 474.872 94.6146 475.227 95.1562C475.581 95.6927 475.758 96.2891 475.758 96.9453H473.789C473.789 96.3516 473.602 95.888 473.227 95.5547C472.857 95.2161 472.326 95.0469 471.633 95.0469C470.987 95.0469 470.484 95.1849 470.125 95.4609C469.771 95.737 469.594 96.1224 469.594 96.6172C469.594 97.0339 469.786 97.3828 470.172 97.6641C470.557 97.9401 471.193 98.2109 472.078 98.4766C472.964 98.737 473.674 99.0365 474.211 99.375C474.747 99.7083 475.141 100.094 475.391 100.531C475.641 100.964 475.766 101.471 475.766 102.055C475.766 103.003 475.401 103.758 474.672 104.32C473.948 104.878 472.964 105.156 471.719 105.156C470.896 105.156 470.138 105.005 469.445 104.703C468.758 104.396 468.221 103.974 467.836 103.438C467.456 102.901 467.266 102.276 467.266 101.562H469.242C469.242 102.208 469.456 102.708 469.883 103.062C470.31 103.417 470.922 103.594 471.719 103.594C472.406 103.594 472.922 103.456 473.266 103.18C473.615 102.898 473.789 102.529 473.789 102.07ZM479.695 94.4922V96.5469H481.188V97.9531H479.695V102.672C479.695 102.995 479.758 103.229 479.883 103.375C480.013 103.516 480.242 103.586 480.57 103.586C480.789 103.586 481.01 103.56 481.234 103.508V104.977C480.802 105.096 480.385 105.156 479.984 105.156C478.526 105.156 477.797 104.352 477.797 102.742V97.9531H476.406V96.5469H477.797V94.4922H479.695ZM487.07 98.2812C486.82 98.2396 486.562 98.2188 486.297 98.2188C485.427 98.2188 484.841 98.5521 484.539 99.2188V105H482.641V96.5469H484.453L484.5 97.4922C484.958 96.7578 485.594 96.3906 486.406 96.3906C486.677 96.3906 486.901 96.4271 487.078 96.5L487.07 98.2812ZM490.289 105H488.391V96.5469H490.289V105ZM488.273 94.3516C488.273 94.0599 488.365 93.8177 488.547 93.625C488.734 93.4323 489 93.3359 489.344 93.3359C489.688 93.3359 489.953 93.4323 490.141 93.625C490.328 93.8177 490.422 94.0599 490.422 94.3516C490.422 94.638 490.328 94.8776 490.141 95.0703C489.953 95.2578 489.688 95.3516 489.344 95.3516C489 95.3516 488.734 95.2578 488.547 95.0703C488.365 94.8776 488.273 94.638 488.273 94.3516ZM494.125 96.5469L494.18 97.5234C494.805 96.7682 495.625 96.3906 496.641 96.3906C498.401 96.3906 499.297 97.3984 499.328 99.4141V105H497.43V99.5234C497.43 98.987 497.312 98.5911 497.078 98.3359C496.849 98.0755 496.471 97.9453 495.945 97.9453C495.18 97.9453 494.609 98.2917 494.234 98.9844V105H492.336V96.5469H494.125ZM500.938 100.711C500.938 99.3984 501.245 98.3516 501.859 97.5703C502.479 96.7839 503.299 96.3906 504.32 96.3906C505.284 96.3906 506.042 96.7266 506.594 97.3984L506.68 96.5469H508.391V104.742C508.391 105.852 508.044 106.727 507.352 107.367C506.664 108.008 505.734 108.328 504.562 108.328C503.943 108.328 503.336 108.198 502.742 107.938C502.154 107.682 501.706 107.346 501.398 106.93L502.297 105.789C502.88 106.482 503.599 106.828 504.453 106.828C505.083 106.828 505.581 106.656 505.945 106.312C506.31 105.974 506.492 105.474 506.492 104.812V104.242C505.945 104.852 505.216 105.156 504.305 105.156C503.315 105.156 502.505 104.763 501.875 103.977C501.25 103.19 500.938 102.102 500.938 100.711ZM502.828 100.875C502.828 101.724 503 102.393 503.344 102.883C503.693 103.367 504.174 103.609 504.789 103.609C505.555 103.609 506.122 103.281 506.492 102.625V98.9062C506.133 98.2656 505.57 97.9453 504.805 97.9453C504.18 97.9453 503.693 98.1927 503.344 98.6875C503 99.1823 502.828 99.9115 502.828 100.875ZM515.633 92.7969L516.602 93.3984C516.128 94.0911 515.883 94.8125 515.867 95.5625V96.75H514.203V95.6719C514.208 95.1719 514.344 94.651 514.609 94.1094C514.88 93.5625 515.221 93.125 515.633 92.7969ZM518.258 92.7969L519.227 93.3984C518.753 94.0911 518.508 94.8125 518.492 95.5625V96.75H516.828V95.6719C516.833 95.1719 516.969 94.651 517.234 94.1094C517.505 93.5625 517.846 93.125 518.258 92.7969ZM529.703 105H527.734V99.9453H522.648V105H520.672V93.625H522.648V98.3594H527.734V93.625H529.703V105ZM535.586 105.156C534.383 105.156 533.406 104.779 532.656 104.023C531.911 103.263 531.539 102.253 531.539 100.992V100.758C531.539 99.9141 531.701 99.1615 532.023 98.5C532.352 97.8333 532.81 97.3151 533.398 96.9453C533.987 96.5755 534.643 96.3906 535.367 96.3906C536.518 96.3906 537.406 96.7578 538.031 97.4922C538.661 98.2266 538.977 99.2656 538.977 100.609V101.375H533.453C533.51 102.073 533.742 102.625 534.148 103.031C534.56 103.438 535.076 103.641 535.695 103.641C536.565 103.641 537.273 103.289 537.82 102.586L538.844 103.562C538.505 104.068 538.052 104.461 537.484 104.742C536.922 105.018 536.289 105.156 535.586 105.156ZM535.359 97.9141C534.839 97.9141 534.417 98.0964 534.094 98.4609C533.776 98.8255 533.573 99.3333 533.484 99.9844H537.102V99.8438C537.06 99.2083 536.891 98.7292 536.594 98.4062C536.297 98.0781 535.885 97.9141 535.359 97.9141ZM542.477 105H540.578V93H542.477V105ZM546.57 105H544.672V93H546.57V105ZM548.289 100.695C548.289 99.8672 548.453 99.1224 548.781 98.4609C549.109 97.7943 549.57 97.2839 550.164 96.9297C550.758 96.5703 551.44 96.3906 552.211 96.3906C553.352 96.3906 554.276 96.7578 554.984 97.4922C555.698 98.2266 556.083 99.2005 556.141 100.414L556.148 100.859C556.148 101.693 555.987 102.438 555.664 103.094C555.346 103.75 554.888 104.258 554.289 104.617C553.695 104.977 553.008 105.156 552.227 105.156C551.034 105.156 550.078 104.76 549.359 103.969C548.646 103.172 548.289 102.112 548.289 100.789V100.695ZM550.188 100.859C550.188 101.729 550.367 102.411 550.727 102.906C551.086 103.396 551.586 103.641 552.227 103.641C552.867 103.641 553.365 103.391 553.719 102.891C554.078 102.391 554.258 101.659 554.258 100.695C554.258 99.8411 554.073 99.1641 553.703 98.6641C553.339 98.1641 552.841 97.9141 552.211 97.9141C551.591 97.9141 551.099 98.1615 550.734 98.6562C550.37 99.1458 550.188 99.8802 550.188 100.859ZM557.562 97L556.594 96.3984C557.062 95.7161 557.305 94.9948 557.32 94.2344V93H558.984V94.0781C558.984 94.6146 558.846 95.1562 558.57 95.7031C558.299 96.2448 557.964 96.6771 557.562 97ZM560.172 97L559.203 96.3984C559.672 95.7161 559.914 94.9948 559.93 94.2344V93H561.594V94.0781C561.594 94.6146 561.456 95.1562 561.18 95.7031C560.909 96.2448 560.573 96.6771 560.172 97Z" fill="#5452F6"/>
<path d="M507.719 55.2188H504.172V65H502.211V55.2188H498.695V53.625H507.719V55.2188ZM512.945 58.2812C512.695 58.2396 512.438 58.2188 512.172 58.2188C511.302 58.2188 510.716 58.5521 510.414 59.2188V65H508.516V56.5469H510.328L510.375 57.4922C510.833 56.7578 511.469 56.3906 512.281 56.3906C512.552 56.3906 512.776 56.4271 512.953 56.5L512.945 58.2812ZM519.266 64.1719C518.708 64.8281 517.917 65.1562 516.891 65.1562C515.974 65.1562 515.279 64.888 514.805 64.3516C514.336 63.8151 514.102 63.0391 514.102 62.0234V56.5469H516V62C516 63.0729 516.445 63.6094 517.336 63.6094C518.258 63.6094 518.88 63.2786 519.203 62.6172V56.5469H521.102V65H519.312L519.266 64.1719ZM526.758 65.1562C525.555 65.1562 524.578 64.7786 523.828 64.0234C523.083 63.263 522.711 62.2526 522.711 60.9922V60.7578C522.711 59.9141 522.872 59.1615 523.195 58.5C523.523 57.8333 523.982 57.3151 524.57 56.9453C525.159 56.5755 525.815 56.3906 526.539 56.3906C527.69 56.3906 528.578 56.7578 529.203 57.4922C529.833 58.2266 530.148 59.2656 530.148 60.6094V61.375H524.625C524.682 62.0729 524.914 62.625 525.32 63.0312C525.732 63.4375 526.247 63.6406 526.867 63.6406C527.737 63.6406 528.445 63.2891 528.992 62.5859L530.016 63.5625C529.677 64.0677 529.224 64.4609 528.656 64.7422C528.094 65.0182 527.461 65.1562 526.758 65.1562ZM526.531 57.9141C526.01 57.9141 525.589 58.0964 525.266 58.4609C524.948 58.8255 524.745 59.3333 524.656 59.9844H528.273V59.8438C528.232 59.2083 528.062 58.7292 527.766 58.4062C527.469 58.0781 527.057 57.9141 526.531 57.9141Z" fill="#FF5A43"/>
<g filter="url(#filter4_d)">
<path d="M0 198C0 193.582 3.58172 190 8 190H221C225.418 190 229 193.582 229 198V310H0V198Z" fill="white"/>
<line x1="0.5" y1="269.5" x2="228.5" y2="269.5" stroke="#5452F6"/>
<line x1="0.5" y1="229.5" x2="228.5" y2="229.5" stroke="#5452F6"/>
<path d="M73.7891 292.07C73.7891 291.57 73.612 291.185 73.2578 290.914C72.9089 290.643 72.276 290.37 71.3594 290.094C70.4427 289.818 69.7135 289.51 69.1719 289.172C68.1354 288.521 67.6172 287.672 67.6172 286.625C67.6172 285.708 67.9896 284.953 68.7344 284.359C69.4844 283.766 70.4557 283.469 71.6484 283.469C72.4401 283.469 73.1458 283.615 73.7656 283.906C74.3854 284.198 74.8724 284.615 75.2266 285.156C75.5807 285.693 75.7578 286.289 75.7578 286.945H73.7891C73.7891 286.352 73.6016 285.888 73.2266 285.555C72.8568 285.216 72.3255 285.047 71.6328 285.047C70.987 285.047 70.4844 285.185 70.125 285.461C69.7708 285.737 69.5938 286.122 69.5938 286.617C69.5938 287.034 69.7865 287.383 70.1719 287.664C70.5573 287.94 71.1927 288.211 72.0781 288.477C72.9635 288.737 73.6745 289.036 74.2109 289.375C74.7474 289.708 75.1406 290.094 75.3906 290.531C75.6406 290.964 75.7656 291.471 75.7656 292.055C75.7656 293.003 75.401 293.758 74.6719 294.32C73.9479 294.878 72.9635 295.156 71.7188 295.156C70.8958 295.156 70.138 295.005 69.4453 294.703C68.7578 294.396 68.2214 293.974 67.8359 293.438C67.4557 292.901 67.2656 292.276 67.2656 291.562H69.2422C69.2422 292.208 69.4557 292.708 69.8828 293.062C70.3099 293.417 70.9219 293.594 71.7188 293.594C72.4062 293.594 72.9219 293.456 73.2656 293.18C73.6146 292.898 73.7891 292.529 73.7891 292.07ZM79.6953 284.492V286.547H81.1875V287.953H79.6953V292.672C79.6953 292.995 79.7578 293.229 79.8828 293.375C80.013 293.516 80.2422 293.586 80.5703 293.586C80.7891 293.586 81.0104 293.56 81.2344 293.508V294.977C80.8021 295.096 80.3854 295.156 79.9844 295.156C78.526 295.156 77.7969 294.352 77.7969 292.742V287.953H76.4062V286.547H77.7969V284.492H79.6953ZM87.0703 288.281C86.8203 288.24 86.5625 288.219 86.2969 288.219C85.4271 288.219 84.8411 288.552 84.5391 289.219V295H82.6406V286.547H84.4531L84.5 287.492C84.9583 286.758 85.5938 286.391 86.4062 286.391C86.6771 286.391 86.901 286.427 87.0781 286.5L87.0703 288.281ZM90.2891 295H88.3906V286.547H90.2891V295ZM88.2734 284.352C88.2734 284.06 88.3646 283.818 88.5469 283.625C88.7344 283.432 89 283.336 89.3438 283.336C89.6875 283.336 89.9531 283.432 90.1406 283.625C90.3281 283.818 90.4219 284.06 90.4219 284.352C90.4219 284.638 90.3281 284.878 90.1406 285.07C89.9531 285.258 89.6875 285.352 89.3438 285.352C89 285.352 88.7344 285.258 88.5469 285.07C88.3646 284.878 88.2734 284.638 88.2734 284.352ZM94.125 286.547L94.1797 287.523C94.8047 286.768 95.625 286.391 96.6406 286.391C98.401 286.391 99.2969 287.398 99.3281 289.414V295H97.4297V289.523C97.4297 288.987 97.3125 288.591 97.0781 288.336C96.849 288.076 96.4714 287.945 95.9453 287.945C95.1797 287.945 94.6094 288.292 94.2344 288.984V295H92.3359V286.547H94.125ZM100.938 290.711C100.938 289.398 101.245 288.352 101.859 287.57C102.479 286.784 103.299 286.391 104.32 286.391C105.284 286.391 106.042 286.727 106.594 287.398L106.68 286.547H108.391V294.742C108.391 295.852 108.044 296.727 107.352 297.367C106.664 298.008 105.734 298.328 104.562 298.328C103.943 298.328 103.336 298.198 102.742 297.938C102.154 297.682 101.706 297.346 101.398 296.93L102.297 295.789C102.88 296.482 103.599 296.828 104.453 296.828C105.083 296.828 105.581 296.656 105.945 296.312C106.31 295.974 106.492 295.474 106.492 294.812V294.242C105.945 294.852 105.216 295.156 104.305 295.156C103.315 295.156 102.505 294.763 101.875 293.977C101.25 293.19 100.938 292.102 100.938 290.711ZM102.828 290.875C102.828 291.724 103 292.393 103.344 292.883C103.693 293.367 104.174 293.609 104.789 293.609C105.555 293.609 106.122 293.281 106.492 292.625V288.906C106.133 288.266 105.57 287.945 104.805 287.945C104.18 287.945 103.693 288.193 103.344 288.688C103 289.182 102.828 289.911 102.828 290.875ZM115.633 282.797L116.602 283.398C116.128 284.091 115.883 284.812 115.867 285.562V286.75H114.203V285.672C114.208 285.172 114.344 284.651 114.609 284.109C114.88 283.562 115.221 283.125 115.633 282.797ZM118.258 282.797L119.227 283.398C118.753 284.091 118.508 284.812 118.492 285.562V286.75H116.828V285.672C116.833 285.172 116.969 284.651 117.234 284.109C117.505 283.562 117.846 283.125 118.258 282.797ZM129.703 295H127.734V289.945H122.648V295H120.672V283.625H122.648V288.359H127.734V283.625H129.703V295ZM135.586 295.156C134.383 295.156 133.406 294.779 132.656 294.023C131.911 293.263 131.539 292.253 131.539 290.992V290.758C131.539 289.914 131.701 289.161 132.023 288.5C132.352 287.833 132.81 287.315 133.398 286.945C133.987 286.576 134.643 286.391 135.367 286.391C136.518 286.391 137.406 286.758 138.031 287.492C138.661 288.227 138.977 289.266 138.977 290.609V291.375H133.453C133.51 292.073 133.742 292.625 134.148 293.031C134.56 293.438 135.076 293.641 135.695 293.641C136.565 293.641 137.273 293.289 137.82 292.586L138.844 293.562C138.505 294.068 138.052 294.461 137.484 294.742C136.922 295.018 136.289 295.156 135.586 295.156ZM135.359 287.914C134.839 287.914 134.417 288.096 134.094 288.461C133.776 288.826 133.573 289.333 133.484 289.984H137.102V289.844C137.06 289.208 136.891 288.729 136.594 288.406C136.297 288.078 135.885 287.914 135.359 287.914ZM142.477 295H140.578V283H142.477V295ZM146.57 295H144.672V283H146.57V295ZM148.289 290.695C148.289 289.867 148.453 289.122 148.781 288.461C149.109 287.794 149.57 287.284 150.164 286.93C150.758 286.57 151.44 286.391 152.211 286.391C153.352 286.391 154.276 286.758 154.984 287.492C155.698 288.227 156.083 289.201 156.141 290.414L156.148 290.859C156.148 291.693 155.987 292.438 155.664 293.094C155.346 293.75 154.888 294.258 154.289 294.617C153.695 294.977 153.008 295.156 152.227 295.156C151.034 295.156 150.078 294.76 149.359 293.969C148.646 293.172 148.289 292.112 148.289 290.789V290.695ZM150.188 290.859C150.188 291.729 150.367 292.411 150.727 292.906C151.086 293.396 151.586 293.641 152.227 293.641C152.867 293.641 153.365 293.391 153.719 292.891C154.078 292.391 154.258 291.659 154.258 290.695C154.258 289.841 154.073 289.164 153.703 288.664C153.339 288.164 152.841 287.914 152.211 287.914C151.591 287.914 151.099 288.161 150.734 288.656C150.37 289.146 150.188 289.88 150.188 290.859ZM157.562 287L156.594 286.398C157.062 285.716 157.305 284.995 157.32 284.234V283H158.984V284.078C158.984 284.615 158.846 285.156 158.57 285.703C158.299 286.245 157.964 286.677 157.562 287ZM160.172 287L159.203 286.398C159.672 285.716 159.914 284.995 159.93 284.234V283H161.594V284.078C161.594 284.615 161.456 285.156 161.18 285.703C160.909 286.245 160.573 286.677 160.172 287Z" fill="#5452F6"/>
<path d="M107.719 245.219H104.172V255H102.211V245.219H98.6953V243.625H107.719V245.219ZM112.945 248.281C112.695 248.24 112.438 248.219 112.172 248.219C111.302 248.219 110.716 248.552 110.414 249.219V255H108.516V246.547H110.328L110.375 247.492C110.833 246.758 111.469 246.391 112.281 246.391C112.552 246.391 112.776 246.427 112.953 246.5L112.945 248.281ZM119.266 254.172C118.708 254.828 117.917 255.156 116.891 255.156C115.974 255.156 115.279 254.888 114.805 254.352C114.336 253.815 114.102 253.039 114.102 252.023V246.547H116V252C116 253.073 116.445 253.609 117.336 253.609C118.258 253.609 118.88 253.279 119.203 252.617V246.547H121.102V255H119.312L119.266 254.172ZM126.758 255.156C125.555 255.156 124.578 254.779 123.828 254.023C123.083 253.263 122.711 252.253 122.711 250.992V250.758C122.711 249.914 122.872 249.161 123.195 248.5C123.523 247.833 123.982 247.315 124.57 246.945C125.159 246.576 125.815 246.391 126.539 246.391C127.69 246.391 128.578 246.758 129.203 247.492C129.833 248.227 130.148 249.266 130.148 250.609V251.375H124.625C124.682 252.073 124.914 252.625 125.32 253.031C125.732 253.438 126.247 253.641 126.867 253.641C127.737 253.641 128.445 253.289 128.992 252.586L130.016 253.562C129.677 254.068 129.224 254.461 128.656 254.742C128.094 255.018 127.461 255.156 126.758 255.156ZM126.531 247.914C126.01 247.914 125.589 248.096 125.266 248.461C124.948 248.826 124.745 249.333 124.656 249.984H128.273V249.844C128.232 249.208 128.062 248.729 127.766 248.406C127.469 248.078 127.057 247.914 126.531 247.914Z" fill="#FF5A43"/>
<path d="M107.719 205.219H104.172V215H102.211V205.219H98.6953V203.625H107.719V205.219ZM112.945 208.281C112.695 208.24 112.438 208.219 112.172 208.219C111.302 208.219 110.716 208.552 110.414 209.219V215H108.516V206.547H110.328L110.375 207.492C110.833 206.758 111.469 206.391 112.281 206.391C112.552 206.391 112.776 206.427 112.953 206.5L112.945 208.281ZM119.266 214.172C118.708 214.828 117.917 215.156 116.891 215.156C115.974 215.156 115.279 214.888 114.805 214.352C114.336 213.815 114.102 213.039 114.102 212.023V206.547H116V212C116 213.073 116.445 213.609 117.336 213.609C118.258 213.609 118.88 213.279 119.203 212.617V206.547H121.102V215H119.312L119.266 214.172ZM126.758 215.156C125.555 215.156 124.578 214.779 123.828 214.023C123.083 213.263 122.711 212.253 122.711 210.992V210.758C122.711 209.914 122.872 209.161 123.195 208.5C123.523 207.833 123.982 207.315 124.57 206.945C125.159 206.576 125.815 206.391 126.539 206.391C127.69 206.391 128.578 206.758 129.203 207.492C129.833 208.227 130.148 209.266 130.148 210.609V211.375H124.625C124.682 212.073 124.914 212.625 125.32 213.031C125.732 213.438 126.247 213.641 126.867 213.641C127.737 213.641 128.445 213.289 128.992 212.586L130.016 213.562C129.677 214.068 129.224 214.461 128.656 214.742C128.094 215.018 127.461 215.156 126.758 215.156ZM126.531 207.914C126.01 207.914 125.589 208.096 125.266 208.461C124.948 208.826 124.745 209.333 124.656 209.984H128.273V209.844C128.232 209.208 128.062 208.729 127.766 208.406C127.469 208.078 127.057 207.914 126.531 207.914Z" fill="#FF5A43"/>
<path d="M0.5 198C0.5 193.858 3.85786 190.5 8 190.5H221C225.142 190.5 228.5 193.858 228.5 198V309.5H0.5V198Z" stroke="#5452F6"/>
</g>
<g filter="url(#filter5_d)">
<path d="M0 309H229V325C229 329.418 225.418 333 221 333H8.00001C3.58173 333 0 329.418 0 325V309Z" fill="#EEEEFF"/>
<path d="M0.5 309.5H228.5V325C228.5 329.142 225.142 332.5 221 332.5H8.00001C3.85787 332.5 0.5 329.142 0.5 325V309.5Z" stroke="#5452F6"/>
</g>
<g filter="url(#filter6_d)">
<path d="M400 238C400 233.582 403.582 230 408 230H621C625.418 230 629 233.582 629 238V310H400V238Z" fill="white"/>
<path d="M400.5 238C400.5 233.858 403.858 230.5 408 230.5H621C625.142 230.5 628.5 233.858 628.5 238V309.5H400.5V238Z" stroke="#5452F6"/>
</g>
<g filter="url(#filter7_d)">
<path d="M400 309H629V325C629 329.418 625.418 333 621 333H408C403.582 333 400 329.418 400 325V309Z" fill="#EEEEFF"/>
<path d="M400.5 309.5H628.5V325C628.5 329.142 625.142 332.5 621 332.5H408C403.858 332.5 400.5 329.142 400.5 325V309.5Z" stroke="#5452F6"/>
</g>
<line x1="400.5" y1="269.5" x2="628.5" y2="269.5" stroke="#5452F6"/>
<path d="M473.789 292.07C473.789 291.57 473.612 291.185 473.258 290.914C472.909 290.643 472.276 290.37 471.359 290.094C470.443 289.818 469.714 289.51 469.172 289.172C468.135 288.521 467.617 287.672 467.617 286.625C467.617 285.708 467.99 284.953 468.734 284.359C469.484 283.766 470.456 283.469 471.648 283.469C472.44 283.469 473.146 283.615 473.766 283.906C474.385 284.198 474.872 284.615 475.227 285.156C475.581 285.693 475.758 286.289 475.758 286.945H473.789C473.789 286.352 473.602 285.888 473.227 285.555C472.857 285.216 472.326 285.047 471.633 285.047C470.987 285.047 470.484 285.185 470.125 285.461C469.771 285.737 469.594 286.122 469.594 286.617C469.594 287.034 469.786 287.383 470.172 287.664C470.557 287.94 471.193 288.211 472.078 288.477C472.964 288.737 473.674 289.036 474.211 289.375C474.747 289.708 475.141 290.094 475.391 290.531C475.641 290.964 475.766 291.471 475.766 292.055C475.766 293.003 475.401 293.758 474.672 294.32C473.948 294.878 472.964 295.156 471.719 295.156C470.896 295.156 470.138 295.005 469.445 294.703C468.758 294.396 468.221 293.974 467.836 293.438C467.456 292.901 467.266 292.276 467.266 291.562H469.242C469.242 292.208 469.456 292.708 469.883 293.062C470.31 293.417 470.922 293.594 471.719 293.594C472.406 293.594 472.922 293.456 473.266 293.18C473.615 292.898 473.789 292.529 473.789 292.07ZM479.695 284.492V286.547H481.188V287.953H479.695V292.672C479.695 292.995 479.758 293.229 479.883 293.375C480.013 293.516 480.242 293.586 480.57 293.586C480.789 293.586 481.01 293.56 481.234 293.508V294.977C480.802 295.096 480.385 295.156 479.984 295.156C478.526 295.156 477.797 294.352 477.797 292.742V287.953H476.406V286.547H477.797V284.492H479.695ZM487.07 288.281C486.82 288.24 486.562 288.219 486.297 288.219C485.427 288.219 484.841 288.552 484.539 289.219V295H482.641V286.547H484.453L484.5 287.492C484.958 286.758 485.594 286.391 486.406 286.391C486.677 286.391 486.901 286.427 487.078 286.5L487.07 288.281ZM490.289 295H488.391V286.547H490.289V295ZM488.273 284.352C488.273 284.06 488.365 283.818 488.547 283.625C488.734 283.432 489 283.336 489.344 283.336C489.688 283.336 489.953 283.432 490.141 283.625C490.328 283.818 490.422 284.06 490.422 284.352C490.422 284.638 490.328 284.878 490.141 285.07C489.953 285.258 489.688 285.352 489.344 285.352C489 285.352 488.734 285.258 488.547 285.07C488.365 284.878 488.273 284.638 488.273 284.352ZM494.125 286.547L494.18 287.523C494.805 286.768 495.625 286.391 496.641 286.391C498.401 286.391 499.297 287.398 499.328 289.414V295H497.43V289.523C497.43 288.987 497.312 288.591 497.078 288.336C496.849 288.076 496.471 287.945 495.945 287.945C495.18 287.945 494.609 288.292 494.234 288.984V295H492.336V286.547H494.125ZM500.938 290.711C500.938 289.398 501.245 288.352 501.859 287.57C502.479 286.784 503.299 286.391 504.32 286.391C505.284 286.391 506.042 286.727 506.594 287.398L506.68 286.547H508.391V294.742C508.391 295.852 508.044 296.727 507.352 297.367C506.664 298.008 505.734 298.328 504.562 298.328C503.943 298.328 503.336 298.198 502.742 297.938C502.154 297.682 501.706 297.346 501.398 296.93L502.297 295.789C502.88 296.482 503.599 296.828 504.453 296.828C505.083 296.828 505.581 296.656 505.945 296.312C506.31 295.974 506.492 295.474 506.492 294.812V294.242C505.945 294.852 505.216 295.156 504.305 295.156C503.315 295.156 502.505 294.763 501.875 293.977C501.25 293.19 500.938 292.102 500.938 290.711ZM502.828 290.875C502.828 291.724 503 292.393 503.344 292.883C503.693 293.367 504.174 293.609 504.789 293.609C505.555 293.609 506.122 293.281 506.492 292.625V288.906C506.133 288.266 505.57 287.945 504.805 287.945C504.18 287.945 503.693 288.193 503.344 288.688C503 289.182 502.828 289.911 502.828 290.875ZM515.633 282.797L516.602 283.398C516.128 284.091 515.883 284.812 515.867 285.562V286.75H514.203V285.672C514.208 285.172 514.344 284.651 514.609 284.109C514.88 283.562 515.221 283.125 515.633 282.797ZM518.258 282.797L519.227 283.398C518.753 284.091 518.508 284.812 518.492 285.562V286.75H516.828V285.672C516.833 285.172 516.969 284.651 517.234 284.109C517.505 283.562 517.846 283.125 518.258 282.797ZM529.703 295H527.734V289.945H522.648V295H520.672V283.625H522.648V288.359H527.734V283.625H529.703V295ZM535.586 295.156C534.383 295.156 533.406 294.779 532.656 294.023C531.911 293.263 531.539 292.253 531.539 290.992V290.758C531.539 289.914 531.701 289.161 532.023 288.5C532.352 287.833 532.81 287.315 533.398 286.945C533.987 286.576 534.643 286.391 535.367 286.391C536.518 286.391 537.406 286.758 538.031 287.492C538.661 288.227 538.977 289.266 538.977 290.609V291.375H533.453C533.51 292.073 533.742 292.625 534.148 293.031C534.56 293.438 535.076 293.641 535.695 293.641C536.565 293.641 537.273 293.289 537.82 292.586L538.844 293.562C538.505 294.068 538.052 294.461 537.484 294.742C536.922 295.018 536.289 295.156 535.586 295.156ZM535.359 287.914C534.839 287.914 534.417 288.096 534.094 288.461C533.776 288.826 533.573 289.333 533.484 289.984H537.102V289.844C537.06 289.208 536.891 288.729 536.594 288.406C536.297 288.078 535.885 287.914 535.359 287.914ZM542.477 295H540.578V283H542.477V295ZM546.57 295H544.672V283H546.57V295ZM548.289 290.695C548.289 289.867 548.453 289.122 548.781 288.461C549.109 287.794 549.57 287.284 550.164 286.93C550.758 286.57 551.44 286.391 552.211 286.391C553.352 286.391 554.276 286.758 554.984 287.492C555.698 288.227 556.083 289.201 556.141 290.414L556.148 290.859C556.148 291.693 555.987 292.438 555.664 293.094C555.346 293.75 554.888 294.258 554.289 294.617C553.695 294.977 553.008 295.156 552.227 295.156C551.034 295.156 550.078 294.76 549.359 293.969C548.646 293.172 548.289 292.112 548.289 290.789V290.695ZM550.188 290.859C550.188 291.729 550.367 292.411 550.727 292.906C551.086 293.396 551.586 293.641 552.227 293.641C552.867 293.641 553.365 293.391 553.719 292.891C554.078 292.391 554.258 291.659 554.258 290.695C554.258 289.841 554.073 289.164 553.703 288.664C553.339 288.164 552.841 287.914 552.211 287.914C551.591 287.914 551.099 288.161 550.734 288.656C550.37 289.146 550.188 289.88 550.188 290.859ZM557.562 287L556.594 286.398C557.062 285.716 557.305 284.995 557.32 284.234V283H558.984V284.078C558.984 284.615 558.846 285.156 558.57 285.703C558.299 286.245 557.964 286.677 557.562 287ZM560.172 287L559.203 286.398C559.672 285.716 559.914 284.995 559.93 284.234V283H561.594V284.078C561.594 284.615 561.456 285.156 561.18 285.703C560.909 286.245 560.573 286.677 560.172 287Z" fill="#5452F6"/>
<path d="M503.141 250.18H498.562V255H496.586V243.625H503.812V245.219H498.562V248.602H503.141V250.18ZM509.984 255C509.901 254.839 509.828 254.576 509.766 254.211C509.161 254.841 508.422 255.156 507.547 255.156C506.698 255.156 506.005 254.914 505.469 254.43C504.932 253.945 504.664 253.346 504.664 252.633C504.664 251.732 504.997 251.042 505.664 250.562C506.336 250.078 507.294 249.836 508.539 249.836H509.703V249.281C509.703 248.844 509.581 248.495 509.336 248.234C509.091 247.969 508.719 247.836 508.219 247.836C507.786 247.836 507.432 247.945 507.156 248.164C506.88 248.378 506.742 248.651 506.742 248.984H504.844C504.844 248.521 504.997 248.089 505.305 247.688C505.612 247.281 506.029 246.964 506.555 246.734C507.086 246.505 507.677 246.391 508.328 246.391C509.318 246.391 510.107 246.641 510.695 247.141C511.284 247.635 511.586 248.333 511.602 249.234V253.047C511.602 253.807 511.708 254.414 511.922 254.867V255H509.984ZM507.898 253.633C508.273 253.633 508.625 253.542 508.953 253.359C509.286 253.177 509.536 252.932 509.703 252.625V251.031H508.68C507.977 251.031 507.448 251.154 507.094 251.398C506.74 251.643 506.562 251.99 506.562 252.438C506.562 252.802 506.682 253.094 506.922 253.312C507.167 253.526 507.492 253.633 507.898 253.633ZM515.609 255H513.711V243H515.609V255ZM522.422 252.703C522.422 252.365 522.281 252.107 522 251.93C521.724 251.753 521.263 251.596 520.617 251.461C519.971 251.326 519.432 251.154 519 250.945C518.052 250.487 517.578 249.823 517.578 248.953C517.578 248.224 517.885 247.615 518.5 247.125C519.115 246.635 519.896 246.391 520.844 246.391C521.854 246.391 522.669 246.641 523.289 247.141C523.914 247.641 524.227 248.289 524.227 249.086H522.328C522.328 248.721 522.193 248.419 521.922 248.18C521.651 247.935 521.292 247.812 520.844 247.812C520.427 247.812 520.086 247.909 519.82 248.102C519.56 248.294 519.43 248.552 519.43 248.875C519.43 249.167 519.552 249.393 519.797 249.555C520.042 249.716 520.536 249.88 521.281 250.047C522.026 250.208 522.609 250.404 523.031 250.633C523.458 250.857 523.773 251.128 523.977 251.445C524.185 251.763 524.289 252.148 524.289 252.602C524.289 253.362 523.974 253.979 523.344 254.453C522.714 254.922 521.888 255.156 520.867 255.156C520.174 255.156 519.557 255.031 519.016 254.781C518.474 254.531 518.052 254.188 517.75 253.75C517.448 253.312 517.297 252.841 517.297 252.336H519.141C519.167 252.784 519.336 253.13 519.648 253.375C519.961 253.615 520.375 253.734 520.891 253.734C521.391 253.734 521.771 253.641 522.031 253.453C522.292 253.26 522.422 253.01 522.422 252.703ZM529.672 255.156C528.469 255.156 527.492 254.779 526.742 254.023C525.997 253.263 525.625 252.253 525.625 250.992V250.758C525.625 249.914 525.786 249.161 526.109 248.5C526.438 247.833 526.896 247.315 527.484 246.945C528.073 246.576 528.729 246.391 529.453 246.391C530.604 246.391 531.492 246.758 532.117 247.492C532.747 248.227 533.062 249.266 533.062 250.609V251.375H527.539C527.596 252.073 527.828 252.625 528.234 253.031C528.646 253.438 529.161 253.641 529.781 253.641C530.651 253.641 531.359 253.289 531.906 252.586L532.93 253.562C532.591 254.068 532.138 254.461 531.57 254.742C531.008 255.018 530.375 255.156 529.672 255.156ZM529.445 247.914C528.924 247.914 528.503 248.096 528.18 248.461C527.862 248.826 527.659 249.333 527.57 249.984H531.188V249.844C531.146 249.208 530.977 248.729 530.68 248.406C530.383 248.078 529.971 247.914 529.445 247.914Z" fill="#FF5A43"/>
<defs>
<filter id="filter0_d" x="0" y="0" width="233" height="124" filterUnits="userSpaceOnUse" color-interpolation-filters="sRGB">
<feFlood flood-opacity="0" result="BackgroundImageFix"/>
<feColorMatrix in="SourceAlpha" type="matrix" values="0 0 0 0 0 0 0 0 0 0 0 0 0 0 0 0 0 0 127 0"/>
<feOffset dx="4" dy="4"/>
<feColorMatrix type="matrix" values="0 0 0 0 0.674908 0 0 0 0 0.662083 0 0 0 0 0.945833 0 0 0 1 0"/>
<feBlend mode="normal" in2="BackgroundImageFix" result="effect1_dropShadow"/>
<feBlend mode="normal" in="SourceGraphic" in2="effect1_dropShadow" result="shape"/>
</filter>
<filter id="filter1_d" x="0" y="119" width="233" height="28" filterUnits="userSpaceOnUse" color-interpolation-filters="sRGB">
<feFlood flood-opacity="0" result="BackgroundImageFix"/>
<feColorMatrix in="SourceAlpha" type="matrix" values="0 0 0 0 0 0 0 0 0 0 0 0 0 0 0 0 0 0 127 0"/>
<feOffset dx="4" dy="4"/>
<feColorMatrix type="matrix" values="0 0 0 0 0.674908 0 0 0 0 0.662083 0 0 0 0 0.945833 0 0 0 1 0"/>
<feBlend mode="normal" in2="BackgroundImageFix" result="effect1_dropShadow"/>
<feBlend mode="normal" in="SourceGraphic" in2="effect1_dropShadow" result="shape"/>
</filter>
<filter id="filter2_d" x="400" y="40" width="233" height="84" filterUnits="userSpaceOnUse" color-interpolation-filters="sRGB">
<feFlood flood-opacity="0" result="BackgroundImageFix"/>
<feColorMatrix in="SourceAlpha" type="matrix" values="0 0 0 0 0 0 0 0 0 0 0 0 0 0 0 0 0 0 127 0"/>
<feOffset dx="4" dy="4"/>
<feColorMatrix type="matrix" values="0 0 0 0 0.674908 0 0 0 0 0.662083 0 0 0 0 0.945833 0 0 0 1 0"/>
<feBlend mode="normal" in2="BackgroundImageFix" result="effect1_dropShadow"/>
<feBlend mode="normal" in="SourceGraphic" in2="effect1_dropShadow" result="shape"/>
</filter>
<filter id="filter3_d" x="400" y="119" width="233" height="28" filterUnits="userSpaceOnUse" color-interpolation-filters="sRGB">
<feFlood flood-opacity="0" result="BackgroundImageFix"/>
<feColorMatrix in="SourceAlpha" type="matrix" values="0 0 0 0 0 0 0 0 0 0 0 0 0 0 0 0 0 0 127 0"/>
<feOffset dx="4" dy="4"/>
<feColorMatrix type="matrix" values="0 0 0 0 0.674908 0 0 0 0 0.662083 0 0 0 0 0.945833 0 0 0 1 0"/>
<feBlend mode="normal" in2="BackgroundImageFix" result="effect1_dropShadow"/>
<feBlend mode="normal" in="SourceGraphic" in2="effect1_dropShadow" result="shape"/>
</filter>
<filter id="filter4_d" x="0" y="190" width="233" height="124" filterUnits="userSpaceOnUse" color-interpolation-filters="sRGB">
<feFlood flood-opacity="0" result="BackgroundImageFix"/>
<feColorMatrix in="SourceAlpha" type="matrix" values="0 0 0 0 0 0 0 0 0 0 0 0 0 0 0 0 0 0 127 0"/>
<feOffset dx="4" dy="4"/>
<feColorMatrix type="matrix" values="0 0 0 0 0.674908 0 0 0 0 0.662083 0 0 0 0 0.945833 0 0 0 1 0"/>
<feBlend mode="normal" in2="BackgroundImageFix" result="effect1_dropShadow"/>
<feBlend mode="normal" in="SourceGraphic" in2="effect1_dropShadow" result="shape"/>
</filter>
<filter id="filter5_d" x="0" y="309" width="233" height="28" filterUnits="userSpaceOnUse" color-interpolation-filters="sRGB">
<feFlood flood-opacity="0" result="BackgroundImageFix"/>
<feColorMatrix in="SourceAlpha" type="matrix" values="0 0 0 0 0 0 0 0 0 0 0 0 0 0 0 0 0 0 127 0"/>
<feOffset dx="4" dy="4"/>
<feColorMatrix type="matrix" values="0 0 0 0 0.674908 0 0 0 0 0.662083 0 0 0 0 0.945833 0 0 0 1 0"/>
<feBlend mode="normal" in2="BackgroundImageFix" result="effect1_dropShadow"/>
<feBlend mode="normal" in="SourceGraphic" in2="effect1_dropShadow" result="shape"/>
</filter>
<filter id="filter6_d" x="400" y="230" width="233" height="84" filterUnits="userSpaceOnUse" color-interpolation-filters="sRGB">
<feFlood flood-opacity="0" result="BackgroundImageFix"/>
<feColorMatrix in="SourceAlpha" type="matrix" values="0 0 0 0 0 0 0 0 0 0 0 0 0 0 0 0 0 0 127 0"/>
<feOffset dx="4" dy="4"/>
<feColorMatrix type="matrix" values="0 0 0 0 0.674908 0 0 0 0 0.662083 0 0 0 0 0.945833 0 0 0 1 0"/>
<feBlend mode="normal" in2="BackgroundImageFix" result="effect1_dropShadow"/>
<feBlend mode="normal" in="SourceGraphic" in2="effect1_dropShadow" result="shape"/>
</filter>
<filter id="filter7_d" x="400" y="309" width="233" height="28" filterUnits="userSpaceOnUse" color-interpolation-filters="sRGB">
<feFlood flood-opacity="0" result="BackgroundImageFix"/>
<feColorMatrix in="SourceAlpha" type="matrix" values="0 0 0 0 0 0 0 0 0 0 0 0 0 0 0 0 0 0 127 0"/>
<feOffset dx="4" dy="4"/>
<feColorMatrix type="matrix" values="0 0 0 0 0.674908 0 0 0 0 0.662083 0 0 0 0 0.945833 0 0 0 1 0"/>
<feBlend mode="normal" in2="BackgroundImageFix" result="effect1_dropShadow"/>
<feBlend mode="normal" in="SourceGraphic" in2="effect1_dropShadow" result="shape"/>
</filter>
</defs>
</svg>
