<svg width="633" height="147" viewBox="0 0 633 147" fill="none" xmlns="http://www.w3.org/2000/svg">
<line x1="253" y1="120.5" x2="387" y2="120.5" stroke="#65BF73" stroke-width="2"/>
<path d="M377 111L387.5 120.5L377 129.5" stroke="#65BF73" stroke-width="2" stroke-linecap="round" stroke-linejoin="round"/>
<circle cx="248.5" cy="121" r="5.5" stroke="#65BF73" stroke-width="2"/>
<path d="M305.508 103.07C305.508 102.57 305.331 102.185 304.977 101.914C304.628 101.643 303.995 101.37 303.078 101.094C302.161 100.818 301.432 100.51 300.891 100.172C299.854 99.5208 299.336 98.6719 299.336 97.625C299.336 96.7083 299.708 95.9531 300.453 95.3594C301.203 94.7656 302.174 94.4688 303.367 94.4688C304.159 94.4688 304.865 94.6146 305.484 94.9062C306.104 95.1979 306.591 95.6146 306.945 96.1562C307.299 96.6927 307.477 97.2891 307.477 97.9453H305.508C305.508 97.3516 305.32 96.888 304.945 96.5547C304.576 96.2161 304.044 96.0469 303.352 96.0469C302.706 96.0469 302.203 96.1849 301.844 96.4609C301.49 96.737 301.312 97.1224 301.312 97.6172C301.312 98.0339 301.505 98.3828 301.891 98.6641C302.276 98.9401 302.911 99.2109 303.797 99.4766C304.682 99.737 305.393 100.036 305.93 100.375C306.466 100.708 306.859 101.094 307.109 101.531C307.359 101.964 307.484 102.471 307.484 103.055C307.484 104.003 307.12 104.758 306.391 105.32C305.667 105.878 304.682 106.156 303.438 106.156C302.615 106.156 301.857 106.005 301.164 105.703C300.477 105.396 299.94 104.974 299.555 104.438C299.174 103.901 298.984 103.276 298.984 102.562H300.961C300.961 103.208 301.174 103.708 301.602 104.062C302.029 104.417 302.641 104.594 303.438 104.594C304.125 104.594 304.641 104.456 304.984 104.18C305.333 103.898 305.508 103.529 305.508 103.07ZM317.539 94.625V102.227C317.539 103.435 317.151 104.393 316.375 105.102C315.604 105.805 314.576 106.156 313.289 106.156C311.987 106.156 310.953 105.81 310.188 105.117C309.422 104.419 309.039 103.453 309.039 102.219V94.625H311.008V102.234C311.008 102.995 311.201 103.576 311.586 103.977C311.971 104.378 312.539 104.578 313.289 104.578C314.81 104.578 315.57 103.776 315.57 102.172V94.625H317.539ZM319.656 106V94.625H323.555C324.841 94.625 325.82 94.8828 326.492 95.3984C327.164 95.9141 327.5 96.6823 327.5 97.7031C327.5 98.224 327.359 98.6927 327.078 99.1094C326.797 99.526 326.385 99.849 325.844 100.078C326.458 100.245 326.932 100.56 327.266 101.023C327.604 101.482 327.773 102.034 327.773 102.68C327.773 103.747 327.43 104.568 326.742 105.141C326.06 105.714 325.081 106 323.805 106H319.656ZM321.633 100.867V104.422H323.828C324.448 104.422 324.932 104.268 325.281 103.961C325.63 103.654 325.805 103.227 325.805 102.68C325.805 101.497 325.201 100.893 323.992 100.867H321.633ZM321.633 99.4141H323.57C324.185 99.4141 324.664 99.276 325.008 99C325.357 98.7188 325.531 98.3229 325.531 97.8125C325.531 97.25 325.37 96.8438 325.047 96.5938C324.729 96.3438 324.232 96.2188 323.555 96.2188H321.633V99.4141Z" fill="#65BF73"/>
<g filter="url(#filter0_d)">
<path d="M400 48C400 43.5817 403.582 40 408 40H621C625.418 40 629 43.5817 629 48V120H400V48Z" fill="white"/>
<path d="M400.5 48C400.5 43.8579 403.858 40.5 408 40.5H621C625.142 40.5 628.5 43.8579 628.5 48V119.5H400.5V48Z" stroke="#5452F6"/>
</g>
<g filter="url(#filter1_d)">
<path d="M400 119H629V135C629 139.418 625.418 143 621 143H408C403.582 143 400 139.418 400 135V119Z" fill="#EEEEFF"/>
<path d="M400.5 119.5H628.5V135C628.5 139.142 625.142 142.5 621 142.5H408C403.858 142.5 400.5 139.142 400.5 135V119.5Z" stroke="#5452F6"/>
</g>
<line x1="400.5" y1="79.5" x2="628.5" y2="79.5" stroke="#5452F6"/>
<path d="M473.789 102.07C473.789 101.57 473.612 101.185 473.258 100.914C472.909 100.643 472.276 100.37 471.359 100.094C470.443 99.8177 469.714 99.5104 469.172 99.1719C468.135 98.5208 467.617 97.6719 467.617 96.625C467.617 95.7083 467.99 94.9531 468.734 94.3594C469.484 93.7656 470.456 93.4688 471.648 93.4688C472.44 93.4688 473.146 93.6146 473.766 93.9062C474.385 94.1979 474.872 94.6146 475.227 95.1562C475.581 95.6927 475.758 96.2891 475.758 96.9453H473.789C473.789 96.3516 473.602 95.888 473.227 95.5547C472.857 95.2161 472.326 95.0469 471.633 95.0469C470.987 95.0469 470.484 95.1849 470.125 95.4609C469.771 95.737 469.594 96.1224 469.594 96.6172C469.594 97.0339 469.786 97.3828 470.172 97.6641C470.557 97.9401 471.193 98.2109 472.078 98.4766C472.964 98.737 473.674 99.0365 474.211 99.375C474.747 99.7083 475.141 100.094 475.391 100.531C475.641 100.964 475.766 101.471 475.766 102.055C475.766 103.003 475.401 103.758 474.672 104.32C473.948 104.878 472.964 105.156 471.719 105.156C470.896 105.156 470.138 105.005 469.445 104.703C468.758 104.396 468.221 103.974 467.836 103.438C467.456 102.901 467.266 102.276 467.266 101.562H469.242C469.242 102.208 469.456 102.708 469.883 103.062C470.31 103.417 470.922 103.594 471.719 103.594C472.406 103.594 472.922 103.456 473.266 103.18C473.615 102.898 473.789 102.529 473.789 102.07ZM479.695 94.4922V96.5469H481.188V97.9531H479.695V102.672C479.695 102.995 479.758 103.229 479.883 103.375C480.013 103.516 480.242 103.586 480.57 103.586C480.789 103.586 481.01 103.56 481.234 103.508V104.977C480.802 105.096 480.385 105.156 479.984 105.156C478.526 105.156 477.797 104.352 477.797 102.742V97.9531H476.406V96.5469H477.797V94.4922H479.695ZM487.07 98.2812C486.82 98.2396 486.562 98.2188 486.297 98.2188C485.427 98.2188 484.841 98.5521 484.539 99.2188V105H482.641V96.5469H484.453L484.5 97.4922C484.958 96.7578 485.594 96.3906 486.406 96.3906C486.677 96.3906 486.901 96.4271 487.078 96.5L487.07 98.2812ZM490.289 105H488.391V96.5469H490.289V105ZM488.273 94.3516C488.273 94.0599 488.365 93.8177 488.547 93.625C488.734 93.4323 489 93.3359 489.344 93.3359C489.688 93.3359 489.953 93.4323 490.141 93.625C490.328 93.8177 490.422 94.0599 490.422 94.3516C490.422 94.638 490.328 94.8776 490.141 95.0703C489.953 95.2578 489.688 95.3516 489.344 95.3516C489 95.3516 488.734 95.2578 488.547 95.0703C488.365 94.8776 488.273 94.638 488.273 94.3516ZM494.125 96.5469L494.18 97.5234C494.805 96.7682 495.625 96.3906 496.641 96.3906C498.401 96.3906 499.297 97.3984 499.328 99.4141V105H497.43V99.5234C497.43 98.987 497.312 98.5911 497.078 98.3359C496.849 98.0755 496.471 97.9453 495.945 97.9453C495.18 97.9453 494.609 98.2917 494.234 98.9844V105H492.336V96.5469H494.125ZM500.938 100.711C500.938 99.3984 501.245 98.3516 501.859 97.5703C502.479 96.7839 503.299 96.3906 504.32 96.3906C505.284 96.3906 506.042 96.7266 506.594 97.3984L506.68 96.5469H508.391V104.742C508.391 105.852 508.044 106.727 507.352 107.367C506.664 108.008 505.734 108.328 504.562 108.328C503.943 108.328 503.336 108.198 502.742 107.938C502.154 107.682 501.706 107.346 501.398 106.93L502.297 105.789C502.88 106.482 503.599 106.828 504.453 106.828C505.083 106.828 505.581 106.656 505.945 106.312C506.31 105.974 506.492 105.474 506.492 104.812V104.242C505.945 104.852 505.216 105.156 504.305 105.156C503.315 105.156 502.505 104.763 501.875 103.977C501.25 103.19 500.938 102.102 500.938 100.711ZM502.828 100.875C502.828 101.724 503 102.393 503.344 102.883C503.693 103.367 504.174 103.609 504.789 103.609C505.555 103.609 506.122 103.281 506.492 102.625V98.9062C506.133 98.2656 505.57 97.9453 504.805 97.9453C504.18 97.9453 503.693 98.1927 503.344 98.6875C503 99.1823 502.828 99.9115 502.828 100.875ZM515.633 92.7969L516.602 93.3984C516.128 94.0911 515.883 94.8125 515.867 95.5625V96.75H514.203V95.6719C514.208 95.1719 514.344 94.651 514.609 94.1094C514.88 93.5625 515.221 93.125 515.633 92.7969ZM518.258 92.7969L519.227 93.3984C518.753 94.0911 518.508 94.8125 518.492 95.5625V96.75H516.828V95.6719C516.833 95.1719 516.969 94.651 517.234 94.1094C517.505 93.5625 517.846 93.125 518.258 92.7969ZM529.703 105H527.734V99.9453H522.648V105H520.672V93.625H522.648V98.3594H527.734V93.625H529.703V105ZM535.586 105.156C534.383 105.156 533.406 104.779 532.656 104.023C531.911 103.263 531.539 102.253 531.539 100.992V100.758C531.539 99.9141 531.701 99.1615 532.023 98.5C532.352 97.8333 532.81 97.3151 533.398 96.9453C533.987 96.5755 534.643 96.3906 535.367 96.3906C536.518 96.3906 537.406 96.7578 538.031 97.4922C538.661 98.2266 538.977 99.2656 538.977 100.609V101.375H533.453C533.51 102.073 533.742 102.625 534.148 103.031C534.56 103.438 535.076 103.641 535.695 103.641C536.565 103.641 537.273 103.289 537.82 102.586L538.844 103.562C538.505 104.068 538.052 104.461 537.484 104.742C536.922 105.018 536.289 105.156 535.586 105.156ZM535.359 97.9141C534.839 97.9141 534.417 98.0964 534.094 98.4609C533.776 98.8255 533.573 99.3333 533.484 99.9844H537.102V99.8438C537.06 99.2083 536.891 98.7292 536.594 98.4062C536.297 98.0781 535.885 97.9141 535.359 97.9141ZM542.477 105H540.578V93H542.477V105ZM546.57 105H544.672V93H546.57V105ZM548.289 100.695C548.289 99.8672 548.453 99.1224 548.781 98.4609C549.109 97.7943 549.57 97.2839 550.164 96.9297C550.758 96.5703 551.44 96.3906 552.211 96.3906C553.352 96.3906 554.276 96.7578 554.984 97.4922C555.698 98.2266 556.083 99.2005 556.141 100.414L556.148 100.859C556.148 101.693 555.987 102.438 555.664 103.094C555.346 103.75 554.888 104.258 554.289 104.617C553.695 104.977 553.008 105.156 552.227 105.156C551.034 105.156 550.078 104.76 549.359 103.969C548.646 103.172 548.289 102.112 548.289 100.789V100.695ZM550.188 100.859C550.188 101.729 550.367 102.411 550.727 102.906C551.086 103.396 551.586 103.641 552.227 103.641C552.867 103.641 553.365 103.391 553.719 102.891C554.078 102.391 554.258 101.659 554.258 100.695C554.258 99.8411 554.073 99.1641 553.703 98.6641C553.339 98.1641 552.841 97.9141 552.211 97.9141C551.591 97.9141 551.099 98.1615 550.734 98.6562C550.37 99.1458 550.188 99.8802 550.188 100.859ZM557.562 97L556.594 96.3984C557.062 95.7161 557.305 94.9948 557.32 94.2344V93H558.984V94.0781C558.984 94.6146 558.846 95.1562 558.57 95.7031C558.299 96.2448 557.964 96.6771 557.562 97ZM560.172 97L559.203 96.3984C559.672 95.7161 559.914 94.9948 559.93 94.2344V93H561.594V94.0781C561.594 94.6146 561.456 95.1562 561.18 95.7031C560.909 96.2448 560.573 96.6771 560.172 97Z" fill="#5452F6"/>
<path d="M494.617 65H492.719V56.5469H494.617V65ZM492.602 54.3516C492.602 54.0599 492.693 53.8177 492.875 53.625C493.062 53.4323 493.328 53.3359 493.672 53.3359C494.016 53.3359 494.281 53.4323 494.469 53.625C494.656 53.8177 494.75 54.0599 494.75 54.3516C494.75 54.638 494.656 54.8776 494.469 55.0703C494.281 55.2578 494.016 55.3516 493.672 55.3516C493.328 55.3516 493.062 55.2578 492.875 55.0703C492.693 54.8776 492.602 54.638 492.602 54.3516ZM498.453 56.5469L498.508 57.5234C499.133 56.7682 499.953 56.3906 500.969 56.3906C502.729 56.3906 503.625 57.3984 503.656 59.4141V65H501.758V59.5234C501.758 58.987 501.641 58.5911 501.406 58.3359C501.177 58.0755 500.799 57.9453 500.273 57.9453C499.508 57.9453 498.938 58.2917 498.562 58.9844V65H496.664V56.5469H498.453ZM507.977 54.4922V56.5469H509.469V57.9531H507.977V62.6719C507.977 62.9948 508.039 63.2292 508.164 63.375C508.294 63.5156 508.523 63.5859 508.852 63.5859C509.07 63.5859 509.292 63.5599 509.516 63.5078V64.9766C509.083 65.0964 508.667 65.1562 508.266 65.1562C506.807 65.1562 506.078 64.3516 506.078 62.7422V57.9531H504.688V56.5469H506.078V54.4922H507.977ZM518.594 60.9297H514.492V59.3984H518.594V60.9297ZM522.234 58.4453H523.391C523.974 58.4401 524.435 58.2891 524.773 57.9922C525.117 57.6953 525.289 57.2656 525.289 56.7031C525.289 56.1615 525.146 55.7422 524.859 55.4453C524.578 55.1432 524.146 54.9922 523.562 54.9922C523.052 54.9922 522.633 55.1406 522.305 55.4375C521.977 55.7292 521.812 56.112 521.812 56.5859H519.914C519.914 56.0026 520.068 55.4714 520.375 54.9922C520.688 54.513 521.12 54.1406 521.672 53.875C522.229 53.6042 522.852 53.4688 523.539 53.4688C524.674 53.4688 525.565 53.7552 526.211 54.3281C526.862 54.8958 527.188 55.6875 527.188 56.7031C527.188 57.2135 527.023 57.6953 526.695 58.1484C526.372 58.5964 525.953 58.9349 525.438 59.1641C526.062 59.3776 526.536 59.7135 526.859 60.1719C527.188 60.6302 527.352 61.1771 527.352 61.8125C527.352 62.8333 527 63.6458 526.297 64.25C525.599 64.8542 524.68 65.1562 523.539 65.1562C522.445 65.1562 521.549 64.8646 520.852 64.2812C520.154 63.6979 519.805 62.9219 519.805 61.9531H521.703C521.703 62.4531 521.87 62.8594 522.203 63.1719C522.542 63.4844 522.995 63.6406 523.562 63.6406C524.151 63.6406 524.615 63.4844 524.953 63.1719C525.292 62.8594 525.461 62.4062 525.461 61.8125C525.461 61.2135 525.284 60.7526 524.93 60.4297C524.576 60.1068 524.049 59.9453 523.352 59.9453H522.234V58.4453ZM529.641 59.3594L530.258 53.625H536.367V55.2656H531.836L531.523 57.9844C532.049 57.6823 532.643 57.5312 533.305 57.5312C534.388 57.5312 535.229 57.8776 535.828 58.5703C536.432 59.263 536.734 60.1953 536.734 61.3672C536.734 62.5234 536.401 63.4453 535.734 64.1328C535.068 64.8151 534.154 65.1562 532.992 65.1562C531.951 65.1562 531.086 64.862 530.398 64.2734C529.716 63.6797 529.346 62.8984 529.289 61.9297H531.125C531.198 62.4818 531.396 62.9062 531.719 63.2031C532.042 63.4948 532.464 63.6406 532.984 63.6406C533.568 63.6406 534.021 63.4323 534.344 63.0156C534.672 62.599 534.836 62.0312 534.836 61.3125C534.836 60.6198 534.656 60.0729 534.297 59.6719C533.938 59.2656 533.443 59.0625 532.812 59.0625C532.469 59.0625 532.177 59.1094 531.938 59.2031C531.698 59.2917 531.438 59.4688 531.156 59.7344L529.641 59.3594Z" fill="#FF6A3E"/>
<g filter="url(#filter2_d)">
<path d="M0 8C0 3.58172 3.58172 0 8 0H221C225.418 0 229 3.58172 229 8V120H0V8Z" fill="white"/>
<line x1="0.5" y1="79.5" x2="228.5" y2="79.5" stroke="#5452F6"/>
<line x1="0.5" y1="39.5" x2="228.5" y2="39.5" stroke="#5452F6"/>
<path d="M73.7891 102.07C73.7891 101.57 73.612 101.185 73.2578 100.914C72.9089 100.643 72.276 100.37 71.3594 100.094C70.4427 99.8177 69.7135 99.5104 69.1719 99.1719C68.1354 98.5208 67.6172 97.6719 67.6172 96.625C67.6172 95.7083 67.9896 94.9531 68.7344 94.3594C69.4844 93.7656 70.4557 93.4688 71.6484 93.4688C72.4401 93.4688 73.1458 93.6146 73.7656 93.9062C74.3854 94.1979 74.8724 94.6146 75.2266 95.1562C75.5807 95.6927 75.7578 96.2891 75.7578 96.9453H73.7891C73.7891 96.3516 73.6016 95.888 73.2266 95.5547C72.8568 95.2161 72.3255 95.0469 71.6328 95.0469C70.987 95.0469 70.4844 95.1849 70.125 95.4609C69.7708 95.737 69.5938 96.1224 69.5938 96.6172C69.5938 97.0339 69.7865 97.3828 70.1719 97.6641C70.5573 97.9401 71.1927 98.2109 72.0781 98.4766C72.9635 98.737 73.6745 99.0365 74.2109 99.375C74.7474 99.7083 75.1406 100.094 75.3906 100.531C75.6406 100.964 75.7656 101.471 75.7656 102.055C75.7656 103.003 75.401 103.758 74.6719 104.32C73.9479 104.878 72.9635 105.156 71.7188 105.156C70.8958 105.156 70.138 105.005 69.4453 104.703C68.7578 104.396 68.2214 103.974 67.8359 103.438C67.4557 102.901 67.2656 102.276 67.2656 101.562H69.2422C69.2422 102.208 69.4557 102.708 69.8828 103.062C70.3099 103.417 70.9219 103.594 71.7188 103.594C72.4062 103.594 72.9219 103.456 73.2656 103.18C73.6146 102.898 73.7891 102.529 73.7891 102.07ZM79.6953 94.4922V96.5469H81.1875V97.9531H79.6953V102.672C79.6953 102.995 79.7578 103.229 79.8828 103.375C80.013 103.516 80.2422 103.586 80.5703 103.586C80.7891 103.586 81.0104 103.56 81.2344 103.508V104.977C80.8021 105.096 80.3854 105.156 79.9844 105.156C78.526 105.156 77.7969 104.352 77.7969 102.742V97.9531H76.4062V96.5469H77.7969V94.4922H79.6953ZM87.0703 98.2812C86.8203 98.2396 86.5625 98.2188 86.2969 98.2188C85.4271 98.2188 84.8411 98.5521 84.5391 99.2188V105H82.6406V96.5469H84.4531L84.5 97.4922C84.9583 96.7578 85.5938 96.3906 86.4062 96.3906C86.6771 96.3906 86.901 96.4271 87.0781 96.5L87.0703 98.2812ZM90.2891 105H88.3906V96.5469H90.2891V105ZM88.2734 94.3516C88.2734 94.0599 88.3646 93.8177 88.5469 93.625C88.7344 93.4323 89 93.3359 89.3438 93.3359C89.6875 93.3359 89.9531 93.4323 90.1406 93.625C90.3281 93.8177 90.4219 94.0599 90.4219 94.3516C90.4219 94.638 90.3281 94.8776 90.1406 95.0703C89.9531 95.2578 89.6875 95.3516 89.3438 95.3516C89 95.3516 88.7344 95.2578 88.5469 95.0703C88.3646 94.8776 88.2734 94.638 88.2734 94.3516ZM94.125 96.5469L94.1797 97.5234C94.8047 96.7682 95.625 96.3906 96.6406 96.3906C98.401 96.3906 99.2969 97.3984 99.3281 99.4141V105H97.4297V99.5234C97.4297 98.987 97.3125 98.5911 97.0781 98.3359C96.849 98.0755 96.4714 97.9453 95.9453 97.9453C95.1797 97.9453 94.6094 98.2917 94.2344 98.9844V105H92.3359V96.5469H94.125ZM100.938 100.711C100.938 99.3984 101.245 98.3516 101.859 97.5703C102.479 96.7839 103.299 96.3906 104.32 96.3906C105.284 96.3906 106.042 96.7266 106.594 97.3984L106.68 96.5469H108.391V104.742C108.391 105.852 108.044 106.727 107.352 107.367C106.664 108.008 105.734 108.328 104.562 108.328C103.943 108.328 103.336 108.198 102.742 107.938C102.154 107.682 101.706 107.346 101.398 106.93L102.297 105.789C102.88 106.482 103.599 106.828 104.453 106.828C105.083 106.828 105.581 106.656 105.945 106.312C106.31 105.974 106.492 105.474 106.492 104.812V104.242C105.945 104.852 105.216 105.156 104.305 105.156C103.315 105.156 102.505 104.763 101.875 103.977C101.25 103.19 100.938 102.102 100.938 100.711ZM102.828 100.875C102.828 101.724 103 102.393 103.344 102.883C103.693 103.367 104.174 103.609 104.789 103.609C105.555 103.609 106.122 103.281 106.492 102.625V98.9062C106.133 98.2656 105.57 97.9453 104.805 97.9453C104.18 97.9453 103.693 98.1927 103.344 98.6875C103 99.1823 102.828 99.9115 102.828 100.875ZM115.633 92.7969L116.602 93.3984C116.128 94.0911 115.883 94.8125 115.867 95.5625V96.75H114.203V95.6719C114.208 95.1719 114.344 94.651 114.609 94.1094C114.88 93.5625 115.221 93.125 115.633 92.7969ZM118.258 92.7969L119.227 93.3984C118.753 94.0911 118.508 94.8125 118.492 95.5625V96.75H116.828V95.6719C116.833 95.1719 116.969 94.651 117.234 94.1094C117.505 93.5625 117.846 93.125 118.258 92.7969ZM129.703 105H127.734V99.9453H122.648V105H120.672V93.625H122.648V98.3594H127.734V93.625H129.703V105ZM135.586 105.156C134.383 105.156 133.406 104.779 132.656 104.023C131.911 103.263 131.539 102.253 131.539 100.992V100.758C131.539 99.9141 131.701 99.1615 132.023 98.5C132.352 97.8333 132.81 97.3151 133.398 96.9453C133.987 96.5755 134.643 96.3906 135.367 96.3906C136.518 96.3906 137.406 96.7578 138.031 97.4922C138.661 98.2266 138.977 99.2656 138.977 100.609V101.375H133.453C133.51 102.073 133.742 102.625 134.148 103.031C134.56 103.438 135.076 103.641 135.695 103.641C136.565 103.641 137.273 103.289 137.82 102.586L138.844 103.562C138.505 104.068 138.052 104.461 137.484 104.742C136.922 105.018 136.289 105.156 135.586 105.156ZM135.359 97.9141C134.839 97.9141 134.417 98.0964 134.094 98.4609C133.776 98.8255 133.573 99.3333 133.484 99.9844H137.102V99.8438C137.06 99.2083 136.891 98.7292 136.594 98.4062C136.297 98.0781 135.885 97.9141 135.359 97.9141ZM142.477 105H140.578V93H142.477V105ZM146.57 105H144.672V93H146.57V105ZM148.289 100.695C148.289 99.8672 148.453 99.1224 148.781 98.4609C149.109 97.7943 149.57 97.2839 150.164 96.9297C150.758 96.5703 151.44 96.3906 152.211 96.3906C153.352 96.3906 154.276 96.7578 154.984 97.4922C155.698 98.2266 156.083 99.2005 156.141 100.414L156.148 100.859C156.148 101.693 155.987 102.438 155.664 103.094C155.346 103.75 154.888 104.258 154.289 104.617C153.695 104.977 153.008 105.156 152.227 105.156C151.034 105.156 150.078 104.76 149.359 103.969C148.646 103.172 148.289 102.112 148.289 100.789V100.695ZM150.188 100.859C150.188 101.729 150.367 102.411 150.727 102.906C151.086 103.396 151.586 103.641 152.227 103.641C152.867 103.641 153.365 103.391 153.719 102.891C154.078 102.391 154.258 101.659 154.258 100.695C154.258 99.8411 154.073 99.1641 153.703 98.6641C153.339 98.1641 152.841 97.9141 152.211 97.9141C151.591 97.9141 151.099 98.1615 150.734 98.6562C150.37 99.1458 150.188 99.8802 150.188 100.859ZM157.562 97L156.594 96.3984C157.062 95.7161 157.305 94.9948 157.32 94.2344V93H158.984V94.0781C158.984 94.6146 158.846 95.1562 158.57 95.7031C158.299 96.2448 157.964 96.6771 157.562 97ZM160.172 97L159.203 96.3984C159.672 95.7161 159.914 94.9948 159.93 94.2344V93H161.594V94.0781C161.594 94.6146 161.456 95.1562 161.18 95.7031C160.909 96.2448 160.573 96.6771 160.172 97Z" fill="#5452F6"/>
<path d="M94.7031 56.5469L94.7578 57.5234C95.3828 56.7682 96.2031 56.3906 97.2188 56.3906C98.9792 56.3906 99.875 57.3984 99.9062 59.4141V65H98.0078V59.5234C98.0078 58.987 97.8906 58.5911 97.6562 58.3359C97.4271 58.0755 97.0495 57.9453 96.5234 57.9453C95.7578 57.9453 95.1875 58.2917 94.8125 58.9844V65H92.9141V56.5469H94.7031ZM106.898 65C106.815 64.8385 106.742 64.5755 106.68 64.2109C106.076 64.8411 105.336 65.1562 104.461 65.1562C103.612 65.1562 102.919 64.9141 102.383 64.4297C101.846 63.9453 101.578 63.3464 101.578 62.6328C101.578 61.7318 101.911 61.0417 102.578 60.5625C103.25 60.0781 104.208 59.8359 105.453 59.8359H106.617V59.2812C106.617 58.8438 106.495 58.4948 106.25 58.2344C106.005 57.9688 105.633 57.8359 105.133 57.8359C104.701 57.8359 104.346 57.9453 104.07 58.1641C103.794 58.3776 103.656 58.651 103.656 58.9844H101.758C101.758 58.5208 101.911 58.0885 102.219 57.6875C102.526 57.2812 102.943 56.9635 103.469 56.7344C104 56.5052 104.591 56.3906 105.242 56.3906C106.232 56.3906 107.021 56.6406 107.609 57.1406C108.198 57.6354 108.5 58.3333 108.516 59.2344V63.0469C108.516 63.8073 108.622 64.4141 108.836 64.8672V65H106.898ZM104.812 63.6328C105.188 63.6328 105.539 63.5417 105.867 63.3594C106.201 63.1771 106.451 62.9323 106.617 62.625V61.0312H105.594C104.891 61.0312 104.362 61.1536 104.008 61.3984C103.654 61.6432 103.477 61.9896 103.477 62.4375C103.477 62.8021 103.596 63.0938 103.836 63.3125C104.081 63.526 104.406 63.6328 104.812 63.6328ZM112.883 54.4922V56.5469H114.375V57.9531H112.883V62.6719C112.883 62.9948 112.945 63.2292 113.07 63.375C113.201 63.5156 113.43 63.5859 113.758 63.5859C113.977 63.5859 114.198 63.5599 114.422 63.5078V64.9766C113.99 65.0964 113.573 65.1562 113.172 65.1562C111.714 65.1562 110.984 64.3516 110.984 62.7422V57.9531H109.594V56.5469H110.984V54.4922H112.883ZM126.117 60.9453H127.531V62.4688H126.117V65H124.219V62.4688H119.305L119.25 61.3125L124.156 53.625H126.117V60.9453ZM121.242 60.9453H124.219V56.1953L124.078 56.4453L121.242 60.9453ZM136.438 65H128.789V63.6953L132.578 59.5625C133.125 58.9531 133.513 58.4453 133.742 58.0391C133.977 57.6276 134.094 57.2161 134.094 56.8047C134.094 56.263 133.94 55.8255 133.633 55.4922C133.331 55.1589 132.922 54.9922 132.406 54.9922C131.792 54.9922 131.315 55.1797 130.977 55.5547C130.638 55.9297 130.469 56.4427 130.469 57.0938H128.57C128.57 56.401 128.727 55.7786 129.039 55.2266C129.357 54.6693 129.807 54.237 130.391 53.9297C130.979 53.6224 131.656 53.4688 132.422 53.4688C133.526 53.4688 134.396 53.7474 135.031 54.3047C135.672 54.8568 135.992 55.6224 135.992 56.6016C135.992 57.1693 135.831 57.7656 135.508 58.3906C135.19 59.0104 134.667 59.7161 133.938 60.5078L131.156 63.4844H136.438V65Z" fill="#FF6A3E"/>
<path d="M101.789 25H99.8906V16.5469H101.789V25ZM99.7734 14.3516C99.7734 14.0599 99.8646 13.8177 100.047 13.625C100.234 13.4323 100.5 13.3359 100.844 13.3359C101.188 13.3359 101.453 13.4323 101.641 13.625C101.828 13.8177 101.922 14.0599 101.922 14.3516C101.922 14.638 101.828 14.8776 101.641 15.0703C101.453 15.2578 101.188 15.3516 100.844 15.3516C100.5 15.3516 100.234 15.2578 100.047 15.0703C99.8646 14.8776 99.7734 14.638 99.7734 14.3516ZM105.625 16.5469L105.68 17.5234C106.305 16.7682 107.125 16.3906 108.141 16.3906C109.901 16.3906 110.797 17.3984 110.828 19.4141V25H108.93V19.5234C108.93 18.987 108.812 18.5911 108.578 18.3359C108.349 18.0755 107.971 17.9453 107.445 17.9453C106.68 17.9453 106.109 18.2917 105.734 18.9844V25H103.836V16.5469H105.625ZM115.148 14.4922V16.5469H116.641V17.9531H115.148V22.6719C115.148 22.9948 115.211 23.2292 115.336 23.375C115.466 23.5156 115.695 23.5859 116.023 23.5859C116.242 23.5859 116.464 23.5599 116.688 23.5078V24.9766C116.255 25.0964 115.839 25.1562 115.438 25.1562C113.979 25.1562 113.25 24.3516 113.25 22.7422V17.9531H111.859V16.5469H113.25V14.4922H115.148ZM129.531 14.6797L124.984 25H122.992L127.531 15.1484H121.648V13.625H129.531V14.6797Z" fill="#FF5A43"/>
<path d="M8 0.5H221C225.142 0.5 228.5 3.85787 228.5 8V119.5H0.5V8C0.5 3.85786 3.85786 0.5 8 0.5Z" stroke="#5452F6"/>
</g>
<g filter="url(#filter3_d)">
<path d="M0 119H229V135C229 139.418 225.418 143 221 143H8.00001C3.58173 143 0 139.418 0 135V119Z" fill="#EEEEFF"/>
<path d="M0.5 119.5H228.5V135C228.5 139.142 225.142 142.5 221 142.5H8.00001C3.85787 142.5 0.5 139.142 0.5 135V119.5Z" stroke="#5452F6"/>
</g>
<defs>
<filter id="filter0_d" x="400" y="40" width="233" height="84" filterUnits="userSpaceOnUse" color-interpolation-filters="sRGB">
<feFlood flood-opacity="0" result="BackgroundImageFix"/>
<feColorMatrix in="SourceAlpha" type="matrix" values="0 0 0 0 0 0 0 0 0 0 0 0 0 0 0 0 0 0 127 0"/>
<feOffset dx="4" dy="4"/>
<feColorMatrix type="matrix" values="0 0 0 0 0.674908 0 0 0 0 0.662083 0 0 0 0 0.945833 0 0 0 1 0"/>
<feBlend mode="normal" in2="BackgroundImageFix" result="effect1_dropShadow"/>
<feBlend mode="normal" in="SourceGraphic" in2="effect1_dropShadow" result="shape"/>
</filter>
<filter id="filter1_d" x="400" y="119" width="233" height="28" filterUnits="userSpaceOnUse" color-interpolation-filters="sRGB">
<feFlood flood-opacity="0" result="BackgroundImageFix"/>
<feColorMatrix in="SourceAlpha" type="matrix" values="0 0 0 0 0 0 0 0 0 0 0 0 0 0 0 0 0 0 127 0"/>
<feOffset dx="4" dy="4"/>
<feColorMatrix type="matrix" values="0 0 0 0 0.674908 0 0 0 0 0.662083 0 0 0 0 0.945833 0 0 0 1 0"/>
<feBlend mode="normal" in2="BackgroundImageFix" result="effect1_dropShadow"/>
<feBlend mode="normal" in="SourceGraphic" in2="effect1_dropShadow" result="shape"/>
</filter>
<filter id="filter2_d" x="0" y="0" width="233" height="124" filterUnits="userSpaceOnUse" color-interpolation-filters="sRGB">
<feFlood flood-opacity="0" result="BackgroundImageFix"/>
<feColorMatrix in="SourceAlpha" type="matrix" values="0 0 0 0 0 0 0 0 0 0 0 0 0 0 0 0 0 0 127 0"/>
<feOffset dx="4" dy="4"/>
<feColorMatrix type="matrix" values="0 0 0 0 0.674908 0 0 0 0 0.662083 0 0 0 0 0.945833 0 0 0 1 0"/>
<feBlend mode="normal" in2="BackgroundImageFix" result="effect1_dropShadow"/>
<feBlend mode="normal" in="SourceGraphic" in2="effect1_dropShadow" result="shape"/>
</filter>
<filter id="filter3_d" x="0" y="119" width="233" height="28" filterUnits="userSpaceOnUse" color-interpolation-filters="sRGB">
<feFlood flood-opacity="0" result="BackgroundImageFix"/>
<feColorMatrix in="SourceAlpha" type="matrix" values="0 0 0 0 0 0 0 0 0 0 0 0 0 0 0 0 0 0 127 0"/>
<feOffset dx="4" dy="4"/>
<feColorMatrix type="matrix" values="0 0 0 0 0.674908 0 0 0 0 0.662083 0 0 0 0 0.945833 0 0 0 1 0"/>
<feBlend mode="normal" in2="BackgroundImageFix" result="effect1_dropShadow"/>
<feBlend mode="normal" in="SourceGraphic" in2="effect1_dropShadow" result="shape"/>
</filter>
</defs>
</svg>
