<svg width="627" height="86" viewBox="0 0 627 86" fill="none" xmlns="http://www.w3.org/2000/svg">
<line x1="78.9653" y1="39.3125" x2="123.945" y2="39.3125" stroke="#2097F6" stroke-width="2"/>
<line x1="316.713" y1="39.3125" x2="361.692" y2="39.3125" stroke="#2097F6" stroke-width="2"/>
<line x1="198.91" y1="39.3125" x2="243.889" y2="39.3125" stroke="#2097F6" stroke-width="2"/>
<g filter="url(#filter0_d)">
<g filter="url(#filter1_d)">
<rect x="4" width="74.9654" height="78" rx="4" fill="white"/>
<rect x="4.5" y="0.5" width="73.9654" height="77" rx="3.5" stroke="#2097F6"/>
</g>
</g>
<g filter="url(#filter2_d)">
<g filter="url(#filter3_d)">
<rect x="123.132" width="74.9654" height="78" rx="4" fill="white"/>
<rect x="123.632" y="0.5" width="73.9654" height="77" rx="3.5" stroke="#2097F6"/>
</g>
</g>
<g filter="url(#filter4_d)">
<g filter="url(#filter5_d)">
<rect x="242.262" width="74.9654" height="78" rx="4" fill="white"/>
<rect x="242.762" y="0.5" width="73.9654" height="77" rx="3.5" stroke="#2097F6"/>
</g>
</g>
<g filter="url(#filter6_d)">
<g filter="url(#filter7_d)">
<rect x="361.394" width="74.9654" height="78" rx="4" fill="white"/>
<rect x="361.894" y="0.5" width="73.9654" height="77" rx="3.5" stroke="#2097F6"/>
</g>
</g>
<g filter="url(#filter8_d)">
<g filter="url(#filter9_d)">
<rect x="548.035" width="74.9654" height="78" rx="4" fill="white"/>
<rect x="548.535" y="0.5" width="73.9654" height="77" rx="3.5" stroke="#2097F6"/>
</g>
</g>
<path d="M473.069 75.5625C473.069 76.9087 472.11 78 470.927 78C469.744 78 468.785 76.9087 468.785 75.5625C468.785 74.2163 469.744 73.125 470.927 73.125C472.11 73.125 473.069 74.2163 473.069 75.5625Z" stroke="#2097F7" stroke-width="2"/>
<path d="M494.488 75.5625C494.488 76.9087 493.529 78 492.346 78C491.163 78 490.204 76.9087 490.204 75.5625C490.204 74.2163 491.163 73.125 492.346 73.125C493.529 73.125 494.488 74.2163 494.488 75.5625Z" stroke="#2097F7" stroke-width="2"/>
<path d="M515.907 75.5625C515.907 76.9087 514.948 78 513.765 78C512.582 78 511.623 76.9087 511.623 75.5625C511.623 74.2163 512.582 73.125 513.765 73.125C514.948 73.125 515.907 74.2163 515.907 75.5625Z" stroke="#2097F7" stroke-width="2"/>
<path d="M28.6641 35.1016C28.4004 35.4173 28.0277 35.6631 27.5459 35.8389C27.0641 36.0114 26.5303 36.0977 25.9443 36.0977C25.3291 36.0977 24.7887 35.9642 24.3232 35.6973C23.861 35.4271 23.5029 35.0365 23.249 34.5254C22.9984 34.0143 22.8698 33.4137 22.8633 32.7236V32.2402C22.8633 31.5306 22.9821 30.917 23.2197 30.3994C23.4606 29.8786 23.8057 29.4814 24.2549 29.208C24.7074 28.9313 25.2363 28.793 25.8418 28.793C26.6849 28.793 27.3441 28.9948 27.8193 29.3984C28.2946 29.7988 28.5762 30.3831 28.6641 31.1514H27.2383C27.1732 30.7445 27.0283 30.4466 26.8037 30.2578C26.5824 30.069 26.2764 29.9746 25.8857 29.9746C25.3877 29.9746 25.0085 30.1618 24.748 30.5361C24.4876 30.9105 24.3558 31.4671 24.3525 32.2061V32.6602C24.3525 33.4056 24.4941 33.9688 24.7773 34.3496C25.0605 34.7305 25.4756 34.9209 26.0225 34.9209C26.5726 34.9209 26.9648 34.8037 27.1992 34.5693V33.3438H25.8662V32.2646H28.6641V35.1016ZM32.1943 36.0977C31.4196 36.0977 30.7881 35.86 30.2998 35.3848C29.8148 34.9095 29.5723 34.2764 29.5723 33.4854V33.3486C29.5723 32.818 29.6748 32.3444 29.8799 31.9277C30.085 31.5078 30.3747 31.1855 30.749 30.9609C31.1266 30.7331 31.5563 30.6191 32.0381 30.6191C32.7607 30.6191 33.3288 30.847 33.7422 31.3027C34.1589 31.7585 34.3672 32.4046 34.3672 33.2412V33.8174H31.0029C31.0485 34.1624 31.1852 34.4391 31.4131 34.6475C31.6442 34.8558 31.9355 34.96 32.2871 34.96C32.8307 34.96 33.2555 34.763 33.5615 34.3691L34.2549 35.1455C34.0433 35.445 33.7568 35.6794 33.3955 35.8486C33.0342 36.0146 32.6338 36.0977 32.1943 36.0977ZM32.0332 31.7617C31.7533 31.7617 31.5254 31.8561 31.3496 32.0449C31.1771 32.2337 31.0664 32.5039 31.0176 32.8555H32.9805V32.7432C32.974 32.4307 32.8893 32.1898 32.7266 32.0205C32.5638 31.848 32.3327 31.7617 32.0332 31.7617ZM36.4717 30.7168L36.5156 31.3271C36.8932 30.8551 37.3994 30.6191 38.0342 30.6191C38.5941 30.6191 39.0107 30.7835 39.2842 31.1123C39.5576 31.4411 39.6976 31.9326 39.7041 32.5869V36H38.293V32.6211C38.293 32.3216 38.2279 32.1051 38.0977 31.9717C37.9674 31.835 37.751 31.7666 37.4482 31.7666C37.0511 31.7666 36.7533 31.9359 36.5547 32.2744V36H35.1436V30.7168H36.4717ZM43.21 36.0977C42.4352 36.0977 41.8037 35.86 41.3154 35.3848C40.8304 34.9095 40.5879 34.2764 40.5879 33.4854V33.3486C40.5879 32.818 40.6904 32.3444 40.8955 31.9277C41.1006 31.5078 41.3903 31.1855 41.7646 30.9609C42.1423 30.7331 42.5719 30.6191 43.0537 30.6191C43.7764 30.6191 44.3444 30.847 44.7578 31.3027C45.1745 31.7585 45.3828 32.4046 45.3828 33.2412V33.8174H42.0186C42.0641 34.1624 42.2008 34.4391 42.4287 34.6475C42.6598 34.8558 42.9512 34.96 43.3027 34.96C43.8464 34.96 44.2712 34.763 44.5771 34.3691L45.2705 35.1455C45.0589 35.445 44.7725 35.6794 44.4111 35.8486C44.0498 36.0146 43.6494 36.0977 43.21 36.0977ZM43.0488 31.7617C42.7689 31.7617 42.541 31.8561 42.3652 32.0449C42.1927 32.2337 42.082 32.5039 42.0332 32.8555H43.9961V32.7432C43.9896 32.4307 43.9049 32.1898 43.7422 32.0205C43.5794 31.848 43.3483 31.7617 43.0488 31.7617ZM49.0498 34.54C49.0498 34.3675 48.9635 34.2324 48.791 34.1348C48.6217 34.0339 48.3483 33.9443 47.9707 33.8662C46.7142 33.6025 46.0859 33.0687 46.0859 32.2646C46.0859 31.7959 46.2796 31.4053 46.667 31.0928C47.0576 30.777 47.5671 30.6191 48.1953 30.6191C48.8659 30.6191 49.4014 30.777 49.8018 31.0928C50.2054 31.4085 50.4072 31.8187 50.4072 32.3232H48.9961C48.9961 32.1214 48.931 31.9554 48.8008 31.8252C48.6706 31.6917 48.4671 31.625 48.1904 31.625C47.9528 31.625 47.7689 31.6787 47.6387 31.7861C47.5085 31.8936 47.4434 32.0303 47.4434 32.1963C47.4434 32.3525 47.5166 32.4795 47.6631 32.5771C47.8128 32.6715 48.0635 32.7546 48.415 32.8262C48.7666 32.8945 49.0628 32.9727 49.3037 33.0605C50.0492 33.334 50.4219 33.8076 50.4219 34.4814C50.4219 34.9632 50.2152 35.3538 49.8018 35.6533C49.3883 35.9495 48.8545 36.0977 48.2002 36.0977C47.7575 36.0977 47.3636 36.0195 47.0186 35.8633C46.6768 35.7038 46.4082 35.4873 46.2129 35.2139C46.0176 34.9372 45.9199 34.6393 45.9199 34.3203H47.2578C47.2708 34.571 47.3636 34.763 47.5361 34.8965C47.7087 35.0299 47.9398 35.0967 48.2295 35.0967C48.4997 35.0967 48.7031 35.0462 48.8398 34.9453C48.9798 34.8411 49.0498 34.7061 49.0498 34.54ZM52.8242 36H51.4082V30.7168H52.8242V36ZM51.3252 29.3496C51.3252 29.138 51.3952 28.9639 51.5352 28.8271C51.6784 28.6904 51.8721 28.6221 52.1162 28.6221C52.3571 28.6221 52.5492 28.6904 52.6924 28.8271C52.8356 28.9639 52.9072 29.138 52.9072 29.3496C52.9072 29.5645 52.834 29.7402 52.6875 29.877C52.5443 30.0137 52.3538 30.082 52.1162 30.082C51.8786 30.082 51.6865 30.0137 51.54 29.877C51.3968 29.7402 51.3252 29.5645 51.3252 29.3496ZM56.8525 34.54C56.8525 34.3675 56.7663 34.2324 56.5938 34.1348C56.4245 34.0339 56.151 33.9443 55.7734 33.8662C54.5169 33.6025 53.8887 33.0687 53.8887 32.2646C53.8887 31.7959 54.0824 31.4053 54.4697 31.0928C54.8604 30.777 55.3698 30.6191 55.998 30.6191C56.6686 30.6191 57.2041 30.777 57.6045 31.0928C58.0081 31.4085 58.21 31.8187 58.21 32.3232H56.7988C56.7988 32.1214 56.7337 31.9554 56.6035 31.8252C56.4733 31.6917 56.2699 31.625 55.9932 31.625C55.7555 31.625 55.5716 31.6787 55.4414 31.7861C55.3112 31.8936 55.2461 32.0303 55.2461 32.1963C55.2461 32.3525 55.3193 32.4795 55.4658 32.5771C55.6156 32.6715 55.8662 32.7546 56.2178 32.8262C56.5693 32.8945 56.8656 32.9727 57.1064 33.0605C57.8519 33.334 58.2246 33.8076 58.2246 34.4814C58.2246 34.9632 58.0179 35.3538 57.6045 35.6533C57.1911 35.9495 56.6572 36.0977 56.0029 36.0977C55.5602 36.0977 55.1663 36.0195 54.8213 35.8633C54.4795 35.7038 54.2109 35.4873 54.0156 35.2139C53.8203 34.9372 53.7227 34.6393 53.7227 34.3203H55.0605C55.0736 34.571 55.1663 34.763 55.3389 34.8965C55.5114 35.0299 55.7425 35.0967 56.0322 35.0967C56.3024 35.0967 56.5059 35.0462 56.6426 34.9453C56.7826 34.8411 56.8525 34.7061 56.8525 34.54ZM33.5518 45.4072C33.5518 46.2536 33.3711 46.9144 33.0098 47.3896C32.6484 47.8617 32.1439 48.0977 31.4961 48.0977C30.9232 48.0977 30.4658 47.8779 30.124 47.4385L30.0605 48H28.791V40.5H30.2021V43.1904C30.5277 42.8096 30.9557 42.6191 31.4863 42.6191C32.1309 42.6191 32.6354 42.8568 33 43.332C33.3678 43.804 33.5518 44.4697 33.5518 45.3291V45.4072ZM32.1406 45.3047C32.1406 44.7708 32.056 44.3818 31.8867 44.1377C31.7174 43.8903 31.4652 43.7666 31.1299 43.7666C30.6807 43.7666 30.3714 43.9505 30.2021 44.3184V46.4033C30.3747 46.7744 30.6872 46.96 31.1396 46.96C31.5954 46.96 31.8949 46.7354 32.0381 46.2861C32.1064 46.0713 32.1406 45.7441 32.1406 45.3047ZM35.915 48H34.499V40.5H35.915V48ZM36.8623 45.3096C36.8623 44.7855 36.9632 44.3184 37.165 43.9082C37.3669 43.498 37.6566 43.1807 38.0342 42.9561C38.415 42.7314 38.8561 42.6191 39.3574 42.6191C40.0703 42.6191 40.6514 42.8372 41.1006 43.2734C41.5531 43.7096 41.8053 44.3021 41.8574 45.0508L41.8672 45.4121C41.8672 46.2227 41.641 46.8737 41.1885 47.3652C40.736 47.8535 40.1289 48.0977 39.3672 48.0977C38.6055 48.0977 37.9967 47.8535 37.541 47.3652C37.0885 46.877 36.8623 46.2129 36.8623 45.373V45.3096ZM38.2734 45.4121C38.2734 45.9134 38.3678 46.2975 38.5566 46.5645C38.7454 46.8281 39.0156 46.96 39.3672 46.96C39.709 46.96 39.9759 46.8298 40.168 46.5693C40.36 46.3057 40.4561 45.8857 40.4561 45.3096C40.4561 44.818 40.36 44.4372 40.168 44.167C39.9759 43.8968 39.7057 43.7617 39.3574 43.7617C39.0124 43.7617 38.7454 43.8968 38.5566 44.167C38.3678 44.4339 38.2734 44.849 38.2734 45.4121ZM44.9336 46.96C45.194 46.96 45.4056 46.8883 45.5684 46.7451C45.7311 46.6019 45.8158 46.4115 45.8223 46.1738H47.1455C47.1423 46.5319 47.0446 46.8607 46.8525 47.1602C46.6605 47.4564 46.3968 47.6875 46.0615 47.8535C45.7295 48.0163 45.3617 48.0977 44.958 48.0977C44.2028 48.0977 43.6071 47.8584 43.1709 47.3799C42.7347 46.8981 42.5166 46.234 42.5166 45.3877V45.2949C42.5166 44.4811 42.7331 43.8317 43.166 43.3467C43.599 42.8617 44.193 42.6191 44.9482 42.6191C45.609 42.6191 46.138 42.8079 46.5352 43.1855C46.9355 43.5599 47.139 44.0596 47.1455 44.6846H45.8223C45.8158 44.4111 45.7311 44.1898 45.5684 44.0205C45.4056 43.848 45.1908 43.7617 44.9238 43.7617C44.5951 43.7617 44.346 43.8822 44.1768 44.123C44.0107 44.3607 43.9277 44.748 43.9277 45.2852V45.4316C43.9277 45.9753 44.0107 46.3659 44.1768 46.6035C44.3428 46.8411 44.5951 46.96 44.9336 46.96ZM49.8701 45.8809L49.3623 46.3887V48H47.9512V40.5H49.3623V44.6553L49.6357 44.3037L50.9883 42.7168H52.6826L50.7734 44.9189L52.8486 48H51.2275L49.8701 45.8809Z" fill="#2097F6"/>
<path d="M145.892 41V33.8906H148.382C149.244 33.8906 149.899 34.0566 150.345 34.3887C150.791 34.7174 151.014 35.2008 151.014 35.8389C151.014 36.1872 150.924 36.4948 150.745 36.7617C150.566 37.0254 150.317 37.2191 149.998 37.3428C150.363 37.4339 150.649 37.6178 150.857 37.8945C151.069 38.1712 151.175 38.5098 151.175 38.9102C151.175 39.5938 150.957 40.1113 150.521 40.4629C150.084 40.8145 149.463 40.9935 148.655 41H145.892ZM147.356 37.9043V39.8232H148.611C148.956 39.8232 149.225 39.7419 149.417 39.5791C149.612 39.4131 149.71 39.1852 149.71 38.8955C149.71 38.2445 149.373 37.9141 148.699 37.9043H147.356ZM147.356 36.8691H148.44C149.179 36.8561 149.549 36.5615 149.549 35.9854C149.549 35.6631 149.454 35.432 149.266 35.292C149.08 35.1488 148.785 35.0771 148.382 35.0771H147.356V36.8691ZM153.675 41H152.259V33.5H153.675V41ZM154.622 38.3096C154.622 37.7855 154.723 37.3184 154.925 36.9082C155.127 36.498 155.416 36.1807 155.794 35.9561C156.175 35.7314 156.616 35.6191 157.117 35.6191C157.83 35.6191 158.411 35.8372 158.86 36.2734C159.313 36.7096 159.565 37.3021 159.617 38.0508L159.627 38.4121C159.627 39.2227 159.401 39.8737 158.948 40.3652C158.496 40.8535 157.889 41.0977 157.127 41.0977C156.365 41.0977 155.757 40.8535 155.301 40.3652C154.848 39.877 154.622 39.2129 154.622 38.373V38.3096ZM156.033 38.4121C156.033 38.9134 156.128 39.2975 156.316 39.5645C156.505 39.8281 156.775 39.96 157.127 39.96C157.469 39.96 157.736 39.8298 157.928 39.5693C158.12 39.3057 158.216 38.8857 158.216 38.3096C158.216 37.818 158.12 37.4372 157.928 37.167C157.736 36.8968 157.465 36.7617 157.117 36.7617C156.772 36.7617 156.505 36.8968 156.316 37.167C156.128 37.4339 156.033 37.849 156.033 38.4121ZM162.693 39.96C162.954 39.96 163.165 39.8883 163.328 39.7451C163.491 39.6019 163.576 39.4115 163.582 39.1738H164.905C164.902 39.5319 164.804 39.8607 164.612 40.1602C164.42 40.4564 164.157 40.6875 163.821 40.8535C163.489 41.0163 163.121 41.0977 162.718 41.0977C161.963 41.0977 161.367 40.8584 160.931 40.3799C160.494 39.8981 160.276 39.234 160.276 38.3877V38.2949C160.276 37.4811 160.493 36.8317 160.926 36.3467C161.359 35.8617 161.953 35.6191 162.708 35.6191C163.369 35.6191 163.898 35.8079 164.295 36.1855C164.695 36.5599 164.899 37.0596 164.905 37.6846H163.582C163.576 37.4111 163.491 37.1898 163.328 37.0205C163.165 36.848 162.951 36.7617 162.684 36.7617C162.355 36.7617 162.106 36.8822 161.937 37.123C161.771 37.3607 161.688 37.748 161.688 38.2852V38.4316C161.688 38.9753 161.771 39.3659 161.937 39.6035C162.103 39.8411 162.355 39.96 162.693 39.96ZM167.63 38.8809L167.122 39.3887V41H165.711V33.5H167.122V37.6553L167.396 37.3037L168.748 35.7168H170.442L168.533 37.9189L170.608 41H168.987L167.63 38.8809ZM178.357 41H173.484V40.0332L175.784 37.582C176.1 37.237 176.333 36.9359 176.482 36.6787C176.635 36.4215 176.712 36.1774 176.712 35.9463C176.712 35.6305 176.632 35.3831 176.473 35.2041C176.313 35.0218 176.085 34.9307 175.789 34.9307C175.47 34.9307 175.218 35.0413 175.032 35.2627C174.85 35.4808 174.759 35.7689 174.759 36.127H173.343C173.343 35.694 173.445 35.2985 173.65 34.9404C173.859 34.5824 174.152 34.3024 174.529 34.1006C174.907 33.8955 175.335 33.793 175.813 33.793C176.546 33.793 177.114 33.9688 177.518 34.3203C177.924 34.6719 178.128 35.1683 178.128 35.8096C178.128 36.1611 178.037 36.5192 177.854 36.8838C177.672 37.2484 177.36 37.6732 176.917 38.1582L175.301 39.8623H178.357V41Z" fill="#2097F6"/>
<path d="M264.392 41V33.8906H266.882C267.744 33.8906 268.399 34.0566 268.845 34.3887C269.291 34.7174 269.514 35.2008 269.514 35.8389C269.514 36.1872 269.424 36.4948 269.245 36.7617C269.066 37.0254 268.817 37.2191 268.498 37.3428C268.863 37.4339 269.149 37.6178 269.357 37.8945C269.569 38.1712 269.675 38.5098 269.675 38.9102C269.675 39.5938 269.457 40.1113 269.021 40.4629C268.584 40.8145 267.963 40.9935 267.155 41H264.392ZM265.856 37.9043V39.8232H267.111C267.456 39.8232 267.725 39.7419 267.917 39.5791C268.112 39.4131 268.21 39.1852 268.21 38.8955C268.21 38.2445 267.873 37.9141 267.199 37.9043H265.856ZM265.856 36.8691H266.94C267.679 36.8561 268.049 36.5615 268.049 35.9854C268.049 35.6631 267.954 35.432 267.766 35.292C267.58 35.1488 267.285 35.0771 266.882 35.0771H265.856V36.8691ZM272.175 41H270.759V33.5H272.175V41ZM273.122 38.3096C273.122 37.7855 273.223 37.3184 273.425 36.9082C273.627 36.498 273.916 36.1807 274.294 35.9561C274.675 35.7314 275.116 35.6191 275.617 35.6191C276.33 35.6191 276.911 35.8372 277.36 36.2734C277.813 36.7096 278.065 37.3021 278.117 38.0508L278.127 38.4121C278.127 39.2227 277.901 39.8737 277.448 40.3652C276.996 40.8535 276.389 41.0977 275.627 41.0977C274.865 41.0977 274.257 40.8535 273.801 40.3652C273.348 39.877 273.122 39.2129 273.122 38.373V38.3096ZM274.533 38.4121C274.533 38.9134 274.628 39.2975 274.816 39.5645C275.005 39.8281 275.275 39.96 275.627 39.96C275.969 39.96 276.236 39.8298 276.428 39.5693C276.62 39.3057 276.716 38.8857 276.716 38.3096C276.716 37.818 276.62 37.4372 276.428 37.167C276.236 36.8968 275.965 36.7617 275.617 36.7617C275.272 36.7617 275.005 36.8968 274.816 37.167C274.628 37.4339 274.533 37.849 274.533 38.4121ZM281.193 39.96C281.454 39.96 281.665 39.8883 281.828 39.7451C281.991 39.6019 282.076 39.4115 282.082 39.1738H283.405C283.402 39.5319 283.304 39.8607 283.112 40.1602C282.92 40.4564 282.657 40.6875 282.321 40.8535C281.989 41.0163 281.621 41.0977 281.218 41.0977C280.463 41.0977 279.867 40.8584 279.431 40.3799C278.994 39.8981 278.776 39.234 278.776 38.3877V38.2949C278.776 37.4811 278.993 36.8317 279.426 36.3467C279.859 35.8617 280.453 35.6191 281.208 35.6191C281.869 35.6191 282.398 35.8079 282.795 36.1855C283.195 36.5599 283.399 37.0596 283.405 37.6846H282.082C282.076 37.4111 281.991 37.1898 281.828 37.0205C281.665 36.848 281.451 36.7617 281.184 36.7617C280.855 36.7617 280.606 36.8822 280.437 37.123C280.271 37.3607 280.188 37.748 280.188 38.2852V38.4316C280.188 38.9753 280.271 39.3659 280.437 39.6035C280.603 39.8411 280.855 39.96 281.193 39.96ZM286.13 38.8809L285.622 39.3887V41H284.211V33.5H285.622V37.6553L285.896 37.3037L287.248 35.7168H288.942L287.033 37.9189L289.108 41H287.487L286.13 38.8809ZM293.42 36.8203H294.172C294.53 36.8203 294.795 36.7308 294.968 36.5518C295.14 36.3727 295.227 36.1351 295.227 35.8389C295.227 35.5524 295.14 35.3294 294.968 35.1699C294.799 35.0104 294.564 34.9307 294.265 34.9307C293.994 34.9307 293.768 35.0055 293.586 35.1553C293.404 35.3018 293.312 35.4938 293.312 35.7314H291.901C291.901 35.3604 292.001 35.0283 292.199 34.7354C292.401 34.4391 292.681 34.208 293.039 34.042C293.4 33.876 293.798 33.793 294.23 33.793C294.982 33.793 295.572 33.9736 295.998 34.335C296.424 34.693 296.638 35.1878 296.638 35.8193C296.638 36.1449 296.538 36.4443 296.34 36.7178C296.141 36.9912 295.881 37.2012 295.559 37.3477C295.959 37.4909 296.257 37.7057 296.452 37.9922C296.651 38.2786 296.75 38.6172 296.75 39.0078C296.75 39.6393 296.519 40.1455 296.057 40.5264C295.598 40.9072 294.989 41.0977 294.23 41.0977C293.521 41.0977 292.94 40.9105 292.487 40.5361C292.038 40.1618 291.813 39.667 291.813 39.0518H293.225C293.225 39.3187 293.324 39.5368 293.522 39.7061C293.724 39.8753 293.972 39.96 294.265 39.96C294.6 39.96 294.862 39.8721 295.051 39.6963C295.243 39.5173 295.339 39.2812 295.339 38.9883C295.339 38.2786 294.948 37.9238 294.167 37.9238H293.42V36.8203Z" fill="#2097F6"/>
<path d="M382.892 41V33.8906H385.382C386.244 33.8906 386.899 34.0566 387.345 34.3887C387.791 34.7174 388.014 35.2008 388.014 35.8389C388.014 36.1872 387.924 36.4948 387.745 36.7617C387.566 37.0254 387.317 37.2191 386.998 37.3428C387.363 37.4339 387.649 37.6178 387.857 37.8945C388.069 38.1712 388.175 38.5098 388.175 38.9102C388.175 39.5938 387.957 40.1113 387.521 40.4629C387.084 40.8145 386.463 40.9935 385.655 41H382.892ZM384.356 37.9043V39.8232H385.611C385.956 39.8232 386.225 39.7419 386.417 39.5791C386.612 39.4131 386.71 39.1852 386.71 38.8955C386.71 38.2445 386.373 37.9141 385.699 37.9043H384.356ZM384.356 36.8691H385.44C386.179 36.8561 386.549 36.5615 386.549 35.9854C386.549 35.6631 386.454 35.432 386.266 35.292C386.08 35.1488 385.785 35.0771 385.382 35.0771H384.356V36.8691ZM390.675 41H389.259V33.5H390.675V41ZM391.622 38.3096C391.622 37.7855 391.723 37.3184 391.925 36.9082C392.127 36.498 392.416 36.1807 392.794 35.9561C393.175 35.7314 393.616 35.6191 394.117 35.6191C394.83 35.6191 395.411 35.8372 395.86 36.2734C396.313 36.7096 396.565 37.3021 396.617 38.0508L396.627 38.4121C396.627 39.2227 396.401 39.8737 395.948 40.3652C395.496 40.8535 394.889 41.0977 394.127 41.0977C393.365 41.0977 392.757 40.8535 392.301 40.3652C391.848 39.877 391.622 39.2129 391.622 38.373V38.3096ZM393.033 38.4121C393.033 38.9134 393.128 39.2975 393.316 39.5645C393.505 39.8281 393.775 39.96 394.127 39.96C394.469 39.96 394.736 39.8298 394.928 39.5693C395.12 39.3057 395.216 38.8857 395.216 38.3096C395.216 37.818 395.12 37.4372 394.928 37.167C394.736 36.8968 394.465 36.7617 394.117 36.7617C393.772 36.7617 393.505 36.8968 393.316 37.167C393.128 37.4339 393.033 37.849 393.033 38.4121ZM399.693 39.96C399.954 39.96 400.165 39.8883 400.328 39.7451C400.491 39.6019 400.576 39.4115 400.582 39.1738H401.905C401.902 39.5319 401.804 39.8607 401.612 40.1602C401.42 40.4564 401.157 40.6875 400.821 40.8535C400.489 41.0163 400.121 41.0977 399.718 41.0977C398.963 41.0977 398.367 40.8584 397.931 40.3799C397.494 39.8981 397.276 39.234 397.276 38.3877V38.2949C397.276 37.4811 397.493 36.8317 397.926 36.3467C398.359 35.8617 398.953 35.6191 399.708 35.6191C400.369 35.6191 400.898 35.8079 401.295 36.1855C401.695 36.5599 401.899 37.0596 401.905 37.6846H400.582C400.576 37.4111 400.491 37.1898 400.328 37.0205C400.165 36.848 399.951 36.7617 399.684 36.7617C399.355 36.7617 399.106 36.8822 398.937 37.123C398.771 37.3607 398.688 37.748 398.688 38.2852V38.4316C398.688 38.9753 398.771 39.3659 398.937 39.6035C399.103 39.8411 399.355 39.96 399.693 39.96ZM404.63 38.8809L404.122 39.3887V41H402.711V33.5H404.122V37.6553L404.396 37.3037L405.748 35.7168H407.442L405.533 37.9189L407.608 41H405.987L404.63 38.8809ZM414.659 38.3242H415.465V39.4619H414.659V41H413.248V39.4619H410.333L410.27 38.5732L413.233 33.8906H414.659V38.3242ZM411.676 38.3242H413.248V35.8145L413.155 35.9756L411.676 38.3242Z" fill="#2097F6"/>
<path d="M569.96 41V33.8906H572.45C573.313 33.8906 573.967 34.0566 574.413 34.3887C574.859 34.7174 575.082 35.2008 575.082 35.8389C575.082 36.1872 574.993 36.4948 574.813 36.7617C574.634 37.0254 574.385 37.2191 574.066 37.3428C574.431 37.4339 574.717 37.6178 574.926 37.8945C575.137 38.1712 575.243 38.5098 575.243 38.9102C575.243 39.5938 575.025 40.1113 574.589 40.4629C574.153 40.8145 573.531 40.9935 572.724 41H569.96ZM571.425 37.9043V39.8232H572.68C573.025 39.8232 573.293 39.7419 573.485 39.5791C573.681 39.4131 573.778 39.1852 573.778 38.8955C573.778 38.2445 573.441 37.9141 572.768 37.9043H571.425ZM571.425 36.8691H572.509C573.248 36.8561 573.617 36.5615 573.617 35.9854C573.617 35.6631 573.523 35.432 573.334 35.292C573.148 35.1488 572.854 35.0771 572.45 35.0771H571.425V36.8691ZM577.743 41H576.327V33.5H577.743V41ZM578.69 38.3096C578.69 37.7855 578.791 37.3184 578.993 36.9082C579.195 36.498 579.485 36.1807 579.862 35.9561C580.243 35.7314 580.684 35.6191 581.186 35.6191C581.898 35.6191 582.479 35.8372 582.929 36.2734C583.381 36.7096 583.633 37.3021 583.686 38.0508L583.695 38.4121C583.695 39.2227 583.469 39.8737 583.017 40.3652C582.564 40.8535 581.957 41.0977 581.195 41.0977C580.434 41.0977 579.825 40.8535 579.369 40.3652C578.917 39.877 578.69 39.2129 578.69 38.373V38.3096ZM580.102 38.4121C580.102 38.9134 580.196 39.2975 580.385 39.5645C580.574 39.8281 580.844 39.96 581.195 39.96C581.537 39.96 581.804 39.8298 581.996 39.5693C582.188 39.3057 582.284 38.8857 582.284 38.3096C582.284 37.818 582.188 37.4372 581.996 37.167C581.804 36.8968 581.534 36.7617 581.186 36.7617C580.84 36.7617 580.574 36.8968 580.385 37.167C580.196 37.4339 580.102 37.849 580.102 38.4121ZM586.762 39.96C587.022 39.96 587.234 39.8883 587.396 39.7451C587.559 39.6019 587.644 39.4115 587.65 39.1738H588.974C588.97 39.5319 588.873 39.8607 588.681 40.1602C588.489 40.4564 588.225 40.6875 587.89 40.8535C587.558 41.0163 587.19 41.0977 586.786 41.0977C586.031 41.0977 585.435 40.8584 584.999 40.3799C584.563 39.8981 584.345 39.234 584.345 38.3877V38.2949C584.345 37.4811 584.561 36.8317 584.994 36.3467C585.427 35.8617 586.021 35.6191 586.776 35.6191C587.437 35.6191 587.966 35.8079 588.363 36.1855C588.764 36.5599 588.967 37.0596 588.974 37.6846H587.65C587.644 37.4111 587.559 37.1898 587.396 37.0205C587.234 36.848 587.019 36.7617 586.752 36.7617C586.423 36.7617 586.174 36.8822 586.005 37.123C585.839 37.3607 585.756 37.748 585.756 38.2852V38.4316C585.756 38.9753 585.839 39.3659 586.005 39.6035C586.171 39.8411 586.423 39.96 586.762 39.96ZM591.698 38.8809L591.19 39.3887V41H589.779V33.5H591.19V37.6553L591.464 37.3037L592.816 35.7168H594.511L592.602 37.9189L594.677 41H593.056L591.698 38.8809ZM598.91 35.7168L598.954 36.3271C599.332 35.8551 599.838 35.6191 600.473 35.6191C601.033 35.6191 601.449 35.7835 601.723 36.1123C601.996 36.4411 602.136 36.9326 602.143 37.5869V41H600.731V37.6211C600.731 37.3216 600.666 37.1051 600.536 36.9717C600.406 36.835 600.189 36.7666 599.887 36.7666C599.49 36.7666 599.192 36.9359 598.993 37.2744V41H597.582V35.7168H598.91Z" fill="#2097F6"/>
<defs>
<filter id="filter0_d" x="0" y="0" width="82.9654" height="86" filterUnits="userSpaceOnUse" color-interpolation-filters="sRGB">
<feFlood flood-opacity="0" result="BackgroundImageFix"/>
<feColorMatrix in="SourceAlpha" type="matrix" values="0 0 0 0 0 0 0 0 0 0 0 0 0 0 0 0 0 0 127 0"/>
<feOffset dy="4"/>
<feGaussianBlur stdDeviation="2"/>
<feColorMatrix type="matrix" values="0 0 0 0 0.12549 0 0 0 0 0.592157 0 0 0 0 0.964706 0 0 0 0.25 0"/>
<feBlend mode="normal" in2="BackgroundImageFix" result="effect1_dropShadow"/>
<feBlend mode="normal" in="SourceGraphic" in2="effect1_dropShadow" result="shape"/>
</filter>
<filter id="filter1_d" x="4" y="0" width="76.9654" height="80" filterUnits="userSpaceOnUse" color-interpolation-filters="sRGB">
<feFlood flood-opacity="0" result="BackgroundImageFix"/>
<feColorMatrix in="SourceAlpha" type="matrix" values="0 0 0 0 0 0 0 0 0 0 0 0 0 0 0 0 0 0 127 0"/>
<feOffset dx="2" dy="2"/>
<feColorMatrix type="matrix" values="0 0 0 0 0.513733 0 0 0 0 0.767915 0 0 0 0 0.970833 0 0 0 1 0"/>
<feBlend mode="normal" in2="BackgroundImageFix" result="effect1_dropShadow"/>
<feBlend mode="normal" in="SourceGraphic" in2="effect1_dropShadow" result="shape"/>
</filter>
<filter id="filter2_d" x="119.132" y="0" width="82.9654" height="86" filterUnits="userSpaceOnUse" color-interpolation-filters="sRGB">
<feFlood flood-opacity="0" result="BackgroundImageFix"/>
<feColorMatrix in="SourceAlpha" type="matrix" values="0 0 0 0 0 0 0 0 0 0 0 0 0 0 0 0 0 0 127 0"/>
<feOffset dy="4"/>
<feGaussianBlur stdDeviation="2"/>
<feColorMatrix type="matrix" values="0 0 0 0 0.12549 0 0 0 0 0.592157 0 0 0 0 0.964706 0 0 0 0.25 0"/>
<feBlend mode="normal" in2="BackgroundImageFix" result="effect1_dropShadow"/>
<feBlend mode="normal" in="SourceGraphic" in2="effect1_dropShadow" result="shape"/>
</filter>
<filter id="filter3_d" x="123.132" y="0" width="76.9654" height="80" filterUnits="userSpaceOnUse" color-interpolation-filters="sRGB">
<feFlood flood-opacity="0" result="BackgroundImageFix"/>
<feColorMatrix in="SourceAlpha" type="matrix" values="0 0 0 0 0 0 0 0 0 0 0 0 0 0 0 0 0 0 127 0"/>
<feOffset dx="2" dy="2"/>
<feColorMatrix type="matrix" values="0 0 0 0 0.513733 0 0 0 0 0.767915 0 0 0 0 0.970833 0 0 0 1 0"/>
<feBlend mode="normal" in2="BackgroundImageFix" result="effect1_dropShadow"/>
<feBlend mode="normal" in="SourceGraphic" in2="effect1_dropShadow" result="shape"/>
</filter>
<filter id="filter4_d" x="238.262" y="0" width="82.9654" height="86" filterUnits="userSpaceOnUse" color-interpolation-filters="sRGB">
<feFlood flood-opacity="0" result="BackgroundImageFix"/>
<feColorMatrix in="SourceAlpha" type="matrix" values="0 0 0 0 0 0 0 0 0 0 0 0 0 0 0 0 0 0 127 0"/>
<feOffset dy="4"/>
<feGaussianBlur stdDeviation="2"/>
<feColorMatrix type="matrix" values="0 0 0 0 0.12549 0 0 0 0 0.592157 0 0 0 0 0.964706 0 0 0 0.25 0"/>
<feBlend mode="normal" in2="BackgroundImageFix" result="effect1_dropShadow"/>
<feBlend mode="normal" in="SourceGraphic" in2="effect1_dropShadow" result="shape"/>
</filter>
<filter id="filter5_d" x="242.262" y="0" width="76.9654" height="80" filterUnits="userSpaceOnUse" color-interpolation-filters="sRGB">
<feFlood flood-opacity="0" result="BackgroundImageFix"/>
<feColorMatrix in="SourceAlpha" type="matrix" values="0 0 0 0 0 0 0 0 0 0 0 0 0 0 0 0 0 0 127 0"/>
<feOffset dx="2" dy="2"/>
<feColorMatrix type="matrix" values="0 0 0 0 0.513733 0 0 0 0 0.767915 0 0 0 0 0.970833 0 0 0 1 0"/>
<feBlend mode="normal" in2="BackgroundImageFix" result="effect1_dropShadow"/>
<feBlend mode="normal" in="SourceGraphic" in2="effect1_dropShadow" result="shape"/>
</filter>
<filter id="filter6_d" x="357.394" y="0" width="82.9654" height="86" filterUnits="userSpaceOnUse" color-interpolation-filters="sRGB">
<feFlood flood-opacity="0" result="BackgroundImageFix"/>
<feColorMatrix in="SourceAlpha" type="matrix" values="0 0 0 0 0 0 0 0 0 0 0 0 0 0 0 0 0 0 127 0"/>
<feOffset dy="4"/>
<feGaussianBlur stdDeviation="2"/>
<feColorMatrix type="matrix" values="0 0 0 0 0.12549 0 0 0 0 0.592157 0 0 0 0 0.964706 0 0 0 0.25 0"/>
<feBlend mode="normal" in2="BackgroundImageFix" result="effect1_dropShadow"/>
<feBlend mode="normal" in="SourceGraphic" in2="effect1_dropShadow" result="shape"/>
</filter>
<filter id="filter7_d" x="361.394" y="0" width="76.9654" height="80" filterUnits="userSpaceOnUse" color-interpolation-filters="sRGB">
<feFlood flood-opacity="0" result="BackgroundImageFix"/>
<feColorMatrix in="SourceAlpha" type="matrix" values="0 0 0 0 0 0 0 0 0 0 0 0 0 0 0 0 0 0 127 0"/>
<feOffset dx="2" dy="2"/>
<feColorMatrix type="matrix" values="0 0 0 0 0.513733 0 0 0 0 0.767915 0 0 0 0 0.970833 0 0 0 1 0"/>
<feBlend mode="normal" in2="BackgroundImageFix" result="effect1_dropShadow"/>
<feBlend mode="normal" in="SourceGraphic" in2="effect1_dropShadow" result="shape"/>
</filter>
<filter id="filter8_d" x="544.035" y="0" width="82.9654" height="86" filterUnits="userSpaceOnUse" color-interpolation-filters="sRGB">
<feFlood flood-opacity="0" result="BackgroundImageFix"/>
<feColorMatrix in="SourceAlpha" type="matrix" values="0 0 0 0 0 0 0 0 0 0 0 0 0 0 0 0 0 0 127 0"/>
<feOffset dy="4"/>
<feGaussianBlur stdDeviation="2"/>
<feColorMatrix type="matrix" values="0 0 0 0 0.12549 0 0 0 0 0.592157 0 0 0 0 0.964706 0 0 0 0.25 0"/>
<feBlend mode="normal" in2="BackgroundImageFix" result="effect1_dropShadow"/>
<feBlend mode="normal" in="SourceGraphic" in2="effect1_dropShadow" result="shape"/>
</filter>
<filter id="filter9_d" x="548.035" y="0" width="76.9654" height="80" filterUnits="userSpaceOnUse" color-interpolation-filters="sRGB">
<feFlood flood-opacity="0" result="BackgroundImageFix"/>
<feColorMatrix in="SourceAlpha" type="matrix" values="0 0 0 0 0 0 0 0 0 0 0 0 0 0 0 0 0 0 127 0"/>
<feOffset dx="2" dy="2"/>
<feColorMatrix type="matrix" values="0 0 0 0 0.513733 0 0 0 0 0.767915 0 0 0 0 0.970833 0 0 0 1 0"/>
<feBlend mode="normal" in2="BackgroundImageFix" result="effect1_dropShadow"/>
<feBlend mode="normal" in="SourceGraphic" in2="effect1_dropShadow" result="shape"/>
</filter>
</defs>
</svg>
